<svg xmlns="http://www.w3.org/2000/svg" fill="none" height="33" width="35" xmlns:v="https://vecta.io/nano"><path d="M32.958 1l-13.134 9.718 2.442-5.727z" fill="#e17726" stroke="#e17726" stroke-linejoin="round" stroke-width=".25"/><g fill="#e27625" stroke="#e27625" stroke-linejoin="round" stroke-width=".25"><path d="M2.663 1l13.017 9.8-2.325-5.818zM28.23 23.534l-3.495 5.34 7.483 2.06 2.144-7.282z"/><path d="M1.273 23.65l2.13 7.282 7.47-2.06-3.482-5.34zm9.197-9.135L8.4 17.65l7.405.337-.247-7.97z"/><path d="M25.15 14.515l-5.157-4.587-.17 8.06 7.405-.337zM10.873 28.872l4.482-2.164-3.858-3.006zm9.393-2.164l4.47 2.164-.6-5.17z"/></g><g stroke-linejoin="round" stroke-width=".25"><path d="M24.735 28.872l-4.47-2.164.364 2.903-.04 1.23zm-13.862 0l4.157 1.97-.026-1.23.35-2.902z" fill="#d5bfb2" stroke="#d5bfb2"/><path d="M15.108 21.784l-3.716-1.088 2.624-1.205zm5.405 0l1.1-2.294 2.637 1.205z" fill="#233447" stroke="#233447"/><path d="M10.873 28.872l.65-5.34-4.13.117zm13.225-5.338l.637 5.34 3.495-5.222zm3.132-5.884l-7.405.337.7 3.797 1.1-2.293 2.637 1.205zm-15.837 3.046l2.624-1.205 1.1 2.294.688-3.797L8.4 17.65z" fill="#cc6228" stroke="#cc6228"/><path d="M8.392 17.65l3.105 6.05-.104-3.006zm15.848 3.046l-.117 3.006 3.105-6.05zm-8.443-2.708l-.7 3.797.87 4.483.195-5.9zm4.027 0l-.364 2.358.182 5.922.87-4.483z" fill="#e27525" stroke="#e27525"/><path d="M20.513 21.784l-.87 4.483.624.44 3.858-3.006.117-3.006zm-9.12-1.088l.104 3.006 3.858 3.006.624-.44-.87-4.483z" fill="#f5841f" stroke="#f5841f"/><path d="M20.59 30.842l.04-1.23-.338-.285H15.33l-.325.285.026 1.23-4.157-1.97 1.455 1.192 2.95 2.034h5.054l2.962-2.034 1.442-1.192z" fill="#c0ac9d" stroke="#c0ac9d"/><path d="M20.266 26.708l-.624-.44H15.98l-.624.44-.35 2.903.325-.285h4.963l.338.285z" fill="#161616" stroke="#161616"/><path d="M33.517 11.353L34.62 6l-1.662-5-12.692 9.394 4.885 4.12 6.898 2 1.52-1.775-.663-.48 1.052-.96-.805-.622 1.052-.803zM1 6l1.117 5.364-.715.53 1.065.803-.805.622 1.052.96-.663.48 1.52 1.775 6.898-2.008 4.885-4.12L2.663 1z" fill="#763e1a" stroke="#763e1a"/><path d="M32.05 16.523l-6.898-2.008 2.08 3.136-3.105 6.05 4.105-.052h6.132zm-21.58-2.008l-6.898 2-2.3 7.127h6.12l4.105.052-3.105-6.05zm9.354 3.473l.442-7.593 2-5.403h-8.912l2 5.403.442 7.593.17 2.384.013 5.896h3.664l.013-5.896z" fill="#f5841f" stroke="#f5841f"/></g></svg>