<svg xmlns="http://www.w3.org/2000/svg" width="300" height="185" xmlns:v="https://vecta.io/nano"><path d="M61.44 36.256c48.91-47.888 128.212-47.888 177.123 0l5.887 5.763a6.04 6.04 0 0 1 0 8.671l-20.137 19.716a3.18 3.18 0 0 1-4.428 0l-8.1-7.93c-34.122-33.408-89.444-33.408-123.566 0l-8.675 8.494a3.18 3.18 0 0 1-4.428 0L54.978 51.253a6.04 6.04 0 0 1 0-8.671l6.46-6.326zM280.206 77.03l17.922 17.547a6.04 6.04 0 0 1 0 8.671l-80.8 79.12a6.36 6.36 0 0 1-8.856 0l-57.354-56.155a1.59 1.59 0 0 0-2.214 0L91.54 182.37a6.36 6.36 0 0 1-8.856 0L1.872 103.247a6.04 6.04 0 0 1 0-8.671L19.794 77.03a6.36 6.36 0 0 1 8.856 0l57.355 56.155a1.59 1.59 0 0 0 2.214 0L145.57 77.03a6.36 6.36 0 0 1 8.856 0l57.355 56.156a1.59 1.59 0 0 0 2.214 0L271.35 77.03a6.36 6.36 0 0 1 8.856 0z" fill="#3b99fc"/></svg>