<svg width="136" height="92" viewBox="0 0 136 92" fill="none" xmlns="http://www.w3.org/2000/svg">
<path d="M34.3998 44.0012C29.9534 44.564 27.4087 41.3665 27.0216 37.0773L24.041 19.691C23.6478 15.4051 26.9387 11.4728 31.3897 10.9113C35.8361 10.3486 39.7608 13.3716 40.1526 17.662L40.3685 35.396C40.7617 39.6819 38.8508 43.4397 34.4044 44.0025L34.3998 44.0012Z" fill="#1CC4F7"/>
<path d="M33.47 45.1462C31.4509 45.1732 29.6969 44.4811 28.3651 43.1222C26.9873 41.7215 26.1431 39.6938 25.9127 37.2654L22.9241 19.8326C22.4829 14.9616 26.2279 10.4815 31.2821 9.84751C36.3316 9.21225 40.8073 12.6574 41.25 17.5239L41.254 17.603L41.4725 35.3045C41.9435 40.647 39.206 44.4812 34.4933 45.0755C34.1458 45.1185 33.8042 45.1436 33.47 45.1462ZM25.1329 19.5152L28.1169 36.9468C28.2946 38.8975 28.9627 40.5509 29.9992 41.6108C31.0849 42.718 32.5292 43.1705 34.2953 42.9437C38.401 42.425 39.5483 38.782 39.2553 35.5415L39.2513 35.4624L39.0313 17.7654C38.6754 14.0932 35.2947 11.4992 31.4696 11.9813C29.6124 12.2129 27.9288 13.1304 26.733 14.5647C25.5415 15.9855 24.9755 17.7456 25.1268 19.5185L25.1329 19.5152Z" fill="#280D5F"/>
<path d="M51.1669 44.0925C46.8114 43.4255 45.3331 39.6419 46.2032 35.3798L48.4041 17.7326C49.2728 13.4749 53.5093 10.5605 57.8647 11.2274C62.2201 11.8944 65.0504 15.8878 64.1817 20.1455L59.2741 37.3819C58.4054 41.6395 55.5223 44.7594 51.1669 44.0925Z" fill="#1CC4F7"/>
<path d="M52.3849 45.2607C51.9175 45.2658 51.4375 45.2334 50.9511 45.1604C46.3317 44.4523 44.0413 40.5693 45.104 35.2623L47.3159 17.5646C47.7927 15.2222 49.179 13.1597 51.2103 11.7627C53.2416 10.3658 55.6868 9.79572 58.0844 10.1614C60.482 10.527 62.553 11.7871 63.9104 13.7007C65.2678 15.6144 65.7547 17.9641 65.2778 20.3064L65.253 20.3824L60.3577 37.5886C59.3744 42.3334 56.3218 45.2056 52.3849 45.2607ZM51.3853 43.04C55.406 43.6545 57.5467 40.4337 58.2005 37.215L58.2253 37.139L63.1207 19.9328C63.4684 18.1685 63.099 16.4002 62.0772 14.9615C61.046 13.5057 59.4793 12.5521 57.6577 12.274C55.836 11.9958 53.9866 12.4253 52.4414 13.4866C50.9082 14.5414 49.8635 16.0882 49.4916 17.8508L47.2797 35.5485C46.6213 38.766 47.3555 42.423 51.3807 43.0388L51.3853 43.04Z" fill="#280D5F"/>
<path d="M76.8079 40.6313C76.9717 34.5461 71.3827 29.6708 64.3298 29.7494L24.4857 30.1887C17.4281 30.266 11.5765 35.2641 11.4111 41.3538L10.7261 66.7262C10.6048 71.2929 14.3387 74.9506 19.0745 74.9025L67.3333 74.3704C72.0659 74.3165 76 70.5749 76.1274 66.0048L76.8125 40.6325L76.8079 40.6313Z" fill="#4BC7F7"/>
<path d="M68.4182 75.436L17.923 75.9947C13.1908 76.0486 9.45413 72.3855 9.57544 67.8192L10.2863 41.368C10.4662 34.6945 16.8469 29.1977 24.5049 29.1113L64.3456 28.6721C72.0083 28.5869 78.0961 33.9498 77.9162 40.6233L77.2054 67.0746C77.0841 71.6409 73.1443 75.3853 68.4121 75.4393L68.4182 75.436ZM20.2197 73.8063L66.2355 73.2964C70.9677 73.2425 74.9015 69.5012 75.0289 64.9317L75.6835 40.6422C75.8315 35.1613 70.7222 30.7593 64.2954 30.8306L24.4548 31.2699C18.0281 31.3411 12.6807 35.8572 12.5327 41.3381L11.8781 65.6275C11.7568 70.1938 15.4904 73.8512 20.2258 73.803L20.2197 73.8063Z" fill="#280D5F"/>
<path d="M68.9509 45.2061C69.0406 40.8837 64.7426 37.405 59.3489 37.4369L28.892 37.6078C23.4982 37.6397 19.0542 41.1659 18.9645 45.4883L18.6005 62.9815C18.5295 66.5089 21.4514 69.3525 25.1288 69.3341L61.7947 69.125C65.4735 69.1021 68.516 66.2267 68.5916 62.7005L68.9555 45.2074L68.9509 45.2061Z" fill="#C0E9FF"/>
<path d="M34.8026 45.3988L34.1667 45.4058C32.9727 45.419 31.9798 46.3764 31.9489 47.5442L31.808 52.8788C31.7771 54.0466 32.7201 54.9826 33.9141 54.9694L34.55 54.9624C35.744 54.9492 36.737 53.9918 36.7678 52.824L36.9088 47.4894C36.9396 46.3216 35.9966 45.3856 34.8026 45.3988Z" fill="#280D5F"/>
<path d="M53.675 45.516L53.039 45.523C51.845 45.5362 50.8521 46.4936 50.8212 47.6614L50.6803 52.9959C50.6495 54.1637 51.5924 55.0998 52.7864 55.0866L53.4223 55.0796C54.6164 55.0664 55.6093 54.109 55.6402 52.9412L55.7811 47.6066C55.8119 46.4388 54.869 45.5028 53.675 45.516Z" fill="#280D5F"/>
<path d="M51.7057 58.5727C50.6978 59.0309 49.5045 58.5083 49.2903 57.4755C49.2885 57.4652 49.2868 57.4549 49.285 57.4446C48.9497 55.7814 47.2704 54.6459 45.5403 55.0678C44.827 55.2396 44.2755 55.6319 43.8089 56.1698C43.806 56.1788 43.7921 56.175 43.7888 56.1692C43.3476 55.6372 42.8171 55.2569 42.1168 55.0896C40.3956 54.6817 38.6654 55.8429 38.2565 57.5225C38.2536 57.5315 38.2507 57.5405 38.2463 57.554C37.9857 58.5841 36.782 59.116 35.8001 58.6757L35.7861 58.6719C35.548 58.5626 35.2704 58.7803 35.348 59.0267C35.8218 60.6055 37.207 61.68 39.0061 61.8301C40.3512 61.944 41.6341 61.7325 42.7663 60.9509C43.1037 60.7203 43.3937 60.4325 43.7084 60.1467C43.7098 60.1422 43.7252 60.1415 43.7284 60.1473C44.0333 60.4266 44.3106 60.713 44.6375 60.9397C45.7419 61.7072 47.0147 61.9041 48.3657 61.7797C50.1719 61.6087 51.5967 60.5157 52.1372 58.9308C52.2168 58.6834 51.9518 58.4688 51.7089 58.5785L51.7057 58.5727Z" fill="#280D5F"/>
<path d="M102.255 56.7598H85.8728C85.0543 56.7635 84.3153 57.3831 84.0412 58.2732C83.0359 61.5178 82.0466 64.4621 81.1287 66.9783C80.7274 68.0523 81.5777 69.9337 82.8372 70.6135C89.9216 74.2224 98.2099 74.2224 105.294 70.6135C106.554 69.93 107.404 68.0523 107.003 66.9783C106.081 64.4621 105.096 61.5178 104.09 58.2732C103.812 57.3869 103.077 56.7635 102.259 56.7598H102.255Z" fill="#31D0AA"/>
<path d="M94.0658 74.5648C89.9773 74.5648 85.8769 73.5771 82.2096 71.7069L82.1778 71.6919C80.3779 70.7155 79.2614 68.2219 79.8812 66.5582C80.803 64.0383 81.7765 61.1279 82.7738 57.917C83.2188 56.4824 84.4624 55.5173 85.865 55.5098H102.259C103.661 55.5173 104.901 56.4824 105.35 57.917C106.347 61.1279 107.321 64.0384 108.246 66.5658C108.862 68.2219 107.75 70.7155 105.946 71.6919L105.914 71.7069C102.247 73.5771 98.1464 74.5648 94.0619 74.5648H94.0658ZM83.481 69.5213C90.2078 72.9425 97.9239 72.9462 104.651 69.5213C105.421 69.0931 105.926 67.8313 105.759 67.3882C104.818 64.8157 103.832 61.8677 102.823 58.6193C102.704 58.24 102.434 58.0034 102.251 58.0034H85.8769C85.6941 58.0034 85.4279 58.2362 85.3087 58.623C84.2995 61.8715 83.3141 64.8157 82.3765 67.3806C82.2096 67.8313 82.7142 69.0931 83.485 69.5213H83.481Z" fill="#280D5F"/>
<path d="M105.048 74.0918C105.048 74.0918 105.009 74.1031 104.953 74.1181C105.116 74.1031 105.159 74.0918 105.048 74.0918Z" fill="#280D5F"/>
<path d="M94.0649 66.4265C108.067 66.4265 119.418 56.2845 119.418 43.7738C119.418 31.263 108.067 21.1211 94.0649 21.1211C80.0626 21.1211 68.7114 31.263 68.7114 43.7738C68.7114 56.2845 80.0626 66.4265 94.0649 66.4265Z" fill="#20BCE0"/>
<path d="M94.0649 67.674C79.3598 67.674 67.3923 56.9523 67.3923 43.7745C67.3923 30.5967 79.3559 19.875 94.0649 19.875C108.774 19.875 120.738 30.5967 120.738 43.7745C120.738 56.9523 108.774 67.674 94.0649 67.674ZM94.0649 22.3648C80.8141 22.3648 70.0306 31.9674 70.0306 43.7745C70.0306 55.5815 80.8141 65.1841 94.0649 65.1841C107.316 65.1841 118.099 55.5815 118.099 43.7745C118.099 31.9674 107.316 22.3648 94.0649 22.3648Z" fill="#280D5F"/>
<path d="M92.5922 62.8831C104.402 62.8831 113.976 54.3284 113.976 43.7756C113.976 33.2227 104.402 24.668 92.5922 24.668C80.782 24.668 71.208 33.2227 71.208 43.7756C71.208 54.3284 80.782 62.8831 92.5922 62.8831Z" fill="#4DDCF4"/>
<path d="M107.646 34.151C105.346 31.7888 102.751 30.3092 104.253 29.0023C105.755 27.6954 108.838 28.5516 111.139 30.9138C113.439 33.276 114.083 36.2503 112.581 37.5572C111.079 38.8641 109.947 36.5131 107.646 34.151Z" fill="#D6EDE8"/>
<path d="M92.7346 38.6304L87.7362 33.1775C87.2554 32.6518 86.3932 32.6518 85.9085 33.1775L80.9101 38.6304C80.2306 39.3702 80.7869 40.5194 81.8239 40.5194C82.4914 40.5194 83.0318 41.0301 83.0318 41.661V43.396C83.0318 45.2099 84.5854 46.6782 86.5045 46.6782H87.1402C89.0593 46.6782 90.6128 45.2099 90.6128 43.396V41.661C90.6128 41.0301 91.1532 40.5194 91.8207 40.5194C92.8577 40.5194 93.414 39.3702 92.7346 38.6304Z" fill="#280D5F"/>
<path d="M95.397 47.5303L100.395 52.9831C100.876 53.5089 101.738 53.5089 102.223 52.9831L107.221 47.5303C107.901 46.7904 107.345 45.6413 106.308 45.6413C105.64 45.6413 105.1 45.1306 105.1 44.4997V42.7647C105.1 40.9508 103.546 39.4824 101.627 39.4824H100.991C99.0723 39.4824 97.5188 40.9508 97.5188 42.7647V44.4997C97.5188 45.1306 96.9784 45.6413 96.3109 45.6413C95.2739 45.6413 94.7176 46.7904 95.397 47.5303Z" fill="#280D5F"/>
<path d="M129.368 46.9816C129.539 46.3941 130.461 46.3941 130.632 46.9816L131.55 50.1432C131.609 50.3494 131.788 50.5104 132.016 50.5645L135.513 51.3943C136.162 51.5485 136.162 52.3825 135.513 52.5367L132.016 53.3664C131.788 53.4205 131.609 53.5815 131.55 53.7877L130.632 56.9493C130.461 57.5368 129.539 57.5368 129.368 56.9493L128.45 53.7877C128.391 53.5815 128.212 53.4205 127.984 53.3664L124.487 52.5367C123.838 52.3825 123.838 51.5485 124.487 51.3943L127.984 50.5645C128.212 50.5104 128.391 50.3494 128.45 50.1432L129.368 46.9816Z" fill="white"/>
<path d="M57.4947 43.805L57.5931 43.408L57.4947 43.805C57.4945 43.8049 57.4944 43.8049 57.4942 43.8048L57.4947 43.805ZM57.2741 43.7502L58.0691 46.6135C58.2925 47.418 59.0127 47.7779 59.6251 47.7779C60.2374 47.7779 60.9576 47.418 61.181 46.6135L61.9761 43.7502L65.034 42.9917C66.6556 42.5894 66.6556 40.3329 65.034 39.9307L61.9761 39.1721L61.181 36.3088C60.9576 35.5044 60.2374 35.1445 59.6251 35.1445C59.0127 35.1445 58.2925 35.5044 58.0691 36.3088L57.2741 39.1721L54.2161 39.9307C52.5945 40.3329 52.5945 42.5894 54.2161 42.9917L57.2741 43.7502Z" fill="#FFDB44" stroke="#280D5F" stroke-width="2.00016"/>
</svg>
