<svg width="22" height="22" viewBox="0 0 22 22" fill="none" xmlns="http://www.w3.org/2000/svg">
<path d="M17.0944 12.9208C17.2672 12.3518 17.3614 11.7488 17.3614 11.1243C17.3614 11.0549 17.3588 10.9868 17.3562 10.9174C14.8759 9.4817 13.0056 6.40597 12.2226 4.94635C11.7996 4.86056 11.361 4.81641 10.9121 4.81641C10.4633 4.81641 10.0544 4.8593 9.64424 4.93878C9.29465 5.5847 8.731 6.5498 7.99064 7.55026C7.13675 8.70457 5.91267 10.0847 4.46805 10.9224C4.46547 10.9893 4.46289 11.0561 4.46289 11.1243C4.46289 11.75 4.55705 12.3543 4.73118 12.9245C5.80304 12.4313 6.7756 11.7008 7.63077 10.877C7.02065 12.2887 6.34089 13.6588 5.63277 14.745C6.01458 15.2774 6.47894 15.7492 7.00647 16.1428C7.78038 15.0352 8.56205 13.5781 9.34625 11.7778C9.06897 13.6298 8.66649 15.2509 8.08608 16.7963C8.66135 17.0714 9.28565 17.2644 9.94218 17.3615C10.3575 16.3245 10.6851 15.2938 10.9431 13.9527C11.2024 15.2888 11.5313 16.3169 11.9466 17.3501C12.6006 17.2467 13.221 17.0474 13.7924 16.7673C13.2313 15.2774 12.8366 13.7156 12.558 11.9178C13.319 13.6487 14.0787 15.0554 14.8294 16.1327C15.357 15.7379 15.82 15.2635 16.2005 14.7299C15.4975 13.6475 14.823 12.2875 14.2168 10.8858C15.0655 11.7046 16.029 12.43 17.0931 12.9208H17.0944Z" fill="white"/>
<path d="M11 20C15.9706 20 20 15.9706 20 11C20 6.02944 15.9706 2 11 2C6.02944 2 2 6.02944 2 11C2 15.9706 6.02944 20 11 20Z" stroke="white" stroke-width="2.14286"/>
</svg>
