<svg width="149" height="55" viewBox="0 0 149 55" fill="none" xmlns="http://www.w3.org/2000/svg">
<path d="M109.399 7.64855C98.2455 3.82466 86.5791 1.88867 74.7319 1.88867C62.8847 1.88867 50.947 3.87276 39.6725 7.78082L37.906 8.39409L52.7738 32.6421L53.8711 32.3415C67.3824 28.6198 81.6775 28.5837 95.2068 32.2393L96.2981 32.5339L111.178 8.2558L109.405 7.64855H109.399Z" fill="#5AC8DB"/>
<path d="M37.9062 8.40039L36.7366 8.84531C24.0332 13.6673 12.5658 20.798 2.64789 30.027C1.93042 30.6944 1.52647 31.6022 1.51441 32.5823C1.49632 33.5683 1.87616 34.5002 2.57554 35.1977L19.65 52.2248L20.7172 51.2027C29.3629 42.8935 39.5341 36.8391 50.9412 33.2136L52.768 32.6304L37.9062 8.40039Z" fill="#7ED1E6"/>
<path d="M145.984 29.2871C136.151 20.3226 124.828 13.3963 112.342 8.70062L111.172 8.26172L96.3042 32.5158L98.1431 33.0929C109.689 36.7064 119.975 42.797 128.723 51.1963L129.79 52.2184L146.147 35.9007C147.039 35.0109 147.51 33.8325 147.485 32.5759C147.455 31.3073 146.925 30.1409 145.984 29.2811V29.2871Z" fill="#7F84C0"/>
<g style="mix-blend-mode:multiply">
<path d="M144.32 27.7612C125.208 10.0967 100.428 0.386719 74.4909 0.386719C74.3221 0.386719 74.1533 0.386719 73.9845 0.386719C47.8542 0.518992 22.954 10.4996 3.87178 28.4947C2.12333 30.1481 1.79776 32.8236 3.11211 34.8618L4.32999 36.7618L5.5539 34.8618C5.65037 34.7175 5.74684 34.5913 5.86139 34.4831C43.9534 -1.44706 103.907 -1.75971 142.355 33.7736C142.644 34.0381 142.873 34.3568 143.042 34.7235L144.356 37.5313L145.677 34.7296C146.798 32.3486 146.25 29.5529 144.32 27.7672V27.7612Z" fill="#7F84C0"/>
</g>
<path d="M19.6497 54.1297L1.50203 36.0323C0.513255 35.0463 -0.0233375 33.7296 0.000779034 32.3287C0.0248955 30.9338 0.597662 29.6472 1.61658 28.7032C21.368 10.3233 47.1425 0.132273 74.1952 0C74.37 0 74.5449 0 74.7197 0C101.567 0 127.215 9.91445 147.003 27.9517C148.251 29.088 148.956 30.6392 148.999 32.3227C149.035 33.9941 148.402 35.5634 147.22 36.7418L129.784 54.1297L128.717 53.0655C114.295 38.6838 95.1162 30.7595 74.7197 30.7595C54.3232 30.7595 35.1445 38.6778 20.7229 53.0655L19.6557 54.1297H19.6497ZM74.7318 3.16854C49.1261 3.16854 23.5324 12.4216 3.67252 30.8977C3.25651 31.2825 3.0274 31.8116 3.01534 32.3768C3.00328 32.954 3.22636 33.4951 3.63634 33.9039L19.6618 49.8849C34.5235 35.5994 54.0157 27.7533 74.7137 27.7533C95.4117 27.7533 114.904 35.5994 129.766 49.8849L145.08 34.6134C145.676 34.0182 145.996 33.2245 145.978 32.3828C145.96 31.529 145.598 30.7414 144.965 30.1642C125.208 12.1571 99.9697 3.16854 74.7318 3.16854Z" fill="#2A1F5D"/>
</svg>
