<?xml version="1.0" encoding="UTF-8"?>
<!DOCTYPE svg PUBLIC "-//W3C//DTD SVG 1.1//EN" "http://www.w3.org/Graphics/SVG/1.1/DTD/svg11.dtd">
<!-- Creator: CorelDRAW -->
<svg xmlns="http://www.w3.org/2000/svg" xml:space="preserve" width="102.8mm" height="56.7509mm" version="1.1" style="shape-rendering:geometricPrecision; text-rendering:geometricPrecision; image-rendering:optimizeQuality; fill-rule:evenodd; clip-rule:evenodd"
viewBox="0 0 1592.55 879.17"
 xmlns:xlink="http://www.w3.org/1999/xlink"
 xmlns:xodm="http://www.corel.com/coreldraw/odm/2003">
 <defs>
  <style type="text/css">
   <![CDATA[
    .str0 {stroke:white;stroke-width:3.1;stroke-miterlimit:22.9256;stroke-dasharray:30.983641 15.491820}
    .fil3 {fill:none}
    .fil2 {fill:white}
    .fil0 {fill:#999999;fill-rule:nonzero}
    .fil1 {fill:url(#id0);fill-rule:nonzero}
    .fil5 {fill:url(#id1);fill-rule:nonzero}
    .fil4 {fill:url(#id2);fill-rule:nonzero}
   ]]>
  </style>
  <linearGradient id="id0" gradientUnits="userSpaceOnUse" x1="507.61" y1="874.74" x2="2249.66" y2="120.31">
   <stop offset="0" style="stop-opacity:1; stop-color:#BABABA"/>
   <stop offset="0.368627" style="stop-opacity:1; stop-color:#9E9E9E"/>
   <stop offset="0.541176" style="stop-opacity:1; stop-color:#878787"/>
   <stop offset="0.709804" style="stop-opacity:1; stop-color:#B8B8B8"/>
   <stop offset="0.85098" style="stop-opacity:1; stop-color:#B8B8B8"/>
   <stop offset="1" style="stop-opacity:1; stop-color:#8F8F8F"/>
  </linearGradient>
  <linearGradient id="id1" gradientUnits="userSpaceOnUse" xlink:href="#id0" x1="1080.95" y1="1220.32" x2="2131.93" y2="-360.62">
  </linearGradient>
  <linearGradient id="id2" gradientUnits="userSpaceOnUse" xlink:href="#id0" x1="1002.64" y1="1443.9" x2="1803.89" y2="-277.12">
  </linearGradient>
 </defs>
 <g id="Layer_x0020_1">
  <metadata id="CorelCorpID_0Corel-Layer"/>
  <g id="_2460607258528">
   <g>
    <path class="fil0" d="M586.33 879.17l-216.61 -306.66c32.64,-10.44 57.41,-31.92 66.3,-61.73 17.36,-58.2 -32.4,-126.08 -111.14,-151.62 -38.41,-12.46 -76.61,-12.53 -107.69,-2.59l-216.61 -306.66c447.86,-5.58 888.16,-33.27 1339.13,-34.5l-11.3 26.57 42.57 65.56 -92.81 76.45 128.54 161.45 -1.3 7.45 62.08 128.97 -81.04 16.69 7.24 124.25 74.88 58.45 -6.65 18.76 107.17 70.18 -42.34 87.6c-313.76,4.68 -627.89,14.49 -940.44,21.36z"/>
    <path class="fil1" d="M585.74 863.77l-216.61 -306.66c32.64,-10.44 57.41,-31.92 66.3,-61.73 17.36,-58.2 -32.4,-126.08 -111.14,-151.62 -38.41,-12.46 -76.61,-12.53 -107.69,-2.59l-216.61 -306.66c450.23,-5.6 892.81,-33.57 1346.28,-34.52l-17.85 42 42.57 65.56 -92.81 76.45 128.54 161.45 -1.3 7.45 62.08 128.97 -81.04 16.69 7.24 124.25 74.88 58.45 -6.65 18.76 107.17 70.18 -34.83 72.08c-316.45,4.63 -633.29,14.55 -948.53,21.48z"/>
    <path class="fil2" d="M1566.41 775.79c0.11,-1.6 0.34,-3.46 0.68,-3.91 -0.31,-0.82 -0.15,-2.38 0.05,-2.95l-5.35 -3.5c-0.2,2.06 -0.45,4.08 -0.73,4.59 0.31,0.61 -0.04,3.47 -0.24,4.17 0.05,0.92 -0.18,1.7 -0.17,2.69 -0.15,0.46 -0.2,1.06 -0.18,1.69 -0.12,0.56 -0.24,1.13 -0.29,1.73 -0.29,0.03 -0.53,-0.01 -0.71,-0.02 -0.26,0.31 0.1,0.15 -0.36,0.35 -1.86,0.45 -3.71,0.89 -5.46,1.31 -9.21,2.45 -21.54,4.51 -30.57,6.96 -4.1,0.96 -8.24,1.98 -12.31,2.87 -4.19,0.1 -8.48,0.06 -12.64,0.1 -4.15,-0.14 -8.66,-0.12 -12.67,-0.01 -6.39,0.01 -12.71,0.06 -19.1,0.07 -1.38,-0.11 -5.75,0.17 -6.24,-0.27 -0.79,0.3 -0.22,0.42 -1.24,-1.55 -0.68,-1.26 -0.59,-0.58 -1.26,-2.19 -0.45,-0.68 -0.82,-1.51 -1.23,-2.26 -0.68,-1.43 -1.42,-2.9 -2.13,-4.45 -5.73,-11.73 -11.5,-23.38 -17.23,-35.11 -0.16,-0.54 -0.44,-1.04 -0.6,-1.58 -0.27,-0.5 -0.58,-0.93 -0.78,-1.4 -0.34,-0.54 -0.58,-1.11 -0.74,-1.65 -0.79,-1.4 -1.39,-2.8 -2.11,-4.16 0.85,-0.09 4.67,0.51 5.2,0.7 1.28,-0.04 14.36,2.07 16.02,2.33 16.03,2.33 32.2,4.55 48.4,6.89l19.62 -7.83 -5.85 -3.83c-7.65,3.07 -14.71,5.87 -14.99,5.81 -3.12,-0.4 -6.23,-0.8 -9.24,-1.23 -6.12,-0.83 -12.62,-1.95 -18.54,-2.68 -0.74,-0.12 -8.6,-1.07 -9.44,-1.52 -5.02,-0.7 -9.91,-1.32 -14.79,-1.94 -3.04,-0.54 -17.83,-2.48 -20.3,-3.08 -6.64,-3.08 -13.28,-6.15 -19.84,-9.37 8.08,2.23 17.72,5.91 25.37,8.09 1.02,0.27 22.27,0.9 23.9,0.87 1.32,-0.11 3.58,0.02 5.11,0.02 11.92,0.42 23.76,0.79 35.82,1.1 1.32,-0.11 3.54,-0.9 4.86,-1.18l3.06 -0.82 -6.44 -4.22c-1.08,0.27 -1.85,0.46 -2.13,0.5 -1.64,0.21 -29.37,-0.73 -29.62,-0.77 -3.65,-0.06 -7.06,-0.25 -10.46,-0.27 -1.6,-0.04 -3.44,-0.12 -5.11,-0.2 -1.28,0.04 -2.52,0 -3.72,-0.1 -0.89,-0.02 -0.57,0.23 -1.2,-0.28 -1.18,0.36 -12.39,-0.04 -13.55,-0.39 -1.8,-0.51 -3.56,-1.08 -5.6,-1.81 -1.76,-0.57 -3.85,-1.05 -5.57,-1.7 0.89,-0.15 7.88,1.41 9.61,1.88 4.98,0.94 3.79,0.31 9.86,-1.3 2.11,-0.58 18.87,-5.57 19.97,-5.61 1.11,-0.57 2.68,-0.82 3.97,-1.21l11.41 -3.25 -6.33 -4.15c-0.44,0.14 -0.6,0.18 -1.32,0.17 -0.44,0.48 -1.72,0.7 -2.43,0.86 -0.96,0.29 -1.65,0.56 -2.64,0.74 -1.33,0.64 -3.89,1.07 -5.5,1.56 -2.04,0.62 -3.82,1.11 -5.75,1.69 -1.93,0.59 -3.61,1.04 -5.54,1.63 -1.43,0.32 -4.72,1.43 -5.82,1.48 -0.58,0.41 -3.9,1.24 -4.72,1.44 -2.25,0.68 -2.19,0.9 -4.48,0.31 -14.73,-3.07 -29.35,-6.18 -44.08,-9.25 -0.57,-0.12 -0.92,-0.13 -1.48,-0.25 -0.25,-0.04 -0.53,-0.19 -0.7,-0.2 -0.99,-0.35 -0.28,-0.15 -0.7,-0.37 -0.61,0.13 -0.99,0.01 -1.7,-0.18 -0.35,-0.01 -0.43,-0.05 -0.81,-0.16 -0.85,-0.09 -0.53,-0.02 -0.95,-0.41 -1,0.18 -4.78,-0.66 -5.66,-1.03 0.44,-0.48 1.19,-0.71 1.98,-1.19 0.68,-0.27 1.37,-0.71 2.26,-1.04 0.4,-0.24 0.75,-0.4 1.15,-0.64 0.5,-0.27 1.08,-0.5 1.69,-0.81 0.21,-0.07 0.43,-0.13 0.72,-0.34 1.62,-0.84 3.27,-1.76 4.96,-2.56 11.24,-5.76 22.48,-11.53 33.79,-17.25 5.93,-3.03 4.05,-3.22 7.85,-0.4 0.17,0.18 0.38,0.29 0.56,0.48 0.39,0.29 0.18,0.18 0.42,0.4 0.67,0.26 0.77,0.41 1.4,0.92 5.97,4.51 12.04,8.99 18.01,13.5 0.52,0.37 0.87,0.55 1.43,1.03 0.66,0.44 0.95,0.59 1.43,1.21 0.25,0.04 0.14,-0.1 0.53,0.19 2.62,1.66 1.01,0.81 5.82,1.74l1.83 -5.15c-1.94,-0.38 -3.52,-0.72 -4.1,-0.89 -0.99,-0.17 -8.24,-5.81 -10.09,-7.24 -0.56,-0.48 -1.02,-0.63 -1.25,-1.2 -1.31,-0.42 -2.87,-1.88 -4.09,-2.79 -4.02,-2.94 -7.96,-5.84 -11.87,-8.81 -0.17,-1.88 -0.34,-3.76 -0.4,-5.68 -0.12,-0.96 -0.2,-2.16 -0.21,-3.16 -0.45,-2.21 -0.42,-6.49 -0.68,-9.05 -0.11,-1.42 -0.2,-2.87 -0.29,-4.31l-5.91 -4.61c0.44,6.51 0.83,13.04 1.38,19.52 -0.08,0.32 -0.05,0.6 -0.02,0.88 0.02,0.81 0.07,1.56 0.23,2.45 0.04,1.1 0.05,2.27 0.21,3.33 -1.08,0.5 -2.66,1.63 -3.8,1.74 -0.11,0.21 0.03,0.11 -0.4,0.41 -0.18,0.17 -0.29,0.21 -0.58,0.41 -0.53,0.16 -0.96,0.29 -1.33,0.64 -6.18,3.17 -12.32,6.27 -18.42,9.3 -1.26,0.68 -20.19,10.59 -21.22,10.67 -0.29,0.38 0.25,0.04 -0.65,0.55 -0.25,0.13 -0.57,0.23 -0.82,0.37 -0.72,0.33 -1.08,0.68 -1.93,0.76 -0.37,0.52 -0.55,0.52 -1.19,0.89 -1.47,0.74 -2.94,1.48 -4.45,2.12 -0.36,0.17 -0.72,0.33 -1.01,0.54 -0.25,0.13 -0.4,0.24 -0.54,0.34 -0.92,-1.65 -1.88,-3.24 -2.73,-4.85 -0.38,-0.65 -0.68,-1.26 -0.99,-1.69 -13.66,-23.55 -27.32,-47.09 -41.02,-70.57 -0.45,-0.68 -0.71,-1.36 -1.09,-2.01 -0.31,-0.61 -0.65,-1.15 -0.96,-1.58 -0.07,-0.22 -0.17,-0.36 -0.24,-0.57 -0.17,-0.18 -0.28,-0.33 -0.34,-0.54 -0.51,-0.9 -1.06,-1.9 -1.6,-2.73 -0.41,-0.58 -0.69,-1.08 -0.99,-1.69 0.44,-0.66 0.95,-1.29 1.47,-2.09 1.45,0.32 2.83,0.6 4.31,0.86 0.6,0.23 0.74,0.13 1.27,0.49 1.4,-0.26 61.91,12.45 76.06,15.34l-9.77 -7.62c-23.81,-4.81 -47.58,-9.64 -71.33,-14.51 -0.42,-1.92 -0.77,-2.29 -1.47,-3.83 -1.19,-0.99 -0.89,-1.55 -2.57,-2.26 0.01,-0.53 -0.14,-0.25 0.02,-0.88 0.27,-0.84 0.04,-0.25 0.37,-0.52 -0.07,-0.22 -0.1,-0.32 -0.13,-0.43 0.09,-1.02 0,-0.18 0.3,-0.56 -0.1,-0.32 -0.13,-0.43 0.13,-1.09 0.08,-0.31 0.15,-0.28 0.22,-0.42 -0.06,-0.57 -0.21,-0.29 0.3,-0.56 -0.13,-0.43 -0.17,-0.36 -0.09,-0.67 0.09,-0.85 0.15,-0.46 0.3,-0.74 -0.05,-0.75 0.09,-0.85 0.18,-1.52 0.08,-0.32 0.08,-0.49 0.2,-0.7 0.3,-0.74 0.11,-0.39 0.37,-0.7 -0.08,-1.21 4.54,-18.72 5.21,-21.32 5.04,-20.34 10.15,-40.64 15.26,-60.93 0.16,-0.81 0.15,-1.98 0.8,-2.53 -0.06,-0.57 -0.06,-0.39 0.02,-1.06 0.08,-0.32 0.04,-0.25 0.19,-0.53 0.15,-0.28 0.07,-0.14 0.25,-0.31 -0.19,-1 0.37,-2.4 0.57,-3.28 9.33,-1.32 19.57,-2.15 29.1,-3.18 1.62,-0.21 8.11,-1 14.57,-1.72l0 -0 31.06 -6.4c-0.66,-0.23 -0.94,-0.21 -1.41,-0.82 -0.29,0.03 -0.57,0.06 -0.75,0.05 -0.18,-1.53 -0.28,-3.19 -0.42,-4.79 -0.18,-1.35 -0.26,-1.21 0.07,-1.66 -0.5,-1.43 -4.42,-53.83 -4.76,-59.29 -0.18,-2.87 -0.58,-5.68 -0.73,-8.45 -0.48,-0.79 -0.96,-1.58 -1.36,-2.34 -0.68,-1.43 -3.23,-6.28 -3.28,-7.2 -0.67,-0.44 -0.59,-0.58 -1.2,-1.8 -3.46,-7.03 -6.93,-13.88 -10.39,-20.74 -1.19,-2.51 -2.44,-4.88 -3.73,-7.53 -4.81,-10.07 -10.54,-20.45 -15.1,-30.31 -0.62,-1.04 -1.16,-2.05 -1.6,-3.09 -0.34,-0.72 -0.75,-1.29 -0.95,-1.93 -0.58,-0.94 -1.02,-1.8 -1.43,-2.73 2.32,-1.99 4.05,-6.27 1.35,-10.83 0.65,-0.55 1.3,-1.1 1.99,-1.72 0.3,-0.73 2.62,-2.73 3.52,-3.59 1.16,-1.17 2.29,-2.28 3.45,-3.45l3.15 -3.11 -3.74 -4.69 -11.05 10.93c-0.55,0.52 -1.05,0.96 -1.53,1.52 -0.52,-0.37 -1.19,-0.63 -1.97,-0.86 -0.7,-0.2 -1.59,-0.22 -2.3,-0.42 -0.25,-0.04 -0.53,-0.01 -0.71,-0.02 -0.57,-1.47 -1.21,-2.79 -1.82,-4.19 -0.71,-1.54 -1.49,-3.12 -2.16,-4.73 -9.71,-21.18 -19.41,-42.35 -29.08,-63.6 -0.51,-1.08 -0.91,-2.01 -1.31,-3.12 -0.24,-0.4 -0.44,-0.86 -0.58,-1.29l-0.2 -0.43 -13.46 -16.91c-0.18,0.22 -0.34,0.42 -0.48,0.61 -0.19,0.53 -0.56,1.05 -1.09,1.21 -0.46,1.37 -12.02,15.2 -13.56,17.25 -2.2,2.95 -4.6,5.62 -6.79,8.57 -1.03,1.43 -2.23,2.85 -3.36,4.31 -3.24,3.74 -7.01,8.81 -10.19,12.77 -6.65,8.29 -13.33,16.65 -19.91,24.98 -0.44,0.48 -0.11,0.21 -0.47,0.38 -0.19,0.35 -0.41,0.77 -0.63,1.01 -0.55,0.69 -1.26,2.2 -2.07,2.21 -1.87,-0.55 -2.47,-0.77 -4.53,-0.61 -0.35,-0.01 -0.64,0.02 -0.85,0.08 -0.34,-0.54 -0.68,-1.08 -1.06,-1.73 -0.62,-0.87 -1.17,-1.69 -1.68,-2.59 -0.48,-0.62 -0.9,-1.19 -1.27,-1.84 -18.44,-27.25 -36.85,-54.39 -55.29,-81.63 -0.66,-0.8 -1.17,-1.7 -1.72,-2.52 -0.38,-0.47 -0.69,-0.9 -0.96,-1.41 -0.21,-0.29 -0.41,-0.58 -0.58,-0.93 -0.17,-0.18 -0.31,-0.26 -0.45,-0.51 -0.14,-0.25 -0.27,-0.5 -0.34,-0.72 0.33,-0.45 0.73,-1.04 1.1,-1.57 0.05,-0.6 -0.04,0.07 0.09,-0.67 0.7,-2.85 0.32,-3.14 0.59,-4.16 0.32,-0.1 0.61,-0.13 0.93,-0.22 1.43,-0.5 2.86,-0.99 4.33,-1.55 23.03,-7.83 46.07,-15.66 69.14,-23.56 1.93,-0.59 3.94,-1.31 5.9,-1.97 0.22,-0.07 0.46,-0.2 0.79,-0.3 0.69,0.9 1.45,1.84 2.25,2.71 0,0 0.07,0.04 0.14,0.07 0.59,0.58 1.21,1.27 1.51,2.06 0.88,0.37 4.09,4.5 4.67,5.25l4.04 -3.33 -10.57 -12.49c-0.49,-0.44 -0.69,-0.9 -1.07,-1.37 -2.98,-3.37 -5.74,-6.98 -8.78,-10.21 -0.52,-0.55 -0.73,-0.83 -1.14,-1.41 -13.56,-15.79 -27.1,-31.76 -40.55,-47.58 -0.45,-0.51 -0.66,-0.79 -1.04,-1.26 -1.9,-2.18 -3.8,-4.35 -5.6,-6.56 -0.45,-0.51 -0.66,-0.62 -1.07,-1.2 -2.97,-3.55 -9.69,-11.05 -12.13,-14.23 -0.76,-0.94 -1.49,-1.77 -2.17,-2.68 -0.91,-0.84 -1.56,-1.63 -2.25,-2.54 -3.79,-4.88 -8.2,-9.45 -12.1,-14.12 -0.41,-0.58 -0.7,-0.73 -1.08,-1.2 -0.97,-1.23 -3.45,-4.52 -4.57,-5.11 -1.39,7.86 -2.88,15.75 -4.16,23.58 -1.31,7.9 -3.02,15.85 -4.3,23.86 -1.58,10.26 -3.62,20.37 -5.38,30.63 -2.48,13.64 -4.95,27.28 -7.39,40.85 -1.79,11.5 -4.31,22.69 -6.13,34.08 -0.17,1.16 -0.37,2.22 -0.58,3.45 -0.31,1.09 -0.47,2.08 -0.61,3.35 -0.24,1.3 -0.48,2.25 -0.68,3.49 -1.05,5.71 -2.07,11.35 -3.08,16.99 -0.25,1.66 -1.58,7.22 -1.44,8.64 0.74,6.39 1.52,12.89 2.37,19.25 0.14,1.42 0.4,2.81 0.58,4.16 0.02,0.81 0.22,1.46 0.17,2.06 0.65,7.24 1.95,15.98 2.84,23.27 0.15,1.42 0.29,2.84 0.51,4.3 0.77,6.5 2.61,19.47 3.04,25.43 0.35,3.58 0.97,7.14 1.28,10.62 0.09,0.68 0.21,1.64 0.24,2.1 0.62,5.79 1.3,11.43 2.03,17.01 0.09,0.85 0.14,1.42 0.24,2.09 0.6,4.97 1.16,10.01 1.76,14.99 0.12,0.78 0.21,1.46 0.16,2.06 0.18,1.35 0.37,2.7 0.58,4.16 0.48,7.06 1.7,14.42 2.39,21.41 0.67,6.36 1.42,8 0.47,13.86 -1.9,11.71 -3.69,23.38 -5.45,35.16 -1.26,6.94 -2.06,14.04 -3.32,20.98 -0.24,1.3 -0.27,2.37 -0.54,3.56 -0.79,5.22 -1.69,10.47 -2.42,15.73 -0.16,0.63 -0.28,1.2 -0.32,1.8 -0.17,1.16 -0.38,2.4 -0.62,3.52 -0.74,4.62 -1.42,9.27 -2.13,14 -0.09,1.02 2.56,6.01 3.24,7.27 0.57,1.29 1.08,2.36 1.69,3.58 2.85,5.81 5.76,11.83 8.68,17.68 4.61,9.43 9.4,18.87 13.8,28.36 0.54,1.18 1.08,2.37 1.73,3.52 0.68,1.26 1.11,2.47 1.8,3.73 1.08,2.37 2.16,4.73 3.46,7.03 2.67,5.98 5.77,11.84 8.54,17.79 3.82,8.38 8.14,16.67 12.07,25.03 5.66,11.87 11.6,23.71 17.04,35.64 3.86,8.31 8.14,16.5 11.89,24.85 2.54,5.38 1.73,3.69 5.59,7.09 1.18,1.16 2.47,2.29 3.86,3.39 0.66,0.62 0.8,0.69 1.43,1.21 0.8,0.69 1.67,1.42 2.61,2.19 0.55,0.65 0.73,0.66 1.29,1.13 1.29,1.13 2.57,2.26 3.9,3.32 0.56,0.48 0.62,0.69 1.32,1.24 0.67,0.44 0.77,0.59 1.36,1.17 2.13,1.76 4.42,3.69 6.65,5.59 0.6,0.4 0.59,0.58 1.22,1.09 0.49,0.44 0.77,0.59 1.39,1.1 0.52,0.54 0.73,0.66 1.32,1.06 1.25,1.2 2.61,2.37 3.97,3.54 0.52,0.37 0.59,0.58 1.22,1.1 6.96,6.02 14.07,11.94 21.07,17.89 2.51,1.87 5.29,4.6 7.8,6.65 2.23,1.9 4.35,3.83 6.62,5.66 0.45,0.51 0.8,0.69 1.29,1.13 0.63,0.51 0.69,0.73 1.39,1.1 0.63,0.51 0.62,0.69 1.18,1.16 0.87,0.73 1.74,1.46 2.65,2.12 0.59,0.58 0.76,0.76 1.32,1.24 0.94,0.77 1.74,1.46 2.68,2.23 0.6,0.41 0.69,0.73 1.25,1.2 0.87,0.73 1.74,1.46 2.65,2.12 0.63,0.51 0.8,0.69 1.43,1.2 0.63,0.51 0.66,0.62 1.18,1.16 2.61,2.19 5.26,4.49 7.94,6.72 0.59,0.58 0.87,0.55 1.32,1.06 1.14,1.23 7.24,6.35 8.12,6.72 1.69,0.54 12.66,2.24 15.06,2.62 2.58,0.39 4.95,0.84 7.46,1.19 7.71,1.23 15.02,2.87 22.76,4.02 2.48,0.42 4.81,0.76 7.42,1.25 8.8,1.54 17.61,3.08 26.52,4.58 10.04,1.57 20.26,3.5 30.3,5.25 2.48,0.42 4.95,0.84 7.49,1.29 3.04,0.36 27.51,-0.17 34.11,-0.07 1.31,0.07 2.98,-0.03 4.43,0.11 2.84,0.07 14.83,0.17 17.08,-0.16 1.49,-0.1 2.85,-0.63 4.35,-0.91 7.12,-1.23 14.17,-3.49 21.23,-4.94 4.14,-0.85 8.78,-2.14 12.84,-3.03 3.74,-0.83 7.54,-1.77 11.36,-2.65l4.83 -10zm-109.05 -291.81l-0.04 -0.83c-0.29,-4.36 -0.44,-8.65 -0.63,-13.05 -0.23,-4.01 -0.45,-8.02 -0.66,-12.04l-6.4 -13.3c0.43,1.73 0.56,7.24 0.65,9.13 0.1,1.67 0.26,2.38 -0.04,3.11 0.37,0.83 0.77,8.38 0.47,8.93 0.09,2.2 0.15,4.47 0.24,6.66 0.65,1.15 0.7,8.16 0.73,9.97 0.03,0.72 0.05,1.6 0.07,2.55l5.6 -1.15zm-7.98 1.64c-0.11,-0.41 -0.19,-0.8 -0.22,-1.16 -0.56,-0.48 -0.69,-1.08 -0.71,-1.72 -0.37,-0.82 -0.78,-1.76 -1.15,-2.58 -0.33,-0.9 -0.6,-1.57 -0.79,-2.57 -0.63,-0.51 -1.99,-4.73 -2.07,-5.76 -0.14,-0.07 -0.21,-0.11 -0.24,-0.22 0,0 -2.19,-5.02 -2.26,-6.57 -0.07,-0.04 -0.1,-0.15 -0.1,-0.15 -0.07,-0.04 -0.1,-0.14 -0.17,-0.18 -0.45,-0.68 0.24,0.57 -0.17,-0.36 -0.07,-0.04 -0.2,-0.46 -0.2,-0.46 -0.73,-2 -2.99,-7.23 -2.93,-8.54 -0.31,-0.26 -0,0.18 -0.42,-0.4 -0.13,-0.43 -0.34,-0.89 -0.5,-1.43 -0.16,-0.54 -0.41,-0.93 -0.57,-1.64 -0.51,-1.08 -1.12,-2.3 -1.17,-3.4 -0.55,-0.65 -3.4,-8.16 -3.51,-9.47 -0.84,-0.62 -5.37,-13.77 -6.17,-15.99 -1.09,-0.31 -0.29,0.2 -0.9,-0.84 -0.33,-0.89 -0.77,-1.93 -1.07,-2.9 -1.14,-2.93 -1.86,-4.12 -3.27,-7.73 -1.61,-4.08 -3.12,-8.19 -4.66,-12.23 -0.97,-2.75 -2.18,-5.54 -3.19,-8.23 -1.27,-3.36 -3.9,-9.41 -4.15,-12.5 0.02,-0.89 0.27,-0.84 0.22,-1.76 -0.36,-4.22 0.05,-9.74 0.01,-14.23 -0.01,-0.67 0.02,-1.48 0.02,-2.17l-3.62 -7.52 1.3 -7.45 -1.98 -2.49c-0.19,11.78 -0.37,23.56 -0.55,35.33 -0.09,2.37 0.9,4.24 1.77,6.49 1.6,4.25 3.14,8.47 4.72,12.62 1.61,4.26 3.28,8.55 4.85,12.87 4.75,12.73 9.53,25.56 14.35,38.33 3.04,8.33 6.81,17.49 9.57,25.67 1.36,3.87 3.03,8.15 4.67,12.41l5.26 -1.08zm-104.51 -34.85c-8.2,3.26 -16.37,6.45 -24.57,9.7 -1.94,0.76 -3.8,1.56 -5.59,2.23 0.52,0.55 0.69,0.9 1.19,0.99 0.51,0.9 0.83,0.98 1.48,1.78 0.6,0.23 3.02,2.77 3.33,3.2 0.42,0.22 0.8,0.52 1.23,0.74 0.27,0.86 1.42,1.74 2.08,2.35 0.73,0.66 1.56,1.46 2.3,2.11 0.76,0.76 4.16,4.18 4.69,4.37 0.45,0.68 3.82,3.82 4.89,4.83 0.17,0.18 0.24,0.22 0.38,0.29 0.49,0.44 -0.07,0.14 0.35,0.19 0.72,1.01 1.74,1.64 2.25,2.54 0.6,0.23 1.08,0.84 1.57,1.28 0.69,0.9 1.43,1.21 1.98,2.04 11.31,-1.16 22.63,-2.49 33.94,-3.83 0.65,-0.37 0.36,-0.17 0.56,-1.05 0.01,-0.53 0.02,-1.06 0.11,-1.56 0.05,-0.6 0.13,-1.09 0.18,-1.69 -0.02,-0.81 0.11,-1.55 0.2,-2.4 0.15,-0.46 0.2,-1.06 0.29,-1.73 0.09,-1.02 -0.05,-1.1 -0.46,-1.68 -1.05,-0.56 -2.09,-1.82 -3.07,-2.17 -0.31,-0.61 -0.62,-0.86 -1.07,-1.19 -0.7,-0.55 -0.7,-0.55 -1.29,-1.13 -0.8,-0.69 -7.14,-6.03 -7.84,-6.4 -0.45,-0.68 -5.91,-5.29 -6.65,-5.59 -0.41,-0.75 -9.54,-8.29 -10.55,-8.91 -0.64,0.2 -1.32,0.46 -1.9,0.69zm-7.85 26.64c-0.13,-0.43 0.04,-0.07 -0.23,-0.57 -0.07,-0.04 -0.56,-0.48 -0.7,-0.55 -2.68,-2.41 -5.21,-4.92 -7.78,-7.35 -0.28,-0.33 -0.21,-0.29 -0.35,-0.36 -1.14,-1.23 -2.65,-2.3 -3.47,-3.45 1.3,-1.1 5.43,-1.59 6.42,-2.77 2.38,-0.26 14.44,-6.04 15.47,-5.76 1.29,1.13 2.61,2.19 3.93,3.25 0.28,0.15 0.21,0.11 0.42,0.22 0.45,0.68 5.77,5.21 6.69,5.52 0.13,0.43 -0.08,0.14 0.45,0.68 2.23,1.9 4.6,3.87 6.97,5.85 0.52,0.55 0.7,0.55 1.25,1.03 0.39,0.29 0.88,0.55 1.33,0.88 0.34,0.72 0.38,0.65 1.07,1.2 0.7,0.55 1.43,1.21 2.23,1.9 0.52,0.37 0.66,0.62 1.22,1.1 0.06,0.39 0.05,0.92 0.15,1.24 -0.15,0.46 -0.23,0.95 -0.28,1.37 -9.14,0.97 -18.25,2.04 -27.33,3.05 -1.03,-0.1 -0.83,-0.8 -1.89,-1.18 -0.31,-0.61 -0.73,-0.83 -1.18,-1.34 -0.94,-0.77 -3.51,-3.38 -4.38,-3.94zm101.02 180.03c1.12,2.37 2.22,4.65 3.43,7.29 0.85,1.79 1.52,3.4 2.3,4.98 0.75,1.65 1.56,3.33 2.3,4.98 0.3,0.79 0.64,1.5 1.01,2.33 0.46,-0.02 0.92,-0.05 1.46,-0.03 0.53,0.19 0.25,0.04 0.6,0.23 0.95,-0.24 11.21,0.21 14.57,0.25l-25.67 -20.03zm-92.85 111.8c0.01,-0.53 0.05,-0.6 0.24,-0.95 0.04,-0.07 0.18,-0.35 0.22,-0.42 0.3,-0.56 0.04,-0.25 0.37,-0.52 0.02,-0.71 -0.11,0.03 0.08,-0.5 0.16,-0.63 0.26,-0.31 0.29,-0.38 -0.03,-0.29 0.01,-0.53 0.12,-0.74 0.37,-0.7 0.15,-0.28 0.51,-0.45 -0.1,-0.15 -0.1,-0.32 -0.13,-0.43 0.19,-0.7 0.04,-0.07 0.36,-0.35 0.03,-1.06 2.07,-5.26 2.48,-6.2 6.14,-13.93 12.21,-28.08 18.24,-42.16 0.11,-0.21 0.15,-0.46 0.3,-0.73 0.15,-0.28 0.3,-0.56 0.59,-0.76 0.01,-0.53 -0.11,0.03 0.05,-0.6 0.04,-0.25 0.11,-0.39 0.23,-0.6 0.56,-1.22 1.12,-2.45 1.75,-3.81 0.17,0.18 0.31,0.26 0.63,0.34 0.39,0.12 0.39,0.12 0.7,0.2 0.59,0.41 0.28,0.15 0.55,0.48 0.85,0.09 1.41,0.57 2.57,1.09 0.63,0.33 1.97,0.69 2.38,1.27 1.38,0.28 36.81,17.21 37.12,17.46 1.06,0.38 7.55,3.38 8,3.89 0.95,0.24 1.37,0.46 2.29,0.95 1.23,0.56 0.94,0.59 1.55,1.99 0.58,1.11 2.04,3.77 2.34,4.91 0.17,0.18 0.14,0.07 0.35,0.36 4.91,10.4 9.93,20.58 15.05,30.91 0.4,0.93 1.94,3.8 2.09,4.69 0.14,0.25 0.31,0.43 0.48,0.62 0.34,0.54 0.88,1.72 0.97,2.4 0.14,0.25 0.14,0.07 0.38,0.47 0.03,0.11 0.21,0.29 0.2,0.47 0.37,0.65 0.34,0.54 0.47,1.32 0.45,0.33 0,-0.18 0.35,0.36 0.07,0.04 0.24,0.4 0.31,0.43 0.13,0.43 0.37,0.82 0.54,1.36 0.44,1.04 0.87,2.08 1.42,3.08 0.44,0.86 0.81,1.69 1.36,2.51 -1.17,-0.17 -2.44,-0.49 -3.5,-0.69 -1.41,-0.22 -2.83,-0.43 -4.14,-0.68 -4.81,-0.58 -18.85,-3.11 -23.69,-3.98 -23.68,-4.15 -47.37,-8.31 -70.8,-12.42 -0.93,0.22 -2.45,-0.13 -3.08,-0.47 -0.92,-0.13 -1.84,-0.26 -2.69,-0.35 -0.42,-0.05 -0.85,-0.09 -1.24,-0.21 -0.02,-0.64 0.2,-0.88 0.5,-1.62 0.15,-0.46 0.27,-0.84 0.56,-1.22 0.15,-0.28 0.15,-0.28 0.25,-0.31zm-103.55 -83.52c0.11,-0.21 0.33,-0.45 0.59,-0.76 0.18,-0.17 0.51,-0.45 0.8,-0.65 0.22,-0.24 0.47,-0.55 0.69,-0.8 0.44,-0.48 0.91,-0.86 1.41,-1.31 -0.03,-0.28 -0.29,0.2 0.04,-0.25 0.07,-0.14 0.26,-0.31 0.44,-0.49 0.4,-0.41 0.4,-0.41 0.97,-0.65 0.16,-0.63 6.29,-6.6 7.09,-7.43 7.4,-7.17 14.93,-15.09 22.23,-22.41 7.44,-7.42 14.78,-14.81 22.23,-22.23 1.24,-1.31 6.76,-6.98 7.62,-7.41 0.12,-0.56 0.3,-0.56 0.74,-1.04 0.44,-0.49 0.65,-0.73 1.16,-1 0.66,-0.73 1.24,-1.31 1.93,-2.11 2.11,0.94 2.78,1.21 5.47,1.2 0.71,0.02 0.5,-0.09 0.88,0.38 0.35,0.36 0.34,0.72 0.47,1.14 0.34,0.54 0.68,1.08 1.03,1.62 0.37,0.65 0.68,1.26 1.09,2.01 0.8,0.69 23.15,40.22 27.09,46.52 3.48,6.15 7.03,12.33 10.69,18.48 1.77,3.27 3.65,6.33 5.46,9.52 0.45,0.68 0.72,1.19 0.84,1.97 0.45,0.33 0.08,-0.32 0.66,0.62 0.38,0.47 0.31,0.61 0.51,1.08 0.17,0.54 0.41,0.93 0.72,1.36 0.17,0.36 0.52,0.72 0.83,1.15 1.19,2.15 1,1.16 -0.58,5.16 -0.26,0.31 -0.55,0.69 -0.73,1.04 0.02,0.81 -2.04,5.19 -2.48,6.2 -6.22,14.43 -12.36,28.71 -18.61,42.86 -0.23,0.77 -0.28,1.2 -0.86,1.78 0.06,0.57 -0.12,0.74 -0.38,1.41 -0.23,0.6 -0.31,1.09 -0.81,1.36 -0.09,0.85 -0.2,1.06 -0.5,1.62 -0.19,0.53 -0.34,0.98 -0.74,1.22 -0.09,0.85 -0.69,2.32 -1.16,2.87 -0.91,-0.48 -36.38,-31.04 -40.18,-34.22 -1.99,-1.68 -3.76,-3.25 -5.85,-5.07 -7.35,-5.96 -15.49,-13.33 -22.91,-19.5 -7.73,-6.61 -15.46,-13.22 -23.12,-19.79 -0.55,-0.48 -1.08,-0.84 -1.56,-1.28 -0.35,-0.36 -0.73,-0.66 -1.08,-1.02 -0.32,-0.08 -0.25,-0.04 -0.63,-0.33 -0.63,-0.51 -0.49,-0.44 -0.9,-1.01 -0.64,-0.16 -1.08,-0.67 -1.47,-1.14 0.47,-0.38 0.33,-0.28 0.9,-0.68zm-62.15 -176.42c-0.33,-1.07 -0.97,-2.57 -0.7,-3.59 0.75,-0.23 0.95,0.24 2.24,1.37 1.08,0.84 6.14,4.51 6.62,5.48 0.95,0.41 4.26,2.98 5.38,3.93 7.56,6.08 15.2,12.19 22.76,18.26 2.9,1.99 7.6,6.18 10.46,8.24 1.19,0.81 2.12,1.76 3.52,2.85 5.85,4.72 11.75,9.37 17.64,14.02 0.56,0.48 0.94,0.77 1.5,1.24 4.63,3.8 12.03,9.34 15.89,12.73 3.83,3.29 12.93,10.35 17.57,13.98 1.11,0.95 2.3,1.93 3.52,2.85 3.45,2.81 6.94,5.56 10.49,8.34 0.63,0.51 3.1,2.45 3.37,2.96 0.78,0.23 0.46,0.15 1.01,0.63 0.38,0.29 0.7,0.55 1.08,0.84 0.28,0.15 0.28,0.15 0.63,0.51 0,0 0.21,0.11 0.24,0.22 0.28,0.33 0.07,0.04 0.28,0.33 0.49,0.09 0.28,-0.03 0.49,0.44 0.53,0.19 0,-0.18 0.63,0.33 0.21,0.11 0.35,0.19 0.49,0.44 -0.08,0.5 -0.27,1.02 -0.28,1.55 -0.07,1.66 -0.05,2.12 0.27,3.9 0.34,0.72 0.61,1.4 0.98,2.04 -0.68,0.44 -0.88,0.97 -1.55,1.23 -0.19,0.35 -0.07,0.14 -0.33,0.63 -0.61,0.48 -1.16,1 -1.7,1.51 -0.51,0.63 -1.35,1.52 -2.03,1.97 -20.92,21.13 -41.81,42.19 -62.66,63.17 -0.56,-0.48 -1.03,-1.62 -1.08,-2.37 -0.21,-0.11 -0.14,-0.07 -0.35,-0.36 -0.07,-0.04 -0.24,-0.4 -0.27,-0.5 -0.24,-0.4 -0.34,-0.72 -0.5,-1.25 -0.51,-0.9 -0.95,-1.94 -1.42,-2.9 -7.9,-16.46 -15.79,-32.91 -23.65,-49.27 -1.06,-1.73 -1.44,-3.72 -2.03,-5.82 -3.03,-11.9 -6.16,-23.96 -9.09,-35.89 -5.37,-20.04 -10.48,-40.03 -15.74,-60.11 -0.43,-1.39 -0.79,-2.75 -1.11,-4.17 -0.3,-0.79 -0.43,-1.57 -0.62,-2.39 -0.29,-1.14 -0.62,-2.21 -0.95,-3.46 -0.1,-0.14 -0.17,-0.36 -0.17,-0.54 -0.29,-1.14 -0.59,-2.28 -0.81,-3.38zm-18.44 -0.83c2.23,-1.5 4.71,-2.78 6.94,-4.1 1.49,1.42 2.49,1.41 3.71,2.15 0,0 0.07,0.04 0.14,0.07 0.39,0.12 0.81,0.16 1.27,0.14 0.49,1.96 1.3,3.82 1.36,5.91 0.72,2.71 1.51,5.46 2.37,8.24 0.87,2.43 1.36,5.56 2.08,8.27 1.76,5.32 2.84,11.08 4.42,16.58 1.48,5.35 3.02,10.91 4.27,16.5 1.13,4.81 3.48,12.41 4.37,16.83 0.59,2.1 1.11,4.17 1.77,6.31 0.23,0.75 0.28,1.67 0.51,2.42 0.68,2.96 1.71,5.92 2.18,8.94 -1.67,-3.3 -3.33,-6.6 -4.89,-9.93 -0.78,-1.76 -1.66,-3.3 -2.51,-5.1 -0.81,-1.69 -1.63,-3.37 -2.44,-5.05 -3.29,-6.67 -6.4,-13.34 -9.73,-20.11 -6.58,-13.34 -13.12,-26.93 -19.63,-40.24 -0.55,-1.01 -0.98,-2.04 -1.53,-3.23 -0.17,-0.36 -0.41,-0.76 -0.61,-1.22 1.11,-0.57 1.94,-1.12 2.99,-1.73 0.86,-0.44 2.01,-1.26 2.95,-1.66zm21.59 -8.51c0.02,-0.71 0.07,-1.49 0.09,-2.19 -0.2,-0.64 -0.26,-1.21 -0.39,-1.82 0.5,-0.27 0.97,-0.65 1.51,-0.81 0.22,-0.24 0.54,-0.34 0.94,-0.58 0.94,-0.58 1.91,-1.05 2.95,-1.66 22.77,-13.26 45.78,-26.65 68.76,-39.97 0.58,-0.41 1.26,-0.85 1.91,-1.22 0.63,0.33 1.02,0.45 1.54,1.17 0.67,0.09 0.35,0.01 1.1,0.31 0.39,0.12 0.81,0.34 1.27,0.49 1.9,0.65 3.96,0.49 5.75,-0.17 1.68,-0.63 1.34,-0.99 2.44,-1.21 0.11,-0.21 0.37,-0.52 0.62,-0.83 0.64,-0.02 1.48,0.43 1.65,0.61 4.6,2 9.21,3.99 13.92,5.96 0.95,0.24 6.05,2.31 6.92,3.05 4.8,4.16 11.43,10.64 16.34,15.12 6.33,5.69 13.03,12.2 19.26,17.74 0.76,0.76 2.09,1.82 2.74,2.62 0.24,0.22 0.46,0.33 0.7,0.55 0.59,0.58 0.21,0.11 0.52,0.72 0.85,0.27 0.46,0.15 1.05,0.74 0.07,0.04 0.28,0.33 0.28,0.33 0.38,0.29 0.21,0.11 0.41,0.58 0.8,0.69 1.67,1.42 2.47,2.12 -0.16,0.63 -0.38,1.23 -0.47,1.9 -0.11,0.39 -0.2,0.88 -0.28,1.37 -0.12,0.56 -0.28,1.2 -0.33,1.8 -0.3,0.74 -0.49,1.44 -0.69,2.14 -0.18,1.69 -9.96,39.93 -10.35,41.69 -1.68,6.9 -3.51,13.72 -5.26,20.75 -0.63,2.53 -1.29,5.14 -1.91,7.67 -0.58,2.29 -2.91,12.42 -3.38,12.98 -0.02,0.71 -0.35,2.86 -0.86,3.48 -0.15,0.63 -0.24,1.3 -0.33,1.97 -0.12,0.56 -0.2,1.06 -0.5,1.62 -0.08,0.32 -0.12,0.74 -0.17,1.16 -0.53,-0.01 -0.92,0.05 -1.45,0.03 -1.07,0.33 -2.18,0.72 -3.18,1.09 -0.07,0.14 -0.11,0.21 -0.15,0.28 -0.56,-0.47 -0.73,-0.66 -1.36,-0.99 -0.7,-0.55 -0.91,-0.66 -1.39,-1.27 -0.59,-0.41 -1.08,-0.84 -1.5,-1.24 -1.23,-0.39 -5.61,-4.5 -7.15,-5.67 -1.85,-1.43 -3.63,-2.82 -5.41,-4.21 -0.77,-0.59 -1.25,-1.02 -1.99,-1.5 -1.5,-1.06 -3.62,-3 -5.26,-4.32 -0.39,-0.29 -0.56,-0.47 -0.87,-0.73 -1.01,-0.81 -1.88,-1.54 -2.86,-2.23 -0.63,-0.51 -1.22,-0.92 -1.82,-1.32 -3.1,-2.45 -6.1,-4.94 -9.09,-7.43 -0.7,-0.55 -1.05,-0.73 -1.75,-1.28 -1.81,-1.5 -3.59,-2.89 -5.33,-4.35 -1.57,-1.1 -2.37,-1.97 -3.8,-3 -0.66,-0.44 -1.91,-1.64 -3.56,-2.78 -7.04,-5.53 -13.91,-11.05 -20.81,-16.69 -0.88,-0.55 -1.39,-1.28 -2.79,-2.2 -11.58,-9.19 -23.05,-18.23 -34.44,-27.41 -0.73,-0.48 -1.25,-1.02 -1.95,-1.57 -1.57,-1.28 -6.49,-4.88 -7.28,-5.92 -0.73,-0.48 -1.5,-1.07 -2.13,-1.58 -0.59,-0.4 -0.66,-0.44 -1.08,-1.02 -0.21,-0.11 -0.11,0.03 -0.35,-0.19 -0.27,-0.33 -0.07,-0.04 -0.38,-0.47 -0.35,-0.19 -0.59,-0.4 -0.88,-0.55 -0.14,-0.07 -0.21,0.07 -0.46,-0.15 0.04,-0.42 0.13,-0.92 0.25,-1.48zm121.89 -42.66c0.89,-0.33 1.79,-0.66 2.75,-0.95 1.15,-0.64 5.92,-2.68 6.98,-2.65 0.33,-0.63 0.44,-0.48 1.62,-1.02 1.82,-0.73 3.69,-1.53 5.63,-2.3 2.54,-1.07 5.12,-2.03 7.67,-3.09 2.54,-0.89 5.05,-2.07 7.56,-3.06 2.62,-1.03 5.12,-2.2 7.84,-3.09 1.35,1.34 3.56,2.6 4.04,3.57 0.78,0.23 3.18,2.31 3.84,2.93 1.85,1.61 3.76,3.07 5.65,4.61 0.84,0.62 1.15,1.06 1.88,1.54 6.34,5.16 12.79,10.46 19.1,15.69 0.6,0.05 0.53,0.19 1.01,0.63 3.59,2.89 7.25,5.82 10.87,8.81 0.38,0.29 0.66,0.62 1.08,1.02 0.91,0.66 3.77,2.72 4.25,3.51 1.02,0.45 3.49,2.57 4.15,3.37 0.84,0.45 4.33,3.37 5.16,3.99 0.1,0.32 0.35,0.19 -0.15,0.28 -21.35,2.28 -42.62,4.6 -63.83,6.95 -0.6,-0.23 -3.52,-3.03 -3.83,-3.46 -0.98,-0.52 -15.54,-14.25 -16.86,-15.49 -4.24,-3.86 -8.52,-7.83 -12.65,-11.73 -1.25,-1.03 -3.38,-2.78 -4.38,-4.11 -0.25,-0.04 -0.04,0.07 -0.31,-0.26 -0.73,-0.48 -3.38,-2.96 -3.79,-3.53 0.98,-0.83 3.62,-1.39 4.73,-2.14zm-51.79 -9.13c-0.22,0.24 0.18,0 -0.36,0.35 -2.15,1.18 -4.2,2.33 -6.29,3.56 -0.18,0.17 0.03,0.11 -0.36,0.34 -0.18,0.17 -0.25,0.14 -0.5,0.27 -16.01,9.32 -31.9,18.61 -47.77,27.83 -2.77,1.49 -5.32,3.08 -8.06,4.68 -2.77,1.66 -5.64,3.18 -8.38,4.77 -0.33,0.45 -1.48,0.92 -2.01,1.08 -2.77,-3.08 -9.56,-4 -13.45,1.46 -0.27,1.02 -0.56,1.23 -0.83,2.25 -0.26,0.66 -0.36,1.69 -0.24,2.47 0.02,0.82 0.14,1.6 0.27,2.38 -1.76,0.77 -8.96,5.36 -10.28,5.82 0.3,-2.26 0.64,-4.59 0.97,-6.92 0,0 0.08,-0.32 0.11,-0.39 0.19,-0.53 -0.03,-0.11 0.26,-0.49 -0.16,-0.71 -0.24,-0.22 -0.05,-0.92 0.04,-0.07 0.08,-0.32 0.12,-0.39 0.19,-0.53 -0.04,-0.11 0.26,-0.49 -0.17,-0.54 -0.17,-1.88 0.27,-2.37 -0.04,-1.45 2.5,-16.22 2.79,-18.31 0.85,-6.17 1.94,-11.95 2.75,-18.06 0.88,-6.07 1.94,-11.96 2.89,-17.98 0.65,-5.29 1.55,-10.55 2.38,-15.84 0.04,-0.42 0.05,-0.78 0.17,-1.16 0.08,-0.32 0.15,-0.63 0.37,-0.88 -0.16,-0.71 0.11,-3.08 0.43,-3.53 -0.04,-1.1 0.33,-3.5 0.64,-4.41 0.84,0.27 1.52,0.36 2.18,0.98 0.96,-0.12 2.86,0.89 3.95,1.2 0.98,0.52 2.96,1.03 4.33,1.67 13.05,4.87 26.12,9.56 39.24,14.47 3.77,1.37 25.52,9.16 26.08,9.63 1.38,0.29 2.71,0.82 3.77,1.37 0.46,0.15 0.88,0.38 1.44,0.5 0.46,0.15 0.57,0.12 0.88,0.38 1.38,0.28 2.6,1.02 4.09,1.27 0.29,1.49 1.15,2.4 -2.06,3.38zm151.51 -28.01c0.05,1.1 0.13,2.31 0.28,3.37 1.38,18.91 2.8,37.75 4.29,56.62 0.16,2.24 0.39,4.51 0.66,6.71 -0.43,-0.05 -0.29,0.03 -0.6,-0.23 -0.53,-0.37 -0.38,-0.29 -0.52,-0.55 -0.42,-0.22 -0.42,-0.22 -0.84,-0.45 -0.81,-0.52 -0.35,-0.19 -0.62,-0.69 -0.81,-0.34 -2.9,-2.16 -3.84,-2.93 -0.87,-0.73 -0.18,-0 -0.69,-0.73 -1.68,-1.25 -3.32,-2.56 -4.95,-3.88 -0.63,-0.51 -0.94,-0.77 -1.68,-1.25 -0.63,-0.51 -1.01,-0.98 -1.63,-1.5 -9.51,-7.64 -18.92,-15.33 -28.33,-23 -1.18,-0.99 -2.26,-1.83 -3.45,-2.82 -4.01,-3.11 -7.84,-6.4 -11.71,-9.44 -0.35,-0.36 -0.49,-0.44 -0.84,-0.62 -0.63,-0.51 -0.49,-0.44 -0.76,-0.94 -0.88,-0.38 -2.83,-2.13 -4.12,-3.08 -3.51,1.36 -7.31,2.93 -10.82,4.46 -3.69,1.53 -7.2,2.89 -10.93,4.5 -3.58,1.5 -7.27,3.03 -10.78,4.4 -1.97,0.66 -9.97,4.38 -11.21,4.35 -0.33,0.45 -0.36,0.34 -1.04,0.61 -0.5,0.27 -0.61,0.3 -1.29,0.39 -0.04,0.07 -0.11,0.03 -0.15,0.1 -0.36,0.17 -0.82,0.37 -1.18,0.53 -0.57,0.23 -0.93,0.4 -1.65,0.56 -1.3,1.1 -2.35,0.36 -4.04,-0.35 -0.6,-0.23 -1.16,-0.53 -1.58,-0.75 -3.9,-1.62 -7.66,-3.17 -11.43,-4.72 -0.7,-0.37 -0.32,-0.26 -0.7,-0.55 -0.71,-0.02 -0.71,-0.02 -1.34,-0.53 -0.64,0.02 -1.1,-0.13 -1.65,-0.79 -0.67,0.09 -1.13,-0.24 -1.94,-0.58 0.04,-1.77 -0.13,-2.31 -0.72,-4.23 -0.27,-0.5 -0.51,-1.07 -0.82,-1.51 0.22,-0.07 0.36,-0.17 0.5,-0.27 0.22,-0.24 0.4,-0.42 0.66,-0.73 0.08,-0.49 -0.07,-0.21 0.44,-0.48 -0.28,-0.33 -0.17,-0.18 0.22,-0.24 0.19,-0.7 0.84,-1.08 1.35,-1.7 0.51,-0.62 0.81,-1.18 1.49,-1.63 0.12,-0.56 0.7,-0.97 1.2,-1.42 0.43,-0.48 0.77,-0.94 1.24,-1.49 0.87,-0.97 1.64,-1.91 2.51,-2.87 8.38,-9.52 16.9,-19.14 25.39,-28.7 6.84,-7.3 13.59,-15.62 20.39,-22.84 6.73,-7.26 13.81,-15.86 20.36,-22.95 1.24,-1.31 9.3,-10.74 10.41,-11.49 0.4,-0.59 0.88,-1.14 1.39,-1.77 0.44,-0.48 0.87,-0.97 1.38,-1.42 1.23,0.56 1.97,0.69 3.42,0.83 1.17,-0 1.32,-0.28 1.76,0.75 0.26,0.86 0.67,1.61 1.15,2.4 0.43,1.22 1.15,2.4 1.8,3.55 0.4,0.93 0.78,1.76 1.25,2.72 10.93,21.74 21.83,43.55 32.69,65.43 0.1,0.32 0.27,0.5 0.37,0.82 0.31,0.26 0.18,-0.17 0.52,0.55 0.13,0.25 0.17,0.36 0.34,0.72 0.13,0.43 0.12,0.96 0.35,1.71zm-50.04 -81.53c-0.19,0.7 -0.84,1.25 -1.36,1.88 -0.58,0.59 -0.77,0.94 -1.59,1.48 -0.04,0.24 0.22,-0.07 -0.15,0.46 -0.84,0.9 -1.64,1.73 -2.36,2.59 -6.92,7.61 -14.29,16.41 -21.02,23.67 -2.66,2.98 -5.32,5.95 -7.87,8.9 -1.85,1.97 -3.53,3.94 -5.28,5.88 -5.03,5.93 -11.24,12.21 -15.74,17.79 -4.45,5.34 -11.04,12.5 -15.77,17.86 -5.1,5.71 -10.81,11.9 -15.73,17.61 -0.53,-0.19 -1.02,-0.45 -1.55,-0.64 -0.09,-0.85 -0.1,-1.67 -0.08,-2.55 -0.27,-2.2 -0.43,-4.44 -0.55,-6.74 -2.64,-33.63 -5.36,-67.31 -8.07,-100.98 -0.2,-0.64 -0.22,-1.46 -0.27,-2.2 -0.06,-0.39 -0.13,-0.78 -0.12,-1.14 -0.05,-0.92 -0.13,-0.43 0.13,-0.92 -0.4,-1.11 -0.29,-1.14 -0.41,-2.28 1.1,-0.04 1.47,-0.39 2.36,-0.89 0.15,-0.28 1.02,-0.89 1.49,-1.45 0.47,-0.56 0.84,-1.08 1.03,-1.78 1.98,0.33 3.85,0.7 5.76,1.18 3.47,0.41 16.54,3.23 20.6,4.04 13.74,2.73 27.49,5.46 41.34,8.15 5.93,1.18 14.77,3 20.39,3.93 1.1,0.13 2.23,0.38 3.25,0.65 0.64,0.16 1.31,0.25 2.05,0.37 0.32,1.42 0.8,2.22 1.45,3.36 -0.9,0.68 -0.95,1.28 -1.92,1.76zm-102.46 -8c0.08,1.03 0.09,2.02 0.25,2.91 0.08,1.38 0.26,2.73 0.37,4.05 -0.04,1.95 0.23,3.97 0.54,5.93 0.37,5.57 0.77,11.24 1.28,16.89 0.87,14.79 2.71,30.8 3.71,45.84 0.57,7.56 1.15,15.12 1.79,22.71 0.1,2.02 0.3,4.19 0.53,6.28 -0.26,0.49 -0.15,0.46 0.12,1.14 -0.43,0.13 -0.86,0.26 -1.21,0.25 -0.4,0.59 -1.08,0.86 -1.66,1.27 -0.69,0.62 -0.88,1.15 -1.39,1.59 -0.6,-0.05 -2.22,-0.55 -2.64,-0.95 -21.68,-7.93 -43.33,-15.92 -64.98,-23.74 -0.35,-0.19 -0.67,-0.26 -1.09,-0.49 -0.6,-0.23 -0.42,-0.05 -0.81,-0.52 -0.85,0.09 -0.92,0.05 -1.73,-0.29 -0.56,-0.3 -0.88,-0.38 -1.44,-0.68 -0.85,-0.27 -2.19,-0.62 -2.81,-1.13 -0.49,-0.09 -0.95,-0.24 -1.34,-0.35 -0.39,-0.12 -0.49,-0.08 -0.91,-0.31 -0.67,-0.27 -0.42,-0.22 -0.45,-0.33 -0.99,-0.34 -1.97,-0.69 -2.96,-1.03 0.44,-0.48 3.66,-3.16 4.12,-3.36 0.55,-0.7 1.31,-1.28 1.96,-1.83 0.76,-0.58 1.41,-1.31 2.45,-1.74 0.15,-0.46 4.09,-3.65 4.74,-4.2 9.84,-8.21 19.79,-16.45 29.7,-24.8 0.76,-0.58 4.13,-3.54 5.02,-3.87 0.18,-0.35 0.26,-0.49 0.48,-0.91 9.1,-16.12 18.3,-32.28 27.47,-48.54 0.25,1.56 0.31,3.66 0.48,5.36 0.11,1.49 0.17,3.23 0.39,4.86zm9.89 -25.91c0.12,-0.74 0.08,-0.49 0.59,-0.76 0.19,-0.7 0.63,-1.36 1.32,-1.81 2.16,-2.88 4.42,-5.62 6.62,-8.4 2.3,-2.81 4.42,-5.45 6.61,-8.4 6.65,-8.29 13.3,-16.58 19.87,-24.91 1.43,-2.02 19.11,-24.15 19.95,-25.05 0.7,2.07 3.2,6.18 3.34,7.77 0.63,0.51 1.87,3.77 2.28,4.52 3.28,7.2 31.21,68.23 31.6,69.51 0.3,0.79 0.6,1.57 0.87,2.25 0.49,0.26 0.62,0.87 0.82,1.33 0.24,0.57 0.41,0.75 0.71,1.36 0.44,1.04 0.84,2.15 1.35,3.04 -0.58,0.41 -1.09,1.03 -1.49,1.45 -0.23,0.59 -0.44,0.48 -0.7,1.33 -28.69,-5.56 -57.17,-11.18 -85.79,-16.88 -1.81,0.02 -6.15,-1.29 -7.71,-1.4 -0.64,-3.03 -2.51,-3.57 -0.24,-4.96zm-91.42 -101.8c0.43,1.57 0.9,2.54 1.69,3.59 1.31,1.59 2.36,2.51 4.01,3.29 -0.08,0.49 -0.09,1.02 -0.03,1.41 -0.01,0.53 0.01,0.99 0.07,1.56 -0.08,0.49 -0.13,0.92 -0.1,1.38 -0.06,0.96 -0.23,2.12 -0.18,3.04 0.04,4.5 -0.5,11.28 -0.65,16.13 -1.68,36.53 -3.44,73.21 -5.19,109.7 -0.21,4.28 -0.44,8.45 -0.53,12.52 -0.84,12.09 -1.21,24.97 -1.91,37.13 -0.04,0.24 -0.08,0.49 -0.12,0.74 0,0 -0.07,0.14 -0.11,0.21 -0.03,-0.28 0.01,-0.53 0.09,-0.85 -5.5,-46.71 -11.08,-93.45 -16.69,-140.12 -0.49,-1.96 -0.45,-3.55 -0.45,-3.55 0.04,-0.07 0.07,-0.14 0.11,-0.21 -0.31,-0.61 -0.4,-0.93 -0.21,-1.64 0.04,-0.07 0.11,-0.03 0.18,-0.17 -0.02,-0.81 0.06,-1.13 0.29,-1.73 3.24,-17.8 6.49,-35.6 9.7,-53.5 -0.02,-0.46 0.05,-0.78 0.1,-1.2 0.04,-0.25 0.08,-0.32 0.23,-0.59 0.12,-0.39 0,0 0.22,-0.42 -0.16,-0.71 -0.17,-0.36 -0.01,-1.17 0.08,-0.31 0.04,-0.25 0.08,-0.49 0.08,-0.32 0.15,-0.28 0.26,-0.49 -0.13,-0.6 -0.08,-1.2 0.18,-1.69 0.05,-0.6 0.13,-1.09 0.25,-1.66 0.16,-0.63 0.32,-1.44 0.48,-2.25 0.73,0.83 1.65,2.31 2.3,3.28 0.76,0.94 1.97,2.57 2.19,3.49 0.46,0.15 0.04,-0.25 0.73,0.48 0.13,0.25 0.38,0.47 0.48,0.79 0.41,0.58 0.59,0.76 0.89,1.54 0.66,0.62 1.21,1.45 1.69,2.24 0.38,0.65 0.86,1.44 1.41,2.09 -1.46,1.73 -2,3.95 -1.44,7.11zm-6.95 -28.58c0.08,-0.32 0.12,-0.56 0.17,-0.99 0.04,-0.42 -0.07,-0.21 0.16,-0.63 0.12,-0.39 -0.07,-0.04 0.19,-0.35 -0.1,-0.5 -0.13,-0.43 -0.01,-0.99 0.13,-0.92 0.15,-0.46 0.37,-0.7 -0.23,-0.57 -0.31,-0.61 0.13,-1.09 -0.1,-0.5 -0.13,-0.61 0.03,-1.24 0.04,-0.25 0.04,-0.25 0.22,-0.42 0.11,-0.39 0,-0.18 0.22,-0.42 -0.26,-0.86 0.08,-1.84 0.2,-2.75 4.87,-26.96 9.71,-53.85 14.54,-80.92 -0.05,-0.92 0.02,-0.89 0.29,-1.55 0.04,-0.25 -0.03,-0.46 0.05,-0.6 0.16,-0.81 0.04,-0.25 0.26,-0.49 -0.09,-0.68 -0.2,-0.82 0.28,-1.2 -0.17,-0.53 -0.2,-0.46 -0.09,-1.03 0.09,-0.85 0.12,-0.38 0.33,-0.63 -0.09,-0.5 -0.2,-0.46 -0.12,-0.96 0.16,-0.81 0.15,-0.46 0.41,-0.59 -0.19,-1 0.15,-2.16 0.28,-3.07 0.2,-0.88 0.32,-1.8 0.53,-2.85 0.83,0.98 4.75,5.11 5.08,6.01 0.39,0.29 0.04,-0.07 0.59,0.41 0,0 0.31,0.43 0.31,0.43 0.42,0.4 0.48,0.61 0.69,1.08 0.42,0.22 0.11,-0.03 0.73,0.48 0.13,0.25 0.13,0.25 0.34,0.54 0.45,0.51 0.63,0.51 0.83,1.15 0.28,0.15 0.14,0.08 0.46,0.33 22.54,26.47 45.11,53.04 67.65,79.51 0.49,0.44 0.9,0.84 1.17,1.52 0.46,0.15 0.04,-0.25 0.45,0.33 0.31,0.43 0.55,0.83 0.86,1.26 0.29,-0.03 0.12,-0.56 0.35,0.36 0.11,-0.03 0.07,-0.14 0.49,0.26 0.24,0.4 0.21,0.29 0.34,0.72 0.81,0.34 3.15,3.55 3.49,4.09 -0.75,0.23 -1.5,0.46 -2.22,0.62 -0.36,-0.01 -0.68,0.09 -1,0.19 -1.25,0.5 -2.62,1.03 -3.94,1.49 -15.95,5.5 -31.87,10.93 -47.79,16.36 -2.11,0.76 -14.99,5.38 -16.16,5.21 -0.11,0.21 -0.29,0.38 -0.44,0.48 0,0 -0.47,0.2 -0.54,0.16 -2.54,0.89 -4.97,1.75 -7.44,2.5 -0.31,-0.26 -0.7,-0.55 -0.97,-0.88 -2.2,-1.79 -3.95,-2.9 -7.93,-2.68 -0.39,0.06 -0.71,-0.02 -0.99,0.01 -0.48,-0.61 -0.83,-1.15 -1.17,-1.87 -0.48,-0.62 -0.97,-1.23 -1.34,-1.87 -3.06,-4.22 -6.09,-8.51 -9.08,-12.7 -0.44,-0.68 -0.86,-1.26 -1.27,-2.02z"/>
    <line class="fil3 str0" x1="510.59" y1="22.01" x2="1096.33" y2= "851.26" />
   </g>
   <g>
    <polygon class="fil0" points="1459.31,512.68 1547.23,549.41 1592.55,661.01 1497.75,667.06 1409.81,578.98 "/>
    <polygon class="fil4" points="1459.31,512.68 1547.23,549.41 1592.55,661.01 1497.75,667.06 1409.81,578.98 "/>
    <path class="fil2" d="M1544.69 664.06c-0.78,-0.78 -1.56,-1.56 -2.31,-2.33 -1.24,-1.08 -2.26,-2.22 -3.33,-3.26 -0.73,-0.64 -3.21,-2.8 -3.21,-3.45 -0.63,-0.25 -2.18,-1.59 -2.56,-2.14 -1.74,-1.78 -1.59,-0.51 -0.24,-5.72 1.47,-5.73 3.03,-11.4 4.5,-17.13 0.46,-1.82 0.82,-3.7 1.53,-5.82 0.97,-3.74 0.09,-2.3 3.16,-5.81 7.56,-8.48 15.15,-16.91 22.72,-25.38l-2.37 -5.83 -0.83 0.91c-8.78,9.95 -17.73,19.85 -26.54,29.65 -1.03,1.14 -0.74,1.32 -1.14,2.39 -1.9,6.97 -3.74,13.85 -5.49,20.79 -0.48,2.07 -0.97,4.06 -1.47,6.05 -1.01,-0.81 -4.73,-3.98 -4.91,-4.75 -0.58,-0.35 -1.19,-0.85 -1.71,-1.3 -0.71,-0.56 -1.28,-1.24 -1.82,-1.76 -6.79,-5.76 -13.33,-12.47 -19.92,-18.43 -6.7,-6.02 -13.18,-12.18 -19.87,-18.2 -13.14,-12.03 -26.28,-24.05 -39.34,-36.1 -0.48,-0.62 -0.09,-0.06 -0.26,-0.42 -0.5,-0.37 -1.01,-0.81 -1.53,-1.26 -0.21,-0.19 -0.61,-0.5 -0.75,-0.71 -0.19,-0.12 -0.32,-0.33 -0.42,-0.39 -0.36,-0.48 -0.25,-0.35 -0.29,-0.5 -0.61,-0.18 -1.57,-1.08 -2.05,-1.7 -1.03,-0.89 -2.16,-1.83 -3.21,-2.8 0.62,-0.48 2.97,-1.21 4.19,-1.59 0.75,-0.27 0.72,-0.42 1.47,-0.36 0.66,-0.65 3.13,-1.25 4.17,-1.67 1.41,-0.59 2.84,-1.1 4.36,-1.55 1.27,-0.47 7.86,-2.97 8.61,-2.91 1.19,-0.45 2.55,-0.95 3.9,-1.43 1.41,-0.59 2.9,-1.19 4.46,-1.82 2.25,2.55 3.75,2.67 6.31,3.43 0.6,-0.23 1.71,-0.01 2.21,0.03 0.29,-0.15 -0.02,-0.08 0.6,-0.23 0.64,-0.07 0.48,-0.04 0.81,-0.04 0.51,-0.29 -0.08,0.02 0.58,-0.3 0.23,-0.05 0.46,-0.11 0.68,-0.25 4.15,-1.74 5.17,-4.27 5.93,-7.54 -0.11,-0.79 -0.09,-0.38 0.01,-0.98 -0.11,-0.46 -0.07,-0.31 -0.22,-0.92 -0.02,-0.08 -0.09,-0.39 -0.11,-0.46 0.02,-0.25 -0.06,-0.23 0.06,-0.42 -1.71,-3 -1.04,-2.92 -4.87,-5.57 0.12,-0.84 0.4,-1.72 0.58,-2.66 -0.11,-0.13 -0.11,-0.13 -0.11,-0.46 0.04,-0.17 0.15,-0.36 0.18,-0.61 0.04,-0.5 0.06,-0.75 0.24,-1.36 0.2,-0.86 0.4,-1.72 0.6,-2.59 -0.08,-0.33 0.6,-3.95 1.11,-6.43l-5.42 -2.26c-0.99,5.36 -2.03,10.88 -3.01,15.6 -1.06,0.01 -1.64,0.32 -2.58,0.46 -0.48,-0.29 -0.99,-0.73 -1.36,-1.22 -0.59,-0.75 -0.19,-0.12 -0.25,-0.67 -0.9,-0.35 -0.75,-0.39 -1.28,-0.91 -0.29,-0.17 -0.5,-0.37 -0.55,-0.6 -0.36,-0.48 -0.12,-0.13 -0.21,-0.52 -1.2,-0.67 -6.75,-6.56 -8.99,-8.88l-3.42 4.58c1.77,1.9 3.9,4.19 5.28,5.22 0.04,0.15 0.15,0.29 0.26,0.43 -0.25,-0.02 -0.44,-0.14 -0.71,-0.24 -1.73,-1.21 -4.5,-2.28 -6.29,-3.47l-3.21 4.3c4.35,2.26 8.66,4.51 12.22,6.64 0.5,0.37 0.86,0.52 1.32,0.74 0.31,0.25 0.67,0.41 1.02,0.48 0.29,0.18 0.5,0.37 0.77,0.46 -0.45,1.17 -0.13,1.5 -0.38,2.45 -5.58,1.93 -10.93,3.8 -16.35,5.68 -2.61,1.04 -5.48,1.98 -8.11,2.95 -1.35,0.49 -2.62,0.96 -4.13,1.49 -0.7,0.17 -1.3,0.4 -2.05,0.66 -0.22,0.07 -0.4,0.14 -0.56,0.2l-18.97 25.41 0 0c4.72,-5.24 9.47,-10.39 10.09,-10.62 0.43,-0.92 1.32,-1.62 2,-2.52 1.3,-1.37 2.66,-2.84 4.02,-4.31 0.23,0.27 0.65,0.66 1.03,0.89 0.54,0.52 1.07,1.04 1.66,1.47 0.52,0.44 0.96,0.91 1.55,1.33 0.23,0.27 0.46,0.54 0.59,0.75 0.4,0.31 0.82,0.7 1.21,0.93 -0.06,0.09 -0.06,0.09 -0.06,0.09 4.38,3.9 8.68,7.82 12.99,11.74 24.42,22.47 48.84,44.94 73.28,67.49 1.85,1.91 3.94,3.76 5.85,5.58 -1.06,0.67 -2.15,1.25 -3.23,1.85l-23.04 13.43 12.36 -0.79 2.02 -1.18c1.49,-0.93 3.21,-1.92 4.95,-2.83 0.76,-0.59 4.12,-2.55 4.8,-2.79 2.09,-1.16 4.14,-2.47 6.29,-3.72 0.54,0.52 1.07,1.04 1.68,1.54 0.77,0.79 1.6,1.56 2.37,2.35 0.12,0.13 0.15,0.29 0.25,0.35 0.23,0.27 0.52,0.44 0.73,0.64 0.55,0.6 0.99,1.06 1.61,1.56l2.4 2.36 7.48 -0.48zm9.21 -0.59l32.49 -2.07c0.24,-0.21 0.43,-0.38 0.56,-0.5 1.41,-1.1 2.81,-2.22 4.2,-3.35l-9.44 -23.26 -0.1 -0.09c-1.65,-1.39 -3.14,-2.82 -4.65,-4.33 -1.15,1.01 -2.15,1.91 -3.24,2.82 -2.24,1.85 -4.55,4.12 -6.86,6.06 -1.34,1.22 -19.31,17.71 -19.98,17.63 -0.53,0.86 -0.78,1.17 -1.55,1.68 -0.48,0.36 -0.81,0.68 -1.05,1.07 1.19,0.85 2.7,1.05 3.99,1.96 1.02,0.49 2.09,0.88 3.09,1.29l2.53 1.08z"/>
   </g>
   <g>
    <polygon class="fil0" points="1387.82,106.85 1489.87,152.37 1547.25,286.99 1351.55,221.49 "/>
    <polygon class="fil5" points="1387.82,106.85 1489.87,152.37 1547.25,286.99 1351.55,221.49 "/>
    <path class="fil2" d="M1547.25 286.99l-6.44 -15.11c-0.75,-1.22 -1.49,-2.43 -2.24,-3.67 -1.29,-2.03 -7.62,-12.35 -7.76,-13.05 -0.24,-0.85 -0.11,-0.31 0.16,-0.89 -0.1,-0.23 -0.12,-0.47 -0.14,-0.7 -0.77,-0.65 -2.03,-2.28 -2.04,-3.23 -0.95,-0.79 -1.72,-2.31 -2.27,-3.21l4.97 2.9 -3.72 -8.72c-0.54,-0.42 -0.87,-0.85 -0.48,-1.13l-3.74 -8.77c-0.15,-0.11 -0.29,-0.21 -0.43,-0.33 -0.6,-0.42 -0.93,-0.55 -1.59,-0.81 0.11,-0.64 0.04,-0.48 0.3,-1.14 -0.21,-0.54 0.02,-0.64 0.05,-1.2l0.01 -0.39 -4.78 -11.21 -0.3 2.91c-0.12,0.49 -0.09,0.8 -0.12,1.36 -0.04,0.48 -0.25,0.73 -0.2,1.37 -0.33,2.57 -0.66,5.22 -0.92,7.7 -5.77,1.46 -6.07,4.42 -7.22,5.87 -4.36,0.3 -92.8,0.67 -92.97,0.61 -1.43,0.05 -2.87,0.01 -4.23,-0.02 0.64,-0.93 1.27,-1.86 1.91,-2.71 3.16,-4.88 6.96,-9.74 10.12,-14.62 4.86,-7.25 10.21,-14.47 15.07,-21.73 3.32,-4.82 6.64,-9.71 9.96,-14.53 0.93,-1.27 1.79,-2.38 2.56,-3.56 2.97,-4.31 1.7,-3.33 6.99,-5.69 11.37,-5.28 22.8,-10.5 34.24,-15.83l-2.17 -5.08c-4.49,2.15 -8.97,4.31 -13.5,6.34 -8.29,3.59 -16.47,7.64 -24.75,11.3 -3.37,1.56 -3.23,2.27 -5.06,5.05 -12.79,18.67 -25.59,37.25 -38.31,55.83 -0.43,0.59 -0.99,1.52 -1.5,1.96 -1.18,-0.69 -11.96,-3.71 -14.25,-4.39 -0.75,-0.33 -0.9,-0.32 -1.65,-0.57 -12.55,-3.78 -25.14,-7.59 -37.72,-11.39l-1.58 4.99c11.54,3.44 23.01,6.95 34.55,10.47 2.3,0.75 4.57,1.27 6.88,2.1 1.31,0.44 5.88,1.55 6.64,2.12 0.48,0.04 0.07,-0.09 0.65,0.1 0,0 0.49,0.12 0.49,0.12 0.57,0.11 0.73,0.18 1.23,0.45 0.33,0.13 0.57,0.19 0.98,0.31 0.09,0.07 0.17,0.14 0.26,0.22 0.7,-0.14 1.36,0.12 2.11,0.45 0.26,0.29 0.61,0.58 0.94,0.71 -0.06,0.42 -0.11,0.85 -0.15,1.24l20.49 6.86c-2.65,-1.65 -5.29,-3.24 -7.86,-4.9 1.17,-0.34 3.09,-0.19 4.37,-0.22 1.12,-0.02 3.26,-0.05 4.15,0.11 6.12,-0.14 12.34,-0.13 18.55,-0.28 6.31,0.16 54.32,-0.48 55.46,-0.18 1.02,-0.25 3.65,-0.24 4.62,-0.09 0.32,-0.03 0.72,0.02 1.11,-0.02 0.55,-0.05 1.12,0.06 1.68,0.09 0.2,0.46 0.31,0.85 0.59,1.22 0.73,1.05 0.81,1.12 1.87,2.22 0.61,0.58 1.29,1.08 1.87,1.27 -0.22,1.05 -0.47,1.95 -0.69,3 -1.84,8.22 -3.66,16.43 -5.46,24.64l5.69 1.9c1.85,-8.42 3.71,-16.78 5.63,-25.15 0.02,-0.64 0.21,-1.21 0.39,-1.94 0.15,-0.97 -0.02,-1.11 1.14,-1.53 8.15,13.06 16.33,26.14 24.52,39.22l3.02 1.01z"/>
   </g>
  </g>
 </g>
</svg>
