<?xml version="1.0" encoding="UTF-8"?>
<!DOCTYPE svg PUBLIC "-//W3C//DTD SVG 1.1//EN" "http://www.w3.org/Graphics/SVG/1.1/DTD/svg11.dtd">
<!-- Creator: CorelDRAW -->
<svg xmlns="http://www.w3.org/2000/svg" xml:space="preserve" width="181.637mm" height="96.4724mm" version="1.1" style="shape-rendering:geometricPrecision; text-rendering:geometricPrecision; image-rendering:optimizeQuality; fill-rule:evenodd; clip-rule:evenodd"
viewBox="0 0 3224.05 1712.38"
 xmlns:xlink="http://www.w3.org/1999/xlink"
 xmlns:xodm="http://www.corel.com/coreldraw/odm/2003">
 <defs>
  <style type="text/css">
   <![CDATA[
    .str0 {stroke:white;stroke-width:3.55;stroke-miterlimit:22.9256;stroke-dasharray:35.499809 17.749905}
    .fil3 {fill:none}
    .fil2 {fill:white}
    .fil0 {fill:#999999;fill-rule:nonzero}
    .fil1 {fill:url(#id0);fill-rule:nonzero}
   ]]>
  </style>
  <linearGradient id="id0" gradientUnits="userSpaceOnUse" x1="2444.8" y1="421.97" x2="2576.87" y2="-38.05">
   <stop offset="0" style="stop-opacity:1; stop-color:#BABABA"/>
   <stop offset="0.368627" style="stop-opacity:1; stop-color:#9E9E9E"/>
   <stop offset="0.541176" style="stop-opacity:1; stop-color:#878787"/>
   <stop offset="0.709804" style="stop-opacity:1; stop-color:#B8B8B8"/>
   <stop offset="0.85098" style="stop-opacity:1; stop-color:#B8B8B8"/>
   <stop offset="1" style="stop-opacity:1; stop-color:#8F8F8F"/>
  </linearGradient>
 </defs>
 <g id="Layer_x0020_1">
  <metadata id="CorelCorpID_0Corel-Layer"/>
  <g id="_2460677967584">
   <path class="fil0" d="M1015.4 1712.38l-372.54 -215.09c28.94,-26.52 44.41,-60.77 39.35,-96.04 -9.87,-68.88 -94.22,-115.62 -188.39,-104.4 -45.94,5.47 -85.72,23.74 -113.28,48.99l-372.53 -215.09 795.45 -344.63c255.16,-110.55 496.76,-250.09 720.03,-415.87l124.35 -92.33c169.42,-125.79 363.11,-215.07 568.8,-262.18l309.85 178.89c-25.78,23.63 -39.56,54.13 -35.05,85.55 8.79,61.36 83.93,103 167.81,93 40.92,-4.88 76.36,-21.14 100.92,-43.64l463.88 267.82 -2.81 0.65c-204.57,47.42 -397.14,136.58 -565.67,261.88l-118.41 88.03c-223.18,165.94 -464.69,305.65 -719.8,416.37l-801.96 348.08z"/>
   <path class="fil1" d="M1007.39 1696.64l-372.54 -215.09c28.94,-26.52 44.41,-60.77 39.35,-96.04 -9.87,-68.88 -94.22,-115.62 -188.39,-104.4 -45.94,5.47 -85.72,23.74 -113.28,48.99l-372.53 -215.09 795.45 -344.63c255.16,-110.55 496.76,-250.09 720.03,-415.87l124.35 -92.33c169.42,-125.79 363.11,-215.07 568.8,-262.18l309.85 178.89c-25.78,23.63 -39.56,54.13 -35.05,85.55 8.79,61.36 83.93,103 167.81,93 40.92,-4.88 76.36,-21.14 100.92,-43.64l463.88 267.82 -2.81 0.65c-204.57,47.42 -397.14,136.58 -565.67,261.88l-118.41 88.03c-223.18,165.94 -464.69,305.65 -719.8,416.37l-801.96 348.08z"/>
   <path class="fil2" d="M2041.32 1057.38c-0.46,0.63 -0.91,1.09 -1.36,1.63 -0.18,0.45 -1.82,2.54 -2.64,3.26 -22.29,27.82 -44.58,55.54 -66.68,83.18 -1,1.18 -1.82,2.36 -2.82,3.53 -0.64,0.72 -1.27,1.63 -1.91,2.36 -0.18,0.09 -0.27,0.27 -0.36,0.36 -0.45,-0.63 -2.82,-5.71 -2.64,-6.8 -0.82,-0.72 -1.55,-2.63 -1.55,-3.17 -0.46,-0.73 -0.64,-0.64 -0.27,-1.09 -0.73,-0.72 -0.55,-0.63 -0.91,-1.72 -0.18,-0.27 -0.27,-0.54 -0.36,-0.63 -0.45,-1.36 -0.18,-0.36 -0.09,-1 -0.91,-1 -3.82,-8.61 -4.55,-10.42 -3.64,-8.61 -7.28,-17.31 -10.92,-25.91 -0.45,-1.09 -2.09,-4.17 -1.91,-5.35 -0.82,-0.81 -1.64,-3.44 -2.18,-4.62 -0.36,-0.72 -0.91,-1.72 -0.73,-2.45 0,-0.36 0.64,-1.72 0.91,-2.17 0.36,-1.09 0.82,-2.17 1.36,-3.35 0.73,-1.9 1.36,-3.9 2.27,-5.89 5.37,-13.77 10.64,-27.64 16.1,-41.41 0.73,-1.9 1.55,-3.9 2.37,-5.98 0.09,-0.27 0.18,-0.54 0.36,-0.82 0.09,-0.36 0.27,-0.72 0.45,-1.18 0.82,0 2.37,0.45 3,1 0.09,0 0.18,0 0.18,0 1.18,0.45 2.27,0.91 3.46,1.36 20.74,7.16 41.49,14.32 62.32,21.48 0.55,0.27 0,0 0.55,0.36 0.36,0 0.36,-0.09 0.91,0.09 1,0.36 0.45,0.18 0.91,0.54 0.18,0 0.36,0.09 0.64,0.09 0.18,0 0.45,0.18 0.82,0.27 0.82,0.27 1.64,0.64 2.64,1 0.82,0 1.18,0.27 2,0.54 0.91,0.36 1.46,0.45 2.18,0.82 -0.55,0.81 -1,1.45 -1.55,2.08zm-475.81 -118.07c-6.55,7.7 -13.1,15.31 -19.65,23.02 -1.55,1.81 -3,3.62 -4.46,5.26 0.82,0.27 1.18,0.54 1.73,0.36 1,0.64 1.36,0.54 2.46,1 0.73,-0.09 4.55,1.18 5.09,1.45 0.55,0 1.09,0.09 1.64,0.09 0.73,0.72 2.36,1 3.37,1.27 1.09,0.27 2.37,0.64 3.46,0.91 1.18,0.36 6.46,1.99 7.1,1.9 0.82,0.45 5.91,1.81 7.55,2.26 0.27,0.09 0.36,0.09 0.54,0.09 0.73,0.18 0,0.18 0.46,0 1.27,0.64 2.64,0.73 3.64,1.36 0.73,-0.09 1.55,0.27 2.27,0.45 1.18,0.54 2.09,0.45 3.09,1 10.83,-7.25 21.56,-14.68 32.3,-22.11 0.45,-0.73 0.27,-0.36 0,-1.36 -0.27,-0.54 -0.54,-1.09 -0.73,-1.63 -0.27,-0.63 -0.45,-1.18 -0.73,-1.81 -0.45,-0.82 -0.73,-1.63 -1.09,-2.54 -0.09,-0.54 -0.36,-1.18 -0.64,-1.9 -0.45,-1.09 -0.64,-1.09 -1.36,-1.45 -1.36,0 -3.09,-0.73 -4.28,-0.54 -0.64,-0.45 -1.09,-0.54 -1.73,-0.63 -1,-0.18 -1,-0.18 -1.91,-0.45 -1.18,-0.27 -10.46,-2.27 -11.37,-2.27 -0.82,-0.45 -8.82,-2.17 -9.73,-2.08 -0.82,-0.54 -14.1,-3.26 -15.47,-3.35 -0.55,0.54 -1.09,1.18 -1.55,1.72zm6.37 31.17c-0.36,-0.36 0,-0.09 -0.54,-0.45 -0.09,0 -0.82,-0.18 -1,-0.18 -4,-1 -7.91,-2.17 -11.83,-3.26 -0.45,-0.18 -0.36,-0.18 -0.55,-0.18 -1.82,-0.63 -3.91,-0.91 -5.37,-1.63 0.73,-1.81 4.64,-4.53 5,-6.25 2.28,-1.54 11.37,-13.86 12.56,-14.14 1.91,0.45 3.82,0.82 5.73,1.18 0.36,0 0.27,0 0.54,0 0.82,0.45 8.64,2.17 9.73,1.99 0.36,0.36 0,0.18 0.82,0.45 3.27,0.73 6.73,1.45 10.19,2.17 0.82,0.27 1,0.18 1.82,0.36 0.55,0.09 1.18,0.09 1.82,0.18 0.73,0.54 0.73,0.45 1.73,0.63 1,0.18 2.09,0.45 3.27,0.72 0.73,0.09 1,0.27 1.82,0.45 0.27,0.36 0.55,0.91 0.82,1.18 0.09,0.54 0.27,1.09 0.45,1.54 -8.73,5.89 -17.38,11.87 -26.02,17.76 -1.09,0.45 -1.27,-0.36 -2.55,-0.18 -0.64,-0.45 -1.18,-0.45 -1.91,-0.72 -1.36,-0.27 -5.37,-1.54 -6.55,-1.63zm180.59 -145.98c0.64,-1.36 0.09,-5.17 0.54,-5.8 1.18,-0.82 7.37,-2.99 9.28,-3.72 2.09,-0.82 7.73,-2.45 9.28,-3.62 1.91,0.09 5.91,-2.54 8.1,-2.63 0.27,1.54 0.09,3.35 0.18,5.07 0,1.54 0,3.26 0.09,4.8 0.18,1.63 0,7.7 0.36,8.61 -0.18,0.36 -0.09,0.18 -0.18,0.54 0,1.18 0.09,2.36 0.09,3.62 0.09,1.72 0,2.9 0.09,4.53 -0.09,0.73 0.27,0.91 -0.27,1.81 -8.83,5.98 -17.56,12.05 -26.29,17.94 -0.45,-0.18 -0.82,-0.45 -1.18,-0.72 -0.45,-0.27 -0.82,-0.54 -1.27,-0.82 -0.27,-1.54 0,-2.08 0.09,-3.35 -0.09,-1.27 0.18,-2.36 -0.09,-3.44 0.45,-0.63 0.27,-0.72 0.18,-1.63 0.09,-0.73 0.18,-1 0.18,-1.72 0,-1.09 0,-2.45 0.09,-3.44 0.09,-1.36 0.64,-5.89 0.18,-6.98 0.64,-1 0.27,-1.18 0.36,-2.26 0,-1.63 0.64,-5.62 0.18,-6.8zm33.84 -1.18c0,-2.17 0,-4.35 0,-6.52 -0.09,-1.18 0,-5.98 -0.36,-6.89 0,-0.27 0.09,-0.45 0.18,-0.82 0,-0.36 0,-0.63 0,-0.91 -0.09,-1.63 -0.09,-3.26 0,-4.89 -0.18,-0.81 -0.09,-1.27 -0.27,-2.17 0.09,-0.45 0,-0.91 0,-1.63 -1.64,0.72 -3.37,1.27 -5,1.72 -11.28,4.26 -22.56,8.52 -33.84,12.69 -1.09,1 -0.73,5.89 -0.82,7.34 -0.09,2.54 -0.36,5.07 -0.45,7.61 -0.09,0.82 0,1.18 0,2.08 -0.18,1.54 -0.27,3.08 -0.27,4.53 -0.09,0.91 -0.18,1.45 0,2.45 -0.54,0.36 -0.73,9.61 -0.73,10.51 0,0.63 -0.09,1.09 -0.09,1.72 -0.09,0.72 0,1 -0.09,1.9 -0.09,0.72 0.09,1.18 -0.09,1.9 -0.09,0.54 -0.09,0.27 -0.09,0.91 0,0.72 0.18,0.18 -0.09,1 0.09,1 0,0.91 1.09,1.54 0.64,0.45 1.36,0.91 2,1.27 0.73,0.45 1.46,0.91 2.09,1.36 0.64,0.36 1.18,0.73 1.82,1.18 0.54,0.36 0.91,0.63 1.36,0.91 0.82,0.54 0.64,0.63 1.55,0.63 10.92,-7.52 21.83,-15.04 32.75,-22.65 -0.27,-0.45 -0.27,-2.08 -0.36,-2.9 0.09,-0.36 0.09,-0.54 0.09,-1 0,-0.09 -0.09,-0.45 0,-0.54 0.09,-0.63 -0.09,-0.09 0.09,-0.54 -0.45,-1.27 0.09,-2.36 -0.36,-3.53 0.36,-0.64 0.09,-3.17 0.09,-3.9 -0.09,-1.45 -0.18,-2.9 -0.18,-4.35zm63.23 207.78c-9.92,8.61 -20.01,17.22 -29.93,25.74 -0.91,0.72 -2.73,2.26 -3.27,3.17 1.73,1.72 3.55,3.53 5.28,5.26 4.55,4.71 9.19,9.33 13.83,13.95 0.82,1 1.64,1.9 2.55,2.81 1.18,1.09 2.18,2.09 3.46,3.08 4.19,-3.9 8.37,-7.88 12.65,-11.78 1.82,-1.72 11.19,-10.78 12.92,-11.96 0.09,-0.36 -0.09,0 0.27,-0.45 0.18,-0.18 0.27,-0.27 0.46,-0.45 0.45,-0.45 0.36,-0.36 0.73,-0.91 -0.27,-0.45 -0.55,-0.91 -0.64,-1.45 -1.82,-4.44 -4.09,-8.97 -6.1,-13.23 -0.18,-0.45 -0.45,-1.09 -0.64,-1.54 -0.27,-0.54 -0.54,-1.09 -0.82,-1.72 -0.55,-1.09 -1.09,-2.26 -1.55,-3.35 -0.64,-1.45 -2.82,-5.8 -2.91,-6.7 -0.73,-1.36 -1.36,-2.72 -2,-3.99 -0.55,0.36 -1.27,0.73 -1.82,1.18 -0.73,0.81 -1.64,1.54 -2.46,2.36zm-84.34 63.16c1,0.82 2.09,1.54 3.09,2.27 3.37,2.54 6.37,4.71 9.92,7.43 1.82,1.36 3.37,2.63 5,3.81 1.64,1.27 3.37,2.54 5,3.81 0.73,0.63 1.46,1.18 2.27,1.81 0.46,-0.27 0.91,-0.54 1.46,-0.82 0.64,-0.09 0.27,-0.09 0.73,-0.09 0.91,-0.81 13.55,-6.79 15.65,-7.97 5.46,-2.45 10.83,-5.17 16.1,-7.79 0.18,-0.64 -1.46,-2.81 -2.09,-3.72 -0.73,-1 -1.46,-2.27 -2.28,-3.44 -3.55,-5.44 -7,-10.78 -10.46,-16.22 -1.46,-1.99 -2.73,-3.99 -4,-6.07 -1.55,0.82 -2.91,1.54 -4.37,2.27 -3,1.45 -6.19,3.35 -9.28,4.89 -1.82,1 -26.29,14.5 -27.02,14.23 -0.82,0.82 -1.18,1.09 -2.18,1.45 -0.64,0.27 -1.09,0.54 -1.46,0.91 1.09,1.27 2.73,1.9 3.91,3.26zm-579.07 -462.13c1.46,0 5.73,1.99 7.37,2.72 0.64,0.27 1,0.27 1.73,0.63 6.46,2.63 13.37,4.89 19.83,7.79 1.18,0.54 2.28,1 3.64,1.36 1.18,0.54 2.36,1 3.64,1.54 4.19,1.9 15.01,5.89 19.92,7.88 0.73,0.36 1,0.36 1.73,0.64 3,1.27 6.1,2.45 9.19,3.62 0.64,0.27 1,0.45 1.73,0.72 22.11,8.79 44.4,17.67 66.59,26.37 0.73,0.36 1.09,0.54 1.91,0.81 4.82,1.63 9.55,3.81 14.37,5.62 0.64,0.27 1.09,0.64 1.82,0.82 19.74,7.88 39.58,15.86 59.32,23.74 0.82,0.36 1,0.36 1.82,0.81 2.55,1 14.56,5.53 15.83,6.43 0.64,-0.45 1.36,-1.45 1.91,-2.08 16.38,-19.93 32.84,-39.87 49.31,-59.9 2.37,-2.99 2.27,-3.81 6.28,-5.26 9.82,-3.35 19.56,-7.16 29.38,-10.42 10.74,-3.72 21.29,-8.07 32.11,-11.69 1,-0.27 1.91,-0.72 2.91,-1 3.18,-1.18 16.47,-5.53 18.38,-6.89 -0.82,-1.63 -0.64,-3.53 -1.09,-5.26 -0.09,-0.81 -0.09,-1.18 -0.27,-1.81 -4.55,-24.92 -8.92,-49.84 -13.37,-74.76 -0.09,-0.54 -0.27,-0.91 -0.36,-1.54 -0.18,-0.82 -0.09,-0.91 -0.27,-1.81 -3.18,-17.31 -6.37,-34.8 -9.46,-52.19 -0.18,-0.72 -0.18,-0.91 -0.36,-1.63 -0.18,-0.81 -0.09,-1 -0.27,-1.72 -0.09,-0.72 -0.18,-1.09 -0.27,-1.81 -0.73,-3.35 -1.36,-6.8 -2,-10.33 -0.09,-0.72 -0.09,-1.09 -0.18,-1.81 -0.18,-0.72 -0.27,-1.09 -0.36,-1.72 -0.09,-0.72 -0.27,-1.18 -0.36,-1.81 -0.18,-0.72 -0.18,-0.91 -0.27,-1.54 -0.73,-3.44 -1.36,-6.89 -2,-10.42 -0.09,-0.64 -0.09,-1.09 -0.27,-1.81 -0.18,-0.73 -0.09,-1 -0.27,-1.81 -0.18,-0.64 -0.18,-1.09 -0.27,-1.72 -1.36,-8.34 -3.64,-17.67 -4.82,-25.82 -0.45,-2.9 -1,-5.8 -1.55,-8.7 -0.09,-0.54 -0.18,-1 -0.36,-1.72 -0.09,-0.73 -0.09,-1 -0.27,-1.81 -0.18,-0.64 -0.18,-0.91 -0.27,-1.54 -0.18,-1.54 -1.46,-5.62 -1.18,-6.89 0,0 0,0 0.09,-0.09 3.18,1.36 9.55,4.8 12.92,6.62 10.37,5.35 20.83,10.6 31.21,15.95 7.28,3.72 14.83,7.34 22.2,11.15 12.19,6.25 24.38,12.5 36.48,18.67 14.46,7.79 29.57,14.77 44.03,22.56 1.36,0.81 2.64,1.27 3.82,1.9 1.27,0.72 2.27,1.18 3.55,1.99 3.64,1.81 7.28,3.72 11.01,5.53 1.27,0.72 2.55,1.27 3.73,1.9 12.01,6.52 24.38,12.41 36.48,18.85 6.19,3.35 5.73,2.36 10.74,7.07 5.73,5.62 11.56,11.05 17.29,16.58 18.38,17.31 36.75,35.34 55.13,52.83 2.37,2.17 4.73,4.62 7.01,6.7 3.55,3.08 6.73,6.8 10.28,9.97 1.09,1.18 2.09,2.17 3.37,3.26 2.18,2.17 4.64,4.44 6.82,6.61 1.09,1.09 2.46,2.27 3.55,3.44 5.73,5.53 11.37,11.05 17.1,16.49 2.46,2.18 4.37,4.53 6.82,6.71 4.82,4.35 4.64,5.53 10.37,8.88 26.47,15.31 52.86,30.45 79.24,45.67 7.09,4.08 14.37,8.07 21.47,12.32 5,3.17 3.37,1.9 6.46,8.7 0.36,0.72 0.54,1.09 0.91,1.99 0.64,1.27 1.18,2.81 1.82,3.99 0.46,0.91 0.46,1.27 0.91,2.17 0.27,0.54 0.64,1.27 1,2.09 2.73,6.34 5.64,12.6 8.46,18.94 0.27,0.82 0.46,1.18 0.82,2.08 0.64,1.27 1.27,2.72 1.82,4.08 1.91,4.17 3.73,8.34 5.55,12.5 0.46,0.82 0.46,1.18 0.91,2.09 1.46,3.44 3,6.89 4.64,10.33 2.55,5.53 4.82,11.24 7.28,16.76 6.19,13.86 12.37,27.82 18.47,41.68 4.73,10.33 9.01,21.11 13.74,31.53 2.73,6.25 5.55,12.6 8.28,18.85 0.64,1.45 1.18,2.72 1.73,4.17 2.73,6.25 5.37,12.41 8.19,18.58 0.91,1.81 0.27,4.08 0.18,6.07 -0.18,2.54 -0.73,5.16 -0.73,7.7 -0.18,2.63 -0.45,5.26 -0.55,7.88 0,2.81 -1.09,10.33 -1,13.59 -0.09,2.54 -0.64,5.07 -0.73,7.61 0,0.91 0,1 -0.18,1.9 -0.45,6.52 -1,12.87 -1.36,19.39 -0.09,0.54 -0.09,0.36 -0.09,1 -0.45,6.25 -1,12.41 -1.27,18.67 -0.18,2.99 -0.91,8.88 -1.09,12.5 -0.09,1 -0.09,1.99 -0.18,2.9 0.09,2.72 -0.45,5.26 -0.64,7.7 -0.27,2.9 -0.18,7.07 -0.64,9.88 -0.45,3.9 -0.73,7.79 -1,11.69 0,0.91 0,1.09 -0.09,1.9 -0.45,5.26 -0.82,10.42 -1.18,15.68 0,0.45 -0.09,0.54 -0.09,0.91 -0.09,0.54 0,0.63 0,1 0,0.82 -0.36,1.09 -0.91,1.72 -14.1,17.58 -28.2,35.07 -42.21,52.47 -0.82,1.27 -1.82,2.17 -2.73,3.44 -11.28,13.86 -22.11,28.18 -33.48,41.86 -2.55,2.99 -3.18,3.99 -6.1,6.71 -3.91,3.35 -7.73,6.8 -11.55,10.06 -3.64,3.08 -7.64,6.89 -11.37,9.97 -6.37,5.26 -12.28,11.33 -18.83,16.4 -1.36,1.09 -2.46,2.36 -3.91,3.26 -2.09,1.54 -14.28,7.88 -17.2,9.33 -1.55,0.64 -3.18,1.63 -4.55,2.26 -6.73,3.44 -31.21,17.13 -34.48,18.4 -2.82,0.91 -5.55,1.81 -8.28,2.72 -11.1,3.62 -22.47,7.16 -33.48,10.96 -9.82,3.26 -19.56,6.43 -29.29,9.61 -2.91,0.91 -5.46,1.81 -8.19,2.72 -8.46,2.99 -16.74,5.26 -25.2,8.16 -2.73,1 -5.37,1.81 -8.19,2.81 -2.64,0.91 -14.65,5.07 -16.65,5.44 -1.09,0.09 -10.01,-1.81 -11.83,-2.45 -0.73,-0.27 -1,-0.09 -1.91,-0.36 -3.91,-0.82 -7.82,-1.72 -11.65,-2.54 -0.82,-0.27 -0.91,-0.36 -1.82,-0.54 -0.91,-0.18 -1.18,-0.27 -2.09,-0.45 -1.27,-0.18 -2.55,-0.45 -3.82,-0.73 -0.82,-0.18 -1.09,-0.45 -1.91,-0.54 -1.36,-0.27 -2.55,-0.54 -3.91,-0.82 -0.82,-0.18 -1.09,-0.27 -2,-0.54 -1.27,-0.18 -2.55,-0.45 -3.82,-0.72 -0.82,-0.18 -0.91,-0.36 -1.82,-0.54 -0.91,0 -1.09,-0.18 -2,-0.36 -0.73,-0.18 -1.18,-0.18 -1.91,-0.45 -3.27,-0.63 -6.46,-1.45 -9.73,-2.17 -3.64,-0.73 -7.91,-1.99 -11.46,-2.54 -10.28,-2.26 -20.65,-4.44 -30.93,-6.79 -0.91,-0.18 -1.09,-0.36 -1.82,-0.45 -2,-0.45 -4,-0.91 -5.91,-1.45 -0.82,-0.09 -1.09,-0.09 -1.91,-0.36 -0.91,-0.18 -1.27,-0.18 -2,-0.36 -0.91,-0.18 -1,-0.36 -1.82,-0.45 -3.27,-0.72 -6.64,-1.45 -9.73,-2.08 -0.91,-0.27 -1.09,-0.36 -2,-0.45 -1,-0.18 -1.18,-0.36 -2,-0.54 -1.91,-0.36 -3.82,-0.81 -5.73,-1.27 -0.82,-0.18 -1,-0.09 -1.91,-0.45 -1.36,-0.27 -2.64,-0.54 -3.82,-0.81 -0.91,-0.18 -1.09,-0.18 -2.09,-0.45 -2,-0.36 -3.91,-0.82 -5.73,-1.36 -5.73,-1.36 -4,-0.09 -9.46,-4.17 -8.28,-6.43 -17.01,-12.41 -25.38,-18.76 -11.92,-9.15 -24.29,-17.94 -36.39,-26.91 -8.46,-6.34 -17.28,-12.41 -25.65,-18.85 -6,-4.53 -12.28,-8.79 -18.2,-13.41 -2.55,-1.63 -4.91,-3.44 -7.28,-5.26 -1.36,-0.91 -2.46,-1.9 -3.82,-2.81 -1.27,-0.82 -2.46,-1.72 -3.64,-2.63 -9.55,-7.25 -19.47,-14.22 -29.2,-21.29 -6.1,-4.35 -12.28,-8.88 -18.29,-13.23 -1.27,-0.91 -2.36,-1.72 -3.64,-2.72 -1.36,-0.91 -6.73,-4.53 -7.19,-5.62 -1.82,-5.17 -3.64,-10.24 -5.37,-15.31 -0.36,-1.27 -0.82,-2.63 -1.27,-3.9 -0.27,-0.63 -0.46,-1.27 -0.64,-1.99 -2.09,-5.71 -4,-11.51 -6,-17.22 -0.36,-1.36 -0.91,-2.45 -1.36,-3.9 -2.46,-7.7 -5.46,-15.31 -7.91,-23.02 -4.55,-12.87 -9.01,-25.64 -13.37,-38.51 -2.19,-6.43 -3.82,-7.7 -7.92,-13.77 -4.46,-6.71 -9.64,-13.5 -13.92,-20.39 -1,-1.36 -1.91,-2.63 -2.82,-3.9 -0.27,-0.63 -0.73,-1.27 -1.27,-1.99 -3.27,-4.71 -6.55,-9.51 -9.83,-14.23 -0.45,-0.63 -0.82,-1.18 -1.36,-1.99 -3.73,-5.26 -7.46,-10.6 -11.19,-16.13 -0.27,-0.45 -0.91,-1.36 -1.36,-1.99 -2.18,-3.35 -4.73,-6.62 -7,-10.06 -3.64,-5.8 -12.46,-17.94 -16.74,-24.1 -1,-1.36 -1.91,-2.72 -2.82,-4.08 -4.82,-6.89 -10.83,-15.04 -15.37,-22.02 -0.27,-0.64 -0.82,-1.18 -1.27,-2 -0.91,-1.27 -1.91,-2.54 -2.82,-3.9 -4.28,-5.98 -8.55,-12.14 -12.74,-18.21 -0.91,-1.36 -2.55,-7.7 -3.18,-9.51 -2,-6.25 -4,-12.5 -6,-18.85 -0.45,-1.36 -0.73,-2.45 -1.18,-3.9 -0.55,-1.36 -0.91,-2.45 -1.18,-3.72 -0.46,-1.36 -0.82,-2.54 -1.27,-3.81 -4.28,-12.5 -7.73,-25.19 -12.1,-37.79 -4.82,-15.04 -9.64,-30.17 -14.46,-45.31 -3.73,-11.33 -7.1,-22.65 -11.01,-33.89 -3,-8.79 -5.55,-17.76 -8.46,-26.46 -2.91,-8.61 -5.64,-17.4 -8.46,-26.1zm550.77 629.31c-0.27,-0.54 -0.27,-0.63 -0.27,-1.09 0,-0.09 0,-0.45 0,-0.54 0,-0.72 -0.09,-0.27 0.09,-0.72 -0.36,-0.73 -0.09,0.09 -0.18,-0.54 -0.18,-0.72 0.09,-0.45 0.09,-0.54 -0.18,-0.27 -0.27,-0.54 -0.27,-0.81 0,-0.91 0,-0.36 0.27,-0.73 -0.18,-0.09 -0.27,-0.27 -0.36,-0.36 -0.18,-0.82 0,-0.09 0.18,-0.54 -0.54,-1.09 -0.73,-6.43 -0.82,-7.61 -1.27,-17.4 -2.73,-34.98 -4.19,-52.47 0,-0.27 -0.09,-0.54 -0.09,-0.91 0,-0.36 0,-0.73 0.18,-1.09 -0.27,-0.54 -0.09,0.09 -0.27,-0.63 -0.09,-0.27 -0.09,-0.45 -0.09,-0.73 -0.09,-1.54 -0.18,-3.08 -0.27,-4.8 0.27,0.09 0.45,0.09 0.82,0 0.45,-0.09 0.45,-0.09 0.82,-0.18 0.82,0.09 0.36,0 0.82,0.18 0.91,-0.36 1.73,-0.18 3.18,-0.27 0.82,0 2.37,-0.36 3.09,0 1.55,-0.45 46.49,-2.36 46.94,-2.27 1.27,-0.18 9.46,-0.63 10.19,-0.36 1.09,-0.27 1.64,-0.27 2.82,-0.27 1.55,-0.09 1.27,0.09 2.64,1.18 1.18,0.81 4.09,2.72 5,3.72 0.27,0.09 0.18,0 0.55,0.18 10.55,7.88 21.11,15.49 31.84,23.2 0.91,0.72 4,2.81 4.64,3.62 0.27,0.18 0.54,0.27 0.82,0.36 0.64,0.36 1.82,1.27 2.28,1.9 0.27,0.18 0.18,0 0.64,0.27 0.09,0.09 0.36,0.18 0.46,0.36 0.73,0.45 0.64,0.36 1.18,1.09 0.64,0.09 -0.09,-0.18 0.54,0.18 0.09,0 0.46,0.27 0.55,0.27 0.36,0.36 0.82,0.64 1.27,1.09 1,0.81 2,1.63 3.09,2.36 0.91,0.63 1.73,1.27 2.73,1.81 -1.27,0.45 -2.73,0.82 -3.91,1.18 -1.55,0.54 -3.09,1.09 -4.55,1.54 -5.18,1.99 -20.74,6.98 -26.11,8.7 -26.2,8.52 -52.4,17.04 -78.33,25.46 -0.82,0.72 -2.55,1.18 -3.37,1.18 -1,0.36 -2,0.73 -2.91,1.09 -0.45,0.18 -0.91,0.36 -1.36,0.45 -0.36,-0.63 -0.27,-1 -0.36,-1.9 -0.09,-0.54 -0.18,-1 -0.09,-1.54 0,-0.36 0,-0.36 0.09,-0.45zm77.15 -81.46c1.27,-0.73 15.65,-5.62 17.47,-6.25 17.47,-6.25 35.03,-12.69 52.68,-19.03 13.46,-15.86 27.02,-31.9 40.67,-47.94 0.91,-1.27 1.82,-2.26 2.82,-3.44 0.82,-1 2.19,-2.9 3.28,-3.53 0.09,-0.63 3,-3.99 3.82,-4.53 0.46,0.81 1.55,3.53 1.91,4.53 0.27,0.73 0.73,1.27 0.91,2.27 0.46,0.72 0.82,1.72 1,2.45 0.18,0.27 0.27,0.36 0.36,0.72 0.09,0.09 0.18,0.27 0.18,0.36 0.18,0.72 0.09,0.36 0.09,0.63 0.73,0.81 3.55,8.43 4.28,9.88 2.82,6.8 5.55,13.32 8.28,19.93 0.55,1.18 4,8.88 4,10.24 0.64,0.45 1.82,3.53 2,4.35 0.54,0.91 0.73,1.81 1.27,2.81 0.09,0.54 0.36,1.18 0.73,1.81 0.18,0.63 0.36,1.27 0.64,1.9 -0.27,0.18 -0.54,0.27 -0.73,0.36 -0.09,0.45 0.18,0.09 -0.18,0.54 -1.64,1.45 -3.28,2.9 -4.82,4.26 -8.01,7.43 -19.38,16.13 -27.2,23.47 -3.64,3.17 -7.28,6.43 -10.92,9.51 -4.18,2.36 -8.55,4.62 -12.74,6.89 -4.28,2.08 -8.83,4.53 -12.83,6.8 -6.46,3.44 -12.83,6.89 -19.29,10.33 -1.46,0.63 -5.73,3.26 -6.46,3.08 -0.64,0.73 0,0.54 -2.09,-0.91 -1.36,-0.91 -0.91,-0.27 -2.46,-1.54 -0.82,-0.45 -1.64,-1.09 -2.46,-1.63 -1.46,-1.09 -3,-2.17 -4.55,-3.35 -12.1,-8.79 -24.2,-17.49 -36.3,-26.28 -0.45,-0.45 -1,-0.82 -1.46,-1.27 -0.55,-0.36 -1.09,-0.63 -1.55,-1 -0.64,-0.36 -1.18,-0.81 -1.64,-1.27 -1.55,-1 -2.91,-2.09 -4.37,-3.08 0.82,-0.54 5,-1.99 5.64,-2.08zm95.34 -82.19c-2.73,2.26 -5.37,4.89 -7.91,7.34 -1.73,1.45 -6.73,6.62 -8.37,7.34 -0.27,1 -5.19,5.26 -5.82,5.8 -2.91,2.63 -16.92,15.86 -18.38,16.94 -1.55,1.09 -30.11,15.04 -30.39,15.13 -3.73,1.9 -7.28,3.53 -10.74,5.35 -1.64,0.82 -3.55,1.72 -5.28,2.54 -1.27,0.72 -2.55,1.36 -3.82,1.9 -0.91,0.45 -0.45,0.54 -1.36,0.36 -1,1 -12.56,6.62 -13.92,6.89 -2.09,0.45 -4.19,0.81 -6.64,1.18 -2.09,0.36 -4.46,1 -6.55,1.27 0.82,-0.63 8.73,-2.81 10.74,-3.26 5.55,-1.72 4,-1.72 9.28,-6.61 1.82,-1.72 16.1,-15.77 17.19,-16.4 0.82,-1.18 2.27,-2.27 3.37,-3.35 7.82,-7.52 15.65,-15.04 23.56,-22.65 10.01,-4.71 20.01,-9.42 30.11,-14.23 1.46,-0.81 3.18,-1.72 4.46,-2.26 9.46,-4.35 18.83,-8.79 28.38,-13.32 3.46,-1.72 7.92,-11.05 10.46,-12.78 -2.28,3.9 -4.64,7.88 -6.73,11.69 -0.82,1.27 -10.01,9.79 -11.65,11.15zm-78.78 63.7c1.27,-0.82 3.64,-1.9 5.18,-2.72 12.28,-5.98 24.47,-11.96 36.85,-18.12 1.27,-0.81 3.09,-2.81 4.28,-3.81 9.92,-9.24 19.83,-18.3 29.75,-27.64 6.46,-5.89 13.01,-11.96 19.47,-18.03 3.82,-6.62 7.64,-13.23 11.46,-19.84 0.64,-1.09 2.46,-4.71 3.46,-5.62 -0.91,2.27 -1.73,4.53 -2.55,6.71 -0.82,2.26 -1.82,4.53 -2.64,6.89 -0.91,2.26 -1.82,4.35 -2.73,6.71 -0.73,1.99 -3.37,4.71 -4.82,6.52 -7.19,8.61 -14.55,16.86 -21.56,25.37 -3.73,4.26 -26.29,31.35 -26.93,31.53 -3.37,1.27 -6.73,2.54 -10.01,3.72 -6.64,2.45 -13.83,4.8 -20.2,7.25 -0.82,0.27 -9.28,3.53 -10.37,3.53 -5.46,1.99 -10.74,3.99 -16.01,5.98 -3.37,1.09 -19.38,7.07 -22.2,7.79 -8.37,0.45 -16.74,0.91 -25.11,1.18 9.37,-2.08 21.11,-3.53 30.02,-5.44 1.18,-0.27 23.02,-11.05 24.65,-11.96zm-92.07 12.59c0.27,-0.45 0.54,-0.81 0.82,-1.27 0.36,-0.54 0.82,-1.09 1.27,-1.72 0.18,-0.18 0.36,-0.36 0.54,-0.73 1.18,-1.72 2.37,-3.53 3.64,-5.25 8.28,-11.87 16.56,-23.74 24.93,-35.61 4.37,-6.25 2.37,-5.44 7.73,-4.62 0.27,0.09 0.55,0.09 0.82,0.18 0.55,0.09 0.27,0.09 0.64,0.18 0.82,-0.09 1,0 1.91,0.18 8.46,1.36 17.01,2.63 25.47,3.99 0.73,0.09 1.18,0.09 2,0.27 0.91,0.09 1.27,0.09 2.09,0.45 0.27,-0.09 0.09,-0.18 0.64,-0.09 3.55,0.27 1.46,0.27 6.82,-1.36 2.64,-0.72 5.09,-1.54 7.73,-2.26 0.73,-0.18 1.55,-0.36 2.36,-0.72 0.36,-0.18 10.92,-3.62 11.92,-3.53 -0.46,0.81 -5.91,5.98 -6.92,6.43 0,0.64 0.27,-0.09 -0.09,0.54 -0.09,0.09 -0.54,0.36 -0.64,0.54 -0.64,0.63 -0.64,0.72 -1.55,1.18 -0.18,0.72 -1.36,1.63 -2,2.17 -0.82,0.81 -1.36,1.45 -2.27,2.17 -1,1.36 -3.37,3.17 -4.73,4.53 -1.73,1.72 -3.27,3.17 -4.91,4.8 -1.64,1.63 -3.09,2.99 -4.73,4.62 -1.27,1.09 -4,3.99 -5.1,4.62 -0.36,0.73 -3.27,3.35 -4,3.99 -1.91,1.9 -1.73,2.09 -4.37,2.72 -16.56,4.8 -33.02,9.51 -49.58,14.32 -0.64,0.18 -1,0.36 -1.64,0.54 -0.27,0.09 -0.64,0.09 -0.82,0.18 -1.18,0.18 -0.36,0 -0.91,0 -0.55,0.45 -1,0.54 -1.82,0.73 -0.36,0.18 -0.46,0.18 -0.91,0.27 -0.91,0.36 -0.54,0.27 -1.18,0.09 -0.91,0.72 -5.19,1.9 -6.28,1.99 0.18,-0.72 0.82,-1.36 1.36,-2.26 0.55,-0.64 1,-1.45 1.73,-2.27zm209.97 -139.18c-0.09,0.45 0.09,0.09 -0.18,0.82 -0.09,0.27 -0.27,0.36 -0.54,0.54 -0.46,0.73 -0.36,0.82 -1.09,1.18 -0.18,0.36 -0.36,0.63 -0.46,0.91 -0.18,0.54 -0.36,0.73 -0.82,1.09 -7.91,10.69 -15.65,21.29 -23.38,31.9 -1.82,2.45 -6.37,8.97 -8.19,10.87 -5.09,2.45 -10.19,4.8 -15.19,7.16 -0.45,0.18 -18.1,9.06 -19.2,8.97 -0.82,0.63 -1.09,0.63 -2,1.09 -0.82,0.45 -1.64,0.82 -2.37,0.91 -0.82,0.72 -2.55,1.36 -2.64,1.36 -0.18,0.09 -0.27,0.09 -0.27,0 -0.91,0.91 -7.46,3.9 -8.83,4.44 0.18,-0.73 1.09,-1.72 1.64,-2.54 2,-2.63 3.91,-5.16 6,-7.61 0.27,-0.45 0.64,-1 1,-1.54 1.46,-1.81 2.82,-3.72 4.37,-5.71 0.82,-1 1.55,-2.08 2.46,-3.26 1.27,-1.54 0.82,-2.08 1.46,-3.26 -0.27,-1.45 0.45,-5.62 0.73,-7.25 0.18,-1.27 0.45,-2.36 0.64,-3.53 0.73,-3.17 2,-16.58 2.73,-18.12 0.18,-1.9 0.36,-3.81 0.64,-5.62 16.83,-4.62 33.75,-9.24 50.58,-13.86 2.09,-0.45 4.09,-1 6.1,-1.54 0.54,-0.18 1,-0.27 1.55,-0.45 0.45,-0.18 1.09,-0.27 1.73,-0.45 0.45,-0.09 0.82,-0.27 1.36,-0.45 2.18,-0.54 4.28,-1.09 6.55,-1.81 -0.27,0.91 -3.37,5.26 -4.37,5.8zm-178.04 77.75c-0.64,-0.91 -1.36,-2.08 -1.91,-3.08 -1.64,-1.99 -3.91,-6.34 -5.55,-8.79 -1.55,-2.45 -3.09,-4.98 -4.55,-7.43 -1.09,-1.54 -1.91,-3.08 -2.82,-4.53 -0.64,-0.91 -2.82,-3.99 -2.64,-4.71 -0.64,-0.45 -2,-2.36 -2.27,-3.08 -1.46,-2.45 -1.64,-1 1.27,-6.43 3.18,-5.98 6.46,-11.87 9.64,-17.85 1,-1.9 1.91,-3.9 3.27,-6.07 2.09,-3.9 0.73,-2.54 5.09,-5.62 11.55,-7.97 23.11,-15.86 34.66,-23.83 3,-2.08 6.19,-1.81 11.01,-2.72 2.37,-0.45 4.91,-0.81 7.1,-1.18 1.27,-0.09 2.27,-0.36 3.55,-0.54 1.27,-0.18 2.36,-0.45 3.64,-0.63 4.91,-0.72 9.82,-1.54 14.65,-2.36 0.45,0.54 1.09,1.09 1.64,1.63 1,1.09 2,1.99 3.09,2.9 1,1.27 2.46,1.99 3.37,3.62 0.45,-0.18 2.91,2.54 3.55,2.99 1,1.18 2.36,2.36 3.55,3.44 1.09,1.18 2.28,2.26 3.46,3.35 1.46,1.36 6.28,5.71 7.1,7.25 0.73,-0.09 1,0.54 1.64,1.09 0.54,0.54 1,1.09 1.64,1.72 1.55,1.54 3.18,3.08 4.73,4.53 -1.09,7.43 -2.18,14.77 -3.18,22.2 0.09,0.63 0,0.72 -0.09,1.63 -0.54,2.99 -0.91,6.16 -1.36,9.15 -0.27,1.9 0,1.9 -1.27,3.62 -1.73,2.36 -3.27,4.44 -5,6.62 -1,1.27 -4.37,5.98 -5.46,6.7 -0.09,1.09 -2,2.99 -2.73,3.99 -1.09,1.45 -2.09,2.81 -3.18,3.99 -0.82,1.36 -5.55,7.7 -6.1,8.06 -0.55,0.18 -1.91,0.64 -2.55,0.73 -5.09,1.63 -10.28,3.26 -15.37,4.8 -1.18,0.27 -1.73,0.64 -2.73,0.45 -0.36,0.54 -14.74,5.07 -17.01,5.53 -1.09,0.36 -11.46,-1.45 -14.1,-1.9 -0.82,-0.18 -1.36,-0.09 -1.91,-0.54 -1.55,0.27 -3.91,-0.36 -5.64,-0.63 -5.64,-0.82 -11.19,-1.63 -16.74,-2.54 -1.18,-1.81 -2.37,-3.63 -3.46,-5.53zm284.76 -197.9c0.27,0.54 0.18,0.09 0.27,0.81 0,0 0,0.27 0,0.27 -0.18,0.64 0,0 -0.18,0.36 0,0.36 0.09,0.27 0,0.81 0,0.63 0,0.36 -0.18,0.82 0.09,0.36 0.09,0.54 0.09,1.09 0,0.27 0,0.45 0,0.73 -0.27,0.63 -0.18,0.36 -0.36,0.72 0.45,0.81 0,3.08 0,3.99 -3.18,41.41 -6.28,82.73 -9.46,124.05 0,0.54 0,0.54 -0.18,1.09 -1.09,-0.54 -2.91,-0.91 -3.64,-1.54 -0.27,0 -0.45,-0.09 -0.64,-0.09 -0.09,0 -0.18,-0.09 -0.27,-0.09 -0.91,-0.27 -1.91,-0.64 -2.82,-1.09 -1.46,-0.45 -2.73,-0.82 -4,-1.36 -10.92,-3.72 -21.74,-7.43 -32.66,-11.24 -2.46,-0.91 -31.39,-10.69 -32.93,-11.6 -0.73,0 -2.91,-0.81 -3.73,-1.09 -0.82,-0.36 -0.73,-0.54 -1,-1.36 -0.18,-0.63 -0.45,-1.45 -0.45,-1.99 -0.27,-0.36 -0.46,-0.91 -0.64,-1.45 -0.18,-0.45 -0.27,-0.81 -0.27,-1.27 -0.27,-0.45 -0.45,-0.73 -0.64,-1.09 -0.18,-0.45 -0.09,-0.18 -0.18,-0.54 0,-0.36 0.09,-0.18 0.09,-0.54 -0.64,-0.72 -0.55,-1 -0.82,-1.63 -0.09,-0.36 -0.18,-0.54 -0.27,-1 -0.27,-1 -0.18,-0.45 0,-0.91 -0.73,-0.72 -19.92,-57.81 -22.02,-63.97 -2.46,-7.07 -4.82,-14.05 -7.19,-21.2 -0.27,-0.72 -0.36,-1.27 -0.73,-2.08 -0.27,-0.81 -0.64,-1.36 -0.45,-2.17 -0.45,-0.45 -0.36,-0.36 -0.64,-0.91 -0.09,-0.36 -0.09,-0.27 -0.18,-0.54 -0.09,-0.91 0.09,-0.18 0,-0.72 -0.46,-0.54 -0.73,-0.73 -0.36,-1.45 1,-0.82 1.73,-1.63 2.45,-2.45 0.73,-1 1,-1.9 1.55,-2.81 0.91,0.09 2.09,-0.18 2.91,0.09 1.09,0.09 2.09,0.09 3.18,0 1.36,-0.27 4.91,-0.09 6.55,-0.09 2.28,0.09 4.64,0.18 6.82,0.09 2.28,0 4.28,0 6.37,0 28.66,0.09 57.32,0.18 85.97,0.18 1.64,0 3.27,0 5,0.09 0.45,-0.09 0.27,-0.18 0.82,0.09 0.73,-0.27 0.36,-0.36 0.91,-0.09 0.45,0 0.91,-0.09 1.27,-0.18 0.73,0.09 0.55,0 1,0.18 1,-0.09 1.36,-0.09 2.18,0 0,0.36 -0.09,0.91 -0.18,1.45 0,1 0.18,0.91 -0.36,1.63zm-467.99 317.78c0,-0.27 0.09,-0.63 0.18,-1.09 0.09,-0.27 0.27,-0.72 0.45,-1.09 0.09,-0.36 0.18,-0.82 0.27,-1.18 0.18,-0.72 0.45,-1.36 0.73,-2.08 -0.18,-0.27 -0.18,0.36 -0.09,-0.27 0,-0.18 0.09,-0.45 0.18,-0.73 0.18,-0.63 0.18,-0.63 0.64,-1.18 -0.18,-0.73 2.82,-10.06 3.18,-11.33 3.64,-11.24 7.01,-23.29 10.46,-34.61 3.55,-11.51 7.01,-22.93 10.55,-34.43 0.54,-1.99 3.09,-10.69 3.73,-11.6 -0.18,-0.64 0,-0.73 0.18,-1.45 0.18,-0.73 0.27,-1.09 0.64,-1.63 0.27,-1.09 0.54,-1.99 0.82,-3.17 2.64,-0.18 3.46,-0.27 6.19,-1.72 0.73,-0.36 0.45,-0.36 1.09,-0.09 0.55,0.18 0.73,0.54 1.09,0.91 0.64,0.36 1.27,0.72 1.91,1.09 0.73,0.45 1.36,0.91 2.18,1.45 1.18,0.27 45.03,28.27 52.4,32.53 6.82,4.35 13.74,8.7 20.74,12.96 3.55,2.36 7.1,4.44 10.64,6.71 0.82,0.45 1.36,0.81 1.91,1.54 0.64,0.09 -0.09,-0.36 1,0.27 0.64,0.27 0.64,0.45 1.09,0.81 0.46,0.45 0.91,0.73 1.46,1 0.36,0.27 0.91,0.45 1.46,0.72 2.36,1.54 1.64,0.64 2.18,5.53 -0.09,0.45 -0.18,1 -0.18,1.45 0.46,0.82 0.73,6.34 0.82,7.61 1.46,17.94 2.91,35.7 4.18,53.37 0.18,0.91 0.36,1.36 0.09,2.26 0.37,0.54 0.27,0.82 0.37,1.63 0.09,0.73 0.27,1.27 -0.09,1.81 0.36,0.91 0.36,1.18 0.36,1.9 0.09,0.64 0.18,1.18 -0.09,1.63 0.36,0.91 0.55,2.72 0.36,3.53 -1.18,0 -53.49,-11.87 -59.04,-13.05 -2.91,-0.63 -5.55,-1.27 -8.64,-1.99 -10.64,-2.08 -22.84,-5.17 -33.66,-7.43 -11.37,-2.54 -22.74,-5.07 -34.02,-7.61 -0.82,-0.18 -1.55,-0.27 -2.27,-0.45 -0.55,-0.18 -1.09,-0.27 -1.64,-0.45 -0.36,0.09 -0.27,0.09 -0.82,0 -0.91,-0.18 -0.73,-0.18 -1.46,-0.54 -0.73,0.18 -1.46,-0.09 -2.09,-0.36 0.27,-0.64 0.18,-0.45 0.54,-1.18zm335.52 -312.07c0.36,1.09 0.73,2.26 1.09,3.44 0.18,0.54 0.36,1 0.54,1.45 0.18,0.72 0.36,1.09 0.64,1.54 0.27,0.81 0.64,1.27 0.64,1.99 4.91,14.41 9.82,28.82 14.74,43.22 1.18,3.62 2.46,7.07 3.64,10.69 0.55,1.81 1.18,3.62 1.82,5.44 1.82,5.44 3.55,10.69 5.37,16.04 0.55,1.81 1.27,3.53 1.91,5.44 0.54,1.9 1,3.72 1.64,5.62 0.64,0.54 0.64,0.91 0.64,1.54 0.55,1.45 1,2.81 1.46,4.08 0.09,0.36 0,0.36 0,0.54 -0.18,0.09 -0.27,0.09 -0.45,0.09 -0.45,0.09 -0.91,0.18 -1.36,0.36 -1.09,0.27 -7.64,2.36 -9.1,2.36 -0.64,0.54 -0.91,0.45 -1.82,0.73 -0.27,0.09 -0.73,0.09 -1.09,0.18 -1.18,0.27 -0.27,0.18 -0.91,0 -1.09,0.91 -45.67,12.69 -51.86,14.5 -0.82,0.27 -1.73,0.45 -2.55,0.72 -1,0.09 -0.36,0.09 -0.91,0 -1.09,0.64 -2.82,1.18 -4.09,1.18 -1,-0.91 -2,-1.9 -2.82,-2.81 -0.91,-0.82 -1.73,-1.45 -2.46,-2.36 -0.73,-0.54 -1.46,-1.09 -2,-1.72 -6.64,-6.43 -13.28,-12.87 -19.92,-19.3 -0.09,-0.09 -0.18,-0.18 -0.27,-0.27 -0.46,-0.36 -0.91,-0.72 -1.27,-1.09 -0.64,-0.54 -1.27,-1.27 -1.91,-1.81 -0.64,-0.73 -1.36,-1.36 -2,-1.99 0.45,-0.91 2,-2.9 2.91,-3.81 0.64,-1 1.27,-1.9 1.91,-2.81 14.55,-19.48 29.11,-39.15 43.76,-58.81 1.91,-2.54 14.01,-18.94 15.19,-19.66 0.09,-1 2.64,-4.17 3.37,-4.62 0.09,-0.45 0.45,-0.91 0.73,-1.36 0.46,-0.63 0.46,-0.81 1.18,-1.18 1.18,0.18 1.64,0.45 2.91,0.36 0.18,0.63 0.45,1.36 0.73,2.08zm-286.67 194.55c1.36,-1.09 79.42,-23.56 87.79,-26.1 1.91,-0.63 4.09,-1.27 6.28,-1.81 1,-0.45 5.28,-1.72 6.1,-1.81 2.64,-0.72 5.28,-1.63 8.01,-2.45 0.45,0.72 0.91,1.45 1.46,2.17 0.64,1.09 1.36,2.17 2,3.26 0.09,0.18 0.09,0.36 0.18,0.45 0.18,0.36 0.45,0.64 0.64,0.91 0.45,0.81 0.82,1.45 1.36,2.17 4.64,7.43 9.19,14.95 13.92,22.29 0.09,0.36 0.27,0.64 0.45,0.91 0.45,0.81 0.91,1.54 1.55,2.36 0.64,1.09 1.27,2.26 2,3.26 -0.82,1.09 -1.82,3.08 -2.91,3.81 0,0.27 0.09,0.09 -0.18,0.63 -0.09,0.27 -0.18,0.36 -0.36,0.73 -0.45,0.45 -0.82,0.81 -1,1.36 -4.55,6.52 -9.1,12.96 -13.65,19.3 -0.91,1.36 -14.74,21.57 -15.74,22.2 -0.09,0.54 0.27,-0.09 -0.36,0.91 -0.18,0.27 -0.45,0.54 -0.64,0.81 -0.54,0.73 -0.73,1.27 -1.55,1.81 -0.09,0.73 -0.27,0.82 -0.73,1.54 -1.09,1.54 -2.18,3.08 -3.37,4.53 -0.27,0.36 -0.55,0.72 -0.73,1.09 -0.18,0.27 -0.27,0.45 -0.36,0.64 -1.82,-1.18 -3.64,-2.27 -5.37,-3.44 -0.73,-0.45 -1.36,-0.91 -1.91,-1.18 -26.47,-16.49 -52.95,-32.98 -79.42,-49.38 -0.82,-0.45 -1.46,-1 -2.18,-1.45 -0.64,-0.45 -1.27,-0.81 -1.82,-1.09 -0.18,-0.18 -0.36,-0.27 -0.55,-0.45 -0.27,-0.09 -0.45,-0.18 -0.64,-0.36 -1,-0.63 -2.09,-1.36 -3.09,-1.9 -0.73,-0.36 -1.27,-0.72 -1.91,-1.18 0.09,-0.91 0.27,-1.81 0.36,-2.9 1.64,-0.45 3.18,-0.91 4.82,-1.45 0.73,-0.09 0.82,-0.27 1.55,-0.18zm70.14 -165.19c0.73,-0.09 1.91,0.45 2.45,0.64 0.36,-0.09 0,-0.09 0.73,-0.09 0.73,0.09 0.55,0.09 0.91,0.18 0.64,-0.18 -0.09,0 0.73,-0.18 0.27,0 0.55,0 0.82,-0.09 5.1,-0.81 6.92,-3.35 8.64,-6.79 0.09,-0.91 0,-0.45 0.27,-1.09 0,-0.54 0,-0.36 0,-1.09 0,-0.09 0,-0.45 0,-0.54 0.09,-0.27 0,-0.27 0.18,-0.45 -1.09,-3.81 -0.36,-3.53 -3.91,-7.52 0.36,-0.91 0.91,-1.81 1.36,-2.81 -0.09,-0.18 -0.09,-0.18 0,-0.54 0.09,-0.18 0.27,-0.36 0.36,-0.63 0.18,-0.54 0.27,-0.82 0.64,-1.45 0.46,-0.91 0.91,-1.81 1.36,-2.72 0,-0.54 3.46,-7.97 4.09,-9.15 0.73,-1.63 1.36,-2.99 2.09,-4.62 0.45,-1.09 1.55,-3.99 2.45,-4.53 -0.09,-0.63 -0.18,0 0,-0.81 0.09,-0.36 0.09,-0.45 0.18,-0.73 0.73,-1.18 1.27,-2.99 2.09,-4.08 0.73,0.81 1.46,1.72 2.27,2.45 0.82,0.91 1.73,1.72 2.55,2.45 0.36,0.36 0.73,0.72 1,1.09 0.64,0.64 1.27,1.27 2,1.9 0.73,0.82 1.46,1.63 2.27,2.45 7.28,7.07 14.47,14.23 21.65,21.39 7.28,7.34 14.56,14.77 21.92,21.93 10.55,10.24 22.02,22.11 32.75,32.8 2.27,2.26 9.55,9.15 10.92,11.33 0.46,-0.18 2.91,2.54 3.28,3.08 2.27,2.36 4.55,4.53 6.82,6.8 -1.64,0.18 -3.28,0.45 -5,0.72 -0.91,0.18 -1.73,0.27 -2.46,0.36 -8.64,1.45 -17.38,2.9 -26.02,4.26 -3.82,1.18 -1.36,0 -5.73,2.9 -12.46,8.7 -25.11,17.31 -37.57,25.83 -1.46,1 -1.18,1.27 -1.91,2.36 -4,7.25 -7.91,14.41 -11.74,21.66 -1.09,2.17 -2.18,4.26 -3.27,6.34 -0.91,-1.18 -4.18,-5.71 -4.18,-6.61 -0.55,-0.54 -1.09,-1.27 -1.55,-1.9 -0.64,-0.82 -1.09,-1.72 -1.55,-2.45 -6,-8.24 -11.46,-17.49 -17.19,-25.91 -5.82,-8.52 -11.37,-17.13 -17.19,-25.64 -11.37,-16.95 -22.74,-33.89 -34.03,-50.83 -0.36,-0.82 -0.09,-0.09 -0.18,-0.54 -0.45,-0.54 -0.91,-1.18 -1.36,-1.81 -0.18,-0.27 -0.54,-0.72 -0.64,-1 -0.18,-0.18 -0.27,-0.45 -0.36,-0.54 -0.27,-0.63 -0.18,-0.45 -0.18,-0.63 -0.64,-0.36 -1.46,-1.63 -1.82,-2.45 -0.91,-1.27 -1.91,-2.63 -2.82,-3.99 0.82,-0.36 3.64,-0.54 5.09,-0.63 0.91,-0.09 0.91,-0.27 1.73,0 0.91,-0.54 3.82,-0.54 5.09,-0.72 1.73,-0.27 3.46,-0.45 5.28,-0.54 1.55,-0.18 9.55,-1.18 10.37,-0.91 1.46,-0.18 3.09,-0.36 4.73,-0.54 1.73,-0.27 3.55,-0.54 5.46,-0.82 1.82,3.44 3.46,3.99 6.1,5.53zm-47.95 3.81c0.46,0.64 0.82,1.27 1.36,1.9 0.18,0.36 0.36,0.73 0.45,1 0.36,0.45 0.73,1 1.09,1.36 -0.09,0.09 -0.09,0.09 -0.09,0.09 3.82,5.53 7.55,11.05 11.28,16.58 21.11,31.62 42.21,63.25 63.32,94.96 1.55,2.63 3.37,5.25 5,7.79 -1.36,0.45 -2.73,0.81 -4.09,1.18 -36.48,10.87 -72.87,21.66 -109.26,32.35 -1.46,-1.72 -2,-1.9 -3.55,-3.08 -1.73,-0.36 -1.73,-1.09 -3.82,-0.91 -0.27,-0.54 -0.27,-0.18 -0.45,-0.91 -0.18,-1 -0.09,-0.27 0.09,-0.73 -0.18,-0.18 -0.27,-0.27 -0.36,-0.36 -0.45,-1.09 -0.09,-0.18 0,-0.72 -0.27,-0.27 -0.36,-0.36 -0.45,-1.18 -0.09,-0.36 0,-0.36 0,-0.54 -0.36,-0.54 -0.36,-0.18 0,-0.73 -0.36,-0.36 -0.36,-0.27 -0.45,-0.63 -0.37,-0.91 -0.09,-0.54 -0.09,-0.91 -0.45,-0.73 -0.36,-0.91 -0.64,-1.63 -0.09,-0.36 -0.18,-0.54 -0.18,-0.82 -0.09,-0.91 -0.09,-0.45 0,-0.91 -0.73,-1.18 -5.46,-21.39 -6.19,-24.38 -5.82,-23.29 -11.56,-46.58 -17.29,-69.86 -0.27,-0.91 -0.91,-2.08 -0.54,-2.99 -0.36,-0.54 -0.27,-0.36 -0.55,-1.09 -0.09,-0.36 -0.09,-0.27 -0.09,-0.63 0,-0.36 0,-0.18 0.09,-0.45 -0.73,-0.91 -0.91,-2.63 -1.18,-3.62 8.73,-6.34 18.65,-12.69 27.75,-18.85 3.18,-2.26 26.47,-18.48 27.93,-18.67 0.73,-0.91 1.91,-1.45 2.91,-2.26 1.82,-1.18 3.73,-2.45 5.64,-3.72 0.18,0.36 0.54,0.91 0.91,1.27 0.46,0.73 0.91,1.45 1.46,2.08zm82.43 -61.71c1.09,-0.63 1.82,-1.36 2.91,-1.72 0.64,-1.45 24.38,-17.31 27.84,-19.75 2.46,-1.72 26.02,-18.39 28.02,-19.48 1,0.54 2,1 2.91,1.45 1,0.27 2.46,1.09 3.55,1.63 0.82,0.45 3.09,1.27 3.64,1.99 23.74,11.69 47.4,23.38 71.23,35.07 0.91,0.45 1.91,0.91 2.82,1.36 3.09,1.63 16.2,7.79 17.1,8.79 0.82,-0.09 3.64,1.63 4.55,2.18 0.73,0.09 0.64,0 1,0.54 0.45,0 0.27,-0.45 0.54,0.36 0.82,0.09 -0.36,-0.45 0.82,0.18 0.55,0.27 0.46,0.18 0.82,0.63 0.82,0.09 -0.18,-0.27 0.91,0.18 0.46,0.18 0.36,0.18 0.64,0.63 0.27,0 0.55,0 0.91,0 0.64,1.18 0.18,0.54 0.27,2.45 -0.09,1 0.27,1.54 0.36,2.36 0.55,1.18 1.18,2.45 1.82,3.62 -17.1,22.74 -34.12,45.58 -50.95,68.32 -2.18,2.81 -16.38,22.11 -17.29,22.74 -1.09,-1 -2.18,-2.17 -3.27,-3.26 -1.09,-1 -2.09,-2.08 -3.09,-3.17 -1.18,-1.18 -2.37,-2.36 -3.46,-3.53 -30.93,-30.99 -61.95,-61.98 -92.98,-92.88 -0.55,-0.45 -1,-0.91 -1.46,-1.45 -0.18,-0.18 -0.36,-0.36 -0.46,-0.45 -0.45,-0.36 -0.82,-0.81 -1.27,-1.27 -0.82,-0.81 -1.55,-1.45 -2.37,-2.36 -0.45,-0.45 -1,-0.91 -1.36,-1.36 1.73,-1.27 3.55,-2.54 5.28,-3.81zm-311.14 195.45c-0.91,-0.91 -2.37,-2.08 -2.64,-3.26 0.64,-0.64 1.09,-0.27 3,0.18 1.55,0.27 8.64,1.27 9.64,1.99 1.18,-0.09 5.91,0.72 7.55,1.09 10.92,2.09 21.93,4.17 32.84,6.25 4,0.45 11.01,2.17 15.01,2.72 1.64,0.18 3.09,0.64 5.09,1 8.46,1.63 16.92,3.17 25.38,4.71 0.82,0.18 1.36,0.27 2.19,0.45 6.73,1.36 17.19,2.99 22.93,4.35 5.64,1.27 18.65,3.53 25.29,4.71 1.64,0.36 3.37,0.72 5.09,1 5,1 10.01,1.9 15.1,2.81 0.91,0.18 4.46,0.81 5,1.18 0.91,-0.18 0.55,-0.09 1.36,0.09 0.54,0.09 1,0.18 1.55,0.27 0.36,0 0.36,0 0.91,0.18 0,0 0.27,0 0.36,0.09 0.45,0.18 0.09,0 0.45,0.18 0.55,-0.18 0.27,-0.18 0.73,0.18 0.64,-0.09 -0.09,-0.18 0.82,0 0.27,0 0.46,0 0.73,0.18 0.18,0.54 0.27,1.18 0.55,1.72 0.82,1.72 1.09,2.17 2.37,3.81 0.73,0.54 1.36,1.09 2.09,1.54 -0.45,0.82 -0.36,1.45 -0.91,2.08 0,0.45 0,0.18 0,0.82 -0.36,0.81 -0.64,1.63 -0.91,2.45 -0.18,0.91 -0.54,2.26 -1,3.08 -9.83,32.62 -19.65,65.15 -29.48,97.59 -0.82,-0.18 -1.91,-1.09 -2.37,-1.81 -0.27,0 -0.18,0 -0.54,-0.18 -0.09,0 -0.45,-0.27 -0.55,-0.36 -0.45,-0.27 -0.73,-0.54 -1.18,-1 -1,-0.63 -2,-1.45 -3,-2.17 -16.83,-12.41 -33.66,-24.83 -50.4,-37.15 -2,-1.18 -3.46,-2.99 -5.19,-4.8 -9.46,-10.42 -19.1,-20.93 -28.48,-31.44 -16.19,-17.4 -32.11,-34.89 -48.22,-52.37 -1.18,-1.18 -2.27,-2.36 -3.37,-3.62 -0.73,-0.63 -1.27,-1.36 -1.91,-2.08 -0.91,-1 -1.82,-1.9 -2.82,-2.99 -0.18,-0.09 -0.36,-0.27 -0.46,-0.45 -0.91,-1 -1.82,-1.99 -2.64,-2.99zm-19.1 9.06c1.46,-2.72 3.27,-5.35 4.82,-7.88 2.27,0.63 3.27,0.09 4.91,0.18 0,0 0.09,0 0.18,0 0.46,-0.09 0.91,-0.27 1.36,-0.54 1.55,1.72 3.37,3.17 4.55,5.26 2.18,2.36 4.46,4.71 6.82,7.07 2.18,1.99 4.37,4.89 6.55,7.25 4.64,4.44 8.83,9.69 13.37,14.41 4.37,4.62 8.92,9.42 13.19,14.41 3.73,4.26 10.19,10.69 13.46,14.68 1.73,1.81 3.37,3.62 5.19,5.44 0.64,0.63 1.18,1.54 1.82,2.17 2.27,2.63 4.91,5.07 7.01,7.88 -3.46,-2.45 -6.92,-4.89 -10.28,-7.43 -1.73,-1.36 -3.46,-2.45 -5.28,-3.81 -1.73,-1.27 -3.46,-2.54 -5.19,-3.81 -6.91,-4.98 -13.65,-10.06 -20.65,-15.13 -13.83,-9.97 -27.75,-20.21 -41.49,-30.17 -1.09,-0.72 -2.09,-1.54 -3.28,-2.45 -0.36,-0.27 -0.82,-0.54 -1.27,-0.91 0.82,-1.18 1.36,-2.17 2.09,-3.35 0.64,-0.91 1.36,-2.36 2.09,-3.26zm562.14 -377.04c4.55,10.06 11.01,24.01 15.19,33.98 8.28,18.94 16.65,37.88 25.02,56.82 -1,-0.82 -13.65,-18.3 -13.47,-18.67 -2.27,-1.9 -21.56,-29.27 -24.75,-33.17 -4.19,-5.17 -7.91,-11.24 -12.1,-16.49 -4.19,-5.44 -8.28,-11.05 -12.37,-16.58 0.27,-0.45 0.55,-0.91 0.82,-1.27 0.73,-1.9 1.36,-2.72 1.36,-4.62 1.64,-0.27 3.09,-0.82 4.91,-1.18 1.64,-0.36 3.27,-0.82 5,-1.09 2.82,-0.63 5.55,-1.36 8.46,-2.08 0.27,0.82 0.73,1.63 1,2.26 0.27,0.73 0.54,1.36 0.91,2.09zm-25.66 12.6c1,1.45 2,2.72 3.09,4.17 0.36,0.45 0.82,1 1.36,1.54 1,1.45 2,2.9 3.09,4.17 1.82,2.72 3.91,5.35 5.82,7.97 12.74,17.31 25.56,34.62 38.3,52.01 1.46,2.17 3,4.35 4.46,6.34 4.18,5.07 7.82,10.78 11.73,16.04 2.09,2.63 10.64,13.77 11.28,15.77 8.1,19.03 16.38,37.88 24.65,56.73 0.55,1.27 1.18,2.54 1.82,3.81 0.09,0.45 0.27,1.09 0.45,1.54 0.55,1.09 1,2.08 1.64,3.26 -33.84,0 -67.41,-0.09 -101.08,-0.18 -2.46,0.09 -4.82,0 -7.19,0 -1.27,-0.09 -2.27,0 -3.64,0 -1.09,0.09 -2.64,0.18 -3.64,-0.18 -0.64,0.27 -2.37,0.18 -3.37,0.09 -0.45,0 -0.36,0 -0.64,0 -0.91,0.09 -1.55,0 -2.46,0.18 -1.36,-2.36 -1.36,-2.72 -3.46,-4.71 -0.27,-0.18 -0.55,-0.36 -0.82,-0.54 -0.64,-0.27 -1.27,-0.64 -1.91,-1.18 0,-0.36 0,-0.72 0,-1.09 0.18,-0.54 0.18,-0.45 0.18,-1 0.09,-0.91 -0.09,-0.54 0.36,-1.27 -0.18,-0.36 -0.18,0 -0.18,-0.45 0.09,-0.45 0,-0.09 0.27,-0.54 -0.55,-1.27 3,-31.17 3.37,-35.34 0.18,-1.54 0.27,-3.17 0.46,-4.71 0,-0.91 0.09,-1.45 0.18,-2.36 1.27,-12.69 2.55,-25.37 3.82,-38.06 0.73,-4.35 1.18,-14.77 1.91,-18.85 0.18,-1.72 0.09,-2.99 0.45,-4.89 1,-10.15 2,-20.39 3.18,-30.63 0.18,-4.08 1.27,-10.78 1.46,-14.41 0.09,-0.73 0.18,-1.54 0.46,-2.45 0,-1.36 0.09,-2.81 0.27,-4.35 0.91,-10.69 0.36,-12.14 4.27,-6.43zm-10.37 -2.63c0.36,0.45 0.46,0.45 -0.09,0.91 0.09,0.45 0.09,0.54 0.09,0.81 0,0.63 -0.09,0.45 -0.18,0.63 0.18,0.64 0.18,0.36 0.18,1.09 -0.09,0.54 -0.09,0.27 -0.36,0.81 0.27,0.82 -0.18,3.99 -0.45,4.71 -0.36,3.26 -0.54,6.43 -0.73,9.51 -0.27,3.35 -0.82,6.43 -1.09,9.61 0,1 -0.09,1.63 -0.18,2.45 -0.36,2.54 -0.55,4.98 -0.82,7.25 -0.54,5.17 -1.27,15.31 -1.91,19.21 -0.36,1.72 -0.18,3.08 -0.55,4.89 -0.27,1.72 -0.18,3.08 -0.45,4.98 -0.73,6.34 -1.27,12.87 -2,19.3 -0.91,12.32 -2.64,26.19 -3.82,38.69 -1.09,11.33 -2.18,22.56 -3.37,33.8 -0.09,0.72 -0.18,4.17 -0.64,4.62 -0.18,1 -0.18,2.08 -0.27,2.99 0.09,1 0,1.45 -0.18,2.54 -0.45,0.09 -0.73,0.18 -1.09,0.27 -1.18,0.54 -2.18,1 -3.18,1.54 -0.45,0.27 -0.91,0.63 -1.18,1 -0.64,-0.45 -1.18,-0.81 -1.82,-1.18 -0.55,-0.27 -1,-0.54 -1.55,-0.82 -1,-0.36 -1.91,-0.91 -2.82,-1.36 -1.64,-0.72 -3,-1.45 -4.55,-2.17 -31.3,-15.59 -62.5,-30.99 -93.8,-46.58 -0.54,0 -1.46,-0.54 -2.18,-0.91 -0.64,-0.27 -1.09,-0.54 -1.55,-0.82 -1,-0.54 -2,-1 -2.91,-1.45 -0.18,0 -0.27,0 -0.36,0 -0.45,-0.82 -0.36,-3.08 -0.18,-3.99 -0.09,-0.27 -0.18,-0.18 -0.18,-0.63 -0.09,-0.63 0.09,-0.72 0.18,-1 -0.45,-1 0,-38.87 -0.09,-42.77 0,-1.36 -0.18,-5.44 0.27,-6.25 -0.36,-0.81 -0.18,-2.99 -0.27,-3.9 0,-6.43 0,-5.26 2.73,-11.51 2.18,-4.98 4.46,-9.88 6.64,-14.95 0.27,-0.81 0.64,-1.45 1,-2.45 2.55,0 5.55,-0.36 7.91,-2.72 2.82,-2.54 2.82,-3.81 3.46,-6.43 0.64,-0.18 1.46,-0.27 2.27,-0.45 33.21,-7.7 66.6,-15.5 99.98,-23.29 0.82,-0.09 1.73,-0.36 2.55,-0.63 0.73,-0.09 0.73,-0.27 1.46,-0.18 0.46,-0.09 0.82,-0.27 1.18,-0.45 1,1.09 2.09,2.17 3.18,3.08 0.64,0.09 0,0 0.64,0.09 0.36,0.27 0.91,0.54 1.46,0.72 -0.18,0.45 -0.27,0.91 -0.36,1.36zm-508.83 346.87c-0.36,-0.72 -0.73,-1.54 -1.09,-2.26 -0.55,-0.54 -0.91,-1.09 -1.36,-1.63 0.36,-0.54 0.64,-1.18 1.09,-1.63 0.09,-0.36 0.36,-0.63 0.64,-1.09 0.64,-1.09 1.36,-2.09 2.09,-3.26 15.92,-25.64 32.02,-51.56 48.13,-77.38 0.36,-0.72 0.82,-1.54 1.27,-2.26 0.82,0 1.27,-0.09 2.18,0.36 0.73,-0.27 0.36,-0.18 1.27,-0.27 0.45,-0.09 1,-0.09 1.55,-0.18 2.27,-0.36 4.28,-1.63 5.73,-3.26 1.36,-1.54 0.82,-1.72 1.82,-2.54 0,-0.27 0.09,-0.72 0.18,-1.18 0.64,-0.36 1.73,-0.36 2,-0.27 5.73,-0.45 11.46,-0.91 17.29,-1.45 1.09,-0.27 7.37,-0.91 8.64,-0.64 7.1,1.63 17.28,4.62 24.65,6.52 9.46,2.36 19.74,5.35 29.02,7.61 1.18,0.36 3.09,0.73 4.19,1.18 0.36,0.09 0.64,0.09 1,0.18 0.91,0.27 0.27,0 0.91,0.45 1,-0.18 0.55,-0.09 1.46,0.18 0.09,0 0.46,0.18 0.46,0.18 0.54,0.09 0.27,0 0.73,0.36 1.18,0.27 2.45,0.54 3.64,0.81 0.18,0.73 0.27,1.45 0.54,2.17 0.09,0.45 0.27,1 0.46,1.54 0.18,0.64 0.36,1.36 0.64,1.99 0.09,0.91 0.27,1.72 0.46,2.54 0.73,1.81 11.37,45.76 11.92,47.75 2,7.88 3.82,15.77 5.82,23.83 0.73,2.9 1.46,5.89 2.18,8.79 0.64,2.63 3.73,14.14 3.55,14.95 0.36,0.72 1.18,3.08 1,3.99 0.18,0.72 0.45,1.45 0.73,2.17 0.18,0.63 0.36,1.18 0.36,1.9 0.09,0.36 0.27,0.81 0.45,1.27 -0.54,0.27 -0.91,0.54 -1.46,0.81 -0.91,0.91 -1.82,1.9 -2.64,2.81 0,0.18 0,0.27 0,0.36 -0.82,-0.18 -1.09,-0.27 -1.91,-0.27 -1,-0.18 -1.27,-0.18 -2.09,-0.54 -0.82,-0.09 -1.55,-0.27 -2.18,-0.45 -1.46,0.27 -8.1,-1.54 -10.28,-1.9 -2.64,-0.45 -5.19,-0.91 -7.73,-1.36 -1.09,-0.18 -1.82,-0.36 -2.82,-0.45 -2.09,-0.27 -5.28,-1.09 -7.64,-1.54 -0.55,-0.09 -0.82,-0.18 -1.27,-0.27 -1.46,-0.27 -2.73,-0.54 -4.09,-0.72 -0.91,-0.18 -1.73,-0.27 -2.55,-0.36 -4.46,-0.82 -8.83,-1.72 -13.19,-2.63 -1,-0.18 -1.46,-0.18 -2.46,-0.36 -2.64,-0.54 -5.18,-1 -7.73,-1.54 -2.18,-0.27 -3.46,-0.72 -5.46,-1 -0.91,-0.09 -2.82,-0.63 -5.09,-0.91 -10.1,-1.81 -20.01,-3.72 -30.02,-5.71 -1.18,-0.09 -2.09,-0.54 -4,-0.73 -16.65,-3.08 -33.12,-6.07 -49.58,-9.24 -1,-0.09 -1.82,-0.36 -2.82,-0.54 -2.28,-0.45 -9.19,-1.45 -10.55,-2.08 -1,-0.09 -2.09,-0.27 -3,-0.45 -0.82,-0.09 -0.91,-0.09 -1.64,-0.45 -0.27,0 -0.09,0.09 -0.45,0 -0.45,-0.18 -0.09,0 -0.64,-0.27 -0.45,0 -0.82,-0.09 -1.18,-0.09 -0.18,0 -0.18,0.18 -0.55,0.09 -0.18,-0.45 -0.36,-1 -0.54,-1.63zm367.91 -284.16c0.45,1.36 0.18,4.53 0.18,6.25 0,2.08 0,4.08 0,6.16 0,11.24 -0.09,22.38 -0.09,33.53 0.09,1 0.18,2.36 -0.09,3.17 0.36,1.09 0.18,3.35 0.18,4.44 -20.47,14.32 -40.76,28.54 -61.04,42.68 -0.82,0.36 -0.18,0.27 -0.46,-0.09 0,-0.91 0.55,-8.06 0.73,-8.7 -0.18,-1 0.09,-2.81 0.18,-3.62 0.09,-1.45 0,-2.63 0.36,-3.9 -0.18,-0.72 -0.09,-1.72 0.09,-2.36 0.09,-2.17 0.91,-16.31 1.36,-17.13 -0.18,-1.18 0.54,-8.15 0.54,-10.15 0.64,-8.25 1.18,-16.67 1.82,-25.1 0,-0.54 0.18,-4.44 0.64,-5.17 -0.36,-1 0,-2.17 0.09,-3.17 0,-1.09 0,-2.36 0.27,-3.26 6.28,-2.17 12.37,-4.53 18.65,-6.7 3.18,-1.09 6.1,-2.36 9.19,-3.35 1.64,-0.54 3.09,-1.09 4.64,-1.72 0.91,-0.36 1.64,-0.54 2.46,-0.82 0.45,-0.18 0.82,-0.27 1.27,-0.45 0.27,-0.09 0.73,-0.09 1.18,-0.18 0.82,-0.72 6.55,-2.63 7.73,-2.99 0.64,-0.27 1.36,-0.54 2,-0.81 2.82,-0.82 5.46,-1.9 8.19,-2.9 0.18,1.09 0.18,2.08 0.09,3.17 0,1 0.27,2.36 -0.18,3.17zm-267.47 175.52c0.73,-0.81 1.46,-1.63 2.27,-2.45 0.82,-1.27 4.55,-5.89 5.64,-6.43 0,-0.81 0.18,-0.72 1.09,-1.9 1.46,-1.72 2.91,-3.53 4.46,-5.35 2,-2.45 4.09,-4.8 6.1,-7.25 2.09,-2.26 4,-4.8 6,-7.16 2.09,-2.45 4,-4.98 6.28,-7.34 2.09,0.63 5,0.72 6,1.45 0.91,-0.18 4.46,0.63 5.46,0.91 2.73,0.64 5.46,1.09 8.19,1.63 1.18,0.18 1.73,0.45 2.73,0.54 9.19,1.81 18.56,3.72 27.75,5.62 0.64,-0.27 0.64,-0.09 1.36,0.09 5.19,1 10.46,1.99 15.74,3.08 0.55,0.09 1,0.27 1.64,0.45 1.27,0.18 5.28,0.72 6.19,1.27 1.27,-0.09 4.91,0.73 6,1.18 1.09,0 6.19,1.09 7.37,1.27 0.27,0.27 0.45,0 0,0.36 -20.38,13.77 -40.67,27.55 -60.86,41.32 -0.73,0.09 -5.18,-1.18 -5.73,-1.45 -1.27,0 -23.38,-6.07 -25.38,-6.62 -6.37,-1.63 -12.83,-3.35 -19.1,-5.07 -1.82,-0.36 -4.91,-1 -6.64,-1.81 -0.27,0.09 0,0.09 -0.45,-0.09 -1,-0.09 -5,-1.18 -5.73,-1.54 0.54,-1.36 2.91,-3.35 3.64,-4.71zm294.67 -229.89c0.27,-0.54 0.64,-1.09 0.91,-1.54 0.09,-0.27 0.27,-0.54 0.45,-0.91 0.64,-1.27 1.18,-2.36 1.73,-3.53 0.45,-1.27 1.64,-3.53 2.27,-4.53 2.37,-4.62 4.64,-9.15 6.91,-13.68 6.1,-11.78 12.37,-24.46 18.47,-36.25 2.46,-4.44 6.92,-14.05 9.28,-17.85 0.73,-1.45 1.46,-3.08 2.28,-4.62 0.36,-0.64 0.73,-1.27 1,-1.99 0.91,0.27 3.27,1.54 3.91,2.36 0.64,0 0.64,0 1.27,0.45 0.36,0.27 0.64,0.45 1.09,0.73 0.73,0.36 1.55,0.63 2.27,1.45 0.18,0 0.09,0 0.46,0.09 3.09,1.81 6.1,3.53 9.19,5.17 9.37,5.26 19.74,11.78 29.11,16.76 3.18,1.9 6.37,3.62 9.55,5.53 3.28,1.99 6.46,3.81 9.64,5.71 4.91,2.81 9.74,5.53 14.65,8.34 1.64,0.91 3.55,2 5.1,3.17 0.36,-0.09 -0.55,-0.36 0.27,0 0.18,0 0.54,0.36 0.73,0.45 0.73,0.36 0.91,0.36 1.46,1 0.54,0.09 0,-0.09 0.64,0.18 0.36,0 0.18,0 0.64,0.36 0.64,0.36 0.73,0.45 1.46,0.91 0.55,0.27 1.18,0.63 1.73,0.81 0.82,0.54 1.27,0.91 1.91,1.18 1.18,0.72 3,1.63 3.91,2.45 -0.82,0.18 -13.46,3.26 -14.65,3.26 -0.45,-0.54 -1,-1.09 -1.55,-1.72 -1.27,-0.81 -1.46,-1.18 -2.91,-1.81 -1.18,-0.63 -2.37,-0.72 -3.18,-1.18 -2.73,0.45 -8.37,-0.36 -11.65,5.89 -1.82,3.53 0.46,3.62 -3.55,4.35 -0.91,0.09 0.46,-0.09 -0.36,0 -0.36,0.09 -0.27,0 -0.36,0 -1.55,0.82 -44.85,10.51 -46.12,10.78 -11.55,2.63 -22.93,5.35 -34.48,7.98 -1.27,0.36 -10.37,2.81 -11.74,2.54 -0.82,0.63 -8.37,2.17 -8.55,2.08 -1.18,0.36 -2.37,0.63 -3.46,0.91 -0.64,-0.54 -1.09,-1.09 -1.64,-1.81 1,-1 1.09,-2.27 1.91,-3.44zm-351.99 248.46c-0.09,0.36 0.18,-0.09 -0.18,0.54 -1.55,2.36 -3,4.62 -4.46,6.98 -0.09,0.27 0.09,0.09 -0.18,0.54 -0.09,0.27 -0.18,0.27 -0.36,0.54 -11.19,18.03 -22.29,35.97 -33.39,53.82 -2,2.99 -3.73,5.98 -5.64,9.06 -1.91,3.17 -4,6.25 -5.91,9.33 -0.09,0.63 -1,1.72 -1.46,2.17 -4.46,-1.63 -11.83,1.09 -12.83,8.7 0.27,1.18 0.09,1.54 0.36,2.72 0.09,0.81 0.55,1.9 1.09,2.63 0.46,0.82 1,1.54 1.55,2.26 -1.36,1.72 -6.19,10.24 -7.28,11.42 -0.91,-2.45 -1.82,-4.98 -2.73,-7.52 0,0 -0.09,-0.36 -0.09,-0.45 -0.09,-0.63 -0.09,-0.09 0,-0.63 -0.54,-0.63 -0.36,-0.09 -0.54,-0.91 0,-0.09 -0.09,-0.36 -0.09,-0.45 -0.09,-0.63 -0.09,-0.09 0,-0.63 -0.46,-0.45 -1.18,-1.81 -1,-2.54 -0.82,-1.45 -6.19,-17.76 -7.01,-20.03 -2.46,-6.7 -4.46,-13.14 -6.91,-19.75 -2.37,-6.61 -4.46,-13.14 -6.73,-19.75 -2.18,-5.71 -4.09,-11.51 -6.1,-17.31 -0.18,-0.45 -0.36,-0.82 -0.45,-1.27 -0.09,-0.36 -0.18,-0.72 -0.09,-1.09 -0.54,-0.64 -1.55,-3.17 -1.46,-3.81 -0.64,-1.09 -1.55,-3.72 -1.73,-4.8 1,-0.18 1.73,-0.45 2.73,-0.18 0.91,-0.64 3.37,-0.64 4.64,-0.91 1.27,0 3.55,-0.54 5.28,-0.63 15.83,-2.08 31.57,-4.35 47.49,-6.43 4.55,-0.63 30.75,-4.44 31.57,-4.26 1.55,-0.45 3.18,-0.63 4.55,-0.63 0.55,-0.09 1.09,-0.09 1.73,-0.27 0.54,-0.09 0.64,-0.18 1.09,-0.09 1.55,-0.45 3.18,-0.36 4.82,-0.91 1.09,1.36 2.46,1.81 -0.27,4.53zm197.33 -154.13c-0.27,-0.45 -0.36,-0.45 -0.64,-0.91 0,-0.09 -0.09,-0.36 -0.18,-0.36 -0.09,-0.45 0,-0.36 0,-0.54 -0.82,-1 -3.73,-7.61 -4.37,-9.15 -9.55,-20.66 -19.2,-41.32 -28.66,-62.16 -0.09,-0.36 -0.09,-0.27 -0.09,-0.54 -0.64,-0.54 -2,-3.53 -2.09,-4.26 -0.54,-0.73 -0.73,-1.27 -1.09,-1.99 -0.09,-0.27 -0.27,-0.64 -0.36,-0.82 -0.36,-1.09 -0.18,-0.27 -0.09,-0.81 -0.36,-0.54 -0.64,-1 -0.91,-1.54 -0.18,-0.36 -0.36,-0.63 -0.54,-0.82 0.27,-0.36 0.54,-0.72 0.82,-1 1.18,-1 1.91,-2.26 2.37,-3.35 0.64,0 1.36,0 2,-0.09 0.64,0.18 0.09,-0.09 0.46,0.09 0.73,0 0.91,-0.18 1.55,-0.09 0.09,0 0.54,0.18 0.54,0.18 0.36,0 0.27,0 0.55,0.09 1.18,0.09 2.46,0.18 3.73,0.18 1.55,-0.36 3.37,-0.09 5.1,0 1.55,0.09 3.09,0.09 4.64,0.18 9.64,0.45 19.19,0.91 28.75,1.27 12.83,0.63 25.75,1.18 38.48,1.72 12.74,0.45 25.56,1 38.39,1.63 0.64,0 37.39,1.27 38.03,1.72 1.09,0 2.27,0.09 3.46,0.09 0.64,-0.09 0.27,-0.18 0.73,0 1,0.09 2,0.18 3,0.18 0.18,0 0.36,0 0.64,-0.09 0.09,0.45 0.27,0.72 0.54,1.09 1.09,2.08 2.09,2.81 3.64,4.26 -0.18,0.54 -0.36,1 -0.54,1.36 -1.36,2.99 -2.82,5.89 -4.09,8.79 -0.36,1.72 -1.82,4.71 -2.64,6.61 -0.45,0.91 -2.46,6.34 -3.46,5.98 -2.27,1 -4.55,1.81 -6.73,2.54 -0.09,0 -0.36,0.09 -0.46,0.18 -0.45,0.09 -0.27,0 -0.64,0 -0.82,0.82 -23.84,8.88 -26.93,9.97 -9.01,3.17 -18.1,6.79 -27.11,9.88 -0.18,1.63 -0.36,3.26 -0.45,4.89 -1.91,27.27 -3.91,54.64 -5.91,81.91 -2.91,-2.81 -5.91,-5.53 -8.92,-8.34 -15.19,-14.14 -30.48,-28.36 -45.58,-42.5 -1,-0.81 -2,-1.72 -2.91,-2.63 -1,-0.82 -2,-1.9 -2,-2.81zm-59.04 44.4c0.64,1.09 1.36,2.26 2.09,3.26 11.55,18.4 23.11,36.7 34.75,55 1.36,2.17 2.82,4.35 4.28,6.43 -0.45,0.18 -0.27,0.18 -0.73,0.09 -0.73,-0.09 -0.55,-0.09 -0.82,-0.27 -0.55,0 -0.55,0 -1.09,0 -1.09,-0.09 -0.46,0 -1,-0.36 -1,0.09 -4.09,-0.63 -5.46,-0.91 -1.27,-0.27 -0.18,0.09 -1.09,-0.36 -2.36,-0.36 -4.73,-0.81 -7.09,-1.27 -0.91,-0.18 -1.36,-0.27 -2.37,-0.36 -0.91,-0.18 -1.55,-0.45 -2.46,-0.64 -13.74,-2.63 -27.38,-5.35 -41.03,-8.06 -1.73,-0.36 -3.27,-0.64 -5,-1 -5.73,-1 -11.37,-2.26 -16.92,-3.26 -0.55,-0.18 -0.73,-0.18 -1.18,-0.18 -0.91,-0.18 -0.73,-0.18 -1.27,-0.54 -1.09,0.09 -4,-0.63 -5.82,-0.91 -2.82,3.26 -5.82,6.89 -8.55,10.33 -2.91,3.53 -5.73,6.8 -8.64,10.42 -2.82,3.44 -5.73,6.98 -8.55,10.24 -1.64,1.72 -7.73,9.79 -9.01,10.42 -0.09,0.64 -0.18,0.54 -0.73,1.18 -0.36,0.54 -0.45,0.63 -1.09,1.09 0,0.09 -0.09,0.09 -0.09,0.18 -0.27,0.36 -0.64,0.81 -0.91,1.18 -0.45,0.54 -0.73,0.91 -1.36,1.45 -0.73,1.81 -2.19,1.63 -4.28,1.81 -0.73,0.09 -1.46,0.09 -2,0.09 -4.82,0.45 -9.46,0.91 -14.1,1.36 -0.91,0 -0.46,-0.09 -1,-0.18 -0.73,0.36 -0.73,0.36 -1.64,0.18 -0.64,0.36 -1.18,0.45 -2.09,0.09 -0.64,0.45 -1.27,0.36 -2.27,0.45 -0.91,-1.81 -1.36,-2.26 -3,-3.9 -0.54,-0.36 -1.09,-0.81 -1.64,-1.09 0.18,-0.18 0.27,-0.36 0.36,-0.54 0.09,-0.36 0.18,-0.63 0.27,-1.09 -0.18,-0.54 -0.18,-0.18 0.18,-0.73 -0.45,-0.18 -0.27,-0.09 0.09,-0.36 -0.18,-0.81 0.27,-1.54 0.46,-2.45 0.18,-0.91 0.18,-1.63 0.64,-2.45 -0.18,-0.63 0.18,-1.36 0.45,-2.08 0.18,-0.72 0.27,-1.36 0.45,-2.17 0.36,-1.45 0.64,-2.81 1,-4.26 3.37,-14.14 6.82,-28.45 10.28,-42.68 3,-11.05 5.37,-23.11 8.37,-34.07 2.91,-10.96 5.46,-23.47 8.28,-34.16 0.55,-1.99 3.64,-15.86 4.37,-17.22 0.09,-0.82 0.27,-1.63 0.46,-2.54 0.18,-0.72 0.36,-1.45 0.64,-2.17 1.55,-0.09 2.36,-0.36 3.91,-1 1.18,-0.63 1.18,-1 2.19,-0.18 0.73,0.73 1.55,1.27 2.45,1.81 1.09,1 2.46,1.81 3.73,2.63 0.91,0.72 1.73,1.36 2.73,2.08 22.74,16.13 45.49,32.35 68.23,48.66 0.27,0.27 0.54,0.36 0.82,0.63 0.45,0.09 0.09,-0.27 0.82,0.27 0.27,0.18 0.36,0.27 0.73,0.54 0.36,0.36 0.64,0.91 1.27,1.54zm22.65 -143.89c0.55,-0.63 1.46,-2.08 2.18,-2.63 0.46,-1.18 19.02,-25.64 20.56,-27.64 2.64,-3.35 4.55,-5.89 6.91,-9.15 2.37,-3.44 4.19,-5.8 6.73,-9.24 1.36,-1.72 20.01,-26.55 20.74,-27.37 1.36,-1.81 2.73,-3.72 4.19,-5.53 1,0.18 1.73,0.36 2.73,0.45 0.91,0 2,-0.18 2.55,-0.18 0.09,0 2.73,-0.82 2.82,-0.82 0.73,0 0.54,0.18 1.27,0.82 0.27,0.27 0.64,0.54 1.09,1 1.18,1.09 2.28,2.18 3.27,3.17 18.56,16.76 36.94,33.53 55.4,50.2 3.46,3.26 7.37,6.52 10.83,9.88 5.55,5.07 11.1,10.06 16.65,15.04 1,1.09 4.64,4.26 5.28,5.26 0.45,0.09 0.09,-0.09 0.55,0.27 0.36,0.18 0.09,0 0.36,0.27 0.73,0.72 1.36,1.27 2.09,1.9 0.91,0.81 2,1.72 2.64,2.72 0.82,0.09 2,1.45 2.73,2.26 -0.27,0.45 -0.55,1 -0.82,1.54 -4.09,-0.45 -15.28,-0.73 -20.29,-1 -33.48,-1.54 -68.05,-2.54 -101.17,-4.26 -13.19,-0.54 -26.29,-1.09 -39.39,-1.63 -0.73,-0.09 -0.45,-0.09 -1.18,-0.27 -0.91,0.27 -1.73,0.09 -2.82,0 -0.46,0 -0.82,0 -1.36,-0.09 -0.64,0 -0.64,0.09 -1.27,-0.09 -0.91,-0.09 -1.73,-0.18 -2.46,-0.09 -0.73,-1.27 -0.91,-1.81 -1.91,-3.26 0.36,-0.54 0.64,-1 1.09,-1.54zm-117.09 88.26c0.18,0.81 -0.18,1.72 -0.36,2.63 -0.27,0.91 -0.27,1.36 -0.82,2.36 0.09,0.27 0.18,-0.18 0.09,0.54 -0.36,1.36 -0.73,2.63 -1,3.9 -2.91,11.42 -5.64,24.28 -8.55,35.25 -1.09,4.44 -2.19,8.88 -3.18,13.23 -0.82,2.99 -1.46,5.89 -2.18,8.79 -1.91,8.7 -4.82,18.39 -6.37,26.46 -1.64,7.79 -4.46,18.58 -6.37,26.55 -2.09,8.52 -4.55,17.85 -6.46,26.28 -0.64,0.09 -1.27,0.09 -1.91,0.18 -0.54,-0.82 -1,-1.63 -1.46,-2.54 -1.46,-2.08 -2.82,-4.26 -4.18,-6.52 -20.74,-32.62 -41.58,-65.24 -62.41,-97.86 -0.55,-0.54 -1,-1.36 -1.46,-2.08 -0.27,-0.36 -0.55,-0.72 -0.73,-1.09 -0.55,-0.91 -0.36,-0.36 -0.36,-1 -1,-0.91 -0.91,-1 -1.64,-2.08 1.09,-0.63 1.27,-1.18 1.91,-2.17 0,-0.36 0.54,-1.45 0.73,-2.26 0.18,-0.82 0.27,-1.54 0.09,-2.36 2.18,-0.72 4.28,-1.36 6.46,-1.9 3.73,-1.45 18.47,-5.62 23.02,-6.98 15.37,-4.62 30.75,-9.24 46.22,-13.95 6.64,-1.99 16.56,-4.89 22.74,-6.98 1.18,-0.45 2.46,-0.82 3.64,-1.09 0.73,-0.18 1.46,-0.45 2.27,-0.72 1.09,1.27 2,1.81 3.27,2.63 -0.54,1.18 -0.27,1.81 -1,2.81zm41.49 -60.26c-0.09,-0.27 -0.09,-0.54 -0.09,-0.81 -0.82,-0.82 -2.09,-2.81 -2,-3.9 -1,-1 -1.73,-2.81 -2.28,-3.9 2.55,1.81 5,3.53 7.55,5.35 0.73,-0.27 0,-0.18 0.64,-0.09 0.09,0 0.55,0.09 0.64,0.18 0.64,0.45 1.46,0.91 2.18,1.27 3.46,2.99 1.73,1.27 3.82,2.81 5.55,4.35 11.19,8.52 16.92,12.87 0,0 0.27,0.18 0.36,0.27 0.73,0.45 0,0 0.36,0.27 1.64,1.18 3.37,2.72 5.1,3.72 0,0 0.36,0.27 0.36,0.36 2.36,1.9 4.82,3.72 7.28,5.53 1,0.63 1.55,1.09 2.55,1.9 0.55,0.54 1,0.54 1.64,1.09 0.82,0.82 1.64,1.36 2.55,2.08 0,0 0.27,0.18 0.36,0.27 0.91,0.72 1.91,1.45 2.91,2.26 0.09,0.09 0.45,0.45 0.64,0.63 0.82,0.64 -0.18,-0.27 1,0.45 0.36,0.45 0.64,0.73 1.09,1 0,0 0.09,0.09 0.18,0.09 0.27,0.18 0.18,0.09 0.64,0.45 0.45,0.36 0.82,0.54 1.36,1 2.36,2.08 8.92,6.62 11.92,9.33 4.37,3.62 3.37,1.99 5.91,6.16 1.55,2.54 3.55,5.26 5.18,7.88 0.91,1.72 1.91,3.53 3,5.17 0.54,0.81 0.36,0.81 0.91,1.54 2.91,5.16 5.82,10.24 8.92,15.4 -0.09,0.18 -0.45,0.54 -0.45,0.54 2.82,4.71 5.55,9.24 8.37,14.05 1.36,2.26 2.73,4.53 4.28,6.98 0.73,1.27 4,6.07 3.82,6.89 0.91,0.91 4.37,6.34 4.19,7.07 1.18,1 4.64,7.16 5.82,9.15 1,1.63 1.55,2.26 1.64,3.17 0.82,0.63 5.28,8.06 5.28,8.79 1.27,2.18 2.55,4.44 3.82,6.62 1.27,0.82 5.09,7.88 6.1,9.69 1.55,2.63 4.19,7.7 5.91,9.79 0,0.18 0.09,0.36 0.18,0.54 -0.27,-0.09 -0.45,-0.27 -0.73,-0.45 -1.91,-2.17 -5.55,-4.53 -6.91,-6.62 -0.82,-0.18 -1.27,-0.72 -1.64,-1.36 -0.82,-0.64 -1.73,-1.36 -2.55,-2 -0.82,-0.72 -1.46,-1.27 -2.18,-2.17 -0.91,-0.18 -4.55,-3.72 -5.19,-4.71 -0.18,0 -0.27,0 -0.36,-0.09 0,0 -4.91,-3.9 -5.82,-5.44 -0.09,0 -0.18,-0.09 -0.18,-0.09 -0.09,0 -0.18,-0.09 -0.27,-0.09 -0.82,-0.45 0.54,0.45 -0.36,-0.27 -0.09,0 -0.46,-0.36 -0.46,-0.36 -1.82,-1.63 -6.91,-5.71 -7.55,-7.07 -0.45,-0.09 0.09,0.18 -0.64,-0.18 -0.37,-0.36 -0.82,-0.72 -1.27,-1.18 -0.45,-0.45 -0.91,-0.72 -1.46,-1.36 -1.09,-0.82 -2.37,-1.72 -3,-2.81 -0.91,-0.36 -7.82,-6.43 -8.64,-7.7 -1.18,-0.18 -12.83,-11.05 -14.83,-12.87 -1.27,0.27 -0.18,0.36 -1.36,-0.36 -0.82,-0.73 -1.82,-1.54 -2.64,-2.36 -2.73,-2.36 -4.09,-3.17 -7.46,-6.07 -3.82,-3.26 -7.55,-6.62 -11.28,-9.88 -2.46,-2.26 -5.18,-4.44 -7.64,-6.61 -3.09,-2.72 -9.01,-7.43 -10.92,-10.42 -0.45,-0.91 -0.18,-1 -0.73,-1.9 -2.64,-4.08 -5.18,-9.88 -7.64,-14.41 -0.55,-1 -1.18,-2.36 -1.64,-3.08 -2.73,-5.35 -5.46,-10.87 -8.19,-16.31 -0.45,-0.81 -1.09,-1.99 -1.73,-3.26 -0.36,-0.63 -1.09,-2.17 -1.55,-3.17 -0.18,-0.27 -0.55,-1.09 -0.73,-1.45 -0.27,-0.54 -0.64,-1 -1,-1.72 -1.64,-3.17 -3.18,-6.25 -4.73,-9.42 -1.27,-2.45 -7.46,-14.86 -7.55,-15.68 -0.18,-1 -0.09,-0.36 0.27,-1zm221.8 -98.59c1,-0.54 31.75,-3.08 32.84,-3.08 10.92,-1 21.74,-1.9 32.66,-2.9 2.37,-0.18 4.64,-0.45 7.19,-0.54 0.73,-0.27 6,-0.72 6.91,-0.63 -0.45,1 -1.09,2.54 -1.82,3.26 0,0.72 -0.27,1 -0.82,1.54 0,0.18 0.09,0.18 -0.09,0.64 -0.18,0.63 -0.18,0.27 -0.55,0.81 -0.18,0.18 -0.27,0.45 -0.36,0.73 -0.64,1.36 -2.64,6.07 -3.64,6.7 0.09,1 -1.46,3.44 -1.91,4.35 -7.82,15.31 -15.74,30.54 -23.38,45.85 -2.91,5.62 -5.55,11.05 -8.55,16.76 -0.45,0.82 -0.91,2.18 -1.73,2.9 -0.91,-0.27 -1.64,-0.36 -2.64,-0.27 -0.64,0.09 -1.82,0.36 -2.46,0.36 -0.45,0.18 -0.91,0.36 -1.36,0.54 -0.73,-0.63 -1.36,-1.18 -1.91,-1.81 -1.55,-1.27 -3,-2.63 -4.46,-4.08 -26.47,-24.1 -53.13,-48.3 -79.6,-72.49 -1.18,-1 -2.46,-2.08 -3.55,-3.17 -0.82,-0.72 -1.55,-1.45 -2.28,-2.17 -3.09,-2.72 -6.1,-5.44 -9.1,-8.34 1,0 7.46,1.54 9.01,1.72 8.37,1.81 18.29,4.17 26.29,5.71 7.55,1.36 23.2,4.89 30.93,6.52 1.46,0.45 2.91,0.82 4.37,1.09zm-371.28 205.78c0.64,1 1.18,1.99 1.82,2.81 0.82,1.36 1.73,2.63 2.55,3.9 1,2 2.37,3.9 3.73,5.71 3.37,5.44 6.82,10.96 10.37,16.4 8.82,14.5 19.29,29.72 28.38,44.4 4.64,7.34 9.28,14.68 14.01,22.02 1.18,1.99 2.55,4.08 3.91,6.07 0,0.63 0.09,0.54 0.73,1.09 -0.36,0.36 -0.73,0.73 -1.09,0.91 -0.09,0.81 -0.64,1.45 -1,2.17 -0.36,1 -0.27,1.63 -0.55,2.36 -0.64,0.27 -2.55,0.64 -3.18,0.45 -26.2,3.62 -52.4,7.16 -78.51,10.87 -0.45,0 -0.82,0.09 -1.36,0.09 -0.73,0.09 -0.46,0.18 -1.09,-0.09 -0.82,0.54 -0.91,0.54 -1.91,0.63 -0.73,0 -1.09,0.09 -1.82,0.09 -1,0.18 -2.55,0.54 -3.46,0.36 -0.54,0.18 -1.09,0.27 -1.55,0.36 -0.45,0.09 -0.55,0.18 -1.09,0.18 -0.82,0.09 -0.55,0 -0.64,-0.09 -1.18,0.18 -2.36,0.36 -3.55,0.54 0.18,-0.72 2,-5.17 2.37,-5.62 0.18,-1 0.64,-1.99 1,-2.9 0.45,-1 0.73,-2.08 1.55,-3.08 -0.09,-0.54 2.18,-5.89 2.55,-6.79 5.55,-13.59 11.19,-27.27 16.74,-41.05 0.45,-1 2.27,-5.8 3,-6.62 0,-0.45 0,-0.63 0,-1.18 0.55,-21.2 1.18,-42.5 1.73,-63.88 1.09,1.45 2.28,3.53 3.37,5.17 0.91,1.45 1.91,3.17 3,4.71zm150.84 -123.69c0.91,-0.18 0.64,-0.18 1.46,0 1.55,-0.36 21.93,-0.36 24.56,-0.45 8.1,0 16.1,-0.18 24.29,-0.18 1.09,-0.18 2.46,-0.09 3.46,-0.09 2.09,2.36 2.27,3.9 5.46,5.62 1,0.36 2,0.72 3.09,0.91 1.18,0.36 2.27,0.18 3.18,0.45 0.54,1.09 1,2.08 1.46,2.99 0.45,1 0.91,1.99 1.36,2.9 -0.09,0.54 -0.09,0.09 0.36,0.72 0.09,0.45 0.36,0.91 0.45,1.18 0.36,0.63 0.64,1.54 1,2.08 0.64,1.36 1.18,2.63 1.82,4.08 4,8.7 8.1,17.49 12.19,26.19 1.18,2.45 2.27,4.98 3.46,7.52 2.82,6.16 5.73,12.41 8.55,18.58 0.27,0.64 0.64,1.27 0.91,1.81 0.64,1.36 0.73,1.09 0.64,1.9 0.82,0.82 3.27,6.62 3.82,7.98 1.09,2.54 2.27,4.98 3.37,7.34 0,0 0,0.09 0,0.09 0,0 0,0.09 0,0.18 2.18,2.81 11.46,11.15 14.1,13.5 4.91,4.35 9.46,8.79 14.28,13.41 9.46,8.79 19.29,17.85 28.84,26.73 1.09,1.18 2.28,2.26 3.46,3.35 1.09,1 2.18,2.08 3.37,3.08 -1.36,2.81 -2.64,5.71 -3.91,8.34 -3.64,8.16 -8.1,18.21 -11.83,26.1 -1.18,-0.27 -1.91,-0.09 -3,-0.18 -0.45,-0.45 -0.91,-1.09 -1.18,-1.72 -0.46,-1 -0.18,-0.18 -0.09,-0.81 -0.91,-0.63 -0.73,-0.63 -1.18,-1.36 -0.27,-0.27 -0.45,-0.54 -0.45,-0.81 -0.27,-0.64 -0.09,-0.18 -0.09,-0.64 -1.27,-1.18 -6.73,-10.87 -8.1,-13.14 -2.64,-4.26 -5.09,-8.52 -7.64,-12.87 -15.56,-25.64 -30.75,-51.83 -46.58,-77.47 -2.55,-4.26 -5.28,-8.61 -7.91,-13.05 -1.82,-3.17 -1.73,-3.26 -4.73,-5.53 -9.92,-7.34 -19.83,-15.13 -29.57,-22.38 -14.74,-11.15 -29.57,-22.29 -44.4,-33.44 -0.82,-0.64 -4.46,-2.9 -1.55,-3.08 1.09,0.09 2.18,0.09 3.27,0.18zm139.47 189.02c0.45,0.54 0.82,0.81 1.27,1.18 0.27,0.36 0.64,0.63 1,0.81 0.27,0.27 0.45,0.54 0.73,0.72 -0.82,1.18 -0.54,1.63 -1.09,2.63 -6.73,0.63 -13.19,1.27 -19.74,1.9 -3.18,0.45 -6.64,0.72 -9.83,1.09 -1.64,0.18 -3.18,0.36 -5,0.54 -0.82,0 -1.55,0.09 -2.45,0.18 -1.36,0.09 -1.55,0.45 -2.55,0 -0.27,0.18 -0.54,0.36 -0.73,0.45 -1,-1.45 -2,-3.08 -3,-4.62 -0.91,-1.27 -0.91,-1.09 -0.82,-1.72 -1.27,-1.18 -33.39,-52.1 -36.66,-57.45 -1.73,-2.81 -3.64,-5.44 -5.28,-8.16 -0.91,-0.54 -1.82,-1.09 -2.64,-1.63 -1.46,-1.09 -6.64,-4.62 -7.19,-5.53 -0.91,-0.09 -0.91,-0.27 -2.18,-1.18 -7.28,-5.26 -14.47,-10.33 -21.65,-15.41 -2.55,-1.9 -5.09,-3.62 -7.82,-5.62 -10.28,-7.61 -21.65,-15.04 -31.57,-22.56 -1.18,-0.73 -2.28,-1.45 -3.27,-2.27 -0.73,-0.54 -1.46,-0.91 -2,-1.45 -1.09,-0.64 -2,-1.27 -2.91,-2 1.27,-3.26 0.73,-8.52 -4.46,-11.69 0.36,-0.91 0.73,-1.81 1.09,-2.81 -0.09,-0.91 1.18,-4.17 1.64,-5.53 0.54,-1.81 1.09,-3.53 1.64,-5.35 3.46,-11.05 6.91,-22.02 10.46,-32.98 0.09,-0.72 0.36,-1.36 0.64,-2.17 0.27,-1.09 0.09,-1.27 1.46,-1.63 14.1,27.73 28.29,55.55 42.49,83.27 1.18,2.45 3.18,3.81 5.28,5.62 3.91,3.44 7.73,6.89 11.56,10.24 3.91,3.44 7.91,6.89 11.83,10.42 11.64,10.33 23.38,20.75 35.12,31.08 7.55,6.8 16.29,14.05 23.47,20.84 7.19,6.62 16.65,14.32 23.2,20.75zm-294.22 -96.87c-0.27,-0.81 -0.18,-0.54 0.18,-1.09 -0.18,-0.82 -0.09,-1.72 0.36,-2.54 0.64,-4.08 1.46,-8.06 2.18,-12.05 0.82,-4.08 1.55,-7.88 2.18,-12.05 2.27,-11.96 4.55,-23.92 6.73,-35.88 0.36,-2.81 6.37,-34.7 6.73,-36.06 1.82,1.72 6.55,4.53 7.55,6.07 0.91,0.18 3.91,2.81 4.73,3.35 7.19,5.53 68.23,52.28 69.32,53.37 0.73,0.63 1.46,1.27 2.09,1.81 0.64,0 1.09,0.54 1.55,0.91 0.55,0.45 0.82,0.54 1.46,1 1,0.81 2,1.72 3,2.36 -0.36,0.73 -0.55,1.63 -0.73,2.26 0.09,0.73 -0.18,0.73 0,1.72 -32.02,9.79 -63.87,19.39 -95.89,29 -1.82,1 -6.91,2 -8.55,2.72 -2.27,-2.72 -4.46,-2.26 -2.91,-4.89zm278.84 -181.59c0,1.18 -6.19,8.61 -6.82,9.6 -1.18,1.63 -2.46,3.08 -3.64,4.8 -15.47,20.39 -30.75,40.96 -46.12,61.44 -1,-0.18 -2,-0.54 -3,-0.73 -0.55,0.27 -0.09,0.18 -0.82,0.27 -0.46,0 -0.64,-0.09 -0.82,0 -1.09,-1.99 -2.18,-3.99 -3.09,-6.07 -0.36,-0.63 -0.64,-1.09 -1,-1.63 -0.45,-0.91 -0.45,-0.63 -0.36,-1.18 -1.09,-1.09 -4.55,-8.25 -5.46,-10.06 -1.64,-3.17 -3.37,-6.34 -5.1,-9.69 -10.28,-19.3 -20.56,-38.6 -30.75,-58.08 -0.09,-0.54 -0.09,0 0.09,-0.54 -1,-0.81 -4.37,-7.25 -4.73,-8.52 2.09,0.09 4.37,0.36 6.73,0.54 6.37,0.36 13.92,1.27 20.29,1.63 6.28,0.36 14.37,1.36 20.29,1.72 9.92,0.36 23.47,2.08 33.84,2.63 0.55,0 26.2,1.99 26.84,2.36 1.18,-0.18 2.09,0 3.27,0.09 0.45,0.09 0.91,0.09 1.36,0 0.73,0.18 1.82,0.18 2.73,0.27 0.36,1.27 1.09,2.36 2.09,3.9 -0.91,1.36 -5,6.79 -5.82,7.25zm-242.54 81.1c7,0.45 14.1,1.09 21.2,1.54 7.19,0.82 62.05,4.89 63.32,5.35 1.18,-0.18 4.19,0.09 5.28,0.36 0.36,0 0.82,0.09 1.27,0.09 0.64,0 1.27,0.18 1.91,0.27 0.18,0.54 0.27,1 0.55,1.45 0.73,1.27 0.82,1.36 1.91,2.72 0.64,0.73 1.36,1.36 2,1.63 -0.36,1.18 -0.73,2.17 -1.09,3.35 -4.73,14.86 -9.37,29.72 -14.01,44.58 -0.27,0.81 -0.54,1.54 -0.73,2.36 -0.73,-0.09 -1.55,0 -2.46,0.18 -0.82,0.18 -1.73,0.63 -2.55,0.81 -0.27,0.09 -0.54,0.27 -0.73,0.36 -1.36,-1.18 -2.73,-2.18 -4.09,-3.26 -1.55,-1.18 -3.18,-2.36 -4.73,-3.62 -21.2,-16.22 -42.39,-32.44 -63.59,-48.75 -1.09,-0.82 -2,-1.54 -3,-2.45 -0.45,-0.27 -0.91,-0.63 -1.27,-1 -3,-2.26 -6,-4.44 -8.92,-6.71 1.36,-0.27 3.55,0.09 5,0.18 1.27,0.09 3.73,0.27 4.73,0.54zm131.73 -85.63c0.45,0.73 1,1.63 1.18,2.26 0.36,0.82 0.82,1.63 1.18,2.27 0.64,1.45 1.64,3.08 2.46,4.62 0.82,1.45 1.55,2.9 2.27,4.26 10.64,20.12 21.29,40.23 32.02,60.26 -0.09,0.54 0,0.45 0.36,1.18 0.18,0.45 0.55,1 0.73,1.36 0.36,0.91 0.82,1.72 1.27,2.45 0.36,0.72 0.82,1.45 1.18,2.36 0.55,0.91 1.09,1.36 0.18,1.72 -0.82,1.54 -1.64,2.99 -2.55,4.35 -1.36,-0.27 -1.82,0.27 -3.37,-0.18 -0.91,0.45 -5,0.18 -6.55,0.18 -14.83,0.18 -29.66,0.36 -44.4,0.54 -1,-0.09 -0.18,0 -0.82,-0.27 -0.91,0.45 -1.09,0.18 -2.82,0.36 -0.64,-0.91 -1.36,-1.99 -1.91,-3.08 -0.55,-0.45 -1.18,-0.91 -1.73,-1.45 -0.64,-0.54 -1,-0.72 -1.73,-1.09 0.18,-0.73 0.09,-0.54 0.45,-1.27 -0.18,-0.63 0.09,-0.72 0.18,-1.36 0.09,-0.81 0.18,-1.27 0.36,-2.17 0.27,-1 0.09,-1.27 0.64,-2.08 -0.27,-0.73 8.28,-43.86 9.1,-47.57 0.36,-1.9 5.19,-27.64 5.64,-28.27 -0.18,-1 0.09,-1.18 0.36,-2.26 0.36,-2.09 0.82,-4.26 1.27,-6.34 0.82,1.09 1.91,3.35 2.55,4.53 0.73,1.45 1.91,3.35 2.46,4.71zm-147.11 74.85c4.09,-5.26 8.92,-10.42 13.01,-15.68 6.28,-7.79 13.1,-15.5 19.38,-23.29 4.28,-5.17 8.55,-10.42 12.83,-15.59 1.18,-1.36 2.28,-2.54 3.27,-3.81 3.82,-4.62 2.28,-3.62 8.55,-5.8 15.01,-5.44 30.11,-10.78 45.22,-16.31 3.27,-1.18 6.64,-2.36 10.1,-3.62 5,-1.72 10.01,-3.53 15.1,-5.35 1.09,-0.45 3.91,-1.45 5,-1.72 1.36,-0.72 2.82,-0.91 4.28,-1.63 -0.37,1.36 -0.64,2.72 -1,4.08 -0.55,3.72 -1.18,7.25 -1.73,10.78 -2.46,11.87 -5.19,25.01 -7.28,36.7 -2.36,11.87 -4.64,23.65 -6.91,35.43 -0.18,0.54 -0.18,0.91 -0.27,1.54 -0.09,0.54 -0.36,0.82 -0.36,1.54 -0.64,2.9 -1.27,5.89 -1.82,8.7 -6.73,1.09 -7.37,4.44 -8.82,5.98 -5,-0.09 -105.99,-8.52 -106.17,-8.61 -1.64,-0.09 -3.27,-0.27 -4.82,-0.45 0.82,-1 1.64,-1.99 2.46,-2.9zm-148.47 51.38c-0.27,-0.63 0,0.09 -0.27,-0.72 -0.82,-3.26 -1.36,-3.35 -1.64,-4.53 0.27,-0.27 0.54,-0.45 0.82,-0.72 1.18,-1.27 2.37,-2.54 3.55,-3.9 19.1,-20.3 38.21,-40.6 57.31,-60.98 1.64,-1.63 3.28,-3.44 4.91,-5.17 0.18,-0.18 0.36,-0.45 0.64,-0.72 1.18,0.54 2.46,1.09 3.73,1.54 0,0 0.09,0 0.18,0 0.91,0.27 1.91,0.64 2.64,1.27 1.09,-0.09 6.55,2.36 7.55,2.81 12.83,5.07 25.57,10.24 38.39,15.4 2.55,1.09 5.09,1.9 7.64,3.08 1.46,0.63 6.55,2.36 7.37,3.08 0.54,0.09 0.09,-0.09 0.73,0.18 0,0 0.54,0.18 0.54,0.18 0.64,0.18 0.82,0.27 1.36,0.63 0.36,0.18 0.64,0.27 1.09,0.45 0.09,0.09 0.18,0.18 0.27,0.27 0.82,-0.09 1.55,0.27 2.37,0.72 0.27,0.36 0.64,0.72 1,0.91 -0.18,0.82 -0.36,1.63 -0.46,2.27 0.09,0.63 0,1.36 -0.45,1.81 0.27,1.63 -4,21.84 -4.46,24.74 -0.64,4.17 -1.64,8.16 -2.27,12.32 -0.27,1.99 -0.73,4.08 -1.09,6.16 -1.27,5.53 -2.37,12.69 -3.46,18.39 -2.27,11.96 -4.55,24.01 -6.73,35.97 -0.18,0.72 0,0.27 -0.27,0.63 0,0.45 0,1 -0.09,1.36 -0.18,1 -0.09,2.9 -0.91,3.35 -2.18,0.45 -2.91,0.54 -4.91,1.81 -0.36,0.18 -0.64,0.36 -0.82,0.54 -0.64,-0.36 -1.27,-0.72 -2,-1.18 -1.09,-0.54 -2.09,-1.09 -3.09,-1.72 -0.82,-0.36 -1.55,-0.72 -2.28,-1.18 -33.3,-17.67 -66.5,-35.25 -99.8,-52.92 -1.09,-0.45 -2.09,-1.09 -3.09,-1.63 -0.64,-0.27 -1.18,-0.54 -1.73,-0.91 -0.36,-0.18 -0.73,-0.36 -1.09,-0.63 -0.27,-0.09 -0.45,-0.09 -0.73,-0.27 -0.27,-0.18 -0.54,-0.36 -0.73,-0.54 0.09,-0.63 0.18,-1.45 0.27,-2.17zm380.46 -256.35c0.18,0.72 0.36,1.36 0.64,1.99 0.27,0.64 0.36,0.82 0.64,1.63 0.09,0.27 0.09,0.36 0.09,0.63 0.09,0.54 0.09,0.36 0.09,0.64 0.55,0.63 10.46,33.44 12.01,38.78 1.27,4.35 2.73,8.61 3.91,12.87 5.09,17.22 10.37,34.34 15.47,51.47 0.27,0.63 0.36,0.81 0.64,1.54 0.09,0.18 0.18,0.54 0.27,0.91 0.09,0.36 0,0.27 0,0.54 0.18,0.45 0.45,1 0.82,1.63 -0.27,0.18 -0.55,0.36 -0.82,0.45 -2.09,1.54 -2.64,2.63 -3.64,4.26 -0.73,0 -1.46,-0.09 -2.09,-0.09 -0.46,-0.09 -0.18,0 -0.46,-0.09 -0.91,0.09 -3.55,-0.18 -4.28,-0.54 -0.54,0.18 -0.18,0.09 -0.91,0.18 -36.75,-2.99 -73.42,-5.98 -110.08,-8.88 -0.36,0 0,0.09 -0.46,0 -0.18,0 -0.36,0 -0.45,0 -1.73,-0.27 -1.82,0.18 -2.82,-0.36 -0.36,0 0,0.09 -0.54,0 -0.18,-0.54 -0.27,-1 -0.36,-1.54 0,-0.54 0,-0.09 0.09,-0.64 -0.09,-0.27 -0.18,-0.54 -0.18,-0.72 0,-0.18 0,-0.36 0,-0.45 -0.18,-0.64 -0.36,-1.09 -0.45,-1.63 -0.18,-0.45 -0.18,-0.54 -0.27,-1 -0.09,-0.63 -0.09,-0.54 0.09,-1.09 -0.46,-0.54 -0.27,-0.09 -0.46,-0.73 -0.09,-0.63 0.09,-0.36 0.18,-0.54 -0.64,-1.45 -2.28,-12.14 -2.82,-14.59 -0.73,-3.35 -7.37,-40.14 -7.64,-43.22 -0.36,-2.08 -0.73,-4.26 -1.18,-6.43 0.18,-0.09 0.36,-0.18 0.55,-0.27 2.46,-1 5,-2.08 7.55,-3.17 28.38,-12.05 56.86,-24.1 85.34,-36.25 1,-0.36 2,-0.72 3,-1.27 1.18,0.81 2.46,1.63 3.64,2.36 0.27,0 0,-0.18 0.73,0.09 0.36,0.09 0.36,0.18 0.82,0.36 0.36,0 0.82,0.09 1.27,0.09 0.46,0.09 0.64,0.09 1.36,0.27 -0.09,0.09 -0.09,0.27 0,0.45 0.45,0.91 0.55,1.45 0.73,2.36zm-0.45 -26.28c-0.55,-0.54 -0.55,-0.36 -0.55,-1.18 -0.18,-0.36 -0.18,-0.63 -0.27,-1.09 -0.18,-0.18 -0.36,-0.36 -0.46,-0.63 0.09,0.09 0.18,0.09 0.27,0.09 -0.27,-0.81 -0.18,-0.27 -0.27,-0.81 -0.09,-0.45 0,-0.27 0,-0.54 -0.45,-0.54 -0.27,-0.18 -0.54,-0.91 -0.18,-0.73 0,-0.54 0,-0.91 -0.55,-0.63 -2.28,-6.71 -2.37,-7.7 1.36,0.63 2.73,1.36 4.09,1.99 1.09,0.45 1.27,0.45 1.91,1.09 0.55,0.09 -0.18,-0.18 1,0.27 0.09,0 0.54,0.36 0.82,0.54 1.09,0.45 1.09,0.36 1.73,1.09 1,0.09 2.37,0.91 3.18,1.54 0.91,0.09 23.74,12.14 26.47,13.5 1.46,0.81 25.38,12.69 26.38,13.86 0.36,0 0.27,0 0.73,0.18 0.54,0.36 1.27,0.72 1.91,1 1.09,0.54 2,0.91 2.91,1.54 0.64,0.36 1.27,0.73 1.91,1 0.45,0.18 0.91,0.18 1.46,1.09 1.09,0.45 2.73,2.36 3.55,3.26 39.76,37.97 79.24,76.02 118.63,114.17 -1.36,-0.63 -22.84,-15.95 -23.84,-16.67 -6.1,-4.08 -18.74,-12.69 -23.93,-16.58 -42.21,-29.27 -84.61,-58.54 -127.09,-87.71 -1.18,-0.72 -2.27,-1.54 -3.37,-2.36 -0.45,-0.18 -0.82,-0.45 -1.09,-0.63 -0.45,-0.27 -0.91,-0.54 -1.36,-0.91 -0.36,-0.27 -0.73,-0.54 -1.09,-0.81 0.45,-3.08 0.82,-2.72 -0.09,-6.43 -0.46,-0.81 -1,-1.72 -1.36,-2.54 -3.09,-3.81 -5.46,-3.81 -8.64,-4.62 -0.18,-0.72 -0.27,-1.09 -0.46,-1.54 -0.18,-0.27 -0.27,-0.54 -0.36,-0.91 0,-0.91 0,-0.18 0.18,-0.72zm-399.66 288.6c1.27,1.36 2.27,2.09 3.64,2.72 2.18,0.91 3.73,1.27 5.82,1.18 0.18,0.54 0.45,1.09 0.73,1.45 0.27,0.54 0.54,1 0.91,1.54 0.18,0.54 0.36,1 0.64,1.45 0.45,1 0.91,2.26 1.46,3.17 2.46,4.53 5.55,11.69 8.01,16.67 17.92,37.88 35.85,75.93 53.68,113.81 2.09,4.44 4.09,8.79 6.19,12.96 5.64,12.69 12.19,25.92 18.01,38.6 0.09,0.27 0.18,0.54 0.27,0.81 0,0 0,0.18 0,0.27 -0.18,-0.27 -0.27,-0.54 -0.36,-0.91 -30.66,-44.31 -61.41,-88.62 -92.16,-132.84 -1.55,-1.72 -2.37,-3.35 -2.37,-3.35 0,-0.09 0,-0.18 0,-0.27 -0.64,-0.45 -0.91,-0.72 -1.09,-1.54 0,-0.09 0.09,-0.09 0.09,-0.27 -0.46,-0.81 -0.55,-1.18 -0.64,-1.9 -6.28,-19.75 -12.55,-39.51 -18.92,-59.35 -0.27,-0.45 -0.36,-0.81 -0.55,-1.27 -0.09,-0.27 -0.09,-0.36 -0.09,-0.72 -0.09,-0.45 0,0 0,-0.54 -0.54,-0.64 -0.36,-0.27 -0.64,-1.18 -0.09,-0.36 -0.09,-0.27 -0.18,-0.54 -0.09,-0.36 0,-0.36 0,-0.64 -0.45,-0.54 -0.73,-1.18 -0.73,-1.81 -0.27,-0.63 -0.45,-1.18 -0.64,-1.81 -0.18,-0.72 -0.45,-1.63 -0.73,-2.54 1.18,0.45 2.91,1.45 4.09,2.08 1.27,0.54 3.37,1.54 4.09,2.36 0.54,-0.09 -0.09,-0.27 1,0.09 0.27,0.18 0.64,0.27 0.91,0.54 0.73,0.36 1,0.45 1.73,1.09 1,0.27 2,0.82 2.91,1.36 0.73,0.45 1.64,1 2.55,1.36 -0.54,2.54 0.09,5.07 2.37,7.97zm-22.38 -25.19c-0.09,-0.36 -0.18,-0.63 -0.36,-1.09 -0.18,-0.45 -0.18,-0.18 -0.18,-0.73 -0.09,-0.45 -0.09,0 0,-0.45 -0.36,-0.45 -0.36,-0.36 -0.55,-1 -0.36,-1 -0.09,-0.54 0,-0.91 -0.54,-0.45 -0.64,-0.45 -0.45,-1.18 -0.36,-0.45 -0.45,-0.54 -0.64,-1.27 -0.09,-0.27 -0.09,-0.27 0,-0.54 -0.09,-0.45 -0.09,-0.18 0,-0.54 -0.73,-0.72 -0.91,-1.9 -1.27,-2.9 -9.55,-29.9 -19.11,-59.71 -28.75,-89.71 -0.54,-0.91 -0.45,-0.91 -0.54,-1.72 -0.09,-0.27 -0.27,-0.45 -0.27,-0.63 -0.27,-0.91 -0.09,-0.27 0,-0.64 -0.45,-0.63 -0.64,-0.72 -0.36,-1.36 -0.45,-0.45 -0.45,-0.36 -0.64,-1 -0.36,-0.91 -0.09,-0.45 0,-0.82 -0.36,-0.45 -0.45,-0.36 -0.64,-0.91 -0.27,-0.91 -0.09,-0.54 0.09,-0.81 -0.73,-0.91 -1,-2.27 -1.36,-3.26 -0.27,-1 -0.64,-1.99 -1,-3.17 1.36,0.54 7.55,2.63 8.37,3.35 0.55,0.09 0,-0.09 0.82,0.09 0,0 0.54,0.27 0.54,0.27 0.64,0.18 0.82,0.36 1.27,0.72 0.54,0 0.09,-0.09 1,0.09 0.27,0.18 0.27,0.18 0.64,0.36 0.73,0.27 0.91,0.18 1.46,0.72 0.36,0 0.18,0 0.64,0.09 37.03,14.68 74.15,29.45 111.17,44.13 0.73,0.18 1.36,0.36 2,0.91 0.55,-0.09 -0.09,-0.27 0.64,0.09 0.54,0.27 1,0.54 1.55,0.82 0.27,-0.18 -0.18,-0.64 0.55,0.18 0.09,-0.09 0,-0.18 0.64,0 0.46,0.27 0.37,0.18 0.73,0.54 1,-0.09 5.09,1.9 5.73,2.26 -0.64,0.64 -1.27,1.27 -1.91,1.81 -0.36,0.18 -0.64,0.45 -0.91,0.73 -1,1.18 -2.09,2.45 -3.18,3.62 -13.19,14.13 -26.38,28.18 -39.58,42.23 -1.73,1.9 -12.28,13.5 -13.56,13.95 0,0.27 -0.09,0.54 -0.18,0.72 0,0 -0.37,0.45 -0.46,0.45 -2.09,2.27 -4.09,4.44 -6.19,6.52 -0.45,-0.09 -1,-0.18 -1.46,-0.36 -3.18,-0.64 -5.55,-0.82 -9.46,1.54 -0.36,0.27 -0.73,0.36 -1,0.54 -0.82,-0.36 -1.46,-0.72 -2.19,-1.27 -0.82,-0.36 -1.64,-0.72 -2.36,-1.18 -5.37,-2.63 -10.74,-5.35 -16.01,-7.98 -0.82,-0.45 -1.55,-0.81 -2.37,-1.36zm410.12 -278.91c1.18,2.54 1.73,5.62 2.55,8.25 0.45,1.36 2.18,6.79 2.18,7.7 0.27,0.81 0.64,1.54 0.64,2.36 0.36,0.82 0.45,0.82 0.54,1.9 -0.36,0.18 -0.64,0.45 -0.91,0.54 -4.28,3.44 -3.82,5.44 -4.09,8.34 -0.09,0.36 0,0.09 -0.27,0.45 0.27,0.36 0.36,0.09 0.36,0.45 -1.46,0.91 -3.27,1.45 -4.73,2.17 -1.27,0.54 -3.37,1.81 -4.46,1.63 -1.18,0.91 -16.92,7.52 -19.65,8.7 -17.92,7.61 -35.94,15.22 -53.86,22.84 -1.09,0.36 -3.91,1.9 -4.82,1.81 -0.82,0.63 -0.91,0.63 -1.91,1.09 -0.09,0 -0.64,0.27 -0.82,0.36 -0.91,0.18 -0.27,0.18 -0.73,0 -1.09,0.91 -2.55,1.27 -3.64,1.9 -0.36,-0.81 -1.18,-4.62 -0.91,-5.62 -0.55,-0.73 -0.36,-0.27 -0.55,-1.18 -0.09,-0.72 -0.18,-0.72 0.09,-1.27 -0.09,0 -0.18,-0.18 -0.18,-0.18 -0.54,-0.91 -0.27,-0.36 0,-0.63 -0.64,-0.81 -0.36,-0.27 -0.09,-0.72 -0.27,-0.36 -0.36,-0.27 -0.45,-0.91 -0.09,-0.81 -0.09,-0.45 0.09,-1.09 -0.73,-0.73 -2.55,-12.14 -2.73,-13.41 -4.09,-22.38 -8.19,-44.94 -12.28,-67.42 -1.55,-7.7 -2.82,-18.12 -4.55,-25.19 -0.27,-1.36 -0.27,-1 -0.09,-1.72 -0.55,-0.73 -0.55,-1.54 -0.55,-2.45 -0.18,-0.54 -0.36,-1.09 -0.45,-1.54 0,-0.09 0,-0.64 0,-0.73 -0.09,-0.72 -0.09,-0.27 0,-0.72 -0.54,-0.73 -1.55,-6.89 -1.55,-8.07 1.18,0.45 5.28,2.45 5.82,3.08 1,0.18 2.27,1 3.09,1.54 0.18,0.18 0.36,0.27 0.54,0.36 0.55,0.09 0.18,-0.09 0.91,0.27 0.27,0.09 0.27,0.18 0.45,0.18 1,0.45 2.18,0.91 2.91,1.81 1.27,-0.09 10.74,5.17 11.83,5.71 4,1.99 7.73,3.9 11.56,5.89 23.38,11.6 46.94,23.92 70.23,35.79 0.82,0.54 2.09,1 2.82,1.63 0.73,0.09 0.64,0 1.27,0.45 0.54,0.27 0.82,0.45 1.27,0.81 0.36,0.18 0.82,0.45 1.18,0.54 0.45,0.18 -0.18,-0.09 0.64,0.27 0.73,0.27 -0.09,-0.09 0.64,0.54 0.55,0.09 1.91,0.54 2.09,1.18 0.18,0.27 0.64,1.81 0.55,2.26z"/>
   <line class="fil3 str0" x1="555.66" y1="873.83" x2="1563.06" y2= "1455.45" />
  </g>
 </g>
</svg>
