<svg xmlns="http://www.w3.org/2000/svg" width="801" height="112" fill="none" viewBox="0 0 801 112"><g clip-path="url(#clip0)"><rect width="801" height="112" fill="#fff"/><g clip-path="url(#clip1)"><path fill="#3E3E3E" d="M371.185 48.0274V76.5359H365.008V72.418C362.87 75.4273 359.465 77.2486 355.03 77.2486C347.269 77.2486 340.855 70.6758 340.855 62.2816C340.855 53.8083 347.269 47.3146 355.03 47.3146C359.465 47.3146 362.87 49.136 365.008 52.0661V48.0274H371.185ZM365.008 62.2816C365.008 56.9759 361.128 53.1747 355.98 53.1747C350.833 53.1747 346.953 56.9759 346.953 62.2816C346.953 67.5874 350.833 71.3885 355.98 71.3885C361.128 71.3885 365.008 67.5874 365.008 62.2816Z"/><path fill="#3E3E3E" d="M378.391 34.8817H384.568V76.5359H378.391V34.8817Z"/><path fill="#3E3E3E" d="M433.587 58.7972V76.4567H427.41V59.1932C427.41 55.2337 425.272 53.0163 421.867 53.0163C418.224 53.0163 415.69 55.392 415.69 60.5394V76.5359H409.513V59.1932C409.513 55.2337 407.533 53.0163 404.128 53.0163C400.644 53.0163 397.793 55.392 397.793 60.5394V76.5359H391.616V48.0273H397.793V51.4325C399.614 48.6608 402.386 47.2354 405.949 47.2354C409.671 47.2354 412.364 48.8984 414.027 51.7493C415.927 48.8192 418.937 47.2354 422.738 47.2354C429.231 47.2354 433.587 51.6701 433.587 58.7972Z"/><path fill="#3E3E3E" d="M468.906 48.0274V76.5359H462.729V72.418C460.591 75.4273 457.186 77.2486 452.751 77.2486C444.99 77.2486 438.576 70.6758 438.576 62.2816C438.576 53.8083 444.99 47.3146 452.751 47.3146C457.186 47.3146 460.591 49.136 462.729 52.0661V48.0274H468.906ZM462.729 62.2816C462.729 56.9759 458.849 53.1747 453.701 53.1747C448.554 53.1747 444.673 56.9759 444.673 62.2816C444.673 67.5874 448.554 71.3885 453.701 71.3885C458.849 71.3885 462.729 67.5874 462.729 62.2816Z"/><path fill="#3E3E3E" d="M491 47.4729V54.1249C486.961 53.8081 482.21 55.7087 482.21 62.1231V76.4566H476.033V47.948H482.21V52.6995C483.952 48.8983 487.436 47.4729 491 47.4729Z"/><path fill="#3E3E3E" d="M340.538 76.5359L327.551 61.9648L340.142 48.0273H332.619L320.344 61.9648L323.908 66.0827L333.253 76.5359H340.538Z"/><path fill="#40D27E" d="M314.326 65.5283C316.163 65.5283 317.652 64.0392 317.652 62.2023C317.652 60.3654 316.163 58.8763 314.326 58.8763C312.489 58.8763 311 60.3654 311 62.2023C311 64.0392 312.489 65.5283 314.326 65.5283Z"/><path fill="#2BA5F8" d="M314.326 76.4567C316.163 76.4567 317.652 74.9676 317.652 73.1307C317.652 71.2938 316.163 69.8047 314.326 69.8047C312.489 69.8047 311 71.2938 311 73.1307C311 74.9676 312.489 76.4567 314.326 76.4567Z"/><path fill="#FCB82B" d="M314.326 54.7585C316.163 54.7585 317.652 53.2694 317.652 51.4325C317.652 49.5956 316.163 48.1065 314.326 48.1065C312.489 48.1065 311 49.5956 311 51.4325C311 53.2694 312.489 54.7585 314.326 54.7585Z"/><path fill="#E6403B" d="M314.326 43.9094C316.163 43.9094 317.652 42.4203 317.652 40.5834C317.652 38.7465 316.163 37.2574 314.326 37.2574C312.489 37.2574 311 38.7465 311 40.5834C311 42.4203 312.489 43.9094 314.326 43.9094Z"/></g><circle cx="176" cy="20" r="51" fill="#E6403B"/><circle cx="613" cy="99" r="43" fill="#2BA5F8" transform="rotate(-180 613 99)"/><circle cx="71.5" cy="100.5" r="29.5" fill="#FCB82B"/><circle cx="221.5" cy="115.5" r="20.5" fill="#2BA5F8"/><circle cx="783.5" cy="97.5" r="31.5" fill="#E6403B"/><circle cx="557.5" cy=".5" r="25.5" fill="#40D27E"/><circle cx="-2.5" cy="17.5" r="38.5" fill="#40D27E"/><ellipse cx="697" cy="30.5" fill="#FCB82B" rx="25" ry="24.5" transform="rotate(-180 697 30.5)"/></g><defs><clipPath id="clip0"><rect width="801" height="112" fill="#fff"/></clipPath><clipPath id="clip1"><rect width="180" height="42.367" fill="#fff" transform="translate(311 34.8817)"/></clipPath></defs></svg>