<?xml version="1.0" encoding="iso-8859-1"?>
<!-- Generator: Adobe Illustrator 19.0.0, SVG Export Plug-In . SVG Version: 6.00 Build 0)  -->
<svg version="1.1" id="Layer_1" xmlns="http://www.w3.org/2000/svg" xmlns:xlink="http://www.w3.org/1999/xlink" x="0px" y="0px"
	 viewBox="0 0 512 512" style="enable-background:new 0 0 512 512;" xml:space="preserve">
<circle style="fill:#F0F0F0;" cx="256" cy="256" r="256"/>
<g>
	<path style="fill:#D80027;" d="M512,256c0-101.494-59.065-189.19-144.696-230.598v461.195C452.935,445.19,512,357.494,512,256z"/>
	<path style="fill:#D80027;" d="M0,256c0,101.494,59.065,189.19,144.696,230.598V25.402C59.065,66.81,0,154.506,0,256z"/>
	<polygon style="fill:#D80027;" points="300.522,289.391 345.043,267.13 322.783,256 322.783,233.739 278.261,256 300.522,211.478 
		278.261,211.478 256,178.087 233.739,211.478 211.478,211.478 233.739,256 189.217,233.739 189.217,256 166.957,267.13 
		211.478,289.391 200.348,311.652 244.87,311.652 244.87,345.043 267.13,345.043 267.13,311.652 311.652,311.652 	"/>
</g>
<g>
</g>
<g>
</g>
<g>
</g>
<g>
</g>
<g>
</g>
<g>
</g>
<g>
</g>
<g>
</g>
<g>
</g>
<g>
</g>
<g>
</g>
<g>
</g>
<g>
</g>
<g>
</g>
<g>
</g>
</svg>
