<?xml version="1.0" encoding="iso-8859-1"?>
<!-- Generator: Adobe Illustrator 19.0.0, SVG Export Plug-In . SVG Version: 6.00 Build 0)  -->
<svg version="1.1" id="Layer_1" xmlns="http://www.w3.org/2000/svg" xmlns:xlink="http://www.w3.org/1999/xlink" x="0px" y="0px"
	 viewBox="0 0 512 512" style="enable-background:new 0 0 512 512;" xml:space="preserve">
<path style="fill:#D80027;" d="M512,256c0,141.384-114.616,256-256,256S0,397.384,0,256C87.93,168.07,162.504,93.496,256,0
	C397.384,0,512,114.616,512,256z"/>
<path style="fill:#0052B4;" d="M256,256c0-141.384,0-158.052,0-256C114.616,0,0,114.616,0,256H256z"/>
<polygon style="fill:#F0F0F0;" points="222.609,149.821 191.344,164.529 207.992,194.808 174.043,188.312 169.74,222.609 
	146.094,197.385 122.446,222.609 118.145,188.312 84.195,194.806 100.843,164.527 69.579,149.821 100.844,135.116 84.195,104.836 
	118.144,111.331 122.447,77.035 146.094,102.259 169.741,77.035 174.043,111.331 207.993,104.836 191.344,135.117 "/>
<circle style="fill:#0052B4;" cx="146.098" cy="149.816" r="47.653"/>
<path style="fill:#F0F0F0;" d="M146.094,175.213c-14.001,0-25.391-11.391-25.391-25.392c0-14.001,11.391-25.392,25.391-25.392
	c14.001,0,25.392,11.391,25.392,25.392C171.485,163.822,160.093,175.213,146.094,175.213z"/>
<g>
</g>
<g>
</g>
<g>
</g>
<g>
</g>
<g>
</g>
<g>
</g>
<g>
</g>
<g>
</g>
<g>
</g>
<g>
</g>
<g>
</g>
<g>
</g>
<g>
</g>
<g>
</g>
<g>
</g>
</svg>
