<svg xmlns="http://www.w3.org/2000/svg" width="1660" height="730" fill="none" xmlns:v="https://vecta.io/nano"><g opacity=".6" filter="url(#A)"><path d="M792.773-529l9.087 766.411 86.429-761.229-68.356 763.195L982.758-508.33 837.709 243.288l237.441-725.993-220.158 731.806 309.448-696.325-292.846 703.976 378.066-659.028-362.328 668.434 442.548-614.511-427.846 625.568 502.176-563.26-488.671 575.847 556.301-505.839-544.141 519.819 604.331-442.876-593.649 458.095 645.739-375.06-636.653 391.351L1627.55 32.157l-672.691 320.32 706.961-227.889-701.346 245.779 726.106-150.145-722.327 168.546 737.287-70.758-735.388 89.466 740.398 9.406-740.398 9.406 735.388 89.465-737.287-70.757 722.327 168.546-726.106-150.146 701.346 245.779-706.961-227.888 672.691 320.32-680.083-303.135 636.653 391.351-645.739-375.06 593.649 458.094-604.331-442.875L1471.84 1049.8 915.539 543.961l488.671 575.849-502.176-563.261 427.846 625.571-442.548-614.514 362.328 668.434-378.066-659.029 292.846 703.979-309.448-696.327 220.158 731.807-237.441-725.994 145.049 751.614-162.825-747.703 68.356 763.193-86.429-761.227-9.087 766.407-9.086-766.407-86.429 761.227 68.356-763.193-162.825 747.703 145.049-751.614-237.436 725.994 220.153-731.807-309.447 696.327 292.845-703.979-378.066 659.029 362.328-668.434-442.544 614.514 427.842-625.571L181.34 1119.81l488.668-575.849L113.707 1049.8l544.141-519.818L53.515 972.857l593.651-458.094L1.422 889.823 638.08 498.472-42 801.607l672.688-320.32-706.965 227.888 701.349-245.779-726.104 150.146 722.326-168.546-737.288 70.757 735.388-89.465L-121 416.882l740.394-9.406-735.388-89.466 737.288 70.758-722.326-168.546 726.104 150.145-701.349-245.779 706.965 227.889L-42 32.157l680.08 303.135L1.422-56.059l645.744 375.06L53.515-139.094l604.333 442.876-544.141-519.819 556.301 505.839L181.34-286.045l502.173 563.26-427.842-625.568 442.544 614.511-362.328-668.434 378.066 659.028-292.845-703.976 309.447 696.325-220.153-731.806 237.436 725.993L602.789-508.33l162.825 747.707-68.356-763.195 86.429 761.229L792.773-529z" fill="url(#B)" fill-opacity=".5"/></g><defs><filter id="A" x="-142.055" y="-550.055" width="1869.66" height="1933.87" filterUnits="userSpaceOnUse" color-interpolation-filters="sRGB"><feFlood flood-opacity="0"/><feBlend in="SourceGraphic"/><feGaussianBlur stdDeviation="10.527"/></filter><radialGradient id="B" cx="0" cy="0" r="1" gradientUnits="userSpaceOnUse" gradientTransform="translate(792.773 416.882) rotate(90) scale(945.882 913.773)"><stop offset=".115" stop-color="#fff" stop-opacity="0"/><stop offset=".375" stop-color="#fff"/><stop offset="1" stop-color="#fff" stop-opacity="0"/></radialGradient></defs></svg>