<svg xmlns="http://www.w3.org/2000/svg" width="192" height="118" fill="none" viewBox="0 0 192 118"><path fill="url(#paint0_linear_1286_30581)" d="M13.7775 70.3071L1.5 86.701H94.5V27L91.5593 30.1422L85.6779 36.9729H82.5166L79.7964 41.0714H76.8557H74.8708L70.9743 58.0117L60.9024 41.0714L53.9917 53.3668L49.8747 49.8148L44.4344 53.3668L40.5379 58.0117C40.1213 59.0591 39.0529 61.1539 38.1119 61.1539H35.6123H33.1862L27.0107 66.6185L23.6289 73.4493L13.7775 70.3071Z"/><path stroke="#31D0AA" stroke-width="3" d="M1.5 86.701L13.7775 70.3071L23.6289 73.4493L27.0107 66.6185L33.1862 61.1539H35.6123C36.0534 61.1539 37.1708 61.1539 38.1119 61.1539C39.0529 61.1539 40.1213 59.0591 40.5379 58.0117L44.4344 53.3668L49.8747 49.8148L53.9917 53.3668L60.9024 41.0714L70.9743 58.0117L74.8707 41.0714H76.8557H79.7964L82.5166 36.9729H85.6779L91.5593 30.1422L94.5 27"/><g filter="url(#filter0_dd_1286_30581)"><ellipse cx="88.5" cy="29" fill="#fff" rx="8" ry="8"/><path stroke="#7645D9" stroke-width="4.356" d="M94.322 29C94.322 32.2154 91.7154 34.822 88.5 34.822C85.2846 34.822 82.678 32.2154 82.678 29C82.678 25.7846 85.2846 23.178 88.5 23.178C91.7154 23.178 94.322 25.7846 94.322 29Z"/></g><line x1="96" x2="115" y1="28.5" y2="28.5" stroke="#7645D9" stroke-linecap="round" stroke-width="5"/><path fill="#FAF9FA" d="M180.783 28.6299C181.362 22.3344 176.729 16.7611 170.433 16.1815L126.975 12.1804C120.679 11.6008 115.106 16.2344 114.526 22.5299L108.754 85.2241C108.175 91.5196 112.808 97.0929 119.104 97.6725L162.562 101.674C168.858 102.253 174.431 97.6196 175.011 91.3241L180.783 28.6299Z"/><path fill="#BDC2C4" fill-rule="evenodd" d="M126.791 14.172L170.25 18.1731C175.445 18.6514 179.269 23.251 178.791 28.4465L173.019 91.1408C172.541 96.3363 167.941 100.16 162.745 99.682L119.287 95.6809C114.091 95.2026 110.267 90.603 110.746 85.4075L116.518 22.7132C116.996 17.5177 121.596 13.6936 126.791 14.172ZM170.433 16.1815C176.729 16.7611 181.362 22.3344 180.783 28.6299L175.011 91.3241C174.431 97.6196 168.858 102.253 162.562 101.674L119.104 97.6725C112.808 97.0929 108.175 91.5196 108.754 85.2241L114.526 22.5299C115.106 16.2344 120.679 11.6008 126.975 12.1804L170.433 16.1815Z" clip-rule="evenodd"/><path fill="#fff" d="M175 44.6223C175.217 42.2615 173.479 40.1715 171.118 39.9541L121.961 35.4283C119.6 35.2109 117.51 36.9485 117.292 39.3093L114.538 69.2316C114.32 71.5924 116.058 73.6824 118.419 73.8997L167.577 78.4255C169.937 78.6429 172.027 76.9053 172.245 74.5445L175 44.6223Z"/><path fill="#BDC2C4" fill-rule="evenodd" d="M121.777 37.4199L170.935 41.9457C172.196 42.0618 173.124 43.178 173.008 44.4389L170.253 74.3611C170.137 75.622 169.021 76.5501 167.76 76.434L118.602 71.9082C117.341 71.7921 116.413 70.6758 116.529 69.4149L119.284 39.4927C119.4 38.2318 120.516 37.3038 121.777 37.4199ZM171.118 39.9541C173.479 40.1715 175.217 42.2615 175 44.6223L172.245 74.5445C172.027 76.9053 169.937 78.6429 167.577 78.4255L118.419 73.8997C116.058 73.6824 114.32 71.5924 114.538 69.2316L117.292 39.3093C117.51 36.9485 119.6 35.2109 121.961 35.4283L171.118 39.9541Z" clip-rule="evenodd"/><path fill="#ED4B9E" d="M167.685 65.5031C167.902 63.1423 166.164 61.0523 163.804 60.835L125.332 57.293C122.971 57.0757 120.881 58.8133 120.664 61.1741L120.467 63.3114C120.25 65.6722 121.987 67.7622 124.348 67.9795L162.82 71.5215C165.18 71.7388 167.27 70.0012 167.488 67.6404L167.685 65.5031Z"/><path fill="#31D0AA" d="M169.062 50.5422C169.279 48.1814 167.542 46.0914 165.181 45.874L126.71 42.3321C124.349 42.1147 122.259 43.8523 122.041 46.2131L121.845 48.3504C121.627 50.7112 123.365 52.8012 125.726 53.0186L164.197 56.5605C166.558 56.7779 168.648 55.0403 168.865 52.6795L169.062 50.5422Z"/><path fill="#BDC2C4" d="M165.968 37.3244L153.522 24.0266C150.548 20.8491 145.666 20.3997 142.162 22.9808L127.497 33.7825L165.968 37.3244Z"/><path fill="#BDC2C4" d="M162.033 80.0706L147.367 90.8723C143.863 93.4533 138.982 93.0039 136.008 89.8264L123.561 76.5287L162.033 80.0706Z"/><defs><filter id="filter0_dd_1286_30581" width="20.356" height="21.445" x="78.322" y="19.911" color-interpolation-filters="sRGB" filterUnits="userSpaceOnUse"><feFlood flood-opacity="0" result="BackgroundImageFix"/><feColorMatrix in="SourceAlpha" result="hardAlpha" type="matrix" values="0 0 0 0 0 0 0 0 0 0 0 0 0 0 0 0 0 0 127 0"/><feMorphology in="SourceAlpha" operator="erode" radius="4.356" result="effect1_dropShadow_1286_30581"/><feOffset dy="2.178"/><feGaussianBlur stdDeviation="3.267"/><feColorMatrix type="matrix" values="0 0 0 0 0.054902 0 0 0 0 0.054902 0 0 0 0 0.172549 0 0 0 0.1 0"/><feBlend in2="BackgroundImageFix" mode="normal" result="effect1_dropShadow_1286_30581"/><feColorMatrix in="SourceAlpha" result="hardAlpha" type="matrix" values="0 0 0 0 0 0 0 0 0 0 0 0 0 0 0 0 0 0 127 0"/><feOffset/><feGaussianBlur stdDeviation=".544"/><feColorMatrix type="matrix" values="0 0 0 0 0 0 0 0 0 0 0 0 0 0 0 0 0 0 0.2 0"/><feBlend in2="effect1_dropShadow_1286_30581" mode="normal" result="effect2_dropShadow_1286_30581"/><feBlend in="SourceGraphic" in2="effect2_dropShadow_1286_30581" mode="normal" result="shape"/></filter><linearGradient id="paint0_linear_1286_30581" x1="48" x2="48" y1="27" y2="86.701" gradientUnits="userSpaceOnUse"><stop stop-color="#00E7B0" stop-opacity=".34"/><stop offset="1" stop-color="#0C8B6C" stop-opacity="0"/></linearGradient></defs></svg>