<svg xmlns="http://www.w3.org/2000/svg" xmlns:v="https://vecta.io/nano" width="186" height="179" fill="none"><g fill="#606063"><path d="M67.045 119.028c-3.178 12.144 15 27.421 40.602 34.121s48.934 2.287 52.112-9.858-15-27.421-40.602-34.122-48.934-2.286-52.112 9.859z"/><path d="M155.924 149.273l15.422-16.285-109.354-28.619 5.721 21.818 88.211 23.086z"/><path d="M68.934 108.293L27.073 97.338c-1.815-.475-3.66.654-4.063 2.486l-.468 2.129a8.26 8.26 0 0 0 5.746 9.7l41.812 12.239-1.166-15.599z"/></g><path fill="url(#A)" d="M62.203 98.71c-3.694 14.114 18.324 32.101 49.178 40.176s58.86 3.178 62.554-10.936-18.324-32.101-49.178-40.176-58.861-3.179-62.554 10.935z"/><g fill-rule="evenodd"><path fill="#606063" d="M146.673 123.286c7.098 5.22 11.246 10.866 11.865 15.871l2.978-.368c-.772-6.238-5.737-12.531-13.066-17.92-7.389-5.435-17.439-10.148-28.913-13.151s-22.544-3.817-31.649-2.699c-9.029 1.109-16.44 4.163-20.168 9.223l2.415 1.779c2.992-4.06 9.373-6.95 18.119-8.024 8.67-1.064 19.354-.299 30.523 2.624s20.859 7.49 27.896 12.665z"/><path fill="#979797" d="M75.734 118.739c-8.721-7.124-11.998-14.041-10.629-19.27s7.614-9.654 18.706-11.593c10.807-1.889 25.078-1.154 40.186 2.8s27.911 10.304 36.406 17.245c8.721 7.124 11.998 14.041 10.63 19.27s-7.614 9.653-18.707 11.593c-10.806 1.889-25.078 1.153-40.186-2.8s-27.91-10.304-36.406-17.245zm35.647 20.147c-30.854-8.075-52.872-26.062-49.178-40.176s31.7-19.01 62.554-10.935 52.872 26.062 49.178 40.176-31.7 19.01-62.554 10.936z"/><path fill="url(#B)" d="M64.167 124.049l-4.937-19.123 2.905-.75 4.937 19.123-2.905.75z"/><path fill="url(#C)" d="M62.469 106.189l-.128-.443-.202-.817-.142-.54c.022-.012.03-.019.028-.027l-.004-.025-.12-.794-.022-.191c-.072-.663-.096-1.321-.071-1.974.035-.903.166-1.793.395-2.668 3.694-14.114 31.7-19.01 62.555-10.936s52.872 26.062 49.178 40.176a12.4 12.4 0 0 1-.963 2.519 13.7 13.7 0 0 1-1.635 2.476l-.016.019c.011.02.014.025.015.029l-.611.651-12.932 13.655c-6.807 9.031-27.596 11.752-50.146 5.85-22.302-5.837-38.971-18.182-40.797-29.295-.093-.569-.484-1.054-1.037-1.215L29.127 111.91a8.26 8.26 0 0 1-5.762-9.635l.459-2.172c.39-1.845 2.242-2.99 4.066-2.514l34.249 8.931a.27.27 0 0 0 .331-.331zm-3.657-3.636c-.064-1.544.091-3.085.488-4.603 2.325-8.885 11.93-13.965 23.478-15.984 11.834-2.069 26.992-1.215 42.738 2.906s29.38 10.802 38.683 18.402c9.078 7.417 14.963 16.551 12.638 25.436-.557 2.129-1.552 4.064-2.901 5.789a3.08 3.08 0 0 1-.425.566l-13.429 14.181c-4.171 5.406-12.026 8.46-21.098 9.556-9.3 1.124-20.517.28-32.096-2.751-11.453-2.997-21.548-7.685-29.079-13.141-7.079-5.13-12.321-11.262-13.743-17.657l-35.782-10.464a11.26 11.26 0 0 1-7.855-13.134l.459-2.173c.744-3.519 4.277-5.704 7.758-4.796l30.165 7.867z"/></g><circle cx="76" cy="29" r="29" fill="#f0b90b"/><path fill="#fffdfa" d="M65.185 29l-4.437 4.468L56.28 29l4.468-4.468L65.185 29zM76 18.185l7.642 7.642 4.468-4.468-7.641-7.611L76 9.28 63.921 21.358l4.468 4.468L76 18.185zm15.252 6.347L86.815 29l4.468 4.468L95.72 29l-4.468-4.468zM76 39.815l-7.641-7.642-4.437 4.468L76 48.72l12.109-12.109-4.468-4.437L76 39.815zm0-6.347L80.468 29 76 24.532 71.532 29 76 33.468z"/><circle cx="76" cy="29" r="27.5" stroke="#191326" stroke-width="3" opacity=".1" style="mix-blend-mode:multiply"/><circle cx="125.5" cy="72.5" r="43.5" fill="#0033ad"/><path fill="#fffdfa" d="M124.785 46.379c1.246-.658 2.751.846 2.092 2.092-.376 1.011-1.833 1.293-2.586.517-.775-.729-.517-2.21.494-2.609zm-13.377 1.457c.753-.306 1.717.376 1.646 1.199.071.893-1.011 1.552-1.787 1.128-1.034-.4-.917-2.069.141-2.328zm27.389 2.351c-1.176-.141-1.364-1.998-.235-2.374.893-.423 1.692.376 1.81 1.223-.165.705-.753 1.363-1.575 1.152zm-24.356 3.338c1.27-.799 3.056.4 2.868 1.857-.07 1.481-2.022 2.351-3.15 1.34-1.058-.799-.893-2.61.282-3.197zm19.301.846c.564-1.458 2.845-1.505 3.48-.094.634 1.105-.142 2.468-1.27 2.845-1.505.282-2.915-1.34-2.21-2.751zm-10.579 2.657c-.023-1.246 1.128-2.186 2.304-2.257.776.164 1.646.494 1.975 1.293.634 1.105.07 2.609-1.058 3.103-.517.282-1.129.188-1.693.141-.87-.423-1.599-1.246-1.528-2.28zm-19.889 1.834c1.152-.705 2.704.588 2.281 1.834-.235 1.081-1.693 1.528-2.539.823-.894-.635-.753-2.21.258-2.657zm42.716 0c.988-.752 2.586.117 2.469 1.34.07 1.128-1.34 1.975-2.304 1.387-1.058-.47-1.152-2.116-.165-2.727zm-17.232 2.233c1.622-.588 3.527.118 4.443 1.552 1.223 1.763.565 4.443-1.316 5.454-1.951 1.199-4.796.188-5.525-1.998-.799-1.951.4-4.396 2.398-5.007zm-9.474.188c1.787-.846 4.208-.141 5.054 1.693 1.011 1.787.236 4.255-1.598 5.195-1.81 1.034-4.396.259-5.266-1.669-.964-1.857-.094-4.349 1.81-5.219zm-9.498 3.244c.141-1.152 1.223-1.904 2.328-1.975 1.175.141 2.139 1.058 2.257 2.257-.071 1.175-.988 2.351-2.257 2.327-1.364.141-2.586-1.246-2.328-2.609zm28.047-1.716c1.41-.823 3.385.376 3.315 1.998.094 1.716-2.093 2.939-3.503 1.928-1.458-.846-1.34-3.221.188-3.926zm-22.405 6.089c1.67-.447 3.55.329 4.373 1.857.894 1.528.517 3.667-.846 4.796-1.787 1.646-5.055.987-5.995-1.269-1.105-2.092.212-4.843 2.468-5.384zm17.985-.023c1.622-.47 3.503.165 4.373 1.622 1.152 1.669.587 4.185-1.105 5.266-1.787 1.269-4.561.588-5.548-1.364-1.199-2.022 0-4.89 2.28-5.525zm-28.658 1.928c1.434-.541 3.033 1.034 2.445 2.468-.352 1.293-2.186 1.763-3.126.823-1.105-.917-.682-2.915.681-3.291zm38.861 2.045c-.047-1.199.823-2.233 2.045-2.304.988.165 1.928.94 1.858 2.022.094 1.411-1.623 2.374-2.822 1.716-.564-.282-.846-.87-1.081-1.434zm-45.914-1.364c.87-.376 1.928.376 1.74 1.34-.047 1.081-1.646 1.505-2.233.588-.517-.635-.212-1.599.494-1.928zm54.377-.023c.612-.423 1.575-.118 1.811.588.399.776-.33 1.834-1.223 1.716-1.199.118-1.599-1.763-.588-2.304zm-31.972 5.219c2.28-.588 4.702 1.293 4.725 3.644.141 2.351-2.257 4.443-4.584 3.903-1.787-.282-3.197-2.022-3.15-3.832 0-1.74 1.316-3.362 3.009-3.714zm8.98 0c2.304-.635 4.82 1.293 4.773 3.667.117 2.327-2.21 4.349-4.491 3.879-2.139-.282-3.714-2.633-3.126-4.702.329-1.387 1.481-2.516 2.844-2.845zm-17.302 1.434c1.598-.282 3.079 1.505 2.445 3.009-.471 1.622-2.822 2.045-3.856.729-1.222-1.246-.329-3.573 1.411-3.738zm26.33.071c1.41-.588 3.174.635 3.056 2.186.047 1.693-2.092 2.868-3.479 1.881-1.575-.917-1.293-3.526.423-4.067zm7.382 7.382c-.564-1.034.446-2.421 1.598-2.21.565 0 .964.447 1.34.823.071.611.212 1.34-.305 1.81-.705.87-2.257.635-2.633-.423zm-42.223-1.928c1.082-.705 2.633.353 2.375 1.599-.118 1.105-1.528 1.74-2.445 1.129-.988-.564-.964-2.21.07-2.727zm21.253 2.327c1.41-.611 3.197.611 3.079 2.163.094 1.716-2.116 2.892-3.503 1.881-1.528-.893-1.269-3.503.424-4.044zm-9.851 2.304c1.199-.635 2.821.47 2.704 1.81.047 1.105-1.035 2.045-2.14 1.881-.893-.023-1.481-.823-1.786-1.599.047-.846.376-1.787 1.222-2.092zm19.96.023c1.222-.752 2.985.329 2.868 1.763.023 1.505-1.952 2.469-3.104 1.481-1.105-.776-.963-2.633.236-3.244zm3.479 8.557c-.541-.823.094-1.834.987-2.022.706.141 1.481.682 1.317 1.505-.118 1.152-1.763 1.481-2.304.517zm-27.553-.705c.212-.658.752-1.317 1.528-1.152 1.129.071 1.458 1.787.47 2.304-.893.611-1.904-.212-1.998-1.152zm13.283.752c.211-.964 1.481-1.458 2.304-.94.54.235.705.846.846 1.364l-.212.823c-.329.4-.775.799-1.34.799-1.034.118-1.998-1.058-1.598-2.045z"/><circle cx="125.5" cy="72.5" r="42.082" stroke="#191326" stroke-width="2.837" opacity=".2" style="mix-blend-mode:multiply"/><defs><linearGradient id="A" x1="124.757" x2="111.381" y1="87.774" y2="138.886" gradientUnits="userSpaceOnUse"><stop stop-color="#404042"/><stop offset="1" stop-color="#48484b"/></linearGradient><linearGradient id="B" x1="65.567" x2="60.735" y1="105.096" y2="123.129" gradientUnits="userSpaceOnUse"><stop stop-color="#404042"/><stop offset="1" stop-color="#48484b"/></linearGradient><linearGradient id="C" x1="92.495" x2="108.09" y1="80.169" y2="164.62" gradientUnits="userSpaceOnUse"><stop stop-color="#404042"/><stop offset="1" stop-color="#48484b"/></linearGradient></defs></svg>