<svg width="160" height="160" viewBox="0 0 160 160" fill="none" xmlns="http://www.w3.org/2000/svg">
<g clip-path="url(#clip0)">
<path d="M48.045 119.028C44.8667 131.172 63.0449 146.449 88.6472 153.149C114.25 159.85 137.581 155.436 140.759 143.291C143.937 131.147 125.759 115.87 100.157 109.17C74.5546 102.469 51.2233 106.883 48.045 119.028Z" fill="#606063"/>
<path d="M136.924 149.273L152.346 132.988L42.9922 104.37L48.7128 126.188L136.924 149.273Z" fill="#606063"/>
<path d="M49.9337 108.293L8.07245 97.3381C6.25796 96.8632 4.41259 97.9925 4.00962 99.8243L3.54142 101.953C2.60839 106.194 5.11954 110.434 9.28748 111.653L51.0994 123.892L49.9337 108.293Z" fill="#606063"/>
<path d="M43.2026 98.7094C39.5089 112.823 61.5267 130.811 92.3808 138.886C123.235 146.96 151.241 142.064 154.935 127.95C158.629 113.836 136.611 95.8485 105.757 87.7739C74.9028 79.6993 46.8963 84.5953 43.2026 98.7094Z" fill="url(#paint0_linear)"/>
<path fill-rule="evenodd" clip-rule="evenodd" d="M127.673 123.286C134.771 128.506 138.919 134.152 139.538 139.157L142.516 138.789C141.744 132.551 136.779 126.258 129.45 120.869C122.061 115.434 112.011 110.721 100.537 107.718C89.0628 104.716 77.9927 103.902 68.888 105.019C59.8593 106.128 52.4479 109.182 48.7196 114.242L51.1348 116.021C54.1263 111.961 60.5082 109.071 69.2536 107.997C77.9231 106.933 88.6081 107.698 99.7773 110.621C110.946 113.544 120.636 118.111 127.673 123.286Z" fill="#606063"/>
<path fill-rule="evenodd" clip-rule="evenodd" d="M56.7343 118.739C48.0136 111.615 44.7365 104.698 46.1049 99.4689C47.4733 94.24 53.7186 89.8153 64.8112 87.8761C75.6178 85.9869 89.8893 86.7224 104.997 90.6762C120.105 94.63 132.908 100.98 141.403 107.92C150.124 115.045 153.401 121.962 152.033 127.191C150.664 132.419 144.419 136.844 133.326 138.783C122.52 140.673 108.248 139.937 93.1403 135.983C78.0323 132.029 65.2301 125.68 56.7343 118.739ZM92.3808 138.886C61.5267 130.811 39.5089 112.823 43.2026 98.7094C46.8963 84.5953 74.9028 79.6993 105.757 87.7739C136.611 95.8485 158.629 113.836 154.935 127.95C151.241 142.064 123.235 146.96 92.3808 138.886Z" fill="#979797"/>
<path fill-rule="evenodd" clip-rule="evenodd" d="M45.1673 124.049L40.2305 104.926L43.1352 104.177L48.0721 123.299L45.1673 124.049Z" fill="url(#paint1_linear)"/>
<path fill-rule="evenodd" clip-rule="evenodd" d="M43.4691 106.189C43.4241 106.041 43.3812 105.893 43.3406 105.746C43.2656 105.473 43.1983 105.2 43.1386 104.929L42.997 104.389C42.9948 104.38 43.0025 104.372 43.0109 104.375C43.019 104.377 43.0266 104.37 43.0251 104.362C43.0236 104.353 43.0222 104.345 43.0207 104.337C42.9732 104.072 42.9333 103.807 42.9009 103.543C42.8931 103.479 42.8857 103.416 42.8788 103.352C42.8065 102.689 42.7824 102.031 42.8078 101.378C42.8079 101.378 42.8079 101.378 42.8079 101.377C42.8432 100.475 42.9734 99.5849 43.2025 98.7095C46.8962 84.5954 74.9027 79.6994 105.757 87.774C136.611 95.8486 158.629 113.836 154.935 127.95C154.706 128.826 154.383 129.666 153.972 130.469C153.972 130.469 153.972 130.47 153.972 130.47C153.528 131.338 152.981 132.163 152.337 132.945C152.332 132.951 152.326 132.958 152.321 132.964C152.319 132.967 152.318 132.969 152.318 132.972C152.318 132.977 152.322 132.982 152.327 132.983C152.332 132.984 152.335 132.989 152.336 132.993C152.336 132.996 152.335 133 152.333 133.002L151.725 133.644C151.655 133.72 151.584 133.795 151.511 133.87L150.275 135.175L150.273 135.177L138.793 147.299C131.986 156.33 111.197 159.051 88.6472 153.149C66.3446 147.312 49.6757 134.967 47.8505 123.854C47.7571 123.285 47.3667 122.8 46.8135 122.639L10.1271 111.91C5.98342 110.698 3.4722 106.499 4.36483 102.275L4.82393 100.103C5.21371 98.2581 7.06553 97.1133 8.88976 97.589L43.1386 106.52C43.3391 106.573 43.5217 106.39 43.4691 106.189ZM39.8119 102.553C39.7482 101.009 39.9029 99.4681 40.3002 97.9499C42.6255 89.0648 52.2303 83.9845 63.7779 81.9658C75.6114 79.8971 90.7702 80.751 106.516 84.8718C122.262 88.9926 135.896 95.6738 145.199 103.274C154.277 110.691 160.162 119.825 157.837 128.71C157.28 130.839 156.285 132.774 154.936 134.499C154.821 134.697 154.679 134.887 154.511 135.065L153.923 135.686C153.92 135.689 153.916 135.693 153.913 135.697C153.836 135.779 153.759 135.861 153.68 135.943C153.677 135.946 153.673 135.95 153.67 135.953L141.082 149.246C136.911 154.652 129.056 157.706 119.984 158.802C110.684 159.926 99.4667 159.082 87.8877 156.051C76.4351 153.054 66.3397 148.366 58.8095 142.91C51.73 137.78 46.4882 131.648 45.0667 125.253L9.28503 114.789C3.63618 113.137 0.212785 107.413 1.42965 101.655L1.88875 99.4823C2.63251 95.9628 6.16596 93.7783 9.64679 94.6861L39.8119 102.553Z" fill="url(#paint2_linear)"/>
<circle cx="57" cy="29" r="29" fill="#F0B90B"/>
<path d="M46.1848 29L41.7478 33.4678L37.28 29L41.7478 24.5322L46.1848 29ZM57 18.1848L64.6415 25.8263L69.1093 21.3585L61.4678 13.7478L57 9.28003L52.5322 13.7478L44.9215 21.3585L49.3893 25.8263L57 18.1848ZM72.2522 24.5322L67.8152 29L72.283 33.4678L76.72 29L72.2522 24.5322ZM57 39.8152L49.3585 32.1737L44.9215 36.6415L52.563 44.283L57 48.72L61.4678 44.2522L69.1093 36.6107L64.6415 32.1737L57 39.8152ZM57 33.4678L61.4678 29L57 24.5322L52.5322 29L57 33.4678Z" fill="#FFFDFA"/>
<g style="mix-blend-mode:multiply" opacity="0.1">
<path fill-rule="evenodd" clip-rule="evenodd" d="M57 55C71.3594 55 83 43.3594 83 29C83 14.6406 71.3594 3 57 3C42.6406 3 31 14.6406 31 29C31 43.3594 42.6406 55 57 55ZM57 58C73.0163 58 86 45.0163 86 29C86 12.9837 73.0163 0 57 0C40.9837 0 28 12.9837 28 29C28 45.0163 40.9837 58 57 58Z" fill="#191326"/>
</g>
<circle cx="106.5" cy="72.5" r="43.5" fill="#0033AD"/>
<path d="M105.785 46.3789C107.031 45.7206 108.536 47.2252 107.877 48.4712C107.501 49.4821 106.044 49.7642 105.291 48.9884C104.516 48.2596 104.774 46.7785 105.785 46.3789ZM92.4084 47.8364C93.1607 47.5308 94.1246 48.2126 94.054 49.0354C94.1246 49.9288 93.0431 50.587 92.2673 50.1639C91.2329 49.7642 91.3505 48.095 92.4084 47.8364ZM119.797 50.1874C118.621 50.0463 118.433 48.1891 119.562 47.8129C120.455 47.3898 121.254 48.1891 121.372 49.0354C121.207 49.7407 120.619 50.3989 119.797 50.1874ZM95.4411 53.5257C96.7106 52.7264 98.4973 53.9253 98.3092 55.3829C98.2387 56.864 96.2874 57.7338 95.159 56.7229C94.1011 55.9236 94.2656 54.1134 95.4411 53.5257ZM114.742 54.372C115.306 52.9144 117.587 52.8674 118.222 54.278C118.856 55.3829 118.08 56.7464 116.952 57.1226C115.447 57.4047 114.037 55.7826 114.742 54.372ZM104.163 57.0285C104.14 55.7825 105.291 54.8422 106.467 54.7717C107.243 54.9362 108.113 55.2654 108.442 56.0647C109.076 57.1696 108.512 58.6742 107.384 59.1679C106.867 59.45 106.255 59.356 105.691 59.3089C104.821 58.8858 104.092 58.0629 104.163 57.0285ZM84.2742 58.8623C85.4262 58.157 86.9778 59.45 86.5546 60.696C86.3195 61.7774 84.8619 62.2241 84.0156 61.5188C83.1223 60.8841 83.2633 59.3089 84.2742 58.8623ZM126.99 58.8623C127.978 58.11 129.576 58.9798 129.459 60.2023C129.529 61.3307 128.119 62.1771 127.155 61.5893C126.097 61.1192 126.003 59.4735 126.99 58.8623ZM109.758 61.0956C111.38 60.5079 113.285 61.2132 114.201 62.6473C115.424 64.4104 114.766 67.0905 112.885 68.1014C110.934 69.3004 108.089 68.2895 107.36 66.1031C106.561 64.1518 107.76 61.7069 109.758 61.0956ZM100.284 61.2837C102.071 60.4374 104.492 61.1427 105.338 62.9764C106.349 64.7631 105.574 67.2316 103.74 68.1719C101.93 69.2063 99.3436 68.4305 98.4738 66.5028C97.5099 64.6455 98.3797 62.1536 100.284 61.2837ZM90.7863 64.528C90.9273 63.376 92.0087 62.6237 93.1137 62.5532C94.2891 62.6943 95.253 63.6111 95.3706 64.8101C95.3 65.9856 94.3832 67.161 93.1137 67.1375C91.7501 67.2786 90.5277 65.8915 90.7863 64.528ZM118.833 62.8118C120.243 61.989 122.218 63.188 122.148 64.8101C122.242 66.5263 120.055 67.7488 118.645 66.7379C117.187 65.8915 117.305 63.5171 118.833 62.8118ZM96.4285 68.9007C98.0976 68.454 99.9784 69.2298 100.801 70.7579C101.695 72.286 101.318 74.4254 99.9549 75.5538C98.1682 77.1995 94.9004 76.5412 93.96 74.2843C92.8551 72.192 94.1716 69.4414 96.4285 68.9007ZM114.413 68.8772C116.035 68.407 117.916 69.0418 118.786 70.4993C119.938 72.1685 119.373 74.684 117.681 75.7654C115.894 77.0349 113.12 76.3531 112.133 74.4019C110.934 72.3801 112.133 69.5119 114.413 68.8772ZM85.7553 70.805C87.1894 70.2642 88.788 71.8394 88.2002 73.2734C87.8476 74.5664 86.0139 75.0366 85.0735 74.0962C83.9686 73.1794 84.3918 71.1811 85.7553 70.805ZM124.616 72.8503C124.569 71.6513 125.439 70.6169 126.661 70.5463C127.649 70.7109 128.589 71.4867 128.519 72.5681C128.613 73.9787 126.896 74.9426 125.697 74.2843C125.133 74.0022 124.851 73.4145 124.616 72.8503ZM78.7025 71.4867C79.5724 71.1106 80.6303 71.8629 80.4422 72.8267C80.3952 73.9082 78.7966 74.3313 78.2088 73.4145C77.6916 72.7797 77.9972 71.8158 78.7025 71.4867ZM133.079 71.4632C133.691 71.04 134.654 71.3457 134.89 72.0509C135.289 72.8267 134.56 73.8847 133.667 73.7671C132.468 73.8847 132.068 72.0039 133.079 71.4632ZM101.107 76.6823C103.387 76.0945 105.809 77.9753 105.832 80.3262C105.973 82.6771 103.575 84.7694 101.248 84.2287C99.4612 83.9466 98.0506 82.2069 98.0976 80.3967C98.0976 78.657 99.4142 77.0349 101.107 76.6823ZM110.087 76.6823C112.391 76.0475 114.907 77.9753 114.86 80.3497C114.977 82.6771 112.65 84.6989 110.369 84.2287C108.23 83.9466 106.655 81.5957 107.243 79.5269C107.572 78.1398 108.724 77.0114 110.087 76.6823ZM92.7845 78.1163C94.3832 77.8342 95.8643 79.6209 95.2295 81.1255C94.7593 82.7476 92.4084 83.1708 91.374 81.8543C90.1515 80.6083 91.0449 78.2809 92.7845 78.1163ZM119.115 78.1868C120.525 77.5991 122.289 78.8216 122.171 80.3732C122.218 82.0659 120.079 83.2413 118.692 82.254C117.117 81.3371 117.399 78.7276 119.115 78.1868ZM126.497 85.5688C125.933 84.5343 126.943 83.1473 128.095 83.3589C128.66 83.3589 129.059 83.8056 129.435 84.1817C129.506 84.7929 129.647 85.5217 129.13 85.9919C128.425 86.8618 126.873 86.6267 126.497 85.5688ZM84.2742 83.641C85.3556 82.9357 86.9072 83.9936 86.6486 85.2396C86.5311 86.3446 85.1205 86.9793 84.2037 86.3681C83.2163 85.8038 83.2398 84.1582 84.2742 83.641ZM105.527 85.9684C106.937 85.3572 108.724 86.5797 108.606 88.1313C108.7 89.8474 106.49 91.0229 105.103 90.012C103.575 89.1186 103.834 86.5091 105.527 85.9684ZM95.6762 88.2723C96.8752 87.6376 98.4973 88.7425 98.3797 90.0825C98.4268 91.1875 97.3453 92.1278 96.2404 91.9633C95.3471 91.9398 94.7593 91.1404 94.4537 90.3646C94.5007 89.5183 94.8299 88.5779 95.6762 88.2723ZM115.636 88.2958C116.858 87.5435 118.621 88.6249 118.504 90.059C118.527 91.5636 116.552 92.5275 115.4 91.5401C114.295 90.7643 114.437 88.9071 115.636 88.2958ZM119.115 96.8532C118.574 96.0304 119.209 95.0195 120.102 94.8314C120.808 94.9725 121.583 95.5132 121.419 96.336C121.301 97.4879 119.656 97.8171 119.115 96.8532ZM91.5621 96.1479C91.7737 95.4896 92.3144 94.8314 93.0902 94.9959C94.2186 95.0665 94.5477 96.7827 93.5604 97.2999C92.667 97.9111 91.6561 97.0883 91.5621 96.1479ZM104.845 96.9002C105.056 95.9363 106.326 95.4426 107.149 95.9598C107.689 96.1949 107.854 96.8062 107.995 97.3234C107.924 97.6055 107.854 97.8641 107.783 98.1462C107.454 98.5458 107.008 98.9455 106.443 98.9455C105.409 99.0631 104.445 97.8876 104.845 96.9002Z" fill="#FFFDFA"/>
<g style="mix-blend-mode:multiply" opacity="0.2">
<path fill-rule="evenodd" clip-rule="evenodd" d="M106.5 113.163C128.958 113.163 147.163 94.9576 147.163 72.5C147.163 50.0424 128.958 31.837 106.5 31.837C84.0424 31.837 65.837 50.0424 65.837 72.5C65.837 94.9576 84.0424 113.163 106.5 113.163ZM106.5 116C130.524 116 150 96.5244 150 72.5C150 48.4756 130.524 29 106.5 29C82.4756 29 63 48.4756 63 72.5C63 96.5244 82.4756 116 106.5 116Z" fill="#191326"/>
</g>
</g>
<defs>
<linearGradient id="paint0_linear" x1="105.757" y1="87.7739" x2="92.3808" y2="138.886" gradientUnits="userSpaceOnUse">
<stop stop-color="#404042"/>
<stop offset="1" stop-color="#48484B"/>
</linearGradient>
<linearGradient id="paint1_linear" x1="46.5673" y1="105.096" x2="41.7353" y2="123.129" gradientUnits="userSpaceOnUse">
<stop stop-color="#404042"/>
<stop offset="1" stop-color="#48484B"/>
</linearGradient>
<linearGradient id="paint2_linear" x1="73.4948" y1="80.1687" x2="89.0896" y2="164.62" gradientUnits="userSpaceOnUse">
<stop stop-color="#404042"/>
<stop offset="1" stop-color="#48484B"/>
</linearGradient>
<clipPath id="clip0">
<rect width="160" height="160" fill="white"/>
</clipPath>
</defs>
</svg>
