<svg width="96" height="96" viewBox="0 0 96 96" fill="none" xmlns="http://www.w3.org/2000/svg">
<g clip-path="url(#clip0)">
<path d="M28.8271 71.4167C26.9201 78.7035 37.8271 87.8696 53.1884 91.8897C68.5498 95.9098 82.5486 93.2616 84.4556 85.9748C86.3625 78.688 75.4556 69.5219 60.0942 65.5018C44.7328 61.4817 30.7341 64.1299 28.8271 71.4167Z" fill="#606063"/>
<path d="M82.1547 89.5637L91.408 79.7928L25.7954 62.6218L29.2278 75.7126L82.1547 89.5637Z" fill="#606063"/>
<path d="M29.9603 64.976L4.84356 58.4028C3.75486 58.1179 2.64764 58.7955 2.40586 59.8946L2.12494 61.1716C1.56512 63.7164 3.07181 66.2601 5.57257 66.9921L30.6598 74.335L29.9603 64.976Z" fill="#606063"/>
<path d="M25.9216 59.2257C23.7054 67.6942 36.9161 78.4866 55.4285 83.3314C73.941 88.1762 90.7448 85.2386 92.9611 76.7701C95.1773 68.3017 81.9666 57.5092 63.4542 52.6644C44.9417 47.8197 28.1378 50.7573 25.9216 59.2257Z" fill="url(#paint0_linear)"/>
<path fill-rule="evenodd" clip-rule="evenodd" d="M76.6039 73.9714C80.8628 77.1035 83.3516 80.4912 83.723 83.4942L85.5094 83.2732C85.0465 79.5305 82.0672 75.7549 77.6703 72.5213C73.2364 69.2606 67.2066 66.4328 60.3221 64.6311C53.4377 62.8294 46.7957 62.341 41.3329 63.0117C35.9156 63.6769 31.4688 65.509 29.2318 68.5452L30.681 69.6129C32.4758 67.1768 36.305 65.4426 41.5522 64.7983C46.7539 64.1596 53.1649 64.6187 59.8664 66.3725C66.5679 68.1263 72.3819 70.8665 76.6039 73.9714Z" fill="#606063"/>
<path fill-rule="evenodd" clip-rule="evenodd" d="M34.0406 71.2435C28.8082 66.9688 26.8419 62.8188 27.663 59.6814C28.484 56.5441 32.2312 53.8892 38.8868 52.7257C45.3707 51.5922 53.9337 52.0335 62.9984 54.4058C72.0632 56.7781 79.7446 60.588 84.8421 64.7524C90.0745 69.027 92.0408 73.1771 91.2197 76.3144C90.3986 79.4518 86.6515 82.1066 79.9959 83.2701C73.512 84.4036 64.949 83.9623 55.8842 81.59C46.8195 79.2178 39.1381 75.4079 34.0406 71.2435ZM55.4285 83.3314C36.9161 78.4866 23.7054 67.6942 25.9216 59.2257C28.1378 50.7573 44.9417 47.8197 63.4542 52.6644C81.9666 57.5092 95.1773 68.3017 92.9611 76.7701C90.7448 85.2386 73.941 88.1762 55.4285 83.3314Z" fill="#979797"/>
<path fill-rule="evenodd" clip-rule="evenodd" d="M27.1005 74.4294L24.1384 62.9559L25.8813 62.5059L28.8434 73.9794L27.1005 74.4294Z" fill="url(#paint1_linear)"/>
<path fill-rule="evenodd" clip-rule="evenodd" d="M26.0817 63.7137C26.0547 63.6248 26.029 63.536 26.0046 63.4474C25.9596 63.2836 25.9192 63.1202 25.8834 62.9572L25.7984 62.6332C25.7971 62.6281 25.8017 62.6235 25.8068 62.6248C25.8117 62.6261 25.8162 62.6219 25.8153 62.6169C25.8144 62.6121 25.8135 62.6072 25.8127 62.6023C25.7842 62.443 25.7602 62.2841 25.7408 62.1256C25.7361 62.0875 25.7317 62.0494 25.7275 62.0114C25.6842 61.6135 25.6697 61.2184 25.685 60.827C25.685 60.8268 25.685 60.8265 25.685 60.8263C25.7062 60.2851 25.7843 59.7509 25.9217 59.2257C28.138 50.7572 44.9418 47.8196 63.4543 52.6644C81.9667 57.5091 95.1774 68.3016 92.9612 76.7701C92.8237 77.2953 92.6301 77.7993 92.3835 78.2815C92.3834 78.2817 92.3833 78.2819 92.3832 78.2821C92.1168 78.8027 91.7887 79.2978 91.4025 79.7668C91.3993 79.7707 91.3961 79.7746 91.3929 79.7785C91.3917 79.7799 91.3912 79.7816 91.3912 79.7832C91.3913 79.7861 91.3933 79.789 91.3965 79.7898C91.3995 79.7906 91.4014 79.7931 91.4017 79.7958C91.4019 79.7978 91.4013 79.7998 91.3998 79.8014L91.0353 80.1863C90.9931 80.2318 90.9503 80.2769 90.907 80.3219L90.1652 81.1051L90.164 81.1064L83.2763 88.3794C79.1916 93.798 66.7187 95.4303 53.1886 91.8894C39.807 88.3874 29.8056 80.9804 28.7106 74.3124C28.6545 73.9712 28.4202 73.6802 28.0883 73.5831L6.07651 67.1458C3.59029 66.4187 2.08356 63.8994 2.61914 61.365L2.8946 60.0615C3.12847 58.9548 4.23956 58.2679 5.3341 58.5534L25.8834 63.9123C26.0037 63.9436 26.1133 63.8339 26.0817 63.7137ZM23.8874 61.5315C23.8492 60.6053 23.942 59.6808 24.1804 58.7699C25.5755 53.4388 31.3384 50.3907 38.267 49.1795C45.3671 47.9382 54.4623 48.4506 63.91 50.923C73.3576 53.3955 81.5378 57.4042 87.1197 61.9644C92.5667 66.4143 96.0977 71.8947 94.7025 77.2258C94.3681 78.5035 93.771 79.6641 92.9621 80.6991C92.8927 80.8183 92.8078 80.9324 92.7068 81.0392L92.3541 81.4114C92.3521 81.4136 92.3501 81.4157 92.3481 81.4179C92.302 81.4674 92.2554 81.5166 92.2083 81.5655C92.2062 81.5676 92.2041 81.5698 92.202 81.572L84.6492 89.5475C82.1471 92.7913 77.4337 94.6235 71.9904 95.2812C66.4107 95.9554 59.6802 95.4489 52.7329 93.6308C45.8613 91.8325 39.804 89.0196 35.286 85.7457C31.0382 82.6678 27.8932 78.9889 27.0403 75.152L5.57126 68.8734C2.18195 67.8822 0.127915 64.4478 0.858034 60.9929L1.13349 59.6894C1.57975 57.5777 3.69982 56.267 5.78832 56.8116L23.8874 61.5315Z" fill="url(#paint2_linear)"/>
<circle cx="34.2001" cy="17.4" r="17.4" fill="#F0B90B"/>
<path d="M27.7111 17.4L25.0489 20.0807L22.3682 17.4L25.0489 14.7193L27.7111 17.4ZM34.2002 10.9109L38.7851 15.4958L41.4658 12.8151L36.8809 8.24868L34.2002 5.56799L31.5195 8.24868L26.9531 12.8151L29.6338 15.4958L34.2002 10.9109ZM43.3515 14.7193L40.6893 17.4L43.37 20.0807L46.0322 17.4L43.3515 14.7193ZM34.2002 23.8891L29.6153 19.3042L26.9531 21.9849L31.538 26.5698L34.2002 29.232L36.8809 26.5513L41.4658 21.9664L38.7851 19.3042L34.2002 23.8891ZM34.2002 20.0807L36.8809 17.4L34.2002 14.7193L31.5195 17.4L34.2002 20.0807Z" fill="#FFFDFA"/>
<g style="mix-blend-mode:multiply" opacity="0.1">
<path fill-rule="evenodd" clip-rule="evenodd" d="M34.2001 33C42.8157 33 49.8 26.0156 49.8 17.4C49.8 8.78436 42.8157 1.8 34.2001 1.8C25.5844 1.8 18.6 8.78436 18.6 17.4C18.6 26.0156 25.5844 33 34.2001 33ZM34.2001 34.8C43.8098 34.8 51.6001 27.0098 51.6001 17.4C51.6001 7.79025 43.8098 0 34.2001 0C24.5903 0 16.8 7.79025 16.8 17.4C16.8 27.0098 24.5903 34.8 34.2001 34.8Z" fill="#191326"/>
</g>
<ellipse cx="63.9" cy="43.5" rx="26.1" ry="26.1" fill="white"/>
<path d="M45.31 41.9686C45.31 41.6143 45.3125 41.2574 45.3125 40.9031C45.3406 40.819 45.3074 40.7298 45.3329 40.6457C45.3355 40.5871 45.3355 40.5285 45.338 40.4698C45.3661 40.4112 45.3355 40.3475 45.3584 40.2889C45.361 40.2481 45.361 40.2048 45.3635 40.164C45.389 40.1232 45.3635 40.0748 45.3839 40.034C45.4374 39.3993 45.5674 38.7825 45.7739 38.181C45.9727 37.5999 46.2531 37.0646 46.6532 36.5931C46.8036 36.4172 46.9693 36.2566 47.1477 36.1063C47.3898 35.859 47.6931 35.701 48.0066 35.5685C48.5521 35.3391 49.123 35.2371 49.7169 35.2244C50.8155 35.2014 51.8554 35.4538 52.8724 35.8361C53.9607 36.2464 54.9853 36.7842 55.9564 37.424C55.9819 37.4393 56.0049 37.4597 56.0355 37.4673C56.0711 37.4444 56.0507 37.4138 56.0431 37.3883C55.8545 36.5294 55.7169 35.6628 55.6302 34.786C55.5843 34.3221 55.5614 33.8556 55.5384 33.3892C55.518 32.9967 55.5308 32.6093 55.5486 32.2193C55.6047 31.0239 55.801 29.854 56.3515 28.7733C57.0219 27.4581 58.0898 26.673 59.5375 26.4003C60.134 26.2882 60.7355 26.2652 61.337 26.2856C61.6531 26.2958 61.9717 26.3086 62.2877 26.3544C62.4865 26.3672 62.6803 26.4054 62.8765 26.4385C63.3786 26.5303 63.868 26.6654 64.3395 26.8668C65.2826 27.2695 66.0243 27.9041 66.5621 28.7784C66.9623 29.4258 67.2044 30.1344 67.365 30.8735C67.4032 31.0468 67.4644 31.2176 67.4669 31.396C67.472 31.5005 67.4899 31.6025 67.5103 31.7019C67.574 32.1913 67.6122 32.6832 67.6275 33.1777C67.6377 33.5498 67.6607 33.9219 67.6275 34.2915C67.625 34.3144 67.6122 34.3476 67.6454 34.3552C67.676 34.3629 67.6963 34.3297 67.7193 34.3144C67.8773 34.2048 68.0251 34.0799 68.1857 33.9729C69.4041 33.119 70.7396 32.5302 72.1899 32.2014C72.9699 32.0256 73.7626 31.9644 74.5552 32.0154C75.9953 32.1097 77.2825 32.6118 78.3836 33.56C79.0488 34.1335 79.5815 34.8191 80.0148 35.5812C80.3054 36.091 80.5705 36.6135 80.7209 37.1844C80.7846 37.4265 80.833 37.6712 80.8789 37.9185C80.8814 38.13 80.8967 38.3416 80.8967 38.5531C80.8993 39.1547 80.7744 39.7332 80.5679 40.294C80.2595 41.13 79.7752 41.8564 79.189 42.5191C78.59 43.1971 77.8968 43.768 77.155 44.2803C77.0403 44.3594 77.0403 44.3594 77.1474 44.4435C77.2443 44.5199 77.3386 44.5964 77.4354 44.6729C77.4736 44.7009 77.5068 44.734 77.517 44.7825C78.2663 45.4197 78.9316 46.1308 79.4796 46.9464C80.0887 47.8538 80.5246 48.8351 80.7336 49.9107C80.7591 50.0458 80.7948 50.1809 80.8254 50.316C80.8126 50.4409 80.8559 50.5581 80.8687 50.6805C80.9095 51.0704 80.8993 51.4578 80.8738 51.8478C80.8126 52.8317 80.5399 53.7594 80.1448 54.6566C79.8441 55.3397 79.4949 55.9948 78.9978 56.5581C78.5034 57.1213 77.9171 57.5623 77.2264 57.858C76.6708 58.095 76.0922 58.2275 75.4907 58.2785C74.6878 58.3448 73.8976 58.2581 73.1151 58.0797C72.1568 57.8605 71.2494 57.5037 70.3803 57.05C69.4015 56.5402 68.4941 55.9208 67.6479 55.2123C67.1993 54.835 66.7737 54.4323 66.3735 54.0041C65.6777 53.2624 65.0609 52.457 64.5638 51.5649C64.2886 51.0704 64.0388 50.5658 63.8706 50.0229C63.8578 49.9795 63.8374 49.9362 63.8425 49.8878C63.8858 49.8088 63.97 49.8088 64.0413 49.7909C64.625 49.6329 65.1603 49.3678 65.6471 49.011C66.1645 48.6363 66.5876 48.1699 66.9317 47.6321C66.9597 47.5862 66.9801 47.5301 67.0413 47.5148C67.2044 47.5352 67.3472 47.6168 67.495 47.6754C68.4253 48.0577 69.3403 48.4783 70.235 48.9396C71.1602 49.4162 72.0625 49.9336 72.9342 50.502C73.6224 50.9506 74.2927 51.4196 74.9299 51.9345C75.2893 52.225 75.641 52.5258 75.9826 52.8393C76.2833 53.1146 76.5765 53.3975 76.8492 53.7008C76.9053 53.762 76.9562 53.739 76.997 53.6881C77.0582 53.6142 77.0633 53.5224 77.0454 53.4332C77.0174 53.2777 76.969 53.1273 76.9155 52.9795C76.8951 52.926 76.8568 52.8877 76.8135 52.8521C76.0157 52.225 75.2001 51.621 74.3717 51.0347C73.4032 50.3517 72.4091 49.7093 71.3845 49.1104C70.3624 48.5114 69.3098 47.9685 68.2239 47.4893C67.9487 47.367 67.6683 47.2548 67.3905 47.1401C67.3242 47.1121 67.2656 47.0815 67.2783 46.9948C67.3803 46.7017 67.4924 46.4137 67.5689 46.113C67.7703 45.2948 67.7575 44.4766 67.5714 43.6559C67.5638 43.5947 67.5511 43.5361 67.523 43.4826C67.4669 43.2736 67.444 43.0569 67.3854 42.8505C67.3191 42.6134 67.2401 42.3815 67.1432 42.1546C67.128 42.1164 67.105 42.0782 67.105 42.0348C67.2044 41.8309 67.3624 41.6678 67.5001 41.4894C67.9997 40.8445 68.5502 40.243 69.1466 39.6848C69.9291 38.9558 70.7779 38.3161 71.7235 37.8089C72.6487 37.3119 73.6224 36.9627 74.6546 36.7817C75.3301 36.6619 76.0132 36.6568 76.6988 36.6695C76.7651 36.6721 76.8339 36.6797 76.8696 36.695C76.3955 36.6007 75.8959 36.5039 75.3811 36.4733C74.6317 36.4274 73.9002 36.5192 73.1763 36.7103C72.4881 36.8938 71.8382 37.1742 71.2188 37.5285C70.523 37.9287 69.8832 38.4002 69.2894 38.938C68.4737 39.6797 67.732 40.4877 67.0693 41.3696C67.0133 41.4435 66.975 41.5327 66.8833 41.5735C66.817 41.5633 66.8017 41.5047 66.7737 41.4588C66.3684 40.8241 65.8535 40.2991 65.2189 39.8938C64.5613 39.4733 63.8451 39.2235 63.0651 39.1496C62.8969 39.1343 62.7261 39.1292 62.5579 39.1266C62.5044 39.1266 62.4458 39.1368 62.4075 39.0833C62.3413 38.8564 62.3565 38.6194 62.3464 38.3875C62.3285 37.9669 62.2979 37.5489 62.2826 37.1283C62.2699 36.7689 62.2418 36.4096 62.2189 36.0502C62.1934 35.6602 62.1679 35.2702 62.1323 34.8828C62.0074 33.5268 61.8289 32.1811 61.3625 30.8914C61.2249 30.509 60.998 29.9814 60.6055 29.4258C60.7712 30.0885 60.9343 30.7435 61.0821 31.4011C61.4058 32.8616 61.6811 34.3297 61.8672 35.8157C61.9513 36.4937 62.0227 37.1717 62.0583 37.8547C62.0762 38.2141 62.1093 38.5735 62.1042 38.9355C62.1042 38.9915 62.1093 39.0451 62.0889 39.0986C62.0481 39.1674 61.9742 39.1648 61.908 39.1725C60.9674 39.305 60.1391 39.6848 59.4152 40.2965C58.9411 40.6967 58.5537 41.1708 58.2529 41.7162C58.2325 41.7519 58.2173 41.7952 58.1714 41.808C58.0898 41.8003 58.0643 41.7315 58.0261 41.678C57.6947 41.2065 57.3838 40.7196 57.0983 40.2175C56.897 39.8683 56.7185 39.5064 56.5376 39.147C56.4866 39.0476 56.4484 38.9456 56.4127 38.8411C56.3897 38.7519 56.3592 38.6653 56.3413 38.5761C56.3388 38.5837 56.3439 38.5888 56.3464 38.5965C56.3694 38.6857 56.3923 38.7774 56.4229 38.8666C56.6497 39.8021 57.1544 40.6049 57.6336 41.4206C57.7661 41.6474 57.9216 41.8615 58.0516 42.0884C58.0108 42.2795 57.9114 42.4503 57.8579 42.6389C57.7941 42.8683 57.7355 43.0977 57.6947 43.3296C57.6871 43.3781 57.6845 43.4316 57.6336 43.4622C57.5648 43.4724 57.5112 43.4316 57.4552 43.4035C56.7211 43.0493 55.9845 42.7001 55.2249 42.4019C54.3456 42.0552 53.4484 41.7697 52.5079 41.6423C51.185 41.4639 49.9081 41.599 48.7025 42.2107C48.4552 42.3356 48.3176 42.5624 48.1953 42.7969C48.1723 42.8403 48.1647 42.8938 48.1621 42.9448C48.1596 43.0161 48.1443 43.1028 48.2131 43.1461C48.2768 43.1869 48.3278 43.113 48.3813 43.0824C49.1536 42.6262 49.9794 42.3407 50.8766 42.2668C51.6744 42.203 52.462 42.2719 53.2419 42.4452C54.3124 42.6848 55.3294 43.0798 56.326 43.5233C56.7058 43.6916 57.0856 43.8623 57.4577 44.0509C57.5061 44.0764 57.5597 44.0943 57.5953 44.1402C57.6336 44.3007 57.6361 44.4639 57.654 44.627C57.6871 44.9226 57.7738 45.203 57.8528 45.4885C57.8451 45.7408 57.9369 45.9702 58.0159 46.2022C58.2657 46.9286 58.6582 47.5734 59.1629 48.152C59.6115 48.6643 60.1263 49.1027 60.7304 49.4264C60.7712 49.4494 60.8171 49.4647 60.8374 49.5131C60.8502 49.5692 60.8145 49.6099 60.789 49.6533C60.2283 50.5556 59.6828 51.4655 59.1119 52.3601C58.6888 53.0228 58.2453 53.6702 57.7687 54.2972C57.4704 54.6898 57.1493 55.0619 56.8154 55.4238C56.405 55.8699 55.9513 56.2598 55.4543 56.609C55.4161 56.6371 55.3779 56.6626 55.3141 56.6906C55.4773 56.7084 55.6174 56.6855 55.7551 56.6575C56.2445 56.5631 56.6523 56.3083 57.0244 55.9871C57.761 55.3474 58.3014 54.5496 58.8188 53.7339C59.535 52.6048 60.1595 51.4196 60.8349 50.265C60.9292 50.1044 61.0235 49.9438 61.1255 49.7858C61.151 49.745 61.1713 49.6941 61.23 49.6813C61.2962 49.6788 61.3549 49.7043 61.4135 49.7272C61.8391 49.8852 62.2852 49.954 62.7338 49.9617C63.0294 49.9668 63.3251 49.9387 63.6182 49.8801C63.6717 49.8699 63.7253 49.8546 63.7813 49.8623C63.84 49.8827 63.84 49.9413 63.8527 49.9872C64.0311 50.632 64.2631 51.2539 64.5689 51.8504C64.9742 52.6354 65.4661 53.3618 66.032 54.0373C66.1186 54.1418 66.2053 54.2463 66.297 54.3457C66.3786 54.4323 66.3888 54.5164 66.3455 54.6235C66.2206 54.9395 66.0855 55.2531 65.93 55.5538C65.591 56.2114 65.201 56.8384 64.755 57.4298C64.3166 58.0109 63.8323 58.5512 63.3022 59.0483C62.5808 59.7211 61.7882 60.2946 60.9012 60.7305C60.1518 61.0975 59.3617 61.3422 58.5282 61.4238C57.6132 61.513 56.7262 61.3881 55.8672 61.0593C54.9624 60.7152 54.1723 60.1901 53.4535 59.5453C52.9233 59.0686 52.4442 58.5512 52.0771 57.9344C51.8707 57.5878 51.6923 57.2258 51.5878 56.8333C51.5827 56.8129 51.5725 56.7951 51.5546 56.7823C51.5011 56.5249 51.4476 56.27 51.3889 56.0126C51.3456 55.8214 51.3252 55.6277 51.3125 55.4315C51.2895 55.3728 51.3201 55.3091 51.2921 55.2505C51.2921 54.965 51.2921 54.6796 51.2921 54.3941C51.3201 54.3355 51.2895 54.2718 51.3125 54.2131C51.315 54.1723 51.315 54.129 51.3176 54.0882C51.3431 54.0475 51.3176 53.999 51.338 53.9582C51.4246 53.1426 51.6362 52.3601 51.9369 51.6006C52.0848 51.2234 52.2428 50.8487 52.434 50.4893C52.4645 50.372 52.5283 50.2726 52.5792 50.1656C52.6098 50.1044 52.6557 50.0432 52.5461 50.0127C52.5283 50.0076 52.5308 49.9846 52.5461 49.9719C52.6787 49.9566 52.7526 49.875 52.8112 49.7629C52.8851 49.6227 52.9794 49.4927 53.0482 49.3525C53.0125 49.3219 52.9794 49.3245 52.9514 49.3296C52.6583 49.3831 52.3677 49.3372 52.0771 49.3245C50.7619 49.2735 49.5028 49.0059 48.3533 48.3304C47.4306 47.7875 46.7297 47.0305 46.2327 46.0824C46.0237 45.6847 45.8427 45.2718 45.7204 44.836C45.7102 44.8029 45.6974 44.7723 45.677 44.7442C45.6286 44.5989 45.5929 44.4486 45.5827 44.2931C45.5419 44.0866 45.5012 43.8827 45.4629 43.6763C45.4553 43.638 45.4323 43.5973 45.4502 43.5565C45.3533 43.2939 45.3457 43.0161 45.3151 42.7434C45.2896 42.5166 45.2896 42.2872 45.2769 42.0578C45.282 42.0399 45.282 42.0017 45.31 41.9686Z" fill="#E98296"/>
<path d="M80.8553 37.9439C80.7584 37.5157 80.682 37.0824 80.5112 36.6721C80.1646 35.8462 79.716 35.0816 79.1399 34.3934C78.5333 33.667 77.812 33.0884 76.9581 32.6781C76.3235 32.3747 75.6531 32.1912 74.9548 32.0995C74.4679 32.0358 73.9811 32.0307 73.4943 32.0612C72.5716 32.1173 71.6795 32.3314 70.8129 32.6475C69.954 32.961 69.1434 33.3764 68.3813 33.8837C68.3176 33.927 68.2564 33.9678 68.1927 34.0111C68.1494 33.9754 68.1468 33.9219 68.1316 33.8735C68.0169 33.5192 67.9047 33.1623 67.7059 32.8437C67.6932 32.8233 67.683 32.7979 67.6575 32.7877C67.6116 32.7239 67.6269 32.6526 67.6345 32.5812C67.6753 32.492 67.6881 32.4104 67.5963 32.3442C67.5453 32.125 67.5377 31.8981 67.4892 31.6789C67.4791 31.5795 67.4536 31.4827 67.4332 31.3833C67.3746 31.0239 67.2904 30.6696 67.191 30.3204C66.9693 29.5557 66.6405 28.8446 66.1256 28.2278C65.6082 27.6033 64.9659 27.1522 64.2166 26.854C63.7985 26.6883 63.3703 26.5609 62.9243 26.4895C62.9116 26.487 62.9014 26.4768 62.8912 26.4717C62.6924 26.4258 62.4935 26.3723 62.2845 26.3901C61.762 26.3417 61.237 26.3034 60.7119 26.3213C59.853 26.3468 59.0169 26.4717 58.2421 26.8744C57.5029 27.2592 56.9371 27.8225 56.5191 28.5388C56.0756 29.306 55.8386 30.1394 55.7035 31.0086C55.6245 31.5234 55.5964 32.0434 55.5684 32.5634C55.548 32.9763 55.5684 33.3866 55.5862 33.7944C55.6143 34.4316 55.6831 35.0663 55.7748 35.701C55.864 36.3152 55.9762 36.927 56.1062 37.5412C56.0527 37.5489 56.0246 37.5106 55.994 37.4902C55.0765 36.8785 54.1079 36.3662 53.0858 35.9533C52.3543 35.6576 51.5973 35.4308 50.8148 35.3212C49.8641 35.1912 48.921 35.2116 48.0162 35.5939C47.7333 35.7137 47.4708 35.8666 47.2261 36.0553C47.2006 36.0756 47.1776 36.1062 47.1394 36.1037C47.2363 35.8717 47.4274 35.7239 47.6135 35.5761C47.7588 35.4614 47.9142 35.362 48.0621 35.2473C48.1972 35.1428 48.3577 35.13 48.5132 35.0994C48.842 35.0332 49.1759 34.9822 49.5098 34.9567C49.5582 34.9261 49.6169 34.9644 49.6627 34.9312C49.7392 34.9312 49.8157 34.9312 49.8921 34.9287C50.198 34.9108 50.5039 34.9108 50.8097 34.9287C50.8862 34.9287 50.9626 34.9287 51.0391 34.9287C51.0773 34.9593 51.1283 34.9261 51.1666 34.9516C51.684 34.9975 52.1912 35.0892 52.6958 35.2192C53.0603 35.3135 53.4172 35.4282 53.7689 35.5608C53.8607 35.5939 53.8887 35.6041 53.8836 35.469C53.8785 35.2549 53.8913 35.0383 53.8938 34.8242C53.9269 34.7681 53.8862 34.7018 53.9167 34.6458C53.9167 34.5769 53.9167 34.5107 53.9167 34.4418C53.9473 34.4036 53.9142 34.3526 53.9397 34.3144C53.9626 33.7919 54.0595 33.2796 54.1691 32.7698C54.2838 32.2371 54.4367 31.7171 54.6253 31.2048C54.6406 31.1615 54.661 31.1182 54.6788 31.0774C54.8318 30.718 54.9821 30.3586 55.1606 30.012C55.5123 29.334 55.9278 28.6968 56.4273 28.1157C57.0059 27.4428 57.6661 26.8667 58.4358 26.4232C59.1724 26.0154 59.9473 25.735 60.7782 25.6051C61.2064 25.5388 61.6346 25.4929 62.0653 25.5082C62.6949 25.5337 63.3245 25.5872 63.9285 25.7733C64.3389 25.9007 64.7161 26.1097 65.0908 26.3162C65.3508 26.4589 65.6057 26.6118 65.8504 26.7801C66.3142 27.1063 66.7552 27.4581 67.1681 27.8506C67.7161 28.3705 68.1953 28.9491 68.626 29.5659C68.988 30.0833 69.3015 30.6313 69.5844 31.1946C69.6226 31.2686 69.6481 31.2889 69.7348 31.2533C70.3057 31.0137 70.9021 30.8556 71.5138 30.7613C71.6056 30.746 71.6974 30.7409 71.7917 30.7308C71.8299 30.7027 71.8809 30.7358 71.9191 30.7053C71.9701 30.7053 72.0211 30.7053 72.072 30.7053C72.1383 30.6747 72.2122 30.7155 72.2759 30.6798C72.5818 30.6798 72.8877 30.6798 73.191 30.6798C73.2471 30.7129 73.3133 30.6721 73.3694 30.7027C73.4204 30.7027 73.4713 30.7027 73.5223 30.7027C73.5606 30.7333 73.6115 30.7002 73.6498 30.7282C74.1799 30.7868 74.6999 30.8862 75.2122 31.0264C76.0329 31.2507 76.818 31.5668 77.5673 31.9644C78.3014 32.3544 78.9921 32.808 79.6472 33.3204C80.2181 33.769 80.7432 34.2685 81.2376 34.7961C81.7678 35.362 82.2342 35.9788 82.6446 36.6389C82.8459 36.9626 83.032 37.2965 83.2028 37.6355C83.3404 37.9083 83.3404 37.9108 83.0779 38.079C82.6267 38.3696 82.173 38.6602 81.7245 38.9558C81.6505 39.0042 81.6072 38.9991 81.5562 38.9354C81.3574 38.6882 81.1586 38.4435 80.9573 38.1988C80.9292 38.1861 80.8961 38.1784 80.8782 38.1504C80.868 38.0816 80.8426 38.0153 80.8553 37.9439Z" fill="#EEDBDF"/>
<path d="M51.562 56.8003C51.6232 56.7773 51.6104 56.8359 51.6181 56.8589C51.7965 57.3788 52.0386 57.8657 52.3598 58.3143C52.6733 58.7527 53.0429 59.1426 53.4456 59.5046C53.8687 59.8869 54.3173 60.231 54.8041 60.5241C55.4923 60.9395 56.2315 61.2276 57.0267 61.3601C57.3759 61.4187 57.7327 61.4544 58.087 61.4391C58.9103 61.4085 59.7004 61.2301 60.4625 60.9141C61.2195 60.598 61.9103 60.1724 62.5526 59.6728C63.0751 59.265 63.5517 58.8087 63.9977 58.3194C64.4922 57.7765 64.9357 57.1953 65.3308 56.576C65.7259 55.9566 66.0597 55.3041 66.3299 54.621C66.3656 54.5343 66.3554 54.4732 66.2891 54.3942C65.7004 53.7289 65.1779 53.0178 64.742 52.2429C64.3265 51.5038 64.0054 50.7264 63.8117 49.9006C63.827 49.8827 63.8448 49.8827 63.8627 49.8955C63.9213 50.1529 64.0283 50.3925 64.1328 50.6346C64.4871 51.4554 64.951 52.2149 65.4939 52.9235C65.7309 53.2319 65.9807 53.5301 66.2407 53.8207C66.5058 54.1138 66.7811 54.3967 67.0691 54.6643C67.821 55.3678 68.6366 55.9948 69.516 56.5352C69.911 56.7773 70.3137 57.0042 70.7292 57.203C71.6213 57.6337 72.5491 57.9651 73.5227 58.1486C74.114 58.2607 74.7156 58.3143 75.3171 58.2786C76.3647 58.2149 77.3409 57.9192 78.1896 57.282C78.7835 56.8359 79.255 56.2803 79.6221 55.6354C79.9942 54.9855 80.295 54.305 80.5142 53.5887C80.6543 53.1274 80.7537 52.6584 80.8124 52.1767C80.8633 51.7536 80.8633 51.3305 80.8557 50.9074C80.8531 50.7646 80.8277 50.6219 80.8124 50.4792C80.8073 50.4282 80.7945 50.3772 80.8226 50.3313C80.8965 50.6576 80.9475 50.9915 80.9882 51.3228C81.0086 51.3738 80.9831 51.4299 81.0061 51.4808C81.0086 51.565 81.0112 51.6465 81.0137 51.7306C81.0265 51.9091 81.0265 52.0849 81.0137 52.2633C81.0112 52.3474 81.0086 52.429 81.0061 52.5131C80.9806 52.5641 81.0086 52.6202 80.9882 52.6712C80.8786 53.6983 80.5881 54.6745 80.142 55.6074C79.803 56.316 79.4029 56.9838 78.8345 57.5394C78.1769 58.1792 77.4071 58.6048 76.515 58.8164C76.2474 58.8801 75.9798 58.9183 75.7071 58.9489C75.6561 58.9693 75.6 58.9413 75.549 58.9668C75.4573 58.9693 75.3655 58.9719 75.2738 58.9719C75.1565 58.9846 75.0367 58.9846 74.9195 58.9719C74.8277 58.9693 74.736 58.9668 74.6442 58.9642C74.5932 58.9387 74.5371 58.9668 74.4862 58.9464C73.7037 58.8954 72.9543 58.7068 72.2152 58.4544C71.5831 58.2403 70.9739 57.9676 70.3851 57.6541C69.674 57.2743 68.9985 56.8334 68.3588 56.3415C67.9969 56.0636 67.6477 55.768 67.3112 55.457C67.1124 55.2735 66.9213 55.0823 66.7275 54.8912C66.6485 54.8147 66.6281 54.8377 66.5975 54.9294C66.1642 56.2319 65.4684 57.3865 64.6146 58.4519C64.2475 58.9081 63.8525 59.3389 63.4217 59.7365C62.8125 60.2998 62.1524 60.7968 61.426 61.2021C60.6358 61.6405 59.8024 61.9463 58.9077 62.0687C57.9443 62.2012 57.0089 62.084 56.0913 61.7603C55.296 61.4799 54.5951 61.0415 53.9477 60.5113C53.6673 60.282 53.3972 60.0424 53.1448 59.7798C52.6962 59.3159 52.3216 58.8036 52.0361 58.2225C51.8169 57.7714 51.664 57.2947 51.562 56.8003Z" fill="#A87A92"/>
<path d="M45.715 44.7467C45.7991 44.9761 45.8782 45.208 45.9699 45.4349C46.2375 46.1001 46.5969 46.7093 47.0787 47.2471C47.8382 48.0984 48.7864 48.6337 49.8671 48.9574C50.3412 49.1001 50.828 49.1919 51.3174 49.253C51.5722 49.2862 51.8297 49.3193 52.0871 49.3091C52.291 49.3015 52.4924 49.3473 52.6963 49.332C52.8339 49.3219 52.9715 49.2989 53.1321 49.3168C52.997 49.5385 52.8721 49.7526 52.7396 49.9616C52.6963 50.0304 52.6122 49.9845 52.5484 49.9998C52.3802 50.0687 52.2044 50.0381 52.0361 50.0279C51.6487 50.0024 51.2613 49.9591 50.879 49.8902C50.6827 49.8546 50.4966 49.7959 50.3055 49.7373C49.7294 49.5946 49.1789 49.3779 48.6589 49.0925C48.3454 48.9217 48.0574 48.7178 47.7821 48.4909C47.4508 48.2666 47.1959 47.9633 46.9563 47.6524C46.3981 46.9336 46.0336 46.1231 45.7991 45.2488C45.766 45.129 45.7354 45.0118 45.7099 44.8894C45.6972 44.8436 45.6743 44.7926 45.715 44.7467Z" fill="#A87A92"/>
<path d="M80.855 37.944C80.8728 38.0102 80.8932 38.0791 80.911 38.1453C80.9467 38.1759 80.911 38.2218 80.9365 38.2524C80.9569 38.3875 80.9748 38.52 80.9951 38.6551C81.0155 38.6984 80.99 38.7469 81.013 38.7876C81.0155 38.8539 81.0181 38.9202 81.0206 38.9864C81.0334 39.1292 81.0334 39.2745 81.0206 39.4172C81.0181 39.4835 81.0155 39.5497 81.013 39.616C80.99 39.6568 81.013 39.7052 80.9951 39.7485C80.9008 40.4444 80.6893 41.102 80.3579 41.7213C80.0699 42.2591 79.7131 42.7485 79.3078 43.2073C78.7751 43.8088 78.1659 44.3237 77.5185 44.7952C77.3631 44.6703 77.2127 44.5429 77.0521 44.4256C76.9833 44.3747 77.0037 44.3543 77.0547 44.3186C77.4038 44.0892 77.7403 43.8394 78.064 43.5718C78.4412 43.2557 78.7981 42.9218 79.1269 42.5523C79.4684 42.1699 79.7794 41.7647 80.0444 41.3237C80.4344 40.6712 80.7071 39.9754 80.8167 39.2158C80.8728 38.8233 80.8881 38.4333 80.8422 38.0408C80.8346 38.0102 80.8269 37.9746 80.855 37.944Z" fill="#A87A92"/>
<path d="M45.7148 44.7468C45.7735 45.1215 45.8856 45.4808 46.0105 45.8351C46.2628 46.5437 46.612 47.2013 47.0938 47.7799C47.2645 47.9863 47.443 48.1826 47.6494 48.3559C47.6978 48.3967 47.7539 48.4298 47.7794 48.491C47.6086 48.4502 47.4863 48.3279 47.3486 48.2336C46.8873 47.9201 46.4566 47.5658 46.0666 47.1682C45.5109 46.6023 45.0369 45.9677 44.6724 45.254C44.6214 45.1571 44.5781 45.0577 44.5245 44.9609C44.4889 44.8997 44.4991 44.8564 44.55 44.8054C44.7004 44.6576 44.9018 44.6091 45.0853 44.5225C45.251 44.4409 45.4192 44.3696 45.5951 44.3135C45.6715 44.446 45.6537 44.6091 45.7148 44.7468Z" fill="#EEDBDF"/>
<path d="M50.3052 49.74C50.5448 49.7833 50.7844 49.8292 51.0239 49.8725C51.5286 49.9617 52.0358 50.0025 52.5481 50.0025C52.5889 50.0382 52.6475 50.0025 52.7011 50.0433C52.6017 50.1911 52.5507 50.3619 52.4436 50.5046C52.3595 50.4358 52.2525 50.4205 52.1531 50.3899C51.5439 50.2039 50.9424 49.9974 50.346 49.768C50.3307 49.7629 50.3179 49.7502 50.3052 49.74Z" fill="#EEDBDF"/>
<path d="M45.3093 41.9686C45.345 42.5064 45.3781 43.0417 45.4597 43.5744C45.3323 43.3781 45.3093 43.1513 45.2609 42.9295C45.2354 42.8148 45.2278 42.6976 45.2329 42.5778C45.215 42.4325 45.215 42.2898 45.2329 42.1445C45.2584 42.0884 45.1717 41.9814 45.3093 41.9686Z" fill="#EEDBDF"/>
<path d="M50.8128 34.9338C50.507 34.9338 50.2011 34.9338 49.8953 34.9338C49.9233 34.8982 49.9641 34.9109 50.0023 34.9109C50.2368 34.9109 50.4713 34.9109 50.7083 34.9109C50.744 34.9109 50.7848 34.9007 50.8128 34.9338Z" fill="#FDFDFD"/>
<path d="M81.0186 52.2657C81.0186 52.0873 81.0186 51.9114 81.0186 51.733C81.0542 51.9089 81.0542 52.0873 81.0186 52.2657Z" fill="#FDFDFD"/>
<path d="M81.0186 39.4196C81.0186 39.2769 81.0186 39.1316 81.0186 38.9889C81.0542 39.1342 81.0542 39.2769 81.0186 39.4196Z" fill="#FDFDFD"/>
<path d="M45.2306 42.1495C45.2306 42.2948 45.2306 42.4376 45.2306 42.5828C45.1923 42.4376 45.1923 42.2923 45.2306 42.1495Z" fill="#FDFDFD"/>
<path d="M74.9246 58.9744C75.0418 58.9744 75.1616 58.9744 75.2789 58.9744C75.1616 59.0075 75.0444 59.0075 74.9246 58.9744Z" fill="#FDFDFD"/>
<path d="M45.3297 40.6456C45.3272 40.7323 45.345 40.8215 45.3093 40.9031C45.317 40.8189 45.2864 40.7297 45.3297 40.6456Z" fill="#FDFDFD"/>
<path d="M72.274 30.6799C72.2103 30.7283 72.1389 30.6952 72.0701 30.7054C72.1338 30.6544 72.2052 30.6901 72.274 30.6799Z" fill="#FDFDFD"/>
<path d="M45.3553 40.2889C45.3553 40.3501 45.368 40.4138 45.3349 40.4699C45.3425 40.4087 45.3145 40.345 45.3553 40.2889Z" fill="#FDFDFD"/>
<path d="M53.9222 34.6559C53.9145 34.7145 53.9451 34.7808 53.8992 34.8343C53.9069 34.7757 53.8763 34.7094 53.9222 34.6559Z" fill="#FDFDFD"/>
<path d="M73.3698 30.7052C73.3112 30.6976 73.2449 30.7281 73.1914 30.6823C73.25 30.6899 73.3138 30.6568 73.3698 30.7052Z" fill="#FDFDFD"/>
<path d="M51.3195 54.231C51.3195 54.2921 51.3348 54.3558 51.2991 54.4119C51.3042 54.3508 51.2788 54.287 51.3195 54.231Z" fill="#FDFDFD"/>
<path d="M51.2993 55.2683C51.3324 55.3269 51.3196 55.3881 51.3196 55.4493C51.2789 55.3932 51.3069 55.3295 51.2993 55.2683Z" fill="#FDFDFD"/>
<path d="M49.6681 34.9364C49.6222 34.9798 49.5661 34.9543 49.5151 34.9619C49.561 34.916 49.6171 34.9441 49.6681 34.9364Z" fill="#FDFDFD"/>
<path d="M81.0134 51.4833C80.9854 51.4324 80.993 51.3788 80.9956 51.3253C81.0338 51.3737 81.0083 51.4298 81.0134 51.4833Z" fill="#FDFDFD"/>
<path d="M80.9929 52.6735C80.9903 52.62 80.9827 52.5639 81.0107 52.5155C81.0082 52.5665 81.0337 52.6226 80.9929 52.6735Z" fill="#FDFDFD"/>
<path d="M74.4915 58.9489C74.545 58.9464 74.5985 58.9387 74.6495 58.9668C74.596 58.9642 74.5399 58.9872 74.4915 58.9489Z" fill="#FDFDFD"/>
<path d="M75.5537 58.9668C75.6047 58.9387 75.6582 58.9464 75.7117 58.9489C75.6633 58.9872 75.6072 58.9642 75.5537 58.9668Z" fill="#FDFDFD"/>
<path d="M80.9934 39.7511C80.9909 39.7052 80.9858 39.6593 81.0113 39.6185C81.0113 39.6644 81.0316 39.7103 80.9934 39.7511Z" fill="#FDFDFD"/>
<path d="M81.0134 38.7901C80.9854 38.7494 80.993 38.7035 80.9956 38.6576C81.0312 38.6984 81.0109 38.7468 81.0134 38.7901Z" fill="#FDFDFD"/>
<path d="M80.9369 38.2549C80.9088 38.2243 80.9139 38.1835 80.9114 38.1478C80.9369 38.1555 80.9547 38.1733 80.9624 38.1988C80.9394 38.2115 80.9394 38.2319 80.9369 38.2549Z" fill="#FDFDFD"/>
<path d="M51.1697 34.9593C51.1263 34.9542 51.0779 34.9746 51.0422 34.9364C51.0856 34.9415 51.134 34.9185 51.1697 34.9593Z" fill="#FDFDFD"/>
<path d="M53.9475 34.3246C53.9424 34.3679 53.9628 34.4163 53.9245 34.452C53.9296 34.4087 53.9067 34.3603 53.9475 34.3246Z" fill="#FDFDFD"/>
<path d="M73.6501 30.7307C73.6068 30.7256 73.5584 30.746 73.5227 30.7052C73.5635 30.7103 73.6119 30.6874 73.6501 30.7307Z" fill="#FDFDFD"/>
<path d="M71.917 30.7052C71.8813 30.746 71.8329 30.7256 71.7896 30.7307C71.8252 30.6874 71.8737 30.7103 71.917 30.7052Z" fill="#FDFDFD"/>
<path d="M51.3451 53.9761C51.3477 54.022 51.3553 54.0653 51.3248 54.1061C51.3299 54.0627 51.3069 54.0143 51.3451 53.9761Z" fill="#FDFDFD"/>
<path d="M45.3806 40.0341C45.3831 40.0799 45.3907 40.1233 45.3602 40.164C45.3653 40.1207 45.3449 40.0723 45.3806 40.0341Z" fill="#FDFDFD"/>
<path d="M67.1303 42.045C67.3317 42.4962 67.4821 42.9601 67.5407 43.452C67.5433 43.4673 67.5534 43.4826 67.5585 43.5004C67.5789 43.5565 67.5713 43.6202 67.5917 43.6763C67.7064 44.395 67.6044 45.096 67.3954 45.7842C67.1966 46.4418 66.8704 47.0382 66.4243 47.5607C65.573 48.5573 64.5025 49.1563 63.195 49.3219C61.9868 49.4749 60.9112 49.141 59.9452 48.4273C59.127 47.8232 58.5 47.0586 58.054 46.1486C57.9597 45.9549 57.8603 45.7638 57.8424 45.542C57.6844 45.096 57.6003 44.6372 57.5926 44.1656C57.5824 44.1529 57.5671 44.1376 57.5671 44.1223C57.5748 43.9057 57.5544 43.6839 57.6436 43.4775C57.7022 43.2149 57.7456 42.9499 57.8246 42.6924C57.8857 42.4911 57.9648 42.2948 58.0463 42.1011C58.0489 41.9889 58.11 41.9048 58.1763 41.8207C58.3496 41.5353 58.5204 41.2498 58.732 40.9873C59.2443 40.3526 59.8713 39.8683 60.6155 39.5344C61.082 39.3254 61.5739 39.2031 62.0786 39.1394C62.1933 39.0909 62.3105 39.0527 62.4329 39.1139C62.991 39.1062 63.539 39.1725 64.0717 39.3407C64.7039 39.5395 65.2671 39.8556 65.7769 40.2787C66.2255 40.6508 66.5849 41.0969 66.8933 41.5888C67.0156 41.7188 67.0972 41.8692 67.1303 42.045Z" fill="#FDEBAB"/>
<path d="M57.8422 45.5395C58.0894 46.2634 58.4768 46.9082 58.9764 47.4842C59.5779 48.1801 60.2865 48.7306 61.1531 49.0543C62.3511 49.5004 63.5388 49.4035 64.673 48.8606C66.2813 48.0909 67.2244 46.7935 67.5354 45.0374C67.6144 44.5888 67.6169 44.1351 67.5787 43.6814C67.5711 43.6559 67.5812 43.6483 67.6042 43.6559C67.6908 44.0306 67.7469 44.4129 67.7546 44.7978C67.7699 45.5803 67.6118 46.3271 67.2983 47.0433C67.255 47.2345 67.1709 47.4052 67.0409 47.5505C66.8829 47.7697 66.7401 47.9991 66.5668 48.2081C65.9092 48.9932 65.0936 49.5335 64.1123 49.8215C64.0282 49.847 63.9415 49.8725 63.8574 49.8954C63.8396 49.898 63.8243 49.898 63.8064 49.9005C63.447 49.9821 63.08 50.0229 62.7155 50.0152C62.2466 50.0076 61.7852 49.926 61.3417 49.7578C61.2984 49.7425 61.2525 49.7298 61.2092 49.717C61.0613 49.7017 60.9416 49.6253 60.8269 49.5386C60.5159 49.3678 60.2151 49.1792 59.9373 48.9549C59.323 48.4605 58.8209 47.8717 58.4284 47.1886C58.1531 46.712 57.9518 46.2073 57.8345 45.6695C57.8269 45.6262 57.8065 45.5828 57.8422 45.5395Z" fill="#967849"/>
<path d="M57.6458 43.4723C57.628 43.7017 57.6127 43.9311 57.5949 44.1605C57.3655 44.0535 57.1335 43.9489 56.9041 43.8393C56.0222 43.4239 55.125 43.0467 54.1947 42.751C53.6263 42.5726 53.0477 42.4349 52.4564 42.3534C51.9849 42.2871 51.5083 42.2718 51.0367 42.305C50.3205 42.3534 49.6272 42.5216 48.9747 42.8351C48.7428 42.9473 48.5134 43.0671 48.2967 43.2072C48.2228 43.2557 48.1922 43.2378 48.1667 43.1639C48.1081 42.9906 48.1489 42.8326 48.233 42.6771C48.4293 42.3126 48.7657 42.1393 49.1327 41.9965C49.6502 41.7926 50.1854 41.6499 50.7385 41.5913C51.1897 41.5429 51.6408 41.548 52.0945 41.5836C53.1242 41.6626 54.1004 41.9558 55.0613 42.3177C55.7317 42.57 56.3842 42.8657 57.029 43.1767C57.2329 43.2761 57.4394 43.3755 57.6458 43.4723Z" fill="#D16B7F"/>
<path d="M67.0459 47.5479C67.1326 47.3796 67.2167 47.2089 67.3033 47.0406C67.3059 47.0865 67.3339 47.1044 67.3721 47.1197C68.3025 47.4765 69.1997 47.9098 70.0841 48.3686C70.808 48.7458 71.5165 49.1562 72.2098 49.5869C72.7425 49.9157 73.2701 50.2547 73.7875 50.609C74.5522 51.1315 75.3016 51.6744 76.0433 52.2301C76.3134 52.434 76.5785 52.643 76.8461 52.8494C76.9048 52.8953 76.9455 52.9488 76.9659 53.0202C77.0144 53.191 77.0832 53.3566 77.0908 53.5351C77.0934 53.6064 77.0704 53.6701 77.0322 53.7262C76.9685 53.8205 76.8895 53.8154 76.8181 53.7339C76.5785 53.4586 76.316 53.2063 76.0484 52.959C75.8113 52.7398 75.5717 52.5283 75.327 52.3193C74.9422 51.9905 74.542 51.6795 74.1316 51.3788C73.3874 50.8333 72.6151 50.3312 71.8199 49.8622C71.4707 49.6557 71.1164 49.4544 70.757 49.2632C70.2957 49.0185 69.8318 48.7789 69.3628 48.5547C68.6032 48.1927 67.8335 47.8512 67.0459 47.5479Z" fill="#D16B7F"/>
<path d="M67.1302 42.0451C67.0512 41.8922 66.9748 41.7418 66.8958 41.5889C67.2857 41.0664 67.691 40.5591 68.1345 40.08C68.7156 39.4555 69.3197 38.8591 69.9977 38.3391C70.5686 37.9007 71.1701 37.5184 71.815 37.2049C72.4598 36.8939 73.1327 36.6722 73.8362 36.5498C74.1166 36.4988 74.4046 36.481 74.6926 36.4606C75.4471 36.4096 76.1811 36.5269 76.9101 36.7002C76.9381 36.7079 76.9636 36.7206 76.9891 36.741C76.8081 36.7155 76.6297 36.7231 76.4513 36.7231C76.0741 36.7231 75.6969 36.7079 75.3196 36.7512C74.7614 36.8124 74.2109 36.9118 73.6705 37.0698C73.0741 37.2431 72.5006 37.4725 71.9501 37.7554C71.2186 38.1326 70.538 38.5889 69.8983 39.1089C69.3911 39.5218 68.917 39.9704 68.4709 40.4444C68.007 40.9364 67.5763 41.4589 67.1761 42.0043C67.1608 42.0171 67.1455 42.0298 67.1302 42.0451Z" fill="#D16B7F"/>
<path d="M60.8297 49.5386C60.9571 49.5972 61.0846 49.6584 61.212 49.717C61.054 49.9872 60.896 50.2573 60.7405 50.5275C60.4754 50.9889 60.2078 51.4527 59.9453 51.9166C59.5527 52.6099 59.1577 53.2981 58.7269 53.971C58.4134 54.4604 58.0795 54.9319 57.7023 55.3728C57.2919 55.8571 56.8331 56.2879 56.2444 56.558C55.9844 56.6778 55.7066 56.7314 55.4211 56.7518C55.3752 56.7543 55.3268 56.7543 55.2834 56.7135C55.5103 56.558 55.7346 56.4 55.9461 56.2241C56.3412 55.8979 56.7057 55.5385 57.0421 55.1536C57.3837 54.7662 57.7048 54.3635 58.0107 53.948C58.4848 53.2981 58.9308 52.6278 59.3539 51.9447C59.7668 51.2794 60.1772 50.6116 60.5876 49.9438C60.6742 49.8087 60.7736 49.6864 60.8297 49.5386Z" fill="#D16B7F"/>
<path d="M62.4347 39.1113C62.3175 39.119 62.1977 39.1266 62.0804 39.1368C62.0957 38.7774 62.0728 38.4155 62.0473 38.0587C62.0167 37.5973 61.9785 37.1335 61.9301 36.6721C61.8714 36.0884 61.7975 35.5073 61.716 34.9287C61.6446 34.4241 61.5554 33.9219 61.4611 33.4198C61.2903 32.4946 61.0966 31.5745 60.8774 30.6594C60.7729 30.2236 60.6607 29.7903 60.5715 29.3442C60.6149 29.4003 60.6607 29.4538 60.7015 29.5125C61.0176 29.9712 61.2521 30.4734 61.4407 30.9984C61.7109 31.7529 61.8714 32.5354 61.9963 33.323C62.0677 33.7766 62.1187 34.2329 62.1569 34.6917C62.1951 35.1428 62.2334 35.5914 62.2589 36.0426C62.2843 36.5013 62.3149 36.9627 62.3353 37.4215C62.3583 37.8981 62.3888 38.3747 62.4118 38.8514C62.4169 38.9355 62.4398 39.0221 62.4347 39.1113Z" fill="#D16B7F"/>
<path d="M58.1787 41.8182C58.1507 41.9176 58.0946 42.0042 58.0488 42.0985C57.9009 41.9558 57.8143 41.7697 57.7047 41.599C57.3402 41.028 57.0216 40.4316 56.7208 39.825C56.573 39.5268 56.4889 39.2107 56.4201 38.887C56.4099 38.8615 56.4226 38.8564 56.4455 38.8615C56.7438 39.5217 57.0853 40.1563 57.4651 40.7731C57.6766 41.1147 57.8984 41.4486 58.1329 41.7748C58.1456 41.7901 58.1635 41.8029 58.1787 41.8182Z" fill="#A87A92"/>
<path d="M67.6833 32.7979C67.7725 32.8667 67.8261 32.961 67.8669 33.0604C67.9892 33.3509 68.109 33.6441 68.188 33.9525C68.1931 33.9729 68.1931 33.9933 68.1957 34.0162C68.0504 34.1207 67.9076 34.2252 67.7624 34.3297C67.6935 34.1742 67.7114 34.006 67.7037 33.8429C67.691 33.5498 67.6782 33.2592 67.6528 32.9686C67.6451 32.91 67.6375 32.8488 67.6833 32.7979Z" fill="#FEFEFE"/>
<path d="M67.6832 32.7979C67.724 33.3077 67.7495 33.8175 67.7597 34.3272C67.724 34.3909 67.6552 34.4113 67.5991 34.4649C67.571 34.4139 67.5787 34.3629 67.5838 34.317C67.6475 33.7971 67.5863 33.2771 67.5736 32.7571C67.5659 32.4029 67.5099 32.0511 67.4767 31.6994C67.4665 31.6739 67.4793 31.6688 67.4997 31.6739C67.5405 31.9033 67.5838 32.1352 67.6246 32.3646C67.6654 32.4258 67.673 32.4946 67.6526 32.566C67.6654 32.645 67.6424 32.724 67.6832 32.7979Z" fill="#A97A93"/>
<path d="M62.2847 26.3953C62.356 26.3519 62.43 26.3723 62.5039 26.3851C62.639 26.4054 62.7766 26.4309 62.9117 26.4539C62.9142 26.4539 62.9168 26.459 62.9168 26.4615C62.9066 26.4666 62.8989 26.4743 62.8887 26.4794C62.6899 26.4488 62.486 26.4207 62.2847 26.3953Z" fill="#F8EBEE"/>
<path d="M56.4449 38.8615C56.4373 38.8692 56.4271 38.8794 56.4194 38.887C56.3761 38.7876 56.3481 38.6882 56.3633 38.576C56.3914 38.6704 56.4169 38.7672 56.4449 38.8615Z" fill="#C57D94"/>
<path d="M67.5047 31.6739C67.4971 31.6815 67.4894 31.6892 67.4818 31.6994C67.4486 31.5974 67.4333 31.4955 67.4333 31.3884C67.4741 31.4802 67.4945 31.577 67.5047 31.6739Z" fill="#C28B9F"/>
<path d="M67.6065 43.6533C67.5989 43.6609 67.5887 43.6711 67.581 43.6788C67.5428 43.6227 67.5632 43.559 67.5581 43.4978C67.5938 43.5437 67.5938 43.6023 67.6065 43.6533Z" fill="#BC8D6D"/>
<path d="M67.6579 32.566C67.6273 32.5023 67.635 32.4334 67.6299 32.3646C67.714 32.4258 67.7242 32.4921 67.6579 32.566Z" fill="#FBFAFA"/>
<g style="mix-blend-mode:multiply" opacity="0.2">
<path fill-rule="evenodd" clip-rule="evenodd" d="M63.9 67.8979C77.3746 67.8979 88.2979 56.9746 88.2979 43.5C88.2979 30.0255 77.3746 19.1022 63.9 19.1022C50.4255 19.1022 39.5022 30.0255 39.5022 43.5C39.5022 56.9746 50.4255 67.8979 63.9 67.8979ZM63.9 69.6C78.3147 69.6 90 57.9147 90 43.5C90 29.0854 78.3147 17.4 63.9 17.4C49.4854 17.4 37.8 29.0854 37.8 43.5C37.8 57.9147 49.4854 69.6 63.9 69.6Z" fill="#191326"/>
</g>
</g>
<defs>
<linearGradient id="paint0_linear" x1="63.4542" y1="52.6644" x2="55.4285" y2="83.3314" gradientUnits="userSpaceOnUse">
<stop stop-color="#404042"/>
<stop offset="1" stop-color="#48484B"/>
</linearGradient>
<linearGradient id="paint1_linear" x1="27.9405" y1="63.0577" x2="25.0413" y2="73.8776" gradientUnits="userSpaceOnUse">
<stop stop-color="#404042"/>
<stop offset="1" stop-color="#48484B"/>
</linearGradient>
<linearGradient id="paint2_linear" x1="44.0971" y1="48.1012" x2="53.454" y2="98.7721" gradientUnits="userSpaceOnUse">
<stop stop-color="#404042"/>
<stop offset="1" stop-color="#48484B"/>
</linearGradient>
<clipPath id="clip0">
<rect width="96" height="96" fill="white"/>
</clipPath>
</defs>
</svg>
