<svg xmlns="http://www.w3.org/2000/svg" width="96" height="96" fill="none" viewBox="0 0 96 96"><g clip-path="url(#clip0)"><path fill="#606063" d="M28.8271 71.4166C26.9201 78.7034 37.8271 87.8694 53.1884 91.8896C68.5498 95.9097 82.5486 93.2615 84.4556 85.9747C86.3625 78.6879 75.4556 69.5218 60.0942 65.5017C44.7328 61.4816 30.7341 64.1298 28.8271 71.4166Z"/><path fill="#606063" d="M82.1547 89.5636L91.408 79.7927L25.7954 62.6217L29.2278 75.7125L82.1547 89.5636Z"/><path fill="#606063" d="M29.9603 64.9761L4.84357 58.403C3.75488 58.1181 2.64765 58.7956 2.40588 59.8947L2.12495 61.1717C1.56514 63.7166 3.07182 66.2602 5.57259 66.9922L30.6598 74.3352L29.9603 64.9761Z"/><path fill="url(#paint0_linear)" d="M25.9216 59.2256C23.7054 67.694 36.9161 78.4865 55.4285 83.3313C73.941 88.176 90.7448 85.2385 92.9611 76.77C95.1773 68.3016 81.9666 57.5091 63.4542 52.6643C44.9417 47.8196 28.1378 50.7571 25.9216 59.2256Z"/><path fill="#606063" fill-rule="evenodd" d="M76.6039 73.9714C80.8628 77.1035 83.3516 80.4912 83.723 83.4942L85.5094 83.2732C85.0465 79.5305 82.0672 75.7549 77.6703 72.5213C73.2364 69.2606 67.2065 66.4328 60.3221 64.6311C53.4377 62.8294 46.7957 62.341 41.3329 63.0117C35.9156 63.6769 31.4688 65.509 29.2318 68.5452L30.6809 69.6129C32.4758 67.1768 36.305 65.4426 41.5522 64.7983C46.7539 64.1596 53.1649 64.6187 59.8664 66.3725C66.5679 68.1263 72.3819 70.8665 76.6039 73.9714Z" clip-rule="evenodd"/><path fill="#979797" fill-rule="evenodd" d="M34.0406 71.2434C28.8082 66.9687 26.8419 62.8187 27.663 59.6813C28.484 56.544 32.2312 53.8891 38.8868 52.7256C45.3707 51.5921 53.9337 52.0334 62.9984 54.4057C72.0632 56.778 79.7446 60.5879 84.8421 64.7522C90.0745 69.0269 92.0408 73.1769 91.2197 76.3143C90.3986 79.4516 86.6515 82.1065 79.9959 83.27C73.512 84.4035 64.949 83.9622 55.8842 81.5899C46.8195 79.2176 39.1381 75.4077 34.0406 71.2434ZM55.4285 83.3313C36.9161 78.4865 23.7054 67.694 25.9216 59.2256C28.1378 50.7571 44.9417 47.8196 63.4542 52.6643C81.9666 57.5091 95.1773 68.3016 92.9611 76.77C90.7448 85.2385 73.941 88.176 55.4285 83.3313Z" clip-rule="evenodd"/><path fill="url(#paint1_linear)" fill-rule="evenodd" d="M27.1005 74.4294L24.1384 62.9559L25.8813 62.5059L28.8434 73.9794L27.1005 74.4294Z" clip-rule="evenodd"/><path fill="url(#paint2_linear)" fill-rule="evenodd" d="M26.0815 63.7138C26.0545 63.6249 26.0287 63.5362 26.0044 63.4475C25.9594 63.2838 25.919 63.1204 25.8831 62.9573L25.7982 62.6333C25.7969 62.6282 25.8015 62.6236 25.8066 62.6249C25.8114 62.6262 25.8159 62.622 25.8151 62.617C25.8142 62.6122 25.8133 62.6073 25.8124 62.6025C25.7839 62.4431 25.76 62.2842 25.7405 62.1257C25.7358 62.0876 25.7314 62.0496 25.7273 62.0115C25.6839 61.6136 25.6694 61.2186 25.6847 60.8272C25.6847 60.8269 25.6847 60.8267 25.6847 60.8264C25.7059 60.2852 25.784 59.751 25.9215 59.2258C28.1377 50.7573 44.9416 47.8198 63.454 52.6645C81.9665 57.5093 95.1771 68.3018 92.9609 76.7702C92.8235 77.2955 92.6299 77.7994 92.3833 78.2816C92.3831 78.2818 92.383 78.282 92.3829 78.2822C92.1166 78.8028 91.7884 79.2979 91.4023 79.767C91.3991 79.7709 91.3959 79.7748 91.3926 79.7787C91.3915 79.78 91.391 79.7817 91.391 79.7833C91.3911 79.7863 91.393 79.7891 91.3963 79.79C91.3993 79.7907 91.4012 79.7932 91.4015 79.796C91.4017 79.7979 91.4011 79.8 91.3996 79.8016L91.0351 80.1865C90.9929 80.2319 90.9501 80.2771 90.9068 80.322L90.165 81.1053L90.1637 81.1066L83.2761 88.3796C79.1914 93.7981 66.7184 95.4304 53.1883 91.8896C39.8068 88.3875 29.8054 80.9805 28.7103 74.3125C28.6543 73.9713 28.42 73.6803 28.0881 73.5832L6.07626 67.1459C3.59005 66.4188 2.08332 63.8995 2.6189 61.3652L2.89435 60.0617C3.12823 58.955 4.23932 58.2681 5.33386 58.5535L25.8831 63.9124C26.0034 63.9438 26.113 63.834 26.0815 63.7138ZM23.8871 61.5317C23.8489 60.6054 23.9417 59.681 24.1801 58.7701C25.5753 53.439 31.3382 50.3908 38.2667 49.1796C45.3669 47.9384 54.4621 48.4507 63.9097 50.9232C73.3574 53.3956 81.5376 57.4044 87.1195 61.9645C92.5665 66.4144 96.0974 71.8948 94.7023 77.2259C94.3679 78.5036 93.7707 79.6642 92.9618 80.6992C92.8925 80.8184 92.8076 80.9325 92.7065 81.0393L92.3539 81.4115C92.3519 81.4137 92.3499 81.4159 92.3479 81.418C92.3018 81.4675 92.2552 81.5167 92.2081 81.5656C92.206 81.5678 92.2039 81.5699 92.2018 81.5721L84.6489 89.5476C82.1469 92.7914 77.4335 94.6237 71.9901 95.2813C66.4105 95.9555 59.68 95.4491 52.7326 93.6309C45.8611 91.8326 39.8038 89.0197 35.2857 85.7459C31.038 82.6679 27.8929 78.989 27.04 75.1521L5.57102 68.8735C2.18171 67.8823 0.127671 64.448 0.85779 60.993L1.13325 59.6895C1.57951 57.5778 3.69958 56.2671 5.78808 56.8117L23.8871 61.5317Z" clip-rule="evenodd"/><circle cx="34.2" cy="17.4" r="17.4" fill="#F0B90B"/><path fill="#FFFDFA" fill-rule="evenodd" d="M26.7947 12.9806L34.2071 5.56812L37.1627 8.52366L29.7502 15.9361L26.7947 12.9806ZM26.8001 21.8381L38.6459 9.99235L41.6014 12.9479L29.7557 24.7937L26.8001 21.8381ZM43.076 14.431L31.2303 26.2768L34.1858 29.2323L46.0316 17.3866L43.076 14.431ZM22.3679 17.4063L25.3235 14.4508L28.279 17.4063L25.3235 20.3619L22.3679 17.4063Z" clip-rule="evenodd"/><g style="mix-blend-mode:multiply" opacity=".1"><path fill="#191326" fill-rule="evenodd" d="M34.2001 33C42.8157 33 49.8 26.0156 49.8 17.4C49.8 8.78436 42.8157 1.8 34.2001 1.8C25.5844 1.8 18.6 8.78436 18.6 17.4C18.6 26.0156 25.5844 33 34.2001 33ZM34.2001 34.8C43.8098 34.8 51.6001 27.0098 51.6001 17.4C51.6001 7.79025 43.8098 0 34.2001 0C24.5903 0 16.8 7.79025 16.8 17.4C16.8 27.0098 24.5903 34.8 34.2001 34.8Z" clip-rule="evenodd"/></g><ellipse cx="63.9" cy="43.5" fill="#fff" rx="26.1" ry="26.1"/><path fill="#141415" d="M48.5929 57.0945C48.5673 56.6491 48.5661 56.2027 48.5893 55.7572C48.7357 55.7114 48.886 55.6796 49.0383 55.6621C49.481 55.5841 49.9187 55.4789 50.3487 55.347C50.4663 55.3084 50.5832 55.2675 50.6986 55.2215C51.2654 54.9986 51.7642 54.6289 52.1449 54.1494C52.4085 53.8138 52.64 53.4539 52.8365 53.0743C53.1128 52.5516 53.3604 52.0139 53.5781 51.4636C54.0191 50.3526 54.4578 49.2396 54.8944 48.1247C56.3932 44.2924 57.8912 40.4597 59.3886 36.6265C60.8095 32.982 62.2034 29.3278 63.5704 25.664C63.5976 25.5897 63.6285 25.5154 63.6594 25.4411C64.1635 25.297 64.6618 25.1506 65.1763 25.0125C65.2072 25.0867 65.2358 25.1529 65.2593 25.2197C65.8385 26.8543 66.4171 28.4905 66.9953 30.1285C68.9686 35.7067 70.9493 41.2819 72.98 46.8386C73.5351 48.3577 74.0949 49.8748 74.6593 51.39C74.8816 52.009 75.1433 52.6128 75.4428 53.1976C75.5743 53.4473 75.7177 53.6917 75.8705 53.928C76.341 54.6681 77.0704 55.2014 77.9129 55.4213C78.3663 55.5427 78.8268 55.635 79.2917 55.6977L79.6224 55.7468C79.6695 55.8954 79.6408 56.0387 79.6452 56.1814C79.6496 56.324 79.6452 56.4845 79.6452 56.6361C79.6498 56.7825 79.6471 56.929 79.6371 57.0752C79.5901 57.0826 79.5534 57.0915 79.5159 57.0938C79.4637 57.0938 79.4115 57.0938 79.3593 57.0938H67.8853C67.8728 57.0681 67.8639 57.0409 67.8589 57.0128C67.8589 56.6111 67.8589 56.2094 67.8589 55.8077C67.8621 55.7896 67.8673 55.7719 67.8743 55.7549C67.9705 55.7277 68.0689 55.7091 68.1683 55.6992C68.6461 55.6354 69.1196 55.5418 69.586 55.4191C69.7734 55.3664 69.9579 55.298 70.1401 55.2289C70.2311 55.1926 70.319 55.1491 70.4032 55.0989C70.8626 54.8366 71.0471 54.4302 71.0081 53.9101C70.9875 53.6739 70.9462 53.4399 70.8846 53.211C70.7928 52.8536 70.6642 52.5074 70.5436 52.1605C68.1345 45.3633 65.7515 38.5565 63.3948 31.74C63.3698 31.6657 63.3617 31.584 63.2875 31.5171C63.264 31.532 63.2316 31.5431 63.214 31.5654C63.1951 31.5998 63.1805 31.6365 63.1706 31.6746C62.019 35.0262 60.7909 38.3502 59.5694 41.6772C58.6676 44.1401 57.7643 46.6031 56.9236 49.0875C56.5862 50.0839 56.2621 51.0861 55.9446 52.0876C55.8214 52.471 55.7304 52.8642 55.6727 53.263C55.6268 53.5295 55.6189 53.8012 55.6492 54.0699C55.6684 54.2439 55.7232 54.4119 55.8102 54.5634C55.8971 54.7148 56.0142 54.8463 56.1541 54.9496C56.3399 55.0837 56.5442 55.1896 56.7604 55.2638C57.1046 55.3866 57.4587 55.4786 57.8187 55.5387C58.2163 55.613 58.6154 55.6687 59.0145 55.7334C59.0402 55.7378 59.0652 55.743 59.0997 55.7497C59.11 55.7791 59.1169 55.8095 59.1203 55.8404C59.1203 56.2292 59.1203 56.6178 59.1203 57.0061C59.1173 57.0293 59.1122 57.0522 59.1049 57.0744C59.0692 57.0824 59.0332 57.0883 58.9969 57.0923C58.9447 57.0923 58.8925 57.0923 58.8403 57.0923H48.5929V57.0945Z"/><g style="mix-blend-mode:multiply" opacity=".2"><path fill="#191326" fill-rule="evenodd" d="M63.9 67.8977C77.3746 67.8977 88.2979 56.9745 88.2979 43.4999C88.2979 30.0254 77.3746 19.1021 63.9 19.1021C50.4255 19.1021 39.5022 30.0254 39.5022 43.4999C39.5022 56.9745 50.4255 67.8977 63.9 67.8977ZM63.9 69.5999C78.3147 69.5999 90 57.9145 90 43.4999C90 29.0853 78.3147 17.3999 63.9 17.3999C49.4854 17.3999 37.8 29.0853 37.8 43.4999C37.8 57.9145 49.4854 69.5999 63.9 69.5999Z" clip-rule="evenodd"/></g></g><defs><linearGradient id="paint0_linear" x1="63.454" x2="55.428" y1="52.664" y2="83.331" gradientUnits="userSpaceOnUse"><stop stop-color="#404042"/><stop offset="1" stop-color="#48484B"/></linearGradient><linearGradient id="paint1_linear" x1="27.941" x2="25.041" y1="63.058" y2="73.878" gradientUnits="userSpaceOnUse"><stop stop-color="#404042"/><stop offset="1" stop-color="#48484B"/></linearGradient><linearGradient id="paint2_linear" x1="44.097" x2="53.454" y1="48.101" y2="98.772" gradientUnits="userSpaceOnUse"><stop stop-color="#404042"/><stop offset="1" stop-color="#48484B"/></linearGradient><clipPath id="clip0"><rect width="96" height="96" fill="#fff"/></clipPath></defs></svg>