<svg width="96" height="96" viewBox="0 0 96 96" fill="none" xmlns="http://www.w3.org/2000/svg">
<g clip-path="url(#clip0)">
<path d="M28.8271 71.4167C26.9201 78.7035 37.8271 87.8696 53.1884 91.8897C68.5498 95.9098 82.5486 93.2616 84.4556 85.9748C86.3625 78.688 75.4556 69.5219 60.0942 65.5018C44.7328 61.4817 30.7341 64.1299 28.8271 71.4167Z" fill="#606063"/>
<path d="M82.1547 89.5637L91.408 79.7928L25.7954 62.6218L29.2278 75.7126L82.1547 89.5637Z" fill="#606063"/>
<path d="M29.9603 64.976L4.84355 58.4028C3.75485 58.1179 2.64762 58.7955 2.40585 59.8946L2.12492 61.1716C1.56511 63.7164 3.0718 66.2601 5.57256 66.9921L30.6598 74.3351L29.9603 64.976Z" fill="#606063"/>
<path d="M25.9216 59.2257C23.7054 67.6942 36.9161 78.4866 55.4285 83.3314C73.9409 88.1762 90.7448 85.2386 92.9611 76.7701C95.1773 68.3017 81.9666 57.5092 63.4542 52.6644C44.9417 47.8197 28.1378 50.7573 25.9216 59.2257Z" fill="url(#paint0_linear)"/>
<path fill-rule="evenodd" clip-rule="evenodd" d="M76.6039 73.9714C80.8628 77.1035 83.3516 80.4912 83.723 83.4942L85.5094 83.2733C85.0465 79.5305 82.0672 75.7549 77.6703 72.5213C73.2364 69.2606 67.2065 66.4328 60.3221 64.6311C53.4377 62.8294 46.7957 62.341 41.3329 63.0117C35.9156 63.6769 31.4688 65.509 29.2318 68.5452L30.6809 69.6129C32.4758 67.1768 36.305 65.4426 41.5522 64.7983C46.7539 64.1596 53.1649 64.6187 59.8664 66.3725C66.5679 68.1263 72.3819 70.8665 76.6039 73.9714Z" fill="#606063"/>
<path fill-rule="evenodd" clip-rule="evenodd" d="M34.0406 71.2435C28.8082 66.9688 26.8419 62.8188 27.663 59.6814C28.484 56.5441 32.2312 53.8892 38.8868 52.7257C45.3707 51.5922 53.9337 52.0335 62.9984 54.4058C72.0632 56.7781 79.7446 60.588 84.8421 64.7524C90.0745 69.027 92.0408 73.1771 91.2197 76.3144C90.3986 79.4518 86.6515 82.1066 79.9959 83.2701C73.512 84.4036 64.949 83.9623 55.8842 81.59C46.8195 79.2178 39.1381 75.4079 34.0406 71.2435ZM55.4285 83.3314C36.9161 78.4866 23.7054 67.6942 25.9216 59.2257C28.1378 50.7573 44.9417 47.8197 63.4542 52.6644C81.9666 57.5092 95.1773 68.3017 92.9611 76.7701C90.7448 85.2386 73.9409 88.1762 55.4285 83.3314Z" fill="#979797"/>
<path fill-rule="evenodd" clip-rule="evenodd" d="M27.1003 74.4294L24.1382 62.9559L25.8811 62.5059L28.8431 73.9794L27.1003 74.4294Z" fill="url(#paint1_linear)"/>
<path fill-rule="evenodd" clip-rule="evenodd" d="M26.0815 63.7137C26.0545 63.6248 26.0287 63.536 26.0044 63.4474C25.9594 63.2836 25.919 63.1202 25.8831 62.9572L25.7982 62.6332C25.7969 62.6281 25.8015 62.6235 25.8066 62.6248C25.8114 62.6261 25.8159 62.6219 25.8151 62.6169C25.8142 62.6121 25.8133 62.6072 25.8124 62.6024C25.7839 62.443 25.76 62.2841 25.7405 62.1256C25.7358 62.0875 25.7314 62.0495 25.7273 62.0114C25.6839 61.6135 25.6694 61.2184 25.6847 60.827C25.6847 60.8268 25.6847 60.8265 25.6847 60.8263C25.7059 60.2851 25.784 59.7509 25.9215 59.2257C28.1377 50.7572 44.9416 47.8196 63.454 52.6644C81.9665 57.5091 95.1771 68.3016 92.9609 76.7701C92.8235 77.2953 92.6299 77.7993 92.3833 78.2815C92.3831 78.2817 92.383 78.2819 92.3829 78.2821C92.1166 78.8027 91.7884 79.2978 91.4023 79.7669C91.3991 79.7707 91.3959 79.7746 91.3926 79.7785C91.3915 79.7799 91.391 79.7816 91.391 79.7832C91.3911 79.7861 91.393 79.789 91.3963 79.7898C91.3993 79.7906 91.4012 79.7931 91.4015 79.7958C91.4017 79.7978 91.4011 79.7998 91.3996 79.8015L91.0351 80.1863C90.9929 80.2318 90.9501 80.2769 90.9068 80.3219L90.165 81.1051L90.1637 81.1065L83.2761 88.3794C79.1914 93.798 66.7184 95.4303 53.1883 91.8894C39.8068 88.3874 29.8054 80.9804 28.7103 74.3124C28.6543 73.9712 28.42 73.6802 28.0881 73.5831L6.07626 67.1458C3.59005 66.4187 2.08332 63.8994 2.6189 61.365L2.89436 60.0615C3.12823 58.9548 4.23932 58.2679 5.33386 58.5534L25.8831 63.9123C26.0034 63.9436 26.113 63.8339 26.0815 63.7137ZM23.8871 61.5315C23.8489 60.6053 23.9417 59.6808 24.1801 58.7699C25.5753 53.4388 31.3382 50.3907 38.2667 49.1795C45.3669 47.9382 54.4621 48.4506 63.9097 50.923C73.3574 53.3955 81.5376 57.4042 87.1195 61.9644C92.5665 66.4143 96.0974 71.8947 94.7023 77.2258C94.3679 78.5035 93.7707 79.6641 92.9618 80.6991C92.8925 80.8183 92.8076 80.9324 92.7065 81.0392L92.3539 81.4114C92.3519 81.4136 92.3499 81.4157 92.3479 81.4179C92.3018 81.4674 92.2552 81.5166 92.2081 81.5655C92.206 81.5677 92.2039 81.5698 92.2018 81.572L84.6489 89.5475C82.1469 92.7913 77.4335 94.6236 71.9901 95.2812C66.4105 95.9554 59.68 95.4489 52.7326 93.6308C45.8611 91.8325 39.8038 89.0196 35.2857 85.7457C31.038 82.6678 27.8929 78.9889 27.04 75.152L5.57102 68.8734C2.18171 67.8822 0.127671 64.4478 0.85779 60.9929L1.13325 59.6894C1.57951 57.5777 3.69958 56.267 5.78808 56.8116L23.8871 61.5315Z" fill="url(#paint2_linear)"/>
<circle cx="34.2001" cy="17.4" r="17.4" fill="#F0B90B"/>
<path d="M27.7111 17.4L25.0489 20.0807L22.3682 17.4L25.0489 14.7193L27.7111 17.4ZM34.2002 10.9109L38.7851 15.4958L41.4658 12.8151L36.8809 8.24868L34.2002 5.56799L31.5195 8.24868L26.9531 12.8151L29.6338 15.4958L34.2002 10.9109ZM43.3515 14.7193L40.6893 17.4L43.37 20.0807L46.0322 17.4L43.3515 14.7193ZM34.2002 23.8891L29.6153 19.3042L26.9531 21.9849L31.538 26.5698L34.2002 29.232L36.8809 26.5513L41.4658 21.9664L38.7851 19.3042L34.2002 23.8891ZM34.2002 20.0807L36.8809 17.4L34.2002 14.7193L31.5195 17.4L34.2002 20.0807Z" fill="#FFFDFA"/>
<g style="mix-blend-mode:multiply" opacity="0.1">
<path fill-rule="evenodd" clip-rule="evenodd" d="M34.2001 33C42.8157 33 49.8 26.0156 49.8 17.4C49.8 8.78436 42.8157 1.8 34.2001 1.8C25.5844 1.8 18.6 8.78436 18.6 17.4C18.6 26.0156 25.5844 33 34.2001 33ZM34.2001 34.8C43.8098 34.8 51.6001 27.0098 51.6001 17.4C51.6001 7.79025 43.8098 0 34.2001 0C24.5903 0 16.8 7.79025 16.8 17.4C16.8 27.0098 24.5903 34.8 34.2001 34.8Z" fill="#191326"/>
</g>
<ellipse cx="63.9" cy="43.5" rx="26.1" ry="26.1" fill="#FFFEFB"/>
<g opacity="0.9">
<path opacity="0.9" fill-rule="evenodd" clip-rule="evenodd" d="M78.7079 26.1981C78.0014 25.5818 76.9368 25.3383 75.5151 25.5337C74.0951 25.729 72.3882 26.3554 70.4999 27.3827C66.7272 29.4351 62.3339 33.031 58.2335 37.6933C54.1332 42.3555 51.133 47.1665 49.5874 51.161C48.8138 53.1605 48.4154 54.9276 48.4082 56.3546C48.401 57.783 48.7834 58.8011 49.4897 59.4172C50.1963 60.0335 51.2608 60.277 52.6826 60.0815C54.1025 59.8863 55.8094 59.26 57.6977 58.2325L57.824 58.4647L57.6977 58.2325C61.4703 56.1801 65.8637 52.5842 69.9641 47.922C74.0643 43.2597 77.0646 38.4488 78.6103 34.4542C79.3839 32.4548 79.7823 30.6876 79.7894 29.2607C79.7966 27.8322 79.4143 26.8141 78.7079 26.1981L78.7079 26.1981ZM79.0554 25.7996C78.1909 25.0455 76.949 24.8029 75.4431 25.01C73.9371 25.217 72.1673 25.8737 70.2472 26.9182L70.3735 27.1505L70.2472 26.9182C66.4072 29.0073 61.9669 32.6477 57.8365 37.3441C53.7062 42.0405 50.6678 46.9039 49.0943 50.9703C48.3076 53.0035 47.8871 54.8375 47.8795 56.3519C47.8719 57.8666 48.2774 59.0613 49.1422 59.8156C50.0067 60.5697 51.2486 60.8123 52.7546 60.6053C54.2605 60.3983 56.0303 59.7416 57.9504 58.6969C61.7903 56.6078 66.2306 52.9675 70.3611 48.2712L70.1626 48.0966L70.3611 48.2712C74.4914 43.5747 77.5299 38.7114 79.1033 34.645C79.8901 32.6118 80.3105 30.7778 80.3181 29.2633C80.3258 27.7487 79.9203 26.5539 79.0554 25.7996Z" fill="url(#paint3_linear)"/>
<path opacity="0.9" d="M62.3038 55.0348C62.6931 55.0348 63.0088 55.3503 63.0088 55.7398V62.3925H63.5375V55.7398C63.5375 55.3503 63.8531 55.0348 64.2424 55.0348H69.4706V54.5061H64.2424C63.8531 54.5061 63.5375 54.1905 63.5375 53.8012V47.8303H63.0088V53.8012C63.0088 54.1905 62.6931 54.5061 62.3038 54.5061H56.5469V55.0348H62.3038Z" fill="url(#paint4_linear)"/>
<path opacity="0.9" d="M62.3817 32.4766C62.771 32.4766 63.0866 32.7923 63.0866 33.1816V39.8344H63.6153V33.1816C63.6153 32.7923 63.9309 32.4766 64.3202 32.4766H69.5486V31.9479H64.3202C63.9309 31.9479 63.6153 31.6323 63.6153 31.243V25.2722H63.0866V31.243C63.0866 31.6323 62.771 31.9479 62.3817 31.9479H56.6248V32.4766H62.3817Z" fill="url(#paint5_linear)"/>
</g>
<g style="mix-blend-mode:multiply" opacity="0.2">
<path fill-rule="evenodd" clip-rule="evenodd" d="M63.9 67.8979C77.3746 67.8979 88.2979 56.9746 88.2979 43.5C88.2979 30.0255 77.3746 19.1022 63.9 19.1022C50.4255 19.1022 39.5022 30.0255 39.5022 43.5C39.5022 56.9746 50.4255 67.8979 63.9 67.8979ZM63.9 69.6C78.3147 69.6 90 57.9147 90 43.5C90 29.0854 78.3147 17.4 63.9 17.4C49.4854 17.4 37.8 29.0854 37.8 43.5C37.8 57.9147 49.4854 69.6 63.9 69.6Z" fill="#191326"/>
</g>
</g>
<defs>
<linearGradient id="paint0_linear" x1="63.4542" y1="52.6644" x2="55.4285" y2="83.3314" gradientUnits="userSpaceOnUse">
<stop stop-color="#404042"/>
<stop offset="1" stop-color="#48484B"/>
</linearGradient>
<linearGradient id="paint1_linear" x1="27.9403" y1="63.0577" x2="25.0411" y2="73.8776" gradientUnits="userSpaceOnUse">
<stop stop-color="#404042"/>
<stop offset="1" stop-color="#48484B"/>
</linearGradient>
<linearGradient id="paint2_linear" x1="44.0969" y1="48.1012" x2="53.4537" y2="98.7722" gradientUnits="userSpaceOnUse">
<stop stop-color="#404042"/>
<stop offset="1" stop-color="#48484B"/>
</linearGradient>
<linearGradient id="paint3_linear" x1="55.9653" y1="64.6398" x2="84.3442" y2="32.1032" gradientUnits="userSpaceOnUse">
<stop stop-color="#08AEEA"/>
<stop offset="1" stop-color="#2AF598"/>
</linearGradient>
<linearGradient id="paint4_linear" x1="56.7892" y1="62.3925" x2="69.1072" y2="62.3925" gradientUnits="userSpaceOnUse">
<stop stop-color="#08AEEA"/>
<stop offset="1" stop-color="#2AF598"/>
</linearGradient>
<linearGradient id="paint5_linear" x1="56.8671" y1="39.8344" x2="69.185" y2="39.8344" gradientUnits="userSpaceOnUse">
<stop stop-color="#08AEEA"/>
<stop offset="1" stop-color="#2AF598"/>
</linearGradient>
<clipPath id="clip0">
<rect width="96" height="96" fill="white"/>
</clipPath>
</defs>
</svg>
