<svg width="96" height="96" viewBox="0 0 96 96" fill="none" xmlns="http://www.w3.org/2000/svg">
<g clip-path="url(#clip0)">
<path d="M28.8271 71.4166C26.9201 78.7034 37.8271 87.8695 53.1884 91.8896C68.5498 95.9097 82.5486 93.2616 84.4556 85.9748C86.3625 78.6879 75.4556 69.5219 60.0942 65.5018C44.7328 61.4816 30.7341 64.1298 28.8271 71.4166Z" fill="#606063"/>
<path d="M82.1547 89.5637L91.408 79.7928L25.7954 62.6218L29.2278 75.7126L82.1547 89.5637Z" fill="#606063"/>
<path d="M29.9603 64.976L4.84357 58.4028C3.75488 58.1179 2.64765 58.7955 2.40588 59.8946L2.12495 61.1716C1.56514 63.7164 3.07182 66.2601 5.57259 66.9921L30.6598 74.335L29.9603 64.976Z" fill="#606063"/>
<path d="M25.9216 59.2256C23.7054 67.6941 36.9161 78.4866 55.4285 83.3313C73.941 88.1761 90.7448 85.2385 92.9611 76.7701C95.1773 68.3016 81.9666 57.5091 63.4542 52.6644C44.9417 47.8196 28.1378 50.7572 25.9216 59.2256Z" fill="url(#paint0_linear)"/>
<path fill-rule="evenodd" clip-rule="evenodd" d="M76.6039 73.9714C80.8628 77.1035 83.3516 80.4911 83.723 83.4942L85.5094 83.2732C85.0465 79.5304 82.0672 75.7549 77.6703 72.5213C73.2364 69.2605 67.2065 66.4327 60.3221 64.6311C53.4377 62.8294 46.7957 62.3409 41.3329 63.0117C35.9156 63.6768 31.4688 65.509 29.2318 68.5452L30.6809 69.6129C32.4758 67.1768 36.305 65.4425 41.5522 64.7983C46.7539 64.1596 53.1649 64.6186 59.8664 66.3724C66.5679 68.1262 72.3819 70.8665 76.6039 73.9714Z" fill="#606063"/>
<path fill-rule="evenodd" clip-rule="evenodd" d="M34.0406 71.2434C28.8082 66.9688 26.8419 62.8187 27.663 59.6814C28.484 56.544 32.2312 53.8892 38.8868 52.7257C45.3707 51.5922 53.9337 52.0334 62.9984 54.4057C72.0632 56.778 79.7446 60.5879 84.8421 64.7523C90.0745 69.0269 92.0408 73.177 91.2197 76.3143C90.3986 79.4517 86.6515 82.1065 79.9959 83.27C73.512 84.4035 64.949 83.9623 55.8842 81.59C46.8195 79.2177 39.1381 75.4078 34.0406 71.2434ZM55.4285 83.3313C36.9161 78.4866 23.7054 67.6941 25.9216 59.2256C28.1378 50.7572 44.9417 47.8196 63.4542 52.6644C81.9666 57.5091 95.1773 68.3016 92.9611 76.7701C90.7448 85.2385 73.941 88.1761 55.4285 83.3313Z" fill="#979797"/>
<path fill-rule="evenodd" clip-rule="evenodd" d="M27.1005 74.4294L24.1384 62.9559L25.8813 62.5059L28.8434 73.9794L27.1005 74.4294Z" fill="url(#paint1_linear)"/>
<path fill-rule="evenodd" clip-rule="evenodd" d="M26.0815 63.7137C26.0545 63.6248 26.0287 63.5361 26.0044 63.4474C25.9594 63.2837 25.919 63.1203 25.8831 62.9573L25.7982 62.6332C25.7969 62.6281 25.8015 62.6235 25.8066 62.6248C25.8114 62.6261 25.8159 62.6219 25.8151 62.617C25.8142 62.6121 25.8133 62.6072 25.8124 62.6024C25.7839 62.443 25.76 62.2841 25.7405 62.1256C25.7358 62.0875 25.7314 62.0495 25.7273 62.0115C25.6839 61.6135 25.6694 61.2185 25.6847 60.8271C25.6847 60.8268 25.6847 60.8266 25.6847 60.8263C25.7059 60.2851 25.784 59.751 25.9215 59.2257C28.1377 50.7572 44.9416 47.8197 63.454 52.6644C81.9665 57.5092 95.1771 68.3017 92.9609 76.7701C92.8235 77.2954 92.6299 77.7993 92.3833 78.2815C92.3831 78.2817 92.383 78.2819 92.3829 78.2821C92.1166 78.8027 91.7884 79.2978 91.4023 79.7669C91.3991 79.7708 91.3959 79.7747 91.3926 79.7786C91.3915 79.78 91.391 79.7816 91.391 79.7832C91.3911 79.7862 91.393 79.789 91.3963 79.7899C91.3993 79.7906 91.4012 79.7931 91.4015 79.7959C91.4017 79.7978 91.4011 79.7999 91.3996 79.8015L91.0351 80.1864C90.9929 80.2318 90.9501 80.277 90.9068 80.3219L90.165 81.1052L90.1637 81.1065L83.2761 88.3795C79.1914 93.798 66.7184 95.4303 53.1883 91.8895C39.8068 88.3875 29.8054 80.9805 28.7103 74.3125C28.6543 73.9712 28.42 73.6802 28.0881 73.5831L6.07626 67.1458C3.59005 66.4187 2.08332 63.8994 2.6189 61.3651L2.89435 60.0616C3.12823 58.9549 4.23932 58.268 5.33386 58.5534L25.8831 63.9123C26.0034 63.9437 26.113 63.8339 26.0815 63.7137ZM23.8871 61.5316C23.8489 60.6053 23.9417 59.6809 24.1801 58.77C25.5753 53.4389 31.3382 50.3907 38.2667 49.1795C45.3669 47.9383 54.4621 48.4506 63.9097 50.9231C73.3574 53.3955 81.5376 57.4043 87.1195 61.9644C92.5665 66.4143 96.0974 71.8947 94.7023 77.2258C94.3679 78.5035 93.7707 79.6642 92.9618 80.6991C92.8925 80.8183 92.8076 80.9324 92.7065 81.0392L92.3539 81.4115C92.3519 81.4136 92.3499 81.4158 92.3479 81.4179C92.3018 81.4674 92.2552 81.5166 92.2081 81.5655C92.206 81.5677 92.2039 81.5698 92.2018 81.572L84.6489 89.5475C82.1469 92.7913 77.4335 94.6236 71.9901 95.2813C66.4105 95.9554 59.68 95.449 52.7326 93.6308C45.8611 91.8325 39.8038 89.0196 35.2857 85.7458C31.038 82.6678 27.8929 78.9889 27.04 75.152L5.57102 68.8734C2.18171 67.8822 0.127671 64.4479 0.85779 60.9929L1.13325 59.6894C1.57951 57.5777 3.69958 56.267 5.78808 56.8117L23.8871 61.5316Z" fill="url(#paint2_linear)"/>
<circle cx="34.2001" cy="17.4" r="17.4" fill="#F0B90B"/>
<path d="M27.7111 17.4L25.0489 20.0807L22.3682 17.4L25.0489 14.7193L27.7111 17.4ZM34.2002 10.9109L38.7851 15.4958L41.4658 12.8151L36.8809 8.24868L34.2002 5.56799L31.5195 8.24868L26.9531 12.8151L29.6338 15.4958L34.2002 10.9109ZM43.3515 14.7193L40.6893 17.4L43.37 20.0807L46.0322 17.4L43.3515 14.7193ZM34.2002 23.8891L29.6153 19.3042L26.9531 21.9849L31.538 26.5698L34.2002 29.232L36.8809 26.5513L41.4658 21.9664L38.7851 19.3042L34.2002 23.8891ZM34.2002 20.0807L36.8809 17.4L34.2002 14.7193L31.5195 17.4L34.2002 20.0807Z" fill="#FFFDFA"/>
<g style="mix-blend-mode:multiply" opacity="0.1">
<path fill-rule="evenodd" clip-rule="evenodd" d="M34.2001 33C42.8157 33 49.8 26.0156 49.8 17.4C49.8 8.78436 42.8157 1.8 34.2001 1.8C25.5844 1.8 18.6 8.78436 18.6 17.4C18.6 26.0156 25.5844 33 34.2001 33ZM34.2001 34.8C43.8098 34.8 51.6001 27.0098 51.6001 17.4C51.6001 7.79025 43.8098 0 34.2001 0C24.5903 0 16.8 7.79025 16.8 17.4C16.8 27.0098 24.5903 34.8 34.2001 34.8Z" fill="#191326"/>
</g>
<ellipse cx="63.9" cy="43.5" rx="26.1" ry="26.1" fill="white"/>
<path d="M72.916 50.6663H51.3115L66.1671 25.0125H62.1098L45.301 54.152L74.9248 54.144L72.916 50.6663Z" fill="url(#paint3_linear)"/>
<path d="M66.1671 25.0125L66.1433 25.0522L51.3115 50.6663H55.3609L66.1433 31.9917V31.9996L78.2834 52.9927L78.5136 53.3897L80.9671 57.6296L82.9917 54.1202L66.1671 25.0125ZM51.3115 50.6663L55.3529 50.6743L55.3609 50.6663L66.1433 31.9917V25.0522L51.3115 50.6663Z" fill="url(#paint4_linear)"/>
<path d="M45.301 54.1518L47.3178 57.6374H80.9671L69.2001 37.2557L66.1512 31.9915L64.1424 35.4692L74.9248 54.1518H45.301Z" fill="#5B5A68"/>
<g style="mix-blend-mode:multiply" opacity="0.2">
<path fill-rule="evenodd" clip-rule="evenodd" d="M63.9 67.8978C77.3746 67.8978 88.2979 56.9745 88.2979 43.5C88.2979 30.0254 77.3746 19.1022 63.9 19.1022C50.4255 19.1022 39.5022 30.0254 39.5022 43.5C39.5022 56.9745 50.4255 67.8978 63.9 67.8978ZM63.9 69.6C78.3147 69.6 90 57.9146 90 43.5C90 29.0854 78.3147 17.4 63.9 17.4C49.4854 17.4 37.8 29.0854 37.8 43.5C37.8 57.9146 49.4854 69.6 63.9 69.6Z" fill="#191326"/>
</g>
</g>
<defs>
<linearGradient id="paint0_linear" x1="63.4542" y1="52.6644" x2="55.4285" y2="83.3313" gradientUnits="userSpaceOnUse">
<stop stop-color="#404042"/>
<stop offset="1" stop-color="#48484B"/>
</linearGradient>
<linearGradient id="paint1_linear" x1="27.9405" y1="63.0577" x2="25.0413" y2="73.8776" gradientUnits="userSpaceOnUse">
<stop stop-color="#404042"/>
<stop offset="1" stop-color="#48484B"/>
</linearGradient>
<linearGradient id="paint2_linear" x1="44.0969" y1="48.1012" x2="53.4537" y2="98.7722" gradientUnits="userSpaceOnUse">
<stop stop-color="#404042"/>
<stop offset="1" stop-color="#48484B"/>
</linearGradient>
<linearGradient id="paint3_linear" x1="69.1928" y1="39.0453" x2="49.0358" y2="54.9942" gradientUnits="userSpaceOnUse">
<stop stop-color="#DEEDF8"/>
<stop offset="0.11" stop-color="#DEEDF8"/>
<stop offset="1" stop-color="#BCC9D0"/>
</linearGradient>
<linearGradient id="paint4_linear" x1="59.383" y1="33.1977" x2="70.5338" y2="60.7658" gradientUnits="userSpaceOnUse">
<stop stop-color="#CDCDCF"/>
<stop offset="1" stop-color="#939393"/>
</linearGradient>
<clipPath id="clip0">
<rect width="96" height="96" fill="white"/>
</clipPath>
</defs>
</svg>
