<svg width="160" height="160" viewBox="0 0 160 160" fill="none" xmlns="http://www.w3.org/2000/svg">
<g clip-path="url(#clip0)">
<path d="M48.045 119.028C44.8667 131.172 63.0449 146.449 88.6472 153.149C114.25 159.849 137.581 155.436 140.759 143.291C143.937 131.146 125.759 115.87 100.157 109.169C74.5546 102.469 51.2233 106.883 48.045 119.028Z" fill="#606063"/>
<path d="M136.924 149.273L152.346 132.988L42.9922 104.369L48.7128 126.187L136.924 149.273Z" fill="#606063"/>
<path d="M49.9337 108.293L8.07245 97.338C6.25796 96.8632 4.41259 97.9924 4.00962 99.8242L3.54142 101.953C2.60839 106.194 5.11954 110.433 9.28748 111.653L51.0994 123.892L49.9337 108.293Z" fill="#606063"/>
<path d="M43.2026 98.7096C39.5089 112.824 61.5267 130.811 92.3808 138.886C123.235 146.96 151.241 142.064 154.935 127.95C158.629 113.836 136.611 95.8488 105.757 87.7742C74.9028 79.6996 46.8963 84.5955 43.2026 98.7096Z" fill="url(#paint0_linear)"/>
<path fill-rule="evenodd" clip-rule="evenodd" d="M127.673 123.286C134.771 128.506 138.919 134.152 139.538 139.157L142.516 138.789C141.744 132.551 136.779 126.258 129.45 120.869C122.061 115.434 112.011 110.721 100.537 107.718C89.0628 104.716 77.9927 103.901 68.888 105.019C59.8593 106.128 52.4479 109.182 48.7196 114.242L51.1348 116.021C54.1263 111.961 60.5082 109.071 69.2536 107.997C77.9231 106.933 88.6081 107.698 99.7773 110.621C110.946 113.544 120.636 118.111 127.673 123.286Z" fill="#606063"/>
<path fill-rule="evenodd" clip-rule="evenodd" d="M56.7343 118.739C48.0136 111.615 44.7365 104.698 46.1049 99.4692C47.4733 94.2403 53.7186 89.8155 64.8112 87.8763C75.6178 85.9872 89.8893 86.7226 104.997 90.6764C120.105 94.6302 132.908 100.98 141.403 107.921C150.124 115.045 153.401 121.962 152.033 127.191C150.664 132.42 144.419 136.844 133.326 138.784C122.52 140.673 108.248 139.937 93.1403 135.984C78.0323 132.03 65.2301 125.68 56.7343 118.739ZM92.3808 138.886C61.5267 130.811 39.5089 112.824 43.2026 98.7096C46.8963 84.5955 74.9028 79.6996 105.757 87.7742C136.611 95.8488 158.629 113.836 154.935 127.95C151.241 142.064 123.235 146.96 92.3808 138.886Z" fill="#979797"/>
<path fill-rule="evenodd" clip-rule="evenodd" d="M45.1673 124.049L40.2305 104.926L43.1352 104.176L48.0721 123.299L45.1673 124.049Z" fill="url(#paint1_linear)"/>
<path fill-rule="evenodd" clip-rule="evenodd" d="M43.4691 106.189C43.4241 106.041 43.3812 105.893 43.3406 105.746C43.2656 105.473 43.1983 105.2 43.1386 104.929L42.997 104.389C42.9948 104.38 43.0025 104.372 43.0109 104.375C43.019 104.377 43.0266 104.37 43.0251 104.362C43.0236 104.353 43.0222 104.345 43.0207 104.337C42.9732 104.072 42.9333 103.807 42.9009 103.543C42.8931 103.479 42.8857 103.416 42.8788 103.352C42.8065 102.689 42.7824 102.031 42.8078 101.378C42.8079 101.378 42.8079 101.378 42.8079 101.377C42.8432 100.475 42.9734 99.5849 43.2025 98.7095C46.8962 84.5954 74.9027 79.6994 105.757 87.774C136.611 95.8486 158.629 113.836 154.935 127.95C154.706 128.826 154.383 129.666 153.972 130.469C153.972 130.469 153.972 130.47 153.972 130.47C153.528 131.338 152.981 132.163 152.337 132.945C152.332 132.951 152.326 132.958 152.321 132.964C152.319 132.967 152.318 132.969 152.318 132.972C152.318 132.977 152.322 132.982 152.327 132.983C152.332 132.984 152.335 132.989 152.336 132.993C152.336 132.996 152.335 133 152.333 133.002L151.725 133.644C151.655 133.72 151.584 133.795 151.511 133.87L150.275 135.175L150.273 135.177L138.793 147.299C131.986 156.33 111.197 159.051 88.6472 153.149C66.3446 147.312 49.6757 134.967 47.8505 123.854C47.7571 123.285 47.3667 122.8 46.8135 122.639L10.1271 111.91C5.98342 110.698 3.4722 106.499 4.36483 102.275L4.82393 100.103C5.21371 98.2581 7.06553 97.1133 8.88976 97.589L43.1386 106.52C43.3391 106.573 43.5217 106.39 43.4691 106.189ZM39.8119 102.553C39.7482 101.009 39.9029 99.4681 40.3002 97.9499C42.6255 89.0648 52.2303 83.9845 63.7779 81.9658C75.6114 79.8971 90.7702 80.751 106.516 84.8718C122.262 88.9926 135.896 95.6738 145.199 103.274C154.277 110.691 160.162 119.825 157.837 128.71C157.28 130.839 156.285 132.774 154.936 134.499C154.821 134.697 154.679 134.887 154.511 135.065L153.923 135.686C153.92 135.689 153.916 135.693 153.913 135.697C153.836 135.779 153.759 135.861 153.68 135.943C153.677 135.946 153.673 135.95 153.67 135.953L141.082 149.246C136.911 154.652 129.056 157.706 119.984 158.802C110.684 159.926 99.4667 159.082 87.8877 156.051C76.4351 153.054 66.3397 148.366 58.8095 142.91C51.73 137.78 46.4882 131.648 45.0667 125.253L9.28503 114.789C3.63618 113.137 0.212785 107.413 1.42965 101.655L1.88875 99.4823C2.63251 95.9628 6.16596 93.7783 9.64679 94.6861L39.8119 102.553Z" fill="url(#paint2_linear)"/>
<circle cx="57" cy="29" r="29" fill="#F0B90B"/>
<path d="M46.1846 28.9998L41.7476 33.4676L37.2798 28.9998L41.7476 24.532L46.1846 28.9998ZM56.9998 18.1846L64.6413 25.8261L69.1091 21.3583L61.4676 13.7476L56.9998 9.27979L52.532 13.7476L44.9213 21.3583L49.3891 25.8261L56.9998 18.1846ZM72.252 24.532L67.815 28.9998L72.2828 33.4676L76.7198 28.9998L72.252 24.532ZM56.9998 39.815L49.3583 32.1735L44.9213 36.6413L52.5628 44.2828L56.9998 48.7198L61.4676 44.252L69.1091 36.6105L64.6413 32.1735L56.9998 39.815ZM56.9998 33.4676L61.4676 28.9998L56.9998 24.532L52.532 28.9998L56.9998 33.4676Z" fill="#FFFDFA"/>
<g style="mix-blend-mode:multiply" opacity="0.1">
<path fill-rule="evenodd" clip-rule="evenodd" d="M57 55C71.3594 55 83 43.3594 83 29C83 14.6406 71.3594 3 57 3C42.6406 3 31 14.6406 31 29C31 43.3594 42.6406 55 57 55ZM57 58C73.0163 58 86 45.0163 86 29C86 12.9837 73.0163 0 57 0C40.9837 0 28 12.9837 28 29C28 45.0163 40.9837 58 57 58Z" fill="#191326"/>
</g>
<circle cx="106.5" cy="72.5" r="43.5" fill="#F6B817"/>
<path d="M132.394 52.2779L132.208 51.2881L131.223 51.0827C131.156 51.0704 124.641 49.7037 118.843 46.4696C110.582 41.8453 107.798 38.9269 107.774 38.9003L106.67 37.7001L105.566 38.8942C105.537 38.9249 102.748 41.8494 94.4928 46.4686C88.6981 49.7007 82.1777 51.0704 82.1102 51.0827L81.1248 51.2881L80.9408 52.2779C79.7899 58.4549 79.7735 64.6778 80.8938 70.7864L81.3947 73.2186L81.5337 73.7815C83.1109 80.1893 85.8963 86.1754 89.8215 91.576C94.0778 97.4374 99.4882 102.346 105.898 106.172L106.666 106.631L107.437 106.172C113.847 102.346 119.255 97.4374 123.513 91.576C127.437 86.1754 130.223 80.1914 131.8 73.7815L132.44 70.7864C133.56 64.6778 133.546 58.457 132.394 52.2779Z" fill="#17191D"/>
<path d="M130.756 52.7154C130.756 52.7154 124.052 51.3214 118.035 47.9281C109.383 43.0413 106.669 40.0423 106.669 40.0423C106.669 40.0423 103.952 43.0413 95.3024 47.9281C89.283 51.3214 82.5803 52.7154 82.5803 52.7154C81.3438 59.411 81.489 66.1148 82.888 72.5L130.446 72.5C131.846 66.1148 131.99 59.411 130.756 52.7154Z" fill="#F6B817"/>
<path d="M106.67 104.958C119.339 97.4254 127.679 85.6379 130.592 72.4998H82.7422C85.6595 85.6379 93.9955 97.4254 106.67 104.958Z" fill="#971A2E"/>
<path d="M101.056 93.3088V92.5683C101.056 92.4328 101.056 92.3666 100.966 92.3666C100.854 92.3666 100.405 92.5833 100.275 92.6345C100.245 92.6465 100.214 92.6586 100.191 92.6586C100.172 92.6586 100.142 92.6285 100.142 92.5934C100.142 92.5603 100.172 92.5331 100.201 92.5171C100.227 92.503 101.375 91.7936 101.584 91.6471C101.637 91.614 101.691 91.5729 101.738 91.5729C101.792 91.5729 101.81 91.6371 101.81 91.6923C101.81 91.7374 101.773 92.2954 101.773 93.1603V94.2049C101.773 94.7478 101.773 95.2275 101.798 95.4783C101.815 95.6589 101.846 95.7412 102.036 95.7824C102.127 95.7974 102.383 95.8155 102.431 95.8155C102.455 95.8155 102.485 95.8315 102.485 95.8726C102.485 95.9118 102.455 95.9229 102.389 95.9229C101.935 95.9229 101.554 95.9058 101.391 95.9058C101.256 95.9058 100.753 95.9229 100.368 95.9229C100.304 95.9229 100.269 95.9118 100.269 95.8726C100.269 95.8315 100.291 95.8155 100.317 95.8155C100.382 95.8155 100.687 95.7974 100.795 95.7743C100.986 95.7352 101.016 95.6589 101.034 95.4783C101.056 95.2275 101.069 94.7478 101.063 94.2049L101.056 93.3088Z" fill="#110F0D"/>
<path d="M101.056 93.3088V92.5683C101.056 92.4328 101.056 92.3666 100.966 92.3666C100.854 92.3666 100.405 92.5833 100.275 92.6345C100.245 92.6466 100.214 92.6586 100.191 92.6586C100.172 92.6586 100.142 92.6285 100.142 92.5934C100.142 92.5603 100.172 92.5332 100.201 92.5171C100.227 92.5031 101.375 91.7936 101.584 91.6471C101.637 91.614 101.691 91.5729 101.738 91.5729C101.792 91.5729 101.81 91.6371 101.81 91.6923C101.81 91.7374 101.773 92.2953 101.773 93.1603V94.2049C101.773 94.7478 101.773 95.2275 101.798 95.4783C101.815 95.6589 101.846 95.7412 102.036 95.7824C102.127 95.7974 102.383 95.8155 102.431 95.8155C102.455 95.8155 102.485 95.8315 102.485 95.8727C102.485 95.9118 102.455 95.9229 102.389 95.9229C101.935 95.9229 101.554 95.9058 101.391 95.9058C101.256 95.9058 100.753 95.9229 100.368 95.9229C100.304 95.9229 100.269 95.9118 100.269 95.8727C100.269 95.8315 100.291 95.8155 100.317 95.8155C100.382 95.8155 100.687 95.7974 100.795 95.7743C100.986 95.7352 101.016 95.6589 101.034 95.4783C101.056 95.2275 101.069 94.7478 101.063 94.2049L101.056 93.3088Z" stroke="#100F0D" stroke-width="0.403419" stroke-miterlimit="10"/>
<path d="M106.165 93.0698C106.165 94.6107 104.712 95.5806 103.978 95.9004C103.95 95.915 103.92 95.9229 103.873 95.9229C103.847 95.9229 103.818 95.8945 103.818 95.8671C103.818 95.827 103.859 95.7948 103.889 95.7743C104.505 95.4262 105.43 94.5227 105.43 93.2242C105.43 92.2504 104.986 91.8212 104.528 91.8212C104.103 91.8212 103.818 92.1742 103.818 92.6405C103.818 93.4824 104.405 93.6809 104.607 93.6809C104.814 93.6809 104.934 93.6486 105.01 93.6144C105.074 93.5831 105.106 93.5567 105.128 93.5567C105.152 93.5567 105.175 93.5782 105.175 93.6046C105.175 93.6212 105.157 93.6565 105.145 93.6653C104.974 93.8354 104.666 93.9175 104.363 93.9175C103.509 93.9175 103.154 93.3182 103.154 92.8557C103.154 92.1126 103.758 91.5729 104.672 91.5729C105.638 91.5729 106.165 92.2348 106.165 93.0698Z" fill="#110F0D"/>
<path d="M106.165 93.0698C106.165 94.6107 104.712 95.5806 103.978 95.9004C103.95 95.915 103.92 95.9229 103.873 95.9229C103.847 95.9229 103.818 95.8945 103.818 95.8671C103.818 95.827 103.859 95.7948 103.889 95.7742C104.505 95.4262 105.43 94.5227 105.43 93.2243C105.43 92.2504 104.986 91.8212 104.528 91.8212C104.103 91.8212 103.818 92.1742 103.818 92.6406C103.818 93.4824 104.405 93.6809 104.607 93.6809C104.814 93.6809 104.933 93.6486 105.01 93.6144C105.074 93.5831 105.106 93.5567 105.128 93.5567C105.152 93.5567 105.175 93.5782 105.175 93.6046C105.175 93.6212 105.157 93.6564 105.145 93.6652C104.974 93.8354 104.666 93.9175 104.363 93.9175C103.509 93.9175 103.154 93.3181 103.154 92.8557C103.154 92.1126 103.758 91.5729 104.672 91.5729C105.638 91.5729 106.165 92.2348 106.165 93.0698Z" stroke="#100F0D" stroke-width="0.403419" stroke-miterlimit="10"/>
<path d="M106.58 95.9229C106.539 95.9229 106.5 95.8896 106.5 95.8443C106.5 95.7989 106.556 95.7475 106.614 95.6962C107.422 95 108.571 94.1125 108.571 92.9168C108.571 92.0212 108.068 91.8398 107.779 91.8398C107.532 91.8398 107.341 91.8852 107.167 92.0443C107.031 92.1763 106.925 92.4402 106.925 92.5873C106.925 92.6447 106.908 92.6981 106.851 92.6981C106.821 92.6981 106.804 92.6568 106.798 92.5873C106.793 92.537 106.764 92.0665 106.764 91.9033C106.764 91.8519 106.77 91.8288 106.835 91.7885C107.058 91.6747 107.37 91.5729 107.878 91.5729C108.894 91.5729 109.326 92.1179 109.326 92.7808C109.326 93.8808 108.087 94.8409 107.341 95.4252C107.312 95.4443 107.323 95.4624 107.352 95.4624H107.746C107.844 95.4624 108.525 95.4584 108.739 95.4312C109.137 95.3839 109.326 95.1924 109.396 94.9255C109.413 94.858 109.43 94.8348 109.466 94.8348C109.504 94.8348 109.512 94.8862 109.512 94.9426C109.512 95.0333 109.402 95.5612 109.345 95.7515C109.298 95.9047 109.205 95.9229 108.843 95.9229H106.58Z" fill="#110F0D"/>
<path d="M106.58 95.9229C106.539 95.9229 106.5 95.8896 106.5 95.8443C106.5 95.7989 106.556 95.7476 106.614 95.6962C107.422 95.0001 108.571 94.1125 108.571 92.9167C108.571 92.0212 108.068 91.8398 107.779 91.8398C107.532 91.8398 107.341 91.8852 107.167 92.0443C107.031 92.1763 106.925 92.4402 106.925 92.5873C106.925 92.6447 106.908 92.6981 106.851 92.6981C106.821 92.6981 106.804 92.6568 106.798 92.5873C106.793 92.5369 106.764 92.0665 106.764 91.9033C106.764 91.8519 106.77 91.8287 106.835 91.7884C107.058 91.6746 107.37 91.5729 107.878 91.5729C108.894 91.5729 109.326 92.1179 109.326 92.7807C109.326 93.8808 108.087 94.8409 107.341 95.4252C107.312 95.4443 107.323 95.4625 107.352 95.4625H107.746C107.844 95.4625 108.525 95.4584 108.739 95.4312C109.137 95.3839 109.326 95.1925 109.396 94.9255C109.413 94.858 109.43 94.8348 109.466 94.8348C109.504 94.8348 109.512 94.8862 109.512 94.9426C109.512 95.0333 109.402 95.5612 109.345 95.7516C109.298 95.9047 109.205 95.9229 108.843 95.9229H106.58Z" stroke="#100F0D" stroke-width="0.403419" stroke-miterlimit="10"/>
<path d="M113.05 91.6276C113.162 91.6276 113.192 91.6455 113.192 91.6724C113.192 91.7072 113.169 91.7519 113.15 91.7748C112.655 92.4343 111.722 94.6585 111.632 95.3738C111.623 95.4702 111.632 95.5071 111.632 95.5836C111.632 95.6941 111.15 95.9229 110.88 95.9229C110.812 95.9229 110.796 95.9059 110.796 95.8572C110.796 95.7985 110.808 95.7149 110.838 95.6264C111.005 95.0882 111.771 93.438 112.594 92.1448H111.047C110.88 92.1448 110.63 92.1558 110.486 92.2453C110.377 92.313 110.301 92.492 110.288 92.5795C110.283 92.6243 110.264 92.6551 110.229 92.6551C110.187 92.6551 110.181 92.6243 110.181 92.5676C110.181 92.3637 110.271 91.7071 110.271 91.6504C110.271 91.5967 110.294 91.5729 110.33 91.5729C110.365 91.5729 110.503 91.6276 111.137 91.6276H113.05Z" fill="#110F0D"/>
<path d="M113.05 91.6276C113.162 91.6276 113.192 91.6455 113.192 91.6723C113.192 91.7071 113.169 91.7519 113.15 91.7748C112.655 92.4343 111.722 94.6585 111.632 95.3738C111.623 95.4702 111.632 95.5071 111.632 95.5836C111.632 95.6941 111.15 95.9229 110.88 95.9229C110.812 95.9229 110.796 95.9059 110.796 95.8572C110.796 95.7985 110.808 95.715 110.838 95.6264C111.005 95.0883 111.771 93.438 112.594 92.1448H111.047C110.88 92.1448 110.63 92.1558 110.486 92.2453C110.377 92.3129 110.301 92.492 110.288 92.5795C110.283 92.6243 110.264 92.6551 110.229 92.6551C110.187 92.6551 110.181 92.6243 110.181 92.5676C110.181 92.3637 110.271 91.7071 110.271 91.6504C110.271 91.5967 110.294 91.5729 110.33 91.5729C110.365 91.5729 110.503 91.6276 111.137 91.6276H113.05Z" stroke="#100F0D" stroke-width="0.403419" stroke-miterlimit="10"/>
<path d="M101.056 92.9738V92.235C101.056 92.0995 101.056 92.0313 100.966 92.0313C100.854 92.0313 100.407 92.2501 100.275 92.3013C100.245 92.3133 100.214 92.3254 100.191 92.3254C100.174 92.3254 100.142 92.2973 100.142 92.2622C100.142 92.229 100.174 92.1999 100.201 92.1839C100.227 92.1698 101.375 91.4602 101.584 91.3137C101.635 91.2785 101.691 91.2384 101.738 91.2384C101.792 91.2384 101.81 91.3016 101.81 91.3588C101.81 91.402 101.773 91.9621 101.773 92.8272V93.8731C101.773 94.4151 101.773 94.8968 101.798 95.1417C101.815 95.3264 101.846 95.4087 102.036 95.4499C102.127 95.4649 102.383 95.481 102.431 95.481C102.455 95.481 102.485 95.499 102.485 95.5422C102.485 95.5793 102.455 95.5884 102.389 95.5884C101.935 95.5884 101.554 95.5733 101.391 95.5733C101.256 95.5733 100.753 95.5884 100.371 95.5884C100.304 95.5884 100.269 95.5793 100.269 95.5422C100.269 95.499 100.291 95.481 100.317 95.481C100.382 95.481 100.687 95.4649 100.795 95.4439C100.986 95.4027 101.016 95.3264 101.034 95.1417C101.056 94.8968 101.069 94.4151 101.063 93.8731L101.056 92.9738Z" fill="#C6C1C0"/>
<path fill-rule="evenodd" clip-rule="evenodd" d="M100.334 95.5731C100.367 95.5868 100.406 95.5884 100.437 95.5884C100.616 95.5884 100.822 95.5847 100.999 95.5811C101.045 95.5802 101.088 95.5792 101.129 95.5784C101.247 95.5759 101.339 95.5739 101.385 95.5739C101.441 95.5739 101.525 95.5759 101.631 95.5784C101.667 95.5793 101.705 95.5802 101.746 95.5811C101.907 95.5847 102.102 95.5884 102.314 95.5884C102.344 95.5884 102.383 95.587 102.416 95.572C102.435 95.5632 102.454 95.5489 102.468 95.5268C102.481 95.5053 102.485 95.4829 102.485 95.4641C102.485 95.3795 102.421 95.3254 102.353 95.3254C102.312 95.3254 102.082 95.3104 102.001 95.297C101.925 95.2796 101.898 95.2576 101.883 95.2354C101.864 95.207 101.854 95.1617 101.846 95.0714L101.846 95.0709C101.823 94.8397 101.823 94.3807 101.823 93.8562V92.8487C101.823 92.433 101.832 92.0907 101.84 91.8472C101.845 91.6981 101.85 91.5833 101.854 91.5125C101.856 91.4694 101.857 91.4426 101.857 91.4342C101.857 91.4012 101.853 91.3593 101.835 91.3225C101.817 91.2833 101.777 91.2384 101.708 91.2384C101.663 91.2384 101.624 91.2572 101.596 91.2729C101.571 91.2874 101.545 91.3057 101.524 91.3205C101.521 91.3225 101.519 91.3244 101.516 91.3262L101.515 91.3268C101.42 91.3957 101.108 91.6004 100.812 91.7913C100.666 91.8863 100.524 91.9774 100.418 92.0455C100.364 92.0796 100.32 92.1079 100.288 92.1281C100.272 92.1382 100.26 92.1463 100.251 92.152C100.245 92.1557 100.241 92.158 100.239 92.1591C100.238 92.16 100.238 92.1602 100.238 92.1601L100.236 92.1609L100.235 92.1618C100.217 92.173 100.196 92.1894 100.178 92.2109C100.161 92.2319 100.142 92.264 100.142 92.3044C100.142 92.344 100.159 92.3766 100.178 92.3982C100.187 92.4093 100.199 92.4195 100.212 92.4276C100.222 92.4344 100.243 92.445 100.269 92.445C100.294 92.445 100.316 92.439 100.332 92.4337C100.349 92.4282 100.366 92.4213 100.38 92.4156C100.416 92.4012 100.477 92.373 100.546 92.3411C100.598 92.3168 100.656 92.2904 100.71 92.266C100.776 92.2368 100.84 92.2098 100.893 92.1902C100.919 92.1804 100.942 92.1729 100.96 92.168C100.969 92.1655 100.977 92.1638 100.982 92.1628C100.984 92.1625 100.986 92.1622 100.987 92.1621C100.989 92.1695 100.99 92.1805 100.991 92.1966C100.992 92.2187 100.992 92.245 100.992 92.2783V92.9904L100.998 93.8567L100.998 93.8571C101.004 94.3783 100.992 94.8392 100.972 95.0713C100.963 95.1618 100.952 95.2049 100.934 95.2315C100.92 95.2524 100.893 95.2736 100.814 95.2915C100.769 95.3003 100.679 95.3089 100.588 95.3153C100.498 95.3217 100.414 95.3254 100.387 95.3254C100.353 95.3254 100.318 95.3383 100.292 95.3679C100.268 95.3961 100.26 95.4312 100.26 95.4641C100.26 95.4852 100.265 95.5089 100.28 95.5307C100.295 95.5523 100.315 95.5653 100.334 95.5731ZM100.933 95.4229C100.954 95.4225 100.975 95.422 100.996 95.4216C101.04 95.4207 101.083 95.4198 101.123 95.4189C101.242 95.4164 101.337 95.4143 101.385 95.4143C101.443 95.4143 101.53 95.4164 101.637 95.419C101.672 95.4198 101.71 95.4207 101.75 95.4216C101.789 95.4225 101.831 95.4234 101.874 95.4242C101.82 95.4014 101.777 95.3691 101.745 95.3219C101.702 95.2563 101.69 95.1731 101.682 95.0855C101.659 94.8458 101.659 94.3798 101.659 93.863V92.8487C101.659 92.431 101.667 92.0868 101.676 91.8418C101.68 91.7193 101.684 91.6216 101.687 91.552C101.688 91.5329 101.689 91.5164 101.69 91.5019C101.69 91.4895 101.691 91.4787 101.691 91.4692C101.692 91.459 101.692 91.4509 101.692 91.4448L101.693 91.4373L101.693 91.4351L101.693 91.4344L101.693 91.4342C101.693 91.424 101.692 91.4142 101.69 91.4058C101.69 91.4054 101.69 91.4051 101.69 91.4047C101.687 91.4063 101.683 91.4082 101.679 91.4105C101.662 91.4206 101.643 91.4337 101.621 91.4493C101.619 91.4511 101.616 91.4529 101.613 91.4548C101.513 91.5274 101.196 91.7348 100.904 91.924C100.75 92.0237 100.6 92.1199 100.491 92.1898C100.538 92.1682 100.589 92.1446 100.642 92.121C100.708 92.0914 100.776 92.0626 100.834 92.0411C100.863 92.0304 100.891 92.0211 100.916 92.0143C100.939 92.008 100.966 92.0022 100.991 92.0022C101.022 92.0022 101.057 92.0084 101.087 92.0295C101.118 92.0509 101.134 92.0805 101.142 92.1076C101.151 92.1335 101.154 92.1619 101.155 92.1884C101.157 92.215 101.157 92.2453 101.157 92.2768V92.9899L101.163 93.8553C101.163 93.8554 101.163 93.8554 101.163 93.8555C101.169 94.3783 101.157 94.8454 101.135 95.0852L101.135 95.0857C101.127 95.1729 101.115 95.2554 101.071 95.3199C101.037 95.3687 100.991 95.4006 100.933 95.4229ZM101.685 91.387C101.685 91.3869 101.685 91.387 101.685 91.387V91.387Z" fill="#C6C1C0"/>
<path d="M106.165 92.8503C106.165 94.5098 104.712 95.5543 103.978 95.8986C103.947 95.9144 103.92 95.9229 103.871 95.9229C103.847 95.9229 103.818 95.8902 103.818 95.8607C103.818 95.8196 103.859 95.7849 103.889 95.7607C104.505 95.3859 105.43 94.415 105.43 93.0167C105.43 91.968 104.986 91.5036 104.53 91.5036C104.103 91.5036 103.818 91.8837 103.818 92.3881C103.818 93.2947 104.405 93.5105 104.607 93.5105C104.814 93.5105 104.934 93.4737 105.01 93.4389C105.074 93.401 105.106 93.3726 105.128 93.3726C105.152 93.3726 105.175 93.3978 105.175 93.4263C105.175 93.4421 105.157 93.4779 105.145 93.4916C104.974 93.6748 104.666 93.7611 104.363 93.7611C103.509 93.7611 103.154 93.1178 103.154 92.6197C103.154 91.8195 103.758 91.2382 104.672 91.2382C105.638 91.2382 106.165 91.95 106.165 92.8503Z" fill="#C6C1C0"/>
<path fill-rule="evenodd" clip-rule="evenodd" d="M103.818 95.8747C103.835 95.8941 103.868 95.9229 103.914 95.9229C103.973 95.9229 104.012 95.9117 104.053 95.8908C104.408 95.7206 104.933 95.3797 105.371 94.877C105.811 94.373 106.165 93.7023 106.165 92.8764C106.165 92.4268 106.036 92.0174 105.782 91.719C105.526 91.4191 105.15 91.2382 104.671 91.2382C104.221 91.2382 103.842 91.3844 103.574 91.6375C103.305 91.8908 103.154 92.2465 103.154 92.6541C103.154 92.9123 103.244 93.2075 103.443 93.4394C103.644 93.6734 103.953 93.8384 104.38 93.8384C104.677 93.8384 104.995 93.7529 105.179 93.5516L105.181 93.5503L105.182 93.5489C105.194 93.5343 105.205 93.5149 105.212 93.4996C105.216 93.4912 105.22 93.4816 105.223 93.4718C105.225 93.4635 105.23 93.4487 105.23 93.4318C105.23 93.3956 105.215 93.3635 105.195 93.3403C105.176 93.3179 105.143 93.2963 105.102 93.2963C105.08 93.2963 105.061 93.3034 105.05 93.3088C105.038 93.3145 105.026 93.3216 105.017 93.3277C105.009 93.3326 105.002 93.3373 104.995 93.3422C104.982 93.3506 104.969 93.3592 104.952 93.3697C104.891 93.3974 104.791 93.4293 104.61 93.4293C104.537 93.4293 104.371 93.3864 104.223 93.2399C104.079 93.0965 103.947 92.8485 103.947 92.4307C103.947 91.9702 104.197 91.6616 104.537 91.6616C104.721 91.6616 104.91 91.7564 105.055 91.9749C105.202 92.1951 105.305 92.5418 105.305 93.0368C105.305 94.3475 104.454 95.2601 103.888 95.6114L103.883 95.6144L103.879 95.618C103.865 95.6293 103.842 95.6482 103.823 95.6714C103.805 95.6942 103.781 95.7311 103.781 95.7792C103.781 95.8193 103.8 95.853 103.818 95.8747ZM104.049 95.7061C104.644 95.3042 105.471 94.3668 105.471 93.0368C105.471 92.5207 105.364 92.1379 105.193 91.8814C105.021 91.6232 104.784 91.4941 104.537 91.4941C104.07 91.4941 103.781 91.9186 103.781 92.4307C103.781 92.8871 103.927 93.1803 104.107 93.3594C104.285 93.5356 104.492 93.5968 104.61 93.5968C104.716 93.5968 104.8 93.5869 104.868 93.572C104.731 93.6371 104.558 93.6709 104.38 93.6709C103.999 93.6709 103.737 93.5257 103.568 93.3296C103.398 93.1312 103.32 92.8761 103.32 92.6541C103.32 92.29 103.454 91.9796 103.687 91.7599C103.92 91.5398 104.257 91.4058 104.671 91.4058C105.105 91.4058 105.434 91.5681 105.656 91.8283C105.879 92.0901 105.999 92.4579 105.999 92.8764C105.999 93.6507 105.668 94.2836 105.247 94.7663C104.853 95.218 104.385 95.5344 104.049 95.7061ZM103.946 95.7854C103.946 95.7854 103.946 95.7855 103.946 95.7854V95.7854Z" fill="#C6C1C0"/>
<path d="M106.58 95.5884C106.539 95.5884 106.5 95.5571 106.5 95.5078C106.5 95.4645 106.556 95.411 106.614 95.3617C107.422 94.6635 108.571 93.7801 108.571 92.5823C108.571 91.6867 108.068 91.5053 107.779 91.5053C107.532 91.5053 107.341 91.5507 107.167 91.7078C107.031 91.8398 106.925 92.1057 106.925 92.2528C106.925 92.3122 106.908 92.3616 106.851 92.3616C106.821 92.3616 106.804 92.3203 106.798 92.2528C106.792 92.2024 106.764 91.732 106.764 91.5668C106.764 91.5154 106.77 91.4922 106.835 91.454C107.058 91.3401 107.37 91.2384 107.878 91.2384C108.894 91.2384 109.326 91.7834 109.326 92.4483C109.326 93.5443 108.087 94.5044 107.341 95.0907C107.312 95.1098 107.323 95.13 107.352 95.13H107.746C107.844 95.13 108.525 95.122 108.739 95.0948C109.137 95.0494 109.326 94.856 109.396 94.5911C109.413 94.5215 109.432 94.5004 109.466 94.5004C109.506 94.5004 109.512 94.5517 109.512 94.6061C109.512 94.6988 109.402 95.2267 109.345 95.4171C109.298 95.5702 109.205 95.5884 108.843 95.5884H106.58Z" fill="#C6C1C0"/>
<path fill-rule="evenodd" clip-rule="evenodd" d="M106.5 95.4307C106.5 95.5251 106.585 95.5884 106.674 95.5884H109.053C109.239 95.5884 109.375 95.5848 109.469 95.5572C109.521 95.5423 109.564 95.5194 109.599 95.4842C109.633 95.4498 109.653 95.409 109.667 95.3661L109.667 95.3657C109.698 95.2706 109.743 95.0948 109.779 94.9333C109.797 94.8521 109.814 94.7735 109.826 94.7093C109.837 94.6479 109.846 94.5925 109.846 94.5623C109.846 94.5365 109.845 94.4996 109.834 94.4677C109.828 94.4509 109.817 94.429 109.796 94.4107C109.772 94.3906 109.741 94.3803 109.708 94.3803C109.69 94.3803 109.668 94.383 109.647 94.3919C109.625 94.401 109.607 94.4145 109.594 94.4299C109.57 94.4575 109.557 94.4934 109.547 94.5282C109.514 94.6429 109.455 94.7374 109.361 94.8085C109.266 94.8799 109.13 94.9329 108.934 94.9534L108.932 94.9535L108.932 94.9535C108.714 94.9789 108.005 94.9868 107.9 94.9868H107.675C108.046 94.7192 108.501 94.3807 108.879 93.9931C109.308 93.5543 109.651 93.0407 109.651 92.4838C109.651 92.1467 109.531 91.8327 109.263 91.6032C108.995 91.3738 108.59 91.2384 108.039 91.2384C107.491 91.2384 107.148 91.3393 106.9 91.4552L106.897 91.4564L106.895 91.4578C106.857 91.4782 106.822 91.502 106.8 91.5372C106.778 91.573 106.778 91.6093 106.778 91.6348C106.778 91.7949 106.807 92.2453 106.814 92.3037C106.818 92.3389 106.825 92.3752 106.84 92.4052C106.855 92.4344 106.89 92.4804 106.959 92.4804C106.988 92.4804 107.016 92.4746 107.042 92.4608C107.068 92.447 107.086 92.4279 107.099 92.4082C107.122 92.3713 107.126 92.3287 107.126 92.2956C107.126 92.2396 107.149 92.1513 107.193 92.0585C107.236 91.967 107.294 91.8819 107.353 91.8282C107.514 91.6962 107.689 91.6556 107.935 91.6556C108.069 91.6556 108.252 91.6943 108.402 91.8274C108.55 91.9597 108.678 92.1961 108.678 92.6129C108.678 93.1635 108.39 93.647 107.988 94.081C107.647 94.4495 107.23 94.7754 106.851 95.0725C106.782 95.1259 106.715 95.1784 106.65 95.23C106.619 95.254 106.585 95.2823 106.558 95.3115C106.533 95.3375 106.5 95.3798 106.5 95.4307ZM106.684 95.4283H109.053C109.248 95.4283 109.352 95.4231 109.414 95.4051C109.441 95.3972 109.455 95.388 109.464 95.3786C109.474 95.3682 109.485 95.3515 109.495 95.3208C109.524 95.2325 109.567 95.0625 109.603 94.9017C109.614 94.854 109.624 94.8074 109.633 94.7644C109.592 94.826 109.541 94.8821 109.477 94.9307C109.349 95.0271 109.177 95.0891 108.955 95.1123C108.722 95.1393 108.001 95.1469 107.9 95.1469H107.486C107.459 95.1469 107.396 95.1384 107.373 95.0828C107.348 95.0235 107.395 94.9815 107.42 94.9653C107.428 94.9589 107.437 94.9524 107.446 94.9459C107.836 94.6656 108.336 94.3051 108.744 93.8879C109.163 93.4592 109.472 92.9826 109.472 92.4838C109.472 92.1805 109.364 91.9118 109.139 91.7187C108.913 91.5255 108.557 91.3985 108.039 91.3985C107.521 91.3985 107.208 91.4928 106.986 91.5957C106.967 91.606 106.961 91.6118 106.958 91.6139C106.958 91.6161 106.957 91.622 106.957 91.6348C106.957 91.7358 106.969 91.9586 106.98 92.1162C106.993 92.0764 107.009 92.036 107.027 91.9967C107.076 91.8936 107.145 91.7875 107.228 91.714L107.229 91.713L107.23 91.7119C107.435 91.542 107.662 91.4955 107.935 91.4955C108.104 91.4955 108.338 91.5442 108.529 91.7141C108.72 91.8848 108.857 92.167 108.857 92.6129C108.857 93.2159 108.541 93.7348 108.126 94.1829C107.775 94.5623 107.346 94.8979 106.967 95.1947C106.899 95.2476 106.833 95.2993 106.769 95.3498L106.769 95.3498L106.769 95.3502C106.739 95.3737 106.713 95.3949 106.696 95.4136C106.691 95.4195 106.687 95.4244 106.684 95.4283ZM107.004 92.3403C107.004 92.3403 107.004 92.3402 107.004 92.34L107.004 92.3403ZM109.662 94.5152C109.662 94.5152 109.662 94.5153 109.663 94.5155C109.662 94.5153 109.662 94.5152 109.662 94.5152Z" fill="#C6C1C0"/>
<path d="M113.05 91.2951C113.162 91.2951 113.192 91.3149 113.192 91.3398C113.192 91.3746 113.169 91.4193 113.15 91.4402C112.655 92.1024 111.722 94.3227 111.632 95.0415C111.623 95.136 111.632 95.1748 111.632 95.2493C111.632 95.3577 111.15 95.5884 110.88 95.5884C110.812 95.5884 110.796 95.5715 110.796 95.5208C110.796 95.4641 110.808 95.3826 110.838 95.2921C111.005 94.7542 111.771 93.1027 112.594 91.8101H111.047C110.88 91.8101 110.63 91.8211 110.486 91.9105C110.377 91.9782 110.301 92.1591 110.288 92.2486C110.283 92.2933 110.264 92.3202 110.229 92.3202C110.187 92.3202 110.181 92.2933 110.181 92.2367C110.181 92.0269 110.269 91.3746 110.269 91.3179C110.269 91.2623 110.294 91.2384 110.33 91.2384C110.365 91.2384 110.503 91.2951 111.137 91.2951H113.05Z" fill="#C6C1C0"/>
<path fill-rule="evenodd" clip-rule="evenodd" d="M110.805 95.8852C110.842 95.92 110.892 95.9229 110.924 95.9229C111.071 95.9229 111.263 95.8563 111.413 95.7802C111.489 95.7415 111.56 95.6979 111.612 95.6546C111.639 95.6331 111.663 95.6097 111.682 95.5849C111.699 95.562 111.719 95.5276 111.719 95.4859C111.719 95.4514 111.718 95.427 111.716 95.4049C111.715 95.3679 111.713 95.3378 111.718 95.2791C111.76 94.9182 111.997 94.166 112.287 93.4104C112.575 92.6567 112.909 91.919 113.136 91.5835C113.15 91.5655 113.163 91.5423 113.172 91.519C113.182 91.4948 113.192 91.4624 113.192 91.4286C113.192 91.4049 113.185 91.3797 113.168 91.3577C113.152 91.337 113.131 91.3246 113.112 91.3168C113.077 91.302 113.03 91.2971 112.974 91.2971H111.167C110.871 91.2971 110.692 91.2825 110.585 91.2683C110.532 91.2613 110.496 91.2543 110.471 91.2492C110.466 91.2482 110.461 91.247 110.456 91.2459C110.449 91.2446 110.443 91.2433 110.439 91.2424C110.432 91.2409 110.418 91.2382 110.405 91.2382C110.366 91.2382 110.326 91.2538 110.298 91.2907C110.272 91.3245 110.264 91.3665 110.264 91.4059C110.264 91.4059 110.264 91.4067 110.264 91.4087C110.263 91.4109 110.263 91.4138 110.263 91.4175C110.262 91.425 110.262 91.4348 110.26 91.4469C110.258 91.4709 110.255 91.5026 110.251 91.5401C110.248 91.5675 110.245 91.598 110.242 91.6307C110.236 91.687 110.229 91.7498 110.223 91.8142C110.202 92.0163 110.181 92.2451 110.181 92.3593C110.181 92.386 110.181 92.4264 110.196 92.4603C110.206 92.4808 110.221 92.5011 110.245 92.5148C110.267 92.5279 110.291 92.5311 110.31 92.5311C110.354 92.5311 110.391 92.5109 110.416 92.4764C110.437 92.4468 110.445 92.4118 110.448 92.3822C110.453 92.3467 110.471 92.2859 110.5 92.2253C110.53 92.1628 110.566 92.1144 110.599 92.0917L110.599 92.0916C110.652 92.0557 110.73 92.032 110.821 92.0182C110.911 92.0046 111.005 92.0018 111.082 92.0018H112.398C111.647 93.3257 110.961 94.9559 110.805 95.5059C110.775 95.6066 110.762 95.6993 110.762 95.7676C110.762 95.7963 110.764 95.8478 110.805 95.8852ZM110.929 95.7526C110.931 95.7035 110.941 95.6338 110.965 95.5553L110.965 95.5538C111.121 95.0045 111.84 93.2974 112.616 91.96L112.69 91.8316H111.082C111.002 91.8316 110.899 91.8344 110.797 91.8498C110.697 91.8648 110.59 91.8932 110.506 91.9501C110.443 91.9929 110.395 92.0624 110.361 92.1285C110.368 92.0365 110.379 91.9326 110.389 91.8318C110.395 91.7675 110.402 91.7054 110.408 91.6494C110.411 91.6166 110.414 91.5859 110.417 91.558C110.424 91.4947 110.429 91.4404 110.431 91.4145C110.433 91.415 110.435 91.4154 110.437 91.4159C110.465 91.4218 110.505 91.4295 110.564 91.4372C110.68 91.4525 110.866 91.4673 111.167 91.4673H112.974C112.988 91.4673 113.001 91.4677 113.011 91.4685C113.008 91.4737 113.006 91.4774 113.004 91.4793L113.002 91.4817L113.001 91.4843C112.76 91.8371 112.42 92.5935 112.131 93.3485C111.842 94.1027 111.596 94.8749 111.552 95.2604L111.552 95.2622C111.546 95.3324 111.548 95.3826 111.55 95.4274C111.551 95.4446 111.551 95.461 111.552 95.4775C111.551 95.4786 111.55 95.48 111.549 95.4816C111.541 95.4915 111.528 95.5052 111.508 95.5219C111.467 95.5552 111.408 95.5925 111.338 95.6277C111.199 95.6984 111.038 95.751 110.929 95.7526Z" fill="#C6C1C0"/>
<path d="M91.0886 82.2716C91.0886 82.3933 91.1099 82.4387 91.1839 82.4694C91.4048 82.5508 91.7241 82.5836 91.9907 82.5836C92.4134 82.5836 92.5502 82.536 92.7418 82.3933C93.0591 82.1521 93.3682 81.6413 93.3682 80.735C93.3682 79.1634 92.3728 78.7108 91.7444 78.7108C91.4809 78.7108 91.2893 78.7213 91.1839 78.7541C91.1099 78.7763 91.0886 78.8197 91.0886 78.9085V82.2716ZM89.8378 81.398C89.8378 79.7165 89.8378 79.4066 89.8155 79.0534C89.7942 78.678 89.7101 78.5003 89.3594 78.421C89.2732 78.3988 89.0938 78.3882 88.9458 78.3882C88.8292 78.3882 88.7654 78.366 88.7654 78.2888C88.7654 78.2126 88.8394 78.1883 88.9985 78.1883C89.5601 78.1883 90.229 78.2253 90.452 78.2253C90.8119 78.2253 91.6177 78.1883 91.9471 78.1883C92.6151 78.1883 93.3246 78.256 93.8973 78.6653C94.1943 78.8757 94.617 79.4415 94.617 80.1808C94.617 80.9993 94.2886 81.7513 93.2202 82.6576C94.1619 83.8971 94.8947 84.8827 95.5191 85.568C96.1141 86.211 96.55 86.2893 96.7071 86.32C96.8236 86.3432 96.9199 86.3549 97.003 86.3549C97.0902 86.3549 97.1308 86.3888 97.1308 86.4417C97.1308 86.5305 97.0588 86.5537 96.9311 86.5537H95.9246C95.3296 86.5537 95.065 86.4998 94.7873 86.3433C94.3322 86.0884 93.9298 85.5681 93.3368 84.7178C92.9111 84.1076 92.4235 83.3556 92.2857 83.1906C92.233 83.1229 92.1681 83.1124 92.0951 83.1124L91.1727 83.0912C91.12 83.0912 91.0886 83.1124 91.0886 83.178V83.3334C91.0886 84.3624 91.0886 85.2381 91.1403 85.7002C91.1727 86.0228 91.2366 86.2661 91.5538 86.3095C91.714 86.3327 91.9471 86.3549 92.0738 86.3549C92.159 86.3549 92.2015 86.3888 92.2015 86.4417C92.2015 86.521 92.1255 86.5537 91.9907 86.5537C91.3724 86.5537 90.5889 86.5209 90.4308 86.5209C90.229 86.5209 89.5601 86.5537 89.1374 86.5537C88.9985 86.5537 88.9245 86.521 88.9245 86.4417C88.9245 86.3888 88.9671 86.3549 89.0938 86.3549C89.2539 86.3549 89.3806 86.3327 89.4769 86.3095C89.6878 86.2661 89.7425 86.0228 89.7841 85.7002C89.8378 85.2381 89.8378 84.3625 89.8378 83.3461V81.398Z" fill="#110F0D"/>
<path d="M104.005 82.5746C104.005 80.181 102.631 78.6985 100.887 78.6985C99.6585 78.6985 98.265 79.38 98.265 82.0389C98.265 84.2581 99.4895 86.0201 101.532 86.0201C102.281 86.0201 104.005 85.6589 104.005 82.5746ZM96.7961 82.3695C96.7961 80.5463 98.0003 78.1883 101.193 78.1883C103.845 78.1883 105.496 79.7371 105.496 82.1777C105.496 84.6233 103.793 86.5537 101.088 86.5537C98.0309 86.5537 96.7961 84.2581 96.7961 82.3695Z" fill="#110F0D"/>
<path d="M107.151 78.4691C107.182 78.2847 107.246 78.1883 107.332 78.1883C107.418 78.1883 107.481 78.238 107.621 78.5219L110.538 84.5479L113.446 78.4453C113.532 78.2733 113.583 78.1883 113.681 78.1883C113.776 78.1883 113.841 78.2929 113.872 78.5219L114.845 85.155C114.943 85.8368 115.048 86.1507 115.369 86.2502C115.679 86.3476 115.893 86.3589 116.032 86.3589C116.128 86.3589 116.204 86.3693 116.204 86.4325C116.204 86.5206 116.074 86.5537 115.926 86.5537C115.657 86.5537 114.183 86.5309 113.756 86.4988C113.511 86.4781 113.446 86.4439 113.446 86.3797C113.446 86.3248 113.487 86.2927 113.563 86.2605C113.628 86.2377 113.659 86.0978 113.616 85.7922L112.975 81.0811H112.932L110.603 85.9144C110.357 86.4221 110.303 86.5206 110.207 86.5206C110.11 86.5206 110.004 86.303 109.833 85.9787C109.576 85.4814 108.734 83.8236 108.603 83.518C108.507 83.2911 107.865 82.0125 107.492 81.1992H107.449L106.894 85.4244C106.873 85.6202 106.862 85.7622 106.862 85.9342C106.862 86.1403 107.002 86.2377 107.182 86.2823C107.376 86.3248 107.524 86.3372 107.631 86.3372C107.717 86.3372 107.793 86.359 107.793 86.4118C107.793 86.5092 107.695 86.5309 107.535 86.5309C107.087 86.5309 106.604 86.4988 106.413 86.4988C106.209 86.4988 105.697 86.5309 105.354 86.5309C105.247 86.5309 105.162 86.5092 105.162 86.4118C105.162 86.359 105.225 86.3372 105.333 86.3372C105.419 86.3372 105.494 86.3372 105.654 86.303C105.952 86.2377 106.038 85.815 106.092 85.4482L107.151 78.4691Z" fill="#110F0D"/>
<path d="M120.859 83.2385C120.911 83.2385 120.922 83.2084 120.911 83.1741L119.959 80.501C119.95 80.4563 119.939 80.4033 119.907 80.4033C119.874 80.4033 119.855 80.4563 119.845 80.501L118.873 83.1637C118.86 83.2084 118.873 83.2385 118.912 83.2385H120.859ZM118.704 83.7839C118.648 83.7839 118.629 83.8027 118.607 83.8692L118.036 85.359C117.932 85.6291 117.878 85.8909 117.878 86.0228C117.878 86.2171 117.972 86.3594 118.3 86.3594H118.458C118.585 86.3594 118.616 86.3813 118.616 86.4446C118.616 86.5319 118.555 86.5537 118.439 86.5537C118.1 86.5537 117.647 86.5215 117.317 86.5215C117.201 86.5215 116.62 86.5537 116.07 86.5537C115.932 86.5537 115.869 86.5319 115.869 86.4446C115.869 86.3813 115.912 86.3594 115.996 86.3594C116.091 86.3594 116.24 86.347 116.325 86.3366C116.809 86.2722 117.009 85.9013 117.223 85.359L119.874 78.6205C120.001 78.3057 120.065 78.1883 120.171 78.1883C120.266 78.1883 120.332 78.285 120.436 78.5333C120.69 79.1317 122.381 83.4795 123.057 85.1314C123.459 86.108 123.767 86.2597 123.988 86.3148C124.148 86.347 124.304 86.3594 124.433 86.3594C124.516 86.3594 124.569 86.3698 124.569 86.4446C124.569 86.5319 124.474 86.5537 124.084 86.5537C123.703 86.5537 122.931 86.5537 122.086 86.5319C121.894 86.5215 121.768 86.5215 121.768 86.4446C121.768 86.3813 121.809 86.3595 121.916 86.347C121.989 86.3252 122.064 86.2275 122.012 86.0977L121.166 83.8598C121.142 83.8026 121.112 83.7839 121.059 83.7839H118.704Z" fill="#110F0D"/>
<path d="M91.0886 82.1084C91.0886 82.2272 91.1099 82.2668 91.1839 82.3003C91.4048 82.3724 91.7241 82.4059 91.9907 82.4059C92.4134 82.4059 92.5502 82.3643 92.7418 82.2272C93.0591 81.9917 93.3682 81.5013 93.3682 80.6312C93.3682 79.1245 92.3728 78.688 91.7444 78.688C91.4809 78.688 91.2893 78.7002 91.1839 78.7296C91.1099 78.7509 91.0886 78.7946 91.0886 78.8799V82.1084ZM89.8378 81.2698C89.8378 79.6556 89.8378 79.358 89.8155 79.0189C89.7942 78.6565 89.7101 78.488 89.3594 78.4119C89.2732 78.3926 89.0938 78.3783 88.9458 78.3783C88.8292 78.3783 88.7654 78.3591 88.7654 78.2829C88.7654 78.2118 88.8394 78.1885 88.9985 78.1885C89.5601 78.1885 90.229 78.2199 90.452 78.2199C90.8119 78.2199 91.6177 78.1885 91.9471 78.1885C92.6151 78.1885 93.3246 78.2555 93.8973 78.6444C94.1943 78.8464 94.617 79.3896 94.617 80.1013C94.617 80.8871 94.2886 81.6089 93.2202 82.479C94.1619 83.6689 94.8947 84.6151 95.5191 85.273C96.1141 85.8883 96.55 85.9634 96.7071 85.9969C96.8236 86.0172 96.9199 86.0263 97.003 86.0263C97.0902 86.0263 97.1308 86.0588 97.1308 86.1116C97.1308 86.1969 97.0588 86.2192 96.9311 86.2192H95.9246C95.3296 86.2192 95.065 86.1654 94.7873 86.0172C94.3322 85.7705 93.9298 85.273 93.3368 84.4567C92.9111 83.8729 92.4235 83.1491 92.2857 82.9907C92.233 82.9257 92.1681 82.9155 92.0951 82.9155L91.1727 82.8932C91.12 82.8932 91.0886 82.9156 91.0886 82.9785V83.1277C91.0886 84.1156 91.0886 84.9542 91.1403 85.3999C91.1727 85.7075 91.2366 85.9431 91.5538 85.9826C91.714 86.005 91.9471 86.0263 92.0738 86.0263C92.159 86.0263 92.2015 86.0588 92.2015 86.1116C92.2015 86.1877 92.1255 86.2192 91.9907 86.2192C91.3724 86.2192 90.5889 86.1878 90.4308 86.1878C90.229 86.1878 89.5601 86.2192 89.1374 86.2192C88.9985 86.2192 88.9245 86.1877 88.9245 86.1116C88.9245 86.0588 88.9671 86.0263 89.0938 86.0263C89.2539 86.0263 89.3806 86.005 89.4769 85.9826C89.6878 85.9431 89.7425 85.7075 89.7841 85.3999C89.8378 84.9542 89.8378 84.1156 89.8378 83.1379V81.2698Z" fill="#F6B817"/>
<path d="M104.005 82.239C104.005 79.848 102.631 78.3639 100.887 78.3639C99.6585 78.3639 98.265 79.0493 98.265 81.7055C98.265 83.9241 99.4895 85.6837 101.532 85.6837C102.281 85.6837 104.005 85.3205 104.005 82.239ZM96.7961 82.036C96.7961 80.2112 98.0003 77.8539 101.193 77.8539C103.845 77.8539 105.496 79.4023 105.496 81.8443C105.496 84.2873 103.793 86.2192 101.088 86.2192C98.0309 86.2192 96.7961 83.9241 96.7961 82.036Z" fill="#F6B817"/>
<path d="M107.151 78.1335C107.182 77.9491 107.246 77.8539 107.332 77.8539C107.418 77.8539 107.481 77.9088 107.621 78.1885L110.538 84.2136L113.446 78.1149C113.532 77.9408 113.583 77.8539 113.681 77.8539C113.776 77.8539 113.843 77.9616 113.872 78.1885L114.847 84.8207C114.943 85.5024 115.048 85.8184 115.369 85.9178C115.679 86.0142 115.893 86.0245 116.032 86.0245C116.128 86.0245 116.204 86.0349 116.204 86.0991C116.204 86.1882 116.074 86.2192 115.926 86.2192C115.657 86.2192 114.183 86.1986 113.756 86.1664C113.511 86.1436 113.446 86.1115 113.446 86.0473C113.446 85.9924 113.487 85.9582 113.563 85.9271C113.628 85.9054 113.659 85.7634 113.616 85.4599L112.975 80.7452H112.932L110.603 85.5811C110.357 86.0898 110.303 86.1882 110.207 86.1882C110.11 86.1882 110.004 85.9716 109.833 85.6443C109.576 85.1481 108.734 83.4895 108.603 83.1859C108.507 82.957 107.865 81.6786 107.492 80.8675H107.449L106.894 85.0922C106.873 85.288 106.862 85.4299 106.862 85.6019C106.862 85.8059 107.002 85.9054 107.182 85.9499C107.376 85.9924 107.524 86.0027 107.631 86.0027C107.717 86.0027 107.793 86.0245 107.793 86.0794C107.793 86.1768 107.695 86.1986 107.535 86.1986C107.087 86.1986 106.604 86.1664 106.413 86.1664C106.209 86.1664 105.697 86.1986 105.354 86.1986C105.247 86.1986 105.162 86.1768 105.162 86.0794C105.162 86.0245 105.225 86.0027 105.333 86.0027C105.419 86.0027 105.494 86.0028 105.654 85.9717C105.952 85.9054 106.038 85.4827 106.092 85.1139L107.151 78.1335Z" fill="#F6B817"/>
<path d="M120.859 82.9049C120.911 82.9049 120.922 82.8727 120.911 82.8405L119.959 80.1659C119.95 80.1233 119.939 80.0693 119.907 80.0693C119.874 80.0693 119.855 80.1233 119.845 80.1659L118.873 82.8301C118.86 82.8727 118.873 82.9049 118.912 82.9049H120.859ZM118.704 83.4481C118.648 83.4481 118.629 83.4709 118.607 83.5333L118.036 85.0248C117.932 85.2969 117.878 85.5566 117.878 85.6864C117.878 85.8806 117.972 86.0229 118.3 86.0229H118.458C118.585 86.0229 118.616 86.0448 118.616 86.1102C118.616 86.1974 118.555 86.2192 118.439 86.2192C118.1 86.2192 117.647 86.187 117.317 86.187C117.201 86.187 116.62 86.2192 116.07 86.2192C115.932 86.2192 115.869 86.1974 115.869 86.1102C115.869 86.0448 115.912 86.0229 115.996 86.0229C116.091 86.0229 116.24 86.0125 116.325 86.0001C116.809 85.9378 117.009 85.5669 117.223 85.0248L119.874 78.288C120.001 77.9733 120.065 77.8539 120.171 77.8539C120.266 77.8539 120.332 77.9494 120.436 78.1987C120.69 78.7991 122.381 83.1437 123.057 84.7952C123.459 85.7736 123.767 85.9253 123.988 85.9783C124.148 86.0126 124.304 86.0229 124.433 86.0229C124.516 86.0229 124.569 86.0354 124.569 86.1102C124.569 86.1974 124.474 86.2192 124.084 86.2192C123.703 86.2192 122.931 86.2192 122.086 86.1974C121.894 86.187 121.768 86.1871 121.768 86.1102C121.768 86.0448 121.809 86.0229 121.916 86.0125C121.989 85.9928 122.064 85.8931 122.012 85.7612L121.166 83.5239C121.142 83.4709 121.112 83.4481 121.059 83.4481H118.704Z" fill="#F6B817"/>
<path d="M82.4077 72.5L130.927 72.5" stroke="#17191D" stroke-width="1.022" stroke-miterlimit="10" stroke-linecap="round"/>
<path d="M87.8433 59.4581C87.6342 59.5885 87.5556 59.2218 87.5556 59.2218C87.4985 59.0749 87.4924 58.9229 87.576 58.8623C87.7342 58.9609 87.9229 58.9589 87.979 59.0513C88.0382 59.153 87.9525 59.3903 87.8433 59.4581ZM126.394 68.3195C126.262 68.151 126.113 67.9702 125.959 67.7833C125.274 66.9451 123.746 64.8805 123.746 64.8805C123.746 58.1741 122.554 56.924 121.327 55.8712C120.245 54.9436 118.519 54.4691 116.667 54.1814C116.164 54.1013 115.611 54.0675 114.974 54.0675C114.358 54.0675 113.734 54.0993 113.133 54.1332C112.636 54.1619 103.948 54.5286 101.162 54.0551C99.9467 53.8487 98.2623 54.0869 97.2604 54.2082C96.8013 54.2616 94.2935 54.6653 93.9986 54.1876C93.9415 54.0973 93.9455 53.899 93.97 53.6741C94.0037 53.3228 94.1465 52.8954 93.8741 52.5123C93.4987 51.9853 93.0885 51.4194 92.863 51.4194C92.7916 51.4194 92.1713 51.931 92.0203 52.085C91.7673 52.3418 91.6877 52.7629 91.6989 53.2529C91.705 53.5538 91.6857 53.4953 91.6632 53.5179C91.6255 53.5559 90.0287 53.5559 89.6237 53.5857C89.6227 53.5036 89.6094 53.0865 89.338 52.689C89.1625 52.4342 89.0166 51.5837 89.0166 51.5837C89.0166 51.5837 88.4382 52.5924 88.2433 52.8636C88.026 53.1605 87.8015 53.4696 87.6699 53.825C87.6199 53.9606 87.6097 54.1239 87.5985 54.2821C87.5934 54.3961 87.576 54.6355 87.5301 54.6735C87.223 54.8984 87.0526 55.2086 87.022 55.5979C87.0159 55.7109 87.0475 55.8629 87.0802 56.0396C87.1026 56.1516 87.1394 56.3282 87.1394 56.4125C87.1087 56.4351 87.0792 56.4546 87.0475 56.4752C86.7741 56.6498 86.4007 56.8963 86.4241 57.3297C86.4599 57.9851 86.6098 58.2398 86.8159 58.5952C86.8741 58.6959 86.9333 58.7955 86.9986 58.9188C87.0904 59.0944 87.1292 59.3461 87.1689 59.5885C87.223 59.9295 86.9067 60.3024 87.123 60.5171C87.4067 60.7965 88.1392 60.8119 88.4565 60.8119C88.5422 60.8119 88.8758 60.8026 88.9554 60.8026C89.0789 60.8026 89.1748 60.8098 89.2564 60.8262C89.8675 60.9464 90.4817 60.9947 91.0725 61.045C91.8877 61.1087 92.657 61.1714 93.4313 61.4004C94.8597 61.8236 96.2687 62.4153 97.7358 63.2031C97.8154 63.2463 97.8909 63.2843 97.9613 63.3223C98.5051 63.6048 98.6214 63.5667 98.8765 64.3186C99.1316 65.0736 98.6612 70.9593 98.5582 71.5674C98.3939 72.5504 98.0827 73.1441 97.5757 73.331C96.8972 73.5776 96.6186 74.1117 96.3503 74.6304C96.2646 74.7979 96.2769 75.0002 96.1728 75.1687C96.1728 75.1687 95.9514 75.4131 96.0259 75.4758C96.0993 75.5395 96.788 75.3731 96.788 75.3731C97.0227 75.3875 96.7696 75.5117 97.0043 75.5117C97.5848 75.5117 98.2858 75.5077 98.9989 75.0947C99.2979 75.0947 99.0979 75.4779 99.3744 75.4275C100.226 75.2714 100.306 74.6109 100.409 73.9792C100.583 72.9182 100.558 72.7333 100.675 72.6346C100.793 72.536 101.171 72.6973 101.272 72.5822C101.35 72.4959 101.265 71.7215 101.309 71.022C101.371 70.0246 101.642 68.8546 101.938 67.8922L101.954 67.8418C102.018 67.6292 102.115 67.3703 102.218 67.0992C102.496 66.3637 102.835 65.4711 102.795 64.7542C103.099 64.8066 103.149 64.825 103.323 65.0675C103.348 65.1055 103.395 65.1815 103.446 65.2616C103.782 65.8153 103.954 65.9703 104.175 65.9703C104.197 65.9703 104.222 65.9683 104.241 65.9621C104.603 65.8676 104.798 65.5584 105.003 65.1516C105.207 64.7541 105.416 64.3412 105.757 64.2652C105.77 64.2632 105.785 64.2591 105.804 64.2591C106.081 64.2591 106.566 64.5076 106.843 64.9391C107.454 65.8923 107.975 65.2256 108.024 65.1476C108.095 65.0377 108.584 64.2231 108.706 64.0341C108.853 63.8071 108.944 63.7856 108.978 63.7856H108.986C109.285 63.8318 110.582 65.4003 111.045 65.2945C111.493 65.2441 111.991 63.5246 112.265 63.5246C112.279 63.5246 112.293 63.5267 112.308 63.5308C112.373 63.5852 112.528 63.8194 112.632 63.9756C112.977 64.5035 113.052 64.8548 113.324 64.8548C113.412 64.8548 113.563 64.7788 113.654 64.5497C113.68 64.4871 113.784 64.2293 113.799 64.2005C113.815 64.2211 114.045 65.0028 114.607 64.3094C114.602 64.3012 114.598 64.2888 114.594 64.2786C114.592 64.2847 114.59 64.2888 114.588 64.2929C114.59 64.2888 114.592 64.2847 114.594 64.2786C114.592 64.2745 114.59 64.2724 114.588 64.2673C114.59 64.2724 114.592 64.2745 114.594 64.2786C114.669 64.1019 115.709 65.1332 116.206 65.5389C116.657 65.9559 117.037 66.3237 117.069 66.3514C118.139 67.3108 119.469 68.5064 119.728 69.8017C119.876 70.5505 119.841 71.4133 119.632 72.234C119.586 72.4056 119.542 72.5062 119.5 72.533C119.458 72.5648 119.341 72.5689 119.195 72.5709C119.128 72.573 119.055 72.5761 118.972 72.5843C118.604 72.6048 118.356 72.9983 118.133 73.3455C118.033 73.5057 117.902 73.6382 117.834 73.7563C117.766 73.8744 117.875 74.0716 117.941 74.1117C118.009 74.1538 118.669 74.3099 118.866 74.3099C118.924 74.3099 118.98 74.3058 119.024 74.2914C119.164 74.3438 119.335 74.3736 119.529 74.3736C120.107 74.3736 120.823 74.1313 121.028 73.7307C121.374 73.0476 121.61 72.306 121.839 71.5859C121.863 71.5058 121.89 71.4226 121.916 71.3425C121.965 71.1843 122.037 71.0076 122.106 70.8227C122.356 70.1632 122.781 69.4586 122.593 68.8094C122.494 68.4674 122.15 68.1346 121.93 67.8418C121.738 67.5809 121.008 66.6226 120.787 66.2888C121.468 66.9534 123.36 67.9363 123.84 69.0878C124.01 69.4915 123.834 71.1822 123.805 71.6352C123.79 71.8488 123.779 72.0687 123.773 72.2874C123.753 72.9798 123.552 73.1041 122.861 73.1749C122.263 73.2366 121.988 74.1271 121.841 74.6068C121.832 74.6345 121.825 74.6592 121.817 74.6828L121.747 74.9057L121.979 74.9458C122.068 74.9602 122.167 74.9797 122.274 75.0002C122.706 75.0803 123.433 75.3515 123.94 75.3515C124.545 75.3515 124.969 75.2066 125.239 74.9098C125.586 74.5308 125.719 73.8467 125.838 73.2448C125.882 73.0198 126.131 72.2135 126.222 71.9228C126.79 70.0811 127.353 69.3765 126.394 68.3195Z" fill="#17191D"/>
<path d="M123.557 73.5038C123.496 73.6415 123.279 73.6695 123.204 73.7008C123.047 73.7792 122.901 73.8912 122.908 74.02C122.908 74.0704 122.882 74.6828 122.908 74.7354C122.939 74.8048 123.15 74.8922 123.196 74.8071C123.229 74.7522 123.194 74.32 123.235 74.0244C123.242 73.983 123.266 73.8072 123.339 73.768C123.364 73.7602 123.614 73.6259 123.557 73.5038Z" fill="#C6C1C0"/>
<path d="M104.264 63.8386C104.404 63.8175 104.601 63.7648 104.667 63.8365C104.736 63.9124 104.832 64.1759 104.827 64.3372C104.821 64.4975 104.473 65.344 104.45 65.383C104.428 65.422 104.393 65.5431 104.331 65.4177C104.268 65.288 104.159 63.9893 104.159 63.9893C104.159 63.9893 104.141 63.8597 104.264 63.8386Z" fill="#C6C1C0"/>
<path d="M126.36 68.7567C126.078 68.3551 125.372 67.6445 125.091 67.3029C124.714 66.8505 122.994 64.865 122.994 64.865C122.994 64.865 122.499 61.8629 122.288 61.1818C122.154 60.7446 121.78 57.5819 119.29 55.8638C119.424 55.6421 121.037 56.8865 121.621 57.8553C122.679 59.6131 123.13 64.2021 123.13 64.2021C123.13 64.2021 123.802 57.1925 120.029 55.7093C117.323 54.5971 115.972 54.776 115.972 54.776C115.972 54.776 114.097 55.8821 115.228 57.9845C115.446 58.3942 117.911 62.111 118.069 62.4027C119.471 64.988 123.93 67.9982 124.741 68.8166C124.784 68.8624 125.552 69.3545 125.604 69.9024C125.614 70.0041 124.561 69.3087 124.576 69.4378C124.719 70.734 124.563 73.2227 124.543 73.5064C124.519 73.8358 124.5 73.8835 124.297 73.9567C124.094 74.0269 123.883 73.8378 123.76 74.1773C123.621 74.5545 123.672 74.8331 124.026 74.8331C124.379 74.8331 124.916 75.0171 125.257 73.7402C125.599 72.4501 126.342 70.1566 126.566 69.3128C126.62 69.1125 126.458 68.8939 126.36 68.7567Z" fill="#C6C1C0"/>
<path d="M88.8972 52.7576C88.8972 52.7576 89.1042 53.5838 89.0998 53.8149C89.0969 54.0498 89.0436 54.0674 89.0436 54.0674L88.4307 54.4307C88.4307 54.4307 88.5641 54.2202 88.634 53.9568C88.7054 53.6905 88.9015 53.0082 88.8972 52.7576Z" fill="#C6C1C0"/>
<path d="M99.3417 74.4867C99.3065 74.5111 99.2615 74.5151 99.2478 74.4948L99.1423 74.3445C99.1305 74.3242 99.1462 74.2836 99.1833 74.2531L99.2674 74.1962C99.3026 74.1698 99.3495 74.1657 99.3612 74.186L99.4668 74.3364C99.4844 74.3568 99.4629 74.3953 99.4277 74.4278L99.3417 74.4867Z" fill="#C6C1C0"/>
<path d="M119.47 73.1765C119.47 73.1765 119.374 73.1424 119.322 73.2211C119.249 73.3341 119.215 73.7613 119.215 73.7613C119.215 73.7613 119.305 73.8908 119.47 73.8141C119.635 73.7436 119.97 73.4564 119.864 73.3631C119.756 73.2698 119.47 73.1765 119.47 73.1765Z" fill="#C6C1C0"/>
<path d="M119.145 72.8348C119.145 72.8348 118.929 72.8329 118.831 72.9109C118.725 72.9966 118.535 73.227 118.547 73.3221C118.561 73.4145 118.75 73.5687 118.845 73.4745C118.942 73.3793 119.385 72.8253 119.145 72.8348Z" fill="#C6C1C0"/>
<path d="M87.1406 57.187C86.9094 57.5803 87.574 57.924 87.7414 57.7123C87.8678 57.1766 87.3657 56.9832 87.1406 57.187Z" fill="#C6C1C0"/>
<path d="M91.6335 57.8369C91.349 57.4937 91.14 56.9206 91.3266 56.8134C91.5132 56.7094 91.6926 56.854 91.8068 56.9205C91.976 57.0162 92.0617 56.9528 92.0494 56.7219C92.0413 56.543 92.0219 56.3745 92.0025 56.2123C91.9454 55.7224 91.6926 55.1836 91.4948 54.9683C91.1686 54.6106 90.2307 54.1924 89.6445 54.597C89.4752 54.7145 89.3478 54.9059 89.2387 55.1326C89.1989 55.2148 89.3141 55.3282 89.2774 55.4218C89.0623 55.9554 88.7351 56.5731 88.3528 56.9715C88.3365 56.9923 89.6526 57.1036 91.5132 58.4973C91.6783 58.6169 91.3643 59.295 91.2563 59.2628C91.1992 59.2545 91.4449 58.6918 91.2603 58.5867C90.4081 58.0989 89.9024 58.0334 89.2611 57.8004C89.1072 57.7453 88.6596 58.0334 88.5455 57.9242C88.3854 57.711 87.8971 57.4687 87.8471 57.4448C87.8655 57.4552 87.9266 57.5019 87.948 57.711C88.0092 58.2487 87.0274 57.711 87.8604 58.5722C88.0948 58.8104 88.3191 58.9945 88.4924 58.9175C88.7595 58.9134 88.6382 58.9518 88.6658 59.0153L88.8075 59.3585C88.8329 59.4229 88.8646 59.4188 88.8768 59.3501L88.942 58.9882C88.9532 58.9196 89.0205 58.8645 89.0899 58.8665C89.0899 58.8665 90.3489 58.8956 90.6038 58.9216C90.8597 58.9497 90.875 59.0433 90.875 59.0433C90.8872 59.113 90.9861 59.2607 90.773 59.4355C90.6181 59.5613 90.246 59.2971 89.9483 59.5436C89.6496 59.7891 89.0521 59.9003 89.0521 59.9003C88.9818 59.9128 88.9064 59.8744 88.8788 59.8078L88.7269 59.4604C88.7004 59.3949 88.6739 59.3969 88.6678 59.4697L88.6301 59.9233C88.624 59.9919 88.6036 60.0491 88.5862 60.0533C88.5669 60.0533 88.5291 60.0023 88.4996 59.9389L88.4884 59.917C88.4588 59.8515 88.3966 59.8463 88.3528 59.8962L88.2763 59.9878C88.2315 60.0429 88.1652 60.0346 88.1305 59.9742L88.0999 59.9274C88.0653 59.8639 88.0082 59.8639 87.9715 59.9274L87.9246 60.0023C87.8889 60.0637 87.84 60.0574 87.8196 59.9919L87.8022 59.943C87.7819 59.8764 87.7401 59.8744 87.7136 59.9358C87.6932 59.9826 87.6636 59.9919 87.6422 59.9638C87.5994 60.0085 87.5688 60.0387 87.5545 60.0533C87.5168 60.0897 87.4312 60.1687 87.4271 60.2426C87.424 60.3154 87.5137 60.3559 87.948 60.4474C88.3834 60.5369 90.403 59.6955 91.0401 59.8338C91.7772 59.9898 92.0617 59.373 92.1116 58.5722C92.1116 58.5514 92.1055 58.5077 92.0963 58.4443C91.9668 58.2311 91.7803 58.0137 91.6335 57.8369Z" fill="#C6C1C0"/>
<path d="M89.7693 55.4078C89.7693 55.4078 90.0262 54.8886 90.3421 54.7852C90.5762 54.7083 90.8186 54.8633 91.1802 55.1446C91.5438 55.4247 91.7333 55.8634 92.0886 55.748C92.2119 55.7083 91.8152 56.2252 91.4671 56.0773C91.3832 56.0413 90.8611 55.034 90.3535 55.0484C90.3535 55.0484 90.0262 55.1217 89.7693 55.4078Z" fill="#17191D"/>
<path d="M90.8307 55.9206C90.7578 55.9206 90.6977 55.8252 90.6977 55.7071C90.6977 55.594 90.7578 55.4961 90.8307 55.4961C90.9045 55.4961 91.0001 55.594 91.0001 55.7146C91.0001 55.8276 90.9045 55.9206 90.8307 55.9206ZM90.744 54.8013C90.3392 54.6544 90.1038 55.0074 90.1038 55.0074C90.2092 54.6619 90.6918 54.8805 90.9016 54.991C91.0178 55.0551 91.1793 55.3931 91.2946 55.6732C91.1646 55.5086 90.9863 55.3314 90.8326 55.3126C90.5263 55.2774 90.4978 55.795 90.4978 55.795L90.3431 56.0412C90.3431 56.0412 90.3628 56.104 90.5982 56.104C90.8336 56.104 91.6561 56.0927 91.7654 55.9646C91.8738 55.8403 91.1872 54.9659 90.744 54.8013Z" fill="#17191D"/>
<path d="M97.1089 73.9171C97.1089 73.9171 96.8045 74.6353 96.7978 74.7098C96.7911 74.783 96.8045 74.8316 96.8401 74.8316C96.8756 74.8316 96.9841 74.8688 97.0618 74.8045C97.1387 74.7391 97.4276 74.0299 97.4651 73.9307C97.4747 73.9036 97.2375 73.7458 97.1089 73.9171Z" fill="#C6C1C0"/>
<path d="M122.199 69.2701C122.347 68.683 121.861 68.6194 121.691 69.3794C121.635 69.6417 120.961 72.3993 120.889 73.1208C120.883 73.1572 120.907 73.1926 120.938 73.1499C120.947 73.3998 122.135 69.5324 122.199 69.2701Z" fill="#C6C1C0"/>
<path d="M98.248 54.584C96.9473 54.8277 95.1252 54.9355 94.1344 54.8027C93.3509 54.6968 93.3164 54.2235 93.4576 53.804C92.7321 54.5081 92.3449 54.2324 92.3287 54.1456C92.3012 54.0337 92.5969 54.1456 92.789 53.9578C92.9831 53.7731 93.0969 53.107 92.9445 52.7854C92.791 52.4658 92.9577 52.5238 92.9577 52.5238C92.9577 52.5238 93.3621 52.5637 93.5389 53.0391C93.6528 52.5637 92.9831 51.9725 92.7656 52.1084C92.5492 52.2432 92.1112 52.5967 92.1722 53.113C92.2504 53.7511 92.2026 54.0667 91.9923 54.0597C90.5716 53.9968 88.9803 53.81 88.0962 54.7148C88.0962 54.7148 89.1683 54.0207 89.9914 54.0966C90.8125 54.1705 92.4984 54.3343 92.6 56.2767C92.6 56.2767 92.5817 56.7141 92.6193 57.2214C92.6376 57.49 92.3774 57.3183 92.3805 57.4371C92.3906 57.9754 92.7798 57.8935 92.7483 58.3579C92.6132 60.2673 91.7169 60.2283 91.7169 60.2283C91.7169 60.2283 92.7992 60.3771 93.3357 58.5925C93.3337 59.6161 93.2239 59.8738 92.8032 60.2732C93.6304 60.3242 94.2797 59.5562 94.2991 59.4404C94.422 59.6341 94.6568 60.2623 95.2746 60.5189C94.9697 60.0236 95.0439 59.4234 95.1069 58.8921C95.2929 60.0845 95.6018 60.5289 96.2268 60.7886C95.9748 60.5389 95.4636 59.9986 95.6171 59.031C95.736 59.8578 96.7196 60.5938 96.7196 60.5938C96.7196 60.5938 96.4067 60.0965 96.3233 59.2207C96.745 60.1115 97.1983 60.1854 97.1983 60.1854C97.1983 60.1854 96.4991 59.4624 96.3792 58.5236C96.365 58.5067 96.87 59.1618 97.2816 59.1618C96.9656 58.7893 96.4646 58.259 96.4097 57.5899C96.7247 57.9894 96.9523 58.251 97.3161 58.292C97.0093 57.9444 96.7572 57.3912 96.6617 56.7221C97.0123 57.1545 96.9523 57.2973 97.6119 57.475C97.3568 57.2304 97.181 56.5563 97.308 56.2317C97.4218 56.4584 97.8598 56.6901 98.3821 56.757C98.2135 56.6511 97.9421 56.012 97.9818 55.7584C98.2185 55.8732 98.7297 56.043 99.1341 55.9881C98.9421 55.8772 98.8069 55.315 98.8658 55.1832C98.9736 55.2511 99.7449 55.2391 99.9085 55.1832C99.6575 55.0304 99.441 54.8007 99.4989 54.8216C99.6849 54.8866 99.9898 54.7298 100.386 54.6679C100.808 54.602 100.882 54.598 101.146 54.602C100.889 54.4801 99.2662 54.3363 98.248 54.584Z" fill="#C6C1C0"/>
<path d="M111.468 62.8011C111.468 62.8011 110.589 62.7462 110.521 62.9978C110.457 63.2493 110.923 64.581 110.992 64.7407C111.103 64.9923 111.4 64.4093 111.4 64.4093C111.493 64.2495 111.853 63.4679 111.853 63.3611C111.856 63.2284 111.865 62.7991 111.468 62.8011Z" fill="#C6C1C0"/>
<path d="M108.052 62.8006C108.052 62.8006 107.24 62.7459 107.177 63.0145C107.113 63.2852 107.461 64.54 107.516 64.7141C107.597 64.9762 107.771 64.5798 107.771 64.5798C107.858 64.41 108.506 63.5183 108.508 63.4044C108.508 63.2648 108.421 62.7985 108.052 62.8006Z" fill="#C6C1C0"/>
<path d="M113.851 54.4407C113.594 54.455 111.434 54.7004 109.994 54.7045C108.846 54.7085 107.632 54.6523 106.985 54.6758C106.934 54.6687 106.852 54.6758 106.778 54.686C105.814 54.6441 102.727 54.594 102.727 54.594C102.497 54.547 99.367 55.367 98.9133 58.8902C98.6335 61.0608 98.7699 61.755 99.2548 62.7856C99.5438 63.399 100.124 64.5309 100.103 65.4153C100.095 65.7854 99.4458 63.8663 99.4559 64.0841C99.5498 66.314 99.1669 71.336 98.9477 72.4024C98.686 73.6733 98.4334 73.0302 98.1394 73.5608C98.094 73.6446 97.4514 74.8266 97.4656 74.8409C97.4797 74.8511 97.7879 74.8031 98.1152 74.7714C98.4951 74.7591 98.8073 73.7131 99.0669 73.7131C99.1093 73.7131 98.781 74.5556 98.8315 74.5413C99.1013 74.4738 99.5407 74.3593 99.5114 74.5771C99.6094 74.6078 99.6862 74.5577 99.7458 74.4841C99.8246 74.388 100.181 72.7644 100.401 71.9199C100.45 71.7818 100.808 71.8616 100.905 71.8994C101.1 71.5017 100.788 70.1746 101.35 68.3312C101.907 66.5195 102.493 64.948 102.23 64.4808C102.202 64.4276 101.253 65.7036 101.23 65.6535C101.17 65.5073 104.324 60.1478 103.712 57.3719C103.7 57.2728 103.657 57.1603 103.657 57.0805C103.655 57.059 104.021 57.2145 104.477 57.3361C105.068 57.5202 105.587 57.6173 105.765 58.3084C105.978 59.6427 106.59 61.5332 107.832 61.6477C107.268 61.1242 106.545 58.4649 106.635 57.3719C106.984 59.155 108.057 61.7376 108.943 61.6211C108.761 61.3338 108.022 59.7081 108.022 58.6857C108.342 59.5343 109.104 61.3941 109.679 61.4074C111.185 61.438 111.566 60.7448 112.679 60.4913C115.169 59.9218 115.823 60.889 116.204 61.0884C115.9 60.7908 114.86 58.9536 114.169 57.5201C113.619 56.3853 114.548 55.2515 116.125 54.547C116.436 54.4069 114.343 54.4264 113.851 54.4407Z" fill="#C6C1C0"/>
<path d="M115.154 64.4062C115.154 64.4062 115.071 64.2898 115 64.2704C114.977 64.2639 114.962 64.2607 114.948 64.2607C114.916 64.2607 114.9 64.2704 114.9 64.2704L114.865 64.2963L114.877 64.2413C114.881 64.2041 114.912 64.1346 114.976 64.1346C115 64.1346 115.025 64.1443 115.051 64.1605C115.15 64.2171 115.181 64.3738 115.182 64.3771L115.2 64.4692L115.154 64.4062Z" fill="#17191D"/>
<path d="M115.975 73.8384C115.049 73.8384 114.93 72.4082 114.909 72.1524C114.685 72.1373 114.444 71.9912 114.278 71.8673C114.27 71.8613 114.253 71.8512 114.235 71.8422C114.238 71.9479 114.244 72.0577 114.246 72.1604C114.255 72.3256 114.289 72.7526 114.303 72.8664L114.306 72.8785C114.325 73.0397 114.373 73.4174 113.983 73.6238C113.868 73.6812 113.74 73.7145 113.602 73.7145C113.483 73.7145 113.379 73.6914 113.308 73.6773C113.292 73.6752 113.277 73.6712 113.264 73.6691L113.196 73.6631C113.097 73.65 112.96 73.6339 112.857 73.6279H112.829C112.634 73.6279 112.085 73.6611 111.997 73.6691C111.976 73.6712 111.958 73.6732 111.937 73.6732C111.627 73.6732 111.374 73.4375 111.371 73.4335C111.214 73.2875 111.201 73.0558 111.339 72.8705L111.374 72.8211L111.426 72.7839C111.457 72.7647 111.554 72.7013 111.693 72.6821C111.807 72.6126 111.986 72.513 112.258 72.3689C112.02 71.9268 110.968 70.3938 111.886 69.9104C112.223 69.7351 112.746 69.5579 113.238 69.4481C113.242 69.4179 113.25 69.3887 113.259 69.3615C113.268 69.3262 113.279 69.2074 113.265 69.1117C113.122 69.1863 112.977 69.2255 112.857 69.2255C112.816 69.2255 112.779 69.2215 112.741 69.2135C112.429 69.151 112.026 68.7119 111.979 68.6535C111.908 68.5628 111.643 68.1025 111.397 67.6654C110.729 67.6362 110.668 67.6181 110.621 67.605C110.554 67.5828 110.477 67.5597 110.042 67.2152C109.899 67.0974 109.827 66.9413 109.851 66.7862C109.869 66.6582 109.953 66.5464 110.076 66.487C110.086 66.483 110.093 66.479 110.105 66.4739C110.161 66.4024 110.254 66.3299 110.411 66.2987L110.454 66.2887H110.507C110.613 66.2887 110.705 66.3239 110.78 66.3692C110.787 66.3198 110.8 66.2705 110.826 66.2252C110.907 66.0761 111.071 65.9855 111.266 65.9855C111.374 65.9855 111.491 66.0126 111.622 66.068L111.641 66.0781L111.662 66.0902C111.706 66.1154 111.712 66.1154 111.712 66.1154C111.793 66.1315 111.987 66.1879 112.051 66.2121C112.163 66.2574 112.242 66.3158 112.453 66.6603L112.786 66.9786C112.937 66.6422 113.12 66.4911 113.187 66.4357C113.282 66.3571 113.399 66.3239 113.522 66.2887C113.545 66.2806 113.58 66.2705 113.605 66.2634C113.653 66.2222 113.712 66.1839 113.774 66.1506C113.777 66.1335 113.783 66.1154 113.789 66.1013C113.74 66.0348 113.68 65.9482 113.632 65.8757C113.495 65.6591 113.513 65.4647 113.524 65.3439L113.526 65.3046C113.545 64.9702 113.987 64.6852 113.992 64.6832C114.041 64.6519 114.096 64.6268 114.144 64.6087C114.232 64.51 114.388 64.3448 114.497 64.2521C114.586 64.1715 114.706 64.1172 114.82 64.0779C114.915 63.8906 115.116 63.7999 115.423 63.7999C115.522 63.7999 115.841 63.8221 115.947 63.8372C116.174 63.8724 116.328 64.0084 116.407 64.1736C116.604 64.237 116.73 64.4062 116.754 64.6339L116.823 64.7054C116.873 64.7527 116.982 64.8766 117.019 65.0629C117.14 65.2835 117.119 65.5474 117.105 65.6652C117.099 66.0227 117.001 66.2332 116.897 66.3531C116.884 66.3964 116.873 66.4306 116.858 66.4599C117.219 66.6724 117.33 67.1477 117.363 67.335C117.395 67.4448 117.536 67.9112 117.608 68.2144C117.709 68.6474 117.551 69.0563 117.536 69.1016L117.514 69.149L117.484 69.1903C117.455 69.2276 117.299 69.4199 117.235 69.4954C117.113 69.6324 116.982 69.6939 116.868 69.7171C116.908 69.8631 116.947 70.0202 116.973 70.1662C117.262 70.5097 117.419 70.984 117.419 71.1532C117.419 71.263 117.383 71.3819 117.347 71.4675H117.349C117.38 71.5521 117.384 71.6589 117.38 71.8885C117.504 72.0184 117.61 72.2017 117.721 72.4082C117.734 72.4334 117.742 72.4515 117.748 72.4595C118.297 73.5987 116.918 73.6873 116.834 73.6591C116.656 73.8183 116.071 73.8384 115.975 73.8384Z" fill="#17191D"/>
<path d="M115.958 64.1702C115.879 64.156 115.59 64.1347 115.509 64.1347C115.113 64.1347 115.32 64.3326 115.32 64.3326C115.32 64.3326 115.004 64.3742 114.873 64.493C114.741 64.6127 114.501 64.8898 114.501 64.8898C114.501 64.8898 114.395 64.9274 114.331 64.969C114.266 65.0086 114.083 65.1477 114.057 65.2999C114.036 65.4015 114.023 65.5263 114.105 65.6613C114.185 65.7963 114.322 65.9759 114.322 65.9759C114.322 65.9759 114.356 66.0399 114.322 66.115C114.29 66.1921 114.234 66.385 114.234 66.385C114.234 66.385 114.043 66.4774 113.987 66.5413C113.931 66.6063 113.664 66.6448 113.596 66.6996C113.531 66.7555 113.359 66.9057 113.241 67.3067C113.103 67.4254 113.031 67.5776 113.031 67.5776L112.322 66.8722C112.322 66.8722 112.23 66.589 112.098 66.5413C112.052 66.5251 111.74 66.4225 111.666 66.3911C111.403 66.2936 111.357 66.3688 111.41 66.4419C111.463 66.5139 111.623 66.589 111.666 66.6103C111.704 66.6326 111.722 66.9098 111.059 66.8052C111.028 66.7971 110.849 66.6915 110.738 66.6448C110.452 66.5535 110.502 66.8245 110.561 66.8742C110.622 66.9219 110.909 67.2153 110.977 67.2366C111.04 67.2569 111.848 67.2904 111.848 67.2904C111.848 67.2904 112.404 68.3278 112.482 68.4283C112.561 68.5318 112.871 68.8231 112.994 68.8485C113.12 68.8769 113.493 68.7419 113.676 68.4069L113.749 69.761C113.749 69.761 112.48 70.0422 112.246 70.233C111.768 70.6076 112.614 72.0347 112.899 72.4133C112.988 72.5382 112.925 72.5655 112.925 72.5655C112.925 72.5655 112.035 73.0497 112.024 73.0893C111.94 73.0659 111.871 73.1167 111.871 73.1167C111.871 73.1167 111.828 73.1766 111.856 73.2061C111.886 73.2345 112.035 73.3451 112.151 73.3349C112.261 73.3217 112.89 73.2873 113.039 73.2934C113.187 73.2994 113.371 73.3238 113.467 73.3349C113.561 73.3451 113.762 73.4222 113.926 73.3349C114.086 73.2456 114.061 73.0934 114.043 72.9431C114.025 72.7919 113.983 72.2052 113.983 72.2052C113.983 72.2052 113.967 71.5251 113.953 71.4419C114.126 71.4642 114.409 71.5292 114.461 71.4977C114.55 71.448 114.641 71.5982 114.641 71.5982C114.641 71.5982 114.931 71.8246 115.064 71.8012C115.193 71.7769 115.219 71.7667 115.284 71.5748C115.333 71.5058 115.374 71.5231 115.374 71.7017C115.374 71.8844 115.284 73.5359 116.078 73.5034C116.567 73.4841 116.917 73.2517 116.917 73.2517C116.917 73.2517 117.054 73.4385 117.244 73.3725C117.747 73.1929 117.472 72.7442 117.429 72.6752C117.39 72.6062 117.16 72.1098 117.016 72.0996C117.022 71.8895 116.988 71.5749 116.951 71.4896C116.976 71.4439 117.06 71.2592 117.06 71.1719C117.06 71.0846 116.917 70.6197 116.649 70.3396C116.588 69.9031 116.368 69.2454 116.368 69.2454C116.368 69.2454 116.66 69.3489 116.749 69.3601C116.84 69.3723 116.911 69.3306 116.97 69.2616C117.031 69.1915 117.197 68.9703 117.197 68.9703C117.197 68.9703 117.328 68.6323 117.25 68.2933C117.173 67.9583 117.012 67.4041 117.012 67.4041C117.012 67.4041 116.936 66.8661 116.666 66.7433C116.399 66.6225 116.344 66.6327 116.344 66.6327C116.344 66.6327 116.258 66.519 116.322 66.4936C116.387 66.4723 116.489 66.3962 116.517 66.3606C116.547 66.3271 116.594 66.1384 116.594 66.1384C116.594 66.1384 116.754 66.0632 116.754 65.6136C116.754 65.6136 116.804 65.3019 116.684 65.1537C116.684 65.0208 116.588 64.9335 116.588 64.9335L116.416 64.7508C116.416 64.7508 116.44 64.5193 116.334 64.493C116.226 64.4676 116.148 64.4402 116.148 64.4402C116.148 64.4402 116.143 64.1976 115.958 64.1702Z" fill="#C6C1C0"/>
<path d="M114.387 64.8042C114.468 64.7971 114.527 65.0426 114.53 65.0974C114.534 65.1451 114.516 65.1451 114.474 65.1292C114.435 65.1186 114.399 64.9596 114.315 64.9737C114.233 64.9808 114.231 65.0903 114.201 65.0797C114.169 65.0726 114.304 64.8113 114.387 64.8042Z" fill="#17191D"/>
<path d="M115.209 67.4359C115.248 67.3892 115.353 67.4999 115.384 67.4717C115.413 67.4424 115.162 67.1243 115.242 67.0581C115.336 66.9886 115.445 67.2361 115.494 67.1938C115.547 67.1471 115.527 67.1243 115.512 67.0841C115.506 67.0646 115.398 66.8485 115.397 66.8463C115.39 66.8355 115.274 66.6368 115.35 66.5945C115.428 66.5641 115.51 66.7106 115.527 66.7356C115.533 66.7421 115.681 67.0331 115.743 67.0016C115.803 66.9614 115.632 66.5261 115.632 66.5261C115.621 66.4859 115.549 66.373 115.585 66.3415C115.621 66.3101 115.658 66.3187 115.76 66.4686C115.769 66.4816 116.042 67.0288 116.076 67.0092C116.076 67.0092 116.082 66.8995 116.04 66.8149C116.094 66.8615 116.199 66.8974 116.193 66.9777C116.191 67.006 116.183 67.2405 116.143 67.298C116.024 67.4587 115.464 67.6671 115.29 67.6356C115.274 67.6161 115.163 67.4956 115.209 67.4359ZM116.319 69.8232L116.24 69.427L116.203 69.2848L115.552 67.9364L115.527 67.8854C115.505 67.8626 115.486 67.8343 115.434 67.7789C115.419 67.7648 115.429 67.7431 115.449 67.7453C115.676 67.7768 116.072 67.6563 116.166 67.6161C116.193 67.652 116.823 68.4727 116.871 68.4391C116.92 68.4032 116.235 67.4022 116.229 67.4C116.229 67.3935 116.294 66.9864 116.279 66.9376C116.248 66.8399 116.064 66.69 115.99 66.69L115.978 66.6933C115.965 66.664 115.952 66.6411 115.949 66.6346L115.938 66.6151C115.889 66.5174 115.85 66.4522 115.823 66.4056C115.95 66.4522 116.076 66.4968 116.086 66.5011L116.155 66.5055L116.229 66.3926L115.697 66.195C115.65 66.1787 115.598 66.0658 115.595 65.9724C115.592 65.9072 115.963 65.5023 115.892 65.4784C115.749 65.423 115.408 65.8302 115.401 65.9496C115.393 66.0278 115.432 66.2014 115.494 66.2698C115.472 66.3035 115.456 66.3394 115.456 66.3817C114.796 66.4306 114.559 66.6933 114.531 66.829C114.531 66.829 115.058 66.5988 115.246 66.5641C115.123 66.6932 115.318 66.9397 115.318 66.9397C115.294 66.931 115.232 66.8844 115.165 66.9376C115.042 67.0462 115.169 67.2708 115.194 67.3218C115.143 67.3229 115.107 67.3338 115.09 67.3555C115.025 67.438 115.149 67.6117 115.238 67.7203C115.28 67.7713 115.087 67.7583 114.531 67.298C114.547 67.7453 115.215 68.0123 115.428 68.0145C115.434 68.0254 116.29 69.7646 116.319 69.8232Z" fill="#17191D"/>
<path d="M113.463 69.8229L113.355 69.8804L113.192 69.9693C113.22 70.0279 113.862 71.3993 114.513 71.8306L114.531 71.7781C113.66 70.7399 113.463 69.8229 113.463 69.8229Z" fill="#17191D"/>
<path d="M115.688 70.5018C115.402 70.5538 115.2 71.7478 115.2 71.7478C115.269 71.6353 115.272 71.8306 115.272 71.8306C115.272 71.8306 115.502 70.8149 115.701 70.7109C115.904 70.6059 116.204 70.6515 116.204 70.6515C116.204 70.6515 115.977 70.4456 115.688 70.5018Z" fill="#17191D"/>
<path d="M113.182 68.484C113.237 68.461 113.051 67.4805 113.051 67.4805L112.983 67.5293L112.865 67.4805C112.804 67.5651 113.128 68.5069 113.182 68.484Z" fill="#17191D"/>
<path d="M113.226 67.7138L113.292 68.4844L113.413 68.4101L113.381 67.8429C113.381 67.8429 113.441 67.873 113.463 67.8535C113.484 67.8332 113.366 67.7173 113.36 67.5757C113.355 67.4722 113.462 67.3368 113.444 67.3253C113.424 67.313 113.388 67.3528 113.388 67.3528C113.394 67.259 113.401 67.1555 113.407 67.09C113.415 66.998 113.527 66.8113 113.527 66.8113C113.276 66.9086 113.23 67.221 113.23 67.221L113.214 67.4651C113.214 67.4687 113.192 67.543 113.192 67.5943C113.192 67.6483 113.224 67.7138 113.224 67.7138H113.226Z" fill="#17191D"/>
<path d="M116.783 72.1654C116.783 72.1654 116.774 73.2344 116.539 73.5039H116.668C116.716 73.4625 116.811 73.1193 116.843 72.9891C116.879 72.8458 116.873 72.2603 116.873 72.2603L116.783 72.1654Z" fill="#17191D"/>
<path d="M112.859 70.4922C112.812 70.7003 113.898 71.4961 113.898 71.4961L114.196 71.3869C114.196 71.3869 113.167 70.7927 112.859 70.4922Z" fill="#17191D"/>
<path d="M115.496 64.4943C115.512 64.5093 115.506 64.5908 115.491 64.6498C115.491 64.653 115.459 64.7668 115.631 64.844C115.744 64.8923 115.809 64.9759 115.854 65.035C115.864 65.0478 115.874 65.0618 115.878 65.0704C115.909 65.1015 115.919 65.1294 115.895 65.2023C115.885 65.2334 115.87 65.2527 115.854 65.2699C115.838 65.2838 115.82 65.3053 115.831 65.3321L115.833 65.3407C115.843 65.374 115.874 65.4544 115.956 65.4855C115.972 65.4963 116.015 65.5478 115.968 65.6722L115.954 65.7076C115.902 65.8417 115.947 66.1625 116.034 66.1411C116.124 66.1207 116.107 65.8417 116.13 65.8085C116.182 65.7473 116.218 65.5778 116.199 65.4855C116.194 65.4523 116.179 65.4287 116.156 65.418C116.076 65.3718 116.05 65.3343 116.05 65.3235C116.05 65.3203 116.062 65.3053 116.072 65.2946C116.09 65.2763 116.109 65.2506 116.125 65.2195C116.154 65.1583 116.135 65.0703 116.107 65.0135C116.081 64.963 115.923 64.785 115.831 64.756C115.751 64.7356 115.704 64.6949 115.704 64.6552C115.703 64.6369 115.707 64.609 115.709 64.5822C115.72 64.5189 115.725 64.461 115.696 64.4256C115.43 64.0962 115.037 64.1359 115.037 64.1359L114.865 64.3011C114.865 64.3011 115.169 64.1649 115.496 64.4943Z" fill="#17191D"/>
<path d="M113.56 66.5492C113.621 66.5724 113.944 66.5982 114.522 66.8115C114.61 66.7272 114 66.5311 113.716 66.4769C113.547 66.4769 113.535 66.4984 113.529 66.507C113.524 66.5174 113.524 66.532 113.56 66.5492Z" fill="#17191D"/>
<path d="M112.377 72.768C112.032 72.2827 111.281 72.263 111.031 72.5093C111.016 72.4948 111.005 72.4855 110.993 72.4751C110.888 72.3903 110.585 72.204 110.437 72.1192C110.208 71.8709 110.111 71.8098 110.062 71.784C109.873 71.6671 109.511 71.5356 109.203 71.4601C109.144 70.7875 109.093 70.6303 109.058 70.5609C109.061 70.5392 109.132 69.9442 109.12 69.5707C109.315 69.6069 109.574 69.6493 109.781 69.6493C109.898 69.6493 109.991 69.6359 110.068 69.607C110.269 69.5532 110.601 69.4352 110.737 69.2096L110.768 69.161L110.782 69.1041C110.794 69.0554 110.884 68.6147 110.628 68.1987C110.452 67.9162 109.961 67.3865 109.687 67.1175C109.7 66.9622 109.707 66.806 109.707 66.8039C109.718 66.6766 109.685 66.5453 109.54 66.3921C109.497 66.3456 109.167 65.9617 109.073 65.9027C108.984 65.8489 108.838 65.8075 108.72 65.8075C108.677 65.8075 108.638 65.8137 108.598 65.8262C108.276 65.8986 108.307 66.4045 108.319 66.447C108.279 66.4221 108.236 66.4004 108.189 66.3797C108.078 66.2545 107.917 66.1821 107.756 66.1479C107.674 66.0869 107.552 66.0238 107.395 66.0238C107.384 66.0238 107.372 66.0238 107.36 66.0259C107.152 66.0383 107.147 66.061 107.046 66.1438C106.891 66.1779 106.75 66.2711 106.643 66.4066C106.555 66.4583 106.445 66.5515 106.359 66.7056C106.264 66.7843 106.162 66.9136 106.079 67.1402L106.048 67.223C105.974 67.4206 105.892 67.643 105.951 67.8738C105.954 67.8769 105.955 67.8873 105.957 67.8935C105.778 67.9442 105.524 68.0508 105.384 68.3322C105.323 68.4595 105.256 68.6271 105.203 68.775C105.125 68.7802 104.222 68.894 104.241 69.3307C104.247 69.4683 104.312 69.6049 104.434 69.6918C104.349 69.8397 104.343 69.9949 104.419 70.1263C104.483 70.2422 104.573 70.325 104.674 70.3654C104.708 70.4761 104.759 70.591 104.835 70.6903C104.924 70.8072 105.021 70.8931 105.103 70.9531C104.934 71.01 104.755 71.0927 104.583 71.22C104.333 71.3938 103.96 71.7757 104.283 72.3675C104.335 72.4586 104.493 72.6386 105.285 73.4364C105.258 73.4695 104.635 74.6449 105.654 74.6935C105.886 75.0939 106.68 74.5176 106.707 74.5021C106.767 74.5155 107.833 74.5197 107.55 73.6774C107.623 73.665 107.991 73.5605 108.011 73.5585C108.13 73.6123 108.392 73.722 108.547 73.7375C108.617 73.7437 108.732 73.7478 108.817 73.7478C108.925 73.7478 109.189 73.7437 109.316 73.7178C109.35 73.7116 109.387 73.7012 109.428 73.694C109.54 73.8771 109.713 74.1058 109.938 74.2351C110.206 74.3924 110.82 74.6739 111.025 74.767C111.065 74.8094 111.497 75.1768 111.78 75.1768C112.684 75.1768 112.405 74.3324 112.42 74.2859C112.495 74.0675 112.629 73.1177 112.377 72.768Z" fill="#17191D"/>
<path d="M109.205 68.2957C109.168 68.2489 108.816 68.1552 108.673 68.1396C108.623 68.0886 108.461 68.0376 108.461 68.0376C108.461 68.0376 108.682 67.8669 108.677 67.7493C108.523 66.9418 108.258 66.8794 108.258 66.8794C108.258 66.8794 108.175 66.6962 107.951 66.6681C107.912 66.4954 107.584 66.4663 107.584 66.4663C107.584 66.4663 107.503 66.3549 107.371 66.3611C107.276 66.3684 107.246 66.408 107.197 66.4684C107.197 66.4684 107.001 66.4361 106.869 66.6681C106.869 66.6681 106.714 66.7025 106.619 66.9356C106.619 66.9356 106.503 66.9647 106.399 67.2446C106.328 67.4361 106.244 67.6245 106.28 67.767C106.318 67.9096 106.432 68.0574 106.432 68.0574C106.432 68.0574 106.325 68.1469 106.208 68.1843C106.09 68.2208 105.803 68.2426 105.686 68.483C105.568 68.7223 105.421 69.1823 105.421 69.1823C105.421 69.1823 105.35 69.1396 105.264 69.1313C105.189 69.123 104.843 69.1375 104.766 69.1958C104.723 69.225 104.573 69.2447 104.577 69.304C104.586 69.4768 104.852 69.4154 104.852 69.4154L104.791 69.7817C104.791 69.7817 104.68 69.893 104.709 69.9461C104.739 69.9992 104.791 70.019 104.826 70.0075C104.872 69.9992 104.944 69.9118 104.944 69.9118C104.944 69.9118 104.944 70.2687 105.098 70.4706C105.252 70.6714 105.43 70.7432 105.43 70.7432C105.43 70.7432 105.547 70.7911 105.648 70.7432C105.751 70.7026 105.942 70.5455 105.958 70.4852C105.972 70.4258 106.023 70.2229 106.023 70.2229C106.023 70.2229 106.105 69.9013 106.142 69.893C106.178 69.8868 106.215 69.9378 106.215 69.9378V70.5903C106.215 70.5903 105.964 71.0762 105.964 71.2021C105.832 71.2188 105.26 71.1553 104.767 71.5216C104.362 71.8057 104.504 72.0679 104.577 72.2022C104.648 72.3385 105.884 73.5623 105.921 73.607C105.905 73.6497 105.942 73.7038 105.884 73.7038H105.751C105.751 73.7038 105.563 73.6289 105.53 73.7038C105.451 73.8891 105.651 73.8724 105.659 73.9036C105.664 73.9379 105.498 73.8786 105.474 73.9765C105.44 74.0961 105.477 74.2085 105.556 74.3074C105.605 74.375 105.734 74.3427 105.77 74.3563C105.809 74.3729 105.822 74.4354 105.92 74.4562C106.136 74.5436 106.615 74.1429 106.677 74.1533C106.91 74.273 107.181 74.0535 107.197 73.9192C107.215 73.7829 107.195 73.7163 107.148 73.6123C107.1 73.5113 106.95 73.3469 106.95 73.3469C106.95 73.3469 107.135 73.2876 107.175 73.2688C107.175 73.2688 107.201 73.2491 107.264 73.2792C107.325 73.3115 107.599 73.3625 107.68 73.3583C107.761 73.3562 108.067 73.2043 108.114 73.2303C108.162 73.2574 108.465 73.3874 108.578 73.3968C108.689 73.4093 109.121 73.4072 109.241 73.3833C109.361 73.3604 109.602 73.2855 109.602 73.2855C109.602 73.2855 109.804 73.7673 110.109 73.9463C110.414 74.1232 111.234 74.4926 111.234 74.4926C111.234 74.4926 111.562 74.8423 111.78 74.8423C111.995 74.8423 112.051 74.6529 112.05 74.6081C112.049 74.5613 112.042 74.3199 112.085 74.196C112.13 74.0659 112.168 73.684 112.179 73.505C112.191 73.3261 112.251 72.8276 111.786 72.7547C111.712 72.7423 111.552 72.7142 111.524 72.7142C111.456 72.7204 111.489 72.8848 111.467 72.8224C111.441 72.7464 111.363 72.7288 111.332 72.7402C111.246 72.7797 111.209 72.8547 111.21 72.8952C111.216 72.9681 111.248 73.1658 111.248 73.1658C111.248 73.1658 110.87 72.8547 110.765 72.7673C110.661 72.6798 110.211 72.4134 110.211 72.4134C110.211 72.4134 109.967 72.1491 109.894 72.1169C109.851 72.0659 109.212 71.7651 108.866 71.7713C108.86 71.5008 108.847 70.8691 108.696 70.5621C108.698 70.4768 108.791 69.5902 108.735 69.3571C108.712 69.2552 108.864 69.1761 108.941 69.1761C109.018 69.1761 109.755 69.3488 109.954 69.2614C109.954 69.2614 110.346 69.1594 110.433 69.0126C110.433 69.0126 110.511 68.6817 110.323 68.381C110.136 68.0782 109.481 67.3872 109.31 67.2446C109.332 67.0698 109.347 66.7556 109.347 66.7556C109.347 66.7556 109.347 66.6879 109.304 66.6452C109.257 66.5963 108.959 66.2446 108.918 66.2082C108.884 66.1759 108.748 66.1291 108.692 66.1458C108.636 66.1635 108.655 66.2852 108.686 66.3164C108.72 66.3529 108.81 66.4298 108.81 66.4298L108.858 66.5662C108.858 66.5662 108.797 66.5984 108.785 66.6286C108.775 66.6557 108.775 66.8118 108.797 66.8482C108.818 66.8794 108.891 66.895 108.891 66.895C108.891 66.895 108.824 67.048 108.76 67.0521C108.702 66.9689 108.608 66.7181 108.527 66.8003C108.489 66.8409 108.468 66.9096 108.491 66.9783C108.509 67.0438 108.617 67.3643 108.673 67.4236C108.729 67.4809 108.771 67.5131 108.771 67.5131C108.771 67.5131 109.184 68.1739 109.205 68.2957Z" fill="#C6C1C0"/>
<path d="M105.162 71.5182C105.818 71.4622 107.015 73.1241 107.054 73.1599C107.095 73.1958 107.169 73.1186 107.169 73.1186C107.119 73.0469 106.073 71.2812 105.162 71.5182Z" fill="#17191D"/>
<path d="M105.227 69.4768C105.34 69.4539 105.523 69.1689 105.493 69.1546C105.465 69.1389 105.371 69.3264 105.201 69.3264C105.147 69.3264 105.082 69.3093 105.011 69.2921L104.994 69.2864C104.974 69.3365 104.827 69.3679 104.827 69.3679L104.845 69.4883L104.99 69.441C105.014 69.4539 105.115 69.4997 105.227 69.4768Z" fill="#17191D"/>
<path d="M106.203 68.4847C106.111 68.4986 106.216 70.1577 106.216 70.1577L106.311 69.992C106.299 69.8982 106.287 69.413 106.288 69.3441C106.32 69.3721 106.741 69.2533 106.835 69.0406C106.835 69.0406 106.54 69.1126 106.466 69.0906C106.334 69.0617 106.299 68.9858 106.292 68.9308C106.293 68.9139 106.242 68.4807 106.203 68.4847Z" fill="#17191D"/>
<path d="M105.951 71.1617L105.831 71.2347C106.694 71.6233 107.217 73.0572 107.221 73.0718L107.226 73.0874L107.504 73.1694C107.504 73.1694 106.846 71.5038 105.951 71.1617Z" fill="#17191D"/>
<path d="M107.838 73.1536C107.882 73.2055 108.11 73.1132 108.11 73.1132V73.0962C108.11 73.0896 108.086 72.3774 108.842 71.831C108.842 71.831 108.016 71.9572 107.838 73.1536Z" fill="#17191D"/>
<path d="M111.437 72.9585L111.185 72.8345C111.185 72.8345 111.304 73.2399 111.297 73.4176C111.292 73.4474 111.281 73.4545 111.263 73.4664C111.254 73.4735 111.249 73.4783 111.241 73.4819C111.148 73.5546 111.213 73.8384 111.213 73.8384C111.213 73.8384 111.321 73.6762 111.437 73.5844C111.447 73.5761 111.455 73.5689 111.467 73.5618C111.521 73.5248 111.533 73.4962 111.503 73.3353C111.498 73.2804 111.437 72.9585 111.437 72.9585Z" fill="#17191D"/>
<path d="M109.022 68.4849C108.991 68.489 108.933 68.901 108.935 68.9559C108.935 68.9641 108.919 69.2333 108.609 69.1867C108.301 69.138 108.173 69.0811 108.173 69.0811C108.283 69.2933 108.796 69.3968 108.922 69.5707C108.95 69.6069 108.97 69.7994 108.974 69.8232H109.076V69.4796L109.177 69.4496C109.132 68.7312 109.053 68.4787 109.022 68.4849Z" fill="#17191D"/>
<path d="M108.46 67.0191C108.588 66.9098 108.341 66.7856 108.336 66.7707C108.336 66.7707 108.508 66.9537 108.368 66.9024C108.249 66.7492 107.78 66.6381 107.764 66.6232C107.74 66.5999 107.823 66.5354 108.082 66.6923C108.098 66.6652 107.941 66.541 107.717 66.5541C107.712 66.5289 107.691 66.5009 107.671 66.4906C107.667 66.4887 107.664 66.4888 107.664 66.4888C107.655 66.4888 107.641 66.4887 107.645 66.4925C107.665 66.5102 107.698 66.5541 107.661 66.5578C107.618 66.5616 107.591 66.499 107.582 66.4888C107.559 66.4542 107.451 66.5028 107.514 66.541C107.53 66.5541 107.559 66.5616 107.585 66.5774C107.618 66.5924 107.604 66.6017 107.576 66.5924C107.539 66.583 107.501 66.5774 107.451 66.5774C107.4 66.5774 107.354 66.5868 107.31 66.6017C107.291 66.6055 107.272 66.598 107.295 66.583C107.315 66.569 107.344 66.5634 107.362 66.5541C107.452 66.5027 107.302 66.4187 107.277 66.5392C107.259 66.5616 107.242 66.5775 107.228 66.5812C107.16 66.5849 107.233 66.499 107.229 66.499C107.229 66.499 107.221 66.5065 107.218 66.5084C107.196 66.5196 107.168 66.541 107.162 66.5653C107.145 66.5634 106.884 66.5774 106.847 66.6923C107.04 66.5774 107.142 66.5849 107.129 66.6288C107.125 66.6475 106.894 66.7548 106.801 66.8258C106.728 66.8697 106.618 66.977 106.597 66.9808C106.56 66.9864 106.555 66.9257 106.604 66.8454C106.483 66.9425 106.506 67.019 106.539 67.0592C106.477 67.1777 106.49 67.3271 106.57 67.4457C106.639 67.5437 107.063 67.8341 107.099 67.8145C107.135 67.7939 106.66 67.4569 106.624 67.3122C106.549 66.9658 107.127 66.6615 107.314 66.6437C107.323 66.6437 107.347 66.6876 107.454 66.682C107.585 66.6783 107.6 66.6437 107.6 66.6437C107.749 66.6288 108.454 66.8445 108.381 67.2655C108.355 67.3981 108.29 67.5568 108.319 67.5736C108.348 67.5876 108.375 67.5166 108.447 67.4018C108.524 67.2814 108.527 67.132 108.46 67.0191Z" fill="#17191D"/>
<path d="M109.846 69.1469C109.787 69.0525 109.289 68.1928 109.286 68.1906C109.282 68.1775 109.27 68.15 109.252 68.15C109.242 68.15 109.179 68.1544 109.177 68.1752C109.282 68.4267 109.52 68.8252 109.687 69.0207C109.763 69.1173 109.825 69.1744 109.846 69.1469Z" fill="#17191D"/>
<path d="M105.831 73.416C105.873 73.4458 105.945 73.5039 105.945 73.5039C105.945 73.5039 106.047 73.3676 106.224 73.3136C106.399 73.2603 106.703 73.1863 106.835 73.1835C106.334 73.1143 105.851 73.315 105.831 73.416Z" fill="#17191D"/>
<path d="M105.687 70.0897C105.778 70.0917 105.805 70.0207 105.806 69.9438L105.824 69.93C105.827 69.928 105.913 69.8659 105.968 69.7258C106.01 69.9122 106.126 70.2841 106.04 70.3808L105.908 70.4922L106.046 70.429C106.1 70.4133 106.187 70.3343 106.16 70.2032C106.146 70.1321 106.01 69.5403 106.01 69.5403L106.003 69.5157C105.996 69.4388 105.968 69.3658 105.914 69.3096C105.824 69.211 105.681 69.1596 105.587 69.1537C105.587 69.1537 105.967 69.3579 105.918 69.5739C105.872 69.78 105.824 69.7968 105.824 69.7988L105.772 69.7504L105.767 69.8718C105.758 69.9319 105.734 69.9566 105.685 69.9546C105.539 69.9527 105.431 70.1124 105.275 70.076C105.129 70.0414 105.052 69.9438 104.96 69.8876C104.877 69.8353 105.004 69.7317 105.004 69.7317C105.004 69.7317 105 69.6913 104.962 69.6696C104.922 69.6489 104.857 69.7801 104.857 69.7801C104.857 69.7801 104.769 69.9606 104.893 70.0247C105.111 70.1401 105.04 70.1381 105.275 70.1953C105.512 70.2535 105.494 70.0858 105.687 70.0897Z" fill="#17191D"/>
<path d="M114.29 64.4692C114.155 64.4692 113.982 64.3865 113.939 64.1545C113.925 64.1091 113.806 63.8388 113.703 63.6048C113.121 62.2783 113.168 62.7634 113.223 62.5526C113.32 62.1723 113.854 62.1269 114.251 62.1269C114.343 62.1269 114.412 62.1309 114.438 62.133C114.63 62.135 114.797 62.2036 114.929 62.3277C115.145 62.5365 115.2 62.8442 115.2 62.9874C115.2 63.0035 114.908 63.8599 114.761 64.1182L114.755 64.1283C114.541 64.4652 114.354 64.4692 114.292 64.4692H114.29Z" fill="#17191D"/>
<path d="M114.41 62.1325C114.41 62.1325 113.596 62.0711 113.531 62.3604C113.471 62.652 114.048 63.757 114.226 64.0647C114.351 64.2834 114.481 63.9201 114.481 63.9201C114.568 63.7396 114.863 62.9054 114.865 62.7816C114.865 62.6277 114.778 62.1302 114.41 62.1325Z" fill="#C6C1C0"/>
<path d="M90.7732 54.1093C90.7732 54.1093 93.0338 54.2492 93.4305 56.7729C93.5581 56.3083 93.0457 54.7803 92.3967 54.4077C92.3235 54.3656 92.0435 54.2296 92.2502 53.7787C91.4904 53.6701 90.7732 54.1093 90.7732 54.1093Z" fill="#17191D"/>
<path d="M101.815 54.9175C101.815 54.9175 103.13 54.3473 103.442 56.7729C103.584 55.8858 103.406 54.831 102.874 54.5118C102.341 54.1927 101.815 54.9175 101.815 54.9175Z" fill="#17191D"/>
<path d="M95.123 57.4424C95.123 57.4424 95.2359 57.9396 95.3561 58.0378C95.478 58.1328 95.7923 57.5206 95.7923 57.5206C95.7923 57.5206 95.573 58.2584 95.3789 58.4463C95.2229 58.2922 95.162 58.1043 95.123 57.4424Z" fill="#17191D"/>
<path d="M95.4593 58.1114C95.4593 58.1114 95.7183 58.6064 95.8894 58.704C96.0628 58.7983 96.4616 58.2132 96.4616 58.2132C96.4616 58.2132 96.1067 58.9711 95.9229 59.1152C95.7576 58.9785 95.4327 58.8004 95.4593 58.1114Z" fill="#17191D"/>
<path d="M94.4539 58.8318C94.4539 58.8318 94.6948 59.2976 94.8396 59.3588C95.0858 59.4627 95.1035 58.7808 95.1035 58.7808C95.1035 58.7808 95.2076 59.5369 94.9358 59.7847C94.7081 59.6474 94.5889 59.5546 94.4539 58.8318Z" fill="#17191D"/>
<path d="M95.123 58.5637C95.123 58.5637 95.261 58.9431 95.3915 59.0339C95.521 59.1238 95.7923 58.4464 95.7923 58.4464C95.7923 58.4464 95.7037 59.1162 95.4977 59.4502C95.3645 59.3097 95.1408 59.099 95.123 58.5637Z" fill="#17191D"/>
<path d="M95.4578 58.8963C95.4606 58.9173 95.8351 59.3139 96.066 59.3902C96.3025 59.4624 96.4545 58.7808 96.4545 58.7808C96.4545 58.7808 96.5221 59.5588 96.2391 59.7847C96.0758 59.7024 95.5366 59.5056 95.4578 58.8963Z" fill="#17191D"/>
<path d="M95.7922 57.1075C95.7922 57.1075 95.9932 57.6759 96.1272 57.7639C96.2612 57.8491 96.4615 57.2385 96.4615 57.2385C96.4615 57.2385 96.359 57.9037 96.1195 58.1113C95.9563 57.9353 95.9062 57.8175 95.7922 57.1075Z" fill="#17191D"/>
<path d="M95.123 56.4385C95.123 56.4385 95.3523 56.8832 95.5593 56.9615C95.7662 57.0408 96.1269 56.4385 96.1269 56.4385C96.1269 56.4385 95.913 57.2075 95.5816 57.4424C95.3579 57.3129 95.2545 57.0991 95.123 56.4385Z" fill="#17191D"/>
<path d="M96.127 56.4387C96.127 56.4387 96.2826 56.7536 96.428 56.821C96.5712 56.8884 96.7962 56.6121 96.7962 56.6121C96.7962 56.6121 96.7064 57.0487 96.4394 57.1079C96.3292 57.0364 96.2088 56.895 96.127 56.4387Z" fill="#17191D"/>
<path d="M96.8143 55.7691C96.8143 55.7691 96.9169 56.2434 97.0642 56.3432C97.2033 56.4444 97.4654 56.0108 97.4654 56.0108C97.4654 56.0108 97.4316 56.5391 97.0493 56.7729C96.9088 56.6087 96.74 56.4077 96.8143 55.7691Z" fill="#17191D"/>
<path d="M97.474 55.4348C97.474 55.4348 97.5784 55.7633 97.7239 55.8338C97.8695 55.9034 98.1346 55.6013 98.1346 55.6013C98.1346 55.6013 98.0851 56.0498 97.7226 56.1002C97.7679 56.1423 97.4054 55.8338 97.474 55.4348Z" fill="#17191D"/>
<path d="M94.4539 58.1115C94.4539 58.1115 94.6912 58.5043 94.8019 58.5155C94.9116 58.5257 95.1231 58.1115 95.1231 58.1115C95.1231 58.1115 95.0234 58.6681 94.8019 58.7808C94.7032 58.6681 94.5077 58.4894 94.4539 58.1115Z" fill="#17191D"/>
<path d="M95.796 55.7691C95.796 55.7691 95.9313 56.2129 96.0801 56.2992C96.2288 56.3892 96.4615 55.9591 96.4615 55.9591C96.4615 55.9591 96.3857 56.5942 96.126 56.7729C95.961 56.6354 95.7622 56.4067 95.796 55.7691Z" fill="#17191D"/>
<path d="M106.5 61.4575C106.103 61.3245 105.614 60.5211 105.466 60.1779C105.318 59.8317 105.05 58.8172 105.212 58.446C105.297 58.8132 105.526 59.5976 105.699 59.9508C105.958 60.48 106.286 61.1704 106.5 61.4575Z" fill="#C6C1C0"/>
<path d="M114.803 72.1352C114.749 71.9995 114.473 71.8628 114.35 71.8413C114.239 71.8207 114.215 71.817 114.204 71.9583C114.195 72.0734 114.19 72.1951 114.209 72.3158C114.239 72.5263 114.252 72.4645 114.403 72.4748C114.518 72.4861 114.621 72.5076 114.733 72.4973C114.839 72.4898 114.862 72.4861 114.862 72.3616C114.86 72.2718 114.889 72.1604 114.803 72.1277" fill="#17191D"/>
<g style="mix-blend-mode:multiply" opacity="0.2">
<path fill-rule="evenodd" clip-rule="evenodd" d="M106.5 113.163C128.958 113.163 147.163 94.9576 147.163 72.5C147.163 50.0424 128.958 31.837 106.5 31.837C84.0424 31.837 65.837 50.0424 65.837 72.5C65.837 94.9576 84.0424 113.163 106.5 113.163ZM106.5 116C130.524 116 150 96.5244 150 72.5C150 48.4756 130.524 29 106.5 29C82.4756 29 63 48.4756 63 72.5C63 96.5244 82.4756 116 106.5 116Z" fill="#191326"/>
</g>
</g>
<defs>
<linearGradient id="paint0_linear" x1="105.757" y1="87.7742" x2="92.3808" y2="138.886" gradientUnits="userSpaceOnUse">
<stop stop-color="#404042"/>
<stop offset="1" stop-color="#48484B"/>
</linearGradient>
<linearGradient id="paint1_linear" x1="46.5673" y1="105.096" x2="41.7353" y2="123.129" gradientUnits="userSpaceOnUse">
<stop stop-color="#404042"/>
<stop offset="1" stop-color="#48484B"/>
</linearGradient>
<linearGradient id="paint2_linear" x1="73.4948" y1="80.1687" x2="89.0896" y2="164.62" gradientUnits="userSpaceOnUse">
<stop stop-color="#404042"/>
<stop offset="1" stop-color="#48484B"/>
</linearGradient>
<clipPath id="clip0">
<rect width="160" height="160" fill="white"/>
</clipPath>
</defs>
</svg>
