<svg width="160" height="160" viewBox="0 0 160 160" fill="none" xmlns="http://www.w3.org/2000/svg">
<g clip-path="url(#clip0)">
<path d="M48.045 119.028C44.8667 131.172 63.0449 146.449 88.6472 153.149C114.25 159.85 137.581 155.436 140.759 143.291C143.937 131.147 125.759 115.87 100.157 109.17C74.5546 102.469 51.2233 106.883 48.045 119.028Z" fill="#606063"/>
<path d="M136.924 149.273L152.346 132.988L42.9922 104.37L48.7128 126.188L136.924 149.273Z" fill="#606063"/>
<path d="M49.9337 108.293L8.07245 97.3381C6.25796 96.8632 4.41259 97.9925 4.00962 99.8243L3.54142 101.953C2.60839 106.194 5.11954 110.434 9.28748 111.653L51.0994 123.892L49.9337 108.293Z" fill="#606063"/>
<path d="M43.2026 98.7094C39.5089 112.824 61.5267 130.811 92.3808 138.886C123.235 146.96 151.241 142.064 154.935 127.95C158.629 113.836 136.611 95.8486 105.757 87.774C74.9028 79.6994 46.8963 84.5953 43.2026 98.7094Z" fill="url(#paint0_linear)"/>
<path fill-rule="evenodd" clip-rule="evenodd" d="M127.673 123.286C134.771 128.506 138.919 134.152 139.538 139.157L142.516 138.789C141.744 132.551 136.779 126.258 129.45 120.869C122.061 115.434 112.011 110.721 100.537 107.718C89.0628 104.716 77.9927 103.902 68.888 105.019C59.8593 106.128 52.4479 109.182 48.7196 114.242L51.1348 116.021C54.1263 111.961 60.5082 109.071 69.2536 107.997C77.9231 106.933 88.6081 107.698 99.7773 110.621C110.946 113.544 120.636 118.111 127.673 123.286Z" fill="#606063"/>
<path fill-rule="evenodd" clip-rule="evenodd" d="M56.7343 118.739C48.0136 111.615 44.7365 104.698 46.1049 99.4689C47.4733 94.24 53.7186 89.8153 64.8112 87.8761C75.6178 85.987 89.8893 86.7224 104.997 90.6762C120.105 94.63 132.908 100.98 141.403 107.921C150.124 115.045 153.401 121.962 152.033 127.191C150.664 132.42 144.419 136.844 133.326 138.783C122.52 140.673 108.248 139.937 93.1403 135.983C78.0323 132.03 65.2301 125.68 56.7343 118.739ZM92.3808 138.886C61.5267 130.811 39.5089 112.824 43.2026 98.7094C46.8963 84.5953 74.9028 79.6994 105.757 87.774C136.611 95.8486 158.629 113.836 154.935 127.95C151.241 142.064 123.235 146.96 92.3808 138.886Z" fill="#979797"/>
<path fill-rule="evenodd" clip-rule="evenodd" d="M45.1673 124.049L40.2305 104.926L43.1352 104.177L48.0721 123.299L45.1673 124.049Z" fill="url(#paint1_linear)"/>
<path fill-rule="evenodd" clip-rule="evenodd" d="M43.4691 106.19C43.4241 106.041 43.3812 105.893 43.3406 105.746C43.2656 105.473 43.1983 105.2 43.1386 104.929L42.997 104.389C42.9948 104.38 43.0025 104.373 43.0109 104.375C43.019 104.377 43.0266 104.37 43.0251 104.362C43.0236 104.354 43.0222 104.345 43.0207 104.337C42.9732 104.072 42.9333 103.807 42.9009 103.543C42.8931 103.479 42.8857 103.416 42.8788 103.352C42.8065 102.689 42.7824 102.031 42.8078 101.378C42.8079 101.378 42.8079 101.378 42.8079 101.377C42.8432 100.475 42.9734 99.5849 43.2025 98.7095C46.8962 84.5954 74.9027 79.6995 105.757 87.7741C136.611 95.8487 158.629 113.836 154.935 127.95C154.706 128.826 154.383 129.666 153.972 130.469C153.972 130.47 153.972 130.47 153.972 130.47C153.528 131.338 152.981 132.163 152.337 132.945C152.332 132.951 152.326 132.958 152.321 132.964C152.319 132.967 152.318 132.969 152.318 132.972C152.318 132.977 152.322 132.982 152.327 132.983C152.332 132.984 152.335 132.989 152.336 132.993C152.336 132.996 152.335 133 152.333 133.003L151.725 133.644C151.655 133.72 151.584 133.795 151.511 133.87L150.275 135.175L150.273 135.177L138.793 147.299C131.986 156.33 111.197 159.051 88.6472 153.149C66.3446 147.312 49.6757 134.967 47.8505 123.854C47.7571 123.285 47.3667 122.8 46.8135 122.639L10.1271 111.91C5.98342 110.698 3.4722 106.499 4.36483 102.275L4.82393 100.103C5.21371 98.2581 7.06553 97.1133 8.88976 97.589L43.1386 106.521C43.3391 106.573 43.5217 106.39 43.4691 106.19ZM39.8119 102.553C39.7482 101.009 39.9029 99.4681 40.3002 97.95C42.6255 89.0648 52.2303 83.9845 63.7779 81.9658C75.6114 79.8971 90.7702 80.751 106.516 84.8718C122.262 88.9926 135.896 95.6738 145.199 103.274C154.277 110.691 160.162 119.825 157.837 128.71C157.28 130.839 156.285 132.774 154.936 134.499C154.821 134.697 154.679 134.887 154.511 135.065L153.923 135.686C153.92 135.689 153.916 135.693 153.913 135.697C153.836 135.779 153.759 135.861 153.68 135.943C153.677 135.946 153.673 135.95 153.67 135.953L141.082 149.246C136.911 154.652 129.056 157.706 119.984 158.802C110.684 159.926 99.4667 159.082 87.8877 156.051C76.4351 153.054 66.3397 148.366 58.8095 142.91C51.73 137.78 46.4882 131.648 45.0667 125.253L9.28503 114.789C3.63618 113.137 0.212785 107.413 1.42965 101.655L1.88875 99.4824C2.63251 95.9629 6.16596 93.7784 9.64679 94.6861L39.8119 102.553Z" fill="url(#paint2_linear)"/>
<circle cx="57" cy="29" r="29" fill="#F0B90B"/>
<path d="M46.1848 29L41.7478 33.4678L37.28 29L41.7478 24.5322L46.1848 29ZM57 18.1848L64.6415 25.8263L69.1093 21.3585L61.4678 13.7478L57 9.28003L52.5322 13.7478L44.9215 21.3585L49.3893 25.8263L57 18.1848ZM72.2522 24.5322L67.8152 29L72.283 33.4678L76.72 29L72.2522 24.5322ZM57 39.8152L49.3585 32.1737L44.9215 36.6415L52.563 44.283L57 48.72L61.4678 44.2522L69.1093 36.6107L64.6415 32.1737L57 39.8152ZM57 33.4678L61.4678 29L57 24.5322L52.5322 29L57 33.4678Z" fill="#FFFDFA"/>
<g style="mix-blend-mode:multiply" opacity="0.1">
<path fill-rule="evenodd" clip-rule="evenodd" d="M57 55C71.3594 55 83 43.3594 83 29C83 14.6406 71.3594 3 57 3C42.6406 3 31 14.6406 31 29C31 43.3594 42.6406 55 57 55ZM57 58C73.0163 58 86 45.0163 86 29C86 12.9837 73.0163 0 57 0C40.9837 0 28 12.9837 28 29C28 45.0163 40.9837 58 57 58Z" fill="#191326"/>
</g>
<circle cx="106.5" cy="72.5" r="43.5" fill="#F6B817"/>
<path d="M132.394 52.2778L132.208 51.288L131.223 51.0826C131.156 51.0704 124.641 49.7036 118.843 46.4695C110.582 41.8452 107.798 38.9268 107.774 38.9003L106.67 37.7L105.566 38.8941C105.537 38.9248 102.748 41.8493 94.4928 46.4685C88.6981 49.7006 82.1777 51.0704 82.1102 51.0826L81.1248 51.288L80.9408 52.2778C79.7899 58.4548 79.7735 64.6778 80.8938 70.7863L81.3947 73.2186L81.5337 73.7814C83.1109 80.1892 85.8963 86.1753 89.8215 91.5759C94.0778 97.4373 99.4882 102.346 105.898 106.172L106.666 106.631L107.437 106.172C113.847 102.346 119.255 97.4373 123.513 91.5759C127.437 86.1753 130.223 80.1913 131.8 73.7814L132.44 70.7863C133.56 64.6778 133.546 58.4569 132.394 52.2778Z" fill="#17191D"/>
<path d="M130.756 52.7154C130.756 52.7154 124.052 51.3214 118.035 47.9281C109.383 43.0413 106.669 40.0423 106.669 40.0423C106.669 40.0423 103.952 43.0413 95.3024 47.9281C89.283 51.3214 82.5803 52.7154 82.5803 52.7154C81.3438 59.411 81.489 66.1148 82.888 72.5L130.446 72.5C131.846 66.1148 131.99 59.411 130.756 52.7154Z" fill="#F6B817"/>
<path d="M106.67 104.958C119.339 97.4255 127.679 85.6381 130.592 72.5H82.7422C85.6595 85.6381 93.9955 97.4255 106.67 104.958Z" fill="#971A2E"/>
<path d="M101.056 93.3091V92.5685C101.056 92.4331 101.056 92.3668 100.966 92.3668C100.854 92.3668 100.405 92.5836 100.275 92.6347C100.245 92.6468 100.214 92.6589 100.191 92.6589C100.172 92.6589 100.142 92.6288 100.142 92.5936C100.142 92.5605 100.172 92.5334 100.201 92.5173C100.227 92.5033 101.375 91.7938 101.584 91.6473C101.637 91.6142 101.691 91.5731 101.738 91.5731C101.792 91.5731 101.81 91.6373 101.81 91.6925C101.81 91.7377 101.773 92.2956 101.773 93.1606V94.2051C101.773 94.748 101.773 95.2277 101.798 95.4786C101.815 95.6592 101.846 95.7415 102.036 95.7826C102.127 95.7976 102.383 95.8157 102.431 95.8157C102.455 95.8157 102.485 95.8317 102.485 95.8729C102.485 95.912 102.455 95.9231 102.389 95.9231C101.935 95.9231 101.554 95.906 101.391 95.906C101.256 95.906 100.753 95.9231 100.368 95.9231C100.304 95.9231 100.269 95.912 100.269 95.8729C100.269 95.8317 100.291 95.8157 100.317 95.8157C100.382 95.8157 100.687 95.7977 100.795 95.7746C100.986 95.7354 101.016 95.6592 101.034 95.4786C101.056 95.2277 101.069 94.748 101.063 94.2051L101.056 93.3091Z" fill="#110F0D"/>
<path d="M101.056 93.3091V92.5685C101.056 92.4331 101.056 92.3668 100.966 92.3668C100.854 92.3668 100.405 92.5836 100.275 92.6348C100.245 92.6468 100.214 92.6588 100.191 92.6588C100.172 92.6588 100.142 92.6287 100.142 92.5936C100.142 92.5605 100.172 92.5334 100.201 92.5174C100.227 92.5033 101.375 91.7939 101.584 91.6474C101.637 91.6142 101.691 91.5731 101.738 91.5731C101.792 91.5731 101.81 91.6373 101.81 91.6925C101.81 91.7377 101.773 92.2956 101.773 93.1606V94.2052C101.773 94.748 101.773 95.2277 101.798 95.4786C101.815 95.6592 101.846 95.7415 102.036 95.7826C102.127 95.7977 102.383 95.8157 102.431 95.8157C102.455 95.8157 102.485 95.8318 102.485 95.8729C102.485 95.9121 102.455 95.9231 102.389 95.9231C101.935 95.9231 101.554 95.906 101.391 95.906C101.256 95.906 100.753 95.9231 100.368 95.9231C100.304 95.9231 100.269 95.9121 100.269 95.8729C100.269 95.8318 100.291 95.8157 100.317 95.8157C100.382 95.8157 100.687 95.7977 100.795 95.7746C100.986 95.7354 101.016 95.6592 101.034 95.4786C101.056 95.2277 101.069 94.748 101.063 94.2052L101.056 93.3091Z" stroke="#100F0D" stroke-width="0.403419" stroke-miterlimit="10"/>
<path d="M106.165 93.07C106.165 94.611 104.712 95.5809 103.978 95.9006C103.95 95.9153 103.92 95.9231 103.873 95.9231C103.847 95.9231 103.818 95.8947 103.818 95.8674C103.818 95.8273 103.859 95.795 103.889 95.7745C104.505 95.4264 105.43 94.5229 105.43 93.2245C105.43 92.2506 104.986 91.8214 104.528 91.8214C104.103 91.8214 103.818 92.1744 103.818 92.6408C103.818 93.4826 104.405 93.6811 104.607 93.6811C104.814 93.6811 104.933 93.6489 105.01 93.6147C105.074 93.5834 105.106 93.557 105.128 93.557C105.152 93.557 105.175 93.5785 105.175 93.6049C105.175 93.6215 105.157 93.6567 105.145 93.6655C104.974 93.8356 104.666 93.9178 104.363 93.9178C103.509 93.9178 103.154 93.3184 103.154 92.8559C103.154 92.1128 103.758 91.5731 104.672 91.5731C105.638 91.5731 106.165 92.235 106.165 93.07Z" fill="#110F0D"/>
<path d="M106.165 93.07C106.165 94.611 104.712 95.5809 103.978 95.9006C103.95 95.9153 103.92 95.9231 103.873 95.9231C103.847 95.9231 103.818 95.8947 103.818 95.8674C103.818 95.8273 103.859 95.795 103.889 95.7745C104.505 95.4264 105.43 94.523 105.43 93.2245C105.43 92.2507 104.986 91.8214 104.528 91.8214C104.103 91.8214 103.818 92.1744 103.818 92.6408C103.818 93.4826 104.405 93.6811 104.607 93.6811C104.814 93.6811 104.933 93.6489 105.01 93.6146C105.074 93.5833 105.106 93.5569 105.128 93.5569C105.152 93.5569 105.175 93.5785 105.175 93.6049C105.175 93.6215 105.157 93.6567 105.145 93.6655C104.974 93.8356 104.666 93.9177 104.363 93.9177C103.509 93.9177 103.154 93.3184 103.154 92.8559C103.154 92.1128 103.758 91.5731 104.672 91.5731C105.638 91.5731 106.165 92.235 106.165 93.07Z" stroke="#100F0D" stroke-width="0.403419" stroke-miterlimit="10"/>
<path d="M106.58 95.9231C106.539 95.9231 106.5 95.8898 106.5 95.8445C106.5 95.7992 106.556 95.7478 106.614 95.6964C107.422 95.0003 108.571 94.1128 108.571 92.917C108.571 92.0214 108.068 91.8401 107.779 91.8401C107.532 91.8401 107.341 91.8854 107.167 92.0446C107.031 92.1765 106.925 92.4405 106.925 92.5876C106.925 92.645 106.908 92.6984 106.851 92.6984C106.821 92.6984 106.804 92.6571 106.798 92.5876C106.793 92.5372 106.764 92.0667 106.764 91.9035C106.764 91.8521 106.77 91.829 106.835 91.7887C107.058 91.6749 107.37 91.5731 107.878 91.5731C108.894 91.5731 109.326 92.1181 109.326 92.781C109.326 93.8811 108.087 94.8411 107.341 95.4254C107.312 95.4446 107.323 95.4627 107.352 95.4627H107.746C107.844 95.4627 108.525 95.4586 108.739 95.4314C109.137 95.3841 109.326 95.1927 109.396 94.9257C109.413 94.8582 109.43 94.8351 109.466 94.8351C109.504 94.8351 109.512 94.8865 109.512 94.9429C109.512 95.0335 109.402 95.5614 109.345 95.7518C109.298 95.9049 109.205 95.9231 108.843 95.9231H106.58Z" fill="#110F0D"/>
<path d="M106.58 95.9231C106.539 95.9231 106.5 95.8899 106.5 95.8445C106.5 95.7992 106.556 95.7478 106.614 95.6964C107.422 95.0003 108.571 94.1128 108.571 92.917C108.571 92.0214 108.068 91.8401 107.779 91.8401C107.532 91.8401 107.341 91.8854 107.167 92.0446C107.031 92.1765 106.925 92.4405 106.925 92.5876C106.925 92.645 106.908 92.6984 106.851 92.6984C106.821 92.6984 106.804 92.6571 106.798 92.5876C106.793 92.5372 106.764 92.0667 106.764 91.9035C106.764 91.8521 106.77 91.829 106.835 91.7887C107.058 91.6748 107.37 91.5731 107.878 91.5731C108.894 91.5731 109.326 92.1181 109.326 92.781C109.326 93.8811 108.087 94.8411 107.341 95.4254C107.312 95.4446 107.323 95.4627 107.352 95.4627H107.746C107.844 95.4627 108.525 95.4587 108.739 95.4315C109.137 95.3841 109.326 95.1927 109.396 94.9258C109.413 94.8583 109.43 94.8351 109.466 94.8351C109.504 94.8351 109.512 94.8865 109.512 94.9429C109.512 95.0336 109.402 95.5614 109.345 95.7518C109.298 95.905 109.205 95.9231 108.843 95.9231H106.58Z" stroke="#100F0D" stroke-width="0.403419" stroke-miterlimit="10"/>
<path d="M113.05 91.6278C113.162 91.6278 113.192 91.6457 113.192 91.6726C113.192 91.7074 113.169 91.7522 113.15 91.775C112.655 92.4345 111.722 94.6588 111.632 95.374C111.623 95.4705 111.632 95.5073 111.632 95.5839C111.632 95.6943 111.15 95.9231 110.88 95.9231C110.812 95.9231 110.796 95.9061 110.796 95.8574C110.796 95.7987 110.808 95.7152 110.838 95.6266C111.005 95.0885 111.771 93.4382 112.594 92.1451H111.047C110.88 92.1451 110.63 92.156 110.486 92.2456C110.377 92.3132 110.301 92.4923 110.288 92.5798C110.283 92.6246 110.264 92.6554 110.229 92.6554C110.187 92.6554 110.181 92.6245 110.181 92.5678C110.181 92.3639 110.271 91.7074 110.271 91.6507C110.271 91.597 110.294 91.5731 110.33 91.5731C110.365 91.5731 110.503 91.6278 111.137 91.6278H113.05Z" fill="#110F0D"/>
<path d="M113.05 91.6278C113.162 91.6278 113.192 91.6457 113.192 91.6726C113.192 91.7074 113.169 91.7522 113.15 91.775C112.655 92.4345 111.722 94.6588 111.632 95.374C111.623 95.4705 111.632 95.5073 111.632 95.5839C111.632 95.6943 111.15 95.9231 110.88 95.9231C110.812 95.9231 110.796 95.9062 110.796 95.8574C110.796 95.7988 110.808 95.7152 110.838 95.6267C111.005 95.0885 111.771 93.4382 112.594 92.1451H111.047C110.88 92.1451 110.63 92.156 110.486 92.2455C110.377 92.3132 110.301 92.4922 110.288 92.5798C110.283 92.6245 110.264 92.6554 110.229 92.6554C110.187 92.6554 110.181 92.6245 110.181 92.5678C110.181 92.3639 110.271 91.7074 110.271 91.6507C110.271 91.597 110.294 91.5731 110.33 91.5731C110.365 91.5731 110.503 91.6278 111.137 91.6278H113.05Z" stroke="#100F0D" stroke-width="0.403419" stroke-miterlimit="10"/>
<path d="M101.056 92.9739V92.2351C101.056 92.0996 101.056 92.0314 100.966 92.0314C100.854 92.0314 100.407 92.2502 100.275 92.3013C100.245 92.3134 100.214 92.3255 100.191 92.3255C100.174 92.3255 100.142 92.2974 100.142 92.2623C100.142 92.2291 100.174 92.2 100.201 92.184C100.227 92.1699 101.375 91.4603 101.584 91.3138C101.635 91.2786 101.691 91.2385 101.738 91.2385C101.792 91.2385 101.81 91.3017 101.81 91.3589C101.81 91.4021 101.773 91.9621 101.773 92.8273V93.8732C101.773 94.4152 101.773 94.8969 101.798 95.1418C101.815 95.3265 101.846 95.4088 102.036 95.45C102.127 95.465 102.383 95.4811 102.431 95.4811C102.455 95.4811 102.485 95.4991 102.485 95.5423C102.485 95.5794 102.455 95.5885 102.389 95.5885C101.935 95.5885 101.554 95.5734 101.391 95.5734C101.256 95.5734 100.753 95.5885 100.371 95.5885C100.304 95.5885 100.269 95.5794 100.269 95.5423C100.269 95.4991 100.291 95.4811 100.317 95.4811C100.382 95.4811 100.687 95.465 100.795 95.444C100.986 95.4028 101.016 95.3265 101.034 95.1418C101.056 94.8969 101.069 94.4152 101.063 93.8732L101.056 92.9739Z" fill="#C6C1C0"/>
<path fill-rule="evenodd" clip-rule="evenodd" d="M100.334 95.5732C100.367 95.5869 100.406 95.5885 100.437 95.5885C100.616 95.5885 100.822 95.5848 100.999 95.5812C101.045 95.5803 101.088 95.5793 101.129 95.5785C101.247 95.5759 101.339 95.574 101.385 95.574C101.441 95.574 101.525 95.576 101.631 95.5785C101.667 95.5794 101.705 95.5803 101.746 95.5812C101.907 95.5848 102.102 95.5885 102.314 95.5885C102.344 95.5885 102.383 95.5871 102.416 95.5721C102.435 95.5633 102.454 95.549 102.468 95.5269C102.481 95.5054 102.485 95.483 102.485 95.4642C102.485 95.3796 102.421 95.3255 102.353 95.3255C102.312 95.3255 102.082 95.3105 102.001 95.2971C101.925 95.2797 101.898 95.2577 101.883 95.2355C101.864 95.2071 101.854 95.1618 101.846 95.0715L101.846 95.071C101.823 94.8398 101.823 94.3808 101.823 93.8563V92.8488C101.823 92.4331 101.832 92.0908 101.84 91.8473C101.845 91.6982 101.85 91.5834 101.854 91.5126C101.856 91.4695 101.857 91.4427 101.857 91.4343C101.857 91.4013 101.853 91.3594 101.835 91.3226C101.817 91.2834 101.777 91.2385 101.708 91.2385C101.663 91.2385 101.624 91.2573 101.596 91.273C101.571 91.2875 101.545 91.3057 101.524 91.3206C101.521 91.3226 101.519 91.3245 101.516 91.3263L101.515 91.3269C101.42 91.3958 101.108 91.6005 100.812 91.7914C100.666 91.8864 100.524 91.9775 100.418 92.0456C100.364 92.0797 100.32 92.108 100.288 92.1282C100.272 92.1383 100.26 92.1464 100.251 92.1521C100.245 92.1558 100.241 92.1581 100.239 92.1592C100.238 92.16 100.238 92.1603 100.238 92.1601L100.236 92.161L100.235 92.1619C100.217 92.1731 100.196 92.1895 100.178 92.211C100.161 92.232 100.142 92.2641 100.142 92.3045C100.142 92.3441 100.159 92.3766 100.178 92.3983C100.187 92.4094 100.199 92.4196 100.212 92.4277C100.222 92.4345 100.243 92.4451 100.269 92.4451C100.294 92.4451 100.316 92.4391 100.332 92.4338C100.349 92.4283 100.366 92.4213 100.38 92.4157C100.416 92.4013 100.477 92.3731 100.546 92.3412C100.598 92.3169 100.656 92.2905 100.71 92.2661C100.776 92.2369 100.84 92.2099 100.893 92.1903C100.919 92.1805 100.942 92.173 100.96 92.1681C100.969 92.1656 100.977 92.1639 100.982 92.1629C100.984 92.1626 100.986 92.1623 100.987 92.1622C100.989 92.1696 100.99 92.1806 100.991 92.1967C100.992 92.2188 100.992 92.2451 100.992 92.2784V92.9905L100.998 93.8568L100.998 93.8572C101.004 94.3784 100.992 94.8393 100.972 95.0713C100.963 95.1619 100.952 95.205 100.934 95.2316C100.92 95.2525 100.893 95.2737 100.814 95.2915C100.769 95.3004 100.679 95.309 100.588 95.3154C100.498 95.3218 100.414 95.3255 100.387 95.3255C100.353 95.3255 100.318 95.3384 100.292 95.368C100.268 95.3962 100.26 95.4313 100.26 95.4642C100.26 95.4853 100.265 95.509 100.28 95.5308C100.295 95.5524 100.315 95.5654 100.334 95.5732ZM100.933 95.423C100.954 95.4225 100.975 95.4221 100.996 95.4217C101.04 95.4208 101.083 95.4199 101.123 95.419C101.242 95.4165 101.337 95.4144 101.385 95.4144C101.443 95.4144 101.53 95.4165 101.637 95.4191C101.672 95.4199 101.71 95.4208 101.75 95.4217C101.789 95.4226 101.831 95.4235 101.874 95.4243C101.82 95.4015 101.777 95.3692 101.745 95.322C101.702 95.2564 101.69 95.1732 101.682 95.0856C101.659 94.8459 101.659 94.3799 101.659 93.8631V92.8488C101.659 92.431 101.667 92.0869 101.676 91.8419C101.68 91.7194 101.684 91.6217 101.687 91.5521C101.688 91.533 101.689 91.5164 101.69 91.502C101.69 91.4896 101.691 91.4788 101.691 91.4693C101.692 91.4591 101.692 91.451 101.692 91.4449L101.693 91.4374L101.693 91.4352L101.693 91.4345L101.693 91.4343C101.693 91.4241 101.692 91.4143 101.69 91.4059C101.69 91.4055 101.69 91.4052 101.69 91.4048C101.687 91.4064 101.683 91.4083 101.679 91.4106C101.662 91.4207 101.643 91.4338 101.621 91.4494C101.619 91.4512 101.616 91.453 101.613 91.4549C101.513 91.5274 101.196 91.7349 100.904 91.9241C100.75 92.0238 100.6 92.12 100.491 92.1899C100.538 92.1683 100.589 92.1446 100.642 92.1211C100.708 92.0915 100.776 92.0627 100.834 92.0412C100.863 92.0305 100.891 92.0212 100.916 92.0144C100.939 92.0081 100.966 92.0023 100.991 92.0023C101.022 92.0023 101.057 92.0085 101.087 92.0296C101.118 92.051 101.134 92.0806 101.142 92.1076C101.151 92.1336 101.154 92.162 101.155 92.1885C101.157 92.2151 101.157 92.2454 101.157 92.2769V92.99L101.163 93.8554C101.163 93.8555 101.163 93.8555 101.163 93.8556C101.169 94.3784 101.157 94.8455 101.135 95.0853L101.135 95.0858C101.127 95.173 101.115 95.2555 101.071 95.32C101.037 95.3688 100.991 95.4007 100.933 95.423ZM101.685 91.3871C101.685 91.387 101.685 91.3871 101.685 91.3871V91.3871Z" fill="#C6C1C0"/>
<path d="M106.165 92.8506C106.165 94.51 104.712 95.5546 103.978 95.8989C103.947 95.9147 103.92 95.9231 103.871 95.9231C103.847 95.9231 103.818 95.8904 103.818 95.8609C103.818 95.8199 103.859 95.7852 103.889 95.761C104.505 95.3861 105.43 94.4153 105.43 93.0169C105.43 91.9682 104.986 91.5038 104.53 91.5038C104.103 91.5038 103.818 91.884 103.818 92.3883C103.818 93.2949 104.405 93.5108 104.607 93.5108C104.814 93.5108 104.933 93.4739 105.01 93.4392C105.074 93.4013 105.106 93.3729 105.128 93.3729C105.152 93.3729 105.175 93.3981 105.175 93.4265C105.175 93.4423 105.157 93.4781 105.145 93.4918C104.974 93.675 104.666 93.7613 104.363 93.7613C103.509 93.7613 103.154 93.118 103.154 92.62C103.154 91.8197 103.758 91.2385 104.672 91.2385C105.638 91.2385 106.165 91.9503 106.165 92.8506Z" fill="#C6C1C0"/>
<path fill-rule="evenodd" clip-rule="evenodd" d="M103.818 95.8749C103.835 95.8943 103.868 95.9231 103.914 95.9231C103.973 95.9231 104.012 95.912 104.053 95.8911C104.408 95.7209 104.933 95.3799 105.371 94.8772C105.811 94.3733 106.165 93.7026 106.165 92.8767C106.165 92.4271 106.036 92.0177 105.782 91.7193C105.526 91.4193 105.15 91.2385 104.671 91.2385C104.221 91.2385 103.842 91.3847 103.574 91.6377C103.305 91.8911 103.154 92.2468 103.154 92.6543C103.154 92.9126 103.244 93.2078 103.443 93.4396C103.644 93.6737 103.953 93.8387 104.38 93.8387C104.677 93.8387 104.995 93.7531 105.179 93.5519L105.181 93.5505L105.182 93.5491C105.194 93.5345 105.205 93.5151 105.212 93.4998C105.216 93.4914 105.22 93.4819 105.223 93.4721C105.225 93.4638 105.23 93.4489 105.23 93.432C105.23 93.3959 105.215 93.3637 105.195 93.3405C105.176 93.3182 105.143 93.2965 105.102 93.2965C105.08 93.2965 105.061 93.3036 105.05 93.3091C105.038 93.3147 105.026 93.3218 105.017 93.3279C105.009 93.3328 105.002 93.3376 104.995 93.3424C104.982 93.3508 104.969 93.3595 104.952 93.37C104.891 93.3977 104.791 93.4295 104.61 93.4295C104.537 93.4295 104.371 93.3866 104.223 93.2402C104.079 93.0967 103.947 92.8487 103.947 92.431C103.947 91.9704 104.197 91.6619 104.537 91.6619C104.721 91.6619 104.91 91.7566 105.055 91.9751C105.202 92.1953 105.305 92.542 105.305 93.0371C105.305 94.3477 104.454 95.2603 103.888 95.6116L103.883 95.6146L103.879 95.6183C103.865 95.6296 103.842 95.6485 103.823 95.6717C103.805 95.6944 103.781 95.7314 103.781 95.7794C103.781 95.8196 103.8 95.8533 103.818 95.8749ZM104.049 95.7064C104.644 95.3044 105.471 94.367 105.471 93.0371C105.471 92.5209 105.364 92.1381 105.193 91.8816C105.021 91.6235 104.784 91.4943 104.537 91.4943C104.07 91.4943 103.781 91.9188 103.781 92.431C103.781 92.8874 103.927 93.1805 104.107 93.3597C104.285 93.5358 104.492 93.597 104.61 93.597C104.716 93.597 104.8 93.5871 104.868 93.5723C104.731 93.6373 104.558 93.6711 104.38 93.6711C103.999 93.6711 103.737 93.526 103.568 93.3298C103.398 93.1314 103.32 92.8763 103.32 92.6543C103.32 92.2903 103.454 91.9799 103.687 91.7601C103.92 91.5401 104.257 91.406 104.671 91.406C105.105 91.406 105.434 91.5683 105.656 91.8286C105.879 92.0904 105.999 92.4582 105.999 92.8767C105.999 93.6509 105.668 94.2839 105.247 94.7665C104.853 95.2183 104.385 95.5347 104.049 95.7064ZM103.946 95.7857C103.946 95.7857 103.946 95.7858 103.946 95.7857V95.7857Z" fill="#C6C1C0"/>
<path d="M106.58 95.5885C106.539 95.5885 106.5 95.5572 106.5 95.5079C106.5 95.4645 106.556 95.4111 106.614 95.3618C107.422 94.6636 108.571 93.7802 108.571 92.5823C108.571 91.6868 108.068 91.5054 107.779 91.5054C107.532 91.5054 107.341 91.5508 107.167 91.7079C107.031 91.8399 106.925 92.1058 106.925 92.2529C106.925 92.3123 106.908 92.3617 106.851 92.3617C106.821 92.3617 106.804 92.3204 106.798 92.2529C106.792 92.2025 106.764 91.7321 106.764 91.5669C106.764 91.5155 106.77 91.4923 106.835 91.454C107.058 91.3402 107.37 91.2385 107.878 91.2385C108.894 91.2385 109.326 91.7835 109.326 92.4484C109.326 93.5444 108.087 94.5045 107.341 95.0908C107.312 95.1099 107.323 95.1301 107.352 95.1301H107.746C107.844 95.1301 108.525 95.122 108.739 95.0948C109.137 95.0495 109.326 94.8561 109.396 94.5911C109.413 94.5216 109.432 94.5004 109.466 94.5004C109.506 94.5004 109.512 94.5518 109.512 94.6062C109.512 94.6989 109.402 95.2268 109.345 95.4172C109.298 95.5703 109.205 95.5885 108.843 95.5885H106.58Z" fill="#C6C1C0"/>
<path fill-rule="evenodd" clip-rule="evenodd" d="M106.5 95.4308C106.5 95.5252 106.585 95.5885 106.674 95.5885H109.053C109.239 95.5885 109.375 95.5849 109.469 95.5573C109.521 95.5424 109.564 95.5195 109.599 95.4843C109.633 95.4499 109.653 95.4091 109.667 95.3662L109.667 95.3658C109.698 95.2707 109.743 95.0949 109.779 94.9334C109.797 94.8522 109.814 94.7736 109.826 94.7094C109.837 94.648 109.846 94.5926 109.846 94.5623C109.846 94.5366 109.845 94.4997 109.834 94.4678C109.828 94.451 109.817 94.4291 109.796 94.4108C109.772 94.3906 109.741 94.3804 109.708 94.3804C109.69 94.3804 109.668 94.3831 109.647 94.392C109.625 94.4011 109.607 94.4146 109.594 94.43C109.57 94.4575 109.557 94.4935 109.547 94.5283C109.514 94.643 109.455 94.7375 109.361 94.8086C109.266 94.88 109.13 94.933 108.934 94.9534L108.932 94.9536L108.932 94.9536C108.714 94.979 108.005 94.9869 107.9 94.9869H107.675C108.046 94.7193 108.501 94.3808 108.879 93.9932C109.308 93.5544 109.651 93.0408 109.651 92.4839C109.651 92.1468 109.531 91.8328 109.263 91.6033C108.995 91.3739 108.59 91.2385 108.039 91.2385C107.491 91.2385 107.148 91.3394 106.9 91.4552L106.897 91.4565L106.895 91.4579C106.857 91.4783 106.822 91.5021 106.8 91.5373C106.778 91.5731 106.778 91.6094 106.778 91.6349C106.778 91.795 106.807 92.2454 106.814 92.3038C106.818 92.339 106.825 92.3753 106.84 92.4053C106.855 92.4345 106.89 92.4805 106.959 92.4805C106.988 92.4805 107.016 92.4747 107.042 92.4608C107.068 92.4471 107.086 92.428 107.099 92.4083C107.122 92.3714 107.126 92.3288 107.126 92.2956C107.126 92.2397 107.149 92.1514 107.193 92.0586C107.236 91.9671 107.294 91.882 107.353 91.8283C107.514 91.6963 107.689 91.6557 107.935 91.6557C108.069 91.6557 108.252 91.6944 108.402 91.8275C108.55 91.9598 108.678 92.1961 108.678 92.6129C108.678 93.1636 108.39 93.6471 107.988 94.0811C107.647 94.4496 107.23 94.7755 106.851 95.0726C106.782 95.126 106.715 95.1784 106.65 95.23C106.619 95.2541 106.585 95.2823 106.558 95.3116C106.533 95.3376 106.5 95.3799 106.5 95.4308ZM106.684 95.4284H109.053C109.248 95.4284 109.352 95.4232 109.414 95.4052C109.441 95.3973 109.455 95.3881 109.464 95.3787C109.474 95.3683 109.485 95.3516 109.495 95.3209C109.524 95.2326 109.567 95.0626 109.603 94.9018C109.614 94.8541 109.624 94.8075 109.633 94.7645C109.592 94.8261 109.541 94.8822 109.477 94.9308C109.349 95.0272 109.177 95.0892 108.955 95.1124C108.722 95.1394 108.001 95.147 107.9 95.147H107.486C107.459 95.147 107.396 95.1385 107.373 95.0829C107.348 95.0236 107.395 94.9816 107.42 94.9654C107.428 94.959 107.437 94.9525 107.446 94.946C107.836 94.6657 108.336 94.3052 108.744 93.888C109.163 93.4593 109.472 92.9827 109.472 92.4839C109.472 92.1806 109.364 91.9119 109.139 91.7188C108.913 91.5256 108.557 91.3986 108.039 91.3986C107.521 91.3986 107.208 91.4929 106.986 91.5958C106.967 91.6061 106.961 91.6119 106.958 91.614C106.958 91.6162 106.957 91.6221 106.957 91.6349C106.957 91.7359 106.969 91.9587 106.98 92.1163C106.993 92.0765 107.009 92.0361 107.027 91.9968C107.076 91.8937 107.145 91.7876 107.228 91.7141L107.229 91.713L107.23 91.712C107.435 91.5421 107.662 91.4956 107.935 91.4956C108.104 91.4956 108.338 91.5443 108.529 91.7142C108.72 91.8849 108.857 92.1671 108.857 92.6129C108.857 93.216 108.541 93.7348 108.126 94.1829C107.775 94.5624 107.346 94.898 106.967 95.1948C106.899 95.2477 106.833 95.2994 106.769 95.3499L106.769 95.3499L106.769 95.3503C106.739 95.3738 106.713 95.395 106.696 95.4137C106.691 95.4196 106.687 95.4245 106.684 95.4284ZM107.004 92.3404C107.004 92.3404 107.004 92.3403 107.004 92.3401L107.004 92.3404ZM109.662 94.5153C109.662 94.5153 109.662 94.5154 109.663 94.5156C109.662 94.5154 109.662 94.5153 109.662 94.5153Z" fill="#C6C1C0"/>
<path d="M113.05 91.2952C113.162 91.2952 113.192 91.315 113.192 91.3399C113.192 91.3747 113.169 91.4194 113.15 91.4403C112.655 92.1025 111.722 94.3228 111.632 95.0416C111.623 95.1361 111.632 95.1748 111.632 95.2494C111.632 95.3578 111.15 95.5885 110.88 95.5885C110.812 95.5885 110.796 95.5716 110.796 95.5209C110.796 95.4642 110.808 95.3827 110.838 95.2922C111.005 94.7543 111.771 93.1028 112.594 91.8102H111.047C110.88 91.8102 110.63 91.8211 110.486 91.9106C110.377 91.9782 110.301 92.1592 110.288 92.2487C110.283 92.2934 110.264 92.3203 110.229 92.3203C110.187 92.3203 110.181 92.2934 110.181 92.2368C110.181 92.027 110.269 91.3747 110.269 91.318C110.269 91.2624 110.294 91.2385 110.33 91.2385C110.365 91.2385 110.503 91.2952 111.137 91.2952H113.05Z" fill="#C6C1C0"/>
<path fill-rule="evenodd" clip-rule="evenodd" d="M110.805 95.8855C110.842 95.9202 110.892 95.9231 110.924 95.9231C111.071 95.9231 111.263 95.8565 111.413 95.7804C111.489 95.7418 111.56 95.6982 111.612 95.6549C111.639 95.6334 111.663 95.6099 111.682 95.5851C111.699 95.5622 111.719 95.5278 111.719 95.4861C111.719 95.4517 111.718 95.4272 111.716 95.4052C111.715 95.3681 111.713 95.338 111.718 95.2794C111.76 94.9184 111.997 94.1662 112.287 93.4107C112.575 92.6569 112.909 91.9193 113.136 91.5838C113.15 91.5658 113.163 91.5426 113.172 91.5192C113.182 91.4951 113.192 91.4626 113.192 91.4289C113.192 91.4052 113.185 91.3799 113.168 91.3579C113.152 91.3373 113.131 91.3248 113.112 91.317C113.077 91.3023 113.03 91.2973 112.974 91.2973H111.167C110.871 91.2973 110.692 91.2827 110.585 91.2686C110.532 91.2616 110.496 91.2546 110.471 91.2494C110.466 91.2484 110.461 91.2473 110.456 91.2462C110.449 91.2448 110.443 91.2435 110.439 91.2426C110.432 91.2412 110.418 91.2385 110.405 91.2385C110.366 91.2385 110.326 91.254 110.298 91.2909C110.272 91.3248 110.264 91.3667 110.264 91.4062C110.264 91.4062 110.264 91.4069 110.264 91.4089C110.263 91.4111 110.263 91.414 110.263 91.4178C110.262 91.4253 110.262 91.4351 110.26 91.4471C110.258 91.4711 110.255 91.5029 110.251 91.5404C110.248 91.5678 110.245 91.5983 110.242 91.6309C110.236 91.6872 110.229 91.75 110.223 91.8145C110.202 92.0165 110.181 92.2453 110.181 92.3596C110.181 92.3862 110.181 92.4267 110.196 92.4605C110.206 92.4811 110.221 92.5013 110.245 92.5151C110.267 92.5281 110.291 92.5314 110.31 92.5314C110.354 92.5314 110.391 92.5111 110.416 92.4766C110.437 92.447 110.445 92.412 110.448 92.3825C110.453 92.347 110.471 92.2861 110.5 92.2255C110.53 92.1631 110.566 92.1146 110.599 92.092L110.599 92.0918C110.652 92.0559 110.73 92.0322 110.821 92.0184C110.911 92.0049 111.005 92.0021 111.082 92.0021H112.398C111.647 93.3259 110.961 94.9562 110.805 95.5062C110.775 95.6068 110.762 95.6996 110.762 95.7678C110.762 95.7965 110.764 95.8481 110.805 95.8855ZM110.929 95.7528C110.931 95.7037 110.941 95.634 110.965 95.5555L110.965 95.5541C111.121 95.0048 111.84 93.2976 112.616 91.9602L112.69 91.8318H111.082C111.002 91.8318 110.899 91.8346 110.797 91.85C110.697 91.8651 110.59 91.8935 110.506 91.9504C110.443 91.9931 110.395 92.0626 110.361 92.1287C110.368 92.0368 110.379 91.9329 110.389 91.8321C110.395 91.7678 110.402 91.7057 110.408 91.6496C110.411 91.6169 110.414 91.5862 110.417 91.5583C110.424 91.4949 110.429 91.4407 110.431 91.4148C110.433 91.4152 110.435 91.4157 110.437 91.4162C110.465 91.422 110.505 91.4298 110.564 91.4374C110.68 91.4527 110.866 91.4676 111.167 91.4676H112.974C112.988 91.4676 113.001 91.468 113.011 91.4687C113.008 91.4739 113.006 91.4777 113.004 91.4795L113.002 91.482L113.001 91.4846C112.76 91.8373 112.42 92.5938 112.131 93.3487C111.842 94.1029 111.596 94.8752 111.552 95.2606L111.552 95.2624C111.546 95.3326 111.548 95.3828 111.55 95.4276C111.551 95.4449 111.552 95.4613 111.552 95.4777C111.551 95.4788 111.55 95.4802 111.549 95.4819C111.541 95.4917 111.528 95.5055 111.508 95.5222C111.467 95.5554 111.408 95.5927 111.338 95.628C111.199 95.6987 111.038 95.7513 110.929 95.7528Z" fill="#C6C1C0"/>
<path d="M91.0886 82.2718C91.0886 82.3934 91.1099 82.4388 91.1839 82.4695C91.4048 82.5509 91.7241 82.5837 91.9907 82.5837C92.4134 82.5837 92.5502 82.5361 92.7418 82.3934C93.0591 82.1522 93.3682 81.6414 93.3682 80.7351C93.3682 79.1636 92.3728 78.7109 91.7444 78.7109C91.4809 78.7109 91.2893 78.7214 91.1839 78.7542C91.1099 78.7764 91.0886 78.8198 91.0886 78.9086V82.2718ZM89.8378 81.3982C89.8378 79.7166 89.8378 79.4068 89.8155 79.0535C89.7942 78.6781 89.7101 78.5004 89.3594 78.4211C89.2732 78.3989 89.0938 78.3883 88.9458 78.3883C88.8292 78.3883 88.7654 78.3661 88.7654 78.2889C88.7654 78.2127 88.8394 78.1884 88.9985 78.1884C89.5601 78.1884 90.229 78.2254 90.452 78.2254C90.8119 78.2254 91.6177 78.1884 91.9471 78.1884C92.6151 78.1884 93.3246 78.2561 93.8973 78.6654C94.1943 78.8759 94.617 79.4416 94.617 80.1809C94.617 80.9995 94.2886 81.7514 93.2202 82.6578C94.1619 83.8972 94.8947 84.8829 95.5191 85.5682C96.1141 86.2112 96.55 86.2894 96.7071 86.3201C96.8236 86.3434 96.9199 86.355 97.003 86.355C97.0902 86.355 97.1308 86.3889 97.1308 86.4418C97.1308 86.5306 97.0588 86.5538 96.9311 86.5538H95.9246C95.3296 86.5538 95.065 86.4999 94.7873 86.3434C94.3322 86.0885 93.9298 85.5682 93.3368 84.7179C92.9111 84.1077 92.4235 83.3557 92.2857 83.1908C92.233 83.1231 92.1681 83.1125 92.0951 83.1125L91.1727 83.0913C91.12 83.0913 91.0886 83.1125 91.0886 83.1781V83.3335C91.0886 84.3626 91.0886 85.2382 91.1403 85.7004C91.1727 86.0229 91.2366 86.2662 91.5538 86.3096C91.714 86.3328 91.9471 86.355 92.0738 86.355C92.159 86.355 92.2015 86.3889 92.2015 86.4418C92.2015 86.5211 92.1255 86.5538 91.9907 86.5538C91.3724 86.5538 90.5889 86.521 90.4308 86.521C90.229 86.521 89.5601 86.5538 89.1374 86.5538C88.9985 86.5538 88.9245 86.5211 88.9245 86.4418C88.9245 86.3889 88.9671 86.355 89.0938 86.355C89.2539 86.355 89.3806 86.3328 89.4769 86.3096C89.6878 86.2662 89.7425 86.0229 89.7841 85.7004C89.8378 85.2382 89.8378 84.3626 89.8378 83.3463V81.3982Z" fill="#110F0D"/>
<path d="M104.005 82.5747C104.005 80.1811 102.631 78.6986 100.887 78.6986C99.6585 78.6986 98.265 79.3801 98.265 82.039C98.265 84.2582 99.4895 86.0203 101.532 86.0203C102.281 86.0203 104.005 85.6591 104.005 82.5747ZM96.7961 82.3696C96.7961 80.5464 98.0003 78.1884 101.193 78.1884C103.845 78.1884 105.496 79.7372 105.496 82.1778C105.496 84.6234 103.793 86.5538 101.088 86.5538C98.0309 86.5538 96.7961 84.2582 96.7961 82.3696Z" fill="#110F0D"/>
<path d="M107.151 78.4692C107.182 78.2848 107.246 78.1884 107.332 78.1884C107.418 78.1884 107.481 78.2381 107.621 78.522L110.538 84.548L113.446 78.4454C113.532 78.2734 113.583 78.1884 113.681 78.1884C113.776 78.1884 113.841 78.2931 113.872 78.522L114.845 85.1551C114.943 85.8369 115.048 86.1508 115.369 86.2503C115.679 86.3477 115.893 86.3591 116.032 86.3591C116.128 86.3591 116.204 86.3694 116.204 86.4326C116.204 86.5207 116.074 86.5538 115.926 86.5538C115.657 86.5538 114.183 86.5311 113.756 86.4989C113.511 86.4782 113.446 86.444 113.446 86.3798C113.446 86.3249 113.487 86.2928 113.563 86.2607C113.628 86.2379 113.659 86.098 113.616 85.7923L112.975 81.0812H112.932L110.603 85.9146C110.357 86.4222 110.303 86.5207 110.207 86.5207C110.11 86.5207 110.004 86.3031 109.833 85.9788C109.576 85.4815 108.734 83.8237 108.603 83.5181C108.507 83.2912 107.865 82.0127 107.492 81.1993H107.449L106.894 85.4245C106.873 85.6203 106.862 85.7623 106.862 85.9343C106.862 86.1405 107.002 86.2379 107.182 86.2824C107.376 86.3249 107.524 86.3373 107.631 86.3373C107.717 86.3373 107.793 86.3591 107.793 86.4119C107.793 86.5093 107.695 86.5311 107.535 86.5311C107.087 86.5311 106.604 86.4989 106.413 86.4989C106.209 86.4989 105.697 86.5311 105.354 86.5311C105.247 86.5311 105.162 86.5093 105.162 86.4119C105.162 86.3591 105.225 86.3373 105.333 86.3373C105.419 86.3373 105.494 86.3373 105.654 86.3031C105.952 86.2378 106.038 85.8151 106.092 85.4483L107.151 78.4692Z" fill="#110F0D"/>
<path d="M120.859 83.2387C120.911 83.2387 120.922 83.2085 120.911 83.1742L119.959 80.5011C119.95 80.4564 119.939 80.4034 119.907 80.4034C119.874 80.4034 119.855 80.4564 119.845 80.5011L118.873 83.1638C118.86 83.2085 118.873 83.2387 118.912 83.2387H120.859ZM118.704 83.7841C118.648 83.7841 118.629 83.8028 118.607 83.8693L118.036 85.3591C117.932 85.6292 117.878 85.891 117.878 86.023C117.878 86.2172 117.972 86.3595 118.3 86.3595H118.458C118.585 86.3595 118.616 86.3814 118.616 86.4448C118.616 86.532 118.555 86.5538 118.439 86.5538C118.1 86.5538 117.647 86.5216 117.317 86.5216C117.201 86.5216 116.62 86.5538 116.07 86.5538C115.932 86.5538 115.869 86.532 115.869 86.4448C115.869 86.3814 115.912 86.3595 115.996 86.3595C116.091 86.3595 116.24 86.3471 116.325 86.3367C116.809 86.2723 117.009 85.9014 117.223 85.3591L119.874 78.6207C120.001 78.3059 120.065 78.1884 120.171 78.1884C120.266 78.1884 120.332 78.2851 120.436 78.5334C120.69 79.1318 122.381 83.4796 123.057 85.1315C123.459 86.1081 123.767 86.2598 123.988 86.3149C124.148 86.3471 124.304 86.3595 124.433 86.3595C124.516 86.3595 124.569 86.37 124.569 86.4448C124.569 86.532 124.474 86.5538 124.084 86.5538C123.703 86.5538 122.931 86.5538 122.086 86.532C121.894 86.5216 121.768 86.5216 121.768 86.4448C121.768 86.3814 121.809 86.3596 121.916 86.3471C121.989 86.3253 122.064 86.2276 122.012 86.0978L121.166 83.8599C121.142 83.8028 121.112 83.7841 121.059 83.7841H118.704Z" fill="#110F0D"/>
<path d="M91.0886 82.1084C91.0886 82.2272 91.1099 82.2668 91.1839 82.3003C91.4048 82.3724 91.7241 82.4059 91.9907 82.4059C92.4134 82.4059 92.5502 82.3643 92.7418 82.2272C93.0591 81.9917 93.3682 81.5013 93.3682 80.6312C93.3682 79.1245 92.3728 78.688 91.7444 78.688C91.4809 78.688 91.2893 78.7002 91.1839 78.7296C91.1099 78.7509 91.0886 78.7946 91.0886 78.8799V82.1084ZM89.8378 81.2698C89.8378 79.6556 89.8378 79.358 89.8155 79.0189C89.7942 78.6565 89.7101 78.488 89.3594 78.4119C89.2732 78.3926 89.0938 78.3783 88.9458 78.3783C88.8292 78.3783 88.7654 78.3591 88.7654 78.2829C88.7654 78.2118 88.8394 78.1885 88.9985 78.1885C89.5601 78.1885 90.229 78.2199 90.452 78.2199C90.8119 78.2199 91.6177 78.1885 91.9471 78.1885C92.6151 78.1885 93.3246 78.2555 93.8973 78.6444C94.1943 78.8464 94.617 79.3896 94.617 80.1013C94.617 80.8871 94.2886 81.6089 93.2202 82.479C94.1619 83.6689 94.8947 84.6151 95.5191 85.273C96.1141 85.8883 96.55 85.9634 96.7071 85.9969C96.8236 86.0172 96.9199 86.0263 97.003 86.0263C97.0902 86.0263 97.1308 86.0588 97.1308 86.1116C97.1308 86.1969 97.0588 86.2192 96.9311 86.2192H95.9246C95.3296 86.2192 95.065 86.1654 94.7873 86.0172C94.3322 85.7705 93.9298 85.273 93.3368 84.4567C92.9111 83.8729 92.4235 83.1491 92.2857 82.9907C92.233 82.9257 92.1681 82.9155 92.0951 82.9155L91.1727 82.8932C91.12 82.8932 91.0886 82.9156 91.0886 82.9785V83.1277C91.0886 84.1156 91.0886 84.9542 91.1403 85.3999C91.1727 85.7075 91.2366 85.9431 91.5538 85.9826C91.714 86.005 91.9471 86.0263 92.0738 86.0263C92.159 86.0263 92.2015 86.0588 92.2015 86.1116C92.2015 86.1877 92.1255 86.2192 91.9907 86.2192C91.3724 86.2192 90.5889 86.1878 90.4308 86.1878C90.229 86.1878 89.5601 86.2192 89.1374 86.2192C88.9985 86.2192 88.9245 86.1877 88.9245 86.1116C88.9245 86.0588 88.9671 86.0263 89.0938 86.0263C89.2539 86.0263 89.3806 86.005 89.4769 85.9826C89.6878 85.9431 89.7425 85.7075 89.7841 85.3999C89.8378 84.9542 89.8378 84.1156 89.8378 83.1379V81.2698Z" fill="#F6B817"/>
<path d="M104.005 82.239C104.005 79.848 102.631 78.3639 100.887 78.3639C99.6585 78.3639 98.265 79.0493 98.265 81.7055C98.265 83.9241 99.4895 85.6837 101.532 85.6837C102.281 85.6837 104.005 85.3205 104.005 82.239ZM96.7961 82.036C96.7961 80.2112 98.0003 77.8539 101.193 77.8539C103.845 77.8539 105.496 79.4023 105.496 81.8443C105.496 84.2873 103.793 86.2192 101.088 86.2192C98.0309 86.2192 96.7961 83.9241 96.7961 82.036Z" fill="#F6B817"/>
<path d="M107.151 78.1335C107.182 77.9491 107.246 77.8539 107.332 77.8539C107.418 77.8539 107.481 77.9088 107.621 78.1885L110.538 84.2136L113.446 78.1149C113.532 77.9408 113.583 77.8539 113.681 77.8539C113.776 77.8539 113.843 77.9616 113.872 78.1885L114.847 84.8207C114.943 85.5024 115.048 85.8184 115.369 85.9178C115.679 86.0142 115.893 86.0245 116.032 86.0245C116.128 86.0245 116.204 86.0349 116.204 86.0991C116.204 86.1882 116.074 86.2192 115.926 86.2192C115.657 86.2192 114.183 86.1986 113.756 86.1664C113.511 86.1436 113.446 86.1115 113.446 86.0473C113.446 85.9924 113.487 85.9582 113.563 85.9271C113.628 85.9054 113.659 85.7634 113.616 85.4599L112.975 80.7452H112.932L110.603 85.5811C110.357 86.0898 110.303 86.1882 110.207 86.1882C110.11 86.1882 110.004 85.9716 109.833 85.6443C109.576 85.1481 108.734 83.4895 108.603 83.1859C108.507 82.957 107.865 81.6786 107.492 80.8675H107.449L106.894 85.0922C106.873 85.288 106.862 85.4299 106.862 85.6019C106.862 85.8059 107.002 85.9054 107.182 85.9499C107.376 85.9924 107.524 86.0027 107.631 86.0027C107.717 86.0027 107.793 86.0245 107.793 86.0794C107.793 86.1768 107.695 86.1986 107.535 86.1986C107.087 86.1986 106.604 86.1664 106.413 86.1664C106.209 86.1664 105.697 86.1986 105.354 86.1986C105.247 86.1986 105.162 86.1768 105.162 86.0794C105.162 86.0245 105.225 86.0027 105.333 86.0027C105.419 86.0027 105.494 86.0028 105.654 85.9717C105.952 85.9054 106.038 85.4827 106.092 85.1139L107.151 78.1335Z" fill="#F6B817"/>
<path d="M120.859 82.9049C120.911 82.9049 120.922 82.8727 120.911 82.8405L119.959 80.1659C119.95 80.1233 119.939 80.0693 119.907 80.0693C119.874 80.0693 119.855 80.1233 119.845 80.1659L118.873 82.8301C118.86 82.8727 118.873 82.9049 118.912 82.9049H120.859ZM118.704 83.4481C118.648 83.4481 118.629 83.4709 118.607 83.5333L118.036 85.0248C117.932 85.2969 117.878 85.5566 117.878 85.6864C117.878 85.8806 117.972 86.0229 118.3 86.0229H118.458C118.585 86.0229 118.616 86.0448 118.616 86.1102C118.616 86.1974 118.555 86.2192 118.439 86.2192C118.1 86.2192 117.647 86.187 117.317 86.187C117.201 86.187 116.62 86.2192 116.07 86.2192C115.932 86.2192 115.869 86.1974 115.869 86.1102C115.869 86.0448 115.912 86.0229 115.996 86.0229C116.091 86.0229 116.24 86.0125 116.325 86.0001C116.809 85.9378 117.009 85.5669 117.223 85.0248L119.874 78.288C120.001 77.9733 120.065 77.8539 120.171 77.8539C120.266 77.8539 120.332 77.9494 120.436 78.1987C120.69 78.7991 122.381 83.1437 123.057 84.7952C123.459 85.7736 123.767 85.9253 123.988 85.9783C124.148 86.0126 124.304 86.0229 124.433 86.0229C124.516 86.0229 124.569 86.0354 124.569 86.1102C124.569 86.1974 124.474 86.2192 124.084 86.2192C123.703 86.2192 122.931 86.2192 122.086 86.1974C121.894 86.187 121.768 86.1871 121.768 86.1102C121.768 86.0448 121.809 86.0229 121.916 86.0125C121.989 85.9928 122.064 85.8931 122.012 85.7612L121.166 83.5239C121.142 83.4709 121.112 83.4481 121.059 83.4481H118.704Z" fill="#F6B817"/>
<path d="M82.4077 72.5L130.927 72.5" stroke="#17191D" stroke-width="1.022" stroke-miterlimit="10" stroke-linecap="round"/>
<path d="M87.8433 59.4579C87.6342 59.5883 87.5556 59.2216 87.5556 59.2216C87.4985 59.0748 87.4924 58.9227 87.576 58.8621C87.7342 58.9607 87.9229 58.9587 87.979 59.0511C88.0382 59.1528 87.9525 59.3901 87.8433 59.4579ZM126.394 68.3193C126.262 68.1509 126.113 67.97 125.959 67.7831C125.274 66.9449 123.746 64.8803 123.746 64.8803C123.746 58.1739 122.554 56.9238 121.327 55.871C120.245 54.9434 118.519 54.4689 116.667 54.1813C116.164 54.1011 115.611 54.0673 114.974 54.0673C114.358 54.0673 113.734 54.0991 113.133 54.133C112.636 54.1617 103.948 54.5285 101.162 54.0549C99.9467 53.8485 98.2623 54.0868 97.2604 54.208C96.8013 54.2614 94.2935 54.6651 93.9986 54.1875C93.9415 54.0971 93.9455 53.8988 93.97 53.6739C94.0037 53.3226 94.1465 52.8952 93.8741 52.5121C93.4987 51.9852 93.0885 51.4192 92.863 51.4192C92.7916 51.4192 92.1713 51.9308 92.0203 52.0848C91.7673 52.3416 91.6877 52.7627 91.6989 53.2527C91.705 53.5537 91.6857 53.4951 91.6632 53.5177C91.6255 53.5557 90.0287 53.5558 89.6237 53.5855C89.6227 53.5034 89.6094 53.0863 89.338 52.6888C89.1625 52.434 89.0166 51.5835 89.0166 51.5835C89.0166 51.5835 88.4382 52.5923 88.2433 52.8634C88.026 53.1603 87.8015 53.4694 87.6699 53.8248C87.6199 53.9604 87.6097 54.1238 87.5985 54.2819C87.5934 54.396 87.576 54.6353 87.5301 54.6733C87.223 54.8982 87.0526 55.2085 87.022 55.5978C87.0159 55.7108 87.0475 55.8628 87.0802 56.0394C87.1026 56.1514 87.1394 56.3281 87.1394 56.4123C87.1087 56.4349 87.0792 56.4544 87.0475 56.475C86.7741 56.6496 86.4007 56.8961 86.4241 57.3296C86.4599 57.9849 86.6098 58.2396 86.8159 58.595C86.8741 58.6957 86.9333 58.7953 86.9986 58.9186C87.0904 59.0942 87.1292 59.3459 87.1689 59.5883C87.223 59.9294 86.9067 60.3022 87.123 60.5169C87.4067 60.7963 88.1392 60.8117 88.4565 60.8117C88.5422 60.8117 88.8758 60.8025 88.9554 60.8025C89.0789 60.8025 89.1748 60.8096 89.2564 60.826C89.8675 60.9462 90.4817 60.9945 91.0725 61.0448C91.8877 61.1085 92.6569 61.1712 93.4313 61.4003C94.8597 61.8234 96.2687 62.4151 97.7358 63.2029C97.8154 63.2461 97.8909 63.2841 97.9613 63.3221C98.5051 63.6046 98.6214 63.5666 98.8765 64.3185C99.1316 65.0734 98.6612 70.9591 98.5582 71.5672C98.3939 72.5502 98.0827 73.1439 97.5756 73.3309C96.8972 73.5774 96.6186 74.1115 96.3503 74.6303C96.2646 74.7977 96.2768 75 96.1728 75.1685C96.1728 75.1685 95.9514 75.413 96.0259 75.4756C96.0993 75.5393 96.788 75.3729 96.788 75.3729C97.0227 75.3873 96.7696 75.5115 97.0043 75.5115C97.5848 75.5115 98.2858 75.5075 98.9989 75.0946C99.2979 75.0946 99.0979 75.4777 99.3744 75.4273C100.226 75.2712 100.306 74.6108 100.409 73.9791C100.583 72.918 100.558 72.7331 100.675 72.6345C100.793 72.5359 101.171 72.6971 101.272 72.582C101.35 72.4958 101.265 71.7213 101.309 71.0218C101.371 70.0244 101.642 68.8545 101.938 67.892L101.954 67.8417C102.018 67.629 102.115 67.3702 102.218 67.099C102.496 66.3635 102.835 65.471 102.795 64.754C103.099 64.8064 103.149 64.8249 103.323 65.0673C103.348 65.1053 103.395 65.1813 103.446 65.2614C103.782 65.8151 103.954 65.9701 104.175 65.9701C104.197 65.9701 104.222 65.9681 104.241 65.9619C104.603 65.8674 104.798 65.5582 105.003 65.1515C105.207 64.754 105.416 64.3411 105.757 64.265C105.77 64.263 105.785 64.2589 105.804 64.2589C106.081 64.2589 106.566 64.5075 106.843 64.9389C107.454 65.8921 107.975 65.2255 108.024 65.1474C108.095 65.0375 108.584 64.223 108.706 64.034C108.853 63.8069 108.944 63.7854 108.978 63.7854H108.986C109.285 63.8316 110.582 65.4001 111.045 65.2943C111.493 65.244 111.991 63.5244 112.265 63.5244C112.279 63.5244 112.293 63.5265 112.308 63.5306C112.373 63.585 112.528 63.8193 112.632 63.9754C112.977 64.5034 113.052 64.8546 113.324 64.8546C113.412 64.8546 113.563 64.7786 113.654 64.5495C113.68 64.4869 113.784 64.2291 113.799 64.2003C113.815 64.2209 114.045 65.0026 114.607 64.3092C114.602 64.301 114.598 64.2887 114.594 64.2784C114.592 64.2846 114.59 64.2886 114.588 64.2928C114.59 64.2886 114.592 64.2846 114.594 64.2784C114.592 64.2743 114.59 64.2722 114.588 64.2671C114.59 64.2722 114.592 64.2743 114.594 64.2784C114.669 64.1017 115.709 65.133 116.206 65.5387C116.657 65.9558 117.037 66.3235 117.069 66.3512C118.139 67.3106 119.468 68.5063 119.728 69.8015C119.876 70.5503 119.841 71.4131 119.632 72.2338C119.586 72.4054 119.542 72.5061 119.5 72.5328C119.458 72.5646 119.341 72.5687 119.195 72.5708C119.128 72.5728 119.055 72.5759 118.972 72.5841C118.604 72.6047 118.356 72.9981 118.133 73.3453C118.033 73.5055 117.902 73.638 117.834 73.7561C117.766 73.8742 117.875 74.0715 117.941 74.1115C118.008 74.1536 118.669 74.3098 118.866 74.3098C118.924 74.3098 118.98 74.3056 119.024 74.2913C119.164 74.3437 119.335 74.3735 119.529 74.3735C120.107 74.3735 120.823 74.1311 121.028 73.7305C121.374 73.0474 121.61 72.3058 121.839 71.5857C121.863 71.5056 121.89 71.4224 121.916 71.3423C121.965 71.1841 122.037 71.0074 122.106 70.8225C122.356 70.163 122.781 69.4584 122.593 68.8093C122.494 68.4672 122.15 68.1344 121.93 67.8417C121.738 67.5808 121.008 66.6224 120.787 66.2886C121.468 66.9532 123.36 67.9362 123.84 69.0876C124.01 69.4913 123.834 71.182 123.805 71.635C123.79 71.8486 123.779 72.0685 123.773 72.2873C123.753 72.9796 123.552 73.1039 122.861 73.1748C122.263 73.2364 121.988 74.1269 121.841 74.6066C121.832 74.6343 121.825 74.659 121.817 74.6827L121.747 74.9055L121.979 74.9456C122.068 74.96 122.167 74.9795 122.274 75C122.706 75.0801 123.433 75.3514 123.94 75.3514C124.545 75.3514 124.969 75.2065 125.239 74.9096C125.586 74.5306 125.719 73.8465 125.838 73.2446C125.882 73.0196 126.131 72.2133 126.222 71.9226C126.79 70.0809 127.353 69.3763 126.394 68.3193Z" fill="#17191D"/>
<path d="M123.557 73.5039C123.496 73.6416 123.279 73.6695 123.204 73.7009C123.047 73.7793 122.901 73.8913 122.908 74.02C122.908 74.0704 122.882 74.6828 122.908 74.7355C122.939 74.8049 123.15 74.8922 123.196 74.8071C123.229 74.7523 123.194 74.32 123.235 74.0245C123.242 73.983 123.266 73.8072 123.339 73.7681C123.364 73.7602 123.614 73.6259 123.557 73.5039Z" fill="#C6C1C0"/>
<path d="M104.264 63.8385C104.404 63.8174 104.601 63.7647 104.667 63.8364C104.736 63.9123 104.832 64.1759 104.827 64.3372C104.821 64.4974 104.473 65.3439 104.45 65.3829C104.428 65.4219 104.393 65.5431 104.331 65.4176C104.268 65.288 104.159 63.9893 104.159 63.9893C104.159 63.9893 104.141 63.8596 104.264 63.8385Z" fill="#C6C1C0"/>
<path d="M126.36 68.7567C126.078 68.3551 125.372 67.6445 125.091 67.3029C124.714 66.8505 122.994 64.865 122.994 64.865C122.994 64.865 122.499 61.863 122.288 61.1818C122.154 60.7447 121.78 57.5819 119.29 55.8638C119.424 55.6422 121.037 56.8865 121.621 57.8554C122.68 59.6131 123.13 64.2022 123.13 64.2022C123.13 64.2022 123.802 57.1926 120.029 55.7093C117.323 54.5971 115.972 54.776 115.972 54.776C115.972 54.776 114.097 55.8821 115.228 57.9845C115.446 58.3942 117.911 62.111 118.069 62.4028C119.471 64.9881 123.93 67.9983 124.741 68.8167C124.784 68.8624 125.552 69.3545 125.604 69.9025C125.614 70.0041 124.561 69.3087 124.576 69.4378C124.719 70.734 124.563 73.2228 124.543 73.5064C124.519 73.8358 124.5 73.8836 124.297 73.9568C124.094 74.0269 123.883 73.8378 123.76 74.1774C123.621 74.5545 123.672 74.8331 124.026 74.8331C124.379 74.8331 124.916 75.0171 125.257 73.7402C125.599 72.4501 126.342 70.1566 126.566 69.3128C126.62 69.1125 126.458 68.894 126.36 68.7567Z" fill="#C6C1C0"/>
<path d="M88.8972 52.7577C88.8972 52.7577 89.1042 53.5839 89.0998 53.815C89.0969 54.0499 89.0436 54.0675 89.0436 54.0675L88.4307 54.4308C88.4307 54.4308 88.5641 54.2203 88.634 53.9569C88.7054 53.6907 88.9015 53.0083 88.8972 52.7577Z" fill="#C6C1C0"/>
<path d="M99.3417 74.4866C99.3065 74.511 99.2615 74.515 99.2478 74.4947L99.1423 74.3444C99.1305 74.3241 99.1462 74.2835 99.1833 74.253L99.2674 74.1961C99.3026 74.1697 99.3495 74.1656 99.3612 74.1859L99.4668 74.3363C99.4844 74.3566 99.4629 74.3952 99.4277 74.4277L99.3417 74.4866Z" fill="#C6C1C0"/>
<path d="M119.47 73.1766C119.47 73.1766 119.374 73.1424 119.322 73.2212C119.249 73.3342 119.215 73.7613 119.215 73.7613C119.215 73.7613 119.305 73.8909 119.47 73.8142C119.635 73.7437 119.97 73.4565 119.864 73.3632C119.756 73.2699 119.47 73.1766 119.47 73.1766Z" fill="#C6C1C0"/>
<path d="M119.145 72.8347C119.145 72.8347 118.929 72.8328 118.831 72.9109C118.725 72.9965 118.535 73.2269 118.547 73.3221C118.561 73.4144 118.75 73.5687 118.845 73.4744C118.942 73.3792 119.385 72.8252 119.145 72.8347Z" fill="#C6C1C0"/>
<path d="M87.1406 57.1871C86.9094 57.5804 87.574 57.924 87.7414 57.7123C87.8678 57.1766 87.3657 56.9833 87.1406 57.1871Z" fill="#C6C1C0"/>
<path d="M91.6335 57.8366C91.349 57.4934 91.14 56.9203 91.3266 56.8132C91.5132 56.7092 91.6926 56.8537 91.8068 56.9203C91.976 57.016 92.0617 56.9525 92.0494 56.7216C92.0413 56.5428 92.0219 56.3743 92.0025 56.212C91.9454 55.7221 91.6926 55.1834 91.4948 54.9681C91.1686 54.6103 90.2307 54.1921 89.6445 54.5967C89.4752 54.7143 89.3478 54.9057 89.2387 55.1324C89.1989 55.2146 89.3141 55.3279 89.2774 55.4215C89.0623 55.9551 88.7351 56.5729 88.3528 56.9713C88.3365 56.9921 89.6526 57.1033 91.5132 58.497C91.6783 58.6166 91.3643 59.2948 91.2563 59.2626C91.1992 59.2542 91.4449 58.6915 91.2603 58.5865C90.4081 58.0987 89.9024 58.0332 89.2611 57.8002C89.1072 57.7451 88.6596 58.0332 88.5455 57.924C88.3854 57.7108 87.8971 57.4684 87.8471 57.4445C87.8655 57.4549 87.9266 57.5017 87.948 57.7108C88.0092 58.2485 87.0274 57.7108 87.8604 58.5719C88.0948 58.8101 88.3191 58.9942 88.4924 58.9173C88.7595 58.9131 88.6382 58.9516 88.6658 59.015L88.8075 59.3582C88.8329 59.4227 88.8646 59.4186 88.8768 59.3499L88.942 58.988C88.9532 58.9194 89.0205 58.8642 89.0899 58.8663C89.0899 58.8663 90.3489 58.8954 90.6038 58.9214C90.8597 58.9495 90.875 59.0431 90.875 59.0431C90.8872 59.1128 90.9861 59.2605 90.773 59.4352C90.6181 59.5611 90.246 59.2969 89.9483 59.5434C89.6496 59.7889 89.0521 59.9001 89.0521 59.9001C88.9818 59.9126 88.9064 59.8741 88.8788 59.8075L88.7269 59.4602C88.7004 59.3946 88.6739 59.3967 88.6678 59.4695L88.6301 59.923C88.624 59.9917 88.6036 60.0489 88.5862 60.053C88.5669 60.053 88.5291 60.0021 88.4996 59.9386L88.4884 59.9168C88.4588 59.8513 88.3966 59.846 88.3528 59.896L88.2763 59.9875C88.2315 60.0426 88.1652 60.0343 88.1305 59.974L88.0999 59.9271C88.0653 59.8637 88.0082 59.8637 87.9715 59.9271L87.9246 60.002C87.8889 60.0634 87.84 60.0572 87.8196 59.9916L87.8022 59.9428C87.7819 59.8762 87.7401 59.8742 87.7136 59.9355C87.6932 59.9823 87.6636 59.9917 87.6422 59.9636C87.5994 60.0083 87.5688 60.0385 87.5545 60.053C87.5168 60.0894 87.4312 60.1685 87.4271 60.2423C87.424 60.3151 87.5137 60.3557 87.948 60.4472C88.3834 60.5366 90.403 59.6952 91.0401 59.8336C91.7772 59.9896 92.0617 59.3728 92.1116 58.5719C92.1116 58.5511 92.1055 58.5075 92.0963 58.444C91.9668 58.2308 91.7803 58.0134 91.6335 57.8366Z" fill="#C6C1C0"/>
<path d="M89.7693 55.4077C89.7693 55.4077 90.0262 54.8884 90.3421 54.785C90.5762 54.7081 90.8186 54.8632 91.1802 55.1444C91.5438 55.4245 91.7333 55.8632 92.0886 55.7479C92.2119 55.7082 91.8152 56.225 91.4671 56.0772C91.3832 56.0411 90.8611 55.0338 90.3535 55.0483C90.3535 55.0483 90.0262 55.1216 89.7693 55.4077Z" fill="#17191D"/>
<path d="M90.8307 55.9205C90.7578 55.9205 90.6977 55.825 90.6977 55.7069C90.6977 55.5939 90.7578 55.4959 90.8307 55.4959C90.9045 55.4959 91.0001 55.5938 91.0001 55.7144C91.0001 55.8275 90.9045 55.9205 90.8307 55.9205ZM90.744 54.8012C90.3392 54.6542 90.1038 55.0072 90.1038 55.0072C90.2092 54.6618 90.6918 54.8803 90.9016 54.9909C91.0178 55.0549 91.1793 55.3929 91.2946 55.673C91.1646 55.5085 90.9863 55.3313 90.8326 55.3124C90.5263 55.2773 90.4978 55.7949 90.4978 55.7949L90.3431 56.0411C90.3431 56.0411 90.3628 56.1039 90.5982 56.1039C90.8336 56.1039 91.6561 56.0926 91.7654 55.9645C91.8738 55.8401 91.1872 54.9658 90.744 54.8012Z" fill="#17191D"/>
<path d="M97.1089 73.9172C97.1089 73.9172 96.8045 74.6354 96.7978 74.7098C96.7911 74.7831 96.8045 74.8316 96.8401 74.8316C96.8756 74.8316 96.9841 74.8688 97.0618 74.8046C97.1387 74.7392 97.4277 74.0299 97.4651 73.9307C97.4747 73.9037 97.2375 73.7458 97.1089 73.9172Z" fill="#C6C1C0"/>
<path d="M122.199 69.2699C122.347 68.6828 121.861 68.6192 121.691 69.3792C121.635 69.6415 120.961 72.3992 120.889 73.1206C120.883 73.157 120.907 73.1924 120.938 73.1497C120.947 73.3996 122.135 69.5322 122.199 69.2699Z" fill="#C6C1C0"/>
<path d="M98.248 54.5839C96.9473 54.8275 95.1252 54.9354 94.1344 54.8026C93.3509 54.6967 93.3164 54.2234 93.4576 53.8039C92.7321 54.508 92.3449 54.2323 92.3287 54.1454C92.3012 54.0336 92.5969 54.1455 92.789 53.9577C92.9831 53.773 93.0969 53.1069 92.9445 52.7853C92.791 52.4657 92.9577 52.5237 92.9577 52.5237C92.9577 52.5237 93.3621 52.5636 93.5389 53.039C93.6528 52.5636 92.9831 51.9724 92.7656 52.1082C92.5492 52.243 92.1112 52.5965 92.1722 53.1128C92.2504 53.751 92.2026 54.0665 91.9923 54.0596C90.5716 53.9966 88.9803 53.8099 88.0962 54.7147C88.0962 54.7147 89.1683 54.0206 89.9914 54.0965C90.8125 54.1704 92.4984 54.3342 92.6 56.2766C92.6 56.2766 92.5817 56.714 92.6193 57.2213C92.6376 57.4899 92.3774 57.3181 92.3805 57.437C92.3906 57.9753 92.7798 57.8934 92.7483 58.3577C92.6132 60.2671 91.7169 60.2282 91.7169 60.2282C91.7169 60.2282 92.7992 60.377 93.3357 58.5924C93.3337 59.616 93.2239 59.8736 92.8032 60.2731C93.6304 60.324 94.2797 59.5561 94.2991 59.4402C94.422 59.634 94.6568 60.2621 95.2746 60.5188C94.9697 60.0235 95.0439 59.4233 95.1069 58.892C95.2929 60.0844 95.6018 60.5288 96.2268 60.7885C95.9748 60.5388 95.4636 59.9985 95.6171 59.0308C95.736 59.8577 96.7196 60.5937 96.7196 60.5937C96.7196 60.5937 96.4066 60.0964 96.3233 59.2206C96.745 60.1114 97.1983 60.1853 97.1983 60.1853C97.1983 60.1853 96.4991 59.4622 96.3792 58.5235C96.365 58.5065 96.87 59.1616 97.2816 59.1616C96.9656 58.7891 96.4646 58.2589 96.4097 57.5898C96.7247 57.9893 96.9523 58.2509 97.3161 58.2918C97.0093 57.9443 96.7572 57.391 96.6617 56.722C97.0123 57.1544 96.9523 57.2971 97.6119 57.4749C97.3568 57.2302 97.181 56.5562 97.308 56.2316C97.4218 56.4583 97.8598 56.69 98.3821 56.7569C98.2134 56.651 97.9421 56.0119 97.9818 55.7582C98.2185 55.8731 98.7297 56.0429 99.1341 55.988C98.9421 55.8771 98.8069 55.3149 98.8658 55.183C98.9736 55.2509 99.7449 55.239 99.9085 55.183C99.6575 55.0302 99.441 54.8006 99.4989 54.8215C99.6849 54.8864 99.9898 54.7297 100.386 54.6677C100.808 54.6018 100.882 54.5979 101.146 54.6019C100.889 54.48 99.2662 54.3362 98.248 54.5839Z" fill="#C6C1C0"/>
<path d="M111.468 62.8012C111.468 62.8012 110.589 62.7463 110.521 62.9979C110.457 63.2494 110.923 64.5811 110.992 64.7408C111.103 64.9924 111.4 64.4094 111.4 64.4094C111.493 64.2497 111.853 63.4681 111.853 63.3613C111.856 63.2285 111.865 62.7992 111.468 62.8012Z" fill="#C6C1C0"/>
<path d="M108.052 62.8007C108.052 62.8007 107.24 62.746 107.177 63.0146C107.113 63.2853 107.461 64.5402 107.516 64.7142C107.597 64.9764 107.771 64.5799 107.771 64.5799C107.858 64.4102 108.506 63.5184 108.508 63.4045C108.508 63.2649 108.421 62.7986 108.052 62.8007Z" fill="#C6C1C0"/>
<path d="M113.851 54.4407C113.594 54.455 111.434 54.7004 109.994 54.7045C108.846 54.7086 107.632 54.6523 106.985 54.6758C106.934 54.6687 106.852 54.6758 106.778 54.6861C105.814 54.6442 102.727 54.594 102.727 54.594C102.497 54.547 99.367 55.367 98.9133 58.8902C98.6335 61.0608 98.7699 61.755 99.2548 62.7856C99.5438 63.3991 100.124 64.5309 100.103 65.4153C100.095 65.7854 99.4458 63.8663 99.4559 64.0841C99.5498 66.314 99.1669 71.3361 98.9477 72.4025C98.686 73.6733 98.4334 73.0302 98.1394 73.5608C98.094 73.6447 97.4514 74.8266 97.4656 74.8409C97.4797 74.8511 97.7879 74.8031 98.1152 74.7714C98.4951 74.7591 98.8073 73.7132 99.0669 73.7132C99.1093 73.7132 98.781 74.5556 98.8315 74.5413C99.1013 74.4738 99.5407 74.3594 99.5114 74.5771C99.6094 74.6078 99.6862 74.5577 99.7458 74.4841C99.8246 74.388 100.181 72.7644 100.401 71.9199C100.45 71.7819 100.808 71.8616 100.905 71.8994C101.1 71.5017 100.788 70.1746 101.35 68.3312C101.907 66.5195 102.493 64.9481 102.23 64.4808C102.202 64.4276 101.253 65.7036 101.23 65.6535C101.17 65.5073 104.324 60.1478 103.712 57.372C103.7 57.2728 103.657 57.1603 103.657 57.0805C103.655 57.0591 104.021 57.2145 104.477 57.3361C105.068 57.5202 105.587 57.6173 105.765 58.3085C105.978 59.6427 106.59 61.5332 107.832 61.6477C107.268 61.1242 106.545 58.4649 106.635 57.372C106.984 59.1551 108.057 61.7377 108.943 61.6211C108.761 61.3338 108.022 59.7082 108.022 58.6857C108.342 59.5343 109.104 61.3941 109.679 61.4074C111.185 61.4381 111.566 60.7449 112.679 60.4913C115.169 59.9218 115.823 60.889 116.204 61.0884C115.9 60.7909 114.86 58.9536 114.169 57.5202C113.619 56.3853 114.548 55.2515 116.125 54.547C116.436 54.407 114.343 54.4264 113.851 54.4407Z" fill="#C6C1C0"/>
<path d="M115.154 64.4062C115.154 64.4062 115.071 64.2898 115 64.2704C114.977 64.2639 114.962 64.2607 114.948 64.2607C114.916 64.2607 114.9 64.2704 114.9 64.2704L114.865 64.2963L114.877 64.2413C114.881 64.2041 114.912 64.1346 114.976 64.1346C115 64.1346 115.025 64.1443 115.051 64.1605C115.15 64.2171 115.181 64.3738 115.182 64.3771L115.2 64.4692L115.154 64.4062Z" fill="#17191D"/>
<path d="M115.975 73.8385C115.049 73.8385 114.93 72.4083 114.909 72.1525C114.685 72.1373 114.444 71.9913 114.278 71.8674C114.27 71.8614 114.253 71.8513 114.235 71.8423C114.238 71.948 114.244 72.0578 114.246 72.1605C114.255 72.3257 114.289 72.7527 114.303 72.8665L114.306 72.8786C114.325 73.0398 114.373 73.4175 113.983 73.6239C113.868 73.6813 113.74 73.7146 113.602 73.7146C113.483 73.7146 113.379 73.6915 113.308 73.6773C113.292 73.6753 113.277 73.6712 113.264 73.6692L113.196 73.6632C113.097 73.6501 112.96 73.634 112.857 73.628H112.829C112.634 73.628 112.085 73.6612 111.997 73.6692C111.976 73.6712 111.958 73.6733 111.937 73.6733C111.627 73.6733 111.374 73.4376 111.371 73.4336C111.214 73.2876 111.201 73.0559 111.339 72.8706L111.374 72.8212L111.426 72.784C111.457 72.7648 111.554 72.7014 111.693 72.6822C111.807 72.6127 111.986 72.513 112.258 72.369C112.02 71.9269 110.968 70.3939 111.886 69.9105C112.223 69.7352 112.746 69.558 113.238 69.4482C113.242 69.418 113.25 69.3888 113.259 69.3616C113.268 69.3263 113.279 69.2075 113.265 69.1118C113.122 69.1863 112.977 69.2256 112.857 69.2256C112.816 69.2256 112.779 69.2216 112.741 69.2136C112.429 69.1511 112.026 68.712 111.979 68.6535C111.908 68.5629 111.643 68.1026 111.397 67.6655C110.729 67.6363 110.668 67.6182 110.621 67.6051C110.554 67.5829 110.477 67.5598 110.042 67.2153C109.899 67.0975 109.827 66.9413 109.851 66.7862C109.869 66.6583 109.953 66.5465 110.076 66.4871C110.086 66.4831 110.093 66.4791 110.105 66.474C110.161 66.4025 110.254 66.33 110.411 66.2988L110.454 66.2887H110.507C110.613 66.2887 110.705 66.3239 110.78 66.3693C110.787 66.3199 110.8 66.2706 110.826 66.2252C110.907 66.0762 111.071 65.9856 111.266 65.9856C111.374 65.9856 111.491 66.0127 111.622 66.0681L111.641 66.0782L111.662 66.0903C111.706 66.1155 111.712 66.1154 111.712 66.1154C111.793 66.1316 111.987 66.188 112.051 66.2121C112.163 66.2575 112.242 66.3159 112.453 66.6603L112.786 66.9786C112.937 66.6423 113.12 66.4912 113.187 66.4358C113.282 66.3572 113.399 66.324 113.522 66.2887C113.545 66.2807 113.58 66.2706 113.605 66.2635C113.653 66.2222 113.712 66.184 113.774 66.1507C113.777 66.1336 113.783 66.1155 113.789 66.1014C113.74 66.0349 113.68 65.9483 113.632 65.8758C113.495 65.6592 113.513 65.4648 113.524 65.344L113.526 65.3047C113.545 64.9703 113.987 64.6853 113.992 64.6833C114.041 64.652 114.096 64.6269 114.144 64.6087C114.232 64.51 114.388 64.3449 114.497 64.2522C114.586 64.1716 114.706 64.1173 114.82 64.078C114.915 63.8907 115.116 63.8 115.423 63.8C115.522 63.8 115.841 63.8222 115.947 63.8373C116.174 63.8725 116.328 64.0085 116.407 64.1736C116.604 64.2371 116.73 64.4063 116.754 64.6339L116.823 64.7054C116.873 64.7528 116.982 64.8766 117.019 65.063C117.14 65.2835 117.119 65.5474 117.105 65.6653C117.099 66.0228 117.001 66.2333 116.897 66.3532C116.884 66.3965 116.873 66.4307 116.858 66.4599C117.219 66.6725 117.33 67.1478 117.363 67.3351C117.395 67.4449 117.536 67.9113 117.608 68.2144C117.709 68.6475 117.551 69.0564 117.536 69.1017L117.514 69.1491L117.484 69.1904C117.455 69.2276 117.299 69.42 117.235 69.4955C117.113 69.6325 116.982 69.694 116.869 69.7171C116.908 69.8632 116.947 70.0203 116.973 70.1663C117.262 70.5098 117.419 70.9841 117.419 71.1533C117.419 71.2631 117.383 71.382 117.347 71.4676H117.349C117.38 71.5522 117.384 71.659 117.38 71.8886C117.504 72.0185 117.61 72.2018 117.721 72.4083C117.734 72.4335 117.742 72.4516 117.748 72.4596C118.297 73.5987 116.918 73.6874 116.834 73.6592C116.656 73.8183 116.071 73.8385 115.975 73.8385Z" fill="#17191D"/>
<path d="M115.958 64.1701C115.879 64.1559 115.59 64.1346 115.509 64.1346C115.113 64.1346 115.32 64.3326 115.32 64.3326C115.32 64.3326 115.004 64.3741 114.873 64.4929C114.741 64.6127 114.501 64.8898 114.501 64.8898C114.501 64.8898 114.395 64.9273 114.331 64.9689C114.266 65.0085 114.083 65.1476 114.057 65.2999C114.036 65.4014 114.023 65.5262 114.105 65.6612C114.185 65.7962 114.322 65.9759 114.322 65.9759C114.322 65.9759 114.356 66.0398 114.322 66.1149C114.29 66.1921 114.234 66.3849 114.234 66.3849C114.234 66.3849 114.043 66.4773 113.987 66.5412C113.931 66.6062 113.664 66.6448 113.596 66.6996C113.531 66.7554 113.359 66.9057 113.241 67.3066C113.103 67.4254 113.031 67.5776 113.031 67.5776L112.322 66.8721C112.322 66.8721 112.23 66.5889 112.098 66.5412C112.052 66.525 111.74 66.4225 111.666 66.391C111.403 66.2936 111.357 66.3687 111.41 66.4418C111.463 66.5139 111.623 66.5889 111.666 66.6102C111.704 66.6326 111.722 66.9097 111.059 66.8052C111.028 66.797 110.849 66.6914 110.738 66.6448C110.452 66.5534 110.502 66.8244 110.561 66.8742C110.622 66.9219 110.909 67.2152 110.977 67.2365C111.04 67.2568 111.848 67.2904 111.848 67.2904C111.848 67.2904 112.404 68.3277 112.482 68.4282C112.561 68.5317 112.871 68.823 112.994 68.8484C113.12 68.8768 113.493 68.7418 113.676 68.4069L113.749 69.7609C113.749 69.7609 112.48 70.0421 112.246 70.2329C111.768 70.6075 112.614 72.0346 112.899 72.4132C112.988 72.5381 112.925 72.5655 112.925 72.5655C112.925 72.5655 112.035 73.0496 112.024 73.0892C111.94 73.0659 111.871 73.1167 111.871 73.1167C111.871 73.1167 111.828 73.1766 111.856 73.206C111.886 73.2344 112.035 73.345 112.151 73.3349C112.261 73.3217 112.89 73.2872 113.039 73.2933C113.187 73.2994 113.371 73.3237 113.467 73.3349C113.561 73.345 113.762 73.4222 113.926 73.3349C114.086 73.2455 114.061 73.0933 114.043 72.9431C114.025 72.7918 113.983 72.2052 113.983 72.2052C113.983 72.2052 113.967 71.5251 113.953 71.4418C114.126 71.4642 114.409 71.5291 114.461 71.4976C114.55 71.4479 114.641 71.5981 114.641 71.5981C114.641 71.5981 114.931 71.8245 115.064 71.8012C115.193 71.7768 115.219 71.7666 115.284 71.5748C115.333 71.5058 115.374 71.523 115.374 71.7017C115.374 71.8844 115.284 73.5359 116.078 73.5034C116.567 73.4841 116.917 73.2517 116.917 73.2517C116.917 73.2517 117.054 73.4384 117.244 73.3725C117.747 73.1928 117.472 72.7441 117.429 72.6751C117.39 72.6061 117.16 72.1097 117.016 72.0996C117.022 71.8895 116.988 71.5748 116.951 71.4895C116.976 71.4439 117.06 71.2591 117.06 71.1718C117.06 71.0845 116.917 70.6197 116.649 70.3395C116.588 69.903 116.368 69.2453 116.368 69.2453C116.368 69.2453 116.66 69.3489 116.749 69.36C116.84 69.3722 116.911 69.3305 116.97 69.2615C117.031 69.1915 117.197 68.9702 117.197 68.9702C117.197 68.9702 117.328 68.6322 117.25 68.2932C117.173 67.9582 117.012 67.4041 117.012 67.4041C117.012 67.4041 116.936 66.8661 116.666 66.7433C116.399 66.6225 116.344 66.6326 116.344 66.6326C116.344 66.6326 116.258 66.5189 116.322 66.4935C116.387 66.4722 116.489 66.3961 116.517 66.3606C116.547 66.3271 116.594 66.1383 116.594 66.1383C116.594 66.1383 116.754 66.0631 116.754 65.6135C116.754 65.6135 116.804 65.3019 116.684 65.1537C116.684 65.0207 116.588 64.9334 116.588 64.9334L116.416 64.7507C116.416 64.7507 116.44 64.5193 116.334 64.4929C116.226 64.4675 116.148 64.4401 116.148 64.4401C116.148 64.4401 116.143 64.1975 115.958 64.1701Z" fill="#C6C1C0"/>
<path d="M114.387 64.804C114.468 64.7969 114.527 65.0424 114.53 65.0972C114.534 65.1448 114.516 65.1448 114.474 65.129C114.435 65.1184 114.399 64.9594 114.315 64.9735C114.233 64.9806 114.231 65.0901 114.201 65.0795C114.169 65.0724 114.304 64.8111 114.387 64.804Z" fill="#17191D"/>
<path d="M115.209 67.4357C115.248 67.3891 115.353 67.4997 115.384 67.4715C115.413 67.4422 115.162 67.1241 115.242 67.0579C115.336 66.9884 115.445 67.2359 115.494 67.1936C115.547 67.1469 115.527 67.1241 115.512 67.0839C115.506 67.0644 115.398 66.8484 115.397 66.8462C115.39 66.8353 115.274 66.6367 115.35 66.5943C115.428 66.5639 115.51 66.7105 115.527 66.7355C115.533 66.742 115.681 67.0329 115.743 67.0014C115.803 66.9613 115.632 66.5259 115.632 66.5259C115.621 66.4858 115.549 66.3729 115.585 66.3414C115.621 66.3099 115.658 66.3186 115.76 66.4684C115.769 66.4814 116.042 67.0286 116.076 67.0091C116.076 67.0091 116.082 66.8994 116.04 66.8147C116.094 66.8614 116.199 66.8972 116.193 66.9776C116.191 67.0058 116.183 67.2403 116.143 67.2978C116.024 67.4585 115.464 67.6669 115.29 67.6355C115.274 67.6159 115.163 67.4954 115.209 67.4357ZM116.319 69.8231L116.24 69.4268L116.203 69.2846L115.552 67.9362L115.527 67.8852C115.505 67.8624 115.486 67.8342 115.434 67.7788C115.419 67.7647 115.429 67.743 115.449 67.7451C115.676 67.7766 116.072 67.6561 116.166 67.616C116.193 67.6518 116.823 68.4726 116.871 68.4389C116.92 68.4031 116.235 67.4021 116.229 67.3999C116.229 67.3934 116.294 66.9863 116.279 66.9374C116.248 66.8397 116.064 66.6899 115.99 66.6899L115.978 66.6931C115.965 66.6638 115.952 66.641 115.949 66.6345L115.938 66.6149C115.889 66.5172 115.85 66.4521 115.823 66.4054C115.95 66.4521 116.076 66.4966 116.086 66.501L116.155 66.5053L116.229 66.3924L115.697 66.1948C115.65 66.1785 115.598 66.0656 115.595 65.9722C115.592 65.9071 115.963 65.5021 115.892 65.4782C115.749 65.4229 115.408 65.83 115.401 65.9494C115.393 66.0276 115.432 66.2013 115.494 66.2697C115.472 66.3033 115.456 66.3392 115.456 66.3815C114.796 66.4304 114.559 66.6931 114.531 66.8288C114.531 66.8288 115.058 66.5986 115.246 66.5639C115.123 66.6931 115.318 66.9396 115.318 66.9396C115.294 66.9309 115.232 66.8842 115.165 66.9374C115.042 67.046 115.169 67.2707 115.194 67.3217C115.143 67.3228 115.107 67.3336 115.09 67.3554C115.025 67.4379 115.149 67.6116 115.238 67.7201C115.28 67.7712 115.087 67.7582 114.531 67.2978C114.547 67.7451 115.215 68.0122 115.428 68.0144C115.434 68.0252 116.29 69.7645 116.319 69.8231Z" fill="#17191D"/>
<path d="M113.463 69.8231L113.355 69.8807L113.192 69.9695C113.22 70.0281 113.862 71.3996 114.513 71.8308L114.531 71.7783C113.66 70.7401 113.463 69.8231 113.463 69.8231Z" fill="#17191D"/>
<path d="M115.688 70.5021C115.402 70.5541 115.2 71.748 115.2 71.748C115.269 71.6355 115.272 71.8308 115.272 71.8308C115.272 71.8308 115.502 70.8152 115.701 70.7111C115.904 70.6061 116.204 70.6517 116.204 70.6517C116.204 70.6517 115.977 70.4458 115.688 70.5021Z" fill="#17191D"/>
<path d="M113.182 68.4842C113.237 68.4612 113.051 67.4808 113.051 67.4808L112.983 67.5295L112.865 67.4808C112.804 67.5653 113.128 68.5072 113.182 68.4842Z" fill="#17191D"/>
<path d="M113.226 67.714L113.292 68.4846L113.413 68.4103L113.381 67.8432C113.381 67.8432 113.441 67.8732 113.463 67.8538C113.484 67.8334 113.366 67.7176 113.36 67.576C113.355 67.4725 113.462 67.3371 113.444 67.3256C113.424 67.3132 113.388 67.353 113.388 67.353C113.394 67.2592 113.401 67.1557 113.407 67.0902C113.415 66.9982 113.527 66.8115 113.527 66.8115C113.276 66.9089 113.23 67.2212 113.23 67.2212L113.214 67.4654C113.214 67.4689 113.192 67.5433 113.192 67.5946C113.192 67.6485 113.224 67.714 113.224 67.714H113.226Z" fill="#17191D"/>
<path d="M116.783 72.1654C116.783 72.1654 116.774 73.2343 116.539 73.5038H116.668C116.716 73.4625 116.811 73.1193 116.843 72.989C116.879 72.8457 116.873 72.2603 116.873 72.2603L116.783 72.1654Z" fill="#17191D"/>
<path d="M112.859 70.4923C112.812 70.7004 113.898 71.4962 113.898 71.4962L114.196 71.387C114.196 71.387 113.167 70.7927 112.859 70.4923Z" fill="#17191D"/>
<path d="M115.496 64.4945C115.512 64.5095 115.506 64.591 115.491 64.65C115.491 64.6532 115.459 64.767 115.631 64.8442C115.744 64.8925 115.809 64.9762 115.854 65.0352C115.864 65.048 115.874 65.062 115.878 65.0706C115.909 65.1017 115.919 65.1296 115.895 65.2025C115.885 65.2336 115.87 65.2529 115.854 65.2701C115.838 65.2841 115.82 65.3055 115.831 65.3323L115.833 65.341C115.843 65.3742 115.874 65.4546 115.956 65.4857C115.972 65.4965 116.015 65.548 115.968 65.6724L115.954 65.7079C115.902 65.842 115.947 66.1627 116.034 66.1413C116.124 66.1209 116.107 65.842 116.13 65.8087C116.182 65.7475 116.218 65.578 116.199 65.4857C116.194 65.4525 116.179 65.4289 116.156 65.4182C116.076 65.372 116.05 65.3345 116.05 65.3237C116.05 65.3205 116.062 65.3055 116.072 65.2948C116.09 65.2766 116.109 65.2508 116.125 65.2197C116.154 65.1585 116.135 65.0705 116.107 65.0137C116.081 64.9633 115.923 64.7852 115.831 64.7562C115.751 64.7358 115.704 64.6951 115.704 64.6554C115.703 64.6371 115.707 64.6092 115.709 64.5824C115.72 64.5191 115.725 64.4612 115.696 64.4258C115.43 64.0964 115.037 64.1361 115.037 64.1361L114.865 64.3013C114.865 64.3013 115.169 64.1651 115.496 64.4945Z" fill="#17191D"/>
<path d="M113.56 66.5492C113.621 66.5724 113.944 66.5982 114.522 66.8115C114.61 66.7272 114 66.5311 113.716 66.4769C113.547 66.4769 113.535 66.4984 113.529 66.507C113.524 66.5174 113.524 66.532 113.56 66.5492Z" fill="#17191D"/>
<path d="M112.377 72.7681C112.032 72.2828 111.281 72.2632 111.031 72.5094C111.016 72.495 111.005 72.4856 110.993 72.4753C110.888 72.3904 110.585 72.2042 110.437 72.1193C110.208 71.871 110.111 71.81 110.062 71.7841C109.873 71.6672 109.511 71.5357 109.203 71.4602C109.144 70.7877 109.093 70.6304 109.058 70.5611C109.061 70.5394 109.132 69.9444 109.12 69.5709C109.315 69.6071 109.574 69.6495 109.781 69.6495C109.898 69.6495 109.991 69.6361 110.068 69.6071C110.269 69.5533 110.601 69.4353 110.737 69.2097L110.768 69.1611L110.782 69.1042C110.794 69.0556 110.884 68.6148 110.628 68.1989C110.452 67.9164 109.961 67.3866 109.687 67.1176C109.7 66.9624 109.707 66.8061 109.707 66.8041C109.718 66.6768 109.685 66.5454 109.54 66.3923C109.497 66.3457 109.167 65.9618 109.073 65.9029C108.984 65.849 108.838 65.8077 108.72 65.8077C108.677 65.8077 108.638 65.8139 108.598 65.8263C108.276 65.8987 108.307 66.4047 108.319 66.4471C108.279 66.4223 108.236 66.4005 108.189 66.3799C108.078 66.2547 107.917 66.1822 107.756 66.1481C107.674 66.087 107.552 66.0239 107.395 66.0239C107.384 66.0239 107.372 66.0239 107.36 66.026C107.152 66.0384 107.147 66.0611 107.046 66.1439C106.891 66.1781 106.75 66.2712 106.643 66.4068C106.555 66.4585 106.445 66.5516 106.359 66.7058C106.264 66.7844 106.162 66.9137 106.079 67.1403L106.048 67.2231C105.974 67.4208 105.892 67.6432 105.951 67.8739C105.954 67.877 105.955 67.8874 105.957 67.8936C105.778 67.9443 105.524 68.0509 105.384 68.3324C105.323 68.4596 105.256 68.6272 105.203 68.7752C105.125 68.7804 104.222 68.8942 104.241 69.3308C104.247 69.4684 104.312 69.605 104.434 69.6919C104.349 69.8399 104.343 69.9951 104.419 70.1265C104.483 70.2424 104.573 70.3252 104.674 70.3655C104.708 70.4762 104.759 70.5911 104.835 70.6904C104.924 70.8074 105.021 70.8932 105.103 70.9532C104.934 71.0101 104.755 71.0929 104.583 71.2202C104.333 71.394 103.96 71.7758 104.283 72.3677C104.335 72.4587 104.493 72.6388 105.285 73.4365C105.258 73.4696 104.635 74.645 105.654 74.6937C105.886 75.0941 106.68 74.5178 106.707 74.5022C106.767 74.5157 107.833 74.5198 107.55 73.6776C107.623 73.6652 107.991 73.5607 108.011 73.5586C108.13 73.6124 108.392 73.7221 108.547 73.7376C108.617 73.7439 108.732 73.7479 108.817 73.7479C108.925 73.7479 109.189 73.7438 109.316 73.7179C109.35 73.7117 109.387 73.7014 109.428 73.6941C109.54 73.8773 109.713 74.106 109.938 74.2353C110.206 74.3926 110.82 74.674 111.025 74.7672C111.065 74.8096 111.497 75.1769 111.78 75.1769C112.684 75.1769 112.405 74.3326 112.42 74.286C112.495 74.0677 112.629 73.1178 112.377 72.7681Z" fill="#17191D"/>
<path d="M109.205 68.2957C109.168 68.2489 108.816 68.1552 108.673 68.1396C108.623 68.0886 108.461 68.0376 108.461 68.0376C108.461 68.0376 108.682 67.8669 108.677 67.7494C108.523 66.9418 108.258 66.8794 108.258 66.8794C108.258 66.8794 108.175 66.6962 107.951 66.6681C107.912 66.4954 107.584 66.4663 107.584 66.4663C107.584 66.4663 107.503 66.3549 107.371 66.3612C107.276 66.3685 107.246 66.408 107.197 66.4684C107.197 66.4684 107.001 66.4361 106.869 66.6681C106.869 66.6681 106.714 66.7025 106.619 66.9356C106.619 66.9356 106.503 66.9647 106.399 67.2447C106.328 67.4361 106.244 67.6245 106.28 67.7671C106.318 67.9096 106.432 68.0574 106.432 68.0574C106.432 68.0574 106.325 68.1469 106.208 68.1844C106.09 68.2208 105.803 68.2426 105.686 68.483C105.568 68.7224 105.421 69.1823 105.421 69.1823C105.421 69.1823 105.35 69.1396 105.264 69.1313C105.189 69.123 104.843 69.1376 104.766 69.1958C104.723 69.225 104.573 69.2448 104.577 69.3041C104.586 69.4768 104.852 69.4154 104.852 69.4154L104.791 69.7817C104.791 69.7817 104.68 69.8931 104.709 69.9461C104.739 69.9992 104.791 70.019 104.826 70.0076C104.872 69.9992 104.944 69.9118 104.944 69.9118C104.944 69.9118 104.944 70.2687 105.098 70.4706C105.252 70.6714 105.43 70.7433 105.43 70.7433C105.43 70.7433 105.547 70.7911 105.648 70.7433C105.751 70.7027 105.942 70.5456 105.958 70.4852C105.972 70.4259 106.023 70.2229 106.023 70.2229C106.023 70.2229 106.105 69.9014 106.142 69.893C106.178 69.8868 106.215 69.9378 106.215 69.9378V70.5903C106.215 70.5903 105.964 71.0762 105.964 71.2021C105.832 71.2188 105.26 71.1553 104.767 71.5216C104.362 71.8057 104.504 72.068 104.577 72.2022C104.648 72.3385 105.884 73.5623 105.921 73.6071C105.905 73.6497 105.942 73.7039 105.884 73.7039H105.751C105.751 73.7039 105.563 73.6289 105.53 73.7039C105.451 73.8891 105.651 73.8724 105.659 73.9036C105.664 73.938 105.498 73.8787 105.474 73.9765C105.44 74.0962 105.477 74.2085 105.556 74.3074C105.605 74.375 105.734 74.3428 105.77 74.3563C105.809 74.3729 105.822 74.4354 105.92 74.4562C106.136 74.5436 106.615 74.143 106.677 74.1534C106.91 74.273 107.181 74.0535 107.197 73.9193C107.215 73.7829 107.195 73.7163 107.148 73.6123C107.1 73.5113 106.95 73.3469 106.95 73.3469C106.95 73.3469 107.135 73.2876 107.175 73.2689C107.175 73.2689 107.201 73.2491 107.264 73.2793C107.325 73.3115 107.599 73.3625 107.68 73.3584C107.761 73.3563 108.067 73.2044 108.114 73.2304C108.162 73.2574 108.465 73.3875 108.578 73.3968C108.689 73.4093 109.121 73.4072 109.241 73.3833C109.361 73.3604 109.602 73.2855 109.602 73.2855C109.602 73.2855 109.803 73.7673 110.109 73.9463C110.414 74.1232 111.234 74.4927 111.234 74.4927C111.234 74.4927 111.562 74.8423 111.78 74.8423C111.995 74.8423 112.051 74.6529 112.05 74.6081C112.049 74.5613 112.042 74.3199 112.085 74.1961C112.13 74.066 112.168 73.6841 112.179 73.5051C112.191 73.3261 112.251 72.8276 111.786 72.7548C111.712 72.7423 111.552 72.7142 111.524 72.7142C111.456 72.7204 111.489 72.8849 111.467 72.8224C111.441 72.7464 111.363 72.7288 111.332 72.7402C111.246 72.7798 111.209 72.8547 111.21 72.8953C111.216 72.9681 111.248 73.1658 111.248 73.1658C111.248 73.1658 110.87 72.8547 110.765 72.7673C110.661 72.6799 110.211 72.4134 110.211 72.4134C110.211 72.4134 109.967 72.1492 109.894 72.1169C109.851 72.0659 109.212 71.7651 108.866 71.7714C108.86 71.5008 108.847 70.8692 108.696 70.5622C108.698 70.4768 108.791 69.5903 108.735 69.3572C108.712 69.2552 108.864 69.1761 108.941 69.1761C109.018 69.1761 109.755 69.3488 109.954 69.2614C109.954 69.2614 110.346 69.1594 110.433 69.0127C110.433 69.0127 110.511 68.6818 110.323 68.381C110.136 68.0782 109.481 67.3872 109.31 67.2447C109.332 67.0698 109.347 66.7556 109.347 66.7556C109.347 66.7556 109.347 66.6879 109.304 66.6453C109.257 66.5964 108.959 66.2446 108.918 66.2082C108.884 66.176 108.748 66.1291 108.692 66.1458C108.636 66.1635 108.655 66.2852 108.686 66.3165C108.72 66.3529 108.81 66.4298 108.81 66.4298L108.858 66.5662C108.858 66.5662 108.797 66.5985 108.785 66.6286C108.775 66.6557 108.775 66.8118 108.797 66.8482C108.818 66.8794 108.891 66.895 108.891 66.895C108.891 66.895 108.824 67.048 108.76 67.0522C108.702 66.9689 108.608 66.7181 108.527 66.8003C108.489 66.8409 108.468 66.9096 108.491 66.9783C108.509 67.0438 108.617 67.3643 108.673 67.4236C108.729 67.4809 108.771 67.5131 108.771 67.5131C108.771 67.5131 109.184 68.174 109.205 68.2957Z" fill="#C6C1C0"/>
<path d="M105.162 71.518C105.818 71.462 107.015 73.1239 107.054 73.1598C107.095 73.1956 107.169 73.1184 107.169 73.1184C107.119 73.0467 106.073 71.281 105.162 71.518Z" fill="#17191D"/>
<path d="M105.227 69.477C105.34 69.4541 105.523 69.1691 105.493 69.1548C105.465 69.139 105.371 69.3266 105.201 69.3266C105.147 69.3266 105.082 69.3094 105.011 69.2923L104.994 69.2866C104.974 69.3367 104.827 69.3681 104.827 69.3681L104.845 69.4885L104.99 69.4412C105.014 69.4541 105.115 69.4999 105.227 69.477Z" fill="#17191D"/>
<path d="M106.203 68.4846C106.111 68.4986 106.216 70.1577 106.216 70.1577L106.311 69.992C106.299 69.8981 106.287 69.413 106.288 69.3441C106.32 69.372 106.741 69.2532 106.835 69.0406C106.835 69.0406 106.54 69.1125 106.466 69.0906C106.334 69.0616 106.299 68.9857 106.292 68.9308C106.293 68.9138 106.242 68.4806 106.203 68.4846Z" fill="#17191D"/>
<path d="M105.951 71.1616L105.831 71.2345C106.694 71.6231 107.217 73.0571 107.221 73.0717L107.226 73.0872L107.504 73.1693C107.504 73.1693 106.846 71.5036 105.951 71.1616Z" fill="#17191D"/>
<path d="M107.838 73.1535C107.882 73.2053 108.11 73.113 108.11 73.113V73.096C108.11 73.0894 108.086 72.3772 108.842 71.8308C108.842 71.8308 108.016 71.957 107.838 73.1535Z" fill="#17191D"/>
<path d="M111.437 72.9586L111.185 72.8346C111.185 72.8346 111.304 73.24 111.297 73.4176C111.292 73.4475 111.281 73.4546 111.263 73.4665C111.254 73.4736 111.249 73.4784 111.241 73.482C111.148 73.5547 111.213 73.8385 111.213 73.8385C111.213 73.8385 111.321 73.6763 111.437 73.5845C111.447 73.5762 111.455 73.569 111.467 73.5619C111.521 73.5249 111.533 73.4963 111.503 73.3353C111.498 73.2805 111.437 72.9586 111.437 72.9586Z" fill="#17191D"/>
<path d="M109.022 68.4847C108.991 68.4889 108.933 68.9008 108.935 68.9557C108.935 68.964 108.919 69.2331 108.609 69.1865C108.301 69.1379 108.173 69.081 108.173 69.081C108.283 69.2932 108.796 69.3966 108.922 69.5705C108.95 69.6067 108.97 69.7993 108.974 69.8231H109.076V69.4794L109.177 69.4494C109.132 68.7311 109.053 68.4785 109.022 68.4847Z" fill="#17191D"/>
<path d="M108.46 67.019C108.588 66.9098 108.341 66.7855 108.336 66.7706C108.336 66.7706 108.508 66.9536 108.368 66.9023C108.249 66.7492 107.78 66.6381 107.764 66.6231C107.74 66.5998 107.823 66.5354 108.082 66.6922C108.098 66.6651 107.941 66.5409 107.717 66.554C107.712 66.5288 107.691 66.5008 107.671 66.4905C107.667 66.4887 107.664 66.4887 107.664 66.4887C107.655 66.4887 107.641 66.4887 107.645 66.4924C107.665 66.5102 107.698 66.554 107.661 66.5578C107.618 66.5615 107.591 66.499 107.582 66.4887C107.559 66.4542 107.451 66.5027 107.514 66.541C107.53 66.554 107.559 66.5615 107.585 66.5774C107.618 66.5923 107.604 66.6016 107.576 66.5923C107.539 66.583 107.501 66.5774 107.451 66.5774C107.4 66.5774 107.354 66.5867 107.31 66.6017C107.291 66.6054 107.272 66.5979 107.295 66.583C107.315 66.569 107.344 66.5634 107.362 66.554C107.452 66.5027 107.302 66.4187 107.277 66.5391C107.259 66.5615 107.242 66.5774 107.228 66.5811C107.16 66.5849 107.233 66.499 107.229 66.499C107.229 66.499 107.221 66.5065 107.218 66.5083C107.196 66.5195 107.168 66.541 107.162 66.5652C107.145 66.5634 106.884 66.5774 106.847 66.6922C107.04 66.5774 107.142 66.5848 107.129 66.6287C107.125 66.6474 106.894 66.7548 106.801 66.8257C106.728 66.8696 106.618 66.977 106.597 66.9807C106.56 66.9863 106.555 66.9256 106.604 66.8453C106.483 66.9424 106.506 67.019 106.539 67.0591C106.477 67.1777 106.49 67.3271 106.57 67.4456C106.639 67.5437 107.063 67.834 107.099 67.8144C107.135 67.7939 106.66 67.4568 106.624 67.3121C106.549 66.9658 107.127 66.6614 107.314 66.6437C107.323 66.6437 107.347 66.6875 107.454 66.6819C107.585 66.6782 107.6 66.6437 107.6 66.6437C107.749 66.6287 108.454 66.8444 108.381 67.2654C108.355 67.398 108.29 67.5568 108.319 67.5736C108.348 67.5876 108.375 67.5166 108.447 67.4018C108.524 67.2813 108.527 67.132 108.46 67.019Z" fill="#17191D"/>
<path d="M109.846 69.1469C109.787 69.0525 109.289 68.1929 109.286 68.1907C109.282 68.1775 109.27 68.15 109.252 68.15C109.242 68.15 109.179 68.1544 109.177 68.1753C109.282 68.4267 109.52 68.8253 109.687 69.0207C109.763 69.1173 109.825 69.1744 109.846 69.1469Z" fill="#17191D"/>
<path d="M105.831 73.416C105.873 73.4457 105.945 73.5038 105.945 73.5038C105.945 73.5038 106.047 73.3675 106.224 73.3135C106.399 73.2602 106.703 73.1862 106.835 73.1834C106.334 73.1142 105.851 73.3149 105.831 73.416Z" fill="#17191D"/>
<path d="M105.687 70.0899C105.778 70.0918 105.805 70.0208 105.806 69.9439L105.824 69.9301C105.827 69.9281 105.913 69.866 105.968 69.7259C106.01 69.9124 106.126 70.2842 106.04 70.3809L105.908 70.4923L106.046 70.4292C106.1 70.4134 106.187 70.3345 106.16 70.2033C106.146 70.1323 106.01 69.5405 106.01 69.5405L106.003 69.5158C105.996 69.4389 105.968 69.3659 105.914 69.3097C105.824 69.2111 105.681 69.1598 105.587 69.1538C105.587 69.1538 105.967 69.358 105.918 69.574C105.872 69.7801 105.824 69.7969 105.824 69.7989L105.772 69.7506L105.767 69.8719C105.758 69.932 105.734 69.9567 105.685 69.9548C105.539 69.9528 105.431 70.1126 105.275 70.0761C105.129 70.0416 105.052 69.9439 104.96 69.8877C104.877 69.8354 105.004 69.7318 105.004 69.7318C105.004 69.7318 105 69.6914 104.962 69.6697C104.922 69.649 104.857 69.7802 104.857 69.7802C104.857 69.7802 104.769 69.9607 104.893 70.0248C105.111 70.1402 105.04 70.1382 105.275 70.1954C105.512 70.2536 105.494 70.0859 105.687 70.0899Z" fill="#17191D"/>
<path d="M114.29 64.4692C114.155 64.4692 113.982 64.3865 113.939 64.1545C113.925 64.1091 113.806 63.8388 113.703 63.6048C113.121 62.2783 113.168 62.7634 113.223 62.5526C113.32 62.1723 113.854 62.1269 114.251 62.1269C114.343 62.1269 114.412 62.1309 114.438 62.133C114.63 62.135 114.797 62.2036 114.929 62.3277C115.145 62.5365 115.2 62.8442 115.2 62.9874C115.2 63.0035 114.908 63.8599 114.761 64.1182L114.755 64.1283C114.541 64.4652 114.354 64.4692 114.292 64.4692H114.29Z" fill="#17191D"/>
<path d="M114.41 62.1324C114.41 62.1324 113.596 62.071 113.531 62.3603C113.471 62.6518 114.048 63.7568 114.226 64.0646C114.351 64.2833 114.481 63.92 114.481 63.92C114.568 63.7395 114.863 62.9052 114.865 62.7814C114.865 62.6275 114.778 62.1301 114.41 62.1324Z" fill="#C6C1C0"/>
<path d="M90.7732 54.1094C90.7732 54.1094 93.0338 54.2493 93.4305 56.7731C93.5581 56.3084 93.0457 54.7805 92.3967 54.4078C92.3235 54.3657 92.0435 54.2297 92.2502 53.7788C91.4904 53.6702 90.7732 54.1094 90.7732 54.1094Z" fill="#17191D"/>
<path d="M101.815 54.9177C101.815 54.9177 103.13 54.3475 103.442 56.7731C103.584 55.8859 103.406 54.8311 102.874 54.5119C102.341 54.1928 101.815 54.9177 101.815 54.9177Z" fill="#17191D"/>
<path d="M95.123 57.4423C95.123 57.4423 95.2359 57.9395 95.3561 58.0377C95.478 58.1327 95.7923 57.5205 95.7923 57.5205C95.7923 57.5205 95.573 58.2583 95.3789 58.4462C95.2229 58.2921 95.162 58.1042 95.123 57.4423Z" fill="#17191D"/>
<path d="M95.4593 58.1115C95.4593 58.1115 95.7183 58.6066 95.8894 58.7041C96.0628 58.7984 96.4616 58.2133 96.4616 58.2133C96.4616 58.2133 96.1067 58.9712 95.9229 59.1154C95.7576 58.9786 95.4327 58.8005 95.4593 58.1115Z" fill="#17191D"/>
<path d="M94.4539 58.8318C94.4539 58.8318 94.6948 59.2975 94.8396 59.3588C95.0858 59.4627 95.1035 58.7808 95.1035 58.7808C95.1035 58.7808 95.2076 59.5369 94.9358 59.7846C94.7081 59.6473 94.5889 59.5545 94.4539 58.8318Z" fill="#17191D"/>
<path d="M95.123 58.5635C95.123 58.5635 95.261 58.9429 95.3915 59.0337C95.521 59.1237 95.7923 58.4462 95.7923 58.4462C95.7923 58.4462 95.7037 59.116 95.4977 59.45C95.3645 59.3095 95.1408 59.0988 95.123 58.5635Z" fill="#17191D"/>
<path d="M95.4578 58.8962C95.4606 58.9173 95.8351 59.3138 96.066 59.3901C96.3025 59.4624 96.4546 58.7808 96.4546 58.7808C96.4546 58.7808 96.5221 59.5587 96.2391 59.7846C96.0758 59.7023 95.5366 59.5055 95.4578 58.8962Z" fill="#17191D"/>
<path d="M95.7922 57.1077C95.7922 57.1077 95.9932 57.6761 96.1272 57.7641C96.2612 57.8493 96.4615 57.2388 96.4615 57.2388C96.4615 57.2388 96.359 57.9039 96.1195 58.1115C95.9563 57.9355 95.9062 57.8177 95.7922 57.1077Z" fill="#17191D"/>
<path d="M95.123 56.4385C95.123 56.4385 95.3523 56.8832 95.5593 56.9615C95.7662 57.0408 96.1269 56.4385 96.1269 56.4385C96.1269 56.4385 95.913 57.2074 95.5816 57.4423C95.3579 57.3128 95.2545 57.099 95.123 56.4385Z" fill="#17191D"/>
<path d="M96.127 56.4385C96.127 56.4385 96.2826 56.7534 96.428 56.8208C96.5712 56.8882 96.7962 56.6119 96.7962 56.6119C96.7962 56.6119 96.7064 57.0485 96.4394 57.1077C96.3292 57.0362 96.2088 56.8947 96.127 56.4385Z" fill="#17191D"/>
<path d="M96.8143 55.7692C96.8143 55.7692 96.9169 56.2435 97.0642 56.3434C97.2033 56.4445 97.4654 56.0109 97.4654 56.0109C97.4654 56.0109 97.4316 56.5392 97.0493 56.7731C96.9088 56.6088 96.74 56.4078 96.8143 55.7692Z" fill="#17191D"/>
<path d="M97.474 55.4346C97.474 55.4346 97.5784 55.7632 97.7239 55.8336C97.8695 55.9032 98.1346 55.6011 98.1346 55.6011C98.1346 55.6011 98.0851 56.0497 97.7226 56.1C97.7679 56.1421 97.4054 55.8337 97.474 55.4346Z" fill="#17191D"/>
<path d="M94.4539 58.1115C94.4539 58.1115 94.6912 58.5043 94.8019 58.5155C94.9116 58.5257 95.1231 58.1115 95.1231 58.1115C95.1231 58.1115 95.0234 58.6681 94.8019 58.7808C94.7032 58.6681 94.5077 58.4894 94.4539 58.1115Z" fill="#17191D"/>
<path d="M95.796 55.7692C95.796 55.7692 95.9313 56.213 96.0801 56.2993C96.2288 56.3893 96.4615 55.9592 96.4615 55.9592C96.4615 55.9592 96.3857 56.5943 96.126 56.7731C95.961 56.6356 95.7622 56.4068 95.796 55.7692Z" fill="#17191D"/>
<path d="M106.5 61.4577C106.103 61.3246 105.614 60.5212 105.466 60.1781C105.318 59.8319 105.05 58.8174 105.212 58.4462C105.297 58.8134 105.526 59.5978 105.699 59.951C105.958 60.4802 106.286 61.1706 106.5 61.4577Z" fill="#C6C1C0"/>
<path d="M114.803 72.1352C114.749 71.9995 114.473 71.8628 114.35 71.8413C114.239 71.8207 114.215 71.817 114.204 71.9583C114.195 72.0734 114.19 72.1951 114.209 72.3158C114.239 72.5263 114.252 72.4645 114.403 72.4748C114.518 72.4861 114.621 72.5076 114.733 72.4973C114.839 72.4898 114.862 72.4861 114.862 72.3616C114.86 72.2718 114.889 72.1604 114.803 72.1277" fill="#17191D"/>
<g style="mix-blend-mode:multiply" opacity="0.2">
<path fill-rule="evenodd" clip-rule="evenodd" d="M106.5 113.163C128.958 113.163 147.163 94.9576 147.163 72.5C147.163 50.0424 128.958 31.837 106.5 31.837C84.0424 31.837 65.837 50.0424 65.837 72.5C65.837 94.9576 84.0424 113.163 106.5 113.163ZM106.5 116C130.524 116 150 96.5244 150 72.5C150 48.4756 130.524 29 106.5 29C82.4756 29 63 48.4756 63 72.5C63 96.5244 82.4756 116 106.5 116Z" fill="#191326"/>
</g>
</g>
<defs>
<linearGradient id="paint0_linear" x1="105.757" y1="87.774" x2="92.3808" y2="138.886" gradientUnits="userSpaceOnUse">
<stop stop-color="#404042"/>
<stop offset="1" stop-color="#48484B"/>
</linearGradient>
<linearGradient id="paint1_linear" x1="46.5673" y1="105.096" x2="41.7353" y2="123.129" gradientUnits="userSpaceOnUse">
<stop stop-color="#404042"/>
<stop offset="1" stop-color="#48484B"/>
</linearGradient>
<linearGradient id="paint2_linear" x1="73.4948" y1="80.1687" x2="89.0896" y2="164.62" gradientUnits="userSpaceOnUse">
<stop stop-color="#404042"/>
<stop offset="1" stop-color="#48484B"/>
</linearGradient>
<clipPath id="clip0">
<rect width="160" height="160" fill="white"/>
</clipPath>
</defs>
</svg>
