<svg width="160" height="160" viewBox="0 0 160 160" fill="none" xmlns="http://www.w3.org/2000/svg">
<g clip-path="url(#clip0)">
<path d="M48.045 119.028C44.8667 131.172 63.0449 146.449 88.6472 153.149C114.25 159.85 137.581 155.436 140.759 143.291C143.937 131.147 125.759 115.87 100.157 109.17C74.5546 102.469 51.2233 106.883 48.045 119.028Z" fill="#606063"/>
<path d="M136.924 149.273L152.346 132.988L42.9922 104.37L48.7128 126.188L136.924 149.273Z" fill="#606063"/>
<path d="M49.9337 108.293L8.07245 97.338C6.25796 96.8632 4.41259 97.9924 4.00962 99.8242L3.54142 101.953C2.60839 106.194 5.11954 110.433 9.28748 111.653L51.0994 123.892L49.9337 108.293Z" fill="#606063"/>
<path d="M43.2026 98.7094C39.5089 112.823 61.5267 130.811 92.3808 138.886C123.235 146.96 151.241 142.064 154.935 127.95C158.629 113.836 136.611 95.8485 105.757 87.7739C74.9028 79.6993 46.8963 84.5953 43.2026 98.7094Z" fill="url(#paint0_linear)"/>
<path fill-rule="evenodd" clip-rule="evenodd" d="M127.673 123.286C134.771 128.506 138.919 134.152 139.538 139.157L142.516 138.789C141.744 132.551 136.779 126.258 129.45 120.869C122.061 115.434 112.011 110.721 100.537 107.718C89.0628 104.716 77.9927 103.902 68.888 105.019C59.8593 106.128 52.4479 109.182 48.7196 114.242L51.1348 116.021C54.1263 111.961 60.5082 109.071 69.2536 107.997C77.9231 106.933 88.6081 107.698 99.7773 110.621C110.946 113.544 120.636 118.111 127.673 123.286Z" fill="#606063"/>
<path fill-rule="evenodd" clip-rule="evenodd" d="M56.7343 118.739C48.0136 111.615 44.7365 104.698 46.1049 99.4689C47.4733 94.24 53.7186 89.8153 64.8112 87.8761C75.6178 85.9869 89.8893 86.7224 104.997 90.6762C120.105 94.63 132.908 100.98 141.403 107.92C150.124 115.045 153.401 121.962 152.033 127.191C150.664 132.419 144.419 136.844 133.326 138.783C122.52 140.673 108.248 139.937 93.1403 135.983C78.0323 132.029 65.2301 125.68 56.7343 118.739ZM92.3808 138.886C61.5267 130.811 39.5089 112.823 43.2026 98.7094C46.8963 84.5953 74.9028 79.6993 105.757 87.7739C136.611 95.8485 158.629 113.836 154.935 127.95C151.241 142.064 123.235 146.96 92.3808 138.886Z" fill="#979797"/>
<path fill-rule="evenodd" clip-rule="evenodd" d="M45.1673 124.049L40.2305 104.926L43.1352 104.177L48.0721 123.299L45.1673 124.049Z" fill="url(#paint1_linear)"/>
<path fill-rule="evenodd" clip-rule="evenodd" d="M43.4691 106.189C43.4241 106.041 43.3812 105.893 43.3406 105.746C43.2656 105.473 43.1983 105.2 43.1386 104.929L42.997 104.389C42.9948 104.38 43.0025 104.372 43.0109 104.375C43.019 104.377 43.0266 104.37 43.0251 104.362C43.0236 104.353 43.0222 104.345 43.0207 104.337C42.9732 104.072 42.9333 103.807 42.9009 103.543C42.8931 103.479 42.8857 103.416 42.8788 103.352C42.8065 102.689 42.7824 102.031 42.8078 101.378C42.8079 101.378 42.8079 101.378 42.8079 101.377C42.8432 100.475 42.9734 99.5849 43.2025 98.7095C46.8962 84.5954 74.9027 79.6994 105.757 87.774C136.611 95.8486 158.629 113.836 154.935 127.95C154.706 128.826 154.383 129.666 153.972 130.469C153.972 130.469 153.972 130.47 153.972 130.47C153.528 131.338 152.981 132.163 152.337 132.945C152.332 132.951 152.326 132.958 152.321 132.964C152.319 132.967 152.318 132.969 152.318 132.972C152.318 132.977 152.322 132.982 152.327 132.983C152.332 132.984 152.335 132.989 152.336 132.993C152.336 132.996 152.335 133 152.333 133.002L151.725 133.644C151.655 133.72 151.584 133.795 151.511 133.87L150.275 135.175L150.273 135.177L138.793 147.299C131.986 156.33 111.197 159.051 88.6472 153.149C66.3446 147.312 49.6757 134.967 47.8505 123.854C47.7571 123.285 47.3667 122.8 46.8135 122.639L10.1271 111.91C5.98342 110.698 3.4722 106.499 4.36483 102.275L4.82393 100.103C5.21371 98.2581 7.06553 97.1133 8.88976 97.589L43.1386 106.52C43.3391 106.573 43.5217 106.39 43.4691 106.189ZM39.8119 102.553C39.7482 101.009 39.9029 99.4681 40.3002 97.9499C42.6255 89.0648 52.2303 83.9845 63.7779 81.9658C75.6114 79.8971 90.7702 80.751 106.516 84.8718C122.262 88.9926 135.896 95.6738 145.199 103.274C154.277 110.691 160.162 119.825 157.837 128.71C157.28 130.839 156.285 132.774 154.936 134.499C154.821 134.697 154.679 134.887 154.511 135.065L153.923 135.686C153.92 135.689 153.916 135.693 153.913 135.697C153.836 135.779 153.759 135.861 153.68 135.943C153.677 135.946 153.673 135.95 153.67 135.953L141.082 149.246C136.911 154.652 129.056 157.706 119.984 158.802C110.684 159.926 99.4667 159.082 87.8877 156.051C76.4351 153.054 66.3397 148.366 58.8095 142.91C51.73 137.78 46.4882 131.648 45.0667 125.253L9.28503 114.789C3.63618 113.137 0.212785 107.413 1.42965 101.655L1.88875 99.4823C2.63251 95.9628 6.16596 93.7783 9.64679 94.6861L39.8119 102.553Z" fill="url(#paint2_linear)"/>
<circle cx="57" cy="29" r="29" fill="#F0B90B"/>
<path d="M46.1848 29L41.7478 33.4678L37.28 29L41.7478 24.5322L46.1848 29ZM57 18.1848L64.6415 25.8263L69.1093 21.3585L61.4678 13.7478L57 9.28003L52.5322 13.7478L44.9215 21.3585L49.3893 25.8263L57 18.1848ZM72.2522 24.5322L67.8152 29L72.283 33.4678L76.72 29L72.2522 24.5322ZM57 39.8152L49.3585 32.1737L44.9215 36.6415L52.563 44.283L57 48.72L61.4678 44.2522L69.1093 36.6107L64.6415 32.1737L57 39.8152ZM57 33.4678L61.4678 29L57 24.5322L52.5322 29L57 33.4678Z" fill="#FFFDFA"/>
<g style="mix-blend-mode:multiply" opacity="0.1">
<path fill-rule="evenodd" clip-rule="evenodd" d="M57 55C71.3594 55 83 43.3594 83 29C83 14.6406 71.3594 3 57 3C42.6406 3 31 14.6406 31 29C31 43.3594 42.6406 55 57 55ZM57 58C73.0163 58 86 45.0163 86 29C86 12.9837 73.0163 0 57 0C40.9837 0 28 12.9837 28 29C28 45.0163 40.9837 58 57 58Z" fill="#191326"/>
</g>
<circle cx="106.5" cy="72.5" r="43.5" fill="#FFF3E0"/>
<path d="M119.275 71.5836C119.669 71.4804 120.07 71.7292 120.167 72.1298L120.81 74.7878C120.907 75.1823 120.665 75.5889 120.27 75.686C119.876 75.7891 119.475 75.5403 119.378 75.1398L118.735 72.4817C118.638 72.0873 118.88 71.6807 119.275 71.5836ZM99.3394 52.1457C99.1149 51.7937 99.218 51.3386 99.5457 51.1141L101.815 49.6151C102.161 49.3906 102.616 49.4937 102.841 49.8275C103.066 50.1795 102.962 50.6346 102.635 50.8592L100.365 52.3581C100.025 52.5887 99.57 52.4856 99.3394 52.1457Z" fill="#FFFDFA"/>
<path fill-rule="evenodd" clip-rule="evenodd" d="M116.035 64.7936C113.137 64.1406 110.026 64.6776 107.478 66.4061C111.315 65.1204 115.728 66.011 118.781 69.0981C123.08 73.4441 123.08 80.5222 118.781 84.8682C118.265 85.3905 117.703 85.8526 117.107 86.2476C118.681 85.7052 120.167 84.8213 121.42 83.5557C124.459 80.4826 125.35 76.0433 124.091 72.17C120.583 70.7867 117.711 68.1414 116.035 64.7936Z" fill="#FFAE54"/>
<path fill-rule="evenodd" clip-rule="evenodd" d="M109.684 53.7855C110 50.793 108.535 47.3472 105.528 47.4757C97.1431 47.8338 89.1417 52.4891 84.8228 60.4717C78.2626 72.5968 82.6745 87.7988 94.6661 94.4197C106.658 101.041 121.714 96.6044 128.274 84.4792C130.607 80.1711 131.554 75.4745 131.266 70.9121C131.145 68.9893 128.971 68.0752 127.114 68.5868C125.942 68.9095 124.708 69.0819 123.434 69.0819C115.798 69.0819 109.607 62.8914 109.607 55.2551C109.607 54.7587 109.633 54.2684 109.684 53.7855ZM111.349 63.6092C106.506 60.9329 100.413 62.7414 97.7672 67.6266C95.1212 72.5119 96.9054 78.6655 101.748 81.3418C106.591 84.018 112.684 82.2096 115.33 77.3243C117.97 72.4391 116.192 66.2855 111.349 63.6092Z" fill="url(#paint3_radial)"/>
<path fill-rule="evenodd" clip-rule="evenodd" d="M126.635 83.5921L126.635 83.5915C128.796 79.6007 129.672 75.2538 129.406 71.0293C129.394 70.8405 129.309 70.6583 128.992 70.4959C128.636 70.3141 128.111 70.246 127.609 70.3841C126.278 70.7509 124.877 70.9462 123.434 70.9462C121.585 70.9462 119.811 70.6264 118.164 70.0393C118.72 72.7286 118.369 75.621 116.97 78.2106L116.969 78.2122C113.835 83.9985 106.605 86.156 100.846 82.9735C95.1007 79.7982 92.9985 72.5167 96.1279 66.7388C98.6439 62.0934 103.8 59.7868 108.715 60.7046C108.086 59.0071 107.743 57.1712 107.743 55.2551C107.743 54.6931 107.772 54.1374 107.83 53.5896C107.953 52.4247 107.715 51.2208 107.237 50.3911C106.787 49.6098 106.246 49.311 105.608 49.3382C97.8566 49.6693 90.4591 53.9719 86.4624 61.3588C80.3844 72.5928 84.4804 86.6663 95.5672 92.7876C106.646 98.9043 120.564 94.8126 126.635 83.5921ZM111.042 61.3955C110.123 59.5455 109.607 57.4606 109.607 55.2551C109.607 54.7587 109.633 54.2684 109.684 53.7855C110 50.793 108.535 47.3472 105.528 47.4757C97.1431 47.8338 89.1417 52.4891 84.8228 60.4717C78.2626 72.5968 82.6745 87.7988 94.6661 94.4197C106.658 101.041 121.714 96.6044 128.274 84.4792C130.607 80.1711 131.554 75.4745 131.266 70.9121C131.145 68.9893 128.971 68.0752 127.114 68.5868C125.942 68.9095 124.708 69.0819 123.434 69.0819C121.284 69.0819 119.249 68.5912 117.434 67.7158C115.138 66.6081 113.194 64.8844 111.819 62.7591C111.535 62.321 111.275 61.8659 111.042 61.3955ZM109.723 62.8907C105.216 61.3649 100.124 63.2752 97.7672 67.6266C95.1212 72.5119 96.9054 78.6655 101.748 81.3418C106.591 84.018 112.684 82.2096 115.33 77.3243C116.754 74.6881 116.892 71.6826 115.957 69.0534C115.158 66.8104 113.578 64.8413 111.349 63.6092C110.82 63.3168 110.276 63.0779 109.723 62.8907Z" fill="#AC562A"/>
<path d="M109.784 53.0435C110.196 50.4658 108.898 47.4437 106.287 47.4647C103.053 47.4908 99.8207 48.1532 96.7907 49.4512C91.0679 52.1639 94.5331 65.2478 104.722 62.5412C107.836 61.989 111.143 62.9235 113.546 65.3449C117.266 69.1075 117.487 75.056 114.113 79.0249C114.774 79.1463 115.937 78.8659 117.758 77.725C119.196 76.8268 120.816 77.7189 121.344 79.23C121.83 80.6117 121.199 81.8217 120.568 83.0326C120.221 83.6992 119.874 84.366 119.712 85.0619C119.245 87.0828 119.76 89.1765 121.939 89.753C122.892 90.0018 124.045 89.5831 125.216 88.8366C129.579 83.7312 131.568 77.2773 131.186 70.9447C131.07 69.0248 128.905 68.1035 127.048 68.605C125.896 68.9161 124.685 69.082 123.434 69.082C115.798 69.082 109.608 62.8915 109.608 55.2552C109.608 54.511 109.669 53.7691 109.784 53.0435Z" fill="#AC562A"/>
<path fill-rule="evenodd" clip-rule="evenodd" d="M115.876 69.0092C116.805 71.5447 116.696 74.3735 115.532 76.8295C115.164 77.6055 114.692 78.3443 114.113 79.0249C114.666 79.1265 115.571 78.9468 116.918 78.2171C117.181 78.0747 117.46 77.9113 117.758 77.725C119.196 76.8268 120.816 77.7189 121.344 79.23C121.83 80.6117 121.199 81.8217 120.568 83.0326C120.221 83.6992 119.874 84.366 119.712 85.0619C119.245 87.0828 119.76 89.1765 121.939 89.753C122.892 90.0018 124.045 89.5831 125.216 88.8366C129.579 83.7312 131.568 77.2773 131.186 70.9447C131.07 69.0248 128.905 68.1035 127.048 68.605C125.896 68.9161 124.685 69.082 123.434 69.082C121.25 69.082 119.184 68.5755 117.347 67.6735C116.017 67.0203 114.807 66.1596 113.76 65.1337C113.76 65.1335 113.76 65.1334 113.759 65.1333C112.673 64.0694 111.762 62.8279 111.073 61.4558C110.135 59.5909 109.608 57.4847 109.608 55.2552C109.608 54.511 109.669 53.7691 109.784 53.0435C110.196 50.4658 108.898 47.4437 106.287 47.4647C103.053 47.4908 99.8207 48.1532 96.7907 49.4512C91.0679 52.1639 94.5331 65.2478 104.722 62.5412C106.4 62.2436 108.134 62.3778 109.753 62.9438C111.138 63.4281 112.438 64.2285 113.546 65.3449C114.609 66.4202 115.387 67.6741 115.876 69.0092ZM108.729 60.7407C108.092 59.0332 107.743 57.1849 107.743 55.2552C107.743 54.4096 107.813 53.5695 107.943 52.7498C108.089 51.8356 107.918 50.8646 107.541 50.1874C107.185 49.5495 106.763 49.3252 106.302 49.3289C103.325 49.3529 100.35 49.9602 97.5611 51.1493C96.7923 51.5253 96.2384 52.2765 96.0092 53.3956C95.7736 54.5463 95.9229 55.9616 96.4988 57.2842C97.07 58.5959 98.0144 59.7126 99.256 60.3737C100.47 61.02 102.107 61.307 104.244 60.7394L104.32 60.7193L104.397 60.7056C105.831 60.4512 107.301 60.463 108.729 60.7407ZM118.1 70.0164C118.493 71.8695 118.445 73.7971 117.952 75.6309C118.886 75.388 119.837 75.4962 120.672 75.8806C121.819 76.4086 122.687 77.4208 123.104 78.6136C123.861 80.7719 122.878 82.6445 122.301 83.7428C122.273 83.795 122.247 83.8454 122.222 83.8941C121.851 84.6046 121.627 85.0586 121.528 85.4826C121.353 86.2403 121.403 86.8571 121.562 87.2503C121.688 87.564 121.904 87.8143 122.412 87.9497C122.553 87.9852 123.044 87.9631 123.984 87.4062C127.892 82.718 129.674 76.8374 129.325 71.0571C129.313 70.8682 129.228 70.6858 128.913 70.5226C128.56 70.3397 128.036 70.2694 127.534 70.4048C126.225 70.7583 124.85 70.9463 123.434 70.9463C121.562 70.9463 119.766 70.6182 118.1 70.0164Z" fill="#AC562A"/>
<path d="M89.7213 66.907C89.7213 67.5935 89.1649 68.1499 88.4785 68.1499C87.792 68.1499 87.2356 67.5935 87.2356 66.907C87.2356 66.2206 87.792 65.6642 88.4785 65.6642C89.1649 65.6642 89.7213 66.2206 89.7213 66.907Z" fill="#AC562A"/>
<path d="M107.743 88.657C107.743 89.3435 107.186 89.8999 106.5 89.8999C105.814 89.8999 105.257 89.3435 105.257 88.657C105.257 87.9706 105.814 87.4142 106.5 87.4142C107.186 87.4142 107.743 87.9706 107.743 88.657Z" fill="#AC562A"/>
<path d="M100.907 89.7445C100.907 90.8599 100.003 91.7641 98.8873 91.7641C97.7719 91.7641 96.8677 90.8599 96.8677 89.7445C96.8677 88.6291 97.7719 87.7249 98.8873 87.7249C100.003 87.7249 100.907 88.6291 100.907 89.7445Z" fill="#AC562A"/>
<g style="mix-blend-mode:multiply" opacity="0.2">
<path fill-rule="evenodd" clip-rule="evenodd" d="M106.5 113.163C128.958 113.163 147.163 94.9576 147.163 72.5C147.163 50.0424 128.958 31.837 106.5 31.837C84.0424 31.837 65.837 50.0424 65.837 72.5C65.837 94.9576 84.0424 113.163 106.5 113.163ZM106.5 116C130.524 116 150 96.5244 150 72.5C150 48.4756 130.524 29 106.5 29C82.4756 29 63 48.4756 63 72.5C63 96.5244 82.4756 116 106.5 116Z" fill="#191326"/>
</g>
</g>
<defs>
<linearGradient id="paint0_linear" x1="105.757" y1="87.7739" x2="92.3808" y2="138.886" gradientUnits="userSpaceOnUse">
<stop stop-color="#404042"/>
<stop offset="1" stop-color="#48484B"/>
</linearGradient>
<linearGradient id="paint1_linear" x1="46.5673" y1="105.096" x2="41.7353" y2="123.129" gradientUnits="userSpaceOnUse">
<stop stop-color="#404042"/>
<stop offset="1" stop-color="#48484B"/>
</linearGradient>
<linearGradient id="paint2_linear" x1="73.4948" y1="80.1687" x2="89.0896" y2="164.62" gradientUnits="userSpaceOnUse">
<stop stop-color="#404042"/>
<stop offset="1" stop-color="#48484B"/>
</linearGradient>
<radialGradient id="paint3_radial" cx="0" cy="0" r="1" gradientUnits="userSpaceOnUse" gradientTransform="translate(106.55 72.4716) rotate(90) scale(25.0185 24.7664)">
<stop offset="0.333505" stop-color="#F7B450"/>
<stop offset="0.64773" stop-color="#FFC977"/>
<stop offset="1" stop-color="#FF9900"/>
</radialGradient>
<clipPath id="clip0">
<rect width="160" height="160" fill="white"/>
</clipPath>
</defs>
</svg>
