<svg xmlns="http://www.w3.org/2000/svg" xmlns:v="https://vecta.io/nano" width="186" height="171" fill="none"><g fill="#606063"><path d="M67.045 119.028c-3.178 12.144 15 27.421 40.602 34.121s48.934 2.287 52.112-9.858-15-27.421-40.602-34.122-48.934-2.286-52.112 9.859z"/><path d="M155.924 149.273l15.422-16.285-109.354-28.619 5.721 21.818 88.211 23.086z"/><path d="M68.934 108.293L27.073 97.338c-1.815-.475-3.66.654-4.063 2.486l-.468 2.129a8.26 8.26 0 0 0 5.746 9.7l41.812 12.239-1.166-15.599z"/></g><path fill="url(#A)" d="M62.203 98.71c-3.694 14.114 18.324 32.101 49.178 40.176s58.86 3.178 62.554-10.936-18.324-32.101-49.178-40.176-58.861-3.179-62.554 10.935z"/><g fill-rule="evenodd"><path fill="#606063" d="M146.673 123.286c7.098 5.22 11.246 10.866 11.865 15.871l2.978-.368c-.772-6.238-5.737-12.531-13.066-17.92-7.389-5.435-17.439-10.148-28.913-13.151s-22.544-3.817-31.649-2.699c-9.029 1.109-16.44 4.163-20.168 9.223l2.415 1.779c2.992-4.06 9.373-6.95 18.119-8.024 8.67-1.064 19.354-.299 30.523 2.624s20.859 7.49 27.896 12.665z"/><path fill="#979797" d="M75.734 118.739c-8.721-7.124-11.998-14.041-10.629-19.27s7.614-9.654 18.706-11.593c10.807-1.889 25.078-1.154 40.186 2.8s27.911 10.304 36.406 17.245c8.721 7.124 11.998 14.041 10.63 19.27s-7.614 9.653-18.707 11.593c-10.806 1.889-25.078 1.153-40.186-2.8s-27.91-10.304-36.406-17.245zm35.647 20.147c-30.854-8.075-52.872-26.062-49.178-40.176s31.7-19.01 62.554-10.935 52.872 26.062 49.178 40.176-31.7 19.01-62.554 10.936z"/><path fill="url(#B)" d="M64.167 124.049l-4.937-19.123 2.905-.75 4.937 19.123-2.905.75z"/><path fill="url(#C)" d="M62.469 106.189l-.128-.443-.202-.817-.142-.54c.022-.012.03-.019.028-.027l-.004-.025-.12-.794-.022-.191c-.072-.663-.096-1.321-.071-1.974.035-.903.166-1.793.395-2.668 3.694-14.114 31.7-19.01 62.555-10.936s52.872 26.062 49.178 40.176a12.4 12.4 0 0 1-.963 2.519 13.7 13.7 0 0 1-1.635 2.476l-.016.019c.011.02.014.025.015.029l-.611.651-12.932 13.655c-6.807 9.031-27.596 11.752-50.146 5.85-22.302-5.837-38.971-18.182-40.797-29.295-.093-.569-.484-1.054-1.037-1.215L29.127 111.91a8.26 8.26 0 0 1-5.762-9.635l.459-2.172c.39-1.845 2.242-2.99 4.066-2.514l34.249 8.931a.27.27 0 0 0 .331-.331zm-3.657-3.636c-.064-1.544.091-3.085.488-4.603 2.325-8.885 11.93-13.965 23.478-15.984 11.834-2.069 26.992-1.215 42.738 2.906s29.38 10.802 38.683 18.402c9.078 7.417 14.963 16.551 12.638 25.436-.557 2.129-1.552 4.064-2.901 5.789a3.08 3.08 0 0 1-.425.566l-13.429 14.181c-4.171 5.406-12.026 8.46-21.098 9.556-9.3 1.124-20.517.28-32.096-2.751-11.453-2.997-21.548-7.685-29.079-13.141-7.079-5.13-12.321-11.262-13.743-17.657l-35.782-10.464a11.26 11.26 0 0 1-7.855-13.134l.459-2.173c.744-3.519 4.277-5.704 7.758-4.796l30.165 7.867z"/></g><circle cx="76" cy="29" r="29" fill="#f0b90b"/><path fill="#fffdfa" d="M65.185 29l-4.437 4.468L56.28 29l4.468-4.468L65.185 29zM76 18.185l7.642 7.642 4.468-4.468-7.641-7.611L76 9.28 63.921 21.358l4.468 4.468L76 18.185zm15.252 6.347L86.815 29l4.468 4.468L95.72 29l-4.468-4.468zM76 39.815l-7.641-7.642-4.437 4.468L76 48.72l12.109-12.109-4.468-4.437L76 39.815zm0-6.347L80.468 29 76 24.532 71.532 29 76 33.468z"/><circle cx="76" cy="29" r="27.5" stroke="#191326" stroke-width="3" opacity=".1" style="mix-blend-mode:multiply"/><circle cx="125.5" cy="72.5" r="43.5" fill="#fffdfa"/><path fill="#51ba1f" d="M130.684 65.825c.771-1.052 1.122-2.385.771-3.718-.491-1.684-1.964-2.736-3.648-3.087-2.737-.631-5.965.702-8.631 1.333l2.105 8.278c.07.14.14 1.052.281 1.122.28.21 1.964-.491 2.315-.561 2.526-.631 5.193-1.122 6.807-3.367zm6.744 9.873c-.281-1.403-1.333-2.455-2.596-3.087-1.965-.912-4.211-.842-6.316-.281l-3.297.842c-.351.07-2.176.281-2.316.631-.07.14.281.982.281 1.122l.631 2.385 1.404 5.331c.07.21.14 1.122.35 1.333s1.684-.351 1.965-.421c2.386-.631 5.122-1.052 7.227-2.455 1.614-1.263 3.088-3.227 2.667-5.401zM169 72.548c0-8.979-2.807-17.818-7.999-25.183a43.67 43.67 0 0 0-20.489-15.713 43.47 43.47 0 0 0-26.875-.982c-8.42 2.385-16.068 7.366-21.681 14.17-5.684 6.874-9.122 15.433-9.823 24.271-.702 9.049 1.403 18.168 6.105 25.885 4.491 7.506 11.297 13.539 19.226 17.117 8.279 3.788 17.752 4.84 26.663 3.016 8.631-1.754 16.63-6.173 22.735-12.557s10.244-14.59 11.578-23.359c.421-2.175.561-4.419.561-6.664zm-23.366 7.646c-1.052 2.596-3.158 4.7-5.543 6.033-.772.421-1.684.842-2.526 1.122-.351.14-.772.21-1.123.351-.351.07-1.263.14-1.544.421s.141 1.263.281 1.684l.842 3.367.421 1.543c.07.21.281.772.281.982-.07.351.14.07-.211.281s-1.052.281-1.403.351c-.983.281-1.965.491-2.947.772l-1.684-6.454c-.07-.281-.141-.982-.281-1.122-.14-.21-.21-.07-.561 0l-3.228.842 1.684 6.524c.07.21.351.912.281 1.122-.07.14-.281.14-.562.21-1.192.281-2.526.912-3.719.982-.35 0-.21.14-.35-.07-.211-.21-.281-.982-.351-1.263l-1.053-4.069c-.07-.351-.28-2.034-.561-2.245-.281-.14-1.965.491-2.245.561l-7.298 1.894-.14-4.77c0-.421-.141-.912.14-1.122.211-.14.772-.21 1.053-.281l1.543-.421c.983-.21 1.895-.631 1.825-1.824 0-.281-.141-.491-.141-.772-.28-1.193-.631-2.455-.912-3.648l-4.07-15.784c-.35-1.263-.771-2.525-2.315-2.666-.842-.07-1.825.351-2.667.561-.35.07-1.754.631-2.034.491-.141-.14-.211-.772-.281-.982l-.421-1.613c-.211-.772-.421-1.543-.561-2.245l7.648-1.964c.421-.14 1.824-.281 1.894-.631.071-.281-.28-1.193-.35-1.473l-.632-2.385c-.351-1.263-.631-2.525-.982-3.788.631-.14 1.263-.351 1.824-.491.702-.211 1.824-.702 2.526-.631.351 0 .281.14.421.631l.632 2.525c.28.982.491 1.964.771 2.876.071.281.211 1.473.421 1.614s1.404-.351 1.685-.421c.701-.14 1.333-.351 2.034-.491l-1.964-7.716 4.069-1.052c.421-.14.421-.21.632.07.281.351.351 1.333.491 1.754l1.263 4.981c.07.281.07.701.281.772s1.052-.281 1.193-.281c.842-.21 1.754-.281 2.596-.281 5.122 0 10.315 3.437 10.034 9.049-.07 2.175-1.193 4.209-2.666 5.752 4.21.561 7.999 3.227 8.981 7.506.351 1.754.281 3.578-.421 5.331z"/><circle cx="125.5" cy="72.5" r="42.082" stroke="#191326" stroke-width="2.837" opacity=".2" style="mix-blend-mode:multiply"/><defs><linearGradient id="A" x1="124.757" x2="111.381" y1="87.774" y2="138.886" gradientUnits="userSpaceOnUse"><stop stop-color="#404042"/><stop offset="1" stop-color="#48484b"/></linearGradient><linearGradient id="B" x1="65.567" x2="60.735" y1="105.096" y2="123.129" gradientUnits="userSpaceOnUse"><stop stop-color="#404042"/><stop offset="1" stop-color="#48484b"/></linearGradient><linearGradient id="C" x1="92.495" x2="108.09" y1="80.169" y2="164.62" gradientUnits="userSpaceOnUse"><stop stop-color="#404042"/><stop offset="1" stop-color="#48484b"/></linearGradient></defs></svg>