<svg width="160" height="160" viewBox="0 0 160 160" fill="none" xmlns="http://www.w3.org/2000/svg">
<g clip-path="url(#clip0)">
<path d="M48.045 119.028C44.8667 131.172 63.0449 146.449 88.6472 153.149C114.25 159.85 137.581 155.436 140.759 143.291C143.937 131.147 125.759 115.87 100.157 109.17C74.5546 102.469 51.2233 106.883 48.045 119.028Z" fill="#606063"/>
<path d="M136.924 149.273L152.346 132.988L42.9922 104.37L48.7128 126.188L136.924 149.273Z" fill="#606063"/>
<path d="M49.9337 108.293L8.07245 97.338C6.25796 96.8632 4.41259 97.9924 4.00962 99.8242L3.54142 101.953C2.60839 106.194 5.11954 110.433 9.28748 111.653L51.0994 123.892L49.9337 108.293Z" fill="#606063"/>
<path d="M43.2026 98.7094C39.5089 112.823 61.5267 130.811 92.3808 138.886C123.235 146.96 151.241 142.064 154.935 127.95C158.629 113.836 136.611 95.8485 105.757 87.7739C74.9028 79.6993 46.8963 84.5953 43.2026 98.7094Z" fill="url(#paint0_linear)"/>
<path fill-rule="evenodd" clip-rule="evenodd" d="M127.673 123.286C134.771 128.506 138.919 134.152 139.538 139.157L142.516 138.789C141.744 132.551 136.779 126.258 129.45 120.869C122.061 115.434 112.011 110.721 100.537 107.718C89.0628 104.716 77.9927 103.902 68.888 105.019C59.8593 106.128 52.4479 109.182 48.7196 114.242L51.1348 116.021C54.1263 111.961 60.5082 109.071 69.2536 107.997C77.9231 106.933 88.6081 107.698 99.7773 110.621C110.946 113.544 120.636 118.111 127.673 123.286Z" fill="#606063"/>
<path fill-rule="evenodd" clip-rule="evenodd" d="M56.7343 118.739C48.0136 111.615 44.7365 104.698 46.1049 99.4689C47.4733 94.24 53.7186 89.8153 64.8112 87.8761C75.6178 85.9869 89.8893 86.7224 104.997 90.6762C120.105 94.63 132.908 100.98 141.403 107.92C150.124 115.045 153.401 121.962 152.033 127.191C150.664 132.419 144.419 136.844 133.326 138.783C122.52 140.673 108.248 139.937 93.1403 135.983C78.0323 132.029 65.2301 125.68 56.7343 118.739ZM92.3808 138.886C61.5267 130.811 39.5089 112.823 43.2026 98.7094C46.8963 84.5953 74.9028 79.6993 105.757 87.7739C136.611 95.8485 158.629 113.836 154.935 127.95C151.241 142.064 123.235 146.96 92.3808 138.886Z" fill="#979797"/>
<path fill-rule="evenodd" clip-rule="evenodd" d="M45.1673 124.049L40.2305 104.926L43.1352 104.177L48.0721 123.299L45.1673 124.049Z" fill="url(#paint1_linear)"/>
<path fill-rule="evenodd" clip-rule="evenodd" d="M43.4691 106.189C43.4241 106.041 43.3812 105.893 43.3406 105.746C43.2656 105.473 43.1983 105.2 43.1386 104.929L42.997 104.389C42.9948 104.38 43.0025 104.372 43.0109 104.375C43.019 104.377 43.0266 104.37 43.0251 104.362C43.0236 104.353 43.0222 104.345 43.0207 104.337C42.9732 104.072 42.9333 103.807 42.9009 103.543C42.8931 103.479 42.8857 103.416 42.8788 103.352C42.8065 102.689 42.7824 102.031 42.8078 101.378C42.8079 101.378 42.8079 101.378 42.8079 101.377C42.8432 100.475 42.9734 99.5849 43.2025 98.7095C46.8962 84.5954 74.9027 79.6994 105.757 87.774C136.611 95.8486 158.629 113.836 154.935 127.95C154.706 128.826 154.383 129.666 153.972 130.469C153.972 130.469 153.972 130.47 153.972 130.47C153.528 131.338 152.981 132.163 152.337 132.945C152.332 132.951 152.326 132.958 152.321 132.964C152.319 132.967 152.318 132.969 152.318 132.972C152.318 132.977 152.322 132.982 152.327 132.983C152.332 132.984 152.335 132.989 152.336 132.993C152.336 132.996 152.335 133 152.333 133.002L151.725 133.644C151.655 133.72 151.584 133.795 151.511 133.87L150.275 135.175L150.273 135.177L138.793 147.299C131.986 156.33 111.197 159.051 88.6472 153.149C66.3446 147.312 49.6757 134.967 47.8505 123.854C47.7571 123.285 47.3667 122.8 46.8135 122.639L10.1271 111.91C5.98342 110.698 3.4722 106.499 4.36483 102.275L4.82393 100.103C5.21371 98.2581 7.06553 97.1133 8.88976 97.589L43.1386 106.52C43.3391 106.573 43.5217 106.39 43.4691 106.189ZM39.8119 102.553C39.7482 101.009 39.9029 99.4681 40.3002 97.9499C42.6255 89.0648 52.2303 83.9845 63.7779 81.9658C75.6114 79.8971 90.7702 80.751 106.516 84.8718C122.262 88.9926 135.896 95.6738 145.199 103.274C154.277 110.691 160.162 119.825 157.837 128.71C157.28 130.839 156.285 132.774 154.936 134.499C154.821 134.697 154.679 134.887 154.511 135.065L153.923 135.686C153.92 135.689 153.916 135.693 153.913 135.697C153.836 135.779 153.759 135.861 153.68 135.943C153.677 135.946 153.673 135.95 153.67 135.953L141.082 149.246C136.911 154.652 129.056 157.706 119.984 158.802C110.684 159.926 99.4667 159.082 87.8877 156.051C76.4351 153.054 66.3397 148.366 58.8095 142.91C51.73 137.78 46.4882 131.648 45.0667 125.253L9.28503 114.789C3.63618 113.137 0.212785 107.413 1.42965 101.655L1.88875 99.4823C2.63251 95.9628 6.16596 93.7783 9.64679 94.6861L39.8119 102.553Z" fill="url(#paint2_linear)"/>
<circle cx="57" cy="29" r="29" fill="#F0B90B"/>
<path d="M46.1848 29L41.7478 33.4678L37.28 29L41.7478 24.5322L46.1848 29ZM57 18.1848L64.6415 25.8263L69.1093 21.3585L61.4678 13.7478L57 9.28003L52.5322 13.7478L44.9215 21.3585L49.3893 25.8263L57 18.1848ZM72.2522 24.5322L67.8152 29L72.283 33.4678L76.72 29L72.2522 24.5322ZM57 39.8152L49.3585 32.1737L44.9215 36.6415L52.563 44.283L57 48.72L61.4678 44.2522L69.1093 36.6107L64.6415 32.1737L57 39.8152ZM57 33.4678L61.4678 29L57 24.5322L52.5322 29L57 33.4678Z" fill="#FFFDFA"/>
<g style="mix-blend-mode:multiply" opacity="0.1">
<path fill-rule="evenodd" clip-rule="evenodd" d="M57 55C71.3594 55 83 43.3594 83 29C83 14.6406 71.3594 3 57 3C42.6406 3 31 14.6406 31 29C31 43.3594 42.6406 55 57 55ZM57 58C73.0163 58 86 45.0163 86 29C86 12.9837 73.0163 0 57 0C40.9837 0 28 12.9837 28 29C28 45.0163 40.9837 58 57 58Z" fill="#191326"/>
</g>
<circle cx="106.5" cy="72.5" r="43.5" fill="#FFFDFA"/>
<path d="M111.684 65.8247C112.455 64.7725 112.806 63.4397 112.455 62.1069C111.964 60.4233 110.491 59.3711 108.807 59.0203C106.07 58.389 102.842 59.7218 100.176 60.3531C100.878 63.0889 101.579 65.8247 102.281 68.6307C102.351 68.771 102.421 69.6829 102.562 69.7531C102.842 69.9635 104.526 69.262 104.877 69.1919C107.403 68.5605 110.07 68.0695 111.684 65.8247Z" fill="#51BA1F"/>
<path d="M118.428 75.6982C118.147 74.2953 117.095 73.243 115.832 72.6117C113.867 71.6998 111.621 71.7699 109.516 72.3311C108.394 72.6117 107.271 72.8923 106.219 73.1729C105.868 73.243 104.043 73.4535 103.903 73.8042C103.833 73.9445 104.184 74.7863 104.184 74.9266C104.394 75.6982 104.605 76.4699 104.815 77.3117C105.306 79.0654 105.727 80.8892 106.219 82.643C106.289 82.8534 106.359 83.7653 106.569 83.9758C106.78 84.1862 108.253 83.625 108.534 83.5549C110.92 82.9236 113.656 82.5027 115.761 81.0997C117.375 79.837 118.849 77.8729 118.428 75.6982Z" fill="#51BA1F"/>
<path d="M150 72.5478C150 63.5688 147.193 54.73 142.001 47.3644C136.949 40.2092 129.721 34.6675 121.512 31.6511C112.951 28.4944 103.408 28.1437 94.6374 30.669C86.2173 33.0541 78.5689 38.0346 72.9555 44.8391C67.2719 51.7136 63.8337 60.2718 63.132 69.1105C62.4303 78.1597 64.5353 87.279 69.2366 94.9954C73.7274 102.501 80.5337 108.534 88.4626 112.112C96.7425 115.9 106.215 116.952 115.126 115.128C123.757 113.374 131.756 108.955 137.861 102.571C143.966 96.1879 148.105 87.9805 149.439 79.2119C149.86 77.0373 150 74.7925 150 72.5478ZM126.634 80.194C125.582 82.7895 123.476 84.894 121.091 86.2268C120.319 86.6477 119.407 87.0686 118.565 87.3492C118.214 87.4894 117.793 87.5596 117.442 87.6999C117.091 87.77 116.179 87.8402 115.898 88.1208C115.618 88.4014 116.039 89.3835 116.179 89.8044C116.46 90.9267 116.74 92.0491 117.021 93.1715C117.161 93.6625 117.302 94.2237 117.442 94.7148C117.512 94.9252 117.723 95.4864 117.723 95.6968C117.653 96.0476 117.863 95.767 117.512 95.9774C117.161 96.1879 116.46 96.258 116.109 96.3282C115.126 96.6088 114.144 96.8192 113.162 97.0998C112.6 94.9252 112.039 92.8208 111.478 90.6461C111.408 90.3655 111.337 89.6641 111.197 89.5238C111.057 89.3133 110.987 89.4536 110.636 89.5238C109.583 89.8044 108.531 90.085 107.408 90.3655C107.969 92.5402 108.531 94.7148 109.092 96.8894C109.162 97.0998 109.443 97.8013 109.373 98.0118C109.303 98.1521 109.092 98.152 108.811 98.2222C107.619 98.5028 106.285 99.1341 105.092 99.2043C104.742 99.2043 104.882 99.3446 104.742 99.1341C104.531 98.9237 104.461 98.152 104.391 97.8715C104.04 96.5386 103.689 95.1357 103.338 93.8028C103.268 93.4521 103.058 91.7685 102.777 91.5581C102.496 91.4178 100.812 92.0491 100.532 92.1193C98.0757 92.7506 95.6899 93.3819 93.2341 94.0133C93.1639 92.3999 93.0937 90.8566 93.0937 89.2432C93.0937 88.8223 92.9534 88.3312 93.2341 88.1208C93.4446 87.9805 94.0059 87.9103 94.2866 87.8402C94.7778 87.6999 95.2689 87.5596 95.8303 87.4193C96.8126 87.2089 97.7248 86.788 97.6547 85.5954C97.6547 85.3148 97.5143 85.1044 97.5143 84.8238C97.2336 83.6313 96.8828 82.3686 96.6021 81.1761C95.6198 77.2477 94.5673 73.3896 93.5849 69.4612C93.2341 68.1284 92.8832 66.7254 92.5324 65.3926C92.1815 64.1299 91.7605 62.8673 90.2168 62.727C89.3748 62.6568 88.3925 63.0777 87.5505 63.2882C87.1996 63.3583 85.7963 63.9195 85.5156 63.7792C85.3752 63.6389 85.3051 63.0076 85.2349 62.7971C85.0946 62.2359 84.9542 61.7449 84.8139 61.1837C84.6034 60.4121 84.3929 59.6404 84.2526 58.9389C86.7786 58.3076 89.3047 57.6061 91.9009 56.9748C92.3219 56.8345 93.7252 56.6942 93.7954 56.3434C93.8656 56.0628 93.5147 55.1509 93.4446 54.8703C93.2341 54.0987 93.0236 53.2569 92.8131 52.4853C92.4622 51.2226 92.1815 49.9599 91.8307 48.6972C92.4622 48.5569 93.0937 48.3465 93.6551 48.2062C94.3568 47.9957 95.4794 47.5047 96.1811 47.5749C96.532 47.5749 96.4618 47.7151 96.6021 48.2062C96.8126 49.048 97.0231 49.8898 97.2336 50.7315C97.5143 51.7136 97.7248 52.6957 98.0055 53.6076C98.0757 53.8882 98.216 55.0808 98.4265 55.2211C98.637 55.3614 99.8299 54.8703 100.111 54.8002C100.812 54.6599 101.444 54.4494 102.145 54.3091C101.514 51.7136 100.812 49.1181 100.181 46.5928C101.514 46.242 102.917 45.8913 104.25 45.5405C104.671 45.4002 104.671 45.3301 104.882 45.6107C105.163 45.9614 105.233 46.9435 105.373 47.3644C105.794 49.048 106.215 50.6614 106.636 52.345C106.706 52.6256 106.706 53.0464 106.917 53.1166C107.127 53.1867 107.969 52.836 108.11 52.836C108.952 52.6256 109.864 52.5554 110.706 52.5554C115.828 52.5554 121.021 55.9927 120.74 61.6046C120.67 63.7792 119.547 65.8135 118.074 67.3568C122.284 67.918 126.073 70.5836 127.055 74.8627C127.406 76.6164 127.336 78.4403 126.634 80.194Z" fill="#51BA1F"/>
<g style="mix-blend-mode:multiply" opacity="0.2">
<path fill-rule="evenodd" clip-rule="evenodd" d="M106.5 113.163C128.958 113.163 147.163 94.9576 147.163 72.5C147.163 50.0424 128.958 31.837 106.5 31.837C84.0424 31.837 65.837 50.0424 65.837 72.5C65.837 94.9576 84.0424 113.163 106.5 113.163ZM106.5 116C130.524 116 150 96.5244 150 72.5C150 48.4756 130.524 29 106.5 29C82.4756 29 63 48.4756 63 72.5C63 96.5244 82.4756 116 106.5 116Z" fill="#191326"/>
</g>
</g>
<defs>
<linearGradient id="paint0_linear" x1="105.757" y1="87.7739" x2="92.3808" y2="138.886" gradientUnits="userSpaceOnUse">
<stop stop-color="#404042"/>
<stop offset="1" stop-color="#48484B"/>
</linearGradient>
<linearGradient id="paint1_linear" x1="46.5673" y1="105.096" x2="41.7353" y2="123.129" gradientUnits="userSpaceOnUse">
<stop stop-color="#404042"/>
<stop offset="1" stop-color="#48484B"/>
</linearGradient>
<linearGradient id="paint2_linear" x1="73.4948" y1="80.1687" x2="89.0896" y2="164.62" gradientUnits="userSpaceOnUse">
<stop stop-color="#404042"/>
<stop offset="1" stop-color="#48484B"/>
</linearGradient>
<clipPath id="clip0">
<rect width="160" height="160" fill="white"/>
</clipPath>
</defs>
</svg>
