<svg xmlns="http://www.w3.org/2000/svg" width="96" height="96" fill="none" viewBox="0 0 96 96"><g clip-path="url(#clip0)"><path fill="#606063" d="M28.8272 71.4167C26.9202 78.7035 37.8272 87.8696 53.1886 91.8897C68.5499 95.9098 82.5487 93.2616 84.4557 85.9748C86.3627 78.688 75.4557 69.5219 60.0943 65.5018C44.733 61.4817 30.7342 64.1299 28.8272 71.4167Z"/><path fill="#606063" d="M82.1546 89.5637L91.4078 79.7928L25.7953 62.6218L29.2277 75.7126L82.1546 89.5637Z"/><path fill="#606063" d="M29.9602 64.976L4.84342 58.4028C3.75473 58.1179 2.6475 58.7955 2.40573 59.8946L2.1248 61.1716C1.56499 63.7164 3.07167 66.2601 5.57244 66.9921L30.6596 74.3351L29.9602 64.976Z"/><path fill="url(#paint0_linear)" d="M25.9216 59.2257C23.7054 67.6942 36.9161 78.4866 55.4285 83.3314C73.9409 88.1762 90.7448 85.2386 92.9611 76.7701C95.1773 68.3017 81.9666 57.5092 63.4542 52.6644C44.9417 47.8197 28.1378 50.7573 25.9216 59.2257Z"/><path fill="#606063" fill-rule="evenodd" d="M76.6038 73.9714C80.8627 77.1035 83.3515 80.4912 83.7229 83.4942L85.5093 83.2733C85.0464 79.5305 82.0671 75.7549 77.6702 72.5213C73.2362 69.2606 67.2064 66.4328 60.322 64.6311C53.4376 62.8294 46.7956 62.341 41.3327 63.0117C35.9155 63.6769 31.4687 65.509 29.2317 68.5452L30.6808 69.6129C32.4757 67.1768 36.3049 65.4426 41.5521 64.7983C46.7538 64.1596 53.1648 64.6187 59.8663 66.3725C66.5678 68.1263 72.3818 70.8665 76.6038 73.9714Z" clip-rule="evenodd"/><path fill="#979797" fill-rule="evenodd" d="M34.0406 71.2435C28.8082 66.9688 26.8419 62.8188 27.663 59.6814C28.484 56.5441 32.2312 53.8892 38.8868 52.7257C45.3707 51.5922 53.9337 52.0335 62.9984 54.4058C72.0632 56.7781 79.7446 60.588 84.8421 64.7524C90.0745 69.027 92.0408 73.1771 91.2197 76.3144C90.3986 79.4518 86.6515 82.1066 79.9959 83.2701C73.512 84.4036 64.949 83.9623 55.8842 81.59C46.8195 79.2178 39.1381 75.4079 34.0406 71.2435ZM55.4285 83.3314C36.9161 78.4866 23.7054 67.6942 25.9216 59.2257C28.1378 50.7573 44.9417 47.8197 63.4542 52.6644C81.9666 57.5092 95.1773 68.3017 92.9611 76.7701C90.7448 85.2386 73.9409 88.1762 55.4285 83.3314Z" clip-rule="evenodd"/><path fill="url(#paint1_linear)" fill-rule="evenodd" d="M27.1004 74.4294L24.1383 62.9559L25.8812 62.5059L28.8433 73.9794L27.1004 74.4294Z" clip-rule="evenodd"/><path fill="url(#paint2_linear)" fill-rule="evenodd" d="M26.0816 63.7137C26.0546 63.6248 26.0289 63.536 26.0045 63.4474C25.9595 63.2836 25.9191 63.1202 25.8833 62.9572L25.7983 62.6332C25.797 62.6281 25.8016 62.6235 25.8067 62.6248C25.8115 62.6261 25.8161 62.6219 25.8152 62.6169C25.8143 62.6121 25.8134 62.6072 25.8126 62.6024C25.7841 62.443 25.7601 62.2841 25.7406 62.1256C25.736 62.0875 25.7316 62.0495 25.7274 62.0114C25.6841 61.6135 25.6695 61.2184 25.6848 60.827C25.6848 60.8268 25.6848 60.8265 25.6849 60.8263C25.706 60.2851 25.7842 59.7509 25.9216 59.2257C28.1378 50.7572 44.9417 47.8196 63.4541 52.6644C81.9666 57.5091 95.1773 68.3016 92.961 76.7701C92.8236 77.2953 92.63 77.7993 92.3834 78.2815C92.3833 78.2817 92.3832 78.2819 92.3831 78.2821C92.1167 78.8027 91.7885 79.2978 91.4024 79.7669C91.3992 79.7707 91.396 79.7746 91.3928 79.7785C91.3916 79.7799 91.3911 79.7816 91.3911 79.7832C91.3912 79.7861 91.3932 79.789 91.3964 79.7898C91.3994 79.7906 91.4013 79.7931 91.4016 79.7958C91.4018 79.7978 91.4012 79.7998 91.3997 79.8015L91.0352 80.1863C90.993 80.2318 90.9502 80.2769 90.9069 80.3219L90.1651 81.1051L90.1638 81.1065L83.2762 88.3794C79.1915 93.798 66.7185 95.4303 53.1885 91.8894C39.8069 88.3874 29.8055 80.9804 28.7104 74.3124C28.6544 73.9712 28.4201 73.6802 28.0882 73.5831L6.07638 67.1458C3.59017 66.4187 2.08344 63.8994 2.61902 61.365L2.89448 60.0615C3.12835 58.9548 4.23944 58.2679 5.33398 58.5534L25.8833 63.9123C26.0036 63.9436 26.1131 63.8339 26.0816 63.7137ZM23.8872 61.5315C23.8491 60.6053 23.9419 59.6808 24.1803 58.7699C25.5754 53.4388 31.3383 50.3907 38.2668 49.1795C45.367 47.9382 54.4622 48.4506 63.9099 50.923C73.3575 53.3955 81.5377 57.4042 87.1196 61.9644C92.5666 66.4143 96.0976 71.8947 94.7024 77.2258C94.368 78.5035 93.7709 79.6641 92.962 80.6991C92.8926 80.8183 92.8077 80.9324 92.7066 81.0392L92.354 81.4114C92.352 81.4136 92.35 81.4157 92.348 81.4179C92.3019 81.4674 92.2553 81.5166 92.2082 81.5655C92.2061 81.5677 92.204 81.5698 92.2019 81.572L84.6491 89.5475C82.147 92.7913 77.4336 94.6236 71.9903 95.2812C66.4106 95.9554 59.6801 95.4489 52.7328 93.6308C45.8612 91.8325 39.8039 89.0196 35.2858 85.7457C31.0381 82.6678 27.893 78.9889 27.0401 75.152L5.57114 68.8734C2.18183 67.8822 0.127793 64.4478 0.857912 60.9929L1.13337 59.6894C1.57963 57.5777 3.6997 56.267 5.7882 56.8116L23.8872 61.5315Z" clip-rule="evenodd"/><path fill="#F7941D" d="M51.0821 21.6045C48.7676 30.9391 39.304 36.5965 29.9947 34.2821C20.6853 31.9677 15.002 22.5045 17.3165 13.1955C19.631 3.8609 29.0689 -1.79647 38.4039 0.51791C47.739 2.858 53.3966 12.2955 51.0821 21.6045Z"/><path fill="#FFFDFA" d="M41.7391 14.8135C42.0734 12.4991 40.3247 11.2648 37.9073 10.4162L38.6788 7.27893L36.7758 6.79033L36.0043 9.85046C35.49 9.72188 34.9757 9.61902 34.487 9.49044L35.2585 6.4046L33.3555 5.91602L32.584 9.05329C32.1726 8.95042 31.7611 8.87328 31.3754 8.77042L28.7523 8.10182L28.2379 10.1333C28.2379 10.1333 29.6524 10.4676 29.6266 10.4676C30.3981 10.6733 30.5524 11.1619 30.5267 11.5734L29.6266 15.1478C29.6781 15.1735 29.7552 15.1735 29.8324 15.1992C29.7809 15.1735 29.7038 15.1735 29.6266 15.1478L28.3665 20.1623C28.2637 20.3937 28.0322 20.7537 27.4922 20.6252C27.5179 20.6509 26.1035 20.2909 26.1035 20.2909L25.152 22.4767L27.6465 23.0938C28.1094 23.2224 28.5723 23.3253 29.0094 23.4539L28.2122 26.6168L30.1153 27.1054L30.8867 23.9682C31.4011 24.1224 31.9154 24.251 32.404 24.3539L31.6325 27.4654L33.5355 27.954L34.3328 24.791C37.5987 25.4082 40.0418 25.1511 41.0704 22.2195C41.8934 19.8537 41.019 18.4908 39.3217 17.5908C40.5561 17.3336 41.4819 16.5107 41.7391 14.8135ZM37.3673 20.9337C36.7758 23.2996 32.7898 22.0138 31.4782 21.7052L32.5326 17.5136C33.8441 17.8222 37.9845 18.4651 37.3673 20.9337ZM37.9588 14.7878C37.4187 16.9479 34.1013 15.8421 33.0212 15.585L33.9727 11.7791C35.0528 12.0363 38.5245 12.5248 37.9588 14.7878Z"/><g style="mix-blend-mode:multiply" opacity=".1"><path fill="#191326" fill-rule="evenodd" d="M34.2001 33C42.8157 33 49.8 26.0156 49.8 17.4C49.8 8.78436 42.8157 1.8 34.2001 1.8C25.5844 1.8 18.6 8.78436 18.6 17.4C18.6 26.0156 25.5844 33 34.2001 33ZM34.2001 34.8C43.8098 34.8 51.6001 27.0098 51.6001 17.4C51.6001 7.79025 43.8098 0 34.2001 0C24.5903 0 16.8 7.79025 16.8 17.4C16.8 27.0098 24.5903 34.8 34.2001 34.8Z" clip-rule="evenodd"/></g><path fill="#FEA200" d="M90 43.5C90 57.9129 78.317 69.6 63.8974 69.6C49.4778 69.6 37.8 57.9129 37.8 43.5C37.8 29.0819 49.4831 17.4 63.9027 17.4C78.3223 17.4 90 29.0819 90 43.5Z"/><path fill="#000" d="M57.4559 57.454L56.9033 59.5274L58.9768 60.0853L59.5294 58.0118L60.0872 55.9383L58.0137 55.3805L57.4559 57.454Z"/><path fill="#000" d="M63.0133 36.7244L62.4555 38.7978L61.9029 40.8713L61.3451 42.9448L60.7925 45.0183L60.2347 47.0917L59.6821 49.1652L59.1243 51.2387L61.1977 51.7913L61.7556 49.7178L62.3082 47.6443L62.866 45.5708L63.4186 43.5026L63.9764 41.4291L64.529 39.3557L65.0868 37.2822L65.6394 35.2087L63.5659 34.6509L63.0133 36.7244Z"/><path fill="#000" d="M65.2342 28.4357L64.6816 30.5092L66.7498 31.0618L67.3077 28.9883L67.8655 26.9148L65.7921 26.3622L65.2342 28.4357Z"/><path fill="#000" d="M63.6765 59.1222L63.1239 61.1957L65.1974 61.7482L65.75 59.68L66.3078 57.6065L64.2343 57.0487L63.6765 59.1222Z"/><path fill="#000" d="M71.4547 30.0987L70.8969 32.1722L72.9703 32.7301L73.5282 30.6566L74.0807 28.5831L72.0073 28.0253L71.4547 30.0987Z"/><path fill="#000" d="M68.9297 56.0894L68.374 58.1633L70.448 58.719L71.0036 56.6451L68.9297 56.0894Z"/><path fill="#000" d="M75.0412 33.2875L74.4855 35.3615L76.5594 35.9171L77.1151 33.8432L75.0412 33.2875Z"/><path fill="#000" d="M71.5608 54.5699L71.0051 56.6438L73.0791 57.1995L73.6347 55.1256L71.5608 54.5699Z"/><path fill="#000" d="M76.562 35.9135L76.0063 37.9874L78.0803 38.5431L78.636 36.4692L76.562 35.9135Z"/><path fill="#000" d="M78.0802 38.54L77.5224 40.6135L76.9698 42.687L76.412 44.7605L75.8594 46.8339L75.3016 48.9074L74.749 50.9809L74.1911 53.0544L73.6333 55.1226L75.7068 55.6804L76.2646 53.6069L76.8172 51.5335L77.375 49.46L77.9329 47.3865L78.4854 45.3183L79.0433 43.2448L79.5959 41.1714L80.1537 39.0979L78.0802 38.54Z"/><path fill="#fff" d="M76.0065 37.9874L76.5644 35.9139L74.4909 35.3561L75.0487 33.2826L70.9018 32.1722L72.0122 28.0252L67.8653 26.9148L66.7548 31.0618L64.6814 30.5039L65.7918 26.357L61.6448 25.2466L60.5344 29.3935L56.3875 28.2831L55.277 32.4301L59.424 33.5405L54.9823 50.123L50.8354 49.0126L50.2776 51.0861L48.2041 50.5282L47.6462 52.607L53.8667 54.2752L52.7563 58.4222L56.9032 59.5326L58.0136 55.3856L60.0871 55.9435L58.9767 60.0904L63.1236 61.2008L64.234 57.0539L68.381 58.1643L68.9388 56.0908L71.0123 56.6487L71.5701 54.5752L73.6436 55.133L78.0853 38.5505L76.0065 37.9874ZM70.044 51.9386L67.9705 51.3808L67.4127 53.4543L59.124 51.2387L63.5657 34.6562L71.8596 36.877L71.3017 38.9505L73.3752 39.503L70.044 51.9386Z"/><g style="mix-blend-mode:multiply" opacity=".2"><path fill="#191326" fill-rule="evenodd" d="M63.9 67.8979C77.3746 67.8979 88.2979 56.9746 88.2979 43.5C88.2979 30.0255 77.3746 19.1022 63.9 19.1022C50.4255 19.1022 39.5022 30.0255 39.5022 43.5C39.5022 56.9746 50.4255 67.8979 63.9 67.8979ZM63.9 69.6C78.3147 69.6 90 57.9147 90 43.5C90 29.0854 78.3147 17.4 63.9 17.4C49.4854 17.4 37.8 29.0854 37.8 43.5C37.8 57.9147 49.4854 69.6 63.9 69.6Z" clip-rule="evenodd"/></g></g><defs><linearGradient id="paint0_linear" x1="63.454" x2="55.428" y1="52.664" y2="83.331" gradientUnits="userSpaceOnUse"><stop stop-color="#404042"/><stop offset="1" stop-color="#48484B"/></linearGradient><linearGradient id="paint1_linear" x1="27.94" x2="25.041" y1="63.058" y2="73.878" gradientUnits="userSpaceOnUse"><stop stop-color="#404042"/><stop offset="1" stop-color="#48484B"/></linearGradient><linearGradient id="paint2_linear" x1="44.097" x2="53.454" y1="48.101" y2="98.772" gradientUnits="userSpaceOnUse"><stop stop-color="#404042"/><stop offset="1" stop-color="#48484B"/></linearGradient><clipPath id="clip0"><rect width="96" height="96" fill="#fff"/></clipPath></defs></svg>