<svg xmlns="http://www.w3.org/2000/svg" width="160" height="160" fill="none" viewBox="0 0 160 160"><g clip-path="url(#clip0)"><path fill="#606063" d="M48.0451 119.027C44.8668 131.172 63.0451 146.449 88.6473 153.149C114.25 159.849 137.581 155.435 140.759 143.291C143.938 131.146 125.759 115.869 100.157 109.169C74.5547 102.469 51.2234 106.882 48.0451 119.027Z"/><path fill="#606063" d="M136.924 149.272L152.346 132.987L42.9921 104.369L48.7127 126.187L136.924 149.272Z"/><path fill="#606063" d="M49.9337 108.293L8.07245 97.3376C6.25796 96.8627 4.41259 97.9919 4.00962 99.8238L3.54142 101.952C2.60839 106.194 5.11954 110.433 9.28748 111.653L51.0994 123.891L49.9337 108.293Z"/><path fill="url(#paint0_linear)" d="M43.2026 98.7087C39.5089 112.823 61.5267 130.81 92.3808 138.885C123.235 146.959 151.241 142.063 154.935 127.949C158.629 113.835 136.611 95.8478 105.757 87.7732C74.9028 79.6986 46.8963 84.5946 43.2026 98.7087Z"/><path fill="#606063" fill-rule="evenodd" d="M127.673 123.285C134.771 128.505 138.919 134.151 139.538 139.156L142.515 138.788C141.744 132.55 136.779 126.258 129.45 120.868C122.06 115.434 112.011 110.721 100.537 107.718C89.0627 104.715 77.9926 103.901 68.8879 105.019C59.8592 106.127 52.4478 109.181 48.7195 114.241L51.1347 116.021C54.1262 111.961 60.5081 109.07 69.2535 107.997C77.923 106.932 88.608 107.697 99.7772 110.62C110.946 113.543 120.636 118.11 127.673 123.285Z" clip-rule="evenodd"/><path fill="#979797" fill-rule="evenodd" d="M56.7343 118.738C48.0136 111.614 44.7365 104.697 46.1049 99.4682C47.4733 94.2393 53.7186 89.8145 64.8112 87.8754C75.6178 85.9862 89.8893 86.7217 104.997 90.6755C120.105 94.6293 132.908 100.979 141.403 107.92C150.124 115.044 153.401 121.961 152.033 127.19C150.664 132.419 144.419 136.843 133.326 138.783C122.52 140.672 108.248 139.936 93.1403 135.983C78.0323 132.029 65.2301 125.679 56.7343 118.738ZM92.3808 138.885C61.5267 130.81 39.5089 112.823 43.2026 98.7087C46.8963 84.5946 74.9028 79.6986 105.757 87.7732C136.611 95.8478 158.629 113.835 154.935 127.949C151.241 142.063 123.235 146.959 92.3808 138.885Z" clip-rule="evenodd"/><path fill="url(#paint1_linear)" fill-rule="evenodd" d="M45.1673 124.048L40.2305 104.926L43.1352 104.176L48.0721 123.298L45.1673 124.048Z" clip-rule="evenodd"/><path fill="url(#paint2_linear)" fill-rule="evenodd" d="M43.4693 106.189C43.4242 106.041 43.3814 105.893 43.3408 105.746C43.2658 105.473 43.1984 105.2 43.1387 104.929L42.9971 104.389C42.9949 104.38 43.0026 104.372 43.0111 104.375C43.0192 104.377 43.0267 104.37 43.0252 104.362C43.0238 104.353 43.0223 104.345 43.0209 104.337C42.9734 104.072 42.9334 103.807 42.901 103.543C42.8932 103.479 42.8859 103.416 42.879 103.352C42.8067 102.689 42.7825 102.031 42.808 101.378C42.808 101.378 42.808 101.378 42.808 101.377C42.8433 100.475 42.9735 99.5849 43.2026 98.7095C46.8963 84.5954 74.9028 79.6994 105.757 87.774C136.611 95.8486 158.629 113.836 154.935 127.95C154.706 128.826 154.383 129.666 153.972 130.469C153.972 130.469 153.972 130.47 153.972 130.47C153.528 131.338 152.981 132.163 152.337 132.945C152.332 132.951 152.327 132.958 152.321 132.964C152.319 132.967 152.318 132.969 152.318 132.972C152.319 132.977 152.322 132.982 152.327 132.983C152.332 132.984 152.335 132.989 152.336 132.993C152.336 132.996 152.335 133 152.333 133.002L151.725 133.644C151.655 133.72 151.584 133.795 151.511 133.87L150.275 135.175L150.273 135.177L138.794 147.299C131.986 156.33 111.197 159.051 88.6474 153.149C66.3447 147.312 49.6758 134.967 47.8506 123.854C47.7572 123.285 47.3668 122.8 46.8136 122.639L10.1272 111.91C5.98354 110.698 3.47232 106.499 4.36495 102.275L4.82405 100.103C5.21384 98.2581 7.06565 97.1133 8.88989 97.589L43.1387 106.52C43.3392 106.573 43.5218 106.39 43.4693 106.189ZM39.812 102.553C39.7484 101.009 39.903 99.4681 40.3003 97.9499C42.6256 89.0648 52.2305 83.9845 63.778 81.9658C75.6116 79.8971 90.7703 80.751 106.516 84.8718C122.262 88.9926 135.896 95.6738 145.199 103.274C154.278 110.691 160.163 119.825 157.837 128.71C157.28 130.839 156.285 132.774 154.937 134.499C154.821 134.697 154.679 134.887 154.511 135.065L153.923 135.686C153.92 135.689 153.917 135.693 153.913 135.697C153.836 135.779 153.759 135.861 153.68 135.943C153.677 135.946 153.673 135.95 153.67 135.953L141.082 149.246C136.912 154.652 129.056 157.706 119.984 158.802C110.684 159.926 99.4668 159.082 87.8878 156.051C76.4352 153.054 66.3398 148.366 58.8097 142.91C51.7301 137.78 46.4883 131.648 45.0668 125.253L9.28515 114.789C3.63631 113.137 0.212907 107.413 1.42977 101.655L1.88887 99.4823C2.63263 95.9628 6.16608 93.7783 9.64691 94.6861L39.812 102.553Z" clip-rule="evenodd"/><circle cx="57" cy="29" r="29" fill="#F0B90B"/><path fill="#FFFDFA" d="M46.1848 29.0003L41.7478 33.4681L37.28 29.0003L41.7478 24.5325L46.1848 29.0003ZM57 18.1851L64.6415 25.8266L69.1093 21.3588L61.4678 13.7481L57 9.28027L52.5322 13.7481L44.9215 21.3588L49.3893 25.8266L57 18.1851ZM72.2522 24.5325L67.8152 29.0003L72.283 33.4681L76.72 29.0003L72.2522 24.5325ZM57 39.8155L49.3585 32.174L44.9215 36.6418L52.563 44.2833L57 48.7203L61.4678 44.2525L69.1093 36.611L64.6415 32.174L57 39.8155ZM57 33.4681L61.4678 29.0003L57 24.5325L52.5322 29.0003L57 33.4681Z"/><g style="mix-blend-mode:multiply" opacity=".1"><path fill="#191326" fill-rule="evenodd" d="M57 55C71.3594 55 83 43.3594 83 29C83 14.6406 71.3594 3 57 3C42.6406 3 31 14.6406 31 29C31 43.3594 42.6406 55 57 55ZM57 58C73.0163 58 86 45.0163 86 29C86 12.9837 73.0163 0 57 0C40.9837 0 28 12.9837 28 29C28 45.0163 40.9837 58 57 58Z" clip-rule="evenodd"/></g><circle cx="106.5" cy="72.5" r="43.5" fill="#fff"/><path fill="#00B2F9" fill-rule="evenodd" d="M105.413 82.1059C114.657 82.1059 122.347 75.4517 123.953 66.6719L124.195 66.7944C130.264 69.9263 134.413 76.2566 134.413 83.5559C134.413 93.9665 125.973 102.406 115.563 102.406H99.8381C95.7095 102.406 92.3625 99.059 92.3625 94.9304V82.1051L105.413 82.1059Z" clip-rule="evenodd"/><path fill="#00CDAA" fill-rule="evenodd" d="M105.412 44.4062C115.823 44.4062 124.262 52.8457 124.262 63.2563C124.262 64.5783 124.126 65.8686 123.867 67.1139C123.897 66.9672 123.926 66.82 123.953 66.6722C121.547 65.4738 118.848 64.7749 115.992 64.711L115.562 64.7062H99.838C95.7818 64.7062 92.4801 67.9368 92.3655 71.9652L92.3624 72.1818V82.1054L89.688 82.1063C85.5593 82.1063 82.2124 78.7593 82.2124 74.6307V51.8818C82.2124 47.7532 85.5593 44.4062 89.688 44.4062H105.412Z" clip-rule="evenodd"/><g style="mix-blend-mode:multiply" opacity=".2"><path fill="#191326" fill-rule="evenodd" d="M106.5 113.163C128.958 113.163 147.163 94.9576 147.163 72.5C147.163 50.0424 128.958 31.837 106.5 31.837C84.0424 31.837 65.837 50.0424 65.837 72.5C65.837 94.9576 84.0424 113.163 106.5 113.163ZM106.5 116C130.524 116 150 96.5244 150 72.5C150 48.4756 130.524 29 106.5 29C82.4756 29 63 48.4756 63 72.5C63 96.5244 82.4756 116 106.5 116Z" clip-rule="evenodd"/></g></g><defs><linearGradient id="paint0_linear" x1="105.757" x2="92.381" y1="87.773" y2="138.885" gradientUnits="userSpaceOnUse"><stop stop-color="#404042"/><stop offset="1" stop-color="#48484B"/></linearGradient><linearGradient id="paint1_linear" x1="46.567" x2="41.735" y1="105.096" y2="123.129" gradientUnits="userSpaceOnUse"><stop stop-color="#404042"/><stop offset="1" stop-color="#48484B"/></linearGradient><linearGradient id="paint2_linear" x1="73.495" x2="89.09" y1="80.169" y2="164.62" gradientUnits="userSpaceOnUse"><stop stop-color="#404042"/><stop offset="1" stop-color="#48484B"/></linearGradient><clipPath id="clip0"><rect width="160" height="160" fill="#fff"/></clipPath></defs></svg>