<svg width="160" height="160" viewBox="0 0 160 160" fill="none" xmlns="http://www.w3.org/2000/svg">
<g clip-path="url(#clip0)">
<path d="M48.045 119.028C44.8667 131.172 63.0449 146.449 88.6472 153.149C114.25 159.85 137.581 155.436 140.759 143.291C143.937 131.147 125.759 115.87 100.157 109.17C74.5546 102.469 51.2233 106.883 48.045 119.028Z" fill="#606063"/>
<path d="M136.924 149.273L152.346 132.988L42.9922 104.37L48.7128 126.188L136.924 149.273Z" fill="#606063"/>
<path d="M49.9337 108.293L8.07245 97.3381C6.25796 96.8632 4.41259 97.9925 4.00962 99.8243L3.54142 101.953C2.60839 106.194 5.11954 110.434 9.28748 111.653L51.0994 123.892L49.9337 108.293Z" fill="#606063"/>
<path d="M43.2026 98.7094C39.5089 112.823 61.5267 130.811 92.3808 138.886C123.235 146.96 151.241 142.064 154.935 127.95C158.629 113.836 136.611 95.8485 105.757 87.7739C74.9028 79.6993 46.8963 84.5953 43.2026 98.7094Z" fill="url(#paint0_linear)"/>
<path fill-rule="evenodd" clip-rule="evenodd" d="M127.673 123.286C134.771 128.506 138.919 134.152 139.538 139.157L142.516 138.789C141.744 132.551 136.779 126.258 129.45 120.869C122.061 115.434 112.011 110.721 100.537 107.718C89.0628 104.716 77.9927 103.902 68.888 105.019C59.8593 106.128 52.4479 109.182 48.7196 114.242L51.1348 116.021C54.1263 111.961 60.5082 109.071 69.2536 107.997C77.9231 106.933 88.6081 107.698 99.7773 110.621C110.946 113.544 120.636 118.111 127.673 123.286Z" fill="#606063"/>
<path fill-rule="evenodd" clip-rule="evenodd" d="M56.7343 118.739C48.0136 111.615 44.7365 104.698 46.1049 99.4689C47.4733 94.24 53.7186 89.8153 64.8112 87.8761C75.6178 85.9869 89.8893 86.7224 104.997 90.6762C120.105 94.63 132.908 100.98 141.403 107.92C150.124 115.045 153.401 121.962 152.033 127.191C150.664 132.419 144.419 136.844 133.326 138.783C122.52 140.673 108.248 139.937 93.1403 135.983C78.0323 132.029 65.2301 125.68 56.7343 118.739ZM92.3808 138.886C61.5267 130.811 39.5089 112.823 43.2026 98.7094C46.8963 84.5953 74.9028 79.6993 105.757 87.7739C136.611 95.8485 158.629 113.836 154.935 127.95C151.241 142.064 123.235 146.96 92.3808 138.886Z" fill="#979797"/>
<path fill-rule="evenodd" clip-rule="evenodd" d="M45.1673 124.049L40.2305 104.926L43.1352 104.177L48.0721 123.299L45.1673 124.049Z" fill="url(#paint1_linear)"/>
<path fill-rule="evenodd" clip-rule="evenodd" d="M43.4691 106.189C43.4241 106.041 43.3812 105.893 43.3406 105.746C43.2656 105.473 43.1983 105.2 43.1386 104.929L42.997 104.389C42.9948 104.38 43.0025 104.372 43.0109 104.375C43.019 104.377 43.0266 104.37 43.0251 104.362C43.0236 104.353 43.0222 104.345 43.0207 104.337C42.9732 104.072 42.9333 103.807 42.9009 103.543C42.8931 103.479 42.8857 103.416 42.8788 103.352C42.8065 102.689 42.7824 102.031 42.8078 101.378C42.8079 101.378 42.8079 101.378 42.8079 101.377C42.8432 100.475 42.9734 99.5849 43.2025 98.7095C46.8962 84.5954 74.9027 79.6994 105.757 87.774C136.611 95.8486 158.629 113.836 154.935 127.95C154.706 128.826 154.383 129.666 153.972 130.469C153.972 130.469 153.972 130.47 153.972 130.47C153.528 131.338 152.981 132.163 152.337 132.945C152.332 132.951 152.326 132.958 152.321 132.964C152.319 132.967 152.318 132.969 152.318 132.972C152.318 132.977 152.322 132.982 152.327 132.983C152.332 132.984 152.335 132.989 152.336 132.993C152.336 132.996 152.335 133 152.333 133.002L151.725 133.644C151.655 133.72 151.584 133.795 151.511 133.87L150.275 135.175L150.273 135.177L138.793 147.299C131.986 156.33 111.197 159.051 88.6472 153.149C66.3446 147.312 49.6757 134.967 47.8505 123.854C47.7571 123.285 47.3667 122.8 46.8135 122.639L10.1271 111.91C5.98342 110.698 3.4722 106.499 4.36483 102.275L4.82393 100.103C5.21371 98.2581 7.06553 97.1133 8.88976 97.589L43.1386 106.52C43.3391 106.573 43.5217 106.39 43.4691 106.189ZM39.8119 102.553C39.7482 101.009 39.9029 99.4681 40.3002 97.9499C42.6255 89.0648 52.2303 83.9845 63.7779 81.9658C75.6114 79.8971 90.7702 80.751 106.516 84.8718C122.262 88.9926 135.896 95.6738 145.199 103.274C154.277 110.691 160.162 119.825 157.837 128.71C157.28 130.839 156.285 132.774 154.936 134.499C154.821 134.697 154.679 134.887 154.511 135.065L153.923 135.686C153.92 135.689 153.916 135.693 153.913 135.697C153.836 135.779 153.759 135.861 153.68 135.943C153.677 135.946 153.673 135.95 153.67 135.953L141.082 149.246C136.911 154.652 129.056 157.706 119.984 158.802C110.684 159.926 99.4667 159.082 87.8877 156.051C76.4351 153.054 66.3397 148.366 58.8095 142.91C51.73 137.78 46.4882 131.648 45.0667 125.253L9.28503 114.789C3.63618 113.137 0.212785 107.413 1.42965 101.655L1.88875 99.4823C2.63251 95.9628 6.16596 93.7783 9.64679 94.6861L39.8119 102.553Z" fill="url(#paint2_linear)"/>
<circle cx="57" cy="29" r="29" fill="#F0B90B"/>
<path d="M46.1848 29L41.7478 33.4678L37.28 29L41.7478 24.5322L46.1848 29ZM57 18.1848L64.6415 25.8263L69.1093 21.3585L61.4678 13.7478L57 9.28003L52.5322 13.7478L44.9215 21.3585L49.3893 25.8263L57 18.1848ZM72.2522 24.5322L67.8152 29L72.283 33.4678L76.72 29L72.2522 24.5322ZM57 39.8152L49.3585 32.1737L44.9215 36.6415L52.563 44.283L57 48.72L61.4678 44.2522L69.1093 36.6107L64.6415 32.1737L57 39.8152ZM57 33.4678L61.4678 29L57 24.5322L52.5322 29L57 33.4678Z" fill="#FFFDFA"/>
<g style="mix-blend-mode:multiply" opacity="0.1">
<path fill-rule="evenodd" clip-rule="evenodd" d="M57 55C71.3594 55 83 43.3594 83 29C83 14.6406 71.3594 3 57 3C42.6406 3 31 14.6406 31 29C31 43.3594 42.6406 55 57 55ZM57 58C73.0163 58 86 45.0163 86 29C86 12.9837 73.0163 0 57 0C40.9837 0 28 12.9837 28 29C28 45.0163 40.9837 58 57 58Z" fill="#191326"/>
</g>
<circle cx="106.5" cy="72.5" r="43.5" fill="#0F1837"/>
<g clip-path="url(#clip1)">
<path d="M98.0802 77.8043L93.255 77.749V65.3064C93.255 64.9848 93.1916 64.6663 93.0685 64.3691C92.9454 64.0719 92.7649 63.802 92.5374 63.5746C92.3098 63.3472 92.0397 63.1669 91.7425 63.0439C91.4453 62.921 91.1267 62.8578 90.8051 62.858C90.4832 62.858 90.1645 62.9214 89.8672 63.0446C89.5698 63.1678 89.2997 63.3484 89.0722 63.5761C88.8447 63.8037 88.6642 64.074 88.5412 64.3714C88.4182 64.6688 88.3549 64.9876 88.3551 65.3094V79.8461C88.3551 79.9014 88.3551 79.9567 88.3551 80.0106C88.3551 80.0644 88.3551 80.0988 88.3551 80.1451C88.3516 80.4668 88.4114 80.7861 88.5313 81.0847C88.6511 81.3833 88.8286 81.6554 89.0536 81.8854C89.2786 82.1154 89.5467 82.2988 89.8426 82.4252C90.1385 82.5516 90.4564 82.6184 90.7782 82.6219L98.0249 82.7042H98.0577C98.7075 82.7077 99.3321 82.453 99.7941 81.9961C100.256 81.5392 100.518 80.9174 100.521 80.2677C100.525 79.6179 100.27 78.9933 99.8131 78.5314C99.3561 78.0694 98.7344 77.8078 98.0846 77.8043H98.0802Z" fill="#C9A31E"/>
<path d="M127.553 58.5395C127.396 58.539 127.242 58.4995 127.104 58.4244C126.986 58.3616 124.215 56.8519 123.002 56.1389C122.801 56.0154 122.636 55.8406 122.524 55.6323C122.413 55.424 122.358 55.1897 122.367 54.9535C122.367 54.535 122.545 53.9924 123.017 53.7263C124.811 52.7158 127.085 51.4841 127.107 51.4841C127.216 51.4253 127.336 51.3884 127.459 51.3757C127.582 51.3631 127.707 51.3748 127.826 51.4103C127.944 51.4457 128.055 51.5042 128.151 51.5824C128.247 51.6606 128.327 51.757 128.386 51.8661C128.445 51.9751 128.482 52.0947 128.494 52.218C128.507 52.3412 128.495 52.4658 128.46 52.5845C128.424 52.7033 128.366 52.8139 128.288 52.91C128.209 53.0062 128.113 53.086 128.004 53.1448C127.985 53.1553 126.31 54.0582 124.708 54.949C126.053 55.7084 127.983 56.7622 128.007 56.7742C128.191 56.8744 128.336 57.0329 128.42 57.2247C128.504 57.4166 128.521 57.6308 128.47 57.8338C128.418 58.0367 128.301 58.2168 128.136 58.3456C127.971 58.4745 127.768 58.5448 127.558 58.5455L127.553 58.5395Z" fill="white"/>
<path d="M115.304 93.6339C113.365 93.6372 111.433 93.4073 109.549 92.9493C104.484 91.7087 101.539 89.2288 101.416 89.1242C101.133 88.883 100.958 88.5392 100.928 88.1684C100.898 87.7977 101.017 87.4304 101.259 87.1473C101.5 86.8643 101.844 86.6886 102.214 86.6591C102.585 86.6295 102.952 86.7484 103.235 86.9896C103.669 87.3544 113.768 95.61 129.019 86.8402C129.179 86.7442 129.356 86.6811 129.54 86.6544C129.725 86.6278 129.913 86.6382 130.093 86.685C130.274 86.7318 130.443 86.8142 130.591 86.9272C130.739 87.0402 130.863 87.1816 130.956 87.3432C131.049 87.5047 131.109 87.6832 131.132 87.8681C131.155 88.0531 131.141 88.2408 131.091 88.4202C131.041 88.5997 130.955 88.7673 130.839 88.9134C130.724 89.0594 130.58 89.1809 130.417 89.2707C124.63 92.601 119.475 93.6339 115.304 93.6339Z" fill="white"/>
<path d="M105.724 82.6847C105.045 82.6843 104.393 82.4141 103.912 81.9335C103.431 81.4529 103.16 80.8011 103.159 80.1211V65.4215C103.159 64.7415 103.429 64.0893 103.91 63.6083C104.391 63.1273 105.043 62.8568 105.723 62.8564C106.403 62.8564 107.055 63.1265 107.536 63.6073C108.016 64.088 108.287 64.7401 108.287 65.42V80.1196C108.287 80.4563 108.221 80.7897 108.092 81.1008C107.963 81.4119 107.775 81.6946 107.537 81.9328C107.299 82.171 107.016 82.36 106.705 82.489C106.394 82.618 106.061 82.6845 105.724 82.6847Z" fill="#C9A41E"/>
<path d="M126.126 82.7699C125.446 82.7699 124.794 82.4997 124.313 82.0186C123.832 81.5376 123.561 80.8851 123.561 80.2049V71.8446C123.524 71.0419 123.329 70.2544 122.986 69.5276C122.402 68.3572 121.491 67.8356 120.01 67.8356H120.002C118.657 67.8356 117.85 68.3587 117.312 69.583C117.016 70.2958 116.846 71.0543 116.808 71.8251V80.1959C116.816 80.5378 116.756 80.878 116.631 81.1963C116.506 81.5147 116.318 81.8048 116.079 82.0495C115.84 82.2943 115.555 82.4888 115.24 82.6216C114.924 82.7544 114.586 82.8228 114.244 82.8228C113.902 82.8228 113.563 82.7544 113.248 82.6216C112.933 82.4888 112.647 82.2943 112.408 82.0495C112.169 81.8048 111.982 81.5147 111.857 81.1963C111.731 80.878 111.671 80.5378 111.679 80.1959V71.8251C111.679 68.1614 113.895 62.707 119.996 62.707H120.007C122.407 62.707 124.478 63.5082 125.995 65.0224C128.612 67.6382 128.686 71.4081 128.686 71.8296V80.2004C128.686 80.5371 128.621 80.8708 128.493 81.1822C128.364 81.4936 128.176 81.7767 127.938 82.0154C127.701 82.254 127.418 82.4434 127.108 82.5729C126.797 82.7024 126.463 82.7693 126.126 82.7699Z" fill="#C9A41E"/>
<path d="M137.452 72.9836L141.753 66.7519C141.952 66.4733 142.094 66.1579 142.17 65.8239C142.246 65.49 142.255 65.1442 142.196 64.8069C142.137 64.4695 142.011 64.1472 141.827 63.8589C141.642 63.5705 141.401 63.3219 141.119 63.1274C140.838 62.9329 140.52 62.7965 140.185 62.7261C139.849 62.6557 139.504 62.6528 139.167 62.7174C138.831 62.7821 138.511 62.9131 138.226 63.1027C137.94 63.2924 137.696 63.537 137.506 63.8221L132.174 71.5486C132.174 71.5486 132.174 71.5606 132.164 71.5666C132.087 71.6833 132.02 71.8057 131.962 71.9328C131.947 71.9657 131.928 71.9986 131.914 72.0329C131.873 72.1398 131.839 72.2492 131.811 72.3603C131.798 72.4156 131.778 72.4709 131.768 72.5262C131.753 72.6173 131.743 72.7091 131.738 72.8013C131.738 72.8775 131.721 72.9507 131.721 73.03C131.721 73.1092 131.733 73.1794 131.741 73.2512C131.747 73.3449 131.758 73.4383 131.775 73.5307C131.787 73.586 131.807 73.6383 131.822 73.6921C131.85 73.8048 131.886 73.9152 131.931 74.0225C131.944 74.0554 131.962 74.0853 131.979 74.1167C132.038 74.245 132.108 74.368 132.188 74.4844C132.188 74.4844 132.188 74.4963 132.198 74.5023L137.272 81.613C137.68 82.1391 138.275 82.4871 138.934 82.5841C139.593 82.6811 140.264 82.5197 140.806 82.1336C141.349 81.7475 141.721 81.1666 141.845 80.5124C141.969 79.8582 141.835 79.1813 141.472 78.6234L137.452 72.9836Z" fill="white"/>
<path d="M105.572 58.1195C107.338 58.1195 108.769 56.688 108.769 54.9221C108.769 53.1563 107.338 51.7248 105.572 51.7248C103.806 51.7248 102.375 53.1563 102.375 54.9221C102.375 56.688 103.806 58.1195 105.572 58.1195Z" fill="white"/>
<path d="M81.7226 71.7713C81.7226 71.7713 84.464 71.5262 84.3683 67.4215C84.2652 62.9985 79.0664 62.8131 79.0664 62.8131H73.3249C72.6669 62.8206 72.0383 63.0871 71.5755 63.555C71.1126 64.0229 70.8529 64.6543 70.8525 65.3124V80.4097C70.8529 81.0724 71.1164 81.7078 71.585 82.1765C72.0536 82.6451 72.6891 82.9085 73.3518 82.9089C73.3518 82.9089 76.2502 82.8865 77.6553 82.9089C83.4371 82.9941 85.8945 80.7998 85.9812 77.1122C86.0903 72.1854 81.7226 71.7713 81.7226 71.7713ZM75.7166 66.6891C75.7166 66.6891 77.3219 66.6667 77.8092 66.6891C78.2965 66.7115 79.9841 66.8759 79.9139 68.8057C79.8436 70.7354 77.6717 70.6428 77.6717 70.6428H75.7166V66.6891ZM77.6702 79.0075H75.7166V74.5426C75.7166 74.5426 77.3219 74.5187 77.8092 74.5426C78.2965 74.5666 81.0604 74.3334 81.1262 76.7729C81.1934 79.1525 77.6702 79.015 77.6702 79.015V79.0075Z" fill="#C9A31E"/>
</g>
<g style="mix-blend-mode:multiply" opacity="0.2">
<path fill-rule="evenodd" clip-rule="evenodd" d="M106.5 113.163C128.958 113.163 147.163 94.9576 147.163 72.5C147.163 50.0424 128.958 31.837 106.5 31.837C84.0424 31.837 65.837 50.0424 65.837 72.5C65.837 94.9576 84.0424 113.163 106.5 113.163ZM106.5 116C130.524 116 150 96.5244 150 72.5C150 48.4756 130.524 29 106.5 29C82.4756 29 63 48.4756 63 72.5C63 96.5244 82.4756 116 106.5 116Z" fill="#191326"/>
</g>
</g>
<defs>
<linearGradient id="paint0_linear" x1="105.757" y1="87.7739" x2="92.3808" y2="138.886" gradientUnits="userSpaceOnUse">
<stop stop-color="#404042"/>
<stop offset="1" stop-color="#48484B"/>
</linearGradient>
<linearGradient id="paint1_linear" x1="46.5673" y1="105.096" x2="41.7353" y2="123.129" gradientUnits="userSpaceOnUse">
<stop stop-color="#404042"/>
<stop offset="1" stop-color="#48484B"/>
</linearGradient>
<linearGradient id="paint2_linear" x1="73.4948" y1="80.1687" x2="89.0896" y2="164.62" gradientUnits="userSpaceOnUse">
<stop stop-color="#404042"/>
<stop offset="1" stop-color="#48484B"/>
</linearGradient>
<clipPath id="clip0">
<rect width="160" height="160" fill="white"/>
</clipPath>
<clipPath id="clip1">
<rect width="71.3638" height="42.2679" fill="white" transform="translate(70.8452 51.3661)"/>
</clipPath>
</defs>
</svg>
