<svg width="160" height="160" viewBox="0 0 160 160" fill="none" xmlns="http://www.w3.org/2000/svg">
<g clip-path="url(#clip0)">
<path d="M48.0451 119.028C44.8668 131.172 63.0451 146.449 88.6473 153.149C114.25 159.849 137.581 155.436 140.759 143.291C143.938 131.146 125.759 115.87 100.157 109.169C74.5547 102.469 51.2234 106.883 48.0451 119.028Z" fill="#606063"/>
<path d="M136.924 149.273L152.346 132.988L42.9921 104.369L48.7127 126.187L136.924 149.273Z" fill="#606063"/>
<path d="M49.9337 108.293L8.07245 97.338C6.25796 96.8632 4.41259 97.9924 4.00962 99.8242L3.54142 101.953C2.60839 106.194 5.11954 110.433 9.28748 111.653L51.0994 123.892L49.9337 108.293Z" fill="#606063"/>
<path d="M43.2026 98.7096C39.5089 112.824 61.5267 130.811 92.3808 138.886C123.235 146.96 151.241 142.064 154.935 127.95C158.629 113.836 136.611 95.8488 105.757 87.7742C74.9028 79.6996 46.8963 84.5955 43.2026 98.7096Z" fill="url(#paint0_linear)"/>
<path fill-rule="evenodd" clip-rule="evenodd" d="M127.673 123.286C134.771 128.506 138.919 134.152 139.538 139.157L142.515 138.789C141.744 132.551 136.779 126.258 129.45 120.869C122.06 115.434 112.011 110.721 100.537 107.718C89.0627 104.716 77.9926 103.901 68.8879 105.019C59.8592 106.128 52.4478 109.182 48.7195 114.242L51.1347 116.021C54.1262 111.961 60.5081 109.071 69.2535 107.997C77.923 106.933 88.608 107.698 99.7772 110.621C110.946 113.544 120.636 118.111 127.673 123.286Z" fill="#606063"/>
<path fill-rule="evenodd" clip-rule="evenodd" d="M56.7343 118.739C48.0136 111.615 44.7365 104.698 46.1049 99.4692C47.4733 94.2403 53.7186 89.8155 64.8112 87.8763C75.6178 85.9872 89.8893 86.7226 104.997 90.6764C120.105 94.6302 132.908 100.98 141.403 107.921C150.124 115.045 153.401 121.962 152.033 127.191C150.664 132.42 144.419 136.844 133.326 138.784C122.52 140.673 108.248 139.937 93.1403 135.984C78.0323 132.03 65.2301 125.68 56.7343 118.739ZM92.3808 138.886C61.5267 130.811 39.5089 112.824 43.2026 98.7096C46.8963 84.5955 74.9028 79.6996 105.757 87.7742C136.611 95.8488 158.629 113.836 154.935 127.95C151.241 142.064 123.235 146.96 92.3808 138.886Z" fill="#979797"/>
<path fill-rule="evenodd" clip-rule="evenodd" d="M45.1673 124.049L40.2305 104.926L43.1352 104.176L48.0721 123.299L45.1673 124.049Z" fill="url(#paint1_linear)"/>
<path fill-rule="evenodd" clip-rule="evenodd" d="M43.4691 106.189C43.4241 106.041 43.3812 105.893 43.3406 105.746C43.2656 105.473 43.1983 105.2 43.1386 104.929L42.997 104.389C42.9948 104.38 43.0025 104.372 43.0109 104.375C43.019 104.377 43.0266 104.37 43.0251 104.362C43.0236 104.353 43.0222 104.345 43.0207 104.337C42.9732 104.072 42.9333 103.807 42.9009 103.543C42.8931 103.479 42.8857 103.416 42.8788 103.352C42.8065 102.689 42.7824 102.031 42.8078 101.378C42.8079 101.378 42.8079 101.378 42.8079 101.377C42.8432 100.475 42.9734 99.5849 43.2025 98.7095C46.8962 84.5954 74.9027 79.6994 105.757 87.774C136.611 95.8486 158.629 113.836 154.935 127.95C154.706 128.826 154.383 129.666 153.972 130.469C153.972 130.469 153.972 130.47 153.972 130.47C153.528 131.338 152.981 132.163 152.337 132.945C152.332 132.951 152.326 132.958 152.321 132.964C152.319 132.967 152.318 132.969 152.318 132.972C152.318 132.977 152.322 132.982 152.327 132.983C152.332 132.984 152.335 132.989 152.336 132.993C152.336 132.996 152.335 133 152.333 133.002L151.725 133.644C151.655 133.72 151.584 133.795 151.511 133.87L150.275 135.175L150.273 135.177L138.793 147.299C131.986 156.33 111.197 159.051 88.6472 153.149C66.3446 147.312 49.6757 134.967 47.8505 123.854C47.7571 123.285 47.3667 122.8 46.8135 122.639L10.1271 111.91C5.98342 110.698 3.4722 106.499 4.36483 102.275L4.82393 100.103C5.21371 98.2581 7.06553 97.1133 8.88976 97.589L43.1386 106.52C43.3391 106.573 43.5217 106.39 43.4691 106.189ZM39.8119 102.553C39.7482 101.009 39.9029 99.4681 40.3002 97.9499C42.6255 89.0648 52.2303 83.9845 63.7779 81.9658C75.6114 79.8971 90.7702 80.751 106.516 84.8718C122.262 88.9926 135.896 95.6738 145.199 103.274C154.277 110.691 160.162 119.825 157.837 128.71C157.28 130.839 156.285 132.774 154.936 134.499C154.821 134.697 154.679 134.887 154.511 135.065L153.923 135.686C153.92 135.689 153.916 135.693 153.913 135.697C153.836 135.779 153.759 135.861 153.68 135.943C153.677 135.946 153.673 135.95 153.67 135.953L141.082 149.246C136.911 154.652 129.056 157.706 119.984 158.802C110.684 159.926 99.4667 159.082 87.8877 156.051C76.4351 153.054 66.3397 148.366 58.8095 142.91C51.73 137.78 46.4882 131.648 45.0667 125.253L9.28503 114.789C3.63618 113.137 0.212785 107.413 1.42965 101.655L1.88875 99.4823C2.63251 95.9628 6.16596 93.7783 9.64679 94.6861L39.8119 102.553Z" fill="url(#paint2_linear)"/>
<circle cx="57" cy="29" r="29" fill="#F0B90B"/>
<path d="M46.1848 29.0003L41.7478 33.4681L37.28 29.0003L41.7478 24.5325L46.1848 29.0003ZM57 18.1851L64.6415 25.8266L69.1093 21.3588L61.4678 13.7481L57 9.28027L52.5322 13.7481L44.9215 21.3588L49.3893 25.8266L57 18.1851ZM72.2522 24.5325L67.8152 29.0003L72.283 33.4681L76.72 29.0003L72.2522 24.5325ZM57 39.8155L49.3585 32.174L44.9215 36.6418L52.563 44.2833L57 48.7203L61.4678 44.2525L69.1093 36.611L64.6415 32.174L57 39.8155ZM57 33.4681L61.4678 29.0003L57 24.5325L52.5322 29.0003L57 33.4681Z" fill="#FFFDFA"/>
<g style="mix-blend-mode:multiply" opacity="0.1">
<path fill-rule="evenodd" clip-rule="evenodd" d="M57 55C71.3594 55 83 43.3594 83 29C83 14.6406 71.3594 3 57 3C42.6406 3 31 14.6406 31 29C31 43.3594 42.6406 55 57 55ZM57 58C73.0163 58 86 45.0163 86 29C86 12.9837 73.0163 0 57 0C40.9837 0 28 12.9837 28 29C28 45.0163 40.9837 58 57 58Z" fill="#191326"/>
</g>
<circle cx="106.5" cy="72.5" r="43.5" fill="white"/>
<path d="M112.587 52.7805C112.587 59.5208 106.237 59.8824 106.237 59.8824C106.237 59.8824 99.8877 59.5208 99.8877 52.795C99.8877 47.1685 104.314 41.7155 105.775 40.0811C106.02 39.8063 106.454 39.8063 106.686 40.0811C108.147 41.7155 112.587 47.154 112.587 52.7805Z" fill="#4A9629"/>
<path d="M112.587 52.8677H99.8877V86.9883H112.587V52.8677Z" fill="#4A9629"/>
<path d="M99.9167 50.8715C104.675 55.6302 100.452 60.3744 100.452 60.3744C100.452 60.3744 95.7076 64.6124 90.9489 59.8537C86.9713 55.8761 86.2481 48.89 86.118 46.6914C86.1035 46.3298 86.3928 46.0261 86.7688 46.0405C88.9384 46.1852 95.939 46.8939 99.9167 50.8715Z" fill="#8BC10F"/>
<path d="M99.9721 50.9349L90.9961 59.9185L108.308 77.2161L117.284 68.2325L99.9721 50.9349Z" fill="#8BC10F"/>
<path d="M121.526 59.9403C116.767 64.699 112.023 60.4755 112.023 60.4755C112.023 60.4755 107.785 55.7313 112.544 50.9726C116.521 46.995 123.507 46.2718 125.706 46.1416C126.068 46.1272 126.371 46.4164 126.357 46.7925C126.227 48.9766 125.503 55.9627 121.526 59.9403Z" fill="#8BC10F"/>
<path d="M121.471 60.0013L112.488 51.0254L92.7163 70.8138L101.7 79.7898L121.471 60.0013Z" fill="#8BC10F"/>
<path d="M121.815 57.2065H90.6886C90.1389 57.2065 89.6182 57.4958 89.3289 57.9731L81.9957 70.094C81.7064 70.5569 81.6919 71.1354 81.9378 71.6272L98.8029 105.068C99.0777 105.603 99.6129 105.936 100.22 105.936H112.283C112.876 105.936 113.426 105.603 113.701 105.068L130.566 71.6272C130.812 71.1354 130.783 70.5569 130.508 70.094L123.16 57.9731C122.886 57.5103 122.365 57.2065 121.815 57.2065Z" fill="#870C85"/>
<g style="mix-blend-mode:multiply" opacity="0.2">
<path fill-rule="evenodd" clip-rule="evenodd" d="M106.5 113.163C128.958 113.163 147.163 94.9576 147.163 72.5C147.163 50.0424 128.958 31.837 106.5 31.837C84.0424 31.837 65.837 50.0424 65.837 72.5C65.837 94.9576 84.0424 113.163 106.5 113.163ZM106.5 116C130.524 116 150 96.5244 150 72.5C150 48.4756 130.524 29 106.5 29C82.4756 29 63 48.4756 63 72.5C63 96.5244 82.4756 116 106.5 116Z" fill="#191326"/>
</g>
</g>
<defs>
<linearGradient id="paint0_linear" x1="105.757" y1="87.7742" x2="92.3808" y2="138.886" gradientUnits="userSpaceOnUse">
<stop stop-color="#404042"/>
<stop offset="1" stop-color="#48484B"/>
</linearGradient>
<linearGradient id="paint1_linear" x1="46.5673" y1="105.096" x2="41.7353" y2="123.129" gradientUnits="userSpaceOnUse">
<stop stop-color="#404042"/>
<stop offset="1" stop-color="#48484B"/>
</linearGradient>
<linearGradient id="paint2_linear" x1="73.4948" y1="80.1687" x2="89.0896" y2="164.62" gradientUnits="userSpaceOnUse">
<stop stop-color="#404042"/>
<stop offset="1" stop-color="#48484B"/>
</linearGradient>
<clipPath id="clip0">
<rect width="160" height="160" fill="white"/>
</clipPath>
</defs>
</svg>
