<svg width="96" height="96" viewBox="0 0 96 96" fill="none" xmlns="http://www.w3.org/2000/svg">
<g clip-path="url(#clip0)">
<path d="M28.8272 71.4166C26.9202 78.7034 37.8272 87.8694 53.1886 91.8896C68.5499 95.9097 82.5487 93.2615 84.4557 85.9747C86.3627 78.6879 75.4557 69.5218 60.0943 65.5017C44.733 61.4816 30.7342 64.1298 28.8272 71.4166Z" fill="#606063"/>
<path d="M82.1546 89.5636L91.4078 79.7927L25.7953 62.6217L29.2277 75.7125L82.1546 89.5636Z" fill="#606063"/>
<path d="M29.9602 64.9761L4.84342 58.403C3.75473 58.118 2.6475 58.7956 2.40573 59.8947L2.1248 61.1717C1.56499 63.7166 3.07167 66.2602 5.57244 66.9922L30.6596 74.3352L29.9602 64.9761Z" fill="#606063"/>
<path d="M25.9216 59.2256C23.7054 67.694 36.9161 78.4865 55.4285 83.3313C73.9409 88.176 90.7448 85.2385 92.9611 76.77C95.1773 68.3016 81.9666 57.5091 63.4542 52.6643C44.9417 47.8196 28.1378 50.7571 25.9216 59.2256Z" fill="url(#paint0_linear)"/>
<path fill-rule="evenodd" clip-rule="evenodd" d="M76.6038 73.9714C80.8627 77.1035 83.3515 80.4912 83.7229 83.4942L85.5093 83.2733C85.0464 79.5305 82.0671 75.7549 77.6702 72.5213C73.2362 69.2606 67.2064 66.4328 60.322 64.6311C53.4376 62.8294 46.7956 62.341 41.3327 63.0117C35.9155 63.6769 31.4687 65.509 29.2317 68.5452L30.6808 69.6129C32.4757 67.1768 36.3049 65.4426 41.5521 64.7983C46.7538 64.1596 53.1648 64.6187 59.8663 66.3725C66.5678 68.1263 72.3818 70.8665 76.6038 73.9714Z" fill="#606063"/>
<path fill-rule="evenodd" clip-rule="evenodd" d="M34.0406 71.2434C28.8082 66.9687 26.8419 62.8187 27.663 59.6813C28.484 56.544 32.2312 53.8891 38.8868 52.7256C45.3707 51.5921 53.9337 52.0334 62.9984 54.4057C72.0632 56.778 79.7446 60.5879 84.8421 64.7522C90.0745 69.0269 92.0408 73.1769 91.2197 76.3143C90.3986 79.4516 86.6515 82.1065 79.9959 83.27C73.512 84.4035 64.949 83.9622 55.8842 81.5899C46.8195 79.2176 39.1381 75.4077 34.0406 71.2434ZM55.4285 83.3313C36.9161 78.4865 23.7054 67.694 25.9216 59.2256C28.1378 50.7571 44.9417 47.8196 63.4542 52.6643C81.9666 57.5091 95.1773 68.3016 92.9611 76.77C90.7448 85.2385 73.9409 88.176 55.4285 83.3313Z" fill="#979797"/>
<path fill-rule="evenodd" clip-rule="evenodd" d="M27.1004 74.4294L24.1383 62.9559L25.8812 62.5059L28.8433 73.9794L27.1004 74.4294Z" fill="url(#paint1_linear)"/>
<path fill-rule="evenodd" clip-rule="evenodd" d="M26.0816 63.7138C26.0546 63.6249 26.0289 63.5362 26.0045 63.4475C25.9595 63.2838 25.9191 63.1204 25.8833 62.9573L25.7983 62.6333C25.797 62.6282 25.8016 62.6236 25.8067 62.6249C25.8115 62.6262 25.8161 62.622 25.8152 62.617C25.8143 62.6122 25.8134 62.6073 25.8126 62.6025C25.7841 62.4431 25.7601 62.2842 25.7406 62.1257C25.736 62.0876 25.7316 62.0496 25.7274 62.0115C25.6841 61.6136 25.6695 61.2186 25.6848 60.8272C25.6848 60.8269 25.6848 60.8267 25.6849 60.8264C25.706 60.2852 25.7842 59.751 25.9216 59.2258C28.1378 50.7573 44.9417 47.8198 63.4541 52.6645C81.9666 57.5093 95.1773 68.3018 92.961 76.7702C92.8236 77.2955 92.63 77.7994 92.3834 78.2816C92.3833 78.2818 92.3832 78.282 92.3831 78.2822C92.1167 78.8028 91.7885 79.2979 91.4024 79.767C91.3992 79.7709 91.396 79.7748 91.3928 79.7787C91.3916 79.7801 91.3911 79.7817 91.3911 79.7833C91.3912 79.7863 91.3932 79.7891 91.3964 79.79C91.3994 79.7907 91.4013 79.7932 91.4016 79.796C91.4018 79.7979 91.4012 79.8 91.3997 79.8016L91.0352 80.1865C90.993 80.2319 90.9502 80.2771 90.9069 80.322L90.1651 81.1053L90.1638 81.1066L83.2762 88.3796C79.1915 93.7981 66.7185 95.4304 53.1885 91.8896C39.8069 88.3875 29.8055 80.9805 28.7104 74.3125C28.6544 73.9713 28.4201 73.6803 28.0882 73.5832L6.07638 67.1459C3.59017 66.4188 2.08344 63.8995 2.61902 61.3652L2.89448 60.0617C3.12835 58.955 4.23944 58.2681 5.33398 58.5535L25.8833 63.9124C26.0036 63.9438 26.1131 63.834 26.0816 63.7138ZM23.8872 61.5317C23.8491 60.6054 23.9419 59.681 24.1803 58.7701C25.5754 53.439 31.3383 50.3908 38.2668 49.1796C45.367 47.9384 54.4622 48.4507 63.9099 50.9232C73.3575 53.3956 81.5377 57.4044 87.1196 61.9645C92.5666 66.4144 96.0976 71.8948 94.7024 77.2259C94.368 78.5036 93.7709 79.6643 92.962 80.6992C92.8926 80.8184 92.8077 80.9325 92.7066 81.0393L92.354 81.4116C92.352 81.4137 92.35 81.4159 92.348 81.418C92.3019 81.4675 92.2553 81.5167 92.2082 81.5656C92.2061 81.5678 92.204 81.5699 92.2019 81.5721L84.6491 89.5476C82.147 92.7914 77.4336 94.6237 71.9903 95.2813C66.4106 95.9555 59.6801 95.4491 52.7328 93.6309C45.8612 91.8326 39.8039 89.0197 35.2858 85.7459C31.0381 82.6679 27.893 78.989 27.0401 75.1521L5.57114 68.8735C2.18183 67.8823 0.127793 64.448 0.857912 60.993L1.13337 59.6895C1.57963 57.5778 3.6997 56.2671 5.7882 56.8117L23.8872 61.5317Z" fill="url(#paint2_linear)"/>
<circle cx="34.2001" cy="17.4" r="17.4" fill="#F0B90B"/>
<path d="M27.7109 17.4001L25.0487 20.0808L22.368 17.4001L25.0487 14.7194L27.7109 17.4001ZM34.2 10.911L38.7849 15.4959L41.4656 12.8152L36.8807 8.2488L34.2 5.56812L31.5194 8.2488L26.9529 12.8152L29.6336 15.4959L34.2 10.911ZM43.3514 14.7194L40.6892 17.4001L43.3698 20.0808L46.032 17.4001L43.3514 14.7194ZM34.2 23.8892L29.6151 19.3043L26.9529 21.985L31.5378 26.5699L34.2 29.2321L36.8807 26.5514L41.4656 21.9665L38.7849 19.3043L34.2 23.8892ZM34.2 20.0808L36.8807 17.4001L34.2 14.7194L31.5194 17.4001L34.2 20.0808Z" fill="#FFFDFA"/>
<g style="mix-blend-mode:multiply" opacity="0.1">
<path fill-rule="evenodd" clip-rule="evenodd" d="M34.2001 33C42.8157 33 49.8 26.0156 49.8 17.4C49.8 8.78436 42.8157 1.8 34.2001 1.8C25.5844 1.8 18.6 8.78436 18.6 17.4C18.6 26.0156 25.5844 33 34.2001 33ZM34.2001 34.8C43.8098 34.8 51.6001 27.0098 51.6001 17.4C51.6001 7.79025 43.8098 0 34.2001 0C24.5903 0 16.8 7.79025 16.8 17.4C16.8 27.0098 24.5903 34.8 34.2001 34.8Z" fill="#191326"/>
</g>
<ellipse cx="63.9334" cy="43.5331" rx="24.2511" ry="24.2511" fill="white"/>
<path d="M89.4701 38.2457C89.127 36.5677 88.6145 34.9172 87.947 33.339C87.2926 31.7913 86.4818 30.2986 85.5393 28.9029C84.6069 27.5217 83.5355 26.223 82.3555 25.0444C81.1755 23.8645 79.8768 22.7931 78.497 21.8607C77.1013 20.9181 75.6086 20.1073 74.0609 19.4529C72.4828 18.7855 70.8322 18.2729 69.1542 17.9298C67.4356 17.578 65.6664 17.3999 63.9 17.3999C62.1323 17.3999 60.3645 17.578 58.6459 17.9298C56.9678 18.2729 55.3173 18.7855 53.7392 19.4529C52.1915 20.1073 50.6988 20.9181 49.303 21.8607C47.9218 22.7931 46.6231 23.8645 45.4446 25.0444C44.2646 26.2244 43.1932 27.5231 42.2608 28.9029C41.3183 30.2986 40.5075 31.7913 39.8531 33.339C39.1856 34.9172 38.6731 36.5677 38.33 38.2457C37.9781 39.9643 37.8 41.7335 37.8 43.4999C37.8 45.2677 37.9781 47.0355 38.33 48.7541C38.6731 50.4321 39.1856 52.0826 39.8531 53.6608C40.5075 55.2085 41.3183 56.7012 42.2608 58.0969C43.1932 59.4781 44.2646 60.7768 45.4446 61.9554C46.6246 63.1354 47.9233 64.2067 49.303 65.1391C50.6988 66.0817 52.1915 66.8925 53.7392 67.5469C55.3173 68.2143 56.9678 68.7269 58.6459 69.07C60.3645 69.4218 62.1337 69.5999 63.9 69.5999C65.6678 69.5999 67.4356 69.4218 69.1542 69.07C70.8322 68.7269 72.4828 68.2143 74.0609 67.5469C75.6086 66.8925 77.1013 66.0817 78.497 65.1391C79.8783 64.2067 81.177 63.1354 82.3555 61.9554C83.5355 60.7754 84.6069 59.4767 85.5393 58.0969C86.4818 56.7012 87.2926 55.2085 87.947 53.6608C88.6145 52.0826 89.127 50.4321 89.4701 48.7541C89.822 47.0355 90 45.2663 90 43.4999C90 41.7335 89.822 39.9658 89.4701 38.2457ZM63.9 66.3394C51.2866 66.3394 41.062 56.1148 41.062 43.5013C41.062 30.8879 51.2866 20.6633 63.9 20.6633C76.5135 20.6633 86.7381 30.8879 86.7381 43.5013C86.7381 56.1148 76.5135 66.3394 63.9 66.3394Z" fill="black"/>
<path d="M64.3055 64.3776C64.3793 64.3762 64.4517 64.3747 64.5256 64.3718C64.5603 64.3704 64.5951 64.3704 64.6298 64.3689C64.7051 64.3661 64.7804 64.3632 64.8571 64.3603C64.8846 64.3588 64.9136 64.3574 64.9411 64.3559C65.0453 64.3501 65.1481 64.3458 65.2524 64.3386C65.2582 64.3386 65.2654 64.3371 65.2712 64.3371C65.3682 64.3313 65.4638 64.3241 65.5608 64.3168C65.5883 64.3139 65.6172 64.3125 65.6447 64.3096C65.7215 64.3038 65.7982 64.2966 65.8764 64.2893C65.9053 64.2864 65.9343 64.2835 65.9618 64.2806C66.0472 64.2719 66.1327 64.2633 66.2181 64.2546C66.234 64.2531 66.2514 64.2517 66.2673 64.2488C66.373 64.2372 66.4787 64.2242 66.5844 64.2111C66.5873 64.2111 66.5902 64.2097 66.5931 64.2097C66.693 64.1967 66.7914 64.1836 66.8899 64.1691C66.9101 64.1663 66.9319 64.1634 66.9521 64.1605C67.0361 64.1474 67.1201 64.1359 67.2055 64.1214C67.2258 64.1185 67.246 64.1156 67.2649 64.1112C67.3648 64.0953 67.4647 64.0779 67.5646 64.0606C67.5646 64.0606 67.5646 64.0606 67.566 64.0606C67.7759 64.0229 67.9844 63.9824 68.1915 63.9389C68.2059 63.9361 68.2219 63.9332 68.2363 63.9288C68.3261 63.91 68.4173 63.8897 68.5071 63.8694C68.5201 63.8666 68.5317 63.8637 68.5447 63.8608C68.7532 63.813 68.9603 63.7638 69.1659 63.7102C66.6003 63.7942 64.5111 63.4351 63.1849 63.1513C60.2328 62.5201 57.4153 61.3647 55.0379 59.3696C51.0723 56.041 49.041 51.2777 49.0917 46.5447C49.1294 43.0019 50.334 39.475 52.7649 36.5793C55.8096 32.9525 60.1604 31.0501 64.6095 30.9618C64.8151 30.9574 65.0193 30.9574 65.2249 30.9618V27.4117C64.9961 27.4088 64.7674 27.4088 64.5386 27.4131C63.1849 27.4406 61.8312 27.6057 60.5165 27.9068C59.1889 28.2109 57.8916 28.6539 56.6639 29.2244C55.41 29.8064 54.2185 30.526 53.1225 31.3599C51.9961 32.217 50.9609 33.2059 50.0458 34.2976C49.1916 35.3154 48.4416 36.423 47.8176 37.587C47.2095 38.7236 46.7144 39.9267 46.3466 41.1632C45.9861 42.3764 45.7429 43.6332 45.6256 44.9C45.5894 45.2938 45.5648 45.6891 45.5518 46.0858C45.5474 46.2378 45.5445 46.3898 45.5431 46.5418C45.5431 46.6186 45.5445 46.6953 45.546 46.772C45.5735 48.1258 45.7385 49.4795 46.0397 50.7941C46.3437 52.1218 46.7897 53.4176 47.3572 54.6468C48.0348 56.112 49.2466 58.2808 51.0246 59.9371C51.026 59.9386 51.0275 59.94 51.0289 59.9415C54.5761 62.7228 59.0455 64.3805 63.9016 64.3805C64.0058 64.3805 64.1086 64.3791 64.2128 64.3776C64.2432 64.3791 64.2736 64.3776 64.3055 64.3776Z" fill="black"/>
<path d="M70.1431 60.9289C68.8994 60.9071 67.3966 60.7189 66.2021 60.5018C60.683 59.4984 55.9399 56.1423 54.1939 51.0445C52.0684 44.8435 55.3318 38.1589 61.4822 36.1145C62.6839 35.7149 63.9073 35.5224 65.1134 35.5166C66.7045 35.5093 68.2667 35.8293 69.7102 36.4316L71.2058 33.2478C70.7585 33.0582 70.3024 32.8888 69.8376 32.7396C68.2986 32.2488 66.7031 32.0041 65.0974 32.0114C63.4817 32.0186 61.8833 32.2821 60.3442 32.7932C58.3766 33.4476 56.6016 34.4712 55.0654 35.8351C54.3299 36.4895 53.6538 37.2207 53.0588 38.0083C52.4709 38.7858 51.9555 39.6255 51.527 40.5029C51.0998 41.3788 50.7553 42.2997 50.5033 43.2422C50.2485 44.192 50.0864 45.1707 50.0198 46.1523C49.8822 48.1894 50.1515 50.2135 50.8219 52.1666C51.4908 54.1183 52.5694 55.9107 54.0288 57.4917C55.3405 58.9135 56.8709 59.9921 58.7313 60.9694C60.6671 61.9858 63.043 62.5331 65.526 62.8762C67.1273 63.0977 69.2657 63.144 70.5355 63.1382C71.6358 62.7314 72.0991 62.5591 72.6913 62.3057C73.2096 62.0683 73.7149 61.8106 74.2086 61.5326C74.7154 61.2315 74.8051 61.1851 75.6521 60.6306C75.7274 60.577 75.8027 60.522 75.8765 60.4685C72.991 60.9853 72.2338 60.9651 70.1431 60.9289Z" fill="black"/>
<path d="M76.7408 56.9415C75.9141 56.998 74.7414 57.0646 73.3978 57.0646C71.019 57.0646 68.1002 56.8575 65.5984 56.0236C61.7529 54.7422 58.0943 51.4325 58.0943 47.3771C58.0943 43.3218 61.3808 40.0367 65.4348 40.0367C68.19 40.0367 70.589 41.554 71.8457 43.7996L75.0324 42.2272C74.53 41.2919 73.8959 40.4363 73.1357 39.6776C72.1367 38.6786 70.9727 37.8939 69.6754 37.3451C68.3304 36.7762 66.9043 36.488 65.4348 36.488C63.9667 36.488 62.5391 36.7762 61.1941 37.3451C59.8968 37.8939 58.7328 38.6786 57.7338 39.6776C56.7348 40.6766 55.95 41.8407 55.4013 43.1379C54.8323 44.4829 54.5442 45.9091 54.5442 47.3786C54.5442 48.8568 54.8613 50.3148 55.4853 51.709C56.0355 52.9397 56.8173 54.1009 57.809 55.1621C59.5624 57.04 61.9296 58.5428 64.4748 59.3912C66.9101 60.2035 70.5166 60.4829 73.9929 60.2425C74.96 60.1759 75.6926 60.0717 76.9233 59.8227C78.109 58.8758 79.1891 57.8015 80.1432 56.6215C79.3281 56.7084 77.792 56.8691 76.7408 56.9415Z" fill="black"/>
<g style="mix-blend-mode:multiply" opacity="0.2">
<path fill-rule="evenodd" clip-rule="evenodd" d="M63.9 67.8977C77.3746 67.8977 88.2979 56.9745 88.2979 43.4999C88.2979 30.0254 77.3746 19.1021 63.9 19.1021C50.4255 19.1021 39.5022 30.0254 39.5022 43.4999C39.5022 56.9745 50.4255 67.8977 63.9 67.8977ZM63.9 69.5999C78.3147 69.5999 90 57.9145 90 43.4999C90 29.0853 78.3147 17.3999 63.9 17.3999C49.4854 17.3999 37.8 29.0853 37.8 43.4999C37.8 57.9145 49.4854 69.5999 63.9 69.5999Z" fill="#191326"/>
</g>
</g>
<defs>
<linearGradient id="paint0_linear" x1="63.4542" y1="52.6643" x2="55.4285" y2="83.3313" gradientUnits="userSpaceOnUse">
<stop stop-color="#404042"/>
<stop offset="1" stop-color="#48484B"/>
</linearGradient>
<linearGradient id="paint1_linear" x1="27.9404" y1="63.0577" x2="25.0412" y2="73.8776" gradientUnits="userSpaceOnUse">
<stop stop-color="#404042"/>
<stop offset="1" stop-color="#48484B"/>
</linearGradient>
<linearGradient id="paint2_linear" x1="44.097" y1="48.1013" x2="53.4539" y2="98.7723" gradientUnits="userSpaceOnUse">
<stop stop-color="#404042"/>
<stop offset="1" stop-color="#48484B"/>
</linearGradient>
<clipPath id="clip0">
<rect width="96" height="96" fill="white"/>
</clipPath>
</defs>
</svg>
