<svg width="160" height="160" viewBox="0 0 160 160" fill="none" xmlns="http://www.w3.org/2000/svg">
<g clip-path="url(#clip0)">
<path d="M48.045 119.028C44.8667 131.172 63.0449 146.449 88.6472 153.149C114.25 159.85 137.581 155.436 140.759 143.291C143.937 131.147 125.759 115.87 100.157 109.17C74.5546 102.469 51.2233 106.883 48.045 119.028Z" fill="#606063"/>
<path d="M136.924 149.273L152.346 132.988L42.9922 104.37L48.7128 126.188L136.924 149.273Z" fill="#606063"/>
<path d="M49.9337 108.293L8.07245 97.338C6.25796 96.8632 4.41259 97.9924 4.00962 99.8242L3.54142 101.953C2.60839 106.194 5.11954 110.433 9.28748 111.653L51.0994 123.892L49.9337 108.293Z" fill="#606063"/>
<path d="M43.2026 98.7094C39.5089 112.823 61.5267 130.811 92.3808 138.886C123.235 146.96 151.241 142.064 154.935 127.95C158.629 113.836 136.611 95.8485 105.757 87.7739C74.9028 79.6993 46.8963 84.5953 43.2026 98.7094Z" fill="url(#paint0_linear)"/>
<path fill-rule="evenodd" clip-rule="evenodd" d="M127.673 123.286C134.771 128.506 138.919 134.152 139.538 139.157L142.516 138.789C141.744 132.551 136.779 126.258 129.45 120.869C122.061 115.434 112.011 110.721 100.537 107.718C89.0628 104.716 77.9927 103.902 68.888 105.019C59.8593 106.128 52.4479 109.182 48.7196 114.242L51.1348 116.021C54.1263 111.961 60.5082 109.071 69.2536 107.997C77.9231 106.933 88.6081 107.698 99.7773 110.621C110.946 113.544 120.636 118.111 127.673 123.286Z" fill="#606063"/>
<path fill-rule="evenodd" clip-rule="evenodd" d="M56.7343 118.739C48.0136 111.615 44.7365 104.698 46.1049 99.4689C47.4733 94.24 53.7186 89.8153 64.8112 87.8761C75.6178 85.9869 89.8893 86.7224 104.997 90.6762C120.105 94.63 132.908 100.98 141.403 107.92C150.124 115.045 153.401 121.962 152.033 127.191C150.664 132.419 144.419 136.844 133.326 138.783C122.52 140.673 108.248 139.937 93.1403 135.983C78.0323 132.029 65.2301 125.68 56.7343 118.739ZM92.3808 138.886C61.5267 130.811 39.5089 112.823 43.2026 98.7094C46.8963 84.5953 74.9028 79.6993 105.757 87.7739C136.611 95.8485 158.629 113.836 154.935 127.95C151.241 142.064 123.235 146.96 92.3808 138.886Z" fill="#979797"/>
<path fill-rule="evenodd" clip-rule="evenodd" d="M45.1673 124.049L40.2305 104.926L43.1352 104.177L48.0721 123.299L45.1673 124.049Z" fill="url(#paint1_linear)"/>
<path fill-rule="evenodd" clip-rule="evenodd" d="M43.4691 106.189C43.4241 106.041 43.3812 105.893 43.3406 105.746C43.2656 105.473 43.1983 105.2 43.1386 104.929L42.997 104.389C42.9948 104.38 43.0025 104.372 43.0109 104.375C43.019 104.377 43.0266 104.37 43.0251 104.362C43.0236 104.353 43.0222 104.345 43.0207 104.337C42.9732 104.072 42.9333 103.807 42.9009 103.543C42.8931 103.479 42.8857 103.416 42.8788 103.352C42.8065 102.689 42.7824 102.031 42.8078 101.378C42.8079 101.378 42.8079 101.378 42.8079 101.377C42.8432 100.475 42.9734 99.5849 43.2025 98.7095C46.8962 84.5954 74.9027 79.6994 105.757 87.774C136.611 95.8486 158.629 113.836 154.935 127.95C154.706 128.826 154.383 129.666 153.972 130.469C153.972 130.469 153.972 130.47 153.972 130.47C153.528 131.338 152.981 132.163 152.337 132.945C152.332 132.951 152.326 132.958 152.321 132.964C152.319 132.967 152.318 132.969 152.318 132.972C152.318 132.977 152.322 132.982 152.327 132.983C152.332 132.984 152.335 132.989 152.336 132.993C152.336 132.996 152.335 133 152.333 133.002L151.725 133.644C151.655 133.72 151.584 133.795 151.511 133.87L150.275 135.175L150.273 135.177L138.793 147.299C131.986 156.33 111.197 159.051 88.6472 153.149C66.3446 147.312 49.6757 134.967 47.8505 123.854C47.7571 123.285 47.3667 122.8 46.8135 122.639L10.1271 111.91C5.98342 110.698 3.4722 106.499 4.36483 102.275L4.82393 100.103C5.21371 98.2581 7.06553 97.1133 8.88976 97.589L43.1386 106.52C43.3391 106.573 43.5217 106.39 43.4691 106.189ZM39.8119 102.553C39.7482 101.009 39.9029 99.4681 40.3002 97.9499C42.6255 89.0648 52.2303 83.9845 63.7779 81.9658C75.6114 79.8971 90.7702 80.751 106.516 84.8718C122.262 88.9926 135.896 95.6738 145.199 103.274C154.277 110.691 160.162 119.825 157.837 128.71C157.28 130.839 156.285 132.774 154.936 134.499C154.821 134.697 154.679 134.887 154.511 135.065L153.923 135.686C153.92 135.689 153.916 135.693 153.913 135.697C153.836 135.779 153.759 135.861 153.68 135.943C153.677 135.946 153.673 135.95 153.67 135.953L141.082 149.246C136.911 154.652 129.056 157.706 119.984 158.802C110.684 159.926 99.4667 159.082 87.8877 156.051C76.4351 153.054 66.3397 148.366 58.8095 142.91C51.73 137.78 46.4882 131.648 45.0667 125.253L9.28503 114.789C3.63618 113.137 0.212785 107.413 1.42965 101.655L1.88875 99.4823C2.63251 95.9628 6.16596 93.7783 9.64679 94.6861L39.8119 102.553Z" fill="url(#paint2_linear)"/>
<circle cx="57" cy="29" r="29" fill="#F0B90B"/>
<path d="M46.1848 29L41.7478 33.4678L37.28 29L41.7478 24.5322L46.1848 29ZM57 18.1848L64.6415 25.8263L69.1093 21.3585L61.4678 13.7478L57 9.28003L52.5322 13.7478L44.9215 21.3585L49.3893 25.8263L57 18.1848ZM72.2522 24.5322L67.8152 29L72.283 33.4678L76.72 29L72.2522 24.5322ZM57 39.8152L49.3585 32.1737L44.9215 36.6415L52.563 44.283L57 48.72L61.4678 44.2522L69.1093 36.6107L64.6415 32.1737L57 39.8152ZM57 33.4678L61.4678 29L57 24.5322L52.5322 29L57 33.4678Z" fill="#FFFDFA"/>
<g style="mix-blend-mode:multiply" opacity="0.1">
<path fill-rule="evenodd" clip-rule="evenodd" d="M57 55C71.3594 55 83 43.3594 83 29C83 14.6406 71.3594 3 57 3C42.6406 3 31 14.6406 31 29C31 43.3594 42.6406 55 57 55ZM57 58C73.0163 58 86 45.0163 86 29C86 12.9837 73.0163 0 57 0C40.9837 0 28 12.9837 28 29C28 45.0163 40.9837 58 57 58Z" fill="#191326"/>
</g>
<circle cx="106.5" cy="72.5" r="43.5" fill="url(#paint3_linear)"/>
<path fill-rule="evenodd" clip-rule="evenodd" d="M78.2451 77.2795C78.2376 77.4419 78.2339 77.605 78.2339 77.7686C78.2339 78.3868 78.2877 78.9975 78.3927 79.5988H78.2339V80.5455C78.2339 81.0075 78.2639 81.4653 78.323 81.9182C79.4748 90.755 91.6503 97.708 106.5 97.708C121.351 97.708 133.526 90.755 134.678 81.9182C134.737 81.4653 134.767 81.0075 134.767 80.5455V79.5988H134.608C134.713 78.9975 134.767 78.3868 134.767 77.7686C134.767 77.605 134.763 77.4419 134.756 77.2795C134.329 68.027 121.842 60.606 106.5 60.606C91.1587 60.606 78.6715 68.027 78.2451 77.2795ZM75.9236 77.2795C76.1339 71.6342 79.97 66.8921 85.3093 63.6502C90.844 60.2897 98.3419 58.2866 106.5 58.2866C114.659 58.2866 122.157 60.2897 127.692 63.6502C133.031 66.8921 136.867 71.6342 137.077 77.2795H137.086V80.5455C137.086 86.4059 133.184 91.3288 127.692 94.6638C122.157 98.0243 114.659 100.027 106.5 100.027C98.3419 100.027 90.844 98.0243 85.3093 94.6638C79.8165 91.3288 75.9146 86.4059 75.9146 80.5455V77.2795H75.9236Z" fill="#606063"/>
<path d="M134.767 80.5459C134.767 90.0245 122.112 97.7084 106.5 97.7084C90.8891 97.7084 78.2336 90.0245 78.2336 80.5459V77.829H134.767V80.5459Z" fill="#BEBEBE"/>
<path d="M134.767 77.7685C134.767 87.2472 122.112 94.9311 106.5 94.9311C90.8891 94.9311 78.2336 87.2472 78.2336 77.7685C78.2336 68.2899 90.8891 60.606 106.5 60.606C122.112 60.606 134.767 68.2899 134.767 77.7685Z" fill="#F5F3F3"/>
<path fill-rule="evenodd" clip-rule="evenodd" d="M82.5826 72.92C82.5825 72.9308 82.5825 72.9415 82.5825 72.9523C82.5825 73.7327 82.6956 74.497 82.9124 75.2394H82.5823V76.2445C82.5823 76.6882 82.6188 77.1266 82.6902 77.5588C83.7678 84.0845 92.7835 89.1781 103.746 89.1781C114.708 89.1781 123.724 84.0845 124.802 77.5588C124.873 77.1266 124.909 76.6882 124.909 76.2445V75.2394H124.58C124.791 74.5173 124.903 73.7744 124.909 73.0161C124.91 72.9948 124.91 72.9736 124.91 72.9523C124.91 72.9415 124.91 72.9308 124.91 72.92C124.881 65.7918 115.417 60.0187 103.746 60.0187C92.0754 60.0187 82.611 65.7918 82.5826 72.92ZM80.2632 72.92H80.2629V76.2445C80.2629 80.9297 83.3611 84.7959 87.5715 87.369C91.8218 89.9664 97.5461 91.4974 103.746 91.4974C109.946 91.4974 115.67 89.9664 119.92 87.369C124.131 84.7959 127.229 80.9297 127.229 76.2445V73.0247C127.229 73.0006 127.229 72.9764 127.229 72.9523C127.229 68.267 124.131 64.4009 119.92 61.8278C115.67 59.2304 109.946 57.6993 103.746 57.6993C97.5463 57.6993 91.822 59.2304 87.5718 61.8278C83.371 64.395 80.2774 68.2493 80.2632 72.92Z" fill="#612F01"/>
<path d="M124.91 76.2446C124.91 83.3876 115.435 89.1782 103.747 89.1782C92.0583 89.1782 82.583 83.3876 82.583 76.2446V73.2101H124.91V76.2446Z" fill="#FEDC90"/>
<path d="M124.91 72.9523C124.91 80.0953 115.435 85.8858 103.747 85.8858C92.0583 85.8858 82.583 80.0953 82.583 72.9523C82.583 65.8092 92.0583 60.0187 103.747 60.0187C115.435 60.0187 124.91 65.8092 124.91 72.9523Z" fill="#D1884F"/>
<path fill-rule="evenodd" clip-rule="evenodd" d="M88.961 65.9619C88.9609 65.9727 88.9609 65.9834 88.9609 65.9942C88.9609 66.7746 89.074 67.5389 89.2908 68.2813H88.9607V69.2864C88.9607 69.73 88.9972 70.1685 89.0686 70.6006C90.1462 77.1264 99.1619 82.22 110.124 82.22C121.087 82.22 130.102 77.1264 131.18 70.6006C131.251 70.1685 131.288 69.73 131.288 69.2864V68.2813H130.958C131.169 67.5591 131.282 66.8163 131.288 66.058C131.288 66.0367 131.288 66.0154 131.288 65.9942C131.288 65.9834 131.288 65.9727 131.288 65.9619C131.26 58.8337 121.795 53.0606 110.125 53.0606C98.4538 53.0606 88.9894 58.8337 88.961 65.9619ZM86.6417 65.9619H86.6414V69.2864C86.6414 73.9716 89.7395 77.8378 93.9499 80.4109C98.2002 83.0083 103.924 84.5393 110.124 84.5393C116.324 84.5393 122.048 83.0083 126.299 80.4109C130.509 77.8378 133.607 73.9716 133.607 69.2864V66.0666C133.607 66.0424 133.607 66.0183 133.607 65.9942C133.607 61.3089 130.509 57.4428 126.299 54.8697C122.049 52.2722 116.324 50.7412 110.125 50.7412C103.925 50.7412 98.2005 52.2722 93.9502 54.8697C89.7494 57.4369 86.6558 61.2912 86.6417 65.9619Z" fill="#612F01"/>
<path d="M131.288 69.2866C131.288 76.4296 121.813 82.2202 110.124 82.2202C98.436 82.2202 88.9607 76.4296 88.9607 69.2866V66.2521H131.288V69.2866Z" fill="#FEDC90"/>
<path d="M131.288 65.9942C131.288 73.1373 121.813 78.9278 110.124 78.9278C98.436 78.9278 88.9607 73.1373 88.9607 65.9942C88.9607 58.8512 98.436 53.0607 110.124 53.0607C121.813 53.0607 131.288 58.8512 131.288 65.9942Z" fill="#D1884F"/>
<path fill-rule="evenodd" clip-rule="evenodd" d="M82.5826 59.0039C82.5825 59.0146 82.5825 59.0254 82.5825 59.0361C82.5825 59.8166 82.6956 60.5809 82.9124 61.3233H82.5823V62.3284C82.5823 62.772 82.6188 63.2105 82.6902 63.6426C83.7678 70.1684 92.7835 75.2619 103.746 75.2619C114.708 75.2619 123.724 70.1684 124.802 63.6426C124.873 63.2105 124.909 62.772 124.909 62.3284V61.3233H124.58C124.791 60.6011 124.903 59.8583 124.909 59.1C124.91 59.0787 124.91 59.0574 124.91 59.0361C124.91 59.0254 124.91 59.0146 124.91 59.0039C124.881 51.8757 115.417 46.1026 103.746 46.1026C92.0754 46.1026 82.611 51.8757 82.5826 59.0039ZM80.2632 59.0039H80.2629V62.3284C80.2629 67.0136 83.3611 70.8797 87.5715 73.4528C91.8218 76.0503 97.5461 77.5813 103.746 77.5813C109.946 77.5813 115.67 76.0503 119.92 73.4528C124.131 70.8797 127.229 67.0136 127.229 62.3284V59.1085C127.229 59.0844 127.229 59.0603 127.229 59.0361C127.229 54.3509 124.131 50.4848 119.92 47.9117C115.67 45.3142 109.946 43.7832 103.746 43.7832C97.5463 43.7832 91.822 45.3142 87.5718 47.9117C83.371 50.4789 80.2774 54.3331 80.2632 59.0039Z" fill="#612F01"/>
<path d="M124.91 62.3284C124.91 69.4714 115.435 75.2619 103.747 75.2619C92.0583 75.2619 82.583 69.4714 82.583 62.3284V59.2938H124.91V62.3284Z" fill="#FEDC90"/>
<path d="M124.91 59.0361C124.91 66.1791 115.435 71.9697 103.747 71.9697C92.0583 71.9697 82.583 66.1791 82.583 59.0361C82.583 51.8931 92.0583 46.1025 103.747 46.1025C115.435 46.1025 124.91 51.8931 124.91 59.0361Z" fill="#D1884F"/>
<path fill-rule="evenodd" clip-rule="evenodd" d="M87.5884 59.8409C87.5884 62.2256 89.3212 64.3616 92.055 65.7986L90.1609 69.0793L90.1613 69.0796H90.1609V77.3825C90.1609 78.4805 91.0509 79.3705 92.1489 79.3705C93.2468 79.3705 94.1369 78.4805 94.1369 77.3825V70.7793L96.1746 67.2496C97.4776 67.526 98.8763 67.676 100.332 67.676C107.37 67.676 113.076 64.1681 113.076 59.8409C113.076 55.5137 107.37 52.0057 100.332 52.0057C93.2939 52.0057 87.5884 55.5137 87.5884 59.8409Z" fill="url(#paint4_linear)"/>
<path fill-rule="evenodd" clip-rule="evenodd" d="M92.0556 65.7985C91.7528 65.6393 91.4622 65.4716 91.185 65.2958C88.9592 63.8852 87.589 61.9614 87.589 59.8408C87.589 55.5136 93.2945 52.0056 100.333 52.0056C107.371 52.0056 113.076 55.5136 113.076 59.8408C113.076 64.168 107.371 67.6759 100.333 67.6759C98.877 67.6759 97.4783 67.5259 96.1753 67.2495L94.1375 70.7792V77.3824C94.1375 78.4803 93.2474 79.3704 92.1495 79.3704C91.0516 79.3704 90.1615 78.4803 90.1615 77.3824V69.0795L92.0556 65.7985ZM88.1321 69.1144V77.3824C88.1321 79.6012 89.9308 81.3999 92.1495 81.3999C94.3682 81.3999 96.1669 79.6012 96.1669 77.3824V71.323L97.2238 69.4922C98.2277 69.6321 99.2681 69.7054 100.333 69.7054C104.165 69.7054 107.732 68.7544 110.407 67.1099C113.048 65.4857 115.106 62.9729 115.106 59.8408C115.106 56.7087 113.048 54.1958 110.407 52.5717C107.732 50.9272 104.165 49.9762 100.333 49.9762C96.5002 49.9762 92.9334 50.9272 90.2586 52.5717C87.617 54.1958 85.5596 56.7087 85.5596 59.8408C85.5596 62.5897 87.134 64.8533 89.3216 66.4752L88.418 68.0402C88.3319 68.1845 88.2631 68.3403 88.2146 68.5047C88.1553 68.7053 88.1284 68.9109 88.1321 69.1144Z" fill="#633001"/>
<path d="M91.5702 56.5396C91.5702 58.7813 94.4258 60.5985 97.9483 60.5985C101.471 60.5985 104.326 58.7813 104.326 56.5396C104.326 54.2979 101.471 52.4807 97.9483 52.4807C94.4258 52.4807 91.5702 54.2979 91.5702 56.5396Z" fill="#9E7200"/>
<path d="M91.5696 54.8003H104.326V56.5398H91.5696V54.8003Z" fill="#9E7200"/>
<path d="M91.5702 54.8001C91.5702 57.0418 94.4258 58.859 97.9483 58.859C101.471 58.859 104.326 57.0418 104.326 54.8001C104.326 52.5584 101.471 50.7412 97.9483 50.7412C94.4258 50.7412 91.5702 52.5584 91.5702 54.8001Z" fill="#F0B90B"/>
<path d="M95.5281 54.3109L97.3258 53.1669C97.7057 52.9252 98.1911 52.9252 98.571 53.1669L100.369 54.3109C100.727 54.5388 100.727 55.0615 100.369 55.2893L98.571 56.4334C98.1911 56.6751 97.7057 56.6751 97.3258 56.4334L95.5281 55.2893C95.17 55.0615 95.17 54.5388 95.5281 54.3109Z" fill="#9E7200"/>
<path fill-rule="evenodd" clip-rule="evenodd" d="M92.3485 50.2179C93.8752 49.2463 95.8604 48.7118 97.948 48.7118C100.036 48.7118 102.021 49.2463 103.548 50.2179C105.05 51.1741 106.356 52.7448 106.356 54.8001V56.5396C106.356 58.595 105.05 60.1656 103.548 61.1219C102.021 62.0934 100.036 62.628 97.948 62.628C95.8604 62.628 93.8752 62.0934 92.3485 61.1219C90.8459 60.1656 89.5405 58.595 89.5405 56.5396V54.8001C89.5405 52.7448 90.8459 51.1741 92.3485 50.2179ZM97.948 50.7412C94.4255 50.7412 91.5699 52.5585 91.5699 54.8001V56.5396C91.5699 58.7813 94.4255 60.5985 97.948 60.5985C101.471 60.5985 104.326 58.7813 104.326 56.5396V54.8001C104.326 52.5585 101.471 50.7412 97.948 50.7412Z" fill="#633001"/>
<g style="mix-blend-mode:multiply" opacity="0.2">
<path fill-rule="evenodd" clip-rule="evenodd" d="M106.5 113.163C128.958 113.163 147.163 94.9576 147.163 72.5C147.163 50.0424 128.958 31.837 106.5 31.837C84.0424 31.837 65.837 50.0424 65.837 72.5C65.837 94.9576 84.0424 113.163 106.5 113.163ZM106.5 116C130.524 116 150 96.5244 150 72.5C150 48.4756 130.524 29 106.5 29C82.4756 29 63 48.4756 63 72.5C63 96.5244 82.4756 116 106.5 116Z" fill="#191326"/>
</g>
</g>
<defs>
<linearGradient id="paint0_linear" x1="105.757" y1="87.7739" x2="92.3808" y2="138.886" gradientUnits="userSpaceOnUse">
<stop stop-color="#404042"/>
<stop offset="1" stop-color="#48484B"/>
</linearGradient>
<linearGradient id="paint1_linear" x1="46.5673" y1="105.096" x2="41.7353" y2="123.129" gradientUnits="userSpaceOnUse">
<stop stop-color="#404042"/>
<stop offset="1" stop-color="#48484B"/>
</linearGradient>
<linearGradient id="paint2_linear" x1="73.4948" y1="80.1687" x2="89.0896" y2="164.62" gradientUnits="userSpaceOnUse">
<stop stop-color="#404042"/>
<stop offset="1" stop-color="#48484B"/>
</linearGradient>
<linearGradient id="paint3_linear" x1="106.5" y1="29" x2="106.5" y2="116" gradientUnits="userSpaceOnUse">
<stop stop-color="#54DADE"/>
<stop offset="0.762157" stop-color="#24C7D6"/>
</linearGradient>
<linearGradient id="paint4_linear" x1="100.47" y1="52.268" x2="100.47" y2="79.165" gradientUnits="userSpaceOnUse">
<stop stop-color="#9F4A08"/>
<stop offset="0.370494" stop-color="#7D3900"/>
<stop offset="1" stop-color="#8D4104"/>
</linearGradient>
<clipPath id="clip0">
<rect width="160" height="160" fill="white"/>
</clipPath>
</defs>
</svg>
