<svg xmlns="http://www.w3.org/2000/svg" width="96" height="96" fill="none" viewBox="0 0 96 96"><g clip-path="url(#clip0)"><path fill="#606063" d="M28.8271 71.4167C26.9201 78.7035 37.8271 87.8696 53.1884 91.8897C68.5498 95.9098 82.5486 93.2616 84.4556 85.9748C86.3625 78.688 75.4556 69.5219 60.0942 65.5018C44.7328 61.4817 30.7341 64.1299 28.8271 71.4167Z"/><path fill="#606063" d="M82.1547 89.5637L91.408 79.7928L25.7954 62.6218L29.2278 75.7126L82.1547 89.5637Z"/><path fill="#606063" d="M29.9603 64.976L4.84355 58.4028C3.75485 58.1179 2.64762 58.7955 2.40585 59.8946L2.12492 61.1716C1.56511 63.7164 3.0718 66.2601 5.57256 66.9921L30.6598 74.3351L29.9603 64.976Z"/><path fill="url(#paint0_linear)" d="M25.9216 59.2257C23.7054 67.6942 36.9161 78.4866 55.4285 83.3314C73.9409 88.1762 90.7448 85.2386 92.9611 76.7701C95.1773 68.3017 81.9666 57.5092 63.4542 52.6644C44.9417 47.8197 28.1378 50.7573 25.9216 59.2257Z"/><path fill="#606063" fill-rule="evenodd" d="M76.6039 73.9714C80.8628 77.1035 83.3516 80.4912 83.723 83.4942L85.5094 83.2733C85.0465 79.5305 82.0672 75.7549 77.6703 72.5213C73.2364 69.2606 67.2065 66.4328 60.3221 64.6311C53.4377 62.8294 46.7957 62.341 41.3329 63.0117C35.9156 63.6769 31.4688 65.509 29.2318 68.5452L30.6809 69.6129C32.4758 67.1768 36.305 65.4426 41.5522 64.7983C46.7539 64.1596 53.1649 64.6187 59.8664 66.3725C66.5679 68.1263 72.3819 70.8665 76.6039 73.9714Z" clip-rule="evenodd"/><path fill="#979797" fill-rule="evenodd" d="M34.0406 71.2435C28.8082 66.9688 26.8419 62.8188 27.663 59.6814C28.484 56.5441 32.2312 53.8892 38.8868 52.7257C45.3707 51.5922 53.9337 52.0335 62.9984 54.4058C72.0632 56.7781 79.7446 60.588 84.8421 64.7524C90.0745 69.027 92.0408 73.1771 91.2197 76.3144C90.3986 79.4518 86.6515 82.1066 79.9959 83.2701C73.512 84.4036 64.949 83.9623 55.8842 81.59C46.8195 79.2178 39.1381 75.4079 34.0406 71.2435ZM55.4285 83.3314C36.9161 78.4866 23.7054 67.6942 25.9216 59.2257C28.1378 50.7573 44.9417 47.8197 63.4542 52.6644C81.9666 57.5092 95.1773 68.3017 92.9611 76.7701C90.7448 85.2386 73.9409 88.1762 55.4285 83.3314Z" clip-rule="evenodd"/><path fill="url(#paint1_linear)" fill-rule="evenodd" d="M27.1003 74.4294L24.1382 62.9559L25.8811 62.5059L28.8431 73.9794L27.1003 74.4294Z" clip-rule="evenodd"/><path fill="url(#paint2_linear)" fill-rule="evenodd" d="M26.0815 63.7137C26.0545 63.6248 26.0287 63.536 26.0044 63.4474C25.9594 63.2836 25.919 63.1202 25.8831 62.9572L25.7982 62.6332C25.7969 62.6281 25.8015 62.6235 25.8066 62.6248C25.8114 62.6261 25.8159 62.6219 25.8151 62.6169C25.8142 62.6121 25.8133 62.6072 25.8124 62.6024C25.7839 62.443 25.76 62.2841 25.7405 62.1256C25.7358 62.0875 25.7314 62.0495 25.7273 62.0114C25.6839 61.6135 25.6694 61.2184 25.6847 60.827C25.6847 60.8268 25.6847 60.8265 25.6847 60.8263C25.7059 60.2851 25.784 59.7509 25.9215 59.2257C28.1377 50.7572 44.9416 47.8196 63.454 52.6644C81.9665 57.5091 95.1771 68.3016 92.9609 76.7701C92.8235 77.2953 92.6299 77.7993 92.3833 78.2815C92.3831 78.2817 92.383 78.2819 92.3829 78.2821C92.1166 78.8027 91.7884 79.2978 91.4023 79.7669C91.3991 79.7707 91.3959 79.7746 91.3926 79.7785C91.3915 79.7799 91.391 79.7816 91.391 79.7832C91.3911 79.7861 91.393 79.789 91.3963 79.7898C91.3993 79.7906 91.4012 79.7931 91.4015 79.7958C91.4017 79.7978 91.4011 79.7998 91.3996 79.8015L91.0351 80.1863C90.9929 80.2318 90.9501 80.2769 90.9068 80.3219L90.165 81.1051L90.1637 81.1065L83.2761 88.3794C79.1914 93.798 66.7184 95.4303 53.1883 91.8894C39.8068 88.3874 29.8054 80.9804 28.7103 74.3124C28.6543 73.9712 28.42 73.6802 28.0881 73.5831L6.07626 67.1458C3.59005 66.4187 2.08332 63.8994 2.6189 61.365L2.89436 60.0615C3.12823 58.9548 4.23932 58.2679 5.33386 58.5534L25.8831 63.9123C26.0034 63.9436 26.113 63.8339 26.0815 63.7137ZM23.8871 61.5315C23.8489 60.6053 23.9417 59.6808 24.1801 58.7699C25.5753 53.4388 31.3382 50.3907 38.2667 49.1795C45.3669 47.9382 54.4621 48.4506 63.9097 50.923C73.3574 53.3955 81.5376 57.4042 87.1195 61.9644C92.5665 66.4143 96.0974 71.8947 94.7023 77.2258C94.3679 78.5035 93.7707 79.6641 92.9618 80.6991C92.8925 80.8183 92.8076 80.9324 92.7065 81.0392L92.3539 81.4114C92.3519 81.4136 92.3499 81.4157 92.3479 81.4179C92.3018 81.4674 92.2552 81.5166 92.2081 81.5655C92.206 81.5677 92.2039 81.5698 92.2018 81.572L84.6489 89.5475C82.1469 92.7913 77.4335 94.6236 71.9901 95.2812C66.4105 95.9554 59.68 95.4489 52.7326 93.6308C45.8611 91.8325 39.8038 89.0196 35.2857 85.7457C31.038 82.6678 27.8929 78.9889 27.04 75.152L5.57102 68.8734C2.18171 67.8822 0.127671 64.4478 0.85779 60.9929L1.13325 59.6894C1.57951 57.5777 3.69958 56.267 5.78808 56.8116L23.8871 61.5315Z" clip-rule="evenodd"/><circle cx="34.2" cy="17.4" r="17.4" fill="#F0B90B"/><path fill="#FFFDFA" fill-rule="evenodd" d="M26.7947 12.9806L34.2071 5.56812L37.1627 8.52366L29.7502 15.9361L26.7947 12.9806ZM26.8001 21.8381L38.6459 9.99235L41.6014 12.9479L29.7557 24.7937L26.8001 21.8381ZM43.076 14.431L31.2303 26.2768L34.1858 29.2323L46.0316 17.3866L43.076 14.431ZM22.3679 17.4063L25.3235 14.4508L28.279 17.4063L25.3235 20.3619L22.3679 17.4063Z" clip-rule="evenodd"/><g style="mix-blend-mode:multiply" opacity=".2"><path fill="#191326" fill-rule="evenodd" d="M34.2001 33C42.8157 33 49.8 26.0156 49.8 17.4C49.8 8.78436 42.8157 1.8 34.2001 1.8C25.5844 1.8 18.6 8.78436 18.6 17.4C18.6 26.0156 25.5844 33 34.2001 33ZM34.2001 34.8C43.8098 34.8 51.6001 27.0098 51.6001 17.4C51.6001 7.79025 43.8098 0 34.2001 0C24.5903 0 16.8 7.79025 16.8 17.4C16.8 27.0098 24.5903 34.8 34.2001 34.8Z" clip-rule="evenodd"/></g><ellipse cx="63.9" cy="43.5" fill="url(#paint3_linear)" rx="26.1" ry="26.1"/><path fill="#606063" fill-rule="evenodd" d="M46.9469 46.3676C46.9424 46.4651 46.9402 46.5629 46.9402 46.6611C46.9402 47.0321 46.9725 47.3984 47.0355 47.7593H46.9402V48.3272C46.9402 48.6045 46.9582 48.8792 46.9936 49.1509C47.6847 54.4529 54.99 58.6248 63.9001 58.6248C72.8103 58.6248 80.1156 54.4529 80.8067 49.1509C80.8421 48.8792 80.8601 48.6045 80.8601 48.3272V47.7593H80.7648C80.8278 47.3984 80.8601 47.0321 80.8601 46.6611C80.8601 46.5629 80.8579 46.4651 80.8534 46.3676C80.5975 40.8162 73.1052 36.3635 63.9001 36.3635C54.6951 36.3635 47.2028 40.8162 46.9469 46.3676ZM45.554 46.3676C45.6802 42.9805 47.9819 40.1352 51.1854 38.1901C54.5063 36.1738 59.005 34.9719 63.9001 34.9719C68.7953 34.9719 73.294 36.1738 76.6149 38.1901C79.8184 40.1352 82.1201 42.9805 82.2463 46.3676H82.2517V48.3272C82.2517 51.8435 79.9105 54.7972 76.6149 56.7982C73.294 58.8145 68.7953 60.0164 63.9001 60.0164C59.005 60.0164 54.5063 58.8145 51.1854 56.7982C47.8898 54.7972 45.5486 51.8435 45.5486 48.3272V46.3676H45.554Z" clip-rule="evenodd"/><path fill="#BEBEBE" d="M80.8601 48.3274C80.8601 54.0146 73.2669 58.6249 63.9002 58.6249C54.5334 58.6249 46.9402 54.0146 46.9402 48.3274V46.6973H80.8601V48.3274Z"/><path fill="#FAF9FA" d="M80.8601 46.6611C80.8601 52.3483 73.2669 56.9586 63.9002 56.9586C54.5334 56.9586 46.9402 52.3483 46.9402 46.6611C46.9402 40.9739 54.5334 36.3635 63.9002 36.3635C73.2669 36.3635 80.8601 40.9739 80.8601 46.6611Z"/><path fill="#633001" fill-rule="evenodd" d="M49.5497 43.7518C49.5497 43.7582 49.5497 43.7647 49.5497 43.7711C49.5497 44.2394 49.6176 44.698 49.7476 45.1434H49.5495V45.7465C49.5495 46.0127 49.5715 46.2757 49.6143 46.535C50.2609 50.4505 55.6703 53.5066 62.2477 53.5066C68.8251 53.5066 74.2345 50.4505 74.8811 46.535C74.9239 46.2757 74.9459 46.0127 74.9459 45.7465V45.1434H74.7481C74.8746 44.7101 74.9423 44.2644 74.9459 43.8094C74.946 43.7967 74.946 43.7839 74.946 43.7711C74.946 43.7647 74.946 43.7582 74.946 43.7518C74.9289 39.4749 69.2503 36.011 62.2479 36.011C55.2454 36.011 49.5668 39.4749 49.5497 43.7518ZM48.1581 43.7518H48.158V45.7465C48.158 48.5576 50.0168 50.8773 52.5431 52.4212C55.0933 53.9796 58.5278 54.8982 62.2477 54.8982C65.9676 54.8982 69.4021 53.9796 71.9523 52.4212C74.4786 50.8773 76.3375 48.5576 76.3375 45.7465V43.8146C76.3376 43.8001 76.3376 43.7856 76.3376 43.7711C76.3376 40.96 74.4787 38.6403 71.9525 37.0965C69.4023 35.538 65.9677 34.6194 62.2479 34.6194C58.528 34.6194 55.0934 35.538 52.5433 37.0965C50.0228 38.6368 48.1666 40.9494 48.1581 43.7518Z" clip-rule="evenodd"/><path fill="#FEDC90" d="M74.9456 45.7465C74.9456 50.0323 69.2605 53.5067 62.2475 53.5067C55.2345 53.5067 49.5493 50.0323 49.5493 45.7465V43.9258H74.9456V45.7465Z"/><path fill="#D1884F" d="M74.9456 43.7711C74.9456 48.0569 69.2605 51.5313 62.2475 51.5313C55.2345 51.5313 49.5493 48.0569 49.5493 43.7711C49.5493 39.4853 55.2345 36.011 62.2475 36.011C69.2605 36.011 74.9456 39.4853 74.9456 43.7711Z"/><path fill="#633001" fill-rule="evenodd" d="M53.3764 39.577C53.3764 39.5834 53.3764 39.5899 53.3764 39.5963C53.3764 40.0646 53.4442 40.5232 53.5743 40.9686H53.3762V41.5717C53.3762 41.8379 53.3981 42.1009 53.441 42.3602C54.0875 46.2757 59.497 49.3318 66.0744 49.3318C72.6518 49.3318 78.0612 46.2757 78.7078 42.3602C78.7506 42.1009 78.7725 41.8379 78.7725 41.5717V40.9686H78.5748C78.7013 40.5353 78.7689 40.0896 78.7725 39.6346C78.7726 39.6219 78.7727 39.6091 78.7727 39.5963C78.7727 39.5899 78.7727 39.5834 78.7726 39.577C78.7556 35.3001 73.077 31.8362 66.0745 31.8362C59.0721 31.8362 53.3935 35.3001 53.3764 39.577ZM51.9848 39.577H51.9846V41.5717C51.9846 44.3828 53.8435 46.7025 56.3698 48.2464C58.9199 49.8048 62.3545 50.7234 66.0744 50.7234C69.7943 50.7234 73.2288 49.8048 75.779 48.2464C78.3052 46.7025 80.1641 44.3828 80.1641 41.5717V39.6398C80.1642 39.6253 80.1643 39.6108 80.1643 39.5963C80.1643 36.7852 78.3054 34.4655 75.7791 32.9216C73.229 31.3632 69.7944 30.4446 66.0745 30.4446C62.3546 30.4446 58.9201 31.3632 56.3699 32.9216C53.8494 34.462 51.9933 36.7745 51.9848 39.577Z" clip-rule="evenodd"/><path fill="#FEDC90" d="M78.7728 41.5717C78.7728 45.8575 73.0876 49.3318 66.0746 49.3318C59.0616 49.3318 53.3765 45.8575 53.3765 41.5717V39.751H78.7728V41.5717Z"/><path fill="#D1884F" d="M78.7728 39.5963C78.7728 43.8821 73.0876 47.3565 66.0746 47.3565C59.0616 47.3565 53.3765 43.8821 53.3765 39.5963C53.3765 35.3105 59.0616 31.8362 66.0746 31.8362C73.0876 31.8362 78.7728 35.3105 78.7728 39.5963Z"/><path fill="#633001" fill-rule="evenodd" d="M49.5497 35.4022C49.5497 35.4086 49.5497 35.4151 49.5497 35.4215C49.5497 35.8898 49.6176 36.3484 49.7476 36.7938H49.5495V37.3969C49.5495 37.6631 49.5715 37.9261 49.6143 38.1854C50.2609 42.1009 55.6703 45.157 62.2477 45.157C68.8251 45.157 74.2345 42.1009 74.8811 38.1854C74.9239 37.9261 74.9459 37.6631 74.9459 37.3969V36.7938H74.7481C74.8746 36.3605 74.9423 35.9148 74.9459 35.4598C74.946 35.4471 74.946 35.4343 74.946 35.4215C74.946 35.4151 74.946 35.4086 74.946 35.4022C74.9289 31.1253 69.2503 27.6614 62.2479 27.6614C55.2454 27.6614 49.5668 31.1253 49.5497 35.4022ZM48.1581 35.4022H48.158V37.3969C48.158 40.208 50.0168 42.5277 52.5431 44.0716C55.0933 45.63 58.5278 46.5486 62.2477 46.5486C65.9676 46.5486 69.4021 45.63 71.9523 44.0716C74.4786 42.5277 76.3375 40.208 76.3375 37.3969V35.465C76.3376 35.4505 76.3376 35.436 76.3376 35.4215C76.3376 32.6104 74.4787 30.2907 71.9525 28.7468C69.4023 27.1884 65.9677 26.2698 62.2479 26.2698C58.528 26.2698 55.0934 27.1884 52.5433 28.7468C50.0228 30.2872 48.1666 32.5997 48.1581 35.4022Z" clip-rule="evenodd"/><path fill="#FEDC90" d="M74.9456 37.3969C74.9456 41.6827 69.2605 45.157 62.2475 45.157C55.2345 45.157 49.5493 41.6827 49.5493 37.3969V35.5762H74.9456V37.3969Z"/><path fill="#D1884F" d="M74.9456 35.4215C74.9456 39.7073 69.2605 43.1817 62.2475 43.1817C55.2345 43.1817 49.5493 39.7073 49.5493 35.4215C49.5493 31.1357 55.2345 27.6614 62.2475 27.6614C69.2605 27.6614 74.9456 31.1357 74.9456 35.4215Z"/><path fill="url(#paint4_linear)" fill-rule="evenodd" d="M52.5531 35.9045C52.5531 37.3353 53.5928 38.6169 55.233 39.4791L54.0966 41.4475L54.0968 41.4477H54.0966V46.4294C54.0966 47.0882 54.6306 47.6222 55.2894 47.6222C55.9481 47.6222 56.4822 47.0882 56.4822 46.4294V42.4675L57.7048 40.3497C58.4866 40.5155 59.3258 40.6055 60.1993 40.6055C64.4221 40.6055 67.8455 38.5008 67.8455 35.9045C67.8455 33.3081 64.4221 31.2034 60.1993 31.2034C55.9764 31.2034 52.5531 33.3081 52.5531 35.9045Z" clip-rule="evenodd"/><path fill="#633001" fill-rule="evenodd" d="M55.2332 39.479C55.0515 39.3835 54.8772 39.2828 54.7108 39.1774C53.3753 38.331 52.5532 37.1767 52.5532 35.9043C52.5532 33.308 55.9765 31.2033 60.1994 31.2033C64.4223 31.2033 67.8456 33.308 67.8456 35.9043C67.8456 38.5007 64.4223 40.6054 60.1994 40.6054C59.326 40.6054 58.4868 40.5154 57.705 40.3496L56.4823 42.4674V46.4293C56.4823 47.0881 55.9483 47.6221 55.2895 47.6221C54.6308 47.6221 54.0967 47.0881 54.0967 46.4293V41.4476L55.2332 39.479ZM52.8791 41.4685V46.4293C52.8791 47.7606 53.9583 48.8398 55.2895 48.8398C56.6208 48.8398 57.6999 47.7606 57.6999 46.4293V42.7937L58.3341 41.6952C58.9364 41.7792 59.5607 41.8231 60.1994 41.8231C62.4989 41.8231 64.639 41.2525 66.2438 40.2658C67.8288 39.2913 69.0632 37.7836 69.0632 35.9043C69.0632 34.0251 67.8288 32.5174 66.2438 31.5429C64.639 30.5562 62.4989 29.9856 60.1994 29.9856C57.8999 29.9856 55.7598 30.5562 54.155 31.5429C52.57 32.5174 51.3356 34.0251 51.3356 35.9043C51.3356 37.5537 52.2802 38.9119 53.5927 39.885L53.0506 40.824C52.9989 40.9105 52.9577 41.004 52.9286 41.1027C52.893 41.2231 52.8769 41.3464 52.8791 41.4685Z" clip-rule="evenodd"/><path fill="#9E7200" d="M54.9417 33.9236C54.9417 35.2686 56.6551 36.3589 58.7686 36.3589C60.8821 36.3589 62.5955 35.2686 62.5955 33.9236C62.5955 32.5786 60.8821 31.4883 58.7686 31.4883C56.6551 31.4883 54.9417 32.5786 54.9417 33.9236Z"/><path fill="#9E7200" d="M54.9419 32.8799H62.5956V33.9236H54.9419V32.8799Z"/><path fill="#F0B90B" d="M54.9417 32.8799C54.9417 34.2249 56.6551 35.3152 58.7686 35.3152C60.8821 35.3152 62.5955 34.2249 62.5955 32.8799C62.5955 31.5349 60.8821 30.4446 58.7686 30.4446C56.6551 30.4446 54.9417 31.5349 54.9417 32.8799Z"/><path fill="#9E7200" d="M57.3166 32.5865L58.3953 31.9C58.6232 31.755 58.9145 31.755 59.1424 31.9L60.2211 32.5865C60.4359 32.7232 60.4359 33.0368 60.2211 33.1735L59.1424 33.8599C58.9145 34.005 58.6232 34.005 58.3953 33.8599L57.3166 33.1735C57.1018 33.0368 57.1018 32.7232 57.3166 32.5865Z"/><path fill="#633001" fill-rule="evenodd" d="M55.4089 30.1307C56.3249 29.5478 57.5161 29.2271 58.7686 29.2271C60.0212 29.2271 61.2123 29.5478 62.1283 30.1307C63.0299 30.7045 63.8131 31.6468 63.8131 32.88V33.9238C63.8131 35.157 63.0299 36.0993 62.1283 36.6731C61.2123 37.256 60.0212 37.5767 58.7686 37.5767C57.5161 37.5767 56.3249 37.256 55.4089 36.6731C54.5073 36.0993 53.7241 35.157 53.7241 33.9238V32.88C53.7241 31.6468 54.5073 30.7045 55.4089 30.1307ZM58.7686 30.4447C56.6551 30.4447 54.9418 31.535 54.9418 32.88V33.9238C54.9418 35.2688 56.6551 36.3591 58.7686 36.3591C60.8821 36.3591 62.5955 35.2688 62.5955 33.9238V32.88C62.5955 31.535 60.8821 30.4447 58.7686 30.4447Z" clip-rule="evenodd"/><g style="mix-blend-mode:multiply" opacity=".2"><path fill="#191326" fill-rule="evenodd" d="M63.9 67.8977C77.3746 67.8977 88.2979 56.9745 88.2979 43.4999C88.2979 30.0254 77.3746 19.1021 63.9 19.1021C50.4255 19.1021 39.5022 30.0254 39.5022 43.4999C39.5022 56.9745 50.4255 67.8977 63.9 67.8977ZM63.9 69.5999C78.3147 69.5999 90 57.9145 90 43.4999C90 29.0853 78.3147 17.3999 63.9 17.3999C49.4854 17.3999 37.8 29.0853 37.8 43.4999C37.8 57.9145 49.4854 69.5999 63.9 69.5999Z" clip-rule="evenodd"/></g></g><defs><linearGradient id="paint0_linear" x1="63.454" x2="55.428" y1="52.664" y2="83.331" gradientUnits="userSpaceOnUse"><stop stop-color="#404042"/><stop offset="1" stop-color="#48484B"/></linearGradient><linearGradient id="paint1_linear" x1="27.94" x2="25.041" y1="63.058" y2="73.878" gradientUnits="userSpaceOnUse"><stop stop-color="#404042"/><stop offset="1" stop-color="#48484B"/></linearGradient><linearGradient id="paint2_linear" x1="44.097" x2="53.454" y1="48.101" y2="98.772" gradientUnits="userSpaceOnUse"><stop stop-color="#404042"/><stop offset="1" stop-color="#48484B"/></linearGradient><linearGradient id="paint3_linear" x1="63.9" x2="63.9" y1="17.4" y2="69.6" gradientUnits="userSpaceOnUse"><stop stop-color="#54DADE"/><stop offset=".762" stop-color="#24C7D6"/></linearGradient><linearGradient id="paint4_linear" x1="60.282" x2="60.282" y1="31.361" y2="47.499" gradientUnits="userSpaceOnUse"><stop stop-color="#9F4A08"/><stop offset=".37" stop-color="#7D3900"/><stop offset="1" stop-color="#8D4104"/></linearGradient><clipPath id="clip0"><rect width="96" height="96" fill="#fff"/></clipPath></defs></svg>