<svg width="186" height="171" viewBox="0 0 186 171" fill="none" xmlns="http://www.w3.org/2000/svg">
<path d="M67.045 119.028C63.8667 131.172 82.0449 146.449 107.647 153.149C133.25 159.849 156.581 155.436 159.759 143.291C162.937 131.146 144.759 115.87 119.157 109.169C93.5546 102.469 70.2233 106.883 67.045 119.028Z" fill="#606063"/>
<path d="M155.924 149.273L171.346 132.988L61.9922 104.369L67.7128 126.187L155.924 149.273Z" fill="#606063"/>
<path d="M68.9337 108.293L27.0725 97.338C25.258 96.8632 23.4126 97.9924 23.0096 99.8242L22.5414 101.953C21.6084 106.194 24.1195 110.433 28.2875 111.653L70.0994 123.892L68.9337 108.293Z" fill="#606063"/>
<path d="M62.2026 98.7096C58.5089 112.824 80.5267 130.811 111.381 138.886C142.235 146.96 170.241 142.064 173.935 127.95C177.629 113.836 155.611 95.8488 124.757 87.7742C93.9028 79.6996 65.8963 84.5955 62.2026 98.7096Z" fill="url(#paint0_linear)"/>
<path fill-rule="evenodd" clip-rule="evenodd" d="M146.673 123.286C153.771 128.506 157.919 134.152 158.538 139.157L161.516 138.789C160.744 132.551 155.779 126.258 148.45 120.869C141.061 115.434 131.011 110.721 119.537 107.718C108.063 104.716 96.9927 103.901 87.888 105.019C78.8593 106.128 71.4479 109.182 67.7196 114.242L70.1348 116.021C73.1263 111.961 79.5082 109.071 88.2536 107.997C96.9231 106.933 107.608 107.698 118.777 110.621C129.946 113.544 139.636 118.111 146.673 123.286Z" fill="#606063"/>
<path fill-rule="evenodd" clip-rule="evenodd" d="M75.7343 118.739C67.0136 111.615 63.7365 104.698 65.1049 99.4692C66.4733 94.2403 72.7186 89.8155 83.8112 87.8763C94.6178 85.9872 108.889 86.7226 123.997 90.6764C139.105 94.6302 151.908 100.98 160.403 107.921C169.124 115.045 172.401 121.962 171.033 127.191C169.664 132.42 163.419 136.844 152.326 138.784C141.52 140.673 127.248 139.937 112.14 135.984C97.0323 132.03 84.2301 125.68 75.7343 118.739ZM111.381 138.886C80.5267 130.811 58.5089 112.824 62.2026 98.7096C65.8963 84.5955 93.9028 79.6996 124.757 87.7742C155.611 95.8488 177.629 113.836 173.935 127.95C170.241 142.064 142.235 146.96 111.381 138.886Z" fill="#979797"/>
<path fill-rule="evenodd" clip-rule="evenodd" d="M64.1673 124.049L59.2305 104.926L62.1352 104.176L67.0721 123.299L64.1673 124.049Z" fill="url(#paint1_linear)"/>
<path fill-rule="evenodd" clip-rule="evenodd" d="M62.4691 106.189C62.4241 106.041 62.3812 105.893 62.3406 105.746C62.2656 105.473 62.1983 105.2 62.1386 104.929L61.997 104.389C61.9948 104.38 62.0025 104.372 62.0109 104.375C62.019 104.377 62.0266 104.37 62.0251 104.362C62.0236 104.353 62.0222 104.345 62.0207 104.337C61.9732 104.072 61.9333 103.807 61.9009 103.543C61.8931 103.479 61.8857 103.416 61.8788 103.352C61.8065 102.689 61.7824 102.031 61.8078 101.378C61.8079 101.378 61.8079 101.378 61.8079 101.377C61.8432 100.475 61.9734 99.5849 62.2025 98.7095C65.8962 84.5954 93.9027 79.6994 124.757 87.774C155.611 95.8486 177.629 113.836 173.935 127.95C173.706 128.826 173.383 129.666 172.972 130.469C172.972 130.469 172.972 130.47 172.972 130.47C172.528 131.338 171.981 132.163 171.337 132.945C171.332 132.951 171.326 132.958 171.321 132.964C171.319 132.967 171.318 132.969 171.318 132.972C171.318 132.977 171.322 132.982 171.327 132.983C171.332 132.984 171.335 132.989 171.336 132.993C171.336 132.996 171.335 133 171.333 133.002L170.725 133.644C170.655 133.72 170.584 133.795 170.511 133.87L169.275 135.175L169.273 135.177L157.793 147.299C150.986 156.33 130.197 159.051 107.647 153.149C85.3446 147.312 68.6757 134.967 66.8505 123.854C66.7571 123.285 66.3667 122.8 65.8135 122.639L29.1271 111.91C24.9834 110.698 22.4722 106.499 23.3648 102.275L23.8239 100.103C24.2137 98.2581 26.0655 97.1133 27.8898 97.589L62.1386 106.52C62.3391 106.573 62.5217 106.39 62.4691 106.189ZM58.8119 102.553C58.7482 101.009 58.9029 99.4681 59.3002 97.9499C61.6255 89.0648 71.2303 83.9845 82.7779 81.9658C94.6114 79.8971 109.77 80.751 125.516 84.8718C141.262 88.9926 154.896 95.6738 164.199 103.274C173.277 110.691 179.162 119.825 176.837 128.71C176.28 130.839 175.285 132.774 173.936 134.499C173.821 134.697 173.679 134.887 173.511 135.065L172.923 135.686C172.92 135.689 172.916 135.693 172.913 135.697C172.836 135.779 172.759 135.861 172.68 135.943C172.677 135.946 172.673 135.95 172.67 135.953L160.082 149.246C155.911 154.652 148.056 157.706 138.984 158.802C129.684 159.926 118.467 159.082 106.888 156.051C95.4351 153.054 85.3397 148.366 77.8095 142.91C70.73 137.78 65.4882 131.648 64.0667 125.253L28.285 114.789C22.6362 113.137 19.2128 107.413 20.4296 101.655L20.8887 99.4823C21.6325 95.9628 25.166 93.7783 28.6468 94.6861L58.8119 102.553Z" fill="url(#paint2_linear)"/>
<circle cx="76" cy="29" r="29" fill="#F0B90B"/>
<path d="M65.1846 28.9998L60.7476 33.4676L56.2798 28.9998L60.7476 24.532L65.1846 28.9998ZM75.9998 18.1846L83.6413 25.8261L88.1091 21.3583L80.4676 13.7476L75.9998 9.27979L71.532 13.7476L63.9213 21.3583L68.3891 25.8261L75.9998 18.1846ZM91.252 24.532L86.815 28.9998L91.2828 33.4676L95.7198 28.9998L91.252 24.532ZM75.9998 39.815L68.3583 32.1735L63.9213 36.6413L71.5628 44.2828L75.9998 48.7198L80.4676 44.252L88.1091 36.6105L83.6413 32.1735L75.9998 39.815ZM75.9998 33.4676L80.4676 28.9998L75.9998 24.532L71.532 28.9998L75.9998 33.4676Z" fill="#FFFDFA"/>
<g style="mix-blend-mode:multiply" opacity="0.1">
<circle cx="76" cy="29" r="27.5" stroke="#191326" stroke-width="3"/>
</g>
<circle cx="125.5" cy="72.5" r="43.5" fill="url(#paint3_linear)"/>
<path fill-rule="evenodd" clip-rule="evenodd" d="M97.2449 77.2795C97.2374 77.4419 97.2336 77.605 97.2336 77.7686C97.2336 78.3868 97.2875 78.9975 97.3925 79.5988H97.2336V80.5455C97.2336 81.0075 97.2637 81.4653 97.3227 81.9182C98.4745 90.755 110.65 97.708 125.5 97.708C140.35 97.708 152.526 90.755 153.678 81.9182C153.737 81.4653 153.767 81.0075 153.767 80.5455V79.5988H153.608C153.713 78.9975 153.767 78.3868 153.767 77.7686C153.767 77.605 153.763 77.4419 153.756 77.2795C153.329 68.027 140.842 60.606 125.5 60.606C110.158 60.606 97.6713 68.027 97.2449 77.2795ZM94.9234 77.2795C95.1336 71.6342 98.9698 66.8921 104.309 63.6502C109.844 60.2897 117.342 58.2866 125.5 58.2866C133.659 58.2866 141.157 60.2897 146.691 63.6502C152.031 66.8921 155.867 71.6342 156.077 77.2795H156.086V80.5455C156.086 86.4059 152.184 91.3288 146.691 94.6638C141.157 98.0243 133.659 100.027 125.5 100.027C117.342 100.027 109.844 98.0243 104.309 94.6638C98.8163 91.3288 94.9143 86.4059 94.9143 80.5455V77.2795H94.9234Z" fill="#606063"/>
<path d="M153.767 80.5455C153.767 90.0241 141.112 97.708 125.501 97.708C109.889 97.708 97.2339 90.0241 97.2339 80.5455V77.8286H153.767V80.5455Z" fill="#BEBEBE"/>
<path d="M153.767 77.7685C153.767 87.2472 141.112 94.9311 125.501 94.9311C109.889 94.9311 97.2339 87.2472 97.2339 77.7685C97.2339 68.2899 109.889 60.606 125.501 60.606C141.112 60.606 153.767 68.2899 153.767 77.7685Z" fill="#F5F3F3"/>
<path fill-rule="evenodd" clip-rule="evenodd" d="M101.583 72.9199C101.583 72.9307 101.583 72.9414 101.583 72.9522C101.583 73.7326 101.696 74.4969 101.913 75.2393H101.583V76.2444C101.583 76.688 101.619 77.1265 101.691 77.5586C102.768 84.0844 111.784 89.178 122.746 89.178C133.709 89.178 142.724 84.0844 143.802 77.5586C143.873 77.1265 143.91 76.688 143.91 76.2444V75.2393H143.58C143.791 74.5172 143.904 73.7743 143.91 73.016C143.91 72.9947 143.91 72.9734 143.91 72.9522C143.91 72.9414 143.91 72.9307 143.91 72.9199C143.882 65.7917 134.417 60.0186 122.747 60.0186C111.076 60.0186 101.612 65.7917 101.583 72.9199ZM99.2637 72.9199H99.2634V76.2444C99.2634 80.9296 102.362 84.7958 106.572 87.3689C110.822 89.9663 116.547 91.4973 122.746 91.4973C128.946 91.4973 134.67 89.9663 138.921 87.3689C143.131 84.7958 146.229 80.9296 146.229 76.2444V73.0246C146.229 73.0004 146.23 72.9763 146.23 72.9522C146.23 68.2669 143.131 64.4008 138.921 61.8277C134.671 59.2302 128.946 57.6992 122.747 57.6992C116.547 57.6992 110.823 59.2302 106.572 61.8277C102.371 64.3949 99.2779 68.2492 99.2637 72.9199Z" fill="#612F01"/>
<path d="M143.91 76.2445C143.91 83.3875 134.435 89.1781 122.747 89.1781C111.059 89.1781 101.583 83.3875 101.583 76.2445V73.21H143.91V76.2445Z" fill="#FEDC90"/>
<path d="M143.91 72.9521C143.91 80.0952 134.435 85.8857 122.747 85.8857C111.059 85.8857 101.583 80.0952 101.583 72.9521C101.583 65.8091 111.059 60.0186 122.747 60.0186C134.435 60.0186 143.91 65.8091 143.91 72.9521Z" fill="#D1884F"/>
<path fill-rule="evenodd" clip-rule="evenodd" d="M107.962 65.9619C107.962 65.9727 107.962 65.9834 107.962 65.9942C107.962 66.7746 108.075 67.5389 108.292 68.2813H107.961V69.2864C107.961 69.73 107.998 70.1685 108.069 70.6006C109.147 77.1264 118.163 82.2199 129.125 82.2199C140.087 82.2199 149.103 77.1264 150.181 70.6006C150.252 70.1685 150.289 69.73 150.289 69.2864V68.2813H149.959C150.17 67.5591 150.283 66.8163 150.289 66.058C150.289 66.0367 150.289 66.0154 150.289 65.9942C150.289 65.9834 150.289 65.9727 150.289 65.9619C150.26 58.8337 140.796 53.0606 129.125 53.0606C117.455 53.0606 107.99 58.8337 107.962 65.9619ZM105.642 65.9619H105.642V69.2864C105.642 73.9716 108.74 77.8377 112.951 80.4109C117.201 83.0083 122.925 84.5393 129.125 84.5393C135.325 84.5393 141.049 83.0083 145.299 80.4109C149.51 77.8377 152.608 73.9716 152.608 69.2864V66.0666C152.608 66.0424 152.608 66.0183 152.608 65.9942C152.608 61.3089 149.51 57.4428 145.3 54.8697C141.049 52.2722 135.325 50.7412 129.125 50.7412C122.925 50.7412 117.201 52.2722 112.951 54.8697C108.75 57.4369 105.657 61.2912 105.642 65.9619Z" fill="#612F01"/>
<path d="M150.287 69.2865C150.287 76.4295 140.812 82.2201 129.124 82.2201C117.435 82.2201 107.96 76.4295 107.96 69.2865V66.252H150.287V69.2865Z" fill="#FEDC90"/>
<path d="M150.287 65.9941C150.287 73.1371 140.812 78.9277 129.124 78.9277C117.435 78.9277 107.96 73.1371 107.96 65.9941C107.96 58.8511 117.435 53.0605 129.124 53.0605C140.812 53.0605 150.287 58.8511 150.287 65.9941Z" fill="#D1884F"/>
<path fill-rule="evenodd" clip-rule="evenodd" d="M101.583 59.0039C101.583 59.0146 101.583 59.0254 101.583 59.0361C101.583 59.8166 101.696 60.5809 101.913 61.3233H101.583V62.3284C101.583 62.772 101.619 63.2105 101.691 63.6426C102.768 70.1684 111.784 75.2619 122.746 75.2619C133.709 75.2619 142.724 70.1684 143.802 63.6426C143.873 63.2105 143.91 62.772 143.91 62.3284V61.3233H143.58C143.791 60.6011 143.904 59.8583 143.91 59.1C143.91 59.0787 143.91 59.0574 143.91 59.0361C143.91 59.0254 143.91 59.0146 143.91 59.0039C143.882 51.8757 134.417 46.1026 122.747 46.1026C111.076 46.1026 101.612 51.8757 101.583 59.0039ZM99.2637 59.0039H99.2634V62.3284C99.2634 67.0136 102.362 70.8797 106.572 73.4528C110.822 76.0503 116.547 77.5813 122.746 77.5813C128.946 77.5813 134.67 76.0503 138.921 73.4528C143.131 70.8797 146.229 67.0136 146.229 62.3284V59.1085C146.229 59.0844 146.23 59.0603 146.23 59.0361C146.23 54.3509 143.131 50.4848 138.921 47.9117C134.671 45.3142 128.946 43.7832 122.747 43.7832C116.547 43.7832 110.823 45.3142 106.572 47.9117C102.371 50.4789 99.2779 54.3331 99.2637 59.0039Z" fill="#612F01"/>
<path d="M143.91 62.3285C143.91 69.4715 134.435 75.2621 122.747 75.2621C111.059 75.2621 101.583 69.4715 101.583 62.3285V59.2939H143.91V62.3285Z" fill="#FEDC90"/>
<path d="M143.91 59.0361C143.91 66.1791 134.435 71.9697 122.747 71.9697C111.059 71.9697 101.583 66.1791 101.583 59.0361C101.583 51.8931 111.059 46.1025 122.747 46.1025C134.435 46.1025 143.91 51.8931 143.91 59.0361Z" fill="#D1884F"/>
<path fill-rule="evenodd" clip-rule="evenodd" d="M106.588 59.841C106.588 62.2258 108.321 64.3617 111.055 65.7987L109.16 69.0795L109.161 69.0797H109.16V77.3826C109.16 78.4806 110.05 79.3706 111.148 79.3706C112.246 79.3706 113.136 78.4806 113.136 77.3826V70.7794L115.174 67.2498C116.477 67.5261 117.876 67.6762 119.332 67.6762C126.37 67.6762 132.075 64.1682 132.075 59.841C132.075 55.5138 126.37 52.0059 119.332 52.0059C112.293 52.0059 106.588 55.5138 106.588 59.841Z" fill="url(#paint4_linear)"/>
<path fill-rule="evenodd" clip-rule="evenodd" d="M111.056 65.7984C110.754 65.6392 110.463 65.4714 110.186 65.2957C107.96 63.8851 106.59 61.9613 106.59 59.8407C106.59 55.5134 112.295 52.0055 119.333 52.0055C126.372 52.0055 132.077 55.5134 132.077 59.8407C132.077 64.1679 126.372 67.6758 119.333 67.6758C117.878 67.6758 116.479 67.5257 115.176 67.2494L113.138 70.779V77.3823C113.138 78.4802 112.248 79.3703 111.15 79.3703C110.052 79.3703 109.162 78.4802 109.162 77.3823V69.0793L111.056 65.7984ZM107.133 69.1143V77.3823C107.133 79.601 108.931 81.3997 111.15 81.3997C113.369 81.3997 115.168 79.601 115.168 77.3823V71.3228L116.225 69.4921C117.228 69.632 118.269 69.7052 119.333 69.7052C123.166 69.7052 126.733 68.7543 129.407 67.1098C132.049 65.4856 134.106 62.9728 134.106 59.8407C134.106 56.7085 132.049 54.1957 129.407 52.5715C126.733 50.927 123.166 49.9761 119.333 49.9761C115.501 49.9761 111.934 50.927 109.259 52.5715C106.618 54.1957 104.56 56.7085 104.56 59.8407C104.56 62.5896 106.135 64.8532 108.322 66.4751L107.419 68.0401C107.333 68.1843 107.264 68.3401 107.215 68.5046C107.156 68.7052 107.129 68.9107 107.133 69.1143Z" fill="#633001"/>
<path d="M110.571 56.5398C110.571 58.7815 113.427 60.5987 116.949 60.5987C120.472 60.5987 123.327 58.7815 123.327 56.5398C123.327 54.2982 120.472 52.481 116.949 52.481C113.427 52.481 110.571 54.2982 110.571 56.5398Z" fill="#9E7200"/>
<path d="M110.57 54.8003H123.326V56.5398H110.57V54.8003Z" fill="#9E7200"/>
<path d="M110.571 54.8001C110.571 57.0418 113.427 58.859 116.949 58.859C120.472 58.859 123.327 57.0418 123.327 54.8001C123.327 52.5584 120.472 50.7412 116.949 50.7412C113.427 50.7412 110.571 52.5584 110.571 54.8001Z" fill="#F0B90B"/>
<path d="M114.528 54.3107L116.325 53.1667C116.705 52.9249 117.191 52.9249 117.57 53.1667L119.368 54.3107C119.726 54.5386 119.726 55.0612 119.368 55.2891L117.57 56.4331C117.191 56.6749 116.705 56.6749 116.325 56.4331L114.528 55.2891C114.17 55.0612 114.17 54.5386 114.528 54.3107Z" fill="#9E7200"/>
<path fill-rule="evenodd" clip-rule="evenodd" d="M111.348 50.2175C112.875 49.246 114.86 48.7114 116.948 48.7114C119.035 48.7114 121.021 49.246 122.547 50.2175C124.05 51.1738 125.355 52.7444 125.355 54.7997V56.5393C125.355 58.5946 124.05 60.1652 122.547 61.1215C121.021 62.0931 119.035 62.6276 116.948 62.6276C114.86 62.6276 112.875 62.0931 111.348 61.1215C109.846 60.1652 108.54 58.5946 108.54 56.5393V54.7997C108.54 52.7444 109.846 51.1738 111.348 50.2175ZM116.948 50.7409C113.425 50.7409 110.57 52.5581 110.57 54.7997V56.5393C110.57 58.7809 113.425 60.5981 116.948 60.5981C120.47 60.5981 123.326 58.7809 123.326 56.5393V54.7997C123.326 52.5581 120.47 50.7409 116.948 50.7409Z" fill="#633001"/>
<g style="mix-blend-mode:multiply" opacity="0.2">
<circle cx="125.5" cy="72.5" r="42.0815" stroke="#191326" stroke-width="2.83696"/>
</g>
<defs>
<linearGradient id="paint0_linear" x1="124.757" y1="87.7742" x2="111.381" y2="138.886" gradientUnits="userSpaceOnUse">
<stop stop-color="#404042"/>
<stop offset="1" stop-color="#48484B"/>
</linearGradient>
<linearGradient id="paint1_linear" x1="65.5673" y1="105.096" x2="60.7353" y2="123.129" gradientUnits="userSpaceOnUse">
<stop stop-color="#404042"/>
<stop offset="1" stop-color="#48484B"/>
</linearGradient>
<linearGradient id="paint2_linear" x1="92.4948" y1="80.1687" x2="108.09" y2="164.62" gradientUnits="userSpaceOnUse">
<stop stop-color="#404042"/>
<stop offset="1" stop-color="#48484B"/>
</linearGradient>
<linearGradient id="paint3_linear" x1="125.5" y1="29" x2="125.5" y2="116" gradientUnits="userSpaceOnUse">
<stop stop-color="#54DADE"/>
<stop offset="0.762157" stop-color="#24C7D6"/>
</linearGradient>
<linearGradient id="paint4_linear" x1="119.469" y1="52.2681" x2="119.469" y2="79.1651" gradientUnits="userSpaceOnUse">
<stop stop-color="#9F4A08"/>
<stop offset="0.370494" stop-color="#7D3900"/>
<stop offset="1" stop-color="#8D4104"/>
</linearGradient>
</defs>
</svg>
