<svg width="96" height="96" viewBox="0 0 96 96" fill="none" xmlns="http://www.w3.org/2000/svg">
<g clip-path="url(#clip0)">
<path d="M28.8272 71.4166C26.9202 78.7034 37.8272 87.8694 53.1886 91.8896C68.5499 95.9097 82.5487 93.2615 84.4557 85.9747C86.3627 78.6879 75.4557 69.5218 60.0943 65.5017C44.733 61.4816 30.7342 64.1298 28.8272 71.4166Z" fill="#606063"/>
<path d="M82.1546 89.5636L91.4078 79.7927L25.7953 62.6217L29.2277 75.7125L82.1546 89.5636Z" fill="#606063"/>
<path d="M29.9602 64.9761L4.84342 58.403C3.75473 58.118 2.6475 58.7956 2.40573 59.8947L2.1248 61.1717C1.56499 63.7166 3.07167 66.2602 5.57244 66.9922L30.6596 74.3352L29.9602 64.9761Z" fill="#606063"/>
<path d="M25.9216 59.2256C23.7054 67.694 36.9161 78.4865 55.4285 83.3313C73.9409 88.176 90.7448 85.2385 92.9611 76.77C95.1773 68.3016 81.9666 57.5091 63.4542 52.6643C44.9417 47.8196 28.1378 50.7571 25.9216 59.2256Z" fill="url(#paint0_linear)"/>
<path fill-rule="evenodd" clip-rule="evenodd" d="M76.6038 73.9714C80.8627 77.1035 83.3515 80.4912 83.7229 83.4942L85.5093 83.2733C85.0464 79.5305 82.0671 75.7549 77.6702 72.5213C73.2362 69.2606 67.2064 66.4328 60.322 64.6311C53.4376 62.8294 46.7956 62.341 41.3327 63.0117C35.9155 63.6769 31.4687 65.509 29.2317 68.5452L30.6808 69.6129C32.4757 67.1768 36.3049 65.4426 41.5521 64.7983C46.7538 64.1596 53.1648 64.6187 59.8663 66.3725C66.5678 68.1263 72.3818 70.8665 76.6038 73.9714Z" fill="#606063"/>
<path fill-rule="evenodd" clip-rule="evenodd" d="M34.0406 71.2434C28.8082 66.9687 26.8419 62.8187 27.663 59.6813C28.484 56.544 32.2312 53.8891 38.8868 52.7256C45.3707 51.5921 53.9337 52.0334 62.9984 54.4057C72.0632 56.778 79.7446 60.5879 84.8421 64.7522C90.0745 69.0269 92.0408 73.1769 91.2197 76.3143C90.3986 79.4516 86.6515 82.1065 79.9959 83.27C73.512 84.4035 64.949 83.9622 55.8842 81.5899C46.8195 79.2176 39.1381 75.4077 34.0406 71.2434ZM55.4285 83.3313C36.9161 78.4865 23.7054 67.694 25.9216 59.2256C28.1378 50.7571 44.9417 47.8196 63.4542 52.6643C81.9666 57.5091 95.1773 68.3016 92.9611 76.77C90.7448 85.2385 73.9409 88.176 55.4285 83.3313Z" fill="#979797"/>
<path fill-rule="evenodd" clip-rule="evenodd" d="M27.1004 74.4294L24.1383 62.9559L25.8812 62.5059L28.8433 73.9794L27.1004 74.4294Z" fill="url(#paint1_linear)"/>
<path fill-rule="evenodd" clip-rule="evenodd" d="M26.0816 63.7138C26.0546 63.6249 26.0289 63.5362 26.0045 63.4475C25.9595 63.2838 25.9191 63.1204 25.8833 62.9573L25.7983 62.6333C25.797 62.6282 25.8016 62.6236 25.8067 62.6249C25.8115 62.6262 25.8161 62.622 25.8152 62.617C25.8143 62.6122 25.8134 62.6073 25.8126 62.6025C25.7841 62.4431 25.7601 62.2842 25.7406 62.1257C25.736 62.0876 25.7316 62.0496 25.7274 62.0115C25.6841 61.6136 25.6695 61.2186 25.6848 60.8272C25.6848 60.8269 25.6848 60.8267 25.6849 60.8264C25.706 60.2852 25.7842 59.751 25.9216 59.2258C28.1378 50.7573 44.9417 47.8198 63.4541 52.6645C81.9666 57.5093 95.1773 68.3018 92.961 76.7702C92.8236 77.2955 92.63 77.7994 92.3834 78.2816C92.3833 78.2818 92.3832 78.282 92.3831 78.2822C92.1167 78.8028 91.7885 79.2979 91.4024 79.767C91.3992 79.7709 91.396 79.7748 91.3928 79.7787C91.3916 79.7801 91.3911 79.7817 91.3911 79.7833C91.3912 79.7863 91.3932 79.7891 91.3964 79.79C91.3994 79.7907 91.4013 79.7932 91.4016 79.796C91.4018 79.7979 91.4012 79.8 91.3997 79.8016L91.0352 80.1865C90.993 80.2319 90.9502 80.2771 90.9069 80.322L90.1651 81.1053L90.1638 81.1066L83.2762 88.3796C79.1915 93.7981 66.7185 95.4304 53.1885 91.8896C39.8069 88.3875 29.8055 80.9805 28.7104 74.3125C28.6544 73.9713 28.4201 73.6803 28.0882 73.5832L6.07638 67.1459C3.59017 66.4188 2.08344 63.8995 2.61902 61.3652L2.89448 60.0617C3.12835 58.955 4.23944 58.2681 5.33398 58.5535L25.8833 63.9124C26.0036 63.9438 26.1131 63.834 26.0816 63.7138ZM23.8872 61.5317C23.8491 60.6054 23.9419 59.681 24.1803 58.7701C25.5754 53.439 31.3383 50.3908 38.2668 49.1796C45.367 47.9384 54.4622 48.4507 63.9099 50.9232C73.3575 53.3956 81.5377 57.4044 87.1196 61.9645C92.5666 66.4144 96.0976 71.8948 94.7024 77.2259C94.368 78.5036 93.7709 79.6643 92.962 80.6992C92.8926 80.8184 92.8077 80.9325 92.7066 81.0393L92.354 81.4116C92.352 81.4137 92.35 81.4159 92.348 81.418C92.3019 81.4675 92.2553 81.5167 92.2082 81.5656C92.2061 81.5678 92.204 81.5699 92.2019 81.5721L84.6491 89.5476C82.147 92.7914 77.4336 94.6237 71.9903 95.2813C66.4106 95.9555 59.6801 95.4491 52.7328 93.6309C45.8612 91.8326 39.8039 89.0197 35.2858 85.7459C31.0381 82.6679 27.893 78.989 27.0401 75.1521L5.57114 68.8735C2.18183 67.8823 0.127793 64.448 0.857912 60.993L1.13337 59.6895C1.57963 57.5778 3.6997 56.2671 5.7882 56.8117L23.8872 61.5317Z" fill="url(#paint2_linear)"/>
<circle cx="34.2001" cy="17.4" r="17.4" fill="#F0B90B"/>
<path fill-rule="evenodd" clip-rule="evenodd" d="M26.7947 12.9806L34.2071 5.56812L37.1627 8.52366L29.7502 15.9361L26.7947 12.9806ZM26.8001 21.8381L38.6459 9.99235L41.6014 12.9479L29.7557 24.7937L26.8001 21.8381ZM43.076 14.431L31.2303 26.2768L34.1858 29.2323L46.0316 17.3866L43.076 14.431ZM22.3679 17.4063L25.3235 14.4508L28.279 17.4063L25.3235 20.3619L22.3679 17.4063Z" fill="#FFFDFA"/>
<g style="mix-blend-mode:multiply" opacity="0.2">
<path fill-rule="evenodd" clip-rule="evenodd" d="M34.2001 33C42.8157 33 49.8 26.0156 49.8 17.4C49.8 8.78436 42.8157 1.8 34.2001 1.8C25.5844 1.8 18.6 8.78436 18.6 17.4C18.6 26.0156 25.5844 33 34.2001 33ZM34.2001 34.8C43.8098 34.8 51.6001 27.0098 51.6001 17.4C51.6001 7.79025 43.8098 0 34.2001 0C24.5903 0 16.8 7.79025 16.8 17.4C16.8 27.0098 24.5903 34.8 34.2001 34.8Z" fill="#191326"/>
</g>
<ellipse cx="63.9" cy="43.4999" rx="26.1" ry="26.1" fill="white"/>
<path d="M82.7388 51.095L67.6212 24.8872C67.4692 24.6209 67.1654 24.4688 66.8615 24.4688H60.822C60.5182 24.4688 60.2143 24.6209 60.0624 24.8872L44.9827 51.095C44.8308 51.3613 44.8308 51.7036 44.9827 51.9699L48.0215 57.2191C48.1734 57.4853 48.4773 57.6375 48.7811 57.6375H78.9783C79.2822 57.6375 79.5861 57.4853 79.738 57.2191L82.7767 51.9699C82.8907 51.7036 82.8907 51.3613 82.7388 51.095ZM61.3538 26.2185H65.3801L54.0609 45.8458C53.909 46.1121 53.909 46.4545 54.0609 46.7207C54.2129 46.987 54.5167 47.1392 54.8206 47.1392H66.4057L68.4188 50.6386H47.2618L61.3538 26.2185ZM63.8608 42.8029L65.3801 45.4274H62.3414L63.8608 42.8029ZM47.2618 52.3883H69.9002C70.2041 52.3883 70.508 52.2361 70.6599 51.9699C70.8118 51.7036 70.8118 51.3613 70.6599 51.095L64.8863 41.0531L66.8995 37.5537L77.459 55.8878H49.2749L47.2618 52.3883ZM78.9783 55.0129L67.6212 35.3855C67.4692 35.1192 67.1654 34.9672 66.8615 34.9672C66.5576 34.9672 66.2538 35.1192 66.1018 35.3855L60.3282 45.4274H56.3019L66.8995 27.0933L80.9915 51.5514L78.9783 55.0129Z" fill="url(#paint3_linear)"/>
<g style="mix-blend-mode:multiply" opacity="0.2">
<path fill-rule="evenodd" clip-rule="evenodd" d="M63.9 67.8977C77.3746 67.8977 88.2979 56.9745 88.2979 43.4999C88.2979 30.0254 77.3746 19.1021 63.9 19.1021C50.4255 19.1021 39.5022 30.0254 39.5022 43.4999C39.5022 56.9745 50.4255 67.8977 63.9 67.8977ZM63.9 69.5999C78.3147 69.5999 90 57.9145 90 43.4999C90 29.0853 78.3147 17.3999 63.9 17.3999C49.4854 17.3999 37.8 29.0853 37.8 43.4999C37.8 57.9145 49.4854 69.5999 63.9 69.5999Z" fill="#191326"/>
</g>
</g>
<defs>
<linearGradient id="paint0_linear" x1="63.4542" y1="52.6643" x2="55.4285" y2="83.3313" gradientUnits="userSpaceOnUse">
<stop stop-color="#404042"/>
<stop offset="1" stop-color="#48484B"/>
</linearGradient>
<linearGradient id="paint1_linear" x1="27.9404" y1="63.0577" x2="25.0412" y2="73.8776" gradientUnits="userSpaceOnUse">
<stop stop-color="#404042"/>
<stop offset="1" stop-color="#48484B"/>
</linearGradient>
<linearGradient id="paint2_linear" x1="44.097" y1="48.1013" x2="53.4539" y2="98.7723" gradientUnits="userSpaceOnUse">
<stop stop-color="#404042"/>
<stop offset="1" stop-color="#48484B"/>
</linearGradient>
<linearGradient id="paint3_linear" x1="50.9225" y1="32.5416" x2="74.9035" y2="51.6349" gradientUnits="userSpaceOnUse">
<stop stop-color="#08E6A0"/>
<stop offset="1" stop-color="#2C9DE1"/>
</linearGradient>
<clipPath id="clip0">
<rect width="96" height="96" fill="white"/>
</clipPath>
</defs>
</svg>
