<svg xmlns="http://www.w3.org/2000/svg" xmlns:v="https://vecta.io/nano" width="160" height="160" fill="none"><style>.B{fill-rule:evenodd}</style><g clip-path="url(#D)"><g fill="#606063"><path d="M48.045 119.028c-3.178 12.144 15 27.421 40.602 34.121s48.934 2.287 52.112-9.858-15-27.421-40.602-34.122-48.934-2.286-52.112 9.859z"/><path d="M136.924 149.273l15.422-16.285-109.354-28.619 5.721 21.818 88.211 23.086z"/><path d="M49.934 108.293L8.072 97.338c-1.814-.475-3.66.654-4.063 2.486l-.468 2.129a8.26 8.26 0 0 0 5.746 9.7l41.812 12.239-1.166-15.599z"/></g><path fill="url(#A)" d="M43.203 98.71c-3.694 14.114 18.324 32.101 49.178 40.176s58.86 3.178 62.554-10.936-18.324-32.101-49.178-40.176-58.861-3.179-62.554 10.935z"/><g class="B"><path fill="#606063" d="M127.673 123.286c7.098 5.22 11.246 10.866 11.865 15.871l2.978-.368c-.772-6.238-5.737-12.531-13.066-17.92-7.389-5.435-17.439-10.148-28.913-13.151s-22.544-3.817-31.649-2.699c-9.029 1.109-16.44 4.163-20.168 9.223l2.415 1.779c2.992-4.06 9.373-6.95 18.119-8.024 8.67-1.064 19.354-.299 30.524 2.624s20.859 7.49 27.896 12.665z"/><path fill="#979797" d="M56.734 118.739c-8.721-7.124-11.998-14.041-10.629-19.27s7.614-9.654 18.706-11.593c10.807-1.889 25.078-1.154 40.186 2.8s27.911 10.304 36.406 17.245c8.721 7.124 11.998 14.041 10.63 19.27s-7.614 9.653-18.707 11.593c-10.806 1.889-25.078 1.153-40.186-2.8s-27.91-10.304-36.406-17.245zm35.646 20.147c-30.854-8.075-52.872-26.062-49.178-40.176s31.7-19.01 62.554-10.935 52.872 26.062 49.178 40.176-31.7 19.01-62.554 10.936z"/><path fill="url(#B)" d="M45.167 124.049l-4.937-19.123 2.905-.75 4.937 19.123-2.905.75z"/><path fill="url(#C)" d="M43.469 106.189l-.128-.443-.202-.817-.142-.54c.022-.012.03-.019.028-.027l-.004-.025-.12-.794-.022-.191c-.072-.663-.096-1.321-.071-1.974.035-.903.166-1.793.395-2.668 3.694-14.114 31.7-19.01 62.555-10.936s52.872 26.062 49.178 40.176a12.4 12.4 0 0 1-.963 2.519 13.7 13.7 0 0 1-1.635 2.476l-.016.019c.011.02.014.025.015.029l-.611.651-12.932 13.655c-6.807 9.031-27.596 11.752-50.146 5.85-22.303-5.837-38.971-18.182-40.797-29.295-.093-.569-.484-1.054-1.037-1.215L10.127 111.91a8.26 8.26 0 0 1-5.762-9.635l.459-2.172c.39-1.845 2.242-2.99 4.066-2.514l34.249 8.931a.27.27 0 0 0 .331-.331zm-3.657-3.636c-.064-1.544.091-3.085.488-4.603 2.325-8.885 11.93-13.965 23.478-15.984 11.834-2.069 26.992-1.215 42.738 2.906s29.38 10.802 38.683 18.402c9.078 7.417 14.963 16.551 12.638 25.436-.557 2.129-1.552 4.064-2.901 5.789a3.08 3.08 0 0 1-.425.566l-13.429 14.181c-4.171 5.406-12.026 8.46-21.098 9.556-9.3 1.124-20.517.28-32.096-2.751-11.453-2.997-21.548-7.685-29.078-13.141-7.08-5.13-12.321-11.262-13.743-17.657L9.285 114.789a11.26 11.26 0 0 1-7.855-13.134l.459-2.173c.744-3.519 4.277-5.704 7.758-4.796l30.165 7.867z"/></g><circle cx="57" cy="29" r="29" fill="#f0b90b"/><path fill="#fffdfa" d="M46.185 29l-4.437 4.468L37.28 29l4.468-4.468L46.185 29zM57 18.185l7.642 7.642 4.468-4.468-7.642-7.611L57 9.28 44.921 21.358l4.468 4.468L57 18.185zm15.252 6.347L67.815 29l4.468 4.468L76.72 29l-4.468-4.468zM57 39.815l-7.642-7.642-4.437 4.468L57 48.72l12.109-12.109-4.468-4.437L57 39.815zm0-6.347L61.468 29 57 24.532 52.532 29 57 33.468z"/><g style="mix-blend-mode:multiply" class="B" opacity=".1"><path fill="#191326" d="M57 55c14.359 0 26-11.641 26-26S71.359 3 57 3 31 14.641 31 29s11.641 26 26 26zm0 3c16.016 0 29-12.984 29-29S73.016 0 57 0 28 12.984 28 29s12.984 29 29 29z"/></g><path fill="#ee7cc1" d="M106.937 115.612c23.783 0 43.063-19.343 43.063-43.203s-19.28-43.203-43.063-43.203-43.062 19.343-43.062 43.203 19.28 43.203 43.062 43.203z"/><g fill="#000"><path d="M106.359 29.595c-23.619 0-42.766 19.209-42.766 42.905s19.147 42.905 42.766 42.905 42.766-19.209 42.766-42.905-19.147-42.905-42.766-42.905zM63 72.5C63 48.476 82.413 29 106.359 29s43.359 19.476 43.359 43.5-19.413 43.5-43.359 43.5S63 96.524 63 72.5z" class="B"/><path d="M91.443 63.459a1.741 1.741 0 1 0 0-3.482 1.741 1.741 0 1 0 0 3.482zm30.078 0a1.741 1.741 0 1 0 0-3.482 1.741 1.741 0 1 0 0 3.482z"/></g><g class="B"><path fill="#b32c43" d="M77.673 71.608s-2.93 2.843 3.411 5.787c0 0 11.479 5.058 26.836 4.599 17.962-.537 26.327-5.657 28.153-7.244 2.257-1.961 1.434-5.341-4.968-4.229-7.424 1.29-11.812 2.306-22.972 2.651-9.196.284-19.543-.276-23.977-1.297-5.803-1.335-6.483-.268-6.483-.268z"/><path fill="#f06c75" d="M80.239 77.802s9.865-2.216 25.831-2.331 26.936 1.533 26.936 1.533-11.097 5.35-26.164 5.34c-18.717-.012-26.603-4.542-26.603-4.542z"/><g fill="#000"><path d="M77.152 71.241c.063-.099.292-.369.983-.533.79-.188 2.51-.283 6.164.557 4.404 1.013 14.681 1.563 23.814 1.281 11.116-.344 15.487-1.356 22.882-2.642 3.561-.619 5.546.148 6.352 1.206.913 1.2.571 2.909-.854 4.146-1.853 1.609-10.328 6.856-28.554 7.401-15.517.463-27.114-4.653-27.125-4.659-3.532-1.64-4.388-3.346-4.455-4.547-.064-1.143.572-1.961.793-2.21zm.521.385s-2.93 2.843 3.411 5.787c0 0 11.479 5.058 26.836 4.599 17.962-.537 26.326-5.657 28.153-7.244 2.257-1.961 1.433-5.341-4.969-4.229-7.423 1.29-11.811 2.306-22.972 2.651-9.196.284-19.543-.277-23.977-1.297-5.803-1.335-6.483-.268-6.483-.268z"/><path d="M125.241 71.543s5.797-1.179 8.67-.095c4.059 1.531.466 4.621.466 4.621s2.84-1.472 3.133-3.155c0 0 .605-3.003-4.737-2.81-2.939.106-7.532 1.438-7.532 1.438z"/></g><g fill="#ffd6f1"><path d="M132.081 64.461c1.594-.327 2.991-.091 3.116.525s-1.067 1.382-2.662 1.709-2.991.091-3.117-.525 1.068-1.382 2.663-1.709zm-45.43-28.705c-11.286 5.679-16.511 15.652-6.167 14.478 2.266-.257 4.141-4.565 9.985-7.687 4.276-2.284 11.691-3.89 11.296-7.171-.258-2.141-2.072-2.996-6.618-2.54-3.632.365-8.496 2.92-8.496 2.92z"/></g></g><g style="mix-blend-mode:multiply" class="B" opacity=".2"><path fill="#191326" d="M106.5 113.163c22.458 0 40.663-18.205 40.663-40.663S128.958 31.837 106.5 31.837 65.837 50.042 65.837 72.5s18.205 40.663 40.663 40.663zm0 2.837c24.024 0 43.5-19.476 43.5-43.5S130.524 29 106.5 29 63 48.476 63 72.5 82.476 116 106.5 116z"/></g></g><defs><linearGradient id="A" x1="105.757" x2="92.381" y1="87.774" y2="138.886" gradientUnits="userSpaceOnUse"><stop stop-color="#404042"/><stop offset="1" stop-color="#48484b"/></linearGradient><linearGradient id="B" x1="46.567" x2="41.735" y1="105.096" y2="123.129" gradientUnits="userSpaceOnUse"><stop stop-color="#404042"/><stop offset="1" stop-color="#48484b"/></linearGradient><linearGradient id="C" x1="73.495" x2="89.09" y1="80.169" y2="164.62" gradientUnits="userSpaceOnUse"><stop stop-color="#404042"/><stop offset="1" stop-color="#48484b"/></linearGradient><clipPath id="D"><path fill="#fff" d="M0 0h160v160H0z"/></clipPath></defs></svg>