<svg width="160" height="160" viewBox="0 0 160 160" fill="none" xmlns="http://www.w3.org/2000/svg">
<g clip-path="url(#clip0)">
<path d="M48.0451 119.028C44.8668 131.172 63.0451 146.449 88.6473 153.149C114.25 159.85 137.581 155.436 140.759 143.291C143.938 131.147 125.759 115.87 100.157 109.17C74.5547 102.469 51.2234 106.883 48.0451 119.028Z" fill="#606063"/>
<path d="M136.924 149.273L152.346 132.988L42.9921 104.37L48.7127 126.188L136.924 149.273Z" fill="#606063"/>
<path d="M49.9337 108.293L8.07245 97.3381C6.25796 96.8632 4.41259 97.9925 4.00962 99.8243L3.54142 101.953C2.60839 106.194 5.11954 110.434 9.28748 111.653L51.0994 123.892L49.9337 108.293Z" fill="#606063"/>
<path d="M43.2026 98.7094C39.5089 112.823 61.5267 130.811 92.3808 138.886C123.235 146.96 151.241 142.064 154.935 127.95C158.629 113.836 136.611 95.8485 105.757 87.7739C74.9028 79.6993 46.8963 84.5953 43.2026 98.7094Z" fill="url(#paint0_linear)"/>
<path fill-rule="evenodd" clip-rule="evenodd" d="M127.673 123.286C134.771 128.506 138.919 134.152 139.538 139.157L142.515 138.789C141.744 132.551 136.779 126.258 129.45 120.869C122.06 115.434 112.011 110.721 100.537 107.718C89.0627 104.716 77.9926 103.902 68.8879 105.019C59.8592 106.128 52.4478 109.182 48.7195 114.242L51.1347 116.021C54.1262 111.961 60.5081 109.071 69.2535 107.997C77.923 106.933 88.608 107.698 99.7772 110.621C110.946 113.544 120.636 118.111 127.673 123.286Z" fill="#606063"/>
<path fill-rule="evenodd" clip-rule="evenodd" d="M56.7343 118.739C48.0136 111.615 44.7365 104.698 46.1049 99.4689C47.4733 94.24 53.7186 89.8153 64.8112 87.8761C75.6178 85.9869 89.8893 86.7224 104.997 90.6762C120.105 94.63 132.908 100.98 141.403 107.92C150.124 115.045 153.401 121.962 152.033 127.191C150.664 132.419 144.419 136.844 133.326 138.783C122.52 140.673 108.248 139.937 93.1403 135.983C78.0323 132.029 65.2301 125.68 56.7343 118.739ZM92.3808 138.886C61.5267 130.811 39.5089 112.823 43.2026 98.7094C46.8963 84.5953 74.9028 79.6993 105.757 87.7739C136.611 95.8485 158.629 113.836 154.935 127.95C151.241 142.064 123.235 146.96 92.3808 138.886Z" fill="#979797"/>
<path fill-rule="evenodd" clip-rule="evenodd" d="M45.1673 124.049L40.2305 104.926L43.1352 104.177L48.0721 123.299L45.1673 124.049Z" fill="url(#paint1_linear)"/>
<path fill-rule="evenodd" clip-rule="evenodd" d="M43.4693 106.189C43.4242 106.041 43.3814 105.893 43.3408 105.746C43.2658 105.473 43.1984 105.2 43.1387 104.929L42.9971 104.389C42.9949 104.38 43.0026 104.372 43.0111 104.375C43.0192 104.377 43.0267 104.37 43.0252 104.362C43.0238 104.353 43.0223 104.345 43.0209 104.337C42.9734 104.072 42.9334 103.807 42.901 103.543C42.8932 103.479 42.8859 103.416 42.879 103.352C42.8067 102.689 42.7825 102.031 42.808 101.378C42.808 101.378 42.808 101.378 42.808 101.377C42.8433 100.475 42.9735 99.5849 43.2026 98.7095C46.8963 84.5954 74.9028 79.6994 105.757 87.774C136.611 95.8486 158.629 113.836 154.935 127.95C154.706 128.826 154.383 129.666 153.972 130.469C153.972 130.469 153.972 130.47 153.972 130.47C153.528 131.338 152.981 132.163 152.337 132.945C152.332 132.951 152.327 132.958 152.321 132.964C152.319 132.967 152.318 132.969 152.318 132.972C152.319 132.977 152.322 132.982 152.327 132.983C152.332 132.984 152.335 132.989 152.336 132.993C152.336 132.996 152.335 133 152.333 133.002L151.725 133.644C151.655 133.72 151.584 133.795 151.511 133.87L150.275 135.175L150.273 135.177L138.794 147.299C131.986 156.33 111.197 159.051 88.6474 153.149C66.3447 147.312 49.6758 134.967 47.8506 123.854C47.7572 123.285 47.3668 122.8 46.8136 122.639L10.1272 111.91C5.98354 110.698 3.47232 106.499 4.36495 102.275L4.82405 100.103C5.21384 98.2581 7.06565 97.1133 8.88989 97.589L43.1387 106.52C43.3392 106.573 43.5218 106.39 43.4693 106.189ZM39.812 102.553C39.7484 101.009 39.903 99.4681 40.3003 97.9499C42.6256 89.0648 52.2305 83.9845 63.778 81.9658C75.6116 79.8971 90.7703 80.751 106.516 84.8718C122.262 88.9926 135.896 95.6738 145.199 103.274C154.278 110.691 160.163 119.825 157.837 128.71C157.28 130.839 156.285 132.774 154.937 134.499C154.821 134.697 154.679 134.887 154.511 135.065L153.923 135.686C153.92 135.689 153.917 135.693 153.913 135.697C153.836 135.779 153.759 135.861 153.68 135.943C153.677 135.946 153.673 135.95 153.67 135.953L141.082 149.246C136.912 154.652 129.056 157.706 119.984 158.802C110.684 159.926 99.4668 159.082 87.8878 156.051C76.4352 153.054 66.3398 148.366 58.8097 142.91C51.7301 137.78 46.4883 131.648 45.0668 125.253L9.28515 114.789C3.63631 113.137 0.212907 107.413 1.42977 101.655L1.88887 99.4823C2.63263 95.9628 6.16608 93.7783 9.64691 94.6861L39.812 102.553Z" fill="url(#paint2_linear)"/>
<circle cx="57" cy="29" r="29" fill="#F0B90B"/>
<path d="M46.1848 29L41.7478 33.4678L37.28 29L41.7478 24.5322L46.1848 29ZM57 18.1848L64.6415 25.8263L69.1093 21.3585L61.4678 13.7478L57 9.28L52.5322 13.7478L44.9215 21.3585L49.3893 25.8263L57 18.1848ZM72.2522 24.5322L67.8152 29L72.283 33.4678L76.72 29L72.2522 24.5322ZM57 39.8152L49.3585 32.1737L44.9215 36.6415L52.563 44.283L57 48.72L61.4678 44.2522L69.1093 36.6107L64.6415 32.1737L57 39.8152ZM57 33.4678L61.4678 29L57 24.5322L52.5322 29L57 33.4678Z" fill="#FFFDFA"/>
<g style="mix-blend-mode:multiply" opacity="0.1">
<path fill-rule="evenodd" clip-rule="evenodd" d="M57 55C71.3594 55 83 43.3594 83 29C83 14.6406 71.3594 3 57 3C42.6406 3 31 14.6406 31 29C31 43.3594 42.6406 55 57 55ZM57 58C73.0163 58 86 45.0163 86 29C86 12.9837 73.0163 0 57 0C40.9837 0 28 12.9837 28 29C28 45.0163 40.9837 58 57 58Z" fill="#191326"/>
</g>
<g clip-path="url(#clip1)">
<path d="M106.5 115.904C130.524 115.904 150 96.428 150 72.4036C150 48.3792 130.524 28.9036 106.5 28.9036C82.4756 28.9036 63 48.3792 63 72.4036C63 96.428 82.4756 115.904 106.5 115.904Z" fill="#FFE804"/>
<path fill-rule="evenodd" clip-rule="evenodd" d="M107.196 42.8234C109.11 42.8234 110.85 45.7814 110.85 49.2614C110.85 49.4354 110.85 49.4354 110.85 49.4354C111.894 48.2174 113.112 47.5214 114.156 47.8694C115.2 48.2174 115.548 49.6094 115.374 51.3494C115.374 52.2194 115.2 53.0894 114.852 53.9594C114.678 54.4814 114.33 55.0034 114.156 55.3514C128.076 58.8314 137.994 70.8374 137.82 91.5434H129.294C129.468 73.9694 119.55 65.2694 106.674 65.0954C92.5801 64.7474 84.7501 74.4914 83.8801 91.5434H75.1801C76.2241 70.6634 84.9241 58.1354 100.236 55.5254C100.062 55.1774 99.5401 54.4814 99.3661 53.9594C98.1481 51.3494 98.3221 48.7394 99.7141 48.0434C100.758 47.5214 102.498 48.3914 103.542 49.9574C103.542 49.7834 103.542 49.4354 103.542 49.2614C103.716 45.7814 105.282 42.8234 107.196 42.8234ZM99.3661 75.1874C100.41 75.1874 101.28 76.2314 101.28 77.2754V82.4954C101.28 83.7134 100.41 84.5834 99.3661 84.5834C98.3221 84.5834 97.4521 83.5394 97.4521 82.4954V77.2754C97.6261 76.0574 98.3221 75.1874 99.3661 75.1874ZM114.33 75.1874C115.374 75.1874 116.244 76.2314 116.244 77.2754V82.4954C116.244 83.7134 115.374 84.5834 114.33 84.5834C113.286 84.5834 112.416 83.5394 112.416 82.4954V77.2754C112.59 76.0574 113.286 75.1874 114.33 75.1874Z" fill="black"/>
</g>
<g style="mix-blend-mode:multiply" opacity="0.2">
<path fill-rule="evenodd" clip-rule="evenodd" d="M106.5 113.163C128.958 113.163 147.163 94.9576 147.163 72.5C147.163 50.0424 128.958 31.837 106.5 31.837C84.0424 31.837 65.837 50.0424 65.837 72.5C65.837 94.9576 84.0424 113.163 106.5 113.163ZM106.5 116C130.524 116 150 96.5244 150 72.5C150 48.4756 130.524 29 106.5 29C82.4756 29 63 48.4756 63 72.5C63 96.5244 82.4756 116 106.5 116Z" fill="#191326"/>
</g>
</g>
<defs>
<linearGradient id="paint0_linear" x1="105.757" y1="87.7739" x2="92.3808" y2="138.886" gradientUnits="userSpaceOnUse">
<stop stop-color="#404042"/>
<stop offset="1" stop-color="#48484B"/>
</linearGradient>
<linearGradient id="paint1_linear" x1="46.5673" y1="105.096" x2="41.7353" y2="123.129" gradientUnits="userSpaceOnUse">
<stop stop-color="#404042"/>
<stop offset="1" stop-color="#48484B"/>
</linearGradient>
<linearGradient id="paint2_linear" x1="73.495" y1="80.1687" x2="89.0897" y2="164.62" gradientUnits="userSpaceOnUse">
<stop stop-color="#404042"/>
<stop offset="1" stop-color="#48484B"/>
</linearGradient>
<clipPath id="clip0">
<rect width="160" height="160" fill="white"/>
</clipPath>
<clipPath id="clip1">
<rect width="87" height="87" fill="white" transform="translate(63 28.9036)"/>
</clipPath>
</defs>
</svg>
