<svg xmlns="http://www.w3.org/2000/svg" width="96" height="96" fill="none" viewBox="0 0 96 96"><g clip-path="url(#clip0)"><path fill="#606063" d="M28.8271 71.4166C26.9201 78.7034 37.8271 87.8695 53.1884 91.8896C68.5498 95.9097 82.5486 93.2616 84.4556 85.9748C86.3625 78.6879 75.4556 69.5219 60.0942 65.5018C44.7328 61.4816 30.7341 64.1298 28.8271 71.4166Z"/><path fill="#606063" d="M82.1547 89.5637L91.408 79.7928L25.7954 62.6218L29.2278 75.7126L82.1547 89.5637Z"/><path fill="#606063" d="M29.9603 64.976L4.84356 58.4028C3.75486 58.1179 2.64764 58.7955 2.40586 59.8946L2.12494 61.1716C1.56512 63.7164 3.07181 66.2601 5.57257 66.9921L30.6598 74.335L29.9603 64.976Z"/><path fill="url(#paint0_linear)" d="M25.9216 59.2256C23.7054 67.6941 36.9161 78.4866 55.4285 83.3313C73.941 88.1761 90.7448 85.2385 92.9611 76.7701C95.1773 68.3016 81.9666 57.5091 63.4542 52.6644C44.9417 47.8196 28.1378 50.7572 25.9216 59.2256Z"/><path fill="#606063" fill-rule="evenodd" d="M76.6039 73.9714C80.8628 77.1035 83.3516 80.4911 83.723 83.4941L85.5094 83.2732C85.0465 79.5304 82.0672 75.7548 77.6703 72.5213C73.2364 69.2605 67.2066 66.4327 60.3221 64.631C53.4377 62.8294 46.7957 62.3409 41.3329 63.0117C35.9156 63.6768 31.4688 65.509 29.2318 68.5452L30.681 69.6129C32.4758 67.1768 36.305 65.4425 41.5522 64.7982C46.7539 64.1596 53.1649 64.6186 59.8664 66.3724C66.5679 68.1262 72.3819 70.8665 76.6039 73.9714Z" clip-rule="evenodd"/><path fill="#979797" fill-rule="evenodd" d="M34.0406 71.2434C28.8082 66.9688 26.8419 62.8187 27.663 59.6814C28.484 56.544 32.2312 53.8892 38.8868 52.7257C45.3707 51.5922 53.9337 52.0334 62.9984 54.4057C72.0632 56.778 79.7446 60.5879 84.8421 64.7523C90.0745 69.0269 92.0408 73.177 91.2197 76.3143C90.3986 79.4517 86.6515 82.1065 79.9959 83.27C73.512 84.4035 64.949 83.9623 55.8842 81.59C46.8195 79.2177 39.1381 75.4078 34.0406 71.2434ZM55.4285 83.3313C36.9161 78.4866 23.7054 67.6941 25.9216 59.2256C28.1378 50.7572 44.9417 47.8196 63.4542 52.6644C81.9666 57.5091 95.1773 68.3016 92.9611 76.7701C90.7448 85.2385 73.941 88.1761 55.4285 83.3313Z" clip-rule="evenodd"/><path fill="url(#paint1_linear)" fill-rule="evenodd" d="M27.1005 74.4294L24.1384 62.9559L25.8813 62.5059L28.8434 73.9794L27.1005 74.4294Z" clip-rule="evenodd"/><path fill="url(#paint2_linear)" fill-rule="evenodd" d="M26.0817 63.7137C26.0547 63.6249 26.029 63.5361 26.0046 63.4474C25.9596 63.2837 25.9192 63.1203 25.8834 62.9573L25.7984 62.6332C25.7971 62.6282 25.8017 62.6235 25.8068 62.6249C25.8117 62.6261 25.8162 62.6219 25.8153 62.617C25.8144 62.6121 25.8135 62.6073 25.8127 62.6024C25.7842 62.4431 25.7602 62.2841 25.7408 62.1256C25.7361 62.0876 25.7317 62.0495 25.7275 62.0115C25.6842 61.6135 25.6697 61.2185 25.685 60.8271C25.685 60.8268 25.685 60.8266 25.685 60.8263C25.7062 60.2852 25.7843 59.751 25.9217 59.2257C28.138 50.7573 44.9418 47.8197 63.4543 52.6645C81.9667 57.5092 95.1774 68.3017 92.9612 76.7701C92.8237 77.2954 92.6301 77.7994 92.3835 78.2815C92.3834 78.2817 92.3833 78.2819 92.3832 78.2821C92.1168 78.8027 91.7887 79.2979 91.4025 79.7669C91.3993 79.7708 91.3961 79.7747 91.3929 79.7786C91.3917 79.78 91.3912 79.7816 91.3912 79.7832C91.3913 79.7862 91.3933 79.789 91.3965 79.7899C91.3995 79.7907 91.4014 79.7932 91.4017 79.7959C91.4019 79.7978 91.4013 79.7999 91.3998 79.8015L91.0353 80.1864C90.9931 80.2318 90.9503 80.277 90.907 80.3219L90.1652 81.1052L90.164 81.1065L83.2763 88.3795C79.1916 93.7981 66.7187 95.4303 53.1886 91.8895C39.807 88.3875 29.8056 80.9805 28.7106 74.3125C28.6545 73.9712 28.4202 73.6802 28.0883 73.5831L6.07651 67.1458C3.59029 66.4187 2.08356 63.8995 2.61914 61.3651L2.8946 60.0616C3.12847 58.9549 4.23956 58.268 5.3341 58.5534L25.8834 63.9123C26.0037 63.9437 26.1133 63.834 26.0817 63.7137ZM23.8874 61.5316C23.8492 60.6054 23.942 59.6809 24.1804 58.77C25.5755 53.4389 31.3384 50.3907 38.267 49.1795C45.3671 47.9383 54.4623 48.4506 63.91 50.9231C73.3576 53.3956 81.5378 57.4043 87.1197 61.9645C92.5667 66.4144 96.0977 71.8948 94.7025 77.2259C94.3681 78.5036 93.771 79.6642 92.9621 80.6992C92.8927 80.8183 92.8078 80.9325 92.7068 81.0392L92.3541 81.4115C92.3521 81.4136 92.3501 81.4158 92.3481 81.418C92.302 81.4675 92.2554 81.5167 92.2083 81.5655C92.2062 81.5677 92.2041 81.5699 92.202 81.572L84.6492 89.5476C82.1471 92.7913 77.4337 94.6236 71.9904 95.2813C66.4107 95.9554 59.6802 95.449 52.7329 93.6308C45.8613 91.8325 39.804 89.0196 35.286 85.7458C31.0382 82.6679 27.8932 78.989 27.0403 75.152L5.57126 68.8735C2.18195 67.8823 0.127915 64.4479 0.858034 60.9929L1.13349 59.6894C1.57975 57.5777 3.69982 56.267 5.78832 56.8117L23.8874 61.5316Z" clip-rule="evenodd"/><circle cx="34.2" cy="17.4" r="17.4" fill="#F0B90B"/><path fill="#FFFDFA" d="M27.7111 17.4L25.0489 20.0807L22.3682 17.4L25.0489 14.7193L27.7111 17.4ZM34.2002 10.9109L38.7851 15.4958L41.4658 12.8151L36.8809 8.24868L34.2002 5.56799L31.5195 8.24868L26.9531 12.8151L29.6338 15.4958L34.2002 10.9109ZM43.3515 14.7193L40.6893 17.4L43.37 20.0807L46.0322 17.4L43.3515 14.7193ZM34.2002 23.8891L29.6153 19.3042L26.9531 21.9849L31.538 26.5698L34.2002 29.232L36.8809 26.5513L41.4658 21.9664L38.7851 19.3042L34.2002 23.8891ZM34.2002 20.0807L36.8809 17.4L34.2002 14.7193L31.5195 17.4L34.2002 20.0807Z"/><g style="mix-blend-mode:multiply" opacity=".1"><path fill="#191326" fill-rule="evenodd" d="M34.2001 33C42.8157 33 49.8 26.0156 49.8 17.4C49.8 8.78436 42.8157 1.8 34.2001 1.8C25.5844 1.8 18.6 8.78436 18.6 17.4C18.6 26.0156 25.5844 33 34.2001 33ZM34.2001 34.8C43.8098 34.8 51.6001 27.0098 51.6001 17.4C51.6001 7.79025 43.8098 0 34.2001 0C24.5903 0 16.8 7.79025 16.8 17.4C16.8 27.0098 24.5903 34.8 34.2001 34.8Z" clip-rule="evenodd"/></g><ellipse cx="63.9" cy="43.5" fill="#fff" rx="26.1" ry="26.1"/><path fill="#3B218C" d="M53.1457 24.5605C58.7319 24.0065 64.2124 25.9795 68.1756 29.9634C70.6609 32.4617 72.2974 35.4947 73.0852 38.697H77.5982C78.1411 38.697 78.5812 39.1395 78.5812 39.6851C78.5812 40.2308 78.1411 40.6732 77.5982 40.6732H73.461C73.6922 42.3772 73.6909 44.1074 73.4572 45.8112H77.5982C78.1411 45.8112 78.5812 46.2536 78.5812 46.7993C78.5812 47.345 78.1411 47.7874 77.5982 47.7874H73.0782C72.2878 50.9793 70.6536 54.0018 68.1756 56.4927C64.2124 60.4766 58.7319 62.4496 53.1457 61.8957C53.0777 61.8881 53.0249 61.8274 53.0249 61.759C53.0249 61.7373 53.0303 61.7164 53.0397 61.6977C53.06 61.6575 53.0993 61.6276 53.1457 61.6225C57.3655 61.2051 61.3438 59.3156 64.3407 56.2954C66.7161 53.9076 68.3638 50.9801 69.1678 47.7874H56.3669C55.824 47.7874 55.3839 47.345 55.3839 46.7993C55.3839 46.2536 55.824 45.8112 56.3669 45.8112H69.5525C69.6706 44.9601 69.7307 44.0949 69.7307 43.2205C69.7307 42.3609 69.6726 41.5104 69.5584 40.6732H56.3669C55.824 40.6732 55.3839 40.2308 55.3839 39.6851C55.3839 39.1395 55.824 38.697 56.3669 38.697H69.1787C68.3787 35.4874 66.7269 32.5441 64.3407 30.1455C61.3438 27.1253 57.3655 25.2358 53.1457 24.8185C53.0777 24.8261 53.0249 24.7653 53.0249 24.6971C53.0249 24.6288 53.0777 24.5681 53.1457 24.5605Z"/><g style="mix-blend-mode:multiply" opacity=".2"><path fill="#191326" fill-rule="evenodd" d="M63.9 67.8979C77.3746 67.8979 88.2979 56.9746 88.2979 43.5C88.2979 30.0255 77.3746 19.1022 63.9 19.1022C50.4255 19.1022 39.5022 30.0255 39.5022 43.5C39.5022 56.9746 50.4255 67.8979 63.9 67.8979ZM63.9 69.6C78.3147 69.6 90 57.9147 90 43.5C90 29.0854 78.3147 17.4 63.9 17.4C49.4854 17.4 37.8 29.0854 37.8 43.5C37.8 57.9147 49.4854 69.6 63.9 69.6Z" clip-rule="evenodd"/></g></g><defs><linearGradient id="paint0_linear" x1="63.454" x2="55.428" y1="52.664" y2="83.331" gradientUnits="userSpaceOnUse"><stop stop-color="#404042"/><stop offset="1" stop-color="#48484B"/></linearGradient><linearGradient id="paint1_linear" x1="27.941" x2="25.041" y1="63.058" y2="73.878" gradientUnits="userSpaceOnUse"><stop stop-color="#404042"/><stop offset="1" stop-color="#48484B"/></linearGradient><linearGradient id="paint2_linear" x1="44.097" x2="53.454" y1="48.101" y2="98.772" gradientUnits="userSpaceOnUse"><stop stop-color="#404042"/><stop offset="1" stop-color="#48484B"/></linearGradient><clipPath id="clip0"><rect width="96" height="96" fill="#fff"/></clipPath></defs></svg>