<svg width="96" height="96" viewBox="0 0 96 96" fill="none" xmlns="http://www.w3.org/2000/svg">
<g clip-path="url(#clip0)">
<path d="M28.8272 71.4167C26.9202 78.7035 37.8272 87.8696 53.1886 91.8897C68.5499 95.9098 82.5487 93.2616 84.4557 85.9748C86.3627 78.688 75.4557 69.5219 60.0943 65.5018C44.733 61.4817 30.7342 64.1299 28.8272 71.4167Z" fill="#606063"/>
<path d="M82.1546 89.5637L91.4078 79.7928L25.7953 62.6218L29.2277 75.7126L82.1546 89.5637Z" fill="#606063"/>
<path d="M29.9602 64.976L4.84342 58.4028C3.75473 58.1179 2.6475 58.7955 2.40573 59.8946L2.1248 61.1716C1.56499 63.7164 3.07167 66.2601 5.57244 66.9921L30.6596 74.3351L29.9602 64.976Z" fill="#606063"/>
<path d="M25.9216 59.2257C23.7054 67.6942 36.9161 78.4866 55.4285 83.3314C73.9409 88.1762 90.7448 85.2386 92.9611 76.7701C95.1773 68.3017 81.9666 57.5092 63.4542 52.6644C44.9417 47.8197 28.1378 50.7573 25.9216 59.2257Z" fill="url(#paint0_linear)"/>
<path fill-rule="evenodd" clip-rule="evenodd" d="M76.6038 73.9714C80.8627 77.1035 83.3515 80.4912 83.7229 83.4942L85.5093 83.2733C85.0464 79.5305 82.0671 75.7549 77.6702 72.5213C73.2362 69.2606 67.2064 66.4328 60.322 64.6311C53.4376 62.8294 46.7956 62.341 41.3327 63.0117C35.9155 63.6769 31.4687 65.509 29.2317 68.5452L30.6808 69.6129C32.4757 67.1768 36.3049 65.4426 41.5521 64.7983C46.7538 64.1596 53.1648 64.6187 59.8663 66.3725C66.5678 68.1263 72.3818 70.8665 76.6038 73.9714Z" fill="#606063"/>
<path fill-rule="evenodd" clip-rule="evenodd" d="M34.0406 71.2435C28.8082 66.9688 26.8419 62.8188 27.663 59.6814C28.484 56.5441 32.2312 53.8892 38.8868 52.7257C45.3707 51.5922 53.9337 52.0335 62.9984 54.4058C72.0632 56.7781 79.7446 60.588 84.8421 64.7524C90.0745 69.027 92.0408 73.1771 91.2197 76.3144C90.3986 79.4518 86.6515 82.1066 79.9959 83.2701C73.512 84.4036 64.949 83.9623 55.8842 81.59C46.8195 79.2178 39.1381 75.4079 34.0406 71.2435ZM55.4285 83.3314C36.9161 78.4866 23.7054 67.6942 25.9216 59.2257C28.1378 50.7573 44.9417 47.8197 63.4542 52.6644C81.9666 57.5092 95.1773 68.3017 92.9611 76.7701C90.7448 85.2386 73.9409 88.1762 55.4285 83.3314Z" fill="#979797"/>
<path fill-rule="evenodd" clip-rule="evenodd" d="M27.1004 74.4294L24.1383 62.9559L25.8812 62.5059L28.8433 73.9794L27.1004 74.4294Z" fill="url(#paint1_linear)"/>
<path fill-rule="evenodd" clip-rule="evenodd" d="M26.0816 63.7137C26.0546 63.6248 26.0289 63.536 26.0045 63.4474C25.9595 63.2836 25.9191 63.1202 25.8833 62.9572L25.7983 62.6332C25.797 62.6281 25.8016 62.6235 25.8067 62.6248C25.8115 62.6261 25.8161 62.6219 25.8152 62.6169C25.8143 62.6121 25.8134 62.6072 25.8126 62.6024C25.7841 62.443 25.7601 62.2841 25.7406 62.1256C25.736 62.0875 25.7316 62.0495 25.7274 62.0114C25.6841 61.6135 25.6695 61.2184 25.6848 60.827C25.6848 60.8268 25.6848 60.8265 25.6849 60.8263C25.706 60.2851 25.7842 59.7509 25.9216 59.2257C28.1378 50.7572 44.9417 47.8196 63.4541 52.6644C81.9666 57.5091 95.1773 68.3016 92.961 76.7701C92.8236 77.2953 92.63 77.7993 92.3834 78.2815C92.3833 78.2817 92.3832 78.2819 92.3831 78.2821C92.1167 78.8027 91.7885 79.2978 91.4024 79.7669C91.3992 79.7707 91.396 79.7746 91.3928 79.7785C91.3916 79.7799 91.3911 79.7816 91.3911 79.7832C91.3912 79.7861 91.3932 79.789 91.3964 79.7898C91.3994 79.7906 91.4013 79.7931 91.4016 79.7958C91.4018 79.7978 91.4012 79.7998 91.3997 79.8015L91.0352 80.1863C90.993 80.2318 90.9502 80.2769 90.9069 80.3219L90.1651 81.1051L90.1638 81.1065L83.2762 88.3794C79.1915 93.798 66.7185 95.4303 53.1885 91.8894C39.8069 88.3874 29.8055 80.9804 28.7104 74.3124C28.6544 73.9712 28.4201 73.6802 28.0882 73.5831L6.07638 67.1458C3.59017 66.4187 2.08344 63.8994 2.61902 61.365L2.89448 60.0615C3.12835 58.9548 4.23944 58.2679 5.33398 58.5534L25.8833 63.9123C26.0036 63.9436 26.1131 63.8339 26.0816 63.7137ZM23.8872 61.5315C23.8491 60.6053 23.9419 59.6808 24.1803 58.7699C25.5754 53.4388 31.3383 50.3907 38.2668 49.1795C45.367 47.9382 54.4622 48.4506 63.9099 50.923C73.3575 53.3955 81.5377 57.4042 87.1196 61.9644C92.5666 66.4143 96.0976 71.8947 94.7024 77.2258C94.368 78.5035 93.7709 79.6641 92.962 80.6991C92.8926 80.8183 92.8077 80.9324 92.7066 81.0392L92.354 81.4114C92.352 81.4136 92.35 81.4157 92.348 81.4179C92.3019 81.4674 92.2553 81.5166 92.2082 81.5655C92.2061 81.5677 92.204 81.5698 92.2019 81.572L84.6491 89.5475C82.147 92.7913 77.4336 94.6236 71.9903 95.2812C66.4106 95.9554 59.6801 95.4489 52.7328 93.6308C45.8612 91.8325 39.8039 89.0196 35.2858 85.7457C31.0381 82.6678 27.893 78.9889 27.0401 75.152L5.57114 68.8734C2.18183 67.8822 0.127793 64.4478 0.857912 60.9929L1.13337 59.6894C1.57963 57.5777 3.6997 56.267 5.7882 56.8116L23.8872 61.5315Z" fill="url(#paint2_linear)"/>
<circle cx="34.2001" cy="17.4" r="17.4" fill="#F0B90B"/>
<path d="M27.7108 17.4L25.0486 20.0807L22.3679 17.4L25.0486 14.7193L27.7108 17.4ZM34.1999 10.9109L38.7848 15.4958L41.4655 12.8151L36.8806 8.24868L34.1999 5.56799L31.5192 8.24868L26.9528 12.8151L29.6335 15.4958L34.1999 10.9109ZM43.3512 14.7193L40.689 17.4L43.3697 20.0807L46.0319 17.4L43.3512 14.7193ZM34.1999 23.8891L29.615 19.3042L26.9528 21.9849L31.5377 26.5698L34.1999 29.232L36.8806 26.5513L41.4655 21.9664L38.7848 19.3042L34.1999 23.8891ZM34.1999 20.0807L36.8806 17.4L34.1999 14.7193L31.5192 17.4L34.1999 20.0807Z" fill="#FFFDFA"/>
<g style="mix-blend-mode:multiply" opacity="0.1">
<path fill-rule="evenodd" clip-rule="evenodd" d="M34.2001 33C42.8157 33 49.8 26.0156 49.8 17.4C49.8 8.78436 42.8157 1.8 34.2001 1.8C25.5844 1.8 18.6 8.78436 18.6 17.4C18.6 26.0156 25.5844 33 34.2001 33ZM34.2001 34.8C43.8098 34.8 51.6001 27.0098 51.6001 17.4C51.6001 7.79025 43.8098 0 34.2001 0C24.5903 0 16.8 7.79025 16.8 17.4C16.8 27.0098 24.5903 34.8 34.2001 34.8Z" fill="#191326"/>
</g>
<ellipse cx="63.9" cy="43.5" rx="26.1" ry="26.1" fill="#313131"/>
<path opacity="0.22" d="M78.3977 33.1537C78.3939 33.1461 78.3901 33.1422 78.3901 33.1346C78.3175 32.997 78.2374 32.8594 78.1534 32.7257C78.1381 32.7027 78.1229 32.6798 78.1114 32.6569C78.0274 32.5231 77.9435 32.3932 77.8519 32.2632L77.8442 32.225C77.8251 32.2097 77.8022 32.1944 77.7832 32.1792C73.7371 26.6184 63.5303 27.0503 54.9114 33.169C54.1556 33.7079 53.438 34.2697 52.7548 34.8544C52.7204 34.885 52.6823 34.9156 52.6479 34.9461C52.5754 35.0111 52.5029 35.0723 52.4303 35.1372C52.3884 35.1754 52.3464 35.2137 52.3044 35.2481C52.2357 35.3092 52.167 35.3704 52.0983 35.4353C52.0525 35.4774 52.0105 35.5156 51.9647 35.5576C51.8998 35.6188 51.8311 35.6799 51.7662 35.7449C51.7204 35.7869 51.6784 35.829 51.6364 35.871C51.5715 35.9322 51.5066 35.9933 51.4417 36.0583C51.3997 36.1003 51.3539 36.1424 51.3119 36.1844C51.2509 36.2456 51.186 36.3105 51.1249 36.3717C51.0829 36.4137 51.0409 36.4596 50.9951 36.5016C50.9341 36.5628 50.873 36.6277 50.8119 36.6889C50.7699 36.7309 50.7279 36.773 50.6898 36.8188C50.6287 36.8838 50.5676 36.9449 50.5104 37.0099C50.4722 37.052 50.4302 37.094 50.392 37.136C50.331 37.201 50.2737 37.266 50.2126 37.3309C50.1745 37.373 50.1401 37.4112 50.1019 37.4532C50.0409 37.522 49.9798 37.5908 49.9225 37.6558C49.892 37.6902 49.8615 37.7284 49.8309 37.7628C49.766 37.8354 49.7012 37.9119 49.6401 37.9845C49.6324 37.9921 49.6286 37.9998 49.621 38.0074C49.4492 38.21 49.2813 38.4163 49.121 38.6227L49.1171 38.6265C49.0561 38.703 48.9988 38.7794 48.9416 38.8558C48.9148 38.8902 48.8843 38.9285 48.8576 38.9629C48.8041 39.0316 48.7545 39.1004 48.7011 39.1692C48.6705 39.2113 48.6362 39.2571 48.6057 39.2992C48.556 39.3641 48.5064 39.4329 48.4606 39.5017C48.4263 39.5476 48.3957 39.5935 48.3614 39.6393C48.3156 39.7043 48.2698 39.7731 48.224 39.838C48.1896 39.8839 48.1591 39.9336 48.1247 39.9795C48.0789 40.0444 48.0369 40.1094 47.9911 40.1744C47.9568 40.2241 47.9262 40.2737 47.8957 40.3196C47.8537 40.3846 47.8117 40.4495 47.7697 40.5145C47.7392 40.5642 47.7048 40.6139 47.6743 40.6636C47.6323 40.7285 47.5941 40.7935 47.5522 40.8585C47.5216 40.9082 47.4911 40.9578 47.4605 41.0075C47.4224 41.0725 47.3804 41.1375 47.3422 41.2024C47.3117 41.2521 47.285 41.3018 47.2544 41.3515C47.2163 41.4165 47.1781 41.4814 47.1399 41.5464C47.1132 41.5961 47.0865 41.6458 47.0559 41.6954C47.0178 41.7604 46.9834 41.8292 46.9452 41.8942C46.9185 41.94 46.8956 41.9897 46.8689 42.0356C46.8307 42.1044 46.7964 42.1732 46.762 42.242C46.7429 42.2764 46.7239 42.3146 46.7086 42.349C46.6322 42.5018 46.5559 42.6509 46.4834 42.8038C46.4643 42.842 46.4452 42.8802 46.4261 42.9222C46.3956 42.9872 46.3651 43.0522 46.3345 43.1172C46.3116 43.1668 46.2887 43.2203 46.2658 43.27C46.2391 43.3312 46.2124 43.3961 46.1818 43.4573C46.1589 43.5108 46.136 43.5643 46.1131 43.6178C46.0864 43.679 46.0635 43.7401 46.0368 43.8013C46.0139 43.8548 45.991 43.9121 45.9681 43.9656C45.9452 44.0267 45.9185 44.0879 45.8956 44.149C45.8727 44.2025 45.8536 44.2599 45.8307 44.3134C45.8078 44.3745 45.7849 44.4357 45.7658 44.493C45.7467 44.5503 45.7238 44.6038 45.7047 44.6612C45.6818 44.7223 45.6627 44.7796 45.6436 44.8408C45.6245 44.8981 45.6055 44.9516 45.5864 45.0089C45.5673 45.0663 45.5482 45.1274 45.5291 45.1847C45.51 45.2421 45.4948 45.2994 45.4757 45.3567C45.4566 45.4141 45.4413 45.4752 45.4222 45.5325C45.407 45.5899 45.3879 45.6472 45.3726 45.7045C45.3574 45.7618 45.3421 45.8192 45.3268 45.8765C45.3116 45.9338 45.2963 45.995 45.281 46.0523C45.2657 46.1096 45.2505 46.1631 45.239 46.2205C45.2238 46.2816 45.2123 46.3428 45.197 46.4039C45.1856 46.4574 45.1741 46.5109 45.1627 46.5644C45.1474 46.6409 45.1322 46.7135 45.1169 46.7861C45.1016 46.8587 45.0902 46.9313 45.0749 47.0039C45.0596 47.0804 45.0482 47.1606 45.0329 47.2371C45.0253 47.2867 45.0176 47.3364 45.01 47.3861C44.9986 47.4511 44.9909 47.5122 44.9833 47.5772C44.9757 47.6269 44.9718 47.6804 44.9642 47.7301C44.9566 47.7912 44.9489 47.8524 44.9413 47.9135C44.9337 47.967 44.9298 48.0167 44.926 48.0702C44.9184 48.1314 44.9146 48.1887 44.9108 48.2498C44.9069 48.3033 44.9031 48.353 44.8993 48.4065C44.8955 48.4639 44.8917 48.525 44.8879 48.5823C44.884 48.6358 44.884 48.6855 44.8802 48.739C44.8764 48.7964 44.8764 48.8575 44.8726 48.9148C44.8726 48.9645 44.8688 49.018 44.8688 49.0677C44.8688 49.125 44.8688 49.1862 44.8688 49.2435C44.8688 49.2932 44.8688 49.3467 44.8688 49.3964C44.8688 49.4537 44.8726 49.511 44.8726 49.5722C44.8726 49.6219 44.8764 49.6715 44.8764 49.7212C44.8802 49.7786 44.884 49.8397 44.8879 49.897C44.8917 49.9467 44.8917 49.9926 44.8955 50.0423C44.8993 50.1034 44.9069 50.1646 44.9108 50.2257C44.9146 50.2716 44.9184 50.3174 44.9222 50.3595C44.9298 50.4244 44.9375 50.4894 44.9451 50.5582C44.9489 50.5964 44.9527 50.6385 44.9604 50.6767C44.9718 50.7684 44.9871 50.8639 45.0024 50.9557C45.0062 50.9748 45.01 50.9939 45.0138 51.013C45.0291 51.1085 45.0482 51.2003 45.0673 51.2958C45.0749 51.334 45.0825 51.3684 45.0902 51.4066C45.1054 51.4716 45.1169 51.5366 45.136 51.6016C45.1474 51.6436 45.1589 51.6856 45.1665 51.7277C45.1818 51.785 45.197 51.8462 45.2123 51.9035C45.2238 51.9455 45.239 51.9876 45.2505 52.0334C45.2657 52.0907 45.2848 52.1443 45.3001 52.2016C45.3154 52.2436 45.3268 52.2895 45.3421 52.3315C45.3612 52.385 45.3803 52.4424 45.3993 52.4959C45.4146 52.5379 45.4299 52.5838 45.4451 52.6258C45.4642 52.6793 45.4871 52.7328 45.5062 52.7863C45.5215 52.8284 45.5406 52.8704 45.5597 52.9124C45.5826 52.9659 45.6055 53.0194 45.6284 53.0691C45.6475 53.1112 45.6665 53.1532 45.6856 53.1952C45.7085 53.2488 45.7352 53.2984 45.7581 53.3519C45.7772 53.394 45.7963 53.4322 45.8192 53.4742C45.8459 53.5277 45.8727 53.5774 45.8994 53.6309C45.9185 53.6692 45.9414 53.7074 45.9604 53.7456C45.991 53.7991 46.0215 53.8526 46.0521 53.9061C46.0711 53.9405 46.094 53.9787 46.1131 54.0131C46.1475 54.0704 46.1857 54.1278 46.22 54.1889C46.2391 54.2195 46.2582 54.2501 46.2773 54.2768C46.3345 54.3609 46.3918 54.445 46.449 54.5291C46.449 54.5291 46.449 54.5329 46.4528 54.5329L46.4605 54.5711C46.4796 54.5864 46.5025 54.6017 46.5216 54.617C49.0637 58.1139 54.0411 59.2413 59.53 58.0757C59.5529 58.0719 59.572 58.068 59.5949 58.0604C60.0034 57.9725 60.4118 57.8731 60.824 57.7585C60.8469 57.7508 60.8698 57.747 60.8965 57.7394C61.1027 57.682 61.3088 57.6209 61.5187 57.5597C61.5225 57.5597 61.5264 57.5559 61.5302 57.5559C61.7325 57.4948 61.9386 57.426 62.1409 57.361C62.1638 57.3534 62.1829 57.3457 62.2058 57.3381C62.4081 57.2693 62.6142 57.1967 62.8165 57.1241C62.8394 57.1164 62.8623 57.105 62.8852 57.0973C63.0837 57.0247 63.2784 56.9483 63.4769 56.8718C63.4883 56.868 63.4998 56.8604 63.515 56.8565C63.7173 56.7763 63.9196 56.6922 64.1219 56.6043C64.1563 56.589 64.1907 56.5737 64.225 56.5623C64.6258 56.3865 65.0304 56.1992 65.4312 56.0043C65.4694 55.9852 65.5075 55.9661 65.5457 55.9469C65.7442 55.8476 65.9389 55.7482 66.1374 55.645C66.1603 55.6336 66.1832 55.6221 66.2022 55.6106C66.3816 55.5151 66.561 55.4157 66.7443 55.3163C66.7786 55.2972 66.8168 55.2743 66.8511 55.2552C67.042 55.1482 67.2328 55.0335 67.4275 54.9227C67.4657 54.8998 67.5 54.8768 67.5382 54.8539C67.7138 54.7469 67.8856 54.6399 68.0611 54.5329C68.0879 54.5176 68.1146 54.4985 68.1413 54.4832C68.3321 54.3647 68.5192 54.2386 68.7062 54.1125C68.7482 54.0857 68.7902 54.0552 68.836 54.0246C69.0268 53.8946 69.2177 53.7647 69.4086 53.6309C69.8132 53.3443 70.2101 53.0462 70.5957 52.7443C70.9812 52.4424 71.3552 52.1328 71.7141 51.8156C71.9545 51.6054 72.1912 51.3914 72.424 51.1773C72.8859 50.7455 73.3287 50.306 73.7485 49.8588C73.9585 49.6333 74.1646 49.4078 74.3631 49.1824C75.6609 47.6995 76.7296 46.144 77.5503 44.5733C77.6763 44.3325 77.7946 44.0917 77.9091 43.8471C78.0236 43.6063 78.1305 43.3617 78.2336 43.121C78.3366 42.8802 78.4321 42.6356 78.5198 42.3948C78.6076 42.1541 78.6916 41.9133 78.768 41.6725C79.7566 38.5807 79.6955 35.5806 78.3977 33.1537ZM52.0105 56.0387C61.3737 56.0005 75.9204 47.9976 70.0078 37.8698L70.046 38.038C69.5727 46.4803 58.843 52.2436 54.3007 48.9301C48.3843 38.7985 62.9425 30.7918 72.3057 30.7613C62.9425 30.7995 48.3957 38.8023 54.3083 48.9301L54.2702 48.762C54.7435 40.3196 65.4732 34.5563 70.0155 37.8698C75.9319 48.0014 61.3737 56.0081 52.0105 56.0387Z" fill="url(#paint3_linear)"/>
<path d="M72.3133 37.8698C79.6611 50.455 55.4076 59.7649 48.7774 54.5711L48.7698 54.5329C44.7695 48.8805 48.5522 39.3145 57.2169 33.1652C65.8816 27.0159 76.1494 26.6108 80.1497 32.2633L80.1421 32.225C73.5118 27.0312 49.2583 36.3411 56.6061 48.9263C61.1522 52.2436 71.8438 46.3122 72.3133 37.8698Z" fill="url(#paint4_linear)"/>
<path d="M56.6176 48.9302C49.2698 36.345 73.5233 27.0351 80.1535 32.2289L80.1612 32.2671C84.1614 37.9196 80.3787 47.4856 71.7141 53.6349C63.0494 59.7841 52.7815 60.1893 48.7812 54.5368L48.7889 54.575C55.4191 59.7689 79.6726 50.4589 72.3248 37.8737C67.7787 34.5564 57.0871 40.484 56.6176 48.9302Z" fill="url(#paint5_linear)"/>
<path d="M80.1613 32.2632V32.2556L80.1536 32.2479C79.1421 46.1325 71.7447 53.7035 61.2363 58.198C64.6602 57.575 68.3093 56.0463 71.7179 53.6309C80.3788 47.4816 84.1615 37.9157 80.1613 32.2632Z" fill="url(#paint6_linear)"/>
<path opacity="0.2" d="M81.1308 34.071C80.8827 33.4328 80.562 32.8289 80.1612 32.2633L80.1536 32.2251C79.6841 31.8582 79.1268 31.5639 78.497 31.3346C80.4857 33.3143 78.5352 41.321 78.0084 42.1541L81.1308 34.071Z" fill="white"/>
<path opacity="0.11" d="M72.3133 37.8698C79.6611 50.455 55.4076 59.7649 48.7774 54.5711L48.7698 54.5329C44.7695 48.8805 48.5522 39.3145 57.2169 33.1652C65.8816 27.0159 76.1494 26.6108 80.1497 32.2633L80.1421 32.225C73.5118 27.0312 49.2583 36.3411 56.6061 48.9263C61.1522 52.2436 71.8438 46.3122 72.3133 37.8698Z" fill="url(#paint7_linear)"/>
<path opacity="0.07" d="M55.3046 34.6442C48.0179 40.7667 45.0787 49.3199 48.7698 54.5328L48.7736 54.5558H48.7775C47.9034 42.005 55.2512 34.6977 55.3046 34.6442Z" fill="url(#paint8_linear)"/>
<path opacity="0.2" d="M54.1289 57.4758L62.9921 57.1586C63.0837 57.17 61.0721 58.1675 60.9767 58.1943C60.1522 58.737 54.8923 58.1178 54.1289 57.4758Z" fill="url(#paint9_linear)"/>
<g style="mix-blend-mode:multiply" opacity="0.2">
<path fill-rule="evenodd" clip-rule="evenodd" d="M63.9 67.8979C77.3746 67.8979 88.2979 56.9746 88.2979 43.5C88.2979 30.0255 77.3746 19.1022 63.9 19.1022C50.4255 19.1022 39.5022 30.0255 39.5022 43.5C39.5022 56.9746 50.4255 67.8979 63.9 67.8979ZM63.9 69.6C78.3147 69.6 90 57.9147 90 43.5C90 29.0854 78.3147 17.4 63.9 17.4C49.4854 17.4 37.8 29.0854 37.8 43.5C37.8 57.9147 49.4854 69.6 63.9 69.6Z" fill="#191326"/>
</g>
</g>
<defs>
<linearGradient id="paint0_linear" x1="63.4542" y1="52.6644" x2="55.4285" y2="83.3314" gradientUnits="userSpaceOnUse">
<stop stop-color="#404042"/>
<stop offset="1" stop-color="#48484B"/>
</linearGradient>
<linearGradient id="paint1_linear" x1="27.9404" y1="63.0577" x2="25.0412" y2="73.8776" gradientUnits="userSpaceOnUse">
<stop stop-color="#404042"/>
<stop offset="1" stop-color="#48484B"/>
</linearGradient>
<linearGradient id="paint2_linear" x1="44.097" y1="48.1012" x2="53.4539" y2="98.7722" gradientUnits="userSpaceOnUse">
<stop stop-color="#404042"/>
<stop offset="1" stop-color="#48484B"/>
</linearGradient>
<linearGradient id="paint3_linear" x1="44.8682" y1="43.3996" x2="79.4468" y2="43.3996" gradientUnits="userSpaceOnUse">
<stop stop-color="#3170D2"/>
<stop offset="0.316" stop-color="#6A1BF6"/>
<stop offset="0.6632" stop-color="#B046E8"/>
<stop offset="1" stop-color="#DF7ECC"/>
</linearGradient>
<linearGradient id="paint4_linear" x1="47.1755" y1="42.1585" x2="80.1514" y2="42.1585" gradientUnits="userSpaceOnUse">
<stop stop-color="#5FB9E7"/>
<stop offset="1" stop-color="#3170D2"/>
</linearGradient>
<linearGradient id="paint5_linear" x1="48.7796" y1="44.6413" x2="81.7555" y2="44.6413" gradientUnits="userSpaceOnUse">
<stop stop-color="#3170D2"/>
<stop offset="0.6603" stop-color="#B44BE5"/>
<stop offset="0.6632" stop-color="#B046E8"/>
<stop offset="1" stop-color="#DF7ECC"/>
</linearGradient>
<linearGradient id="paint6_linear" x1="61.2335" y1="45.2254" x2="81.7556" y2="45.2254" gradientUnits="userSpaceOnUse">
<stop stop-color="#3170D2"/>
<stop offset="0.316" stop-color="#6A1BF6"/>
<stop offset="0.6632" stop-color="#B046E8"/>
<stop offset="1" stop-color="#DF7ECC"/>
</linearGradient>
<linearGradient id="paint7_linear" x1="47.1755" y1="42.1585" x2="80.1514" y2="42.1585" gradientUnits="userSpaceOnUse">
<stop stop-color="#3170D2"/>
<stop offset="0.316" stop-color="#6A1BF6"/>
<stop offset="0.6632" stop-color="#B046E8"/>
<stop offset="1" stop-color="#DF7ECC"/>
</linearGradient>
<linearGradient id="paint8_linear" x1="47.1756" y1="44.6016" x2="55.305" y2="44.6016" gradientUnits="userSpaceOnUse">
<stop stop-color="#3170D2"/>
<stop offset="0.316" stop-color="#6A1BF6"/>
<stop offset="0.6632" stop-color="#B046E8"/>
<stop offset="1" stop-color="#DF7ECC"/>
</linearGradient>
<linearGradient id="paint9_linear" x1="64.588" y1="55.3689" x2="58.0616" y2="57.6573" gradientUnits="userSpaceOnUse">
<stop stop-color="#5FB9E7"/>
<stop offset="1" stop-color="#3170D2"/>
</linearGradient>
<clipPath id="clip0">
<rect width="96" height="96" fill="white"/>
</clipPath>
</defs>
</svg>
