<svg xmlns="http://www.w3.org/2000/svg" width="96" height="96" fill="none" viewBox="0 0 96 96"><g clip-path="url(#clip0)"><path fill="#606063" d="M28.8271 71.4166C26.9201 78.7034 37.8271 87.8694 53.1884 91.8896C68.5498 95.9097 82.5486 93.2615 84.4556 85.9747C86.3625 78.6879 75.4556 69.5218 60.0942 65.5017C44.7328 61.4816 30.7341 64.1298 28.8271 71.4166Z"/><path fill="#606063" d="M82.1547 89.5636L91.408 79.7927L25.7954 62.6217L29.2278 75.7125L82.1547 89.5636Z"/><path fill="#606063" d="M29.9603 64.9761L4.84357 58.403C3.75488 58.1181 2.64765 58.7956 2.40588 59.8947L2.12495 61.1717C1.56514 63.7166 3.07182 66.2602 5.57259 66.9922L30.6598 74.3352L29.9603 64.9761Z"/><path fill="url(#paint0_linear)" d="M25.9216 59.2256C23.7054 67.694 36.9161 78.4865 55.4285 83.3313C73.941 88.176 90.7448 85.2385 92.9611 76.77C95.1773 68.3016 81.9666 57.5091 63.4542 52.6643C44.9417 47.8196 28.1378 50.7571 25.9216 59.2256Z"/><path fill="#606063" fill-rule="evenodd" d="M76.6039 73.9714C80.8628 77.1035 83.3516 80.4912 83.723 83.4942L85.5094 83.2732C85.0465 79.5305 82.0672 75.7549 77.6703 72.5213C73.2364 69.2606 67.2065 66.4328 60.3221 64.6311C53.4377 62.8294 46.7957 62.341 41.3329 63.0117C35.9156 63.6769 31.4688 65.509 29.2318 68.5452L30.6809 69.6129C32.4758 67.1768 36.305 65.4426 41.5522 64.7983C46.7539 64.1596 53.1649 64.6187 59.8664 66.3725C66.5679 68.1263 72.3819 70.8665 76.6039 73.9714Z" clip-rule="evenodd"/><path fill="#979797" fill-rule="evenodd" d="M34.0406 71.2434C28.8082 66.9687 26.8419 62.8187 27.663 59.6813C28.484 56.544 32.2312 53.8891 38.8868 52.7256C45.3707 51.5921 53.9337 52.0334 62.9984 54.4057C72.0632 56.778 79.7446 60.5879 84.8421 64.7522C90.0745 69.0269 92.0408 73.1769 91.2197 76.3143C90.3986 79.4516 86.6515 82.1065 79.9959 83.27C73.512 84.4035 64.949 83.9622 55.8842 81.5899C46.8195 79.2176 39.1381 75.4077 34.0406 71.2434ZM55.4285 83.3313C36.9161 78.4865 23.7054 67.694 25.9216 59.2256C28.1378 50.7571 44.9417 47.8196 63.4542 52.6643C81.9666 57.5091 95.1773 68.3016 92.9611 76.77C90.7448 85.2385 73.941 88.176 55.4285 83.3313Z" clip-rule="evenodd"/><path fill="url(#paint1_linear)" fill-rule="evenodd" d="M27.1005 74.4294L24.1384 62.9559L25.8813 62.5059L28.8434 73.9794L27.1005 74.4294Z" clip-rule="evenodd"/><path fill="url(#paint2_linear)" fill-rule="evenodd" d="M26.0815 63.7138C26.0545 63.6249 26.0287 63.5362 26.0044 63.4475C25.9594 63.2838 25.919 63.1204 25.8831 62.9573L25.7982 62.6333C25.7969 62.6282 25.8015 62.6236 25.8066 62.6249C25.8114 62.6262 25.8159 62.622 25.8151 62.617C25.8142 62.6122 25.8133 62.6073 25.8124 62.6025C25.7839 62.4431 25.76 62.2842 25.7405 62.1257C25.7358 62.0876 25.7314 62.0496 25.7273 62.0115C25.6839 61.6136 25.6694 61.2186 25.6847 60.8272C25.6847 60.8269 25.6847 60.8267 25.6847 60.8264C25.7059 60.2852 25.784 59.751 25.9215 59.2258C28.1377 50.7573 44.9416 47.8198 63.454 52.6645C81.9665 57.5093 95.1771 68.3018 92.9609 76.7702C92.8235 77.2955 92.6299 77.7994 92.3833 78.2816C92.3831 78.2818 92.383 78.282 92.3829 78.2822C92.1166 78.8028 91.7884 79.2979 91.4023 79.767C91.3991 79.7709 91.3959 79.7748 91.3926 79.7787C91.3915 79.78 91.391 79.7817 91.391 79.7833C91.3911 79.7863 91.393 79.7891 91.3963 79.79C91.3993 79.7907 91.4012 79.7932 91.4015 79.796C91.4017 79.7979 91.4011 79.8 91.3996 79.8016L91.0351 80.1865C90.9929 80.2319 90.9501 80.2771 90.9068 80.322L90.165 81.1053L90.1637 81.1066L83.2761 88.3796C79.1914 93.7981 66.7184 95.4304 53.1883 91.8896C39.8068 88.3875 29.8054 80.9805 28.7103 74.3125C28.6543 73.9713 28.42 73.6803 28.0881 73.5832L6.07626 67.1459C3.59005 66.4188 2.08332 63.8995 2.6189 61.3652L2.89435 60.0617C3.12823 58.955 4.23932 58.2681 5.33386 58.5535L25.8831 63.9124C26.0034 63.9438 26.113 63.834 26.0815 63.7138ZM23.8871 61.5317C23.8489 60.6054 23.9417 59.681 24.1801 58.7701C25.5753 53.439 31.3382 50.3908 38.2667 49.1796C45.3669 47.9384 54.4621 48.4507 63.9097 50.9232C73.3574 53.3956 81.5376 57.4044 87.1195 61.9645C92.5665 66.4144 96.0974 71.8948 94.7023 77.2259C94.3679 78.5036 93.7707 79.6642 92.9618 80.6992C92.8925 80.8184 92.8076 80.9325 92.7065 81.0393L92.3539 81.4115C92.3519 81.4137 92.3499 81.4159 92.3479 81.418C92.3018 81.4675 92.2552 81.5167 92.2081 81.5656C92.206 81.5678 92.2039 81.5699 92.2018 81.5721L84.6489 89.5476C82.1469 92.7914 77.4335 94.6237 71.9901 95.2813C66.4105 95.9555 59.68 95.4491 52.7326 93.6309C45.8611 91.8326 39.8038 89.0197 35.2857 85.7459C31.038 82.6679 27.8929 78.989 27.04 75.1521L5.57102 68.8735C2.18171 67.8823 0.127671 64.448 0.85779 60.993L1.13325 59.6895C1.57951 57.5778 3.69958 56.2671 5.78808 56.8117L23.8871 61.5317Z" clip-rule="evenodd"/><path fill="#2775CA" d="M34.2001 34.8C43.8098 34.8 51.6001 27.0098 51.6001 17.4C51.6001 7.79023 43.8098 0 34.2001 0C24.5903 0 16.8 7.79023 16.8 17.4C16.8 27.0098 24.5903 34.8 34.2001 34.8Z"/><path fill="#fff" d="M31.0995 29.583C31.0995 29.9863 30.773 30.2168 30.3889 30.1015C25.1266 28.4307 21.324 23.4949 21.324 17.6757C21.324 11.8565 25.1458 6.92075 30.3889 5.24988C30.7922 5.13464 31.0995 5.36512 31.0995 5.76844V6.7863C31.0995 7.0552 30.8882 7.38167 30.6193 7.4777C26.471 8.97573 23.4942 12.9704 23.4942 17.6565C23.4942 22.3426 26.471 26.3373 30.6385 27.8737C30.8882 27.9697 31.1187 28.277 31.1187 28.5651V29.583H31.0995Z"/><path fill="#fff" d="M35.3285 25.5622C35.3285 25.8695 35.0788 26.1 34.7908 26.1H33.7153C33.408 26.1 33.1775 25.8503 33.1775 25.5622V23.8337C30.796 23.5072 29.6437 22.1821 29.3364 20.3768C29.2788 20.0695 29.5285 19.7814 29.8358 19.7814H31.0649C31.3146 19.7814 31.545 19.9734 31.6027 20.2231C31.8331 21.2986 32.4477 22.1245 34.3682 22.1245C35.7702 22.1245 36.7689 21.337 36.7689 20.1655C36.7689 18.994 36.1735 18.5523 34.1186 18.2066C31.0649 17.8225 29.6245 16.9006 29.6245 14.5C29.6245 12.6562 31.0073 11.2351 33.1775 10.9278V9.23768C33.1775 8.93043 33.4272 8.69995 33.7153 8.69995H34.7908C35.0981 8.69995 35.3285 8.94961 35.3285 9.23768V10.9662C37.0762 11.2734 38.1901 12.2721 38.555 13.9238C38.6318 14.2311 38.3822 14.5384 38.0557 14.5384H36.9033C36.6536 14.5384 36.4616 14.3655 36.3848 14.1351C36.0775 13.0788 35.3285 12.637 34.0226 12.637C32.5822 12.637 31.8331 13.3284 31.8331 14.3079C31.8331 15.345 32.2557 15.8635 34.4643 16.1708C37.4603 16.5741 38.9967 17.4384 38.9967 19.9734C38.9967 21.9132 37.5563 23.4688 35.3285 23.8337V25.5622Z"/><path fill="#fff" d="M38.0616 30.1277C37.6583 30.243 37.351 30.0125 37.351 29.6092V28.5913C37.351 28.284 37.5431 28.0151 37.8311 27.8999C41.9987 26.3635 44.9755 22.3688 44.9755 17.6827C44.9755 12.9966 41.9795 9.02111 37.8119 7.48466C37.5623 7.38863 37.3318 7.08138 37.3318 6.7933V5.7754C37.3318 5.37208 37.6583 5.12242 38.0424 5.25684C43.3046 6.92771 47.1073 11.8635 47.1073 17.6827C47.1265 23.5019 43.3238 28.4377 38.0616 30.1277Z"/><g style="mix-blend-mode:multiply" opacity=".1"><path fill="#191326" fill-rule="evenodd" d="M34.2001 33C42.8157 33 49.8 26.0156 49.8 17.4C49.8 8.78436 42.8157 1.8 34.2001 1.8C25.5844 1.8 18.6 8.78436 18.6 17.4C18.6 26.0156 25.5844 33 34.2001 33ZM34.2001 34.8C43.8098 34.8 51.6001 27.0098 51.6001 17.4C51.6001 7.79025 43.8098 0 34.2001 0C24.5903 0 16.8 7.79025 16.8 17.4C16.8 27.0098 24.5903 34.8 34.2001 34.8Z" clip-rule="evenodd"/></g><ellipse cx="63.9" cy="43.5" fill="#F5F3F3" rx="26.1" ry="26.1"/><path fill="#2F3030" d="M63.9001 52.7294V61.8199L75.0885 46.1096L63.9001 52.7294Z"/><path fill="#08060B" d="M63.9001 38.7021V50.4033L75.0885 43.7835L63.9001 38.7021Z"/><path fill="#2F3030" d="M63.9001 25.2297V38.7023L75.0885 43.7837L63.9001 25.2297Z"/><path fill="#828384" d="M63.9 52.7294V61.8199L52.7117 46.1096L63.9 52.7294Z"/><path fill="#343535" d="M63.9 38.7021V50.4033L52.7117 43.7835L63.9 38.7021Z"/><path fill="#828384" d="M63.9 25.2297V38.7023L52.7117 43.7837L63.9 25.2297Z"/><g style="mix-blend-mode:multiply" opacity=".2"><path fill="#191326" fill-rule="evenodd" d="M63.9 67.8977C77.3746 67.8977 88.2979 56.9745 88.2979 43.4999C88.2979 30.0254 77.3746 19.1021 63.9 19.1021C50.4255 19.1021 39.5022 30.0254 39.5022 43.4999C39.5022 56.9745 50.4255 67.8977 63.9 67.8977ZM63.9 69.5999C78.3147 69.5999 90 57.9145 90 43.4999C90 29.0853 78.3147 17.3999 63.9 17.3999C49.4854 17.3999 37.8 29.0853 37.8 43.4999C37.8 57.9145 49.4854 69.5999 63.9 69.5999Z" clip-rule="evenodd"/></g></g><defs><linearGradient id="paint0_linear" x1="63.454" x2="55.428" y1="52.664" y2="83.331" gradientUnits="userSpaceOnUse"><stop stop-color="#404042"/><stop offset="1" stop-color="#48484B"/></linearGradient><linearGradient id="paint1_linear" x1="27.941" x2="25.041" y1="63.058" y2="73.878" gradientUnits="userSpaceOnUse"><stop stop-color="#404042"/><stop offset="1" stop-color="#48484B"/></linearGradient><linearGradient id="paint2_linear" x1="44.097" x2="53.454" y1="48.101" y2="98.772" gradientUnits="userSpaceOnUse"><stop stop-color="#404042"/><stop offset="1" stop-color="#48484B"/></linearGradient><clipPath id="clip0"><rect width="96" height="96" fill="#fff"/></clipPath></defs></svg>