<svg xmlns="http://www.w3.org/2000/svg" width="96" height="96" fill="none" viewBox="0 0 96 96"><g clip-path="url(#clip0)"><path fill="#606063" d="M28.8271 71.4166C26.9201 78.7034 37.8271 87.8695 53.1884 91.8896C68.5498 95.9097 82.5486 93.2616 84.4556 85.9748C86.3625 78.6879 75.4556 69.5219 60.0942 65.5018C44.7328 61.4816 30.7341 64.1298 28.8271 71.4166Z"/><path fill="#606063" d="M82.1546 89.5637L91.4078 79.7928L25.7953 62.6218L29.2277 75.7125L82.1546 89.5637Z"/><path fill="#606063" d="M29.9602 64.976L4.84344 58.4028C3.75474 58.1179 2.64752 58.7955 2.40574 59.8946L2.12482 61.1716C1.565 63.7164 3.07169 66.2601 5.57245 66.9921L30.6596 74.335L29.9602 64.976Z"/><path fill="url(#paint0_linear)" d="M25.9216 59.2256C23.7054 67.6941 36.9161 78.4866 55.4285 83.3313C73.941 88.1761 90.7448 85.2385 92.9611 76.7701C95.1773 68.3016 81.9666 57.5091 63.4542 52.6644C44.9417 47.8196 28.1378 50.7572 25.9216 59.2256Z"/><path fill="#606063" fill-rule="evenodd" d="M76.6039 73.9714C80.8628 77.1035 83.3516 80.4911 83.723 83.4941L85.5094 83.2732C85.0465 79.5304 82.0672 75.7548 77.6703 72.5213C73.2364 69.2605 67.2065 66.4327 60.3221 64.631C53.4377 62.8294 46.7957 62.3409 41.3329 63.0117C35.9156 63.6768 31.4688 65.509 29.2318 68.5452L30.6809 69.6129C32.4758 67.1767 36.305 65.4425 41.5522 64.7982C46.7539 64.1596 53.1649 64.6186 59.8664 66.3724C66.5679 68.1262 72.3819 70.8665 76.6039 73.9714Z" clip-rule="evenodd"/><path fill="#979797" fill-rule="evenodd" d="M34.0406 71.2434C28.8082 66.9688 26.8419 62.8187 27.663 59.6814C28.484 56.544 32.2312 53.8892 38.8868 52.7257C45.3707 51.5922 53.9337 52.0334 62.9984 54.4057C72.0632 56.778 79.7446 60.5879 84.8421 64.7523C90.0745 69.0269 92.0408 73.177 91.2197 76.3143C90.3986 79.4517 86.6515 82.1065 79.9959 83.27C73.512 84.4035 64.949 83.9623 55.8842 81.59C46.8195 79.2177 39.1381 75.4078 34.0406 71.2434ZM55.4285 83.3313C36.9161 78.4866 23.7054 67.6941 25.9216 59.2256C28.1378 50.7572 44.9417 47.8196 63.4542 52.6644C81.9666 57.5091 95.1773 68.3016 92.9611 76.7701C90.7448 85.2385 73.941 88.1761 55.4285 83.3313Z" clip-rule="evenodd"/><path fill="url(#paint1_linear)" fill-rule="evenodd" d="M27.1004 74.4294L24.1383 62.9559L25.8812 62.5059L28.8433 73.9794L27.1004 74.4294Z" clip-rule="evenodd"/><path fill="url(#paint2_linear)" fill-rule="evenodd" d="M26.0816 63.7137C26.0546 63.6249 26.0289 63.5361 26.0045 63.4474C25.9595 63.2837 25.9191 63.1203 25.8833 62.9573L25.7983 62.6332C25.797 62.6282 25.8016 62.6235 25.8067 62.6249C25.8115 62.6261 25.8161 62.6219 25.8152 62.617C25.8143 62.6121 25.8134 62.6073 25.8126 62.6024C25.7841 62.4431 25.7601 62.2841 25.7406 62.1256C25.736 62.0876 25.7316 62.0495 25.7274 62.0115C25.684 61.6135 25.6695 61.2185 25.6848 60.8271C25.6848 60.8268 25.6848 60.8266 25.6849 60.8263C25.706 60.2852 25.7841 59.751 25.9216 59.2257C28.1378 50.7573 44.9417 47.8197 63.4541 52.6645C81.9666 57.5092 95.1772 68.3017 92.961 76.7701C92.8236 77.2954 92.63 77.7994 92.3834 78.2815C92.3833 78.2817 92.3832 78.2819 92.383 78.2821C92.1167 78.8027 91.7885 79.2979 91.4024 79.7669C91.3992 79.7708 91.396 79.7747 91.3927 79.7786C91.3916 79.78 91.3911 79.7816 91.3911 79.7832C91.3912 79.7862 91.3932 79.789 91.3964 79.7899C91.3994 79.7907 91.4013 79.7932 91.4016 79.7959C91.4018 79.7978 91.4012 79.7999 91.3997 79.8015L91.0352 80.1864C90.993 80.2318 90.9502 80.277 90.9069 80.3219L90.1651 81.1052L90.1638 81.1065L83.2762 88.3795C79.1915 93.7981 66.7185 95.4303 53.1885 91.8895C39.8069 88.3875 29.8055 80.9805 28.7104 74.3125C28.6544 73.9712 28.4201 73.6802 28.0882 73.5831L6.07638 67.1458C3.59017 66.4187 2.08344 63.8995 2.61902 61.3651L2.89448 60.0616C3.12835 58.9549 4.23944 58.268 5.33398 58.5534L25.8833 63.9123C26.0036 63.9437 26.1131 63.834 26.0816 63.7137ZM23.8872 61.5316C23.8491 60.6054 23.9419 59.6809 24.1803 58.77C25.5754 53.4389 31.3383 50.3907 38.2668 49.1795C45.367 47.9383 54.4622 48.4506 63.9099 50.9231C73.3575 53.3956 81.5377 57.4043 87.1196 61.9645C92.5666 66.4144 96.0976 71.8948 94.7024 77.2259C94.368 78.5036 93.7709 79.6642 92.962 80.6992C92.8926 80.8183 92.8077 80.9325 92.7066 81.0392L92.354 81.4115C92.352 81.4136 92.35 81.4158 92.348 81.418C92.3019 81.4675 92.2553 81.5167 92.2082 81.5655C92.2061 81.5677 92.204 81.5699 92.2019 81.572L84.6491 89.5476C82.147 92.7913 77.4336 94.6236 71.9903 95.2813C66.4106 95.9554 59.6801 95.449 52.7327 93.6308C45.8612 91.8325 39.8039 89.0196 35.2858 85.7458C31.0381 82.6679 27.893 78.989 27.0401 75.152L5.57114 68.8735C2.18183 67.8823 0.127793 64.4479 0.857912 60.9929L1.13337 59.6894C1.57963 57.5777 3.6997 56.267 5.7882 56.8117L23.8872 61.5316Z" clip-rule="evenodd"/><circle cx="34.2" cy="17.4" r="17.4" fill="#F0B90B"/><path fill="#FFFDFA" fill-rule="evenodd" d="M26.7947 12.9805L34.2071 5.56805L37.1627 8.5236L29.7502 15.936L26.7947 12.9805ZM26.8 21.8381L38.6458 9.9923L41.6014 12.9478L29.7556 24.7936L26.8 21.8381ZM43.076 14.4309L31.2303 26.2767L34.1858 29.2322L46.0316 17.3865L43.076 14.4309ZM22.3679 17.4063L25.3235 14.4507L28.279 17.4063L25.3235 20.3618L22.3679 17.4063Z" clip-rule="evenodd"/><g style="mix-blend-mode:multiply" opacity=".1"><path fill="#191326" fill-rule="evenodd" d="M34.2001 33C42.8157 33 49.8 26.0156 49.8 17.4C49.8 8.78436 42.8157 1.8 34.2001 1.8C25.5844 1.8 18.6 8.78436 18.6 17.4C18.6 26.0156 25.5844 33 34.2001 33ZM34.2001 34.8C43.8098 34.8 51.6001 27.0098 51.6001 17.4C51.6001 7.79025 43.8098 0 34.2001 0C24.5903 0 16.8 7.79025 16.8 17.4C16.8 27.0098 24.5903 34.8 34.2001 34.8Z" clip-rule="evenodd"/></g><path fill="#38C1AD" d="M64.0524 69.6C78.3829 69.6 90.0001 57.9828 90.0001 43.6522C90.0001 29.3217 78.3829 17.7045 64.0524 17.7045C49.7218 17.7045 38.1046 29.3217 38.1046 43.6522C38.1046 57.9828 49.7218 69.6 64.0524 69.6Z"/><path fill="#fff" d="M58.3393 58.6561C57.7396 58.6561 57.1644 58.4179 56.7404 57.9938C56.3164 57.5698 56.0781 56.9947 56.0781 56.395V40.8384C56.0781 37.6082 57.3604 34.5102 59.6433 32.225C61.9262 29.9397 65.0229 28.6542 68.2531 28.6509H69.7605C70.3602 28.6509 70.9353 28.8891 71.3594 29.3131C71.7834 29.7372 72.0216 30.3123 72.0216 30.912C72.0216 31.5117 71.7834 32.0868 71.3594 32.5109C70.9353 32.9349 70.3602 33.1731 69.7605 33.1731H68.2531C67.2476 33.1738 66.2521 33.3727 65.3235 33.7584C64.395 34.1441 63.5515 34.709 62.8415 35.4209C62.1314 36.1328 61.5687 36.9777 61.1854 37.9073C60.8022 38.8369 60.6059 39.8329 60.6079 40.8384V56.395C60.6079 56.6925 60.5492 56.9872 60.4351 57.262C60.321 57.5368 60.1538 57.7864 59.943 57.9965C59.7322 58.2066 59.4821 58.373 59.2069 58.4862C58.9317 58.5993 58.6368 58.6571 58.3393 58.6561Z"/><path fill="#fff" d="M69.7606 47.0565H58.3394V42.5167H69.7606C70.3603 42.5167 70.9354 42.7549 71.3594 43.1789C71.7835 43.603 72.0217 44.1781 72.0217 44.7778C72.024 45.0762 71.9673 45.3721 71.8547 45.6485C71.7421 45.9249 71.5759 46.1762 71.3657 46.388C71.1555 46.5999 70.9055 46.768 70.63 46.8827C70.3545 46.9975 70.059 47.0565 69.7606 47.0565Z"/><g style="mix-blend-mode:multiply" opacity=".2"><path fill="#191326" fill-rule="evenodd" d="M63.9 67.8979C77.3746 67.8979 88.2979 56.9746 88.2979 43.5C88.2979 30.0255 77.3746 19.1022 63.9 19.1022C50.4255 19.1022 39.5022 30.0255 39.5022 43.5C39.5022 56.9746 50.4255 67.8979 63.9 67.8979ZM63.9 69.6C78.3147 69.6 90 57.9147 90 43.5C90 29.0854 78.3147 17.4 63.9 17.4C49.4854 17.4 37.8 29.0854 37.8 43.5C37.8 57.9147 49.4854 69.6 63.9 69.6Z" clip-rule="evenodd"/></g></g><defs><linearGradient id="paint0_linear" x1="63.454" x2="55.428" y1="52.664" y2="83.331" gradientUnits="userSpaceOnUse"><stop stop-color="#404042"/><stop offset="1" stop-color="#48484B"/></linearGradient><linearGradient id="paint1_linear" x1="27.94" x2="25.041" y1="63.058" y2="73.878" gradientUnits="userSpaceOnUse"><stop stop-color="#404042"/><stop offset="1" stop-color="#48484B"/></linearGradient><linearGradient id="paint2_linear" x1="44.097" x2="53.454" y1="48.101" y2="98.772" gradientUnits="userSpaceOnUse"><stop stop-color="#404042"/><stop offset="1" stop-color="#48484B"/></linearGradient><clipPath id="clip0"><rect width="96" height="96" fill="#fff"/></clipPath></defs></svg>