<svg xmlns="http://www.w3.org/2000/svg" xmlns:v="https://vecta.io/nano" width="160" height="160" fill="none"><g clip-path="url(#F)"><g fill="#606063"><path d="M48.045 119.028c-3.178 12.144 15 27.421 40.602 34.121s48.934 2.287 52.112-9.858-15-27.421-40.602-34.122-48.934-2.286-52.112 9.859z"/><path d="M136.924 149.273l15.422-16.285-109.354-28.619 5.721 21.818 88.211 23.086z"/><path d="M49.934 108.293L8.072 97.338c-1.814-.475-3.66.654-4.063 2.486l-.468 2.129a8.26 8.26 0 0 0 5.746 9.7l41.812 12.239-1.166-15.599z"/></g><path fill="url(#B)" d="M43.203 98.71c-3.694 14.114 18.324 32.101 49.178 40.176s58.86 3.178 62.554-10.936-18.324-32.101-49.178-40.176-58.861-3.179-62.554 10.935z"/><g fill-rule="evenodd"><path fill="#606063" d="M127.673 123.286c7.098 5.22 11.246 10.866 11.865 15.871l2.977-.368c-.771-6.238-5.736-12.531-13.065-17.92-7.39-5.435-17.439-10.148-28.913-13.151s-22.544-3.817-31.649-2.699c-9.029 1.109-16.44 4.163-20.168 9.223l2.415 1.779c2.991-4.06 9.373-6.95 18.119-8.024 8.67-1.064 19.355-.299 30.524 2.624s20.859 7.49 27.896 12.665z"/><path fill="#979797" d="M56.734 118.739c-8.721-7.124-11.998-14.041-10.629-19.27s7.614-9.654 18.706-11.593c10.807-1.889 25.078-1.154 40.186 2.8s27.911 10.304 36.406 17.245c8.721 7.124 11.998 14.041 10.63 19.27s-7.614 9.653-18.707 11.593c-10.806 1.889-25.078 1.153-40.186-2.8s-27.91-10.304-36.406-17.245zm35.646 20.147c-30.854-8.075-52.872-26.062-49.178-40.176s31.7-19.01 62.554-10.935 52.872 26.062 49.178 40.176-31.7 19.01-62.554 10.936z"/><path fill="url(#C)" d="M45.167 124.049l-4.937-19.123 2.905-.75 4.937 19.123-2.905.75z"/><path fill="url(#D)" d="M43.469 106.189l-.128-.443-.202-.817-.142-.54c.022-.012.03-.019.028-.027l-.004-.025-.12-.794-.022-.191c-.072-.663-.096-1.321-.071-1.974.035-.903.166-1.793.395-2.668 3.694-14.114 31.7-19.01 62.555-10.936s52.872 26.062 49.178 40.176a12.4 12.4 0 0 1-.963 2.519 13.7 13.7 0 0 1-1.635 2.476l-.016.019c.011.02.014.025.015.029l-.611.651-12.932 13.655c-6.807 9.031-27.596 11.752-50.146 5.85-22.303-5.837-38.971-18.182-40.797-29.295-.093-.569-.484-1.054-1.037-1.215L10.127 111.91a8.26 8.26 0 0 1-5.762-9.635l.459-2.172c.39-1.845 2.242-2.99 4.066-2.514l34.249 8.931a.27.27 0 0 0 .331-.331zm-3.657-3.636c-.064-1.544.091-3.085.488-4.603 2.325-8.885 11.93-13.965 23.478-15.984 11.834-2.069 26.992-1.215 42.738 2.906s29.38 10.802 38.683 18.402c9.078 7.417 14.963 16.551 12.638 25.436-.557 2.129-1.552 4.064-2.901 5.789a3.08 3.08 0 0 1-.425.566l-13.429 14.181c-4.171 5.406-12.026 8.46-21.098 9.556-9.3 1.124-20.517.28-32.096-2.751-11.453-2.997-21.548-7.685-29.078-13.141-7.08-5.13-12.321-11.262-13.743-17.657L9.285 114.789a11.26 11.26 0 0 1-7.855-13.134l.459-2.173c.744-3.519 4.277-5.704 7.758-4.796l30.165 7.867z"/></g><circle cx="57" cy="29" r="29" fill="#f0b90b"/><path fill="#fffdfa" d="M46.185 29l-4.437 4.468L37.28 29l4.468-4.468L46.185 29zM57 18.185l7.641 7.642 4.468-4.468-7.642-7.611L57 9.28 44.922 21.359l4.468 4.468L57 18.185zm15.252 6.347L67.815 29l4.468 4.468L76.72 29l-4.468-4.468zM57 39.816l-7.642-7.642-4.437 4.468L57 48.72l12.109-12.109-4.468-4.437L57 39.816zm0-6.347L61.468 29 57 24.533 52.532 29 57 33.468z"/><g style="mix-blend-mode:multiply" opacity=".1"><path fill="#191326" fill-rule="evenodd" d="M57 55c14.359 0 26-11.641 26-26S71.359 3 57 3 31 14.641 31 29s11.641 26 26 26zm0 3c16.016 0 29-12.984 29-29S73.016 0 57 0 28 12.984 28 29s12.984 29 29 29z"/></g><path fill="url(#E)" d="M150 72.5c0-24.024-19.476-43.5-43.5-43.5S63 48.476 63 72.5 82.476 116 106.5 116 150 96.524 150 72.5z"/><g filter="url(#A)"><path fill="#fff" d="M126.072 50.75l-.233.638-.768 2.041-.509 1.316c-3.868 9.863-6.877 14.544-10.076 14.544-1.843 0-2.934-.548-4.346-1.833l-.408-.382c-1.016-.966-1.444-1.204-2.422-1.204-.509 0-1.421.672-2.574 2.242-1.197 1.627-2.509 4.031-3.918 7.198l-.132.296h13.723l-1.709 3.651H99.886V94.25h-3.767v-43.5h29.953zm-5.34 3.652l-20.846-.001v14.497c2.497-4.462 4.871-6.702 7.424-6.702 1.986 0 3.155.576 4.631 1.916l.421.394c.949.902 1.315 1.109 2.124 1.109.895 0 3.266-3.875 6.246-11.212z"/></g><g style="mix-blend-mode:multiply" opacity=".2"><path fill="#191326" fill-rule="evenodd" d="M106.5 113.163c22.458 0 40.663-18.205 40.663-40.663S128.958 31.837 106.5 31.837 65.837 50.042 65.837 72.5s18.205 40.663 40.663 40.663zm0 2.837c24.024 0 43.5-19.476 43.5-43.5S130.524 29 106.5 29 63 48.476 63 72.5 82.476 116 106.5 116z"/></g></g><defs><filter id="A" width="39.952" height="53.5" x="91.619" y="46.25" color-interpolation-filters="sRGB" filterUnits="userSpaceOnUse"><feFlood flood-opacity="0" result="A"/><feColorMatrix in="SourceAlpha" values="0 0 0 0 0 0 0 0 0 0 0 0 0 0 0 0 0 0 127 0"/><feOffset dx=".5" dy=".5"/><feGaussianBlur stdDeviation="2.5"/><feColorMatrix values="0 0 0 0 0.164706 0 0 0 0 0.121569 0 0 0 0 0.129412 0 0 0 0.5 0"/><feBlend in2="A"/><feBlend in="SourceGraphic" result="C"/><feColorMatrix in="SourceAlpha" result="D" values="0 0 0 0 0 0 0 0 0 0 0 0 0 0 0 0 0 0 127 0"/><feOffset dy="-1"/><feGaussianBlur stdDeviation="1"/><feComposite in2="D" k2="-1" k3="1" operator="arithmetic"/><feColorMatrix values="0 0 0 0 0.164706 0 0 0 0 0.121569 0 0 0 0 0.129412 0 0 0 1 0"/><feBlend in2="C" result="E"/><feColorMatrix in="SourceAlpha" result="D" values="0 0 0 0 0 0 0 0 0 0 0 0 0 0 0 0 0 0 127 0"/><feOffset dy="-1"/><feGaussianBlur stdDeviation="2.5"/><feComposite in2="D" k2="-1" k3="1" operator="arithmetic"/><feColorMatrix values="0 0 0 0 1 0 0 0 0 1 0 0 0 0 1 0 0 0 0.75 0"/><feBlend in2="E"/></filter><linearGradient id="B" x1="105.757" x2="92.381" y1="87.774" y2="138.886" gradientUnits="userSpaceOnUse"><stop stop-color="#404042"/><stop offset="1" stop-color="#48484b"/></linearGradient><linearGradient id="C" x1="46.567" x2="41.735" y1="105.096" y2="123.129" gradientUnits="userSpaceOnUse"><stop stop-color="#404042"/><stop offset="1" stop-color="#48484b"/></linearGradient><linearGradient id="D" x1="73.495" x2="89.09" y1="80.169" y2="164.62" gradientUnits="userSpaceOnUse"><stop stop-color="#404042"/><stop offset="1" stop-color="#48484b"/></linearGradient><linearGradient id="E" x1="106.5" x2="106.5" y1="29" y2="116" gradientUnits="userSpaceOnUse"><stop stop-color="#4d3936"/><stop offset=".866" stop-color="#38211d"/><stop offset="1" stop-color="#271b19"/></linearGradient><clipPath id="F"><path fill="#fff" d="M0 0h160v160H0z"/></clipPath></defs></svg>