<svg xmlns="http://www.w3.org/2000/svg" width="96" height="96" fill="none" viewBox="0 0 96 96"><g clip-path="url(#clip0)"><path fill="#606063" d="M28.8271 71.4167C26.9201 78.7035 37.8271 87.8696 53.1884 91.8897C68.5498 95.9098 82.5486 93.2616 84.4556 85.9748C86.3625 78.688 75.4556 69.5219 60.0942 65.5018C44.7328 61.4817 30.7341 64.1299 28.8271 71.4167Z"/><path fill="#606063" d="M82.1547 89.5637L91.408 79.7928L25.7954 62.6218L29.2278 75.7126L82.1547 89.5637Z"/><path fill="#606063" d="M29.9603 64.976L4.84355 58.4028C3.75485 58.1179 2.64762 58.7955 2.40585 59.8946L2.12492 61.1716C1.56511 63.7164 3.0718 66.2601 5.57256 66.9921L30.6598 74.3351L29.9603 64.976Z"/><path fill="url(#paint0_linear)" d="M25.9216 59.2257C23.7054 67.6942 36.9161 78.4866 55.4285 83.3314C73.9409 88.1762 90.7448 85.2386 92.9611 76.7701C95.1773 68.3017 81.9666 57.5092 63.4542 52.6644C44.9417 47.8197 28.1378 50.7573 25.9216 59.2257Z"/><path fill="#606063" fill-rule="evenodd" d="M76.6039 73.9714C80.8628 77.1035 83.3516 80.4912 83.723 83.4942L85.5094 83.2733C85.0465 79.5305 82.0672 75.7549 77.6703 72.5213C73.2364 69.2606 67.2065 66.4328 60.3221 64.6311C53.4377 62.8294 46.7957 62.341 41.3329 63.0117C35.9156 63.6769 31.4688 65.509 29.2318 68.5452L30.6809 69.6129C32.4758 67.1768 36.305 65.4426 41.5522 64.7983C46.7539 64.1596 53.1649 64.6187 59.8664 66.3725C66.5679 68.1263 72.3819 70.8665 76.6039 73.9714Z" clip-rule="evenodd"/><path fill="#979797" fill-rule="evenodd" d="M34.0406 71.2435C28.8082 66.9688 26.8419 62.8188 27.663 59.6814C28.484 56.5441 32.2312 53.8892 38.8868 52.7257C45.3707 51.5922 53.9337 52.0335 62.9984 54.4058C72.0632 56.7781 79.7446 60.588 84.8421 64.7524C90.0745 69.027 92.0408 73.1771 91.2197 76.3144C90.3986 79.4518 86.6515 82.1066 79.9959 83.2701C73.512 84.4036 64.949 83.9623 55.8842 81.59C46.8195 79.2178 39.1381 75.4079 34.0406 71.2435ZM55.4285 83.3314C36.9161 78.4866 23.7054 67.6942 25.9216 59.2257C28.1378 50.7573 44.9417 47.8197 63.4542 52.6644C81.9666 57.5092 95.1773 68.3017 92.9611 76.7701C90.7448 85.2386 73.9409 88.1762 55.4285 83.3314Z" clip-rule="evenodd"/><path fill="url(#paint1_linear)" fill-rule="evenodd" d="M27.1003 74.4294L24.1382 62.9559L25.8811 62.5059L28.8431 73.9794L27.1003 74.4294Z" clip-rule="evenodd"/><path fill="url(#paint2_linear)" fill-rule="evenodd" d="M26.0815 63.7137C26.0545 63.6248 26.0287 63.536 26.0044 63.4474C25.9594 63.2836 25.919 63.1202 25.8831 62.9572L25.7982 62.6332C25.7969 62.6281 25.8015 62.6235 25.8066 62.6248C25.8114 62.6261 25.8159 62.6219 25.8151 62.6169C25.8142 62.6121 25.8133 62.6072 25.8124 62.6024C25.7839 62.443 25.76 62.2841 25.7405 62.1256C25.7358 62.0875 25.7314 62.0495 25.7273 62.0114C25.6839 61.6135 25.6694 61.2184 25.6847 60.827C25.6847 60.8268 25.6847 60.8265 25.6847 60.8263C25.7059 60.2851 25.784 59.7509 25.9215 59.2257C28.1377 50.7572 44.9416 47.8196 63.454 52.6644C81.9665 57.5091 95.1771 68.3016 92.9609 76.7701C92.8235 77.2953 92.6299 77.7993 92.3833 78.2815C92.3831 78.2817 92.383 78.2819 92.3829 78.2821C92.1166 78.8027 91.7884 79.2978 91.4023 79.7669C91.3991 79.7707 91.3959 79.7746 91.3926 79.7785C91.3915 79.7799 91.391 79.7816 91.391 79.7832C91.3911 79.7861 91.393 79.789 91.3963 79.7898C91.3993 79.7906 91.4012 79.7931 91.4015 79.7958C91.4017 79.7978 91.4011 79.7998 91.3996 79.8015L91.0351 80.1863C90.9929 80.2318 90.9501 80.2769 90.9068 80.3219L90.165 81.1051L90.1637 81.1065L83.2761 88.3794C79.1914 93.798 66.7184 95.4303 53.1883 91.8894C39.8068 88.3874 29.8054 80.9804 28.7103 74.3124C28.6543 73.9712 28.42 73.6802 28.0881 73.5831L6.07626 67.1458C3.59005 66.4187 2.08332 63.8994 2.6189 61.365L2.89436 60.0615C3.12823 58.9548 4.23932 58.2679 5.33386 58.5534L25.8831 63.9123C26.0034 63.9436 26.113 63.8339 26.0815 63.7137ZM23.8871 61.5315C23.8489 60.6053 23.9417 59.6808 24.1801 58.7699C25.5753 53.4388 31.3382 50.3907 38.2667 49.1795C45.3669 47.9382 54.4621 48.4506 63.9097 50.923C73.3574 53.3955 81.5376 57.4042 87.1195 61.9644C92.5665 66.4143 96.0974 71.8947 94.7023 77.2258C94.3679 78.5035 93.7707 79.6641 92.9618 80.6991C92.8925 80.8183 92.8076 80.9324 92.7065 81.0392L92.3539 81.4114C92.3519 81.4136 92.3499 81.4157 92.3479 81.4179C92.3018 81.4674 92.2552 81.5166 92.2081 81.5655C92.206 81.5677 92.2039 81.5698 92.2018 81.572L84.6489 89.5475C82.1469 92.7913 77.4335 94.6236 71.9901 95.2812C66.4105 95.9554 59.68 95.4489 52.7326 93.6308C45.8611 91.8325 39.8038 89.0196 35.2857 85.7457C31.038 82.6678 27.8929 78.9889 27.04 75.152L5.57102 68.8734C2.18171 67.8822 0.127671 64.4478 0.85779 60.9929L1.13325 59.6894C1.57951 57.5777 3.69958 56.267 5.78808 56.8116L23.8871 61.5315Z" clip-rule="evenodd"/><circle cx="34.2" cy="17.4" r="17.4" fill="#F0B90B"/><path fill="#FFFDFA" d="M27.7111 17.4L25.0489 20.0807L22.3682 17.4L25.0489 14.7193L27.7111 17.4ZM34.2002 10.9109L38.7851 15.4958L41.4658 12.8151L36.8809 8.24868L34.2002 5.56799L31.5195 8.24868L26.9531 12.8151L29.6338 15.4958L34.2002 10.9109ZM43.3515 14.7193L40.6893 17.4L43.37 20.0807L46.0322 17.4L43.3515 14.7193ZM34.2002 23.8891L29.6153 19.3042L26.9531 21.9849L31.538 26.5698L34.2002 29.232L36.8809 26.5513L41.4658 21.9664L38.7851 19.3042L34.2002 23.8891ZM34.2002 20.0807L36.8809 17.4L34.2002 14.7193L31.5195 17.4L34.2002 20.0807Z"/><g style="mix-blend-mode:multiply" opacity=".1"><path fill="#191326" fill-rule="evenodd" d="M34.2001 33C42.8157 33 49.8 26.0156 49.8 17.4C49.8 8.78436 42.8157 1.8 34.2001 1.8C25.5844 1.8 18.6 8.78436 18.6 17.4C18.6 26.0156 25.5844 33 34.2001 33ZM34.2001 34.8C43.8098 34.8 51.6001 27.0098 51.6001 17.4C51.6001 7.79025 43.8098 0 34.2001 0C24.5903 0 16.8 7.79025 16.8 17.4C16.8 27.0098 24.5903 34.8 34.2001 34.8Z" clip-rule="evenodd"/></g><path fill="#3C1A67" d="M63.9001 69.0673C78.0206 69.0673 89.4675 57.6204 89.4675 43.5C89.4675 29.3795 78.0206 17.9326 63.9001 17.9326C49.7797 17.9326 38.3328 29.3795 38.3328 43.5C38.3328 57.6204 49.7797 69.0673 63.9001 69.0673Z"/><path fill="#AC7BC8" d="M88.8019 47.7732C88.547 47.7564 87.6883 47.8068 87.245 47.8236C86.2588 47.8516 85.3668 47.5661 84.4914 47.2693C83.6215 46.9782 83.2226 46.8607 82.5411 46.6087C82.1588 46.7935 82.2641 46.7823 82.037 46.8047C81.3943 46.8327 80.4413 46.7655 79.9648 46.6815C79.034 46.4744 78.3414 46.284 77.4217 45.9145C75.7707 45.517 76.0034 45.433 74.657 45.461C73.2497 45.489 73.0724 45.5282 71.4546 44.9516C70.9671 44.778 70.4573 44.6605 69.9587 44.5149C69.111 44.2686 68.8063 44.3022 68.0472 44.3413C67.532 44.3637 67.0278 44.3805 66.5181 44.3078C65.8477 44.123 65.0664 43.7815 64.5235 43.3392C63.5096 42.3427 63.0552 41.5533 62.2519 41.3518C61.8474 41.251 61.4319 41.2174 61.0219 41.167C60.7781 41.1334 60.5343 41.1222 60.2905 41.1054C60.2074 40.9151 60.0689 40.7415 59.8695 40.596C59.1437 40.0753 58.9331 39.913 58.5896 39.4147C58.2793 38.9556 58.5564 39.4091 57.3153 37.668C56.9275 37.4441 56.0354 36.8506 55.4315 36.5763C54.8332 36.302 54.1794 35.8541 53.6752 35.619C53.3649 35.479 53.1045 35.3782 52.7776 35.2215C51.049 34.4209 50.8828 33.8442 49.675 33.15C49.7525 33.29 49.9132 33.5699 49.9132 33.5699C50.5337 34.5832 50.7277 34.6224 51.2596 35.339C51.7471 36.0724 51.8302 36.19 52.8164 37.2761C53.1655 37.6624 53.5866 37.9759 53.991 38.295C54.1572 38.4294 54.7113 38.8493 54.8165 38.9276C55.0825 39.2188 55.0603 39.2691 55.559 39.7786C55.5257 39.7674 55.4925 39.7618 55.4703 39.7506C54.7334 39.5547 54.4398 39.4819 54.0243 39.2076C53.8968 39.0956 53.7749 38.978 53.642 38.8493C52.9771 38.239 52.9162 38.3174 51.4313 37.7352C50.6944 37.3825 50.506 37.2089 50.2955 37.0242C49.1929 36.078 49.1708 36.2404 48.7719 35.7645C48.4228 35.2327 48.24 34.9415 47.3147 34.4545C46.3784 33.9618 46.1789 33.945 45.6637 33.3012C44.5666 31.784 44.888 32.2207 44.1289 31.269C43.8076 30.8435 43.7466 30.7035 43.6691 30.5356C43.5915 30.3844 43.5195 30.222 43.3976 30.0765C43.2258 29.8805 43.0042 29.7462 42.7604 29.651C40.9376 32.5286 39.6633 35.8205 39.0982 39.3923C39.1037 39.3979 39.1037 39.3979 39.1093 39.3979C39.2976 39.5211 39.8129 39.7002 40.0345 39.773C41.0872 40.1145 41.7244 40.2097 42.295 40.2825C42.1731 40.2713 42.079 40.2657 42.0236 40.2657C40.3226 40.3049 40.5498 40.3553 39.4694 40.0809C39.3309 40.0473 39.1702 40.0193 39.0095 39.9969C38.9486 40.428 38.8987 40.8591 38.8655 41.2958C39.6522 41.4581 39.7741 41.6709 41.2146 41.6821C42.223 41.6877 42.2452 41.6597 43.4142 41.822C43.8353 41.8892 44.2564 41.9564 44.6553 42.0908C44.7162 42.1188 44.7716 42.158 44.827 42.1915C45.503 42.757 45.5362 42.841 45.8243 43.1097C46.8272 44.067 48.2123 44.0166 49.614 44.5317C51.254 45.1419 50.8329 44.974 51.941 45.5954C54.473 47.0286 54.9163 46.9334 55.8859 47.3141C57.7973 48.0699 59.3874 48.2211 60.9166 48.697C61.3765 48.8369 61.8419 48.9433 62.2962 49.1112C62.6231 49.2568 62.9389 49.4135 63.2658 49.5479C64.3573 49.9846 65.3102 49.9006 66.1635 49.9846C66.6178 50.0798 67.5264 50.3485 67.8311 50.4661C68.147 50.6228 69.4268 51.373 69.7592 51.5578C71.9699 52.767 72.0862 52.7782 73.1389 52.9518C73.7872 53.0525 73.9589 53.1477 74.2914 53.2709C75.5601 53.7468 76.3358 53.7691 77.3885 54.4969C77.8206 54.8888 77.7819 54.956 78.1365 55.4543C78.9786 56.6188 79.5714 57.1058 80.192 57.7217C80.4912 58.0128 80.8402 58.2535 81.1893 58.483C81.5549 58.7182 81.9483 58.8917 82.3528 59.0597C82.5855 59.1549 82.8182 59.2108 83.0619 59.2724C83.1783 59.3004 83.2891 59.3508 83.3999 59.39C83.5107 59.4236 83.5938 59.4572 83.6548 59.4796C84.0869 58.9421 84.508 58.3823 84.9014 57.7944C84.846 57.7329 84.7961 57.6713 84.7407 57.6097C84.3917 57.1506 84.1479 56.8539 83.6215 56.574C83.4775 56.4956 83.5218 56.5124 83.4442 56.4956C84.231 56.6915 85.1618 56.6971 85.1119 56.6915C85.3169 56.6971 85.4721 56.7083 85.5884 56.7139C86.8295 54.6705 87.7547 52.5039 88.3753 50.2813C88.0318 50.0462 87.7658 49.895 87.2506 49.7551C86.9791 49.6823 86.6577 49.6543 86.4195 49.6207C85.6826 49.5087 85.1341 49.4751 85.0953 49.4751C83.6603 49.3744 84.0925 49.2904 82.4303 48.6018C82.3251 48.5626 82.2253 48.5178 82.1311 48.4786C82.7572 48.4394 82.7849 48.3554 83.3334 48.1259C83.9817 47.9468 83.6548 48.0867 85.8377 48.501C86.353 48.613 86.8572 48.7641 87.378 48.8313C88.0041 48.9097 88.065 48.8705 88.27 48.8929C88.3587 48.9153 88.4473 48.9377 88.5415 48.9433C88.6024 48.9433 88.6578 48.9377 88.7132 48.9321C88.7964 48.557 88.8739 48.1763 88.9349 47.7956C88.8628 47.7956 88.8019 47.7732 88.8019 47.7732ZM58.5896 41.5197C58.091 41.111 57.6034 40.7303 57.2267 40.4672C57.5258 40.6632 57.9303 40.9711 58.5896 41.5197ZM62.5123 44.1958C62.3793 44.1398 62.2463 44.0894 62.1189 44.0334C61.9582 43.9663 61.8031 43.8935 61.648 43.8151C61.5482 43.7647 61.443 43.7087 61.3488 43.6527C61.249 43.5968 61.1438 43.5352 61.0441 43.468C60.9277 43.3952 60.8113 43.3168 60.6895 43.2329C60.6285 43.1937 60.5676 43.1433 60.5011 43.0985C60.3182 42.9641 60.1299 42.813 59.9304 42.645C59.9138 42.6282 59.8916 42.617 59.875 42.5946C60.695 42.8018 60.6618 42.8354 61.1327 42.9585C61.1493 42.9641 61.6313 43.0873 61.6701 43.1209C61.853 43.3224 62.5621 44.2014 62.5788 44.2238C62.5511 44.2126 62.5344 44.207 62.5123 44.1958ZM69.2551 45.7578C69.0722 45.713 68.9226 45.6738 68.8007 45.6402C69.1664 45.7242 69.4601 45.8025 69.6983 45.8753C69.5709 45.8361 69.4213 45.797 69.2551 45.7578ZM74.7346 52.879C74.8953 52.9294 75.0559 52.9798 75.2332 53.0413C75.0559 52.9854 74.8897 52.935 74.7346 52.879ZM77.4162 48.2827C76.5353 48.333 75.4881 48.0475 74.4077 47.7732C74.308 47.7452 74.2082 47.7172 74.1085 47.6948C75.7762 47.5045 75.2277 47.3085 76.5574 47.5325C76.9619 47.6332 77.6489 47.874 78.4412 48.0531C78.4689 48.0475 78.4966 48.0419 78.5187 48.0363C78.2029 48.1035 77.8761 48.1931 77.4162 48.2827ZM79.854 47.9747C79.8928 47.9803 79.9316 47.9803 79.9704 47.9859C79.987 47.9915 80.0091 47.9915 80.0258 47.9915C79.9704 47.9859 79.9094 47.9859 79.854 47.9747Z"/><path fill="#AC7BC8" d="M80.8174 60.8878C80.5468 60.8156 80.1381 60.7378 80.1381 60.7378C78.8623 60.4712 79.0943 60.3823 77.0121 60.0824C76.2942 59.9769 75.7529 59.8936 75.3332 59.8269C74.9963 59.3993 74.7146 59.1938 74.2838 58.8605C74.1292 58.7439 73.9525 58.655 73.7868 58.5551C73.4664 58.3607 73.1627 58.1329 72.8147 57.983C72.4502 57.8108 72.0636 57.7164 71.6881 57.5775C71.1524 57.3165 70.9204 57.111 70.6829 56.8444C69.6998 55.4781 70.1527 55.8002 69.258 54.7116C68.3964 53.6675 67.1869 53.0177 65.994 52.4567C64.8452 51.9124 64.083 51.5514 61.8463 51.3237C60.7969 51.2181 60.4655 51.4403 59.5101 51.6125C59.2671 51.6236 59.2616 51.6125 59.1456 51.5736C58.527 51.2626 58.4165 51.046 57.3341 50.6627C56.3841 50.3239 56.0583 50.2906 55.2464 50.1906C54.2744 50.0629 53.1974 49.8907 52.2972 49.9851C51.9658 50.0185 51.5847 50.0796 51.2257 50.0629C50.8115 49.9796 49.8726 49.7241 49.232 49.4797C48.6742 49.2242 48.4201 49.0576 47.9617 48.9299C47.7187 48.8632 47.4481 48.8521 47.194 48.8299C46.0342 48.7521 44.2724 49.3686 43.4219 49.6019C42.9248 49.2076 42.853 49.1798 42.1295 48.5411C41.8699 48.3189 41.7042 48.169 41.2679 47.8913C40.9145 47.6691 40.2628 47.3636 39.7547 47.2747C39.4951 47.2303 39.1803 47.2192 38.8655 47.2359C39.2355 49.8463 40.0142 52.4345 41.2458 54.9505C41.2735 55.0005 41.3011 55.0504 41.3232 55.1004C41.3287 55.106 41.3397 55.106 41.3397 55.106C41.8037 55.1782 42.0025 55.2282 42.2731 55.3504C42.3449 55.4059 42.4112 55.4559 42.4664 55.5114C42.5437 55.5947 42.6155 55.6892 42.6928 55.8002C42.599 55.828 42.4167 55.8891 42.4167 55.8891C42.2234 55.9502 42.0246 55.9946 41.8313 56.0335C41.9196 56.1946 42.0135 56.3501 42.1074 56.5056C42.4333 56.4612 42.726 56.4223 43.0518 56.4278C43.1126 56.5223 43.1844 56.6056 43.339 56.7444C43.6317 57.011 44.1398 57.2721 44.4933 57.4442C44.7971 57.5942 44.8081 57.6164 45.4819 57.8386C46.3214 58.1218 46.6141 58.3107 47.1995 58.4551C47.7021 58.5773 48.0998 58.7106 49.7014 58.6884C53.7497 58.6328 53.6282 58.5051 54.7273 59.166C56.7486 60.3823 56.3676 60.0491 59.1677 60.8156C59.5266 60.9155 60.1231 61.0933 60.6754 61.2099C61.3161 61.3432 61.8463 61.3876 62.3599 61.4432C62.4262 61.4821 62.5532 61.5543 62.5532 61.5543C63.3816 61.9764 63.8456 62.0708 64.6298 62.0319C64.7347 62.0819 64.8342 62.1319 64.9446 62.1874C65.1269 62.2985 65.5135 62.5706 65.519 62.5706C66.491 63.2205 66.9108 63.1871 67.811 63.5593C68.6781 63.9203 69.0978 64.4757 71.1303 64.7756C70.6663 64.7145 70.1858 64.6423 69.5838 64.4202C69.6115 64.5368 69.6667 64.7756 69.6667 64.7756C69.744 65.0589 69.9925 65.7254 70.1914 66.0586C70.6387 66.7806 71.3512 67.2694 71.8759 67.4027C72.141 67.4638 72.2735 67.4527 72.4116 67.4416C72.4171 67.4527 72.4281 67.4582 72.4281 67.4693H72.4337C72.9473 67.2861 73.4554 67.0806 73.958 66.8584C73.9138 66.7584 73.842 66.6751 73.7702 66.5918C73.7536 66.564 73.7315 66.5251 73.7039 66.4918C73.6653 66.4252 73.6156 66.3752 73.5659 66.3252C73.5659 66.3196 73.5659 66.3196 73.5603 66.3141C73.5548 66.2808 73.5493 66.2474 73.5438 66.2141C73.5051 65.8698 73.4664 65.5976 73.2621 65.3088C73.472 65.4032 73.6929 65.5087 73.9359 65.6476C73.9525 65.6532 74.6373 66.0586 75.1012 66.3085C77.6252 65.0422 79.9669 63.326 82.0104 61.1655C81.8336 61.1044 81.5299 61.0711 80.8174 60.8878ZM41.7981 49.2187C41.7705 49.1798 41.7429 49.1298 41.7208 49.0854C41.9086 49.2742 42.0632 49.4186 42.1626 49.5075C42.0853 49.4464 41.9638 49.352 41.7981 49.2187ZM44.0736 50.946C44.0681 50.9404 44.0625 50.9349 44.057 50.9293C44.0736 50.9349 44.0957 50.946 44.1343 50.9626C44.0791 50.9571 44.0957 50.9627 44.0736 50.946ZM46.4595 50.6239C46.719 50.6516 47.0449 50.7016 47.4039 50.7516C47.0449 50.7127 46.8185 50.6738 46.4595 50.6239ZM51.1981 51.6569C51.3251 51.7236 51.4577 51.8013 51.6068 51.8957C51.4577 51.8124 51.3196 51.7291 51.1981 51.6569ZM66.7396 56.8444C65.7233 56.0224 64.8894 55.6114 63.8179 55.206C63.2491 54.9893 62.6913 54.8505 62.1666 54.8005C59.1842 54.5339 57.9305 55.0005 55.8539 54.5228C54.3517 54.0396 53.7276 53.3398 53.1864 52.9343C53.109 52.8732 53.0096 52.8066 52.8992 52.7288C52.9268 52.7455 52.9489 52.7622 52.9765 52.7788C53.6171 52.7955 54.2633 52.901 55.0918 53.0121C55.6496 53.101 56.1908 53.262 56.721 53.462C57.3727 53.7952 58.0686 54.4617 59.3665 54.4839C59.6647 54.4895 60.4158 54.3562 60.576 54.3173C60.8301 54.2562 61.0731 54.1673 61.3271 54.1118C61.7192 54.0951 62.1224 54.1285 62.5145 54.1785C63.6467 54.3617 64.1107 54.5395 64.6629 54.7727C67.7447 56.0946 67.336 56.5834 68.3578 57.8997C67.7889 57.6164 67.3526 57.3387 66.7396 56.8444ZM72.2625 64.9589C72.1299 64.9256 71.9974 64.8978 71.8703 64.8756C72.0029 64.8978 72.1244 64.92 72.2625 64.9589C72.3011 64.9644 72.3398 64.9756 72.3784 64.9867C72.395 64.9922 72.4061 64.9978 72.4226 65.0033C72.3674 64.9867 72.3122 64.9756 72.2625 64.9589ZM73.483 59.4715C73.5824 59.4937 73.6708 59.5104 73.7592 59.5381C73.6653 59.5159 73.5769 59.4937 73.483 59.4715Z"/><path fill="#AC7BC8" d="M67.0961 68.4035C66.6091 68.4664 66.111 68.5084 65.6184 68.5346C65.4358 68.393 65.2808 68.2147 64.9266 67.9524C64.9211 67.9472 64.91 67.9367 64.8989 67.9315C64.8934 67.9315 64.8934 67.9262 64.8879 67.9262C64.7938 67.858 64.6056 67.7322 64.4506 67.6535C64.0466 67.4489 63.7146 67.3178 63.388 67.1133C63.2054 66.9979 63.0394 66.8668 62.8401 66.7724C61.3735 66.1955 61.8384 66.3213 60.5157 65.8493C59.6523 65.5399 59.8405 65.6448 59.1542 65.6343C58.5731 65.6238 57.9975 65.4927 57.4884 65.2357C57.2006 65.0888 56.9571 64.8895 56.6693 64.7479C55.9166 64.3808 54.0626 63.9192 53.4206 63.8144C52.2528 63.6832 51.5776 63.6465 50.7309 62.8756C50.6478 62.8598 49.9228 62.8231 49.5742 62.7916C49.0871 62.7444 48.6001 62.65 48.1131 62.5609C47.3051 62.4088 46.9398 62.2305 46.6354 62.0416C46.6299 62.0416 46.6243 62.0364 46.6188 62.0311C46.1539 61.6168 45.6945 61.1763 45.2573 60.72C45.4344 60.6623 45.6171 60.6151 45.7997 60.5836C45.7831 60.5889 46.01 60.5364 46.331 60.5941C46.6797 60.6623 47.0173 60.7724 47.3659 60.8406C47.6205 60.8563 47.8751 60.8458 48.1297 60.8249C48.6942 60.7462 48.7163 60.7357 49.4303 60.699C50.6976 60.6256 50.4929 60.5993 51.0131 60.5521C51.4725 60.5102 51.9927 60.6518 52.3192 60.8826C52.4188 60.9507 52.5129 61.0084 52.6126 61.0661C52.7177 61.0923 52.8284 61.1186 52.9391 61.1395C53.4427 61.192 53.9463 61.2182 54.4555 61.3021C54.9702 61.3913 55.4738 61.5381 55.983 61.664C56.6195 61.8214 56.8076 61.9 57.4552 62.157C57.7596 62.2777 58.075 62.3878 58.3573 62.5556C59.0491 62.97 58.8056 62.9332 59.5527 62.9175C60.4161 62.907 60.9086 63.0906 61.7775 63.4158C62.2922 63.6098 62.8125 63.7934 63.2774 64.0818C64.5447 64.8581 64.2846 65.0626 65.0484 65.6815C65.5963 66.0434 65.9228 66.1955 66.3489 66.6937C66.5427 66.9245 66.7308 67.1133 66.8526 67.5696C66.8969 67.7426 66.9467 67.9839 66.9301 68.1622C66.9799 68.2461 67.0408 68.3248 67.0961 68.4035Z"/><path fill="#AC7BC8" d="M87.1737 33.9204C87.1351 33.8925 87.1074 33.8758 87.1074 33.8758C86.5498 33.536 86.1026 33.419 85.2523 33.2185C84.6615 33.0792 84.1204 32.9678 83.364 32.9845C82.5744 33.0068 82.2431 33.1182 81.7573 33.2018C81.4094 33.2129 80.6917 33.1739 80.3438 33.1294C79.9739 33.0402 79.6536 32.9065 78.7537 32.5277C77.8316 32.0876 76.5893 31.3022 75.9543 30.8287C75.612 30.5724 75.5844 30.5501 75.1703 30.3719C74.8887 30.2549 74.9881 30.2828 74.436 30.0934C74.7231 30.1713 75.0268 30.2215 75.3856 30.2772C75.5237 30.3162 76.1586 30.5279 76.8598 30.6226C77.3126 30.6894 77.0917 30.617 77.9586 30.7841C77.9972 30.7953 78.0359 30.8064 78.0801 30.8231C78.7537 31.2242 78.7537 31.5584 79.7751 31.6141C80.3328 31.642 81.0008 31.3579 81.7959 31.4526C81.9505 31.4972 82.0941 31.5529 82.2431 31.6141C83.3364 32.1768 84.01 32.1879 84.8823 31.8593C85.4234 31.6754 85.3075 31.6866 85.5615 31.5919C85.7216 31.5417 85.8872 31.5139 86.0363 31.447C85.9259 31.2242 85.7989 31.0014 85.6719 30.7841C85.5725 30.8287 85.4566 30.8454 85.3406 30.8287C85.2964 30.8231 85.1915 30.8008 85.1087 30.8008C84.5676 30.9067 84.6008 31.0069 84.0762 31.0069C83.4413 31.0125 83.3253 30.9902 82.5855 30.8454C81.8677 30.773 81.3156 31.0181 79.6039 30.5C78.7426 30.2382 77.5169 29.592 76.7218 29.1798C76.2359 28.9235 76.1421 28.9179 74.9439 28.1826C74.309 27.7927 74.5243 27.8428 73.1385 27.0963C72.2495 26.6173 72.2495 26.6173 71.3219 25.9376C70.3391 25.2079 70.3171 25.141 69.7152 24.2386C69.395 23.8487 69.014 23.5311 68.6386 23.1913C66.165 20.9463 66.8276 21.548 66.0822 20.7291C65.9938 20.6344 65.9055 20.5453 65.8282 20.4394C65.2264 19.6261 65.7288 20.0829 64.9006 19.2473C64.5749 18.9186 64.2049 18.5454 63.5424 18.2223C63.2111 18.0775 63.0068 17.9883 62.8632 17.9326H62.8577C62.5264 17.9438 62.2062 17.9605 61.8749 17.9883C62.14 18.2501 62.4326 18.434 62.5872 18.5621C63.1117 19.0356 63.1338 18.9632 63.6031 19.1582C63.6473 19.186 63.6914 19.2139 63.7301 19.2473C63.9233 19.4256 64.3319 19.8434 64.4644 20.0105C64.5528 20.406 64.4589 20.4951 64.735 21.1135C64.9061 21.4978 65.011 21.6315 65.3258 21.9769C65.8669 22.5563 66.176 22.6621 66.6509 22.8849C66.7613 23.3529 66.7889 24.1662 67.4349 25.0519C67.6226 25.3137 67.8545 25.5143 68.0975 25.7204C68.6993 26.2552 69.0748 26.6507 70.0465 26.9961C70.6373 27.2078 71.206 27.2245 71.5594 27.2635C71.8575 28.2049 72.1888 28.372 73.2102 29.3914C73.4973 29.6811 73.7789 29.8594 74.0826 29.9764C73.3869 29.7368 73.5802 29.7703 72.2771 29.1686C71.2888 28.7118 70.9851 28.4389 70.5269 27.9542C69.8864 27.269 69.4171 27.0685 68.2134 26.2719C67.3521 25.6981 67.0098 25.5143 66.5736 25.1856C66.1043 24.7567 66.027 24.506 65.3423 23.7651C64.7184 23.091 64.6908 23.0353 64.492 22.7401C63.8847 21.8376 63.708 21.6817 63.2884 21.3307C62.1289 20.3614 61.8694 20.1386 61.6154 19.8768C61.4332 19.6818 61.2897 19.459 61.0964 19.2807C60.8756 19.0746 60.6437 18.8963 60.4504 18.6568C60.329 18.473 60.2351 18.3448 60.0915 18.1889C57.5296 18.5621 55.0726 19.342 52.7978 20.4617C52.7978 20.4673 52.7923 20.4673 52.7923 20.4728C52.715 20.7291 52.6929 20.9575 52.7371 21.2249C52.8034 21.5591 53.0463 21.7875 53.2616 22.027C53.1512 23.4977 52.8917 23.4253 53.0573 24.5506C53.2285 25.7371 53.3831 25.8931 53.6702 26.3109C53.7917 26.4836 53.9794 26.6228 54.1451 26.7565C54.3604 26.9404 54.9291 27.2022 55.1279 27.2913C55.3929 27.4027 55.6689 27.4974 55.934 27.6088C56.0499 27.6757 56.5358 27.9487 56.6628 28.0211C56.729 28.1548 56.7898 28.2996 56.845 28.4444C56.9333 28.7508 57.1707 29.9987 57.1928 30.1323C57.248 30.4722 57.3253 31.3412 57.7726 32.1656C58.0652 32.7171 58.518 33.1238 59.048 33.4413C59.4842 33.7031 59.9645 33.8814 60.4283 34.0931C60.6658 34.2268 61.5768 34.8006 61.7866 34.951C61.9909 35.3521 62.3001 36.2935 62.5209 36.7614C62.6424 37.0288 62.8301 37.2628 62.9958 37.5023C63.1559 37.7252 63.3767 37.9034 63.5865 38.0817C63.7301 38.1987 63.8681 38.2989 64.0282 38.3881C64.7184 38.7501 64.7792 38.7 65.5356 38.9061C65.8613 38.9953 66.1871 39.1011 66.5184 39.1847C66.8386 39.2682 67.1644 39.3184 67.4736 39.4465C67.9153 39.6192 68.3515 39.842 68.4067 39.8643C69.2625 40.037 69.3398 40.2598 70.8195 40.8001C71.46 40.9171 71.6367 40.867 72.0728 40.8391C72.4207 40.8113 72.8458 40.6497 73.2047 40.5773C73.3372 40.5885 73.6299 40.711 73.7513 40.7612C73.8562 40.828 73.9556 40.9004 74.055 40.9784C74.9053 41.7472 74.9605 41.6915 75.5182 42.1705C76.6279 42.3042 77.2022 42.1761 77.8758 42.2764C78.4224 42.3544 79.3279 42.5772 81.2548 42.8C81.7959 42.8669 81.5033 42.8557 82.0223 42.7722C82.1217 42.7777 82.2155 42.7777 82.3149 42.7889C82.4695 42.8334 82.6241 42.8891 82.7732 42.9504C83.1873 42.9727 83.3032 42.9783 83.9051 42.9337C85.1253 42.839 84.9928 42.9504 86.0418 42.7109C86.6216 42.5772 87.1295 42.4546 87.7148 42.5382C87.9467 42.566 88.162 42.6329 88.3884 42.6719C88.4215 42.6775 88.4326 42.6775 88.4436 42.6775C88.5816 42.683 88.7362 42.683 88.9074 42.6663C88.9129 42.6663 88.924 42.6608 88.935 42.6608C88.8798 39.6916 88.2835 36.7336 87.1737 33.9204ZM54.0236 20.9686C54.0125 20.9631 53.996 20.9519 53.9849 20.9408C53.9739 20.9296 53.9684 20.9185 53.9573 20.9073C53.9463 20.9018 53.9408 20.8906 53.9297 20.8795C53.9297 20.8739 53.9297 20.8739 53.9297 20.8739C53.9408 20.8851 53.9463 20.8962 53.9573 20.9073C53.9794 20.9296 53.996 20.9463 54.0236 20.9686C54.0401 20.9798 54.0567 20.9909 54.0788 21.0076C54.0954 21.0188 54.1064 21.0355 54.123 21.0466C54.0898 21.0243 54.0567 21.002 54.0236 20.9686ZM54.5702 21.5034C54.5978 21.5591 54.6254 21.626 54.6475 21.704C54.6199 21.6204 54.5978 21.5591 54.5702 21.5034ZM55.553 24.7901C55.5033 24.7622 55.4591 24.7344 55.4094 24.6954C55.4757 24.74 55.5475 24.7845 55.6248 24.8179C55.6027 24.8068 55.5806 24.8012 55.553 24.7901ZM60.6823 31.0794C60.6547 31.0682 60.6161 31.0459 60.5774 31.0237C60.6658 31.0682 60.7707 31.1184 60.8866 31.1741C60.8203 31.1462 60.7541 31.1128 60.6823 31.0794ZM62.8853 32.2492C63.051 32.3439 63.178 32.4219 63.316 32.5166C63.3381 32.5333 63.3602 32.55 63.3823 32.5723C63.2221 32.4497 63.0565 32.3439 62.8853 32.2492ZM64.4976 33.9984C64.5638 34.1432 64.619 34.2992 64.6853 34.4775C64.6246 34.3159 64.5638 34.1544 64.4976 33.9984ZM65.5411 35.937C65.6515 35.976 65.773 36.015 65.8834 36.0484C65.7288 36.0094 65.6239 35.976 65.5411 35.937ZM68.0423 36.611C68.1582 36.6333 68.2686 36.6667 68.4067 36.7224C68.2962 36.6834 68.1748 36.65 68.0423 36.611ZM72.8734 37.7363C72.879 37.7363 72.8845 37.7307 72.89 37.7307H72.9231C72.9066 37.7307 72.8955 37.7307 72.8734 37.7363ZM76.1752 39.0398C76.1697 39.0343 76.1586 39.0231 76.1421 39.0064C76.2083 39.0621 76.2746 39.1178 76.3574 39.1791C76.2911 39.129 76.2249 39.0788 76.1752 39.0398ZM78.8144 40.2375C78.7647 40.2375 78.4997 40.2264 78.4997 40.2264C77.9199 40.2097 77.7212 40.1874 77.6604 40.1707C77.9696 40.1985 78.9138 40.2487 79.6426 40.2487C79.4217 40.2487 79.1512 40.2487 78.8144 40.2375ZM81.8677 39.92C82.0333 39.9088 82.1935 39.9033 82.3315 39.9088C82.1824 39.9088 82.0168 39.9088 81.8677 39.92ZM84.932 40.711C84.932 40.7055 84.9376 40.7055 84.9486 40.7055C84.9431 40.711 84.9376 40.711 84.932 40.711ZM85.5394 40.4436C85.567 40.4269 85.5891 40.4213 85.6112 40.4102C85.6443 40.3991 85.6774 40.3879 85.705 40.3768C85.6498 40.3991 85.5891 40.4213 85.5394 40.4436Z"/><path fill="#AC7BC8" d="M83.0756 26.9877C82.957 26.9707 82.827 26.9537 82.6688 26.9197C81.4145 26.6368 81.149 26.0256 80.4371 25.6295C79.3523 25.0183 78.9907 24.9561 77.8438 24.4468C77.4087 24.1978 77.3974 24.0733 76.8494 23.5923C76.4765 23.2584 76.0753 22.9641 75.7024 22.6359C75.5499 22.5114 75.3973 22.3982 75.2278 22.2907C75.0527 22.1775 74.8832 22.053 74.6911 21.9568C73.3916 21.3004 73.6119 21.6795 72.7475 21.2777C72.2334 21.0061 72.2729 20.9212 71.8774 20.6269C71.7531 20.5364 71.6684 20.5081 71.4593 20.3497C71.0864 19.9931 71.0356 19.9365 70.5214 19.5744C70.0129 19.2122 69.8773 19.2179 69.6965 19.1839C68.3519 18.9179 68.0298 18.7482 67.6287 18.4652C73.4877 19.365 79.0133 22.3473 83.0756 26.9877Z"/><path fill="#3C1A67" d="M86.7957 32.3515C84.2711 27.3666 80.3159 23.5291 75.6874 21.1285C77.3761 22.9053 78.8404 24.9549 80.0017 27.2441C84.0467 35.3703 83.5249 45.0283 78.2849 52.7813C70.655 63.8818 56.36 66.8449 45.2573 61.0858C56.4947 72.8658 75.7603 71.4455 85.079 57.8888C90.319 50.1413 90.8351 40.4778 86.7957 32.3515Z" opacity=".49"/><path fill="#112037" fill-rule="evenodd" d="M65.6393 18.9778C52.3145 17.9974 40.3845 28.0514 39.3697 41.7576C39.0842 46.0286 39.8496 50.3482 41.8756 54.4546C42.7291 56.1499 43.7143 57.5782 44.436 58.5256C44.7964 58.9987 45.0885 59.3486 45.2616 59.5481C45.29 59.5808 45.3145 59.6087 45.3351 59.6319C45.3563 59.6508 45.3767 59.6711 45.3961 59.6928C45.4055 59.7033 45.4166 59.7158 45.4282 59.7291C56.1352 71.8117 75.1549 70.6277 84.2697 57.2677C89.3039 49.7642 89.8049 40.4231 85.9194 32.5597C81.8576 24.4881 73.9645 19.5328 65.6445 18.9782L65.6393 18.9778ZM44.356 60.7985C44.3518 60.7945 44.3492 60.7919 44.3486 60.7913C44.3439 60.7867 44.3394 60.7822 44.3354 60.7782C44.332 60.7747 44.3289 60.7716 44.3263 60.7688C44.286 60.7272 44.2134 60.647 44.1196 60.5388C43.9262 60.316 43.6138 59.9413 43.2331 59.4416C42.4731 58.4439 41.4311 56.9346 40.5237 55.1315L40.521 55.1262C38.3705 50.7686 37.5583 46.1801 37.8612 41.654L37.8616 41.6487C38.937 27.105 51.5951 16.43 65.7476 17.47C74.5935 18.0605 82.966 23.3251 87.2712 31.8826L87.2736 31.8874C91.3979 40.2317 90.8655 50.1525 85.5236 58.1125L85.5204 58.1173C75.8674 72.269 55.727 73.5469 44.356 60.7985Z" clip-rule="evenodd"/><g style="mix-blend-mode:multiply" opacity=".2"><path fill="#191326" fill-rule="evenodd" d="M63.9 67.8979C77.3746 67.8979 88.2979 56.9746 88.2979 43.5C88.2979 30.0255 77.3746 19.1022 63.9 19.1022C50.4255 19.1022 39.5022 30.0255 39.5022 43.5C39.5022 56.9746 50.4255 67.8979 63.9 67.8979ZM63.9 69.6C78.3147 69.6 90 57.9147 90 43.5C90 29.0854 78.3147 17.4 63.9 17.4C49.4854 17.4 37.8 29.0854 37.8 43.5C37.8 57.9147 49.4854 69.6 63.9 69.6Z" clip-rule="evenodd"/></g></g><defs><linearGradient id="paint0_linear" x1="63.454" x2="55.428" y1="52.664" y2="83.331" gradientUnits="userSpaceOnUse"><stop stop-color="#404042"/><stop offset="1" stop-color="#48484B"/></linearGradient><linearGradient id="paint1_linear" x1="27.94" x2="25.041" y1="63.058" y2="73.878" gradientUnits="userSpaceOnUse"><stop stop-color="#404042"/><stop offset="1" stop-color="#48484B"/></linearGradient><linearGradient id="paint2_linear" x1="44.097" x2="53.454" y1="48.101" y2="98.772" gradientUnits="userSpaceOnUse"><stop stop-color="#404042"/><stop offset="1" stop-color="#48484B"/></linearGradient><clipPath id="clip0"><rect width="96" height="96" fill="#fff"/></clipPath></defs></svg>