<svg xmlns="http://www.w3.org/2000/svg" width="96" height="96" fill="none" viewBox="0 0 96 96"><g clip-path="url(#clip0)"><path fill="#606063" d="M28.8272 71.4167C26.9202 78.7035 37.8272 87.8696 53.1886 91.8897C68.5499 95.9098 82.5487 93.2616 84.4557 85.9748C86.3627 78.688 75.4557 69.5219 60.0943 65.5018C44.733 61.4817 30.7342 64.1299 28.8272 71.4167Z"/><path fill="#606063" d="M82.1546 89.5637L91.4078 79.7928L25.7953 62.6218L29.2277 75.7126L82.1546 89.5637Z"/><path fill="#606063" d="M29.9602 64.976L4.84342 58.4028C3.75473 58.1179 2.6475 58.7955 2.40573 59.8946L2.1248 61.1716C1.56499 63.7164 3.07167 66.2601 5.57244 66.9921L30.6596 74.3351L29.9602 64.976Z"/><path fill="url(#paint0_linear)" d="M25.9216 59.2257C23.7054 67.6942 36.9161 78.4866 55.4285 83.3314C73.9409 88.1762 90.7448 85.2386 92.9611 76.7701C95.1773 68.3017 81.9666 57.5092 63.4542 52.6644C44.9417 47.8197 28.1378 50.7573 25.9216 59.2257Z"/><path fill="#606063" fill-rule="evenodd" d="M76.6038 73.9714C80.8627 77.1035 83.3515 80.4912 83.7229 83.4942L85.5093 83.2733C85.0464 79.5305 82.0671 75.7549 77.6702 72.5213C73.2362 69.2606 67.2064 66.4328 60.322 64.6311C53.4376 62.8294 46.7956 62.341 41.3327 63.0117C35.9155 63.6769 31.4687 65.509 29.2317 68.5452L30.6808 69.6129C32.4757 67.1768 36.3049 65.4426 41.5521 64.7983C46.7538 64.1596 53.1648 64.6187 59.8663 66.3725C66.5678 68.1263 72.3818 70.8665 76.6038 73.9714Z" clip-rule="evenodd"/><path fill="#979797" fill-rule="evenodd" d="M34.0406 71.2435C28.8082 66.9688 26.8419 62.8188 27.663 59.6814C28.484 56.5441 32.2312 53.8892 38.8868 52.7257C45.3707 51.5922 53.9337 52.0335 62.9984 54.4058C72.0632 56.7781 79.7446 60.588 84.8421 64.7524C90.0745 69.027 92.0408 73.1771 91.2197 76.3144C90.3986 79.4518 86.6515 82.1066 79.9959 83.2701C73.512 84.4036 64.949 83.9623 55.8842 81.59C46.8195 79.2178 39.1381 75.4079 34.0406 71.2435ZM55.4285 83.3314C36.9161 78.4866 23.7054 67.6942 25.9216 59.2257C28.1378 50.7573 44.9417 47.8197 63.4542 52.6644C81.9666 57.5092 95.1773 68.3017 92.9611 76.7701C90.7448 85.2386 73.9409 88.1762 55.4285 83.3314Z" clip-rule="evenodd"/><path fill="url(#paint1_linear)" fill-rule="evenodd" d="M27.1004 74.4294L24.1383 62.9559L25.8812 62.5059L28.8433 73.9794L27.1004 74.4294Z" clip-rule="evenodd"/><path fill="url(#paint2_linear)" fill-rule="evenodd" d="M26.0816 63.7137C26.0546 63.6248 26.0289 63.536 26.0045 63.4474C25.9595 63.2836 25.9191 63.1202 25.8833 62.9572L25.7983 62.6332C25.797 62.6281 25.8016 62.6235 25.8067 62.6248C25.8115 62.6261 25.8161 62.6219 25.8152 62.6169C25.8143 62.6121 25.8134 62.6072 25.8126 62.6024C25.7841 62.443 25.7601 62.2841 25.7406 62.1256C25.736 62.0875 25.7316 62.0495 25.7274 62.0114C25.6841 61.6135 25.6695 61.2184 25.6848 60.827C25.6848 60.8268 25.6848 60.8265 25.6849 60.8263C25.706 60.2851 25.7842 59.7509 25.9216 59.2257C28.1378 50.7572 44.9417 47.8196 63.4541 52.6644C81.9666 57.5091 95.1773 68.3016 92.961 76.7701C92.8236 77.2953 92.63 77.7993 92.3834 78.2815C92.3833 78.2817 92.3832 78.2819 92.3831 78.2821C92.1167 78.8027 91.7885 79.2978 91.4024 79.7669C91.3992 79.7707 91.396 79.7746 91.3928 79.7785C91.3916 79.7799 91.3911 79.7816 91.3911 79.7832C91.3912 79.7861 91.3932 79.789 91.3964 79.7898C91.3994 79.7906 91.4013 79.7931 91.4016 79.7958C91.4018 79.7978 91.4012 79.7998 91.3997 79.8015L91.0352 80.1863C90.993 80.2318 90.9502 80.2769 90.9069 80.3219L90.1651 81.1051L90.1638 81.1065L83.2762 88.3794C79.1915 93.798 66.7185 95.4303 53.1885 91.8894C39.8069 88.3874 29.8055 80.9804 28.7104 74.3124C28.6544 73.9712 28.4201 73.6802 28.0882 73.5831L6.07638 67.1458C3.59017 66.4187 2.08344 63.8994 2.61902 61.365L2.89448 60.0615C3.12835 58.9548 4.23944 58.2679 5.33398 58.5534L25.8833 63.9123C26.0036 63.9436 26.1131 63.8339 26.0816 63.7137ZM23.8872 61.5315C23.8491 60.6053 23.9419 59.6808 24.1803 58.7699C25.5754 53.4388 31.3383 50.3907 38.2668 49.1795C45.367 47.9382 54.4622 48.4506 63.9099 50.923C73.3575 53.3955 81.5377 57.4042 87.1196 61.9644C92.5666 66.4143 96.0976 71.8947 94.7024 77.2258C94.368 78.5035 93.7709 79.6641 92.962 80.6991C92.8926 80.8183 92.8077 80.9324 92.7066 81.0392L92.354 81.4114C92.352 81.4136 92.35 81.4157 92.348 81.4179C92.3019 81.4674 92.2553 81.5166 92.2082 81.5655C92.2061 81.5677 92.204 81.5698 92.2019 81.572L84.6491 89.5475C82.147 92.7913 77.4336 94.6236 71.9903 95.2812C66.4106 95.9554 59.6801 95.4489 52.7328 93.6308C45.8612 91.8325 39.8039 89.0196 35.2858 85.7457C31.0381 82.6678 27.893 78.9889 27.0401 75.152L5.57114 68.8734C2.18183 67.8822 0.127793 64.4478 0.857912 60.9929L1.13337 59.6894C1.57963 57.5777 3.6997 56.267 5.7882 56.8116L23.8872 61.5315Z" clip-rule="evenodd"/><circle cx="34.2" cy="17.4" r="17.4" fill="#F0B90B"/><path fill="#FFFDFA" fill-rule="evenodd" d="M26.7947 12.9804L34.2071 5.56799L37.1627 8.52354L29.7502 15.936L26.7947 12.9804ZM26.8001 21.838L38.6459 9.99222L41.6014 12.9478L29.7557 24.7935L26.8001 21.838ZM43.076 14.4309L31.2303 26.2766L34.1858 29.2322L46.0316 17.3864L43.076 14.4309ZM22.3679 17.4062L25.3235 14.4506L28.279 17.4062L25.3235 20.3617L22.3679 17.4062Z" clip-rule="evenodd"/><g style="mix-blend-mode:multiply" opacity=".1"><path fill="#191326" fill-rule="evenodd" d="M34.2001 33C42.8157 33 49.8 26.0156 49.8 17.4C49.8 8.78436 42.8157 1.8 34.2001 1.8C25.5844 1.8 18.6 8.78436 18.6 17.4C18.6 26.0156 25.5844 33 34.2001 33ZM34.2001 34.8C43.8098 34.8 51.6001 27.0098 51.6001 17.4C51.6001 7.79025 43.8098 0 34.2001 0C24.5903 0 16.8 7.79025 16.8 17.4C16.8 27.0098 24.5903 34.8 34.2001 34.8Z" clip-rule="evenodd"/></g><g clip-path="url(#clip1)"><path fill="#015F2D" d="M64.1036 17.821C49.8091 17.821 38.2211 29.409 38.2211 43.7035C38.2211 57.9981 49.8091 69.586 64.1036 69.586C78.3981 69.586 89.9861 57.9981 89.9861 43.7035C89.9861 29.409 78.3981 17.821 64.1036 17.821ZM64.1036 21.1607C76.5536 21.1607 86.6464 31.2535 86.6464 43.7035C86.6464 56.1536 76.5536 66.2464 64.1036 66.2464C51.6535 66.2464 41.5607 56.1536 41.5607 43.7035C41.5607 31.2535 51.6535 21.1607 64.1036 21.1607Z"/><path fill="#fff" d="M64.1036 21.1608C76.5537 21.1608 86.6464 31.2535 86.6464 43.7036C86.6464 56.1536 76.5537 66.2464 64.1036 66.2464C51.6536 66.2464 41.5608 56.1536 41.5608 43.7036C41.5608 31.2535 51.6536 21.1608 64.1036 21.1608Z"/><mask id="mask0" width="42" height="42" x="43" y="22" mask-type="alpha" maskUnits="userSpaceOnUse"><path fill="#fff" d="M64.2258 63.3915C75.5043 63.3915 84.6474 54.2484 84.6474 42.9698C84.6474 31.6912 75.5043 22.5481 64.2258 22.5481C52.9472 22.5481 43.8041 31.6912 43.8041 42.9698C43.8041 54.2484 52.9472 63.3915 64.2258 63.3915Z"/></mask><g mask="url(#mask0)"><path fill="#015F2D" fill-rule="evenodd" d="M81.1209 38.2563C81.0996 38.3297 81.0705 38.402 81.0339 38.473C80.7647 39.7715 77.1065 46.5862 75.9849 47.7916L75.8814 47.893L74.4377 49.123L82.6241 53.2372L82.5686 53.3039C81.3458 59.3965 71.0994 64.2477 64.1646 64.2477C57.2297 64.2477 45.9659 59.3297 46.0703 53.2372L45.7876 52.8907L53.6879 49.115L53.0179 48.5681L52.2051 47.8931C51.2577 47.0741 47.9098 40.4354 47.4141 38.6837C47.3641 38.614 47.3211 38.5435 47.284 38.4693C49.3747 39.8863 54.8532 41.2628 61.6199 41.5368L62.3007 41.5605L62.9898 41.5766L64.0576 41.586L65.1254 41.5766L65.6429 41.5653L66.3296 41.5433C72.9267 41.2945 78.323 39.996 80.5903 38.6228L80.8136 38.4806L81.0082 38.3424L81.1209 38.2563ZM54.8597 42.9088L55.29 44.4704C55.576 45.3899 55.9026 46.2635 56.2915 47.1507L56.5952 47.8196L57.3039 49.2175C57.3873 49.3831 57.4984 49.5297 57.6384 49.6623L57.7882 49.7905L58.3858 50.2348C59.4068 50.9239 60.5381 51.4151 61.8779 51.7793L62.3903 51.91L63.8023 52.1876L64.0696 52.2136H64.2773L64.5441 52.1877L65.998 51.9012C67.3513 51.5764 68.5201 51.1269 69.6003 50.4651L70.0013 50.2068L70.5715 49.7809C70.7177 49.6688 70.8434 49.5359 70.9463 49.3817L71.0415 49.2204L71.7685 47.7852C72.1764 46.915 72.5275 46.0513 72.8405 45.1319L73.0685 44.431L73.4694 42.9741C72.6011 44.6281 70.8797 45.8015 68.8006 46.0036L68.5149 46.0251L68.2099 45.991C66.6655 45.7752 65.3064 44.9488 64.4452 43.7427L64.2798 43.4965L64.1901 43.3462L64.0163 43.6162C63.1721 44.8307 61.8329 45.6788 60.252 45.9516L59.9327 45.9984L59.6419 46.027L59.3655 46.0039C57.3622 45.7882 55.6774 44.5838 54.8597 42.9088ZM64.1646 25.8499C65.4291 25.8499 67.0994 26.8477 69.5676 28.8196L69.9439 29.1227L71.0208 30.0137L73.891 32.4506L75.9538 32.9974C76.3065 33.0937 76.6263 33.1832 76.919 33.2675L77.4699 33.4301L77.9165 33.5689L78.5067 33.7665L78.858 33.8946L79.1679 34.016C80.542 34.573 81.2235 35.168 81.2235 35.9557L81.2126 36.1175L81.1801 36.2767L81.0666 36.3695L80.8714 36.5159C78.7402 38.0288 73.1646 39.495 66.2988 39.7635L65.6514 39.7851L65.1322 39.7972L64.0609 39.8071L62.9896 39.7972L62.2984 39.7801C55.1968 39.5618 49.4003 38.0558 47.2329 36.504C47.1489 36.3256 47.1056 36.1427 47.1056 35.9557C47.1056 35.0849 47.8366 34.382 49.4273 33.7587C49.1738 33.4906 49.0565 33.2452 48.7482 33.0437C49.2293 32.4925 50.1168 32.0386 50.7271 31.9526C51.9395 31.7512 52.6848 32.1113 53.5027 32.1776C52.8704 31.9064 51.6511 30.719 51.2216 30.1795C50.7101 29.0243 51.076 28.0305 51.3878 27.4792L51.4535 27.368L51.5651 27.1981L51.6996 27.0178L51.781 27.0083C52.1178 26.9859 53.4027 26.9753 53.7946 27.4134C54.8754 28.9476 54.7231 30.5601 55.1215 31.2705C55.3637 30.4327 55.3445 29.7185 55.8798 28.7491C56.4151 27.7797 58.2755 26.4521 59.5934 26.7164C59.6587 27.2539 59.9072 27.471 59.7517 28.0464C61.688 26.589 63.0802 25.8499 64.1646 25.8499Z" clip-rule="evenodd"/></g></g><g style="mix-blend-mode:multiply" opacity=".2"><path fill="#191326" fill-rule="evenodd" d="M63.9 67.8979C77.3746 67.8979 88.2979 56.9746 88.2979 43.5C88.2979 30.0255 77.3746 19.1022 63.9 19.1022C50.4255 19.1022 39.5022 30.0255 39.5022 43.5C39.5022 56.9746 50.4255 67.8979 63.9 67.8979ZM63.9 69.6C78.3147 69.6 90 57.9147 90 43.5C90 29.0854 78.3147 17.4 63.9 17.4C49.4854 17.4 37.8 29.0854 37.8 43.5C37.8 57.9147 49.4854 69.6 63.9 69.6Z" clip-rule="evenodd"/></g></g><defs><linearGradient id="paint0_linear" x1="63.454" x2="55.428" y1="52.664" y2="83.331" gradientUnits="userSpaceOnUse"><stop stop-color="#404042"/><stop offset="1" stop-color="#48484B"/></linearGradient><linearGradient id="paint1_linear" x1="27.94" x2="25.041" y1="63.058" y2="73.878" gradientUnits="userSpaceOnUse"><stop stop-color="#404042"/><stop offset="1" stop-color="#48484B"/></linearGradient><linearGradient id="paint2_linear" x1="44.097" x2="53.454" y1="48.101" y2="98.772" gradientUnits="userSpaceOnUse"><stop stop-color="#404042"/><stop offset="1" stop-color="#48484B"/></linearGradient><clipPath id="clip0"><rect width="96" height="96" fill="#fff"/></clipPath><clipPath id="clip1"><rect width="52.2" height="52.2" fill="#fff" transform="translate(37.8 17.4)"/></clipPath></defs></svg>