<svg width="160" height="160" viewBox="0 0 160 160" fill="none" xmlns="http://www.w3.org/2000/svg">
<g clip-path="url(#clip0)">
<path d="M48.0451 119.028C44.8668 131.172 63.0451 146.449 88.6473 153.149C114.25 159.85 137.581 155.436 140.759 143.291C143.938 131.147 125.759 115.87 100.157 109.17C74.5547 102.469 51.2234 106.883 48.0451 119.028Z" fill="#606063"/>
<path d="M136.924 149.273L152.346 132.988L42.9921 104.37L48.7127 126.188L136.924 149.273Z" fill="#606063"/>
<path d="M49.9337 108.293L8.07245 97.3381C6.25796 96.8632 4.41259 97.9925 4.00962 99.8243L3.54142 101.953C2.60839 106.194 5.11954 110.434 9.28748 111.653L51.0994 123.892L49.9337 108.293Z" fill="#606063"/>
<path d="M43.2026 98.7094C39.5089 112.824 61.5267 130.811 92.3808 138.886C123.235 146.96 151.241 142.064 154.935 127.95C158.629 113.836 136.611 95.8486 105.757 87.774C74.9028 79.6994 46.8963 84.5953 43.2026 98.7094Z" fill="url(#paint0_linear)"/>
<path fill-rule="evenodd" clip-rule="evenodd" d="M127.673 123.286C134.771 128.506 138.919 134.152 139.538 139.157L142.515 138.789C141.744 132.551 136.779 126.258 129.45 120.869C122.06 115.434 112.011 110.721 100.537 107.718C89.0627 104.716 77.9926 103.902 68.8879 105.019C59.8592 106.128 52.4478 109.182 48.7195 114.242L51.1347 116.021C54.1262 111.961 60.5081 109.071 69.2535 107.997C77.923 106.933 88.608 107.698 99.7772 110.621C110.946 113.544 120.636 118.111 127.673 123.286Z" fill="#606063"/>
<path fill-rule="evenodd" clip-rule="evenodd" d="M56.7343 118.739C48.0136 111.615 44.7365 104.698 46.1049 99.4689C47.4733 94.24 53.7186 89.8153 64.8112 87.8761C75.6178 85.987 89.8893 86.7224 104.997 90.6762C120.105 94.63 132.908 100.98 141.403 107.921C150.124 115.045 153.401 121.962 152.033 127.191C150.664 132.42 144.419 136.844 133.326 138.783C122.52 140.673 108.248 139.937 93.1403 135.983C78.0323 132.03 65.2301 125.68 56.7343 118.739ZM92.3808 138.886C61.5267 130.811 39.5089 112.824 43.2026 98.7094C46.8963 84.5953 74.9028 79.6994 105.757 87.774C136.611 95.8486 158.629 113.836 154.935 127.95C151.241 142.064 123.235 146.96 92.3808 138.886Z" fill="#979797"/>
<path fill-rule="evenodd" clip-rule="evenodd" d="M45.1673 124.049L40.2305 104.926L43.1352 104.177L48.0721 123.299L45.1673 124.049Z" fill="url(#paint1_linear)"/>
<path fill-rule="evenodd" clip-rule="evenodd" d="M43.4693 106.19C43.4242 106.041 43.3814 105.893 43.3408 105.746C43.2658 105.473 43.1984 105.2 43.1387 104.929L42.9971 104.389C42.9949 104.38 43.0026 104.373 43.0111 104.375C43.0192 104.377 43.0267 104.37 43.0252 104.362C43.0238 104.354 43.0223 104.345 43.0209 104.337C42.9734 104.072 42.9334 103.807 42.901 103.543C42.8932 103.479 42.8859 103.416 42.879 103.352C42.8067 102.689 42.7825 102.031 42.808 101.378C42.808 101.378 42.808 101.378 42.808 101.377C42.8433 100.475 42.9735 99.5849 43.2026 98.7095C46.8963 84.5954 74.9028 79.6995 105.757 87.7741C136.611 95.8487 158.629 113.836 154.935 127.95C154.706 128.826 154.383 129.666 153.972 130.469C153.972 130.47 153.972 130.47 153.972 130.47C153.528 131.338 152.981 132.163 152.337 132.945C152.332 132.951 152.327 132.958 152.321 132.964C152.319 132.967 152.318 132.969 152.318 132.972C152.319 132.977 152.322 132.982 152.327 132.983C152.332 132.984 152.335 132.989 152.336 132.993C152.336 132.996 152.335 133 152.333 133.003L151.725 133.644C151.655 133.72 151.584 133.795 151.511 133.87L150.275 135.175L150.273 135.177L138.794 147.299C131.986 156.33 111.197 159.051 88.6474 153.149C66.3447 147.312 49.6758 134.967 47.8506 123.854C47.7572 123.285 47.3668 122.8 46.8136 122.639L10.1272 111.91C5.98354 110.698 3.47232 106.499 4.36495 102.275L4.82405 100.103C5.21384 98.2581 7.06565 97.1133 8.88989 97.589L43.1387 106.521C43.3392 106.573 43.5218 106.39 43.4693 106.19ZM39.812 102.553C39.7484 101.009 39.903 99.4681 40.3003 97.95C42.6256 89.0648 52.2305 83.9845 63.778 81.9658C75.6116 79.8971 90.7703 80.751 106.516 84.8718C122.262 88.9926 135.896 95.6738 145.199 103.274C154.278 110.691 160.163 119.825 157.837 128.71C157.28 130.839 156.285 132.774 154.937 134.499C154.821 134.697 154.679 134.887 154.511 135.065L153.923 135.686C153.92 135.689 153.917 135.693 153.913 135.697C153.836 135.779 153.759 135.861 153.68 135.943C153.677 135.946 153.673 135.95 153.67 135.953L141.082 149.246C136.912 154.652 129.056 157.706 119.984 158.802C110.684 159.926 99.4668 159.082 87.8878 156.051C76.4352 153.054 66.3398 148.366 58.8097 142.91C51.7301 137.78 46.4883 131.648 45.0668 125.253L9.28515 114.789C3.63631 113.137 0.212907 107.413 1.42977 101.655L1.88887 99.4824C2.63263 95.9629 6.16608 93.7784 9.64691 94.6861L39.812 102.553Z" fill="url(#paint2_linear)"/>
<circle cx="57" cy="29" r="29" fill="#F0B90B"/>
<path d="M46.1848 29L41.7478 33.4678L37.28 29L41.7478 24.5322L46.1848 29ZM57 18.1848L64.6415 25.8263L69.1093 21.3585L61.4678 13.7478L57 9.28003L52.5322 13.7478L44.9215 21.3585L49.3893 25.8263L57 18.1848ZM72.2522 24.5322L67.8152 29L72.283 33.4678L76.72 29L72.2522 24.5322ZM57 39.8152L49.3585 32.1737L44.9215 36.6415L52.563 44.283L57 48.72L61.4678 44.2522L69.1093 36.6107L64.6415 32.1737L57 39.8152ZM57 33.4678L61.4678 29L57 24.5322L52.5322 29L57 33.4678Z" fill="#FFFDFA"/>
<g style="mix-blend-mode:multiply" opacity="0.1">
<path fill-rule="evenodd" clip-rule="evenodd" d="M57 55C71.3594 55 83 43.3594 83 29C83 14.6406 71.3594 3 57 3C42.6406 3 31 14.6406 31 29C31 43.3594 42.6406 55 57 55ZM57 58C73.0163 58 86 45.0163 86 29C86 12.9837 73.0163 0 57 0C40.9837 0 28 12.9837 28 29C28 45.0163 40.9837 58 57 58Z" fill="#191326"/>
</g>
<circle cx="106.5" cy="72.5" r="43.5" fill="white"/>
<mask id="mask0" mask-type="alpha" maskUnits="userSpaceOnUse" x="71" y="48" width="71" height="43">
<path d="M106.394 48.0093H107.505C129.172 48.0093 140.26 69.8864 140.26 84.3483C141.804 85.2748 142.305 87.2776 141.379 88.8217C140.789 89.8039 139.728 90.4048 138.583 90.4048H75.0685C73.3028 90.4048 71.8715 88.9734 71.8715 87.2078C71.8715 85.9968 72.5556 84.8898 73.6387 84.3483C73.6387 69.8864 84.4885 48.0093 106.394 48.0093Z" fill="white"/>
</mask>
<g mask="url(#mask0)">
<path d="M106.394 48.0093H107.505C129.172 48.0093 140.26 69.8864 140.26 84.3483C141.804 85.2748 142.305 87.2776 141.379 88.8217C140.789 89.8039 139.728 90.4048 138.583 90.4048H75.0685C73.3028 90.4048 71.8715 88.9734 71.8715 87.2078C71.8715 85.9968 72.5556 84.8898 73.6387 84.3483C73.6387 69.8864 84.4885 48.0093 106.394 48.0093Z" fill="#FF8200"/>
<path fill-rule="evenodd" clip-rule="evenodd" d="M93.9303 47.7309H107.473C122.161 47.7309 133.756 68.2926 133.756 85.0781L137.655 87.3195C138.44 87.7711 138.711 88.7738 138.26 89.5593C137.967 90.0683 137.424 90.3822 136.837 90.3822H64.6404C63.7344 90.3822 63 89.6477 63 88.7417C63 88.1037 63.3699 87.5236 63.9483 87.2545L68.625 85.0781C68.625 68.2926 79.2422 47.7309 93.9303 47.7309Z" fill="#FF9600"/>
<path d="M72.8448 72.6789L139.882 72.6789V79.3773L72.8448 79.3773V72.6789Z" fill="black"/>
<path d="M106.953 85.4615C112.389 85.4615 116.795 81.0548 116.795 75.6189C116.795 70.183 112.389 65.7763 106.953 65.7763C101.517 65.7763 97.1101 70.183 97.1101 75.6189C97.1101 81.0548 101.517 85.4615 106.953 85.4615Z" fill="black" fill-opacity="0.119427"/>
</g>
<path d="M106.406 85.4613C111.841 85.4613 116.248 81.0546 116.248 75.6187C116.248 70.1827 111.841 65.7761 106.406 65.7761C100.97 65.7761 96.563 70.1827 96.563 75.6187C96.563 81.0546 100.97 85.4613 106.406 85.4613Z" fill="white"/>
<g filter="url(#filter0_i)">
<path d="M106.047 84.2812C110.802 84.2812 114.656 80.4267 114.656 75.6719C114.656 70.917 110.802 67.0625 106.047 67.0625C101.292 67.0625 97.4375 70.917 97.4375 75.6719C97.4375 80.4267 101.292 84.2812 106.047 84.2812Z" fill="white"/>
</g>
<path fill-rule="evenodd" clip-rule="evenodd" d="M106.405 68.8432C102.663 68.8432 99.6297 71.8767 99.6297 75.6186C99.6297 79.3606 102.663 82.394 106.405 82.394C110.147 82.394 113.18 79.3606 113.18 75.6186C113.18 71.8767 110.147 68.8432 106.405 68.8432ZM96.5236 75.6186C96.5236 70.1612 100.948 65.7371 106.405 65.7371C111.863 65.7371 116.287 70.1612 116.287 75.6186C116.287 81.0761 111.863 85.5002 106.405 85.5002C100.948 85.5002 96.5236 81.0761 96.5236 75.6186Z" fill="black"/>
<path d="M102.945 53.583C101.361 50.3862 100.861 49.4328 101.178 48.1607C101.67 46.1841 103.897 44.3753 106.451 44.4067C108.679 44.4341 110.716 45.8607 111.585 48.0217C111.72 48.4578 111.425 49.9613 109.688 53.6741C108.605 56.0348 107.424 58.8002 106.414 60.6739C105.268 58.3048 104.112 55.9412 102.945 53.583Z" fill="#FFAA30"/>
<path d="M102.441 53.579C100.867 50.3992 100.37 49.4509 100.684 48.1856C101.174 46.2196 103.388 44.4204 105.928 44.4517C108.144 44.479 110.17 45.8979 111.034 48.0474C111.168 48.4811 110.875 49.9766 109.147 53.6695C108.07 56.0176 106.896 58.7682 105.891 60.6319C104.752 58.2755 103.602 55.9245 102.441 53.579Z" fill="#FFAA30"/>
<path d="M91.7171 58.1765C90.5966 56.8372 89.3504 55.6157 87.9964 54.5294C87.8191 54.4588 85.4008 53.5452 83.3581 55.0694C81.6581 56.3376 80.9504 58.7471 81.6922 60.9683C83.0735 60.8164 84.7632 60.7692 86.6608 61.0236C90.7825 61.5754 93.857 63.2761 95.6488 64.4852C94.8597 62.7191 93.6292 60.4633 91.7171 58.1765Z" fill="#FFAA30"/>
<path d="M95.2323 63.952C94.4645 62.2764 93.2685 60.1356 91.413 57.9637C90.3257 56.6918 89.1171 55.531 87.8044 54.4983C87.6327 54.4309 85.2909 53.5593 83.3185 54.9986C81.677 56.1962 80.9983 58.4779 81.7214 60.5847C83.0573 60.4442 84.6919 60.4036 86.5283 60.6494C90.5173 61.1825 93.4958 62.8018 95.2323 63.952Z" fill="#FFAA30"/>
<path d="M120.925 58.6557C122.046 57.3164 123.292 56.0948 124.646 55.0085C124.823 54.938 127.241 54.0244 129.284 55.5486C130.984 56.8168 131.692 59.2263 130.95 61.4475C129.569 61.2956 127.879 61.2484 125.982 61.5028C121.86 62.0546 118.785 63.7553 116.994 64.9644C117.783 63.1983 119.013 60.9425 120.925 58.6557Z" fill="#FF8A00"/>
<path d="M117.41 63.9524C118.178 62.2768 119.374 60.136 121.229 57.9641C122.316 56.6922 123.525 55.5315 124.838 54.4987C125.01 54.4314 127.351 53.5597 129.324 54.9991C130.965 56.1967 131.644 58.4783 130.921 60.5851C129.585 60.4446 127.95 60.4041 126.114 60.6498C122.125 61.1829 119.146 62.8022 117.41 63.9524Z" fill="#FFAA30"/>
<g style="mix-blend-mode:multiply" opacity="0.2">
<path fill-rule="evenodd" clip-rule="evenodd" d="M106.5 113.163C128.958 113.163 147.163 94.9576 147.163 72.5C147.163 50.0424 128.958 31.837 106.5 31.837C84.0424 31.837 65.837 50.0424 65.837 72.5C65.837 94.9576 84.0424 113.163 106.5 113.163ZM106.5 116C130.524 116 150 96.5244 150 72.5C150 48.4756 130.524 29 106.5 29C82.4756 29 63 48.4756 63 72.5C63 96.5244 82.4756 116 106.5 116Z" fill="#191326"/>
</g>
</g>
<defs>
<filter id="filter0_i" x="95.2197" y="67.0625" width="19.4365" height="17.2188" filterUnits="userSpaceOnUse" color-interpolation-filters="sRGB">
<feFlood flood-opacity="0" result="BackgroundImageFix"/>
<feBlend mode="normal" in="SourceGraphic" in2="BackgroundImageFix" result="shape"/>
<feColorMatrix in="SourceAlpha" type="matrix" values="0 0 0 0 0 0 0 0 0 0 0 0 0 0 0 0 0 0 127 0" result="hardAlpha"/>
<feOffset dx="-2.21778"/>
<feGaussianBlur stdDeviation="1.10889"/>
<feComposite in2="hardAlpha" operator="arithmetic" k2="-1" k3="1"/>
<feColorMatrix type="matrix" values="0 0 0 0 0.909804 0 0 0 0 0.905882 0 0 0 0 0.913725 0 0 0 1 0"/>
<feBlend mode="normal" in2="shape" result="effect1_innerShadow"/>
</filter>
<linearGradient id="paint0_linear" x1="105.757" y1="87.774" x2="92.3808" y2="138.886" gradientUnits="userSpaceOnUse">
<stop stop-color="#404042"/>
<stop offset="1" stop-color="#48484B"/>
</linearGradient>
<linearGradient id="paint1_linear" x1="46.5673" y1="105.096" x2="41.7353" y2="123.129" gradientUnits="userSpaceOnUse">
<stop stop-color="#404042"/>
<stop offset="1" stop-color="#48484B"/>
</linearGradient>
<linearGradient id="paint2_linear" x1="73.495" y1="80.1687" x2="89.0897" y2="164.62" gradientUnits="userSpaceOnUse">
<stop stop-color="#404042"/>
<stop offset="1" stop-color="#48484B"/>
</linearGradient>
<clipPath id="clip0">
<rect width="160" height="160" fill="white"/>
</clipPath>
</defs>
</svg>
