<svg xmlns="http://www.w3.org/2000/svg" xmlns:v="https://vecta.io/nano" xmlns:xlink="http://www.w3.org/1999/xlink" width="186" height="171" fill="none"><g fill="#606063"><path d="M67.045 119.028c-3.178 12.144 15 27.421 40.602 34.121s48.934 2.287 52.112-9.858-15-27.421-40.602-34.122-48.934-2.286-52.112 9.859z"/><path d="M155.924 149.273l15.422-16.285-109.354-28.619 5.721 21.818 88.211 23.086z"/><path d="M68.934 108.293L27.073 97.338c-1.815-.475-3.66.654-4.063 2.486l-.468 2.129a8.26 8.26 0 0 0 5.746 9.7l41.812 12.239-1.166-15.599z"/></g><path fill="url(#A)" d="M62.203 98.71c-3.694 14.114 18.324 32.101 49.178 40.176s58.86 3.178 62.554-10.936-18.324-32.101-49.178-40.176-58.861-3.179-62.554 10.935z"/><g fill-rule="evenodd"><path fill="#606063" d="M146.673 123.286c7.098 5.22 11.246 10.866 11.865 15.871l2.978-.368c-.772-6.238-5.737-12.531-13.066-17.92-7.389-5.435-17.439-10.148-28.913-13.151s-22.544-3.817-31.649-2.699c-9.029 1.109-16.44 4.163-20.168 9.223l2.415 1.779c2.992-4.06 9.373-6.95 18.119-8.024 8.67-1.064 19.354-.299 30.523 2.624s20.859 7.49 27.896 12.665z"/><path fill="#979797" d="M75.734 118.739c-8.721-7.124-11.998-14.041-10.629-19.27s7.614-9.654 18.706-11.593c10.807-1.889 25.078-1.154 40.186 2.8s27.911 10.304 36.406 17.245c8.721 7.124 11.998 14.041 10.63 19.27s-7.614 9.653-18.707 11.593c-10.806 1.889-25.078 1.153-40.186-2.8s-27.91-10.304-36.406-17.245zm35.647 20.147c-30.854-8.075-52.872-26.062-49.178-40.176s31.7-19.01 62.554-10.935 52.872 26.062 49.178 40.176-31.7 19.01-62.554 10.936z"/><path fill="url(#B)" d="M64.167 124.049l-4.937-19.123 2.905-.75 4.937 19.123-2.905.75z"/><path fill="url(#C)" d="M62.469 106.189l-.128-.443-.202-.817-.142-.54c.022-.012.03-.019.028-.027l-.004-.025-.12-.794-.022-.191c-.072-.663-.096-1.321-.071-1.974.035-.903.166-1.793.395-2.668 3.694-14.114 31.7-19.01 62.555-10.936s52.872 26.062 49.178 40.176a12.4 12.4 0 0 1-.963 2.519 13.7 13.7 0 0 1-1.635 2.476l-.016.019c.011.02.014.025.015.029l-.611.651-12.932 13.655c-6.807 9.031-27.596 11.752-50.146 5.85-22.302-5.837-38.971-18.182-40.797-29.295-.093-.569-.484-1.054-1.037-1.215L29.127 111.91a8.26 8.26 0 0 1-5.762-9.635l.459-2.172c.39-1.845 2.242-2.99 4.066-2.514l34.249 8.931a.27.27 0 0 0 .331-.331zm-3.657-3.636c-.064-1.544.091-3.085.488-4.603 2.325-8.885 11.93-13.965 23.478-15.984 11.834-2.069 26.992-1.215 42.738 2.906s29.38 10.802 38.683 18.402c9.078 7.417 14.963 16.551 12.638 25.436-.557 2.129-1.552 4.064-2.901 5.789a3.08 3.08 0 0 1-.425.566l-13.429 14.181c-4.171 5.406-12.026 8.46-21.098 9.556-9.3 1.124-20.517.28-32.096-2.751-11.453-2.997-21.548-7.685-29.079-13.141-7.079-5.13-12.321-11.262-13.743-17.657l-35.782-10.464a11.26 11.26 0 0 1-7.855-13.134l.459-2.173c.744-3.519 4.277-5.704 7.758-4.796l30.165 7.867z"/></g><circle cx="76" cy="29" r="29" fill="#f0b90b"/><path fill="#fffdfa" d="M65.185 29l-4.437 4.468L56.28 29l4.468-4.468L65.185 29zM76 18.185l7.642 7.642 4.468-4.468-7.641-7.611L76 9.28 63.921 21.358l4.468 4.468L76 18.185zm15.252 6.347L86.815 29l4.468 4.468L95.72 29l-4.468-4.468zM76 39.815l-7.641-7.642-4.437 4.468L76 48.72l12.109-12.109-4.468-4.437L76 39.815zm0-6.347L80.468 29 76 24.532 71.532 29 76 33.468z"/><circle cx="76" cy="29" r="27.5" stroke="#191326" stroke-width="3" opacity=".1" style="mix-blend-mode:multiply"/><path fill="#1c1c1c" d="M125.5 116c24.024 0 43.5-19.476 43.5-43.5S149.524 29 125.5 29 82 48.476 82 72.5s19.476 43.5 43.5 43.5z"/><path fill="url(#D)" d="M135.205 105.699c-.07-.141-.281-.281-.562-.351-4.283-.984-8.286-2.458-11.657-4.425-7.444-4.353-12.219-10.884-12.43-18.328-.07-2.879.562-5.618 1.756-8.287.772-1.685 4.845-7.795 5.477-8.848 2.739-4.354 1.896-4.073-2.036-9.48l-5.688-8.357-3.792-5.548v.07c-2.248 1.475-4.284 3.16-6.18 4.916C93.702 53.522 89.7 62.511 89.7 72.412c0 13.553 7.444 25.281 18.469 31.461-12.5-9.129-18.189-22.893-13.413-36.798 1.264-3.652 3.23-7.163 5.688-10.323l4.143 6.039c.492.702.421 1.685-.07 2.317-1.966 2.458-3.511 5.197-4.565 8.076-5.267 15.379 8.919 31.179 23.947 33.778 2.879.491 8.146 1.053 10.814.351.773-.211.913-1.124.492-1.615z" opacity=".95"/><path fill="url(#E)" d="M116.244 39.266c.071.14.281.281.562.351 4.284.983 8.287 2.458 11.658 4.424 7.443 4.354 12.219 10.885 12.359 18.399.07 2.879-.562 5.618-1.756 8.287-.772 1.685-4.845 7.795-5.477 8.848-2.739 4.354-1.896 4.073 2.037 9.48l5.688 8.357 3.792 5.548v-.071c2.247-1.474 4.284-3.16 6.18-4.915 6.46-6.531 10.463-15.52 10.463-25.421 0-13.553-7.444-25.281-18.469-31.461 12.5 9.129 18.188 22.893 13.413 36.798-1.264 3.652-3.23 7.163-5.688 10.323l-4.144-6.039c-.491-.702-.421-1.685.071-2.317 1.966-2.458 3.511-5.197 4.564-8.076 5.267-15.379-8.989-31.18-23.946-33.708-2.88-.492-8.146-1.053-10.815-.351-.843.211-.913 1.053-.492 1.545z" opacity=".95"/><circle cx="125.5" cy="72.5" r="42.082" stroke="#191326" stroke-width="2.837" opacity=".2" style="mix-blend-mode:multiply"/><defs><linearGradient id="A" x1="124.757" x2="111.381" y1="87.774" y2="138.886" xlink:href="#F"><stop stop-color="#404042"/><stop offset="1" stop-color="#48484b"/></linearGradient><linearGradient id="B" x1="65.567" x2="60.735" y1="105.096" y2="123.129" xlink:href="#F"><stop stop-color="#404042"/><stop offset="1" stop-color="#48484b"/></linearGradient><linearGradient id="C" x1="92.495" x2="108.09" y1="80.169" y2="164.62" xlink:href="#F"><stop stop-color="#404042"/><stop offset="1" stop-color="#48484b"/></linearGradient><linearGradient id="D" x1="103.163" x2="129.461" y1="100.977" y2="55.428" xlink:href="#F"><stop stop-color="#174e5b"/><stop offset=".069" stop-color="#195a6c"/><stop offset=".207" stop-color="#1e779a"/><stop offset=".398" stop-color="#27a7e3"/><stop offset=".468" stop-color="#2abaff"/><stop offset=".705" stop-color="#1ddaf0"/><stop offset="1" stop-color="#0effe0"/></linearGradient><linearGradient id="E" x1="123.842" x2="159.187" y1="33.526" y2="94.745" xlink:href="#F"><stop stop-color="#174e5b"/><stop offset=".069" stop-color="#195a6c"/><stop offset=".207" stop-color="#1e779a"/><stop offset=".398" stop-color="#27a7e3"/><stop offset=".468" stop-color="#2abaff"/><stop offset=".705" stop-color="#1ddaf0"/><stop offset="1" stop-color="#0effe0"/></linearGradient><linearGradient id="F" gradientUnits="userSpaceOnUse"/></defs></svg>