<svg width="96" height="96" viewBox="0 0 96 96" fill="none" xmlns="http://www.w3.org/2000/svg">
<g clip-path="url(#clip0)">
<path d="M28.8271 71.4167C26.9201 78.7035 37.8271 87.8696 53.1884 91.8897C68.5498 95.9098 82.5486 93.2616 84.4556 85.9748C86.3625 78.688 75.4556 69.5219 60.0942 65.5018C44.7328 61.4817 30.7341 64.1299 28.8271 71.4167Z" fill="#606063"/>
<path d="M82.1547 89.5637L91.408 79.7928L25.7954 62.6218L29.2278 75.7126L82.1547 89.5637Z" fill="#606063"/>
<path d="M29.9603 64.976L4.84355 58.4028C3.75485 58.1179 2.64762 58.7955 2.40585 59.8946L2.12492 61.1716C1.56511 63.7164 3.0718 66.2601 5.57256 66.9921L30.6598 74.3351L29.9603 64.976Z" fill="#606063"/>
<path d="M25.9216 59.2257C23.7054 67.6942 36.9161 78.4866 55.4285 83.3314C73.9409 88.1762 90.7448 85.2386 92.9611 76.7701C95.1773 68.3017 81.9666 57.5092 63.4542 52.6644C44.9417 47.8197 28.1378 50.7573 25.9216 59.2257Z" fill="url(#paint0_linear)"/>
<path fill-rule="evenodd" clip-rule="evenodd" d="M76.6039 73.9714C80.8628 77.1035 83.3516 80.4912 83.723 83.4942L85.5094 83.2733C85.0465 79.5305 82.0672 75.7549 77.6703 72.5213C73.2364 69.2606 67.2065 66.4328 60.3221 64.6311C53.4377 62.8294 46.7957 62.341 41.3329 63.0117C35.9156 63.6769 31.4688 65.509 29.2318 68.5452L30.6809 69.6129C32.4758 67.1768 36.305 65.4426 41.5522 64.7983C46.7539 64.1596 53.1649 64.6187 59.8664 66.3725C66.5679 68.1263 72.3819 70.8665 76.6039 73.9714Z" fill="#606063"/>
<path fill-rule="evenodd" clip-rule="evenodd" d="M34.0406 71.2435C28.8082 66.9688 26.8419 62.8188 27.663 59.6814C28.484 56.5441 32.2312 53.8892 38.8868 52.7257C45.3707 51.5922 53.9337 52.0335 62.9984 54.4058C72.0632 56.7781 79.7446 60.588 84.8421 64.7524C90.0745 69.027 92.0408 73.1771 91.2197 76.3144C90.3986 79.4518 86.6515 82.1066 79.9959 83.2701C73.512 84.4036 64.949 83.9623 55.8842 81.59C46.8195 79.2178 39.1381 75.4079 34.0406 71.2435ZM55.4285 83.3314C36.9161 78.4866 23.7054 67.6942 25.9216 59.2257C28.1378 50.7573 44.9417 47.8197 63.4542 52.6644C81.9666 57.5092 95.1773 68.3017 92.9611 76.7701C90.7448 85.2386 73.9409 88.1762 55.4285 83.3314Z" fill="#979797"/>
<path fill-rule="evenodd" clip-rule="evenodd" d="M27.1003 74.4294L24.1382 62.9559L25.8811 62.5059L28.8431 73.9794L27.1003 74.4294Z" fill="url(#paint1_linear)"/>
<path fill-rule="evenodd" clip-rule="evenodd" d="M26.0815 63.7137C26.0545 63.6248 26.0287 63.536 26.0044 63.4474C25.9594 63.2836 25.919 63.1202 25.8831 62.9572L25.7982 62.6332C25.7969 62.6281 25.8015 62.6235 25.8066 62.6248C25.8114 62.6261 25.8159 62.6219 25.8151 62.6169C25.8142 62.6121 25.8133 62.6072 25.8124 62.6024C25.7839 62.443 25.76 62.2841 25.7405 62.1256C25.7358 62.0875 25.7314 62.0495 25.7273 62.0114C25.6839 61.6135 25.6694 61.2184 25.6847 60.827C25.6847 60.8268 25.6847 60.8265 25.6847 60.8263C25.7059 60.2851 25.784 59.7509 25.9215 59.2257C28.1377 50.7572 44.9416 47.8196 63.454 52.6644C81.9665 57.5091 95.1771 68.3016 92.9609 76.7701C92.8235 77.2953 92.6299 77.7993 92.3833 78.2815C92.3831 78.2817 92.383 78.2819 92.3829 78.2821C92.1166 78.8027 91.7884 79.2978 91.4023 79.7669C91.3991 79.7707 91.3959 79.7746 91.3926 79.7785C91.3915 79.7799 91.391 79.7816 91.391 79.7832C91.3911 79.7861 91.393 79.789 91.3963 79.7898C91.3993 79.7906 91.4012 79.7931 91.4015 79.7958C91.4017 79.7978 91.4011 79.7998 91.3996 79.8015L91.0351 80.1863C90.9929 80.2318 90.9501 80.2769 90.9068 80.3219L90.165 81.1051L90.1637 81.1065L83.2761 88.3794C79.1914 93.798 66.7184 95.4303 53.1883 91.8894C39.8068 88.3874 29.8054 80.9804 28.7103 74.3124C28.6543 73.9712 28.42 73.6802 28.0881 73.5831L6.07626 67.1458C3.59005 66.4187 2.08332 63.8994 2.6189 61.365L2.89436 60.0615C3.12823 58.9548 4.23932 58.2679 5.33386 58.5534L25.8831 63.9123C26.0034 63.9436 26.113 63.8339 26.0815 63.7137ZM23.8871 61.5315C23.8489 60.6053 23.9417 59.6808 24.1801 58.7699C25.5753 53.4388 31.3382 50.3907 38.2667 49.1795C45.3669 47.9382 54.4621 48.4506 63.9097 50.923C73.3574 53.3955 81.5376 57.4042 87.1195 61.9644C92.5665 66.4143 96.0974 71.8947 94.7023 77.2258C94.3679 78.5035 93.7707 79.6641 92.9618 80.6991C92.8925 80.8183 92.8076 80.9324 92.7065 81.0392L92.3539 81.4114C92.3519 81.4136 92.3499 81.4157 92.3479 81.4179C92.3018 81.4674 92.2552 81.5166 92.2081 81.5655C92.206 81.5677 92.2039 81.5698 92.2018 81.572L84.6489 89.5475C82.1469 92.7913 77.4335 94.6236 71.9901 95.2812C66.4105 95.9554 59.68 95.4489 52.7326 93.6308C45.8611 91.8325 39.8038 89.0196 35.2857 85.7457C31.038 82.6678 27.8929 78.9889 27.04 75.152L5.57102 68.8734C2.18171 67.8822 0.127671 64.4478 0.85779 60.9929L1.13325 59.6894C1.57951 57.5777 3.69958 56.267 5.78808 56.8116L23.8871 61.5315Z" fill="url(#paint2_linear)"/>
<circle cx="34.2001" cy="17.4" r="17.4" fill="#F0B90B"/>
<path d="M27.7111 17.4L25.0489 20.0807L22.3682 17.4L25.0489 14.7193L27.7111 17.4ZM34.2002 10.9109L38.7851 15.4958L41.4658 12.8151L36.8809 8.24868L34.2002 5.56799L31.5195 8.24868L26.9531 12.8151L29.6338 15.4958L34.2002 10.9109ZM43.3515 14.7193L40.6893 17.4L43.37 20.0807L46.0322 17.4L43.3515 14.7193ZM34.2002 23.8891L29.6153 19.3042L26.9531 21.9849L31.538 26.5698L34.2002 29.232L36.8809 26.5513L41.4658 21.9664L38.7851 19.3042L34.2002 23.8891ZM34.2002 20.0807L36.8809 17.4L34.2002 14.7193L31.5195 17.4L34.2002 20.0807Z" fill="#FFFDFA"/>
<g style="mix-blend-mode:multiply" opacity="0.1">
<path fill-rule="evenodd" clip-rule="evenodd" d="M34.2001 33C42.8157 33 49.8 26.0156 49.8 17.4C49.8 8.78436 42.8157 1.8 34.2001 1.8C25.5844 1.8 18.6 8.78436 18.6 17.4C18.6 26.0156 25.5844 33 34.2001 33ZM34.2001 34.8C43.8098 34.8 51.6001 27.0098 51.6001 17.4C51.6001 7.79025 43.8098 0 34.2001 0C24.5903 0 16.8 7.79025 16.8 17.4C16.8 27.0098 24.5903 34.8 34.2001 34.8Z" fill="#191326"/>
</g>
<ellipse cx="63.9" cy="43.5" rx="26.1" ry="26.1" fill="white"/>
<g clip-path="url(#clip1)">
<path d="M70.4712 61.5691C70.1023 61.0325 69.9681 60.3953 69.8005 59.7917C68.8615 61.0996 68.2243 62.5416 67.4865 63.9836C67.2182 63.6818 67.0841 63.3129 66.9499 62.944C65.7762 64.319 64.9713 65.8616 64.0658 67.4043C63.2275 65.8281 62.322 64.319 61.2153 62.944C61.0476 63.3129 60.9135 63.6818 60.6452 63.9836C59.9745 62.5081 59.2702 61.0996 58.3648 59.7917C58.2306 60.4288 58.0629 61.0325 57.6941 61.6026C57.3252 59.4228 56.0173 57.6118 55.0112 55.6668H54.9777C54.9777 56.6728 54.8771 57.746 54.2063 58.5844C53.5356 55.0296 50.0814 52.6485 49.8467 48.9931C49.3437 49.7645 48.7735 50.5358 47.7675 50.6029C50.2156 46.1091 43.5084 45.9749 49.9808 35.5453C48.7735 36.3837 47.4657 36.8197 45.9565 36.8197C51.9259 32.46 46.8285 25.8535 57.9288 25.7193C57.5599 24.9145 56.8892 24.445 56.1514 24.0761C57.3252 23.7072 59.8739 24.1767 61.1147 24.9145C61.3495 24.1767 61.3159 23.4724 61.0476 22.7347C62.0872 23.1706 62.6573 24.0425 63.261 24.948C63.5293 23.3383 63.764 21.695 63.9988 20.0853C64.0658 20.1189 64.0658 20.1189 64.0994 20.1189C64.3341 21.7286 64.6024 23.3383 64.8707 24.9815C65.4073 24.0425 66.0445 23.2042 67.0505 22.7347C66.8158 23.4724 66.7487 24.1767 66.9835 24.9145C68.5596 24.1096 70.2029 23.8078 71.9467 24.0761C71.209 24.4785 70.5382 24.948 70.1693 25.7529C81.2026 25.887 76.2058 32.3929 82.1416 36.8532C80.6996 36.8867 79.3246 36.4172 78.1173 35.6124C84.6233 45.9749 77.9161 46.1761 80.3642 50.6364C79.2911 50.5358 78.788 49.798 78.2515 49.0602C78.0503 52.7156 74.529 55.0967 73.9589 58.6179C73.2546 57.746 73.1876 56.7399 73.154 55.6668C72.0474 57.5112 70.9071 59.4228 70.4712 61.5691ZM68.7273 42.722C71.1754 41.9842 73.8247 38.9324 71.8797 36.4843C70.3706 34.8411 70.6389 31.6216 68.1907 30.9844C66.8493 30.6491 65.2731 30.7832 64.1329 31.6552C63.6634 31.6552 63.1939 31.0515 62.6238 31.018C59.4379 30.0454 57.9288 31.9905 57.1575 34.8075C54.5417 38.1276 55.313 41.2129 59.3708 42.722C58.2306 43.1915 58.1971 44.2311 58.566 45.2371C59.2032 45.0024 59.7397 44.6335 60.2763 44.3317C59.8403 45.2036 58.1971 45.3377 58.8678 46.478C59.3038 46.2432 59.7062 46.0085 60.0751 45.7737C59.8739 46.2432 59.1026 46.4109 59.0019 46.8804C59.2032 47.1822 59.3038 48.0541 59.8068 47.7859C60.8464 46.8133 62.1878 46.545 63.4957 46.1091C64.0658 45.8743 63.8982 45.0359 63.6634 44.6C62.825 44.0634 61.9866 43.4262 61.5507 42.4872L61.5842 42.4537C63.0933 43.2585 64.9042 43.225 66.4133 42.4872C66.078 43.9292 63.4622 44.2981 64.2671 45.9749C65.3067 46.545 66.581 46.5786 67.5536 47.3164C67.8889 47.484 68.3584 48.1883 68.6602 47.6517C69.4316 46.5786 68.4926 46.545 67.9225 45.7737C68.3584 46.0085 68.7273 46.2432 69.1297 46.478C69.8675 45.3713 68.1907 45.1365 67.7212 44.3652L67.7548 44.3317C68.3249 44.667 68.8279 45.0359 69.4651 45.2707C69.9011 44.1975 69.8675 43.1915 68.7273 42.722ZM67.8889 51.2065C67.6206 52.1455 66.9835 52.8162 66.4133 53.554C66.3127 54.929 66.1451 56.4381 65.3737 57.6118C65.5414 56.5387 65.4073 53.9229 65.0048 53.3528C64.8372 54.3924 64.636 55.3985 64.0994 56.3039C63.5628 55.3649 63.3616 54.3589 63.1604 53.3528C62.6573 54.7278 62.6573 56.1698 62.825 57.6118C61.9196 56.371 62.0202 54.6942 61.6513 53.3193C60.947 52.8162 60.6117 52.0114 60.3098 51.2065C59.4044 54.2583 59.8403 57.1423 61.2488 59.9258C61.3495 59.4898 61.4501 59.0874 61.5842 58.6514C62.7915 60.2612 63.4622 62.0721 64.0994 63.9166C64.8372 62.0721 65.4073 60.2612 66.6481 58.6514C66.7822 59.1209 66.8493 59.4563 66.9835 59.9258C68.3584 57.1088 68.7944 54.2583 67.8889 51.2065ZM60.1086 25.4175C60.1086 25.4175 60.1086 25.451 60.1086 25.4175C61.3495 30.0454 60.3098 30.6156 65.7762 30.079C66.2457 29.9784 66.9835 29.9448 67.1176 29.4083C67.2517 28.0333 67.6542 26.6919 68.0901 25.3504C68.0901 25.3504 68.0566 25.3504 68.0566 25.3169C67.3524 25.887 66.6481 26.4236 66.2121 27.262H66.1786C66.1451 26.39 66.1115 25.5517 66.078 24.6797H66.0445C65.4743 25.5517 64.9713 26.4571 64.6695 27.4297C64.4683 26.4907 64.2671 25.5181 64.0658 24.5791H64.0323C63.8311 25.5181 63.6299 26.4571 63.4287 27.4297C63.1268 26.4571 62.6573 25.5852 62.0872 24.7803H62.0537C62.0202 25.6187 61.9531 26.4236 61.9196 27.262C61.4836 26.4907 60.7793 25.9876 60.1086 25.4175ZM65.4073 49.4962C65.7426 49.6974 65.6085 50.5693 66.078 50.3346C66.7487 50.0663 67.3523 49.6974 67.7548 49.0938C68.3584 47.3164 64.636 46.478 63.3281 46.7463C60.6787 47.2158 58.7337 49.0602 62.2214 50.4016C62.5567 50.3346 62.3891 49.6639 62.758 49.5297C62.4897 51.2065 65.642 51.173 65.4073 49.4962ZM56.1179 46.545H56.0843C54.5752 43.9628 53.9381 40.911 54.3069 37.9263C52.3283 40.0391 52.1271 43.0238 52.3954 45.7737C52.7308 44.667 52.9655 43.5604 53.6027 42.5543C53.9381 45.5725 55.1118 49.1944 58.4318 49.8986C57.191 47.8865 56.6544 45.5725 56.2856 43.2585C55.749 44.2981 55.9167 45.4719 56.1179 46.545ZM71.8797 43.2921C71.5108 45.606 71.0413 47.8865 69.7334 49.8986C73.0199 49.1944 74.2272 45.539 74.529 42.5878C75.1997 43.5604 75.4345 44.7006 75.7363 45.7737C76.0046 43.0238 75.8034 40.0391 73.8583 37.9263H73.8247C74.1936 40.911 73.59 43.9628 72.0138 46.545C72.2486 45.4384 72.3156 44.3652 71.8797 43.2921ZM57.7276 56.4716H57.7611C58.1636 52.0449 55.2795 51.3071 53.0326 48.3895C52.1271 50.4687 53.3344 52.5479 54.1393 54.4259C54.4411 53.554 54.3405 52.7156 54.0722 51.8437C55.4472 53.1516 56.7551 54.7948 57.7276 56.4716ZM73.9924 54.4259C74.7973 52.5479 75.971 50.4687 75.1326 48.3895H75.0991C72.9528 51.1394 69.8675 52.2797 70.3706 56.4716H70.4041C71.3431 54.7613 72.651 53.118 74.0595 51.8102C73.7912 52.6821 73.6906 53.554 73.9924 54.4259ZM58.7672 27.8992C56.4868 26.7925 53.4015 27.5303 51.7247 29.3747C50.5509 30.5485 50.8192 32.2923 50.0814 33.6673C50.7857 33.332 51.2887 32.7954 51.7247 32.1917C51.9259 33.4326 51.557 34.5728 51.2552 35.7465C54.0051 31.4875 51.3893 28.0668 58.7672 27.8992ZM78.0503 33.6673C77.2789 32.1917 77.5808 30.3137 76.2393 29.14C74.4955 27.4632 71.6114 26.7925 69.398 27.8321V27.8656C76.6082 27.9662 74.2272 31.4539 76.8765 35.713C76.6753 34.5392 76.1723 33.3655 76.407 32.1582C76.91 32.7954 77.3125 33.332 78.0503 33.6673ZM59.2702 29.8442V29.8107C52.0265 28.1674 54.0051 37.2556 55.6484 35.5118C55.749 35.3776 55.749 35.277 55.6484 35.1764C54.7094 34.1033 55.2124 32.1582 56.8221 32.2588C57.7276 32.0241 57.4258 30.3137 59.2702 29.8442ZM68.8615 29.8107V29.8442C69.4651 30.1461 70.1358 30.4479 70.4712 31.0515C70.7395 31.3869 70.7395 32.1247 71.209 32.2253C73.3888 32.2588 73.1205 34.0697 72.4833 35.4447C74.026 37.4568 76.2393 28.1674 68.8615 29.8107ZM78.3521 46.4109C78.3856 46.4109 78.3856 46.4109 78.4191 46.4109C79.3917 43.8622 79.4923 41.0452 77.3125 39.0666C78.4862 41.4141 77.5472 44.0299 78.3521 46.4109ZM49.7461 46.4109C50.6851 44.0969 49.5449 41.3805 50.8528 39.1001C50.8528 39.1001 50.8192 39.1001 50.8192 39.0666C48.7065 41.0452 48.7065 43.8957 49.7461 46.4109Z" fill="url(#paint3_linear)"/>
<path d="M62.4899 36.8532C62.1545 37.8928 61.8192 38.9325 61.9533 40.0727C61.5174 39.6702 61.5174 39.0331 61.4167 38.4965C60.4442 38.8989 59.807 37.8593 59.1028 37.4233C60.3436 35.646 60.8466 38.5971 62.4564 36.8197C62.4564 36.8532 62.4899 36.8532 62.4899 36.8532Z" fill="url(#paint4_linear)"/>
<path d="M66.7152 38.4965C66.6482 39.0666 66.5811 39.6367 66.1787 40.0727C66.2793 38.9325 65.9439 37.9264 65.6421 36.8197C66.1451 36.9538 66.3799 37.7587 66.9164 37.4569C67.5872 36.9874 68.5597 36.4508 68.9957 37.4569C69.0292 37.4569 69.0627 37.4233 69.0627 37.4233C68.3585 37.8593 67.6878 38.9325 66.7152 38.4965Z" fill="url(#paint5_linear)"/>
<path d="M60.1089 25.4175C60.7796 25.9876 61.4839 26.4571 61.9198 27.262C61.9534 26.4236 62.0204 25.6187 62.054 24.7803H62.0875C62.6576 25.6187 63.1271 26.4571 63.4289 27.4296C63.6301 26.4906 63.8314 25.5516 64.0326 24.5791H64.0661C64.2673 25.5181 64.4685 26.4906 64.6697 27.4296C64.9716 26.4236 65.4746 25.5181 66.0447 24.6797H66.0782C66.1118 25.5516 66.1453 26.39 66.1789 27.262H66.2124C66.6484 26.4236 67.3526 25.887 68.0569 25.3169C68.0569 25.3169 68.0904 25.3169 68.0904 25.3504C67.6544 26.6583 67.252 28.0333 67.1179 29.4082C66.9837 29.9448 66.2124 29.9784 65.7764 30.079C60.3101 30.6155 61.3497 30.0454 60.1089 25.4175C60.1089 25.451 60.1089 25.4175 60.1089 25.4175Z" fill="url(#paint6_linear)"/>
<path d="M60.1089 25.4175C60.7796 25.9876 61.4839 26.4571 61.9198 27.262C61.9534 26.4236 62.0204 25.6187 62.054 24.7803H62.0875C62.6576 25.6187 63.1271 26.4571 63.4289 27.4296C63.6301 26.4906 63.8314 25.5516 64.0326 24.5791H64.0661C64.2673 25.5181 64.4685 26.4906 64.6697 27.4296C64.9716 26.4236 65.4746 25.5181 66.0447 24.6797H66.0782C66.1118 25.5516 66.1453 26.39 66.1789 27.262H66.2124C66.6484 26.4236 67.3526 25.887 68.0569 25.3169C68.0569 25.3169 68.0904 25.3169 68.0904 25.3504C67.6544 26.6583 67.252 28.0333 67.1179 29.4082C66.9837 29.9448 66.2124 29.9784 65.7764 30.079C60.3101 30.6155 61.3497 30.0454 60.1089 25.4175C60.1089 25.451 60.1089 25.4175 60.1089 25.4175Z" fill="url(#paint7_linear)"/>
</g>
<g style="mix-blend-mode:multiply" opacity="0.2">
<path fill-rule="evenodd" clip-rule="evenodd" d="M63.9 67.8979C77.3746 67.8979 88.2979 56.9746 88.2979 43.5C88.2979 30.0255 77.3746 19.1022 63.9 19.1022C50.4255 19.1022 39.5022 30.0255 39.5022 43.5C39.5022 56.9746 50.4255 67.8979 63.9 67.8979ZM63.9 69.6C78.3147 69.6 90 57.9147 90 43.5C90 29.0854 78.3147 17.4 63.9 17.4C49.4854 17.4 37.8 29.0854 37.8 43.5C37.8 57.9147 49.4854 69.6 63.9 69.6Z" fill="#191326"/>
</g>
</g>
<defs>
<linearGradient id="paint0_linear" x1="63.4542" y1="52.6644" x2="55.4285" y2="83.3314" gradientUnits="userSpaceOnUse">
<stop stop-color="#404042"/>
<stop offset="1" stop-color="#48484B"/>
</linearGradient>
<linearGradient id="paint1_linear" x1="27.9403" y1="63.0577" x2="25.0411" y2="73.8776" gradientUnits="userSpaceOnUse">
<stop stop-color="#404042"/>
<stop offset="1" stop-color="#48484B"/>
</linearGradient>
<linearGradient id="paint2_linear" x1="44.0969" y1="48.1012" x2="53.4537" y2="98.7722" gradientUnits="userSpaceOnUse">
<stop stop-color="#404042"/>
<stop offset="1" stop-color="#48484B"/>
</linearGradient>
<linearGradient id="paint3_linear" x1="77.9719" y1="53.8351" x2="49.4479" y2="29.798" gradientUnits="userSpaceOnUse">
<stop stop-color="#101112"/>
<stop offset="1" stop-color="#565A65"/>
</linearGradient>
<linearGradient id="paint4_linear" x1="62.8632" y1="38.9971" x2="59.8921" y2="36.4933" gradientUnits="userSpaceOnUse">
<stop stop-color="#101112"/>
<stop offset="1" stop-color="#565A65"/>
</linearGradient>
<linearGradient id="paint5_linear" x1="67.8341" y1="38.8795" x2="65.5392" y2="36.9457" gradientUnits="userSpaceOnUse">
<stop stop-color="#101112"/>
<stop offset="1" stop-color="#565A65"/>
</linearGradient>
<linearGradient id="paint6_linear" x1="67.1155" y1="29.5521" x2="60.9851" y2="24.386" gradientUnits="userSpaceOnUse">
<stop stop-color="#101112"/>
<stop offset="1" stop-color="#565A65"/>
</linearGradient>
<linearGradient id="paint7_linear" x1="60.3582" y1="24.8886" x2="67.4417" y2="29.2136" gradientUnits="userSpaceOnUse">
<stop offset="0.1759" stop-color="#B87600"/>
<stop offset="0.4832" stop-color="#F3DBAF"/>
<stop offset="0.639" stop-color="#DFB972"/>
<stop offset="0.8089" stop-color="#CC9836"/>
<stop offset="0.9341" stop-color="#C08310"/>
<stop offset="1" stop-color="#BB7B02"/>
</linearGradient>
<clipPath id="clip0">
<rect width="96" height="96" fill="white"/>
</clipPath>
<clipPath id="clip1">
<rect width="36.1851" height="47.2519" fill="white" transform="translate(45.9563 20.1188)"/>
</clipPath>
</defs>
</svg>
