<svg xmlns="http://www.w3.org/2000/svg" width="96" height="96" fill="none" viewBox="0 0 96 96"><g clip-path="url(#clip0)"><path fill="#606063" d="M28.8272 71.4166C26.9202 78.7034 37.8272 87.8694 53.1886 91.8896C68.5499 95.9097 82.5487 93.2615 84.4557 85.9747C86.3627 78.6879 75.4557 69.5218 60.0943 65.5017C44.733 61.4816 30.7342 64.1298 28.8272 71.4166Z"/><path fill="#606063" d="M82.1546 89.5636L91.4078 79.7927L25.7953 62.6217L29.2277 75.7125L82.1546 89.5636Z"/><path fill="#606063" d="M29.9602 64.9761L4.84342 58.403C3.75473 58.118 2.6475 58.7956 2.40573 59.8947L2.1248 61.1717C1.56499 63.7166 3.07167 66.2602 5.57244 66.9922L30.6596 74.3352L29.9602 64.9761Z"/><path fill="url(#paint0_linear)" d="M25.9216 59.2256C23.7054 67.694 36.9161 78.4865 55.4285 83.3313C73.9409 88.176 90.7448 85.2385 92.9611 76.77C95.1773 68.3016 81.9666 57.5091 63.4542 52.6643C44.9417 47.8196 28.1378 50.7571 25.9216 59.2256Z"/><path fill="#606063" fill-rule="evenodd" d="M76.6038 73.9714C80.8627 77.1035 83.3515 80.4912 83.7229 83.4942L85.5093 83.2733C85.0464 79.5305 82.0671 75.7549 77.6702 72.5213C73.2362 69.2606 67.2064 66.4328 60.322 64.6311C53.4376 62.8294 46.7956 62.341 41.3327 63.0117C35.9155 63.6769 31.4687 65.509 29.2317 68.5452L30.6808 69.6129C32.4757 67.1768 36.3049 65.4426 41.5521 64.7983C46.7538 64.1596 53.1648 64.6187 59.8663 66.3725C66.5678 68.1263 72.3818 70.8665 76.6038 73.9714Z" clip-rule="evenodd"/><path fill="#979797" fill-rule="evenodd" d="M34.0406 71.2434C28.8082 66.9687 26.8419 62.8187 27.663 59.6813C28.484 56.544 32.2312 53.8891 38.8868 52.7256C45.3707 51.5921 53.9337 52.0334 62.9984 54.4057C72.0632 56.778 79.7446 60.5879 84.8421 64.7522C90.0745 69.0269 92.0408 73.1769 91.2197 76.3143C90.3986 79.4516 86.6515 82.1065 79.9959 83.27C73.512 84.4035 64.949 83.9622 55.8842 81.5899C46.8195 79.2176 39.1381 75.4077 34.0406 71.2434ZM55.4285 83.3313C36.9161 78.4865 23.7054 67.694 25.9216 59.2256C28.1378 50.7571 44.9417 47.8196 63.4542 52.6643C81.9666 57.5091 95.1773 68.3016 92.9611 76.77C90.7448 85.2385 73.9409 88.176 55.4285 83.3313Z" clip-rule="evenodd"/><path fill="url(#paint1_linear)" fill-rule="evenodd" d="M27.1004 74.4294L24.1383 62.9559L25.8812 62.5059L28.8433 73.9794L27.1004 74.4294Z" clip-rule="evenodd"/><path fill="url(#paint2_linear)" fill-rule="evenodd" d="M26.0816 63.7138C26.0546 63.6249 26.0289 63.5362 26.0045 63.4475C25.9595 63.2838 25.9191 63.1204 25.8833 62.9573L25.7983 62.6333C25.797 62.6282 25.8016 62.6236 25.8067 62.6249C25.8115 62.6262 25.8161 62.622 25.8152 62.617C25.8143 62.6122 25.8134 62.6073 25.8126 62.6025C25.7841 62.4431 25.7601 62.2842 25.7406 62.1257C25.736 62.0876 25.7316 62.0496 25.7274 62.0115C25.6841 61.6136 25.6695 61.2186 25.6848 60.8272C25.6848 60.8269 25.6848 60.8267 25.6849 60.8264C25.706 60.2852 25.7842 59.751 25.9216 59.2258C28.1378 50.7573 44.9417 47.8198 63.4541 52.6645C81.9666 57.5093 95.1773 68.3018 92.961 76.7702C92.8236 77.2955 92.63 77.7994 92.3834 78.2816C92.3833 78.2818 92.3832 78.282 92.3831 78.2822C92.1167 78.8028 91.7885 79.2979 91.4024 79.767C91.3992 79.7709 91.396 79.7748 91.3928 79.7787C91.3916 79.7801 91.3911 79.7817 91.3911 79.7833C91.3912 79.7863 91.3932 79.7891 91.3964 79.79C91.3994 79.7907 91.4013 79.7932 91.4016 79.796C91.4018 79.7979 91.4012 79.8 91.3997 79.8016L91.0352 80.1865C90.993 80.2319 90.9502 80.2771 90.9069 80.322L90.1651 81.1053L90.1638 81.1066L83.2762 88.3796C79.1915 93.7981 66.7185 95.4304 53.1885 91.8896C39.8069 88.3875 29.8055 80.9805 28.7104 74.3125C28.6544 73.9713 28.4201 73.6803 28.0882 73.5832L6.07638 67.1459C3.59017 66.4188 2.08344 63.8995 2.61902 61.3652L2.89448 60.0617C3.12835 58.955 4.23944 58.2681 5.33398 58.5535L25.8833 63.9124C26.0036 63.9438 26.1131 63.834 26.0816 63.7138ZM23.8872 61.5317C23.8491 60.6054 23.9419 59.681 24.1803 58.7701C25.5754 53.439 31.3383 50.3908 38.2668 49.1796C45.367 47.9384 54.4622 48.4507 63.9099 50.9232C73.3575 53.3956 81.5377 57.4044 87.1196 61.9645C92.5666 66.4144 96.0976 71.8948 94.7024 77.2259C94.368 78.5036 93.7709 79.6643 92.962 80.6992C92.8926 80.8184 92.8077 80.9325 92.7066 81.0393L92.354 81.4116C92.352 81.4137 92.35 81.4159 92.348 81.418C92.3019 81.4675 92.2553 81.5167 92.2082 81.5656C92.2061 81.5678 92.204 81.5699 92.2019 81.5721L84.6491 89.5476C82.147 92.7914 77.4336 94.6237 71.9903 95.2813C66.4106 95.9555 59.6801 95.4491 52.7328 93.6309C45.8612 91.8326 39.8039 89.0197 35.2858 85.7459C31.0381 82.6679 27.893 78.989 27.0401 75.1521L5.57114 68.8735C2.18183 67.8823 0.127793 64.448 0.857912 60.993L1.13337 59.6895C1.57963 57.5778 3.6997 56.2671 5.7882 56.8117L23.8872 61.5317Z" clip-rule="evenodd"/><g clip-path="url(#clip1)"><path fill="#fff" d="M34.2011 31.9485C42.674 31.9485 49.5426 25.0809 49.5426 16.6092C49.5426 8.13762 42.674 1.27002 34.2011 1.27002C25.7282 1.27002 18.8596 8.13762 18.8596 16.6092C18.8596 25.0809 25.7282 31.9485 34.2011 31.9485Z"/><path fill="url(#paint3_radial)" d="M31.5403 0.129097C9.12241 4.38674 13.3738 37.1113 36.8597 34.6707C59.276 30.4131 55.0246 -2.31147 31.5403 0.129097ZM44.6442 18.6564C36.9424 26.934 34.5911 29.626 32.3362 27.3663C20.6569 15.1738 20.4967 19.6829 31.8883 7.88138C32.2001 7.53691 33.12 6.44494 34.7651 6.71362C36.7822 7.36467 37.8468 9.50899 41.5538 12.8951C43.8948 15.3805 45.6674 16.14 44.6442 18.6564Z"/><path fill="#7A51DC" d="M29.6611 19.7691H38.7392C38.8427 19.7688 38.9452 19.789 39.0408 19.8285C39.1364 19.868 39.2233 19.9259 39.2964 19.9991C39.3696 20.0722 39.4275 20.1591 39.467 20.2547C39.5065 20.3503 39.5267 20.4527 39.5265 20.5562C39.526 20.7646 39.4429 20.9644 39.2953 21.1116C39.1477 21.2589 38.9477 21.3416 38.7392 21.3416H29.6594C29.5561 21.3418 29.4537 21.3216 29.3581 21.2821C29.2626 21.2426 29.1759 21.1846 29.1029 21.1114C29.0299 21.0383 28.972 20.9514 28.9327 20.8558C28.8934 20.7602 28.8735 20.6578 28.8739 20.5544C28.8737 20.4511 28.8939 20.3487 28.9334 20.2532C28.9729 20.1577 29.0309 20.071 29.1041 19.998C29.1772 19.925 29.2641 19.8672 29.3597 19.8279C29.4553 19.7886 29.5578 19.7686 29.6611 19.7691Z"/><path fill="#7A51DC" d="M29.6611 16.6069H38.741C38.9496 16.6074 39.1496 16.6905 39.2971 16.838C39.4447 16.9855 39.5277 17.1854 39.5282 17.394C39.5277 17.6027 39.4447 17.8026 39.2971 17.9501C39.1496 18.0976 38.9496 18.1807 38.741 18.1812H29.6611C29.4528 18.1807 29.2531 18.0979 29.1056 17.9507C28.9581 17.8036 28.8748 17.6041 28.8739 17.3958C28.8737 17.2923 28.8939 17.1897 28.9333 17.094C28.9728 16.9983 29.0307 16.9114 29.1039 16.8381C29.177 16.7648 29.2639 16.7067 29.3595 16.667C29.4551 16.6273 29.5576 16.6069 29.6611 16.6069Z"/><path fill="#7A51DC" d="M29.6627 13.4583H38.7426C38.951 13.4587 39.1508 13.5418 39.2981 13.6894C39.4454 13.837 39.5281 14.0369 39.5281 14.2454C39.5283 14.3488 39.5081 14.4512 39.4686 14.5468C39.4291 14.6424 39.3711 14.7293 39.298 14.8024C39.2248 14.8756 39.138 14.9335 39.0424 14.973C38.9467 15.0125 38.8443 15.0327 38.7408 15.0325H29.6627C29.4539 15.0325 29.2537 14.9496 29.1061 14.8019C28.9584 14.6543 28.8755 14.4541 28.8755 14.2454C28.8759 14.0367 28.959 13.8368 29.1066 13.6893C29.2541 13.5418 29.4541 13.4587 29.6627 13.4583Z"/></g><g style="mix-blend-mode:multiply" opacity=".1"><path fill="#191326" fill-rule="evenodd" d="M34.2001 33C42.8157 33 49.8 26.0156 49.8 17.4C49.8 8.78436 42.8157 1.8 34.2001 1.8C25.5844 1.8 18.6 8.78436 18.6 17.4C18.6 26.0156 25.5844 33 34.2001 33ZM34.2001 34.8C43.8098 34.8 51.6001 27.0098 51.6001 17.4C51.6001 7.79025 43.8098 0 34.2001 0C24.5903 0 16.8 7.79025 16.8 17.4C16.8 27.0098 24.5903 34.8 34.2001 34.8Z" clip-rule="evenodd"/></g><g clip-path="url(#clip2)"><path fill="#fff" d="M63.8137 66.9114C76.736 66.9114 87.2116 56.4379 87.2116 43.5182C87.2116 30.5985 76.736 20.125 63.8137 20.125C50.8914 20.125 40.4158 30.5985 40.4158 43.5182C40.4158 56.4379 50.8914 66.9114 63.8137 66.9114Z"/><path fill="url(#paint4_radial)" d="M59.9102 17.5937C26.2819 23.9792 32.6608 73.0666 67.889 69.4076C101.517 63.0195 95.1384 13.9322 59.9102 17.5937ZM79.5722 45.3814C68.0125 57.7977 64.492 61.8375 61.1082 58.4491C43.5795 40.1595 43.3456 46.9232 60.4304 29.2194C60.9007 28.6941 62.2694 27.0629 64.7469 27.4674C67.7787 28.4419 69.3708 31.6701 74.9299 36.7396C78.4425 40.4695 81.1013 41.6068 79.5722 45.3814Z"/><path fill="url(#paint5_linear)" d="M56.0248 49.4103L62.6454 49.4126C62.998 49.4127 63.2839 49.1271 63.284 48.7746L63.2844 47.6897C63.2845 47.3372 62.9988 47.0514 62.6462 47.0512L56.0257 47.0489C55.6731 47.0488 55.3872 47.3345 55.387 47.687L55.3866 48.7718C55.3865 49.1243 55.6723 49.4102 56.0248 49.4103Z"/><path fill="url(#paint6_linear)" d="M56.0284 44.6693L62.6489 44.6717C63.0015 44.6718 63.2875 44.3861 63.2876 44.0336L63.288 42.9488C63.2881 42.5963 63.0024 42.3104 62.6498 42.3103L56.0292 42.308C55.6766 42.3078 55.3907 42.5935 55.3906 42.946L55.3902 44.0308C55.3901 44.3833 55.6758 44.6692 56.0284 44.6693Z"/><path fill="url(#paint7_linear)" d="M56.0292 39.9464L62.6498 39.9488C63.0024 39.9489 63.2883 39.6632 63.2884 39.3107L63.2888 38.2259C63.2889 37.8734 63.0032 37.5875 62.6506 37.5874L56.0301 37.5851C55.6775 37.5849 55.3915 37.8706 55.3914 38.2231L55.391 39.3079C55.3909 39.6604 55.6766 39.9463 56.0292 39.9464Z"/><path fill="url(#paint8_linear)" d="M65.1464 49.4125L71.767 49.4148C72.1196 49.4149 72.4055 49.1293 72.4056 48.7768L72.406 47.6919C72.4061 47.3394 72.1204 47.0536 71.7678 47.0534L65.1472 47.0511C64.7947 47.051 64.5087 47.3367 64.5086 47.6892L64.5082 48.774C64.5081 49.1265 64.7938 49.4124 65.1464 49.4125Z"/><path fill="url(#paint9_linear)" d="M65.1526 44.6686L71.7732 44.6709C72.1258 44.671 72.4117 44.3854 72.4118 44.0329L72.4122 42.948C72.4123 42.5955 72.1266 42.3097 71.774 42.3095L65.1535 42.3072C64.8009 42.3071 64.515 42.5928 64.5148 42.9453L64.5145 44.0301C64.5143 44.3826 64.8001 44.6685 65.1526 44.6686Z"/><path fill="url(#paint10_linear)" d="M65.1535 39.946L71.7741 39.9483C72.1266 39.9484 72.4126 39.6627 72.4127 39.3102L72.4131 38.2254C72.4132 37.8729 72.1275 37.587 71.7749 37.5869L65.1543 37.5846C64.8017 37.5844 64.5158 37.8701 64.5157 38.2226L64.5153 39.3074C64.5152 39.66 64.8009 39.9458 65.1535 39.946Z"/></g><g style="mix-blend-mode:multiply" opacity=".2"><path fill="#191326" fill-rule="evenodd" d="M63.9 67.8977C77.3746 67.8977 88.2979 56.9745 88.2979 43.4999C88.2979 30.0254 77.3746 19.1021 63.9 19.1021C50.4255 19.1021 39.5022 30.0254 39.5022 43.4999C39.5022 56.9745 50.4255 67.8977 63.9 67.8977ZM63.9 69.5999C78.3147 69.5999 90 57.9145 90 43.4999C90 29.0853 78.3147 17.3999 63.9 17.3999C49.4854 17.3999 37.8 29.0853 37.8 43.4999C37.8 57.9145 49.4854 69.5999 63.9 69.5999Z" clip-rule="evenodd"/></g></g><defs><linearGradient id="paint0_linear" x1="63.454" x2="55.428" y1="52.664" y2="83.331" gradientUnits="userSpaceOnUse"><stop stop-color="#404042"/><stop offset="1" stop-color="#48484B"/></linearGradient><linearGradient id="paint1_linear" x1="27.94" x2="25.041" y1="63.058" y2="73.878" gradientUnits="userSpaceOnUse"><stop stop-color="#404042"/><stop offset="1" stop-color="#48484B"/></linearGradient><linearGradient id="paint2_linear" x1="44.097" x2="53.454" y1="48.101" y2="98.772" gradientUnits="userSpaceOnUse"><stop stop-color="#404042"/><stop offset="1" stop-color="#48484B"/></linearGradient><radialGradient id="paint3_radial" cx="0" cy="0" r="1" gradientTransform="translate(34.2 17.4008) scale(17.4017 17.3991)" gradientUnits="userSpaceOnUse"><stop stop-color="#BBB9FC"/><stop offset="1" stop-color="#7A51DC"/></radialGradient><radialGradient id="paint4_radial" cx="0" cy="0" r="1" gradientTransform="translate(63.9009 43.4981) scale(26.1013 26.0961)" gradientUnits="userSpaceOnUse"><stop stop-color="#EBB162"/><stop offset="1" stop-color="#D7801E"/></radialGradient><linearGradient id="paint5_linear" x1="54.966" x2="62.795" y1="48.27" y2="48.273" gradientUnits="userSpaceOnUse"><stop stop-color="#E28E22"/><stop offset="1" stop-color="#E9A54C"/></linearGradient><linearGradient id="paint6_linear" x1="1441.46" x2="1676.85" y1="277.828" y2="277.91" gradientUnits="userSpaceOnUse"><stop stop-color="#E28E22"/><stop offset="1" stop-color="#E9A54C"/></linearGradient><linearGradient id="paint7_linear" x1="1441.52" x2="1676.87" y1="230.65" y2="230.732" gradientUnits="userSpaceOnUse"><stop stop-color="#E28E22"/><stop offset="1" stop-color="#E9A54C"/></linearGradient><linearGradient id="paint8_linear" x1="1717.72" x2="1953.12" y1="325.314" y2="325.396" gradientUnits="userSpaceOnUse"><stop stop-color="#E28E22"/><stop offset="1" stop-color="#E9A54C"/></linearGradient><linearGradient id="paint9_linear" x1="1717.78" x2="1953.13" y1="277.95" y2="278.032" gradientUnits="userSpaceOnUse"><stop stop-color="#E28E22"/><stop offset="1" stop-color="#E9A54C"/></linearGradient><linearGradient id="paint10_linear" x1="1717.83" x2="1953.19" y1="230.795" y2="230.878" gradientUnits="userSpaceOnUse"><stop stop-color="#E28E22"/><stop offset="1" stop-color="#E9A54C"/></linearGradient><clipPath id="clip0"><rect width="96" height="96" fill="#fff"/></clipPath><clipPath id="clip1"><rect width="34.8" height="34.8" fill="#fff" transform="translate(16.8)"/></clipPath><clipPath id="clip2"><rect width="52.2" height="52.2" fill="#fff" transform="translate(37.8 17.3999)"/></clipPath></defs></svg>