<svg xmlns="http://www.w3.org/2000/svg" width="96" height="96" fill="none" viewBox="0 0 96 96"><g clip-path="url(#clip0)"><path fill="#606063" d="M28.8271 71.4166C26.9201 78.7034 37.8271 87.8694 53.1884 91.8896C68.5498 95.9097 82.5486 93.2615 84.4556 85.9747C86.3625 78.6879 75.4556 69.5218 60.0942 65.5017C44.7328 61.4816 30.7341 64.1298 28.8271 71.4166Z"/><path fill="#606063" d="M82.1547 89.5636L91.408 79.7927L25.7954 62.6217L29.2278 75.7125L82.1547 89.5636Z"/><path fill="#606063" d="M29.9603 64.9761L4.84355 58.403C3.75485 58.118 2.64762 58.7956 2.40585 59.8947L2.12492 61.1717C1.56511 63.7166 3.0718 66.2602 5.57256 66.9922L30.6598 74.3352L29.9603 64.9761Z"/><path fill="url(#paint0_linear)" d="M25.9216 59.2256C23.7054 67.694 36.9161 78.4865 55.4285 83.3313C73.9409 88.176 90.7448 85.2385 92.9611 76.77C95.1773 68.3016 81.9666 57.5091 63.4542 52.6643C44.9417 47.8196 28.1378 50.7571 25.9216 59.2256Z"/><path fill="#606063" fill-rule="evenodd" d="M76.6039 73.9714C80.8628 77.1035 83.3516 80.4912 83.723 83.4942L85.5094 83.2733C85.0465 79.5305 82.0672 75.7549 77.6703 72.5213C73.2364 69.2606 67.2065 66.4328 60.3221 64.6311C53.4377 62.8294 46.7957 62.341 41.3329 63.0117C35.9156 63.6769 31.4688 65.509 29.2318 68.5452L30.6809 69.6129C32.4758 67.1768 36.305 65.4426 41.5522 64.7983C46.7539 64.1596 53.1649 64.6187 59.8664 66.3725C66.5679 68.1263 72.3819 70.8665 76.6039 73.9714Z" clip-rule="evenodd"/><path fill="#979797" fill-rule="evenodd" d="M34.0406 71.2434C28.8082 66.9687 26.8419 62.8187 27.663 59.6813C28.484 56.544 32.2312 53.8891 38.8868 52.7256C45.3707 51.5921 53.9337 52.0334 62.9984 54.4057C72.0632 56.778 79.7446 60.5879 84.8421 64.7522C90.0745 69.0269 92.0408 73.1769 91.2197 76.3143C90.3986 79.4516 86.6515 82.1065 79.9959 83.27C73.512 84.4035 64.949 83.9622 55.8842 81.5899C46.8195 79.2176 39.1381 75.4077 34.0406 71.2434ZM55.4285 83.3313C36.9161 78.4865 23.7054 67.694 25.9216 59.2256C28.1378 50.7571 44.9417 47.8196 63.4542 52.6643C81.9666 57.5091 95.1773 68.3016 92.9611 76.77C90.7448 85.2385 73.9409 88.176 55.4285 83.3313Z" clip-rule="evenodd"/><path fill="url(#paint1_linear)" fill-rule="evenodd" d="M27.1003 74.4294L24.1382 62.9559L25.8811 62.5059L28.8431 73.9794L27.1003 74.4294Z" clip-rule="evenodd"/><path fill="url(#paint2_linear)" fill-rule="evenodd" d="M26.0815 63.7138C26.0545 63.6249 26.0287 63.5362 26.0044 63.4475C25.9594 63.2838 25.919 63.1204 25.8831 62.9573L25.7982 62.6333C25.7969 62.6282 25.8015 62.6236 25.8066 62.6249C25.8114 62.6262 25.8159 62.622 25.8151 62.617C25.8142 62.6122 25.8133 62.6073 25.8124 62.6025C25.7839 62.4431 25.76 62.2842 25.7405 62.1257C25.7358 62.0876 25.7314 62.0496 25.7273 62.0115C25.6839 61.6136 25.6694 61.2186 25.6847 60.8272C25.6847 60.8269 25.6847 60.8267 25.6847 60.8264C25.7059 60.2852 25.784 59.751 25.9215 59.2258C28.1377 50.7573 44.9416 47.8198 63.454 52.6645C81.9665 57.5093 95.1771 68.3018 92.9609 76.7702C92.8235 77.2955 92.6299 77.7994 92.3833 78.2816C92.3831 78.2818 92.383 78.282 92.3829 78.2822C92.1166 78.8028 91.7884 79.2979 91.4023 79.767C91.3991 79.7709 91.3959 79.7748 91.3926 79.7787C91.3915 79.7801 91.391 79.7817 91.391 79.7833C91.3911 79.7863 91.393 79.7891 91.3963 79.79C91.3993 79.7907 91.4012 79.7932 91.4015 79.796C91.4017 79.7979 91.4011 79.8 91.3996 79.8016L91.0351 80.1865C90.9929 80.2319 90.9501 80.2771 90.9068 80.322L90.165 81.1053L90.1637 81.1066L83.2761 88.3796C79.1914 93.7981 66.7184 95.4304 53.1883 91.8896C39.8068 88.3875 29.8054 80.9805 28.7103 74.3125C28.6543 73.9713 28.42 73.6803 28.0881 73.5832L6.07626 67.1459C3.59005 66.4188 2.08332 63.8995 2.6189 61.3652L2.89436 60.0617C3.12823 58.955 4.23932 58.2681 5.33386 58.5535L25.8831 63.9124C26.0034 63.9438 26.113 63.834 26.0815 63.7138ZM23.8871 61.5317C23.8489 60.6054 23.9417 59.681 24.1801 58.7701C25.5753 53.439 31.3382 50.3908 38.2667 49.1796C45.3669 47.9384 54.4621 48.4507 63.9097 50.9232C73.3574 53.3956 81.5376 57.4044 87.1195 61.9645C92.5665 66.4144 96.0974 71.8948 94.7023 77.2259C94.3679 78.5036 93.7707 79.6643 92.9618 80.6992C92.8925 80.8184 92.8076 80.9325 92.7065 81.0393L92.3539 81.4116C92.3519 81.4137 92.3499 81.4159 92.3479 81.418C92.3018 81.4675 92.2552 81.5167 92.2081 81.5656C92.206 81.5678 92.2039 81.5699 92.2018 81.5721L84.6489 89.5476C82.1469 92.7914 77.4335 94.6237 71.9901 95.2813C66.4105 95.9555 59.68 95.4491 52.7326 93.6309C45.8611 91.8326 39.8038 89.0197 35.2857 85.7459C31.038 82.6679 27.8929 78.989 27.04 75.1521L5.57102 68.8735C2.18171 67.8823 0.127671 64.448 0.85779 60.993L1.13325 59.6895C1.57951 57.5778 3.69958 56.2671 5.78808 56.8117L23.8871 61.5317Z" clip-rule="evenodd"/><circle cx="34.2" cy="17.4" r="17.4" fill="#F0B90B"/><path fill="#FFFDFA" fill-rule="evenodd" d="M26.7947 12.9806L34.2071 5.56812L37.1627 8.52366L29.7502 15.9361L26.7947 12.9806ZM26.8001 21.8381L38.6459 9.99235L41.6014 12.9479L29.7557 24.7937L26.8001 21.8381ZM43.076 14.431L31.2303 26.2768L34.1858 29.2323L46.0316 17.3866L43.076 14.431ZM22.3679 17.4063L25.3235 14.4508L28.279 17.4063L25.3235 20.3619L22.3679 17.4063Z" clip-rule="evenodd"/><g style="mix-blend-mode:multiply" opacity=".1"><path fill="#191326" fill-rule="evenodd" d="M34.2001 33C42.8157 33 49.8 26.0156 49.8 17.4C49.8 8.78436 42.8157 1.8 34.2001 1.8C25.5844 1.8 18.6 8.78436 18.6 17.4C18.6 26.0156 25.5844 33 34.2001 33ZM34.2001 34.8C43.8098 34.8 51.6001 27.0098 51.6001 17.4C51.6001 7.79025 43.8098 0 34.2001 0C24.5903 0 16.8 7.79025 16.8 17.4C16.8 27.0098 24.5903 34.8 34.2001 34.8Z" clip-rule="evenodd"/></g><ellipse cx="63.9" cy="43.5" fill="#fff" rx="26.1" ry="26.1"/><path fill="#1D222A" fill-rule="evenodd" d="M73.9362 41.1676C73.0849 40.3164 73.0849 38.9363 73.9362 38.0851C74.7874 37.2339 76.1675 37.2339 77.0187 38.0851C77.8699 38.9363 77.8699 40.3164 77.0187 41.1676C76.1675 42.0189 74.7874 42.0189 73.9362 41.1676ZM66.6151 48.4887C65.9767 47.8503 65.9767 46.8152 66.6151 46.1768C67.2535 45.5384 68.2886 45.5384 68.927 46.1768C69.5655 46.8152 69.5655 47.8503 68.927 48.4887C68.2886 49.1271 67.2535 49.1271 66.6151 48.4887ZM78.1747 44.6355C77.5362 43.9971 77.5362 42.962 78.1747 42.3236C78.8131 41.6852 79.8482 41.6852 80.4866 42.3236C81.125 42.962 81.125 43.9971 80.4866 44.6355C79.8482 45.2739 78.8131 45.2739 78.1747 44.6355ZM74.3215 48.4887C73.6831 47.8503 73.6831 46.8152 74.3215 46.1768C74.9599 45.5384 75.995 45.5384 76.6334 46.1768C77.2718 46.8152 77.2718 47.8503 76.6334 48.4887C75.995 49.1271 74.9599 49.1271 74.3215 48.4887ZM82.4132 48.1034C81.9875 47.6777 81.9875 46.9877 82.4132 46.5621C82.8388 46.1365 83.5288 46.1365 83.9544 46.5621C84.38 46.9877 84.38 47.6777 83.9544 48.1034C83.5288 48.529 82.8388 48.529 82.4132 48.1034ZM78.56 51.9565C78.1344 51.5309 78.1344 50.8409 78.56 50.4153C78.9856 49.9897 79.6756 49.9897 80.1012 50.4153C80.5269 50.8409 80.5269 51.5309 80.1012 51.9565C79.6756 52.3821 78.9856 52.3821 78.56 51.9565ZM70.083 45.0208C69.2318 44.1696 69.2318 42.7895 70.083 41.9383C70.9342 41.0871 72.3143 41.0871 73.1655 41.9383C74.0168 42.7895 74.0168 44.1696 73.1655 45.0208C72.3143 45.872 70.9342 45.872 70.083 45.0208ZM70.083 37.3145C69.2318 36.4632 69.2318 35.0831 70.083 34.2319C70.9342 33.3807 72.3143 33.3807 73.1655 34.2319C74.0168 35.0831 74.0168 36.4632 73.1655 37.3145C72.3143 38.1657 70.9342 38.1657 70.083 37.3145ZM66.2298 41.1676C65.3786 40.3164 65.3786 38.9363 66.2298 38.0851C67.081 37.2339 68.4611 37.2339 69.3124 38.0851C70.1636 38.9363 70.1636 40.3164 69.3124 41.1676C68.4611 42.0189 67.081 42.0189 66.2298 41.1676ZM58.4876 41.1676C57.6364 40.3164 57.6364 38.9363 58.4876 38.0851C59.3389 37.2339 60.719 37.2339 61.5702 38.0851C62.4214 38.9363 62.4214 40.3164 61.5702 41.1676C60.719 42.0189 59.3389 42.0189 58.4876 41.1676ZM51.1666 48.4887C50.5282 47.8503 50.5282 46.8152 51.1666 46.1768C51.805 45.5384 52.8401 45.5384 53.4785 46.1768C54.1169 46.8152 54.1169 47.8503 53.4785 48.4887C52.8401 49.1271 51.805 49.1271 51.1666 48.4887ZM62.7261 44.6355C62.0877 43.9971 62.0877 42.962 62.7261 42.3236C63.3646 41.6852 64.3996 41.6852 65.038 42.3236C65.6765 42.962 65.6765 43.9971 65.038 44.6355C64.3996 45.2739 63.3646 45.2739 62.7261 44.6355ZM58.873 48.4887C58.2345 47.8503 58.2345 46.8152 58.873 46.1768C59.5114 45.5384 60.5465 45.5384 61.1849 46.1768C61.8233 46.8152 61.8233 47.8503 61.1849 48.4887C60.5465 49.1271 59.5114 49.1271 58.873 48.4887ZM43.8456 48.1034C43.42 47.6777 43.42 46.9877 43.8456 46.5621C44.2712 46.1365 44.9612 46.1365 45.3868 46.5621C45.8125 46.9877 45.8125 47.6777 45.3868 48.1034C44.9612 48.529 44.2712 48.529 43.8456 48.1034ZM47.6988 51.9565C47.2731 51.5309 47.2731 50.8409 47.6988 50.4153C48.1244 49.9897 48.8144 49.9897 49.24 50.4153C49.6656 50.8409 49.6656 51.5309 49.24 51.9565C48.8144 52.3821 48.1244 52.3821 47.6988 51.9565ZM63.1115 51.9565C62.6858 51.5309 62.6858 50.8409 63.1115 50.4153C63.5371 49.9897 64.2271 49.9897 64.6527 50.4153C65.0783 50.8409 65.0783 51.5309 64.6527 51.9565C64.2271 52.3821 63.5371 52.3821 63.1115 51.9565ZM47.3134 44.6355C46.675 43.9971 46.675 42.962 47.3134 42.3236C47.9518 41.6852 48.9869 41.6852 49.6253 42.3236C50.2638 42.962 50.2638 43.9971 49.6253 44.6355C48.9869 45.2739 47.9518 45.2739 47.3134 44.6355ZM54.6345 45.0208C53.7832 44.1696 53.7832 42.7895 54.6345 41.9383C55.4857 41.0871 56.8658 41.0871 57.717 41.9383C58.5682 42.7895 58.5682 44.1696 57.717 45.0208C56.8658 45.872 55.4857 45.872 54.6345 45.0208ZM54.6345 37.3145C53.7832 36.4632 53.7832 35.0831 54.6345 34.2319C55.4857 33.3807 56.8658 33.3807 57.717 34.2319C58.5682 35.0831 58.5682 36.4632 57.717 37.3145C56.8658 38.1657 55.4857 38.1657 54.6345 37.3145ZM50.7813 41.1676C49.9301 40.3164 49.9301 38.9363 50.7813 38.0851C51.6325 37.2339 53.0126 37.2339 53.8638 38.0851C54.7151 38.9363 54.7151 40.3164 53.8638 41.1676C53.0126 42.0189 51.6325 42.0189 50.7813 41.1676Z" clip-rule="evenodd"/><g style="mix-blend-mode:multiply" opacity=".2"><path fill="#191326" fill-rule="evenodd" d="M63.9 67.8977C77.3746 67.8977 88.2979 56.9745 88.2979 43.4999C88.2979 30.0254 77.3746 19.1021 63.9 19.1021C50.4255 19.1021 39.5022 30.0254 39.5022 43.4999C39.5022 56.9745 50.4255 67.8977 63.9 67.8977ZM63.9 69.5999C78.3147 69.5999 90 57.9145 90 43.4999C90 29.0853 78.3147 17.3999 63.9 17.3999C49.4854 17.3999 37.8 29.0853 37.8 43.4999C37.8 57.9145 49.4854 69.5999 63.9 69.5999Z" clip-rule="evenodd"/></g></g><defs><linearGradient id="paint0_linear" x1="63.454" x2="55.428" y1="52.664" y2="83.331" gradientUnits="userSpaceOnUse"><stop stop-color="#404042"/><stop offset="1" stop-color="#48484B"/></linearGradient><linearGradient id="paint1_linear" x1="27.94" x2="25.041" y1="63.058" y2="73.878" gradientUnits="userSpaceOnUse"><stop stop-color="#404042"/><stop offset="1" stop-color="#48484B"/></linearGradient><linearGradient id="paint2_linear" x1="44.097" x2="53.454" y1="48.101" y2="98.772" gradientUnits="userSpaceOnUse"><stop stop-color="#404042"/><stop offset="1" stop-color="#48484B"/></linearGradient><clipPath id="clip0"><rect width="96" height="96" fill="#fff"/></clipPath></defs></svg>