<svg xmlns="http://www.w3.org/2000/svg" width="96" height="96" fill="none" viewBox="0 0 96 96"><g clip-path="url(#clip0)"><path fill="#606063" d="M28.8271 71.4167C26.9201 78.7035 37.8271 87.8696 53.1884 91.8897C68.5498 95.9098 82.5486 93.2616 84.4556 85.9748C86.3625 78.688 75.4556 69.5219 60.0942 65.5018C44.7328 61.4817 30.7341 64.1299 28.8271 71.4167Z"/><path fill="#606063" d="M82.1547 89.5637L91.408 79.7928L25.7954 62.6218L29.2278 75.7126L82.1547 89.5637Z"/><path fill="#606063" d="M29.9603 64.976L4.84355 58.4028C3.75485 58.1179 2.64762 58.7955 2.40585 59.8946L2.12492 61.1716C1.56511 63.7164 3.0718 66.2601 5.57256 66.9921L30.6598 74.3351L29.9603 64.976Z"/><path fill="url(#paint0_linear)" d="M25.9216 59.2257C23.7054 67.6942 36.9161 78.4866 55.4285 83.3314C73.9409 88.1762 90.7448 85.2386 92.9611 76.7701C95.1773 68.3017 81.9666 57.5092 63.4542 52.6644C44.9417 47.8197 28.1378 50.7573 25.9216 59.2257Z"/><path fill="#606063" fill-rule="evenodd" d="M76.6039 73.9714C80.8628 77.1035 83.3516 80.4912 83.723 83.4942L85.5094 83.2733C85.0465 79.5305 82.0672 75.7549 77.6703 72.5213C73.2364 69.2606 67.2065 66.4328 60.3221 64.6311C53.4377 62.8294 46.7957 62.341 41.3329 63.0117C35.9156 63.6769 31.4688 65.509 29.2318 68.5452L30.6809 69.6129C32.4758 67.1768 36.305 65.4426 41.5522 64.7983C46.7539 64.1596 53.1649 64.6187 59.8664 66.3725C66.5679 68.1263 72.3819 70.8665 76.6039 73.9714Z" clip-rule="evenodd"/><path fill="#979797" fill-rule="evenodd" d="M34.0406 71.2435C28.8082 66.9688 26.8419 62.8188 27.663 59.6814C28.484 56.5441 32.2312 53.8892 38.8868 52.7257C45.3707 51.5922 53.9337 52.0335 62.9984 54.4058C72.0632 56.7781 79.7446 60.588 84.8421 64.7524C90.0745 69.027 92.0408 73.1771 91.2197 76.3144C90.3986 79.4518 86.6515 82.1066 79.9959 83.2701C73.512 84.4036 64.949 83.9623 55.8842 81.59C46.8195 79.2178 39.1381 75.4079 34.0406 71.2435ZM55.4285 83.3314C36.9161 78.4866 23.7054 67.6942 25.9216 59.2257C28.1378 50.7573 44.9417 47.8197 63.4542 52.6644C81.9666 57.5092 95.1773 68.3017 92.9611 76.7701C90.7448 85.2386 73.9409 88.1762 55.4285 83.3314Z" clip-rule="evenodd"/><path fill="url(#paint1_linear)" fill-rule="evenodd" d="M27.1003 74.4294L24.1382 62.9559L25.8811 62.5059L28.8431 73.9794L27.1003 74.4294Z" clip-rule="evenodd"/><path fill="url(#paint2_linear)" fill-rule="evenodd" d="M26.0815 63.7137C26.0545 63.6248 26.0287 63.536 26.0044 63.4474C25.9594 63.2836 25.919 63.1202 25.8831 62.9572L25.7982 62.6332C25.7969 62.6281 25.8015 62.6235 25.8066 62.6248C25.8114 62.6261 25.8159 62.6219 25.8151 62.6169C25.8142 62.6121 25.8133 62.6072 25.8124 62.6024C25.7839 62.443 25.76 62.2841 25.7405 62.1256C25.7358 62.0875 25.7314 62.0495 25.7273 62.0114C25.6839 61.6135 25.6694 61.2184 25.6847 60.827C25.6847 60.8268 25.6847 60.8265 25.6847 60.8263C25.7059 60.2851 25.784 59.7509 25.9215 59.2257C28.1377 50.7572 44.9416 47.8196 63.454 52.6644C81.9665 57.5091 95.1771 68.3016 92.9609 76.7701C92.8235 77.2953 92.6299 77.7993 92.3833 78.2815C92.3831 78.2817 92.383 78.2819 92.3829 78.2821C92.1166 78.8027 91.7884 79.2978 91.4023 79.7669C91.3991 79.7707 91.3959 79.7746 91.3926 79.7785C91.3915 79.7799 91.391 79.7816 91.391 79.7832C91.3911 79.7861 91.393 79.789 91.3963 79.7898C91.3993 79.7906 91.4012 79.7931 91.4015 79.7958C91.4017 79.7978 91.4011 79.7998 91.3996 79.8015L91.0351 80.1863C90.9929 80.2318 90.9501 80.2769 90.9068 80.3219L90.165 81.1051L90.1637 81.1065L83.2761 88.3794C79.1914 93.798 66.7184 95.4303 53.1883 91.8894C39.8068 88.3874 29.8054 80.9804 28.7103 74.3124C28.6543 73.9712 28.42 73.6802 28.0881 73.5831L6.07626 67.1458C3.59005 66.4187 2.08332 63.8994 2.6189 61.365L2.89436 60.0615C3.12823 58.9548 4.23932 58.2679 5.33386 58.5534L25.8831 63.9123C26.0034 63.9436 26.113 63.8339 26.0815 63.7137ZM23.8871 61.5315C23.8489 60.6053 23.9417 59.6808 24.1801 58.7699C25.5753 53.4388 31.3382 50.3907 38.2667 49.1795C45.3669 47.9382 54.4621 48.4506 63.9097 50.923C73.3574 53.3955 81.5376 57.4042 87.1195 61.9644C92.5665 66.4143 96.0974 71.8947 94.7023 77.2258C94.3679 78.5035 93.7707 79.6641 92.9618 80.6991C92.8925 80.8183 92.8076 80.9324 92.7065 81.0392L92.3539 81.4114C92.3519 81.4136 92.3499 81.4157 92.3479 81.4179C92.3018 81.4674 92.2552 81.5166 92.2081 81.5655C92.206 81.5677 92.2039 81.5698 92.2018 81.572L84.6489 89.5475C82.1469 92.7913 77.4335 94.6236 71.9901 95.2812C66.4105 95.9554 59.68 95.4489 52.7326 93.6308C45.8611 91.8325 39.8038 89.0196 35.2857 85.7457C31.038 82.6678 27.8929 78.9889 27.04 75.152L5.57102 68.8734C2.18171 67.8822 0.127671 64.4478 0.85779 60.9929L1.13325 59.6894C1.57951 57.5777 3.69958 56.267 5.78808 56.8116L23.8871 61.5315Z" clip-rule="evenodd"/><circle cx="34.2" cy="17.4" r="17.4" fill="#F0B90B"/><path fill="#FFFDFA" d="M27.7111 17.4L25.0489 20.0807L22.3682 17.4L25.0489 14.7193L27.7111 17.4ZM34.2002 10.9109L38.7851 15.4958L41.4658 12.8151L36.8809 8.24868L34.2002 5.56799L31.5195 8.24868L26.9531 12.8151L29.6338 15.4958L34.2002 10.9109ZM43.3515 14.7193L40.6893 17.4L43.37 20.0807L46.0322 17.4L43.3515 14.7193ZM34.2002 23.8891L29.6153 19.3042L26.9531 21.9849L31.538 26.5698L34.2002 29.232L36.8809 26.5513L41.4658 21.9664L38.7851 19.3042L34.2002 23.8891ZM34.2002 20.0807L36.8809 17.4L34.2002 14.7193L31.5195 17.4L34.2002 20.0807Z"/><g style="mix-blend-mode:multiply" opacity=".1"><path fill="#191326" fill-rule="evenodd" d="M34.2001 33C42.8157 33 49.8 26.0156 49.8 17.4C49.8 8.78436 42.8157 1.8 34.2001 1.8C25.5844 1.8 18.6 8.78436 18.6 17.4C18.6 26.0156 25.5844 33 34.2001 33ZM34.2001 34.8C43.8098 34.8 51.6001 27.0098 51.6001 17.4C51.6001 7.79025 43.8098 0 34.2001 0C24.5903 0 16.8 7.79025 16.8 17.4C16.8 27.0098 24.5903 34.8 34.2001 34.8Z" clip-rule="evenodd"/></g><path fill="#151A2F" d="M63.9 17.4C78.3155 17.4 90 29.0846 90 43.5C90 57.9155 78.3155 69.6 63.9 69.6C49.4846 69.6 37.8 57.9155 37.8 43.5C37.8 29.0846 49.4846 17.4 63.9 17.4Z"/><path fill="#734CE2" d="M63.8105 62.9744C64.5275 62.9744 65.1088 62.3931 65.1088 61.6761C65.1088 60.9591 64.5275 60.3778 63.8105 60.3778C63.0935 60.3778 62.5122 60.9591 62.5122 61.6761C62.5122 62.3931 63.0935 62.9744 63.8105 62.9744Z"/><path fill="#734CE2" d="M48.2311 35.6656C48.9474 35.6656 49.5294 35.0836 49.5294 34.3673C49.5294 34.3494 49.5294 34.3315 49.5294 34.3225L55.1344 30.8396C55.3762 31.1082 55.7164 31.2783 56.1104 31.2783C56.4685 31.2783 56.7909 31.135 57.0237 30.9022L62.2526 34.242C62.2526 34.2867 62.2437 34.3225 62.2437 34.3673C62.2437 35.2358 62.9421 35.9342 63.8106 35.9342C64.6791 35.9342 65.3775 35.2358 65.3775 34.3673C65.3775 34.3405 65.3775 34.3136 65.3775 34.2867L70.7944 31.0097C71.0272 31.2335 71.3406 31.3768 71.6898 31.3768C72.4061 31.3768 72.9881 30.7948 72.9881 30.0785C72.9881 29.3622 72.4061 28.7802 71.6898 28.7802C70.9825 28.7802 70.4094 29.3443 70.3915 30.0427L70.3736 30.0069L64.9477 33.2929C64.6612 32.9974 64.2582 32.8094 63.8106 32.8094C63.3808 32.8094 62.9868 32.9884 62.7003 33.266L57.3997 29.8815C57.346 29.2189 56.7909 28.6907 56.1104 28.6907C55.4657 28.6907 54.9375 29.1563 54.83 29.7741L49.0459 33.3645C48.8221 33.1854 48.5356 33.078 48.2311 33.078C47.5149 33.078 46.9329 33.66 46.9329 34.3763C46.9329 35.0926 47.5149 35.6656 48.2311 35.6656Z"/><path fill="#734CE2" d="M63.8105 26.5329C64.5275 26.5329 65.1088 25.9516 65.1088 25.2346C65.1088 24.5175 64.5275 23.9363 63.8105 23.9363C63.0935 23.9363 62.5122 24.5175 62.5122 25.2346C62.5122 25.9516 63.0935 26.5329 63.8105 26.5329Z"/><path fill="#734CE2" d="M79.4795 42.1123C78.7632 42.1123 78.1812 42.6943 78.1812 43.4106C78.1812 43.4643 78.1902 43.527 78.1902 43.5807L72.8359 46.822C72.5494 46.5175 72.1464 46.3206 71.6898 46.3206C71.1705 46.3206 70.7139 46.5713 70.4273 46.9563L65.8251 44.0105C65.8878 43.8225 65.9147 43.6165 65.9147 43.4106C65.9147 43.2315 65.8878 43.0614 65.852 42.9002L70.6422 39.9992C70.9198 40.2499 71.2869 40.4111 71.6898 40.4111C72.5583 40.4111 73.2567 39.7127 73.2567 38.8442C73.2567 38.7726 73.2477 38.7099 73.2388 38.6472L78.6468 35.3702C78.8707 35.5582 79.1572 35.6657 79.4706 35.6657C80.1869 35.6657 80.7688 35.0837 80.7688 34.3674C80.7688 33.6511 80.1869 33.0691 79.4706 33.0691C78.7543 33.0691 78.1723 33.6511 78.1723 34.3674C78.1723 34.3763 78.1723 34.3853 78.1723 34.3942L72.7374 37.6892C72.4598 37.4295 72.0927 37.2773 71.6808 37.2773C70.8123 37.2773 70.114 37.9757 70.114 38.8442C70.114 38.9159 70.1229 38.9785 70.1319 39.0502L65.3058 41.9691C64.9387 41.6109 64.4463 41.396 63.8911 41.396C63.2823 41.396 62.7361 41.6646 62.369 42.0944L57.4087 38.9159C57.4087 38.889 57.4087 38.8711 57.4087 38.8442C57.4087 37.9757 56.7103 37.2773 55.8418 37.2773C54.9733 37.2773 54.2749 37.9757 54.2749 38.8442C54.2749 38.9696 54.2928 39.0949 54.3197 39.2113L49.1086 42.4526C48.8758 42.2377 48.5714 42.1123 48.2311 42.1123C47.5149 42.1123 46.9329 42.6943 46.9329 43.4106C46.9329 44.1269 47.5149 44.7089 48.2311 44.7089C48.9385 44.7089 49.5026 44.1538 49.5294 43.4554L54.9195 40.1067C55.1792 40.2947 55.5015 40.4111 55.8418 40.4111C56.2895 40.4111 56.6924 40.2231 56.9789 39.9187L61.9124 43.0704C61.8945 43.1778 61.8855 43.2942 61.8855 43.4106C61.8855 43.6165 61.9124 43.8135 61.9751 44.0015L57.2744 46.8488C56.9879 46.5265 56.576 46.3295 56.1104 46.3295C55.2419 46.3295 54.5435 47.0279 54.5435 47.8964C54.5435 47.968 54.5524 48.0486 54.5614 48.1202L49.1086 51.5047C48.8758 51.2898 48.5714 51.1645 48.2311 51.1645C47.5149 51.1645 46.9329 51.7465 46.9329 52.4628C46.9329 53.1791 47.5149 53.7611 48.2311 53.7611C48.9385 53.7611 49.5026 53.2059 49.5294 52.5075L55.0718 49.0693C55.3493 49.32 55.7164 49.4633 56.1104 49.4633C56.9789 49.4633 57.6773 48.7649 57.6773 47.8964C57.6773 47.8874 57.6773 47.8785 57.6773 47.8695L62.5481 44.9148C62.9062 45.2372 63.3808 45.4341 63.9001 45.4341C64.4105 45.4341 64.885 45.2372 65.2431 44.9238L70.1319 48.0486C70.2124 48.8455 70.875 49.4633 71.6898 49.4633C72.5583 49.4633 73.2567 48.7649 73.2567 47.8964C73.2567 47.8785 73.2567 47.8516 73.2567 47.8337L78.7632 44.503C78.9692 44.6373 79.2199 44.7178 79.4795 44.7178C80.1958 44.7178 80.7778 44.1359 80.7778 43.4196C80.7778 42.7033 80.1958 42.1123 79.4795 42.1123Z"/><path fill="#734CE2" d="M79.4795 51.1555C78.7722 51.1555 78.1991 51.7196 78.1812 52.4269L72.3971 55.9278C72.1912 55.7935 71.9494 55.7219 71.6898 55.7219C71.3943 55.7219 71.1257 55.8204 70.9108 55.9815L65.3774 52.4448C65.3774 52.418 65.3774 52.3911 65.3774 52.3643C65.3774 51.4958 64.6791 50.7974 63.8105 50.7974C62.942 50.7974 62.2437 51.4958 62.2437 52.3643C62.2437 52.4717 62.2526 52.5791 62.2795 52.6776L56.9341 55.9189C56.7103 55.7398 56.4238 55.6324 56.1193 55.6324C55.403 55.6324 54.821 56.2143 54.821 56.9306C54.821 57.6469 55.403 58.2289 56.1193 58.2289C56.8356 58.2289 57.4176 57.6469 57.4176 56.9306C57.4176 56.9127 57.4176 56.8948 57.4176 56.8859L62.8525 53.5909C63.1211 53.7968 63.4524 53.9312 63.8195 53.9312C64.2672 53.9312 64.6701 53.7431 64.9566 53.4477L70.4094 56.9306C70.4094 56.9575 70.4005 56.9933 70.4005 57.0202C70.4005 57.7365 70.9825 58.3185 71.6987 58.3185C72.415 58.3185 72.997 57.7365 72.997 57.0202C72.997 56.9575 72.9881 56.8948 72.9791 56.8411L78.6199 53.4208C78.8527 53.6267 79.1482 53.7521 79.4795 53.7521C80.1958 53.7521 80.7778 53.1701 80.7778 52.4538C80.7778 51.7375 80.1958 51.1555 79.4795 51.1555Z"/><g style="mix-blend-mode:multiply" opacity=".2"><path fill="#191326" fill-rule="evenodd" d="M63.9 67.8979C77.3746 67.8979 88.2979 56.9746 88.2979 43.5C88.2979 30.0255 77.3746 19.1022 63.9 19.1022C50.4255 19.1022 39.5022 30.0255 39.5022 43.5C39.5022 56.9746 50.4255 67.8979 63.9 67.8979ZM63.9 69.6C78.3147 69.6 90 57.9147 90 43.5C90 29.0854 78.3147 17.4 63.9 17.4C49.4854 17.4 37.8 29.0854 37.8 43.5C37.8 57.9147 49.4854 69.6 63.9 69.6Z" clip-rule="evenodd"/></g></g><defs><linearGradient id="paint0_linear" x1="63.454" x2="55.428" y1="52.664" y2="83.331" gradientUnits="userSpaceOnUse"><stop stop-color="#404042"/><stop offset="1" stop-color="#48484B"/></linearGradient><linearGradient id="paint1_linear" x1="27.94" x2="25.041" y1="63.058" y2="73.878" gradientUnits="userSpaceOnUse"><stop stop-color="#404042"/><stop offset="1" stop-color="#48484B"/></linearGradient><linearGradient id="paint2_linear" x1="44.097" x2="53.454" y1="48.101" y2="98.772" gradientUnits="userSpaceOnUse"><stop stop-color="#404042"/><stop offset="1" stop-color="#48484B"/></linearGradient><clipPath id="clip0"><rect width="96" height="96" fill="#fff"/></clipPath></defs></svg>