<svg xmlns="http://www.w3.org/2000/svg" width="96" height="96" fill="none" viewBox="0 0 96 96"><g clip-path="url(#clip0)"><path fill="#606063" d="M28.8272 71.4167C26.9202 78.7035 37.8272 87.8696 53.1886 91.8897C68.5499 95.9098 82.5487 93.2616 84.4557 85.9748C86.3627 78.688 75.4557 69.5219 60.0943 65.5018C44.733 61.4817 30.7342 64.1299 28.8272 71.4167Z"/><path fill="#606063" d="M82.1546 89.5637L91.4078 79.7928L25.7953 62.6218L29.2277 75.7126L82.1546 89.5637Z"/><path fill="#606063" d="M29.9602 64.976L4.84342 58.4028C3.75473 58.1179 2.6475 58.7955 2.40573 59.8946L2.1248 61.1716C1.56499 63.7164 3.07167 66.2601 5.57244 66.9921L30.6596 74.3351L29.9602 64.976Z"/><path fill="url(#paint0_linear)" d="M25.9216 59.2256C23.7054 67.6941 36.9161 78.4866 55.4285 83.3313C73.9409 88.1761 90.7448 85.2385 92.9611 76.7701C95.1773 68.3016 81.9666 57.5091 63.4542 52.6644C44.9417 47.8196 28.1378 50.7572 25.9216 59.2256Z"/><path fill="#606063" fill-rule="evenodd" d="M76.6038 73.9714C80.8627 77.1035 83.3515 80.4912 83.7229 83.4942L85.5093 83.2733C85.0464 79.5305 82.0671 75.7549 77.6702 72.5213C73.2362 69.2606 67.2064 66.4328 60.322 64.6311C53.4376 62.8294 46.7956 62.341 41.3327 63.0117C35.9155 63.6769 31.4687 65.509 29.2317 68.5452L30.6808 69.6129C32.4757 67.1768 36.3049 65.4426 41.5521 64.7983C46.7538 64.1596 53.1648 64.6187 59.8663 66.3725C66.5678 68.1263 72.3818 70.8665 76.6038 73.9714Z" clip-rule="evenodd"/><path fill="#979797" fill-rule="evenodd" d="M34.0406 71.2434C28.8082 66.9688 26.8419 62.8187 27.663 59.6814C28.484 56.544 32.2312 53.8892 38.8868 52.7257C45.3707 51.5922 53.9337 52.0334 62.9984 54.4057C72.0632 56.778 79.7446 60.5879 84.8421 64.7523C90.0745 69.0269 92.0408 73.177 91.2197 76.3144C90.3986 79.4517 86.6515 82.1065 79.9959 83.2701C73.512 84.4035 64.949 83.9623 55.8842 81.59C46.8195 79.2177 39.1381 75.4078 34.0406 71.2434ZM55.4285 83.3313C36.9161 78.4866 23.7054 67.6941 25.9216 59.2256C28.1378 50.7572 44.9417 47.8196 63.4542 52.6644C81.9666 57.5091 95.1773 68.3016 92.9611 76.7701C90.7448 85.2385 73.9409 88.1761 55.4285 83.3313Z" clip-rule="evenodd"/><path fill="url(#paint1_linear)" fill-rule="evenodd" d="M27.1004 74.4294L24.1383 62.9559L25.8812 62.506L28.8433 73.9795L27.1004 74.4294Z" clip-rule="evenodd"/><path fill="url(#paint2_linear)" fill-rule="evenodd" d="M26.0816 63.7137C26.0546 63.6249 26.0289 63.5361 26.0045 63.4474C25.9595 63.2837 25.9191 63.1203 25.8833 62.9573L25.7983 62.6332C25.797 62.6282 25.8016 62.6235 25.8067 62.6249C25.8115 62.6261 25.8161 62.6219 25.8152 62.617C25.8143 62.6121 25.8134 62.6073 25.8126 62.6024C25.7841 62.4431 25.7601 62.2841 25.7406 62.1256C25.736 62.0876 25.7316 62.0495 25.7274 62.0115C25.6841 61.6135 25.6695 61.2185 25.6848 60.8271C25.6848 60.8268 25.6848 60.8266 25.6849 60.8263C25.706 60.2852 25.7842 59.751 25.9216 59.2257C28.1378 50.7573 44.9417 47.8197 63.4541 52.6645C81.9666 57.5092 95.1773 68.3017 92.961 76.7702C92.8236 77.2954 92.63 77.7994 92.3834 78.2815C92.3833 78.2817 92.3832 78.2819 92.3831 78.2821C92.1167 78.8027 91.7885 79.2979 91.4024 79.7669C91.3992 79.7708 91.396 79.7747 91.3928 79.7786C91.3916 79.78 91.3911 79.7816 91.3911 79.7832C91.3912 79.7862 91.3932 79.789 91.3964 79.7899C91.3994 79.7907 91.4013 79.7932 91.4016 79.7959C91.4018 79.7978 91.4012 79.7999 91.3997 79.8015L91.0352 80.1864C90.993 80.2318 90.9502 80.277 90.9069 80.3219L90.1651 81.1052L90.1638 81.1065L83.2762 88.3795C79.1915 93.7981 66.7185 95.4304 53.1885 91.8895C39.8069 88.3875 29.8055 80.9805 28.7104 74.3125C28.6544 73.9712 28.4201 73.6802 28.0882 73.5832L6.07638 67.1458C3.59017 66.4187 2.08344 63.8995 2.61902 61.3651L2.89448 60.0616C3.12835 58.9549 4.23944 58.268 5.33398 58.5534L25.8833 63.9123C26.0036 63.9437 26.1131 63.834 26.0816 63.7137ZM23.8872 61.5316C23.8491 60.6054 23.9419 59.6809 24.1803 58.77C25.5754 53.4389 31.3383 50.3907 38.2668 49.1795C45.367 47.9383 54.4622 48.4506 63.9099 50.9231C73.3575 53.3956 81.5377 57.4043 87.1196 61.9645C92.5666 66.4144 96.0976 71.8948 94.7024 77.2259C94.368 78.5036 93.7709 79.6642 92.962 80.6992C92.8926 80.8184 92.8077 80.9325 92.7066 81.0392L92.354 81.4115C92.352 81.4136 92.35 81.4158 92.348 81.418C92.3019 81.4675 92.2553 81.5167 92.2082 81.5655C92.2061 81.5677 92.204 81.5699 92.2019 81.5721L84.6491 89.5476C82.147 92.7913 77.4336 94.6236 71.9903 95.2813C66.4106 95.9554 59.6801 95.449 52.7328 93.6308C45.8612 91.8325 39.8039 89.0196 35.2858 85.7458C31.0381 82.6679 27.893 78.989 27.0401 75.152L5.57114 68.8735C2.18183 67.8823 0.127793 64.4479 0.857912 60.9929L1.13337 59.6894C1.57963 57.5777 3.6997 56.267 5.7882 56.8117L23.8872 61.5316Z" clip-rule="evenodd"/><circle cx="34.2" cy="17.4" r="17.4" fill="#F0B90B"/><path fill="#FFFDFA" d="M27.7108 17.4L25.0486 20.0807L22.3679 17.4L25.0486 14.7193L27.7108 17.4ZM34.1999 10.9109L38.7848 15.4958L41.4655 12.8151L36.8806 8.24868L34.1999 5.56799L31.5192 8.24868L26.9528 12.8151L29.6335 15.4958L34.1999 10.9109ZM43.3512 14.7193L40.689 17.4L43.3697 20.0807L46.0319 17.4L43.3512 14.7193ZM34.1999 23.8891L29.615 19.3042L26.9528 21.9849L31.5377 26.5698L34.1999 29.232L36.8806 26.5513L41.4655 21.9664L38.7848 19.3042L34.1999 23.8891ZM34.1999 20.0807L36.8806 17.4L34.1999 14.7193L31.5192 17.4L34.1999 20.0807Z"/><g style="mix-blend-mode:multiply" opacity=".1"><path fill="#191326" fill-rule="evenodd" d="M34.2001 33C42.8157 33 49.8 26.0156 49.8 17.4C49.8 8.78436 42.8157 1.8 34.2001 1.8C25.5844 1.8 18.6 8.78436 18.6 17.4C18.6 26.0156 25.5844 33 34.2001 33ZM34.2001 34.8C43.8098 34.8 51.6001 27.0098 51.6001 17.4C51.6001 7.79025 43.8098 0 34.2001 0C24.5903 0 16.8 7.79025 16.8 17.4C16.8 27.0098 24.5903 34.8 34.2001 34.8Z" clip-rule="evenodd"/></g><path fill="#fff" d="M63.9 69.6C78.3147 69.6 90 57.9147 90 43.5C90 29.0854 78.3147 17.4 63.9 17.4C49.4854 17.4 37.8 29.0854 37.8 43.5C37.8 57.9147 49.4854 69.6 63.9 69.6Z"/><path fill="#7EB53E" d="M66.9451 41.76L63.9001 37.845V26.1L66.9451 27.405V41.76Z"/><path fill="#7EB53E" d="M71.7301 53.07L71.5126 30.2325H74.3401V50.46C74.3401 51.765 73.2526 53.07 71.7301 53.07Z"/><path fill="#7EB53E" d="M74.3401 33.2776L63.9001 28.7101V25.6651L74.3401 30.2326V33.2776Z"/><path fill="#7EB53E" d="M56.2879 56.7677H53.4604V35.4527C53.4604 33.9302 54.7654 32.8427 56.0704 32.8427H56.2879V56.7677Z"/><path fill="#7EB53E" d="M63.9005 61.3352L53.4604 56.7677V53.7227L63.9005 58.2902V61.3352Z"/><path fill="#7EB53E" d="M63.9005 61.3351L61.073 60.0301V49.3726L63.9005 53.5051V61.3351Z"/><path fill="#7EB53E" d="M55.8531 37.1927L56.2881 32.8427L66.2931 46.5452L71.7306 49.8077V53.0965L64.1181 48.5027L55.8531 37.1927Z"/><g style="mix-blend-mode:multiply" opacity=".2"><path fill="#191326" fill-rule="evenodd" d="M63.9 67.8979C77.3746 67.8979 88.2979 56.9746 88.2979 43.5C88.2979 30.0255 77.3746 19.1022 63.9 19.1022C50.4255 19.1022 39.5022 30.0255 39.5022 43.5C39.5022 56.9746 50.4255 67.8979 63.9 67.8979ZM63.9 69.6C78.3147 69.6 90 57.9147 90 43.5C90 29.0854 78.3147 17.4 63.9 17.4C49.4854 17.4 37.8 29.0854 37.8 43.5C37.8 57.9147 49.4854 69.6 63.9 69.6Z" clip-rule="evenodd"/></g></g><defs><linearGradient id="paint0_linear" x1="63.454" x2="55.428" y1="52.664" y2="83.331" gradientUnits="userSpaceOnUse"><stop stop-color="#404042"/><stop offset="1" stop-color="#48484B"/></linearGradient><linearGradient id="paint1_linear" x1="27.94" x2="25.041" y1="63.058" y2="73.878" gradientUnits="userSpaceOnUse"><stop stop-color="#404042"/><stop offset="1" stop-color="#48484B"/></linearGradient><linearGradient id="paint2_linear" x1="44.097" x2="53.454" y1="48.101" y2="98.772" gradientUnits="userSpaceOnUse"><stop stop-color="#404042"/><stop offset="1" stop-color="#48484B"/></linearGradient><clipPath id="clip0"><rect width="96" height="96" fill="#fff"/></clipPath></defs></svg>