<svg width="96" height="96" viewBox="0 0 96 96" fill="none" xmlns="http://www.w3.org/2000/svg">
<g clip-path="url(#clip0)">
<path d="M28.8271 71.4166C26.9201 78.7034 37.8271 87.8694 53.1884 91.8896C68.5498 95.9097 82.5486 93.2615 84.4556 85.9747C86.3625 78.6879 75.4556 69.5218 60.0942 65.5017C44.7328 61.4816 30.7341 64.1298 28.8271 71.4166Z" fill="#606063"/>
<path d="M82.1547 89.5636L91.408 79.7927L25.7954 62.6217L29.2278 75.7125L82.1547 89.5636Z" fill="#606063"/>
<path d="M29.9603 64.9761L4.84357 58.403C3.75488 58.1181 2.64765 58.7956 2.40588 59.8947L2.12495 61.1717C1.56514 63.7166 3.07182 66.2602 5.57259 66.9922L30.6598 74.3352L29.9603 64.9761Z" fill="#606063"/>
<path d="M25.9216 59.2256C23.7054 67.694 36.9161 78.4865 55.4285 83.3313C73.941 88.176 90.7448 85.2385 92.9611 76.77C95.1773 68.3016 81.9666 57.5091 63.4542 52.6643C44.9417 47.8196 28.1378 50.7571 25.9216 59.2256Z" fill="url(#paint0_linear)"/>
<path fill-rule="evenodd" clip-rule="evenodd" d="M76.6039 73.9714C80.8628 77.1035 83.3516 80.4912 83.723 83.4942L85.5094 83.2732C85.0465 79.5305 82.0672 75.7549 77.6703 72.5213C73.2364 69.2606 67.2065 66.4328 60.3221 64.6311C53.4377 62.8294 46.7957 62.341 41.3329 63.0117C35.9156 63.6769 31.4688 65.509 29.2318 68.5452L30.6809 69.6129C32.4758 67.1768 36.305 65.4426 41.5522 64.7983C46.7539 64.1596 53.1649 64.6187 59.8664 66.3725C66.5679 68.1263 72.3819 70.8665 76.6039 73.9714Z" fill="#606063"/>
<path fill-rule="evenodd" clip-rule="evenodd" d="M34.0406 71.2434C28.8082 66.9687 26.8419 62.8187 27.663 59.6813C28.484 56.544 32.2312 53.8891 38.8868 52.7256C45.3707 51.5921 53.9337 52.0334 62.9984 54.4057C72.0632 56.778 79.7446 60.5879 84.8421 64.7522C90.0745 69.0269 92.0408 73.1769 91.2197 76.3143C90.3986 79.4516 86.6515 82.1065 79.9959 83.27C73.512 84.4035 64.949 83.9622 55.8842 81.5899C46.8195 79.2176 39.1381 75.4077 34.0406 71.2434ZM55.4285 83.3313C36.9161 78.4865 23.7054 67.694 25.9216 59.2256C28.1378 50.7571 44.9417 47.8196 63.4542 52.6643C81.9666 57.5091 95.1773 68.3016 92.9611 76.77C90.7448 85.2385 73.941 88.176 55.4285 83.3313Z" fill="#979797"/>
<path fill-rule="evenodd" clip-rule="evenodd" d="M27.1005 74.4294L24.1384 62.9559L25.8813 62.5059L28.8434 73.9794L27.1005 74.4294Z" fill="url(#paint1_linear)"/>
<path fill-rule="evenodd" clip-rule="evenodd" d="M26.0815 63.7138C26.0545 63.6249 26.0287 63.5362 26.0044 63.4475C25.9594 63.2838 25.919 63.1204 25.8831 62.9573L25.7982 62.6333C25.7969 62.6282 25.8015 62.6236 25.8066 62.6249C25.8114 62.6262 25.8159 62.622 25.8151 62.617C25.8142 62.6122 25.8133 62.6073 25.8124 62.6025C25.7839 62.4431 25.76 62.2842 25.7405 62.1257C25.7358 62.0876 25.7314 62.0496 25.7273 62.0115C25.6839 61.6136 25.6694 61.2186 25.6847 60.8272C25.6847 60.8269 25.6847 60.8267 25.6847 60.8264C25.7059 60.2852 25.784 59.751 25.9215 59.2258C28.1377 50.7573 44.9416 47.8198 63.454 52.6645C81.9665 57.5093 95.1771 68.3018 92.9609 76.7702C92.8235 77.2955 92.6299 77.7994 92.3833 78.2816C92.3831 78.2818 92.383 78.282 92.3829 78.2822C92.1166 78.8028 91.7884 79.2979 91.4023 79.767C91.3991 79.7709 91.3959 79.7748 91.3926 79.7787C91.3915 79.78 91.391 79.7817 91.391 79.7833C91.3911 79.7863 91.393 79.7891 91.3963 79.79C91.3993 79.7907 91.4012 79.7932 91.4015 79.796C91.4017 79.7979 91.4011 79.8 91.3996 79.8016L91.0351 80.1865C90.9929 80.2319 90.9501 80.2771 90.9068 80.322L90.165 81.1053L90.1637 81.1066L83.2761 88.3796C79.1914 93.7981 66.7184 95.4304 53.1883 91.8896C39.8068 88.3875 29.8054 80.9805 28.7103 74.3125C28.6543 73.9713 28.42 73.6803 28.0881 73.5832L6.07626 67.1459C3.59005 66.4188 2.08332 63.8995 2.6189 61.3652L2.89435 60.0617C3.12823 58.955 4.23932 58.2681 5.33386 58.5535L25.8831 63.9124C26.0034 63.9438 26.113 63.834 26.0815 63.7138ZM23.8871 61.5317C23.8489 60.6054 23.9417 59.681 24.1801 58.7701C25.5753 53.439 31.3382 50.3908 38.2667 49.1796C45.3669 47.9384 54.4621 48.4507 63.9097 50.9232C73.3574 53.3956 81.5376 57.4044 87.1195 61.9645C92.5665 66.4144 96.0974 71.8948 94.7023 77.2259C94.3679 78.5036 93.7707 79.6642 92.9618 80.6992C92.8925 80.8184 92.8076 80.9325 92.7065 81.0393L92.3539 81.4115C92.3519 81.4137 92.3499 81.4159 92.3479 81.418C92.3018 81.4675 92.2552 81.5167 92.2081 81.5656C92.206 81.5678 92.2039 81.5699 92.2018 81.5721L84.6489 89.5476C82.1469 92.7914 77.4335 94.6237 71.9901 95.2813C66.4105 95.9555 59.68 95.4491 52.7326 93.6309C45.8611 91.8326 39.8038 89.0197 35.2857 85.7459C31.038 82.6679 27.8929 78.989 27.04 75.1521L5.57102 68.8735C2.18171 67.8823 0.127671 64.448 0.85779 60.993L1.13325 59.6895C1.57951 57.5778 3.69958 56.2671 5.78808 56.8117L23.8871 61.5317Z" fill="url(#paint2_linear)"/>
<circle cx="34.2001" cy="17.4" r="17.4" fill="#F0B90B"/>
<path fill-rule="evenodd" clip-rule="evenodd" d="M26.7947 12.9806L34.2071 5.56812L37.1627 8.52366L29.7502 15.9361L26.7947 12.9806ZM26.8001 21.8381L38.6459 9.99235L41.6014 12.9479L29.7557 24.7937L26.8001 21.8381ZM43.076 14.431L31.2303 26.2768L34.1858 29.2323L46.0316 17.3866L43.076 14.431ZM22.3679 17.4063L25.3235 14.4508L28.279 17.4063L25.3235 20.3619L22.3679 17.4063Z" fill="#FFFDFA"/>
<g style="mix-blend-mode:multiply" opacity="0.1">
<path fill-rule="evenodd" clip-rule="evenodd" d="M34.2001 33C42.8157 33 49.8 26.0156 49.8 17.4C49.8 8.78436 42.8157 1.8 34.2001 1.8C25.5844 1.8 18.6 8.78436 18.6 17.4C18.6 26.0156 25.5844 33 34.2001 33ZM34.2001 34.8C43.8098 34.8 51.6001 27.0098 51.6001 17.4C51.6001 7.79025 43.8098 0 34.2001 0C24.5903 0 16.8 7.79025 16.8 17.4C16.8 27.0098 24.5903 34.8 34.2001 34.8Z" fill="#191326"/>
</g>
<path d="M63.9 69.5999C49.4876 69.5999 37.8 57.9123 37.8 43.4999C37.8 29.0875 49.4876 17.3999 63.9 17.3999C78.3125 17.3999 90 29.0875 90 43.4999C90 57.9123 78.3125 69.5999 63.9 69.5999Z" fill="url(#paint3_linear)"/>
<path d="M81.6271 42.0905C81.6271 38.9794 79.1006 36.4529 75.9895 36.4529C74.7054 36.4529 73.4526 36.8966 72.4556 37.7005C71.6465 38.353 71.5212 39.5327 72.1737 40.3418C72.8262 41.1509 74.0059 41.2762 74.815 40.6237C75.0499 40.4357 75.4466 40.2113 75.9947 40.2113C77.0335 40.2113 77.8739 41.0517 77.8739 42.0905C77.8739 43.1293 77.0335 43.9697 75.9947 43.9697C74.9559 43.9697 74.1155 44.8101 74.1155 45.8489C74.1155 46.8877 74.9559 47.7281 75.9947 47.7281C77.0335 47.7281 77.8739 48.5685 77.8739 49.6073C77.8739 50.6461 77.0335 51.4865 75.9947 51.4865C75.9634 51.4865 75.9321 51.4865 75.906 51.4865C75.8746 51.4865 75.8433 51.4865 75.8172 51.4865H57.9335C57.9283 51.4865 57.9283 51.4865 57.9231 51.4865C57.9179 51.4865 57.9178 51.4865 57.9126 51.4865C53.5069 51.4865 49.926 47.9056 49.926 43.4999C49.926 39.0942 53.5069 35.5133 57.9126 35.5133C62.3183 35.5133 65.8992 39.0942 65.8992 43.4999C65.8992 44.831 65.5652 46.1464 64.9388 47.3053C64.4429 48.2188 64.7821 49.3567 65.6904 49.8526C65.9775 50.0092 66.2803 50.0823 66.5883 50.0823C67.2564 50.0823 67.8985 49.7273 68.243 49.1009C69.1722 47.394 69.6629 45.4574 69.6629 43.4999C69.6629 40.3627 68.4414 37.4134 66.2229 35.1949C64.0044 32.9764 61.0551 31.7549 57.9179 31.7549C54.7806 31.7549 51.8313 32.9764 49.6128 35.1949C47.3943 37.4134 46.1729 40.3627 46.1729 43.4999C46.1729 46.6371 47.3943 49.5864 49.6128 51.8049C51.8313 54.0234 54.7806 55.2449 57.9179 55.2449C57.9231 55.2449 57.9231 55.2449 57.9283 55.2449C57.9335 55.2449 57.9335 55.2449 57.9387 55.2449H75.8225C75.8538 55.2449 75.8851 55.2449 75.9112 55.2449C75.9425 55.2449 75.9738 55.2449 75.9999 55.2449C79.111 55.2449 81.6375 52.7184 81.6375 49.6073C81.6375 48.1666 81.0947 46.8459 80.1968 45.8489C81.0842 44.8519 81.6271 43.5312 81.6271 42.0905Z" fill="white"/>
<g style="mix-blend-mode:multiply" opacity="0.2">
<path fill-rule="evenodd" clip-rule="evenodd" d="M63.9 67.8977C77.3746 67.8977 88.2979 56.9745 88.2979 43.4999C88.2979 30.0254 77.3746 19.1021 63.9 19.1021C50.4255 19.1021 39.5022 30.0254 39.5022 43.4999C39.5022 56.9745 50.4255 67.8977 63.9 67.8977ZM63.9 69.5999C78.3147 69.5999 90 57.9145 90 43.4999C90 29.0853 78.3147 17.3999 63.9 17.3999C49.4854 17.3999 37.8 29.0853 37.8 43.4999C37.8 57.9145 49.4854 69.5999 63.9 69.5999Z" fill="#191326"/>
</g>
</g>
<defs>
<linearGradient id="paint0_linear" x1="63.4542" y1="52.6643" x2="55.4285" y2="83.3313" gradientUnits="userSpaceOnUse">
<stop stop-color="#404042"/>
<stop offset="1" stop-color="#48484B"/>
</linearGradient>
<linearGradient id="paint1_linear" x1="27.9405" y1="63.0577" x2="25.0413" y2="73.8776" gradientUnits="userSpaceOnUse">
<stop stop-color="#404042"/>
<stop offset="1" stop-color="#48484B"/>
</linearGradient>
<linearGradient id="paint2_linear" x1="44.0969" y1="48.1013" x2="53.4537" y2="98.7723" gradientUnits="userSpaceOnUse">
<stop stop-color="#404042"/>
<stop offset="1" stop-color="#48484B"/>
</linearGradient>
<linearGradient id="paint3_linear" x1="76.9503" y1="66.1073" x2="50.846" y2="20.8932" gradientUnits="userSpaceOnUse">
<stop stop-color="#00AF92"/>
<stop offset="1" stop-color="#46B069"/>
</linearGradient>
<clipPath id="clip0">
<rect width="96" height="96" fill="white"/>
</clipPath>
</defs>
</svg>
