<svg xmlns="http://www.w3.org/2000/svg" width="96" height="96" fill="none" viewBox="0 0 96 96"><g clip-path="url(#clip0)"><path fill="#606063" d="M28.8271 71.4167C26.9201 78.7035 37.8271 87.8696 53.1884 91.8897C68.5498 95.9098 82.5486 93.2616 84.4556 85.9748C86.3625 78.688 75.4556 69.5219 60.0942 65.5018C44.7328 61.4817 30.7341 64.1299 28.8271 71.4167Z"/><path fill="#606063" d="M82.1547 89.5637L91.408 79.7928L25.7954 62.6218L29.2278 75.7126L82.1547 89.5637Z"/><path fill="#606063" d="M29.9603 64.976L4.84355 58.4028C3.75485 58.1179 2.64762 58.7955 2.40585 59.8946L2.12492 61.1716C1.56511 63.7164 3.0718 66.2601 5.57256 66.9921L30.6598 74.3351L29.9603 64.976Z"/><path fill="url(#paint0_linear)" d="M25.9216 59.2257C23.7054 67.6942 36.9161 78.4866 55.4285 83.3314C73.9409 88.1762 90.7448 85.2386 92.9611 76.7701C95.1773 68.3017 81.9666 57.5092 63.4542 52.6644C44.9417 47.8197 28.1378 50.7573 25.9216 59.2257Z"/><path fill="#606063" fill-rule="evenodd" d="M76.6039 73.9714C80.8628 77.1035 83.3516 80.4912 83.723 83.4942L85.5094 83.2733C85.0465 79.5305 82.0672 75.7549 77.6703 72.5213C73.2364 69.2606 67.2065 66.4328 60.3221 64.6311C53.4377 62.8294 46.7957 62.341 41.3329 63.0117C35.9156 63.6769 31.4688 65.509 29.2318 68.5452L30.6809 69.6129C32.4758 67.1768 36.305 65.4426 41.5522 64.7983C46.7539 64.1596 53.1649 64.6187 59.8664 66.3725C66.5679 68.1263 72.3819 70.8665 76.6039 73.9714Z" clip-rule="evenodd"/><path fill="#979797" fill-rule="evenodd" d="M34.0406 71.2435C28.8082 66.9688 26.8419 62.8188 27.663 59.6814C28.484 56.5441 32.2312 53.8892 38.8868 52.7257C45.3707 51.5922 53.9337 52.0335 62.9984 54.4058C72.0632 56.7781 79.7446 60.588 84.8421 64.7524C90.0745 69.027 92.0408 73.1771 91.2197 76.3144C90.3986 79.4518 86.6515 82.1066 79.9959 83.2701C73.512 84.4036 64.949 83.9623 55.8842 81.59C46.8195 79.2178 39.1381 75.4079 34.0406 71.2435ZM55.4285 83.3314C36.9161 78.4866 23.7054 67.6942 25.9216 59.2257C28.1378 50.7573 44.9417 47.8197 63.4542 52.6644C81.9666 57.5092 95.1773 68.3017 92.9611 76.7701C90.7448 85.2386 73.9409 88.1762 55.4285 83.3314Z" clip-rule="evenodd"/><path fill="url(#paint1_linear)" fill-rule="evenodd" d="M27.1003 74.4294L24.1382 62.9559L25.8811 62.5059L28.8431 73.9794L27.1003 74.4294Z" clip-rule="evenodd"/><path fill="url(#paint2_linear)" fill-rule="evenodd" d="M26.0815 63.7137C26.0545 63.6248 26.0287 63.536 26.0044 63.4474C25.9594 63.2836 25.919 63.1202 25.8831 62.9572L25.7982 62.6332C25.7969 62.6281 25.8015 62.6235 25.8066 62.6248C25.8114 62.6261 25.8159 62.6219 25.8151 62.6169C25.8142 62.6121 25.8133 62.6072 25.8124 62.6024C25.7839 62.443 25.76 62.2841 25.7405 62.1256C25.7358 62.0875 25.7314 62.0495 25.7273 62.0114C25.6839 61.6135 25.6694 61.2184 25.6847 60.827C25.6847 60.8268 25.6847 60.8265 25.6847 60.8263C25.7059 60.2851 25.784 59.7509 25.9215 59.2257C28.1377 50.7572 44.9416 47.8196 63.454 52.6644C81.9665 57.5091 95.1771 68.3016 92.9609 76.7701C92.8235 77.2953 92.6299 77.7993 92.3833 78.2815C92.3831 78.2817 92.383 78.2819 92.3829 78.2821C92.1166 78.8027 91.7884 79.2978 91.4023 79.7669C91.3991 79.7707 91.3959 79.7746 91.3926 79.7785C91.3915 79.7799 91.391 79.7816 91.391 79.7832C91.3911 79.7861 91.393 79.789 91.3963 79.7898C91.3993 79.7906 91.4012 79.7931 91.4015 79.7958C91.4017 79.7978 91.4011 79.7998 91.3996 79.8015L91.0351 80.1863C90.9929 80.2318 90.9501 80.2769 90.9068 80.3219L90.165 81.1051L90.1637 81.1065L83.2761 88.3794C79.1914 93.798 66.7184 95.4303 53.1883 91.8894C39.8068 88.3874 29.8054 80.9804 28.7103 74.3124C28.6543 73.9712 28.42 73.6802 28.0881 73.5831L6.07626 67.1458C3.59005 66.4187 2.08332 63.8994 2.6189 61.365L2.89436 60.0615C3.12823 58.9548 4.23932 58.2679 5.33386 58.5534L25.8831 63.9123C26.0034 63.9436 26.113 63.8339 26.0815 63.7137ZM23.8871 61.5315C23.8489 60.6053 23.9417 59.6808 24.1801 58.7699C25.5753 53.4388 31.3382 50.3907 38.2667 49.1795C45.3669 47.9382 54.4621 48.4506 63.9097 50.923C73.3574 53.3955 81.5376 57.4042 87.1195 61.9644C92.5665 66.4143 96.0974 71.8947 94.7023 77.2258C94.3679 78.5035 93.7707 79.6641 92.9618 80.6991C92.8925 80.8183 92.8076 80.9324 92.7065 81.0392L92.3539 81.4114C92.3519 81.4136 92.3499 81.4157 92.3479 81.4179C92.3018 81.4674 92.2552 81.5166 92.2081 81.5655C92.206 81.5677 92.2039 81.5698 92.2018 81.572L84.6489 89.5475C82.1469 92.7913 77.4335 94.6236 71.9901 95.2812C66.4105 95.9554 59.68 95.4489 52.7326 93.6308C45.8611 91.8325 39.8038 89.0196 35.2857 85.7457C31.038 82.6678 27.8929 78.9889 27.04 75.152L5.57102 68.8734C2.18171 67.8822 0.127671 64.4478 0.85779 60.9929L1.13325 59.6894C1.57951 57.5777 3.69958 56.267 5.78808 56.8116L23.8871 61.5315Z" clip-rule="evenodd"/><circle cx="34.2" cy="17.4" r="17.4" fill="#F0B90B"/><path fill="#FFFDFA" d="M27.7111 17.4L25.0489 20.0807L22.3682 17.4L25.0489 14.7193L27.7111 17.4ZM34.2002 10.9109L38.7851 15.4958L41.4658 12.8151L36.8809 8.24868L34.2002 5.56799L31.5195 8.24868L26.9531 12.8151L29.6338 15.4958L34.2002 10.9109ZM43.3515 14.7193L40.6893 17.4L43.37 20.0807L46.0322 17.4L43.3515 14.7193ZM34.2002 23.8891L29.6153 19.3042L26.9531 21.9849L31.538 26.5698L34.2002 29.232L36.8809 26.5513L41.4658 21.9664L38.7851 19.3042L34.2002 23.8891ZM34.2002 20.0807L36.8809 17.4L34.2002 14.7193L31.5195 17.4L34.2002 20.0807Z"/><g style="mix-blend-mode:multiply" opacity=".1"><path fill="#191326" fill-rule="evenodd" d="M34.2001 33C42.8157 33 49.8 26.0156 49.8 17.4C49.8 8.78436 42.8157 1.8 34.2001 1.8C25.5844 1.8 18.6 8.78436 18.6 17.4C18.6 26.0156 25.5844 33 34.2001 33ZM34.2001 34.8C43.8098 34.8 51.6001 27.0098 51.6001 17.4C51.6001 7.79025 43.8098 0 34.2001 0C24.5903 0 16.8 7.79025 16.8 17.4C16.8 27.0098 24.5903 34.8 34.2001 34.8Z" clip-rule="evenodd"/></g><path fill="#4100A8" d="M63.9 17.4C78.3149 17.4 90 29.0858 90 43.5C90 57.9149 78.3149 69.6 63.9 69.6C49.4858 69.6 37.8 57.9149 37.8 43.5C37.8 29.0858 49.4858 17.4 63.9 17.4Z"/><path fill="#fff" d="M54.6655 35.3034C55.7824 34.2478 57.0447 33.401 58.4998 32.8831C60.1221 32.305 61.9053 32.1672 63.5927 32.5089C64.6832 32.7284 65.74 33.1398 66.6818 33.7364C67.5437 34.2826 68.2783 34.9569 68.9515 35.7216C68.5378 36.0436 68.1249 36.3669 67.7112 36.6901C67.2739 36.1201 66.8011 35.6103 66.2537 35.1441C65.6247 34.6106 64.8722 34.1935 64.105 33.8969C62.4954 33.2747 60.7367 33.2065 59.0635 33.5899C58.0573 33.8205 57.0869 34.2479 56.2166 34.8C55.8073 35.0589 55.4265 35.3509 55.0535 35.6579C55.0207 35.6846 55.0173 35.7042 54.9906 35.6729C54.955 35.6312 54.9182 35.5901 54.8809 35.549C54.8095 35.4661 54.7374 35.3843 54.6655 35.3034Z"/><path fill="#fff" d="M80.2346 30.4749C79.6043 30.5456 78.9735 30.6157 78.3426 30.6853C77.9789 30.7253 77.614 30.7652 77.2507 30.8069C76.935 30.8417 76.5793 30.8684 76.3511 31.1168C76.021 31.4754 76.3355 31.9371 76.6037 32.2193C76.8713 32.5019 77.1377 32.7835 77.4043 33.0656C77.4969 33.1623 77.588 33.2586 77.68 33.3558C77.7008 33.3791 77.4622 33.6119 77.4344 33.6426C76.9676 34.1518 76.4983 34.6604 76.0326 35.1691C76.0088 35.1939 75.9863 35.2188 75.9642 35.2433C75.5031 34.6002 75.0032 33.9816 74.4673 33.4C74.2286 33.1416 73.9842 32.8891 73.7363 32.6388C73.7166 32.6191 73.603 32.4778 73.5787 32.5015C73.5115 32.5635 73.4454 32.6248 73.3795 32.6863C73.3192 32.742 73.2601 32.7981 73.1998 32.8542C73.1743 32.8769 73.3371 33.0339 73.3574 33.057C73.5879 33.3327 73.823 33.605 74.0491 33.8854C74.3016 34.1982 74.5392 34.5254 74.7673 34.8562C74.882 35.0212 74.9933 35.1875 75.1015 35.3544C75.1589 35.4436 75.2162 35.5328 75.2719 35.6232C75.3003 35.6678 75.3281 35.7124 75.3548 35.7575C75.4069 35.8445 75.4127 35.8445 75.3438 35.9186C75.0547 36.2338 74.7651 36.5505 74.4726 36.8663C73.1316 34.3476 71.0479 32.2112 68.4712 30.9588C65.4277 29.4783 61.879 29.2899 58.6771 30.3691C55.4775 31.449 52.7657 33.751 51.1286 36.6961C49.4947 39.6353 48.9893 43.176 49.681 46.4616C49.7719 46.8926 49.8839 47.3188 50.0155 47.7406C50.0369 47.809 50.0624 47.8257 50.0097 47.882C49.9723 47.9202 49.9354 47.9596 49.8981 47.9984C49.8257 48.0761 49.7521 48.152 49.6796 48.2284C49.5279 48.3894 49.3766 48.5493 49.224 48.7105C48.7247 49.2382 48.2248 49.7659 47.7246 50.2925C47.1914 50.8551 46.6588 51.4193 46.1249 51.9823C46.1172 51.9903 46.0566 52.0437 46.0662 52.0524C46.1954 52.1786 46.326 52.3026 46.4557 52.4278C46.4986 52.4701 46.5324 52.5483 46.5796 52.4984C46.6356 52.444 46.6912 52.3866 46.7459 52.3309C47.4292 51.6341 48.1124 50.9372 48.796 50.2421C49.3095 49.7184 49.8239 49.1936 50.3389 48.6699C51.1739 50.8168 52.5277 52.7087 54.2739 54.2043C56.9008 56.4555 60.4378 57.5781 63.8819 57.2722C65.5812 57.1216 67.242 56.6385 68.7591 55.8594C70.0323 55.2077 71.1516 54.3492 72.1792 53.3604C73.084 52.4886 73.8475 51.4343 74.4517 50.3383C75.2621 48.8704 75.8054 47.2414 76.0308 45.5818C76.2237 44.1365 76.2005 42.6721 75.9596 41.2355C75.843 40.5548 75.6804 39.8811 75.4678 39.2236C75.4196 39.069 75.3664 38.9173 75.3109 38.7643C75.2854 38.6901 75.2234 38.6091 75.2841 38.5488C75.3571 38.4758 75.4313 38.4028 75.5043 38.3287C75.7707 38.0645 76.0373 37.8016 76.3043 37.5386C77.0371 39.0644 77.4774 40.7675 77.6314 42.4485C77.7925 44.1916 77.6349 45.9624 77.1704 47.65C76.89 48.6677 76.5182 49.6641 76.0477 50.6083C75.6249 51.4529 75.1452 52.2523 74.6279 53.0402C75.2158 53.4121 75.8032 53.7846 76.3918 54.157C77.1356 52.8398 77.7878 51.49 78.2577 50.0476C78.7848 48.4291 79.1034 46.715 79.1121 45.0096C79.1208 43.2597 78.8677 41.5323 78.3232 39.8673C78.0607 39.0667 77.7382 38.2841 77.3511 37.534C77.2632 37.3614 77.1762 37.1887 77.0813 37.0201C77.057 36.9797 77.0361 36.9396 77.0117 36.9002C76.977 36.8388 77.0198 36.8306 77.0638 36.7867C77.1496 36.7033 77.2319 36.6199 77.3182 36.5365C77.605 36.2526 77.8928 35.9688 78.1795 35.6861C78.4715 35.3952 78.7646 35.1057 79.0589 34.8148C79.4915 35.2718 79.9243 35.7289 80.3576 36.1853C80.6402 36.4843 81.1673 36.8035 81.4247 36.2966C81.5509 36.0486 81.5462 35.7591 81.5589 35.4868C81.599 34.6873 81.6407 33.8873 81.6796 33.0874C81.6958 32.7543 81.7131 32.4225 81.7293 32.0899C81.7455 31.7736 81.7421 31.4666 81.5938 31.1758C81.3387 30.6673 80.786 30.4131 80.2346 30.4749ZM51.1284 45.5814C50.3712 42.4458 50.9294 39.0286 52.6516 36.3009C54.3497 33.61 57.092 31.6828 60.2485 31.1626C63.4954 30.628 66.8682 31.6625 69.3464 33.8041C70.3647 34.6847 71.2412 35.747 71.8918 36.9258C72.0776 37.2636 72.2474 37.61 72.3987 37.9645C72.4774 38.1499 72.5516 38.3359 72.6199 38.523C72.6512 38.6053 72.7352 38.7397 72.6731 38.8075C72.5902 38.8961 72.5093 38.9853 72.4275 39.0739C71.8663 39.6804 71.3032 40.2864 70.7389 40.8934C69.5642 42.1598 68.3847 43.4237 67.2059 44.6871C66.6017 45.3342 65.9987 45.9818 65.3945 46.6283C65.1819 46.8577 64.9675 47.0871 64.7538 47.3154C64.6043 47.4741 64.2835 47.8124 64.0329 47.6999C63.7077 47.5544 63.6657 46.9654 63.6062 46.6537C63.4449 45.816 63.2898 44.9784 63.1336 44.1408C62.8178 42.4389 62.5351 40.7295 62.1873 39.0363C62.0367 38.3052 61.6191 37.5312 60.797 37.4445C60.2429 37.3853 59.7227 37.6704 59.3366 38.0469C58.941 38.4297 58.572 38.8428 58.1928 39.2425C57.5832 39.8866 56.9719 40.5309 56.3624 41.175C54.6972 42.9315 53.033 44.6902 51.3678 46.4476C51.2779 46.1614 51.197 45.8727 51.1284 45.5814C50.5926 43.3587 51.197 45.8727 51.1284 45.5814ZM63.6759 47.0197C63.6805 47.0349 63.6776 47.0255 63.6759 47.0197V47.0197ZM73.0619 45.2125C72.4484 48.3011 70.5108 51.1616 67.8507 52.8496C65.0737 54.6106 61.5309 55.0161 58.4328 53.8946C57.5335 53.5702 56.6856 53.1299 55.8945 52.5965C55.518 52.341 55.1478 52.0619 54.8138 51.7542C54.7478 51.6945 54.6826 51.6355 54.6162 51.574C54.5824 51.5439 54.5484 51.5138 54.5139 51.4826C54.5064 51.4757 54.4525 51.4235 54.4826 51.4571C53.7904 50.7562 53.161 50.0268 52.6319 49.192C52.4071 48.8375 52.2044 48.4697 52.021 48.0902C51.9327 47.9095 51.8489 47.7259 51.7699 47.54C51.738 47.4635 51.6465 47.3332 51.7083 47.2711C51.7897 47.1888 51.8711 47.106 51.9527 47.0209C52.4925 46.4729 53.0325 45.9231 53.5709 45.3735C54.7418 44.1813 55.9123 42.9881 57.0819 41.7964C57.7039 41.1632 58.3247 40.5295 58.9464 39.8963C59.3182 39.5175 59.6789 39.1212 60.0693 38.7627C60.2362 38.6144 60.5142 38.4047 60.7485 38.4973C61.0642 38.619 61.1265 39.1113 61.1763 39.397C61.328 40.256 61.4758 41.1168 61.6264 41.9765C61.9157 43.6355 62.206 45.2958 62.4845 46.9572C62.5471 47.3274 62.6033 47.7241 62.7973 48.0514C63.1408 48.6359 63.7001 49.0205 64.4062 48.9012C65.0075 48.7981 65.4467 48.3845 65.8603 47.9703C66.4859 47.343 67.1098 46.7156 67.7354 46.09C69.5469 44.2716 71.3601 42.4562 73.179 40.643C73.4165 42.1613 73.3839 43.7074 73.0619 45.2125C72.9009 46.0165 73.406 43.6067 73.0619 45.2125Z"/><g style="mix-blend-mode:multiply" opacity=".2"><path fill="#191326" fill-rule="evenodd" d="M63.9 67.8979C77.3746 67.8979 88.2979 56.9746 88.2979 43.5C88.2979 30.0255 77.3746 19.1022 63.9 19.1022C50.4255 19.1022 39.5022 30.0255 39.5022 43.5C39.5022 56.9746 50.4255 67.8979 63.9 67.8979ZM63.9 69.6C78.3147 69.6 90 57.9147 90 43.5C90 29.0854 78.3147 17.4 63.9 17.4C49.4854 17.4 37.8 29.0854 37.8 43.5C37.8 57.9147 49.4854 69.6 63.9 69.6Z" clip-rule="evenodd"/></g></g><defs><linearGradient id="paint0_linear" x1="63.454" x2="55.428" y1="52.664" y2="83.331" gradientUnits="userSpaceOnUse"><stop stop-color="#404042"/><stop offset="1" stop-color="#48484B"/></linearGradient><linearGradient id="paint1_linear" x1="27.94" x2="25.041" y1="63.058" y2="73.878" gradientUnits="userSpaceOnUse"><stop stop-color="#404042"/><stop offset="1" stop-color="#48484B"/></linearGradient><linearGradient id="paint2_linear" x1="44.097" x2="53.454" y1="48.101" y2="98.772" gradientUnits="userSpaceOnUse"><stop stop-color="#404042"/><stop offset="1" stop-color="#48484B"/></linearGradient><clipPath id="clip0"><rect width="96" height="96" fill="#fff"/></clipPath></defs></svg>