<svg xmlns="http://www.w3.org/2000/svg" width="96" height="96" fill="none" viewBox="0 0 96 96"><g clip-path="url(#clip0)"><path fill="#606063" d="M28.8271 71.4166C26.9201 78.7034 37.8271 87.8694 53.1884 91.8896C68.5498 95.9097 82.5486 93.2615 84.4556 85.9747C86.3625 78.6879 75.4556 69.5218 60.0942 65.5017C44.7328 61.4816 30.7341 64.1298 28.8271 71.4166Z"/><path fill="#606063" d="M82.1547 89.5636L91.408 79.7927L25.7954 62.6217L29.2278 75.7125L82.1547 89.5636Z"/><path fill="#606063" d="M29.9603 64.9761L4.84355 58.403C3.75485 58.118 2.64762 58.7956 2.40585 59.8947L2.12492 61.1717C1.56511 63.7166 3.0718 66.2602 5.57256 66.9922L30.6598 74.3352L29.9603 64.9761Z"/><path fill="url(#paint0_linear)" d="M25.9216 59.2256C23.7054 67.694 36.9161 78.4865 55.4285 83.3313C73.9409 88.176 90.7448 85.2385 92.9611 76.77C95.1773 68.3016 81.9666 57.5091 63.4542 52.6643C44.9417 47.8196 28.1378 50.7571 25.9216 59.2256Z"/><path fill="#606063" fill-rule="evenodd" d="M76.6039 73.9714C80.8628 77.1035 83.3516 80.4912 83.723 83.4942L85.5094 83.2733C85.0465 79.5305 82.0672 75.7549 77.6703 72.5213C73.2364 69.2606 67.2065 66.4328 60.3221 64.6311C53.4377 62.8294 46.7957 62.341 41.3329 63.0117C35.9156 63.6769 31.4688 65.509 29.2318 68.5452L30.6809 69.6129C32.4758 67.1768 36.305 65.4426 41.5522 64.7983C46.7539 64.1596 53.1649 64.6187 59.8664 66.3725C66.5679 68.1263 72.3819 70.8665 76.6039 73.9714Z" clip-rule="evenodd"/><path fill="#979797" fill-rule="evenodd" d="M34.0406 71.2434C28.8082 66.9687 26.8419 62.8187 27.663 59.6813C28.484 56.544 32.2312 53.8891 38.8868 52.7256C45.3707 51.5921 53.9337 52.0334 62.9984 54.4057C72.0632 56.778 79.7446 60.5879 84.8421 64.7522C90.0745 69.0269 92.0408 73.1769 91.2197 76.3143C90.3986 79.4516 86.6515 82.1065 79.9959 83.27C73.512 84.4035 64.949 83.9622 55.8842 81.5899C46.8195 79.2176 39.1381 75.4077 34.0406 71.2434ZM55.4285 83.3313C36.9161 78.4865 23.7054 67.694 25.9216 59.2256C28.1378 50.7571 44.9417 47.8196 63.4542 52.6643C81.9666 57.5091 95.1773 68.3016 92.9611 76.77C90.7448 85.2385 73.9409 88.176 55.4285 83.3313Z" clip-rule="evenodd"/><path fill="url(#paint1_linear)" fill-rule="evenodd" d="M27.1003 74.4294L24.1382 62.9559L25.8811 62.5059L28.8431 73.9794L27.1003 74.4294Z" clip-rule="evenodd"/><path fill="url(#paint2_linear)" fill-rule="evenodd" d="M26.0815 63.7138C26.0545 63.6249 26.0287 63.5362 26.0044 63.4475C25.9594 63.2838 25.919 63.1204 25.8831 62.9573L25.7982 62.6333C25.7969 62.6282 25.8015 62.6236 25.8066 62.6249C25.8114 62.6262 25.8159 62.622 25.8151 62.617C25.8142 62.6122 25.8133 62.6073 25.8124 62.6025C25.7839 62.4431 25.76 62.2842 25.7405 62.1257C25.7358 62.0876 25.7314 62.0496 25.7273 62.0115C25.6839 61.6136 25.6694 61.2186 25.6847 60.8272C25.6847 60.8269 25.6847 60.8267 25.6847 60.8264C25.7059 60.2852 25.784 59.751 25.9215 59.2258C28.1377 50.7573 44.9416 47.8198 63.454 52.6645C81.9665 57.5093 95.1771 68.3018 92.9609 76.7702C92.8235 77.2955 92.6299 77.7994 92.3833 78.2816C92.3831 78.2818 92.383 78.282 92.3829 78.2822C92.1166 78.8028 91.7884 79.2979 91.4023 79.767C91.3991 79.7709 91.3959 79.7748 91.3926 79.7787C91.3915 79.7801 91.391 79.7817 91.391 79.7833C91.3911 79.7863 91.393 79.7891 91.3963 79.79C91.3993 79.7907 91.4012 79.7932 91.4015 79.796C91.4017 79.7979 91.4011 79.8 91.3996 79.8016L91.0351 80.1865C90.9929 80.2319 90.9501 80.2771 90.9068 80.322L90.165 81.1053L90.1637 81.1066L83.2761 88.3796C79.1914 93.7981 66.7184 95.4304 53.1883 91.8896C39.8068 88.3875 29.8054 80.9805 28.7103 74.3125C28.6543 73.9713 28.42 73.6803 28.0881 73.5832L6.07626 67.1459C3.59005 66.4188 2.08332 63.8995 2.6189 61.3652L2.89436 60.0617C3.12823 58.955 4.23932 58.2681 5.33386 58.5535L25.8831 63.9124C26.0034 63.9438 26.113 63.834 26.0815 63.7138ZM23.8871 61.5317C23.8489 60.6054 23.9417 59.681 24.1801 58.7701C25.5753 53.439 31.3382 50.3908 38.2667 49.1796C45.3669 47.9384 54.4621 48.4507 63.9097 50.9232C73.3574 53.3956 81.5376 57.4044 87.1195 61.9645C92.5665 66.4144 96.0974 71.8948 94.7023 77.2259C94.3679 78.5036 93.7707 79.6643 92.9618 80.6992C92.8925 80.8184 92.8076 80.9325 92.7065 81.0393L92.3539 81.4116C92.3519 81.4137 92.3499 81.4159 92.3479 81.418C92.3018 81.4675 92.2552 81.5167 92.2081 81.5656C92.206 81.5678 92.2039 81.5699 92.2018 81.5721L84.6489 89.5476C82.1469 92.7914 77.4335 94.6237 71.9901 95.2813C66.4105 95.9555 59.68 95.4491 52.7326 93.6309C45.8611 91.8326 39.8038 89.0197 35.2857 85.7459C31.038 82.6679 27.8929 78.989 27.04 75.1521L5.57102 68.8735C2.18171 67.8823 0.127671 64.448 0.85779 60.993L1.13325 59.6895C1.57951 57.5778 3.69958 56.2671 5.78808 56.8117L23.8871 61.5317Z" clip-rule="evenodd"/><circle cx="34.2" cy="17.4" r="17.4" fill="#F0B90B"/><path fill="#FFFDFA" fill-rule="evenodd" d="M26.7947 12.9806L34.2071 5.56812L37.1627 8.52366L29.7502 15.9361L26.7947 12.9806ZM26.8001 21.8381L38.6459 9.99235L41.6014 12.9479L29.7557 24.7937L26.8001 21.8381ZM43.076 14.431L31.2303 26.2768L34.1858 29.2323L46.0316 17.3866L43.076 14.431ZM22.3679 17.4063L25.3235 14.4508L28.279 17.4063L25.3235 20.3619L22.3679 17.4063Z" clip-rule="evenodd"/><g style="mix-blend-mode:multiply" opacity=".1"><path fill="#191326" fill-rule="evenodd" d="M34.2001 33C42.8157 33 49.8 26.0156 49.8 17.4C49.8 8.78436 42.8157 1.8 34.2001 1.8C25.5844 1.8 18.6 8.78436 18.6 17.4C18.6 26.0156 25.5844 33 34.2001 33ZM34.2001 34.8C43.8098 34.8 51.6001 27.0098 51.6001 17.4C51.6001 7.79025 43.8098 0 34.2001 0C24.5903 0 16.8 7.79025 16.8 17.4C16.8 27.0098 24.5903 34.8 34.2001 34.8Z" clip-rule="evenodd"/></g><ellipse cx="63.9" cy="43.5" fill="#6A54BF" rx="26.1" ry="26.1"/><path fill="#fff" fill-rule="evenodd" d="M70.8053 28.3618V56.6262L66.9858 59.6818H59.3468L59.3473 44.6513C57.1 45.9514 54.4908 46.6955 51.7078 46.6955C51.549 46.6955 51.3905 46.6931 51.2322 46.6882L50.8753 46.6732L50.8938 46.3135H50.8708V39.4384H50.8753L54.1625 36.7415C54.3616 36.757 54.562 36.7647 54.7634 36.7647C55.6938 36.7647 56.6005 36.5985 57.4514 36.2785L57.6721 36.1909C58.6785 34.935 59.2965 33.3544 59.3439 31.6312L59.3468 31.4174L63.1663 28.3618H70.8053ZM60.1108 44.1791L60.1107 58.9179H66.2219V36.2013C65.1714 39.3902 63.0994 42.115 60.3931 43.9883L60.1108 44.1791ZM70.041 29.5382L66.9854 31.9827V58.7033L70.041 56.2588V29.5382ZM66.2022 32.1817L60.0764 32.182C59.6966 36.3925 56.2109 39.7073 51.9281 39.8175L51.6348 39.8173L51.6351 45.9314L51.7078 45.9316C59.3802 45.9316 65.6621 39.9784 66.1865 32.4393L66.2022 32.1817ZM56.5298 37.3425L56.2892 37.3904C55.7901 37.482 55.2799 37.5286 54.7634 37.5286C54.6474 37.5286 54.5318 37.5263 54.4164 37.5216L52.6099 39.0037C54.0865 38.83 55.4343 38.2351 56.5298 37.3425ZM69.3336 29.1257H63.4332L60.5686 31.4174H66.469L69.3336 29.1257Z" clip-rule="evenodd"/><g style="mix-blend-mode:multiply" opacity=".2"><path fill="#191326" fill-rule="evenodd" d="M63.9 67.8977C77.3746 67.8977 88.2979 56.9745 88.2979 43.4999C88.2979 30.0254 77.3746 19.1021 63.9 19.1021C50.4255 19.1021 39.5022 30.0254 39.5022 43.4999C39.5022 56.9745 50.4255 67.8977 63.9 67.8977ZM63.9 69.5999C78.3147 69.5999 90 57.9145 90 43.4999C90 29.0853 78.3147 17.3999 63.9 17.3999C49.4854 17.3999 37.8 29.0853 37.8 43.4999C37.8 57.9145 49.4854 69.5999 63.9 69.5999Z" clip-rule="evenodd"/></g></g><defs><linearGradient id="paint0_linear" x1="63.454" x2="55.428" y1="52.664" y2="83.331" gradientUnits="userSpaceOnUse"><stop stop-color="#404042"/><stop offset="1" stop-color="#48484B"/></linearGradient><linearGradient id="paint1_linear" x1="27.94" x2="25.041" y1="63.058" y2="73.878" gradientUnits="userSpaceOnUse"><stop stop-color="#404042"/><stop offset="1" stop-color="#48484B"/></linearGradient><linearGradient id="paint2_linear" x1="44.097" x2="53.454" y1="48.101" y2="98.772" gradientUnits="userSpaceOnUse"><stop stop-color="#404042"/><stop offset="1" stop-color="#48484B"/></linearGradient><clipPath id="clip0"><rect width="96" height="96" fill="#fff"/></clipPath></defs></svg>