<svg width="96" height="96" viewBox="0 0 96 96" fill="none" xmlns="http://www.w3.org/2000/svg">
<g clip-path="url(#clip0)">
<path d="M28.8271 71.4167C26.9201 78.7035 37.8271 87.8696 53.1884 91.8897C68.5498 95.9098 82.5486 93.2616 84.4556 85.9748C86.3625 78.688 75.4556 69.5219 60.0942 65.5018C44.7328 61.4817 30.7341 64.1299 28.8271 71.4167Z" fill="#606063"/>
<path d="M82.1547 89.5637L91.408 79.7928L25.7954 62.6218L29.2278 75.7126L82.1547 89.5637Z" fill="#606063"/>
<path d="M29.9603 64.976L4.84355 58.4028C3.75485 58.1179 2.64762 58.7955 2.40585 59.8946L2.12492 61.1716C1.56511 63.7164 3.0718 66.2601 5.57256 66.9921L30.6598 74.3351L29.9603 64.976Z" fill="#606063"/>
<path d="M25.9216 59.2257C23.7054 67.6942 36.9161 78.4866 55.4285 83.3314C73.9409 88.1762 90.7448 85.2386 92.9611 76.7701C95.1773 68.3017 81.9666 57.5092 63.4542 52.6644C44.9417 47.8197 28.1378 50.7573 25.9216 59.2257Z" fill="url(#paint0_linear)"/>
<path fill-rule="evenodd" clip-rule="evenodd" d="M76.6039 73.9714C80.8628 77.1035 83.3516 80.4912 83.723 83.4942L85.5094 83.2733C85.0465 79.5305 82.0672 75.7549 77.6703 72.5213C73.2364 69.2606 67.2065 66.4328 60.3221 64.6311C53.4377 62.8294 46.7957 62.341 41.3329 63.0117C35.9156 63.6769 31.4688 65.509 29.2318 68.5452L30.6809 69.6129C32.4758 67.1768 36.305 65.4426 41.5522 64.7983C46.7539 64.1596 53.1649 64.6187 59.8664 66.3725C66.5679 68.1263 72.3819 70.8665 76.6039 73.9714Z" fill="#606063"/>
<path fill-rule="evenodd" clip-rule="evenodd" d="M34.0406 71.2435C28.8082 66.9688 26.8419 62.8188 27.663 59.6814C28.484 56.5441 32.2312 53.8892 38.8868 52.7257C45.3707 51.5922 53.9337 52.0335 62.9984 54.4058C72.0632 56.7781 79.7446 60.588 84.8421 64.7524C90.0745 69.027 92.0408 73.1771 91.2197 76.3144C90.3986 79.4518 86.6515 82.1066 79.9959 83.2701C73.512 84.4036 64.949 83.9623 55.8842 81.59C46.8195 79.2178 39.1381 75.4079 34.0406 71.2435ZM55.4285 83.3314C36.9161 78.4866 23.7054 67.6942 25.9216 59.2257C28.1378 50.7573 44.9417 47.8197 63.4542 52.6644C81.9666 57.5092 95.1773 68.3017 92.9611 76.7701C90.7448 85.2386 73.9409 88.1762 55.4285 83.3314Z" fill="#979797"/>
<path fill-rule="evenodd" clip-rule="evenodd" d="M27.1003 74.4294L24.1382 62.9559L25.8811 62.5059L28.8431 73.9794L27.1003 74.4294Z" fill="url(#paint1_linear)"/>
<path fill-rule="evenodd" clip-rule="evenodd" d="M26.0815 63.7137C26.0545 63.6248 26.0287 63.536 26.0044 63.4474C25.9594 63.2836 25.919 63.1202 25.8831 62.9572L25.7982 62.6332C25.7969 62.6281 25.8015 62.6235 25.8066 62.6248C25.8114 62.6261 25.8159 62.6219 25.8151 62.6169C25.8142 62.6121 25.8133 62.6072 25.8124 62.6024C25.7839 62.443 25.76 62.2841 25.7405 62.1256C25.7358 62.0875 25.7314 62.0495 25.7273 62.0114C25.6839 61.6135 25.6694 61.2184 25.6847 60.827C25.6847 60.8268 25.6847 60.8265 25.6847 60.8263C25.7059 60.2851 25.784 59.7509 25.9215 59.2257C28.1377 50.7572 44.9416 47.8196 63.454 52.6644C81.9665 57.5091 95.1771 68.3016 92.9609 76.7701C92.8235 77.2953 92.6299 77.7993 92.3833 78.2815C92.3831 78.2817 92.383 78.2819 92.3829 78.2821C92.1166 78.8027 91.7884 79.2978 91.4023 79.7669C91.3991 79.7707 91.3959 79.7746 91.3926 79.7785C91.3915 79.7799 91.391 79.7816 91.391 79.7832C91.3911 79.7861 91.393 79.789 91.3963 79.7898C91.3993 79.7906 91.4012 79.7931 91.4015 79.7958C91.4017 79.7978 91.4011 79.7998 91.3996 79.8015L91.0351 80.1863C90.9929 80.2318 90.9501 80.2769 90.9068 80.3219L90.165 81.1051L90.1637 81.1065L83.2761 88.3794C79.1914 93.798 66.7184 95.4303 53.1883 91.8894C39.8068 88.3874 29.8054 80.9804 28.7103 74.3124C28.6543 73.9712 28.42 73.6802 28.0881 73.5831L6.07626 67.1458C3.59005 66.4187 2.08332 63.8994 2.6189 61.365L2.89436 60.0615C3.12823 58.9548 4.23932 58.2679 5.33386 58.5534L25.8831 63.9123C26.0034 63.9436 26.113 63.8339 26.0815 63.7137ZM23.8871 61.5315C23.8489 60.6053 23.9417 59.6808 24.1801 58.7699C25.5753 53.4388 31.3382 50.3907 38.2667 49.1795C45.3669 47.9382 54.4621 48.4506 63.9097 50.923C73.3574 53.3955 81.5376 57.4042 87.1195 61.9644C92.5665 66.4143 96.0974 71.8947 94.7023 77.2258C94.3679 78.5035 93.7707 79.6641 92.9618 80.6991C92.8925 80.8183 92.8076 80.9324 92.7065 81.0392L92.3539 81.4114C92.3519 81.4136 92.3499 81.4157 92.3479 81.4179C92.3018 81.4674 92.2552 81.5166 92.2081 81.5655C92.206 81.5677 92.2039 81.5698 92.2018 81.572L84.6489 89.5475C82.1469 92.7913 77.4335 94.6236 71.9901 95.2812C66.4105 95.9554 59.68 95.4489 52.7326 93.6308C45.8611 91.8325 39.8038 89.0196 35.2857 85.7457C31.038 82.6678 27.8929 78.9889 27.04 75.152L5.57102 68.8734C2.18171 67.8822 0.127671 64.4478 0.85779 60.9929L1.13325 59.6894C1.57951 57.5777 3.69958 56.267 5.78808 56.8116L23.8871 61.5315Z" fill="url(#paint2_linear)"/>
<circle cx="34.2001" cy="17.4" r="17.4" fill="#F0B90B"/>
<path d="M27.7111 17.4L25.0489 20.0807L22.3682 17.4L25.0489 14.7193L27.7111 17.4ZM34.2002 10.9109L38.7851 15.4958L41.4658 12.8151L36.8809 8.24868L34.2002 5.56799L31.5195 8.24868L26.9531 12.8151L29.6338 15.4958L34.2002 10.9109ZM43.3515 14.7193L40.6893 17.4L43.37 20.0807L46.0322 17.4L43.3515 14.7193ZM34.2002 23.8891L29.6153 19.3042L26.9531 21.9849L31.538 26.5698L34.2002 29.232L36.8809 26.5513L41.4658 21.9664L38.7851 19.3042L34.2002 23.8891ZM34.2002 20.0807L36.8809 17.4L34.2002 14.7193L31.5195 17.4L34.2002 20.0807Z" fill="#FFFDFA"/>
<g style="mix-blend-mode:multiply" opacity="0.1">
<path fill-rule="evenodd" clip-rule="evenodd" d="M34.2001 33C42.8157 33 49.8 26.0156 49.8 17.4C49.8 8.78436 42.8157 1.8 34.2001 1.8C25.5844 1.8 18.6 8.78436 18.6 17.4C18.6 26.0156 25.5844 33 34.2001 33ZM34.2001 34.8C43.8098 34.8 51.6001 27.0098 51.6001 17.4C51.6001 7.79025 43.8098 0 34.2001 0C24.5903 0 16.8 7.79025 16.8 17.4C16.8 27.0098 24.5903 34.8 34.2001 34.8Z" fill="#191326"/>
</g>
<path d="M63.9197 69.0301C78.0238 69.0301 89.4574 57.5965 89.4574 43.4925C89.4574 29.3884 78.0238 17.9548 63.9197 17.9548C49.8157 17.9548 38.3821 29.3884 38.3821 43.4925C38.3821 57.5965 49.8157 69.0301 63.9197 69.0301Z" fill="#17264E"/>
<path d="M77.3858 50.5854C77.3858 50.5704 77.3708 50.5704 77.3708 50.5554C77.2958 50.4354 77.2808 50.3155 77.3258 50.2255C77.3258 50.2105 77.3258 50.1805 77.3408 50.1655C77.2208 49.8206 77.0559 49.4907 77.0709 49.1458C76.8459 48.9059 76.9359 48.426 77.3408 48.456C77.3708 48.456 77.4158 48.471 77.4458 48.471V32.5756H64.9094C64.8794 32.6205 64.8344 32.6655 64.7894 32.6955C64.7444 32.7255 64.6994 32.7555 64.6544 32.7705C64.5495 32.8305 64.4145 32.8605 64.2945 32.8755C64.1746 32.8755 64.0246 32.8305 63.9047 32.7705C63.8747 32.7555 63.8447 32.7405 63.8147 32.7255C63.7547 32.6805 63.6947 32.6355 63.6497 32.5756H51.2483V51.4401C54.0675 52.5198 58.7161 53.8994 64.5945 53.8544C70.2028 53.8095 74.6566 52.5048 77.4308 51.4401V50.6904C77.4158 50.6454 77.4008 50.6154 77.3858 50.5854Z" fill="#D7A049"/>
<path d="M51.2483 32.5607L65.7941 53.8396H67.4436L52.7928 32.5607H51.2483Z" fill="#17264E"/>
<path d="M63.6199 32.5607L77.5809 50.9004V48.666L65.2544 32.5607H63.6199Z" fill="#17264E"/>
<path d="M51.2483 32.6057L62.615 31.1361L58.4762 39.6687L51.2483 32.6057Z" fill="#17264E"/>
<path d="M77.9256 31.601L71.2076 41.0782L64.5945 31.601H77.9256Z" fill="#17264E"/>
<path d="M62.6151 31.1361L57.7865 41.0782L54.8623 35.5598L62.6151 31.1361Z" fill="#17264E"/>
<path d="M58.1462 40.3435L62.615 31.1361L77.4307 50.6605L58.1462 40.3435Z" fill="#D7A049"/>
<path d="M52.6129 51.9052L57.5165 41.7381L52.088 33.8204L51.2483 32.6057V51.4253L52.6129 51.9052Z" fill="#FCF8F0"/>
<path d="M62.615 31.1361L63.2448 47.7513L58.1462 40.3435L62.615 31.1361Z" fill="#FCF8F0"/>
<path d="M51.2483 52.61V54.3645C54.1275 55.3842 58.6262 56.5988 64.2196 56.6138C69.9329 56.6288 74.5216 55.3992 77.4308 54.3645C77.4308 53.7797 77.4308 53.1948 77.4308 52.61C74.5366 53.6297 69.9929 54.8593 64.3095 54.8593C58.6562 54.8593 54.1275 53.6297 51.2483 52.61Z" fill="#D69751"/>
<path d="M63.9197 69.6C49.5238 69.6 37.8271 57.8884 37.8271 43.5075C37.8271 29.1117 49.5388 17.4 63.9197 17.4C78.3155 17.4 90.0122 29.1117 90.0122 43.4925C90.0271 57.8884 78.3155 69.6 63.9197 69.6ZM63.9197 18.4497C50.1086 18.4497 38.8768 29.6815 38.8768 43.4925C38.8768 57.3035 50.1086 68.5353 63.9197 68.5353C77.7307 68.5353 88.9625 57.3035 88.9625 43.4925C88.9625 29.6815 77.7307 18.4497 63.9197 18.4497Z" fill="#D1AF65"/>
<path d="M64.8793 30.8511L64.6394 32.7555L66.124 33.8202V31.6009L64.8793 30.8511Z" fill="#17264E"/>
<path d="M67.4436 53.8395L56.9316 38.5739L56.8267 39.2786L66.9038 54.1244L67.4436 53.8395Z" fill="#17264E"/>
<path d="M77.2209 32.6057V55.1292H77.9257L78.0907 32.5607L77.2209 32.6057Z" fill="#17264E"/>
<path d="M77.9257 31.1361H77.2209V33.5654H77.9257V31.1361Z" fill="#17264E"/>
<path d="M51.2483 31.601V32.6057H52.103L51.2483 31.601Z" fill="#17264E"/>
<g style="mix-blend-mode:multiply" opacity="0.2">
<path fill-rule="evenodd" clip-rule="evenodd" d="M63.9 67.8979C77.3746 67.8979 88.2979 56.9746 88.2979 43.5C88.2979 30.0255 77.3746 19.1022 63.9 19.1022C50.4255 19.1022 39.5022 30.0255 39.5022 43.5C39.5022 56.9746 50.4255 67.8979 63.9 67.8979ZM63.9 69.6C78.3147 69.6 90 57.9147 90 43.5C90 29.0854 78.3147 17.4 63.9 17.4C49.4854 17.4 37.8 29.0854 37.8 43.5C37.8 57.9147 49.4854 69.6 63.9 69.6Z" fill="#191326"/>
</g>
</g>
<defs>
<linearGradient id="paint0_linear" x1="63.4542" y1="52.6644" x2="55.4285" y2="83.3314" gradientUnits="userSpaceOnUse">
<stop stop-color="#404042"/>
<stop offset="1" stop-color="#48484B"/>
</linearGradient>
<linearGradient id="paint1_linear" x1="27.9403" y1="63.0577" x2="25.0411" y2="73.8776" gradientUnits="userSpaceOnUse">
<stop stop-color="#404042"/>
<stop offset="1" stop-color="#48484B"/>
</linearGradient>
<linearGradient id="paint2_linear" x1="44.0969" y1="48.1012" x2="53.4537" y2="98.7722" gradientUnits="userSpaceOnUse">
<stop stop-color="#404042"/>
<stop offset="1" stop-color="#48484B"/>
</linearGradient>
<clipPath id="clip0">
<rect width="96" height="96" fill="white"/>
</clipPath>
</defs>
</svg>
