<svg xmlns="http://www.w3.org/2000/svg" width="96" height="96" fill="none" viewBox="0 0 96 96"><g clip-path="url(#clip0)"><path fill="#606063" d="M28.8271 71.4166C26.9201 78.7034 37.8271 87.8694 53.1884 91.8896C68.5498 95.9097 82.5486 93.2615 84.4556 85.9747C86.3625 78.6879 75.4556 69.5218 60.0942 65.5017C44.7328 61.4816 30.7341 64.1298 28.8271 71.4166Z"/><path fill="#606063" d="M82.1547 89.5636L91.408 79.7927L25.7954 62.6217L29.2278 75.7125L82.1547 89.5636Z"/><path fill="#606063" d="M29.9603 64.9761L4.84355 58.403C3.75485 58.118 2.64762 58.7956 2.40585 59.8947L2.12492 61.1717C1.56511 63.7166 3.0718 66.2602 5.57256 66.9922L30.6598 74.3352L29.9603 64.9761Z"/><path fill="url(#paint0_linear)" d="M25.9216 59.2256C23.7054 67.694 36.9161 78.4865 55.4285 83.3313C73.9409 88.176 90.7448 85.2385 92.9611 76.77C95.1773 68.3016 81.9666 57.5091 63.4542 52.6643C44.9417 47.8196 28.1378 50.7571 25.9216 59.2256Z"/><path fill="#606063" fill-rule="evenodd" d="M76.6039 73.9714C80.8628 77.1035 83.3516 80.4912 83.723 83.4942L85.5094 83.2733C85.0465 79.5305 82.0672 75.7549 77.6703 72.5213C73.2364 69.2606 67.2065 66.4328 60.3221 64.6311C53.4377 62.8294 46.7957 62.341 41.3329 63.0117C35.9156 63.6769 31.4688 65.509 29.2318 68.5452L30.6809 69.6129C32.4758 67.1768 36.305 65.4426 41.5522 64.7983C46.7539 64.1596 53.1649 64.6187 59.8664 66.3725C66.5679 68.1263 72.3819 70.8665 76.6039 73.9714Z" clip-rule="evenodd"/><path fill="#979797" fill-rule="evenodd" d="M34.0406 71.2434C28.8082 66.9687 26.8419 62.8187 27.663 59.6813C28.484 56.544 32.2312 53.8891 38.8868 52.7256C45.3707 51.5921 53.9337 52.0334 62.9984 54.4057C72.0632 56.778 79.7446 60.5879 84.8421 64.7522C90.0745 69.0269 92.0408 73.1769 91.2197 76.3143C90.3986 79.4516 86.6515 82.1065 79.9959 83.27C73.512 84.4035 64.949 83.9622 55.8842 81.5899C46.8195 79.2176 39.1381 75.4077 34.0406 71.2434ZM55.4285 83.3313C36.9161 78.4865 23.7054 67.694 25.9216 59.2256C28.1378 50.7571 44.9417 47.8196 63.4542 52.6643C81.9666 57.5091 95.1773 68.3016 92.9611 76.77C90.7448 85.2385 73.9409 88.176 55.4285 83.3313Z" clip-rule="evenodd"/><path fill="url(#paint1_linear)" fill-rule="evenodd" d="M27.1003 74.4294L24.1382 62.9559L25.8811 62.5059L28.8431 73.9794L27.1003 74.4294Z" clip-rule="evenodd"/><path fill="url(#paint2_linear)" fill-rule="evenodd" d="M26.0815 63.7138C26.0545 63.6249 26.0287 63.5362 26.0044 63.4475C25.9594 63.2838 25.919 63.1204 25.8831 62.9573L25.7982 62.6333C25.7969 62.6282 25.8015 62.6236 25.8066 62.6249C25.8114 62.6262 25.8159 62.622 25.8151 62.617C25.8142 62.6122 25.8133 62.6073 25.8124 62.6025C25.7839 62.4431 25.76 62.2842 25.7405 62.1257C25.7358 62.0876 25.7314 62.0496 25.7273 62.0115C25.6839 61.6136 25.6694 61.2186 25.6847 60.8272C25.6847 60.8269 25.6847 60.8267 25.6847 60.8264C25.7059 60.2852 25.784 59.751 25.9215 59.2258C28.1377 50.7573 44.9416 47.8198 63.454 52.6645C81.9665 57.5093 95.1771 68.3018 92.9609 76.7702C92.8235 77.2955 92.6299 77.7994 92.3833 78.2816C92.3831 78.2818 92.383 78.282 92.3829 78.2822C92.1166 78.8028 91.7884 79.2979 91.4023 79.767C91.3991 79.7709 91.3959 79.7748 91.3926 79.7787C91.3915 79.7801 91.391 79.7817 91.391 79.7833C91.3911 79.7863 91.393 79.7891 91.3963 79.79C91.3993 79.7907 91.4012 79.7932 91.4015 79.796C91.4017 79.7979 91.4011 79.8 91.3996 79.8016L91.0351 80.1865C90.9929 80.2319 90.9501 80.2771 90.9068 80.322L90.165 81.1053L90.1637 81.1066L83.2761 88.3796C79.1914 93.7981 66.7184 95.4304 53.1883 91.8896C39.8068 88.3875 29.8054 80.9805 28.7103 74.3125C28.6543 73.9713 28.42 73.6803 28.0881 73.5832L6.07626 67.1459C3.59005 66.4188 2.08332 63.8995 2.6189 61.3652L2.89436 60.0617C3.12823 58.955 4.23932 58.2681 5.33386 58.5535L25.8831 63.9124C26.0034 63.9438 26.113 63.834 26.0815 63.7138ZM23.8871 61.5317C23.8489 60.6054 23.9417 59.681 24.1801 58.7701C25.5753 53.439 31.3382 50.3908 38.2667 49.1796C45.3669 47.9384 54.4621 48.4507 63.9097 50.9232C73.3574 53.3956 81.5376 57.4044 87.1195 61.9645C92.5665 66.4144 96.0974 71.8948 94.7023 77.2259C94.3679 78.5036 93.7707 79.6643 92.9618 80.6992C92.8925 80.8184 92.8076 80.9325 92.7065 81.0393L92.3539 81.4116C92.3519 81.4137 92.3499 81.4159 92.3479 81.418C92.3018 81.4675 92.2552 81.5167 92.2081 81.5656C92.206 81.5678 92.2039 81.5699 92.2018 81.5721L84.6489 89.5476C82.1469 92.7914 77.4335 94.6237 71.9901 95.2813C66.4105 95.9555 59.68 95.4491 52.7326 93.6309C45.8611 91.8326 39.8038 89.0197 35.2857 85.7459C31.038 82.6679 27.8929 78.989 27.04 75.1521L5.57102 68.8735C2.18171 67.8823 0.127671 64.448 0.85779 60.993L1.13325 59.6895C1.57951 57.5778 3.69958 56.2671 5.78808 56.8117L23.8871 61.5317Z" clip-rule="evenodd"/><circle cx="34.2" cy="17.4" r="17.4" fill="#F0B90B"/><path fill="#FFFDFA" fill-rule="evenodd" d="M26.7947 12.9806L34.2071 5.56812L37.1627 8.52366L29.7502 15.9361L26.7947 12.9806ZM26.8001 21.8381L38.6459 9.99235L41.6014 12.9479L29.7557 24.7937L26.8001 21.8381ZM43.076 14.431L31.2303 26.2768L34.1858 29.2323L46.0316 17.3866L43.076 14.431ZM22.3679 17.4063L25.3235 14.4508L28.279 17.4063L25.3235 20.3619L22.3679 17.4063Z" clip-rule="evenodd"/><g style="mix-blend-mode:multiply" opacity=".1"><path fill="#191326" fill-rule="evenodd" d="M34.2001 33C42.8157 33 49.8 26.0156 49.8 17.4C49.8 8.78436 42.8157 1.8 34.2001 1.8C25.5844 1.8 18.6 8.78436 18.6 17.4C18.6 26.0156 25.5844 33 34.2001 33ZM34.2001 34.8C43.8098 34.8 51.6001 27.0098 51.6001 17.4C51.6001 7.79025 43.8098 0 34.2001 0C24.5903 0 16.8 7.79025 16.8 17.4C16.8 27.0098 24.5903 34.8 34.2001 34.8Z" clip-rule="evenodd"/></g><g clip-path="url(#clip1)"><path fill="url(#paint3_linear)" d="M63.9 17.3999C78.3162 17.3999 90 29.0837 90 43.4999C90 57.9161 78.3162 69.5999 63.9 69.5999C49.4839 69.5999 37.8 57.9161 37.8 43.4999C37.8 29.0837 49.4839 17.3999 63.9 17.3999Z"/><path fill="#FFE3BA" d="M60.8529 29.7787L60.8007 29.8076C59.2714 30.6538 59.149 30.7354 59.2204 31.0209C59.302 31.3267 59.5874 31.8671 59.8627 32.2341C59.9246 32.3189 59.9855 32.395 60.0418 32.4654C60.2361 32.7082 60.3768 32.884 60.3215 33.1211C60.2501 33.427 59.8525 33.8348 59.251 34.2222C58.6495 34.6096 57.844 34.9766 57.3037 34.8645C56.7633 34.7625 56.4983 34.1814 56.2944 33.7124C56.2824 33.6863 56.2707 33.6606 56.2592 33.6352C56.0639 33.2058 55.9222 32.894 55.6622 32.8458C55.3972 32.7948 55.0097 33.0395 53.9698 33.8144C52.9401 34.5892 51.2579 35.884 50.4728 36.8424C49.6878 37.7906 49.7999 38.4125 49.9936 38.963C50.1255 39.3377 50.2951 39.6888 50.5636 40.2446C50.6896 40.5053 50.8374 40.8112 51.0132 41.1856C51.5637 42.3682 52.3794 44.2238 52.4711 45.3963C52.558 46.5061 51.9962 46.9856 51.6766 47.2585C51.6585 47.2739 51.6412 47.2886 51.6249 47.3028C51.319 47.5679 51.3292 47.6086 51.5229 47.68C51.7167 47.7514 52.0837 47.8431 52.7668 47.8431C53.4601 47.8431 54.4592 47.7412 55.1117 47.3639C55.5779 47.0902 55.8614 46.6714 56.3171 45.9985C56.4893 45.7443 56.686 45.4537 56.9265 45.121C57.8033 43.9179 59.2714 42.1541 61.1983 40.7676C63.1354 39.381 65.5211 38.3819 67.7539 37.7804C69.0943 37.4176 70.3753 37.2031 71.4383 37.0252C72.1379 36.9081 72.743 36.8068 73.2084 36.6895C74.3808 36.3938 74.6561 35.9962 74.7785 35.6495C74.9008 35.3131 74.8804 35.0276 74.7479 34.63C74.6153 34.2324 74.3604 33.7124 73.6876 32.7948C73.5064 32.5516 73.2966 32.2796 73.0734 31.9902C72.4546 31.188 71.7324 30.2518 71.2305 29.4202C70.5474 28.2885 70.2823 27.3607 70.1192 26.7898C69.9561 26.2291 69.8949 26.0252 69.589 25.9028C69.2934 25.7907 68.7428 25.7499 66.9994 26.5451C65.2757 27.3314 62.3957 28.925 60.8529 29.7787Z"/><path fill="#FFE3BA" d="M64.7646 51.726C65.6329 51.2897 66.626 50.7906 67.6622 50.3613C68.7225 49.9229 69.8338 49.5457 70.9145 49.2195C70.888 49.2663 70.8615 49.3132 70.835 49.3602C70.4111 50.1101 69.9783 50.876 69.6808 51.7683C69.3648 52.7165 69.1813 53.8074 69.0895 54.939C68.9977 56.0095 68.9977 57.1004 69.1099 58.0486C69.115 58.0741 69.1175 58.0996 69.1201 58.1251C69.1226 58.1506 69.1252 58.176 69.1303 58.2015C69.273 59.1803 69.5483 59.9755 69.8847 60.6076C70.2212 61.2397 70.629 61.7087 71.0368 62.1777C68.8346 63.0035 66.4489 63.4623 63.9613 63.4623C62.0241 63.4623 60.138 63.187 58.364 62.6671C58.3844 61.4742 58.415 60.2814 58.5679 59.1497C58.7209 58.0078 59.0063 56.9271 59.302 55.9484C59.5977 54.9696 59.9035 54.0826 60.2094 53.2058C60.4847 53.1854 60.7395 53.1549 60.9842 53.1243C62.0547 52.9713 62.799 52.6859 63.8389 52.1863C64.1267 52.0466 64.4368 51.8908 64.7646 51.726Z"/><path fill="#91F7A4" fill-rule="evenodd" d="M74.0545 43.6323C74.7987 43.2041 75.543 42.7861 76.43 42.1539C76.5931 42.0316 76.7664 41.9093 76.9397 41.7767C77.6942 41.2058 78.4792 40.5125 79.04 39.7682C79.7231 38.8507 80.0595 37.8515 80.1513 37.1175C80.2532 36.3834 80.1207 35.9246 79.9983 35.4658C79.5395 35.945 79.0196 36.3936 78.469 36.8218C77.4597 37.6068 76.3382 38.3307 75.492 38.8201C74.6458 39.3095 74.0748 39.5541 73.5039 39.809C73.3816 40.4309 73.3714 41.1242 73.4733 41.7971C73.5753 42.4394 73.769 43.0613 74.0545 43.6323Z" clip-rule="evenodd"/><path fill="#83DE93" d="M74.2148 43.5406C74.1614 43.5713 74.1081 43.6019 74.0548 43.6326C73.7693 43.0616 73.5756 42.4397 73.4736 41.8076C73.4022 41.3386 73.3819 40.8696 73.4226 40.421L73.443 40.4312C74.33 40.7269 75.2476 40.8187 76.1652 40.574C77.093 40.3293 78.0207 39.738 78.7344 39.0956C79.3665 38.5247 79.8355 37.9232 80.07 37.5562C79.9171 38.2188 79.601 39.0243 79.0403 39.7685C78.4795 40.5128 77.6945 41.2061 76.94 41.777C76.8399 41.8536 76.7397 41.9268 76.6416 41.9985C76.5698 42.0509 76.4991 42.1026 76.4303 42.1542C75.6068 42.7411 74.9064 43.1434 74.2148 43.5406Z"/><path fill="#83DE93" d="M75.0881 45.1884C74.8369 44.8692 74.562 44.5201 74.33 44.1423C74.2548 44.0221 74.1852 43.8962 74.117 43.7731C74.0927 43.7292 74.0686 43.6856 74.0445 43.6428C74.7888 43.2247 75.533 42.7965 76.42 42.1644C76.4889 42.1128 76.5596 42.0611 76.6313 42.0087C76.7295 41.937 76.8296 41.8638 76.9298 41.7872C77.1745 42.2052 77.4192 42.6334 77.4395 43.1228C77.4599 43.6122 77.2764 44.1627 76.9502 44.6725C76.664 45.1341 76.2607 45.5539 75.8539 45.9774C75.8115 46.0216 75.7691 46.0657 75.7267 46.11C75.7063 46.059 75.6859 46.0183 75.6554 45.9673C75.5162 45.7321 75.3115 45.4721 75.0881 45.1884Z"/><path fill="#C7FFD1" fill-rule="evenodd" d="M75.492 38.8305C76.3382 38.3411 77.4597 37.6173 78.469 36.8322C79.0196 36.404 79.5395 35.9452 79.9983 35.4763C80.3246 35.1398 80.6304 34.783 80.8853 34.4261C80.9261 34.3752 80.9669 34.314 81.0076 34.263C81.65 33.325 82.0272 32.3055 82.2107 31.286C82.3942 30.2664 82.384 29.2673 82.2821 28.6964C82.1903 28.1356 82.0068 28.0133 81.6092 28.3293C81.2014 28.6454 80.5794 29.41 79.6517 30.2563C79.3254 30.5519 78.9686 30.868 78.5812 31.1636C77.8675 31.7244 77.2966 32.1424 76.3076 32.6522C75.3187 33.1517 75.0536 33.1925 73.8709 33.4678C74.2278 33.9164 74.4419 34.1713 74.8599 34.7626C75.2779 35.3539 74.5744 36.5468 74.605 36.8832C74.6356 37.2197 74.5846 37.3318 74.4623 37.5051C74.1258 38.127 73.7792 38.7388 73.5855 39.4626C73.5549 39.585 73.5243 39.7073 73.5039 39.8297C74.0748 39.5646 74.6458 39.3097 75.492 38.8305Z" clip-rule="evenodd"/><path fill="#91F7A4" fill-rule="evenodd" d="M75.4921 38.8304C76.3383 38.341 77.4598 37.6171 78.4691 36.8321C79.0197 36.4039 79.5396 35.9451 79.9984 35.4761C80.3247 35.1397 80.6305 34.7829 80.8854 34.426C80.9262 34.375 80.967 34.3139 81.0078 34.2629C81.6501 33.3249 82.0273 32.3054 82.2108 31.2859C82.3128 30.7047 82.3536 30.1134 82.3536 29.624C82.323 29.6546 82.2924 29.6954 82.2618 29.7362C81.9967 30.1338 81.6603 31.1737 80.865 32.183C80.0698 33.1924 78.826 34.1813 77.5516 34.6401C76.267 35.0989 75.5737 35.0377 75.0639 35.0377C74.5541 35.0377 74.7784 35.0377 74.6459 35.0377L74.7071 35.1193C75.2678 35.9043 74.5745 36.5466 74.6051 36.8933C74.6357 37.2297 74.5847 37.3419 74.4624 37.5152C74.1259 38.1371 73.7793 38.7488 73.5856 39.4727C73.5652 39.5543 73.5448 39.6256 73.5244 39.7072C73.5754 39.7276 73.6264 39.7378 73.6773 39.7582C74.1973 39.5135 74.7377 39.2586 75.4921 38.8304Z" clip-rule="evenodd"/><path fill="#FFD27F" fill-rule="evenodd" d="M72.4773 36.7672C73.2078 36.6807 73.7524 36.6162 74.1363 36.4754C74.4218 36.3735 74.6257 36.2308 74.7582 36.0676C74.3606 36.7915 73.963 37.5154 73.7387 38.3514C73.6979 38.4941 73.6673 38.6368 73.6368 38.7796C73.494 39.5136 73.4736 40.3089 73.596 41.1041C73.7081 41.8382 73.9324 42.562 74.2689 43.2349C74.3708 43.4388 74.4728 43.6326 74.5951 43.8263C74.8638 44.2583 75.1788 44.6576 75.4669 45.0229C75.7363 45.3644 75.9822 45.6763 76.1448 45.9571C76.1691 45.9936 76.1862 46.0265 76.2025 46.0579C76.2135 46.0791 76.2242 46.0997 76.2366 46.1202C76.4812 46.6198 76.4099 47.0174 75.7574 47.4354C75.0335 47.884 73.596 48.3632 72.0667 48.8526C71.681 48.9712 71.2953 49.0899 70.9096 49.2179L70.9051 49.2259L70.9247 49.2196L70.8453 49.3603C70.4214 50.1102 69.9885 50.8761 69.6911 51.7684C69.3751 52.7166 69.1915 53.8075 69.0998 54.9392C69.008 56.0097 69.008 57.1006 69.1202 58.0487C69.1253 58.0742 69.1278 58.0997 69.1304 58.1252C69.1329 58.1507 69.1355 58.1762 69.1406 58.2017C69.2833 59.1804 69.5586 59.9756 69.895 60.6077C70.2315 61.2399 70.6393 61.7088 71.0471 62.1778C69.426 62.7895 67.6928 63.1974 65.8985 63.3707C65.7557 62.4939 65.7048 61.5559 65.7048 60.7097C65.7048 58.7624 65.9494 57.2025 66.8772 54.6231C66.9253 54.4894 66.9752 54.3532 67.0267 54.2146C66.4613 54.4922 65.929 54.7956 65.4066 55.0933C64.5099 55.6044 63.6423 56.099 62.6868 56.4174C61.4328 56.8355 60.0258 56.9578 59.0165 56.968C59.1082 56.6214 59.2 56.2747 59.3019 55.9485C59.5683 55.0667 59.8429 54.2594 60.1184 53.4669C59.8657 53.5047 59.6033 53.5332 59.3225 53.5526C58.3336 53.624 57.2223 53.624 56.2843 53.573C55.0609 53.5016 54.1433 53.3487 53.5724 53.1958C53.0014 53.0428 52.7873 52.8899 52.5121 52.4413C52.4305 52.2986 52.3388 52.1354 52.247 51.9417C52.0431 51.5135 51.8392 50.9834 51.6964 50.4022C51.5945 50.025 51.5333 49.6376 51.4721 49.2298C51.4008 48.72 51.3498 48.2001 51.2988 47.6699C51.36 47.6801 51.4721 47.6903 51.6455 47.6903C52.1246 47.7005 53.0626 47.7005 53.6132 47.7005C54.1535 47.7005 54.3064 47.7005 54.6735 47.5272C55.0405 47.3538 55.6114 47.0072 56.0906 46.4057C56.3946 46.0241 56.6616 45.5442 56.9515 45.023C57.1187 44.7225 57.2935 44.4083 57.4874 44.0913C58.0175 43.2145 58.7006 42.3174 60.0362 41.308C61.3718 40.2987 63.3599 39.167 65.3786 38.3922C67.3972 37.6173 69.4465 37.1891 70.9758 36.9648C71.5452 36.8775 72.044 36.8185 72.4773 36.7672ZM62.9501 52.5869C63.2305 52.4719 63.5209 52.3391 63.8388 52.1864C64.1267 52.0467 64.4367 51.8909 64.7645 51.7261C65.6328 51.2898 66.626 50.7907 67.6621 50.3614C67.7347 50.3314 67.8076 50.3017 67.8806 50.2722C67.7051 50.341 67.5303 50.4115 67.3564 50.4838C66.2672 50.9382 65.2189 51.4641 64.3016 51.9243C63.9224 52.1145 63.5656 52.2934 63.2375 52.4515C63.1393 52.4984 63.0437 52.5435 62.9501 52.5869ZM67.0608 45.0089C67.7235 44.4788 68.1823 43.7855 68.3964 43.1432C68.6003 42.5009 68.5697 41.8993 68.5391 41.5527C68.5085 41.1959 68.4779 41.0735 68.1517 40.9716C67.8254 40.8696 67.2137 40.7881 66.4389 40.8696C66.2554 40.89 66.0514 40.9206 65.8475 40.9614C65.2256 41.0939 64.5527 41.3284 63.9206 41.7158C63.9104 41.7209 63.9028 41.726 63.8951 41.7311C63.8875 41.7362 63.8798 41.7413 63.8696 41.7464C63.0132 42.2766 62.2384 43.0922 61.7592 43.7447C61.3616 44.2749 61.1679 44.7031 61.0761 44.9987C61.059 45.05 61.0491 45.1012 61.0404 45.1465L61.0354 45.172C60.9742 45.4575 61.0455 45.5493 61.331 45.692C61.6165 45.8347 62.1059 46.0183 62.687 46.1202C63.2681 46.2222 63.9512 46.2426 64.7261 46.0692C65.1441 45.9775 65.5927 45.8245 66.0209 45.6308C66.3981 45.4677 66.7447 45.2536 67.0608 45.0089Z" clip-rule="evenodd"/><path fill="#FFD27F" d="M72.5152 57.1719C71.7914 57.2942 70.5271 57.651 69.9256 57.9365C69.3627 58.2037 69.3801 58.4172 69.4014 58.6775C69.4029 58.6954 69.4043 58.7134 69.4057 58.7317C69.4119 58.774 69.4174 58.8174 69.4232 58.8627C69.4551 59.1127 69.4942 59.4193 69.7013 59.894C69.946 60.4649 70.4354 61.2704 70.7005 61.6884C70.9655 62.1064 70.9961 62.1472 71.5263 61.9127C72.0564 61.6782 73.0964 61.1786 74.0343 60.6383C74.9825 60.0979 75.8287 59.4964 76.3792 58.8745C76.94 58.2526 77.2051 57.5899 77.2357 57.1719C77.2662 56.7538 77.0725 56.5805 76.7667 56.4888C76.4608 56.4072 76.0326 56.4072 75.5025 56.6111C75.1895 56.7315 74.8411 56.9229 74.5389 57.0889C74.3291 57.2041 74.1416 57.3071 74.0037 57.3656C73.7117 57.4895 73.6501 57.4213 73.5656 57.3278C73.5527 57.3136 73.5394 57.2988 73.5246 57.284C73.4124 57.1719 73.2391 57.0495 72.5152 57.1719Z"/><path fill="#fff" fill-rule="evenodd" d="M67.0607 45.0087C67.7335 44.4786 68.1923 43.7955 68.3962 43.143C68.6103 42.5007 68.5696 41.8992 68.539 41.5321C68.5084 41.1753 68.4676 41.0529 68.1516 40.951C67.8253 40.849 67.2136 40.7573 66.4387 40.849C66.245 40.8694 66.0513 40.9 65.8474 40.9408C66.1941 41.4098 66.4489 41.9603 66.5713 42.572C66.7956 43.6629 66.5713 44.7436 66.0309 45.6204C66.3878 45.4675 66.7446 45.2534 67.0607 45.0087Z" clip-rule="evenodd"/><path fill="#91F7A4" fill-rule="evenodd" d="M64.0734 43.7141C64.0734 44.8254 63.3292 45.7532 62.3198 46.0488C62.432 46.0794 62.5543 46.0998 62.6869 46.1202C63.268 46.2222 63.9511 46.2425 64.7259 46.0692C65.1439 45.9775 65.5925 45.8347 66.0207 45.6308C66.5611 44.754 66.7854 43.6733 66.5611 42.5824C66.4387 41.9707 66.1838 41.4202 65.8372 40.9512C65.2051 41.0837 64.5016 41.3386 63.8593 41.7464C63.7064 41.8382 63.5637 41.9401 63.4209 42.0523C63.8287 42.4805 64.0734 43.0718 64.0734 43.7141Z" clip-rule="evenodd"/><path fill="#fff" fill-rule="evenodd" d="M64.4709 42.623C64.8482 42.623 65.154 42.9289 65.154 43.3061C65.154 43.6834 64.8482 43.9892 64.4709 43.9892C64.0937 43.9892 63.7878 43.6834 63.7878 43.3061C63.7878 42.9289 64.0937 42.623 64.4709 42.623Z" clip-rule="evenodd"/><path fill="#fff" d="M60.6172 28.1662C60.4235 28.1662 60.2603 28.0031 60.2603 27.8094V27.157H59.873C59.6793 27.157 59.5161 26.9939 59.5161 26.8001C59.5161 26.6064 59.6793 26.4433 59.873 26.4433H60.2603V25.8009C60.2603 25.6072 60.4235 25.4441 60.6172 25.4441C60.8109 25.4441 60.974 25.6072 60.974 25.8009V26.4433H61.3615C61.5552 26.4433 61.7183 26.6064 61.7183 26.8001C61.7183 26.9939 61.5654 27.157 61.3615 27.157H60.974V27.8094C60.974 28.0031 60.8109 28.1662 60.6172 28.1662Z"/><path fill="#fff" d="M51.5434 32.9886C51.3496 32.9886 51.1865 32.8255 51.1865 32.6318V32.173H50.9316C50.7379 32.173 50.5748 32.0099 50.5748 31.8162C50.5748 31.6225 50.7379 31.4593 50.9316 31.4593H51.1865V30.9903C51.1865 30.7966 51.3496 30.6335 51.5434 30.6335C51.7371 30.6335 51.9002 30.7966 51.9002 30.9903V31.4593H52.1551C52.3488 31.4593 52.5119 31.6225 52.5119 31.8162C52.5119 32.0099 52.3488 32.173 52.1551 32.173H51.9002V32.6318C51.9002 32.8357 51.7371 32.9886 51.5434 32.9886Z"/><path fill="#fff" d="M46.9964 41.5731C46.8026 41.5731 46.6395 41.41 46.6395 41.2162V40.9716H46.558C46.3643 40.9716 46.2012 40.8085 46.2012 40.6148C46.2012 40.4211 46.3643 40.258 46.558 40.258H46.6395V40.0234C46.6395 39.8297 46.8026 39.6666 46.9964 39.6666C47.1901 39.6666 47.3532 39.8297 47.3532 40.0234V40.258H47.445C47.6387 40.258 47.8018 40.4211 47.8018 40.6148C47.8018 40.8085 47.6387 40.9716 47.445 40.9716H47.3532V41.2162C47.3532 41.4201 47.1901 41.5731 46.9964 41.5731Z"/><path fill="#fff" d="M80.8141 44.1322C80.6204 44.1322 80.4573 43.969 80.4573 43.7753V43.6122H80.437C80.2433 43.6122 80.0801 43.4491 80.0801 43.2554C80.0801 43.0616 80.2433 42.8985 80.437 42.8985H80.4573V42.7456C80.4573 42.5519 80.6204 42.3888 80.8141 42.3888C81.0078 42.3888 81.171 42.5519 81.171 42.7456V42.8985H81.2016C81.3953 42.8985 81.5585 43.0616 81.5585 43.2554C81.5585 43.4491 81.3953 43.6122 81.2016 43.6122H81.171V43.7753C81.171 43.969 81.0078 44.1322 80.8141 44.1322Z"/><path fill="#fff" d="M48.2503 51.8602C48.0566 51.8602 47.8935 51.697 47.8935 51.5033V50.6673H47.3633C47.1696 50.6673 47.0064 50.5041 47.0064 50.3104C47.0064 50.1167 47.1696 49.9536 47.3633 49.9536H47.8935V49.1074C47.8935 48.9137 48.0566 48.7506 48.2503 48.7506C48.444 48.7506 48.6072 48.9137 48.6072 49.1074V49.9536H49.1373C49.331 49.9536 49.4941 50.1167 49.4941 50.3104C49.4941 50.5041 49.331 50.6673 49.1373 50.6673H48.6072V51.5033C48.6072 51.7072 48.444 51.8602 48.2503 51.8602Z"/><path fill="#fff" d="M54.4695 58.0692C54.4695 58.2629 54.6326 58.426 54.8263 58.426C55.02 58.426 55.1831 58.2731 55.1831 58.0794V57.6817H55.387C55.5808 57.6817 55.7439 57.5186 55.7439 57.3249C55.7439 57.1312 55.5808 56.9681 55.387 56.9681H55.1831V56.5705C55.1831 56.3767 55.02 56.2136 54.8263 56.2136C54.6326 56.2136 54.4695 56.3767 54.4695 56.5705V56.9681H54.2656C54.0718 56.9681 53.9087 57.1312 53.9087 57.3249C53.9087 57.5186 54.0718 57.6817 54.2656 57.6817H54.4695V58.0692Z"/><path fill="#fff" d="M73.4939 53.6342C73.3002 53.6342 73.1371 53.4711 73.1371 53.2774V53.0326H73.0555C72.8618 53.0326 72.6986 52.8695 72.6986 52.6758C72.6986 52.4821 72.8618 52.319 73.0555 52.319H73.1371V52.0845C73.1371 51.8908 73.3002 51.7277 73.4939 51.7277C73.6877 51.7277 73.8508 51.8908 73.8508 52.0845V52.319H73.9425C74.1362 52.319 74.2993 52.4821 74.2993 52.6758C74.2993 52.8695 74.1362 53.0326 73.9425 53.0326H73.8508V53.2774C73.8508 53.4813 73.6877 53.6342 73.4939 53.6342Z"/><path fill="#fff" d="M78.8158 52.1966C78.6221 52.1966 78.459 52.0335 78.459 51.8398V51.4421H78.2551C78.0614 51.4421 77.8982 51.279 77.8982 51.0853C77.8982 50.8916 78.0614 50.7285 78.2551 50.7285H78.459V50.3309C78.459 50.1372 78.6221 49.974 78.8158 49.974C79.0095 49.974 79.1727 50.1372 79.1727 50.3309V50.7285H79.3766C79.5703 50.7285 79.7334 50.8916 79.7334 51.0853C79.7334 51.279 79.5703 51.4421 79.3766 51.4421H79.1727V51.8296C79.1727 52.0335 79.0095 52.1966 78.8158 52.1966Z"/><path fill="#fff" d="M49.1984 46.11C49.0047 46.11 48.8416 45.9469 48.8416 45.7532V45.5186H48.7601C48.5664 45.5186 48.4033 45.3555 48.4033 45.1618C48.4033 44.9681 48.5664 44.805 48.7601 44.805H48.8416V44.5603C48.8416 44.3666 49.0047 44.2035 49.1984 44.2035C49.3921 44.2035 49.5553 44.3666 49.5553 44.5603V44.805H49.6471C49.8408 44.805 50.0039 44.9681 50.0039 45.1618C50.0039 45.3555 49.8408 45.5186 49.6471 45.5186H49.5553V45.7532C49.5553 45.9571 49.3921 46.11 49.1984 46.11Z"/><path fill="#fff" d="M74.7786 30.7558C74.5849 30.7558 74.4217 30.5927 74.4217 30.399V30.2461H74.4013C74.2076 30.2461 74.0445 30.083 74.0445 29.8893C74.0445 29.6956 74.2076 29.5324 74.4013 29.5324H74.4217V29.3693C74.4217 29.1756 74.5849 29.0125 74.7786 29.0125C74.9723 29.0125 75.1354 29.1756 75.1354 29.3693V29.5324H75.1659C75.3597 29.5324 75.5228 29.6956 75.5228 29.8893C75.5228 30.083 75.3597 30.2461 75.1558 30.2461H75.1354V30.399C75.1354 30.6029 74.9723 30.7558 74.7786 30.7558Z"/><path fill="#fff" fill-rule="evenodd" d="M58.3945 34.7728C58.8431 34.6504 59.2713 34.4057 59.5976 34.161C59.9238 33.9163 60.1481 33.6615 60.2603 33.5085C60.3724 33.3556 60.3724 33.3046 60.0054 32.6521C59.8321 32.3361 59.5772 31.8671 59.2917 31.3369C58.996 30.7762 58.6698 30.1237 58.4047 29.4916C57.9663 28.4517 57.6503 27.4219 57.4158 26.4126C57.3648 26.2087 57.324 26.015 57.2832 25.8111C57.0385 24.5978 56.8856 23.3948 56.7938 22.5486C56.7021 21.7024 56.6817 21.213 56.6103 20.9275C56.539 20.6421 56.437 20.5707 56.1515 20.8154C55.8661 21.0601 55.4175 21.6208 55.0504 22.3956C54.6936 23.1705 54.4285 24.1594 54.3776 25.3727C54.347 26.1067 54.3878 26.9224 54.5203 27.7992C54.6121 28.3701 54.7344 28.9716 54.8975 29.5935C55.3257 31.1534 56.0292 32.8356 56.4268 33.743C56.6817 34.3344 56.804 34.5892 56.9366 34.7218C57.0079 34.7931 57.0793 34.8237 57.1813 34.8441C57.4769 34.8951 57.9459 34.8951 58.3945 34.7728Z" clip-rule="evenodd"/><path fill="#DEDEDE" fill-rule="evenodd" d="M58.8944 34.579C59.1493 34.4566 59.3939 34.3037 59.5978 34.1508C59.9241 33.9061 60.1484 33.6512 60.2605 33.4983C60.3727 33.3454 60.3727 33.2944 60.0057 32.6419C59.8323 32.3258 59.5775 31.8568 59.292 31.3267C58.9963 30.7659 58.6701 30.1134 58.405 29.4813C57.9666 28.4414 57.6505 27.4219 57.4161 26.4023C57.3651 26.1984 57.3243 26.0047 57.2835 25.8008C57.0388 24.5876 56.8859 23.3845 56.7941 22.5383C56.7024 21.6921 56.682 21.2027 56.6106 20.9173C56.5698 20.744 56.5189 20.6522 56.4169 20.6624C56.2334 21.3761 56.0499 22.2121 55.9887 23.1093C55.8664 24.6895 56.0703 26.4431 56.4679 28.054C56.8655 29.6648 57.4568 31.1432 58.0482 32.5909C58.3438 33.2842 58.6293 33.9775 58.8944 34.579Z" clip-rule="evenodd"/><path fill="#0F172A" d="M63.9613 63.9312C52.6547 63.9312 43.4585 54.735 43.4585 43.4284C43.4585 35.9247 47.557 29.0225 54.1534 25.4235C54.3777 25.3012 54.6733 25.3827 54.7957 25.607C54.918 25.8313 54.8365 26.127 54.6122 26.2493C48.3115 29.675 44.4067 36.2611 44.4067 43.4284C44.4067 54.2151 53.1848 62.9932 63.9715 62.9932C74.7581 62.9932 83.5363 54.2151 83.5363 43.4284C83.5363 40.0538 82.6595 36.7301 81.018 33.8143C80.8855 33.59 80.9671 33.3045 81.2015 33.172C81.4258 33.0394 81.7113 33.121 81.8438 33.3453C83.5771 36.4039 84.4844 39.8907 84.4844 43.4182C84.464 54.735 75.2679 63.9312 63.9613 63.9312ZM79.3154 31.0207C79.1829 31.0207 79.0503 30.9596 78.9586 30.8474C75.2271 26.4023 69.7624 23.8534 63.9715 23.8534C61.6571 23.8534 59.3938 24.2511 57.2426 25.0361C56.9979 25.1279 56.7226 24.9953 56.641 24.7506C56.5493 24.5059 56.6818 24.2307 56.9265 24.1491C59.1797 23.3233 61.5552 22.9053 63.9817 22.9053C70.0581 22.9053 75.7776 25.5764 79.6926 30.2357C79.8558 30.4396 79.8354 30.7353 79.6315 30.8984C79.5295 30.9902 79.4174 31.0207 79.3154 31.0207Z"/><path fill="#0F172A" d="M68.2838 40.5127C68.2023 40.4311 66.8667 40.2476 66.0409 40.4311L66.0307 40.4209C65.1233 40.5943 64.2363 40.9103 63.4717 41.4201L63.4615 41.4099C62.3502 42.1847 59.0061 45.3657 61.3612 46.2221C62.8905 46.8848 64.8378 46.7522 66.3365 45.9876C68.0494 45.2739 69.3136 43.2043 68.9975 41.4812C68.9567 41.0734 68.8752 40.6962 68.2838 40.5127ZM65.6942 45.2637C65.0825 45.5288 64.3994 45.7123 63.7367 45.7225C64.6543 44.8151 64.8276 43.2348 64.0936 42.1541C64.5626 41.8585 65.0927 41.6342 65.6331 41.4914C66.3263 42.6129 66.3569 44.1116 65.6942 45.2637ZM67.9474 43.0003C67.7843 43.5101 67.4478 44.0199 67.0094 44.4277C67.2439 43.398 67.091 42.2561 66.6118 41.3079C67.2745 41.2569 67.7333 41.3181 68.0494 41.4201C68.1003 41.9094 68.1411 42.3784 67.9474 43.0003Z"/><path fill="#0F172A" d="M55.0709 48.9443C54.7753 48.8525 54.5306 49.0768 54.449 49.3419C54.1839 49.7293 53.7863 50.4736 54.5612 50.5551C55.0709 50.5347 55.8254 49.1482 55.0709 48.9443Z"/><path fill="#0F172A" d="M82.7512 28.6046C82.1599 26.1883 80.3043 29.1449 79.3358 29.8994C77.7657 31.2961 76.0835 32.5807 74.2585 32.9478C73.3002 31.5 71.2407 29.512 70.7208 27.9725C70.5678 27.4219 70.6596 26.7592 70.4455 26.2495C69.7114 24.9241 68.1006 25.7907 66.3266 26.5553C64.6749 27.2792 61.3717 28.8697 59.2204 30.1339C57.7931 27.3607 57.4261 23.9759 57.0794 20.8154C56.4575 19.2045 55.1729 21.06 54.6427 22.1917C53.2154 25.444 54.0718 29.1245 55.4176 32.489C52.9197 34.2936 50.4321 35.7209 49.5349 38.1372C49.0863 39.6461 50.2792 41.4915 51.0234 43.0513C51.4006 43.816 52.4508 45.6511 52.0735 46.0284C51.8186 46.6809 50.5952 47.1091 50.7991 47.7922C51.003 49.2399 51.1254 50.7896 51.7983 52.1048C52.1653 52.8796 52.5221 53.4404 53.4397 53.6443C54.4694 53.9807 57.8951 54.1948 59.4243 54.0011C58.4558 56.5805 57.8135 59.7003 57.8747 62.6569L58.8126 62.6773C58.7311 59.6289 59.4549 56.5397 60.4541 53.8788C63.7574 53.1957 66.5713 50.9323 69.9051 50.0351C68.3554 53.0937 67.917 57.6918 69.4463 60.832C69.8542 61.4029 70.6392 63.0545 71.3325 62.5346C72.0665 61.9534 69.8542 60.8625 69.6197 58.3851C70.8431 58.0996 72.0359 57.651 73.1167 57.4063C73.2594 57.8855 73.0657 58.7317 72.8108 59.2517C72.6783 59.5473 72.9229 59.9042 73.2492 59.894C73.9527 59.7614 74.0138 58.5686 74.1056 57.9467C75.2373 57.4675 76.1141 56.9985 76.9807 56.8456C76.9093 57.3452 76.6748 57.9365 76.4811 58.5176C76.267 59.0886 77.1744 59.4148 77.3681 58.8337C78.9993 54.9187 76.634 55.7037 73.9629 56.9781C73.4429 55.6935 70.7004 57.3146 69.5075 57.4369C69.3342 54.7657 69.7726 51.7887 71.2203 49.5967C73.1472 48.8117 77.7861 48.2 76.6136 45.855C77.5618 44.9477 78.3876 43.2756 77.5312 41.9095C79.6518 40.3598 81.1302 37.6682 80.5083 35.6088C82.2517 33.9775 83.1488 30.715 82.7512 28.6046ZM55.3768 29.4508C54.6427 26.7082 54.4898 23.5885 56.2332 21.4271C56.4983 25.8416 57.6402 29.7057 59.8322 33.3046C59.302 33.9877 58.099 34.5688 57.2833 34.3649C56.4881 32.856 55.7133 30.6538 55.3768 29.4508ZM51.8696 42.6231C51.2579 41.3487 50.0956 39.5034 50.4525 38.3921C51.156 36.4754 53.613 34.9665 55.7846 33.376C56.1211 34.1304 56.4779 35.2519 57.0998 35.2927C58.3233 35.5986 60.0055 34.7218 60.6478 33.7838C61.1983 33.1415 59.9749 31.8263 59.6486 30.9801C61.4634 30.0013 68.6919 25.9844 69.5891 26.6165C69.5687 29.3896 72.0156 31.3369 73.5245 33.5391C74.9722 35.5782 74.8193 36.1491 72.403 36.302C67.4583 36.6997 59.8016 39.2791 57.0998 43.8466C55.7438 46.2017 55.336 47.5271 52.3488 47.2212C53.8577 45.9978 52.6649 44.1932 51.8696 42.6231ZM56.3046 53.0835C54.9996 52.9306 53.8271 53.0223 53.0421 52.3698C54.4592 52.2679 55.856 52.7165 57.2324 53.1141C56.9265 53.1141 56.6104 53.1039 56.3046 53.0835ZM75.5024 47.0173C72.8822 48.3631 68.4268 49.2297 65.5721 50.759C65.7658 50.341 66.3368 49.6783 65.7352 49.3622C65.5008 49.2603 65.2255 49.3622 65.1133 49.5865C64.4608 51.1362 63.4311 51.9926 61.6469 52.3597C58.5985 53.1855 55.5603 51.0954 52.5527 51.4523C52.4304 51.1566 52.2978 50.81 52.1959 50.4327C52.6852 50.5653 52.9911 49.8516 52.5629 49.5865C52.3794 49.4642 52.1959 49.3418 52.0837 49.2399C51.7983 48.9748 51.9104 48.5262 51.8288 48.1796C55.4788 48.4548 56.172 47.5169 57.8951 44.3563C60.8517 39.5849 68.5492 37.5357 73.6978 37.0973C70.996 43.3878 77.3579 46.2323 75.5024 47.0173ZM76.6035 44.3767C76.4607 44.6214 76.2772 44.8457 76.0937 45.0496C75.7368 44.5806 75.3494 44.132 75.0334 43.6223C75.5431 43.3266 76.1141 42.9698 76.787 42.4906C77.1132 43.1227 76.9909 43.6936 76.6035 44.3767ZM79.6926 37.0565C79.6213 39.2179 76.6034 41.7259 74.5848 42.7863C74.2076 41.9502 74.0036 41.0327 73.9935 40.1253C75.7267 39.3504 77.7963 38.0964 79.713 36.404C79.7334 36.5977 79.7232 36.8016 79.6926 37.0565ZM81.7521 31.1942C81.2729 34.8645 76.8685 37.6478 74.0648 39.0548C74.2789 37.0157 76.3282 35.884 74.8091 33.794C77.3885 33.1721 79.9373 30.715 81.8234 28.7677C81.9152 29.2877 81.9254 30.2358 81.7521 31.1942Z"/></g><g style="mix-blend-mode:multiply" opacity=".2"><path fill="#191326" fill-rule="evenodd" d="M63.9 67.8977C77.3746 67.8977 88.2979 56.9745 88.2979 43.4999C88.2979 30.0254 77.3746 19.1021 63.9 19.1021C50.4255 19.1021 39.5022 30.0254 39.5022 43.4999C39.5022 56.9745 50.4255 67.8977 63.9 67.8977ZM63.9 69.5999C78.3147 69.5999 90 57.9145 90 43.4999C90 29.0853 78.3147 17.3999 63.9 17.3999C49.4854 17.3999 37.8 29.0853 37.8 43.4999C37.8 57.9145 49.4854 69.5999 63.9 69.5999Z" clip-rule="evenodd"/></g></g><defs><linearGradient id="paint0_linear" x1="63.454" x2="55.428" y1="52.664" y2="83.331" gradientUnits="userSpaceOnUse"><stop stop-color="#404042"/><stop offset="1" stop-color="#48484B"/></linearGradient><linearGradient id="paint1_linear" x1="27.94" x2="25.041" y1="63.058" y2="73.878" gradientUnits="userSpaceOnUse"><stop stop-color="#404042"/><stop offset="1" stop-color="#48484B"/></linearGradient><linearGradient id="paint2_linear" x1="44.097" x2="53.454" y1="48.101" y2="98.772" gradientUnits="userSpaceOnUse"><stop stop-color="#404042"/><stop offset="1" stop-color="#48484B"/></linearGradient><linearGradient id="paint3_linear" x1="63.9" x2="63.9" y1="17.4" y2="69.6" gradientUnits="userSpaceOnUse"><stop stop-color="#F69"/><stop offset="1" stop-color="#FF3369"/></linearGradient><clipPath id="clip0"><rect width="96" height="96" fill="#fff"/></clipPath><clipPath id="clip1"><rect width="52.2" height="52.2" fill="#fff" transform="translate(37.8 17.3999)"/></clipPath></defs></svg>