<svg width="96" height="96" viewBox="0 0 96 96" fill="none" xmlns="http://www.w3.org/2000/svg">
<g clip-path="url(#clip0)">
<path d="M28.8271 71.4167C26.9201 78.7035 37.8271 87.8696 53.1884 91.8897C68.5498 95.9098 82.5486 93.2616 84.4556 85.9748C86.3625 78.688 75.4556 69.5219 60.0942 65.5018C44.7328 61.4817 30.7341 64.1299 28.8271 71.4167Z" fill="#606063"/>
<path d="M82.1547 89.5637L91.408 79.7928L25.7954 62.6218L29.2278 75.7126L82.1547 89.5637Z" fill="#606063"/>
<path d="M29.9603 64.976L4.84355 58.4028C3.75485 58.1179 2.64762 58.7955 2.40585 59.8946L2.12492 61.1716C1.56511 63.7164 3.0718 66.2601 5.57256 66.9921L30.6598 74.3351L29.9603 64.976Z" fill="#606063"/>
<path d="M25.9216 59.2257C23.7054 67.6942 36.9161 78.4866 55.4285 83.3314C73.9409 88.1762 90.7448 85.2386 92.9611 76.7701C95.1773 68.3017 81.9666 57.5092 63.4542 52.6644C44.9417 47.8197 28.1378 50.7573 25.9216 59.2257Z" fill="url(#paint0_linear)"/>
<path fill-rule="evenodd" clip-rule="evenodd" d="M76.6039 73.9714C80.8628 77.1035 83.3516 80.4912 83.723 83.4942L85.5094 83.2733C85.0465 79.5305 82.0672 75.7549 77.6703 72.5213C73.2364 69.2606 67.2065 66.4328 60.3221 64.6311C53.4377 62.8294 46.7957 62.341 41.3329 63.0117C35.9156 63.6769 31.4688 65.509 29.2318 68.5452L30.6809 69.6129C32.4758 67.1768 36.305 65.4426 41.5522 64.7983C46.7539 64.1596 53.1649 64.6187 59.8664 66.3725C66.5679 68.1263 72.3819 70.8665 76.6039 73.9714Z" fill="#606063"/>
<path fill-rule="evenodd" clip-rule="evenodd" d="M34.0406 71.2435C28.8082 66.9688 26.8419 62.8188 27.663 59.6814C28.484 56.5441 32.2312 53.8892 38.8868 52.7257C45.3707 51.5922 53.9337 52.0335 62.9984 54.4058C72.0632 56.7781 79.7446 60.588 84.8421 64.7524C90.0745 69.027 92.0408 73.1771 91.2197 76.3144C90.3986 79.4518 86.6515 82.1066 79.9959 83.2701C73.512 84.4036 64.949 83.9623 55.8842 81.59C46.8195 79.2178 39.1381 75.4079 34.0406 71.2435ZM55.4285 83.3314C36.9161 78.4866 23.7054 67.6942 25.9216 59.2257C28.1378 50.7573 44.9417 47.8197 63.4542 52.6644C81.9666 57.5092 95.1773 68.3017 92.9611 76.7701C90.7448 85.2386 73.9409 88.1762 55.4285 83.3314Z" fill="#979797"/>
<path fill-rule="evenodd" clip-rule="evenodd" d="M27.1003 74.4294L24.1382 62.9559L25.8811 62.5059L28.8431 73.9794L27.1003 74.4294Z" fill="url(#paint1_linear)"/>
<path fill-rule="evenodd" clip-rule="evenodd" d="M26.0815 63.7137C26.0545 63.6248 26.0287 63.536 26.0044 63.4474C25.9594 63.2836 25.919 63.1202 25.8831 62.9572L25.7982 62.6332C25.7969 62.6281 25.8015 62.6235 25.8066 62.6248C25.8114 62.6261 25.8159 62.6219 25.8151 62.6169C25.8142 62.6121 25.8133 62.6072 25.8124 62.6024C25.7839 62.443 25.76 62.2841 25.7405 62.1256C25.7358 62.0875 25.7314 62.0495 25.7273 62.0114C25.6839 61.6135 25.6694 61.2184 25.6847 60.827C25.6847 60.8268 25.6847 60.8265 25.6847 60.8263C25.7059 60.2851 25.784 59.7509 25.9215 59.2257C28.1377 50.7572 44.9416 47.8196 63.454 52.6644C81.9665 57.5091 95.1771 68.3016 92.9609 76.7701C92.8235 77.2953 92.6299 77.7993 92.3833 78.2815C92.3831 78.2817 92.383 78.2819 92.3829 78.2821C92.1166 78.8027 91.7884 79.2978 91.4023 79.7669C91.3991 79.7707 91.3959 79.7746 91.3926 79.7785C91.3915 79.7799 91.391 79.7816 91.391 79.7832C91.3911 79.7861 91.393 79.789 91.3963 79.7898C91.3993 79.7906 91.4012 79.7931 91.4015 79.7958C91.4017 79.7978 91.4011 79.7998 91.3996 79.8015L91.0351 80.1863C90.9929 80.2318 90.9501 80.2769 90.9068 80.3219L90.165 81.1051L90.1637 81.1065L83.2761 88.3794C79.1914 93.798 66.7184 95.4303 53.1883 91.8894C39.8068 88.3874 29.8054 80.9804 28.7103 74.3124C28.6543 73.9712 28.42 73.6802 28.0881 73.5831L6.07626 67.1458C3.59005 66.4187 2.08332 63.8994 2.6189 61.365L2.89436 60.0615C3.12823 58.9548 4.23932 58.2679 5.33386 58.5534L25.8831 63.9123C26.0034 63.9436 26.113 63.8339 26.0815 63.7137ZM23.8871 61.5315C23.8489 60.6053 23.9417 59.6808 24.1801 58.7699C25.5753 53.4388 31.3382 50.3907 38.2667 49.1795C45.3669 47.9382 54.4621 48.4506 63.9097 50.923C73.3574 53.3955 81.5376 57.4042 87.1195 61.9644C92.5665 66.4143 96.0974 71.8947 94.7023 77.2258C94.3679 78.5035 93.7707 79.6641 92.9618 80.6991C92.8925 80.8183 92.8076 80.9324 92.7065 81.0392L92.3539 81.4114C92.3519 81.4136 92.3499 81.4157 92.3479 81.4179C92.3018 81.4674 92.2552 81.5166 92.2081 81.5655C92.206 81.5677 92.2039 81.5698 92.2018 81.572L84.6489 89.5475C82.1469 92.7913 77.4335 94.6236 71.9901 95.2812C66.4105 95.9554 59.68 95.4489 52.7326 93.6308C45.8611 91.8325 39.8038 89.0196 35.2857 85.7457C31.038 82.6678 27.8929 78.9889 27.04 75.152L5.57102 68.8734C2.18171 67.8822 0.127671 64.4478 0.85779 60.9929L1.13325 59.6894C1.57951 57.5777 3.69958 56.267 5.78808 56.8116L23.8871 61.5315Z" fill="url(#paint2_linear)"/>
<path d="M51.6001 17.4C51.6001 22.1154 49.7209 26.4132 46.6585 29.5452L46.2409 29.9628C43.1089 32.9556 38.8806 34.8 34.2001 34.8C29.5194 34.8 25.2912 32.9556 22.1592 29.9628L22.1418 29.9454C22.0026 29.8062 21.8634 29.6844 21.7416 29.5452C18.6792 26.4132 16.8 22.1154 16.8 17.4C16.8 7.7952 24.5952 0 34.2001 0C39.1243 0 43.5787 2.0532 46.7455 5.3418C49.7557 8.4738 51.6001 12.7194 51.6001 17.4Z" fill="#FF6666"/>
<path d="M51.6001 17.4C51.6001 22.1154 49.7209 26.4132 46.6585 29.5452L46.2409 29.9628C43.1089 32.9556 38.8806 34.8 34.2 34.8C29.5194 34.8 25.2912 32.9556 22.1592 29.9628L22.1418 29.9454L46.7455 5.3418C49.7557 8.4738 51.6001 12.7194 51.6001 17.4Z" fill="#D95E59"/>
<path d="M34.2001 28.5534C40.3408 28.5534 45.3187 23.5598 45.3187 17.4C45.3187 11.2401 40.3408 6.24658 34.2001 6.24658C28.0595 6.24658 23.0815 11.2401 23.0815 17.4C23.0815 23.5598 28.0595 28.5534 34.2001 28.5534Z" fill="#F5F7E2"/>
<path fill-rule="evenodd" clip-rule="evenodd" d="M46.2408 29.9628C43.1088 32.9556 38.8806 34.8 34.2 34.8C29.5194 34.8 25.2912 32.9556 22.1592 29.9628C25.1868 26.796 29.4672 24.8124 34.2 24.8124C38.9328 24.8124 43.2132 26.796 46.2408 29.9628Z" fill="#F5F7E2"/>
<path d="M34.2001 26.9003C39.447 26.9003 43.7005 22.6469 43.7005 17.3999C43.7005 12.153 39.447 7.89954 34.2001 7.89954C28.9532 7.89954 24.6997 12.153 24.6997 17.3999C24.6997 22.6469 28.9532 26.9003 34.2001 26.9003Z" fill="#F7931A"/>
<path d="M36.6709 16.1994C36.3751 17.3826 34.5655 16.7736 33.9739 16.6344L34.4959 14.5464C35.0701 14.703 36.9667 14.964 36.6709 16.1994ZM36.3403 19.5576C36.0097 20.8452 33.8347 20.1492 33.1213 19.9752L33.6955 17.6784C34.4089 17.8698 36.6883 18.2178 36.3403 19.5576ZM38.7241 16.2168C38.9155 14.9466 37.9411 14.268 36.6361 13.8156L37.0711 12.1104L36.0271 11.8494L35.6095 13.5198C35.3311 13.4502 35.0527 13.3806 34.7743 13.3284L35.1919 11.6406L34.1479 11.3796L33.7129 13.0848C33.4867 13.0326 33.2605 12.9804 33.0517 12.9282L31.6075 12.5628L31.3291 13.6764C31.3291 13.6764 32.1121 13.8504 32.0947 13.8678C32.5123 13.9722 32.5993 14.2506 32.5819 14.4768L32.0947 16.4256C32.1295 16.4256 32.1643 16.443 32.1991 16.4604C32.1643 16.4604 32.1295 16.443 32.0947 16.4256L31.4161 19.1574C31.3639 19.2792 31.2247 19.4706 30.9463 19.401C30.9637 19.4184 30.1807 19.2096 30.1807 19.2096L29.6587 20.4102L31.0159 20.7408C31.2769 20.8104 31.5205 20.8626 31.7641 20.9322L31.3291 22.6722L32.3731 22.9332L32.8081 21.2106C33.0865 21.2802 33.3649 21.3672 33.6433 21.4194L33.2083 23.1246L34.2523 23.3856L34.6873 21.663C36.4621 21.9936 37.8019 21.8718 38.3761 20.2536C38.8285 18.966 38.3587 18.2178 37.4191 17.7306C38.0803 17.5914 38.5849 17.139 38.7241 16.2168Z" fill="white"/>
<g style="mix-blend-mode:multiply" opacity="0.1">
<path fill-rule="evenodd" clip-rule="evenodd" d="M34.2001 33C42.8157 33 49.8 26.0156 49.8 17.4C49.8 8.78436 42.8157 1.8 34.2001 1.8C25.5844 1.8 18.6 8.78436 18.6 17.4C18.6 26.0156 25.5844 33 34.2001 33ZM34.2001 34.8C43.8098 34.8 51.6001 27.0098 51.6001 17.4C51.6001 7.79025 43.8098 0 34.2001 0C24.5903 0 16.8 7.79025 16.8 17.4C16.8 27.0098 24.5903 34.8 34.2001 34.8Z" fill="#191326"/>
</g>
<path d="M45.4446 25.0444C35.2519 35.2368 35.2519 51.7618 45.4446 61.9543L82.3565 25.0444C72.1637 14.8519 55.6374 14.8519 45.4446 25.0444ZM59.2869 34.2722C56.7387 31.7241 56.7387 27.5925 59.2869 25.0444C61.8351 22.4962 65.9669 22.4962 68.5142 25.0444C71.0624 27.5925 71.0624 31.7241 68.5142 34.2722C65.966 36.8203 61.8351 36.8203 59.2869 34.2722Z" fill="#FF6666"/>
<path d="M82.3548 61.9551C72.1645 51.7618 55.6382 51.7618 45.4446 61.9551L82.3548 25.0427C92.5484 35.236 92.5484 51.7618 82.3548 61.9551Z" fill="#D95E59"/>
<path d="M82.3548 61.9551C72.1645 72.1484 55.6382 72.1484 45.4446 61.9551C55.6382 51.7619 72.1645 51.7619 82.3548 61.9551Z" fill="#FFF4C7"/>
<path d="M61.5935 27.3509C60.3194 28.625 60.3194 30.6908 61.5935 31.9649C62.8676 33.2389 64.9335 33.2389 66.2076 31.9649C67.4817 30.6908 67.4817 28.625 66.2076 27.3509C64.9335 26.0769 62.8676 26.0769 61.5935 27.3509Z" fill="#016273"/>
<path d="M62.2447 35.888C61.2241 35.6064 60.0445 34.8921 59.2846 34.0955C56.4933 31.1692 56.9879 26.5327 60.3279 24.3158C63.5735 22.1616 67.9139 23.3226 69.6353 26.8055C71.4466 30.4703 69.5643 34.6868 65.5905 35.8658C64.7401 36.1181 63.1178 36.1288 62.2447 35.888ZM64.9086 32.8117C66.908 32.2179 67.8239 29.6982 66.7006 27.8814C65.8607 26.5229 64.0647 25.9866 62.5447 26.6405C60.5053 27.5178 59.9281 30.1865 61.4205 31.8383C62.3852 32.9061 63.5221 33.2234 64.9086 32.8117Z" fill="white"/>
<g style="mix-blend-mode:multiply" opacity="0.2">
<path fill-rule="evenodd" clip-rule="evenodd" d="M63.9 67.8979C77.3746 67.8979 88.2979 56.9746 88.2979 43.5C88.2979 30.0255 77.3746 19.1022 63.9 19.1022C50.4255 19.1022 39.5022 30.0255 39.5022 43.5C39.5022 56.9746 50.4255 67.8979 63.9 67.8979ZM63.9 69.6C78.3147 69.6 90 57.9147 90 43.5C90 29.0854 78.3147 17.4 63.9 17.4C49.4854 17.4 37.8 29.0854 37.8 43.5C37.8 57.9147 49.4854 69.6 63.9 69.6Z" fill="#191326"/>
</g>
</g>
<defs>
<linearGradient id="paint0_linear" x1="63.4542" y1="52.6644" x2="55.4285" y2="83.3314" gradientUnits="userSpaceOnUse">
<stop stop-color="#404042"/>
<stop offset="1" stop-color="#48484B"/>
</linearGradient>
<linearGradient id="paint1_linear" x1="27.9403" y1="63.0577" x2="25.0411" y2="73.8776" gradientUnits="userSpaceOnUse">
<stop stop-color="#404042"/>
<stop offset="1" stop-color="#48484B"/>
</linearGradient>
<linearGradient id="paint2_linear" x1="44.0969" y1="48.1012" x2="53.4537" y2="98.7722" gradientUnits="userSpaceOnUse">
<stop stop-color="#404042"/>
<stop offset="1" stop-color="#48484B"/>
</linearGradient>
<clipPath id="clip0">
<rect width="96" height="96" fill="white"/>
</clipPath>
</defs>
</svg>
