<svg width="160" height="160" viewBox="0 0 160 160" fill="none" xmlns="http://www.w3.org/2000/svg">
<g clip-path="url(#clip0)">
<path d="M48.045 119.028C44.8667 131.172 63.0449 146.449 88.6472 153.149C114.25 159.849 137.581 155.436 140.759 143.291C143.937 131.146 125.759 115.87 100.157 109.169C74.5546 102.469 51.2233 106.883 48.045 119.028Z" fill="#606063"/>
<path d="M136.924 149.273L152.346 132.988L42.9922 104.369L48.7128 126.187L136.924 149.273Z" fill="#606063"/>
<path d="M49.9337 108.293L8.07245 97.338C6.25796 96.8632 4.41259 97.9924 4.00962 99.8242L3.54142 101.953C2.60839 106.194 5.11954 110.433 9.28748 111.653L51.0994 123.892L49.9337 108.293Z" fill="#606063"/>
<path d="M43.2026 98.7096C39.5089 112.824 61.5267 130.811 92.3808 138.886C123.235 146.96 151.241 142.064 154.935 127.95C158.629 113.836 136.611 95.8488 105.757 87.7742C74.9028 79.6996 46.8963 84.5955 43.2026 98.7096Z" fill="url(#paint0_linear)"/>
<path fill-rule="evenodd" clip-rule="evenodd" d="M127.673 123.286C134.771 128.506 138.919 134.152 139.538 139.157L142.516 138.789C141.744 132.551 136.779 126.258 129.45 120.869C122.061 115.434 112.011 110.721 100.537 107.718C89.0628 104.716 77.9927 103.901 68.888 105.019C59.8593 106.128 52.4479 109.182 48.7196 114.242L51.1348 116.021C54.1263 111.961 60.5082 109.071 69.2536 107.997C77.9231 106.933 88.6081 107.698 99.7773 110.621C110.946 113.544 120.636 118.111 127.673 123.286Z" fill="#606063"/>
<path fill-rule="evenodd" clip-rule="evenodd" d="M56.7343 118.739C48.0136 111.615 44.7365 104.698 46.1049 99.4692C47.4733 94.2403 53.7186 89.8155 64.8112 87.8763C75.6178 85.9872 89.8893 86.7226 104.997 90.6764C120.105 94.6302 132.908 100.98 141.403 107.921C150.124 115.045 153.401 121.962 152.033 127.191C150.664 132.42 144.419 136.844 133.326 138.784C122.52 140.673 108.248 139.937 93.1403 135.984C78.0323 132.03 65.2301 125.68 56.7343 118.739ZM92.3808 138.886C61.5267 130.811 39.5089 112.824 43.2026 98.7096C46.8963 84.5955 74.9028 79.6996 105.757 87.7742C136.611 95.8488 158.629 113.836 154.935 127.95C151.241 142.064 123.235 146.96 92.3808 138.886Z" fill="#979797"/>
<path fill-rule="evenodd" clip-rule="evenodd" d="M45.1673 124.049L40.2305 104.926L43.1352 104.176L48.0721 123.299L45.1673 124.049Z" fill="url(#paint1_linear)"/>
<path fill-rule="evenodd" clip-rule="evenodd" d="M43.4691 106.189C43.4241 106.041 43.3812 105.893 43.3406 105.746C43.2656 105.473 43.1983 105.2 43.1386 104.929L42.997 104.389C42.9948 104.38 43.0025 104.372 43.0109 104.375C43.019 104.377 43.0266 104.37 43.0251 104.362C43.0236 104.353 43.0222 104.345 43.0207 104.337C42.9732 104.072 42.9333 103.807 42.9009 103.543C42.8931 103.479 42.8857 103.416 42.8788 103.352C42.8065 102.689 42.7824 102.031 42.8078 101.378C42.8079 101.378 42.8079 101.378 42.8079 101.377C42.8432 100.475 42.9734 99.5849 43.2025 98.7095C46.8962 84.5954 74.9027 79.6994 105.757 87.774C136.611 95.8486 158.629 113.836 154.935 127.95C154.706 128.826 154.383 129.666 153.972 130.469C153.972 130.469 153.972 130.47 153.972 130.47C153.528 131.338 152.981 132.163 152.337 132.945C152.332 132.951 152.326 132.958 152.321 132.964C152.319 132.967 152.318 132.969 152.318 132.972C152.318 132.977 152.322 132.982 152.327 132.983C152.332 132.984 152.335 132.989 152.336 132.993C152.336 132.996 152.335 133 152.333 133.002L151.725 133.644C151.655 133.72 151.584 133.795 151.511 133.87L150.275 135.175L150.273 135.177L138.793 147.299C131.986 156.33 111.197 159.051 88.6472 153.149C66.3446 147.312 49.6757 134.967 47.8505 123.854C47.7571 123.285 47.3667 122.8 46.8135 122.639L10.1271 111.91C5.98342 110.698 3.4722 106.499 4.36483 102.275L4.82393 100.103C5.21371 98.2581 7.06553 97.1133 8.88976 97.589L43.1386 106.52C43.3391 106.573 43.5217 106.39 43.4691 106.189ZM39.8119 102.553C39.7482 101.009 39.9029 99.4681 40.3002 97.9499C42.6255 89.0648 52.2303 83.9845 63.7779 81.9658C75.6114 79.8971 90.7702 80.751 106.516 84.8718C122.262 88.9926 135.896 95.6738 145.199 103.274C154.277 110.691 160.162 119.825 157.837 128.71C157.28 130.839 156.285 132.774 154.936 134.499C154.821 134.697 154.679 134.887 154.511 135.065L153.923 135.686C153.92 135.689 153.916 135.693 153.913 135.697C153.836 135.779 153.759 135.861 153.68 135.943C153.677 135.946 153.673 135.95 153.67 135.953L141.082 149.246C136.911 154.652 129.056 157.706 119.984 158.802C110.684 159.926 99.4667 159.082 87.8877 156.051C76.4351 153.054 66.3397 148.366 58.8095 142.91C51.73 137.78 46.4882 131.648 45.0667 125.253L9.28503 114.789C3.63618 113.137 0.212785 107.413 1.42965 101.655L1.88875 99.4823C2.63251 95.9628 6.16596 93.7783 9.64679 94.6861L39.8119 102.553Z" fill="url(#paint2_linear)"/>
<circle cx="57" cy="29" r="29" fill="#F0B90B"/>
<path d="M46.1848 28.9998L41.7478 33.4676L37.28 28.9998L41.7478 24.532L46.1848 28.9998ZM57 18.1846L64.6415 25.8261L69.1093 21.3583L61.4678 13.7476L57 9.27979L52.5322 13.7476L44.9215 21.3583L49.3893 25.8261L57 18.1846ZM72.2522 24.532L67.8152 28.9998L72.283 33.4676L76.72 28.9998L72.2522 24.532ZM57 39.815L49.3585 32.1735L44.9215 36.6413L52.563 44.2828L57 48.7198L61.4678 44.252L69.1093 36.6105L64.6415 32.1735L57 39.815ZM57 33.4676L61.4678 28.9998L57 24.532L52.5322 28.9998L57 33.4676Z" fill="#FFFDFA"/>
<g style="mix-blend-mode:multiply" opacity="0.1">
<path fill-rule="evenodd" clip-rule="evenodd" d="M57 55C71.3594 55 83 43.3594 83 29C83 14.6406 71.3594 3 57 3C42.6406 3 31 14.6406 31 29C31 43.3594 42.6406 55 57 55ZM57 58C73.0163 58 86 45.0163 86 29C86 12.9837 73.0163 0 57 0C40.9837 0 28 12.9837 28 29C28 45.0163 40.9837 58 57 58Z" fill="#191326"/>
</g>
<path d="M106.501 29C82.5146 29 63.001 48.5136 63.001 72.5C63.001 96.4864 82.5146 116 106.501 116C130.487 116 150.001 96.4864 150.001 72.5C150.001 48.5355 130.487 29 106.501 29Z" fill="#005596"/>
<path d="M106.5 29C82.5136 29 63 48.5136 63 72.5C63 96.4864 82.5136 116 106.5 116C130.486 116 150 96.4864 150 72.5C150 48.5355 130.486 29 106.5 29ZM106.5 115.715C82.689 115.715 63.307 96.3329 63.307 72.5219C63.307 48.7109 82.689 29.3289 106.5 29.3289C130.311 29.3289 149.693 48.7109 149.693 72.5219C149.693 96.3329 130.311 115.715 106.5 115.715Z" fill="#005596"/>
<path d="M106.522 48.8209C93.3882 48.8209 82.6886 59.4986 82.6886 72.6539C82.6886 85.7872 93.3663 96.4868 106.522 96.4868C119.655 96.4868 130.354 85.8091 130.354 72.6539C130.354 59.5205 119.655 48.8209 106.522 48.8209ZM86.6571 82.6299C85.1442 79.6261 84.2892 76.2277 84.2892 72.6539C84.2892 61.45 92.5989 52.1755 103.386 50.6627C102.421 64.9361 96.4578 75.2849 86.6571 82.6299ZM114.502 93.3953C112.025 94.3381 109.328 94.8862 106.522 94.8862C103.715 94.8862 101.018 94.36 98.5407 93.4172C97.6417 92.0359 97.1155 90.4354 97.1155 88.6813C97.1155 83.7481 101.325 79.7577 106.522 79.7577C111.718 79.7577 115.928 83.7481 115.928 88.6813C115.928 90.4134 115.401 92.0359 114.502 93.3953ZM126.386 82.6299C116.585 75.2849 110.643 64.9361 109.679 50.6407C120.466 52.1755 128.776 61.428 128.776 72.6319C128.754 76.2496 127.899 79.6261 126.386 82.6299ZM135.068 43.9535C127.438 36.3234 117.287 32.1138 106.5 32.1138C95.7123 32.1138 85.5608 36.3234 77.9308 43.9535C70.3007 51.5835 66.0911 61.735 66.0911 72.5223C66.0911 83.3096 70.3007 93.4611 77.9308 101.091C85.5608 108.721 95.7123 112.931 106.5 112.931C117.287 112.931 127.438 108.721 135.068 101.091C142.698 93.4611 146.908 83.3096 146.908 72.5223C146.886 61.7131 142.698 51.5835 135.068 43.9535ZM106.5 111.308C85.0785 111.308 67.6916 93.9434 67.6916 72.5004C67.6916 51.0793 85.0565 33.6924 106.5 33.6924C127.921 33.6924 145.308 51.0573 145.308 72.5004C145.286 93.9434 127.921 111.308 106.5 111.308Z" fill="white" stroke="#8A8C8E" stroke-width="0.0822847" stroke-miterlimit="10"/>
<path d="M125.049 84.8658C123.273 87.5626 120.927 89.8648 118.164 91.5749C118.274 90.983 118.318 90.391 118.318 89.7771C118.318 83.6599 113.012 78.6828 106.456 78.6828C99.9006 78.6828 94.5946 83.6379 94.5946 89.7771C94.5946 90.391 94.6385 90.983 94.7481 91.5749C91.9855 89.8648 89.6395 87.5626 87.8635 84.8658C91.9855 81.555 95.4936 77.6523 98.2123 73.1137H114.656C117.397 77.6304 120.927 81.5331 125.049 84.8658ZM108.473 50.5306C107.816 50.4648 107.136 50.4429 106.456 50.4429C105.777 50.4429 105.097 50.4867 104.417 50.5306C104.264 58.9499 102.203 66.1415 98.7385 72.2367H114.152C110.688 66.1415 108.627 58.9499 108.473 50.5306Z" fill="#EF3E42"/>
<path opacity="0.8" d="M125.049 84.8657C123.273 87.5625 120.927 89.8647 118.164 91.5749" stroke="white" stroke-width="0.246861" stroke-miterlimit="10"/>
<path d="M107.246 91.334C106.983 91.1805 106.785 90.9174 106.72 90.6104C106.698 90.5008 106.588 90.4131 106.457 90.4131C106.325 90.4131 106.215 90.5008 106.193 90.6104C106.128 90.9174 105.93 91.1585 105.667 91.334C105.623 91.3559 105.623 91.3778 105.645 91.4217C105.799 91.7286 106.062 92.1233 106.391 92.3864C106.435 92.4302 106.457 92.4302 106.457 92.4302C106.457 92.4302 106.478 92.4302 106.522 92.3864C106.851 92.1233 107.114 91.7286 107.268 91.4217C107.312 91.3778 107.29 91.3559 107.246 91.334Z" fill="url(#paint3_linear)"/>
<path d="M108.013 86.3352C108.013 85.4362 106.829 82.5859 106.456 82.5859C106.434 82.5859 106.412 82.6079 106.368 82.6298C105.93 82.9806 104.899 85.4801 104.899 86.3352C104.899 87.0149 106.259 88.7908 106.259 89.7775C106.259 89.8652 106.346 89.9529 106.434 89.9529C106.544 89.9529 106.61 89.8652 106.61 89.7775C106.653 88.7908 108.013 87.0149 108.013 86.3352Z" fill="url(#paint4_linear)"/>
<path d="M105.689 89.6902C105.053 88.0019 103.935 87.0811 102.795 87.0811C101.918 87.0811 101.216 87.7827 101.216 88.6597C101.216 89.5367 101.918 90.2383 102.795 90.2383C103.058 90.2383 103.321 90.1068 103.453 89.9752C103.672 89.7121 103.628 89.4709 103.606 89.4051C103.584 89.3394 103.518 89.3613 103.497 89.3613C103.475 89.3613 103.431 89.3613 103.409 89.3613C103.124 89.3613 102.883 89.1201 102.883 88.8351C102.883 88.5501 103.124 88.3089 103.409 88.3089C103.935 88.3089 104.834 88.8132 105.338 89.8656C105.36 89.9313 105.448 89.9752 105.514 89.9752C105.623 89.9752 105.711 89.8875 105.711 89.7779C105.711 89.734 105.711 89.7121 105.689 89.6902Z" fill="url(#paint5_linear)"/>
<path d="M110.074 87.0591C108.934 87.0591 107.815 87.98 107.18 89.6682C107.158 89.6901 107.158 89.7121 107.158 89.7559C107.158 89.8655 107.245 89.9532 107.355 89.9532C107.421 89.9532 107.487 89.9094 107.53 89.8436C108.013 88.7912 108.934 88.2869 109.46 88.2869C109.745 88.2869 109.986 88.5281 109.986 88.8131C109.986 89.0981 109.745 89.3393 109.46 89.3393C109.438 89.3393 109.394 89.3393 109.372 89.3393C109.35 89.3393 109.284 89.3174 109.263 89.3832C109.241 89.427 109.197 89.6901 109.416 89.9532C109.548 90.1067 109.811 90.2163 110.074 90.2163C110.951 90.2163 111.652 89.5147 111.652 88.6377C111.652 87.7826 110.951 87.0591 110.074 87.0591Z" fill="url(#paint6_linear)"/>
<path d="M83.7852 43.7114L79.6194 48.2938L86.8767 54.8933C87.3371 54.389 87.7976 53.9286 88.3018 53.4462L86.0435 51.3853L88.85 48.2938C90.1217 46.8905 90.1217 44.6542 88.7184 43.3825C87.3152 42.1547 85.0569 42.3081 83.7852 43.7114ZM87.4468 47.2194L84.728 50.2232L82.2943 48.0087L85.013 45.0269C85.6269 44.3472 86.6794 44.3033 87.3371 44.9173C88.0168 45.5092 88.0607 46.5617 87.4468 47.2194ZM93.3666 38.8439L92.6211 50.1794C93.3008 49.7628 93.9805 49.39 94.6821 49.0392L94.7918 46.4082C96.1511 45.8162 97.5763 45.3119 99.0453 44.9173L100.777 46.9125C101.545 46.7371 102.312 46.6055 103.101 46.5178L95.4495 38.1204C94.7479 38.3177 94.0463 38.5589 93.3666 38.8439ZM94.8575 44.5665L95.0329 40.291L97.8394 43.514C96.8308 43.821 95.8223 44.1718 94.8575 44.5665ZM113.735 39.8525C113.735 37.9669 111.959 36.4321 110.074 36.4321H104.329V46.3643C104.987 46.3205 105.667 46.2766 106.346 46.2766V43.2509H108.868L111.06 46.6932C111.916 46.8467 112.771 47.044 113.604 47.2852L110.995 43.1194C112.507 42.7466 113.735 41.4092 113.735 39.8525ZM110.074 41.4969H106.368V38.2081H110.074C110.995 38.2081 111.718 38.9536 111.718 39.8525C111.718 40.7514 110.995 41.4969 110.074 41.4969ZM126.386 46.9782L127.373 48.0087C129.719 50.4863 130.267 52.5034 128.776 53.9067C128.184 54.4548 127.263 54.6083 126.342 54.411C125.18 54.1917 123.887 53.3585 122.681 52.1088C121.628 51.0125 120.839 49.697 120.488 48.7981L121.935 47.7018C123.558 51.1441 126.255 53.1393 127.219 52.328C128.118 51.5826 127.132 50.3986 126.014 49.2146L124.917 48.0526C123.777 46.8467 123.032 44.9611 124.347 43.7333C126.54 41.6504 131.166 44.9611 132.328 48.2718C132.328 48.2718 131.363 48.9954 130.925 49.3243C130.399 47.4825 127.658 44.7419 126.145 45.0927C125.75 45.1804 125.312 45.8381 126.386 46.9782ZM121.256 39.5017L117.419 48.7323C116.805 48.4472 116.147 48.1841 115.511 47.943L119.348 38.7124C120.006 38.9536 120.642 39.2167 121.256 39.5017Z" fill="url(#paint7_linear)"/>
<path d="M100.405 102.889L100.295 103.437L101.589 103.744H101.61V103.722L101.742 103.196L100.405 102.889Z" fill="white"/>
<path d="M106.632 103.546H106.588V104.072V104.116L107.772 104.138L107.728 104.533C107.706 104.862 107.268 105.147 106.632 105.147C105.689 105.125 105.075 104.489 105.097 103.765C105.097 103.48 105.185 103.217 105.338 102.998C105.404 102.888 105.557 102.757 105.667 102.691C105.711 102.669 105.733 102.647 105.777 102.625C106.018 102.472 106.325 102.406 106.697 102.406C107.377 102.428 107.662 102.757 107.838 102.932C107.838 102.932 107.838 102.932 107.86 102.954L108.232 102.581L108.254 102.559C108.035 102.34 107.574 101.88 106.697 101.858H106.676C105.492 101.836 104.615 102.691 104.593 103.765V103.787C104.593 103.787 104.593 103.787 104.593 103.809C104.571 105.081 105.623 105.761 106.61 105.782C107.026 105.782 107.377 105.717 107.662 105.563C107.75 105.519 107.816 105.476 107.881 105.41C107.991 105.322 108.079 105.234 108.145 105.125C108.232 104.993 108.276 104.84 108.276 104.664L108.298 103.678L106.632 103.546Z" fill="white"/>
<path d="M83.6973 95.0392C83.8289 94.9076 83.8289 94.6664 83.8727 94.491C83.9385 94.0525 83.7412 93.5921 83.2149 92.8686L82.8641 92.4081C82.5791 92.0354 82.6668 91.7504 82.7107 91.6188C82.7326 91.575 82.7764 91.5311 82.8203 91.4873C82.8641 91.4434 82.9299 91.4215 82.9957 91.4215C83.0176 91.4215 83.0395 91.4215 83.0615 91.4215C83.6973 91.4215 84.662 92.4301 84.8813 93.2632V93.2851L84.9032 93.2632C85.0347 93.1974 85.1444 93.1536 85.2321 93.0878H85.254C85.1444 92.6712 84.9032 92.2108 84.6182 91.8381C84.1358 91.2242 83.478 90.7856 82.9299 90.7856C82.7326 90.7856 82.5572 90.8514 82.4037 90.961C82.3598 91.0049 82.316 91.0268 82.2721 91.0707C82.2064 91.1584 82.1625 91.2461 82.1187 91.3557C82.0967 91.3996 82.0967 91.4434 82.0967 91.5092C82.0967 91.553 82.0967 91.5969 82.0967 91.6407C82.0967 91.9477 82.2721 92.3643 82.5133 92.6932L82.8641 93.1755C83.1272 93.5263 83.3903 93.8552 83.3903 94.1622C83.3903 94.206 83.3903 94.2279 83.3684 94.3156C83.3684 94.3376 83.3465 94.4033 83.3246 94.4253C83.3026 94.491 83.2588 94.5349 83.2149 94.5787C83.193 94.6007 83.1711 94.6226 83.1272 94.6445C83.0615 94.6884 82.9738 94.7103 82.8861 94.7103C82.5791 94.7103 82.1625 94.4033 81.7679 93.8991C81.4609 93.5044 81.1759 92.9782 80.9785 92.3862L80.9566 92.3424L80.54 92.737C80.54 92.737 80.7374 93.4606 81.1978 94.0964C81.6144 94.6445 82.1187 95.083 82.5572 95.2146C82.7107 95.2584 82.8422 95.2804 82.9738 95.2804C83.1711 95.2804 83.3684 95.2804 83.478 95.1927C83.6096 95.1269 83.6534 95.083 83.6973 95.0392Z" fill="white"/>
<path d="M94.3974 99.2931L93.915 99.0519L92.5776 101.595L91.9418 98.0214V97.9995L91.4813 97.7583L91.4594 97.7802L89.7273 101.091V101.113L90.1877 101.31L90.2097 101.288L91.5471 98.723L92.2268 102.231L92.6872 102.428L92.7091 102.406H92.7311L94.4193 99.315L94.3974 99.2931Z" fill="white"/>
<path d="M87.7978 95.1051L87.3374 94.7104L83.5881 96.4864L83.9828 96.8372L85.2983 96.2452L86.6358 97.3853L86.2192 98.7009V98.7228L86.6138 99.0078L86.6358 98.964L87.7978 95.1051ZM87.1839 95.3244L86.7454 96.7934L85.8465 96.026L87.1839 95.3244Z" fill="white"/>
<path d="M90.3412 96.9905L89.8588 96.6616L87.7759 99.8627L88.2144 100.148H88.2363L90.3412 96.9905Z" fill="white"/>
<path d="M95.4278 99.7314L95.2744 100.236L95.2524 100.258L96.568 100.696L95.4717 103.7L95.4936 103.722H95.4717L95.9102 103.853L95.9321 103.81L96.9626 100.828L98.2124 101.266L98.2343 101.222V101.244V101.222H98.2562L98.4097 100.762L95.4278 99.7314Z" fill="white"/>
<path d="M112.946 104.445H112.903L110.359 104.796L110.184 103.722L111.434 103.546L111.412 103.524V103.503H111.434H111.455L111.368 102.976H111.346L110.096 103.152L109.965 102.231L112.442 101.88L112.42 101.858V101.836H112.442H112.464L112.442 101.814H112.464L112.398 101.288H112.354L109.373 101.727V101.749V101.77L109.394 101.814L109.899 105.432L109.921 105.454L112.99 105.015L112.968 104.993H112.99V104.972H113.012L112.946 104.445Z" fill="white"/>
<path d="M116.607 102.34C116.739 102.274 116.936 102.209 117.046 102.055C117.199 101.836 117.309 101.507 117.178 101.068C117.09 100.74 116.936 100.52 116.695 100.411C116.41 100.257 116.081 100.235 115.774 100.345L113.669 100.981L113.976 102.011L114.744 104.576L114.919 104.533L115.182 104.467L114.744 102.976L116.169 102.515L117.287 103.831L117.726 103.634L117.769 103.612L116.607 102.34ZM115.928 100.849C116.235 100.761 116.564 100.827 116.695 101.244C116.717 101.288 116.717 101.332 116.717 101.353C116.717 101.397 116.717 101.419 116.717 101.463C116.717 101.507 116.717 101.529 116.695 101.573C116.629 101.748 116.476 101.858 116.235 101.945L114.568 102.45L114.261 101.441L115.928 100.849Z" fill="white"/>
<path d="M123.821 96.1577L123.317 96.5085L124.128 100.543L124.567 100.258L124.589 100.236L124.326 98.8765L125.707 97.8679L126.869 98.5695L127.286 98.2845L127.329 98.2626L123.821 96.1577ZM124.216 98.2626L123.887 96.8155L125.203 97.5829L124.216 98.2626Z" fill="white"/>
<path d="M126.167 94.2939L125.773 94.6667L128.316 97.3854L128.667 97.1004H128.645L128.689 97.0785L126.167 94.2939Z" fill="white"/>
<path d="M132.24 93.329L129.478 90.7856L129.127 91.1803L131.363 93.1536L127.614 92.8686L127.263 93.2413L130.07 95.7189L130.311 95.4338H130.289L130.333 95.39L128.228 93.4386L131.933 93.6579L132.218 93.3509L132.24 93.329Z" fill="white"/>
<path d="M121.322 97.8462L120.84 98.0874L120.774 100.784L119.436 99.8853L118.559 99.2494L118.515 99.2713L118.121 99.4687L118.099 99.4906L118.121 99.5125L119.765 102.867L120.16 102.648V102.626H120.182L119.02 100.17L120.028 100.872L121.234 101.683V101.661H121.256V101.639L121.322 99.8195L121.366 99.0521L121.607 99.5344L122.637 101.398H122.659L122.966 101.135H122.988L123.01 101.113L121.322 97.8462Z" fill="white"/>
<g style="mix-blend-mode:multiply" opacity="0.2">
<path fill-rule="evenodd" clip-rule="evenodd" d="M106.5 113.163C128.958 113.163 147.163 94.9576 147.163 72.5C147.163 50.0424 128.958 31.837 106.5 31.837C84.0424 31.837 65.837 50.0424 65.837 72.5C65.837 94.9576 84.0424 113.163 106.5 113.163ZM106.5 116C130.524 116 150 96.5244 150 72.5C150 48.4756 130.524 29 106.5 29C82.4756 29 63 48.4756 63 72.5C63 96.5244 82.4756 116 106.5 116Z" fill="#191326"/>
</g>
</g>
<defs>
<linearGradient id="paint0_linear" x1="105.757" y1="87.7742" x2="92.3808" y2="138.886" gradientUnits="userSpaceOnUse">
<stop stop-color="#404042"/>
<stop offset="1" stop-color="#48484B"/>
</linearGradient>
<linearGradient id="paint1_linear" x1="46.5673" y1="105.096" x2="41.7353" y2="123.129" gradientUnits="userSpaceOnUse">
<stop stop-color="#404042"/>
<stop offset="1" stop-color="#48484B"/>
</linearGradient>
<linearGradient id="paint2_linear" x1="73.4948" y1="80.1687" x2="89.0896" y2="164.62" gradientUnits="userSpaceOnUse">
<stop stop-color="#404042"/>
<stop offset="1" stop-color="#48484B"/>
</linearGradient>
<linearGradient id="paint3_linear" x1="103.924" y1="85.5026" x2="106.98" y2="92.5787" gradientUnits="userSpaceOnUse">
<stop stop-color="#D0B15E"/>
<stop offset="0.2638" stop-color="#BD9A54"/>
<stop offset="1" stop-color="#9C844D"/>
</linearGradient>
<linearGradient id="paint4_linear" x1="105.837" y1="84.6765" x2="108.893" y2="91.7531" gradientUnits="userSpaceOnUse">
<stop stop-color="#D0B15E"/>
<stop offset="0.2638" stop-color="#BD9A54"/>
<stop offset="1" stop-color="#9C844D"/>
</linearGradient>
<linearGradient id="paint5_linear" x1="102.138" y1="86.2744" x2="105.194" y2="93.351" gradientUnits="userSpaceOnUse">
<stop stop-color="#D0B15E"/>
<stop offset="0.2638" stop-color="#BD9A54"/>
<stop offset="1" stop-color="#9C844D"/>
</linearGradient>
<linearGradient id="paint6_linear" x1="107.252" y1="84.0656" x2="110.308" y2="91.1422" gradientUnits="userSpaceOnUse">
<stop stop-color="#D0B15E"/>
<stop offset="0.2638" stop-color="#BD9A54"/>
<stop offset="1" stop-color="#9C844D"/>
</linearGradient>
<linearGradient id="paint7_linear" x1="103.908" y1="36.5061" x2="107.69" y2="57.9569" gradientUnits="userSpaceOnUse">
<stop offset="0.15" stop-color="white"/>
<stop offset="0.3976" stop-color="#FBFBFB"/>
<stop offset="0.6541" stop-color="#EEEFF0"/>
<stop offset="0.9138" stop-color="#DADBDC"/>
<stop offset="1" stop-color="#D1D3D4"/>
</linearGradient>
<clipPath id="clip0">
<rect width="160" height="160" fill="white"/>
</clipPath>
</defs>
</svg>
