<svg xmlns="http://www.w3.org/2000/svg" xmlns:v="https://vecta.io/nano" xmlns:xlink="http://www.w3.org/1999/xlink" width="160" height="160" fill="none"><g clip-path="url(#I)"><g fill="#606063"><path d="M48.045 119.028c-3.178 12.144 15 27.421 40.602 34.121s48.934 2.287 52.112-9.858-15-27.421-40.602-34.122-48.934-2.286-52.112 9.859z"/><path d="M136.924 149.273l15.422-16.285-109.354-28.619 5.721 21.818 88.211 23.086z"/><path d="M49.934 108.293L8.072 97.338c-1.814-.475-3.66.654-4.063 2.486l-.468 2.129a8.26 8.26 0 0 0 5.746 9.7l41.812 12.239-1.166-15.599z"/></g><path fill="url(#A)" d="M43.203 98.71c-3.694 14.114 18.324 32.101 49.178 40.176s58.86 3.178 62.554-10.936-18.324-32.101-49.178-40.176-58.861-3.179-62.554 10.935z"/><g fill-rule="evenodd"><path fill="#606063" d="M127.673 123.286c7.098 5.22 11.246 10.866 11.865 15.871l2.978-.368c-.772-6.238-5.737-12.531-13.066-17.92-7.389-5.435-17.439-10.148-28.913-13.151s-22.544-3.817-31.649-2.699c-9.029 1.109-16.44 4.163-20.168 9.223l2.415 1.779c2.992-4.06 9.373-6.95 18.119-8.024 8.67-1.064 19.354-.299 30.524 2.624s20.859 7.49 27.896 12.665z"/><path fill="#979797" d="M56.734 118.739c-8.721-7.124-11.998-14.041-10.629-19.27s7.614-9.654 18.706-11.593c10.807-1.889 25.078-1.154 40.186 2.8s27.911 10.304 36.406 17.245c8.721 7.124 11.998 14.041 10.63 19.27s-7.614 9.653-18.707 11.593c-10.806 1.889-25.078 1.153-40.186-2.8s-27.91-10.304-36.406-17.245zm35.646 20.147c-30.854-8.075-52.872-26.062-49.178-40.176s31.7-19.01 62.554-10.935 52.872 26.062 49.178 40.176-31.7 19.01-62.554 10.936z"/><path fill="url(#B)" d="M45.167 124.049l-4.937-19.123 2.905-.75 4.937 19.123-2.905.75z"/><path fill="url(#C)" d="M43.469 106.189l-.128-.443-.202-.817-.142-.54c.022-.012.03-.019.028-.027l-.004-.025-.12-.794-.022-.191c-.072-.663-.096-1.321-.071-1.974.035-.903.166-1.793.395-2.668 3.694-14.114 31.7-19.01 62.555-10.936s52.872 26.062 49.178 40.176a12.4 12.4 0 0 1-.963 2.519 13.7 13.7 0 0 1-1.635 2.476l-.016.019c.011.02.014.025.015.029l-.611.651-12.932 13.655c-6.807 9.031-27.596 11.752-50.146 5.85-22.303-5.837-38.971-18.182-40.797-29.295-.093-.569-.484-1.054-1.037-1.215L10.127 111.91a8.26 8.26 0 0 1-5.762-9.635l.459-2.172c.39-1.845 2.242-2.99 4.066-2.514l34.249 8.931a.27.27 0 0 0 .331-.331zm-3.657-3.636c-.064-1.544.091-3.085.488-4.603 2.325-8.885 11.93-13.965 23.478-15.984 11.834-2.069 26.992-1.215 42.738 2.906s29.38 10.802 38.683 18.402c9.078 7.417 14.963 16.551 12.638 25.436-.557 2.129-1.552 4.064-2.901 5.789a3.08 3.08 0 0 1-.425.566l-13.429 14.181c-4.171 5.406-12.026 8.46-21.098 9.556-9.3 1.124-20.517.28-32.096-2.751-11.453-2.997-21.548-7.685-29.078-13.141-7.08-5.13-12.321-11.262-13.743-17.657L9.285 114.789a11.26 11.26 0 0 1-7.855-13.134l.459-2.173c.744-3.519 4.277-5.704 7.758-4.796l30.165 7.867z"/></g><circle cx="57" cy="29" r="29" fill="#f0b90b"/><path fill="#fffdfa" d="M46.185 29l-4.437 4.468L37.28 29l4.468-4.468L46.185 29zM57 18.185l7.641 7.642 4.468-4.468-7.642-7.611L57 9.28 44.922 21.358l4.468 4.468L57 18.185zm15.252 6.347L67.815 29l4.468 4.468L76.72 29l-4.468-4.468zM57 39.815l-7.642-7.642-4.437 4.468L57 48.72l12.109-12.109-4.468-4.437L57 39.815zm0-6.347L61.468 29 57 24.532 52.532 29 57 33.468z"/><g style="mix-blend-mode:multiply" opacity=".1"><path fill="#191326" fill-rule="evenodd" d="M57 55c14.359 0 26-11.641 26-26S71.359 3 57 3 31 14.641 31 29s11.641 26 26 26zm0 3c16.016 0 29-12.984 29-29S73.016 0 57 0 28 12.984 28 29s12.984 29 29 29z"/></g><g fill="#005596"><path d="M106.501 29c-23.986 0-43.5 19.514-43.5 43.5s19.514 43.5 43.5 43.5 43.5-19.514 43.5-43.5c0-23.964-19.514-43.5-43.5-43.5z"/><path d="M106.5 29C82.514 29 63 48.514 63 72.5S82.514 116 106.5 116 150 96.486 150 72.5c0-23.964-19.514-43.5-43.5-43.5zm0 86.715c-23.811 0-43.193-19.382-43.193-43.193S82.689 29.329 106.5 29.329s43.193 19.382 43.193 43.193-19.382 43.193-43.193 43.193z"/></g><path fill="#fff" stroke="#8a8c8e" stroke-miterlimit="10" stroke-width=".082" d="M106.522 48.821c-13.134 0-23.833 10.678-23.833 23.833 0 13.133 10.678 23.833 23.833 23.833 13.133 0 23.832-10.678 23.832-23.833 0-13.133-10.699-23.833-23.832-23.833zM86.657 82.63c-1.513-3.004-2.368-6.402-2.368-9.976 0-11.204 8.31-20.478 19.097-21.991-.965 14.273-6.928 24.622-16.729 31.967zm27.845 10.765c-2.477.943-5.174 1.491-7.98 1.491s-5.504-.526-7.981-1.469c-.899-1.381-1.425-2.982-1.425-4.736 0-4.933 4.21-8.924 9.407-8.924s9.406 3.99 9.406 8.924a8.53 8.53 0 0 1-1.426 4.714zm11.884-10.765c-9.801-7.345-15.743-17.694-16.707-31.989 10.787 1.535 19.097 10.787 19.097 21.991-.022 3.618-.877 6.994-2.39 9.998zm8.682-38.676a40.15 40.15 0 0 0-28.568-11.84 40.15 40.15 0 0 0-28.569 11.84 40.15 40.15 0 0 0-11.84 28.569 40.15 40.15 0 0 0 11.84 28.569 40.15 40.15 0 0 0 28.569 11.84 40.15 40.15 0 0 0 28.568-11.84 40.15 40.15 0 0 0 11.84-28.569c-.022-10.809-4.21-20.939-11.84-28.569zM106.5 111.308c-21.421 0-38.808-17.365-38.808-38.808 0-21.421 17.365-38.808 38.808-38.808 21.421 0 38.808 17.365 38.808 38.808-.022 21.443-17.387 38.808-38.808 38.808z"/><path fill="#ef3e42" d="M125.049 84.866c-1.776 2.697-4.122 4.999-6.885 6.709.11-.592.154-1.184.154-1.798 0-6.117-5.306-11.094-11.862-11.094s-11.861 4.955-11.861 11.094a9.79 9.79 0 0 0 .153 1.798 22.34 22.34 0 0 1-6.885-6.709c4.122-3.311 7.63-7.213 10.349-11.752h16.444c2.741 4.517 6.271 8.419 10.393 11.752zm-16.576-34.335a20.37 20.37 0 0 0-2.017-.088c-.679 0-1.359.044-2.039.088-.153 8.419-2.214 15.611-5.678 21.706h15.414c-3.464-6.095-5.525-13.287-5.679-21.706z"/><path stroke="#fff" stroke-miterlimit="10" stroke-width=".247" d="M125.049 84.866c-1.776 2.697-4.122 4.999-6.885 6.709" opacity=".8"/><path fill="url(#D)" d="M107.246 91.334c-.263-.154-.461-.417-.526-.724-.022-.11-.132-.197-.263-.197s-.242.088-.264.197c-.065.307-.263.548-.526.724-.044.022-.044.044-.022.088.154.307.417.702.746.965.044.044.066.044.066.044s.021 0 .065-.044c.329-.263.592-.658.746-.965.044-.044.022-.066-.022-.088z"/><path fill="url(#E)" d="M108.013 86.335c0-.899-1.184-3.749-1.557-3.749-.022 0-.044.022-.088.044-.438.351-1.469 2.85-1.469 3.705 0 .68 1.36 2.456 1.36 3.442 0 .088.087.175.175.175.11 0 .176-.088.176-.175.043-.987 1.403-2.763 1.403-3.442z"/><path fill="url(#F)" d="M105.689 89.69c-.636-1.688-1.754-2.609-2.894-2.609a1.57 1.57 0 1 0 0 3.157c.263 0 .526-.131.658-.263.219-.263.175-.504.153-.57s-.088-.044-.109-.044h-.088c-.285 0-.526-.241-.526-.526s.241-.526.526-.526c.526 0 1.425.504 1.929 1.557.022.066.11.11.176.11.109 0 .197-.088.197-.197 0-.044 0-.066-.022-.088z"/><path fill="url(#G)" d="M110.074 87.059c-1.14 0-2.259.921-2.894 2.609-.022.022-.022.044-.022.088 0 .11.087.197.197.197.066 0 .132-.044.175-.11.483-1.052 1.404-1.557 1.93-1.557.285 0 .526.241.526.526s-.241.526-.526.526h-.088c-.022 0-.088-.022-.109.044-.022.044-.066.307.153.57.132.154.395.263.658.263a1.57 1.57 0 0 0 1.578-1.579c0-.855-.701-1.579-1.578-1.579z"/><path fill="url(#H)" d="M83.785 43.711l-4.166 4.582 7.257 6.6 1.425-1.447-2.258-2.061 2.807-3.092c1.272-1.403 1.272-3.64-.132-4.911-1.403-1.228-3.662-1.074-4.933.329zm3.662 3.508l-2.719 3.004-2.434-2.215 2.719-2.982c.614-.68 1.666-.724 2.324-.11a1.61 1.61 0 0 1 .11 2.302zm5.92-8.376l-.746 11.336 2.061-1.14.11-2.631c1.359-.592 2.785-1.096 4.254-1.491l1.732 1.995c.768-.175 1.535-.307 2.324-.395L95.45 38.12a18.02 18.02 0 0 0-2.083.724zm1.491 5.723l.175-4.276 2.807 3.223-2.982 1.052zm18.877-4.714c0-1.886-1.776-3.42-3.661-3.42h-5.745v9.932l2.017-.088v-3.026h2.522l2.192 3.442a25.11 25.11 0 0 1 2.544.592l-2.609-4.166c1.512-.373 2.74-1.71 2.74-3.267zm-3.661 1.644h-3.706v-3.289h3.706a1.64 1.64 0 1 1 0 3.289zm16.312 5.481l.987 1.03c2.346 2.478 2.894 4.495 1.403 5.898-.592.548-1.513.702-2.434.504-1.162-.219-2.455-1.053-3.661-2.302-1.053-1.096-1.842-2.412-2.193-3.311l1.447-1.096c1.623 3.442 4.32 5.438 5.284 4.626.899-.745-.087-1.929-1.205-3.113l-1.097-1.162c-1.14-1.206-1.885-3.091-.57-4.319 2.193-2.083 6.819 1.228 7.981 4.538l-1.403 1.053c-.526-1.842-3.267-4.582-4.78-4.232-.395.088-.833.745.241 1.886zm-5.13-7.477l-3.837 9.231-1.908-.789 3.837-9.231 1.908.789z"/><g fill="#fff"><path d="M100.405 102.889l-.11.548 1.294.307h.021v-.022l.132-.526-1.337-.307zm6.227.657h-.044v.57l1.184.022-.044.395c-.022.329-.46.614-1.096.614-.943-.022-1.557-.658-1.535-1.382a1.33 1.33 0 0 1 .241-.767c.066-.11.219-.241.329-.307.044-.022.066-.044.11-.066.241-.153.548-.219.92-.219.68.022.965.351 1.141.526l.022.022.394-.395a2.14 2.14 0 0 0-1.557-.701h-.021c-1.184-.022-2.061.833-2.083 1.907v.044c-.022 1.272 1.03 1.952 2.017 1.973.416 0 .767-.065 1.052-.219.088-.044.154-.087.219-.153.11-.088.198-.176.264-.285.087-.132.131-.285.131-.461l.022-.986-1.666-.132zm-22.935-8.507c.132-.132.132-.373.175-.548.066-.439-.131-.899-.658-1.622l-.351-.46c-.285-.373-.197-.658-.153-.789a.58.58 0 0 1 .11-.131c.044-.044.11-.066.175-.066h.066c.636 0 1.601 1.009 1.82 1.842v.022l.022-.022c.132-.066.241-.11.329-.175h.022a3.75 3.75 0 0 0-.636-1.25c-.482-.614-1.14-1.052-1.688-1.052-.197 0-.373.066-.526.175-.044.044-.088.066-.132.11-.066.088-.11.175-.153.285-.022.044-.022.088-.022.154v.131c0 .307.175.724.417 1.053l.351.482c.263.351.526.68.526.987 0 .044 0 .066-.022.153 0 .022-.022.088-.044.11-.022.066-.066.11-.11.153a.3.3 0 0 1-.088.066.44.44 0 0 1-.241.066c-.307 0-.724-.307-1.118-.811-.307-.395-.592-.921-.789-1.513l-.022-.044-.417.395a4.75 4.75 0 0 0 .658 1.359c.417.548.921.987 1.359 1.118a1.49 1.49 0 0 0 .417.066c.197 0 .395 0 .504-.088.132-.066.175-.11.219-.154zm10.7 4.254l-.482-.241-1.337 2.543-.636-3.574V98l-.46-.241-.022.022-1.732 3.311v.022l.46.197.022-.022 1.337-2.565.68 3.508.46.197.022-.022h.022l1.688-3.091-.022-.022zm-6.599-4.188l-.46-.395-3.749 1.776.395.351 1.316-.592 1.338 1.14-.417 1.316v.022l.395.285.022-.044 1.162-3.859zm-.614.219l-.438 1.469-.899-.767 1.337-.702zm3.157 1.667l-.482-.329-2.083 3.201.439.285h.022l2.105-3.157zm5.087 2.74l-.153.505-.022.022 1.316.438-1.096 3.004.022.022h-.022l.439.131.022-.043 1.03-2.982 1.25.438.022-.044v.022-.022h.022l.153-.46-2.982-1.031zm17.518 4.714h-.043l-2.544.351-.175-1.074 1.25-.176-.022-.022v-.021h.043l-.087-.527h-.022l-1.25.176-.131-.921 2.477-.351-.022-.022v-.022h.044l-.022-.022h.022l-.066-.526h-.044l-2.981.439v.043l.021.044.505 3.618.022.022 3.069-.439-.022-.022h.022v-.021h.022l-.066-.527zm3.661-2.105c.132-.066.329-.131.439-.285.153-.219.263-.548.132-.987-.088-.328-.242-.548-.483-.657-.285-.154-.614-.176-.921-.066l-2.105.636.307 1.03.768 2.565.175-.043.263-.066-.438-1.491 1.425-.461 1.118 1.316.439-.197.043-.022-1.162-1.272zm-.679-1.491c.307-.088.636-.022.767.395.022.044.022.088.022.109v.11c0 .044 0 .066-.022.11-.066.175-.219.285-.46.372l-1.667.505-.307-1.009 1.667-.592zm7.893-4.691l-.504.351.811 4.035.439-.285.022-.022-.263-1.36 1.381-1.009 1.162.702.417-.285.043-.022-3.508-2.105zm.395 2.105l-.329-1.447 1.316.767-.987.68zm1.951-3.969l-.394.373 2.543 2.719.351-.285h-.022l.044-.022-2.522-2.785zm6.073-.965l-2.762-2.543-.351.395 2.236 1.973-3.749-.285-.351.373 2.807 2.478.241-.285h-.022l.044-.044-2.105-1.951 3.705.219.285-.307.022-.022zm-10.918 4.517l-.482.241-.066 2.697-1.338-.899-.877-.636-.438.219-.022.022.022.022 1.644 3.355.395-.219v-.022h.022l-1.162-2.456 1.008.702 1.206.811v-.022h.022v-.022l.066-1.819.044-.767.241.482 1.03 1.864h.022l.307-.263h.022l.022-.022-1.688-3.267z"/></g><g style="mix-blend-mode:multiply" opacity=".2"><path fill="#191326" fill-rule="evenodd" d="M106.5 113.163c22.458 0 40.663-18.205 40.663-40.663S128.958 31.837 106.5 31.837 65.837 50.042 65.837 72.5s18.205 40.663 40.663 40.663zm0 2.837c24.024 0 43.5-19.476 43.5-43.5S130.524 29 106.5 29 63 48.476 63 72.5 82.476 116 106.5 116z"/></g></g><defs><linearGradient id="A" x1="105.757" x2="92.381" y1="87.774" y2="138.886" xlink:href="#J"><stop stop-color="#404042"/><stop offset="1" stop-color="#48484b"/></linearGradient><linearGradient id="B" x1="46.567" x2="41.735" y1="105.096" y2="123.129" xlink:href="#J"><stop stop-color="#404042"/><stop offset="1" stop-color="#48484b"/></linearGradient><linearGradient id="C" x1="73.495" x2="89.09" y1="80.169" y2="164.62" xlink:href="#J"><stop stop-color="#404042"/><stop offset="1" stop-color="#48484b"/></linearGradient><linearGradient id="D" x1="103.924" x2="106.98" y1="85.503" y2="92.579" xlink:href="#J"><stop stop-color="#d0b15e"/><stop offset=".264" stop-color="#bd9a54"/><stop offset="1" stop-color="#9c844d"/></linearGradient><linearGradient id="E" x1="105.837" x2="108.893" y1="84.677" y2="91.753" xlink:href="#J"><stop stop-color="#d0b15e"/><stop offset=".264" stop-color="#bd9a54"/><stop offset="1" stop-color="#9c844d"/></linearGradient><linearGradient id="F" x1="102.138" x2="105.194" y1="86.274" y2="93.351" xlink:href="#J"><stop stop-color="#d0b15e"/><stop offset=".264" stop-color="#bd9a54"/><stop offset="1" stop-color="#9c844d"/></linearGradient><linearGradient id="G" x1="107.252" x2="110.308" y1="84.066" y2="91.142" xlink:href="#J"><stop stop-color="#d0b15e"/><stop offset=".264" stop-color="#bd9a54"/><stop offset="1" stop-color="#9c844d"/></linearGradient><linearGradient id="H" x1="103.908" x2="107.69" y1="36.506" y2="57.957" xlink:href="#J"><stop offset=".15" stop-color="#fff"/><stop offset=".398" stop-color="#fbfbfb"/><stop offset=".654" stop-color="#eeeff0"/><stop offset=".914" stop-color="#dadbdc"/><stop offset="1" stop-color="#d1d3d4"/></linearGradient><clipPath id="I"><path fill="#fff" d="M0 0h160v160H0z"/></clipPath><linearGradient id="J" gradientUnits="userSpaceOnUse"/></defs></svg>