<svg width="160" height="160" viewBox="0 0 160 160" fill="none" xmlns="http://www.w3.org/2000/svg">
<g clip-path="url(#clip0)">
<path d="M48.045 119.028C44.8667 131.172 63.0449 146.449 88.6472 153.149C114.25 159.85 137.581 155.436 140.759 143.291C143.937 131.147 125.759 115.87 100.157 109.17C74.5546 102.469 51.2233 106.883 48.045 119.028Z" fill="#606063"/>
<path d="M136.924 149.273L152.346 132.988L42.9922 104.37L48.7128 126.188L136.924 149.273Z" fill="#606063"/>
<path d="M49.9337 108.293L8.07245 97.3381C6.25796 96.8632 4.41259 97.9925 4.00962 99.8243L3.54142 101.953C2.60839 106.194 5.11954 110.434 9.28748 111.653L51.0994 123.892L49.9337 108.293Z" fill="#606063"/>
<path d="M43.2026 98.7094C39.5089 112.823 61.5267 130.811 92.3808 138.886C123.235 146.96 151.241 142.064 154.935 127.95C158.629 113.836 136.611 95.8485 105.757 87.7739C74.9028 79.6993 46.8963 84.5953 43.2026 98.7094Z" fill="url(#paint0_linear)"/>
<path fill-rule="evenodd" clip-rule="evenodd" d="M127.673 123.286C134.771 128.506 138.919 134.152 139.538 139.157L142.516 138.789C141.744 132.551 136.779 126.258 129.45 120.869C122.061 115.434 112.011 110.721 100.537 107.718C89.0628 104.716 77.9927 103.902 68.888 105.019C59.8593 106.128 52.4479 109.182 48.7196 114.242L51.1348 116.021C54.1263 111.961 60.5082 109.071 69.2536 107.997C77.9231 106.933 88.6081 107.698 99.7773 110.621C110.946 113.544 120.636 118.111 127.673 123.286Z" fill="#606063"/>
<path fill-rule="evenodd" clip-rule="evenodd" d="M56.7343 118.739C48.0136 111.615 44.7365 104.698 46.1049 99.4689C47.4733 94.24 53.7186 89.8153 64.8112 87.8761C75.6178 85.9869 89.8893 86.7224 104.997 90.6762C120.105 94.63 132.908 100.98 141.403 107.92C150.124 115.045 153.401 121.962 152.033 127.191C150.664 132.419 144.419 136.844 133.326 138.783C122.52 140.673 108.248 139.937 93.1403 135.983C78.0323 132.029 65.2301 125.68 56.7343 118.739ZM92.3808 138.886C61.5267 130.811 39.5089 112.823 43.2026 98.7094C46.8963 84.5953 74.9028 79.6993 105.757 87.7739C136.611 95.8485 158.629 113.836 154.935 127.95C151.241 142.064 123.235 146.96 92.3808 138.886Z" fill="#979797"/>
<path fill-rule="evenodd" clip-rule="evenodd" d="M45.1673 124.049L40.2305 104.926L43.1352 104.177L48.0721 123.299L45.1673 124.049Z" fill="url(#paint1_linear)"/>
<path fill-rule="evenodd" clip-rule="evenodd" d="M43.4691 106.189C43.4241 106.041 43.3812 105.893 43.3406 105.746C43.2656 105.473 43.1983 105.2 43.1386 104.929L42.997 104.389C42.9948 104.38 43.0025 104.372 43.0109 104.375C43.019 104.377 43.0266 104.37 43.0251 104.362C43.0236 104.353 43.0222 104.345 43.0207 104.337C42.9732 104.072 42.9333 103.807 42.9009 103.543C42.8931 103.479 42.8857 103.416 42.8788 103.352C42.8065 102.689 42.7824 102.031 42.8078 101.378C42.8079 101.378 42.8079 101.378 42.8079 101.377C42.8432 100.475 42.9734 99.5849 43.2025 98.7095C46.8962 84.5954 74.9027 79.6994 105.757 87.774C136.611 95.8486 158.629 113.836 154.935 127.95C154.706 128.826 154.383 129.666 153.972 130.469C153.972 130.469 153.972 130.47 153.972 130.47C153.528 131.338 152.981 132.163 152.337 132.945C152.332 132.951 152.326 132.958 152.321 132.964C152.319 132.967 152.318 132.969 152.318 132.972C152.318 132.977 152.322 132.982 152.327 132.983C152.332 132.984 152.335 132.989 152.336 132.993C152.336 132.996 152.335 133 152.333 133.002L151.725 133.644C151.655 133.72 151.584 133.795 151.511 133.87L150.275 135.175L150.273 135.177L138.793 147.299C131.986 156.33 111.197 159.051 88.6472 153.149C66.3446 147.312 49.6757 134.967 47.8505 123.854C47.7571 123.285 47.3667 122.8 46.8135 122.639L10.1271 111.91C5.98342 110.698 3.4722 106.499 4.36483 102.275L4.82393 100.103C5.21371 98.2581 7.06553 97.1133 8.88976 97.589L43.1386 106.52C43.3391 106.573 43.5217 106.39 43.4691 106.189ZM39.8119 102.553C39.7482 101.009 39.9029 99.4681 40.3002 97.9499C42.6255 89.0648 52.2303 83.9845 63.7779 81.9658C75.6114 79.8971 90.7702 80.751 106.516 84.8718C122.262 88.9926 135.896 95.6738 145.199 103.274C154.277 110.691 160.162 119.825 157.837 128.71C157.28 130.839 156.285 132.774 154.936 134.499C154.821 134.697 154.679 134.887 154.511 135.065L153.923 135.686C153.92 135.689 153.916 135.693 153.913 135.697C153.836 135.779 153.759 135.861 153.68 135.943C153.677 135.946 153.673 135.95 153.67 135.953L141.082 149.246C136.911 154.652 129.056 157.706 119.984 158.802C110.684 159.926 99.4667 159.082 87.8877 156.051C76.4351 153.054 66.3397 148.366 58.8095 142.91C51.73 137.78 46.4882 131.648 45.0667 125.253L9.28503 114.789C3.63618 113.137 0.212785 107.413 1.42965 101.655L1.88875 99.4823C2.63251 95.9628 6.16596 93.7783 9.64679 94.6861L39.8119 102.553Z" fill="url(#paint2_linear)"/>
<circle cx="57" cy="29" r="29" fill="#F0B90B"/>
<path d="M46.1848 29L41.7478 33.4678L37.28 29L41.7478 24.5322L46.1848 29ZM57 18.1848L64.6415 25.8263L69.1093 21.3585L61.4678 13.7478L57 9.28003L52.5322 13.7478L44.9215 21.3585L49.3893 25.8263L57 18.1848ZM72.2522 24.5322L67.8152 29L72.283 33.4678L76.72 29L72.2522 24.5322ZM57 39.8152L49.3585 32.1737L44.9215 36.6415L52.563 44.283L57 48.72L61.4678 44.2522L69.1093 36.6107L64.6415 32.1737L57 39.8152ZM57 33.4678L61.4678 29L57 24.5322L52.5322 29L57 33.4678Z" fill="#FFFDFA"/>
<g style="mix-blend-mode:multiply" opacity="0.1">
<path fill-rule="evenodd" clip-rule="evenodd" d="M57 55C71.3594 55 83 43.3594 83 29C83 14.6406 71.3594 3 57 3C42.6406 3 31 14.6406 31 29C31 43.3594 42.6406 55 57 55ZM57 58C73.0163 58 86 45.0163 86 29C86 12.9837 73.0163 0 57 0C40.9837 0 28 12.9837 28 29C28 45.0163 40.9837 58 57 58Z" fill="#191326"/>
</g>
<path d="M106.501 29C82.5146 29 63.001 48.5136 63.001 72.5C63.001 96.4864 82.5146 116 106.501 116C130.487 116 150.001 96.4864 150.001 72.5C150.001 48.5355 130.487 29 106.501 29Z" fill="#005596"/>
<path d="M106.5 29C82.5136 29 63 48.5136 63 72.5C63 96.4864 82.5136 116 106.5 116C130.486 116 150 96.4864 150 72.5C150 48.5355 130.486 29 106.5 29ZM106.5 115.715C82.689 115.715 63.307 96.3329 63.307 72.5219C63.307 48.7109 82.689 29.3289 106.5 29.3289C130.311 29.3289 149.693 48.7109 149.693 72.5219C149.693 96.3329 130.311 115.715 106.5 115.715Z" fill="#005596"/>
<path d="M106.522 48.8207C93.3882 48.8207 82.6886 59.4984 82.6886 72.6536C82.6886 85.7869 93.3663 96.4865 106.522 96.4865C119.655 96.4865 130.354 85.8088 130.354 72.6536C130.354 59.5203 119.655 48.8207 106.522 48.8207ZM86.6571 82.6297C85.1442 79.6259 84.2892 76.2274 84.2892 72.6536C84.2892 61.4497 92.5989 52.1753 103.386 50.6624C102.421 64.9359 96.4578 75.2847 86.6571 82.6297ZM114.502 93.395C112.025 94.3378 109.328 94.886 106.522 94.886C103.715 94.886 101.018 94.3598 98.5407 93.417C97.6417 92.0357 97.1155 90.4351 97.1155 88.6811C97.1155 83.7479 101.325 79.7574 106.522 79.7574C111.718 79.7574 115.928 83.7479 115.928 88.6811C115.928 90.4132 115.401 92.0357 114.502 93.395ZM126.386 82.6297C116.585 75.2847 110.643 64.9359 109.679 50.6405C120.466 52.1753 128.776 61.4278 128.776 72.6317C128.754 76.2494 127.899 79.6259 126.386 82.6297ZM135.068 43.9532C127.438 36.3232 117.287 32.1135 106.5 32.1135C95.7123 32.1135 85.5608 36.3232 77.9308 43.9532C70.3007 51.5833 66.0911 61.7347 66.0911 72.522C66.0911 83.3093 70.3007 93.4608 77.9308 101.091C85.5608 108.721 95.7123 112.931 106.5 112.931C117.287 112.931 127.438 108.721 135.068 101.091C142.698 93.4608 146.908 83.3093 146.908 72.522C146.886 61.7128 142.698 51.5833 135.068 43.9532ZM106.5 111.308C85.0785 111.308 67.6916 93.9432 67.6916 72.5001C67.6916 51.079 85.0565 33.6922 106.5 33.6922C127.921 33.6922 145.308 51.0571 145.308 72.5001C145.286 93.9432 127.921 111.308 106.5 111.308Z" fill="white" stroke="#8A8C8E" stroke-width="0.0822847" stroke-miterlimit="10"/>
<path d="M125.049 84.866C123.273 87.5628 120.927 89.865 118.164 91.5752C118.274 90.9832 118.318 90.3912 118.318 89.7773C118.318 83.6601 113.012 78.683 106.456 78.683C99.9003 78.683 94.5944 83.6382 94.5944 89.7773C94.5944 90.3912 94.6382 90.9832 94.7479 91.5752C91.9853 89.865 89.6392 87.5628 87.8633 84.866C91.9853 81.5553 95.4933 77.6525 98.2121 73.114H114.656C117.397 77.6306 120.927 81.5333 125.049 84.866ZM108.473 50.5308C107.815 50.465 107.136 50.4431 106.456 50.4431C105.776 50.4431 105.097 50.487 104.417 50.5308C104.263 58.9502 102.202 66.1417 98.7383 72.237H114.152C110.688 66.1417 108.627 58.9502 108.473 50.5308Z" fill="#EF3E42"/>
<path opacity="0.8" d="M125.049 84.866C123.273 87.5629 120.927 89.865 118.164 91.5752" stroke="white" stroke-width="0.246861" stroke-miterlimit="10"/>
<path d="M107.246 91.3338C106.983 91.1803 106.785 90.9172 106.72 90.6102C106.698 90.5006 106.588 90.4129 106.457 90.4129C106.325 90.4129 106.215 90.5006 106.193 90.6102C106.128 90.9172 105.93 91.1584 105.667 91.3338C105.623 91.3557 105.623 91.3776 105.645 91.4215C105.799 91.7284 106.062 92.1231 106.391 92.3862C106.435 92.43 106.457 92.43 106.457 92.43C106.457 92.43 106.478 92.43 106.522 92.3862C106.851 92.1231 107.114 91.7284 107.268 91.4215C107.312 91.3776 107.29 91.3557 107.246 91.3338Z" fill="url(#paint3_linear)"/>
<path d="M108.013 86.3349C108.013 85.4359 106.829 82.5856 106.456 82.5856C106.434 82.5856 106.412 82.6076 106.368 82.6295C105.93 82.9803 104.899 85.4798 104.899 86.3349C104.899 87.0146 106.259 88.7905 106.259 89.7772C106.259 89.8649 106.346 89.9526 106.434 89.9526C106.544 89.9526 106.61 89.8649 106.61 89.7772C106.653 88.7905 108.013 87.0146 108.013 86.3349Z" fill="url(#paint4_linear)"/>
<path d="M105.689 89.6894C105.053 88.0011 103.935 87.0803 102.795 87.0803C101.918 87.0803 101.216 87.7819 101.216 88.6589C101.216 89.5359 101.918 90.2375 102.795 90.2375C103.058 90.2375 103.321 90.106 103.453 89.9744C103.672 89.7113 103.628 89.4701 103.606 89.4043C103.584 89.3386 103.518 89.3605 103.497 89.3605C103.475 89.3605 103.431 89.3605 103.409 89.3605C103.124 89.3605 102.883 89.1193 102.883 88.8343C102.883 88.5493 103.124 88.3081 103.409 88.3081C103.935 88.3081 104.834 88.8124 105.338 89.8648C105.36 89.9306 105.448 89.9744 105.514 89.9744C105.623 89.9744 105.711 89.8867 105.711 89.7771C105.711 89.7332 105.711 89.7113 105.689 89.6894Z" fill="url(#paint5_linear)"/>
<path d="M110.074 87.0585C108.934 87.0585 107.815 87.9793 107.18 89.6676C107.158 89.6895 107.158 89.7114 107.158 89.7553C107.158 89.8649 107.245 89.9526 107.355 89.9526C107.421 89.9526 107.487 89.9088 107.53 89.843C108.013 88.7906 108.934 88.2863 109.46 88.2863C109.745 88.2863 109.986 88.5275 109.986 88.8125C109.986 89.0975 109.745 89.3387 109.46 89.3387C109.438 89.3387 109.394 89.3387 109.372 89.3387C109.35 89.3387 109.284 89.3168 109.263 89.3826C109.241 89.4264 109.197 89.6895 109.416 89.9526C109.548 90.1061 109.811 90.2157 110.074 90.2157C110.951 90.2157 111.652 89.5141 111.652 88.6371C111.652 87.782 110.951 87.0585 110.074 87.0585Z" fill="url(#paint6_linear)"/>
<path d="M83.785 43.7118L79.6191 48.2942L86.8765 54.8937C87.3369 54.3895 87.7973 53.929 88.3016 53.4467L86.0433 51.3857L88.8497 48.2942C90.1214 46.891 90.1214 44.6546 88.7182 43.3829C87.315 42.1551 85.0566 42.3086 83.785 43.7118ZM87.4465 47.2199L84.7278 50.2236L82.294 48.0092L85.0128 45.0273C85.6267 44.3476 86.6791 44.3038 87.3369 44.9177C88.0166 45.5097 88.0604 46.5621 87.4465 47.2199ZM93.3664 38.8444L92.6209 50.1798C93.3006 49.7632 93.9803 49.3905 94.6819 49.0397L94.7915 46.4086C96.1509 45.8166 97.576 45.3123 99.045 44.9177L100.777 46.9129C101.545 46.7375 102.312 46.6059 103.101 46.5182L95.4493 38.1208C94.7477 38.3181 94.0461 38.5593 93.3664 38.8444ZM94.8573 44.5669L95.0327 40.2914L97.8392 43.5145C96.8306 43.8214 95.822 44.1722 94.8573 44.5669ZM113.735 39.8529C113.735 37.9673 111.959 36.4326 110.074 36.4326H104.329V46.3648C104.987 46.3209 105.667 46.2771 106.346 46.2771V43.2514H108.868L111.06 46.6936C111.915 46.8471 112.77 47.0445 113.604 47.2856L110.994 43.1198C112.507 42.7471 113.735 41.4096 113.735 39.8529ZM110.074 41.4973H106.368V38.2085H110.074C110.994 38.2085 111.718 38.954 111.718 39.8529C111.718 40.7519 110.994 41.4973 110.074 41.4973ZM126.386 46.9787L127.373 48.0092C129.719 50.4867 130.267 52.5039 128.776 53.9071C128.184 54.4552 127.263 54.6087 126.342 54.4114C125.18 54.1921 123.887 53.359 122.681 52.1092C121.628 51.0129 120.839 49.6974 120.488 48.7985L121.935 47.7022C123.558 51.1445 126.254 53.1397 127.219 52.3285C128.118 51.583 127.131 50.399 126.013 49.2151L124.917 48.053C123.777 46.8471 123.031 44.9615 124.347 43.7337C126.54 41.6508 131.166 44.9615 132.328 48.2723C132.328 48.2723 131.363 48.9958 130.925 49.3247C130.398 47.483 127.658 44.7423 126.145 45.0931C125.75 45.1808 125.312 45.8386 126.386 46.9787ZM121.255 39.5021L117.419 48.7327C116.805 48.4477 116.147 48.1846 115.511 47.9434L119.348 38.7128C120.006 38.954 120.642 39.2171 121.255 39.5021Z" fill="url(#paint7_linear)"/>
<path d="M100.405 102.889L100.295 103.437L101.589 103.744H101.611V103.722L101.742 103.196L100.405 102.889Z" fill="white"/>
<path d="M106.632 103.546H106.588V104.072V104.116L107.772 104.138L107.728 104.533C107.706 104.862 107.268 105.147 106.632 105.147C105.689 105.125 105.075 104.489 105.097 103.765C105.097 103.48 105.185 103.217 105.338 102.998C105.404 102.888 105.558 102.757 105.667 102.691C105.711 102.669 105.733 102.647 105.777 102.625C106.018 102.472 106.325 102.406 106.698 102.406C107.377 102.428 107.662 102.757 107.838 102.932C107.838 102.932 107.838 102.932 107.86 102.954L108.232 102.581L108.254 102.56C108.035 102.34 107.575 101.88 106.698 101.858H106.676C105.492 101.836 104.615 102.691 104.593 103.765V103.787C104.593 103.787 104.593 103.787 104.593 103.809C104.571 105.081 105.623 105.761 106.61 105.783C107.027 105.783 107.377 105.717 107.662 105.563C107.75 105.519 107.816 105.476 107.882 105.41C107.991 105.322 108.079 105.234 108.145 105.125C108.232 104.993 108.276 104.84 108.276 104.664L108.298 103.678L106.632 103.546Z" fill="white"/>
<path d="M83.6975 95.0394C83.8291 94.9078 83.8291 94.6666 83.8729 94.4912C83.9387 94.0527 83.7414 93.5923 83.2152 92.8687L82.8644 92.4083C82.5793 92.0356 82.667 91.7505 82.7109 91.619C82.7328 91.5751 82.7767 91.5313 82.8205 91.4874C82.8644 91.4436 82.9302 91.4217 82.9959 91.4217C83.0179 91.4217 83.0398 91.4217 83.0617 91.4217C83.6975 91.4217 84.6623 92.4302 84.8815 93.2634V93.2853L84.9034 93.2634C85.035 93.1976 85.1446 93.1538 85.2323 93.088H85.2542C85.1446 92.6714 84.9034 92.211 84.6184 91.8382C84.1361 91.2243 83.4783 90.7858 82.9302 90.7858C82.7328 90.7858 82.5574 90.8516 82.4039 90.9612C82.3601 91.0051 82.3162 91.027 82.2724 91.0709C82.2066 91.1586 82.1628 91.2463 82.1189 91.3559C82.097 91.3997 82.097 91.4436 82.097 91.5094C82.097 91.5532 82.097 91.5971 82.097 91.6409C82.097 91.9479 82.2724 92.3645 82.5136 92.6933L82.8644 93.1757C83.1275 93.5265 83.3906 93.8554 83.3906 94.1623C83.3906 94.2062 83.3906 94.2281 83.3687 94.3158C83.3687 94.3378 83.3467 94.4035 83.3248 94.4255C83.3029 94.4912 83.259 94.5351 83.2152 94.5789C83.1933 94.6009 83.1713 94.6228 83.1275 94.6447C83.0617 94.6886 82.974 94.7105 82.8863 94.7105C82.5793 94.7105 82.1628 94.4035 81.7681 93.8992C81.4612 93.5046 81.1761 92.9784 80.9788 92.3864L80.9569 92.3425L80.5403 92.7372C80.5403 92.7372 80.7376 93.4607 81.198 94.0966C81.6146 94.6447 82.1189 95.0832 82.5574 95.2148C82.7109 95.2586 82.8425 95.2805 82.974 95.2805C83.1713 95.2805 83.3687 95.2805 83.4783 95.1928C83.6098 95.1271 83.6537 95.0832 83.6975 95.0394Z" fill="white"/>
<path d="M94.3977 99.2928L93.9153 99.0516L92.5778 101.595L91.942 98.0212V97.9992L91.4816 97.7581L91.4596 97.78L89.7275 101.091V101.113L90.188 101.31L90.2099 101.288L91.5473 98.7228L92.227 102.231L92.6875 102.428L92.7094 102.406H92.7313L94.4196 99.3148L94.3977 99.2928Z" fill="white"/>
<path d="M87.7978 95.105L87.3374 94.7104L83.5881 96.4863L83.9828 96.8372L85.2983 96.2452L86.6358 97.3853L86.2192 98.7008V98.7227L86.6138 99.0078L86.6358 98.9639L87.7978 95.105ZM87.1839 95.3243L86.7454 96.7933L85.8465 96.0259L87.1839 95.3243Z" fill="white"/>
<path d="M90.3414 96.9906L89.859 96.6617L87.7761 99.8628L88.2146 100.148H88.2366L90.3414 96.9906Z" fill="white"/>
<path d="M95.4281 99.7313L95.2746 100.236L95.2527 100.257L96.5682 100.696L95.4719 103.7L95.4939 103.722H95.4719L95.9104 103.853L95.9324 103.809L96.9629 100.828L98.2126 101.266L98.2345 101.222V101.244V101.222H98.2565L98.4099 100.762L95.4281 99.7313Z" fill="white"/>
<path d="M112.947 104.445H112.903L110.359 104.796L110.184 103.722L111.434 103.546L111.412 103.524V103.502H111.434H111.456L111.368 102.976H111.346L110.096 103.152L109.965 102.231L112.442 101.88L112.42 101.858V101.836H112.442H112.464L112.442 101.814H112.464L112.399 101.288H112.355L109.373 101.727V101.748V101.77L109.395 101.814L109.899 105.432L109.921 105.454L112.991 105.015L112.969 104.993H112.991V104.971H113.012L112.947 104.445Z" fill="white"/>
<path d="M116.607 102.34C116.739 102.275 116.936 102.209 117.046 102.055C117.199 101.836 117.309 101.507 117.178 101.069C117.09 100.74 116.936 100.521 116.695 100.411C116.41 100.257 116.081 100.236 115.774 100.345L113.669 100.981L113.976 102.012L114.744 104.577L114.919 104.533L115.182 104.467L114.744 102.976L116.169 102.516L117.287 103.831L117.726 103.634L117.769 103.612L116.607 102.34ZM115.928 100.849C116.235 100.762 116.564 100.828 116.695 101.244C116.717 101.288 116.717 101.332 116.717 101.354C116.717 101.398 116.717 101.42 116.717 101.463C116.717 101.507 116.717 101.529 116.695 101.573C116.629 101.748 116.476 101.858 116.235 101.946L114.568 102.45L114.261 101.441L115.928 100.849Z" fill="white"/>
<path d="M123.821 96.1575L123.317 96.5083L124.128 100.543L124.567 100.258L124.589 100.236L124.326 98.8763L125.707 97.8677L126.869 98.5693L127.286 98.2843L127.329 98.2624L123.821 96.1575ZM124.216 98.2624L123.887 96.8153L125.203 97.5827L124.216 98.2624Z" fill="white"/>
<path d="M126.167 94.2936L125.773 94.6663L128.316 97.3851L128.667 97.1H128.645L128.689 97.0781L126.167 94.2936Z" fill="white"/>
<path d="M132.24 93.3291L129.478 90.7857L129.127 91.1804L131.363 93.1536L127.614 92.8686L127.263 93.2413L130.07 95.7189L130.311 95.4339H130.289L130.333 95.39L128.228 93.4387L131.934 93.6579L132.219 93.351L132.24 93.3291Z" fill="white"/>
<path d="M121.322 97.8458L120.84 98.087L120.774 100.784L119.437 99.8849L118.56 99.2491L118.516 99.271L118.121 99.4683L118.099 99.4902L118.121 99.5122L119.765 102.867L120.16 102.647V102.626H120.182L119.02 100.17L120.029 100.872L121.234 101.683V101.661H121.256V101.639L121.322 99.8191L121.366 99.0517L121.607 99.5341L122.638 101.398H122.66L122.967 101.135H122.988L123.01 101.113L121.322 97.8458Z" fill="white"/>
<g style="mix-blend-mode:multiply" opacity="0.2">
<path fill-rule="evenodd" clip-rule="evenodd" d="M106.5 113.163C128.958 113.163 147.163 94.9576 147.163 72.5C147.163 50.0424 128.958 31.837 106.5 31.837C84.0424 31.837 65.837 50.0424 65.837 72.5C65.837 94.9576 84.0424 113.163 106.5 113.163ZM106.5 116C130.524 116 150 96.5244 150 72.5C150 48.4756 130.524 29 106.5 29C82.4756 29 63 48.4756 63 72.5C63 96.5244 82.4756 116 106.5 116Z" fill="#191326"/>
</g>
</g>
<defs>
<linearGradient id="paint0_linear" x1="105.757" y1="87.7739" x2="92.3808" y2="138.886" gradientUnits="userSpaceOnUse">
<stop stop-color="#404042"/>
<stop offset="1" stop-color="#48484B"/>
</linearGradient>
<linearGradient id="paint1_linear" x1="46.5673" y1="105.096" x2="41.7353" y2="123.129" gradientUnits="userSpaceOnUse">
<stop stop-color="#404042"/>
<stop offset="1" stop-color="#48484B"/>
</linearGradient>
<linearGradient id="paint2_linear" x1="73.4948" y1="80.1687" x2="89.0896" y2="164.62" gradientUnits="userSpaceOnUse">
<stop stop-color="#404042"/>
<stop offset="1" stop-color="#48484B"/>
</linearGradient>
<linearGradient id="paint3_linear" x1="103.924" y1="85.5024" x2="106.98" y2="92.5785" gradientUnits="userSpaceOnUse">
<stop stop-color="#D0B15E"/>
<stop offset="0.2638" stop-color="#BD9A54"/>
<stop offset="1" stop-color="#9C844D"/>
</linearGradient>
<linearGradient id="paint4_linear" x1="105.837" y1="84.6762" x2="108.893" y2="91.7528" gradientUnits="userSpaceOnUse">
<stop stop-color="#D0B15E"/>
<stop offset="0.2638" stop-color="#BD9A54"/>
<stop offset="1" stop-color="#9C844D"/>
</linearGradient>
<linearGradient id="paint5_linear" x1="102.138" y1="86.2736" x2="105.194" y2="93.3502" gradientUnits="userSpaceOnUse">
<stop stop-color="#D0B15E"/>
<stop offset="0.2638" stop-color="#BD9A54"/>
<stop offset="1" stop-color="#9C844D"/>
</linearGradient>
<linearGradient id="paint6_linear" x1="107.252" y1="84.065" x2="110.308" y2="91.1416" gradientUnits="userSpaceOnUse">
<stop stop-color="#D0B15E"/>
<stop offset="0.2638" stop-color="#BD9A54"/>
<stop offset="1" stop-color="#9C844D"/>
</linearGradient>
<linearGradient id="paint7_linear" x1="103.908" y1="36.5066" x2="107.69" y2="57.9573" gradientUnits="userSpaceOnUse">
<stop offset="0.15" stop-color="white"/>
<stop offset="0.3976" stop-color="#FBFBFB"/>
<stop offset="0.6541" stop-color="#EEEFF0"/>
<stop offset="0.9138" stop-color="#DADBDC"/>
<stop offset="1" stop-color="#D1D3D4"/>
</linearGradient>
<clipPath id="clip0">
<rect width="160" height="160" fill="white"/>
</clipPath>
</defs>
</svg>
