<svg xmlns="http://www.w3.org/2000/svg" width="160" height="160" fill="none" viewBox="0 0 160 160"><g clip-path="url(#clip0)"><path fill="#606063" d="M48.0451 119.028C44.8668 131.172 63.0451 146.449 88.6473 153.149C114.25 159.85 137.581 155.436 140.759 143.291C143.938 131.147 125.759 115.87 100.157 109.17C74.5547 102.469 51.2234 106.883 48.0451 119.028Z"/><path fill="#606063" d="M136.924 149.273L152.346 132.988L42.9921 104.37L48.7127 126.188L136.924 149.273Z"/><path fill="#606063" d="M49.9337 108.293L8.07245 97.338C6.25796 96.8632 4.41259 97.9924 4.00962 99.8242L3.54142 101.953C2.60839 106.194 5.11954 110.433 9.28748 111.653L51.0994 123.892L49.9337 108.293Z"/><path fill="url(#paint0_linear)" d="M43.2026 98.7094C39.5089 112.823 61.5267 130.811 92.3808 138.886C123.235 146.96 151.241 142.064 154.935 127.95C158.629 113.836 136.611 95.8485 105.757 87.7739C74.9028 79.6993 46.8963 84.5953 43.2026 98.7094Z"/><path fill="#606063" fill-rule="evenodd" d="M127.673 123.286C134.771 128.506 138.919 134.152 139.538 139.157L142.515 138.789C141.744 132.551 136.779 126.258 129.45 120.869C122.06 115.434 112.011 110.721 100.537 107.718C89.0627 104.716 77.9926 103.902 68.8879 105.019C59.8592 106.128 52.4478 109.182 48.7195 114.242L51.1347 116.021C54.1262 111.961 60.5081 109.071 69.2535 107.997C77.923 106.933 88.608 107.698 99.7772 110.621C110.946 113.544 120.636 118.111 127.673 123.286Z" clip-rule="evenodd"/><path fill="#979797" fill-rule="evenodd" d="M56.7343 118.739C48.0136 111.615 44.7365 104.698 46.1049 99.4689C47.4733 94.24 53.7186 89.8153 64.8112 87.8761C75.6178 85.9869 89.8893 86.7224 104.997 90.6762C120.105 94.63 132.908 100.98 141.403 107.92C150.124 115.045 153.401 121.962 152.033 127.191C150.664 132.419 144.419 136.844 133.326 138.783C122.52 140.673 108.248 139.937 93.1403 135.983C78.0323 132.029 65.2301 125.68 56.7343 118.739ZM92.3808 138.886C61.5267 130.811 39.5089 112.823 43.2026 98.7094C46.8963 84.5953 74.9028 79.6993 105.757 87.7739C136.611 95.8485 158.629 113.836 154.935 127.95C151.241 142.064 123.235 146.96 92.3808 138.886Z" clip-rule="evenodd"/><path fill="url(#paint1_linear)" fill-rule="evenodd" d="M45.1673 124.049L40.2305 104.926L43.1352 104.177L48.0721 123.299L45.1673 124.049Z" clip-rule="evenodd"/><path fill="url(#paint2_linear)" fill-rule="evenodd" d="M43.4693 106.189C43.4242 106.041 43.3814 105.893 43.3408 105.746C43.2658 105.473 43.1984 105.2 43.1387 104.929L42.9971 104.389C42.9949 104.38 43.0026 104.372 43.0111 104.375C43.0192 104.377 43.0267 104.37 43.0252 104.362C43.0238 104.353 43.0223 104.345 43.0209 104.337C42.9734 104.072 42.9334 103.807 42.901 103.543C42.8932 103.479 42.8859 103.416 42.879 103.352C42.8067 102.689 42.7825 102.031 42.808 101.378C42.808 101.378 42.808 101.378 42.808 101.377C42.8433 100.475 42.9735 99.5849 43.2026 98.7095C46.8963 84.5954 74.9028 79.6994 105.757 87.774C136.611 95.8486 158.629 113.836 154.935 127.95C154.706 128.826 154.383 129.666 153.972 130.469C153.972 130.469 153.972 130.47 153.972 130.47C153.528 131.338 152.981 132.163 152.337 132.945C152.332 132.951 152.327 132.958 152.321 132.964C152.319 132.967 152.318 132.969 152.318 132.972C152.319 132.977 152.322 132.982 152.327 132.983C152.332 132.984 152.335 132.989 152.336 132.993C152.336 132.996 152.335 133 152.333 133.002L151.725 133.644C151.655 133.72 151.584 133.795 151.511 133.87L150.275 135.175L150.273 135.177L138.794 147.299C131.986 156.33 111.197 159.051 88.6474 153.149C66.3447 147.312 49.6758 134.967 47.8506 123.854C47.7572 123.285 47.3668 122.8 46.8136 122.639L10.1272 111.91C5.98354 110.698 3.47232 106.499 4.36495 102.275L4.82405 100.103C5.21384 98.2581 7.06565 97.1133 8.88989 97.589L43.1387 106.52C43.3392 106.573 43.5218 106.39 43.4693 106.189ZM39.812 102.553C39.7484 101.009 39.903 99.4681 40.3003 97.9499C42.6256 89.0648 52.2305 83.9845 63.778 81.9658C75.6116 79.8971 90.7703 80.751 106.516 84.8718C122.262 88.9926 135.896 95.6738 145.199 103.274C154.278 110.691 160.163 119.825 157.837 128.71C157.28 130.839 156.285 132.774 154.937 134.499C154.821 134.697 154.679 134.887 154.511 135.065L153.923 135.686C153.92 135.689 153.917 135.693 153.913 135.697C153.836 135.779 153.759 135.861 153.68 135.943C153.677 135.946 153.673 135.95 153.67 135.953L141.082 149.246C136.912 154.652 129.056 157.706 119.984 158.802C110.684 159.926 99.4668 159.082 87.8878 156.051C76.4352 153.054 66.3398 148.366 58.8097 142.91C51.7301 137.78 46.4883 131.648 45.0668 125.253L9.28515 114.789C3.63631 113.137 0.212907 107.413 1.42977 101.655L1.88887 99.4823C2.63263 95.9628 6.16608 93.7783 9.64691 94.6861L39.812 102.553Z" clip-rule="evenodd"/><circle cx="57" cy="29" r="29" fill="#F0B90B"/><path fill="#FFFDFA" fill-rule="evenodd" d="M44.6579 21.6341L57.0119 9.28003L61.9378 14.2059L49.5838 26.56L44.6579 21.6341ZM44.667 36.3967L64.4099 16.6538L69.3358 21.5797L49.5929 41.3226L44.667 36.3967ZM71.7936 24.0516L52.0507 43.7945L56.9766 48.7204L76.7195 28.9775L71.7936 24.0516ZM37.28 29.0104L42.2059 24.0845L47.1318 29.0104L42.2059 33.9363L37.28 29.0104Z" clip-rule="evenodd"/><g style="mix-blend-mode:multiply" opacity=".1"><path fill="#191326" fill-rule="evenodd" d="M57 55C71.3594 55 83 43.3594 83 29C83 14.6406 71.3594 3 57 3C42.6406 3 31 14.6406 31 29C31 43.3594 42.6406 55 57 55ZM57 58C73.0163 58 86 45.0163 86 29C86 12.9837 73.0163 0 57 0C40.9837 0 28 12.9837 28 29C28 45.0163 40.9837 58 57 58Z" clip-rule="evenodd"/></g><path fill="#fff" d="M64.74 72.5209C64.74 49.4346 83.4346 30.74 106.521 30.74C117.592 30.7368 128.212 35.1304 136.045 42.9548C143.87 50.789 148.264 61.4099 148.26 72.4826C148.26 95.5306 129.572 114.26 106.483 114.26C83.4311 114.26 64.74 95.5724 64.74 72.5209Z"/><path fill="#00B5D1" fill-rule="evenodd" d="M134.814 44.1844C127.308 36.6869 117.131 32.477 106.521 32.48H106.521C84.3955 32.48 66.48 50.3955 66.48 72.5209C66.48 94.6112 84.3919 112.52 106.483 112.52C128.61 112.52 146.52 94.5708 146.52 72.4826V72.482C146.524 61.8713 142.314 51.6935 134.816 44.1859C134.815 44.1854 134.815 44.1849 134.814 44.1844ZM106.521 29C118.054 28.9968 129.116 33.5734 137.275 41.7238L137.276 41.7252C145.427 49.8856 150.004 60.9488 150 72.4826M106.52 29C82.4733 29.0003 63 48.4738 63 72.5209C63 96.5336 82.4703 116 106.483 116C130.534 116 150 96.4908 150 72.4832" clip-rule="evenodd"/><path fill="#C0BFBF" fill-rule="evenodd" d="M85.3449 38.4306C85.6547 37.8885 86.2312 37.554 86.8556 37.554H126.065C126.689 37.554 127.266 37.8885 127.575 38.4306L146.472 71.494C146.778 72.029 146.778 72.6858 146.472 73.2208L127.575 106.288C127.266 106.83 126.689 107.164 126.065 107.164H86.8521C86.2277 107.164 85.6512 106.83 85.3414 106.288L66.445 73.2208C66.1372 72.6822 66.1394 72.0206 66.4507 71.4841C66.4661 71.4577 66.482 71.4318 66.4986 71.4065L85.3449 38.4306ZM69.9615 72.3605L87.8618 103.684H125.055L142.957 72.3575L125.055 41.034H87.8653L69.9615 72.3605Z" clip-rule="evenodd"/><path fill="#00B5D1" d="M103.873 65.8429C105.136 63.6017 106.479 61.9313 107.906 60.8317C109.333 59.7355 110.836 59.1613 112.385 59.1613C113.485 59.1613 114.421 59.5719 115.235 60.3445C116.049 61.117 116.418 62.0149 116.418 63.031C116.418 64.9067 115.6 65.8846 114.014 65.8846C113.238 65.8846 112.629 65.3522 112.1 64.2943C111.449 62.951 110.634 62.3002 109.573 62.3002C108.599 62.3002 107.537 62.8709 106.479 63.9706C105.473 64.9917 104.745 66.2532 104.364 67.6351C103.995 68.9783 103.831 71.7449 103.831 75.9418C103.831 79.8081 103.995 82.0075 104.318 82.5782C104.649 83.1489 105.463 83.5178 106.765 83.6779C107.13 83.7196 107.294 83.8414 107.294 84.085C107.294 84.4922 106.806 84.6975 105.867 84.6975H96.3804C95.6879 84.6975 95.3642 84.5339 95.3642 84.1651C95.3642 83.8414 95.8097 83.6779 96.7075 83.6361C97.9673 83.5561 98.7433 83.1489 99.0287 82.4564C99.314 81.7639 99.4741 79.1991 99.4741 74.7586C99.4741 68.2441 99.3523 64.336 99.067 63.031C98.7816 61.7295 97.8072 61.037 96.0533 60.9569C95.3225 60.9152 94.9954 60.7133 94.9954 60.3862C94.9954 60.2227 95.0789 60.0591 95.2007 59.9791C95.3608 59.8955 96.2586 59.7737 97.929 59.6937L103.427 59.4083C103.587 60.4663 103.751 62.5856 103.873 65.8429ZM113.157 79.2026C113.972 79.2026 114.664 79.4879 115.235 80.0552C115.517 80.3227 115.742 80.6449 115.896 81.0021C116.049 81.3592 116.129 81.7439 116.129 82.1327C116.137 82.5189 116.065 82.9024 115.918 83.2597C115.771 83.617 115.553 83.9405 115.277 84.2103C114.722 84.7548 113.976 85.0599 113.199 85.0599C112.422 85.0599 111.676 84.7548 111.122 84.2103C110.845 83.9408 110.626 83.6175 110.479 83.2602C110.331 82.9028 110.259 82.5191 110.266 82.1327C110.266 81.3184 110.551 80.6259 111.122 80.0552C111.381 79.7765 111.697 79.5563 112.048 79.4092C112.399 79.2622 112.777 79.1918 113.157 79.2026Z"/><g style="mix-blend-mode:multiply" opacity=".2"><path fill="#191326" fill-rule="evenodd" d="M106.5 113.163C128.958 113.163 147.163 94.9576 147.163 72.5C147.163 50.0424 128.958 31.837 106.5 31.837C84.0424 31.837 65.837 50.0424 65.837 72.5C65.837 94.9576 84.0424 113.163 106.5 113.163ZM106.5 116C130.524 116 150 96.5244 150 72.5C150 48.4756 130.524 29 106.5 29C82.4756 29 63 48.4756 63 72.5C63 96.5244 82.4756 116 106.5 116Z" clip-rule="evenodd"/></g></g><defs><linearGradient id="paint0_linear" x1="105.757" x2="92.381" y1="87.774" y2="138.886" gradientUnits="userSpaceOnUse"><stop stop-color="#404042"/><stop offset="1" stop-color="#48484B"/></linearGradient><linearGradient id="paint1_linear" x1="46.567" x2="41.735" y1="105.096" y2="123.129" gradientUnits="userSpaceOnUse"><stop stop-color="#404042"/><stop offset="1" stop-color="#48484B"/></linearGradient><linearGradient id="paint2_linear" x1="73.495" x2="89.09" y1="80.169" y2="164.62" gradientUnits="userSpaceOnUse"><stop stop-color="#404042"/><stop offset="1" stop-color="#48484B"/></linearGradient><clipPath id="clip0"><rect width="160" height="160" fill="#fff"/></clipPath></defs></svg>