<svg width="160" height="160" viewBox="0 0 160 160" fill="none" xmlns="http://www.w3.org/2000/svg">
<g clip-path="url(#clip0)">
<path d="M48.045 119.028C44.8667 131.172 63.0449 146.449 88.6472 153.149C114.25 159.85 137.581 155.436 140.759 143.291C143.937 131.147 125.759 115.87 100.157 109.17C74.5546 102.469 51.2233 106.883 48.045 119.028Z" fill="#606063"/>
<path d="M136.924 149.273L152.346 132.988L42.9922 104.37L48.7128 126.188L136.924 149.273Z" fill="#606063"/>
<path d="M49.9337 108.293L8.07245 97.3381C6.25796 96.8632 4.41259 97.9925 4.00962 99.8243L3.54142 101.953C2.60839 106.194 5.11954 110.434 9.28748 111.653L51.0994 123.892L49.9337 108.293Z" fill="#606063"/>
<path d="M43.2026 98.7094C39.5089 112.824 61.5267 130.811 92.3808 138.886C123.235 146.96 151.241 142.064 154.935 127.95C158.629 113.836 136.611 95.8486 105.757 87.774C74.9028 79.6994 46.8963 84.5953 43.2026 98.7094Z" fill="url(#paint0_linear)"/>
<path fill-rule="evenodd" clip-rule="evenodd" d="M127.673 123.286C134.771 128.506 138.919 134.152 139.538 139.157L142.516 138.789C141.744 132.551 136.779 126.258 129.45 120.869C122.061 115.434 112.011 110.721 100.537 107.718C89.0628 104.716 77.9927 103.902 68.888 105.019C59.8593 106.128 52.4479 109.182 48.7196 114.242L51.1348 116.021C54.1263 111.961 60.5082 109.071 69.2536 107.997C77.9231 106.933 88.6081 107.698 99.7773 110.621C110.946 113.544 120.636 118.111 127.673 123.286Z" fill="#606063"/>
<path fill-rule="evenodd" clip-rule="evenodd" d="M56.7343 118.739C48.0136 111.615 44.7365 104.698 46.1049 99.4689C47.4733 94.24 53.7186 89.8153 64.8112 87.8761C75.6178 85.987 89.8893 86.7224 104.997 90.6762C120.105 94.63 132.908 100.98 141.403 107.921C150.124 115.045 153.401 121.962 152.033 127.191C150.664 132.42 144.419 136.844 133.326 138.783C122.52 140.673 108.248 139.937 93.1403 135.983C78.0323 132.03 65.2301 125.68 56.7343 118.739ZM92.3808 138.886C61.5267 130.811 39.5089 112.824 43.2026 98.7094C46.8963 84.5953 74.9028 79.6994 105.757 87.774C136.611 95.8486 158.629 113.836 154.935 127.95C151.241 142.064 123.235 146.96 92.3808 138.886Z" fill="#979797"/>
<path fill-rule="evenodd" clip-rule="evenodd" d="M45.1673 124.049L40.2305 104.926L43.1352 104.177L48.0721 123.299L45.1673 124.049Z" fill="url(#paint1_linear)"/>
<path fill-rule="evenodd" clip-rule="evenodd" d="M43.4691 106.19C43.4241 106.041 43.3812 105.893 43.3406 105.746C43.2656 105.473 43.1983 105.2 43.1386 104.929L42.997 104.389C42.9948 104.38 43.0025 104.373 43.0109 104.375C43.019 104.377 43.0266 104.37 43.0251 104.362C43.0236 104.354 43.0222 104.345 43.0207 104.337C42.9732 104.072 42.9333 103.807 42.9009 103.543C42.8931 103.479 42.8857 103.416 42.8788 103.352C42.8065 102.689 42.7824 102.031 42.8078 101.378C42.8079 101.378 42.8079 101.378 42.8079 101.377C42.8432 100.475 42.9734 99.5849 43.2025 98.7095C46.8962 84.5954 74.9027 79.6995 105.757 87.7741C136.611 95.8487 158.629 113.836 154.935 127.95C154.706 128.826 154.383 129.666 153.972 130.469C153.972 130.47 153.972 130.47 153.972 130.47C153.528 131.338 152.981 132.163 152.337 132.945C152.332 132.951 152.326 132.958 152.321 132.964C152.319 132.967 152.318 132.969 152.318 132.972C152.318 132.977 152.322 132.982 152.327 132.983C152.332 132.984 152.335 132.989 152.336 132.993C152.336 132.996 152.335 133 152.333 133.003L151.725 133.644C151.655 133.72 151.584 133.795 151.511 133.87L150.275 135.175L150.273 135.177L138.793 147.299C131.986 156.33 111.197 159.051 88.6472 153.149C66.3446 147.312 49.6757 134.967 47.8505 123.854C47.7571 123.285 47.3667 122.8 46.8135 122.639L10.1271 111.91C5.98342 110.698 3.4722 106.499 4.36483 102.275L4.82393 100.103C5.21371 98.2581 7.06553 97.1133 8.88976 97.589L43.1386 106.521C43.3391 106.573 43.5217 106.39 43.4691 106.19ZM39.8119 102.553C39.7482 101.009 39.9029 99.4681 40.3002 97.95C42.6255 89.0648 52.2303 83.9845 63.7779 81.9658C75.6114 79.8971 90.7702 80.751 106.516 84.8718C122.262 88.9926 135.896 95.6738 145.199 103.274C154.277 110.691 160.162 119.825 157.837 128.71C157.28 130.839 156.285 132.774 154.936 134.499C154.821 134.697 154.679 134.887 154.511 135.065L153.923 135.686C153.92 135.689 153.916 135.693 153.913 135.697C153.836 135.779 153.759 135.861 153.68 135.943C153.677 135.946 153.673 135.95 153.67 135.953L141.082 149.246C136.911 154.652 129.056 157.706 119.984 158.802C110.684 159.926 99.4667 159.082 87.8877 156.051C76.4351 153.054 66.3397 148.366 58.8095 142.91C51.73 137.78 46.4882 131.648 45.0667 125.253L9.28503 114.789C3.63618 113.137 0.212785 107.413 1.42965 101.655L1.88875 99.4824C2.63251 95.9629 6.16596 93.7784 9.64679 94.6861L39.8119 102.553Z" fill="url(#paint2_linear)"/>
<circle cx="57" cy="29" r="29" fill="#F0B90B"/>
<path d="M46.1848 29L41.7478 33.4678L37.28 29L41.7478 24.5322L46.1848 29ZM57 18.1848L64.6415 25.8263L69.1093 21.3585L61.4678 13.7478L57 9.28003L52.5322 13.7478L44.9215 21.3585L49.3893 25.8263L57 18.1848ZM72.2522 24.5322L67.8152 29L72.283 33.4678L76.72 29L72.2522 24.5322ZM57 39.8152L49.3585 32.1737L44.9215 36.6415L52.563 44.283L57 48.72L61.4678 44.2522L69.1093 36.6107L64.6415 32.1737L57 39.8152ZM57 33.4678L61.4678 29L57 24.5322L52.5322 29L57 33.4678Z" fill="#FFFDFA"/>
<g style="mix-blend-mode:multiply" opacity="0.1">
<path fill-rule="evenodd" clip-rule="evenodd" d="M57 55C71.3594 55 83 43.3594 83 29C83 14.6406 71.3594 3 57 3C42.6406 3 31 14.6406 31 29C31 43.3594 42.6406 55 57 55ZM57 58C73.0163 58 86 45.0163 86 29C86 12.9837 73.0163 0 57 0C40.9837 0 28 12.9837 28 29C28 45.0163 40.9837 58 57 58Z" fill="#191326"/>
</g>
<path d="M106.5 29C130.524 29 150 48.4756 150 72.5C150 96.5244 130.524 116 106.5 116C82.4756 116 63 96.5244 63 72.5C63 48.4756 82.4756 29 106.5 29Z" fill="url(#paint3_linear)"/>
<path d="M103.489 72.5382C103.348 72.5382 103.207 72.5266 103.066 72.503C103.677 71.2105 104.265 69.9533 104.829 68.7313C105.393 67.4857 105.886 66.346 106.309 65.3121C106.732 64.278 107.073 63.3616 107.331 62.5625C107.59 61.7636 107.719 61.1408 107.719 60.6943C107.719 60.2478 107.649 59.8835 107.508 59.6015C107.367 59.296 107.202 59.0727 107.014 58.9318C106.826 58.7672 106.615 58.6616 106.38 58.6145C106.145 58.544 105.945 58.5088 105.78 58.5088C105.169 58.5088 104.476 58.8613 103.701 59.5663C102.949 60.2478 102.138 61.1643 101.268 62.3157C100.422 63.4673 99.5411 64.7951 98.6246 66.299C97.7317 67.7795 96.8387 69.3188 95.9457 70.9168L85.5469 89.9517C85.2884 90.4453 85.0886 90.9741 84.9477 91.538C84.8067 92.102 84.7362 92.6543 84.7362 93.1949C84.7362 93.5708 84.7831 93.9702 84.8772 94.3933C84.9946 94.8163 85.1827 95.204 85.4411 95.5565C85.6997 95.9091 86.0639 96.2028 86.5339 96.4378C87.0039 96.6729 87.6149 96.7903 88.3669 96.7903C89.2834 96.7903 90.1294 96.4612 90.9049 95.8032C91.6804 95.1453 92.4089 94.2875 93.0904 93.23C93.7719 92.149 94.3946 90.9387 94.9587 89.5993C95.5226 88.2363 96.0631 86.8615 96.5801 85.475C97.0971 84.0886 97.5789 82.7491 98.0254 81.4565C98.4719 80.1405 98.9067 79.0008 99.3296 78.0373C100.082 80.4813 100.939 82.8078 101.903 85.0168C102.866 87.2023 103.936 89.1175 105.111 90.7626C106.286 92.4075 107.59 93.7119 109.023 94.6753C110.457 95.6388 112.02 96.1205 113.712 96.1205C115.78 96.1205 117.965 95.6036 120.268 94.5695C122.595 93.512 124.968 91.8435 127.389 89.564C128.211 88.7885 128.787 88.0483 129.116 87.3433C129.468 86.6148 129.645 85.9803 129.645 85.4398C129.645 84.8757 129.48 84.4292 129.151 84.1004C128.822 83.7713 128.423 83.6067 127.953 83.6067C127.201 83.6067 126.46 84.0181 125.732 84.8406C124.956 85.8745 124.04 86.7792 122.982 87.5548C122.089 88.2363 120.973 88.859 119.634 89.423C118.294 89.987 116.767 90.269 115.051 90.269H114.558C114.393 90.269 114.217 90.2572 114.029 90.2339C113.089 90.1633 112.196 89.6933 111.35 88.8238C110.504 87.9543 109.728 86.9086 109.023 85.6865C108.342 84.441 107.754 83.1368 107.261 81.7737C106.791 80.3873 106.45 79.1418 106.239 78.0373C107.743 77.7788 109.294 77.3558 110.892 76.7683C112.513 76.1808 114.088 75.464 115.615 74.618C117.143 73.772 118.576 72.8085 119.916 71.7275C121.279 70.6231 122.465 69.4245 123.476 68.1321C124.486 66.816 125.285 65.4177 125.873 63.9372C126.484 62.4333 126.789 60.8588 126.789 59.2137C126.789 56.7698 126.284 54.6313 125.274 52.7983C124.287 50.9652 122.947 49.4495 121.255 48.251C119.563 47.029 117.613 46.1125 115.404 45.5015C113.218 44.8905 110.927 44.5851 108.53 44.5851C106.086 44.5851 103.771 44.8435 101.586 45.3605C99.4001 45.854 97.3792 46.5238 95.5226 47.3698C93.6896 48.1923 92.0329 49.1558 90.5524 50.2603C89.0719 51.3412 87.8146 52.4692 86.7807 53.6443C85.7701 54.8193 84.9829 55.9943 84.4189 57.1692C83.8784 58.3443 83.6082 59.437 83.6082 60.4476C83.6082 61.5286 83.9019 62.3746 84.4894 62.9855C85.0769 63.573 85.9582 63.8668 87.1331 63.8668C88.0027 63.8668 88.7312 63.6671 89.3186 63.2675C89.9061 62.868 90.4349 62.3511 90.9049 61.7165C91.3985 61.0821 91.8684 60.3535 92.3149 59.531C92.7614 58.7085 93.2549 57.8625 93.7954 56.993C94.3594 56.1235 95.0174 55.2775 95.7694 54.455C96.5449 53.6325 97.4848 52.9041 98.5894 52.2695C99.7174 51.635 101.045 51.118 102.573 50.7186C104.124 50.319 105.968 50.1192 108.107 50.1192C110.01 50.1192 111.644 50.3425 113.007 50.7891C114.393 51.2355 115.521 51.8348 116.391 52.5868C117.284 53.3388 117.93 54.22 118.329 55.2305C118.752 56.2411 118.964 57.3103 118.964 58.4383C118.964 60.0128 118.564 61.6343 117.765 63.3027C116.99 64.9712 115.921 66.487 114.558 67.85C113.195 69.213 111.597 70.341 109.764 71.2341C107.954 72.1035 106.027 72.5382 103.983 72.5382H103.489Z" fill="white"/>
<g style="mix-blend-mode:multiply" opacity="0.2">
<path fill-rule="evenodd" clip-rule="evenodd" d="M106.5 113.163C128.958 113.163 147.163 94.9576 147.163 72.5C147.163 50.0424 128.958 31.837 106.5 31.837C84.0424 31.837 65.837 50.0424 65.837 72.5C65.837 94.9576 84.0424 113.163 106.5 113.163ZM106.5 116C130.524 116 150 96.5244 150 72.5C150 48.4756 130.524 29 106.5 29C82.4756 29 63 48.4756 63 72.5C63 96.5244 82.4756 116 106.5 116Z" fill="#191326"/>
</g>
</g>
<defs>
<linearGradient id="paint0_linear" x1="105.757" y1="87.774" x2="92.3808" y2="138.886" gradientUnits="userSpaceOnUse">
<stop stop-color="#404042"/>
<stop offset="1" stop-color="#48484B"/>
</linearGradient>
<linearGradient id="paint1_linear" x1="46.5673" y1="105.096" x2="41.7353" y2="123.129" gradientUnits="userSpaceOnUse">
<stop stop-color="#404042"/>
<stop offset="1" stop-color="#48484B"/>
</linearGradient>
<linearGradient id="paint2_linear" x1="73.4948" y1="80.1687" x2="89.0896" y2="164.62" gradientUnits="userSpaceOnUse">
<stop stop-color="#404042"/>
<stop offset="1" stop-color="#48484B"/>
</linearGradient>
<linearGradient id="paint3_linear" x1="213.688" y1="116" x2="213.688" y2="29" gradientUnits="userSpaceOnUse">
<stop stop-color="#9E00F6"/>
<stop offset="1" stop-color="#EB627B"/>
</linearGradient>
<clipPath id="clip0">
<rect width="160" height="160" fill="white"/>
</clipPath>
</defs>
</svg>
