<svg width="160" height="160" viewBox="0 0 160 160" fill="none" xmlns="http://www.w3.org/2000/svg">
<g clip-path="url(#clip0)">
<path d="M48.045 119.028C44.8667 131.172 63.0449 146.449 88.6472 153.149C114.25 159.85 137.581 155.436 140.759 143.291C143.937 131.147 125.759 115.87 100.157 109.17C74.5546 102.469 51.2233 106.883 48.045 119.028Z" fill="#606063"/>
<path d="M136.924 149.273L152.346 132.988L42.9922 104.37L48.7128 126.188L136.924 149.273Z" fill="#606063"/>
<path d="M49.9337 108.293L8.07245 97.3381C6.25796 96.8632 4.41259 97.9925 4.00962 99.8243L3.54142 101.953C2.60839 106.194 5.11954 110.434 9.28748 111.653L51.0994 123.892L49.9337 108.293Z" fill="#606063"/>
<path d="M43.2026 98.7094C39.5089 112.823 61.5267 130.811 92.3808 138.886C123.235 146.96 151.241 142.064 154.935 127.95C158.629 113.836 136.611 95.8486 105.757 87.774C74.9028 79.6994 46.8963 84.5953 43.2026 98.7094Z" fill="url(#paint0_linear)"/>
<path fill-rule="evenodd" clip-rule="evenodd" d="M127.673 123.286C134.771 128.506 138.919 134.152 139.538 139.157L142.516 138.789C141.744 132.551 136.779 126.258 129.45 120.869C122.061 115.434 112.011 110.721 100.537 107.718C89.0628 104.716 77.9927 103.902 68.888 105.019C59.8593 106.128 52.4479 109.182 48.7196 114.242L51.1348 116.021C54.1263 111.961 60.5082 109.071 69.2536 107.997C77.9231 106.933 88.6081 107.698 99.7773 110.621C110.946 113.544 120.636 118.111 127.673 123.286Z" fill="#606063"/>
<path fill-rule="evenodd" clip-rule="evenodd" d="M56.7343 118.739C48.0136 111.615 44.7365 104.698 46.1049 99.4689C47.4733 94.24 53.7186 89.8153 64.8112 87.8761C75.6178 85.987 89.8893 86.7224 104.997 90.6762C120.105 94.63 132.908 100.98 141.403 107.921C150.124 115.045 153.401 121.962 152.033 127.191C150.664 132.42 144.419 136.844 133.326 138.783C122.52 140.673 108.248 139.937 93.1403 135.983C78.0323 132.03 65.2301 125.68 56.7343 118.739ZM92.3808 138.886C61.5267 130.811 39.5089 112.823 43.2026 98.7094C46.8963 84.5953 74.9028 79.6994 105.757 87.774C136.611 95.8486 158.629 113.836 154.935 127.95C151.241 142.064 123.235 146.96 92.3808 138.886Z" fill="#979797"/>
<path fill-rule="evenodd" clip-rule="evenodd" d="M45.1673 124.049L40.2305 104.926L43.1352 104.177L48.0721 123.299L45.1673 124.049Z" fill="url(#paint1_linear)"/>
<path fill-rule="evenodd" clip-rule="evenodd" d="M43.4691 106.189C43.4241 106.041 43.3812 105.893 43.3406 105.746C43.2656 105.473 43.1983 105.2 43.1386 104.929L42.997 104.389C42.9948 104.38 43.0025 104.373 43.0109 104.375C43.019 104.377 43.0266 104.37 43.0251 104.362C43.0236 104.354 43.0222 104.345 43.0207 104.337C42.9732 104.072 42.9333 103.807 42.9009 103.543C42.8931 103.479 42.8857 103.416 42.8788 103.352C42.8065 102.689 42.7824 102.031 42.8078 101.378C42.8079 101.378 42.8079 101.378 42.8079 101.377C42.8432 100.475 42.9734 99.5849 43.2025 98.7095C46.8962 84.5954 74.9027 79.6995 105.757 87.774C136.611 95.8486 158.629 113.836 154.935 127.95C154.706 128.826 154.383 129.666 153.972 130.469C153.972 130.47 153.972 130.47 153.972 130.47C153.528 131.338 152.981 132.163 152.337 132.945C152.332 132.951 152.326 132.958 152.321 132.964C152.319 132.967 152.318 132.969 152.318 132.972C152.318 132.977 152.322 132.982 152.327 132.983C152.332 132.984 152.335 132.989 152.336 132.993C152.336 132.996 152.335 133 152.333 133.002L151.725 133.644C151.655 133.72 151.584 133.795 151.511 133.87L150.275 135.175L150.273 135.177L138.793 147.299C131.986 156.33 111.197 159.051 88.6472 153.149C66.3446 147.312 49.6757 134.967 47.8505 123.854C47.7571 123.285 47.3667 122.8 46.8135 122.639L10.1271 111.91C5.98342 110.698 3.4722 106.499 4.36483 102.275L4.82393 100.103C5.21371 98.2581 7.06553 97.1133 8.88976 97.589L43.1386 106.521C43.3391 106.573 43.5217 106.39 43.4691 106.189ZM39.8119 102.553C39.7482 101.009 39.9029 99.4681 40.3002 97.95C42.6255 89.0648 52.2303 83.9845 63.7779 81.9658C75.6114 79.8971 90.7702 80.751 106.516 84.8718C122.262 88.9926 135.896 95.6738 145.199 103.274C154.277 110.691 160.162 119.825 157.837 128.71C157.28 130.839 156.285 132.774 154.936 134.499C154.821 134.697 154.679 134.887 154.511 135.065L153.923 135.686C153.92 135.689 153.916 135.693 153.913 135.697C153.836 135.779 153.759 135.861 153.68 135.943C153.677 135.946 153.673 135.95 153.67 135.953L141.082 149.246C136.911 154.652 129.056 157.706 119.984 158.802C110.684 159.926 99.4667 159.082 87.8877 156.051C76.4351 153.054 66.3397 148.366 58.8095 142.91C51.73 137.78 46.4882 131.648 45.0667 125.253L9.28503 114.789C3.63618 113.137 0.212785 107.413 1.42965 101.655L1.88875 99.4824C2.63251 95.9628 6.16596 93.7784 9.64679 94.6861L39.8119 102.553Z" fill="url(#paint2_linear)"/>
<circle cx="57" cy="29" r="29" fill="#F0B90B"/>
<path d="M46.1848 29L41.7478 33.4678L37.28 29L41.7478 24.5322L46.1848 29ZM57 18.1848L64.6415 25.8263L69.1093 21.3585L61.4678 13.7478L57 9.28L52.5322 13.7478L44.9215 21.3585L49.3893 25.8263L57 18.1848ZM72.2522 24.5322L67.8152 29L72.283 33.4678L76.72 29L72.2522 24.5322ZM57 39.8152L49.3585 32.1737L44.9215 36.6415L52.563 44.283L57 48.72L61.4678 44.2522L69.1093 36.6107L64.6415 32.1737L57 39.8152ZM57 33.4678L61.4678 29L57 24.5322L52.5322 29L57 33.4678Z" fill="#FFFDFA"/>
<g style="mix-blend-mode:multiply" opacity="0.1">
<path fill-rule="evenodd" clip-rule="evenodd" d="M57 55C71.3594 55 83 43.3594 83 29C83 14.6406 71.3594 3 57 3C42.6406 3 31 14.6406 31 29C31 43.3594 42.6406 55 57 55ZM57 58C73.0163 58 86 45.0163 86 29C86 12.9837 73.0163 0 57 0C40.9837 0 28 12.9837 28 29C28 45.0163 40.9837 58 57 58Z" fill="#191326"/>
</g>
<circle cx="106.5" cy="72.5" r="43.5" fill="white"/>
<g clip-path="url(#clip1)">
<path opacity="0.2" d="M89.993 73.1147C89.993 73.1147 88.4341 74.5916 88.5982 76.4787C88.7623 78.3659 90.6494 80.171 92.7006 79.9248C94.6698 79.7607 96.557 77.4633 95.4083 74.4275C94.2596 71.2276 87.3674 67.2072 97.9518 54.8997C97.9518 54.8997 92.8647 64.4995 99.6748 69.5045C103.695 72.3763 108.864 82.7966 102.547 87.1452C102.547 87.1452 116.249 84.1914 104.598 66.4687C104.598 66.4687 92.6186 49.4845 111.572 39.8026C111.572 39.8026 104.844 51.6998 113.459 59.0843C113.459 59.0843 124.7 68.4379 125.602 73.6891C125.602 73.6891 129.705 87.8836 106.321 99.7808C106.321 99.7808 83.8393 87.8836 84.9059 75.0839C84.9059 75.166 87.6136 71.6378 89.993 73.1147Z" fill="#FFCF65"/>
<path d="M89.993 75.8223C89.993 75.8223 88.4341 77.2992 88.5982 79.1863C88.7623 81.0735 90.6494 82.8785 92.7006 82.6324C94.7519 82.3863 96.557 80.1709 95.4083 77.1351C94.2596 73.9352 87.3674 69.9147 97.9518 57.6073C97.9518 57.6073 92.8647 67.2071 99.6748 72.2121C103.695 75.0838 108.864 85.5041 102.547 89.8528C102.547 89.8528 116.249 86.899 104.598 69.1763C104.598 69.1763 92.6186 52.192 111.572 42.5102C111.572 42.5102 104.844 54.4074 113.459 61.7918C113.459 61.7918 124.7 71.1455 125.602 76.3966C125.602 76.3966 129.705 90.5912 106.321 102.488C106.321 102.488 83.8393 90.5912 84.9059 77.7915C84.9059 77.8735 87.6136 74.3454 89.993 75.8223Z" fill="url(#paint3_linear)"/>
<path d="M132.495 57.033C132.33 54.8177 130.936 53.3408 128.884 53.2588C126.915 53.2588 124.864 53.0947 122.895 52.6844C118.71 51.946 116.577 51.5357 112.885 49.4845C112.721 50.7152 112.803 52.2742 112.885 53.5869C116.413 55.392 118.136 55.5561 122.074 56.2946C124.208 56.7048 126.423 56.8689 128.638 56.951C128.72 56.951 128.802 56.951 128.966 56.951C128.966 57.2792 129.048 57.6074 129.048 57.9356C129.459 68.1918 127.572 77.8736 122.402 86.6529C118.546 93.2168 113.295 98.1398 106.731 101.422C106.485 101.504 106.321 101.504 106.075 101.422C98.7722 97.8116 93.2749 92.2322 89.3365 84.7657C86.793 79.9248 85.152 74.7557 84.3315 69.3404C83.8392 65.8944 83.5931 62.5303 83.6751 59.0843C83.6751 58.4279 83.7572 57.6894 83.7572 57.033C84.7418 56.951 85.7264 56.951 86.7109 56.8689C91.6339 56.4587 93.9313 56.1305 98.444 53.9972C98.6902 52.6844 98.8543 51.1255 99.9209 49.2383C95.5723 51.7819 92.9467 52.4383 87.9417 53.0126C86.4648 53.1767 84.9879 53.1767 83.511 53.3408C81.87 53.4229 80.4752 54.8997 80.3111 56.6228C80.229 58.0176 80.147 59.4945 80.0649 60.8894C80.147 65.8944 80.7213 70.8173 81.9521 75.5762C83.8392 82.7966 87.0391 89.2785 91.798 94.9399C95.4902 99.2064 99.7568 102.57 104.762 104.95C105.828 105.442 106.813 105.442 107.88 104.95C113.377 102.324 118.054 98.55 121.91 93.6271C128.228 85.5862 131.428 76.2326 132.33 65.9764C132.659 63.0226 132.659 59.9868 132.495 57.033Z" fill="url(#paint4_linear)"/>
</g>
<g style="mix-blend-mode:multiply" opacity="0.2">
<path fill-rule="evenodd" clip-rule="evenodd" d="M106.5 113.163C128.958 113.163 147.163 94.9576 147.163 72.5C147.163 50.0424 128.958 31.837 106.5 31.837C84.0424 31.837 65.837 50.0424 65.837 72.5C65.837 94.9576 84.0424 113.163 106.5 113.163ZM106.5 116C130.524 116 150 96.5244 150 72.5C150 48.4756 130.524 29 106.5 29C82.4756 29 63 48.4756 63 72.5C63 96.5244 82.4756 116 106.5 116Z" fill="#191326"/>
</g>
</g>
<defs>
<linearGradient id="paint0_linear" x1="105.757" y1="87.774" x2="92.3808" y2="138.886" gradientUnits="userSpaceOnUse">
<stop stop-color="#404042"/>
<stop offset="1" stop-color="#48484B"/>
</linearGradient>
<linearGradient id="paint1_linear" x1="46.5673" y1="105.096" x2="41.7353" y2="123.129" gradientUnits="userSpaceOnUse">
<stop stop-color="#404042"/>
<stop offset="1" stop-color="#48484B"/>
</linearGradient>
<linearGradient id="paint2_linear" x1="73.4948" y1="80.1687" x2="89.0896" y2="164.62" gradientUnits="userSpaceOnUse">
<stop stop-color="#404042"/>
<stop offset="1" stop-color="#48484B"/>
</linearGradient>
<linearGradient id="paint3_linear" x1="84.8693" y1="72.4994" x2="125.932" y2="72.4994" gradientUnits="userSpaceOnUse">
<stop offset="0.1884" stop-color="#FFCF65"/>
<stop offset="0.5306" stop-color="#FF915A"/>
<stop offset="1" stop-color="#FF554E"/>
</linearGradient>
<linearGradient id="paint4_linear" x1="80.0649" y1="77.2786" x2="132.602" y2="77.2786" gradientUnits="userSpaceOnUse">
<stop offset="0.085341" stop-color="#FF554E"/>
<stop offset="0.9071" stop-color="#FFCF65"/>
</linearGradient>
<clipPath id="clip0">
<rect width="160" height="160" fill="white"/>
</clipPath>
<clipPath id="clip1">
<rect width="52.5116" height="65.4755" fill="white" transform="translate(80.0649 39.8026)"/>
</clipPath>
</defs>
</svg>
