<svg width="160" height="160" viewBox="0 0 160 160" fill="none" xmlns="http://www.w3.org/2000/svg">
<g clip-path="url(#clip0)">
<path d="M48.045 119.028C44.8667 131.172 63.0449 146.449 88.6472 153.149C114.25 159.85 137.581 155.436 140.759 143.291C143.937 131.147 125.759 115.87 100.157 109.17C74.5546 102.469 51.2233 106.883 48.045 119.028Z" fill="#606063"/>
<path d="M136.924 149.273L152.346 132.988L42.9922 104.37L48.7128 126.188L136.924 149.273Z" fill="#606063"/>
<path d="M49.9337 108.293L8.07245 97.3381C6.25796 96.8632 4.41259 97.9925 4.00962 99.8243L3.54142 101.953C2.60839 106.194 5.11954 110.434 9.28748 111.653L51.0994 123.892L49.9337 108.293Z" fill="#606063"/>
<path d="M43.2026 98.7094C39.5089 112.823 61.5267 130.811 92.3808 138.886C123.235 146.96 151.241 142.064 154.935 127.95C158.629 113.836 136.611 95.8485 105.757 87.7739C74.9028 79.6993 46.8963 84.5953 43.2026 98.7094Z" fill="url(#paint0_linear)"/>
<path fill-rule="evenodd" clip-rule="evenodd" d="M127.673 123.286C134.771 128.506 138.919 134.152 139.538 139.157L142.516 138.789C141.744 132.551 136.779 126.258 129.45 120.869C122.061 115.434 112.011 110.721 100.537 107.718C89.0628 104.716 77.9927 103.902 68.888 105.019C59.8593 106.128 52.4479 109.182 48.7196 114.242L51.1348 116.021C54.1263 111.961 60.5082 109.071 69.2536 107.997C77.9231 106.933 88.6081 107.698 99.7773 110.621C110.946 113.544 120.636 118.111 127.673 123.286Z" fill="#606063"/>
<path fill-rule="evenodd" clip-rule="evenodd" d="M56.7343 118.739C48.0136 111.615 44.7365 104.698 46.1049 99.4689C47.4733 94.24 53.7186 89.8153 64.8112 87.8761C75.6178 85.9869 89.8893 86.7224 104.997 90.6762C120.105 94.63 132.908 100.98 141.403 107.92C150.124 115.045 153.401 121.962 152.033 127.191C150.664 132.419 144.419 136.844 133.326 138.783C122.52 140.673 108.248 139.937 93.1403 135.983C78.0323 132.029 65.2301 125.68 56.7343 118.739ZM92.3808 138.886C61.5267 130.811 39.5089 112.823 43.2026 98.7094C46.8963 84.5953 74.9028 79.6993 105.757 87.7739C136.611 95.8485 158.629 113.836 154.935 127.95C151.241 142.064 123.235 146.96 92.3808 138.886Z" fill="#979797"/>
<path fill-rule="evenodd" clip-rule="evenodd" d="M45.1673 124.049L40.2305 104.926L43.1352 104.177L48.0721 123.299L45.1673 124.049Z" fill="url(#paint1_linear)"/>
<path fill-rule="evenodd" clip-rule="evenodd" d="M43.4691 106.189C43.4241 106.041 43.3812 105.893 43.3406 105.746C43.2656 105.473 43.1983 105.2 43.1386 104.929L42.997 104.389C42.9948 104.38 43.0025 104.372 43.0109 104.375C43.019 104.377 43.0266 104.37 43.0251 104.362C43.0236 104.353 43.0222 104.345 43.0207 104.337C42.9732 104.072 42.9333 103.807 42.9009 103.543C42.8931 103.479 42.8857 103.416 42.8788 103.352C42.8065 102.689 42.7824 102.031 42.8078 101.378C42.8079 101.378 42.8079 101.378 42.8079 101.377C42.8432 100.475 42.9734 99.5849 43.2025 98.7095C46.8962 84.5954 74.9027 79.6994 105.757 87.774C136.611 95.8486 158.629 113.836 154.935 127.95C154.706 128.826 154.383 129.666 153.972 130.469C153.972 130.469 153.972 130.47 153.972 130.47C153.528 131.338 152.981 132.163 152.337 132.945C152.332 132.951 152.326 132.958 152.321 132.964C152.319 132.967 152.318 132.969 152.318 132.972C152.318 132.977 152.322 132.982 152.327 132.983C152.332 132.984 152.335 132.989 152.336 132.993C152.336 132.996 152.335 133 152.333 133.002L151.725 133.644C151.655 133.72 151.584 133.795 151.511 133.87L150.275 135.175L150.273 135.177L138.793 147.299C131.986 156.33 111.197 159.051 88.6472 153.149C66.3446 147.312 49.6757 134.967 47.8505 123.854C47.7571 123.285 47.3667 122.8 46.8135 122.639L10.1271 111.91C5.98342 110.698 3.4722 106.499 4.36483 102.275L4.82393 100.103C5.21371 98.2581 7.06553 97.1133 8.88976 97.589L43.1386 106.52C43.3391 106.573 43.5217 106.39 43.4691 106.189ZM39.8119 102.553C39.7482 101.009 39.9029 99.4681 40.3002 97.9499C42.6255 89.0648 52.2303 83.9845 63.7779 81.9658C75.6114 79.8971 90.7702 80.751 106.516 84.8718C122.262 88.9926 135.896 95.6738 145.199 103.274C154.277 110.691 160.162 119.825 157.837 128.71C157.28 130.839 156.285 132.774 154.936 134.499C154.821 134.697 154.679 134.887 154.511 135.065L153.923 135.686C153.92 135.689 153.916 135.693 153.913 135.697C153.836 135.779 153.759 135.861 153.68 135.943C153.677 135.946 153.673 135.95 153.67 135.953L141.082 149.246C136.911 154.652 129.056 157.706 119.984 158.802C110.684 159.926 99.4667 159.082 87.8877 156.051C76.4351 153.054 66.3397 148.366 58.8095 142.91C51.73 137.78 46.4882 131.648 45.0667 125.253L9.28503 114.789C3.63618 113.137 0.212785 107.413 1.42965 101.655L1.88875 99.4823C2.63251 95.9628 6.16596 93.7783 9.64679 94.6861L39.8119 102.553Z" fill="url(#paint2_linear)"/>
<circle cx="57" cy="29" r="29" fill="url(#paint3_linear)"/>
<path fill-rule="evenodd" clip-rule="evenodd" d="M38.1636 32.1863C38.1586 32.2946 38.1561 32.4033 38.1561 32.5124C38.1561 32.9246 38.192 33.3316 38.262 33.7326H38.1561V34.3636C38.1561 34.6717 38.1761 34.9769 38.2155 35.2788C38.9833 41.17 47.1004 45.8054 57.0005 45.8054C66.9006 45.8054 75.0176 41.17 75.7855 35.2788C75.8249 34.9769 75.8449 34.6717 75.8449 34.3636V33.7326H75.739C75.809 33.3316 75.8449 32.9246 75.8449 32.5124C75.8449 32.4033 75.8424 32.2946 75.8374 32.1863C75.5531 26.018 67.2284 21.0707 57.0005 21.0707C46.7726 21.0707 38.4479 26.018 38.1636 32.1863ZM36.6159 32.1863C36.7561 28.4228 39.3135 25.2614 42.873 23.1002C46.5628 20.8598 51.5614 19.5244 57.0005 19.5244C62.4395 19.5244 67.4381 20.8598 71.128 23.1002C74.6875 25.2614 77.2449 28.4228 77.3851 32.1863H77.3911V34.3636C77.3911 38.2706 74.7898 41.5525 71.128 43.7759C67.4381 46.0162 62.4395 47.3516 57.0005 47.3516C51.5614 47.3516 46.5628 46.0162 42.873 43.7759C39.2112 41.5525 36.6099 38.2706 36.6099 34.3636V32.1863H36.6159Z" fill="#606063"/>
<path d="M75.8446 34.3639C75.8446 40.6829 67.4077 45.8056 57.0002 45.8056C46.5927 45.8056 38.1558 40.6829 38.1558 34.3639V32.5526H75.8446V34.3639Z" fill="#BEBEBE"/>
<path d="M75.8446 32.5124C75.8446 38.8315 67.4077 43.9541 57.0002 43.9541C46.5927 43.9541 38.1558 38.8315 38.1558 32.5124C38.1558 26.1933 46.5927 21.0707 57.0002 21.0707C67.4077 21.0707 75.8446 26.1933 75.8446 32.5124Z" fill="#F5F3F3"/>
<path fill-rule="evenodd" clip-rule="evenodd" d="M41.0552 29.2801C41.0552 29.2872 41.0552 29.2944 41.0552 29.3016C41.0552 29.8219 41.1306 30.3314 41.2751 30.8263H41.055V31.4964C41.055 31.7921 41.0794 32.0844 41.1269 32.3725C41.8454 36.723 47.8558 40.1188 55.1641 40.1188C62.4723 40.1188 68.4828 36.723 69.2012 32.3725C69.2488 32.0844 69.2731 31.7921 69.2731 31.4964V30.8263H69.0534C69.194 30.3449 69.2692 29.8496 69.2731 29.3441C69.2733 29.3299 69.2733 29.3157 69.2733 29.3016C69.2733 29.2944 69.2733 29.2872 69.2733 29.2801C69.2543 24.5279 62.9447 20.6792 55.1642 20.6792C47.3837 20.6792 41.0742 24.5279 41.0552 29.2801ZM39.509 29.2801H39.5088V31.4964C39.5088 34.6199 41.5742 37.1973 44.3812 38.9127C47.2147 40.6443 51.0309 41.665 55.1641 41.665C59.2973 41.665 63.1135 40.6443 65.947 38.9127C68.7539 37.1973 70.8194 34.6199 70.8194 31.4964V29.3498C70.8195 29.3337 70.8195 29.3177 70.8195 29.3016C70.8195 26.1781 68.7541 23.6006 65.9471 21.8852C63.1136 20.1536 59.2975 19.1329 55.1642 19.1329C51.031 19.1329 47.2149 20.1536 44.3813 21.8852C41.5808 23.5967 39.5184 26.1662 39.509 29.2801Z" fill="#612F01"/>
<path d="M69.2736 31.4964C69.2736 36.2584 62.9567 40.1188 55.1645 40.1188C47.3723 40.1188 41.0554 36.2584 41.0554 31.4964V29.4734H69.2736V31.4964Z" fill="#FEDC90"/>
<path d="M69.2736 29.3016C69.2736 34.0636 62.9567 37.924 55.1645 37.924C47.3723 37.924 41.0554 34.0636 41.0554 29.3016C41.0554 24.5396 47.3723 20.6792 55.1645 20.6792C62.9567 20.6792 69.2736 24.5396 69.2736 29.3016Z" fill="#D1884F"/>
<path fill-rule="evenodd" clip-rule="evenodd" d="M45.3074 24.6413C45.3074 24.6484 45.3074 24.6556 45.3074 24.6628C45.3074 25.1831 45.3828 25.6926 45.5273 26.1875H45.3072V26.8576C45.3072 27.1534 45.3316 27.4456 45.3791 27.7338C46.0976 32.0842 52.108 35.48 59.4163 35.48C66.7245 35.48 72.735 32.0842 73.4534 27.7338C73.501 27.4456 73.5253 27.1534 73.5253 26.8576V26.1875H73.3056C73.4462 25.7061 73.5213 25.2108 73.5253 24.7053C73.5254 24.6911 73.5255 24.677 73.5255 24.6628C73.5255 24.6556 73.5255 24.6484 73.5255 24.6413C73.5065 19.8891 67.1969 16.0404 59.4164 16.0404C51.6359 16.0404 45.3264 19.8891 45.3074 24.6413ZM43.7612 24.6413H43.761V26.8576C43.761 29.9811 45.8264 32.5585 48.6334 34.2739C51.4669 36.0055 55.2831 37.0262 59.4163 37.0262C63.5495 37.0262 67.3656 36.0055 70.1992 34.2739C73.0061 32.5585 75.0715 29.9811 75.0715 26.8576V24.711C75.0717 24.695 75.0717 24.6789 75.0717 24.6628C75.0717 21.5393 73.0063 18.9619 70.1993 17.2464C67.3658 15.5148 63.5496 14.4941 59.4164 14.4941C55.2832 14.4941 51.4671 15.5148 48.6335 17.2464C45.833 18.9579 43.7706 21.5274 43.7612 24.6413Z" fill="#612F01"/>
<path d="M73.5253 26.8577C73.5253 31.6198 67.2084 35.4801 59.4162 35.4801C51.624 35.4801 45.3071 31.6198 45.3071 26.8577V24.8347H73.5253V26.8577Z" fill="#FEDC90"/>
<path d="M73.5253 24.6629C73.5253 29.4249 67.2084 33.2853 59.4162 33.2853C51.624 33.2853 45.3071 29.4249 45.3071 24.6629C45.3071 19.9009 51.624 16.0405 59.4162 16.0405C67.2084 16.0405 73.5253 19.9009 73.5253 24.6629Z" fill="#D1884F"/>
<path fill-rule="evenodd" clip-rule="evenodd" d="M41.0552 20.0026C41.0552 20.0098 41.0552 20.0169 41.0552 20.0241C41.0552 20.5444 41.1306 21.0539 41.2751 21.5488H41.055V22.2189C41.055 22.5147 41.0794 22.807 41.1269 23.0951C41.8454 27.4456 47.8558 30.8413 55.1641 30.8413C62.4723 30.8413 68.4828 27.4456 69.2012 23.0951C69.2488 22.807 69.2731 22.5147 69.2731 22.2189V21.5488H69.0534C69.194 21.0674 69.2692 20.5722 69.2731 20.0666C69.2733 20.0525 69.2733 20.0383 69.2733 20.0241C69.2733 20.0169 69.2733 20.0098 69.2733 20.0026C69.2543 15.2505 62.9447 11.4017 55.1642 11.4017C47.3837 11.4017 41.0742 15.2505 41.0552 20.0026ZM39.509 20.0026H39.5088V22.2189C39.5088 25.3424 41.5742 27.9198 44.3812 29.6352C47.2147 31.3669 51.0309 32.3875 55.1641 32.3875C59.2973 32.3875 63.1135 31.3669 65.947 29.6352C68.7539 27.9198 70.8194 25.3424 70.8194 22.2189V20.0724C70.8195 20.0563 70.8195 20.0402 70.8195 20.0241C70.8195 16.9006 68.7541 14.3232 65.9471 12.6078C63.1136 10.8761 59.2975 9.85547 55.1642 9.85547C51.031 9.85547 47.2149 10.8761 44.3813 12.6078C41.5808 14.3192 39.5184 16.8888 39.509 20.0026Z" fill="#612F01"/>
<path d="M69.2736 22.2189C69.2736 26.981 62.9567 30.8413 55.1645 30.8413C47.3723 30.8413 41.0554 26.981 41.0554 22.2189V20.1959H69.2736V22.2189Z" fill="#FEDC90"/>
<path d="M69.2736 20.0241C69.2736 24.7861 62.9567 28.6465 55.1645 28.6465C47.3723 28.6465 41.0554 24.7861 41.0554 20.0241C41.0554 15.2621 47.3723 11.4017 55.1645 11.4017C62.9567 11.4017 69.2736 15.2621 69.2736 20.0241Z" fill="#D1884F"/>
<path fill-rule="evenodd" clip-rule="evenodd" d="M44.3922 20.5606C44.3922 22.1504 45.5475 23.5744 47.37 24.5324L46.1073 26.7196L46.1075 26.7197H46.1073V32.255C46.1073 32.987 46.7006 33.5803 47.4326 33.5803C48.1645 33.5803 48.7579 32.987 48.7579 32.255V27.8528L50.1164 25.4998C50.9851 25.684 51.9176 25.784 52.888 25.784C57.5801 25.784 61.3838 23.4454 61.3838 20.5606C61.3838 17.6758 57.5801 15.3372 52.888 15.3372C48.1959 15.3372 44.3922 17.6758 44.3922 20.5606Z" fill="url(#paint4_linear)"/>
<path fill-rule="evenodd" clip-rule="evenodd" d="M47.3706 24.5323C47.1687 24.4262 46.975 24.3144 46.7902 24.1972C45.3063 23.2568 44.3928 21.9742 44.3928 20.5605C44.3928 17.6757 48.1965 15.3371 52.8886 15.3371C57.5807 15.3371 61.3844 17.6757 61.3844 20.5605C61.3844 23.4453 57.5807 25.784 52.8886 25.784C51.9181 25.784 50.9857 25.6839 50.117 25.4997L48.7585 27.8528V32.2549C48.7585 32.9869 48.1651 33.5803 47.4332 33.5803C46.7012 33.5803 46.1078 32.9869 46.1078 32.2549V26.7196L47.3706 24.5323ZM44.7549 26.7429V32.2549C44.7549 33.7341 45.954 34.9332 47.4332 34.9332C48.9123 34.9332 50.1114 33.7341 50.1114 32.2549V28.2153L50.816 26.9948C51.4853 27.0881 52.1789 27.1369 52.8886 27.1369C55.4436 27.1369 57.8215 26.5029 59.6046 25.4066C61.3657 24.3238 62.7373 22.6486 62.7373 20.5605C62.7373 18.4724 61.3657 16.7972 59.6046 15.7144C57.8215 14.6181 55.4436 13.9841 52.8886 13.9841C50.3336 13.9841 47.9557 14.6181 46.1726 15.7144C44.4115 16.7972 43.0399 18.4724 43.0399 20.5605C43.0399 22.3931 44.0895 23.9022 45.5479 24.9835L44.9455 26.0268C44.8881 26.123 44.8422 26.2268 44.8099 26.3365C44.7704 26.4702 44.7524 26.6072 44.7549 26.7429Z" fill="#633001"/>
<path d="M47.0469 18.3597C47.0469 19.8542 48.9506 21.0656 51.299 21.0656C53.6473 21.0656 55.551 19.8542 55.551 18.3597C55.551 16.8653 53.6473 15.6538 51.299 15.6538C48.9506 15.6538 47.0469 16.8653 47.0469 18.3597Z" fill="#9E7200"/>
<path d="M47.0464 17.2002H55.5505V18.3599H47.0464V17.2002Z" fill="#9E7200"/>
<path d="M47.0469 17.2001C47.0469 18.6945 48.9506 19.906 51.299 19.906C53.6473 19.906 55.551 18.6945 55.551 17.2001C55.551 15.7056 53.6473 14.4941 51.299 14.4941C48.9506 14.4941 47.0469 15.7056 47.0469 17.2001Z" fill="#F0B90B"/>
<path d="M49.6854 16.8739L50.8839 16.1112C51.1371 15.9501 51.4607 15.9501 51.714 16.1112L52.9125 16.8739C53.1512 17.0258 53.1512 17.3743 52.9125 17.5262L51.714 18.2889C51.4607 18.45 51.1371 18.45 50.8839 18.2889L49.6854 17.5262C49.4467 17.3743 49.4467 17.0258 49.6854 16.8739Z" fill="#9E7200"/>
<path fill-rule="evenodd" clip-rule="evenodd" d="M47.5658 14.1453C48.5836 13.4976 49.9071 13.1412 51.2989 13.1412C52.6906 13.1412 54.0141 13.4976 55.0319 14.1453C56.0336 14.7828 56.9039 15.8299 56.9039 17.2001V18.3598C56.9039 19.73 56.0336 20.7771 55.0319 21.4146C54.0141 22.0623 52.6906 22.4187 51.2989 22.4187C49.9071 22.4187 48.5836 22.0623 47.5658 21.4146C46.5641 20.7771 45.6938 19.73 45.6938 18.3598V17.2001C45.6938 15.8299 46.5641 14.7828 47.5658 14.1453ZM51.2989 14.4942C48.9505 14.4942 47.0468 15.7057 47.0468 17.2001V18.3598C47.0468 19.8542 48.9505 21.0657 51.2989 21.0657C53.6472 21.0657 55.5509 19.8542 55.5509 18.3598V17.2001C55.5509 15.7057 53.6472 14.4942 51.2989 14.4942Z" fill="#633001"/>
<g style="mix-blend-mode:multiply" opacity="0.1">
<path fill-rule="evenodd" clip-rule="evenodd" d="M57 55C71.3594 55 83 43.3594 83 29C83 14.6406 71.3594 3 57 3C42.6406 3 31 14.6406 31 29C31 43.3594 42.6406 55 57 55ZM57 58C73.0163 58 86 45.0163 86 29C86 12.9837 73.0163 0 57 0C40.9837 0 28 12.9837 28 29C28 45.0163 40.9837 58 57 58Z" fill="#191326"/>
</g>
<path d="M106.5 116C130.524 116 150 96.5244 150 72.5C150 48.4756 130.524 29 106.5 29C82.4756 29 63 48.4756 63 72.5C63 96.5244 82.4756 116 106.5 116Z" fill="black"/>
<path d="M102.488 71.5036C103.473 71.5748 104.316 70.8271 104.387 69.8538L105.491 53.8662C105.562 52.8811 104.815 52.0384 103.841 51.9672C102.856 51.896 102.014 52.6437 101.942 53.617L100.957 67.8242L86.75 66.8391C85.7649 66.7678 84.9222 67.5156 84.8509 68.4889C84.7797 69.474 85.5275 70.3167 86.5007 70.3879L102.488 71.5036ZM105.016 77.2838C105.076 76.2987 104.316 75.456 103.343 75.4085L87.3434 74.5065C86.3583 74.4471 85.5156 75.2067 85.4681 76.18C85.4088 77.1651 86.1684 78.0078 87.1417 78.0553L101.361 78.8505L100.566 93.0696C100.506 94.0547 101.266 94.8974 102.239 94.9449C103.224 95.0043 104.067 94.2447 104.114 93.2714L105.016 77.2838ZM110.69 75.005C109.705 75.005 108.909 75.812 108.921 76.7972L108.993 92.8204C108.993 93.8055 109.8 94.6007 110.785 94.5889C111.77 94.5889 112.565 93.7818 112.553 92.7966L112.482 78.5538L126.725 78.4826C127.71 78.4826 128.505 77.6755 128.493 76.6904C128.493 75.7052 127.686 74.91 126.701 74.9219L110.69 75.005ZM108.423 69.4621C108.47 70.4472 109.301 71.2069 110.274 71.1594L126.286 70.4591C127.271 70.4116 128.03 69.5808 127.983 68.6075C127.936 67.6343 127.105 66.8628 126.131 66.9103L111.9 67.5275L111.283 53.2965C111.236 52.3114 110.405 51.5517 109.432 51.5992C108.447 51.6467 107.687 52.4775 107.734 53.4508L108.423 69.4621ZM82.8688 49.7477L101.266 70.8864L103.948 68.5482L85.5512 47.4213L82.8688 49.7477ZM83.5335 97.1882L104.435 78.5063L102.061 75.8477L81.1597 94.5295L83.5335 97.1882ZM131.864 95.2535L111.948 75.5272L109.444 78.0553L129.36 97.7816L131.864 95.2535ZM127.817 47.5163L108.886 68.1803L111.509 70.5897L130.44 49.9257L127.817 47.5163Z" fill="black"/>
<path d="M102.488 71.5036C103.473 71.5748 104.316 70.8271 104.387 69.8538L105.491 53.8662C105.562 52.8811 104.815 52.0384 103.841 51.9672C102.856 51.896 102.014 52.6437 101.942 53.617L100.957 67.8242L86.75 66.8391C85.7649 66.7678 84.9222 67.5156 84.8509 68.4889C84.7797 69.474 85.5275 70.3167 86.5007 70.3879L102.488 71.5036ZM105.016 77.2838C105.076 76.2987 104.316 75.456 103.343 75.4085L87.3434 74.5065C86.3583 74.4471 85.5156 75.2067 85.4681 76.18C85.4088 77.1651 86.1684 78.0078 87.1417 78.0553L101.361 78.8505L100.566 93.0696C100.506 94.0547 101.266 94.8974 102.239 94.9449C103.224 95.0043 104.067 94.2447 104.114 93.2714L105.016 77.2838ZM110.69 75.005C109.705 75.005 108.909 75.812 108.921 76.7972L108.993 92.8204C108.993 93.8055 109.8 94.6007 110.785 94.5889C111.77 94.5889 112.565 93.7818 112.553 92.7966L112.482 78.5538L126.725 78.4826C127.71 78.4826 128.505 77.6755 128.493 76.6904C128.493 75.7052 127.686 74.91 126.701 74.9219L110.69 75.005ZM108.423 69.4621C108.47 70.4472 109.301 71.2069 110.274 71.1594L126.286 70.4591C127.271 70.4116 128.03 69.5808 127.983 68.6075C127.936 67.6343 127.105 66.8628 126.131 66.9103L111.9 67.5275L111.283 53.2965C111.236 52.3114 110.405 51.5517 109.432 51.5992C108.447 51.6467 107.687 52.4775 107.734 53.4508L108.423 69.4621ZM82.8688 49.7477L101.266 70.8864L103.948 68.5482L85.5512 47.4213L82.8688 49.7477ZM83.5335 97.1882L104.435 78.5063L102.061 75.8477L81.1597 94.5295L83.5335 97.1882ZM131.864 95.2535L111.948 75.5272L109.444 78.0553L129.36 97.7816L131.864 95.2535ZM127.817 47.5163L108.886 68.1803L111.509 70.5897L130.44 49.9257L127.817 47.5163Z" fill="white"/>
<g style="mix-blend-mode:multiply" opacity="0.2">
<path fill-rule="evenodd" clip-rule="evenodd" d="M106.5 113.163C128.958 113.163 147.163 94.9576 147.163 72.5C147.163 50.0424 128.958 31.837 106.5 31.837C84.0424 31.837 65.837 50.0424 65.837 72.5C65.837 94.9576 84.0424 113.163 106.5 113.163ZM106.5 116C130.524 116 150 96.5244 150 72.5C150 48.4756 130.524 29 106.5 29C82.4756 29 63 48.4756 63 72.5C63 96.5244 82.4756 116 106.5 116Z" fill="#191326"/>
</g>
</g>
<defs>
<linearGradient id="paint0_linear" x1="105.757" y1="87.7739" x2="92.3808" y2="138.886" gradientUnits="userSpaceOnUse">
<stop stop-color="#404042"/>
<stop offset="1" stop-color="#48484B"/>
</linearGradient>
<linearGradient id="paint1_linear" x1="46.5673" y1="105.096" x2="41.7353" y2="123.129" gradientUnits="userSpaceOnUse">
<stop stop-color="#404042"/>
<stop offset="1" stop-color="#48484B"/>
</linearGradient>
<linearGradient id="paint2_linear" x1="73.4948" y1="80.1687" x2="89.0896" y2="164.62" gradientUnits="userSpaceOnUse">
<stop stop-color="#404042"/>
<stop offset="1" stop-color="#48484B"/>
</linearGradient>
<linearGradient id="paint3_linear" x1="57" y1="0" x2="57" y2="58" gradientUnits="userSpaceOnUse">
<stop stop-color="#54DADE"/>
<stop offset="0.762157" stop-color="#24C7D6"/>
</linearGradient>
<linearGradient id="paint4_linear" x1="52.9799" y1="15.512" x2="52.9799" y2="33.4433" gradientUnits="userSpaceOnUse">
<stop stop-color="#9F4A08"/>
<stop offset="0.370494" stop-color="#7D3900"/>
<stop offset="1" stop-color="#8D4104"/>
</linearGradient>
<clipPath id="clip0">
<rect width="160" height="160" fill="white"/>
</clipPath>
</defs>
</svg>
