<svg width="186" height="171" viewBox="0 0 186 171" fill="none" xmlns="http://www.w3.org/2000/svg">
<path d="M67.045 119.028C63.8667 131.172 82.0449 146.449 107.647 153.149C133.25 159.849 156.581 155.436 159.759 143.291C162.937 131.146 144.759 115.87 119.157 109.169C93.5546 102.469 70.2233 106.883 67.045 119.028Z" fill="#606063"/>
<path d="M155.924 149.273L171.346 132.988L61.9922 104.369L67.7128 126.187L155.924 149.273Z" fill="#606063"/>
<path d="M68.9337 108.293L27.0725 97.338C25.258 96.8632 23.4126 97.9924 23.0096 99.8242L22.5414 101.953C21.6084 106.194 24.1195 110.433 28.2875 111.653L70.0994 123.892L68.9337 108.293Z" fill="#606063"/>
<path d="M62.2026 98.7096C58.5089 112.824 80.5267 130.811 111.381 138.886C142.235 146.96 170.241 142.064 173.935 127.95C177.629 113.836 155.611 95.8488 124.757 87.7742C93.9028 79.6996 65.8963 84.5955 62.2026 98.7096Z" fill="url(#paint0_linear)"/>
<path fill-rule="evenodd" clip-rule="evenodd" d="M146.673 123.286C153.771 128.506 157.919 134.152 158.538 139.157L161.516 138.789C160.744 132.551 155.779 126.258 148.45 120.869C141.061 115.434 131.011 110.721 119.537 107.718C108.063 104.716 96.9927 103.901 87.888 105.019C78.8593 106.128 71.4479 109.182 67.7196 114.242L70.1348 116.021C73.1263 111.961 79.5082 109.071 88.2536 107.997C96.9231 106.933 107.608 107.698 118.777 110.621C129.946 113.544 139.636 118.111 146.673 123.286Z" fill="#606063"/>
<path fill-rule="evenodd" clip-rule="evenodd" d="M75.7343 118.739C67.0136 111.615 63.7365 104.698 65.1049 99.4692C66.4733 94.2403 72.7186 89.8155 83.8112 87.8763C94.6178 85.9872 108.889 86.7226 123.997 90.6764C139.105 94.6302 151.908 100.98 160.403 107.921C169.124 115.045 172.401 121.962 171.033 127.191C169.664 132.42 163.419 136.844 152.326 138.784C141.52 140.673 127.248 139.937 112.14 135.984C97.0323 132.03 84.2301 125.68 75.7343 118.739ZM111.381 138.886C80.5267 130.811 58.5089 112.824 62.2026 98.7096C65.8963 84.5955 93.9028 79.6996 124.757 87.7742C155.611 95.8488 177.629 113.836 173.935 127.95C170.241 142.064 142.235 146.96 111.381 138.886Z" fill="#979797"/>
<path fill-rule="evenodd" clip-rule="evenodd" d="M64.1673 124.049L59.2305 104.926L62.1352 104.176L67.0721 123.299L64.1673 124.049Z" fill="url(#paint1_linear)"/>
<path fill-rule="evenodd" clip-rule="evenodd" d="M62.4691 106.189C62.4241 106.041 62.3812 105.893 62.3406 105.746C62.2656 105.473 62.1983 105.2 62.1386 104.929L61.997 104.389C61.9948 104.38 62.0025 104.372 62.0109 104.375C62.019 104.377 62.0266 104.37 62.0251 104.362C62.0236 104.353 62.0222 104.345 62.0207 104.337C61.9732 104.072 61.9333 103.807 61.9009 103.543C61.8931 103.479 61.8857 103.416 61.8788 103.352C61.8065 102.689 61.7824 102.031 61.8078 101.378C61.8079 101.378 61.8079 101.378 61.8079 101.377C61.8432 100.475 61.9734 99.5849 62.2025 98.7095C65.8962 84.5954 93.9027 79.6994 124.757 87.774C155.611 95.8486 177.629 113.836 173.935 127.95C173.706 128.826 173.383 129.666 172.972 130.469C172.972 130.469 172.972 130.47 172.972 130.47C172.528 131.338 171.981 132.163 171.337 132.945C171.332 132.951 171.326 132.958 171.321 132.964C171.319 132.967 171.318 132.969 171.318 132.972C171.318 132.977 171.322 132.982 171.327 132.983C171.332 132.984 171.335 132.989 171.336 132.993C171.336 132.996 171.335 133 171.333 133.002L170.725 133.644C170.655 133.72 170.584 133.795 170.511 133.87L169.275 135.175L169.273 135.177L157.793 147.299C150.986 156.33 130.197 159.051 107.647 153.149C85.3446 147.312 68.6757 134.967 66.8505 123.854C66.7571 123.285 66.3667 122.8 65.8135 122.639L29.1271 111.91C24.9834 110.698 22.4722 106.499 23.3648 102.275L23.8239 100.103C24.2137 98.2581 26.0655 97.1133 27.8898 97.589L62.1386 106.52C62.3391 106.573 62.5217 106.39 62.4691 106.189ZM58.8119 102.553C58.7482 101.009 58.9029 99.4681 59.3002 97.9499C61.6255 89.0648 71.2303 83.9845 82.7779 81.9658C94.6114 79.8971 109.77 80.751 125.516 84.8718C141.262 88.9926 154.896 95.6738 164.199 103.274C173.277 110.691 179.162 119.825 176.837 128.71C176.28 130.839 175.285 132.774 173.936 134.499C173.821 134.697 173.679 134.887 173.511 135.065L172.923 135.686C172.92 135.689 172.916 135.693 172.913 135.697C172.836 135.779 172.759 135.861 172.68 135.943C172.677 135.946 172.673 135.95 172.67 135.953L160.082 149.246C155.911 154.652 148.056 157.706 138.984 158.802C129.684 159.926 118.467 159.082 106.888 156.051C95.4351 153.054 85.3397 148.366 77.8095 142.91C70.73 137.78 65.4882 131.648 64.0667 125.253L28.285 114.789C22.6362 113.137 19.2128 107.413 20.4296 101.655L20.8887 99.4823C21.6325 95.9628 25.166 93.7783 28.6468 94.6861L58.8119 102.553Z" fill="url(#paint2_linear)"/>
<circle cx="76" cy="29" r="29" fill="url(#paint3_linear)"/>
<path fill-rule="evenodd" clip-rule="evenodd" d="M57.1633 32.1863C57.1583 32.2946 57.1558 32.4033 57.1558 32.5124C57.1558 32.9246 57.1917 33.3316 57.2617 33.7326H57.1558V34.3636C57.1558 34.6717 57.1759 34.9769 57.2152 35.2788C57.9831 41.17 66.1001 45.8054 76.0002 45.8054C85.9004 45.8054 94.0174 41.17 94.7853 35.2788C94.8246 34.9769 94.8447 34.6717 94.8447 34.3636V33.7326H94.7388C94.8088 33.3316 94.8447 32.9246 94.8447 32.5124C94.8447 32.4033 94.8422 32.2946 94.8372 32.1863C94.5529 26.018 86.2281 21.0707 76.0002 21.0707C65.7724 21.0707 57.4476 26.018 57.1633 32.1863ZM55.6157 32.1863C55.7558 28.4228 58.3133 25.2614 61.8728 23.1002C65.5626 20.8598 70.5612 19.5244 76.0002 19.5244C81.4393 19.5244 86.4379 20.8598 90.1277 23.1002C93.6872 25.2614 96.2447 28.4228 96.3848 32.1863H96.3909V34.3636C96.3909 38.2706 93.7896 41.5525 90.1277 43.7759C86.4379 46.0162 81.4393 47.3516 76.0002 47.3516C70.5612 47.3516 65.5626 46.0162 61.8728 43.7759C58.2109 41.5525 55.6096 38.2706 55.6096 34.3636V32.1863H55.6157Z" fill="#606063"/>
<path d="M94.8449 34.364C94.8449 40.6831 86.4079 45.8057 76.0004 45.8057C65.5929 45.8057 57.156 40.6831 57.156 34.364V32.5527H94.8449V34.364Z" fill="#BEBEBE"/>
<path d="M94.8449 32.5125C94.8449 38.8316 86.4079 43.9542 76.0004 43.9542C65.5929 43.9542 57.156 38.8316 57.156 32.5125C57.156 26.1934 65.5929 21.0708 76.0004 21.0708C86.4079 21.0708 94.8449 26.1934 94.8449 32.5125Z" fill="#F5F3F3"/>
<path fill-rule="evenodd" clip-rule="evenodd" d="M60.0552 29.2799C60.0552 29.2871 60.0552 29.2943 60.0552 29.3014C60.0552 29.8217 60.1306 30.3313 60.2751 30.8262H60.055V31.4962C60.055 31.792 60.0794 32.0843 60.1269 32.3724C60.8454 36.7229 66.8558 40.1186 74.1641 40.1186C81.4723 40.1186 87.4828 36.7229 88.2012 32.3724C88.2488 32.0843 88.2732 31.792 88.2732 31.4962V30.8262H88.0534C88.194 30.3448 88.2692 29.8495 88.2732 29.344C88.2733 29.3298 88.2733 29.3156 88.2733 29.3014C88.2733 29.2943 88.2733 29.2871 88.2733 29.2799C88.2543 24.5278 81.9447 20.6791 74.1642 20.6791C66.3837 20.6791 60.0742 24.5278 60.0552 29.2799ZM58.509 29.2799H58.5088V31.4962C58.5088 34.6198 60.5742 37.1972 63.3812 38.9126C66.2147 40.6442 70.0309 41.6649 74.1641 41.6649C78.2973 41.6649 82.1135 40.6442 84.947 38.9126C87.754 37.1972 89.8194 34.6198 89.8194 31.4962V29.3497C89.8195 29.3336 89.8195 29.3175 89.8195 29.3014C89.8195 26.1779 87.7541 23.6005 84.9471 21.8851C82.1136 20.1535 78.2975 19.1328 74.1642 19.1328C70.031 19.1328 66.2149 20.1535 63.3814 21.8851C60.5808 23.5966 58.5184 26.1661 58.509 29.2799Z" fill="#612F01"/>
<path d="M88.2736 31.4962C88.2736 36.2582 81.9567 40.1186 74.1645 40.1186C66.3723 40.1186 60.0554 36.2582 60.0554 31.4962V29.4731H88.2736V31.4962Z" fill="#FEDC90"/>
<path d="M88.2736 29.3016C88.2736 34.0636 81.9567 37.924 74.1645 37.924C66.3723 37.924 60.0554 34.0636 60.0554 29.3016C60.0554 24.5396 66.3723 20.6792 74.1645 20.6792C81.9567 20.6792 88.2736 24.5396 88.2736 29.3016Z" fill="#D1884F"/>
<path fill-rule="evenodd" clip-rule="evenodd" d="M64.3077 24.6413C64.3076 24.6484 64.3076 24.6556 64.3076 24.6628C64.3076 25.1831 64.383 25.6926 64.5275 26.1875H64.3074V26.8576C64.3074 27.1534 64.3318 27.4456 64.3794 27.7338C65.0978 32.0842 71.1083 35.48 78.4165 35.48C85.7248 35.48 91.7352 32.0842 92.4536 27.7338C92.5012 27.4456 92.5256 27.1534 92.5256 26.8576V26.1875H92.3058C92.4464 25.7061 92.5216 25.2108 92.5256 24.7053C92.5257 24.6911 92.5257 24.677 92.5257 24.6628C92.5257 24.6556 92.5257 24.6484 92.5257 24.6413C92.5067 19.8891 86.1972 16.0404 78.4167 16.0404C70.6362 16.0404 64.3266 19.8891 64.3077 24.6413ZM62.7614 24.6413H62.7612V26.8576C62.7612 29.9811 64.8266 32.5585 67.6336 34.2739C70.4671 36.0055 74.2833 37.0262 78.4165 37.0262C82.5497 37.0262 86.3659 36.0055 89.1994 34.2739C92.0064 32.5585 94.0718 29.9811 94.0718 26.8576V24.711C94.0719 24.695 94.072 24.6789 94.072 24.6628C94.072 21.5393 92.0065 18.9618 89.1996 17.2464C86.3661 15.5148 82.5499 14.4941 78.4167 14.4941C74.2835 14.4941 70.4673 15.5148 67.6338 17.2464C64.8333 18.9579 62.7709 21.5274 62.7614 24.6413Z" fill="#612F01"/>
<path d="M92.525 26.858C92.525 31.62 86.2082 35.4804 78.416 35.4804C70.6237 35.4804 64.3069 31.62 64.3069 26.858V24.835H92.525V26.858Z" fill="#FEDC90"/>
<path d="M92.525 24.6629C92.525 29.4249 86.2082 33.2853 78.416 33.2853C70.6237 33.2853 64.3069 29.4249 64.3069 24.6629C64.3069 19.9009 70.6237 16.0405 78.416 16.0405C86.2082 16.0405 92.525 19.9009 92.525 24.6629Z" fill="#D1884F"/>
<path fill-rule="evenodd" clip-rule="evenodd" d="M60.0552 20.0026C60.0552 20.0098 60.0552 20.0169 60.0552 20.0241C60.0552 20.5444 60.1306 21.0539 60.2751 21.5488H60.055V22.2189C60.055 22.5147 60.0794 22.807 60.1269 23.0951C60.8454 27.4456 66.8558 30.8413 74.1641 30.8413C81.4723 30.8413 87.4828 27.4456 88.2012 23.0951C88.2488 22.807 88.2732 22.5147 88.2732 22.2189V21.5488H88.0534C88.194 21.0674 88.2692 20.5722 88.2732 20.0666C88.2733 20.0525 88.2733 20.0383 88.2733 20.0241C88.2733 20.0169 88.2733 20.0098 88.2733 20.0026C88.2543 15.2505 81.9447 11.4017 74.1642 11.4017C66.3837 11.4017 60.0742 15.2505 60.0552 20.0026ZM58.509 20.0026H58.5088V22.2189C58.5088 25.3424 60.5742 27.9198 63.3812 29.6352C66.2147 31.3669 70.0309 32.3875 74.1641 32.3875C78.2973 32.3875 82.1135 31.3669 84.947 29.6352C87.754 27.9198 89.8194 25.3424 89.8194 22.2189V20.0724C89.8195 20.0563 89.8195 20.0402 89.8195 20.0241C89.8195 16.9006 87.7541 14.3232 84.9471 12.6078C82.1136 10.8761 78.2975 9.85547 74.1642 9.85547C70.031 9.85547 66.2149 10.8761 63.3814 12.6078C60.5808 14.3192 58.5184 16.8888 58.509 20.0026Z" fill="#612F01"/>
<path d="M88.2736 22.2188C88.2736 26.9808 81.9567 30.8412 74.1645 30.8412C66.3723 30.8412 60.0554 26.9808 60.0554 22.2188V20.1958H88.2736V22.2188Z" fill="#FEDC90"/>
<path d="M88.2736 20.0242C88.2736 24.7863 81.9567 28.6466 74.1645 28.6466C66.3723 28.6466 60.0554 24.7863 60.0554 20.0242C60.0554 15.2622 66.3723 11.4019 74.1645 11.4019C81.9567 11.4019 88.2736 15.2622 88.2736 20.0242Z" fill="#D1884F"/>
<path fill-rule="evenodd" clip-rule="evenodd" d="M63.392 20.5603C63.392 22.1502 64.5472 23.5741 66.3697 24.5322L65.107 26.7193L65.1073 26.7195H65.107V32.2548C65.107 32.9867 65.7004 33.5801 66.4323 33.5801C67.1643 33.5801 67.7577 32.9867 67.7577 32.2548V27.8526L69.1162 25.4995C69.9848 25.6837 70.9173 25.7838 71.8878 25.7838C76.5799 25.7838 80.3835 23.4452 80.3835 20.5603C80.3835 17.6755 76.5799 15.3369 71.8878 15.3369C67.1957 15.3369 63.392 17.6755 63.392 20.5603Z" fill="url(#paint4_linear)"/>
<path fill-rule="evenodd" clip-rule="evenodd" d="M66.3708 24.5326C66.1689 24.4265 65.9752 24.3146 65.7904 24.1975C64.3065 23.257 63.3931 21.9745 63.3931 20.5608C63.3931 17.6759 67.1968 15.3373 71.8888 15.3373C76.5809 15.3373 80.3846 17.6759 80.3846 20.5608C80.3846 23.4456 76.5809 25.7842 71.8888 25.7842C70.9184 25.7842 69.9859 25.6842 69.1173 25.4999L67.7587 27.853V32.2552C67.7587 32.9871 67.1654 33.5805 66.4334 33.5805C65.7015 33.5805 65.1081 32.9871 65.1081 32.2552V26.7199L66.3708 24.5326ZM63.7552 26.7432V32.2552C63.7552 33.7344 64.9542 34.9335 66.4334 34.9335C67.9126 34.9335 69.1117 33.7344 69.1117 32.2552V28.2155L69.8163 26.9951C70.4855 27.0883 71.1791 27.1372 71.8888 27.1372C74.4438 27.1372 76.8217 26.5032 78.6049 25.4068C80.366 24.3241 81.7375 22.6488 81.7375 20.5608C81.7375 18.4727 80.366 16.7975 78.6049 15.7147C76.8217 14.6184 74.4438 13.9844 71.8888 13.9844C69.3339 13.9844 66.956 14.6184 65.1728 15.7147C63.4117 16.7975 62.0401 18.4727 62.0401 20.5608C62.0401 22.3934 63.0898 23.9025 64.5481 24.9837L63.9458 26.0271C63.8883 26.1232 63.8425 26.2271 63.8102 26.3367C63.7706 26.4704 63.7527 26.6075 63.7552 26.7432Z" fill="#633001"/>
<path d="M66.0471 18.3597C66.0471 19.8542 67.9508 21.0656 70.2992 21.0656C72.6476 21.0656 74.5513 19.8542 74.5513 18.3597C74.5513 16.8653 72.6476 15.6538 70.2992 15.6538C67.9508 15.6538 66.0471 16.8653 66.0471 18.3597Z" fill="#9E7200"/>
<path d="M66.0466 17.2002H74.5508V18.3599H66.0466V17.2002Z" fill="#9E7200"/>
<path d="M66.0471 17.2001C66.0471 18.6945 67.9508 19.906 70.2992 19.906C72.6476 19.906 74.5513 18.6945 74.5513 17.2001C74.5513 15.7056 72.6476 14.4941 70.2992 14.4941C67.9508 14.4941 66.0471 15.7056 66.0471 17.2001Z" fill="#F0B90B"/>
<path d="M68.6854 16.8738L69.8839 16.1111C70.1371 15.9499 70.4607 15.9499 70.714 16.1111L71.9125 16.8738C72.1512 17.0257 72.1512 17.3742 71.9125 17.5261L70.714 18.2888C70.4607 18.4499 70.1371 18.4499 69.8839 18.2888L68.6854 17.5261C68.4467 17.3742 68.4467 17.0257 68.6854 16.8738Z" fill="#9E7200"/>
<path fill-rule="evenodd" clip-rule="evenodd" d="M66.5656 14.1452C67.5834 13.4975 68.9069 13.1411 70.2986 13.1411C71.6904 13.1411 73.0138 13.4975 74.0316 14.1452C75.0334 14.7827 75.9036 15.8298 75.9036 17.2V18.3597C75.9036 19.7299 75.0334 20.777 74.0316 21.4145C73.0138 22.0622 71.6904 22.4186 70.2986 22.4186C68.9069 22.4186 67.5834 22.0622 66.5656 21.4145C65.5638 20.777 64.6936 19.7299 64.6936 18.3597V17.2C64.6936 15.8298 65.5638 14.7827 66.5656 14.1452ZM70.2986 14.4941C67.9503 14.4941 66.0465 15.7056 66.0465 17.2V18.3597C66.0465 19.8541 67.9503 21.0656 70.2986 21.0656C72.647 21.0656 74.5507 19.8541 74.5507 18.3597V17.2C74.5507 15.7056 72.647 14.4941 70.2986 14.4941Z" fill="#633001"/>
<g style="mix-blend-mode:multiply" opacity="0.1">
<circle cx="76" cy="29" r="27.5" stroke="#191326" stroke-width="3"/>
</g>
<path d="M125.5 116C149.524 116 169 96.5244 169 72.5C169 48.4756 149.524 29 125.5 29C101.476 29 82 48.4756 82 72.5C82 96.5244 101.476 116 125.5 116Z" fill="black"/>
<path d="M121.488 71.5037C122.473 71.5749 123.316 70.8271 123.387 69.8539L124.491 53.8663C124.562 52.8811 123.815 52.0384 122.841 51.9672C121.856 51.896 121.014 52.6438 120.942 53.617L119.957 67.8243L105.75 66.8391C104.765 66.7679 103.922 67.5157 103.851 68.4889C103.78 69.4741 104.527 70.3168 105.501 70.388L121.488 71.5037ZM124.016 77.2839C124.076 76.2987 123.316 75.456 122.343 75.4086L106.343 74.5065C105.358 74.4472 104.516 75.2068 104.468 76.1801C104.409 77.1652 105.168 78.0079 106.142 78.0554L120.361 78.8506L119.566 93.0697C119.506 94.0548 120.266 94.8975 121.239 94.945C122.224 95.0043 123.067 94.2447 123.114 93.2715L124.016 77.2839ZM129.69 75.005C128.705 75.005 127.909 75.8121 127.921 76.7972L127.993 92.8204C127.993 93.8056 128.8 94.6008 129.785 94.5889C130.77 94.5889 131.565 93.7818 131.553 92.7967L131.482 78.5539L145.725 78.4826C146.71 78.4826 147.505 77.6756 147.493 76.6904C147.493 75.7053 146.686 74.9101 145.701 74.9219L129.69 75.005ZM127.423 69.4622C127.47 70.4473 128.301 71.2069 129.274 71.1595L145.286 70.4592C146.271 70.4117 147.03 69.5809 146.983 68.6076C146.936 67.6344 146.105 66.8629 145.131 66.9103L130.9 67.5275L130.283 53.2966C130.236 52.3114 129.405 51.5518 128.432 51.5993C127.447 51.6468 126.687 52.4776 126.734 53.4509L127.423 69.4622ZM101.869 49.7477L120.266 70.8865L122.948 68.5483L104.551 47.4214L101.869 49.7477ZM102.533 97.1882L123.435 78.5064L121.061 75.8477L100.16 94.5296L102.533 97.1882ZM150.864 95.2536L130.948 75.5273L128.444 78.0554L148.36 97.7817L150.864 95.2536ZM146.817 47.5163L127.886 68.1803L130.509 70.5897L149.44 49.9258L146.817 47.5163Z" fill="black"/>
<path d="M121.488 71.5037C122.473 71.5749 123.316 70.8271 123.387 69.8539L124.491 53.8663C124.562 52.8811 123.815 52.0384 122.841 51.9672C121.856 51.896 121.014 52.6438 120.942 53.617L119.957 67.8243L105.75 66.8391C104.765 66.7679 103.922 67.5157 103.851 68.4889C103.78 69.4741 104.527 70.3168 105.501 70.388L121.488 71.5037ZM124.016 77.2839C124.076 76.2987 123.316 75.456 122.343 75.4086L106.343 74.5065C105.358 74.4472 104.516 75.2068 104.468 76.1801C104.409 77.1652 105.168 78.0079 106.142 78.0554L120.361 78.8506L119.566 93.0697C119.506 94.0548 120.266 94.8975 121.239 94.945C122.224 95.0043 123.067 94.2447 123.114 93.2715L124.016 77.2839ZM129.69 75.005C128.705 75.005 127.909 75.8121 127.921 76.7972L127.993 92.8204C127.993 93.8056 128.8 94.6008 129.785 94.5889C130.77 94.5889 131.565 93.7818 131.553 92.7967L131.482 78.5539L145.725 78.4826C146.71 78.4826 147.505 77.6756 147.493 76.6904C147.493 75.7053 146.686 74.9101 145.701 74.9219L129.69 75.005ZM127.423 69.4622C127.47 70.4473 128.301 71.2069 129.274 71.1595L145.286 70.4592C146.271 70.4117 147.03 69.5809 146.983 68.6076C146.936 67.6344 146.105 66.8629 145.131 66.9103L130.9 67.5275L130.283 53.2966C130.236 52.3114 129.405 51.5518 128.432 51.5993C127.447 51.6468 126.687 52.4776 126.734 53.4509L127.423 69.4622ZM101.869 49.7477L120.266 70.8865L122.948 68.5483L104.551 47.4214L101.869 49.7477ZM102.533 97.1882L123.435 78.5064L121.061 75.8477L100.16 94.5296L102.533 97.1882ZM150.864 95.2536L130.948 75.5273L128.444 78.0554L148.36 97.7817L150.864 95.2536ZM146.817 47.5163L127.886 68.1803L130.509 70.5897L149.44 49.9258L146.817 47.5163Z" fill="white"/>
<g style="mix-blend-mode:multiply" opacity="0.2">
<circle cx="125.5" cy="72.5" r="42.0815" stroke="#191326" stroke-width="2.83696"/>
</g>
<defs>
<linearGradient id="paint0_linear" x1="124.757" y1="87.7742" x2="111.381" y2="138.886" gradientUnits="userSpaceOnUse">
<stop stop-color="#404042"/>
<stop offset="1" stop-color="#48484B"/>
</linearGradient>
<linearGradient id="paint1_linear" x1="65.5673" y1="105.096" x2="60.7353" y2="123.129" gradientUnits="userSpaceOnUse">
<stop stop-color="#404042"/>
<stop offset="1" stop-color="#48484B"/>
</linearGradient>
<linearGradient id="paint2_linear" x1="92.4948" y1="80.1687" x2="108.09" y2="164.62" gradientUnits="userSpaceOnUse">
<stop stop-color="#404042"/>
<stop offset="1" stop-color="#48484B"/>
</linearGradient>
<linearGradient id="paint3_linear" x1="76" y1="0" x2="76" y2="58" gradientUnits="userSpaceOnUse">
<stop stop-color="#54DADE"/>
<stop offset="0.762157" stop-color="#24C7D6"/>
</linearGradient>
<linearGradient id="paint4_linear" x1="71.9797" y1="15.5118" x2="71.9797" y2="33.4431" gradientUnits="userSpaceOnUse">
<stop stop-color="#9F4A08"/>
<stop offset="0.370494" stop-color="#7D3900"/>
<stop offset="1" stop-color="#8D4104"/>
</linearGradient>
</defs>
</svg>
