<svg xmlns="http://www.w3.org/2000/svg" xmlns:v="https://vecta.io/nano" xmlns:xlink="http://www.w3.org/1999/xlink" width="186" height="171" fill="none"><style>.B{fill-rule:evenodd}.C{fill:#606063}.D{fill:#612f01}.E{fill:#fedc90}.F{fill:#d1884f}</style><g class="C"><path d="M67.045 119.028c-3.178 12.144 15 27.421 40.602 34.121s48.934 2.287 52.112-9.858-15-27.421-40.602-34.122-48.934-2.286-52.112 9.859z"/><path d="M155.924 149.273l15.422-16.285-109.354-28.619 5.721 21.818 88.211 23.086z"/><path d="M68.934 108.293L27.073 97.338c-1.815-.475-3.66.654-4.063 2.486l-.468 2.129a8.26 8.26 0 0 0 5.746 9.7l41.812 12.239-1.166-15.599z"/></g><path fill="url(#A)" d="M62.203 98.71c-3.694 14.114 18.324 32.101 49.178 40.176s58.86 3.178 62.554-10.936-18.324-32.101-49.178-40.176-58.861-3.179-62.554 10.935z"/><g class="B"><path d="M146.673 123.286c7.098 5.22 11.246 10.866 11.865 15.871l2.978-.368c-.772-6.238-5.737-12.531-13.066-17.92-7.389-5.435-17.439-10.148-28.913-13.151s-22.544-3.817-31.649-2.699c-9.029 1.109-16.44 4.163-20.168 9.223l2.415 1.779c2.992-4.06 9.373-6.95 18.119-8.024 8.67-1.064 19.354-.299 30.523 2.624s20.859 7.49 27.896 12.665z" class="C"/><path fill="#979797" d="M75.734 118.739c-8.721-7.124-11.998-14.041-10.629-19.27s7.614-9.654 18.706-11.593c10.807-1.889 25.078-1.154 40.186 2.8s27.911 10.304 36.406 17.245c8.721 7.124 11.998 14.041 10.63 19.27s-7.614 9.653-18.707 11.593c-10.806 1.889-25.078 1.153-40.186-2.8s-27.91-10.304-36.406-17.245zm35.647 20.147c-30.854-8.075-52.872-26.062-49.178-40.176s31.7-19.01 62.554-10.935 52.872 26.062 49.178 40.176-31.7 19.01-62.554 10.936z"/><path fill="url(#B)" d="M64.167 124.049l-4.937-19.123 2.905-.75 4.937 19.123-2.905.75z"/><path fill="url(#C)" d="M62.469 106.189l-.128-.443-.202-.817-.142-.54c.022-.012.03-.019.028-.027l-.004-.025-.12-.794-.022-.191c-.072-.663-.096-1.321-.071-1.974.035-.903.166-1.793.395-2.668 3.694-14.114 31.7-19.01 62.555-10.936s52.872 26.062 49.178 40.176a12.4 12.4 0 0 1-.963 2.519 13.7 13.7 0 0 1-1.635 2.476l-.016.019c.011.02.014.025.015.029l-.611.651-12.932 13.655c-6.807 9.031-27.596 11.752-50.146 5.85-22.302-5.837-38.971-18.182-40.797-29.295-.093-.569-.484-1.054-1.037-1.215L29.127 111.91a8.26 8.26 0 0 1-5.762-9.635l.459-2.172c.39-1.845 2.242-2.99 4.066-2.514l34.249 8.931a.27.27 0 0 0 .331-.331zm-3.657-3.636c-.064-1.544.091-3.085.488-4.603 2.325-8.885 11.93-13.965 23.478-15.984 11.834-2.069 26.992-1.215 42.738 2.906s29.38 10.802 38.683 18.402c9.078 7.417 14.963 16.551 12.638 25.436-.557 2.129-1.552 4.064-2.901 5.789a3.08 3.08 0 0 1-.425.566l-13.429 14.181c-4.171 5.406-12.026 8.46-21.098 9.556-9.3 1.124-20.517.28-32.096-2.751-11.453-2.997-21.548-7.685-29.079-13.141-7.079-5.13-12.321-11.262-13.743-17.657l-35.782-10.464a11.26 11.26 0 0 1-7.855-13.134l.459-2.173c.744-3.519 4.277-5.704 7.758-4.796l30.165 7.867z"/></g><circle cx="76" cy="29" r="29" fill="url(#D)"/><path d="M57.163 32.186l-.008.326c0 .412.036.819.106 1.22h-.106v.631c0 .308.02.613.059.915C57.983 41.17 66.1 45.805 76 45.805s18.017-4.635 18.785-10.527c.039-.302.059-.607.059-.915v-.631h-.106c.07-.401.106-.808.106-1.22a7.07 7.07 0 0 0-.008-.326C94.553 26.018 86.228 21.071 76 21.071s-18.553 4.947-18.837 11.116zm-1.548 0c.14-3.764 2.698-6.925 6.257-9.086 3.69-2.24 8.688-3.576 14.127-3.576S86.438 20.86 90.128 23.1c3.56 2.161 6.117 5.323 6.257 9.086h.006v2.177c0 3.907-2.601 7.189-6.263 9.412-3.69 2.24-8.688 3.576-14.127 3.576s-10.438-1.335-14.127-3.576c-3.662-2.223-6.263-5.505-6.263-9.412v-2.177h.006z" class="B C"/><path fill="#bebebe" d="M94.845 34.364c0 6.319-8.437 11.442-18.844 11.442s-18.844-5.123-18.844-11.442v-1.811h37.689v1.811z"/><path fill="#f5f3f3" d="M94.845 32.513c0 6.319-8.437 11.442-18.844 11.442s-18.844-5.123-18.844-11.442S65.593 21.071 76 21.071s18.844 5.123 18.844 11.442z"/><use class="B D" xlink:href="#F"/><use class="E" xlink:href="#G"/><use class="F" xlink:href="#H"/><path d="M64.308 24.641v.021a5.42 5.42 0 0 0 .22 1.525h-.22v.67a5.37 5.37 0 0 0 .072.876c.718 4.35 6.729 7.746 14.037 7.746s13.319-3.396 14.037-7.746a5.37 5.37 0 0 0 .072-.876v-.67h-.22c.141-.481.216-.977.22-1.482v-.043-.021c-.019-4.752-6.329-8.601-14.109-8.601s-14.09 3.849-14.109 8.601zm-1.546 0h0v2.216c0 3.124 2.065 5.701 4.872 7.416 2.834 1.732 6.65 2.752 10.783 2.752s7.949-1.021 10.783-2.752c2.807-1.715 4.872-4.293 4.872-7.416v-2.195c0-3.123-2.065-5.701-4.872-7.416-2.834-1.732-6.65-2.752-10.783-2.752s-7.949 1.021-10.783 2.752c-2.8 1.711-4.863 4.281-4.872 7.395z" class="B D"/><use x="4.251" y="-4.638" class="E" xlink:href="#G"/><use x="4.251" y="-4.639" class="F" xlink:href="#H"/><use y="-9.277" class="B D" xlink:href="#F"/><use y="-9.277" class="E" xlink:href="#G"/><use y="-9.278" class="F" xlink:href="#H"/><g class="B"><path fill="url(#E)" d="M63.392 20.56c0 1.59 1.155 3.014 2.978 3.972l-1.263 2.187v5.535c0 .732.593 1.325 1.325 1.325s1.325-.593 1.325-1.325v-4.402l1.359-2.353c.869.184 1.801.284 2.772.284 4.692 0 8.496-2.339 8.496-5.223s-3.804-5.223-8.496-5.223-8.496 2.339-8.496 5.223z"/><path fill="#633001" d="M66.371 24.533l-.58-.335c-1.484-.941-2.397-2.223-2.397-3.637 0-2.885 3.804-5.223 8.496-5.223s8.496 2.339 8.496 5.224-3.804 5.223-8.496 5.223c-.97 0-1.903-.1-2.772-.284l-1.359 2.353v4.402c0 .732-.593 1.325-1.325 1.325s-1.325-.593-1.325-1.325V26.72l1.263-2.187zm-2.616 2.211v5.512a2.68 2.68 0 0 0 2.678 2.678 2.68 2.68 0 0 0 2.678-2.678v-4.04l.705-1.22a15.04 15.04 0 0 0 2.073.142c2.555 0 4.933-.634 6.716-1.73 1.761-1.083 3.133-2.758 3.133-4.846s-1.371-3.763-3.133-4.846c-1.783-1.096-4.161-1.73-6.716-1.73s-4.933.634-6.716 1.73c-1.761 1.083-3.133 2.758-3.133 4.846 0 1.833 1.05 3.342 2.508 4.423l-.602 1.043a1.34 1.34 0 0 0-.136.31c-.04.134-.058.271-.055.407z"/></g><g fill="#9e7200"><use xlink:href="#I"/><path d="M66.047 17.2h8.504v1.16h-8.504V17.2z"/></g><use y="-1.16" fill="#f0b90b" xlink:href="#I"/><path fill="#9e7200" d="M68.685 16.874l1.198-.763c.253-.161.577-.161.83 0l1.198.763c.239.152.239.5 0 .652l-1.198.763c-.253.161-.577.161-.83 0l-1.198-.763c-.239-.152-.239-.5 0-.652z"/><path fill="#633001" d="M66.566 14.145c1.018-.648 2.341-1.004 3.733-1.004s2.715.356 3.733 1.004c1.002.637 1.872 1.685 1.872 3.055v1.16c0 1.37-.87 2.417-1.872 3.055-1.018.648-2.341 1.004-3.733 1.004s-2.715-.356-3.733-1.004c-1.002-.637-1.872-1.685-1.872-3.055V17.2c0-1.37.87-2.417 1.872-3.055zm3.733.349c-2.348 0-4.252 1.212-4.252 2.706v1.16c0 1.494 1.904 2.706 4.252 2.706s4.252-1.212 4.252-2.706V17.2c0-1.494-1.904-2.706-4.252-2.706z" class="B"/><circle cx="76" cy="29" r="27.5" stroke="#191326" stroke-width="3" opacity=".1" style="mix-blend-mode:multiply"/><g fill="#000"><path d="M125.5 116c24.024 0 43.5-19.476 43.5-43.5S149.524 29 125.5 29 82 48.476 82 72.5s19.476 43.5 43.5 43.5z"/><use xlink:href="#J"/></g><use fill="#fff" xlink:href="#J"/><circle cx="125.5" cy="72.5" r="42.082" stroke="#191326" stroke-width="2.837" opacity=".2" style="mix-blend-mode:multiply"/><defs><linearGradient id="A" x1="124.757" x2="111.381" y1="87.774" y2="138.886" xlink:href="#K"><stop stop-color="#404042"/><stop offset="1" stop-color="#48484b"/></linearGradient><linearGradient id="B" x1="65.567" x2="60.735" y1="105.096" y2="123.129" xlink:href="#K"><stop stop-color="#404042"/><stop offset="1" stop-color="#48484b"/></linearGradient><linearGradient id="C" x1="92.495" x2="108.09" y1="80.169" y2="164.62" xlink:href="#K"><stop stop-color="#404042"/><stop offset="1" stop-color="#48484b"/></linearGradient><linearGradient id="D" x1="76" x2="76" y1="0" y2="58" xlink:href="#K"><stop stop-color="#54dade"/><stop offset=".762" stop-color="#24c7d6"/></linearGradient><linearGradient id="E" x1="71.98" x2="71.98" y1="15.512" y2="33.443" xlink:href="#K"><stop stop-color="#9f4a08"/><stop offset=".37" stop-color="#7d3900"/><stop offset="1" stop-color="#8d4104"/></linearGradient><path id="F" d="M60.055 29.28v.021a5.42 5.42 0 0 0 .22 1.525h-.22v.67a5.38 5.38 0 0 0 .072.876c.718 4.351 6.729 7.746 14.037 7.746s13.319-3.396 14.037-7.746a5.37 5.37 0 0 0 .072-.876v-.67h-.22c.141-.481.216-.977.22-1.482v-.043-.021c-.019-4.752-6.329-8.601-14.109-8.601s-14.09 3.849-14.109 8.601zm-1.546 0h0v2.216c0 3.124 2.065 5.701 4.872 7.416 2.833 1.732 6.65 2.752 10.783 2.752s7.949-1.021 10.783-2.752c2.807-1.715 4.872-4.293 4.872-7.416v-2.195c0-3.123-2.065-5.701-4.872-7.416-2.834-1.732-6.65-2.752-10.783-2.752s-7.949 1.021-10.783 2.752c-2.801 1.711-4.863 4.281-4.872 7.395z"/><path id="G" d="M88.274 31.496c0 4.762-6.317 8.622-14.109 8.622s-14.109-3.86-14.109-8.622v-2.023h28.218v2.023z"/><path id="H" d="M88.274 29.302c0 4.762-6.317 8.622-14.109 8.622s-14.109-3.86-14.109-8.622 6.317-8.622 14.109-8.622 14.109 3.86 14.109 8.622z"/><path id="I" d="M66.047 18.36c0 1.494 1.904 2.706 4.252 2.706s4.252-1.211 4.252-2.706-1.904-2.706-4.252-2.706-4.252 1.212-4.252 2.706z"/><path id="J" d="M121.488 71.504a1.78 1.78 0 0 0 1.899-1.65l1.104-15.988a1.78 1.78 0 0 0-1.65-1.899 1.78 1.78 0 0 0-1.899 1.65l-.985 14.207-14.207-.985a1.78 1.78 0 0 0-1.899 1.65 1.78 1.78 0 0 0 1.65 1.899l15.987 1.116zm2.528 5.78a1.77 1.77 0 0 0-1.673-1.875l-16-.902c-.985-.059-1.827.7-1.875 1.674-.059.985.7 1.828 1.674 1.875l14.219.795-.795 14.219a1.77 1.77 0 1 0 3.548.202l.902-15.988zm5.674-2.279a1.77 1.77 0 0 0-1.769 1.792l.072 16.023a1.77 1.77 0 0 0 3.56-.024l-.071-14.243 14.243-.071a1.77 1.77 0 1 0-.024-3.561l-16.011.083zm-2.267-5.543c.047.985.878 1.745 1.851 1.697l16.012-.7c.985-.047 1.744-.878 1.697-1.852s-.878-1.745-1.852-1.697l-14.231.617-.617-14.231c-.047-.985-.878-1.745-1.851-1.697-.985.047-1.745.878-1.698 1.852l.689 16.011zm-25.554-19.714l18.397 21.139 2.682-2.338-18.397-21.127-2.682 2.326zm.664 47.44l20.902-18.682-2.374-2.659L100.16 94.53l2.373 2.659zm48.331-1.935l-19.916-19.726-2.504 2.528 19.916 19.726 2.504-2.528zm-4.047-47.737L127.886 68.18l2.623 2.409 18.931-20.664-2.623-2.41z"/><linearGradient id="K" gradientUnits="userSpaceOnUse"/></defs></svg>