<svg xmlns="http://www.w3.org/2000/svg" width="160" height="160" fill="none" viewBox="0 0 160 160"><g clip-path="url(#clip0)"><path fill="#606063" d="M48.045 119.028C44.8667 131.172 63.0449 146.449 88.6472 153.149C114.25 159.849 137.581 155.436 140.759 143.291C143.937 131.146 125.759 115.87 100.157 109.169C74.5546 102.469 51.2233 106.883 48.045 119.028Z"/><path fill="#606063" d="M136.924 149.273L152.346 132.988L42.9922 104.369L48.7128 126.187L136.924 149.273Z"/><path fill="#606063" d="M49.9337 108.293L8.07245 97.338C6.25796 96.8632 4.41259 97.9924 4.00962 99.8242L3.54142 101.953C2.60839 106.194 5.11954 110.433 9.28748 111.653L51.0994 123.892L49.9337 108.293Z"/><path fill="url(#paint0_linear)" d="M43.2026 98.7096C39.5089 112.824 61.5267 130.811 92.3808 138.886C123.235 146.96 151.241 142.064 154.935 127.95C158.629 113.836 136.611 95.8488 105.757 87.7742C74.9028 79.6996 46.8963 84.5955 43.2026 98.7096Z"/><path fill="#606063" fill-rule="evenodd" d="M127.673 123.286C134.771 128.506 138.919 134.152 139.538 139.157L142.516 138.789C141.744 132.551 136.779 126.258 129.45 120.869C122.061 115.434 112.011 110.721 100.537 107.718C89.0628 104.716 77.9927 103.901 68.888 105.019C59.8593 106.128 52.4479 109.182 48.7196 114.242L51.1348 116.021C54.1263 111.961 60.5082 109.071 69.2536 107.997C77.9231 106.933 88.6081 107.698 99.7773 110.621C110.946 113.544 120.636 118.111 127.673 123.286Z" clip-rule="evenodd"/><path fill="#979797" fill-rule="evenodd" d="M56.7343 118.739C48.0136 111.615 44.7365 104.698 46.1049 99.4692C47.4733 94.2403 53.7186 89.8155 64.8112 87.8763C75.6178 85.9872 89.8893 86.7226 104.997 90.6764C120.105 94.6302 132.908 100.98 141.403 107.921C150.124 115.045 153.401 121.962 152.033 127.191C150.664 132.42 144.419 136.844 133.326 138.784C122.52 140.673 108.248 139.937 93.1403 135.984C78.0323 132.03 65.2301 125.68 56.7343 118.739ZM92.3808 138.886C61.5267 130.811 39.5089 112.824 43.2026 98.7096C46.8963 84.5955 74.9028 79.6996 105.757 87.7742C136.611 95.8488 158.629 113.836 154.935 127.95C151.241 142.064 123.235 146.96 92.3808 138.886Z" clip-rule="evenodd"/><path fill="url(#paint1_linear)" fill-rule="evenodd" d="M45.1673 124.049L40.2305 104.926L43.1352 104.176L48.0721 123.299L45.1673 124.049Z" clip-rule="evenodd"/><path fill="url(#paint2_linear)" fill-rule="evenodd" d="M43.4691 106.189C43.4241 106.041 43.3812 105.893 43.3406 105.746C43.2656 105.473 43.1983 105.2 43.1386 104.929L42.997 104.389C42.9948 104.38 43.0025 104.372 43.0109 104.375C43.019 104.377 43.0266 104.37 43.0251 104.362C43.0236 104.353 43.0222 104.345 43.0207 104.337C42.9732 104.072 42.9333 103.807 42.9009 103.543C42.8931 103.479 42.8857 103.416 42.8788 103.352C42.8065 102.689 42.7824 102.031 42.8078 101.378C42.8079 101.378 42.8079 101.378 42.8079 101.377C42.8432 100.475 42.9734 99.5849 43.2025 98.7095C46.8962 84.5954 74.9027 79.6994 105.757 87.774C136.611 95.8486 158.629 113.836 154.935 127.95C154.706 128.826 154.383 129.666 153.972 130.469C153.972 130.469 153.972 130.47 153.972 130.47C153.528 131.338 152.981 132.163 152.337 132.945C152.332 132.951 152.326 132.958 152.321 132.964C152.319 132.967 152.318 132.969 152.318 132.972C152.318 132.977 152.322 132.982 152.327 132.983C152.332 132.984 152.335 132.989 152.336 132.993C152.336 132.996 152.335 133 152.333 133.002L151.725 133.644C151.655 133.72 151.584 133.795 151.511 133.87L150.275 135.175L150.273 135.177L138.793 147.299C131.986 156.33 111.197 159.051 88.6472 153.149C66.3446 147.312 49.6757 134.967 47.8505 123.854C47.7571 123.285 47.3667 122.8 46.8135 122.639L10.1271 111.91C5.98342 110.698 3.4722 106.499 4.36483 102.275L4.82393 100.103C5.21371 98.2581 7.06553 97.1133 8.88976 97.589L43.1386 106.52C43.3391 106.573 43.5217 106.39 43.4691 106.189ZM39.8119 102.553C39.7482 101.009 39.9029 99.4681 40.3002 97.9499C42.6255 89.0648 52.2303 83.9845 63.7779 81.9658C75.6114 79.8971 90.7702 80.751 106.516 84.8718C122.262 88.9926 135.896 95.6738 145.199 103.274C154.277 110.691 160.162 119.825 157.837 128.71C157.28 130.839 156.285 132.774 154.936 134.499C154.821 134.697 154.679 134.887 154.511 135.065L153.923 135.686C153.92 135.689 153.916 135.693 153.913 135.697C153.836 135.779 153.759 135.861 153.68 135.943C153.677 135.946 153.673 135.95 153.67 135.953L141.082 149.246C136.911 154.652 129.056 157.706 119.984 158.802C110.684 159.926 99.4667 159.082 87.8877 156.051C76.4351 153.054 66.3397 148.366 58.8095 142.91C51.73 137.78 46.4882 131.648 45.0667 125.253L9.28503 114.789C3.63618 113.137 0.212785 107.413 1.42965 101.655L1.88875 99.4823C2.63251 95.9628 6.16596 93.7783 9.64679 94.6861L39.8119 102.553Z" clip-rule="evenodd"/><circle cx="57" cy="29" r="29" fill="#F5F3F3"/><path fill="#2F3030" d="M57 39.2552V49.3558L69.4315 31.8999L57 39.2552Z"/><path fill="#100C18" d="M57 23.6689V36.6702L69.4315 29.3149L57 23.6689Z"/><path fill="#2F3030" d="M57 8.69971V23.6693L69.4315 29.3152L57 8.69971Z"/><path fill="#828384" d="M57.0001 39.2552V49.3558L44.5686 31.8999L57.0001 39.2552Z"/><path fill="#343535" d="M57.0001 23.6689V36.6702L44.5686 29.3149L57.0001 23.6689Z"/><path fill="#828384" d="M57.0001 8.69971V23.6693L44.5686 29.3152L57.0001 8.69971Z"/><g style="mix-blend-mode:multiply" opacity=".1"><path fill="#191326" fill-rule="evenodd" d="M57 55C71.3594 55 83 43.3594 83 29C83 14.6406 71.3594 3 57 3C42.6406 3 31 14.6406 31 29C31 43.3594 42.6406 55 57 55ZM57 58C73.0163 58 86 45.0163 86 29C86 12.9837 73.0163 0 57 0C40.9837 0 28 12.9837 28 29C28 45.0163 40.9837 58 57 58Z" clip-rule="evenodd"/></g><circle cx="106.5" cy="72.5" r="43.5" fill="#fff"/><path fill="#fff" fill-rule="evenodd" d="M139.206 82.2295L126.195 100.367C124.148 103.247 120.178 104.634 115.016 104.209C108.357 103.659 99.5297 100.141 91.069 94.0715C82.6082 87.9993 76.4386 80.7665 73.7507 74.6424C71.7042 69.8958 71.7345 65.7053 73.8115 62.8219L86.7928 44.6847C88.8698 41.8044 92.8404 40.4177 97.9718 40.8422C104.63 41.392 113.488 44.9138 121.949 50.9829C130.41 57.0521 136.579 64.2849 139.237 70.409C141.314 75.1556 141.253 79.3492 139.206 82.2295ZM90.2749 47.1772C91.6189 45.314 94.3066 44.8314 97.636 45.1063C103.714 45.6073 111.717 48.9181 119.445 54.4588C127.172 59.9965 132.884 66.5238 135.328 72.1134C136.641 75.177 137.068 77.877 135.724 79.7402L137.466 80.9834L135.724 79.7402L122.713 97.8772C121.399 99.7374 118.711 100.223 115.382 99.9451C109.304 99.4472 101.271 96.1332 93.5429 90.5956C85.8153 85.0549 80.1034 78.5277 77.6904 72.9411C76.3465 69.8745 75.9497 67.1744 77.2937 65.3142L90.2749 47.1772Z" clip-rule="evenodd"/><path fill="#fff" fill-rule="evenodd" d="M88.5579 46.335C92.8035 40.4094 107.19 43.4517 120.69 53.1219C134.191 62.7953 141.705 75.4618 137.459 81.3873L124.478 99.5245C120.232 105.45 105.815 102.408 92.3145 92.7346C78.814 83.0612 71.3006 70.3976 75.5462 64.472L88.5579 46.335Z" clip-rule="evenodd"/><path fill="#0E0F23" fill-rule="evenodd" d="M87.6276 45.2504C89.5162 42.6063 93.1676 41.4418 97.8893 41.8195C104.405 42.3546 113.03 45.8486 121.34 51.7664C129.619 57.7158 135.695 64.7985 138.276 70.7793C140.165 75.1233 140.227 78.9634 138.339 81.6076L125.37 99.7391C123.481 102.383 119.798 103.548 115.108 103.17C108.592 102.603 99.9357 99.1411 91.657 93.1917C83.3468 87.2739 77.3029 80.1911 74.6902 74.2102C72.8015 69.8663 72.7388 66.0261 74.6275 63.382L87.6276 45.2504ZM136.545 80.3171V80.2857C138.056 78.2082 137.741 75.1232 136.261 71.6606C133.774 65.9631 127.951 59.2582 120.019 53.5921C112.118 47.9261 103.902 44.558 97.7005 44.0543C93.9232 43.7395 90.9331 44.4322 89.4222 46.5412L89.3589 46.6669C87.9423 48.776 88.2575 51.7664 89.737 55.166C92.2237 60.895 98.0472 67.5998 105.948 73.2659C113.849 78.9319 122.064 82.3003 128.266 82.804C131.98 83.0873 134.907 82.4262 136.45 80.4431L136.545 80.2857V80.3171ZM116.336 58.7233C120.302 61.5563 123.229 64.9244 124.457 67.7889C125.181 69.3943 125.37 70.8108 124.646 71.7867C123.953 72.7625 122.537 73.0458 120.806 72.8884C117.689 72.6366 113.597 70.9367 109.631 68.1037C105.665 65.2706 102.737 61.9339 101.509 59.0694C100.817 57.464 100.628 56.0475 101.321 55.0716C102.013 54.0958 103.43 53.8126 105.193 53.9386C108.277 54.2219 112.401 55.8903 116.336 58.7233Z" clip-rule="evenodd"/><mask id="mask0" width="67" height="63" x="73" y="41" mask-type="alpha" maskUnits="userSpaceOnUse"><path fill="#0E0F23" fill-rule="evenodd" d="M87.6276 45.2504C89.5162 42.6063 93.1676 41.4418 97.8893 41.8195C104.405 42.3546 113.03 45.8486 121.34 51.7664C129.619 57.7158 135.695 64.7985 138.276 70.7793C140.165 75.1233 140.227 78.9634 138.339 81.6076L125.37 99.7391C123.481 102.383 119.798 103.548 115.108 103.17C108.592 102.603 99.9357 99.1411 91.657 93.1917C83.3468 87.2739 77.3029 80.1911 74.6902 74.2102C72.8015 69.8663 72.7388 66.0261 74.6275 63.382L87.6276 45.2504ZM136.545 80.3171V80.2857C138.056 78.2082 137.741 75.1232 136.261 71.6606C133.774 65.9631 127.951 59.2582 120.019 53.5921C112.118 47.9261 103.902 44.558 97.7005 44.0543C93.9232 43.7395 90.9331 44.4322 89.4222 46.5412L89.3589 46.6669C87.9423 48.776 88.2575 51.7664 89.737 55.166C92.2237 60.895 98.0472 67.5998 105.948 73.2659C113.849 78.9319 122.064 82.3003 128.266 82.804C131.98 83.0873 134.907 82.4262 136.45 80.4431L136.545 80.2857V80.3171ZM116.336 58.7233C120.302 61.5563 123.229 64.9244 124.457 67.7889C125.181 69.3943 125.37 70.8108 124.646 71.7867C123.953 72.7625 122.537 73.0458 120.806 72.8884C117.689 72.6366 113.597 70.9367 109.631 68.1037C105.665 65.2706 102.737 61.9339 101.509 59.0694C100.817 57.464 100.628 56.0475 101.321 55.0716C102.013 54.0958 103.43 53.8126 105.193 53.9386C108.277 54.2219 112.401 55.8903 116.336 58.7233Z" clip-rule="evenodd"/></mask><g mask="url(#mask0)"><path fill="url(#paint3_linear)" fill-rule="evenodd" d="M70.4807 80.867C70.827 80.867 71.3937 81.6879 71.7085 81.9119C72.8102 82.7332 73.9118 83.5549 75.045 84.2269C78.3502 86.2428 81.7811 87.3621 85.1807 86.6155C90.532 85.4209 95.3796 76.0885 100.762 77.3577C103.784 78.0297 105.925 82.2855 108.569 85.1973C111.087 88.1092 113.857 89.3783 116.659 88.781C125 87.1384 128.148 70.7126 136.616 71.6086C143.636 72.3552 140.897 80.7919 147.633 83.7784C147.696 83.8531 163.907 69.5927 164.033 67.1288C164.505 57.6466 155.503 -54.0488 155.912 -54.0488L75.6119 -24.557L70.4807 80.867Z" clip-rule="evenodd"/></g><path fill="#fff" fill-rule="evenodd" d="M86.2901 51.2084C86.5506 51.1975 86.7707 51.3999 86.7816 51.6605C86.7882 51.8198 86.7979 51.979 86.8105 52.1381C86.8311 52.3981 86.637 52.6255 86.3771 52.6461C86.1171 52.6666 85.8897 52.4726 85.8691 52.2126C85.8556 52.042 85.8452 51.8711 85.8381 51.6999C85.8272 51.4394 86.0295 51.2193 86.2901 51.2084ZM86.5377 53.361C86.7956 53.322 87.0362 53.4994 87.0752 53.7572C87.6386 57.4782 89.5822 60.4631 92.3044 63.8325C92.4682 64.0354 92.4367 64.3327 92.2338 64.4966C92.031 64.6604 91.7337 64.6288 91.5698 64.426C88.8014 60.9993 86.7411 57.8584 86.1415 53.8985C86.1025 53.6407 86.2799 53.4001 86.5377 53.361ZM100.34 72.5814C100.51 72.3837 100.808 72.3614 101.006 72.5315C101.131 72.6391 101.256 72.7458 101.379 72.8516C101.534 72.9833 101.69 73.1144 101.848 73.2449C102.049 73.411 102.077 73.7086 101.911 73.9097C101.745 74.1107 101.448 74.139 101.247 73.9728C101.085 73.8393 100.925 73.7052 100.767 73.5704C100.642 73.4638 100.516 73.3559 100.39 73.2473C100.192 73.0772 100.17 72.779 100.34 72.5814ZM102.144 74.0961C102.304 73.8904 102.601 73.8537 102.807 74.014C106.698 77.0477 111.436 79.7074 116.143 81.6102C116.384 81.708 116.501 81.9832 116.403 82.225C116.306 82.4667 116.03 82.5835 115.789 82.4857C111.009 80.5535 106.193 77.8517 102.226 74.7588C102.02 74.5985 101.984 74.3018 102.144 74.0961ZM132.136 84.8777C132.178 85.1351 132.003 85.3774 131.745 85.4187C131.537 85.4522 131.325 85.4809 131.11 85.505C130.851 85.5341 130.617 85.3475 130.588 85.0884C130.559 84.8292 130.745 84.5956 131.004 84.5666C131.206 84.544 131.403 84.5173 131.595 84.4864C131.853 84.445 132.095 84.6202 132.136 84.8777Z" clip-rule="evenodd"/><g style="mix-blend-mode:multiply" opacity=".2"><path fill="#191326" fill-rule="evenodd" d="M106.5 113.163C128.958 113.163 147.163 94.9576 147.163 72.5C147.163 50.0424 128.958 31.837 106.5 31.837C84.0424 31.837 65.837 50.0424 65.837 72.5C65.837 94.9576 84.0424 113.163 106.5 113.163ZM106.5 116C130.524 116 150 96.5244 150 72.5C150 48.4756 130.524 29 106.5 29C82.4756 29 63 48.4756 63 72.5C63 96.5244 82.4756 116 106.5 116Z" clip-rule="evenodd"/></g></g><defs><linearGradient id="paint0_linear" x1="105.757" x2="92.381" y1="87.774" y2="138.886" gradientUnits="userSpaceOnUse"><stop stop-color="#404042"/><stop offset="1" stop-color="#48484B"/></linearGradient><linearGradient id="paint1_linear" x1="46.567" x2="41.735" y1="105.096" y2="123.129" gradientUnits="userSpaceOnUse"><stop stop-color="#404042"/><stop offset="1" stop-color="#48484B"/></linearGradient><linearGradient id="paint2_linear" x1="73.495" x2="89.09" y1="80.169" y2="164.62" gradientUnits="userSpaceOnUse"><stop stop-color="#404042"/><stop offset="1" stop-color="#48484B"/></linearGradient><linearGradient id="paint3_linear" x1="99.189" x2="107.974" y1="41.669" y2="85.895" gradientUnits="userSpaceOnUse"><stop stop-color="#27B0E6"/><stop offset=".52" stop-color="#C26BB3"/><stop offset="1" stop-color="#FA52A0"/></linearGradient><clipPath id="clip0"><rect width="160" height="160" fill="#fff"/></clipPath></defs></svg>