<svg xmlns="http://www.w3.org/2000/svg" xmlns:v="https://vecta.io/nano" width="186" height="179" fill="none"><g fill="#606063"><path d="M67.045 119.028c-3.178 12.144 15 27.421 40.602 34.121s48.934 2.287 52.112-9.858-15-27.421-40.602-34.122-48.934-2.286-52.112 9.859z"/><path d="M155.924 149.273l15.422-16.285-109.354-28.619 5.721 21.818 88.211 23.086z"/><path d="M68.934 108.293L27.073 97.338c-1.815-.475-3.66.654-4.063 2.486l-.468 2.129a8.26 8.26 0 0 0 5.746 9.7l41.812 12.239-1.166-15.599z"/></g><path fill="url(#A)" d="M62.203 98.71c-3.694 14.114 18.324 32.101 49.178 40.176s58.86 3.178 62.554-10.936-18.324-32.101-49.178-40.176-58.861-3.179-62.554 10.935z"/><g fill-rule="evenodd"><path fill="#606063" d="M146.673 123.286c7.098 5.22 11.246 10.866 11.865 15.871l2.977-.368c-.771-6.238-5.736-12.531-13.065-17.92-7.39-5.435-17.439-10.148-28.913-13.151s-22.544-3.817-31.649-2.699c-9.029 1.109-16.44 4.163-20.168 9.223l2.415 1.779c2.992-4.06 9.373-6.95 18.119-8.024 8.67-1.064 19.355-.299 30.524 2.624s20.859 7.49 27.896 12.665z"/><path fill="#979797" d="M75.734 118.739c-8.721-7.124-11.998-14.041-10.629-19.27s7.614-9.654 18.706-11.593c10.807-1.889 25.078-1.154 40.186 2.8s27.911 10.304 36.406 17.245c8.721 7.124 11.998 14.041 10.63 19.27s-7.614 9.653-18.707 11.593c-10.806 1.889-25.078 1.153-40.186-2.8s-27.91-10.304-36.406-17.245zm35.647 20.147c-30.854-8.075-52.872-26.062-49.178-40.176s31.7-19.01 62.554-10.935 52.872 26.062 49.178 40.176-31.7 19.01-62.554 10.936z"/><path fill="url(#B)" d="M64.167 124.049l-4.937-19.123 2.905-.75 4.937 19.123-2.905.75z"/><path fill="url(#C)" d="M62.469 106.189l-.128-.443-.202-.817-.142-.54c.022-.012.03-.019.028-.027l-.004-.025-.12-.794-.022-.191c-.072-.663-.096-1.321-.071-1.974.035-.903.166-1.793.395-2.668 3.694-14.114 31.7-19.01 62.555-10.936s52.872 26.062 49.178 40.176a12.4 12.4 0 0 1-.963 2.519 13.7 13.7 0 0 1-1.635 2.476l-.016.019c.011.02.014.025.015.029l-.611.651-12.932 13.655c-6.807 9.031-27.596 11.752-50.146 5.85-22.302-5.837-38.971-18.182-40.797-29.295-.093-.569-.484-1.054-1.037-1.215L29.127 111.91a8.26 8.26 0 0 1-5.762-9.635l.459-2.172c.39-1.845 2.242-2.99 4.066-2.514l34.249 8.931a.27.27 0 0 0 .331-.331zm-3.657-3.636c-.064-1.544.091-3.085.488-4.603 2.325-8.885 11.93-13.965 23.478-15.984 11.834-2.069 26.992-1.215 42.738 2.906s29.38 10.802 38.683 18.402c9.078 7.417 14.963 16.551 12.638 25.436-.557 2.129-1.552 4.064-2.901 5.789a3.08 3.08 0 0 1-.425.566l-13.429 14.181c-4.171 5.406-12.026 8.46-21.098 9.556-9.3 1.124-20.517.28-32.096-2.751-11.453-2.997-21.548-7.685-29.079-13.141-7.079-5.13-12.321-11.262-13.743-17.657l-35.782-10.464a11.26 11.26 0 0 1-7.855-13.134l.459-2.173c.744-3.519 4.277-5.704 7.758-4.796l30.165 7.867z"/></g><circle cx="76" cy="29" r="29" fill="#f0b90b"/><path fill="#fffdfa" d="M65.185 29l-4.437 4.468L56.28 29l4.468-4.468L65.185 29zM76 18.185l7.642 7.642 4.468-4.468-7.641-7.611L76 9.28 63.921 21.358l4.468 4.468L76 18.185zm15.252 6.347L86.815 29l4.468 4.468L95.72 29l-4.468-4.468zM76 39.815l-7.641-7.642-4.437 4.468L76 48.72l12.109-12.109-4.468-4.437L76 39.815zm0-6.347L80.468 29 76 24.532 71.532 29 76 33.468z"/><circle cx="76" cy="29" r="27.5" stroke="#191326" stroke-width="3" opacity=".1" style="mix-blend-mode:multiply"/><path fill="url(#D)" d="M125.5 116c24.024 0 43.5-19.476 43.5-43.5S149.524 29 125.5 29 82 48.476 82 72.5s19.476 43.5 43.5 43.5z"/><path fill="#fff" fill-rule="evenodd" d="M95.603 73.787c.045-3.616.961-6.299 2.936-8.637.435-.526.961-1.006 1.441-1.495l2.492-2.601 3.29-3.254 2.102-2.121 2.275-2.247 2.148-2.157 4.196-4.223a12 12 0 0 1 7.096-3.435c2.41-.308 4.73 0 6.914 1.006.925.444 1.749 1.06 2.538 1.631.525.399.489.489.09 1.015-.09.136-.217.218-.308.354l-5.165 5.193-2.366 2.293-2.664 2.737-2.021 1.976-3.19 3.353-2.501 2.465-2.665 2.773-2.41 2.42-2.411 2.601-1.133 1.142-2.365 2.519-2.275 2.329-1.577 1.631-.262.263c-.526.444-.834.444-1.233-.127-.607-.797-1.224-1.631-1.658-2.556-.834-1.677-1.405-3.48-1.314-4.849zm59.676 1.187c-.353 3.081-1.713 5.202-2.066 5.773-.39.571-.915 1.187-2.012 2.374l-2.71 2.819-2.764 2.691-2.401 2.42-5.429 5.465-3.851 3.788c-1.84 1.631-3.988 2.646-6.444 2.909-2.447.263-4.857.045-7.086-1.015-.925-.444-1.75-1.061-2.583-1.631-.481-.354-.481-.617-.091-1.061l2.103-2.112 1.223-1.232 2.628-2.556c.091-.091.172-.127.218-.218l2.456-2.51 2.32-2.293 1.051-1.06.48-.526 3.154-3.172 2.447-2.42 3.416-3.435c.961-1.015 1.441-2.293 1.623-3.661.217-1.631-.263-3.126-1.142-4.486-.481-.752-1.097-.843-1.749-.181l-4.468 4.359-4.767 4.631-3.507 3.344-4.205 4.187-2.139 2.066-3.027 2.954c-.562.526-1.269.834-1.966 1.06-1.006.308-2.012.263-3.018.081-1.052-.172-1.931-.707-2.719-1.45l-3.725-3.698c-.516-.535-.48-.58 0-1.06L118.06 72.6l3.153-3.127 2.628-2.555 2.447-2.51 5.302-5.247 2.8-2.728.263-.263c1.051-1.278 2.456-1.803 4.069-1.849 1.84-.091 3.335.571 4.604 1.894l7.567 7.621c1.713 1.713 2.021 2.066 2.583 2.945 1.54 2.338 1.84 4.495 1.93 5.066-.127.399.045 1.586-.127 3.127z"/><circle cx="125.5" cy="72.5" r="42.082" stroke="#191326" stroke-width="2.837" opacity=".2" style="mix-blend-mode:multiply"/><defs><linearGradient id="A" x1="124.757" x2="111.381" y1="87.774" y2="138.886" gradientUnits="userSpaceOnUse"><stop stop-color="#404042"/><stop offset="1" stop-color="#48484b"/></linearGradient><linearGradient id="B" x1="65.567" x2="60.735" y1="105.096" y2="123.129" gradientUnits="userSpaceOnUse"><stop stop-color="#404042"/><stop offset="1" stop-color="#48484b"/></linearGradient><linearGradient id="C" x1="92.495" x2="108.09" y1="80.169" y2="164.62" gradientUnits="userSpaceOnUse"><stop stop-color="#404042"/><stop offset="1" stop-color="#48484b"/></linearGradient><linearGradient id="D" x1="82" x2="169" y1="29" y2="116" gradientUnits="userSpaceOnUse"><stop offset=".245" stop-color="#f16154"/><stop offset=".693" stop-color="#ed8533"/></linearGradient></defs></svg>