<?xml version="1.0" encoding="UTF-8" standalone="no"?>
<!DOCTYPE svg PUBLIC "-//W3C//DTD SVG 1.1//EN" "http://www.w3.org/Graphics/SVG/1.1/DTD/svg11.dtd">
<svg width="100%" height="100%" viewBox="0 0 335 175" version="1.1" xmlns="http://www.w3.org/2000/svg" xmlns:xlink="http://www.w3.org/1999/xlink" xml:space="preserve" xmlns:serif="http://www.serif.com/" style="fill-rule:evenodd;clip-rule:evenodd;stroke-linejoin:round;stroke-miterlimit:2;">
    <g transform="matrix(1,0,0,1,-499.401,-67.4823)">
        <g id="BUSD" transform="matrix(1.25045,0,0,1.25045,-99.9624,-434.071)">
            <g transform="matrix(1,0,0,1,-250.705,-62.5569)">
                <circle cx="799.996" cy="533.629" r="69.975" style="fill:rgb(246,191,0);"/>
            </g>
            <g transform="matrix(0.276322,0,0,0.276322,143.138,339.112)">
                <circle cx="1469.85" cy="477.56" r="253.23" style="fill:url(#_Linear1);"/>
            </g>
            <g transform="matrix(1,0,0,1,-251.026,-61.5014)">
                <g transform="matrix(0.689611,0.688721,-2.41144,2.41456,1529.43,-1264.67)">
                    <rect x="768.204" y="514.608" width="17.01" height="19.693" style="fill:rgb(231,164,0);"/>
                </g>
                <g transform="matrix(0.689611,0.688721,-2.41144,2.41456,1547.23,-1246.83)">
                    <rect x="768.204" y="514.608" width="17.01" height="19.693" style="fill:rgb(231,164,0);"/>
                </g>
                <g transform="matrix(0.689611,0.688721,-1.51943,1.52139,1052.6,-822.924)">
                    <rect x="768.204" y="514.608" width="17.01" height="19.693" style="fill:rgb(231,164,0);"/>
                </g>
                <g transform="matrix(0.689611,0.688721,-0.599833,0.600608,543.592,-313.22)">
                    <rect x="768.204" y="514.608" width="17.01" height="19.693" style="fill:rgb(231,164,0);"/>
                </g>
            </g>
            <g transform="matrix(1,0,0,1,-251.026,-65.4999)">
                <g transform="matrix(0.689611,0.688721,-2.41144,2.41456,1529.43,-1264.67)">
                    <rect x="768.204" y="514.608" width="17.01" height="19.693" style="fill:white;"/>
                </g>
                <g transform="matrix(0.689611,0.688721,-2.41144,2.41456,1547.23,-1246.83)">
                    <rect x="768.204" y="514.608" width="17.01" height="19.693" style="fill:white;"/>
                </g>
                <g transform="matrix(0.689611,0.688721,-1.51943,1.52139,1052.6,-822.924)">
                    <rect x="768.204" y="514.608" width="17.01" height="19.693" style="fill:white;"/>
                </g>
                <g transform="matrix(0.689611,0.688721,-0.599833,0.600608,543.592,-313.22)">
                    <rect x="768.204" y="514.608" width="17.01" height="19.693" style="fill:white;"/>
                </g>
            </g>
        </g>
        <g id="TEA" transform="matrix(0.175778,0,0,0.175778,360.481,426.003)">
            <g transform="matrix(1.04413,0,0,1.04413,1674.83,-2062.3)">
                <circle cx="500" cy="500" r="475.215" style="fill:rgb(112,187,43);"/>
            </g>
            <g transform="matrix(0.993148,0,0,0.993148,1717.3,-2013.84)">
                <path d="M287.15,883.942C287.15,883.942 549.716,987.192 708.483,776.121C885.09,541.331 757.581,151.915 757.581,151.915C757.581,151.915 387.751,146.344 230.507,362.418C95.711,547.646 217.718,711.163 299.349,756.536C358.309,789.307 422.642,778.716 459.3,728.286C498.838,673.893 475.714,608.221 434.283,578.646C311.667,491.116 329.88,372.479 383.167,310.119C486.1,189.66 624.546,262.527 656.353,285.233L698.772,229.194L692.91,437.081L622.437,442.388C622.437,442.388 601.441,306.542 496.88,338.195C431.571,357.966 418.684,448.666 501.04,490.106C597.608,538.698 630.986,620.88 622.31,698.578C612.109,789.917 504.929,922.356 287.15,883.942Z" style="fill:rgb(81,148,20);"/>
                <g transform="matrix(1.0069,0,0,1.0069,-3.35413,-3.66029)">
                    <path d="M679.658,313.111L665.033,328.883L674.729,374.213L679.658,313.111Z" style="fill:rgb(81,148,20);"/>
                </g>
            </g>
            <g transform="matrix(0.993148,0,0,0.993148,1700.23,-2036.6)">
                <path d="M287.15,883.942C287.15,883.942 549.716,987.192 708.483,776.121C885.09,541.331 757.581,151.915 757.581,151.915C757.581,151.915 387.751,146.344 230.507,362.418C95.711,547.646 217.718,711.163 299.349,756.536C358.309,789.307 422.642,778.716 459.3,728.286C498.838,673.893 475.714,608.221 434.283,578.646C311.667,491.116 329.88,372.479 383.167,310.119C486.1,189.66 624.546,262.527 656.353,285.233L698.772,229.194L692.91,437.081L622.437,442.388C622.437,442.388 601.441,306.542 496.88,338.195C431.571,357.966 418.684,448.666 501.04,490.106C597.608,538.698 630.986,620.88 622.31,698.578C612.109,789.917 504.929,922.356 287.15,883.942Z" style="fill:white;"/>
                <g transform="matrix(1.0069,0,0,1.0069,-3.35413,-3.66029)">
                    <path d="M679.658,313.111L665.033,328.883L674.729,374.213L679.658,313.111Z" style="fill:white;"/>
                </g>
            </g>
        </g>
    </g>
    <defs>
        <linearGradient id="_Linear1" x1="0" y1="0" x2="1" y2="0" gradientUnits="userSpaceOnUse" gradientTransform="matrix(342.371,-12.8766,12.8766,342.371,1376.2,507.894)"><stop offset="0" style="stop-color:rgb(249,192,51);stop-opacity:1"/><stop offset="0.61" style="stop-color:rgb(239,182,42);stop-opacity:1"/><stop offset="0.82" style="stop-color:rgb(215,159,22);stop-opacity:1"/><stop offset="1" style="stop-color:rgb(189,135,0);stop-opacity:1"/></linearGradient>
    </defs>
</svg>
