<svg xmlns="http://www.w3.org/2000/svg" width="160" height="160" fill="none" viewBox="0 0 160 160"><g clip-path="url(#clip0)"><path fill="#606063" d="M48.045 119.027C44.8667 131.172 63.0449 146.449 88.6472 153.149C114.25 159.849 137.581 155.435 140.759 143.291C143.937 131.146 125.759 115.869 100.157 109.169C74.5546 102.469 51.2233 106.882 48.045 119.027Z"/><path fill="#606063" d="M136.924 149.272L152.346 132.987L42.9922 104.369L48.7128 126.187L136.924 149.272Z"/><path fill="#606063" d="M49.9337 108.293L8.07245 97.3376C6.25796 96.8627 4.41259 97.9919 4.00962 99.8238L3.54142 101.952C2.60839 106.194 5.11954 110.433 9.28748 111.653L51.0994 123.891L49.9337 108.293Z"/><path fill="url(#paint0_linear)" d="M43.2026 98.7087C39.5089 112.823 61.5267 130.81 92.3808 138.885C123.235 146.959 151.241 142.063 154.935 127.949C158.629 113.835 136.611 95.8478 105.757 87.7732C74.9028 79.6986 46.8963 84.5946 43.2026 98.7087Z"/><path fill="#606063" fill-rule="evenodd" d="M127.673 123.285C134.771 128.505 138.919 134.151 139.538 139.156L142.516 138.788C141.744 132.55 136.779 126.258 129.45 120.868C122.061 115.434 112.011 110.721 100.537 107.718C89.0628 104.715 77.9927 103.901 68.888 105.019C59.8593 106.127 52.4479 109.181 48.7196 114.241L51.1348 116.021C54.1263 111.961 60.5082 109.07 69.2536 107.997C77.9231 106.932 88.6081 107.697 99.7773 110.62C110.946 113.543 120.636 118.11 127.673 123.285Z" clip-rule="evenodd"/><path fill="#979797" fill-rule="evenodd" d="M56.7343 118.738C48.0136 111.614 44.7365 104.697 46.1049 99.4682C47.4733 94.2393 53.7186 89.8145 64.8112 87.8754C75.6178 85.9862 89.8893 86.7217 104.997 90.6755C120.105 94.6293 132.908 100.979 141.403 107.92C150.124 115.044 153.401 121.961 152.033 127.19C150.664 132.419 144.419 136.843 133.326 138.783C122.52 140.672 108.248 139.936 93.1403 135.983C78.0323 132.029 65.2301 125.679 56.7343 118.738ZM92.3808 138.885C61.5267 130.81 39.5089 112.823 43.2026 98.7087C46.8963 84.5946 74.9028 79.6986 105.757 87.7732C136.611 95.8478 158.629 113.835 154.935 127.949C151.241 142.063 123.235 146.959 92.3808 138.885Z" clip-rule="evenodd"/><path fill="url(#paint1_linear)" fill-rule="evenodd" d="M45.1673 124.048L40.2305 104.926L43.1352 104.176L48.0721 123.298L45.1673 124.048Z" clip-rule="evenodd"/><path fill="url(#paint2_linear)" fill-rule="evenodd" d="M43.4691 106.189C43.4241 106.041 43.3812 105.893 43.3406 105.746C43.2656 105.473 43.1983 105.2 43.1386 104.929L42.997 104.389C42.9948 104.38 43.0025 104.372 43.0109 104.375C43.019 104.377 43.0266 104.37 43.0251 104.362C43.0236 104.353 43.0222 104.345 43.0207 104.337C42.9732 104.072 42.9333 103.807 42.9009 103.543C42.8931 103.479 42.8857 103.416 42.8788 103.352C42.8065 102.689 42.7824 102.031 42.8078 101.378C42.8079 101.378 42.8079 101.378 42.8079 101.377C42.8432 100.475 42.9734 99.5849 43.2025 98.7095C46.8962 84.5954 74.9027 79.6994 105.757 87.774C136.611 95.8486 158.629 113.836 154.935 127.95C154.706 128.826 154.383 129.666 153.972 130.469C153.972 130.469 153.972 130.47 153.972 130.47C153.528 131.338 152.981 132.163 152.337 132.945C152.332 132.951 152.326 132.958 152.321 132.964C152.319 132.967 152.318 132.969 152.318 132.972C152.318 132.977 152.322 132.982 152.327 132.983C152.332 132.984 152.335 132.989 152.336 132.993C152.336 132.996 152.335 133 152.333 133.002L151.725 133.644C151.655 133.72 151.584 133.795 151.511 133.87L150.275 135.175L150.273 135.177L138.793 147.299C131.986 156.33 111.197 159.051 88.6472 153.149C66.3446 147.312 49.6757 134.967 47.8505 123.854C47.7571 123.285 47.3667 122.8 46.8135 122.639L10.1271 111.91C5.98342 110.698 3.4722 106.499 4.36483 102.275L4.82393 100.103C5.21371 98.2581 7.06553 97.1133 8.88976 97.589L43.1386 106.52C43.3391 106.573 43.5217 106.39 43.4691 106.189ZM39.8119 102.553C39.7482 101.009 39.9029 99.4681 40.3002 97.9499C42.6255 89.0648 52.2303 83.9845 63.7779 81.9658C75.6114 79.8971 90.7702 80.751 106.516 84.8718C122.262 88.9926 135.896 95.6738 145.199 103.274C154.277 110.691 160.162 119.825 157.837 128.71C157.28 130.839 156.285 132.774 154.936 134.499C154.821 134.697 154.679 134.887 154.511 135.065L153.923 135.686C153.92 135.689 153.916 135.693 153.913 135.697C153.836 135.779 153.759 135.861 153.68 135.943C153.677 135.946 153.673 135.95 153.67 135.953L141.082 149.246C136.911 154.652 129.056 157.706 119.984 158.802C110.684 159.926 99.4667 159.082 87.8877 156.051C76.4351 153.054 66.3397 148.366 58.8095 142.91C51.73 137.78 46.4882 131.648 45.0667 125.253L9.28503 114.789C3.63618 113.137 0.212785 107.413 1.42965 101.655L1.88875 99.4823C2.63251 95.9628 6.16596 93.7783 9.64679 94.6861L39.8119 102.553Z" clip-rule="evenodd"/><circle cx="57" cy="29" r="29" fill="#F0B90B"/><path fill="#FFFDFA" fill-rule="evenodd" d="M44.658 21.6343L57.012 9.28027L61.9379 14.2062L49.5839 26.5602L44.658 21.6343ZM44.6669 36.3971L64.4099 16.6541L69.3358 21.58L49.5929 41.323L44.6669 36.3971ZM71.7937 24.0519L52.0508 43.7948L56.9767 48.7208L76.7196 28.9778L71.7937 24.0519ZM37.28 29.0108L42.2059 24.0849L47.1318 29.0108L42.2059 33.9367L37.28 29.0108Z" clip-rule="evenodd"/><g style="mix-blend-mode:multiply" opacity=".1"><path fill="#191326" fill-rule="evenodd" d="M57 55C71.3594 55 83 43.3594 83 29C83 14.6406 71.3594 3 57 3C42.6406 3 31 14.6406 31 29C31 43.3594 42.6406 55 57 55ZM57 58C73.0163 58 86 45.0163 86 29C86 12.9837 73.0163 0 57 0C40.9837 0 28 12.9837 28 29C28 45.0163 40.9837 58 57 58Z" clip-rule="evenodd"/></g><circle cx="106.5" cy="72.5" r="43.5" fill="#2761E7"/><path fill="#9FC5FF" d="M104.206 64.1787H102.568V52.4775H80.9793C80.5698 52.4775 80.2188 52.8286 80.2188 53.2381V69.7367C80.2188 70.1462 80.5698 70.4973 80.9793 70.4973H89.2286V100.511C89.2286 100.92 89.5796 101.271 89.9892 101.271H103.504C103.914 101.271 104.265 100.92 104.265 100.511V64.1787H104.206Z"/><path fill="#fff" d="M118.54 48.0312H113.333H99.0574C98.6479 48.0312 98.2969 48.3823 98.2969 48.7918V96.0644C98.2969 96.4739 98.6479 96.8249 99.0574 96.8249H112.572C112.982 96.8249 113.333 96.4739 113.333 96.0644V84.0707H118.54C128.486 84.0707 136.56 75.9969 136.56 66.051C136.56 56.105 128.486 48.0312 118.54 48.0312Z"/><g style="mix-blend-mode:multiply" opacity=".2"><path fill="#191326" fill-rule="evenodd" d="M106.5 113.163C128.958 113.163 147.163 94.9576 147.163 72.5C147.163 50.0424 128.958 31.837 106.5 31.837C84.0424 31.837 65.837 50.0424 65.837 72.5C65.837 94.9576 84.0424 113.163 106.5 113.163ZM106.5 116C130.524 116 150 96.5244 150 72.5C150 48.4756 130.524 29 106.5 29C82.4756 29 63 48.4756 63 72.5C63 96.5244 82.4756 116 106.5 116Z" clip-rule="evenodd"/></g></g><defs><linearGradient id="paint0_linear" x1="105.757" x2="92.381" y1="87.773" y2="138.885" gradientUnits="userSpaceOnUse"><stop stop-color="#404042"/><stop offset="1" stop-color="#48484B"/></linearGradient><linearGradient id="paint1_linear" x1="46.567" x2="41.735" y1="105.096" y2="123.129" gradientUnits="userSpaceOnUse"><stop stop-color="#404042"/><stop offset="1" stop-color="#48484B"/></linearGradient><linearGradient id="paint2_linear" x1="73.495" x2="89.09" y1="80.169" y2="164.62" gradientUnits="userSpaceOnUse"><stop stop-color="#404042"/><stop offset="1" stop-color="#48484B"/></linearGradient><clipPath id="clip0"><rect width="160" height="160" fill="#fff"/></clipPath></defs></svg>