<svg xmlns="http://www.w3.org/2000/svg" xmlns:v="https://vecta.io/nano" width="186" height="171" fill="none"><g fill="#606063"><path d="M67.045 119.028c-3.178 12.144 15 27.421 40.602 34.121s48.934 2.287 52.112-9.858-15-27.421-40.602-34.122-48.934-2.286-52.112 9.859z"/><path d="M155.924 149.273l15.422-16.285-109.354-28.619 5.721 21.818 88.211 23.086z"/><path d="M68.934 108.293L27.073 97.338c-1.815-.475-3.66.654-4.063 2.486l-.468 2.129a8.26 8.26 0 0 0 5.746 9.7l41.812 12.239-1.166-15.599z"/></g><path fill="url(#A)" d="M62.203 98.71c-3.694 14.114 18.324 32.101 49.178 40.176s58.86 3.178 62.554-10.936-18.324-32.101-49.178-40.176-58.861-3.179-62.554 10.935z"/><g fill-rule="evenodd"><path fill="#606063" d="M146.673 123.286c7.098 5.22 11.246 10.866 11.865 15.871l2.978-.368c-.772-6.238-5.737-12.531-13.066-17.92-7.389-5.435-17.439-10.148-28.913-13.151s-22.544-3.817-31.649-2.699c-9.029 1.109-16.44 4.163-20.168 9.223l2.415 1.779c2.992-4.06 9.373-6.95 18.119-8.024 8.67-1.064 19.354-.299 30.523 2.624s20.859 7.49 27.896 12.665z"/><path fill="#979797" d="M75.734 118.739c-8.721-7.124-11.998-14.041-10.629-19.27s7.614-9.654 18.706-11.593c10.807-1.889 25.078-1.154 40.186 2.8s27.911 10.304 36.406 17.245c8.721 7.124 11.998 14.041 10.63 19.27s-7.614 9.653-18.707 11.593c-10.806 1.889-25.078 1.153-40.186-2.8s-27.91-10.304-36.406-17.245zm35.647 20.147c-30.854-8.075-52.872-26.062-49.178-40.176s31.7-19.01 62.554-10.935 52.872 26.062 49.178 40.176-31.7 19.01-62.554 10.936z"/><path fill="url(#B)" d="M64.167 124.049l-4.937-19.123 2.905-.75 4.937 19.123-2.905.75z"/><path fill="url(#C)" d="M62.469 106.189l-.128-.443-.202-.817-.142-.54c.022-.012.03-.019.028-.027l-.004-.025-.12-.794-.022-.191c-.072-.663-.096-1.321-.071-1.974.035-.903.166-1.793.395-2.668 3.694-14.114 31.7-19.01 62.555-10.936s52.872 26.062 49.178 40.176a12.4 12.4 0 0 1-.963 2.519 13.7 13.7 0 0 1-1.635 2.476l-.016.019c.011.02.014.025.015.029l-.611.651-12.932 13.655c-6.807 9.031-27.596 11.752-50.146 5.85-22.302-5.837-38.971-18.182-40.797-29.295-.093-.569-.484-1.054-1.037-1.215L29.127 111.91a8.26 8.26 0 0 1-5.762-9.635l.459-2.172c.39-1.845 2.242-2.99 4.066-2.514l34.249 8.931a.27.27 0 0 0 .331-.331zm-3.657-3.636c-.064-1.544.091-3.085.488-4.603 2.325-8.885 11.93-13.965 23.478-15.984 11.834-2.069 26.992-1.215 42.738 2.906s29.38 10.802 38.683 18.402c9.078 7.417 14.963 16.551 12.638 25.436-.557 2.129-1.552 4.064-2.901 5.789a3.08 3.08 0 0 1-.425.566l-13.429 14.181c-4.171 5.406-12.026 8.46-21.098 9.556-9.3 1.124-20.517.28-32.096-2.751-11.453-2.997-21.548-7.685-29.079-13.141-7.079-5.13-12.321-11.262-13.743-17.657l-35.782-10.464a11.26 11.26 0 0 1-7.855-13.134l.459-2.173c.744-3.519 4.277-5.704 7.758-4.796l30.165 7.867z"/></g><circle cx="76" cy="29" r="29" fill="#f0b90b"/><path fill="#fffdfa" d="M65.185 29l-4.437 4.468L56.28 29l4.468-4.468L65.185 29zM76 18.185l7.642 7.642 4.468-4.468-7.641-7.611L76 9.28 63.921 21.358l4.468 4.468L76 18.185zm15.252 6.347L86.815 29l4.468 4.468L95.72 29l-4.468-4.468zM76 39.815l-7.641-7.642-4.437 4.468L76 48.72l12.109-12.109-4.468-4.437L76 39.815zm0-6.347L80.468 29 76 24.532 71.532 29 76 33.468z"/><circle cx="76" cy="29" r="27.5" stroke="#191326" stroke-width="3" opacity=".1" style="mix-blend-mode:multiply"/><path fill="url(#D)" d="M125.5 116c24.024 0 43.5-19.476 43.5-43.5S149.524 29 125.5 29 82 48.476 82 72.5s19.476 43.5 43.5 43.5z"/><g fill="#ff007a"><path d="M120.822 69.089a3.2 3.2 0 0 0 .541-1.123 3.48 3.48 0 0 0 .068-1.199l-.034-.295-.155-.191-2.085-2.384-.761-.856-2.86-3.191-5.731-6.366-11.493-12.703 16.186 19.959 3.303 4.113 1.525 1.923a.91.91 0 0 1 .189.577c-.006.208-.082.409-.217.567a1.34 1.34 0 0 1-.465.345 1.32 1.32 0 0 1-1.127-.024c-.175-.087-.328-.211-.45-.364l-10.661-13.216 7.423 13.41a1.18 1.18 0 0 1-.228 1.441 4.39 4.39 0 0 0-.915 1.184 7.19 7.19 0 0 0-.694 2.158l-.173 1.273-.078.633c-.322 2.249-1.779 4.519-3.168 6.252l-.501.614c-1.039 1.26-2.117 2.57-2.406 4.208-.319 1.811.042 3.722.82 5.375.294.633.671 1.203 1.05 1.777l.001.001.007.01.384.589.006.011c.111.189 1.106 1.894.654 1.963 4.656-.736 7.969-2.842 8.369-4.849.489-2.477-.996-3.46-2.342-4.352-.482-.319-.945-.626-1.295-.985-.736-.751-1.29-1.479-1.408-2.565-.15-1.41.373-2.463.952-3.628l.001-.001.001-.002.325-.666a11.01 11.01 0 0 0 1.023-3.454l.058-.829.082-1.02a5.18 5.18 0 0 1 .116-.642 2.06 2.06 0 0 1 .702-1.077c.343-.275.763-.431 1.201-.448l.023-.002.432-.04a6.95 6.95 0 0 0 2.006-.53 4.38 4.38 0 0 0 1.798-1.382zm27.954 3.377l-.011-.017a7.36 7.36 0 0 0-.592-.928c-.649-.883-1.579-1.515-2.636-1.792-.703-.182-1.422-.296-2.148-.339l-1.608-.092-.026-.001-.606-.031c-1.518-.084-3.072-.24-4.59-.675l-1.125-.37-.554-.223-.569-.269a9.61 9.61 0 0 1-1.968-1.435c-1.076-1.006-1.941-2.137-2.79-3.248v-.001l-.217-.284a41.52 41.52 0 0 0-2.789-3.469 12.71 12.71 0 0 0-3.415-2.68c-1.328-.672-2.771-1.086-4.252-1.22 1.536-.168 3.091.023 4.542.557 1.465.571 2.803 1.425 3.941 2.514.743.7 1.44 1.446 2.087 2.236 4.819-.953 8.728-.107 11.731 1.536l.068.034a14.81 14.81 0 0 1 2.672 1.864 9.16 9.16 0 0 1 .379.345 17.75 17.75 0 0 1 1.782 1.906l.041.055c1.775 2.257 2.651 4.603 2.653 6.025zm-26.02 3.127c1.288-.124 4.034-.797 2.806-2.968-.264-.441-.647-.799-1.104-1.032s-.971-.332-1.482-.284a2.54 2.54 0 0 0-1.4.615c-.392.344-.67.802-.795 1.31-.381 1.42.023 2.55 1.975 2.359zm19.696 2.93h.001c4.279 1.745 8.386 3.419 8.215 7.495 1.898-2.478 2.714-9.21-2.872-12.675-2.367-1.469-5.076-1.858-7.599-2.219h-.001c-2.782-.399-5.34-.765-6.97-2.513-.76 5.841 4.345 7.923 9.226 9.912z"/><path d="M144.076 64.266l.232.211-.267-.24-.113-.105.148.134zm-24.951-7.457c1.229.179 2.483.671 3.292 1.609s1.106 2.158 1.339 3.318l.093.452c.153.752.306 1.507.6 2.217.111.271.256.52.402.769v.001l.228.402c.071.135.167.264.263.393l.001.002c.136.184.274.369.345.573a.32.32 0 0 1 .023.159c-.006.054-.027.106-.059.15-.429.477-1.587-.053-2.023-.267-.754-.376-1.43-.893-1.99-1.525-1.752-1.954-2.656-4.765-2.601-7.325a8.49 8.49 0 0 1 .087-.928zm23.34 31.462c-2.01-2.951-4.032-5.92-2.779-9.434.876.606 1.896 1.157 2.947 1.726h0c2.71 1.466 5.629 3.044 6.84 5.957 1.922 4.605-.277 10.409-4.909 12.33 2.384-3.997.15-7.276-2.099-10.578h0zm-18.712.305a10.5 10.5 0 0 1 2.354-1.344 13.69 13.69 0 0 1 2.63-.762l1.664-.269c1.2-.176 2.353-.345 3.371-.757a6.44 6.44 0 0 0 1.991-1.239c.564-.526.995-1.18 1.26-1.906a5.93 5.93 0 0 0 .322-2.392 8.81 8.81 0 0 0-.582-2.541 5.84 5.84 0 0 1 1.402 2.458 5.85 5.85 0 0 1 .083 2.831 5.52 5.52 0 0 1-1.447 2.621 6.72 6.72 0 0 1-2.497 1.563c-.894.315-1.827.507-2.772.572l-1.699.1-.958.048a17.06 17.06 0 0 0-5.122 1.016zm16.825 13.226l.074-.059.06-.049.036-.028c-.617.281-1.259.502-1.919.657-.318.07-.64.116-.965.139l-.473-.011-.455-.065c-2.37-.415-2.689-2.801-2.966-4.869l-.197-1.291a10.29 10.29 0 0 0-.675-2.156 6.29 6.29 0 0 0-1.401-1.961 6.84 6.84 0 0 0-2.015-1.25c-.705-.288-1.445-.481-2.2-.572-1.469-.18-2.958-.065-4.381.337a16.2 16.2 0 0 0-3.916 1.683 20.81 20.81 0 0 0-3.34 2.516c.08-.074.531.005.808.053h.001l.191.031.992.16a8.76 8.76 0 0 1 1.898.591 8.2 8.2 0 0 1 2.356 1.729l.412.434a7.16 7.16 0 0 0 1.033 1.102l.284.244a3.94 3.94 0 0 0 1.916.835c.5.062 1.007.009 1.484-.154a3.11 3.11 0 0 0 .669-.318 2.64 2.64 0 0 0 .57-.486c.312-.366.52-.81.603-1.285a2.5 2.5 0 0 0-.123-1.359c-.16-.42-.477-.762-.883-.953.349.237.593.602.68 1.016a2.2 2.2 0 0 1-.089 1.187c-.126.364-.349.687-.644.934-.14.117-.297.212-.465.284a2.31 2.31 0 0 1-.523.145c-2.112.356-3.768-2.161-2.615-3.959.439-.688 1.179-1.044 1.968-1.144 1.935-.236 3.588 1.039 4.553 2.623.416.681.725 1.419 1.033 2.157l.605 1.369c.835 1.706 2.261 3.215 4.28 3.254a4.81 4.81 0 0 0 2.152-.49 7.13 7.13 0 0 0 .927-.519c.233-.156.448-.331.66-.502z"/></g><circle cx="125.5" cy="72.5" r="42.082" stroke="#191326" stroke-width="2.837" opacity=".2" style="mix-blend-mode:multiply"/><defs><linearGradient id="A" x1="124.757" x2="111.381" y1="87.774" y2="138.886" gradientUnits="userSpaceOnUse"><stop stop-color="#404042"/><stop offset="1" stop-color="#48484b"/></linearGradient><linearGradient id="B" x1="65.567" x2="60.735" y1="105.096" y2="123.129" gradientUnits="userSpaceOnUse"><stop stop-color="#404042"/><stop offset="1" stop-color="#48484b"/></linearGradient><linearGradient id="C" x1="92.495" x2="108.09" y1="80.169" y2="164.62" gradientUnits="userSpaceOnUse"><stop stop-color="#404042"/><stop offset="1" stop-color="#48484b"/></linearGradient><linearGradient id="D" x1="169" x2="82" y1="29" y2="116" gradientUnits="userSpaceOnUse"><stop stop-color="#ffe8f1"/><stop offset="1" stop-color="#fdfefe"/></linearGradient></defs></svg>