<svg width="160" height="160" viewBox="0 0 160 160" fill="none" xmlns="http://www.w3.org/2000/svg">
<g clip-path="url(#clip0)">
<path d="M48.045 119.028C44.8667 131.172 63.0449 146.449 88.6472 153.149C114.25 159.85 137.581 155.436 140.759 143.291C143.937 131.147 125.759 115.87 100.157 109.17C74.5546 102.469 51.2233 106.883 48.045 119.028Z" fill="#606063"/>
<path d="M136.924 149.273L152.346 132.988L42.9922 104.37L48.7128 126.188L136.924 149.273Z" fill="#606063"/>
<path d="M49.9337 108.293L8.07245 97.338C6.25796 96.8632 4.41259 97.9924 4.00962 99.8242L3.54142 101.953C2.60839 106.194 5.11954 110.433 9.28748 111.653L51.0994 123.892L49.9337 108.293Z" fill="#606063"/>
<path d="M43.2026 98.7094C39.5089 112.823 61.5267 130.811 92.3808 138.886C123.235 146.96 151.241 142.064 154.935 127.95C158.629 113.836 136.611 95.8485 105.757 87.7739C74.9028 79.6993 46.8963 84.5953 43.2026 98.7094Z" fill="url(#paint0_linear)"/>
<path fill-rule="evenodd" clip-rule="evenodd" d="M127.673 123.286C134.771 128.506 138.919 134.152 139.538 139.157L142.516 138.789C141.744 132.551 136.779 126.258 129.45 120.869C122.061 115.434 112.011 110.721 100.537 107.718C89.0628 104.716 77.9927 103.902 68.888 105.019C59.8593 106.128 52.4479 109.182 48.7196 114.242L51.1348 116.021C54.1263 111.961 60.5082 109.071 69.2536 107.997C77.9231 106.933 88.6081 107.698 99.7773 110.621C110.946 113.544 120.636 118.111 127.673 123.286Z" fill="#606063"/>
<path fill-rule="evenodd" clip-rule="evenodd" d="M56.7343 118.739C48.0136 111.615 44.7365 104.698 46.1049 99.4689C47.4733 94.24 53.7186 89.8153 64.8112 87.8761C75.6178 85.9869 89.8893 86.7224 104.997 90.6762C120.105 94.63 132.908 100.98 141.403 107.92C150.124 115.045 153.401 121.962 152.033 127.191C150.664 132.419 144.419 136.844 133.326 138.783C122.52 140.673 108.248 139.937 93.1403 135.983C78.0323 132.029 65.2301 125.68 56.7343 118.739ZM92.3808 138.886C61.5267 130.811 39.5089 112.823 43.2026 98.7094C46.8963 84.5953 74.9028 79.6993 105.757 87.7739C136.611 95.8485 158.629 113.836 154.935 127.95C151.241 142.064 123.235 146.96 92.3808 138.886Z" fill="#979797"/>
<path fill-rule="evenodd" clip-rule="evenodd" d="M45.1673 124.049L40.2305 104.926L43.1352 104.177L48.0721 123.299L45.1673 124.049Z" fill="url(#paint1_linear)"/>
<path fill-rule="evenodd" clip-rule="evenodd" d="M43.4691 106.189C43.4241 106.041 43.3812 105.893 43.3406 105.746C43.2656 105.473 43.1983 105.2 43.1386 104.929L42.997 104.389C42.9948 104.38 43.0025 104.372 43.0109 104.375C43.019 104.377 43.0266 104.37 43.0251 104.362C43.0236 104.353 43.0222 104.345 43.0207 104.337C42.9732 104.072 42.9333 103.807 42.9009 103.543C42.8931 103.479 42.8857 103.416 42.8788 103.352C42.8065 102.689 42.7824 102.031 42.8078 101.378C42.8079 101.378 42.8079 101.378 42.8079 101.377C42.8432 100.475 42.9734 99.5849 43.2025 98.7095C46.8962 84.5954 74.9027 79.6994 105.757 87.774C136.611 95.8486 158.629 113.836 154.935 127.95C154.706 128.826 154.383 129.666 153.972 130.469C153.972 130.469 153.972 130.47 153.972 130.47C153.528 131.338 152.981 132.163 152.337 132.945C152.332 132.951 152.326 132.958 152.321 132.964C152.319 132.967 152.318 132.969 152.318 132.972C152.318 132.977 152.322 132.982 152.327 132.983C152.332 132.984 152.335 132.989 152.336 132.993C152.336 132.996 152.335 133 152.333 133.002L151.725 133.644C151.655 133.72 151.584 133.795 151.511 133.87L150.275 135.175L150.273 135.177L138.793 147.299C131.986 156.33 111.197 159.051 88.6472 153.149C66.3446 147.312 49.6757 134.967 47.8505 123.854C47.7571 123.285 47.3667 122.8 46.8135 122.639L10.1271 111.91C5.98342 110.698 3.4722 106.499 4.36483 102.275L4.82393 100.103C5.21371 98.2581 7.06553 97.1133 8.88976 97.589L43.1386 106.52C43.3391 106.573 43.5217 106.39 43.4691 106.189ZM39.8119 102.553C39.7482 101.009 39.9029 99.4681 40.3002 97.9499C42.6255 89.0648 52.2303 83.9845 63.7779 81.9658C75.6114 79.8971 90.7702 80.751 106.516 84.8718C122.262 88.9926 135.896 95.6738 145.199 103.274C154.277 110.691 160.162 119.825 157.837 128.71C157.28 130.839 156.285 132.774 154.936 134.499C154.821 134.697 154.679 134.887 154.511 135.065L153.923 135.686C153.92 135.689 153.916 135.693 153.913 135.697C153.836 135.779 153.759 135.861 153.68 135.943C153.677 135.946 153.673 135.95 153.67 135.953L141.082 149.246C136.911 154.652 129.056 157.706 119.984 158.802C110.684 159.926 99.4667 159.082 87.8877 156.051C76.4351 153.054 66.3397 148.366 58.8095 142.91C51.73 137.78 46.4882 131.648 45.0667 125.253L9.28503 114.789C3.63618 113.137 0.212785 107.413 1.42965 101.655L1.88875 99.4823C2.63251 95.9628 6.16596 93.7783 9.64679 94.6861L39.8119 102.553Z" fill="url(#paint2_linear)"/>
<circle cx="57" cy="29" r="29" fill="#F0B90B"/>
<path d="M46.1848 29L41.7478 33.4678L37.28 29L41.7478 24.5322L46.1848 29ZM57 18.1848L64.6415 25.8263L69.1093 21.3585L61.4678 13.7478L57 9.28003L52.5322 13.7478L44.9215 21.3585L49.3893 25.8263L57 18.1848ZM72.2522 24.5322L67.8152 29L72.283 33.4678L76.72 29L72.2522 24.5322ZM57 39.8152L49.3585 32.1737L44.9215 36.6415L52.563 44.283L57 48.72L61.4678 44.2522L69.1093 36.6107L64.6415 32.1737L57 39.8152ZM57 33.4678L61.4678 29L57 24.5322L52.5322 29L57 33.4678Z" fill="#FFFDFA"/>
<g style="mix-blend-mode:multiply" opacity="0.1">
<path fill-rule="evenodd" clip-rule="evenodd" d="M57 55C71.3594 55 83 43.3594 83 29C83 14.6406 71.3594 3 57 3C42.6406 3 31 14.6406 31 29C31 43.3594 42.6406 55 57 55ZM57 58C73.0163 58 86 45.0163 86 29C86 12.9837 73.0163 0 57 0C40.9837 0 28 12.9837 28 29C28 45.0163 40.9837 58 57 58Z" fill="#191326"/>
</g>
<path d="M106.5 116C130.524 116 150 96.5244 150 72.5C150 48.4756 130.524 29 106.5 29C82.4756 29 63 48.4756 63 72.5C63 96.5244 82.4756 116 106.5 116Z" fill="url(#paint3_linear)"/>
<path d="M101.822 69.0888C102.074 68.7538 102.258 68.3723 102.363 67.9661C102.455 67.5734 102.478 67.1679 102.431 66.7673L102.397 66.4719L102.242 66.2813C101.556 65.4654 100.87 64.6963 100.184 63.9273L100.157 63.8972C99.9031 63.6127 99.6494 63.3282 99.3956 63.0411L96.5363 59.8505L90.8047 53.4846L79.3125 40.7812L90.1139 54.0811L95.4986 60.7406L98.1814 64.076C98.3694 64.3122 98.5591 64.5495 98.7491 64.7871L98.8014 64.8524L98.8023 64.8536C99.3157 65.4955 99.8315 66.1405 100.327 66.7768C100.454 66.9416 100.521 67.1453 100.516 67.3537C100.51 67.562 100.434 67.7622 100.299 67.9205C100.171 68.0683 100.012 68.1859 99.8342 68.2653C99.6559 68.3445 99.4626 68.3835 99.2678 68.3793C99.073 68.3751 98.8814 68.3278 98.7068 68.241C98.5322 68.1541 98.3786 68.0297 98.2572 67.8766L87.5962 54.6606L95.0185 68.071C95.1466 68.3021 95.1938 68.5697 95.1525 68.8309C95.1112 69.0922 94.9838 69.3319 94.7908 69.5118C94.4206 69.8508 94.1113 70.2511 93.8764 70.6955C93.5321 71.373 93.2977 72.1013 93.1818 72.8531C93.1041 73.2882 93.0543 73.725 93.0086 74.1261V74.1264C92.9829 74.3507 92.9586 74.5636 92.9314 74.759C92.609 77.0081 91.1518 79.278 89.7629 81.0106C89.5994 81.2147 89.4311 81.4189 89.2619 81.6244C88.2235 82.8847 87.145 84.1939 86.8562 85.8327C86.5375 87.6433 86.898 89.5551 87.6759 91.2075C87.9704 91.8402 88.3475 92.4109 88.7264 92.9842L88.7267 92.9848L88.7337 92.9953C88.8627 93.1904 88.9918 93.3859 89.1179 93.5843L89.1245 93.5956C89.2349 93.785 90.2298 95.4901 89.7781 95.5588C94.4342 94.8232 97.7469 92.7171 98.1472 90.7101C98.6364 88.233 97.1514 87.2499 95.8045 86.3582C95.3233 86.0396 94.8597 85.7326 94.51 85.3734C93.7738 84.6225 93.2198 83.8944 93.1023 82.808C92.9519 81.398 93.4753 80.3452 94.0545 79.18L94.0548 79.1792L94.0557 79.1774C94.1636 78.9604 94.2733 78.7396 94.381 78.5119C94.9094 77.4253 95.2551 76.2583 95.4037 75.0583C95.4291 74.7639 95.4458 74.4908 95.4617 74.2316V74.2309L95.4618 74.2294C95.4839 73.8687 95.5044 73.5352 95.5441 73.2094C95.5692 72.9931 95.6078 72.7787 95.6598 72.5672C95.7734 72.1422 96.0194 71.7649 96.3618 71.4905C96.7043 71.2161 97.1251 71.0592 97.5628 71.0424L97.5863 71.0406C97.7289 71.0298 97.8761 71.0185 98.0182 71.0004C98.7093 70.9255 99.3852 70.7469 100.024 70.4705C100.733 70.1763 101.354 69.6998 101.822 69.0888Z" fill="#FF007A"/>
<path d="M129.776 72.4658L129.765 72.4485C129.591 72.1245 129.393 71.8143 129.173 71.5204C128.524 70.6378 127.594 70.0054 126.537 69.7287C125.834 69.5463 125.115 69.4327 124.39 69.3894C123.867 69.3515 123.337 69.3252 122.802 69.2986L122.781 69.2976L122.755 69.2964C122.554 69.2863 122.351 69.2763 122.149 69.2656C120.631 69.1817 119.077 69.0254 117.559 68.5909C117.18 68.4822 116.8 68.364 116.434 68.2211C116.244 68.1525 116.068 68.0782 115.88 67.9981C115.692 67.9181 115.501 67.8265 115.311 67.7294C114.597 67.3367 113.936 66.8544 113.343 66.2942C112.267 65.2882 111.402 64.1573 110.553 63.0467L110.553 63.046C110.481 62.9513 110.408 62.8568 110.336 62.7624C109.469 61.557 108.538 60.3991 107.547 59.2935C106.57 58.2105 105.415 57.3041 104.132 56.6137C102.804 55.9417 101.361 55.5279 99.8799 55.3938C101.416 55.2263 102.971 55.4168 104.422 55.9505C105.887 56.5217 107.225 57.3756 108.363 58.4644C109.106 59.164 109.803 59.9108 110.45 60.7001C115.269 59.7472 119.178 60.5935 122.181 62.2363L122.249 62.2707C123.205 62.7916 124.101 63.4166 124.921 64.1347C125.052 64.2491 125.181 64.3635 125.3 64.4797C125.94 65.0701 126.535 65.7072 127.082 66.3857L127.123 66.4409C128.898 68.6976 129.774 71.0438 129.776 72.4658Z" fill="#FF007A"/>
<path d="M103.756 75.5936C105.044 75.4698 107.79 74.797 106.562 72.626C106.298 72.1845 105.915 71.8265 105.458 71.5936C105 71.3606 104.487 71.2621 103.976 71.309C103.458 71.3649 102.969 71.5796 102.576 71.9239C102.184 72.2683 101.906 72.7258 101.781 73.2341C101.4 74.654 101.804 75.7843 103.756 75.5936Z" fill="#FF007A"/>
<path d="M123.452 78.5228L123.453 78.523C127.732 80.2674 131.839 81.9415 131.668 86.0178C133.566 83.54 134.382 76.8082 128.796 73.343C126.429 71.8736 123.72 71.4855 121.197 71.1238H121.196C118.414 70.7251 115.856 70.3585 114.226 68.6106C113.466 74.4519 118.571 76.5331 123.452 78.5228Z" fill="#FF007A"/>
<path d="M125.076 64.2661C125.154 64.3359 125.231 64.406 125.308 64.4768C125.22 64.4018 125.131 64.3193 125.041 64.2366C125.004 64.2014 124.966 64.1665 124.928 64.1318C124.971 64.1709 125.014 64.2099 125.057 64.2489L125.076 64.2661Z" fill="#FF007A"/>
<path d="M100.125 56.8086C101.354 56.9878 102.608 57.4796 103.417 58.4173C104.225 59.355 104.523 60.5749 104.756 61.7356C104.788 61.8858 104.818 62.0365 104.849 62.1872L104.849 62.1874C105.002 62.9396 105.155 63.6943 105.449 64.404C105.56 64.6748 105.705 64.9239 105.851 65.1734L105.851 65.1738L105.851 65.1739C105.929 65.3069 106.006 65.4397 106.079 65.5761C106.15 65.7107 106.246 65.8398 106.342 65.9695L106.343 65.9713C106.479 66.1551 106.617 66.3403 106.688 66.5443C106.709 66.5945 106.717 66.6494 106.711 66.7036C106.705 66.7579 106.684 66.8095 106.652 66.8531C106.223 67.3296 105.065 66.7998 104.629 66.5863C103.875 66.2107 103.199 65.6931 102.639 65.0615C100.887 63.1079 99.9825 60.2966 100.038 57.7369C100.05 57.426 100.079 57.1163 100.125 56.8086Z" fill="#FF007A"/>
<path d="M123.465 88.2716C121.455 85.3203 119.433 82.3517 120.686 78.837C121.562 79.4427 122.582 79.9943 123.633 80.5629H123.633C126.343 82.0285 129.262 83.6074 130.473 86.52C132.395 91.1248 130.196 96.9285 125.564 98.8497C127.948 94.8526 125.714 91.5732 123.465 88.2719L123.465 88.2716Z" fill="#FF007A"/>
<path d="M104.753 88.5759C105.477 88.0278 106.268 87.5761 107.107 87.2322C107.956 86.8907 108.837 86.6353 109.737 86.4697C110.294 86.3633 110.85 86.2819 111.395 86.2019L111.401 86.201H111.401C112.601 86.0253 113.754 85.8566 114.772 85.4444C115.506 85.1569 116.18 84.7369 116.763 84.2055C117.327 83.679 117.758 83.0259 118.023 82.2995C118.293 81.5329 118.403 80.7186 118.345 79.9075C118.278 79.0361 118.082 78.1798 117.763 77.3668C118.424 78.0577 118.905 78.902 119.165 79.8246C119.424 80.747 119.453 81.7195 119.248 82.6559C119.016 83.6471 118.515 84.5543 117.801 85.2766C117.093 85.9764 116.241 86.5102 115.304 86.8395C114.41 87.1545 113.477 87.3469 112.532 87.4112C111.955 87.4595 111.391 87.4856 110.835 87.5114L110.834 87.5115H110.833C110.512 87.5263 110.193 87.5411 109.875 87.56C108.126 87.6337 106.399 87.9763 104.753 88.5759Z" fill="#FF007A"/>
<path d="M121.578 101.802L121.652 101.742L121.712 101.694L121.748 101.666C121.131 101.947 120.489 102.167 119.829 102.323C119.511 102.392 119.189 102.439 118.864 102.462L118.391 102.451C118.239 102.437 118.087 102.415 117.936 102.386C115.566 101.97 115.247 99.5844 114.97 97.5168C114.91 97.0632 114.851 96.6247 114.773 96.226C114.628 95.4845 114.401 94.7616 114.098 94.0703C113.761 93.3319 113.286 92.6659 112.697 92.1091C112.103 91.5782 111.421 91.1552 110.682 90.8586C109.978 90.5704 109.237 90.3781 108.482 90.2869C107.013 90.1071 105.524 90.2217 104.101 90.6243C102.727 91.0103 101.411 91.5763 100.185 92.3073C98.9903 93.0312 97.8715 93.8741 96.8452 94.8232C96.9248 94.7491 97.3757 94.8277 97.653 94.8761L97.6538 94.8763C97.7399 94.8914 97.8092 94.9034 97.8452 94.9069C98.1772 94.9489 98.5093 94.9986 98.8374 95.0671C99.4901 95.1914 100.127 95.3897 100.735 95.6579C101.617 96.0882 102.415 96.6738 103.091 97.3867C103.233 97.527 103.369 97.6729 103.503 97.8208C103.808 98.2241 104.154 98.5934 104.536 98.923C104.627 99.0074 104.722 99.0888 104.82 99.1669C105.372 99.6128 106.034 99.9013 106.736 100.002C107.236 100.064 107.743 100.011 108.22 99.8473C108.455 99.7683 108.68 99.6614 108.889 99.529C109.101 99.395 109.293 99.2313 109.459 99.043C109.771 98.6769 109.979 98.2332 110.062 97.7583C110.148 97.3026 110.105 96.832 109.939 96.3994C109.779 95.9789 109.462 95.6374 109.056 95.4463C109.405 95.6837 109.649 96.048 109.736 96.4623C109.816 96.8587 109.785 97.2698 109.647 97.6497C109.521 98.0139 109.298 98.3369 109.003 98.5837C108.863 98.7002 108.706 98.7958 108.538 98.8676C108.37 98.9363 108.194 98.985 108.015 99.0124C105.903 99.3689 104.247 96.851 105.4 95.0538C105.839 94.3656 106.579 94.0093 107.368 93.9102C109.303 93.6738 110.956 94.9489 111.921 96.5328C112.337 97.2143 112.646 97.9521 112.954 98.6898C113.147 99.1508 113.34 99.6117 113.559 100.059C114.394 101.765 115.82 103.274 117.839 103.312C118.584 103.318 119.321 103.151 119.991 102.823C120.312 102.673 120.623 102.5 120.918 102.304C121.151 102.148 121.366 101.973 121.578 101.802Z" fill="#FF007A"/>
<g style="mix-blend-mode:multiply" opacity="0.2">
<path fill-rule="evenodd" clip-rule="evenodd" d="M106.5 113.163C128.958 113.163 147.163 94.9576 147.163 72.5C147.163 50.0424 128.958 31.837 106.5 31.837C84.0424 31.837 65.837 50.0424 65.837 72.5C65.837 94.9576 84.0424 113.163 106.5 113.163ZM106.5 116C130.524 116 150 96.5244 150 72.5C150 48.4756 130.524 29 106.5 29C82.4756 29 63 48.4756 63 72.5C63 96.5244 82.4756 116 106.5 116Z" fill="#191326"/>
</g>
</g>
<defs>
<linearGradient id="paint0_linear" x1="105.757" y1="87.7739" x2="92.3808" y2="138.886" gradientUnits="userSpaceOnUse">
<stop stop-color="#404042"/>
<stop offset="1" stop-color="#48484B"/>
</linearGradient>
<linearGradient id="paint1_linear" x1="46.5673" y1="105.096" x2="41.7353" y2="123.129" gradientUnits="userSpaceOnUse">
<stop stop-color="#404042"/>
<stop offset="1" stop-color="#48484B"/>
</linearGradient>
<linearGradient id="paint2_linear" x1="73.4948" y1="80.1687" x2="89.0896" y2="164.62" gradientUnits="userSpaceOnUse">
<stop stop-color="#404042"/>
<stop offset="1" stop-color="#48484B"/>
</linearGradient>
<linearGradient id="paint3_linear" x1="150" y1="29" x2="63" y2="116" gradientUnits="userSpaceOnUse">
<stop stop-color="#FFE8F1"/>
<stop offset="1" stop-color="#FDFEFE"/>
</linearGradient>
<clipPath id="clip0">
<rect width="160" height="160" fill="white"/>
</clipPath>
</defs>
</svg>
