<svg xmlns="http://www.w3.org/2000/svg" width="160" height="160" fill="none" viewBox="0 0 160 160"><g clip-path="url(#clip0)"><path fill="#606063" d="M48.045 119.028C44.8667 131.172 63.0449 146.449 88.6472 153.149C114.25 159.849 137.581 155.436 140.759 143.291C143.937 131.146 125.759 115.87 100.157 109.169C74.5546 102.469 51.2233 106.883 48.045 119.028Z"/><path fill="#606063" d="M136.924 149.273L152.346 132.988L42.9922 104.369L48.7128 126.187L136.924 149.273Z"/><path fill="#606063" d="M49.9337 108.293L8.07245 97.338C6.25796 96.8632 4.41259 97.9924 4.00962 99.8242L3.54142 101.953C2.60839 106.194 5.11954 110.433 9.28748 111.653L51.0994 123.892L49.9337 108.293Z"/><path fill="url(#paint0_linear)" d="M43.2026 98.7096C39.5089 112.824 61.5267 130.811 92.3808 138.886C123.235 146.96 151.241 142.064 154.935 127.95C158.629 113.836 136.611 95.8488 105.757 87.7742C74.9028 79.6996 46.8963 84.5955 43.2026 98.7096Z"/><path fill="#606063" fill-rule="evenodd" d="M127.673 123.286C134.771 128.506 138.919 134.152 139.538 139.157L142.516 138.789C141.744 132.551 136.779 126.258 129.45 120.869C122.061 115.434 112.011 110.721 100.537 107.718C89.0628 104.716 77.9927 103.901 68.888 105.019C59.8593 106.128 52.4479 109.182 48.7196 114.242L51.1348 116.021C54.1263 111.961 60.5082 109.071 69.2536 107.997C77.9231 106.933 88.6081 107.698 99.7773 110.621C110.946 113.544 120.636 118.111 127.673 123.286Z" clip-rule="evenodd"/><path fill="#979797" fill-rule="evenodd" d="M56.7343 118.739C48.0136 111.615 44.7365 104.698 46.1049 99.4692C47.4733 94.2403 53.7186 89.8155 64.8112 87.8763C75.6178 85.9872 89.8893 86.7226 104.997 90.6764C120.105 94.6302 132.908 100.98 141.403 107.921C150.124 115.045 153.401 121.962 152.033 127.191C150.664 132.42 144.419 136.844 133.326 138.784C122.52 140.673 108.248 139.937 93.1403 135.984C78.0323 132.03 65.2301 125.68 56.7343 118.739ZM92.3808 138.886C61.5267 130.811 39.5089 112.824 43.2026 98.7096C46.8963 84.5955 74.9028 79.6996 105.757 87.7742C136.611 95.8488 158.629 113.836 154.935 127.95C151.241 142.064 123.235 146.96 92.3808 138.886Z" clip-rule="evenodd"/><path fill="url(#paint1_linear)" fill-rule="evenodd" d="M45.1673 124.049L40.2305 104.926L43.1352 104.176L48.0721 123.299L45.1673 124.049Z" clip-rule="evenodd"/><path fill="url(#paint2_linear)" fill-rule="evenodd" d="M43.4691 106.189C43.4241 106.041 43.3812 105.893 43.3406 105.746C43.2656 105.473 43.1983 105.2 43.1386 104.929L42.997 104.389C42.9948 104.38 43.0025 104.372 43.0109 104.375C43.019 104.377 43.0266 104.37 43.0251 104.362C43.0236 104.353 43.0222 104.345 43.0207 104.337C42.9732 104.072 42.9333 103.807 42.9009 103.543C42.8931 103.479 42.8857 103.416 42.8788 103.352C42.8065 102.689 42.7824 102.031 42.8078 101.378C42.8079 101.378 42.8079 101.378 42.8079 101.377C42.8432 100.475 42.9734 99.5849 43.2025 98.7095C46.8962 84.5954 74.9027 79.6994 105.757 87.774C136.611 95.8486 158.629 113.836 154.935 127.95C154.706 128.826 154.383 129.666 153.972 130.469C153.972 130.469 153.972 130.47 153.972 130.47C153.528 131.338 152.981 132.163 152.337 132.945C152.332 132.951 152.326 132.958 152.321 132.964C152.319 132.967 152.318 132.969 152.318 132.972C152.318 132.977 152.322 132.982 152.327 132.983C152.332 132.984 152.335 132.989 152.336 132.993C152.336 132.996 152.335 133 152.333 133.002L151.725 133.644C151.655 133.72 151.584 133.795 151.511 133.87L150.275 135.175L150.273 135.177L138.793 147.299C131.986 156.33 111.197 159.051 88.6472 153.149C66.3446 147.312 49.6757 134.967 47.8505 123.854C47.7571 123.285 47.3667 122.8 46.8135 122.639L10.1271 111.91C5.98342 110.698 3.4722 106.499 4.36483 102.275L4.82393 100.103C5.21371 98.2581 7.06553 97.1133 8.88976 97.589L43.1386 106.52C43.3391 106.573 43.5217 106.39 43.4691 106.189ZM39.8119 102.553C39.7482 101.009 39.9029 99.4681 40.3002 97.9499C42.6255 89.0648 52.2303 83.9845 63.7779 81.9658C75.6114 79.8971 90.7702 80.751 106.516 84.8718C122.262 88.9926 135.896 95.6738 145.199 103.274C154.277 110.691 160.162 119.825 157.837 128.71C157.28 130.839 156.285 132.774 154.936 134.499C154.821 134.697 154.679 134.887 154.511 135.065L153.923 135.686C153.92 135.689 153.916 135.693 153.913 135.697C153.836 135.779 153.759 135.861 153.68 135.943C153.677 135.946 153.673 135.95 153.67 135.953L141.082 149.246C136.911 154.652 129.056 157.706 119.984 158.802C110.684 159.926 99.4667 159.082 87.8877 156.051C76.4351 153.054 66.3397 148.366 58.8095 142.91C51.73 137.78 46.4882 131.648 45.0667 125.253L9.28503 114.789C3.63618 113.137 0.212785 107.413 1.42965 101.655L1.88875 99.4823C2.63251 95.9628 6.16596 93.7783 9.64679 94.6861L39.8119 102.553Z" clip-rule="evenodd"/><circle cx="57" cy="29" r="29" fill="#F0B90B"/><path fill="#FFFDFA" d="M46.1848 28.9998L41.7478 33.4676L37.28 28.9998L41.7478 24.532L46.1848 28.9998ZM57 18.1846L64.6415 25.8261L69.1093 21.3583L61.4678 13.7476L57 9.27979L52.5322 13.7476L44.9215 21.3583L49.3893 25.8261L57 18.1846ZM72.2522 24.532L67.8152 28.9998L72.283 33.4676L76.72 28.9998L72.2522 24.532ZM57 39.815L49.3585 32.1735L44.9215 36.6413L52.563 44.2828L57 48.7198L61.4678 44.252L69.1093 36.6105L64.6415 32.1735L57 39.815ZM57 33.4676L61.4678 28.9998L57 24.532L52.5322 28.9998L57 33.4676Z"/><g style="mix-blend-mode:multiply" opacity=".1"><path fill="#191326" fill-rule="evenodd" d="M57 55C71.3594 55 83 43.3594 83 29C83 14.6406 71.3594 3 57 3C42.6406 3 31 14.6406 31 29C31 43.3594 42.6406 55 57 55ZM57 58C73.0163 58 86 45.0163 86 29C86 12.9837 73.0163 0 57 0C40.9837 0 28 12.9837 28 29C28 45.0163 40.9837 58 57 58Z" clip-rule="evenodd"/></g><g clip-path="url(#clip1)"><path fill="#000" d="M106.504 116.008C130.531 116.008 150.008 96.5305 150.008 72.504C150.008 48.4774 130.531 29 106.504 29C82.4774 29 63 48.4774 63 72.504C63 96.5305 82.4774 116.008 106.504 116.008Z"/><path fill="#000" d="M106.504 112.736C128.724 112.736 146.736 94.7233 146.736 72.5038C146.736 50.2844 128.724 32.272 106.504 32.272C84.2846 32.272 66.2722 50.2844 66.2722 72.5038C66.2722 94.7233 84.2846 112.736 106.504 112.736Z"/><path fill="url(#paint3_linear)" d="M86.8238 79.9829C86.3323 82.0125 86.2142 84.1146 86.4752 86.1865C86.4574 86.8957 86.2872 87.5929 85.976 88.2305C85.4531 88.8881 85.8414 89.6725 85.6671 90.3776C85.5958 90.6708 85.3818 91.0035 85.6671 91.1699C85.733 92.5767 85.8785 93.9786 86.1028 95.369C86.1173 95.4949 86.1723 95.6127 86.2594 95.7048C86.3466 95.7968 86.4612 95.8582 86.5862 95.8796C86.7111 95.901 86.8396 95.8814 86.9525 95.8236C87.0653 95.7658 87.1563 95.673 87.212 95.5591L87.8537 93.42C88.2261 92.7148 88.955 92.7148 89.6047 92.5405C89.9533 93.8161 89.9533 93.8161 90.6584 93.1902C91.3001 91.9939 90.8248 90.7104 90.9436 89.4744L91.2526 87.9532C91.6151 87.5271 91.8341 86.9976 91.8785 86.44C92.6708 84.7445 92.3618 82.9777 92.1558 81.2268C92.2667 80.5138 92.3697 79.7928 92.4727 79.0797C92.4727 78.8896 92.4727 78.6994 92.4727 78.5014C93.0115 78.2478 93.0273 77.7091 93.0669 77.2416C93.2084 77.0797 93.3124 76.8885 93.3713 76.6816C93.4302 76.4748 93.4426 76.2575 93.4076 76.0453C93.883 75.3877 93.5581 74.6034 93.7483 73.8982L94.3108 72.6623C94.4179 72.6035 94.5066 72.516 94.5667 72.4096C94.6269 72.3033 94.6563 72.1823 94.6515 72.0602C95.0434 71.6248 95.3283 71.1039 95.4834 70.539C95.9092 70.1087 96.234 69.5891 96.4341 69.0178C96.8616 68.5975 97.161 68.0645 97.2977 67.4808C97.8663 66.8714 98.2699 66.1269 98.4703 65.3179C100.007 63.2896 100.958 60.9366 102.17 58.7182C102.796 57.5773 103.192 56.7692 101.568 56.4602C101.433 55.8502 102.455 55.6125 101.893 55.0658C101.521 54.6934 101.006 54.8043 100.475 54.8994C99.2 55.2282 97.9566 55.6683 96.7589 56.2146C96.3134 56.3195 95.8939 56.5141 95.5261 56.7865C95.1583 57.0589 94.8499 57.4035 94.6198 57.7992C93.5819 59.8828 92.4806 61.9348 91.3952 64.0027C91.2233 64.3471 91.0725 64.7016 90.9436 65.0643C90.8169 65.4922 91.2447 66.126 90.4999 66.2924C89.8978 66.4271 89.7077 65.8804 89.3195 65.5556C88.6381 63.7888 87.4814 62.2676 86.6732 60.588C85.976 59.1064 85.1838 59.2253 84.035 59.7165C83.4415 60.0063 82.8765 60.3511 82.3474 60.7464C81.8404 61.1109 81.2778 61.7526 81.5551 62.2676C82.4821 63.8997 82.2999 66.1577 84.2806 67.1956L85.0174 68.075C85.4056 68.8673 85.8097 69.715 86.1979 70.5311C86.3167 71.0381 86.4435 71.5373 86.5623 72.0443C86.5623 72.7811 86.3643 73.6289 86.9109 74.1597C87.1717 74.3787 87.3823 74.6513 87.5286 74.9588C87.6749 75.2664 87.7533 75.6018 87.7587 75.9423C87.5352 76.3086 87.4275 76.7339 87.4497 77.1624C87.0309 78.0408 86.8144 79.0019 86.8159 79.975L86.8238 79.9829ZM133.513 50.0665C132.118 50.6687 129.361 52.3166 128.759 53.6952C128.507 54.2143 128.125 54.6593 127.65 54.9866C126.487 55.8193 125.647 57.0284 125.273 58.4092C125.107 59.0193 124.806 59.6769 124.227 59.8432C122.215 60.4454 122.064 62.4102 121.145 63.8046C120.836 64.6524 120.511 65.4446 120.202 66.2369C119.843 66.6938 119.62 67.2432 119.561 67.8215C119.212 68.2785 119.013 68.8318 118.99 69.406L118.713 69.7229C118.628 69.7893 118.564 69.8776 118.526 69.9782C118.488 70.0788 118.479 70.1878 118.499 70.2934C118.523 70.363 118.555 70.4295 118.594 70.4914C118.339 70.5769 118.066 70.596 117.802 70.5469C117.933 70.408 118.016 70.2312 118.04 70.0419C118.065 69.8526 118.028 69.6605 117.937 69.4932L117.754 69.3585V68.4949L117.881 68.4394C118.011 67.8386 117.972 67.2135 117.77 66.6331C117.742 65.8903 117.529 65.1661 117.152 64.5256C116.994 63.8363 117.659 62.8935 116.748 62.4894C116.451 62.3388 116.116 62.2803 115.786 62.3212C115.456 62.3621 115.145 62.5007 114.894 62.7192C113.961 63.4343 113.333 64.4758 113.135 65.6348C112.786 66.0633 112.576 66.5886 112.533 67.1401C112.226 67.62 112.026 68.1605 111.947 68.7247C111.413 69.5831 111 70.5108 110.719 71.4818C110.163 72.3149 109.745 73.2326 109.483 74.1993C108.968 74.7301 109.079 75.6254 108.223 76.3464V69.6992C108.405 69.4456 108.112 69.3189 108.065 69.1287C108.857 68.1859 108.54 66.641 107.423 65.5714L107.463 65.4842L107.407 65.4446C106.971 64.3751 105.878 64.3354 105.03 63.8601C104.871 63.739 104.685 63.6584 104.487 63.6252C104.29 63.5921 104.088 63.6073 103.897 63.6697C103.707 63.732 103.535 63.8396 103.396 63.9832C103.256 64.1267 103.154 64.302 103.097 64.4939C103.023 64.578 102.981 64.6865 102.981 64.7989C102.981 64.9114 103.023 65.0199 103.097 65.104V65.199C103.097 65.2545 103.097 65.2941 103.097 65.3496C103.03 66.2009 103.014 67.0554 103.05 67.9086C103.018 68.4105 103.071 68.9142 103.208 69.3981C103.208 70.1904 103.208 70.9827 103.168 71.8304V73.3595V73.922C103.127 73.9191 103.086 73.9255 103.048 73.9405C103.009 73.9556 102.975 73.9791 102.947 74.0092C102.947 76.5603 102.796 79.1194 103.382 81.6388C103.389 81.7376 103.431 81.8306 103.501 81.9002C103.382 82.4548 102.63 82.5103 102.574 83.1045L102.646 83.1679L102.574 83.0966C102.154 83.8889 102.685 84.5623 102.883 85.2753L102.558 89.5378C102.315 90.3445 102.271 91.1983 102.432 92.0256C102.359 92.1699 102.332 92.333 102.355 92.493C102.377 92.6531 102.448 92.8023 102.558 92.9208C103.192 94.0459 103.216 95.472 104.262 96.4068C104.435 96.2309 104.57 96.0213 104.659 95.7909C104.747 95.5606 104.787 95.3145 104.777 95.0679L105.664 94.4341C106.744 93.6031 107.486 92.4101 107.756 91.0748C108.318 90.2825 108.049 89.205 108.508 88.3573L108.77 87.7235C109.101 87.3937 109.318 86.9659 109.388 86.5034C109.703 86.1606 109.905 85.729 109.966 85.2674C110.338 84.8435 110.577 84.3203 110.655 83.7621C110.823 83.6094 110.959 83.4251 111.056 83.2199C111.152 83.0146 111.207 82.7923 111.218 82.5658L111.139 82.5103L111.21 82.5737C111.559 82.1106 111.78 81.5643 111.852 80.9891C112.167 80.5167 112.356 79.971 112.399 79.4046C112.612 78.9054 112.818 78.4142 113.024 77.9151C113.761 77.7962 113.817 78.232 113.817 78.8183C113.817 79.5234 113.864 80.2285 113.888 80.9337L113.84 82.3756C113.706 83.1045 113.579 83.8334 113.444 84.5623C113.342 84.6956 113.274 84.8524 113.248 85.0185C113.222 85.1846 113.237 85.3546 113.294 85.513C113.097 85.9252 113.049 86.3928 113.159 86.8361C113.128 87.7967 113.197 88.7579 113.365 89.7042C113.376 90.0632 113.52 90.4055 113.769 90.6646C114.017 90.9237 114.354 91.0812 114.712 91.1065C115.019 91.2102 115.353 91.2054 115.657 91.0929C115.961 90.9805 116.218 90.7672 116.384 90.4885C117.143 89.3624 117.736 88.1322 118.143 86.8361C118.567 86.3185 118.777 85.6578 118.729 84.9901C119.125 83.667 119.957 82.4707 119.917 81.0287L120.226 80.4187C120.554 80.0818 120.779 79.6586 120.876 79.1986C121.138 78.8534 121.327 78.4581 121.431 78.037C121.534 77.6159 121.55 77.178 121.478 76.7504L121.597 75.562C122.516 74.9757 122.809 73.9775 123.3 73.0822C123.435 72.9755 123.536 72.8318 123.591 72.6686C123.646 72.5054 123.652 72.3298 123.609 72.1632C123.823 71.4501 124.037 70.745 124.259 70.0319C124.387 69.9219 124.486 69.7818 124.547 69.6242C124.608 69.4666 124.629 69.2964 124.607 69.1287C124.697 69.0772 124.77 68.9998 124.815 68.9065C124.86 68.8132 124.876 68.7084 124.861 68.6058C125.325 67.9326 125.648 67.1727 125.812 66.3716C126.253 65.5066 126.56 64.5796 126.723 63.6224C127.452 61.8715 129.06 60.6831 129.702 58.8687C130.339 57.2075 131.402 55.743 132.784 54.6221C134.273 53.3307 134.368 52.174 133.481 50.0824L133.513 50.0665ZM108.231 88.4841C108.283 88.4546 108.339 88.4332 108.397 88.4207L108.231 88.4841ZM106.504 32.272C98.5465 32.2704 90.7673 34.6286 84.1502 39.0484C77.533 43.4682 72.3752 49.751 69.3289 57.1023C66.2827 64.4535 65.4848 72.5431 67.0363 80.3478C68.5877 88.1526 72.4188 95.3219 78.045 100.949C83.6712 106.577 90.8398 110.409 98.6443 111.962C106.449 113.515 114.538 112.719 121.89 109.674C129.242 106.629 135.526 101.473 139.947 94.8563C144.368 88.24 146.728 80.4613 146.728 72.5038C146.729 67.2209 145.689 61.9895 143.668 57.1084C141.647 52.2273 138.685 47.7921 134.949 44.0561C131.214 40.3201 126.78 37.3565 121.899 35.3346C117.018 33.3127 111.787 32.272 106.504 32.272ZM106.504 109.796C99.1266 109.795 91.9154 107.606 85.7823 103.506C79.6491 99.4057 74.8695 93.5792 72.0477 86.7628C69.226 79.9465 68.4889 72.4465 69.9297 65.2112C71.3705 57.9759 74.9244 51.3304 80.1421 46.1149C85.3598 40.8995 92.0068 37.3484 99.2427 35.9107C106.479 34.4729 113.978 35.2132 120.793 38.0378C127.609 40.8625 133.433 45.6446 137.53 51.7795C141.628 57.9144 143.814 65.1265 143.812 72.5038C143.814 77.4038 142.851 82.2562 140.977 86.7836C139.102 91.311 136.354 95.4246 132.89 98.8895C129.425 102.354 125.311 105.102 120.784 106.976C116.256 108.851 111.404 109.814 106.504 109.812V109.796Z"/></g><g style="mix-blend-mode:multiply" opacity=".2"><path fill="#191326" fill-rule="evenodd" d="M106.5 113.163C128.958 113.163 147.163 94.9576 147.163 72.5C147.163 50.0424 128.958 31.837 106.5 31.837C84.0424 31.837 65.837 50.0424 65.837 72.5C65.837 94.9576 84.0424 113.163 106.5 113.163ZM106.5 116C130.524 116 150 96.5244 150 72.5C150 48.4756 130.524 29 106.5 29C82.4756 29 63 48.4756 63 72.5C63 96.5244 82.4756 116 106.5 116Z" clip-rule="evenodd"/></g></g><defs><linearGradient id="paint0_linear" x1="105.757" x2="92.381" y1="87.774" y2="138.886" gradientUnits="userSpaceOnUse"><stop stop-color="#404042"/><stop offset="1" stop-color="#48484B"/></linearGradient><linearGradient id="paint1_linear" x1="46.567" x2="41.735" y1="105.096" y2="123.129" gradientUnits="userSpaceOnUse"><stop stop-color="#404042"/><stop offset="1" stop-color="#48484B"/></linearGradient><linearGradient id="paint2_linear" x1="73.495" x2="89.09" y1="80.169" y2="164.62" gradientUnits="userSpaceOnUse"><stop stop-color="#404042"/><stop offset="1" stop-color="#48484B"/></linearGradient><linearGradient id="paint3_linear" x1="106.504" x2="106.504" y1="33.841" y2="114.296" gradientUnits="userSpaceOnUse"><stop offset=".3" stop-color="#EFE149"/><stop offset=".38" stop-color="#EFDC47"/><stop offset=".48" stop-color="#F0CD42"/><stop offset=".59" stop-color="#F2B43A"/><stop offset=".7" stop-color="#F5922F"/><stop offset=".82" stop-color="#F86621"/><stop offset=".94" stop-color="#FC310F"/><stop offset="1" stop-color="#FE1406"/></linearGradient><clipPath id="clip0"><rect width="160" height="160" fill="#fff"/></clipPath><clipPath id="clip1"><rect width="87" height="87" fill="#fff" transform="translate(63 29)"/></clipPath></defs></svg>