<svg xmlns="http://www.w3.org/2000/svg" width="96" height="96" fill="none" viewBox="0 0 96 96"><g clip-path="url(#clip0)"><path fill="#606063" d="M28.8272 71.4167C26.9202 78.7035 37.8272 87.8696 53.1886 91.8897C68.5499 95.9098 82.5487 93.2616 84.4557 85.9748C86.3627 78.688 75.4557 69.5219 60.0943 65.5018C44.733 61.4817 30.7342 64.1299 28.8272 71.4167Z"/><path fill="#606063" d="M82.1546 89.5637L91.4078 79.7928L25.7953 62.6218L29.2277 75.7126L82.1546 89.5637Z"/><path fill="#606063" d="M29.9602 64.976L4.84342 58.4028C3.75473 58.1179 2.6475 58.7955 2.40573 59.8946L2.1248 61.1716C1.56499 63.7164 3.07167 66.2601 5.57244 66.9921L30.6596 74.3351L29.9602 64.976Z"/><path fill="url(#paint0_linear)" d="M25.9216 59.2257C23.7054 67.6942 36.9161 78.4866 55.4285 83.3314C73.9409 88.1762 90.7448 85.2386 92.9611 76.7701C95.1773 68.3017 81.9666 57.5092 63.4542 52.6644C44.9417 47.8197 28.1378 50.7573 25.9216 59.2257Z"/><path fill="#606063" fill-rule="evenodd" d="M76.6038 73.9714C80.8627 77.1035 83.3515 80.4912 83.7229 83.4942L85.5093 83.2733C85.0464 79.5305 82.0671 75.7549 77.6702 72.5213C73.2362 69.2606 67.2064 66.4328 60.322 64.6311C53.4376 62.8294 46.7956 62.341 41.3327 63.0117C35.9155 63.6769 31.4687 65.509 29.2317 68.5452L30.6808 69.6129C32.4757 67.1768 36.3049 65.4426 41.5521 64.7983C46.7538 64.1596 53.1648 64.6187 59.8663 66.3725C66.5678 68.1263 72.3818 70.8665 76.6038 73.9714Z" clip-rule="evenodd"/><path fill="#979797" fill-rule="evenodd" d="M34.0406 71.2435C28.8082 66.9688 26.8419 62.8188 27.663 59.6814C28.484 56.5441 32.2312 53.8892 38.8868 52.7257C45.3707 51.5922 53.9337 52.0335 62.9984 54.4058C72.0632 56.7781 79.7446 60.588 84.8421 64.7524C90.0745 69.027 92.0408 73.1771 91.2197 76.3144C90.3986 79.4518 86.6515 82.1066 79.9959 83.2701C73.512 84.4036 64.949 83.9623 55.8842 81.59C46.8195 79.2178 39.1381 75.4079 34.0406 71.2435ZM55.4285 83.3314C36.9161 78.4866 23.7054 67.6942 25.9216 59.2257C28.1378 50.7573 44.9417 47.8197 63.4542 52.6644C81.9666 57.5092 95.1773 68.3017 92.9611 76.7701C90.7448 85.2386 73.9409 88.1762 55.4285 83.3314Z" clip-rule="evenodd"/><path fill="url(#paint1_linear)" fill-rule="evenodd" d="M27.1004 74.4294L24.1383 62.9559L25.8812 62.5059L28.8433 73.9794L27.1004 74.4294Z" clip-rule="evenodd"/><path fill="url(#paint2_linear)" fill-rule="evenodd" d="M26.0816 63.7137C26.0546 63.6248 26.0289 63.536 26.0045 63.4474C25.9595 63.2836 25.9191 63.1202 25.8833 62.9572L25.7983 62.6332C25.797 62.6281 25.8016 62.6235 25.8067 62.6248C25.8115 62.6261 25.8161 62.6219 25.8152 62.6169C25.8143 62.6121 25.8134 62.6072 25.8126 62.6024C25.7841 62.443 25.7601 62.2841 25.7406 62.1256C25.736 62.0875 25.7316 62.0495 25.7274 62.0114C25.6841 61.6135 25.6695 61.2184 25.6848 60.827C25.6848 60.8268 25.6848 60.8265 25.6849 60.8263C25.706 60.2851 25.7842 59.7509 25.9216 59.2257C28.1378 50.7572 44.9417 47.8196 63.4541 52.6644C81.9666 57.5091 95.1773 68.3016 92.961 76.7701C92.8236 77.2953 92.63 77.7993 92.3834 78.2815C92.3833 78.2817 92.3832 78.2819 92.3831 78.2821C92.1167 78.8027 91.7885 79.2978 91.4024 79.7669C91.3992 79.7707 91.396 79.7746 91.3928 79.7785C91.3916 79.7799 91.3911 79.7816 91.3911 79.7832C91.3912 79.7861 91.3932 79.789 91.3964 79.7898C91.3994 79.7906 91.4013 79.7931 91.4016 79.7958C91.4018 79.7978 91.4012 79.7998 91.3997 79.8015L91.0352 80.1863C90.993 80.2318 90.9502 80.2769 90.9069 80.3219L90.1651 81.1051L90.1638 81.1065L83.2762 88.3794C79.1915 93.798 66.7185 95.4303 53.1885 91.8894C39.8069 88.3874 29.8055 80.9804 28.7104 74.3124C28.6544 73.9712 28.4201 73.6802 28.0882 73.5831L6.07638 67.1458C3.59017 66.4187 2.08344 63.8994 2.61902 61.365L2.89448 60.0615C3.12835 58.9548 4.23944 58.2679 5.33398 58.5534L25.8833 63.9123C26.0036 63.9436 26.1131 63.8339 26.0816 63.7137ZM23.8872 61.5315C23.8491 60.6053 23.9419 59.6808 24.1803 58.7699C25.5754 53.4388 31.3383 50.3907 38.2668 49.1795C45.367 47.9382 54.4622 48.4506 63.9099 50.923C73.3575 53.3955 81.5377 57.4042 87.1196 61.9644C92.5666 66.4143 96.0976 71.8947 94.7024 77.2258C94.368 78.5035 93.7709 79.6641 92.962 80.6991C92.8926 80.8183 92.8077 80.9324 92.7066 81.0392L92.354 81.4114C92.352 81.4136 92.35 81.4157 92.348 81.4179C92.3019 81.4674 92.2553 81.5166 92.2082 81.5655C92.2061 81.5677 92.204 81.5698 92.2019 81.572L84.6491 89.5475C82.147 92.7913 77.4336 94.6236 71.9903 95.2812C66.4106 95.9554 59.6801 95.4489 52.7328 93.6308C45.8612 91.8325 39.8039 89.0196 35.2858 85.7457C31.0381 82.6678 27.893 78.9889 27.0401 75.152L5.57114 68.8734C2.18183 67.8822 0.127793 64.4478 0.857912 60.9929L1.13337 59.6894C1.57963 57.5777 3.6997 56.267 5.7882 56.8116L23.8872 61.5315Z" clip-rule="evenodd"/><circle cx="34.2" cy="17.4" r="17.4" fill="#F0B90B"/><path fill="#FFFDFA" d="M27.7109 17.4L25.0487 20.0807L22.368 17.4L25.0487 14.7193L27.7109 17.4ZM34.2 10.9109L38.7849 15.4958L41.4656 12.8151L36.8807 8.24868L34.2 5.56799L31.5194 8.24868L26.9529 12.8151L29.6336 15.4958L34.2 10.9109ZM43.3514 14.7193L40.6892 17.4L43.3698 20.0807L46.032 17.4L43.3514 14.7193ZM34.2 23.8891L29.6151 19.3042L26.9529 21.9849L31.5378 26.5698L34.2 29.232L36.8807 26.5513L41.4656 21.9664L38.7849 19.3042L34.2 23.8891ZM34.2 20.0807L36.8807 17.4L34.2 14.7193L31.5194 17.4L34.2 20.0807Z"/><g style="mix-blend-mode:multiply" opacity=".1"><path fill="#191326" fill-rule="evenodd" d="M34.2001 33C42.8157 33 49.8 26.0156 49.8 17.4C49.8 8.78436 42.8157 1.8 34.2001 1.8C25.5844 1.8 18.6 8.78436 18.6 17.4C18.6 26.0156 25.5844 33 34.2001 33ZM34.2001 34.8C43.8098 34.8 51.6001 27.0098 51.6001 17.4C51.6001 7.79025 43.8098 0 34.2001 0C24.5903 0 16.8 7.79025 16.8 17.4C16.8 27.0098 24.5903 34.8 34.2001 34.8Z" clip-rule="evenodd"/></g><ellipse cx="63.9" cy="43.5" fill="#000" rx="26.1" ry="26.1"/><path fill="#0F0" d="M76.6204 58.4845L66.0961 47.9599C65.9467 47.8105 65.8281 47.6332 65.7473 47.4379C65.6664 47.2427 65.6248 47.0334 65.6248 46.8221C65.6248 46.6108 65.6664 46.4016 65.7473 46.2063C65.8281 46.0111 65.9467 45.8337 66.0961 45.6843L73.9205 37.8601C74.0752 37.7054 74.1622 37.4956 74.1622 37.2767C74.1622 37.0579 74.0753 36.848 73.9206 36.6932C73.7659 36.5385 73.556 36.4515 73.3372 36.4515C73.1184 36.4515 72.9085 36.5384 72.7537 36.6931L57.1027 52.3433C56.7267 52.7213 56.2797 53.0214 55.7874 53.2263C55.2951 53.4312 54.7672 53.5368 54.234 53.5372C53.7008 53.5375 53.1728 53.4325 52.6803 53.2283C52.1877 53.024 51.7404 52.7244 51.3639 52.3468C50.9875 51.9692 50.6893 51.521 50.4865 51.0278C50.2837 50.5346 50.1804 50.0063 50.1823 49.4731C50.1843 48.9399 50.2915 48.4123 50.4979 47.9207C50.7043 47.429 51.0057 46.983 51.385 46.6081L58.0782 39.9543L48.675 30.5506L50.9507 28.275L61.4951 38.8194C61.6448 38.9691 61.7634 39.1469 61.8443 39.3425C61.9252 39.5381 61.9667 39.7478 61.9664 39.9595C61.9661 40.1712 61.924 40.3807 61.8425 40.5761C61.7611 40.7715 61.6419 40.9489 61.4918 41.0982L53.6539 48.8901C53.5761 48.9671 53.5142 49.0586 53.4718 49.1595C53.4295 49.2603 53.4075 49.3686 53.407 49.478C53.4066 49.5874 53.4278 49.6958 53.4694 49.797C53.511 49.8982 53.5722 49.9902 53.6495 50.0677C53.7267 50.1452 53.8185 50.2067 53.9196 50.2486C54.0206 50.2905 54.129 50.3121 54.2384 50.312C54.3478 50.3119 54.4561 50.2903 54.5572 50.2482C54.6582 50.2062 54.7499 50.1446 54.827 50.067L70.4781 34.4173C71.2364 33.6591 72.2648 33.2331 73.3372 33.2331C74.4096 33.2332 75.438 33.6592 76.1962 34.4175C76.9545 35.1758 77.3805 36.2042 77.3804 37.2766C77.3804 38.3489 76.9544 39.3774 76.1961 40.1356L69.5094 46.822L78.8962 56.2087L76.6204 58.4845Z"/><g style="mix-blend-mode:multiply" opacity=".2"><path fill="#191326" fill-rule="evenodd" d="M63.9 67.8979C77.3746 67.8979 88.2979 56.9746 88.2979 43.5C88.2979 30.0255 77.3746 19.1022 63.9 19.1022C50.4255 19.1022 39.5022 30.0255 39.5022 43.5C39.5022 56.9746 50.4255 67.8979 63.9 67.8979ZM63.9 69.6C78.3147 69.6 90 57.9147 90 43.5C90 29.0854 78.3147 17.4 63.9 17.4C49.4854 17.4 37.8 29.0854 37.8 43.5C37.8 57.9147 49.4854 69.6 63.9 69.6Z" clip-rule="evenodd"/></g></g><defs><linearGradient id="paint0_linear" x1="63.454" x2="55.428" y1="52.664" y2="83.331" gradientUnits="userSpaceOnUse"><stop stop-color="#404042"/><stop offset="1" stop-color="#48484B"/></linearGradient><linearGradient id="paint1_linear" x1="27.94" x2="25.041" y1="63.058" y2="73.878" gradientUnits="userSpaceOnUse"><stop stop-color="#404042"/><stop offset="1" stop-color="#48484B"/></linearGradient><linearGradient id="paint2_linear" x1="44.097" x2="53.454" y1="48.101" y2="98.772" gradientUnits="userSpaceOnUse"><stop stop-color="#404042"/><stop offset="1" stop-color="#48484B"/></linearGradient><clipPath id="clip0"><rect width="96" height="96" fill="#fff"/></clipPath></defs></svg>