<svg xmlns="http://www.w3.org/2000/svg" xmlns:v="https://vecta.io/nano" width="186" height="171" fill="none"><g fill="#606063"><path d="M67.045 119.028c-3.178 12.144 15 27.421 40.602 34.121s48.934 2.287 52.112-9.858-15-27.421-40.602-34.122-48.934-2.286-52.112 9.859z"/><path d="M155.924 149.273l15.422-16.285-109.354-28.619 5.721 21.818 88.211 23.086z"/><path d="M68.934 108.293L27.073 97.338c-1.815-.475-3.66.654-4.063 2.486l-.468 2.129a8.26 8.26 0 0 0 5.746 9.7l41.812 12.239-1.166-15.599z"/></g><path fill="url(#A)" d="M62.203 98.71c-3.694 14.114 18.324 32.101 49.178 40.176s58.86 3.178 62.554-10.936-18.324-32.101-49.178-40.176-58.861-3.179-62.554 10.935z"/><g fill-rule="evenodd"><path fill="#606063" d="M146.673 123.286c7.098 5.22 11.246 10.866 11.865 15.871l2.978-.368c-.772-6.238-5.737-12.531-13.066-17.92-7.389-5.435-17.439-10.148-28.913-13.151s-22.544-3.817-31.649-2.699c-9.029 1.109-16.44 4.163-20.168 9.223l2.415 1.779c2.992-4.06 9.373-6.95 18.119-8.024 8.67-1.064 19.354-.299 30.523 2.624s20.859 7.49 27.896 12.665z"/><path fill="#979797" d="M75.734 118.739c-8.721-7.124-11.998-14.041-10.629-19.27s7.614-9.654 18.706-11.593c10.807-1.889 25.078-1.154 40.186 2.8s27.911 10.304 36.406 17.245c8.721 7.124 11.998 14.041 10.63 19.27s-7.614 9.653-18.707 11.593c-10.806 1.889-25.078 1.153-40.186-2.8s-27.91-10.304-36.406-17.245zm35.647 20.147c-30.854-8.075-52.872-26.062-49.178-40.176s31.7-19.01 62.554-10.935 52.872 26.062 49.178 40.176-31.7 19.01-62.554 10.936z"/><path fill="url(#B)" d="M64.167 124.049l-4.937-19.123 2.905-.75 4.937 19.123-2.905.75z"/><path fill="url(#C)" d="M62.469 106.189l-.128-.443-.202-.817-.142-.54c.022-.012.03-.019.028-.027l-.004-.025-.12-.794-.022-.191c-.072-.663-.096-1.321-.071-1.974.035-.903.166-1.793.395-2.668 3.694-14.114 31.7-19.01 62.555-10.936s52.872 26.062 49.178 40.176a12.4 12.4 0 0 1-.963 2.519 13.7 13.7 0 0 1-1.635 2.476l-.016.019c.011.02.014.025.015.029l-.611.651-12.932 13.655c-6.807 9.031-27.596 11.752-50.146 5.85-22.302-5.837-38.971-18.182-40.797-29.295-.093-.569-.484-1.054-1.037-1.215L29.127 111.91a8.26 8.26 0 0 1-5.762-9.635l.459-2.172c.39-1.845 2.242-2.99 4.066-2.514l34.249 8.931a.27.27 0 0 0 .331-.331zm-3.657-3.636c-.064-1.544.091-3.085.488-4.603 2.325-8.885 11.93-13.965 23.478-15.984 11.834-2.069 26.992-1.215 42.738 2.906s29.38 10.802 38.683 18.402c9.078 7.417 14.963 16.551 12.638 25.436-.557 2.129-1.552 4.064-2.901 5.789a3.08 3.08 0 0 1-.425.566l-13.429 14.181c-4.171 5.406-12.026 8.46-21.098 9.556-9.3 1.124-20.517.28-32.096-2.751-11.453-2.997-21.548-7.685-29.079-13.141-7.079-5.13-12.321-11.262-13.743-17.657l-35.782-10.464a11.26 11.26 0 0 1-7.855-13.134l.459-2.173c.744-3.519 4.277-5.704 7.758-4.796l30.165 7.867z"/></g><circle cx="76" cy="29" r="29" fill="#f0b90b"/><path fill="#fffdfa" d="M65.185 29l-4.437 4.468L56.28 29l4.468-4.468L65.185 29zM76 18.185l7.642 7.642 4.468-4.468-7.641-7.611L76 9.28 63.921 21.358l4.468 4.468L76 18.185zm15.252 6.347L86.815 29l4.468 4.468L95.72 29l-4.468-4.468zM76 39.815l-7.641-7.642-4.437 4.468L76 48.72l12.109-12.109-4.468-4.437L76 39.815zm0-6.347L80.468 29 76 24.532 71.532 29 76 33.468z"/><circle cx="76" cy="29" r="27.5" stroke="#191326" stroke-width="3" opacity=".1" style="mix-blend-mode:multiply"/><g clip-path="url(#D)"><circle cx="125.499" cy="72.5" r="43.5" fill="#ff2d83" transform="rotate(90 125.499 72.5)"/><g fill="#fffdfa"><path d="M138.185 85.958c5.393.362 10.286-2.356 12.915-7.159 1.042-1.948 1.314-3.081 1.45-5.845.09-2.13-.091-3.987-.499-5.03-2.356-6.162-8.337-9.969-14.5-9.334-4.531.453-7.794 2.809-11.962 8.655l-1.269 1.769 4.96-.045s.818-.701 1.746-1.905c2.628-3.444 6.117-4.848 9.878-4.033 7.477 1.677 10.15 10.648 4.803 16.041-2.537 2.492-6.751 3.625-9.515 2.538-.997-.363-.68-.68 1.178-1.133a14.15 14.15 0 0 0 2.356-.725c1.042-.408 1.088-.544.634-1.903-.271-.816-.634-1.677-.815-1.858-.272-.272-11.6 2.583-12.144 3.081-.091.091.77 2.764 1.858 5.981l2.039 5.8 1.405-.091c2.492-.091 2.854-.77 1.812-3.398-.815-2.13-.815-2.266-.09-1.949.453.227 2.129.453 3.76.544zm-31.764-11.193h35.843v-4.078l-17.763.091-17.808.136-.136 1.948-.136 1.903zm10.014 9.697c1.541-.861 3.399-2.492 4.849-4.305 1.314-1.586 2.401-3.444 2.401-3.444l-4.6-.136s0 .024-1.925 1.948c-4.078 4.214-9.243 4.622-13.276 1.087-3.988-3.489-4.441-10.059-.906-13.82 2.492-2.719 7.204-3.761 10.014-2.266l1.314.68-2.855.272c-1.586.181-2.945.408-3.081.498-.091.136-.045 1.042.136 2.039.272 1.541.498 1.858 1.314 1.858 1.223 0 10.694-1.314 11.419-1.541.362-.136.136-2.084-.771-6.48l-1.314-6.389c0-.091-.362-.045-.77.045-.453.136-1.405.362-2.084.498-1.36.317-1.36.272-.454 4.214l.227.997-2.447-.952c-5.891-2.22-13.412 1.223-16.267 7.477-1.042 2.402-1.133 7.477-.136 10.422.906 2.719 3.58 5.664 6.57 7.341 2.175 1.223 2.855 1.359 6.299 1.359 3.489 0 4.078-.136 6.343-1.405z"/></g></g><circle cx="125.5" cy="72.5" r="42.082" stroke="#191326" stroke-width="2.837" opacity=".2" style="mix-blend-mode:multiply"/><defs><linearGradient id="A" x1="124.757" x2="111.381" y1="87.774" y2="138.886" gradientUnits="userSpaceOnUse"><stop stop-color="#404042"/><stop offset="1" stop-color="#48484b"/></linearGradient><linearGradient id="B" x1="65.567" x2="60.735" y1="105.096" y2="123.129" gradientUnits="userSpaceOnUse"><stop stop-color="#404042"/><stop offset="1" stop-color="#48484b"/></linearGradient><linearGradient id="C" x1="92.495" x2="108.09" y1="80.169" y2="164.62" gradientUnits="userSpaceOnUse"><stop stop-color="#404042"/><stop offset="1" stop-color="#48484b"/></linearGradient><clipPath id="D"><path fill="#fff" d="M0 0h87v87H0z" transform="translate(82 29)"/></clipPath></defs></svg>