<svg xmlns="http://www.w3.org/2000/svg" width="40" height="40" fill="none" viewBox="0 0 40 40"><rect width="40" height="40" fill="#F35E79" rx="20"/><path fill="#000" d="M20.0001 13.99L27.5301 27H12.4701L20.0001 13.99ZM10.7401 26C9.97012 27.33 10.9301 29 12.4701 29H27.5301C29.0701 29 30.0301 27.33 29.2601 26L21.7301 12.99C20.9601 11.66 19.0401 11.66 18.2701 12.99L10.7401 26ZM19.0001 19V21C19.0001 21.55 19.4501 22 20.0001 22C20.5501 22 21.0001 21.55 21.0001 21V19C21.0001 18.45 20.5501 18 20.0001 18C19.4501 18 19.0001 18.45 19.0001 19ZM19.0001 24H21.0001V26H19.0001V24Z"/></svg>