<svg xmlns="http://www.w3.org/2000/svg" width="16" height="16" fill="none" viewBox="0 0 16 16"><path fill="#280D5F" d="M7.99975 3.99329L13.0198 12.6666H2.97976L7.99975 3.99329ZM1.82642 12C1.31309 12.8866 1.95309 14 2.97976 14H13.0198C14.0464 14 14.6864 12.8866 14.1731 12L9.15309 3.32662C8.63975 2.43995 7.35976 2.43995 6.84642 3.32662L1.82642 12ZM7.33309 7.33329V8.66662C7.33309 9.03329 7.63309 9.33329 7.99975 9.33329C8.36642 9.33329 8.66642 9.03329 8.66642 8.66662V7.33329C8.66642 6.96662 8.36642 6.66662 7.99975 6.66662C7.63309 6.66662 7.33309 6.96662 7.33309 7.33329ZM7.33309 10.6666H8.66642V12H7.33309V10.6666Z"/></svg>