<svg xmlns="http://www.w3.org/2000/svg" width="40" height="40" fill="none" viewBox="0 0 40 40"><rect width="40" height="40" fill="#1BC59C" rx="20"/><path fill="#000" fill-rule="evenodd" d="M21.7803 10.8231C22.0732 11.116 22.0732 11.5908 21.7803 11.8837L20.8107 12.8534L22.0307 14.0734H28C28.4565 14.0734 28.8786 14.2284 29.2161 14.4884C29.7147 14.853 30.04 15.442 30.04 16.1034V20.8634C29.32 20.3834 28.47 20.1034 27.54 20.1034C25.23 20.1034 23.34 21.8634 23.09 24.1034H19.95L19.9545 24.0734H19.91C19.96 23.7434 20 23.4134 20 23.0734C20 21.5334 19.41 20.1334 18.46 19.0734H19C20.1 19.0734 21 18.1734 21 17.0734V15.1641L19.75 13.9141L18.7803 14.8837C18.4874 15.1766 18.0126 15.1766 17.7197 14.8837C17.4268 14.5908 17.4268 14.116 17.7197 13.8231L20.7197 10.8231C21.0126 10.5302 21.4874 10.5302 21.7803 10.8231ZM19 23.1034C19 25.8648 16.7614 28.1034 14 28.1034C11.2386 28.1034 9 25.8648 9 23.1034C9 20.342 11.2386 18.1034 14 18.1034C16.7614 18.1034 19 20.342 19 23.1034ZM17 23.1034C17 24.7602 15.6569 26.1034 14 26.1034C12.3431 26.1034 11 24.7602 11 23.1034C11 21.4465 12.3431 20.1034 14 20.1034C15.6569 20.1034 17 21.4465 17 23.1034ZM24 24.5734C24 22.6434 25.57 21.0734 27.5 21.0734C29.43 21.0734 31 22.6434 31 24.5734C31 26.5034 29.43 28.0734 27.5 28.0734C25.57 28.0734 24 26.5034 24 24.5734ZM26 24.5734C26 25.4034 26.67 26.0734 27.5 26.0734C28.33 26.0734 29 25.4034 29 24.5734C29 23.7434 28.33 23.0734 27.5 23.0734C26.67 23.0734 26 23.7434 26 24.5734ZM17 17.0734H12C11.45 17.0734 11 16.6334 11 16.0734C11 15.5234 11.45 15.0734 12 15.0734H15C16.1 15.0734 17 15.9734 17 17.0734ZM21.5 20.1034L22 21.6034C22.3333 20.7701 23.4475 19.805 24.5 19.1034C26 18.1034 27.3333 18.1034 28 18.1034V16.1034H23C23.1667 16.9367 23.1 18.9034 21.5 20.1034Z" clip-rule="evenodd"/></svg>