<svg xmlns="http://www.w3.org/2000/svg" width="40" height="40" fill="none" viewBox="0 0 40 40"><path fill="#F4EEFF" d="M38.1428 14.3261C38.5441 14.7274 38.5995 15.359 38.274 15.824C32.3192 24.3319 24.9558 31.7608 16.5009 37.7906L15.8332 38.2668C15.3436 38.616 14.6734 38.5603 14.2481 38.135L11.2424 35.1293C13.0167 33.292 12.9972 30.3641 11.1839 28.5507C9.37054 26.7374 6.44264 26.7179 4.60534 28.4922L1.84058 25.7275C1.31481 25.2017 1.38731 24.3296 1.99268 23.8979L2.66078 23.4214C10.9112 17.5373 18.0967 10.288 23.9075 1.98578C24.3145 1.40424 25.148 1.33124 25.6499 1.83316L28.4638 4.64705C26.6961 6.48478 26.7178 9.40765 28.5289 11.2187C30.34 13.0298 33.2628 13.0515 35.1006 11.2838L38.1428 14.3261Z"/><path fill="#B8ADD2" d="M39.4753 15.1573L28.7295 28.7643L14.8307 39.2851L12.1578 36.5929L11.1934 35.4238L12.1578 34.0285L12.4957 32.6331L12.3097 31.1448L11.7516 29.7494L10.8213 28.6331L9.70504 27.889L8.49574 27.5169H7.00737L5.42597 28.075L4.49574 28.9122L2.26318 26.2145L5.89492 25.6729C17.1594 23.9929 27.8026 19.4447 36.8024 12.4651L39.4753 15.1573Z"/><path fill="#633001" fill-rule="evenodd" d="M9.88618 35.2599C9.8866 34.8646 10.0442 34.4857 10.3243 34.2068L10.3293 34.2019C11.5811 32.9501 11.5811 30.9205 10.3293 29.6687C9.07749 28.4169 7.04792 28.4169 5.79611 29.6687L5.79117 29.6736C5.51225 29.9537 5.13337 30.1114 4.73809 30.1118C4.3428 30.1122 3.96359 29.9554 3.68408 29.6759L0.788282 26.7801C-0.388141 25.6036 -0.225924 23.6523 1.12861 22.6862L1.79671 22.2098L2.66092 23.4215L1.99282 23.898C1.38745 24.3297 1.31495 25.2019 1.84072 25.7276L4.73652 28.6234L4.74368 28.6163C4.74596 28.614 4.74824 28.6117 4.75053 28.6094C6.58412 26.7832 9.55096 26.7855 11.3817 28.6163C13.2123 30.4469 13.2148 33.4134 11.389 35.247C11.3866 35.2495 11.3841 35.2519 11.3817 35.2543L11.3746 35.2615L14.2483 38.1352C14.6735 38.5604 15.3438 38.6161 15.8334 38.2669L16.5011 37.7908C24.9559 31.7609 32.3194 24.332 38.2741 15.8241C38.5996 15.3591 38.5443 14.7276 38.1429 14.3262L35.1244 11.3076C35.1134 11.3188 35.1024 11.3299 35.0913 11.341C35.0802 11.3521 35.069 11.3632 35.0578 11.3742C33.2222 13.174 30.2752 13.163 28.4532 11.341C26.6313 9.51907 26.6202 6.57192 28.4202 4.73635C28.4311 4.72519 28.4421 4.71407 28.4532 4.70299C28.4643 4.69189 28.4755 4.68086 28.4866 4.6699L25.65 1.83331C25.1481 1.33139 24.3147 1.40439 23.9077 1.98592C18.0968 10.2881 10.9114 17.5375 2.66092 23.4215L1.79671 22.2098C9.90926 16.4241 16.9746 9.2959 22.6883 1.13247C23.626 -0.207302 25.5461 -0.375482 26.7025 0.780871L29.5391 3.61746C29.82 3.89837 29.9769 4.27993 29.975 4.67719C29.973 5.07445 29.8124 5.45445 29.5287 5.7326C29.521 5.74014 29.5133 5.74775 29.5057 5.75542C28.2539 7.00723 28.2539 9.0368 29.5057 10.2886C30.7575 11.5404 32.787 11.5404 34.0388 10.2886C34.0464 10.281 34.054 10.2733 34.0617 10.2655C34.3398 9.9819 34.7198 9.82122 35.1171 9.81927C35.5143 9.81733 35.8959 9.97428 36.1768 10.2552L39.1954 13.2738C40.1074 14.1858 40.2331 15.6209 39.4935 16.6776C33.4416 25.3243 25.9581 32.8744 17.3653 39.0025L16.6976 39.4787C15.6159 40.2501 14.1352 40.127 13.1958 39.1876L10.3221 36.3139C10.0426 36.0344 9.88577 35.6552 9.88618 35.2599Z" clip-rule="evenodd"/><path fill="#633001" fill-rule="evenodd" d="M19.9944 7.03334L20.6522 7.69112C20.9428 7.98174 20.9428 8.45293 20.6522 8.74356C20.3616 9.03418 19.8904 9.03418 19.5998 8.74356L18.942 8.08578C18.6514 7.79516 18.6514 7.32397 18.942 7.03334C19.2326 6.74272 19.7038 6.74272 19.9944 7.03334Z" clip-rule="evenodd"/><path fill="#633001" fill-rule="evenodd" d="M22.7571 9.79604L23.4149 10.4538C23.7055 10.7444 23.7055 11.2156 23.4149 11.5063C23.1243 11.7969 22.6531 11.7969 22.3625 11.5063L21.7047 10.8485C21.4141 10.5579 21.4141 10.0867 21.7047 9.79604C21.9953 9.50542 22.4665 9.50542 22.7571 9.79604Z" clip-rule="evenodd"/><path fill="#633001" fill-rule="evenodd" d="M26.1771 14.2687C25.8865 14.5593 25.4153 14.5593 25.1247 14.2687L24.3353 13.4794C24.0447 13.1888 24.0447 12.7176 24.3353 12.4269C24.626 12.1363 25.0971 12.1363 25.3878 12.4269L26.1771 13.2163C26.4677 13.5069 26.4677 13.9781 26.1771 14.2687Z" clip-rule="evenodd"/><path fill="#633001" fill-rule="evenodd" d="M28.9398 17.0314C28.6492 17.322 28.178 17.322 27.8874 17.0314L27.098 16.2421C26.8074 15.9514 26.8074 15.4803 27.098 15.1896C27.3886 14.899 27.8598 14.899 28.1505 15.1896L28.9398 15.979C29.2304 16.2696 29.2304 16.7408 28.9398 17.0314Z" clip-rule="evenodd"/><path fill="#633001" fill-rule="evenodd" d="M30.9134 17.9523L31.5711 18.6101C31.8618 18.9007 31.8618 19.3719 31.5711 19.6625C31.2805 19.9531 30.8093 19.9531 30.5187 19.6625L29.8609 19.0047C29.5703 18.7141 29.5703 18.2429 29.8609 17.9523C30.1516 17.6617 30.6227 17.6617 30.9134 17.9523Z" clip-rule="evenodd"/><path fill="#633001" fill-rule="evenodd" d="M33.6761 20.715L34.3338 21.3728C34.6245 21.6634 34.6245 22.1346 34.3338 22.4252C34.0432 22.7158 33.572 22.7158 33.2814 22.4252L32.6236 21.7674C32.333 21.4768 32.333 21.0056 32.6236 20.715C32.9142 20.4244 33.3854 20.4244 33.6761 20.715Z" clip-rule="evenodd"/><path fill="#633001" fill-rule="evenodd" d="M16.1458 18.5644C15.3463 17.765 15.3463 16.4689 16.1458 15.6695C17.0516 14.7636 18.5576 14.903 19.2818 15.9598L21.1053 18.6208C22.6969 18.1102 24.386 18.178 25.5052 19.2972C26.5113 20.3033 26.664 21.786 26.323 23.1991C25.978 24.628 25.1058 26.1332 23.8234 27.4157C22.5409 28.6982 21.0357 29.5704 19.6067 29.9153C18.1937 30.2564 16.711 30.1037 15.7049 29.0976C14.5921 27.9848 14.5189 26.3084 15.0194 24.726L12.347 22.8946C11.2902 22.1704 11.1508 20.6645 12.0567 19.7586C12.8561 18.9591 14.1522 18.9591 14.9516 19.7586L16.8033 21.6103C16.9867 21.3954 17.1813 21.1846 17.3867 20.9791C17.5852 20.7806 17.7886 20.5924 17.9959 20.4146L16.1458 18.5644Z" clip-rule="evenodd"/><ellipse cx="18.451" cy="25.285" fill="#F4EEFF" rx=".895" ry="1.302" transform="rotate(-45 18.451 25.2845)"/><ellipse cx="21.788" cy="21.947" fill="#F4EEFF" rx=".895" ry="1.302" transform="rotate(-45 21.7879 21.9471)"/></svg>