<svg xmlns="http://www.w3.org/2000/svg" width="40" height="41" fill="none" viewBox="0 0 40 41"><rect width="40" height="40" y=".5" fill="url(#paint0_linear_337_4465)" rx="20"/><path fill="#000" d="M11.1878 14.1844C10.4504 14.0261 10.4504 12.974 11.1878 12.8156L13.3208 12.3576C13.5901 12.2998 13.8004 12.0894 13.8582 11.8202L14.3163 9.68719C14.4746 8.94981 15.5267 8.94981 15.6851 9.68719L16.1431 11.8202C16.2009 12.0895 16.4113 12.2998 16.6805 12.3576L18.8135 12.8156C19.5509 12.974 19.5509 14.0261 18.8135 14.1844L16.6805 14.6425C16.4112 14.7003 16.2009 14.9106 16.1431 15.1799L15.6851 17.3129C15.5267 18.0503 14.4746 18.0503 14.3163 17.3129L13.8582 15.1799C13.8004 14.9106 13.5901 14.7003 13.3208 14.6425L11.1878 14.1844Z"/><path fill="#000" fill-rule="evenodd" d="M20.0005 11.5C23.8665 11.5 27.0005 14.6341 27.0005 18.5C27.0005 22.366 23.8665 25.5 20.0005 25.5C16.1345 25.5 13.0005 22.366 13.0005 18.5C13.0005 17.9478 12.5528 17.5 12.0005 17.5C11.4482 17.5 11.0005 17.9478 11.0005 18.5C11.0005 21.3895 12.3621 23.9609 14.4787 25.6076L13.5863 26.5C13.2112 26.8751 13.0005 27.3838 13.0005 27.9143V30C13.0005 30.8285 13.6721 31.5 14.5005 31.5H25.5005C26.3289 31.5 27.0005 30.8285 27.0005 30V27.9143C27.0005 27.3838 26.7898 26.8751 26.4147 26.5L25.5223 25.6076C27.6389 23.9609 29.0005 21.3895 29.0005 18.5C29.0005 13.5295 24.9711 9.50005 20.0005 9.50005C19.4482 9.50005 19.0005 9.94776 19.0005 10.5C19.0005 11.0523 19.4482 11.5 20.0005 11.5ZM20.0005 27.5C18.6569 27.5 17.382 27.2056 16.237 26.6778L15.0005 27.9143L15.0005 29.5H25.0005V27.9143L23.764 26.6778C22.6189 27.2056 21.3441 27.5 20.0005 27.5Z" clip-rule="evenodd"/><defs><linearGradient id="paint0_linear_337_4465" x1="20" x2="20" y1=".5" y2="40.5" gradientUnits="userSpaceOnUse"><stop stop-color="#CBD7EF"/><stop offset="1" stop-color="#9A9FD0"/></linearGradient></defs></svg>