<svg xmlns="http://www.w3.org/2000/svg" width="40" height="40" fill="none" viewBox="0 0 40 40"><path fill="#633001" d="M11.1801 29.5013C11.7885 28.9035 12.6597 28.6571 13.4911 28.8477L16.2956 29.4908C18.8573 30.0782 21.5183 30.0811 24.0812 29.4993L26.963 28.845C27.7953 28.6561 28.6665 28.9048 29.2737 29.5047L32.0506 32.2487C33.4795 33.6607 32.7438 36.0961 30.7721 36.4808L26.4313 37.3276C22.3212 38.1295 18.095 38.1295 13.9849 37.3276L9.6597 36.4838C7.68493 36.0985 6.95107 33.6572 8.38614 32.2469L11.1801 29.5013Z"/><path fill="#D1884F" stroke="#633001" d="M11.8373 29.5904C12.3015 29.1452 12.927 28.9594 13.5306 29.0752L17.066 29.7534C19.1822 30.1594 21.35 30.163 23.4673 29.7642L27.0996 29.08C27.7236 28.9625 28.3693 29.1672 28.8352 29.6445L31.2144 32.0816C31.9473 32.8324 31.5182 34.0993 30.5919 34.2585L25.6847 35.102C22.1125 35.716 18.468 35.6865 14.905 35.0148L10.0154 34.093C9.08009 33.9167 8.67715 32.6212 9.43854 31.891L11.8373 29.5904Z"/><ellipse cx="20.787" cy="29.867" fill="#633001" rx="7.917" ry="1.667" transform="rotate(15 20.7868 29.8669)"/><ellipse cx="7.917" cy="1.667" fill="#633001" rx="7.917" ry="1.667" transform="matrix(-0.965926 0.258819 0.258819 0.965926 26.5439 26.208)"/><path fill="url(#paint0_linear_628_6448)" d="M24.7316 1.45825C22.9132 1.45825 21.4392 2.91793 21.4392 4.71852L21.4392 7.98087C20.5241 7.88402 19.6145 7.87986 18.723 7.96157V4.71854C18.723 2.91795 17.2489 1.45827 15.4306 1.45827C13.3701 1.45827 11.8159 3.3113 12.1942 5.31704L13.0379 9.79108C10.4079 11.3482 8.37322 13.7884 7.50235 16.8069C5.65423 23.2126 9.74739 29.7969 16.6447 31.5133C23.542 33.2297 30.6315 29.4283 32.4797 23.0225C33.959 17.8951 31.6316 12.6532 27.1065 9.88508L27.968 5.31701C28.3463 3.31128 26.7921 1.45825 24.7316 1.45825Z"/><path fill="#F4EEFF" fill-opacity=".5" d="M24.7316 1.45825C22.9132 1.45825 21.4392 2.91793 21.4392 4.71852L21.4392 7.98087C20.5241 7.88402 19.6145 7.87986 18.723 7.96157V4.71854C18.723 2.91795 17.2489 1.45827 15.4306 1.45827C13.3701 1.45827 11.8159 3.3113 12.1942 5.31704L13.0379 9.79108C10.4079 11.3482 8.37322 13.7884 7.50235 16.8069C5.65423 23.2126 9.74739 29.7969 16.6447 31.5133C23.542 33.2297 30.6315 29.4283 32.4797 23.0225C33.959 17.8951 31.6316 12.6532 27.1065 9.88508L27.968 5.31701C28.3463 3.31128 26.7921 1.45825 24.7316 1.45825Z"/><path fill="url(#paint1_linear_628_6448)" fill-rule="evenodd" d="M31.9384 15.8447C31.2599 23.2224 25.0546 28.9999 17.4999 28.9999C14.2211 28.9999 11.1965 27.9117 8.76758 26.0766C10.4446 28.5118 13.0679 30.3952 16.3112 31.2023C23.2085 32.9187 30.2981 29.1173 32.1462 22.7116C32.8235 20.3638 32.7028 17.992 31.9384 15.8447Z" clip-rule="evenodd"/><path fill="#B8ADD2" fill-rule="evenodd" d="M31.9384 15.8447C31.2599 23.2224 25.0546 28.9999 17.4999 28.9999C14.2211 28.9999 11.1965 27.9117 8.76758 26.0766C10.4446 28.5118 13.0679 30.3952 16.3112 31.2023C23.2085 32.9187 30.2981 29.1173 32.1462 22.7116C32.8235 20.3638 32.7028 17.992 31.9384 15.8447Z" clip-rule="evenodd"/><path fill="#FCC631" d="M7.00591 5.86222C7.30804 5.68571 7.64778 6.02545 7.47127 6.32758L6.52137 7.95351C6.45942 8.05953 6.45942 8.19071 6.52137 8.29673L7.47127 9.92265C7.64778 10.2248 7.30804 10.5645 7.00591 10.388L5.37998 9.43811C5.27396 9.37617 5.14278 9.37617 5.03676 9.43811L3.41083 10.388C3.1087 10.5645 2.76896 10.2248 2.94547 9.92266L3.89537 8.29673C3.95732 8.19071 3.95732 8.05953 3.89537 7.95351L2.94547 6.32758C2.76896 6.02545 3.1087 5.68571 3.41083 5.86222L5.03676 6.81212C5.14278 6.87406 5.27396 6.87406 5.37998 6.81212L7.00591 5.86222Z"/><path fill="#fff" d="M14.7153 4.82602C13.9321 5.4732 13.7216 4.15845 14.44 3.44003C15.1584 2.7216 16.4732 2.93209 15.826 3.7153C15.6606 3.91544 15.4843 4.10958 15.297 4.2969C15.1096 4.48424 14.9155 4.66061 14.7153 4.82602Z"/><path fill="#fff" d="M23.7515 5.47241C22.6093 6.3488 22.3023 4.56841 23.35 3.59555C24.3977 2.62267 26.3151 2.90771 25.3713 3.96831C25.1301 4.23934 24.8729 4.50223 24.5997 4.75589C24.3265 5.00958 24.0434 5.24842 23.7515 5.47241Z"/><path fill="#633001" d="M17.2918 17.8128C17.2918 19.136 16.8908 20.2087 15.6252 20.2087C14.3595 20.2087 13.9585 19.136 13.9585 17.8128C13.9585 16.4896 14.3595 15.417 15.6252 15.417C16.8908 15.417 17.2918 16.4896 17.2918 17.8128Z"/><path fill="#633001" d="M25.625 17.8128C25.625 19.136 25.249 20.2087 24.0625 20.2087C22.876 20.2087 22.5 19.136 22.5 17.8128C22.5 16.4896 22.876 15.417 24.0625 15.417C25.249 15.417 25.625 16.4896 25.625 17.8128Z"/><path fill="#fff" d="M15.02 10.1603C15.9327 9.76419 16.1208 11.0183 15.2719 11.5374C14.4246 12.0555 13.6137 12.6649 12.858 13.3642C11.9351 14.2182 11.157 15.1483 10.5266 16.1231C9.99599 16.9436 8.76269 16.762 9.15701 15.868C9.7281 14.5731 10.5815 13.3599 11.7172 12.309C12.7047 11.3953 13.8247 10.6791 15.02 10.1603Z"/><path stroke="#633001" stroke-linejoin="round" stroke-width="1.5" d="M24.7316 1.45801C22.9132 1.45801 21.4392 2.91768 21.4392 4.71828L21.4392 7.98062C20.5241 7.88377 19.6145 7.87962 18.723 7.96133V4.7183C18.723 2.9177 17.2489 1.45803 15.4306 1.45803C13.3701 1.45803 11.8159 3.31106 12.1942 5.31679L13.0379 9.79083C10.4079 11.3479 8.37322 13.7881 7.50235 16.8066C5.65423 23.2123 9.74739 29.7966 16.6447 31.513C23.542 33.2294 30.6315 29.428 32.4797 23.0223C33.959 17.8948 31.6316 12.653 27.1065 9.88484L27.968 5.31677C28.3463 3.31103 26.7921 1.45801 24.7316 1.45801Z"/><path fill="#D1884F" d="M11.875 32.7736C17.2458 31.7981 22.7542 31.7981 28.125 32.7736V33.3337H11.875V32.7736Z"/><defs><linearGradient id="paint0_linear_628_6448" x1="13" x2="27" y1="3" y2="32" gradientUnits="userSpaceOnUse"><stop stop-color="#B8ADD2"/><stop offset="1" stop-color="#F4EEFF"/></linearGradient><linearGradient id="paint1_linear_628_6448" x1="19.657" x2="19.657" y1="14.6" y2="31.615" gradientUnits="userSpaceOnUse"><stop stop-color="#B8ADD2"/><stop offset="1" stop-color="#F4EEFF"/></linearGradient></defs></svg>