<svg xmlns="http://www.w3.org/2000/svg" width="40" height="40" fill="none" viewBox="0 0 40 40"><rect width="40" height="40" fill="#FCC631" rx="20"/><path fill="#000" d="M23.9995 25.01V19C23.9995 18.45 23.5495 18 22.9995 18C22.4495 18 21.9995 18.45 21.9995 19V25.01H20.2095C19.7595 25.01 19.5395 25.55 19.8595 25.86L22.6495 28.64C22.8495 28.83 23.1595 28.83 23.3595 28.64L26.1495 25.86C26.4695 25.55 26.2395 25.01 25.7995 25.01H23.9995ZM16.6495 11.35L13.8595 14.14C13.5395 14.45 13.7595 14.99 14.2095 14.99H15.9995V21C15.9995 21.55 16.4495 22 16.9995 22C17.5495 22 17.9995 21.55 17.9995 21V14.99H19.7895C20.2395 14.99 20.4595 14.45 20.1395 14.14L17.3495 11.35C17.1595 11.16 16.8395 11.16 16.6495 11.35Z"/></svg>