<svg xmlns="http://www.w3.org/2000/svg" width="40" height="41" fill="none" viewBox="0 0 40 41"><rect width="40" height="40" y=".5" fill="#FF9D00" rx="20"/><path fill="#000" d="M25.09 13.06C24.39 12.03 23.59 11.07 22.69 10.21C22.34 9.86996 21.75 10.19 21.85 10.67C22.04 11.61 22.24 12.85 22.24 13.96C22.24 16.02 20.89 17.69 18.83 17.69C17.29 17.69 16.03 16.76 15.48 15.43C15.38 15.23 15.34 15.11 15.28 14.89C15.17 14.47 14.62 14.34 14.38 14.71C14.2 14.98 14.03 15.25 13.87 15.54C12.68 17.58 12 19.96 12 22.5C12 26.92 15.58 30.5 20 30.5C24.42 30.5 28 26.92 28 22.5C28 19.01 26.92 15.77 25.09 13.06ZM19.71 27.5C17.93 27.5 16.49 26.1 16.49 24.36C16.49 22.74 17.54 21.6 19.3 21.24C20.77 20.94 22.28 20.31 23.33 19.32C23.61 19.06 24.07 19.18 24.15 19.55C24.38 20.57 24.5 21.63 24.5 22.7C24.51 25.35 22.36 27.5 19.71 27.5Z"/></svg>