<svg xmlns="http://www.w3.org/2000/svg" width="1152" height="236" fill="none" viewBox="0 0 1152 236"><g clip-path="url(#clip0)"><rect width="1152" height="236" fill="url(#paint0_linear)"/><g style="mix-blend-mode:soft-light" opacity=".2"><path fill="#fff" d="M0 77.1653C0 77.1653 43.1392 32.398 132.443 -91.7735L340 -157L227.798 -32.2232C249.793 -35.9862 275.29 -40.8428 304.017 -47.0962C304.017 -47.0962 131.52 137.963 30.3773 228C57.9075 153.78 83.4395 91.1969 101.933 47.5071C77.1653 54.7431 44.1092 64.3677 0 77.1653Z"/></g><g style="mix-blend-mode:soft-light" opacity=".2"><path fill="#fff" d="M588 77.1653C588 77.1653 631.139 32.398 720.443 -91.7735L928 -157L815.798 -32.2232C837.793 -35.9862 863.29 -40.8428 892.017 -47.0962C892.017 -47.0962 719.52 137.963 618.377 228C645.908 153.78 671.439 91.1969 689.933 47.5071C665.165 54.7431 632.109 64.3677 588 77.1653Z"/></g><g style="mix-blend-mode:soft-light" opacity=".2"><path fill="#fff" d="M169 241.267C169 241.267 219.118 189.407 322.868 45.5611L564 -30L433.648 114.547C459.201 110.187 488.822 104.561 522.196 97.3171C522.196 97.3171 321.796 311.697 204.291 416C236.275 330.02 265.937 257.522 287.422 206.91C258.648 215.292 220.244 226.442 169 241.267Z"/></g><g style="mix-blend-mode:soft-light" opacity=".2"><path fill="#fff" d="M758 241.267C758 241.267 807.991 189.407 911.479 45.5611L1152 -30L1021.98 114.547C1047.47 110.187 1077.01 104.561 1110.3 97.3171C1110.3 97.3171 910.409 311.697 793.202 416C825.105 330.02 854.692 257.522 876.122 206.91C847.421 215.292 809.115 226.442 758 241.267Z"/></g></g><defs><linearGradient id="paint0_linear" x1="576" x2="576" y1="0" y2="236" gradientUnits="userSpaceOnUse"><stop stop-color="#53DEE9"/><stop offset="1" stop-color="#efb239"/></linearGradient><clipPath id="clip0"><rect width="1152" height="236" fill="#fff"/></clipPath></defs></svg>