<svg xmlns="http://www.w3.org/2000/svg" width="1152" height="236" fill="none" viewBox="0 0 1152 236"><g clip-path="url(#clip0)"><rect width="1152" height="236" fill="url(#paint0_linear)"/><g style="mix-blend-mode:screen" opacity=".2"><path fill="url(#paint1_linear)" d="M113.121 39C95.9219 144.274 20.4155 195.902 37.7065 276.075C56.366 362.595 124.077 402.798 202.655 386.103C281.233 369.408 346.406 285.562 302.797 208.543C265.319 142.352 213.71 161.32 176.087 89.7622C176.087 89.7622 161.364 122.689 182.433 158.737C182.433 158.737 142.411 139.105 113.121 39Z"/></g><g style="mix-blend-mode:screen" opacity=".2"><path fill="url(#paint2_linear)" d="M287.334 14C202.312 125.298 168.111 173.94 177.566 263.219C187.77 359.563 256.77 411.228 344.242 402.234C431.714 393.241 512.439 309.597 473.97 220.678C440.911 144.261 382.527 158.877 349.936 76.6021C349.936 76.6021 330.066 110.719 348.787 152.414C348.787 152.414 307.521 126.372 287.334 14Z"/></g><g style="mix-blend-mode:screen" opacity=".2"><path fill="url(#paint3_linear)" d="M82.9051 27C-5.39904 122.214 -116.742 123.764 -153.165 216.731C-192.471 317.056 -150.845 403.413 -59.8977 439.366C31.0493 475.319 153.596 434.132 161.198 326.651C167.731 234.282 102.613 218.786 112.611 120.874C112.611 120.874 75.5139 144.366 72.6236 195.114C72.6236 195.114 45.2393 148.261 82.9051 27Z"/></g><g style="mix-blend-mode:screen" opacity=".2"><path fill="url(#paint4_linear)" d="M248.943 62.2723C317.837 143.71 409.144 149.151 435.551 226.801C464.047 310.597 426.656 379.9 350.68 405.996C274.705 432.093 175.689 393.707 173.476 305.226C171.574 229.185 225.589 218.909 221.051 138.191C221.051 138.191 250.613 158.856 251.084 200.607C251.084 200.607 275.309 163.187 248.943 62.2723Z"/></g><g style="mix-blend-mode:screen" opacity=".2"><path fill="url(#paint5_linear)" d="M413.343 58.1021C428.683 178.506 363.044 259.279 407.874 341.131C456.253 429.462 543.134 451.384 623.439 407.72C703.744 364.056 747.676 251.487 675.159 181.6C612.838 121.539 562.688 158.946 498.469 93.0777C498.469 93.0777 493.075 133.763 527.734 166.26C527.734 166.26 477.719 157.809 413.343 58.1021Z"/></g><g style="mix-blend-mode:screen" opacity=".2"><path fill="url(#paint6_linear)" d="M842.566 36.0001C817.052 128.606 744.486 167.577 752.264 241.023C760.659 320.282 817.422 362.784 889.382 355.386C961.341 347.987 1027.75 279.177 996.105 206.027C968.908 143.161 920.877 155.185 894.066 87.5004C894.066 87.5004 877.72 115.567 893.121 149.868C893.121 149.868 859.173 128.444 842.566 36.0001Z"/></g><g style="mix-blend-mode:screen" opacity=".2"><path fill="url(#paint7_linear)" d="M977.931 43C918.839 143.706 821.375 166.633 807.401 255.317C792.322 351.02 845.598 418.782 932.417 432.734C1019.24 446.687 1118.86 386.786 1104.72 290.941C1092.56 208.571 1032.38 207.578 1022.2 119.672C1022.2 119.672 994.174 147.484 1001.47 192.603C1001.47 192.603 968.346 156.768 977.931 43Z"/></g><g style="mix-blend-mode:screen" opacity=".2"><path fill="url(#paint8_linear)" d="M724.275 27C616.202 119.024 556.948 172.684 546.15 271.946C534.498 379.064 597.293 451.501 694.482 462.374C791.672 473.247 899.149 401.396 878.33 295.677C860.438 204.822 793.535 206.926 777.535 109.814C777.535 109.814 747.887 142.203 758.392 191.937C758.392 191.937 719.69 153.894 724.275 27Z"/></g><g style="mix-blend-mode:screen" opacity=".2"><path fill="url(#paint9_linear)" d="M1111.93 45C1111.18 151.667 1044.55 214.326 1074 290.872C1105.78 373.477 1178.89 402.752 1253.95 374.134C1329.01 345.515 1380.47 252.618 1325.5 183.249C1278.25 123.633 1230.19 150.336 1181.98 85.4399C1181.98 85.4399 1172.51 120.244 1198.89 152.61C1198.89 152.61 1156.32 139.387 1111.93 45Z"/></g><g style="mix-blend-mode:screen" opacity=".2"><path fill="url(#paint10_linear)" d="M977.837 63C993.176 183.404 927.537 264.177 972.367 346.029C1020.75 434.36 1107.63 456.281 1187.93 412.618C1268.24 368.954 1312.17 256.385 1239.65 186.498C1177.33 126.437 1127.18 163.843 1062.96 97.9756C1062.96 97.9756 1057.57 138.661 1092.23 171.158C1092.23 171.158 1042.21 162.707 977.837 63Z"/></g></g><defs><linearGradient id="paint0_linear" x1="634.5" x2="634.5" y1="0" y2="236" gradientUnits="userSpaceOnUse"><stop stop-color="#FECC37"/><stop offset="1" stop-color="#F79302"/></linearGradient><linearGradient id="paint1_linear" x1="29.06" x2="278.861" y1="143.27" y2="344.655" gradientUnits="userSpaceOnUse"><stop stop-color="#FFC73C"/><stop offset="1" stop-color="#FE9A03"/></linearGradient><linearGradient id="paint2_linear" x1="183.667" x2="432.023" y1="117.667" y2="366.023" gradientUnits="userSpaceOnUse"><stop stop-color="#FFC73C"/><stop offset="1" stop-color="#FE9A03"/></linearGradient><linearGradient id="paint3_linear" x1="-72.547" x2="45.304" y1="76.193" y2="448.613" gradientUnits="userSpaceOnUse"><stop stop-color="#FFC73C"/><stop offset="1" stop-color="#FE9A03"/></linearGradient><linearGradient id="paint4_linear" x1="374.661" x2="264.008" y1="108.46" y2="409.645" gradientUnits="userSpaceOnUse"><stop stop-color="#FFC73C"/><stop offset="1" stop-color="#FE9A03"/></linearGradient><linearGradient id="paint5_linear" x1="355.425" x2="693.139" y1="199.068" y2="337.824" gradientUnits="userSpaceOnUse"><stop stop-color="#FFC73C"/><stop offset="1" stop-color="#FE9A03"/></linearGradient><linearGradient id="paint6_linear" x1="757.283" x2="961.596" y1="121.283" y2="325.596" gradientUnits="userSpaceOnUse"><stop stop-color="#FFC73C"/><stop offset="1" stop-color="#FE9A03"/></linearGradient><linearGradient id="paint7_linear" x1="850.965" x2="1026.58" y1="116.303" y2="420.477" gradientUnits="userSpaceOnUse"><stop stop-color="#FFC73C"/><stop offset="1" stop-color="#FE9A03"/></linearGradient><linearGradient id="paint8_linear" x1="587.137" x2="798.433" y1="115.197" y2="443.74" gradientUnits="userSpaceOnUse"><stop stop-color="#FFC73C"/><stop offset="1" stop-color="#FE9A03"/></linearGradient><linearGradient id="paint9_linear" x1="1044.97" x2="1322.85" y1="160.99" y2="321.424" gradientUnits="userSpaceOnUse"><stop stop-color="#FFC73C"/><stop offset="1" stop-color="#FE9A03"/></linearGradient><linearGradient id="paint10_linear" x1="919.918" x2="1257.63" y1="203.966" y2="342.722" gradientUnits="userSpaceOnUse"><stop stop-color="#FFC73C"/><stop offset="1" stop-color="#FE9A03"/></linearGradient><clipPath id="clip0"><rect width="1152" height="236" fill="#fff"/></clipPath></defs></svg>