<svg xmlns="http://www.w3.org/2000/svg" width="1152" height="236" fill="none" viewBox="0 0 1152 236"><g clip-path="url(#clip0)"><rect width="1152" height="236" fill="url(#paint0_linear)"/><g style="mix-blend-mode:soft-light" opacity=".2"><path fill="#fff" fill-rule="evenodd" d="M874.964 340.897C879.176 348.121 888.651 350.208 895.503 345.421L1145.88 170.491C1151.99 166.222 1153.8 157.972 1150.05 151.53L1034.94 -45.8969C1031.18 -52.339 1023.11 -54.8155 1016.4 -51.5885L741.12 80.6395C733.586 84.2582 730.742 93.5437 734.954 100.768L874.964 340.897ZM789.743 124.776C782.727 112.742 787.142 97.3544 799.395 91.1399L1005.66 -13.4706C1015.34 -18.3788 1027.22 -14.7894 1032.77 -5.2844C1038.67 4.83554 1035.16 17.7709 1025.01 23.3004L821.948 133.99C810.608 140.172 796.34 136.09 789.743 124.776ZM870.692 211.192C858.276 218.719 842.03 214.467 834.615 201.75C827.2 189.033 831.491 172.78 844.144 165.66L1042.02 54.2948C1052.66 48.3049 1066.2 52.0818 1072.44 62.7792C1078.68 73.4767 1075.3 87.139 1064.86 93.4707L870.692 211.192ZM913.505 286.849C902.074 294.474 886.519 290.756 879.502 278.721C872.906 267.408 876.372 252.964 887.325 246.118L1083.46 123.54C1093.26 117.417 1106.23 120.72 1112.13 130.84C1117.68 140.345 1114.95 152.47 1105.93 158.493L913.505 286.849Z" clip-rule="evenodd"/></g><g style="mix-blend-mode:soft-light" opacity=".2"><path fill="#fff" fill-rule="evenodd" d="M329.931 -126.551C324.914 -135.144 313.63 -137.627 305.47 -131.932L7.28734 76.1521C0.0104405 81.2302 -2.14884 91.0436 2.32452 98.7067L139.415 333.551C143.888 341.214 153.496 344.16 161.496 340.321L489.33 183.032C498.302 178.728 501.689 167.682 496.673 159.089L329.931 -126.551ZM431.422 130.531C439.779 144.846 434.521 163.149 419.928 170.542L174.28 294.979C162.754 300.817 148.6 296.547 142 285.241C134.973 273.203 139.15 257.816 151.231 251.239L393.069 119.571C406.575 112.217 423.566 117.073 431.422 130.531ZM335.018 27.7369C349.804 18.7829 369.152 23.8407 377.983 38.9683C386.814 54.0959 381.704 73.4283 366.635 81.8987L130.98 214.37C118.305 221.495 102.176 217.003 94.7479 204.278C87.3197 191.553 91.3387 175.301 103.776 167.769L335.018 27.7369ZM284.031 -62.2589C297.645 -71.3292 316.169 -66.9067 324.526 -52.5913C332.382 -39.1336 328.254 -21.9516 315.21 -13.8086L81.6272 132.001C69.9586 139.285 54.5052 135.355 47.478 123.317C40.8779 112.011 44.1201 97.5876 54.8721 90.4238L284.031 -62.2589Z" clip-rule="evenodd"/></g></g><defs><linearGradient id="paint0_linear" x1="576" x2="576" y1="0" y2="236" gradientUnits="userSpaceOnUse"><stop stop-color="#483490"/><stop offset="1" stop-color="#6352D3"/></linearGradient><clipPath id="clip0"><rect width="1152" height="236" fill="#fff"/></clipPath></defs></svg>