<svg width="196" height="198" viewBox="0 0 196 198" fill="none" xmlns="http://www.w3.org/2000/svg">
<mask id="path-1-outside-1" maskUnits="userSpaceOnUse" x="0" y="0" width="196" height="198" fill="black">
<rect fill="white" width="196" height="198"/>
<path fill-rule="evenodd" clip-rule="evenodd" d="M43.0113 29.4801C40.9263 18.315 49.4933 8 60.8515 8C70.8746 8 79 16.1254 79 26.1485V67.2279C85.125 66.4235 91.4816 66 98 66C104.367 66 110.581 66.4041 116.574 67.1726V26.1485C116.574 16.1254 124.7 8 134.723 8C146.081 8 154.648 18.315 152.563 29.4801L144.283 73.8201C170.475 83.4364 188 100.967 188 121V135C188 165.376 147.706 190 98 190C48.2944 190 8 165.376 8 135V121C8 101.069 25.3477 83.6145 51.3191 73.9672L43.0113 29.4801Z"/>
</mask>
<path d="M43.0113 29.4801L50.8754 28.0115L50.8754 28.0115L43.0113 29.4801ZM79 67.2279H71V76.3472L80.0417 75.1598L79 67.2279ZM116.574 67.1726L115.557 75.1077L124.574 76.2639V67.1726H116.574ZM152.563 29.4801L144.699 28.0115V28.0115L152.563 29.4801ZM144.283 73.8201L136.419 72.3516L135.177 78.9993L141.525 81.33L144.283 73.8201ZM51.3191 73.9672L54.1048 81.4666L60.4198 79.1208L59.1831 72.4986L51.3191 73.9672ZM60.8515 0C44.4866 0 32.1431 14.8619 35.1473 30.9487L50.8754 28.0115C49.7094 21.7681 54.5001 16 60.8515 16V0ZM87 26.1485C87 11.7071 75.2929 0 60.8515 0V16C66.4563 16 71 20.5437 71 26.1485H87ZM87 67.2279V26.1485H71V67.2279H87ZM98 58C91.136 58 84.4314 58.4459 77.9583 59.296L80.0417 75.1598C85.8186 74.4011 91.8272 74 98 74V58ZM117.592 59.2376C111.258 58.4255 104.705 58 98 58V74C104.03 74 109.903 74.3827 115.557 75.1077L117.592 59.2376ZM124.574 67.1726V26.1485H108.574V67.1726H124.574ZM124.574 26.1485C124.574 20.5437 129.118 16 134.723 16V0C120.281 0 108.574 11.7071 108.574 26.1485H124.574ZM134.723 16C141.074 16 145.865 21.7681 144.699 28.0115L160.427 30.9487C163.431 14.8619 151.088 0 134.723 0V16ZM144.699 28.0115L136.419 72.3516L152.147 75.2887L160.427 30.9487L144.699 28.0115ZM196 121C196 95.8938 174.383 76.3493 147.04 66.3103L141.525 81.33C166.566 90.5235 180 106.041 180 121H196ZM196 135V121H180V135H196ZM98 198C124.08 198 148.074 191.556 165.811 180.717C183.411 169.962 196 154.029 196 135H180C180 146.346 172.442 157.914 157.468 167.065C142.631 176.131 121.626 182 98 182V198ZM0 135C0 154.029 12.5892 169.962 30.1888 180.717C47.9257 191.556 71.9205 198 98 198V182C74.3739 182 53.3687 176.131 38.532 167.065C23.558 157.914 16 146.346 16 135H0ZM0 121V135H16V121H0ZM48.5334 66.4679C21.4047 76.545 0 96.0208 0 121H16C16 106.118 29.2907 90.6839 54.1048 81.4666L48.5334 66.4679ZM35.1473 30.9487L43.455 75.4358L59.1831 72.4986L50.8754 28.0115L35.1473 30.9487Z" fill="#633001" mask="url(#path-1-outside-1)"/>
<path d="M188 135C188 165.376 147.706 190 98 190C48.2944 190 8 165.376 8 135V121H188V135Z" fill="#FEDC90"/>
<path fill-rule="evenodd" clip-rule="evenodd" d="M43.0113 29.4801C40.9263 18.315 49.4933 8 60.8515 8C70.8746 8 79 16.1254 79 26.1485V67.2279C85.125 66.4235 91.4816 66 98 66C104.367 66 110.581 66.4041 116.574 67.1726V26.1485C116.574 16.1254 124.7 8 134.723 8C146.081 8 154.648 18.315 152.563 29.4801L144.283 73.8201C170.475 83.4364 188 100.967 188 121C188 151.376 147.706 176 98 176C48.2944 176 8 151.376 8 121C8 101.069 25.3477 83.6145 51.3191 73.9672L43.0113 29.4801Z" fill="#D1884F"/>
<ellipse cx="63" cy="117" rx="10" ry="15" fill="#633001"/>
<ellipse cx="132" cy="117" rx="10" ry="15" fill="#633001"/>
</svg>
