<svg xmlns="http://www.w3.org/2000/svg" xmlns:v="https://vecta.io/nano" xmlns:xlink="https://www.w3.org/1999/xlink" width="355" height="386" fill="none"><style>.B{fill-rule:evenodd}.C{fill:#633001}.D{fill:#d1884f}.E{stroke:#bdc2c4}</style><path d="M61.813 58.861C56.738 31.406 77.591 6.042 105.238 6.042c24.398 0 44.176 19.98 44.176 44.627v55.018c6.103-.435 12.304-.659 18.584-.659a261.51 261.51 0 0 1 17.864.608V50.669c0-24.647 19.779-44.627 44.177-44.627 27.647 0 48.5 25.364 43.425 52.819l-11.955 64.671c41.029 18.095 72.053 49.524 72.053 89.016v23.894c0 32.477-21.269 59.668-51.002 78.024-29.965 18.499-70.502 29.496-114.562 29.496s-84.597-10.997-114.562-29.496C23.703 296.11 2.434 268.919 2.434 236.442v-23.894c0-39.283 30.705-70.591 71.388-88.723L61.813 58.861zm184.376 73.167l13.989-75.673c3.523-19.055-10.951-36.659-30.139-36.659-16.934 0-30.661 13.867-30.661 30.973v70.014a239.21 239.21 0 0 0-13.516-1.36 247.56 247.56 0 0 0-17.864-.641c-6.291 0-12.493.236-18.584.694-4.57.344-9.079.813-13.515 1.401V50.669c0-17.106-13.727-30.973-30.661-30.973-19.188 0-33.662 17.604-30.139 36.659l14.035 75.925c-43.877 16.465-73.184 46.254-73.184 80.269v23.894c0 51.841 68.074 93.866 152.048 93.866s152.049-42.025 152.049-93.866v-23.894c0-34.188-29.608-64.108-73.858-80.52z" class="B C"/><path fill="#fedc90" d="M320.047 236.442c0 51.841-68.075 93.866-152.049 93.866S15.95 288.283 15.95 236.442v-23.894h304.097v23.894z"/><path d="M75.099 56.354c-3.522-19.055 10.951-36.659 30.139-36.659 16.934 0 30.661 13.867 30.661 30.973v70.108c10.348-1.373 21.087-2.095 32.099-2.095 10.757 0 21.254.689 31.38 2.001V50.669c0-17.106 13.727-30.973 30.661-30.973 19.188 0 33.662 17.604 30.139 36.659l-13.989 75.673c44.25 16.412 73.858 46.332 73.858 80.52 0 51.841-68.075 93.867-152.049 93.867S15.95 264.389 15.95 212.548c0-34.015 29.308-63.804 73.185-80.269L75.099 56.354z" class="B D"/><path d="M125.762 205.722c0 14.138-7.563 25.6-16.894 25.6s-16.894-11.462-16.894-25.6 7.564-25.6 16.894-25.6 16.894 11.461 16.894 25.6zm116.571 0c0 14.138-7.564 25.6-16.894 25.6s-16.895-11.462-16.895-25.6 7.564-25.6 16.895-25.6 16.894 11.461 16.894 25.6z" class="C"/><use fill="#da4040" xlink:href="#F"/><mask id="A" width="240" height="114" x="48" y="0" mask-type="alpha" maskUnits="userSpaceOnUse"><path fill="#c4c4c4" d="M48 0h240v113.5s-72.275-15.086-120.5-15c-47.844.085-119.5 15-119.5 15V0z"/></mask><g mask="url(#A)"><use class="B C" xlink:href="#G"/><use class="B D" xlink:href="#H"/><path fill="url(#D)" d="M73 118h77V83H67l6 35z"/><path fill="url(#E)" d="M261 118h-77V83h83l-6 35z"/></g><g fill="#fff" stroke-width="10" class="E"><use class="B" xlink:href="#I"/><circle cx="327" cy="234" r="23"/></g><use fill="#da4040" xlink:href="#F"/><mask id="B" width="240" height="114" x="48" y="0" mask-type="alpha" maskUnits="userSpaceOnUse"><path fill="#c4c4c4" d="M48 0h240v113.5s-72.275-15.086-120.5-15c-47.844.085-119.5 15-119.5 15V0z"/></mask><g mask="url(#B)"><use class="B C" xlink:href="#G"/><use class="B D" xlink:href="#H"/><path fill="url(#D)" d="M73 118h77V83H67l6 35z"/><path fill="url(#E)" d="M261 118h-77V83h83l-6 35z"/></g><g fill="#fff" stroke-width="10" class="E"><use class="B" xlink:href="#I"/><circle cx="327" cy="234" r="23"/></g><mask id="C" fill="#fff"><use xlink:href="#J"/></mask><use fill="#fff" xlink:href="#J"/><path fill="#bdc2c4" d="M238.382 290.142c0 21.657-4.396 43.876-15.285 60.422C212.518 366.638 195.44 378 168 378v16c32.796 0 54.909-14.046 68.462-34.64 13.242-20.121 17.92-45.832 17.92-69.218h-16zM168 378c-27.44 0-44.518-11.362-55.097-27.436-10.889-16.546-15.285-38.765-15.285-60.422h-16c0 23.386 4.677 49.097 17.92 69.218C113.091 379.954 135.204 394 168 394v-16zm-70.382-87.858c0-10.219 1.986-17.957 5.195-23.883 3.188-5.887 7.814-10.416 13.793-13.902 12.277-7.16 30.077-9.824 51.394-9.824v-16c-21.972 0-43.362 2.618-59.454 12.002-8.206 4.785-15.058 11.343-19.803 20.105-4.724 8.724-7.125 19.198-7.125 31.502h16zM168 242.533c21.317 0 39.117 2.664 51.394 9.824 5.979 3.486 10.605 8.015 13.793 13.902 3.209 5.926 5.195 13.664 5.195 23.883h16c0-12.304-2.401-22.778-7.125-31.502-4.745-8.762-11.597-15.32-19.803-20.105-16.092-9.384-37.482-12.002-59.454-12.002v16z" mask="url(#C)"/><path fill="#fff" stroke-width="8" d="M86 252.842c0-16.088 37.389-23.265 56.084-24.842 15.579 0 17.916 5.915 17.916 16.562s-74 28.391-74 8.28zm166 0c0-16.088-37.895-23.265-56.842-24.842-15.79 0-18.158 5.915-18.158 16.562s75 28.391 75 8.28z" class="E"/><defs><linearGradient id="D" x1="108.5" x2="108.5" y1="118" y2="83" gradientUnits="userSpaceOnUse"><stop stop-color="#633001"/><stop offset="1" stop-color="#633001" stop-opacity="0"/></linearGradient><linearGradient id="E" x1="225.5" x2="225.5" y1="118" y2="83" gradientUnits="userSpaceOnUse"><stop stop-color="#633001"/><stop offset="1" stop-color="#633001" stop-opacity="0"/></linearGradient><path id="F" d="M296.5 85C224.998 11.212 27 57.366 27 132.564h256.177S289.873 225.5 332 225.5c6.072-12.533 36.002-66.712-35.5-140.5z"/><path id="G" d="M62.068 58.861C56.993 31.406 77.846 6.042 105.494 6.042c24.397 0 44.176 19.98 44.176 44.627v55.018a261.4 261.4 0 0 1 18.583-.659 261.56 261.56 0 0 1 17.865.608V50.669c0-24.647 19.778-44.627 44.176-44.627 27.647 0 48.5 25.364 43.425 52.819l-11.955 64.671c41.029 18.095 72.053 49.524 72.053 89.016v23.894c0 32.477-21.268 59.668-51.002 78.024-29.965 18.499-70.502 29.496-114.562 29.496s-84.597-10.997-114.562-29.496C23.958 296.11 2.689 268.919 2.689 236.442v-23.894c0-39.283 30.705-70.591 71.388-88.723L62.068 58.861zm184.376 73.167l13.989-75.673c3.523-19.055-10.951-36.659-30.139-36.659-16.934 0-30.661 13.867-30.661 30.973v70.014c-4.437-.575-8.945-1.03-13.515-1.36a247.61 247.61 0 0 0-17.865-.641 247.87 247.87 0 0 0-18.583.694 239.98 239.98 0 0 0-13.516 1.401V50.669c0-17.106-13.727-30.973-30.66-30.973-19.189 0-33.663 17.604-30.14 36.659l14.035 75.925c-43.877 16.465-73.185 46.254-73.185 80.269v23.894c0 51.841 68.075 93.866 152.048 93.866s152.049-42.025 152.049-93.866v-23.894c0-34.188-29.608-64.108-73.858-80.52z"/><path id="H" d="M75.354 56.354c-3.522-19.055 10.951-36.659 30.14-36.659 16.933 0 30.66 13.867 30.66 30.973v70.108c10.348-1.373 21.087-2.095 32.099-2.095 10.758 0 21.254.689 31.38 2.001V50.669c0-17.106 13.727-30.973 30.661-30.973 19.188 0 33.662 17.604 30.139 36.659l-13.989 75.673c44.25 16.412 73.858 46.332 73.858 80.52 0 51.841-68.075 93.867-152.049 93.867S16.205 264.389 16.205 212.548c0-34.015 29.308-63.804 73.185-80.269L75.354 56.354z"/><path id="I" d="M245.38 160.834a479.98 479.98 0 0 0-165.76 0L40.453 167.7c-10.88 1.907-21.246-5.367-23.153-16.247s5.366-21.245 16.246-23.153l39.167-6.866c59.404-10.413 120.168-10.413 179.572 0l39.167 6.866c10.88 1.908 18.154 12.274 16.247 23.153s-12.274 18.154-23.153 16.247l-39.167-6.866z"/><path id="J" d="M246.382 290.142C246.382 335.185 228.236 386 168 386s-78.382-50.815-78.382-95.858 35.093-55.609 78.382-55.609 78.382 10.565 78.382 55.609z"/></defs></svg>