<svg xmlns="http://www.w3.org/2000/svg" xmlns:v="https://vecta.io/nano" xmlns:xlink="http://www.w3.org/1999/xlink" width="64" height="64" fill="none"><path fill="#e9eaeb" d="M64 32c0 17.673-14.327 32-32 32S0 49.673 0 32 14.327 0 32 0s32 14.327 32 32z"/><mask id="A" width="58" height="58" x="3" y="3" mask-type="alpha" maskUnits="userSpaceOnUse"><path fill="#c4c4c4" d="M60.667 32c0 15.832-12.834 28.667-28.667 28.667S3.333 47.832 3.333 32 16.168 3.333 32 3.333 60.667 16.168 60.667 32z"/></mask><g mask="url(#A)"><path fill="#bdc2c4" fill-rule="evenodd" d="M18.66 20.68c4.566-.115 8.08 3.967 7.3 8.465l-1.35 7.784c2.263-.438 4.664-.673 7.146-.673 1.763 0 3.484.118 5.143.344L43.8 26.287c2.21-3.295 6.67-4.176 9.966-1.967 3.81 2.553 4.282 7.973.974 11.148l-5.63 5.405c4.13 2.683 6.997 6.502 6.997 11.043v3.48c0 4.73-3.13 8.69-7.505 11.365-4.41 2.695-10.374 4.296-16.858 4.296s-12.448-1.602-16.858-4.296C10.52 64.09 7.39 60.128 7.39 55.397v-3.48c0-3.536 1.76-6.658 4.465-9.1l-.292-14.705a7.29 7.29 0 0 1 7.096-7.422zm-4.778 23a3.85 3.85 0 0 1-.026-.379l-.303-15.248a5.3 5.3 0 0 1 5.157-5.395c3.31-.083 5.856 2.872 5.29 6.136L22.13 39.57c.685-.2 1.4-.38 2.112-.536 2.348-.51 4.876-.8 7.51-.8 2.168 0 4.265.19 6.248.54a3.84 3.84 0 0 1 .464-.954l6.996-10.436c1.597-2.383 4.824-3.02 7.207-1.422 2.754 1.846 3.097 5.765.704 8.062l-7.553 7.25c.637.315 1.246.652 1.823 1.007 4.01 2.47 6.485 5.872 6.485 9.626v3.48c0 7.55-10.017 13.673-22.374 13.673S9.38 62.95 9.38 55.397v-3.48c0-3.088 1.676-5.938 4.502-8.227z"/><g fill="#e9eaeb"><path d="M54.127 55.397c0 7.55-10.017 13.673-22.374 13.673S9.38 62.95 9.38 55.397v-3.48h44.747v3.48z"/><path fill-rule="evenodd" d="M24 28.805c.567-3.264-1.98-6.22-5.29-6.136a5.3 5.3 0 0 0-5.157 5.395l.303 15.248.026.38c-2.826 2.29-4.502 5.138-4.502 8.227 0 7.55 10.017 13.673 22.374 13.673s22.374-6.12 22.374-13.673c0-4.295-3.24-8.127-8.308-10.633l7.554-7.25c2.392-2.296 2.05-6.215-.704-8.062-2.383-1.597-5.61-.96-7.207 1.422L38.466 37.83a3.84 3.84 0 0 0-.464.955c-1.983-.352-4.08-.54-6.248-.54-3.445 0-6.708.476-9.623 1.326L24 28.805z"/></g><g fill="#bdc2c4"><use xlink:href="#C"/><g fill-rule="evenodd"><use xlink:href="#D"/><use x="17.154" xlink:href="#D"/></g><use x="17.153" xlink:href="#C"/><path d="M30.242 23.064v-.6c0-.844.17-1.55.506-2.12.36-.57.834-1.13 1.424-1.678a14.95 14.95 0 0 1 1.614-1.361c.528-.38.96-.78 1.298-1.203a2.31 2.31 0 0 0 .507-1.488c0-.823-.295-1.403-.886-1.74-.57-.36-1.53-.538-2.88-.538a10.1 10.1 0 0 0-2.627.348c-.865.21-1.604.485-2.216.823V9.23c.78-.38 1.7-.686 2.754-.918 1.076-.232 2.248-.348 3.514-.348 2.448 0 4.316.538 5.603 1.614 1.287 1.055 1.93 2.51 1.93 4.368 0 1.182-.243 2.142-.728 2.88-.485.718-1.192 1.456-2.12 2.216l-1.963 1.7c-.528.464-.79 1.097-.79 1.9v.412h-4.938zm-.222 5.603v-3.672h5.35v3.672h-5.35z"/></g></g><path fill="#bdc2c4" fill-rule="evenodd" d="M63.986 32.97l-2-.06L62 32l-.014-.91 2-.06L64 32l-.014.97zm-.115-3.867l-1.992.18-.216-1.8 1.978-.298.23 1.918zm-.577-3.82l-1.956.418-.432-1.76 1.927-.536.46 1.878zm-1.036-3.724l-1.89.652-.642-1.693 1.847-.766.686 1.807zm-1.48-3.57l-1.798.877-.843-1.604 1.74-.984.9 1.71zm-1.902-3.365l-1.678 1.087-1.03-1.49 1.6-1.187 1.1 1.6zm-2.293-3.11l-1.536 1.28-1.203-1.357 1.456-1.37 1.282 1.447zM53.934 8.7l-1.37 1.456-1.357-1.203 1.28-1.536L53.934 8.7zm-2.968-2.476l-1.187 1.6-1.49-1.03 1.087-1.68 1.6 1.1zm-3.243-2.1l-.984 1.74-1.604-.844.877-1.798 1.71.9zM44.25 2.428l-.766 1.847-1.693-.643.652-1.89 1.807.686zm-3.653-1.26l-.536 1.927-1.76-.432.418-1.956 1.878.46zM36.816.36l-.3 1.978-1.8-.216.18-1.992 1.918.23zM32.97.014L32 0l-.97.014.06 2L32 2l.91.014.06-2zM29.102.13l.18 1.992-1.8.216L27.184.36l1.918-.23zm-3.82.577l.418 1.956-1.76.432-.536-1.927 1.878-.46zm-3.724 1.036l.652 1.89-1.693.643-.766-1.847 1.807-.686zm-3.57 1.48l.877 1.798-1.604.844-.984-1.74 1.71-.9zm-3.365 1.902l1.087 1.68-1.49 1.03-1.187-1.6 1.6-1.1zm-3.11 2.293l1.28 1.536-1.357 1.203-1.37-1.456 1.447-1.282zM8.7 10.066l1.456 1.37-1.203 1.357-1.536-1.28L8.7 10.066zm-2.476 2.968l1.6 1.187-1.03 1.49-1.68-1.087 1.1-1.6zm-2.1 3.243l1.74.984-.844 1.604-1.798-.877.9-1.71zM2.428 19.75l1.847.766-.643 1.693-1.89-.652.686-1.807zm-1.26 3.653l1.927.536-.432 1.76-1.956-.418.46-1.878zm-.808 3.78l1.978.298-.216 1.8-1.992-.18.23-1.918zM.014 31.03L0 32l.014.97 2-.06L2 32l.014-.91-2-.06zm.115 3.867l1.992-.18.216 1.8-1.978.3-.23-1.918zm.577 3.82l1.956-.418.432 1.76-1.927.536-.46-1.878zm1.036 3.723l1.89-.652.643 1.693-1.847.766-.686-1.807zm1.48 3.57l1.798-.877.844 1.604-1.74.984-.9-1.71zm1.902 3.365l1.68-1.087 1.03 1.49-1.6 1.187-1.1-1.6zm2.293 3.11l1.536-1.28 1.203 1.357-1.456 1.37-1.282-1.447zm2.65 2.814l1.37-1.456 1.357 1.203-1.28 1.536-1.447-1.282zm2.968 2.476l1.187-1.6 1.49 1.03-1.087 1.678-1.6-1.1zm3.243 2.1l.984-1.74 1.604.843-.877 1.798-1.71-.9zm3.474 1.694l.766-1.847 1.693.642-.652 1.89-1.807-.686zm3.653 1.26l.536-1.927 1.76.432-.418 1.956-1.878-.46zm3.78.808l.298-1.978 1.8.216-.18 1.992-1.918-.23zm3.847.346l.06-2L32 62l.91-.014.06 2L32 64c-.324 0-.647-.005-.97-.014zm3.867-.115l-.18-1.992 1.8-.216.3 1.978-1.918.23zm3.82-.577l-.418-1.956 1.76-.432.536 1.927-1.878.46zm3.723-1.036l-.652-1.89 1.693-.642.766 1.847-1.807.686zm3.57-1.48l-.877-1.798 1.604-.843.984 1.74-1.71.9zm3.365-1.902l-1.087-1.678 1.49-1.03 1.187 1.6-1.6 1.1zm3.11-2.293l-1.28-1.536 1.357-1.203 1.37 1.456-1.447 1.282zm2.814-2.65l-1.456-1.37 1.203-1.357 1.536 1.28-1.282 1.447zm2.476-2.968l-1.6-1.187 1.03-1.49 1.678 1.087-1.1 1.6zm2.1-3.243l-1.74-.984.843-1.604 1.798.877-.9 1.71zm1.694-3.474l-1.847-.766.642-1.693 1.89.652-.686 1.807zm1.26-3.653l-1.927-.536.432-1.76 1.956.418-.46 1.878zm.808-3.78l-1.978-.3.216-1.8 1.992.18-.23 1.918z"/><defs><path id="C" d="M28.522 50.923c0 2.06-1.113 3.73-2.486 3.73s-2.486-1.67-2.486-3.73 1.113-3.73 2.486-3.73 2.486 1.67 2.486 3.73z"/><path id="D" d="M25.68 48.03c.507.76.852 1.867.852 3.14 0 .55.445.994.994.994s.994-.445.994-.994c0-1.61-.433-3.114-1.186-4.243-.748-1.123-1.89-1.972-3.288-1.972s-2.54.85-3.288 1.972c-.753 1.13-1.186 2.633-1.186 4.243 0 .873.127 1.71.36 2.47.16.525.717.82 1.242.66s.82-.717.66-1.242c-.173-.566-.273-1.205-.273-1.887 0-1.273.346-2.38.852-3.14.51-.767 1.108-1.086 1.634-1.086s1.122.32 1.634 1.086z"/></defs></svg>