<svg xmlns="http://www.w3.org/2000/svg" xmlns:v="https://vecta.io/nano" xmlns:xlink="http://www.w3.org/1999/xlink" width="72" height="72" fill="none"><style>.B{fill:#bdc2c4}.C{fill-rule:evenodd}.D{fill:#e9eaeb}</style><path d="M72 36c0 19.882-16.118 36-36 36S0 55.882 0 36 16.118 0 36 0s36 16.118 36 36z" class="D"/><mask id="A" width="66" height="66" x="3" y="3" mask-type="alpha" maskUnits="userSpaceOnUse"><path fill="#c4c4c4" d="M68.25 36c0 17.811-14.439 32.25-32.25 32.25S3.75 53.811 3.75 36 18.189 3.75 36 3.75 68.25 18.189 68.25 36z"/></mask><g mask="url(#A)"><path d="M20.993 23.265c5.136-.129 9.09 4.462 8.211 9.523l-1.52 8.757c2.546-.493 5.247-.757 8.039-.757 1.983 0 3.919.133 5.786.387l7.777-11.602c2.485-3.707 7.505-4.698 11.212-2.212 4.285 2.872 4.818 8.97 1.096 12.542l-6.335 6.081c4.646 3.018 7.872 7.315 7.872 12.424v3.915c0 5.322-3.521 9.778-8.443 12.786-4.96 3.031-11.671 4.834-18.965 4.834s-14.004-1.802-18.965-4.834c-4.922-3.008-8.443-7.464-8.443-12.786v-3.915c0-3.978 1.981-7.49 5.023-10.248l-.328-16.543a8.2 8.2 0 0 1 7.983-8.35zm-5.376 25.886c-.017-.14-.027-.283-.03-.427l-.34-17.154a5.96 5.96 0 0 1 5.802-6.069A5.89 5.89 0 0 1 27 32.405l-2.103 12.111a35.39 35.39 0 0 1 2.376-.603c2.641-.575 5.486-.888 8.45-.888 2.44 0 4.798.212 7.029.608.121-.372.294-.733.522-1.074l7.87-11.74c1.797-2.681 5.427-3.397 8.107-1.6 3.098 2.077 3.484 6.486.793 9.069l-8.498 8.156a25.23 25.23 0 0 1 2.051 1.133c4.51 2.78 7.296 6.606 7.296 10.83v3.915c0 8.495-11.269 15.382-25.17 15.382s-25.17-6.887-25.17-15.382v-3.915c0-3.474 1.885-6.68 5.065-9.255z" class="B C"/><path d="M60.893 62.322c0 8.495-11.269 15.382-25.17 15.382s-25.17-6.887-25.17-15.382v-3.915h50.341v3.915z" class="D"/><path d="M27 32.405a5.89 5.89 0 0 0-5.951-6.903 5.96 5.96 0 0 0-5.802 6.069l.34 17.154.03.427c-3.179 2.575-5.065 5.781-5.065 9.255 0 8.495 11.269 15.382 25.17 15.382s25.17-6.887 25.17-15.382c0-4.831-3.645-9.143-9.346-11.963l8.498-8.156c2.691-2.583 2.306-6.992-.792-9.069-2.681-1.797-6.31-1.081-8.107 1.6l-7.87 11.74c-.228.341-.402.702-.522 1.074-2.231-.396-4.589-.608-7.029-.608-3.875 0-7.546.535-10.826 1.491L27 32.405z" class="C D"/><use class="B" xlink:href="#C"/><path d="M28.891 54.035c.57.855.959 2.101.959 3.532a1.12 1.12 0 0 0 1.119 1.119 1.12 1.12 0 0 0 1.119-1.119c0-1.812-.488-3.503-1.335-4.773-.842-1.263-2.128-2.218-3.699-2.218s-2.858.956-3.699 2.218c-.847 1.271-1.335 2.962-1.335 4.773a9.51 9.51 0 0 0 .405 2.779 1.12 1.12 0 0 0 1.397.742 1.12 1.12 0 0 0 .742-1.397c-.195-.636-.307-1.356-.307-2.123 0-1.432.389-2.677.959-3.532.575-.863 1.247-1.222 1.838-1.222s1.263.359 1.838 1.222zm19.297 0c.57.855.959 2.101.959 3.532a1.12 1.12 0 0 0 1.119 1.119 1.12 1.12 0 0 0 1.119-1.119c0-1.812-.488-3.503-1.335-4.773-.842-1.263-2.128-2.218-3.699-2.218s-2.858.956-3.699 2.218c-.847 1.271-1.335 2.962-1.335 4.773a9.51 9.51 0 0 0 .405 2.779 1.12 1.12 0 0 0 1.398.742 1.12 1.12 0 0 0 .742-1.397 7.27 7.27 0 0 1-.307-2.123c0-1.432.389-2.677.959-3.532.575-.863 1.247-1.222 1.838-1.222s1.263.359 1.838 1.222z" class="B C"/><use x="19.297" class="B" xlink:href="#C"/><path d="M34.022 25.946v-.677c0-.95.19-1.745.57-2.386.404-.641.938-1.27 1.603-1.888.617-.593 1.223-1.104 1.816-1.531s1.08-.878 1.46-1.353.57-1.033.57-1.674c0-.926-.332-1.579-.997-1.959-.641-.404-1.721-.605-3.241-.605-.997 0-1.982.13-2.956.392-.973.237-1.804.546-2.493.926v-4.808c.879-.427 1.911-.772 3.098-1.033 1.211-.261 2.529-.392 3.953-.392 2.754 0 4.855.605 6.303 1.816 1.448 1.187 2.172 2.825 2.172 4.915 0 1.33-.273 2.41-.819 3.241-.546.807-1.341 1.638-2.386 2.493l-2.208 1.923c-.594.522-.89 1.235-.89 2.137v.463h-5.556zm-.249 6.304v-4.131h6.019v4.131h-6.019z" class="B"/></g><path d="M71.984 37.09l-2.249-.067L69.75 36l-.015-1.023 2.249-.067L72 36l-.016 1.09zm-.129-4.35l-2.241.201-.243-2.023 2.225-.336.26 2.158zm-.649-4.298l-2.2.47-.486-1.98 2.168-.603.519 2.113zm-1.166-4.189l-2.127.734-.723-1.905 2.078-.862.771 2.033zm-1.665-4.016l-2.022.987-.949-1.805 1.959-1.107 1.012 1.925zm-2.139-3.785l-1.888 1.223-1.16-1.677 1.811-1.335 1.237 1.789zm-2.579-3.5l-1.728 1.441-1.353-1.526 1.638-1.543 1.443 1.627zm-2.981-3.165l-1.543 1.638-1.526-1.353 1.441-1.728 1.627 1.443zm-3.339-2.785l-1.335 1.811-1.677-1.16 1.223-1.888 1.789 1.237zm-3.649-2.364l-1.107 1.959-1.805-.949.986-2.022 1.925 1.012zM49.78 2.732l-.862 2.078-1.905-.723.734-2.127 2.033.771zm-4.109-1.418l-.603 2.168-1.979-.486.47-2.2 2.113.519zM41.418.405l-.336 2.225-2.023-.243.201-2.241 2.158.259zM37.09.016L36 0l-1.09.016.067 2.249L36 2.25l1.023.015.067-2.249zm-4.35.129l.201 2.241-2.023.243-.336-2.225L32.74.146zm-4.298.649l.47 2.2-1.98.486-.603-2.168 2.113-.519zM24.253 1.96l.734 2.127-1.905.723-.862-2.078 2.033-.771zm-4.016 1.665l.987 2.022-1.805.949-1.107-1.959 1.925-1.012zm-3.785 2.139l1.223 1.888-1.677 1.16-1.335-1.811 1.789-1.237zm-3.5 2.579l1.441 1.728-1.526 1.353-1.543-1.638 1.627-1.443zm-3.165 2.981l1.638 1.543-1.353 1.526-1.728-1.441 1.443-1.627zm-2.785 3.339l1.811 1.335-1.16 1.677-1.888-1.223 1.237-1.789zm-2.364 3.649l1.959 1.107-.949 1.805-2.022-.986 1.012-1.925zM2.732 22.22l2.078.862-.723 1.905-2.127-.734.771-2.033zm-1.418 4.109l2.168.603-.486 1.98-2.2-.47.519-2.113zm-.909 4.253l2.225.336-.243 2.023-2.241-.201.259-2.158zM.016 34.91L0 36l.016 1.09 2.249-.067L2.25 36l.015-1.023-2.249-.067zm.129 4.35l2.241-.201.243 2.023-2.225.336-.259-2.158zm.649 4.298l2.2-.47.486 1.979-2.168.603-.519-2.113zm1.165 4.189l2.127-.734.723 1.905-2.078.862-.771-2.033zm1.665 4.015l2.022-.986.949 1.805-1.959 1.107-1.012-1.925zm2.139 3.785l1.888-1.223 1.16 1.677-1.811 1.335-1.237-1.789zm2.579 3.5l1.728-1.441 1.353 1.526-1.638 1.543-1.443-1.627zm2.981 3.165l1.543-1.638 1.526 1.353-1.441 1.728-1.627-1.443zm3.339 2.785l1.335-1.811 1.677 1.16-1.223 1.888-1.789-1.237zm3.649 2.364l1.107-1.959 1.805.949-.986 2.022-1.925-1.012zm3.908 1.906l.862-2.078 1.905.723-.734 2.127-2.033-.771zm4.109 1.418l.603-2.168 1.98.486-.47 2.2-2.113-.519zm4.253.909l.336-2.225 2.023.243-.201 2.241-2.158-.259zm4.328.389l.067-2.249L36 69.75l1.023-.015.067 2.249L36 72c-.365 0-.728-.005-1.09-.016zm4.35-.129l-.201-2.241 2.023-.243.336 2.225-2.158.26zm4.298-.649l-.47-2.2 1.979-.486.603 2.168-2.113.519zm4.189-1.166l-.734-2.127 1.905-.723.862 2.078-2.033.771zm4.015-1.665l-.986-2.022 1.805-.949 1.107 1.959-1.925 1.012zm3.785-2.139l-1.223-1.888 1.677-1.16 1.335 1.811-1.789 1.237zm3.5-2.579l-1.441-1.728 1.526-1.353 1.543 1.638-1.627 1.443zm3.165-2.981l-1.638-1.543 1.353-1.526 1.728 1.441-1.443 1.627zm2.785-3.339l-1.811-1.335 1.16-1.677 1.888 1.223-1.237 1.789zm2.364-3.649l-1.959-1.107.949-1.805 2.022.986-1.012 1.925zm1.906-3.908l-2.078-.862.723-1.905 2.127.734-.771 2.033zm1.418-4.109l-2.168-.603.486-1.979 2.2.47-.519 2.113zm.909-4.253l-2.225-.336.243-2.023 2.241.201-.259 2.158z" class="B C"/><defs><path id="C" d="M32.087 57.288c0 2.317-1.252 4.195-2.797 4.195s-2.797-1.878-2.797-4.195 1.252-4.195 2.797-4.195 2.797 1.878 2.797 4.195z"/></defs></svg>