<svg xmlns="http://www.w3.org/2000/svg" xmlns:v="https://vecta.io/nano" width="64" height="64" fill="none"><style>.B{fill-rule:evenodd}.C{fill:#633001}.D{fill:#fedc90}.E{fill:#d1884f}</style><path fill="#606063" d="M2.438 38.115l-.012.556c0 .704.056 1.398.166 2.083h-.166v1.077a13.12 13.12 0 0 0 .093 1.562C3.725 53.45 16.463 61.36 32 61.36s28.275-7.912 29.48-17.967a13.11 13.11 0 0 0 .093-1.562v-1.077h-.166a13.13 13.13 0 0 0 .166-2.083 13.2 13.2 0 0 0-.012-.556C61.116 27.587 48.05 19.143 32 19.143S2.884 27.587 2.438 38.115zm-2.43 0c.22-6.424 4.233-11.82 9.82-15.51 5.79-3.824 13.635-6.103 22.17-6.103s16.38 2.28 22.17 6.103c5.586 3.69 9.6 9.085 9.82 15.51H64v3.716c0 6.67-4.082 12.27-9.83 16.065C48.38 61.72 40.536 64 32 64s-16.38-2.28-22.17-6.103C4.082 54.102 0 48.5 0 41.832v-3.716h.01z" class="B"/><path fill="#bebebe" d="M61.574 41.832c0 10.786-13.24 19.53-29.574 19.53S2.427 52.618 2.427 41.832V38.74h59.147v3.092z"/><path fill="#faf9fa" d="M61.574 38.672c0 10.786-13.24 19.53-29.574 19.53S2.427 49.458 2.427 38.672 15.667 19.143 32 19.143s29.574 8.743 29.574 19.53z"/><path d="M6.977 33.155v.037a10.01 10.01 0 0 0 .345 2.602h-.345v1.144c0 .505.038 1.004.113 1.495 1.127 7.426 10.56 13.22 22.03 13.22s20.902-5.796 22.03-13.22a9.95 9.95 0 0 0 .113-1.495v-1.144h-.345a10.02 10.02 0 0 0 .345-2.53v-.073-.037c-.03-8.11-9.932-14.68-22.142-14.68s-22.112 6.57-22.142 14.68zm-2.427 0h0v3.783c0 5.33 3.24 9.73 7.646 12.66 4.447 2.956 10.436 4.698 16.922 4.698s12.475-1.742 16.922-4.698c4.405-2.928 7.646-7.327 7.646-12.66v-3.746c0-5.33-3.24-9.73-7.646-12.658-4.447-2.956-10.436-4.698-16.922-4.698s-12.475 1.742-16.922 4.698c-4.395 2.92-7.632 7.307-7.646 12.622z" class="B C"/><path d="M51.26 36.938c0 8.128-9.913 14.717-22.142 14.717S6.976 45.066 6.976 36.938v-3.453H51.26v3.453z" class="D"/><path d="M51.26 33.19c0 8.128-9.913 14.717-22.142 14.717S6.976 41.32 6.976 33.19 16.9 18.474 29.118 18.474 51.26 25.063 51.26 33.19z" class="E"/><path d="M13.65 25.237v.037a10.01 10.01 0 0 0 .345 2.602h-.345v1.144c0 .505.038 1.004.113 1.495 1.127 7.426 10.56 13.222 22.03 13.222s20.902-5.796 22.03-13.222a9.96 9.96 0 0 0 .113-1.495v-1.144h-.345c.22-.822.34-1.667.345-2.53v-.073-.037c-.03-8.11-9.932-14.68-22.142-14.68s-22.112 6.57-22.142 14.68zm-2.426 0h0v3.783c0 5.33 3.24 9.73 7.647 12.66 4.447 2.956 10.436 4.698 16.922 4.698s12.475-1.742 16.922-4.698c4.405-2.928 7.646-7.327 7.646-12.66v-3.746c0-5.33-3.24-9.73-7.646-12.66-4.447-2.956-10.436-4.698-16.922-4.698S23.316 9.66 18.87 12.615c-4.395 2.92-7.632 7.307-7.646 12.622z" class="B C"/><path d="M57.933 29.02c0 8.128-9.913 14.717-22.142 14.717S13.65 37.148 13.65 29.02v-3.453h44.284v3.453z" class="D"/><path d="M57.933 25.274c0 8.128-9.913 14.717-22.142 14.717S13.65 33.402 13.65 25.274s9.913-14.717 22.142-14.717 22.142 6.59 22.142 14.717z" class="E"/><path d="M6.977 17.32v.037a10.01 10.01 0 0 0 .345 2.602h-.345v1.144c0 .505.038 1.004.113 1.495 1.127 7.426 10.56 13.22 22.03 13.22s20.902-5.796 22.03-13.22a9.95 9.95 0 0 0 .113-1.495V19.96h-.345a10.02 10.02 0 0 0 .345-2.53v-.073-.037C51.23 9.208 41.33 2.64 29.12 2.64S7.006 9.208 6.977 17.32zm-2.427 0h0v3.783c0 5.33 3.24 9.73 7.646 12.66 4.447 2.956 10.436 4.698 16.922 4.698s12.475-1.742 16.922-4.698c4.405-2.928 7.646-7.327 7.646-12.66v-3.746c0-5.33-3.24-9.73-7.646-12.66C41.594 1.742 35.605 0 29.12 0S16.643 1.742 12.197 4.698C7.802 7.62 4.565 12.005 4.55 17.32z" class="B C"/><path d="M51.26 21.103c0 8.128-9.913 14.717-22.142 14.717S6.976 29.23 6.976 21.103V17.65H51.26v3.453z" class="D"/><path d="M51.26 17.356c0 8.128-9.913 14.717-22.142 14.717S6.976 25.484 6.976 17.356 16.9 2.64 29.118 2.64 51.26 9.228 51.26 17.356z" class="E"/><g class="B"><path fill="url(#A)" d="M12.214 18.272c0 2.714 1.813 5.144 4.673 6.78l-1.982 3.733v9.448c0 1.25.93 2.262 2.08 2.262s2.08-1.013 2.08-2.262V30.72l2.132-4.016c1.363.314 2.827.485 4.35.485 7.364 0 13.333-3.992 13.333-8.916S32.9 9.356 25.547 9.356s-13.333 3.992-13.333 8.916z"/><path d="M16.887 25.05l-.91-.572c-2.33-1.605-3.762-3.794-3.762-6.207 0-4.924 5.97-8.916 13.333-8.916s13.333 3.992 13.333 8.916-5.97 8.916-13.333 8.916a19.39 19.39 0 0 1-4.35-.485l-2.132 4.016v7.514c0 1.25-.93 2.262-2.08 2.262s-2.08-1.013-2.08-2.262v-9.448l1.982-3.733zm-4.105 3.773v9.408c0 2.525 1.882 4.572 4.203 4.572s4.203-2.047 4.203-4.57v-6.895l1.106-2.083a21.73 21.73 0 0 0 3.253.242c4 0 7.74-1.082 10.54-2.953 2.764-1.848 4.916-4.708 4.916-8.272S38.85 11.85 36.087 10c-2.798-1.87-6.53-2.953-10.54-2.953S17.805 8.13 15.007 10c-2.764 1.848-4.916 4.708-4.916 8.27 0 3.128 1.647 5.704 3.936 7.55l-.945 1.78c-.1.164-.162.34-.213.53-.062.228-.1.462-.086.694z" class="C"/></g><g fill="#9e7200"><path d="M16.38 14.516c0 2.55 2.988 4.62 6.673 4.62s6.673-2.068 6.673-4.62-2.988-4.62-6.673-4.62-6.673 2.068-6.673 4.62z"/><path d="M16.38 12.536h13.346v1.98H16.38v-1.98z"/></g><path fill="#f0b90b" d="M16.38 12.536c0 2.55 2.988 4.618 6.673 4.618s6.673-2.068 6.673-4.618-2.988-4.62-6.673-4.62-6.673 2.068-6.673 4.62z"/><path fill="#9e7200" d="M20.52 11.98l1.88-1.302a1.13 1.13 0 0 1 1.303 0l1.88 1.302c.375.26.375.854 0 1.113l-1.88 1.302a1.13 1.13 0 0 1-1.303 0l-1.88-1.302c-.375-.26-.375-.854 0-1.113z"/><path d="M17.194 7.322c1.597-1.106 3.674-1.714 5.858-1.714s4.26.608 5.858 1.714c1.572 1.088 2.938 2.875 2.938 5.214v1.98c0 2.34-1.366 4.126-2.938 5.214-1.597 1.105-3.674 1.714-5.858 1.714s-4.26-.608-5.858-1.714c-1.572-1.088-2.938-2.875-2.938-5.214v-1.98c0-2.34 1.366-4.126 2.938-5.214zm5.858.596c-3.685 0-6.673 2.068-6.673 4.62v1.98c0 2.55 2.988 4.62 6.673 4.62s6.673-2.068 6.673-4.62v-1.98c0-2.55-2.988-4.62-6.673-4.62z" class="B C"/><defs><linearGradient id="A" x1="25.691" x2="25.691" y1="9.655" y2="40.261" gradientUnits="userSpaceOnUse"><stop stop-color="#9f4a08"/><stop offset=".37" stop-color="#7d3900"/><stop offset="1" stop-color="#8d4104"/></linearGradient></defs></svg>