<svg xmlns="http://www.w3.org/2000/svg" xmlns:xlink="http://www.w3.org/1999/xlink" width="193" height="230" fill="none" xmlns:v="https://vecta.io/nano"><style><![CDATA[.B{fill-rule:evenodd}.C{fill:#633001}.D{fill:#fedc90}.E{fill:#d1884f}]]></style><g clip-path="url(#B)"><g opacity=".1"><path d="M8.763 136.977l-.042 2a47.16 47.16 0 0 0 .597 7.484H8.72v3.87a47.15 47.15 0 0 0 .335 5.614c4.33 36.136 50.11 64.57 105.945 64.57s101.614-28.433 105.945-64.57c.222-1.852.335-3.724.335-5.614v-3.87h-.598c.395-2.46.598-4.956.598-7.484 0-.67-.015-1.336-.043-2C219.634 99.14 172.684 68.793 115 68.793S10.366 99.14 8.763 136.977zm-8.73 0c.8-23.086 15.214-42.478 35.29-55.735C56.133 67.5 84.325 59.31 115 59.31s58.867 8.19 79.677 21.934c20.075 13.257 34.498 32.65 35.29 55.735H230v13.355c0 23.966-14.67 44.097-35.323 57.735C173.867 221.81 145.675 230 115 230s-58.867-8.19-79.677-21.933C14.67 194.43 0 174.298 0 150.332v-13.355h.034z" fill="#606063" class="B"/><path d="M221.28 150.334c0 38.76-47.583 70.183-106.28 70.183S8.72 189.095 8.72 150.334v-11.1h212.56v11.1z" fill="#bebebe"/><path d="M221.28 138.977c0 38.76-47.583 70.183-106.28 70.183S8.72 177.738 8.72 138.977 56.303 68.794 115 68.794s106.28 31.423 106.28 70.184z" fill="#faf9fa"/><path d="M25.072 119.15v.132c0 3.19.425 6.317 1.24 9.352h-1.24v4.1a35.77 35.77 0 0 0 .406 5.375c4.052 26.686 37.95 47.515 79.167 47.515s75.115-20.83 79.167-47.515c.27-1.767.406-3.56.406-5.375v-4.1h-1.24a36.04 36.04 0 0 0 1.239-9.092l.001-.26v-.132c-.107-29.15-35.692-52.758-79.573-52.758S25.18 90 25.072 119.15zm-8.72 0h-.001v13.594c0 19.16 11.65 34.97 27.48 45.492 15.98 10.622 37.503 16.883 60.814 16.883s44.833-6.26 60.814-16.883c15.83-10.522 27.48-26.332 27.48-45.492l.001-13.462c0-19.16-11.648-34.97-27.48-45.492-15.98-10.622-37.503-16.883-60.814-16.883S59.812 63.168 43.83 73.8c-15.795 10.498-27.426 26.26-27.48 45.36z" class="B C"/><path d="M184.217 132.745c0 29.2-35.626 52.89-79.573 52.89s-79.573-23.68-79.573-52.89v-12.41h159.146v12.41z" class="D"/><path d="M184.217 119.282c0 29.2-35.626 52.89-79.573 52.89s-79.573-23.68-79.573-52.89 35.626-52.9 79.573-52.9 79.573 23.68 79.573 52.9z" class="E"/><path d="M49.053 90.696v.132c0 3.192.425 6.317 1.24 9.353h-1.24v4.1a35.75 35.75 0 0 0 .406 5.374c4.052 26.686 37.95 47.515 79.167 47.515s75.116-20.83 79.167-47.515c.27-1.767.406-3.56.406-5.374v-4.1h-1.24c.793-2.953 1.217-5.99 1.24-9.092l.001-.26v-.132c-.107-29.15-35.692-52.758-79.573-52.758S49.16 61.547 49.053 90.696zm-8.72 0h-.001v13.595c0 19.16 11.65 34.97 27.48 45.49 15.98 10.622 37.504 16.883 60.814 16.883s44.833-6.26 60.814-16.883c15.83-10.522 27.48-26.332 27.48-45.49V90.828c0-19.16-11.65-34.97-27.48-45.49-15.98-10.622-37.503-16.882-60.814-16.882s-44.833 6.26-60.814 16.882c-15.795 10.498-27.426 26.26-27.48 45.36z" class="B C"/><path d="M208.198 104.29c0 29.2-35.626 52.9-79.573 52.9s-79.573-23.68-79.573-52.9v-12.41h159.146v12.41z" class="D"/><path d="M208.198 90.828c0 29.2-35.626 52.89-79.573 52.89s-79.573-23.68-79.573-52.89 35.626-52.89 79.573-52.89 79.573 23.68 79.573 52.89z" class="E"/><path d="M25.072 62.242v.132a35.97 35.97 0 0 0 1.24 9.353h-1.24v4.1a35.77 35.77 0 0 0 .406 5.374c4.052 26.686 37.95 47.515 79.167 47.515s75.115-20.83 79.167-47.515a35.68 35.68 0 0 0 .406-5.374v-4.1h-1.24c.792-2.953 1.216-5.99 1.24-9.092l.001-.26v-.132c-.107-29.15-35.692-52.758-79.573-52.758S25.18 33.093 25.072 62.242zm-8.72 0h-.001v13.595c0 19.16 11.65 34.97 27.48 45.492 15.98 10.62 37.503 16.882 60.814 16.882s44.833-6.26 60.814-16.882c15.83-10.523 27.48-26.332 27.48-45.492l.001-13.463c0-19.16-11.648-34.97-27.48-45.492C149.478 6.26 127.956 0 104.645 0S59.812 6.26 43.83 16.883c-15.795 10.498-27.426 26.26-27.48 45.36z" class="B C"/><path d="M184.217 75.837c0 29.2-35.626 52.9-79.573 52.9s-79.573-23.68-79.573-52.9v-12.41h159.146v12.41z" class="D"/><path d="M184.217 62.374c0 29.2-35.626 52.9-79.573 52.9s-79.573-23.68-79.573-52.9 35.626-52.89 79.573-52.89 79.573 23.68 79.573 52.89z" class="E"/><g class="B"><path d="M43.894 65.665c0 9.752 6.515 18.486 16.794 24.363l-7.122 13.417v33.953c0 4.5 3.346 8.13 7.475 8.13s7.475-3.64 7.475-8.13v-27.003l7.662-14.433c4.9 1.13 10.158 1.744 15.63 1.744 26.462 0 47.915-14.345 47.915-32.04s-21.453-32.04-47.915-32.04-47.915 14.345-47.915 32.04z" fill="url(#A)"/><path d="M60.688 90.028l-3.273-2.056c-8.37-5.77-13.52-13.636-13.52-22.307 0-17.696 21.452-32.04 47.915-32.04s47.914 14.345 47.914 32.04-21.452 32.04-47.914 32.04c-5.473 0-10.732-.614-15.63-1.744l-7.662 14.433v27.003c0 4.5-3.347 8.13-7.475 8.13s-7.475-3.64-7.475-8.13v-33.953l7.122-13.417zm-14.752 13.56v33.8c0 9.073 6.763 16.43 15.105 16.43s15.105-7.356 15.105-16.43v-24.78l3.974-7.486c3.774.572 7.686.87 11.69.87 14.41 0 27.82-3.89 37.877-10.613 9.932-6.642 17.668-16.918 17.668-29.726s-7.736-23.084-17.668-29.726c-10.057-6.725-23.468-10.614-37.877-10.614s-27.82 3.89-37.877 10.614C44 42.58 36.263 52.857 36.263 65.665c0 11.24 5.92 20.498 14.145 27.13l-3.397 6.4c-.324.6-.582 1.227-.765 1.9-.223.82-.324 1.66-.3 2.494z" class="C"/></g><g fill="#9e7200"><use xlink:href="#C"/><path d="M58.863 45.052h47.963v7.113H58.863v-7.113z"/></g><path d="M58.863 45.052c0 9.167 10.737 16.598 23.98 16.598s23.98-7.43 23.98-16.598-10.737-16.598-23.98-16.598-23.98 7.43-23.98 16.598z" fill="#f0b90b"/><path d="M73.743 43.05l6.76-4.678c1.428-.988 3.254-.988 4.682 0l6.76 4.678c1.346.932 1.346 3.07 0 4l-6.76 4.678c-1.428.99-3.254.99-4.682 0l-6.76-4.678c-1.346-.932-1.346-3.07 0-4z" fill="#9e7200"/><path d="M61.8 26.314c5.74-3.973 13.204-6.16 21.054-6.16s15.313 2.186 21.054 6.16c5.65 3.9 10.558 10.333 10.558 18.738v7.114c0 8.405-4.908 14.828-10.558 18.738-5.74 3.973-13.204 6.16-21.053 6.16S67.53 74.877 61.8 70.903c-5.65-3.9-10.558-10.333-10.558-18.738v-7.114c0-8.405 4.908-14.828 10.558-18.738zm21.054 2.14c-13.244 0-23.98 7.43-23.98 16.598v7.114c0 9.167 10.737 16.598 23.98 16.598s23.98-7.43 23.98-16.598v-7.114c0-9.167-10.737-16.598-23.98-16.598z" class="B C"/></g></g><defs><linearGradient id="A" x1="92.327" y1="34.697" x2="92.327" y2="144.687" gradientUnits="userSpaceOnUse"><stop stop-color="#9f4a08"/><stop offset=".37" stop-color="#7d3900"/><stop offset="1" stop-color="#8d4104"/></linearGradient><clipPath id="B"><path fill="#fff" d="M0 0h192.24v230H0z"/></clipPath><path id="C" d="M58.863 52.165c0 9.167 10.737 16.598 23.98 16.598s23.98-7.43 23.98-16.598-10.737-16.598-23.98-16.598-23.98 7.43-23.98 16.598z"/></defs></svg> 
