
<svg width="410px" height="406px" viewBox="0 0 410 406" version="1.1" xmlns="http://www.w3.org/2000/svg" xmlns:xlink="http://www.w3.org/1999/xlink">
     <g id="Page-1" stroke="none" stroke-width="1" fill="none" fill-rule="evenodd">
        <g id="Group-2" transform="translate(4.000000, 0.000000)">
            <circle id="Oval" fill="#FDE894" fill-rule="nonzero" cx="203" cy="203" r="203"></circle>
            <path d="M3,211.052807 C21.2074621,79.7350836 87.2907954,12.7441386 201.25,10.0799717 C315.209205,7.4158048 381.292538,71.3169243 399.5,201.78333" id="Line" stroke="#FEF6C9" stroke-width="11" opacity="0.460681734" stroke-linecap="square" fill-rule="nonzero"></path>
            <g id="Group" transform="translate(63.000000, 88.000000)">
                <g id="p1-link" fill="#1A1A1A" fill-rule="nonzero">
                    <path d="M122.03,0.6 C129.35,0.73 136.67,4 141.93,9.07 C148.38,15.7 151.85,24.69 151.77,33.93 C158.7,28.56 166.55,25.18 175.48,26.89 C198.11,32.05 220.34,40.36 241.72,49.34 C254.56,54.76 267.03,61 279.2,67.79 C288.12,72.93 292.37,82.89 292.37,92.89 C291.89,99.55 289.78,106.4 285.8,111.82 C283.74,114.66 281.06,116.66 278.79,119.25 C278.41,122.13 278.82,125.12 278.68,128.03 C278.67,133.96 275.58,140.03 273.56,145.56 C266.79,162.17 260.35,178.91 253.61,195.53 C250.62,202.74 248.24,211.3 243.56,217.54 C237.67,225.45 227.93,230.59 217.94,229.4 C212.52,228.64 207.16,225.81 202.03,223.88 C172.45,212.19 143.24,200.53 113.66,188.82 C112.44,188.24 110.76,189.23 109.53,189.56 C99.51,193.58 89.31,197.12 79.26,201.09 C74.72,202.99 69.96,203.02 65.14,202.48 C57.23,201.19 50.91,196.11 46.26,189.81 C42.47,184.29 40.63,177.08 38.13,170.86 C31.63,154 25.42,137.04 18.89,120.2 C17.39,116.09 15.69,112.04 14.39,107.87 C12.79,102.84 13.25,96.97 13.59,91.76 C12.48,90.73 11.36,89.71 10.28,88.66 C0.09,79.13 -2.78,62.28 4.01,50.04 C6.45,45.57 10.25,42.09 14.75,39.74 C32.54,30.11 51.23,22.08 70.28,15.28 C81.98,10.88 93.88,7.05 106.01,4 C111.21,2.73 116.67,0.83 122.03,0.6 Z M33.74,84.25 C32.86,87.95 31.12,91.05 31.2,94.99 C30.86,101.62 33.99,106.76 36.17,112.89 C42.82,130.85 49.75,148.7 56.44,166.64 C58.86,172.38 60.29,178.93 64.56,183.44 C68.15,187.28 73.67,190.23 79.04,189.43 C82.2,188.84 85.27,187.43 88.28,186.31 C115.7,176.06 143,165.49 170.46,155.35 C173.91,154.09 176.84,151.91 178.7,148.7 C181.96,143.09 181.95,136.49 179.71,130.51 C171.59,109.22 163.48,87.91 155.5,66.56 C153.42,61.22 151.81,55.44 147.89,51.11 C145.28,48.17 142.07,46.91 138.82,44.93 C138.03,43.65 139.17,41.86 139.54,40.58 C141.29,36.41 141.14,31.41 140.34,27.03 C138.57,20.26 133.26,13.89 126.45,11.82 C120.29,10.26 114.98,12.73 109.08,14.14 C80.82,21.33 53.6,32.31 27.82,45.89 C24.35,47.76 21.46,50.46 19.9,54.13 C15.96,63.22 19.68,74.63 27.71,80.22 C29.67,81.61 31.92,82.71 33.74,84.25 Z M156.53,44.86 C159.15,47.55 161.11,50.52 164.56,52.26 C163.8,53.45 163.03,54.63 162.28,55.82 C163.77,58.78 164.89,61.55 167.73,63.49 C166.54,68.44 168.02,71.92 171.89,75.06 C171.53,76.26 171.18,77.47 170.82,78.67 C172.67,78.45 174.53,78.26 176.39,78.14 C175.09,79.44 173.72,80.66 172.33,81.87 C173.81,84.23 175.21,86.46 175.76,89.23 C177.28,89.32 178.79,89.44 180.3,89.59 C179.19,90.78 178.04,91.91 176.86,93.03 C177.98,95.44 179.1,97.84 179.83,100.41 C181.09,100.45 182.36,100.5 183.62,100.58 C182.83,102.04 181.96,103.47 181.08,104.89 C182.63,108.16 183.38,111.09 186.89,112.8 C186.48,114.02 185.61,115.36 185.63,116.66 C186.46,119.91 187.82,122.21 190.56,124.19 C190.14,127.31 190.12,130.41 191.64,133.27 C192.66,134.15 193.8,134.91 194.89,135.71 C193.54,137.1 191.98,137.97 191.52,139.95 C192.49,141.33 193.65,142.46 194.73,143.77 C191.19,145.47 189.92,148.2 189.26,151.9 C189.69,153.37 190.42,154.75 191,156.15 C189.49,156.18 187.97,156.2 186.46,156.21 C186.57,157.41 186.69,158.61 186.81,159.82 C185.61,159.87 184.41,159.93 183.21,159.98 C183.1,161.3 182.98,162.62 182.84,163.94 C181.56,163.66 180.27,163.36 178.99,163.07 C179.18,164.78 179.34,166.47 179.14,168.18 C177.62,167.24 176.28,166.08 174.95,164.9 C172.74,166.07 170.55,167.23 168.19,168.07 C167.91,169.4 167.63,170.73 167.34,172.06 C165.97,171.06 164.61,170.04 163.24,169.05 C160.25,170.82 157.28,171.67 155.65,175.01 C154.55,174.51 153.37,173.52 152.14,173.48 C148.75,174.25 146.23,175.82 144.25,178.7 C139.26,177.63 136.11,178.56 132.93,182.57 C131.11,182.46 129.31,182.42 127.49,182.49 C129.14,183.44 131.03,184.59 132.94,184.87 C134.23,184.71 135.52,184.32 136.78,184 C138.4,187.36 141.55,188.51 144.86,189.66 C146.07,188.79 147.19,187.8 148.35,186.86 C148.66,188.16 148.97,189.46 149.27,190.75 C151.78,191.74 154.05,193.11 156.32,194.55 C157.15,193.28 157.97,192 158.81,190.73 C159.51,191.2 160.21,191.67 160.91,192.14 C160.15,193.29 159.37,194.43 158.61,195.58 C160.26,195.73 162.68,194.92 163.91,196.24 C167.26,199.13 171.15,200.19 175.14,201.83 C185.64,206.02 196.2,210.03 206.63,214.4 C210.05,215.88 213.86,216.21 217.5,215.4 C223.11,213.67 227.62,209.41 230.03,204.09 C238.86,182.48 247.38,160.71 255.97,139.01 C257.96,133.72 260.94,128.75 260.82,123 C261.05,118.68 259.58,114.99 258.23,111.01 C263.2,108.93 267.51,106.07 270.46,101.46 C274.61,95.07 275.7,86.86 272.06,79.97 C270.5,76.82 267.84,74.8 264.81,73.17 C237.32,57.79 207.65,45.97 177.14,38.12 C172.63,36.94 167.25,36.49 163.18,39.18 C160.82,40.87 158.78,43.01 156.53,44.86 Z" id="p1"></path>
                </g>
                <g id="p2-link" transform="translate(18.000000, 11.000000)" fill="#F5F5F5">
                    <path d="M108.45,0.82 C115.26,2.89 120.57,9.26 122.34,16.03 C123.14,20.41 123.29,25.41 121.54,29.58 C121.17,30.86 120.03,32.65 120.82,33.93 C124.07,35.91 127.28,37.17 129.89,40.11 C133.81,44.44 135.42,50.22 137.5,55.56 C145.48,76.91 153.59,98.22 161.71,119.51 C163.95,125.49 163.96,132.09 160.7,137.7 C158.84,140.91 155.91,143.09 152.46,144.35 C125,154.49 97.7,165.06 70.28,175.31 C67.27,176.43 64.2,177.84 61.04,178.43 C55.67,179.23 50.15,176.28 46.56,172.44 C42.29,167.93 40.86,161.38 38.44,155.64 C31.75,137.7 24.82,119.85 18.17,101.89 C15.99,95.76 12.86,90.62 13.2,83.99 C13.12,80.05 14.86,76.95 15.74,73.25 C13.92,71.71 11.67,70.61 9.71,69.22 C1.68,63.63 -2.04,52.22 1.9,43.13 C3.46,39.46 6.35,36.76 9.82,34.89 C35.6,21.31 62.82,10.33 91.08,3.14 C96.98,1.73 102.29,-0.74 108.45,0.82 Z" id="p2"></path>
                </g>
                <g id="p3-link" transform="translate(127.000000, 37.000000)" fill="#F5F5F5" fill-rule="nonzero">
                    <path d="M50.14,1.12 C80.65,8.97 110.32,20.79 137.81,36.17 C140.84,37.8 143.5,39.82 145.06,42.97 C148.7,49.86 147.61,58.07 143.46,64.46 C140.51,69.07 136.2,71.93 131.23,74.01 C132.58,77.99 134.05,81.68 133.82,86 C133.94,91.75 130.96,96.72 128.97,102.01 C120.38,123.71 111.86,145.48 103.03,167.09 C100.62,172.41 96.11,176.67 90.5,178.4 C86.86,179.21 83.05,178.88 79.63,177.4 C69.2,173.03 58.64,169.02 48.14,164.83 C44.15,163.19 40.26,162.13 36.91,159.24 C35.68,157.92 33.26,158.73 31.61,158.58 C32.37,157.43 33.15,156.29 33.91,155.14 C33.21,154.67 32.51,154.2 31.81,153.73 C30.97,155 30.15,156.28 29.32,157.55 C27.05,156.11 24.78,154.74 22.27,153.75 C21.97,152.46 21.66,151.16 21.35,149.86 C20.19,150.8 19.07,151.79 17.86,152.66 C14.55,151.51 11.4,150.36 9.78,147 C8.52,147.32 7.23,147.71 5.94,147.87 C4.03,147.59 2.14,146.44 0.49,145.49 C2.31,145.42 4.11,145.46 5.93,145.57 C9.11,141.56 12.26,140.63 17.25,141.7 C19.23,138.82 21.75,137.25 25.14,136.48 C26.37,136.52 27.55,137.51 28.65,138.01 C30.28,134.67 33.25,133.82 36.24,132.05 C37.61,133.04 38.97,134.06 40.34,135.06 C40.63,133.73 40.91,132.4 41.19,131.07 C43.55,130.23 45.74,129.07 47.95,127.9 C49.28,129.08 50.62,130.24 52.14,131.18 C52.34,129.47 52.18,127.78 51.99,126.07 C53.27,126.36 54.56,126.66 55.84,126.94 C55.98,125.62 56.1,124.3 56.21,122.98 C57.41,122.93 58.61,122.87 59.81,122.82 C59.69,121.61 59.57,120.41 59.46,119.21 C60.97,119.2 62.49,119.18 64,119.15 C63.42,117.75 62.69,116.37 62.26,114.9 C62.92,111.2 64.19,108.47 67.73,106.77 C66.65,105.46 65.49,104.33 64.52,102.95 C64.98,100.97 66.54,100.1 67.89,98.71 C66.8,97.91 65.66,97.15 64.64,96.27 C63.12,93.41 63.14,90.31 63.56,87.19 C60.82,85.21 59.46,82.91 58.63,79.66 C58.61,78.36 59.48,77.02 59.89,75.8 C56.38,74.09 55.63,71.16 54.08,67.89 C54.96,66.47 55.83,65.04 56.62,63.58 C55.36,63.5 54.09,63.45 52.83,63.41 C52.1,60.84 50.98,58.44 49.86,56.03 C51.04,54.91 52.19,53.78 53.3,52.59 C51.79,52.44 50.28,52.32 48.76,52.23 C48.21,49.46 46.81,47.23 45.33,44.87 C46.72,43.66 48.09,42.44 49.39,41.14 C47.53,41.26 45.67,41.45 43.82,41.67 C44.18,40.47 44.53,39.26 44.89,38.06 C41.02,34.92 39.54,31.44 40.73,26.49 C37.89,24.55 36.77,21.78 35.28,18.82 C36.03,17.63 36.8,16.45 37.56,15.26 C34.11,13.52 32.15,10.55 29.53,7.86 C31.78,6.01 33.82,3.87 36.18,2.18 C40.25,-0.51 45.63,-0.06 50.14,1.12 Z M37.48,10.06 C37.28,8.78 37.04,7.52 36.74,6.26 C34.74,6.58 34.54,6.47 34.07,8.52 C35.19,9.07 36.32,9.59 37.48,10.06 Z M41.4,10.18 C40.28,10.35 39.16,10.53 38.05,10.74 C38.35,12.33 38.63,13.03 40.01,13.98 C40.51,12.73 40.97,11.46 41.4,10.18 Z M41.98,14.52 C40.94,15.62 42.1,17.65 43.57,16.88 C44.53,15.83 43.41,13.67 41.98,14.52 Z M37.43,20.22 C38.63,20.45 39.83,20.67 41.03,20.89 C40.82,19.64 40.59,18.38 40.35,17.13 C39.36,18.15 38.39,19.18 37.43,20.22 Z M41.37,24.6 C42.78,24.51 44.18,24.42 45.58,24.31 C44.76,23.13 43.92,21.96 42.99,20.86 C42.4,22.09 41.89,23.34 41.37,24.6 Z M45.76,26.17 C44.9,27.78 46.84,29.21 48.13,27.93 C48.99,26.38 46.99,24.8 45.76,26.17 Z M42.84,33.27 C43.75,31.99 44.63,30.69 45.47,29.36 C44.27,29.36 43.07,29.38 41.86,29.42 C42.14,30.71 42.47,32 42.84,33.27 Z M44.74,34.99 C46.02,35.49 47.3,35.98 48.58,36.48 C48.51,35.09 48.43,33.71 48.34,32.32 C47.13,33.2 45.93,34.08 44.74,34.99 Z M49.51,40.46 C51,39.62 52.2,38.71 53.4,37.49 C52.13,37.34 50.86,37.25 49.6,37.21 C49.55,38.29 49.52,39.37 49.51,40.46 Z M53.1,41.37 C51.95,42.56 53.49,44.27 54.85,43.49 C55.99,42.29 54.45,40.62 53.1,41.37 Z M50.2,44.17 C48.88,45.43 49.48,46.42 50.25,47.77 C52.04,47.29 52.36,47.12 52.77,45.26 C52.02,44.68 51.17,44.32 50.2,44.17 Z M53.36,48.32 C53.3,49.22 53.29,50.13 53.32,51.04 C54.29,51.14 55.27,51.19 56.26,51.19 C56.23,50.24 56.15,49.29 56.02,48.36 C55.13,48.3 54.24,48.29 53.36,48.32 Z M57.14,52.36 C55.82,53.68 57.49,55.47 59.02,54.69 C60.33,53.41 58.66,51.54 57.14,52.36 Z M55.15,54.52 C54.33,55.66 53.54,56.82 52.86,58.04 C53.88,58.38 54.93,58.67 56,58.89 C55.83,57.41 55.51,55.96 55.15,54.52 Z M57.61,59.71 C56.28,60.49 56.91,62.91 58.81,62.58 C61.12,61.98 59.93,58.5 57.61,59.71 Z M60.02,65.2 C61.31,65.74 62.61,66.24 63.92,66.73 C63.64,65.35 63.34,63.96 62.99,62.59 C61.96,63.42 60.97,64.28 60.02,65.2 Z M56.37,69.35 C57.55,69.57 58.74,69.78 59.93,69.98 C59.72,68.81 59.51,67.64 59.29,66.47 C58.3,67.42 57.33,68.37 56.37,69.35 Z M59.97,72.01 C61.1,72.88 62.25,73.72 63.41,74.53 C63.52,73.19 63.63,71.84 63.72,70.49 C62.47,70.98 61.22,71.49 59.97,72.01 Z M64.96,75.14 C62.76,75.87 66.05,77.84 66.97,78.15 C67.21,76.13 69.07,74.57 65.84,74.51 L64.96,75.14 Z M63.7,77.73 C62.49,78.48 61.29,79.24 60.17,80.11 C61.1,81.47 62.22,81.81 63.52,81.14 C63.6,80.01 63.66,78.87 63.7,77.73 Z M68.34,79.06 C67.69,80.18 68.25,81.88 69.73,81.7 C71.65,81.06 69.94,77.47 68.34,79.06 Z M65.33,82.54 C63,84.46 65.7,86.24 67.65,84.98 C67.08,83.22 68.01,81.01 65.33,82.54 Z M68.66,85.67 C68.52,86.86 68.39,88.05 68.28,89.25 C69.69,88.83 71.1,88.39 72.5,87.93 C71.25,87.13 69.98,86.36 68.66,85.67 Z M65.12,90.11 C63.38,91.18 65.63,93.16 67.09,93.04 C67.34,91.08 68.53,90.06 65.89,89.39 L65.12,90.11 Z M71.66,92.53 C72.98,92.46 74.29,92.38 75.61,92.29 C74.7,91.49 73.82,90.69 72.84,89.97 C72.44,90.82 72.04,91.67 71.66,92.53 Z M72.37,96.29 C71.27,95.13 70.17,93.98 68.93,92.97 C68.61,93.96 68.35,94.96 68.14,95.96 C69.5,96.78 70.84,96.31 72.37,96.29 Z M71.47,100.08 C72.95,100 74.44,99.9 75.92,99.79 C75.32,98.81 74.72,97.83 74.1,96.86 C73.17,97.89 72.31,98.98 71.47,100.08 Z M68.45,101.03 C68.46,102.25 68.49,103.47 68.52,104.69 C69.85,103.82 71.13,102.89 72.39,101.93 C71.08,101.61 69.77,101.29 68.45,101.03 Z M76.11,101.62 C75.37,102.29 75.38,102.96 76.13,103.61 C77.88,104.03 77.78,101.25 76.11,101.62 Z M71.38,107.29 C72.81,107.48 74.24,107.66 75.68,107.83 C75.28,106.79 74.86,105.75 74.44,104.71 C73.38,105.53 72.38,106.41 71.38,107.29 Z M72.64,109.84 C71.15,109.51 69.66,109.17 68.14,109.02 C68.36,110.06 68.63,111.08 68.96,112.08 C70.24,111.42 71.43,110.63 72.64,109.84 Z M76.1,109.34 L75.66,110.04 L76.07,110.76 L76.9,110.76 L77.33,110.05 L76.93,109.34 L76.1,109.34 Z M64.6,116.2 C65.71,115.66 66.8,115.08 67.86,114.47 C67.4,112.65 66.89,112.61 65.19,112.11 C64.93,113.46 64.74,114.82 64.6,116.2 Z M71.78,113.34 C72.54,114.41 73.34,115.45 74.14,116.49 C74.51,115.04 74.85,113.58 75.18,112.12 C74.04,112.51 72.91,112.91 71.78,113.34 Z M69.34,116.48 C66.86,116.81 68.86,118.4 69.28,119.79 C70.37,119.32 71.25,119.24 71.54,117.91 C72.25,116.9 70.13,116.05 69.34,116.48 Z M67.83,119.92 C66.03,120.46 64.91,120.14 64.22,122.22 C65.2,123.36 66.2,123.53 67.2,122.72 C67.43,121.79 67.65,120.86 67.83,119.92 Z M71.52,122.41 C72.59,122.59 73.65,122.76 74.71,122.92 C74.6,121.75 74.48,120.57 74.36,119.4 C73.4,120.39 72.46,121.4 71.52,122.41 Z M59.95,124.98 C61.09,125.86 62.24,126.71 63.41,127.55 C63.53,126.22 63.65,124.89 63.76,123.57 C62.48,124.02 61.22,124.49 59.95,124.98 Z M68.49,127.49 C69.81,126.56 71.13,125.62 72.38,124.59 C71.08,124.4 69.77,124.26 68.46,124.17 C68.45,125.27 68.46,126.38 68.49,127.49 Z M56.31,130.35 C57.7,130.45 59.08,130.53 60.47,130.59 C59.97,129.32 59.45,128.05 58.93,126.79 C58.02,127.95 57.15,129.14 56.31,130.35 Z M64.56,131.31 C65.86,130.49 67.62,130.76 67.57,128.88 C68.04,128.01 65.86,127.53 65.35,127.13 C65.04,128.51 64.77,129.9 64.56,131.31 Z M46.39,131.53 C44.59,132.52 45.4,134.16 47.1,134.61 C48.15,135.62 48.51,132.75 48.87,132.16 C48.05,131.53 47.22,131.32 46.39,131.53 Z M56.38,130.98 C55.2,131.44 54.04,131.94 52.9,132.49 C53.66,133.76 53.72,134.89 55.52,134.71 C55.86,133.48 56.14,132.23 56.38,130.98 Z M60.77,131.57 C60.72,132.54 60.69,133.5 60.66,134.47 C61.71,134.45 62.76,134.43 63.82,134.42 C63.83,133.48 63.83,132.54 63.83,131.6 C62.81,131.55 61.79,131.55 60.77,131.57 Z M34.6,135.06 C34.46,136.18 34.33,137.29 34.21,138.41 C35.58,137.97 36.94,137.52 38.3,137.05 C37.68,136.55 37.06,136.06 36.43,135.58 C35.83,135.39 35.21,135.22 34.6,135.06 Z M45.13,135.12 C44.08,135.24 43.04,135.38 42.01,135.55 C41.53,136.69 41.79,137.74 42.78,138.69 C44.72,137.98 44.55,136.83 45.13,135.12 Z M48.54,137.68 C50.21,137.65 51.88,137.57 53.54,137.45 C52.56,136.57 51.84,135.4 50.53,135.13 C49.84,135.96 49.18,136.81 48.54,137.68 Z M56.34,135.47 C58.13,137.89 60.27,140.6 63.05,141.93 C62.02,139.95 60.95,137.98 59.73,136.11 C59.19,135.02 57.32,135.55 56.34,135.47 Z M65.14,135.02 C64.42,135.55 64.24,136.2 64.59,136.97 C66.37,138.49 67.69,134.25 65.14,135.02 Z M22.33,141.31 C23.53,141.54 24.73,141.76 25.94,141.98 C25.73,140.78 25.51,139.58 25.28,138.39 C24.28,139.35 23.3,140.32 22.33,141.31 Z M30.69,139.41 C30.45,140.35 30.26,143.14 31.94,142.39 C34.28,142.59 34.06,137.49 30.95,138.62 L30.69,139.41 Z M37.46,141.31 C38.65,141.54 39.84,141.77 41.03,141.99 C40.82,140.78 40.6,139.56 40.37,138.35 C39.39,139.33 38.42,140.31 37.46,141.31 Z M44.81,140.06 C45.94,140.99 47.11,141.89 48.3,142.76 C48.41,141.35 48.49,139.93 48.55,138.52 C47.3,139.02 46.05,139.53 44.81,140.06 Z M53.34,142.61 C54.58,142.07 55.81,141.51 57.04,140.95 C55.96,140.03 54.86,139.13 53.74,138.26 C53.56,139.71 53.44,141.16 53.34,142.61 Z M10.63,144 C11.84,144.83 13.06,145.63 14.3,146.41 C14.41,145.17 14.53,143.92 14.63,142.67 C13.3,143.11 11.96,143.55 10.63,144 Z M18.33,145.22 C19.68,145.45 21.02,145.67 22.37,145.88 C22.03,144.67 21.67,143.46 21.31,142.25 C20.27,143.19 19.3,144.2 18.33,145.22 Z M26.17,143.88 L27.22,145.3 C27.96,145.61 28.7,145.92 29.45,146.22 C29.51,144.98 29.57,143.75 29.63,142.51 C28.47,142.95 27.31,143.41 26.17,143.88 Z M34.13,145.98 C35.57,145.65 36.99,145.3 38.41,144.92 C37.21,144.14 36.01,143.36 34.71,142.76 C34.5,143.83 34.31,144.9 34.13,145.98 Z M41.26,145.69 C42.73,145.61 44.2,145.51 45.67,145.39 C44.81,144.31 43.94,143.24 43,142.22 C42.39,143.36 41.81,144.52 41.26,145.69 Z M48.64,145.16 C49.97,145.43 51.31,145.68 52.65,145.93 C52.49,144.74 52.33,143.56 52.17,142.37 C50.96,143.26 49.79,144.2 48.64,145.16 Z M56.94,146.17 C58.06,145.13 59.14,144.06 60.19,142.94 C59.29,143.1 58.39,143.29 57.5,143.49 C57.29,144.38 57.1,145.27 56.94,146.17 Z M31.23,146.31 C30.82,147.09 30.47,147.91 30.18,148.77 C31,149.2 31.84,149.54 32.71,149.78 C33.15,148.98 33.52,148.14 33.83,147.26 C32.98,146.88 32.11,146.56 31.23,146.31 Z M44.67,147.82 C46.11,149 46.95,149.51 48.85,149.49 C48.65,148.39 48.42,147.31 48.17,146.23 C46.99,146.74 45.83,147.27 44.67,147.82 Z M53.94,150.56 C54.85,149.14 55.7,147.7 56.48,146.2 C55.38,146.51 54.3,146.86 53.24,147.25 C53.43,148.36 53.67,149.47 53.94,150.56 Z M19.12,146.76 C17.78,146.75 16.44,146.8 15.1,146.89 C15.4,147.92 15.78,148.91 16.22,149.87 C17.99,149.69 18.18,148.02 19.12,146.76 Z M22.39,149.49 C23.83,149.44 25.26,149.37 26.69,149.27 C25.81,148.09 24.91,146.91 24,145.75 C23.46,146.99 22.92,148.24 22.39,149.49 Z M37.39,149.13 C38.66,149.31 39.92,149.47 41.19,149.63 C40.96,148.46 40.71,147.29 40.46,146.12 C39.15,146.92 38.28,147.89 37.39,149.13 Z M26.69,154.17 C28.52,153.16 29.39,152.25 30.4,150.46 C29.33,150.46 28.26,150.5 27.2,150.56 C26.98,151.75 26.81,152.96 26.69,154.17 Z M37.43,150.25 C36.37,150.34 35.32,150.46 34.26,150.61 C34.32,151.52 34.45,152.41 34.65,153.27 C35.42,153.42 36.19,153.53 36.97,153.6 C37.19,152.5 37.34,151.38 37.43,150.25 Z M42.78,154.62 C43.68,153.42 44.57,152.21 45.34,150.93 C44.28,150.62 43.19,150.37 42.08,150.18 C42.21,151.68 42.48,153.15 42.78,154.62 Z M50.09,150.11 C49.74,150.96 49.47,151.83 49.29,152.72 C50.03,153.12 50.8,153.46 51.61,153.73 C52.07,152.9 52.47,152.04 52.82,151.14 C51.95,150.73 51.04,150.39 50.09,150.11 Z M37.43,156.33 C38.65,156.7 39.86,157.07 41.08,157.45 C40.84,156.13 40.61,154.81 40.39,153.49 C39.39,154.43 38.41,155.37 37.43,156.33 Z M44.51,156.1 C46.02,156.45 47.54,156.75 49.07,157.03 C48.65,156.02 48.19,155.03 47.72,154.05 C46.6,154.67 45.57,155.39 44.51,156.1 Z M41.14,160.24 C42.41,160.51 43.68,160.77 44.96,161.02 C44.72,159.75 44.47,158.47 44.22,157.19 C43.16,158.18 42.14,159.19 41.14,160.24 Z" id="p3"></path>
                </g>
                <g id="p4-link" transform="translate(161.000000, 43.000000)" fill="#1A1A1A">
                    <path d="M2.74,0.26 C3.04,1.52 3.28,2.78 3.48,4.06 C2.32,3.59 1.19,3.07 0.07,2.52 C0.54,0.47 0.74,0.58 2.74,0.26 Z" id="p4"></path>
                </g>
                <g id="p5-link" transform="translate(165.000000, 47.000000)" fill="#1A1A1A">
                    <path d="M0.05,0.74 C1.16,0.53 2.28,0.35 3.4,0.18 C2.97,1.46 2.51,2.73 2.01,3.98 C0.63,3.03 0.35,2.33 0.05,0.74 Z" id="p5"></path>
                </g>
                <g id="p6-link" transform="translate(168.000000, 51.000000)" fill="#1A1A1A">
                    <path d="M0.98,0.52 C2.41,-0.33 3.53,1.83 2.57,2.88 C1.1,3.65 -0.06,1.62 0.98,0.52 Z" id="p6"></path>
                </g>
                <g id="p7-link" transform="translate(164.000000, 54.000000)" fill="#1A1A1A">
                    <path d="M3.35,0.13 C3.59,1.38 3.82,2.64 4.03,3.89 C2.83,3.67 1.63,3.45 0.43,3.22 C1.39,2.18 2.36,1.15 3.35,0.13 Z" id="p7"></path>
                </g>
                <g id="p8-link" transform="translate(168.000000, 57.000000)" fill="#1A1A1A">
                    <path d="M1.99,0.86 C2.92,1.96 3.76,3.13 4.58,4.31 C3.18,4.42 1.78,4.51 0.37,4.6 C0.89,3.34 1.4,2.09 1.99,0.86 Z" id="p8"></path>
                </g>
                <g id="p9-link" transform="translate(172.000000, 62.000000)" fill="#1A1A1A">
                    <path d="M0.76,1.17 C1.99,-0.2 3.99,1.38 3.13,2.93 C1.84,4.21 -0.1,2.78 0.76,1.17 Z" id="p9"></path>
                </g>
                <g id="p10-link" transform="translate(168.000000, 66.000000)" fill="#1A1A1A">
                    <path d="M0.86,0.42 C2.07,0.38 3.27,0.36 4.47,0.36 C3.63,1.69 2.75,2.99 1.84,4.27 C1.47,3 1.14,1.71 0.86,0.42 Z" id="p10"></path>
                </g>
                <g id="p11-link" transform="translate(171.000000, 69.000000)" fill="#1A1A1A">
                    <path d="M4.34,0.32 C4.43,1.71 4.51,3.09 4.58,4.48 C3.3,3.98 2.02,3.49 0.74,2.99 C1.93,2.08 3.13,1.2 4.34,0.32 Z" id="p11"></path>
                </g>
                <g id="p12-link" transform="translate(176.000000, 74.000000)" fill="#1A1A1A">
                    <path d="M0.6,0.21 C1.86,0.25 3.13,0.34 4.4,0.49 C3.2,1.71 2,2.62 0.51,3.46 C0.52,2.37 0.55,1.29 0.6,0.21 Z" id="p12"></path>
                </g>
                <g id="p13-link" transform="translate(179.000000, 78.000000)" fill="#1A1A1A">
                    <path d="M1.1,0.37 C2.45,-0.38 3.99,1.29 2.85,2.49 C1.49,3.27 -0.05,1.56 1.1,0.37 Z" id="p13"></path>
                </g>
                <g id="p14-link" transform="translate(176.000000, 81.000000)" fill="#1A1A1A">
                    <path d="M1.2,0.17 C2.17,0.32 3.02,0.68 3.77,1.26 C3.36,3.12 3.04,3.29 1.25,3.77 C0.48,2.42 -0.12,1.43 1.2,0.17 Z" id="p14"></path>
                </g>
                <g id="p15-link" transform="translate(180.000000, 85.000000)" fill="#1A1A1A">
                    <path d="M0.36,0.32 C1.24,0.29 2.13,0.3 3.02,0.36 C3.15,1.29 3.23,2.24 3.26,3.19 C2.27,3.19 1.29,3.14 0.32,3.04 C0.29,2.13 0.3,1.22 0.36,0.32 Z" id="p15"></path>
                </g>
                <g id="p16-link" transform="translate(183.000000, 89.000000)" fill="#1A1A1A">
                    <path d="M1.14,0.36 C2.66,-0.46 4.33,1.41 3.02,2.69 C1.49,3.47 -0.18,1.68 1.14,0.36 Z" id="p16"></path>
                </g>
                <g id="p17-link" transform="translate(179.000000, 91.000000)" fill="#1A1A1A">
                    <path d="M3.15,0.52 C3.51,1.96 3.83,3.41 4,4.89 C2.93,4.67 1.88,4.38 0.86,4.04 C1.54,2.82 2.33,1.66 3.15,0.52 Z" id="p17"></path>
                </g>
                <g id="p18-link" transform="translate(183.000000, 96.000000)" fill="#1A1A1A">
                    <path d="M1.61,0.71 C3.93,-0.5 5.12,2.98 2.81,3.58 C0.91,3.91 0.28,1.49 1.61,0.71 Z" id="p18"></path>
                </g>
                <g id="p19-link" transform="translate(187.000000, 99.000000)" fill="#1A1A1A">
                    <path d="M2.99,0.59 C3.34,1.96 3.64,3.35 3.92,4.73 C2.61,4.24 1.31,3.74 0.02,3.2 C0.97,2.28 1.96,1.42 2.99,0.59 Z" id="p19"></path>
                </g>
                <g id="p20-link" transform="translate(183.000000, 103.000000)" fill="#1A1A1A">
                    <path d="M3.29,0.47 C3.51,1.64 3.72,2.81 3.93,3.98 C2.74,3.78 1.55,3.57 0.37,3.35 C1.33,2.37 2.3,1.42 3.29,0.47 Z" id="p20"></path>
                </g>
                <g id="p21-link" transform="translate(186.000000, 107.000000)" fill="#1A1A1A">
                    <path d="M4.72,0.49 C4.63,1.84 4.52,3.19 4.41,4.53 C3.25,3.72 2.1,2.88 0.97,2.01 C2.22,1.49 3.47,0.98 4.72,0.49 Z" id="p21"></path>
                </g>
                <g id="p22-link" transform="translate(191.000000, 111.000000)" fill="#1A1A1A">
                    <path d="M0.96,1.14 L1.84,0.51 C5.07,0.57 3.21,2.13 2.97,4.15 C2.05,3.84 -1.24,1.87 0.96,1.14 Z" id="p22"></path>
                </g>
                <g id="p23-link" transform="translate(187.000000, 114.000000)" fill="#1A1A1A">
                    <path d="M3.7,0.73 C3.66,1.87 3.6,3.01 3.52,4.14 C2.22,4.81 1.1,4.47 0.17,3.11 C1.29,2.24 2.49,1.48 3.7,0.73 Z" id="p23"></path>
                </g>
                <g id="p24-link" transform="translate(195.000000, 115.000000)" fill="#1A1A1A">
                    <path d="M0.34,1.06 C1.94,-0.53 3.65,3.06 1.73,3.7 C0.25,3.88 -0.31,2.18 0.34,1.06 Z" id="p24"></path>
                </g>
                <g id="p25-link" transform="translate(191.000000, 119.000000)" fill="#1A1A1A">
                    <path d="M1.33,0.54 C4.01,-0.99 3.08,1.22 3.65,2.98 C1.7,4.24 -1,2.46 1.33,0.54 Z" id="p25"></path>
                </g>
                <g id="p26-link" transform="translate(195.000000, 122.000000)" fill="#1A1A1A">
                    <path d="M4.5,2.93 C3.1,3.39 1.69,3.83 0.28,4.25 C0.39,3.05 0.52,1.86 0.66,0.67 C1.98,1.36 3.25,2.13 4.5,2.93 Z" id="p26"></path>
                </g>
                <g id="p27-link" transform="translate(191.000000, 126.000000)" fill="#1A1A1A">
                    <path d="M1.12,1.11 L1.89,0.39 C4.53,1.06 3.34,2.08 3.09,4.04 C1.63,4.16 -0.62,2.18 1.12,1.11 Z" id="p27"></path>
                </g>
                <g id="p28-link" transform="translate(198.000000, 126.000000)" fill="#1A1A1A">
                    <path d="M1.84,0.97 C2.82,1.69 3.7,2.49 4.61,3.29 C3.29,3.38 1.98,3.46 0.66,3.53 C1.04,2.67 1.44,1.82 1.84,0.97 Z" id="p28"></path>
                </g>
                <g id="p29-link" transform="translate(195.000000, 129.000000)" fill="#1A1A1A">
                    <path d="M0.93,0.97 C2.17,1.98 3.27,3.13 4.37,4.29 C2.84,4.31 1.5,4.78 0.14,3.96 C0.35,2.96 0.61,1.96 0.93,0.97 Z" id="p29"></path>
                </g>
                <g id="p30-link" transform="translate(198.000000, 133.000000)" fill="#1A1A1A">
                    <path d="M3.1,0.86 C3.72,1.83 4.32,2.81 4.92,3.79 C3.44,3.9 1.95,4 0.47,4.08 C1.31,2.98 2.17,1.89 3.1,0.86 Z" id="p30"></path>
                </g>
                <g id="p31-link" transform="translate(195.000000, 138.000000)" fill="#1A1A1A">
                    <path d="M4.39,0.93 C3.13,1.89 1.85,2.82 0.52,3.69 C0.49,2.47 0.46,1.25 0.45,0.03 C1.77,0.29 3.08,0.61 4.39,0.93 Z" id="p31"></path>
                </g>
                <g id="p32-link" transform="translate(202.000000, 138.000000)" fill="#1A1A1A">
                    <path d="M1.11,0.62 C2.78,0.25 2.88,3.03 1.13,2.61 C0.38,1.96 0.37,1.29 1.11,0.62 Z" id="p32"></path>
                </g>
                <g id="p33-link" transform="translate(198.000000, 141.000000)" fill="#1A1A1A">
                    <path d="M3.44,0.71 C3.86,1.75 4.28,2.79 4.68,3.83 C3.24,3.66 1.81,3.48 0.38,3.29 C1.38,2.41 2.38,1.53 3.44,0.71 Z" id="p33"></path>
                </g>
                <g id="p34-link" transform="translate(195.000000, 146.000000)" fill="#1A1A1A">
                    <path d="M0.14,0.02 C1.66,0.17 3.15,0.51 4.64,0.84 C3.43,1.63 2.24,2.42 0.96,3.08 C0.63,2.08 0.36,1.06 0.14,0.02 Z" id="p34"></path>
                </g>
                <g id="p35-link" transform="translate(202.000000, 146.000000)" fill="#1A1A1A">
                    <polygon id="p35" points="1.1 0.34 1.93 0.34 2.33 1.05 1.9 1.76 1.07 1.76 0.66 1.04"></polygon>
                </g>
                <g id="p36-link" transform="translate(191.000000, 149.000000)" fill="#1A1A1A">
                    <path d="M1.19,0.11 C2.89,0.61 3.4,0.65 3.86,2.47 C2.8,3.08 1.71,3.66 0.6,4.2 C0.74,2.82 0.93,1.46 1.19,0.11 Z" id="p36"></path>
                </g>
                <g id="p37-link" transform="translate(198.000000, 149.000000)" fill="#1A1A1A">
                    <path d="M4.18,0.12 C3.85,1.58 3.51,3.04 3.14,4.49 C2.34,3.45 1.54,2.41 0.78,1.34 C1.91,0.91 3.04,0.51 4.18,0.12 Z" id="p37"></path>
                </g>
                <g id="p38-link" transform="translate(195.000000, 153.000000)" fill="#1A1A1A">
                    <path d="M1.34,0.48 C2.13,0.05 4.25,0.9 3.54,1.91 C3.25,3.24 2.37,3.32 1.28,3.79 C0.86,2.4 -1.14,0.81 1.34,0.48 Z" id="p38"></path>
                </g>
                <g id="p39-link" transform="translate(191.000000, 156.000000)" fill="#1A1A1A">
                    <path d="M3.83,0.92 C3.65,1.86 3.43,2.79 3.2,3.72 C2.2,4.53 1.2,4.36 0.22,3.22 C0.91,1.14 2.03,1.46 3.83,0.92 Z" id="p39"></path>
                </g>
                <g id="p40-link" transform="translate(198.000000, 156.000000)" fill="#1A1A1A">
                    <path d="M3.36,0.4 C3.48,1.57 3.6,2.75 3.71,3.92 C2.65,3.76 1.59,3.59 0.52,3.41 C1.46,2.4 2.4,1.39 3.36,0.4 Z" id="p40"></path>
                </g>
                <g id="p41-link" transform="translate(186.000000, 160.000000)" fill="#1A1A1A">
                    <path d="M4.76,0.57 C4.65,1.89 4.53,3.22 4.41,4.55 C3.24,3.71 2.09,2.86 0.95,1.98 C2.22,1.49 3.48,1.02 4.76,0.57 Z" id="p41"></path>
                </g>
                <g id="p42-link" transform="translate(195.000000, 161.000000)" fill="#1A1A1A">
                    <path d="M0.46,0.17 C1.77,0.26 3.08,0.4 4.38,0.59 C3.13,1.62 1.81,2.56 0.49,3.49 C0.46,2.38 0.45,1.27 0.46,0.17 Z" id="p42"></path>
                </g>
                <g id="p43-link" transform="translate(183.000000, 163.000000)" fill="#1A1A1A">
                    <path d="M2.93,0.79 C3.45,2.05 3.97,3.32 4.47,4.59 C3.08,4.53 1.7,4.45 0.31,4.35 C1.15,3.14 2.02,1.95 2.93,0.79 Z" id="p43"></path>
                </g>
                <g id="p44-link" transform="translate(191.000000, 164.000000)" fill="#1A1A1A">
                    <path d="M1.35,0.13 C1.86,0.53 4.04,1.01 3.57,1.88 C3.62,3.76 1.86,3.49 0.56,4.31 C0.77,2.9 1.04,1.51 1.35,0.13 Z" id="p44"></path>
                </g>
                <g id="p45-link" transform="translate(172.000000, 168.000000)" fill="#1A1A1A">
                    <path d="M1.39,0.53 C2.22,0.32 3.05,0.53 3.87,1.16 C3.51,1.75 3.15,4.62 2.1,3.61 C0.4,3.16 -0.41,1.52 1.39,0.53 Z" id="p45"></path>
                </g>
                <g id="p46-link" transform="translate(179.000000, 167.000000)" fill="#1A1A1A">
                    <path d="M4.38,0.98 C4.14,2.23 3.86,3.48 3.52,4.71 C1.72,4.89 1.66,3.76 0.9,2.49 C2.04,1.94 3.2,1.44 4.38,0.98 Z" id="p46"></path>
                </g>
                <g id="p47-link" transform="translate(187.000000, 168.000000)" fill="#1A1A1A">
                    <path d="M3.83,0.6 C3.83,1.54 3.83,2.48 3.82,3.42 C2.76,3.43 1.71,3.45 0.66,3.47 C0.69,2.5 0.72,1.54 0.77,0.57 C1.79,0.55 2.81,0.55 3.83,0.6 Z" id="p47"></path>
                </g>
                <g id="p48-link" transform="translate(161.000000, 172.000000)" fill="#1A1A1A">
                    <path d="M2.43,0.58 C3.06,1.06 3.68,1.55 4.3,2.05 C2.94,2.52 1.58,2.97 0.21,3.41 C0.33,2.29 0.46,1.18 0.6,0.06 C1.21,0.22 1.83,0.39 2.43,0.58 Z" id="p48"></path>
                </g>
                <g id="p49-link" transform="translate(168.000000, 172.000000)" fill="#1A1A1A">
                    <path d="M1.01,0.55 C2.04,0.38 3.08,0.24 4.13,0.12 C3.55,1.83 3.72,2.98 1.78,3.69 C0.79,2.74 0.53,1.69 1.01,0.55 Z" id="p49"></path>
                </g>
                <g id="p50-link" transform="translate(175.000000, 172.000000)" fill="#1A1A1A">
                    <path d="M2.53,0.13 C3.84,0.4 4.56,1.57 5.54,2.45 C3.88,2.57 2.21,2.65 0.54,2.68 C1.18,1.81 1.84,0.96 2.53,0.13 Z" id="p50"></path>
                </g>
                <g id="p51-link" transform="translate(183.000000, 172.000000)" fill="#1A1A1A">
                    <path d="M3.73,1.11 C4.95,2.98 6.02,4.95 7.05,6.93 C4.27,5.6 2.13,2.89 0.34,0.47 C1.32,0.55 3.19,0.02 3.73,1.11 Z" id="p51"></path>
                </g>
                <g id="p52-link" transform="translate(191.000000, 171.000000)" fill="#1A1A1A">
                    <path d="M1.14,1.02 C3.69,0.25 2.37,4.49 0.59,2.97 C0.24,2.2 0.42,1.55 1.14,1.02 Z" id="p52"></path>
                </g>
                <g id="p53-link" transform="translate(149.000000, 175.000000)" fill="#1A1A1A">
                    <path d="M3.28,0.39 C3.51,1.58 3.73,2.78 3.94,3.98 C2.73,3.76 1.53,3.54 0.33,3.31 C1.3,2.32 2.28,1.35 3.28,0.39 Z" id="p53"></path>
                </g>
                <g id="p54-link" transform="translate(157.000000, 175.000000)" fill="#1A1A1A">
                    <path d="M0.69,1.41 L0.95,0.62 C4.06,-0.51 4.28,4.59 1.94,4.39 C0.26,5.14 0.45,2.35 0.69,1.41 Z" id="p54"></path>
                </g>
                <g id="p55-link" transform="translate(164.000000, 175.000000)" fill="#1A1A1A">
                    <path d="M3.37,0.35 C3.6,1.56 3.82,2.78 4.03,3.99 C2.84,3.77 1.65,3.54 0.46,3.31 C1.42,2.31 2.39,1.33 3.37,0.35 Z" id="p55"></path>
                </g>
                <g id="p56-link" transform="translate(171.000000, 175.000000)" fill="#1A1A1A">
                    <path d="M4.55,0.52 C4.49,1.93 4.41,3.35 4.3,4.76 C3.11,3.89 1.94,2.99 0.81,2.06 C2.05,1.53 3.3,1.02 4.55,0.52 Z" id="p56"></path>
                </g>
                <g id="p57-link" transform="translate(180.000000, 175.000000)" fill="#1A1A1A">
                    <path d="M0.74,0.26 C1.86,1.13 2.96,2.03 4.04,2.95 C2.81,3.51 1.58,4.07 0.34,4.61 C0.44,3.16 0.56,1.71 0.74,0.26 Z" id="p57"></path>
                </g>
                <g id="p58-link" transform="translate(137.000000, 179.000000)" fill="#1A1A1A">
                    <path d="M4.63,0.67 C4.53,1.92 4.41,3.17 4.3,4.41 C3.06,3.63 1.84,2.83 0.63,2 C1.96,1.55 3.3,1.11 4.63,0.67 Z" id="p58"></path>
                </g>
                <g id="p59-link" transform="translate(145.000000, 179.000000)" fill="#1A1A1A">
                    <path d="M3.31,0.25 C3.67,1.46 4.03,2.67 4.37,3.88 C3.02,3.67 1.68,3.45 0.33,3.22 C1.3,2.2 2.27,1.19 3.31,0.25 Z" id="p59"></path>
                </g>
                <g id="p60-link" transform="translate(153.000000, 179.000000)" fill="#1A1A1A">
                    <path d="M3.63,0.51 C3.57,1.75 3.51,2.98 3.45,4.22 C2.7,3.92 1.96,3.61 1.22,3.3 L0.17,1.88 C1.31,1.41 2.47,0.95 3.63,0.51 Z" id="p60"></path>
                </g>
                <g id="p61-link" transform="translate(161.000000, 179.000000)" fill="#1A1A1A">
                    <path d="M0.71,0.76 C2.01,1.36 3.21,2.14 4.41,2.92 C2.99,3.3 1.57,3.65 0.13,3.98 C0.31,2.9 0.5,1.83 0.71,0.76 Z" id="p61"></path>
                </g>
                <g id="p62-link" transform="translate(168.000000, 179.000000)" fill="#1A1A1A">
                    <path d="M2,0.22 C2.94,1.24 3.81,2.31 4.67,3.39 C3.2,3.51 1.73,3.61 0.26,3.69 C0.81,2.52 1.39,1.36 2,0.22 Z" id="p62"></path>
                </g>
                <g id="p63-link" transform="translate(175.000000, 179.000000)" fill="#1A1A1A">
                    <path d="M4.17,0.37 C4.33,1.56 4.49,2.74 4.65,3.93 C3.31,3.68 1.97,3.43 0.64,3.16 C1.79,2.2 2.96,1.26 4.17,0.37 Z" id="p63"></path>
                </g>
                <g id="p64-link" transform="translate(183.000000, 179.000000)" fill="#1A1A1A">
                    <path d="M1.5,1.49 C2.39,1.29 3.29,1.1 4.19,0.94 C3.14,2.06 2.06,3.13 0.94,4.17 C1.1,3.27 1.29,2.38 1.5,1.49 Z" id="p64"></path>
                </g>
                <g id="p65-link" transform="translate(157.000000, 183.000000)" fill="#1A1A1A">
                    <path d="M1.23,0.31 C2.11,0.56 2.98,0.88 3.83,1.26 C3.52,2.14 3.15,2.98 2.71,3.78 C1.84,3.54 1,3.2 0.18,2.77 C0.47,1.91 0.82,1.09 1.23,0.31 Z" id="p65"></path>
                </g>
                <g id="p66-link" transform="translate(171.000000, 183.000000)" fill="#1A1A1A">
                    <path d="M4.17,0.23 C4.42,1.31 4.65,2.39 4.85,3.49 C2.95,3.51 2.11,3 0.67,1.82 C1.83,1.27 2.99,0.74 4.17,0.23 Z" id="p66"></path>
                </g>
                <g id="p67-link" transform="translate(180.000000, 183.000000)" fill="#1A1A1A">
                    <path d="M3.48,0.2 C2.7,1.7 1.85,3.14 0.94,4.56 C0.67,3.47 0.43,2.36 0.24,1.25 C1.3,0.86 2.38,0.51 3.48,0.2 Z" id="p67"></path>
                </g>
                <g id="p68-link" transform="translate(142.000000, 183.000000)" fill="#1A1A1A">
                    <path d="M0.1,0.89 C1.44,0.8 2.78,0.75 4.12,0.76 C3.18,2.02 2.99,3.69 1.22,3.87 C0.78,2.91 0.4,1.92 0.1,0.89 Z" id="p68"></path>
                </g>
                <g id="p69-link" transform="translate(149.000000, 182.000000)" fill="#1A1A1A">
                    <path d="M2,0.75 C2.91,1.91 3.81,3.09 4.69,4.27 C3.26,4.37 1.83,4.44 0.39,4.49 C0.92,3.24 1.46,1.99 2,0.75 Z" id="p69"></path>
                </g>
                <g id="p70-link" transform="translate(164.000000, 183.000000)" fill="#1A1A1A">
                    <path d="M3.46,0.12 C3.71,1.29 3.96,2.46 4.19,3.63 C2.92,3.47 1.66,3.31 0.39,3.13 C1.28,1.89 2.15,0.92 3.46,0.12 Z" id="p70"></path>
                </g>
                <g id="p71-link" transform="translate(153.000000, 187.000000)" fill="#1A1A1A">
                    <path d="M1.2,0.56 C2.26,0.5 3.33,0.46 4.4,0.46 C3.39,2.25 2.52,3.16 0.69,4.17 C0.81,2.96 0.98,1.75 1.2,0.56 Z" id="p71"></path>
                </g>
                <g id="p72-link" transform="translate(161.000000, 187.000000)" fill="#1A1A1A">
                    <path d="M0.26,0.61 C1.32,0.46 2.37,0.34 3.43,0.25 C3.34,1.38 3.19,2.5 2.97,3.6 C2.19,3.53 1.42,3.42 0.65,3.27 C0.45,2.41 0.32,1.52 0.26,0.61 Z" id="p72"></path>
                </g>
                <g id="p73-link" transform="translate(169.000000, 187.000000)" fill="#1A1A1A">
                    <path d="M0.08,0.18 C1.19,0.37 2.28,0.62 3.34,0.93 C2.57,2.21 1.68,3.42 0.78,4.62 C0.48,3.15 0.21,1.68 0.08,0.18 Z" id="p73"></path>
                </g>
                <g id="p74-link" transform="translate(176.000000, 187.000000)" fill="#1A1A1A">
                    <path d="M1.09,0.11 C2.04,0.39 2.95,0.73 3.82,1.14 C3.47,2.04 3.07,2.9 2.61,3.73 C1.8,3.46 1.03,3.12 0.29,2.72 C0.47,1.83 0.74,0.96 1.09,0.11 Z" id="p74"></path>
                </g>
                <g id="p75-link" transform="translate(164.000000, 190.000000)" fill="#1A1A1A">
                    <path d="M3.39,0.49 C3.61,1.81 3.84,3.13 4.08,4.45 C2.86,4.07 1.65,3.7 0.43,3.33 C1.41,2.37 2.39,1.43 3.39,0.49 Z" id="p75"></path>
                </g>
                <g id="p76-link" transform="translate(171.000000, 191.000000)" fill="#1A1A1A">
                    <path d="M3.72,0.05 C4.19,1.03 4.65,2.02 5.07,3.03 C3.54,2.75 2.02,2.45 0.51,2.1 C1.57,1.39 2.6,0.67 3.72,0.05 Z" id="p76"></path>
                </g>
                <g id="p77-link" transform="translate(168.000000, 194.000000)" fill="#1A1A1A">
                    <path d="M3.22,0.19 C3.47,1.47 3.72,2.75 3.96,4.02 C2.68,3.77 1.41,3.51 0.14,3.24 C1.14,2.19 2.16,1.18 3.22,0.19 Z" id="p77"></path>
                </g>
            </g>
        </g>
    </g>
</svg>