<svg width="48" height="48" viewBox="0 0 48 48" fill="none" xmlns="http://www.w3.org/2000/svg">
<path d="M30 24C30 27.3137 27.3137 30 24 30C20.6863 30 18 27.3137 18 24C18 20.6863 20.6863 18 24 18C27.3137 18 30 20.6863 30 24Z" fill="white"/>
<path fill-rule="evenodd" clip-rule="evenodd" d="M33.66 8H40C42.2 8 44 9.8 44 12V36C44 38.2 42.2 40 40 40H8C5.8 40 4 38.2 4 36V12C4 9.8 5.8 8 8 8H14.34L16.8 5.3C17.56 4.48 18.64 4 19.76 4H28.24C29.36 4 30.44 4.48 31.18 5.3L33.66 8ZM14 24C14 29.52 18.48 34 24 34C29.52 34 34 29.52 34 24C34 18.48 29.52 14 24 14C18.48 14 14 18.48 14 24Z" fill="white"/>
</svg>
