<?xml version="1.0" encoding="UTF-8" standalone="no"?>
<!DOCTYPE svg PUBLIC "-//W3C//DTD SVG 1.1//EN" "http://www.w3.org/Graphics/SVG/1.1/DTD/svg11.dtd">
<svg width="100%" height="100%" viewBox="0 0 1000 1000" version="1.1" xmlns="http://www.w3.org/2000/svg" xmlns:xlink="http://www.w3.org/1999/xlink" xml:space="preserve" xmlns:serif="http://www.serif.com/" style="fill-rule:evenodd;clip-rule:evenodd;stroke-linejoin:round;stroke-miterlimit:2;">
    <g transform="matrix(0.955617,0,0,0.955617,-757.098,-991.457)">
        <g>
            <path d="M1083.24,1509.17C1083.24,1509.17 1079.81,1570.13 1111.47,1608.11C1144.6,1647.88 1167.34,1679.29 1163.03,1711.49C1158.29,1746.85 1139.39,1805.96 1163.25,1829.28C1187.1,1852.59 1240.39,1844.48 1317.4,1839.2C1394.4,1833.91 1440.43,1842.84 1471.15,1841.99C1501.74,1841.15 1514.76,1787.33 1490.07,1712.22C1463.73,1632.09 1461.08,1579.02 1416,1576.77C1240.36,1568 1192,1595.45 1191.85,1594.56C1191.7,1593.67 1136.01,1554.87 1135.93,1504.01C1135.88,1472.89 1095.37,1468.96 1083.24,1509.17Z" style="fill:white;"/>
            <path d="M1191.86,1596.28C1191.86,1596.28 1141.41,1562.82 1129.21,1499.72C1129.21,1499.72 1111.29,1496.77 1085.27,1516.11L1085.69,1528.2C1085.69,1528.2 1106.04,1513.2 1116.06,1510.25C1126.07,1507.29 1129.44,1530.67 1135.04,1541.58C1140.55,1552.34 1146.44,1574.34 1191.86,1596.28Z" style="fill:rgb(224,224,224);"/>
            <path d="M1200.74,1715.14C1200.74,1715.14 1250.31,1719.48 1280.99,1801.1C1280.99,1801.1 1294.77,1813.87 1328.1,1802.89C1361.43,1791.92 1374.91,1765.59 1382.36,1742.95C1389.81,1720.31 1451.87,1703.9 1461.55,1682.93C1471.23,1661.96 1461.15,1767.25 1449.92,1793.72C1438.69,1820.19 1458.84,1821.21 1461.19,1822.38C1486.84,1835.11 1503.58,1799.14 1495.59,1824.49C1495.35,1825.25 1465.52,1875.83 1387.54,1843.19C1387.54,1843.19 1359.29,1834.44 1322.18,1839.06C1285.07,1843.68 1266.87,1842.95 1266.87,1842.95C1266.87,1842.95 1267.77,1743.83 1200.74,1715.14Z" style="fill:rgb(236,235,235);"/>
            <path d="M1192.35,1592.31C1191.5,1591.61 1190.02,1590.43 1188.06,1588.81C1179.46,1581.67 1161.67,1565.84 1149.74,1544.81C1142.88,1532.72 1137.95,1518.89 1137.93,1504C1137.91,1495.16 1134.82,1488.38 1130.11,1483.94C1124.67,1478.82 1117.05,1476.77 1109.26,1478.37C1098.32,1480.61 1086.9,1490.1 1081.32,1508.6C1081.28,1508.75 1081.25,1508.9 1081.24,1509.06C1081.24,1509.06 1079.84,1533.79 1086.96,1561.69C1091.1,1577.93 1098.12,1595.23 1109.93,1609.39C1127.44,1630.41 1142.05,1649.07 1151.23,1666.76C1159.15,1682.03 1163.01,1696.54 1161.05,1711.22C1157.9,1734.72 1148.55,1768.68 1149.52,1795.74C1150.03,1810.07 1153.45,1822.5 1161.85,1830.71C1171.93,1840.56 1187.07,1845.08 1206.94,1846.47C1234.76,1848.41 1272.01,1844.32 1317.53,1841.19C1340.64,1839.61 1360.95,1839.3 1378.89,1839.63C1420.72,1840.4 1449.71,1844.58 1471.2,1843.99C1488.7,1843.51 1501.15,1826.82 1504.25,1798.67C1506.74,1776.09 1503.3,1746.06 1491.97,1711.6C1476.32,1664 1468.98,1625.93 1456.22,1602.31C1447.1,1585.42 1435.25,1575.73 1416.1,1574.77C1357.76,1571.86 1313.43,1572.93 1280.24,1575.64C1235.89,1579.26 1211.33,1585.79 1199.72,1589.63C1196.04,1590.85 1193.65,1591.81 1192.35,1592.31ZM1190.25,1595.77C1190.39,1595.96 1190.58,1596.14 1190.82,1596.28C1191.07,1596.43 1191.52,1596.66 1192.22,1596.56C1192.4,1596.53 1192.8,1596.42 1193.42,1596.19C1194.59,1595.74 1197.01,1594.74 1200.98,1593.43C1212.45,1589.63 1236.73,1583.2 1280.56,1579.63C1313.63,1576.93 1357.79,1575.86 1415.9,1578.76C1433.51,1579.64 1444.32,1588.68 1452.7,1604.21C1465.38,1627.68 1472.62,1665.54 1488.17,1712.85C1499.28,1746.64 1502.71,1776.09 1500.27,1798.24C1498.77,1811.91 1495.04,1822.77 1489.43,1830.03C1484.62,1836.28 1478.41,1839.79 1471.1,1839.99C1449.64,1840.58 1420.71,1836.4 1378.96,1835.63C1360.92,1835.3 1340.5,1835.61 1317.26,1837.2C1271.96,1840.31 1234.9,1844.41 1207.22,1842.48C1188.49,1841.17 1174.14,1837.13 1164.65,1827.85C1156.92,1820.29 1153.99,1808.78 1153.51,1795.6C1152.55,1768.75 1161.89,1735.07 1165.01,1711.76C1167.08,1696.29 1163.12,1680.99 1154.78,1664.92C1145.49,1647.02 1130.73,1628.11 1113,1606.83C1101.59,1593.14 1094.84,1576.4 1090.83,1560.7C1084.28,1535.01 1085.11,1512.07 1085.22,1509.52L1085.22,1509.52C1090.27,1493.01 1100.25,1484.29 1110.06,1482.29C1116.52,1480.96 1122.86,1482.6 1127.36,1486.85C1131.38,1490.64 1133.91,1496.47 1133.93,1504.01C1133.95,1519.61 1139.07,1534.11 1146.26,1546.78C1158.48,1568.34 1176.69,1584.57 1185.5,1591.88C1187.72,1593.73 1189.34,1595 1190.09,1595.63L1190.25,1595.77ZM1193.14,1593.04C1193.67,1593.62 1193.81,1594.11 1193.82,1594.23C1193.74,1593.74 1193.52,1593.34 1193.14,1593.04Z" style="fill:rgb(59,59,59);"/>
            <g>
                <g transform="matrix(0.881698,0,0,1,137.408,0)">
                    <path d="M1164.66,1827.93C1164.66,1827.93 1183.07,1856.38 1227.28,1856.84C1269.55,1857.28 1277.52,1838.81 1276.92,1826.15C1275.41,1794.16 1269.35,1735.99 1189.82,1706.5" style="fill:white;"/>
                </g>
                <g transform="matrix(0.881698,0,0,1,137.408,0)">
                    <path d="M1159.61,1828.87C1159.61,1828.87 1169.43,1842.01 1189.49,1850.91C1199.5,1855.36 1212.08,1858.76 1227.25,1858.93C1247.63,1859.14 1260.32,1855.02 1268.03,1849.33C1277.28,1842.51 1279.61,1833.39 1279.25,1826.06C1278.79,1817.45 1278.02,1806.95 1275.55,1795.64C1272.56,1781.93 1267.11,1767.03 1256.91,1752.81C1243.94,1734.75 1223.28,1717.78 1190.12,1705.86C1189.72,1705.7 1189.25,1705.87 1189.08,1706.23C1188.91,1706.59 1189.1,1707 1189.51,1707.15C1221.77,1719.47 1241.65,1736.45 1253.99,1754.4C1263.61,1768.4 1268.6,1782.97 1271.31,1796.34C1273.56,1807.47 1274.24,1817.77 1274.6,1826.24C1274.88,1832.5 1272.91,1840.31 1264.99,1846.12C1257.87,1851.36 1246.11,1854.94 1227.31,1854.75C1212.96,1854.61 1201.06,1851.42 1191.58,1847.24C1172.71,1838.91 1163.39,1826.66 1163.39,1826.66C1162.69,1825.74 1161.29,1825.49 1160.24,1826.1C1159.2,1826.71 1158.92,1827.95 1159.61,1828.87Z" style="fill:rgb(59,59,59);"/>
                </g>
                <g transform="matrix(0.815325,-0.0502187,0.0470614,0.764064,155.268,502.831)">
                    <path d="M1162.57,1839.63C1162.57,1839.63 1183.07,1856.38 1227.28,1856.84C1269.55,1857.28 1280.64,1838.27 1276.92,1826.15C1272.05,1810.25 1239.04,1770.49 1197.83,1817.98" style="fill:white;"/>
                </g>
                <path d="M1218.42,1829.68C1218.42,1829.68 1233.9,1797.27 1259.59,1803.6L1260.48,1812.81C1260.48,1812.81 1240.55,1805.15 1218.42,1829.68Z" style="fill:rgb(236,235,235);"/>
                <g transform="matrix(0.815325,-0.0502187,0.0470614,0.764064,155.268,502.831)">
                    <path d="M1161.08,1841.7C1161.08,1841.7 1171.39,1850.25 1193.21,1855.54C1202.44,1857.77 1213.76,1859.42 1227.26,1859.58C1245.81,1859.74 1258.54,1856.24 1266.75,1851.23C1278.85,1843.84 1281.58,1833.21 1279.12,1825.38C1275.81,1815.11 1261.15,1795.28 1240.3,1793.81C1227.79,1792.93 1212.98,1798.63 1197.23,1817.4C1196.93,1817.75 1196.95,1818.29 1197.28,1818.62C1197.6,1818.94 1198.12,1818.92 1198.42,1818.57C1213.99,1801.22 1228.14,1796.05 1240.03,1797.27C1258.98,1799.23 1271.97,1817.48 1274.73,1826.91C1276.56,1833.04 1273.75,1840.91 1264.28,1846.57C1256.56,1851.18 1244.65,1854.31 1227.31,1854.1C1214.24,1853.98 1203.27,1852.41 1194.32,1850.28C1173.82,1845.39 1164.06,1837.56 1164.06,1837.56C1162.98,1836.68 1161.44,1836.9 1160.62,1838.04C1159.8,1839.19 1160.01,1840.83 1161.08,1841.7Z" style="fill:rgb(59,59,59);"/>
                </g>
            </g>
            <path d="M1113.63,1607.51C1113.63,1607.51 1170.56,1648.18 1174.29,1694.39C1176.34,1719.69 1166.24,1749.69 1163.42,1776.23C1160.6,1802.77 1163.25,1825.92 1193.88,1841.5C1224.51,1857.08 1277.89,1843.76 1279.16,1831.51C1279.16,1831.51 1290.92,1849.57 1265.43,1854.92C1234.69,1861.37 1207.43,1860.96 1174.88,1839.52C1150.9,1823.72 1153.05,1788.59 1153.86,1777.98C1154.67,1767.37 1168.17,1709.24 1164.49,1691.86C1158.15,1661.91 1134.4,1633.56 1113.63,1607.51Z" style="fill:rgb(236,235,235);"/>
            <g>
                <g transform="matrix(-0.812989,0.0795313,0.074531,0.761875,2292.23,343.708)">
                    <path d="M1162.57,1839.63C1162.57,1839.63 1183.07,1856.38 1227.28,1856.84C1269.55,1857.28 1280.64,1838.27 1276.92,1826.15C1272.05,1810.25 1239.04,1770.49 1197.83,1817.98" style="fill:rgb(236,235,235);"/>
                </g>
                <g transform="matrix(-0.812989,0.0795313,0.074531,0.761875,2292.23,343.708)">
                    <path d="M1164.06,1837.56C1164.06,1837.56 1173.82,1845.39 1194.32,1850.28C1203.27,1852.41 1214.24,1853.98 1227.31,1854.1C1244.65,1854.31 1256.57,1851.19 1264.28,1846.58C1273.75,1840.91 1276.56,1833.04 1274.72,1826.92C1271.96,1817.49 1258.96,1799.26 1240.03,1797.33C1228.15,1796.12 1214.02,1801.3 1198.49,1818.64C1198.15,1819.04 1197.58,1819.06 1197.21,1818.7C1196.84,1818.33 1196.82,1817.72 1197.16,1817.33C1212.94,1798.55 1227.78,1792.87 1240.3,1793.76C1261.17,1795.24 1275.83,1815.1 1279.12,1825.38C1281.58,1833.21 1278.85,1843.84 1266.74,1851.22C1258.54,1856.23 1245.8,1859.74 1227.26,1859.57C1213.76,1859.41 1202.44,1857.77 1193.21,1855.53C1171.39,1850.25 1161.08,1841.7 1161.08,1841.7C1160.01,1840.83 1159.8,1839.19 1160.62,1838.04C1161.44,1836.9 1162.98,1836.68 1164.06,1837.56Z" style="fill:rgb(59,59,59);"/>
                </g>
            </g>
            <g>
                <g transform="matrix(0.903864,0,0,0.825642,140.373,307.127)">
                    <path d="M1377.99,1706.09C1377.99,1706.09 1381.78,1758.65 1349.22,1799.69C1323.95,1831.53 1327.24,1877.13 1363.37,1876.29C1402.05,1875.39 1468.15,1736.42 1461.6,1655.11" style="fill:white;"/>
                </g>
                <g transform="matrix(0.903864,0,0,0.825642,140.373,307.127)">
                    <path d="M1377.33,1706.14C1377.33,1706.14 1378.72,1728.61 1370.47,1755.47C1366.16,1769.49 1359.23,1784.72 1348.04,1798.56C1333.19,1817 1327.86,1840.11 1332.61,1856.58C1336.42,1869.77 1346.54,1878.95 1363.41,1878.65C1371.22,1878.49 1380.18,1873.17 1389.36,1863.78C1395.15,1857.86 1401.06,1850.33 1406.89,1841.58C1414.08,1830.77 1421.14,1818.09 1427.69,1804.28C1438.25,1782.04 1447.49,1756.89 1453.85,1731.99C1460.84,1704.64 1464.32,1677.6 1462.3,1655.04C1462.26,1654.62 1461.92,1654.31 1461.54,1654.35C1461.16,1654.39 1460.88,1654.76 1460.91,1655.18C1463.49,1691.04 1451.73,1737.96 1434.62,1779.24C1426.21,1799.53 1416.51,1818.45 1406.54,1834C1401.46,1841.92 1396.32,1848.97 1391.25,1854.88C1385.88,1861.13 1380.6,1866.09 1375.54,1869.4C1371.25,1872.21 1367.15,1873.83 1363.32,1873.93C1348.7,1874.35 1339.8,1866.64 1336.37,1855.25C1331.75,1839.89 1336.73,1818.3 1350.4,1800.81C1361.62,1786.41 1368.48,1770.69 1372.64,1756.24C1380.52,1728.8 1378.65,1706.03 1378.65,1706.03C1378.62,1705.63 1378.3,1705.33 1377.93,1705.36C1377.57,1705.39 1377.3,1705.74 1377.33,1706.14Z" style="fill:rgb(59,59,59);"/>
                </g>
            </g>
            <g>
                <path d="M1280.04,1849.23C1280.04,1849.23 1280.47,1846.7 1280.1,1843.44C1279.9,1841.67 1279.49,1839.68 1278.62,1837.79C1278.13,1836.72 1277.51,1835.67 1276.71,1834.73C1275.07,1832.79 1272.84,1831.18 1269.72,1830.42C1269.1,1830.22 1268.44,1830.55 1268.23,1831.16C1268.02,1831.77 1268.35,1832.44 1268.96,1832.65C1271.61,1833.8 1273.15,1835.68 1274.2,1837.67C1274.92,1839.03 1275.36,1840.47 1275.65,1841.84C1276.43,1845.45 1276.08,1848.66 1276.08,1848.66C1275.92,1849.75 1276.68,1850.77 1277.77,1850.92C1278.86,1851.08 1279.88,1850.32 1280.04,1849.23Z" style="fill:rgb(59,59,59);"/>
                <path d="M1259.27,1859.74C1259.27,1859.74 1264.38,1855.96 1261.43,1848.37C1260.93,1847.07 1260.17,1845.63 1259.02,1844.13C1257.31,1841.9 1254.78,1839.51 1251.16,1836.86C1250.66,1836.44 1249.92,1836.5 1249.5,1837C1249.08,1837.49 1249.14,1838.24 1249.64,1838.65C1252.07,1841.06 1253.79,1843.24 1255.11,1845.16C1256.32,1846.92 1257.1,1848.45 1257.59,1849.81C1259.21,1854.36 1256.77,1856.62 1256.77,1856.62C1255.91,1857.31 1255.77,1858.57 1256.46,1859.43C1257.15,1860.29 1258.41,1860.43 1259.27,1859.74Z" style="fill:rgb(59,59,59);"/>
            </g>
            <g>
                <path d="M1347.62,1845.2C1347.62,1845.2 1353.05,1846.81 1358.1,1841.8C1359.09,1840.82 1360.07,1839.59 1360.92,1837.99C1362.21,1835.56 1363.24,1832.33 1363.87,1828.05C1364.01,1827.42 1363.62,1826.79 1362.98,1826.64C1362.35,1826.5 1361.72,1826.9 1361.58,1827.53C1360.62,1830.63 1359.46,1833 1358.33,1834.92C1357.32,1836.63 1356.27,1837.89 1355.25,1838.85C1351.91,1841.97 1348.62,1841.32 1348.62,1841.32C1347.55,1841.05 1346.46,1841.69 1346.18,1842.76C1345.91,1843.83 1346.55,1844.92 1347.62,1845.2Z" style="fill:rgb(59,59,59);"/>
            </g>
            <g>
                <path d="M1368.67,1857.94C1368.67,1857.94 1371.73,1857.4 1375.02,1854.95C1376.62,1853.75 1378.31,1852.12 1379.65,1849.85C1380.3,1848.75 1380.86,1847.51 1381.29,1846.1C1382.06,1843.58 1382.43,1840.58 1382.15,1836.98C1382.15,1836.33 1381.63,1835.8 1380.98,1835.8C1380.33,1835.8 1379.8,1836.33 1379.81,1836.98C1379.6,1839.65 1379.03,1841.87 1378.31,1843.79C1377.74,1845.32 1377.01,1846.59 1376.25,1847.71C1375.1,1849.42 1373.81,1850.7 1372.55,1851.64C1370.09,1853.48 1367.87,1854.03 1367.87,1854.03C1366.78,1854.25 1366.09,1855.31 1366.31,1856.39C1366.54,1857.47 1367.6,1858.17 1368.67,1857.94Z" style="fill:rgb(59,59,59);"/>
                <path d="M1408.17,1854.36C1408.17,1854.36 1407.86,1852.17 1408.18,1849.22C1408.35,1847.69 1408.71,1845.97 1409.35,1844.21C1410,1842.42 1410.88,1840.58 1412.36,1838.91C1413.24,1837.92 1414.24,1836.96 1415.51,1836.12C1416.08,1835.81 1416.29,1835.09 1415.98,1834.52C1415.67,1833.95 1414.95,1833.75 1414.38,1834.06C1411.36,1835.41 1409.17,1837.31 1407.56,1839.42C1406.76,1840.47 1406.13,1841.58 1405.63,1842.71C1404.71,1844.79 1404.28,1846.91 1404.08,1848.77C1403.69,1852.37 1404.23,1855.05 1404.23,1855.05C1404.42,1856.14 1405.46,1856.86 1406.54,1856.67C1407.63,1856.48 1408.36,1855.45 1408.17,1854.36Z" style="fill:rgb(59,59,59);"/>
            </g>
        </g>
        <g>
            <path d="M1192.62,1599.19C1192.62,1599.19 1188.28,1624.48 1256.99,1643.8C1301.34,1656.27 1338.85,1655.57 1366.1,1650.68C1391.06,1646.2 1461.63,1626.87 1452.02,1601.52C1452.02,1601.52 1310.76,1649.35 1192.62,1599.19Z" style="fill:rgb(236,235,235);"/>
            <path d="M1205.7,1577.61C1205.7,1577.61 1255.65,1605.92 1322.32,1607.02C1390.94,1608.16 1426.91,1581.9 1427.68,1582.1C1428.44,1582.31 1448.14,1577.12 1451.91,1589.98C1456.67,1606.2 1437.36,1615.23 1420.91,1622.33C1404.46,1629.44 1366.22,1641.91 1323.96,1640.04C1281.69,1638.17 1220.17,1625.03 1201.21,1609.33C1182.25,1593.63 1199.61,1573.62 1205.7,1577.61Z" style="fill:rgb(255,73,73);"/>
            <path d="M1197.34,1585.95C1197.34,1585.95 1194.28,1590.03 1205.94,1598.29C1220.46,1608.57 1262.94,1627.43 1324.74,1627.52C1379.49,1627.59 1438.25,1611.73 1449.19,1588.67C1449.19,1588.67 1434.64,1593.78 1422.38,1597.98C1410.11,1602.18 1378.12,1615.3 1322.13,1615.64C1270.6,1615.95 1227.58,1601.57 1197.34,1585.95Z" style="fill:rgb(235,27,27);"/>
            <path d="M1427.85,1580.13C1427.51,1580.12 1426.93,1580.18 1426.21,1580.58C1425.51,1580.97 1424.08,1581.85 1421.93,1583.04C1414.76,1587.04 1399.46,1594.67 1376.33,1599.81C1361.51,1603.1 1343.5,1605.37 1322.36,1605.02C1300.26,1604.66 1280.01,1601.28 1262.84,1596.94C1229.69,1588.57 1208.03,1576.62 1206.75,1575.91L1206.74,1575.9C1205.16,1574.9 1203.09,1574.82 1200.89,1575.75C1196.62,1577.55 1191.64,1583.45 1190.74,1590.83C1189.99,1597.04 1192.03,1604.32 1199.93,1610.87C1208.79,1618.2 1226.74,1625.06 1247.77,1630.43C1272.24,1636.69 1300.89,1641.02 1323.87,1642.04C1341.63,1642.82 1358.68,1641.1 1373.74,1638.31C1394.84,1634.39 1412.02,1628.36 1421.71,1624.17C1431.1,1620.11 1441.37,1615.4 1447.8,1609.19C1453.35,1603.84 1456.17,1597.4 1453.83,1589.42C1452.39,1584.5 1448.98,1581.82 1444.99,1580.45C1439.27,1578.49 1432.27,1579.41 1429.04,1579.91C1428.39,1580.01 1427.68,1580.11 1427.68,1580.11L1427.85,1580.13ZM1428.14,1584.08C1428.46,1584.05 1428.97,1583.97 1429.65,1583.86C1432.5,1583.42 1438.66,1582.51 1443.69,1584.24C1446.52,1585.2 1448.97,1587.07 1449.99,1590.55C1451.87,1596.93 1449.46,1602.03 1445.03,1606.31C1438.9,1612.23 1429.06,1616.63 1420.12,1620.5C1410.61,1624.61 1393.73,1630.52 1373.01,1634.37C1358.22,1637.12 1341.48,1638.81 1324.05,1638.04C1301.31,1637.04 1272.97,1632.75 1248.76,1626.56C1228.44,1621.36 1211.04,1614.88 1202.49,1607.79C1195.95,1602.38 1194.09,1596.44 1194.71,1591.32C1195.31,1586.41 1198.1,1582.29 1200.98,1580.26C1201.72,1579.75 1202.45,1579.37 1203.15,1579.2C1203.7,1579.06 1204.21,1579.02 1204.61,1579.29C1204.64,1579.31 1204.68,1579.33 1204.72,1579.35C1204.72,1579.35 1227.07,1592.03 1261.86,1600.82C1279.3,1605.22 1299.85,1608.65 1322.29,1609.02C1343.8,1609.38 1362.12,1607.06 1377.19,1603.71C1400.87,1598.45 1416.53,1590.62 1423.88,1586.54C1426.01,1585.35 1427.44,1584.48 1428.14,1584.08Z" style="fill:rgb(59,59,59);"/>
            <g transform="matrix(1.02787,0,0,1.13035,-37.7852,-230.165)">
                <ellipse cx="1324.73" cy="1666.84" rx="34.046" ry="30.707" style="fill:rgb(236,235,235);"/>
            </g>
            <g transform="matrix(0.136983,0,0,0.136983,1162.91,1575.21)">
                <g>
                    <g transform="matrix(1,0,0,1,-295.448,56.7653)">
                        <circle cx="1469.85" cy="477.56" r="253.23" style="fill:url(#_Linear1);"/>
                    </g>
                    <g transform="matrix(1,0,0,1,-295.448,56.7653)">
                        <path d="M1469.85,218.197C1398.28,218.197 1333.44,247.25 1286.49,294.197C1239.54,341.145 1210.49,405.986 1210.49,477.56C1210.49,549.133 1239.54,613.974 1286.49,660.922C1333.44,707.869 1398.28,736.922 1469.85,736.922C1541.43,736.922 1606.27,707.869 1653.22,660.922C1700.16,613.974 1729.22,549.133 1729.22,477.56C1729.22,405.986 1700.16,341.145 1653.22,294.197C1606.27,247.25 1541.43,218.197 1469.85,218.197ZM1469.85,230.463C1538.04,230.463 1599.82,258.144 1644.54,302.871C1689.27,347.598 1716.95,409.372 1716.95,477.56C1716.95,545.748 1689.27,607.521 1644.54,652.248C1599.82,696.975 1538.04,724.656 1469.85,724.656C1401.67,724.656 1339.89,696.975 1295.17,652.248C1250.44,607.521 1222.76,545.748 1222.76,477.56C1222.76,409.372 1250.44,347.598 1295.17,302.871C1339.89,258.144 1401.67,230.463 1469.85,230.463Z" style="fill:rgb(193,136,0);"/>
                    </g>
                    <g transform="matrix(0.826479,0,0,0.826479,-38.2736,142.963)">
                        <circle cx="1469.85" cy="477.56" r="253.23" style="fill:rgb(238,181,0);"/>
                    </g>
                    <g transform="matrix(0.793785,0,0,0.786794,9.78188,161.914)">
                        <circle cx="1469.85" cy="477.56" r="253.23" style="fill:url(#_Linear2);"/>
                    </g>
                </g>
                <g transform="matrix(0.790579,0,0,0.790579,440.076,268.839)">
                    <g transform="matrix(0.642404,0.64184,-0.63287,0.633426,1101.89,-482.928)">
                        <rect x="591.693" y="638.386" width="68.49" height="68.258" style="fill:url(#_Linear3);"/>
                    </g>
                    <g transform="matrix(0.642404,0.64184,-0.63287,0.633426,1101.89,-482.928)">
                        <rect x="365.553" y="862.713" width="67.245" height="69.522" style="fill:url(#_Linear4);"/>
                    </g>
                    <g transform="matrix(0.642404,0.64184,-0.63287,0.633426,1101.89,-341.668)">
                        <path d="M481.747,751.111L365.553,751.111L365.553,820.632L550.236,820.632L550.236,638.386L481.747,638.386L481.747,751.111Z" style="fill:url(#_Linear5);"/>
                    </g>
                    <g transform="matrix(0.642404,0.64184,-0.63287,0.633426,1101.89,-570.924)">
                        <path d="M612.475,886.287L434.043,886.287L434.043,707.907L612.475,707.907L612.475,819.51L612.475,776.165L501.287,776.165L501.287,886.287L612.475,886.287Z" style="fill:url(#_Linear6);"/>
                    </g>
                    <g transform="matrix(0.642404,0.64184,-0.63287,0.633426,1101.89,-570.924)">
                        <rect x="543.989" y="819.51" width="68.487" height="66.777" style="fill:url(#_Linear7);"/>
                    </g>
                </g>
            </g>
        </g>
        <g transform="matrix(0.807705,0.0615989,-0.0615989,0.807705,288.838,377.883)">
            <g transform="matrix(1.00109,0,0,0.922078,-1.23669,111.589)">
                <path d="M1140.96,1222.4C1148.27,1132.57 1170.62,1062.82 1220.73,1010.1C1278.59,949.209 1429.47,911.704 1515.93,1006.71C1578.96,1075.97 1591.33,1113.14 1608.8,1206.29C1621.67,1274.93 1615.61,1323.59 1559.96,1361.46C1491.14,1408.29 1449.5,1420.78 1383.37,1424.24C1333.77,1426.83 1289.88,1433.66 1197.93,1376.64C1143.67,1342.99 1136.15,1281.39 1140.96,1222.4Z" style="fill:white;"/>
            </g>
            <g transform="matrix(0.896984,0,0,0.896984,135.838,107.349)">
                <path d="M1138.11,1177.52C1138.11,1177.52 1092.79,1328.83 1151.31,1391.04C1214.27,1457.98 1330.59,1472.4 1317.32,1468.49C1264.49,1452.91 1196.45,1411.83 1177.26,1384.75C1129.19,1316.88 1131.55,1273.83 1138.11,1177.52Z" style="fill:rgb(236,235,235);"/>
            </g>
            <g transform="matrix(-0.896984,0,0,0.896984,2618.32,98.3105)">
                <path d="M1147.57,1177.05C1147.57,1177.05 1083.24,1332.08 1149.45,1392.14C1217.52,1453.89 1328.95,1474.52 1315.68,1470.6C1270.08,1457.16 1214.36,1423.13 1187.63,1396.66C1183.4,1392.46 1179.89,1388.45 1177.26,1384.75C1129.19,1316.88 1141.01,1273.36 1147.57,1177.05Z" style="fill:rgb(236,235,235);"/>
            </g>
            <g transform="matrix(1.00109,0,0,0.922078,-1.23669,111.589)">
                <path d="M1137.96,1222.12C1135.5,1252.37 1136.27,1283.3 1144.7,1310.91C1153.05,1338.25 1168.87,1362.37 1196.44,1379.47C1232.64,1401.92 1261.46,1414.54 1286.12,1421.44C1324.63,1432.23 1353.01,1429.09 1383.52,1427.49C1419.03,1425.64 1447.54,1421.18 1476.91,1410.31C1502.69,1400.78 1529.13,1386.29 1561.56,1364.23C1590.57,1344.48 1606.39,1321.82 1613.28,1295.14C1619.89,1269.49 1618.19,1240.03 1611.74,1205.64C1602.9,1158.5 1595.33,1125.61 1581.96,1095.68C1568.69,1065.99 1549.72,1039.2 1518.07,1004.41C1477.04,959.332 1421.75,943.558 1368.47,945.934C1307.84,948.637 1249.88,974.879 1218.63,1007.75C1191.94,1035.84 1173.02,1068.7 1160.01,1106.78C1148.36,1140.9 1141.46,1179.23 1137.96,1222.12ZM1143.95,1222.69C1147.39,1180.44 1154.17,1142.67 1165.65,1109.05C1178.34,1071.9 1196.78,1039.84 1222.82,1012.44C1253.23,980.442 1309.71,955.084 1368.72,952.453C1420.37,950.15 1474.02,965.296 1513.79,1009C1544.86,1043.14 1563.53,1069.38 1576.55,1098.53C1589.73,1128.03 1597.14,1160.47 1605.85,1206.94C1612.08,1240.15 1613.88,1268.61 1607.49,1293.38C1600.97,1318.65 1585.85,1340 1558.37,1358.7C1526.41,1380.44 1500.37,1394.74 1474.97,1404.14C1446.12,1414.81 1418.11,1419.15 1383.23,1420.98C1353.28,1422.54 1325.43,1425.71 1287.62,1415.12C1263.37,1408.33 1235.03,1395.89 1199.42,1373.81C1173.3,1357.61 1158.32,1334.76 1150.4,1308.85C1142.23,1282.07 1141.56,1252.05 1143.95,1222.69Z" style="fill:rgb(59,59,59);"/>
            </g>
            <g transform="matrix(1.77561,0.0757047,-0.0741657,1.74064,340.902,-352.149)">
                <g transform="matrix(0.994231,0.10832,-0.100697,0.991676,40.1989,-20.2472)">
                    <ellipse cx="713.584" cy="827.998" rx="12.132" ry="11.904" style="fill:rgb(66,66,66);"/>
                </g>
                <g transform="matrix(0.590855,0.0643731,-0.0597553,0.588477,293.079,347.624)">
                    <ellipse cx="713.584" cy="827.998" rx="12.132" ry="11.904" style="fill:rgb(48,46,46);"/>
                </g>
                <g transform="matrix(0.239094,0.026049,-0.0247783,0.24402,521.271,654.183)">
                    <ellipse cx="713.584" cy="827.998" rx="12.132" ry="11.904" style="fill:white;"/>
                </g>
            </g>
            <g transform="matrix(1.77561,0.0757047,-0.0741657,1.74064,163.806,-340.667)">
                <g transform="matrix(0.994231,0.10832,-0.100697,0.991676,40.1989,-20.2472)">
                    <ellipse cx="713.584" cy="827.998" rx="12.132" ry="11.904" style="fill:rgb(66,66,66);"/>
                </g>
                <g transform="matrix(0.590855,0.0643731,-0.0597553,0.588477,293.079,347.624)">
                    <ellipse cx="713.584" cy="827.998" rx="12.132" ry="11.904" style="fill:rgb(48,46,46);"/>
                </g>
                <g transform="matrix(0.239094,0.026049,-0.0247783,0.24402,521.271,654.183)">
                    <ellipse cx="713.584" cy="827.998" rx="12.132" ry="11.904" style="fill:white;"/>
                </g>
            </g>
            <g transform="matrix(1.77713,0.0181385,-0.0177697,1.74212,281.773,-313.83)">
                <g transform="matrix(0.950013,-0.0512313,0.0522714,0.969301,-23.4718,95.3428)">
                    <path d="M614.907,899.534C614.907,899.534 617.713,906.25 626.246,912.305C633.701,917.595 641.76,907.422 644.404,898.419C644.404,898.419 632.201,899.909 628.553,885.527C628.553,885.527 628.528,898.271 614.907,899.534Z" style="fill:rgb(255,198,198);"/>
                </g>
                <g transform="matrix(0.950013,-0.0512313,0.0522714,0.969301,-23.4718,95.3428)">
                    <path d="M623.836,894.596C622.007,896.684 613.138,899.051 613.138,899.051C613.138,899.051 614.833,903.37 618.448,907.617C620.096,909.554 622.348,911.79 625.087,913.859C629.064,916.831 633.469,915.959 637.21,913.21C641.343,910.173 644.789,904.397 646.425,899.008C646.625,898.328 646.47,897.594 646.013,897.054C645.555,896.515 644.857,896.242 644.153,896.328C644.153,896.328 639.406,896.965 635.256,893.625C633.163,891.941 631.198,889.318 629.984,885.161C629.801,884.44 629.11,883.969 628.372,884.062C627.633,884.155 627.078,884.783 627.077,885.527C627.077,885.527 627.302,890.641 623.836,894.596ZM616.937,899.416C616.937,899.416 623.271,897.865 625.268,895.975C626.95,894.383 628.039,892.542 628.744,890.853C629.87,893.293 631.301,895.117 632.817,896.485C635.779,899.158 639.114,900.102 641.488,900.413C640.73,902.295 639.751,904.153 638.622,905.825C637.493,907.496 636.225,908.987 634.837,910.088C632.512,911.933 629.835,912.206 627.233,910.917C624.389,909.507 622.496,907.325 620.86,905.636C618.452,903.15 617.583,900.525 616.937,899.416Z" style="fill:rgb(59,59,59);"/>
                </g>
                <g transform="matrix(0.998549,-0.0538487,0.0538487,0.998549,-55.6469,62.9973)">
                    <path d="M602.003,898.971C602.003,898.971 602.006,901.801 604.863,904.356C606.448,905.774 608.951,907.085 612.904,907.733C616.151,908.243 620.767,907.649 624.532,904.854C626.288,903.552 627.845,901.765 628.999,899.4C629.946,900.904 631.257,902.513 633.044,903.886C635.549,905.812 638.986,907.286 643.627,907.315C645.252,907.31 648.523,906.894 651.343,905.222C653.56,903.908 655.528,901.886 656.232,898.764C656.373,898.243 656.074,897.704 655.564,897.561C655.054,897.418 654.525,897.725 654.384,898.245C653.627,900.618 651.956,902.034 650.152,902.906C647.748,904.067 645.069,904.206 643.749,904.103C640.014,903.848 637.328,902.502 635.377,900.86C633.798,899.531 632.732,897.985 631.996,896.644C630.995,894.818 630.639,893.371 630.639,893.371C630.427,892.422 629.586,891.762 628.633,891.796C627.68,891.831 626.883,892.55 626.734,893.511C626.196,897.517 624.517,900.242 622.39,902.022C619.494,904.444 615.854,905.214 613.221,905.002C610.531,904.803 608.57,904.21 607.142,903.429C603.798,901.601 603.465,898.891 603.465,898.891C603.444,898.48 603.1,898.164 602.697,898.185C602.293,898.207 601.982,898.559 602.003,898.971Z" style="fill:rgb(59,59,59);"/>
                </g>
            </g>
            <g transform="matrix(1.61858,-0.734199,1.16972,2.58039,-672.274,-618.925)">
                <ellipse cx="669.529" cy="919.793" rx="10.044" ry="2.984" style="fill:rgb(153,193,152);"/>
            </g>
            <g transform="matrix(1.56906,0.834866,-1.33011,2.50144,1434.5,-1576.63)">
                <ellipse cx="669.529" cy="919.793" rx="10.044" ry="2.984" style="fill:rgb(153,193,152);"/>
            </g>
            <g>
                <g transform="matrix(-0.960762,-0.0430786,-0.0354478,0.790575,2750.56,320.471)">
                    <path d="M1176.86,1132.32C1176.86,1132.32 1134.01,1086.05 1106.34,940.582C1106.34,940.582 1134.31,923.518 1166.99,918.147C1200.78,912.594 1243.47,911.781 1286.11,964.789" style="fill:white;"/>
                </g>
                <g transform="matrix(-0.960762,-0.0430786,-0.0354478,0.790575,2750.56,320.471)">
                    <path d="M1175.58,1134.07C1175.58,1134.07 1157.31,1115.25 1136.37,1062.88C1128.72,1043.75 1120.69,1020.12 1113.16,991.259C1109.24,976.233 1105.52,959.77 1101.97,941.81C1101.5,939.358 1102.48,936.838 1104.33,935.709C1104.33,935.709 1116.66,928.054 1134.65,921.378C1144.03,917.898 1154.94,914.735 1166.41,912.94C1186.18,909.965 1208.9,908.58 1232.77,918.159C1250.79,925.391 1269.46,938.853 1287.97,962.577C1288.98,963.826 1288.96,965.831 1287.93,967.051C1286.9,968.272 1285.26,968.249 1284.25,967C1266.03,945.027 1247.94,932.829 1230.6,926.482C1207.78,918.122 1186.27,920.021 1167.57,923.354C1156.63,925.237 1146.26,928.508 1137.32,931.888C1125.44,936.375 1116.12,941.157 1111.51,943.671C1114.54,959.778 1117.78,974.629 1121.07,988.334C1127.93,1016.93 1135.18,1040.47 1142.19,1059.58C1161.17,1111.33 1178.14,1130.57 1178.14,1130.57C1178.93,1131.43 1179,1132.91 1178.3,1133.87C1177.59,1134.84 1176.38,1134.92 1175.58,1134.07Z" style="fill:rgb(59,59,59);"/>
                </g>
                <g transform="matrix(-0.996031,-0.04466,-0.0438615,0.978223,2806.53,112.852)">
                    <path d="M1183.63,1098.12C1183.63,1098.12 1197.05,1031.93 1264.33,1001.2C1264.33,1001.2 1230.6,956.444 1136.08,982.638C1136.08,982.638 1145.57,1050.76 1183.63,1098.12Z" style="fill:rgb(117,190,116);"/>
                </g>
            </g>
            <g>
                <g transform="matrix(0.957898,-0.113427,0.095034,0.802568,-63.3552,395.329)">
                    <path d="M1167.86,1120.3C1167.86,1120.3 1116.69,1085.11 1118.4,944.411C1118.4,944.411 1140.69,925.68 1172.61,918.632C1204.95,911.491 1247.17,916.338 1286.11,964.789" style="fill:white;"/>
                </g>
                <g transform="matrix(0.957898,-0.113427,0.095034,0.802568,-63.3552,395.329)">
                    <path d="M1169.23,1117.44C1169.23,1117.44 1149.15,1102.86 1135.48,1056.36C1131.09,1041.43 1127.39,1023.25 1125.15,1001.25C1123.52,985.344 1122.63,967.458 1122.87,947.356C1126.38,944.715 1134.63,938.905 1146.12,933.379C1153.89,929.644 1163.11,925.987 1173.39,923.613C1191.02,919.443 1211.71,918.942 1233.3,927.559C1250.13,934.279 1267.5,946.463 1284.38,966.779C1285.3,967.924 1286.82,967.961 1287.78,966.863C1288.74,965.765 1288.77,963.944 1287.85,962.799C1270.81,940.877 1252.99,927.431 1235.58,919.795C1212.81,909.812 1190.72,909.778 1171.84,913.65C1160.92,915.952 1151.07,919.56 1142.81,923.429C1126.08,931.264 1115.8,940.006 1115.8,940.006C1114.62,940.999 1113.91,942.608 1113.89,944.333C1113.73,966.171 1114.78,985.497 1116.78,1002.55C1119.44,1025.31 1123.69,1044.04 1128.57,1059.37C1144.24,1108.6 1166.48,1123.15 1166.48,1123.15C1167.8,1124.06 1169.49,1123.51 1170.25,1121.94C1171.01,1120.36 1170.55,1118.35 1169.23,1117.44Z" style="fill:rgb(59,59,59);"/>
                </g>
                <g transform="matrix(0.993062,-0.117591,0.117591,0.993062,-134.992,187.939)">
                    <path d="M1183.63,1098.12C1183.63,1098.12 1198.46,1032.19 1265.74,1001.46C1265.74,1001.46 1222.99,957.807 1142.56,990.116C1142.56,990.116 1148.25,1078.18 1183.63,1098.12Z" style="fill:rgb(117,190,116);"/>
                </g>
            </g>
        </g>
        <g>
            <g transform="matrix(1,0,0,1,3.83157,0.232878)">
                <path d="M1077.6,1516.64C1069.59,1517.98 1046.97,1498.81 1070.76,1471.21C1089.5,1449.48 1118.23,1455.54 1127.86,1465.05C1133.78,1470.9 1138.59,1498.06 1118.81,1499.3C1099.03,1500.54 1089.29,1514.69 1077.6,1516.64Z" style="fill:white;"/>
            </g>
            <g transform="matrix(1,0,0,1,3.83157,0.232878)">
                <path d="M1077.92,1518.61C1082.07,1517.92 1086,1515.83 1090.15,1513.24C1094.93,1510.27 1100.05,1506.63 1106.37,1504.13C1110.08,1502.66 1114.2,1501.59 1118.94,1501.3C1127.24,1500.77 1131.71,1496.21 1133.73,1490.37C1135.81,1484.37 1135.18,1476.91 1133.38,1471.26C1132.3,1467.87 1130.79,1465.14 1129.26,1463.63C1123.47,1457.91 1111.14,1453.26 1097.93,1454.67C1088.05,1455.73 1077.68,1460.13 1069.25,1469.91C1060.3,1480.29 1057.67,1489.58 1058.25,1497.13C1058.91,1505.62 1063.64,1512.01 1068.51,1515.52C1071.96,1518.01 1075.52,1519.01 1077.92,1518.61L1077.92,1518.61ZM1077.27,1514.67C1075.61,1514.94 1073.23,1513.99 1070.85,1512.28C1066.76,1509.33 1062.79,1503.95 1062.24,1496.82C1061.72,1490.06 1064.26,1481.82 1072.28,1472.52C1079.95,1463.62 1089.37,1459.61 1098.35,1458.65C1110.18,1457.39 1121.27,1461.35 1126.45,1466.48C1127.64,1467.65 1128.73,1469.83 1129.57,1472.47C1131.13,1477.37 1131.76,1483.85 1129.95,1489.06C1128.41,1493.5 1124.98,1496.91 1118.69,1497.3C1113.5,1497.63 1108.96,1498.8 1104.9,1500.41C1098.34,1503.01 1093,1506.76 1088.04,1509.85C1084.37,1512.13 1080.93,1514.06 1077.27,1514.67L1077.27,1514.67Z" style="fill:rgb(59,59,59);"/>
            </g>
            <path d="M1093.96,1508.86C1093.96,1508.86 1090.68,1508.34 1087.84,1504.21C1086.98,1502.97 1086.14,1501.44 1085.39,1499.52C1084.54,1497.31 1083.72,1494.68 1083.22,1491.38C1083.17,1490.7 1082.58,1490.19 1081.9,1490.24C1081.23,1490.29 1080.72,1490.88 1080.77,1491.56C1080.75,1495.96 1081.27,1499.45 1082.17,1502.22C1082.74,1503.95 1083.48,1505.39 1084.26,1506.59C1088.28,1512.79 1093.59,1513.03 1093.59,1513.03C1094.74,1513.13 1095.76,1512.28 1095.86,1511.13C1095.96,1509.98 1095.11,1508.96 1093.96,1508.86Z" style="fill:rgb(59,59,59);"/>
            <path d="M1117.72,1501.75C1117.72,1501.75 1119.69,1499.21 1120.1,1494.92C1120.29,1492.96 1120.18,1490.6 1119.3,1488.01C1118.9,1486.82 1118.34,1485.59 1117.56,1484.32C1116.21,1482.12 1114.29,1479.83 1111.56,1477.48C1111.08,1476.99 1110.3,1476.99 1109.82,1477.47C1109.34,1477.95 1109.33,1478.73 1109.81,1479.21C1111.56,1481.28 1112.78,1483.24 1113.71,1485.07C1114.46,1486.55 1114.94,1487.95 1115.28,1489.24C1115.83,1491.25 1115.94,1493.02 1115.8,1494.52C1115.52,1497.48 1114.33,1499.3 1114.33,1499.3C1113.65,1500.23 1113.87,1501.54 1114.8,1502.22C1115.74,1502.89 1117.05,1502.68 1117.72,1501.75Z" style="fill:rgb(59,59,59);"/>
        </g>
    </g>
    <defs>
        <linearGradient id="_Linear1" x1="0" y1="0" x2="1" y2="0" gradientUnits="userSpaceOnUse" gradientTransform="matrix(324.783,380.645,-380.645,324.783,1316.64,295.897)"><stop offset="0" style="stop-color:rgb(255,210,66);stop-opacity:1"/><stop offset="0.58" style="stop-color:rgb(251,204,54);stop-opacity:1"/><stop offset="0.8" style="stop-color:rgb(243,191,27);stop-opacity:1"/><stop offset="1" style="stop-color:rgb(235,178,0);stop-opacity:1"/></linearGradient>
        <linearGradient id="_Linear2" x1="0" y1="0" x2="1" y2="0" gradientUnits="userSpaceOnUse" gradientTransform="matrix(404.035,455.77,-451.756,407.625,1315.48,268.267)"><stop offset="0" style="stop-color:rgb(252,229,155);stop-opacity:1"/><stop offset="1" style="stop-color:rgb(255,204,42);stop-opacity:1"/></linearGradient>
        <linearGradient id="_Linear3" x1="0" y1="0" x2="1" y2="0" gradientUnits="userSpaceOnUse" gradientTransform="matrix(410.154,9.20784,-9.07916,415.967,322.658,763.039)"><stop offset="0" style="stop-color:rgb(238,176,0);stop-opacity:1"/><stop offset="0.5" style="stop-color:rgb(225,171,17);stop-opacity:1"/><stop offset="1" style="stop-color:rgb(226,158,0);stop-opacity:1"/></linearGradient>
        <linearGradient id="_Linear4" x1="0" y1="0" x2="1" y2="0" gradientUnits="userSpaceOnUse" gradientTransform="matrix(410.154,9.20784,-9.07916,415.967,322.658,763.039)"><stop offset="0" style="stop-color:rgb(238,176,0);stop-opacity:1"/><stop offset="0.5" style="stop-color:rgb(225,171,17);stop-opacity:1"/><stop offset="1" style="stop-color:rgb(226,158,0);stop-opacity:1"/></linearGradient>
        <linearGradient id="_Linear5" x1="0" y1="0" x2="1" y2="0" gradientUnits="userSpaceOnUse" gradientTransform="matrix(410.154,9.20784,-9.07916,415.967,212.711,651.437)"><stop offset="0" style="stop-color:rgb(238,176,0);stop-opacity:1"/><stop offset="0.5" style="stop-color:rgb(225,171,17);stop-opacity:1"/><stop offset="1" style="stop-color:rgb(226,158,0);stop-opacity:1"/></linearGradient>
        <linearGradient id="_Linear6" x1="0" y1="0" x2="1" y2="0" gradientUnits="userSpaceOnUse" gradientTransform="matrix(410.154,9.20784,-9.07916,415.967,391.148,832.561)"><stop offset="0" style="stop-color:rgb(238,176,0);stop-opacity:1"/><stop offset="0.5" style="stop-color:rgb(225,171,17);stop-opacity:1"/><stop offset="1" style="stop-color:rgb(226,158,0);stop-opacity:1"/></linearGradient>
        <linearGradient id="_Linear7" x1="0" y1="0" x2="1" y2="0" gradientUnits="userSpaceOnUse" gradientTransform="matrix(410.154,9.20784,-9.07916,415.967,391.148,832.561)"><stop offset="0" style="stop-color:rgb(238,176,0);stop-opacity:1"/><stop offset="0.5" style="stop-color:rgb(225,171,17);stop-opacity:1"/><stop offset="1" style="stop-color:rgb(226,158,0);stop-opacity:1"/></linearGradient>
    </defs>
</svg>
