<?xml version="1.0" encoding="UTF-8" standalone="no"?>
<!DOCTYPE svg PUBLIC "-//W3C//DTD SVG 1.1//EN" "http://www.w3.org/Graphics/SVG/1.1/DTD/svg11.dtd">
<svg width="100%" height="100%" viewBox="0 0 1000 1000" version="1.1" xmlns="http://www.w3.org/2000/svg" xmlns:xlink="http://www.w3.org/1999/xlink" xml:space="preserve" xmlns:serif="http://www.serif.com/" style="fill-rule:evenodd;clip-rule:evenodd;stroke-linejoin:round;stroke-miterlimit:2;">
    <g transform="matrix(0.693998,0,0,0.693998,-448.084,-465.934)">
        <g>
            <g>
                <g transform="matrix(0.75914,0,0,0.771494,376.801,370.593)">
                    <path d="M1581.21,1621.81C1581.21,1621.81 1641.77,1614.26 1672.94,1563.67C1706.96,1508.47 1718.91,1483.68 1789.78,1486.96C1838.07,1489.19 1890.36,1482.58 1890.87,1430.23C1891.49,1365.84 1794.33,1360.43 1745.53,1375.24C1687.43,1392.88 1648.74,1441.46 1630.34,1495.54C1611.03,1552.31 1568.3,1543.37 1564.4,1552.92L1581.21,1621.81Z" style="fill:white;"/>
                </g>
                <path d="M1592.94,1600.95C1592.94,1600.95 1631.47,1596.04 1651.16,1544.59C1670.85,1493.13 1715.73,1502.13 1716.99,1500.2C1718.24,1498.27 1797.86,1506.44 1808.6,1482.74C1808.6,1482.74 1812.59,1514.88 1763.45,1516.38C1714.31,1517.88 1687.01,1515.44 1664.6,1551.82C1642.18,1588.2 1616.12,1610.94 1596.55,1616.74L1592.94,1600.95Z" style="fill:rgb(218,218,218);"/>
                <g transform="matrix(1,0,0,1,63.89,6.02898)">
                    <path d="M1653.32,1508.36C1653.32,1508.36 1651.3,1432.15 1648.15,1426.61C1648.15,1426.61 1711.61,1414.13 1735.65,1441.14C1749.57,1456.8 1748.58,1481.3 1734.32,1497.31C1721.9,1511.26 1654.45,1508.48 1653.32,1508.36Z" style="fill:rgb(117,190,116);"/>
                </g>
                <path d="M1716.89,1500.75C1716.89,1500.75 1798.91,1504.03 1807.97,1484.63C1807.97,1484.63 1806.38,1509.1 1777.42,1512.19C1748.47,1515.27 1717.06,1515.11 1717.06,1515.11L1716.89,1500.75Z" style="fill:rgb(69,140,68);"/>
                <g transform="matrix(0.75914,0,0,0.771494,376.801,370.593)">
                    <path d="M1576.91,1622.82C1577.44,1624.98 1579.53,1626.4 1581.76,1626.12C1581.76,1626.12 1608.37,1622.84 1635.81,1606.05C1650.52,1597.06 1665.46,1584.19 1676.72,1565.92C1693.35,1538.94 1704.48,1519.29 1720.2,1506.86C1735.64,1494.65 1755.55,1489.73 1789.57,1491.3C1818.71,1492.65 1849.23,1490.64 1869.71,1478.16C1885,1468.83 1895.06,1453.87 1895.29,1430.27C1895.57,1401.32 1877.65,1383.32 1852.64,1373.51C1819.39,1360.46 1773.4,1362.23 1744.23,1371.09C1714.51,1380.11 1689.71,1397.01 1669.99,1418.57C1650.24,1440.16 1635.58,1466.45 1626.15,1494.16C1620.08,1511.99 1611.64,1523.02 1602.85,1530.06C1590.96,1539.58 1578.51,1541.87 1570.81,1544.2C1567.74,1545.13 1565.29,1546.13 1563.59,1547.33C1562,1548.45 1560.92,1549.78 1560.3,1551.3C1559.96,1552.14 1559.89,1553.06 1560.1,1553.94L1576.91,1622.82ZM1584.54,1616.84L1569.22,1554.05C1569.37,1553.99 1569.53,1553.93 1569.69,1553.86C1570.72,1553.37 1571.98,1552.95 1573.41,1552.51C1581.85,1549.95 1595.4,1547.24 1608.42,1536.81C1618.22,1528.96 1627.77,1516.78 1634.53,1496.92C1643.57,1470.33 1657.61,1445.1 1676.56,1424.38C1695.23,1403.97 1718.69,1387.94 1746.84,1379.4C1774.43,1371.02 1817.92,1369.25 1849.37,1381.58C1870.9,1390.03 1886.69,1405.26 1886.45,1430.19C1886.26,1450.13 1877.98,1462.89 1865.06,1470.77C1845.89,1482.45 1817.26,1483.88 1789.99,1482.62C1752.98,1480.91 1731.45,1486.8 1714.66,1500.08C1698.3,1513.03 1686.48,1533.32 1669.17,1561.41C1658.71,1578.38 1644.81,1590.31 1631.15,1598.67C1611.59,1610.63 1592.5,1615.3 1584.54,1616.84L1584.54,1616.84Z" style="fill:rgb(59,59,59);"/>
                </g>
            </g>
            <g transform="matrix(1.07578,0,0,0.946974,-101.858,75.7452)">
                <path d="M1179.2,1646.95C1213.55,1525.91 1206.9,1400.15 1375.05,1387.01C1440.49,1381.9 1544.64,1381.52 1577.21,1624.64C1580.55,1649.56 1570.7,1673.9 1624.97,1677.11C1659.89,1679.18 1647.33,1798.91 1580.52,1770.64C1516.91,1743.73 1511.54,1736.08 1385.67,1738.31C1259.09,1740.54 1211.9,1760.11 1175.51,1770.13C1144.28,1778.73 1105.59,1723.45 1116.13,1690.66C1128.55,1652.03 1168.08,1686.13 1179.2,1646.95Z" style="fill:white;"/>
            </g>
            <path d="M1159.06,1753.23C1159.06,1753.23 1212.62,1726.76 1271.9,1706.75C1331.19,1686.75 1451.05,1684.07 1509.57,1705.59C1568.09,1727.11 1609.86,1753.48 1624.37,1753.45C1624.37,1753.45 1609.21,1760.54 1572.86,1743.24C1536.51,1725.94 1500.24,1722.28 1476.84,1721.48C1453.44,1720.67 1289.19,1726.97 1287.96,1726.75C1286.74,1726.52 1158.89,1751.86 1159.06,1753.23Z" style="fill:rgb(209,209,209);"/>
            <g transform="matrix(1.07578,0,0,0.946974,-101.858,75.7452)">
                <path d="M1176.24,1645.86C1171.39,1662.92 1160.41,1664.29 1149.26,1665.36C1140.02,1666.24 1130.64,1666.98 1123.29,1673.18C1119.2,1676.62 1115.69,1681.7 1113.21,1689.44C1107.62,1706.83 1114.74,1730.27 1127.72,1748.13C1140.79,1766.1 1159.59,1778.16 1176.25,1773.57C1199.9,1767.06 1228.14,1756.48 1279.95,1749.31C1307.56,1745.48 1341.86,1742.62 1385.72,1741.85C1447.02,1740.76 1479.6,1742.01 1504.31,1746.72C1530.03,1751.63 1547.19,1760.32 1579.43,1773.96C1593.75,1780.02 1605.74,1779.59 1615.45,1775.19C1627.07,1769.92 1635.49,1758.9 1640.69,1745.91C1648.24,1727.03 1648.91,1704.09 1643.25,1689.49C1639.62,1680.14 1633.47,1674.07 1625.13,1673.57C1606.32,1672.46 1595.55,1668.9 1589.38,1663.4C1584.25,1658.83 1582.62,1652.92 1581.89,1646.41C1581.11,1639.43 1581.33,1631.8 1580.3,1624.11C1565.45,1513.28 1535.69,1452.59 1501.64,1419.72C1459.87,1379.4 1411.43,1380.62 1374.83,1383.48C1314.19,1388.22 1275.96,1407.53 1250.26,1435.77C1225.84,1462.6 1212.69,1497.6 1202.57,1536.28C1193.48,1570.97 1186.8,1608.64 1176.24,1645.86L1176.24,1645.86ZM1182.17,1648.03C1192.75,1610.76 1199.44,1573.04 1208.54,1538.3C1218.35,1500.84 1230.94,1466.85 1254.59,1440.86C1279.47,1413.53 1316.56,1395.13 1375.26,1390.55C1410.54,1387.79 1457.33,1386.25 1497.6,1425.12C1530.9,1457.26 1559.61,1516.8 1574.13,1625.17C1575.15,1632.8 1574.93,1640.38 1575.71,1647.31C1576.64,1655.66 1578.96,1663.11 1585.53,1668.97C1592.33,1675.03 1604.08,1679.42 1624.81,1680.64C1630.77,1681 1634.95,1685.66 1637.54,1692.34C1642.62,1705.45 1641.79,1726.03 1635.01,1742.98C1630.48,1754.29 1623.26,1764.03 1613.14,1768.61C1604.64,1772.46 1594.15,1772.63 1581.6,1767.32C1548.88,1753.48 1531.45,1744.72 1505.35,1739.74C1480.4,1734.98 1447.51,1733.67 1385.62,1734.77C1341.49,1735.55 1306.98,1738.43 1279.2,1742.28C1227.04,1749.5 1198.6,1760.13 1174.78,1766.69C1160.17,1770.71 1143.99,1759.38 1132.53,1743.62C1121.04,1727.81 1114.12,1707.26 1119.06,1691.87C1124.42,1675.19 1135.53,1673.78 1146.61,1672.71C1155.99,1671.81 1165.4,1671.08 1172.58,1664.72C1176.55,1661.19 1179.91,1655.99 1182.17,1648.03Z" style="fill:rgb(59,59,59);"/>
            </g>
            <g>
                <g transform="matrix(0.836172,-0.605007,0.608036,0.840357,-846.078,952.683)">
                    <ellipse cx="1130.62" cy="1709.57" rx="30.229" ry="47.088" style="fill:rgb(255,198,198);"/>
                </g>
                <g transform="matrix(0.805096,-0.593144,0.593144,0.805096,-784.53,999.008)">
                    <path d="M1131.04,1654.57C1131.04,1654.57 1122.9,1654.72 1120.25,1662.18C1119.7,1663.72 1119.33,1665.61 1119.58,1667.86C1119.91,1670.76 1121.08,1674.24 1123.58,1678.59C1123.93,1679.46 1124.91,1679.88 1125.78,1679.54C1126.65,1679.19 1127.08,1678.2 1126.73,1677.34C1126.33,1675.58 1126.15,1674.04 1125.98,1672.61C1125.67,1669.94 1125.91,1667.92 1126.23,1666.27C1127.12,1661.56 1131.29,1661.27 1131.29,1661.27C1133.14,1661.21 1134.58,1659.65 1134.52,1657.8C1134.45,1655.95 1132.89,1654.5 1131.04,1654.57Z" style="fill:rgb(59,59,59);"/>
                </g>
                <g transform="matrix(0.692893,-0.725092,0.722977,0.690872,-882.643,1347.66)">
                    <path d="M1130.68,1655.21C1130.68,1655.21 1126.98,1655.74 1123.64,1658.18C1121.64,1659.65 1119.64,1661.74 1118.83,1664.68C1118.44,1666.11 1118.22,1667.69 1118.51,1669.46C1118.95,1672.06 1120.05,1674.91 1122.56,1678.25C1122.82,1678.78 1123.45,1679.01 1123.99,1678.75C1124.52,1678.5 1124.75,1677.86 1124.5,1677.33C1124.08,1675.55 1124,1674.05 1123.92,1672.63C1123.8,1670.17 1124.45,1668.47 1125.15,1666.99C1125.81,1665.59 1126.77,1664.6 1127.78,1663.85C1129.8,1662.37 1131.92,1661.8 1131.92,1661.8C1133.74,1661.45 1134.93,1659.7 1134.59,1657.88C1134.25,1656.06 1132.5,1654.86 1130.68,1655.21Z" style="fill:rgb(59,59,59);"/>
                </g>
                <g transform="matrix(0.884652,-0.466253,0.466253,0.884652,-668.117,735.319)">
                    <ellipse cx="1146.55" cy="1730.71" rx="15.483" ry="11.678" style="fill:rgb(211,126,126);"/>
                </g>
            </g>
            <g transform="matrix(-0.927543,0.16121,0.16121,0.927543,2412.19,-55.1992)">
                <g transform="matrix(0.908612,-0.439274,0.447265,0.92514,-656.963,619.164)">
                    <ellipse cx="1130.62" cy="1709.57" rx="30.229" ry="47.088" style="fill:rgb(255,198,198);"/>
                </g>
                <g transform="matrix(1.07539,-0.289087,0.259604,0.965715,-519.874,382.421)">
                    <path d="M1131.27,1661.48C1131.27,1661.48 1129.4,1661.7 1127.85,1663.04C1127.09,1663.69 1126.46,1664.65 1126.11,1666.12C1125.71,1667.76 1125.35,1669.73 1125.59,1672.49C1125.72,1673.99 1125.84,1675.58 1126.19,1677.45C1126.45,1678.09 1126.19,1678.84 1125.62,1679.12C1125.04,1679.4 1124.37,1679.11 1124.12,1678.48C1122.38,1675.75 1121.31,1673.44 1120.57,1671.29C1120.11,1669.93 1119.89,1668.7 1119.77,1667.53C1119.52,1665.1 1119.99,1663.09 1120.63,1661.45C1121.64,1658.88 1123.39,1657.23 1125.12,1656.16C1128.05,1654.36 1131.06,1654.36 1131.06,1654.36C1132.83,1654.3 1134.3,1655.84 1134.36,1657.81C1134.42,1659.77 1133.03,1661.42 1131.27,1661.48L1131.27,1661.48Z" style="fill:rgb(59,59,59);"/>
                </g>
                <g transform="matrix(0.727599,-0.686003,0.686003,0.727599,-857.632,1237.58)">
                    <path d="M1131.26,1660.62C1131.26,1660.62 1128.01,1661.27 1126.84,1664.7C1126.64,1665.27 1126.48,1665.9 1126.36,1666.65C1126.25,1667.36 1126.08,1668.13 1126.02,1669.01C1125.87,1671.3 1125.75,1673.95 1126.37,1677.48C1126.63,1678.15 1126.31,1678.91 1125.64,1679.17C1124.97,1679.44 1124.21,1679.11 1123.94,1678.44C1122.45,1676.25 1121.42,1674.37 1120.64,1672.54C1119.91,1670.83 1119.55,1669.29 1119.38,1667.86C1119.12,1665.59 1119.54,1663.67 1120.13,1662.13C1120.92,1660.12 1122.15,1658.65 1123.5,1657.64C1124.71,1656.73 1125.95,1656.1 1127.12,1655.77C1129.34,1655.15 1131.07,1655.23 1131.07,1655.23C1132.56,1655.17 1133.81,1656.34 1133.86,1657.83C1133.92,1659.31 1132.75,1660.57 1131.26,1660.62Z" style="fill:rgb(59,59,59);"/>
                </g>
                <g transform="matrix(0.905151,-0.425091,0.425091,0.905151,-626.915,653.418)">
                    <ellipse cx="1146.55" cy="1730.71" rx="15.483" ry="11.678" style="fill:rgb(211,126,126);"/>
                </g>
            </g>
            <path d="M1239.9,1449.66C1239.9,1449.66 1275.07,1482.35 1294.53,1492.57C1326.08,1509.14 1425.91,1506.29 1462.8,1491.74C1486.94,1482.22 1526.86,1441.04 1526.86,1441.04L1239.9,1449.66Z" style="fill:rgb(204,195,195);"/>
        </g>
        <g transform="matrix(1.11485,0,0,1.11485,-151.439,-119.678)">
            <g transform="matrix(1.00109,0,0,0.922078,-1.23669,111.589)">
                <path d="M1140.96,1222.4C1148.27,1132.57 1170.62,1062.82 1220.73,1010.1C1278.59,949.209 1429.47,911.704 1515.93,1006.71C1578.96,1075.97 1591.33,1113.14 1608.8,1206.29C1621.67,1274.93 1615.61,1323.59 1559.96,1361.46C1491.14,1408.29 1449.5,1420.78 1383.37,1424.24C1333.77,1426.83 1289.88,1433.66 1197.93,1376.64C1143.67,1342.99 1136.15,1281.39 1140.96,1222.4Z" style="fill:white;"/>
            </g>
            <g transform="matrix(0.896984,0,0,0.896984,135.838,107.349)">
                <path d="M1138.11,1177.52C1138.11,1177.52 1092.79,1328.83 1151.31,1391.04C1214.27,1457.98 1330.59,1472.4 1317.32,1468.49C1264.49,1452.91 1196.45,1411.83 1177.26,1384.75C1129.19,1316.88 1131.55,1273.83 1138.11,1177.52Z" style="fill:rgb(236,235,235);"/>
            </g>
            <g transform="matrix(-0.896984,0,0,0.896984,2618.32,98.3105)">
                <path d="M1147.57,1177.05C1147.57,1177.05 1083.24,1332.08 1149.45,1392.14C1217.52,1453.89 1328.95,1474.52 1315.68,1470.6C1270.08,1457.16 1214.36,1423.13 1187.63,1396.66C1183.4,1392.46 1179.89,1388.45 1177.26,1384.75C1129.19,1316.88 1141.01,1273.36 1147.57,1177.05Z" style="fill:rgb(236,235,235);"/>
            </g>
            <g transform="matrix(1.00109,0,0,0.922078,-1.23669,111.589)">
                <path d="M1137.96,1222.12C1135.5,1252.37 1136.27,1283.3 1144.7,1310.91C1153.05,1338.25 1168.87,1362.37 1196.44,1379.47C1232.64,1401.92 1261.46,1414.54 1286.12,1421.44C1324.63,1432.23 1353.01,1429.09 1383.52,1427.49C1419.03,1425.64 1447.54,1421.18 1476.91,1410.31C1502.69,1400.78 1529.13,1386.29 1561.56,1364.23C1590.57,1344.48 1606.39,1321.82 1613.28,1295.14C1619.89,1269.49 1618.19,1240.03 1611.74,1205.64C1602.9,1158.5 1595.33,1125.61 1581.96,1095.68C1568.69,1065.99 1549.72,1039.2 1518.07,1004.41C1477.04,959.332 1421.75,943.558 1368.47,945.934C1307.84,948.637 1249.88,974.879 1218.63,1007.75C1191.94,1035.84 1173.02,1068.7 1160.01,1106.78C1148.36,1140.9 1141.46,1179.23 1137.96,1222.12ZM1143.95,1222.69C1147.39,1180.44 1154.17,1142.67 1165.65,1109.05C1178.34,1071.9 1196.78,1039.84 1222.82,1012.44C1253.23,980.442 1309.71,955.084 1368.72,952.453C1420.37,950.15 1474.02,965.296 1513.79,1009C1544.86,1043.14 1563.53,1069.38 1576.55,1098.53C1589.73,1128.03 1597.14,1160.47 1605.85,1206.94C1612.08,1240.15 1613.88,1268.61 1607.49,1293.38C1600.97,1318.65 1585.85,1340 1558.37,1358.7C1526.41,1380.44 1500.37,1394.74 1474.97,1404.14C1446.12,1414.81 1418.11,1419.15 1383.23,1420.98C1353.28,1422.54 1325.43,1425.71 1287.62,1415.12C1263.37,1408.33 1235.03,1395.89 1199.42,1373.81C1173.3,1357.61 1158.32,1334.76 1150.4,1308.85C1142.23,1282.07 1141.56,1252.05 1143.95,1222.69Z" style="fill:rgb(59,59,59);"/>
            </g>
            <g transform="matrix(1.77561,0.0757047,-0.0741657,1.74064,340.902,-352.149)">
                <g transform="matrix(0.994231,0.10832,-0.100697,0.991676,40.1989,-20.2472)">
                    <ellipse cx="713.584" cy="827.998" rx="12.132" ry="11.904" style="fill:rgb(66,66,66);"/>
                </g>
                <g transform="matrix(0.590855,0.0643731,-0.0597553,0.588477,293.079,347.624)">
                    <ellipse cx="713.584" cy="827.998" rx="12.132" ry="11.904" style="fill:rgb(48,46,46);"/>
                </g>
                <g transform="matrix(0.239094,0.026049,-0.0247783,0.24402,521.271,654.183)">
                    <ellipse cx="713.584" cy="827.998" rx="12.132" ry="11.904" style="fill:white;"/>
                </g>
            </g>
            <g transform="matrix(1.77561,0.0757047,-0.0741657,1.74064,163.806,-340.667)">
                <g transform="matrix(0.994231,0.10832,-0.100697,0.991676,40.1989,-20.2472)">
                    <ellipse cx="713.584" cy="827.998" rx="12.132" ry="11.904" style="fill:rgb(66,66,66);"/>
                </g>
                <g transform="matrix(0.590855,0.0643731,-0.0597553,0.588477,293.079,347.624)">
                    <ellipse cx="713.584" cy="827.998" rx="12.132" ry="11.904" style="fill:rgb(48,46,46);"/>
                </g>
                <g transform="matrix(0.239094,0.026049,-0.0247783,0.24402,521.271,654.183)">
                    <ellipse cx="713.584" cy="827.998" rx="12.132" ry="11.904" style="fill:white;"/>
                </g>
            </g>
            <g transform="matrix(1.77713,0.0181385,-0.0177697,1.74212,281.773,-313.83)">
                <g transform="matrix(0.950013,-0.0512313,0.0522714,0.969301,-23.4718,95.3428)">
                    <path d="M614.907,899.534C614.907,899.534 617.713,906.25 626.246,912.305C633.701,917.595 641.76,907.422 644.404,898.419C644.404,898.419 632.201,899.909 628.553,885.527C628.553,885.527 628.528,898.271 614.907,899.534Z" style="fill:rgb(255,198,198);"/>
                </g>
                <g transform="matrix(0.950013,-0.0512313,0.0522714,0.969301,-23.4718,95.3428)">
                    <path d="M623.836,894.596C622.007,896.684 613.138,899.051 613.138,899.051C613.138,899.051 614.833,903.37 618.448,907.617C620.096,909.554 622.348,911.79 625.087,913.859C629.064,916.831 633.469,915.959 637.21,913.21C641.343,910.173 644.789,904.397 646.425,899.008C646.625,898.328 646.47,897.594 646.013,897.054C645.555,896.515 644.857,896.242 644.153,896.328C644.153,896.328 639.406,896.965 635.256,893.625C633.163,891.941 631.198,889.318 629.984,885.161C629.801,884.44 629.11,883.969 628.372,884.062C627.633,884.155 627.078,884.783 627.077,885.527C627.077,885.527 627.302,890.641 623.836,894.596ZM616.937,899.416C616.937,899.416 623.271,897.865 625.268,895.975C626.95,894.383 628.039,892.542 628.744,890.853C629.87,893.293 631.301,895.117 632.817,896.485C635.779,899.158 639.114,900.102 641.488,900.413C640.73,902.295 639.751,904.153 638.622,905.825C637.493,907.496 636.225,908.987 634.837,910.088C632.512,911.933 629.835,912.206 627.233,910.917C624.389,909.507 622.496,907.325 620.86,905.636C618.452,903.15 617.583,900.525 616.937,899.416Z" style="fill:rgb(59,59,59);"/>
                </g>
                <g transform="matrix(0.998549,-0.0538487,0.0538487,0.998549,-55.6469,62.9973)">
                    <path d="M602.003,898.971C602.003,898.971 602.006,901.801 604.863,904.356C606.448,905.774 608.951,907.085 612.904,907.733C616.151,908.243 620.767,907.649 624.532,904.854C626.288,903.552 627.845,901.765 628.999,899.4C629.946,900.904 631.257,902.513 633.044,903.886C635.549,905.812 638.986,907.286 643.627,907.315C645.252,907.31 648.523,906.894 651.343,905.222C653.56,903.908 655.528,901.886 656.232,898.764C656.373,898.243 656.074,897.704 655.564,897.561C655.054,897.418 654.525,897.725 654.384,898.245C653.627,900.618 651.956,902.034 650.152,902.906C647.748,904.067 645.069,904.206 643.749,904.103C640.014,903.848 637.328,902.502 635.377,900.86C633.798,899.531 632.732,897.985 631.996,896.644C630.995,894.818 630.639,893.371 630.639,893.371C630.427,892.422 629.586,891.762 628.633,891.796C627.68,891.831 626.883,892.55 626.734,893.511C626.196,897.517 624.517,900.242 622.39,902.022C619.494,904.444 615.854,905.214 613.221,905.002C610.531,904.803 608.57,904.21 607.142,903.429C603.798,901.601 603.465,898.891 603.465,898.891C603.444,898.48 603.1,898.164 602.697,898.185C602.293,898.207 601.982,898.559 602.003,898.971Z" style="fill:rgb(59,59,59);"/>
                </g>
            </g>
            <g transform="matrix(1.61858,-0.734199,1.16972,2.58039,-672.274,-618.925)">
                <ellipse cx="669.529" cy="919.793" rx="10.044" ry="2.984" style="fill:rgb(153,193,152);"/>
            </g>
            <g transform="matrix(1.56906,0.834866,-1.33011,2.50144,1434.5,-1576.63)">
                <ellipse cx="669.529" cy="919.793" rx="10.044" ry="2.984" style="fill:rgb(153,193,152);"/>
            </g>
            <g>
                <g transform="matrix(-0.960762,-0.0430786,-0.0354478,0.790575,2750.56,320.471)">
                    <path d="M1176.86,1132.32C1176.86,1132.32 1134.01,1086.05 1106.34,940.582C1106.34,940.582 1134.31,923.518 1166.99,918.147C1200.78,912.594 1243.47,911.781 1286.11,964.789" style="fill:white;"/>
                </g>
                <g transform="matrix(-0.960762,-0.0430786,-0.0354478,0.790575,2750.56,320.471)">
                    <path d="M1175.58,1134.07C1175.58,1134.07 1157.31,1115.25 1136.37,1062.88C1128.72,1043.75 1120.69,1020.12 1113.16,991.259C1109.24,976.233 1105.52,959.77 1101.97,941.81C1101.5,939.358 1102.48,936.838 1104.33,935.709C1104.33,935.709 1116.66,928.054 1134.65,921.378C1144.03,917.898 1154.94,914.735 1166.41,912.94C1186.18,909.965 1208.9,908.58 1232.77,918.159C1250.79,925.391 1269.46,938.853 1287.97,962.577C1288.98,963.826 1288.96,965.831 1287.93,967.051C1286.9,968.272 1285.26,968.249 1284.25,967C1266.03,945.027 1247.94,932.829 1230.6,926.482C1207.78,918.122 1186.27,920.021 1167.57,923.354C1156.63,925.237 1146.26,928.508 1137.32,931.888C1125.44,936.375 1116.12,941.157 1111.51,943.671C1114.54,959.778 1117.78,974.629 1121.07,988.334C1127.93,1016.93 1135.18,1040.47 1142.19,1059.58C1161.17,1111.33 1178.14,1130.57 1178.14,1130.57C1178.93,1131.43 1179,1132.91 1178.3,1133.87C1177.59,1134.84 1176.38,1134.92 1175.58,1134.07Z" style="fill:rgb(59,59,59);"/>
                </g>
                <g transform="matrix(-0.996031,-0.04466,-0.0438615,0.978223,2806.53,112.852)">
                    <path d="M1183.63,1098.12C1183.63,1098.12 1197.05,1031.93 1264.33,1001.2C1264.33,1001.2 1230.6,956.444 1136.08,982.638C1136.08,982.638 1145.57,1050.76 1183.63,1098.12Z" style="fill:rgb(117,190,116);"/>
                </g>
            </g>
            <g>
                <g transform="matrix(0.957898,-0.113427,0.095034,0.802568,-63.3552,395.329)">
                    <path d="M1167.86,1120.3C1167.86,1120.3 1116.69,1085.11 1118.4,944.411C1118.4,944.411 1140.69,925.68 1172.61,918.632C1204.95,911.491 1247.17,916.338 1286.11,964.789" style="fill:white;"/>
                </g>
                <g transform="matrix(0.957898,-0.113427,0.095034,0.802568,-63.3552,395.329)">
                    <path d="M1169.23,1117.44C1169.23,1117.44 1149.15,1102.86 1135.48,1056.36C1131.09,1041.43 1127.39,1023.25 1125.15,1001.25C1123.52,985.344 1122.63,967.458 1122.87,947.356C1126.38,944.715 1134.63,938.905 1146.12,933.379C1153.89,929.644 1163.11,925.987 1173.39,923.613C1191.02,919.443 1211.71,918.942 1233.3,927.559C1250.13,934.279 1267.5,946.463 1284.38,966.779C1285.3,967.924 1286.82,967.961 1287.78,966.863C1288.74,965.765 1288.77,963.944 1287.85,962.799C1270.81,940.877 1252.99,927.431 1235.58,919.795C1212.81,909.812 1190.72,909.778 1171.84,913.65C1160.92,915.952 1151.07,919.56 1142.81,923.429C1126.08,931.264 1115.8,940.006 1115.8,940.006C1114.62,940.999 1113.91,942.608 1113.89,944.333C1113.73,966.171 1114.78,985.497 1116.78,1002.55C1119.44,1025.31 1123.69,1044.04 1128.57,1059.37C1144.24,1108.6 1166.48,1123.15 1166.48,1123.15C1167.8,1124.06 1169.49,1123.51 1170.25,1121.94C1171.01,1120.36 1170.55,1118.35 1169.23,1117.44Z" style="fill:rgb(59,59,59);"/>
                </g>
                <g transform="matrix(0.993062,-0.117591,0.117591,0.993062,-134.992,187.939)">
                    <path d="M1183.63,1098.12C1183.63,1098.12 1198.46,1032.19 1265.74,1001.46C1265.74,1001.46 1222.99,957.807 1142.56,990.116C1142.56,990.116 1148.25,1078.18 1183.63,1098.12Z" style="fill:rgb(117,190,116);"/>
                </g>
            </g>
        </g>
        <g transform="matrix(0.64622,0,0,0.64622,623.405,1254.16)">
            <g>
                <g transform="matrix(1,0,0,1,-295.448,56.7653)">
                    <circle cx="1469.85" cy="477.56" r="253.23" style="fill:url(#_Linear1);"/>
                </g>
                <g transform="matrix(1,0,0,1,-295.448,56.7653)">
                    <path d="M1469.85,218.197C1398.28,218.197 1333.44,247.25 1286.49,294.197C1239.54,341.145 1210.49,405.986 1210.49,477.56C1210.49,549.133 1239.54,613.974 1286.49,660.922C1333.44,707.869 1398.28,736.922 1469.85,736.922C1541.43,736.922 1606.27,707.869 1653.22,660.922C1700.16,613.974 1729.22,549.133 1729.22,477.56C1729.22,405.986 1700.16,341.145 1653.22,294.197C1606.27,247.25 1541.43,218.197 1469.85,218.197ZM1469.85,230.463C1538.04,230.463 1599.82,258.144 1644.54,302.871C1689.27,347.598 1716.95,409.372 1716.95,477.56C1716.95,545.748 1689.27,607.521 1644.54,652.248C1599.82,696.975 1538.04,724.656 1469.85,724.656C1401.67,724.656 1339.89,696.975 1295.17,652.248C1250.44,607.521 1222.76,545.748 1222.76,477.56C1222.76,409.372 1250.44,347.598 1295.17,302.871C1339.89,258.144 1401.67,230.463 1469.85,230.463Z" style="fill:rgb(193,136,0);"/>
                </g>
                <g transform="matrix(0.826479,0,0,0.826479,-38.2736,142.963)">
                    <circle cx="1469.85" cy="477.56" r="253.23" style="fill:rgb(238,181,0);"/>
                </g>
                <g transform="matrix(0.793785,0,0,0.786794,9.78188,161.914)">
                    <circle cx="1469.85" cy="477.56" r="253.23" style="fill:url(#_Linear2);"/>
                </g>
            </g>
            <g transform="matrix(0.790579,0,0,0.790579,440.076,268.839)">
                <g transform="matrix(0.642404,0.64184,-0.63287,0.633426,1101.89,-482.928)">
                    <rect x="591.693" y="638.386" width="68.49" height="68.258" style="fill:url(#_Linear3);"/>
                </g>
                <g transform="matrix(0.642404,0.64184,-0.63287,0.633426,1101.89,-482.928)">
                    <rect x="365.553" y="862.713" width="67.245" height="69.522" style="fill:url(#_Linear4);"/>
                </g>
                <g transform="matrix(0.642404,0.64184,-0.63287,0.633426,1101.89,-341.668)">
                    <path d="M481.747,751.111L365.553,751.111L365.553,820.632L550.236,820.632L550.236,638.386L481.747,638.386L481.747,751.111Z" style="fill:url(#_Linear5);"/>
                </g>
                <g transform="matrix(0.642404,0.64184,-0.63287,0.633426,1101.89,-570.924)">
                    <path d="M612.475,886.287L434.043,886.287L434.043,707.907L612.475,707.907L612.475,819.51L612.475,776.165L501.287,776.165L501.287,886.287L612.475,886.287Z" style="fill:url(#_Linear6);"/>
                </g>
                <g transform="matrix(0.642404,0.64184,-0.63287,0.633426,1101.89,-570.924)">
                    <rect x="543.989" y="819.51" width="68.487" height="66.777" style="fill:url(#_Linear7);"/>
                </g>
            </g>
            <g transform="matrix(1.54746,0,0,1.54746,-964.695,-1940.77)">
                <path d="M1214.99,1557.43C1211.79,1560.02 1222.93,1620.22 1278.98,1618.2C1278.98,1618.2 1298.17,1615.01 1299.81,1604.87C1302.52,1588.16 1220.03,1553.36 1214.99,1557.43Z" style="fill:rgb(150,112,0);fill-opacity:0.5;"/>
            </g>
            <g transform="matrix(-1.54746,0,0,1.54746,3317.67,-1957.4)">
                <path d="M1214.99,1557.43C1211.79,1560.02 1222.93,1620.22 1278.98,1618.2C1278.98,1618.2 1298.17,1615.01 1299.81,1604.87C1302.52,1588.16 1220.03,1553.36 1214.99,1557.43Z" style="fill:rgb(150,112,0);fill-opacity:0.5;"/>
            </g>
        </g>
        <g>
            <g transform="matrix(0.993238,-0.116098,0.116098,0.993238,-166.711,151.393)">
                <path d="M1245.51,1485.91C1245.51,1485.91 1251.04,1536.53 1283.45,1560.64C1315.85,1584.76 1290.95,1631.3 1246.42,1608.16C1210.24,1589.37 1208.5,1553.66 1208.17,1553.4" style="fill:white;"/>
            </g>
            <path d="M1214.05,1554.96C1214.05,1554.96 1237.46,1598.71 1278.96,1596.66L1289.45,1603.1C1289.45,1603.1 1240.98,1628.48 1214.05,1554.96Z" style="fill:rgb(236,235,235);"/>
            <g transform="matrix(0.993238,-0.116098,0.116098,0.993238,-166.711,151.393)">
                <path d="M1206.44,1553.88L1206.46,1554.01C1206.52,1554.53 1206.64,1555.61 1206.87,1557.15C1207.75,1562.89 1210.33,1574.8 1218.48,1586.94C1224.19,1595.44 1232.64,1604.02 1245.09,1610.72C1267.66,1622.71 1285.72,1617.51 1294.83,1606.34C1305.32,1593.49 1304.38,1572.21 1285.31,1558.14C1273.64,1549.68 1265.52,1537.65 1259.83,1525.89C1249.95,1505.44 1247.45,1485.69 1247.45,1485.69C1247.33,1484.62 1246.37,1483.85 1245.29,1483.96C1244.22,1484.08 1243.45,1485.05 1243.56,1486.12C1243.56,1486.12 1245.47,1506.66 1255.12,1528.09C1260.85,1540.82 1269.34,1553.8 1281.58,1563.15C1296.94,1574.68 1298.09,1591.67 1289.64,1602.13C1283.93,1609.21 1274.01,1613.11 1261.32,1610.5C1257.09,1609.63 1252.55,1608.04 1247.75,1605.61C1236,1599.72 1227.94,1591.96 1222.39,1584.23C1214.36,1573.03 1211.55,1561.9 1210.54,1556.52C1210.26,1555.04 1210.11,1553.98 1210.03,1553.48C1209.86,1552.46 1209.35,1552.04 1209.27,1551.98C1208.48,1551.37 1207.35,1551.52 1206.75,1552.31C1206.39,1552.77 1206.29,1553.36 1206.44,1553.88Z" style="fill:rgb(59,59,59);"/>
            </g>
            <g>
                <path d="M1303.9,1582.02C1303.9,1582.02 1301.31,1583.69 1297.53,1583.78C1296.16,1583.81 1294.66,1583.63 1293,1583.15C1291.9,1582.82 1290.73,1582.49 1289.5,1581.89C1288.38,1581.35 1287.22,1580.77 1286,1579.94C1284.56,1578.97 1283.08,1577.89 1281.53,1576.44C1281.13,1575.91 1280.38,1575.81 1279.86,1576.2C1279.33,1576.6 1279.23,1577.35 1279.62,1577.88C1281.73,1581.88 1283.97,1584.67 1286.32,1586.72C1287.75,1587.97 1289.22,1588.83 1290.67,1589.47C1293.13,1590.57 1295.55,1590.85 1297.67,1590.81C1303.85,1590.7 1307.92,1587.38 1307.92,1587.38C1309.4,1586.27 1309.7,1584.17 1308.59,1582.69C1307.48,1581.21 1305.38,1580.91 1303.9,1582.02Z" style="fill:rgb(59,59,59);"/>
                <g transform="matrix(1,0,0,1,-7.29321,13.0152)">
                    <path d="M1305.65,1582.64C1305.65,1582.64 1302.72,1584.19 1298.55,1584.16C1297.05,1584.16 1295.4,1583.94 1293.61,1583.43C1292.43,1583.09 1291.18,1582.74 1289.89,1582.12C1288.7,1581.56 1287.47,1580.96 1286.19,1580.11C1284.68,1579.09 1283.13,1577.96 1281.53,1576.44C1281.13,1575.91 1280.38,1575.81 1279.86,1576.2C1279.33,1576.6 1279.23,1577.35 1279.62,1577.88C1281.83,1582.01 1284.25,1584.89 1286.79,1587.01C1288.28,1588.25 1289.83,1589.12 1291.35,1589.78C1293.84,1590.85 1296.3,1591.17 1298.49,1591.19C1304.83,1591.26 1309.15,1588.36 1309.15,1588.36C1310.73,1587.39 1311.23,1585.32 1310.26,1583.74C1309.29,1582.16 1307.23,1581.67 1305.65,1582.64Z" style="fill:rgb(59,59,59);"/>
                </g>
            </g>
        </g>
        <g>
            <g transform="matrix(-0.996434,-0.0843703,-0.0843703,0.996434,2887.99,97.7559)">
                <path d="M1245.51,1485.91C1245.51,1485.91 1251.04,1536.53 1283.45,1560.64C1315.85,1584.76 1290.95,1631.3 1246.42,1608.16C1210.24,1589.37 1208.5,1553.66 1208.17,1553.4" style="fill:white;"/>
            </g>
            <g transform="matrix(-0.956452,0.291889,0.291889,0.956452,2251.85,-310.617)">
                <path d="M1208.95,1566.81C1208.95,1566.81 1237.73,1599.82 1279.23,1597.78L1289.45,1603.1C1289.45,1603.1 1243.96,1623.59 1208.95,1566.81Z" style="fill:rgb(236,235,235);"/>
            </g>
            <g transform="matrix(-0.996434,-0.0843703,-0.0843703,0.996434,2887.99,97.7559)">
                <path d="M1206.34,1553.91C1206.19,1553.35 1206.29,1552.74 1206.66,1552.25C1207.3,1551.41 1208.5,1551.26 1209.33,1551.9C1209.42,1551.96 1209.95,1552.4 1210.13,1553.46C1210.21,1553.97 1210.36,1555.02 1210.64,1556.51C1211.64,1561.88 1214.43,1573 1222.44,1584.19C1227.97,1591.93 1236.03,1599.69 1247.76,1605.59C1266.94,1615.34 1282.03,1611.58 1289.65,1602.14C1298.09,1591.68 1296.91,1574.69 1281.56,1563.18C1269.28,1553.85 1260.77,1540.87 1255.01,1528.14C1245.31,1506.7 1243.36,1486.14 1243.36,1486.14C1243.23,1484.95 1244.09,1483.89 1245.27,1483.76C1246.46,1483.63 1247.53,1484.49 1247.65,1485.67C1247.65,1485.67 1250.12,1505.4 1259.94,1525.84C1265.6,1537.6 1273.69,1549.63 1285.34,1558.11C1304.4,1572.2 1305.32,1593.48 1294.82,1606.34C1285.71,1617.5 1267.66,1622.72 1245.08,1610.75C1232.62,1604.05 1224.15,1595.47 1218.43,1586.97C1210.26,1574.83 1207.66,1562.91 1206.77,1557.17C1206.54,1555.63 1206.42,1554.54 1206.35,1554.02L1206.34,1553.91Z" style="fill:rgb(59,59,59);"/>
            </g>
            <g>
                <g transform="matrix(-0.996946,0.078098,0.078098,0.996946,2644.61,-102.517)">
                    <path d="M1310.85,1589.31C1310.85,1589.31 1305.21,1593.44 1297.03,1590.28C1295.41,1589.65 1293.67,1588.75 1291.98,1587.33C1290.76,1586.3 1289.57,1585.08 1288.4,1583.55C1287.04,1581.77 1285.76,1579.75 1284.47,1577.21C1284.07,1576.69 1284.18,1575.94 1284.7,1575.54C1285.23,1575.15 1285.98,1575.25 1286.37,1575.78C1289.21,1578.43 1291.8,1580.08 1294.16,1581.4C1295.09,1581.93 1295.97,1582.31 1296.8,1582.7C1297.71,1583.12 1298.56,1583.44 1299.37,1583.7C1304.08,1585.29 1307.22,1583.66 1307.22,1583.66C1308.78,1582.66 1310.86,1583.12 1311.86,1584.67C1312.86,1586.23 1312.4,1588.31 1310.85,1589.31Z" style="fill:rgb(59,59,59);"/>
                </g>
                <g transform="matrix(-0.996946,0.078098,0.078098,0.996946,2652.9,-90.1115)">
                    <path d="M1309.85,1590.16C1309.85,1590.16 1303.45,1595.98 1294.06,1592.92C1292.12,1592.29 1290.02,1591.28 1287.96,1589.61C1286.21,1588.2 1284.49,1586.39 1282.8,1584.02C1281.52,1582.22 1280.3,1580.19 1279.08,1577.75C1278.7,1577.22 1278.82,1576.47 1279.36,1576.09C1279.89,1575.71 1280.64,1575.84 1281.02,1576.37C1284.24,1579.74 1287.21,1581.89 1289.91,1583.51C1291,1584.17 1292.04,1584.66 1293.01,1585.11C1294.09,1585.61 1295.11,1585.97 1296.07,1586.24C1301.73,1587.85 1305.54,1585.02 1305.54,1585.02C1306.95,1583.83 1309.07,1584.02 1310.26,1585.43C1311.45,1586.85 1311.27,1588.97 1309.85,1590.16Z" style="fill:rgb(59,59,59);"/>
                </g>
            </g>
        </g>
    </g>
    <defs>
        <linearGradient id="_Linear1" x1="0" y1="0" x2="1" y2="0" gradientUnits="userSpaceOnUse" gradientTransform="matrix(324.783,380.645,-380.645,324.783,1316.64,295.897)"><stop offset="0" style="stop-color:rgb(255,210,66);stop-opacity:1"/><stop offset="0.58" style="stop-color:rgb(251,204,54);stop-opacity:1"/><stop offset="0.8" style="stop-color:rgb(243,191,27);stop-opacity:1"/><stop offset="1" style="stop-color:rgb(235,178,0);stop-opacity:1"/></linearGradient>
        <linearGradient id="_Linear2" x1="0" y1="0" x2="1" y2="0" gradientUnits="userSpaceOnUse" gradientTransform="matrix(404.035,455.77,-451.756,407.625,1315.48,268.267)"><stop offset="0" style="stop-color:rgb(252,229,155);stop-opacity:1"/><stop offset="1" style="stop-color:rgb(255,204,42);stop-opacity:1"/></linearGradient>
        <linearGradient id="_Linear3" x1="0" y1="0" x2="1" y2="0" gradientUnits="userSpaceOnUse" gradientTransform="matrix(410.154,9.20784,-9.07916,415.967,322.658,763.039)"><stop offset="0" style="stop-color:rgb(238,176,0);stop-opacity:1"/><stop offset="0.5" style="stop-color:rgb(225,171,17);stop-opacity:1"/><stop offset="1" style="stop-color:rgb(226,158,0);stop-opacity:1"/></linearGradient>
        <linearGradient id="_Linear4" x1="0" y1="0" x2="1" y2="0" gradientUnits="userSpaceOnUse" gradientTransform="matrix(410.154,9.20784,-9.07916,415.967,322.658,763.039)"><stop offset="0" style="stop-color:rgb(238,176,0);stop-opacity:1"/><stop offset="0.5" style="stop-color:rgb(225,171,17);stop-opacity:1"/><stop offset="1" style="stop-color:rgb(226,158,0);stop-opacity:1"/></linearGradient>
        <linearGradient id="_Linear5" x1="0" y1="0" x2="1" y2="0" gradientUnits="userSpaceOnUse" gradientTransform="matrix(410.154,9.20784,-9.07916,415.967,212.711,651.437)"><stop offset="0" style="stop-color:rgb(238,176,0);stop-opacity:1"/><stop offset="0.5" style="stop-color:rgb(225,171,17);stop-opacity:1"/><stop offset="1" style="stop-color:rgb(226,158,0);stop-opacity:1"/></linearGradient>
        <linearGradient id="_Linear6" x1="0" y1="0" x2="1" y2="0" gradientUnits="userSpaceOnUse" gradientTransform="matrix(410.154,9.20784,-9.07916,415.967,391.148,832.561)"><stop offset="0" style="stop-color:rgb(238,176,0);stop-opacity:1"/><stop offset="0.5" style="stop-color:rgb(225,171,17);stop-opacity:1"/><stop offset="1" style="stop-color:rgb(226,158,0);stop-opacity:1"/></linearGradient>
        <linearGradient id="_Linear7" x1="0" y1="0" x2="1" y2="0" gradientUnits="userSpaceOnUse" gradientTransform="matrix(410.154,9.20784,-9.07916,415.967,391.148,832.561)"><stop offset="0" style="stop-color:rgb(238,176,0);stop-opacity:1"/><stop offset="0.5" style="stop-color:rgb(225,171,17);stop-opacity:1"/><stop offset="1" style="stop-color:rgb(226,158,0);stop-opacity:1"/></linearGradient>
    </defs>
</svg>
