<?xml version="1.0" encoding="UTF-8" standalone="no"?>
<!DOCTYPE svg PUBLIC "-//W3C//DTD SVG 1.1//EN" "http://www.w3.org/Graphics/SVG/1.1/DTD/svg11.dtd">
<svg width="100%" height="100%" viewBox="0 0 399 470" version="1.1" xmlns="http://www.w3.org/2000/svg" xmlns:xlink="http://www.w3.org/1999/xlink" xml:space="preserve" xmlns:serif="http://www.serif.com/" style="fill-rule:evenodd;clip-rule:evenodd;stroke-linejoin:round;stroke-miterlimit:2;">
    <g transform="matrix(1,0,0,1,-100.173,-263.4)">
        <g transform="matrix(1,0,0,1,32.3334,-755.517)">
            <g>
                <g transform="matrix(0.998786,0.0492552,-0.0492552,0.998786,66.0784,60.6041)">
                    <g transform="matrix(1,0,0,1,4.44318,6.30233)">
                        <path d="M96.031,1316.71C96.031,1316.71 98.415,1363.39 116.03,1380.17C132.897,1396.23 174.709,1412.69 278.195,1407.41C371.975,1402.62 428.186,1379.59 443.121,1362.83C456.087,1348.27 456.272,1296.48 456.272,1296.48L96.031,1316.71Z" style="fill:url(#_Linear1);"/>
                    </g>
                    <g transform="matrix(1,0,0,1,4.44318,6.30233)">
                        <path d="M95.958,1315.39C95.29,1315.43 94.779,1316.05 94.816,1316.77L94.713,1316.78C94.713,1316.78 95.749,1337.99 101.788,1357.07C104.8,1366.58 109.075,1375.56 115.009,1381.24C124.906,1390.7 143.282,1400.39 177.464,1405.8C201.968,1409.68 234.665,1411.37 278.288,1409.22C320.338,1407.13 354.871,1401.38 381.548,1394.14C415.011,1385.07 436.205,1373.58 444.61,1364.15C449.368,1358.81 452.571,1348.69 454.589,1337.77C458.18,1318.36 458.239,1296.49 458.239,1296.49C458.24,1295.94 458.019,1295.43 457.625,1295.05C457.232,1294.68 456.703,1294.49 456.161,1294.52C456.161,1294.52 388.646,1298.38 312.078,1302.84C211.786,1308.67 95.963,1315.5 95.963,1315.5L95.958,1315.39ZM97.429,1317.86C110.54,1317.16 218.236,1311.4 312.273,1306.31C380.925,1302.59 442.295,1299.22 454.273,1298.56C454.15,1304.4 453.549,1321.52 450.667,1337.04C448.795,1347.13 446.029,1356.56 441.631,1361.5C433.507,1370.63 412.892,1381.53 380.521,1390.37C354.065,1397.6 319.819,1403.4 278.102,1405.59C234.791,1407.88 202.315,1406.34 177.965,1402.59C144.689,1397.47 126.718,1388.26 117.05,1379.1C111.4,1373.74 107.382,1365.21 104.485,1356.21C99.323,1340.16 97.768,1322.56 97.429,1317.86L97.429,1317.86Z" style="fill:rgb(193,136,0);"/>
                    </g>
                    <g transform="matrix(1.15328,-0.0642421,0.0556175,0.998452,-180.349,-226.009)">
                        <ellipse cx="324.647" cy="1562.5" rx="156.095" ry="45.515" style="fill:url(#_Linear2);"/>
                    </g>
                    <g transform="matrix(1.15328,-0.0642421,0.0556175,0.998452,-180.349,-226.009)">
                        <path d="M324.647,1515.77C278.365,1515.62 236.734,1521.37 208.042,1530.6C193.575,1535.26 182.372,1540.84 175.441,1546.95C169.934,1551.81 167.07,1557.09 167.059,1562.5C167.049,1567.91 169.903,1573.22 175.399,1578.11C182.316,1584.27 193.513,1589.91 207.982,1594.64C236.668,1604.03 278.321,1609.95 324.647,1610.01C370.974,1609.96 412.63,1604.05 441.319,1594.67C455.794,1589.94 466.997,1584.31 473.917,1578.15C479.428,1573.25 482.286,1567.93 482.278,1562.5C482.268,1557.08 479.402,1551.78 473.882,1546.9C466.949,1540.79 455.739,1535.21 441.265,1530.55C412.571,1521.3 370.935,1515.54 324.647,1515.66L324.647,1515.77ZM324.647,1518.3C370.653,1518.43 412.01,1524.37 440.492,1533.72C454.494,1538.31 465.355,1543.7 472.049,1549.66C476.623,1553.74 479.214,1557.99 479.206,1562.5C479.199,1567 476.595,1571.24 472.014,1575.28C465.308,1581.21 454.438,1586.53 440.439,1591.06C411.952,1600.28 370.614,1606.07 324.647,1606.02C278.678,1606.08 237.337,1600.3 208.847,1591.09C194.841,1586.57 183.967,1581.24 177.256,1575.32C172.662,1571.26 170.052,1567.01 170.044,1562.5C170.035,1557.98 172.628,1553.71 177.215,1549.62C183.912,1543.65 194.778,1538.26 208.787,1533.66C237.271,1524.31 278.633,1518.35 324.647,1518.2L324.647,1518.3Z" style="fill:rgb(193,136,0);"/>
                    </g>
                    <g transform="matrix(0.945533,-0.0526697,0.0372293,0.668346,-83.0448,285.24)">
                        <ellipse cx="324.647" cy="1562.5" rx="156.095" ry="45.515" style="fill:rgb(252,226,140);"/>
                    </g>
                    <g transform="matrix(0.945533,-0.0526697,0.0372293,0.668346,-83.0448,285.24)">
                        <path d="M324.647,1515.17C279.345,1514.95 238.499,1520.38 209.882,1529.23C192.234,1534.69 179.185,1541.53 172.448,1549.04C168.632,1553.29 166.74,1557.89 166.731,1562.5C166.722,1567.12 168.607,1571.73 172.413,1576.02C179.13,1583.59 192.171,1590.55 209.824,1596.14C238.434,1605.21 279.303,1610.91 324.647,1611C369.993,1610.93 410.864,1605.24 439.477,1596.19C457.14,1590.6 470.187,1583.65 476.91,1576.07C480.732,1571.77 482.623,1567.14 482.615,1562.5C482.608,1557.87 480.713,1553.25 476.882,1548.98C470.142,1541.46 457.085,1534.61 439.425,1529.14C410.806,1520.28 369.955,1514.82 324.647,1515.01L324.647,1515.17ZM324.647,1518.96C369.681,1519.15 410.261,1524.91 438.671,1533.95C452.652,1538.4 463.654,1543.62 470.72,1549.41C473.541,1551.72 475.709,1554.09 477.128,1556.56C478.246,1558.5 478.872,1560.47 478.869,1562.5C478.866,1564.53 478.229,1566.49 477.107,1568.42C475.683,1570.87 473.508,1573.22 470.685,1575.51C463.607,1581.23 452.598,1586.36 438.619,1590.72C410.205,1599.57 369.644,1605.1 324.647,1605.03C279.648,1605.12 239.085,1599.61 210.667,1590.77C196.682,1586.41 185.667,1581.29 178.585,1575.56C175.755,1573.27 173.577,1570.92 172.148,1568.46C171.017,1566.52 170.376,1564.54 170.372,1562.5C170.362,1557.79 173.398,1553.55 178.544,1549.34C185.613,1543.55 196.621,1538.32 210.608,1533.86C239.021,1524.8 279.605,1519.02 324.647,1518.8L324.647,1518.96Z" style="fill:rgb(193,136,0);"/>
                    </g>
                </g>
                <g transform="matrix(0.998786,0.0492552,-0.0492552,0.998786,63.6727,-11.5487)">
                    <g transform="matrix(1,0,0,1,4.44318,6.30233)">
                        <path d="M96.031,1316.71C96.031,1316.71 98.415,1363.39 116.03,1380.17C132.897,1396.23 174.709,1412.69 278.195,1407.41C371.975,1402.62 428.186,1379.59 443.121,1362.83C456.087,1348.27 456.272,1296.48 456.272,1296.48L96.031,1316.71Z" style="fill:url(#_Linear3);"/>
                    </g>
                    <g transform="matrix(1,0,0,1,4.44318,6.30233)">
                        <path d="M95.958,1315.39C95.29,1315.43 94.779,1316.05 94.816,1316.77L94.713,1316.78C94.713,1316.78 95.749,1337.99 101.788,1357.07C104.8,1366.58 109.075,1375.56 115.009,1381.24C124.906,1390.7 143.282,1400.39 177.464,1405.8C201.968,1409.68 234.665,1411.37 278.288,1409.22C320.338,1407.13 354.871,1401.38 381.548,1394.14C415.011,1385.07 436.205,1373.58 444.61,1364.15C449.368,1358.81 452.571,1348.69 454.589,1337.77C458.18,1318.36 458.239,1296.49 458.239,1296.49C458.24,1295.94 458.019,1295.43 457.625,1295.05C457.232,1294.68 456.703,1294.49 456.161,1294.52C456.161,1294.52 388.646,1298.38 312.078,1302.84C211.786,1308.67 95.963,1315.5 95.963,1315.5L95.958,1315.39ZM97.429,1317.86C110.54,1317.16 218.236,1311.4 312.273,1306.31C380.925,1302.59 442.295,1299.22 454.273,1298.56C454.15,1304.4 453.549,1321.52 450.667,1337.04C448.795,1347.13 446.029,1356.56 441.631,1361.5C433.507,1370.63 412.892,1381.53 380.521,1390.37C354.065,1397.6 319.819,1403.4 278.102,1405.59C234.791,1407.88 202.315,1406.34 177.965,1402.59C144.689,1397.47 126.718,1388.26 117.05,1379.1C111.4,1373.74 107.382,1365.21 104.485,1356.21C99.323,1340.16 97.768,1322.56 97.429,1317.86L97.429,1317.86Z" style="fill:rgb(193,136,0);"/>
                    </g>
                    <g transform="matrix(1.15328,-0.0642421,0.0556175,0.998452,-180.349,-226.009)">
                        <ellipse cx="324.647" cy="1562.5" rx="156.095" ry="45.515" style="fill:url(#_Linear4);"/>
                    </g>
                    <g transform="matrix(1.15328,-0.0642421,0.0556175,0.998452,-180.349,-226.009)">
                        <path d="M324.647,1515.77C278.365,1515.62 236.734,1521.37 208.042,1530.6C193.575,1535.26 182.372,1540.84 175.441,1546.95C169.934,1551.81 167.07,1557.09 167.059,1562.5C167.049,1567.91 169.903,1573.22 175.399,1578.11C182.316,1584.27 193.513,1589.91 207.982,1594.64C236.668,1604.03 278.321,1609.95 324.647,1610.01C370.974,1609.96 412.63,1604.05 441.319,1594.67C455.794,1589.94 466.997,1584.31 473.917,1578.15C479.428,1573.25 482.286,1567.93 482.278,1562.5C482.268,1557.08 479.402,1551.78 473.882,1546.9C466.949,1540.79 455.739,1535.21 441.265,1530.55C412.571,1521.3 370.935,1515.54 324.647,1515.66L324.647,1515.77ZM324.647,1518.3C370.653,1518.43 412.01,1524.37 440.492,1533.72C454.494,1538.31 465.355,1543.7 472.049,1549.66C476.623,1553.74 479.214,1557.99 479.206,1562.5C479.199,1567 476.595,1571.24 472.014,1575.28C465.308,1581.21 454.438,1586.53 440.439,1591.06C411.952,1600.28 370.614,1606.07 324.647,1606.02C278.678,1606.08 237.337,1600.3 208.847,1591.09C194.841,1586.57 183.967,1581.24 177.256,1575.32C172.662,1571.26 170.052,1567.01 170.044,1562.5C170.035,1557.98 172.628,1553.71 177.215,1549.62C183.912,1543.65 194.778,1538.26 208.787,1533.66C237.271,1524.31 278.633,1518.35 324.647,1518.2L324.647,1518.3Z" style="fill:rgb(193,136,0);"/>
                    </g>
                    <g transform="matrix(0.945533,-0.0526697,0.0372293,0.668346,-83.0448,285.24)">
                        <ellipse cx="324.647" cy="1562.5" rx="156.095" ry="45.515" style="fill:rgb(252,226,140);"/>
                    </g>
                    <g transform="matrix(0.945533,-0.0526697,0.0372293,0.668346,-83.0448,285.24)">
                        <path d="M324.647,1515.17C279.345,1514.95 238.499,1520.38 209.882,1529.23C192.234,1534.69 179.185,1541.53 172.448,1549.04C168.632,1553.29 166.74,1557.89 166.731,1562.5C166.722,1567.12 168.607,1571.73 172.413,1576.02C179.13,1583.59 192.171,1590.55 209.824,1596.14C238.434,1605.21 279.303,1610.91 324.647,1611C369.993,1610.93 410.864,1605.24 439.477,1596.19C457.14,1590.6 470.187,1583.65 476.91,1576.07C480.732,1571.77 482.623,1567.14 482.615,1562.5C482.608,1557.87 480.713,1553.25 476.882,1548.98C470.142,1541.46 457.085,1534.61 439.425,1529.14C410.806,1520.28 369.955,1514.82 324.647,1515.01L324.647,1515.17ZM324.647,1518.96C369.681,1519.15 410.261,1524.91 438.671,1533.95C452.652,1538.4 463.654,1543.62 470.72,1549.41C473.541,1551.72 475.709,1554.09 477.128,1556.56C478.246,1558.5 478.872,1560.47 478.869,1562.5C478.866,1564.53 478.229,1566.49 477.107,1568.42C475.683,1570.87 473.508,1573.22 470.685,1575.51C463.607,1581.23 452.598,1586.36 438.619,1590.72C410.205,1599.57 369.644,1605.1 324.647,1605.03C279.648,1605.12 239.085,1599.61 210.667,1590.77C196.682,1586.41 185.667,1581.29 178.585,1575.56C175.755,1573.27 173.577,1570.92 172.148,1568.46C171.017,1566.52 170.376,1564.54 170.372,1562.5C170.362,1557.79 173.398,1553.55 178.544,1549.34C185.613,1543.55 196.621,1538.32 210.608,1533.86C239.021,1524.8 279.605,1519.02 324.647,1518.8L324.647,1518.96Z" style="fill:rgb(193,136,0);"/>
                    </g>
                </g>
            </g>
            <g>
                <g transform="matrix(0.998786,0.0492552,-0.0492552,0.998786,63.6727,-11.5487)">
                    <path d="M375.444,1184.54C375.444,1184.54 424.66,1158.11 409.178,1139.83C393.697,1121.54 348.544,1130.62 360.551,1093.34C372.779,1055.37 417.906,1080.48 429.244,1089.32C442.323,1099.5 470.988,1127.62 449.951,1159.13C434.581,1182.16 406.532,1194.06 396.201,1198.89C385.87,1203.72 375.444,1184.54 375.444,1184.54Z" style="fill:white;"/>
                </g>
                <path d="M409.314,1192.56C409.314,1192.56 444.744,1181.52 456.814,1164.57C456.814,1164.57 456.147,1177.4 412.4,1200.29L409.314,1192.56Z" style="fill:rgb(202,202,202);"/>
                <path d="M399.888,1182.33C399.888,1182.33 426.547,1168.09 431.482,1149.72C436.417,1131.34 407.284,1112.04 371.378,1099.07C371.378,1099.07 361.116,1111.7 369.69,1119.55C378.264,1127.4 393.138,1132.9 402.066,1137.03C410.995,1141.16 421.403,1147.85 418.339,1156.94C415.274,1166.03 398.151,1180.95 397.345,1180.95C396.538,1180.94 399.888,1182.33 399.888,1182.33Z" style="fill:rgb(236,235,235);"/>
                <g transform="matrix(0.998786,0.0492552,-0.0492552,0.998786,63.6727,-11.5487)">
                    <path d="M405.886,1135.93C420.408,1145.98 440.764,1102.96 431.954,1092.3C424.785,1083.62 400.274,1068.49 379.153,1073.93C367.904,1076.82 357.948,1087.46 359.888,1108.48C361.517,1126.13 395.938,1129.05 405.886,1135.93Z" style="fill:rgb(117,190,116);"/>
                </g>
                <path d="M430.003,1137.5C421.178,1119.51 382.089,1104.7 369.404,1115.67C369.404,1115.67 366.785,1123.72 394.829,1133.87C407.228,1138.36 413.413,1143.64 413.933,1143.96C420.156,1147.75 430.589,1138.7 430.003,1137.5Z" style="fill:rgb(75,147,74);"/>
                <g transform="matrix(0.998786,0.0492552,-0.0492552,0.998786,63.6727,-11.5487)">
                    <path d="M374.82,1183.46C374.511,1183.62 374.28,1183.88 374.18,1184.19C374.08,1184.5 374.117,1184.83 374.285,1185.12L374.375,1185.12C374.375,1185.12 378.977,1193.66 385.156,1198.16C388.703,1200.75 392.75,1201.99 396.781,1200.13C403.722,1196.93 418.571,1190.61 432.334,1179.94C439.352,1174.5 446.08,1167.93 451.369,1160.08C458.99,1148.77 460.401,1137.84 458.455,1127.95C454.82,1109.48 439.239,1094.64 430.457,1087.76C426.395,1084.59 418.099,1079.36 408.482,1075.59C400.521,1072.47 391.664,1070.38 383.552,1071.16C372.922,1072.18 363.462,1077.98 358.738,1092.75C355.135,1104.06 356.559,1111.39 360.593,1116.54C365.687,1123.05 375.315,1126.06 385.127,1129.14C393.824,1131.88 402.667,1134.69 407.944,1140.87C413.283,1147.12 409.922,1154.4 404.087,1161.12C393.633,1173.16 374.82,1183.37 374.82,1183.37L374.82,1183.46ZM377.179,1185.09C382.126,1182.32 402.264,1170.54 410.28,1157.96C414.424,1151.45 415.415,1144.74 410.413,1138.78C404.819,1132.11 395.47,1128.84 386.18,1125.84C377.145,1122.92 368.151,1120.33 363.489,1114.29C360.07,1109.86 359.224,1103.57 362.363,1093.92C366.529,1081.08 374.671,1075.95 383.924,1075.09C391.449,1074.39 399.643,1076.42 407.027,1079.31C416.207,1082.9 424.148,1087.85 428.031,1090.87C435.154,1096.39 447.031,1107.32 452.602,1121.25C456.944,1132.1 457.39,1144.81 448.533,1158.19C443.515,1165.78 437.087,1172.15 430.387,1177.45C416.956,1188.08 402.414,1194.43 395.621,1197.65C392.533,1199.12 389.44,1198 386.688,1196.04C382.221,1192.86 378.611,1187.43 377.179,1185.09L377.179,1185.09Z" style="fill:rgb(59,59,59);"/>
                </g>
            </g>
            <g>
                <g transform="matrix(0.998786,0.0492552,-0.0492552,0.998786,63.6727,-11.5487)">
                    <path d="M139.157,1312.3C139.157,1312.3 140.845,1318.88 159.119,1324.96C177.393,1331.06 191.529,1329.59 193.062,1330.74C194.594,1331.89 195.041,1335.84 205.306,1337.85C215.572,1339.87 229.115,1336.93 243.575,1334.94C258.034,1332.94 266.41,1335.47 273.613,1334.22C285.68,1332.11 287.67,1327.6 295.786,1326.11C297.143,1325.86 317.967,1324.63 328.663,1323.75C342.712,1322.58 378.055,1309.67 391.619,1308.77C412.864,1307.36 437.664,1303.32 432.339,1291.95C427.013,1280.57 139.101,1312.85 139.157,1312.3Z" style="fill:rgb(159,112,0);fill-opacity:0.33;"/>
                </g>
                <g transform="matrix(0.997623,0.0689119,-0.0689119,0.997623,88.2499,-15.4232)">
                    <path d="M304.223,1147.16C304.223,1147.16 425.533,1135.51 422.757,1256.07C422.757,1256.07 418.685,1296.57 328.236,1313.99C292.24,1320.92 242.564,1324.2 174.019,1319.81C174.019,1319.81 -17.298,1206.17 304.223,1147.16Z" style="fill:white;"/>
                </g>
                <g transform="matrix(0.997623,0.0689119,-0.0689119,0.997623,88.2499,-15.4232)">
                    <path d="M304.032,1145.17C303.975,1145.18 303.918,1145.18 303.862,1145.19C197.537,1164.71 146.971,1190.37 126.899,1215.75C109.631,1237.58 114.225,1259.36 125.821,1277.51C142.277,1303.26 172.998,1321.53 172.998,1321.53C173.27,1321.69 173.576,1321.79 173.891,1321.81C202.982,1323.67 228.681,1324.15 251.385,1323.57C282.362,1322.77 307.772,1319.97 328.614,1315.95C359.599,1309.99 380.545,1301.32 394.708,1292.49C423.09,1274.81 424.747,1256.27 424.747,1256.27C424.753,1256.22 424.756,1256.17 424.757,1256.12C425.738,1213.51 411.42,1187.14 392.417,1170.83C356.682,1140.15 304.032,1145.17 304.032,1145.17ZM304.497,1149.14C306.793,1148.94 356.103,1144.93 389.812,1173.87C408.088,1189.56 421.68,1214.98 420.76,1255.92C420.604,1257.05 417.943,1273.3 392.593,1289.1C378.724,1297.74 358.198,1306.18 327.858,1312.03C307.192,1316.01 281.996,1318.77 251.282,1319.57C228.81,1320.15 203.391,1319.67 174.636,1317.85C171.013,1315.63 144.081,1298.66 129.192,1275.36C118.466,1258.57 114.065,1238.42 130.036,1218.23C149.81,1193.23 199.783,1168.37 304.496,1149.14L304.497,1149.14Z" style="fill:rgb(59,59,59);"/>
                </g>
            </g>
            <g transform="matrix(0.687595,-0.13615,0.13615,0.687595,-900.768,319.541)">
                <path d="M1192.62,1599.19C1192.62,1599.19 1188.28,1624.48 1256.99,1643.8C1301.34,1656.27 1338.85,1655.57 1366.1,1650.68C1391.06,1646.2 1461.63,1626.87 1452.02,1601.52C1452.02,1601.52 1310.76,1649.35 1192.62,1599.19Z" style="fill:rgb(236,235,235);"/>
                <path d="M1205.7,1577.61C1205.7,1577.61 1255.65,1605.92 1322.32,1607.02C1390.94,1608.16 1426.91,1581.9 1427.68,1582.1C1428.44,1582.31 1448.14,1577.12 1451.91,1589.98C1456.67,1606.2 1437.36,1615.23 1420.91,1622.33C1404.46,1629.44 1366.22,1641.91 1323.96,1640.04C1281.69,1638.17 1220.17,1625.03 1201.21,1609.33C1182.25,1593.63 1199.61,1573.62 1205.7,1577.61Z" style="fill:rgb(255,73,73);"/>
                <path d="M1197.34,1585.95C1197.34,1585.95 1194.28,1590.03 1205.94,1598.29C1220.46,1608.57 1262.94,1627.43 1324.74,1627.52C1379.49,1627.59 1438.25,1611.73 1449.19,1588.67C1449.19,1588.67 1434.64,1593.78 1422.38,1597.98C1410.11,1602.18 1378.12,1615.3 1322.13,1615.64C1270.6,1615.95 1227.58,1601.57 1197.34,1585.95Z" style="fill:rgb(235,27,27);"/>
                <path d="M1427.85,1580.13C1427.51,1580.12 1426.93,1580.18 1426.21,1580.58C1425.51,1580.97 1424.08,1581.85 1421.93,1583.04C1414.76,1587.04 1399.46,1594.67 1376.33,1599.81C1361.51,1603.1 1343.5,1605.37 1322.36,1605.02C1300.26,1604.66 1280.01,1601.28 1262.84,1596.94C1229.69,1588.57 1208.03,1576.62 1206.75,1575.91L1206.74,1575.9C1205.16,1574.9 1203.09,1574.82 1200.89,1575.75C1196.62,1577.55 1191.64,1583.45 1190.74,1590.83C1189.99,1597.04 1192.03,1604.32 1199.93,1610.87C1208.79,1618.2 1226.74,1625.06 1247.77,1630.43C1272.24,1636.69 1300.89,1641.02 1323.87,1642.04C1341.63,1642.82 1358.68,1641.1 1373.74,1638.31C1394.84,1634.39 1412.02,1628.36 1421.71,1624.17C1431.1,1620.11 1441.37,1615.4 1447.8,1609.19C1453.35,1603.84 1456.17,1597.4 1453.83,1589.42C1452.39,1584.5 1448.98,1581.82 1444.99,1580.45C1439.27,1578.49 1432.27,1579.41 1429.04,1579.91C1428.39,1580.01 1427.68,1580.11 1427.68,1580.11L1427.85,1580.13ZM1428.14,1584.08C1428.46,1584.05 1428.97,1583.97 1429.65,1583.86C1432.5,1583.42 1438.66,1582.51 1443.69,1584.24C1446.52,1585.2 1448.97,1587.07 1449.99,1590.55C1451.87,1596.93 1449.46,1602.03 1445.03,1606.31C1438.9,1612.23 1429.06,1616.63 1420.12,1620.5C1410.61,1624.61 1393.73,1630.52 1373.01,1634.37C1358.22,1637.12 1341.48,1638.81 1324.05,1638.04C1301.31,1637.04 1272.97,1632.75 1248.76,1626.56C1228.44,1621.36 1211.04,1614.88 1202.49,1607.79C1195.95,1602.38 1194.09,1596.44 1194.71,1591.32C1195.31,1586.41 1198.1,1582.29 1200.98,1580.26C1201.72,1579.75 1202.45,1579.37 1203.15,1579.2C1203.7,1579.06 1204.21,1579.02 1204.61,1579.29C1204.64,1579.31 1204.68,1579.33 1204.72,1579.35C1204.72,1579.35 1227.07,1592.03 1261.86,1600.82C1279.3,1605.22 1299.85,1608.65 1322.29,1609.02C1343.8,1609.38 1362.12,1607.06 1377.19,1603.71C1400.87,1598.45 1416.53,1590.62 1423.88,1586.54C1426.01,1585.35 1427.44,1584.48 1428.14,1584.08Z" style="fill:rgb(59,59,59);"/>
                <g transform="matrix(1.02787,0,0,1.13035,-37.7852,-230.165)">
                    <ellipse cx="1324.73" cy="1666.84" rx="34.046" ry="30.707" style="fill:rgb(236,235,235);"/>
                </g>
                <g transform="matrix(0.136983,0,0,0.136983,1162.91,1575.21)">
                    <g>
                        <g transform="matrix(1,0,0,1,-295.448,56.7653)">
                            <circle cx="1469.85" cy="477.56" r="253.23" style="fill:url(#_Linear5);"/>
                        </g>
                        <g transform="matrix(1,0,0,1,-295.448,56.7653)">
                            <path d="M1469.85,218.197C1398.28,218.197 1333.44,247.25 1286.49,294.197C1239.54,341.145 1210.49,405.986 1210.49,477.56C1210.49,549.133 1239.54,613.974 1286.49,660.922C1333.44,707.869 1398.28,736.922 1469.85,736.922C1541.43,736.922 1606.27,707.869 1653.22,660.922C1700.16,613.974 1729.22,549.133 1729.22,477.56C1729.22,405.986 1700.16,341.145 1653.22,294.197C1606.27,247.25 1541.43,218.197 1469.85,218.197ZM1469.85,230.463C1538.04,230.463 1599.82,258.144 1644.54,302.871C1689.27,347.598 1716.95,409.372 1716.95,477.56C1716.95,545.748 1689.27,607.521 1644.54,652.248C1599.82,696.975 1538.04,724.656 1469.85,724.656C1401.67,724.656 1339.89,696.975 1295.17,652.248C1250.44,607.521 1222.76,545.748 1222.76,477.56C1222.76,409.372 1250.44,347.598 1295.17,302.871C1339.89,258.144 1401.67,230.463 1469.85,230.463Z" style="fill:rgb(193,136,0);"/>
                        </g>
                        <g transform="matrix(0.826479,0,0,0.826479,-38.2736,142.963)">
                            <circle cx="1469.85" cy="477.56" r="253.23" style="fill:rgb(238,181,0);"/>
                        </g>
                        <g transform="matrix(0.793785,0,0,0.786794,9.78188,161.914)">
                            <circle cx="1469.85" cy="477.56" r="253.23" style="fill:url(#_Linear6);"/>
                        </g>
                    </g>
                    <g transform="matrix(0.790579,0,0,0.790579,440.076,268.839)">
                        <g transform="matrix(0.642404,0.64184,-0.63287,0.633426,1101.89,-482.928)">
                            <rect x="591.693" y="638.386" width="68.49" height="68.258" style="fill:url(#_Linear7);"/>
                        </g>
                        <g transform="matrix(0.642404,0.64184,-0.63287,0.633426,1101.89,-482.928)">
                            <rect x="365.553" y="862.713" width="67.245" height="69.522" style="fill:url(#_Linear8);"/>
                        </g>
                        <g transform="matrix(0.642404,0.64184,-0.63287,0.633426,1101.89,-341.668)">
                            <path d="M481.747,751.111L365.553,751.111L365.553,820.632L550.236,820.632L550.236,638.386L481.747,638.386L481.747,751.111Z" style="fill:url(#_Linear9);"/>
                        </g>
                        <g transform="matrix(0.642404,0.64184,-0.63287,0.633426,1101.89,-570.924)">
                            <path d="M612.475,886.287L434.043,886.287L434.043,707.907L612.475,707.907L612.475,819.51L612.475,776.165L501.287,776.165L501.287,886.287L612.475,886.287Z" style="fill:url(#_Linear10);"/>
                        </g>
                        <g transform="matrix(0.642404,0.64184,-0.63287,0.633426,1101.89,-570.924)">
                            <rect x="543.989" y="819.51" width="68.487" height="66.777" style="fill:url(#_Linear11);"/>
                        </g>
                    </g>
                </g>
            </g>
            <g transform="matrix(0.527653,-0.0168194,0.0168194,0.527653,-540.777,523.628)">
                <g transform="matrix(1.00109,0,0,0.922078,-1.23669,111.589)">
                    <path d="M1140.96,1222.4C1148.27,1132.57 1170.62,1062.82 1220.73,1010.1C1278.59,949.209 1429.47,911.704 1515.93,1006.71C1578.96,1075.97 1591.33,1113.14 1608.8,1206.29C1621.67,1274.93 1615.61,1323.59 1559.96,1361.46C1513.75,1392.91 1478.12,1411.85 1439.55,1420.6C1420.68,1424.87 1401.11,1426.71 1379.25,1426.37C1329.6,1425.61 1289.88,1433.66 1197.93,1376.64C1143.67,1342.99 1136.15,1281.39 1140.96,1222.4Z" style="fill:white;"/>
                </g>
                <g transform="matrix(0.896984,0,0,0.896984,135.838,107.349)">
                    <path d="M1138.11,1177.52C1138.11,1177.52 1092.79,1328.83 1151.31,1391.04C1214.27,1457.98 1330.59,1472.4 1317.32,1468.49C1264.49,1452.91 1196.45,1411.83 1177.26,1384.75C1129.19,1316.88 1131.55,1273.83 1138.11,1177.52Z" style="fill:rgb(236,235,235);"/>
                </g>
                <g transform="matrix(-0.896984,0,0,0.896984,2618.32,98.3105)">
                    <path d="M1147.57,1177.05C1147.57,1177.05 1083.24,1332.08 1149.45,1392.14C1217.52,1453.89 1328.95,1474.52 1315.68,1470.6C1270.08,1457.16 1214.36,1423.13 1187.63,1396.66C1183.4,1392.46 1179.89,1388.45 1177.26,1384.75C1129.19,1316.88 1141.01,1273.36 1147.57,1177.05Z" style="fill:rgb(236,235,235);"/>
                </g>
                <g transform="matrix(1.00109,0,0,0.922078,-1.23669,111.589)">
                    <path d="M1137.96,1222.12C1135.5,1252.37 1136.27,1283.3 1144.7,1310.91C1153.05,1338.25 1168.87,1362.37 1196.44,1379.47C1232.64,1401.92 1261.46,1414.54 1286.12,1421.44C1324.63,1432.23 1353.01,1429.09 1383.52,1427.49C1419.03,1425.64 1447.54,1421.18 1476.91,1410.31C1502.69,1400.78 1529.13,1386.29 1561.56,1364.23C1590.57,1344.48 1606.39,1321.82 1613.28,1295.14C1619.89,1269.49 1618.19,1240.03 1611.74,1205.64C1602.9,1158.5 1595.33,1125.61 1581.96,1095.68C1568.69,1065.99 1549.72,1039.2 1518.07,1004.41C1477.04,959.332 1421.75,943.558 1368.47,945.934C1307.84,948.637 1249.88,974.879 1218.63,1007.75C1191.94,1035.84 1173.02,1068.7 1160.01,1106.78C1148.36,1140.9 1141.46,1179.23 1137.96,1222.12ZM1143.95,1222.69C1147.39,1180.44 1154.17,1142.67 1165.65,1109.05C1178.34,1071.9 1196.78,1039.84 1222.82,1012.44C1253.23,980.442 1309.71,955.084 1368.72,952.453C1420.37,950.15 1474.02,965.296 1513.79,1009C1544.86,1043.14 1563.53,1069.38 1576.55,1098.53C1589.73,1128.03 1597.14,1160.47 1605.85,1206.94C1612.08,1240.15 1613.88,1268.61 1607.49,1293.38C1600.97,1318.65 1585.85,1340 1558.37,1358.7C1526.41,1380.44 1500.37,1394.74 1474.97,1404.14C1446.12,1414.81 1418.11,1419.15 1383.23,1420.98C1353.28,1422.54 1325.43,1425.71 1287.62,1415.12C1263.37,1408.33 1235.03,1395.89 1199.42,1373.81C1173.3,1357.61 1158.32,1334.76 1150.4,1308.85C1142.23,1282.07 1141.56,1252.05 1143.95,1222.69Z" style="fill:rgb(59,59,59);"/>
                </g>
                <g transform="matrix(1.73728,0.374681,-0.367254,1.70307,635.42,-530.028)">
                    <g transform="matrix(0.994231,0.10832,-0.100697,0.991676,40.1989,-20.2472)">
                        <ellipse cx="713.584" cy="827.998" rx="12.132" ry="11.904" style="fill:rgb(66,66,66);"/>
                    </g>
                    <g transform="matrix(0.590855,0.0643731,-0.0597553,0.588477,294.532,346.479)">
                        <ellipse cx="713.584" cy="827.998" rx="12.132" ry="11.904" style="fill:rgb(48,46,46);"/>
                    </g>
                    <g transform="matrix(0.239094,0.026049,-0.0247783,0.24402,510.606,659.175)">
                        <ellipse cx="713.584" cy="827.998" rx="12.132" ry="11.904" style="fill:white;"/>
                    </g>
                </g>
                <g transform="matrix(1.74806,-0.320651,0.314382,1.71361,-158.378,-59.4464)">
                    <g transform="matrix(0.994231,0.10832,-0.100697,0.991676,40.1989,-20.2472)">
                        <ellipse cx="713.584" cy="827.998" rx="12.132" ry="11.904" style="fill:rgb(66,66,66);"/>
                    </g>
                    <g transform="matrix(0.590855,0.0643731,-0.0597553,0.588477,293.578,345.778)">
                        <ellipse cx="713.584" cy="827.998" rx="12.132" ry="11.904" style="fill:rgb(48,46,46);"/>
                    </g>
                    <g transform="matrix(0.239094,0.026049,-0.0247783,0.24402,511.966,652.214)">
                        <ellipse cx="713.584" cy="827.998" rx="12.132" ry="11.904" style="fill:white;"/>
                    </g>
                </g>
                <g transform="matrix(1.77223,-0.133134,0.130523,1.73732,164.531,-218.226)">
                    <g transform="matrix(0.950013,-0.0512313,0.0610704,1.13247,-31.2636,-49.1448)">
                        <path d="M614.396,898.138C614.396,898.138 617.957,907.58 626.49,913.635C633.945,918.925 642.009,906.87 644.459,897.671C644.459,897.671 632.201,899.909 628.553,885.527C628.553,885.527 628.017,896.875 614.396,898.138Z" style="fill:rgb(255,198,198);"/>
                    </g>
                    <g transform="matrix(0.950013,-0.0512313,0.0651226,1.20761,-34.833,-115.334)">
                        <path d="M621.97,893.784C619.231,895.236 611.559,896.267 611.559,896.267C611.559,896.267 614.833,903.37 618.448,907.617C620.096,909.554 622.34,911.802 625.209,913.755C629.821,916.893 632.988,916.704 636.81,913.35C640.591,910.03 644.647,904.368 646.425,899.008C647.017,897.225 647.567,895.585 647.109,895.045C646.652,894.505 640.745,895.452 635.947,892.789C633.51,891.436 631.198,889.318 629.984,885.161C629.801,884.44 629.11,883.969 628.372,884.062C627.633,884.155 627.078,884.783 627.077,885.527C627.077,885.527 626.85,891.196 621.97,893.784ZM616.194,898.007C616.194,898.007 621.835,897.48 625.487,894.699C627.373,893.262 628.518,891.33 629.223,889.64C630.349,892.081 631.147,892.853 633.22,894.167C636.719,896.384 641.137,897.108 643.51,897.42C643.033,899.731 639.751,904.153 638.622,905.825C637.493,907.496 636.333,908.831 634.945,909.932C632.619,911.777 629.835,912.206 627.233,910.917C624.389,909.507 622.337,907.417 620.86,905.636C618.326,902.583 616.563,899.439 616.194,898.007Z" style="fill:rgb(59,59,59);"/>
                    </g>
                    <g transform="matrix(0.998549,-0.0538487,0.0538487,0.998549,-55.6469,62.9973)">
                        <path d="M602.003,898.971C602.003,898.971 602.006,901.801 604.863,904.356C606.448,905.774 608.951,907.085 612.904,907.733C616.151,908.243 620.767,907.649 624.532,904.854C626.288,903.552 627.845,901.765 628.999,899.4C629.946,900.904 631.257,902.513 633.044,903.886C635.549,905.812 638.986,907.286 643.627,907.315C645.252,907.31 648.523,906.894 651.343,905.222C653.56,903.908 655.528,901.886 656.232,898.764C656.373,898.243 656.074,897.704 655.564,897.561C655.054,897.418 654.525,897.725 654.384,898.245C653.627,900.618 651.956,902.034 650.152,902.906C647.748,904.067 645.069,904.206 643.749,904.103C640.014,903.848 637.328,902.502 635.377,900.86C633.798,899.531 632.732,897.985 631.996,896.644C630.995,894.818 630.639,893.371 630.639,893.371C630.427,892.422 629.586,891.762 628.633,891.796C627.68,891.831 626.883,892.55 626.734,893.511C626.196,897.517 624.517,900.242 622.39,902.022C619.494,904.444 615.854,905.214 613.221,905.002C610.531,904.803 608.57,904.21 607.142,903.429C603.798,901.601 603.465,898.891 603.465,898.891C603.444,898.48 603.1,898.164 602.697,898.185C602.293,898.207 601.982,898.559 602.003,898.971Z" style="fill:rgb(59,59,59);"/>
                    </g>
                </g>
                <g transform="matrix(1.61858,-0.734199,1.16972,2.58039,-671.309,-621.175)">
                    <ellipse cx="669.529" cy="919.793" rx="10.044" ry="2.984" style="fill:rgb(153,193,152);"/>
                </g>
                <g transform="matrix(1.45254,1.02425,-1.63204,2.31578,1793.03,-1549.32)">
                    <ellipse cx="669.529" cy="919.793" rx="10.044" ry="2.984" style="fill:rgb(153,193,152);"/>
                </g>
                <g transform="matrix(0.999994,-0.00360345,0.00360345,0.999994,-0.699775,2.79507)">
                    <g transform="matrix(1.67162,-0.141273,0.141273,1.67162,-253.189,-832.772)">
                        <path d="M930.41,1183.14C930.41,1183.14 991.68,1161.03 1020.36,1193.7C1020.36,1193.7 1029.76,1239.19 990.958,1272.07" style="fill:white;"/>
                    </g>
                    <g transform="matrix(-0.996031,-0.04466,-0.0438615,0.978223,2804.61,113.581)">
                        <path d="M1183.49,1104.09C1183.49,1104.09 1208.41,1026.93 1277.45,991.103C1277.45,991.103 1206.56,955.238 1155.07,985.311C1155.07,985.311 1145.44,1056.72 1183.49,1104.09Z" style="fill:rgb(117,190,116);"/>
                    </g>
                    <g transform="matrix(1.67162,-0.141273,0.141273,1.67162,-253.189,-832.772)">
                        <path d="M931.089,1185.02C931.089,1185.02 959.65,1174.78 986.633,1178.84C998.42,1180.61 1009.93,1185.11 1018.51,1194.61C1019.09,1197.82 1021.8,1215.73 1014.46,1236.21C1010.32,1247.78 1002.99,1260.18 990.245,1271.23C989.781,1271.62 989.723,1272.32 990.117,1272.79C990.511,1273.25 991.207,1273.31 991.672,1272.91C1005.08,1261.81 1012.95,1249.18 1017.47,1237.32C1026.43,1213.81 1022.3,1193.29 1022.3,1193.29C1022.23,1192.96 1022.08,1192.64 1021.85,1192.39C1012.62,1181.82 1000.12,1176.7 987.25,1174.75C959.306,1170.52 929.732,1181.26 929.732,1181.26C928.693,1181.63 928.155,1182.78 928.529,1183.82C928.904,1184.85 930.051,1185.39 931.089,1185.02Z" style="fill:rgb(59,59,59);"/>
                    </g>
                </g>
                <g transform="matrix(1,0,0,1,0.389476,-2.69738)">
                    <g transform="matrix(-1.66645,-0.192909,-0.192909,1.66645,3058.25,-776.593)">
                        <path d="M930.41,1183.14C930.41,1183.14 943.29,1178.49 960.004,1176.6C979.743,1174.38 1004.83,1176.01 1020.36,1193.7C1020.36,1193.7 1029.76,1239.19 990.958,1272.07" style="fill:white;"/>
                    </g>
                    <g transform="matrix(0.996031,-0.04466,0.0438615,0.978223,-53.2677,113.958)">
                        <path d="M1183.49,1104.09C1183.49,1104.09 1208.41,1026.93 1277.45,991.103C1277.45,991.103 1203.42,950.383 1155.07,985.311C1155.07,985.311 1145.44,1056.72 1183.49,1104.09Z" style="fill:rgb(117,190,116);"/>
                    </g>
                    <g transform="matrix(-1.66645,-0.192909,-0.192909,1.66645,3058.25,-776.593)">
                        <path d="M929.732,1181.26C929.732,1181.26 935.607,1179.11 944.599,1177.11C949.013,1176.13 954.181,1175.18 959.771,1174.54C972.102,1173.14 986.481,1173.21 999.412,1177.63C1007.81,1180.49 1015.58,1185.19 1021.84,1192.39C1022.07,1192.65 1022.23,1192.96 1022.29,1193.3C1022.29,1193.3 1026.33,1213.81 1017.23,1237.23C1012.65,1249.01 1004.73,1261.52 991.305,1272.48C991.079,1272.67 990.741,1272.64 990.55,1272.42C990.358,1272.19 990.386,1271.85 990.612,1271.66C1003.34,1260.46 1010.6,1247.95 1014.7,1236.29C1021.91,1215.75 1019.12,1197.83 1018.52,1194.61C1011.24,1186.57 1001.85,1182.14 991.989,1179.89C981.332,1177.45 970.104,1177.56 960.236,1178.66C954.798,1179.27 949.772,1180.17 945.476,1181.1C936.78,1182.99 931.089,1185.02 931.089,1185.02C930.051,1185.39 928.904,1184.85 928.529,1183.82C928.155,1182.78 928.693,1181.63 929.732,1181.26Z" style="fill:rgb(62,62,62);"/>
                    </g>
                </g>
                <g transform="matrix(1.88799,0.153529,-0.153529,1.88799,1167.86,-929.062)">
                    <path d="M100.164,1180.07C100.164,1180.07 100.856,1185.58 107.097,1192.61C108.957,1194.7 111.31,1196.92 114.299,1199.12C116.101,1200.45 118.132,1201.78 120.439,1203.04C122.425,1204.11 124.62,1205.13 127.018,1206.09C130.097,1207.32 133.515,1208.45 137.303,1209.45C140.539,1210.31 144.037,1211.05 147.828,1211.7C148.103,1211.77 148.377,1211.59 148.439,1211.32C148.501,1211.04 148.328,1210.77 148.053,1210.71C144.39,1209.69 141.037,1208.58 137.924,1207.46C134.323,1206.17 131.088,1204.82 128.146,1203.47C125.882,1202.43 123.808,1201.37 121.883,1200.35C119.664,1199.17 117.651,1198.02 115.842,1196.87C112.845,1194.97 110.398,1193.1 108.409,1191.31C101.617,1185.18 100.164,1180.07 100.164,1180.07Z" style="fill:rgb(59,59,59);"/>
                </g>
                <g transform="matrix(1.8926,0.0784866,-0.0784866,1.8926,1081.88,-934.285)">
                    <path d="M127.29,1143.55C127.29,1143.55 131.442,1142.9 137.444,1144.67C139.378,1145.24 141.491,1146.07 143.751,1147.24C145.165,1147.96 146.623,1148.83 148.143,1149.84C149.489,1150.73 150.884,1151.71 152.303,1152.85C154.173,1154.35 156.093,1156.07 158.035,1158.11C159.724,1159.89 161.442,1161.86 163.145,1164.11C163.323,1164.38 163.684,1164.45 163.951,1164.28C164.218,1164.1 164.291,1163.74 164.113,1163.47C162.651,1160.97 161.163,1158.74 159.631,1156.75C158.465,1155.23 157.279,1153.87 156.086,1152.63C154.745,1151.23 153.399,1150 152.05,1148.93C151.051,1148.13 150.052,1147.42 149.056,1146.8C147.385,1145.76 145.734,1144.93 144.148,1144.28C142.95,1143.78 141.789,1143.38 140.668,1143.07C132.626,1140.84 127.051,1142.54 127.051,1142.54C126.773,1142.61 126.6,1142.89 126.666,1143.17C126.731,1143.45 127.011,1143.62 127.29,1143.55Z" style="fill:rgb(59,59,59);"/>
                </g>
            </g>
            <g>
                <g transform="matrix(0.985999,0.00194357,-0.00214118,1.08625,4.39899,-82.8081)">
                    <path d="M242.575,1288.05C242.575,1288.05 175.27,1300.2 125.833,1270.53C95.435,1252.29 109.455,1238.21 104.693,1214.17C99.931,1190.12 119.729,1192.18 129.236,1198.34C144.877,1208.48 134.448,1213.67 137.031,1223.06C140.114,1234.26 150.288,1242.59 155.372,1249.98" style="fill:white;"/>
                </g>
                <path d="M127.17,1296.85C127.17,1296.85 174.984,1308.15 184.442,1306.05C193.901,1303.95 196.923,1296.56 204.317,1295.28C211.711,1294 225.353,1296.47 226.695,1296.5C228.037,1296.53 196.858,1318.39 196.858,1318.39C196.858,1318.39 158.099,1316.47 127.17,1296.85Z" style="fill:rgb(236,235,235);"/>
                <g transform="matrix(0.985999,0.00194357,-0.00214118,1.08625,4.39899,-82.8081)">
                    <path d="M242.273,1286.67C242.273,1286.67 215.011,1291.59 182.539,1287.46C164.26,1285.13 144.321,1279.94 126.685,1269.36C116.252,1263.1 111.194,1257.39 108.863,1251.53C107.004,1246.86 106.872,1242.12 107.026,1237C107.232,1230.17 107.954,1222.7 106.214,1213.92C104.384,1204.68 106.208,1199.58 109.929,1197.25C111.972,1195.97 114.53,1195.58 117.161,1195.74C121.144,1195.99 125.302,1197.52 128.338,1199.49C132.769,1202.36 134.994,1204.76 135.944,1207.01C137.043,1209.62 136.391,1211.98 135.818,1214.47C135.193,1217.19 134.609,1220.05 135.531,1223.4C136.734,1227.77 138.969,1231.72 141.581,1235.35C145.75,1241.15 150.895,1246.12 154.061,1250.72C154.513,1251.38 155.468,1251.58 156.192,1251.17C156.915,1250.76 157.136,1249.89 156.684,1249.24C153.508,1244.62 148.352,1239.64 144.17,1233.82C141.743,1230.44 139.649,1226.78 138.531,1222.72C137.549,1219.15 138.628,1216.23 139.217,1213.38C139.718,1210.96 139.916,1208.59 138.833,1206.01C137.732,1203.4 135.267,1200.53 130.135,1197.2C126.669,1194.95 121.919,1193.23 117.375,1192.94C114.019,1192.73 110.777,1193.31 108.172,1194.94C103.797,1197.68 101.019,1203.55 103.171,1214.42C104.868,1222.98 104.136,1230.27 103.935,1236.92C103.77,1242.41 103.963,1247.48 105.954,1252.48C108.456,1258.77 113.783,1264.98 124.98,1271.7C143.021,1282.53 163.41,1287.86 182.11,1290.24C215.144,1294.44 242.876,1289.42 242.876,1289.42C243.713,1289.27 244.257,1288.54 244.091,1287.78C243.925,1287.02 243.11,1286.52 242.273,1286.67Z" style="fill:rgb(59,59,59);"/>
                </g>
                <path d="M109.5,1215.05C109.5,1215.05 108.217,1216.91 107.838,1219.6C107.794,1219.91 107.761,1220.24 107.767,1220.57C107.787,1221.79 107.973,1223.09 108.543,1224.38C109.524,1226.61 111.293,1228.81 114.993,1230.25C113.013,1228.48 112.066,1226.75 111.601,1225.06C111.185,1223.54 111.471,1222.18 111.721,1220.95C111.806,1220.53 111.895,1220.14 111.986,1219.76C112.367,1218.21 112.919,1217.13 112.919,1217.13C113.492,1216.19 113.191,1214.95 112.247,1214.38C111.304,1213.81 110.073,1214.11 109.5,1215.05Z" style="fill:rgb(59,59,59);"/>
                <g transform="matrix(0.984292,0.176546,-0.176546,0.984292,229.712,0.229473)">
                    <path d="M109.364,1215.21C109.364,1215.21 107.689,1216.82 107.173,1219.5C106.99,1220.45 106.892,1221.54 107.183,1222.68C107.437,1223.69 107.871,1224.72 108.682,1225.75C109.846,1227.23 111.522,1228.66 114.293,1229.98C112.059,1227.4 111.245,1225.28 110.957,1223.42C110.888,1222.98 110.924,1222.57 110.919,1222.18C110.912,1221.77 110.965,1221.39 111.009,1221.03C111.238,1219.18 112.266,1217.97 112.266,1217.97C113.026,1217.16 112.992,1215.9 112.191,1215.14C111.39,1214.38 110.123,1214.41 109.364,1215.21Z" style="fill:rgb(59,59,59);"/>
                </g>
            </g>
            <g>
                <g transform="matrix(0.890856,0.0439326,-0.0492552,0.998786,81.3652,-9.55362)">
                    <path d="M331.656,1288.52C318.067,1309.52 307.583,1326.84 284.537,1324.92C246.899,1321.77 233.294,1328.92 218.82,1329.42C208.876,1329.76 193.845,1327.57 204.498,1308.35C208.389,1301.34 219.301,1298.96 238.82,1297.27C251.691,1296.15 269.492,1286.54 269.001,1273.41" style="fill:white;"/>
                </g>
                <path d="M210.769,1326.2C210.769,1326.2 209.972,1324.69 209.535,1322.73C209.409,1322.16 209.235,1321.57 209.193,1320.94C209.154,1320.35 209.097,1319.75 209.214,1319.11C209.609,1316.97 210.928,1314.76 214.243,1312.66C209.8,1313.75 207.623,1315.9 206.431,1318.13C205.69,1319.53 205.448,1320.97 205.425,1322.35C205.418,1322.72 205.455,1323.08 205.505,1323.42C205.922,1326.29 207.405,1328.36 207.405,1328.36C208.002,1329.29 209.241,1329.56 210.169,1328.96C211.098,1328.36 211.366,1327.12 210.769,1326.2Z" style="fill:rgb(59,59,59);"/>
                <path d="M198.94,1322.31C198.94,1322.31 198.751,1321.09 198.894,1319.35C198.928,1318.94 198.976,1318.5 199.028,1318.03C199.18,1316.68 199.341,1315.17 200.107,1313.57C200.948,1311.82 202.185,1310.06 204.274,1308.36C200.651,1309.66 198.446,1311.63 196.929,1313.69C196.069,1314.87 195.519,1316.06 195.142,1317.2C195.035,1317.53 194.965,1317.85 194.909,1318.17C194.394,1321.08 195.048,1323.23 195.048,1323.23C195.302,1324.3 196.38,1324.97 197.454,1324.71C198.528,1324.46 199.194,1323.38 198.94,1322.31Z" style="fill:rgb(59,59,59);"/>
                <path d="M198.176,1317.05C198.176,1317.05 204.881,1322.88 207.038,1319.9C209.195,1316.92 212.261,1313.75 212.261,1313.75C212.261,1313.75 212.982,1314.77 213.154,1318.51C213.327,1322.25 221.079,1319.54 227.876,1318.83C234.672,1318.12 253.715,1317.32 262.097,1319.44C270.478,1321.57 291.408,1318.98 302.977,1306.15C302.977,1306.15 292.48,1323.44 280.79,1325.26C269.101,1327.07 259.428,1324.66 250.063,1324.57C240.697,1324.49 207.157,1331.09 200.688,1326.33C194.219,1321.57 198.691,1316.33 198.176,1317.05Z" style="fill:rgb(236,235,235);"/>
                <path d="M366.449,1304L371.652,1306.4C371.652,1306.4 358.976,1310.66 336.785,1314.89C317.37,1318.6 294.509,1318.29 294.35,1318.34C294.192,1318.38 312.049,1299.33 313.051,1292.72C313.051,1292.72 311.809,1302.46 320.672,1306.15C329.535,1309.84 362.222,1307.75 366.449,1304Z" style="fill:rgb(236,235,235);"/>
                <g transform="matrix(0.890856,0.0439326,-0.0492552,0.998786,81.3652,-9.55362)">
                    <path d="M330.995,1288.18C323.247,1299.73 316.501,1310.15 308.049,1316.69C301.683,1321.62 294.324,1324.27 284.702,1323.35C274.089,1322.36 265.361,1322.18 257.974,1322.49C248.004,1322.9 240.474,1324.14 234.056,1325.29C228.381,1326.31 223.609,1327.26 218.734,1327.43C215.519,1327.55 211.724,1327.41 208.572,1326.38C206.647,1325.76 204.958,1324.81 203.956,1323.26C202.141,1320.44 202.529,1316.05 206.276,1309.14C208.048,1305.85 211.596,1303.76 216.974,1302.18C222.451,1300.57 229.724,1299.53 238.967,1298.62C246.876,1297.83 256.551,1293.94 262.927,1288.03C267.323,1283.96 270.164,1278.95 269.855,1273.39C269.84,1272.97 269.444,1272.64 268.972,1272.65C268.5,1272.66 268.13,1273.02 268.146,1273.44C268.27,1279.75 263.949,1285.13 258.099,1289.06C252.256,1292.98 244.861,1295.46 238.672,1295.91C226.859,1296.81 218.131,1298.01 212.125,1300.3C207.592,1302.02 204.535,1304.38 202.721,1307.57C197.905,1316.07 198.033,1321.62 200.224,1325.14C201.698,1327.51 204.144,1329.08 207.046,1330.06C210.716,1331.29 215.147,1331.53 218.906,1331.41C224.01,1331.23 229.012,1330.26 234.943,1329.16C241.185,1328 248.497,1326.7 258.199,1326.15C265.422,1325.74 273.964,1325.72 284.372,1326.49C295.017,1327.24 303.071,1324.17 309.911,1318.55C318.302,1311.65 324.838,1300.86 332.317,1288.86C332.527,1288.54 332.402,1288.12 332.037,1287.93C331.673,1287.75 331.206,1287.86 330.995,1288.18Z" style="fill:rgb(59,59,59);"/>
                </g>
                <g transform="matrix(1.02105,0.192979,-0.18833,0.996452,225.036,-60.4848)">
                    <path d="M417.839,1232.36C417.839,1232.36 418.989,1238.01 422.057,1243.3C424.905,1248.22 430.714,1249.56 435.545,1245.09C444.447,1236.86 451.959,1241.86 451.234,1253.94C450.508,1266.02 446.034,1271.8 435.988,1278.46C427.672,1283.98 391.738,1301.14 378.254,1296.18" style="fill:white;"/>
                </g>
                <g transform="matrix(1.02105,0.192979,-0.18833,0.996452,225.036,-60.4848)">
                    <path d="M416.596,1232.63C416.596,1232.63 417.081,1235.17 418.301,1238.5C418.934,1240.22 419.77,1242.15 420.834,1244.04C422.528,1247.05 425.201,1248.89 428.148,1249.3C430.878,1249.67 433.879,1248.8 436.624,1246.32C440.442,1242.86 443.84,1241.94 446.248,1243.52C448.618,1245.08 449.729,1248.77 449.385,1253.82C449.019,1259.52 447.786,1263.71 445.43,1267.27C443.088,1270.8 439.664,1273.71 434.961,1276.84C430.106,1280.13 415.616,1287.56 401.883,1292.09C392.74,1295.1 383.952,1296.92 378.65,1295.05C378.041,1294.83 377.37,1295.15 377.152,1295.78C376.934,1296.4 377.251,1297.09 377.859,1297.31C383.467,1299.47 392.936,1298.04 402.778,1295.06C416.976,1290.76 431.966,1283.36 437.015,1280.09C442.238,1276.64 446.018,1273.39 448.603,1269.47C451.292,1265.39 452.717,1260.59 453.082,1254.06C453.436,1247.27 451.326,1242.52 448.106,1240.49C444.689,1238.34 439.72,1238.9 434.466,1243.87C432.554,1245.68 430.463,1246.43 428.516,1246.21C426.42,1245.97 424.531,1244.66 423.279,1242.56C422.25,1240.83 421.434,1239.07 420.807,1237.49C419.597,1234.44 419.082,1232.1 419.082,1232.1C418.939,1231.39 418.266,1230.94 417.58,1231.09C416.894,1231.24 416.453,1231.93 416.596,1232.63Z" style="fill:rgb(59,59,59);"/>
                </g>
            </g>
        </g>
    </g>
    <defs>
        <linearGradient id="_Linear1" x1="0" y1="0" x2="1" y2="0" gradientUnits="userSpaceOnUse" gradientTransform="matrix(318.78,-10.4448,10.4448,318.78,118.417,1360.36)"><stop offset="0" style="stop-color:rgb(244,192,30);stop-opacity:1"/><stop offset="0.22" style="stop-color:rgb(255,217,99);stop-opacity:1"/><stop offset="0.58" style="stop-color:rgb(232,178,10);stop-opacity:1"/><stop offset="1" style="stop-color:rgb(213,165,14);stop-opacity:1"/></linearGradient>
        <linearGradient id="_Linear2" x1="0" y1="0" x2="1" y2="0" gradientUnits="userSpaceOnUse" gradientTransform="matrix(283.537,-99.9356,86.519,327.505,181.086,1572.7)"><stop offset="0" style="stop-color:rgb(244,192,30);stop-opacity:1"/><stop offset="0.25" style="stop-color:rgb(255,235,172);stop-opacity:1"/><stop offset="0.5" style="stop-color:rgb(246,187,0);stop-opacity:1"/><stop offset="0.84" style="stop-color:rgb(240,182,0);stop-opacity:1"/><stop offset="1" style="stop-color:rgb(168,127,0);stop-opacity:1"/></linearGradient>
        <linearGradient id="_Linear3" x1="0" y1="0" x2="1" y2="0" gradientUnits="userSpaceOnUse" gradientTransform="matrix(318.78,-10.4448,10.4448,318.78,118.417,1360.36)"><stop offset="0" style="stop-color:rgb(244,192,30);stop-opacity:1"/><stop offset="0.22" style="stop-color:rgb(255,217,99);stop-opacity:1"/><stop offset="0.58" style="stop-color:rgb(232,178,10);stop-opacity:1"/><stop offset="1" style="stop-color:rgb(213,165,14);stop-opacity:1"/></linearGradient>
        <linearGradient id="_Linear4" x1="0" y1="0" x2="1" y2="0" gradientUnits="userSpaceOnUse" gradientTransform="matrix(283.537,-99.9356,86.519,327.505,181.086,1572.7)"><stop offset="0" style="stop-color:rgb(244,192,30);stop-opacity:1"/><stop offset="0.25" style="stop-color:rgb(255,235,172);stop-opacity:1"/><stop offset="0.5" style="stop-color:rgb(246,187,0);stop-opacity:1"/><stop offset="0.84" style="stop-color:rgb(240,182,0);stop-opacity:1"/><stop offset="1" style="stop-color:rgb(168,127,0);stop-opacity:1"/></linearGradient>
        <linearGradient id="_Linear5" x1="0" y1="0" x2="1" y2="0" gradientUnits="userSpaceOnUse" gradientTransform="matrix(324.783,380.645,-380.645,324.783,1316.64,295.897)"><stop offset="0" style="stop-color:rgb(255,210,66);stop-opacity:1"/><stop offset="0.58" style="stop-color:rgb(251,204,54);stop-opacity:1"/><stop offset="0.8" style="stop-color:rgb(243,191,27);stop-opacity:1"/><stop offset="1" style="stop-color:rgb(235,178,0);stop-opacity:1"/></linearGradient>
        <linearGradient id="_Linear6" x1="0" y1="0" x2="1" y2="0" gradientUnits="userSpaceOnUse" gradientTransform="matrix(404.035,455.77,-451.756,407.625,1315.48,268.267)"><stop offset="0" style="stop-color:rgb(252,229,155);stop-opacity:1"/><stop offset="1" style="stop-color:rgb(255,204,42);stop-opacity:1"/></linearGradient>
        <linearGradient id="_Linear7" x1="0" y1="0" x2="1" y2="0" gradientUnits="userSpaceOnUse" gradientTransform="matrix(410.154,9.20784,-9.07916,415.967,322.658,763.039)"><stop offset="0" style="stop-color:rgb(238,176,0);stop-opacity:1"/><stop offset="0.5" style="stop-color:rgb(225,171,17);stop-opacity:1"/><stop offset="1" style="stop-color:rgb(226,158,0);stop-opacity:1"/></linearGradient>
        <linearGradient id="_Linear8" x1="0" y1="0" x2="1" y2="0" gradientUnits="userSpaceOnUse" gradientTransform="matrix(410.154,9.20784,-9.07916,415.967,322.658,763.039)"><stop offset="0" style="stop-color:rgb(238,176,0);stop-opacity:1"/><stop offset="0.5" style="stop-color:rgb(225,171,17);stop-opacity:1"/><stop offset="1" style="stop-color:rgb(226,158,0);stop-opacity:1"/></linearGradient>
        <linearGradient id="_Linear9" x1="0" y1="0" x2="1" y2="0" gradientUnits="userSpaceOnUse" gradientTransform="matrix(410.154,9.20784,-9.07916,415.967,212.711,651.437)"><stop offset="0" style="stop-color:rgb(238,176,0);stop-opacity:1"/><stop offset="0.5" style="stop-color:rgb(225,171,17);stop-opacity:1"/><stop offset="1" style="stop-color:rgb(226,158,0);stop-opacity:1"/></linearGradient>
        <linearGradient id="_Linear10" x1="0" y1="0" x2="1" y2="0" gradientUnits="userSpaceOnUse" gradientTransform="matrix(410.154,9.20784,-9.07916,415.967,391.148,832.561)"><stop offset="0" style="stop-color:rgb(238,176,0);stop-opacity:1"/><stop offset="0.5" style="stop-color:rgb(225,171,17);stop-opacity:1"/><stop offset="1" style="stop-color:rgb(226,158,0);stop-opacity:1"/></linearGradient>
        <linearGradient id="_Linear11" x1="0" y1="0" x2="1" y2="0" gradientUnits="userSpaceOnUse" gradientTransform="matrix(410.154,9.20784,-9.07916,415.967,391.148,832.561)"><stop offset="0" style="stop-color:rgb(238,176,0);stop-opacity:1"/><stop offset="0.5" style="stop-color:rgb(225,171,17);stop-opacity:1"/><stop offset="1" style="stop-color:rgb(226,158,0);stop-opacity:1"/></linearGradient>
    </defs>
</svg>
