<?xml version="1.0" encoding="UTF-8"?>
<svg width="4800px" height="4800px" viewBox="0 0 4800 4800" version="1.1" xmlns="http://www.w3.org/2000/svg" xmlns:xlink="http://www.w3.org/1999/xlink">
    <title>Icon - Circle - White BG</title>
    <g id="Icon---Circle---White-BG" stroke="none" stroke-width="1" fill="none" fill-rule="evenodd">
        <g id="logo" fill="#FFFFFF">
            <circle id="Oval" cx="2400" cy="2400" r="2400"></circle>
        </g>
        <g id="icon" transform="translate(874.000000, 897.000000)">
            <path d="M1795.8508,91.800002 L1795.85084,91.800002 C2256.99372,184.282432 2611.93654,553.869465 2685.71007,1018.37248 L2685.71006,1018.37247 C2697.37421,1090.02362 2702.63977,1162.57074 2701.44431,1235.15546 L2701.44434,1235.15418 C2698.57939,1362.89443 2668.79333,1488.59273 2614.03246,1604.03492 L2614.03244,1604.03496 C2533.79694,1767.85385 2408.96884,1905.71035 2253.89295,2001.76182 L1695.32709,2363.64956 L1695.32709,2363.64956 C1663.712,2377.85986 1643.47985,2409.40826 1643.75097,2444.06906 L1643.75097,2583.05668 L1643.75097,2583.05669 C1643.75097,2631.3333 1682.8896,2670.46919 1731.16621,2670.46919" id="Path" stroke="#882472" stroke-width="174.824995" stroke-linecap="round" stroke-linejoin="round" transform="translate(2172.680612, 1381.134596) rotate(-30.000000) translate(-2172.680612, -1381.134596) "></path>
            <path d="M1385.94946,774.175748 L1385.94946,774.175748 C855.935993,886.154659 476.728341,1353.96449 476.859426,1895.6781 L476.859426,1900.92285 L476.859426,1900.92287 C478.749021,2032.14913 508.546665,2161.47068 564.271958,2280.29311 L564.271929,2280.29305 C644.486182,2445.97207 769.173816,2586.09343 924.411419,2685.01291 L1274.06141,2922.7749" id="Path" stroke="#882472" stroke-width="174.824995" stroke-linecap="round" stroke-linejoin="round" transform="translate(931.404441, 1848.475326) rotate(-30.000000) translate(-931.404441, -1848.475326) "></path>
            <path d="M672.476369,346.238279 L918.105487,831.377652 L918.10548,831.37764 C953.044342,888.102669 1027.35275,905.763753 1084.07734,870.82489 C1100.12802,860.938711 1113.63841,847.428323 1123.52459,831.37764 L1371.77608,346.238279" id="Path" stroke="#882472" stroke-width="174.824995" stroke-linecap="round" stroke-linejoin="round" transform="translate(1022.126224, 617.499815) rotate(-30.000000) translate(-1022.126224, -617.499815) "></path>
            <line x1="978.497232" y1="899.886092" x2="978.497232" y2="183.977738" id="Path" stroke="#882472" stroke-width="174.824995" stroke-linecap="round" stroke-linejoin="round" transform="translate(978.497232, 541.931915) rotate(-30.000000) translate(-978.497232, -541.931915) "></line>
            <path d="M2054.34569,2540.68491 C2088.48236,2574.82159 2088.48236,2630.16821 2054.34569,2664.30454 C2020.20901,2698.44122 1964.86239,2698.44122 1930.72606,2664.30454 C1896.58938,2630.16786 1896.58938,2574.82124 1930.72606,2540.68491 C1964.86274,2506.54823 2020.20936,2506.54823 2054.34569,2540.68491" id="Path" fill="#882472" fill-rule="nonzero" transform="translate(1992.535871, 2602.494724) rotate(-30.000000) translate(-1992.535871, -2602.494724) "></path>
            <path d="M456.48001,1245.00809 L456.48001,1245.00809 L456.48001,1245.00809 C633.15642,1528.83824 943.830925,1701.36167 1278.1575,1701.30137 L1437.24825,1701.30137" id="Path" stroke="#882472" stroke-width="174.824995" stroke-linecap="round" stroke-linejoin="round" transform="translate(946.864130, 1473.154728) rotate(-30.000000) translate(-946.864130, -1473.154728) "></path>
            <path d="M742.009262,2126.82098 L742.009262,2126.82098 L742.009262,2126.82098 C900.525707,2240.46684 1072.97133,2333.29891 1255.12062,2403.04447 C1292.41665,2417.03047 1329.71259,2430.14234 1367.00862,2442.38009" id="Path" stroke="#882472" stroke-width="174.824995" stroke-linecap="round" stroke-linejoin="round" transform="translate(1054.508940, 2284.600536) rotate(-30.000000) translate(-1054.508940, -2284.600536) "></path>
            <path d="M526.214821,1842.53519 C526.214821,1842.53519 645.969943,2011.24131 969.396184,2104.77269" id="Path" stroke="#882472" stroke-width="174.824995" stroke-linecap="round" stroke-linejoin="round" transform="translate(747.805502, 1973.653940) rotate(-30.000000) translate(-747.805502, -1973.653940) "></path>
            <path d="M2619.24309,1036.89469 C2619.24309,1036.89469 2460.15234,1355.9503 1804.55861,1407.52368" id="Path" stroke="#882472" stroke-width="174.824995" stroke-linecap="round" stroke-linejoin="round" transform="translate(2211.900847, 1222.209184) rotate(-30.000000) translate(-2211.900847, -1222.209184) "></path>
        </g>
    </g>
</svg>