<?xml version="1.0" encoding="UTF-8"?>
<svg width="4436px" height="885px" viewBox="0 0 4436 885" version="1.1" xmlns="http://www.w3.org/2000/svg" xmlns:xlink="http://www.w3.org/1999/xlink">
    <title>logo</title>
    <g id="Page-1" stroke="none" stroke-width="1" fill="none" fill-rule="evenodd">
        <g id="Standard---Light" transform="translate(-1989.000000, -2062.000000)">
            <g id="logo" transform="translate(2021.601291, 2062.000000)">
                <path d="M1177.94708,288.217429 L1021.24608,288.217429 L1021.24608,370.518375 L1077.86913,370.518375 L1077.86913,568.699054 L1021.24608,568.699054 L1021.24608,651 L1229.96128,651 L1229.96128,568.699054 L1177.94708,568.699054 L1177.94708,484.752089 C1177.94708,451.83171 1186.50638,426.483019 1203.62497,408.706014 C1220.74357,390.92901 1244.55598,382.040508 1275.0622,382.040508 C1280.32946,382.040508 1285.21265,382.314844 1289.71176,382.863517 C1294.21088,383.41219 1298.32593,384.2352 1302.05691,385.332546 L1302.05691,385.332546 L1302.05691,284.596187 C1299.20381,283.93778 1296.1861,283.443974 1293.0038,283.11477 C1289.8215,282.785567 1286.36486,282.620965 1282.63388,282.620965 C1263.10112,282.620965 1246.202,286.790879 1231.9365,295.130709 C1217.671,303.470538 1206.31347,316.035149 1197.86391,332.824542 C1189.41434,349.613935 1183.98248,370.518375 1181.56832,395.537863 L1181.56832,395.537863 L1177.94639,395.538 L1177.94708,288.217429 Z M1523.28233,658.571687 C1563.44519,658.571687 1598.45053,650.615929 1628.29834,634.704413 C1658.14615,618.792896 1681.30015,596.736243 1697.76034,568.534452 C1714.22053,540.332661 1722.45062,507.686619 1722.45062,470.596326 C1722.45062,433.067094 1714.22053,400.036981 1697.76034,371.505987 C1681.30015,342.974992 1658.09128,320.698869 1628.13374,304.677618 C1598.17619,288.656367 1563.22572,280.645742 1523.28233,280.645742 C1483.11947,280.645742 1448.11413,288.656367 1418.26632,304.677618 C1388.41851,320.698869 1365.20965,342.974992 1348.63972,371.505987 C1332.0698,400.036981 1323.78484,433.067094 1323.78484,470.596326 C1323.78484,507.686619 1332.0698,540.332661 1348.63972,568.534452 C1365.20965,596.736243 1388.41851,618.792896 1418.26632,634.704413 C1448.11413,650.615929 1483.11947,658.571687 1523.28233,658.571687 Z M1523.28233,570.015869 C1504.40798,570.015869 1487.78319,565.900822 1473.40796,557.670727 C1459.03273,549.440632 1447.78493,537.863633 1439.66457,522.939728 C1431.54421,508.015823 1427.48403,490.458288 1427.48403,470.267122 C1427.48403,450.295426 1431.54421,432.683023 1439.66457,417.429915 C1447.78493,402.176806 1459.03273,390.270602 1473.40796,381.711304 C1487.78319,373.152006 1504.40798,368.872356 1523.28233,368.872356 C1542.15668,368.872356 1558.78147,373.152006 1573.1567,381.711304 C1587.53194,390.270602 1598.77973,402.176806 1606.90009,417.429915 C1615.02045,432.683023 1619.08063,450.295426 1619.08063,470.267122 C1619.08063,490.458288 1615.02045,508.015823 1606.90009,522.939728 C1598.77973,537.863633 1587.53194,549.440632 1573.1567,557.670727 C1558.78147,565.900822 1542.15668,570.015869 1523.28233,570.015869 Z M1953.08668,658.571687 C1993.24954,658.571687 2028.25488,650.615929 2058.10269,634.704413 C2087.9505,618.792896 2111.1045,596.736243 2127.56469,568.534452 C2144.02488,540.332661 2152.25497,507.686619 2152.25497,470.596326 C2152.25497,433.067094 2144.02488,400.036981 2127.56469,371.505987 C2111.1045,342.974992 2087.89563,320.698869 2057.93809,304.677618 C2027.98054,288.656367 1993.03007,280.645742 1953.08668,280.645742 C1912.92382,280.645742 1877.91848,288.656367 1848.07067,304.677618 C1818.22286,320.698869 1795.014,342.974992 1778.44407,371.505987 C1761.87415,400.036981 1753.58919,433.067094 1753.58919,470.596326 C1753.58919,507.686619 1761.87415,540.332661 1778.44407,568.534452 C1795.014,596.736243 1818.22286,618.792896 1848.07067,634.704413 C1877.91848,650.615929 1912.92382,658.571687 1953.08668,658.571687 Z M1953.08668,570.015869 C1934.21233,570.015869 1917.58754,565.900822 1903.21231,557.670727 C1888.83708,549.440632 1877.58928,537.863633 1869.46892,522.939728 C1861.34856,508.015823 1857.28838,490.458288 1857.28838,470.267122 C1857.28838,450.295426 1861.34856,432.683023 1869.46892,417.429915 C1877.58928,402.176806 1888.83708,390.270602 1903.21231,381.711304 C1917.58754,373.152006 1934.21233,368.872356 1953.08668,368.872356 C1971.96103,368.872356 1988.58582,373.152006 2002.96105,381.711304 C2017.33629,390.270602 2028.58408,402.176806 2036.70444,417.429915 C2044.8248,432.683023 2048.88498,450.295426 2048.88498,470.267122 C2048.88498,490.458288 2044.8248,508.015823 2036.70444,522.939728 C2028.58408,537.863633 2017.33629,549.440632 2002.96105,557.670727 C1988.58582,565.900822 1971.96103,570.015869 1953.08668,570.015869 Z M2345.71578,657.584076 C2373.14943,657.584076 2395.53529,652.536284 2412.87335,642.440702 C2430.21142,632.345119 2442.94063,617.91502 2451.06099,599.150404 C2459.18135,580.385788 2463.24153,558.054798 2463.24153,532.157434 L2463.24153,532.157434 L2463.24153,498.249444 L2377.31934,498.249444 L2377.31934,532.815841 C2377.31934,544.447708 2375.17952,553.281343 2370.89987,559.316746 C2366.62022,565.352149 2360.42022,568.36985 2352.29986,568.36985 C2344.1795,568.36985 2337.97949,565.407016 2333.69984,559.481348 C2329.42019,553.55568 2327.28037,544.667177 2327.28037,532.815841 L2327.28037,532.815841 L2327.28037,370.847579 L2458.96188,370.847579 L2459.62029,288.217429 L2327.28037,288.217429 L2327.28037,193.077535 L2227.20242,193.077535 L2227.20242,288.217429 L2170.90857,288.217429 L2170.90857,370.847579 L2227.20242,370.847579 L2227.20242,532.815841 C2227.20242,558.054798 2231.37233,580.001717 2239.71216,598.656598 C2248.05199,617.311479 2260.94581,631.796446 2278.39361,642.111498 C2295.84141,652.42655 2318.28213,657.584076 2345.71578,657.584076 Z M2511.05089,533.803453 L2511.05089,651 L2611.12884,651 L2611.12839,580.88 L2614.42088,580.879594 C2617.00574,596.81956 2622.49757,610.43395 2630.89637,621.722765 L2631.37488,622.359271 C2640.04391,633.771669 2651.89525,642.495569 2666.92889,648.530972 C2681.96253,654.566374 2700.23334,657.584076 2721.74132,657.584076 C2763.00152,657.584076 2794.16615,647.653095 2815.23519,627.791133 C2836.30423,607.929171 2846.83875,580.660125 2846.83875,545.983993 C2846.83875,510.868922 2834.87768,483.654743 2810.95554,464.341454 C2787.0334,445.028165 2748.07762,431.969748 2694.0882,425.166204 C2666.21561,421.435227 2645.64037,416.387436 2632.36249,410.022829 C2619.0846,403.658223 2612.44566,395.098925 2612.44566,384.344934 C2612.44566,375.785636 2616.17664,368.707754 2623.63859,363.11129 C2631.10054,357.514826 2642.29347,354.716594 2657.21737,354.716594 C2675.87226,354.716594 2692.33244,359.105977 2706.59794,367.884745 C2720.86344,376.663513 2729.64221,388.29538 2732.93424,402.780346 L2732.93424,402.780346 L2833.0122,402.780346 L2833.0122,287.229818 L2732.93424,287.229818 L2732.93339,357.022 L2729.313,357.02102 C2727.16134,341.098746 2722.53106,327.496887 2715.42215,316.215445 L2714.99264,315.541343 C2707.64042,304.128945 2697.2705,295.51478 2683.88288,289.698846 C2670.49526,283.882913 2653.92534,280.974946 2634.17311,280.974946 C2595.54653,280.974946 2565.47925,290.412121 2543.97127,309.286471 C2522.46329,328.160822 2511.7093,353.180309 2511.7093,384.344934 C2511.7093,417.484782 2524.49338,444.479492 2550.06154,465.329065 C2575.6297,486.178638 2616.61557,500.114932 2673.01916,507.137946 C2700.67227,510.210515 2719.82096,514.874235 2730.46522,521.129107 C2741.10947,527.383979 2746.4316,536.217614 2746.4316,547.630012 C2746.4316,558.82294 2742.26169,567.327371 2733.92186,573.143305 C2725.58203,578.959238 2712.96255,581.867205 2696.06342,581.867205 C2674.33597,581.867205 2655.57136,577.313219 2639.76957,568.205248 C2623.96779,559.097277 2614.42088,547.630012 2611.12884,533.803453 L2611.12884,533.803453 L2511.05089,533.803453 Z M3134.23414,651 L3200.96639,451.503 L3202.30439,451.503 L3273.48734,651 L3312.00339,651 L3372.90639,651 L3388.05026,651 L3488.45741,370.518375 L3521.70699,370.518375 L3521.70699,288.217429 L3351.83784,288.217429 L3351.83784,370.518375 L3400.2308,370.518375 L3340.27339,561.128 L3339.67939,561.128 L3269.20769,370.518375 L3307.72453,370.518375 L3307.72453,288.217429 L3106.91023,288.217429 L3106.91023,370.518375 L3147.07309,370.518375 L3079.06139,561.128 L3078.82239,561.128 L3015.06237,370.518375 L3062.13851,370.518375 L3062.13851,288.217429 L2874.49235,288.217429 L2874.49235,370.518375 L2907.41273,370.518375 L3013.74555,651 L3046.99439,651 L3108.88539,651 L3134.23414,651 Z M3653.71819,657.584076 C3689.05273,657.584076 3717.36426,648.476104 3738.65277,630.260162 C3759.94128,612.044219 3772.9997,584.61057 3777.82802,547.959215 L3777.82802,547.959215 L3780.79039,547.96 L3780.79086,601.290228 C3780.79086,616.845107 3784.56565,628.94419 3792.11523,637.587477 L3792.47759,637.99645 C3800.26875,646.665483 3811.40681,651 3825.89177,651 L3825.89177,651 L3924.32371,651 L3924.32371,568.36985 L3880.86881,568.36985 L3880.86881,407.718403 C3880.86881,377.870593 3874.72367,353.509513 3862.43339,334.635163 C3850.14312,315.760812 3832.20151,301.879386 3808.60858,292.990884 C3785.01564,284.102382 3756.21031,279.658131 3722.19258,279.658131 C3685.98017,279.658131 3655.80315,284.376718 3631.66154,293.813893 C3607.51993,303.251069 3588.75531,316.967893 3575.36769,334.964367 C3561.98007,352.96084 3553.31104,374.798024 3549.36059,400.47592 L3549.36059,400.47592 L3641.53765,414.631682 C3645.26863,397.293616 3653.33412,384.619271 3665.73413,376.608645 C3678.13414,368.59802 3694.21026,364.592707 3713.96249,364.592707 C3728.00852,364.592707 3740.02445,366.56793 3750.0103,370.518375 C3759.99615,374.468821 3767.6227,380.559091 3772.88996,388.789185 C3778.15723,397.01928 3780.79086,407.389199 3780.79086,419.898943 L3780.79086,419.898943 L3780.79039,426.991 L3659.31466,449.856487 C3618.0325,457.24382 3587.61299,468.986964 3568.05611,485.085918 L3567.4668,485.575098 C3547.93404,501.925553 3538.16767,525.683093 3538.16767,556.847718 C3538.16767,588.890219 3547.93404,613.690238 3567.4668,631.247773 C3586.99956,648.805308 3615.75002,657.584076 3653.71819,657.584076 Z M3690.58902,580.55039 C3675.22618,580.55039 3663.42971,577.148618 3655.19961,570.345073 C3646.96952,563.541528 3642.85447,553.665414 3642.85447,540.716732 C3642.85447,528.645927 3646.47571,518.934415 3653.71819,511.582197 C3660.96068,504.229979 3672.48281,499.017586 3688.28459,495.945017 L3688.28459,495.945017 L3783.68839,475.563 L3783.67697,476.019811 C3783.09387,496.388725 3779.18714,514.017882 3771.95676,528.907282 L3771.57315,529.688405 C3763.45279,546.03886 3752.31473,558.603471 3738.15897,567.382239 C3724.0032,576.161006 3708.14655,580.55039 3690.58902,580.55039 Z M4100.06945,288.217429 L3945.01447,288.217429 L3945.01447,370.518375 L3999.9915,370.518375 L3999.9915,706.964643 L3945.01447,706.964643 L3945.01447,789.26559 L4152.08365,789.26559 L4152.08365,706.964643 L4100.06945,706.964643 L4100.06939,605.771 L4100.34476,606.081413 C4113.39432,620.752757 4127.97672,632.32951 4144.09195,640.811671 L4145.00577,641.288488 C4167.28189,652.810621 4191.58811,658.571687 4217.92441,658.571687 C4251.72266,658.571687 4281.1864,650.835398 4306.31563,635.36282 C4331.44485,619.890242 4350.97761,597.943323 4364.9139,569.522063 C4378.85019,541.100803 4385.81834,507.796354 4385.81834,469.608715 C4385.81834,443.491881 4381.97763,419.021066 4374.29621,396.196271 C4366.61479,373.371475 4355.64133,353.290044 4341.37583,335.951978 C4327.11033,318.613912 4309.93687,305.061689 4289.85544,295.29531 C4269.77401,285.528931 4247.33328,280.645742 4222.53326,280.645742 C4199.70847,280.645742 4180.23058,284.925391 4164.09959,293.48469 C4147.9686,302.043988 4134.91019,314.443997 4124.92434,330.684717 C4114.93849,346.925437 4107.75088,366.56793 4103.36149,389.612195 L4103.36149,389.612195 L4100.06939,389.613 L4100.06945,288.217429 Z M4190.27129,571.332684 C4170.73853,571.332684 4154.05887,567.053035 4140.23232,558.493736 C4126.40576,549.934438 4115.9261,538.083102 4108.79335,522.939728 C4101.66061,507.796354 4098.09423,490.238818 4098.09423,470.267122 C4098.09423,449.856487 4101.77034,431.914881 4109.12256,416.442303 C4116.47478,400.969725 4127.0093,388.953787 4140.72612,380.394489 C4154.44295,371.83519 4170.958,367.555541 4190.27129,367.555541 C4208.7067,367.555541 4224.83769,371.83519 4238.66425,380.394489 C4252.49081,388.953787 4263.2448,400.914858 4270.92622,416.277701 C4278.60764,431.640545 4282.44835,449.417549 4282.44835,469.608715 C4282.44835,489.79988 4278.77224,507.522017 4271.42002,522.775126 C4264.06781,538.028234 4253.47842,549.934438 4239.65186,558.493736 C4225.8253,567.053035 4209.36511,571.332684 4190.27129,571.332684 Z" id="rootswap" fill="#FFFFFF" fill-rule="nonzero"></path>
                <g id="icon" transform="translate(0.000000, 56.274532)">
                    <path d="M475.330889,25 L475.3309,25 C597.326368,49.4662508 691.226582,147.240596 710.743387,270.124989 L710.743387,270.124985 C713.82914,289.080315 715.222144,308.272677 714.905887,327.474982 L714.905894,327.474643 C714.14797,361.26836 706.26806,394.521877 691.781057,425.062138 L691.781052,425.062149 C670.554731,468.400478 637.531424,504.870451 596.506057,530.280893 L448.737315,626.018389 L448.737315,626.018388 C440.373535,629.777727 435.021115,638.123863 435.092839,647.293387 L435.092839,684.062598 L435.092839,684.062601 C435.092839,696.834191 445.446974,707.1876 458.218564,707.1876" id="Path-Copy" stroke="#FFFFFF" stroke-width="46.2499976" stroke-linecap="round" stroke-linejoin="round" transform="translate(575.021313, 366.093800) rotate(-30.000000) translate(-575.021313, -366.093800) "></path>
                    <path d="M366.89138,205.52268 L366.89138,205.52268 C226.676183,235.14673 126.356701,358.905942 126.39138,502.216416 L126.39138,503.603916 L126.39138,503.603922 C126.891273,538.319864 134.774247,572.531912 149.516388,603.966417 L149.51638,603.966401 C170.737081,647.79683 203.723227,684.865972 244.791375,711.035146 L337.29137,773.935142" id="Path-Copy-2" stroke="#FFFFFF" stroke-width="46.2499976" stroke-linecap="round" stroke-linejoin="round" transform="translate(246.641381, 489.728911) rotate(-30.000000) translate(-246.641381, -489.728911) "></path>
                    <path d="M178.141893,92.311712 L243.123139,220.655458 L243.123137,220.655455 C252.366222,235.662077 272.02453,240.334321 287.031035,231.091236 C291.277247,228.475844 294.851424,224.901668 297.466815,220.655455 L363.141812,92.311712" id="Path-Copy-3" stroke="#FFFFFF" stroke-width="46.2499976" stroke-linecap="round" stroke-linejoin="round" transform="translate(270.641852, 164.074021) rotate(-30.000000) translate(-270.641852, -164.074021) "></path>
                    <line x1="259.099791" y1="238.779384" x2="259.099791" y2="49.3856438" id="Path-Copy-4" stroke="#FFFFFF" stroke-width="46.2499976" stroke-linecap="round" stroke-linejoin="round" transform="translate(259.099791, 144.082514) rotate(-30.000000) translate(-259.099791, -144.082514) "></line>
                    <path d="M543.715777,672.853136 C552.746645,681.884003 552.746645,696.525966 543.715777,705.55674 C534.68491,714.587607 520.042947,714.587607 511.012173,705.55674 C501.981306,696.525873 501.981306,681.88391 511.012173,672.853136 C520.04304,663.822269 534.685003,663.822269 543.715777,672.853136" id="Path-Copy-5" fill="#FFFFFF" fill-rule="nonzero" transform="translate(527.363975, 689.204938) rotate(-30.000000) translate(-527.363975, -689.204938) "></path>
                    <path d="M121,330.081497 L121,330.081497 L121,330.081497 C167.73979,405.168838 249.928811,450.809955 338.374994,450.794003 L380.462491,450.794003" id="Path-Copy-6" stroke="#FFFFFF" stroke-width="46.2499976" stroke-linecap="round" stroke-linejoin="round" transform="translate(250.731246, 390.437750) rotate(-30.000000) translate(-250.731246, -390.437750) "></path>
                    <path d="M196.536837,563.365325 L196.536837,563.365325 L196.536837,563.365325 C238.472404,593.430368 284.092939,617.989116 332.28058,636.440322 C342.147254,640.140322 352.013905,643.609071 361.880579,646.846571" id="Path-Copy-7" stroke="#FFFFFF" stroke-width="46.2499976" stroke-linecap="round" stroke-linejoin="round" transform="translate(279.208708, 605.105948) rotate(-30.000000) translate(-279.208708, -605.105948) "></path>
                    <path d="M139.448362,488.157448 C139.448362,488.157448 171.129611,532.788695 256.692106,557.532444" id="Path-Copy-8" stroke="#FFFFFF" stroke-width="46.2499976" stroke-linecap="round" stroke-linejoin="round" transform="translate(198.070234, 522.844946) rotate(-30.000000) translate(-198.070234, -522.844946) "></path>
                    <path d="M693.159531,274.495943 C693.159531,274.495943 651.072033,358.902189 477.634542,372.545938" id="Path-Copy-9" stroke="#FFFFFF" stroke-width="46.2499976" stroke-linecap="round" stroke-linejoin="round" transform="translate(585.397036, 323.520941) rotate(-30.000000) translate(-585.397036, -323.520941) "></path>
                </g>
            </g>
        </g>
    </g>
</svg>