<?xml version="1.0" encoding="UTF-8"?>
<svg width="4436px" height="885px" viewBox="0 0 4436 885" version="1.1" xmlns="http://www.w3.org/2000/svg" xmlns:xlink="http://www.w3.org/1999/xlink">
    <title>logo</title>
    <g id="Page-1" stroke="none" stroke-width="1" fill="none" fill-rule="evenodd">
        <g id="Standard---Dark" transform="translate(-2076.000000, -2061.000000)">
            <g id="logo" transform="translate(2108.000000, 2061.000000)">
                <path d="M1178.04964,288.761179 L1021.34864,288.761179 L1021.34864,371.062125 L1077.97169,371.062125 L1077.97169,569.242804 L1021.34864,569.242804 L1021.34864,651.54375 L1230.06384,651.54375 L1230.06384,569.242804 L1178.04964,569.242804 L1178.04964,485.295839 C1178.04964,452.37546 1186.60894,427.026769 1203.72754,409.249764 C1220.84613,391.47276 1244.65854,382.584258 1275.16476,382.584258 C1280.43202,382.584258 1285.31521,382.858594 1289.81433,383.407267 C1294.31344,383.95594 1298.42849,384.77895 1302.15947,385.876295 L1302.15947,385.876295 L1302.15947,285.139937 C1299.30637,284.48153 1296.28867,283.987724 1293.10636,283.65852 C1289.92406,283.329316 1286.46742,283.164715 1282.73645,283.164715 C1263.20369,283.164715 1246.30456,287.334629 1232.03906,295.674458 C1217.77356,304.014288 1206.41603,316.578899 1197.96647,333.368292 C1189.51691,350.157685 1184.08504,371.062125 1181.67088,396.081613 L1181.67088,396.081613 L1178.04895,396.08175 L1178.04964,288.761179 Z M1523.38489,659.115437 C1563.54776,659.115437 1598.55309,651.159679 1628.4009,635.248163 C1658.24871,619.336646 1681.40271,597.279993 1697.8629,569.078202 C1714.32309,540.876411 1722.55318,508.230369 1722.55318,471.140076 C1722.55318,433.610844 1714.32309,400.580731 1697.8629,372.049737 C1681.40271,343.518742 1658.19384,321.242619 1628.2363,305.221368 C1598.27875,289.200117 1563.32829,281.189492 1523.38489,281.189492 C1483.22203,281.189492 1448.2167,289.200117 1418.36889,305.221368 C1388.52108,321.242619 1365.31221,343.518742 1348.74229,372.049737 C1332.17236,400.580731 1323.8874,433.610844 1323.8874,471.140076 C1323.8874,508.230369 1332.17236,540.876411 1348.74229,569.078202 C1365.31221,597.279993 1388.52108,619.336646 1418.36889,635.248163 C1448.2167,651.159679 1483.22203,659.115437 1523.38489,659.115437 Z M1523.38489,570.559619 C1504.51054,570.559619 1487.88575,566.444571 1473.51052,558.214477 C1459.13529,549.984382 1447.88749,538.407382 1439.76713,523.483478 C1431.64677,508.559573 1427.58659,491.002037 1427.58659,470.810872 C1427.58659,450.839176 1431.64677,433.226773 1439.76713,417.973664 C1447.88749,402.720556 1459.13529,390.814352 1473.51052,382.255054 C1487.88575,373.695755 1504.51054,369.416106 1523.38489,369.416106 C1542.25924,369.416106 1558.88404,373.695755 1573.25927,382.255054 C1587.6345,390.814352 1598.8823,402.720556 1607.00266,417.973664 C1615.12302,433.226773 1619.1832,450.839176 1619.1832,470.810872 C1619.1832,491.002037 1615.12302,508.559573 1607.00266,523.483478 C1598.8823,538.407382 1587.6345,549.984382 1573.25927,558.214477 C1558.88404,566.444571 1542.25924,570.559619 1523.38489,570.559619 Z M1953.18924,659.115437 C1993.35211,659.115437 2028.35744,651.159679 2058.20525,635.248163 C2088.05306,619.336646 2111.20706,597.279993 2127.66725,569.078202 C2144.12744,540.876411 2152.35753,508.230369 2152.35753,471.140076 C2152.35753,433.610844 2144.12744,400.580731 2127.66725,372.049737 C2111.20706,343.518742 2087.99819,321.242619 2058.04065,305.221368 C2028.0831,289.200117 1993.13264,281.189492 1953.18924,281.189492 C1913.02638,281.189492 1878.02105,289.200117 1848.17324,305.221368 C1818.32543,321.242619 1795.11656,343.518742 1778.54664,372.049737 C1761.97671,400.580731 1753.69175,433.610844 1753.69175,471.140076 C1753.69175,508.230369 1761.97671,540.876411 1778.54664,569.078202 C1795.11656,597.279993 1818.32543,619.336646 1848.17324,635.248163 C1878.02105,651.159679 1913.02638,659.115437 1953.18924,659.115437 Z M1953.18924,570.559619 C1934.31489,570.559619 1917.6901,566.444571 1903.31487,558.214477 C1888.93964,549.984382 1877.69184,538.407382 1869.57148,523.483478 C1861.45112,508.559573 1857.39094,491.002037 1857.39094,470.810872 C1857.39094,450.839176 1861.45112,433.226773 1869.57148,417.973664 C1877.69184,402.720556 1888.93964,390.814352 1903.31487,382.255054 C1917.6901,373.695755 1934.31489,369.416106 1953.18924,369.416106 C1972.06359,369.416106 1988.68838,373.695755 2003.06362,382.255054 C2017.43885,390.814352 2028.68664,402.720556 2036.807,417.973664 C2044.92736,433.226773 2048.98754,450.839176 2048.98754,470.810872 C2048.98754,491.002037 2044.92736,508.559573 2036.807,523.483478 C2028.68664,538.407382 2017.43885,549.984382 2003.06362,558.214477 C1988.68838,566.444571 1972.06359,570.559619 1953.18924,570.559619 Z M2345.81834,658.127826 C2373.25199,658.127826 2395.63785,653.080034 2412.97592,642.984451 C2430.31398,632.888869 2443.04319,618.458769 2451.16355,599.694154 C2459.28391,580.929538 2463.34409,558.598548 2463.34409,532.701184 L2463.34409,532.701184 L2463.34409,498.793194 L2377.42191,498.793194 L2377.42191,533.359591 C2377.42191,544.991458 2375.28208,553.825093 2371.00243,559.860496 C2366.72278,565.895899 2360.52278,568.9136 2352.40242,568.9136 C2344.28206,568.9136 2338.08205,565.950766 2333.8024,560.025098 C2329.52276,554.09943 2327.38293,545.210927 2327.38293,533.359591 L2327.38293,533.359591 L2327.38293,371.391329 L2459.06444,371.391329 L2459.72285,288.761179 L2327.38293,288.761179 L2327.38293,193.621285 L2227.30498,193.621285 L2227.30498,288.761179 L2171.01113,288.761179 L2171.01113,371.391329 L2227.30498,371.391329 L2227.30498,533.359591 C2227.30498,558.598548 2231.47489,580.545467 2239.81472,599.200348 C2248.15455,617.855229 2261.04837,632.340196 2278.49617,642.655248 C2295.94397,652.9703 2318.38469,658.127826 2345.81834,658.127826 Z M2511.15346,534.347202 L2511.15346,651.54375 L2611.23141,651.54375 L2611.23095,581.42375 L2614.52345,581.423344 C2617.1083,597.36331 2622.60013,610.9777 2630.99893,622.266515 L2631.47744,622.903021 C2640.14647,634.315418 2651.99781,643.039319 2667.03145,649.074721 C2682.06509,655.110124 2700.3359,658.127826 2721.84388,658.127826 C2763.10409,658.127826 2794.26871,648.196845 2815.33775,628.334883 C2836.4068,608.472921 2846.94132,581.203874 2846.94132,546.527742 C2846.94132,511.412672 2834.98025,484.198493 2811.0581,464.885204 C2787.13596,445.571915 2748.18018,432.513498 2694.19076,425.709953 C2666.31817,421.978977 2645.74294,416.931186 2632.46505,410.566579 C2619.18717,404.201973 2612.54822,395.642674 2612.54822,384.888684 C2612.54822,376.329386 2616.2792,369.251504 2623.74115,363.65504 C2631.2031,358.058576 2642.39603,355.260343 2657.31994,355.260343 C2675.97482,355.260343 2692.43501,359.649727 2706.7005,368.428495 C2720.966,377.207262 2729.74477,388.83913 2733.03681,403.324096 L2733.03681,403.324096 L2833.11476,403.324096 L2833.11476,287.773568 L2733.03681,287.773568 L2733.03595,357.56575 L2729.41557,357.56477 C2727.26391,341.642495 2722.63362,328.040637 2715.52471,316.759195 L2715.0952,316.085093 C2707.74298,304.672695 2697.37306,296.058529 2683.98544,290.242596 C2670.59782,284.426662 2654.0279,281.518696 2634.27567,281.518696 C2595.64909,281.518696 2565.58182,290.955871 2544.07384,309.830221 C2522.56585,328.704571 2511.81186,353.724059 2511.81186,384.888684 C2511.81186,418.028532 2524.59594,445.023242 2550.16411,465.872815 C2575.73227,486.722388 2616.71814,500.658682 2673.12172,507.681696 C2700.77484,510.754265 2719.92352,515.417985 2730.56778,521.672857 C2741.21203,527.927729 2746.53416,536.761364 2746.53416,548.173761 C2746.53416,559.36669 2742.36425,567.871121 2734.02442,573.687055 C2725.68459,579.502988 2713.06511,582.410955 2696.16598,582.410955 C2674.43853,582.410955 2655.67392,577.856969 2639.87214,568.748998 C2624.07035,559.641027 2614.52345,548.173761 2611.23141,534.347202 L2611.23141,534.347202 L2511.15346,534.347202 Z M3134.3367,651.54375 L3201.06895,452.04675 L3202.40695,452.04675 L3273.5899,651.54375 L3312.10595,651.54375 L3373.00895,651.54375 L3388.15282,651.54375 L3488.55998,371.062125 L3521.80956,371.062125 L3521.80956,288.761179 L3351.94041,288.761179 L3351.94041,371.062125 L3400.33336,371.062125 L3340.37595,561.67175 L3339.78195,561.67175 L3269.31026,371.062125 L3307.8271,371.062125 L3307.8271,288.761179 L3107.01279,288.761179 L3107.01279,371.062125 L3147.17565,371.062125 L3079.16395,561.67175 L3078.92495,561.67175 L3015.16493,371.062125 L3062.24107,371.062125 L3062.24107,288.761179 L2874.59492,288.761179 L2874.59492,371.062125 L2907.5153,371.062125 L3013.84812,651.54375 L3047.09695,651.54375 L3108.98795,651.54375 L3134.3367,651.54375 Z M3653.82076,658.127826 C3689.1553,658.127826 3717.46682,649.019854 3738.75533,630.803911 C3760.04385,612.587969 3773.10226,585.15432 3777.93058,548.502965 L3777.93058,548.502965 L3780.89295,548.50375 L3780.89342,601.833978 C3780.89342,617.388857 3784.66821,629.48794 3792.2178,638.131227 L3792.58015,638.5402 C3800.37131,647.209233 3811.50937,651.54375 3825.99434,651.54375 L3825.99434,651.54375 L3924.42627,651.54375 L3924.42627,568.9136 L3880.97137,568.9136 L3880.97137,408.262153 C3880.97137,378.414343 3874.82623,354.053263 3862.53596,335.178913 C3850.24568,316.304562 3832.30408,302.423136 3808.71114,293.534634 C3785.1182,284.646132 3756.31287,280.201881 3722.29514,280.201881 C3686.08273,280.201881 3655.90571,284.920468 3631.7641,294.357643 C3607.62249,303.794818 3588.85788,317.511643 3575.47026,335.508116 C3562.08264,353.50459 3553.4136,375.341774 3549.46316,401.01967 L3549.46316,401.01967 L3641.64022,415.175432 C3645.37119,397.837366 3653.43669,385.163021 3665.8367,377.152395 C3678.2367,369.14177 3694.31282,365.136457 3714.06505,365.136457 C3728.11108,365.136457 3740.12702,367.11168 3750.11286,371.062125 C3760.09871,375.012571 3767.72527,381.102841 3772.99253,389.332935 C3778.25979,397.56303 3780.89342,407.932949 3780.89342,420.442693 L3780.89342,420.442693 L3780.89295,427.53475 L3659.41722,450.400237 C3618.13507,457.78757 3587.71555,469.530714 3568.15867,485.629668 L3567.56937,486.118848 C3548.03661,502.469303 3538.27023,526.226842 3538.27023,557.391467 C3538.27023,589.433969 3548.03661,614.233988 3567.56937,631.791523 C3587.10212,649.349058 3615.85259,658.127826 3653.82076,658.127826 Z M3690.69158,581.09414 C3675.32874,581.09414 3663.53227,577.692367 3655.30217,570.888823 C3647.07208,564.085278 3642.95703,554.209164 3642.95703,541.260482 C3642.95703,529.189676 3646.57827,519.478165 3653.82076,512.125947 C3661.06324,504.773729 3672.58537,499.561336 3688.38715,496.488767 L3688.38715,496.488767 L3783.79095,476.10675 L3783.77953,476.563561 C3783.19643,496.932475 3779.2897,514.561632 3772.05933,529.451032 L3771.67571,530.232155 C3763.55535,546.58261 3752.41729,559.147221 3738.26153,567.925989 C3724.10577,576.704756 3708.24912,581.09414 3690.69158,581.09414 Z M4100.17202,288.761179 L3945.11703,288.761179 L3945.11703,371.062125 L4000.09407,371.062125 L4000.09407,707.508393 L3945.11703,707.508393 L3945.11703,789.80934 L4152.18622,789.80934 L4152.18622,707.508393 L4100.17202,707.508393 L4100.17195,606.31475 L4100.44732,606.625163 C4113.49688,621.296507 4128.07928,632.87326 4144.19451,641.355421 L4145.10833,641.832238 C4167.38446,653.354371 4191.69067,659.115437 4218.02697,659.115437 C4251.82523,659.115437 4281.28897,651.379148 4306.41819,635.90657 C4331.54741,620.433992 4351.08017,598.487073 4365.01646,570.065813 C4378.95276,541.644553 4385.9209,508.340103 4385.9209,470.152464 C4385.9209,444.035631 4382.08019,419.564816 4374.39877,396.74002 C4366.71735,373.915225 4355.74389,353.833794 4341.47839,336.495728 C4327.21289,319.157662 4310.03943,305.605439 4289.958,295.83906 C4269.87657,286.072681 4247.43584,281.189492 4222.63583,281.189492 C4199.81103,281.189492 4180.33314,285.469141 4164.20215,294.028439 C4148.07117,302.587738 4135.01275,314.987747 4125.0269,331.228467 C4115.04105,347.469187 4107.85344,367.11168 4103.46405,390.155945 L4103.46405,390.155945 L4100.17195,390.15675 L4100.17202,288.761179 Z M4190.37385,571.876434 C4170.8411,571.876434 4154.16144,567.596785 4140.33488,559.037486 C4126.50832,550.478188 4116.02867,538.626852 4108.89592,523.483478 C4101.76317,508.340103 4098.19679,490.782568 4098.19679,470.810872 C4098.19679,450.400237 4101.8729,432.458631 4109.22512,416.986053 C4116.57734,401.513475 4127.11186,389.497537 4140.82868,380.938239 C4154.54551,372.37894 4171.06057,368.099291 4190.37385,368.099291 C4208.80927,368.099291 4224.94025,372.37894 4238.76681,380.938239 C4252.59337,389.497537 4263.34736,401.458608 4271.02878,416.821451 C4278.7102,432.184295 4282.55091,449.961299 4282.55091,470.152464 C4282.55091,490.34363 4278.87481,508.065767 4271.52259,523.318876 C4264.17037,538.571984 4253.58098,550.478188 4239.75442,559.037486 C4225.92786,567.596785 4209.46767,571.876434 4190.37385,571.876434 Z" id="rootswap" fill="#232323" fill-rule="nonzero"></path>
                <g id="icon" transform="translate(0.102563, 56.818282)">
                    <path d="M475.330889,25 L475.3309,25 C597.326368,49.4662508 691.226582,147.240596 710.743387,270.124989 L710.743387,270.124985 C713.82914,289.080315 715.222144,308.272677 714.905887,327.474982 L714.905894,327.474643 C714.14797,361.26836 706.26806,394.521877 691.781057,425.062138 L691.781052,425.062149 C670.554731,468.400478 637.531424,504.870451 596.506057,530.280893 L448.737315,626.018389 L448.737315,626.018388 C440.373535,629.777727 435.021115,638.123863 435.092839,647.293387 L435.092839,684.062598 L435.092839,684.062601 C435.092839,696.834191 445.446974,707.1876 458.218564,707.1876" id="Path" stroke="#882472" stroke-width="46.2499976" stroke-linecap="round" stroke-linejoin="round" transform="translate(575.021313, 366.093800) rotate(-30.000000) translate(-575.021313, -366.093800) "></path>
                    <path d="M366.89138,205.52268 L366.89138,205.52268 C226.676183,235.14673 126.356701,358.905942 126.39138,502.216416 L126.39138,503.603916 L126.39138,503.603922 C126.891273,538.319864 134.774247,572.531912 149.516388,603.966417 L149.51638,603.966401 C170.737081,647.79683 203.723227,684.865972 244.791375,711.035146 L337.29137,773.935142" id="Path" stroke="#882472" stroke-width="46.2499976" stroke-linecap="round" stroke-linejoin="round" transform="translate(246.641381, 489.728911) rotate(-30.000000) translate(-246.641381, -489.728911) "></path>
                    <path d="M178.141893,92.311712 L243.123139,220.655458 L243.123137,220.655455 C252.366222,235.662077 272.02453,240.334321 287.031035,231.091236 C291.277247,228.475844 294.851424,224.901668 297.466815,220.655455 L363.141812,92.311712" id="Path" stroke="#882472" stroke-width="46.2499976" stroke-linecap="round" stroke-linejoin="round" transform="translate(270.641852, 164.074021) rotate(-30.000000) translate(-270.641852, -164.074021) "></path>
                    <line x1="259.099791" y1="238.779384" x2="259.099791" y2="49.3856438" id="Path" stroke="#882472" stroke-width="46.2499976" stroke-linecap="round" stroke-linejoin="round" transform="translate(259.099791, 144.082514) rotate(-30.000000) translate(-259.099791, -144.082514) "></line>
                    <path d="M543.715777,672.853136 C552.746645,681.884003 552.746645,696.525966 543.715777,705.55674 C534.68491,714.587607 520.042947,714.587607 511.012173,705.55674 C501.981306,696.525873 501.981306,681.88391 511.012173,672.853136 C520.04304,663.822269 534.685003,663.822269 543.715777,672.853136" id="Path" fill="#882472" fill-rule="nonzero" transform="translate(527.363975, 689.204938) rotate(-30.000000) translate(-527.363975, -689.204938) "></path>
                    <path d="M121,330.081497 L121,330.081497 L121,330.081497 C167.73979,405.168838 249.928811,450.809955 338.374994,450.794003 L380.462491,450.794003" id="Path" stroke="#882472" stroke-width="46.2499976" stroke-linecap="round" stroke-linejoin="round" transform="translate(250.731246, 390.437750) rotate(-30.000000) translate(-250.731246, -390.437750) "></path>
                    <path d="M196.536837,563.365325 L196.536837,563.365325 L196.536837,563.365325 C238.472404,593.430368 284.092939,617.989116 332.28058,636.440322 C342.147254,640.140322 352.013905,643.609071 361.880579,646.846571" id="Path" stroke="#882472" stroke-width="46.2499976" stroke-linecap="round" stroke-linejoin="round" transform="translate(279.208708, 605.105948) rotate(-30.000000) translate(-279.208708, -605.105948) "></path>
                    <path d="M139.448362,488.157448 C139.448362,488.157448 171.129611,532.788695 256.692106,557.532444" id="Path" stroke="#882472" stroke-width="46.2499976" stroke-linecap="round" stroke-linejoin="round" transform="translate(198.070234, 522.844946) rotate(-30.000000) translate(-198.070234, -522.844946) "></path>
                    <path d="M693.159531,274.495943 C693.159531,274.495943 651.072033,358.902189 477.634542,372.545938" id="Path" stroke="#882472" stroke-width="46.2499976" stroke-linecap="round" stroke-linejoin="round" transform="translate(585.397036, 323.520941) rotate(-30.000000) translate(-585.397036, -323.520941) "></path>
                </g>
            </g>
        </g>
    </g>
</svg>