<?xml version="1.0" encoding="UTF-8"?>
<svg width="3407px" height="2052px" viewBox="0 0 3407 2052" version="1.1" xmlns="http://www.w3.org/2000/svg" xmlns:xlink="http://www.w3.org/1999/xlink">
    <title>logo</title>
    <g id="Page-1" stroke="none" stroke-width="1" fill="none" fill-rule="evenodd">
        <g id="Stacked---Dark" transform="translate(-2568.000000, -1471.000000)">
            <g id="logo" transform="translate(2568.000000, 1516.000000)">
                <path d="M182.049693,1471.21743 L25.3486914,1471.21743 L25.3486914,1553.51838 L81.9717424,1553.51838 L81.9717424,1751.69905 L25.3486914,1751.69905 L25.3486914,1834 L234.063891,1834 L234.063891,1751.69905 L182.049693,1751.69905 L182.049693,1667.75209 C182.049693,1634.83171 190.608991,1609.48302 207.727588,1591.70601 C224.846185,1573.92901 248.658592,1565.04051 279.16481,1565.04051 C284.43207,1565.04051 289.31526,1565.31484 293.814378,1565.86352 C298.313496,1566.41219 302.428544,1567.2352 306.15952,1568.33255 L306.15952,1568.33255 L306.15952,1467.59619 C303.30642,1466.93778 300.288719,1466.44397 297.106416,1466.11477 C293.924113,1465.78557 290.467473,1465.62096 286.736497,1465.62096 C267.203739,1465.62096 250.304611,1469.79088 236.039114,1478.13071 C221.773616,1486.47054 210.416086,1499.03515 201.966522,1515.82454 C193.516958,1532.61393 188.085096,1553.51838 185.670935,1578.53786 L185.670935,1578.53786 L182.049,1578.538 L182.049693,1471.21743 Z M527.384945,1841.57169 C567.547807,1841.57169 602.553143,1833.61593 632.400953,1817.70441 C662.248762,1801.7929 685.402762,1779.73624 701.862951,1751.53445 C718.32314,1723.33266 726.553235,1690.68662 726.553235,1653.59633 C726.553235,1616.06709 718.32314,1583.03698 701.862951,1554.50599 C685.402762,1525.97499 662.193895,1503.69887 632.236351,1487.67762 C602.278806,1471.65637 567.328338,1463.64574 527.384945,1463.64574 C487.222083,1463.64574 452.216748,1471.65637 422.368938,1487.67762 C392.521128,1503.69887 369.312261,1525.97499 352.742337,1554.50599 C336.172413,1583.03698 327.887452,1616.06709 327.887452,1653.59633 C327.887452,1690.68662 336.172413,1723.33266 352.742337,1751.53445 C369.312261,1779.73624 392.521128,1801.7929 422.368938,1817.70441 C452.216748,1833.61593 487.222083,1841.57169 527.384945,1841.57169 Z M527.384945,1753.01587 C508.510595,1753.01587 491.885804,1748.90082 477.510572,1740.67073 C463.13534,1732.44063 451.887544,1720.86363 443.767184,1705.93973 C435.646824,1691.01582 431.586644,1673.45829 431.586644,1653.26712 C431.586644,1633.29543 435.646824,1615.68302 443.767184,1600.42991 C451.887544,1585.17681 463.13534,1573.2706 477.510572,1564.7113 C491.885804,1556.15201 508.510595,1551.87236 527.384945,1551.87236 C546.259296,1551.87236 562.884087,1556.15201 577.259319,1564.7113 C591.634551,1573.2706 602.882347,1585.17681 611.002707,1600.42991 C619.123067,1615.68302 623.183247,1633.29543 623.183247,1653.26712 C623.183247,1673.45829 619.123067,1691.01582 611.002707,1705.93973 C602.882347,1720.86363 591.634551,1732.44063 577.259319,1740.67073 C562.884087,1748.90082 546.259296,1753.01587 527.384945,1753.01587 Z M957.189295,1841.57169 C997.352157,1841.57169 1032.35749,1833.61593 1062.2053,1817.70441 C1092.05311,1801.7929 1115.20711,1779.73624 1131.6673,1751.53445 C1148.12749,1723.33266 1156.35758,1690.68662 1156.35758,1653.59633 C1156.35758,1616.06709 1148.12749,1583.03698 1131.6673,1554.50599 C1115.20711,1525.97499 1091.99824,1503.69887 1062.0407,1487.67762 C1032.08316,1471.65637 997.132688,1463.64574 957.189295,1463.64574 C917.026433,1463.64574 882.021097,1471.65637 852.173288,1487.67762 C822.325478,1503.69887 799.116611,1525.97499 782.546687,1554.50599 C765.976763,1583.03698 757.691801,1616.06709 757.691801,1653.59633 C757.691801,1690.68662 765.976763,1723.33266 782.546687,1751.53445 C799.116611,1779.73624 822.325478,1801.7929 852.173288,1817.70441 C882.021097,1833.61593 917.026433,1841.57169 957.189295,1841.57169 Z M957.189295,1753.01587 C938.314945,1753.01587 921.690154,1748.90082 907.314922,1740.67073 C892.93969,1732.44063 881.691894,1720.86363 873.571534,1705.93973 C865.451174,1691.01582 861.390994,1673.45829 861.390994,1653.26712 C861.390994,1633.29543 865.451174,1615.68302 873.571534,1600.42991 C881.691894,1585.17681 892.93969,1573.2706 907.314922,1564.7113 C921.690154,1556.15201 938.314945,1551.87236 957.189295,1551.87236 C976.063645,1551.87236 992.688436,1556.15201 1007.06367,1564.7113 C1021.4389,1573.2706 1032.6867,1585.17681 1040.80706,1600.42991 C1048.92742,1615.68302 1052.9876,1633.29543 1052.9876,1653.26712 C1052.9876,1673.45829 1048.92742,1691.01582 1040.80706,1705.93973 C1032.6867,1720.86363 1021.4389,1732.44063 1007.06367,1740.67073 C992.688436,1748.90082 976.063645,1753.01587 957.189295,1753.01587 Z M1349.81839,1840.58408 C1377.25204,1840.58408 1399.6379,1835.53628 1416.97597,1825.4407 C1434.31403,1815.34512 1447.04325,1800.91502 1455.16361,1782.1504 C1463.28397,1763.38579 1467.34415,1741.0548 1467.34415,1715.15743 L1467.34415,1715.15743 L1467.34415,1681.24944 L1381.42196,1681.24944 L1381.42196,1715.81584 C1381.42196,1727.44771 1379.28213,1736.28134 1375.00248,1742.31675 C1370.72283,1748.35215 1364.52283,1751.36985 1356.40247,1751.36985 C1348.28211,1751.36985 1342.08211,1748.40702 1337.80246,1742.48135 C1333.52281,1736.55568 1331.38298,1727.66718 1331.38298,1715.81584 L1331.38298,1715.81584 L1331.38298,1553.84758 L1463.0645,1553.84758 L1463.7229,1471.21743 L1331.38298,1471.21743 L1331.38298,1376.07754 L1231.30503,1376.07754 L1231.30503,1471.21743 L1175.01118,1471.21743 L1175.01118,1553.84758 L1231.30503,1553.84758 L1231.30503,1715.81584 C1231.30503,1741.0548 1235.47495,1763.00172 1243.81478,1781.6566 C1252.1546,1800.31148 1265.04842,1814.79645 1282.49622,1825.1115 C1299.94402,1835.42655 1322.38475,1840.58408 1349.81839,1840.58408 Z M1515.15351,1716.80345 L1515.15351,1834 L1615.23146,1834 L1615.231,1763.88 L1618.5235,1763.87959 C1621.10836,1779.81956 1626.60018,1793.43395 1634.99898,1804.72276 L1635.47749,1805.35927 C1644.14652,1816.77167 1655.99786,1825.49557 1671.0315,1831.53097 C1686.06514,1837.56637 1704.33595,1840.58408 1725.84393,1840.58408 C1767.10414,1840.58408 1798.26876,1830.65309 1819.33781,1810.79113 C1840.40685,1790.92917 1850.94137,1763.66012 1850.94137,1728.98399 C1850.94137,1693.86892 1838.9803,1666.65474 1815.05816,1647.34145 C1791.13601,1628.02817 1752.18023,1614.96975 1698.19081,1608.1662 C1670.31823,1604.43523 1649.74299,1599.38744 1636.4651,1593.02283 C1623.18722,1586.65822 1616.54827,1578.09892 1616.54827,1567.34493 C1616.54827,1558.78564 1620.27925,1551.70775 1627.7412,1546.11129 C1635.20315,1540.51483 1646.39608,1537.71659 1661.31999,1537.71659 C1679.97487,1537.71659 1696.43506,1542.10598 1710.70056,1550.88475 C1724.96605,1559.66351 1733.74482,1571.29538 1737.03686,1585.78035 L1737.03686,1585.78035 L1837.11481,1585.78035 L1837.11481,1470.22982 L1737.03686,1470.22982 L1737.036,1540.022 L1733.41562,1540.02102 C1731.26396,1524.09875 1726.63367,1510.49689 1719.52476,1499.21545 L1719.09525,1498.54134 C1711.74303,1487.12895 1701.37312,1478.51478 1687.9855,1472.69885 C1674.59787,1466.88291 1658.02795,1463.97495 1638.27572,1463.97495 C1599.64915,1463.97495 1569.58187,1473.41212 1548.07389,1492.28647 C1526.56591,1511.16082 1515.81192,1536.18031 1515.81192,1567.34493 C1515.81192,1600.48478 1528.596,1627.47949 1554.16416,1648.32907 C1579.73232,1669.17864 1620.71819,1683.11493 1677.12177,1690.13795 C1704.77489,1693.21051 1723.92358,1697.87423 1734.56783,1704.12911 C1745.21209,1710.38398 1750.53421,1719.21761 1750.53421,1730.63001 C1750.53421,1741.82294 1746.3643,1750.32737 1738.02447,1756.1433 C1729.68464,1761.95924 1717.06516,1764.86721 1700.16604,1764.86721 C1678.43859,1764.86721 1659.67397,1760.31322 1643.87219,1751.20525 C1628.07041,1742.09728 1618.5235,1730.63001 1615.23146,1716.80345 L1615.23146,1716.80345 L1515.15351,1716.80345 Z M2138.33675,1834 L2205.069,1634.503 L2206.407,1634.503 L2277.58996,1834 L2316.106,1834 L2377.009,1834 L2392.15287,1834 L2492.56003,1553.51838 L2525.80961,1553.51838 L2525.80961,1471.21743 L2355.94046,1471.21743 L2355.94046,1553.51838 L2404.33341,1553.51838 L2344.376,1744.128 L2343.782,1744.128 L2273.31031,1553.51838 L2311.82715,1553.51838 L2311.82715,1471.21743 L2111.01284,1471.21743 L2111.01284,1553.51838 L2151.1757,1553.51838 L2083.164,1744.128 L2082.925,1744.128 L2019.16498,1553.51838 L2066.24113,1553.51838 L2066.24113,1471.21743 L1878.59497,1471.21743 L1878.59497,1553.51838 L1911.51535,1553.51838 L2017.84817,1834 L2051.097,1834 L2112.988,1834 L2138.33675,1834 Z M2657.82081,1840.58408 C2693.15535,1840.58408 2721.46687,1831.4761 2742.75539,1813.26016 C2764.0439,1795.04422 2777.10231,1767.61057 2781.93064,1730.95922 L2781.93064,1730.95922 L2784.893,1730.96 L2784.89347,1784.29023 C2784.89347,1799.84511 2788.66826,1811.94419 2796.21785,1820.58748 L2796.5802,1820.99645 C2804.37136,1829.66548 2815.50942,1834 2829.99439,1834 L2829.99439,1834 L2928.42632,1834 L2928.42632,1751.36985 L2884.97142,1751.36985 L2884.97142,1590.7184 C2884.97142,1560.87059 2878.82628,1536.50951 2866.53601,1517.63516 C2854.24573,1498.76081 2836.30413,1484.87939 2812.71119,1475.99088 C2789.11825,1467.10238 2760.31292,1462.65813 2726.2952,1462.65813 C2690.08278,1462.65813 2659.90577,1467.37672 2635.76416,1476.81389 C2611.62254,1486.25107 2592.85793,1499.96789 2579.47031,1517.96437 C2566.08269,1535.96084 2557.41365,1557.79802 2553.46321,1583.47592 L2553.46321,1583.47592 L2645.64027,1597.63168 C2649.37125,1580.29362 2657.43674,1567.61927 2669.83675,1559.60865 C2682.23676,1551.59802 2698.31287,1547.59271 2718.0651,1547.59271 C2732.11113,1547.59271 2744.12707,1549.56793 2754.11292,1553.51838 C2764.09876,1557.46882 2771.72532,1563.55909 2776.99258,1571.78919 C2782.25984,1580.01928 2784.89347,1590.3892 2784.89347,1602.89894 L2784.89347,1602.89894 L2784.893,1609.991 L2663.41727,1632.85649 C2622.13512,1640.24382 2591.7156,1651.98696 2572.15873,1668.08592 L2571.56942,1668.5751 C2552.03666,1684.92555 2542.27028,1708.68309 2542.27028,1739.84772 C2542.27028,1771.89022 2552.03666,1796.69024 2571.56942,1814.24777 C2591.10218,1831.80531 2619.85264,1840.58408 2657.82081,1840.58408 Z M2694.69163,1763.55039 C2679.32879,1763.55039 2667.53232,1760.14862 2659.30223,1753.34507 C2651.07213,1746.54153 2646.95708,1736.66541 2646.95708,1723.71673 C2646.95708,1711.64593 2650.57833,1701.93441 2657.82081,1694.5822 C2665.06329,1687.22998 2676.58542,1682.01759 2692.38721,1678.94502 L2692.38721,1678.94502 L2787.791,1658.563 L2787.77958,1659.01981 C2787.19649,1679.38872 2783.28975,1697.01788 2776.05938,1711.90728 L2775.67576,1712.68841 C2767.5554,1729.03886 2756.41734,1741.60347 2742.26158,1750.38224 C2728.10582,1759.16101 2712.24917,1763.55039 2694.69163,1763.55039 Z M3104.17207,1471.21743 L2949.11709,1471.21743 L2949.11709,1553.51838 L3004.09412,1553.51838 L3004.09412,1889.96464 L2949.11709,1889.96464 L2949.11709,1972.26559 L3156.18627,1972.26559 L3156.18627,1889.96464 L3104.17207,1889.96464 L3104.172,1788.771 L3104.44737,1789.08141 C3117.49694,1803.75276 3132.07933,1815.32951 3148.19457,1823.81167 L3149.10839,1824.28849 C3171.38451,1835.81062 3195.69072,1841.57169 3222.02702,1841.57169 C3255.82528,1841.57169 3285.28902,1833.8354 3310.41824,1818.36282 C3335.54746,1802.89024 3355.08022,1780.94332 3369.01651,1752.52206 C3382.95281,1724.1008 3389.92095,1690.79635 3389.92095,1652.60871 C3389.92095,1626.49188 3386.08024,1602.02107 3378.39882,1579.19627 C3370.7174,1556.37147 3359.74394,1536.29004 3345.47844,1518.95198 C3331.21295,1501.61391 3314.03948,1488.06169 3293.95805,1478.29531 C3273.87662,1468.52893 3251.4359,1463.64574 3226.63588,1463.64574 C3203.81108,1463.64574 3184.33319,1467.92539 3168.2022,1476.48469 C3152.07122,1485.04399 3139.0128,1497.444 3129.02695,1513.68472 C3119.04111,1529.92544 3111.85349,1549.56793 3107.46411,1572.61219 L3107.46411,1572.61219 L3104.172,1572.613 L3104.17207,1471.21743 Z M3194.37391,1754.33268 C3174.84115,1754.33268 3158.16149,1750.05303 3144.33493,1741.49374 C3130.50837,1732.93444 3120.02872,1721.0831 3112.89597,1705.93973 C3105.76322,1690.79635 3102.19685,1673.23882 3102.19685,1653.26712 C3102.19685,1632.85649 3105.87295,1614.91488 3113.22517,1599.4423 C3120.57739,1583.96973 3131.11191,1571.95379 3144.82874,1563.39449 C3158.54556,1554.83519 3175.06062,1550.55554 3194.37391,1550.55554 C3212.80932,1550.55554 3228.9403,1554.83519 3242.76686,1563.39449 C3256.59342,1571.95379 3267.34741,1583.91486 3275.02883,1599.2777 C3282.71025,1614.64054 3286.55097,1632.41755 3286.55097,1652.60871 C3286.55097,1672.79988 3282.87486,1690.52202 3275.52264,1705.77513 C3268.17042,1721.02823 3257.58103,1732.93444 3243.75447,1741.49374 C3229.92791,1750.05303 3213.46773,1754.33268 3194.37391,1754.33268 Z" id="rootswap" fill="#232323" fill-rule="nonzero"></path>
                <g id="icon" transform="translate(1096.000000, 0.000000)">
                    <path d="M665.463234,33.9999994 L665.463248,33.9999994 C836.256901,68.25275 967.717199,205.136831 995.040726,377.174979 L995.040725,377.174973 C999.360779,403.712435 1001.31098,430.58174 1000.86822,457.464967 L1000.86823,457.464493 C999.807141,504.775696 988.775267,551.330619 968.493464,594.086983 L968.493456,594.086998 C938.776608,654.760658 892.543978,705.818619 835.108465,741.393238 L628.23223,875.425729 L628.23223,875.425729 C616.522938,880.688803 609.029551,892.373393 609.129964,905.210727 L609.129964,956.687621 L609.129964,956.687626 C609.129964,974.567851 623.625754,989.062623 641.505979,989.062623" id="Path" stroke="#882472" stroke-width="64.7499956" stroke-linecap="round" stroke-linejoin="round" transform="translate(805.029824, 511.531311) rotate(-30.000000) translate(-805.029824, -511.531311) "></path>
                    <path d="M513.647927,286.731747 L513.647927,286.731747 C317.346651,328.205416 176.899379,501.46831 176.947928,702.10297 L176.947928,704.04547 L176.947928,704.045478 C177.647779,752.647796 188.683943,800.544663 209.322939,844.552969 L209.322928,844.552947 C239.03191,905.915547 285.212513,957.812344 342.707919,994.449187 L472.20791,1082.50918" id="Path" stroke="#882472" stroke-width="64.7499956" stroke-linecap="round" stroke-linejoin="round" transform="translate(345.297928, 684.620464) rotate(-30.000000) translate(-345.297928, -684.620464) "></path>
                    <path d="M249.398645,128.236395 L340.372389,307.917637 L340.372386,307.917632 C353.312705,328.926902 380.834335,335.468043 401.843442,322.527724 C407.788139,318.866177 412.791987,313.862329 416.453534,307.917632 L508.398528,128.236395" id="Path" stroke="#882472" stroke-width="64.7499956" stroke-linecap="round" stroke-linejoin="round" transform="translate(378.898587, 228.703626) rotate(-30.000000) translate(-378.898587, -228.703626) "></path>
                    <line x1="362.739701" y1="333.291132" x2="362.739701" y2="68.1399002" id="Path" stroke="#882472" stroke-width="64.7499956" stroke-linecap="round" stroke-linejoin="round" transform="translate(362.739701, 200.715516) rotate(-30.000000) translate(-362.739701, -200.715516) "></line>
                    <path d="M761.202076,940.994374 C773.845289,953.637587 773.845289,974.136335 761.202076,986.779419 C748.558862,999.422633 728.060114,999.422633 715.41703,986.779419 C702.773816,974.136206 702.773816,953.637458 715.41703,940.994374 C728.060244,928.35116 748.558991,928.35116 761.202076,940.994374" id="Path" fill="#882472" fill-rule="nonzero" transform="translate(738.309553, 963.886897) rotate(-30.000000) translate(-738.309553, -963.886897) "></path>
                    <path d="M169.399997,461.114088 L169.399997,461.114088 L169.399997,461.114088 C234.835702,566.236364 349.900329,630.133926 473.724983,630.111593 L532.647479,630.111593" id="Path" stroke="#882472" stroke-width="64.7499956" stroke-linecap="round" stroke-linejoin="round" transform="translate(351.023738, 545.612841) rotate(-30.000000) translate(-351.023738, -545.612841) "></path>
                    <path d="M275.151567,787.711442 L275.151567,787.711442 L275.151567,787.711442 C333.86136,829.802501 397.730108,864.184748 465.192804,890.016435 C479.006148,895.196435 492.819458,900.052685 506.632802,904.585184" id="Path" stroke="#882472" stroke-width="64.7499956" stroke-linecap="round" stroke-linejoin="round" transform="translate(390.892185, 846.148313) rotate(-30.000000) translate(-390.892185, -846.148313) "></path>
                    <path d="M195.227704,682.420415 C195.227704,682.420415 239.581451,744.904161 359.368943,779.545408" id="Path" stroke="#882472" stroke-width="64.7499956" stroke-linecap="round" stroke-linejoin="round" transform="translate(277.298323, 730.982912) rotate(-30.000000) translate(-277.298323, -730.982912) "></path>
                    <path d="M970.423326,383.294314 C970.423326,383.294314 911.50083,501.463056 668.688347,520.564305" id="Path" stroke="#882472" stroke-width="64.7499956" stroke-linecap="round" stroke-linejoin="round" transform="translate(819.555837, 451.929309) rotate(-30.000000) translate(-819.555837, -451.929309) "></path>
                </g>
            </g>
        </g>
    </g>
</svg>