<svg xmlns="http://www.w3.org/2000/svg" xmlns:v="https://vecta.io/nano" width="58" height="57" fill="none" opacity=".5"><g opacity=".7"><g fill="#bdc2c4" fill-rule="evenodd"><path d="M23.405 15.228c-.421-.68-1.384-.669-1.765.021-.287.518-.097 1.186.418 1.475l3.471 1.948-.168-.286-1.956-3.158zm-5.055-1.96c1.779-3.214 6.264-3.268 8.228-.098l1.982 3.199 4.03 6.873h-6.263c-.331 0-.659-.086-.952-.251L20.3 20.142a5.11 5.11 0 0 1-1.95-6.875z"/><path d="M35.103 15.228c.421-.68 1.384-.669 1.765.021.287.518.097 1.186-.418 1.475l-3.471 1.948.168-.286 1.956-3.158zm5.055-1.96c-1.779-3.214-6.264-3.268-8.228-.098l-1.982 3.199-4.03 6.873h6.262a1.94 1.94 0 0 0 .952-.251l5.075-2.848a5.11 5.11 0 0 0 1.95-6.875zM16.07 30.811h26.274v10.071a2.56 2.56 0 0 1-2.56 2.56H18.63a2.56 2.56 0 0 1-2.56-2.56V30.811zm28.834-2.56v12.631a5.12 5.12 0 0 1-5.12 5.12H18.63a5.12 5.12 0 0 1-5.12-5.12V28.251h31.394z"/></g><path fill="#bdc2c4" d="M31.856 30.434h-5.232v15.555h5.232V30.434z"/><path fill="#bdc2c4" d="M13.541 33.436v5.458h31.394v-5.458H13.541z"/><path fill="#bdc2c4" fill-rule="evenodd" d="M15.289 23.38h27.9a1.28 1.28 0 0 1 1.28 1.28v1.871a1.28 1.28 0 0 1-1.28 1.28h-27.9a1.28 1.28 0 0 1-1.28-1.28V24.66a1.28 1.28 0 0 1 1.28-1.28zm27.9-2.56a3.84 3.84 0 0 1 3.84 3.84v1.871a3.84 3.84 0 0 1-3.84 3.84h-27.9a3.84 3.84 0 0 1-3.84-3.84V24.66a3.84 3.84 0 0 1 3.84-3.84h27.9z"/><path fill="#bdc2c4" d="M31.856 20.882h-5.232v9.551h5.232v-9.551z"/></g><path fill="#bdc2c4" fill-rule="evenodd" d="M48.882 8.583l-1.283-1.206C36.546-2.392 19.655-1.99 9.083 8.583S-1.892 36.046 7.876 47.099c.386.437.788.865 1.206 1.283a28.62 28.62 0 0 0 1.283 1.206c11.053 9.768 27.944 9.366 38.517-1.206s10.974-27.464 1.206-38.517c-.386-.437-.788-.865-1.206-1.283zm-3.777 1.288c-9.673-8.397-24.336-7.997-33.533 1.201s-9.597 23.86-1.201 33.533L45.105 9.871zM12.86 47.094L47.594 12.36c8.397 9.673 7.997 24.336-1.201 33.533s-23.86 9.597-33.533 1.201z"/></svg>