<svg xmlns="http://www.w3.org/2000/svg" width="202" height="134" fill="none" xmlns:v="https://vecta.io/nano"><style><![CDATA[.B{fill:#fff}.C{fill:#000}.D{fill-rule:evenodd}.E{fill:#612f01}.F{fill:#fedc90}.G{fill:#d1884f}]]></style><g opacity=".9" clip-path="url(#G)"><g fill="#aea0d6"><path opacity=".5" d="M40.8 62.955c-.16-1.047-1.67-1.047-1.828 0l-.945 6.202c-.06.4-.375.714-.775.775l-6.202.945c-1.047.16-1.047 1.67 0 1.83l6.202.945c.4.06.714.375.775.775l.945 6.202c.16 1.047 1.67 1.047 1.828 0l.945-6.202c.06-.4.375-.714.775-.775l6.202-.945c1.047-.16 1.047-1.67 0-1.83l-6.202-.945c-.4-.06-.714-.375-.775-.775l-.945-6.202zM159.277 43.2c-.16-1.047-1.67-1.047-1.83 0l-.945 6.202c-.06.4-.375.714-.775.775l-6.202.945c-1.047.16-1.047 1.67 0 1.828l6.202.945c.4.06.714.375.775.775l.945 6.202c.16 1.047 1.67 1.047 1.83 0l.945-6.202c.06-.4.375-.714.775-.775l6.2-.945c1.048-.16 1.048-1.67 0-1.828l-6.2-.945c-.4-.06-.714-.375-.775-.775l-.945-6.202zm-76.49-35.7c.16-1.047 1.67-1.047 1.83 0l.3 2.04c.06.4.375.714.775.775l2.04.3c1.047.16 1.047 1.67 0 1.83l-2.04.3c-.4.06-.714.375-.775.775l-.3 2.04c-.16 1.047-1.67 1.047-1.83 0l-.3-2.04c-.06-.4-.375-.714-.775-.775l-2.04-.3c-1.047-.16-1.047-1.67 0-1.83l2.04-.3c.4-.06.714-.375.775-.775l.3-2.04z"/></g><mask id="A" maskUnits="userSpaceOnUse" x="100.643" y="85.509" width="72" height="48" class="C"><path d="M100.643 85.51h72v48h-72z" class="B"/><path d="M169.593 108.695v2.143c0 11.13-14.764 20.15-32.975 20.15s-32.975-9.022-32.975-20.15v-2.177c0-11.13 14.763-20.152 32.975-20.152s32.975 9.022 32.975 20.152v.034z" class="D"/></mask><path d="M169.593 108.695l-2.466-.007v.007h2.466zm-65.95-.034v-2.466h-2.466v2.466h2.466zm0 0v2.467h2.466v-2.467h-2.466zm63.484.034v2.143h4.932v-2.143h-4.932zm0 2.143c0 4.38-2.916 8.745-8.478 12.144-5.52 3.374-13.304 5.54-22.03 5.54v4.932c9.484 0 18.188-2.344 24.603-6.264 6.372-3.894 10.838-9.604 10.838-16.353h-4.932zm-30.51 17.685c-8.728 0-16.51-2.167-22.03-5.54-5.563-3.4-8.478-7.764-8.478-12.144h-4.932c0 6.75 4.466 12.46 10.838 16.353 6.414 3.92 15.12 6.264 24.603 6.264v-4.932zm-30.51-17.685v-2.177h-4.932v2.177h4.932zm-2.466.3h0v-4.933 4.933zm2.466-2.467h-4.932 4.932zm0 0c0-4.38 2.916-8.746 8.478-12.145 5.52-3.374 13.303-5.54 22.03-5.54v-4.932c-9.484 0-18.19 2.344-24.603 6.264-6.372 3.894-10.838 9.605-10.838 16.354h4.932zm30.51-17.686c8.727 0 16.5 2.167 22.03 5.54 5.562 3.4 8.478 7.764 8.478 12.145h4.932c0-6.75-4.466-12.46-10.838-16.354-6.415-3.92-15.12-6.264-24.603-6.264v4.932zm30.51 17.686v.027l4.932.013v-.04h-4.932z" fill="#606063" mask="url(#A)"/><path d="M169.593 110.838c0 11.13-14.764 20.15-32.975 20.15s-32.975-9.022-32.975-20.15v-2.177h65.95v2.177z" fill="#bdc2c4"/><path d="M169.593 108.66c0 11.13-14.764 20.15-32.975 20.15s-32.975-9.022-32.975-20.15 14.763-20.152 32.975-20.152 32.975 9.022 32.975 20.152z" fill="#faf9fa"/><mask id="B" maskUnits="userSpaceOnUse" x="106.737" y="83.193" width="60" height="43" class="C"><path d="M106.737 83.193h60v43h-60z" class="B"/><path d="M163.686 102.777v-.1c0-9.104-12.077-16.484-26.974-16.484s-26.975 7.38-26.975 16.484v4.197c0 9.104 12.077 16.485 26.974 16.485s26.975-7.38 26.975-16.485v-4.097z" class="D"/></mask><path d="M163.686 102.777l-2.466-.024v.024h2.466zm-53.95-.1v2.466h2.466v-2.466h-2.466zm0 0v-2.466h-2.467v2.466h2.467zm51.483-.001v.076l4.932.048.001-.124h-4.933zM136.712 88.66c7.07 0 13.353 1.756 17.788 4.466 4.476 2.736 6.72 6.184 6.72 9.552h4.933c0-5.736-3.795-10.53-9.08-13.76-5.33-3.256-12.533-5.2-20.36-5.2v4.933zm-24.51 14.018c0-3.368 2.244-6.816 6.72-9.552 4.434-2.7 10.717-4.466 17.788-4.466v-4.933c-7.827 0-15.032 1.934-20.36 5.2-5.286 3.23-9.08 8.024-9.08 13.76h4.932zm0 .001l-4.932-.001 4.932.001zm-2.466 2.466h0v-4.932 4.932zm2.466 1.73v-4.196h-4.933v4.196h4.933zm24.508 14.018c-7.07 0-13.353-1.756-17.788-4.466-4.477-2.736-6.72-6.184-6.72-9.552h-4.933c0 5.736 3.795 10.53 9.08 13.76 5.33 3.256 12.533 5.2 20.36 5.2v-4.933zm24.51-14.018c0 3.368-2.244 6.816-6.72 9.552-4.434 2.7-10.717 4.466-17.788 4.466v4.933c7.827 0 15.032-1.934 20.36-5.2 5.286-3.23 9.08-8.025 9.08-13.76h-4.932zm0-4.097v4.097h4.932v-4.097h-4.932z" mask="url(#B)" class="E"/><path d="M163.686 106.874c0 9.104-12.077 16.485-26.975 16.485s-26.975-7.38-26.975-16.485v-4.196h53.95v4.196z" class="F"/><path d="M163.686 102.677c0 9.104-12.077 16.485-26.975 16.485s-26.975-7.38-26.975-16.485 12.077-16.484 26.975-16.484 26.975 7.38 26.975 16.484z" class="G"/><mask id="C" maskUnits="userSpaceOnUse" x="111.166" y="77.758" width="60" height="43" class="C"><path d="M111.166 77.758h60v43h-60z" class="B"/><path d="M168.115 97.4l.002-.16c0-9.104-12.077-16.484-26.975-16.484s-26.974 7.38-26.975 16.483h-.001v4.196c0 9.104 12.077 16.485 26.975 16.485s26.974-7.38 26.974-16.485V97.4z" class="D"/></mask><path d="M168.115 97.4l-2.465-.038v.02.02h2.466zm-53.948-.16v2.466h2.466V97.24h-2.466zm-.001 0v-2.466H111.7v2.466h2.466zm51.484.001v.12l4.93.076.002-.197h-4.933zm-24.508-14.018c7.07 0 13.354 1.756 17.788 4.466 4.477 2.736 6.72 6.184 6.72 9.552h4.933c0-5.736-3.795-10.53-9.08-13.76-5.33-3.256-12.533-5.2-20.36-5.2v4.932zm-24.51 14.017c.001-3.368 2.245-6.816 6.722-9.55 4.434-2.7 10.717-4.466 17.787-4.466V78.29c-7.827 0-15.03 1.934-20.36 5.2-5.287 3.23-9.08 8.024-9.082 13.76h4.932zm-2.467 2.466h.001l-.001-4.933v4.933zm2.466 1.73V97.24H111.7v4.196h4.932zm24.51 14.018c-7.07 0-13.354-1.756-17.788-4.466-4.477-2.736-6.72-6.184-6.72-9.552H111.7c0 5.736 3.795 10.53 9.08 13.76 5.328 3.256 12.533 5.2 20.36 5.2v-4.933zm24.508-14.018c0 3.368-2.244 6.816-6.72 9.552-4.435 2.7-10.718 4.466-17.788 4.466v4.933c7.827 0 15.03-1.934 20.36-5.2 5.286-3.23 9.08-8.025 9.08-13.76h-4.933zm0-4.036v4.036h4.933V97.4h-4.933z" mask="url(#C)" class="E"/><path d="M168.115 101.438c0 9.104-12.077 16.484-26.974 16.484s-26.975-7.38-26.975-16.484v-4.196h53.95v4.197z" class="F"/><path d="M168.116 97.242c0 9.105-12.077 16.485-26.975 16.485s-26.975-7.38-26.975-16.485 12.077-16.485 26.975-16.485 26.975 7.38 26.975 16.485z" class="G"/><mask id="D" maskUnits="userSpaceOnUse" x="100.278" y="69.903" width="60" height="43" class="C"><path d="M100.278 69.903h60v43h-60z" class="B"/><path d="M157.228 89.485v-.097c0-9.104-12.077-16.485-26.975-16.485s-26.974 7.38-26.974 16.485h-.001v4.196c0 9.104 12.077 16.485 26.975 16.485s26.975-7.38 26.975-16.485v-4.1z" class="D"/></mask><path d="M157.228 89.485l-2.466-.023-.001.012v.012h2.467zm-53.95-.097v2.466h2.466v-2.466h-2.466zm-.001 0v-2.466h-2.466v2.466h2.466zm51.484-.001v.074l4.932.047v-.12h-4.932zm-24.51-14.018c7.07 0 13.354 1.757 17.788 4.466 4.477 2.736 6.72 6.184 6.72 9.552h4.932c0-5.736-3.794-10.53-9.08-13.76-5.328-3.256-12.533-5.2-20.36-5.2v4.932zm-24.508 14.018c0-3.368 2.244-6.816 6.72-9.552 4.435-2.7 10.718-4.466 17.788-4.466v-4.932c-7.827 0-15.03 1.934-20.36 5.2-5.286 3.23-9.08 8.024-9.08 13.76h4.933zm0 0h-4.933 4.933zm-2.467 2.466h.001l-.001-4.933v4.933zm2.466 1.73v-4.196h-4.932v4.196h4.932zm24.51 14.02c-7.07 0-13.354-1.757-17.788-4.467-4.477-2.736-6.72-6.184-6.72-9.552h-4.932c0 5.736 3.795 10.53 9.08 13.76 5.328 3.256 12.533 5.2 20.36 5.2v-4.932zm24.508-14.02c0 3.368-2.243 6.816-6.72 9.552-4.435 2.7-10.717 4.467-17.788 4.467v4.932c7.827 0 15.03-1.934 20.36-5.2 5.286-3.23 9.08-8.024 9.08-13.76h-4.933zm0-4.1v4.1h4.933v-4.1h-4.933z" mask="url(#D)" class="E"/><path d="M157.228 93.585c0 9.104-12.077 16.484-26.975 16.484s-26.975-7.38-26.975-16.484v-4.196h53.95v4.196z" class="F"/><path d="M157.228 89.388c0 9.104-12.077 16.484-26.975 16.484s-26.975-7.38-26.975-16.484 12.077-16.485 26.975-16.485 26.975 7.38 26.975 16.485z" class="G"/><mask id="E" maskUnits="userSpaceOnUse" x="54.459" y="19.562" width="73.462" height="67.239" class="C"><path d="M54.46 19.562h73.462V86.8H54.46z" class="B"/><path d="M115.49 41.374l.045.078c4.552 7.884-2.216 20.314-15.118 27.763s-27.05 7.096-31.603-.788h0l-2.098-3.634C62.165 56.91 68.934 44.48 81.835 37.03s27.05-7.096 31.603.79l2.053 3.555z" class="D"/></mask><path d="M115.49 41.374l-2.125 1.252-.006-.01-.005-.01 2.136-1.233zM68.815 68.427l-1.233-2.136 2.136-1.233 1.233 2.136-2.136 1.233zm0 0l1.233 2.136-2.136 1.233-1.233-2.136 2.136-1.233zm-2.098-3.634l-2.136 1.233 2.136-1.233zm46.72-26.975l2.136-1.233-2.136 1.233zm-.037 4.866l-.035-.06 4.25-2.504.056.097-4.27 2.466zM99.185 67.08c6.123-3.535 10.686-8.198 13.17-12.762 2.51-4.608 2.728-8.716 1.045-11.632l4.27-2.466c2.868 4.968 1.98 11.017-.984 16.458-2.986 5.484-8.26 10.76-15.037 14.675l-2.466-4.272zm-28.234.114c1.684 2.916 5.35 4.78 10.596 4.912 5.195.13 11.514-1.49 17.638-5.026l2.466 4.272c-6.778 3.913-13.984 5.84-20.227 5.685-6.193-.154-11.876-2.408-14.745-7.376l4.272-2.467zm-3.37-.902h0l2.466 4.272-2.466-4.272zm1.27-2.73l2.098 3.634-4.272 2.466-2.098-3.634 4.272-2.466zm14.216-24.394c-6.123 3.535-10.686 8.198-13.172 12.762-2.51 4.608-2.728 8.716-1.044 11.633l-4.272 2.466c-2.868-4.968-1.98-11.017.984-16.458 2.987-5.484 8.26-10.76 15.037-14.675l2.466 4.272zm28.235-.114c-1.684-2.917-5.352-4.78-10.597-4.912-5.195-.13-11.514 1.49-17.638 5.026l-2.466-4.272c6.778-3.914 13.984-5.84 20.228-5.685 6.193.155 11.876 2.41 14.744 7.377l-4.27 2.466zm2.052 3.555l-2.052-3.555 4.27-2.466 2.053 3.555-4.272 2.466z" mask="url(#E)" class="E"/><path d="M113.438 37.818c-4.552-7.884-18.702-8.237-31.603-.79s-19.67 19.88-15.12 27.763l2.098 3.634 46.722-26.975-2.098-3.634z" class="G"/><path d="M115.536 41.452c-4.552-7.884-18.7-8.237-31.603-.79s-19.67 19.88-15.12 27.763 18.7 8.238 31.604.79 19.67-19.88 15.118-27.763z" class="F"/><mask id="F" maskUnits="userSpaceOnUse" x="-3.84" y="-5.357" width="72.832" height="72.832" class="C"><path d="M-3.84-5.357h72.832v72.832H-3.84z" class="B"/><path d="M12.095 48.7c-6.438-6.438-3.117-20.196 7.418-30.73s24.293-13.855 30.73-7.418l.035.035L53.2 13.51c6.438 6.438 3.117 20.196-7.418 30.73S21.5 58.095 15.062 51.657L12.095 48.7z" class="D"/></mask><path d="M12.095 48.7l1.744-1.744 1.744 1.744-1.744 1.744-1.744-1.744zm38.183-38.113l-1.744 1.744-.008-.008 1.752-1.735zM12.095 48.7l-1.744 1.744L8.607 48.7l1.744-1.744 1.744 1.744zm1.744-1.744h0 0 0 0l-3.488 3.488 3.488-3.488zm7.418-27.243c-5 5-8.2 10.684-9.42 15.736-1.23 5.1-.38 9.125 2.002 11.506l-3.488 3.488c-4.056-4.056-4.763-10.13-3.31-16.152 1.465-6.07 5.192-12.532 10.727-18.067l3.488 3.488zM48.5 12.286c-2.38-2.38-6.406-3.233-11.506-2.002-5.052 1.22-10.736 4.42-15.736 9.42l-3.488-3.488C23.303 10.68 29.765 6.954 35.835 5.49c6.022-1.454 12.095-.747 16.15 3.31L48.5 12.286zm.026.026l-.026-.026 3.488-3.488.043.043-3.504 3.47zm2.94 2.94l-2.932-2.933 3.488-3.488 2.932 2.932-3.488 3.488zm-7.418 27.243c5-5 8.2-10.684 9.42-15.736 1.23-5.1.38-9.125-2.002-11.506l3.488-3.488c4.056 4.056 4.763 10.13 3.31 16.15-1.465 6.07-5.192 12.532-10.727 18.067l-3.488-3.488zm-27.243 7.418c2.38 2.38 6.406 3.233 11.506 2.002 5.052-1.22 10.736-4.42 15.736-9.42l3.488 3.488C42 51.518 35.54 55.245 29.47 56.7c-6.022 1.454-12.095.747-16.15-3.31l3.488-3.488zm-2.967-2.967l2.967 2.967-3.488 3.488-2.967-2.967 3.488-3.488zm0 3.488h0l-3.488-3.488 3.488 3.488z" mask="url(#F)" class="E"/><path d="M15.06 51.657c6.438 6.438 20.196 3.117 30.73-7.418s13.855-24.293 7.418-30.73l-2.967-2.967L12.094 48.7l2.967 2.967z" class="F"/><path d="M12.095 48.7c6.438 6.438 20.196 3.117 30.73-7.418s13.855-24.293 7.418-30.73-20.196-3.117-30.73 7.418S5.657 42.252 12.095 48.7z" class="G"/></g><defs><clipPath id="G"><path d="M0 0h202v133.654H0z" class="B"/></clipPath></defs></svg> 
