<svg xmlns="http://www.w3.org/2000/svg" width="250" height="84" fill="none" xmlns:v="https://vecta.io/nano"><style><![CDATA[.B{fill:#fff}.C{fill:#000}.D{fill-rule:evenodd}.E{fill:#612f01}.F{fill:#fedc90}.G{fill:#d1884f}]]></style><g opacity=".9" clip-path="url(#M)"><g fill="#aea0d6"><path opacity=".5" d="M150.254 39.288c-.1-.648-1.033-.648-1.13 0l-.585 3.838c-.038.248-.232.442-.48.48l-3.838.585c-.648.1-.648 1.033 0 1.132l3.838.585c.248.038.442.232.48.48l.585 3.838c.098.648 1.032.648 1.13 0l.585-3.838c.038-.248.232-.442.48-.48l3.838-.585c.648-.1.648-1.033 0-1.132l-3.838-.585c-.247-.038-.44-.232-.48-.48l-.585-3.838zm73.308-12.218c-.098-.648-1.032-.648-1.13 0l-.585 3.838c-.038.248-.232.442-.48.48l-3.837.585c-.648.1-.648 1.033 0 1.132l3.837.585c.248.038.442.232.48.48l.585 3.838c.1.648 1.033.648 1.13 0l.585-3.838c.038-.248.232-.442.48-.48l3.837-.585c.648-.1.648-1.033 0-1.132l-3.837-.585c-.248-.038-.442-.232-.48-.48l-.585-3.838zM176.23 4.983c.1-.648 1.033-.648 1.132 0l.192 1.263c.038.248.232.442.48.48l1.262.192c.648.1.648 1.033 0 1.132l-1.262.192c-.248.038-.442.232-.48.48l-.192 1.263c-.1.648-1.033.648-1.132 0l-.192-1.263c-.038-.248-.232-.442-.48-.48l-1.262-.192c-.648-.1-.648-1.033 0-1.132l1.262-.192c.248-.038.442-.232.48-.48l.192-1.263z"/></g><mask id="A" maskUnits="userSpaceOnUse" x="187.135" y="53.101" width="45" height="30" class="C"><path d="M187.135 53.1h45v30h-45z" class="B"/><path d="M229.946 67.597v-.026c0-6.887-9.136-12.47-20.405-12.47s-20.406 5.583-20.406 12.47v1.347c0 6.887 9.136 12.47 20.406 12.47s20.405-5.583 20.405-12.47v-1.322z" class="D"/></mask><path d="M229.946 67.597l-1.526-.005v.005h1.526zm-40.81-.025v1.526h1.527v-1.526h-1.527zm0 0v-1.526h-1.526v1.526h1.526zm39.285-.001v.02l3.052.01v-.03h-3.052zm-18.88-10.944c5.4 0 10.217 1.34 13.633 3.428 3.442 2.104 5.246 4.805 5.246 7.515h3.052c0-4.176-2.764-7.7-6.707-10.12-3.97-2.426-9.355-3.876-15.224-3.876v3.052zm-18.88 10.944c0-2.71 1.804-5.412 5.246-7.515 3.416-2.087 8.232-3.428 13.633-3.428v-3.052c-5.87 0-11.255 1.45-15.225 3.876-3.943 2.4-6.707 5.944-6.707 10.12h3.053zm0 .001l-3.053-.001 3.053.001zm-1.527 1.526h0v-3.052 3.052zm1.527-.18v-1.347h-3.053v1.347h3.053zm18.88 10.944c-5.4 0-10.217-1.34-13.633-3.428-3.442-2.103-5.246-4.805-5.246-7.515h-3.053c0 4.176 2.764 7.7 6.707 10.12 3.97 2.426 9.356 3.876 15.225 3.876v-3.052zm18.88-10.944c0 2.71-1.804 5.412-5.246 7.515-3.416 2.088-8.233 3.428-13.633 3.428v3.052c5.87 0 11.255-1.45 15.224-3.876 3.943-2.4 6.707-5.943 6.707-10.12h-3.052zm0-1.322v1.322h3.052v-1.322h-3.052z" fill="#606063" mask="url(#A)"/><path d="M229.946 68.918c0 6.887-9.136 12.47-20.405 12.47s-20.406-5.583-20.406-12.47v-1.347h40.81v1.347z" fill="#bdc2c4"/><path d="M229.946 67.57c0 6.887-9.136 12.47-20.405 12.47s-20.406-5.583-20.406-12.47S198.27 55.1 209.54 55.1s20.405 5.583 20.405 12.47z" fill="#faf9fa"/><mask id="B" maskUnits="userSpaceOnUse" x="190.906" y="51.668" width="37" height="27" class="C"><path d="M190.906 51.667h37v27h-37z" class="B"/><path d="M226.29 63.953v-.085c0-5.634-7.473-10.2-16.692-10.2s-16.692 4.567-16.692 10.2h-.001v2.597c0 5.634 7.474 10.2 16.693 10.2s16.692-4.567 16.692-10.2v-2.512z" class="D"/></mask><path d="M226.29 63.953l-1.526-.02v.02h1.526zm-33.384-.084v1.526h1.526V63.87h-1.526zm-.001 0v-1.526h-1.526v1.526h1.526zm31.86 0v.064l3.052.04.001-.105h-3.053zM209.6 55.194c4.376 0 8.263 1.087 11.008 2.764 2.77 1.693 4.158 3.827 4.158 5.91h3.053c0-3.55-2.35-6.516-5.62-8.515-3.297-2.015-7.755-3.212-12.6-3.212v3.052zm-15.166 8.675c0-2.084 1.388-4.218 4.16-5.91 2.744-1.677 6.632-2.764 11.007-2.764V52.14c-4.843 0-9.302 1.197-12.6 3.212-3.27 2-5.62 4.966-5.62 8.515h3.052zm0 0h-3.052 3.052zm-1.527 1.526h.001l-.001-3.052v3.052zm1.526 1.07V63.87h-3.052v2.597h3.052zM209.6 75.14c-4.376 0-8.264-1.087-11.008-2.764-2.77-1.693-4.16-3.827-4.16-5.91h-3.052c0 3.55 2.348 6.516 5.62 8.515 3.297 2.015 7.755 3.212 12.6 3.212V75.14zm15.166-8.675c0 2.084-1.39 4.218-4.16 5.91-2.744 1.677-6.632 2.764-11.007 2.764v3.052c4.843 0 9.3-1.197 12.6-3.212 3.27-2 5.62-4.966 5.62-8.515h-3.052zm0-2.512v2.512h3.052v-2.512h-3.052z" mask="url(#B)" class="E"/><path d="M226.29 66.465c0 5.634-7.474 10.2-16.693 10.2s-16.692-4.567-16.692-10.2V63.87h33.385v2.596z" class="F"/><path d="M226.29 63.868c0 5.634-7.474 10.2-16.693 10.2s-16.692-4.567-16.692-10.2 7.473-10.2 16.692-10.2 16.693 4.567 16.693 10.2z" class="G"/><mask id="C" maskUnits="userSpaceOnUse" x="193.647" y="48.304" width="37" height="27" class="C"><path d="M193.647 48.304h37v27h-37z" class="B"/><path d="M229.032 60.63l.001-.124c0-5.634-7.473-10.2-16.692-10.2s-16.692 4.567-16.693 10.2h-.001V63.1c0 5.634 7.474 10.2 16.693 10.2s16.692-4.567 16.692-10.2v-2.47z" class="D"/></mask><path d="M229.032 60.63l-1.526-.03v.03h1.526zm-33.384-.125v1.526h1.526l.001-1.526h-1.527zm-.001 0v-1.526h-1.526v1.526h1.526zm31.86.001l-.001.094 3.052.06.001-.154h-3.052zM212.34 51.83c4.375 0 8.263 1.087 11.007 2.764 2.77 1.693 4.16 3.827 4.16 5.91h3.052c0-3.55-2.348-6.516-5.62-8.515-3.298-2.015-7.756-3.212-12.6-3.212v3.052zm-15.166 8.674c0-2.084 1.388-4.218 4.16-5.9 2.744-1.677 6.632-2.764 11.007-2.764v-3.052c-4.843 0-9.3 1.197-12.6 3.21-3.27 2-5.62 4.965-5.62 8.515h3.053zm-1.528 1.526h.001l-.001-3.052v3.052zm1.526 1.07v-2.596h-3.052V63.1h3.052zm15.167 8.675c-4.376 0-8.264-1.087-11.008-2.764-2.77-1.693-4.16-3.827-4.16-5.91h-3.052c0 3.55 2.348 6.516 5.62 8.515 3.297 2.015 7.755 3.212 12.6 3.212v-3.052zm15.166-8.675c0 2.084-1.39 4.218-4.16 5.91-2.744 1.677-6.632 2.764-11.007 2.764v3.052c4.843 0 9.3-1.197 12.6-3.212 3.27-2 5.62-4.965 5.62-8.515h-3.052zm0-2.47v2.47h3.052v-2.47h-3.052z" mask="url(#C)" class="E"/><path d="M229.032 63.1c0 5.634-7.474 10.2-16.692 10.2s-16.693-4.567-16.693-10.2v-2.597h33.385V63.1z" class="F"/><path d="M229.032 60.506c0 5.634-7.473 10.2-16.692 10.2s-16.692-4.567-16.692-10.2 7.473-10.2 16.692-10.2 16.692 4.567 16.692 10.2z" class="G"/><mask id="D" maskUnits="userSpaceOnUse" x="186.91" y="43.444" width="37" height="27" class="C"><path d="M186.9 43.444h37v27h-37z" class="B"/><path d="M222.294 55.723l.001-.078c0-5.634-7.474-10.2-16.692-10.2S188.9 50.01 188.9 55.645v2.597c0 5.634 7.473 10.2 16.692 10.2s16.692-4.567 16.692-10.2v-2.52z" class="D"/></mask><path d="M222.294 55.723l-1.526-.02v.02h1.526zm-33.384-.078v1.526h1.526v-1.526H188.9zm0 0V54.12h-1.526v1.526h1.526zm31.86 0l-.001.06 3.052.037v-.096h-3.052zm-15.166-8.675c4.375 0 8.263 1.087 11.007 2.764 2.77 1.693 4.16 3.827 4.16 5.91h3.052c0-3.55-2.348-6.516-5.62-8.515-3.298-2.015-7.756-3.212-12.6-3.212v3.052zm-15.167 8.675c0-2.084 1.39-4.218 4.16-5.91 2.744-1.677 6.632-2.764 11.008-2.764v-3.052c-4.844 0-9.302 1.197-12.6 3.212-3.272 2-5.62 4.966-5.62 8.515h3.052zm0 0h-3.052 3.052zM188.9 57.17h0V54.12v3.052zm1.526 1.07v-2.597h-3.052v2.597h3.052zm15.166 8.675c-4.375 0-8.263-1.087-11.007-2.764-2.77-1.693-4.16-3.827-4.16-5.91h-3.052c0 3.55 2.348 6.516 5.62 8.515 3.297 2.015 7.756 3.212 12.6 3.212v-3.052zm15.166-8.675c0 2.084-1.388 4.218-4.16 5.91-2.744 1.677-6.632 2.764-11.007 2.764v3.052c4.844 0 9.302-1.197 12.6-3.212 3.27-2 5.62-4.965 5.62-8.515h-3.052zm0-2.52v2.52h3.052v-2.52h-3.052z" mask="url(#D)" class="E"/><path d="M222.294 58.242c0 5.634-7.473 10.2-16.692 10.2s-16.692-4.567-16.692-10.2v-2.596h33.384v2.596z" class="F"/><path d="M222.295 55.645c0 5.634-7.474 10.2-16.693 10.2S188.9 61.28 188.9 55.645s7.473-10.2 16.692-10.2 16.693 4.567 16.693 10.2z" class="G"/><mask id="E" maskUnits="userSpaceOnUse" x="158.452" y="12.358" width="45.543" height="41.883" class="C"><path d="M158.452 12.358h45.543V54.24h-45.543z" class="B"/><path d="M196.464 25.928l.03.053c2.817 4.88-1.37 12.57-9.355 17.18s-16.74 4.39-19.556-.488h-.001l-1.298-2.25c-2.817-4.88 1.372-12.57 9.356-17.18s16.74-4.39 19.556.488l1.267 2.195z" class="D"/></mask><path d="M196.464 25.928l-1.314.776-.004-.006-.004-.006 1.322-.763zm-28.88 16.746l-.763-1.322 1.32-.763.763 1.322-1.32.763zm-.001 0l.764 1.322-1.322.763-.763-1.322 1.32-.763zm27.614-18.94l-1.322.763 1.322-.763zm-.023 3.01l-.024-.04 2.628-1.552.04.066-2.643 1.526zm-8.797 15.095c3.79-2.188 6.613-5.073 8.15-7.897 1.552-2.85 1.688-5.393.646-7.198l2.643-1.526c1.775 3.074 1.225 6.817-.61 10.184-1.848 3.394-5.1 6.66-9.305 9.08l-1.526-2.643zm-17.472.07c1.042 1.805 3.312 2.958 6.557 3.04 3.215.08 7.126-.922 10.915-3.1l1.526 2.643c-4.194 2.422-8.654 3.614-12.517 3.518-3.832-.096-7.35-1.5-9.124-4.564l2.643-1.526zm-2.085-.558h.001l1.526 2.644-1.527-2.643zm.787-1.7l1.298 2.25-2.643 1.526-1.298-2.25 2.643-1.526zm8.797-15.096c-3.79 2.188-6.613 5.073-8.15 7.897-1.553 2.85-1.688 5.394-.646 7.198l-2.643 1.526c-1.775-3.074-1.225-6.817.608-10.184 1.848-3.394 5.11-6.66 9.306-9.08l1.526 2.643zm17.47-.07c-1.042-1.805-3.31-2.96-6.557-3.04-3.214-.08-7.125.922-10.914 3.1l-1.526-2.643c4.194-2.422 8.653-3.614 12.517-3.518 3.832.096 7.35 1.49 9.124 4.565l-2.644 1.526zm1.267 2.195l-1.267-2.195 2.644-1.526 1.267 2.195-2.644 1.526z" mask="url(#E)" class="E"/><path d="M195.197 23.733c-2.817-4.88-11.573-5.097-19.557-.488s-12.172 12.3-9.355 17.18l1.298 2.25 28.912-16.692-1.298-2.25z" class="G"/><path d="M196.495 25.982c-2.817-4.88-11.572-5.097-19.556-.488s-12.173 12.3-9.356 17.18 11.573 5.097 19.557.488 12.172-12.3 9.355-17.18z" class="F"/><mask id="F" maskUnits="userSpaceOnUse" x="122.715" y="-3.187" width="45.255" height="45.255" class="C"><path d="M122.715-3.187h45.255v45.255h-45.255z" class="B"/><path d="M132.493 30.47l1.827 1.828c3.984 3.984 12.498 1.93 19.017-4.6s8.573-15.033 4.6-19.016l-1.836-1.836c-3.984-3.984-12.498-1.93-19.017 4.6s-8.573 15.033-4.6 19.016z" class="D"/></mask><path d="M132.493 30.47l1.077-1.08.002.002-1.08 1.08zm1.827 1.828l-1.08 1.08 1.08-1.08zM157.927 8.7l1.08-1.08-1.08 1.08zm-1.836-1.836l-1.08-1.08 1.08-1.08 1.08 1.08-1.08 1.08zm0 0l1.08 1.08-1.08 1.08-1.08-1.08 1.08-1.08zM133.572 29.4l1.827 1.828-2.158 2.158-1.827-1.828 2.158-2.158zm1.827 1.828c1.474 1.474 3.965 2 7.12 1.24 3.126-.754 6.644-2.735 9.737-5.83l2.16 2.158c-3.425 3.425-7.424 5.73-11.18 6.638-3.727.9-7.485.462-9.995-2.048l2.158-2.158zm16.858-4.6c3.094-3.094 5.075-6.612 5.83-9.738.76-3.156.234-5.647-1.24-7.12l2.158-2.158c2.5 2.5 2.947 6.268 2.048 9.995-.907 3.756-3.213 7.755-6.638 11.18l-2.16-2.158zm4.59-16.858l-1.836-1.836 2.158-2.158 1.836 1.836-2.158 2.158zm.322-1.836h0l-2.158-2.158 2.158 2.158zm-2.158 0l2.158-2.158-2.158 2.158zm0 0c-1.474-1.474-3.965-2-7.12-1.24-3.126.755-6.644 2.735-9.737 5.83l-2.16-2.158c3.425-3.425 7.424-5.73 11.18-6.638 3.727-.9 7.485-.462 9.995 2.048l-2.158 2.158zm-16.858 4.6c-3.094 3.094-5.075 6.612-5.83 9.738-.76 3.156-.234 5.647 1.24 7.12l-2.158 2.158c-2.5-2.5-2.947-6.268-2.048-9.995.907-3.757 3.213-7.755 6.638-11.18l2.16 2.158zm-4.59 16.858l-2.147 2.17 2.147-2.17z" mask="url(#F)" class="E"/><path d="M134.32 32.297c3.984 3.984 12.498 1.93 19.016-4.6s8.574-15.033 4.59-19.016l-1.836-1.836-23.607 23.607 1.836 1.836z" class="F"/><path d="M132.484 30.46c3.984 3.984 12.498 1.93 19.017-4.6s8.573-15.033 4.6-19.016-12.498-1.93-19.017 4.6-8.573 15.033-4.6 19.016z" class="G"/></g><g opacity=".9" clip-path="url(#N)"><g fill="#606063"><ellipse rx="21.862" ry="10.37" transform="matrix(-.868567 -.495572 -.495572 .868567 43.2321 65.8737)"/><path d="M59.823 78.89l8.723-5.35-44.793-25.557-.063 10.3L59.823 78.89z"/><path d="M25.924 50.293L4.46 38.046a1.02 1.02 0 0 0-1.418.424l-1.194 2.346c-.608 1.195-.2 2.656.96 3.348l22.208 13.38.91-7.252z"/></g><ellipse rx="26.346" ry="12.052" transform="matrix(-.868567 -.495572 -.495572 .868567 47.3991 58.5707)" fill="url(#J)"/><g stroke-width="1.022"><path d="M62.85 74.837c.718-5.118-5.203-12.678-14.478-17.97s-18.797-6.543-22.837-3.32" stroke="#606063"/><path d="M24.96 45.768c-1.5 2.61-.587 6.45 2.45 10.675 3.008 4.185 8 8.575 14.27 12.153s12.59 5.64 17.723 6.1c5.183.465 8.946-.71 10.436-3.322s.587-6.45-2.45-10.675c-3.008-4.185-8-8.575-14.27-12.153s-12.59-5.64-17.723-6.1c-5.183-.465-8.946.71-10.436 3.322z" stroke="#979797"/></g><path d="M22.89 48.033l-.168 8.93" stroke="url(#K)" stroke-width="1.515"/><mask id="G" maskUnits="userSpaceOnUse" x="-3.288" y="35.589" width="78.114" height="47.854" class="C"><path d="M-3.288 35.59h78.114v47.854H-3.288z" class="B"/><path d="M38.093 74.88c-9.214-5.257-15.12-12.752-14.492-17.87.022-.178-.057-.353-.21-.446L2.806 44.163c-1.148-.692-1.567-2.153-.96-3.348L3.04 38.47c.265-.52.91-.713 1.418-.424l19.107 10.902c.08.046.182-.012.182-.105a7.51 7.51 0 0 1 .004-.595l.002-.255c.09-.9.335-1.73.763-2.478 3.3-5.78 16.218-4.622 28.856 2.59s20.21 17.743 16.91 23.525a5.93 5.93 0 0 1-1.745 1.9l-.336.225-7.32 4.49c-4.068 3.174-13.55 1.91-22.788-3.36z" class="D"/></mask><path d="M38.093 74.88l.75-1.316-.75 1.316zM2.806 44.163l.782-1.298-.782 1.298zm-.96-3.348l1.35.687-1.35-.687zM3.04 38.47l-1.35-.687 1.35.687zm1.418-.424l-.75 1.316.75-1.316zm19.293 10.2l1.514.07.002-.03v-.03l-1.515-.01zm.764-2.732l1.316.75-1.316-.75zm28.856 2.59l.75-1.316-.75 1.316zm16.91 23.525l1.316.75-1.316-.75zm-2.08 2.124l-.792-1.292-.007.004-.007.004.806 1.283zm-.135.083l-.778-1.3-.007.004-.007.004.792 1.292zM60.88 78.24l-.792-1.292-.073.045-.067.052.932 1.195zm7.657-4.695l-.792-1.292.792 1.292zm-.001-.018l-.878-1.235.878 1.235zM23.753 47.992l1.515.01-1.515-.01zm-.187.955l-.75 1.316.75-1.316zm.203-.963l1.5.127-1.5-.127zm-.378 8.583l-.782 1.298.782-1.298zm-1.293.26c-.388 3.168 1.24 6.732 3.88 10.016 2.687 3.34 6.622 6.647 11.366 9.354l1.502-2.633c-4.47-2.55-8.094-5.62-10.506-8.62-2.46-3.058-3.47-5.8-3.233-7.748l-3.008-.37zM2.023 45.46l20.585 12.403 1.564-2.596L3.588 42.865 2.023 45.46zM.496 40.128a4.07 4.07 0 0 0 1.527 5.334l1.564-2.596a1.04 1.04 0 0 1-.39-1.363l-2.7-1.375zM1.7 37.782L.496 40.128l2.7 1.375 1.194-2.346-2.7-1.375zM5.2 36.73a2.54 2.54 0 0 0-3.519 1.053l2.7 1.375c-.128.25-.44.344-.684.205L5.2 36.73zM24.316 47.63L5.2 36.73 3.708 39.36l19.107 10.902 1.502-2.633zm-2.08.546a9.02 9.02 0 0 0-.005.715l3.03-.1c-.005-.163-.004-.32.003-.475l-3.028-.14zm0-.194l-.002.255 3.03.018.002-.255-3.03-.018zm.962-3.22c-.546.956-.85 2-.94 3.093l3.02.254c.058-.69.244-1.303.553-1.845L23.2 44.763zm30.923 2.023c-6.464-3.688-13.062-5.867-18.546-6.36-5.338-.48-10.255.616-12.377 4.336l2.633 1.502c1.176-2.062 4.368-3.278 9.474-2.82 4.96.445 11.14 2.45 17.315 5.973l1.502-2.633zM71.6 72.378c2.122-3.72.563-8.5-2.565-12.862-3.214-4.47-8.447-9.042-14.91-12.73L52.62 49.42c6.174 3.523 11.046 7.823 13.952 11.867 2.992 4.162 3.57 7.53 2.393 9.6l2.633 1.502zm-2.184 2.384c.893-.635 1.638-1.428 2.184-2.384l-2.633-1.502c-.31.542-.742 1.014-1.307 1.415l1.756 2.47zm-.42.28l.336-.206-1.584-2.584-.336.206 1.584 2.584zm-1.598-2.575l-.108.066 1.557 2.6.163-.1-1.612-2.567zm-5.722 7.064l7.185-4.406-1.584-2.584-7.185 4.406 1.584 2.584zm-24.33-3.335c4.757 2.714 9.617 4.42 13.87 5.03 4.177.598 8.08.176 10.603-1.792l-1.864-2.4c-1.546 1.206-4.418 1.74-8.31 1.182-3.816-.546-8.315-2.106-12.796-4.662l-1.502 2.633zm30.445-1.345a1.51 1.51 0 0 1-.041-2.599l1.584 2.584c.986-.605.963-2.044-.04-2.617l-1.502 2.633zm-.127-2.56c-.9.64-.844 2.006.127 2.56l1.502-2.633a1.51 1.51 0 0 1 .126 2.543l-1.756-2.47zM25.268 48a1.51 1.51 0 0 1-2.259 1.303l1.502-2.633c-1-.576-2.267.148-2.274 1.312l3.03.018zm-2.454 2.262a1.64 1.64 0 0 0 2.449-1.412l-3.03-.02c.007-1.066 1.16-1.73 2.084-1.202l-1.502 2.633zm.195-.96c.97.554 2.176-.093 2.27-1.193l-3.02-.254a1.51 1.51 0 0 1 2.253-1.185L23 49.304zm2.096 7.893c.1-.73-.234-1.507-.933-1.928l-1.564 2.596c-.393-.236-.557-.66-.51-1.037l3.008.37z" fill="url(#L)" mask="url(#G)"/><mask id="H" maskUnits="userSpaceOnUse" x="44.906" y="20.059" width="45.255" height="45.255" class="C"><path d="M44.906 20.06H90.16v45.255H44.906z" class="B"/><path d="M54.676 53.707c-3.984-3.984-1.93-12.498 4.6-19.016s15.033-8.574 19.016-4.6l1.836 1.836c3.984 3.984 1.93 12.498-4.6 19.016s-15.033 8.574-19.016 4.6l-1.836-1.836z" class="D"/></mask><path d="M78.282 30.1l-1.08 1.08 1.08-1.08zm1.836 1.836l1.08-1.08-1.08 1.08zm-24.363 20.69h0 0 0l-2.158 2.158 2.158-2.158zm4.6-16.858c-3.094 3.094-5.074 6.612-5.83 9.738-.762 3.156-.235 5.647 1.24 7.12l-2.158 2.158c-2.5-2.5-2.947-6.268-2.048-9.995.907-3.756 3.213-7.755 6.638-11.18l2.158 2.158zm16.858-4.6c-1.474-1.474-3.964-2-7.12-1.24-3.126.755-6.644 2.735-9.738 5.83l-2.158-2.158c3.425-3.425 7.423-5.73 11.18-6.638 3.727-.9 7.485-.462 9.995 2.048l-2.158 2.158zm0 0h0 0 0l2.158-2.158-2.158 2.158zm1.836 1.836l-1.836-1.836 2.158-2.158 1.836 1.836-2.158 2.158zm-4.6 16.858c3.094-3.094 5.075-6.612 5.83-9.738.762-3.156.235-5.647-1.24-7.12l2.158-2.158c2.5 2.5 2.947 6.268 2.048 9.995-.907 3.756-3.213 7.755-6.638 11.18l-2.158-2.158zm-16.858 4.6c1.474 1.474 3.964 2 7.12 1.24 3.126-.755 6.644-2.735 9.738-5.83l2.158 2.158c-3.425 3.425-7.423 5.73-11.18 6.638-3.727.9-7.485.462-9.995-2.048l2.158-2.158zm-1.836-1.836l1.836 1.836-2.158 2.158-1.836-1.836 2.158-2.158z" mask="url(#H)" class="E"/><path d="M56.512 55.543c3.984 3.984 12.498 1.93 19.016-4.6s8.574-15.033 4.6-19.016L78.282 30.1 54.675 53.707l1.836 1.836z" class="F"/><path d="M54.676 53.707c3.984 3.984 12.498 1.93 19.016-4.6s8.574-15.033 4.6-19.016-12.498-1.93-19.016 4.6-8.574 15.033-4.6 19.016z" class="G"/><mask id="I" maskUnits="userSpaceOnUse" x="83.638" y="-.619" width="45.255" height="45.255" class="C"><path d="M83.638-.62h45.255v45.255H83.638z" class="B"/><path d="M117.33 34.82l-.045.046c-3.984 3.984-12.498 1.93-19.016-4.6s-8.574-15.032-4.6-19.016h0l1.836-1.836c3.984-3.984 12.498-1.93 19.016 4.6s8.574 15.033 4.59 19.016l-1.79 1.8z" class="D"/></mask><path d="M117.33 34.82l-1.1-1.068.006-.006.005-.005 1.08 1.08zM93.68 11.26l1.08-1.08 1.08 1.08-1.08 1.08-1.08-1.08zm0 0l-1.08 1.08-1.08-1.08 1.08-1.08 1.08 1.08zm25.443 21.77l-1.08-1.08 1.08 1.08zm-2.915.757l.034-.035 2.18 2.136-.056.057-2.158-2.158zm-16.858-4.6c3.094 3.094 6.61 5.074 9.738 5.83 3.155.762 5.646.235 7.12-1.24l2.158 2.158c-2.5 2.5-6.268 2.947-9.995 2.048-3.756-.907-7.755-3.213-11.18-6.638l2.158-2.158zm-4.6-16.858c-1.474 1.474-2 3.964-1.24 7.12.755 3.126 2.735 6.644 5.83 9.738l-2.158 2.158c-3.425-3.425-5.73-7.423-6.638-11.18-.9-3.727-.463-7.485 2.047-9.995l2.158 2.158zm0-2.158h0L92.6 12.34l2.158-2.158zm1.836.322l-1.836 1.836L92.6 10.18l1.836-1.836 2.158 2.158zm16.858 4.6c-3.094-3.094-6.61-5.074-9.737-5.83-3.156-.762-5.647-.235-7.12 1.24l-2.158-2.158c2.5-2.5 6.268-2.947 9.995-2.048 3.756.907 7.755 3.213 11.18 6.638l-2.16 2.158zm4.6 16.858c1.474-1.474 2-3.964 1.24-7.12-.754-3.126-2.735-6.644-5.83-9.738l2.16-2.158c3.424 3.425 5.73 7.423 6.637 11.18.9 3.727.463 7.485-2.047 9.995l-2.16-2.158zm-1.8 1.8l1.8-1.8 2.16 2.158-1.79 1.8-2.158-2.158z" mask="url(#I)" class="E"/><path d="M119.122 33.03c3.983-3.984 1.928-12.498-4.6-19.016S99.5 5.44 95.515 9.424L93.68 11.26l23.607 23.606 1.836-1.836z" class="G"/><path d="M117.286 34.867c3.983-3.984 1.928-12.498-4.6-19.016s-15.033-8.574-19.017-4.6-1.93 12.498 4.6 19.016 15.033 8.574 19.017 4.6z" class="F"/><g fill="#aea0d6"><path opacity=".5" d="M30.174 14c-.1-.648-1.033-.648-1.13 0l-.585 3.838a.57.57 0 0 1-.479.48l-3.838.585c-.648.1-.648 1.033 0 1.13l3.838.585a.57.57 0 0 1 .479.48l.585 3.838c.1.648 1.033.648 1.13 0l.585-3.838a.57.57 0 0 1 .48-.48l3.838-.585c.648-.1.648-1.033 0-1.13l-3.838-.585a.57.57 0 0 1-.48-.48L30.174 14zm83.323 39.292c-.1-.648-1.033-.648-1.132 0l-.585 3.838a.57.57 0 0 1-.479.48l-3.838.585c-.648.1-.648 1.033 0 1.132l3.838.585a.57.57 0 0 1 .479.48l.585 3.838c.1.648 1.033.648 1.132 0l.584-3.838c.038-.248.232-.442.48-.48l3.838-.585c.648-.1.648-1.033 0-1.132l-3.838-.585c-.248-.038-.442-.232-.48-.48l-.584-3.838zM53.202 4.853c.1-.648 1.033-.648 1.13 0l.192 1.263a.57.57 0 0 0 .48.48l1.262.192c.648.1.648 1.033 0 1.132l-1.262.192a.57.57 0 0 0-.48.48l-.192 1.263c-.1.648-1.033.648-1.13 0L53 8.6a.57.57 0 0 0-.48-.48l-1.263-.192c-.648-.1-.648-1.033 0-1.132l1.263-.192a.57.57 0 0 0 .48-.48l.192-1.263z"/></g></g><defs><linearGradient id="J" x1="26.346" y1="0" x2="26.346" y2="24.104" gradientUnits="userSpaceOnUse"><stop stop-color="#404042"/><stop offset="1" stop-color="#48484b"/></linearGradient><linearGradient id="K" x1="24.763" y1="49.115" x2="20.851" y2="55.879" gradientUnits="userSpaceOnUse"><stop stop-color="#404042"/><stop offset="1" stop-color="#48484b"/></linearGradient><linearGradient id="L" x1="37.494" y1="40.594" x2="34.465" y2="78.417" gradientUnits="userSpaceOnUse"><stop stop-color="#404042"/><stop offset="1" stop-color="#48484b"/></linearGradient><clipPath id="M"><path transform="translate(125 .331)" d="M0 0h125v82.707H0z" class="B"/></clipPath><clipPath id="N"><path transform="translate(0 .331)" d="M0 0h125v82.707H0z" class="B"/></clipPath></defs></svg> 
