<svg xmlns="http://www.w3.org/2000/svg" xmlns:xlink="http://www.w3.org/1999/xlink" width="48" height="48" fill="none" xmlns:v="https://vecta.io/nano"><style><![CDATA[.B{fill-rule:evenodd}.C{fill:#606063}.D{fill:#612f01}.E{fill:#fedc90}.F{fill:#d1884f}.G{stroke-width:1.339}]]></style><g clip-path="url(#F)"><g class="C"><path d="M16.614 33.77c-.872 3.333 4.117 7.526 11.144 9.366s13.43.628 14.303-2.706-4.117-7.526-11.144-9.366-13.43-.628-14.303 2.706z"/><path d="M41 42.07l4.233-4.47-30.015-7.855 1.57 5.988L41 42.07z"/><path d="M16.85 30.748L2.92 27.103a1.06 1.06 0 0 0-1.307.807l-.016.076c-.288 1.362.526 2.714 1.863 3.098l13.994 4.02-.603-4.356z"/></g><path d="M15.285 28.192c-1.014 3.874 5.03 8.81 13.498 11.027s16.156.872 17.17-3-5.03-8.81-13.498-11.027-16.156-.872-17.17 3.002z" fill="url(#A)"/><g class="B"><path d="M38.4 35.033c1.94 1.426 3.045 2.95 3.21 4.275l1.053-.13c-.218-1.76-1.613-3.514-3.634-5-2.042-1.502-4.815-2.8-7.976-3.63s-6.215-1.053-8.73-.744c-2.49.306-4.564 1.15-5.617 2.58l.854.63c.792-1.075 2.503-1.862 4.892-2.155 2.362-.3 5.28-.082 8.334.717s5.7 2.047 7.616 3.457z" class="C"/><path d="M19.15 33.506c-2.38-1.944-3.176-3.755-2.838-5.045s1.92-2.48 4.945-3.008c2.925-.51 6.808-.314 10.93.764s7.602 2.808 9.902 4.687c2.38 1.944 3.176 3.755 2.838 5.045s-1.92 2.48-4.945 3.008c-2.925.51-6.808.314-10.93-.764s-7.602-2.808-9.902-4.687zm9.634 5.714c-8.47-2.216-14.512-7.153-13.498-11.027s8.7-5.218 17.17-3 14.512 7.153 13.498 11.027-8.7 5.218-17.17 3.002z" fill="#979797"/><path d="M15.1 35.755L13.646 29.9l1.528-.4 1.454 5.864-1.528.41z" fill="url(#B)"/><path d="M15.358 30.245l-.035-.12-.055-.224-.04-.15c-.052-.342-.07-.667-.042-.986l.007-.076c.018-.167.048-.333.09-.497 1.038-3.878 8.714-5.214 17.17-3s14.493 7.138 13.503 11.01c-.136.518-.377.976-.718 1.4l-.165.188-3.553 3.752c-1.87 2.478-7.574 3.225-13.764 1.605-6.088-1.593-10.647-4.953-11.19-7.99-.033-.183-.16-.34-.337-.4L3.46 31.084c-1.337-.384-2.15-1.737-1.863-3.098l.016-.076a1.06 1.06 0 0 1 1.307-.807l12.35 3.232c.055.014.104-.036.1-.1zm-1.698-1.957L3.317 25.58c-1.455-.38-2.933.532-3.244 2.004l-.016.076c-.458 2.17.837 4.323 2.968 4.935l12.16 3.494c.576 1.85 2.112 3.52 3.98 4.868 2.15 1.55 4.994 2.862 8.196 3.7 3.254.852 6.428 1.096 9.09.774 2.545-.307 4.937-1.176 6.27-2.878l3.66-3.866a1.62 1.62 0 0 0 .194-.249c.413-.538.724-1.147.9-1.82.758-2.896-1.183-5.68-3.72-7.752-2.654-2.17-6.5-4.044-10.902-5.196s-8.673-1.4-12.05-.81c-3.226.564-6.282 2.04-7.04 4.936-.043.164-.077.33-.103.494z" fill="url(#C)"/></g><circle cx="26.063" cy="11.438" fill="url(#D)" r="9.638"/><path d="M19.803 12.497l-.002.108a2.36 2.36 0 0 0 .035.406H19.8v.2c0 .102.007.204.02.304.255 1.958 2.953 3.5 6.243 3.5s5.988-1.54 6.243-3.5c.013-.1.02-.202.02-.304v-.2h-.035a2.35 2.35 0 0 0 .035-.405l-.002-.108c-.095-2.05-2.86-3.694-6.26-3.694s-6.166 1.644-6.26 3.694zm-.514 0c.047-1.25.896-2.302 2.08-3.02 1.226-.745 2.888-1.188 4.695-1.188s3.47.444 4.695 1.188c1.183.718 2.033 1.77 2.08 3.02h.002v.724c0 1.3-.865 2.39-2.082 3.128-1.226.745-2.888 1.188-4.695 1.188s-3.47-.444-4.695-1.188c-1.217-.74-2.082-1.83-2.082-3.128v-.724h.002z" class="B C"/><path d="M32.326 13.22c0 2.1-2.804 3.803-6.263 3.803S19.8 15.32 19.8 13.22v-.602h12.526v.602z" fill="#bebebe"/><path d="M32.326 12.606c0 2.1-2.804 3.803-6.263 3.803S19.8 14.706 19.8 12.606s2.804-3.803 6.263-3.803 6.263 1.703 6.263 3.803z" fill="#f5f3f3"/><path d="M20.764 11.532c0 .18.025.35.073.514h-.073v.223c0 .098.008.195.024.29.24 1.446 2.236 2.575 4.665 2.575s4.427-1.13 4.665-2.575c.016-.096.024-.193.024-.29v-.223h-.073c.047-.16.072-.325.073-.493v-.02c-.006-1.58-2.103-2.86-4.69-2.86s-4.683 1.28-4.69 2.86zm-.514 0h0v.737c0 1.038.686 1.895 1.62 2.465.942.575 2.2.915 3.584.915s2.642-.34 3.584-.915c.933-.57 1.62-1.427 1.62-2.465v-.713c0-1.054-.686-1.91-1.62-2.48-.942-.576-2.2-.915-3.584-.915s-2.642.34-3.584.915c-.93.57-1.616 1.423-1.62 2.458z" class="B D"/><path d="M30.143 12.268c0 1.583-2.1 2.866-4.69 2.866s-4.69-1.283-4.69-2.866v-.672h9.378v.672z" class="E"/><use xlink:href="#G" class="F"/><path d="M22.177 10c0 .18.025.35.073.514h-.073v.223c0 .098.008.195.024.29.24 1.446 2.236 2.574 4.665 2.574s4.427-1.13 4.665-2.574c.016-.096.024-.193.024-.29v-.223h-.073c.047-.16.072-.325.073-.493V10c-.006-1.58-2.103-2.86-4.69-2.86S22.183 8.4 22.177 10zm-.514 0h0v.737c0 1.038.686 1.895 1.62 2.465.942.575 2.2.915 3.584.915s2.642-.34 3.584-.915c.933-.57 1.62-1.427 1.62-2.465v-.713c0-1.054-.686-1.91-1.62-2.48-.942-.576-2.2-.915-3.584-.915s-2.642.34-3.584.915c-.93.57-1.616 1.423-1.62 2.458z" class="B D"/><path d="M31.556 10.726c0 1.583-2.1 2.866-4.69 2.866s-4.69-1.283-4.69-2.866v-.672h9.38v.672z" class="E"/><path d="M31.556 9.997c0 1.583-2.1 2.866-4.69 2.866s-4.69-1.283-4.69-2.866 2.1-2.866 4.69-2.866 4.69 1.283 4.69 2.866z" class="F"/><path d="M20.764 8.448c0 .18.025.35.073.514h-.073v.223c0 .098.008.195.024.29.24 1.446 2.236 2.574 4.665 2.574s4.427-1.128 4.665-2.574c.016-.096.024-.193.024-.29v-.223h-.073c.047-.16.072-.325.073-.493v-.02c-.006-1.58-2.103-2.86-4.69-2.86s-4.683 1.28-4.69 2.86zm-.514 0h0v.737c0 1.038.686 1.895 1.62 2.465.942.575 2.2.915 3.584.915s2.642-.34 3.584-.915c.933-.57 1.62-1.427 1.62-2.465V8.47c0-1.054-.686-1.91-1.62-2.48-.942-.576-2.2-.915-3.584-.915s-2.642.34-3.584.915c-.93.57-1.616 1.423-1.62 2.458z" class="B D"/><path d="M30.143 9.185c0 1.583-2.1 2.866-4.69 2.866s-4.69-1.283-4.69-2.866v-.672h9.378v.672z" class="E"/><path d="M30.143 8.455c0 1.583-2.1 2.866-4.69 2.866s-4.69-1.283-4.69-2.866 2.1-2.866 4.69-2.866 4.69 1.283 4.69 2.866z" class="F"/><g class="B"><path d="M21.873 8.633c0 .528.384 1.002 1 1.32l-.42.727v1.84a.44.44 0 1 0 .881 0v-1.463l.45-.782c.29.06.6.095.92.095 1.56 0 2.824-.777 2.824-1.736s-1.264-1.736-2.824-1.736-2.824.777-2.824 1.736z" fill="url(#E)"/><path d="M22.863 9.954l-.193-.11c-.493-.313-.797-.74-.797-1.21 0-.96 1.264-1.736 2.824-1.736s2.824.777 2.824 1.736-1.264 1.736-2.824 1.736c-.323 0-.633-.033-.92-.095l-.452.782v1.463a.44.44 0 1 1-.881 0v-1.84l.42-.727zm-.87.735v1.832a.89.89 0 1 0 1.78 0v-1.343l.234-.406c.223.03.453.047.69.047.85 0 1.64-.21 2.232-.575.585-.36 1.04-.917 1.04-1.61s-.456-1.25-1.04-1.61c-.593-.364-1.383-.575-2.232-.575s-1.64.21-2.232.575c-.585.36-1.04.917-1.04 1.61 0 .61.35 1.11.833 1.47l-.2.347a.45.45 0 0 0-.045.103c-.013.044-.02.1-.018.135z" fill="#633001"/></g><g fill="#9e7200"><path d="M22.755 7.902c0 .497.633.9 1.413.9s1.413-.403 1.413-.9-.633-.9-1.413-.9-1.413.403-1.413.9z"/><path d="M22.755 7.517h2.826v.385h-2.826v-.385z"/></g><path d="M22.755 7.517c0 .497.633.9 1.413.9s1.413-.403 1.413-.9-.633-.9-1.413-.9-1.413.403-1.413.9z" fill="#f0b90b"/><path d="M23.633 7.408l.398-.253c.084-.054.192-.054.276 0l.398.253c.08.05.08.166 0 .217l-.398.253c-.084.054-.192.054-.276 0l-.398-.253c-.08-.05-.08-.166 0-.217z" fill="#9e7200"/><path d="M22.928 6.5c.338-.215.778-.334 1.24-.334s.902.118 1.24.334c.333.212.622.56.622 1.015v.385c0 .455-.29.803-.622 1.015-.338.215-.778.334-1.24.334s-.902-.118-1.24-.334c-.333-.212-.622-.56-.622-1.015v-.385c0-.455.29-.803.622-1.015zm1.24.116c-.78 0-1.413.403-1.413.9v.385c0 .497.633.9 1.413.9s1.413-.403 1.413-.9v-.385c0-.497-.633-.9-1.413-.9z" fill="#633001" class="B"/><g style="mix-blend-mode:multiply" opacity=".4" class="G"><use xlink:href="#H" stroke="#191326"/></g><circle cx="36.237" cy="22.683" fill="#f0b90b" r="9.638"/><path d="M32.643 22.683l-1.475 1.485-1.485-1.485 1.485-1.485 1.475 1.485zm3.594-3.594l2.54 2.54 1.485-1.485-2.54-2.53-1.485-1.485-4.014 4.014 1.485 1.485 2.53-2.54zm5.07 2.1l-1.475 1.485 1.485 1.485 1.475-1.485-1.485-1.485zm-5.07 5.08l-2.54-2.54-1.475 1.485 4.014 4.014 4.025-4.025-1.485-1.475-2.54 2.54zm0-2.1l1.485-1.485-1.485-1.485-1.485 1.485 1.485 1.485z" fill="#fffdfa"/><g style="mix-blend-mode:multiply" opacity=".4" class="G"><path d="M45.206 22.683a8.97 8.97 0 0 1-8.969 8.969 8.97 8.97 0 0 1-8.969-8.969 8.97 8.97 0 0 1 8.969-8.969 8.97 8.97 0 0 1 8.969 8.969z" stroke="#191326"/></g></g><defs><linearGradient id="A" x1="32.455" y1="25.191" x2="28.784" y2="39.22" xlink:href="#I"><stop stop-color="#404042"/><stop offset="1" stop-color="#48484b"/></linearGradient><linearGradient id="B" x1="15.924" y1="29.681" x2="14.35" y2="35.554" xlink:href="#I"><stop stop-color="#404042"/><stop offset="1" stop-color="#48484b"/></linearGradient><linearGradient id="C" x1="21.956" y1="21.885" x2="26.644" y2="47.274" xlink:href="#I"><stop stop-color="#404042"/><stop offset="1" stop-color="#48484b"/></linearGradient><linearGradient id="D" x1="26.063" y1="1.8" x2="26.063" y2="21.077" xlink:href="#I"><stop stop-color="#54dade"/><stop offset=".762" stop-color="#24c7d6"/></linearGradient><linearGradient id="E" x1="24.727" y1="6.955" x2="24.727" y2="12.915" xlink:href="#I"><stop stop-color="#9f4a08"/><stop offset=".37" stop-color="#7d3900"/><stop offset="1" stop-color="#8d4104"/></linearGradient><clipPath id="F"><path fill="#fff" d="M0 0h48v48H0z"/></clipPath><path id="G" d="M30.143 11.54c0 1.583-2.1 2.866-4.69 2.866s-4.69-1.283-4.69-2.866 2.1-2.866 4.69-2.866 4.69 1.283 4.69 2.866z"/><path id="H" d="M35.032 11.438a8.97 8.97 0 0 1-8.969 8.969 8.97 8.97 0 0 1-8.969-8.969 8.97 8.97 0 0 1 8.969-8.969 8.97 8.97 0 0 1 8.969 8.969z"/><linearGradient id="I" gradientUnits="userSpaceOnUse"/></defs></svg>