<?xml version="1.0" encoding="UTF-8"?>
<svg width="699px" height="182px" viewBox="0 0 699 182" version="1.1" xmlns="http://www.w3.org/2000/svg" xmlns:xlink="http://www.w3.org/1999/xlink">
    <title>pool-header</title>
    <defs>
        <polygon id="path-1" points="3.87030815e-14 0 453.759699 0 453.759699 13.2840699 3.87030815e-14 13.2840699"></polygon>
        <path d="M24.8626226,0 C28.8494091,1.5156061 27.9978235,6.57608793 27.7544867,6.99670596 C21.6925261,17.4951713 15.0763397,20.7335661 4.48978831,23.2656735 L4.48978831,23.2656735 L2.04158475,27 C0.878550431,25.8152328 0.691102702,25.4245723 -2.12148726e-14,23.8709827 C0.713682269,22.628167 1.69477379,21.5625765 3.38413595,20.9666932" id="path-3"></path>
        <polygon id="path-5" points="0 0 52 0 52 35 0 35"></polygon>
        <path d="M52,0 L52,35 L8.82679255,35 L8.69286519,34.99892 C3.88200191,34.9215892 0,31.0311465 0,26.249674 L0,8.74995343 C0,3.92064899 3.96082228,0 8.83893019,0" id="path-7"></path>
        <polygon id="path-9" points="2.1427877e-14 -2.05349281e-14 26 -2.05349281e-14 26 15 2.1427877e-14 15"></polygon>
        <polygon id="path-11" points="0 2.18976759e-14 43 2.18976759e-14 43 13 0 13"></polygon>
    </defs>
    <g id="Page-1" stroke="none" stroke-width="1" fill="none" fill-rule="evenodd">
        <g id="header-02" transform="translate(0.298304, 0.000000)">
            <g id="Group-18">
                <g id="Group-13" transform="translate(44.701696, 0.000000)" fill="#4B6563">
                    <path d="M653.2818,0 L51.088201,0 C22.8919617,0 0,22.8667813 0,51.0324046 C0,79.1977526 22.8919617,102.064488 51.088201,102.064488 L653.2818,102.064488 L653.2818,0 Z" id="Fill-2"></path>
                </g>
                <g id="iStock-1291774301" transform="translate(0.000000, 70.023471)">
                    <path d="M136.934981,42.7739501 C136.934981,32.049028 128.21812,23.3415324 117.481282,23.3415324 L19.4536992,23.3415324 C8.71686136,23.3415324 0,32.049028 0,42.7739501 C0,53.4991273 8.71686136,62.2065378 19.4536992,62.2065378 L117.481282,62.2065378 C128.21812,62.2065378 136.934981,53.4991273 136.934981,42.7739501" id="Fill-11" fill="#70C397"></path>
                    <path d="M697.986548,111.976529 C698.027145,111.976529 698.004262,13.0646439 697.983496,13.0646439 L134.87228,13.0646439 C104.295008,13.0646439 79.4705067,35.2253059 79.4705067,62.5206715 C79.4705067,89.816207 104.295008,111.976529 134.87228,111.976529 L697.986548,111.976529 Z" id="Fill-12" fill="#5F8B6E"></path>
                    <g id="Group-32" transform="translate(232.059929, 0.000000)">
                        <mask id="mask-2" fill="white">
                            <use xlink:href="#path-1"></use>
                        </mask>
                        <g id="Clip-31"></g>
                    </g>
                </g>
            </g>
            <g id="iStock-1280293781" transform="translate(157.701696, 14.000000)">
                <path d="M163,108.499906 C163,96.6339188 153.387728,87 141.548157,87 L33.4519364,87 C21.6122718,87 12,96.6339188 12,108.499906 C12,120.366175 21.6122718,130 33.4519364,130 L141.548157,130 C153.387728,130 163,120.366175 163,108.499906" id="Fill-11" fill="#779D7B"></path>
                <path d="M251,100.499955 C251,99.1204692 249.825025,98 248.377805,98 L185.622195,98 C184.175069,98 183,99.1204692 183,100.499955 C183,101.879531 184.175069,103 185.622195,103 L248.377805,103 C249.825025,103 251,101.879531 251,100.499955" id="Fill-13" fill="#70C397"></path>
                <path d="M247,120.5 C247,119.120449 245.82502,118 244.377607,118 L181.622018,118 C180.174792,118 179,119.120449 179,120.5 C179,121.879551 180.174792,123 181.622018,123 L244.377607,123 C245.82502,123 247,121.879551 247,120.5" id="Fill-14" fill="#70C397"></path>
                <path d="M226,111.500358 C226,110.119984 224.825025,109 223.377805,109 L160.622195,109 C159.175163,109 158,110.119984 158,111.500358 C158,112.879748 159.175163,114 160.622195,114 L223.377805,114 C224.825025,114 226,112.879748 226,111.500358" id="Fill-15" fill="#70C397"></path>
                <g id="Group-20" transform="translate(79.000000, 21.000000)" fill="#70C397">
                    <path d="M99,20 C99,20 111.167612,23.1513845 105.490968,33 C105.490874,33 99.5949121,28.0280762 99,20" id="Fill-16"></path>
                    <path d="M100,21.0059244 C100,21.0059244 87.1410935,20.4541726 89.2293568,30 C89.2293568,30 96.6507735,27.4407737 100,21.0059244" id="Fill-17"></path>
                    <path d="M100,21 C100,21 95.6013092,14.260141 87,20.9848056 C87,20.9848056 95.6328209,20.9077929 100,21" id="Fill-18"></path>
                    <path d="M99,19.9527822 C99,19.9527822 106.590357,15.7494692 112,25 C112,25 103.407799,21.5724118 99,19.9527822" id="Fill-19"></path>
                    <path d="M99,20.996448 C99,20.996448 103.801479,21.3088958 107,16.0729877 C107,16.0729877 101.175361,15.0101035 99,20.996448" id="Fill-20"></path>
                    <path d="M99.2908795,21 C99.2908795,21 101.683551,16.482953 97.6787778,13 C97.6787778,13 95.3611896,17.3752554 99.2908795,21" id="Fill-21"></path>
                    <path d="M98.9254743,21.0190121 C99.5520634,20.2727033 96.3018558,41.7043842 86.3494741,49 L84,48.8880723 C84,48.8880723 92.2736226,44.0925165 98.9254743,21.0190121" id="Fill-22"></path>
                    <path d="M365,24 C365,24 374.432835,24.8558854 371.398494,33 C371.398494,33 366.411718,29.9853402 365,24" id="Fill-23"></path>
                    <path d="M365,24 C365,24 355.726956,25.0756175 358.526767,33 C358.526767,33 363.484818,29.9143034 365,24" id="Fill-24"></path>
                    <path d="M366,23.4940771 C366,23.4940771 362.201567,19.2831574 357,25 C357,25 362.967195,23.9391471 366,23.4940771" id="Fill-25"></path>
                    <path d="M366,24.0549806 C366,24.0549806 370.429525,20.6812786 375,26 C375,26 369.0413,24.65655 366,24.0549806" id="Fill-26"></path>
                    <path d="M365,24 C365,24 368.413665,23.6677926 370,19.0005031 C370,19.0005031 365.77301,18.8450309 365,24" id="Fill-27"></path>
                    <path d="M364.730065,24 C364.730065,24 366.205979,19.5243146 362.25554,17 C362.25554,17 360.825796,21.3349492 364.730065,24" id="Fill-28"></path>
                    <path d="M365.821719,24.0195928 C366.207771,23.3211871 366.583656,41.4800092 359.840434,48.7920405 L358,49 C358,49 363.777945,43.9722146 365.821719,24.0195928" id="Fill-29"></path>
                    <path d="M72,10.0147608 C72,10.0147608 88.0845029,9.03686622 85.7727,23 C85.7727,23 76.3980619,19.3634946 72,10.0147608" id="Fill-30"></path>
                    <path d="M73,8 C73,8 55.995471,12.2693665 64.2708511,25 C64.2708511,25 72.4069456,18.4505018 73,8" id="Fill-31"></path>
                    <path d="M73,8.79734129 C73,8.79734129 64.4408851,2.30451968 57,14 C57,14 67.5849116,10.439022 73,8.79734129" id="Fill-32"></path>
                    <path d="M72,9.41613519 C72,9.41613519 78.9450625,0.763257279 90,11 C90,11 78.0576098,9.82941046 72,9.41613519" id="Fill-33"></path>
                    <path d="M72.0166851,9 C72.0166851,9 77.8338478,7.63624339 79,0 C78.9999022,0 71.6035424,0.809051398 72.0166851,9" id="Fill-34"></path>
                    <path d="M72.9421105,9 C72.9421105,9 74.1004828,2.54551413 66.053822,0 C66.053822,0 64.9310147,6.25166872 72.9421105,9" id="Fill-35"></path>
                    <path d="M72.7748974,9.03776817 C73.2101963,7.79548132 80.6976217,37.5179572 71.2482571,51.2011986 L68,52 C68,52 76.5602024,42.3080337 72.7748974,9.03776817" id="Fill-36"></path>
                    <path d="M124,10.0147608 C124,10.0147608 140.084755,9.03686622 137.772646,23 C137.772646,23 128.398311,19.3634946 124,10.0147608" id="Fill-37"></path>
                    <path d="M123,8 C123,8 105.995393,12.2693665 114.270908,25 C114.270908,25 122.406738,18.4505018 123,8" id="Fill-38"></path>
                    <path d="M123,8.79734129 C123,8.79734129 114.441368,2.30451968 107,14 C107,14 117.584785,10.439022 123,8.79734129" id="Fill-39"></path>
                    <path d="M123,9.41613519 C123,9.41613519 129.945062,0.763257279 141,11 C141,11 129.057237,9.82941046 123,9.41613519" id="Fill-40"></path>
                    <path d="M123.016714,9 C123.016714,9 128.833494,7.63624339 130,0 C130,0 122.603193,0.809051398 123.016714,9" id="Fill-41"></path>
                    <path d="M122.942078,9 C122.942078,9 124.100721,2.54551413 116.053877,0 C116.053877,0 114.930587,6.25166872 122.942078,9" id="Fill-42"></path>
                    <path d="M122.774338,9.03776817 C123.21025,7.79548132 130.697752,37.5179572 121.248087,51.2011986 L118,52 C118,52 126.559681,42.3080337 122.774338,9.03776817" id="Fill-43"></path>
                    <path d="M341,10.6512473 C341,10.6512473 357.382572,6.11231725 358,21 C358,21 347.546982,19.3130915 341,10.6512473" id="Fill-44"></path>
                    <path d="M340.748422,9 C340.748422,9 326.709294,16.7673678 336.425969,28 C336.425969,28 342.265461,19.7144964 340.748422,9" id="Fill-45"></path>
                    <path d="M341,9.75258487 C341,9.75258487 331.712875,5.31291635 327,18 C327,18 336.23851,12.4295289 341,9.75258487" id="Fill-46"></path>
                    <path d="M341,10 C341,10 346.108545,0.435015688 359,7.7639228 C359,7.7639228 347.03401,9.13569137 341,10" id="Fill-47"></path>
                    <path d="M340.381372,11 C340.381372,11 345.428074,8.55538466 344.970688,1 C344.970688,1 338.369838,3.22140892 340.381372,11" id="Fill-48"></path>
                    <path d="M341,10 C341,9.99990447 340.611608,3.13741178 333,2 C333,2 333.375468,8.64725762 341,10" id="Fill-49"></path>
                    <path d="M341,11.0442248 C341.143249,9.74476135 354.387879,37.3959955 348.485621,52.5957806 L345.631824,54 C345.631824,54 351.549516,42.8758992 341,11.0442248" id="Fill-50"></path>
                    <path d="M45.8465599,17 C45.8465599,17 33.6765695,22.1211263 41.7876677,31 C41.7876677,31 46.9447897,25.0894485 45.8465599,17" id="Fill-51"></path>
                    <path d="M45,16.0370192 C45,16.0370192 59.5107315,14.7741861 57.8707735,27 C57.8707735,27 49.2783189,24.0708287 45,16.0370192" id="Fill-52"></path>
                    <path d="M46,18 C46,18 49.0329706,10.6484958 59,15.8781041 C59,15.8781041 50.3496248,17.2019893 46,18" id="Fill-53"></path>
                    <path d="M45,17.7897095 C45,17.7897095 36.7381291,13.7352486 32,24 C32,24 40.583276,19.7966106 45,17.7897095" id="Fill-54"></path>
                    <path d="M46,16.7594545 C45.9999057,16.7594545 41.977691,18.5993669 38,12.1020198 C38,12.1020198 41.6510276,10.8984152 46,16.7594545" id="Fill-55"></path>
                    <path d="M45.7790495,17 C45.7790495,16.9999112 41.9231362,15.1254331 45.5647339,9 C45.5647339,9 48.6460786,10.9411033 45.7790495,17" id="Fill-56"></path>
                    <path d="M45,18 C45,18 52.8450375,39.9336568 64.1499951,46 L68,45.9923846 C68,45.9923846 57.7978962,42.1283877 45,18" id="Fill-57"></path>
                    <path d="M433,51.0004414 C433,47.6883209 430.425667,45 427.254663,45 L5.7450548,45 C2.57405128,45 0,47.6883209 0,51.0004414 C0,54.3116791 2.57405128,57 5.7450548,57 L427.254663,57 C430.425667,57 433,54.3116791 433,51.0004414" id="Fill-58"></path>
                </g>
                <polyline id="Fill-59" fill="#346A0B" points="344.5 83 345 100 344 100 344.5 83"></polyline>
                <polyline id="Fill-60" fill="#346A0B" points="342.500259 86 343 99 342 99 342.500259 86"></polyline>
                <polyline id="Fill-61" fill="#346A0B" points="341.500252 83 342 100 341 100 341.500252 83"></polyline>
                <polyline id="Fill-62" fill="#346A0B" points="338.500098 86 339 99 338 99 338.500098 86"></polyline>
                <polyline id="Fill-63" fill="#346A0B" points="336.500036 83 337 100 336 100 336.500036 83"></polyline>
                <polyline id="Fill-64" fill="#346A0B" points="334.499712 83 335 100 334 100 334.499712 83"></polyline>
                <polyline id="Fill-65" fill="#346A0B" points="331.499935 86 332 99 331 99 331.499935 86"></polyline>
                <polyline id="Fill-66" fill="#346A0B" points="329.499892 83 330 100 329 100 329.499892 83"></polyline>
                <polyline id="Fill-67" fill="#346A0B" points="328.499707 86 329 99 328 99 328.499707 86"></polyline>
                <polyline id="Fill-68" fill="#346A0B" points="325.500288 83 326 100 325 100 325.500288 83"></polyline>
                <polyline id="Fill-69" fill="#346A0B" points="323.5 83 324 100 323 100 323.5 83"></polyline>
                <polyline id="Fill-70" fill="#346A0B" points="320.500065 86 321 99 320 99 320.500065 86"></polyline>
                <polyline id="Fill-71" fill="#346A0B" points="319.499712 83 320 100 319 100 319.499712 83"></polyline>
                <polyline id="Fill-72" fill="#346A0B" points="316.499902 86 317 99 316 99 316.499902 86"></polyline>
                <polyline id="Fill-73" fill="#346A0B" points="315.500036 83 316 100 315 100 315.500036 83"></polyline>
                <polyline id="Fill-74" fill="#346A0B" points="355.499676 82 356 99 355 99 355.499676 82"></polyline>
                <polyline id="Fill-75" fill="#346A0B" points="353.499806 86 354 99 353 99 353.499806 86"></polyline>
                <polyline id="Fill-76" fill="#346A0B" points="352.499964 82 353 99 352 99 352.499964 82"></polyline>
                <polyline id="Fill-77" fill="#346A0B" points="350.499902 86 351 99 350 99 350.499902 86"></polyline>
                <polyline id="Fill-78" fill="#346A0B" points="348.499748 82 349 99 348 99 348.499748 82"></polyline>
                <polyline id="Fill-79" fill="#346A0B" points="366.499856 82 367 99 366 99 366.499856 82"></polyline>
                <polyline id="Fill-80" fill="#346A0B" points="365.49987 86 366 99 365 99 365.49987 86"></polyline>
                <polyline id="Fill-81" fill="#346A0B" points="363.499964 82 364 99 363 99 363.499964 82"></polyline>
                <polyline id="Fill-82" fill="#346A0B" points="361.49961 86 362 99 361 99 361.49961 86"></polyline>
                <polyline id="Fill-83" fill="#346A0B" points="359.500324 82 360 99 359 99 359.500324 82"></polyline>
                <polyline id="Fill-84" fill="#346A0B" points="379.500396 82 380 99 379 99 379.500396 82"></polyline>
                <polyline id="Fill-85" fill="#346A0B" points="376.500324 86 377 99 376 99 376.500324 86"></polyline>
                <polyline id="Fill-86" fill="#346A0B" points="376.5 82 377 99 376 99 376.5 82"></polyline>
                <polyline id="Fill-87" fill="#346A0B" points="372.500195 86 373 99 372 99 372.500195 86"></polyline>
                <polyline id="Fill-88" fill="#346A0B" points="371.499964 82 372 99 371 99 371.499964 82"></polyline>
                <polyline id="Fill-89" fill="#346A0B" points="390.5 82 391 99 390 99 390.5 82"></polyline>
                <polyline id="Fill-90" fill="#346A0B" points="387.499935 86 388 99 387 99 387.499935 86"></polyline>
                <polyline id="Fill-91" fill="#346A0B" points="387.500036 82 388 99 387 99 387.500036 82"></polyline>
                <polyline id="Fill-92" fill="#346A0B" points="384.499707 86 385 99 384 99 384.499707 86"></polyline>
                <polyline id="Fill-93" fill="#346A0B" points="382.5 82 383 99 382 99 382.5 82"></polyline>
                <polyline id="Fill-94" fill="#346A0B" points="403.500036 82 404 99 403 99 403.500036 82"></polyline>
                <polyline id="Fill-95" fill="#346A0B" points="401.499806 86 402 99 401 99 401.499806 86"></polyline>
                <polyline id="Fill-96" fill="#346A0B" points="399.499964 82 400 99 399 99 399.499964 82"></polyline>
                <polyline id="Fill-97" fill="#346A0B" points="397.499805 86 398 99 397 99 397.499805 86"></polyline>
                <polyline id="Fill-98" fill="#346A0B" points="395.500252 82 396 99 395 99 395.500252 82"></polyline>
                <polyline id="Fill-99" fill="#346A0B" points="414.499748 82 415 99 414 99 414.499748 82"></polyline>
                <polyline id="Fill-100" fill="#346A0B" points="412.500065 86 413 99 412 99 412.500065 86"></polyline>
                <polyline id="Fill-101" fill="#346A0B" points="410.499964 82 411 99 410 99 410.499964 82"></polyline>
                <polyline id="Fill-102" fill="#346A0B" points="408.499805 86 409 99 408 99 408.499805 86"></polyline>
                <polyline id="Fill-103" fill="#346A0B" points="406.499748 82 407 99 406 99 406.499748 82"></polyline>
                <polyline id="Fill-104" fill="#346A0B" points="425.499856 82 426 99 425 99 425.499856 82"></polyline>
                <polyline id="Fill-105" fill="#346A0B" points="424.5 86 425 99 424 99 424.5 86"></polyline>
                <polyline id="Fill-106" fill="#346A0B" points="422.500036 82 423 99 422 99 422.500036 82"></polyline>
                <polyline id="Fill-107" fill="#346A0B" points="419.500195 86 420 99 419 99 419.500195 86"></polyline>
                <polyline id="Fill-108" fill="#346A0B" points="418.500036 82 419 99 418 99 418.500036 82"></polyline>
                <polyline id="Fill-109" fill="#346A0B" points="436.500432 82 437 99 436 99 436.500432 82"></polyline>
                <polyline id="Fill-110" fill="#346A0B" points="434.499806 86 435 99 434 99 434.499806 86"></polyline>
                <polyline id="Fill-111" fill="#346A0B" points="433.499964 82 434 99 433 99 433.499964 82"></polyline>
                <polyline id="Fill-112" fill="#346A0B" points="430.500195 86 431 99 430 99 430.500195 86"></polyline>
                <polyline id="Fill-113" fill="#346A0B" points="429.500324 82 430 99 429 99 429.500324 82"></polyline>
                <polyline id="Fill-114" fill="#346A0B" points="447.499712 82 448 99 447 99 447.499712 82"></polyline>
                <polyline id="Fill-115" fill="#346A0B" points="445.5 86 446 99 445 99 445.5 86"></polyline>
                <polyline id="Fill-116" fill="#346A0B" points="444.49982 82 445 99 444 99 444.49982 82"></polyline>
                <polyline id="Fill-117" fill="#346A0B" points="442.499805 86 443 99 442 99 442.499805 86"></polyline>
                <polyline id="Fill-118" fill="#346A0B" points="440.500324 82 441 99 440 99 440.500324 82"></polyline>
                <polyline id="Fill-119" fill="#346A0B" points="471.499964 83 472 100 471 100 471.499964 83"></polyline>
                <polyline id="Fill-120" fill="#346A0B" points="468.499546 86 469 99 468 99 468.499546 86"></polyline>
                <polyline id="Fill-121" fill="#346A0B" points="466.5 83 467 100 466 100 466.5 83"></polyline>
                <polyline id="Fill-122" fill="#346A0B" points="464.499805 86 465 99 464 99 464.499805 86"></polyline>
                <polyline id="Fill-123" fill="#346A0B" points="462.49964 83 463 100 462 100 462.49964 83"></polyline>
                <polyline id="Fill-124" fill="#346A0B" points="482.5 83 483 100 482 100 482.5 83"></polyline>
                <polyline id="Fill-125" fill="#346A0B" points="480.500518 86 481 99 480 99 480.500518 86"></polyline>
                <polyline id="Fill-126" fill="#346A0B" points="477.499964 83 478 100 477 100 477.499964 83"></polyline>
                <polyline id="Fill-127" fill="#346A0B" points="476.5 86 477 99 476 99 476.5 86"></polyline>
                <polyline id="Fill-128" fill="#346A0B" points="474.500036 83 475 100 474 100 474.500036 83"></polyline>
                <polyline id="Fill-129" fill="#346A0B" points="497.499712 83 498 100 497 100 497.499712 83"></polyline>
                <polyline id="Fill-130" fill="#346A0B" points="494.500518 86 495 99 494 99 494.500518 86"></polyline>
                <polyline id="Fill-131" fill="#346A0B" points="493.499892 83 494 100 493 100 493.499892 83"></polyline>
                <polyline id="Fill-132" fill="#346A0B" points="491.499805 86 492 99 491 99 491.499805 86"></polyline>
                <polyline id="Fill-133" fill="#346A0B" points="488.500144 83 489 100 488 100 488.500144 83"></polyline>
                <polyline id="Fill-134" fill="#346A0B" points="509.500036 83 510 100 509 100 509.500036 83"></polyline>
                <polyline id="Fill-135" fill="#346A0B" points="506.500065 86 507 99 506 99 506.500065 86"></polyline>
                <polyline id="Fill-136" fill="#346A0B" points="505.500252 83 506 100 505 100 505.500252 83"></polyline>
                <polyline id="Fill-137" fill="#346A0B" points="503.499805 86 504 99 503 99 503.499805 86"></polyline>
                <polyline id="Fill-138" fill="#346A0B" points="501.499964 83 502 100 501 100 501.499964 83"></polyline>
                <polyline id="Fill-139" fill="#346A0B" points="520.499712 83 521 100 520 100 520.499712 83"></polyline>
                <polyline id="Fill-140" fill="#346A0B" points="518.5 86 519 99 518 99 518.5 86"></polyline>
                <polyline id="Fill-141" fill="#346A0B" points="517.499892 83 518 100 517 100 517.499892 83"></polyline>
                <polyline id="Fill-142" fill="#346A0B" points="514.499902 86 515 99 514 99 514.499902 86"></polyline>
                <polyline id="Fill-143" fill="#346A0B" points="513.500036 83 514 100 513 100 513.500036 83"></polyline>
                <polyline id="Fill-144" fill="#346A0B" points="532.5 83 533 100 532 100 532.5 83"></polyline>
                <polyline id="Fill-145" fill="#346A0B" points="530.5 86 531 99 530 99 530.5 86"></polyline>
                <polyline id="Fill-146" fill="#346A0B" points="528.500396 83 529 100 528 100 528.500396 83"></polyline>
                <polyline id="Fill-147" fill="#346A0B" points="525.499902 86 526 99 525 99 525.499902 86"></polyline>
                <polyline id="Fill-148" fill="#346A0B" points="524.500036 83 525 100 524 100 524.500036 83"></polyline>
                <polyline id="Fill-149" fill="#346A0B" points="459.5 82 460 99 459 99 459.5 82"></polyline>
                <polyline id="Fill-150" fill="#346A0B" points="457.5 86 458 99 457 99 457.5 86"></polyline>
                <polyline id="Fill-151" fill="#346A0B" points="455.499892 82 456 99 455 99 455.499892 82"></polyline>
                <polyline id="Fill-152" fill="#346A0B" points="453.499805 86 454 99 453 99 453.499805 86"></polyline>
                <polyline id="Fill-153" fill="#346A0B" points="450.500468 82 451 99 450 99 450.500468 82"></polyline>
                <path d="M463.026554,22 C463.771941,26.1637051 467.297775,29.1317588 470,32.2519152 L461.919069,34 C462.373152,31.3598016 461.263687,28.2816046 459,24.9503163 L463.026554,22" id="Fill-154" fill="#523226"></path>
                <path d="M457,16 L457.739458,26 L463.954565,24.3420681 C465.662208,21.9839759 466.414697,19.1822038 465.772594,16.1637289 L457,16" id="Fill-155" fill="#643F31"></path>
                <path d="M455,15 C455.058377,15.2304133 455.213466,18.2374146 461.557796,17.7525191 L462.340731,20.3611651 C462.427907,18.9758008 463.013041,18.8954807 463.289359,19.2714798 L464.038241,24 C465.963032,21.5620004 467.258324,18.3778621 466.95632,15.0272241 L455,15" id="Fill-156" fill="#1A0700"></path>
                <path d="M458.386019,79.361331 L454.55139,112.544739 C453.372424,114.265779 450.318655,112.268319 447,114.205933 L456.71644,115.999515 C456.777366,116.139729 464.394444,85.8687556 470,76 L458.386019,79.361331" id="Fill-157" fill="#523226"></path>
                <path d="M472,76.4684839 L488.216874,112.595483 C486.293861,114.736181 484.380629,112.841486 480.431671,115.459732 L493,116 C492.905172,115.781508 490.945737,109.059513 490.137744,106.576194 C485.531884,92.4152279 484.111515,83.8953435 482.653606,74 L472,76.4684839" id="Fill-158" fill="#643F31"></path>
                <path d="M484,2 C483.193653,10.4279961 472.240334,17 458.999953,17 C445.759573,17 434.806159,10.4279961 434,2 L484,2" id="Fill-159" fill="#895A0B"></path>
                <path d="M473,35.2054109 C473,35.2054109 468.594078,45.8418955 470.823627,56.9422651 L459.830168,61 C459.830168,61 452.466921,40.8920157 461.493944,32.177191 C461.493848,32.177191 472.122608,30.8996311 473,35.2054109" id="Fill-160" fill="#523226"></path>
                <path d="M466.848191,29.0690255 C464.344059,30.1587011 445.909439,48.760064 441.42088,5.90773014 L441.790162,1.6567124 C441.236859,0.281438212 438.081591,-1.0469229 436,1.23000004 L437.865501,6.64654088 C438.076151,5.55499249 438.495924,54.8155029 473,35.5093201 C473,35.5093201 472.39382,29.2747501 466.848191,29.0690255" id="Fill-161" fill="#643F31"></path>
                <path d="M460.005073,61.0229829 C463.792744,60.3308518 468.32228,58.531851 471.080929,57 C475.481756,59.4108659 484.179608,66.4202645 485,83.6173895 C476.422959,87.32862 467.482001,88.2556827 458,85.0389911 C458.403133,78.1886346 459.349168,68.7640868 460.005073,61.0229829" id="Fill-162" fill="#F6F7BE"></path>
                <polyline id="Fill-163" fill="#2D701D" points="531.500232 137 533 168 530 168 531.500232 137"></polyline>
                <polyline id="Fill-164" fill="#2D701D" points="527.999373 144 529 168 527 168 527.999373 144"></polyline>
                <polyline id="Fill-165" fill="#2D701D" points="525.499768 137 527 168 524 168 525.499768 137"></polyline>
                <polyline id="Fill-166" fill="#2D701D" points="519.999737 144 521 168 519 168 519.999737 144"></polyline>
                <polyline id="Fill-167" fill="#2D701D" points="517.500174 137 519 168 516 168 517.500174 137"></polyline>
                <polyline id="Fill-168" fill="#2D701D" points="450.5 137 452 168 449 168 450.5 137"></polyline>
                <polyline id="Fill-169" fill="#2D701D" points="447.000209 144 448 168 446 168 447.000209 144"></polyline>
                <polyline id="Fill-170" fill="#2D701D" points="444.499768 137 446 168 443 168 444.499768 137"></polyline>
                <polyline id="Fill-171" fill="#2D701D" points="439.999737 144 441 168 439 168 439.999737 144"></polyline>
                <polyline id="Fill-172" fill="#2D701D" points="435.500174 137 437 168 434 168 435.500174 137"></polyline>
                <polyline id="Fill-173" fill="#2D701D" points="531.500232 99 533 130 530 130 531.500232 99"></polyline>
                <polyline id="Fill-174" fill="#2D701D" points="527.999303 106 529 130 527 130 527.999303 106"></polyline>
                <polyline id="Fill-175" fill="#2D701D" points="525.500232 99 527 130 524 130 525.500232 99"></polyline>
                <polyline id="Fill-176" fill="#2D701D" points="519.99979 106 521 130 519 130 519.99979 106"></polyline>
                <polyline id="Fill-177" fill="#2D701D" points="517.500232 99 519 130 516 130 517.500232 99"></polyline>
                <polyline id="Fill-178" fill="#2D701D" points="454.499535 99 456 130 453 130 454.499535 99"></polyline>
                <polyline id="Fill-179" fill="#2D701D" points="450.99993 106 452 130 450 130 450.99993 106"></polyline>
                <polyline id="Fill-180" fill="#2D701D" points="447.5 99 449 130 446 130 447.5 99"></polyline>
                <polyline id="Fill-181" fill="#2D701D" points="442.999948 106 444 130 442 130 442.999948 106"></polyline>
                <polyline id="Fill-182" fill="#2D701D" points="439.500058 99 441 130 438 130 439.500058 99"></polyline>
                <polyline id="Fill-183" fill="#2D701D" points="366.500232 117 368 148 365 148 366.500232 117"></polyline>
                <polyline id="Fill-184" fill="#2D701D" points="362.999512 124 364 148 362 148 362.999512 124"></polyline>
                <polyline id="Fill-185" fill="#2D701D" points="359.500232 117 361 148 358 148 359.500232 117"></polyline>
                <polyline id="Fill-186" fill="#2D701D" points="354.999948 124 356 148 354 148 354.999948 124"></polyline>
                <polyline id="Fill-187" fill="#2D701D" points="351.499826 117 353 148 350 148 351.499826 117"></polyline>
                <polyline id="Fill-188" fill="#2D701D" points="489.499768 137 491 168 488 168 489.499768 137"></polyline>
                <polyline id="Fill-189" fill="#2D701D" points="485.999861 144 487 168 485 168 485.999861 144"></polyline>
                <polyline id="Fill-190" fill="#2D701D" points="482.499884 137 484 168 481 168 482.499884 137"></polyline>
                <polyline id="Fill-191" fill="#2D701D" points="478.000158 144 479 168 477 168 478.000158 144"></polyline>
                <polyline id="Fill-192" fill="#2D701D" points="474.500174 137 476 168 473 168 474.500174 137"></polyline>
                <polyline id="Fill-193" fill="#2D701D" points="408.500232 137 410 168 407 168 408.500232 137"></polyline>
                <polyline id="Fill-194" fill="#2D701D" points="403.99993 144 405 168 403 168 403.99993 144"></polyline>
                <polyline id="Fill-195" fill="#2D701D" points="401.499768 137 403 168 400 168 401.499768 137"></polyline>
                <polyline id="Fill-196" fill="#2D701D" points="397.999737 144 399 168 397 168 397.999737 144"></polyline>
                <polyline id="Fill-197" fill="#2D701D" points="393.499709 137 395 168 392 168 393.499709 137"></polyline>
                <polyline id="Fill-198" fill="#2D701D" points="493.5 99 495 130 492 130 493.5 99"></polyline>
                <polyline id="Fill-199" fill="#2D701D" points="489.000697 106 490 130 488 130 489.000697 106"></polyline>
                <polyline id="Fill-200" fill="#2D701D" points="486.500232 99 488 130 485 130 486.500232 99"></polyline>
                <polyline id="Fill-201" fill="#2D701D" points="481.999633 106 483 130 481 130 481.999633 106"></polyline>
                <polyline id="Fill-202" fill="#2D701D" points="478.500232 99 480 130 477 130 478.500232 99"></polyline>
                <polyline id="Fill-203" fill="#2D701D" points="408.499709 99 410 130 407 130 408.499709 99"></polyline>
                <polyline id="Fill-204" fill="#2D701D" points="404.000139 106 405 130 403 130 404.000139 106"></polyline>
                <polyline id="Fill-205" fill="#2D701D" points="401.499942 99 403 130 400 130 401.499942 99"></polyline>
                <polyline id="Fill-206" fill="#2D701D" points="397.000368 106 398 130 396 130 397.000368 106"></polyline>
                <polyline id="Fill-207" fill="#2D701D" points="393.500232 99 395 130 392 130 393.500232 99"></polyline>
                <polyline id="Fill-208" fill="#2D701D" points="323.5 117 325 148 322 148 323.5 117"></polyline>
                <polyline id="Fill-209" fill="#2D701D" points="319.000418 124 320 148 318 148 319.000418 124"></polyline>
                <polyline id="Fill-210" fill="#2D701D" points="316.500232 117 318 148 315 148 316.500232 117"></polyline>
                <polyline id="Fill-211" fill="#2D701D" points="311.999947 124 313 148 311 148 311.999947 124"></polyline>
                <polyline id="Fill-212" fill="#2D701D" points="307.500232 117 309 148 306 148 307.500232 117"></polyline>
                <polyline id="Fill-213" fill="#2D701D" points="513.499826 137 515 168 512 168 513.499826 137"></polyline>
                <polyline id="Fill-214" fill="#2D701D" points="509 144 510 168 508 168 509 144"></polyline>
                <polyline id="Fill-215" fill="#2D701D" points="506.500058 137 508 168 505 168 506.500058 137"></polyline>
                <polyline id="Fill-216" fill="#2D701D" points="501.000158 144 502 168 500 168 501.000158 144"></polyline>
                <polyline id="Fill-217" fill="#2D701D" points="498.500232 137 500 168 497 168 498.500232 137"></polyline>
                <polyline id="Fill-218" fill="#2D701D" points="431.500291 137 433 168 430 168 431.500291 137"></polyline>
                <polyline id="Fill-219" fill="#2D701D" points="427.999861 144 429 168 427 168 427.999861 144"></polyline>
                <polyline id="Fill-220" fill="#2D701D" points="424.499826 137 426 168 423 168 424.499826 137"></polyline>
                <polyline id="Fill-221" fill="#2D701D" points="420.000157 144 421 168 419 168 420.000157 144"></polyline>
                <polyline id="Fill-222" fill="#2D701D" points="417.499768 137 419 168 416 168 417.499768 137"></polyline>
                <polyline id="Fill-223" fill="#2D701D" points="512.499826 99 514 130 511 130 512.499826 99"></polyline>
                <polyline id="Fill-224" fill="#2D701D" points="508.999861 106 510 130 508 130 508.999861 106"></polyline>
                <polyline id="Fill-225" fill="#2D701D" points="505.5 99 507 130 504 130 505.5 99"></polyline>
                <polyline id="Fill-226" fill="#2D701D" points="501.00021 106 502 130 500 130 501.00021 106"></polyline>
                <polyline id="Fill-227" fill="#2D701D" points="498.500465 99 500 130 497 130 498.500465 99"></polyline>
                <polyline id="Fill-228" fill="#2D701D" points="431.5 99 433 130 430 130 431.5 99"></polyline>
                <polyline id="Fill-229" fill="#2D701D" points="428.000209 106 429 130 427 130 428.000209 106"></polyline>
                <polyline id="Fill-230" fill="#2D701D" points="424.5 99 426 130 423 130 424.5 99"></polyline>
                <polyline id="Fill-231" fill="#2D701D" points="420.000158 106 421 130 419 130 420.000158 106"></polyline>
                <polyline id="Fill-232" fill="#2D701D" points="417.500174 99 419 130 416 130 417.500174 99"></polyline>
                <polyline id="Fill-233" fill="#2D701D" points="347.500058 117 349 148 346 148 347.500058 117"></polyline>
                <polyline id="Fill-234" fill="#2D701D" points="345 124 346 148 344 148 345 124"></polyline>
                <polyline id="Fill-235" fill="#2D701D" points="340.499709 117 342 148 339 148 340.499709 117"></polyline>
                <polyline id="Fill-236" fill="#2D701D" points="337.000052 124 338 148 336 148 337.000052 124"></polyline>
                <polyline id="Fill-237" fill="#2D701D" points="333.5 117 335 148 332 148 333.5 117"></polyline>
                <polyline id="Fill-238" fill="#2D701D" points="470.500174 137 472 168 469 168 470.500174 137"></polyline>
                <polyline id="Fill-239" fill="#2D701D" points="466.999582 144 468 168 466 168 466.999582 144"></polyline>
                <polyline id="Fill-240" fill="#2D701D" points="464.499709 137 466 168 463 168 464.499709 137"></polyline>
                <polyline id="Fill-241" fill="#2D701D" points="459.999737 144 461 168 459 168 459.999737 144"></polyline>
                <polyline id="Fill-242" fill="#2D701D" points="456.5 137 458 168 455 168 456.5 137"></polyline>
                <polyline id="Fill-243" fill="#2D701D" points="389.500291 137 391 168 388 168 389.500291 137"></polyline>
                <polyline id="Fill-244" fill="#2D701D" points="385.999582 144 387 168 385 168 385.999582 144"></polyline>
                <polyline id="Fill-245" fill="#2D701D" points="382.499942 137 384 168 381 168 382.499942 137"></polyline>
                <polyline id="Fill-246" fill="#2D701D" points="379.000368 144 380 168 378 168 379.000368 144"></polyline>
                <polyline id="Fill-247" fill="#2D701D" points="375.499768 137 377 168 374 168 375.499768 137"></polyline>
                <polyline id="Fill-248" fill="#2D701D" points="472.499709 99 474 130 471 130 472.499709 99"></polyline>
                <polyline id="Fill-249" fill="#2D701D" points="469.999861 106 471 130 469 130 469.999861 106"></polyline>
                <polyline id="Fill-250" fill="#2D701D" points="466.499942 99 468 130 465 130 466.499942 99"></polyline>
                <polyline id="Fill-251" fill="#2D701D" points="461.999948 106 463 130 461 130 461.999948 106"></polyline>
                <polyline id="Fill-252" fill="#2D701D" points="458.5 99 460 130 457 130 458.5 99"></polyline>
                <polyline id="Fill-253" fill="#2D701D" points="389.500232 99 391 130 388 130 389.500232 99"></polyline>
                <polyline id="Fill-254" fill="#2D701D" points="385.999442 107 387 131 385 131 385.999442 107"></polyline>
                <polyline id="Fill-255" fill="#2D701D" points="381.5 99 383 130 380 130 381.5 99"></polyline>
                <polyline id="Fill-256" fill="#2D701D" points="377.99979 107 379 131 377 131 377.99979 107"></polyline>
                <polyline id="Fill-257" fill="#2D701D" points="375.500232 99 377 130 374 130 375.500232 99"></polyline>
                <polyline id="Fill-258" fill="#2D701D" points="303.499768 117 305 148 302 148 303.499768 117"></polyline>
                <polyline id="Fill-259" fill="#2D701D" points="299.99993 124 301 148 299 148 299.99993 124"></polyline>
                <polyline id="Fill-260" fill="#2D701D" points="297.500116 117 299 148 296 148 297.500116 117"></polyline>
                <polyline id="Fill-261" fill="#2D701D" points="292.000367 124 293 148 291 148 292.000367 124"></polyline>
                <polyline id="Fill-262" fill="#2D701D" points="288.499709 117 290 148 287 148 288.499709 117"></polyline>
                <path d="M53.2026778,62.5849423 C52.8793052,62.1584348 52.9505097,61.541814 53.3618459,61.2084122 C53.773269,60.8745567 54.3700842,60.9498761 54.6936305,61.3764743 L60.7969849,69.4152318 C61.1207917,69.8413762 61.0495872,70.45836 60.6380773,70.7917618 C60.2264806,71.1252543 59.629839,71.0502979 59.306119,70.6234275 L53.2026778,62.5849423" id="Fill-298" fill="#241C00"></path>
                <polyline id="Fill-299" fill="#241C00" points="55.572461 66 57 67.8399222 47.4272574 74 46 72.1599914 55.572461 66"></polyline>
                <path d="M66,77.011782 C66.2811163,74.7672364 66.9075349,72.3811385 70.2625116,72.1423107 L83.8777674,72 L84,98 L66,97.7149046 L66,77.011782" id="Fill-300" fill="#A34822"></path>
                <polyline id="Fill-301" fill="#643F31" points="66.06667 70 61.2292322 72.5172849 54.0076786 95.5095316 45 99.5142818 55.6550131 100 68 70.901675 66.06667 70"></polyline>
                <path d="M83,73.6702847 L83,65.6271626 C77.9690767,64.7207078 72.6886102,64.8642585 67.9943571,65.6271626 C67.9943571,65.6271626 63.1790732,66.4855809 58.3124601,74.1581896 C56.5498423,76.9369478 62.760674,85.0527762 64.0783757,82.5152242 C66.6398158,77.5817158 67.4337135,74.3021127 67.4337135,74.3021127 L83,73.6702847" id="Fill-302" fill="#3F6E87"></path>
                <polyline id="Fill-303" fill="#573122" points="76.1675983 34 81 34.0750666 80.8326095 45 76 44.9253178 76.1675983 34"></polyline>
                <path d="M75.0648812,33 L75,40.9876564 C75,40.9876564 80.8238939,41.3839565 81,37.6855373 L80.8358828,33.2936406 L75.0648812,33" id="Fill-304" fill="#643F31"></path>
                <path d="M74,33.4314917 C74.7676197,35.3959469 76.3340856,36.5095107 79.2832073,37.4350122 C79.4540655,36.2031526 80.5468125,36.753554 80.3489861,38.1604355 L80.5639338,41 C82.0859552,40.2958141 82.2016349,33.7680293 81.8062482,33.4314917 C79.3128369,31.311296 76.7107542,31.7467549 74,33.4314917" id="Fill-305" fill="#040404"></path>
                <path d="M81.2280393,42 C81.2280393,42 89.1996828,43.3201587 81.9653829,66.8868029 C79.855113,67.2396081 77.0287288,66.7605647 73.573041,65.5497179 L72.0138353,59.6358115 C72.0138353,59.6358115 71.2420065,43.2459288 81.2280393,42" id="Fill-306" fill="#F6F7BE"></path>
                <path d="M80.8626226,42 C76.7578066,51.343189 72.6010203,60.1855 59.384136,62.9666932 C57.6947738,63.5625765 56.7136823,64.628167 56,65.8709827 C56.6911027,67.4245723 56.8785504,67.8152328 58.0415847,69 L60.4897883,65.2656735 C71.0763397,62.7335661 77.6925261,59.4951713 83.7544867,48.996706 C83.9978235,48.5760879 84.8494091,43.5156061 80.8626226,42" id="Fill-307" fill="#643F31"></path>
                <g id="Group-310" transform="translate(56.000000, 42.000000)">
                    <mask id="mask-4" fill="white">
                        <use xlink:href="#path-3"></use>
                    </mask>
                    <g id="Clip-309"></g>
                    <path d="M17.6747627,7.29609416 C22.7355714,8.63578169 25.5126716,12.6610038 27.7284549,17.3447306 L29.2924165,7.27509592 C29.2924165,7.27509592 31.0143417,3.04362449 29.6295238,1.71336283 C28.2438662,0.383194497 27.5479117,-0.573018561 26.4550419,-0.525142581 C25.3612392,-0.477359925 22.6889194,-1.36516539 22.6889194,-1.36516539 L21.375759,2.3962255 L19.0959691,4.80187688 L17.6747627,7.29609416" id="Fill-308" fill="#F6F7BE" mask="url(#mask-4)"></path>
                </g>
                <polygon id="Fill-311" fill="#A34822" points="34 103 77 103 77 97 34 97"></polygon>
                <path d="M34,48.249249 C33.7615701,46.8599601 32.9182168,46.2178266 31.7316465,46 L26,46 L26,49.9806091 L30.2566064,49.9806091 L30.2566064,75 L34,75 L34,48.249249" id="Fill-312" fill="#442C06"></path>
                <g id="Group-315" transform="translate(0.000000, 67.000000)">
                    <mask id="mask-6" fill="white">
                        <use xlink:href="#path-5"></use>
                    </mask>
                    <g id="Clip-314"></g>
                    <path d="M0,8.74995343 C0,3.92064899 3.96082228,0 8.83893019,0 L55.6772343,0 C60.5554363,0 64.5160704,3.92064899 64.5160704,8.74995343 L64.5160704,26.249674 C64.5160704,31.0794442 60.5554363,35.0000931 55.6772343,35.0000931 L8.83893019,35.0000931 C3.96082228,35.0000931 0,31.0794442 0,26.249674 L0,8.74995343" id="Fill-313" fill="#CC673E" mask="url(#mask-6)"></path>
                </g>
                <g id="Group-322" transform="translate(0.000000, 67.000000)">
                    <mask id="mask-8" fill="white">
                        <use xlink:href="#path-7"></use>
                    </mask>
                    <g id="Clip-317"></g>
                    <path d="M-5.54304357,9.69213861 C-5.54304357,9.03272075 -5.00211884,8.49717658 -4.33558366,8.49717658 L5.91573496,8.49717658 C6.58198787,8.49717658 7.12319487,9.03272075 7.12319487,9.69213861 C7.12319487,10.351929 6.58198787,10.8873801 5.91573496,10.8873801 L-4.33558366,10.8873801 C-5.00211884,10.8873801 -5.54304357,10.351929 -5.54304357,9.69213861" id="Fill-316" fill="#B84F24" mask="url(#mask-8)"></path>
                    <path d="M-5.54304357,13.6149298 C-5.54304357,12.9551394 -5.00211884,12.4195952 -4.33558366,12.4195952 L5.91573496,12.4195952 C6.58198787,12.4195952 7.12319487,12.9551394 7.12319487,13.6149298 C7.12319487,14.2739751 6.58198787,14.8097987 5.91573496,14.8097987 L-4.33558366,14.8097987 C-5.00211884,14.8097987 -5.54304357,14.2739751 -5.54304357,13.6149298" id="Fill-318" fill="#B84F24" mask="url(#mask-8)"></path>
                    <path d="M-5.54304357,17.5369758 C-5.54304357,16.877558 -5.00211884,16.3416413 -4.33558366,16.3416413 L5.91573496,16.3416413 C6.58198787,16.3416413 7.12319487,16.877558 7.12319487,17.5369758 C7.12319487,18.1967662 6.58198787,18.7322173 5.91573496,18.7322173 L-4.33558366,18.7322173 C-5.00211884,18.7322173 -5.54304357,18.1967662 -5.54304357,17.5369758" id="Fill-319" fill="#B84F24" mask="url(#mask-8)"></path>
                    <path d="M-5.54304357,21.4594876 C-5.54304357,20.7996972 -5.00211884,20.264153 -4.33558366,20.264153 L5.91573496,20.264153 C6.58198787,20.264153 7.12319487,20.7996972 7.12319487,21.4594876 C7.12319487,22.119278 6.58198787,22.6546359 5.91573496,22.6546359 L-4.33558366,22.6546359 C-5.00211884,22.6546359 -5.54304357,22.119278 -5.54304357,21.4594876" id="Fill-320" fill="#B84F24" mask="url(#mask-8)"></path>
                    <path d="M-5.54304357,25.3819062 C-5.54304357,24.7224883 -5.00211884,24.1865716 -4.33558366,24.1865716 L5.91573496,24.1865716 C6.58198787,24.1865716 7.12319487,24.7224883 7.12319487,25.3819062 C7.12319487,26.0413241 6.58198787,26.5771476 5.91573496,26.5771476 L-4.33558366,26.5771476 C-5.00211884,26.5771476 -5.54304357,26.0413241 -5.54304357,25.3819062" id="Fill-321" fill="#B84F24" mask="url(#mask-8)"></path>
                </g>
                <path d="M16,79.0001699 C16,77.3440971 17.3222287,76 18.951446,76 L40.0478854,76 C41.6769116,76 43,77.3440971 43,79.0001699 L43,84.9998301 C43,86.656 41.6769116,88 40.0478854,88 L18.951446,88 C17.3222287,88 16,86.656 16,84.9998301 L16,79.0001699" id="Fill-323" fill="#D88B6C"></path>
                <g id="Group-326" transform="translate(80.000000, 61.000000)">
                    <mask id="mask-10" fill="white">
                        <use xlink:href="#path-9"></use>
                    </mask>
                    <g id="Clip-325"></g>
                    <path d="M40.3429785,3.74981937 C40.3429785,1.68010332 38.5896284,-2.05349281e-14 36.4300063,-2.05349281e-14 L3.91306649,-2.05349281e-14 C1.7536328,-2.05349281e-14 2.1427877e-14,1.68010332 2.1427877e-14,3.74981937 L2.1427877e-14,11.2501806 C2.1427877e-14,13.3198967 1.7536328,15 3.91306649,15 L36.4300063,15 C38.5896284,15 40.3429785,13.3198967 40.3429785,11.2501806 L40.3429785,3.74981937" id="Fill-324" fill="#B45934" mask="url(#mask-10)"></path>
                </g>
                <path d="M173,94.5004716 C173,93.6722486 172.363064,93 171.578608,93 L121.421298,93 C120.636841,93 120,93.6722486 120,94.5004716 L120,97.4996277 C120,98.3278507 120.636841,99 121.421298,99 L171.578608,99 C172.363064,99 173,98.3278507 173,97.4996277 L173,94.5004716" id="Fill-327" fill="#59331C"></path>
                <path d="M144.728066,94.3522444 C144.496357,93.9953612 144.016326,93.8925581 143.656931,94.1230252 L142.35457,94.9585044 C141.995175,95.1888756 141.891829,95.6662237 142.124021,96.023203 L152.271693,111.64774 C152.503982,112.004815 152.983626,112.107522 153.343021,111.876671 L154.645285,111.041576 C155.004584,110.811109 155.108124,110.334241 154.876318,109.976878 L144.728066,94.3522444" id="Fill-328" fill="#59331C"></path>
                <path d="M151.728312,94.3522444 C151.49612,93.9953612 151.015993,93.8925581 150.656984,94.1230252 L149.354623,94.9585044 C148.995421,95.1888756 148.891881,95.6662237 149.123687,96.023203 L159.27175,111.64774 C159.503652,112.004815 159.98378,112.107522 160.343078,111.876671 L161.645343,111.041576 C162.004642,110.811109 162.108278,110.334241 161.87599,109.976878 L151.728312,94.3522444" id="Fill-329" fill="#59331C"></path>
                <path d="M158.727983,94.3522444 C158.496076,93.9953612 158.016228,93.8925581 157.656825,94.1230252 L156.354629,94.9585044 C155.995226,95.1888756 155.891877,95.6662237 156.12388,96.023203 L166.27197,111.64774 C166.503684,112.004815 166.983918,112.107522 167.343321,111.876671 L168.645421,111.041576 C169.004727,110.811109 169.108173,110.334241 168.876072,109.976878 L158.727983,94.3522444" id="Fill-330" fill="#59331C"></path>
                <path d="M165.727839,94.3522444 C165.496124,93.9953612 165.01589,93.8925581 164.65668,94.1230252 L163.354579,94.9585044 C162.995273,95.1888756 162.891827,95.6662237 163.123928,96.023203 L173.272023,111.64774 C173.504027,112.004815 173.983971,112.107522 174.343375,111.876671 L175.645185,111.041576 C176.004588,110.811109 176.108131,110.334241 175.87632,109.976878 L165.727839,94.3522444" id="Fill-331" fill="#59331C"></path>
                <path d="M172.708566,94.3494579 C172.477903,93.9954643 172.001683,93.8933766 171.644712,94.1220415 L170.351936,94.9504596 C169.995255,95.1791245 169.892544,95.6526847 170.123207,96.0067743 L180.291523,111.650297 C180.521993,112.004771 180.998406,112.106378 181.355377,111.878193 L182.64767,111.049295 C183.004641,110.820726 183.107448,110.347454 182.876978,109.993461 L172.708566,94.3494579" id="Fill-332" fill="#59331C"></path>
                <g id="Group-335" transform="translate(81.000000, 60.000000)">
                    <mask id="mask-12" fill="white">
                        <use xlink:href="#path-11"></use>
                    </mask>
                    <g id="Clip-334"></g>
                    <path d="M-4.83756073,9.57927177 C-4.83756073,4.29259547 -0.591870283,2.18976759e-14 4.63779379,2.18976759e-14 L33.5250265,2.18976759e-14 C38.7548811,2.18976759e-14 43,4.29259547 43,9.57927177 L43,23.0523317 C43,28.3394896 38.7548811,32.632085 33.5250265,32.632085 L4.63779379,32.632085 C-0.591870283,32.632085 -4.83756073,28.3394896 -4.83756073,23.0523317 L-4.83756073,9.57927177" id="Fill-333" fill="#B45A34" mask="url(#mask-12)"></path>
                </g>
                <path d="M102.999768,66 C86.9943152,66 74,78.9942593 74,94.9999535 C74,111.005741 86.9943152,124 102.999768,124 C119.005313,124 132,111.005741 132,94.9999535 C132,78.9942593 119.005313,66 102.999768,66" id="Fill-336" fill="#4D372F"></path>
                <path d="M102.499761,84 C96.7046259,84 92,88.7044265 92,94.4998082 C92,100.294806 96.7046259,105 102.499761,105 C108.295087,105 113,100.294806 113,94.4998082 C113,88.7044265 108.295087,84 102.499761,84" id="Fill-337" fill="#B56342"></path>
                <path d="M18,89 C10.8251376,89 5,94.8250794 5,102.000142 C5,109.175204 10.8251376,115 18,115 C25.1751453,115 31,109.175204 31,102.000142 C31,94.8250794 25.1751453,89 18,89" id="Fill-338" fill="#4D372F"></path>
                <path d="M16.99987,99 C14.7924326,99 13,100.792434 13,102.999956 C13,105.207478 14.7924326,107 16.99987,107 C19.2076541,107 21,105.207478 21,102.999956 C21,100.792434 19.2076541,99 16.99987,99" id="Fill-339" fill="#B56342"></path>
            </g>
        </g>
    </g>
</svg>