<svg xmlns="http://www.w3.org/2000/svg" width="135" height="135" fill="none"  xmlns:v="https://vecta.io/nano"><path d="M45.255 23L112 89.745V135L0 23h45.255z" fill="#7645d9"/><path d="M40.035 49.52l7.286-7.286 5.295 5.295-1.403 1.403-3.473-3.473-1.527 1.527 3.055 3.055-1.426 1.425-3.055-3.055-2.93 2.93-1.822-1.822zm12.746.324l1.37-1.37 1.98 1.98-1.37 1.37-1.98-1.98zm-6.064 6.358l4.016-4.016-.792-.792 1.505-1.188L53.9 52.66l-5.363 5.363-1.822-1.822zm3.322 3.322L55.4 54.16l1.697 1.697-.407.52c.37.068.777.21 1.222.43.453.21.867.505 1.245.883.694.694 1.033 1.365 1.018 2.014s-.37 1.32-1.064 2.014l-3.44 3.44-1.822-1.822 3.292-3.292c.302-.302.453-.58.453-.837s-.166-.55-.498-.883c-.196-.196-.44-.35-.735-.464s-.577-.17-.85-.17l-3.654 3.654-1.822-1.822zm13.64 1.22l1.37-1.37 1.98 1.98-1.37 1.37-1.98-1.98zM57.616 67.1l4.016-4.016-.792-.792 1.505-1.188L64.8 63.56l-5.363 5.363-1.822-1.822zm5.2 5.426c-.43-.43-.807-.867-1.13-1.312s-.554-.826-.7-1.143l1.392-1.392c.15.377.37.77.656 1.177s.566.747.837 1.018c.324.324.573.543.747.656.18.12.34.113.475-.023.15-.15.143-.385-.023-.7l-.667-1.324c-.317-.664-.5-1.237-.52-1.72-.015-.483.204-.95.656-1.403.528-.528 1.128-.735 1.8-.622.686.113 1.463.603 2.33 1.47.34.34.65.7.928 1.086s.5.717.634.996l-1.37 1.37c-.113-.31-.283-.622-.51-.94s-.45-.585-.668-.803c-.28-.28-.535-.498-.77-.656-.22-.158-.392-.174-.52-.045-.143.143-.14.35.01.622l.645 1.188c.294.55.483 1.018.566 1.403.1.377.083.717-.023 1.018s-.313.607-.622.916c-.535.535-1.158.735-1.867.6s-1.475-.615-2.297-1.437zm3.875 3.65l7.625-7.625 1.822 1.822-2.66 2.66c.354.053.728.185 1.12.396.4.204.773.48 1.12.826.717.716 1.07 1.4 1.063 2.082 0 .68-.35 1.37-1.052 2.07L72.325 81.8l-1.822-1.822 3.28-3.28c.31-.31.464-.592.464-.85s-.166-.55-.498-.882c-.196-.196-.44-.35-.735-.464a2.36 2.36 0 0 0-.849-.17l-3.654 3.654-1.822-1.822zm9.762 9.99c-.935-.935-1.456-1.916-1.56-2.942-.098-1.033.32-2.018 1.256-2.953.852-.852 1.765-1.297 2.738-1.335s1.927.41 2.862 1.346c.852.852 1.294 1.73 1.324 2.636s-.324 1.727-1.063 2.466l-.962.962-3.8-3.8c-.272.438-.328.88-.17 1.324.173.445.524.93 1.052 1.46a7.32 7.32 0 0 0 .973.815c.362.256.686.445.973.566l-1.188 1.188c-.377-.136-.77-.355-1.177-.656-.415-.294-.833-.652-1.256-1.075zm1.844-4.673l2.217 2.218.238-.238c.264-.264.392-.55.385-.86 0-.317-.19-.664-.566-1.04-.437-.437-.833-.652-1.188-.645-.347 0-.71.188-1.086.566zm4.06 10.577c-.52-.52-.883-1.048-1.086-1.584s-.215-1.1-.034-1.663c.19-.58.603-1.192 1.245-1.833.65-.65 1.305-1.08 1.97-1.3.67-.22 1.316-.245 1.935-.08.634.166 1.207.505 1.72 1.018.28.28.498.558.656.837.166.287.287.588.362.905l2.512-2.512 1.822 1.822-7.625 7.626-1.573-1.573.35-.554a3.29 3.29 0 0 1-1.165-.305c-.362-.18-.724-.453-1.086-.815zm1.844-.803c.4.4.875.603 1.425.61l2.172-2.172c-.023-.5-.234-.935-.634-1.335-.385-.385-.826-.532-1.324-.44-.483.1-.988.4-1.516.928-.513.513-.758.947-.735 1.3.03.362.234.732.61 1.11z" fill="#fff"/></svg>