<svg xmlns="http://www.w3.org/2000/svg" xmlns:xlink="http://www.w3.org/1999/xlink" viewBox="0 0 490 67.26"><defs><style>.cls-1{fill:url(#gelato-radial-gradient);}.cls-2{isolation:isolate;opacity:0.7;fill:url(#gelato-linear-gradient);}.cls-3{fill:url(#gelato-linear-gradient-2);}.cls-4,.cls-5{fill:#1c0008;}.cls-4{fill-rule:evenodd;}.cls-6{fill:none;}</style><radialGradient id="gelato-radial-gradient" cx="-3426.31" cy="-1314.67" r="0.31" gradientTransform="matrix(-144.9, 32.65, 39.12, 173.61, -444750.75, 340138.79)" gradientUnits="userSpaceOnUse"><stop offset="0"/><stop offset="0.12" stop-color="#1c0008"/><stop offset="1" stop-opacity="0"/></radialGradient><linearGradient id="gelato-linear-gradient" x1="271.97" y1="-3455.65" x2="271.97" y2="-3481.29" gradientTransform="matrix(1, 0, 0, -1, 0, -3428.75)" gradientUnits="userSpaceOnUse"><stop offset="0" stop-color="#1b0008"/><stop offset="1" stop-color="#1b0008" stop-opacity="0.5"/></linearGradient><linearGradient id="gelato-linear-gradient-2" x1="278.07" y1="-3455.02" x2="278.07" y2="-3492.24" gradientTransform="matrix(1, 0, 0, -1, 0, -3428.75)" gradientUnits="userSpaceOnUse"><stop offset="0" stop-color="#150006"/><stop offset="1" stop-color="#1b0008" stop-opacity="0"/></linearGradient></defs><g id="Layer_2" data-name="Layer 2"><g id="Layer_1-2" data-name="Layer 1"><path class="cls-1" d="M283.2,23.49a1,1,0,0,1-1.09.91,18.84,18.84,0,0,0-3.9,0,26.93,26.93,0,0,0-6.8,1.82h0l-.36.13a19.08,19.08,0,0,1-6.42,1.52,13.83,13.83,0,0,1-3-.28,2.37,2.37,0,0,1-1.89-1.86,11.86,11.86,0,1,1,23.5-2.31Z"/><path class="cls-2" d="M260.53,29.38a1.11,1.11,0,0,0-1.27,1.55l11.65,21.35a.49.49,0,0,0,.87,0l12.85-23.56a1.4,1.4,0,0,0-.92-2.07,17.32,17.32,0,0,0-5.3-.29,24.71,24.71,0,0,0-6.36,1.73l-.33.12a21.52,21.52,0,0,1-7.06,1.64A15.87,15.87,0,0,1,260.53,29.38Z"/><path class="cls-3" d="M271.34,28.76a.57.57,0,0,1,.38-.55l.33-.12a24.71,24.71,0,0,1,6.36-1.73,17.32,17.32,0,0,1,5.3.29,1.4,1.4,0,0,1,.92,2.07L271.78,52.28a.49.49,0,0,1-.44.26Z"/><path class="cls-4" d="M318.87,14.31a18.75,18.75,0,0,0-5.25-.79,19.2,19.2,0,0,0-8.67,2.1,14.94,14.94,0,0,0-6.05,6.05,18,18,0,0,0-2.1,8.93A18,18,0,0,0,299,39.53a15.77,15.77,0,0,0,6.05,6,16.41,16.41,0,0,0,8.4,2.23A16,16,0,0,0,321.37,46,13.45,13.45,0,0,0,327,40.45a17.14,17.14,0,0,0,2.1-8.8V29.31a.55.55,0,0,0-.55-.55H315a.55.55,0,0,0-.55.55v4.81a.55.55,0,0,0,.55.55h6.22a.36.36,0,0,1,.35.42A9.9,9.9,0,0,1,321,37a5.87,5.87,0,0,1-2.76,3.15,9.63,9.63,0,0,1-4.73,1.05,8.74,8.74,0,0,1-7.75-5,12.33,12.33,0,0,1-1.18-5.52,12.33,12.33,0,0,1,1.18-5.52A8.14,8.14,0,0,1,309,21.54a8.56,8.56,0,0,1,4.73-1.32,10.24,10.24,0,0,1,4.46,1.05,8.7,8.7,0,0,1,3.1,2.82.58.58,0,0,0,.79.15L327,20.9a.53.53,0,0,0,.15-.72,13.72,13.72,0,0,0-3.41-3.51A16.85,16.85,0,0,0,318.87,14.31ZM361,15.37l5.86-1.54a.55.55,0,0,1,.69.53V46.73a.55.55,0,0,1-.55.55h-5.86a.54.54,0,0,1-.55-.55V15.91A.57.57,0,0,1,361,15.37ZM430.1,29a5.68,5.68,0,0,1,2.9-.78,6.31,6.31,0,0,1,2.89.78,4.89,4.89,0,0,1,2,2.24,8.06,8.06,0,0,1,.78,3.68,8,8,0,0,1-.78,3.67,4.46,4.46,0,0,1-2,2.37,5.7,5.7,0,0,1-5.79,0,6.11,6.11,0,0,1-2-2.37,8,8,0,0,1-.78-3.67,8.06,8.06,0,0,1,.78-3.68A4.75,4.75,0,0,1,430.1,29Zm9.46-5.38A13.14,13.14,0,0,0,433,22.06a13.86,13.86,0,0,0-6.57,1.58,11.83,11.83,0,0,0-4.6,4.6,12.74,12.74,0,0,0-1.71,6.7,14.14,14.14,0,0,0,1.71,6.7,11.06,11.06,0,0,0,4.6,4.59,14.43,14.43,0,0,0,13.13,0,11.87,11.87,0,0,0,4.6-4.59,12.79,12.79,0,0,0,1.71-6.7,14.08,14.08,0,0,0-1.71-6.7A11,11,0,0,0,439.56,23.64ZM389.84,44.78a.11.11,0,0,1,.2,0v1.9a.55.55,0,0,0,.55.55h5.86a.54.54,0,0,0,.55-.55V23.4a.55.55,0,0,0-.55-.55h-5.86a.55.55,0,0,0-.55.55v2.11a.2.2,0,0,1-.35.12,11.09,11.09,0,0,0-1.22-1.34,7.88,7.88,0,0,0-5.79-2.1A9.53,9.53,0,0,0,377,23.9a11.05,11.05,0,0,0-3.81,4.6,15.44,15.44,0,0,0-1.32,6.57,15.5,15.5,0,0,0,1.32,6.57A10.87,10.87,0,0,0,377,46.23a9.2,9.2,0,0,0,5.64,1.71,10.24,10.24,0,0,0,5.92-1.84A4.5,4.5,0,0,0,389.84,44.78Zm-2.43-3.93a5.68,5.68,0,0,1-5.78,0,6.11,6.11,0,0,1-2-2.37,10.1,10.1,0,0,1-.65-3.54,7.29,7.29,0,0,1,.65-3.42,6.6,6.6,0,0,1,2-2.23,5.59,5.59,0,0,1,2.89-.79,5.24,5.24,0,0,1,2.89.79,5.42,5.42,0,0,1,2,2.23,8.68,8.68,0,0,1,.66,3.42,7.7,7.7,0,0,1-.66,3.54A6,6,0,0,1,387.41,40.85Zm24.88-12.61a.18.18,0,0,0-.18.18v9.41c0,2.23.92,3.41,2.76,3.41H417a.55.55,0,0,1,.55.55v4.94a.55.55,0,0,1-.55.55h-3c-2.76,0-5-.78-6.44-2.36a9.05,9.05,0,0,1-2.36-6.7v-9.8a.19.19,0,0,0-.19-.18H400.9a.55.55,0,0,1-.52-.73l1.46-4.29a.54.54,0,0,1,.52-.37H405a.19.19,0,0,0,.19-.18V16.09a.55.55,0,0,1,.41-.53L411.65,14a.37.37,0,0,1,.46.36v8.36a.18.18,0,0,0,.18.18h4.8a.55.55,0,0,1,.52.73l-1.45,4.28a.56.56,0,0,1-.53.38Zm-67.73-6.18a11.22,11.22,0,0,1,6.05,1.58,10.63,10.63,0,0,1,4.07,4.6,14,14,0,0,1,1.44,6.7v1.15a.54.54,0,0,1-.55.55H340a.36.36,0,0,0-.35.42,7.3,7.3,0,0,0,.47,1.69,4.76,4.76,0,0,0,2,2.23,7,7,0,0,0,3.15.79,7.49,7.49,0,0,0,3.15-.66,5.47,5.47,0,0,0,2-1.64.58.58,0,0,1,.81-.09l4,3.24a.53.53,0,0,1,.08.75,10.65,10.65,0,0,1-4.14,3.13,15,15,0,0,1-5.91,1.18,14,14,0,0,1-6.7-1.58,10.84,10.84,0,0,1-4.47-4.6,14,14,0,0,1-1.57-6.7,14,14,0,0,1,1.57-6.7,12.2,12.2,0,0,1,4.34-4.59A13.37,13.37,0,0,1,344.56,22.06Zm-4.42,10a.36.36,0,0,1-.35-.44,7.24,7.24,0,0,1,1-2.32,4.33,4.33,0,0,1,3.81-1.84,4.24,4.24,0,0,1,3.68,1.84,7.14,7.14,0,0,1,.95,2.32.36.36,0,0,1-.35.44Z"/><path class="cls-5" d="M44.6,47.59V21.92h8.78a10.26,10.26,0,0,1,5,1.08,6.89,6.89,0,0,1,2.88,2.93A8.88,8.88,0,0,1,62.2,30a9.08,9.08,0,0,1-.93,4.13,7,7,0,0,1-2.87,2.95,10,10,0,0,1-5,1.1H47.14V35.46h6.19a6.81,6.81,0,0,0,3.36-.72,4.28,4.28,0,0,0,1.84-1.93,6.88,6.88,0,0,0,0-5.53,4.18,4.18,0,0,0-1.86-1.91,7.13,7.13,0,0,0-3.39-.69H47.75V47.59Z"/><path class="cls-5" d="M74.58,48A8.49,8.49,0,0,1,70,46.75a8.31,8.31,0,0,1-3.1-3.47,11.6,11.6,0,0,1-1.11-5.22,11.73,11.73,0,0,1,1.11-5.25A8.33,8.33,0,0,1,70,29.33a9.23,9.23,0,0,1,9.24,0,8.38,8.38,0,0,1,3.09,3.48,11.73,11.73,0,0,1,1.11,5.25,11.6,11.6,0,0,1-1.11,5.22,8.35,8.35,0,0,1-3.09,3.47A8.49,8.49,0,0,1,74.58,48Zm0-2.65a5.15,5.15,0,0,0,3.29-1,6,6,0,0,0,1.92-2.67,10.7,10.7,0,0,0,0-7.18,6.11,6.11,0,0,0-1.92-2.7,5.79,5.79,0,0,0-6.59,0,6.09,6.09,0,0,0-1.91,2.7,10.54,10.54,0,0,0,0,7.18,6,6,0,0,0,1.91,2.67A5.16,5.16,0,0,0,74.58,45.34Z"/><path class="cls-5" d="M91.72,47.59,85.79,28.34h3.14l4.21,14.74h.2L97.5,28.34h3.2L104.8,43H105l4.21-14.69h3.14l-5.93,19.25h-2.94L99.23,32.8h-.31L94.66,47.59Z"/><path class="cls-5" d="M123.83,48A9.18,9.18,0,0,1,119,46.76a8.17,8.17,0,0,1-3.14-3.46,11.59,11.59,0,0,1-1.09-5.18,11.87,11.87,0,0,1,1.09-5.23,8.6,8.6,0,0,1,3.07-3.53,8.31,8.31,0,0,1,4.61-1.27,9.18,9.18,0,0,1,3,.5,7.38,7.38,0,0,1,2.7,1.62,7.87,7.87,0,0,1,1.94,3,12.47,12.47,0,0,1,.72,4.53V39h-15V36.41h12a6.24,6.24,0,0,0-.66-2.91,5,5,0,0,0-1.85-2,5.29,5.29,0,0,0-2.82-.74,5.37,5.37,0,0,0-3.09.88,5.79,5.79,0,0,0-2,2.26,6.5,6.5,0,0,0-.7,3v1.71a8.12,8.12,0,0,0,.77,3.69,5.37,5.37,0,0,0,2.13,2.29,6.37,6.37,0,0,0,3.19.79A6.52,6.52,0,0,0,126,45a4.31,4.31,0,0,0,2.73-2.67l2.9.8a6.32,6.32,0,0,1-1.54,2.55,7.44,7.44,0,0,1-2.66,1.71A10,10,0,0,1,123.83,48Z"/><path class="cls-5" d="M136.45,47.59V28.34h2.89v2.91h.21a4.6,4.6,0,0,1,1.92-2.32,5.68,5.68,0,0,1,3.15-.89h.82c.33,0,.58,0,.75,0v3a6.08,6.08,0,0,0-.69-.12,6.9,6.9,0,0,0-1.13-.09,5.34,5.34,0,0,0-2.53.59,4.44,4.44,0,0,0-1.75,1.6,4.27,4.27,0,0,0-.64,2.33V47.59Z"/><path class="cls-5" d="M157.3,48a9.2,9.2,0,0,1-4.85-1.23,8.14,8.14,0,0,1-3.13-3.46,11.59,11.59,0,0,1-1.1-5.18,11.87,11.87,0,0,1,1.1-5.23,8.53,8.53,0,0,1,3.07-3.53A8.28,8.28,0,0,1,157,28.09a9.17,9.17,0,0,1,3,.5,7.38,7.38,0,0,1,2.7,1.62,7.87,7.87,0,0,1,1.94,3,12.47,12.47,0,0,1,.72,4.53V39h-15V36.41h12a6.36,6.36,0,0,0-.65-2.91,5.08,5.08,0,0,0-1.85-2,5.81,5.81,0,0,0-5.91.14,5.81,5.81,0,0,0-2,2.26,6.63,6.63,0,0,0-.7,3v1.71a8.12,8.12,0,0,0,.77,3.69,5.34,5.34,0,0,0,2.14,2.29,6.3,6.3,0,0,0,3.18.79,6.53,6.53,0,0,0,2.14-.34,4.41,4.41,0,0,0,1.65-1,4.64,4.64,0,0,0,1.08-1.67l2.89.8a6.21,6.21,0,0,1-1.54,2.55,7.35,7.35,0,0,1-2.66,1.71A10,10,0,0,1,157.3,48Z"/><path class="cls-5" d="M177.28,48a7.65,7.65,0,0,1-4.3-1.22,8.16,8.16,0,0,1-2.91-3.46A12.37,12.37,0,0,1,169,38a12.25,12.25,0,0,1,1.06-5.26A8.1,8.1,0,0,1,173,29.3a7.77,7.77,0,0,1,4.33-1.21,6.11,6.11,0,0,1,3,.62,5.29,5.29,0,0,1,1.7,1.4c.4.52.7.95.92,1.29h.26V21.92h3V47.59h-2.89v-3H183c-.22.35-.53.8-.94,1.33a5.32,5.32,0,0,1-1.73,1.41A6.21,6.21,0,0,1,177.28,48Zm.41-2.65a4.93,4.93,0,0,0,3-.94,5.76,5.76,0,0,0,1.89-2.59,11.6,11.6,0,0,0,0-7.63,5.6,5.6,0,0,0-1.87-2.53,5.67,5.67,0,0,0-6.24.05,5.81,5.81,0,0,0-1.89,2.6A10.35,10.35,0,0,0,172,38a10.23,10.23,0,0,0,.64,3.72,5.9,5.9,0,0,0,1.9,2.66A4.93,4.93,0,0,0,177.69,45.34Z"/><path class="cls-5" d="M202.54,47.59V21.92h3V31.4h.26c.22-.34.52-.77.91-1.29a5.4,5.4,0,0,1,1.7-1.4,6.15,6.15,0,0,1,3-.62,7.8,7.8,0,0,1,4.33,1.21,8.1,8.1,0,0,1,2.93,3.45,12.25,12.25,0,0,1,1,5.26,12.37,12.37,0,0,1-1,5.3,8.11,8.11,0,0,1-2.92,3.46A7.59,7.59,0,0,1,211.47,48a6.18,6.18,0,0,1-3-.62A5.48,5.48,0,0,1,206.72,46c-.4-.53-.71-1-.93-1.33h-.36v3ZM205.48,38a10.58,10.58,0,0,0,.65,3.84A5.76,5.76,0,0,0,208,44.4a5.43,5.43,0,0,0,6.18,0,6,6,0,0,0,1.9-2.66,11.07,11.07,0,0,0,0-7.39,5.81,5.81,0,0,0-1.89-2.6,5.66,5.66,0,0,0-6.23-.05,5.53,5.53,0,0,0-1.87,2.53A10.27,10.27,0,0,0,205.48,38Z"/><path class="cls-5" d="M225.51,54.76a6.91,6.91,0,0,1-1.35-.12,3.71,3.71,0,0,1-.83-.23l.76-2.61a4.49,4.49,0,0,0,2.73,0c.73-.29,1.36-1.16,1.89-2.59l.56-1.51-7.2-19.35h3.24l5.38,15.34h.2l5.38-15.34,3.27.05-8.29,22a8.48,8.48,0,0,1-1.39,2.44,5.28,5.28,0,0,1-1.9,1.45A6.19,6.19,0,0,1,225.51,54.76Z"/><rect class="cls-6" width="490" height="67.26" rx="10"/></g></g></svg>