<svg xmlns="http://www.w3.org/2000/svg" width="64" height="64" fill="none"  xmlns:v="https://vecta.io/nano"><style><![CDATA[.B{fill-rule:evenodd}.C{fill:#7645d9}]]></style><g clip-path="url(#C)"><g class="B C"><path d="M43.194 10.691a1.53 1.53 0 1 1 1.421 2.611l-6.119 1.64 4.698-4.25zm5.919-.177a5.07 5.07 0 0 0-8.291-2.445l-9.802 8.868c-1.46 1.321-.158 3.712 1.744 3.203l12.768-3.421c2.702-.724 4.306-3.502 3.582-6.204z"/><path d="M30.189 8.084a1.66 1.66 0 1 0-2.754 1.683l4.864 4.864-2.11-6.547zm-5.469-3.38c2.908-2.908 7.862-1.712 9.124 2.202l4.403 13.66c.656 2.035-1.867 3.577-3.378 2.065L24.72 12.482a5.5 5.5 0 0 1 0-7.778z"/></g><g fill="#53dee9"><path opacity=".6" d="M7.276 34.043a1.02 1.02 0 0 1-1.966 0l-.796-3.032c-.093-.355-.37-.632-.725-.725l-3.032-.796a1.02 1.02 0 0 1 0-1.966l3.032-.796c.355-.093.632-.37.725-.725l.796-3.032a1.02 1.02 0 0 1 1.966 0l.796 3.032c.093.355.37.632.725.725l3.032.796a1.02 1.02 0 0 1 0 1.966l-3.032.796c-.355.093-.632.37-.725.725l-.796 3.032z"/><path d="M9.62 11.664a.6.6 0 0 1-1.113.298l-.911-1.596c-.107-.187-.305-.302-.52-.3l-1.837.009a.6.6 0 0 1-.298-1.113l1.596-.911c.187-.107.302-.305.3-.52l-.009-1.838a.6.6 0 0 1 1.113-.298l.911 1.596c.107.187.305.302.52.3l1.837-.009a.6.6 0 0 1 .298 1.113l-1.596.911c-.187.107-.302.305-.3.52l.009 1.838z"/><path opacity=".8" d="M53.871 15.786a.58.58 0 0 1 0-1.118l3.093-.812a.58.58 0 0 0 .412-.412l.812-3.093a.58.58 0 0 1 1.118 0l.812 3.093a.58.58 0 0 0 .412.412l3.093.812a.58.58 0 0 1 0 1.118l-3.093.812a.58.58 0 0 0-.412.412l-.812 3.093a.58.58 0 0 1-1.118 0l-.812-3.093c-.053-.202-.21-.359-.412-.412l-3.093-.812z"/></g><path d="M51.083 29.906a5.12 5.12 0 0 0-6.271-3.62l-27.2 7.288a5.12 5.12 0 0 0-3.62 6.271l4.555 17a5.12 5.12 0 0 0 6.271 3.62l27.2-7.288a5.12 5.12 0 0 0 3.62-6.271l-4.555-17z" fill="url(#A)"/><g class="C"><path d="M18.274 36.046l27.201-7.288a2.56 2.56 0 0 1 3.135 1.81l4.555 17a2.56 2.56 0 0 1-1.81 3.135l-27.2 7.288a2.56 2.56 0 0 1-3.135-1.81l-4.555-17a2.56 2.56 0 0 1 1.81-3.135zm26.538-9.761a5.12 5.12 0 0 1 6.271 3.62l4.555 17a5.12 5.12 0 0 1-3.62 6.271l-27.2 7.288a5.12 5.12 0 0 1-6.271-3.62l-4.555-17a5.12 5.12 0 0 1 3.62-6.271l27.2-7.288z" class="B"/><path d="M35.23 28.853l-8.036 2.153 7.206 26.891 8.036-2.153-7.206-26.891z"/><path d="M54.517 42.402l-2.153-8.036-37.253 9.982 2.153 8.036 37.253-9.982z"/></g><g style="mix-blend-mode:multiply" class="B C"><path d="M39.926 46.324l-8.065 2.161.331 1.236 8.065-2.161-.331-1.236zm-10.224-5.898l8.065-2.161-.331-1.236-8.065 2.161.331 1.236z"/></g><path d="M54.831 24.945a3.84 3.84 0 0 0-2.715-4.703l-34.619-9.276a3.84 3.84 0 0 0-4.703 2.715l-.911 3.4a3.84 3.84 0 0 0 2.715 4.703l34.619 9.276a3.84 3.84 0 0 0 4.703-2.715l.911-3.4z" fill="url(#B)"/><g class="C"><path d="M16.834 13.438l34.619 9.276a1.28 1.28 0 0 1 .905 1.568l-.911 3.4a1.28 1.28 0 0 1-1.568.905L15.26 19.311a1.28 1.28 0 0 1-.905-1.568l.911-3.4a1.28 1.28 0 0 1 1.568-.905zm35.281 6.803a3.84 3.84 0 0 1 2.715 4.703l-.911 3.4a3.84 3.84 0 0 1-4.703 2.715l-34.619-9.276a3.84 3.84 0 0 1-2.715-4.703l.911-3.4a3.84 3.84 0 0 1 4.703-2.715l34.619 9.276z" class="B"/><path d="M38.824 16.68l-8.036-2.153-2.899 10.818 8.037 2.153 2.899-10.818z"/></g><g style="mix-blend-mode:multiply" class="B C"><path d="M38.426 18.08l-8-2.24.32-1.44 8.136 2.257-.456 1.423z"/></g></g><defs><linearGradient id="A" x1="31.212" y1="29.929" x2="38.417" y2="56.821" gradientUnits="userSpaceOnUse"><stop stop-color="#53dee9"/><stop offset="1" stop-color="#1fc7d4"/></linearGradient><linearGradient id="B" x1="34.806" y1="15.604" x2="31.907" y2="26.422" gradientUnits="userSpaceOnUse"><stop stop-color="#53dee9"/><stop offset="1" stop-color="#1fc7d4"/></linearGradient><clipPath id="C"><path fill="#fff" d="M0 0h64v64H0z"/></clipPath></defs></svg>