<svg xmlns="http://www.w3.org/2000/svg" width="64" height="64" fill="none"  opacity=".5" xmlns:v="https://vecta.io/nano"><g fill-rule="evenodd" fill="#7645d9"><path d="M25.994 20.559c-.572-1.003-1.88-1.025-2.382-.04a1.66 1.66 0 0 0 .597 2.119l4.493 2.74-.708-1.311-2-3.508zm-5.595-2.143c1.825-3.582 6.585-3.502 8.664.146l2.025 3.552 4.087 7.574h-6.256c-.332 0-.664-.095-.961-.277l-5.389-3.286c-2.545-1.552-3.528-5.044-2.17-7.709z"/><path d="M38.038 20.559c.572-1.003 1.88-1.025 2.382-.04a1.66 1.66 0 0 1-.597 2.119l-4.493 2.74.708-1.311 2-3.508zm5.595-2.143c-1.825-3.582-6.585-3.502-8.664.146l-2.025 3.552-4.087 7.574h6.256a1.84 1.84 0 0 0 .961-.277l5.389-3.286c2.545-1.552 3.528-5.044 2.17-7.709zM17.585 38.4h28.762v13.135a2.56 2.56 0 0 1-2.56 2.56H20.145a2.56 2.56 0 0 1-2.56-2.56V38.4zm31.322-2.56v15.695a5.12 5.12 0 0 1-5.12 5.12H20.145a5.12 5.12 0 0 1-5.12-5.12V35.84h33.882z"/></g><path d="M34.824 38.4h-5.647v18.24h5.647V38.4z" fill="#7645d9"/><path d="M15.059 41.92v6.4h33.882v-6.4H15.059z" fill="#7645d9"/><path fill-rule="evenodd" d="M16.64 29.687h30.72a1.28 1.28 0 0 1 1.28 1.28v3.52a1.28 1.28 0 0 1-1.28 1.28H16.64a1.28 1.28 0 0 1-1.28-1.28v-3.52a1.28 1.28 0 0 1 1.28-1.28zm30.72-2.56a3.84 3.84 0 0 1 3.84 3.84v3.52a3.84 3.84 0 0 1-3.84 3.84H16.64a3.84 3.84 0 0 1-3.84-3.84v-3.52a3.84 3.84 0 0 1 3.84-3.84h30.72z" fill="#7645d9"/><path d="M34.824 27.2h-5.647v11.2h5.647V27.2z" fill="#7645d9"/><path d="M51.859 19.323l.098-.366c.138-.514.356-.917.654-1.209a5.35 5.35 0 0 1 1.141-.789 9.36 9.36 0 0 1 1.205-.565c.383-.145.712-.319.986-.521s.458-.476.551-.823c.134-.501.049-.902-.255-1.204-.288-.311-.844-.577-1.666-.797a6.36 6.36 0 0 0-1.656-.217c-.561-.013-1.056.034-1.483.14l.697-2.601c.537-.104 1.146-.14 1.826-.11a10.51 10.51 0 0 1 2.196.361c1.49.399 2.539 1.032 3.147 1.897.611.852.766 1.844.463 2.974-.193.719-.497 1.264-.913 1.635-.412.358-.963.692-1.652 1.003l-1.474.72c-.397.197-.661.539-.791 1.027l-.067.25-3.006-.805zm-1.049 3.375l.599-2.235 3.256.873-.599 2.235-3.256-.872zM6.972 44.018l-.062-.231c-.087-.325-.095-.614-.024-.868.079-.256.204-.52.375-.792.157-.26.317-.49.481-.69s.289-.399.375-.597a.92.92 0 0 0 .042-.625c-.085-.317-.258-.51-.521-.579-.256-.079-.644-.049-1.164.09a4.02 4.02 0 0 0-.975.405 3.59 3.59 0 0 0-.768.545L4.29 39.03c.261-.227.583-.439.965-.637.39-.2.829-.366 1.316-.496.942-.252 1.716-.238 2.323.044.604.273 1.002.767 1.194 1.482.122.455.127.849.017 1.184-.113.326-.309.683-.588 1.071l-.579.86c-.155.233-.191.504-.109.813l.042.158-1.9.509zm.492 2.179l-.379-1.413 2.059-.552.379 1.413-2.059.552zm4.291-27.384l-.083-.309c-.116-.434-.127-.82-.032-1.16a4.52 4.52 0 0 1 .501-1.058 7.95 7.95 0 0 1 .642-.922c.219-.268.386-.534.501-.797a1.23 1.23 0 0 0 .055-.834c-.113-.423-.345-.681-.695-.773-.342-.106-.86-.066-1.555.12a5.37 5.37 0 0 0-1.302.541c-.416.228-.758.47-1.026.728l-.589-2.197c.349-.303.779-.586 1.289-.851.521-.268 1.107-.489 1.758-.663 1.258-.337 2.292-.318 3.102.058.807.365 1.338 1.025 1.594 1.979.163.607.17 1.134.023 1.581-.151.436-.412.913-.785 1.431l-.773 1.149c-.207.311-.256.673-.145 1.085l.057.212-2.538.68zm.658 2.91l-.506-1.887 2.75-.737.506 1.887-2.75.737z" fill="#aea0d6"/></svg>