<svg xmlns="http://www.w3.org/2000/svg" width="64" height="64" fill="none"  opacity=".5" xmlns:v="https://vecta.io/nano"><g opacity=".7"><g fill-rule="evenodd" fill="#7645d9"><path d="M26.406 18.728c-.421-.68-1.384-.669-1.765.021-.287.518-.097 1.186.418 1.475l3.471 1.948-.168-.286-1.956-3.158zm-5.055-1.96c1.779-3.215 6.264-3.268 8.228-.098l1.982 3.199 4.03 6.873h-6.262c-.331 0-.659-.086-.952-.251L23.3 23.643a5.11 5.11 0 0 1-1.95-6.875z"/><path d="M38.103 18.728c.421-.68 1.384-.669 1.765.021.287.518.097 1.186-.418 1.475l-3.471 1.948.168-.286 1.956-3.158zm5.055-1.96c-1.779-3.215-6.264-3.268-8.228-.098l-1.982 3.199-4.03 6.873h6.262a1.94 1.94 0 0 0 .952-.251l5.075-2.848a5.11 5.11 0 0 0 1.95-6.875zM19.071 34.311h26.274v10.071a2.56 2.56 0 0 1-2.56 2.56H21.631a2.56 2.56 0 0 1-2.56-2.56V34.311zm28.834-2.56v12.631a5.12 5.12 0 0 1-5.12 5.12H21.631a5.12 5.12 0 0 1-5.12-5.12V31.751h31.394z"/></g><path d="M34.856 33.934h-5.232v15.555h5.232V33.934z" fill="#7645d9"/><path d="M16.542 36.936v5.458h31.394v-5.458H16.542z" fill="#7645d9"/><path fill-rule="evenodd" d="M18.289 26.881h27.9a1.28 1.28 0 0 1 1.28 1.28v1.871a1.28 1.28 0 0 1-1.28 1.28h-27.9a1.28 1.28 0 0 1-1.28-1.28v-1.871a1.28 1.28 0 0 1 1.28-1.28zm27.9-2.56a3.84 3.84 0 0 1 3.84 3.84v1.871a3.84 3.84 0 0 1-3.84 3.84h-27.9a3.84 3.84 0 0 1-3.84-3.84v-1.871a3.84 3.84 0 0 1 3.84-3.84h27.9z" fill="#7645d9"/><path d="M34.856 24.383h-5.232v9.551h5.232v-9.551z" fill="#7645d9"/></g><path fill-rule="evenodd" d="M51.882 12.083L50.6 10.877C39.547 1.108 22.655 1.51 12.083 12.083S1.108 39.547 10.877 50.6a28.63 28.63 0 0 0 1.206 1.283c.418.418.846.82 1.283 1.206 11.053 9.768 27.944 9.366 38.517-1.206s10.975-27.464 1.206-38.517c-.386-.437-.788-.865-1.206-1.283zm-3.777 1.288c-9.673-8.397-24.336-7.996-33.533 1.201s-9.598 23.86-1.201 33.533l34.734-34.734zM15.86 50.594L50.594 15.86c8.397 9.673 7.997 24.336-1.201 33.533s-23.86 9.598-33.533 1.201z" fill="#7645d9"/></svg>