<?xml version="1.0" encoding="UTF-8"?>
<svg width="3906px" height="3606px" viewBox="0 0 3906 3606" version="1.1" xmlns="http://www.w3.org/2000/svg" xmlns:xlink="http://www.w3.org/1999/xlink">
    <title>logo</title>
    <g id="Page-1" stroke="none" stroke-width="1" fill="none" fill-rule="evenodd">
        <g id="Icon---Purple" transform="translate(-454.000000, -684.000000)">
            <g id="icon" transform="translate(587.000000, 817.000000)">
                <path d="M1995.3897,101.999998 L1995.38974,101.999998 C2507.7707,204.75825 2902.1516,615.410492 2984.12218,1131.52494 L2984.12217,1131.52492 C2997.08234,1211.1373 3002.93295,1291.74522 3001.60467,1372.3949 L3001.6047,1372.39348 C2998.42142,1514.32709 2965.3258,1653.99186 2904.48039,1782.26095 L2904.48037,1782.26099 C2815.32982,1964.28197 2676.63193,2117.45586 2504.3254,2224.17971 L1883.69669,2626.27719 L1883.69669,2626.27719 C1848.56881,2642.06641 1826.08865,2677.12018 1826.38989,2715.63218 L1826.38989,2870.06286 L1826.38989,2870.06288 C1826.38989,2923.70355 1869.87726,2967.18787 1923.51794,2967.18787" id="Path" stroke="#882472" stroke-width="194.249987" stroke-linecap="round" stroke-linejoin="round" transform="translate(2414.089473, 1534.593934) rotate(-30.000000) translate(-2414.089473, -1534.593934) "></path>
                <path d="M1539.94378,860.195241 L1539.94378,860.195241 C951.039954,984.616248 529.698136,1504.40493 529.843785,2106.30891 L529.843785,2112.13641 L529.843785,2112.13644 C531.943336,2257.94339 565.051828,2401.63399 626.968817,2533.65891 L626.968785,2533.65884 C716.09573,2717.74664 854.63754,2873.43703 1027.12376,2983.34756 L1415.62373,3247.52754" id="Path" stroke="#882472" stroke-width="194.249987" stroke-linecap="round" stroke-linejoin="round" transform="translate(1034.893783, 2053.861392) rotate(-30.000000) translate(-1034.893783, -2053.861392) "></path>
                <path d="M747.195936,384.709184 L1020.11717,923.75291 L1020.11716,923.752897 C1058.93812,986.780705 1141.503,1006.40413 1204.53033,967.583173 C1222.36442,956.59853 1237.37596,941.586988 1248.3606,923.752897 L1524.19558,384.709184" id="Path" stroke="#882472" stroke-width="194.249987" stroke-linecap="round" stroke-linejoin="round" transform="translate(1135.695760, 686.110878) rotate(-30.000000) translate(-1135.695760, -686.110878) "></path>
                <line x1="1087.2191" y1="999.873396" x2="1087.2191" y2="204.419701" id="Path" stroke="#882472" stroke-width="194.249987" stroke-linecap="round" stroke-linejoin="round" transform="translate(1087.219104, 602.146548) rotate(-30.000000) translate(-1087.219104, -602.146548) "></line>
                <path d="M2282.60623,2822.98312 C2320.53587,2860.91276 2320.53587,2922.40901 2282.60623,2960.33826 C2244.67659,2998.2679 2183.18034,2998.2679 2145.25109,2960.33826 C2107.32145,2922.40862 2107.32145,2860.91237 2145.25109,2822.98312 C2183.18073,2785.05348 2244.67697,2785.05348 2282.60623,2822.98312" id="Path" fill="#882472" fill-rule="nonzero" transform="translate(2213.928658, 2891.660690) rotate(-30.000000) translate(-2213.928658, -2891.660690) "></path>
                <path d="M507.199991,1383.34226 L507.199991,1383.34226 L507.199991,1383.34226 C703.507105,1698.70909 1048.70099,1890.40178 1420.17495,1890.33478 L1596.94244,1890.33478" id="Path" stroke="#882472" stroke-width="194.249987" stroke-linecap="round" stroke-linejoin="round" transform="translate(1052.071214, 1636.838522) rotate(-30.000000) translate(-1052.071214, -1636.838522) "></path>
                <path d="M824.454702,2363.13433 L824.454702,2363.13433 L824.454702,2363.13433 C1000.58408,2489.4075 1192.19032,2592.55424 1394.57841,2670.04931 C1436.01844,2685.5893 1477.45838,2700.15805 1518.8984,2713.75555" id="Path" stroke="#882472" stroke-width="194.249987" stroke-linecap="round" stroke-linejoin="round" transform="translate(1171.676554, 2538.444940) rotate(-30.000000) translate(-1171.676554, -2538.444940) "></path>
                <path d="M584.683112,2047.26125 C584.683112,2047.26125 717.744353,2234.71248 1077.10683,2338.63623" id="Path" stroke="#882472" stroke-width="194.249987" stroke-linecap="round" stroke-linejoin="round" transform="translate(830.894970, 2192.948735) rotate(-30.000000) translate(-830.894970, -2192.948735) "></path>
                <path d="M2910.26998,1149.88294 C2910.26998,1149.88294 2733.50249,1504.38917 2005.06504,1561.69291" id="Path" stroke="#882472" stroke-width="194.249987" stroke-linecap="round" stroke-linejoin="round" transform="translate(2457.667510, 1355.787928) rotate(-30.000000) translate(-2457.667510, -1355.787928) "></path>
            </g>
        </g>
    </g>
</svg>