<svg xmlns="http://www.w3.org/2000/svg" xmlns:xlink="https://www.w3.org/1999/xlink" width="64" height="64" fill="none" xmlns:v="https://vecta.io/nano"><path d="M61.03 22.922a1.87 1.87 0 0 1 .21 2.397 145.99 145.99 0 0 1-34.837 35.147l-1.068.762a1.97 1.97 0 0 1-2.536-.211l-4.81-4.81a7.51 7.51 0 0 0-10.62-10.619l-4.424-4.424c-.84-.84-.725-2.237.243-2.927l1.07-.762A142.46 142.46 0 0 0 38.252 3.177a1.83 1.83 0 0 1 2.788-.244l4.502 4.502a7.51 7.51 0 0 0 10.619 10.619l4.868 4.868z" fill="#dbcdf9"/><path d="M63.16 24.252l-17.193 21.77L23.73 62.856l-4.277-4.308-1.543-1.87 1.543-2.233.54-2.233-.298-2.38-.893-2.233-1.488-1.786-1.786-1.19-1.935-.595h-2.38l-2.53.893-1.488 1.34-3.572-4.316 5.81-.867a106.28 106.28 0 0 0 49.452-21.132l4.277 4.308z" fill="#a28bd4"/><g fill-rule="evenodd" fill="#633001"><path d="M15.818 56.416a2.38 2.38 0 0 1 .701-1.685l.008-.008a5.13 5.13 0 0 0-7.253-7.253l-.008.008a2.38 2.38 0 0 1-3.371.004L1.26 42.848a4.31 4.31 0 0 1 .545-6.55l1.07-.762 1.383 1.94-1.07.762c-.97.69-1.085 2.086-.243 2.927l4.633 4.633.01-.01c2.945-2.933 7.692-2.93 10.62 0a7.51 7.51 0 0 1 .012 10.609l-.023.023 4.598 4.598a1.97 1.97 0 0 0 2.536.211l1.068-.762A145.99 145.99 0 0 0 61.236 25.32a1.87 1.87 0 0 0-.21-2.397l-4.83-4.83-.106.106A7.51 7.51 0 0 1 45.47 7.578l.106-.106-4.538-4.54a1.83 1.83 0 0 0-2.788.244A142.46 142.46 0 0 1 4.257 37.474l-1.383-1.94A140.08 140.08 0 0 0 36.301 1.812a4.21 4.21 0 0 1 6.423-.563l4.54 4.54a2.38 2.38 0 0 1-.017 3.384l-.037.037a5.13 5.13 0 0 0 7.253 7.253l.037-.037a2.38 2.38 0 0 1 3.384-.017l4.83 4.83c1.46 1.46 1.66 3.756.477 5.446a148.37 148.37 0 0 1-35.405 35.72l-1.068.762a4.35 4.35 0 0 1-5.603-.466l-4.598-4.598a2.38 2.38 0 0 1-.697-1.686z"/><use xlink:href="#A"/><use xlink:href="#A" x="4.42" y="4.421"/><use xlink:href="#B"/><use xlink:href="#B" x="4.42" y="4.42"/><path d="M49.46 28.724l1.052 1.052a1.19 1.19 0 1 1-1.684 1.684l-1.052-1.053a1.19 1.19 0 1 1 1.684-1.684z"/><use xlink:href="#A" x="21.89" y="21.891"/><path d="M25.833 29.703c-1.28-1.28-1.28-3.353 0-4.632 1.45-1.45 3.86-1.226 5.018.464l2.918 4.258c2.547-.817 5.25-.71 7.04 1.082 1.6 1.6 1.854 3.982 1.308 6.243-.552 2.286-1.947 4.695-4 6.747s-4.46 3.447-6.747 4c-2.26.546-4.633.3-6.243-1.308-1.78-1.78-1.898-4.463-1.097-6.995l-4.276-2.93c-1.69-1.16-1.914-3.568-.464-5.018 1.28-1.28 3.353-1.28 4.632 0l2.963 2.963.933-1 .975-.903-2.96-2.96z"/></g><g fill="#dbcdf9"><ellipse rx="1.432" ry="2.083" transform="matrix(.707107 -.707106 .707107 .707106 29.5212 40.4549)"/><ellipse rx="1.432" ry="2.083" transform="matrix(.707108 -.707106 .707108 .707106 34.8607 35.1153)"/></g><defs><path id="A" d="M31.99 11.253l1.052 1.052a1.19 1.19 0 1 1-1.684 1.684l-1.052-1.052a1.19 1.19 0 1 1 1.684-1.684z"/><path id="B" d="M41.884 22.83a1.19 1.19 0 0 1-1.684 0l-1.263-1.263a1.19 1.19 0 1 1 1.684-1.684l1.263 1.263a1.19 1.19 0 0 1 0 1.684z"/></defs></svg>