<svg width="192" height="192" viewBox="0 0 192 192" fill="none" xmlns="http://www.w3.org/2000/svg">
<mask id="mask0" style="mask-type:alpha" maskUnits="userSpaceOnUse" x="19" y="19" width="154" height="154">
<path d="M19 79.8C19 58.518 19 47.877 23.1418 39.7484C26.7849 32.5982 32.5982 26.7849 39.7484 23.1418C47.877 19 58.518 19 79.8 19H112.2C133.482 19 144.123 19 152.252 23.1418C159.402 26.7849 165.215 32.5982 168.858 39.7484C173 47.877 173 58.518 173 79.8V112.2C173 133.482 173 144.123 168.858 152.252C165.215 159.402 159.402 165.215 152.252 168.858C144.123 173 133.482 173 112.2 173H79.8C58.518 173 47.877 173 39.7484 168.858C32.5982 165.215 26.7849 159.402 23.1418 152.252C19 144.123 19 133.482 19 112.2V79.8Z" fill="#EFF3F5"/>
</mask>
<g mask="url(#mask0)">
<path d="M6 6H186V186H6V6Z" fill="#1FC7D4"/>
<path d="M161.351 143.439C167.804 167.523 145.358 194.463 111.216 203.611C77.0733 212.76 44.1641 200.652 37.7108 176.568L34.7365 165.468L158.377 132.339L161.351 143.439Z" fill="#FEDC90"/>
<path fill-rule="evenodd" clip-rule="evenodd" d="M38 98C34.5129 90.7146 39.1982 80.0905 47 78C56 75.9968 64.2033 80.3629 66.0481 87.2477L74 115.5C78.0592 113.82 81.9563 112.324 86.4337 111.124C90.8075 109.952 95.1495 109.086 99.4079 108.511L97.5 101.5C95.6552 94.6152 98 88.5455 107.5 86C115.302 83.9095 121.877 88.4471 122.5 96.5L122.5 108.511C142.261 110.296 154.69 118.578 158.377 132.339C163.967 153.203 140.822 177.534 106.679 186.682C72.5371 195.831 40.3272 186.333 34.7365 165.468C31.0682 151.778 36.4361 136.907 52.5 125.5L38 98Z" fill="#D27E3C"/>
<path d="M143.912 120.602C143.409 129.106 125.647 134.972 104.24 133.703C82.834 132.435 65.8893 124.512 66.3932 116.008C66.5516 113.336 68.9217 111.246 72.0661 109.234C72.0661 109.234 73.5851 114.889 74.6006 114.888C81.4297 113.089 96.7028 102.352 106.065 102.906C127.472 104.175 144.416 112.097 143.912 120.602Z" fill="#AE672F"/>
<path fill-rule="evenodd" clip-rule="evenodd" d="M34.1557 117.431C35.0224 118.843 34.5802 120.69 33.1681 121.557L31.5989 119C33.1681 121.557 33.1671 121.557 33.1661 121.558L33.1639 121.559L33.159 121.562L33.1472 121.57L33.1155 121.589C33.0908 121.603 33.0591 121.622 33.0204 121.644C32.9432 121.689 32.8384 121.749 32.7076 121.82C32.4464 121.961 32.08 122.15 31.6222 122.362C30.7101 122.783 29.4148 123.302 27.8496 123.712C24.7403 124.527 20.3719 124.954 15.8411 123.082C13.6101 122.16 11.9444 120.949 10.8106 119.484C9.6621 118.001 9.1875 116.422 9.09231 114.998C8.99959 113.611 9.26717 112.415 9.53539 111.594C9.67189 111.176 9.81593 110.833 9.93249 110.582C9.99107 110.456 10.0436 110.351 10.086 110.27C10.1072 110.23 10.126 110.195 10.1418 110.166L10.1634 110.128L10.1724 110.112L10.1765 110.105L10.1784 110.101C10.1793 110.1 10.1803 110.098 12.7783 111.598L10.1803 110.098C11.0087 108.663 12.8434 108.172 14.2783 109C15.7001 109.821 16.1957 111.63 15.3989 113.059C15.3947 113.067 15.386 113.084 15.374 113.11C15.342 113.179 15.2904 113.299 15.2387 113.457C15.1306 113.788 15.0519 114.193 15.079 114.598C15.1036 114.966 15.2149 115.372 15.5547 115.811C15.9092 116.269 16.6342 116.917 18.1323 117.536C21.0599 118.746 23.9975 118.519 26.3297 117.908C27.4852 117.605 28.4446 117.22 29.1069 116.914C29.4363 116.762 29.687 116.632 29.8462 116.546C29.9256 116.503 29.9817 116.471 30.0129 116.453L30.0401 116.437L30.0361 116.439L30.0331 116.441M34.1557 117.431C33.2912 116.022 31.4512 115.579 30.0405 116.437L34.1557 117.431ZM30.0405 116.437C30.0375 116.438 30.0344 116.44 30.0314 116.442L30.0405 116.437Z" fill="#7645D9"/>
<path fill-rule="evenodd" clip-rule="evenodd" d="M74.6744 75.3907C76.4514 77.8078 76.4522 77.8072 76.453 77.8066L76.4547 77.8053L76.4583 77.8027L76.4664 77.7966L76.4863 77.7818C76.5011 77.7707 76.519 77.7571 76.5399 77.741C76.5816 77.7089 76.6353 77.6669 76.6997 77.615C76.8283 77.5113 77.0002 77.3677 77.2053 77.1845C77.6148 76.8188 78.1614 76.291 78.763 75.6026C79.9614 74.2314 81.4137 72.1823 82.4088 69.4724C82.98 67.9171 82.1821 66.1933 80.6268 65.6221C79.0715 65.051 77.3477 65.8489 76.7766 67.4042C76.0934 69.2646 75.0865 70.6917 74.2453 71.6541C73.8272 72.1325 73.4589 72.4859 73.2084 72.7096C73.0835 72.8212 72.9892 72.8994 72.9341 72.9438C72.9066 72.966 72.889 72.9796 72.8825 72.9846C72.8822 72.9848 72.8819 72.985 72.8817 72.9852C72.8817 72.9852 72.8817 72.9852 72.8817 72.9852C71.5602 73.9698 71.2797 75.838 72.2573 77.1677C73.2387 78.5026 75.1165 78.7892 76.4514 77.8078L74.6744 75.3907Z" fill="#7645D9"/>
<path fill-rule="evenodd" clip-rule="evenodd" d="M51.0656 19.2031C52.6879 19.4836 54.2354 18.403 54.5285 16.78C54.8229 15.1495 53.7399 13.589 52.1094 13.2946L51.5762 16.2468C52.1094 13.2946 52.1079 13.2943 52.1063 13.294L52.1031 13.2935L52.096 13.2922L52.0793 13.2893L52.0364 13.2821C52.0036 13.2767 51.9624 13.2703 51.9136 13.2632C51.816 13.2491 51.6866 13.2322 51.5311 13.2162C51.2228 13.1846 50.7967 13.1549 50.3019 13.1605C49.3765 13.1709 47.9123 13.305 46.5283 14.0395C44.9823 14.8599 43.6988 16.3587 43.3848 18.6012C43.1013 20.6258 43.6527 22.9485 44.8525 25.5739C45.5205 27.0357 45.6384 27.8301 45.6502 28.1762C45.6332 28.1798 45.615 28.1836 45.5955 28.1874C45.0726 28.2893 44.3087 28.2547 43.5202 28.1272C43.157 28.0685 42.8439 27.9993 42.6257 27.9459C42.5176 27.9195 42.4355 27.8975 42.3853 27.8837C42.3603 27.8767 42.3434 27.8719 42.3355 27.8696L42.3357 27.8697M42.3313 27.8684C42.3304 27.8681 42.3301 27.868 42.3304 27.8681L42.333 27.8689L42.3355 27.8696C42.3336 27.869 42.3322 27.8686 42.3313 27.8684M42.3313 27.8684C40.748 27.3936 39.078 28.2895 38.5986 29.8725C38.1184 31.4583 39.0146 33.1331 40.6004 33.6133L41.4698 30.742C40.6004 33.6133 40.6014 33.6136 40.6025 33.6139L40.6049 33.6146L40.6104 33.6163L40.6245 33.6205L40.6641 33.6321C40.6956 33.6412 40.7372 33.6531 40.7879 33.6671C40.8893 33.6951 41.0285 33.7321 41.1988 33.7738C41.5374 33.8567 42.01 33.9609 42.5622 34.0502C43.6046 34.2188 45.1904 34.3793 46.7434 34.0766C48.3357 33.7662 50.4495 32.8213 51.3076 30.3664C52.0674 28.1928 51.4993 25.6834 50.3096 23.08C49.3174 20.9088 49.2722 19.8232 49.3268 19.4333C49.3441 19.3099 49.3435 19.3155 49.342 19.3284C49.3415 19.3334 49.3408 19.3395 49.341 19.3394C49.5038 19.253 49.8604 19.1658 50.3691 19.1601C50.5913 19.1576 50.7856 19.1712 50.9184 19.1849C50.9835 19.1916 51.0298 19.1978 51.0529 19.2012C51.0587 19.202 51.063 19.2027 51.0656 19.2031C51.0656 19.2031 51.0656 19.2031 51.0656 19.2031M45.8568 28.1151C45.8563 28.1149 45.8505 28.1172 45.841 28.1228C45.8526 28.118 45.8573 28.1153 45.8568 28.1151Z" fill="#ED4B9E"/>
<path fill-rule="evenodd" clip-rule="evenodd" d="M26.6352 76.3492C25.048 76.787 24.1088 78.4244 24.5356 80.0175C24.9645 81.6179 26.6095 82.5677 28.2099 82.1388L27.4334 79.2411C28.2099 82.1388 28.2107 82.1386 28.2116 82.1384L28.2171 82.1369L28.2255 82.1346L28.2454 82.1291L28.2978 82.1143C28.3381 82.1026 28.3892 82.0874 28.45 82.0684C28.5711 82.0306 28.7322 81.9773 28.9231 81.9071C29.3007 81.7681 29.8164 81.5549 30.3809 81.2514C31.436 80.6842 33.0306 79.6052 33.9347 77.7569C34.6626 76.2685 34.0462 74.4718 32.5579 73.7438C31.0695 73.0159 29.2728 73.6323 28.5448 75.1206C28.4456 75.3236 28.137 75.6457 27.5398 75.9668C27.2781 76.1075 27.0303 76.2103 26.8511 76.2762C26.7635 76.3084 26.6977 76.3299 26.6617 76.3411C26.6484 76.3453 26.6394 76.3479 26.6352 76.3492Z" fill="#ED4B9E"/>
</g>
<path fill-rule="evenodd" clip-rule="evenodd" d="M160.476 45.9775C160.463 44.331 159.125 43 157.476 43C155.819 43 154.476 44.3432 154.476 46L157.476 46C154.476 46 154.476 46.0009 154.476 46.0018L154.476 46.0075L154.476 46.0162L154.476 46.0368L154.477 46.0913C154.477 46.1332 154.479 46.1866 154.482 46.2501C154.487 46.377 154.496 46.5463 154.515 46.7489C154.551 47.1497 154.624 47.7029 154.771 48.3268C155.046 49.4927 155.675 51.3123 157.227 52.6639C158.476 53.7522 160.371 53.6219 161.459 52.3726C162.548 51.1234 162.417 49.2284 161.168 48.14C160.998 47.9916 160.766 47.6102 160.611 46.9502C160.543 46.661 160.508 46.3951 160.49 46.2049C160.482 46.1119 160.478 46.0428 160.477 46.0051C160.476 45.9912 160.476 45.9819 160.476 45.9775Z" fill="#7645D9"/>
<path d="M106.481 130.881C118.161 132.015 130.467 128.862 137.959 126.119C140.673 125.126 142.039 122.203 141.316 119.411L121.016 41.0066C119.628 35.6454 112.326 34.89 109.841 39.8505L73.3833 112.612C72.0419 115.289 72.8715 118.543 75.4623 120.033C82.7306 124.211 94.781 129.744 106.481 130.881Z" fill="#9A6AFF"/>
<path fill-rule="evenodd" clip-rule="evenodd" d="M137.959 126.119C130.467 128.862 118.161 132.015 106.481 130.88C94.7811 129.744 82.7307 124.211 75.4624 120.032C72.8717 118.543 72.042 115.289 73.3834 112.612L84.9144 89.5984C92.9926 127.572 121.175 124.744 140.826 117.518L141.316 119.411C142.039 122.203 140.673 125.126 137.959 126.119Z" fill="#5E25D2"/>
<path fill-rule="evenodd" clip-rule="evenodd" d="M69.9216 158.173C69.3352 159.705 67.6238 160.484 66.0809 159.915C64.5266 159.341 63.7318 157.616 64.3057 156.061L67.12 157.1C64.3057 156.061 64.3063 156.06 64.3068 156.058L64.3079 156.055L64.3103 156.049L64.3156 156.035L64.3286 156.001C64.3383 155.976 64.3502 155.946 64.3643 155.911C64.3924 155.842 64.4296 155.755 64.4765 155.651C64.5701 155.443 64.7034 155.168 64.8827 154.844C65.2405 154.197 65.7875 153.344 66.5775 152.433C68.1718 150.594 70.7385 148.545 74.6285 147.503C78.5186 146.46 81.7662 146.952 84.0662 147.747C85.206 148.141 86.1063 148.607 86.7394 148.988C87.0567 149.178 87.3095 149.35 87.4946 149.483C87.5872 149.55 87.6632 149.607 87.7221 149.653C87.7516 149.676 87.7768 149.696 87.7977 149.712L87.8259 149.735L87.8376 149.745L87.8429 149.749L87.8453 149.751C87.8465 149.752 87.8477 149.753 85.93 152.06L87.8477 149.753C89.1219 150.812 89.2962 152.704 88.2371 153.978C87.1857 155.243 85.3141 155.424 84.0403 154.39C84.0333 154.385 84.0165 154.372 83.99 154.353C83.927 154.308 83.811 154.228 83.6454 154.128C83.3127 153.928 82.791 153.655 82.1057 153.418C80.7554 152.951 78.7406 152.612 76.1815 153.298C73.6224 153.984 72.0466 155.284 71.1107 156.364C70.6356 156.912 70.3206 157.409 70.1326 157.749C70.039 157.918 69.9785 158.045 69.9466 158.116C69.9332 158.146 69.925 158.165 69.9216 158.173Z" fill="#633001"/>
<path fill-rule="evenodd" clip-rule="evenodd" d="M117.992 145.293C117.405 146.825 115.694 147.604 114.151 147.034C112.597 146.46 111.802 144.735 112.376 143.181L115.19 144.22C112.376 143.181 112.376 143.18 112.377 143.178L112.378 143.175L112.38 143.169L112.386 143.155L112.399 143.121C112.408 143.096 112.42 143.066 112.434 143.031C112.462 142.962 112.5 142.874 112.546 142.77C112.64 142.563 112.773 142.288 112.953 141.964C113.31 141.317 113.857 140.464 114.647 139.553C116.242 137.714 118.808 135.665 122.698 134.622C126.589 133.58 129.836 134.071 132.136 134.867C133.276 135.261 134.176 135.726 134.809 136.107C135.127 136.298 135.379 136.47 135.565 136.603C135.657 136.669 135.733 136.727 135.792 136.772C135.822 136.795 135.847 136.815 135.868 136.832L135.896 136.855L135.908 136.865L135.913 136.869L135.915 136.871C135.916 136.872 135.918 136.873 134 139.18L135.918 136.873C137.192 137.932 137.366 139.823 136.307 141.098C135.256 142.362 133.384 142.544 132.11 141.51C132.103 141.505 132.086 141.492 132.06 141.473C131.997 141.427 131.881 141.348 131.715 141.248C131.383 141.048 130.861 140.774 130.176 140.537C128.825 140.07 126.811 139.732 124.251 140.418C121.692 141.104 120.117 142.404 119.181 143.483C118.706 144.031 118.391 144.529 118.203 144.869C118.109 145.038 118.048 145.165 118.017 145.236C118.003 145.265 117.995 145.285 117.992 145.293Z" fill="#633001"/>
<path d="M105.359 109.521L107.677 87.3631L102.187 87.5513L102.961 80.1498L118.092 79.6834L114.866 110.515L105.359 109.521Z" fill="#FFD800"/>
<path fill-rule="evenodd" clip-rule="evenodd" d="M100.964 113.083L103.22 91.5183L97.7302 91.7065L99.3462 76.2594L122.547 75.5441L118.428 114.91L100.964 113.083ZM107.677 87.3631L105.359 109.521L114.866 110.515L118.092 79.6834L102.961 80.1498L102.187 87.5513L107.677 87.3631Z" fill="#5E25D2"/>
<path d="M150.963 88.3011C150.047 89.9059 147.597 89.2493 147.606 87.4018L147.658 77.4593C147.661 76.811 147.315 76.2112 146.751 75.8899L138.115 70.9629C136.511 70.0473 137.167 67.5969 139.015 67.6064L148.957 67.6575C149.606 67.6609 150.205 67.3145 150.527 66.7514L155.454 58.1154C156.369 56.5107 158.82 57.1673 158.81 59.0148L158.759 68.9573C158.756 69.6056 159.102 70.2054 159.665 70.5267L168.301 75.4537C169.906 76.3692 169.249 78.8196 167.402 78.8101L157.459 78.7591C156.811 78.7557 156.211 79.102 155.89 79.6652L150.963 88.3011Z" fill="white"/>
<path d="M73.5531 54.0619C73.5603 55.4616 71.704 55.959 71.0104 54.7433L67.2778 48.2009C67.0344 47.7742 66.58 47.5119 66.0888 47.5144L58.5567 47.5531C57.157 47.5603 56.6596 45.7039 57.8753 45.0104L64.4177 41.2778C64.8444 41.0344 65.1067 40.58 65.1042 40.0888L65.0655 32.5567C65.0583 31.157 66.9147 30.6596 67.6083 31.8753L71.3408 38.4177C71.5842 38.8443 72.0386 39.1067 72.5298 39.1042L80.062 39.0655C81.4616 39.0583 81.959 40.9146 80.7433 41.6082L74.2009 45.3408C73.7743 45.5842 73.5119 46.0386 73.5144 46.5298L73.5531 54.0619Z" fill="white"/>
<path fill-rule="evenodd" clip-rule="evenodd" d="M162.027 23.3243C163.27 24.4093 165.157 24.2876 166.249 23.0492C167.346 21.8069 167.227 19.9111 165.985 18.8149L164.029 21.0314C165.985 18.8148 165.984 18.8138 165.983 18.8128L165.98 18.8105L165.974 18.8054L165.96 18.793L165.921 18.7598C165.891 18.7341 165.852 18.7011 165.804 18.6619C165.709 18.5837 165.579 18.4801 165.419 18.3592C165.101 18.1194 164.65 17.8021 164.1 17.4797C163.061 16.8701 161.394 16.0768 159.471 16.0052C157.341 15.9259 155.132 16.753 153.477 18.9643C151.962 20.988 151.065 23.9648 150.7 27.9608C150.374 31.5255 149.564 32.6551 149.277 32.9132C149.275 32.9146 149.274 32.9167 149.271 32.9194C149.238 32.958 149.1 33.12 148.34 32.8478C147.473 32.5369 146.468 31.8485 145.576 31.0898C145.155 30.7321 144.806 30.3994 144.566 30.159C144.446 30.0395 144.355 29.9448 144.297 29.8838C144.269 29.8533 144.248 29.8314 144.237 29.8191L144.229 29.8101M162.027 23.3243C162.023 23.321 162.012 23.3116 161.994 23.297C161.958 23.267 161.894 23.2159 161.807 23.1505C161.632 23.0179 161.374 22.8367 161.064 22.655C160.385 22.2564 159.731 22.0191 159.248 22.0011C158.971 21.9908 158.688 22.0151 158.281 22.5595C157.733 23.2915 156.998 24.9748 156.675 28.5065C156.313 32.4697 155.318 35.552 153.286 37.3775C150.988 39.4411 148.253 39.1905 146.316 38.4959C144.433 37.8211 142.774 36.5827 141.69 35.6611C141.122 35.1786 140.655 34.7327 140.326 34.4047C140.161 34.2399 140.029 34.1029 139.935 34.0032C139.888 33.9534 139.85 33.9127 139.822 33.8825L139.788 33.845L139.777 33.8324L139.771 33.8257C139.77 33.8249 139.769 33.824 141.933 31.8788L139.769 33.824C138.661 32.5919 138.762 30.6951 139.994 29.5874C141.225 28.481 143.119 28.5803 144.227 29.8082" fill="#FFD800"/>
<path fill-rule="evenodd" clip-rule="evenodd" d="M38.0271 52.3242C39.2696 53.4092 41.1568 53.2875 42.2495 52.0492C43.3457 50.8068 43.2273 48.911 41.9849 47.8148L41.9826 47.8127L41.98 47.8104L41.96 47.793L41.9214 47.7598C41.8912 47.734 41.852 47.701 41.8043 47.6619C41.7092 47.5837 41.5794 47.48 41.4191 47.3592C41.1009 47.1193 40.6496 46.802 40.0999 46.4796C39.0607 45.87 37.3937 45.0768 35.4711 45.0052C33.3415 44.9259 31.1322 45.7529 29.4771 47.9642C27.9625 49.9879 27.0649 52.9647 26.7 56.9608C26.3744 60.5254 25.5643 61.655 25.2769 61.9132C25.2769 61.9132 25.2736 61.9166 25.2713 61.9193C25.2382 61.958 25.0998 62.12 24.3405 61.8478C23.4731 61.5368 22.4685 60.8485 21.5759 60.0897C21.1553 59.7321 20.8064 59.3994 20.5656 59.1589C20.4459 59.0394 20.355 58.9448 20.2973 58.8837C20.2686 58.8532 20.2483 58.8313 20.237 58.8191L20.2286 58.81M38.0271 52.3242C38.0232 52.3209 38.0121 52.3115 37.9943 52.2969C37.9578 52.2669 37.8943 52.2159 37.8075 52.1505C37.6316 52.0179 37.3739 51.8366 37.0642 51.655C36.3847 51.2564 35.7314 51.019 35.2477 51.001C34.971 50.9907 34.6882 51.015 34.2807 51.5594C33.7329 52.2914 32.9976 53.9747 32.6751 57.5065C32.3131 61.4696 31.3185 64.552 29.2857 66.3774C26.9877 68.441 24.2534 68.1904 22.3158 67.4958C20.4332 66.821 18.7738 65.5826 17.6897 64.6611C17.1221 64.1785 16.6546 63.7327 16.3261 63.4046C16.161 63.2399 16.0291 63.1028 15.935 63.0032C15.8879 62.9533 15.8502 62.9126 15.8223 62.8824L15.7881 62.845L15.7766 62.8324L15.7706 62.8257C15.7706 62.8257 15.7691 62.824 17.9327 60.8788L15.769 62.824C14.6613 61.5918 14.7622 59.695 15.9944 58.5873C17.225 57.4809 19.1187 57.5802 20.227 58.8082" fill="#FFD800"/>
<path fill-rule="evenodd" clip-rule="evenodd" d="M175.08 101.745C176.344 102.799 178.225 102.637 179.29 101.378C180.36 100.113 180.203 98.2198 178.938 97.1495L177 99.4397C178.938 97.1495 178.937 97.1485 178.935 97.1475L178.933 97.1454L178.927 97.1408L178.914 97.1299L178.881 97.1022C178.855 97.0812 178.823 97.055 178.784 97.0245C178.707 96.9634 178.603 96.8841 178.476 96.7925C178.225 96.611 177.871 96.3723 177.44 96.1296C176.633 95.676 175.298 95.06 173.732 95.0041C171.983 94.9416 170.122 95.5978 168.729 97.3829C167.471 98.9945 166.787 101.282 166.514 104.155C166.361 105.755 166.066 106.502 165.903 106.808C165.887 106.802 165.869 106.797 165.85 106.79C165.346 106.617 164.702 106.205 164.083 105.7C163.798 105.468 163.561 105.251 163.399 105.096C163.319 105.019 163.259 104.959 163.222 104.922C163.204 104.904 163.192 104.891 163.186 104.885L163.186 104.885M163.183 104.882C163.182 104.881 163.182 104.881 163.182 104.881L163.184 104.883L163.186 104.885C163.185 104.883 163.184 104.882 163.183 104.882M163.183 104.882C162.049 103.679 160.155 103.62 158.948 104.751C157.739 105.884 157.678 107.783 158.811 108.992L161 106.94C158.811 108.992 158.812 108.992 158.813 108.993L158.815 108.995L158.819 108.999L158.829 109.01L158.857 109.04C158.88 109.063 158.91 109.094 158.947 109.132C159.021 109.207 159.123 109.308 159.249 109.43C159.501 109.671 159.858 109.997 160.292 110.351C161.11 111.018 162.404 111.95 163.9 112.464C165.434 112.992 167.737 113.23 169.708 111.533C171.452 110.031 172.215 107.573 172.486 104.724C172.713 102.348 173.217 101.385 173.459 101.075C173.535 100.976 173.532 100.981 173.524 100.991C173.521 100.995 173.518 101 173.518 101C173.702 101.007 174.055 101.11 174.498 101.359C174.692 101.468 174.853 101.577 174.961 101.655C175.014 101.693 175.051 101.722 175.07 101.737C175.074 101.74 175.078 101.743 175.08 101.745C175.08 101.745 175.08 101.745 175.08 101.745M166.113 106.858C166.112 106.858 166.106 106.857 166.095 106.857C166.108 106.859 166.113 106.859 166.113 106.858Z" fill="#ED4B9E"/>
<path fill-rule="evenodd" clip-rule="evenodd" d="M117.566 46.0476C118.644 45.808 119.713 46.4879 119.952 47.5661L123.952 65.5661C124.192 66.6444 123.512 67.7128 122.434 67.9524C121.356 68.192 120.287 67.5121 120.048 66.4339L116.048 48.4339C115.808 47.3556 116.488 46.2872 117.566 46.0476Z" fill="#CAB3F8"/>
</svg>
