<svg width="191" height="191" viewBox="0 0 191 191" fill="none" xmlns="http://www.w3.org/2000/svg">
<path d="M70.5926 175.705C68.8196 175.023 68.7946 173.92 70.5365 173.226C74.4648 171.661 74.4214 169.166 70.4059 167.621C66.3904 166.077 59.9058 166.06 55.8381 167.571C54.0345 168.241 51.1676 168.232 49.3946 167.55L40.5642 164.152C36.8755 162.733 37.3841 160.379 41.6313 159.214L43.7652 158.628C69.6904 151.515 92.2692 142.752 110.528 132.715C113.467 131.1 119.485 130.897 123.11 132.291L132.097 135.749C133.867 136.43 133.895 137.531 132.159 138.225C128.246 139.79 128.294 142.281 132.305 143.824C136.315 145.367 142.789 145.385 146.857 143.88C148.662 143.212 151.524 143.223 153.294 143.904L163.011 147.642C165.87 148.742 166.264 150.473 163.945 151.747C144.626 162.366 120.737 171.638 93.3074 179.164L91.1748 179.749C87.7826 180.68 83.1389 180.532 80.1927 179.398L70.5926 175.705Z" fill="#FFAF00"/>
<path fill-rule="evenodd" clip-rule="evenodd" d="M69.236 174.794C68.9136 174.234 69.3067 173.625 70.42 173.183C74.3566 171.619 74.313 169.126 70.2891 167.582C66.2652 166.038 59.7671 166.021 55.6908 167.532C53.8834 168.201 51.0106 168.192 49.2338 167.51L40.3849 164.115C36.6885 162.697 37.1982 160.344 41.4543 159.179L43.5926 158.594C69.5722 151.485 92.1982 142.727 110.496 132.696C113.441 131.082 119.471 130.879 123.103 132.273L132.109 135.728C133.884 136.409 133.911 137.509 132.172 138.203C128.25 139.767 128.299 142.256 132.318 143.798C136.337 145.34 142.824 145.359 146.901 143.854C148.709 143.187 151.577 143.198 153.351 143.878L156.299 145.009C146.719 160.812 112.027 172.916 69.236 174.794Z" fill="#FFC700"/>
<path fill-rule="evenodd" clip-rule="evenodd" d="M139.633 144.969L147.581 159.912C142.57 162.187 137.331 164.385 131.875 166.501L112.908 131.819C116.05 131.072 120.294 131.195 123.103 132.273L132.11 135.728C133.884 136.409 133.912 137.509 132.172 138.203C128.251 139.767 128.299 142.256 132.318 143.798C134.339 144.574 136.984 144.964 139.633 144.969ZM99.4746 138.336C102.205 137.03 104.858 135.699 107.43 134.344L125.397 168.938C122.875 169.858 120.311 170.761 117.706 171.646L99.4746 138.336ZM50.4594 156.654C53.242 155.843 55.9832 155.012 58.6818 154.162L65.0887 166.498C62.0634 166.253 58.8085 166.528 56.2986 167.323L50.4594 156.654Z" fill="#FFC700"/>
<path fill-rule="evenodd" clip-rule="evenodd" d="M145.313 155.647L139.633 144.969C137.596 144.965 135.561 144.734 133.811 144.274C133.285 144.136 132.785 143.978 132.318 143.798C128.299 142.256 128.25 139.767 132.172 138.203C133.912 137.509 133.884 136.409 132.109 135.728L123.103 132.273H123.103C121.476 131.648 119.367 131.344 117.27 131.344C115.747 131.344 114.23 131.505 112.908 131.819L130.133 163.316C135.977 161.018 141.086 158.443 145.313 155.647ZM123.685 165.641L107.43 134.344C104.858 135.699 102.205 137.03 99.4746 138.336L115.721 168.019C118.479 167.277 121.137 166.483 123.685 165.641ZM65.0887 166.498L58.6818 154.162C55.9832 155.012 53.242 155.843 50.4594 156.654L56.2986 167.323C56.6123 167.224 56.9377 167.133 57.2728 167.049C59.6187 166.467 62.4415 166.283 65.0887 166.498Z" fill="#FBE461"/>
<path fill-rule="evenodd" clip-rule="evenodd" d="M103.142 140.53L105.109 141.284C105.978 141.618 105.978 142.158 105.109 142.492C104.24 142.825 102.831 142.825 101.962 142.492L99.9954 141.737C99.1264 141.404 99.1264 140.863 99.9954 140.53C100.864 140.196 102.273 140.196 103.142 140.53Z" fill="#FEED8D"/>
<path fill-rule="evenodd" clip-rule="evenodd" d="M111.403 143.699L113.37 144.454C114.239 144.787 114.239 145.328 113.37 145.661C112.501 145.995 111.092 145.995 110.223 145.661L108.256 144.907C107.387 144.573 107.387 144.033 108.256 143.699C109.125 143.366 110.534 143.366 111.403 143.699Z" fill="#FEED8D"/>
<path fill-rule="evenodd" clip-rule="evenodd" d="M121.631 148.831C120.762 149.164 119.353 149.164 118.484 148.831L116.124 147.925C115.254 147.592 115.254 147.051 116.124 146.718C116.993 146.384 118.401 146.384 119.271 146.718L121.631 147.623C122.5 147.957 122.5 148.497 121.631 148.831Z" fill="#FEED8D"/>
<path fill-rule="evenodd" clip-rule="evenodd" d="M129.891 152C129.022 152.334 127.614 152.334 126.745 152L124.384 151.095C123.515 150.761 123.515 150.221 124.384 149.887C125.253 149.554 126.662 149.554 127.531 149.887L129.891 150.793C130.761 151.126 130.761 151.667 129.891 152Z" fill="#FEED8D"/>
<path fill-rule="evenodd" clip-rule="evenodd" d="M135.792 153.057L137.759 153.812C138.628 154.145 138.628 154.686 137.759 155.019C136.89 155.353 135.481 155.353 134.612 155.019L132.645 154.264C131.776 153.931 131.776 153.39 132.645 153.057C133.514 152.724 134.923 152.724 135.792 153.057Z" fill="#FEED8D"/>
<path fill-rule="evenodd" clip-rule="evenodd" d="M144.053 156.227L146.02 156.981C146.889 157.315 146.889 157.855 146.02 158.189C145.151 158.522 143.742 158.522 142.873 158.189L140.906 157.434C140.037 157.101 140.037 156.56 140.906 156.227C141.775 155.893 143.184 155.893 144.053 156.227Z" fill="#FEED8D"/>
<path fill-rule="evenodd" clip-rule="evenodd" d="M88.9059 153.377C86.5878 152.487 86.5878 151.045 88.9059 150.156C91.5327 149.148 95.8996 149.303 97.9995 150.479L103.287 153.439C107.902 152.871 112.8 152.947 116.045 154.192C118.963 155.311 119.406 156.961 118.417 158.533C117.417 160.123 114.887 161.797 111.169 163.224C107.45 164.651 103.085 165.622 98.9417 166.005C94.8443 166.385 90.545 166.215 87.6275 165.096C84.4008 163.857 84.1884 161.992 85.6398 160.232L77.8907 158.194C74.8263 157.389 74.4221 155.713 77.0488 154.705C79.3669 153.816 83.1252 153.816 85.4433 154.705L90.8127 156.765C91.3444 156.526 91.9086 156.292 92.5044 156.063C93.0799 155.842 93.6697 155.633 94.2707 155.435L88.9059 153.377Z" fill="#FEED8D"/>
<path d="M97.4256 160.149C98.8999 160.715 99.2734 161.489 98.2599 161.878C97.2463 162.266 95.2294 162.123 93.7551 161.557C92.2808 160.992 91.9074 160.218 92.9209 159.829C93.9345 159.44 95.9513 159.583 97.4256 160.149Z" fill="#FFC700"/>
<path d="M107.102 156.436C108.577 157.002 108.95 157.776 107.936 158.165C106.923 158.554 104.906 158.41 103.432 157.845C101.957 157.279 101.584 156.505 102.598 156.116C103.611 155.727 105.628 155.871 107.102 156.436Z" fill="#FFC700"/>
<path d="M111.478 159.142C112.619 157.386 110.197 153.434 108.843 151.678L101.05 153.544C100.208 155.117 98.4372 158.615 98.0859 160.02C97.6468 161.777 95.5613 163.423 101.05 164.63C106.538 165.838 110.051 161.337 111.478 159.142Z" fill="#EB8C00"/>
<path d="M81.5259 156.617C81.965 154.422 86.1362 152.885 89.8683 149.702C90.4171 149.263 91.9977 148.451 93.9296 148.714C96.3445 149.043 96.8934 150.361 97.8813 153.983C98.8692 157.605 94.3687 158.264 88.551 159.91C82.7333 161.557 81.0869 158.813 81.5259 156.617Z" fill="#EB8C00"/>
<path d="M93.2536 146.73C93.2536 148.496 96.5788 149.801 94.0393 151.788C92.0897 152.666 88.7705 153.266 87.6728 152.995C86.8114 152.782 84.8099 151.292 84.048 145.994C83.0957 139.372 88.7037 138.048 92.0897 139.446C95.4757 140.844 93.2536 144.964 93.2536 146.73Z" fill="#FFAF00"/>
<path d="M106.645 147.427C106.645 149.351 110.666 151.676 108.127 153.84C106.265 155.427 102.839 155.026 100.976 154.536C100.115 154.304 98.2016 152.397 97.4397 146.626C96.4874 139.411 102.095 137.968 105.481 139.491C108.867 141.014 106.645 145.503 106.645 147.427Z" fill="#FFAF00"/>
<path d="M84.0504 143.006C83.3918 140.591 86.4287 135.066 88.4411 132.359C98.2836 131.81 118.517 128.188 118.517 134.664C118.517 138.739 109.956 142.896 108.199 145.86C106.443 148.824 100.955 148.604 97.1128 147.177C94.0393 146.036 95.2101 143.262 95.4663 141.689C94.2743 143.543 93.8459 144.887 92.1732 145.202C89.6869 145.669 84.5638 144.889 84.0504 143.006Z" fill="#EB8C00"/>
<path d="M88.3314 133.127C82.5356 127.595 89.0631 114.064 93.0514 107.99C96.9664 107.149 105.675 105.466 109.187 105.466C113.578 105.466 122.359 128.407 120.054 133.127C117.749 137.847 95.576 140.042 88.3314 133.127Z" fill="#FEED8D"/>
<path d="M123.747 127.491C117.509 129.398 105.447 122.136 100.195 118.267C99.9864 115.794 99.7046 110.343 100.247 108.32C100.924 105.792 124.439 106.672 128.643 109.221C132.846 111.77 131.545 125.109 123.747 127.491Z" fill="#FEED8D"/>
<path d="M136.421 113.912C133.786 113.912 130.603 109.741 127.639 112.376C125.467 114.307 126.016 117.861 126.687 119.793C127.004 120.687 129.615 122.672 137.519 123.462C147.398 124.45 149.373 118.632 147.288 115.12C145.202 111.607 139.055 113.912 136.421 113.912Z" fill="#FFC700"/>
<path d="M71.0059 104.103C73.5506 104.785 77.7049 101.58 79.8858 104.892C81.4848 107.32 80.0337 110.611 78.8861 112.304C78.3481 113.085 75.3125 114.326 67.474 113.044C57.6758 111.441 57.2731 105.31 60.1967 102.457C63.1203 99.6041 68.4613 103.422 71.0059 104.103Z" fill="#FFAF00"/>
<path d="M78.9996 120.253C84.3785 123.656 97.5341 119.823 103.44 117.482C104.258 115.183 105.894 110.07 105.894 108.008C105.894 105.43 83.5888 100.273 78.9996 101.627C74.4105 102.98 72.276 115.999 78.9996 120.253Z" fill="#FEED8D"/>
<path d="M90.6196 108.931C92.7418 112.7 97.9521 119.952 101.816 118.811C105.68 117.669 109.28 109.7 110.597 105.858" stroke="#FFC700" stroke-width="2.19535"/>
<ellipse cx="101.604" cy="122.513" rx="7.90326" ry="6.58605" transform="rotate(-15 101.604 122.513)" fill="#FFAF00"/>
<ellipse cx="101.15" cy="120.816" rx="7.90326" ry="6.58605" transform="rotate(-15 101.15 120.816)" fill="#FFC700"/>
<path d="M55.5112 35.2501C48.0106 25.9324 53.063 13.6473 64.5147 10.5789C73.8453 8.07875 81.9912 10.5821 85.5456 21.4891C89.1 32.3962 93.4029 50.813 93.4029 50.813C95.0082 56.804 90.9944 63.0848 84.4378 64.8416C79.2787 66.224 73.8944 64.4036 71.1154 60.3373C71.1154 60.3373 63.0117 44.5679 55.5112 35.2501Z" fill="#FFC700"/>
<path d="M93.6585 23.3371C92.2584 11.128 102.381 2.42052 113.073 5.28518C121.783 7.61924 127.071 13.9315 124.524 25.6386C121.977 37.3458 116.315 56.2735 116.315 56.2735C114.638 62.5323 108.316 66.2764 102.195 64.6363C97.3789 63.3458 93.9661 59.0222 93.751 53.9386C93.751 53.9386 95.0586 35.5461 93.6585 23.3371Z" fill="#FFC700"/>
<path d="M140.015 72.0495C143.668 92.1434 130.533 105.597 106.611 109.945C82.6891 114.294 60.5906 107.777 56.9378 87.6834C53.2851 67.5894 70.3734 46.5459 94.2954 42.1972C118.217 37.8486 136.362 51.9555 140.015 72.0495Z" fill="#FFC700"/>
<path fill-rule="evenodd" clip-rule="evenodd" d="M106.79 88.9017C107.878 88.7984 108.844 89.5967 108.947 90.6846C109.419 95.6578 105.398 99.7923 100.407 100.266C99.3192 100.369 98.3535 99.5711 98.2503 98.4831C98.147 97.3952 98.9452 96.4295 100.033 96.3262C103.21 96.0247 105.24 93.511 105.007 91.0586C104.904 89.9706 105.702 89.005 106.79 88.9017Z" fill="#A35E3A"/>
<path fill-rule="evenodd" clip-rule="evenodd" d="M106.79 88.9016C107.878 88.7984 108.844 89.5966 108.947 90.6845C109.18 93.1369 111.646 95.2239 114.823 94.9223C115.911 94.8191 116.877 95.6173 116.98 96.7052C117.083 97.7932 116.285 98.7588 115.197 98.8621C110.206 99.3359 105.479 96.0317 105.007 91.0585C104.904 89.9706 105.702 89.0049 106.79 88.9016Z" fill="#A35E3A"/>
<path d="M93.9692 83.3271C96.0688 88.5732 94.5254 91.4993 91.6392 92.6544C88.753 93.8095 85.617 92.7562 83.5174 87.5101C81.4178 82.264 82.9612 79.3378 85.8474 78.1827C88.7335 77.0276 91.8696 78.081 93.9692 83.3271Z" fill="#452A7A"/>
<path d="M124.367 78.0577C125.595 83.5735 123.6 86.2128 120.565 86.888C117.531 87.5632 114.605 86.0185 113.378 80.5027C112.151 74.9869 114.146 72.3476 117.18 71.6724C120.215 70.9972 123.14 72.5419 124.367 78.0577Z" fill="#452A7A"/>
<path d="M122.724 50.2533C124.827 55.946 113.882 57.6552 101.392 57.6701C88.9026 57.6849 77.5842 53.5254 77.5804 50.3642C77.5767 47.203 87.8834 45.0256 100.373 45.0107C112.863 44.9959 121.556 47.0907 122.724 50.2533Z" fill="#A35E3A"/>
<path d="M121.317 50.2983C121.321 53.8484 112.019 56.702 99.8382 56.7164C87.6574 56.7309 77.599 53.4186 77.5947 49.8686C77.5905 46.3185 87.6421 43.8751 99.8229 43.8606C112.004 43.8462 121.313 46.7483 121.317 50.2983Z" fill="#CB7E39"/>
<path d="M121.287 44.3514L77.7307 44.8853L76.9868 47.3862L77.5942 49.8687L121.316 50.2985L121.876 47.7785L121.287 44.3514Z" fill="#CB7E39"/>
<path d="M121.288 44.3514C121.292 47.9014 111.225 50.9202 99.2805 50.9344C87.336 50.9486 77.735 48.4352 77.7308 44.8852C77.7266 41.3352 87.3207 38.0928 99.2652 38.0786C111.21 38.0644 121.283 40.8013 121.288 44.3514Z" fill="#FEED8D"/>
<path d="M87.0431 70.3402C78.9642 69.9011 69.1144 72.5721 65.1993 73.9625C64.3212 75.7188 64.8335 78.4996 65.1993 79.6704C70.1389 82.9634 67.1752 89.4397 71.3463 95.0379C75.5175 100.636 82.1035 101.404 93.19 99.209C102.059 97.4527 104.203 85.4515 104.167 79.6704H108.448C111.851 98.6602 121.51 97.4527 125.681 96.7941C129.852 96.1355 136.93 94.6613 138.853 89.4397C141.927 81.0974 141.707 78.0239 143.244 74.7309C145.264 72.4477 144.086 68.8766 143.244 67.3764C138.414 67.0471 127.503 66.5861 122.498 67.3764C116.241 68.3644 110.424 72.6453 105.813 73.1941C101.203 73.743 97.1417 70.889 87.0431 70.3402Z" fill="#E8574E"/>
<path d="M136.878 74.5113C136.878 68.5838 130.357 69.6322 122.937 70.5597C115.912 71.4378 113.387 74.6211 112.18 77.2555C110.973 79.8899 111.851 87.1346 116.351 91.635C120.477 95.7604 126.12 94.2694 130.95 92.2936C137.53 89.6021 136.878 80.3692 136.878 74.5113Z" fill="#452A7A"/>
<path d="M100.654 78.0239C99.1615 74.2479 88.9459 73.56 84.5187 74.0722C81.8842 74.5113 77.0105 74.9943 75.5176 76.4871C73.6516 78.3532 72.3343 79.9997 73.432 87.2443C74.5327 94.5093 78.701 97.3429 84.5187 97.4527C90.3363 97.5625 92.7513 97.6746 97.0321 94.2694C101.313 90.8642 102.52 82.7439 100.654 78.0239Z" fill="#452A7A"/>
<path d="M57.3275 73.8177C59.3087 72.8151 67.8409 73.681 67.8409 73.681L67.822 81.6799C67.822 81.6799 63.7833 81.3702 62.3653 80.4052C61.2954 79.6771 60.2401 78.1382 59.0845 78.1734C56.6303 78.2481 56.0468 80.62 54.2654 80.7675C52.4841 80.915 52.125 79.1573 52.5736 77.8924C53.165 76.2248 55.3464 74.8203 57.3275 73.8177Z" fill="#E8574E"/>
</svg>
