<svg width="192" height="194" viewBox="0 0 192 194" fill="none" xmlns="http://www.w3.org/2000/svg">
<g clip-path="url(#clip0)">
<path d="M173.448 97.4973C172.922 99.5009 170.078 99.5009 169.552 97.4973L166.722 86.7147C166.538 86.0116 165.988 85.4624 165.285 85.2779L154.503 82.448C152.499 81.9222 152.499 79.0778 154.503 78.552L165.285 75.7221C165.988 75.5376 166.538 74.9884 166.722 74.2853L169.552 63.5027C170.078 61.4991 172.922 61.4991 173.448 63.5027L176.278 74.2853C176.462 74.9884 177.012 75.5376 177.715 75.7221L188.497 78.552C190.501 79.0778 190.501 81.9222 188.497 82.448L177.715 85.2779C177.012 85.4624 176.462 86.0116 176.278 86.7147L173.448 97.4973Z" fill="#D6D6D6"/>
<path d="M39.8692 72.1723C39.2297 74.6092 35.7703 74.6092 35.1308 72.1723L31.689 59.0584C31.4646 58.2032 30.7968 57.5354 29.9416 57.311L16.8277 53.8692C14.3908 53.2297 14.3908 49.7703 16.8277 49.1308L29.9416 45.689C30.7968 45.4646 31.4646 44.7968 31.689 43.9416L35.1308 30.8277C35.7703 28.3908 39.2297 28.3908 39.8692 30.8277L43.311 43.9416C43.5354 44.7968 44.2033 45.4646 45.0584 45.689L58.1723 49.1308C60.6092 49.7703 60.6092 53.2297 58.1723 53.8692L45.0584 57.311C44.2033 57.5354 43.5354 58.2032 43.311 59.0584L39.8692 72.1723Z" fill="#D6D6D6"/>
<path d="M27.0268 168.822C26.6147 170.393 24.3853 170.393 23.9732 168.822L21.7551 160.371C21.6105 159.82 21.1801 159.389 20.629 159.245L12.1778 157.027C10.6074 156.615 10.6074 154.385 12.1778 153.973L20.629 151.755C21.1801 151.611 21.6105 151.18 21.7551 150.629L23.9732 142.178C24.3853 140.607 26.6147 140.607 27.0268 142.178L29.2449 150.629C29.3895 151.18 29.8199 151.611 30.371 151.755L38.8222 153.973C40.3926 154.385 40.3926 156.615 38.8222 157.027L30.371 159.245C29.8199 159.389 29.3895 159.82 29.2449 160.371L27.0268 168.822Z" fill="#D6D6D6"/>
<path d="M154.226 130.2C154.226 162.079 128.508 187.923 96.7834 187.923C65.0586 187.923 39.3406 162.079 39.3406 130.2C39.3406 98.3201 65.0586 51.6443 96.7834 51.6443C128.508 51.6443 154.226 98.3201 154.226 130.2Z" fill="#C0C4C6"/>
<path d="M50.9759 87.7167C61.4647 67.8671 78.0802 51.6443 96.7834 51.6443C106.751 51.6443 116.125 56.2517 124.296 63.5602C128.212 76.3278 123.488 92.8002 111.118 105.17C94.769 121.519 71.2549 124.512 58.5977 111.855C52.433 105.69 49.9807 96.9501 50.9759 87.7167Z" fill="#D6D6D6"/>
<path d="M86.7193 96.7194C94.6771 88.7616 96.1338 77.3162 89.9729 71.1553C83.8121 64.9944 72.3666 66.4511 64.4088 74.4089C56.451 82.3667 54.9943 93.8122 61.1552 99.973C67.3161 106.134 78.7615 104.677 86.7193 96.7194Z" fill="#E4E4E4"/>
<path d="M147.588 116.745C146.743 113.756 142.639 114.536 142.081 117.591C136.587 147.682 110.238 170.491 78.5602 170.491C76.9616 170.491 75.3766 170.433 73.8072 170.319C70.7013 170.093 68.9317 173.874 71.6272 175.433C79.2606 179.849 88.1231 182.376 97.5758 182.376C126.238 182.376 149.472 159.141 149.472 130.48C149.472 125.662 148.816 121.087 147.588 116.745Z" fill="#B2B2B2"/>
<path d="M84.7383 175.501C113.57 175.501 137.989 156.605 146.285 130.522C146.838 128.786 149.312 128.913 149.312 130.735C149.312 159.397 126.077 182.632 97.4154 182.632C92.476 182.632 87.6978 181.942 83.1718 180.653C79.9057 179.722 81.3422 175.501 84.7383 175.501Z" fill="#969696"/>
<path d="M73.0661 86.066C69.7739 89.3581 66.9398 91.8616 64.4707 89.3925C62.0016 86.9234 62.6688 82.253 65.961 78.9609C69.2531 75.6688 73.9235 75.0016 76.3926 77.4707C78.8617 79.9398 76.3582 82.7738 73.0661 86.066Z" fill="white"/>
<path d="M89.773 155L89.773 111.109L79.7808 112.603L79.7808 97.9414L107.33 93.9258L107.33 155L89.773 155Z" fill="#7D7D7D"/>
<path fill-rule="evenodd" clip-rule="evenodd" d="M87.0596 157.713L87.0596 114.258L77.0674 115.752L77.0674 95.5949L110.043 90.7883L110.043 157.713L87.0596 157.713ZM89.773 111.109L89.773 155L107.329 155L107.329 93.9258L79.7807 97.9414L79.7807 112.603L89.773 111.109Z" fill="#C0C4C6"/>
<path d="M119.351 20.752C116.607 12.0864 115.951 2.88754 115.951 2.88754C115.951 2.88754 112.174 10.9758 106.662 18.0101C104.305 23.976 98.8733 28.1897 92.42 29.0062C84.1884 30.0478 77.1767 25.1974 75.8681 16.7622C73.3553 13.2169 71.5033 9.53622 70.7398 6.82747L69.806 11.8794C66.8889 27.6605 67.7927 43.8133 72.4125 58.4631L136.745 70.3546C146.296 58.3243 152.914 43.562 155.832 27.7809L156.765 22.7289C155.118 24.9402 152.161 27.6492 148.643 30.0273C144.435 37.5757 136.083 39.6597 128.712 35.7147C123.096 32.7088 119.559 27.0106 119.351 20.752Z" fill="#FFC700"/>
<path fill-rule="evenodd" clip-rule="evenodd" d="M116.482 8.20055C116.959 11.6419 117.829 16.5543 119.331 21.3048C119.481 25.8582 121.408 30.1119 124.622 33.2302L114.737 66.2462L104.744 64.3158L79.0272 59.7757C76.3901 44.2328 76.1482 34.7525 76.718 19.3747C78.7395 26.4787 85.1943 30.437 92.6648 29.4895C99.0544 28.6792 104.433 24.5025 106.768 18.5897C109.748 14.784 112.215 10.667 113.842 7.71263L116.482 8.20055Z" fill="#FFD800"/>
<path fill-rule="evenodd" clip-rule="evenodd" d="M99.9965 63.4774L104.397 22.7818C101.794 26.1757 97.9871 28.5403 93.6474 29.3375C92.9478 39.3675 92.8975 48.6495 93.8667 62.3953L99.9965 63.4774ZM89.885 61.6924C89.4079 49.1668 89.3617 40.0523 90.0911 29.6235C86.9393 29.5461 84.0598 28.5646 81.741 26.8274C81.1608 37.427 81.0605 50.9349 83.2491 60.5209L89.885 61.6924Z" fill="#FFE971"/>
<path fill-rule="evenodd" clip-rule="evenodd" d="M108.069 16.024C107.714 16.5051 107.351 16.9842 106.979 17.4585C104.645 23.3712 99.2662 27.5479 92.8766 28.3583C84.7263 29.3919 77.7849 24.5864 76.4907 16.2272C76.3691 16.0555 76.2492 15.8835 76.1308 15.7114C76.0051 16.5691 75.9566 17.4422 75.9906 18.3235C76.2976 26.2948 83.2301 31.9093 92.607 30.7201C101.283 29.6197 107.44 23.2798 108.069 16.024Z" fill="#FFE971"/>
<path fill-rule="evenodd" clip-rule="evenodd" d="M119.145 18.0712C119.305 18.6474 119.473 19.2249 119.65 19.8008C119.717 26.1574 123.247 31.9809 128.925 35.0218C136.167 38.9007 144.368 36.8941 148.565 29.5499C148.739 29.4331 148.913 29.3154 149.085 29.197C148.896 30.043 148.629 30.8757 148.282 31.6866C145.146 39.0214 136.664 41.7866 128.332 37.324C120.623 33.1948 117.139 25.0724 119.145 18.0712Z" fill="#FFD800"/>
<path d="M127.452 16.1206C125.795 22.22 118.927 24.8455 111.858 22.9245C104.788 21.0034 100.194 15.2632 101.851 9.16389C103.509 3.06454 110.376 0.439005 117.446 2.36006C124.515 4.28111 129.109 10.0213 127.452 16.1206Z" fill="#FFC700"/>
<path d="M123.426 8.18027C123.414 11.8383 119.059 9.22198 113.677 9.20295C108.294 9.18392 103.921 11.7694 103.934 8.11136C103.947 4.45337 108.32 1.96019 113.702 1.97922C119.085 1.99825 123.439 4.52228 123.426 8.18027Z" fill="#FFD800"/>
<path d="M108.034 19.1104C107.549 16.8887 111.273 18.5803 115.967 18.4097C120.662 18.2391 124.484 14.459 124.589 17.3502C124.694 20.2415 120.961 22.3444 116.267 22.515C111.572 22.6856 108.518 21.3321 108.034 19.1104Z" fill="#FFAF00"/>
<path d="M118.463 5.79719C118.457 7.52993 115.95 6.28906 112.853 6.27811C109.755 6.26716 107.24 7.49027 107.246 5.75754C107.252 4.0248 109.767 2.84539 112.865 2.85635C115.962 2.8673 118.469 4.06446 118.463 5.79719Z" fill="#FEED8D"/>
<path d="M163.059 26.6018C162.217 31.1607 157.624 33.5451 152.672 32.6298C147.72 31.7144 144.284 27.846 145.127 23.287C145.969 18.7281 150.562 16.3437 155.514 17.2591C160.466 18.1744 163.902 22.0429 163.059 26.6018Z" fill="#FFC700"/>
<path d="M159.988 21.2236C160.188 23.7503 157.031 22.1924 153.313 22.4868C149.595 22.7812 146.723 24.8164 146.523 22.2897C146.323 19.7629 149.2 17.7915 152.918 17.4971C156.636 17.2027 159.787 18.6968 159.988 21.2236Z" fill="#FFD800"/>
<path d="M149.872 30.1023C149.41 28.5957 152.078 29.5511 155.31 29.1651C158.542 28.779 160.965 25.9503 161.203 27.9409C161.441 29.9314 158.983 31.5968 155.752 31.9829C152.52 32.3689 150.333 31.6088 149.872 30.1023Z" fill="#FFAF00"/>
<path d="M156.425 19.8615C156.519 21.0584 154.717 20.3447 152.578 20.5142C150.438 20.6836 148.771 21.6719 148.676 20.475C148.581 19.2781 150.251 18.32 152.391 18.1506C154.53 17.9812 156.33 18.6646 156.425 19.8615Z" fill="#FEED8D"/>
<path d="M81.9316 11.6056C81.0889 16.1645 76.4966 18.5489 71.5447 17.6336C66.5928 16.7182 63.1564 12.8498 63.9991 8.29086C64.8418 3.73194 69.434 1.34753 74.3859 2.26287C79.3378 3.17822 82.7743 7.04669 81.9316 11.6056Z" fill="#FFC700"/>
<path d="M78.8598 6.22742C79.0599 8.75418 75.9036 7.19629 72.1856 7.49069C68.4675 7.78509 65.5957 9.82029 65.3956 7.29354C65.1956 4.76678 68.0724 2.79531 71.7905 2.50091C75.5085 2.20651 78.6598 3.70067 78.8598 6.22742Z" fill="#FFD800"/>
<path d="M68.7442 15.1061C68.2827 13.5996 70.9508 14.555 74.1827 14.169C77.4147 13.7829 79.838 10.9542 80.0758 12.9448C80.3135 14.9353 77.856 16.6007 74.6241 16.9867C71.3922 17.3728 69.2057 16.6127 68.7442 15.1061Z" fill="#FFAF00"/>
<path d="M75.2966 4.86519C75.3913 6.06208 73.5894 5.34843 71.4498 5.51785C69.3101 5.68727 67.643 6.67561 67.5482 5.47872C67.4534 4.28184 69.123 3.32369 71.2626 3.15426C73.4023 2.98484 75.2018 3.66831 75.2966 4.86519Z" fill="#FEED8D"/>
<path d="M139.396 74.1752C138.374 79.7048 136.904 81.8501 102.542 75.4984C68.1797 69.1467 67.5736 66.6176 68.5957 61.088C69.6178 55.5584 70.7244 55.3799 105.087 61.7316C139.449 68.0833 140.418 68.6457 139.396 74.1752Z" fill="#B6ADAD"/>
<path d="M139.962 72.7978C139.11 77.4049 137.703 79.1586 103.037 72.7506C68.3703 66.3427 67.6829 64.2019 68.5345 59.5948C69.3861 54.9877 70.4905 54.8726 105.157 61.2806C139.823 67.6885 140.813 68.1907 139.962 72.7978Z" fill="#D8D8D8"/>
<path d="M113.243 68.2892C112.362 72.6829 109.392 72.681 89.6278 68.6417C75.0285 65.6579 71.2476 64.569 71.8664 61.4806C72.4852 58.3923 74.168 57.4783 91.1684 60.9528C110.932 64.9922 113.862 65.2009 113.243 68.2892Z" fill="#EFF3F5"/>
<path d="M76.9619 64.2204C76.3743 63.2521 77.1401 62.1912 78.3225 61.274C79.5049 60.3568 80.656 59.9307 81.2436 60.899C81.8313 61.8673 81.0654 62.9282 79.8831 63.8454C78.7007 64.7626 77.5496 65.1887 76.9619 64.2204Z" fill="#7D7D7D"/>
<path d="M76.8385 64.0171C76.3438 63.2019 77.1401 62.1912 78.3225 61.274C79.5048 60.3568 80.6255 59.8805 81.1202 60.6957C81.6149 61.5108 80.8186 62.5216 79.6362 63.4388C78.4539 64.3559 77.3332 64.8322 76.8385 64.0171Z" fill="#373333"/>
<path d="M131.892 73.7934C131.304 72.8252 132.07 71.7642 133.252 70.847C134.435 69.9298 135.586 69.5037 136.173 70.472C136.761 71.4403 135.995 72.5012 134.813 73.4184C133.63 74.3356 132.479 74.7617 131.892 73.7934Z" fill="#7D7D7D"/>
<path d="M131.778 73.6066C131.276 72.779 132.07 71.7641 133.252 70.8469C134.434 69.9297 135.558 69.4575 136.06 70.2852C136.562 71.1129 135.768 72.1277 134.586 73.0449C133.404 73.9621 132.28 74.4343 131.778 73.6066Z" fill="#373333"/>
<path d="M88.1461 66.472C87.4491 65.3237 88.3574 64.0654 89.7597 62.9777C91.1619 61.8899 92.5271 61.3846 93.224 62.5329C93.921 63.6813 93.0127 64.9395 91.6104 66.0273C90.2082 67.115 88.843 67.6204 88.1461 66.472Z" fill="#7D7D7D"/>
<path d="M87.9597 66.165C87.4032 65.248 88.3575 64.0656 89.7597 62.9779C91.162 61.8901 92.4811 61.3089 93.0377 62.2259C93.5942 63.1429 92.6399 64.3253 91.2376 65.4131C89.8354 66.5008 88.5162 67.082 87.9597 66.165Z" fill="#373333"/>
<path d="M117.774 71.9487C117.077 70.8004 117.986 69.5421 119.388 68.4544C120.79 67.3666 122.155 66.8613 122.852 68.0096C123.549 69.158 122.641 70.4162 121.239 71.504C119.836 72.5917 118.471 73.0971 117.774 71.9487Z" fill="#7D7D7D"/>
<path d="M117.615 71.6865C117.038 70.7358 117.986 69.5423 119.388 68.4545C120.79 67.3668 122.116 66.7967 122.693 67.7474C123.27 68.6982 122.322 69.8917 120.92 70.9794C119.518 72.0672 118.192 72.6373 117.615 71.6865Z" fill="#373333"/>
<path d="M102.305 69.7813C101.495 68.4469 102.551 66.9848 104.18 65.7208C105.81 64.4568 107.396 63.8695 108.206 65.204C109.016 66.5384 107.96 68.0005 106.331 69.2645C104.701 70.5285 103.115 71.1158 102.305 69.7813Z" fill="#7D7D7D"/>
<path d="M102.146 69.5188C101.456 68.3821 102.551 66.9848 104.18 65.7208C105.81 64.4568 107.357 63.8047 108.046 64.9414C108.736 66.078 107.641 67.4753 106.012 68.7393C104.383 70.0033 102.835 70.6554 102.146 69.5188Z" fill="#373333"/>
<path d="M108.6 33.5871C109.826 32.7661 111.511 33.0775 112.363 34.2827L118.73 43.2908C119.582 44.496 119.278 46.1385 118.052 46.9595L108.885 53.0964C107.659 53.9174 105.974 53.606 105.122 52.4009L98.7555 43.3927C97.9037 42.1875 98.2074 40.545 99.4337 39.724L108.6 33.5871Z" fill="#FFE971"/>
<path d="M110.761 31.7817L108.951 41.5734L99.1593 39.7634C99.2803 39.1089 99.651 38.5005 100.243 38.0934L108.814 32.1965C109.406 31.7894 110.106 31.6607 110.761 31.7817Z" fill="#FA7048"/>
<path d="M107.141 51.365L108.951 41.5734L99.1593 39.7634C99.0383 40.418 99.167 41.1187 99.5741 41.7104L105.471 50.2816C105.878 50.8733 106.486 51.244 107.141 51.365Z" fill="#CC240E"/>
<path d="M110.761 31.7816L108.951 41.5732L118.743 43.3832C118.864 42.7286 118.735 42.0279 118.328 41.4362L112.431 32.865C112.024 32.2733 111.415 31.9026 110.761 31.7816Z" fill="#CC240E"/>
<path d="M107.141 51.3649L108.951 41.5733L118.743 43.3833C118.622 44.0378 118.251 44.6462 117.659 45.0533L109.088 50.9501C108.496 51.3572 107.796 51.4859 107.141 51.3649Z" fill="#9F0400"/>
<path d="M134.577 47.319C135.268 46.7905 136.199 46.9626 136.656 47.7033L140.071 53.2399C140.527 53.9806 140.337 55.0095 139.646 55.5379L134.477 59.488C133.786 60.0164 132.855 59.8444 132.398 59.1037L128.983 53.567C128.527 52.8263 128.717 51.7975 129.408 51.269L134.577 47.319Z" fill="#FFE971"/>
<path d="M135.825 46.4823L134.773 52.1751L129.08 51.1228C129.151 50.7423 129.366 50.3885 129.71 50.1519L134.693 46.7235C135.037 46.4868 135.445 46.4119 135.825 46.4823Z" fill="#FA7048"/>
<path d="M133.721 57.8679L134.773 52.1751L129.08 51.1228C129.01 51.5033 129.085 51.9107 129.322 52.2547L132.75 57.238C132.987 57.582 133.34 57.7976 133.721 57.8679Z" fill="#CC240E"/>
<path d="M135.825 46.4822L134.773 52.175L140.466 53.2273C140.536 52.8467 140.461 52.4393 140.225 52.0953L136.796 47.112C136.56 46.768 136.206 46.5525 135.825 46.4822Z" fill="#CC240E"/>
<path d="M133.721 57.8679L134.773 52.1751L140.466 53.2274C140.396 53.608 140.18 53.9617 139.836 54.1984L134.853 57.6268C134.509 57.8634 134.101 57.9383 133.721 57.8679Z" fill="#9F0400"/>
<path d="M80.2795 37.2825C80.9709 36.7541 81.9018 36.9261 82.3586 37.6668L85.7735 43.2035C86.2303 43.9442 86.0401 44.973 85.3487 45.5015L80.1803 49.4515C79.4889 49.98 78.558 49.8079 78.1012 49.0672L74.6863 43.5306C74.2295 42.7899 74.4197 41.761 75.1111 41.2326L80.2795 37.2825Z" fill="#FFE971"/>
<path d="M81.5844 36.4567L80.5321 42.1495L74.8393 41.0972C74.9097 40.7167 75.1252 40.363 75.4692 40.1263L80.4525 36.6979C80.7965 36.4612 81.2039 36.3864 81.5844 36.4567Z" fill="#FA7048"/>
<path d="M79.4802 47.8416L80.5325 42.1488L74.8396 41.0965C74.7693 41.477 74.8441 41.8844 75.0808 42.2284L78.5092 47.2117C78.7459 47.5557 79.0996 47.7712 79.4802 47.8416Z" fill="#CC240E"/>
<path d="M81.5843 36.4558L80.532 42.1486L86.2248 43.2009C86.2951 42.8204 86.2203 42.413 85.9836 42.0689L82.5552 37.0857C82.3185 36.7417 81.9648 36.5261 81.5843 36.4558Z" fill="#CC240E"/>
<path d="M79.48 47.8416L80.5323 42.1487L86.2251 43.201C86.1548 43.5816 85.9393 43.9353 85.5953 44.172L80.612 47.6004C80.268 47.8371 79.8606 47.9119 79.48 47.8416Z" fill="#9F0400"/>
</g>
<defs>
<clipPath id="clip0">
<rect width="192" height="194" fill="white"/>
</clipPath>
</defs>
</svg>
