<svg width="192" height="192" viewBox="0 0 192 192" fill="none" xmlns="http://www.w3.org/2000/svg">
<g clip-path="url(#clip0)">
<path d="M130.831 20.0181C134.084 11.0094 126.522 1.79553 115.876 1.79553C107.201 1.79553 100.169 8.04469 100.169 15.7534L100.169 42.2674C100.169 47.6842 105.11 52.0755 111.206 52.0755C116.002 52.0755 120.25 49.3226 121.715 45.2641L130.831 20.0181Z" fill="#C0C4C6"/>
<path d="M120 5.23334C122.47 8.33773 117.011 9.07715 112.443 12.712C107.875 16.3469 105.928 21.5009 103.458 18.3965C100.987 15.2921 102.996 10.2164 107.564 6.58155C112.132 2.94665 117.53 2.12894 120 5.23334Z" fill="#D6D6D6"/>
<path d="M114.184 6.58282C115.354 8.05333 112.391 8.70354 109.762 10.7953C107.133 12.8872 105.834 15.6284 104.664 14.1579C103.494 12.6874 104.823 9.98324 107.452 7.89143C110.08 5.79962 113.014 5.11232 114.184 6.58282Z" fill="white"/>
<path d="M63.2941 20.1941C60.227 11.1854 67.357 1.97153 77.3952 1.97153C85.5741 1.97153 92.2044 8.22069 92.2044 15.9294L92.2044 42.4434C92.2044 47.8602 87.5454 52.2515 81.7981 52.2515C77.2758 52.2515 73.2711 49.4986 71.8894 45.4401L63.2941 20.1941Z" fill="#C0C4C6"/>
<path d="M77.9486 4.15304C81.1382 6.51231 76.0561 8.63955 72.5845 13.3329C69.1129 18.0262 68.5665 23.5084 65.3769 21.1491C62.1874 18.7898 62.8143 13.3672 66.2859 8.67385C69.7574 3.98051 74.7591 1.79377 77.9486 4.15304Z" fill="#D6D6D6"/>
<path d="M72.6799 6.96182C74.1908 8.07937 71.497 9.47431 69.4992 12.1752C67.5013 14.8761 66.956 17.8603 65.4452 16.7427C63.9343 15.6252 64.5178 12.6692 66.5156 9.96832C68.5134 7.2674 71.1691 5.84428 72.6799 6.96182Z" fill="white"/>
<path d="M75.9306 49.8882C73.6208 48.2534 78.2916 46.8008 82.2213 42.8712C86.1509 38.9415 86.2541 32.4244 88.8039 34.9742C91.3538 37.5241 89.9019 42.4412 85.9722 46.3709C82.0426 50.3006 78.2405 51.523 75.9306 49.8882Z" fill="#B2B2B2"/>
<path d="M159.453 120.116C159.453 155.205 131.146 183.651 96.2267 183.651C61.3076 183.651 33 155.205 33 120.116C33 85.0262 61.3076 33.6506 96.2267 33.6506C131.146 33.6506 159.453 85.0262 159.453 120.116Z" fill="#C0C4C6"/>
<path d="M45.8066 73.3555C57.3515 51.507 75.64 33.6506 96.2265 33.6506C107.198 33.6506 117.516 38.7219 126.509 46.7662C130.82 60.8194 125.62 78.9505 112.004 92.5664C94.0092 110.561 68.1275 113.856 54.1958 99.9238C47.4105 93.1385 44.7113 83.5185 45.8066 73.3555Z" fill="#D6D6D6"/>
<path d="M90.3693 77.3245C99.1284 68.5654 100.732 55.9675 93.9506 49.1863C87.1693 42.4051 74.5715 44.0085 65.8124 52.7675C57.0533 61.5266 55.4499 74.1245 62.2312 80.9057C69.0124 87.6869 81.6103 86.0835 90.3693 77.3245Z" fill="#E4E4E4"/>
<path d="M151.354 102.744C150.491 100.176 146.903 100.908 146.518 103.589C141.571 138.011 111.959 164.464 76.1685 164.464C73.4876 164.464 70.8414 164.316 68.2376 164.027C65.5384 163.727 63.9405 167.021 66.2241 168.491C75.1268 174.221 85.7245 177.546 97.0988 177.546C128.646 177.546 154.221 151.971 154.221 120.424C154.221 114.165 153.215 108.278 151.354 102.744Z" fill="#B2B2B2"/>
<path d="M82.9686 169.978C114.704 169.978 141.581 149.18 150.713 120.47C151.321 118.559 154.044 118.7 154.044 120.705C154.044 152.253 128.47 177.827 96.9222 177.827C91.4854 177.827 86.226 177.067 81.2444 175.649C77.6493 174.625 79.2306 169.978 82.9686 169.978Z" fill="#969696"/>
<path d="M80.7899 70.1032C75.3407 75.5524 70.6496 79.6963 66.5627 75.6094C62.4759 71.5225 63.5802 63.792 69.0294 58.3428C74.4786 52.8937 82.2091 51.7893 86.296 55.8762C90.3828 59.9631 86.239 64.654 80.7899 70.1032Z" fill="white"/>
<path d="M83.5596 101.125C83.5596 107.821 81.4471 113.249 74.7798 113.249C68.1125 113.249 66 107.821 66 101.125C66 94.4283 68.1125 89 74.7798 89C81.4471 89 83.5596 94.4283 83.5596 101.125Z" fill="#7D7D7D"/>
<path d="M126.204 101.125C126.204 107.821 124.293 113.249 118.261 113.249C112.228 113.249 110.317 107.821 110.317 101.125C110.317 94.4284 112.228 89 118.261 89C124.293 89 126.204 94.4284 126.204 101.125Z" fill="#7D7D7D"/>
<path fill-rule="evenodd" clip-rule="evenodd" d="M97.3041 115.196C95.8408 115.164 94.6287 116.325 94.5968 117.788C94.4511 124.477 100.225 129.608 106.938 129.754C108.402 129.786 109.614 128.626 109.646 127.162C109.678 125.699 108.517 124.487 107.054 124.455C102.78 124.362 99.8242 121.202 99.8961 117.903C99.9279 116.44 98.7675 115.228 97.3041 115.196Z" fill="#7D7D7D"/>
<path fill-rule="evenodd" clip-rule="evenodd" d="M97.3045 115.196C95.8411 115.164 94.629 116.324 94.5971 117.788C94.5253 121.086 91.4342 124.115 87.1609 124.022C85.6975 123.99 84.4854 125.15 84.4535 126.613C84.4217 128.077 85.5821 129.289 87.0455 129.321C93.7589 129.467 99.7507 124.592 99.8964 117.903C99.9283 116.44 98.7678 115.228 97.3045 115.196Z" fill="#7D7D7D"/>
</g>
<defs>
<clipPath id="clip0">
<rect width="192" height="192" fill="white"/>
</clipPath>
</defs>
</svg>
