<svg xmlns="http://www.w3.org/2000/svg" width="192" height="192" fill="none" viewBox="0 0 192 192"><g clip-path="url(#clip0_1610_4037)"><path fill="#F9C81A" d="M157.127 123.811C157.127 156.473 130.045 182.951 96.6385 182.951C63.2316 182.951 36.15 156.473 36.15 123.811C36.15 91.1494 63.2316 61.0137 96.6385 61.0137C130.045 61.0137 157.127 91.1494 157.127 123.811Z"/><path fill="#FFE971" d="M96.1402 97.6307C108.367 89.3337 110.606 77.4004 101.139 70.977C91.6732 64.5535 74.0872 66.0723 61.8601 74.3693C49.6329 82.6663 47.3947 94.5996 56.8609 101.023C66.3271 107.447 83.913 105.928 96.1402 97.6307Z"/><path fill="#EB8C00" d="M59.1692 169.121C93.8284 169.121 143.389 153.182 153.362 122.79C154.026 120.768 157.001 120.916 157.001 123.039C157.001 156.435 129.07 183.508 94.6148 183.508C88.6771 183.508 82.9331 182.704 77.4924 181.202C73.5661 180.119 55.0867 169.121 59.1692 169.121Z"/><path fill="#FFAF00" d="M149.786 106.474C148.958 104.047 145.512 104.739 145.142 107.273C140.392 139.81 111.961 164.815 77.5975 164.815C75.0235 164.815 72.4828 164.675 69.9828 164.402C67.3912 164.118 65.857 167.232 68.0495 168.621C76.5973 174.038 86.7726 177.18 97.6935 177.18C127.983 177.18 152.538 153.006 152.538 123.186C152.538 117.269 151.572 111.705 149.786 106.474Z"/><path fill="#FFAF00" d="M84.1263 170.027C114.596 170.027 140.402 150.367 149.17 123.23C149.754 121.424 152.369 121.556 152.369 123.452C152.369 153.272 127.814 177.446 97.5237 177.446C92.3036 177.446 87.2539 176.728 82.4708 175.387C79.0191 174.419 80.5373 170.027 84.1263 170.027Z"/><path fill="#fff" d="M77.4456 91.9535C70.0067 97.0652 63.6027 100.952 58.0235 97.1186C52.4443 93.2849 53.9519 86.0332 61.3908 80.9215C68.8298 75.8098 79.3831 74.7739 84.9623 78.6076C90.5415 82.4414 84.8846 86.8418 77.4456 91.9535Z"/><mask id="mask0_1610_4037" width="122" height="122" x="36" y="62" maskUnits="userSpaceOnUse" style="mask-type:alpha"><circle cx="96.696" cy="122.838" r="60.638" fill="#FFAF00" transform="rotate(10.4274 96.6964 122.838)"/></mask><g mask="url(#mask0_1610_4037)"><path fill="#F3A700" d="M98.4453 97.5573C100.256 96.6909 102.418 97.0888 103.802 98.5431L121.061 116.685C122.445 118.139 122.735 120.318 121.779 122.084L109.859 144.104C108.903 145.869 106.92 146.819 104.946 146.455L80.3194 141.923C78.3454 141.56 76.8297 139.967 76.5652 137.977L73.2654 113.156C73.0009 111.166 74.0477 109.232 75.8582 108.366L98.4453 97.5573Z"/><path fill="#F3A700" d="M110.482 80.2945C106.499 82.2006 101.742 81.325 98.6979 78.1258L90.1327 69.1228C87.089 65.9235 86.4515 61.1282 88.5536 57.2448L94.4692 46.3167C96.5713 42.4334 100.935 40.3452 105.278 41.1445L117.499 43.3935C121.842 44.1927 125.176 47.6975 125.758 52.0748L127.396 64.3929C127.978 68.7702 125.675 73.0244 121.692 74.9305L110.482 80.2945Z"/><path fill="#F3A700" d="M42.9863 112.03C39.003 113.936 34.2454 113.06 31.2017 109.861L22.6365 100.858C19.5928 97.6586 18.9553 92.8633 21.0574 88.9799L26.973 78.0518C29.0751 74.1685 33.4387 72.0803 37.7816 72.8796L50.0029 75.1286C54.3457 75.9278 57.6801 79.4326 58.262 83.8099L59.8996 96.128C60.4815 100.505 58.1787 104.76 54.1954 106.666L42.9863 112.03Z"/><path fill="#ED8103" d="M52.9152 186.821C48.932 188.727 44.1744 187.852 41.1307 184.653L32.5654 175.65C29.5217 172.45 28.8842 167.655 30.9864 163.772L36.9019 152.844C39.0041 148.96 43.3677 146.872 47.7106 147.671L59.9318 149.92C64.2747 150.72 67.6091 154.224 68.191 158.602L69.8286 170.92C70.4105 175.297 68.1076 179.551 64.1244 181.457L52.9152 186.821Z"/><path fill="#F18200" d="M126.807 199.342C122.824 201.248 118.066 200.373 115.022 197.173L106.457 188.17C103.414 184.971 102.776 180.176 104.878 176.292L110.794 165.364C112.896 161.481 117.259 159.393 121.602 160.192L133.824 162.441C138.166 163.24 141.501 166.745 142.083 171.122L143.72 183.441C144.302 187.818 141.999 192.072 138.016 193.978L126.807 199.342Z"/><path fill="#ED8103" d="M163.747 136.137C159.764 138.043 155.007 137.168 151.963 133.968L143.398 124.965C140.354 121.766 139.716 116.971 141.819 113.087L147.734 102.159C149.836 98.2759 154.2 96.1878 158.543 96.987L170.764 99.236C175.107 100.035 178.441 103.54 179.023 107.917L180.661 120.235C181.243 124.613 178.94 128.867 174.957 130.773L163.747 136.137Z"/></g><g style="mix-blend-mode:color"><path fill="#FCA24F" d="M157 123C157 156.689 129.689 184 96 184C62.3106 184 35 156.689 35 123C35 89.3106 62.3106 62 96 62C129.689 62 157 89.3106 157 123Z"/></g><path fill="#F6AF5B" d="M173.448 97.4973C172.922 99.5009 170.078 99.5009 169.552 97.4973L166.722 86.7147C166.538 86.0116 165.988 85.4624 165.285 85.2779L154.503 82.448C152.499 81.9222 152.499 79.0778 154.503 78.552L165.285 75.7221C165.988 75.5376 166.538 74.9884 166.722 74.2853L169.552 63.5027C170.078 61.4991 172.922 61.4991 173.448 63.5027L176.278 74.2853C176.462 74.9884 177.012 75.5376 177.715 75.7221L188.497 78.552C190.501 79.0778 190.501 81.9222 188.497 82.448L177.715 85.2779C177.012 85.4624 176.462 86.0116 176.278 86.7147L173.448 97.4973Z"/><path fill="#F6AF5B" d="M39.8692 72.1723C39.2297 74.6092 35.7703 74.6092 35.1308 72.1723L31.689 59.0584C31.4646 58.2032 30.7968 57.5354 29.9416 57.311L16.8277 53.8692C14.3908 53.2297 14.3908 49.7703 16.8277 49.1308L29.9416 45.689C30.7968 45.4646 31.4646 44.7968 31.689 43.9416L35.1308 30.8277C35.7703 28.3908 39.2297 28.3908 39.8692 30.8277L43.311 43.9416C43.5354 44.7968 44.2033 45.4646 45.0584 45.689L58.1723 49.1308C60.6092 49.7703 60.6092 53.2297 58.1723 53.8692L45.0584 57.311C44.2033 57.5354 43.5354 58.2032 43.311 59.0584L39.8692 72.1723Z"/><path fill="#F6AF5B" d="M27.0268 176.822C26.6147 178.393 24.3853 178.393 23.9732 176.822L21.7551 168.371C21.6105 167.82 21.1801 167.389 20.629 167.245L12.1778 165.027C10.6074 164.615 10.6074 162.385 12.1778 161.973L20.629 159.755C21.1801 159.611 21.6105 159.18 21.7551 158.629L23.9732 150.178C24.3853 148.607 26.6147 148.607 27.0268 150.178L29.2449 158.629C29.3895 159.18 29.8199 159.611 30.371 159.755L38.8222 161.973C40.3926 162.385 40.3926 164.615 38.8222 165.027L30.371 167.245C29.8199 167.389 29.3895 167.82 29.2449 168.371L27.0268 176.822Z"/><path fill="#FFC700" d="M118.664 25.9283C116.318 18.5213 115.757 10.6585 115.757 10.6585C115.757 10.6585 112.53 17.572 107.818 23.5846C105.803 28.684 101.16 32.2857 95.6444 32.9836C88.6084 33.8739 82.6151 29.728 81.4966 22.518C79.3488 19.4876 77.7657 16.3415 77.1131 14.0262L76.3149 18.3444C73.8215 31.8334 74.5941 45.6401 78.5428 58.1621L133.531 68.3265C141.695 58.0435 147.352 45.4253 149.846 31.9363L150.644 27.6181C149.236 29.5081 146.709 31.8237 143.701 33.8564C140.105 40.3084 132.966 42.0898 126.665 38.7177C121.865 36.1484 118.842 31.2779 118.664 25.9283Z"/><path fill="#FFD800" fill-rule="evenodd" d="M116.211 15.1997C116.619 18.1412 117.362 22.3401 118.646 26.4007C118.775 30.2926 120.422 33.9285 123.169 36.5939L114.72 64.8146L106.179 63.1646L84.1966 59.2839C81.9426 45.9985 81.7358 37.8951 82.2229 24.7507C83.9507 30.823 89.468 34.2064 95.8536 33.3966C101.315 32.7039 105.913 29.1339 107.908 24.0799C110.455 20.8269 112.565 17.3079 113.955 14.7826L116.211 15.1997Z" clip-rule="evenodd"/><path fill="#FFE971" fill-rule="evenodd" d="M102.12 62.448L105.881 27.6632C103.657 30.5642 100.403 32.5853 96.6934 33.2667C96.0954 41.8399 96.0524 49.7738 96.8809 61.523L102.12 62.448ZM93.4775 60.9222C93.0696 50.2159 93.0301 42.4252 93.6536 33.5112C90.9596 33.445 88.4983 32.606 86.5163 31.1211C86.0204 40.1812 85.9346 51.7272 87.8054 59.9209L93.4775 60.9222Z" clip-rule="evenodd"/><path fill="#FFE971" fill-rule="evenodd" d="M109.02 21.8868C108.717 22.298 108.407 22.7075 108.089 23.1129C106.094 28.1669 101.496 31.737 96.0347 32.4296C89.0681 33.3131 83.1349 29.2055 82.0287 22.0605C81.9248 21.9137 81.8223 21.7667 81.7211 21.6195C81.6136 22.3527 81.5722 23.0991 81.6012 23.8523C81.8636 30.6659 87.7893 35.4648 95.8042 34.4484C103.22 33.5079 108.483 28.0887 109.02 21.8868Z" clip-rule="evenodd"/><path fill="#FFD800" fill-rule="evenodd" d="M118.488 23.6366C118.624 24.1292 118.768 24.6228 118.92 25.115C118.977 30.5483 121.994 35.526 126.847 38.1253C133.038 41.4408 140.047 39.7256 143.634 33.4481C143.784 33.3483 143.932 33.2477 144.079 33.1465C143.917 33.8696 143.689 34.5814 143.393 35.2745C140.712 41.544 133.462 43.9076 126.34 40.0931C119.751 36.5637 116.773 29.621 118.488 23.6366Z" clip-rule="evenodd"/><path fill="#FFC700" d="M125.588 21.9695C124.172 27.183 118.301 29.4271 112.259 27.7851C106.216 26.1431 102.289 21.2366 103.706 16.0232C105.123 10.8097 110.993 8.56551 117.035 10.2075C123.078 11.8496 127.005 16.756 125.588 21.9695Z"/><path fill="#FFD800" d="M122.147 15.1824C122.136 18.3091 118.414 16.0728 113.814 16.0565C109.213 16.0403 105.475 18.2502 105.486 15.1235C105.497 11.9968 109.235 9.86572 113.835 9.88199C118.436 9.89825 122.158 12.0557 122.147 15.1824Z"/><path fill="#FFAF00" d="M108.99 24.5251C108.576 22.6261 111.759 24.072 115.772 23.9261C119.784 23.7803 123.051 20.5493 123.141 23.0206C123.231 25.4919 120.04 27.2893 116.028 27.4352C112.015 27.581 109.404 26.4241 108.99 24.5251Z"/><path fill="#FEED8D" d="M117.905 13.1454C117.9 14.6265 115.757 13.5658 113.109 13.5565C110.462 13.5471 108.312 14.5926 108.317 13.1115C108.322 11.6304 110.472 10.6223 113.12 10.6317C115.767 10.6411 117.91 11.6643 117.905 13.1454Z"/><path fill="#FFC700" d="M156.024 30.9283C155.304 34.8251 151.378 36.8632 147.146 36.0808C142.913 35.2984 139.976 31.9918 140.696 28.095C141.416 24.1982 145.341 22.1601 149.574 22.9425C153.807 23.7249 156.744 27.0315 156.024 30.9283Z"/><path fill="#FFD800" d="M153.398 26.3312C153.569 28.491 150.871 27.1593 147.693 27.411C144.515 27.6626 142.061 29.4022 141.89 27.2425C141.719 25.0827 144.178 23.3976 147.356 23.1459C150.534 22.8943 153.227 24.1714 153.398 26.3312Z"/><path fill="#FFAF00" d="M144.752 33.9206C144.357 32.6329 146.638 33.4495 149.4 33.1195C152.163 32.7895 154.234 30.3717 154.437 32.0731C154.641 33.7746 152.54 35.1981 149.778 35.528C147.015 35.858 145.146 35.2083 144.752 33.9206Z"/><path fill="#FEED8D" d="M150.353 25.167C150.434 26.1901 148.894 25.5801 147.065 25.7249C145.236 25.8697 143.811 26.7145 143.73 25.6914C143.649 24.6684 145.076 23.8494 146.905 23.7046C148.734 23.5598 150.272 24.144 150.353 25.167Z"/><path fill="#FFC700" d="M86.6794 18.1102C85.9591 22.0069 82.0338 24.045 77.8012 23.2626C73.5685 22.4802 70.6312 19.1736 71.3515 15.2769C72.0718 11.3801 75.997 9.34202 80.2297 10.1244C84.4624 10.9068 87.3997 14.2134 86.6794 18.1102Z"/><path fill="#FFD800" d="M84.0538 13.5131C84.2248 15.6728 81.527 14.3412 78.3489 14.5929C75.1709 14.8445 72.7162 16.5841 72.5452 14.4243C72.3742 12.2646 74.8332 10.5795 78.0112 10.3278C81.1892 10.0762 83.8828 11.3533 84.0538 13.5131Z"/><path fill="#FFAF00" d="M75.4074 21.1024C75.0129 19.8147 77.2935 20.6314 80.056 20.3014C82.8185 19.9714 84.8899 17.5536 85.0931 19.255C85.2964 20.9564 83.1958 22.3799 80.4333 22.7099C77.6708 23.0399 75.8019 22.3902 75.4074 21.1024Z"/><path fill="#FEED8D" d="M81.0081 12.3487C81.0891 13.3717 79.5489 12.7617 77.72 12.9065C75.8911 13.0513 74.4661 13.8961 74.3851 12.8731C74.3041 11.85 75.7311 11.031 77.56 10.8862C79.3889 10.7414 80.9271 11.3256 81.0081 12.3487Z"/><path fill="#B6ADAD" d="M135.798 71.592C134.924 76.3185 133.667 78.1522 104.296 72.723C74.9248 67.2938 74.4067 65.1321 75.2804 60.4057C76.1541 55.6792 77.1 55.5266 106.471 60.9557C135.843 66.3849 136.671 66.8656 135.798 71.592Z"/><path fill="#D8D8D8" d="M136.281 70.4149C135.553 74.3528 134.35 75.8518 104.719 70.3746C75.0877 64.8973 74.5002 63.0674 75.2281 59.1295C75.956 55.1916 76.9 55.0932 106.531 60.5704C136.162 66.0476 137.009 66.477 136.281 70.4149Z"/><path fill="#EFF3F5" d="M113.443 66.561C112.69 70.3165 110.151 70.3149 93.2577 66.8623C80.7788 64.3118 77.5471 63.381 78.0761 60.7413C78.605 58.1015 80.0433 57.3203 94.5746 60.2901C111.468 63.7428 113.972 63.9212 113.443 66.561Z"/><path fill="#7D7D7D" d="M82.4315 63.0831C81.9292 62.2554 82.5838 61.3486 83.5945 60.5646C84.6051 59.7806 85.5891 59.4164 86.0913 60.244C86.5936 61.0717 85.939 61.9786 84.9284 62.7625C83.9177 63.5465 82.9338 63.9107 82.4315 63.0831Z"/><path fill="#373333" d="M82.326 62.9094C81.9031 62.2127 82.5838 61.3487 83.5944 60.5648C84.6051 59.7808 85.563 59.3737 85.9858 60.0704C86.4087 60.7672 85.728 61.6311 84.7174 62.4151C83.7067 63.1991 82.7488 63.6062 82.326 62.9094Z"/><path fill="#7D7D7D" d="M129.383 71.2657C128.881 70.438 129.535 69.5312 130.546 68.7472C131.557 67.9632 132.541 67.599 133.043 68.4267C133.545 69.2543 132.891 70.1612 131.88 70.9451C130.869 71.7291 129.885 72.0933 129.383 71.2657Z"/><path fill="#373333" d="M129.286 71.1062C128.857 70.3987 129.535 69.5313 130.546 68.7473C131.556 67.9633 132.516 67.5597 132.946 68.2672C133.375 68.9746 132.697 69.8421 131.686 70.626C130.675 71.41 129.715 71.8136 129.286 71.1062Z"/><path fill="#7D7D7D" d="M91.9912 65.0077C91.3955 64.0262 92.1719 62.9507 93.3704 62.0209C94.569 61.0911 95.7359 60.6592 96.3316 61.6408C96.9273 62.6223 96.151 63.6978 94.9524 64.6276C93.7538 65.5573 92.5869 65.9893 91.9912 65.0077Z"/><path fill="#373333" d="M91.8319 64.7452C91.3562 63.9614 92.1719 62.9507 93.3705 62.0209C94.5691 61.0912 95.6967 60.5944 96.1723 61.3782C96.648 62.162 95.8323 63.1727 94.6337 64.1024C93.4352 65.0322 92.3076 65.529 91.8319 64.7452Z"/><path fill="#7D7D7D" d="M117.316 69.6889C116.72 68.7073 117.497 67.6318 118.695 66.7021C119.894 65.7723 121.061 65.3403 121.657 66.3219C122.252 67.3035 121.476 68.379 120.277 69.3087C119.079 70.2385 117.912 70.6704 117.316 69.6889Z"/><path fill="#373333" d="M117.18 69.4649C116.687 68.6522 117.497 67.6321 118.695 66.7023C119.894 65.7725 121.027 65.2852 121.521 66.0979C122.014 66.9106 121.204 67.9307 120.005 68.8605C118.807 69.7903 117.673 70.2776 117.18 69.4649Z"/><path fill="#7D7D7D" d="M104.094 67.8363C103.402 66.6956 104.304 65.4459 105.696 64.3655C107.089 63.285 108.445 62.7831 109.137 63.9237C109.83 65.0643 108.928 66.3141 107.535 67.3945C106.142 68.4749 104.786 68.9769 104.094 67.8363Z"/><path fill="#373333" d="M103.957 67.6118C103.368 66.6402 104.304 65.4459 105.696 64.3655C107.089 63.285 108.412 62.7277 109.001 63.6992C109.591 64.6708 108.655 65.8651 107.262 66.9455C105.869 68.026 104.547 68.5833 103.957 67.6118Z"/><path fill="#FFE971" d="M109.474 36.8994C110.523 36.1976 111.963 36.4638 112.691 37.4939L118.133 45.1937C118.861 46.2238 118.601 47.6277 117.553 48.3295L109.718 53.575C108.67 54.2768 107.23 54.0106 106.502 52.9805L101.06 45.2807C100.332 44.2506 100.591 42.8467 101.639 42.1449L109.474 36.8994Z"/><path fill="#FA7048" d="M111.321 35.3559L109.774 43.7254L101.405 42.1783C101.508 41.6188 101.825 41.0988 102.331 40.7508L109.657 35.7105C110.163 35.3625 110.762 35.2525 111.321 35.3559Z"/><path fill="#CC240E" d="M108.227 52.0949L109.774 43.7254L101.405 42.1784C101.301 42.7379 101.411 43.3368 101.759 43.8426L106.8 51.1689C107.148 51.6746 107.668 51.9915 108.227 52.0949Z"/><path fill="#CC240E" d="M111.321 35.3558L109.774 43.7252L118.144 45.2723C118.247 44.7128 118.137 44.1139 117.789 43.6081L112.749 36.2818C112.401 35.776 111.881 35.4592 111.321 35.3558Z"/><path fill="#9F0400" d="M108.227 52.0948L109.774 43.7253L118.144 45.2724C118.04 45.8319 117.724 46.3519 117.218 46.6998L109.891 51.7402C109.386 52.0882 108.787 52.1982 108.227 52.0948Z"/><path fill="#FFE971" d="M131.678 48.6366C132.269 48.1849 133.065 48.3319 133.455 48.9651L136.374 53.6975C136.765 54.3307 136.602 55.2101 136.011 55.6618L131.593 59.0381C131.002 59.4898 130.207 59.3427 129.816 58.7096L126.897 53.9771C126.507 53.344 126.669 52.4646 127.26 52.0129L131.678 48.6366Z"/><path fill="#FA7048" d="M132.746 47.9214L131.846 52.7874L126.98 51.8879C127.041 51.5627 127.225 51.2603 127.519 51.058L131.778 48.1276C132.072 47.9253 132.421 47.8613 132.746 47.9214Z"/><path fill="#CC240E" d="M130.947 57.6534L131.846 52.7874L126.98 51.8879C126.92 52.2132 126.984 52.5614 127.186 52.8555L130.117 57.115C130.319 57.409 130.621 57.5932 130.947 57.6534Z"/><path fill="#CC240E" d="M132.745 47.9213L131.846 52.7873L136.712 53.6868C136.772 53.3615 136.708 53.0133 136.506 52.7192L133.575 48.4597C133.373 48.1657 133.071 47.9815 132.745 47.9213Z"/><path fill="#9F0400" d="M130.947 57.6535L131.846 52.7875L136.712 53.687C136.652 54.0123 136.468 54.3146 136.174 54.5169L131.914 57.4474C131.62 57.6497 131.272 57.7136 130.947 57.6535Z"/><path fill="#FFE971" d="M85.2673 40.0577C85.8583 39.606 86.654 39.7531 87.0445 40.3862L89.9633 45.1187C90.3538 45.7518 90.1912 46.6312 89.6002 47.0829L85.1825 50.4593C84.5915 50.911 83.7958 50.7639 83.4053 50.1308L80.4865 45.3983C80.096 44.7652 80.2586 43.8857 80.8496 43.434L85.2673 40.0577Z"/><path fill="#FA7048" d="M86.3827 39.3523L85.4832 44.2183L80.6173 43.3189C80.6774 42.9936 80.8616 42.6912 81.1557 42.4889L85.4151 39.5585C85.7092 39.3562 86.0574 39.2922 86.3827 39.3523Z"/><path fill="#CC240E" d="M84.5841 49.0831L85.4835 44.2171L80.6175 43.3176C80.5574 43.6429 80.6214 43.9911 80.8237 44.2852L83.7541 48.5447C83.9564 48.8387 84.2588 49.0229 84.5841 49.0831Z"/><path fill="#CC240E" d="M86.3826 39.351L85.4831 44.217L90.3491 45.1165C90.4092 44.7912 90.3452 44.443 90.1429 44.1489L87.2125 39.8894C87.0102 39.5954 86.7078 39.4112 86.3826 39.351Z"/><path fill="#9F0400" d="M84.5839 49.0832L85.4834 44.2172L90.3493 45.1167C90.2892 45.442 90.105 45.7443 89.8109 45.9466L85.5515 48.8771C85.2574 49.0794 84.9092 49.1433 84.5839 49.0832Z"/><path fill="#AE5714" d="M89.7056 154.212L89.7056 110.32L79.7134 111.815L79.7134 97.153L107.262 93.1375L107.262 154.212L89.7056 154.212Z"/><path fill="#FF9330" fill-rule="evenodd" d="M86.9923 156.925L86.9923 113.47L77 114.964L77 94.8066L109.975 90L109.975 156.925L86.9923 156.925ZM89.7056 110.32L89.7056 154.212L107.262 154.212L107.262 93.1375L79.7133 97.1531L79.7133 111.815L89.7056 110.32Z" clip-rule="evenodd"/></g><defs><clipPath id="clip0_1610_4037"><rect width="192" height="192" fill="#fff"/></clipPath></defs></svg>