<svg xmlns="http://www.w3.org/2000/svg" width="192" height="192" fill="none" viewBox="0 0 192 192"><g clip-path="url(#clip0_1610_4034)"><path fill="#F9C81A" d="M157.127 123.811C157.127 156.473 130.045 182.951 96.6385 182.951C63.2316 182.951 36.15 156.473 36.15 123.811C36.15 91.1494 63.2316 61.0137 96.6385 61.0137C130.045 61.0137 157.127 91.1494 157.127 123.811Z"/><path fill="#FFE971" d="M96.1402 97.6307C108.367 89.3337 110.606 77.4004 101.139 70.977C91.6732 64.5535 74.0872 66.0723 61.8601 74.3693C49.6329 82.6663 47.3947 94.5996 56.8609 101.023C66.3271 107.447 83.913 105.928 96.1402 97.6307Z"/><path fill="#EB8C00" d="M59.1692 169.121C93.8284 169.121 143.389 153.182 153.362 122.79C154.026 120.768 157.001 120.916 157.001 123.039C157.001 156.435 129.07 183.508 94.6148 183.508C88.6771 183.508 82.9331 182.704 77.4924 181.202C73.5661 180.119 55.0867 169.121 59.1692 169.121Z"/><path fill="#FFAF00" d="M149.786 106.474C148.958 104.047 145.512 104.739 145.142 107.273C140.392 139.81 111.961 164.815 77.5975 164.815C75.0235 164.815 72.4828 164.675 69.9828 164.402C67.3912 164.118 65.857 167.232 68.0495 168.622C76.5973 174.038 86.7726 177.18 97.6935 177.18C127.983 177.18 152.538 153.006 152.538 123.186C152.538 117.269 151.572 111.705 149.786 106.474Z"/><path fill="#FFAF00" d="M84.1263 170.027C114.596 170.027 140.402 150.367 149.17 123.23C149.754 121.423 152.369 121.556 152.369 123.451C152.369 153.272 127.814 177.446 97.5237 177.446C92.3036 177.446 87.2539 176.728 82.4708 175.387C79.0191 174.419 80.5373 170.027 84.1263 170.027Z"/><path fill="#fff" d="M77.4456 91.9535C70.0067 97.0652 63.6027 100.952 58.0235 97.1186C52.4443 93.2849 53.9519 86.0332 61.3908 80.9215C68.8298 75.8098 79.3831 74.7739 84.9623 78.6076C90.5415 82.4414 84.8846 86.8418 77.4456 91.9535Z"/><mask id="mask0_1610_4034" width="122" height="122" x="36" y="62" maskUnits="userSpaceOnUse" style="mask-type:alpha"><circle cx="96.696" cy="122.838" r="60.638" fill="#FFAF00" transform="rotate(10.4274 96.6964 122.838)"/></mask><g mask="url(#mask0_1610_4034)"><path fill="#F3A700" d="M98.4453 97.5573C100.256 96.6909 102.418 97.0888 103.802 98.5431L121.061 116.685C122.445 118.139 122.735 120.318 121.779 122.084L109.859 144.104C108.903 145.869 106.92 146.819 104.946 146.455L80.3194 141.923C78.3454 141.56 76.8297 139.967 76.5652 137.977L73.2654 113.156C73.0009 111.166 74.0477 109.232 75.8582 108.366L98.4453 97.5573Z"/><path fill="#F3A700" d="M110.482 80.2945C106.499 82.2006 101.742 81.325 98.6979 78.1258L90.1327 69.1228C87.089 65.9235 86.4515 61.1282 88.5536 57.2448L94.4692 46.3167C96.5713 42.4334 100.935 40.3452 105.278 41.1445L117.499 43.3935C121.842 44.1927 125.176 47.6975 125.758 52.0748L127.396 64.3929C127.978 68.7702 125.675 73.0244 121.692 74.9305L110.482 80.2945Z"/><path fill="#F3A700" d="M42.9863 112.029C39.003 113.936 34.2454 113.06 31.2017 109.861L22.6365 100.858C19.5928 97.6585 18.9553 92.8632 21.0574 88.9798L26.973 78.0517C29.0751 74.1683 33.4387 72.0802 37.7816 72.8794L50.0029 75.1285C54.3457 75.9277 57.6801 79.4325 58.262 83.8098L59.8996 96.1279C60.4815 100.505 58.1787 104.759 54.1954 106.666L42.9863 112.029Z"/><path fill="#ED8103" d="M52.9152 186.821C48.932 188.727 44.1744 187.852 41.1307 184.653L32.5654 175.65C29.5217 172.45 28.8842 167.655 30.9864 163.772L36.9019 152.844C39.0041 148.96 43.3677 146.872 47.7106 147.671L59.9318 149.92C64.2747 150.72 67.6091 154.224 68.191 158.602L69.8286 170.92C70.4105 175.297 68.1076 179.551 64.1244 181.457L52.9152 186.821Z"/><path fill="#F18200" d="M126.807 199.342C122.824 201.248 118.066 200.373 115.022 197.173L106.457 188.17C103.414 184.971 102.776 180.176 104.878 176.293L110.794 165.364C112.896 161.481 117.259 159.393 121.602 160.192L133.824 162.441C138.166 163.24 141.501 166.745 142.083 171.123L143.72 183.441C144.302 187.818 141.999 192.072 138.016 193.978L126.807 199.342Z"/><path fill="#ED8103" d="M163.747 136.137C159.764 138.043 155.007 137.168 151.963 133.968L143.398 124.965C140.354 121.766 139.716 116.971 141.819 113.087L147.734 102.159C149.836 98.2759 154.2 96.1878 158.543 96.987L170.764 99.236C175.107 100.035 178.441 103.54 179.023 107.917L180.661 120.235C181.243 124.613 178.94 128.867 174.957 130.773L163.747 136.137Z"/></g><g style="mix-blend-mode:color"><path fill="#fff" d="M158 122.5C158 156.466 130.466 184 96.5 184C62.5345 184 35 156.466 35 122.5C35 88.5345 62.5345 61 96.5 61C130.466 61 158 88.5345 158 122.5Z"/></g><path fill="#BCC6CB" d="M173.448 97.4973C172.922 99.5009 170.078 99.5009 169.552 97.4973L166.722 86.7147C166.538 86.0116 165.988 85.4624 165.285 85.2779L154.503 82.448C152.499 81.9222 152.499 79.0778 154.503 78.552L165.285 75.7221C165.988 75.5376 166.538 74.9884 166.722 74.2853L169.552 63.5027C170.078 61.4991 172.922 61.4991 173.448 63.5027L176.278 74.2853C176.462 74.9884 177.012 75.5376 177.715 75.7221L188.497 78.552C190.501 79.0778 190.501 81.9222 188.497 82.448L177.715 85.2779C177.012 85.4624 176.462 86.0116 176.278 86.7147L173.448 97.4973Z"/><path fill="#D6D6D6" d="M39.8692 72.1723C39.2297 74.6092 35.7703 74.6092 35.1308 72.1723L31.689 59.0584C31.4646 58.2032 30.7968 57.5354 29.9416 57.311L16.8277 53.8692C14.3908 53.2297 14.3908 49.7703 16.8277 49.1308L29.9416 45.689C30.7968 45.4646 31.4646 44.7968 31.689 43.9416L35.1308 30.8277C35.7703 28.3908 39.2297 28.3908 39.8692 30.8277L43.311 43.9416C43.5354 44.7968 44.2033 45.4646 45.0584 45.689L58.1723 49.1308C60.6092 49.7703 60.6092 53.2297 58.1723 53.8692L45.0584 57.311C44.2033 57.5354 43.5354 58.2032 43.311 59.0584L39.8692 72.1723Z"/><path fill="#BCC6CB" d="M27.0268 176.822C26.6147 178.393 24.3853 178.393 23.9732 176.822L21.7551 168.371C21.6105 167.82 21.1801 167.389 20.629 167.245L12.1778 165.027C10.6074 164.615 10.6074 162.385 12.1778 161.973L20.629 159.755C21.1801 159.611 21.6105 159.18 21.7551 158.629L23.9732 150.178C24.3853 148.607 26.6147 148.607 27.0268 150.178L29.2449 158.629C29.3895 159.18 29.8199 159.611 30.371 159.755L38.8222 161.973C40.3926 162.385 40.3926 164.615 38.8222 165.027L30.371 167.245C29.8199 167.389 29.3895 167.82 29.2449 168.371L27.0268 176.822Z"/><path fill="#FFC700" d="M118.664 25.9282C116.318 18.5211 115.757 10.6584 115.757 10.6584C115.757 10.6584 112.53 17.5719 107.818 23.5845C105.803 28.6839 101.16 32.2855 95.6444 32.9835C88.6084 33.8738 82.6151 29.7279 81.4966 22.5179C79.3488 19.4874 77.7657 16.3414 77.1131 14.0261L76.3149 18.3443C73.8215 31.8333 74.5941 45.64 78.5428 58.162L133.531 68.3263C141.695 58.0434 147.352 45.4252 149.846 31.9362L150.644 27.618C149.236 29.508 146.709 31.8236 143.701 33.8562C140.105 40.3083 132.966 42.0897 126.665 38.7176C121.865 36.1483 118.842 31.2777 118.664 25.9282Z"/><path fill="#FFD800" fill-rule="evenodd" d="M116.211 15.1997C116.619 18.1412 117.362 22.3401 118.646 26.4007C118.775 30.2926 120.422 33.9285 123.169 36.5939L114.72 64.8146L106.179 63.1646L84.1966 59.2839C81.9426 45.9985 81.7358 37.8951 82.2229 24.7507C83.9507 30.823 89.468 34.2064 95.8536 33.3966C101.315 32.7039 105.913 29.1339 107.908 24.0799C110.455 20.8269 112.565 17.3079 113.955 14.7826L116.211 15.1997Z" clip-rule="evenodd"/><path fill="#FFE971" fill-rule="evenodd" d="M102.12 62.4481L105.881 27.6633C103.657 30.5643 100.403 32.5854 96.6934 33.2668C96.0954 41.84 96.0524 49.7739 96.8809 61.5232L102.12 62.4481ZM93.4775 60.9223C93.0696 50.216 93.0301 42.4253 93.6536 33.5113C90.9596 33.4451 88.4983 32.6061 86.5163 31.1212C86.0204 40.1813 85.9346 51.7273 87.8054 59.921L93.4775 60.9223Z" clip-rule="evenodd"/><path fill="#FFE971" fill-rule="evenodd" d="M109.02 21.8869C108.717 22.2981 108.407 22.7077 108.089 23.113C106.094 28.167 101.496 31.7371 96.0347 32.4297C89.0681 33.3132 83.1349 29.2057 82.0287 22.0606C81.9248 21.9139 81.8223 21.7668 81.7211 21.6197C81.6136 22.3528 81.5722 23.0992 81.6012 23.8525C81.8636 30.666 87.7893 35.465 95.8042 34.4485C103.22 33.508 108.483 28.0889 109.02 21.8869Z" clip-rule="evenodd"/><path fill="#FFD800" fill-rule="evenodd" d="M118.488 23.6367C118.624 24.1293 118.768 24.6229 118.92 25.1151C118.977 30.5484 121.994 35.5261 126.847 38.1254C133.038 41.4409 140.047 39.7257 143.634 33.4482C143.784 33.3484 143.932 33.2478 144.079 33.1466C143.917 33.8697 143.689 34.5815 143.393 35.2746C140.712 41.5441 133.462 43.9077 126.34 40.0932C119.751 36.5638 116.773 29.6211 118.488 23.6367Z" clip-rule="evenodd"/><path fill="#FFC700" d="M125.588 21.9695C124.172 27.183 118.301 29.4271 112.259 27.7851C106.216 26.1431 102.289 21.2366 103.706 16.0232C105.123 10.8097 110.993 8.56551 117.035 10.2075C123.078 11.8496 127.005 16.756 125.588 21.9695Z"/><path fill="#FFD800" d="M122.147 15.1825C122.136 18.3092 118.414 16.0729 113.814 16.0566C109.213 16.0404 105.475 18.2503 105.486 15.1236C105.497 11.9969 109.235 9.86585 113.835 9.88211C118.436 9.89838 122.158 12.0558 122.147 15.1825Z"/><path fill="#FFAF00" d="M108.99 24.525C108.576 22.6259 111.759 24.0719 115.772 23.926C119.784 23.7802 123.051 20.5491 123.141 23.0205C123.231 25.4918 120.04 27.2892 116.028 27.435C112.015 27.5809 109.404 26.424 108.99 24.525Z"/><path fill="#FEED8D" d="M117.905 13.1455C117.9 14.6266 115.757 13.566 113.109 13.5566C110.462 13.5472 108.312 14.5927 108.317 13.1116C108.322 11.6306 110.472 10.6225 113.12 10.6318C115.767 10.6412 117.91 11.6645 117.905 13.1455Z"/><path fill="#FFC700" d="M156.024 30.9283C155.304 34.8251 151.378 36.8632 147.146 36.0808C142.913 35.2984 139.976 31.9918 140.696 28.095C141.416 24.1982 145.341 22.1601 149.574 22.9425C153.807 23.7249 156.744 27.0315 156.024 30.9283Z"/><path fill="#FFD800" d="M153.398 26.3313C153.569 28.4911 150.871 27.1595 147.693 27.4111C144.515 27.6627 142.061 29.4023 141.89 27.2426C141.719 25.0828 144.178 23.3977 147.356 23.1461C150.534 22.8944 153.227 24.1716 153.398 26.3313Z"/><path fill="#FFAF00" d="M144.752 33.9204C144.357 32.6327 146.638 33.4494 149.4 33.1194C152.163 32.7894 154.234 30.3716 154.437 32.073C154.641 33.7744 152.54 35.1979 149.778 35.5279C147.015 35.8579 145.146 35.2081 144.752 33.9204Z"/><path fill="#FEED8D" d="M150.353 25.1671C150.434 26.1902 148.894 25.5802 147.065 25.725C145.236 25.8698 143.811 26.7146 143.73 25.6916C143.649 24.6685 145.076 23.8495 146.905 23.7047C148.734 23.5599 150.272 24.1441 150.353 25.1671Z"/><path fill="#FFC700" d="M86.6794 18.1102C85.9591 22.0069 82.0338 24.045 77.8012 23.2626C73.5685 22.4802 70.6312 19.1736 71.3515 15.2769C72.0718 11.3801 75.997 9.34202 80.2297 10.1244C84.4624 10.9068 87.3997 14.2134 86.6794 18.1102Z"/><path fill="#FFD800" d="M84.0538 13.5132C84.2248 15.673 81.527 14.3413 78.3489 14.593C75.1709 14.8446 72.7162 16.5842 72.5452 14.4245C72.3742 12.2647 74.8332 10.5796 78.0112 10.3279C81.1892 10.0763 83.8828 11.3534 84.0538 13.5132Z"/><path fill="#FFAF00" d="M75.4074 21.1023C75.0129 19.8146 77.2935 20.6312 80.056 20.3013C82.8185 19.9713 84.8899 17.5535 85.0931 19.2549C85.2964 20.9563 83.1958 22.3798 80.4333 22.7098C77.6708 23.0398 75.8019 22.39 75.4074 21.1023Z"/><path fill="#FEED8D" d="M81.0081 12.3488C81.0891 13.3718 79.5489 12.7618 77.72 12.9066C75.8911 13.0515 74.4661 13.8962 74.3851 12.8732C74.3041 11.8502 75.7311 11.0312 77.56 10.8864C79.3889 10.7415 80.9271 11.3257 81.0081 12.3488Z"/><path fill="#B6ADAD" d="M135.798 71.592C134.924 76.3185 133.667 78.1522 104.296 72.723C74.9248 67.2938 74.4067 65.1321 75.2804 60.4057C76.1541 55.6792 77.1 55.5266 106.471 60.9557C135.843 66.3849 136.671 66.8656 135.798 71.592Z"/><path fill="#D8D8D8" d="M136.281 70.4148C135.553 74.3527 134.35 75.8517 104.719 70.3744C75.0877 64.8972 74.5002 63.0673 75.2281 59.1294C75.956 55.1914 76.9 55.0931 106.531 60.5703C136.162 66.0475 137.009 66.4768 136.281 70.4148Z"/><path fill="#EFF3F5" d="M113.443 66.5611C112.69 70.3166 110.151 70.315 93.2577 66.8624C80.7788 64.312 77.5471 63.3812 78.0761 60.7414C78.605 58.1016 80.0433 57.3204 94.5746 60.2903C111.468 63.7429 113.972 63.9213 113.443 66.5611Z"/><path fill="#7D7D7D" d="M82.4315 63.0832C81.9292 62.2555 82.5838 61.3487 83.5945 60.5647C84.6051 59.7807 85.5891 59.4165 86.0913 60.2442C86.5936 61.0718 85.939 61.9787 84.9284 62.7626C83.9177 63.5466 82.9338 63.9108 82.4315 63.0832Z"/><path fill="#373333" d="M82.326 62.9093C81.9031 62.2126 82.5838 61.3486 83.5944 60.5646C84.6051 59.7807 85.563 59.3735 85.9858 60.0703C86.4087 60.7671 85.728 61.631 84.7174 62.415C83.7067 63.199 82.7488 63.6061 82.326 62.9093Z"/><path fill="#7D7D7D" d="M129.383 71.2657C128.881 70.438 129.535 69.5312 130.546 68.7472C131.557 67.9632 132.541 67.599 133.043 68.4267C133.545 69.2543 132.891 70.1612 131.88 70.9451C130.869 71.7291 129.885 72.0933 129.383 71.2657Z"/><path fill="#373333" d="M129.286 71.1062C128.857 70.3987 129.535 69.5313 130.546 68.7473C131.556 67.9633 132.516 67.5597 132.946 68.2672C133.375 68.9746 132.697 69.8421 131.686 70.626C130.675 71.41 129.715 71.8136 129.286 71.1062Z"/><path fill="#7D7D7D" d="M91.9912 65.0077C91.3955 64.0262 92.1719 62.9507 93.3704 62.0209C94.569 61.0911 95.7359 60.6592 96.3316 61.6408C96.9273 62.6223 96.151 63.6978 94.9524 64.6276C93.7538 65.5573 92.5869 65.9893 91.9912 65.0077Z"/><path fill="#373333" d="M91.8319 64.7453C91.3562 63.9615 92.1719 62.9508 93.3705 62.021C94.5691 61.0913 95.6967 60.5945 96.1723 61.3783C96.648 62.1621 95.8323 63.1728 94.6337 64.1026C93.4352 65.0323 92.3076 65.5291 91.8319 64.7453Z"/><path fill="#7D7D7D" d="M117.316 69.689C116.72 68.7074 117.497 67.6319 118.695 66.7022C119.894 65.7724 121.061 65.3405 121.657 66.322C122.252 67.3036 121.476 68.3791 120.277 69.3089C119.079 70.2386 117.912 70.6706 117.316 69.689Z"/><path fill="#373333" d="M117.18 69.4649C116.687 68.6522 117.497 67.6321 118.695 66.7023C119.894 65.7725 121.027 65.2852 121.521 66.0979C122.014 66.9106 121.204 67.9307 120.005 68.8605C118.807 69.7903 117.673 70.2776 117.18 69.4649Z"/><path fill="#7D7D7D" d="M104.094 67.8364C103.402 66.6958 104.304 65.446 105.696 64.3656C107.089 63.2852 108.445 62.7832 109.137 63.9238C109.83 65.0644 108.928 66.3142 107.535 67.3946C106.142 68.4751 104.786 68.977 104.094 67.8364Z"/><path fill="#373333" d="M103.957 67.6119C103.368 66.6403 104.304 65.446 105.696 64.3656C107.089 63.2852 108.412 62.7278 109.001 63.6993C109.591 64.6709 108.655 65.8652 107.262 66.9457C105.869 68.0261 104.547 68.5834 103.957 67.6119Z"/><path fill="#FFE971" d="M109.474 36.8991C110.523 36.1974 111.963 36.4635 112.691 37.4936L118.133 45.1934C118.861 46.2235 118.601 47.6275 117.553 48.3292L109.718 53.5748C108.67 54.2765 107.23 54.0104 106.502 52.9803L101.06 45.2805C100.332 44.2504 100.591 42.8464 101.639 42.1447L109.474 36.8991Z"/><path fill="#FA7048" d="M111.321 35.356L109.774 43.7255L101.405 42.1784C101.508 41.619 101.825 41.0989 102.331 40.751L109.657 35.7106C110.163 35.3626 110.762 35.2526 111.321 35.356Z"/><path fill="#CC240E" d="M108.227 52.0949L109.774 43.7254L101.405 42.1784C101.301 42.7379 101.411 43.3368 101.759 43.8426L106.8 51.1689C107.148 51.6746 107.668 51.9915 108.227 52.0949Z"/><path fill="#CC240E" d="M111.321 35.3559L109.774 43.7254L118.144 45.2724C118.247 44.7129 118.137 44.114 117.789 43.6082L112.749 36.2819C112.401 35.7762 111.881 35.4593 111.321 35.3559Z"/><path fill="#9F0400" d="M108.227 52.0949L109.774 43.7254L118.144 45.2725C118.04 45.832 117.724 46.352 117.218 46.7L109.891 51.7403C109.386 52.0883 108.787 52.1983 108.227 52.0949Z"/><path fill="#FFE971" d="M131.678 48.6364C132.269 48.1847 133.065 48.3318 133.455 48.9649L136.374 53.6974C136.765 54.3305 136.602 55.21 136.011 55.6616L131.593 59.038C131.002 59.4897 130.207 59.3426 129.816 58.7095L126.897 53.977C126.507 53.3439 126.669 52.4645 127.26 52.0128L131.678 48.6364Z"/><path fill="#FA7048" d="M132.746 47.9213L131.846 52.7873L126.98 51.8878C127.041 51.5625 127.225 51.2602 127.519 51.0579L131.778 48.1274C132.072 47.9251 132.421 47.8612 132.746 47.9213Z"/><path fill="#CC240E" d="M130.947 57.6531L131.846 52.7871L126.98 51.8877C126.92 52.213 126.984 52.5612 127.186 52.8552L130.117 57.1147C130.319 57.4088 130.621 57.593 130.947 57.6531Z"/><path fill="#CC240E" d="M132.745 47.9211L131.846 52.7871L136.712 53.6865C136.772 53.3613 136.708 53.013 136.506 52.719L133.575 48.4595C133.373 48.1654 133.071 47.9812 132.745 47.9211Z"/><path fill="#9F0400" d="M130.947 57.6532L131.846 52.7872L136.712 53.6866C136.652 54.0119 136.468 54.3143 136.174 54.5166L131.914 57.447C131.62 57.6493 131.272 57.7133 130.947 57.6532Z"/><path fill="#FFE971" d="M85.2673 40.0577C85.8583 39.606 86.654 39.7531 87.0445 40.3862L89.9633 45.1187C90.3538 45.7518 90.1912 46.6312 89.6002 47.0829L85.1825 50.4593C84.5915 50.911 83.7958 50.7639 83.4053 50.1308L80.4865 45.3983C80.096 44.7652 80.2586 43.8857 80.8496 43.434L85.2673 40.0577Z"/><path fill="#FA7048" d="M86.3827 39.3522L85.4832 44.2182L80.6173 43.3187C80.6774 42.9935 80.8616 42.6911 81.1557 42.4888L85.4151 39.5584C85.7092 39.3561 86.0574 39.2921 86.3827 39.3522Z"/><path fill="#CC240E" d="M84.5841 49.0832L85.4835 44.2172L80.6175 43.3177C80.5574 43.643 80.6214 43.9912 80.8237 44.2853L83.7541 48.5448C83.9564 48.8388 84.2588 49.023 84.5841 49.0832Z"/><path fill="#CC240E" d="M86.3826 39.351L85.4831 44.217L90.3491 45.1165C90.4092 44.7912 90.3452 44.443 90.1429 44.1489L87.2125 39.8894C87.0102 39.5954 86.7078 39.4112 86.3826 39.351Z"/><path fill="#9F0400" d="M84.5839 49.0831L85.4834 44.2171L90.3493 45.1166C90.2892 45.4418 90.105 45.7442 89.8109 45.9465L85.5515 48.8769C85.2574 49.0792 84.9092 49.1432 84.5839 49.0831Z"/><path fill="#7D7D7D" d="M89.773 154L89.773 110.109L79.7808 111.603L79.7808 96.9414L107.33 92.9258L107.33 154L89.773 154Z"/><path fill="#C0C4C6" fill-rule="evenodd" d="M87.0596 156.713L87.0596 113.258L77.0674 114.752L77.0674 94.5949L110.043 89.7883L110.043 156.713L87.0596 156.713ZM89.773 110.109L89.773 154L107.329 154L107.329 92.9258L79.7807 96.9414L79.7807 111.603L89.773 110.109Z" clip-rule="evenodd"/></g><defs><clipPath id="clip0_1610_4034"><rect width="192" height="192" fill="#fff"/></clipPath></defs></svg>