<svg xmlns="http://www.w3.org/2000/svg" width="192" height="192" fill="none" viewBox="0 0 192 192"><path fill="#B85E0B" d="M61.5222 153.828C63.8437 151.474 67.168 150.505 70.3404 151.255L81.0415 153.786C90.8159 156.098 100.97 156.11 110.749 153.819L121.745 151.244C124.921 150.501 128.245 151.48 130.562 153.841L141.157 164.642C146.61 170.2 143.802 179.785 136.279 181.3L119.716 184.633C104.033 187.789 87.9071 187.789 72.2245 184.633L55.7209 181.312C48.1858 179.795 45.3857 170.185 50.8614 164.635L61.5222 153.828Z"/><path fill="#EB8C00" d="M63.1515 152.661C65.3358 150.518 68.3166 149.596 71.2176 150.165L84.5834 152.787C92.3503 154.311 100.306 154.325 108.078 152.828L121.81 150.182C124.81 149.604 127.884 150.621 130.074 152.914L139.068 162.338C142.807 166.255 140.819 173.108 135.682 174.011L117.131 177.272C103.404 179.686 89.3984 179.57 75.7072 176.93L57.2218 173.366C52.0482 172.368 50.1895 165.375 54.0829 161.556L63.1515 152.661Z"/><ellipse fill="#B85E0B" rx="33.665" ry="7.938" transform="matrix(0.956375 0.292143 -0.228803 0.973473 98.4359 152.563)"/><ellipse fill="#B85E0B" rx="33.665" ry="7.938" transform="matrix(-0.956375 0.292143 0.228803 0.973473 92.2956 152.563)"/><path fill="#FFDB44" d="M33.6657 38.2203C35.0382 37.4185 36.5815 38.9618 35.7797 40.3343L31.4646 47.7204C31.1832 48.2021 31.1832 48.7979 31.4646 49.2796L35.7797 56.6657C36.5815 58.0382 35.0382 59.5815 33.6657 58.7797L26.2796 54.4646C25.7979 54.1832 25.2021 54.1832 24.7204 54.4646L17.3343 58.7797C15.9618 59.5815 14.4185 58.0382 15.2203 56.6657L19.5354 49.2796C19.8168 48.7979 19.8168 48.2021 19.5354 47.7204L15.2203 40.3343C14.4185 38.9618 15.9618 37.4185 17.3343 38.2203L24.7204 42.5354C25.2021 42.8168 25.7979 42.8168 26.2796 42.5354L33.6657 38.2203Z"/><path fill="#FFDB44" d="M172.444 143.147C173.359 142.612 174.388 143.641 173.853 144.556L170.976 149.48C170.789 149.801 170.789 150.199 170.976 150.52L173.853 155.444C174.388 156.359 173.359 157.388 172.444 156.853L167.52 153.976C167.199 153.789 166.801 153.789 166.48 153.976L161.556 156.853C160.641 157.388 159.612 156.359 160.147 155.444L163.024 150.52C163.211 150.199 163.211 149.801 163.024 149.48L160.147 144.556C159.612 143.641 160.641 142.612 161.556 143.147L166.48 146.024C166.801 146.211 167.199 146.211 167.52 146.024L172.444 143.147Z"/><path fill="#FFC700" d="M156.306 113.253C149.237 149.257 114.759 168.002 81.2115 161.665C47.6637 155.327 29.9768 126.039 35.1879 93.343C40.399 60.6469 72.8009 37.5605 106.349 43.8976C139.896 50.2348 163.151 78.3921 156.306 113.253Z"/><mask id="mask0_1637_1532" width="124" height="121" x="34" y="43" maskUnits="userSpaceOnUse" style="mask-type:alpha"><path fill="#FFAF00" d="M156.195 113.815C149.126 149.819 114.648 168.563 81.1006 162.226C47.5529 155.889 29.866 126.601 35.077 93.9045C40.2881 61.2084 72.6901 38.122 106.238 44.4592C139.786 50.7964 163.04 78.9536 156.195 113.815Z"/></mask><g mask="url(#mask0_1637_1532)"><path fill="#ED8103" d="M97.4107 80.4043C99.0676 79.6312 101.055 80.0067 102.376 81.3422L120.061 99.2238C121.443 100.62 121.776 102.743 120.882 104.443L109.707 125.692C108.837 127.346 107.002 128.226 105.149 127.876L80.3995 123.2C78.5467 122.85 77.0908 121.35 76.7836 119.473L72.8379 95.368C72.5221 93.4387 73.4929 91.563 75.2258 90.7546L97.4107 80.4043Z"/><path fill="#F3A700" d="M106.288 53.0429C104.399 53.9241 102.133 53.4961 100.627 51.9737L90.8466 42.0841C89.2719 40.492 88.8916 38.0729 89.9111 36.1342L96.0441 24.472C97.0358 22.5863 99.1278 21.5841 101.24 21.9831L114.992 24.5808C117.104 24.9797 118.764 26.6905 119.114 28.8298L121.279 42.0595C121.639 44.2588 120.533 46.397 118.557 47.3185L106.288 53.0429Z"/><path fill="#F3A700" d="M38.64 90.8905C36.7512 91.7717 34.4854 91.3437 32.9797 89.8213L22.3991 79.1232C20.8245 77.5311 20.4441 75.112 21.4637 73.1733L28.1056 60.5435C29.0973 58.6577 31.1893 57.6556 33.3014 58.0545L48.1675 60.8626C50.2797 61.2616 51.9393 62.9724 52.2894 65.1117L54.6347 79.4391C54.9947 81.6384 53.888 83.7766 51.9127 84.6981L38.64 90.8905Z"/><path fill="#ED8103" d="M50.7827 165.561C48.8939 166.442 46.6281 166.014 45.1224 164.491L34.3673 153.617C32.7927 152.025 32.4124 149.606 33.4319 147.667L40.1849 134.826C41.1766 132.94 43.2686 131.938 45.3807 132.337L60.49 135.191C62.6021 135.59 64.2617 137.301 64.6119 139.44L66.9964 154.007C67.3564 156.206 66.2497 158.345 64.2744 159.266L50.7827 165.561Z"/><path fill="#F18200" d="M126.007 178.761C124.118 179.643 121.852 179.215 120.347 177.692L109.544 166.769C107.969 165.177 107.589 162.758 108.608 160.819L115.392 147.92C116.383 146.034 118.475 145.032 120.587 145.431L135.764 148.298C137.876 148.697 139.535 150.408 139.885 152.547L142.281 167.18C142.641 169.379 141.534 171.517 139.559 172.439L126.007 178.761Z"/><path fill="#ED8103" d="M161.191 113.587C159.303 114.469 157.037 114.041 155.531 112.518L145.31 102.183C143.735 100.591 143.355 98.1719 144.374 96.2332L150.787 84.038C151.779 82.1522 153.871 81.1501 155.983 81.549L170.349 84.2626C172.461 84.6616 174.121 86.3724 174.471 88.5116L176.736 102.346C177.096 104.545 175.989 106.684 174.014 107.605L161.191 113.587Z"/></g><g style="mix-blend-mode:screen" opacity=".5"><path fill="#FFDB44" d="M100.746 48.8013C105.418 49.2885 103.642 56.0712 99.0382 56.889C82.4174 59.8415 66.583 70.0955 57.0209 85.864C50.6449 96.3786 48.0194 107.759 48.7748 118.463C49.1025 123.107 43.4162 126.752 41.4952 122.508C40.5263 120.367 39.7037 118.133 39.0415 115.813C31.2 88.3442 48.8066 59.2356 78.3669 50.7971C85.9056 48.645 93.4937 48.0451 100.746 48.8013Z"/></g><g style="mix-blend-mode:darken"><path fill="#FFAF00" d="M128.492 145.491C124.976 148.151 121.826 143.35 124.489 139.789C126.05 137.701 127.54 135.521 128.951 133.254C137.741 119.126 141.96 103.952 141.842 90.1883C141.802 85.5319 148.381 81.9693 149.58 86.4818C155.483 108.702 146.399 131.943 128.492 145.491Z"/></g><path fill="#fff" d="M59.5568 63.4714C63.2282 60.3718 65.8109 66.1295 62.6023 69.7336C59.3995 73.3311 56.4899 77.3178 53.9577 81.6622C50.8652 86.9678 48.5455 92.4469 46.9684 97.9453C45.6408 102.574 39.7002 103.329 40.2981 98.5282C41.1639 91.5753 43.4445 84.6411 47.2499 78.1122C50.5585 72.4359 54.7489 67.5305 59.5568 63.4714Z"/><line x1="99.541" x2="102.43" y1="79.727" y2="57.064" stroke="url(#paint0_linear_1637_1532)" stroke-width="2"/><line x1="122.287" x2="147.7" y1="100.702" y2="98.648" stroke="url(#paint1_linear_1637_1532)" stroke-width="2"/><line x1="108.344" x2="120.565" y1="129.278" y2="146.588" stroke="url(#paint2_linear_1637_1532)" stroke-width="2"/><line x1="73.238" x2="54.717" y1="92.523" y2="82.229" stroke="url(#paint3_linear_1637_1532)" stroke-width="2"/><line x1="78.135" x2="65.013" y1="122.449" y2="139.087" stroke="url(#paint4_linear_1637_1532)" stroke-width="2"/><path fill="#EB8C00" d="M62 164.511C85.4661 159.83 109.534 159.83 133 164.511V172H62V164.511Z"/><ellipse cx="105" cy="33" fill="#FFDB44" rx="7" ry="11"/><path fill="#FFDB44" d="M75.84 50H71.84V54H75.84V50ZM75.84 25.6455H79.84V21.0028L75.2484 21.6894L75.84 25.6455ZM70.2955 26.4745H66.2955V31.1171L70.887 30.4306L70.2955 26.4745ZM70.2955 18.3391L69.7185 14.3809L66.2955 14.8799V18.3391H70.2955ZM85.5818 16.1109H89.5818V11.4856L85.0049 12.1527L85.5818 16.1109ZM85.5818 50V54H89.5818V50H85.5818ZM79.84 50V25.6455H71.84V50H79.84ZM75.2484 21.6894L69.7039 22.5185L70.887 30.4306L76.4316 29.6015L75.2484 21.6894ZM74.2955 26.4745V18.3391H66.2955V26.4745H74.2955ZM70.8724 22.2973L86.1588 20.0691L85.0049 12.1527L69.7185 14.3809L70.8724 22.2973ZM81.5818 16.1109V50H89.5818V16.1109H81.5818ZM85.5818 46H75.84V54H85.5818V46ZM95.9058 48.5491L93.8935 52.0061L93.9238 52.0237L93.9545 52.0409L95.9058 48.5491ZM90.8276 42.6936L87.1382 44.2392L90.8276 42.6936ZM90.8276 23.9355L87.1382 22.3899L90.8276 23.9355ZM95.9058 18.1318L97.8791 21.6112L97.8875 21.6064L97.8958 21.6016L95.9058 18.1318ZM117.462 20.5673L114.378 23.1139L114.385 23.1227L114.392 23.1316L117.462 20.5673ZM117.462 46.0618L120.547 48.6084L117.462 46.0618ZM109.845 39.9991L106.401 37.9642L106.394 37.9764L106.387 37.9886L109.845 39.9991ZM109.845 26.63L106.387 28.6405L106.404 28.6702L106.422 28.6997L109.845 26.63ZM100.466 26.63L97.0429 24.5603L97.025 24.5898L97.0078 24.6195L100.466 26.63ZM100.466 39.9991L96.988 41.9751L97.0148 42.0223L97.0429 42.0688L100.466 39.9991ZM105.181 46.5182C101.757 46.5182 99.4097 45.9249 97.8571 45.0573L93.9545 52.0409C97.1001 53.7987 100.937 54.5182 105.181 54.5182V46.5182ZM97.9181 45.0921C96.3833 44.1987 95.2642 42.9319 94.517 41.1481L87.1382 44.2392C88.5328 47.5681 90.7992 50.2049 93.8935 52.0061L97.9181 45.0921ZM94.517 41.1481C93.7072 39.215 93.2212 36.6477 93.2212 33.3145H85.2212C85.2212 37.3742 85.8062 41.0595 87.1382 44.2392L94.517 41.1481ZM93.2212 33.3145C93.2212 29.9814 93.7072 27.4141 94.517 25.481L87.1382 22.3899C85.8062 25.5696 85.2212 29.2549 85.2212 33.3145H93.2212ZM94.517 25.481C95.261 23.7049 96.3687 22.4679 97.8791 21.6112L93.9324 14.6525C90.8138 16.4212 88.536 19.0533 87.1382 22.3899L94.517 25.481ZM97.8958 21.6016C99.4387 20.7168 101.77 20.1109 105.181 20.1109V12.1109C100.923 12.1109 97.071 12.8523 93.9157 14.662L97.8958 21.6016ZM105.181 20.1109C110.318 20.1109 112.997 21.4411 114.378 23.1139L120.547 18.0207C117.022 13.7516 111.513 12.1109 105.181 12.1109V20.1109ZM114.392 23.1316C116.023 25.0841 117.141 28.2754 117.141 33.3145H125.141C125.141 27.2301 123.807 21.9232 120.532 18.003L114.392 23.1316ZM117.141 33.3145C117.141 38.3077 116.028 41.516 114.378 43.5152L120.547 48.6084C123.802 44.6658 125.141 39.3759 125.141 33.3145H117.141ZM114.378 43.5152C112.997 45.188 110.318 46.5182 105.181 46.5182V54.5182C111.513 54.5182 117.022 52.8775 120.547 48.6084L114.378 43.5152ZM105.181 46.2273C108.351 46.2273 111.503 45.1056 113.303 42.0096L106.387 37.9886C106.363 38.0296 106.352 38.037 106.357 38.0323C106.362 38.0276 106.353 38.0391 106.307 38.061C106.206 38.1094 105.881 38.2273 105.181 38.2273V46.2273ZM113.289 42.034C114.718 39.6146 115.192 36.5446 115.192 33.3145H107.192C107.192 35.9573 106.768 37.3436 106.401 37.9642L113.289 42.034ZM115.192 33.3145C115.192 30.0709 114.725 26.9705 113.268 24.5603L106.422 28.6997C106.761 29.2604 107.192 30.6163 107.192 33.3145H115.192ZM113.303 24.6195C111.503 21.5235 108.351 20.4018 105.181 20.4018V28.4018C105.881 28.4018 106.206 28.5197 106.307 28.5681C106.353 28.59 106.362 28.6015 106.357 28.5968C106.352 28.5921 106.363 28.5995 106.387 28.6405L113.303 24.6195ZM105.181 20.4018C102.005 20.4018 98.879 21.5236 97.0429 24.5603L103.889 28.6997C103.93 28.6309 103.951 28.6114 104.027 28.5754C104.147 28.519 104.484 28.4018 105.181 28.4018V20.4018ZM97.0078 24.6195C95.6163 27.0128 95.1703 30.0871 95.1703 33.3145H103.17C103.17 30.6002 103.588 29.2181 103.924 28.6405L97.0078 24.6195ZM95.1703 33.3145C95.1703 36.5281 95.6229 39.5727 96.988 41.9751L103.944 38.0231C103.581 37.3855 103.17 35.9737 103.17 33.3145H95.1703ZM97.0429 42.0688C98.879 45.1055 102.005 46.2273 105.181 46.2273V38.2273C104.484 38.2273 104.147 38.1101 104.027 38.0537C103.951 38.0177 103.93 37.9982 103.889 37.9294L97.0429 42.0688Z"/><path fill="#ED8103" d="M75.84 50V25.6455L70.2955 26.4745V18.3391L85.5818 16.1109V50H75.84ZM105.181 50.5182C101.347 50.5182 98.2549 49.8618 95.9058 48.5491C93.5912 47.2018 91.8985 45.25 90.8276 42.6936C89.7567 40.1373 89.2212 37.0109 89.2212 33.3145C89.2212 29.6182 89.7567 26.4918 90.8276 23.9355C91.8985 21.3791 93.5912 19.4445 95.9058 18.1318C98.2549 16.7845 101.347 16.1109 105.181 16.1109C110.916 16.1109 115.009 17.5964 117.462 20.5673C119.915 23.5036 121.141 27.7527 121.141 33.3145C121.141 38.8418 119.915 43.0909 117.462 46.0618C115.009 49.0327 110.916 50.5182 105.181 50.5182ZM105.181 42.2273C107.427 42.2273 108.981 41.4845 109.845 39.9991C110.743 38.4791 111.192 36.2509 111.192 33.3145C111.192 30.3436 110.743 28.1155 109.845 26.63C108.981 25.1445 107.427 24.4018 105.181 24.4018C102.936 24.4018 101.364 25.1445 100.466 26.63C99.6021 28.1155 99.1703 30.3436 99.1703 33.3145C99.1703 36.2509 99.6021 38.4791 100.466 39.9991C101.364 41.4845 102.936 42.2273 105.181 42.2273Z"/><defs><linearGradient id="paint0_linear_1637_1532" x1="100.533" x2="103.435" y1="79.854" y2="55.094" gradientUnits="userSpaceOnUse"><stop stop-color="#EF8103"/><stop offset="1" stop-color="#ED8103" stop-opacity="0"/></linearGradient><linearGradient id="paint1_linear_1637_1532" x1="122.368" x2="150.069" y1="101.699" y2="99.143" gradientUnits="userSpaceOnUse"><stop stop-color="#EF8103"/><stop offset="1" stop-color="#ED8103" stop-opacity="0"/></linearGradient><linearGradient id="paint2_linear_1637_1532" x1="107.527" x2="121.039" y1="129.855" y2="148.616" gradientUnits="userSpaceOnUse"><stop stop-color="#EF8103"/><stop offset="1" stop-color="#ED8103" stop-opacity="0"/></linearGradient><linearGradient id="paint3_linear_1637_1532" x1="73.724" x2="53.41" y1="91.649" y2="80.607" gradientUnits="userSpaceOnUse"><stop stop-color="#EF8103"/><stop offset="1" stop-color="#ED8103" stop-opacity="0"/></linearGradient><linearGradient id="paint4_linear_1637_1532" x1="77.35" x2="63.203" y1="121.83" y2="140.118" gradientUnits="userSpaceOnUse"><stop stop-color="#EF8103"/><stop offset="1" stop-color="#ED8103" stop-opacity="0"/></linearGradient></defs></svg>