<svg width="192" height="192" viewBox="0 0 192 192" fill="none" xmlns="http://www.w3.org/2000/svg">
<path d="M61.5222 153.828C63.8437 151.474 67.168 150.505 70.3404 151.255L81.0415 153.786C90.8159 156.098 100.97 156.11 110.749 153.819L121.745 151.244C124.921 150.501 128.245 151.48 130.562 153.841L141.157 164.642C146.61 170.2 143.802 179.785 136.279 181.3L119.716 184.633C104.033 187.789 87.9071 187.789 72.2245 184.633L55.7209 181.312C48.1858 179.795 45.3857 170.185 50.8614 164.635L61.5222 153.828Z" fill="#AE5714"/>
<path d="M63.1515 152.661C65.3358 150.518 68.3166 149.596 71.2176 150.165L84.5834 152.787C92.3503 154.311 100.306 154.325 108.078 152.828L121.81 150.182C124.81 149.604 127.884 150.621 130.074 152.914L139.068 162.338C142.807 166.255 140.819 173.108 135.682 174.011L117.131 177.272C103.404 179.686 89.3984 179.57 75.7072 176.93L57.2218 173.366C52.0482 172.368 50.1895 165.375 54.0829 161.556L63.1515 152.661Z" fill="#FF9330"/>
<ellipse rx="33.6654" ry="7.93798" transform="matrix(0.956375 0.292143 -0.228803 0.973473 98.4359 152.563)" fill="#AE5714"/>
<ellipse rx="33.6654" ry="7.93798" transform="matrix(-0.956375 0.292143 0.228803 0.973473 92.2956 152.563)" fill="#AE5714"/>
<path d="M33.6657 38.2203C35.0382 37.4185 36.5815 38.9618 35.7797 40.3343L31.4646 47.7204C31.1832 48.2021 31.1832 48.7979 31.4646 49.2796L35.7797 56.6657C36.5815 58.0382 35.0382 59.5815 33.6657 58.7797L26.2796 54.4646C25.7979 54.1832 25.2021 54.1832 24.7204 54.4646L17.3343 58.7797C15.9618 59.5815 14.4185 58.0382 15.2203 56.6657L19.5354 49.2796C19.8168 48.7979 19.8168 48.2021 19.5354 47.7204L15.2203 40.3343C14.4185 38.9618 15.9618 37.4185 17.3343 38.2203L24.7204 42.5354C25.2021 42.8168 25.7979 42.8168 26.2796 42.5354L33.6657 38.2203Z" fill="#F6AF5B"/>
<path d="M172.444 143.147C173.359 142.612 174.388 143.641 173.853 144.556L170.976 149.48C170.789 149.801 170.789 150.199 170.976 150.52L173.853 155.444C174.388 156.359 173.359 157.388 172.444 156.853L167.52 153.976C167.199 153.789 166.801 153.789 166.48 153.976L161.556 156.853C160.641 157.388 159.612 156.359 160.147 155.444L163.024 150.52C163.211 150.199 163.211 149.801 163.024 149.48L160.147 144.556C159.612 143.641 160.641 142.612 161.556 143.147L166.48 146.024C166.801 146.211 167.199 146.211 167.52 146.024L172.444 143.147Z" fill="#F6AF5B"/>
<path d="M156.306 113.254C149.237 149.257 114.759 168.002 81.2115 161.665C47.6637 155.327 29.9768 126.039 35.1879 93.3431C40.399 60.647 72.8009 37.5606 106.349 43.8978C139.896 50.235 163.151 78.3922 156.306 113.254Z" fill="#FFC700"/>
<mask id="mask0_1637_1530" style="mask-type:alpha" maskUnits="userSpaceOnUse" x="34" y="43" width="124" height="121">
<path d="M156.195 113.815C149.126 149.819 114.648 168.563 81.1006 162.226C47.5529 155.889 29.866 126.601 35.077 93.9046C40.2881 61.2085 72.6901 38.1221 106.238 44.4593C139.786 50.7965 163.04 78.9538 156.195 113.815Z" fill="#FFAF00"/>
</mask>
<g mask="url(#mask0_1637_1530)">
<path d="M97.4107 80.4043C99.0676 79.6312 101.055 80.0067 102.376 81.3422L120.061 99.2238C121.443 100.62 121.776 102.743 120.882 104.443L109.707 125.692C108.837 127.346 107.002 128.226 105.149 127.876L80.3995 123.2C78.5467 122.85 77.0908 121.35 76.7836 119.473L72.8379 95.368C72.5221 93.4387 73.4929 91.563 75.2258 90.7546L97.4107 80.4043Z" fill="#ED8103"/>
<path d="M106.288 53.0428C104.399 53.924 102.133 53.496 100.627 51.9736L90.8466 42.084C89.2719 40.4919 88.8916 38.0728 89.9111 36.1341L96.0441 24.4719C97.0358 22.5861 99.1278 21.584 101.24 21.983L114.992 24.5806C117.104 24.9796 118.764 26.6904 119.114 28.8297L121.279 42.0594C121.639 44.2587 120.533 46.3968 118.557 47.3184L106.288 53.0428Z" fill="#F3A700"/>
<path d="M38.64 90.8906C36.7512 91.7718 34.4854 91.3438 32.9797 89.8214L22.3991 79.1233C20.8245 77.5312 20.4441 75.1121 21.4637 73.1734L28.1056 60.5436C29.0973 58.6578 31.1893 57.6557 33.3014 58.0546L48.1675 60.8628C50.2797 61.2617 51.9393 62.9725 52.2894 65.1118L54.6347 79.4392C54.9947 81.6385 53.888 83.7767 51.9127 84.6983L38.64 90.8906Z" fill="#F3A700"/>
<path d="M50.7827 165.561C48.8939 166.442 46.6281 166.014 45.1224 164.491L34.3673 153.617C32.7927 152.025 32.4124 149.606 33.4319 147.667L40.1849 134.826C41.1766 132.94 43.2686 131.938 45.3807 132.337L60.49 135.191C62.6021 135.59 64.2617 137.301 64.6119 139.44L66.9964 154.007C67.3564 156.206 66.2497 158.344 64.2744 159.266L50.7827 165.561Z" fill="#ED8103"/>
<path d="M126.007 178.761C124.118 179.642 121.852 179.214 120.347 177.692L109.544 166.769C107.969 165.177 107.589 162.758 108.608 160.819L115.392 147.92C116.383 146.034 118.475 145.032 120.587 145.431L135.764 148.298C137.876 148.697 139.535 150.407 139.885 152.547L142.281 167.18C142.641 169.379 141.534 171.517 139.559 172.439L126.007 178.761Z" fill="#F18200"/>
<path d="M161.191 113.587C159.303 114.469 157.037 114.041 155.531 112.518L145.31 102.183C143.735 100.591 143.355 98.1721 144.374 96.2334L150.787 84.0381C151.779 82.1523 153.871 81.1502 155.983 81.5491L170.349 84.2628C172.461 84.6617 174.121 86.3725 174.471 88.5118L176.736 102.346C177.096 104.546 175.989 106.684 174.014 107.605L161.191 113.587Z" fill="#ED8103"/>
</g>
<g style="mix-blend-mode:screen" opacity="0.5">
<path d="M100.746 48.8013C105.418 49.2885 103.642 56.0712 99.0382 56.889C82.4174 59.8415 66.583 70.0955 57.0209 85.864C50.6449 96.3786 48.0194 107.759 48.7748 118.463C49.1025 123.107 43.4162 126.752 41.4952 122.508C40.5263 120.367 39.7037 118.133 39.0415 115.813C31.2 88.3442 48.8066 59.2356 78.3669 50.7971C85.9056 48.645 93.4937 48.0451 100.746 48.8013Z" fill="#FFDB44"/>
</g>
<g style="mix-blend-mode:darken">
<path d="M128.492 145.491C124.976 148.151 121.826 143.35 124.489 139.789C126.05 137.701 127.54 135.521 128.951 133.254C137.741 119.126 141.96 103.952 141.842 90.1883C141.802 85.5319 148.381 81.9693 149.58 86.4818C155.483 108.702 146.399 131.943 128.492 145.491Z" fill="#FFAF00"/>
</g>
<path d="M59.5568 63.4714C63.2282 60.3718 65.8109 66.1295 62.6023 69.7336C59.3995 73.3311 56.4899 77.3178 53.9577 81.6622C50.8652 86.9678 48.5455 92.4469 46.9684 97.9453C45.6408 102.574 39.7002 103.329 40.2981 98.5282C41.1639 91.5753 43.4445 84.6411 47.2499 78.1122C50.5585 72.4359 54.7489 67.5305 59.5568 63.4714Z" fill="white"/>
<line x1="99.5407" y1="79.7275" x2="102.43" y2="57.0637" stroke="url(#paint0_linear_1637_1530)" stroke-width="2"/>
<line x1="122.287" y1="100.702" x2="147.7" y2="98.6478" stroke="url(#paint1_linear_1637_1530)" stroke-width="2"/>
<line x1="108.344" y1="129.278" x2="120.565" y2="146.588" stroke="url(#paint2_linear_1637_1530)" stroke-width="2"/>
<line x1="73.2382" y1="92.5235" x2="54.7174" y2="82.2287" stroke="url(#paint3_linear_1637_1530)" stroke-width="2"/>
<line x1="78.135" y1="122.449" x2="65.0131" y2="139.087" stroke="url(#paint4_linear_1637_1530)" stroke-width="2"/>
<path d="M61 164.511C84.4661 159.83 108.534 159.83 132 164.511V172H61V164.511Z" fill="#FF9330"/>
<ellipse cx="108" cy="32" rx="7" ry="11" fill="#FF9330"/>
<path d="M78.84 49H74.84V53H78.84V49ZM78.84 24.6455H82.84V20.0028L78.2484 20.6894L78.84 24.6455ZM73.2955 25.4745H69.2955V30.1171L73.887 29.4306L73.2955 25.4745ZM73.2955 17.3391L72.7185 13.3809L69.2955 13.8799V17.3391H73.2955ZM88.5818 15.1109H92.5818V10.4856L88.0049 11.1527L88.5818 15.1109ZM88.5818 49V53H92.5818V49H88.5818ZM82.84 49V24.6455H74.84V49H82.84ZM78.2484 20.6894L72.7039 21.5185L73.887 29.4306L79.4316 28.6015L78.2484 20.6894ZM77.2955 25.4745V17.3391H69.2955V25.4745H77.2955ZM73.8724 21.2973L89.1588 19.0691L88.0049 11.1527L72.7185 13.3809L73.8724 21.2973ZM84.5818 15.1109V49H92.5818V15.1109H84.5818ZM88.5818 45H78.84V53H88.5818V45ZM98.9058 47.5491L96.8935 51.0061L96.9238 51.0237L96.9545 51.0409L98.9058 47.5491ZM93.8276 41.6936L90.1382 43.2392L93.8276 41.6936ZM93.8276 22.9355L90.1382 21.3899L93.8276 22.9355ZM98.9058 17.1318L100.879 20.6112L100.887 20.6064L100.896 20.6016L98.9058 17.1318ZM120.462 19.5673L117.378 22.1139L117.385 22.1227L117.392 22.1316L120.462 19.5673ZM120.462 45.0618L123.547 47.6084L120.462 45.0618ZM112.845 38.9991L109.401 36.9642L109.394 36.9764L109.387 36.9886L112.845 38.9991ZM112.845 25.63L109.387 27.6405L109.404 27.6702L109.422 27.6997L112.845 25.63ZM103.466 25.63L100.043 23.5603L100.025 23.5898L100.008 23.6195L103.466 25.63ZM103.466 38.9991L99.988 40.9751L100.015 41.0223L100.043 41.0688L103.466 38.9991ZM108.181 45.5182C104.757 45.5182 102.41 44.9249 100.857 44.0573L96.9545 51.0409C100.1 52.7987 103.937 53.5182 108.181 53.5182V45.5182ZM100.918 44.0921C99.3833 43.1987 98.2642 41.9319 97.517 40.1481L90.1382 43.2392C91.5328 46.5681 93.7992 49.2049 96.8935 51.0061L100.918 44.0921ZM97.517 40.1481C96.7072 38.215 96.2212 35.6477 96.2212 32.3145H88.2212C88.2212 36.3742 88.8062 40.0595 90.1382 43.2392L97.517 40.1481ZM96.2212 32.3145C96.2212 28.9814 96.7072 26.4141 97.517 24.481L90.1382 21.3899C88.8062 24.5696 88.2212 28.2549 88.2212 32.3145H96.2212ZM97.517 24.481C98.261 22.7049 99.3687 21.4679 100.879 20.6112L96.9324 13.6525C93.8138 15.4212 91.536 18.0533 90.1382 21.3899L97.517 24.481ZM100.896 20.6016C102.439 19.7168 104.77 19.1109 108.181 19.1109V11.1109C103.923 11.1109 100.071 11.8523 96.9157 13.662L100.896 20.6016ZM108.181 19.1109C113.318 19.1109 115.997 20.4411 117.378 22.1139L123.547 17.0207C120.022 12.7516 114.513 11.1109 108.181 11.1109V19.1109ZM117.392 22.1316C119.023 24.0841 120.141 27.2754 120.141 32.3145H128.141C128.141 26.2301 126.807 20.9232 123.532 17.003L117.392 22.1316ZM120.141 32.3145C120.141 37.3077 119.028 40.516 117.378 42.5152L123.547 47.6084C126.802 43.6658 128.141 38.3759 128.141 32.3145H120.141ZM117.378 42.5152C115.997 44.188 113.318 45.5182 108.181 45.5182V53.5182C114.513 53.5182 120.022 51.8775 123.547 47.6084L117.378 42.5152ZM108.181 45.2273C111.351 45.2273 114.503 44.1056 116.303 41.0096L109.387 36.9886C109.363 37.0296 109.352 37.037 109.357 37.0323C109.362 37.0276 109.353 37.0391 109.307 37.061C109.206 37.1094 108.881 37.2273 108.181 37.2273V45.2273ZM116.289 41.034C117.718 38.6146 118.192 35.5446 118.192 32.3145H110.192C110.192 34.9573 109.768 36.3436 109.401 36.9642L116.289 41.034ZM118.192 32.3145C118.192 29.0709 117.725 25.9705 116.268 23.5603L109.422 27.6997C109.761 28.2604 110.192 29.6163 110.192 32.3145H118.192ZM116.303 23.6195C114.503 20.5235 111.351 19.4018 108.181 19.4018V27.4018C108.881 27.4018 109.206 27.5197 109.307 27.5681C109.353 27.59 109.362 27.6015 109.357 27.5968C109.352 27.5921 109.363 27.5995 109.387 27.6405L116.303 23.6195ZM108.181 19.4018C105.005 19.4018 101.879 20.5236 100.043 23.5603L106.889 27.6997C106.93 27.6309 106.951 27.6114 107.027 27.5754C107.147 27.519 107.484 27.4018 108.181 27.4018V19.4018ZM100.008 23.6195C98.6163 26.0128 98.1703 29.0871 98.1703 32.3145H106.17C106.17 29.6002 106.588 28.2181 106.924 27.6405L100.008 23.6195ZM98.1703 32.3145C98.1703 35.5281 98.6229 38.5727 99.988 40.9751L106.944 37.0231C106.581 36.3855 106.17 34.9737 106.17 32.3145H98.1703ZM100.043 41.0688C101.879 44.1055 105.005 45.2273 108.181 45.2273V37.2273C107.484 37.2273 107.147 37.1101 107.027 37.0537C106.951 37.0177 106.93 36.9982 106.889 36.9294L100.043 41.0688Z" fill="#FF9330"/>
<path d="M78.84 49V24.6455L73.2955 25.4745V17.3391L88.5818 15.1109V49H78.84ZM108.181 49.5182C104.347 49.5182 101.255 48.8618 98.9058 47.5491C96.5912 46.2018 94.8985 44.25 93.8276 41.6936C92.7567 39.1373 92.2212 36.0109 92.2212 32.3145C92.2212 28.6182 92.7567 25.4918 93.8276 22.9355C94.8985 20.3791 96.5912 18.4445 98.9058 17.1318C101.255 15.7845 104.347 15.1109 108.181 15.1109C113.916 15.1109 118.009 16.5964 120.462 19.5673C122.915 22.5036 124.141 26.7527 124.141 32.3145C124.141 37.8418 122.915 42.0909 120.462 45.0618C118.009 48.0327 113.916 49.5182 108.181 49.5182ZM108.181 41.2273C110.427 41.2273 111.981 40.4845 112.845 38.9991C113.743 37.4791 114.192 35.2509 114.192 32.3145C114.192 29.3436 113.743 27.1155 112.845 25.63C111.981 24.1445 110.427 23.4018 108.181 23.4018C105.936 23.4018 104.364 24.1445 103.466 25.63C102.602 27.1155 102.17 29.3436 102.17 32.3145C102.17 35.2509 102.602 37.4791 103.466 38.9991C104.364 40.4845 105.936 41.2273 108.181 41.2273Z" fill="#AE5714"/>
<g style="mix-blend-mode:color">
<path d="M158 103C158 137.242 130.018 165 95.5 165C60.9822 165 33 137.242 33 103C33 68.7583 60.9822 41 95.5 41C130.018 41 158 68.7583 158 103Z" fill="#FCA24F"/>
</g>
<defs>
<linearGradient id="paint0_linear_1637_1530" x1="100.533" y1="79.854" x2="103.435" y2="55.0938" gradientUnits="userSpaceOnUse">
<stop stop-color="#EF8103"/>
<stop offset="1" stop-color="#ED8103" stop-opacity="0"/>
</linearGradient>
<linearGradient id="paint1_linear_1637_1530" x1="122.368" y1="101.699" x2="150.069" y2="99.1435" gradientUnits="userSpaceOnUse">
<stop stop-color="#EF8103"/>
<stop offset="1" stop-color="#ED8103" stop-opacity="0"/>
</linearGradient>
<linearGradient id="paint2_linear_1637_1530" x1="107.527" y1="129.855" x2="121.039" y2="148.616" gradientUnits="userSpaceOnUse">
<stop stop-color="#EF8103"/>
<stop offset="1" stop-color="#ED8103" stop-opacity="0"/>
</linearGradient>
<linearGradient id="paint3_linear_1637_1530" x1="73.724" y1="91.6494" x2="53.4103" y2="80.607" gradientUnits="userSpaceOnUse">
<stop stop-color="#EF8103"/>
<stop offset="1" stop-color="#ED8103" stop-opacity="0"/>
</linearGradient>
<linearGradient id="paint4_linear_1637_1530" x1="77.3499" y1="121.83" x2="63.2033" y2="140.118" gradientUnits="userSpaceOnUse">
<stop stop-color="#EF8103"/>
<stop offset="1" stop-color="#ED8103" stop-opacity="0"/>
</linearGradient>
</defs>
</svg>
