<svg width="192" height="192" viewBox="0 0 192 192" fill="none" xmlns="http://www.w3.org/2000/svg">
<path d="M61.5222 153.828C63.8437 151.474 67.168 150.505 70.3404 151.255L81.0415 153.786C90.8159 156.098 100.97 156.11 110.749 153.819L121.745 151.244C124.921 150.501 128.245 151.48 130.562 153.841L141.157 164.642C146.61 170.2 143.802 179.785 136.279 181.3L119.716 184.633C104.033 187.789 87.9071 187.789 72.2245 184.633L55.7209 181.312C48.1858 179.795 45.3857 170.185 50.8614 164.635L61.5222 153.828Z" fill="#AE5714"/>
<path d="M63.1515 152.661C65.3358 150.518 68.3166 149.596 71.2176 150.165L84.5834 152.787C92.3503 154.311 100.306 154.325 108.078 152.828L121.81 150.182C124.81 149.604 127.884 150.621 130.074 152.914L139.068 162.338C142.807 166.255 140.819 173.108 135.682 174.011L117.131 177.272C103.404 179.686 89.3984 179.57 75.7072 176.93L57.2218 173.366C52.0482 172.368 50.1895 165.375 54.0829 161.556L63.1515 152.661Z" fill="#FF9330"/>
<ellipse rx="33.6654" ry="7.93798" transform="matrix(0.956375 0.292143 -0.228803 0.973473 98.4359 152.563)" fill="#AE5714"/>
<ellipse rx="33.6654" ry="7.93798" transform="matrix(-0.956375 0.292143 0.228803 0.973473 92.2956 152.563)" fill="#AE5714"/>
<path d="M33.6657 38.2203C35.0382 37.4185 36.5815 38.9618 35.7797 40.3343L31.4646 47.7204C31.1832 48.2021 31.1832 48.7979 31.4646 49.2796L35.7797 56.6657C36.5815 58.0382 35.0382 59.5815 33.6657 58.7797L26.2796 54.4646C25.7979 54.1832 25.2021 54.1832 24.7204 54.4646L17.3343 58.7797C15.9618 59.5815 14.4185 58.0382 15.2203 56.6657L19.5354 49.2796C19.8168 48.7979 19.8168 48.2021 19.5354 47.7204L15.2203 40.3343C14.4185 38.9618 15.9618 37.4185 17.3343 38.2203L24.7204 42.5354C25.2021 42.8168 25.7979 42.8168 26.2796 42.5354L33.6657 38.2203Z" fill="#F6AF5B"/>
<path d="M172.444 143.147C173.359 142.612 174.388 143.641 173.853 144.556L170.976 149.48C170.789 149.801 170.789 150.199 170.976 150.52L173.853 155.444C174.388 156.359 173.359 157.388 172.444 156.853L167.52 153.976C167.199 153.789 166.801 153.789 166.48 153.976L161.556 156.853C160.641 157.388 159.612 156.359 160.147 155.444L163.024 150.52C163.211 150.199 163.211 149.801 163.024 149.48L160.147 144.556C159.612 143.641 160.641 142.612 161.556 143.147L166.48 146.024C166.801 146.211 167.199 146.211 167.52 146.024L172.444 143.147Z" fill="#F6AF5B"/>
<path d="M156.306 113.254C149.237 149.257 114.759 168.002 81.2115 161.665C47.6637 155.327 29.9768 126.039 35.1879 93.3431C40.399 60.647 72.8009 37.5606 106.349 43.8978C139.896 50.235 163.151 78.3922 156.306 113.254Z" fill="#FFC700"/>
<mask id="mask0_1637_1533" style="mask-type:alpha" maskUnits="userSpaceOnUse" x="34" y="43" width="124" height="121">
<path d="M156.195 113.815C149.126 149.819 114.648 168.563 81.1006 162.226C47.5529 155.889 29.866 126.601 35.077 93.9046C40.2881 61.2085 72.6901 38.1221 106.238 44.4593C139.786 50.7965 163.04 78.9538 156.195 113.815Z" fill="#FFAF00"/>
</mask>
<g mask="url(#mask0_1637_1533)">
<path d="M97.4107 80.4043C99.0676 79.6312 101.055 80.0067 102.376 81.3422L120.061 99.2238C121.443 100.62 121.776 102.743 120.882 104.443L109.707 125.692C108.837 127.346 107.002 128.226 105.149 127.876L80.3995 123.2C78.5467 122.85 77.0908 121.35 76.7836 119.473L72.8379 95.368C72.5221 93.4387 73.4929 91.563 75.2258 90.7546L97.4107 80.4043Z" fill="#ED8103"/>
<path d="M106.288 53.0428C104.399 53.924 102.133 53.496 100.627 51.9736L90.8466 42.084C89.2719 40.4919 88.8916 38.0728 89.9111 36.1341L96.0441 24.4719C97.0358 22.5861 99.1278 21.584 101.24 21.983L114.992 24.5806C117.104 24.9796 118.764 26.6904 119.114 28.8297L121.279 42.0594C121.639 44.2587 120.533 46.3968 118.557 47.3184L106.288 53.0428Z" fill="#F3A700"/>
<path d="M38.64 90.8906C36.7512 91.7718 34.4854 91.3438 32.9797 89.8214L22.3991 79.1233C20.8245 77.5312 20.4441 75.1121 21.4637 73.1734L28.1056 60.5436C29.0973 58.6578 31.1893 57.6557 33.3014 58.0546L48.1675 60.8628C50.2797 61.2617 51.9393 62.9725 52.2894 65.1118L54.6347 79.4392C54.9947 81.6385 53.888 83.7767 51.9127 84.6983L38.64 90.8906Z" fill="#F3A700"/>
<path d="M50.7827 165.561C48.8939 166.442 46.6281 166.014 45.1224 164.491L34.3673 153.617C32.7927 152.025 32.4124 149.606 33.4319 147.667L40.1849 134.826C41.1766 132.94 43.2686 131.938 45.3807 132.337L60.49 135.191C62.6021 135.59 64.2617 137.301 64.6119 139.44L66.9964 154.007C67.3564 156.206 66.2497 158.344 64.2744 159.266L50.7827 165.561Z" fill="#ED8103"/>
<path d="M126.007 178.761C124.118 179.642 121.852 179.214 120.347 177.692L109.544 166.769C107.969 165.177 107.589 162.758 108.608 160.819L115.392 147.92C116.383 146.034 118.475 145.032 120.587 145.431L135.764 148.298C137.876 148.697 139.535 150.407 139.885 152.547L142.281 167.18C142.641 169.379 141.534 171.517 139.559 172.439L126.007 178.761Z" fill="#F18200"/>
<path d="M161.191 113.587C159.303 114.469 157.037 114.041 155.531 112.518L145.31 102.183C143.735 100.591 143.355 98.1721 144.374 96.2334L150.787 84.0381C151.779 82.1523 153.871 81.1502 155.983 81.5491L170.349 84.2628C172.461 84.6617 174.121 86.3725 174.471 88.5118L176.736 102.346C177.096 104.546 175.989 106.684 174.014 107.605L161.191 113.587Z" fill="#ED8103"/>
</g>
<g style="mix-blend-mode:screen" opacity="0.5">
<path d="M100.746 48.8013C105.418 49.2885 103.642 56.0712 99.0382 56.889C82.4174 59.8415 66.583 70.0955 57.0209 85.864C50.6449 96.3786 48.0194 107.759 48.7748 118.463C49.1025 123.107 43.4162 126.752 41.4952 122.508C40.5263 120.367 39.7037 118.133 39.0415 115.813C31.2 88.3442 48.8066 59.2356 78.3669 50.7971C85.9056 48.645 93.4937 48.0451 100.746 48.8013Z" fill="#FFDB44"/>
</g>
<g style="mix-blend-mode:darken">
<path d="M128.492 145.491C124.976 148.151 121.826 143.35 124.489 139.789C126.05 137.701 127.54 135.521 128.951 133.254C137.741 119.126 141.96 103.952 141.842 90.1883C141.802 85.5319 148.381 81.9693 149.58 86.4818C155.483 108.702 146.399 131.943 128.492 145.491Z" fill="#FFAF00"/>
</g>
<path d="M59.5568 63.4714C63.2282 60.3718 65.8109 66.1295 62.6023 69.7336C59.3995 73.3311 56.4899 77.3178 53.9577 81.6622C50.8652 86.9678 48.5455 92.4469 46.9684 97.9453C45.6408 102.574 39.7002 103.329 40.2981 98.5282C41.1639 91.5753 43.4445 84.6411 47.2499 78.1122C50.5585 72.4359 54.7489 67.5305 59.5568 63.4714Z" fill="white"/>
<line x1="99.5407" y1="79.7275" x2="102.43" y2="57.0637" stroke="url(#paint0_linear_1637_1533)" stroke-width="2"/>
<line x1="122.287" y1="100.702" x2="147.7" y2="98.6478" stroke="url(#paint1_linear_1637_1533)" stroke-width="2"/>
<line x1="108.344" y1="129.278" x2="120.565" y2="146.588" stroke="url(#paint2_linear_1637_1533)" stroke-width="2"/>
<line x1="73.2382" y1="92.5235" x2="54.7174" y2="82.2287" stroke="url(#paint3_linear_1637_1533)" stroke-width="2"/>
<line x1="78.135" y1="122.449" x2="65.0131" y2="139.087" stroke="url(#paint4_linear_1637_1533)" stroke-width="2"/>
<path d="M61 164.511C84.4661 159.83 108.534 159.83 132 164.511V172H61V164.511Z" fill="#FF9330"/>
<ellipse cx="108" cy="34" rx="32" ry="14" fill="#FF9330"/>
<path d="M60.84 51H56.84V55H60.84V51ZM60.84 26.6455H64.84V22.0028L60.2484 22.6894L60.84 26.6455ZM55.2955 27.4745H51.2955V32.1171L55.887 31.4306L55.2955 27.4745ZM55.2955 19.3391L54.7185 15.3809L51.2955 15.8799V19.3391H55.2955ZM70.5818 17.1109H74.5818V12.4856L70.0049 13.1527L70.5818 17.1109ZM70.5818 51V55H74.5818V51H70.5818ZM64.84 51V26.6455H56.84V51H64.84ZM60.2484 22.6894L54.7039 23.5185L55.887 31.4306L61.4316 30.6015L60.2484 22.6894ZM59.2955 27.4745V19.3391H51.2955V27.4745H59.2955ZM55.8724 23.2973L71.1588 21.0691L70.0049 13.1527L54.7185 15.3809L55.8724 23.2973ZM66.5818 17.1109V51H74.5818V17.1109H66.5818ZM70.5818 47H60.84V55H70.5818V47ZM80.9058 49.5491L78.8935 53.0061L78.9238 53.0237L78.9545 53.0409L80.9058 49.5491ZM75.8276 43.6936L72.1382 45.2392L75.8276 43.6936ZM75.8276 24.9355L72.1382 23.3899L75.8276 24.9355ZM80.9058 19.1318L82.8791 22.6112L82.8875 22.6064L82.8958 22.6016L80.9058 19.1318ZM102.462 21.5673L99.3775 24.1139L99.3849 24.1227L99.3922 24.1316L102.462 21.5673ZM102.462 47.0618L105.547 49.6084L102.462 47.0618ZM94.8449 40.9991L91.4012 38.9642L91.394 38.9764L91.3868 38.9886L94.8449 40.9991ZM94.8449 27.63L91.3868 29.6405L91.4041 29.6702L91.4219 29.6997L94.8449 27.63ZM85.4658 27.63L82.0429 25.5603L82.025 25.5898L82.0078 25.6195L85.4658 27.63ZM85.4658 40.9991L81.988 42.9751L82.0148 43.0223L82.0429 43.0688L85.4658 40.9991ZM90.1812 47.5182C86.7566 47.5182 84.4097 46.9249 82.8571 46.0573L78.9545 53.0409C82.1001 54.7987 85.9368 55.5182 90.1812 55.5182V47.5182ZM82.9181 46.0921C81.3833 45.1987 80.2642 43.9319 79.517 42.1481L72.1382 45.2392C73.5328 48.5681 75.7992 51.2049 78.8935 53.0061L82.9181 46.0921ZM79.517 42.1481C78.7072 40.215 78.2212 37.6477 78.2212 34.3145H70.2212C70.2212 38.3742 70.8062 42.0595 72.1382 45.2392L79.517 42.1481ZM78.2212 34.3145C78.2212 30.9814 78.7072 28.4141 79.517 26.481L72.1382 23.3899C70.8062 26.5696 70.2212 30.2549 70.2212 34.3145H78.2212ZM79.517 26.481C80.261 24.7049 81.3687 23.4679 82.8791 22.6112L78.9324 15.6525C75.8138 17.4212 73.536 20.0533 72.1382 23.3899L79.517 26.481ZM82.8958 22.6016C84.4387 21.7168 86.7703 21.1109 90.1812 21.1109V13.1109C85.9231 13.1109 82.071 13.8523 78.9157 15.662L82.8958 22.6016ZM90.1812 21.1109C95.3184 21.1109 97.9965 22.4411 99.3775 24.1139L105.547 19.0207C102.022 14.7516 96.5131 13.1109 90.1812 13.1109V21.1109ZM99.3922 24.1316C101.023 26.0841 102.141 29.2754 102.141 34.3145H110.141C110.141 28.2301 108.807 22.9232 105.532 19.003L99.3922 24.1316ZM102.141 34.3145C102.141 39.3077 101.028 42.516 99.3775 44.5152L105.547 49.6084C108.802 45.6658 110.141 40.3759 110.141 34.3145H102.141ZM99.3775 44.5152C97.9965 46.188 95.3184 47.5182 90.1812 47.5182V55.5182C96.5131 55.5182 102.022 53.8775 105.547 49.6084L99.3775 44.5152ZM90.1812 47.2273C93.3508 47.2273 96.5029 46.1056 98.3029 43.0096L91.3868 38.9886C91.363 39.0296 91.352 39.037 91.3571 39.0323C91.3622 39.0276 91.3526 39.0391 91.3068 39.061C91.2055 39.1094 90.8811 39.2273 90.1812 39.2273V47.2273ZM98.2886 43.034C99.7182 40.6146 100.192 37.5446 100.192 34.3145H92.1921C92.1921 36.9573 91.7679 38.3436 91.4012 38.9642L98.2886 43.034ZM100.192 34.3145C100.192 31.0709 99.7251 27.9705 98.2678 25.5603L91.4219 29.6997C91.761 30.2604 92.1921 31.6163 92.1921 34.3145H100.192ZM98.3029 25.6195C96.5029 22.5235 93.3508 21.4018 90.1812 21.4018V29.4018C90.8811 29.4018 91.2055 29.5197 91.3068 29.5681C91.3526 29.59 91.3622 29.6015 91.3571 29.5968C91.352 29.5921 91.363 29.5995 91.3868 29.6405L98.3029 25.6195ZM90.1812 21.4018C87.0046 21.4018 83.879 22.5236 82.0429 25.5603L88.8887 29.6997C88.9303 29.6309 88.9511 29.6114 89.0272 29.5754C89.1467 29.519 89.4836 29.4018 90.1812 29.4018V21.4018ZM82.0078 25.6195C80.6163 28.0128 80.1703 31.0871 80.1703 34.3145H88.1703C88.1703 31.6002 88.588 30.2181 88.9238 29.6405L82.0078 25.6195ZM80.1703 34.3145C80.1703 37.5281 80.6229 40.5727 81.988 42.9751L88.9436 39.0231C88.5814 38.3855 88.1703 36.9737 88.1703 34.3145H80.1703ZM82.0429 43.0688C83.879 46.1055 87.0046 47.2273 90.1812 47.2273V39.2273C89.4836 39.2273 89.1467 39.1101 89.0272 39.0537C88.9511 39.0177 88.9303 38.9982 88.8887 38.9294L82.0429 43.0688ZM115.417 49.5491L113.405 53.0061L113.436 53.0237L113.466 53.0409L115.417 49.5491ZM110.339 43.6936L106.65 45.2392L110.339 43.6936ZM110.339 24.9355L106.65 23.3899L110.339 24.9355ZM115.417 19.1318L117.391 22.6112L117.399 22.6064L117.408 22.6016L115.417 19.1318ZM136.974 21.5673L133.889 24.1139L133.897 24.1227L133.904 24.1316L136.974 21.5673ZM136.974 47.0618L140.058 49.6084L136.974 47.0618ZM129.357 40.9991L125.913 38.9642L125.906 38.9764L125.899 38.9886L129.357 40.9991ZM129.357 27.63L125.899 29.6405L125.916 29.6702L125.934 29.6997L129.357 27.63ZM119.978 27.63L116.555 25.5603L116.537 25.5898L116.519 25.6195L119.978 27.63ZM119.978 40.9991L116.5 42.9751L116.526 43.0223L116.555 43.0688L119.978 40.9991ZM124.693 47.5182C121.268 47.5182 118.921 46.9249 117.369 46.0573L113.466 53.0409C116.612 54.7987 120.449 55.5182 124.693 55.5182V47.5182ZM117.43 46.0921C115.895 45.1987 114.776 43.9319 114.029 42.1481L106.65 45.2392C108.044 48.5681 110.311 51.2049 113.405 53.0061L117.43 46.0921ZM114.029 42.1481C113.219 40.215 112.733 37.6477 112.733 34.3145H104.733C104.733 38.3742 105.318 42.0595 106.65 45.2392L114.029 42.1481ZM112.733 34.3145C112.733 30.9814 113.219 28.4141 114.029 26.481L106.65 23.3899C105.318 26.5696 104.733 30.2549 104.733 34.3145H112.733ZM114.029 26.481C114.773 24.7049 115.88 23.4679 117.391 22.6112L113.444 15.6525C110.326 17.4212 108.048 20.0533 106.65 23.3899L114.029 26.481ZM117.408 22.6016C118.95 21.7168 121.282 21.1109 124.693 21.1109V13.1109C120.435 13.1109 116.583 13.8523 113.427 15.662L117.408 22.6016ZM124.693 21.1109C129.83 21.1109 132.508 22.4411 133.889 24.1139L140.058 19.0207C136.534 14.7516 131.025 13.1109 124.693 13.1109V21.1109ZM133.904 24.1316C135.535 26.0841 136.653 29.2754 136.653 34.3145H144.653C144.653 28.2301 143.318 22.9232 140.044 19.003L133.904 24.1316ZM136.653 34.3145C136.653 39.3077 135.54 42.516 133.889 44.5152L140.058 49.6084C143.313 45.6658 144.653 40.3759 144.653 34.3145H136.653ZM133.889 44.5152C132.508 46.188 129.83 47.5182 124.693 47.5182V55.5182C131.025 55.5182 136.534 53.8775 140.058 49.6084L133.889 44.5152ZM124.693 47.2273C127.863 47.2273 131.015 46.1056 132.815 43.0096L125.899 38.9886C125.875 39.0296 125.864 39.037 125.869 39.0323C125.874 39.0276 125.864 39.0391 125.819 39.061C125.717 39.1094 125.393 39.2273 124.693 39.2273V47.2273ZM132.8 43.034C134.23 40.6146 134.704 37.5446 134.704 34.3145H126.704C126.704 36.9573 126.28 38.3436 125.913 38.9642L132.8 43.034ZM134.704 34.3145C134.704 31.0709 134.237 27.9705 132.78 25.5603L125.934 29.6997C126.273 30.2604 126.704 31.6163 126.704 34.3145H134.704ZM132.815 25.6195C131.015 22.5235 127.863 21.4018 124.693 21.4018V29.4018C125.393 29.4018 125.717 29.5197 125.819 29.5681C125.864 29.59 125.874 29.6015 125.869 29.5968C125.864 29.5921 125.875 29.5995 125.899 29.6405L132.815 25.6195ZM124.693 21.4018C121.516 21.4018 118.391 22.5236 116.555 25.5603L123.4 29.6997C123.442 29.6309 123.463 29.6114 123.539 29.5754C123.658 29.519 123.995 29.4018 124.693 29.4018V21.4018ZM116.519 25.6195C115.128 28.0128 114.682 31.0871 114.682 34.3145H122.682C122.682 31.6002 123.1 30.2181 123.436 29.6405L116.519 25.6195ZM114.682 34.3145C114.682 37.5281 115.135 40.5727 116.5 42.9751L123.455 39.0231C123.093 38.3855 122.682 36.9737 122.682 34.3145H114.682ZM116.555 43.0688C118.391 46.1055 121.516 47.2273 124.693 47.2273V39.2273C123.995 39.2273 123.658 39.1101 123.539 39.0537C123.463 39.0177 123.442 38.9982 123.4 38.9294L116.555 43.0688Z" fill="#FF9330"/>
<path d="M60.84 51V26.6455L55.2955 27.4745V19.3391L70.5818 17.1109V51H60.84ZM90.1812 51.5182C86.3467 51.5182 83.2549 50.8618 80.9058 49.5491C78.5912 48.2018 76.8985 46.25 75.8276 43.6936C74.7567 41.1373 74.2212 38.0109 74.2212 34.3145C74.2212 30.6182 74.7567 27.4918 75.8276 24.9355C76.8985 22.3791 78.5912 20.4445 80.9058 19.1318C83.2549 17.7845 86.3467 17.1109 90.1812 17.1109C95.9158 17.1109 100.009 18.5964 102.462 21.5673C104.915 24.5036 106.141 28.7527 106.141 34.3145C106.141 39.8418 104.915 44.0909 102.462 47.0618C100.009 50.0327 95.9158 51.5182 90.1812 51.5182ZM90.1812 43.2273C92.4267 43.2273 93.9812 42.4845 94.8449 40.9991C95.7431 39.4791 96.1921 37.2509 96.1921 34.3145C96.1921 31.3436 95.7431 29.1155 94.8449 27.63C93.9812 26.1445 92.4267 25.4018 90.1812 25.4018C87.9358 25.4018 86.364 26.1445 85.4658 27.63C84.6021 29.1155 84.1703 31.3436 84.1703 34.3145C84.1703 37.2509 84.6021 39.4791 85.4658 40.9991C86.364 42.4845 87.9358 43.2273 90.1812 43.2273ZM124.693 51.5182C120.858 51.5182 117.767 50.8618 115.418 49.5491C113.103 48.2018 111.41 46.25 110.339 43.6936C109.268 41.1373 108.733 38.0109 108.733 34.3145C108.733 30.6182 109.268 27.4918 110.339 24.9355C111.41 22.3791 113.103 20.4445 115.418 19.1318C117.767 17.7845 120.858 17.1109 124.693 17.1109C130.428 17.1109 134.521 18.5964 136.974 21.5673C139.427 24.5036 140.653 28.7527 140.653 34.3145C140.653 39.8418 139.427 44.0909 136.974 47.0618C134.521 50.0327 130.428 51.5182 124.693 51.5182ZM124.693 43.2273C126.938 43.2273 128.493 42.4845 129.357 40.9991C130.255 39.4791 130.704 37.2509 130.704 34.3145C130.704 31.3436 130.255 29.1155 129.357 27.63C128.493 26.1445 126.938 25.4018 124.693 25.4018C122.448 25.4018 120.876 26.1445 119.978 27.63C119.114 29.1155 118.682 31.3436 118.682 34.3145C118.682 37.2509 119.114 39.4791 119.978 40.9991C120.876 42.4845 122.448 43.2273 124.693 43.2273Z" fill="#AE5714"/>
<g style="mix-blend-mode:color">
<path d="M158 103C158 137.242 130.018 165 95.5 165C60.9822 165 33 137.242 33 103C33 68.7583 60.9822 41 95.5 41C130.018 41 158 68.7583 158 103Z" fill="#FCA24F"/>
</g>
<defs>
<linearGradient id="paint0_linear_1637_1533" x1="100.533" y1="79.854" x2="103.435" y2="55.0938" gradientUnits="userSpaceOnUse">
<stop stop-color="#EF8103"/>
<stop offset="1" stop-color="#ED8103" stop-opacity="0"/>
</linearGradient>
<linearGradient id="paint1_linear_1637_1533" x1="122.368" y1="101.699" x2="150.069" y2="99.1435" gradientUnits="userSpaceOnUse">
<stop stop-color="#EF8103"/>
<stop offset="1" stop-color="#ED8103" stop-opacity="0"/>
</linearGradient>
<linearGradient id="paint2_linear_1637_1533" x1="107.527" y1="129.855" x2="121.039" y2="148.616" gradientUnits="userSpaceOnUse">
<stop stop-color="#EF8103"/>
<stop offset="1" stop-color="#ED8103" stop-opacity="0"/>
</linearGradient>
<linearGradient id="paint3_linear_1637_1533" x1="73.724" y1="91.6494" x2="53.4103" y2="80.607" gradientUnits="userSpaceOnUse">
<stop stop-color="#EF8103"/>
<stop offset="1" stop-color="#ED8103" stop-opacity="0"/>
</linearGradient>
<linearGradient id="paint4_linear_1637_1533" x1="77.3499" y1="121.83" x2="63.2033" y2="140.118" gradientUnits="userSpaceOnUse">
<stop stop-color="#EF8103"/>
<stop offset="1" stop-color="#ED8103" stop-opacity="0"/>
</linearGradient>
</defs>
</svg>
