<svg width="192" height="192" viewBox="0 0 192 192" fill="none" xmlns="http://www.w3.org/2000/svg">
<path d="M61.5222 153.828C63.8437 151.474 67.168 150.505 70.3404 151.255L81.0415 153.786C90.8159 156.098 100.97 156.11 110.749 153.819L121.745 151.244C124.921 150.501 128.245 151.48 130.562 153.841L141.157 164.642C146.61 170.2 143.802 179.785 136.279 181.3L119.716 184.633C104.033 187.789 87.9071 187.789 72.2245 184.633L55.7209 181.312C48.1858 179.795 45.3857 170.185 50.8614 164.635L61.5222 153.828Z" fill="#686868"/>
<path d="M63.1515 152.661C65.3358 150.518 68.3166 149.596 71.2176 150.165L84.5834 152.787C92.3503 154.311 100.306 154.325 108.078 152.828L121.81 150.182C124.81 149.604 127.884 150.621 130.074 152.914L139.068 162.338C142.807 166.255 140.819 173.108 135.682 174.011L117.131 177.272C103.404 179.686 89.3984 179.57 75.7072 176.93L57.2218 173.366C52.0482 172.368 50.1895 165.375 54.0829 161.556L63.1515 152.661Z" fill="#939393"/>
<ellipse rx="33.6654" ry="7.93798" transform="matrix(0.956375 0.292143 -0.228803 0.973473 98.4359 152.563)" fill="#3D3C3C"/>
<ellipse rx="33.6654" ry="7.93798" transform="matrix(-0.956375 0.292143 0.228803 0.973473 92.2956 152.563)" fill="#3D3C3C"/>
<path d="M33.6657 38.2203C35.0382 37.4185 36.5815 38.9618 35.7797 40.3343L31.4646 47.7204C31.1832 48.2021 31.1832 48.7979 31.4646 49.2796L35.7797 56.6657C36.5815 58.0382 35.0382 59.5815 33.6657 58.7797L26.2796 54.4646C25.7979 54.1832 25.2021 54.1832 24.7204 54.4646L17.3343 58.7797C15.9618 59.5815 14.4185 58.0382 15.2203 56.6657L19.5354 49.2796C19.8168 48.7979 19.8168 48.2021 19.5354 47.7204L15.2203 40.3343C14.4185 38.9618 15.9618 37.4185 17.3343 38.2203L24.7204 42.5354C25.2021 42.8168 25.7979 42.8168 26.2796 42.5354L33.6657 38.2203Z" fill="#D6D6D6"/>
<path d="M172.444 143.147C173.359 142.612 174.388 143.641 173.853 144.556L170.976 149.48C170.789 149.801 170.789 150.199 170.976 150.52L173.853 155.444C174.388 156.359 173.359 157.388 172.444 156.853L167.52 153.976C167.199 153.789 166.801 153.789 166.48 153.976L161.556 156.853C160.641 157.388 159.612 156.359 160.147 155.444L163.024 150.52C163.211 150.199 163.211 149.801 163.024 149.48L160.147 144.556C159.612 143.641 160.641 142.612 161.556 143.147L166.48 146.024C166.801 146.211 167.199 146.211 167.52 146.024L172.444 143.147Z" fill="#D6D6D6"/>
<path d="M156.306 113.253C149.237 149.257 114.759 168.002 81.2115 161.665C47.6637 155.327 29.9768 126.039 35.1879 93.343C40.399 60.6469 72.8009 37.5605 106.349 43.8976C139.896 50.2348 163.151 78.3921 156.306 113.253Z" fill="#FFC700"/>
<mask id="mask0_1637_1534" style="mask-type:alpha" maskUnits="userSpaceOnUse" x="34" y="43" width="124" height="121">
<path d="M156.195 113.815C149.126 149.819 114.648 168.563 81.1006 162.226C47.5529 155.889 29.866 126.601 35.077 93.9045C40.2881 61.2084 72.6901 38.122 106.238 44.4592C139.786 50.7964 163.04 78.9536 156.195 113.815Z" fill="#FFAF00"/>
</mask>
<g mask="url(#mask0_1637_1534)">
<path d="M97.4107 80.4043C99.0676 79.6312 101.055 80.0067 102.376 81.3422L120.061 99.2238C121.443 100.62 121.776 102.743 120.882 104.443L109.707 125.692C108.837 127.346 107.002 128.226 105.149 127.876L80.3995 123.2C78.5467 122.85 77.0908 121.35 76.7836 119.473L72.8379 95.368C72.5221 93.4387 73.4929 91.563 75.2258 90.7546L97.4107 80.4043Z" fill="#ED8103"/>
<path d="M106.288 53.0429C104.399 53.9241 102.133 53.4961 100.627 51.9737L90.8466 42.0841C89.2719 40.492 88.8916 38.0729 89.9111 36.1342L96.0441 24.472C97.0358 22.5863 99.1278 21.5841 101.24 21.9831L114.992 24.5808C117.104 24.9797 118.764 26.6905 119.114 28.8298L121.279 42.0595C121.639 44.2588 120.533 46.397 118.557 47.3185L106.288 53.0429Z" fill="#F3A700"/>
<path d="M38.64 90.8905C36.7512 91.7717 34.4854 91.3437 32.9797 89.8213L22.3991 79.1232C20.8245 77.5311 20.4441 75.112 21.4637 73.1733L28.1056 60.5435C29.0973 58.6577 31.1893 57.6556 33.3014 58.0545L48.1675 60.8626C50.2797 61.2616 51.9393 62.9724 52.2894 65.1117L54.6347 79.4391C54.9947 81.6384 53.888 83.7766 51.9127 84.6981L38.64 90.8905Z" fill="#F3A700"/>
<path d="M50.7827 165.561C48.8939 166.442 46.6281 166.014 45.1224 164.491L34.3673 153.617C32.7927 152.025 32.4124 149.606 33.4319 147.667L40.1849 134.826C41.1766 132.94 43.2686 131.938 45.3807 132.337L60.49 135.191C62.6021 135.59 64.2617 137.301 64.6119 139.44L66.9964 154.007C67.3564 156.206 66.2497 158.345 64.2744 159.266L50.7827 165.561Z" fill="#ED8103"/>
<path d="M126.007 178.761C124.118 179.643 121.852 179.215 120.347 177.692L109.544 166.769C107.969 165.177 107.589 162.758 108.608 160.819L115.392 147.92C116.383 146.034 118.475 145.032 120.587 145.431L135.764 148.298C137.876 148.697 139.535 150.408 139.885 152.547L142.281 167.18C142.641 169.379 141.534 171.517 139.559 172.439L126.007 178.761Z" fill="#F18200"/>
<path d="M161.191 113.587C159.303 114.469 157.037 114.041 155.531 112.518L145.31 102.183C143.735 100.591 143.355 98.1719 144.374 96.2332L150.787 84.038C151.779 82.1522 153.871 81.1501 155.983 81.549L170.349 84.2626C172.461 84.6616 174.121 86.3724 174.471 88.5116L176.736 102.346C177.096 104.545 175.989 106.684 174.014 107.605L161.191 113.587Z" fill="#ED8103"/>
</g>
<g style="mix-blend-mode:screen" opacity="0.5">
<path d="M100.746 48.8013C105.418 49.2885 103.642 56.0712 99.0382 56.889C82.4174 59.8415 66.583 70.0955 57.0209 85.864C50.6449 96.3786 48.0194 107.759 48.7748 118.463C49.1025 123.107 43.4162 126.752 41.4952 122.508C40.5263 120.367 39.7037 118.133 39.0415 115.813C31.2 88.3442 48.8066 59.2356 78.3669 50.7971C85.9056 48.645 93.4937 48.0451 100.746 48.8013Z" fill="#FFDB44"/>
</g>
<g style="mix-blend-mode:darken">
<path d="M128.492 145.491C124.976 148.151 121.826 143.35 124.489 139.789C126.05 137.701 127.54 135.521 128.951 133.254C137.741 119.126 141.96 103.952 141.842 90.1883C141.802 85.5319 148.381 81.9693 149.58 86.4818C155.483 108.702 146.399 131.943 128.492 145.491Z" fill="#FFAF00"/>
</g>
<path d="M59.5568 63.4714C63.2282 60.3718 65.8109 66.1295 62.6023 69.7336C59.3995 73.3311 56.4899 77.3178 53.9577 81.6622C50.8652 86.9678 48.5455 92.4469 46.9684 97.9453C45.6408 102.574 39.7002 103.329 40.2981 98.5282C41.1639 91.5753 43.4445 84.6411 47.2499 78.1122C50.5585 72.4359 54.7489 67.5305 59.5568 63.4714Z" fill="white"/>
<line x1="99.5407" y1="79.7274" x2="102.43" y2="57.0636" stroke="url(#paint0_linear_1637_1534)" stroke-width="2"/>
<line x1="122.287" y1="100.702" x2="147.7" y2="98.6477" stroke="url(#paint1_linear_1637_1534)" stroke-width="2"/>
<line x1="108.344" y1="129.278" x2="120.565" y2="146.588" stroke="url(#paint2_linear_1637_1534)" stroke-width="2"/>
<line x1="73.2382" y1="92.5233" x2="54.7174" y2="82.2286" stroke="url(#paint3_linear_1637_1534)" stroke-width="2"/>
<line x1="78.135" y1="122.449" x2="65.0131" y2="139.087" stroke="url(#paint4_linear_1637_1534)" stroke-width="2"/>
<path d="M61 164.511C84.4661 159.83 108.534 159.83 132 164.511V172H61V164.511Z" fill="#939393"/>
<g style="mix-blend-mode:color">
<path d="M158 103.5C158 138.018 129.794 166 95 166C60.2061 166 32 138.018 32 103.5C32 68.9822 60.2061 41 95 41C129.794 41 158 68.9822 158 103.5Z" fill="white"/>
</g>
<ellipse cx="107" cy="33" rx="32" ry="14" fill="#E2E2E2"/>
<path d="M59.84 50H55.84V54H59.84V50ZM59.84 25.6455H63.84V21.0028L59.2484 21.6894L59.84 25.6455ZM54.2955 26.4745H50.2955V31.1171L54.887 30.4306L54.2955 26.4745ZM54.2955 18.3391L53.7185 14.3809L50.2955 14.8799V18.3391H54.2955ZM69.5818 16.1109H73.5818V11.4856L69.0049 12.1527L69.5818 16.1109ZM69.5818 50V54H73.5818V50H69.5818ZM63.84 50V25.6455H55.84V50H63.84ZM59.2484 21.6894L53.7039 22.5185L54.887 30.4306L60.4316 29.6015L59.2484 21.6894ZM58.2955 26.4745V18.3391H50.2955V26.4745H58.2955ZM54.8724 22.2973L70.1588 20.0691L69.0049 12.1527L53.7185 14.3809L54.8724 22.2973ZM65.5818 16.1109V50H73.5818V16.1109H65.5818ZM69.5818 46H59.84V54H69.5818V46ZM79.9058 48.5491L77.8935 52.0061L77.9238 52.0237L77.9545 52.0409L79.9058 48.5491ZM74.8276 42.6936L71.1382 44.2392L74.8276 42.6936ZM74.8276 23.9355L71.1382 22.3899L74.8276 23.9355ZM79.9058 18.1318L81.8791 21.6112L81.8875 21.6064L81.8958 21.6016L79.9058 18.1318ZM101.462 20.5673L98.3775 23.1139L98.3849 23.1227L98.3922 23.1316L101.462 20.5673ZM101.462 46.0618L104.547 48.6084L101.462 46.0618ZM93.8449 39.9991L90.4012 37.9642L90.394 37.9764L90.3868 37.9886L93.8449 39.9991ZM93.8449 26.63L90.3868 28.6405L90.4041 28.6702L90.4219 28.6997L93.8449 26.63ZM84.4658 26.63L81.0429 24.5603L81.025 24.5898L81.0078 24.6195L84.4658 26.63ZM84.4658 39.9991L80.988 41.9751L81.0148 42.0223L81.0429 42.0688L84.4658 39.9991ZM89.1812 46.5182C85.7566 46.5182 83.4097 45.9249 81.8571 45.0573L77.9545 52.0409C81.1001 53.7987 84.9368 54.5182 89.1812 54.5182V46.5182ZM81.9181 45.0921C80.3833 44.1987 79.2642 42.9319 78.517 41.1481L71.1382 44.2392C72.5328 47.5681 74.7992 50.2049 77.8935 52.0061L81.9181 45.0921ZM78.517 41.1481C77.7072 39.215 77.2212 36.6477 77.2212 33.3145H69.2212C69.2212 37.3742 69.8062 41.0595 71.1382 44.2392L78.517 41.1481ZM77.2212 33.3145C77.2212 29.9814 77.7072 27.4141 78.517 25.481L71.1382 22.3899C69.8062 25.5696 69.2212 29.2549 69.2212 33.3145H77.2212ZM78.517 25.481C79.261 23.7049 80.3687 22.4679 81.8791 21.6112L77.9324 14.6525C74.8138 16.4212 72.536 19.0533 71.1382 22.3899L78.517 25.481ZM81.8958 21.6016C83.4387 20.7168 85.7703 20.1109 89.1812 20.1109V12.1109C84.9231 12.1109 81.071 12.8523 77.9157 14.662L81.8958 21.6016ZM89.1812 20.1109C94.3184 20.1109 96.9965 21.4411 98.3775 23.1139L104.547 18.0207C101.022 13.7516 95.5131 12.1109 89.1812 12.1109V20.1109ZM98.3922 23.1316C100.023 25.0841 101.141 28.2754 101.141 33.3145H109.141C109.141 27.2301 107.807 21.9232 104.532 18.003L98.3922 23.1316ZM101.141 33.3145C101.141 38.3077 100.028 41.516 98.3775 43.5152L104.547 48.6084C107.802 44.6658 109.141 39.3759 109.141 33.3145H101.141ZM98.3775 43.5152C96.9965 45.188 94.3184 46.5182 89.1812 46.5182V54.5182C95.5131 54.5182 101.022 52.8775 104.547 48.6084L98.3775 43.5152ZM89.1812 46.2273C92.3508 46.2273 95.5029 45.1056 97.3029 42.0096L90.3868 37.9886C90.363 38.0296 90.352 38.037 90.3571 38.0323C90.3622 38.0276 90.3526 38.0391 90.3068 38.061C90.2055 38.1094 89.8811 38.2273 89.1812 38.2273V46.2273ZM97.2886 42.034C98.7182 39.6146 99.1921 36.5446 99.1921 33.3145H91.1921C91.1921 35.9573 90.7679 37.3436 90.4012 37.9642L97.2886 42.034ZM99.1921 33.3145C99.1921 30.0709 98.7251 26.9705 97.2678 24.5603L90.4219 28.6997C90.761 29.2604 91.1921 30.6163 91.1921 33.3145H99.1921ZM97.3029 24.6195C95.5029 21.5235 92.3508 20.4018 89.1812 20.4018V28.4018C89.8811 28.4018 90.2055 28.5197 90.3068 28.5681C90.3526 28.59 90.3622 28.6015 90.3571 28.5968C90.352 28.5921 90.363 28.5995 90.3868 28.6405L97.3029 24.6195ZM89.1812 20.4018C86.0046 20.4018 82.879 21.5236 81.0429 24.5603L87.8887 28.6997C87.9303 28.6309 87.9511 28.6114 88.0272 28.5754C88.1467 28.519 88.4836 28.4018 89.1812 28.4018V20.4018ZM81.0078 24.6195C79.6163 27.0128 79.1703 30.0871 79.1703 33.3145H87.1703C87.1703 30.6002 87.588 29.2181 87.9238 28.6405L81.0078 24.6195ZM79.1703 33.3145C79.1703 36.5281 79.6229 39.5727 80.988 41.9751L87.9436 38.0231C87.5814 37.3855 87.1703 35.9737 87.1703 33.3145H79.1703ZM81.0429 42.0688C82.879 45.1055 86.0046 46.2273 89.1812 46.2273V38.2273C88.4836 38.2273 88.1467 38.1101 88.0272 38.0537C87.9511 38.0177 87.9303 37.9982 87.8887 37.9294L81.0429 42.0688ZM114.417 48.5491L112.405 52.0061L112.436 52.0237L112.466 52.0409L114.417 48.5491ZM109.339 42.6936L105.65 44.2392L109.339 42.6936ZM109.339 23.9355L105.65 22.3899L109.339 23.9355ZM114.417 18.1318L116.391 21.6112L116.399 21.6064L116.408 21.6016L114.417 18.1318ZM135.974 20.5673L132.889 23.1139L132.897 23.1227L132.904 23.1316L135.974 20.5673ZM135.974 46.0618L139.058 48.6084L135.974 46.0618ZM128.357 39.9991L124.913 37.9642L124.906 37.9764L124.899 37.9886L128.357 39.9991ZM128.357 26.63L124.899 28.6405L124.916 28.6702L124.934 28.6997L128.357 26.63ZM118.978 26.63L115.555 24.5603L115.537 24.5898L115.519 24.6195L118.978 26.63ZM118.978 39.9991L115.5 41.9751L115.526 42.0223L115.555 42.0688L118.978 39.9991ZM123.693 46.5182C120.268 46.5182 117.921 45.9249 116.369 45.0573L112.466 52.0409C115.612 53.7987 119.449 54.5182 123.693 54.5182V46.5182ZM116.43 45.0921C114.895 44.1987 113.776 42.9319 113.029 41.1481L105.65 44.2392C107.044 47.5681 109.311 50.2049 112.405 52.0061L116.43 45.0921ZM113.029 41.1481C112.219 39.215 111.733 36.6477 111.733 33.3145H103.733C103.733 37.3742 104.318 41.0595 105.65 44.2392L113.029 41.1481ZM111.733 33.3145C111.733 29.9814 112.219 27.4141 113.029 25.481L105.65 22.3899C104.318 25.5696 103.733 29.2549 103.733 33.3145H111.733ZM113.029 25.481C113.773 23.7049 114.88 22.4679 116.391 21.6112L112.444 14.6525C109.326 16.4212 107.048 19.0533 105.65 22.3899L113.029 25.481ZM116.408 21.6016C117.95 20.7168 120.282 20.1109 123.693 20.1109V12.1109C119.435 12.1109 115.583 12.8523 112.427 14.662L116.408 21.6016ZM123.693 20.1109C128.83 20.1109 131.508 21.4411 132.889 23.1139L139.058 18.0207C135.534 13.7516 130.025 12.1109 123.693 12.1109V20.1109ZM132.904 23.1316C134.535 25.0841 135.653 28.2754 135.653 33.3145H143.653C143.653 27.2301 142.318 21.9232 139.044 18.003L132.904 23.1316ZM135.653 33.3145C135.653 38.3077 134.54 41.516 132.889 43.5152L139.058 48.6084C142.313 44.6658 143.653 39.3759 143.653 33.3145H135.653ZM132.889 43.5152C131.508 45.188 128.83 46.5182 123.693 46.5182V54.5182C130.025 54.5182 135.534 52.8775 139.058 48.6084L132.889 43.5152ZM123.693 46.2273C126.863 46.2273 130.015 45.1056 131.815 42.0096L124.899 37.9886C124.875 38.0296 124.864 38.037 124.869 38.0323C124.874 38.0276 124.864 38.0391 124.819 38.061C124.717 38.1094 124.393 38.2273 123.693 38.2273V46.2273ZM131.8 42.034C133.23 39.6146 133.704 36.5446 133.704 33.3145H125.704C125.704 35.9573 125.28 37.3436 124.913 37.9642L131.8 42.034ZM133.704 33.3145C133.704 30.0709 133.237 26.9705 131.78 24.5603L124.934 28.6997C125.273 29.2604 125.704 30.6163 125.704 33.3145H133.704ZM131.815 24.6195C130.015 21.5235 126.863 20.4018 123.693 20.4018V28.4018C124.393 28.4018 124.717 28.5197 124.819 28.5681C124.864 28.59 124.874 28.6015 124.869 28.5968C124.864 28.5921 124.875 28.5995 124.899 28.6405L131.815 24.6195ZM123.693 20.4018C120.516 20.4018 117.391 21.5236 115.555 24.5603L122.4 28.6997C122.442 28.6309 122.463 28.6114 122.539 28.5754C122.658 28.519 122.995 28.4018 123.693 28.4018V20.4018ZM115.519 24.6195C114.128 27.0128 113.682 30.0871 113.682 33.3145H121.682C121.682 30.6002 122.1 29.2181 122.436 28.6405L115.519 24.6195ZM113.682 33.3145C113.682 36.5281 114.135 39.5727 115.5 41.9751L122.455 38.0231C122.093 37.3855 121.682 35.9737 121.682 33.3145H113.682ZM115.555 42.0688C117.391 45.1055 120.516 46.2273 123.693 46.2273V38.2273C122.995 38.2273 122.658 38.1101 122.539 38.0537C122.463 38.0177 122.442 37.9982 122.4 37.9294L115.555 42.0688Z" fill="#E2E2E2"/>
<path d="M59.84 50V25.6455L54.2955 26.4745V18.3391L69.5818 16.1109V50H59.84ZM89.1812 50.5182C85.3467 50.5182 82.2549 49.8618 79.9058 48.5491C77.5912 47.2018 75.8985 45.25 74.8276 42.6936C73.7567 40.1373 73.2212 37.0109 73.2212 33.3145C73.2212 29.6182 73.7567 26.4918 74.8276 23.9355C75.8985 21.3791 77.5912 19.4445 79.9058 18.1318C82.2549 16.7845 85.3467 16.1109 89.1812 16.1109C94.9158 16.1109 99.0094 17.5964 101.462 20.5673C103.915 23.5036 105.141 27.7527 105.141 33.3145C105.141 38.8418 103.915 43.0909 101.462 46.0618C99.0094 49.0327 94.9158 50.5182 89.1812 50.5182ZM89.1812 42.2273C91.4267 42.2273 92.9812 41.4845 93.8449 39.9991C94.7431 38.4791 95.1921 36.2509 95.1921 33.3145C95.1921 30.3436 94.7431 28.1155 93.8449 26.63C92.9812 25.1445 91.4267 24.4018 89.1812 24.4018C86.9358 24.4018 85.364 25.1445 84.4658 26.63C83.6021 28.1155 83.1703 30.3436 83.1703 33.3145C83.1703 36.2509 83.6021 38.4791 84.4658 39.9991C85.364 41.4845 86.9358 42.2273 89.1812 42.2273ZM123.693 50.5182C119.858 50.5182 116.767 49.8618 114.418 48.5491C112.103 47.2018 110.41 45.25 109.339 42.6936C108.268 40.1373 107.733 37.0109 107.733 33.3145C107.733 29.6182 108.268 26.4918 109.339 23.9355C110.41 21.3791 112.103 19.4445 114.418 18.1318C116.767 16.7845 119.858 16.1109 123.693 16.1109C129.428 16.1109 133.521 17.5964 135.974 20.5673C138.427 23.5036 139.653 27.7527 139.653 33.3145C139.653 38.8418 138.427 43.0909 135.974 46.0618C133.521 49.0327 129.428 50.5182 123.693 50.5182ZM123.693 42.2273C125.938 42.2273 127.493 41.4845 128.357 39.9991C129.255 38.4791 129.704 36.2509 129.704 33.3145C129.704 30.3436 129.255 28.1155 128.357 26.63C127.493 25.1445 125.938 24.4018 123.693 24.4018C121.448 24.4018 119.876 25.1445 118.978 26.63C118.114 28.1155 117.682 30.3436 117.682 33.3145C117.682 36.2509 118.114 38.4791 118.978 39.9991C119.876 41.4845 121.448 42.2273 123.693 42.2273Z" fill="#7D7D7D"/>
<defs>
<linearGradient id="paint0_linear_1637_1534" x1="100.533" y1="79.8539" x2="103.435" y2="55.0937" gradientUnits="userSpaceOnUse">
<stop stop-color="#EF8103"/>
<stop offset="1" stop-color="#ED8103" stop-opacity="0"/>
</linearGradient>
<linearGradient id="paint1_linear_1637_1534" x1="122.368" y1="101.699" x2="150.069" y2="99.1434" gradientUnits="userSpaceOnUse">
<stop stop-color="#EF8103"/>
<stop offset="1" stop-color="#ED8103" stop-opacity="0"/>
</linearGradient>
<linearGradient id="paint2_linear_1637_1534" x1="107.527" y1="129.855" x2="121.039" y2="148.616" gradientUnits="userSpaceOnUse">
<stop stop-color="#EF8103"/>
<stop offset="1" stop-color="#ED8103" stop-opacity="0"/>
</linearGradient>
<linearGradient id="paint3_linear_1637_1534" x1="73.724" y1="91.6493" x2="53.4103" y2="80.6068" gradientUnits="userSpaceOnUse">
<stop stop-color="#EF8103"/>
<stop offset="1" stop-color="#ED8103" stop-opacity="0"/>
</linearGradient>
<linearGradient id="paint4_linear_1637_1534" x1="77.3499" y1="121.83" x2="63.2033" y2="140.118" gradientUnits="userSpaceOnUse">
<stop stop-color="#EF8103"/>
<stop offset="1" stop-color="#ED8103" stop-opacity="0"/>
</linearGradient>
</defs>
</svg>
