<svg width="192" height="192" viewBox="0 0 192 192" fill="none" xmlns="http://www.w3.org/2000/svg">
<path d="M61.5222 153.828C63.8437 151.474 67.168 150.505 70.3404 151.255L81.0415 153.786C90.8159 156.098 100.97 156.11 110.749 153.819L121.745 151.244C124.921 150.501 128.245 151.48 130.562 153.841L141.157 164.642C146.61 170.2 143.802 179.785 136.279 181.3L119.716 184.633C104.033 187.789 87.9071 187.789 72.2245 184.633L55.7209 181.312C48.1858 179.795 45.3857 170.185 50.8614 164.635L61.5222 153.828Z" fill="#AE5714"/>
<path d="M63.1515 152.661C65.3358 150.518 68.3166 149.596 71.2176 150.165L84.5834 152.787C92.3503 154.311 100.306 154.325 108.078 152.828L121.81 150.182C124.81 149.604 127.884 150.621 130.074 152.914L139.068 162.338C142.807 166.255 140.819 173.108 135.682 174.011L117.131 177.272C103.404 179.686 89.3984 179.57 75.7072 176.93L57.2218 173.366C52.0482 172.368 50.1895 165.375 54.0829 161.556L63.1515 152.661Z" fill="#FF9330"/>
<ellipse rx="33.6654" ry="7.93798" transform="matrix(0.956375 0.292143 -0.228803 0.973473 98.4359 152.563)" fill="#AE5714"/>
<ellipse rx="33.6654" ry="7.93798" transform="matrix(-0.956375 0.292143 0.228803 0.973473 92.2956 152.563)" fill="#AE5714"/>
<path d="M33.6657 38.2203C35.0382 37.4185 36.5815 38.9618 35.7797 40.3343L31.4646 47.7204C31.1832 48.2021 31.1832 48.7979 31.4646 49.2796L35.7797 56.6657C36.5815 58.0382 35.0382 59.5815 33.6657 58.7797L26.2796 54.4646C25.7979 54.1832 25.2021 54.1832 24.7204 54.4646L17.3343 58.7797C15.9618 59.5815 14.4185 58.0382 15.2203 56.6657L19.5354 49.2796C19.8168 48.7979 19.8168 48.2021 19.5354 47.7204L15.2203 40.3343C14.4185 38.9618 15.9618 37.4185 17.3343 38.2203L24.7204 42.5354C25.2021 42.8168 25.7979 42.8168 26.2796 42.5354L33.6657 38.2203Z" fill="#F6AF5B"/>
<path d="M172.444 143.147C173.359 142.612 174.388 143.641 173.853 144.556L170.976 149.48C170.789 149.801 170.789 150.199 170.976 150.52L173.853 155.444C174.388 156.359 173.359 157.388 172.444 156.853L167.52 153.976C167.199 153.789 166.801 153.789 166.48 153.976L161.556 156.853C160.641 157.388 159.612 156.359 160.147 155.444L163.024 150.52C163.211 150.199 163.211 149.801 163.024 149.48L160.147 144.556C159.612 143.641 160.641 142.612 161.556 143.147L166.48 146.024C166.801 146.211 167.199 146.211 167.52 146.024L172.444 143.147Z" fill="#F6AF5B"/>
<path d="M156.306 113.254C149.237 149.257 114.759 168.002 81.2114 161.665C47.6637 155.327 29.9767 126.039 35.1878 93.3431C40.3989 60.647 72.8009 37.5606 106.349 43.8978C139.896 50.235 163.151 78.3922 156.306 113.254Z" fill="#FFC700"/>
<mask id="mask0_1610_4031" style="mask-type:alpha" maskUnits="userSpaceOnUse" x="34" y="43" width="124" height="121">
<path d="M156.195 113.815C149.126 149.819 114.648 168.563 81.1007 162.226C47.553 155.889 29.8661 126.601 35.0772 93.9046C40.2883 61.2085 72.6902 38.1221 106.238 44.4593C139.786 50.7965 163.04 78.9538 156.195 113.815Z" fill="#FFAF00"/>
</mask>
<g mask="url(#mask0_1610_4031)">
<path d="M97.4108 80.4043C99.0677 79.6312 101.055 80.0067 102.376 81.3422L120.061 99.2238C121.443 100.62 121.776 102.743 120.882 104.443L109.707 125.692C108.838 127.346 107.002 128.226 105.149 127.876L80.3996 123.2C78.5468 122.85 77.0909 121.35 76.7837 119.473L72.838 95.368C72.5222 93.4387 73.4931 91.563 75.2259 90.7546L97.4108 80.4043Z" fill="#ED8103"/>
<path d="M106.288 53.0428C104.399 53.924 102.133 53.496 100.628 51.9736L90.8467 42.084C89.272 40.4919 88.8917 38.0728 89.9112 36.1341L96.0442 24.4719C97.036 22.5861 99.128 21.584 101.24 21.983L114.992 24.5806C117.104 24.9796 118.764 26.6904 119.114 28.8297L121.28 42.0594C121.64 44.2587 120.533 46.3968 118.558 47.3184L106.288 53.0428Z" fill="#F3A700"/>
<path d="M38.6401 90.8906C36.7513 91.7718 34.4855 91.3438 32.9798 89.8214L22.3992 79.1233C20.8246 77.5312 20.4443 75.1121 21.4638 73.1734L28.1057 60.5436C29.0974 58.6578 31.1894 57.6557 33.3015 58.0546L48.1676 60.8628C50.2798 61.2617 51.9394 62.9725 52.2896 65.1118L54.6348 79.4392C54.9948 81.6385 53.8881 83.7767 51.9128 84.6983L38.6401 90.8906Z" fill="#F3A700"/>
<path d="M50.7829 165.561C48.8941 166.442 46.6282 166.014 45.1226 164.491L34.3675 153.617C32.7928 152.025 32.4125 149.606 33.432 147.667L40.185 134.826C41.1767 132.94 43.2687 131.938 45.3808 132.337L60.4901 135.191C62.6022 135.59 64.2618 137.301 64.612 139.44L66.9965 154.007C67.3565 156.206 66.2498 158.344 64.2745 159.266L50.7829 165.561Z" fill="#ED8103"/>
<path d="M126.007 178.761C124.118 179.642 121.852 179.214 120.347 177.692L109.544 166.769C107.969 165.177 107.589 162.758 108.608 160.819L115.392 147.92C116.383 146.034 118.475 145.032 120.588 145.431L135.764 148.298C137.876 148.697 139.535 150.407 139.886 152.547L142.281 167.18C142.641 169.379 141.534 171.517 139.559 172.439L126.007 178.761Z" fill="#F18200"/>
<path d="M161.191 113.587C159.303 114.469 157.037 114.041 155.531 112.518L145.31 102.183C143.735 100.591 143.355 98.1721 144.374 96.2334L150.788 84.0381C151.779 82.1523 153.871 81.1502 155.983 81.5491L170.349 84.2628C172.461 84.6617 174.121 86.3725 174.471 88.5118L176.736 102.346C177.096 104.546 175.989 106.684 174.014 107.605L161.191 113.587Z" fill="#ED8103"/>
</g>
<g style="mix-blend-mode:screen" opacity="0.5">
<path d="M100.746 48.8013C105.418 49.2885 103.642 56.0712 99.0382 56.889C82.4173 59.8415 66.5829 70.0955 57.0209 85.864C50.6448 96.3786 48.0193 107.759 48.7747 118.463C49.1024 123.107 43.4162 126.752 41.4952 122.508C40.5263 120.367 39.7037 118.133 39.0414 115.813C31.2 88.3442 48.8066 59.2356 78.3669 50.7971C85.9056 48.645 93.4937 48.0451 100.746 48.8013Z" fill="#FFDB44"/>
</g>
<g style="mix-blend-mode:darken">
<path d="M128.491 145.491C124.976 148.151 121.826 143.35 124.489 139.789C126.049 137.701 127.54 135.521 128.951 133.254C137.741 119.126 141.96 103.952 141.842 90.1883C141.802 85.5319 148.381 81.9693 149.58 86.4818C155.483 108.702 146.399 131.943 128.491 145.491Z" fill="#FFAF00"/>
</g>
<path d="M59.5567 63.4714C63.2281 60.3718 65.8109 66.1295 62.6022 69.7336C59.3994 73.3311 56.4898 77.3178 53.9576 81.6622C50.8652 86.9678 48.5454 92.4469 46.9683 97.9453C45.6408 102.574 39.7001 103.329 40.298 98.5282C41.1639 91.5753 43.4444 84.6411 47.2499 78.1122C50.5584 72.4359 54.7489 67.5305 59.5567 63.4714Z" fill="white"/>
<line x1="99.5407" y1="79.7275" x2="102.43" y2="57.0637" stroke="url(#paint0_linear_1610_4031)" stroke-width="2"/>
<line x1="122.287" y1="100.702" x2="147.699" y2="98.6478" stroke="url(#paint1_linear_1610_4031)" stroke-width="2"/>
<line x1="108.343" y1="129.278" x2="120.565" y2="146.588" stroke="url(#paint2_linear_1610_4031)" stroke-width="2"/>
<line x1="73.2382" y1="92.5235" x2="54.7175" y2="82.2287" stroke="url(#paint3_linear_1610_4031)" stroke-width="2"/>
<line x1="78.135" y1="122.449" x2="65.013" y2="139.087" stroke="url(#paint4_linear_1610_4031)" stroke-width="2"/>
<path d="M61 164.511C84.4661 159.83 108.534 159.83 132 164.511V172H61V164.511Z" fill="#FF9330"/>
<ellipse cx="110" cy="34.5" rx="29" ry="9.5" fill="#FF9330"/>
<mask id="path-25-outside-1_1610_4031" maskUnits="userSpaceOnUse" x="50" y="12" width="98" height="42" fill="black">
<rect fill="white" x="50" y="12" width="98" height="42"/>
<path fill-rule="evenodd" clip-rule="evenodd" d="M57.0786 40.9547C57.16 40.9767 57.2421 40.9985 57.3251 41.0199C58.377 41.2828 59.4288 41.4801 60.4807 41.6116C61.5326 41.743 62.4201 41.8088 63.1432 41.8088C64.9511 41.8088 66.266 41.5294 67.0877 40.9706C67.9424 40.4118 68.3697 39.5242 68.3697 38.308C68.3697 37.1575 68.0739 36.3358 67.4822 35.8427C66.8905 35.3168 65.7729 35.0538 64.1294 35.0538H54.4653V30.8135L55.3035 16.9584H75.8643L75.2233 24.0585H63.2418L62.946 28.5947H66.5454C70.3913 28.5947 73.2346 29.4493 75.0754 31.1586C76.9161 32.8679 77.8365 35.3661 77.8365 38.6532C77.8365 41.8088 76.7353 44.3563 74.533 46.2957C72.3635 48.235 69.06 49.2047 64.6224 49.2047C63.702 49.2047 62.6173 49.139 61.3682 49.0075C60.152 48.9089 58.9358 48.7445 57.7195 48.5144C56.5362 48.2515 55.5008 47.9228 54.6132 47.5283V40.0831C55.3379 40.4152 56.1597 40.7057 57.0786 40.9547ZM61.1395 51.4624C59.845 51.3563 58.5521 51.181 57.2613 50.9368L57.2229 50.9295L57.1847 50.921C55.8788 50.6308 54.681 50.2563 53.612 49.7811L52.1479 49.1305V37.5191H52V30.739L52.9828 14.4931H78.5622L77.4761 26.5238H70.8622C73.1738 26.9898 75.1804 27.8918 76.7529 29.352C77.1852 29.7535 77.5745 30.1832 77.9227 30.639C78.0989 27.7847 78.6332 25.2106 79.5769 22.958C80.7966 20.0465 82.7662 17.7768 85.4615 16.2467C88.1928 14.6819 91.6014 14 95.5086 14C101.33 14 106.096 15.5076 109.091 19.1305C110.328 20.6136 111.261 22.3427 111.918 24.2868C112.069 23.8323 112.235 23.3893 112.416 22.958C113.635 20.0464 115.605 17.7766 118.301 16.2465C121.032 14.6818 124.44 14 128.347 14C134.169 14 138.935 15.5076 141.93 19.1305C144.767 22.5305 145.999 27.2236 145.999 32.835C145.999 38.4235 144.762 43.1081 141.934 46.5339C138.94 50.1609 134.172 51.67 128.347 51.67C124.446 51.67 121.045 51.0066 118.319 49.4832L118.3 49.4726L118.281 49.4617C115.598 47.9 113.634 45.6206 112.416 42.712C112.233 42.2769 112.066 41.8298 111.914 41.371C111.257 43.3112 110.327 45.0419 109.095 46.5339C106.101 50.1609 101.333 51.67 95.5086 51.67C91.6073 51.67 88.2063 51.0066 85.4801 49.4832L85.4612 49.4726L85.4425 49.4617C82.8171 47.9335 80.8798 45.7179 79.6562 42.8981C79.0002 44.9003 77.8418 46.6648 76.1693 48.1396C73.3622 50.645 69.3551 51.67 64.6224 51.67C63.599 51.67 62.434 51.5979 61.1395 51.4624ZM140.033 20.7057C137.699 17.8788 133.804 16.4653 128.347 16.4653C124.699 16.4653 121.757 17.1063 119.522 18.3883C117.319 19.6374 115.709 21.4781 114.69 23.9106C113.671 26.343 113.161 29.3178 113.161 32.835C113.161 36.3522 113.671 39.327 114.69 41.7595C115.709 44.1919 117.319 46.0491 119.522 47.3311C121.757 48.5802 124.699 49.2047 128.347 49.2047C133.804 49.2047 137.699 47.7913 140.033 44.9644C142.367 42.1375 143.534 38.0944 143.534 32.835C143.534 27.5428 142.367 23.4997 140.033 20.7057ZM107.194 20.7057C104.86 17.8788 100.965 16.4653 95.5086 16.4653C91.8599 16.4653 88.918 17.1063 86.6828 18.3883C84.4804 19.6374 82.8697 21.4781 81.8507 23.9106C80.8318 26.343 80.3223 29.3178 80.3223 32.835C80.3223 36.3522 80.8318 39.327 81.8507 41.7595C82.8697 44.1919 84.4804 46.0491 86.6828 47.3311C88.918 48.5802 91.8599 49.2047 95.5086 49.2047C100.965 49.2047 104.86 47.7913 107.194 44.9644C109.528 42.1375 110.695 38.0944 110.695 32.835C110.695 27.5428 109.528 23.4997 107.194 20.7057ZM54.9361 37.5191H64.1294C64.8352 37.5191 65.3223 37.5771 65.6356 37.6508C65.7307 37.6732 65.798 37.6943 65.8429 37.7103C65.8697 37.8064 65.9044 37.9943 65.9044 38.308C65.9044 38.6309 65.8478 38.7752 65.828 38.8163C65.8179 38.8372 65.8101 38.8474 65.8037 38.8546C65.7969 38.8622 65.7791 38.8807 65.7386 38.9072L65.7199 38.9194L65.7015 38.9319C65.5052 39.0654 64.8075 39.3435 63.1432 39.3435C62.5574 39.3435 61.779 39.2893 60.7865 39.1653C59.8382 39.0467 58.8869 38.8688 57.9321 38.6304C57.0295 38.3971 56.2704 38.1306 55.6404 37.8419L54.9361 37.5191ZM97.8193 37.9489L97.8237 37.9414C98.3508 37.0494 98.7628 35.4481 98.7628 32.835C98.7628 30.1762 98.3465 28.5936 97.8365 27.7501L97.8256 27.732L97.8149 27.7136C97.5702 27.2928 97.0757 26.8196 95.5086 26.8196C93.9653 26.8196 93.4214 27.2811 93.1418 27.7331C92.6505 28.5918 92.2544 30.1864 92.2544 32.835C92.2544 35.4282 92.6434 37.038 93.1476 37.9463C93.429 38.3953 93.976 38.8504 95.5086 38.8504C97.0757 38.8504 97.5702 38.3772 97.8149 37.9564L97.8193 37.9489ZM91.0217 26.4745C91.8764 25.0611 93.372 24.3543 95.5086 24.3543C97.6452 24.3543 99.1244 25.0611 99.9462 26.4745C100.801 27.888 101.228 30.0081 101.228 32.835C101.228 35.629 100.801 37.7492 99.9462 39.1955C99.1244 40.609 97.6452 41.3157 95.5086 41.3157C93.372 41.3157 91.8764 40.609 91.0217 39.1955C90.2 37.7492 89.7891 35.629 89.7891 32.835C89.7891 30.0081 90.2 27.888 91.0217 26.4745ZM130.658 37.9489L130.663 37.9414C131.19 37.0494 131.602 35.4481 131.602 32.835C131.602 30.1762 131.185 28.5936 130.675 27.7501L130.664 27.732L130.654 27.7136C130.409 27.2928 129.914 26.8196 128.347 26.8196C126.804 26.8196 126.26 27.2811 125.981 27.733C125.489 28.5917 125.093 30.1864 125.093 32.835C125.093 35.4282 125.482 37.038 125.986 37.9463C126.268 38.3953 126.815 38.8504 128.347 38.8504C129.914 38.8504 130.409 38.3772 130.654 37.9564L130.658 37.9489ZM123.861 26.4745C124.715 25.0611 126.211 24.3543 128.347 24.3543C130.484 24.3543 131.963 25.0611 132.785 26.4745C133.64 27.888 134.067 30.0081 134.067 32.835C134.067 35.629 133.64 37.7492 132.785 39.1955C131.963 40.609 130.484 41.3157 128.347 41.3157C126.211 41.3157 124.715 40.609 123.861 39.1955C123.039 37.7492 122.628 35.629 122.628 32.835C122.628 30.0081 123.039 27.888 123.861 26.4745Z"/>
</mask>
<path fill-rule="evenodd" clip-rule="evenodd" d="M57.0786 40.9547C57.16 40.9767 57.2421 40.9985 57.3251 41.0199C58.377 41.2828 59.4288 41.4801 60.4807 41.6116C61.5326 41.743 62.4201 41.8088 63.1432 41.8088C64.9511 41.8088 66.266 41.5294 67.0877 40.9706C67.9424 40.4118 68.3697 39.5242 68.3697 38.308C68.3697 37.1575 68.0739 36.3358 67.4822 35.8427C66.8905 35.3168 65.7729 35.0538 64.1294 35.0538H54.4653V30.8135L55.3035 16.9584H75.8643L75.2233 24.0585H63.2418L62.946 28.5947H66.5454C70.3913 28.5947 73.2346 29.4493 75.0754 31.1586C76.9161 32.8679 77.8365 35.3661 77.8365 38.6532C77.8365 41.8088 76.7353 44.3563 74.533 46.2957C72.3635 48.235 69.06 49.2047 64.6224 49.2047C63.702 49.2047 62.6173 49.139 61.3682 49.0075C60.152 48.9089 58.9358 48.7445 57.7195 48.5144C56.5362 48.2515 55.5008 47.9228 54.6132 47.5283V40.0831C55.3379 40.4152 56.1597 40.7057 57.0786 40.9547ZM61.1395 51.4624C59.845 51.3563 58.5521 51.181 57.2613 50.9368L57.2229 50.9295L57.1847 50.921C55.8788 50.6308 54.681 50.2563 53.612 49.7811L52.1479 49.1305V37.5191H52V30.739L52.9828 14.4931H78.5622L77.4761 26.5238H70.8622C73.1738 26.9898 75.1804 27.8918 76.7529 29.352C77.1852 29.7535 77.5745 30.1832 77.9227 30.639C78.0989 27.7847 78.6332 25.2106 79.5769 22.958C80.7966 20.0465 82.7662 17.7768 85.4615 16.2467C88.1928 14.6819 91.6014 14 95.5086 14C101.33 14 106.096 15.5076 109.091 19.1305C110.328 20.6136 111.261 22.3427 111.918 24.2868C112.069 23.8323 112.235 23.3893 112.416 22.958C113.635 20.0464 115.605 17.7766 118.301 16.2465C121.032 14.6818 124.44 14 128.347 14C134.169 14 138.935 15.5076 141.93 19.1305C144.767 22.5305 145.999 27.2236 145.999 32.835C145.999 38.4235 144.762 43.1081 141.934 46.5339C138.94 50.1609 134.172 51.67 128.347 51.67C124.446 51.67 121.045 51.0066 118.319 49.4832L118.3 49.4726L118.281 49.4617C115.598 47.9 113.634 45.6206 112.416 42.712C112.233 42.2769 112.066 41.8298 111.914 41.371C111.257 43.3112 110.327 45.0419 109.095 46.5339C106.101 50.1609 101.333 51.67 95.5086 51.67C91.6073 51.67 88.2063 51.0066 85.4801 49.4832L85.4612 49.4726L85.4425 49.4617C82.8171 47.9335 80.8798 45.7179 79.6562 42.8981C79.0002 44.9003 77.8418 46.6648 76.1693 48.1396C73.3622 50.645 69.3551 51.67 64.6224 51.67C63.599 51.67 62.434 51.5979 61.1395 51.4624ZM140.033 20.7057C137.699 17.8788 133.804 16.4653 128.347 16.4653C124.699 16.4653 121.757 17.1063 119.522 18.3883C117.319 19.6374 115.709 21.4781 114.69 23.9106C113.671 26.343 113.161 29.3178 113.161 32.835C113.161 36.3522 113.671 39.327 114.69 41.7595C115.709 44.1919 117.319 46.0491 119.522 47.3311C121.757 48.5802 124.699 49.2047 128.347 49.2047C133.804 49.2047 137.699 47.7913 140.033 44.9644C142.367 42.1375 143.534 38.0944 143.534 32.835C143.534 27.5428 142.367 23.4997 140.033 20.7057ZM107.194 20.7057C104.86 17.8788 100.965 16.4653 95.5086 16.4653C91.8599 16.4653 88.918 17.1063 86.6828 18.3883C84.4804 19.6374 82.8697 21.4781 81.8507 23.9106C80.8318 26.343 80.3223 29.3178 80.3223 32.835C80.3223 36.3522 80.8318 39.327 81.8507 41.7595C82.8697 44.1919 84.4804 46.0491 86.6828 47.3311C88.918 48.5802 91.8599 49.2047 95.5086 49.2047C100.965 49.2047 104.86 47.7913 107.194 44.9644C109.528 42.1375 110.695 38.0944 110.695 32.835C110.695 27.5428 109.528 23.4997 107.194 20.7057ZM54.9361 37.5191H64.1294C64.8352 37.5191 65.3223 37.5771 65.6356 37.6508C65.7307 37.6732 65.798 37.6943 65.8429 37.7103C65.8697 37.8064 65.9044 37.9943 65.9044 38.308C65.9044 38.6309 65.8478 38.7752 65.828 38.8163C65.8179 38.8372 65.8101 38.8474 65.8037 38.8546C65.7969 38.8622 65.7791 38.8807 65.7386 38.9072L65.7199 38.9194L65.7015 38.9319C65.5052 39.0654 64.8075 39.3435 63.1432 39.3435C62.5574 39.3435 61.779 39.2893 60.7865 39.1653C59.8382 39.0467 58.8869 38.8688 57.9321 38.6304C57.0295 38.3971 56.2704 38.1306 55.6404 37.8419L54.9361 37.5191ZM97.8193 37.9489L97.8237 37.9414C98.3508 37.0494 98.7628 35.4481 98.7628 32.835C98.7628 30.1762 98.3465 28.5936 97.8365 27.7501L97.8256 27.732L97.8149 27.7136C97.5702 27.2928 97.0757 26.8196 95.5086 26.8196C93.9653 26.8196 93.4214 27.2811 93.1418 27.7331C92.6505 28.5918 92.2544 30.1864 92.2544 32.835C92.2544 35.4282 92.6434 37.038 93.1476 37.9463C93.429 38.3953 93.976 38.8504 95.5086 38.8504C97.0757 38.8504 97.5702 38.3772 97.8149 37.9564L97.8193 37.9489ZM91.0217 26.4745C91.8764 25.0611 93.372 24.3543 95.5086 24.3543C97.6452 24.3543 99.1244 25.0611 99.9462 26.4745C100.801 27.888 101.228 30.0081 101.228 32.835C101.228 35.629 100.801 37.7492 99.9462 39.1955C99.1244 40.609 97.6452 41.3157 95.5086 41.3157C93.372 41.3157 91.8764 40.609 91.0217 39.1955C90.2 37.7492 89.7891 35.629 89.7891 32.835C89.7891 30.0081 90.2 27.888 91.0217 26.4745ZM130.658 37.9489L130.663 37.9414C131.19 37.0494 131.602 35.4481 131.602 32.835C131.602 30.1762 131.185 28.5936 130.675 27.7501L130.664 27.732L130.654 27.7136C130.409 27.2928 129.914 26.8196 128.347 26.8196C126.804 26.8196 126.26 27.2811 125.981 27.733C125.489 28.5917 125.093 30.1864 125.093 32.835C125.093 35.4282 125.482 37.038 125.986 37.9463C126.268 38.3953 126.815 38.8504 128.347 38.8504C129.914 38.8504 130.409 38.3772 130.654 37.9564L130.658 37.9489ZM123.861 26.4745C124.715 25.0611 126.211 24.3543 128.347 24.3543C130.484 24.3543 131.963 25.0611 132.785 26.4745C133.64 27.888 134.067 30.0081 134.067 32.835C134.067 35.629 133.64 37.7492 132.785 39.1955C131.963 40.609 130.484 41.3157 128.347 41.3157C126.211 41.3157 124.715 40.609 123.861 39.1955C123.039 37.7492 122.628 35.629 122.628 32.835C122.628 30.0081 123.039 27.888 123.861 26.4745Z" fill="#FF9330"/>
<path fill-rule="evenodd" clip-rule="evenodd" d="M57.0786 40.9547C57.16 40.9767 57.2421 40.9985 57.3251 41.0199C58.377 41.2828 59.4288 41.4801 60.4807 41.6116C61.5326 41.743 62.4201 41.8088 63.1432 41.8088C64.9511 41.8088 66.266 41.5294 67.0877 40.9706C67.9424 40.4118 68.3697 39.5242 68.3697 38.308C68.3697 37.1575 68.0739 36.3358 67.4822 35.8427C66.8905 35.3168 65.7729 35.0538 64.1294 35.0538H54.4653V30.8135L55.3035 16.9584H75.8643L75.2233 24.0585H63.2418L62.946 28.5947H66.5454C70.3913 28.5947 73.2346 29.4493 75.0754 31.1586C76.9161 32.8679 77.8365 35.3661 77.8365 38.6532C77.8365 41.8088 76.7353 44.3563 74.533 46.2957C72.3635 48.235 69.06 49.2047 64.6224 49.2047C63.702 49.2047 62.6173 49.139 61.3682 49.0075C60.152 48.9089 58.9358 48.7445 57.7195 48.5144C56.5362 48.2515 55.5008 47.9228 54.6132 47.5283V40.0831C55.3379 40.4152 56.1597 40.7057 57.0786 40.9547ZM61.1395 51.4624C59.845 51.3563 58.5521 51.181 57.2613 50.9368L57.2229 50.9295L57.1847 50.921C55.8788 50.6308 54.681 50.2563 53.612 49.7811L52.1479 49.1305V37.5191H52V30.739L52.9828 14.4931H78.5622L77.4761 26.5238H70.8622C73.1738 26.9898 75.1804 27.8918 76.7529 29.352C77.1852 29.7535 77.5745 30.1832 77.9227 30.639C78.0989 27.7847 78.6332 25.2106 79.5769 22.958C80.7966 20.0465 82.7662 17.7768 85.4615 16.2467C88.1928 14.6819 91.6014 14 95.5086 14C101.33 14 106.096 15.5076 109.091 19.1305C110.328 20.6136 111.261 22.3427 111.918 24.2868C112.069 23.8323 112.235 23.3893 112.416 22.958C113.635 20.0464 115.605 17.7766 118.301 16.2465C121.032 14.6818 124.44 14 128.347 14C134.169 14 138.935 15.5076 141.93 19.1305C144.767 22.5305 145.999 27.2236 145.999 32.835C145.999 38.4235 144.762 43.1081 141.934 46.5339C138.94 50.1609 134.172 51.67 128.347 51.67C124.446 51.67 121.045 51.0066 118.319 49.4832L118.3 49.4726L118.281 49.4617C115.598 47.9 113.634 45.6206 112.416 42.712C112.233 42.2769 112.066 41.8298 111.914 41.371C111.257 43.3112 110.327 45.0419 109.095 46.5339C106.101 50.1609 101.333 51.67 95.5086 51.67C91.6073 51.67 88.2063 51.0066 85.4801 49.4832L85.4612 49.4726L85.4425 49.4617C82.8171 47.9335 80.8798 45.7179 79.6562 42.8981C79.0002 44.9003 77.8418 46.6648 76.1693 48.1396C73.3622 50.645 69.3551 51.67 64.6224 51.67C63.599 51.67 62.434 51.5979 61.1395 51.4624ZM140.033 20.7057C137.699 17.8788 133.804 16.4653 128.347 16.4653C124.699 16.4653 121.757 17.1063 119.522 18.3883C117.319 19.6374 115.709 21.4781 114.69 23.9106C113.671 26.343 113.161 29.3178 113.161 32.835C113.161 36.3522 113.671 39.327 114.69 41.7595C115.709 44.1919 117.319 46.0491 119.522 47.3311C121.757 48.5802 124.699 49.2047 128.347 49.2047C133.804 49.2047 137.699 47.7913 140.033 44.9644C142.367 42.1375 143.534 38.0944 143.534 32.835C143.534 27.5428 142.367 23.4997 140.033 20.7057ZM107.194 20.7057C104.86 17.8788 100.965 16.4653 95.5086 16.4653C91.8599 16.4653 88.918 17.1063 86.6828 18.3883C84.4804 19.6374 82.8697 21.4781 81.8507 23.9106C80.8318 26.343 80.3223 29.3178 80.3223 32.835C80.3223 36.3522 80.8318 39.327 81.8507 41.7595C82.8697 44.1919 84.4804 46.0491 86.6828 47.3311C88.918 48.5802 91.8599 49.2047 95.5086 49.2047C100.965 49.2047 104.86 47.7913 107.194 44.9644C109.528 42.1375 110.695 38.0944 110.695 32.835C110.695 27.5428 109.528 23.4997 107.194 20.7057ZM54.9361 37.5191H64.1294C64.8352 37.5191 65.3223 37.5771 65.6356 37.6508C65.7307 37.6732 65.798 37.6943 65.8429 37.7103C65.8697 37.8064 65.9044 37.9943 65.9044 38.308C65.9044 38.6309 65.8478 38.7752 65.828 38.8163C65.8179 38.8372 65.8101 38.8474 65.8037 38.8546C65.7969 38.8622 65.7791 38.8807 65.7386 38.9072L65.7199 38.9194L65.7015 38.9319C65.5052 39.0654 64.8075 39.3435 63.1432 39.3435C62.5574 39.3435 61.779 39.2893 60.7865 39.1653C59.8382 39.0467 58.8869 38.8688 57.9321 38.6304C57.0295 38.3971 56.2704 38.1306 55.6404 37.8419L54.9361 37.5191ZM97.8193 37.9489L97.8237 37.9414C98.3508 37.0494 98.7628 35.4481 98.7628 32.835C98.7628 30.1762 98.3465 28.5936 97.8365 27.7501L97.8256 27.732L97.8149 27.7136C97.5702 27.2928 97.0757 26.8196 95.5086 26.8196C93.9653 26.8196 93.4214 27.2811 93.1418 27.7331C92.6505 28.5918 92.2544 30.1864 92.2544 32.835C92.2544 35.4282 92.6434 37.038 93.1476 37.9463C93.429 38.3953 93.976 38.8504 95.5086 38.8504C97.0757 38.8504 97.5702 38.3772 97.8149 37.9564L97.8193 37.9489ZM91.0217 26.4745C91.8764 25.0611 93.372 24.3543 95.5086 24.3543C97.6452 24.3543 99.1244 25.0611 99.9462 26.4745C100.801 27.888 101.228 30.0081 101.228 32.835C101.228 35.629 100.801 37.7492 99.9462 39.1955C99.1244 40.609 97.6452 41.3157 95.5086 41.3157C93.372 41.3157 91.8764 40.609 91.0217 39.1955C90.2 37.7492 89.7891 35.629 89.7891 32.835C89.7891 30.0081 90.2 27.888 91.0217 26.4745ZM130.658 37.9489L130.663 37.9414C131.19 37.0494 131.602 35.4481 131.602 32.835C131.602 30.1762 131.185 28.5936 130.675 27.7501L130.664 27.732L130.654 27.7136C130.409 27.2928 129.914 26.8196 128.347 26.8196C126.804 26.8196 126.26 27.2811 125.981 27.733C125.489 28.5917 125.093 30.1864 125.093 32.835C125.093 35.4282 125.482 37.038 125.986 37.9463C126.268 38.3953 126.815 38.8504 128.347 38.8504C129.914 38.8504 130.409 38.3772 130.654 37.9564L130.658 37.9489ZM123.861 26.4745C124.715 25.0611 126.211 24.3543 128.347 24.3543C130.484 24.3543 131.963 25.0611 132.785 26.4745C133.64 27.888 134.067 30.0081 134.067 32.835C134.067 35.629 133.64 37.7492 132.785 39.1955C131.963 40.609 130.484 41.3157 128.347 41.3157C126.211 41.3157 124.715 40.609 123.861 39.1955C123.039 37.7492 122.628 35.629 122.628 32.835C122.628 30.0081 123.039 27.888 123.861 26.4745Z" stroke="#FF9330" stroke-width="3" stroke-linejoin="round" mask="url(#path-25-outside-1_1610_4031)"/>
<path d="M64.6223 49.2047C63.7019 49.2047 62.6172 49.139 61.3681 49.0075C60.1519 48.9089 58.9357 48.7446 57.7194 48.5145C56.5361 48.2515 55.5006 47.9228 54.6131 47.5283V40.0831C55.402 40.4447 56.306 40.7569 57.325 41.0199C58.3768 41.2829 59.4287 41.4801 60.4806 41.6116C61.5325 41.7431 62.42 41.8088 63.1431 41.8088C64.951 41.8088 66.2659 41.5294 67.0876 40.9706C67.9423 40.4118 68.3696 39.5243 68.3696 38.308C68.3696 37.1576 68.0738 36.3358 67.4821 35.8427C66.8904 35.3168 65.7728 35.0538 64.1293 35.0538H54.4652V30.8135L55.3034 16.9584H75.8642L75.2232 24.0585H63.2417L62.9459 28.5947H66.5453C70.3912 28.5947 73.2345 29.4493 75.0753 31.1586C76.916 32.8679 77.8364 35.3661 77.8364 38.6532C77.8364 41.8088 76.7352 44.3563 74.5329 46.2957C72.3634 48.2351 69.0599 49.2047 64.6223 49.2047Z" fill="#AE5714"/>
<path d="M95.5085 49.2047C91.8598 49.2047 88.9179 48.5802 86.6827 47.3311C84.4803 46.0491 82.8696 44.1919 81.8506 41.7595C80.8316 39.327 80.3221 36.3522 80.3221 32.835C80.3221 29.3179 80.8316 26.343 81.8506 23.9106C82.8696 21.4781 84.4803 19.6374 86.6827 18.3883C88.9179 17.1063 91.8598 16.4653 95.5085 16.4653C100.965 16.4653 104.86 17.8788 107.194 20.7057C109.528 23.4997 110.695 27.5428 110.695 32.835C110.695 38.0944 109.528 42.1375 107.194 44.9644C104.86 47.7913 100.965 49.2047 95.5085 49.2047ZM95.5085 41.3157C97.6451 41.3157 99.1243 40.609 99.9461 39.1956C100.801 37.7492 101.228 35.6291 101.228 32.835C101.228 30.0081 100.801 27.888 99.9461 26.4745C99.1243 25.0611 97.6451 24.3543 95.5085 24.3543C93.3719 24.3543 91.8763 25.0611 91.0216 26.4745C90.1998 27.888 89.789 30.0081 89.789 32.835C89.789 35.6291 90.1998 37.7492 91.0216 39.1956C91.8763 40.609 93.3719 41.3157 95.5085 41.3157Z" fill="#AE5714"/>
<path d="M128.347 49.2047C124.699 49.2047 121.757 48.5802 119.521 47.3311C117.319 46.0491 115.708 44.1919 114.689 41.7595C113.67 39.327 113.161 36.3522 113.161 32.835C113.161 29.3179 113.67 26.343 114.689 23.9106C115.708 21.4781 117.319 19.6374 119.521 18.3883C121.757 17.1063 124.699 16.4653 128.347 16.4653C133.804 16.4653 137.699 17.8788 140.033 20.7057C142.367 23.4997 143.534 27.5428 143.534 32.835C143.534 38.0944 142.367 42.1375 140.033 44.9644C137.699 47.7913 133.804 49.2047 128.347 49.2047ZM128.347 41.3157C130.484 41.3157 131.963 40.609 132.785 39.1956C133.64 37.7492 134.067 35.6291 134.067 32.835C134.067 30.0081 133.64 27.888 132.785 26.4745C131.963 25.0611 130.484 24.3543 128.347 24.3543C126.211 24.3543 124.715 25.0611 123.86 26.4745C123.039 27.888 122.628 30.0081 122.628 32.835C122.628 35.6291 123.039 37.7492 123.86 39.1956C124.715 40.609 126.211 41.3157 128.347 41.3157Z" fill="#AE5714"/>
<g style="mix-blend-mode:color">
<path d="M158 103C158 137.242 130.018 165 95.5 165C60.9822 165 33 137.242 33 103C33 68.7583 60.9822 41 95.5 41C130.018 41 158 68.7583 158 103Z" fill="#FCA24F"/>
</g>
<defs>
<linearGradient id="paint0_linear_1610_4031" x1="100.533" y1="79.854" x2="103.435" y2="55.0938" gradientUnits="userSpaceOnUse">
<stop stop-color="#EF8103"/>
<stop offset="1" stop-color="#ED8103" stop-opacity="0"/>
</linearGradient>
<linearGradient id="paint1_linear_1610_4031" x1="122.368" y1="101.699" x2="150.069" y2="99.1435" gradientUnits="userSpaceOnUse">
<stop stop-color="#EF8103"/>
<stop offset="1" stop-color="#ED8103" stop-opacity="0"/>
</linearGradient>
<linearGradient id="paint2_linear_1610_4031" x1="107.527" y1="129.855" x2="121.039" y2="148.616" gradientUnits="userSpaceOnUse">
<stop stop-color="#EF8103"/>
<stop offset="1" stop-color="#ED8103" stop-opacity="0"/>
</linearGradient>
<linearGradient id="paint3_linear_1610_4031" x1="73.7241" y1="91.6494" x2="53.4103" y2="80.607" gradientUnits="userSpaceOnUse">
<stop stop-color="#EF8103"/>
<stop offset="1" stop-color="#ED8103" stop-opacity="0"/>
</linearGradient>
<linearGradient id="paint4_linear_1610_4031" x1="77.3498" y1="121.83" x2="63.2033" y2="140.118" gradientUnits="userSpaceOnUse">
<stop stop-color="#EF8103"/>
<stop offset="1" stop-color="#ED8103" stop-opacity="0"/>
</linearGradient>
</defs>
</svg>
