<svg width="192" height="192" viewBox="0 0 192 192" fill="none" xmlns="http://www.w3.org/2000/svg">
<path d="M130.831 29.0181C134.084 20.0094 126.522 10.7955 115.876 10.7955C107.201 10.7955 100.169 17.0447 100.169 24.7534L100.169 51.2674C100.169 56.6842 105.11 61.0755 111.206 61.0755C116.002 61.0755 120.25 58.3226 121.715 54.2641L130.831 29.0181Z" fill="#FFC700"/>
<path d="M120 14.2333C122.47 17.3377 117.011 18.0771 112.442 21.712C107.874 25.3469 105.928 30.5008 103.457 27.3964C100.987 24.292 102.996 19.2164 107.564 15.5815C112.132 11.9466 117.529 11.1289 120 14.2333Z" fill="#FFDB44"/>
<path d="M114.184 15.5828C115.354 17.0533 112.391 17.7035 109.762 19.7953C107.133 21.8871 105.834 24.6284 104.664 23.1579C103.494 21.6874 104.823 18.9832 107.452 16.8914C110.08 14.7996 113.014 14.1123 114.184 15.5828Z" fill="white"/>
<path d="M63.2941 29.1942C60.227 20.1855 67.357 10.9716 77.3952 10.9716C85.5741 10.9716 92.2044 17.2207 92.2044 24.9294L92.2044 51.4434C92.2044 56.8603 87.5454 61.2515 81.7981 61.2515C77.2758 61.2515 73.2711 58.4987 71.8894 54.4402L63.2941 29.1942Z" fill="#FFC700"/>
<path d="M77.9486 13.153C81.1382 15.5123 76.0561 17.6395 72.5845 22.3329C69.1129 27.0262 68.5665 32.5084 65.3769 30.1491C62.1874 27.7898 62.8143 22.3672 66.2859 17.6738C69.7574 12.9805 74.7591 10.7938 77.9486 13.153Z" fill="#FFDB44"/>
<path d="M72.68 15.9618C74.1909 17.0794 71.4971 18.4743 69.4993 21.1752C67.5015 23.8761 66.9561 26.8603 65.4453 25.7427C63.9344 24.6252 64.5179 21.6692 66.5157 18.9683C68.5135 16.2674 71.1692 14.8443 72.68 15.9618Z" fill="white"/>
<path d="M75.9308 58.8882C73.6209 57.2534 78.2917 55.8008 82.2214 51.8712C86.151 47.9415 86.2542 41.4244 88.8041 43.9742C91.3539 46.5241 89.902 51.4412 85.9724 55.3709C82.0427 59.3006 78.2406 60.523 75.9308 58.8882Z" fill="#FFAF00"/>
<path d="M148.168 163.809C148.26 173.698 124.878 181.932 95.9437 182.199C67.0093 182.467 43.4792 174.667 43.3877 164.778C43.2963 154.889 66.6781 146.656 95.6125 146.388C124.547 146.121 148.077 153.92 148.168 163.809Z" fill="#F7B954"/>
<path d="M40.594 149.55L150.68 148.532L150.725 148.733C152.433 156.493 150.266 164.599 144.914 170.472L45.4202 169.402C41.1631 164.389 39.3022 157.769 40.3234 151.272L40.594 149.55Z" fill="#F7B954"/>
<path d="M150.681 148.666C150.777 158.995 126.211 167.596 95.8112 167.877C65.4118 168.158 40.6907 160.013 40.5952 149.684C40.4996 139.355 65.0658 130.753 95.4652 130.472C125.865 130.191 150.586 138.337 150.681 148.666Z" fill="#AE5714"/>
<path d="M146.552 147.145C146.618 154.185 129.873 160.048 109.152 160.239C88.4314 160.431 71.5811 154.879 71.516 147.839C71.4509 140.798 88.1956 134.935 108.916 134.744C129.637 134.552 146.487 140.104 146.552 147.145Z" fill="#874410"/>
<path d="M148.273 104.133C148.273 132.511 124.743 155.516 95.7181 155.516C66.6928 155.516 43.1631 132.511 43.1631 104.133C43.1631 75.7547 66.6928 49.5715 95.7181 49.5715C124.743 49.5715 148.273 75.7547 148.273 104.133Z" fill="#FFC700"/>
<path d="M54.1381 75.9815C63.5362 63.0506 78.424 52.4824 95.1824 52.4824C104.113 52.4824 112.513 55.4838 119.834 60.2447C123.343 68.5621 119.11 79.2928 108.026 87.3513C93.3774 98.0015 72.3084 99.9511 60.9673 91.7057C55.4437 87.6899 53.2464 81.9963 54.1381 75.9815Z" fill="#FFDB44"/>
<path d="M90.4273 78.207C97.713 73.1861 99.0467 65.9647 93.4062 62.0775C87.7656 58.1904 77.2869 59.1095 70.0012 64.1304C62.7155 69.1513 61.3818 76.3727 67.0224 80.2599C72.6629 84.147 83.1417 83.2279 90.4273 78.207Z" fill="#FFE971"/>
<path d="M63.1632 143.5C93.2766 143.5 136.336 129.651 145.002 103.246C145.579 101.488 148.163 101.618 148.163 103.462C148.163 132.478 123.896 156 93.9599 156C88.8009 156 83.8103 155.301 79.0832 153.996C75.6719 153.055 59.6162 143.5 63.1632 143.5Z" fill="#EB8C00"/>
<path d="M141.895 89.0693C141.175 86.9607 138.182 87.5616 137.86 89.7635C133.733 118.033 109.031 139.759 79.1745 139.759C76.9381 139.759 74.7306 139.637 72.5585 139.399C70.3069 139.153 68.9739 141.859 70.8788 143.066C78.3055 147.772 87.1462 150.502 96.6347 150.502C122.952 150.502 144.286 129.498 144.286 103.589C144.286 98.4487 143.447 93.6144 141.895 89.0693Z" fill="#FFAF00"/>
<path d="M84.8472 144.287C111.321 144.287 133.742 127.206 141.36 103.627C141.867 102.058 144.139 102.173 144.139 103.82C144.139 129.729 122.805 150.733 96.4874 150.733C91.952 150.733 87.5646 150.109 83.4088 148.944C80.4098 148.103 81.7289 144.287 84.8472 144.287Z" fill="#FFAF00"/>
<path d="M82.5146 74.0675C77.9689 77.1911 74.0556 79.5665 70.6463 77.2238C67.237 74.8811 68.1582 70.4498 72.704 67.3262C77.2497 64.2026 83.6985 63.5695 87.1078 65.9122C90.5171 68.2549 87.0604 70.9439 82.5146 74.0675Z" fill="white"/>
<mask id="mask0_1610_4038" style="mask-type:alpha" maskUnits="userSpaceOnUse" x="42" y="49" width="107" height="107">
<circle cx="95.5522" cy="102.948" r="52.9598" transform="rotate(10.4274 95.5522 102.948)" fill="#868BAD"/>
</mask>
<g mask="url(#mask0_1610_4038)">
<path d="M97.0798 80.8675C98.6611 80.1108 100.55 80.4584 101.758 81.7285L116.832 97.5727C118.04 98.8428 118.293 100.746 117.459 102.288L107.048 121.52C106.214 123.062 104.481 123.891 102.757 123.574L81.2492 119.616C79.5251 119.298 78.2014 117.907 77.9704 116.169L75.0884 94.4908C74.8574 92.753 75.7716 91.0642 77.3529 90.3075L97.0798 80.8675Z" fill="#ED8103"/>
<path d="M107.593 65.7907C104.114 67.4554 99.9588 66.6908 97.3005 63.8966L89.8199 56.0337C87.1616 53.2395 86.6048 49.0514 88.4408 45.6598L93.6073 36.1155C95.4432 32.7239 99.2542 30.9002 103.047 31.5982L113.721 33.5625C117.514 34.2605 120.426 37.3214 120.934 41.1445L122.364 51.9027C122.873 55.7257 120.861 59.4412 117.383 61.106L107.593 65.7907Z" fill="#ED8103"/>
<path d="M48.6435 93.5071C45.1646 95.1719 41.0095 94.4072 38.3512 91.613L30.8706 83.7501C28.2123 80.9559 27.6555 76.7678 29.4914 73.3762L34.6579 63.8319C36.4939 60.4403 40.3049 58.6166 44.0979 59.3146L54.7716 61.2789C58.5645 61.9769 61.4767 65.0379 61.9849 68.8609L63.4151 79.6191C63.9234 83.4422 61.9121 87.1577 58.4332 88.8224L48.6435 93.5071Z" fill="#ED8103"/>
<path d="M57.3153 158.828C53.8365 160.493 49.6813 159.728 47.023 156.934L39.5424 149.071C36.8841 146.277 36.3273 142.089 38.1633 138.697L43.3297 129.153C45.1657 125.761 48.9767 123.938 52.7697 124.636L63.4434 126.6C67.2363 127.298 70.1485 130.359 70.6567 134.182L72.0869 144.94C72.5952 148.763 70.5839 152.479 67.1051 154.143L57.3153 158.828Z" fill="#ED8103"/>
<path d="M121.85 169.764C118.371 171.428 114.216 170.664 111.558 167.87L104.077 160.007C101.419 157.212 100.862 153.024 102.698 149.633L107.864 140.088C109.7 136.697 113.511 134.873 117.304 135.571L127.978 137.535C131.771 138.233 134.683 141.294 135.191 145.117L136.622 155.876C137.13 159.699 135.119 163.414 131.64 165.079L121.85 169.764Z" fill="#ED8103"/>
<path d="M154.113 114.562C150.634 116.227 146.479 115.462 143.82 112.668L136.34 104.805C133.682 102.011 133.125 97.8227 134.961 94.431L140.127 84.8867C141.963 81.4951 145.774 79.6714 149.567 80.3694L160.241 82.3337C164.034 83.0317 166.946 86.0927 167.454 89.9157L168.884 100.674C169.393 104.497 167.381 108.212 163.902 109.877L154.113 114.562Z" fill="#ED8103"/>
</g>
<g style="mix-blend-mode:color">
<path fill-rule="evenodd" clip-rule="evenodd" d="M131.248 29.2226C134.501 20.2139 126.939 11 116.293 11C107.618 11 100.586 17.2492 100.586 24.9579L100.586 50.3907C97.9042 50.1529 95.2435 50.122 92.6213 50.2861L92.6213 25.1339C92.6213 17.4252 85.991 11.176 77.812 11.176C67.7738 11.176 60.6439 20.3899 63.711 29.3986L72.3062 54.6446C72.4156 54.9659 72.5414 55.279 72.6826 55.5832C58.1375 62.7177 47.0413 76.4105 43.8839 93.5674C38.5902 122.333 57.6181 149.944 86.384 155.238C115.15 160.531 142.761 141.504 148.054 112.738C152.321 89.5527 140.788 67.1181 121.091 56.514C121.519 55.8795 121.87 55.195 122.132 54.4686L131.248 29.2226Z" fill="white"/>
<path d="M116.293 11V9V11ZM131.248 29.2226L129.367 28.5433L131.248 29.2226ZM100.586 24.9579H98.5859H100.586ZM100.586 50.3907L100.409 52.3829L102.586 52.5759V50.3907H100.586ZM92.6213 50.2861H90.6213V52.4151L92.7462 52.2822L92.6213 50.2861ZM92.6213 25.1339H94.6213H92.6213ZM77.812 11.176V13.176V11.176ZM63.711 29.3986L61.8177 30.0432L63.711 29.3986ZM72.3062 54.6446L74.1995 54V54L72.3062 54.6446ZM72.6826 55.5832L73.5634 57.3789L75.321 56.5168L74.4967 54.7411L72.6826 55.5832ZM43.8839 93.5674L45.8509 93.9293L43.8839 93.5674ZM86.384 155.238L86.022 157.205L86.384 155.238ZM148.054 112.738L146.087 112.376L148.054 112.738ZM121.091 56.514L119.432 55.396L118.198 57.2278L120.143 58.275L121.091 56.514ZM122.132 54.4686L124.013 55.1479L122.132 54.4686ZM116.293 13C125.911 13 132.034 21.1572 129.367 28.5433L133.129 29.9018C136.968 19.2706 127.968 9 116.293 9V13ZM102.586 24.9579C102.586 18.5691 108.494 13 116.293 13V9C106.742 9 98.5859 15.9292 98.5859 24.9579H102.586ZM102.586 50.3907L102.586 24.9579H98.5859L98.5859 50.3907H102.586ZM92.7462 52.2822C95.2686 52.1244 97.8285 52.154 100.409 52.3829L100.763 48.3985C97.98 48.1517 95.2185 48.1197 92.4964 48.29L92.7462 52.2822ZM94.6213 50.2861L94.6213 25.1339H90.6213L90.6213 50.2861H94.6213ZM94.6213 25.1339C94.6213 16.2107 86.9823 9.17603 77.812 9.17603V13.176C84.9996 13.176 90.6213 18.6397 90.6213 25.1339H94.6213ZM77.812 9.17603C66.5762 9.17603 58.2547 19.5778 61.8177 30.0432L65.6043 28.754C63.0331 21.2021 68.9714 13.176 77.812 13.176V9.17603ZM61.8177 30.0432L70.4129 55.2892L74.1995 54L65.6043 28.754L61.8177 30.0432ZM70.4129 55.2892C70.5454 55.6782 70.6977 56.0572 70.8686 56.4254L74.4967 54.7411C74.3852 54.5008 74.2858 54.2536 74.1995 54L70.4129 55.2892ZM45.8509 93.9293C48.8888 77.4217 59.5624 64.2464 73.5634 57.3789L71.8019 53.7876C56.7126 61.189 45.1938 75.3993 41.917 93.2054L45.8509 93.9293ZM86.7459 153.271C59.0664 148.177 40.7571 121.609 45.8509 93.9293L41.917 93.2054C36.4233 123.058 56.1698 151.711 86.022 157.205L86.7459 153.271ZM146.087 112.376C140.993 140.055 114.425 158.365 86.7459 153.271L86.022 157.205C115.874 162.698 144.528 142.952 150.021 113.1L146.087 112.376ZM120.143 58.275C139.098 68.4797 150.192 90.0693 146.087 112.376L150.021 113.1C154.45 89.0361 142.478 65.7565 122.039 54.7529L120.143 58.275ZM120.251 53.7893C120.046 54.356 119.771 54.8937 119.432 55.396L122.749 57.632C123.266 56.8653 123.693 56.0339 124.013 55.1479L120.251 53.7893ZM129.367 28.5433L120.251 53.7893L124.013 55.1479L133.129 29.9018L129.367 28.5433Z" fill="white"/>
</g>
</svg>
