<svg width="192" height="192" viewBox="0 0 192 192" fill="none" xmlns="http://www.w3.org/2000/svg">
<mask id="mask0_2338_12579" style="mask-type:alpha" maskUnits="userSpaceOnUse" x="19" y="19" width="154" height="154">
<path d="M19 79.8C19 58.518 19 47.877 23.1418 39.7484C26.7849 32.5982 32.5982 26.7849 39.7484 23.1418C47.877 19 58.518 19 79.8 19H112.2C133.482 19 144.123 19 152.252 23.1418C159.402 26.7849 165.215 32.5982 168.858 39.7484C173 47.877 173 58.518 173 79.8V112.2C173 133.482 173 144.123 168.858 152.252C165.215 159.402 159.402 165.215 152.252 168.858C144.123 173 133.482 173 112.2 173H79.8C58.518 173 47.877 173 39.7484 168.858C32.5982 165.215 26.7849 159.402 23.1418 152.252C19 144.123 19 133.482 19 112.2V79.8Z" fill="#EFF3F5"/>
</mask>
<g mask="url(#mask0_2338_12579)">
<path d="M19 79.8C19 58.518 19 47.877 23.1418 39.7484C26.7849 32.5982 32.5982 26.7849 39.7484 23.1418C47.877 19 58.518 19 79.8 19H112.2C133.482 19 144.123 19 152.252 23.1418C159.402 26.7849 165.215 32.5982 168.858 39.7484C173 47.877 173 58.518 173 79.8V112.2C173 133.482 173 144.123 168.858 152.252C165.215 159.402 159.402 165.215 152.252 168.858C144.123 173 133.482 173 112.2 173H79.8C58.518 173 47.877 173 39.7484 168.858C32.5982 165.215 26.7849 159.402 23.1418 152.252C19 144.123 19 133.482 19 112.2V79.8Z" fill="#EFF3F5"/>
<path d="M141.47 157.029C142.607 181.926 134.176 202.536 98.0432 204.186C61.9104 205.835 51.6363 186.08 50.4994 161.183C49.3625 136.287 57.7935 115.677 93.9262 114.027C130.059 112.377 140.333 132.133 141.47 157.029Z" fill="#56200B"/>
<path d="M137.261 108.404C144.426 102.258 144.046 90.0795 136.501 84.0924C130.459 79.2981 122.186 80.5171 117.735 86.8576L94.7966 119.528C91.4502 124.294 92.7827 131.335 97.6166 134.428C100.838 136.49 104.82 136.226 107.695 133.761L137.261 108.404Z" fill="#56200B"/>
<path d="M82.4006 87.9813C78.8266 79.4352 68.0878 75.4107 60.4782 79.7657C53.2308 83.9135 52.3785 93.6778 58.6852 100.309L65.12 107.074C66.5959 108.626 67.7715 110.401 68.582 112.302L73.9202 124.822C76.5419 130.971 84.2644 133.868 89.782 130.773C93.4228 128.73 95.0497 124.582 93.8473 120.408L89.1684 104.165L82.4006 87.9813Z" fill="#56200B"/>
<path fill-rule="evenodd" clip-rule="evenodd" d="M83.8383 156.253C75.0977 155.811 64.2981 149.688 64.2981 141.125C64.2981 132.232 71.507 125.023 80.3996 125.023C85.2526 125.023 89.6041 127.17 92.5562 130.566C93.8952 131.483 95.5964 132.007 97.4703 130.585C100.423 127.178 104.781 125.023 109.643 125.023C118.536 125.023 125.745 132.232 125.745 141.125C125.745 146.322 121.367 150.926 115.953 153.855C115.982 154.25 115.997 154.648 115.997 155.051C115.997 163.943 108.788 171.152 99.8956 171.152C91.4075 171.152 84.4535 164.584 83.8383 156.253Z" fill="#FAC9B3"/>
<path d="M85.5232 149.413C82.5218 149.547 81.4224 147.13 81.2801 144.096C81.1377 141.061 82.0062 138.557 85.0076 138.424C88.009 138.29 89.1083 140.707 89.2507 143.741C89.3931 146.776 88.5246 149.28 85.5232 149.413Z" fill="black"/>
<path d="M107.812 149.413C104.81 149.547 103.711 147.13 103.568 144.096C103.426 141.061 104.294 138.557 107.296 138.424C110.297 138.29 111.397 140.707 111.539 143.741C111.681 146.776 110.813 149.28 107.812 149.413Z" fill="black"/>
<path d="M-4.76147 160.337C-4.76147 156.367 -1.54288 153.148 2.42746 153.148H189.272C193.243 153.148 196.461 156.367 196.461 160.337V200.401C196.461 204.371 193.243 207.59 189.272 207.59H2.42746C-1.54289 207.59 -4.76147 204.371 -4.76147 200.401V160.337Z" fill="#ED8103"/>
<path d="M80.8596 156.307C80.8596 162.762 75.7424 164.879 69.4299 164.879C63.1175 164.879 58.0002 162.762 58.0002 156.307C58.0002 149.851 63.1175 147.734 69.4299 147.734C75.7424 147.734 80.8596 149.851 80.8596 156.307Z" fill="#FFE7DD"/>
<path d="M133.559 155.705C133.559 162.161 128.509 164.277 122.279 164.277C116.05 164.277 111 162.161 111 155.705C111 149.249 116.05 147.133 122.279 147.133C128.509 147.133 133.559 149.249 133.559 155.705Z" fill="#FFE7DD"/>
<path d="M-1.25891 59.8065L25.6211 56.6019L39.2583 170.991L12.3784 174.196L-1.25891 59.8065Z" fill="#FFB237"/>
<path d="M-1.25891 59.8065L25.6211 56.6019L32.6087 115.214C17.7633 116.984 4.29395 106.384 2.52411 91.5385L-1.25891 59.8065Z" fill="#ED8103"/>
<path d="M193.365 59.8065L166.486 56.6019L152.848 170.991L179.728 174.196L193.365 59.8065Z" fill="#FFB237"/>
<path d="M193.365 59.8065L166.486 56.6019L159.498 115.214C174.343 116.984 187.813 106.384 189.582 91.5385L193.365 59.8065Z" fill="#ED8103"/>
<path d="M164.826 -12.0001H131.984L138.337 55.5606C139.209 64.8321 146.992 71.9178 156.304 71.9178H161.902C173.553 71.9178 182.151 61.0423 179.462 49.706L164.826 -12.0001Z" fill="#0098A1"/>
<path d="M26.8735 -11.9995H59.716L53.3629 55.5612C52.4911 64.8327 44.7078 71.9185 35.3953 71.9185H29.7971C18.1463 71.9185 9.54855 61.0429 12.2374 49.7066L26.8735 -11.9995Z" fill="#53DEE9"/>
<path d="M131.984 -12.0001H95.8499V53.871C95.8499 63.838 103.93 71.9178 113.897 71.9178H120.051C130.686 71.9178 139.015 62.7691 138.019 52.1814L131.984 -12.0001Z" fill="#53DEE9"/>
<path d="M59.7158 -12.0001H95.8496V53.871C95.8496 63.838 87.7697 71.9178 77.8027 71.9178H71.648C61.0136 71.9178 52.6848 62.7691 53.6804 52.1814L59.7158 -12.0001Z" fill="#0098A1"/>
<path d="M86.425 133.426C84.032 133.522 78.6712 132.87 76.3725 129.488" stroke="#FFF8F5" stroke-width="4.46512" stroke-linecap="round" stroke-linejoin="round"/>
<path d="M115.925 130.381C114.607 131.694 110.861 134.196 106.423 133.696" stroke="#FFF8F5" stroke-width="4.46512" stroke-linecap="round" stroke-linejoin="round"/>
</g>
<path d="M148.179 135.205C140.909 129.425 132.375 135.95 129.016 139.935C130.769 143.23 134.357 148.859 134.68 145.008C135.003 141.158 143.814 136.869 148.179 135.205Z" fill="#56200B"/>
<path d="M144.739 140.312C137.915 136.717 131.957 143.357 129.83 147.127C131.769 149.546 135.565 153.585 135.235 150.394C134.905 147.202 141.433 142.343 144.739 140.312Z" fill="#56200B"/>
<path d="M103.698 137.272C98.1096 138.521 96.5787 132.475 96.5118 129.296C94.2972 124.457 89.9678 117.552 90.3671 128.644C90.7664 139.737 99.4208 139.018 103.698 137.272Z" fill="#56200B"/>
<path d="M42.8652 134.037C50.7915 127.781 60.0968 134.843 63.7586 139.156C61.847 142.722 57.9357 148.814 57.5834 144.647C57.231 140.48 47.6245 135.837 42.8652 134.037Z" fill="#56200B"/>
<path d="M46.6169 139.564C54.0569 135.673 60.5528 142.86 62.8708 146.94C60.7568 149.558 56.6186 153.93 56.9786 150.475C57.3385 147.021 50.2208 141.762 46.6169 139.564Z" fill="#56200B"/>
</svg>
