<svg width="558" height="558" viewBox="0 0 558 558" fill="none" xmlns="http://www.w3.org/2000/svg">
    <g clip-path="url(#clip0_629)">
        <rect width="558" height="558" rx="139.5" fill="#EFF4F5" />
        <path
            d="M358.711 315.664C372.654 288.935 354.885 253.428 324.17 246.641C297.264 240.695 273.805 260.148 274.5 287.828L278.257 437.529C278.669 453.979 292.454 468.101 308.509 468.523C323.655 468.921 335.194 456.924 334.604 441.392L332.288 380.381C331.961 371.783 333.779 363.459 337.569 356.193L358.711 315.664Z"
            fill="#110D12" />
        <path
            d="M275.672 295.553C281.303 268.256 252.538 244.184 223.297 251.724C219.638 252.667 216.167 254.087 212.989 255.94L211.271 256.941C189.361 269.712 182.074 295.793 194.299 317.684L217.368 358.99C220.634 364.838 222.591 371.18 223.12 377.632L226.704 421.312C228.267 440.361 252.074 451.373 269.061 440.903C278.245 435.243 282.291 424.786 279.174 414.771L265.685 371.443C263.443 364.242 263.051 356.734 264.541 349.514L275.672 295.553Z"
            fill="#110D12" />
        <path
            d="M219.436 296.334L233.862 383.353L319.019 380.794L334.608 296.217L299.242 341.123L294.589 334.376L303.896 322.393L277.72 283.188L251.312 322.742L260.502 334.957L255.5 341.705L219.436 296.334Z"
            fill="#FFD800" />
        <path
            d="M428.771 516.35C432.516 598.359 404.744 666.247 285.724 671.681C166.704 677.116 132.861 612.042 129.116 530.034C125.372 448.025 153.143 380.137 272.163 374.703C391.183 369.268 425.026 434.342 428.771 516.35Z"
            fill="#110D12" />
        <path
            d="M243.668 455.227C234.629 455.639 231.317 448.162 230.889 438.77C230.46 429.379 233.076 421.631 242.115 421.218C251.155 420.805 254.466 428.283 254.895 437.674C255.324 447.065 252.708 454.814 243.668 455.227Z"
            fill="white" />
        <path
            d="M318.123 452.202C309.083 452.615 305.772 445.137 305.343 435.746C304.914 426.355 307.53 418.606 316.57 418.193C325.61 417.781 328.921 425.258 329.349 434.65C329.778 444.041 327.163 451.789 318.123 452.202Z"
            fill="white" />
        <rect x="-86.0977" y="486.07" width="729.105" height="197.262" rx="26.0482" fill="#ED8103" />
        <path
            d="M201.621 497.514C201.621 520.906 183.079 528.574 160.207 528.574C137.335 528.574 118.793 520.906 118.793 497.514C118.793 474.121 137.335 466.453 160.207 466.453C183.079 466.453 201.621 474.121 201.621 497.514Z"
            fill="#FFCF71" />
        <path
            d="M432.668 495.334C432.668 518.726 414.37 526.395 391.799 526.395C369.227 526.395 350.93 518.726 350.93 495.334C350.93 471.942 369.227 464.273 391.799 464.273C414.37 464.273 432.668 471.942 432.668 495.334Z"
            fill="#FFCF71" />
        <rect x="-73.405" y="147.854" width="98.0859" height="417.41" transform="rotate(-6.79861 -73.405 147.854)"
            fill="#FFB237" />
        <path
            d="M-73.405 147.854L23.9912 136.243L49.3099 348.616C-4.48054 355.028 -53.2849 316.621 -59.6977 262.831L-73.405 147.854Z"
            fill="#ED8103" />
        <rect width="98.0859" height="417.41" transform="matrix(-0.992968 -0.11838 -0.11838 0.992968 631.792 147.854)"
            fill="#FFB237" />
        <path
            d="M631.792 147.854L534.395 136.243L509.077 348.616C562.867 355.028 611.671 316.621 618.084 262.831L631.792 147.854Z"
            fill="#ED8103" />
        <path
            d="M528.382 -54.3513H409.382L432.401 190.447C435.56 224.041 463.762 249.715 497.505 249.715H517.789C560.004 249.715 591.157 210.309 581.414 169.233L528.382 -54.3513Z"
            fill="#0098A1" />
        <path
            d="M28.5279 -54.3506H147.529L124.509 190.447C121.35 224.042 93.148 249.716 59.4055 249.716H39.1211C-3.09426 249.716 -34.247 210.31 -24.5042 169.234L28.5279 -54.3506Z"
            fill="#53DEE9" />
        <path
            d="M409.381 -54.3513H278.454V184.324C278.454 220.439 307.731 249.715 343.845 249.715H366.146C404.678 249.715 434.857 216.566 431.249 178.202L409.381 -54.3513Z"
            fill="#53DEE9" />
        <path
            d="M147.529 -54.3513H278.456V184.324C278.456 220.439 249.179 249.715 213.065 249.715H190.764C152.232 249.715 122.054 216.566 125.661 178.202L147.529 -54.3513Z"
            fill="#0098A1" />
        <circle cx="277.577" cy="359.012" r="6.98015" fill="#ED8103" />
        <circle cx="248.726" cy="364.829" r="5.81679" fill="#ED8103" />
        <circle cx="306.196" cy="364.829" r="5.81679" fill="#ED8103" />
    </g>
    <defs>
        <clipPath id="clip0_629">
            <rect width="558" height="558" rx="139.5" fill="white" />
        </clipPath>
    </defs>
</svg>