<svg xmlns="http://www.w3.org/2000/svg" width="192" height="192" fill="none" viewBox="0 0 192 192"><mask id="mask0_1508_1469" width="154" height="154" x="19" y="19" maskUnits="userSpaceOnUse" style="mask-type:alpha"><path fill="#EFF3F5" d="M19 79.8C19 58.518 19 47.877 23.1418 39.7484C26.7849 32.5982 32.5982 26.7849 39.7484 23.1418C47.877 19 58.518 19 79.8 19H112.2C133.482 19 144.123 19 152.252 23.1418C159.402 26.7849 165.215 32.5982 168.858 39.7484C173 47.877 173 58.518 173 79.8V112.2C173 133.482 173 144.123 168.858 152.252C165.215 159.402 159.402 165.215 152.252 168.858C144.123 173 133.482 173 112.2 173H79.8C58.518 173 47.877 173 39.7484 168.858C32.5982 165.215 26.7849 159.402 23.1418 152.252C19 144.123 19 133.482 19 112.2V79.8Z"/></mask><g mask="url(#mask0_1508_1469)"><path fill="#EFF3F5" d="M19 79.8C19 58.518 19 47.877 23.1418 39.7484C26.7849 32.5982 32.5982 26.7849 39.7484 23.1418C47.877 19 58.518 19 79.8 19H112.2C133.482 19 144.123 19 152.252 23.1418C159.402 26.7849 165.215 32.5982 168.858 39.7484C173 47.877 173 58.518 173 79.8V112.2C173 133.482 173 144.123 168.858 152.252C165.215 159.402 159.402 165.215 152.252 168.858C144.123 173 133.482 173 112.2 173H79.8C58.518 173 47.877 173 39.7484 168.858C32.5982 165.215 26.7849 159.402 23.1418 152.252C19 144.123 19 133.482 19 112.2V79.8Z"/><path fill="#002544" d="M141.469 157.029C142.606 181.926 134.175 202.536 98.0427 204.185C61.91 205.835 51.6358 186.08 50.4989 161.183C49.362 136.287 57.793 115.677 93.9257 114.027C130.058 112.377 140.333 132.133 141.469 157.029Z"/><path fill="#002544" d="M139.039 111.33C145.599 104.542 144.082 92.4517 136.01 87.196C129.547 82.9873 121.425 84.974 117.585 91.7028L97.8004 126.374C94.9141 131.432 96.8987 138.317 102 140.945C105.4 142.697 109.341 142.062 111.972 139.339L139.039 111.33Z"/><path fill="#002544" d="M108.576 87.6631C109.553 79.0905 102.071 71.0397 93.3042 71.2281C84.9542 71.4075 79.5109 79.0144 81.8523 87.2319L84.2412 95.6164C84.7891 97.5395 84.9662 99.5122 84.7627 101.426L83.4224 114.03C82.7642 120.22 88.1426 126.012 94.4697 125.927C98.6446 125.87 102.066 123.2 103.019 119.253L106.728 103.897L108.576 87.6631Z"/><path fill="#fff" d="M84.599 137.423C81.0313 136.546 80.6008 133.253 81.5125 129.547C82.4242 125.84 84.3328 123.123 87.9005 124.001C91.4683 124.878 91.8988 128.171 90.9871 131.877C90.0754 135.584 88.1668 138.301 84.599 137.423Z"/><path fill="#fff" d="M109.075 143.444C105.507 142.566 105.077 139.274 105.988 135.567C106.9 131.861 108.809 129.144 112.376 130.021C115.944 130.899 116.375 134.191 115.463 137.898C114.551 141.604 112.643 144.321 109.075 143.444Z"/><path fill="#ED8103" d="M-4.76172 160.337C-4.76172 156.367 -1.54312 153.148 2.42722 153.148H189.272C193.242 153.148 196.461 156.367 196.461 160.337V200.401C196.461 204.371 193.242 207.59 189.272 207.59H2.42721C-1.54313 207.59 -4.76172 204.371 -4.76172 200.401V160.337Z"/><path fill="#9FD3EC" d="M80.8595 156.307C80.8595 162.763 75.7423 164.879 69.4298 164.879C63.1174 164.879 58.0001 162.763 58.0001 156.307C58.0001 149.851 63.1174 147.734 69.4298 147.734C75.7423 147.734 80.8595 149.851 80.8595 156.307Z"/><path fill="#9FD3EC" d="M133.559 155.705C133.559 162.161 128.509 164.277 122.279 164.277C116.05 164.277 111 162.161 111 155.705C111 149.249 116.05 147.133 122.279 147.133C128.509 147.133 133.559 149.249 133.559 155.705Z"/><path fill="#FFB237" d="M-1.25879 59.8066L25.6212 56.602L39.2584 170.991L12.3785 174.196L-1.25879 59.8066Z"/><path fill="#ED8103" d="M-1.25879 59.8066L25.6212 56.602L32.6088 115.214C17.7634 116.984 4.29407 106.384 2.52423 91.5385L-1.25879 59.8066Z"/><path fill="#FFB237" d="M193.365 59.8065L166.485 56.6019L152.848 170.991L179.727 174.196L193.365 59.8065Z"/><path fill="#ED8103" d="M193.365 59.8065L166.485 56.6019L159.497 115.214C174.343 116.984 187.812 106.384 189.582 91.5384L193.365 59.8065Z"/><path fill="#0098A1" d="M164.826 -12H131.983L138.336 55.5607C139.208 64.8322 146.992 71.918 156.304 71.918H161.902C173.553 71.918 182.151 61.0424 179.462 49.7061L164.826 -12Z"/><path fill="#53DEE9" d="M26.8734 -11.9993H59.7159L53.3628 55.5613C52.4909 64.8329 44.7076 71.9186 35.3952 71.9186H29.797C18.1461 71.9186 9.54842 61.0431 12.2373 49.7068L26.8734 -11.9993Z"/><path fill="#53DEE9" d="M131.983 -12H95.8496V53.8711C95.8496 63.8381 103.929 71.918 113.896 71.918H120.051C130.686 71.918 139.014 62.7692 138.019 52.1815L131.983 -12Z"/><path fill="#0098A1" d="M59.7159 -12H95.8497V53.8711C95.8497 63.8381 87.7699 71.918 77.8028 71.918H71.6482C61.0137 71.918 52.6849 62.7692 53.6806 52.1815L59.7159 -12Z"/><circle cx="63.831" cy="103.3" r="24.568" fill="#AEB1C9" transform="rotate(-8.32072 63.8305 103.3)"/><mask id="mask1_1508_1469" width="50" height="50" x="39" y="78" maskUnits="userSpaceOnUse" style="mask-type:alpha"><circle cx="63.831" cy="103.3" r="24.568" fill="#868BAD" transform="rotate(-8.32072 63.8305 103.3)"/></mask><g mask="url(#mask1_1508_1469)"><ellipse cx="62.296" cy="100.834" fill="#DFE1EF" rx="21.684" ry="21.239" transform="rotate(-8.32072 62.2962 100.834)"/><ellipse cx="59.239" cy="95.943" fill="#F3F3F3" rx="16.054" ry="15.725" transform="rotate(-8.32072 59.2394 95.9434)"/><path fill="#323B8C" d="M62.4112 93.9665L72.184 99.0928L70.3285 109.971L59.409 111.568L54.5159 101.677L62.4112 93.9665Z"/><path fill="#3945A8" d="M61.433 87.2786L51.6602 82.1523L53.5157 71.2737L64.4352 69.6767L69.3284 79.5683L61.433 87.2786Z"/><path fill="#3945A8" d="M39.6697 108.244L29.8969 103.117L31.7524 92.2388L42.6719 90.6418L47.5651 100.533L39.6697 108.244Z"/><path fill="#0C155B" d="M53.2188 135.646L43.446 130.519L45.3015 119.641L56.221 118.044L61.1141 127.935L53.2188 135.646Z"/><path fill="#0C155B" d="M83.1989 130.827L73.4261 125.701L75.2816 114.822L86.2011 113.225L91.0942 123.117L83.1989 130.827Z"/><path fill="#0C155B" d="M89.1408 101.767L79.368 96.6409L81.2235 85.7623L92.143 84.1653L97.0361 94.0569L89.1408 101.767Z"/></g></g></svg>