<svg width="192" height="192" viewBox="0 0 192 192" fill="none" xmlns="http://www.w3.org/2000/svg">
<mask id="mask0_2507_4021" style="mask-type:alpha" maskUnits="userSpaceOnUse" x="19" y="19" width="154" height="154">
<path d="M19 79.8C19 58.518 19 47.877 23.1418 39.7484C26.7849 32.5982 32.5982 26.7849 39.7484 23.1418C47.877 19 58.518 19 79.8 19H112.2C133.482 19 144.123 19 152.252 23.1418C159.402 26.7849 165.215 32.5982 168.858 39.7484C173 47.877 173 58.518 173 79.8V112.2C173 133.482 173 144.123 168.858 152.252C165.215 159.402 159.402 165.215 152.252 168.858C144.123 173 133.482 173 112.2 173H79.8C58.518 173 47.877 173 39.7484 168.858C32.5982 165.215 26.7849 159.402 23.1418 152.252C19 144.123 19 133.482 19 112.2V79.8Z" fill="#EFF3F5"/>
</mask>
<g mask="url(#mask0_2507_4021)">
<path d="M19 79.8C19 58.518 19 47.877 23.1418 39.7484C26.7849 32.5982 32.5982 26.7849 39.7484 23.1418C47.877 19 58.518 19 79.8 19H112.2C133.482 19 144.123 19 152.252 23.1418C159.402 26.7849 165.215 32.5982 168.858 39.7484C173 47.877 173 58.518 173 79.8V112.2C173 133.482 173 144.123 168.858 152.252C165.215 159.402 159.402 165.215 152.252 168.858C144.123 173 133.482 173 112.2 173H79.8C58.518 173 47.877 173 39.7484 168.858C32.5982 165.215 26.7849 159.402 23.1418 152.252C19 144.123 19 133.482 19 112.2V79.8Z" fill="#EFF3F5"/>
<path d="M46.3447 127.44C47.6968 120.57 54.3625 116.096 61.2328 117.448C68.1032 118.8 72.5766 125.466 71.2244 132.336L70.3279 136.892C68.9757 143.762 62.31 148.236 55.4397 146.884C48.5693 145.531 44.0959 138.866 45.4481 131.995L46.3447 127.44Z" fill="black"/>
<path d="M62 120.977C65.0993 113.318 76.6809 98 98.2128 98C119.745 98 129.043 115.333 131 124" stroke="black" stroke-width="6"/>
<path d="M67.6592 95.0345C64.9211 84.9811 71.045 73.5075 79.8838 72.1311C86.9616 71.0289 92.9316 76.9932 93.4267 85.6611L95.9781 130.323C96.3503 136.839 91.9289 142.827 86.6211 142.996C83.0839 143.109 80.0554 140.548 78.957 136.515L67.6592 95.0345Z" fill="#FF0038"/>
<path d="M115.443 87.5526C121.323 79.8868 132.37 79.4005 137.996 86.5599C143.353 93.3787 141.147 103.84 133.355 108.568L125.396 113.398C123.578 114.501 121.965 115.94 120.647 117.635L111.933 128.838C107.657 134.336 99.7113 134.689 95.6134 129.562C92.9094 126.18 92.69 121.3 95.0653 117.368L104.308 102.069L115.443 87.5526Z" fill="#FF0038"/>
<path d="M139 158.5C139 183.629 130.158 204 96 204C61.8416 204 53 183.629 53 158.5C53 133.371 61.8416 113 96 113C130.158 113 139 133.371 139 158.5Z" fill="#0F1837"/>
<path d="M139 158.5C139 183.629 130.158 204 96 204C61.8416 204 53 183.629 53 158.5C53 133.371 61.8416 113 96 113C130.158 113 139 133.371 139 158.5Z" fill="#FF0038"/>
<path d="M-4.76172 160.337C-4.76172 156.367 -1.54312 153.148 2.42722 153.148H189.272C193.242 153.148 196.461 156.367 196.461 160.337V200.401C196.461 204.371 193.242 207.59 189.272 207.59H2.42721C-1.54313 207.59 -4.76172 204.371 -4.76172 200.401V160.337Z" fill="#FFB237"/>
<rect x="-4.76172" y="153.148" width="201.223" height="54.4414" rx="7.18894" fill="#FAD03E"/>
<path d="M-1.25879 59.8066L25.6212 56.6021L39.2584 170.991L12.3785 174.196L-1.25879 59.8066Z" fill="#FFB237"/>
<path d="M-1.25879 59.8066L25.6212 56.6021L32.6088 115.214C17.7634 116.984 4.29407 106.384 2.52423 91.5386L-1.25879 59.8066Z" fill="#ED8103"/>
<path d="M193.365 59.8066L166.485 56.6021L152.848 170.991L179.728 174.196L193.365 59.8066Z" fill="#FFB237"/>
<path d="M193.365 59.8066L166.485 56.6021L159.498 115.214C174.343 116.984 187.812 106.384 189.582 91.5386L193.365 59.8066Z" fill="#ED8103"/>
<path d="M164.826 -12H131.983L138.336 55.5607C139.208 64.8322 146.992 71.918 156.304 71.918H161.902C173.553 71.918 182.151 61.0424 179.462 49.7061L164.826 -12Z" fill="#0098A1"/>
<path d="M26.8734 -12H59.7159L53.3628 55.5607C52.4909 64.8322 44.7076 71.918 35.3952 71.918H29.797C18.1461 71.918 9.54842 61.0424 12.2373 49.7061L26.8734 -12Z" fill="#53DEE9"/>
<path d="M131.983 -12H95.8494V53.8711C95.8494 63.8381 103.929 71.918 113.896 71.918H120.051C130.685 71.918 139.014 62.7692 138.019 52.1815L131.983 -12Z" fill="#53DEE9"/>
<path d="M59.716 -12H95.8498V53.8711C95.8498 63.8381 87.77 71.918 77.803 71.918H71.6483C61.0139 71.918 52.6851 62.7692 53.6807 52.1815L59.716 -12Z" fill="#0098A1"/>
<path d="M81.5254 142.494C77.8408 142.662 76.4912 139.614 76.3164 135.786C76.1416 131.958 77.2078 128.8 80.8924 128.632C84.577 128.464 85.9266 131.512 86.1014 135.339C86.2762 139.167 85.21 142.326 81.5254 142.494Z" fill="white"/>
<path d="M111.108 141.085C107.423 141.254 106.073 138.206 105.899 134.378C105.724 130.55 106.79 127.392 110.475 127.223C114.159 127.055 115.509 130.103 115.684 133.931C115.858 137.759 114.792 140.917 111.108 141.085Z" fill="white"/>
<path d="M75 155.5C75 161.148 70.299 163 64.5 163C58.701 163 54 161.148 54 155.5C54 149.852 58.701 148 64.5 148C70.299 148 75 149.852 75 155.5Z" fill="white"/>
<path d="M126 155.5C126 161.148 121.299 163 115.5 163C109.701 163 105 161.148 105 155.5C105 149.852 109.701 148 115.5 148C121.299 148 126 149.852 126 155.5Z" fill="white"/>
<path d="M119.683 134.308C117.865 127.402 121.99 120.33 128.896 118.512C135.803 116.694 142.875 120.819 144.693 127.725L145.746 131.728C147.564 138.634 143.439 145.706 136.533 147.524C129.627 149.342 122.555 145.217 120.737 138.311L119.683 134.308Z" fill="black"/>
<path fill-rule="evenodd" clip-rule="evenodd" d="M56.4492 79.4816C56.0534 78.8313 55.3189 78.4667 54.5617 78.5446C53.8045 78.6225 53.1596 79.129 52.9044 79.8461L46.5981 97.5719C45.8412 97.1417 44.9582 96.8359 43.9962 96.7028C40.7576 96.2547 37.8496 97.9334 37.501 100.452C37.1525 102.971 39.4954 105.377 42.734 105.825C45.9727 106.273 48.8807 104.594 49.2292 102.075C49.2376 102.014 49.2445 101.954 49.2498 101.893L55.0959 85.4607C55.6865 86.8311 56.2007 88.2932 56.5053 89.6882C56.8234 91.145 56.8769 92.3702 56.6715 93.2857C56.4825 94.1276 56.0951 94.6645 55.4326 95.0099L57.2572 98.5095C59.1182 97.5391 60.1236 95.9267 60.5224 94.1498C60.9045 92.4465 60.7404 90.5833 60.3611 88.8462C59.6005 85.3634 57.8296 81.7494 56.4492 79.4816Z" fill="#828282"/>
<path fill-rule="evenodd" clip-rule="evenodd" d="M145.805 97.1539C145.224 96.9545 144.581 97.1069 144.151 97.5455C143.722 97.9841 143.582 98.6307 143.794 99.2071L149.018 113.453C148.326 113.577 147.621 113.842 146.956 114.255C144.715 115.647 143.777 118.187 144.859 119.929C145.941 121.671 148.634 121.956 150.874 120.565C153.114 119.173 154.053 116.633 152.971 114.891C152.945 114.849 152.918 114.808 152.89 114.768L148.047 101.561C149.12 102.106 150.192 102.748 151.1 103.457C152.048 104.196 152.713 104.929 153.057 105.603C153.374 106.222 153.411 106.755 153.178 107.311L156.113 108.541C156.768 106.98 156.56 105.462 155.892 104.154C155.251 102.9 154.189 101.829 153.058 100.947C150.791 99.1785 147.83 97.8493 145.805 97.1539Z" fill="#828282"/>
</g>
</svg>
