<svg xmlns="http://www.w3.org/2000/svg" width="192" height="192" fill="none" viewBox="0 0 192 192"><mask id="mask0_1582_1272" width="154" height="154" x="19" y="19" maskUnits="userSpaceOnUse" style="mask-type:alpha"><path fill="#C4C4C4" d="M19 79.8C19 58.518 19 47.877 23.1418 39.7484C26.7849 32.5982 32.5982 26.7849 39.7484 23.1418C47.877 19 58.518 19 79.8 19H112.2C133.482 19 144.123 19 152.252 23.1418C159.402 26.7849 165.215 32.5982 168.858 39.7484C173 47.877 173 58.518 173 79.8V112.2C173 133.482 173 144.123 168.858 152.252C165.215 159.402 159.402 165.215 152.252 168.858C144.123 173 133.482 173 112.2 173H79.8C58.518 173 47.877 173 39.7484 168.858C32.5982 165.215 26.7849 159.402 23.1418 152.252C19 144.123 19 133.482 19 112.2V79.8Z"/></mask><g mask="url(#mask0_1582_1272)"><path fill="#EFF3F5" d="M19 79.8C19 58.518 19 47.877 23.1418 39.7484C26.7849 32.5982 32.5982 26.7849 39.7484 23.1418C47.877 19 58.518 19 79.8 19H112.2C133.482 19 144.123 19 152.252 23.1418C159.402 26.7849 165.215 32.5982 168.858 39.7484C173 47.877 173 58.518 173 79.8V112.2C173 133.482 173 144.123 168.858 152.252C165.215 159.402 159.402 165.215 152.252 168.858C144.123 173 133.482 173 112.2 173H79.8C58.518 173 47.877 173 39.7484 168.858C32.5982 165.215 26.7849 159.402 23.1418 152.252C19 144.123 19 133.482 19 112.2V79.8Z"/><path fill="url(#paint0_radial_1582_1272)" fill-rule="evenodd" d="M85.8498 81.1758C93.4693 78.8314 102.013 84.0114 103.29 91.7503L105.71 106.405L106.025 114.277C120.38 116.24 128.017 127.268 132.498 141.381C138.822 161.3 136.466 179.822 107.559 189C78.6512 198.178 66.0422 184.407 59.7182 164.489C54.578 148.299 55.1722 133.032 71.0976 122.955C71.0414 122.891 70.9859 122.826 70.9313 122.761L63.5551 113.908C62.4351 112.564 61.0358 111.431 59.4341 110.571L52.4509 106.822C45.6068 103.149 44.0886 94.782 49.2569 89.2198C54.6834 83.3798 64.6722 83.5942 69.6481 89.6574L79.0708 101.139L86.4164 112.762L85.8884 109.705C85.5905 107.981 84.9452 106.3 83.988 104.755L79.8146 98.0171C75.7242 91.4135 78.5929 83.4086 85.8498 81.1758Z" clip-rule="evenodd"/><path fill="#fff" d="M83.9071 143.312C80.6126 144.358 78.6517 141.926 77.5651 138.503C76.4784 135.081 76.6775 131.963 79.9719 130.917C83.2664 129.871 85.2273 132.303 86.314 135.726C87.4006 139.148 87.2016 142.266 83.9071 143.312Z"/><path fill="#fff" d="M103.625 134.782C100.331 135.828 98.3699 133.396 97.2832 129.974C96.1966 126.551 96.3956 123.434 99.6901 122.388C102.985 121.342 104.945 123.773 106.032 127.196C107.119 130.618 106.92 133.736 103.625 134.782Z"/><path fill="#FFB237" d="M-4.76172 160.337C-4.76172 156.367 -1.54312 153.148 2.42722 153.148H189.272C193.242 153.148 196.461 156.367 196.461 160.337V200.401C196.461 204.371 193.242 207.59 189.272 207.59H2.42721C-1.54313 207.59 -4.76172 204.371 -4.76172 200.401V160.337Z"/><path fill="#fff" d="M83.4431 155.038C83.4431 160.758 78.9546 162.633 73.4178 162.633C67.8809 162.633 63.3925 160.758 63.3925 155.038C63.3925 149.318 67.8809 147.443 73.4178 147.443C78.9546 147.443 83.4431 149.318 83.4431 155.038Z"/><path fill="#FFB237" d="M-1.25879 59.8066L25.6212 56.6021L39.2584 170.991L12.3785 174.196L-1.25879 59.8066Z"/><path fill="#ED8103" d="M-1.25879 59.8066L25.6212 56.6021L32.6088 115.214C17.7634 116.984 4.29407 106.384 2.52423 91.5386L-1.25879 59.8066Z"/><path fill="#FFB237" d="M193.365 59.8066L166.485 56.6021L152.848 170.991L179.728 174.196L193.365 59.8066Z"/><path fill="#ED8103" d="M193.365 59.8066L166.485 56.6021L159.498 115.214C174.343 116.984 187.812 106.384 189.582 91.5386L193.365 59.8066Z"/><path fill="#0098A1" d="M167.998 1.37368C166.139 -6.46525 159.138 -12 151.081 -12C140.836 -12 132.812 -3.18617 133.771 7.01392L138.337 55.5607C139.208 64.8322 146.992 71.918 156.304 71.918H161.902C173.553 71.918 182.151 61.0424 179.462 49.7061L167.998 1.37368Z"/><path fill="#53DEE9" d="M23.7013 1.37368C25.5606 -6.46525 32.5617 -12 40.6181 -12C50.8632 -12 58.8871 -3.18617 57.9279 7.01392L53.3628 55.5607C52.4909 64.8322 44.7076 71.918 35.3952 71.918H29.797C18.1461 71.918 9.54842 61.0424 12.2373 49.7061L23.7013 1.37368Z"/><path fill="#53DEE9" d="M133.521 4.35728C132.649 -4.91426 124.866 -12 115.554 -12H113.896C103.929 -12 95.8494 -3.92014 95.8494 6.04687V53.8711C95.8494 63.8381 103.929 71.918 113.896 71.918H120.051C130.685 71.918 139.014 62.7692 138.019 52.1815L133.521 4.35728Z"/><path fill="#0098A1" d="M58.1779 4.35728C59.0497 -4.91426 66.833 -12 76.1455 -12H77.803C87.77 -12 95.8499 -3.92014 95.8499 6.04687V53.8711C95.8499 63.8381 87.77 71.918 77.803 71.918H71.6483C61.0139 71.918 52.6851 62.7692 53.6807 52.1815L58.1779 4.35728Z"/><circle cx="130.608" cy="100.836" r="24.621" fill="#E8D8C2" transform="rotate(-22.5614 130.608 100.836)"/><mask id="mask1_1582_1272" width="51" height="50" x="105" y="76" maskUnits="userSpaceOnUse" style="mask-type:alpha"><circle cx="130.608" cy="100.836" r="24.621" fill="#868BAD" transform="rotate(-22.5614 130.608 100.836)"/></mask><g mask="url(#mask1_1582_1272)"><ellipse cx="128.51" cy="98.819" fill="#F1EAE1" rx="21.73" ry="21.284" transform="rotate(-22.5614 128.51 98.8192)"/><ellipse cx="124.335" cy="94.822" fill="#FFFAF3" rx="16.088" ry="15.758" transform="rotate(-22.5614 124.335 94.8219)"/><path fill="#BE8C3D" d="M126.929 92.1196L137.685 94.6898L138.565 105.714L128.352 109.957L121.16 101.555L126.929 92.1196Z"/><path fill="#D49C44" d="M124.33 85.8645L113.573 83.2943L112.694 72.2701L122.907 68.0269L130.098 76.4287L124.33 85.8645Z"/><path fill="#D49C44" d="M108.358 111.594L97.6019 109.024L96.7224 97.9995L106.935 93.7564L114.127 102.158L108.358 111.594Z"/><path fill="#AA7B32" d="M128.274 134.871L117.518 132.3L116.639 121.276L126.851 117.033L134.043 125.435L128.274 134.871Z"/><path fill="#AA7B32" d="M156.207 122.8L145.451 120.229L144.571 109.205L154.784 104.962L161.976 113.364L156.207 122.8Z"/><path fill="#AA7B32" d="M154.815 93.1074L144.059 90.5372L143.179 79.513L153.392 75.2698L160.584 83.6717L154.815 93.1074Z"/></g><path fill="#fff" d="M128.81 151.595C128.81 157.01 124.503 158.785 119.19 158.785C113.877 158.785 109.57 157.01 109.57 151.595C109.57 146.18 113.877 144.405 119.19 144.405C124.503 144.405 128.81 146.18 128.81 151.595Z"/></g><defs><radialGradient id="paint0_radial_1582_1272" cx="0" cy="0" r="1" gradientTransform="translate(62.3167 212.928) rotate(-65.9625) scale(95.326 126.095)" gradientUnits="userSpaceOnUse"><stop stop-color="#414141"/><stop offset="1" stop-color="#111"/></radialGradient></defs></svg>