<svg xmlns="http://www.w3.org/2000/svg" width="192" height="192" fill="none" viewBox="0 0 192 192"><mask id="mask0_1684_1095" width="154" height="154" x="19" y="19" maskUnits="userSpaceOnUse" style="mask-type:alpha"><path fill="#EFF3F5" d="M19 79.8C19 58.518 19 47.877 23.1418 39.7484C26.7849 32.5982 32.5982 26.7849 39.7484 23.1418C47.877 19 58.518 19 79.8 19H112.2C133.482 19 144.123 19 152.252 23.1418C159.402 26.7849 165.215 32.5982 168.858 39.7484C173 47.877 173 58.518 173 79.8V112.2C173 133.482 173 144.123 168.858 152.252C165.215 159.402 159.402 165.215 152.252 168.858C144.123 173 133.482 173 112.2 173H79.8C58.518 173 47.877 173 39.7484 168.858C32.5982 165.215 26.7849 159.402 23.1418 152.252C19 144.123 19 133.482 19 112.2V79.8Z"/></mask><g mask="url(#mask0_1684_1095)"><path fill="url(#paint0_linear_1684_1095)" d="M19 79.8C19 58.518 19 47.877 23.1418 39.7484C26.7849 32.5982 32.5982 26.7849 39.7484 23.1418C47.877 19 58.518 19 79.8 19H112.2C133.482 19 144.123 19 152.252 23.1418C159.402 26.7849 165.215 32.5982 168.858 39.7484C173 47.877 173 58.518 173 79.8V112.2C173 133.482 173 144.123 168.858 152.252C165.215 159.402 159.402 165.215 152.252 168.858C144.123 173 133.482 173 112.2 173H79.8C58.518 173 47.877 173 39.7484 168.858C32.5982 165.215 26.7849 159.402 23.1418 152.252C19 144.123 19 133.482 19 112.2V79.8Z"/><ellipse fill="#4090F7" rx="10.417" ry="10.966" transform="matrix(-0.944148 -0.329522 -0.329522 0.944148 56.449 143.786)"/><ellipse fill="#19446E" opacity=".5" rx="10.417" ry="13.982" transform="matrix(-0.98809 -0.153877 -0.153877 0.98809 61.4384 146.425)"/><ellipse cx="138.154" cy="143.196" fill="#4090F7" rx="10.812" ry="11.304" transform="rotate(-19.2397 138.154 143.196)"/><ellipse cx="132.445" cy="146.425" fill="#19446E" opacity=".5" rx="10.417" ry="13.982" transform="rotate(-8.8517 132.445 146.425)"/><path fill="#fff" d="M67.5996 98.8383C64.5969 89.7434 71.3125 79.3638 81.0053 78.1186C88.7669 77.1215 95.3136 82.5171 95.8566 90.3586L98.6544 130.763C99.0626 136.657 94.2141 142.074 88.3935 142.227C84.5145 142.329 81.1934 140.012 79.9889 136.364L67.5996 98.8383Z"/><path fill="#fff" d="M103.423 93.8033C107.036 85.8297 117.742 82.7133 125.279 87.4415C132.457 91.9447 133.237 101.403 126.92 107.34L120.468 113.404C118.994 114.79 117.816 116.411 117 118.178L111.602 129.86C108.952 135.593 101.253 137.837 95.7879 134.469C92.1817 132.246 90.5925 128.14 91.8169 124.207L96.5815 108.902L103.423 93.8033Z"/><path fill="#fff" d="M139 158.5C139 183.629 130.158 204 96 204C61.8416 204 53 183.629 53 158.5C53 133.371 61.8416 113 96 113C130.158 113 139 133.371 139 158.5Z"/><g filter="url(#filter0_i_1684_1095)"><path fill="#fff" d="M67.5225 98.8383C64.5198 89.7434 71.2354 79.3638 80.9281 78.1186C88.6897 77.1215 95.2365 82.5171 95.7795 90.3586L98.5773 130.763C98.9855 136.657 94.1369 142.074 88.3163 142.227C84.4373 142.329 81.1163 140.012 79.9118 136.364L67.5225 98.8383Z"/><path fill="#fff" d="M103.346 93.8033C106.958 85.8297 117.665 82.7133 125.201 87.4415C132.38 91.9447 133.16 101.403 126.843 107.34L120.391 113.404C118.917 114.79 117.739 116.411 116.923 118.178L111.524 129.86C108.875 135.593 101.176 137.837 95.7108 134.469C92.1045 132.246 90.5154 128.14 91.7398 124.207L96.5043 108.902L103.346 93.8033Z"/><path fill="#fff" d="M139 158.5C139 183.629 130.158 204 96 204C61.8416 204 53 183.629 53 158.5C53 133.371 61.8416 113 96 113C130.158 113 139 133.371 139 158.5Z"/></g><path fill="#FFB237" d="M-4.76172 160.337C-4.76172 156.367 -1.54312 153.148 2.42722 153.148H189.272C193.242 153.148 196.461 156.367 196.461 160.337V200.401C196.461 204.371 193.242 207.59 189.272 207.59H2.42721C-1.54313 207.59 -4.76172 204.371 -4.76172 200.401V160.337Z"/><rect width="201.223" height="54.441" x="-4.762" y="153.148" fill="#FAD03E" rx="7.189"/><path fill="#FFB237" d="M-1.25879 59.8066L25.6212 56.6021L39.2584 170.991L12.3785 174.196L-1.25879 59.8066Z"/><path fill="#ED8103" d="M-1.25879 59.8066L25.6212 56.6021L32.6088 115.214C17.7634 116.984 4.29407 106.384 2.52423 91.5386L-1.25879 59.8066Z"/><path fill="#FFB237" d="M193.365 59.8066L166.485 56.6021L152.848 170.991L179.728 174.196L193.365 59.8066Z"/><path fill="#ED8103" d="M193.365 59.8066L166.485 56.6021L159.498 115.214C174.343 116.984 187.812 106.384 189.582 91.5386L193.365 59.8066Z"/><path fill="#0098A1" d="M164.826 -12H131.983L138.336 55.5607C139.208 64.8322 146.992 71.918 156.304 71.918H161.902C173.553 71.918 182.151 61.0424 179.462 49.7061L164.826 -12Z"/><path fill="#53DEE9" d="M26.8734 -12H59.7159L53.3628 55.5607C52.4909 64.8322 44.7076 71.918 35.3952 71.918H29.797C18.1461 71.918 9.54842 61.0424 12.2373 49.7061L26.8734 -12Z"/><path fill="#53DEE9" d="M131.983 -12H95.8494V53.8711C95.8494 63.8381 103.929 71.918 113.896 71.918H120.051C130.685 71.918 139.014 62.7692 138.019 52.1815L131.983 -12Z"/><path fill="#0098A1" d="M59.716 -12H95.8498V53.8711C95.8498 63.8381 87.77 71.918 77.803 71.918H71.6483C61.0139 71.918 52.6851 62.7692 53.6807 52.1815L59.716 -12Z"/><path fill="#F2DED5" d="M71.5 133C65.2912 136.821 66.1649 145.71 66.8984 152.116C66.9563 152.621 67.3838 153 67.8921 153H119.683C120.158 153 120.57 152.665 120.65 152.196C122.142 143.515 119.414 134.539 116.5 133C115.092 132.256 113.469 131.436 107.837 131.436C103.332 131.436 101 124 98.3835 124H87.3205C86.5 124 84.6442 127.305 81.2861 129.701C78.2287 131.882 73.77 131.603 71.5 133Z"/><path fill="#19446E" d="M79.9226 143.999C77.3069 144.119 76.3488 141.955 76.2247 139.238C76.1006 136.52 76.8575 134.278 79.4732 134.159C82.0889 134.039 83.047 136.203 83.1711 138.92C83.2952 141.638 82.5383 143.88 79.9226 143.999Z"/><path fill="#19446E" d="M100.923 142.999C98.3069 143.119 97.3488 140.955 97.2247 138.238C97.1006 135.52 97.8575 133.278 100.473 133.159C103.089 133.039 104.047 135.203 104.171 137.92C104.295 140.638 103.538 142.88 100.923 142.999Z"/><g style="mix-blend-mode:multiply"><mask id="mask1_1684_1095" width="68" height="14" x="58" y="139" maskUnits="userSpaceOnUse" style="mask-type:alpha"><ellipse cx="118.5" cy="144.5" fill="url(#paint1_radial_1684_1095)" rx="7.5" ry="5.5"/><ellipse cx="65.5" cy="147.5" fill="url(#paint2_radial_1684_1095)" rx="7.5" ry="5.5"/></mask><g mask="url(#mask1_1684_1095)"><path fill="#F2DED5" d="M71.1145 133C64.9057 136.821 65.7794 145.71 66.5129 152.116C66.5708 152.621 66.9983 153 67.5066 153H119.297C119.773 153 120.184 152.665 120.265 152.196C121.756 143.515 119.028 134.539 116.115 133C114.706 132.256 113.084 131.436 107.452 131.436C102.946 131.436 100.615 124 97.998 124H86.935C86.1145 124 84.2587 127.305 80.9006 129.701C77.8432 131.882 73.3845 131.603 71.1145 133Z"/></g></g><path stroke="#4090F7" stroke-linecap="round" stroke-linejoin="round" stroke-width="5" d="M83.0495 129.955C81.1186 128.876 76.6223 127.525 74.0846 130.749"/><path stroke="#4090F7" stroke-linecap="round" stroke-linejoin="round" stroke-width="5" d="M96.0951 128.332C97.3622 127.32 100.783 125.567 104.329 126.648"/><path fill="#71C6EF" d="M75 155.5C75 161.148 70.299 163 64.5 163C58.701 163 54 161.148 54 155.5C54 149.852 58.701 148 64.5 148C70.299 148 75 149.852 75 155.5Z"/><path fill="#71C6EF" d="M126 155.5C126 161.148 121.299 163 115.5 163C109.701 163 105 161.148 105 155.5C105 149.852 109.701 148 115.5 148C121.299 148 126 149.852 126 155.5Z"/><ellipse cx="114.678" cy="90.068" fill="#ED4B9E" rx="7.234" ry="7.686" transform="rotate(-27.0243 114.678 90.068)"/><ellipse cx="122.895" cy="106.177" fill="#31D0AA" rx="7.234" ry="7.686" transform="rotate(-27.0243 122.895 106.177)"/><ellipse cx="130.787" cy="81.851" fill="#FFB237" rx="7.234" ry="7.686" transform="rotate(-27.0243 130.787 81.8512)"/><ellipse cx="139.004" cy="97.961" fill="#7645D9" rx="7.234" ry="7.686" transform="rotate(-27.0243 139.004 97.9607)"/><g style="mix-blend-mode:multiply"><path fill="#ED4B9E" fill-rule="evenodd" d="M120.565 85.5425C121.656 89.0249 120.229 92.8195 117.018 94.457C113.808 96.0945 109.898 95.0225 107.719 92.0948C107.853 92.521 108.024 92.9424 108.234 93.3547C110.163 97.1359 114.647 98.7113 118.251 96.8734C121.854 95.0355 123.211 90.4803 121.283 86.6991C121.073 86.2868 120.832 85.9008 120.565 85.5425Z" clip-rule="evenodd"/></g><g style="mix-blend-mode:multiply"><path fill="#31D0AA" fill-rule="evenodd" d="M128.782 101.652C129.873 105.134 128.445 108.929 125.235 110.566C122.024 112.204 118.115 111.132 115.936 108.204C116.069 108.63 116.241 109.052 116.451 109.464C118.38 113.245 122.864 114.821 126.467 112.983C130.071 111.145 131.428 106.59 129.5 102.809C129.289 102.396 129.049 102.01 128.782 101.652Z" clip-rule="evenodd"/></g><g style="mix-blend-mode:multiply"><path fill="#FFB237" fill-rule="evenodd" d="M136.514 77.4079C137.605 80.8903 136.177 84.6849 132.966 86.3224C129.756 87.9599 125.846 86.8878 123.668 83.9602C123.801 84.3863 123.972 84.8078 124.183 85.2201C126.111 89.0013 130.596 90.5767 134.199 88.7388C137.802 86.9009 139.16 82.3457 137.231 78.5645C137.021 78.1522 136.78 77.7662 136.514 77.4079Z" clip-rule="evenodd"/></g><g style="mix-blend-mode:multiply"><path fill="#7645D9" fill-rule="evenodd" d="M144.73 93.5174C145.821 96.9998 144.394 100.794 141.183 102.432C137.973 104.069 134.063 102.997 131.884 100.07C132.018 100.496 132.189 100.917 132.399 101.33C134.328 105.111 138.813 106.686 142.416 104.848C146.019 103.01 147.377 98.4552 145.448 94.674C145.238 94.2617 144.997 93.8757 144.73 93.5174Z" clip-rule="evenodd"/></g></g><path fill="#19446E" stroke="#19446E" stroke-linejoin="round" stroke-width="1.616" d="M68.2783 108.731C68.3914 109.163 68.8241 109.392 69.2449 109.243L75.1037 107.169C75.5244 107.02 75.7738 106.549 75.6607 106.117L74.2779 100.839L79.7469 98.9021C80.1677 98.7531 80.417 98.2823 80.3039 97.8505L78.7413 91.8858C78.6282 91.4541 78.1955 91.2248 77.7747 91.3738L72.3057 93.3105L70.8979 87.9367C70.7848 87.5049 70.3521 87.2757 69.9313 87.4247L64.0725 89.4994C63.6518 89.6484 63.4024 90.1192 63.5155 90.551L64.9233 95.9247L59.4078 97.8779C58.987 98.0269 58.7377 98.4977 58.8508 98.9294L60.4134 104.894C60.5265 105.326 60.9592 105.555 61.38 105.406L66.8955 103.453L68.2783 108.731Z"/><defs><filter id="filter0_i_1684_1095" width="89" height="127" x="50" y="77" color-interpolation-filters="sRGB" filterUnits="userSpaceOnUse"><feFlood flood-opacity="0" result="BackgroundImageFix"/><feBlend in="SourceGraphic" in2="BackgroundImageFix" mode="normal" result="shape"/><feColorMatrix in="SourceAlpha" result="hardAlpha" type="matrix" values="0 0 0 0 0 0 0 0 0 0 0 0 0 0 0 0 0 0 127 0"/><feOffset dx="-3" dy="-1"/><feGaussianBlur stdDeviation="4.5"/><feComposite in2="hardAlpha" k2="-1" k3="1" operator="arithmetic"/><feColorMatrix type="matrix" values="0 0 0 0 0.726042 0 0 0 0 0.805502 0 0 0 0 0.85 0 0 0 0.55 0"/><feBlend in2="shape" mode="normal" result="effect1_innerShadow_1684_1095"/></filter><linearGradient id="paint0_linear_1684_1095" x1="38" x2="71" y1="-101.5" y2="162" gradientUnits="userSpaceOnUse"><stop stop-color="#E1EBF5"/><stop offset=".657" stop-color="#D4DEE9"/><stop offset="1" stop-color="#ADBCCD"/></linearGradient><radialGradient id="paint1_radial_1684_1095" cx="0" cy="0" r="1" gradientTransform="translate(118.5 144.5) rotate(90) scale(5.5 7.5)" gradientUnits="userSpaceOnUse"><stop stop-color="#DDAFA2"/><stop offset="1" stop-color="#DDAFA2" stop-opacity="0"/></radialGradient><radialGradient id="paint2_radial_1684_1095" cx="0" cy="0" r="1" gradientTransform="translate(65.5 147.5) rotate(90) scale(5.5 7.5)" gradientUnits="userSpaceOnUse"><stop stop-color="#DDAFA2"/><stop offset="1" stop-color="#DDAFA2" stop-opacity="0"/></radialGradient></defs></svg>