<svg width="192" height="192" viewBox="0 0 192 192" fill="none" xmlns="http://www.w3.org/2000/svg">
<mask id="mask0_1841_1428" style="mask-type:alpha" maskUnits="userSpaceOnUse" x="19" y="19" width="154" height="154">
<path d="M19 79.8C19 58.518 19 47.877 23.1418 39.7484C26.7849 32.5982 32.5982 26.7849 39.7484 23.1418C47.877 19 58.518 19 79.8 19H112.2C133.482 19 144.123 19 152.252 23.1418C159.402 26.7849 165.215 32.5982 168.858 39.7484C173 47.877 173 58.518 173 79.8V112.2C173 133.482 173 144.123 168.858 152.252C165.215 159.402 159.402 165.215 152.252 168.858C144.123 173 133.482 173 112.2 173H79.8C58.518 173 47.877 173 39.7484 168.858C32.5982 165.215 26.7849 159.402 23.1418 152.252C19 144.123 19 133.482 19 112.2V79.8Z" fill="#EFF3F5"/>
</mask>
<g mask="url(#mask0_1841_1428)">
<path d="M19 79.8C19 58.518 19 47.877 23.1418 39.7484C26.7849 32.5982 32.5982 26.7849 39.7484 23.1418C47.877 19 58.518 19 79.8 19H112.2C133.482 19 144.123 19 152.252 23.1418C159.402 26.7849 165.215 32.5982 168.858 39.7484C173 47.877 173 58.518 173 79.8V112.2C173 133.482 173 144.123 168.858 152.252C165.215 159.402 159.402 165.215 152.252 168.858C144.123 173 133.482 173 112.2 173H79.8C58.518 173 47.877 173 39.7484 168.858C32.5982 165.215 26.7849 159.402 23.1418 152.252C19 144.123 19 133.482 19 112.2V79.8Z" fill="#EDE7D9"/>
<path fill-rule="evenodd" clip-rule="evenodd" d="M127.99 97.9398C131.007 88.8006 124.259 78.3704 114.519 77.1192C106.72 76.1172 100.141 81.5391 99.5954 89.4188L98.0024 112.423C97.3389 112.409 96.6662 112.402 95.9841 112.402C94.6904 112.402 93.4304 112.428 92.2032 112.478L90.8253 108.052L83.9507 92.8792C80.3203 84.8668 69.562 81.7353 61.9885 86.4865C54.7754 91.0116 53.9914 100.516 60.3391 106.482L66.8158 112.569C68.269 113.935 69.4365 115.528 70.2571 117.265C54.3526 124.823 49.5623 140.409 49.5623 158.41C49.5623 183.819 59.1074 204.417 95.9841 204.417C132.861 204.417 142.406 183.819 142.406 158.41C142.406 140.376 137.598 124.766 121.624 117.223L127.99 97.9398Z" fill="#202020"/>
<path d="M88.3085 137.032C84.5666 137.203 83.196 134.107 83.0185 130.22C82.841 126.332 83.9238 123.125 87.6657 122.954C91.4076 122.783 92.7782 125.879 92.9557 129.766C93.1332 133.653 92.0505 136.861 88.3085 137.032Z" fill="url(#paint0_linear_1841_1428)"/>
<path d="M113.98 135.859C110.238 136.03 108.868 132.935 108.69 129.047C108.513 125.16 109.596 121.953 113.338 121.782C117.08 121.611 118.45 124.706 118.628 128.594C118.805 132.481 117.722 135.688 113.98 135.859Z" fill="url(#paint1_linear_1841_1428)"/>
<path d="M-4.76172 160.337C-4.76172 156.367 -1.54312 153.148 2.42722 153.148H189.272C193.242 153.148 196.461 156.367 196.461 160.337V200.401C196.461 204.371 193.242 207.59 189.272 207.59H2.42721C-1.54313 207.59 -4.76172 204.371 -4.76172 200.401V160.337Z" fill="#B56135"/>
<path d="M89.8594 156.307C89.8594 162.763 84.7421 164.879 78.4297 164.879C72.1172 164.879 67 162.763 67 156.307C67 149.851 72.1172 147.734 78.4297 147.734C84.7421 147.734 89.8594 149.851 89.8594 156.307Z" fill="#E8C35D"/>
<path d="M138.41 155.705C138.41 162.161 133.36 164.277 127.131 164.277C120.901 164.277 115.852 162.161 115.852 155.705C115.852 149.249 120.901 147.133 127.131 147.133C133.36 147.133 138.41 149.249 138.41 155.705Z" fill="#E8C35D"/>
<path d="M-1.2583 59.8066L25.6217 56.602L39.2589 170.991L12.379 174.196L-1.2583 59.8066Z" fill="#FFB237"/>
<path d="M-1.2583 59.8061L25.6217 56.6016L32.6093 115.213C17.7639 116.983 4.29456 106.383 2.52472 91.5381L-1.2583 59.8061Z" fill="#ED8103"/>
<path d="M193.365 59.8066L166.485 56.602L152.848 170.991L179.727 174.196L193.365 59.8066Z" fill="#FFB237"/>
<path d="M193.365 59.8061L166.485 56.6016L159.497 115.213C174.343 116.983 187.812 106.383 189.582 91.5381L193.365 59.8061Z" fill="#ED8103"/>
<path d="M167.998 1.37368C166.139 -6.46525 159.138 -12 151.081 -12C140.836 -12 132.812 -3.18617 133.771 7.01392L138.337 55.5607C139.208 64.8322 146.992 71.918 156.304 71.918H161.902C173.553 71.918 182.151 61.0424 179.462 49.7061L167.998 1.37368Z" fill="#0098A1"/>
<path d="M23.7013 1.37368C25.5606 -6.46525 32.5617 -12 40.6181 -12C50.8632 -12 58.8871 -3.18617 57.9279 7.01392L53.3628 55.5607C52.4909 64.8322 44.7076 71.918 35.3952 71.918H29.797C18.1461 71.918 9.54842 61.0424 12.2373 49.7061L23.7013 1.37368Z" fill="#53DEE9"/>
<path d="M133.522 4.35728C132.65 -4.91427 124.867 -12 115.554 -12H113.897C103.93 -12 95.8499 -3.92014 95.8499 6.04687V53.8711C95.8499 63.8381 103.93 71.918 113.897 71.918H120.051C130.686 71.918 139.015 62.7692 138.019 52.1815L133.522 4.35728Z" fill="#53DEE9"/>
<path d="M58.1784 4.35728C59.0502 -4.91426 66.8335 -12 76.146 -12H77.8035C87.7705 -12 95.8503 -3.92014 95.8503 6.04687V53.8711C95.8503 63.8381 87.7705 71.918 77.8035 71.918H71.6488C61.0144 71.918 52.6856 62.7692 53.6812 52.1815L58.1784 4.35728Z" fill="#0098A1"/>
<rect x="96.2539" y="94.5077" width="16.6116" height="16.6116" transform="rotate(45 96.2539 94.5077)" fill="url(#paint2_linear_1841_1428)"/>
<g filter="url(#filter0_d_1841_1428)">
<rect x="96.2539" y="100.746" width="7.78916" height="7.78916" transform="rotate(45 96.2539 100.746)" fill="#FFE5B5"/>
</g>
<g filter="url(#filter1_ddd_1841_1428)">
<path fill-rule="evenodd" clip-rule="evenodd" d="M43.0066 134.615L44.9934 134.385L46.3913 146.5H62V148.5H44.6088L43.0066 134.615Z" fill="#FFDB5E"/>
</g>
<g filter="url(#filter2_ddd_1841_1428)">
<path fill-rule="evenodd" clip-rule="evenodd" d="M152.993 134.615L151.007 134.385L149.609 146.5H134V148.5H151.391L152.993 134.615Z" fill="#FFDB5E"/>
</g>
<g filter="url(#filter3_ddd_1841_1428)">
<path fill-rule="evenodd" clip-rule="evenodd" d="M146.5 75.5H158.66L154.989 100.147L153.011 99.8527L156.34 77.5H146.5V75.5Z" fill="#FFDB5E"/>
</g>
<g filter="url(#filter4_ddd_1841_1428)">
<path fill-rule="evenodd" clip-rule="evenodd" d="M47 75.5H34.84L38.5109 100.147L40.4891 99.8527L37.16 77.5H47V75.5Z" fill="#FFDB5E"/>
</g>
<g opacity="0.3" filter="url(#filter5_d_1841_1428)">
<line x1="143.614" y1="143.386" x2="128.386" y2="143.386" stroke="#F9D38B" stroke-width="0.772019" stroke-linecap="square" stroke-linejoin="round" stroke-dasharray="0.26 5.15"/>
</g>
<g opacity="0.3" filter="url(#filter6_d_1841_1428)">
<line x1="65.614" y1="143.386" x2="50.386" y2="143.386" stroke="#F9D38B" stroke-width="0.772019" stroke-linecap="square" stroke-linejoin="round" stroke-dasharray="0.26 5.15"/>
</g>
<g opacity="0.3" filter="url(#filter7_d_1841_1428)">
<line x1="65.614" y1="89.386" x2="50.386" y2="89.386" stroke="#F9D38B" stroke-width="0.772019" stroke-linecap="square" stroke-linejoin="round" stroke-dasharray="0.26 5.15"/>
</g>
<g opacity="0.3" filter="url(#filter8_d_1841_1428)">
<line x1="139.614" y1="89.386" x2="124.386" y2="89.386" stroke="#F9D38B" stroke-width="0.772019" stroke-linecap="square" stroke-linejoin="round" stroke-dasharray="0.26 5.15"/>
</g>
</g>
<defs>
<filter id="filter0_d_1841_1428" x="85.0847" y="95.0846" width="22.3384" height="22.3385" filterUnits="userSpaceOnUse" color-interpolation-filters="sRGB">
<feFlood flood-opacity="0" result="BackgroundImageFix"/>
<feColorMatrix in="SourceAlpha" type="matrix" values="0 0 0 0 0 0 0 0 0 0 0 0 0 0 0 0 0 0 127 0" result="hardAlpha"/>
<feOffset/>
<feGaussianBlur stdDeviation="2.83073"/>
<feComposite in2="hardAlpha" operator="out"/>
<feColorMatrix type="matrix" values="0 0 0 0 1 0 0 0 0 0.87193 0 0 0 0 0.391667 0 0 0 0.55 0"/>
<feBlend mode="normal" in2="BackgroundImageFix" result="effect1_dropShadow_1841_1428"/>
<feBlend mode="normal" in="SourceGraphic" in2="effect1_dropShadow_1841_1428" result="shape"/>
</filter>
<filter id="filter1_ddd_1841_1428" x="28.8529" y="121.261" width="47.3008" height="42.422" filterUnits="userSpaceOnUse" color-interpolation-filters="sRGB">
<feFlood flood-opacity="0" result="BackgroundImageFix"/>
<feColorMatrix in="SourceAlpha" type="matrix" values="0 0 0 0 0 0 0 0 0 0 0 0 0 0 0 0 0 0 127 0" result="hardAlpha"/>
<feOffset/>
<feGaussianBlur stdDeviation="1.41537"/>
<feComposite in2="hardAlpha" operator="out"/>
<feColorMatrix type="matrix" values="0 0 0 0 0.952941 0 0 0 0 0.921569 0 0 0 0 0.803922 0 0 0 0.88 0"/>
<feBlend mode="normal" in2="BackgroundImageFix" result="effect1_dropShadow_1841_1428"/>
<feColorMatrix in="SourceAlpha" type="matrix" values="0 0 0 0 0 0 0 0 0 0 0 0 0 0 0 0 0 0 127 0" result="hardAlpha"/>
<feOffset/>
<feGaussianBlur stdDeviation="4.2461"/>
<feComposite in2="hardAlpha" operator="out"/>
<feColorMatrix type="matrix" values="0 0 0 0 0.979167 0 0 0 0 0.817604 0 0 0 0 0.244792 0 0 0 0.55 0"/>
<feBlend mode="normal" in2="effect1_dropShadow_1841_1428" result="effect2_dropShadow_1841_1428"/>
<feColorMatrix in="SourceAlpha" type="matrix" values="0 0 0 0 0 0 0 0 0 0 0 0 0 0 0 0 0 0 127 0" result="hardAlpha"/>
<feOffset dy="1.02936"/>
<feGaussianBlur stdDeviation="7.07684"/>
<feComposite in2="hardAlpha" operator="out"/>
<feColorMatrix type="matrix" values="0 0 0 0 1 0 0 0 0 1 0 0 0 0 1 0 0 0 0.88 0"/>
<feBlend mode="normal" in2="effect2_dropShadow_1841_1428" result="effect3_dropShadow_1841_1428"/>
<feBlend mode="normal" in="SourceGraphic" in2="effect3_dropShadow_1841_1428" result="shape"/>
</filter>
<filter id="filter2_ddd_1841_1428" x="119.846" y="121.261" width="47.3008" height="42.422" filterUnits="userSpaceOnUse" color-interpolation-filters="sRGB">
<feFlood flood-opacity="0" result="BackgroundImageFix"/>
<feColorMatrix in="SourceAlpha" type="matrix" values="0 0 0 0 0 0 0 0 0 0 0 0 0 0 0 0 0 0 127 0" result="hardAlpha"/>
<feOffset/>
<feGaussianBlur stdDeviation="1.41537"/>
<feComposite in2="hardAlpha" operator="out"/>
<feColorMatrix type="matrix" values="0 0 0 0 0.952941 0 0 0 0 0.921569 0 0 0 0 0.803922 0 0 0 0.88 0"/>
<feBlend mode="normal" in2="BackgroundImageFix" result="effect1_dropShadow_1841_1428"/>
<feColorMatrix in="SourceAlpha" type="matrix" values="0 0 0 0 0 0 0 0 0 0 0 0 0 0 0 0 0 0 127 0" result="hardAlpha"/>
<feOffset/>
<feGaussianBlur stdDeviation="4.2461"/>
<feComposite in2="hardAlpha" operator="out"/>
<feColorMatrix type="matrix" values="0 0 0 0 0.979167 0 0 0 0 0.817604 0 0 0 0 0.244792 0 0 0 0.55 0"/>
<feBlend mode="normal" in2="effect1_dropShadow_1841_1428" result="effect2_dropShadow_1841_1428"/>
<feColorMatrix in="SourceAlpha" type="matrix" values="0 0 0 0 0 0 0 0 0 0 0 0 0 0 0 0 0 0 127 0" result="hardAlpha"/>
<feOffset dy="1.02936"/>
<feGaussianBlur stdDeviation="7.07684"/>
<feComposite in2="hardAlpha" operator="out"/>
<feColorMatrix type="matrix" values="0 0 0 0 1 0 0 0 0 1 0 0 0 0 1 0 0 0 0.88 0"/>
<feBlend mode="normal" in2="effect2_dropShadow_1841_1428" result="effect3_dropShadow_1841_1428"/>
<feBlend mode="normal" in="SourceGraphic" in2="effect3_dropShadow_1841_1428" result="shape"/>
</filter>
<filter id="filter3_ddd_1841_1428" x="132.346" y="62.3757" width="40.4673" height="52.9547" filterUnits="userSpaceOnUse" color-interpolation-filters="sRGB">
<feFlood flood-opacity="0" result="BackgroundImageFix"/>
<feColorMatrix in="SourceAlpha" type="matrix" values="0 0 0 0 0 0 0 0 0 0 0 0 0 0 0 0 0 0 127 0" result="hardAlpha"/>
<feOffset/>
<feGaussianBlur stdDeviation="1.41537"/>
<feComposite in2="hardAlpha" operator="out"/>
<feColorMatrix type="matrix" values="0 0 0 0 0.952941 0 0 0 0 0.921569 0 0 0 0 0.803922 0 0 0 0.88 0"/>
<feBlend mode="normal" in2="BackgroundImageFix" result="effect1_dropShadow_1841_1428"/>
<feColorMatrix in="SourceAlpha" type="matrix" values="0 0 0 0 0 0 0 0 0 0 0 0 0 0 0 0 0 0 127 0" result="hardAlpha"/>
<feOffset/>
<feGaussianBlur stdDeviation="4.2461"/>
<feComposite in2="hardAlpha" operator="out"/>
<feColorMatrix type="matrix" values="0 0 0 0 0.979167 0 0 0 0 0.817604 0 0 0 0 0.244792 0 0 0 0.55 0"/>
<feBlend mode="normal" in2="effect1_dropShadow_1841_1428" result="effect2_dropShadow_1841_1428"/>
<feColorMatrix in="SourceAlpha" type="matrix" values="0 0 0 0 0 0 0 0 0 0 0 0 0 0 0 0 0 0 127 0" result="hardAlpha"/>
<feOffset dy="1.02936"/>
<feGaussianBlur stdDeviation="7.07684"/>
<feComposite in2="hardAlpha" operator="out"/>
<feColorMatrix type="matrix" values="0 0 0 0 1 0 0 0 0 1 0 0 0 0 1 0 0 0 0.88 0"/>
<feBlend mode="normal" in2="effect2_dropShadow_1841_1428" result="effect3_dropShadow_1841_1428"/>
<feBlend mode="normal" in="SourceGraphic" in2="effect3_dropShadow_1841_1428" result="shape"/>
</filter>
<filter id="filter4_ddd_1841_1428" x="20.6864" y="62.3757" width="40.4673" height="52.9547" filterUnits="userSpaceOnUse" color-interpolation-filters="sRGB">
<feFlood flood-opacity="0" result="BackgroundImageFix"/>
<feColorMatrix in="SourceAlpha" type="matrix" values="0 0 0 0 0 0 0 0 0 0 0 0 0 0 0 0 0 0 127 0" result="hardAlpha"/>
<feOffset/>
<feGaussianBlur stdDeviation="1.41537"/>
<feComposite in2="hardAlpha" operator="out"/>
<feColorMatrix type="matrix" values="0 0 0 0 0.952941 0 0 0 0 0.921569 0 0 0 0 0.803922 0 0 0 0.88 0"/>
<feBlend mode="normal" in2="BackgroundImageFix" result="effect1_dropShadow_1841_1428"/>
<feColorMatrix in="SourceAlpha" type="matrix" values="0 0 0 0 0 0 0 0 0 0 0 0 0 0 0 0 0 0 127 0" result="hardAlpha"/>
<feOffset/>
<feGaussianBlur stdDeviation="4.2461"/>
<feComposite in2="hardAlpha" operator="out"/>
<feColorMatrix type="matrix" values="0 0 0 0 0.979167 0 0 0 0 0.817604 0 0 0 0 0.244792 0 0 0 0.55 0"/>
<feBlend mode="normal" in2="effect1_dropShadow_1841_1428" result="effect2_dropShadow_1841_1428"/>
<feColorMatrix in="SourceAlpha" type="matrix" values="0 0 0 0 0 0 0 0 0 0 0 0 0 0 0 0 0 0 127 0" result="hardAlpha"/>
<feOffset dy="1.02936"/>
<feGaussianBlur stdDeviation="7.07684"/>
<feComposite in2="hardAlpha" operator="out"/>
<feColorMatrix type="matrix" values="0 0 0 0 1 0 0 0 0 1 0 0 0 0 1 0 0 0 0.88 0"/>
<feBlend mode="normal" in2="effect2_dropShadow_1841_1428" result="effect3_dropShadow_1841_1428"/>
<feBlend mode="normal" in="SourceGraphic" in2="effect3_dropShadow_1841_1428" result="shape"/>
</filter>
<filter id="filter5_d_1841_1428" x="121.953" y="136.953" width="28.0949" height="12.8669" filterUnits="userSpaceOnUse" color-interpolation-filters="sRGB">
<feFlood flood-opacity="0" result="BackgroundImageFix"/>
<feColorMatrix in="SourceAlpha" type="matrix" values="0 0 0 0 0 0 0 0 0 0 0 0 0 0 0 0 0 0 127 0" result="hardAlpha"/>
<feOffset/>
<feGaussianBlur stdDeviation="2.83073"/>
<feComposite in2="hardAlpha" operator="out"/>
<feColorMatrix type="matrix" values="0 0 0 0 0.952941 0 0 0 0 0.921569 0 0 0 0 0.803922 0 0 0 0.55 0"/>
<feBlend mode="normal" in2="BackgroundImageFix" result="effect1_dropShadow_1841_1428"/>
<feBlend mode="normal" in="SourceGraphic" in2="effect1_dropShadow_1841_1428" result="shape"/>
</filter>
<filter id="filter6_d_1841_1428" x="43.9525" y="136.953" width="28.0949" height="12.8669" filterUnits="userSpaceOnUse" color-interpolation-filters="sRGB">
<feFlood flood-opacity="0" result="BackgroundImageFix"/>
<feColorMatrix in="SourceAlpha" type="matrix" values="0 0 0 0 0 0 0 0 0 0 0 0 0 0 0 0 0 0 127 0" result="hardAlpha"/>
<feOffset/>
<feGaussianBlur stdDeviation="2.83073"/>
<feComposite in2="hardAlpha" operator="out"/>
<feColorMatrix type="matrix" values="0 0 0 0 0.952941 0 0 0 0 0.921569 0 0 0 0 0.803922 0 0 0 0.55 0"/>
<feBlend mode="normal" in2="BackgroundImageFix" result="effect1_dropShadow_1841_1428"/>
<feBlend mode="normal" in="SourceGraphic" in2="effect1_dropShadow_1841_1428" result="shape"/>
</filter>
<filter id="filter7_d_1841_1428" x="43.9525" y="82.9525" width="28.0949" height="12.8669" filterUnits="userSpaceOnUse" color-interpolation-filters="sRGB">
<feFlood flood-opacity="0" result="BackgroundImageFix"/>
<feColorMatrix in="SourceAlpha" type="matrix" values="0 0 0 0 0 0 0 0 0 0 0 0 0 0 0 0 0 0 127 0" result="hardAlpha"/>
<feOffset/>
<feGaussianBlur stdDeviation="2.83073"/>
<feComposite in2="hardAlpha" operator="out"/>
<feColorMatrix type="matrix" values="0 0 0 0 0.952941 0 0 0 0 0.921569 0 0 0 0 0.803922 0 0 0 0.55 0"/>
<feBlend mode="normal" in2="BackgroundImageFix" result="effect1_dropShadow_1841_1428"/>
<feBlend mode="normal" in="SourceGraphic" in2="effect1_dropShadow_1841_1428" result="shape"/>
</filter>
<filter id="filter8_d_1841_1428" x="117.953" y="82.9525" width="28.0949" height="12.8669" filterUnits="userSpaceOnUse" color-interpolation-filters="sRGB">
<feFlood flood-opacity="0" result="BackgroundImageFix"/>
<feColorMatrix in="SourceAlpha" type="matrix" values="0 0 0 0 0 0 0 0 0 0 0 0 0 0 0 0 0 0 127 0" result="hardAlpha"/>
<feOffset/>
<feGaussianBlur stdDeviation="2.83073"/>
<feComposite in2="hardAlpha" operator="out"/>
<feColorMatrix type="matrix" values="0 0 0 0 0.952941 0 0 0 0 0.921569 0 0 0 0 0.803922 0 0 0 0.55 0"/>
<feBlend mode="normal" in2="BackgroundImageFix" result="effect1_dropShadow_1841_1428"/>
<feBlend mode="normal" in="SourceGraphic" in2="effect1_dropShadow_1841_1428" result="shape"/>
</filter>
<linearGradient id="paint0_linear_1841_1428" x1="83.0002" y1="120.646" x2="97.7885" y2="134.986" gradientUnits="userSpaceOnUse">
<stop stop-color="#FFE8AB"/>
<stop offset="1" stop-color="#FFBE1C"/>
</linearGradient>
<linearGradient id="paint1_linear_1841_1428" x1="108.672" y1="119.473" x2="123.46" y2="133.813" gradientUnits="userSpaceOnUse">
<stop stop-color="#FFE8AB"/>
<stop offset="1" stop-color="#FFBE1C"/>
</linearGradient>
<linearGradient id="paint2_linear_1841_1428" x1="91.4727" y1="87.9643" x2="110.565" y2="109.177" gradientUnits="userSpaceOnUse">
<stop stop-color="#F2D465"/>
<stop offset="0.929292" stop-color="#B57537"/>
</linearGradient>
</defs>
</svg>
