<svg xmlns="http://www.w3.org/2000/svg" xmlns:v="https://vecta.io/nano" xmlns:xlink="https://www.w3.org/1999/xlink" width="192" height="192" fill="none"><mask id="A" width="154" height="154" x="19" y="19" mask-type="alpha" maskUnits="userSpaceOnUse"><use fill="#c4c4c4" xlink:href="#C"/></mask><g mask="url(#A)"><use fill="#eff3f5" xlink:href="#C"/><path fill="#fad03e" d="M63.263 126.507c.358-5.052 4.836-9.743 8.603-6.359.332.299.65.626.95.983l10.26 12.196c.014.016.005.041-.016.046s-.029.026-.018.043c1.936 2.765 3.071 6.246 3.071 10.269 0 10.502-7.732 17.315-17.27 17.315s-17.27-6.813-17.27-17.315a19.65 19.65 0 0 1 .432-4.157c.004-.017-.011-.031-.027-.028s-.032-.013-.027-.029l2.416-7.844c.658-2.136 3.645-2.236 4.445-.149l.21.548c.554 1.448 2.468 1.752 3.445.548a2.01 2.01 0 0 0 .445-1.126l.35-4.941z"/><path fill="#fad03e" d="M49.85 126.507c-.358-5.052-4.836-9.743-8.603-6.359a9.85 9.85 0 0 0-.95.983l-10.26 12.196c-.014.016-.005.041.016.046s.029.026.018.043C28.135 136.181 27 139.662 27 143.685 27 154.187 34.732 161 44.27 161s17.27-6.813 17.27-17.315a19.65 19.65 0 0 0-.432-4.157c-.003-.017.011-.031.027-.028s.032-.013.027-.029l-2.416-7.844c-.658-2.136-3.645-2.236-4.445-.149l-.21.548c-.554 1.448-2.468 1.752-3.445.548a2.01 2.01 0 0 1-.445-1.126l-.35-4.941zm94.733-.984c-1.654-4.787-7.193-8.16-9.956-3.916-.243.375-.466.773-.663 1.196l-6.754 14.436c-.009.019.006.041.027.039s.035.019.028.038c-1.154 3.171-1.349 6.828-.308 10.714 2.718 10.144 11.95 14.723 21.163 12.255s14.918-11.05 12.2-21.195a19.67 19.67 0 0 0-1.494-3.904c-.007-.015.003-.032.019-.033s.027-.021.018-.036l-4.364-6.95c-1.188-1.894-4.1-1.217-4.332 1.006l-.061.584c-.161 1.542-1.93 2.331-3.185 1.421a2.02 2.02 0 0 1-.721-.973l-1.617-4.682z"/><path fill="#ff564f" fill-rule="evenodd" d="M123.451 97.323c2.784-8.433-3.443-18.058-12.431-19.213-7.197-.925-13.267 4.079-13.771 11.35l-.895 12.931-4.413-9.739c-3.35-7.394-13.278-10.283-20.266-5.899-6.656 4.176-7.379 12.946-1.522 18.451l5.763 5.417a16.31 16.31 0 0 1 2.264 2.63c-20.502 6.209-25.648 22.668-24.774 41.825 1.069 23.422 10.735 42.008 44.729 40.456s41.925-20.942 40.855-44.364c-.761-16.682-5.883-30.91-21.049-37.157l5.51-16.688z"/><path fill="#fff" d="M83.811 133.394c-3.453.158-4.718-2.699-4.881-6.286s.835-6.547 4.288-6.704 4.718 2.698 4.882 6.286-.835 6.546-4.288 6.704zm23.689-1.081c-3.453.158-4.718-2.699-4.882-6.286s.836-6.547 4.289-6.704 4.717 2.698 4.881 6.285-.835 6.547-4.288 6.705z"/><path fill="#ffb237" d="M-4.762 160.337a7.19 7.19 0 0 1 7.189-7.189h186.845a7.19 7.19 0 0 1 7.189 7.189v40.064a7.19 7.19 0 0 1-7.189 7.189H2.427a7.19 7.19 0 0 1-7.189-7.189v-40.064z"/><path fill="#ed8103" d="M89.859 156.307c0 6.456-5.117 8.572-11.43 8.572S67 162.763 67 156.307s5.117-8.573 11.43-8.573 11.43 2.117 11.43 8.573zm34.7-.602c0 6.456-5.05 8.572-11.28 8.572S102 162.161 102 155.705s5.05-8.572 11.279-8.572 11.28 2.116 11.28 8.572z"/><path fill="#ffb237" d="M-1.259 59.807l26.88-3.205 13.637 114.389-26.88 3.205L-1.259 59.807z"/><path fill="#ed8103" d="M-1.259 59.807l26.88-3.205 6.988 58.612c-14.845 1.77-28.315-8.83-30.085-23.675l-3.783-31.732z"/><path fill="#ffb237" d="M193.365 59.807l-26.88-3.205-13.637 114.389 26.88 3.205 13.637-114.389z"/><path fill="#ed8103" d="M193.365 59.807l-26.88-3.205-6.987 58.612c14.845 1.77 28.314-8.83 30.084-23.675l3.783-31.732z"/><path fill="#0098a1" d="M167.998 1.374A17.39 17.39 0 0 0 151.081-12c-10.245 0-18.269 8.814-17.31 19.014l4.565 48.547a18.05 18.05 0 0 0 17.968 16.357h5.598c11.651 0 20.249-10.876 17.56-22.212L167.998 1.374z"/><path fill="#53dee9" d="M23.701 1.374A17.39 17.39 0 0 1 40.618-12c10.245 0 18.269 8.814 17.31 19.014l-4.565 48.547a18.05 18.05 0 0 1-17.968 16.357h-5.598c-11.651 0-20.249-10.876-17.56-22.212L23.701 1.374zm109.82 2.983A18.05 18.05 0 0 0 115.553-12h-1.657A18.05 18.05 0 0 0 95.849 6.047v47.824a18.05 18.05 0 0 0 18.047 18.047h6.155c10.634 0 18.963-9.149 17.967-19.737l-4.497-47.824z"/><path fill="#0098a1" d="M58.178 4.357A18.05 18.05 0 0 1 76.145-12h1.657A18.05 18.05 0 0 1 95.85 6.047v47.824a18.05 18.05 0 0 1-18.047 18.047h-6.155c-10.634 0-18.963-9.149-17.968-19.737l4.497-47.824z"/></g><defs><path id="C" d="M19 79.8c0-21.282 0-31.923 4.142-40.052a38 38 0 0 1 16.607-16.607C47.877 19 58.518 19 79.8 19h32.4c21.282 0 31.923 0 40.052 4.142a38 38 0 0 1 16.606 16.607C173 47.877 173 58.518 173 79.8v32.4c0 21.282 0 31.923-4.142 40.052-3.643 7.15-9.456 12.963-16.606 16.606C144.123 173 133.482 173 112.2 173H79.8c-21.282 0-31.923 0-40.052-4.142a38 38 0 0 1-16.607-16.606C19 144.123 19 133.482 19 112.2V79.8z"/></defs></svg>