<svg xmlns="http://www.w3.org/2000/svg" width="192" height="192" fill="none" viewBox="0 0 192 192"><g clip-path="url(#clip0)"><rect width="154" height="154" x="19" y="19" fill="#EFF4F5" rx="38.5"/><path fill="#D1884F" d="M70.0513 100.409C67.4943 92.6637 73.2131 83.8247 81.4672 82.7644C88.0767 81.9153 93.6517 86.51 94.1141 93.1876L96.4967 127.595C96.8443 132.614 92.7154 137.227 87.7587 137.358C84.4555 137.444 81.6274 135.471 80.6017 132.365L70.0513 100.409Z"/><path fill="#D1884F" d="M123.302 100.409C125.859 92.6637 120.141 83.8247 111.887 82.7644C105.277 81.9153 99.702 86.51 99.2396 93.1876L96.8571 127.595C96.5095 132.614 100.638 137.227 105.595 137.358C108.898 137.444 111.726 135.471 112.752 132.365L123.302 100.409Z"/><path fill="#D1884F" d="M137.391 150.734C138.393 172.679 130.703 190.857 97.8552 192.357C65.0074 193.857 55.6927 176.455 54.6906 154.511C53.6886 132.566 61.3785 114.388 94.2264 112.888C127.074 111.388 136.389 128.79 137.391 150.734Z"/><path fill="#633001" d="M53.1386 141.737C53.0655 139.299 55.1713 137.364 57.5936 137.643L95.0356 141.947C95.3442 141.982 95.6558 141.982 95.9642 141.945L133.424 137.495C135.692 137.226 137.725 138.907 137.886 141.186L138.773 153.781C138.896 155.52 137.516 156.996 135.773 156.992L56.4932 156.784C54.8744 156.779 53.5509 155.492 53.5024 153.873L53.1386 141.737Z"/><path fill="#E9EAEB" fill-rule="evenodd" d="M84 143C84 140.239 86.2386 138 89 138H101C103.761 138 106 140.239 106 143V156C106 158.761 103.761 161 101 161H89C86.2386 161 84 158.761 84 156V143ZM90 144V155H100V144H90Z" clip-rule="evenodd"/><path fill="#E9EAEB" fill-rule="evenodd" d="M84.5 149C84.5 148.172 85.1716 147.5 86 147.5H95C95.8284 147.5 96.5 148.172 96.5 149C96.5 149.828 95.8284 150.5 95 150.5H86C85.1716 150.5 84.5 149.828 84.5 149Z" clip-rule="evenodd"/><rect width="201.223" height="54.441" x="-4.762" y="153.148" fill="#FFB237" rx="7.189"/><path fill="#D1884F" d="M73.8594 156.307C73.8594 162.763 68.7421 164.879 62.4297 164.879C56.1172 164.879 51 162.763 51 156.307C51 149.851 56.1172 147.734 62.4297 147.734C68.7421 147.734 73.8594 149.851 73.8594 156.307Z"/><path fill="#D1884F" d="M142.559 155.705C142.559 162.161 137.509 164.277 131.279 164.277C125.05 164.277 120 162.161 120 155.705C120 149.249 125.05 147.133 131.279 147.133C137.509 147.133 142.559 149.249 142.559 155.705Z"/><rect width="27.07" height="115.199" x="-1.259" y="59.806" fill="#FFB237" transform="rotate(-6.79861 -1.25854 59.8064)"/><path fill="#ED8103" d="M-1.25854 59.8064L25.6214 56.6018L32.609 115.214C17.7636 116.984 4.29432 106.384 2.52448 91.5383L-1.25854 59.8064Z"/><rect width="27.07" height="115.199" fill="#FFB237" transform="matrix(-0.992968 -0.11838 -0.11838 0.992968 193.365 59.8064)"/><path fill="#ED8103" d="M193.365 59.8064L166.485 56.6018L159.497 115.214C174.343 116.984 187.812 106.384 189.582 91.5383L193.365 59.8064Z"/><path fill="#0098A1" d="M164.826 4H131.983L138.337 71.5607C139.208 80.8322 146.992 87.918 156.304 87.918H161.902C173.553 87.918 182.151 77.0424 179.462 65.7061L164.826 4Z"/><path fill="#53DEE9" d="M26.8733 4H59.7158L53.3627 71.5607C52.4908 80.8322 44.7075 87.918 35.3951 87.918H29.7969C18.146 87.918 9.54832 77.0424 12.2372 65.7061L26.8733 4Z"/><path fill="#53DEE9" d="M131.983 4H95.8492V69.8711C95.8492 79.8381 103.929 87.918 113.896 87.918H120.051C130.685 87.918 139.014 78.7692 138.018 68.1815L131.983 4Z"/><path fill="#0098A1" d="M59.7162 4H95.85V69.8711C95.85 79.8381 87.7702 87.918 77.8032 87.918H71.6485C61.0141 87.918 52.6853 78.7692 53.6809 68.1815L59.7162 4Z"/><path fill="#0F1837" d="M88.3371 132.567C85.4449 132.699 84.3855 130.307 84.2483 127.302C84.1111 124.297 84.948 121.818 87.8403 121.686C90.7325 121.554 91.7919 123.947 91.9291 126.951C92.0663 129.956 91.2294 132.435 88.3371 132.567Z"/><path fill="#0F1837" d="M110.337 132.568C107.445 132.7 106.386 130.308 106.248 127.303C106.111 124.298 106.948 121.819 109.84 121.687C112.733 121.555 113.792 123.948 113.929 126.952C114.066 129.957 113.229 132.436 110.337 132.568Z"/></g><defs><clipPath id="clip0"><rect width="154" height="154" x="19" y="19" fill="#fff" rx="38.5"/></clipPath></defs></svg>