<svg xmlns="http://www.w3.org/2000/svg" xmlns:xlink="http://www.w3.org/1999/xlink" width="192" height="192" fill="none" xmlns:v="https://vecta.io/nano"><mask id="A" mask-type="alpha" maskUnits="userSpaceOnUse" x="19" y="19" width="154" height="154"><use xlink:href="#C" fill="#eff3f5"/></mask><g mask="url(#A)"><use xlink:href="#C" fill="#eff3f5"/><path d="M141.469 157.03c1.137 24.896-7.294 45.506-43.426 47.156s-46.407-18.106-47.544-43.002 7.294-45.507 43.427-47.157 46.407 18.106 47.543 43.003z" fill="#870c85"/><path d="M127.377 99.795c2.96-8.964-3.66-19.195-13.213-20.422-7.65-.983-14.103 4.335-14.638 12.064l-2.758 39.823c-.402 5.81 4.376 11.149 10.113 11.3 3.823.1 7.097-2.183 8.284-5.779l12.211-36.986zm-43.196-4.964c-3.561-7.859-14.113-10.93-21.542-6.27-7.075 4.438-7.844 13.761-1.618 19.612l6.353 5.971a15.33 15.33 0 0 1 3.429 4.719l5.317 11.506c2.611 5.651 10.2 7.863 15.586 4.543 3.555-2.191 5.121-6.238 3.914-10.114l-4.696-15.085-6.743-14.882z" fill="#870c85"/><path d="M82.818 138.138c-3.67.168-5.014-2.869-5.189-6.681s.888-6.959 4.558-7.127 5.015 2.868 5.189 6.681-.888 6.959-4.558 7.127zm25.179-1.15c-3.67.168-5.014-2.868-5.188-6.681s.888-6.959 4.558-7.127 5.014 2.869 5.188 6.682-.887 6.958-4.558 7.126z" fill="#fff"/><path d="M89.079 95.408a2.31 2.31 0 0 1 3.268 0l3.033 3.033c5.585 5.585 5.585 14.639 0 20.224l-6.301-6.301c-4.682-4.682-4.682-12.273 0-16.955z" fill="#4a9629"/><path d="M-4.762 160.337a7.19 7.19 0 0 1 7.189-7.189h186.845a7.19 7.19 0 0 1 7.189 7.189v40.064a7.19 7.19 0 0 1-7.189 7.189H2.427a7.19 7.19 0 0 1-7.189-7.189v-40.064z" fill="#ed8103"/><path d="M80.859 156.307c0 6.456-5.117 8.572-11.43 8.572S58 162.763 58 156.307s5.117-8.573 11.43-8.573 11.43 2.117 11.43 8.573zm52.7-.602c0 6.456-5.05 8.572-11.28 8.572S111 162.161 111 155.705s5.05-8.572 11.279-8.572 11.28 2.116 11.28 8.572z" fill="#cd5dcb"/><path d="M-1.259 59.807l26.88-3.205 13.637 114.389-26.88 3.205L-1.259 59.807z" fill="#ffb237"/><path d="M-1.259 59.807l26.88-3.205 6.988 58.612c-14.845 1.77-28.315-8.83-30.085-23.675l-3.783-31.732z" fill="#ed8103"/><path d="M193.365 59.807l-26.88-3.205-13.637 114.389 26.88 3.205 13.637-114.389z" fill="#ffb237"/><path d="M193.365 59.807l-26.88-3.205-6.987 58.612c14.845 1.77 28.314-8.83 30.084-23.675l3.783-31.732z" fill="#ed8103"/><path d="M164.826-12h-32.843l6.353 67.561a18.05 18.05 0 0 0 17.968 16.357h5.598c11.651 0 20.249-10.876 17.56-22.212L164.826-12z" fill="#0098a1"/><path d="M26.873-12h32.843l-6.353 67.561a18.05 18.05 0 0 1-17.968 16.357h-5.598c-11.651 0-20.249-10.876-17.56-22.212L26.873-12zm105.11 0H95.849v65.871a18.05 18.05 0 0 0 18.047 18.047h6.155c10.634 0 18.963-9.149 17.967-19.737L131.983-12z" fill="#53dee9"/><path d="M59.716-12H95.85v65.871a18.05 18.05 0 0 1-18.047 18.047h-6.155c-10.634 0-18.963-9.149-17.968-19.737L59.716-12z" fill="#0098a1"/><path d="M74 107.773c0-1.532 1.274-2.773 2.846-2.773h3.786C88.567 105 95 111.268 95 119h-9.478C79.159 119 74 113.973 74 107.773z" fill="#8bc10f"/><path d="M113 107.773c0-1.532-1.274-2.773-2.846-2.773h-3.786C98.433 105 92 111.268 92 119h9.477c6.364 0 11.523-5.027 11.523-11.227z" fill="#8bc10f"/></g><defs ><path id="C" d="M19 79.8c0-21.282 0-31.923 4.142-40.052a38 38 0 0 1 16.607-16.607C47.877 19 58.518 19 79.8 19h32.4c21.282 0 31.923 0 40.052 4.142a38 38 0 0 1 16.606 16.607C173 47.877 173 58.518 173 79.8v32.4c0 21.282 0 31.923-4.142 40.052-3.643 7.15-9.456 12.963-16.606 16.606C144.123 173 133.482 173 112.2 173H79.8c-21.282 0-31.923 0-40.052-4.142a38 38 0 0 1-16.607-16.606C19 144.123 19 133.482 19 112.2V79.8z"/></defs></svg>