<svg xmlns="http://www.w3.org/2000/svg" width="192" height="192" fill="none" viewBox="0 0 192 192"><mask id="mask0_1466" width="154" height="154" x="19" y="19" maskUnits="userSpaceOnUse" style="mask-type:alpha"><path fill="#C4C4C4" d="M19 79.8C19 58.518 19 47.877 23.1418 39.7484C26.7849 32.5982 32.5982 26.7849 39.7484 23.1418C47.877 19 58.518 19 79.8 19H112.2C133.482 19 144.123 19 152.252 23.1418C159.402 26.7849 165.215 32.5982 168.858 39.7484C173 47.877 173 58.518 173 79.8V112.2C173 133.482 173 144.123 168.858 152.252C165.215 159.402 159.402 165.215 152.252 168.858C144.123 173 133.482 173 112.2 173H79.8C58.518 173 47.877 173 39.7484 168.858C32.5982 165.215 26.7849 159.402 23.1418 152.252C19 144.123 19 133.482 19 112.2V79.8Z"/></mask><g mask="url(#mask0_1466)"><path fill="#EFF3F5" d="M19 79.8C19 58.518 19 47.877 23.1418 39.7484C26.7849 32.5982 32.5982 26.7849 39.7484 23.1418C47.877 19 58.518 19 79.8 19H112.2C133.482 19 144.123 19 152.252 23.1418C159.402 26.7849 165.215 32.5982 168.858 39.7484C173 47.877 173 58.518 173 79.8V112.2C173 133.482 173 144.123 168.858 152.252C165.215 159.402 159.402 165.215 152.252 168.858C144.123 173 133.482 173 112.2 173H79.8C58.518 173 47.877 173 39.7484 168.858C32.5982 165.215 26.7849 159.402 23.1418 152.252C19 144.123 19 133.482 19 112.2V79.8Z"/><path fill="url(#paint0_linear_1466)" fill-rule="evenodd" d="M80.7556 72.1292C88.5776 70.5902 96.5358 76.6308 97.0015 84.4606L97.8835 99.2874L97.5308 104.774C114.509 106.046 123.33 118.388 128.411 134.388C135.267 155.983 132.713 176.064 101.372 186.015C70.0319 195.965 56.3617 181.035 49.5055 159.441C43.776 141.395 44.6182 124.406 63.3394 113.502L62.0585 111.476C61.1238 109.997 59.8844 108.691 58.4087 107.629L51.975 103.001C45.6693 98.4647 45.257 89.9713 51.1075 85.1318C57.2503 80.0507 67.1255 81.5678 71.2669 88.229L77.4677 98.2027C77.2326 97.2433 76.8923 96.2991 76.4512 95.3867L73.0012 88.2514C69.62 81.2582 73.3058 73.595 80.7556 72.1292Z" clip-rule="evenodd"/><path fill="#fff" d="M78.6325 137.705C76.1985 138.066 75.0964 136.134 74.7213 133.606C74.3462 131.077 74.8401 128.909 77.2741 128.547C79.7082 128.186 80.8102 130.118 81.1853 132.647C81.5604 135.175 81.0666 137.344 78.6325 137.705Z"/><path fill="#fff" d="M99.4607 133.16C97.0266 133.521 95.9246 131.59 95.5495 129.061C95.1744 126.532 95.6683 124.364 98.1023 124.003C100.536 123.642 101.638 125.573 102.014 128.102C102.389 130.631 101.895 132.799 99.4607 133.16Z"/><path fill="#ED8103" d="M139.641 90.5411L138.406 86.9352L134.868 87.1559L119.996 118.183L120.379 137.155L106.653 156.252L109.499 160.057L114.267 160.78L126.89 140.492L126.628 118.609L139.641 90.5411Z"/><path fill="#FFB237" d="M143.049 100.267L117.547 87.1981L111.854 94.2951L112.83 103.088L131.841 111.109L153.138 125.957L143.049 100.267Z"/><path fill="#CF8623" d="M117.433 97.7798L138.09 107.27L131.705 111.039L112.829 103.087L117.433 97.7798Z"/><path fill="#FFD178" d="M111.854 94.295L112.83 103.088L117.434 97.7798L117.483 87.3218L111.854 94.295Z"/><path fill="#CF8623" d="M131.756 111.023L138.069 107.29L153.139 125.957L131.756 111.023Z"/><path fill="#FFB237" d="M-4.76172 160.337C-4.76172 156.367 -1.54312 153.148 2.42722 153.148H189.272C193.242 153.148 196.461 156.367 196.461 160.337V200.401C196.461 204.371 193.242 207.59 189.272 207.59H2.42721C-1.54313 207.59 -4.76172 204.371 -4.76172 200.401V160.337Z"/><path fill="#A881FC" d="M85.8594 156.307C85.8594 162.763 80.7421 164.879 74.4297 164.879C68.1172 164.879 63 162.763 63 156.307C63 149.851 68.1172 147.734 74.4297 147.734C80.7421 147.734 85.8594 149.851 85.8594 156.307Z"/><path fill="#A881FC" d="M113.33 158.77C107.836 155.379 108.724 149.913 112.041 144.542C115.357 139.171 119.846 135.928 125.34 139.32C130.833 142.712 129.945 148.178 126.628 153.549C123.312 158.92 118.823 162.162 113.33 158.77Z"/><path fill="#FFB237" d="M-1.25836 59.8067L25.6216 56.6021L39.2589 170.991L12.3789 174.196L-1.25836 59.8067Z"/><path fill="#ED8103" d="M-1.25836 59.8067L25.6216 56.6021L32.6092 115.214C17.7638 116.984 4.2945 106.384 2.52466 91.5386L-1.25836 59.8067Z"/><path fill="#FFB237" d="M193.365 59.8064L166.485 56.6019L152.848 170.991L179.728 174.196L193.365 59.8064Z"/><path fill="#ED8103" d="M193.365 59.8064L166.485 56.6019L159.498 115.214C174.343 116.984 187.812 106.384 189.582 91.5384L193.365 59.8064Z"/><path fill="#0098A1" d="M167.998 1.37368C166.139 -6.46525 159.138 -12 151.081 -12C140.836 -12 132.812 -3.18617 133.772 7.01392L138.337 55.5607C139.209 64.8322 146.992 71.918 156.304 71.918H161.902C173.553 71.918 182.151 61.0424 179.462 49.7061L167.998 1.37368Z"/><path fill="#53DEE9" d="M23.7015 1.37368C25.5609 -6.46525 32.5619 -12 40.6184 -12C50.8634 -12 58.8873 -3.18617 57.9282 7.01392L53.363 55.5607C52.4912 64.8322 44.7079 71.918 35.3954 71.918H29.7972C18.1464 71.918 9.54867 61.0424 12.2375 49.7061L23.7015 1.37368Z"/><path fill="#53DEE9" d="M133.522 4.35728C132.65 -4.91426 124.867 -12 115.554 -12H113.897C103.93 -12 95.8499 -3.92014 95.8499 6.04687V53.8711C95.8499 63.8381 103.93 71.918 113.897 71.918H120.051C130.686 71.918 139.015 62.7692 138.019 52.1815L133.522 4.35728Z"/><path fill="#0098A1" d="M58.1779 4.35728C59.0498 -4.91426 66.8331 -12 76.1455 -12H77.803C87.77 -12 95.8499 -3.92014 95.8499 6.04687V53.8711C95.8499 63.8381 87.77 71.918 77.803 71.918H71.6483C61.0139 71.918 52.6851 62.7692 53.6807 52.1815L58.1779 4.35728Z"/><circle cx="79.621" cy="106.32" r="13.16" fill="#F9F9F9"/><circle cx="79.905" cy="104.142" r="9.657" fill="#A0A0A0"/><ellipse cx="82.381" cy="99.03" fill="#fff" rx="3.691" ry="2.924" transform="rotate(23.8464 82.3808 99.0302)"/></g><defs><linearGradient id="paint0_linear_1466" x1="85.765" x2="85.765" y1="77" y2="189.164" gradientUnits="userSpaceOnUse"><stop stop-color="#732579"/><stop offset="1" stop-color="#19092C"/></linearGradient></defs></svg>