<svg xmlns="http://www.w3.org/2000/svg" xmlns:xlink="http://www.w3.org/1999/xlink" width="192" height="192" fill="none" xmlns:v="https://vecta.io/nano"><mask id="A" mask-type="alpha" maskUnits="userSpaceOnUse" x="19" y="19" width="154" height="154"><use xlink:href="#C" fill="#eff3f5"/></mask><g mask="url(#A)"><use xlink:href="#C" fill="#eff3f5"/><path d="M64.436 99.673c-2.979-9.023 3.684-19.32 13.3-20.556 7.7-.989 14.195 4.364 14.734 12.143l2.776 40.084c.405 5.848-4.405 11.223-10.18 11.374-3.848.101-7.143-2.197-8.338-5.817L64.436 99.673zm63.142 0c2.979-9.023-3.683-19.32-13.299-20.556-7.7-.989-14.195 4.364-14.734 12.143l-2.776 40.084c-.405 5.848 4.406 11.223 10.18 11.374 3.848.101 7.143-2.197 8.338-5.817l12.291-37.229z" fill="#0f1837"/><path d="M141.681 159.13c0 25.012-9.396 45.289-45.697 45.289s-45.697-20.277-45.697-45.289 9.396-45.288 45.697-45.288 45.697 20.276 45.697 45.288z" fill="#0f1837"/><path d="M82.665 137.21c-3.621.165-4.948-2.83-5.119-6.592s.876-6.866 4.497-7.031 4.948 2.83 5.119 6.592-.876 6.866-4.497 7.031z" fill="#fff"/><path fill-rule="evenodd" d="M113.653 124.389c.561.722.431 1.763-.291 2.324l-4.32 3.36 4.32 3.361c.722.561.852 1.602.291 2.323s-1.602.852-2.324.291l-6.001-4.667c-.404-.314-.64-.797-.64-1.308s.236-.993.64-1.307l6.001-4.667c.722-.562 1.762-.432 2.324.29z" fill="#fff"/><path d="M-4.762 160.337a7.19 7.19 0 0 1 7.189-7.189h186.845a7.19 7.19 0 0 1 7.189 7.189v40.064a7.19 7.19 0 0 1-7.189 7.189H2.427a7.19 7.19 0 0 1-7.189-7.189v-40.064z" fill="#ffb237"/><path d="M84.859 156.307c0 6.456-5.117 8.572-11.43 8.572S62 162.763 62 156.307s5.117-8.573 11.43-8.573 11.43 2.117 11.43 8.573zm45.7-.602c0 6.456-5.05 8.572-11.28 8.572S108 162.161 108 155.705s5.05-8.572 11.279-8.572 11.28 2.116 11.28 8.572z" fill="#6b4baa"/><path d="M-1.259 59.807l26.88-3.205 13.637 114.389-26.88 3.205L-1.259 59.807z" fill="#ffb237"/><path d="M-1.259 59.807l26.88-3.205 6.988 58.612c-14.845 1.77-28.315-8.83-30.085-23.675l-3.783-31.732z" fill="#ed8103"/><path d="M193.365 59.807l-26.88-3.205-13.637 114.389 26.88 3.205 13.637-114.389z" fill="#ffb237"/><path d="M193.365 59.807l-26.88-3.205-6.987 58.612c14.845 1.77 28.314-8.83 30.084-23.675l3.783-31.732z" fill="#ed8103"/><path d="M164.826-12h-32.843l6.353 67.561a18.05 18.05 0 0 0 17.968 16.357h5.598c11.651 0 20.249-10.876 17.56-22.212L164.826-12z" fill="#0098a1"/><path d="M26.873-12h32.843l-6.353 67.561a18.05 18.05 0 0 1-17.968 16.357h-5.598c-11.651 0-20.249-10.876-17.56-22.212L26.873-12zm105.11 0H95.849v65.871a18.05 18.05 0 0 0 18.047 18.047h6.155c10.634 0 18.963-9.149 17.967-19.737L131.983-12z" fill="#53dee9"/><path d="M59.716-12H95.85v65.871a18.05 18.05 0 0 1-18.047 18.047h-6.155c-10.634 0-18.963-9.149-17.968-19.737L59.716-12z" fill="#0098a1"/></g><defs ><path id="C" d="M19 79.8c0-21.282 0-31.923 4.142-40.052a38 38 0 0 1 16.607-16.607C47.877 19 58.518 19 79.8 19h32.4c21.282 0 31.923 0 40.052 4.142a38 38 0 0 1 16.606 16.607C173 47.877 173 58.518 173 79.8v32.4c0 21.282 0 31.923-4.142 40.052-3.643 7.15-9.456 12.963-16.606 16.606C144.123 173 133.482 173 112.2 173H79.8c-21.282 0-31.923 0-40.052-4.142a38 38 0 0 1-16.607-16.606C19 144.123 19 133.482 19 112.2V79.8z"/></defs></svg>