<svg width="192" height="192" viewBox="0 0 192 192" fill="none" xmlns="http://www.w3.org/2000/svg">
<mask id="mask0" mask-type="alpha" maskUnits="userSpaceOnUse" x="19" y="19" width="154" height="154">
<path d="M19 79.8C19 58.518 19 47.877 23.1418 39.7484C26.7849 32.5982 32.5982 26.7849 39.7484 23.1418C47.877 19 58.518 19 79.8 19H112.2C133.482 19 144.123 19 152.252 23.1418C159.402 26.7849 165.215 32.5982 168.858 39.7484C173 47.877 173 58.518 173 79.8V112.2C173 133.482 173 144.123 168.858 152.252C165.215 159.402 159.402 165.215 152.252 168.858C144.123 173 133.482 173 112.2 173H79.8C58.518 173 47.877 173 39.7484 168.858C32.5982 165.215 26.7849 159.402 23.1418 152.252C19 144.123 19 133.482 19 112.2V79.8Z" fill="#EFF3F5"/>
</mask>
<g mask="url(#mask0)">
<path d="M19 79.8C19 58.518 19 47.877 23.1418 39.7484C26.7849 32.5982 32.5982 26.7849 39.7484 23.1418C47.877 19 58.518 19 79.8 19H112.2C133.482 19 144.123 19 152.252 23.1418C159.402 26.7849 165.215 32.5982 168.858 39.7484C173 47.877 173 58.518 173 79.8V112.2C173 133.482 173 144.123 168.858 152.252C165.215 159.402 159.402 165.215 152.252 168.858C144.123 173 133.482 173 112.2 173H79.8C58.518 173 47.877 173 39.7484 168.858C32.5982 165.215 26.7849 159.402 23.1418 152.252C19 144.123 19 133.482 19 112.2V79.8Z" fill="#EFF3F5"/>
<path fill-rule="evenodd" clip-rule="evenodd" d="M127.698 156.292C127.696 156.292 127.694 156.291 129 152.51C130.306 148.729 130.304 148.729 130.303 148.728L130.301 148.727L130.297 148.726L130.312 148.731C130.332 148.738 130.369 148.75 130.421 148.766C130.526 148.8 130.695 148.851 130.917 148.914C131.363 149.039 132.016 149.207 132.806 149.363C134.422 149.681 136.445 149.916 138.38 149.734C140.322 149.551 141.839 148.983 142.878 148.017C143.842 147.121 144.879 145.435 145.015 141.968L153.009 142.281C152.81 147.347 151.177 151.225 148.326 153.876C145.55 156.457 142.106 157.419 139.13 157.699C136.145 157.98 133.29 157.612 131.259 157.212C130.226 157.008 129.363 156.787 128.748 156.614C128.44 156.527 128.192 156.452 128.014 156.396C127.924 156.367 127.852 156.344 127.799 156.326L127.732 156.304L127.71 156.296L127.701 156.293L127.698 156.292Z" fill="#827EE7"/>
<path fill-rule="evenodd" clip-rule="evenodd" d="M63.4343 156.292C63.4359 156.292 63.4375 156.291 62.1318 152.51C60.8261 148.729 60.8275 148.729 60.8289 148.728L60.8312 148.727L60.8345 148.726L60.8196 148.731C60.8 148.738 60.7633 148.75 60.7107 148.766C60.6054 148.8 60.4372 148.851 60.2151 148.914C59.7693 149.039 59.1159 149.207 58.3255 149.363C56.7095 149.681 54.6869 149.916 52.7523 149.734C50.8093 149.551 49.2925 148.983 48.2534 148.017C47.2899 147.121 46.2532 145.435 46.1171 141.968L38.1233 142.281C38.3221 147.347 39.9544 151.225 42.8059 153.876C45.5818 156.457 49.0259 157.419 52.0022 157.699C54.9867 157.98 57.8414 157.612 59.8729 157.212C60.9062 157.008 61.7691 156.787 62.3837 156.614C62.6918 156.527 62.9398 156.452 63.1181 156.396C63.2074 156.367 63.2794 156.344 63.3329 156.326L63.3994 156.304L63.422 156.296L63.4307 156.293L63.4343 156.292Z" fill="#827EE7"/>
<path d="M67.4072 108.537C64.7088 100.364 70.7438 91.0364 79.4543 89.9174C86.4294 89.0213 92.3127 93.8701 92.8007 100.917L93.771 114.929C93.9222 114.921 94.0741 114.914 94.2264 114.907C95.6079 114.844 96.9478 114.814 98.2471 114.817L99.2097 100.917C99.6976 93.8701 105.581 89.0213 112.556 89.9174C121.266 91.0364 127.302 100.364 124.603 108.537L120.898 119.76C132.618 126.268 136.743 138.56 137.391 152.753C138.393 174.698 130.703 192.876 97.8552 194.376C65.0074 195.876 55.6927 178.474 54.6907 156.53C53.9846 141.067 57.5942 127.474 71.2803 120.269L67.4072 108.537Z" fill="#827EE7"/>
<path d="M-4.76172 160.337C-4.76172 156.367 -1.54312 153.148 2.42722 153.148H189.272C193.242 153.148 196.461 156.367 196.461 160.337V200.401C196.461 204.371 193.242 207.59 189.272 207.59H2.42721C-1.54313 207.59 -4.76172 204.371 -4.76172 200.401V160.337Z" fill="#FFB237"/>
<path d="M-1.25854 59.8064L25.6214 56.6018L39.2587 170.991L12.3787 174.196L-1.25854 59.8064Z" fill="#FFB237"/>
<path d="M-1.25854 59.8064L25.6214 56.6018L32.609 115.214C17.7636 116.984 4.29432 106.384 2.52448 91.5383L-1.25854 59.8064Z" fill="#ED8103"/>
<path d="M193.365 59.8064L166.485 56.6018L152.848 170.991L179.728 174.196L193.365 59.8064Z" fill="#FFB237"/>
<path d="M193.365 59.8064L166.485 56.6018L159.497 115.214C174.343 116.984 187.812 106.384 189.582 91.5383L193.365 59.8064Z" fill="#ED8103"/>
<path d="M164.826 4H131.984L138.337 71.5607C139.209 80.8322 146.992 87.918 156.304 87.918H161.902C173.553 87.918 182.151 77.0424 179.462 65.7061L164.826 4Z" fill="#0098A1"/>
<path d="M26.8734 4H59.7159L53.3628 71.5607C52.4909 80.8322 44.7076 87.918 35.3952 87.918H29.797C18.1461 87.918 9.54842 77.0424 12.2373 65.7061L26.8734 4Z" fill="#53DEE9"/>
<path d="M131.983 4H95.8494V69.8711C95.8494 79.8381 103.929 87.918 113.896 87.918H120.051C130.685 87.918 139.014 78.7692 138.019 68.1815L131.983 4Z" fill="#53DEE9"/>
<path d="M59.7163 4H95.8501V69.8711C95.8501 79.8381 87.7702 87.918 77.8032 87.918H71.6485C61.0141 87.918 52.6853 78.7692 53.6809 68.1815L59.7163 4Z" fill="#0098A1"/>
<path d="M84.5041 137.031C81.2089 137.181 80.0019 134.455 79.8456 131.032C79.6893 127.608 80.6428 124.784 83.938 124.633C87.2332 124.483 88.4402 127.209 88.5965 130.632C88.7528 134.056 87.7993 136.88 84.5041 137.031Z" fill="#002D87"/>
<path d="M107.942 137.031C104.646 137.181 103.439 134.455 103.283 131.032C103.127 127.608 104.08 124.784 107.376 124.633C110.671 124.483 111.878 127.209 112.034 130.632C112.19 134.056 111.237 136.88 107.942 137.031Z" fill="#002D87"/>
<path d="M143.208 127.901C138.797 135.541 141.602 140.156 146.616 143.051C151.174 145.682 156.41 145.036 160.788 137.452C164.978 130.195 163.945 121.037 157.379 116.356C156.998 116.084 153.066 112.853 151.799 116.021C152.94 123.175 147.146 121.08 143.208 127.901Z" fill="#827EE7"/>
<path d="M47.9237 127.901C52.3345 135.541 49.5295 140.156 44.5157 143.051C39.9576 145.682 34.7223 145.036 30.3438 137.452C26.154 130.195 27.187 121.037 33.7526 116.356C34.1343 116.084 38.0662 112.853 39.3327 116.021C38.1915 123.175 43.9856 121.08 47.9237 127.901Z" fill="#827EE7"/>
</g>
<path fill-rule="evenodd" clip-rule="evenodd" d="M139.005 118.275C138.348 119.522 137.605 121.339 137.276 123.581C136.732 127.286 134.985 130.177 133.491 132.069C132.733 133.028 132.006 133.775 131.455 134.292C131.179 134.552 130.944 134.757 130.767 134.905C130.678 134.98 130.604 135.04 130.546 135.086C130.518 135.109 130.493 135.129 130.472 135.145L130.445 135.166L130.434 135.174L130.426 135.18C130.425 135.181 130.424 135.182 128 132C125.576 128.818 125.575 128.819 125.574 128.82L125.572 128.821L125.568 128.824L125.562 128.829L125.554 128.835C125.552 128.836 125.552 128.837 125.552 128.837C125.552 128.837 125.553 128.836 125.555 128.834C125.564 128.827 125.587 128.808 125.623 128.778C125.696 128.717 125.818 128.611 125.977 128.462C126.296 128.163 126.744 127.704 127.214 127.11C128.174 125.894 129.087 124.285 129.361 122.419C129.85 119.09 130.948 116.406 131.927 114.547C132.418 113.614 132.886 112.876 133.245 112.354C133.425 112.093 133.579 111.884 133.696 111.731C133.755 111.654 133.805 111.591 133.844 111.541C133.864 111.517 133.881 111.496 133.895 111.478L133.915 111.454L133.923 111.444L133.927 111.44L133.928 111.438C133.929 111.437 133.93 111.436 137 114C140.07 116.564 140.071 116.563 140.072 116.562L140.076 116.557L140.081 116.551L140.088 116.542C140.092 116.538 140.093 116.536 140.091 116.538C140.088 116.542 140.076 116.558 140.054 116.586C140.012 116.642 139.936 116.744 139.834 116.891C139.631 117.186 139.332 117.654 139.005 118.275Z" fill="#827EE7"/>
<path fill-rule="evenodd" clip-rule="evenodd" d="M52.7214 118.275C53.3786 119.522 54.1215 121.339 54.4508 123.581C54.9949 127.286 56.7411 130.177 58.2354 132.069C58.9931 133.028 59.721 133.775 60.2713 134.292C60.5477 134.552 60.783 134.757 60.9598 134.905C61.0483 134.98 61.1224 135.04 61.1802 135.086C61.209 135.109 61.2338 135.129 61.2542 135.145L61.2816 135.166L61.2928 135.174L61.3001 135.18C61.3012 135.181 61.3023 135.182 63.7265 132C66.1507 128.818 66.1517 128.819 66.1528 128.82L66.1548 128.821L66.1585 128.824L66.1648 128.829L66.1729 128.835C66.1743 128.836 66.175 128.837 66.175 128.837C66.175 128.837 66.1738 128.836 66.1714 128.834C66.1628 128.827 66.1395 128.808 66.1033 128.778C66.0308 128.717 65.9081 128.611 65.7499 128.462C65.4308 128.163 64.9826 127.704 64.513 127.11C63.5528 125.894 62.64 124.285 62.3659 122.419C61.877 119.09 60.779 116.406 59.7998 114.547C59.3085 113.614 58.8407 112.876 58.4813 112.354C58.3013 112.093 58.1475 111.884 58.0302 111.731C57.9715 111.654 57.9219 111.591 57.8826 111.541C57.8629 111.517 57.8458 111.496 57.8314 111.478L57.8119 111.454L57.8037 111.444L57.8 111.44L57.7982 111.438C57.7974 111.437 57.7965 111.436 54.7265 114C51.6565 116.564 51.6557 116.563 51.6549 116.562L51.6504 116.557L51.6453 116.551L51.6381 116.542C51.6346 116.538 51.6337 116.536 51.6352 116.538C51.6382 116.542 51.6508 116.558 51.6721 116.586C51.7146 116.642 51.7909 116.744 51.8921 116.891C52.0952 117.186 52.3945 117.654 52.7214 118.275Z" fill="#827EE7"/>
<path d="M148.273 109.796C145.99 118.317 140.743 119.597 135.151 118.099C130.067 116.737 126.823 112.578 129.089 104.119C131.258 96.0247 138.463 90.28 146.416 91.6122C146.879 91.6897 151.943 92.1856 150.599 95.3211C144.734 99.5725 150.312 102.189 148.273 109.796Z" fill="#827EE7"/>
<path d="M43.4533 109.796C45.7365 118.317 50.9834 119.597 56.5756 118.099C61.6595 116.737 64.9041 112.578 62.6375 104.119C60.4687 96.0247 53.2631 90.28 45.3102 91.6122C44.8478 91.6897 39.7832 92.1856 41.1276 95.3211C46.9929 99.5725 41.4148 102.189 43.4533 109.796Z" fill="#827EE7"/>
</svg>
