<svg width="192" height="192" viewBox="0 0 192 192" fill="none" xmlns="http://www.w3.org/2000/svg">
<g clip-path="url(#clip0_1996_304290)">
<g style="mix-blend-mode:multiply" opacity="0.3">
<path d="M99.3652 17.0032C99.3652 17.0032 136.31 20.1201 152.287 21.3625C164.737 21.9568 177.214 21.5706 189.603 20.2073L99.3652 17.0032Z" fill="#8F9AA0"/>
</g>
<path d="M161.367 148.928C159.333 158.108 157.6 164.895 157.053 166.331C155 171.225 100.046 191.455 91.7192 192.042C83.3923 192.629 39.5914 175.336 32.847 169.354C31.9992 168.615 30.737 163.677 29.3429 156.52V156.39C24.8215 133.615 18.6612 88.5433 19.038 83.1052C19.5466 75.8398 77.0624 58.938 89.1382 60.5042C105.566 62.6795 166.548 76.3619 171.107 81.7565C174.291 85.5415 166.755 125.24 161.367 148.928Z" fill="#C0C4C6"/>
<path d="M19.0005 83.0178C19.1512 86.7592 83.4114 112.797 96.3539 113.015C109.296 113.232 164.891 87.3465 168.866 83.0178C172.841 78.689 110.69 63.4403 91.2296 60.5038C71.7688 57.5672 18.8121 78.7542 19.0005 83.0178Z" fill="#D6D6D6"/>
<g style="mix-blend-mode:multiply" opacity="0.5">
<path d="M101.007 114.058C97.239 116.081 93.622 186.277 94.0364 188.974C94.4509 191.672 155.678 171.572 157.053 166.265C158.428 160.957 174.743 95.1554 171.804 89.0864C168.865 83.0175 101.007 114.058 101.007 114.058Z" fill="#8F9AA0"/>
</g>
<mask id="mask0_1996_304290" style="mask-type:alpha" maskUnits="userSpaceOnUse" x="64" y="83" width="115" height="116">
<path d="M133.48 165.468C154.406 146.009 162.052 117.199 172.143 91.3266L178.5 83.9111L162 179.052L83.9995 199L64.4219 184.89C72.7031 184.89 87.8547 189.441 95.4995 186.468C109.334 181.088 122.458 175.718 133.48 165.468Z" fill="#C4C4C4"/>
</mask>
<g mask="url(#mask0_1996_304290)">
<g style="mix-blend-mode:multiply" opacity="0.5">
<path d="M101.007 114.058C97.239 116.081 93.622 186.277 94.0364 188.974C94.4509 191.672 155.678 171.572 157.053 166.265C158.428 160.957 174.743 95.1554 171.804 89.0864C168.865 83.0175 101.007 114.058 101.007 114.058Z" fill="#8F9AA0"/>
</g>
</g>
<path d="M158.296 81.8434C158.861 86.7812 112.781 105.097 96.2967 107.098C89.8537 107.859 31.0193 86.5419 28.7774 81.8434C26.5355 77.1448 73.1247 63.1797 89.0626 63.1797C105 63.1797 157.693 76.8403 158.296 81.8434Z" fill="url(#paint0_linear_1996_304290)"/>
<g style="mix-blend-mode:multiply" opacity="0.2">
<path d="M89.0067 63.1797V105.749C82.5637 106.533 31.0199 86.5419 28.7216 81.8216C26.4232 77.1013 73.1254 63.1797 89.0067 63.1797Z" fill="#B3C1C8"/>
</g>
<g style="mix-blend-mode:multiply" opacity="0.5">
<path d="M161.368 148.929C159.334 158.109 157.6 164.896 157.054 166.331C155.001 171.226 100.047 191.456 91.72 192.043C83.3931 192.63 39.5922 175.337 32.8478 169.355C32 168.615 30.7378 163.677 29.3438 156.521C29.7959 157.717 33.997 165.723 52.4405 176.165C72.1086 187.28 92.4925 188.845 94.0373 189.041C95.5821 189.237 147.182 172.574 153.738 165.57C157.337 161.676 159.861 154.541 161.368 148.929Z" fill="#6B7478"/>
</g>
<path d="M128.606 148.147C128.307 149.284 126.693 149.284 126.394 148.147L124.788 142.027C124.683 141.628 124.372 141.317 123.973 141.212L117.853 139.606C116.716 139.307 116.716 137.693 117.853 137.394L123.973 135.788C124.372 135.683 124.683 135.372 124.788 134.973L126.394 128.853C126.693 127.716 128.307 127.716 128.606 128.853L130.212 134.973C130.317 135.372 130.628 135.683 131.027 135.788L137.147 137.394C138.284 137.693 138.284 139.307 137.147 139.606L131.027 141.212C130.628 141.317 130.317 141.628 130.212 142.027L128.606 148.147Z" fill="white"/>
<path d="M53.6854 165.974L53.3489 124.955L44.5572 123.234L44.4448 109.532L68.6842 114.373L69.1524 171.451L53.6854 165.974Z" fill="#6B7478"/>
<path fill-rule="evenodd" clip-rule="evenodd" d="M51.3162 167.663L50.983 127.051L42.1914 125.33L42.0368 106.492L71.051 112.287L71.5641 174.833L51.3162 167.663ZM53.3493 124.955L53.6858 165.974L69.1529 171.451L68.6846 114.373L44.4453 109.532L44.5577 123.234L53.3493 124.955Z" fill="white"/>
<mask id="mask1_1996_304290" style="mask-type:alpha" maskUnits="userSpaceOnUse" x="29" y="-7" width="131" height="115">
<path d="M159.033 82.6637C159.598 87.6015 113.517 105.917 97.0329 107.918C90.5899 108.68 31.7554 87.3622 29.5136 82.6637C27.2717 77.9651 29.5138 -3 97.0328 -7C159.033 2 158.43 77.6606 159.033 82.6637Z" fill="#636363"/>
</mask>
<g mask="url(#mask1_1996_304290)">
<ellipse opacity="0.5" cx="98.5" cy="92" rx="60.5" ry="78" fill="url(#paint1_radial_1996_304290)"/>
</g>
<path d="M98.7992 41.0928C94.7157 33.6434 92.4499 25.3274 92.4499 25.3274C92.4499 25.3274 90.4504 33.4269 86.6683 40.8738C85.5864 46.7705 81.368 51.6166 75.5985 53.5326C68.2392 55.9766 60.9327 52.7974 58.207 45.2996C55.2617 42.5033 52.8977 39.4634 51.7077 37.1178L51.7652 41.919C51.945 56.9167 55.6954 71.5642 62.5813 84.1613L123.72 83.4285C130.302 70.67 133.7 55.9369 133.521 40.9391L133.463 36.1379C132.352 38.4635 130.131 41.4823 127.335 44.2992C124.843 51.9816 117.561 55.4033 110.089 53.1192C104.396 51.3789 100.122 46.7938 98.7992 41.0928Z" fill="#FFC700"/>
<path fill-rule="evenodd" clip-rule="evenodd" d="M93.8973 30.1024C94.9573 33.1715 96.6432 37.5186 98.8799 41.6028C99.8416 45.7506 102.378 49.3024 105.888 51.5803L102.797 83.6416L93.285 83.6791L68.8831 84.1679C63.6536 70.3931 61.717 61.7441 59.4579 47.5406C62.5964 53.689 69.231 56.151 75.9097 53.931C81.6219 52.0322 85.7983 47.2295 86.8693 41.3857C88.9134 37.357 90.4315 33.1357 91.3888 30.1324L93.8973 30.1024Z" fill="#FFD800"/>
<path fill-rule="evenodd" clip-rule="evenodd" d="M88.7801 83.77L85.4538 45.6586C83.6811 49.2416 80.6183 52.0985 76.7832 53.6145C77.956 62.9378 79.5888 71.4579 82.9639 83.8865L88.7801 83.77ZM79.1858 83.9622C76.4827 72.5634 74.7917 64.2144 73.5742 54.5201C70.6702 55.0193 67.8524 54.6402 65.412 53.4669C66.7972 63.2909 69.1486 75.6946 72.8893 84.0883L79.1858 83.9622Z" fill="#FFE971"/>
<path fill-rule="evenodd" clip-rule="evenodd" d="M87.5992 38.7975C87.3607 39.3033 87.1139 39.8088 86.8589 40.3113C85.7879 46.1551 81.6115 50.9578 75.8993 52.8565C68.613 55.2786 61.379 52.1278 58.6803 44.6971C58.5381 44.562 58.3973 44.4263 58.2579 44.2901C58.2978 45.0991 58.4113 45.9082 58.6018 46.7099C60.3251 53.9635 67.6973 57.8575 76.0801 55.071C83.8368 52.4926 88.3359 45.5647 87.5992 38.7975Z" fill="#FFE971"/>
<path fill-rule="evenodd" clip-rule="evenodd" d="M98.1252 38.6727C98.3755 39.172 98.634 39.6709 98.9006 40.1665C100.111 45.983 104.402 50.6842 110.158 52.4455C117.5 54.6922 124.656 51.3689 127.176 43.8757C127.316 43.7368 127.453 43.5974 127.59 43.4576C127.569 44.2676 127.475 45.0797 127.304 45.8861C125.755 53.1789 118.478 57.2485 110.031 54.6637C102.216 52.2722 97.5519 45.4551 98.1252 38.6727Z" fill="#FFD800"/>
<path d="M105.389 35.3813C104.973 41.2738 99.1508 44.9234 92.3212 44.4406C85.4916 43.9579 80.2407 39.5256 80.6572 33.6331C81.0737 27.7407 86.8959 24.0911 93.7255 24.5738C100.555 25.0565 105.806 29.4889 105.389 35.3813Z" fill="#FFC700"/>
<path d="M100.262 28.8285C100.912 32.185 96.4461 30.5736 91.5071 31.5298C86.5682 32.4859 83.0265 35.6475 82.3767 32.2911C81.7269 28.9346 85.285 25.8577 90.2239 24.9015C95.1628 23.9454 99.6122 25.472 100.262 28.8285Z" fill="#FFD800"/>
<path d="M88.1237 41.6347C87.2776 39.6852 90.9981 40.5627 95.2716 39.5571C99.5451 38.5516 102.366 34.3942 102.985 37.0263C103.605 39.6583 100.562 42.2617 96.2887 43.2672C92.0152 44.2728 88.9699 43.5842 88.1237 41.6347Z" fill="#FFAF00"/>
<path d="M95.2803 27.5411C95.5881 29.131 93.0652 28.4466 90.2229 28.9969C87.3807 29.5471 85.2954 31.1236 84.9876 29.5337C84.6798 27.9438 86.7728 26.4074 89.6151 25.8572C92.4573 25.3069 94.9725 25.9512 95.2803 27.5411Z" fill="#FEED8D"/>
<path d="M139.935 38.5503C139.987 42.8829 136.207 45.8999 131.501 45.9563C126.795 46.0127 122.944 43.0872 122.892 38.7545C122.84 34.4219 126.62 31.405 131.326 31.3486C136.032 31.2921 139.883 34.2177 139.935 38.5503Z" fill="#FFC700"/>
<path d="M136.145 34.1744C136.785 36.4551 133.609 35.5975 130.253 36.54C126.897 37.4825 124.632 39.868 123.992 37.5874C123.351 35.3067 125.633 32.9787 128.989 32.0362C132.344 31.0937 135.504 31.8938 136.145 34.1744Z" fill="#FFD800"/>
<path d="M128.475 44.1453C127.78 42.8474 130.399 43.2408 133.292 42.3022C136.186 41.3637 137.896 38.3316 138.474 40.1138C139.053 41.896 137.1 43.8675 134.207 44.8061C131.313 45.7446 129.171 45.4431 128.475 44.1453Z" fill="#FFAF00"/>
<path d="M132.632 33.57C132.936 34.6503 131.154 34.3219 129.223 34.8642C127.292 35.4066 125.942 36.6144 125.638 35.5341C125.335 34.4538 126.693 33.2732 128.624 32.7308C130.555 32.1885 132.329 32.4897 132.632 33.57Z" fill="#FEED8D"/>
<path d="M62.834 39.4746C62.8859 43.8072 59.1065 46.8242 54.4004 46.8806C49.6942 46.937 45.8436 44.0115 45.7916 39.6789C45.7397 35.3463 49.5192 32.3293 54.2253 32.2729C58.9314 32.2165 62.7821 35.142 62.834 39.4746Z" fill="#FFC700"/>
<path d="M59.0441 35.0987C59.6846 37.3794 56.5087 36.5218 53.1528 37.4643C49.7969 38.4068 47.5318 40.7924 46.8913 38.5117C46.2508 36.231 48.532 33.903 51.888 32.9605C55.2439 32.018 58.4036 32.8181 59.0441 35.0987Z" fill="#FFD800"/>
<path d="M51.3746 45.0696C50.679 43.7717 53.2982 44.1651 56.1918 43.2265C59.0854 42.288 60.7958 39.2559 61.3739 41.0381C61.9519 42.8203 59.9998 44.7918 57.1062 45.7304C54.2126 46.669 52.0703 46.3675 51.3746 45.0696Z" fill="#FFAF00"/>
<path d="M55.5306 34.4943C55.834 35.5746 54.0526 35.2462 52.1214 35.7885C50.1901 36.3309 48.8402 37.5387 48.5368 36.4584C48.2335 35.3781 49.591 34.1975 51.5223 33.6552C53.4535 33.1128 55.2272 33.414 55.5306 34.4943Z" fill="#FEED8D"/>
<path d="M126.843 86.4521C126.906 91.7072 125.946 93.9402 93.2891 94.3316C60.6327 94.723 59.6194 92.5137 59.5565 87.2585C59.4935 82.0034 60.4759 81.6395 93.1323 81.2481C125.789 80.8567 126.78 81.197 126.843 86.4521Z" fill="#B6ADAD"/>
<path d="M127.112 85.0872C127.164 89.4655 126.191 91.3281 93.2453 91.7229C60.2998 92.1178 59.2823 90.2791 59.2298 85.9007C59.1773 81.5223 60.1692 81.2171 93.1147 80.8222C126.06 80.4273 127.059 80.7088 127.112 85.0872Z" fill="#D8D8D8"/>
<path d="M101.797 85.7859C101.784 89.9738 99.0603 90.5094 80.2076 90.3806C66.2814 90.2854 62.6176 89.9708 62.6264 87.0271C62.6352 84.0834 64.0129 82.941 80.2294 83.0518C99.0822 83.1806 101.806 82.8422 101.797 85.7859Z" fill="#EFF3F5"/>
<path d="M67.7941 88.6177C67.0802 87.8361 67.5905 86.7248 68.5087 85.6699C69.427 84.6151 70.4054 84.0161 71.1194 84.7977C71.8333 85.5792 71.323 86.6906 70.4048 87.7454C69.4865 88.8003 68.5081 89.3992 67.7941 88.6177Z" fill="#7D7D7D"/>
<path d="M67.6433 88.4532C67.0422 87.7952 67.5895 86.7244 68.5078 85.6695C69.426 84.6147 70.3674 83.9752 70.9685 84.6332C71.5696 85.2911 71.0222 86.362 70.104 87.4168C69.1857 88.4717 68.2443 89.1111 67.6433 88.4532Z" fill="#373333"/>
<path d="M119.893 87.4595C119.179 86.6779 119.689 85.5666 120.607 84.5117C121.526 83.4569 122.504 82.8579 123.218 83.6395C123.932 84.421 123.422 85.5324 122.503 86.5872C121.585 87.6421 120.607 88.241 119.893 87.4595Z" fill="#7D7D7D"/>
<path d="M119.753 87.3094C119.143 86.6413 119.687 85.5672 120.605 84.5123C121.524 83.4575 122.468 82.8213 123.078 83.4894C123.689 84.1575 123.144 85.2316 122.226 86.2865C121.308 87.3413 120.363 87.9774 119.753 87.3094Z" fill="#373333"/>
<path d="M78.4565 88.6595C77.6097 87.7326 78.215 86.4146 79.304 85.1636C80.393 83.9125 81.5534 83.2022 82.4001 84.1291C83.2468 85.056 82.6416 86.374 81.5526 87.6251C80.4636 88.8761 79.3032 89.5864 78.4565 88.6595Z" fill="#7D7D7D"/>
<path d="M78.2299 88.4113C77.5537 87.6712 78.2149 86.4144 79.3039 85.1634C80.3929 83.9123 81.4973 83.1408 82.1735 83.881C82.8496 84.6211 82.1885 85.8779 81.0995 87.129C80.0105 88.38 78.906 89.1515 78.2299 88.4113Z" fill="#373333"/>
<path d="M106.614 88.3216C105.767 87.3947 106.372 86.0767 107.461 84.8257C108.55 83.5746 109.711 82.8643 110.557 83.7912C111.404 84.7181 110.799 86.0361 109.71 87.2872C108.621 88.5382 107.46 89.2485 106.614 88.3216Z" fill="#7D7D7D"/>
<path d="M106.42 88.1105C105.719 87.3431 106.372 86.0773 107.461 84.8263C108.55 83.5753 109.663 82.8127 110.364 83.5801C111.065 84.3475 110.412 85.6133 109.323 86.8643C108.234 88.1153 107.121 88.8779 106.42 88.1105Z" fill="#373333"/>
<path d="M92.0366 89.1321C91.0527 88.0551 91.756 86.5235 93.0215 85.0697C94.2869 83.616 95.6353 82.7906 96.6193 83.8677C97.6032 84.9448 96.8999 86.4763 95.6345 87.9301C94.369 89.3838 93.0206 90.2092 92.0366 89.1321Z" fill="#7D7D7D"/>
<path d="M91.8436 88.9203C91.0055 88.0029 91.7566 86.5236 93.022 85.0699C94.2875 83.6161 95.5881 82.7384 96.4262 83.6558C97.2643 84.5733 96.5132 86.0525 95.2477 87.5063C93.9823 88.96 92.6817 89.8377 91.8436 88.9203Z" fill="#373333"/>
<path d="M91.2632 54.8064C92.2392 53.8318 93.8402 53.8126 94.8392 54.7635L102.307 61.8717C103.306 62.8226 103.324 64.3836 102.348 65.3582L95.0535 72.6433C94.0775 73.618 92.4765 73.6371 91.4775 72.6862L84.0101 65.578C83.0111 64.6271 82.9924 63.0661 83.9683 62.0915L91.2632 54.8064Z" fill="#FFE971"/>
<path d="M92.9179 52.7601L93.0294 62.0656L83.7238 62.1772C83.7164 61.5551 83.9462 60.9302 84.4152 60.4499L91.2077 53.4926C91.6766 53.0123 92.2959 52.7675 92.9179 52.7601Z" fill="#FA7048"/>
<path d="M93.1406 71.3714L93.029 62.0658L83.7234 62.1773C83.7309 62.7994 83.9757 63.4186 84.456 63.8875L91.4133 70.6801C91.8936 71.149 92.5185 71.3788 93.1406 71.3714Z" fill="#CC240E"/>
<path d="M92.919 52.76L93.0305 62.0656L102.336 61.954C102.329 61.332 102.084 60.7128 101.604 60.2438L94.6463 53.4513C94.166 52.9824 93.5411 52.7525 92.919 52.76Z" fill="#CC240E"/>
<path d="M93.1417 71.3713L93.0301 62.0657L102.336 61.9542C102.343 62.5762 102.113 63.2011 101.644 63.6814L94.8519 70.6388C94.3829 71.1191 93.7637 71.3638 93.1417 71.3713Z" fill="#9F0400"/>
<path d="M117.563 62.6988C118.101 62.0892 118.986 62.0786 119.539 62.6751L123.671 67.1342C124.224 67.7307 124.236 68.7085 123.697 69.3181L119.673 73.8749C119.134 74.4845 118.25 74.4951 117.697 73.8985L113.564 69.4395C113.011 68.843 113 67.8652 113.538 67.2556L117.563 62.6988Z" fill="#FFE971"/>
<path d="M118.557 61.7057L118.622 67.1159L113.211 67.1807C113.207 66.8191 113.341 66.4558 113.613 66.1765L117.562 62.1316C117.835 61.8523 118.195 61.71 118.557 61.7057Z" fill="#FA7048"/>
<path d="M118.686 72.526L118.621 67.1157L113.211 67.1806C113.215 67.5422 113.357 67.9023 113.636 68.1749L117.681 72.124C117.961 72.3967 118.324 72.5303 118.686 72.526Z" fill="#CC240E"/>
<path d="M118.559 61.706L118.623 67.1162L124.034 67.0513C124.029 66.6897 123.887 66.3297 123.608 66.057L119.563 62.1079C119.283 61.8353 118.92 61.7016 118.559 61.706Z" fill="#CC240E"/>
<path d="M118.687 72.5263L118.623 67.116L124.033 67.0512C124.037 67.4128 123.904 67.7762 123.631 68.0554L119.682 72.1004C119.409 72.3796 119.049 72.5219 118.687 72.5263Z" fill="#9F0400"/>
<path d="M65.9591 63.317C66.4975 62.7074 67.3821 62.6968 67.935 63.2933L72.0676 67.7523C72.6205 68.3488 72.6322 69.3266 72.0938 69.9362L68.0692 74.493C67.5308 75.1026 66.6462 75.1132 66.0933 74.5167L61.9607 70.0577C61.4078 69.4612 61.3961 68.4834 61.9345 67.8738L65.9591 63.317Z" fill="#FFE971"/>
<path d="M67.0069 62.3243L67.0718 67.7346L61.6615 67.7994C61.6572 67.4377 61.7908 67.0744 62.0635 66.7952L66.0126 62.7502C66.2852 62.471 66.6453 62.3287 67.0069 62.3243Z" fill="#FA7048"/>
<path d="M67.1368 73.1437L67.072 67.7334L61.6617 67.7983C61.6661 68.1599 61.8084 68.5199 62.0876 68.7926L66.1326 72.7417C66.4118 73.0144 66.7751 73.148 67.1368 73.1437Z" fill="#CC240E"/>
<path d="M67.0068 62.3231L67.0716 67.7334L72.4818 67.6685C72.4775 67.3069 72.3352 66.9469 72.0559 66.6742L68.011 62.7251C67.7317 62.4524 67.3684 62.3188 67.0068 62.3231Z" fill="#CC240E"/>
<path d="M67.1366 73.1439L67.0718 67.7337L72.482 67.6689C72.4864 68.0305 72.3527 68.3938 72.0801 68.6731L68.1309 72.7181C67.8583 72.9973 67.4983 73.1396 67.1366 73.1439Z" fill="#9F0400"/>
<path d="M19.8466 43.8294C19.5677 44.8922 18.0589 44.8922 17.7799 43.8294L16.2788 38.1098C16.181 37.7369 15.8897 37.4456 15.5167 37.3477L9.79712 35.8466C8.73429 35.5677 8.73429 34.0589 9.79712 33.7799L15.5167 32.2788C15.8897 32.181 16.181 31.8897 16.2788 31.5167L17.7799 25.7971C18.0589 24.7343 19.5677 24.7343 19.8466 25.7971L21.3477 31.5167C21.4456 31.8897 21.7369 32.181 22.1098 32.2788L27.8294 33.7799C28.8922 34.0589 28.8922 35.5677 27.8294 35.8466L22.1098 37.3477C21.7369 37.4456 21.4456 37.7369 21.3477 38.1098L19.8466 43.8294Z" fill="white"/>
</g>
<path d="M158.184 55.472C158 56.176 157 56.176 156.816 55.472L155.821 51.6835C155.756 51.4365 155.564 51.2436 155.316 51.1787L151.528 50.1844C150.824 49.9997 150.824 49.0003 151.528 48.8156L155.316 47.8213C155.564 47.7564 155.756 47.5635 155.821 47.3165L156.816 43.528C157 42.824 158 42.824 158.184 43.528L159.179 47.3165C159.244 47.5635 159.436 47.7564 159.684 47.8213L163.472 48.8156C164.176 49.0003 164.176 49.9997 163.472 50.1844L159.684 51.1787C159.436 51.2436 159.244 51.4365 159.179 51.6835L158.184 55.472Z" fill="white"/>
<defs>
<linearGradient id="paint0_linear_1996_304290" x1="93.4898" y1="107.098" x2="94" y2="21" gradientUnits="userSpaceOnUse">
<stop stop-color="white"/>
<stop offset="1" stop-opacity="0"/>
</linearGradient>
<radialGradient id="paint1_radial_1996_304290" cx="0" cy="0" r="1" gradientUnits="userSpaceOnUse" gradientTransform="translate(98.4901 91.9647) rotate(-90) scale(72.789 56.4581)">
<stop stop-color="white"/>
<stop offset="1" stop-color="white" stop-opacity="0"/>
</radialGradient>
<clipPath id="clip0_1996_304290">
<rect width="192" height="192" fill="white"/>
</clipPath>
</defs>
</svg>
