<svg width="192" height="192" viewBox="0 0 192 192" fill="none" xmlns="http://www.w3.org/2000/svg">
<g clip-path="url(#clip0_1996_303566)">
<path fill-rule="evenodd" clip-rule="evenodd" d="M71.2645 53.052C67.7663 52.0166 64.7398 51.7256 62.3395 52.3911C59.8298 53.0728 58.0611 54.7015 57.0511 57.1886C56.2909 59.0605 55.9212 61.3491 55.8943 64.0026C55.8515 64.0131 55.8087 64.0236 55.7659 64.0341C55.4387 63.5474 55.0814 63.0711 54.693 62.6062C53.0955 60.694 51.1114 59.1976 48.8582 58.0365L55.2294 60.0497L55.594 48.5694L30.9532 40.7832L30.927 56.4331L31.3112 63.0895L31.4537 63.1345L31.9102 71.0452C19.3254 75.3833 9.2283 80.0797 9.01649 83.1052C8.63971 88.5433 14.8 133.615 19.3214 156.39V156.52C20.7155 163.677 21.9777 168.615 22.8255 169.354C29.5699 175.336 73.3708 192.629 81.6977 192.042C90.0246 191.455 144.978 171.225 147.032 166.331C147.578 164.895 149.311 158.108 151.346 148.928C156.117 127.954 162.571 94.4292 161.777 84.3942C167.71 69.5402 183.942 28.701 183.942 26.5278C183.942 24.4033 181.16 21.6666 180.041 20.652C179.944 20.3894 179.793 20.2513 179.583 20.2503C177.625 20.2409 161.456 19.6196 143.32 18.9228C119.257 17.9981 91.7309 16.9405 89.3446 17.0026C86.579 17.0746 77.2646 38.516 71.2645 53.052ZM44.0779 67.1843C43.169 67.45 42.261 67.7203 41.3562 67.9945C40.9303 67.8331 40.4359 67.6298 39.8685 67.3801C38.9483 66.9751 38.0218 66.5108 37.0885 65.9862C36.2059 65.4823 35.4595 64.9897 34.8363 64.5145L34.1396 63.9832L42.9955 66.7816C43.4418 66.9226 43.7987 67.0595 44.0779 67.1843ZM53.1038 50.1586L53.1027 50.1583L52.9012 56.5041L52.9022 56.5045L53.1038 50.1586ZM41.3604 52.8577L41.3593 52.8574L41.3314 57.2207L41.3526 57.2274L41.3526 57.227L41.3325 57.2207L41.3604 52.8577Z" fill="#EB8C00"/>
<g style="mix-blend-mode:hard-light" opacity="0.9">
<path d="M66 66.154C66 66.154 85.1811 17.1116 89.3661 17.0026C93.551 16.8936 175.049 20.2285 179.604 20.2503C184.16 20.2721 160.946 84.7029 160.946 84.7029C160.946 84.7029 124.72 68.944 66 66.154Z" fill="url(#paint0_linear_1996_303566)"/>
<path d="M179.604 20.2505C179.604 20.2505 183.964 23.8687 183.964 26.5279C183.964 29.1871 159.661 89.7381 159.661 89.7381L158.68 83.3953L179.604 20.2505Z" fill="#6B7478"/>
<g style="mix-blend-mode:multiply" opacity="0.2">
<path d="M70.3593 60.0299C69.8798 66.5689 99.0873 41.6336 125.243 32.3918C151.399 23.15 172.629 26.1797 173.392 23.1718C174.155 20.1639 97.3655 18.0278 92.2651 18.6381C87.1646 19.2484 71.3184 47.1481 70.3593 60.0299Z" fill="#8F9AA0"/>
</g>
<g style="mix-blend-mode:multiply" opacity="0.3">
<path d="M89.3652 17.0032C89.3652 17.0032 126.31 20.1201 142.287 21.3625C154.737 21.9568 167.214 21.5706 179.603 20.2073L89.3652 17.0032Z" fill="#8F9AA0"/>
</g>
<path d="M151.367 148.928C149.333 158.108 147.6 164.895 147.053 166.331C145 171.225 90.0461 191.455 81.7192 192.042C73.3923 192.629 29.5914 175.336 22.847 169.354C21.9992 168.615 20.737 163.677 19.3429 156.52V156.39C14.8215 133.615 8.66119 88.5433 9.03797 83.1052C9.54663 75.8398 67.0624 58.938 79.1382 60.5042C95.5659 62.6795 156.548 76.3619 161.107 81.7565C164.291 85.5415 156.755 125.24 151.367 148.928Z" fill="#C0C4C6"/>
<path d="M9.0005 83.0178C9.15121 86.7592 73.4114 112.797 86.3539 113.015C99.2964 113.232 154.891 87.3465 158.866 83.0178C162.841 78.689 100.69 63.4403 81.2296 60.5038C61.7688 57.5672 8.81211 78.7542 9.0005 83.0178Z" fill="#D6D6D6"/>
<g style="mix-blend-mode:multiply" opacity="0.5">
<path d="M91.0068 114.058C87.239 116.081 83.622 186.277 84.0364 188.974C84.4509 191.672 145.678 171.572 147.053 166.265C148.428 160.957 164.743 95.1554 161.804 89.0864C158.865 83.0175 91.0068 114.058 91.0068 114.058Z" fill="#8F9AA0"/>
</g>
<path d="M148.296 81.8434C148.861 86.7812 102.781 105.097 86.2967 107.098C79.8537 107.859 21.0193 86.5419 18.7774 81.8434C16.5355 77.1448 63.1247 63.1797 79.0626 63.1797C95.0005 63.1797 147.693 76.8403 148.296 81.8434Z" fill="url(#paint1_linear_1996_303566)"/>
<g style="mix-blend-mode:multiply" opacity="0.2">
<path d="M79.0057 63.1797V105.749C72.5628 106.533 21.019 86.5419 18.7206 81.8216C16.4222 77.1013 63.1244 63.1797 79.0057 63.1797Z" fill="#B3C1C8"/>
</g>
<g style="mix-blend-mode:multiply" opacity="0.5">
<path d="M151.368 148.929C149.334 158.109 147.6 164.896 147.054 166.331C145.001 171.226 90.0469 191.456 81.72 192.043C73.3931 192.63 29.5922 175.337 22.8478 169.355C22 168.615 20.7378 163.677 19.3438 156.521C19.7959 157.717 23.997 165.723 42.4405 176.165C62.1086 187.28 82.4925 188.845 84.0373 189.041C85.5821 189.237 137.182 172.574 143.738 165.57C147.337 161.676 149.861 154.541 151.368 148.929Z" fill="#50575C"/>
</g>
<path d="M130.737 126.431C130.538 127.19 129.462 127.19 129.263 126.431L128.192 122.351C128.122 122.085 127.915 121.878 127.648 121.808L123.569 120.737C122.81 120.538 122.81 119.462 123.569 119.263L127.648 118.192C127.915 118.122 128.122 117.915 128.192 117.648L129.263 113.569C129.462 112.81 130.538 112.81 130.737 113.569L131.808 117.648C131.878 117.915 132.085 118.122 132.352 118.192L136.431 119.263C137.19 119.462 137.19 120.538 136.431 120.737L132.352 121.808C132.085 121.878 131.878 122.085 131.808 122.351L130.737 126.431Z" fill="white"/>
<mask id="mask0_1996_303566" style="mask-type:alpha" maskUnits="userSpaceOnUse" x="12" y="110" width="77" height="42">
<path d="M16 136.5L12 110C23.3333 110.667 46.2 112 47 112C47.8 112 75 120.667 88.5 125L86 151.5L42.5 147.5L16 136.5Z" fill="#C4C4C4"/>
</mask>
<g mask="url(#mask0_1996_303566)">
<path d="M-0.110643 125.835C-0.110643 125.835 0.0562318 113.604 2.31088 108.912C4.56553 104.221 91.8526 133.455 91.8526 133.455L85.4993 154.87C85.4993 154.87 23.3932 139.435 -0.110643 125.835Z" fill="#E4E4E4"/>
<path d="M42.8225 138.575L44.16 134.089C44.16 134.089 41.2913 129.677 42.7265 127.279C43.045 126.794 43.4667 126.386 43.9615 126.084C44.4563 125.782 45.0118 125.593 45.5883 125.531C46.1647 125.469 46.7477 125.535 47.2955 125.724C47.8434 125.914 48.3424 126.223 48.7569 126.628C49.6846 128.079 46.9321 134.104 46.9321 134.104L48.7224 139.446L42.8225 138.575Z" fill="#6B7478"/>
<path d="M2.24702 108.892L9.31421 108.634C9.31421 108.634 66.1721 122.731 91.8328 133.449C91.7887 133.434 41.3061 121.917 2.24702 108.892Z" fill="#E8ECEE"/>
<g style="mix-blend-mode:multiply" opacity="0.2">
<path d="M102.258 138.42C102.543 136.059 68.0724 129.505 64.5105 129.427C60.9485 129.35 54.0596 141.981 55.9935 143.743C57.9274 145.505 96.9169 156.344 97.8391 155.944C98.7612 155.544 102.258 138.42 102.258 138.42Z" fill="#8F9AA0"/>
</g>
<path d="M5.81597 111.057C0.827242 110.766 10.8755 120.342 15.4011 121.926C19.9268 123.51 30.3164 118.457 30.3164 118.457L5.81597 111.057Z" fill="white"/>
</g>
<path d="M44.1356 77.9646C43.249 77.6844 42.2003 77.2897 40.9896 76.7804C39.8124 76.3134 38.6315 75.7818 37.4469 75.1857C36.2921 74.5674 35.276 73.9295 34.3987 73.2721L33.9768 65.9628C34.7573 66.5579 35.6458 67.1397 36.6423 67.708C37.6704 68.2863 38.6949 68.8001 39.7156 69.2494C40.7363 69.6987 41.595 70.0334 42.2916 70.2535C44.0332 70.8038 45.2839 70.9297 46.0439 70.6313C46.8355 70.3428 47.1969 69.6016 47.128 68.4076C47.0628 67.2781 46.7312 66.3813 46.1333 65.7172C45.5336 65.0207 44.442 64.4224 42.8588 63.9221L33.5494 60.9804L33.3091 56.8175L33.3315 43.4706L53.1378 49.7292L52.9226 56.5045L41.3808 52.8574L41.3529 57.2207L44.8202 58.3163C48.525 59.487 51.3124 61.1915 53.1825 63.4299C55.0525 65.6683 56.0807 68.401 56.267 71.6281C56.4458 74.726 55.5293 76.8918 53.5177 78.1254C51.5377 79.369 48.4104 79.3154 44.1356 77.9646Z" fill="#6B7478"/>
<path d="M73.8885 87.3662C70.3737 86.2555 67.5043 84.7469 65.2803 82.8402C63.0862 80.9113 61.4293 78.5977 60.3099 75.8995C59.1905 73.2013 58.5311 70.1258 58.3318 66.6728C58.1325 63.2199 58.4548 60.4545 59.2985 58.3767C60.1423 56.2988 61.5896 54.982 63.6403 54.4261C65.7209 53.8479 68.5186 54.1141 72.0334 55.2248C77.2897 56.8857 81.1221 59.459 83.5305 62.9447C85.937 66.3981 87.2902 70.7225 87.59 75.9181C87.8881 81.0814 86.9931 84.6954 84.905 86.7603C82.817 88.8252 79.1448 89.0271 73.8885 87.3662ZM73.4415 79.6212C75.4997 80.2716 76.8845 80.0281 77.5961 78.8906C78.3374 77.7308 78.6289 75.7794 78.4706 73.0365C78.3104 70.2612 77.7786 68.0497 76.8753 66.4019C76.0036 64.7641 74.5386 63.62 72.4804 62.9697C70.4222 62.3193 69.0215 62.5579 68.2783 63.6853C67.5668 64.8228 67.2911 66.7792 67.4513 69.5545C67.6096 72.2975 68.1255 74.504 68.9991 76.174C69.9025 77.8218 71.3833 78.9709 73.4415 79.6212Z" fill="#6B7478"/>
<path d="M105.522 97.3621C102.008 96.2514 99.1381 94.7428 96.9142 92.8361C94.72 90.9072 93.0632 88.5936 91.9437 85.8955C90.8243 83.1973 90.1649 80.1217 89.9656 76.6688C89.7663 73.2158 90.0886 70.4504 90.9324 68.3726C91.7761 66.2947 93.2234 64.9779 95.2742 64.422C97.3547 63.8438 100.152 64.11 103.667 65.2207C108.924 66.8816 112.756 69.4549 115.164 72.9406C117.571 76.394 118.924 80.7185 119.224 85.914C119.522 91.0773 118.627 94.6914 116.539 96.7562C114.451 98.8211 110.779 99.023 105.522 97.3621ZM105.075 89.6172C107.134 90.2675 108.518 90.024 109.23 88.8865C109.971 87.7267 110.263 85.7754 110.104 83.0324C109.944 80.2571 109.412 78.0456 108.509 76.3978C107.637 74.76 106.172 73.616 104.114 72.9656C102.056 72.3152 100.655 72.5538 99.9121 73.6813C99.2006 74.8188 98.9249 76.7751 99.0851 79.5504C99.2434 82.2934 99.7594 84.4999 100.633 86.1699C101.536 87.8177 103.017 88.9668 105.075 89.6172Z" fill="#6B7478"/>
<path fill-rule="evenodd" clip-rule="evenodd" d="M36.4195 68.0082C36.4992 68.0547 36.5796 68.101 36.6607 68.1473C37.6889 68.7256 38.7133 69.2394 39.7341 69.6887C40.7548 70.1379 41.6135 70.4726 42.3101 70.6928C44.0516 71.2431 45.3024 71.369 46.0624 71.0705C46.854 70.7821 47.2153 70.0409 47.1464 68.8469C47.0812 67.7174 46.7497 66.8206 46.1518 66.1564C45.552 65.46 44.4605 64.8616 42.8773 64.3613L33.5678 61.4197L33.3276 57.2568L33.3499 43.9099L53.1562 50.1685L52.9411 56.9438L41.3993 53.2967L41.3713 57.66L44.8386 58.7556C48.5434 59.9263 51.3308 61.6308 53.2009 63.8692C55.071 66.1076 56.0992 68.8403 56.2854 72.0673C56.4642 75.1653 55.5478 77.3311 53.5362 78.5647C51.5562 79.8082 48.4288 79.7546 44.1541 78.4039C43.2675 78.1237 42.2188 77.729 41.0081 77.2197C39.8309 76.7527 38.65 76.2211 37.4654 75.625C36.3105 75.0066 35.2945 74.3687 34.4172 73.7113L33.9953 66.4021C34.7122 66.9488 35.5203 67.4841 36.4195 68.0082ZM40.9269 79.5601C39.6739 79.062 38.4185 78.4963 37.1611 77.8636L37.1238 77.8448L37.0865 77.8249C35.812 77.1424 34.637 76.4101 33.5803 75.6183L32.1331 74.5338L31.4752 63.1346L31.3327 63.0895L30.9485 56.4332L30.9747 40.7832L55.6155 48.5694L55.2509 60.0498L48.8797 58.0366C51.1329 59.1977 53.117 60.694 54.7145 62.6062C55.1537 63.132 55.5531 63.6724 55.9143 64.2258C55.9223 61.4773 56.2912 59.1128 57.0726 57.1886C58.0826 54.7015 59.8513 53.0729 62.361 52.3911C64.9034 51.6863 68.1483 52.0544 71.9121 53.2437C77.5203 55.0158 82.1965 57.9465 85.2866 62.4149C86.5628 64.2476 87.5588 66.2289 88.3026 68.3377C88.4224 67.9374 88.5568 67.5529 88.7064 67.1845C89.7164 64.6974 91.4853 63.0686 93.9952 62.387C96.5374 61.6822 99.7823 62.0504 103.546 63.2397C109.154 65.0118 113.83 67.9425 116.92 72.4108C119.846 76.6123 121.299 81.5948 121.617 87.1037C121.934 92.5901 121.008 96.8127 118.478 99.315C115.799 101.964 111.291 101.995 105.68 100.222C101.922 99.0341 98.6085 97.3475 95.896 95.0221L95.8773 95.006L95.8586 94.9896C93.1856 92.6397 91.1643 89.8041 89.8257 86.5777C89.6255 86.0951 89.4393 85.6053 89.2668 85.1085C88.7435 86.8132 87.9458 88.2293 86.8438 89.3191C84.1648 91.9684 79.6576 91.9987 74.0466 90.2257C70.2885 89.0382 66.9746 87.3516 64.2622 85.0262L64.2434 85.0101L64.2248 84.9937C61.6091 82.6942 59.6174 79.9294 58.2789 76.7886C57.7604 78.5545 56.7445 79.9342 55.2169 80.873C52.6548 82.4781 48.8528 82.2647 44.2938 80.8242C43.3079 80.5126 42.1816 80.0872 40.9269 79.5601ZM115.183 73.3799C112.774 69.8942 108.942 67.3209 103.686 65.6599C100.171 64.5493 97.3732 64.2831 95.2926 64.8612C93.2419 65.4171 91.7946 66.734 90.9508 68.8118C90.107 70.8897 89.7848 73.6551 89.9841 77.108C90.1834 80.561 90.8428 83.6365 91.9622 86.3347C93.0816 89.0329 94.7384 91.3465 96.9326 93.2754C99.1566 95.1821 102.026 96.6907 105.541 97.8013C110.797 99.4623 114.469 99.2603 116.557 97.1955C118.645 95.1306 119.54 91.5165 119.242 86.3533C118.942 81.1577 117.589 76.8333 115.183 73.3799ZM83.5489 63.3839C81.1405 59.8983 77.3082 57.325 72.0518 55.664C68.537 54.5534 65.7394 54.2872 63.6588 54.8653C61.608 55.4212 60.1608 56.7381 59.317 58.8159C58.4732 60.8938 58.151 63.6592 58.3503 67.1121C58.5496 70.565 59.2089 73.6406 60.3284 76.3388C61.4478 79.037 63.1046 81.3506 65.2988 83.2795C67.5228 85.1861 70.3922 86.6948 73.9069 87.8054C79.1633 89.4664 82.8355 89.2644 84.9235 87.1996C87.0115 85.1347 87.9065 81.5206 87.6085 76.3574C87.3086 71.1618 85.9554 66.8373 83.5489 63.3839ZM34.1611 63.9833L43.017 66.7816C43.6969 66.9965 44.1694 67.2017 44.4754 67.3694C44.5683 67.4203 44.6343 67.4615 44.6784 67.4909C44.7097 67.5934 44.7538 67.7884 44.7716 68.0964C44.7898 68.4134 44.7435 68.5378 44.7267 68.5722C44.7183 68.5896 44.7112 68.5972 44.7055 68.6023C44.6994 68.6078 44.6833 68.6205 44.6458 68.6342L44.6285 68.6405L44.6114 68.6472C44.4299 68.7185 43.7736 68.7791 42.1704 68.2725C41.606 68.0941 40.8531 67.8041 39.89 67.3802C38.9698 66.9751 38.0433 66.5108 37.11 65.9862C36.2274 65.4824 35.481 64.9898 34.8578 64.5146L34.1611 63.9833ZM75.495 77.4585L75.4989 77.4525C75.9561 76.7372 76.2623 75.2906 76.1142 72.7253C75.9635 70.115 75.4728 68.4346 74.9338 67.4513L74.9222 67.4301L74.9108 67.4089C74.6513 66.9213 74.1481 66.3062 72.6385 65.8292C71.1518 65.3595 70.6541 65.6469 70.4103 66.0056C69.9857 66.699 69.6945 68.144 69.8446 70.7442C69.9915 73.2899 70.4575 74.9888 70.9947 76.034C71.2911 76.5604 71.8439 77.1737 73.3202 77.6402C74.8298 78.1172 75.2794 77.8032 75.4912 77.4646L75.495 77.4585ZM68.2967 64.1246C69.0399 62.9971 70.4406 62.7586 72.4988 63.4089C74.557 64.0593 76.022 65.2034 76.8937 66.8412C77.7971 68.4889 78.3289 70.7005 78.489 73.4757C78.6474 76.2187 78.3559 78.1701 77.6145 79.3298C76.903 80.4673 75.5181 80.7109 73.4599 80.0605C71.4017 79.4101 69.9209 78.2611 69.0175 76.6133C68.144 74.9432 67.628 72.7367 67.4697 69.9937C67.3095 67.2185 67.5852 65.2621 68.2967 64.1246ZM107.129 87.4544L107.133 87.4484C107.59 86.7332 107.896 85.2865 107.748 82.7212C107.597 80.1109 107.107 78.4305 106.568 77.4472L106.556 77.4261L106.545 77.4048C106.285 76.9172 105.782 76.3022 104.272 75.8251C102.786 75.3554 102.288 75.6428 102.044 76.0014C101.62 76.6949 101.328 78.1398 101.478 80.7401C101.625 83.2858 102.091 84.9847 102.628 86.0299C102.925 86.5563 103.478 87.1696 104.954 87.6361C106.464 88.1131 106.913 87.7992 107.125 87.4605L107.129 87.4544ZM99.9306 74.1205C100.674 72.993 102.074 72.7545 104.133 73.4049C106.191 74.0552 107.656 75.1993 108.528 76.8371C109.431 78.4849 109.963 80.6964 110.123 83.4716C110.281 86.2146 109.99 88.166 109.248 89.3257C108.537 90.4632 107.152 90.7068 105.094 90.0564C103.036 89.4061 101.555 88.257 100.651 86.6092C99.7778 84.9392 99.2619 82.7326 99.1035 79.9897C98.9434 77.2144 99.219 75.258 99.9306 74.1205Z" fill="#E8ECEE"/>
<mask id="mask1_1996_303566" style="mask-type:alpha" maskUnits="userSpaceOnUse" x="55" y="84" width="115" height="116">
<path d="M124.058 165.557C144.984 146.098 152.631 117.288 162.721 91.4155L169.078 84L152.578 179.141L74.5776 199.089L55 184.978C63.2812 184.978 78.4328 189.53 86.0776 186.557C99.9123 181.176 113.036 175.807 124.058 165.557Z" fill="#C4C4C4"/>
</mask>
<g mask="url(#mask1_1996_303566)">
<g style="mix-blend-mode:multiply" opacity="0.5">
<path d="M91.583 114.147C87.8151 116.17 84.1981 186.366 84.6126 189.063C85.027 191.76 146.254 171.661 147.629 166.353C149.005 161.046 165.319 95.2443 162.38 89.1753C159.441 83.1063 91.583 114.147 91.583 114.147Z" fill="#8F9AA0"/>
</g>
</g>
</g>
<g style="mix-blend-mode:color-burn" opacity="0.5">
<path d="M66 66.154C66 66.154 85.1811 17.1116 89.3661 17.0026C93.551 16.8936 175.049 20.2285 179.604 20.2503C184.16 20.2721 160.946 84.7029 160.946 84.7029C160.946 84.7029 124.72 68.944 66 66.154Z" fill="url(#paint2_linear_1996_303566)"/>
<path d="M179.604 20.2505C179.604 20.2505 183.964 23.8687 183.964 26.5279C183.964 29.1871 159.661 89.7381 159.661 89.7381L158.68 83.3953L179.604 20.2505Z" fill="#6B7478"/>
<g style="mix-blend-mode:multiply" opacity="0.2">
<path d="M70.3593 60.0299C69.8798 66.5689 99.0873 41.6336 125.243 32.3918C151.399 23.15 172.629 26.1797 173.392 23.1718C174.155 20.1639 97.3655 18.0278 92.2651 18.6381C87.1646 19.2484 71.3184 47.1481 70.3593 60.0299Z" fill="#8F9AA0"/>
</g>
<g style="mix-blend-mode:multiply" opacity="0.3">
<path d="M89.3652 17.0032C89.3652 17.0032 126.31 20.1201 142.287 21.3625C154.737 21.9568 167.214 21.5706 179.603 20.2073L89.3652 17.0032Z" fill="#8F9AA0"/>
</g>
<path d="M151.367 148.928C149.333 158.108 147.6 164.895 147.053 166.331C145 171.225 90.0461 191.455 81.7192 192.042C73.3923 192.629 29.5914 175.336 22.847 169.354C21.9992 168.615 20.737 163.677 19.3429 156.52V156.39C14.8215 133.615 8.66119 88.5433 9.03797 83.1052C9.54663 75.8398 67.0624 58.938 79.1382 60.5042C95.5659 62.6795 156.548 76.3619 161.107 81.7565C164.291 85.5415 156.755 125.24 151.367 148.928Z" fill="#C0C4C6"/>
<path d="M9.0005 83.0178C9.15121 86.7592 73.4114 112.797 86.3539 113.015C99.2964 113.232 154.891 87.3465 158.866 83.0178C162.841 78.689 100.69 63.4403 81.2296 60.5038C61.7688 57.5672 8.81211 78.7542 9.0005 83.0178Z" fill="#D6D6D6"/>
<g style="mix-blend-mode:multiply" opacity="0.5">
<path d="M91.0068 114.058C87.239 116.081 83.622 186.277 84.0364 188.974C84.4509 191.672 145.678 171.572 147.053 166.265C148.428 160.957 164.743 95.1554 161.804 89.0864C158.865 83.0175 91.0068 114.058 91.0068 114.058Z" fill="#8F9AA0"/>
</g>
<path d="M148.296 81.8434C148.861 86.7812 102.781 105.097 86.2967 107.098C79.8537 107.859 21.0193 86.5419 18.7774 81.8434C16.5355 77.1448 63.1247 63.1797 79.0626 63.1797C95.0005 63.1797 147.693 76.8403 148.296 81.8434Z" fill="url(#paint3_linear_1996_303566)"/>
<g style="mix-blend-mode:multiply" opacity="0.2">
<path d="M79.0057 63.1797V105.749C72.5628 106.533 21.019 86.5419 18.7206 81.8216C16.4222 77.1013 63.1244 63.1797 79.0057 63.1797Z" fill="#B3C1C8"/>
</g>
<g style="mix-blend-mode:multiply" opacity="0.5">
<path d="M151.368 148.929C149.334 158.109 147.6 164.896 147.054 166.331C145.001 171.226 90.0469 191.456 81.72 192.043C73.3931 192.63 29.5922 175.337 22.8478 169.355C22 168.615 20.7378 163.677 19.3438 156.521C19.7959 157.717 23.997 165.723 42.4405 176.165C62.1086 187.28 82.4925 188.845 84.0373 189.041C85.5821 189.237 137.182 172.574 143.738 165.57C147.337 161.676 149.861 154.541 151.368 148.929Z" fill="#50575C"/>
</g>
<path d="M130.737 126.431C130.538 127.19 129.462 127.19 129.263 126.431L128.192 122.351C128.122 122.085 127.915 121.878 127.648 121.808L123.569 120.737C122.81 120.538 122.81 119.462 123.569 119.263L127.648 118.192C127.915 118.122 128.122 117.915 128.192 117.648L129.263 113.569C129.462 112.81 130.538 112.81 130.737 113.569L131.808 117.648C131.878 117.915 132.085 118.122 132.352 118.192L136.431 119.263C137.19 119.462 137.19 120.538 136.431 120.737L132.352 121.808C132.085 121.878 131.878 122.085 131.808 122.351L130.737 126.431Z" fill="white"/>
<mask id="mask2_1996_303566" style="mask-type:alpha" maskUnits="userSpaceOnUse" x="12" y="110" width="77" height="42">
<path d="M16 136.5L12 110C23.3333 110.667 46.2 112 47 112C47.8 112 75 120.667 88.5 125L86 151.5L42.5 147.5L16 136.5Z" fill="#C4C4C4"/>
</mask>
<g mask="url(#mask2_1996_303566)">
<path d="M-0.110643 125.835C-0.110643 125.835 0.0562318 113.604 2.31088 108.912C4.56553 104.221 91.8526 133.455 91.8526 133.455L85.4993 154.87C85.4993 154.87 23.3932 139.435 -0.110643 125.835Z" fill="#E4E4E4"/>
<path d="M42.8225 138.575L44.16 134.089C44.16 134.089 41.2913 129.677 42.7265 127.279C43.045 126.794 43.4667 126.386 43.9615 126.084C44.4563 125.782 45.0118 125.593 45.5883 125.531C46.1647 125.469 46.7477 125.535 47.2955 125.724C47.8434 125.914 48.3424 126.223 48.7569 126.628C49.6846 128.079 46.9321 134.104 46.9321 134.104L48.7224 139.446L42.8225 138.575Z" fill="#6B7478"/>
<path d="M2.24702 108.892L9.31421 108.634C9.31421 108.634 66.1721 122.731 91.8328 133.449C91.7887 133.434 41.3061 121.917 2.24702 108.892Z" fill="#E8ECEE"/>
<g style="mix-blend-mode:multiply" opacity="0.2">
<path d="M102.258 138.42C102.543 136.059 68.0724 129.505 64.5105 129.427C60.9485 129.35 54.0596 141.981 55.9935 143.743C57.9274 145.505 96.9169 156.344 97.8391 155.944C98.7612 155.544 102.258 138.42 102.258 138.42Z" fill="#8F9AA0"/>
</g>
<path d="M5.81597 111.057C0.827242 110.766 10.8755 120.342 15.4011 121.926C19.9268 123.51 30.3164 118.457 30.3164 118.457L5.81597 111.057Z" fill="white"/>
</g>
<path d="M44.1356 77.9646C43.249 77.6844 42.2003 77.2897 40.9896 76.7804C39.8124 76.3134 38.6315 75.7818 37.4469 75.1857C36.2921 74.5674 35.276 73.9295 34.3987 73.2721L33.9768 65.9628C34.7573 66.5579 35.6458 67.1397 36.6423 67.708C37.6704 68.2863 38.6949 68.8001 39.7156 69.2494C40.7363 69.6987 41.595 70.0334 42.2916 70.2535C44.0332 70.8038 45.2839 70.9297 46.0439 70.6313C46.8355 70.3428 47.1969 69.6016 47.128 68.4076C47.0628 67.2781 46.7312 66.3813 46.1333 65.7172C45.5336 65.0207 44.442 64.4224 42.8588 63.9221L33.5494 60.9804L33.3091 56.8175L33.3315 43.4706L53.1378 49.7292L52.9226 56.5045L41.3808 52.8574L41.3529 57.2207L44.8202 58.3163C48.525 59.487 51.3124 61.1915 53.1825 63.4299C55.0525 65.6683 56.0807 68.401 56.267 71.6281C56.4458 74.726 55.5293 76.8918 53.5177 78.1254C51.5377 79.369 48.4104 79.3154 44.1356 77.9646Z" fill="#6B7478"/>
<path d="M73.8885 87.3662C70.3737 86.2555 67.5043 84.7469 65.2803 82.8402C63.0862 80.9113 61.4293 78.5977 60.3099 75.8995C59.1905 73.2013 58.5311 70.1258 58.3318 66.6728C58.1325 63.2199 58.4548 60.4545 59.2985 58.3767C60.1423 56.2988 61.5896 54.982 63.6403 54.4261C65.7209 53.8479 68.5186 54.1141 72.0334 55.2248C77.2897 56.8857 81.1221 59.459 83.5305 62.9447C85.937 66.3981 87.2902 70.7225 87.59 75.9181C87.8881 81.0814 86.9931 84.6954 84.905 86.7603C82.817 88.8252 79.1448 89.0271 73.8885 87.3662ZM73.4415 79.6212C75.4997 80.2716 76.8845 80.0281 77.5961 78.8906C78.3374 77.7308 78.6289 75.7794 78.4706 73.0365C78.3104 70.2612 77.7786 68.0497 76.8753 66.4019C76.0036 64.7641 74.5386 63.62 72.4804 62.9697C70.4222 62.3193 69.0215 62.5579 68.2783 63.6853C67.5668 64.8228 67.2911 66.7792 67.4513 69.5545C67.6096 72.2975 68.1255 74.504 68.9991 76.174C69.9025 77.8218 71.3833 78.9709 73.4415 79.6212Z" fill="#6B7478"/>
<path d="M105.522 97.3621C102.008 96.2514 99.1381 94.7428 96.9142 92.8361C94.72 90.9072 93.0632 88.5936 91.9437 85.8955C90.8243 83.1973 90.1649 80.1217 89.9656 76.6688C89.7663 73.2158 90.0886 70.4504 90.9324 68.3726C91.7761 66.2947 93.2234 64.9779 95.2742 64.422C97.3547 63.8438 100.152 64.11 103.667 65.2207C108.924 66.8816 112.756 69.4549 115.164 72.9406C117.571 76.394 118.924 80.7185 119.224 85.914C119.522 91.0773 118.627 94.6914 116.539 96.7562C114.451 98.8211 110.779 99.023 105.522 97.3621ZM105.075 89.6172C107.134 90.2675 108.518 90.024 109.23 88.8865C109.971 87.7267 110.263 85.7754 110.104 83.0324C109.944 80.2571 109.412 78.0456 108.509 76.3978C107.637 74.76 106.172 73.616 104.114 72.9656C102.056 72.3152 100.655 72.5538 99.9121 73.6813C99.2006 74.8188 98.9249 76.7751 99.0851 79.5504C99.2434 82.2934 99.7594 84.4999 100.633 86.1699C101.536 87.8177 103.017 88.9668 105.075 89.6172Z" fill="#6B7478"/>
<path fill-rule="evenodd" clip-rule="evenodd" d="M36.4195 68.0082C36.4992 68.0547 36.5796 68.101 36.6607 68.1473C37.6889 68.7256 38.7133 69.2394 39.7341 69.6887C40.7548 70.1379 41.6135 70.4726 42.3101 70.6928C44.0516 71.2431 45.3024 71.369 46.0624 71.0705C46.854 70.7821 47.2153 70.0409 47.1464 68.8469C47.0812 67.7174 46.7497 66.8206 46.1518 66.1564C45.552 65.46 44.4605 64.8616 42.8773 64.3613L33.5678 61.4197L33.3276 57.2568L33.3499 43.9099L53.1562 50.1685L52.9411 56.9438L41.3993 53.2967L41.3713 57.66L44.8386 58.7556C48.5434 59.9263 51.3308 61.6308 53.2009 63.8692C55.071 66.1076 56.0992 68.8403 56.2854 72.0673C56.4642 75.1653 55.5478 77.3311 53.5362 78.5647C51.5562 79.8082 48.4288 79.7546 44.1541 78.4039C43.2675 78.1237 42.2188 77.729 41.0081 77.2197C39.8309 76.7527 38.65 76.2211 37.4654 75.625C36.3105 75.0066 35.2945 74.3687 34.4172 73.7113L33.9953 66.4021C34.7122 66.9488 35.5203 67.4841 36.4195 68.0082ZM40.9269 79.5601C39.6739 79.062 38.4185 78.4963 37.1611 77.8636L37.1238 77.8448L37.0865 77.8249C35.812 77.1424 34.637 76.4101 33.5803 75.6183L32.1331 74.5338L31.4752 63.1346L31.3327 63.0895L30.9485 56.4332L30.9747 40.7832L55.6155 48.5694L55.2509 60.0498L48.8797 58.0366C51.1329 59.1977 53.117 60.694 54.7145 62.6062C55.1537 63.132 55.5531 63.6724 55.9143 64.2258C55.9223 61.4773 56.2912 59.1128 57.0726 57.1886C58.0826 54.7015 59.8513 53.0729 62.361 52.3911C64.9034 51.6863 68.1483 52.0544 71.9121 53.2437C77.5203 55.0158 82.1965 57.9465 85.2866 62.4149C86.5628 64.2476 87.5588 66.2289 88.3026 68.3377C88.4224 67.9374 88.5568 67.5529 88.7064 67.1845C89.7164 64.6974 91.4853 63.0686 93.9952 62.387C96.5374 61.6822 99.7823 62.0504 103.546 63.2397C109.154 65.0118 113.83 67.9425 116.92 72.4108C119.846 76.6123 121.299 81.5948 121.617 87.1037C121.934 92.5901 121.008 96.8127 118.478 99.315C115.799 101.964 111.291 101.995 105.68 100.222C101.922 99.0341 98.6085 97.3475 95.896 95.0221L95.8773 95.006L95.8586 94.9896C93.1856 92.6397 91.1643 89.8041 89.8257 86.5777C89.6255 86.0951 89.4393 85.6053 89.2668 85.1085C88.7435 86.8132 87.9458 88.2293 86.8438 89.3191C84.1648 91.9684 79.6576 91.9987 74.0466 90.2257C70.2885 89.0382 66.9746 87.3516 64.2622 85.0262L64.2434 85.0101L64.2248 84.9937C61.6091 82.6942 59.6174 79.9294 58.2789 76.7886C57.7604 78.5545 56.7445 79.9342 55.2169 80.873C52.6548 82.4781 48.8528 82.2647 44.2938 80.8242C43.3079 80.5126 42.1816 80.0872 40.9269 79.5601ZM115.183 73.3799C112.774 69.8942 108.942 67.3209 103.686 65.6599C100.171 64.5493 97.3732 64.2831 95.2926 64.8612C93.2419 65.4171 91.7946 66.734 90.9508 68.8118C90.107 70.8897 89.7848 73.6551 89.9841 77.108C90.1834 80.561 90.8428 83.6365 91.9622 86.3347C93.0816 89.0329 94.7384 91.3465 96.9326 93.2754C99.1566 95.1821 102.026 96.6907 105.541 97.8013C110.797 99.4623 114.469 99.2603 116.557 97.1955C118.645 95.1306 119.54 91.5165 119.242 86.3533C118.942 81.1577 117.589 76.8333 115.183 73.3799ZM83.5489 63.3839C81.1405 59.8983 77.3082 57.325 72.0518 55.664C68.537 54.5534 65.7394 54.2872 63.6588 54.8653C61.608 55.4212 60.1608 56.7381 59.317 58.8159C58.4732 60.8938 58.151 63.6592 58.3503 67.1121C58.5496 70.565 59.2089 73.6406 60.3284 76.3388C61.4478 79.037 63.1046 81.3506 65.2988 83.2795C67.5228 85.1861 70.3922 86.6948 73.9069 87.8054C79.1633 89.4664 82.8355 89.2644 84.9235 87.1996C87.0115 85.1347 87.9065 81.5206 87.6085 76.3574C87.3086 71.1618 85.9554 66.8373 83.5489 63.3839ZM34.1611 63.9833L43.017 66.7816C43.6969 66.9965 44.1694 67.2017 44.4754 67.3694C44.5683 67.4203 44.6343 67.4615 44.6784 67.4909C44.7097 67.5934 44.7538 67.7884 44.7716 68.0964C44.7898 68.4134 44.7435 68.5378 44.7267 68.5722C44.7183 68.5896 44.7112 68.5972 44.7055 68.6023C44.6994 68.6078 44.6833 68.6205 44.6458 68.6342L44.6285 68.6405L44.6114 68.6472C44.4299 68.7185 43.7736 68.7791 42.1704 68.2725C41.606 68.0941 40.8531 67.8041 39.89 67.3802C38.9698 66.9751 38.0433 66.5108 37.11 65.9862C36.2274 65.4824 35.481 64.9898 34.8578 64.5146L34.1611 63.9833ZM75.495 77.4585L75.4989 77.4525C75.9561 76.7372 76.2623 75.2906 76.1142 72.7253C75.9635 70.115 75.4728 68.4346 74.9338 67.4513L74.9222 67.4301L74.9108 67.4089C74.6513 66.9213 74.1481 66.3062 72.6385 65.8292C71.1518 65.3595 70.6541 65.6469 70.4103 66.0056C69.9857 66.699 69.6945 68.144 69.8446 70.7442C69.9915 73.2899 70.4575 74.9888 70.9947 76.034C71.2911 76.5604 71.8439 77.1737 73.3202 77.6402C74.8298 78.1172 75.2794 77.8032 75.4912 77.4646L75.495 77.4585ZM68.2967 64.1246C69.0399 62.9971 70.4406 62.7586 72.4988 63.4089C74.557 64.0593 76.022 65.2034 76.8937 66.8412C77.7971 68.4889 78.3289 70.7005 78.489 73.4757C78.6474 76.2187 78.3559 78.1701 77.6145 79.3298C76.903 80.4673 75.5181 80.7109 73.4599 80.0605C71.4017 79.4101 69.9209 78.2611 69.0175 76.6133C68.144 74.9432 67.628 72.7367 67.4697 69.9937C67.3095 67.2185 67.5852 65.2621 68.2967 64.1246ZM107.129 87.4544L107.133 87.4484C107.59 86.7332 107.896 85.2865 107.748 82.7212C107.597 80.1109 107.107 78.4305 106.568 77.4472L106.556 77.4261L106.545 77.4048C106.285 76.9172 105.782 76.3022 104.272 75.8251C102.786 75.3554 102.288 75.6428 102.044 76.0014C101.62 76.6949 101.328 78.1398 101.478 80.7401C101.625 83.2858 102.091 84.9847 102.628 86.0299C102.925 86.5563 103.478 87.1696 104.954 87.6361C106.464 88.1131 106.913 87.7992 107.125 87.4605L107.129 87.4544ZM99.9306 74.1205C100.674 72.993 102.074 72.7545 104.133 73.4049C106.191 74.0552 107.656 75.1993 108.528 76.8371C109.431 78.4849 109.963 80.6964 110.123 83.4716C110.281 86.2146 109.99 88.166 109.248 89.3257C108.537 90.4632 107.152 90.7068 105.094 90.0564C103.036 89.4061 101.555 88.257 100.651 86.6092C99.7778 84.9392 99.2619 82.7326 99.1035 79.9897C98.9434 77.2144 99.219 75.258 99.9306 74.1205Z" fill="#E8ECEE"/>
<mask id="mask3_1996_303566" style="mask-type:alpha" maskUnits="userSpaceOnUse" x="55" y="84" width="115" height="116">
<path d="M124.058 165.557C144.984 146.098 152.631 117.288 162.721 91.4155L169.078 84L152.578 179.141L74.5776 199.089L55 184.978C63.2812 184.978 78.4328 189.53 86.0776 186.557C99.9123 181.176 113.036 175.807 124.058 165.557Z" fill="#C4C4C4"/>
</mask>
<g mask="url(#mask3_1996_303566)">
<g style="mix-blend-mode:multiply" opacity="0.5">
<path d="M91.583 114.147C87.8151 116.17 84.1981 186.366 84.6126 189.063C85.027 191.76 146.254 171.661 147.629 166.353C149.005 161.046 165.319 95.2443 162.38 89.1753C159.441 83.1063 91.583 114.147 91.583 114.147Z" fill="#8F9AA0"/>
</g>
</g>
</g>
<g style="mix-blend-mode:color">
<path fill-rule="evenodd" clip-rule="evenodd" d="M71.2645 53.052C67.7663 52.0166 64.7398 51.7256 62.3395 52.3911C59.8298 53.0728 58.0611 54.7015 57.0511 57.1886C56.2909 59.0605 55.9212 61.3491 55.8943 64.0026C55.8515 64.0131 55.8087 64.0236 55.7659 64.0341C55.4387 63.5474 55.0814 63.0711 54.693 62.6062C53.0955 60.694 51.1114 59.1976 48.8582 58.0365L55.2294 60.0497L55.594 48.5694L30.9532 40.7832L30.927 56.4331L31.3112 63.0895L31.4537 63.1345L31.9102 71.0452C19.3254 75.3833 9.2283 80.0797 9.01649 83.1052C8.63971 88.5433 14.8 133.615 19.3214 156.39V156.52C20.7155 163.677 21.9777 168.615 22.8255 169.354C29.5699 175.336 73.3708 192.629 81.6977 192.042C90.0246 191.455 144.978 171.225 147.032 166.331C147.578 164.895 149.311 158.108 151.346 148.928C156.117 127.954 162.571 94.4292 161.777 84.3942C167.71 69.5402 183.942 28.701 183.942 26.5278C183.942 24.4033 181.16 21.6666 180.041 20.652C179.944 20.3894 179.793 20.2513 179.583 20.2503C177.625 20.2409 161.456 19.6196 143.32 18.9228C119.257 17.9981 91.7309 16.9405 89.3446 17.0026C86.579 17.0746 77.2646 38.516 71.2645 53.052ZM44.0779 67.1843C43.169 67.45 42.261 67.7203 41.3562 67.9945C40.9303 67.8331 40.4359 67.6298 39.8685 67.3801C38.9483 66.9751 38.0218 66.5108 37.0885 65.9862C36.2059 65.4823 35.4595 64.9897 34.8363 64.5145L34.1396 63.9832L42.9955 66.7816C43.4418 66.9226 43.7987 67.0595 44.0779 67.1843ZM53.1038 50.1586L53.1027 50.1583L52.9012 56.5041L52.9022 56.5045L53.1038 50.1586ZM41.3604 52.8577L41.3593 52.8574L41.3314 57.2207L41.3526 57.2274L41.3526 57.227L41.3325 57.2207L41.3604 52.8577Z" fill="url(#paint4_linear_1996_303566)"/>
</g>
</g>
<defs>
<linearGradient id="paint0_linear_1996_303566" x1="123.107" y1="84.7029" x2="123.107" y2="17.0026" gradientUnits="userSpaceOnUse">
<stop stop-color="#C0C4C6"/>
<stop offset="1" stop-color="#969DA1"/>
</linearGradient>
<linearGradient id="paint1_linear_1996_303566" x1="83.4898" y1="107.098" x2="84" y2="21" gradientUnits="userSpaceOnUse">
<stop stop-color="white"/>
<stop offset="1" stop-opacity="0"/>
</linearGradient>
<linearGradient id="paint2_linear_1996_303566" x1="123.107" y1="84.7029" x2="123.107" y2="17.0026" gradientUnits="userSpaceOnUse">
<stop stop-color="#C0C4C6"/>
<stop offset="1" stop-color="#969DA1"/>
</linearGradient>
<linearGradient id="paint3_linear_1996_303566" x1="83.4898" y1="107.098" x2="84" y2="21" gradientUnits="userSpaceOnUse">
<stop stop-color="white"/>
<stop offset="1" stop-opacity="0"/>
</linearGradient>
<linearGradient id="paint4_linear_1996_303566" x1="-8.00002" y1="81.5" x2="160.491" y2="173.752" gradientUnits="userSpaceOnUse">
<stop stop-color="#FFDB44"/>
<stop offset="1" stop-color="#FD9B13" stop-opacity="0.08"/>
</linearGradient>
<clipPath id="clip0_1996_303566">
<rect width="192" height="192" fill="white"/>
</clipPath>
</defs>
</svg>
