<svg width="192" height="192" viewBox="0 0 192 192" fill="none" xmlns="http://www.w3.org/2000/svg">
<g clip-path="url(#clip0_2067_307440)">
<path d="M76 66.154C76 66.154 95.1811 17.1116 99.3661 17.0026C103.551 16.8936 185.049 20.2285 189.604 20.2503C194.16 20.2721 170.946 84.7029 170.946 84.7029C170.946 84.7029 134.72 68.944 76 66.154Z" fill="url(#paint0_linear_2067_307440)"/>
<path d="M189.604 20.2505C189.604 20.2505 193.964 23.8687 193.964 26.5279C193.964 29.1871 169.661 89.7381 169.661 89.7381L168.68 83.3953L189.604 20.2505Z" fill="#6B7478"/>
<g style="mix-blend-mode:multiply" opacity="0.2">
<path d="M80.3593 60.0299C79.8798 66.5689 109.087 41.6336 135.243 32.3918C161.399 23.15 182.629 26.1797 183.392 23.1718C184.155 20.1639 107.365 18.0278 102.265 18.6381C97.1646 19.2484 81.3184 47.1481 80.3593 60.0299Z" fill="#8F9AA0"/>
</g>
<g style="mix-blend-mode:multiply" opacity="0.3">
<path d="M99.3652 17.0032C99.3652 17.0032 136.31 20.1201 152.287 21.3625C164.737 21.9568 177.214 21.5706 189.603 20.2073L99.3652 17.0032Z" fill="#8F9AA0"/>
</g>
<path d="M161.367 148.928C159.333 158.108 157.6 164.895 157.053 166.331C155 171.225 100.046 191.455 91.7192 192.042C83.3923 192.629 39.5914 175.336 32.847 169.354C31.9992 168.615 30.737 163.677 29.3429 156.52V156.39C24.8215 133.615 18.6612 88.5433 19.038 83.1052C19.5466 75.8398 77.0624 58.938 89.1382 60.5042C105.566 62.6795 166.548 76.3619 171.107 81.7565C174.291 85.5415 166.755 125.24 161.367 148.928Z" fill="#C0C4C6"/>
<path d="M19.0005 83.0178C19.1512 86.7592 83.4114 112.797 96.3539 113.015C109.296 113.232 164.891 87.3465 168.866 83.0178C172.841 78.689 110.69 63.4403 91.2296 60.5038C71.7688 57.5672 18.8121 78.7542 19.0005 83.0178Z" fill="#D6D6D6"/>
<g style="mix-blend-mode:multiply" opacity="0.5">
<path d="M101.007 114.058C97.239 116.081 93.622 186.277 94.0364 188.974C94.4509 191.672 155.678 171.572 157.053 166.265C158.428 160.957 174.743 95.1554 171.804 89.0864C168.865 83.0175 101.007 114.058 101.007 114.058Z" fill="#8F9AA0"/>
</g>
<path d="M158.296 81.8434C158.861 86.7812 112.781 105.097 96.2967 107.098C89.8537 107.859 31.0193 86.5419 28.7774 81.8434C26.5355 77.1448 73.1247 63.1797 89.0626 63.1797C105 63.1797 157.693 76.8403 158.296 81.8434Z" fill="url(#paint1_linear_2067_307440)"/>
<g style="mix-blend-mode:multiply" opacity="0.2">
<path d="M89.0057 63.1797V105.749C82.5628 106.533 31.019 86.5419 28.7206 81.8216C26.4222 77.1013 73.1244 63.1797 89.0057 63.1797Z" fill="#B3C1C8"/>
</g>
<g style="mix-blend-mode:multiply" opacity="0.5">
<path d="M161.368 148.929C159.334 158.109 157.6 164.896 157.054 166.331C155.001 171.226 100.047 191.456 91.72 192.043C83.3931 192.63 39.5922 175.337 32.8478 169.355C32 168.615 30.7378 163.677 29.3438 156.521C29.7959 157.717 33.997 165.723 52.4405 176.165C72.1086 187.28 92.4925 188.845 94.0373 189.041C95.5821 189.237 147.182 172.574 153.738 165.57C157.337 161.676 159.861 154.541 161.368 148.929Z" fill="#50575C"/>
</g>
<mask id="mask0_2067_307440" style="mask-type:alpha" maskUnits="userSpaceOnUse" x="22" y="110" width="77" height="42">
<path d="M26 136.5L22 110C33.3333 110.667 56.2 112 57 112C57.8 112 85 120.667 98.5 125L96 151.5L52.5 147.5L26 136.5Z" fill="#C4C4C4"/>
</mask>
<g mask="url(#mask0_2067_307440)">
<path d="M9.88936 125.835C9.88936 125.835 10.0562 113.603 12.3109 108.912C14.5655 104.22 101.853 133.455 101.853 133.455L95.4993 154.869C95.4993 154.869 33.3932 139.434 9.88936 125.835Z" fill="#E4E4E4"/>
<path d="M52.8225 138.575L54.16 134.088C54.16 134.088 51.2913 129.677 52.7265 127.278C53.045 126.794 53.4667 126.386 53.9615 126.084C54.4563 125.782 55.0118 125.593 55.5883 125.53C56.1647 125.468 56.7477 125.534 57.2955 125.724C57.8434 125.914 58.3424 126.223 58.7569 126.628C59.6846 128.079 56.9321 134.104 56.9321 134.104L58.7224 139.446L52.8225 138.575Z" fill="#6B7478"/>
<path d="M12.247 108.891L19.3142 108.634C19.3142 108.634 76.1721 122.731 101.833 133.449C101.789 133.434 51.3061 121.917 12.247 108.891Z" fill="#E8ECEE"/>
<g style="mix-blend-mode:multiply" opacity="0.2">
<path d="M112.258 138.42C112.543 136.059 78.0724 129.505 74.5105 129.427C70.9485 129.35 64.0596 141.981 65.9935 143.743C67.9274 145.505 106.917 156.344 107.839 155.944C108.761 155.544 112.258 138.42 112.258 138.42Z" fill="#8F9AA0"/>
</g>
<path d="M15.816 111.057C10.8272 110.766 20.8755 120.342 25.4011 121.926C29.9268 123.51 40.3164 118.457 40.3164 118.457L15.816 111.057Z" fill="white"/>
</g>
<mask id="mask1_2067_307440" style="mask-type:alpha" maskUnits="userSpaceOnUse" x="65" y="84" width="115" height="116">
<path d="M134.058 165.557C154.984 146.098 162.631 117.288 172.721 91.4155L179.078 84L162.578 179.141L84.5776 199.089L65 184.978C73.2812 184.978 88.4328 189.53 96.0776 186.557C109.912 181.176 123.036 175.807 134.058 165.557Z" fill="#C4C4C4"/>
</mask>
<g mask="url(#mask1_2067_307440)">
<g style="mix-blend-mode:multiply" opacity="0.5">
<path d="M101.583 114.147C97.8151 116.17 94.1981 186.366 94.6126 189.063C95.027 191.76 156.254 171.661 157.629 166.353C159.005 161.046 175.319 95.2443 172.38 89.1753C169.441 83.1063 101.583 114.147 101.583 114.147Z" fill="#8F9AA0"/>
</g>
</g>
<path d="M144.184 130.472C144 131.176 143 131.176 142.816 130.472L141.821 126.684C141.756 126.436 141.564 126.244 141.316 126.179L137.528 125.184C136.824 125 136.824 124 137.528 123.816L141.316 122.821C141.564 122.756 141.756 122.564 141.821 122.316L142.816 118.528C143 117.824 144 117.824 144.184 118.528L145.179 122.316C145.244 122.564 145.436 122.756 145.684 122.821L149.472 123.816C150.176 124 150.176 125 149.472 125.184L145.684 126.179C145.436 126.244 145.244 126.436 145.179 126.684L144.184 130.472Z" fill="white"/>
<path d="M66.192 80.0149L65.9812 54.3139L60.7218 53.6348L60.6645 46.6396L73.9132 48.4964L74.1912 82.3843L66.192 80.0149Z" fill="#6B7478"/>
<path d="M93.1103 88.9189C89.533 87.8592 86.6458 86.332 84.4486 84.3372C82.2515 82.3425 80.6454 79.9025 79.6305 77.0173C78.6484 74.1074 78.1422 70.8043 78.1119 67.1081C78.0815 63.4119 78.536 60.4106 79.4753 58.1043C80.4478 55.8078 82.0215 54.3098 84.1966 53.6101C86.3714 52.8759 89.2474 53.0386 92.8246 54.0982C96.435 55.1677 99.3224 56.7121 101.487 58.7317C103.684 60.7264 105.29 63.1664 106.305 66.0516C107.32 68.9367 107.842 72.2274 107.873 75.9237C107.903 79.6199 107.432 82.6336 106.46 84.9646C105.488 87.2611 103.914 88.7591 101.739 89.4588C99.5968 90.1683 96.7207 89.9883 93.1103 88.9189ZM93.0516 81.7682C95.569 82.5139 97.3008 82.1654 98.2472 80.7227C99.2265 79.2553 99.7023 76.8462 99.6748 73.4954C99.6474 70.1446 99.1297 67.4584 98.1218 65.4368C97.1468 63.3905 95.4006 61.9945 92.8833 61.2489C90.366 60.5032 88.6177 60.8641 87.6384 62.3315C86.692 63.7742 86.2326 66.1709 86.2601 69.5217C86.2876 72.8725 86.7888 75.5711 87.7638 77.6174C88.7717 79.6389 90.5343 81.0225 93.0516 81.7682Z" fill="#6B7478"/>
<path fill-rule="evenodd" clip-rule="evenodd" d="M62.3898 82.8787L62.1847 57.8703L56.9254 57.1912L56.8012 42.0582L77.7107 44.9887L77.7723 52.5041C78.9396 51.1537 80.4166 50.1713 82.1993 49.5944C85.1595 48.6014 88.7894 48.9127 92.7922 50.0984C96.8106 51.2887 100.466 53.1287 103.439 55.8928C106.395 58.5854 108.541 61.8873 109.854 65.6209C111.103 69.1726 111.675 73.0109 111.708 77.0598C111.742 81.1111 111.23 84.6371 110.04 87.4899L110.037 87.4974L110.033 87.5049C108.772 90.4829 106.665 92.5292 103.729 93.4769C100.791 94.446 97.1564 94.1074 93.1434 92.9187C89.1463 91.7347 85.5117 89.9135 82.5261 87.2029C80.717 85.5605 79.2105 83.6904 78.0113 81.6333L78.0596 87.5203L62.3898 82.8787ZM101.739 89.4588C103.914 88.7591 105.488 87.2611 106.46 84.9646C107.432 82.6336 107.903 79.6199 107.873 75.9237C107.843 72.2275 107.32 68.9368 106.305 66.0516C105.29 63.1664 103.684 60.7264 101.487 58.7317C99.3227 56.7121 96.4354 55.1677 92.825 54.0982C89.2477 53.0386 86.3717 52.8759 84.1969 53.6101C82.0218 54.3098 80.4481 55.8078 79.4757 58.1043C78.5364 60.4106 78.0819 63.4119 78.1122 67.1081C78.1425 70.8044 78.6487 74.1074 79.6308 77.0173C80.6458 79.9025 82.2518 82.3425 84.449 84.3372C86.6461 86.332 89.5333 87.8592 93.1106 88.9189C96.721 89.9883 99.5972 90.1683 101.739 89.4588ZM98.1222 65.4368C99.13 67.4584 99.6477 70.1446 99.6752 73.4954C99.7027 76.8462 99.2268 79.2553 98.2475 80.7227C97.3012 82.1654 95.5693 82.5139 93.0519 81.7682C90.5346 81.0225 88.772 79.6389 87.7642 77.6174C86.7891 75.5711 86.2879 72.8725 86.2604 69.5217C86.2329 66.1709 86.6924 63.7742 87.6388 62.3315C88.618 60.8641 90.3663 60.5032 92.8836 61.2489C95.401 61.9946 97.1471 63.3905 98.1222 65.4368ZM90.9691 65.3269C90.5135 66.0263 90.0706 67.5975 90.0957 70.6578C90.1204 73.6745 90.5784 75.5452 91.061 76.5835C91.176 76.8055 91.5108 77.3216 93.0191 77.7683C93.8753 78.022 94.3396 78.0107 94.5603 77.9663C94.7348 77.9312 94.8253 77.8676 94.9134 77.7332L94.9193 77.7243L94.9252 77.7155C95.4095 76.9896 95.8649 75.4048 95.8399 72.3593C95.8148 69.3051 95.3285 67.4798 94.8503 66.5206L94.8269 66.4736L94.8044 66.4264C94.8018 66.421 94.7991 66.4152 94.7962 66.409C94.7133 66.231 94.4702 65.709 92.9164 65.2488C91.3528 64.7856 91.0782 65.1633 90.9691 65.3269ZM65.9815 54.3139L66.1923 80.0149L74.1915 82.3843L73.9135 48.4964L60.6648 46.6396L60.7222 53.6348L65.9815 54.3139Z" fill="#E8ECEE"/>
</g>
<defs>
<linearGradient id="paint0_linear_2067_307440" x1="133.107" y1="84.7029" x2="133.107" y2="17.0026" gradientUnits="userSpaceOnUse">
<stop stop-color="#C0C4C6"/>
<stop offset="1" stop-color="#969DA1"/>
</linearGradient>
<linearGradient id="paint1_linear_2067_307440" x1="93.4898" y1="107.098" x2="94" y2="21" gradientUnits="userSpaceOnUse">
<stop stop-color="white"/>
<stop offset="1" stop-opacity="0"/>
</linearGradient>
<clipPath id="clip0_2067_307440">
<rect width="192" height="192" fill="white"/>
</clipPath>
</defs>
</svg>
