<svg xmlns="http://www.w3.org/2000/svg" width="192" height="192" fill="none" viewBox="0 0 192 192"><g clip-path="url(#clip0_2067_307470)"><path fill="url(#paint0_linear_2067_307470)" d="M76 66.154C76 66.154 95.1811 17.1116 99.3661 17.0026C103.551 16.8936 185.049 20.2285 189.604 20.2503C194.16 20.2721 170.946 84.7029 170.946 84.7029C170.946 84.7029 134.72 68.944 76 66.154Z"/><path fill="#6B7478" d="M189.604 20.2505C189.604 20.2505 193.964 23.8687 193.964 26.5279C193.964 29.1871 169.661 89.7381 169.661 89.7381L168.68 83.3953L189.604 20.2505Z"/><g style="mix-blend-mode:multiply" opacity=".2"><path fill="#8F9AA0" d="M80.3593 60.0299C79.8798 66.5689 109.087 41.6336 135.243 32.3918C161.399 23.15 182.629 26.1797 183.392 23.1718C184.155 20.1639 107.365 18.0278 102.265 18.6381C97.1646 19.2484 81.3184 47.1481 80.3593 60.0299Z"/></g><g style="mix-blend-mode:multiply" opacity=".3"><path fill="#8F9AA0" d="M99.3652 17.0032C99.3652 17.0032 136.31 20.1201 152.287 21.3625C164.737 21.9568 177.214 21.5706 189.603 20.2073L99.3652 17.0032Z"/></g><path fill="#C0C4C6" d="M161.367 148.928C159.333 158.108 157.6 164.895 157.053 166.331C155 171.225 100.046 191.455 91.7192 192.042C83.3923 192.629 39.5914 175.336 32.847 169.354C31.9992 168.615 30.737 163.677 29.3429 156.52V156.39C24.8215 133.615 18.6612 88.5433 19.038 83.1052C19.5466 75.8398 77.0624 58.938 89.1382 60.5042C105.566 62.6795 166.548 76.3619 171.107 81.7565C174.291 85.5415 166.755 125.24 161.367 148.928Z"/><path fill="#D6D6D6" d="M19.0005 83.0178C19.1512 86.7592 83.4114 112.797 96.3539 113.015C109.296 113.232 164.891 87.3465 168.866 83.0178C172.841 78.689 110.69 63.4403 91.2296 60.5038C71.7688 57.5672 18.8121 78.7542 19.0005 83.0178Z"/><g style="mix-blend-mode:multiply" opacity=".5"><path fill="#8F9AA0" d="M101.007 114.058C97.239 116.081 93.622 186.277 94.0364 188.974C94.4509 191.672 155.678 171.572 157.053 166.265C158.428 160.957 174.743 95.1554 171.804 89.0864C168.865 83.0175 101.007 114.058 101.007 114.058Z"/></g><path fill="url(#paint1_linear_2067_307470)" d="M158.296 81.8434C158.861 86.7812 112.781 105.097 96.2967 107.098C89.8537 107.859 31.0193 86.5419 28.7774 81.8434C26.5355 77.1448 73.1247 63.1797 89.0626 63.1797C105 63.1797 157.693 76.8403 158.296 81.8434Z"/><g style="mix-blend-mode:multiply" opacity=".2"><path fill="#B3C1C8" d="M89.0057 63.1797V105.749C82.5628 106.533 31.019 86.5419 28.7206 81.8216C26.4222 77.1013 73.1244 63.1797 89.0057 63.1797Z"/></g><g style="mix-blend-mode:multiply" opacity=".5"><path fill="#50575C" d="M161.368 148.929C159.334 158.109 157.6 164.896 157.054 166.331C155.001 171.226 100.047 191.456 91.72 192.043C83.3931 192.63 39.5922 175.337 32.8478 169.355C32 168.615 30.7378 163.677 29.3438 156.521C29.7959 157.717 33.997 165.723 52.4405 176.165C72.1086 187.28 92.4925 188.845 94.0373 189.041C95.5821 189.237 147.182 172.574 153.738 165.57C157.337 161.676 159.861 154.541 161.368 148.929Z"/></g><mask id="mask0_2067_307470" width="77" height="42" x="22" y="110" maskUnits="userSpaceOnUse" style="mask-type:alpha"><path fill="#C4C4C4" d="M26 136.5L22 110C33.3333 110.667 56.2 112 57 112C57.8 112 85 120.667 98.5 125L96 151.5L52.5 147.5L26 136.5Z"/></mask><g mask="url(#mask0_2067_307470)"><path fill="#E4E4E4" d="M9.88936 125.835C9.88936 125.835 10.0562 113.603 12.3109 108.912C14.5655 104.22 101.853 133.455 101.853 133.455L95.4993 154.869C95.4993 154.869 33.3932 139.434 9.88936 125.835Z"/><path fill="#6B7478" d="M52.8225 138.575L54.16 134.088C54.16 134.088 51.2913 129.677 52.7265 127.278C53.045 126.794 53.4667 126.386 53.9615 126.084C54.4563 125.782 55.0118 125.593 55.5883 125.53C56.1647 125.468 56.7477 125.534 57.2955 125.724C57.8434 125.914 58.3424 126.223 58.7569 126.628C59.6846 128.079 56.9321 134.104 56.9321 134.104L58.7224 139.446L52.8225 138.575Z"/><path fill="#E8ECEE" d="M12.247 108.891L19.3142 108.634C19.3142 108.634 76.1721 122.731 101.833 133.449C101.789 133.434 51.3061 121.917 12.247 108.891Z"/><g style="mix-blend-mode:multiply" opacity=".2"><path fill="#8F9AA0" d="M112.258 138.42C112.543 136.059 78.0724 129.505 74.5105 129.427C70.9485 129.35 64.0596 141.981 65.9935 143.743C67.9274 145.505 106.917 156.344 107.839 155.944C108.761 155.544 112.258 138.42 112.258 138.42Z"/></g><path fill="#fff" d="M15.816 111.057C10.8272 110.766 20.8755 120.342 25.4011 121.926C29.9268 123.51 40.3164 118.457 40.3164 118.457L15.816 111.057Z"/></g><mask id="mask1_2067_307470" width="115" height="116" x="65" y="84" maskUnits="userSpaceOnUse" style="mask-type:alpha"><path fill="#C4C4C4" d="M134.058 165.557C154.984 146.098 162.631 117.288 172.721 91.4155L179.078 84L162.578 179.141L84.5776 199.089L65 184.978C73.2812 184.978 88.4328 189.53 96.0776 186.557C109.912 181.176 123.036 175.807 134.058 165.557Z"/></mask><g mask="url(#mask1_2067_307470)"><g style="mix-blend-mode:multiply" opacity=".5"><path fill="#8F9AA0" d="M101.583 114.147C97.8151 116.17 94.1981 186.366 94.6126 189.063C95.027 191.76 156.254 171.661 157.629 166.353C159.005 161.046 175.319 95.2443 172.38 89.1753C169.441 83.1063 101.583 114.147 101.583 114.147Z"/></g></g><path fill="#fff" d="M144.184 130.472C144 131.176 143 131.176 142.816 130.472L141.821 126.684C141.756 126.436 141.564 126.244 141.316 126.179L137.528 125.184C136.824 125 136.824 124 137.528 123.816L141.316 122.821C141.564 122.756 141.756 122.564 141.821 122.316L142.816 118.528C143 117.824 144 117.824 144.184 118.528L145.179 122.316C145.244 122.564 145.436 122.756 145.684 122.821L149.472 123.816C150.176 124 150.176 125 149.472 125.184L145.684 126.179C145.436 126.244 145.244 126.436 145.179 126.684L144.184 130.472Z"/><path fill="#6B7478" d="M52.192 77.0149L51.9812 51.3139L46.7218 50.6348L46.6645 43.6396L59.9132 45.4964L60.1912 79.3843L52.192 77.0149Z"/><path fill="#6B7478" d="M79.1103 85.9189C75.533 84.8592 72.6458 83.332 70.4486 81.3372C68.2515 79.3425 66.6454 76.9025 65.6305 74.0173C64.6484 71.1074 64.1422 67.8043 64.1119 64.1081C64.0815 60.4119 64.536 57.4106 65.4753 55.1043C66.4478 52.8078 68.0215 51.3098 70.1966 50.6101C72.3714 49.8759 75.2474 50.0386 78.8246 51.0982C82.435 52.1677 85.3224 53.7121 87.4867 55.7317C89.6839 57.7264 91.2899 60.1664 92.3049 63.0516C93.3198 65.9367 93.8424 69.2274 93.8728 72.9237C93.9031 76.6199 93.4322 79.6336 92.46 81.9646C91.4876 84.2611 89.9138 85.7591 87.7388 86.4588C85.5968 87.1683 82.7207 86.9883 79.1103 85.9189ZM79.0516 78.7682C81.569 79.5139 83.3008 79.1654 84.2472 77.7227C85.2265 76.2553 85.7023 73.8462 85.6748 70.4954C85.6474 67.1446 85.1297 64.4584 84.1218 62.4368C83.1468 60.3905 81.4006 58.9945 78.8833 58.2489C76.366 57.5032 74.6177 57.8641 73.6384 59.3315C72.692 60.7742 72.2326 63.1709 72.2601 66.5217C72.2876 69.8725 72.7888 72.5711 73.7638 74.6174C74.7717 76.6389 76.5343 78.0225 79.0516 78.7682Z"/><path fill="#6B7478" d="M111.958 95.6489C108.381 94.5892 105.494 93.062 103.297 91.0672C101.099 89.0725 99.4933 86.6325 98.4784 83.7473C97.4963 80.8374 96.9901 77.5343 96.9598 73.8381C96.9295 70.1419 97.3839 67.1406 98.3233 64.8343C99.2957 62.5378 100.869 61.0398 103.044 60.3401C105.219 59.6059 108.095 59.7686 111.673 60.8282C115.283 61.8977 118.17 63.4421 120.335 65.4617C122.532 67.4564 124.138 69.8964 125.153 72.7816C126.168 75.6667 126.69 78.9574 126.721 82.6537C126.751 86.3499 126.28 89.3636 125.308 91.6946C124.335 93.9911 122.762 95.4891 120.587 96.1888C118.445 96.8983 115.569 96.7183 111.958 95.6489ZM111.9 88.4982C114.417 89.2439 116.149 88.8954 117.095 87.4527C118.074 85.9853 118.55 83.5761 118.523 80.2254C118.495 76.8746 117.978 74.1884 116.97 72.1668C115.995 70.1205 114.249 68.7245 111.731 67.9789C109.214 67.2332 107.466 67.5941 106.486 69.0615C105.54 70.5042 105.081 72.9009 105.108 76.2517C105.135 79.6025 105.637 82.3011 106.612 84.3474C107.62 86.3689 109.382 87.7525 111.9 88.4982Z"/><path fill="#E8ECEE" fill-rule="evenodd" d="M48.3898 79.8787L48.1847 54.8703L42.9254 54.1912L42.8012 39.0582L63.7107 41.9887L63.7723 49.5041C64.9396 48.1537 66.4166 47.1713 68.1993 46.5944C71.1595 45.6014 74.7894 45.9127 78.7922 47.0984C82.8106 48.2887 86.4659 50.1287 89.4393 52.8928C92.0059 55.2306 93.9613 58.0279 95.2916 61.1682C96.5787 58.7993 98.5012 57.1483 101.047 56.3244C104.007 55.3314 107.637 55.6427 111.64 56.8284C115.658 58.0187 119.314 59.8587 122.287 62.6226C125.243 65.3153 127.388 68.6172 128.702 72.3509C129.951 75.9026 130.523 79.7409 130.556 83.7898C130.59 87.8411 130.077 91.3671 128.888 94.2199L128.885 94.2274L128.881 94.2349C127.62 97.213 125.513 99.2594 122.577 100.207C119.639 101.176 116.004 100.837 111.991 99.6487C107.994 98.4647 104.36 96.6435 101.374 93.9329C98.793 91.5896 96.8277 88.783 95.4923 85.6307C94.204 88.002 92.2789 89.6538 89.7292 90.4769C86.7915 91.446 83.1564 91.1074 79.1434 89.9187C75.1463 88.7347 71.5117 86.9135 68.5261 84.2029C66.717 82.5605 65.2105 80.6904 64.0113 78.6333L64.0596 84.5203L48.3898 79.8787ZM87.7391 86.4588C89.9142 85.7591 91.4879 84.2611 92.4603 81.9646C92.9266 80.8466 93.2776 79.5715 93.5132 78.1395C93.7689 76.5857 93.8889 74.8471 93.8731 72.9237C93.8573 70.9997 93.7081 69.1856 93.4256 67.4814C93.1653 65.9116 92.7918 64.435 92.3052 63.0516C91.2902 60.1664 89.6842 57.7264 87.487 55.7317C85.3227 53.7121 82.4354 52.1677 78.825 51.0982C75.2477 50.0386 72.3717 49.8759 70.1969 50.6101C68.0218 51.3098 66.4481 52.8078 65.4757 55.1043C64.5364 57.4106 64.0819 60.4119 64.1122 64.1081C64.1425 67.8044 64.6487 71.1074 65.6308 74.0173C66.6458 76.9025 68.2518 79.3425 70.449 81.3372C72.6461 83.332 75.5333 84.8592 79.1106 85.9189C82.721 86.9883 85.5972 87.1683 87.7391 86.4588ZM84.1222 62.4368C85.13 64.4584 85.6477 67.1446 85.6752 70.4954C85.7027 73.8462 85.2268 76.2553 84.2475 77.7227C83.3012 79.1654 81.5693 79.5139 79.0519 78.7682C76.5346 78.0225 74.772 76.6389 73.7642 74.6174C72.7891 72.5711 72.2879 69.8725 72.2604 66.5217C72.2329 63.1709 72.6924 60.7742 73.6388 59.3315C74.618 57.8641 76.3663 57.5032 78.8836 58.2489C81.401 58.9946 83.1471 60.3905 84.1222 62.4368ZM76.9691 62.3269C76.5135 63.0263 76.0706 64.5975 76.0957 67.6578C76.1204 70.6745 76.5784 72.5452 77.061 73.5834C77.176 73.8055 77.5108 74.3216 79.0191 74.7683C79.8753 75.022 80.3396 75.0107 80.5603 74.9663C80.7348 74.9312 80.8253 74.8676 80.9134 74.7331L80.9193 74.7243L80.9252 74.7155C81.4095 73.9896 81.8649 72.4048 81.8399 69.3593C81.8148 66.3051 81.3285 64.4798 80.8503 63.5206L80.8269 63.4736L80.8044 63.4264C80.8018 63.421 80.7991 63.4152 80.7962 63.409C80.7133 63.231 80.4702 62.709 78.9164 62.2488C77.3528 61.7856 77.0782 62.1633 76.9691 62.3269ZM97.3957 79.2993C97.6477 80.872 98.0087 82.3547 98.4787 83.7473C99.4937 86.6325 101.1 89.0725 103.297 91.0672C105.494 93.062 108.381 94.5892 111.959 95.6489C115.569 96.7183 118.445 96.8983 120.587 96.1888C122.762 95.4891 124.336 93.9911 125.308 91.6946C126.28 89.3636 126.751 86.3499 126.721 82.6537C126.691 78.9575 126.168 75.6667 125.153 72.7816C124.138 69.8964 122.532 67.4564 120.335 65.4617C118.171 63.4421 115.283 61.8977 111.673 60.8282C108.096 59.7686 105.22 59.6059 103.045 60.3401C100.87 61.0398 99.296 62.5378 98.3236 64.8343C97.8742 65.9377 97.5358 67.2002 97.3083 68.6217C97.0604 70.1714 96.9443 71.9102 96.9601 73.8381C96.9759 75.7654 97.1211 77.5858 97.3957 79.2993ZM116.97 72.1668C117.978 74.1884 118.496 76.8746 118.523 80.2254C118.551 83.5762 118.075 85.9853 117.095 87.4527C116.149 88.8954 114.417 89.2439 111.9 88.4982C109.383 87.7525 107.62 86.3689 106.612 84.3474C105.637 82.3011 105.136 79.6025 105.108 76.2517C105.081 72.9009 105.54 70.5042 106.487 69.0615C107.466 67.5941 109.214 67.2332 111.732 67.9789C114.249 68.7246 115.995 70.1205 116.97 72.1668ZM109.817 72.0568C109.361 72.7561 108.918 74.3274 108.944 77.3878C108.968 80.4043 109.426 82.2749 109.909 83.3132C110.024 83.5352 110.358 84.0514 111.867 84.4983C112.723 84.752 113.188 84.7407 113.408 84.6963C113.583 84.6612 113.673 84.5976 113.761 84.4631L113.767 84.4543L113.773 84.4455C114.257 83.7196 114.713 82.1348 114.688 79.0893C114.663 76.0351 114.176 74.2098 113.698 73.2506L113.675 73.2036L113.652 73.1564C113.65 73.151 113.647 73.1452 113.644 73.139C113.561 72.961 113.318 72.439 111.764 71.9788C110.201 71.5157 109.926 71.8931 109.817 72.0568ZM51.9815 51.3139L52.1923 77.0149L60.1915 79.3843L59.9135 45.4964L46.6648 43.6396L46.7222 50.6348L51.9815 51.3139Z" clip-rule="evenodd"/></g><defs><linearGradient id="paint0_linear_2067_307470" x1="133.107" x2="133.107" y1="84.703" y2="17.003" gradientUnits="userSpaceOnUse"><stop stop-color="#C0C4C6"/><stop offset="1" stop-color="#969DA1"/></linearGradient><linearGradient id="paint1_linear_2067_307470" x1="93.49" x2="94" y1="107.098" y2="21" gradientUnits="userSpaceOnUse"><stop stop-color="#fff"/><stop offset="1" stop-opacity="0"/></linearGradient><clipPath id="clip0_2067_307470"><rect width="192" height="192" fill="#fff"/></clipPath></defs></svg>