<svg width="192" height="192" viewBox="0 0 192 192" fill="none" xmlns="http://www.w3.org/2000/svg">
<g clip-path="url(#clip0_1996_304235)">
<path d="M161.367 148.928C159.333 158.108 157.6 164.895 157.053 166.331C155 171.225 100.046 191.455 91.7192 192.042C83.3923 192.629 39.5914 175.336 32.847 169.354C31.9992 168.615 30.737 163.677 29.3429 156.52V156.39C24.8215 133.615 18.6612 88.5433 19.038 83.1052C19.5466 75.8398 77.0624 58.938 89.1382 60.5042C105.566 62.6795 166.548 76.3619 171.107 81.7565C174.291 85.5415 166.755 125.24 161.367 148.928Z" fill="#C0C4C6"/>
<path d="M19.0005 83.0178C19.1512 86.7592 83.4114 112.797 96.3539 113.015C109.296 113.232 164.891 87.3465 168.866 83.0178C172.841 78.689 110.69 63.4403 91.2296 60.5038C71.7688 57.5672 18.8121 78.7542 19.0005 83.0178Z" fill="#D6D6D6"/>
<g style="mix-blend-mode:multiply" opacity="0.5">
<path d="M101.007 114.058C97.239 116.081 93.622 186.277 94.0364 188.974C94.4509 191.672 155.678 171.572 157.053 166.265C158.428 160.957 174.743 95.1554 171.804 89.0864C168.865 83.0175 101.007 114.058 101.007 114.058Z" fill="#8F9AA0"/>
</g>
<path d="M158.296 81.8434C158.861 86.7812 112.781 105.097 96.2967 107.098C89.8537 107.859 31.0193 86.5419 28.7774 81.8434C26.5355 77.1448 73.1247 63.1797 89.0626 63.1797C105 63.1797 157.693 76.8403 158.296 81.8434Z" fill="url(#paint0_linear_1996_304235)"/>
<g style="mix-blend-mode:multiply" opacity="0.2">
<path d="M89.0057 63.1797V105.749C82.5628 106.533 31.019 86.5419 28.7206 81.8216C26.4222 77.1013 73.1244 63.1797 89.0057 63.1797Z" fill="#B3C1C8"/>
</g>
<g style="mix-blend-mode:multiply" opacity="0.5">
<path d="M161.368 148.929C159.334 158.109 157.6 164.896 157.054 166.331C155.001 171.226 100.047 191.456 91.72 192.043C83.3931 192.63 39.5922 175.337 32.8478 169.355C32 168.615 30.7378 163.677 29.3438 156.521C29.7959 157.717 33.997 165.723 52.4405 176.165C72.1086 187.28 92.4925 188.845 94.0373 189.041C95.5821 189.237 147.182 172.574 153.738 165.57C157.337 161.676 159.861 154.541 161.368 148.929Z" fill="#969696"/>
</g>
<path d="M128.606 148.147C128.307 149.284 126.693 149.284 126.394 148.147L124.788 142.027C124.683 141.628 124.372 141.317 123.973 141.212L117.853 139.606C116.716 139.307 116.716 137.693 117.853 137.394L123.973 135.788C124.372 135.683 124.683 135.372 124.788 134.973L126.394 128.853C126.693 127.716 128.307 127.716 128.606 128.853L130.212 134.973C130.317 135.372 130.628 135.683 131.027 135.788L137.147 137.394C138.284 137.693 138.284 139.307 137.147 139.606L131.027 141.212C130.628 141.317 130.317 141.628 130.212 142.027L128.606 148.147Z" fill="white"/>
<mask id="mask0_1996_304235" style="mask-type:alpha" maskUnits="userSpaceOnUse" x="64" y="84" width="115" height="116">
<path d="M133.058 165.557C153.984 146.098 161.631 117.288 171.721 91.4155L178.078 84L161.578 179.141L83.5776 199.089L64 184.978C72.2812 184.978 87.4328 189.53 95.0776 186.557C108.912 181.176 122.036 175.807 133.058 165.557Z" fill="#C4C4C4"/>
</mask>
<g mask="url(#mask0_1996_304235)">
<g style="mix-blend-mode:multiply" opacity="0.5">
<path d="M100.583 114.147C96.8151 116.17 93.1981 186.366 93.6126 189.063C94.027 191.76 155.254 171.661 156.629 166.353C158.005 161.046 174.319 95.2443 171.38 89.1753C168.441 83.1063 100.583 114.147 100.583 114.147Z" fill="#8F9AA0"/>
</g>
</g>
<mask id="mask1_1996_304235" style="mask-type:alpha" maskUnits="userSpaceOnUse" x="22" y="110" width="77" height="42">
<path d="M26 136.5L22 110C33.3333 110.667 56.2 112 57 112C57.8 112 85 120.667 98.5 125L96 151.5L52.5 147.5L26 136.5Z" fill="#C4C4C4"/>
</mask>
<g mask="url(#mask1_1996_304235)">
<path d="M9.88936 125.835C9.88936 125.835 10.0562 113.603 12.3109 108.912C14.5655 104.22 101.853 133.455 101.853 133.455L95.4993 154.869C95.4993 154.869 33.3932 139.434 9.88936 125.835Z" fill="#CAD4D9"/>
<path opacity="0.5" d="M51.9681 138.103L53.9186 133.847C53.9186 133.847 51.6935 129.078 53.4494 126.904C53.8324 126.468 54.307 126.123 54.8391 125.893C55.3712 125.663 55.9477 125.553 56.5271 125.572C57.1066 125.591 57.6747 125.738 58.1906 126.002C58.7066 126.267 59.1578 126.642 59.5116 127.101C60.2277 128.667 56.6614 134.249 56.6614 134.249L57.6887 139.788L51.9681 138.103Z" fill="#6B7478"/>
<path d="M12.247 108.891L19.3142 108.634C19.3142 108.634 76.1721 122.731 101.833 133.449C101.789 133.434 51.3061 121.917 12.247 108.891Z" fill="#E8ECEE"/>
<g style="mix-blend-mode:multiply" opacity="0.2">
<path d="M112.258 138.42C112.543 136.059 78.0724 129.505 74.5105 129.427C70.9485 129.35 64.0596 141.981 65.9935 143.743C67.9274 145.505 106.917 156.344 107.839 155.944C108.761 155.544 112.258 138.42 112.258 138.42Z" fill="#8F9AA0"/>
</g>
<path d="M15.816 111.057C10.8272 110.766 20.8755 120.342 25.4011 121.926C29.9268 123.51 40.3164 118.457 40.3164 118.457L15.816 111.057Z" fill="white"/>
</g>
<mask id="mask2_1996_304235" style="mask-type:alpha" maskUnits="userSpaceOnUse" x="28" y="-8" width="131" height="115">
<path d="M158.033 81.6637C158.598 86.6015 112.517 104.917 96.0329 106.918C89.5899 107.68 30.7554 86.3622 28.5136 81.6637C26.2717 76.9651 28.5138 -4 96.0328 -8C158.033 1 157.43 76.6606 158.033 81.6637Z" fill="#636363"/>
</mask>
<g mask="url(#mask2_1996_304235)">
<path d="M131.366 44.8104C135.832 35.7549 130.423 24.9358 120.668 23.4133C112.72 22.1727 105.246 27.7714 103.975 35.9182L99.601 63.9392C98.7075 69.664 102.511 75.0115 108.096 75.8832C112.491 76.5692 116.836 74.2673 118.849 70.1877L131.366 44.8104Z" fill="#CAD4D9"/>
<path d="M123.878 27.636C125.63 31.2701 120.505 31.2708 115.72 34.459C110.935 37.6472 108.301 42.8157 106.55 39.1815C104.799 35.5474 107.477 30.4706 112.262 27.2824C117.047 24.0942 122.127 24.0018 123.878 27.636Z" fill="#CAD4D9"/>
<path d="M118.328 28.2304C119.157 29.9518 116.335 30.2152 113.581 32.05C110.828 33.8847 109.185 36.596 108.355 34.8746C107.526 33.1532 109.189 30.4853 111.943 28.6505C114.697 26.8158 117.498 26.5089 118.328 28.2304Z" fill="#CAD4D9"/>
<path d="M69.4565 35.3375C68.1323 25.3781 76.185 16.6602 85.3826 18.0958C92.8766 19.2654 97.9209 26.818 96.6493 34.9649L92.2757 62.9859C91.3821 68.7106 86.3889 72.6851 81.1229 71.8632C76.9793 71.2165 73.7641 67.7345 73.1675 63.2477L69.4565 35.3375Z" fill="#CAD4D9"/>
<ellipse opacity="0.3" rx="20.9601" ry="9.55556" transform="matrix(-0.539297 0.842116 0.842116 0.539297 115.35 55.9501)" fill="#8F9AA0"/>
<path opacity="0.3" d="M79.5889 73.9265C84.8006 75.0089 90.6153 68.2314 92.5763 58.7887C94.5374 49.3459 97.788 31.0826 92.5762 30.0002C87.3645 28.9179 75.6641 45.4264 73.7031 54.8691C71.742 64.3119 74.3772 72.8442 79.5889 73.9265Z" fill="#8F9AA0"/>
<path d="M85.5315 20.4804C88.0648 23.4299 83.0574 24.9513 79.1024 29.4149C75.1473 33.8785 73.7423 39.5941 71.209 36.6446C68.6758 33.6951 70.1447 28.0539 74.0997 23.5903C78.0548 19.1266 82.9983 17.5309 85.5315 20.4804Z" fill="#E8ECEE"/>
<path d="M80.2408 22.6952C81.4408 24.0923 78.7425 25.1813 76.4664 27.75C74.1904 30.3188 73.1985 33.3945 71.9985 31.9974C70.7985 30.6002 71.8207 27.5597 74.0967 24.991C76.3728 22.4223 79.0408 21.2981 80.2408 22.6952Z" fill="white"/>
<ellipse cx="91.3828" cy="93.5" rx="41.5" ry="37.5" fill="#CAD4D9"/>
<path d="M86.1379 73.7939C86.2577 76.4415 85.3878 78.6316 82.3358 78.7698C79.2838 78.9079 78.2196 76.8054 78.0998 74.1577C77.98 71.5101 78.8498 69.32 81.9019 69.1819C84.9539 69.0437 86.018 71.1463 86.1379 73.7939Z" fill="#6B7478"/>
<path d="M110.872 77.6531C110.211 80.2198 108.738 82.0592 105.779 81.2976C102.82 80.5361 102.419 78.2141 103.079 75.6474C103.74 73.0807 105.213 71.2413 108.172 72.0029C111.13 72.7644 111.532 75.0864 110.872 77.6531Z" fill="#6B7478"/>
<path d="M70.0214 67.3743C72.2471 66.5852 72.8218 70.0031 70.8933 71.3614C63.931 76.265 58.8154 84.2664 57.6788 93.3835C56.9209 99.4629 58.0464 105.121 60.5727 109.748C61.6687 111.756 59.8241 114.613 58.0844 113.127C57.2069 112.378 56.377 111.556 55.6026 110.66C46.4333 100.059 48.5111 83.2382 60.2435 73.0908C63.2356 70.5029 66.5667 68.599 70.0214 67.3743Z" fill="#E8ECEE"/>
<path d="M55.3727 79.1648C56.7907 77.2057 58.7253 79.5038 57.5916 81.6306C56.46 83.7535 55.5168 86.0148 54.7993 88.388C53.9229 91.2862 53.4425 94.1546 53.3252 96.9259C53.2264 99.2588 50.4291 100.456 50.153 98.1473C49.753 94.8037 50.0426 91.2671 51.121 87.7007C52.0586 84.5999 53.5157 81.7304 55.3727 79.1648Z" fill="white"/>
<path fill-rule="evenodd" clip-rule="evenodd" d="M95.0198 83.285C94.1301 83.1388 93.2904 83.7416 93.1443 84.6312C92.4762 88.698 95.5531 92.327 99.6346 92.9974C100.524 93.1436 101.364 92.5409 101.51 91.6512C101.656 90.7616 101.053 89.9219 100.164 89.7757C97.5658 89.3489 96.0366 87.1659 96.366 85.1605C96.5121 84.2708 95.9094 83.4311 95.0198 83.285Z" fill="#6B7478"/>
<path fill-rule="evenodd" clip-rule="evenodd" d="M95.02 83.2852C94.1303 83.139 93.2907 83.7418 93.1445 84.6314C92.8151 86.6368 90.6678 88.216 88.0698 87.7892C87.1802 87.643 86.3405 88.2458 86.1943 89.1354C86.0482 90.0251 86.6509 90.8648 87.5406 91.0109C91.622 91.6814 95.6982 89.2275 96.3662 85.1607C96.5124 84.271 95.9097 83.4313 95.02 83.2852Z" fill="#6B7478"/>
</g>
<path d="M126.117 49.8652C122.291 57.2372 115.222 60.6352 109.095 57.4548C102.967 54.2745 101.102 45.7201 104.928 38.348C108.755 30.976 115.824 27.578 121.951 30.7584C128.079 33.9388 129.944 42.4932 126.117 49.8652Z" fill="#CAD4D9"/>
<path d="M120.593 25.9721C123.126 28.9216 118.119 30.443 114.164 34.9066C110.209 39.3702 108.804 45.0858 106.271 42.1363C103.737 39.1868 105.206 33.5456 109.161 29.082C113.116 24.6183 118.06 23.0226 120.593 25.9721Z" fill="#E8ECEE"/>
<path d="M115.302 28.1874C116.502 29.5845 113.804 30.6735 111.528 33.2422C109.252 35.811 108.26 38.8867 107.06 37.4896C105.86 36.0924 106.882 33.0519 109.158 30.4832C111.434 27.9145 114.102 26.7902 115.302 28.1874Z" fill="white"/>
<path d="M72.9999 46.0001C71.7076 53.2365 72.5801 53.8313 78.1096 54.8187C83.6391 55.8062 91.1692 47.7404 92.4615 40.5039C93.7538 33.2675 95.5295 24.9875 90 24C84.4705 23.0126 74.2922 38.7636 72.9999 46.0001Z" fill="#CAD4D9"/>
</g>
<defs>
<linearGradient id="paint0_linear_1996_304235" x1="93.4898" y1="107.098" x2="99.5" y2="55.5" gradientUnits="userSpaceOnUse">
<stop offset="0.203681" stop-color="white"/>
<stop offset="1" stop-opacity="0"/>
</linearGradient>
<clipPath id="clip0_1996_304235">
<rect width="192" height="192" fill="white"/>
</clipPath>
</defs>
</svg>
