<svg width="192" height="192" viewBox="0 0 192 192" fill="none" xmlns="http://www.w3.org/2000/svg">
<g clip-path="url(#clip0_2067_307366)">
<path fill-rule="evenodd" clip-rule="evenodd" d="M67.8483 61.4477C72.7741 49.1673 85.9609 17.0907 89.3446 17.0025C91.731 16.9404 119.257 17.9981 143.32 18.9227C161.456 19.6196 177.625 20.2409 179.583 20.2502C179.793 20.2512 179.944 20.3893 180.041 20.6519C181.16 21.6665 183.942 24.4032 183.942 26.5277C183.942 28.701 167.71 69.5402 161.777 84.3941C162.571 94.4291 156.117 127.954 151.346 148.928C149.311 158.108 147.578 164.895 147.032 166.33C144.978 171.225 90.0246 191.455 81.6977 192.042C73.3708 192.629 29.5699 175.336 22.8255 169.354C21.9777 168.615 20.7155 163.677 19.3214 156.52V156.39C14.8001 133.615 8.63972 88.5432 9.0165 83.1051C9.42741 77.2359 47.0411 65.0779 67.8483 61.4477Z" fill="#E86A0F"/>
<g style="mix-blend-mode:hard-light" opacity="0.9">
<path d="M66 66.154C66 66.154 85.1811 17.1116 89.3661 17.0026C93.551 16.8936 175.049 20.2285 179.604 20.2503C184.16 20.2721 160.946 84.7029 160.946 84.7029C160.946 84.7029 124.72 68.944 66 66.154Z" fill="url(#paint0_linear_2067_307366)"/>
<path d="M179.604 20.2505C179.604 20.2505 183.964 23.8687 183.964 26.5279C183.964 29.1871 159.661 89.7381 159.661 89.7381L158.68 83.3953L179.604 20.2505Z" fill="#6B7478"/>
<g style="mix-blend-mode:multiply" opacity="0.2">
<path d="M70.3593 60.0299C69.8798 66.5689 99.0873 41.6336 125.243 32.3918C151.399 23.15 172.629 26.1797 173.392 23.1718C174.155 20.1639 97.3655 18.0278 92.2651 18.6381C87.1646 19.2484 71.3184 47.1481 70.3593 60.0299Z" fill="#8F9AA0"/>
</g>
<g style="mix-blend-mode:multiply" opacity="0.3">
<path d="M89.3652 17.0034C89.3652 17.0034 126.31 20.1203 142.287 21.3627C154.737 21.9571 167.214 21.5708 179.603 20.2075L89.3652 17.0034Z" fill="#8F9AA0"/>
</g>
<path d="M151.367 148.928C149.333 158.108 147.6 164.895 147.053 166.331C145 171.225 90.0461 191.455 81.7192 192.042C73.3923 192.629 29.5914 175.336 22.847 169.354C21.9992 168.615 20.737 163.677 19.3429 156.52V156.39C14.8215 133.615 8.66119 88.5433 9.03797 83.1052C9.54663 75.8398 67.0624 58.938 79.1382 60.5042C95.5659 62.6795 156.548 76.3619 161.107 81.7565C164.291 85.5415 156.755 125.24 151.367 148.928Z" fill="#C0C4C6"/>
<path d="M9.0005 83.0178C9.15121 86.7592 73.4114 112.797 86.3539 113.015C99.2964 113.232 154.891 87.3465 158.866 83.0178C162.841 78.689 100.69 63.4403 81.2296 60.5038C61.7688 57.5672 8.81211 78.7542 9.0005 83.0178Z" fill="#D6D6D6"/>
<g style="mix-blend-mode:multiply" opacity="0.5">
<path d="M91.0068 114.058C87.239 116.081 83.622 186.277 84.0364 188.974C84.4509 191.672 145.678 171.572 147.053 166.265C148.428 160.957 164.743 95.1554 161.804 89.0864C158.865 83.0175 91.0068 114.058 91.0068 114.058Z" fill="#8F9AA0"/>
</g>
<path d="M148.296 81.8434C148.861 86.7812 102.781 105.097 86.2967 107.098C79.8537 107.859 21.0193 86.5419 18.7774 81.8434C16.5355 77.1448 63.1247 63.1797 79.0626 63.1797C95.0005 63.1797 147.693 76.8403 148.296 81.8434Z" fill="url(#paint1_linear_2067_307366)"/>
<g style="mix-blend-mode:multiply" opacity="0.2">
<path d="M79.0057 63.1797V105.749C72.5628 106.533 21.019 86.5419 18.7206 81.8216C16.4222 77.1013 63.1244 63.1797 79.0057 63.1797Z" fill="#B3C1C8"/>
</g>
<g style="mix-blend-mode:multiply" opacity="0.5">
<path d="M151.368 148.929C149.334 158.109 147.6 164.896 147.054 166.331C145.001 171.226 90.0469 191.456 81.72 192.043C73.3931 192.63 29.5922 175.337 22.8478 169.355C22 168.615 20.7378 163.677 19.3438 156.521C19.7959 157.717 23.997 165.723 42.4405 176.165C62.1086 187.28 82.4925 188.845 84.0373 189.041C85.5821 189.237 137.182 172.574 143.738 165.57C147.337 161.676 149.861 154.541 151.368 148.929Z" fill="#50575C"/>
</g>
<path d="M130.737 126.431C130.538 127.19 129.462 127.19 129.263 126.431L128.192 122.351C128.122 122.085 127.915 121.878 127.648 121.808L123.569 120.737C122.81 120.538 122.81 119.462 123.569 119.263L127.648 118.192C127.915 118.122 128.122 117.915 128.192 117.648L129.263 113.569C129.462 112.81 130.538 112.81 130.737 113.569L131.808 117.648C131.878 117.915 132.085 118.122 132.352 118.192L136.431 119.263C137.19 119.462 137.19 120.538 136.431 120.737L132.352 121.808C132.085 121.878 131.878 122.085 131.808 122.351L130.737 126.431Z" fill="white"/>
<mask id="mask0_2067_307366" style="mask-type:alpha" maskUnits="userSpaceOnUse" x="12" y="110" width="77" height="42">
<path d="M16 136.5L12 110C23.3333 110.667 46.2 112 47 112C47.8 112 75 120.667 88.5 125L86 151.5L42.5 147.5L16 136.5Z" fill="#C4C4C4"/>
</mask>
<g mask="url(#mask0_2067_307366)">
<path d="M-0.110643 125.835C-0.110643 125.835 0.0562318 113.603 2.31088 108.912C4.56553 104.22 91.8526 133.455 91.8526 133.455L85.4993 154.869C85.4993 154.869 23.3932 139.434 -0.110643 125.835Z" fill="#E4E4E4"/>
<path d="M42.8225 138.575L44.16 134.088C44.16 134.088 41.2913 129.677 42.7265 127.278C43.045 126.794 43.4667 126.386 43.9615 126.084C44.4563 125.782 45.0118 125.593 45.5883 125.53C46.1647 125.468 46.7477 125.534 47.2955 125.724C47.8434 125.914 48.3424 126.223 48.7569 126.628C49.6846 128.079 46.9321 134.104 46.9321 134.104L48.7224 139.446L42.8225 138.575Z" fill="#6B7478"/>
<path d="M2.24702 108.891L9.31421 108.634C9.31421 108.634 66.1721 122.731 91.8328 133.449C91.7887 133.434 41.3061 121.917 2.24702 108.891Z" fill="#E8ECEE"/>
<g style="mix-blend-mode:multiply" opacity="0.2">
<path d="M102.258 138.42C102.543 136.059 68.0724 129.505 64.5105 129.427C60.9485 129.35 54.0596 141.981 55.9935 143.743C57.9274 145.505 96.9169 156.344 97.8391 155.944C98.7612 155.544 102.258 138.42 102.258 138.42Z" fill="#8F9AA0"/>
</g>
<path d="M5.81597 111.057C0.827242 110.766 10.8755 120.342 15.4011 121.926C19.9268 123.51 30.3164 118.457 30.3164 118.457L5.81597 111.057Z" fill="white"/>
</g>
<mask id="mask1_2067_307366" style="mask-type:alpha" maskUnits="userSpaceOnUse" x="55" y="84" width="115" height="116">
<path d="M124.058 165.557C144.984 146.098 152.631 117.288 162.721 91.4155L169.078 84L152.578 179.141L74.5776 199.089L55 184.978C63.2812 184.978 78.4328 189.53 86.0776 186.557C99.9123 181.176 113.036 175.807 124.058 165.557Z" fill="#C4C4C4"/>
</mask>
<g mask="url(#mask1_2067_307366)">
<g style="mix-blend-mode:multiply" opacity="0.5">
<path d="M91.583 114.147C87.8151 116.17 84.1981 186.366 84.6126 189.063C85.027 191.76 146.254 171.661 147.629 166.353C149.005 161.046 165.319 95.2443 162.38 89.1753C159.441 83.1063 91.583 114.147 91.583 114.147Z" fill="#8F9AA0"/>
</g>
</g>
</g>
<g style="mix-blend-mode:color-burn" opacity="0.5">
<path d="M66 66.154C66 66.154 85.1811 17.1116 89.3661 17.0026C93.551 16.8936 175.049 20.2285 179.604 20.2503C184.16 20.2721 160.946 84.7029 160.946 84.7029C160.946 84.7029 124.72 68.944 66 66.154Z" fill="url(#paint2_linear_2067_307366)"/>
<path d="M179.604 20.2505C179.604 20.2505 183.964 23.8687 183.964 26.5279C183.964 29.1871 159.661 89.7381 159.661 89.7381L158.68 83.3953L179.604 20.2505Z" fill="#6B7478"/>
<g style="mix-blend-mode:multiply" opacity="0.2">
<path d="M70.3593 60.0299C69.8798 66.5689 99.0873 41.6336 125.243 32.3918C151.399 23.15 172.629 26.1797 173.392 23.1718C174.155 20.1639 97.3655 18.0278 92.2651 18.6381C87.1646 19.2484 71.3184 47.1481 70.3593 60.0299Z" fill="#8F9AA0"/>
</g>
<g style="mix-blend-mode:multiply" opacity="0.3">
<path d="M89.3652 17.0034C89.3652 17.0034 126.31 20.1203 142.287 21.3627C154.737 21.9571 167.214 21.5708 179.603 20.2075L89.3652 17.0034Z" fill="#8F9AA0"/>
</g>
<path d="M151.367 148.928C149.333 158.108 147.6 164.895 147.053 166.331C145 171.225 90.0461 191.455 81.7192 192.042C73.3923 192.629 29.5914 175.336 22.847 169.354C21.9992 168.615 20.737 163.677 19.3429 156.52V156.39C14.8215 133.615 8.66119 88.5433 9.03797 83.1052C9.54663 75.8398 67.0624 58.938 79.1382 60.5042C95.5659 62.6795 156.548 76.3619 161.107 81.7565C164.291 85.5415 156.755 125.24 151.367 148.928Z" fill="#C0C4C6"/>
<path d="M9.0005 83.0178C9.15121 86.7592 73.4114 112.797 86.3539 113.015C99.2964 113.232 154.891 87.3465 158.866 83.0178C162.841 78.689 100.69 63.4403 81.2296 60.5038C61.7688 57.5672 8.81211 78.7542 9.0005 83.0178Z" fill="#D6D6D6"/>
<g style="mix-blend-mode:multiply" opacity="0.5">
<path d="M91.0068 114.058C87.239 116.081 83.622 186.277 84.0364 188.974C84.4509 191.672 145.678 171.572 147.053 166.265C148.428 160.957 164.743 95.1554 161.804 89.0864C158.865 83.0175 91.0068 114.058 91.0068 114.058Z" fill="#8F9AA0"/>
</g>
<path d="M148.296 81.8434C148.861 86.7812 102.781 105.097 86.2967 107.098C79.8537 107.859 21.0193 86.5419 18.7774 81.8434C16.5355 77.1448 63.1247 63.1797 79.0626 63.1797C95.0005 63.1797 147.693 76.8403 148.296 81.8434Z" fill="url(#paint3_linear_2067_307366)"/>
<g style="mix-blend-mode:multiply" opacity="0.2">
<path d="M79.0057 63.1797V105.749C72.5628 106.533 21.019 86.5419 18.7206 81.8216C16.4222 77.1013 63.1244 63.1797 79.0057 63.1797Z" fill="#B3C1C8"/>
</g>
<g style="mix-blend-mode:multiply" opacity="0.5">
<path d="M151.368 148.929C149.334 158.109 147.6 164.896 147.054 166.331C145.001 171.226 90.0469 191.456 81.72 192.043C73.3931 192.63 29.5922 175.337 22.8478 169.355C22 168.615 20.7378 163.677 19.3438 156.521C19.7959 157.717 23.997 165.723 42.4405 176.165C62.1086 187.28 82.4925 188.845 84.0373 189.041C85.5821 189.237 137.182 172.574 143.738 165.57C147.337 161.676 149.861 154.541 151.368 148.929Z" fill="#50575C"/>
</g>
<path d="M130.737 126.431C130.538 127.19 129.462 127.19 129.263 126.431L128.192 122.351C128.122 122.085 127.915 121.878 127.648 121.808L123.569 120.737C122.81 120.538 122.81 119.462 123.569 119.263L127.648 118.192C127.915 118.122 128.122 117.915 128.192 117.648L129.263 113.569C129.462 112.81 130.538 112.81 130.737 113.569L131.808 117.648C131.878 117.915 132.085 118.122 132.352 118.192L136.431 119.263C137.19 119.462 137.19 120.538 136.431 120.737L132.352 121.808C132.085 121.878 131.878 122.085 131.808 122.351L130.737 126.431Z" fill="white"/>
<mask id="mask2_2067_307366" style="mask-type:alpha" maskUnits="userSpaceOnUse" x="12" y="110" width="77" height="42">
<path d="M16 136.5L12 110C23.3333 110.667 46.2 112 47 112C47.8 112 75 120.667 88.5 125L86 151.5L42.5 147.5L16 136.5Z" fill="#C4C4C4"/>
</mask>
<g mask="url(#mask2_2067_307366)">
<path d="M-0.110643 125.835C-0.110643 125.835 0.0562318 113.603 2.31088 108.912C4.56553 104.22 91.8526 133.455 91.8526 133.455L85.4993 154.869C85.4993 154.869 23.3932 139.434 -0.110643 125.835Z" fill="#E4E4E4"/>
<path d="M42.8225 138.575L44.16 134.088C44.16 134.088 41.2913 129.677 42.7265 127.278C43.045 126.794 43.4667 126.386 43.9615 126.084C44.4563 125.782 45.0118 125.593 45.5883 125.53C46.1647 125.468 46.7477 125.534 47.2955 125.724C47.8434 125.914 48.3424 126.223 48.7569 126.628C49.6846 128.079 46.9321 134.104 46.9321 134.104L48.7224 139.446L42.8225 138.575Z" fill="#6B7478"/>
<path d="M2.24702 108.891L9.31421 108.634C9.31421 108.634 66.1721 122.731 91.8328 133.449C91.7887 133.434 41.3061 121.917 2.24702 108.891Z" fill="#E8ECEE"/>
<g style="mix-blend-mode:multiply" opacity="0.2">
<path d="M102.258 138.42C102.543 136.059 68.0724 129.505 64.5105 129.427C60.9485 129.35 54.0596 141.981 55.9935 143.743C57.9274 145.505 96.9169 156.344 97.8391 155.944C98.7612 155.544 102.258 138.42 102.258 138.42Z" fill="#8F9AA0"/>
</g>
<path d="M5.81597 111.057C0.827242 110.766 10.8755 120.342 15.4011 121.926C19.9268 123.51 30.3164 118.457 30.3164 118.457L5.81597 111.057Z" fill="white"/>
</g>
<mask id="mask3_2067_307366" style="mask-type:alpha" maskUnits="userSpaceOnUse" x="55" y="84" width="115" height="116">
<path d="M124.058 165.557C144.984 146.098 152.631 117.288 162.721 91.4155L169.078 84L152.578 179.141L74.5776 199.089L55 184.978C63.2812 184.978 78.4328 189.53 86.0776 186.557C99.9123 181.176 113.036 175.807 124.058 165.557Z" fill="#C4C4C4"/>
</mask>
<g mask="url(#mask3_2067_307366)">
<g style="mix-blend-mode:multiply" opacity="0.5">
<path d="M91.583 114.147C87.8151 116.17 84.1981 186.366 84.6126 189.063C85.027 191.76 146.254 171.661 147.629 166.353C149.005 161.046 165.319 95.2443 162.38 89.1753C159.441 83.1063 91.583 114.147 91.583 114.147Z" fill="#8F9AA0"/>
</g>
</g>
</g>
<g style="mix-blend-mode:color">
<path fill-rule="evenodd" clip-rule="evenodd" d="M67.8483 61.4477C72.7741 49.1673 85.9609 17.0907 89.3446 17.0025C91.731 16.9404 119.257 17.9981 143.32 18.9227C161.456 19.6196 177.625 20.2409 179.583 20.2502C179.793 20.2512 179.944 20.3893 180.041 20.6519C181.16 21.6665 183.942 24.4032 183.942 26.5277C183.942 28.701 167.71 69.5402 161.777 84.3941C162.571 94.4291 156.117 127.954 151.346 148.928C149.311 158.108 147.578 164.895 147.032 166.33C144.978 171.225 90.0246 191.455 81.6977 192.042C73.3708 192.629 29.5699 175.336 22.8255 169.354C21.9777 168.615 20.7155 163.677 19.3214 156.52V156.39C14.8001 133.615 8.63972 88.5432 9.0165 83.1051C9.42741 77.2359 47.0411 65.0779 67.8483 61.4477Z" fill="url(#paint4_linear_2067_307366)"/>
</g>
<path d="M41.192 80.0149L40.9812 54.3139L35.7218 53.6348L35.6645 46.6396L48.9132 48.4964L49.1912 82.3843L41.192 80.0149Z" fill="#8F3903"/>
<path d="M68.1103 88.9189C64.533 87.8592 61.6458 86.332 59.4486 84.3372C57.2515 82.3425 55.6454 79.9025 54.6305 77.0173C53.6484 74.1074 53.1422 70.8043 53.1119 67.1081C53.0815 63.4119 53.536 60.4106 54.4753 58.1043C55.4478 55.8078 57.0215 54.3098 59.1966 53.6101C61.3714 52.8759 64.2474 53.0386 67.8246 54.0982C71.435 55.1677 74.3224 56.7121 76.4867 58.7317C78.6839 60.7264 80.2899 63.1664 81.3049 66.0516C82.3198 68.9367 82.8424 72.2274 82.8728 75.9237C82.9031 79.6199 82.4322 82.6336 81.46 84.9646C80.4876 87.2611 78.9138 88.7591 76.7388 89.4588C74.5968 90.1683 71.7207 89.9883 68.1103 88.9189ZM68.0516 81.7682C70.569 82.5139 72.3008 82.1654 73.2472 80.7227C74.2265 79.2553 74.7023 76.8462 74.6748 73.4954C74.6474 70.1446 74.1297 67.4584 73.1218 65.4368C72.1468 63.3905 70.4006 61.9945 67.8833 61.2489C65.366 60.5032 63.6177 60.8641 62.6384 62.3315C61.692 63.7742 61.2326 66.1709 61.2601 69.5217C61.2876 72.8725 61.7888 75.5711 62.7638 77.6174C63.7717 79.6389 65.5343 81.0225 68.0516 81.7682Z" fill="#8F3903"/>
<path d="M100.958 98.6489C97.3809 97.5892 94.4937 96.062 92.2966 94.0672C90.0994 92.0725 88.4933 89.6325 87.4784 86.7473C86.4963 83.8374 85.9901 80.5343 85.9598 76.8381C85.9295 73.1419 86.3839 70.1406 87.3233 67.8343C88.2957 65.5378 89.8694 64.0398 92.0445 63.3401C94.2193 62.6059 97.0953 62.7686 100.673 63.8282C104.283 64.8977 107.17 66.4421 109.335 68.4617C111.532 70.4564 113.138 72.8964 114.153 75.7816C115.168 78.6667 115.69 81.9574 115.721 85.6537C115.751 89.3499 115.28 92.3636 114.308 94.6946C113.335 96.9911 111.762 98.4891 109.587 99.1888C107.445 99.8983 104.569 99.7183 100.958 98.6489ZM100.9 91.4982C103.417 92.2439 105.149 91.8954 106.095 90.4527C107.074 88.9853 107.55 86.5761 107.523 83.2254C107.495 79.8746 106.978 77.1884 105.97 75.1668C104.995 73.1205 103.249 71.7245 100.731 70.9789C98.2139 70.2332 96.4656 70.5941 95.4864 72.0615C94.54 73.5042 94.0805 75.9009 94.108 79.2517C94.1355 82.6025 94.6367 85.3011 95.6117 87.3474C96.6196 89.3689 98.3822 90.7525 100.9 91.4982Z" fill="#8F3903"/>
<path fill-rule="evenodd" clip-rule="evenodd" d="M37.3898 82.8787L37.1847 57.8703L31.9254 57.1912L31.8012 42.0582L52.7107 44.9887L52.7723 52.5041C53.9396 51.1537 55.4166 50.1713 57.1993 49.5944C60.1595 48.6014 63.7894 48.9127 67.7922 50.0984C71.8106 51.2887 75.4659 53.1287 78.4393 55.8928C81.0059 58.2306 82.9613 61.0279 84.2916 64.1682C85.5787 61.7993 87.5012 60.1483 90.0472 59.3244C93.0074 58.3314 96.6373 58.6427 100.64 59.8284C104.658 61.0187 108.314 62.8587 111.287 65.6226C114.243 68.3153 116.388 71.6172 117.702 75.3509C118.951 78.9026 119.523 82.7409 119.556 86.7898C119.59 90.8411 119.077 94.3671 117.888 97.2199L117.885 97.2274L117.881 97.2349C116.62 100.213 114.513 102.259 111.577 103.207C108.639 104.176 105.004 103.837 100.991 102.649C96.9942 101.465 93.3596 99.6435 90.374 96.9329C87.793 94.5896 85.8277 91.783 84.4923 88.6307C83.204 91.002 81.2789 92.6538 78.7292 93.4769C75.7915 94.446 72.1564 94.1074 68.1434 92.9187C64.1463 91.7347 60.5117 89.9135 57.5261 87.2029C55.717 85.5605 54.2105 83.6904 53.0113 81.6333L53.0596 87.5203L37.3898 82.8787ZM76.7391 89.4588C78.9142 88.7591 80.4879 87.2611 81.4603 84.9646C81.9266 83.8466 82.2776 82.5715 82.5132 81.1395C82.7689 79.5857 82.8889 77.8471 82.8731 75.9237C82.8573 73.9997 82.7081 72.1856 82.4256 70.4814C82.1653 68.9116 81.7918 67.435 81.3052 66.0516C80.2902 63.1664 78.6842 60.7264 76.487 58.7317C74.3227 56.7121 71.4354 55.1677 67.825 54.0982C64.2477 53.0386 61.3717 52.8759 59.1969 53.6101C57.0218 54.3098 55.4481 55.8078 54.4757 58.1043C53.5364 60.4106 53.0819 63.4119 53.1122 67.1081C53.1425 70.8044 53.6487 74.1074 54.6308 77.0173C55.6458 79.9025 57.2518 82.3425 59.449 84.3372C61.6461 86.332 64.5333 87.8592 68.1106 88.9189C71.721 89.9883 74.5972 90.1683 76.7391 89.4588ZM73.1222 65.4368C74.13 67.4584 74.6477 70.1446 74.6752 73.4954C74.7027 76.8462 74.2268 79.2553 73.2475 80.7227C72.3012 82.1654 70.5693 82.5139 68.0519 81.7682C65.5346 81.0225 63.772 79.6389 62.7642 77.6174C61.7891 75.5711 61.2879 72.8725 61.2604 69.5217C61.2329 66.1709 61.6924 63.7742 62.6388 62.3315C63.618 60.8641 65.3663 60.5032 67.8836 61.2489C70.401 61.9946 72.1471 63.3905 73.1222 65.4368ZM65.9691 65.3269C65.5135 66.0263 65.0706 67.5975 65.0957 70.6578C65.1204 73.6745 65.5784 75.5452 66.061 76.5834C66.176 76.8055 66.5108 77.3216 68.0191 77.7683C68.8753 78.022 69.3396 78.0107 69.5603 77.9663C69.7348 77.9312 69.8253 77.8676 69.9134 77.7331L69.9193 77.7243L69.9252 77.7155C70.4095 76.9896 70.8649 75.4048 70.8399 72.3593C70.8148 69.3051 70.3285 67.4798 69.8503 66.5206L69.8269 66.4736L69.8044 66.4264C69.8018 66.421 69.7991 66.4152 69.7962 66.409C69.7133 66.231 69.4702 65.709 67.9164 65.2488C66.3528 64.7856 66.0782 65.1633 65.9691 65.3269ZM86.3957 82.2993C86.6477 83.872 87.0087 85.3547 87.4787 86.7473C88.4937 89.6325 90.0997 92.0725 92.2969 94.0672C94.494 96.062 97.3813 97.5892 100.959 98.6489C104.569 99.7183 107.445 99.8983 109.587 99.1888C111.762 98.4891 113.336 96.9911 114.308 94.6946C115.28 92.3636 115.751 89.3499 115.721 85.6537C115.691 81.9575 115.168 78.6667 114.153 75.7816C113.138 72.8964 111.532 70.4564 109.335 68.4617C107.171 66.4421 104.283 64.8977 100.673 63.8282C97.0956 62.7686 94.2196 62.6059 92.0448 63.3401C89.8698 64.0398 88.296 65.5378 87.3236 67.8343C86.8742 68.9377 86.5358 70.2002 86.3083 71.6217C86.0604 73.1714 85.9443 74.9102 85.9601 76.8381C85.9759 78.7654 86.1211 80.5858 86.3957 82.2993ZM105.97 75.1668C106.978 77.1884 107.496 79.8746 107.523 83.2254C107.551 86.5762 107.075 88.9853 106.095 90.4527C105.149 91.8954 103.417 92.2439 100.9 91.4982C98.3825 90.7525 96.6199 89.3689 95.6121 87.3474C94.6371 85.3011 94.1358 82.6025 94.1083 79.2517C94.0808 75.9009 94.5403 73.5042 95.4867 72.0615C96.4659 70.5941 98.2142 70.2332 100.732 70.9789C103.249 71.7246 104.995 73.1205 105.97 75.1668ZM98.8171 75.0568C98.3614 75.7561 97.9185 77.3274 97.9436 80.3878C97.9683 83.4043 98.4262 85.2749 98.9089 86.3132C99.0238 86.5352 99.3583 87.0514 100.867 87.4983C101.723 87.752 102.188 87.7407 102.408 87.6963C102.583 87.6612 102.673 87.5976 102.761 87.4631L102.767 87.4543L102.773 87.4455C103.257 86.7196 103.713 85.1348 103.688 82.0893C103.663 79.0351 103.176 77.2098 102.698 76.2506L102.675 76.2036L102.652 76.1564C102.65 76.151 102.647 76.1452 102.644 76.139C102.561 75.961 102.318 75.439 100.764 74.9788C99.2011 74.5157 98.9262 74.8931 98.8171 75.0568ZM40.9815 54.3139L41.1923 80.0149L49.1915 82.3843L48.9135 48.4964L35.6648 46.6396L35.7222 53.6348L40.9815 54.3139Z" fill="#FDDBBF"/>
</g>
<defs>
<linearGradient id="paint0_linear_2067_307366" x1="123.107" y1="84.7029" x2="123.107" y2="17.0026" gradientUnits="userSpaceOnUse">
<stop stop-color="#C0C4C6"/>
<stop offset="1" stop-color="#969DA1"/>
</linearGradient>
<linearGradient id="paint1_linear_2067_307366" x1="83.4898" y1="107.098" x2="84" y2="21" gradientUnits="userSpaceOnUse">
<stop stop-color="white"/>
<stop offset="1" stop-opacity="0"/>
</linearGradient>
<linearGradient id="paint2_linear_2067_307366" x1="123.107" y1="84.7029" x2="123.107" y2="17.0026" gradientUnits="userSpaceOnUse">
<stop stop-color="#C0C4C6"/>
<stop offset="1" stop-color="#969DA1"/>
</linearGradient>
<linearGradient id="paint3_linear_2067_307366" x1="83.4898" y1="107.098" x2="84" y2="21" gradientUnits="userSpaceOnUse">
<stop stop-color="white"/>
<stop offset="1" stop-opacity="0"/>
</linearGradient>
<linearGradient id="paint4_linear_2067_307366" x1="38.5" y1="75" x2="148.787" y2="128.889" gradientUnits="userSpaceOnUse">
<stop stop-color="#FF7A00"/>
<stop offset="1" stop-color="#3C1D00" stop-opacity="0"/>
</linearGradient>
<clipPath id="clip0_2067_307366">
<rect width="192" height="192" fill="white"/>
</clipPath>
</defs>
</svg>
