<svg width="192" height="192" viewBox="0 0 192 192" fill="none" xmlns="http://www.w3.org/2000/svg">
<g clip-path="url(#clip0_2320_340312)">
<path d="M95.7425 182.986L20.0547 140.267V55.3311L95.2276 12.1094L171.945 55.3311V140.267L95.7425 182.986Z" fill="#E86A0F"/>
<g style="mix-blend-mode:hard-light" opacity="0.9">
<path d="M95.4858 182.973L20.0259 140.26V55.3351L94.9725 12.1191L171.459 55.3351V140.26L95.4858 182.973Z" fill="#EFEFEF"/>
<path d="M95.8632 142.772L55.959 120.159V75.1989L95.5918 52.3198L136.039 75.1989V120.159L95.8632 142.772Z" fill="url(#paint0_linear_2320_340312)"/>
<mask id="mask0_2320_340312" style="mask-type:alpha" maskUnits="userSpaceOnUse" x="94" y="12" width="77" height="64">
<path d="M170.279 54.4383L134.346 75.0409L94.8191 51.9254L95.3324 12.227L170.279 54.4383Z" fill="url(#paint1_linear_2320_340312)"/>
</mask>
<g mask="url(#mask0_2320_340312)">
<path fill-rule="evenodd" clip-rule="evenodd" d="M170.792 54.4381L95.3325 11.7246L19.3592 54.4381V139.363L95.8459 182.579L170.792 139.363V54.4381ZM134.859 74.5389L94.9551 51.9258L54.7794 74.5389V119.499L95.2266 142.378L134.859 119.499V74.5389Z" fill="url(#paint2_linear_2320_340312)"/>
</g>
<mask id="mask1_2320_340312" style="mask-type:alpha" maskUnits="userSpaceOnUse" x="31" y="20" width="65" height="54">
<path d="M37.261 64.1674L50.4632 71.7371C54.0198 73.7763 58.438 73.747 62.0056 71.6606L90.0323 55.2704C93.5678 53.2028 95.72 49.4351 95.6679 45.4044L95.483 31.1081C95.3731 22.6029 86.0511 17.4017 78.5197 21.6435L37.4756 44.7604C29.8394 49.0612 29.7201 59.8438 37.261 64.1674Z" fill="url(#paint3_linear_2320_340312)"/>
</mask>
<g mask="url(#mask1_2320_340312)">
<path fill-rule="evenodd" clip-rule="evenodd" d="M19.7788 61.0209C19.7788 56.9518 21.9678 53.1973 25.509 51.1928L89.6945 14.8612C93.1358 12.9133 97.3452 12.9072 100.792 14.8451L165.453 51.1987C169.01 53.1986 171.212 56.962 171.212 61.0429V132.77C171.212 136.843 169.02 140.6 165.474 142.603L100.338 179.406C96.8596 181.371 92.6019 181.352 89.141 179.357L25.4308 142.62C21.9336 140.603 19.7788 136.873 19.7788 132.837V61.0209ZM55.7119 81.118C55.7119 77.0508 57.8989 73.2978 61.4374 71.2926L90.0671 55.0686C93.5109 53.1171 97.7249 53.111 101.174 55.0525L130.038 71.2984C133.592 73.2991 135.792 77.0611 135.792 81.14V112.91C135.792 116.981 133.602 120.736 130.059 122.74L100.962 139.199C97.4812 141.168 93.2189 141.149 89.7556 139.15L61.3591 122.757C57.8646 120.74 55.7119 117.011 55.7119 112.976V81.118Z" fill="url(#paint4_linear_2320_340312)"/>
</g>
<path d="M95.8322 152.823L46.7192 125.184V70.2333L95.4981 42.27L145.279 70.2333V125.184L95.8322 152.823Z" fill="#E1E1E1"/>
<path d="M90.3623 144.736L56.6168 125.903C53.0423 123.908 50.8271 120.135 50.8271 116.041V79.2864C50.8271 75.2249 53.0081 71.4762 56.5389 69.4688L90.0158 50.4362C93.4463 48.4858 97.6461 48.4676 101.093 50.388L135.376 69.4865C138.955 71.4802 141.174 75.2556 141.174 79.3523V116.019C141.174 120.125 138.946 123.907 135.356 125.897L101.341 144.752C97.925 146.646 93.7729 146.64 90.3623 144.736Z" fill="url(#paint5_linear_2320_340312)"/>
<path d="M20.0259 140.26V55.8379L46.7192 69.9082V124.682L20.0259 140.26Z" fill="url(#paint6_linear_2320_340312)"/>
<path d="M171.974 55.3349L171.974 139.757L145.28 125.687L145.28 70.9127L171.974 55.3349Z" fill="url(#paint7_linear_2320_340312)"/>
<path d="M171.712 140.276L97.0259 182.487L96.1269 152.822L144.584 125.435L171.712 140.276Z" fill="url(#paint8_linear_2320_340312)"/>
<path d="M95.7397 182.487L21.0537 140.276L46.848 124.682L95.305 152.069L95.7397 182.487Z" fill="url(#paint9_linear_2320_340312)"/>
<path d="M159.6 99.9451C159.293 101.088 157.636 101.088 157.329 99.9451L155.68 93.7945C155.573 93.3934 155.253 93.0802 154.843 92.9749L148.56 91.3607C147.393 91.0608 147.393 89.4383 148.56 89.1383L154.843 87.5241C155.253 87.4188 155.573 87.1056 155.68 86.7046L157.329 80.554C157.636 79.411 159.293 79.411 159.6 80.554L161.249 86.7046C161.356 87.1056 161.676 87.4188 162.086 87.5241L168.369 89.1383C169.536 89.4383 169.536 91.0608 168.369 91.3607L162.086 92.9749C161.676 93.0802 161.356 93.3934 161.249 93.7945L159.6 99.9451Z" fill="white"/>
<g style="mix-blend-mode:overlay">
<path fill-rule="evenodd" clip-rule="evenodd" d="M47.7441 125.184L96.8571 152.823L146.304 125.184V70.2333L96.523 42.27L47.7441 70.2333V125.184ZM57.6398 125.903L91.3852 144.737C94.7959 146.64 98.948 146.646 102.364 144.752L136.379 125.897C139.969 123.907 142.197 120.125 142.197 116.02V79.3528C142.197 75.2561 139.978 71.4807 136.399 69.487L102.116 50.3885C98.669 48.4681 94.4693 48.4863 91.0387 50.4367L57.5618 69.4693C54.0311 71.4767 51.8501 75.2254 51.8501 79.2869V116.042C51.8501 120.135 54.0652 123.908 57.6398 125.903Z" fill="url(#paint10_radial_2320_340312)"/>
</g>
<g style="mix-blend-mode:overlay">
<path fill-rule="evenodd" clip-rule="evenodd" d="M46.7217 124.179L95.8346 151.817L145.282 124.179V69.2279L95.5005 41.2646L46.7217 69.2279V124.179ZM56.6172 124.898L90.3627 143.731C93.7733 145.634 97.9254 145.64 101.342 143.747L135.356 124.891C138.947 122.901 141.174 119.119 141.174 115.014V78.3469C141.174 74.2503 138.956 70.4749 135.377 68.4812L101.094 49.3827C97.6465 47.4623 93.4467 47.4805 90.0162 49.4309L56.5393 68.4635C53.0085 70.4708 50.8275 74.2196 50.8275 78.2811V115.036C50.8275 119.13 53.0427 122.903 56.6172 124.898Z" fill="url(#paint11_radial_2320_340312)"/>
</g>
<g style="mix-blend-mode:soft-light">
<path d="M95.4858 182.973L20.0259 140.259L95.4858 171.918L171.972 140.259L95.4858 182.973Z" fill="url(#paint12_radial_2320_340312)"/>
</g>
<g style="mix-blend-mode:overlay">
<path d="M95.4858 182.973L20.0259 140.259L95.4858 178.953L171.972 140.259L95.4858 182.973Z" fill="url(#paint13_radial_2320_340312)"/>
</g>
<g style="mix-blend-mode:soft-light">
<path d="M155.128 65.6507C147.185 70.2927 144.758 83.4883 144.537 89.5057C144.316 85.8523 143.478 77.2558 141.889 72.098C140.811 68.5986 135.001 64.5056 129.584 61.4299C126.781 60.1658 124.32 58.8646 122.693 57.9139C124.538 58.7431 127.017 59.9723 129.584 61.4299C134.385 63.5948 140.191 65.6507 144.537 65.6507C151.421 65.6507 166.381 58.7735 173 55.335C170.352 56.8393 163.071 61.0086 155.128 65.6507Z" fill="white"/>
</g>
<g style="mix-blend-mode:soft-light" opacity="0.5">
<path d="M37.2855 129.981C45.1464 125.206 47.3426 111.972 47.4581 105.952C47.7425 109.601 48.731 118.182 50.4095 123.313C51.5483 126.794 57.4297 130.789 62.8995 133.773C65.7245 134.99 68.2073 136.25 69.8505 137.173C67.9917 136.375 65.4918 135.188 62.8995 133.773C58.0617 131.689 52.2204 129.731 47.8748 129.803C40.9918 129.919 26.1545 137.045 19.5962 140.594C22.2173 139.046 29.4246 134.755 37.2855 129.981Z" fill="white"/>
</g>
<g style="mix-blend-mode:overlay">
<path d="M40.3016 65.3763C46.6135 68.6233 56.4537 64.8805 60.5848 62.6032C58.2192 64.2141 52.7815 68.2101 49.9553 71.3064C48.0378 73.4072 47.6245 78.7934 47.7362 83.5171C48.0141 85.8299 48.1292 87.937 48.1446 89.3665C47.96 87.8456 47.7891 85.7558 47.7362 83.5171C47.2603 79.5563 46.3071 74.992 44.5597 72.1941C41.7919 67.7625 31.1576 60.8973 26.1864 58.0187C28.2615 59.1183 33.9897 62.1293 40.3016 65.3763Z" fill="white"/>
</g>
<g style="mix-blend-mode:soft-light" opacity="0.6">
<path d="M146.307 128.199C140.147 127.697 136.546 129.894 132.36 132.073C134.764 130.518 140.299 126.652 143.201 123.624C145.17 121.569 145.716 116.194 145.721 111.469C145.5 109.15 145.437 107.041 145.457 105.612C145.604 107.137 145.723 109.23 145.721 111.469C146.099 115.44 146.939 120.026 148.617 122.864C151.274 127.36 161.736 134.475 166.635 137.47C164.587 136.322 149.512 128.461 146.307 128.199Z" fill="white"/>
</g>
<g style="mix-blend-mode:overlay">
<path d="M151.129 67.4333C146.428 70.1639 144.992 77.926 144.861 81.4657C144.73 79.3166 144.234 74.2599 143.294 71.2258C142.656 69.1674 139.217 66.7597 136.011 64.9505C134.352 64.2069 132.896 63.4415 131.933 62.8823C133.025 63.37 134.492 64.0931 136.011 64.9505C138.852 66.2239 142.289 67.4333 144.861 67.4333C148.935 67.4333 157.789 63.3879 161.706 61.3652C160.139 62.2502 155.83 64.7027 151.129 67.4333Z" fill="white"/>
</g>
<g style="mix-blend-mode:soft-light" opacity="0.6">
<path d="M79.5723 142.879C83.2177 144.918 91.6542 148.995 96.237 148.995C100.82 148.995 110.992 144.176 115.506 141.767C110.645 144.547 100.403 150.996 98.3201 154.554C96.6116 157.473 96.1876 162.585 96.1861 165.966C96.2218 166.702 96.237 167.359 96.237 167.898C96.2058 167.365 96.1858 166.707 96.1861 165.966C96.0132 162.394 95.36 156.948 93.6331 153.998C91.55 150.44 83.3913 145.103 79.5723 142.879Z" fill="white"/>
</g>
</g>
<g style="mix-blend-mode:color-burn" opacity="0.5">
<path d="M95.4858 182.973L20.0259 140.26V55.3351L94.9725 12.1191L171.459 55.3351V140.26L95.4858 182.973Z" fill="#EFEFEF"/>
<path d="M95.8632 142.772L55.959 120.159V75.1989L95.5918 52.3198L136.039 75.1989V120.159L95.8632 142.772Z" fill="url(#paint14_linear_2320_340312)"/>
<mask id="mask2_2320_340312" style="mask-type:alpha" maskUnits="userSpaceOnUse" x="94" y="12" width="77" height="64">
<path d="M170.279 54.4383L134.346 75.0409L94.8191 51.9254L95.3324 12.227L170.279 54.4383Z" fill="url(#paint15_linear_2320_340312)"/>
</mask>
<g mask="url(#mask2_2320_340312)">
<path fill-rule="evenodd" clip-rule="evenodd" d="M170.792 54.4381L95.3325 11.7246L19.3592 54.4381V139.363L95.8459 182.579L170.792 139.363V54.4381ZM134.859 74.5389L94.9551 51.9258L54.7794 74.5389V119.499L95.2266 142.378L134.859 119.499V74.5389Z" fill="url(#paint16_linear_2320_340312)"/>
</g>
<mask id="mask3_2320_340312" style="mask-type:alpha" maskUnits="userSpaceOnUse" x="31" y="20" width="65" height="54">
<path d="M37.261 64.1674L50.4632 71.7371C54.0198 73.7763 58.438 73.747 62.0056 71.6606L90.0323 55.2704C93.5678 53.2028 95.72 49.4351 95.6679 45.4044L95.483 31.1081C95.3731 22.6029 86.0511 17.4017 78.5197 21.6435L37.4756 44.7604C29.8394 49.0612 29.7201 59.8438 37.261 64.1674Z" fill="url(#paint17_linear_2320_340312)"/>
</mask>
<g mask="url(#mask3_2320_340312)">
<path fill-rule="evenodd" clip-rule="evenodd" d="M19.7788 61.0209C19.7788 56.9518 21.9678 53.1973 25.509 51.1928L89.6945 14.8612C93.1358 12.9133 97.3452 12.9072 100.792 14.8451L165.453 51.1987C169.01 53.1986 171.212 56.962 171.212 61.0429V132.77C171.212 136.843 169.02 140.6 165.474 142.603L100.338 179.406C96.8596 181.371 92.6019 181.352 89.141 179.357L25.4308 142.62C21.9336 140.603 19.7788 136.873 19.7788 132.837V61.0209ZM55.7119 81.118C55.7119 77.0508 57.8989 73.2978 61.4374 71.2926L90.0671 55.0686C93.5109 53.1171 97.7249 53.111 101.174 55.0525L130.038 71.2984C133.592 73.2991 135.792 77.0611 135.792 81.14V112.91C135.792 116.981 133.602 120.736 130.059 122.74L100.962 139.199C97.4812 141.168 93.2189 141.149 89.7556 139.15L61.3591 122.757C57.8646 120.74 55.7119 117.011 55.7119 112.976V81.118Z" fill="url(#paint18_linear_2320_340312)"/>
</g>
<path d="M95.8322 152.823L46.7192 125.184V70.2333L95.4981 42.27L145.279 70.2333V125.184L95.8322 152.823Z" fill="#E1E1E1"/>
<path d="M90.3623 144.736L56.6168 125.903C53.0423 123.908 50.8271 120.135 50.8271 116.041V79.2864C50.8271 75.2249 53.0081 71.4762 56.5389 69.4688L90.0158 50.4362C93.4463 48.4858 97.6461 48.4676 101.093 50.388L135.376 69.4865C138.955 71.4802 141.174 75.2556 141.174 79.3523V116.019C141.174 120.125 138.946 123.907 135.356 125.897L101.341 144.752C97.925 146.646 93.7729 146.64 90.3623 144.736Z" fill="url(#paint19_linear_2320_340312)"/>
<path d="M20.0259 140.26V55.8379L46.7192 69.9082V124.682L20.0259 140.26Z" fill="url(#paint20_linear_2320_340312)"/>
<path d="M171.974 55.3349L171.974 139.757L145.28 125.687L145.28 70.9127L171.974 55.3349Z" fill="url(#paint21_linear_2320_340312)"/>
<path d="M171.712 140.276L97.0259 182.487L96.1269 152.822L144.584 125.435L171.712 140.276Z" fill="url(#paint22_linear_2320_340312)"/>
<path d="M95.7397 182.487L21.0537 140.276L46.848 124.682L95.305 152.069L95.7397 182.487Z" fill="url(#paint23_linear_2320_340312)"/>
<path d="M159.6 99.9451C159.293 101.088 157.636 101.088 157.329 99.9451L155.68 93.7945C155.573 93.3934 155.253 93.0802 154.843 92.9749L148.56 91.3607C147.393 91.0608 147.393 89.4383 148.56 89.1383L154.843 87.5241C155.253 87.4188 155.573 87.1056 155.68 86.7046L157.329 80.554C157.636 79.411 159.293 79.411 159.6 80.554L161.249 86.7046C161.356 87.1056 161.676 87.4188 162.086 87.5241L168.369 89.1383C169.536 89.4383 169.536 91.0608 168.369 91.3607L162.086 92.9749C161.676 93.0802 161.356 93.3934 161.249 93.7945L159.6 99.9451Z" fill="white"/>
<g style="mix-blend-mode:overlay">
<path fill-rule="evenodd" clip-rule="evenodd" d="M47.7441 125.184L96.8571 152.823L146.304 125.184V70.2333L96.523 42.27L47.7441 70.2333V125.184ZM57.6398 125.903L91.3852 144.737C94.7959 146.64 98.948 146.646 102.364 144.752L136.379 125.897C139.969 123.907 142.197 120.125 142.197 116.02V79.3528C142.197 75.2561 139.978 71.4807 136.399 69.487L102.116 50.3885C98.669 48.4681 94.4693 48.4863 91.0387 50.4367L57.5618 69.4693C54.0311 71.4767 51.8501 75.2254 51.8501 79.2869V116.042C51.8501 120.135 54.0652 123.908 57.6398 125.903Z" fill="url(#paint24_radial_2320_340312)"/>
</g>
<g style="mix-blend-mode:overlay">
<path fill-rule="evenodd" clip-rule="evenodd" d="M46.7217 124.179L95.8346 151.817L145.282 124.179V69.2279L95.5005 41.2646L46.7217 69.2279V124.179ZM56.6172 124.898L90.3627 143.731C93.7733 145.634 97.9254 145.64 101.342 143.747L135.356 124.891C138.947 122.901 141.174 119.119 141.174 115.014V78.3469C141.174 74.2503 138.956 70.4749 135.377 68.4812L101.094 49.3827C97.6465 47.4623 93.4467 47.4805 90.0162 49.4309L56.5393 68.4635C53.0085 70.4708 50.8275 74.2196 50.8275 78.2811V115.036C50.8275 119.13 53.0427 122.903 56.6172 124.898Z" fill="url(#paint25_radial_2320_340312)"/>
</g>
<g style="mix-blend-mode:soft-light">
<path d="M95.4858 182.973L20.0259 140.259L95.4858 171.918L171.972 140.259L95.4858 182.973Z" fill="url(#paint26_radial_2320_340312)"/>
</g>
<g style="mix-blend-mode:overlay">
<path d="M95.4858 182.973L20.0259 140.259L95.4858 178.953L171.972 140.259L95.4858 182.973Z" fill="url(#paint27_radial_2320_340312)"/>
</g>
<g style="mix-blend-mode:soft-light">
<path d="M155.128 65.6507C147.185 70.2927 144.758 83.4883 144.537 89.5057C144.316 85.8523 143.478 77.2558 141.889 72.098C140.811 68.5986 135.001 64.5056 129.584 61.4299C126.781 60.1658 124.32 58.8646 122.693 57.9139C124.538 58.7431 127.017 59.9723 129.584 61.4299C134.385 63.5948 140.191 65.6507 144.537 65.6507C151.421 65.6507 166.381 58.7735 173 55.335C170.352 56.8393 163.071 61.0086 155.128 65.6507Z" fill="white"/>
</g>
<g style="mix-blend-mode:soft-light" opacity="0.5">
<path d="M37.2855 129.981C45.1464 125.206 47.3426 111.972 47.4581 105.952C47.7425 109.601 48.731 118.182 50.4095 123.313C51.5483 126.794 57.4297 130.789 62.8995 133.773C65.7245 134.99 68.2073 136.25 69.8505 137.173C67.9917 136.375 65.4918 135.188 62.8995 133.773C58.0617 131.689 52.2204 129.731 47.8748 129.803C40.9918 129.919 26.1545 137.045 19.5962 140.594C22.2173 139.046 29.4246 134.755 37.2855 129.981Z" fill="white"/>
</g>
<g style="mix-blend-mode:overlay">
<path d="M40.3016 65.3763C46.6135 68.6233 56.4537 64.8805 60.5848 62.6032C58.2192 64.2141 52.7815 68.2101 49.9553 71.3064C48.0378 73.4072 47.6245 78.7934 47.7362 83.5171C48.0141 85.8299 48.1292 87.937 48.1446 89.3665C47.96 87.8456 47.7891 85.7558 47.7362 83.5171C47.2603 79.5563 46.3071 74.992 44.5597 72.1941C41.7919 67.7625 31.1576 60.8973 26.1864 58.0187C28.2615 59.1183 33.9897 62.1293 40.3016 65.3763Z" fill="white"/>
</g>
<g style="mix-blend-mode:soft-light" opacity="0.6">
<path d="M146.307 128.199C140.147 127.697 136.546 129.894 132.36 132.073C134.764 130.518 140.299 126.652 143.201 123.624C145.17 121.569 145.716 116.194 145.721 111.469C145.5 109.15 145.437 107.041 145.457 105.612C145.604 107.137 145.723 109.23 145.721 111.469C146.099 115.44 146.939 120.026 148.617 122.864C151.274 127.36 161.736 134.475 166.635 137.47C164.587 136.322 149.512 128.461 146.307 128.199Z" fill="white"/>
</g>
<g style="mix-blend-mode:overlay">
<path d="M151.129 67.4333C146.428 70.1639 144.992 77.926 144.861 81.4657C144.73 79.3166 144.234 74.2599 143.294 71.2258C142.656 69.1674 139.217 66.7597 136.011 64.9505C134.352 64.2069 132.896 63.4415 131.933 62.8823C133.025 63.37 134.492 64.0931 136.011 64.9505C138.852 66.2239 142.289 67.4333 144.861 67.4333C148.935 67.4333 157.789 63.3879 161.706 61.3652C160.139 62.2502 155.83 64.7027 151.129 67.4333Z" fill="white"/>
</g>
<g style="mix-blend-mode:soft-light" opacity="0.6">
<path d="M79.5723 142.879C83.2177 144.918 91.6542 148.995 96.237 148.995C100.82 148.995 110.992 144.176 115.506 141.767C110.645 144.547 100.403 150.996 98.3201 154.554C96.6116 157.473 96.1876 162.585 96.1861 165.966C96.2218 166.702 96.237 167.359 96.237 167.898C96.2058 167.365 96.1858 166.707 96.1861 165.966C96.0132 162.394 95.36 156.948 93.6331 153.998C91.55 150.44 83.3913 145.103 79.5723 142.879Z" fill="white"/>
</g>
</g>
<g style="mix-blend-mode:color">
<path d="M95.7425 182.986L20.0547 140.267V55.3311L95.2276 12.1094L171.945 55.3311V140.267L95.7425 182.986Z" fill="url(#paint28_linear_2320_340312)"/>
</g>
<path d="M176.184 41.472C176 42.176 175 42.176 174.816 41.472L173.821 37.6835C173.756 37.4365 173.564 37.2436 173.316 37.1787L169.528 36.1844C168.824 35.9997 168.824 35.0003 169.528 34.8156L173.316 33.8213C173.564 33.7564 173.756 33.5635 173.821 33.3165L174.816 29.528C175 28.824 176 28.824 176.184 29.528L177.179 33.3165C177.244 33.5635 177.436 33.7564 177.684 33.8213L181.472 34.8156C182.176 35.0003 182.176 35.9997 181.472 36.1844L177.684 37.1787C177.436 37.2436 177.244 37.4365 177.179 37.6835L176.184 41.472Z" fill="#E86A0F"/>
<ellipse cx="107.299" cy="102.192" rx="27.1493" ry="8.89373" fill="#FFD7B3"/>
<mask id="path-51-outside-1_2320_340312" maskUnits="userSpaceOnUse" x="51" y="81" width="92" height="39" fill="black">
<rect fill="white" x="51" y="81" width="92" height="39"/>
<path fill-rule="evenodd" clip-rule="evenodd" d="M57.7545 108.234C57.8307 108.255 57.9076 108.275 57.9852 108.296C58.97 108.542 59.9547 108.726 60.9395 108.849C61.9242 108.973 62.7551 109.034 63.4321 109.034C65.1246 109.034 66.3555 108.773 67.1249 108.249C67.925 107.726 68.325 106.895 68.325 105.757C68.325 104.68 68.0481 103.91 67.4942 103.449C66.9402 102.956 65.8939 102.71 64.3553 102.71H55.308V98.7405L56.0927 85.7696H75.3413L74.7412 92.4166H63.5244L63.2475 96.6633H66.6171C70.2176 96.6633 72.8794 97.4634 74.6027 99.0636C76.326 100.664 77.1877 103.003 77.1877 106.08C77.1877 109.034 76.1568 111.419 74.095 113.235C72.064 115.05 68.9713 115.958 64.8169 115.958C63.9552 115.958 62.9397 115.896 61.7703 115.773C60.6317 115.681 59.4931 115.527 58.3545 115.312C57.2467 115.066 56.2773 114.758 55.4465 114.389V107.418C56.1249 107.729 56.8942 108.001 57.7545 108.234ZM61.5563 118.072C60.3443 117.972 59.134 117.808 57.9255 117.58L57.8896 117.573L57.8539 117.565C56.6312 117.293 55.5099 116.942 54.5091 116.498L53.1385 115.889V105.018H53V98.6707L53.9201 83.4616H77.867L76.8502 94.7246H70.6584C72.8225 95.1608 74.701 96.0053 76.1732 97.3723C76.578 97.7481 76.9424 98.1504 77.2684 98.5771C77.4333 95.905 77.9336 93.4952 78.817 91.3863C79.9589 88.6606 81.8027 86.5358 84.3261 85.1033C86.883 83.6384 90.0741 83 93.732 83C99.1822 83 103.644 84.4114 106.447 87.8031C107.606 89.1915 108.479 90.8103 109.094 92.6304C109.236 92.2048 109.391 91.7901 109.56 91.3863C110.702 88.6605 112.546 86.5356 115.069 85.1031C117.626 83.6383 120.817 83 124.475 83C129.925 83 134.387 84.4114 137.19 87.8031C139.847 90.9861 141 95.3797 141 100.633C141 105.865 139.842 110.251 137.195 113.458C134.391 116.853 129.928 118.266 124.475 118.266C120.823 118.266 117.639 117.645 115.087 116.219L115.069 116.209L115.051 116.199C112.54 114.737 110.701 112.603 109.56 109.88C109.389 109.472 109.233 109.054 109.091 108.624C108.475 110.441 107.605 112.061 106.452 113.458C103.648 116.853 99.185 118.266 93.732 118.266C90.0797 118.266 86.8957 117.645 84.3435 116.219L84.3258 116.209L84.3083 116.199C81.8504 114.768 80.0368 112.694 78.8913 110.054C78.2771 111.928 77.1927 113.58 75.6269 114.961C72.9989 117.306 69.2475 118.266 64.8169 118.266C63.8588 118.266 62.7682 118.198 61.5563 118.072ZM135.415 89.2777C133.23 86.6312 129.583 85.308 124.475 85.308C121.059 85.308 118.305 85.9081 116.212 87.1082C114.151 88.2776 112.643 90.0009 111.689 92.2781C110.735 94.5553 110.258 97.3403 110.258 100.633C110.258 103.926 110.735 106.711 111.689 108.988C112.643 111.265 114.151 113.004 116.212 114.204C118.305 115.373 121.059 115.958 124.475 115.958C129.583 115.958 133.23 114.635 135.415 111.988C137.6 109.342 138.692 105.557 138.692 100.633C138.692 95.6785 137.6 91.8934 135.415 89.2777ZM104.672 89.2777C102.487 86.6312 98.8403 85.308 93.732 85.308C90.3162 85.308 87.562 85.9081 85.4694 87.1082C83.4076 88.2776 81.8997 90.0009 80.9457 92.2781C79.9918 94.5553 79.5148 97.3403 79.5148 100.633C79.5148 103.926 79.9918 106.711 80.9457 108.988C81.8997 111.265 83.4076 113.004 85.4694 114.204C87.562 115.373 90.3162 115.958 93.732 115.958C98.8403 115.958 102.487 114.635 104.672 111.988C106.857 109.342 107.949 105.557 107.949 100.633C107.949 95.6785 106.857 91.8934 104.672 89.2777ZM55.7488 105.018H64.3553C65.0161 105.018 65.4721 105.072 65.7654 105.141C65.8544 105.162 65.9175 105.182 65.9594 105.197C65.9845 105.287 66.017 105.463 66.017 105.757C66.017 106.059 65.964 106.194 65.9455 106.233C65.9361 106.252 65.9287 106.262 65.9228 106.268C65.9164 106.276 65.8997 106.293 65.8618 106.318L65.8443 106.329L65.8271 106.341C65.6433 106.466 64.9902 106.726 63.4321 106.726C62.8836 106.726 62.1549 106.675 61.2257 106.559C60.338 106.448 59.4474 106.282 58.5535 106.059C57.7086 105.84 56.9978 105.591 56.4081 105.32L55.7488 105.018ZM95.8952 105.421L95.8993 105.413C96.3928 104.578 96.7785 103.079 96.7785 100.633C96.7785 98.1439 96.3888 96.6623 95.9113 95.8726L95.9011 95.8556L95.8911 95.8384C95.6621 95.4445 95.199 95.0015 93.732 95.0015C92.2871 95.0015 91.778 95.4335 91.5162 95.8567C91.0562 96.6606 90.6854 98.1535 90.6854 100.633C90.6854 103.061 91.0496 104.568 91.5217 105.418C91.7851 105.838 92.2972 106.264 93.732 106.264C95.199 106.264 95.6621 105.822 95.8911 105.428L95.8952 105.421ZM89.5314 94.6784C90.3315 93.3552 91.7317 92.6935 93.732 92.6935C95.7322 92.6935 97.117 93.3552 97.8864 94.6784C98.6865 96.0017 99.0865 97.9865 99.0865 100.633C99.0865 103.249 98.6865 105.234 97.8864 106.588C97.117 107.911 95.7322 108.572 93.732 108.572C91.7317 108.572 90.3315 107.911 89.5314 106.588C88.7621 105.234 88.3775 103.249 88.3775 100.633C88.3775 97.9865 88.7621 96.0017 89.5314 94.6784ZM126.638 105.421L126.642 105.413C127.136 104.578 127.522 103.079 127.522 100.633C127.522 98.1439 127.132 96.6623 126.654 95.8726L126.644 95.8556L126.634 95.8384C126.405 95.4445 125.942 95.0015 124.475 95.0015C123.03 95.0015 122.521 95.4335 122.259 95.8566C121.799 96.6605 121.429 98.1534 121.429 100.633C121.429 103.061 121.793 104.568 122.265 105.418C122.528 105.838 123.04 106.264 124.475 106.264C125.942 106.264 126.405 105.822 126.634 105.428L126.638 105.421ZM120.275 94.6784C121.075 93.3552 122.475 92.6935 124.475 92.6935C126.475 92.6935 127.86 93.3552 128.629 94.6784C129.43 96.0017 129.83 97.9865 129.83 100.633C129.83 103.249 129.43 105.234 128.629 106.588C127.86 107.911 126.475 108.572 124.475 108.572C122.475 108.572 121.075 107.911 120.275 106.588C119.505 105.234 119.121 103.249 119.121 100.633C119.121 97.9865 119.505 96.0017 120.275 94.6784Z"/>
</mask>
<path fill-rule="evenodd" clip-rule="evenodd" d="M57.7545 108.234C57.8307 108.255 57.9076 108.275 57.9852 108.296C58.97 108.542 59.9547 108.726 60.9395 108.849C61.9242 108.973 62.7551 109.034 63.4321 109.034C65.1246 109.034 66.3555 108.773 67.1249 108.249C67.925 107.726 68.325 106.895 68.325 105.757C68.325 104.68 68.0481 103.91 67.4942 103.449C66.9402 102.956 65.8939 102.71 64.3553 102.71H55.308V98.7405L56.0927 85.7696H75.3413L74.7412 92.4166H63.5244L63.2475 96.6633H66.6171C70.2176 96.6633 72.8794 97.4634 74.6027 99.0636C76.326 100.664 77.1877 103.003 77.1877 106.08C77.1877 109.034 76.1568 111.419 74.095 113.235C72.064 115.05 68.9713 115.958 64.8169 115.958C63.9552 115.958 62.9397 115.896 61.7703 115.773C60.6317 115.681 59.4931 115.527 58.3545 115.312C57.2467 115.066 56.2773 114.758 55.4465 114.389V107.418C56.1249 107.729 56.8942 108.001 57.7545 108.234ZM61.5563 118.072C60.3443 117.972 59.134 117.808 57.9255 117.58L57.8896 117.573L57.8539 117.565C56.6312 117.293 55.5099 116.942 54.5091 116.498L53.1385 115.889V105.018H53V98.6707L53.9201 83.4616H77.867L76.8502 94.7246H70.6584C72.8225 95.1608 74.701 96.0053 76.1732 97.3723C76.578 97.7481 76.9424 98.1504 77.2684 98.5771C77.4333 95.905 77.9336 93.4952 78.817 91.3863C79.9589 88.6606 81.8027 86.5358 84.3261 85.1033C86.883 83.6384 90.0741 83 93.732 83C99.1822 83 103.644 84.4114 106.447 87.8031C107.606 89.1915 108.479 90.8103 109.094 92.6304C109.236 92.2048 109.391 91.7901 109.56 91.3863C110.702 88.6605 112.546 86.5356 115.069 85.1031C117.626 83.6383 120.817 83 124.475 83C129.925 83 134.387 84.4114 137.19 87.8031C139.847 90.9861 141 95.3797 141 100.633C141 105.865 139.842 110.251 137.195 113.458C134.391 116.853 129.928 118.266 124.475 118.266C120.823 118.266 117.639 117.645 115.087 116.219L115.069 116.209L115.051 116.199C112.54 114.737 110.701 112.603 109.56 109.88C109.389 109.472 109.233 109.054 109.091 108.624C108.475 110.441 107.605 112.061 106.452 113.458C103.648 116.853 99.185 118.266 93.732 118.266C90.0797 118.266 86.8957 117.645 84.3435 116.219L84.3258 116.209L84.3083 116.199C81.8504 114.768 80.0368 112.694 78.8913 110.054C78.2771 111.928 77.1927 113.58 75.6269 114.961C72.9989 117.306 69.2475 118.266 64.8169 118.266C63.8588 118.266 62.7682 118.198 61.5563 118.072ZM135.415 89.2777C133.23 86.6312 129.583 85.308 124.475 85.308C121.059 85.308 118.305 85.9081 116.212 87.1082C114.151 88.2776 112.643 90.0009 111.689 92.2781C110.735 94.5553 110.258 97.3403 110.258 100.633C110.258 103.926 110.735 106.711 111.689 108.988C112.643 111.265 114.151 113.004 116.212 114.204C118.305 115.373 121.059 115.958 124.475 115.958C129.583 115.958 133.23 114.635 135.415 111.988C137.6 109.342 138.692 105.557 138.692 100.633C138.692 95.6785 137.6 91.8934 135.415 89.2777ZM104.672 89.2777C102.487 86.6312 98.8403 85.308 93.732 85.308C90.3162 85.308 87.562 85.9081 85.4694 87.1082C83.4076 88.2776 81.8997 90.0009 80.9457 92.2781C79.9918 94.5553 79.5148 97.3403 79.5148 100.633C79.5148 103.926 79.9918 106.711 80.9457 108.988C81.8997 111.265 83.4076 113.004 85.4694 114.204C87.562 115.373 90.3162 115.958 93.732 115.958C98.8403 115.958 102.487 114.635 104.672 111.988C106.857 109.342 107.949 105.557 107.949 100.633C107.949 95.6785 106.857 91.8934 104.672 89.2777ZM55.7488 105.018H64.3553C65.0161 105.018 65.4721 105.072 65.7654 105.141C65.8544 105.162 65.9175 105.182 65.9594 105.197C65.9845 105.287 66.017 105.463 66.017 105.757C66.017 106.059 65.964 106.194 65.9455 106.233C65.9361 106.252 65.9287 106.262 65.9228 106.268C65.9164 106.276 65.8997 106.293 65.8618 106.318L65.8443 106.329L65.8271 106.341C65.6433 106.466 64.9902 106.726 63.4321 106.726C62.8836 106.726 62.1549 106.675 61.2257 106.559C60.338 106.448 59.4474 106.282 58.5535 106.059C57.7086 105.84 56.9978 105.591 56.4081 105.32L55.7488 105.018ZM95.8952 105.421L95.8993 105.413C96.3928 104.578 96.7785 103.079 96.7785 100.633C96.7785 98.1439 96.3888 96.6623 95.9113 95.8726L95.9011 95.8556L95.8911 95.8384C95.6621 95.4445 95.199 95.0015 93.732 95.0015C92.2871 95.0015 91.778 95.4335 91.5162 95.8567C91.0562 96.6606 90.6854 98.1535 90.6854 100.633C90.6854 103.061 91.0496 104.568 91.5217 105.418C91.7851 105.838 92.2972 106.264 93.732 106.264C95.199 106.264 95.6621 105.822 95.8911 105.428L95.8952 105.421ZM89.5314 94.6784C90.3315 93.3552 91.7317 92.6935 93.732 92.6935C95.7322 92.6935 97.117 93.3552 97.8864 94.6784C98.6865 96.0017 99.0865 97.9865 99.0865 100.633C99.0865 103.249 98.6865 105.234 97.8864 106.588C97.117 107.911 95.7322 108.572 93.732 108.572C91.7317 108.572 90.3315 107.911 89.5314 106.588C88.7621 105.234 88.3775 103.249 88.3775 100.633C88.3775 97.9865 88.7621 96.0017 89.5314 94.6784ZM126.638 105.421L126.642 105.413C127.136 104.578 127.522 103.079 127.522 100.633C127.522 98.1439 127.132 96.6623 126.654 95.8726L126.644 95.8556L126.634 95.8384C126.405 95.4445 125.942 95.0015 124.475 95.0015C123.03 95.0015 122.521 95.4335 122.259 95.8566C121.799 96.6605 121.429 98.1534 121.429 100.633C121.429 103.061 121.793 104.568 122.265 105.418C122.528 105.838 123.04 106.264 124.475 106.264C125.942 106.264 126.405 105.822 126.634 105.428L126.638 105.421ZM120.275 94.6784C121.075 93.3552 122.475 92.6935 124.475 92.6935C126.475 92.6935 127.86 93.3552 128.629 94.6784C129.43 96.0017 129.83 97.9865 129.83 100.633C129.83 103.249 129.43 105.234 128.629 106.588C127.86 107.911 126.475 108.572 124.475 108.572C122.475 108.572 121.075 107.911 120.275 106.588C119.505 105.234 119.121 103.249 119.121 100.633C119.121 97.9865 119.505 96.0017 120.275 94.6784Z" fill="#FFD7B3"/>
<path fill-rule="evenodd" clip-rule="evenodd" d="M57.7545 108.234C57.8307 108.255 57.9076 108.275 57.9852 108.296C58.97 108.542 59.9547 108.726 60.9395 108.849C61.9242 108.973 62.7551 109.034 63.4321 109.034C65.1246 109.034 66.3555 108.773 67.1249 108.249C67.925 107.726 68.325 106.895 68.325 105.757C68.325 104.68 68.0481 103.91 67.4942 103.449C66.9402 102.956 65.8939 102.71 64.3553 102.71H55.308V98.7405L56.0927 85.7696H75.3413L74.7412 92.4166H63.5244L63.2475 96.6633H66.6171C70.2176 96.6633 72.8794 97.4634 74.6027 99.0636C76.326 100.664 77.1877 103.003 77.1877 106.08C77.1877 109.034 76.1568 111.419 74.095 113.235C72.064 115.05 68.9713 115.958 64.8169 115.958C63.9552 115.958 62.9397 115.896 61.7703 115.773C60.6317 115.681 59.4931 115.527 58.3545 115.312C57.2467 115.066 56.2773 114.758 55.4465 114.389V107.418C56.1249 107.729 56.8942 108.001 57.7545 108.234ZM61.5563 118.072C60.3443 117.972 59.134 117.808 57.9255 117.58L57.8896 117.573L57.8539 117.565C56.6312 117.293 55.5099 116.942 54.5091 116.498L53.1385 115.889V105.018H53V98.6707L53.9201 83.4616H77.867L76.8502 94.7246H70.6584C72.8225 95.1608 74.701 96.0053 76.1732 97.3723C76.578 97.7481 76.9424 98.1504 77.2684 98.5771C77.4333 95.905 77.9336 93.4952 78.817 91.3863C79.9589 88.6606 81.8027 86.5358 84.3261 85.1033C86.883 83.6384 90.0741 83 93.732 83C99.1822 83 103.644 84.4114 106.447 87.8031C107.606 89.1915 108.479 90.8103 109.094 92.6304C109.236 92.2048 109.391 91.7901 109.56 91.3863C110.702 88.6605 112.546 86.5356 115.069 85.1031C117.626 83.6383 120.817 83 124.475 83C129.925 83 134.387 84.4114 137.19 87.8031C139.847 90.9861 141 95.3797 141 100.633C141 105.865 139.842 110.251 137.195 113.458C134.391 116.853 129.928 118.266 124.475 118.266C120.823 118.266 117.639 117.645 115.087 116.219L115.069 116.209L115.051 116.199C112.54 114.737 110.701 112.603 109.56 109.88C109.389 109.472 109.233 109.054 109.091 108.624C108.475 110.441 107.605 112.061 106.452 113.458C103.648 116.853 99.185 118.266 93.732 118.266C90.0797 118.266 86.8957 117.645 84.3435 116.219L84.3258 116.209L84.3083 116.199C81.8504 114.768 80.0368 112.694 78.8913 110.054C78.2771 111.928 77.1927 113.58 75.6269 114.961C72.9989 117.306 69.2475 118.266 64.8169 118.266C63.8588 118.266 62.7682 118.198 61.5563 118.072ZM135.415 89.2777C133.23 86.6312 129.583 85.308 124.475 85.308C121.059 85.308 118.305 85.9081 116.212 87.1082C114.151 88.2776 112.643 90.0009 111.689 92.2781C110.735 94.5553 110.258 97.3403 110.258 100.633C110.258 103.926 110.735 106.711 111.689 108.988C112.643 111.265 114.151 113.004 116.212 114.204C118.305 115.373 121.059 115.958 124.475 115.958C129.583 115.958 133.23 114.635 135.415 111.988C137.6 109.342 138.692 105.557 138.692 100.633C138.692 95.6785 137.6 91.8934 135.415 89.2777ZM104.672 89.2777C102.487 86.6312 98.8403 85.308 93.732 85.308C90.3162 85.308 87.562 85.9081 85.4694 87.1082C83.4076 88.2776 81.8997 90.0009 80.9457 92.2781C79.9918 94.5553 79.5148 97.3403 79.5148 100.633C79.5148 103.926 79.9918 106.711 80.9457 108.988C81.8997 111.265 83.4076 113.004 85.4694 114.204C87.562 115.373 90.3162 115.958 93.732 115.958C98.8403 115.958 102.487 114.635 104.672 111.988C106.857 109.342 107.949 105.557 107.949 100.633C107.949 95.6785 106.857 91.8934 104.672 89.2777ZM55.7488 105.018H64.3553C65.0161 105.018 65.4721 105.072 65.7654 105.141C65.8544 105.162 65.9175 105.182 65.9594 105.197C65.9845 105.287 66.017 105.463 66.017 105.757C66.017 106.059 65.964 106.194 65.9455 106.233C65.9361 106.252 65.9287 106.262 65.9228 106.268C65.9164 106.276 65.8997 106.293 65.8618 106.318L65.8443 106.329L65.8271 106.341C65.6433 106.466 64.9902 106.726 63.4321 106.726C62.8836 106.726 62.1549 106.675 61.2257 106.559C60.338 106.448 59.4474 106.282 58.5535 106.059C57.7086 105.84 56.9978 105.591 56.4081 105.32L55.7488 105.018ZM95.8952 105.421L95.8993 105.413C96.3928 104.578 96.7785 103.079 96.7785 100.633C96.7785 98.1439 96.3888 96.6623 95.9113 95.8726L95.9011 95.8556L95.8911 95.8384C95.6621 95.4445 95.199 95.0015 93.732 95.0015C92.2871 95.0015 91.778 95.4335 91.5162 95.8567C91.0562 96.6606 90.6854 98.1535 90.6854 100.633C90.6854 103.061 91.0496 104.568 91.5217 105.418C91.7851 105.838 92.2972 106.264 93.732 106.264C95.199 106.264 95.6621 105.822 95.8911 105.428L95.8952 105.421ZM89.5314 94.6784C90.3315 93.3552 91.7317 92.6935 93.732 92.6935C95.7322 92.6935 97.117 93.3552 97.8864 94.6784C98.6865 96.0017 99.0865 97.9865 99.0865 100.633C99.0865 103.249 98.6865 105.234 97.8864 106.588C97.117 107.911 95.7322 108.572 93.732 108.572C91.7317 108.572 90.3315 107.911 89.5314 106.588C88.7621 105.234 88.3775 103.249 88.3775 100.633C88.3775 97.9865 88.7621 96.0017 89.5314 94.6784ZM126.638 105.421L126.642 105.413C127.136 104.578 127.522 103.079 127.522 100.633C127.522 98.1439 127.132 96.6623 126.654 95.8726L126.644 95.8556L126.634 95.8384C126.405 95.4445 125.942 95.0015 124.475 95.0015C123.03 95.0015 122.521 95.4335 122.259 95.8566C121.799 96.6605 121.429 98.1534 121.429 100.633C121.429 103.061 121.793 104.568 122.265 105.418C122.528 105.838 123.04 106.264 124.475 106.264C125.942 106.264 126.405 105.822 126.634 105.428L126.638 105.421ZM120.275 94.6784C121.075 93.3552 122.475 92.6935 124.475 92.6935C126.475 92.6935 127.86 93.3552 128.629 94.6784C129.43 96.0017 129.83 97.9865 129.83 100.633C129.83 103.249 129.43 105.234 128.629 106.588C127.86 107.911 126.475 108.572 124.475 108.572C122.475 108.572 121.075 107.911 120.275 106.588C119.505 105.234 119.121 103.249 119.121 100.633C119.121 97.9865 119.505 96.0017 120.275 94.6784Z" stroke="#FFD7B3" stroke-width="2.80855" stroke-linejoin="round" mask="url(#path-51-outside-1_2320_340312)"/>
<path d="M64.8165 115.958C63.9549 115.958 62.9394 115.896 61.77 115.773C60.6314 115.681 59.4928 115.527 58.3542 115.311C57.2463 115.065 56.277 114.758 55.4461 114.388V107.418C56.1847 107.757 57.0309 108.049 57.9849 108.295C58.9696 108.541 59.9544 108.726 60.9391 108.849C61.9238 108.972 62.7547 109.034 63.4317 109.034C65.1242 109.034 66.3552 108.772 67.1245 108.249C67.9246 107.726 68.3247 106.895 68.3247 105.756C68.3247 104.679 68.0477 103.91 67.4938 103.448C66.9399 102.956 65.8936 102.71 64.3549 102.71H55.3076V98.7401L56.0923 85.7692H75.3409L74.7409 92.4162H63.524L63.2471 96.6629H66.6167C70.2172 96.6629 72.8791 97.463 74.6024 99.0632C76.3257 100.663 77.1873 103.002 77.1873 106.079C77.1873 109.034 76.1564 111.419 74.0946 113.234C72.0636 115.05 68.9709 115.958 64.8165 115.958Z" fill="#D2531F"/>
<path d="M93.7316 115.958C90.3158 115.958 87.5616 115.373 85.469 114.204C83.4072 113.003 81.8993 111.265 80.9454 108.988C79.9914 106.71 79.5144 103.925 79.5144 100.633C79.5144 97.3399 79.9914 94.5549 80.9454 92.2777C81.8993 90.0005 83.4072 88.2772 85.469 87.1078C87.5616 85.9077 90.3158 85.3076 93.7316 85.3076C98.8399 85.3076 102.487 86.6309 104.671 89.2774C106.856 91.8931 107.949 95.6782 107.949 100.633C107.949 105.556 106.856 109.341 104.671 111.988C102.487 114.634 98.8399 115.958 93.7316 115.958ZM93.7316 108.572C95.7319 108.572 97.1167 107.91 97.886 106.587C98.6861 105.233 99.0861 103.248 99.0861 100.633C99.0861 97.9862 98.6861 96.0013 97.886 94.678C97.1167 93.3548 95.7319 92.6932 93.7316 92.6932C91.7314 92.6932 90.3312 93.3548 89.5311 94.678C88.7617 96.0013 88.3771 97.9862 88.3771 100.633C88.3771 103.248 88.7617 105.233 89.5311 106.587C90.3312 107.91 91.7314 108.572 93.7316 108.572Z" fill="#D2531F"/>
<path d="M124.475 115.958C121.059 115.958 118.305 115.373 116.212 114.204C114.15 113.003 112.642 111.265 111.688 108.988C110.734 106.71 110.258 103.925 110.258 100.633C110.258 97.3399 110.734 94.5549 111.688 92.2777C112.642 90.0005 114.15 88.2772 116.212 87.1078C118.305 85.9077 121.059 85.3076 124.475 85.3076C129.583 85.3076 133.23 86.6309 135.415 89.2774C137.599 91.8931 138.692 95.6782 138.692 100.633C138.692 105.556 137.599 109.341 135.415 111.988C133.23 114.634 129.583 115.958 124.475 115.958ZM124.475 108.572C126.475 108.572 127.86 107.91 128.629 106.587C129.429 105.233 129.829 103.248 129.829 100.633C129.829 97.9862 129.429 96.0013 128.629 94.678C127.86 93.3548 126.475 92.6932 124.475 92.6932C122.474 92.6932 121.074 93.3548 120.274 94.678C119.505 96.0013 119.12 97.9862 119.12 100.633C119.12 103.248 119.505 105.233 120.274 106.587C121.074 107.91 122.474 108.572 124.475 108.572Z" fill="#D2531F"/>
</g>
<defs>
<linearGradient id="paint0_linear_2320_340312" x1="126.865" y1="52.6341" x2="90.7159" y2="149.018" gradientUnits="userSpaceOnUse">
<stop stop-color="#B6B6B6"/>
<stop offset="1" stop-color="#8E8E8E" stop-opacity="0"/>
</linearGradient>
<linearGradient id="paint1_linear_2320_340312" x1="150.264" y1="52.3197" x2="97.1873" y2="29.531" gradientUnits="userSpaceOnUse">
<stop stop-color="white" stop-opacity="0"/>
<stop offset="0.512588" stop-color="white"/>
<stop offset="1" stop-color="white"/>
</linearGradient>
<linearGradient id="paint2_linear_2320_340312" x1="57.7995" y1="39.7398" x2="137.507" y2="146.87" gradientUnits="userSpaceOnUse">
<stop stop-color="white" stop-opacity="0"/>
<stop offset="0.512588" stop-color="white"/>
<stop offset="1" stop-color="white"/>
</linearGradient>
<linearGradient id="paint3_linear_2320_340312" x1="63.4103" y1="-5.19646" x2="51.4277" y2="77.256" gradientUnits="userSpaceOnUse">
<stop stop-color="#FD9B13"/>
<stop offset="1" stop-color="#FD9B13" stop-opacity="0"/>
</linearGradient>
<linearGradient id="paint4_linear_2320_340312" x1="153.863" y1="180.285" x2="87.9976" y2="0.91686" gradientUnits="userSpaceOnUse">
<stop stop-color="#B6B6B6"/>
<stop offset="1" stop-color="#8E8E8E" stop-opacity="0"/>
</linearGradient>
<linearGradient id="paint5_linear_2320_340312" x1="130.823" y1="47.6441" x2="91.1193" y2="155.136" gradientUnits="userSpaceOnUse">
<stop stop-color="#B6B6B6"/>
<stop offset="1" stop-color="#8E8E8E" stop-opacity="0"/>
</linearGradient>
<linearGradient id="paint6_linear_2320_340312" x1="6.09477" y1="83.44" x2="189.531" y2="-45.0524" gradientUnits="userSpaceOnUse">
<stop stop-color="#AFAFAF"/>
<stop offset="1" stop-color="#CECECE" stop-opacity="0"/>
</linearGradient>
<linearGradient id="paint7_linear_2320_340312" x1="166.84" y1="72.9228" x2="143.671" y2="175.15" gradientUnits="userSpaceOnUse">
<stop stop-color="#8B8B8B"/>
<stop offset="1" stop-color="#B7B7B7" stop-opacity="0"/>
</linearGradient>
<linearGradient id="paint8_linear_2320_340312" x1="128.41" y1="180.497" x2="-73.3978" y2="81.8954" gradientUnits="userSpaceOnUse">
<stop stop-color="#BEBEBE"/>
<stop offset="1" stop-color="#CECECE" stop-opacity="0"/>
</linearGradient>
<linearGradient id="paint9_linear_2320_340312" x1="38.507" y1="165.888" x2="21.7776" y2="-54.2673" gradientUnits="userSpaceOnUse">
<stop stop-color="#929292"/>
<stop offset="1" stop-color="#CECECE" stop-opacity="0"/>
</linearGradient>
<radialGradient id="paint10_radial_2320_340312" cx="0" cy="0" r="1" gradientUnits="userSpaceOnUse" gradientTransform="translate(119.611 48.3001) rotate(130.327) scale(93.5997 81.9882)">
<stop stop-color="white"/>
<stop offset="1" stop-color="white" stop-opacity="0"/>
</radialGradient>
<radialGradient id="paint11_radial_2320_340312" cx="0" cy="0" r="1" gradientUnits="userSpaceOnUse" gradientTransform="translate(118.588 47.2948) rotate(130.327) scale(93.5997 81.9882)">
<stop stop-color="white"/>
<stop offset="1" stop-color="white" stop-opacity="0"/>
</radialGradient>
<radialGradient id="paint12_radial_2320_340312" cx="0" cy="0" r="1" gradientUnits="userSpaceOnUse" gradientTransform="translate(130.82 142.589) rotate(163.552) scale(97.3685 46.9455)">
<stop stop-color="white"/>
<stop offset="1" stop-color="white" stop-opacity="0"/>
</radialGradient>
<radialGradient id="paint13_radial_2320_340312" cx="0" cy="0" r="1" gradientUnits="userSpaceOnUse" gradientTransform="translate(130.82 142.589) rotate(163.552) scale(97.3685 46.9455)">
<stop stop-color="white"/>
<stop offset="1" stop-color="white" stop-opacity="0"/>
</radialGradient>
<linearGradient id="paint14_linear_2320_340312" x1="126.865" y1="52.6341" x2="90.7159" y2="149.018" gradientUnits="userSpaceOnUse">
<stop stop-color="#B6B6B6"/>
<stop offset="1" stop-color="#8E8E8E" stop-opacity="0"/>
</linearGradient>
<linearGradient id="paint15_linear_2320_340312" x1="150.264" y1="52.3197" x2="97.1873" y2="29.531" gradientUnits="userSpaceOnUse">
<stop stop-color="white" stop-opacity="0"/>
<stop offset="0.512588" stop-color="white"/>
<stop offset="1" stop-color="white"/>
</linearGradient>
<linearGradient id="paint16_linear_2320_340312" x1="57.7995" y1="39.7398" x2="137.507" y2="146.87" gradientUnits="userSpaceOnUse">
<stop stop-color="white" stop-opacity="0"/>
<stop offset="0.512588" stop-color="white"/>
<stop offset="1" stop-color="white"/>
</linearGradient>
<linearGradient id="paint17_linear_2320_340312" x1="63.4103" y1="-5.19646" x2="51.4277" y2="77.256" gradientUnits="userSpaceOnUse">
<stop stop-color="#FD9B13"/>
<stop offset="1" stop-color="#FD9B13" stop-opacity="0"/>
</linearGradient>
<linearGradient id="paint18_linear_2320_340312" x1="153.863" y1="180.285" x2="87.9976" y2="0.91686" gradientUnits="userSpaceOnUse">
<stop stop-color="#B6B6B6"/>
<stop offset="1" stop-color="#8E8E8E" stop-opacity="0"/>
</linearGradient>
<linearGradient id="paint19_linear_2320_340312" x1="130.823" y1="47.6441" x2="91.1193" y2="155.136" gradientUnits="userSpaceOnUse">
<stop stop-color="#B6B6B6"/>
<stop offset="1" stop-color="#8E8E8E" stop-opacity="0"/>
</linearGradient>
<linearGradient id="paint20_linear_2320_340312" x1="6.09477" y1="83.44" x2="189.531" y2="-45.0524" gradientUnits="userSpaceOnUse">
<stop stop-color="#AFAFAF"/>
<stop offset="1" stop-color="#CECECE" stop-opacity="0"/>
</linearGradient>
<linearGradient id="paint21_linear_2320_340312" x1="166.84" y1="72.9228" x2="143.671" y2="175.15" gradientUnits="userSpaceOnUse">
<stop stop-color="#8B8B8B"/>
<stop offset="1" stop-color="#B7B7B7" stop-opacity="0"/>
</linearGradient>
<linearGradient id="paint22_linear_2320_340312" x1="128.41" y1="180.497" x2="-73.3978" y2="81.8954" gradientUnits="userSpaceOnUse">
<stop stop-color="#BEBEBE"/>
<stop offset="1" stop-color="#CECECE" stop-opacity="0"/>
</linearGradient>
<linearGradient id="paint23_linear_2320_340312" x1="38.507" y1="165.888" x2="21.7776" y2="-54.2673" gradientUnits="userSpaceOnUse">
<stop stop-color="#929292"/>
<stop offset="1" stop-color="#CECECE" stop-opacity="0"/>
</linearGradient>
<radialGradient id="paint24_radial_2320_340312" cx="0" cy="0" r="1" gradientUnits="userSpaceOnUse" gradientTransform="translate(119.611 48.3001) rotate(130.327) scale(93.5997 81.9882)">
<stop stop-color="white"/>
<stop offset="1" stop-color="white" stop-opacity="0"/>
</radialGradient>
<radialGradient id="paint25_radial_2320_340312" cx="0" cy="0" r="1" gradientUnits="userSpaceOnUse" gradientTransform="translate(118.588 47.2948) rotate(130.327) scale(93.5997 81.9882)">
<stop stop-color="white"/>
<stop offset="1" stop-color="white" stop-opacity="0"/>
</radialGradient>
<radialGradient id="paint26_radial_2320_340312" cx="0" cy="0" r="1" gradientUnits="userSpaceOnUse" gradientTransform="translate(130.82 142.589) rotate(163.552) scale(97.3685 46.9455)">
<stop stop-color="white"/>
<stop offset="1" stop-color="white" stop-opacity="0"/>
</radialGradient>
<radialGradient id="paint27_radial_2320_340312" cx="0" cy="0" r="1" gradientUnits="userSpaceOnUse" gradientTransform="translate(130.82 142.589) rotate(163.552) scale(97.3685 46.9455)">
<stop stop-color="white"/>
<stop offset="1" stop-color="white" stop-opacity="0"/>
</radialGradient>
<linearGradient id="paint28_linear_2320_340312" x1="45.6676" y1="68.7245" x2="145.438" y2="112.087" gradientUnits="userSpaceOnUse">
<stop stop-color="#FF7A00"/>
<stop offset="1" stop-color="#3C1D00" stop-opacity="0"/>
</linearGradient>
<clipPath id="clip0_2320_340312">
<rect width="192" height="192" fill="white"/>
</clipPath>
</defs>
</svg>
