<svg xmlns="http://www.w3.org/2000/svg" width="192" height="192" fill="none" viewBox="0 0 192 192"><g clip-path="url(#clip0_2320_340466)"><path fill="#E86A0F" d="M95.7425 182.986L20.0547 140.267V55.3311L95.2276 12.1094L171.945 55.3311V140.267L95.7425 182.986Z"/><g style="mix-blend-mode:hard-light" opacity=".9"><path fill="#EFEFEF" d="M95.4858 182.973L20.0259 140.26V55.3351L94.9725 12.1191L171.459 55.3351V140.26L95.4858 182.973Z"/><path fill="url(#paint0_linear_2320_340466)" d="M95.8632 142.772L55.959 120.159V75.1989L95.5918 52.3198L136.039 75.1989V120.159L95.8632 142.772Z"/><mask id="mask0_2320_340466" width="77" height="64" x="94" y="12" maskUnits="userSpaceOnUse" style="mask-type:alpha"><path fill="url(#paint1_linear_2320_340466)" d="M170.277 54.4383L134.344 75.0409L94.8176 51.9254L95.3309 12.227L170.277 54.4383Z"/></mask><g mask="url(#mask0_2320_340466)"><path fill="url(#paint2_linear_2320_340466)" fill-rule="evenodd" d="M170.791 54.4381L95.3311 11.7246L19.3578 54.4381V139.363L95.8444 182.579L170.791 139.363V54.4381ZM134.858 74.5389L94.9537 51.9258L54.778 74.5389V119.499L95.2251 142.378L134.858 119.499V74.5389Z" clip-rule="evenodd"/></g><mask id="mask1_2320_340466" width="65" height="54" x="31" y="20" maskUnits="userSpaceOnUse" style="mask-type:alpha"><path fill="url(#paint3_linear_2320_340466)" d="M37.261 64.1674L50.4632 71.7371C54.0198 73.7763 58.438 73.747 62.0056 71.6606L90.0323 55.2704C93.5678 53.2028 95.72 49.4351 95.6679 45.4044L95.483 31.1081C95.3731 22.6029 86.0511 17.4017 78.5197 21.6435L37.4756 44.7604C29.8394 49.0612 29.7201 59.8438 37.261 64.1674Z"/></mask><g mask="url(#mask1_2320_340466)"><path fill="url(#paint4_linear_2320_340466)" fill-rule="evenodd" d="M19.7788 61.0209C19.7788 56.9518 21.9678 53.1973 25.509 51.1928L89.6945 14.8612C93.1358 12.9133 97.3452 12.9072 100.792 14.8451L165.453 51.1987C169.01 53.1986 171.212 56.962 171.212 61.0429V132.77C171.212 136.843 169.02 140.6 165.474 142.603L100.338 179.406C96.8596 181.371 92.6019 181.352 89.141 179.357L25.4308 142.62C21.9336 140.603 19.7788 136.873 19.7788 132.837V61.0209ZM55.7119 81.118C55.7119 77.0508 57.8989 73.2978 61.4374 71.2926L90.0671 55.0686C93.5109 53.1171 97.7249 53.111 101.174 55.0525L130.038 71.2984C133.592 73.2991 135.792 77.0611 135.792 81.14V112.91C135.792 116.981 133.602 120.736 130.059 122.74L100.962 139.199C97.4812 141.168 93.2189 141.149 89.7556 139.15L61.3591 122.757C57.8646 120.74 55.7119 117.011 55.7119 112.976V81.118Z" clip-rule="evenodd"/></g><path fill="#E1E1E1" d="M95.8322 152.823L46.7192 125.184V70.2333L95.4981 42.27L145.279 70.2333V125.184L95.8322 152.823Z"/><path fill="url(#paint5_linear_2320_340466)" d="M90.3623 144.736L56.6168 125.903C53.0423 123.908 50.8271 120.135 50.8271 116.041V79.2864C50.8271 75.2249 53.0081 71.4762 56.5389 69.4688L90.0158 50.4362C93.4463 48.4858 97.6461 48.4676 101.093 50.388L135.376 69.4865C138.955 71.4802 141.174 75.2556 141.174 79.3523V116.019C141.174 120.125 138.946 123.907 135.356 125.897L101.341 144.752C97.925 146.646 93.7729 146.64 90.3623 144.736Z"/><path fill="url(#paint6_linear_2320_340466)" d="M20.0259 140.26V55.8379L46.7192 69.9082V124.682L20.0259 140.26Z"/><path fill="url(#paint7_linear_2320_340466)" d="M171.974 55.3349L171.974 139.757L145.28 125.687L145.28 70.9127L171.974 55.3349Z"/><path fill="url(#paint8_linear_2320_340466)" d="M171.712 140.276L97.0259 182.487L96.1269 152.822L144.584 125.435L171.712 140.276Z"/><path fill="url(#paint9_linear_2320_340466)" d="M95.7397 182.487L21.0537 140.276L46.848 124.682L95.305 152.069L95.7397 182.487Z"/><path fill="#fff" d="M159.6 99.9451C159.293 101.088 157.636 101.088 157.329 99.9451L155.68 93.7945C155.573 93.3934 155.253 93.0802 154.843 92.9749L148.56 91.3607C147.393 91.0608 147.393 89.4383 148.56 89.1383L154.843 87.5241C155.253 87.4188 155.573 87.1056 155.68 86.7046L157.329 80.554C157.636 79.411 159.293 79.411 159.6 80.554L161.249 86.7046C161.356 87.1056 161.676 87.4188 162.086 87.5241L168.369 89.1383C169.536 89.4383 169.536 91.0608 168.369 91.3607L162.086 92.9749C161.676 93.0802 161.356 93.3934 161.249 93.7945L159.6 99.9451Z"/><g style="mix-blend-mode:overlay"><path fill="url(#paint10_radial_2320_340466)" fill-rule="evenodd" d="M47.7441 125.184L96.8571 152.823L146.304 125.184V70.2333L96.523 42.27L47.7441 70.2333V125.184ZM57.6398 125.903L91.3852 144.737C94.7959 146.64 98.948 146.646 102.364 144.752L136.379 125.897C139.969 123.907 142.197 120.125 142.197 116.02V79.3528C142.197 75.2561 139.978 71.4807 136.399 69.487L102.116 50.3885C98.669 48.4681 94.4693 48.4863 91.0387 50.4367L57.5618 69.4693C54.0311 71.4767 51.8501 75.2254 51.8501 79.2869V116.042C51.8501 120.135 54.0652 123.908 57.6398 125.903Z" clip-rule="evenodd"/></g><g style="mix-blend-mode:overlay"><path fill="url(#paint11_radial_2320_340466)" fill-rule="evenodd" d="M46.7217 124.179L95.8346 151.817L145.282 124.179V69.2279L95.5005 41.2646L46.7217 69.2279V124.179ZM56.6172 124.898L90.3627 143.731C93.7733 145.634 97.9254 145.64 101.342 143.747L135.356 124.891C138.947 122.901 141.174 119.119 141.174 115.014V78.3469C141.174 74.2503 138.956 70.4749 135.377 68.4812L101.094 49.3827C97.6465 47.4623 93.4467 47.4805 90.0162 49.4309L56.5393 68.4635C53.0085 70.4708 50.8275 74.2196 50.8275 78.2811V115.036C50.8275 119.13 53.0427 122.903 56.6172 124.898Z" clip-rule="evenodd"/></g><g style="mix-blend-mode:soft-light"><path fill="url(#paint12_radial_2320_340466)" d="M95.4858 182.973L20.0259 140.259L95.4858 171.918L171.972 140.259L95.4858 182.973Z"/></g><g style="mix-blend-mode:overlay"><path fill="url(#paint13_radial_2320_340466)" d="M95.4858 182.973L20.0259 140.259L95.4858 178.953L171.972 140.259L95.4858 182.973Z"/></g><g style="mix-blend-mode:soft-light"><path fill="#fff" d="M155.128 65.6507C147.185 70.2927 144.758 83.4883 144.537 89.5057C144.316 85.8523 143.478 77.2558 141.889 72.098C140.811 68.5986 135.001 64.5056 129.584 61.4299C126.781 60.1658 124.32 58.8646 122.693 57.9139C124.538 58.7431 127.017 59.9723 129.584 61.4299C134.385 63.5948 140.191 65.6507 144.537 65.6507C151.421 65.6507 166.381 58.7735 173 55.335C170.352 56.8393 163.071 61.0086 155.128 65.6507Z"/></g><g style="mix-blend-mode:soft-light" opacity=".5"><path fill="#fff" d="M37.2855 129.981C45.1464 125.206 47.3426 111.972 47.4581 105.952C47.7425 109.601 48.731 118.182 50.4095 123.313C51.5483 126.794 57.4297 130.789 62.8995 133.773C65.7245 134.99 68.2073 136.25 69.8505 137.173C67.9917 136.375 65.4918 135.188 62.8995 133.773C58.0617 131.689 52.2204 129.731 47.8748 129.803C40.9918 129.919 26.1545 137.045 19.5962 140.594C22.2173 139.046 29.4246 134.755 37.2855 129.981Z"/></g><g style="mix-blend-mode:overlay"><path fill="#fff" d="M40.3016 65.3763C46.6135 68.6233 56.4537 64.8805 60.5848 62.6032C58.2192 64.2141 52.7815 68.2101 49.9553 71.3064C48.0378 73.4072 47.6245 78.7934 47.7362 83.5171C48.0141 85.8299 48.1292 87.937 48.1446 89.3665C47.96 87.8456 47.7891 85.7558 47.7362 83.5171C47.2603 79.5563 46.3071 74.992 44.5597 72.1941C41.7919 67.7625 31.1576 60.8973 26.1864 58.0187C28.2615 59.1183 33.9897 62.1293 40.3016 65.3763Z"/></g><g style="mix-blend-mode:soft-light" opacity=".6"><path fill="#fff" d="M146.307 128.199C140.147 127.697 136.546 129.894 132.36 132.073C134.764 130.518 140.299 126.652 143.201 123.624C145.17 121.569 145.716 116.194 145.721 111.469C145.5 109.15 145.437 107.041 145.457 105.612C145.604 107.137 145.723 109.23 145.721 111.469C146.099 115.44 146.939 120.026 148.617 122.864C151.274 127.36 161.736 134.475 166.635 137.47C164.587 136.322 149.512 128.461 146.307 128.199Z"/></g><g style="mix-blend-mode:overlay"><path fill="#fff" d="M151.129 67.4333C146.428 70.1639 144.992 77.926 144.861 81.4657C144.73 79.3166 144.234 74.2599 143.294 71.2258C142.656 69.1674 139.217 66.7597 136.011 64.9505C134.352 64.2069 132.896 63.4415 131.933 62.8823C133.025 63.37 134.492 64.0931 136.011 64.9505C138.852 66.2239 142.289 67.4333 144.861 67.4333C148.935 67.4333 157.789 63.3879 161.706 61.3652C160.139 62.2502 155.83 64.7027 151.129 67.4333Z"/></g><g style="mix-blend-mode:soft-light" opacity=".6"><path fill="#fff" d="M79.5723 142.879C83.2177 144.918 91.6542 148.995 96.237 148.995C100.82 148.995 110.992 144.176 115.506 141.767C110.645 144.547 100.403 150.996 98.3201 154.554C96.6116 157.473 96.1876 162.585 96.1861 165.966C96.2218 166.702 96.237 167.359 96.237 167.898C96.2058 167.365 96.1858 166.707 96.1861 165.966C96.0132 162.394 95.36 156.948 93.6331 153.998C91.55 150.44 83.3913 145.103 79.5723 142.879Z"/></g></g><g style="mix-blend-mode:color-burn" opacity=".5"><path fill="#EFEFEF" d="M95.4858 182.973L20.0259 140.26V55.3351L94.9725 12.1191L171.459 55.3351V140.26L95.4858 182.973Z"/><path fill="url(#paint14_linear_2320_340466)" d="M95.8632 142.772L55.959 120.159V75.1989L95.5918 52.3198L136.039 75.1989V120.159L95.8632 142.772Z"/><mask id="mask2_2320_340466" width="77" height="64" x="94" y="12" maskUnits="userSpaceOnUse" style="mask-type:alpha"><path fill="url(#paint15_linear_2320_340466)" d="M170.277 54.4383L134.344 75.0409L94.8176 51.9254L95.3309 12.227L170.277 54.4383Z"/></mask><g mask="url(#mask2_2320_340466)"><path fill="url(#paint16_linear_2320_340466)" fill-rule="evenodd" d="M170.791 54.4381L95.3311 11.7246L19.3578 54.4381V139.363L95.8444 182.579L170.791 139.363V54.4381ZM134.858 74.5389L94.9537 51.9258L54.778 74.5389V119.499L95.2251 142.378L134.858 119.499V74.5389Z" clip-rule="evenodd"/></g><mask id="mask3_2320_340466" width="65" height="54" x="31" y="20" maskUnits="userSpaceOnUse" style="mask-type:alpha"><path fill="url(#paint17_linear_2320_340466)" d="M37.261 64.1674L50.4632 71.7371C54.0198 73.7763 58.438 73.747 62.0056 71.6606L90.0323 55.2704C93.5678 53.2028 95.72 49.4351 95.6679 45.4044L95.483 31.1081C95.3731 22.6029 86.0511 17.4017 78.5197 21.6435L37.4756 44.7604C29.8394 49.0612 29.7201 59.8438 37.261 64.1674Z"/></mask><g mask="url(#mask3_2320_340466)"><path fill="url(#paint18_linear_2320_340466)" fill-rule="evenodd" d="M19.7788 61.0209C19.7788 56.9518 21.9678 53.1973 25.509 51.1928L89.6945 14.8612C93.1358 12.9133 97.3452 12.9072 100.792 14.8451L165.453 51.1987C169.01 53.1986 171.212 56.962 171.212 61.0429V132.77C171.212 136.843 169.02 140.6 165.474 142.603L100.338 179.406C96.8596 181.371 92.6019 181.352 89.141 179.357L25.4308 142.62C21.9336 140.603 19.7788 136.873 19.7788 132.837V61.0209ZM55.7119 81.118C55.7119 77.0508 57.8989 73.2978 61.4374 71.2926L90.0671 55.0686C93.5109 53.1171 97.7249 53.111 101.174 55.0525L130.038 71.2984C133.592 73.2991 135.792 77.0611 135.792 81.14V112.91C135.792 116.981 133.602 120.736 130.059 122.74L100.962 139.199C97.4812 141.168 93.2189 141.149 89.7556 139.15L61.3591 122.757C57.8646 120.74 55.7119 117.011 55.7119 112.976V81.118Z" clip-rule="evenodd"/></g><path fill="#E1E1E1" d="M95.8322 152.823L46.7192 125.184V70.2333L95.4981 42.27L145.279 70.2333V125.184L95.8322 152.823Z"/><path fill="url(#paint19_linear_2320_340466)" d="M90.3623 144.736L56.6168 125.903C53.0423 123.908 50.8271 120.135 50.8271 116.041V79.2864C50.8271 75.2249 53.0081 71.4762 56.5389 69.4688L90.0158 50.4362C93.4463 48.4858 97.6461 48.4676 101.093 50.388L135.376 69.4865C138.955 71.4802 141.174 75.2556 141.174 79.3523V116.019C141.174 120.125 138.946 123.907 135.356 125.897L101.341 144.752C97.925 146.646 93.7729 146.64 90.3623 144.736Z"/><path fill="url(#paint20_linear_2320_340466)" d="M20.0259 140.26V55.8379L46.7192 69.9082V124.682L20.0259 140.26Z"/><path fill="url(#paint21_linear_2320_340466)" d="M171.974 55.3349L171.974 139.757L145.28 125.687L145.28 70.9127L171.974 55.3349Z"/><path fill="url(#paint22_linear_2320_340466)" d="M171.712 140.276L97.0259 182.487L96.1269 152.822L144.584 125.435L171.712 140.276Z"/><path fill="url(#paint23_linear_2320_340466)" d="M95.7397 182.487L21.0537 140.276L46.848 124.682L95.305 152.069L95.7397 182.487Z"/><path fill="#fff" d="M159.6 99.9451C159.293 101.088 157.636 101.088 157.329 99.9451L155.68 93.7945C155.573 93.3934 155.253 93.0802 154.843 92.9749L148.56 91.3607C147.393 91.0608 147.393 89.4383 148.56 89.1383L154.843 87.5241C155.253 87.4188 155.573 87.1056 155.68 86.7046L157.329 80.554C157.636 79.411 159.293 79.411 159.6 80.554L161.249 86.7046C161.356 87.1056 161.676 87.4188 162.086 87.5241L168.369 89.1383C169.536 89.4383 169.536 91.0608 168.369 91.3607L162.086 92.9749C161.676 93.0802 161.356 93.3934 161.249 93.7945L159.6 99.9451Z"/><g style="mix-blend-mode:overlay"><path fill="url(#paint24_radial_2320_340466)" fill-rule="evenodd" d="M47.7441 125.184L96.8571 152.823L146.304 125.184V70.2333L96.523 42.27L47.7441 70.2333V125.184ZM57.6398 125.903L91.3852 144.737C94.7959 146.64 98.948 146.646 102.364 144.752L136.379 125.897C139.969 123.907 142.197 120.125 142.197 116.02V79.3528C142.197 75.2561 139.978 71.4807 136.399 69.487L102.116 50.3885C98.669 48.4681 94.4693 48.4863 91.0387 50.4367L57.5618 69.4693C54.0311 71.4767 51.8501 75.2254 51.8501 79.2869V116.042C51.8501 120.135 54.0652 123.908 57.6398 125.903Z" clip-rule="evenodd"/></g><g style="mix-blend-mode:overlay"><path fill="url(#paint25_radial_2320_340466)" fill-rule="evenodd" d="M46.7217 124.179L95.8346 151.817L145.282 124.179V69.2279L95.5005 41.2646L46.7217 69.2279V124.179ZM56.6172 124.898L90.3627 143.731C93.7733 145.634 97.9254 145.64 101.342 143.747L135.356 124.891C138.947 122.901 141.174 119.119 141.174 115.014V78.3469C141.174 74.2503 138.956 70.4749 135.377 68.4812L101.094 49.3827C97.6465 47.4623 93.4467 47.4805 90.0162 49.4309L56.5393 68.4635C53.0085 70.4708 50.8275 74.2196 50.8275 78.2811V115.036C50.8275 119.13 53.0427 122.903 56.6172 124.898Z" clip-rule="evenodd"/></g><g style="mix-blend-mode:soft-light"><path fill="url(#paint26_radial_2320_340466)" d="M95.4858 182.973L20.0259 140.259L95.4858 171.918L171.972 140.259L95.4858 182.973Z"/></g><g style="mix-blend-mode:overlay"><path fill="url(#paint27_radial_2320_340466)" d="M95.4858 182.973L20.0259 140.259L95.4858 178.953L171.972 140.259L95.4858 182.973Z"/></g><g style="mix-blend-mode:soft-light"><path fill="#fff" d="M155.128 65.6507C147.185 70.2927 144.758 83.4883 144.537 89.5057C144.316 85.8523 143.478 77.2558 141.889 72.098C140.811 68.5986 135.001 64.5056 129.584 61.4299C126.781 60.1658 124.32 58.8646 122.693 57.9139C124.538 58.7431 127.017 59.9723 129.584 61.4299C134.385 63.5948 140.191 65.6507 144.537 65.6507C151.421 65.6507 166.381 58.7735 173 55.335C170.352 56.8393 163.071 61.0086 155.128 65.6507Z"/></g><g style="mix-blend-mode:soft-light" opacity=".5"><path fill="#fff" d="M37.2855 129.981C45.1464 125.206 47.3426 111.972 47.4581 105.952C47.7425 109.601 48.731 118.182 50.4095 123.313C51.5483 126.794 57.4297 130.789 62.8995 133.773C65.7245 134.99 68.2073 136.25 69.8505 137.173C67.9917 136.375 65.4918 135.188 62.8995 133.773C58.0617 131.689 52.2204 129.731 47.8748 129.803C40.9918 129.919 26.1545 137.045 19.5962 140.594C22.2173 139.046 29.4246 134.755 37.2855 129.981Z"/></g><g style="mix-blend-mode:overlay"><path fill="#fff" d="M40.3016 65.3763C46.6135 68.6233 56.4537 64.8805 60.5848 62.6032C58.2192 64.2141 52.7815 68.2101 49.9553 71.3064C48.0378 73.4072 47.6245 78.7934 47.7362 83.5171C48.0141 85.8299 48.1292 87.937 48.1446 89.3665C47.96 87.8456 47.7891 85.7558 47.7362 83.5171C47.2603 79.5563 46.3071 74.992 44.5597 72.1941C41.7919 67.7625 31.1576 60.8973 26.1864 58.0187C28.2615 59.1183 33.9897 62.1293 40.3016 65.3763Z"/></g><g style="mix-blend-mode:soft-light" opacity=".6"><path fill="#fff" d="M146.307 128.199C140.147 127.697 136.546 129.894 132.36 132.073C134.764 130.518 140.299 126.652 143.201 123.624C145.17 121.569 145.716 116.194 145.721 111.469C145.5 109.15 145.437 107.041 145.457 105.612C145.604 107.137 145.723 109.23 145.721 111.469C146.099 115.44 146.939 120.026 148.617 122.864C151.274 127.36 161.736 134.475 166.635 137.47C164.587 136.322 149.512 128.461 146.307 128.199Z"/></g><g style="mix-blend-mode:overlay"><path fill="#fff" d="M151.129 67.4333C146.428 70.1639 144.992 77.926 144.861 81.4657C144.73 79.3166 144.234 74.2599 143.294 71.2258C142.656 69.1674 139.217 66.7597 136.011 64.9505C134.352 64.2069 132.896 63.4415 131.933 62.8823C133.025 63.37 134.492 64.0931 136.011 64.9505C138.852 66.2239 142.289 67.4333 144.861 67.4333C148.935 67.4333 157.789 63.3879 161.706 61.3652C160.139 62.2502 155.83 64.7027 151.129 67.4333Z"/></g><g style="mix-blend-mode:soft-light" opacity=".6"><path fill="#fff" d="M79.5723 142.879C83.2177 144.918 91.6542 148.995 96.237 148.995C100.82 148.995 110.992 144.176 115.506 141.767C110.645 144.547 100.403 150.996 98.3201 154.554C96.6116 157.473 96.1876 162.585 96.1861 165.966C96.2218 166.702 96.237 167.359 96.237 167.898C96.2058 167.365 96.1858 166.707 96.1861 165.966C96.0132 162.394 95.36 156.948 93.6331 153.998C91.55 150.44 83.3913 145.103 79.5723 142.879Z"/></g></g><g style="mix-blend-mode:color"><path fill="url(#paint28_linear_2320_340466)" d="M95.7425 182.986L20.0547 140.267V55.3311L95.2276 12.1094L171.945 55.3311V140.267L95.7425 182.986Z"/></g><path fill="#E86A0F" d="M176.184 41.472C176 42.176 175 42.176 174.816 41.472L173.821 37.6835C173.756 37.4365 173.564 37.2436 173.316 37.1787L169.528 36.1844C168.824 35.9997 168.824 35.0003 169.528 34.8156L173.316 33.8213C173.564 33.7564 173.756 33.5635 173.821 33.3165L174.816 29.528C175 28.824 176 28.824 176.184 29.528L177.179 33.3165C177.244 33.5635 177.436 33.7564 177.684 33.8213L181.472 34.8156C182.176 35.0003 182.176 35.9997 181.472 36.1844L177.684 37.1787C177.436 37.2436 177.244 37.4365 177.179 37.6835L176.184 41.472Z"/><ellipse cx="106" cy="99" fill="#FFD7B3" rx="7" ry="11"/><path fill="#FFD7B3" d="M76.84 116H72.84V120H76.84V116ZM76.84 91.6455H80.84V87.0028L76.2484 87.6894L76.84 91.6455ZM71.2955 92.4745H67.2955V97.1171L71.887 96.4306L71.2955 92.4745ZM71.2955 84.3391L70.7185 80.3809L67.2955 80.8799V84.3391H71.2955ZM86.5818 82.1109H90.5818V77.4856L86.0049 78.1527L86.5818 82.1109ZM86.5818 116V120H90.5818V116H86.5818ZM80.84 116V91.6455H72.84V116H80.84ZM76.2484 87.6894L70.7039 88.5185L71.887 96.4306L77.4316 95.6015L76.2484 87.6894ZM75.2955 92.4745V84.3391H67.2955V92.4745H75.2955ZM71.8724 88.2973L87.1588 86.0691L86.0049 78.1527L70.7185 80.3809L71.8724 88.2973ZM82.5818 82.1109V116H90.5818V82.1109H82.5818ZM86.5818 112H76.84V120H86.5818V112ZM96.9058 114.549L94.8935 118.006L94.9238 118.024L94.9545 118.041L96.9058 114.549ZM91.8276 108.694L88.1382 110.239L91.8276 108.694ZM91.8276 89.9355L88.1382 88.3899L91.8276 89.9355ZM96.9058 84.1318L98.8791 87.6112L98.8875 87.6064L98.8958 87.6016L96.9058 84.1318ZM118.462 86.5673L115.378 89.1139L115.385 89.1227L115.392 89.1316L118.462 86.5673ZM118.462 112.062L121.547 114.608L118.462 112.062ZM110.845 105.999L107.401 103.964L107.394 103.976L107.387 103.989L110.845 105.999ZM110.845 92.63L107.387 94.6405L107.404 94.6702L107.422 94.6997L110.845 92.63ZM101.466 92.63L98.0429 90.5603L98.025 90.5898L98.0078 90.6195L101.466 92.63ZM101.466 105.999L97.988 107.975L98.0148 108.022L98.0429 108.069L101.466 105.999ZM106.181 112.518C102.757 112.518 100.41 111.925 98.8571 111.057L94.9545 118.041C98.1001 119.799 101.937 120.518 106.181 120.518V112.518ZM98.9181 111.092C97.3833 110.199 96.2642 108.932 95.517 107.148L88.1382 110.239C89.5328 113.568 91.7992 116.205 94.8935 118.006L98.9181 111.092ZM95.517 107.148C94.7072 105.215 94.2212 102.648 94.2212 99.3145H86.2212C86.2212 103.374 86.8062 107.06 88.1382 110.239L95.517 107.148ZM94.2212 99.3145C94.2212 95.9814 94.7072 93.4141 95.517 91.481L88.1382 88.3899C86.8062 91.5696 86.2212 95.2549 86.2212 99.3145H94.2212ZM95.517 91.481C96.261 89.7049 97.3687 88.4679 98.8791 87.6112L94.9324 80.6525C91.8138 82.4212 89.536 85.0533 88.1382 88.3899L95.517 91.481ZM98.8958 87.6016C100.439 86.7168 102.77 86.1109 106.181 86.1109V78.1109C101.923 78.1109 98.071 78.8523 94.9157 80.662L98.8958 87.6016ZM106.181 86.1109C111.318 86.1109 113.997 87.4411 115.378 89.1139L121.547 84.0207C118.022 79.7516 112.513 78.1109 106.181 78.1109V86.1109ZM115.392 89.1316C117.023 91.0841 118.141 94.2754 118.141 99.3145H126.141C126.141 93.2301 124.807 87.9232 121.532 84.003L115.392 89.1316ZM118.141 99.3145C118.141 104.308 117.028 107.516 115.378 109.515L121.547 114.608C124.802 110.666 126.141 105.376 126.141 99.3145H118.141ZM115.378 109.515C113.997 111.188 111.318 112.518 106.181 112.518V120.518C112.513 120.518 118.022 118.877 121.547 114.608L115.378 109.515ZM106.181 112.227C109.351 112.227 112.503 111.106 114.303 108.01L107.387 103.989C107.363 104.03 107.352 104.037 107.357 104.032C107.362 104.028 107.353 104.039 107.307 104.061C107.206 104.109 106.881 104.227 106.181 104.227V112.227ZM114.289 108.034C115.718 105.615 116.192 102.545 116.192 99.3145H108.192C108.192 101.957 107.768 103.344 107.401 103.964L114.289 108.034ZM116.192 99.3145C116.192 96.0709 115.725 92.9705 114.268 90.5603L107.422 94.6997C107.761 95.2604 108.192 96.6163 108.192 99.3145H116.192ZM114.303 90.6195C112.503 87.5235 109.351 86.4018 106.181 86.4018V94.4018C106.881 94.4018 107.206 94.5197 107.307 94.5681C107.353 94.59 107.362 94.6015 107.357 94.5968C107.352 94.5921 107.363 94.5995 107.387 94.6405L114.303 90.6195ZM106.181 86.4018C103.005 86.4018 99.879 87.5236 98.0429 90.5603L104.889 94.6997C104.93 94.6309 104.951 94.6114 105.027 94.5754C105.147 94.519 105.484 94.4018 106.181 94.4018V86.4018ZM98.0078 90.6195C96.6163 93.0128 96.1703 96.0871 96.1703 99.3145H104.17C104.17 96.6002 104.588 95.2181 104.924 94.6405L98.0078 90.6195ZM96.1703 99.3145C96.1703 102.528 96.6229 105.573 97.988 107.975L104.944 104.023C104.581 103.386 104.17 101.974 104.17 99.3145H96.1703ZM98.0429 108.069C99.879 111.105 103.005 112.227 106.181 112.227V104.227C105.484 104.227 105.147 104.11 105.027 104.054C104.951 104.018 104.93 103.998 104.889 103.929L98.0429 108.069Z"/><path fill="#D2531F" d="M76.84 116V91.6455L71.2955 92.4745V84.3391L86.5818 82.1109V116H76.84ZM106.181 116.518C102.347 116.518 99.2549 115.862 96.9058 114.549C94.5912 113.202 92.8985 111.25 91.8276 108.694C90.7567 106.137 90.2212 103.011 90.2212 99.3145C90.2212 95.6182 90.7567 92.4918 91.8276 89.9355C92.8985 87.3791 94.5912 85.4445 96.9058 84.1318C99.2549 82.7845 102.347 82.1109 106.181 82.1109C111.916 82.1109 116.009 83.5964 118.462 86.5673C120.915 89.5036 122.141 93.7527 122.141 99.3145C122.141 104.842 120.915 109.091 118.462 112.062C116.009 115.033 111.916 116.518 106.181 116.518ZM106.181 108.227C108.427 108.227 109.981 107.485 110.845 105.999C111.743 104.479 112.192 102.251 112.192 99.3145C112.192 96.3436 111.743 94.1155 110.845 92.63C109.981 91.1445 108.427 90.4018 106.181 90.4018C103.936 90.4018 102.364 91.1445 101.466 92.63C100.602 94.1155 100.17 96.3436 100.17 99.3145C100.17 102.251 100.602 104.479 101.466 105.999C102.364 107.485 103.936 108.227 106.181 108.227Z"/></g><defs><linearGradient id="paint0_linear_2320_340466" x1="126.865" x2="90.716" y1="52.634" y2="149.018" gradientUnits="userSpaceOnUse"><stop stop-color="#B6B6B6"/><stop offset="1" stop-color="#8E8E8E" stop-opacity="0"/></linearGradient><linearGradient id="paint1_linear_2320_340466" x1="150.262" x2="97.186" y1="52.32" y2="29.531" gradientUnits="userSpaceOnUse"><stop stop-color="#fff" stop-opacity="0"/><stop offset=".513" stop-color="#fff"/><stop offset="1" stop-color="#fff"/></linearGradient><linearGradient id="paint2_linear_2320_340466" x1="57.798" x2="137.506" y1="39.74" y2="146.87" gradientUnits="userSpaceOnUse"><stop stop-color="#fff" stop-opacity="0"/><stop offset=".513" stop-color="#fff"/><stop offset="1" stop-color="#fff"/></linearGradient><linearGradient id="paint3_linear_2320_340466" x1="63.41" x2="51.428" y1="-5.196" y2="77.256" gradientUnits="userSpaceOnUse"><stop stop-color="#FD9B13"/><stop offset="1" stop-color="#FD9B13" stop-opacity="0"/></linearGradient><linearGradient id="paint4_linear_2320_340466" x1="153.863" x2="87.998" y1="180.285" y2=".917" gradientUnits="userSpaceOnUse"><stop stop-color="#B6B6B6"/><stop offset="1" stop-color="#8E8E8E" stop-opacity="0"/></linearGradient><linearGradient id="paint5_linear_2320_340466" x1="130.823" x2="91.119" y1="47.644" y2="155.136" gradientUnits="userSpaceOnUse"><stop stop-color="#B6B6B6"/><stop offset="1" stop-color="#8E8E8E" stop-opacity="0"/></linearGradient><linearGradient id="paint6_linear_2320_340466" x1="6.095" x2="189.531" y1="83.44" y2="-45.052" gradientUnits="userSpaceOnUse"><stop stop-color="#AFAFAF"/><stop offset="1" stop-color="#CECECE" stop-opacity="0"/></linearGradient><linearGradient id="paint7_linear_2320_340466" x1="166.84" x2="143.671" y1="72.923" y2="175.15" gradientUnits="userSpaceOnUse"><stop stop-color="#8B8B8B"/><stop offset="1" stop-color="#B7B7B7" stop-opacity="0"/></linearGradient><linearGradient id="paint8_linear_2320_340466" x1="128.41" x2="-73.398" y1="180.497" y2="81.895" gradientUnits="userSpaceOnUse"><stop stop-color="#BEBEBE"/><stop offset="1" stop-color="#CECECE" stop-opacity="0"/></linearGradient><linearGradient id="paint9_linear_2320_340466" x1="38.507" x2="21.778" y1="165.888" y2="-54.267" gradientUnits="userSpaceOnUse"><stop stop-color="#929292"/><stop offset="1" stop-color="#CECECE" stop-opacity="0"/></linearGradient><radialGradient id="paint10_radial_2320_340466" cx="0" cy="0" r="1" gradientTransform="translate(119.611 48.3001) rotate(130.327) scale(93.5997 81.9882)" gradientUnits="userSpaceOnUse"><stop stop-color="#fff"/><stop offset="1" stop-color="#fff" stop-opacity="0"/></radialGradient><radialGradient id="paint11_radial_2320_340466" cx="0" cy="0" r="1" gradientTransform="translate(118.588 47.2948) rotate(130.327) scale(93.5997 81.9882)" gradientUnits="userSpaceOnUse"><stop stop-color="#fff"/><stop offset="1" stop-color="#fff" stop-opacity="0"/></radialGradient><radialGradient id="paint12_radial_2320_340466" cx="0" cy="0" r="1" gradientTransform="translate(130.82 142.589) rotate(163.552) scale(97.3685 46.9455)" gradientUnits="userSpaceOnUse"><stop stop-color="#fff"/><stop offset="1" stop-color="#fff" stop-opacity="0"/></radialGradient><radialGradient id="paint13_radial_2320_340466" cx="0" cy="0" r="1" gradientTransform="translate(130.82 142.589) rotate(163.552) scale(97.3685 46.9455)" gradientUnits="userSpaceOnUse"><stop stop-color="#fff"/><stop offset="1" stop-color="#fff" stop-opacity="0"/></radialGradient><linearGradient id="paint14_linear_2320_340466" x1="126.865" x2="90.716" y1="52.634" y2="149.018" gradientUnits="userSpaceOnUse"><stop stop-color="#B6B6B6"/><stop offset="1" stop-color="#8E8E8E" stop-opacity="0"/></linearGradient><linearGradient id="paint15_linear_2320_340466" x1="150.262" x2="97.186" y1="52.32" y2="29.531" gradientUnits="userSpaceOnUse"><stop stop-color="#fff" stop-opacity="0"/><stop offset=".513" stop-color="#fff"/><stop offset="1" stop-color="#fff"/></linearGradient><linearGradient id="paint16_linear_2320_340466" x1="57.798" x2="137.506" y1="39.74" y2="146.87" gradientUnits="userSpaceOnUse"><stop stop-color="#fff" stop-opacity="0"/><stop offset=".513" stop-color="#fff"/><stop offset="1" stop-color="#fff"/></linearGradient><linearGradient id="paint17_linear_2320_340466" x1="63.41" x2="51.428" y1="-5.196" y2="77.256" gradientUnits="userSpaceOnUse"><stop stop-color="#FD9B13"/><stop offset="1" stop-color="#FD9B13" stop-opacity="0"/></linearGradient><linearGradient id="paint18_linear_2320_340466" x1="153.863" x2="87.998" y1="180.285" y2=".917" gradientUnits="userSpaceOnUse"><stop stop-color="#B6B6B6"/><stop offset="1" stop-color="#8E8E8E" stop-opacity="0"/></linearGradient><linearGradient id="paint19_linear_2320_340466" x1="130.823" x2="91.119" y1="47.644" y2="155.136" gradientUnits="userSpaceOnUse"><stop stop-color="#B6B6B6"/><stop offset="1" stop-color="#8E8E8E" stop-opacity="0"/></linearGradient><linearGradient id="paint20_linear_2320_340466" x1="6.095" x2="189.531" y1="83.44" y2="-45.052" gradientUnits="userSpaceOnUse"><stop stop-color="#AFAFAF"/><stop offset="1" stop-color="#CECECE" stop-opacity="0"/></linearGradient><linearGradient id="paint21_linear_2320_340466" x1="166.84" x2="143.671" y1="72.923" y2="175.15" gradientUnits="userSpaceOnUse"><stop stop-color="#8B8B8B"/><stop offset="1" stop-color="#B7B7B7" stop-opacity="0"/></linearGradient><linearGradient id="paint22_linear_2320_340466" x1="128.41" x2="-73.398" y1="180.497" y2="81.895" gradientUnits="userSpaceOnUse"><stop stop-color="#BEBEBE"/><stop offset="1" stop-color="#CECECE" stop-opacity="0"/></linearGradient><linearGradient id="paint23_linear_2320_340466" x1="38.507" x2="21.778" y1="165.888" y2="-54.267" gradientUnits="userSpaceOnUse"><stop stop-color="#929292"/><stop offset="1" stop-color="#CECECE" stop-opacity="0"/></linearGradient><radialGradient id="paint24_radial_2320_340466" cx="0" cy="0" r="1" gradientTransform="translate(119.611 48.3001) rotate(130.327) scale(93.5997 81.9882)" gradientUnits="userSpaceOnUse"><stop stop-color="#fff"/><stop offset="1" stop-color="#fff" stop-opacity="0"/></radialGradient><radialGradient id="paint25_radial_2320_340466" cx="0" cy="0" r="1" gradientTransform="translate(118.588 47.2948) rotate(130.327) scale(93.5997 81.9882)" gradientUnits="userSpaceOnUse"><stop stop-color="#fff"/><stop offset="1" stop-color="#fff" stop-opacity="0"/></radialGradient><radialGradient id="paint26_radial_2320_340466" cx="0" cy="0" r="1" gradientTransform="translate(130.82 142.589) rotate(163.552) scale(97.3685 46.9455)" gradientUnits="userSpaceOnUse"><stop stop-color="#fff"/><stop offset="1" stop-color="#fff" stop-opacity="0"/></radialGradient><radialGradient id="paint27_radial_2320_340466" cx="0" cy="0" r="1" gradientTransform="translate(130.82 142.589) rotate(163.552) scale(97.3685 46.9455)" gradientUnits="userSpaceOnUse"><stop stop-color="#fff"/><stop offset="1" stop-color="#fff" stop-opacity="0"/></radialGradient><linearGradient id="paint28_linear_2320_340466" x1="45.668" x2="145.438" y1="68.725" y2="112.087" gradientUnits="userSpaceOnUse"><stop stop-color="#FF7A00"/><stop offset="1" stop-color="#3C1D00" stop-opacity="0"/></linearGradient><clipPath id="clip0_2320_340466"><rect width="192" height="192" fill="#fff"/></clipPath></defs></svg>