<svg width="192" height="192" viewBox="0 0 192 192" fill="none" xmlns="http://www.w3.org/2000/svg">
  <g clip-path="url(#clip0_2320_340389)">
    <path d="M95.7425 182.986L20.0547 140.267V55.3311L95.2276 12.1094L171.945 55.3311V140.267L95.7425 182.986Z"
      fill="#E86A0F" />
    <g style="mix-blend-mode:hard-light" opacity="0.9">
      <path d="M95.4858 182.973L20.0259 140.26V55.3351L94.9725 12.1191L171.459 55.3351V140.26L95.4858 182.973Z"
        fill="#EFEFEF" />
      <path d="M95.8632 142.772L55.959 120.159V75.1989L95.5918 52.3198L136.039 75.1989V120.159L95.8632 142.772Z"
        fill="url(#paint0_linear_2320_340389)" />
      <mask id="mask0_2320_340389" style="mask-type:alpha" maskUnits="userSpaceOnUse" x="94" y="12" width="77"
        height="64">
        <path d="M170.279 54.4383L134.346 75.0409L94.8191 51.9254L95.3324 12.227L170.279 54.4383Z"
          fill="url(#paint1_linear_2320_340389)" />
      </mask>
      <g mask="url(#mask0_2320_340389)">
        <path fill-rule="evenodd" clip-rule="evenodd"
          d="M170.792 54.4381L95.3325 11.7246L19.3592 54.4381V139.363L95.8459 182.579L170.792 139.363V54.4381ZM134.859 74.5389L94.9551 51.9258L54.7794 74.5389V119.499L95.2266 142.378L134.859 119.499V74.5389Z"
          fill="url(#paint2_linear_2320_340389)" />
      </g>
      <mask id="mask1_2320_340389" style="mask-type:alpha" maskUnits="userSpaceOnUse" x="31" y="20" width="65"
        height="54">
        <path
          d="M37.261 64.1674L50.4632 71.7371C54.0198 73.7763 58.438 73.747 62.0056 71.6606L90.0323 55.2704C93.5678 53.2028 95.72 49.4351 95.6679 45.4044L95.483 31.1081C95.3731 22.6029 86.0511 17.4017 78.5197 21.6435L37.4756 44.7604C29.8394 49.0612 29.7201 59.8438 37.261 64.1674Z"
          fill="url(#paint3_linear_2320_340389)" />
      </mask>
      <g mask="url(#mask1_2320_340389)">
        <path fill-rule="evenodd" clip-rule="evenodd"
          d="M19.7788 61.0209C19.7788 56.9518 21.9678 53.1973 25.509 51.1928L89.6945 14.8612C93.1358 12.9133 97.3452 12.9072 100.792 14.8451L165.453 51.1987C169.01 53.1986 171.212 56.962 171.212 61.0429V132.77C171.212 136.843 169.02 140.6 165.474 142.603L100.338 179.406C96.8596 181.371 92.6019 181.352 89.141 179.357L25.4308 142.62C21.9336 140.603 19.7788 136.873 19.7788 132.837V61.0209ZM55.7119 81.118C55.7119 77.0508 57.8989 73.2978 61.4374 71.2926L90.0671 55.0686C93.5109 53.1171 97.7249 53.111 101.174 55.0525L130.038 71.2984C133.592 73.2991 135.792 77.0611 135.792 81.14V112.91C135.792 116.981 133.602 120.736 130.059 122.74L100.962 139.199C97.4812 141.168 93.2189 141.149 89.7556 139.15L61.3591 122.757C57.8646 120.74 55.7119 117.011 55.7119 112.976V81.118Z"
          fill="url(#paint4_linear_2320_340389)" />
      </g>
      <path d="M95.8322 152.823L46.7192 125.184V70.2333L95.4981 42.27L145.279 70.2333V125.184L95.8322 152.823Z"
        fill="#E1E1E1" />
      <path
        d="M90.3623 144.736L56.6168 125.903C53.0423 123.908 50.8271 120.135 50.8271 116.041V79.2864C50.8271 75.2249 53.0081 71.4762 56.5389 69.4688L90.0158 50.4362C93.4463 48.4858 97.6461 48.4676 101.093 50.388L135.376 69.4865C138.955 71.4802 141.174 75.2556 141.174 79.3523V116.019C141.174 120.125 138.946 123.907 135.356 125.897L101.341 144.752C97.925 146.646 93.7729 146.64 90.3623 144.736Z"
        fill="url(#paint5_linear_2320_340389)" />
      <path d="M20.0259 140.26V55.8379L46.7192 69.9082V124.682L20.0259 140.26Z"
        fill="url(#paint6_linear_2320_340389)" />
      <path d="M171.974 55.3349L171.974 139.757L145.28 125.687L145.28 70.9127L171.974 55.3349Z"
        fill="url(#paint7_linear_2320_340389)" />
      <path d="M171.712 140.276L97.0259 182.487L96.1269 152.822L144.584 125.435L171.712 140.276Z"
        fill="url(#paint8_linear_2320_340389)" />
      <path d="M95.7397 182.487L21.0537 140.276L46.848 124.682L95.305 152.069L95.7397 182.487Z"
        fill="url(#paint9_linear_2320_340389)" />
      <path
        d="M159.6 99.9451C159.293 101.088 157.636 101.088 157.329 99.9451L155.68 93.7945C155.573 93.3934 155.253 93.0802 154.843 92.9749L148.56 91.3607C147.393 91.0608 147.393 89.4383 148.56 89.1383L154.843 87.5241C155.253 87.4188 155.573 87.1056 155.68 86.7046L157.329 80.554C157.636 79.411 159.293 79.411 159.6 80.554L161.249 86.7046C161.356 87.1056 161.676 87.4188 162.086 87.5241L168.369 89.1383C169.536 89.4383 169.536 91.0608 168.369 91.3607L162.086 92.9749C161.676 93.0802 161.356 93.3934 161.249 93.7945L159.6 99.9451Z"
        fill="white" />
      <g style="mix-blend-mode:overlay">
        <path fill-rule="evenodd" clip-rule="evenodd"
          d="M47.7441 125.184L96.8571 152.823L146.304 125.184V70.2333L96.523 42.27L47.7441 70.2333V125.184ZM57.6398 125.903L91.3852 144.737C94.7959 146.64 98.948 146.646 102.364 144.752L136.379 125.897C139.969 123.907 142.197 120.125 142.197 116.02V79.3528C142.197 75.2561 139.978 71.4807 136.399 69.487L102.116 50.3885C98.669 48.4681 94.4693 48.4863 91.0387 50.4367L57.5618 69.4693C54.0311 71.4767 51.8501 75.2254 51.8501 79.2869V116.042C51.8501 120.135 54.0652 123.908 57.6398 125.903Z"
          fill="url(#paint10_radial_2320_340389)" />
      </g>
      <g style="mix-blend-mode:overlay">
        <path fill-rule="evenodd" clip-rule="evenodd"
          d="M46.7217 124.179L95.8346 151.817L145.282 124.179V69.2279L95.5005 41.2646L46.7217 69.2279V124.179ZM56.6172 124.898L90.3627 143.731C93.7733 145.634 97.9254 145.64 101.342 143.747L135.356 124.891C138.947 122.901 141.174 119.119 141.174 115.014V78.3469C141.174 74.2503 138.956 70.4749 135.377 68.4812L101.094 49.3827C97.6465 47.4623 93.4467 47.4805 90.0162 49.4309L56.5393 68.4635C53.0085 70.4708 50.8275 74.2196 50.8275 78.2811V115.036C50.8275 119.13 53.0427 122.903 56.6172 124.898Z"
          fill="url(#paint11_radial_2320_340389)" />
      </g>
      <g style="mix-blend-mode:soft-light">
        <path d="M95.4858 182.973L20.0259 140.259L95.4858 171.918L171.972 140.259L95.4858 182.973Z"
          fill="url(#paint12_radial_2320_340389)" />
      </g>
      <g style="mix-blend-mode:overlay">
        <path d="M95.4858 182.973L20.0259 140.259L95.4858 178.953L171.972 140.259L95.4858 182.973Z"
          fill="url(#paint13_radial_2320_340389)" />
      </g>
      <g style="mix-blend-mode:soft-light">
        <path
          d="M155.128 65.6507C147.185 70.2927 144.758 83.4883 144.537 89.5057C144.316 85.8523 143.478 77.2558 141.889 72.098C140.811 68.5986 135.001 64.5056 129.584 61.4299C126.781 60.1658 124.32 58.8646 122.693 57.9139C124.538 58.7431 127.017 59.9723 129.584 61.4299C134.385 63.5948 140.191 65.6507 144.537 65.6507C151.421 65.6507 166.381 58.7735 173 55.335C170.352 56.8393 163.071 61.0086 155.128 65.6507Z"
          fill="white" />
      </g>
      <g style="mix-blend-mode:soft-light" opacity="0.5">
        <path
          d="M37.2855 129.981C45.1464 125.206 47.3426 111.972 47.4581 105.952C47.7425 109.601 48.731 118.182 50.4095 123.313C51.5483 126.794 57.4297 130.789 62.8995 133.773C65.7245 134.99 68.2073 136.25 69.8505 137.173C67.9917 136.375 65.4918 135.188 62.8995 133.773C58.0617 131.689 52.2204 129.731 47.8748 129.803C40.9918 129.919 26.1545 137.045 19.5962 140.594C22.2173 139.046 29.4246 134.755 37.2855 129.981Z"
          fill="white" />
      </g>
      <g style="mix-blend-mode:overlay">
        <path
          d="M40.3016 65.3763C46.6135 68.6233 56.4537 64.8805 60.5848 62.6032C58.2192 64.2141 52.7815 68.2101 49.9553 71.3064C48.0378 73.4072 47.6245 78.7934 47.7362 83.5171C48.0141 85.8299 48.1292 87.937 48.1446 89.3665C47.96 87.8456 47.7891 85.7558 47.7362 83.5171C47.2603 79.5563 46.3071 74.992 44.5597 72.1941C41.7919 67.7625 31.1576 60.8973 26.1864 58.0187C28.2615 59.1183 33.9897 62.1293 40.3016 65.3763Z"
          fill="white" />
      </g>
      <g style="mix-blend-mode:soft-light" opacity="0.6">
        <path
          d="M146.307 128.199C140.147 127.697 136.546 129.894 132.36 132.073C134.764 130.518 140.299 126.652 143.201 123.624C145.17 121.569 145.716 116.194 145.721 111.469C145.5 109.15 145.437 107.041 145.457 105.612C145.604 107.137 145.723 109.23 145.721 111.469C146.099 115.44 146.939 120.026 148.617 122.864C151.274 127.36 161.736 134.475 166.635 137.47C164.587 136.322 149.512 128.461 146.307 128.199Z"
          fill="white" />
      </g>
      <g style="mix-blend-mode:overlay">
        <path
          d="M151.129 67.4333C146.428 70.1639 144.992 77.926 144.861 81.4657C144.73 79.3166 144.234 74.2599 143.294 71.2258C142.656 69.1674 139.217 66.7597 136.011 64.9505C134.352 64.2069 132.896 63.4415 131.933 62.8823C133.025 63.37 134.492 64.0931 136.011 64.9505C138.852 66.2239 142.289 67.4333 144.861 67.4333C148.935 67.4333 157.789 63.3879 161.706 61.3652C160.139 62.2502 155.83 64.7027 151.129 67.4333Z"
          fill="white" />
      </g>
      <g style="mix-blend-mode:soft-light" opacity="0.6">
        <path
          d="M79.5723 142.879C83.2177 144.918 91.6542 148.995 96.237 148.995C100.82 148.995 110.992 144.176 115.506 141.767C110.645 144.547 100.403 150.996 98.3201 154.554C96.6116 157.473 96.1876 162.585 96.1861 165.966C96.2218 166.702 96.237 167.359 96.237 167.898C96.2058 167.365 96.1858 166.707 96.1861 165.966C96.0132 162.394 95.36 156.948 93.6331 153.998C91.55 150.44 83.3913 145.103 79.5723 142.879Z"
          fill="white" />
      </g>
    </g>
    <g style="mix-blend-mode:color-burn" opacity="0.5">
      <path d="M95.4858 182.973L20.0259 140.26V55.3351L94.9725 12.1191L171.459 55.3351V140.26L95.4858 182.973Z"
        fill="#EFEFEF" />
      <path d="M95.8632 142.772L55.959 120.159V75.1989L95.5918 52.3198L136.039 75.1989V120.159L95.8632 142.772Z"
        fill="url(#paint14_linear_2320_340389)" />
      <mask id="mask2_2320_340389" style="mask-type:alpha" maskUnits="userSpaceOnUse" x="94" y="12" width="77"
        height="64">
        <path d="M170.279 54.4383L134.346 75.0409L94.8191 51.9254L95.3324 12.227L170.279 54.4383Z"
          fill="url(#paint15_linear_2320_340389)" />
      </mask>
      <g mask="url(#mask2_2320_340389)">
        <path fill-rule="evenodd" clip-rule="evenodd"
          d="M170.792 54.4381L95.3325 11.7246L19.3592 54.4381V139.363L95.8459 182.579L170.792 139.363V54.4381ZM134.859 74.5389L94.9551 51.9258L54.7794 74.5389V119.499L95.2266 142.378L134.859 119.499V74.5389Z"
          fill="url(#paint16_linear_2320_340389)" />
      </g>
      <mask id="mask3_2320_340389" style="mask-type:alpha" maskUnits="userSpaceOnUse" x="31" y="20" width="65"
        height="54">
        <path
          d="M37.261 64.1674L50.4632 71.7371C54.0198 73.7763 58.438 73.747 62.0056 71.6606L90.0323 55.2704C93.5678 53.2028 95.72 49.4351 95.6679 45.4044L95.483 31.1081C95.3731 22.6029 86.0511 17.4017 78.5197 21.6435L37.4756 44.7604C29.8394 49.0612 29.7201 59.8438 37.261 64.1674Z"
          fill="url(#paint17_linear_2320_340389)" />
      </mask>
      <g mask="url(#mask3_2320_340389)">
        <path fill-rule="evenodd" clip-rule="evenodd"
          d="M19.7788 61.0209C19.7788 56.9518 21.9678 53.1973 25.509 51.1928L89.6945 14.8612C93.1358 12.9133 97.3452 12.9072 100.792 14.8451L165.453 51.1987C169.01 53.1986 171.212 56.962 171.212 61.0429V132.77C171.212 136.843 169.02 140.6 165.474 142.603L100.338 179.406C96.8596 181.371 92.6019 181.352 89.141 179.357L25.4308 142.62C21.9336 140.603 19.7788 136.873 19.7788 132.837V61.0209ZM55.7119 81.118C55.7119 77.0508 57.8989 73.2978 61.4374 71.2926L90.0671 55.0686C93.5109 53.1171 97.7249 53.111 101.174 55.0525L130.038 71.2984C133.592 73.2991 135.792 77.0611 135.792 81.14V112.91C135.792 116.981 133.602 120.736 130.059 122.74L100.962 139.199C97.4812 141.168 93.2189 141.149 89.7556 139.15L61.3591 122.757C57.8646 120.74 55.7119 117.011 55.7119 112.976V81.118Z"
          fill="url(#paint18_linear_2320_340389)" />
      </g>
      <path d="M95.8322 152.823L46.7192 125.184V70.2333L95.4981 42.27L145.279 70.2333V125.184L95.8322 152.823Z"
        fill="#E1E1E1" />
      <path
        d="M90.3623 144.736L56.6168 125.903C53.0423 123.908 50.8271 120.135 50.8271 116.041V79.2864C50.8271 75.2249 53.0081 71.4762 56.5389 69.4688L90.0158 50.4362C93.4463 48.4858 97.6461 48.4676 101.093 50.388L135.376 69.4865C138.955 71.4802 141.174 75.2556 141.174 79.3523V116.019C141.174 120.125 138.946 123.907 135.356 125.897L101.341 144.752C97.925 146.646 93.7729 146.64 90.3623 144.736Z"
        fill="url(#paint19_linear_2320_340389)" />
      <path d="M20.0259 140.26V55.8379L46.7192 69.9082V124.682L20.0259 140.26Z"
        fill="url(#paint20_linear_2320_340389)" />
      <path d="M171.974 55.3349L171.974 139.757L145.28 125.687L145.28 70.9127L171.974 55.3349Z"
        fill="url(#paint21_linear_2320_340389)" />
      <path d="M171.712 140.276L97.0259 182.487L96.1269 152.822L144.584 125.435L171.712 140.276Z"
        fill="url(#paint22_linear_2320_340389)" />
      <path d="M95.7397 182.487L21.0537 140.276L46.848 124.682L95.305 152.069L95.7397 182.487Z"
        fill="url(#paint23_linear_2320_340389)" />
      <path
        d="M159.6 99.9451C159.293 101.088 157.636 101.088 157.329 99.9451L155.68 93.7945C155.573 93.3934 155.253 93.0802 154.843 92.9749L148.56 91.3607C147.393 91.0608 147.393 89.4383 148.56 89.1383L154.843 87.5241C155.253 87.4188 155.573 87.1056 155.68 86.7046L157.329 80.554C157.636 79.411 159.293 79.411 159.6 80.554L161.249 86.7046C161.356 87.1056 161.676 87.4188 162.086 87.5241L168.369 89.1383C169.536 89.4383 169.536 91.0608 168.369 91.3607L162.086 92.9749C161.676 93.0802 161.356 93.3934 161.249 93.7945L159.6 99.9451Z"
        fill="white" />
      <g style="mix-blend-mode:overlay">
        <path fill-rule="evenodd" clip-rule="evenodd"
          d="M47.7441 125.184L96.8571 152.823L146.304 125.184V70.2333L96.523 42.27L47.7441 70.2333V125.184ZM57.6398 125.903L91.3852 144.737C94.7959 146.64 98.948 146.646 102.364 144.752L136.379 125.897C139.969 123.907 142.197 120.125 142.197 116.02V79.3528C142.197 75.2561 139.978 71.4807 136.399 69.487L102.116 50.3885C98.669 48.4681 94.4693 48.4863 91.0387 50.4367L57.5618 69.4693C54.0311 71.4767 51.8501 75.2254 51.8501 79.2869V116.042C51.8501 120.135 54.0652 123.908 57.6398 125.903Z"
          fill="url(#paint24_radial_2320_340389)" />
      </g>
      <g style="mix-blend-mode:overlay">
        <path fill-rule="evenodd" clip-rule="evenodd"
          d="M46.7217 124.179L95.8346 151.817L145.282 124.179V69.2279L95.5005 41.2646L46.7217 69.2279V124.179ZM56.6172 124.898L90.3627 143.731C93.7733 145.634 97.9254 145.64 101.342 143.747L135.356 124.891C138.947 122.901 141.174 119.119 141.174 115.014V78.3469C141.174 74.2503 138.956 70.4749 135.377 68.4812L101.094 49.3827C97.6465 47.4623 93.4467 47.4805 90.0162 49.4309L56.5393 68.4635C53.0085 70.4708 50.8275 74.2196 50.8275 78.2811V115.036C50.8275 119.13 53.0427 122.903 56.6172 124.898Z"
          fill="url(#paint25_radial_2320_340389)" />
      </g>
      <g style="mix-blend-mode:soft-light">
        <path d="M95.4858 182.973L20.0259 140.259L95.4858 171.918L171.972 140.259L95.4858 182.973Z"
          fill="url(#paint26_radial_2320_340389)" />
      </g>
      <g style="mix-blend-mode:overlay">
        <path d="M95.4858 182.973L20.0259 140.259L95.4858 178.953L171.972 140.259L95.4858 182.973Z"
          fill="url(#paint27_radial_2320_340389)" />
      </g>
      <g style="mix-blend-mode:soft-light">
        <path
          d="M155.128 65.6507C147.185 70.2927 144.758 83.4883 144.537 89.5057C144.316 85.8523 143.478 77.2558 141.889 72.098C140.811 68.5986 135.001 64.5056 129.584 61.4299C126.781 60.1658 124.32 58.8646 122.693 57.9139C124.538 58.7431 127.017 59.9723 129.584 61.4299C134.385 63.5948 140.191 65.6507 144.537 65.6507C151.421 65.6507 166.381 58.7735 173 55.335C170.352 56.8393 163.071 61.0086 155.128 65.6507Z"
          fill="white" />
      </g>
      <g style="mix-blend-mode:soft-light" opacity="0.5">
        <path
          d="M37.2855 129.981C45.1464 125.206 47.3426 111.972 47.4581 105.952C47.7425 109.601 48.731 118.182 50.4095 123.313C51.5483 126.794 57.4297 130.789 62.8995 133.773C65.7245 134.99 68.2073 136.25 69.8505 137.173C67.9917 136.375 65.4918 135.188 62.8995 133.773C58.0617 131.689 52.2204 129.731 47.8748 129.803C40.9918 129.919 26.1545 137.045 19.5962 140.594C22.2173 139.046 29.4246 134.755 37.2855 129.981Z"
          fill="white" />
      </g>
      <g style="mix-blend-mode:overlay">
        <path
          d="M40.3016 65.3763C46.6135 68.6233 56.4537 64.8805 60.5848 62.6032C58.2192 64.2141 52.7815 68.2101 49.9553 71.3064C48.0378 73.4072 47.6245 78.7934 47.7362 83.5171C48.0141 85.8299 48.1292 87.937 48.1446 89.3665C47.96 87.8456 47.7891 85.7558 47.7362 83.5171C47.2603 79.5563 46.3071 74.992 44.5597 72.1941C41.7919 67.7625 31.1576 60.8973 26.1864 58.0187C28.2615 59.1183 33.9897 62.1293 40.3016 65.3763Z"
          fill="white" />
      </g>
      <g style="mix-blend-mode:soft-light" opacity="0.6">
        <path
          d="M146.307 128.199C140.147 127.697 136.546 129.894 132.36 132.073C134.764 130.518 140.299 126.652 143.201 123.624C145.17 121.569 145.716 116.194 145.721 111.469C145.5 109.15 145.437 107.041 145.457 105.612C145.604 107.137 145.723 109.23 145.721 111.469C146.099 115.44 146.939 120.026 148.617 122.864C151.274 127.36 161.736 134.475 166.635 137.47C164.587 136.322 149.512 128.461 146.307 128.199Z"
          fill="white" />
      </g>
      <g style="mix-blend-mode:overlay">
        <path
          d="M151.129 67.4333C146.428 70.1639 144.992 77.926 144.861 81.4657C144.73 79.3166 144.234 74.2599 143.294 71.2258C142.656 69.1674 139.217 66.7597 136.011 64.9505C134.352 64.2069 132.896 63.4415 131.933 62.8823C133.025 63.37 134.492 64.0931 136.011 64.9505C138.852 66.2239 142.289 67.4333 144.861 67.4333C148.935 67.4333 157.789 63.3879 161.706 61.3652C160.139 62.2502 155.83 64.7027 151.129 67.4333Z"
          fill="white" />
      </g>
      <g style="mix-blend-mode:soft-light" opacity="0.6">
        <path
          d="M79.5723 142.879C83.2177 144.918 91.6542 148.995 96.237 148.995C100.82 148.995 110.992 144.176 115.506 141.767C110.645 144.547 100.403 150.996 98.3201 154.554C96.6116 157.473 96.1876 162.585 96.1861 165.966C96.2218 166.702 96.237 167.359 96.237 167.898C96.2058 167.365 96.1858 166.707 96.1861 165.966C96.0132 162.394 95.36 156.948 93.6331 153.998C91.55 150.44 83.3913 145.103 79.5723 142.879Z"
          fill="white" />
      </g>
    </g>
    <g style="mix-blend-mode:color">
      <path d="M95.7425 182.986L20.0547 140.267V55.3311L95.2276 12.1094L171.945 55.3311V140.267L95.7425 182.986Z"
        fill="url(#paint28_linear_2320_340389)" />
    </g>
    <path
      d="M176.184 41.472C176 42.176 175 42.176 174.816 41.472L173.821 37.6835C173.756 37.4365 173.564 37.2436 173.316 37.1787L169.528 36.1844C168.824 35.9997 168.824 35.0003 169.528 34.8156L173.316 33.8213C173.564 33.7564 173.756 33.5635 173.821 33.3165L174.816 29.528C175 28.824 176 28.824 176.184 29.528L177.179 33.3165C177.244 33.5635 177.436 33.7564 177.684 33.8213L181.472 34.8156C182.176 35.0003 182.176 35.9997 181.472 36.1844L177.684 37.1787C177.436 37.2436 177.244 37.4365 177.179 37.6835L176.184 41.472Z"
      fill="#E86A0F" />
    <ellipse cx="106.545" cy="99.6366" rx="30.5455" ry="13.3636" fill="#FFD7B3" />
    <path
      d="M61.5291 115H57.7109V118.818H61.5291V115ZM61.5291 91.7525H65.3473V87.3209L60.9644 87.9763L61.5291 91.7525ZM56.2366 92.5439H52.4184V96.9755L56.8012 96.3201L56.2366 92.5439ZM56.2366 84.7782L55.6858 81L52.4184 81.4762V84.7782H56.2366ZM70.8281 82.6513H74.6463V78.2362L70.2774 78.8731L70.8281 82.6513ZM70.8281 115V118.818H74.6463V115H70.8281ZM65.3473 115V91.7525H57.7109V115H65.3473ZM60.9644 87.9763L55.6719 88.7677L56.8012 96.3201L62.0938 95.5287L60.9644 87.9763ZM60.0548 92.5439V84.7782H52.4184V92.5439H60.0548ZM56.7873 88.5565L71.3788 86.4296L70.2774 78.8731L55.6858 81L56.7873 88.5565ZM67.0099 82.6513V115H74.6463V82.6513H67.0099ZM70.8281 111.182H61.5291V118.818H70.8281V111.182ZM80.6828 113.615L78.762 116.915L78.7909 116.932L78.8202 116.948L80.6828 113.615ZM75.8354 108.026L72.3138 109.501L75.8354 108.026ZM75.8354 90.1202L72.3138 88.6449L75.8354 90.1202ZM80.6828 84.5804L82.5665 87.9016L82.5744 87.897L82.5824 87.8925L80.6828 84.5804ZM101.259 86.9051L98.3149 89.336L98.3219 89.3444L98.3289 89.3529L101.259 86.9051ZM101.259 111.241L104.204 113.672V113.672L101.259 111.241ZM93.9883 105.454L90.7011 103.511L90.6942 103.523L90.6874 103.535L93.9883 105.454ZM93.9883 92.6923L90.6874 94.6114L90.704 94.6398L90.7209 94.6679L93.9883 92.6923ZM85.0355 92.6923L81.7682 90.7167L81.7512 90.7448L81.7347 90.7732L85.0355 92.6923ZM85.0355 105.454L81.7158 107.34L81.7414 107.385L81.7682 107.429L85.0355 105.454ZM89.5366 111.676C86.2676 111.676 84.0274 111.11 82.5454 110.282L78.8202 116.948C81.8228 118.626 85.4852 119.313 89.5366 119.313V111.676ZM82.6036 110.315C81.1386 109.462 80.0704 108.253 79.3571 106.55L72.3138 109.501C73.6449 112.679 75.8083 115.196 78.762 116.915L82.6036 110.315ZM79.3571 106.55C78.5841 104.705 78.1203 102.255 78.1203 99.073H70.4839C70.4839 102.948 71.0423 106.466 72.3138 109.501L79.3571 106.55ZM78.1203 99.073C78.1203 95.8914 78.5841 93.4407 79.3571 91.5955L72.3138 88.6449C71.0423 91.6801 70.4839 95.1979 70.4839 99.073H78.1203ZM79.3571 91.5955C80.0673 89.9001 81.1246 88.7193 82.5665 87.9016L78.7991 81.2592C75.8223 82.9475 73.648 85.46 72.3138 88.6449L79.3571 91.5955ZM82.5824 87.8925C84.0551 87.0478 86.2807 86.4695 89.5366 86.4695V78.8331C85.4721 78.8331 81.7951 79.5409 78.7832 81.2683L82.5824 87.8925ZM89.5366 86.4695C94.4403 86.4695 96.9967 87.7392 98.3149 89.336L104.204 84.4743C100.839 80.3993 95.5807 78.8331 89.5366 78.8331V86.4695ZM98.3289 89.3529C99.8857 91.2166 100.953 94.2629 100.953 99.073H108.589C108.589 93.2651 107.315 88.1994 104.19 84.4574L98.3289 89.3529ZM100.953 99.073C100.953 103.839 99.8904 106.902 98.3149 108.81L104.204 113.672C107.311 109.908 108.589 104.859 108.589 99.073H100.953ZM98.3149 108.81C96.9967 110.407 94.4403 111.676 89.5366 111.676V119.313C95.5807 119.313 100.839 117.747 104.204 113.672L98.3149 108.81ZM89.5366 111.399C92.5621 111.399 95.5709 110.328 97.2891 107.373L90.6874 103.535C90.6647 103.574 90.6541 103.581 90.659 103.576C90.6639 103.572 90.6548 103.583 90.6111 103.604C90.5144 103.65 90.2047 103.762 89.5366 103.762V111.399ZM97.2755 107.396C98.6401 105.087 99.0925 102.156 99.0925 99.073H91.4561C91.4561 101.596 91.0512 102.919 90.7011 103.511L97.2755 107.396ZM99.0925 99.073C99.0925 95.9768 98.6467 93.0173 97.2556 90.7167L90.7209 94.6679C91.0446 95.2031 91.4561 96.4974 91.4561 99.073H99.0925ZM97.2891 90.7732C95.5709 87.8179 92.5621 86.7472 89.5366 86.7472V94.3836C90.2047 94.3836 90.5144 94.496 90.6111 94.5423C90.6548 94.5631 90.6639 94.5741 90.659 94.5697C90.6541 94.5651 90.6647 94.5722 90.6874 94.6114L97.2891 90.7732ZM89.5366 86.7472C86.5044 86.7472 83.5209 87.818 81.7682 90.7167L88.3029 94.6679C88.3426 94.6022 88.3624 94.5836 88.4351 94.5493C88.5491 94.4954 88.8707 94.3836 89.5366 94.3836V86.7472ZM81.7347 90.7732C80.4065 93.0576 79.9808 95.9922 79.9808 99.073H87.6171C87.6171 96.482 88.0158 95.1628 88.3364 94.6114L81.7347 90.7732ZM79.9808 99.073C79.9808 102.14 80.4128 105.047 81.7158 107.34L88.3553 103.567C88.0095 102.959 87.6171 101.611 87.6171 99.073H79.9808ZM81.7682 107.429C83.5209 110.328 86.5044 111.399 89.5366 111.399V103.762C88.8707 103.762 88.5491 103.651 88.4351 103.597C88.3624 103.562 88.3426 103.544 88.3029 103.478L81.7682 107.429ZM113.626 113.615L111.705 116.915L111.734 116.932L111.763 116.948L113.626 113.615ZM108.778 108.026L105.257 109.501L108.778 108.026ZM108.778 90.1202L105.257 88.6449L108.778 90.1202ZM113.626 84.5804L115.509 87.9016L115.517 87.897L115.525 87.8925L113.626 84.5804ZM134.202 86.9051L131.258 89.336L131.265 89.3444L131.272 89.3529L134.202 86.9051ZM134.202 111.241L137.147 113.672V113.672L134.202 111.241ZM126.931 105.454L123.644 103.511L123.637 103.523L123.63 103.535L126.931 105.454ZM126.931 92.6923L123.63 94.6114L123.647 94.6398L123.664 94.6679L126.931 92.6923ZM117.979 92.6923L114.711 90.7167L114.694 90.7448L114.678 90.7732L117.979 92.6923ZM117.979 105.454L114.659 107.34L114.684 107.385L114.711 107.429L117.979 105.454ZM122.48 111.676C119.211 111.676 116.97 111.11 115.488 110.282L111.763 116.948C114.766 118.626 118.428 119.313 122.48 119.313V111.676ZM115.547 110.315C114.082 109.462 113.013 108.253 112.3 106.55L105.257 109.501C106.588 112.679 108.751 115.196 111.705 116.915L115.547 110.315ZM112.3 106.55C111.527 104.705 111.063 102.255 111.063 99.073H103.427C103.427 102.948 103.985 106.466 105.257 109.501L112.3 106.55ZM111.063 99.073C111.063 95.8914 111.527 93.4407 112.3 91.5955L105.257 88.6449C103.985 91.6801 103.427 95.1979 103.427 99.073H111.063ZM112.3 91.5955C113.01 89.9001 114.068 88.7193 115.509 87.9016L111.742 81.2592C108.765 82.9475 106.591 85.46 105.257 88.6449L112.3 91.5955ZM115.525 87.8925C116.998 87.0478 119.224 86.4695 122.48 86.4695V78.8331C118.415 78.8331 114.738 79.5409 111.726 81.2683L115.525 87.8925ZM122.48 86.4695C127.383 86.4695 129.94 87.7392 131.258 89.336L137.147 84.4743C133.782 80.3993 128.524 78.8331 122.48 78.8331V86.4695ZM131.272 89.3529C132.829 91.2166 133.896 94.2629 133.896 99.073H141.532C141.532 93.2651 140.258 88.1994 137.133 84.4574L131.272 89.3529ZM133.896 99.073C133.896 103.839 132.833 106.902 131.258 108.81L137.147 113.672C140.254 109.908 141.532 104.859 141.532 99.073H133.896ZM131.258 108.81C129.94 110.407 127.383 111.676 122.48 111.676V119.313C128.524 119.313 133.782 117.747 137.147 113.672L131.258 108.81ZM122.48 111.399C125.505 111.399 128.514 110.328 130.232 107.373L123.63 103.535C123.608 103.574 123.597 103.581 123.602 103.576C123.607 103.572 123.598 103.583 123.554 103.604C123.457 103.65 123.148 103.762 122.48 103.762V111.399ZM130.218 107.396C131.583 105.087 132.036 102.156 132.036 99.073H124.399C124.399 101.596 123.994 102.919 123.644 103.511L130.218 107.396ZM132.036 99.073C132.036 95.9768 131.59 93.0173 130.199 90.7167L123.664 94.6679C123.988 95.2031 124.399 96.4974 124.399 99.073H132.036ZM130.232 90.7732C128.514 87.8179 125.505 86.7472 122.48 86.7472V94.3836C123.148 94.3836 123.457 94.496 123.554 94.5423C123.598 94.5631 123.607 94.5741 123.602 94.5697C123.597 94.5651 123.608 94.5722 123.63 94.6114L130.232 90.7732ZM122.48 86.7472C119.447 86.7472 116.464 87.818 114.711 90.7167L121.246 94.6679C121.286 94.6022 121.305 94.5836 121.378 94.5493C121.492 94.4954 121.814 94.3836 122.48 94.3836V86.7472ZM114.678 90.7732C113.349 93.0576 112.924 95.9922 112.924 99.073H120.56C120.56 96.482 120.959 95.1628 121.279 94.6114L114.678 90.7732ZM112.924 99.073C112.924 102.14 113.356 105.047 114.659 107.34L121.298 103.567C120.952 102.959 120.56 101.611 120.56 99.073H112.924ZM114.711 107.429C116.464 110.328 119.447 111.399 122.48 111.399V103.762C121.814 103.762 121.492 103.651 121.378 103.597C121.305 103.562 121.286 103.544 121.246 103.478L114.711 107.429Z"
      fill="#FFD7B3" />
    <path
      d="M61.5291 115V91.7525L56.2366 92.5439V84.7782L70.8281 82.6513V115H61.5291ZM89.5366 115.495C85.8764 115.495 82.9251 114.868 80.6828 113.615C78.4735 112.329 76.8577 110.466 75.8354 108.026C74.8132 105.586 74.3021 102.601 74.3021 99.073C74.3021 95.5446 74.8132 92.5604 75.8354 90.1202C76.8577 87.68 78.4735 85.8334 80.6828 84.5804C82.9251 83.2943 85.8764 82.6513 89.5366 82.6513C95.0105 82.6513 98.9181 84.0693 101.259 86.9051C103.601 89.708 104.771 93.764 104.771 99.073C104.771 104.349 103.601 108.405 101.259 111.241C98.9181 114.077 95.0105 115.495 89.5366 115.495ZM89.5366 107.581C91.68 107.581 93.1639 106.872 93.9883 105.454C94.8456 104.003 95.2743 101.876 95.2743 99.073C95.2743 96.2371 94.8456 94.1102 93.9883 92.6923C93.1639 91.2743 91.68 90.5654 89.5366 90.5654C87.3932 90.5654 85.8929 91.2743 85.0355 92.6923C84.2111 94.1102 83.7989 96.2371 83.7989 99.073C83.7989 101.876 84.2111 104.003 85.0355 105.454C85.8929 106.872 87.3932 107.581 89.5366 107.581ZM122.48 115.495C118.819 115.495 115.868 114.868 113.626 113.615C111.416 112.329 109.801 110.466 108.778 108.026C107.756 105.586 107.245 102.601 107.245 99.073C107.245 95.5446 107.756 92.5604 108.778 90.1202C109.801 87.68 111.416 85.8334 113.626 84.5804C115.868 83.2943 118.819 82.6513 122.48 82.6513C127.954 82.6513 131.861 84.0693 134.202 86.9051C136.544 89.708 137.714 93.764 137.714 99.073C137.714 104.349 136.544 108.405 134.202 111.241C131.861 114.077 127.954 115.495 122.48 115.495ZM122.48 107.581C124.623 107.581 126.107 106.872 126.931 105.454C127.789 104.003 128.217 101.876 128.217 99.073C128.217 96.2371 127.789 94.1102 126.931 92.6923C126.107 91.2743 124.623 90.5654 122.48 90.5654C120.336 90.5654 118.836 91.2743 117.979 92.6923C117.154 94.1102 116.742 96.2371 116.742 99.073C116.742 101.876 117.154 104.003 117.979 105.454C118.836 106.872 120.336 107.581 122.48 107.581Z"
      fill="#D2531F" />
  </g>
  <defs>
    <linearGradient id="paint0_linear_2320_340389" x1="126.865" y1="52.6341" x2="90.7159" y2="149.018"
      gradientUnits="userSpaceOnUse">
      <stop stop-color="#B6B6B6" />
      <stop offset="1" stop-color="#8E8E8E" stop-opacity="0" />
    </linearGradient>
    <linearGradient id="paint1_linear_2320_340389" x1="150.264" y1="52.3197" x2="97.1873" y2="29.531"
      gradientUnits="userSpaceOnUse">
      <stop stop-color="white" stop-opacity="0" />
      <stop offset="0.512588" stop-color="white" />
      <stop offset="1" stop-color="white" />
    </linearGradient>
    <linearGradient id="paint2_linear_2320_340389" x1="57.7995" y1="39.7398" x2="137.507" y2="146.87"
      gradientUnits="userSpaceOnUse">
      <stop stop-color="white" stop-opacity="0" />
      <stop offset="0.512588" stop-color="white" />
      <stop offset="1" stop-color="white" />
    </linearGradient>
    <linearGradient id="paint3_linear_2320_340389" x1="63.4103" y1="-5.19646" x2="51.4277" y2="77.256"
      gradientUnits="userSpaceOnUse">
      <stop stop-color="#FD9B13" />
      <stop offset="1" stop-color="#FD9B13" stop-opacity="0" />
    </linearGradient>
    <linearGradient id="paint4_linear_2320_340389" x1="153.863" y1="180.285" x2="87.9976" y2="0.91686"
      gradientUnits="userSpaceOnUse">
      <stop stop-color="#B6B6B6" />
      <stop offset="1" stop-color="#8E8E8E" stop-opacity="0" />
    </linearGradient>
    <linearGradient id="paint5_linear_2320_340389" x1="130.823" y1="47.6441" x2="91.1193" y2="155.136"
      gradientUnits="userSpaceOnUse">
      <stop stop-color="#B6B6B6" />
      <stop offset="1" stop-color="#8E8E8E" stop-opacity="0" />
    </linearGradient>
    <linearGradient id="paint6_linear_2320_340389" x1="6.09477" y1="83.44" x2="189.531" y2="-45.0524"
      gradientUnits="userSpaceOnUse">
      <stop stop-color="#AFAFAF" />
      <stop offset="1" stop-color="#CECECE" stop-opacity="0" />
    </linearGradient>
    <linearGradient id="paint7_linear_2320_340389" x1="166.84" y1="72.9228" x2="143.671" y2="175.15"
      gradientUnits="userSpaceOnUse">
      <stop stop-color="#8B8B8B" />
      <stop offset="1" stop-color="#B7B7B7" stop-opacity="0" />
    </linearGradient>
    <linearGradient id="paint8_linear_2320_340389" x1="128.41" y1="180.497" x2="-73.3978" y2="81.8954"
      gradientUnits="userSpaceOnUse">
      <stop stop-color="#BEBEBE" />
      <stop offset="1" stop-color="#CECECE" stop-opacity="0" />
    </linearGradient>
    <linearGradient id="paint9_linear_2320_340389" x1="38.507" y1="165.888" x2="21.7776" y2="-54.2673"
      gradientUnits="userSpaceOnUse">
      <stop stop-color="#929292" />
      <stop offset="1" stop-color="#CECECE" stop-opacity="0" />
    </linearGradient>
    <radialGradient id="paint10_radial_2320_340389" cx="0" cy="0" r="1" gradientUnits="userSpaceOnUse"
      gradientTransform="translate(119.611 48.3001) rotate(130.327) scale(93.5997 81.9882)">
      <stop stop-color="white" />
      <stop offset="1" stop-color="white" stop-opacity="0" />
    </radialGradient>
    <radialGradient id="paint11_radial_2320_340389" cx="0" cy="0" r="1" gradientUnits="userSpaceOnUse"
      gradientTransform="translate(118.588 47.2948) rotate(130.327) scale(93.5997 81.9882)">
      <stop stop-color="white" />
      <stop offset="1" stop-color="white" stop-opacity="0" />
    </radialGradient>
    <radialGradient id="paint12_radial_2320_340389" cx="0" cy="0" r="1" gradientUnits="userSpaceOnUse"
      gradientTransform="translate(130.82 142.589) rotate(163.552) scale(97.3685 46.9455)">
      <stop stop-color="white" />
      <stop offset="1" stop-color="white" stop-opacity="0" />
    </radialGradient>
    <radialGradient id="paint13_radial_2320_340389" cx="0" cy="0" r="1" gradientUnits="userSpaceOnUse"
      gradientTransform="translate(130.82 142.589) rotate(163.552) scale(97.3685 46.9455)">
      <stop stop-color="white" />
      <stop offset="1" stop-color="white" stop-opacity="0" />
    </radialGradient>
    <linearGradient id="paint14_linear_2320_340389" x1="126.865" y1="52.6341" x2="90.7159" y2="149.018"
      gradientUnits="userSpaceOnUse">
      <stop stop-color="#B6B6B6" />
      <stop offset="1" stop-color="#8E8E8E" stop-opacity="0" />
    </linearGradient>
    <linearGradient id="paint15_linear_2320_340389" x1="150.264" y1="52.3197" x2="97.1873" y2="29.531"
      gradientUnits="userSpaceOnUse">
      <stop stop-color="white" stop-opacity="0" />
      <stop offset="0.512588" stop-color="white" />
      <stop offset="1" stop-color="white" />
    </linearGradient>
    <linearGradient id="paint16_linear_2320_340389" x1="57.7995" y1="39.7398" x2="137.507" y2="146.87"
      gradientUnits="userSpaceOnUse">
      <stop stop-color="white" stop-opacity="0" />
      <stop offset="0.512588" stop-color="white" />
      <stop offset="1" stop-color="white" />
    </linearGradient>
    <linearGradient id="paint17_linear_2320_340389" x1="63.4103" y1="-5.19646" x2="51.4277" y2="77.256"
      gradientUnits="userSpaceOnUse">
      <stop stop-color="#FD9B13" />
      <stop offset="1" stop-color="#FD9B13" stop-opacity="0" />
    </linearGradient>
    <linearGradient id="paint18_linear_2320_340389" x1="153.863" y1="180.285" x2="87.9976" y2="0.91686"
      gradientUnits="userSpaceOnUse">
      <stop stop-color="#B6B6B6" />
      <stop offset="1" stop-color="#8E8E8E" stop-opacity="0" />
    </linearGradient>
    <linearGradient id="paint19_linear_2320_340389" x1="130.823" y1="47.6441" x2="91.1193" y2="155.136"
      gradientUnits="userSpaceOnUse">
      <stop stop-color="#B6B6B6" />
      <stop offset="1" stop-color="#8E8E8E" stop-opacity="0" />
    </linearGradient>
    <linearGradient id="paint20_linear_2320_340389" x1="6.09477" y1="83.44" x2="189.531" y2="-45.0524"
      gradientUnits="userSpaceOnUse">
      <stop stop-color="#AFAFAF" />
      <stop offset="1" stop-color="#CECECE" stop-opacity="0" />
    </linearGradient>
    <linearGradient id="paint21_linear_2320_340389" x1="166.84" y1="72.9228" x2="143.671" y2="175.15"
      gradientUnits="userSpaceOnUse">
      <stop stop-color="#8B8B8B" />
      <stop offset="1" stop-color="#B7B7B7" stop-opacity="0" />
    </linearGradient>
    <linearGradient id="paint22_linear_2320_340389" x1="128.41" y1="180.497" x2="-73.3978" y2="81.8954"
      gradientUnits="userSpaceOnUse">
      <stop stop-color="#BEBEBE" />
      <stop offset="1" stop-color="#CECECE" stop-opacity="0" />
    </linearGradient>
    <linearGradient id="paint23_linear_2320_340389" x1="38.507" y1="165.888" x2="21.7776" y2="-54.2673"
      gradientUnits="userSpaceOnUse">
      <stop stop-color="#929292" />
      <stop offset="1" stop-color="#CECECE" stop-opacity="0" />
    </linearGradient>
    <radialGradient id="paint24_radial_2320_340389" cx="0" cy="0" r="1" gradientUnits="userSpaceOnUse"
      gradientTransform="translate(119.611 48.3001) rotate(130.327) scale(93.5997 81.9882)">
      <stop stop-color="white" />
      <stop offset="1" stop-color="white" stop-opacity="0" />
    </radialGradient>
    <radialGradient id="paint25_radial_2320_340389" cx="0" cy="0" r="1" gradientUnits="userSpaceOnUse"
      gradientTransform="translate(118.588 47.2948) rotate(130.327) scale(93.5997 81.9882)">
      <stop stop-color="white" />
      <stop offset="1" stop-color="white" stop-opacity="0" />
    </radialGradient>
    <radialGradient id="paint26_radial_2320_340389" cx="0" cy="0" r="1" gradientUnits="userSpaceOnUse"
      gradientTransform="translate(130.82 142.589) rotate(163.552) scale(97.3685 46.9455)">
      <stop stop-color="white" />
      <stop offset="1" stop-color="white" stop-opacity="0" />
    </radialGradient>
    <radialGradient id="paint27_radial_2320_340389" cx="0" cy="0" r="1" gradientUnits="userSpaceOnUse"
      gradientTransform="translate(130.82 142.589) rotate(163.552) scale(97.3685 46.9455)">
      <stop stop-color="white" />
      <stop offset="1" stop-color="white" stop-opacity="0" />
    </radialGradient>
    <linearGradient id="paint28_linear_2320_340389" x1="45.6676" y1="68.7245" x2="145.438" y2="112.087"
      gradientUnits="userSpaceOnUse">
      <stop stop-color="#FF7A00" />
      <stop offset="1" stop-color="#3C1D00" stop-opacity="0" />
    </linearGradient>
    <clipPath id="clip0_2320_340389">
      <rect width="192" height="192" fill="white" />
    </clipPath>
  </defs>
</svg>