<svg width="192" height="192" viewBox="0 0 192 192" fill="none" xmlns="http://www.w3.org/2000/svg">
<path d="M177.308 153.019C177.308 170.681 140.75 185 95.6541 185C50.5578 185 14 170.681 14 153.019C14 135.356 50.5578 121.038 95.6541 121.038C140.75 121.038 177.308 135.356 177.308 153.019Z" fill="#515374"/>
<path d="M177.308 150.977L173.906 140.09L17.4023 139.41L14 150.977H177.308Z" fill="#515374"/>
<path d="M174.586 143.492C174.586 161.155 139.247 175.474 95.654 175.474C52.0609 175.474 16.7217 161.155 16.7217 143.492C16.7217 125.83 52.0609 111.511 95.654 111.511C139.247 111.511 174.586 125.83 174.586 143.492Z" fill="#9990B1"/>
<path d="M70.6152 109.657L76.0588 58.6231L35.9122 64.7472L33.1904 115.781C37.4999 115.781 47.7521 115.509 54.2844 114.42C60.8167 113.331 67.8934 110.791 70.6152 109.657Z" fill="#5B2E22"/>
<path d="M107.359 109.47L112.803 58.4361L72.6564 64.5602L69.9346 115.594C74.2441 115.594 84.4962 115.322 91.0285 114.233C97.5609 113.144 104.638 110.604 107.359 109.47Z" fill="#753524"/>
<path d="M69.9346 54.5403C74.8719 53.443 76.2853 57.4889 76.0585 58.6229C73.3365 60.6641 42.7166 70.1909 39.9948 70.1909C37.8173 70.1909 36.3655 66.5616 35.9118 64.747C34.5509 61.3447 57.6865 57.2623 69.9346 54.5403Z" fill="#753524"/>
<path d="M77.18 59.9695C72.1509 60.5063 72.1034 64.7917 72.6805 65.7939C75.9118 66.859 107.971 66.1094 110.55 65.2402C112.614 64.5449 112.83 60.6421 112.681 58.7776C112.884 55.1189 89.6562 58.6379 77.18 59.9695Z" fill="#6D2310"/>
<path d="M38.193 138.02L39.4332 72.2387L39.3146 70.8508C38.9967 67.1314 35.6848 64.3993 31.9728 64.7942C29.4686 65.0606 27.3288 66.7164 26.4424 69.0735L24.561 74.0769L22.2643 80.4664C21.8397 81.6478 21.6226 82.8937 21.6225 84.1491L21.6225 89.7368C24.6029 115.511 31.8293 137.368 31.8293 137.368C31.8293 137.368 35.6998 139.594 38.193 138.02Z" fill="#9C4818"/>
<path d="M149.409 137.135L148.169 71.3536L148.288 69.9657C148.606 66.2463 151.917 63.5142 155.63 63.9091C158.134 64.1755 160.274 65.8313 161.16 68.1884L163.041 73.1918L165.338 79.5813C165.763 80.7627 165.98 82.0086 165.98 83.264L165.98 88.8517C162.999 114.626 155.773 136.483 155.773 136.483C155.773 136.483 151.903 138.709 149.409 137.135Z" fill="#9C4818"/>
<path d="M33.8708 78.1153C35.835 76.677 38.6194 74.2175 39.3193 71.5678C38.0647 64.1887 35.9382 63.86 30.5716 64.7724C25.205 65.6848 26.7381 69.6207 20.9422 76.1278C16.9762 80.5805 20.0102 88.7742 26.6845 87.6395C32.7219 86.6131 31.4156 79.9131 33.8708 78.1153Z" fill="#CA7445"/>
<path d="M152.201 76.6253C149.467 75.8543 145.424 74.3085 143.603 71.7317C142.065 63.2865 144.279 62.0899 150.555 60.9463C156.832 59.8027 156.7 64.6496 165.665 69.362C171.8 72.5866 171.7 82.6143 163.893 84.0366C156.832 85.3231 155.619 77.589 152.201 76.6253Z" fill="#9C4718"/>
<path d="M87.5479 25.8547C84.9969 14.8153 93.7526 4.41471 104.864 5.28528C113.918 5.99461 120.672 14.043 119.95 23.2619L117.465 54.9699C116.958 61.4479 111.389 66.2953 105.027 65.7969C100.021 65.4047 95.8462 61.7653 94.697 56.7919L87.5479 25.8547Z" fill="#9A6AFF"/>
<path d="M128.969 26.8865C131.063 15.8488 142.844 9.58739 152.269 14.503C159.948 18.5082 162.723 28.3698 158.467 36.5295L143.83 64.5945C140.839 70.3283 134.04 72.6949 128.644 69.8805C124.398 67.666 122.158 62.791 123.101 57.8185L128.969 26.8865Z" fill="#9A6AFF"/>
<path d="M69.1398 69.3077C64.686 90.1309 81.7279 108.71 106.518 114.012C131.308 119.314 154.459 109.332 158.913 88.5092C163.367 67.686 146.325 49.1073 121.535 43.805C96.7445 38.5026 73.5937 48.4845 69.1398 69.3077Z" fill="#9A6AFF"/>
<path d="M68.4359 74.7669C68.4359 73.524 68.4359 71.3647 69.3277 68.9633C69.3277 72.1937 68.5206 75.0841 71.7507 78.6543C76.5533 83.9626 87.0945 89.9904 108.092 90.768C129.089 91.5457 158.936 90.768 158.936 76.1278C164.589 97.1249 155.739 93.9983 143.625 95.6134C111.815 99.8547 91.0395 95.5045 80.6339 93.9879C70.2282 92.4712 68.4359 80.0752 68.4359 74.7669Z" fill="#7645D9"/>
<path d="M126.205 75.3141C132.864 75.4778 133.746 73.8898 135.147 76.7027C136.289 78.996 132.517 80.8802 125.859 80.7165C119.201 80.5528 114.969 78.8632 116.779 76.2511C118.208 74.189 119.547 75.1504 126.205 75.3141Z" fill="#452A7A"/>
<path d="M91.3064 68.8585C85.9152 67.1058 85.7307 65.3537 83.682 67.6084C82.0118 69.4466 84.4156 72.3063 89.8069 74.059C95.1981 75.8117 99.1457 75.4283 98.554 72.4433C98.087 70.0869 96.6976 70.6112 91.3064 68.8585Z" fill="#452A7A"/>
<path fill-rule="evenodd" clip-rule="evenodd" d="M107.282 77.0537C106.171 76.7994 105.065 77.4937 104.811 78.6044C103.648 83.6817 107.244 88.5009 112.34 89.6674C113.451 89.9216 114.557 89.2274 114.811 88.1167C115.066 87.006 114.371 85.8994 113.261 85.6452C110.017 84.9027 108.26 82.0289 108.833 79.5252C109.087 78.4145 108.393 77.308 107.282 77.0537Z" fill="#452A7A"/>
<path fill-rule="evenodd" clip-rule="evenodd" d="M107.282 77.0535C106.172 76.7992 105.065 77.4935 104.811 78.6042C104.238 81.1079 101.405 82.931 98.1615 82.1885C97.0508 81.9343 95.9443 82.6286 95.6901 83.7393C95.4358 84.85 96.1301 85.9565 97.2408 86.2107C102.336 87.3772 107.671 84.6022 108.833 79.5249C109.087 78.4142 108.393 77.3077 107.282 77.0535Z" fill="#452A7A"/>
<path d="M137.165 57.6572C137.972 64.9254 127.235 65.2189 115.387 63.1992C103.539 61.1796 93.6717 54.273 94.3273 50.4268C94.983 46.5806 105.212 45.6134 117.06 47.633C128.908 49.6527 136.716 53.6193 137.165 57.6572Z" fill="#7645D9"/>
<path d="M135.481 56.5935C134.921 59.875 125.872 61.0363 114.612 59.117C103.352 57.1977 94.582 52.5406 95.1414 49.2591C95.7007 45.9775 105.378 45.3141 116.638 47.2334C127.897 49.1528 136.04 53.3119 135.481 56.5935Z" fill="#CB7E39"/>
<path d="M136.397 51.0927L96.0576 44.6751L94.9734 46.8684L95.1408 49.2591L135.48 56.5935L136.397 54.3534V51.0927Z" fill="#CB7E39"/>
<path d="M136.397 51.0927C135.838 54.3743 126.055 55.567 115.014 53.6849C103.973 51.8028 95.4985 47.9566 96.0579 44.6751C96.6172 41.3935 105.998 39.9192 117.04 41.8013C128.081 43.6834 136.956 47.8111 136.397 51.0927Z" fill="#E3C05D"/>
<path d="M46.6616 81.5714C40.3376 83.2961 36.9085 90.4174 35.7744 92.4587C52.7857 110.15 82.7255 114.233 124.233 114.914C165.741 115.594 169.686 89.0564 154.035 88.376C151.313 97.2218 124.914 97.9023 101.778 96.5414C78.6428 95.1805 68.4361 82.2519 68.4361 73.406C66.8484 73.406 62.9925 75.4474 60.2707 76.1278C52.349 78.1082 54.1466 79.5301 46.6616 81.5714Z" fill="#B04A00"/>
<path d="M76.0586 111.511L79.4608 158.462L57.6864 155.741L45.4383 152.338L36.5924 100.624L76.0586 111.511Z" fill="black"/>
<path d="M29.3248 135.912L17.5398 82.9324L17.4242 81.5442C17.1142 77.8242 19.9212 74.5756 23.6469 74.3427C26.1603 74.1856 28.5474 75.4594 29.8163 77.6346L32.5098 82.2519L39.4506 89.7266C40.7003 91.0725 41.5892 92.7126 42.0346 94.4943L42.7165 97.2218C44.0983 123.131 45.4383 153.019 45.4383 153.019C45.4383 153.019 41.4668 150.171 37.6126 147.57C33.5767 144.845 30.3821 140.665 29.3248 135.912Z" fill="#5B2E22"/>
<path d="M158.936 143.492C161.52 140.09 171.184 92.4586 171.184 92.4586L172.041 81.3205C172.313 77.7854 169.518 74.7669 165.972 74.7669C163.807 74.7669 161.805 75.9168 160.714 77.7868L157.713 82.9323L151.467 88.6091C149.692 90.2229 148.499 92.378 148.075 94.7394L147.506 97.9023C146.124 123.811 144.647 153.019 144.647 153.019C144.647 153.019 156.352 146.895 158.936 143.492Z" fill="#5B2E22"/>
<path d="M23.6639 91.0977C21.4864 90.009 18.6739 84.7469 17.5398 82.2519C17.5398 74.7669 19.5811 74.0865 25.0248 74.0865C30.4684 74.0865 29.7879 80.2105 36.5924 85.6541C42.036 90.009 42.9433 96.0877 42.7165 98.5827C42.9433 99.0363 42.1721 99.9436 37.2729 99.9436C31.1488 99.9436 26.3857 92.4586 23.6639 91.0977Z" fill="#753524"/>
<path d="M166.559 86.3346C168.736 85.2458 171.549 79.9837 172.683 77.4887C172.683 70.0037 170.641 69.3233 165.198 69.3233C159.754 69.3233 160.435 75.4473 153.63 80.891C148.186 85.2458 147.279 91.3245 147.506 93.8195C147.279 94.2732 148.05 95.1804 152.95 95.1804C159.074 95.1804 163.837 87.6955 166.559 86.3346Z" fill="#753524"/>
<path d="M43.9397 152.338L36.5924 100.624L76.739 106.748L80.0036 161.865C75.694 161.865 65.4419 159.551 58.9096 158.462C52.3772 157.374 46.6615 153.472 43.9397 152.338Z" fill="#9C4818"/>
<path d="M148.049 151.658L156.214 96.5414L118.109 103.346L114.707 161.184C119.016 161.184 127.907 158.871 134.44 157.782C140.972 156.693 145.327 152.792 148.049 151.658Z" fill="#9C4818"/>
<path d="M42.7166 96.5411C37.7793 95.4439 36.3659 99.4897 36.5928 100.624C39.3147 102.665 69.9347 112.192 72.6565 112.192C74.8339 112.192 76.2857 108.563 76.7394 106.748C78.1003 103.346 54.9648 99.2632 42.7166 96.5411Z" fill="#CA7445"/>
<path d="M150.286 91.2331C155.223 90.1358 156.579 96.0362 156.352 97.1703C153.63 99.2114 123.552 109.47 120.831 109.47C118.653 109.47 118.563 105.841 118.109 104.026C116.748 100.624 138.038 93.9551 150.286 91.2331Z" fill="#CA7445"/>
<path d="M79.8089 162.826C92.7128 166.014 108.484 164.155 114.757 162.826C116.101 147.552 118.789 111.556 118.789 108.368C118.789 104.384 75.2404 106.376 75.2404 108.368C75.2404 110.361 78.4648 162.826 79.8089 162.826Z" fill="#5B2E22"/>
<path d="M80.1442 102.182C75.2468 102.931 74.8196 106.653 75.4855 109.309C76.3792 112.872 114.742 112.872 117.415 112.872H117.416C119.546 112.872 118.724 107.688 118.081 105.745C117.073 102.699 84.8031 101.469 80.1442 102.182Z" fill="#753524"/>
<path fill-rule="evenodd" clip-rule="evenodd" d="M167.716 113.647C168.791 113.987 169.388 115.134 169.048 116.209C167.803 120.152 164.072 123.747 159.149 126.86C154.141 130.027 147.543 132.918 139.978 135.309C124.845 140.094 105.565 142.967 86.7721 141.909C48.7309 139.768 29.167 126.31 23.2363 118.156C22.5732 117.244 22.7748 115.967 23.6865 115.304C24.5983 114.641 25.875 114.842 26.5381 115.754C31.4947 122.569 49.6769 135.732 87.0015 137.833C105.274 138.861 124.059 136.06 138.747 131.417C146.093 129.094 152.343 126.333 156.967 123.409C161.675 120.433 164.359 117.5 165.155 114.979C165.494 113.904 166.641 113.308 167.716 113.647Z" fill="#939393"/>
<path d="M46.3584 38.1796C47.3368 37.608 48.437 38.7082 47.8654 39.6865L44.7893 44.9518C44.5887 45.2951 44.5887 45.7199 44.7893 46.0632L47.8654 51.3284C48.437 52.3068 47.3368 53.407 46.3584 52.8354L41.0932 49.7593C40.7498 49.5588 40.3251 49.5588 39.9817 49.7593L34.7165 52.8354C33.7381 53.407 32.638 52.3068 33.2096 51.3284L36.2856 46.0632C36.4862 45.7199 36.4862 45.2951 36.2856 44.9518L33.2096 39.6866C32.638 38.7082 33.7381 37.608 34.7165 38.1796L39.9817 41.2556C40.3251 41.4562 40.7498 41.4562 41.0932 41.2556L46.3584 38.1796Z" fill="#CAB3F8"/>
<path d="M28.9693 10.933C29.7698 10.4653 30.6699 11.3655 30.2023 12.166L27.6855 16.4739C27.5214 16.7548 27.5214 17.1023 27.6855 17.3833L30.2023 21.6911C30.6699 22.4917 29.7698 23.3918 28.9693 22.9241L24.6614 20.4074C24.3805 20.2432 24.0329 20.2432 23.752 20.4074L19.4441 22.9241C18.6436 23.3918 17.7435 22.4917 18.2111 21.6911L20.7279 17.3833C20.892 17.1023 20.892 16.7548 20.7279 16.4739L18.2111 12.166C17.7435 11.3655 18.6436 10.4653 19.4441 10.933L23.752 13.4498C24.0329 13.6139 24.3805 13.6139 24.6614 13.4498L28.9693 10.933Z" fill="#CAB3F8"/>
<path d="M59.3031 5.216C59.7479 3.59467 62.1541 3.59467 62.599 5.21599L64.993 13.9411C65.1491 14.5101 65.6136 14.9544 66.2084 15.1037L75.3301 17.3936C77.0252 17.8191 77.0252 20.1207 75.3301 20.5462L66.2084 22.8361C65.6136 22.9855 65.1491 23.4298 64.993 23.9988L62.599 32.7239C62.1541 34.3452 59.7479 34.3452 59.3031 32.7239L56.9091 23.9988C56.753 23.4298 56.2884 22.9855 55.6936 22.8361L46.5719 20.5462C44.8769 20.1207 44.8769 17.8191 46.5719 17.3936L55.6936 15.1037C56.2884 14.9544 56.753 14.5101 56.9091 13.9411L59.3031 5.216Z" fill="#CAB3F8"/>
</svg>
