<svg width="25" height="24" viewBox="0 0 25 24" fill="none" xmlns="http://www.w3.org/2000/svg">
<g opacity="0.5">
<path fill-rule="evenodd" clip-rule="evenodd" d="M17.5 4C19 4 19.5 4.5 19.5 6L19.5 8C20.6046 8 21.5 8.89543 21.5 10L21.5 17C21.5 19 20.5 20 18.499 20H6.5C4.5 20 3.5 19 3.5 17L3.5 7C3.5 5.5 5 4 6.5 4L17.5 4ZM5.5 7C5.5 6.44772 5.94772 6 6.5 6L19.5 6L19.5 8L6.5 8C5.94772 8 5.5 7.55229 5.5 7ZM17.5 16C18.5 16 19.501 15 19.5 14C19.499 13 18.5 12 17.5 12C16.5 12 15.5 13 15.5 14C15.5 15 16.5 16 17.5 16Z" fill="#280D5F"/>
</g>
</svg>
