<svg xmlns="http://www.w3.org/2000/svg" width="97" height="97" fill="none" viewBox="0 0 97 97"><path fill="#D1FF52" d="M48.5 97C75.2858 97 97 75.2858 97 48.5C97 21.7142 75.2858 0 48.5 0C21.7142 0 0 21.7142 0 48.5C0 75.2858 21.7142 97 48.5 97Z"/><path fill="#040000" d="M68.0225 50.5547H34.7515V61.6457H68.0225V50.5547Z"/><path fill="#040000" d="M79.1134 33.917H68.0225V50.5544H79.1134V33.917Z"/><path fill="#040000" d="M34.7511 61.6455H23.6582V64.4197V67.192V78.281H34.7492V67.192H34.7511V61.6455Z"/><path fill="#040000" d="M68.0221 22.8257H34.7511H33.1564H23.6582V45.0076V48.5481V50.5541H34.7511V48.5481V45.0076V33.9167H68.0221V22.8257Z"/><path fill="#040000" d="M68.0225 50.5547H34.7515V61.6457H68.0225V50.5547Z"/></svg>