<svg width="96" height="96" viewBox="0 0 96 96" fill="none" xmlns="http://www.w3.org/2000/svg">
<circle cx="48" cy="48" r="48" fill="white"/>
<path d="M65.6252 17C62.084 16.9972 58.6864 18.4036 56.1782 20.9102C53.67 23.4169 52.2561 26.8191 52.247 30.3701V45.1943C50.8692 45.2875 49.4604 45.3462 48 45.3462C46.5396 45.3462 45.1377 45.4049 43.753 45.4878V30.3701C43.6967 26.8499 42.2626 23.4931 39.7601 21.0237C37.2577 18.5543 33.8874 17.1704 30.3765 17.1704C26.8656 17.1704 23.4953 18.5543 20.9929 21.0237C18.4904 23.4931 17.0563 26.8499 17 30.3701V65.8003C17.0563 69.3204 18.4904 72.6773 20.9929 75.1466C23.4953 77.616 26.8656 79 30.3765 79C33.8874 79 37.2577 77.616 39.7601 75.1466C42.2626 72.6773 43.6967 69.3204 43.753 65.8003V50.9761C45.1308 50.8828 46.5396 50.8241 48 50.8241C49.4604 50.8241 50.8623 50.7654 52.247 50.6825V65.8003C52.3033 69.3204 53.7374 72.6773 56.2399 75.1466C58.7423 77.616 62.1126 79 65.6235 79C69.1344 79 72.5047 77.616 75.0071 75.1466C77.5096 72.6773 78.9437 69.3204 79 65.8003V30.3701C78.9909 26.8197 77.5775 23.4181 75.07 20.9115C72.5626 18.4049 69.1658 16.9982 65.6252 17ZM30.3748 22.4779C32.4647 22.477 34.4696 23.3074 35.9496 24.787C37.4297 26.2666 38.264 28.2744 38.2694 30.3701V46.0681C34.3558 46.6368 30.534 47.7203 26.9028 49.2906C25.3295 49.983 23.8484 50.8694 22.4939 51.9294V30.3701C22.4994 28.2768 23.3317 26.271 24.8088 24.7919C26.2859 23.3127 28.2873 22.4806 30.3748 22.4779ZM38.2694 65.8003C38.2694 67.8998 37.4377 69.9134 35.9572 71.398C34.4766 72.8826 32.4686 73.7166 30.3748 73.7166C28.281 73.7166 26.2729 72.8826 24.7924 71.398C23.3119 69.9134 22.4801 67.8998 22.4801 65.8003V62.2462C22.4801 59.1066 24.9601 56.1328 29.1176 54.2815C32.047 53.0142 35.1207 52.1129 38.2694 51.5978V65.8003ZM65.6252 73.6924C63.5353 73.6934 61.5304 72.8629 60.0504 71.3834C58.5703 69.9038 57.736 67.8959 57.7306 65.8003V50.1023C61.6442 49.5336 65.466 48.4501 69.0972 46.8798C70.6705 46.1874 72.1516 45.3009 73.5061 44.241V65.8003C73.5006 67.8935 72.6683 69.8993 71.1912 71.3785C69.7141 72.8577 67.7127 73.6897 65.6252 73.6924ZM66.8825 41.8681C63.953 43.1354 60.8793 44.0368 57.7306 44.5518V30.3701C57.7306 28.2705 58.5623 26.257 60.0429 24.7724C61.5234 23.2878 63.5314 22.4537 65.6252 22.4537C67.719 22.4537 69.7271 23.2878 71.2076 24.7724C72.6881 26.257 73.5199 28.2705 73.5199 30.3701V33.9242C73.5199 37.0499 71.0399 40.0238 66.8825 41.8681Z" fill="url(#paint0_linear)"/>
<defs>
<linearGradient id="paint0_linear" x1="20.9163" y1="75.2433" x2="75.2323" y2="21.0761" gradientUnits="userSpaceOnUse">
<stop stop-color="#00AEE9"/>
<stop offset="1" stop-color="#69FABD"/>
</linearGradient>
</defs>
</svg>
