<svg width="96" height="96" viewBox="0 0 96 96" fill="none" xmlns="http://www.w3.org/2000/svg">
<circle cx="48" cy="48" r="48" fill="#6A54BF"/>
<path fill-rule="evenodd" clip-rule="evenodd" d="M60.6995 20.1599V72.1404L53.6751 77.7599H39.6263L39.6272 50.1175C35.4942 52.5085 30.6957 53.877 25.5775 53.877C25.2855 53.877 24.9939 53.8725 24.703 53.8636L24.0465 53.836L24.0805 53.1745H24.0383V40.5306H24.0465L30.0919 35.5708C30.4581 35.5993 30.8267 35.6136 31.197 35.6136C32.9082 35.6136 34.5756 35.3078 36.1406 34.7193L36.5464 34.5581C38.3973 32.2485 39.5338 29.3416 39.6209 26.1727L39.6263 25.7794L46.6507 20.1599H60.6995ZM41.0314 49.2491L41.0312 76.355H52.2702V34.5774C50.3383 40.442 46.5276 45.4531 41.5504 48.8983L41.0314 49.2491ZM59.2937 22.3234L53.6742 26.819V75.9603L59.2937 71.4647V22.3234ZM52.2338 27.185L40.9681 27.1856C40.2696 34.9291 33.8592 41.0252 25.9827 41.2279L25.4432 41.2275L25.4439 52.4718L25.5775 52.4721C39.6877 52.4721 51.2407 41.5238 52.2051 27.6588L52.2338 27.185ZM34.4456 36.6761L34.0031 36.7642C33.0852 36.9326 32.147 37.0184 31.197 37.0184C30.9838 37.0184 30.7711 37.0141 30.5589 37.0055L27.2366 39.7313C29.9522 39.4118 32.4309 38.3177 34.4456 36.6761ZM57.9928 21.5648H47.1416L41.8733 25.7794H52.7245L57.9928 21.5648Z" fill="white"/>
</svg>
