<svg xmlns="http://www.w3.org/2000/svg" width="96" height="96" fill="none" viewBox="0 0 96 96"><path fill="url(#paint0_linear_2024_1217)" d="M47.86 95.5695C74.1763 95.5695 95.51 74.2359 95.51 47.9195C95.51 21.6032 74.1763 0.269531 47.86 0.269531C21.5436 0.269531 0.209961 21.6032 0.209961 47.9195C0.209961 74.2359 21.5436 95.5695 47.86 95.5695Z"/><path fill="#fff" d="M76.5398 27.9304L73.9798 26.4504C73.1998 26.0104 72.2298 26.5704 72.2298 27.4604V34.3604C72.2298 35.3004 71.2198 35.8804 70.4098 35.4004L67.2898 33.6004C66.4798 33.1404 65.9798 32.2904 65.9798 31.3604V23.7504C65.9798 22.5904 65.3598 21.5104 64.3598 20.9304L61.7998 19.4504C61.0198 18.9904 60.0498 19.5604 60.0498 20.4604V27.3404C60.0498 28.2804 59.0298 28.8604 58.2098 28.4004L55.0898 26.6004C54.2998 26.1404 53.7998 25.2804 53.7998 24.3604V16.3504C53.7998 15.4304 53.3098 14.5904 52.5098 14.1104L49.5298 12.4004C48.9998 12.1004 48.4398 11.9404 47.8498 11.9404C47.2698 11.9404 46.6998 12.0804 46.1698 12.3804L43.1998 14.0904C42.3898 14.5504 41.8898 15.4104 41.8898 16.3304V24.3604C41.8898 25.2804 41.3998 26.1404 40.5998 26.6004L37.4798 28.4004C36.6698 28.8604 35.6598 28.2804 35.6598 27.3404V20.4604C35.6598 19.5604 34.6898 19.0004 33.9098 19.4504L31.3298 20.9304C30.3198 21.5104 29.7098 22.5904 29.7098 23.7504V31.3604C29.7098 32.3004 29.2198 33.1404 28.4198 33.6004L25.2998 35.4004C24.4898 35.8804 23.4598 35.2904 23.4598 34.3604V27.4604C23.4598 26.5804 22.4898 26.0104 21.7098 26.4504L19.1498 27.9304C18.1398 28.5104 17.5298 29.5904 17.5298 30.7704V40.2704C17.5298 41.1304 18.0098 41.9304 18.7798 42.3004L21.0598 43.4304C21.5898 43.6804 21.9198 44.2204 21.9198 44.8104V69.4004C21.9198 72.1004 23.3498 74.6104 25.6998 75.9504L35.3698 81.5504C35.7198 81.7404 36.1498 81.5004 36.1498 81.0904V78.9004C36.1498 78.3704 36.7098 78.0404 37.1698 78.3004L46.2398 83.5404C46.7298 83.8204 47.2798 83.9604 47.8298 83.9604C48.3798 83.9604 48.9198 83.8204 49.4198 83.5404L58.4898 78.3004C58.9498 78.0404 59.5098 78.3704 59.5098 78.9004V81.0904C59.5098 81.5004 59.9498 81.7404 60.2898 81.5504L69.9798 75.9504C72.3098 74.6104 73.7598 72.1004 73.7598 69.4004V44.8004C73.7598 44.2204 74.0998 43.6704 74.6198 43.4204L76.8798 42.2904C77.6598 41.9204 78.1498 41.1304 78.1498 40.2604V30.7604C78.1798 29.5904 77.5398 28.5104 76.5398 27.9304ZM61.4598 70.5404C61.4598 71.5304 60.9298 72.4504 60.0698 72.9204L49.4398 79.0404C48.9498 79.3204 48.3998 79.4504 47.8498 79.4504C47.2998 79.4504 46.7598 79.3304 46.2798 79.0404L35.6398 72.9204C34.7898 72.4404 34.2598 71.5304 34.2598 70.5404V68.3004C34.2598 67.7204 34.8598 67.3504 35.3898 67.5904L46.4698 72.9404C46.8898 73.1504 47.3698 73.2604 47.8498 73.2604C48.3298 73.2604 48.7998 73.1504 49.2298 72.9404L60.3098 67.5904C60.8398 67.3404 61.4598 67.7104 61.4598 68.3004V70.5404ZM67.4798 53.2004C67.3898 54.8804 66.4198 56.3804 64.9198 57.1404L49.2798 65.0504C48.8398 65.2804 48.3398 65.3904 47.8498 65.3904C47.3598 65.3904 46.8598 65.2804 46.4198 65.0504L30.7798 57.1404C29.2998 56.3804 28.3098 54.8804 28.2198 53.2004L27.9698 48.6604C27.9298 47.9704 28.5898 47.4604 29.2398 47.6504L46.4098 52.7504C46.8898 52.8904 47.3598 52.9604 47.8398 52.9604C48.3298 52.9604 48.8298 52.8904 49.2898 52.7504L66.4498 47.6504C67.1198 47.4604 67.7698 47.9704 67.7398 48.6604L67.4798 53.2004Z"/><path fill="#FCE3D7" d="M78.1801 30.7699V40.2699C78.1801 41.1299 77.6901 41.9299 76.9101 42.2999L74.6501 43.4299C74.1201 43.6799 73.7901 44.2199 73.7901 44.8099V69.3999C73.7901 72.0999 72.3401 74.6099 70.0101 75.9499L60.3201 81.5499C59.9801 81.7399 59.5401 81.4999 59.5401 81.0899V78.8999C59.5401 78.3699 58.9801 78.0399 58.5201 78.2999L49.4501 83.5399C48.9601 83.8199 48.4101 83.9599 47.8601 83.9599V79.4599C48.4101 79.4599 48.9501 79.3399 49.4501 79.0499L60.0801 72.9299C60.9401 72.4499 61.4701 71.5399 61.4701 70.5499V68.3099C61.4701 67.7299 60.8501 67.3599 60.3201 67.5999L49.2401 72.9499C48.8201 73.1599 48.3401 73.2699 47.8601 73.2699V65.3999C48.3501 65.3999 48.8501 65.2899 49.2901 65.0599L64.9301 57.1499C66.4301 56.3899 67.4001 54.8899 67.4901 53.2099L67.7501 48.6699C67.7901 47.9799 67.1301 47.4699 66.4601 47.6599L49.3001 52.7599C48.8401 52.8999 48.3501 52.9699 47.8501 52.9699V11.9199C48.4301 11.9199 49.0001 12.0799 49.5301 12.3799L52.5101 14.0899C53.3001 14.5699 53.8001 15.4099 53.8001 16.3299V24.3399C53.8001 25.2599 54.2901 26.1199 55.0901 26.5799L58.2101 28.3799C59.0201 28.8399 60.0501 28.2599 60.0501 27.3199V20.4399C60.0501 19.5399 61.0201 18.9799 61.8001 19.4299L64.3601 20.9099C65.3701 21.4899 65.9801 22.5699 65.9801 23.7299V31.3399C65.9801 32.2799 66.4701 33.1199 67.2901 33.5799L70.4101 35.3799C71.2201 35.8599 72.2301 35.2699 72.2301 34.3399V27.4399C72.2301 26.5599 73.2001 25.9899 73.9801 26.4299L76.5401 27.9099C77.5401 28.5099 78.1801 29.5899 78.1801 30.7699Z"/><defs><linearGradient id="paint0_linear_2024_1217" x1="47.86" x2="47.86" y1="3.513" y2="93.259" gradientUnits="userSpaceOnUse"><stop stop-color="#EA511A"/><stop offset="1" stop-color="#EDC920"/></linearGradient></defs></svg>