<svg width="96" height="96" viewBox="0 0 96 96" fill="none" xmlns="http://www.w3.org/2000/svg">
<path d="M48 96C74.5097 96 96 74.5097 96 48C96 21.4903 74.5097 0 48 0C21.4903 0 0 21.4903 0 48C0 74.5097 21.4903 96 48 96Z" fill="#0D285A"/>
<path d="M58.4001 54.0803L48.0001 60.1603L37.6001 54.0803V41.9203L48.0001 35.8403L58.4001 41.9203V54.0803Z" fill="white"/>
<path d="M47.9999 8.87988L14.3999 28.3999V67.5199L47.9999 87.1199L81.5999 67.5199V28.3999L47.9999 8.87988ZM31.1999 57.5199V38.3999L47.5999 28.8799L63.9999 38.3999V57.4399L47.5999 66.9599L31.1999 57.5199ZM31.1999 68.4799V61.8399L53.5199 74.7199L47.7599 77.9999L31.1999 68.4799ZM73.5999 63.0399L57.3599 72.5599L51.1999 69.1199L67.1999 59.5999V36.3199L47.5999 24.6399L27.9999 36.3199V37.1199V59.5999V66.3199L22.3999 63.0399V32.9599L47.9999 17.9999L73.5999 32.9599V63.0399Z" fill="white"/>
</svg>
