<svg xmlns="http://www.w3.org/2000/svg" width="96" height="96" fill="none" viewBox="0 0 96 96"><g clip-path="url(#clip0)"><path fill="#fff" d="M48.003 88.1341C71.3764 88.1341 90.3243 69.1889 90.3243 45.819C90.3243 22.449 71.3764 3.50391 48.003 3.50391C24.6296 3.50391 5.68164 22.449 5.68164 45.819C5.68164 69.1889 24.6296 88.1341 48.003 88.1341Z"/><path fill="url(#paint0_radial)" d="M40.6629 0.356441C-21.1797 12.1017 -9.45175 102.376 55.3371 95.6437C117.175 83.8985 105.447 -6.37615 40.6629 0.356441ZM76.8114 51.4662C55.5652 74.3009 49.0787 81.7272 42.8583 75.4935C10.6397 41.859 10.1978 54.2979 41.6228 21.742C42.4829 20.7918 45.0205 17.7795 49.5586 18.5207C55.1232 20.3166 58.06 26.232 68.2863 35.5731C74.7443 42.4292 79.6341 44.5245 76.8114 51.4662Z"/><path fill="#7A51DC" d="M35.4783 54.5354H60.5214C60.8068 54.5348 61.0894 54.5905 61.3532 54.6994C61.617 54.8083 61.8566 54.9682 62.0584 55.17C62.2602 55.3718 62.4201 55.6114 62.529 55.8751C62.6379 56.1388 62.6937 56.4214 62.6931 56.7068C62.6918 57.2818 62.4624 57.8329 62.0553 58.2391C61.6482 58.6452 61.0965 58.8734 60.5214 58.8734H35.4736C35.1884 58.874 34.906 58.8182 34.6425 58.7093C34.379 58.6003 34.1397 58.4403 33.9383 58.2385C33.7368 58.0367 33.5774 57.797 33.469 57.5333C33.3606 57.2696 33.3054 56.9871 33.3067 56.702C33.306 56.4169 33.3618 56.1345 33.4708 55.8711C33.5798 55.6076 33.7398 55.3683 33.9416 55.1669C34.1435 54.9655 34.3832 54.8061 34.6469 54.6977C34.9106 54.5893 35.1932 54.5342 35.4783 54.5354Z"/><path fill="#7A51DC" d="M35.4783 45.812H60.5261C61.1017 45.8133 61.6533 46.0424 62.0603 46.4494C62.4673 46.8563 62.6965 47.4079 62.6978 47.9834C62.6965 48.5588 62.4673 49.1104 62.0603 49.5173C61.6533 49.9243 61.1017 50.1534 60.5261 50.1547H35.4783C34.9036 50.1535 34.3526 49.9249 33.9458 49.519C33.5389 49.1131 33.3092 48.5628 33.3066 47.9881C33.306 47.7026 33.3617 47.4197 33.4706 47.1557C33.5794 46.8917 33.7393 46.6518 33.941 46.4497C34.1428 46.2475 34.3824 46.0872 34.6462 45.9777C34.9099 45.8683 35.1927 45.812 35.4783 45.812Z"/><path fill="#7A51DC" d="M35.4832 37.1267H60.531C61.1061 37.128 61.6573 37.3573 62.0635 37.7644C62.4698 38.1714 62.6979 38.723 62.6979 39.2981C62.6986 39.5834 62.6428 39.866 62.5339 40.1297C62.425 40.3935 62.265 40.6331 62.0633 40.8348C61.8615 41.0366 61.6218 41.1965 61.3581 41.3054C61.0943 41.4143 60.8116 41.47 60.5263 41.4694H35.4832C34.9072 41.4694 34.3549 41.2406 33.9476 40.8334C33.5403 40.4262 33.3115 39.8739 33.3115 39.2981C33.3128 38.7226 33.542 38.171 33.949 37.7641C34.356 37.3571 34.9076 37.128 35.4832 37.1267Z"/></g><defs><radialGradient id="paint0_radial" cx="0" cy="0" r="1" gradientTransform="translate(48 48.0025) scale(48.0048 47.9976)" gradientUnits="userSpaceOnUse"><stop stop-color="#BBB9FC"/><stop offset="1" stop-color="#7A51DC"/></radialGradient><clipPath id="clip0"><rect width="96" height="96" fill="#fff"/></clipPath></defs></svg>