<svg width="96" height="96" viewBox="0 0 96 96" fill="none" xmlns="http://www.w3.org/2000/svg">
<path d="M48 96C74.5097 96 96 74.5097 96 48C96 21.4903 74.5097 0 48 0C21.4903 0 0 21.4903 0 48C0 74.5097 21.4903 96 48 96Z" fill="#080A26"/>
<path d="M53.6492 25.2083L34.5195 74.1823C34.5195 74.1823 34.1299 75.3513 32.8052 75.585C31.6364 75.8188 30.7792 75.1951 30.3507 74.494C30 73.9095 30 73.2862 30 73.2862V24.3122C30 23.0265 31.0519 21.9745 32.3377 21.9745L51.3895 21.9355C53.1039 21.9745 54.2337 23.6498 53.6492 25.2083Z" fill="#FF0EA9"/>
<path d="M59.9221 29.7667C60.7012 28.0134 62.6105 28.0914 63.4287 28.7147C63.5454 28.8316 63.6233 28.8706 63.6233 28.8316C69.7012 34.1303 73.4027 42.0005 72.9349 50.6497C72.1558 64.9874 60.3508 76.325 45.8182 76.325H45.1558C43.5585 76.2862 42.3116 74.7668 43.0128 73.0133L59.9221 29.7667Z" fill="#00DAFF"/>
</svg>
