<svg width="96" height="96" viewBox="0 0 96 96" fill="none" xmlns="http://www.w3.org/2000/svg">
<path d="M48 96C74.5097 96 96 74.5097 96 48C96 21.4903 74.5097 0 48 0C21.4903 0 0 21.4903 0 48C0 74.5097 21.4903 96 48 96Z" fill="black"/>
<path d="M43.5732 46.9006C44.6602 46.9791 45.5901 46.154 45.6686 45.0801L46.8867 27.4386C46.9652 26.3516 46.1401 25.4217 45.0662 25.3431C43.9792 25.2645 43.0493 26.0896 42.9707 27.1636L41.8837 42.8405L26.2067 41.7535C25.1197 41.6749 24.1898 42.5 24.1112 43.574C24.0326 44.661 24.8577 45.5909 25.9317 45.6695L43.5732 46.9006ZM46.3628 53.2787C46.4283 52.1917 45.5901 51.2618 44.5161 51.2094L26.8616 50.2141C25.7745 50.1486 24.8446 50.9868 24.7922 52.0607C24.7268 53.1478 25.565 54.0776 26.6389 54.13L42.3289 55.0075L41.4515 70.6976C41.386 71.7846 42.2242 72.7145 43.2981 72.7669C44.3852 72.8324 45.315 71.9942 45.3674 70.9202L46.3628 53.2787ZM52.6231 50.7641C51.536 50.7641 50.6586 51.6547 50.6716 52.7418L50.7502 70.4225C50.7502 71.5096 51.6408 72.3871 52.7279 72.374C53.8149 72.374 54.6924 71.4834 54.6793 70.3963L54.6007 54.6801L70.3169 54.6015C71.404 54.6015 72.2815 53.7109 72.2684 52.6239C72.2684 51.5369 71.3778 50.6594 70.2908 50.6725L52.6231 50.7641ZM50.1216 44.6479C50.174 45.7349 51.0907 46.5731 52.1647 46.5208L69.8324 45.748C70.9194 45.6957 71.7576 44.7789 71.7052 43.7049C71.6528 42.631 70.736 41.7797 69.6621 41.8321L53.959 42.5131L53.2779 26.81C53.2255 25.7229 52.3088 24.8847 51.2348 24.9371C50.1478 24.9895 49.3096 25.9063 49.362 26.9802L50.1216 44.6479ZM21.924 22.894L42.2242 46.2195L45.1841 43.6394L24.8839 20.327L21.924 22.894ZM22.6575 75.2422L45.721 54.6277L43.1017 51.694L20.0381 72.3085L22.6575 75.2422ZM75.9879 73.1074L54.0113 51.3404L51.2479 54.13L73.2244 75.897L75.9879 73.1074ZM71.5219 20.4318L50.6324 43.2334L53.5268 45.8921L74.4163 23.0905L71.5219 20.4318Z" fill="black"/>
<path d="M43.5732 46.9006C44.6602 46.9791 45.5901 46.154 45.6686 45.0801L46.8867 27.4386C46.9652 26.3516 46.1401 25.4217 45.0662 25.3431C43.9792 25.2645 43.0493 26.0896 42.9707 27.1636L41.8837 42.8405L26.2067 41.7535C25.1197 41.6749 24.1898 42.5 24.1112 43.574C24.0326 44.661 24.8577 45.5909 25.9317 45.6695L43.5732 46.9006ZM46.3628 53.2787C46.4283 52.1917 45.5901 51.2618 44.5161 51.2094L26.8616 50.2141C25.7745 50.1486 24.8446 50.9868 24.7922 52.0607C24.7268 53.1478 25.565 54.0776 26.6389 54.13L42.3289 55.0075L41.4515 70.6976C41.386 71.7846 42.2242 72.7145 43.2981 72.7669C44.3852 72.8324 45.315 71.9942 45.3674 70.9202L46.3628 53.2787ZM52.6231 50.7641C51.536 50.7641 50.6586 51.6547 50.6716 52.7418L50.7502 70.4225C50.7502 71.5096 51.6408 72.3871 52.7279 72.374C53.8149 72.374 54.6924 71.4834 54.6793 70.3963L54.6007 54.6801L70.3169 54.6015C71.404 54.6015 72.2815 53.7109 72.2684 52.6239C72.2684 51.5369 71.3778 50.6594 70.2908 50.6725L52.6231 50.7641ZM50.1216 44.6479C50.174 45.7349 51.0907 46.5731 52.1647 46.5208L69.8324 45.748C70.9194 45.6957 71.7576 44.7789 71.7052 43.7049C71.6528 42.631 70.736 41.7797 69.6621 41.8321L53.959 42.5131L53.2779 26.81C53.2255 25.7229 52.3088 24.8847 51.2348 24.9371C50.1478 24.9895 49.3096 25.9063 49.362 26.9802L50.1216 44.6479ZM21.924 22.894L42.2242 46.2195L45.1841 43.6394L24.8839 20.327L21.924 22.894ZM22.6575 75.2422L45.721 54.6277L43.1017 51.694L20.0381 72.3085L22.6575 75.2422ZM75.9879 73.1074L54.0113 51.3404L51.2479 54.13L73.2244 75.897L75.9879 73.1074ZM71.5219 20.4318L50.6324 43.2334L53.5268 45.8921L74.4163 23.0905L71.5219 20.4318Z" fill="white"/>
</svg>
