<svg width="96" height="96" viewBox="0 0 96 96" fill="none" xmlns="http://www.w3.org/2000/svg">
<circle cx="48" cy="48" r="48" fill="url(#paint0_linear)"/>
<path fill-rule="evenodd" clip-rule="evenodd" d="M16.8217 53.2738C16.8134 53.4531 16.8092 53.633 16.8092 53.8135C16.8092 54.4957 16.8687 55.1695 16.9845 55.8331H16.8092V56.8776C16.8092 57.3875 16.8424 57.8927 16.9076 58.3924C18.1785 68.1433 31.6136 75.8157 48 75.8157C64.3864 75.8157 77.8215 68.1433 79.0924 58.3924C79.1576 57.8927 79.1908 57.3875 79.1908 56.8776V55.8331H79.0155C79.1313 55.1695 79.1908 54.4957 79.1908 53.8135C79.1908 53.633 79.1866 53.4531 79.1783 53.2738C78.7078 43.0642 64.9289 34.8755 48 34.8755C31.0711 34.8755 17.2922 43.0642 16.8217 53.2738ZM14.26 53.2738C14.492 47.0445 18.725 41.8118 24.6166 38.2346C30.7239 34.5265 38.9975 32.3162 48 32.3162C57.0025 32.3162 65.2761 34.5265 71.3834 38.2346C77.275 41.8118 81.508 47.0445 81.74 53.2738H81.75V56.8776C81.75 63.3444 77.4444 68.7765 71.3834 72.4565C65.2761 76.1646 57.0025 78.375 48 78.375C38.9975 78.375 30.7239 76.1646 24.6166 72.4565C18.5556 68.7765 14.25 63.3444 14.25 56.8776V53.2738H14.26Z" fill="#606063"/>
<path d="M79.1906 56.8782C79.1906 67.3374 65.226 75.8162 47.9998 75.8162C30.7737 75.8162 16.8091 67.3374 16.8091 56.8782V53.8802H79.1906V56.8782Z" fill="#BEBEBE"/>
<path d="M79.1906 53.8135C79.1906 64.2727 65.226 72.7515 47.9998 72.7515C30.7737 72.7515 16.8091 64.2727 16.8091 53.8135C16.8091 43.3543 30.7737 34.8755 47.9998 34.8755C65.226 34.8755 79.1906 43.3543 79.1906 53.8135Z" fill="#FAF9FA"/>
<path fill-rule="evenodd" clip-rule="evenodd" d="M21.6079 48.4635C21.6079 48.4753 21.6079 48.4872 21.6079 48.499C21.6079 49.3602 21.7327 50.2036 21.9719 51.0228H21.6076V52.1318C21.6076 52.6214 21.6479 53.1052 21.7267 53.5821C22.9158 60.7829 32.8641 66.4034 44.9605 66.4034C57.0569 66.4034 67.0052 60.7829 68.1944 53.5821C68.2731 53.1052 68.3135 52.6214 68.3135 52.1318V51.0228H67.9497C68.1824 50.2259 68.3069 49.4062 68.3135 48.5695C68.3137 48.546 68.3137 48.5225 68.3137 48.499C68.3137 48.4872 68.3137 48.4753 68.3137 48.4635C68.2823 40.5979 57.8389 34.2275 44.9608 34.2275C32.0827 34.2275 21.6393 40.5979 21.6079 48.4635ZM19.0487 48.4635H19.0483V52.1318C19.0483 57.3018 22.467 61.5678 27.113 64.4071C31.8029 67.2733 38.1194 68.9627 44.9605 68.9627C51.8017 68.9627 58.1181 67.2733 62.8081 64.4071C67.4541 61.5678 70.8727 57.3018 70.8727 52.1318V48.5789C70.8729 48.5523 70.873 48.5257 70.873 48.499C70.873 43.3291 67.4544 39.063 62.8083 36.2237C58.1184 33.3576 51.802 31.6682 44.9608 31.6682C38.1196 31.6682 31.8032 33.3576 27.1133 36.2237C22.4779 39.0565 19.0643 43.3095 19.0487 48.4635Z" fill="#633001"/>
<path d="M68.3138 52.132C68.3138 60.014 57.8583 66.4036 44.9609 66.4036C32.0634 66.4036 21.6079 60.014 21.6079 52.132V48.7836H68.3138V52.132Z" fill="#FEDC90"/>
<path d="M68.3138 48.4991C68.3138 56.381 57.8583 62.7706 44.9609 62.7706C32.0634 62.7706 21.6079 56.381 21.6079 48.4991C21.6079 40.6171 32.0634 34.2275 44.9609 34.2275C57.8583 34.2275 68.3138 40.6171 68.3138 48.4991Z" fill="#D1884F"/>
<path fill-rule="evenodd" clip-rule="evenodd" d="M28.646 40.7856C28.646 40.7975 28.6459 40.8093 28.6459 40.8212C28.6459 41.6824 28.7708 42.5257 29.0099 43.3449H28.6457V44.454C28.6457 44.9435 28.686 45.4273 28.7648 45.9042C29.9539 53.105 39.9022 58.7255 51.9986 58.7255C64.095 58.7255 74.0433 53.105 75.2325 45.9042C75.3112 45.4273 75.3516 44.9435 75.3516 44.454V43.3449H74.9878C75.2205 42.5481 75.3449 41.7283 75.3516 40.8916C75.3517 40.8681 75.3518 40.8447 75.3518 40.8212C75.3518 40.8093 75.3518 40.7975 75.3518 40.7856C75.3204 32.92 64.877 26.5497 51.9989 26.5497C39.1208 26.5497 28.6774 32.92 28.646 40.7856ZM26.0868 40.7856H26.0864V44.454C26.0864 49.6239 29.505 53.89 34.1511 56.7293C38.841 59.5954 45.1574 61.2848 51.9986 61.2848C58.8398 61.2848 65.1562 59.5954 69.8462 56.7293C74.4922 53.89 77.9108 49.6239 77.9108 44.454V40.9011C77.911 40.8745 77.9111 40.8478 77.9111 40.8212C77.9111 35.6512 74.4925 31.3852 69.8464 28.5459C65.1565 25.6797 58.8401 23.9904 51.9989 23.9904C45.1577 23.9904 38.8413 25.6797 34.1513 28.5459C29.516 31.3787 26.1024 35.6317 26.0868 40.7856Z" fill="#633001"/>
<path d="M75.3514 44.4542C75.3514 52.3361 64.8959 58.7257 51.9984 58.7257C39.101 58.7257 28.6455 52.3361 28.6455 44.4542V41.1057H75.3514V44.4542Z" fill="#FEDC90"/>
<path d="M75.3514 40.8212C75.3514 48.7032 64.8959 55.0928 51.9984 55.0928C39.101 55.0928 28.6455 48.7032 28.6455 40.8212C28.6455 32.9393 39.101 26.5497 51.9984 26.5497C64.8959 26.5497 75.3514 32.9393 75.3514 40.8212Z" fill="#D1884F"/>
<path fill-rule="evenodd" clip-rule="evenodd" d="M21.6079 33.1078C21.6079 33.1196 21.6079 33.1315 21.6079 33.1433C21.6079 34.0045 21.7327 34.8479 21.9719 35.667H21.6076V36.7761C21.6076 37.2657 21.6479 37.7495 21.7267 38.2263C22.9158 45.4271 32.8641 51.0477 44.9605 51.0477C57.0569 51.0477 67.0052 45.4271 68.1944 38.2263C68.2731 37.7495 68.3135 37.2657 68.3135 36.7761V35.667H67.9497C68.1824 34.8702 68.3069 34.0505 68.3135 33.2137C68.3137 33.1903 68.3137 33.1668 68.3137 33.1433C68.3137 33.1315 68.3137 33.1196 68.3137 33.1078C68.2823 25.2422 57.8389 18.8718 44.9608 18.8718C32.0827 18.8718 21.6393 25.2422 21.6079 33.1078ZM19.0487 33.1078H19.0483V36.7761C19.0483 41.9461 22.467 46.2121 27.113 49.0514C31.8029 51.9176 38.1194 53.6069 44.9605 53.6069C51.8017 53.6069 58.1181 51.9176 62.8081 49.0514C67.4541 46.2121 70.8727 41.9461 70.8727 36.7761V33.2232C70.8729 33.1966 70.873 33.17 70.873 33.1433C70.873 27.9734 67.4544 23.7073 62.8083 20.868C58.1184 18.0019 51.802 16.3125 44.9608 16.3125C38.1196 16.3125 31.8032 18.0019 27.1133 20.868C22.4779 23.7008 19.0643 27.9538 19.0487 33.1078Z" fill="#633001"/>
<path d="M68.3138 36.7762C68.3138 44.6581 57.8583 51.0477 44.9609 51.0477C32.0634 51.0477 21.6079 44.6581 21.6079 36.7762V33.4277H68.3138V36.7762Z" fill="#FEDC90"/>
<path d="M68.3138 33.1434C68.3138 41.0253 57.8583 47.4149 44.9609 47.4149C32.0634 47.4149 21.6079 41.0253 21.6079 33.1434C21.6079 25.2614 32.0634 18.8718 44.9609 18.8718C57.8583 18.8718 68.3138 25.2614 68.3138 33.1434Z" fill="#D1884F"/>
<path fill-rule="evenodd" clip-rule="evenodd" d="M27.1319 34.0313C27.1319 36.6628 29.044 39.0196 32.0606 40.6053L29.9706 44.2255L29.971 44.2257H29.9706V53.3876C29.9706 54.5991 30.9527 55.5812 32.1642 55.5812C33.3757 55.5812 34.3578 54.5991 34.3578 53.3876V46.1012L36.6064 42.2065C38.0442 42.5114 39.5876 42.677 41.1939 42.677C48.9601 42.677 55.2559 38.8062 55.2559 34.0313C55.2559 29.2564 48.9601 25.3856 41.1939 25.3856C33.4277 25.3856 27.1319 29.2564 27.1319 34.0313Z" fill="url(#paint1_linear)"/>
<path fill-rule="evenodd" clip-rule="evenodd" d="M32.0605 40.6053C31.7264 40.4297 31.4058 40.2446 31.0998 40.0507C28.6438 38.4941 27.1318 36.3713 27.1318 34.0313C27.1318 29.2564 33.4276 25.3856 41.1938 25.3856C48.96 25.3856 55.2558 29.2564 55.2558 34.0313C55.2558 38.8062 48.96 42.677 41.1938 42.677C39.5875 42.677 38.0441 42.5114 36.6064 42.2065L34.3578 46.1012V53.3876C34.3578 54.5991 33.3756 55.5812 32.1641 55.5812C30.9526 55.5812 29.9705 54.5991 29.9705 53.3876V44.2257L32.0605 40.6053ZM27.7312 44.2642V53.3876C27.7312 55.8359 29.7159 57.8206 32.1641 57.8206C34.6124 57.8206 36.5971 55.8359 36.5971 53.3876V46.7013L37.7634 44.6812C38.8711 44.8356 40.0191 44.9164 41.1938 44.9164C45.4227 44.9164 49.3585 43.867 52.31 42.0524C55.2249 40.2602 57.4951 37.4874 57.4951 34.0313C57.4951 30.5752 55.2249 27.8024 52.31 26.0102C49.3585 24.1956 45.4227 23.1462 41.1938 23.1462C36.9649 23.1462 33.0291 24.1956 30.0777 26.0102C27.1627 27.8024 24.8925 30.5752 24.8925 34.0313C24.8925 37.0646 26.6298 39.5624 29.0437 41.3521L28.0466 43.079C27.9516 43.2381 27.8757 43.41 27.8222 43.5915C27.7567 43.8128 27.7271 44.0397 27.7312 44.2642Z" fill="#633001"/>
<path d="M31.5248 30.3887C31.5248 32.8622 34.6757 34.8674 38.5627 34.8674C42.4496 34.8674 45.6006 32.8622 45.6006 30.3887C45.6006 27.9151 42.4496 25.9099 38.5627 25.9099C34.6757 25.9099 31.5248 27.9151 31.5248 30.3887Z" fill="#9E7200"/>
<path d="M31.5249 28.4691H45.6007V30.3886H31.5249V28.4691Z" fill="#9E7200"/>
<path d="M31.5248 28.4691C31.5248 30.9427 34.6757 32.9479 38.5627 32.9479C42.4496 32.9479 45.6006 30.9427 45.6006 28.4691C45.6006 25.9956 42.4496 23.9904 38.5627 23.9904C34.6757 23.9904 31.5248 25.9956 31.5248 28.4691Z" fill="#F0B90B"/>
<path d="M35.892 27.9294L37.8757 26.667C38.2949 26.4002 38.8306 26.4002 39.2497 26.667L41.2335 27.9294C41.6285 28.1808 41.6285 28.7575 41.2335 29.009L39.2497 30.2714C38.8306 30.5381 38.2949 30.5381 37.8757 30.2714L35.892 29.009C35.4969 28.7575 35.4969 28.1808 35.892 27.9294Z" fill="#9E7200"/>
<path fill-rule="evenodd" clip-rule="evenodd" d="M32.3841 23.4129C34.0687 22.3408 36.2593 21.751 38.5629 21.751C40.8665 21.751 43.057 22.3408 44.7417 23.4129C46.3998 24.468 47.8401 26.2011 47.8401 28.4691V30.3886C47.8401 32.6566 46.3998 34.3897 44.7417 35.4448C43.057 36.5169 40.8665 37.1067 38.5629 37.1067C36.2593 37.1067 34.0687 36.5169 32.3841 35.4448C30.726 34.3897 29.2856 32.6566 29.2856 30.3886V28.4691C29.2856 26.2011 30.726 24.468 32.3841 23.4129ZM38.5629 23.9904C34.676 23.9904 31.525 25.9956 31.525 28.4691V30.3886C31.525 32.8621 34.676 34.8674 38.5629 34.8674C42.4498 34.8674 45.6008 32.8621 45.6008 30.3886V28.4691C45.6008 25.9956 42.4498 23.9904 38.5629 23.9904Z" fill="#633001"/>
<defs>
<linearGradient id="paint0_linear" x1="48" y1="0" x2="48" y2="96" gradientUnits="userSpaceOnUse">
<stop stop-color="#54DADE"/>
<stop offset="0.762157" stop-color="#24C7D6"/>
</linearGradient>
<linearGradient id="paint1_linear" x1="41.346" y1="25.675" x2="41.346" y2="55.3544" gradientUnits="userSpaceOnUse">
<stop stop-color="#9F4A08"/>
<stop offset="0.370494" stop-color="#7D3900"/>
<stop offset="1" stop-color="#8D4104"/>
</linearGradient>
</defs>
</svg>
