<svg xmlns="http://www.w3.org/2000/svg" width="96" height="96" fill="none" viewBox="0 0 96 96"><circle cx="48" cy="48" r="48" fill="#fff"/><path fill="url(#paint0_linear)" d="M34.8364 79.0793C34.8364 78.4134 35.0818 77.8024 35.3676 77.2844L35.4129 77.1569L44.9913 60.6679L45.2663 60.1546C45.8346 59.315 46.8779 58.7419 47.9785 58.7419C49.1195 58.7419 50.1295 59.315 50.7272 60.1546L51.0036 60.6679L54.8673 67.2332C55.7595 68.8447 57.8472 69.3925 59.4602 68.4552C60.5499 67.8478 61.1312 66.6985 61.1312 65.5098C61.1312 64.9536 61.0371 64.3901 60.6474 63.8554L53.1333 50.7776L52.5424 49.7593C52.4755 49.39 52.3305 49.0124 52.3305 48.6099C52.3305 48.2108 52.4755 47.8285 52.5424 47.4891L53.1333 46.4377L66.2908 23.6049L66.7876 22.764C67.4781 21.9708 68.3693 21.4539 69.4605 21.4539C70.5394 21.4539 71.5517 21.9791 72.1331 22.7937C72.3592 23.032 72.5332 23.2986 72.6346 23.5881L84.8547 44.6971C86.0637 46.8483 86.0637 50.3653 84.8547 52.5129L69.7322 78.5528C68.5612 80.7002 65.4513 82.4617 63.0071 82.4617H38.2642C36.4062 82.4618 34.8364 80.9469 34.8364 79.0793Z"/><path fill="url(#paint1_linear)" d="M61.135 18.1173C61.135 18.7879 60.9111 19.4369 60.606 19.9551L60.5751 20.0528L51.0037 36.55L50.7273 37.0586C50.1295 37.9331 49.1194 38.5108 47.9786 38.5108C46.878 38.5108 45.8347 37.9331 45.2664 37.0586L44.9914 36.5454L41.1299 29.9981C40.208 28.3784 38.1427 27.8175 36.5253 28.7477C35.439 29.3622 34.8363 30.5245 34.8363 31.6872C34.8363 32.2601 34.9553 32.8495 35.3461 33.3808L42.8569 46.4407L43.4201 47.4888C43.5213 47.8282 43.6571 48.2024 43.6571 48.6096C43.6571 49.0121 43.5213 49.3897 43.4201 49.759L42.8569 50.7773L29.7065 73.6182L29.2014 74.4709C28.5357 75.2642 27.5971 75.7907 26.524 75.7907C25.4556 75.7907 24.4458 75.2559 23.8501 74.4459C23.6344 74.2078 23.4903 73.9362 23.3629 73.6478L11.1676 52.5126C9.92884 50.365 9.92884 46.8479 11.1676 44.6968L26.2525 18.6521C27.428 16.5142 30.5426 14.7693 32.9615 14.7693H57.8094C59.596 14.7691 61.135 16.246 61.135 18.1173Z"/><defs><linearGradient id="paint0_linear" x1="38.627" x2="67.957" y1="13.072" y2="80.966" gradientUnits="userSpaceOnUse"><stop stop-color="#17E2CF"/><stop offset="1" stop-color="#5181FD"/></linearGradient><linearGradient id="paint1_linear" x1="28.552" x2="57.88" y1="17.425" y2="85.315" gradientUnits="userSpaceOnUse"><stop stop-color="#17E2CF"/><stop offset="1" stop-color="#5181FD"/></linearGradient></defs></svg>