<svg xmlns="http://www.w3.org/2000/svg" width="96" height="96" fill="none" viewBox="0 0 96 96"><path fill="#06D6A0" d="M48 96C74.5097 96 96 74.5097 96 48C96 21.4903 74.5097 0 48 0C21.4903 0 0 21.4903 0 48C0 74.5097 21.4903 96 48 96Z"/><path fill="#fff" d="M51.6757 31.0228C56.0086 31.0228 59.4189 33.3675 61.5149 35.2309C62.8325 36.3602 64.1746 36.1465 65.8614 34.5293L69.3007 31.0093C70.7715 29.5939 70.771 28.4863 69.2959 26.778C66.7975 24.5814 63.7861 23.0496 60.5396 22.3238L62.2042 14.967C62.2283 14.8802 62.2317 14.789 62.2141 14.7007C62.1966 14.6124 62.1586 14.5294 62.1033 14.4584C62.0479 14.3874 61.977 14.3303 61.8956 14.2918C61.8143 14.2532 61.7248 14.2344 61.6348 14.2365H58.6583C58.4703 14.2345 58.2866 14.2934 58.1348 14.4043C57.983 14.5152 57.8713 14.6722 57.816 14.8519L56.2953 21.573C55.0362 21.4352 53.7234 21.3575 52.3569 21.3399L53.7992 14.967C53.8232 14.8803 53.8266 14.7891 53.8091 14.7009C53.7916 14.6126 53.7538 14.5297 53.6985 14.4587C53.6433 14.3877 53.5721 14.3307 53.4909 14.2921C53.4096 14.2535 53.3206 14.2345 53.2307 14.2365H50.2523C50.0644 14.2345 49.8806 14.2932 49.7289 14.4042C49.5771 14.5151 49.4655 14.6722 49.4104 14.8519L47.8902 21.573C37.689 22.8419 31.084 29.0857 31.084 37.9036C31.0737 39.6327 31.4289 41.3443 32.1264 42.9265C32.8239 44.5088 33.848 45.9257 35.1315 47.0844C37.8558 49.6691 41.3605 51.0296 43.8208 51.8179C44.7057 52.1084 45.5403 52.3613 46.344 52.6062C50.3163 53.8112 53.3286 55.3244 53.3286 58.3761C53.3286 61.5521 50.0669 64.2524 45.3998 64.2524C40.8306 64.2524 35.723 61.4943 33.0387 58.8912C32.5947 58.4405 31.9985 58.1718 31.3668 58.1379C30.5785 58.1379 29.6872 58.6082 28.7205 59.538L25.0324 63.226C23.5831 64.6758 23.5064 66.1676 24.8079 67.5374C27.4184 70.4605 31.3833 72.6075 36.0516 73.7435L34.4714 80.7306C34.4375 80.8528 34.4327 80.9812 34.4572 81.1056C34.4818 81.23 34.5349 81.3469 34.6126 81.4471C34.6903 81.5473 34.7903 81.6281 34.9047 81.6828C35.019 81.7376 35.1445 81.7649 35.2712 81.7626H37.7944C38.0202 81.7649 38.2408 81.6943 38.4233 81.5613C38.6058 81.4283 38.7404 81.2399 38.8073 81.0242L40.2899 74.4734C41.5062 74.6006 42.7282 74.6639 43.9512 74.6635C44.0509 74.6635 44.1481 74.6604 44.2478 74.6585L42.8749 80.733C42.8411 80.8552 42.8363 80.9836 42.8608 81.108C42.8853 81.2324 42.9385 81.3493 43.0161 81.4495C43.0938 81.5497 43.1938 81.6305 43.3082 81.6853C43.4226 81.74 43.5483 81.7673 43.6751 81.765H46.1979C46.4238 81.7671 46.6443 81.6964 46.8268 81.5634C47.0094 81.4304 47.1442 81.2422 47.2114 81.0266L48.7235 74.3472C52.7103 73.8889 56.5353 72.5061 59.8935 70.3091C64.4074 67.1878 67.0318 61.7201 67.0318 56.1687C67.0318 47.6081 59.3973 44.8973 52.6613 42.3939C52.2976 42.2604 51.9477 42.1306 51.6 41.9996L51.1691 41.8383C47.9752 40.6463 44.5471 39.2913 44.5471 36.1399C44.5526 33.1965 47.5551 31.0228 51.6757 31.0228Z"/></svg>