<svg xmlns="http://www.w3.org/2000/svg" width="96" height="96" fill="none" viewBox="0 0 96 96"><g clip-path="url(#clip0)"><path fill="#fff" d="M47.8412 91.0557C71.6064 91.0557 90.8718 71.7941 90.8718 48.0337C90.8718 24.2733 71.6064 5.01172 47.8412 5.01172C24.076 5.01172 4.81055 24.2733 4.81055 48.0337C4.81055 71.7941 24.076 91.0557 47.8412 91.0557Z"/><path fill="url(#paint0_radial)" d="M40.6627 0.35658C-21.1824 12.0999 -9.45113 102.376 55.3364 95.6465C117.182 83.8983 105.45 -6.37738 40.6627 0.35658ZM76.8228 51.4603C55.5635 74.2949 49.0891 81.7245 42.8659 75.4929C10.6292 41.8569 10.1992 54.2959 41.6194 21.7371C42.4842 20.771 45.0015 17.7712 49.5578 18.5151C55.1335 20.3073 58.0615 26.2442 68.2852 35.5674C74.7452 42.4269 79.6348 44.5186 76.8228 51.4603Z"/><path fill="url(#paint1_linear)" d="M33.5169 58.8699L45.6926 58.8741C46.341 58.8743 46.8669 58.349 46.8671 57.7007L46.8678 55.7056C46.868 55.0573 46.3426 54.5315 45.6941 54.5313L33.5184 54.5271C32.8699 54.5268 32.3441 55.0522 32.3439 55.7005L32.3432 57.6956C32.3429 58.3439 32.8684 58.8696 33.5169 58.8699Z"/><path fill="url(#paint2_linear)" d="M33.5237 50.1506L45.6994 50.1549C46.3479 50.1551 46.8737 49.6297 46.8739 48.9814L46.8746 46.9864C46.8749 46.3381 46.3494 45.8123 45.701 45.8121L33.5252 45.8078C32.8768 45.8076 32.3509 46.333 32.3507 46.9813L32.35 48.9764C32.3498 49.6247 32.8753 50.1504 33.5237 50.1506Z"/><path fill="url(#paint3_linear)" d="M33.5256 41.4651L45.7014 41.4693C46.3498 41.4695 46.8757 40.9442 46.8759 40.2959L46.8766 38.3008C46.8768 37.6525 46.3513 37.1268 45.7029 37.1265L33.5272 37.1223C32.8787 37.1221 32.3529 37.6474 32.3527 38.2957L32.352 40.2908C32.3517 40.9391 32.8772 41.4648 33.5256 41.4651Z"/><path fill="url(#paint4_linear)" d="M50.2927 58.8738L62.4685 58.878C63.1169 58.8782 63.6428 58.3529 63.643 57.7046L63.6437 55.7095C63.6439 55.0612 63.1184 54.5355 62.47 54.5352L50.2942 54.531C49.6458 54.5308 49.12 55.0561 49.1197 55.7044L49.119 57.6995C49.1188 58.3478 49.6443 58.8735 50.2927 58.8738Z"/><path fill="url(#paint5_linear)" d="M50.304 50.1496L62.4797 50.1539C63.1282 50.1541 63.654 49.6287 63.6542 48.9804L63.6549 46.9854C63.6551 46.3371 63.1297 45.8113 62.4812 45.8111L50.3055 45.8069C49.6571 45.8066 49.1312 46.332 49.131 46.9803L49.1303 48.9754C49.1301 49.6237 49.6555 50.1494 50.304 50.1496Z"/><path fill="url(#paint6_linear)" d="M50.3059 41.4641L62.4817 41.4683C63.1301 41.4686 63.6559 40.9432 63.6562 40.2949L63.6569 38.2998C63.6571 37.6515 63.1316 37.1258 62.4832 37.1256L50.3074 37.1213C49.659 37.1211 49.1332 37.6465 49.1329 38.2948L49.1322 40.2898C49.132 40.9381 49.6575 41.4639 50.3059 41.4641Z"/></g><defs><radialGradient id="paint0_radial" cx="0" cy="0" r="1" gradientTransform="translate(48.002 47.9967) scale(48.0024 47.9927)" gradientUnits="userSpaceOnUse"><stop stop-color="#EBB162"/><stop offset="1" stop-color="#D7801E"/></radialGradient><linearGradient id="paint1_linear" x1="31.569" x2="45.968" y1="56.773" y2="56.778" gradientUnits="userSpaceOnUse"><stop stop-color="#E28E22"/><stop offset="1" stop-color="#E9A54C"/></linearGradient><linearGradient id="paint2_linear" x1="2581.44" x2="3014.35" y1="478.948" y2="479.099" gradientUnits="userSpaceOnUse"><stop stop-color="#E28E22"/><stop offset="1" stop-color="#E9A54C"/></linearGradient><linearGradient id="paint3_linear" x1="2581.55" x2="3014.39" y1="392.185" y2="392.336" gradientUnits="userSpaceOnUse"><stop stop-color="#E28E22"/><stop offset="1" stop-color="#E9A54C"/></linearGradient><linearGradient id="paint4_linear" x1="3089.51" x2="3522.42" y1="566.278" y2="566.429" gradientUnits="userSpaceOnUse"><stop stop-color="#E28E22"/><stop offset="1" stop-color="#E9A54C"/></linearGradient><linearGradient id="paint5_linear" x1="3089.62" x2="3522.45" y1="479.172" y2="479.323" gradientUnits="userSpaceOnUse"><stop stop-color="#E28E22"/><stop offset="1" stop-color="#E9A54C"/></linearGradient><linearGradient id="paint6_linear" x1="3089.72" x2="3522.56" y1="392.452" y2="392.603" gradientUnits="userSpaceOnUse"><stop stop-color="#E28E22"/><stop offset="1" stop-color="#E9A54C"/></linearGradient><clipPath id="clip0"><rect width="96" height="96" fill="#fff"/></clipPath></defs></svg>