<svg width="96" height="96" viewBox="0 0 96 96" fill="none" xmlns="http://www.w3.org/2000/svg">
    <circle cx="48" cy="48" r="48" fill="white" />
    <path
        d="M61.5765 56.8884C58.2012 49.9699 53.0848 46.5946 50.7634 45.8462C49.8012 45.5408 48.7626 45.5408 47.8005 45.892C45.3415 46.7779 39.8434 49.4659 35.8877 56.8884C30.7714 66.4949 34.3452 72.3597 45.0972 68.0375C47.4339 67.0906 50.0303 67.0906 52.3823 68.0375C63.119 72.3597 66.3568 66.6629 61.5765 56.8884Z"
        fill="url(#paint0_linear_1483_zoo)" />
    <path
        d="M29.2903 51.4366C29.0154 51.4366 28.7558 51.3908 28.4961 51.2686C27.7325 50.9479 27.2285 50.1842 27.2438 49.3595L27.3507 41.3413L24.3114 44.3806C23.5172 45.1748 22.2191 45.1748 21.4096 44.3806C20.6154 43.5864 20.6154 42.2882 21.4096 41.4788L28.0227 34.8657C28.6183 34.2701 29.5041 34.1021 30.2678 34.4228C31.0314 34.7435 31.5354 35.5071 31.5201 36.3319L31.4132 44.3501L34.4525 41.3108C35.2467 40.5166 36.5601 40.5166 37.3543 41.3108C38.1485 42.105 38.1485 43.4032 37.3543 44.2126L30.7412 50.8257C30.3441 51.2228 29.8249 51.4366 29.2903 51.4366Z"
        fill="url(#paint1_linear_1483_zoo)" />
    <path
        d="M48.7782 40.1956C45.0059 40.1956 41.936 37.1258 41.936 33.3534C41.936 29.581 45.0059 26.5112 48.7782 26.5112C52.5506 26.5112 55.6204 29.581 55.6204 33.3534C55.6204 37.1258 52.5506 40.1956 48.7782 40.1956ZM48.7782 30.6349C47.2662 30.6349 46.0444 31.8567 46.0444 33.3687C46.0444 34.8807 47.2662 36.1025 48.7782 36.1025C50.2902 36.1025 51.512 34.8807 51.512 33.3687C51.512 31.8567 50.2749 30.6349 48.7782 30.6349Z"
        fill="url(#paint2_linear_1483_zoo)" />
    <path
        d="M68.5263 49.6951C64.7539 49.6951 61.6841 46.6253 61.6841 42.8529C61.6841 39.0806 64.7539 36.0107 68.5263 36.0107C72.2986 36.0107 75.3684 39.0806 75.3684 42.8529C75.3684 46.6253 72.2833 49.6951 68.5263 49.6951ZM68.5263 40.1191C67.0143 40.1191 65.7924 41.3409 65.7924 42.8529C65.7924 44.3649 67.0143 45.5867 68.5263 45.5867C70.0383 45.5867 71.2601 44.3649 71.2601 42.8529C71.2601 41.3409 70.023 40.1191 68.5263 40.1191Z"
        fill="url(#paint3_linear_1483_zoo)" />
    <path
        d="M48.076 89.9391C36.8811 89.9391 26.3429 85.5711 18.4316 77.6598C10.5203 69.7332 6.15234 59.2103 6.15234 48.0154C6.15234 36.8205 10.5203 26.2823 18.4316 18.3711C26.3429 10.4598 36.8811 6.0918 48.076 6.0918C59.2709 6.0918 69.8091 10.4445 77.7204 18.3711C85.6316 26.2823 89.9996 36.8205 89.9996 48.0154C89.9996 59.2103 85.6316 69.7485 77.7204 77.6598C69.8091 85.5711 59.2709 89.9391 48.076 89.9391ZM48.076 9.58925C26.8927 9.58925 9.6498 26.8322 9.6498 48.0154C9.6498 69.1987 26.8927 86.4416 48.076 86.4416C69.2593 86.4416 86.5022 69.1987 86.5022 48.0154C86.5022 26.8322 69.2593 9.58925 48.076 9.58925Z"
        fill="url(#paint4_linear_1483_zoo)" />
    <defs>
        <linearGradient id="paint0_linear_1483_zoo" x1="33.596" y1="57.5548" x2="63.7318" y2="57.5548"
            gradientUnits="userSpaceOnUse">
            <stop stop-color="#7B57FF" />
            <stop offset="1" stop-color="#38D6FF" />
        </linearGradient>
        <linearGradient id="paint1_linear_1483_zoo" x1="20.7954" y1="42.8533" x2="37.9524" y2="42.8533"
            gradientUnits="userSpaceOnUse">
            <stop stop-color="#7B57FF" />
            <stop offset="1" stop-color="#38D6FF" />
        </linearGradient>
        <linearGradient id="paint2_linear_1483_zoo" x1="41.9354" y1="33.3643" x2="55.6108" y2="33.3643"
            gradientUnits="userSpaceOnUse">
            <stop stop-color="#7B57FF" />
            <stop offset="1" stop-color="#38D6FF" />
        </linearGradient>
        <linearGradient id="paint3_linear_1483_zoo" x1="61.681" y1="42.8541" x2="75.3565" y2="42.8541"
            gradientUnits="userSpaceOnUse">
            <stop stop-color="#7B57FF" />
            <stop offset="1" stop-color="#38D6FF" />
        </linearGradient>
        <linearGradient id="paint4_linear_1483_zoo" x1="61.6809" y1="42.8545" x2="75.3564" y2="42.8545"
            gradientUnits="userSpaceOnUse">
            <stop stop-color="#7B57FF" />
            <stop offset="1" stop-color="#38D6FF" />
        </linearGradient>
    </defs>
</svg>