<svg width="97" height="96" viewBox="0 0 97 96" fill="none" xmlns="http://www.w3.org/2000/svg">
<circle cx="48.3691" cy="48" r="48" fill="white"/>
<circle cx="48.3691" cy="48" r="48" fill="white"/>
<path fill-rule="evenodd" clip-rule="evenodd" d="M48.1847 92.0211C72.5988 92.0211 92.3904 72.2295 92.3904 47.8154C92.3904 23.4012 72.5988 3.60966 48.1847 3.60966C23.7705 3.60966 3.97892 23.4012 3.97892 47.8154C3.97892 72.2295 23.7705 92.0211 48.1847 92.0211ZM48.1847 94.1539C73.7767 94.1539 94.5231 73.4074 94.5231 47.8154C94.5231 22.2234 73.7767 1.47693 48.1847 1.47693C22.5926 1.47693 1.84619 22.2234 1.84619 47.8154C1.84619 73.4074 22.5926 94.1539 48.1847 94.1539Z" fill="#262F61"/>
<path d="M72.7385 23.1319C72.7385 20.5757 71.0208 19.7836 68.5517 19.1536C64.9553 18.1995 57.5301 16.6154 48.3692 16.6154C39.2084 16.6154 31.7831 18.1995 28.1868 19.1536C25.7177 19.8016 24 20.5757 24 23.1499L24 59.0087V59.0267V59.0447C24.0358 62.0329 25.4314 64.8591 27.7574 66.6232L46.9021 81.2224L48.3692 82.3385L49.8364 81.2224L68.9811 66.6232C71.325 64.8411 72.7385 61.9969 72.7385 59.0267V23.1319Z" fill="white"/>
<path d="M48.3692 16.6154C39.1905 16.6154 31.7831 18.1999 28.1868 19.1543C25.7177 19.8025 24 20.5768 24 23.1337L24 59.0023V59.0203V59.0383C24.0358 62.0273 25.4314 64.8543 27.7574 66.6189L46.9021 81.2221L48.3692 82.3385L49.8364 81.2221L68.9811 66.6189C71.325 64.8363 72.7385 61.9913 72.7385 59.0203V23.1337C72.7385 20.5768 71.0208 19.7845 68.5517 19.1543C64.9553 18.1999 57.548 16.6154 48.3692 16.6154ZM47.8504 18.47L48.4229 20.2707H50.3016L48.7808 21.3871L49.3533 23.1877L47.8325 22.0713L46.3116 23.1877L46.8842 21.3871L45.3633 20.2707H47.242L47.8504 18.47ZM27.5427 21.099L28.1152 22.8996H29.9939L28.4731 24.016L29.0456 25.8166L27.5248 24.7002L26.0039 25.8166L26.5765 24.016L25.0556 22.8996H26.9343L27.5427 21.099ZM67.7107 21.099L68.2833 22.8996H70.162L68.6411 24.016L69.2137 25.8166L67.6929 24.7002L66.172 25.8166L66.7446 24.016L65.2237 22.8996H67.1024L67.7107 21.099ZM58.8541 24.106C59.033 24.124 59.2119 24.16 59.373 24.178C59.8918 24.2501 60.3928 24.3221 60.8759 24.4121C61.359 24.4841 61.8421 24.5742 62.2894 24.6642L49.4964 34.4416V27.7433C51.5183 28.9497 52.8781 28.8237 53.7548 28.2655C54.2558 27.9414 54.5957 27.4732 54.8104 27.041C57.0112 27.6893 59.4266 26.3208 58.8541 24.106ZM35.3974 24.4841C35.4153 24.6642 35.451 24.8443 35.5047 25.0243V25.0423V25.0604C36.0594 26.771 38.3317 27.6533 40.443 27.041C40.8366 27.8333 41.767 28.5356 43.0731 28.7156C43.9498 28.8417 45.0055 28.7156 46.1685 28.2475V36.9985L38.1528 43.1207C38.1707 42.9226 38.1885 42.7246 38.1885 42.4905V42.4184V42.2924V42.2384C39.0653 41.6982 39.8346 40.6358 40.2283 39.2853C40.4072 38.6911 40.4788 38.0969 40.4609 37.5387C40.2998 37.6108 40.1209 37.6648 39.9599 37.6828C39.5305 37.7728 39.1726 37.7368 39.1726 37.7368C39.8704 37.6828 40.3893 37.4127 40.7114 37.1606C40.8008 37.0706 40.9082 36.9805 41.0334 36.8545C41.7312 36.1342 42.1785 35.324 42.4469 34.3516L43.7709 29.706C43.091 29.634 42.4111 29.9761 42.0533 30.5523L41.4092 31.5606L40.7829 32.551C40.6398 32.7851 40.3893 33.0011 40.103 33.1632C39.6736 32.8211 39.3158 32.551 39.0474 32.3349C39.0116 32.2989 38.9758 32.2629 38.9221 32.2449L38.5106 30.4983L39.1189 29.4179C39.2979 29.1118 39.3515 28.7516 39.2979 28.3915C39.2621 28.1754 39.1726 27.9774 39.0653 27.7793C38.9579 27.6353 38.7611 27.5992 38.618 27.6893L37.0971 28.6616C37.0613 28.6256 37.0077 28.5896 36.9719 28.5536C36.8824 28.4996 36.7751 28.4816 36.6677 28.4996C36.5067 28.5176 36.3456 28.6256 36.1488 28.7697L35.7552 29.0578L35.1827 29.4899L34.7353 29.4719L34.4312 29.4539C34.127 29.4539 34.0197 29.9941 34.288 30.3902C34.5206 30.7143 34.6996 31.1465 34.8248 31.6687V31.6867C34.8248 31.7227 34.8427 31.7587 34.8427 31.7947C34.8427 31.8307 34.8606 31.8487 34.8606 31.8847C34.9501 32.3709 35.0037 32.9111 35.0037 33.5413C35.0037 34.9098 34.2701 37.8448 33.3219 39.7535C33.2682 39.8435 33.2324 39.9156 33.1787 40.0056L32.463 41.194C32.3557 41.3741 32.3736 41.6262 32.5167 41.8242C32.6062 41.9683 32.7672 42.0583 32.964 42.0583C32.964 42.0583 33.5366 42.7786 33.7155 44.1651C33.805 44.7953 33.805 45.5696 33.626 46.4699L32.2841 47.4962L30.8527 48.5946L30.8527 25.3485C31.5326 25.1864 32.3199 25.0063 33.1787 24.8443C33.9123 24.7542 34.628 24.6282 35.3974 24.4841ZM69.7684 28.3015L69.16 28.7697L67.8539 29.778L69.7684 28.3015ZM65.0627 31.9208V67.0331L58.3889 72.1289L58.3889 37.0706L65.0627 31.9208ZM54.7747 32.8211L55.3472 34.6217L57.2259 34.6217L55.7051 35.7381L56.2776 37.5387L54.7568 36.4223L53.2359 37.5387L53.8085 35.7381L52.2876 34.6217H54.1663L54.7747 32.8211ZM27.5427 36.4043L28.1152 38.205H29.9939L28.4731 39.3214L29.0456 41.122L27.5248 40.0056L26.0039 41.122L26.5765 39.3214L25.0556 38.205H26.9343L27.5427 36.4043ZM51.7151 42.2204L51.7151 77.2247L48.3871 79.7636L45.0413 77.2067L45.0413 47.3522L38.3675 52.502V72.1109L42.7153 75.424L28.9025 64.8903L31.6937 67.0151V57.6338L38.3675 52.484L45.0413 47.3342L51.7151 42.2204ZM41.6596 42.3644L42.2501 44.1651H44.1288L42.6079 45.2815L43.1805 47.0821L41.6596 45.9657L40.1388 47.0821L40.7292 45.2815L39.2084 44.1651H41.0871L41.6596 42.3644ZM27.5427 52.574L28.1152 54.3746H29.9939L28.4731 55.491L29.0456 57.2917L27.5248 56.1753L26.0039 57.2917L26.5765 55.491L25.0556 54.3746H26.9343L27.5427 52.574ZM31.1927 58.0119L29.1709 59.5785L26.8449 61.3611L29.1709 59.5785L31.1927 58.0119ZM26.5228 61.6132C26.8449 62.5315 27.328 63.3598 27.9721 64.0801C27.328 63.3598 26.8449 62.5135 26.5228 61.6132ZM69.2316 63.5219C69.2137 63.5579 69.1779 63.5939 69.16 63.6119C69.1421 63.6479 69.1063 63.6839 69.0884 63.7019C69.1063 63.6659 69.1421 63.6299 69.16 63.5939C69.1958 63.5759 69.2137 63.5579 69.2316 63.5219ZM68.5696 64.2961C68.3549 64.5122 68.1223 64.7103 67.8897 64.8903L65.349 66.817L67.8897 64.8723C68.1223 64.7103 68.3549 64.4942 68.5696 64.2961Z" fill="#262F61"/>
<path d="M70.8923 55.2852V27.6923L69.3535 28.8592L65.2081 32.0009V67.0082L68.0502 64.8718C68.5389 64.4948 68.9734 64.0819 69.3535 63.5972C70.3311 62.3585 70.8923 60.8146 70.8923 59.2168V55.2852ZM58.4559 37.1353L51.7036 42.2697L51.7036 77.1693L58.4559 72.0887L58.4559 37.1353ZM38.1811 52.5205L38.1811 72.0708L44.9333 77.1513L44.9333 47.3861L38.1811 52.5205ZM31.4288 57.6549L28.8945 59.5759L26.2153 61.6045C26.6679 62.8971 27.4825 64.046 28.5868 64.8718L31.4107 66.9902L31.4107 57.6549H31.4288Z" fill="#CE3524"/>
</svg>
