<svg width="96" height="96" viewBox="0 0 96 96" fill="none" xmlns="http://www.w3.org/2000/svg">
<circle cx="48" cy="48" r="48" fill="#1D1D1D"/>
<path d="M32.3839 79.4C38.3137 79.4 43.1208 74.8333 43.1208 69.2C43.1208 63.5667 38.3137 59 32.3839 59C26.4541 59 21.647 63.5667 21.647 69.2C21.647 74.8333 26.4541 79.4 32.3839 79.4Z" fill="white"/>
<path d="M28.0098 59.8009L66.7819 39.6009C70.3609 37.8009 74.5364 39.2009 76.3259 42.6009C76.9224 43.6009 77.1212 44.8009 77.1212 45.8009V72.8009C77.1212 76.8009 73.9399 80.0009 69.9633 80.0009C69.9633 80.0009 69.9633 80.0009 69.7644 80.0009L32.3841 79.401L28.0098 59.8009Z" fill="white"/>
<path d="M61.4133 34.6002C66.6843 34.6002 70.9572 30.5707 70.9572 25.6002C70.9572 20.6296 66.6843 16.6002 61.4133 16.6002C56.1423 16.6002 51.8694 20.6296 51.8694 25.6002C51.8694 30.5707 56.1423 34.6002 61.4133 34.6002Z" fill="white"/>
<path d="M65.1911 34L30.7932 51.8C27.8108 53.4 23.8341 52.2 22.2435 49C21.8458 48.2 21.647 47.2 21.647 46.2V22.4C21.647 18.8 24.4306 16 28.0096 16C28.0096 16 28.0096 16 28.2084 16L61.4133 16.6L65.1911 34Z" fill="white"/>
<path d="M62.6063 68C65.3516 68 67.5771 65.7614 67.5771 63C67.5771 60.2386 65.3516 58 62.6063 58C59.861 58 57.6355 60.2386 57.6355 63C57.6355 65.7614 59.861 68 62.6063 68Z" fill="#2CF48B"/>
</svg>
