<svg width="96" height="96" viewBox="0 0 96 96" fill="none" xmlns="http://www.w3.org/2000/svg">
<g clip-path="url(#clip0)">
<path d="M48 96C74.5097 96 96 74.5097 96 48C96 21.4903 74.5097 0 48 0C21.4903 0 0 21.4903 0 48C0 74.5097 21.4903 96 48 96Z" fill="url(#paint0_linear)"/>
<path fill-rule="evenodd" clip-rule="evenodd" d="M19.8077 36.0505H1.49882C-0.567003 44.0708 -0.526497 52.4961 1.62034 60.5164H19.7672C22.2381 60.5164 24.2634 58.491 24.2634 56.0202V40.5467C24.3039 38.0759 22.2786 36.0505 19.8077 36.0505ZM17.4178 44.8404H13.2457V52.01C13.2457 53.0227 14.0558 54.5214 15.8786 53.3873C16.0406 53.3062 16.3646 53.0227 16.3646 53.0227C16.3646 53.0227 16.6077 53.3062 16.6887 53.4278L16.9722 53.7923C16.9722 53.7923 15.9596 55.4126 13.3267 55.4126C11.3014 55.4126 9.76211 53.7923 9.76211 51.3214V44.8809H9.23553C7.41274 44.8809 6.11654 46.3391 6.11654 46.3391L5.2254 45.61C5.54945 44.9214 5.99502 44.3948 6.4811 43.9088C7.29122 43.0581 8.91148 42.4505 10.4912 42.4505H17.4178V44.8404Z" fill="black"/>
<path d="M63.7974 46.8254C65.1341 44.8811 65.9443 42.4913 65.9443 39.9394C65.9443 33.7014 61.286 28.6381 55.5746 28.6381H53.9139V19.0381H49.0936V28.5976H44.2329V19.0381H39.4531V28.5976H29.4886C29.0025 28.5976 28.5974 29.0026 28.5974 29.4887V32.6077C28.5974 33.0938 28.962 33.4988 29.4075 33.4988C32.8506 33.7824 34.6329 36.0913 34.6329 38.8457V57.4786C34.6329 60.0305 33.3772 62.0153 30.5012 62.2178C30.1367 62.2988 29.7316 62.5014 29.6911 62.9875L29.0835 66.0254C29.0025 66.552 29.367 67.0786 29.9746 67.0786H39.4126V76.6381H44.1518V67.2406H49.0126V76.8001H53.7518V67.2406H57.8025C63.5139 67.2406 68.1721 62.2988 68.1721 56.1014C68.3341 52.2533 66.4708 48.8507 63.7974 46.8254ZM40.5063 34.4305H54.1974C57.3164 34.4305 59.7873 36.9824 59.7873 40.0204C59.7873 43.1394 57.2354 45.6102 54.1974 45.6102H40.5063V34.4305ZM56.9113 61.8533H40.5468V50.714H56.9113C60.0303 50.714 62.5012 53.2659 62.5012 56.3039C62.5012 59.3419 59.9493 61.8533 56.9113 61.8533Z" fill="black"/>
</g>
<defs>
<linearGradient id="paint0_linear" x1="14.0595" y1="14.0586" x2="81.9411" y2="81.9402" gradientUnits="userSpaceOnUse">
<stop stop-color="#6ECBF3"/>
<stop offset="0.5266" stop-color="#FFB8DD"/>
<stop offset="1" stop-color="#84EDB3"/>
</linearGradient>
<clipPath id="clip0">
<rect width="96" height="96" fill="white"/>
</clipPath>
</defs>
</svg>
