<svg xmlns="http://www.w3.org/2000/svg" width="96" height="96" fill="none" viewBox="0 0 96 96"><circle cx="48" cy="48" r="48" fill="#34D399"/><path fill="#fff" d="M71.8827 48.1103C71.8509 46.8559 71.8161 45.6714 71.8161 44.4922V22.604H26.6841L35.4393 27.3629H67.077V44.4914C67.077 45.7374 67.1118 47.01 67.1458 48.2384C67.2713 52.9039 67.4003 57.728 65.6686 61.7639C62.6719 68.7449 55.845 73.2578 48.2853 73.2578C39.076 73.2578 31.3855 67.3184 29.148 58.4779C28.4816 55.838 28.5694 53.1125 28.6644 50.2223C28.6962 49.2031 28.7279 48.1505 28.7279 47.0934V35.7421L23.9888 33.2258V47.0949C23.9888 48.0746 23.954 49.0893 23.9253 50.0692C23.8248 53.1596 23.7237 56.3567 24.5548 59.6504C27.331 70.6346 36.8725 78.0167 48.2845 78.0167C57.7415 78.0167 66.2739 72.376 70.0194 63.6471C72.169 58.6502 72.0232 53.2915 71.8827 48.1103Z"/><path fill="#fff" d="M33.8904 54.7592C33.8904 54.8501 33.8956 54.9389 33.9062 55.0299C34.411 59.5233 38.0152 68.0306 48.0458 68.0306C58.2252 68.0306 61.1418 59.3921 61.2643 54.8236C61.2643 54.8024 61.2673 54.7819 61.2673 54.7592V33.8873C61.2673 32.5723 60.2049 31.5054 58.8947 31.5054H43.0604L51.8133 36.2655H56.5259V54.719C56.4829 55.6882 55.9251 63.271 48.0465 63.271C40.2102 63.271 38.8183 55.9369 38.6295 54.606V41.0024L33.9357 38.5074C33.9092 38.6515 33.8904 38.7986 33.8904 38.9517V54.7592Z"/></svg>