<svg width="96" height="96" viewBox="0 0 96 96" fill="none" xmlns="http://www.w3.org/2000/svg">
<path d="M48 96C74.5097 96 96 74.5097 96 48C96 21.4903 74.5097 0 48 0C21.4903 0 0 21.4903 0 48C0 74.5097 21.4903 96 48 96Z" fill="white"/>
<path fill-rule="evenodd" clip-rule="evenodd" d="M17.6673 43.4668C19.4919 42.7875 20.9321 41.35 21.6149 39.5264C20.5185 37.5154 20.8777 35.0224 22.4971 33.4028C24.1165 31.7831 26.6092 31.4239 28.6199 32.5204C29.527 32.1986 30.3477 31.6719 31.0182 30.9812C31.7077 30.3088 32.2342 29.4874 32.5571 28.58C31.372 26.4086 31.8939 23.7016 33.8013 22.1266C35.7087 20.5516 38.4652 20.5516 40.3726 22.1266C42.28 23.7016 42.8019 26.4086 41.6167 28.58C41.9394 29.4876 42.4659 30.309 43.1557 30.9812C43.8271 31.672 44.6486 32.1987 45.5566 32.5204C46.0183 32.5384 49.0937 32.7128 51.0918 35.2987C52.0144 36.5181 52.5287 37.9976 52.5616 39.5264C53.2428 41.3518 54.6848 42.7902 56.5117 43.4668C58.6827 42.2815 61.3894 42.8035 62.9641 44.7111C64.5389 46.6188 64.5389 49.3757 62.9641 51.2834C61.3894 53.1911 58.6827 53.7131 56.5117 52.5277C54.6885 53.2089 53.2503 54.6473 52.5693 56.4707C53.6656 58.4817 53.3064 60.9747 51.687 62.5944C50.0676 64.214 47.575 64.5732 45.5643 63.4768C43.7398 64.1558 42.3008 65.595 41.6219 67.4197C42.807 69.5911 42.2851 72.2982 40.3777 73.8732C38.4703 75.4482 35.7138 75.4482 33.8064 73.8732C31.899 72.2982 31.3771 69.5911 32.5623 67.4197C31.8813 65.5963 30.4431 64.1579 28.6199 63.4768C26.6097 64.5762 24.1155 64.2186 22.4952 62.5986C20.8748 60.9786 20.5163 58.4841 21.6149 56.4733C20.9307 54.6501 19.4911 53.2122 17.6673 52.5303C15.4963 53.7142 12.7906 53.1915 11.2166 51.284C9.64263 49.3766 9.64263 46.6206 11.2166 44.7131C12.7906 42.8057 15.4963 42.283 17.6673 43.4668ZM19.7193 45.5191C20.5605 47.0614 20.5605 48.9255 19.7193 50.4677C20.4022 52.2944 21.8431 53.7354 23.6694 54.4184C25.6801 53.3175 28.1759 53.675 29.7968 55.2962C31.4177 56.9173 31.7752 59.4135 30.6744 61.4245C31.3554 63.2479 32.7937 64.6863 34.6168 65.3674C36.1589 64.5261 38.0227 64.5261 39.5647 65.3674C41.3879 64.6863 42.8261 63.2479 43.5071 61.4245C42.4108 59.4134 42.77 56.9204 44.3894 55.3008C46.0088 53.6812 48.5014 53.3219 50.5121 54.4184C52.3353 53.7373 53.7735 52.2989 54.4545 50.4754C53.6157 48.9326 53.6157 47.0697 54.4545 45.5268C53.7756 43.7021 52.3366 42.2629 50.5121 41.5839C49.0599 41.3733 47.6887 40.7841 46.5364 39.8753C44.9176 38.5409 43.8406 36.6621 43.5071 34.5907C42.83 32.763 41.3908 31.3207 39.5647 30.64C38.0221 31.4789 36.1595 31.4789 34.6168 30.64C32.7924 31.319 31.3534 32.7582 30.6744 34.583C31.7664 36.5937 31.4052 39.0833 29.7869 40.7007C28.1686 42.318 25.679 42.6775 23.6694 41.5839C21.8449 42.2614 20.4039 43.697 19.7193 45.5191Z" fill="#217F52"/>
<path fill-rule="evenodd" clip-rule="evenodd" d="M45.4916 41.5787C43.6666 42.2578 42.2273 43.697 41.5481 45.5217C42.3872 47.0646 42.3872 48.9275 41.5481 50.4703C41.8699 51.3784 42.3966 52.2 43.0875 52.8715C43.8345 53.6516 44.7773 54.2169 45.8175 54.5082C46.7078 54.7237 46.074 55.973 45.5301 56.5118C44.9862 57.0505 43.7341 57.6893 43.5263 56.7991C43.2349 55.7591 42.6696 54.8164 41.8893 54.0695C41.2178 53.3787 40.396 52.852 39.4878 52.5303C37.3161 53.7142 34.6098 53.1915 33.0353 51.284C31.4609 49.3766 31.4609 46.6206 33.0353 44.7131C34.6098 42.8057 37.3161 42.283 39.4878 43.4668C41.3128 42.7878 42.7522 41.3486 43.4313 39.5239C42.3325 37.513 42.6911 35.0186 44.3119 33.3986C45.9327 31.7786 48.4276 31.421 50.4383 32.5204C51.3456 32.1968 52.1669 31.6703 52.8398 30.9812C53.5304 30.3094 54.0571 29.4878 54.3793 28.58C53.1938 26.4086 53.7158 23.7016 55.6237 22.1266C57.5317 20.5516 60.289 20.5516 62.1969 22.1266C64.1049 23.7016 64.6269 26.4086 63.4414 28.58C63.7628 29.4882 64.2896 30.31 64.9808 30.9812C65.6523 31.6708 66.473 32.1973 67.3798 32.5204C69.3905 31.421 71.8854 31.7786 73.5062 33.3986C75.127 35.0186 75.4856 37.513 74.3867 39.5239C75.0659 41.3486 76.5052 42.7878 78.3302 43.4668C80.5019 42.283 83.2083 42.8057 84.7827 44.7131C86.3572 46.6206 86.3572 49.3766 84.7827 51.284C83.2083 53.1915 80.5019 53.7142 78.3302 52.5303C76.5052 53.2094 75.0659 54.6485 74.3867 56.4733C75.4856 58.4841 75.127 60.9786 73.5062 62.5986C71.8854 64.2186 69.3905 64.5762 67.3798 63.4768C65.5574 64.1599 64.1195 65.5976 63.4362 67.4197C64.6217 69.5911 64.0997 72.2982 62.1918 73.8732C60.2838 75.4482 57.5265 75.4482 55.6186 73.8732C53.7107 72.2982 53.1886 69.5911 54.3741 67.4197C54.0513 66.513 53.5246 65.6924 52.8347 65.0211C52.0873 64.2415 51.1447 63.6763 50.1048 63.3844C49.2145 63.1663 49.8482 61.9196 50.3921 61.3808C50.9361 60.8421 52.1881 60.2033 52.396 61.091C52.6872 62.1318 53.2525 63.0753 54.0329 63.8231C54.7047 64.5135 55.5264 65.0402 56.4344 65.3623C57.9769 64.521 59.8412 64.521 61.3837 65.3623C63.2074 64.6812 64.646 63.2428 65.3272 61.4193C64.2305 59.4083 64.5898 56.9153 66.2097 55.2957C67.8295 53.676 70.3229 53.3168 72.3342 54.4133C74.1578 53.7322 75.5965 52.2937 76.2777 50.4703C75.4362 48.9281 75.4362 47.064 76.2777 45.5217C75.5965 43.6983 74.1578 42.2598 72.3342 41.5787C70.3229 42.6752 67.8295 42.316 66.2097 40.6964C64.5898 39.0767 64.2305 36.5837 65.3272 34.5727C64.646 32.7493 63.2074 31.3108 61.3837 30.6297C59.8412 31.4711 57.9769 31.4711 56.4344 30.6297C55.5264 30.9518 54.7047 31.4785 54.0329 32.1689C53.3436 32.8417 52.8171 33.663 52.4935 34.5701C53.593 36.5806 53.2354 39.0752 51.6152 40.6957C49.995 42.3163 47.5002 42.6749 45.4891 41.5762L45.4916 41.5787Z" fill="#2DB269"/>
<path d="M48.4361 64.0728C51.328 64.0728 53.6724 61.7284 53.6724 58.8365C53.6724 55.9445 51.328 53.6001 48.4361 53.6001C45.5441 53.6001 43.1997 55.9445 43.1997 58.8365C43.1997 61.7284 45.5441 64.0728 48.4361 64.0728Z" fill="#217F52"/>
</svg>
