<svg xmlns="http://www.w3.org/2000/svg" width="96" height="96" fill="none" viewBox="0 0 96 96"><circle cx="48.061" cy="48.061" r="44.6" fill="#fff"/><path fill="#000" d="M95.0255 38.3372C94.3944 35.2511 93.4518 32.2157 92.2243 29.3134C91.0208 26.467 89.5297 23.7217 87.7963 21.1549C86.0815 18.6147 84.1112 16.2263 81.9411 14.0589C79.771 11.8888 77.3826 9.91846 74.8451 8.20369C72.2782 6.47029 69.533 4.9792 66.6866 3.77567C63.7843 2.54818 60.7489 1.60558 57.6628 0.974531C54.5022 0.327502 51.2485 0 48 0C44.7489 0 41.4978 0.327502 38.3372 0.974531C35.2511 1.60558 32.2157 2.54818 29.3134 3.77567C26.467 4.9792 23.7218 6.47029 21.1549 8.20369C18.6147 9.91846 16.2263 11.8888 14.0589 14.0589C11.8888 16.229 9.91846 18.6174 8.20369 21.1549C6.47029 23.7217 4.9792 26.467 3.77567 29.3134C2.54818 32.2157 1.60559 35.2511 0.974535 38.3372C0.327506 41.4977 0 44.7515 0 48C0 51.2511 0.327506 54.5022 0.974535 57.6628C1.60559 60.7489 2.54818 63.7843 3.77567 66.6866C4.9792 69.533 6.47029 72.2782 8.20369 74.8451C9.91846 77.3852 11.8888 79.7737 14.0589 81.9411C16.229 84.1112 18.6174 86.0815 21.1549 87.7963C23.7218 89.5297 26.467 91.0208 29.3134 92.2243C32.2157 93.4518 35.2511 94.3944 38.3372 95.0255C41.4978 95.6725 44.7515 96 48 96C51.2511 96 54.5022 95.6725 57.6628 95.0255C60.7489 94.3944 63.7843 93.4518 66.6866 92.2243C69.533 91.0208 72.2782 89.5297 74.8451 87.7963C77.3852 86.0815 79.7737 84.1112 81.9411 81.9411C84.1112 79.771 86.0815 77.3826 87.7963 74.8451C89.5297 72.2782 91.0208 69.533 92.2243 66.6866C93.4518 63.7843 94.3944 60.7489 95.0255 57.6628C95.6725 54.5022 96 51.2485 96 48C96 44.7515 95.6725 41.5004 95.0255 38.3372ZM48 90.0037C24.8028 90.0037 5.999 71.1999 5.999 48.0027C5.999 24.8055 24.8028 6.00166 48 6.00166C71.1972 6.00166 90.001 24.8055 90.001 48.0027C90.001 71.1999 71.1972 90.0037 48 90.0037Z"/><path fill="#000" d="M48.7456 86.3958C48.8814 86.3931 49.0145 86.3904 49.1503 86.3851C49.2142 86.3825 49.2781 86.3824 49.342 86.3798C49.4805 86.3745 49.6189 86.3691 49.76 86.3638C49.8106 86.3611 49.8639 86.3585 49.9145 86.3558C50.1062 86.3452 50.2952 86.3372 50.487 86.3239C50.4976 86.3239 50.5109 86.3212 50.5216 86.3212C50.7 86.3106 50.8757 86.2972 51.0541 86.2839C51.1047 86.2786 51.1579 86.2759 51.2085 86.2706C51.3497 86.26 51.4908 86.2467 51.6346 86.2333C51.6878 86.228 51.7411 86.2227 51.7917 86.2174C51.9488 86.2014 52.1059 86.1854 52.263 86.1694C52.2922 86.1668 52.3242 86.1641 52.3535 86.1588C52.5479 86.1375 52.7422 86.1135 52.9366 86.0896C52.9419 86.0896 52.9473 86.0869 52.9526 86.0869C53.1363 86.0629 53.3174 86.039 53.4984 86.0123C53.5357 86.007 53.5757 86.0017 53.6129 85.9964C53.7674 85.9724 53.9218 85.9511 54.0789 85.9245C54.1162 85.9192 54.1535 85.9138 54.1881 85.9058C54.3718 85.8765 54.5555 85.8446 54.7392 85.8126C54.7392 85.8126 54.7392 85.8126 54.7419 85.8126C55.128 85.7434 55.5114 85.6689 55.8922 85.589C55.9188 85.5836 55.9481 85.5783 55.9747 85.5703C56.1398 85.5357 56.3076 85.4984 56.4726 85.4612C56.4966 85.4558 56.5179 85.4505 56.5419 85.4452C56.9253 85.3573 57.3061 85.2668 57.6842 85.1683C52.9659 85.3227 49.1237 84.6624 46.6847 84.1405C41.2555 82.9796 36.0739 80.8547 31.7018 77.1856C24.4087 71.0641 20.673 62.3039 20.7662 53.5996C20.8354 47.0841 23.0508 40.5978 27.5214 35.2724C33.121 28.6025 41.1223 25.1037 49.3047 24.9413C49.6828 24.9333 50.0583 24.9333 50.4364 24.9413V18.4124C50.0157 18.4071 49.595 18.4071 49.1743 18.4151C46.6847 18.4657 44.1951 18.7692 41.7774 19.323C39.3357 19.8822 36.9499 20.697 34.692 21.7461C32.3861 22.8165 30.1947 24.1398 28.1791 25.6735C26.1075 27.2498 24.2037 29.0684 22.5209 31.0761C20.9499 32.9479 19.5707 34.9849 18.4231 37.1257C17.3047 39.2159 16.3941 41.4286 15.7178 43.7025C15.0548 45.9338 14.6074 48.245 14.3918 50.5748C14.3252 51.2991 14.2799 52.026 14.256 52.7556C14.248 53.0351 14.2427 53.3147 14.24 53.5943C14.24 53.7354 14.2427 53.8765 14.2453 54.0177C14.2959 56.5073 14.5994 58.9969 15.1533 61.4146C15.7124 63.8562 16.5326 66.2393 17.5763 68.4999C18.8224 71.1946 21.0511 75.1832 24.3209 78.2293C24.3235 78.232 24.3262 78.2347 24.3289 78.2373C30.8524 83.3523 39.0721 86.4011 48.0027 86.4011C48.1944 86.4011 48.3834 86.3984 48.5752 86.3958C48.6311 86.3984 48.687 86.3958 48.7456 86.3958Z"/><path fill="#000" d="M59.4814 80.0532C57.1941 80.0132 54.4303 79.6671 52.2336 79.2677C42.0835 77.4225 33.3606 71.2504 30.1494 61.8751C26.2406 50.4709 32.2422 38.1773 43.5533 34.4176C45.7633 33.6827 48.0132 33.3286 50.2312 33.318C53.1575 33.3046 56.0305 33.8931 58.6852 35.0008L61.4358 29.1455C60.613 28.7967 59.7743 28.4852 58.9195 28.2109C56.0891 27.3083 53.1549 26.8583 50.202 26.8716C47.2304 26.8849 44.2908 27.3695 41.4604 28.3095C37.8418 29.513 34.5774 31.3955 31.7523 33.9037C30.3997 35.1073 29.1562 36.4519 28.0618 37.9004C26.9808 39.3303 26.0329 40.8746 25.2447 42.4882C24.4592 44.0991 23.8255 45.7926 23.3622 47.526C22.8936 49.2727 22.5954 51.0727 22.4729 52.8779C22.2199 56.6243 22.7152 60.3468 23.948 63.9387C25.1782 67.528 27.1618 70.8244 29.8458 73.732C32.2582 76.3468 35.0726 78.3304 38.4942 80.1278C42.0542 81.9969 46.4236 83.0034 50.9901 83.6345C53.935 84.0419 57.8678 84.1271 60.203 84.1164C62.2266 83.3682 63.0786 83.0514 64.1677 82.5854C65.1209 82.1487 66.0502 81.6748 66.9582 81.1635C67.8901 80.6097 68.0552 80.5245 69.6128 79.5047C69.7513 79.4062 69.8898 79.305 70.0256 79.2065C64.7188 80.157 63.3263 80.1198 59.4814 80.0532Z"/><path fill="#000" d="M71.6154 72.7201C70.095 72.8239 67.9382 72.9464 65.4673 72.9464C61.0925 72.9464 55.7245 72.5656 51.1234 71.0319C44.0514 68.6755 37.3228 62.5886 37.3228 55.1304C37.3228 47.6723 43.3671 41.6307 50.8226 41.6307C55.8896 41.6307 60.3017 44.4212 62.6129 48.551L68.4734 45.6593C67.5495 43.9392 66.3832 42.3656 64.9853 40.9704C63.1481 39.1331 61.0073 37.6899 58.6215 36.6808C56.1479 35.6344 53.5252 35.1045 50.8226 35.1045C48.1226 35.1045 45.4972 35.6344 43.0236 36.6808C40.6378 37.6899 38.4971 39.1331 36.6598 40.9704C34.8226 42.8076 33.3794 44.9484 32.3702 47.3341C31.3238 49.8078 30.7939 52.4305 30.7939 55.1331C30.7939 57.8517 31.3771 60.533 32.5247 63.0972C33.5365 65.3604 34.9743 67.4959 36.7983 69.4476C40.0228 72.9011 44.3762 75.665 49.0572 77.2253C53.5358 78.7191 60.1685 79.233 66.5616 78.7909C68.3403 78.6685 69.6876 78.4768 71.9509 78.0188C74.1316 76.2774 76.118 74.3017 77.8727 72.1316C76.3736 72.2914 73.5485 72.5869 71.6154 72.7201Z"/></svg>