<svg width="96" height="96" viewBox="0 0 96 96" fill="none" xmlns="http://www.w3.org/2000/svg">
<circle cx="48" cy="48" r="48" fill="#0033AD"/>
<path d="M47.2113 19.1767C48.5862 18.4503 50.2464 20.1106 49.5201 21.4854C49.105 22.6009 47.4966 22.9122 46.6665 22.0562C45.8105 21.252 46.0958 19.6177 47.2113 19.1767ZM32.4507 20.785C33.2808 20.4478 34.3444 21.2001 34.2666 22.108C34.3444 23.0938 33.1511 23.8202 32.2951 23.3532C31.1537 22.9122 31.2834 21.0704 32.4507 20.785ZM62.6722 23.3792C61.3752 23.2235 61.1677 21.1742 62.4128 20.7591C63.3986 20.2922 64.2806 21.1741 64.4103 22.108C64.2287 22.8863 63.5802 23.6126 62.6722 23.3792ZM35.7971 27.0628C37.198 26.1808 39.1695 27.5038 38.962 29.1122C38.8842 30.7465 36.731 31.7063 35.4859 30.5908C34.3185 29.7088 34.5001 27.7113 35.7971 27.0628ZM57.0949 27.9967C57.7175 26.3883 60.2338 26.3365 60.9342 27.8929C61.6346 29.1122 60.7785 30.6168 59.5334 31.0318C57.8731 31.3431 56.3167 29.5532 57.0949 27.9967ZM45.4213 30.928C45.3954 29.5532 46.6665 28.5155 47.9636 28.4377C48.8196 28.6193 49.7795 28.9825 50.1426 29.8645C50.8431 31.0837 50.2205 32.7439 48.9753 33.2887C48.4046 33.6 47.7301 33.4962 47.1075 33.4443C46.1477 32.9774 45.3435 32.0695 45.4213 30.928ZM23.4751 32.9515C24.7462 32.1732 26.4583 33.6 25.9914 34.9749C25.732 36.1682 24.1236 36.6611 23.1897 35.8828C22.2039 35.1824 22.3596 33.4444 23.4751 32.9515ZM70.6103 32.9515C71.6998 32.1214 73.4638 33.0812 73.3341 34.4301C73.4119 35.6753 71.8554 36.6092 70.7919 35.9606C69.6245 35.4418 69.5207 33.6259 70.6103 32.9515ZM51.5953 35.4159C53.3853 34.7674 55.4865 35.5456 56.4982 37.128C57.8472 39.0736 57.1208 42.0309 55.0455 43.1464C52.8924 44.4694 49.7535 43.3539 48.9493 40.9414C48.0673 38.7882 49.3903 36.0904 51.5953 35.4159ZM41.141 35.6234C43.1126 34.6895 45.7845 35.4678 46.7184 37.4912C47.8339 39.4627 46.9778 42.1865 44.9544 43.2242C42.9569 44.3656 40.1034 43.5095 39.1436 41.3824C38.08 39.333 39.0398 36.5832 41.141 35.6234ZM30.6608 39.2033C30.8164 37.9322 32.0097 37.1021 33.229 37.0242C34.526 37.1799 35.5896 38.1916 35.7193 39.5146C35.6415 40.8117 34.6298 42.1087 33.229 42.0828C31.7244 42.2384 30.3754 40.7079 30.6608 39.2033ZM61.6087 37.3096C63.1651 36.4016 65.3442 37.7247 65.2664 39.5146C65.3701 41.4083 62.9576 42.7573 61.4011 41.6418C59.7928 40.7079 59.9225 38.0878 61.6087 37.3096ZM36.8867 44.0284C38.7285 43.5355 40.8038 44.3915 41.7117 46.0777C42.6975 47.7639 42.2824 50.1246 40.7779 51.3697C38.8063 53.1856 35.2005 52.4593 34.1628 49.9689C32.9436 47.6601 34.3963 44.625 36.8867 44.0284ZM56.7317 44.0024C58.5217 43.4836 60.597 44.184 61.5568 45.7924C62.8279 47.6342 62.2053 50.4099 60.3375 51.6032C58.366 53.004 55.3049 52.2517 54.2154 50.0986C52.8924 47.8677 54.2154 44.7028 56.7317 44.0024ZM25.1094 46.1296C26.6918 45.533 28.4558 47.271 27.8073 48.8534C27.4181 50.2802 25.3947 50.799 24.3571 49.7614C23.1378 48.7497 23.6048 46.5447 25.1094 46.1296ZM67.9902 48.3865C67.9383 47.0635 68.8981 45.9221 70.2471 45.8442C71.3366 46.0258 72.3743 46.8819 72.2964 48.0752C72.4002 49.6317 70.5065 50.6953 69.1835 49.9689C68.5609 49.6576 68.2496 49.0091 67.9902 48.3865ZM17.327 46.8819C18.2868 46.4668 19.4542 47.297 19.2466 48.3605C19.1948 49.5538 17.4308 50.0208 16.7822 49.0091C16.2115 48.3087 16.5488 47.2451 17.327 46.8819ZM77.329 46.856C78.0035 46.389 79.0671 46.7263 79.3265 47.5045C79.7675 48.3605 78.9633 49.5279 77.9776 49.3982C76.6546 49.5279 76.2136 47.4526 77.329 46.856ZM42.049 52.6149C44.5653 51.9664 47.2372 54.0417 47.2632 56.6358C47.4188 59.2299 44.7728 61.5387 42.2046 60.942C40.2331 60.6307 38.6766 58.7111 38.7285 56.7136C38.7285 54.794 40.1812 53.004 42.049 52.6149ZM51.9585 52.6149C54.5008 51.9145 57.2765 54.0417 57.2246 56.6617C57.3543 59.2299 54.7861 61.4609 52.2698 60.942C49.9092 60.6307 48.1711 58.0366 48.8196 55.7538C49.1828 54.2233 50.4539 52.9781 51.9585 52.6149ZM32.8658 54.1973C34.6298 53.886 36.2641 55.8576 35.5637 57.5178C35.0449 59.3077 32.4507 59.7747 31.3093 58.322C29.9604 56.9471 30.9461 54.3789 32.8658 54.1973ZM61.92 54.2751C63.4764 53.6266 65.422 54.9756 65.2923 56.6877C65.3442 58.5555 62.9835 59.8525 61.453 58.763C59.715 57.7513 60.0262 54.8718 61.92 54.2751ZM70.0655 62.4207C69.4429 61.2793 70.5584 59.7487 71.8295 59.9822C72.4521 59.9822 72.8931 60.4751 73.3081 60.8902C73.386 61.5646 73.5416 62.3688 72.9709 62.8876C72.1927 63.8475 70.4806 63.588 70.0655 62.4207ZM23.4751 60.2935C24.6684 59.5153 26.3805 60.6826 26.0951 62.0575C25.9654 63.2767 24.409 63.9772 23.3972 63.3027C22.3077 62.6801 22.3337 60.8642 23.4751 60.2935ZM46.9259 62.8617C48.4824 62.1872 50.4539 63.5362 50.3242 65.2483C50.428 67.142 47.9895 68.4391 46.459 67.3236C44.7728 66.3378 45.0582 63.4583 46.9259 62.8617ZM36.0566 65.4039C37.3796 64.7035 39.1695 65.9228 39.0398 67.4014C39.0917 68.6206 37.8984 69.6583 36.6791 69.4767C35.6934 69.4508 35.0448 68.5688 34.7076 67.7127C34.7595 66.7788 35.1227 65.7412 36.0566 65.4039ZM58.0807 65.4299C59.4296 64.5997 61.3752 65.793 61.2455 67.3755C61.2714 69.0357 59.0924 70.0993 57.8212 69.0098C56.602 68.1537 56.7577 66.1043 58.0807 65.4299ZM61.92 74.8725C61.3233 73.9645 62.0237 72.8491 63.0095 72.6415C63.7877 72.7972 64.6438 73.3938 64.4622 74.3018C64.3325 75.5729 62.5166 75.9361 61.92 74.8725ZM31.5168 74.0942C31.7503 73.3679 32.347 72.6415 33.203 72.8231C34.4482 72.9009 34.8114 74.7947 33.7218 75.3654C32.7361 76.0398 31.6206 75.1319 31.5168 74.0942ZM46.1736 74.9244C46.4071 73.8608 47.8079 73.316 48.7159 73.8867C49.3125 74.1461 49.4941 74.8206 49.6498 75.3913C49.5719 75.7026 49.4941 75.9879 49.4163 76.2992C49.0531 76.7402 48.5602 77.1813 47.9376 77.1813C46.7962 77.311 45.7326 76.0139 46.1736 74.9244Z" fill="#FFFDFA"/>
</svg>
