<svg width="96" height="96" viewBox="0 0 96 96" fill="none" xmlns="http://www.w3.org/2000/svg">
<path d="M48 96C74.5097 96 96 74.5097 96 48C96 21.4903 74.5097 0 48 0C21.4903 0 0 21.4903 0 48C0 74.5097 21.4903 96 48 96Z" fill="#635DA8"/>
<path d="M47.9998 89.7965C71.0835 89.7965 89.7965 71.0835 89.7965 47.9998C89.7965 24.9161 71.0835 6.20312 47.9998 6.20312C24.9161 6.20312 6.20312 24.9161 6.20312 47.9998C6.20312 71.0835 24.9161 89.7965 47.9998 89.7965Z" fill="#9590C5"/>
<path d="M67.4705 68.3339L67.4753 68.3442C67.0507 68.5073 66.6275 68.6637 66.2055 68.8141C65.568 69.0468 64.9339 69.2644 64.3032 69.4683C65.3154 74.1948 67.7275 78.0464 69.6561 80.5203C70.155 81.1603 70.6464 81.7413 71.1109 82.26C70.8029 79.2789 70.3033 76.5607 69.7968 74.3209C71.1697 76.6008 72.3144 79.1374 72.7381 81.6891C73.7393 80.9524 74.7066 80.1723 75.6369 79.3513C73.979 74.2574 69.9919 69.5284 67.7607 67.1606C67.7443 67.8606 67.6608 68.2592 67.6608 68.2592C67.5974 68.2845 67.534 68.3089 67.4705 68.3339Z" fill="#E7E5EA"/>
<path d="M35.3009 70.6279C33.927 76.7627 30.6219 81.5814 27.9321 84.6701C33.8884 87.9377 40.7271 89.7965 48.0003 89.7965C55.1507 89.7965 61.8813 87.9999 67.7662 84.8344C65.0484 81.7498 61.6439 76.8605 60.2488 70.6055C50.1101 73.02 41.1907 71.9971 35.3009 70.6279Z" fill="#E7E5EA"/>
<path d="M24.4377 82.2667C24.904 81.7463 25.3973 81.163 25.8983 80.5204C27.8214 78.0536 30.2254 74.2168 31.2428 69.5089C30.7829 69.3606 30.3669 69.2184 29.9967 69.0864C29.3655 68.8694 28.845 68.6739 28.4446 68.5163L28.4542 68.4958C28.0954 68.3471 27.9081 68.2595 27.9081 68.2595C27.9081 68.2595 27.8592 68.0253 27.8289 67.6025C25.5477 70.0858 21.924 74.5568 20.3633 79.3516C21.2936 80.1726 22.2608 80.9527 23.2621 81.6894C23.6083 79.6042 24.4361 77.5294 25.4764 75.5963C25.0693 77.5654 24.6894 79.8281 24.4377 82.2667Z" fill="#E7E5EA"/>
<path d="M47.7874 66.6C38.6569 66.6 29.2227 65.0353 28.6598 62.4014C27.7866 64.7662 27.7608 66.6581 27.8286 67.6026C27.8589 68.0254 27.9078 68.2596 27.9078 68.2596C27.9078 68.2596 28.0951 68.3473 28.4539 68.4959C28.8068 68.6421 29.3263 68.8476 29.9964 69.0866C30.3664 69.2186 30.7826 69.3609 31.2424 69.5091C30.2252 74.217 27.8211 78.0538 25.898 80.5206C25.397 81.1632 24.9035 81.7466 24.4374 82.2669C24.4291 82.3468 24.4211 82.4268 24.4131 82.507C25.547 83.2839 26.7211 84.0063 27.9319 84.6705C30.6216 81.5818 33.9268 76.7631 35.3006 70.6283C41.1903 71.9974 50.1099 73.0203 60.2486 70.6057C61.6437 76.8608 65.0483 81.7502 67.7659 84.8346C68.9329 84.2069 70.0665 83.5254 71.1636 82.7933C71.1467 82.6148 71.1293 82.437 71.111 82.2604C70.6464 81.7417 70.1551 81.1606 69.6562 80.5207C67.7276 78.0468 65.3154 74.1952 64.3033 69.4687C64.9339 69.2648 65.5681 69.0472 66.2056 68.8145C66.6258 68.661 67.0477 68.5007 67.4706 68.3343C67.5341 68.3093 67.5975 68.2849 67.661 68.2596C67.661 68.2596 67.7445 67.8611 67.7609 67.161C67.7849 66.131 67.6627 64.4469 66.913 62.4119C66.3271 65.0395 56.9056 66.6 47.7874 66.6Z" fill="#635DA8"/>
<path d="M29.0425 62.1515C29.0425 64.102 36.5746 66.1903 47.7873 66.1903C59 66.1903 66.5323 64.102 66.5323 62.1515C66.5323 61.5482 65.8109 60.9317 64.4835 60.3679C59.8478 63.5088 54.1547 65.3609 48 65.3609C41.7744 65.3609 36.0213 63.4658 31.357 60.2588C29.8601 60.8517 29.0425 61.5091 29.0425 62.1515Z" fill="#635DA8"/>
<path d="M66.5322 62.1509C66.5322 64.1013 59 66.1897 47.7873 66.1897C36.5746 66.1897 29.0424 64.1013 29.0424 62.1509C29.0424 61.5083 29.8601 60.8509 31.3569 60.2581C31.2221 60.1655 31.0882 60.0719 30.9553 59.9771C29.4956 60.5929 28.6328 61.3222 28.6328 62.1509C28.6328 62.2352 28.6421 62.3184 28.6597 62.4006C29.2225 65.0345 38.6567 66.5992 47.7872 66.5992C56.9055 66.5992 66.3269 65.0387 66.9127 62.4112C66.9318 62.3256 66.9416 62.2388 66.9416 62.1509C66.9416 61.3736 66.1821 60.6838 64.8833 60.0929C64.7512 60.1858 64.6172 60.2765 64.4833 60.3673C65.8108 60.9311 66.5322 61.5476 66.5322 62.1509Z" fill="#9590C5"/>
<path d="M82.866 38.1135C82.866 37.5236 82.8066 36.9342 82.6894 36.3614C82.6609 36.2223 82.6289 36.0838 82.5936 35.9461C82.5934 35.9452 82.5931 35.9443 82.5929 35.9433C82.4864 35.5293 82.3491 35.1225 82.1828 34.7295C81.9649 34.2144 81.6952 33.7175 81.3812 33.2527C81.0701 32.7924 80.713 32.3595 80.3195 31.9661C79.9261 31.5727 79.4932 31.2154 79.0328 30.9044C78.5681 30.5904 78.0712 30.3207 77.5561 30.1028C77.0313 29.8808 76.4823 29.7104 75.9242 29.5962C75.3989 29.4888 74.8596 29.4304 74.3188 29.4214C75.526 32.3671 76.1893 35.566 76.1893 38.9106C76.1893 41.6491 75.7458 44.2903 74.9224 46.7746C75.2597 46.7457 75.5948 46.6981 75.9242 46.6307C76.4823 46.5165 77.0313 46.3461 77.5561 46.1241C78.0712 45.9062 78.5681 45.6366 79.0328 45.3225C79.4932 45.0115 79.9262 44.6544 80.3195 44.2609C80.713 43.8675 81.07 43.4346 81.3812 42.9742C81.6952 42.5095 81.9649 42.0126 82.1828 41.4974C82.3491 41.1042 82.4864 40.6974 82.593 40.2832C82.5932 40.2825 82.5934 40.2819 82.5935 40.2813C82.6289 40.1434 82.6609 40.0048 82.6894 39.8656C82.8065 39.2929 82.866 38.7033 82.866 38.1135ZM78.9056 41.9904C78.0251 41.9904 77.3114 41.2766 77.3114 40.3961C77.3114 39.5156 78.0251 38.8018 78.9056 38.8018C79.7861 38.8018 80.4999 39.5156 80.4999 40.3961C80.4999 41.2766 79.786 41.9904 78.9056 41.9904ZM78.9056 37.4251C78.0251 37.4251 77.3114 36.7113 77.3114 35.8308C77.3114 34.9503 78.0251 34.2366 78.9056 34.2366C79.7861 34.2366 80.4999 34.9503 80.4999 35.8308C80.4999 36.7113 79.786 37.4251 78.9056 37.4251Z" fill="#635DA8"/>
<path d="M75.9237 29.5963C76.4819 29.7106 77.0309 29.881 77.5556 30.1029C78.0708 30.3208 78.5677 30.5905 79.0324 30.9045C79.4928 31.2156 79.9258 31.5727 80.3191 31.9662C80.7126 32.3596 81.0696 32.7925 81.3808 33.2529C81.6948 33.7176 81.9645 34.2145 82.1824 34.7296C82.3486 35.1227 82.4859 35.5295 82.5925 35.9435C82.5796 35.8934 82.5677 35.8431 82.5539 35.7932C82.5431 35.7544 82.5322 35.7158 82.521 35.6772C82.4925 35.5794 82.4623 35.4823 82.4303 35.3856C82.4176 35.3468 82.4045 35.3081 82.3912 35.2696C82.3575 35.1723 82.3221 35.0757 82.285 34.9796C82.2714 34.9444 82.2575 34.9093 82.2434 34.8742C82.2239 34.8256 82.2063 34.7763 82.1859 34.7281C82.1649 34.6785 82.1412 34.63 82.1193 34.5807C82.1057 34.5502 82.0919 34.5198 82.078 34.4894C82.0343 34.3943 81.989 34.3001 81.9419 34.2066C81.9248 34.1727 81.9075 34.139 81.89 34.1054C81.843 34.015 81.7945 33.9256 81.7443 33.8369C81.7255 33.8037 81.7065 33.7705 81.6872 33.7375C81.6348 33.6476 81.5807 33.5588 81.5252 33.4709C81.5071 33.4423 81.4889 33.4139 81.4704 33.3854C81.4413 33.3407 81.4139 33.2948 81.384 33.2506C81.3535 33.2054 81.3205 33.1618 81.2891 33.1171C81.2715 33.0922 81.2538 33.0672 81.2359 33.0424C81.1735 32.9558 81.1097 32.8702 81.044 32.7857C81.023 32.7587 81.0018 32.7317 80.9805 32.7049C80.9155 32.6232 80.8491 32.5429 80.7812 32.4635C80.7585 32.4369 80.7357 32.4105 80.7126 32.3842C80.6429 32.3046 80.5718 32.2264 80.4993 32.1495C80.4774 32.1263 80.4554 32.1033 80.4332 32.0802C80.3959 32.0414 80.3599 32.0014 80.3219 31.9633C80.2837 31.9251 80.2435 31.889 80.2046 31.8515C80.182 31.8297 80.1594 31.8081 80.1365 31.7866C80.0589 31.7134 79.98 31.6417 79.8998 31.5713C79.8743 31.5491 79.8488 31.5269 79.8231 31.5049C79.7433 31.4366 79.6625 31.3699 79.5804 31.3046C79.5534 31.2831 79.5262 31.2618 79.499 31.2407C79.4156 31.176 79.3314 31.113 79.2458 31.0514C79.2188 31.0319 79.1916 31.0126 79.1643 30.9934C79.1209 30.9629 79.0786 30.9308 79.0346 30.9012C78.9915 30.8721 78.9469 30.8453 78.9033 30.817C78.873 30.7973 78.8425 30.7777 78.8119 30.7584C78.7248 30.7034 78.6369 30.6499 78.5478 30.598C78.5148 30.5787 78.4817 30.5597 78.4484 30.5409C78.3598 30.4908 78.2705 30.4422 78.1802 30.3952C78.1462 30.3776 78.1122 30.3601 78.078 30.3429C77.9853 30.2963 77.8921 30.2513 77.798 30.2081C77.766 30.1934 77.7338 30.1789 77.7016 30.1646C77.6533 30.143 77.6058 30.1198 77.5572 30.0993C77.5103 30.0795 77.4623 30.0623 77.4151 30.0433C77.3775 30.0281 77.3397 30.0134 77.3019 29.9988C77.2082 29.9626 77.114 29.928 77.0189 29.8952C76.978 29.8811 76.937 29.8671 76.8959 29.8536C76.8019 29.8226 76.7073 29.7932 76.6122 29.7654C76.5707 29.7533 76.5291 29.7415 76.4875 29.7301C76.3897 29.7031 76.2917 29.6779 76.1931 29.6544C76.1542 29.6451 76.1153 29.6362 76.0763 29.6274C76.0256 29.6161 75.9753 29.6029 75.9245 29.5924C75.3985 29.4848 74.8584 29.4264 74.3169 29.4175C74.3174 29.4187 74.3179 29.4201 74.3184 29.4213C74.8592 29.4305 75.3985 29.4888 75.9237 29.5963Z" fill="#A47C2C"/>
<path d="M81.381 42.9745C81.07 43.4348 80.7129 43.8678 80.3194 44.2612C79.926 44.6546 79.4931 45.0118 79.0327 45.3228C78.5679 45.6368 78.071 45.9065 77.5559 46.1244C77.0312 46.3464 76.4821 46.5168 75.924 46.631C75.5946 46.6984 75.2596 46.746 74.9222 46.7749C74.9218 46.7763 74.9214 46.7776 74.9209 46.7789C75.2589 46.75 75.5946 46.7023 75.9248 46.6348C75.975 46.6245 76.0247 46.6113 76.0747 46.6002C76.1149 46.5912 76.155 46.582 76.1951 46.5725C76.2925 46.5492 76.3893 46.5244 76.4859 46.4978C76.5287 46.486 76.5714 46.4739 76.6141 46.4614C76.7081 46.4339 76.8014 46.4049 76.8945 46.3743C76.9367 46.3604 76.9788 46.3462 77.0208 46.3316C77.1147 46.2991 77.2078 46.265 77.3004 46.2293C77.3394 46.2143 77.3782 46.1989 77.417 46.1834C77.4636 46.1646 77.5112 46.1477 77.5575 46.128C77.6055 46.1076 77.6526 46.0847 77.7003 46.0635C77.7336 46.0487 77.7668 46.0337 77.7999 46.0184C77.893 45.9756 77.9851 45.9313 78.0767 45.8852C78.1119 45.8674 78.147 45.8495 78.1819 45.8313C78.2712 45.7849 78.3595 45.7369 78.4472 45.6873C78.4814 45.6679 78.5155 45.6484 78.5495 45.6286C78.6375 45.5772 78.7246 45.5243 78.8107 45.4699C78.8422 45.45 78.8736 45.4299 78.9049 45.4095C78.9481 45.3815 78.9923 45.355 79.0349 45.3262C79.0783 45.2969 79.1202 45.2651 79.1631 45.235C79.1914 45.2151 79.2196 45.1951 79.2476 45.1749C79.3321 45.114 79.4155 45.0517 79.4979 44.9878C79.5261 44.9659 79.5541 44.9439 79.582 44.9216C79.6632 44.857 79.7433 44.791 79.8222 44.7234C79.8487 44.7007 79.8751 44.6779 79.9014 44.6549C79.9808 44.5853 80.0588 44.5143 80.1356 44.4419C80.1592 44.4197 80.1827 44.3973 80.206 44.3748C80.2445 44.3377 80.2844 44.3019 80.3222 44.264C80.36 44.2263 80.3957 44.1866 80.4327 44.1482C80.4555 44.1246 80.4781 44.1008 80.5007 44.0769C80.5726 44.0006 80.6431 43.9231 80.7122 43.8442C80.7358 43.8173 80.7592 43.7903 80.7825 43.763C80.8498 43.6843 80.9156 43.6045 80.98 43.5236C81.0019 43.4961 81.0235 43.4686 81.045 43.4408C81.1101 43.3569 81.1736 43.2721 81.2355 43.1861C81.2538 43.1606 81.272 43.1351 81.2899 43.1095C81.3211 43.0651 81.3539 43.0218 81.3842 42.9769C81.4139 42.9329 81.4411 42.8874 81.47 42.8429C81.4888 42.8139 81.5075 42.7849 81.5259 42.7556C81.5811 42.6682 81.6348 42.58 81.6869 42.4907C81.7065 42.4571 81.7259 42.4234 81.745 42.3896C81.7948 42.3015 81.8431 42.2126 81.8898 42.1229C81.9076 42.0887 81.9252 42.0544 81.9424 42.02C81.9893 41.927 82.0344 41.8333 82.0778 41.7389C82.092 41.708 82.1059 41.677 82.1197 41.646C82.1415 41.5971 82.1652 41.5487 82.1861 41.4993C82.2063 41.4514 82.2239 41.4023 82.2433 41.354C82.2576 41.3185 82.2716 41.2829 82.2854 41.2471C82.3223 41.1515 82.3575 41.0554 82.3911 40.9586C82.4047 40.9196 82.4178 40.8804 82.4308 40.8413C82.4626 40.745 82.4926 40.6483 82.521 40.551C82.5324 40.512 82.5435 40.4729 82.5542 40.4337C82.568 40.3839 82.58 40.3337 82.5927 40.2837C82.4862 40.6978 82.3489 41.1048 82.1825 41.4979C81.9647 42.0128 81.6949 42.5097 81.381 42.9745Z" fill="#A47C2C"/>
<path d="M82.693 36.3608C82.6823 36.3082 82.6685 36.2562 82.6567 36.2038C82.6487 36.1682 82.6406 36.1327 82.6321 36.0973C82.6201 36.0467 82.6063 35.9967 82.5934 35.9463C82.6287 36.084 82.6608 36.2225 82.6892 36.3616C82.8064 36.9343 82.8658 37.5239 82.8658 38.1137C82.8658 38.7035 82.8064 39.293 82.6892 39.8658C82.6607 40.005 82.6287 40.1436 82.5933 40.2815C82.6062 40.2312 82.62 40.1811 82.632 40.1305C82.6406 40.0947 82.6487 40.059 82.6568 40.0231C82.6685 39.9708 82.6823 39.919 82.6929 39.8665C82.8101 39.2934 82.8695 38.7037 82.8695 38.1136C82.8695 37.5235 82.8102 36.9338 82.693 36.3608Z" fill="#A47C2C"/>
<path d="M82.5933 40.2812C82.5931 40.2819 82.5929 40.2825 82.5928 40.2832C82.593 40.2826 82.5932 40.2819 82.5933 40.2812Z" fill="#A47C2C"/>
<path d="M82.5928 35.9434C82.593 35.9443 82.5932 35.9452 82.5934 35.9461C82.5932 35.9452 82.5931 35.9443 82.5928 35.9434Z" fill="#A47C2C"/>
<path d="M80.3807 41.0051C80.7177 40.1916 80.3314 39.259 79.5179 38.922C78.7044 38.5851 77.7718 38.9714 77.4348 39.7849C77.0979 40.5984 77.4842 41.531 78.2977 41.8679C79.1111 42.2049 80.0438 41.8186 80.3807 41.0051Z" fill="#E7E5EA"/>
<path d="M80.3807 36.4402C80.7177 35.6267 80.3314 34.6941 79.5179 34.3571C78.7044 34.0201 77.7718 34.4064 77.4348 35.2199C77.0979 36.0334 77.4842 36.966 78.2977 37.303C79.1111 37.64 80.0438 37.2537 80.3807 36.4402Z" fill="#E7E5EA"/>
<path d="M18.4442 30.1027C17.9291 30.3206 17.4322 30.5903 16.9675 30.9043C16.5071 31.2153 16.0742 31.5725 15.6808 31.966C15.2874 32.3595 14.9302 32.7922 14.6191 33.2527C14.3051 33.7174 14.0354 34.2143 13.8175 34.7294C13.5956 35.2541 13.4252 35.8032 13.3109 36.3613C13.1937 36.9341 13.1343 37.5236 13.1343 38.1134C13.1343 38.7032 13.1937 39.2928 13.3109 39.8655C13.4252 40.4237 13.5956 40.9728 13.8175 41.4974C14.0354 42.0126 14.3051 42.5095 14.6191 42.9742C14.9302 43.4345 15.2873 43.8675 15.6808 44.2609C16.0743 44.6543 16.507 45.0115 16.9675 45.3225C17.4322 45.6366 17.9291 45.9062 18.4442 46.1241C18.9689 46.3461 19.518 46.5165 20.0761 46.6307C20.4055 46.6981 20.7405 46.7457 21.0778 46.7746C20.2544 44.2904 19.8109 41.6491 19.8109 38.9106C19.8109 35.566 20.4742 32.3671 21.6813 29.4214C21.1406 29.4304 20.6013 29.4887 20.076 29.5962C19.518 29.7103 18.969 29.8807 18.4442 30.1027ZM17.0947 41.9903C16.2142 41.9903 15.5004 41.2765 15.5004 40.396C15.5004 39.5155 16.2142 38.8017 17.0947 38.8017C17.9752 38.8017 18.6889 39.5155 18.6889 40.396C18.6889 41.2765 17.9752 41.9903 17.0947 41.9903ZM17.0947 37.425C16.2142 37.425 15.5004 36.7112 15.5004 35.8307C15.5004 34.9502 16.2142 34.2365 17.0947 34.2365C17.9752 34.2365 18.6889 34.9502 18.6889 35.8307C18.6889 36.7112 17.9752 37.425 17.0947 37.425Z" fill="#635DA8"/>
<path d="M20.0764 46.6308C19.5182 46.5165 18.9691 46.3461 18.4445 46.1242C17.9293 45.9062 17.4324 45.6366 16.9677 45.3226C16.5074 45.0115 16.0744 44.6544 15.681 44.2609C15.2876 43.8674 14.9304 43.4346 14.6193 42.9742C14.3053 42.5095 14.0357 42.0126 13.8177 41.4974C13.5958 40.9728 13.4254 40.4237 13.3111 39.8655C13.1939 39.2928 13.1345 38.7033 13.1345 38.1134C13.1345 37.5236 13.1939 36.9341 13.3111 36.3614C13.4254 35.8032 13.5958 35.2541 13.8177 34.7294C14.0357 34.2143 14.3053 33.7174 14.6193 33.2527C14.9304 32.7924 15.2875 32.3594 15.681 31.966C16.0745 31.5726 16.5073 31.2154 16.9677 30.9043C17.4324 30.5903 17.9293 30.3206 18.4445 30.1027C18.9691 29.8808 19.5182 29.7104 20.0764 29.5961C20.6016 29.4887 21.1409 29.4303 21.6817 29.4213C21.6822 29.4201 21.6827 29.4187 21.6832 29.4175C21.1417 29.4264 20.6016 29.4848 20.0756 29.5924C20.025 29.6028 19.9751 29.6159 19.9247 29.6272C19.8851 29.6361 19.8456 29.6452 19.8061 29.6546C19.7082 29.6779 19.6109 29.703 19.5138 29.7297C19.4715 29.7414 19.4291 29.7533 19.387 29.7657C19.2926 29.7932 19.1988 29.8224 19.1055 29.8531C19.0636 29.867 19.0218 29.8811 18.9801 29.8955C18.8861 29.9281 18.7927 29.9623 18.6998 29.9981C18.661 30.0131 18.6224 30.0282 18.5839 30.0438C18.5371 30.0626 18.4895 30.0796 18.4431 30.0993C18.3949 30.1196 18.3478 30.1427 18.3 30.164C18.267 30.1787 18.2339 30.1935 18.201 30.2087C18.1078 30.2516 18.0153 30.2961 17.9236 30.3423C17.8885 30.36 17.8536 30.3779 17.8188 30.3959C17.7295 30.4425 17.641 30.4905 17.5534 30.5401C17.5191 30.5595 17.485 30.5791 17.4511 30.5989C17.3628 30.6503 17.2758 30.7033 17.1895 30.7578C17.1583 30.7775 17.1273 30.7974 17.0965 30.8174C17.0531 30.8456 17.0086 30.8722 16.9658 30.9012C16.9221 30.9307 16.8799 30.9626 16.8367 30.993C16.8089 31.0125 16.7813 31.0322 16.7537 31.052C16.6691 31.1128 16.5857 31.1752 16.5032 31.2393C16.4747 31.2614 16.4463 31.2837 16.418 31.3063C16.3375 31.3704 16.2582 31.4359 16.1798 31.5028C16.1525 31.5262 16.1252 31.5498 16.098 31.5736C16.0195 31.6425 15.9423 31.7127 15.8663 31.7843C15.8419 31.8072 15.8176 31.8303 15.7935 31.8536C15.7554 31.8903 15.7159 31.9259 15.6784 31.9633C15.641 32.0007 15.6055 32.0403 15.5687 32.0785C15.5455 32.1026 15.5224 32.1268 15.4995 32.1512C15.4279 32.2271 15.3578 32.3042 15.2889 32.3827C15.265 32.41 15.2412 32.4374 15.2176 32.4651C15.1509 32.5431 15.0856 32.6222 15.0217 32.7025C14.9989 32.731 14.9765 32.7597 14.9541 32.7885C14.8903 32.8707 14.8281 32.9539 14.7674 33.0382C14.7474 33.066 14.7276 33.0938 14.708 33.1217C14.6777 33.1648 14.6458 33.207 14.6164 33.2507C14.5875 33.2935 14.5609 33.3379 14.5327 33.3813C14.5125 33.4123 14.4926 33.4434 14.4728 33.4747C14.4185 33.5607 14.3656 33.6476 14.3143 33.7356C14.2943 33.7699 14.2745 33.8044 14.2549 33.839C14.2055 33.9264 14.1577 34.0144 14.1113 34.1035C14.0931 34.1386 14.0751 34.1737 14.0574 34.209C14.0113 34.3004 13.967 34.3925 13.9243 34.4853C13.9089 34.5187 13.8938 34.5522 13.8789 34.5858C13.8578 34.6334 13.8348 34.6803 13.8146 34.7281C13.795 34.7744 13.7781 34.8218 13.7593 34.8684C13.7436 34.9072 13.7283 34.9462 13.7132 34.9853C13.6775 35.0778 13.6434 35.1709 13.611 35.2646C13.5964 35.3067 13.5822 35.3489 13.5681 35.3913C13.5375 35.4842 13.5085 35.5775 13.4811 35.6714C13.4686 35.7141 13.4565 35.7568 13.4447 35.7998C13.4181 35.8963 13.3932 35.9931 13.37 36.0904C13.3605 36.1305 13.3512 36.1706 13.3423 36.2107C13.331 36.2608 13.318 36.3105 13.3076 36.3608C13.1904 36.9338 13.1309 37.5235 13.1309 38.1136C13.1309 38.7038 13.1904 39.2936 13.3076 39.8665C13.3179 39.9166 13.3309 39.9662 13.3421 40.0161C13.3511 40.0566 13.3604 40.0969 13.37 40.1373C13.3931 40.2343 13.4179 40.3308 13.4444 40.427C13.4563 40.4702 13.4685 40.5134 13.4811 40.5564C13.5084 40.6499 13.5372 40.7428 13.5678 40.8352C13.5819 40.8781 13.5963 40.9207 13.611 40.9632C13.6433 41.0565 13.6772 41.1491 13.7127 41.241C13.728 41.2807 13.7435 41.3201 13.7594 41.3595C13.778 41.4059 13.7949 41.453 13.8144 41.4991C13.8345 41.5467 13.8574 41.5934 13.8784 41.6407C13.8936 41.6748 13.9089 41.7087 13.9245 41.7426C13.967 41.835 14.0111 41.9266 14.0568 42.0175C14.0748 42.0533 14.0931 42.089 14.1116 42.1245C14.1577 42.213 14.2052 42.3006 14.2543 42.3875C14.2742 42.4226 14.2944 42.4576 14.3147 42.4926C14.3657 42.5799 14.4182 42.6662 14.4722 42.7518C14.4923 42.7837 14.5126 42.8153 14.5331 42.8469C14.5612 42.89 14.5876 42.9341 14.6163 42.9766C14.6455 43.0199 14.6772 43.0618 14.7073 43.1046C14.7273 43.1331 14.7475 43.1616 14.7679 43.1899C14.8282 43.2736 14.89 43.3562 14.9532 43.4378C14.9761 43.4673 14.9991 43.4966 15.0223 43.5257C15.0857 43.6054 15.1504 43.6838 15.2166 43.7612C15.2407 43.7894 15.265 43.8176 15.2895 43.8455C15.3578 43.9234 15.4273 43.9998 15.4982 44.0751C15.5217 44.1002 15.5455 44.1251 15.5694 44.1497C15.6058 44.1876 15.6411 44.2267 15.6782 44.2639C15.7153 44.3009 15.7544 44.3361 15.7922 44.3726C15.817 44.3966 15.8421 44.4204 15.8672 44.4441C15.9424 44.5149 16.0188 44.5843 16.0965 44.6525C16.1244 44.677 16.1526 44.7014 16.1808 44.7254C16.2583 44.7917 16.3367 44.8564 16.4164 44.9198C16.4455 44.9431 16.4748 44.9661 16.5043 44.989C16.5858 45.0522 16.6683 45.1139 16.7519 45.1741C16.7804 45.1946 16.809 45.215 16.8377 45.2351C16.8804 45.2652 16.9222 45.2967 16.9654 45.3259C17.0078 45.3546 17.0519 45.3809 17.0949 45.4089C17.1267 45.4295 17.1585 45.45 17.1906 45.4702C17.2759 45.5242 17.3622 45.5766 17.4494 45.6275C17.4844 45.6479 17.5194 45.668 17.5546 45.6879C17.6413 45.737 17.7288 45.7844 17.8171 45.8305C17.8529 45.8491 17.8888 45.8676 17.9249 45.8857C18.0156 45.9314 18.107 45.9754 18.1993 46.0178C18.2333 46.0334 18.2672 46.0488 18.3014 46.064C18.3487 46.085 18.3953 46.1078 18.4429 46.1279C18.4888 46.1473 18.5359 46.1641 18.582 46.1827C18.6217 46.1987 18.6614 46.2143 18.7013 46.2297C18.793 46.265 18.8853 46.2989 18.9783 46.331C19.0211 46.3459 19.064 46.3604 19.1071 46.3745C19.1994 46.4049 19.2919 46.4337 19.3852 46.4609C19.4286 46.4736 19.4719 46.4859 19.5154 46.4979C19.6113 46.5243 19.7075 46.549 19.8042 46.5721C19.8448 46.5818 19.8855 46.5912 19.9263 46.6002C19.9761 46.6114 20.0255 46.6244 20.0755 46.6346C20.4055 46.7021 20.7413 46.7498 21.0793 46.7787C21.0788 46.7774 21.0784 46.776 21.0779 46.7748C20.7408 46.7458 20.4057 46.6982 20.0764 46.6308Z" fill="#A47C2C"/>
<path d="M17.3511 41.9706C18.2202 41.8296 18.8105 41.0106 18.6694 40.1415C18.5284 39.2724 17.7094 38.6822 16.8403 38.8232C15.9712 38.9643 15.3809 39.7832 15.522 40.6523C15.6631 41.5215 16.482 42.1117 17.3511 41.9706Z" fill="#E7E5EA"/>
<path d="M17.3511 37.4047C18.2202 37.2637 18.8105 36.4447 18.6694 35.5756C18.5284 34.7065 17.7094 34.1162 16.8403 34.2573C15.9712 34.3983 15.3809 35.2173 15.522 36.0864C15.6631 36.9556 16.482 37.5458 17.3511 37.4047Z" fill="#E7E5EA"/>
<path d="M74.3185 29.4215C74.318 29.4203 74.3174 29.419 74.317 29.4177C70.2508 19.4999 60.0022 12.4609 48 12.4609C35.9978 12.4609 25.7492 19.4999 21.683 29.4177C21.6826 29.419 21.682 29.4203 21.6815 29.4215C20.4744 32.3672 19.811 35.5661 19.811 38.9108C19.811 41.6493 20.2546 44.2905 21.0779 46.7748C21.0784 46.7761 21.0788 46.7775 21.0793 46.7787C22.8413 52.0922 26.342 56.6859 30.9555 59.9774C31.0884 60.0722 31.2223 60.1658 31.3571 60.2585C36.0213 63.4654 41.7744 65.3606 48 65.3606C54.1548 65.3606 59.8478 63.5085 64.4835 60.3676C64.6174 60.2769 64.7513 60.1862 64.8834 60.0933C69.5771 56.7943 73.1381 52.1542 74.9207 46.7787C74.9212 46.7774 74.9216 46.776 74.922 46.7748C75.7454 44.2905 76.189 41.6493 76.189 38.9108C76.189 35.5661 75.5256 32.3673 74.3185 29.4215Z" fill="#635DA8"/>
<path d="M74.3185 29.4215C74.318 29.4203 74.3174 29.419 74.317 29.4177C70.2508 19.4999 60.0022 12.4609 48 12.4609C35.9978 12.4609 25.7492 19.4999 21.683 29.4177C21.6826 29.419 21.682 29.4203 21.6815 29.4215C20.4744 32.3672 19.811 35.5661 19.811 38.9108C19.811 41.6493 20.2546 44.2905 21.0779 46.7748C21.0784 46.7761 21.0788 46.7775 21.0793 46.7787C22.8413 52.0922 26.342 56.6859 30.9555 59.9774C31.0884 60.0722 31.2223 60.1658 31.3571 60.2585C36.0213 63.4654 41.7744 65.3606 48 65.3606C54.1548 65.3606 59.8478 63.5085 64.4835 60.3676C64.6174 60.2769 64.7513 60.1862 64.8834 60.0933C69.5771 56.7943 73.1381 52.1542 74.9207 46.7787C74.9212 46.7774 74.9216 46.776 74.922 46.7748C75.7454 44.2905 76.189 41.6493 76.189 38.9108C76.189 35.5661 75.5256 32.3673 74.3185 29.4215ZM48 58.3256C29.0558 58.3256 23.9415 49.2063 23.9415 37.9571C23.9415 26.7079 34.7129 17.5887 48 17.5887C61.2871 17.5887 72.0585 26.7079 72.0585 37.9572C72.0585 49.2065 66.9442 58.3256 48 58.3256Z" fill="#E7E5EA"/>
<path d="M71.1113 82.2599C71.1296 82.4365 71.147 82.6143 71.1639 82.7928C71.6976 82.4366 72.2226 82.0687 72.7386 81.689C72.315 79.1372 71.1703 76.6007 69.7974 74.3208C70.3038 76.5606 70.8034 79.2789 71.1113 82.2599Z" fill="#E7E5EA"/>
<path opacity="0.15" d="M71.1113 82.2599C71.1296 82.4365 71.147 82.6143 71.1639 82.7928C71.6976 82.4366 72.2226 82.0687 72.7386 81.689C72.315 79.1372 71.1703 76.6007 69.7974 74.3208C70.3038 76.5606 70.8034 79.2789 71.1113 82.2599Z" fill="#635DA8"/>
<path d="M25.4765 75.5962C24.4361 77.5293 23.6083 79.6042 23.2622 81.6893C23.6411 81.9681 24.025 82.2406 24.4135 82.5068C24.4215 82.4266 24.4296 82.3466 24.4378 82.2667C24.6894 79.8282 25.0693 77.5654 25.4765 75.5962Z" fill="#E7E5EA"/>
<path opacity="0.15" d="M25.4765 75.5962C24.4361 77.5293 23.6083 79.6042 23.2622 81.6893C23.6411 81.9681 24.025 82.2406 24.4135 82.5068C24.4215 82.4266 24.4296 82.3466 24.4378 82.2667C24.6894 79.8282 25.0693 77.5654 25.4765 75.5962Z" fill="#635DA8"/>
</svg>
