<svg width="96" height="96" xmlns="http://www.w3.org/2000/svg" viewBox="0 0 128 128"><defs><style>.cls-1{fill:#00b7c2;}.cls-2{fill:#fcf7f2;}</style></defs><g id="Layer_2" data-name="Layer 2"><g id="Layer_1-2" data-name="Layer 1"><circle class="cls-1" cx="64" cy="64" r="64"/><path class="cls-2" d="M37.27,29.16c-1.37.4-2.84.71-4.23,1.12a11.46,11.46,0,0,0-3.18,1.4l-.14.11h0c.27-1.43-1.08-6.49-1.39-7.88l-.14-.6L19,39a.48.48,0,0,0-.06.37,7.14,7.14,0,0,0,1.73,3.49h0a2.55,2.55,0,0,0-.9.89,2.52,2.52,0,1,0,4.34,2.56A2.45,2.45,0,0,0,24.43,45h0a7.15,7.15,0,0,0,3.89-.18.48.48,0,0,0,.29-.23L37.86,29ZM23.39,45.85a1.72,1.72,0,1,1-.61-2.35A1.71,1.71,0,0,1,23.39,45.85Z"/><path class="cls-2" d="M26.49,48c-1.17.8-2.48,1.55-3.66,2.38a11.41,11.41,0,0,0-2.59,2.32.6.6,0,0,0-.09.15h0c-.19-1.45-3-5.84-3.79-7.06l-.31-.52L12.17,63a.49.49,0,0,0,.06.37A7.1,7.1,0,0,0,15,66.11h0a2.52,2.52,0,1,0,4.35,2.21,2.47,2.47,0,0,0-.05-1.27h0a7.18,7.18,0,0,0,3.64-1.39.49.49,0,0,0,.21-.31L27,47.61Zm-8,20.19a1.72,1.72,0,1,1-1.31-2.05A1.73,1.73,0,0,1,18.52,68.15Z"/><path class="cls-2" d="M30.22,84.72a.52.52,0,0,0,0-.37L23.12,67.62l-.22.58c-.49,1.33-1.12,2.7-1.61,4.06a11.43,11.43,0,0,0-.77,3.39.47.47,0,0,0,0,.17h0c-1-1.08-5.87-3-7.17-3.58L12.8,72l7.09,16.72a.49.49,0,0,0,.26.27,7.21,7.21,0,0,0,3.84.69h0a2.51,2.51,0,0,0,3.49,2.59A2.53,2.53,0,0,0,28,88h0A7.21,7.21,0,0,0,30.22,84.72Zm-2.16,4.56a1.72,1.72,0,1,1-2.25-.91A1.71,1.71,0,0,1,28.06,89.28Z"/><path class="cls-2" d="M44.24,105.59a2.48,2.48,0,0,0-1.05-.72h0a7.19,7.19,0,0,0,1-3.75.51.51,0,0,0-.13-.35l-12-13.68,0,.61c0,1.43-.22,2.92-.26,4.37a11.51,11.51,0,0,0,.32,3.46.77.77,0,0,0,.07.16h0c-1.28-.71-6.5-1-7.92-1.15l-.61-.06,12,13.67a.52.52,0,0,0,.33.18,7.16,7.16,0,0,0,3.86-.55h0a2.34,2.34,0,0,0,.57,1.13,2.52,2.52,0,0,0,3.79-3.31Zm-.77,3a1.72,1.72,0,1,1,.17-2.43A1.72,1.72,0,0,1,43.47,108.54Z"/><path class="cls-2" d="M90.73,29.16c1.37.4,2.84.71,4.23,1.12a11.46,11.46,0,0,1,3.18,1.4l.14.11h0c-.27-1.43,1.08-6.49,1.39-7.88l.14-.6L109,39a.48.48,0,0,1,.06.37,7.14,7.14,0,0,1-1.73,3.49h0a2.55,2.55,0,0,1,.9.89,2.52,2.52,0,0,1-4.34,2.56,2.45,2.45,0,0,1-.35-1.22h0a7.15,7.15,0,0,1-3.89-.18.48.48,0,0,1-.29-.23L90.14,29Zm13.88,16.69a1.72,1.72,0,1,0,.61-2.35A1.71,1.71,0,0,0,104.61,45.85Z"/><path class="cls-2" d="M101.51,48c1.17.8,2.48,1.55,3.66,2.38a11.41,11.41,0,0,1,2.59,2.32.6.6,0,0,1,.09.15h0c.19-1.45,3.05-5.84,3.79-7.06l.31-.52L115.83,63a.49.49,0,0,1-.06.37A7.1,7.1,0,0,1,113,66.11h0a2.52,2.52,0,1,1-4.35,2.21,2.47,2.47,0,0,1,0-1.27h0a7.18,7.18,0,0,1-3.64-1.39.49.49,0,0,1-.21-.31L101,47.61Zm8,20.19a1.72,1.72,0,1,0,1.31-2.05A1.73,1.73,0,0,0,109.48,68.15Z"/><path class="cls-2" d="M97.78,84.72a.52.52,0,0,1,0-.37l7.09-16.73.22.58c.49,1.33,1.12,2.7,1.61,4.06a11.43,11.43,0,0,1,.77,3.39.47.47,0,0,1,0,.17h0c1-1.08,5.87-3,7.17-3.58l.56-.24-7.09,16.72a.49.49,0,0,1-.26.27,7.21,7.21,0,0,1-3.84.69h0a2.51,2.51,0,0,1-3.49,2.59A2.53,2.53,0,0,1,100,88h0A7.21,7.21,0,0,1,97.78,84.72Zm2.16,4.56a1.72,1.72,0,1,0,2.25-.91A1.71,1.71,0,0,0,99.94,89.28Z"/><path class="cls-2" d="M83.76,105.59a2.48,2.48,0,0,1,1-.72h0a7.19,7.19,0,0,1-1.05-3.75.51.51,0,0,1,.13-.35L95.82,87.08l0,.61c.05,1.43.22,2.92.26,4.37a11.51,11.51,0,0,1-.32,3.46.77.77,0,0,1-.07.16h0c1.28-.71,6.5-1,7.92-1.15l.61-.06-12,13.67a.52.52,0,0,1-.33.18,7.16,7.16,0,0,1-3.86-.55h0a2.34,2.34,0,0,1-.57,1.13,2.52,2.52,0,1,1-3.79-3.31Zm.77,3a1.72,1.72,0,1,0-.17-2.43A1.72,1.72,0,0,0,84.53,108.54Z"/><path class="cls-2" d="M62.94,94.57c.14-6.54,0-18.39,0-19.27,0-1.31,2.61-1,3.36-1,12.21,0,17.49-6.88,19.21-14.43h8V56.48H86a29.15,29.15,0,0,0,.14-2.93c0-.54,0-1.1,0-1.69h7.31V48.5H85.89C85,39.9,81.06,29.09,65,29.09c-3.36,0-6.81.09-10.08.09a4,4,0,0,0-2.33.37c-.75.56-.47,8.87-.38,11.77,0,.73,0,3.39,0,7.18H41.67v3.36H52.28c0,1.45,0,3,0,4.62H41.67v3.36H52.3c0,9.15,0,19.82,0,27.55h0V97.92A1.06,1.06,0,0,0,53.38,99H62a1,1,0,0,0,1-1.1Zm0-53.91c.28-1,1.49-1,2.43-.93,4.9.34,7.9,4.28,8.76,8.77H62.94c0-2.48,0-4.71,0-6A13,13,0,0,1,63,40.66Zm8.68,21.2A9.9,9.9,0,0,1,64.19,65a1.5,1.5,0,0,1-1.3-1.4c0-1,0-2.05.09-3.08v-.71H73A8.49,8.49,0,0,1,71.66,61.86Zm2.41-5.38H63c0-1.39,0-3,0-4.62H74.48A22.35,22.35,0,0,1,74.07,56.48Z"/></g></g></svg>