<svg width="96" height="97" viewBox="0 0 96 97" fill="none" xmlns="http://www.w3.org/2000/svg">
<g clip-path="url(#clip0_1457:985)">
<circle cx="48" cy="48" r="48" fill="#E6D29D"/>
<path d="M44.5353 0.0565948C44.1684 0.0953979 43.0323 0.229462 42.0339 0.345886C33.584 1.2879 24.4991 5.17588 17.6652 10.7397C8.08282 18.5333 1.96154 29.5622 0.246872 42.0941C-0.0812428 44.4614 -0.0812428 51.6588 0.229231 53.9309C1.53816 63.0934 4.9816 71.2539 10.4114 78.0879C18.1097 87.769 29.3715 94.0808 42.0339 95.8131C44.44 96.1589 51.5986 96.1589 53.9659 95.8308C68.2266 93.8303 80.2187 86.4001 88.0158 74.6974C92.1719 68.4597 94.6945 61.7245 95.7529 54.0262C96.0811 51.6764 96.0987 44.4614 95.7706 42.1893C94.6733 34.2969 92.2283 27.7523 88.0334 21.4405C80.4515 10.0059 68.4206 2.44159 54.6575 0.402336C52.7946 0.134201 45.9218 -0.116287 44.5353 0.0565948ZM53.5814 3.8105C61.6078 4.86893 69.4403 8.17831 75.7944 13.1847C77.5443 14.5501 81.5099 18.5157 82.8789 20.2692C89.7904 29.0259 93.3115 40.3265 92.4824 51.0837C91.6356 62.1902 87.169 71.889 79.3931 79.6262C72.3298 86.6506 64.2469 90.6727 54.0647 92.2533C51.468 92.6378 45.248 92.6943 42.6125 92.3485C22.0577 89.5966 6.42813 73.9847 3.71501 53.4511C3.40806 51.1014 3.40806 45.0224 3.71501 42.6727C5.46495 29.5446 12.5106 18.1699 23.4619 10.8385C26.0974 9.0674 30.6204 6.8729 33.7604 5.83563C37.6096 4.54434 40.0722 4.06452 45.4067 3.52472C46.5781 3.40476 51.9479 3.59882 53.5814 3.8105Z" fill="black"/>
<path d="M43.671 10.9336C24.3263 13.2833 10.0269 29.9325 10.7184 49.3124C10.9301 54.9504 12.0097 59.3605 14.4123 64.3246C19.454 74.7184 28.9834 82.1874 40.3016 84.5936C51.4857 86.9786 63.4002 83.9762 72.1958 76.5283C80.4904 69.4827 85.3415 58.9936 85.3415 48.06C85.3415 29.8126 72.2522 14.3771 54.0648 11.1806C52.1208 10.8348 45.7102 10.6831 43.671 10.9336ZM50.2721 21.9025C54.3717 22.3435 58.1433 23.4619 61.7067 25.2895C69.6379 29.3327 74.5067 35.9726 75.8544 44.5001C76.2778 47.2732 76.2778 53.3345 75.8156 55.8571C74.7007 62.1901 71.5995 67.1365 66.1909 71.1585C62.9768 73.5823 59.2794 75.1806 55.4125 75.8756C53.3133 76.2425 49.0796 76.299 46.9451 75.9709C44.867 75.6639 42.1539 74.7784 40.979 74.0269C36.5724 71.2185 32.7797 69.1757 30.6805 68.4842C29.1034 67.9656 27.043 67.9444 25.9281 68.4454C24.7532 68.9852 23.6948 70.1954 22.9645 71.8324C22.3859 73.1237 22.2518 73.2754 21.7896 73.2754C21.4827 73.2754 21.2498 73.2366 21.2498 73.1978C21.2498 72.852 22.7704 68.8688 23.3102 67.7892C25.3706 63.6507 28.6412 60.8212 32.5504 59.7627C34.4943 59.2441 38.2659 59.2053 40.7673 59.6851C42.923 60.1085 46.1195 61.1669 47.8694 62.0525L49.2172 62.7263L49.9475 61.996C51.835 60.1685 51.641 58.4926 49.39 56.8556C48.8891 56.4886 46.7545 55.3173 44.6377 54.2201C40.2099 51.948 39.4231 51.4293 38.594 50.3885C37.7473 49.3301 37.4192 48.4269 37.4192 47.2309C37.4192 45.2304 38.3435 43.2476 41.6529 38.2024L43.9426 34.6814L42.9407 34.6249C39.342 34.3956 30.1795 36.2796 26.6372 37.9943C24.8873 38.841 23.2891 40.3793 22.4988 41.9987C21.9978 43.0183 21.9413 43.364 21.9201 44.8847C21.9201 46.3488 21.9978 46.751 22.3823 47.4814C23.1126 48.8679 23.7089 49.5418 24.9226 50.3497C27.0783 51.7927 30.1195 52.0644 33.5665 51.14C34.3568 50.9283 35.0306 50.7555 35.0694 50.7555C35.0871 50.7555 35.1082 51.0059 35.1082 51.3129C35.1082 51.7751 34.9918 51.9091 34.3003 52.1596C32.6068 52.7771 31.6824 52.9499 29.8161 52.9288C28.2778 52.9288 27.6604 52.8335 26.736 52.4877C24.1182 51.4858 22.4247 49.8911 21.0769 47.1744C18.8648 42.7078 19.6904 36.1632 23.0774 31.4108C26.4855 26.6372 34.0286 22.8057 41.8434 21.9025C43.9391 21.6732 48.1164 21.652 50.2721 21.9025Z" fill="black"/>
<path d="M44.6341 35.5881C43.9426 37.1087 43.8826 37.6485 44.3272 38.3788C44.867 39.2432 46.0595 39.8606 49.3124 41.0143C53.0275 42.3409 55.0491 43.3993 56.4533 44.7859C58.0304 46.3241 58.4749 47.499 58.4749 50.1768C58.4926 52.1208 58.4749 52.2549 57.7622 53.7191C57.3565 54.5658 56.7214 55.6807 56.3369 56.2205C55.6454 57.1837 52.9499 60.3766 51.334 62.1477C50.8718 62.6487 50.5049 63.1285 50.5049 63.2062C50.5049 63.3014 51.2564 63.8236 52.1984 64.3599C59.3393 68.5936 64.9984 68.9605 69.2145 65.4395C71.9664 63.1497 73.5082 59.9356 73.7375 56.0476C73.9316 52.6783 73.046 49.6582 71.0244 46.8287C69.7331 45.0399 66.6355 42.1715 64.1728 40.5168C58.8807 36.9746 53.0487 34.9354 47.3896 34.6461L45.1175 34.5296L44.6341 35.5881Z" fill="black"/>
</g>
<defs>
<clipPath id="clip0_1457:985">
<rect width="96" height="96.0706" fill="white"/>
</clipPath>
</defs>
</svg>
