<svg width="96" height="96" viewBox="0 0 96 96" fill="none" xmlns="http://www.w3.org/2000/svg">
<circle cx="48" cy="48" r="48" fill="black"/>
<path fill-rule="evenodd" clip-rule="evenodd" d="M63.3373 30C72.5927 30 80.0957 37.503 80.0957 46.7584C80.0957 56.9555 74.4841 66.3157 65.5117 71.1258L65.2387 71.2702L63.8217 72.0097C53.727 77.2779 41.7136 77.3306 31.5804 72.1677L31.2739 72.0097L29.8569 71.2702C20.7255 66.5048 15 57.0585 15 46.7584C15 37.5955 22.3537 30.1502 31.4813 30.0022L31.7584 30H63.3373ZM51.7036 55.2513H43.392C42.6299 55.2513 42.012 55.8692 42.012 56.6313C42.012 56.9312 42.1097 57.2229 42.2902 57.4623L46.0788 62.4857C46.6907 63.297 47.8444 63.4587 48.6558 62.8468C48.7923 62.7438 48.9139 62.6223 49.0169 62.4857L52.8054 57.4623C53.2644 56.8538 53.1431 55.9884 52.5346 55.5295C52.2952 55.349 52.0035 55.2513 51.7036 55.2513ZM31.3893 35.9685C25.015 35.9685 19.8475 41.1073 19.8475 47.4464C19.8475 53.7854 25.015 58.9242 31.3893 58.9242C37.7637 58.9242 42.9311 53.7854 42.9311 47.4464C42.9311 41.1073 37.7637 35.9685 31.3893 35.9685ZM63.7063 35.9685C57.332 35.9685 52.1645 41.1073 52.1645 47.4464C52.1645 53.7854 57.332 58.9242 63.7063 58.9242C70.0807 58.9242 75.2481 53.7854 75.2481 47.4464C75.2481 41.1073 70.0807 35.9685 63.7063 35.9685ZM31.5048 41.2483C31.5622 41.2483 31.6196 41.2491 31.6767 41.2506C31.4918 41.6715 31.3893 42.1367 31.3893 42.6256C31.3893 44.5274 32.9396 46.069 34.8519 46.069C35.8204 46.069 36.6961 45.6735 37.3245 45.0361C37.6642 45.809 37.8527 46.6632 37.8527 47.5611C37.8527 51.0476 35.0106 53.874 31.5048 53.874C27.9989 53.874 25.1568 51.0476 25.1568 47.5611C25.1568 44.0747 27.9989 41.2483 31.5048 41.2483ZM63.8217 41.2483C63.8792 41.2483 63.9366 41.2491 63.9937 41.2506C63.8088 41.6715 63.7063 42.1367 63.7063 42.6256C63.7063 44.5274 65.2566 46.069 67.1689 46.069C68.1374 46.069 69.0131 45.6735 69.6415 45.0361C69.9812 45.809 70.1697 46.6632 70.1697 47.5611C70.1697 51.0476 67.3276 53.874 63.8217 53.874C60.3159 53.874 57.4738 51.0476 57.4738 47.5611C57.4738 44.0747 60.3159 41.2483 63.8217 41.2483Z" fill="#F9BF3C"/>
</svg>