<svg width="96" height="96" viewBox="0 0 96 96" fill="none" xmlns="http://www.w3.org/2000/svg">
<path d="M48 96C74.5097 96 96 74.5097 96 48C96 21.4903 74.5097 0 48 0C21.4903 0 0 21.4903 0 48C0 74.5097 21.4903 96 48 96Z" fill="url(#paint0_linear)"/>
<path fill-rule="evenodd" clip-rule="evenodd" d="M48 23.4066C34.4175 23.4066 23.4066 34.4175 23.4066 48C23.4066 61.5825 34.4175 72.5934 48 72.5934C61.5825 72.5934 72.5934 61.5825 72.5934 48C72.5934 34.4175 61.5825 23.4066 48 23.4066ZM18.1934 48C18.1934 31.5382 31.5382 18.1934 48 18.1934C64.4618 18.1934 77.8066 31.5382 77.8066 48C77.8066 64.4618 64.4618 77.8066 48 77.8066C31.5382 77.8066 18.1934 64.4618 18.1934 48Z" fill="white"/>
<path fill-rule="evenodd" clip-rule="evenodd" d="M61.1399 46.3978C62.0675 46.838 62.6588 47.773 62.6588 48.7998V70.1952C62.6588 71.6636 61.4684 72.8539 60 72.8539C58.5316 72.8539 57.3412 71.6636 57.3412 70.1952V54.4024L22.4813 82.8595C21.3438 83.788 19.6689 83.6187 18.7403 82.4812C17.8117 81.3436 17.9811 79.6687 19.1186 78.7401L58.3186 46.7401C59.114 46.0908 60.2122 45.9576 61.1399 46.3978Z" fill="white"/>
<path fill-rule="evenodd" clip-rule="evenodd" d="M34.8601 49.602C33.9325 49.1618 33.3412 48.2267 33.3412 47.2V25.8046C33.3412 24.3362 34.5316 23.1458 36 23.1458C37.4684 23.1458 38.6588 24.3362 38.6588 25.8046V41.5973L73.5187 13.1403C74.6562 12.2117 76.3311 12.3811 77.2597 13.5186C78.1883 14.6561 78.0189 16.331 76.8814 17.2596L37.6814 49.2596C36.886 49.9089 35.7878 50.0422 34.8601 49.602Z" fill="white"/>
<defs>
<linearGradient id="paint0_linear" x1="31.6709" y1="9.70861" x2="95.1779" y2="93.1361" gradientUnits="userSpaceOnUse">
<stop stop-color="#3139EC"/>
<stop offset="1" stop-color="#FF0061"/>
</linearGradient>
</defs>
</svg>
