<svg width="96" height="96" viewBox="0 0 96 96" fill="none" xmlns="http://www.w3.org/2000/svg">
<path fill-rule="evenodd" clip-rule="evenodd" d="M0 43.023C2.80264e-05 18.834 21.9448 0 48 0C74.0553 0 96 18.834 96 43.0231V52.9769C96 77.166 74.0553 96 48 96C21.9448 96 0 77.166 0 52.9769V43.023ZM3.91837 43.023C3.91839 21.4261 23.6544 3.91837 48 3.91837C72.3456 3.91837 92.0817 21.4261 92.0817 43.0231V52.9769C92.0817 74.5739 72.3456 92.0816 48 92.0816C23.6544 92.0816 3.91837 74.5739 3.91837 52.9769V43.023Z" fill="#633001"/>
<path d="M92.0818 52.9769C92.0818 74.5738 72.3457 92.0816 48.0001 92.0816C23.6545 92.0816 3.91846 74.5738 3.91846 52.9769V43.0229H92.0818V52.9769Z" fill="#FEDC90"/>
<path d="M92.0818 43.0231C92.0818 64.6201 72.3457 82.1278 48.0001 82.1278C23.6545 82.1278 3.91846 64.6201 3.91846 43.0231C3.91846 21.4262 23.6545 3.91846 48.0001 3.91846C72.3457 3.91846 92.0818 21.4262 92.0818 43.0231Z" fill="#D1884F"/>
<path d="M76.8807 48.6522C74.1004 60.2938 63.8286 69 49.209 69C32.3043 69 19.6003 58.3594 19.6003 43C19.6003 27.6406 32.3043 17 49.209 17C63.8286 17 74.1004 25.7062 76.8807 37.3478H63.5384C61.4624 31.7925 56.217 28.3044 49.2091 28.3044C40.0523 28.3044 33.9047 34.2595 33.9047 43C33.9047 51.7405 40.0523 57.6957 49.2091 57.6957C56.217 57.6957 61.4625 54.2075 63.5384 48.6522H76.8807Z" fill="#633001"/>
</svg>
