<svg width="96" height="96" viewBox="0 0 96 96" fill="none" xmlns="http://www.w3.org/2000/svg">
<circle cx="48" cy="48" r="48" fill="white"/>
<path d="M63.793 69.2643L49.9176 53.7532L63.3136 38.7778H55.276L42.1338 53.725L46.0257 58.0963L55.9246 69.2643H63.793Z" fill="#3E3E3E"/>
<path d="M35.7319 57.5044C37.6945 57.5044 39.2854 55.9135 39.2854 53.9509C39.2854 51.9884 37.6945 50.3975 35.7319 50.3975C33.7694 50.3975 32.1785 51.9884 32.1785 53.9509C32.1785 55.9135 33.7694 57.5044 35.7319 57.5044Z" fill="#40D27E"/>
<path d="M35.7319 69.2082C37.6945 69.2082 39.2854 67.6173 39.2854 65.6548C39.2854 63.6923 37.6945 62.1013 35.7319 62.1013C33.7694 62.1013 32.1785 63.6923 32.1785 65.6548C32.1785 67.6173 33.7694 69.2082 35.7319 69.2082Z" fill="#2BA5F8"/>
<path d="M35.7319 45.9697C37.6945 45.9697 39.2854 44.3788 39.2854 42.4163C39.2854 40.4537 37.6945 38.8628 35.7319 38.8628C33.7694 38.8628 32.1785 40.4537 32.1785 42.4163C32.1785 44.3788 33.7694 45.9697 35.7319 45.9697Z" fill="#FCB82B"/>
<path d="M35.7319 34.4067C37.6945 34.4067 39.2854 32.8158 39.2854 30.8533C39.2854 28.8907 37.6945 27.2998 35.7319 27.2998C33.7694 27.2998 32.1785 28.8907 32.1785 30.8533C32.1785 32.8158 33.7694 34.4067 35.7319 34.4067Z" fill="#E6403B"/>
</svg>
