<svg width="97" height="97" viewBox="0 0 97 97" fill="none" xmlns="http://www.w3.org/2000/svg">
<path d="M48.0048 96.0097C74.5172 96.0097 96.0097 74.5172 96.0097 48.0048C96.0097 21.4925 74.5172 0 48.0048 0C21.4925 0 0 21.4925 0 48.0048C0 74.5172 21.4925 96.0097 48.0048 96.0097Z" fill="#3375BB"/>
<path d="M48.0043 22.8913L49.3174 21.1823C48.9395 20.8918 48.4761 20.7344 47.9995 20.7344C47.5228 20.7344 47.0595 20.8918 46.6816 21.1823L48.0043 22.8913ZM70.5778 29.5243H72.7308C72.7347 29.2386 72.6819 28.9551 72.5755 28.69C72.4691 28.4248 72.3113 28.1834 72.1111 27.9797C71.9109 27.7759 71.6724 27.6138 71.4092 27.5027C71.146 27.3916 70.8634 27.3338 70.5778 27.3326V29.5243ZM48.0043 75.6367L46.8071 77.4325C47.1599 77.6687 47.5749 77.7948 47.9995 77.7948C48.424 77.7948 48.8391 77.6687 49.1919 77.4325L48.0043 75.6367ZM25.4501 29.5243V27.3615C25.1645 27.3628 24.8819 27.4206 24.6187 27.5317C24.3555 27.6427 24.117 27.8048 23.9168 28.0086C23.7166 28.2124 23.5588 28.4538 23.4524 28.7189C23.346 28.984 23.2932 29.2676 23.2971 29.5532L25.4501 29.5243ZM46.6912 24.5905C56.4621 32.1601 67.6523 31.6773 70.5874 31.6773V27.3615C67.5461 27.3615 57.8042 27.7477 49.3464 21.1823L46.6912 24.5905ZM68.4344 29.4856C68.2702 39.4883 67.8454 46.5461 67.0344 51.7695C66.2234 56.9928 65.1034 60.0438 63.6261 62.2259C62.1489 64.4079 60.2565 65.8272 57.4855 67.4782C54.7146 69.1292 51.1712 70.9637 46.8071 73.8505L49.2401 77.4325C53.3725 74.6809 56.8097 72.9236 59.7352 71.1761C62.683 69.5707 65.2411 67.3357 67.2275 64.63C69.1585 61.7335 70.4812 57.8714 71.3309 52.426C72.1805 46.9806 72.615 39.6524 72.7791 29.5532L68.4344 29.4856ZM49.2401 73.8505C44.905 70.954 41.3713 69.1582 38.6196 67.4879C35.8679 65.8175 33.9755 64.4851 32.4887 62.2259C31.0018 59.9666 29.7949 56.9639 28.9646 51.7695C28.1342 46.5751 27.7674 39.4883 27.6032 29.4856L23.2971 29.5532C23.4612 39.6524 23.9053 46.9999 24.7453 52.426C25.5853 57.8521 26.8694 61.7141 28.8391 64.63C30.8159 67.3373 33.3681 69.5729 36.3121 71.1761C39.2086 72.9236 42.6747 74.6809 46.8071 77.4325L49.2401 73.8505ZM25.4501 31.6773C28.3467 31.6773 39.5465 32.1601 49.3174 24.5905L46.6816 21.1823C38.2044 27.7477 28.4625 27.3615 25.4405 27.3615L25.4501 31.6773Z" fill="#FFFDFA"/>
</svg>
