<svg width="96" height="96" viewBox="0 0 96 96" fill="none" xmlns="http://www.w3.org/2000/svg">
<ellipse cx="48" cy="47.9804" rx="48" ry="47.9804" fill="#FF5C0D"/>
<mask id="mask0_1600_1209" style="mask-type:alpha" maskUnits="userSpaceOnUse" x="0" y="0" width="96" height="96">
<ellipse cx="48" cy="47.9804" rx="48" ry="47.9804" fill="white"/>
</mask>
<g mask="url(#mask0_1600_1209)">
<path fill-rule="evenodd" clip-rule="evenodd" d="M57.5633 40.0964C59.0279 39.8189 60.177 40.8941 60.3861 42.0766C60.6462 43.5481 59.6059 44.6872 58.4059 44.9055C56.9474 45.1716 55.7786 44.1169 55.5695 42.9329C55.3041 41.4272 56.339 40.3291 57.5633 40.0964ZM37.9675 40.0964C39.4321 39.8189 40.5812 40.8941 40.7903 42.0766C41.0504 43.5481 40.0093 44.6872 38.8101 44.9055C37.3516 45.1716 36.182 44.1169 35.9736 42.9329C35.7082 41.4272 36.7432 40.3291 37.9675 40.0964ZM52.4395 32.4502C52.5452 33.0213 52.7748 33.7072 52.9254 34.311C54.0942 38.9915 54.4988 44.5458 54.2052 49.3244C54.1839 49.6772 53.8737 52.3464 53.9102 52.4817L54.2501 53.3608C55.3862 56.8626 53.2288 60.9264 48.8654 61.4823C48.765 61.9393 49.1521 62.7302 49.3384 63.023C49.6091 63.4481 49.965 63.7827 50.4106 64.0503C51.1118 64.4709 52.1376 64.5362 52.8524 64.01C53.5756 63.477 53.9703 64.5978 52.2068 64.9507C50.5802 65.2762 49.1011 64.1842 48.4897 62.7142L48.3719 62.5059L48.2662 62.6838C46.7483 66.121 43.3446 64.8891 43.2724 64.1978C43.2328 63.8176 43.6336 63.8222 43.8419 63.9735C45.5948 65.2419 47.9027 63.388 47.8966 61.5036C43.6587 61.0968 41.2374 57.2581 42.2838 53.4939C42.6503 52.1737 42.6815 53.0543 42.5013 51.5951C42.4115 50.8696 42.3385 50.1396 42.2861 49.4088C41.9499 44.7336 42.4108 38.9497 43.5522 34.346L44.0549 32.4175C42.8663 32.5026 41.6184 32.6836 40.4777 32.9004C39.9112 33.0083 38.1972 33.3855 37.623 33.6022C37.4504 33.6676 37.4405 33.7361 37.2854 33.7726C36.2238 34.0205 36.3006 33.9908 36.0603 34.5695C33.8018 40.0052 31.9973 46.0879 31.1547 52.0445C30.5555 56.2809 30.2201 63.2078 32.868 65.772C34.0954 66.9605 34.9813 66.5765 35.9797 66.5856C42.7028 66.6488 49.5582 66.5788 56.3048 66.6069C57.6622 66.6123 59.0211 66.6161 60.3785 66.6161C61.6226 66.6153 62.488 66.8602 63.5746 65.8138C66.2818 63.2055 65.9426 56.4474 65.3427 52.1205C64.5404 46.329 62.6826 39.9907 60.4644 34.6615C60.0348 33.6296 60.2553 34.0532 59.2979 33.7657C59.174 33.7285 59.1466 33.6699 58.9785 33.6167C58.8447 33.5749 58.7093 33.5414 58.5785 33.5064L56.0539 32.9422C54.92 32.7361 53.6174 32.5217 52.4395 32.4502Z" fill="#FAD986"/>
<path fill-rule="evenodd" clip-rule="evenodd" d="M52.41 106.616C52.6503 106.639 53.137 106.91 53.4206 107.006C53.794 107.132 54.1309 107.24 54.5141 107.324C56.6092 107.783 59.0852 107.539 60.8243 106.243C61.0768 106.055 61.006 106.141 61.1498 105.853C61.6273 106.009 61.6212 106.145 62.4448 106.256C63.0455 106.337 63.4258 106.291 63.9908 106.15C64.7816 105.952 65.7413 105.181 66.1268 104.771C66.6584 104.204 67.2493 103.672 68.1177 103.291C68.999 102.904 69.7519 102.478 70.9146 102.6C72.3283 102.748 73.4507 103.479 74.1411 104.598C74.9457 105.901 74.6096 107.749 74.4065 109.145C74.3092 109.816 74.2286 109.986 73.7967 110.297C73.3822 110.595 72.0385 111.327 71.5275 111.504C70.7192 111.786 70.1678 111.821 69.4089 111.998C68.8789 112.121 67.4546 112.083 66.8995 112.045C65.7915 111.97 64.5892 112.007 63.4653 112.013C63.1322 112.014 62.9725 112.091 62.6957 112.096C61.6471 112.113 61.133 112.223 60.2076 112.277C58.6905 112.366 54.8944 112.612 53.7681 111.892C53.0845 111.455 52.6108 110.842 52.4351 109.748C52.2648 108.687 52.0526 107.662 52.41 106.616ZM56.7567 113C56.9521 112.989 57.1126 112.966 57.289 112.958C57.9582 112.927 58.8441 112.954 59.2555 112.938C60.5962 112.886 61.8646 112.657 63.2516 112.657C64.0227 112.657 64.447 112.614 65.2668 112.614C66.7025 112.614 68.0721 112.684 69.469 112.615C70.145 112.582 71.3815 112.24 72.0241 111.997C72.5822 111.786 73.2256 111.371 73.7442 111.059C74.4096 110.657 74.7343 110.344 74.9335 109.547C75.2719 108.195 75.4438 106.598 75.0484 105.278C75.005 105.132 74.9799 104.991 74.9267 104.842C74.8157 104.532 74.7647 104.393 74.5799 104.117C73.9107 103.114 73.2256 102.672 72.1518 102.256C71.0241 101.82 69.7176 101.872 68.599 102.355C68.1131 102.564 67.6158 102.773 67.1702 103.069C66.9466 103.218 66.7557 103.362 66.5466 103.518C66.2227 103.76 65.7208 104.247 65.4272 104.542C64.5003 105.478 63.2676 105.9 61.9459 105.558C61.7345 105.503 61.7049 105.45 61.5361 105.41C61.5824 105.237 61.7361 105.161 61.8372 105.025C62.3513 104.337 62.7125 103.559 63.1573 102.829C63.3406 102.528 63.4942 102.215 63.6387 101.895C63.847 101.434 64.0987 100.968 64.2752 100.473C64.3451 100.277 64.4235 100.162 64.4896 99.9592L64.8645 98.9189C64.9885 98.5478 65.085 98.2231 65.2082 97.8474C65.5808 96.7144 66.0584 94.3312 66.123 93.1449C66.1725 92.2392 66.25 91.3746 66.2538 90.4438L66.1276 88.4689C66.1056 88.2088 66.0812 88.0606 66.0812 87.7868C66.1109 87.821 66.1025 87.805 66.1337 87.8628C66.1694 87.9298 66.1535 87.9062 66.1854 87.9822L66.9261 89.5571C67.0006 89.7214 67.0751 89.8157 67.1527 89.9731C67.6918 91.0689 68.5047 92.1449 69.4926 92.8643C69.6629 92.9882 69.7245 93.0065 69.8948 93.1053C70.0918 93.2186 70.5519 93.4825 70.8401 93.4894C70.8515 94.0125 71.1435 94.3578 71.421 94.7091C71.5321 94.8498 71.6051 94.8825 71.7298 95.0011C71.9457 95.2064 72.1678 95.3387 72.4849 95.4467C72.8917 95.5851 73.0157 95.5905 73.5411 95.5905C73.7807 96.0901 73.8552 98.1638 75.2993 98.1646C75.824 98.1653 76.0749 97.8429 76.2719 97.4208C76.3768 97.195 76.4042 96.9471 76.5 96.7486C77.119 97.163 77.4719 98.925 77.5715 99.5364C77.6354 99.9288 77.7319 100.203 77.951 100.443C78.1814 100.695 78.4871 100.845 78.8589 100.826C79.5935 100.787 79.8832 99.3835 80.0581 98.8071L80.4551 97.2322C80.7311 95.9304 81.0391 95.6893 80.6901 93.8452C80.6285 93.5205 80.5425 93.1456 80.4612 92.7882C80.306 92.1076 80.1289 91.4476 79.8627 90.8141C79.7897 90.64 79.7319 90.5198 79.6779 90.3556C79.6239 90.1921 79.535 89.9906 79.5015 89.8461C80.0437 89.5594 80.6657 88.5906 80.3448 87.6309C80.1266 86.9777 79.4657 86.0096 78.6445 86.2013C78.481 85.4994 78.1897 84.8849 77.8437 84.2583C77.6787 83.9587 77.4954 83.6842 77.3152 83.4143C75.716 81.0158 73.8263 79.6524 71.38 78.2007L70.4545 77.7117C69.5709 77.2296 68.6926 76.7117 67.8561 76.1505C67.7063 76.0501 67.58 75.984 67.4401 75.8798C67.3223 75.7923 67.1215 75.6479 66.9808 75.6098C66.996 75.4251 67.177 75.203 67.2728 75.0441C67.8637 74.0661 68.2857 72.9521 68.4568 71.8114C68.507 71.4791 68.5641 71.4753 68.793 71.2472C69.5389 70.502 70.2317 69.7103 70.8971 68.8921C71.5625 68.0731 72.1571 67.188 72.7031 66.2815C73.1009 65.6214 73.4423 64.9659 73.7708 64.2618L74.17 63.3317C74.2552 63.0778 74.3373 62.9196 74.4096 62.6709C74.4742 62.4466 74.5601 62.236 74.624 61.985C74.7426 61.5204 74.843 61.0748 74.9396 60.5425C74.9936 60.2459 75.0164 60.0672 75.0514 59.7539C75.0772 59.5235 75.1312 59.1934 75.1305 58.9326C75.129 58.3509 75.1822 57.9547 75.1738 57.3007C75.17 57.0178 75.1274 56.7897 75.1297 56.4444C75.132 56.1129 75.0864 55.9395 75.0864 55.5874C75.2392 55.6901 75.405 55.9539 75.5472 56.1129C75.8582 56.4612 76.1046 56.884 76.3723 57.2604C76.478 57.4094 76.7114 57.7121 77.0369 57.5828C77.3936 57.4406 77.4795 56.5844 77.5821 56.1532C77.9137 54.754 78.2703 52.2536 78.2597 50.8278L78.3046 49.4111C78.3015 49.1799 78.265 49.1586 78.2589 48.9427C78.2392 48.2818 78.243 47.6476 78.157 47.0294C77.9008 45.1831 77.5867 42.9975 76.9677 41.2721C76.5099 39.9953 76.2613 38.949 75.6012 37.6212C75.3867 37.1901 75.2004 36.7117 74.9502 36.2996L74.4035 35.3452C74.313 35.1977 74.2446 35.1855 74.2294 35.0045C74.5176 35.1429 75.3822 35.2289 75.7784 35.3422C76.5221 35.5551 76.7266 35.276 76.3593 34.5468C76.2103 34.2517 76.0719 33.9734 75.9023 33.7179C75.5708 33.219 75.2689 32.6631 74.9092 32.181L74.1077 31.0533C73.7427 30.5864 73.3853 30.0852 72.9754 29.6556L72.0727 28.6282C71.6933 28.1743 71.2104 27.756 70.7891 27.3393L69.066 25.8465C68.9481 25.7538 68.7815 25.68 68.7412 25.5287C68.9755 25.4663 69.4294 25.0192 69.5808 24.8245C70.6887 23.407 70.7032 21.6466 69.5694 20.2406C68.939 19.4588 67.9435 18.963 66.8979 18.9668C66.5831 18.9676 66.3839 19.0102 66.1253 19.0102C66.0531 18.8596 65.9922 18.5463 65.9276 18.3501C65.7527 17.8193 65.52 17.3159 65.2539 16.8368C64.885 16.1722 64.4409 15.5745 63.9756 14.9852C63.825 14.7943 63.6858 14.6878 63.5467 14.5137C63.4349 14.3738 63.4448 14.4034 63.3368 14.2947C63.2607 14.2186 63.2204 14.1433 63.1307 14.0719L61.6843 12.8597C60.638 12.0704 59.4699 11.4597 58.254 10.9731C57.0654 10.4978 55.2236 10.0058 53.9065 10.0035C52.3469 10.0012 51.3188 10.0583 50.0519 10.5685L49.4268 10.8438C49.2093 10.9487 49.0336 11.0301 48.8359 11.154C47.807 11.7981 48.7416 11.4582 46.5843 10.5928C46.3394 10.4947 46.185 10.4446 45.9105 10.3662C43.4794 9.67423 40.7098 10.0157 38.3821 10.948L36.5662 11.7905C36.3434 11.9084 36.2042 11.9943 35.9936 12.1191L33.9586 13.6004C33.7853 13.7388 33.6735 13.8992 33.4932 14.0354C33.1123 14.3228 32.545 15.0566 32.2362 15.4369C31.5518 16.2802 31.002 17.2825 30.6568 18.3174C30.5983 18.4923 30.5214 18.8573 30.4484 19.0094C29.58 19.0094 28.9625 18.817 27.8721 19.4778C27.682 19.5934 27.6014 19.6695 27.4333 19.8109C26.2843 20.7767 25.9002 22.3508 26.39 23.7964C26.5679 24.3203 27.2873 25.3812 27.8325 25.5272C27.7922 25.677 26.8447 26.4078 26.6683 26.55C25.9816 27.1028 25.1284 27.9469 24.5406 28.5819C23.9239 29.2488 23.3094 29.9392 22.7665 30.6662L22.2281 31.3712C22.1338 31.4867 22.0395 31.6297 21.9581 31.7445C21.8684 31.8708 21.7901 32.0038 21.7003 32.1301L21.3171 32.6898C21.2684 32.765 21.2357 32.8282 21.1863 32.9019C21.1003 33.0312 21.0098 33.1574 20.9308 33.289L20.2281 34.5163C20.0912 34.7886 19.8585 35.2007 20.241 35.3916C20.4616 35.5011 21.0463 35.2836 21.2798 35.2251C21.4646 35.1787 21.6106 35.1505 21.8106 35.1125C21.987 35.0798 22.2189 35.0616 22.3437 35.0023C22.3292 35.1718 22.2798 35.1642 22.1855 35.3156C22.1094 35.4388 22.0547 35.5072 21.9862 35.6311L21.2996 36.9171C20.7254 38.0646 20.2608 39.2585 19.8502 40.485C19.3277 42.0485 18.93 43.6029 18.6548 45.25C18.4548 46.4461 18.3293 47.6537 18.3141 48.8971L18.2692 49.8385C18.2669 50.7662 18.3787 51.77 18.4395 52.6696C18.4608 52.9875 18.5004 53.2369 18.546 53.5494C18.5932 53.8757 18.6152 54.1433 18.6677 54.4566C18.7559 54.9806 18.8563 55.5753 18.9817 56.1152C19.0844 56.5555 19.1787 57.4376 19.5353 57.579C20.0661 57.7904 20.5384 56.6642 21.0045 56.1311C21.1406 55.9752 21.3422 55.6794 21.4859 55.5836L21.4448 56.8285C21.4387 57.0399 21.4053 57.0429 21.3992 57.2543C21.3665 58.3448 21.4486 59.4778 21.6266 60.5029C21.822 61.6291 22.0532 62.2755 22.3916 63.2968C22.4668 63.5234 22.5581 63.715 22.6494 63.9393L22.9284 64.5606C23.3094 65.3538 23.7718 66.0785 24.2159 66.8321C24.4364 67.2062 24.6835 67.5279 24.9238 67.8822C25.044 68.0594 25.1763 68.2435 25.301 68.4054C25.8797 69.1575 26.4926 69.8647 27.1352 70.559C27.2318 70.6632 27.2462 70.7118 27.3481 70.8175L27.9953 71.4571C28.1496 71.6282 28.2622 72.6616 28.4804 73.2441C28.723 73.8897 29.0127 74.4836 29.345 75.0806C29.412 75.2 29.434 75.2502 29.5032 75.3513C29.5709 75.4509 29.6401 75.5201 29.6751 75.6509C29.5815 75.7787 29.0462 76.098 28.869 76.2167C28.0728 76.7513 27.1329 77.2897 26.2903 77.7543C25.9976 77.9155 25.6896 78.0516 25.3945 78.2311C23.4159 79.4349 21.5072 80.704 20.0943 82.5785C19.2912 83.6447 18.4913 84.8751 18.1833 86.199C17.3772 86.0112 16.7133 86.9518 16.4936 87.5967C16.1628 88.5693 16.762 89.5457 17.3255 89.8438C17.1734 90.4963 16.8365 91.0696 16.6335 91.7251C16.4411 92.3479 16.2845 93.1114 16.143 93.8072C16.0183 94.4209 15.927 95.5501 16.0807 96.1486L16.3559 97.16C16.4738 97.6855 16.5749 98.2307 16.7476 98.7402C16.8069 98.9151 16.8495 99.0877 16.8875 99.2436C17.0586 99.9387 17.5331 101.196 18.4418 100.738C18.7437 100.586 18.965 100.393 19.1125 100.079C19.2966 99.6892 19.3566 98.9189 19.4585 98.4961C19.5483 98.1258 19.7186 97.6497 19.895 97.3463C20.0053 97.1554 20.1369 96.8748 20.3254 96.7478C20.5072 97.1258 20.5399 97.6087 20.8707 97.9174C21.4076 98.4178 22.2889 98.0855 22.6121 97.5341L22.9041 96.9684C23.0509 96.5593 23.1026 95.9669 23.2836 95.5897C24.0014 95.5897 24.5976 95.4749 25.0949 95.0004C25.2196 94.8817 25.2926 94.849 25.4037 94.7083C25.6812 94.357 25.9732 94.0118 25.9846 93.4886C26.6607 93.4734 27.9245 92.4787 28.3496 91.9517C28.5496 91.7031 28.7458 91.4719 28.9268 91.1997C29.1116 90.9221 29.2515 90.6947 29.4234 90.4096L29.8994 89.5563C29.9747 89.3906 30.031 89.2757 30.1017 89.1161L30.7443 87.786L30.6522 89.0659C30.5359 90.148 30.6218 90.7997 30.6157 91.7738C30.6089 92.9601 30.8469 94.3821 31.0499 95.5425C31.1131 95.9038 31.2173 96.3288 31.3108 96.6969C31.4051 97.0687 31.4895 97.4452 31.6074 97.8155L32.1108 99.3698C32.6537 101.021 34.021 103.649 34.9708 105C35.062 105.129 35.0347 105.079 35.1358 105.178C35.2187 105.259 35.2582 105.294 35.2894 105.41C35.1252 105.448 35.1039 105.497 34.9138 105.548C34.4773 105.667 34.0096 105.728 33.5381 105.66C31.8735 105.421 31.2865 104.266 30.3032 103.535C29.3146 102.799 28.6546 102.466 27.4477 102.102C26.5945 101.845 25.4774 101.952 24.7041 102.242C23.5216 102.685 22.7459 103.247 22.0722 104.37C21.9961 104.497 21.9794 104.63 21.9231 104.778C21.8342 105.013 21.7429 105.361 21.6912 105.618C21.4874 106.643 21.5467 107.526 21.6935 108.584L21.8729 109.477C22.0684 110.135 22.1292 110.367 22.7003 110.794C23.1208 111.11 24.2136 111.758 24.739 111.971C25.2676 112.185 25.8386 112.331 26.409 112.445C27.0934 112.582 27.1656 112.592 27.8287 112.611C28.0447 112.618 28.066 112.655 28.2972 112.657C29.3648 112.67 30.4036 112.612 31.472 112.612C32.4986 112.612 34.6233 112.638 35.5206 112.766C36.1814 112.859 36.8126 112.866 37.5008 112.93C37.6605 112.945 37.7426 112.925 37.8544 112.938C38.3662 113.001 38.9312 112.947 39.449 112.954C39.7342 112.957 39.8802 112.989 40.1631 112.998H40.4574C40.8916 112.982 42.1106 112.87 42.3425 112.806C43.6885 112.433 44.6679 111.521 44.9683 110.115C45.0352 109.801 45.0664 109.519 45.1151 109.189L45.1911 108.282C45.2345 107.491 45.2238 106.534 44.7904 106.026C44.6063 105.811 44.639 106.037 44.5721 105.687C43.6756 100.977 45.3995 99.928 45.493 99.5774C45.8786 99.5774 46.4215 99.7455 46.8519 99.8048C47.0291 99.8291 47.4033 99.8588 47.5964 99.8755C47.9515 99.9052 49.4336 99.7744 49.8678 99.7501C50.3705 99.7227 50.7994 99.5744 51.2815 99.5341C51.3788 99.7181 51.3743 99.6786 51.5058 99.8238C51.5796 99.9052 51.6617 100.018 51.7286 100.116C52.2305 100.851 52.375 101.663 52.4762 102.584C52.5339 103.109 52.4845 104.192 52.4161 104.656C52.356 105.06 52.3438 105.424 52.2245 105.793C52.1674 105.97 51.9727 106.07 51.8823 106.266C51.6214 106.831 51.6146 107.328 51.6245 108.155C51.6313 108.771 51.718 109.434 51.8283 110.008C52.0328 111.072 52.6556 112.039 53.6351 112.489C54.5408 112.905 55.343 112.944 56.3384 112.998H56.7567V113ZM35.6795 105.852C35.8476 106.189 35.9594 106.234 36.4126 106.521C38.4285 107.795 41.1669 107.758 43.376 107.016C43.6596 106.921 44.1851 106.638 44.4185 106.615C44.7752 107.658 44.5653 108.655 44.3995 109.708C44.2231 110.831 43.7615 111.442 43.0604 111.891C41.9349 112.611 38.1388 112.364 36.6209 112.275C35.8012 112.227 35.1145 112.094 34.2187 112.094C33.8925 112.094 33.7457 112.014 33.4066 112.011C32.272 112.003 31.0469 111.967 29.9291 112.043C28.5108 112.14 28.0378 112.115 26.7398 111.862C25.3626 111.595 25.2774 111.531 24.1421 110.943C23.7649 110.748 23.3779 110.538 23.0569 110.313C22.6364 110.018 22.5208 109.847 22.4281 109.184C22.2402 107.844 21.8844 105.889 22.6714 104.623C23.679 103.001 25.5459 102.228 27.4386 102.759C27.9778 102.91 28.2204 103.071 28.6804 103.276C29.4796 103.632 30.0956 104.123 30.7017 104.77C31.0781 105.171 32.0378 105.942 32.8035 106.141C33.5617 106.337 34.2811 106.353 35.0514 106.11C35.294 106.035 35.4826 105.916 35.6795 105.852ZM74.132 95.4619C74.367 95.303 75.2202 95.1418 75.7609 94.4224C75.8377 94.3205 76.043 93.9715 76.1571 93.9228C76.6476 93.9236 77.0148 93.8445 77.4011 93.6612C78.2247 93.2696 78.8224 92.4453 79.0696 91.5578C79.119 91.3791 79.1494 91.0788 79.2011 90.9335C79.6338 91.4673 80.3547 94.96 80.1578 95.8657C80.0802 96.2224 79.9509 96.6254 79.8543 97.0186C79.7562 97.4193 79.681 97.8482 79.5768 98.2368C79.4832 98.5843 79.3448 99.0497 79.2346 99.3965C79.1753 99.5843 79.0969 99.728 79.008 99.8983C78.9152 100.078 78.8513 100.276 78.5745 100.12C77.9677 99.7797 78.3122 98.4239 77.3882 96.8452C77.2559 96.6186 76.8901 96.1418 76.6263 96.0946C75.5358 95.8969 76.0407 97.7531 75.1031 97.503C74.5138 97.3471 74.1928 95.9501 74.132 95.4619ZM17.6274 90.9335C17.7255 91.2103 17.6753 91.4848 17.9506 92.0917C18.8563 94.0825 20.6882 93.9182 20.714 93.9296C20.8159 94.0331 20.9756 94.3015 21.0676 94.4232C21.6091 95.1425 22.4509 95.2962 22.6965 95.4627C22.5741 96.1258 22.3231 97.3121 21.7581 97.4946C20.7817 97.8094 21.3041 95.8969 20.2015 96.0961C19.6639 96.1935 19.1627 97.3592 18.9939 97.8573C18.6434 98.8923 18.7285 99.8558 18.2532 100.123C17.9955 100.267 17.9316 100.115 17.8342 99.9288C17.5095 99.306 17.4647 98.9714 17.2601 98.2725C17.1536 97.909 17.0768 97.4398 16.981 97.0543C16.8852 96.6703 16.7483 96.2277 16.6692 95.8673C16.4738 94.9601 17.1955 91.4673 17.6274 90.9335ZM47.9774 87.1906L47.182 86.4195C47.0025 86.4956 46.8664 86.5807 46.6816 86.6545C46.5021 86.726 46.3402 86.7845 46.1797 86.8385C44.4223 87.437 42.0269 87.2225 40.3403 86.5131C39.081 85.983 37.9776 85.3488 36.9974 84.3671L36.5038 83.8317C35.7784 83.0173 35.2096 82.0439 34.9328 80.9436C34.6202 79.7003 34.9677 79.3664 34.5769 79.241C34.3989 79.1839 34.259 79.1254 34.0058 79.1254C33.9503 79.3634 33.6674 79.8265 33.548 80.0828C32.1207 83.1626 31.1754 86.7518 31.1754 90.1883C31.1754 91.1016 31.1465 92.1114 31.2492 92.9015C31.2804 93.1388 31.2872 93.3449 31.3077 93.5715C31.4545 95.1502 31.9366 97.1243 32.4454 98.6512L34.1282 102.543C34.3853 103.015 35.1046 104.299 35.4309 104.671C35.5464 104.802 35.7343 105.24 36.0339 105.483C36.3951 105.777 36.1738 105.667 36.3525 105.85C36.827 106.338 38.5357 106.884 39.3692 106.95C40.2817 107.023 41.1387 107.018 41.9638 106.85C43.3387 106.57 43.744 106.251 44.0398 106.182C44.0398 105.828 43.9524 105.583 43.8984 105.251C43.6634 103.806 43.6223 101.954 44.1987 100.595C44.3219 100.305 44.4041 100.136 44.563 99.8869C44.7873 99.5364 44.9349 99.4824 44.9409 99.2352L43.8832 98.7493C43.5448 98.5805 43.1661 98.4581 42.9684 98.1638C43.0102 98.0847 43.0718 97.9744 43.1684 97.9425C43.4497 97.849 45.0634 99.344 47.9029 99.2763C48.4694 99.2892 49.6427 99.2459 50.1477 99.1699C50.3097 99.1455 50.4207 99.1288 50.5598 99.1098C51.6807 98.9584 52.1149 98.8254 53.0412 98.2893C53.1446 98.2292 53.2412 98.1927 53.3514 98.1281C53.4533 98.0687 53.5651 98.0049 53.6944 98.0064C53.7469 98.0071 53.7932 98.0193 53.8404 98.052C53.9545 98.1296 53.8343 98.0421 53.9058 98.1159L53.9446 98.1638C53.8183 98.401 53.5187 98.4558 53.0039 98.7661C52.7735 98.9045 52.2473 99.2086 51.9294 99.2352C51.9294 99.5379 52.0693 99.5668 52.2975 99.9394C52.7089 100.612 52.9727 101.488 53.0434 102.323C53.2358 104.6 52.7872 105.436 52.7872 106.182L53.7993 106.585C55.6708 107.201 58.1445 107.191 59.8912 106.212C59.9779 106.163 60.041 106.139 60.1178 106.095C60.2182 106.037 60.4441 105.896 60.5133 105.804C60.7498 105.489 60.454 105.791 60.8387 105.443C61.0904 105.216 61.2707 104.809 61.438 104.628C61.9163 104.107 63.0676 101.813 63.4364 101.052C64.0166 99.8535 64.5429 98.2337 64.879 96.963C65.1406 95.9752 65.3132 95.0984 65.4493 94.0604L65.59 92.8293C65.6501 92.4217 65.6508 91.9152 65.6508 91.4749C65.6508 89.1754 65.6455 88.5807 65.2774 86.3169C64.9801 84.4888 64.3717 82.6797 63.6729 80.9755C63.533 80.6333 62.8319 79.2143 62.8212 79.0828C62.5406 79.0828 62.4402 79.1467 62.2265 79.2174C62.1604 79.2394 62.0227 79.2699 61.9604 79.2942C61.8281 79.3451 61.8402 79.3216 61.8053 79.482C61.7406 79.7778 61.8714 79.9573 61.6889 80.7808C60.7642 84.9405 55.7035 87.8279 51.3979 87.1207C50.8929 87.0378 50.2154 86.8606 49.772 86.6454C49.5781 86.5511 49.5104 86.5001 49.2945 86.437C49.2184 86.5298 49.1044 86.615 48.9994 86.6994C48.8861 86.7906 48.8268 86.8621 48.7066 86.9632C48.4451 87.1822 48.3751 87.38 47.9774 87.1906ZM71.456 93.6293C72.7229 93.5852 73.24 93.3783 74.2514 92.9122C76.2012 92.0133 77.7662 90.3647 78.4787 88.3488C78.7038 87.7123 78.6665 87.4606 78.7076 86.7762C79.2277 86.6758 79.754 87.4773 79.7912 88.0096C79.8445 88.7647 79.4064 89.2514 78.8886 89.4453C78.284 89.6719 78.8163 90.1715 78.4764 91.3905C78.227 92.2833 77.6095 93.0148 76.77 93.2399C76.4727 93.3198 75.8103 93.2414 75.6848 93.3586C75.5563 93.4787 75.4407 94.176 74.5366 94.6125C73.9929 94.8749 73.2636 95.0992 72.6119 94.8483C72.1526 94.6718 71.5693 94.1175 71.456 93.6293ZM18.1217 86.7769C18.2008 88.1009 18.2289 88.2689 18.8943 89.5214C19.6806 91.0019 21.0114 92.1806 22.5482 92.8993C22.9642 93.0939 23.352 93.2544 23.8022 93.4034C24.4318 93.6118 24.6775 93.6049 25.3725 93.6293C25.2607 94.1122 24.6889 94.6566 24.2486 94.8361C23.3642 95.1965 21.9429 94.6969 21.3832 93.8064C21.3163 93.6992 21.2433 93.4901 21.1825 93.4049C20.9521 93.0833 20.3156 93.6027 19.3171 92.8711C18.5977 92.3434 18.2107 91.3654 18.2251 90.4027C18.2312 90.005 18.3544 89.6043 17.9719 89.4575C16.2586 88.799 17.2624 86.6104 18.1217 86.7769ZM66.0812 87.7868H30.7488H66.0812ZM33.3374 79.2949C33.2499 79.5702 33.0438 79.9337 32.9138 80.2174C32.7731 80.5238 32.6187 80.8508 32.5184 81.1588C32.1001 82.015 31.688 83.3998 31.4317 84.396C31.2667 85.037 31.0918 85.418 30.8424 85.9944C30.6439 86.453 30.3952 87.075 30.1587 87.491L29.2796 89.364C29.0432 89.8187 28.4371 90.9419 28.1443 91.1761C27.8858 91.6065 26.8386 92.6323 26.158 92.7608C25.8675 92.9973 25.1619 93.0574 24.7246 92.9951C23.5444 92.8278 22.0281 91.9974 21.1977 91.3358C20.3209 90.6369 18.6593 88.7008 18.7483 86.8393C18.7711 86.291 18.9217 85.8963 19.1065 85.4492C19.2365 85.1344 19.527 84.4956 19.7209 84.3063C19.8251 83.9808 20.8091 82.6584 21.0197 82.4781C21.152 82.2158 22.3627 81.012 22.641 80.8827C22.8098 80.701 23.0699 80.5253 23.2828 80.3641C24.6721 79.3124 25.5018 78.9444 26.9504 78.114L28.4538 77.2402L30.0971 76.1863L30.7351 76.9437C31.1131 77.2532 31.3899 77.6007 31.9959 78.0509C32.764 78.6204 32.9526 78.6052 33.4948 78.955L33.3374 79.2949ZM66.6804 76.1574C66.9489 76.2714 67.2667 76.53 67.5253 76.6957C67.7732 76.8547 68.1876 77.0722 68.377 77.2395L71.3982 78.9543C71.8758 79.2394 72.4058 79.5497 72.8514 79.8592C73.148 80.066 73.9822 80.6584 74.1898 80.882C74.4681 81.0113 75.6787 82.2158 75.8111 82.4774C76.0217 82.6569 77.0057 83.98 77.1099 84.3055C77.3038 84.4941 77.5943 85.1336 77.7243 85.4484C77.9091 85.8956 78.0597 86.2902 78.0825 86.8385C78.1707 88.6841 76.5236 90.6179 75.6575 91.316C74.8187 91.992 73.332 92.8011 72.1427 92.989C71.7047 93.0582 70.9731 93.0049 70.6728 92.7608C69.9922 92.6323 68.945 91.6057 68.6865 91.1761C68.3937 90.9419 67.7876 89.8187 67.5511 89.364L66.6721 87.491C66.4394 87.0826 66.1945 86.4682 66.0014 86.0248C65.7603 85.472 65.5687 85.0561 65.4075 84.431C65.1451 83.415 64.7375 82.0303 64.3124 81.1595C64.2113 80.8516 64.0577 80.5246 63.917 80.2181C63.787 79.9345 63.5809 79.5717 63.4934 79.2957L63.2805 78.9162C63.4364 78.771 64.3064 78.3809 65.0965 77.6691C65.5816 77.2319 65.8257 77.0258 66.2447 76.5018C66.3413 76.3809 66.4881 76.1756 66.5968 76.0942L66.6804 76.1574ZM28.8918 72.3399C29.0234 72.4038 28.9473 72.3635 29.0561 72.4586L29.4812 72.8464C30.0735 73.4015 31.1747 74.2433 31.8233 74.835C33.1625 76.057 32.9343 74.0783 33.0446 73.5719C33.2134 74.0023 33.7716 74.7984 34.072 75.1581C34.837 76.076 36.519 77.8075 37.3821 78.4934C38.0802 79.0478 40.0102 81.0181 40.8307 81.7778C41.2908 82.2044 41.96 83.0089 42.43 82.701C42.8938 82.396 42.8558 81.1291 42.9159 80.4873C43.0185 80.59 43.0543 80.7345 43.1136 80.8698C43.1714 81.0021 43.2315 81.1192 43.3075 81.2751C43.96 82.6204 45.1736 84.2903 46.1843 85.3868C46.2877 85.4994 46.3576 85.5982 46.4618 85.71C46.5934 85.8507 46.6671 85.8568 46.7493 86.0287C46.0732 86.5298 44.2322 86.7039 43.3197 86.6431C42.1387 86.564 41.0193 86.2416 40.0559 85.8142C37.7783 84.8028 35.7373 82.7641 35.3563 80.3124C35.1541 79.0121 35.3883 78.882 34.8484 78.7573C33.7221 78.498 32.8537 77.952 32.1245 77.3649C31.3998 76.7817 30.7336 76.0752 30.1656 75.2083C29.7952 74.6448 28.9869 73.1536 28.8918 72.3399ZM49.7401 86.0287L50.8724 84.7557C52.9203 82.2417 53.4617 80.4713 53.6381 80.2348C53.6997 80.8409 53.6929 82.1922 54.0107 82.577C54.4685 83.1329 55.0731 82.3998 55.6305 81.8812L57.6738 79.8942C57.9133 79.6653 58.1612 79.466 58.3878 79.2356L60.1368 77.6395C61.0456 76.8448 63.0957 74.6905 63.5277 73.5719C63.6425 74.092 63.4676 75.1939 64.0668 75.2213C64.3641 75.2349 65.1101 74.5452 65.3535 74.3239C65.8037 73.9148 66.7709 73.1589 67.1131 72.8251C67.2303 72.7103 67.555 72.3894 67.6994 72.3088C67.5915 73.1567 66.8455 74.5703 66.4584 75.1726C65.9398 75.9787 65.1778 76.8532 64.5208 77.3512C61.86 79.3702 61.3421 78.4022 61.3383 79.2957C61.3345 80.1003 61.0669 81.1512 60.7596 81.8652C60.0327 83.5587 58.2578 85.0872 56.4882 85.8705C54.9255 86.5625 53.0564 86.9146 51.3036 86.5693C50.8701 86.4826 50.0093 86.2621 49.7401 86.0287ZM47.8078 49.691C49.4443 49.4894 51.1157 50.2773 51.9522 51.0597C55.7521 54.6141 53.286 60.4839 48.8017 60.7797C43.4368 61.1333 41.0155 55.0361 44.1265 51.554C44.9873 50.5913 46.0238 49.9107 47.8078 49.691ZM44.6923 32.3438C46.9698 32.27 49.5447 32.1316 51.7978 32.3962C51.842 32.8175 52.086 33.5141 52.1994 33.9597C53.483 38.9923 54.1575 46.3876 53.3674 51.5426C53.2822 51.4864 53.0138 51.1327 52.9256 51.0316C51.0648 48.8978 47.8146 48.3168 45.1881 49.7875C44.0824 50.4065 43.8961 50.7966 43.2626 51.5038L43.1242 51.6179C42.5988 47.326 42.7273 43.0736 43.3303 38.7976C43.4885 37.6783 43.6923 36.5764 43.9258 35.4905L44.6923 32.3438ZM61.3041 35.1156C61.2517 34.8874 60.8197 33.9734 60.8433 33.8639C60.8555 33.8068 60.9285 33.7034 60.9657 33.5293C61.2821 32.0419 62.6068 31.0031 63.4927 31.5027C64.501 32.0708 64.0143 34.2068 62.7269 34.9498C62.0182 35.3589 61.9437 35.0593 61.3041 35.1156ZM33.3138 31.4259C34.2484 31.1385 35.1054 32.2038 35.383 32.7263C35.475 32.8996 35.5579 33.1339 35.6118 33.3513C35.7008 33.708 35.735 33.743 35.5959 34.0601L35.224 34.9756C35.1404 35.1323 35.1632 35.0928 34.9571 35.1391C33.0431 35.5711 31.6644 31.9339 33.3138 31.4259ZM52.4397 32.4502C53.6176 32.5217 54.9202 32.7361 56.0533 32.9399L58.5779 33.5042C58.7087 33.5392 58.8441 33.5726 58.9779 33.6145C59.146 33.6677 59.1734 33.7262 59.2973 33.7635C60.2547 34.0509 60.0342 33.6266 60.4638 34.6593C62.682 39.9885 64.5398 46.3268 65.3421 52.1183C65.9413 56.4452 66.2812 63.204 63.574 65.8115C62.4874 66.8579 61.622 66.6131 60.3779 66.6138C59.0205 66.6146 57.6616 66.6108 56.3042 66.6047C49.5576 66.5766 42.703 66.6465 35.9791 66.5834C34.9807 66.5743 34.0948 66.9583 32.8674 65.7697C30.2195 63.2055 30.5549 56.2787 31.1541 52.0422C31.9967 46.0857 33.8005 40.0029 36.0597 34.5673C36.3 33.9886 36.2232 34.0183 37.2848 33.7703C37.4399 33.7338 37.4498 33.6654 37.6225 33.6C38.1958 33.3825 39.9106 33.0053 40.4772 32.8981C41.6178 32.6814 42.8657 32.5004 44.0543 32.4152L43.5516 34.3437C42.4102 38.9474 41.9494 44.7313 42.2855 49.4065C42.3379 50.1373 42.411 50.8674 42.5007 51.5928C42.6809 53.0521 42.6497 52.1715 42.2832 53.4916C41.2368 57.2558 43.6581 61.0945 47.896 61.5014C47.9021 63.3857 45.5942 65.2389 43.8413 63.9713C43.6322 63.82 43.2322 63.8154 43.2718 64.1956C43.344 64.8869 46.7477 66.1188 48.2656 62.6816L48.3713 62.5036L48.4892 62.712C49.1006 64.1827 50.5796 65.2739 52.2062 64.9484C53.9697 64.5956 53.575 63.4747 52.8518 64.0078C52.137 64.5348 51.1112 64.4694 50.41 64.0481C49.9644 63.7804 49.6085 63.4451 49.3378 63.0207C49.1515 62.728 48.7637 61.9371 48.8648 61.4801C53.2282 60.9242 55.3848 56.8604 54.2495 53.3586L53.9096 52.4795C53.8739 52.3449 54.1834 49.675 54.2046 49.3221C54.4982 44.5435 54.0936 38.9893 52.9248 34.3087C52.7743 33.7072 52.5454 33.0213 52.4397 32.4502ZM59.6684 33.1848C59.8996 32.4472 59.4555 33.1278 59.7102 31.8898C60.3384 28.8412 63.9079 27.8997 65.5649 30.0731C67.0424 32.0114 66.1862 34.9407 64.171 35.8365C62.6204 36.5254 62.2767 35.7855 61.7931 36.2433C61.7049 36.1323 61.644 35.9338 61.5946 35.7802C62.3269 35.7627 62.5741 35.7794 63.1201 35.4296C64.2942 34.6783 65.0835 32.8563 64.4151 31.6092C63.4965 29.8967 60.8152 30.9841 60.3627 33.384L59.6684 33.1848ZM34.7776 36.1338C34.167 36.0015 33.4438 36.3642 32.329 35.7802C31.7305 35.4669 31.1937 34.9521 30.8758 34.4038C30.05 32.9818 30.1215 31.2464 31.069 30.0487C33.0613 27.5294 37.2704 29.3035 36.9624 33.1628L36.2803 33.4023C36.1677 33.2251 36.1654 32.7605 35.7198 32.0898C34.7906 30.6898 33.0058 30.2396 32.2309 31.5552C31.5153 32.7704 32.2712 34.5939 33.4431 35.3954C33.9351 35.7323 34.1898 35.7528 34.8864 35.7954L34.7776 36.1338ZM66.4858 19.5782C68.1945 19.3075 69.6431 20.6938 69.8074 22.182C70.0028 23.947 68.7055 25.3317 67.1831 25.5043C65.4348 25.7021 64.0364 24.3911 63.8721 22.9059C63.682 21.1873 64.79 19.8467 66.4858 19.5782ZM29.3945 19.5767C31.1222 19.3136 32.5457 20.7265 32.7024 22.1896C32.8879 23.9234 31.6287 25.3272 30.0964 25.5043C28.3481 25.7066 26.9428 24.4086 26.7679 22.9105C26.6561 21.9508 27.0074 21.1219 27.4515 20.5987C27.8972 20.074 28.4926 19.7136 29.3945 19.5767ZM37.7761 18.782C38.1951 18.7387 39.3319 18.9106 39.7456 19.014C39.8437 19.3402 40.1114 20.236 40.0855 20.5889C40.2984 20.9242 40.2414 23.2299 40.227 23.6823C40.2254 23.7416 40.227 23.8489 40.2216 23.8991L40.1707 24.0762C40.2863 24.95 39.2924 28.7552 38.9008 29.3666C38.8407 29.5856 38.6741 30.0054 38.5563 30.1719C38.4354 30.5172 37.7639 31.7461 37.5662 31.9787C37.5129 31.8784 37.3761 31.2404 37.2947 31.0297C37.1936 30.7689 36.9373 30.3575 36.9008 30.1986L36.7175 29.9773C36.278 29.3301 35.5031 28.8693 35.4293 28.7697C35.1434 28.7248 34.3366 28.0929 32.929 28.3058C32.3169 28.3986 31.767 28.6343 31.291 28.9849C31.1937 29.0571 31.0013 29.2442 30.8895 29.2799L30.4462 29.8556C29.634 30.9925 29.8294 31.7841 29.6568 32.0343C29.7701 32.7939 29.6082 33.0707 30.0264 34.0973C30.2675 34.6897 30.6028 35.1642 30.9876 35.5361C31.8804 36.3977 32.8119 36.8927 34.5282 36.7011L33.5693 39.4546C32.7275 41.9641 31.6477 45.6211 31.1922 48.1632C31.0583 48.9913 30.8743 49.7989 30.7374 50.6392C30.0728 54.7159 29.0682 64.1903 33.1168 66.7674C33.1936 66.8169 33.2765 66.8655 33.3609 66.9073C33.3997 66.9271 33.44 66.9423 33.478 66.9629C33.6248 67.0427 33.529 66.9682 33.6119 67.0549C33.7837 67.064 34.0978 67.1895 34.3183 67.2313C35.1807 67.3925 35.4286 67.2138 36.021 67.2032C36.3335 67.1971 36.6529 67.2039 36.9662 67.2039L59.349 67.2305C59.9619 67.2305 60.5125 67.2275 61.111 67.2777C61.9049 67.3438 62.1254 67.1887 62.7695 67.0815L62.828 67.0465C63.5033 66.6952 63.771 66.6085 64.4318 65.8146C67.0995 62.6124 66.4272 54.8407 65.7862 50.8674C65.6493 50.0217 65.4706 49.2104 65.3375 48.3792C65.082 46.7967 64.2797 43.9565 63.8318 42.3573C63.5596 41.3854 63.2433 40.4265 62.9284 39.4873L61.9444 36.6646C64.1467 37.0517 65.8577 35.8509 66.577 34.1278C66.9877 33.143 66.8493 32.8571 66.9611 32.0708C66.8797 31.9536 66.8531 31.4305 66.8044 31.2358C66.6303 30.5324 66.3223 30.0107 65.8691 29.4716C65.8356 29.4313 65.8409 29.4381 65.8075 29.394L65.7672 29.3339C65.6675 29.2883 65.4827 29.105 65.3497 29.0047C63.3611 27.502 61.3961 28.74 61.1863 28.7689C61.1376 28.8358 60.6623 29.1636 60.3627 29.4579C59.9832 29.8305 60.0076 29.8168 59.7399 30.2122C59.7361 30.2183 59.7239 30.2465 59.7209 30.2396C59.7178 30.2328 59.7087 30.2586 59.7019 30.267C59.1521 31.1499 59.1574 31.7202 59.0623 31.924C59.0266 32.0008 59.0479 31.9635 59.0015 32.0145C58.7696 31.4829 58.2449 30.8175 58.0152 30.1735L57.6586 29.3332C57.2745 28.7362 56.286 24.9477 56.4016 24.0778C56.3757 24.0344 56.3879 24.0823 56.3613 23.9781C56.2632 23.5941 56.3255 20.6185 56.5278 20.3318C56.5149 20.0147 56.7392 19.3067 56.8266 19.0155C57.1894 18.925 58.1795 18.7425 58.5338 18.8132C58.6631 18.7303 59.0692 18.7364 59.2205 18.7372L61.2973 18.741C61.2691 19.7136 60.4311 20.8193 60.5566 21.4558C60.6501 21.5333 60.8646 21.5675 60.9596 21.6481C61.4775 21.6116 62.9832 22.3706 63.2896 22.6078C63.4007 24.3264 64.4181 25.5127 65.8097 25.9279C66.2272 26.0526 66.6485 26.1157 67.1086 26.0792C67.8249 26.023 68.0424 25.7637 68.2994 25.9226C68.853 26.2655 70.8842 28.1788 71.3739 28.6838C72.4347 29.7773 73.1123 30.651 74.0309 31.8586C74.4392 32.3955 74.7913 32.9917 75.1799 33.5673L75.5419 34.162C75.6346 34.3163 75.8194 34.6236 75.8673 34.7992C75.1883 34.711 73.7746 34.238 73.5297 34.5201C73.3191 34.7635 73.548 35.0106 73.6347 35.1916C73.8948 35.4274 74.5837 36.7133 74.8149 37.206C76.7616 41.3687 77.8179 45.6173 77.7441 50.313C77.7175 51.9951 77.4787 54.4574 77.0628 55.9844L76.843 56.9562C76.7061 56.8368 76.4225 56.3646 76.2886 56.1859C75.8848 55.649 74.4461 53.5981 74.5259 55.4087C74.5936 57.8345 74.808 59.1242 74.1495 61.6732C73.3853 64.6329 71.4203 67.575 69.4127 69.8061L68.1671 71.1339C67.8386 71.4449 65.7641 73.3726 65.4592 73.549C65.3345 73.7194 64.2136 74.5962 64.1581 74.6213C64.0835 74.035 64.117 72.7551 63.8592 72.638C63.5862 72.5536 63.4463 72.7666 63.3406 72.9118L62.9877 73.435C62.8919 73.9703 61.6752 75.3406 61.3771 75.6646C60.5574 76.5536 59.8106 77.2448 58.9186 78.0509L57.3985 79.447C57.0487 79.7748 56.7666 80.085 56.4267 80.4052C56.1057 80.7078 55.7308 81.0462 55.435 81.3671C55.3925 81.4234 54.5491 82.1892 54.4198 82.2287C54.2062 81.9238 54.1621 80.0919 54.0967 79.4508C54.0685 79.171 54.0723 78.6699 54.0252 78.4394C53.8472 78.2881 53.6275 78.2501 53.5438 78.5581C53.2868 79.5041 53.4123 79.4425 52.899 80.6082C52.1712 82.2622 51.1826 83.6181 50.0465 84.9154C49.7758 85.2249 48.5203 86.5625 48.1949 86.6712C47.1477 85.5944 46.8344 85.4446 45.7675 84.0903C45.5105 83.7641 45.2885 83.4751 45.0322 83.1108C44.5759 82.4622 44.1607 81.8006 43.7706 81.028C42.9767 79.4562 43.1912 78.7664 43.0147 78.4083C42.484 78.3421 42.5623 78.6189 42.5174 79.0737C42.4467 79.7885 42.3646 81.9322 42.1562 82.2295C41.976 82.1747 41.0231 81.2789 40.9114 81.1025C40.8095 81.0827 40.7676 81.0052 40.6779 80.9063L39.9296 80.1961C39.5981 79.8835 39.2954 79.5543 38.9555 79.2402L37.4384 77.8425C36.6392 77.1391 36.1974 76.6904 35.4636 75.9589C35.294 75.7893 35.1662 75.6136 34.9974 75.438C34.6887 75.1186 34.3936 74.7589 34.1275 74.3787C33.9579 74.1353 33.494 73.416 33.4157 73.1354C33.2423 72.9818 33.0446 72.489 32.7168 72.638C32.4591 72.7559 32.4918 74.0365 32.418 74.6213C32.2568 74.5483 31.7633 74.1156 31.6089 73.9802L30.815 73.3027C30.2819 72.908 29.5967 72.2213 29.0926 71.781C28.3755 71.1537 27.9998 70.6457 27.4713 70.143C26.6075 69.321 25.2333 67.4359 24.609 66.4458C23.2106 64.2276 22.2334 61.9949 22.006 59.233C21.9132 58.109 22.0182 57.1243 21.9992 56.0399C22.0037 55.703 22.1817 54.8407 21.8859 54.7205C21.2844 54.4764 20.06 56.6809 19.7201 56.96L19.4342 55.646C18.311 49.77 18.7787 44.669 20.8965 39.1748C21.1642 38.4798 22.5756 35.311 23.0744 35.0045C23.3847 33.9392 21.9163 34.6418 20.7072 34.7992C20.7597 34.6076 21.3916 33.4791 21.5437 33.3719C21.6418 33.0723 22.4676 31.9689 22.6874 31.6586C23.5208 30.4845 24.387 29.5719 25.3261 28.5514C25.6721 28.175 28.1086 25.9188 28.3998 25.8678C28.447 25.8595 29.3405 26.08 29.634 26.0876C31.491 26.1355 33.1442 24.7834 33.2849 22.6078C33.5701 22.3873 34.9716 21.6824 35.4499 21.6687C35.6666 21.5447 35.7731 21.6573 36.0179 21.4558C36.1434 20.8193 35.3054 19.7136 35.2773 18.741C35.6727 18.7128 37.5342 18.6946 37.7761 18.782ZM57.0761 18.4087C57.1529 18.249 57.2114 18.0946 57.2905 17.9372C57.8205 16.8794 58.8654 15.7502 60.1209 15.7502C61.06 15.7502 61.2684 15.8125 62.1216 16.2361C62.9946 16.6695 63.7246 17.379 64.3527 18.122L65.0158 19.0026C65.0949 19.109 65.1877 19.2178 65.2234 19.3524C64.7284 19.614 64.3124 19.9501 63.9854 20.3873C63.4166 21.147 63.3991 21.7493 63.2934 21.9683C62.8486 21.7326 61.6973 21.1234 61.1064 21.1105C61.1612 20.874 61.4349 20.3485 61.552 20.0124C62.2691 17.9547 61.6053 18.195 60.206 18.195C59.6091 18.195 58.4281 18.2178 57.8289 18.3045C57.5742 18.3402 57.2951 18.3904 57.0761 18.4087ZM34.7366 18.6657C34.7366 19.7516 35.3487 20.6079 35.4658 21.1098C34.8757 21.1227 33.7237 21.7318 33.2788 21.9675C33.1982 21.7995 33.199 21.5333 33.0073 21.1242C32.8727 20.8368 32.764 20.6231 32.5868 20.3866C32.2598 19.9493 31.8439 19.614 31.3488 19.3516C31.3891 19.201 31.6477 18.8725 31.7526 18.7265C32.4286 17.7866 33.3792 16.7661 34.4218 16.2498C35.2932 15.8186 35.4886 15.7494 36.4514 15.7494C37.3061 15.7494 38.2262 16.3851 38.7 17.0163C39.2277 17.7205 39.1783 17.7463 39.4954 18.4071C39.0376 18.3691 38.5578 18.2513 37.9958 18.2345L35.3358 18.1927C35.0271 18.1942 34.7366 18.357 34.7366 18.6657ZM48.4314 12.1426C48.7553 11.9632 49.0352 11.697 49.4268 11.4879C53.5948 9.26663 59.7019 11.4476 62.695 14.462C63.6326 15.4064 64.9383 16.992 65.2949 18.3615C64.7071 17.7866 64.6463 17.3273 63.2805 16.2779C62.5733 15.735 61.533 15.1563 60.3353 15.1555C58.0289 15.154 56.7377 17.2186 56.1856 19.1851C55.286 22.3903 55.8761 26.5705 57.1628 29.6434C57.3688 30.1354 57.5795 30.5909 57.8107 31.0502L58.5475 32.3552C58.1582 32.3027 57.7415 32.1894 57.3491 32.1141C54.3605 31.5377 51.3401 31.3613 48.2838 31.3042C46.3858 31.3354 44.6071 31.3559 42.744 31.5597C41.4323 31.7035 40.2657 31.8768 39.0065 32.1993C38.6711 32.2852 38.2194 32.4616 37.9084 32.5179C37.9905 32.3278 38.1905 32.0525 38.3137 31.8487C38.7205 31.1757 39.0293 30.5438 39.3471 29.794C39.7525 28.8366 40.1023 27.7727 40.3502 26.6785C40.8832 24.3257 41.0429 21.6109 40.4156 19.2862C39.3494 15.3388 36.3282 13.9472 33.2925 16.2771C31.929 17.3235 31.875 17.7745 31.2781 18.3608C31.6347 16.9965 32.983 15.3319 33.9419 14.3973C36.8004 11.6111 42.1296 9.61112 46.1934 11.0651C46.5949 11.2088 47.0078 11.3966 47.3356 11.5974C47.9561 11.9776 47.9561 12.1556 48.4314 12.1426Z" fill="black"/>
<path fill-rule="evenodd" clip-rule="evenodd" d="M33.4133 73.1335C33.4917 73.4141 33.9548 74.1342 34.1251 74.3768C34.3905 74.757 34.6863 75.1167 34.995 75.4361C35.1639 75.611 35.2916 75.7874 35.4612 75.957C36.195 76.6886 36.6368 77.1372 37.4361 77.8406L38.9531 79.2383C39.2931 79.5532 39.5957 79.8817 39.9273 80.1942L40.6755 80.9045C40.7645 81.0026 40.8071 81.0801 40.909 81.1007C41.1067 81.2231 40.9554 81.1455 41.0117 81.0976C40.5082 78.1266 40.9219 74.3396 41.7424 71.421C41.8725 70.9594 42.017 70.5001 42.1653 70.0476C42.3158 69.586 42.4086 68.9655 43.0124 69.1001C43.3219 69.4218 43.1675 70.6408 43.1432 71.1929C43.1097 71.9579 43.0763 72.6924 43.0656 73.4651C43.0443 74.9951 42.9348 76.5372 42.9401 78.0528C43.109 78.16 43.2709 78.0247 43.3751 78.3326C43.8108 79.6163 44.3325 80.3912 45.1872 81.4512C45.6093 81.9744 46.0595 82.5067 46.5066 82.9181C46.7674 83.1577 46.9431 83.3189 47.2861 83.5538C48.2556 84.2169 48.1469 84.2101 49.0876 83.5713C50.2989 82.7478 51.5704 81.0748 52.3689 79.8201C52.5597 79.5205 52.692 79.2178 52.8358 78.871C53.1536 78.1053 52.9377 78.2102 53.3422 78.0939C53.4335 78.068 53.4008 78.0885 53.4593 78.0513C53.4647 76.5357 53.3551 74.9935 53.3339 73.4635C53.3232 72.7054 53.2928 71.9837 53.2586 71.2347C53.2335 70.6773 53.0753 69.4225 53.3871 69.0986C53.9909 68.964 54.0836 69.5853 54.2342 70.0461C55.3072 73.3282 55.7437 76.2293 55.5429 79.7227C55.5102 80.2885 55.384 80.9584 55.3718 81.1546C55.3498 81.4953 55.3315 81.2786 55.4319 81.3645C55.7277 81.0436 56.1034 80.7052 56.4235 80.4026C56.7627 80.0817 57.0456 79.7722 57.3954 79.4444L58.9155 78.0482C59.8075 77.2414 60.5542 76.5509 61.374 75.662C61.6721 75.3388 62.8888 73.9685 62.9846 73.4324C63.0272 72.4248 62.9207 71.2795 62.904 70.2484L62.8531 67.8469C62.85 67.675 62.9154 67.1617 62.7679 67.0789C62.1238 67.1861 61.9033 67.3412 61.1094 67.2751C60.5117 67.2256 59.9603 67.2287 59.3474 67.2279L36.9646 67.2013C36.6513 67.2013 36.3319 67.1952 36.0194 67.2005C35.427 67.2112 35.1798 67.3906 34.3167 67.2287C34.0962 67.1876 33.7829 67.0621 33.6103 67.0522C33.5152 67.1944 33.4209 72.4894 33.4133 73.1335Z" fill="#D99440"/>
<path fill-rule="evenodd" clip-rule="evenodd" d="M65.3375 48.3775C65.5124 48.5205 65.9025 49.3896 65.99 49.5843C66.1892 50.0261 66.3519 50.4512 66.5276 50.9364C67.6439 54.0215 67.904 57.6343 67.7899 60.9461C67.6454 65.1308 67.2439 69.0432 65.65 72.9048L65.4516 73.3998C65.3854 73.6165 65.4059 73.4819 65.4577 73.5473C65.7626 73.3709 67.8371 71.4432 68.1656 71.1322L69.4112 69.8044C71.4188 67.5733 73.3837 64.6304 74.148 61.6715C74.8065 59.1225 74.5921 57.8328 74.5244 55.407C74.5176 55.3941 74.5115 55.3781 74.5069 55.3667C74.2202 54.6344 73.7883 53.9333 73.3662 53.2725C72.9328 52.5941 72.5199 51.9561 72.1069 51.3151C71.6841 50.6588 71.2119 50.017 70.7701 49.436C70.1161 48.5744 69.3047 47.5775 68.5876 46.773C67.7686 45.8536 66.3314 44.1243 65.5428 43.3426C65.4014 43.2019 65.3002 43.0498 65.158 42.9122C64.9877 42.7472 64.9299 42.6742 64.7907 42.5076C64.6622 42.354 63.9908 41.8255 64.3124 41.5092C64.5847 41.2415 65.1451 41.7822 65.3352 41.9206C65.9702 42.3822 66.5618 42.8719 67.1717 43.3434L69.345 45.2011C70.126 45.9874 71.4233 47.2163 72.094 48.0688L73.5487 49.8733C74.3989 50.9752 76.0316 53.5591 76.5989 54.8823C76.6704 55.0496 77.0004 55.9264 77.0605 55.9819C77.4757 54.4542 77.7152 51.9926 77.7418 50.3105C77.8156 45.6148 76.7593 41.3662 74.8126 37.2036C74.5822 36.7108 73.8932 35.4249 73.6324 35.1892L73.5708 35.1519C73.5609 35.145 73.5252 35.1222 73.5138 35.1146C73.4849 35.0956 73.4507 35.069 73.4134 35.0424L72.8674 34.6895C72.6035 34.5207 72.3663 34.3762 72.0917 34.2204C71.2477 33.7405 67.266 31.9565 66.9588 32.0691C66.847 32.8554 66.9861 33.1413 66.5747 34.1261C65.8561 35.8485 64.1444 37.0492 61.9421 36.6629L62.9261 39.4856C63.241 40.4248 63.5581 41.3837 63.8295 42.3556C64.2797 43.9555 65.082 46.7958 65.3375 48.3775Z" fill="#D99440"/>
<path fill-rule="evenodd" clip-rule="evenodd" d="M23.0731 35.0024C22.5735 35.3089 21.1628 38.4784 20.8952 39.1727C18.7773 44.6669 18.3089 49.7679 19.4328 55.6438C19.5286 55.6248 19.5149 55.6028 19.5864 55.4013C19.6244 55.294 19.6503 55.234 19.6967 55.1252C20.7659 52.6371 22.8366 49.7421 24.5285 47.8212C25.0502 47.2296 25.5635 46.6729 26.1004 46.1338C26.3779 45.8547 26.6669 45.6151 26.9331 45.3368L30.4311 42.4038C30.7201 42.1802 31.0159 41.9407 31.3345 41.7209C31.4592 41.635 31.6942 41.4358 31.8653 41.4327C32.1231 41.4281 32.2447 41.6715 32.1276 41.9125C32.0448 42.0821 30.7649 43.4273 30.59 43.6349L29.8357 44.4669C29.7079 44.6304 29.5847 44.7353 29.4547 44.9003L26.0958 48.831C24.8114 50.4303 23.2457 52.85 22.2267 54.6522C22.0655 54.9374 22.1126 54.9632 22.086 55.329L21.9978 56.0378C22.0168 57.1221 21.9119 58.1069 22.0046 59.2308C22.232 61.9928 23.2084 64.2254 24.6076 66.4436C25.232 67.4337 26.6061 69.3196 27.4699 70.1409C27.9977 70.6436 28.3733 71.1515 29.0912 71.7789C29.5954 72.22 30.2805 72.9066 30.8136 73.3005C30.8721 73.2458 30.9672 73.4032 30.7779 72.9652C30.7223 72.8367 30.6896 72.7553 30.6387 72.6275C30.5459 72.3941 30.4767 72.1911 30.387 71.9424C29.0539 68.2459 28.6844 64.5737 28.6022 60.6004C28.5269 56.9708 28.787 54.0233 29.9657 50.6835C30.0615 50.4128 30.8995 48.3748 31.1923 48.1611C31.6478 45.6189 32.7276 41.962 33.5694 39.4525L34.5284 36.699C32.812 36.8906 31.8805 36.3963 30.9877 35.534C30.603 35.1621 30.2676 34.6876 30.0265 34.0952C29.6083 33.0686 29.7703 32.7918 29.657 32.0321C29.603 31.9203 29.6486 31.9424 29.4745 32.0048C29.403 32.0306 29.3323 32.0618 29.2532 32.0922L27.9407 32.5781C27.3399 32.7987 26.8144 33.0268 26.2297 33.2678C25.4243 33.6017 23.7172 34.4792 23.0731 35.0024Z" fill="#D99440"/>
<path fill-rule="evenodd" clip-rule="evenodd" d="M47.9773 87.1906V88.4263C49.2609 88.3069 50.2556 89.1579 50.2312 90.4027C50.2077 91.5692 49.2252 92.4514 47.956 92.2879L47.9537 93.3639C49.2556 93.1981 50.2807 94.1289 50.2297 95.3775C50.2023 96.0482 49.8449 96.5387 49.5118 96.8163C49.0206 97.2262 48.6411 97.2452 47.9073 97.2224L47.905 99.2756C48.4716 99.2885 49.6449 99.2451 50.1499 99.1691C50.3118 99.1448 50.4229 99.128 50.562 99.109C51.6829 98.9577 52.1171 98.8246 53.0433 98.2885C53.1468 98.2284 53.2433 98.1919 53.3536 98.1273C53.4555 98.068 53.5673 98.0041 53.6966 98.0056C53.749 98.0064 53.7954 98.0185 53.8426 98.0512C53.9566 98.1288 53.8365 98.0414 53.908 98.1151L53.9467 98.163C53.8205 98.4003 53.5209 98.455 53.0061 98.7653C52.7757 98.9037 52.2494 99.2079 51.9316 99.2345C51.9316 99.5371 52.0715 99.566 52.2996 99.9387C52.711 100.611 52.9749 101.487 53.0456 102.323C53.238 104.599 52.7893 105.435 52.7893 106.181L53.8015 106.584C55.6729 107.2 58.1467 107.19 59.8934 106.211C59.9801 106.162 60.0432 106.139 60.12 106.094C60.2204 106.037 60.4462 105.895 60.5154 105.803C60.7519 105.488 60.4561 105.79 60.8409 105.443C61.0926 105.215 61.2728 104.809 61.4401 104.627C61.9184 104.107 63.0698 101.812 63.4386 101.051C64.0188 99.8527 64.545 98.233 64.8811 96.9623C65.1427 95.9745 65.3153 95.0977 65.4515 94.0597L65.5921 92.8285C65.6522 92.4209 65.653 91.9145 65.653 91.4742C65.653 89.1746 65.6476 88.5799 65.2796 86.3161C64.9823 84.488 64.3739 82.6789 63.6751 80.9748C63.5351 80.6326 62.834 79.2136 62.8234 79.082C62.5428 79.082 62.4424 79.1459 62.2287 79.2166C62.1625 79.2387 62.0249 79.2691 61.9626 79.2934C61.8302 79.3444 61.8424 79.3208 61.8074 79.4813C61.7428 79.7771 61.8736 79.9565 61.6911 80.7801C60.7664 84.9397 55.7056 87.8271 51.4 87.1199C50.8951 87.037 50.2175 86.8598 49.7742 86.6446C49.5803 86.5503 49.5126 86.4994 49.2966 86.4363C49.2206 86.529 49.1065 86.6142 49.0016 86.6986C48.8883 86.7899 48.829 86.8613 48.7088 86.9625C48.4449 87.1823 48.375 87.38 47.9773 87.1906Z" fill="#FF338B"/>
<path fill-rule="evenodd" clip-rule="evenodd" d="M47.9046 99.2754L47.9069 97.2223C47.5175 97.0458 47.1814 97.0116 46.8209 96.5409C45.9822 95.4466 46.2886 93.7828 47.9532 93.363L47.9555 92.287C47.0765 92.0779 46.3571 91.3859 46.3776 90.3152C46.3981 89.2475 47.0689 88.6445 47.9776 88.4255V87.1897L47.1822 86.4187C47.0027 86.4947 46.8666 86.5799 46.6818 86.6536C46.5023 86.7251 46.3404 86.7837 46.1799 86.8377C44.4225 87.4361 42.0271 87.2217 40.3405 86.5122C39.0812 85.9822 37.9778 85.348 36.9976 84.3662L36.504 83.8309C35.7786 83.0165 35.2098 82.0431 34.933 80.9427C34.6204 79.6994 34.9679 79.3656 34.5771 79.2401C34.3991 79.1831 34.2592 79.1245 34.006 79.1245C33.9505 79.3625 33.6676 79.8256 33.5482 80.0819C32.1209 83.1617 31.1756 86.751 31.1756 90.1874C31.1756 91.1007 31.1467 92.1106 31.2494 92.9007C31.2806 93.1379 31.2874 93.344 31.3079 93.5706C31.4547 95.1493 31.9368 97.1234 32.4456 98.6504L34.1284 102.542C34.3855 103.015 35.1048 104.298 35.4311 104.67C35.5466 104.802 35.7345 105.239 36.0341 105.482C36.3953 105.776 36.174 105.666 36.3527 105.849C36.8272 106.337 38.5359 106.883 39.3694 106.949C40.2819 107.022 41.1389 107.017 41.964 106.849C43.3389 106.57 43.7442 106.25 44.04 106.181C44.04 105.827 43.9526 105.583 43.8986 105.25C43.6636 103.805 43.6225 101.953 44.1989 100.594C44.3221 100.304 44.4043 100.135 44.5632 99.8861C44.7875 99.5355 44.9351 99.4815 44.9411 99.2344L43.8834 98.7485C43.545 98.5796 43.1663 98.4572 42.9686 98.1629C43.0104 98.0838 43.072 97.9736 43.1686 97.9416C43.4514 97.8481 45.0643 99.3431 47.9046 99.2754Z" fill="#3686FE"/>
<path fill-rule="evenodd" clip-rule="evenodd" d="M48.2838 31.3046L48.4314 12.1423C47.9553 12.1552 47.9561 11.9772 47.3348 11.597C47.007 11.397 46.5941 11.2084 46.1926 11.0647C42.1288 9.61075 36.7997 11.6107 33.9412 14.397C32.9822 15.3316 31.634 16.9962 31.2773 18.3604C31.8743 17.7741 31.9283 17.3231 33.2917 16.2768C36.3274 13.9468 39.3487 15.3376 40.4148 19.2858C41.0429 21.6105 40.8825 24.3253 40.3494 26.6781C40.1015 27.7716 39.7517 28.8362 39.3464 29.7936C39.0285 30.5434 38.7198 31.1754 38.3129 31.8483C38.1897 32.0529 37.9897 32.3274 37.9076 32.5175C38.2186 32.4613 38.6703 32.2841 39.0057 32.1989C40.2657 31.8772 41.4315 31.7031 42.7433 31.5594C44.6071 31.3563 46.3858 31.3358 48.2838 31.3046Z" fill="#FF338B"/>
<path fill-rule="evenodd" clip-rule="evenodd" d="M48.4312 12.1426L48.2837 31.305C51.3399 31.362 54.3604 31.5385 57.3489 32.1149C57.7413 32.1902 58.1573 32.3035 58.5474 32.3559L57.8105 31.051C57.5786 30.5917 57.3687 30.1362 57.1626 29.6442C55.8752 26.5705 55.2851 22.3911 56.1855 19.1859C56.7375 17.2194 58.0288 15.1548 60.3352 15.1563C61.5329 15.157 62.5724 15.735 63.2804 16.2787C64.6469 17.3281 64.707 17.7874 65.2948 18.3623C64.9382 16.9935 63.6332 15.408 62.6948 14.4628C59.7017 11.4484 53.5946 9.26742 49.4266 11.4887C49.035 11.697 48.7552 11.9639 48.4312 12.1426Z" fill="#3686FE"/>
<path fill-rule="evenodd" clip-rule="evenodd" d="M44.6925 32.3438L43.926 35.4905C43.6933 36.5764 43.4887 37.6783 43.3305 38.7977C42.7275 43.0736 42.5998 47.326 43.1245 51.618L43.2629 51.5039C43.8956 50.7959 44.0819 50.4066 45.1883 49.7876C47.8149 48.3169 51.0658 48.8986 52.9258 51.0317C53.014 51.1328 53.2824 51.4864 53.3676 51.5427C54.1577 46.3876 53.4832 38.9924 52.1996 33.9598C52.0863 33.5141 51.8422 32.8176 51.7981 32.3963C49.5441 32.1317 46.9693 32.2701 44.6925 32.3438Z" fill="#D9A156"/>
<path fill-rule="evenodd" clip-rule="evenodd" d="M56.4007 24.0757C56.2852 24.9464 57.2737 28.7342 57.6577 29.3311C58.8516 28.9646 59.8638 28.8657 61.1854 28.7669C61.3946 28.7387 63.3595 27.5007 65.3489 29.0026C65.4819 29.103 65.6667 29.2862 65.7663 29.3319C66.4986 29.4406 67.7306 29.8809 68.4195 30.1311C70.0659 30.7296 71.6309 31.4094 73.1236 32.2907C73.6278 32.5888 74.4658 33.1166 74.9319 33.4854C75.1737 33.677 75.1274 33.6192 75.1791 33.5645C74.7905 32.9881 74.4384 32.3919 74.03 31.8558C73.1114 30.6482 72.4339 29.7737 71.3731 28.6809C70.8833 28.1767 68.8522 26.2635 68.2986 25.9198C68.0416 25.7601 67.8248 26.0201 67.1078 26.0764C66.6477 26.1129 66.2264 26.0498 65.8089 25.9251C64.4173 25.5099 63.3998 24.3236 63.2888 22.605C62.9824 22.3677 61.4767 21.6088 60.9588 21.6453C60.2531 21.7518 59.19 22.3023 58.5847 22.6179C58.2395 22.7981 56.5422 23.627 56.3779 23.7692L56.4007 24.0757Z" fill="#D99440"/>
<path fill-rule="evenodd" clip-rule="evenodd" d="M21.5422 33.3703C21.613 33.4114 21.5255 33.4045 21.6152 33.3665L22.5103 32.7673C24.1741 31.6745 26.3353 30.6905 28.2326 30.0426C28.8478 29.8327 30.2538 29.3301 30.8903 29.2791C31.0021 29.2434 31.1938 29.0563 31.2919 28.9841C31.7679 28.6335 32.3177 28.3978 32.9298 28.305C34.3374 28.0921 35.1442 28.7232 35.4302 28.7689C36.056 28.8449 36.6301 28.8662 37.2514 28.9765C37.5358 29.0267 37.8332 29.0867 38.0993 29.1499C38.3472 29.2084 38.7039 29.3483 38.9031 29.3658C39.2947 28.7544 40.2886 24.9492 40.173 24.0754L40.1685 23.8169C39.3373 23.4595 36.1594 21.6146 35.4499 21.6671C34.9724 21.6808 33.5701 22.3857 33.285 22.6063C33.1443 24.7819 31.4911 26.1339 29.6341 26.086C29.3406 26.0784 28.4478 25.8579 28.3999 25.8663C28.1094 25.918 25.673 28.1734 25.3262 28.5499C24.387 29.5704 23.5209 30.4829 22.6875 31.657C22.4662 31.9673 21.6403 33.0707 21.5422 33.3703Z" fill="#D99440"/>
<path fill-rule="evenodd" clip-rule="evenodd" d="M47.9149 49.8744C49.7141 49.5443 51.1772 50.866 51.4251 52.3595C51.7224 54.1488 50.4441 55.6195 48.9552 55.8659C47.0921 56.1739 45.6549 54.8674 45.4191 53.3496C45.1324 51.5002 46.4092 50.1504 47.9149 49.8744ZM47.8077 49.6911C46.0229 49.9109 44.9872 50.5915 44.1271 51.5549C41.0162 55.037 43.4374 61.1342 48.8023 60.7806C53.2866 60.4848 55.7527 54.615 51.9528 51.0607C51.1156 50.2774 49.4441 49.4896 47.8077 49.6911Z" fill="#F12004"/>
<path fill-rule="evenodd" clip-rule="evenodd" d="M49.74 86.0283C50.0092 86.2617 50.87 86.4822 51.3042 86.5682C53.057 86.9134 54.9262 86.5613 56.4889 85.8693C58.2585 85.0861 60.0333 83.5576 60.7603 81.8641C61.0668 81.15 61.3344 80.0991 61.339 79.2946C61.3436 78.401 61.8614 79.3691 64.5215 77.3501C65.1777 76.852 65.9404 75.9775 66.4591 75.1714C66.8461 74.5699 67.5921 73.1555 67.7001 72.3076C67.5556 72.3882 67.2309 72.7099 67.1138 72.824C66.7724 73.1578 65.8043 73.9137 65.3541 74.3228C65.1108 74.5441 64.3648 75.2338 64.0675 75.2201C63.4675 75.1927 63.6424 74.0909 63.5283 73.5707C63.0964 74.6886 61.047 76.8436 60.1375 77.6383L58.3885 79.2345C58.1619 79.4649 57.914 79.6641 57.6744 79.893L55.6311 81.8801C55.0737 82.3987 54.4692 83.131 54.0114 82.5759C53.6943 82.1911 53.7011 80.8398 53.6388 80.2337C53.4624 80.4702 52.9202 82.2405 50.873 84.7545L49.74 86.0283Z" fill="#F5F1F0"/>
<path fill-rule="evenodd" clip-rule="evenodd" d="M29.0554 72.4585C28.9466 72.3627 29.0227 72.4037 28.8911 72.3398C28.9862 73.1543 29.7945 74.6447 30.1641 75.2082C30.7321 76.0751 31.399 76.7816 32.123 77.3648C32.8523 77.9519 33.7207 78.4979 34.8469 78.7572C35.3868 78.8819 35.1526 79.0119 35.3549 80.3123C35.7358 82.7639 37.7769 84.8034 40.0544 85.8141C41.0179 86.2414 42.1372 86.5646 43.3182 86.643C44.2315 86.7038 46.0718 86.5297 46.7478 86.0285C46.6657 85.8574 46.5919 85.8513 46.4603 85.7099C46.3554 85.5981 46.2862 85.4993 46.1828 85.3867C45.1729 84.2902 43.9585 82.6202 43.306 81.275C43.23 81.1184 43.1699 81.002 43.1121 80.8697C43.0536 80.7343 43.0178 80.5906 42.9144 80.4872C42.8543 81.129 42.8924 82.3967 42.4285 82.7008C41.9593 83.0096 41.2901 82.2043 40.8293 81.7777C40.0088 81.018 38.0788 79.0477 37.3807 78.4933C36.5176 77.8074 34.8355 76.0759 34.0705 75.158C33.7701 74.7976 33.2119 74.0022 33.0431 73.5718C32.9329 74.0782 33.1602 76.0569 31.8218 74.8348C31.1732 74.2432 30.0721 73.4007 29.4797 72.8463L29.0554 72.4585Z" fill="#F5F1F0"/>
<path fill-rule="evenodd" clip-rule="evenodd" d="M40.9094 81.1006C41.0211 81.277 41.9747 82.1728 42.1542 82.2275C42.3626 81.9302 42.4447 79.7865 42.5154 79.0717C42.5603 78.6177 42.4827 78.3402 43.0127 78.4063C43.1892 78.7652 42.9747 79.455 43.7686 81.026C44.1587 81.7986 44.5739 82.4602 45.0302 83.1089C45.2865 83.4731 45.5078 83.7621 45.7655 84.0883C46.8324 85.4427 47.1457 85.5925 48.1929 86.6693C48.5183 86.5605 49.7738 85.2229 50.0445 84.9134C51.1806 83.6161 52.1692 82.2602 52.897 80.6063C53.4103 79.4398 53.2848 79.5021 53.5418 78.5561C53.6255 78.2481 53.8452 78.2862 54.0232 78.4375C54.0703 78.6679 54.0658 79.1683 54.0947 79.4489C54.1593 80.0899 54.2042 81.9218 54.4178 82.2268C54.5479 82.1872 55.3904 81.4215 55.433 81.3652C55.3327 81.2793 55.3517 81.4967 55.373 81.1553C55.3859 80.9591 55.5121 80.2892 55.5441 79.7234C55.7448 76.2299 55.3083 73.3288 54.2353 70.0468C54.0848 69.5852 53.9928 68.9647 53.3882 69.0993C53.0764 69.4232 53.2338 70.6772 53.2597 71.2353C53.2939 71.9851 53.3243 72.7068 53.335 73.4642C53.3563 74.9942 53.4658 76.5364 53.4605 78.052C53.4019 78.0892 53.4346 78.0679 53.3433 78.0945C52.938 78.2109 53.1547 78.1052 52.8369 78.8717C52.6932 79.2177 52.5609 79.5211 52.37 79.8207C51.5715 81.0755 50.3001 82.7484 49.0887 83.572C48.148 84.2115 48.2567 84.2184 47.2872 83.5545C46.9442 83.3195 46.7678 83.1583 46.5077 82.9188C46.0606 82.5066 45.6104 81.9751 45.1884 81.4519C44.3336 80.3918 43.8127 79.6169 43.3762 78.3333C43.2713 78.0253 43.1093 78.1599 42.9413 78.0535C42.9359 76.5379 43.0454 74.9957 43.0667 73.4657C43.0774 72.6931 43.1108 71.9585 43.1443 71.1935C43.1686 70.6414 43.323 69.4217 43.0135 69.1008C42.4097 68.9662 42.3169 69.5875 42.1664 70.0483C42.0188 70.5 41.8736 70.9601 41.7436 71.4217C40.923 74.3402 40.5086 78.1272 41.0128 81.0983C40.9557 81.1454 41.1071 81.223 40.9094 81.1006Z" fill="#9D571B"/>
<path fill-rule="evenodd" clip-rule="evenodd" d="M64.3115 81.1591C64.7366 82.0298 65.145 83.4153 65.4066 84.4305C65.5678 85.0556 65.7586 85.4715 66.0005 86.0244C66.1936 86.4677 66.4385 87.0821 66.6712 87.4905C66.7662 87.4243 66.9214 87.4213 67.0316 87.4053C68.7107 87.1544 70.2057 86.273 71.4536 85.2267C72.6574 84.2176 73.868 82.4784 74.1889 80.8823C73.9821 80.6587 73.1479 80.0656 72.8505 79.8595C72.4057 79.55 71.8756 79.2405 71.3973 78.9545L68.3761 77.2397C68.2711 77.4937 67.716 78.1918 67.5358 78.3941C67.1852 78.7865 66.9115 79.0595 66.5754 79.4062C66.1054 79.8899 64.7967 80.9735 64.3115 81.1591Z" fill="#F52004"/>
<path fill-rule="evenodd" clip-rule="evenodd" d="M22.6399 80.8823C23.141 83.378 25.382 85.6137 27.4512 86.6251C27.8466 86.8183 28.2405 87.0031 28.6869 87.143L30.1584 87.4905C30.3949 87.0753 30.6435 86.4525 30.842 85.994C31.0914 85.4175 31.2663 85.0366 31.4314 84.3955C31.6876 83.3993 32.0998 82.0146 32.518 81.1583C31.6747 80.8366 29.9135 79.1043 29.2725 78.3713C29.0945 78.1682 28.5569 77.4915 28.4527 77.2397L26.9493 78.1135C25.5007 78.9439 24.671 79.312 23.2817 80.3636C23.0695 80.5249 22.8087 80.7005 22.6399 80.8823Z" fill="#F52004"/>
<path fill-rule="evenodd" clip-rule="evenodd" d="M30.8126 73.301L31.6066 73.9786C31.7609 74.1139 32.2545 74.5466 32.4157 74.6196C32.4902 74.0348 32.4567 72.7542 32.7145 72.6364C33.0423 72.4866 33.24 72.9801 33.4134 73.1337C33.421 72.4896 33.5153 67.1947 33.6118 67.0547C33.529 66.9681 33.6248 67.0418 33.478 66.9627C33.4392 66.9422 33.3997 66.927 33.3609 66.9072C33.2772 66.8654 33.1944 66.8167 33.1168 66.7673C29.0682 64.1902 30.0727 54.7158 30.7374 50.6391C30.8742 49.7988 31.0583 48.9912 31.1921 48.1631C30.8993 48.3768 30.0606 50.4148 29.9655 50.6855C28.7868 54.0253 28.5268 56.972 28.602 60.6024C28.6842 64.5757 29.0537 68.2479 30.3868 71.9444C30.4765 72.1923 30.5457 72.3953 30.6385 72.6295C30.6887 72.7573 30.7222 72.8394 30.7777 72.9672C30.9663 73.4044 30.8712 73.2463 30.8126 73.301Z" fill="#9C571B"/>
<path fill-rule="evenodd" clip-rule="evenodd" d="M62.7686 67.0802C62.9161 67.1631 62.8507 67.6756 62.8537 67.8483L62.9047 70.2497C62.9214 71.2817 63.0279 72.4269 62.9853 73.4337L63.3381 72.9105C63.4438 72.7645 63.5837 72.5524 63.8567 72.6368C64.1145 72.7546 64.0811 74.0337 64.1556 74.62C64.2104 74.5949 65.332 73.7181 65.4567 73.5478C65.405 73.4824 65.3845 73.6162 65.4506 73.4002L65.6491 72.9052C67.243 69.0437 67.6437 65.132 67.789 60.9465C67.9038 57.6355 67.643 54.0219 66.5267 50.9368C66.351 50.4517 66.1883 50.0266 65.989 49.5847C65.9016 49.3901 65.5115 48.5201 65.3366 48.3779C65.4696 49.2091 65.6483 50.0205 65.7852 50.8661C66.427 54.8394 67.0985 62.6111 64.4309 65.8133C63.7693 66.6072 63.5016 66.6939 62.8271 67.0452L62.7686 67.0802Z" fill="#9C571B"/>
<path fill-rule="evenodd" clip-rule="evenodd" d="M19.4319 55.6433L19.7178 56.9574C20.0577 56.6775 21.282 54.4738 21.8835 54.7179C22.1794 54.838 22.0014 55.7004 21.9969 56.0373L22.0851 55.3285C22.1117 54.9627 22.0638 54.9369 22.2257 54.6517C23.2455 52.8495 24.8112 50.4297 26.0949 48.8305L29.4537 44.8998C29.583 44.734 29.707 44.6299 29.8347 44.4664L30.5891 43.6344C30.764 43.4268 32.0446 42.0816 32.1267 41.912C32.2446 41.671 32.1229 41.4276 31.8643 41.4322C31.6932 41.4352 31.4575 41.6345 31.3335 41.7204C31.0149 41.9402 30.7191 42.1797 30.4301 42.4033L26.9321 45.3363C26.6652 45.6146 26.377 45.8542 26.0994 46.1332C25.5626 46.6724 25.0493 47.229 24.5276 47.8207C22.8356 49.7415 20.7649 52.6366 19.6958 55.1247C19.6494 55.2335 19.6228 55.2935 19.5855 55.4008C19.5148 55.603 19.5277 55.6243 19.4319 55.6433Z" fill="#9D571B"/>
<path fill-rule="evenodd" clip-rule="evenodd" d="M74.5237 55.4076C74.4438 53.597 75.8826 55.6486 76.2864 56.1847C76.4202 56.3627 76.7046 56.8357 76.8407 56.9551L77.0605 55.9832C77.0004 55.9277 76.6712 55.0502 76.5989 54.8836C76.0309 53.5605 74.399 50.9757 73.5488 49.8746L72.0941 48.0701C71.4234 47.2176 70.1261 45.988 69.3451 45.2024L67.1717 43.3447C66.5626 42.8732 65.9702 42.3835 65.3353 41.9219C65.1452 41.7843 64.5847 41.2436 64.3125 41.5105C63.9908 41.8268 64.6615 42.3554 64.7908 42.509C64.9307 42.6755 64.9885 42.7485 65.1581 42.9135C65.3003 43.0512 65.4014 43.2032 65.5429 43.3439C66.3314 44.1257 67.7679 45.8549 68.5877 46.7743C69.3048 47.5788 70.1162 48.5758 70.7701 49.4373C71.2112 50.0183 71.6842 50.6594 72.107 51.3164C72.5199 51.9567 72.9328 52.5955 73.3663 53.2738C73.7883 53.9346 74.2195 54.6357 74.507 55.368C74.5108 55.3787 74.5168 55.3946 74.5237 55.4076Z" fill="#9D571B"/>
<path fill-rule="evenodd" clip-rule="evenodd" d="M47.9152 49.874C46.4095 50.15 45.1327 51.4998 45.4194 53.3485C45.6552 54.8663 47.0924 56.1727 48.9555 55.8648C50.4444 55.6191 51.7228 54.1477 51.4254 52.3584C51.1775 50.8656 49.7137 49.5432 47.9152 49.874Z" fill="#FFA194"/>
<path fill-rule="evenodd" clip-rule="evenodd" d="M66.4858 19.578C64.79 19.8465 63.6813 21.1871 63.8721 22.9065C64.0364 24.3916 65.4348 25.7026 67.1831 25.5049C68.7055 25.3323 70.0028 23.9468 69.8074 22.1825C69.6431 20.6936 68.1945 19.3073 66.4858 19.578Z" fill="#FF338B"/>
<path fill-rule="evenodd" clip-rule="evenodd" d="M29.3946 19.5767C28.4927 19.7136 27.8973 20.0741 27.4509 20.5995C27.0068 21.1227 26.6555 21.9516 26.7673 22.9113C26.9422 24.4093 28.3475 25.7067 30.0957 25.5051C31.6288 25.328 32.8873 23.9242 32.7018 22.1904C32.5459 20.7265 31.1216 19.3136 29.3946 19.5767Z" fill="#3686FE"/>
<path fill-rule="evenodd" clip-rule="evenodd" d="M17.6274 90.9336C17.1947 91.4674 16.4731 94.9601 16.6708 95.8658C16.7491 96.2263 16.8868 96.6688 16.9826 97.0529C17.0784 97.4392 17.1552 97.9076 17.2616 98.2711C17.4662 98.9707 17.5111 99.3053 17.8358 99.9273C17.9324 100.113 17.997 100.266 18.2548 100.121C18.7301 99.8551 18.6449 98.8909 18.9955 97.8559C19.1643 97.3578 19.6654 96.192 20.203 96.0947C21.3057 95.8955 20.7825 97.808 21.7597 97.4932C22.3247 97.3107 22.5756 96.1244 22.698 95.4613C22.4524 95.2947 21.6106 95.1419 21.0692 94.4217C20.9779 94.3001 20.8182 94.0316 20.7156 93.9282C20.689 93.916 18.8571 94.0811 17.9521 92.0902C17.6753 91.4849 17.7263 91.2104 17.6274 90.9336Z" fill="#F5F1F0"/>
<path fill-rule="evenodd" clip-rule="evenodd" d="M74.1318 95.4618C74.1919 95.95 74.5136 97.3461 75.1037 97.5035C76.0405 97.753 75.5356 95.8975 76.6268 96.0952C76.8907 96.1431 77.2557 96.6192 77.3888 96.8458C78.3127 98.4244 77.9682 99.7811 78.5751 100.121C78.8519 100.276 78.9158 100.078 79.0085 99.8989C79.0975 99.7278 79.1758 99.5841 79.2351 99.397C79.3454 99.0503 79.4838 98.5849 79.5773 98.2374C79.6823 97.8488 79.7568 97.4199 79.8549 97.0191C79.9515 96.6252 80.0807 96.2222 80.1583 95.8663C80.3553 94.9606 79.6344 91.4679 79.2017 90.9341C79.15 91.0793 79.1196 91.3797 79.0701 91.5584C78.823 92.4466 78.2253 93.2709 77.4017 93.6618C77.0154 93.8458 76.6481 93.9249 76.1576 93.9234C76.0436 93.972 75.8383 94.3211 75.7615 94.423C75.22 95.1424 74.3668 95.3028 74.1318 95.4618Z" fill="#F5F1F0"/>
<path fill-rule="evenodd" clip-rule="evenodd" d="M19.7205 84.3056C20.3189 85.4608 20.2353 85.5695 21.1334 86.7254C21.4117 87.0835 21.7029 87.441 22.0033 87.7421L23.0063 88.6683C24.274 89.831 26.3393 90.8455 28.1439 91.1747C28.4366 90.9405 29.0427 89.8173 29.2792 89.3626C28.4602 89.2797 27.0793 88.7299 26.4565 88.39L24.2002 86.8744C23.8854 86.5946 23.4816 86.263 23.2025 85.9429C22.3706 84.9901 21.3501 83.6866 21.0185 82.4775C20.8087 82.657 19.8246 83.9802 19.7205 84.3056Z" fill="#F52004"/>
<path fill-rule="evenodd" clip-rule="evenodd" d="M67.5505 89.3631C67.787 89.8178 68.3931 90.941 68.6859 91.1752C71.9375 90.5813 74.7679 88.3654 76.4637 85.608C76.7192 85.1928 76.8728 84.7616 77.1093 84.3061C77.0051 83.9807 76.0211 82.6583 75.8105 82.478C75.615 83.1921 74.8599 84.4582 74.4614 84.9327L73.6067 85.9662C73.285 86.3114 72.4942 87.0232 72.0774 87.3099C71.9695 87.3844 71.9185 87.4445 71.812 87.5152C70.6379 88.2893 69.0151 89.2148 67.5505 89.3631Z" fill="#F52004"/>
<path fill-rule="evenodd" clip-rule="evenodd" d="M66.6711 87.4906L67.5502 89.3636C69.0156 89.2153 70.6376 88.2906 71.8117 87.5149C71.9182 87.4442 71.9691 87.3841 72.0771 87.3096C72.4939 87.0229 73.2847 86.3111 73.6064 85.9659L74.4611 84.9324C74.8596 84.4572 75.6147 83.1918 75.8102 82.4777C75.6778 82.2154 74.4672 81.0116 74.1889 80.8823C73.868 82.4785 72.6574 84.2176 71.4536 85.2267C70.2064 86.2731 68.7107 87.1545 67.0316 87.4054C66.9213 87.4214 66.7662 87.4244 66.6711 87.4906Z" fill="#F1ECEC"/>
<path fill-rule="evenodd" clip-rule="evenodd" d="M21.019 82.477C21.3498 83.6861 22.3711 84.9895 23.203 85.9423C23.4821 86.2617 23.8851 86.594 24.2007 86.8739L26.457 88.3894C27.0798 88.7293 28.4607 89.2791 29.2797 89.362L30.1588 87.4891L28.6873 87.1415C28.2417 87.0016 27.847 86.8168 27.4516 86.6237C25.3832 85.6115 23.1422 83.3766 22.6403 80.8809C22.3627 81.0109 21.1514 82.2154 21.019 82.477Z" fill="#F1ECEC"/>
<path fill-rule="evenodd" clip-rule="evenodd" d="M18.7476 86.8384C18.9567 87.0985 19.3232 87.7578 19.7681 88.2612C20.6243 89.23 21.7087 90.3577 22.8304 91.0733C23.7786 91.6779 24.4402 92.0984 25.5398 92.5303C25.6972 92.5919 26.0022 92.6801 26.1573 92.76C26.8379 92.6315 27.885 91.6049 28.1436 91.1752C26.339 90.8459 24.2737 89.8315 23.006 88.6688L22.003 87.7426C21.7026 87.4414 21.4114 87.0833 21.1331 86.7259C20.235 85.57 20.3186 85.4605 19.7202 84.3062C19.5262 84.4947 19.2358 85.1343 19.1057 85.4491C18.9217 85.8955 18.7704 86.2901 18.7476 86.8384Z" fill="#F1ECEC"/>
<path fill-rule="evenodd" clip-rule="evenodd" d="M68.6858 91.1752C68.9443 91.6056 69.9915 92.6315 70.6721 92.76C71.1473 92.5159 71.8797 92.3798 72.9435 91.7334C74.6264 90.7106 76.2545 89.4163 77.402 87.8316L78.0818 86.8392C78.059 86.2909 77.9085 85.8962 77.7237 85.4491C77.5936 85.1343 77.3031 84.4955 77.1092 84.3062C76.8727 84.7624 76.7191 85.1936 76.4636 85.608C74.7678 88.3654 71.9375 90.5813 68.6858 91.1752Z" fill="#F1ECEC"/>
<path fill-rule="evenodd" clip-rule="evenodd" d="M59.6683 33.1852L60.3625 33.3844C60.815 30.9844 63.4963 29.897 64.4149 31.6095C65.0841 32.8566 64.294 34.6779 63.1199 35.43C62.5739 35.7798 62.3268 35.7631 61.5945 35.7806C61.6439 35.9342 61.7047 36.1326 61.7929 36.2437C62.2758 35.7866 62.6203 36.5258 64.1708 35.8368C66.1868 34.9418 67.043 32.0126 65.5647 30.0734C63.9077 27.8993 60.3382 28.8408 59.7101 31.8901C59.4553 33.1281 59.8994 32.4483 59.6683 33.1852Z" fill="#F9D985"/>
<path fill-rule="evenodd" clip-rule="evenodd" d="M34.7776 36.134L34.8864 35.7956C34.1898 35.7538 33.9351 35.7325 33.4431 35.3956C32.2712 34.5933 31.5154 32.7698 32.2309 31.5554C33.0058 30.2398 34.7906 30.6907 35.7198 32.09C36.1647 32.7607 36.1677 33.2253 36.2803 33.4025L36.9624 33.1629C37.2711 29.3037 33.0613 27.5296 31.069 30.0489C30.1222 31.2459 30.05 32.9812 30.8758 34.404C31.1937 34.9515 31.7306 35.4671 32.329 35.7804C33.4438 36.3636 34.1678 36.0017 34.7776 36.134Z" fill="#F9D985"/>
<path fill-rule="evenodd" clip-rule="evenodd" d="M21.5421 33.3699C21.39 33.4772 20.758 34.6057 20.7056 34.7973C21.9147 34.6399 23.3831 33.9372 23.0728 35.0026C23.7169 34.4787 25.4241 33.6019 26.2294 33.2703C26.815 33.0293 27.3397 32.8011 27.9404 32.5806L29.2529 32.0947C29.332 32.0643 29.4027 32.0323 29.4742 32.0072C29.6484 31.9449 29.6027 31.9228 29.6567 32.0346C29.8293 31.7844 29.6339 30.9928 30.4461 29.8559L30.8894 29.2803C30.2529 29.3312 28.8469 29.8339 28.2317 30.0438C26.3344 30.6917 24.1732 31.6749 22.5093 32.7684L21.6143 33.3677C21.5253 33.4042 21.6128 33.4102 21.5421 33.3699Z" fill="#9D571B"/>
<path fill-rule="evenodd" clip-rule="evenodd" d="M66.9598 32.0698C67.267 31.9573 71.2487 33.742 72.0928 34.2211C72.3665 34.377 72.6045 34.5207 72.8684 34.6903L73.4144 35.0432C73.4517 35.069 73.4866 35.0956 73.5148 35.1154C73.5254 35.123 73.5612 35.1458 73.5718 35.1527L73.6334 35.1899C73.5475 35.0082 73.3178 34.761 73.5285 34.5184C73.7733 34.2363 75.187 34.7093 75.8661 34.7975C75.8182 34.6219 75.6334 34.3146 75.5406 34.1603L75.1786 33.5656C75.1269 33.6204 75.1733 33.6782 74.9315 33.4865C74.4653 33.1177 73.6281 32.5892 73.1232 32.2919C71.6304 31.4105 70.0662 30.7307 68.4191 30.1322C67.7301 29.882 66.4982 29.4418 65.7659 29.333L65.8062 29.3931C65.8396 29.4372 65.8343 29.4311 65.8678 29.4706C66.321 30.0098 66.629 30.5315 66.8031 31.2349C66.8518 31.4295 66.8784 31.9527 66.9598 32.0698Z" fill="#9D571B"/>
<path fill-rule="evenodd" clip-rule="evenodd" d="M57.3824 40.78C58.0645 40.5724 58.2828 41.6317 57.5695 41.796C57.2379 41.8728 56.936 41.6743 56.8927 41.3892C56.8303 40.977 57.0767 40.8728 57.3824 40.78ZM57.5634 40.0964C56.3383 40.3291 55.3041 41.4272 55.5695 42.9329C55.7779 44.1161 56.9474 45.1708 58.4059 44.9054C59.6052 44.6864 60.6462 43.5481 60.3861 42.0766C60.177 40.8941 59.0287 39.8188 57.5634 40.0964Z" fill="black"/>
<path fill-rule="evenodd" clip-rule="evenodd" d="M37.7867 40.78C38.4688 40.5724 38.6863 41.6317 37.9737 41.796C37.6422 41.8728 37.3403 41.6743 37.2969 41.3892C37.2346 40.977 37.481 40.8728 37.7867 40.78ZM37.9677 40.0964C36.7433 40.3291 35.7084 41.4272 35.9738 42.9329C36.1821 44.1161 37.3517 45.1708 38.8102 44.9054C40.0094 44.6864 41.0505 43.5481 40.7904 42.0766C40.5813 40.8941 39.433 39.8188 37.9677 40.0964Z" fill="black"/>
<path fill-rule="evenodd" clip-rule="evenodd" d="M71.4561 93.6295C71.5694 94.1177 72.1519 94.6721 72.6112 94.8492C73.2629 95.1002 73.9921 94.8751 74.5358 94.6135C75.4392 94.1778 75.5556 93.4797 75.6841 93.3595C75.8096 93.2417 76.4712 93.3208 76.7693 93.2409C77.6095 93.0158 78.227 92.2843 78.4757 91.3915C78.8164 90.1725 78.2833 89.6729 78.8879 89.4463C79.4057 89.2524 79.8437 88.7657 79.7905 88.0106C79.7532 87.4783 79.227 86.6768 78.7069 86.7771C78.6658 87.4615 78.7031 87.7132 78.478 88.3497C77.7654 90.3657 76.2012 92.0143 74.2507 92.9132C73.2401 93.3785 72.723 93.5854 71.4561 93.6295Z" fill="#F52004"/>
<path fill-rule="evenodd" clip-rule="evenodd" d="M18.1217 86.777C17.2624 86.6112 16.2579 88.799 17.9727 89.4576C18.3552 89.6043 18.232 90.0051 18.2259 90.4028C18.2115 91.3655 18.5985 92.3434 19.3179 92.8712C20.3164 93.6027 20.9521 93.0841 21.1833 93.405C21.2441 93.4902 21.3171 93.7 21.384 93.8065C21.9429 94.6977 23.3642 95.1973 24.2494 94.8361C24.6897 94.6567 25.2615 94.1114 25.3733 93.6293C24.6775 93.605 24.4319 93.6118 23.803 93.4035C23.3528 93.2544 22.9642 93.0932 22.549 92.8993C21.0122 92.1807 19.6814 91.0012 18.8951 89.5214C18.2297 88.2682 18.2008 88.1002 18.1217 86.777Z" fill="#F52004"/>
<path fill-rule="evenodd" clip-rule="evenodd" d="M35.4483 21.6663C36.1577 21.6138 39.3364 23.4594 40.1668 23.816L40.1714 24.0746L40.2223 23.8974C40.2276 23.8465 40.2261 23.74 40.2276 23.6807C40.2413 23.2282 40.2983 20.9226 40.0862 20.5872L40.0634 20.6655C39.5995 20.3317 39.1364 20.0359 38.6277 19.7051L37.4976 19.0329C37.3167 18.9332 37.2824 18.9393 37.138 18.7986C37.1303 18.791 37.1182 18.7789 37.1098 18.7682L37.7767 18.7804C37.5349 18.6929 35.6733 18.7112 35.2756 18.7378C35.3038 19.7104 36.1418 20.8161 36.0163 21.4526C35.7714 21.6549 35.6642 21.5423 35.4483 21.6663Z" fill="#9C571B"/>
<path fill-rule="evenodd" clip-rule="evenodd" d="M56.528 20.3299C56.3258 20.6166 56.2634 23.5922 56.3615 23.9762C56.3881 24.0796 56.3759 24.0325 56.4018 24.0758L56.379 23.7701C56.544 23.6287 58.2406 22.7991 58.5858 22.6188C59.1911 22.3032 60.2534 21.7527 60.9599 21.6462C60.8656 21.5656 60.6512 21.5314 60.5569 21.4538C60.4314 20.8173 61.2694 19.7117 61.2975 18.7391L59.2208 18.7353C59.0687 18.7345 58.6634 18.7284 58.5341 18.8113L59.2915 18.7634L59.2078 18.8569C59.201 18.8622 59.128 18.914 59.1249 18.9155C58.5037 19.3079 58.0048 19.5444 57.2033 20.0782C56.9942 20.2174 56.7296 20.4158 56.5083 20.5208L56.528 20.3299Z" fill="#9C571B"/>
<path fill-rule="evenodd" clip-rule="evenodd" d="M63.4927 79.2948C63.5801 79.5701 63.7862 79.9336 63.9162 80.2172C64.0569 80.5237 64.2113 80.8507 64.3117 81.1587C64.7968 80.9739 66.1056 79.8895 66.5755 79.4058C66.9116 79.0598 67.1854 78.7868 67.536 78.3937C67.7162 78.1922 68.2713 77.4941 68.3763 77.2393C68.1861 77.0713 67.7725 76.8545 67.5246 76.6956C67.266 76.5298 66.9489 76.2713 66.6797 76.1572C66.4326 76.4918 66.2683 76.7542 65.9983 77.0705C65.7451 77.3679 65.5003 77.6401 65.2364 77.8948C64.7254 78.3891 64.1634 78.872 63.4927 79.2948Z" fill="#F1ECEC"/>
<path fill-rule="evenodd" clip-rule="evenodd" d="M28.4531 77.2393C28.5573 77.491 29.0949 78.1678 29.2729 78.3709C29.9139 79.1039 31.6744 80.8362 32.5184 81.1579C32.6196 80.8499 32.7732 80.5229 32.9139 80.2165C33.0439 79.9328 33.25 79.5701 33.3374 79.294C32.4173 78.7146 31.3162 77.7313 30.7352 76.942L30.0972 76.1846L28.4531 77.2393Z" fill="#F1ECEC"/>
<path fill-rule="evenodd" clip-rule="evenodd" d="M61.3042 35.1156C61.9438 35.0594 62.0183 35.359 62.7263 34.9499C64.0137 34.2061 64.5004 32.0708 63.492 31.5028C62.6061 31.0032 61.2814 32.0419 60.965 33.5294C60.9278 33.7035 60.8548 33.8069 60.8426 33.864C60.8206 33.9735 61.2517 34.8875 61.3042 35.1156Z" fill="#D99440"/>
<path fill-rule="evenodd" clip-rule="evenodd" d="M33.3137 31.4253C31.6643 31.9333 33.0437 35.5705 34.9578 35.1393C35.1631 35.0929 35.1403 35.1325 35.2247 34.9758L35.5965 34.0603C35.7365 33.7432 35.7022 33.7074 35.6125 33.3515C35.5578 33.134 35.4756 32.8998 35.3836 32.7264C35.1053 32.2033 34.2483 31.1379 33.3137 31.4253Z" fill="#D99440"/>
<path fill-rule="evenodd" clip-rule="evenodd" d="M70.6719 92.7602C70.9723 93.0043 71.7038 93.0576 72.1418 92.9884C73.3311 92.8013 74.8178 91.9914 75.6566 91.3154C76.5227 90.6173 78.1698 88.6835 78.0816 86.8379L77.4018 87.8303C76.2535 89.415 74.6262 90.7101 72.9433 91.7321C71.8795 92.38 71.1472 92.5161 70.6719 92.7602Z" fill="#F52004"/>
<path fill-rule="evenodd" clip-rule="evenodd" d="M26.158 92.7599C26.0029 92.6801 25.698 92.5919 25.5406 92.5303C24.441 92.0984 23.7794 91.6778 22.8311 91.0733C21.7087 90.3577 20.6251 89.23 19.7688 88.2612C19.324 87.7578 18.9574 87.0985 18.7483 86.8384C18.6593 88.6992 20.3209 90.636 21.1977 91.3349C22.0288 91.9965 23.5452 92.8269 24.7246 92.9942C25.1619 93.0565 25.8668 92.9964 26.158 92.7599Z" fill="#F52004"/>
<path fill-rule="evenodd" clip-rule="evenodd" d="M48.0554 89.0465C48.8349 88.8883 49.4813 89.4647 49.5908 90.121C49.72 90.8997 49.2007 91.5491 48.568 91.6715C46.8402 92.0069 46.365 89.3902 48.0554 89.0465ZM47.9551 92.2882C49.2242 92.4517 50.2067 91.5696 50.2303 90.4031C50.2554 89.1575 49.26 88.3073 47.9763 88.4267C47.0676 88.6449 46.3969 89.248 46.3764 90.3164C46.3566 91.3871 47.076 92.0799 47.9551 92.2882Z" fill="black"/>
<path fill-rule="evenodd" clip-rule="evenodd" d="M48.0557 93.9777C48.8351 93.8195 49.4815 94.3959 49.591 95.0522C49.7203 95.8309 49.2009 96.4803 48.5682 96.6027C46.8405 96.9373 46.3652 94.3214 48.0557 93.9777ZM47.9067 97.2225C48.6405 97.2461 49.0199 97.2263 49.5112 96.8164C49.8443 96.5389 50.2017 96.0484 50.229 95.3777C50.28 94.129 49.2549 93.1975 47.953 93.364C46.2884 93.783 45.9812 95.4476 46.8207 96.5419C47.182 97.0119 47.5173 97.0461 47.9067 97.2225Z" fill="black"/>
<path fill-rule="evenodd" clip-rule="evenodd" d="M48.0554 89.0459C46.365 89.3897 46.8403 92.0056 48.5672 91.671C49.1999 91.5486 49.7201 90.8991 49.59 90.1204C49.4813 89.4649 48.8349 88.8878 48.0554 89.0459Z" fill="#F5EFF1"/>
<path fill-rule="evenodd" clip-rule="evenodd" d="M48.0554 93.9778C46.365 94.3215 46.8403 96.9375 48.5672 96.6029C49.1999 96.4804 49.7201 95.831 49.59 95.0523C49.4813 94.396 48.8349 93.8189 48.0554 93.9778Z" fill="#F5EFF1"/>
<path fill-rule="evenodd" clip-rule="evenodd" d="M57.6577 29.3311L58.0144 30.1714C58.0052 30.0581 57.9254 30.0588 58.4045 30.0725C58.5558 30.0771 58.7041 30.0793 58.8539 30.093C59.0577 30.1113 59.6136 30.09 59.7003 30.2657C59.7071 30.2565 59.7162 30.2314 59.7193 30.2383C59.7223 30.2451 59.7345 30.217 59.7383 30.2109C60.006 29.8155 59.9816 29.8292 60.3611 29.4565C60.6607 29.1622 61.136 28.8353 61.1847 28.7676C59.8645 28.8664 58.8516 28.9653 57.6577 29.3311Z" fill="#9D571B"/>
<path fill-rule="evenodd" clip-rule="evenodd" d="M36.9007 30.1979C37.071 30.0831 38.2033 30.0489 38.3859 30.0724C38.633 30.1044 38.5189 30.0321 38.5562 30.1713C38.6748 30.0048 38.8406 29.585 38.9007 29.366C38.7014 29.3477 38.3448 29.2086 38.0969 29.15C37.8307 29.0869 37.5334 29.0268 37.249 28.9766C36.6277 28.8664 36.0536 28.8451 35.4277 28.769C35.5015 28.8687 36.2764 29.3295 36.7159 29.9766L36.9007 30.1979Z" fill="#9D571B"/>
<path fill-rule="evenodd" clip-rule="evenodd" d="M40.0855 20.588C40.1114 20.2352 39.8437 19.3394 39.7456 19.0131C39.3319 18.9097 38.1943 18.7379 37.776 18.7812L37.1091 18.769C37.1175 18.7797 37.1297 18.7919 37.1373 18.7995C37.2818 18.9401 37.316 18.9341 37.497 19.0337L38.627 19.7059C39.1365 20.0367 39.5988 20.3325 40.0627 20.6663L40.0855 20.588Z" fill="#D99440"/>
<path fill-rule="evenodd" clip-rule="evenodd" d="M56.5278 20.3302L56.5081 20.5211C56.7293 20.4161 56.994 20.2176 57.2031 20.0785C58.0046 19.5446 58.5035 19.3081 59.1247 18.9158C59.1278 18.9142 59.2015 18.8625 59.2076 18.8572L59.2913 18.7637L58.5339 18.8116C58.1795 18.7409 57.1894 18.9234 56.8267 19.0139C56.7385 19.3043 56.5149 20.0123 56.5278 20.3302Z" fill="#D99440"/>
<path fill-rule="evenodd" clip-rule="evenodd" d="M58.0151 30.1708C58.2448 30.8149 58.7687 31.4802 59.0014 32.0118C59.047 31.9608 59.0265 31.9981 59.0622 31.9213C59.1565 31.7175 59.152 31.1472 59.7018 30.2643C59.6151 30.0886 59.0592 30.1099 58.8554 30.0917C58.7056 30.078 58.5565 30.0757 58.406 30.0711C57.9261 30.0582 58.006 30.0582 58.0151 30.1708Z" fill="#D99440"/>
<path fill-rule="evenodd" clip-rule="evenodd" d="M36.9009 30.1975C36.9374 30.3557 37.1936 30.7671 37.2948 31.0287C37.3769 31.2393 37.513 31.8773 37.5663 31.9777C37.7647 31.745 38.4355 30.5161 38.5564 30.1709C38.5191 30.0317 38.6332 30.104 38.386 30.072C38.2035 30.0485 37.0712 30.0819 36.9009 30.1975Z" fill="#D99440"/>
<path fill-rule="evenodd" clip-rule="evenodd" d="M63.4927 79.2952C64.1642 78.8724 64.7261 78.3895 65.2372 77.8952C65.501 77.6397 65.7459 77.3682 65.9991 77.0709C66.2691 76.7546 66.4326 76.4922 66.6805 76.1576L66.5961 76.0938C66.4873 76.1751 66.3406 76.3804 66.244 76.5013C65.825 77.0253 65.5809 77.2314 65.0957 77.6686C64.3056 78.3804 63.4357 78.7705 63.2798 78.9157L63.4927 79.2952Z" fill="#F42004"/>
<path fill-rule="evenodd" clip-rule="evenodd" d="M57.3827 40.7798C57.077 40.8726 56.8307 40.9767 56.893 41.3897C56.9364 41.6748 57.2383 41.8725 57.5698 41.7965C58.2831 41.6315 58.0656 40.5722 57.3827 40.7798Z" fill="#ECE7E7"/>
<path fill-rule="evenodd" clip-rule="evenodd" d="M37.7868 40.7798C37.4811 40.8726 37.2347 40.9767 37.2971 41.3897C37.3404 41.6748 37.6423 41.8725 37.9739 41.7965C38.6872 41.6315 38.4697 40.5722 37.7868 40.7798Z" fill="#ECE7E7"/>
<path fill-rule="evenodd" clip-rule="evenodd" d="M33.3371 79.2947L33.4945 78.9533C32.9523 78.6042 32.763 78.6187 31.9957 78.0491C31.3888 77.5989 31.1128 77.2514 30.7349 76.9419C31.3158 77.732 32.4162 78.7152 33.3371 79.2947Z" fill="#F42004"/>
<path fill-rule="evenodd" clip-rule="evenodd" d="M57.0814 92.1962C56.9468 92.1962 56.8297 92.1468 56.7309 92.0479C56.6351 91.9521 56.5872 91.8335 56.5872 91.6928V89.2168C56.5872 89.0761 56.6351 88.9575 56.7309 88.8617C56.8297 88.7628 56.9468 88.7134 57.0814 88.7134H59.4228V89.3202H57.3065V91.5894H59.4228V92.1962H57.0814Z" fill="#FEFEFE"/>
<path fill-rule="evenodd" clip-rule="evenodd" d="M56.0823 91.9077C55.6617 91.4857 55.2686 91.091 54.8747 90.6963C54.62 90.4408 54.366 90.1838 54.1074 89.9313C54.0504 89.8758 54.0512 89.8469 54.1074 89.7914C54.4534 89.4507 54.7956 89.1063 55.137 88.7618C55.1804 88.7184 55.2245 88.701 55.2853 88.7025C55.4055 88.7063 55.5264 88.7093 55.6465 88.7017C55.7424 88.6956 55.8024 88.742 55.8785 88.793C56.1743 88.9937 56.0663 89.2895 56.0807 89.5564C56.0823 89.5922 56.0496 89.6104 56.0268 89.6325C55.8769 89.783 55.7241 89.9313 55.5773 90.0849C55.5287 90.1359 55.4975 90.1496 55.4465 90.0887C55.3796 90.0097 55.2549 89.9412 55.2481 89.8606C55.2412 89.777 55.3743 89.7101 55.4458 89.6355C55.5401 89.5367 55.6359 89.4393 55.7355 89.3466C55.7826 89.3025 55.7827 89.2728 55.7348 89.2325C55.6496 89.161 55.5865 89.0211 55.4899 89.0173C55.4009 89.0135 55.3325 89.1496 55.2564 89.2241C55.0732 89.4036 54.896 89.5899 54.7097 89.7671C54.6374 89.8355 54.6245 89.872 54.7051 89.9503C55.1416 90.377 55.569 90.8112 56.0024 91.24C56.061 91.2986 56.0883 91.3564 56.0845 91.4393C56.0777 91.5845 56.0823 91.7275 56.0823 91.9077Z" fill="#FEFEFE"/>
<path fill-rule="evenodd" clip-rule="evenodd" d="M52.613 89.0161C52.6708 89.08 52.7271 89.1469 52.7879 89.2085C53.3712 89.794 53.9544 90.3788 54.5415 90.9605C54.6099 91.0282 54.6069 91.0624 54.54 91.1278C54.1955 91.4639 53.8563 91.8046 53.5164 92.146C53.4769 92.1863 53.4373 92.2054 53.3803 92.2023C53.2883 92.1978 53.1948 92.1909 53.1035 92.2031C52.9446 92.2244 52.8374 92.1613 52.7271 92.0502C52.6191 91.9422 52.5887 91.8328 52.5742 91.6845C52.5484 91.4153 52.629 91.2153 52.8427 91.0541C52.9347 90.9849 53.0115 90.8944 53.0906 90.8092C53.1301 90.7666 53.1545 90.7583 53.2024 90.8031C53.4488 91.032 53.4495 91.0305 53.2138 91.267C53.1172 91.3636 53.0214 91.4609 52.9233 91.5552C52.8837 91.5932 52.8761 91.6198 52.9218 91.6609C52.9879 91.7187 53.0518 91.781 53.1088 91.848C53.1605 91.9088 53.191 91.8936 53.2396 91.8434C53.4807 91.597 53.724 91.3522 53.9712 91.1119C54.0297 91.0548 54.0267 91.0275 53.9712 90.9719C53.5294 90.5347 53.0921 90.0929 52.6503 89.6549C52.6009 89.6054 52.5773 89.5575 52.5796 89.4876C52.5841 89.3393 52.5811 89.191 52.5811 89.0427C52.5917 89.0336 52.6024 89.0245 52.613 89.0161Z" fill="#FEFEFE"/>
<path fill-rule="evenodd" clip-rule="evenodd" d="M55.7437 92.2007C55.584 92.2007 55.4235 92.1992 55.2638 92.2015C55.2152 92.2022 55.1825 92.1855 55.149 92.1513C54.9893 91.9878 54.8289 91.8258 54.6654 91.6669C54.6213 91.6243 54.6152 91.5954 54.6631 91.5528C54.7437 91.4813 54.8152 91.3574 54.9003 91.3475C54.9665 91.3399 55.0501 91.473 55.1239 91.5452C55.3376 91.7543 55.5498 91.9635 55.7627 92.1734C55.7558 92.1832 55.7498 92.1916 55.7437 92.2007Z" fill="#FEFEFE"/>
<path fill-rule="evenodd" clip-rule="evenodd" d="M52.8809 88.7039C53.0854 88.7039 53.2519 88.7047 53.4185 88.7031C53.4603 88.7024 53.4839 88.726 53.5097 88.7518C53.6732 88.9161 53.8367 89.0811 54.0025 89.2438C54.0413 89.2811 54.0542 89.3046 54.0055 89.3465C53.9386 89.4035 53.8778 89.4674 53.8185 89.532C53.782 89.5716 53.7576 89.5807 53.7143 89.5366C53.4466 89.2666 53.1774 88.9997 52.8809 88.7039Z" fill="#FEFEFE"/>
<path fill-rule="evenodd" clip-rule="evenodd" d="M59.77 88.7104H60.8042L61.6498 91.3142H61.6612L62.5129 88.7104H63.5471L62.246 92.1842H61.0711L59.77 88.7104Z" fill="#FEFEFE"/>
</g>
</svg>
