<svg width="96" height="96" viewBox="0 0 96 96" fill="none" xmlns="http://www.w3.org/2000/svg">
<circle cx="48" cy="48" r="48" fill="#0B0E12"/>
<path fill-rule="evenodd" clip-rule="evenodd" d="M68.0246 55.6467L68.0768 55.6992C69.6145 57.2741 69.6145 59.8279 68.0768 61.4028L45.9493 84.0668C44.4116 85.6417 41.9182 85.6417 40.3794 84.0668C38.8418 82.4908 38.8418 79.937 40.3794 78.3622L62.508 55.6992C64.0284 54.142 66.4832 54.1246 68.0246 55.6467ZM46.2639 40.488C47.8016 42.0639 47.8016 44.6166 46.2639 46.1926L32.2579 60.5375C30.7375 62.0947 28.2827 62.1122 26.7413 60.59L26.6891 60.5375C25.1515 58.9626 25.1515 56.4078 26.6891 54.8329L40.6941 40.488C42.2328 38.9131 44.7263 38.9131 46.2639 40.488ZM69.4504 35.4107L69.5026 35.4632C71.0403 37.038 71.0403 39.5918 69.5026 41.1667L55.4966 55.5116C53.959 57.0865 51.4655 57.0865 49.9278 55.5116C48.3902 53.9367 48.3902 51.3829 49.9278 49.8081L63.9338 35.4632C65.4542 33.906 67.9091 33.8885 69.4504 35.4107ZM55.8122 11.9331C57.3499 13.5091 57.3499 16.0629 55.8122 17.6377L33.6836 40.3007C32.1632 41.8579 29.7084 41.8754 28.167 40.3532L28.1148 40.3007C26.5772 38.7258 26.5772 36.172 28.1148 34.5971L50.2424 11.9331C51.78 10.3582 54.2735 10.3582 55.8122 11.9331Z" fill="#F3BA2F"/>
</svg>
