<svg width="96" height="96" viewBox="0 0 96 96" fill="none" xmlns="http://www.w3.org/2000/svg">
<circle cx="48" cy="48" r="48" fill="white"/>
<path d="M77.3698 44.5474V29.5874C77.3698 29.558 77.3591 29.5313 77.3582 29.5037C77.3548 29.253 77.3219 29.0036 77.2603 28.7606C77.2603 28.7534 77.2541 28.7463 77.2514 28.7383C77.1846 28.5078 77.0924 28.2854 76.9764 28.0753C76.9417 28.013 76.9043 27.9551 76.8669 27.8973C76.7664 27.7389 76.6517 27.5899 76.5243 27.4523C76.478 27.4006 76.4353 27.3481 76.3845 27.3001C76.2021 27.1213 75.9989 26.9651 75.7793 26.8346L49.5448 11.6859C49.0614 11.4069 48.513 11.26 47.9548 11.26C47.3966 11.26 46.8483 11.4069 46.3648 11.6859L20.1303 26.8328C19.6468 27.112 19.2454 27.5135 18.9663 27.997C18.6873 28.4806 18.5405 29.0291 18.5408 29.5874V67.2682C18.5409 67.8264 18.6879 68.3747 18.9671 68.8581C19.2462 69.3415 19.6477 69.7428 20.1312 70.0218L33.086 77.4978C33.1252 77.5192 33.1661 77.5263 33.2035 77.5468C33.3744 77.6363 33.5532 77.7098 33.7375 77.7666C33.8061 77.7871 33.871 77.8138 33.9396 77.8289C34.1711 77.8844 34.4081 77.9143 34.6462 77.9179C34.6551 77.9179 34.6649 77.9179 34.6756 77.9179H34.6818C34.9304 77.9159 35.1778 77.8839 35.4187 77.8227C35.4846 77.8067 35.5487 77.7826 35.6145 77.7622C35.7905 77.7079 35.9614 77.6385 36.1254 77.5548C36.1921 77.5201 36.2571 77.4872 36.3221 77.448C36.5097 77.335 36.685 77.2029 36.8454 77.0537C36.8685 77.0324 36.8944 77.0172 36.9166 76.995C37.0949 76.814 37.2508 76.6123 37.3812 76.3942C37.3954 76.3702 37.4177 76.3542 37.431 76.3284C37.4622 76.275 37.4782 76.2189 37.5049 76.1646C37.558 76.063 37.6052 75.9584 37.6464 75.8513C37.6829 75.7543 37.7105 75.6573 37.7354 75.5585C37.7631 75.4601 37.7856 75.3603 37.803 75.2595C37.8218 75.1464 37.8331 75.0323 37.8369 74.9177C37.8413 74.8563 37.8564 74.8003 37.8564 74.7397V38.903L60.9074 25.5913L67.8254 29.5874L46.3648 41.9797C45.8813 42.2586 45.4797 42.6599 45.2005 43.1433C44.9213 43.6267 44.7743 44.1751 44.7744 44.7334V59.6934C44.7744 59.7228 44.7851 59.7486 44.786 59.7771C44.7891 60.0278 44.8223 60.2773 44.8848 60.5202C44.8848 60.5291 44.891 60.5353 44.8928 60.5425C44.9592 60.7737 45.0515 60.9967 45.1678 61.2073C45.2025 61.2687 45.2399 61.3265 45.2782 61.3853C45.3783 61.5435 45.4924 61.6924 45.619 61.8303C45.6662 61.8819 45.708 61.9344 45.7605 61.9825C45.9423 62.1616 46.1452 62.318 46.3648 62.4479L72.6003 77.5948C73.084 77.8741 73.6328 78.0209 74.1914 78.0206C74.75 78.0204 75.2986 77.8729 75.7821 77.5933C76.2656 77.3136 76.6669 76.9115 76.9456 76.4274C77.2243 75.9434 77.3706 75.3944 77.3698 74.8358V60.1989C77.368 59.5437 77.1946 58.9005 76.8666 58.3333C76.5387 57.7661 76.0677 57.2948 75.5008 56.9664L67.2683 52.2138L75.7767 47.301C76.2606 47.0223 76.6627 46.6211 76.9423 46.1377C77.222 45.6544 77.3694 45.1058 77.3698 44.5474ZM31.4965 69.2422L24.8998 65.4339V46.3879L31.4965 42.5796V69.2422ZM24.8998 39.0392V31.4225L47.9553 18.1108L54.552 21.9191L24.8998 39.0392ZM71.0098 61.7164V69.3312L54.3188 59.6934L60.9155 55.886L71.0098 61.7164ZM71.0098 42.7113L51.1343 54.1861V46.5695L71.0098 35.0947V42.7113Z" fill="#231F20"/>
</svg>
