<svg width="96" height="96" viewBox="0 0 96 96" fill="none" xmlns="http://www.w3.org/2000/svg">
<circle cx="48" cy="48" r="48" fill="#00D395"/>
<path fill-rule="evenodd" clip-rule="evenodd" d="M23.7174 66.9967C22.0312 65.9608 21 64.1165 21 62.1357V51.0759C21 50.6525 21.1129 50.2445 21.3237 49.8816C21.9786 48.7475 23.4313 48.3622 24.5604 49.0273L49.4158 63.5796C50.8685 64.4339 51.7643 65.9913 51.7643 67.6845V79.145C51.7643 79.6666 51.6211 80.1882 51.3503 80.6342C50.5297 81.9799 48.7833 82.4032 47.4434 81.5792L23.7174 66.9967ZM60.7669 45.9958C62.2196 46.8501 63.1154 48.4075 63.1154 50.1007V73.3542C63.1154 74.0423 62.7465 74.6772 62.1519 75.0099L56.7096 78.0867C56.6419 78.1245 56.5666 78.1547 56.4914 78.1774V65.2655C56.4914 63.5947 55.6182 62.045 54.188 61.1832L32.3587 48.0673V33.4922C32.3587 33.0688 32.4717 32.6606 32.6824 32.2978C33.3373 31.1638 34.7901 30.7783 35.9192 31.4435L60.7669 45.9958ZM71.644 28.8203C73.1042 29.667 74 31.2394 74 32.9328V66.8985C74 67.5938 73.6161 68.2363 73.0064 68.569L67.85 71.3661V47.7194C67.85 46.0489 66.9771 44.5066 65.5544 43.6447L43.2433 30.2037V16.3771C43.2433 15.9538 43.3562 15.5456 43.5594 15.1827C44.2143 14.0487 45.6671 13.6632 46.7962 14.3209L71.644 28.8203Z" fill="white"/>
</svg>
