<?xml version="1.0" encoding="utf-8"?>
<!-- Generator: Adobe Illustrator 16.0.0, SVG Export Plug-In . SVG Version: 6.00 Build 0)  -->
<!DOCTYPE svg PUBLIC "-//W3C//DTD SVG 1.1//EN" "http://www.w3.org/Graphics/SVG/1.1/DTD/svg11.dtd">
<svg version="1.1" id="Layer_1" xmlns="http://www.w3.org/2000/svg" xmlns:xlink="http://www.w3.org/1999/xlink" x="0px" y="0px"
	 width="1080px" height="1080px" viewBox="0 0 1080 1080" enable-background="new 0 0 1080 1080" xml:space="preserve">
<polygon fill="#FDD12E" stroke="#231F20" stroke-width="4" stroke-miterlimit="10" points="459.322,1049.374 305.864,999.514 
	175.327,904.676 80.487,774.136 30.626,620.68 30.626,459.323 80.487,305.864 175.327,175.327 305.864,80.487 459.322,30.626 
	620.68,30.626 774.136,80.487 904.674,175.327 999.514,305.864 1049.374,459.323 1049.374,620.68 999.514,774.136 904.674,904.676 
	774.136,999.514 620.68,1049.374 "/>
<g>
	<polygon fill="#231F20" points="464.518,981.374 334.258,939.051 223.453,858.549 142.95,747.742 100.626,617.484 100.626,480.519 
		142.95,350.258 223.453,239.453 334.258,158.95 464.518,116.626 601.484,116.626 731.742,158.95 842.547,239.453 923.051,350.258 
		965.374,480.519 965.374,617.484 923.051,747.742 842.547,858.549 731.742,939.051 601.484,981.374 	"/>
	<g>
		<path fill="#FFEB83" d="M601.009,119.626l129.354,42.03l110.036,79.945l79.945,110.036l42.029,129.357v136.015l-42.029,129.354
			l-79.945,110.038l-110.036,79.943l-129.354,42.029H464.993l-129.356-42.029l-110.036-79.943l-79.945-110.038l-42.03-129.354
			V480.994l42.03-129.357l79.945-110.036l110.036-79.945l129.356-42.03H601.009 M601.959,113.626h-0.95H464.993h-0.95l-0.904,0.293
			l-129.356,42.03l-0.904,0.294l-0.769,0.559l-110.036,79.945l-0.769,0.559l-0.559,0.769L140.802,348.11l-0.559,0.769l-0.294,0.904
			L97.919,479.14l-0.293,0.904v0.95v136.015v0.95l0.293,0.904l42.03,129.354l0.294,0.903l0.559,0.769l79.945,110.038l0.559,0.77
			l0.769,0.559l110.036,79.943l0.769,0.559l0.904,0.293l129.356,42.029l0.904,0.294h0.95h136.016h0.95l0.904-0.294l129.354-42.029
			l0.903-0.293l0.769-0.559l110.036-79.943l0.77-0.559l0.559-0.77l79.945-110.038l0.559-0.769l0.293-0.903l42.029-129.354
			l0.294-0.904v-0.95V480.994v-0.95l-0.294-0.904l-42.029-129.357l-0.293-0.904l-0.559-0.769l-79.945-110.036l-0.559-0.769
			l-0.77-0.559L733.89,156.802l-0.769-0.559l-0.903-0.294l-129.354-42.03L601.959,113.626L601.959,113.626z"/>
	</g>
</g>
<g>
	<path fill="#1E1D1D" d="M464.994,978.374l-129.356-42.029l-110.036-79.943l-79.945-110.038l-42.03-129.354V480.994l42.03-129.357
		l79.945-110.036l110.036-79.945C335.637,161.656,78,332,150,644c90.555,392.402,580.363,292.345,580.363,292.345L601.01,978.374
		H464.994z"/>
</g>
<g>
	<path fill="#FFEB83" d="M474.098,62.995c0,0-2.66,0.319-7.656,1.167c-4.99,0.844-12.294,2.203-21.509,4.299
		c-9.215,2.087-20.339,4.91-32.963,8.582c-12.605,3.734-26.715,8.323-41.795,14.123c-7.56,2.845-15.322,6.092-23.318,9.513
		c-7.953,3.527-16.143,7.232-24.396,11.375c-16.546,8.193-33.563,17.666-50.481,28.487c-16.863,10.902-33.688,23.06-49.766,36.596
		c-2.006,1.695-4.016,3.393-6.03,5.094c-1.967,1.754-3.937,3.511-5.91,5.271l-2.961,2.64l-2.896,2.718
		c-1.927,1.817-3.856,3.636-5.788,5.457c-1.913,1.839-3.768,3.742-5.657,5.611c-1.871,1.888-3.794,3.724-5.596,5.683
		c-3.646,3.874-7.356,7.69-10.845,11.711c-14.166,15.88-27.124,32.806-38.378,50.406c-11.281,17.582-21.195,35.579-29.893,53.427
		c-8.749,17.826-16.293,35.514-22.79,52.588c-1.552,4.294-3.09,8.531-4.642,12.696c-1.406,4.217-2.791,8.371-4.152,12.455
		c-0.347,1.02-0.691,2.036-1.035,3.048c-0.336,1.014-0.626,2.038-0.94,3.049c-0.616,2.028-1.227,4.038-1.832,6.028
		c-1.197,3.987-2.459,7.88-3.472,11.757c-1.07,3.865-2.119,7.65-3.143,11.35c-1.004,3.708-1.851,7.365-2.751,10.917
		c-0.852,3.562-1.854,7.001-2.546,10.404c-0.761,3.393-1.501,6.688-2.217,9.882c-0.364,1.598-0.722,3.17-1.074,4.717
		c-0.341,1.549-0.609,3.083-0.924,4.583c-0.605,3.006-1.189,5.904-1.75,8.688c-1.22,5.561-2.084,10.713-2.92,15.367
		c-0.419,2.327-0.798,4.532-1.203,6.604c-0.197,1.037-0.388,2.042-0.572,3.014c-0.156,0.975-0.306,1.917-0.451,2.824
		c-0.576,3.633-1.071,6.728-1.511,9.235c-0.873,5.023-1.338,7.702-1.338,7.702l-1.996-0.12c0,0-0.062-2.725-0.178-7.833
		c-0.087-5.112-0.267-12.625,0.117-22.172c0.165-4.776,0.254-10.081,0.698-15.83c0.203-2.879,0.414-5.875,0.633-8.984
		c0.114-1.555,0.212-3.141,0.372-4.747c0.171-1.605,0.346-3.237,0.523-4.896c0.702-6.64,1.446-13.719,2.62-21.132
		c0.576-3.708,1.091-7.528,1.76-11.416c0.728-3.879,1.473-7.847,2.234-11.9c3.277-16.167,7.41-33.64,13.354-51.686
		c5.829-18.072,13.202-36.796,22.438-55.413c9.266-18.597,20.385-37.055,33.098-54.758c12.646-17.754,26.907-34.719,42.106-50.709
		c3.746-4.051,7.711-7.89,11.61-11.778c1.928-1.967,3.977-3.808,5.972-5.699c2.014-1.873,3.993-3.778,6.029-5.617
		c2.054-1.819,4.105-3.636,6.155-5.451l3.077-2.712l3.14-2.63c2.091-1.751,4.18-3.499,6.265-5.245
		c2.129-1.689,4.255-3.375,6.377-5.057c16.96-13.479,34.755-25.246,52.422-35.749c8.889-5.164,17.7-10.11,26.52-14.567
		c4.37-2.303,8.792-4.383,13.117-6.519c2.175-1.043,4.364-2.022,6.523-3.026c2.16-1.001,4.309-1.991,6.469-2.916
		c8.577-3.839,17.061-7.234,25.282-10.452c8.264-3.112,16.268-6.05,24.046-8.591c15.518-5.191,29.97-9.194,42.847-12.396
		c12.891-3.163,24.227-5.478,33.614-7.07c9.38-1.63,16.796-2.616,21.863-3.207c5.061-0.592,7.798-0.778,7.798-0.778L474.098,62.995z
		"/>
</g>
<g>
	<path fill="#FFEB83" d="M606.958,1008.053c0.001,0,2.66-0.319,7.657-1.166c4.989-0.845,12.294-2.203,21.509-4.299
		c9.215-2.088,20.34-4.91,32.963-8.582c12.605-3.734,26.715-8.324,41.796-14.123c7.56-2.846,15.322-6.092,23.318-9.514
		c7.952-3.526,16.143-7.231,24.396-11.374c16.547-8.193,33.563-17.666,50.482-28.487c16.862-10.902,33.688-23.06,49.766-36.597
		c2.006-1.694,4.017-3.393,6.029-5.094c1.967-1.754,3.938-3.511,5.91-5.271l2.961-2.64l2.896-2.719
		c1.928-1.816,3.857-3.636,5.789-5.456c1.913-1.839,3.768-3.742,5.656-5.61c1.871-1.888,3.794-3.725,5.596-5.684
		c3.646-3.873,7.356-7.69,10.845-11.711c14.166-15.881,27.124-32.807,38.378-50.405c11.281-17.582,21.195-35.58,29.894-53.427
		c8.749-17.826,16.293-35.515,22.789-52.589c1.553-4.295,3.09-8.531,4.642-12.696c1.406-4.217,2.79-8.37,4.152-12.455
		c0.346-1.021,0.691-2.036,1.035-3.048c0.336-1.015,0.626-2.038,0.939-3.05c0.616-2.027,1.227-4.037,1.832-6.028
		c1.196-3.986,2.459-7.88,3.472-11.756c1.07-3.866,2.118-7.65,3.144-11.351c1.004-3.708,1.85-7.364,2.75-10.916
		c0.853-3.562,1.854-7.002,2.547-10.404c0.762-3.393,1.501-6.688,2.218-9.882c0.363-1.598,0.722-3.171,1.073-4.717
		c0.341-1.549,0.609-3.083,0.924-4.583c0.605-3.006,1.189-5.903,1.75-8.688c1.22-5.561,2.084-10.714,2.92-15.366
		c0.419-2.327,0.798-4.532,1.202-6.604c0.197-1.037,0.388-2.042,0.572-3.014c0.155-0.975,0.306-1.917,0.451-2.824
		c0.575-3.633,1.07-6.728,1.51-9.235c0.873-5.022,1.339-7.701,1.339-7.701l1.996,0.119c0,0,0.063,2.725,0.178,7.833
		c0.087,5.112,0.268,12.624-0.116,22.172c-0.165,4.775-0.254,10.081-0.698,15.83c-0.202,2.879-0.414,5.875-0.633,8.983
		c-0.114,1.556-0.212,3.142-0.371,4.747c-0.172,1.605-0.347,3.238-0.523,4.896c-0.702,6.641-1.446,13.72-2.62,21.133
		c-0.576,3.707-1.092,7.527-1.761,11.415c-0.729,3.879-1.473,7.848-2.234,11.9c-3.276,16.166-7.409,33.64-13.354,51.686
		c-5.829,18.072-13.202,36.796-22.438,55.412c-9.266,18.598-20.385,37.056-33.098,54.759
		c-12.646,17.754-26.906,34.719-42.106,50.709c-3.746,4.052-7.71,7.89-11.609,11.778c-1.928,1.967-3.977,3.808-5.972,5.699
		c-2.014,1.872-3.993,3.777-6.029,5.616c-2.054,1.819-4.105,3.637-6.154,5.451l-3.077,2.712l-3.14,2.63
		c-2.092,1.751-4.18,3.499-6.265,5.244c-2.13,1.689-4.256,3.375-6.378,5.058c-16.96,13.479-34.755,25.246-52.422,35.749
		c-8.889,5.163-17.699,10.109-26.52,14.566c-4.37,2.303-8.793,4.383-13.117,6.519c-2.175,1.043-4.364,2.022-6.523,3.026
		c-2.16,1.002-4.309,1.99-6.469,2.916c-8.577,3.839-17.061,7.234-25.281,10.452c-8.264,3.112-16.269,6.05-24.047,8.591
		c-15.517,5.191-29.97,9.194-42.847,12.396c-12.892,3.162-24.227,5.478-33.614,7.07c-9.381,1.63-16.797,2.616-21.863,3.207
		c-5.061,0.592-7.799,0.778-7.798,0.778L606.958,1008.053z"/>
</g>
<g>
	<g>
		<g>
			<path fill="#FDD12E" d="M118.465,527.529c0,0,3.244-0.06,9.325-0.172c6.081-0.099,15-0.313,26.352-0.448
				c11.352-0.157,25.136-0.349,40.947-0.567c15.811-0.223,33.649-0.479,53.109-0.646c19.46-0.199,40.542-0.416,62.84-0.552
				c22.298-0.138,45.812-0.282,70.137-0.432c24.324-0.083,49.46-0.264,75.002-0.276c25.541-0.038,51.488-0.074,77.435-0.112
				c25.946,0.037,51.894,0.073,77.434,0.108c25.542,0.001,50.677,0.192,75.002,0.273c24.325,0.15,47.84,0.293,70.138,0.431
				c22.299,0.138,43.38,0.349,62.84,0.552c19.459,0.168,37.298,0.419,53.11,0.647c15.81,0.22,29.594,0.412,40.945,0.571
				c11.354,0.135,20.272,0.349,26.353,0.449c6.082,0.115,9.325,0.174,9.325,0.174s-3.243,0.06-9.325,0.174
				c-6.08,0.1-14.999,0.314-26.353,0.45c-11.352,0.158-25.136,0.35-40.945,0.571c-15.813,0.227-33.651,0.479-53.11,0.647
				c-19.46,0.203-40.541,0.414-62.84,0.552c-22.298,0.137-45.813,0.281-70.138,0.431c-24.325,0.082-49.46,0.271-75.002,0.273
				c-25.54,0.036-51.488,0.072-77.434,0.108c-25.946-0.038-51.894-0.075-77.435-0.112c-25.542-0.013-50.678-0.193-75.002-0.276
				c-24.325-0.15-47.839-0.294-70.137-0.433c-22.298-0.136-43.38-0.353-62.84-0.551c-19.46-0.167-37.298-0.422-53.109-0.646
				c-15.811-0.219-29.596-0.41-40.947-0.567c-11.352-0.135-20.271-0.35-26.352-0.448
				C121.708,527.589,118.465,527.529,118.465,527.529z"/>
			<path fill="#FDD12E" d="M130.058,486.75c0,0,3.149-0.058,9.054-0.167c5.912-0.101,14.585-0.294,25.626-0.448
				c11.035-0.157,24.434-0.348,39.804-0.565c15.369-0.207,32.709-0.443,51.626-0.626c18.917-0.196,39.41-0.409,61.085-0.544
				c21.675-0.136,44.533-0.278,68.179-0.426c23.646-0.083,48.079-0.26,72.908-0.272c24.828-0.037,50.05-0.073,75.272-0.11
				c25.221,0.036,50.445,0.071,75.272,0.107c24.828,0.001,49.262,0.188,72.907,0.268c23.646,0.148,46.504,0.29,68.18,0.424
				c21.676,0.136,42.168,0.344,61.084,0.544c18.916,0.184,36.257,0.417,51.628,0.628c15.368,0.219,28.768,0.411,39.802,0.569
				c11.043,0.155,19.716,0.348,25.627,0.449c5.906,0.111,9.055,0.169,9.055,0.169s-3.149,0.059-9.055,0.169
				c-5.911,0.102-14.585,0.295-25.627,0.45c-11.034,0.158-24.434,0.35-39.802,0.569c-15.371,0.209-32.712,0.443-51.628,0.627
				c-18.916,0.201-39.408,0.408-61.084,0.544c-21.676,0.135-44.533,0.277-68.18,0.424c-23.646,0.08-48.079,0.268-72.907,0.269
				c-24.827,0.035-50.051,0.071-75.272,0.107c-25.222-0.038-50.445-0.074-75.272-0.11c-24.829-0.013-49.262-0.19-72.908-0.272
				c-23.646-0.148-46.503-0.291-68.179-0.426c-21.675-0.135-42.168-0.348-61.085-0.544c-18.917-0.182-36.257-0.418-51.626-0.626
				c-15.37-0.218-28.77-0.409-39.804-0.565c-11.041-0.154-19.714-0.348-25.626-0.448C133.207,486.808,130.058,486.75,130.058,486.75
				z"/>
			<path fill="#FDD12E" d="M141.65,445.971c0,0,3.055-0.056,8.784-0.163c5.742-0.102,14.17-0.275,24.9-0.449
				c10.717-0.156,23.731-0.346,38.66-0.563c14.928-0.19,31.77-0.407,50.143-0.606c18.374-0.193,38.278-0.404,59.33-0.537
				c21.054-0.133,43.254-0.273,66.221-0.419c22.966-0.082,46.698-0.256,70.813-0.269c24.114-0.037,48.612-0.072,73.11-0.108
				c24.497,0.035,48.995,0.07,73.109,0.105c24.115,0.001,47.847,0.186,70.813,0.264c22.968,0.146,45.167,0.286,66.221,0.418
				c21.053,0.135,40.956,0.339,59.33,0.537c18.372,0.2,35.215,0.416,50.144,0.608c14.927,0.218,27.942,0.409,38.659,0.566
				c10.73,0.175,19.159,0.348,24.9,0.45c5.729,0.107,8.785,0.164,8.785,0.164s-3.056,0.058-8.785,0.164
				c-5.741,0.103-14.17,0.276-24.9,0.451c-10.717,0.158-23.732,0.349-38.659,0.566c-14.929,0.192-31.771,0.408-50.144,0.608
				c-18.374,0.198-38.277,0.402-59.33,0.537c-21.054,0.132-43.253,0.273-66.221,0.417c-22.967,0.079-46.698,0.264-70.813,0.265
				c-24.114,0.035-48.612,0.07-73.109,0.105c-24.498-0.036-48.996-0.072-73.11-0.108c-24.116-0.013-47.848-0.187-70.813-0.269
				c-22.967-0.146-45.167-0.286-66.221-0.419c-21.052-0.133-40.956-0.343-59.33-0.537c-18.374-0.198-35.215-0.415-50.143-0.605
				c-14.929-0.218-27.943-0.408-38.66-0.564c-10.729-0.174-19.158-0.346-24.9-0.448C144.705,446.028,141.65,445.971,141.65,445.971z
				"/>
			<path fill="#FDD12E" d="M153.243,405.192c0,0,11.887-0.222,32.688-0.607c10.4-0.156,23.03-0.345,37.517-0.562
				c14.487-0.174,30.829-0.372,48.66-0.586c17.83-0.19,37.146-0.397,57.575-0.529c20.431-0.131,41.975-0.27,64.262-0.413
				c22.287-0.081,45.316-0.252,68.719-0.265c23.401-0.036,47.174-0.071,70.948-0.107c23.773,0.034,47.546,0.069,70.948,0.104
				c23.401,0.001,46.432,0.182,68.72,0.26c22.288,0.143,43.83,0.281,64.261,0.412c20.431,0.133,39.745,0.334,57.576,0.529
				c17.829,0.216,34.174,0.414,48.66,0.588c14.485,0.218,27.116,0.408,37.517,0.564c20.802,0.388,32.688,0.611,32.688,0.611
				s-11.887,0.222-32.688,0.61c-10.4,0.157-23.031,0.348-37.517,0.565c-14.486,0.174-30.831,0.372-48.66,0.588
				c-17.831,0.195-37.146,0.396-57.576,0.529c-20.431,0.13-41.973,0.269-64.261,0.411c-22.288,0.078-45.318,0.26-68.72,0.261
				c-23.401,0.035-47.175,0.07-70.948,0.104c-23.773-0.036-47.546-0.072-70.948-0.107c-23.402-0.012-46.432-0.184-68.719-0.265
				c-22.288-0.144-43.832-0.282-64.262-0.413c-20.429-0.132-39.745-0.338-57.575-0.529c-17.831-0.215-34.173-0.412-48.66-0.586
				c-14.487-0.216-27.117-0.406-37.517-0.562C165.13,405.413,153.243,405.192,153.243,405.192z"/>
			<path fill="#FDD12E" d="M172.718,377.7c0,0,11.278-0.215,31.014-0.591c9.868-0.152,21.851-0.336,35.596-0.547
				c13.745-0.169,29.251-0.361,46.169-0.57c16.917-0.186,35.244-0.387,54.627-0.515c19.385-0.127,39.825-0.262,60.972-0.402
				c21.146-0.078,42.997-0.245,65.2-0.257c22.204-0.035,44.759-0.069,67.316-0.104c22.555,0.034,45.112,0.067,67.314,0.102
				c22.205,0,44.056,0.177,65.201,0.253c21.147,0.139,41.587,0.273,60.972,0.4c19.384,0.13,37.71,0.326,54.628,0.515
				c16.916,0.21,32.424,0.403,46.169,0.573c13.745,0.212,25.728,0.397,35.596,0.549c19.737,0.378,31.015,0.595,31.015,0.595
				s-11.277,0.216-31.015,0.594c-9.868,0.153-21.851,0.338-35.596,0.55c-13.745,0.17-29.253,0.362-46.169,0.572
				c-16.918,0.19-35.244,0.386-54.628,0.516c-19.385,0.127-39.824,0.262-60.972,0.4c-21.146,0.076-42.996,0.252-65.201,0.253
				c-22.202,0.034-44.759,0.068-67.314,0.101c-22.557-0.035-45.112-0.069-67.316-0.104c-22.204-0.013-44.054-0.18-65.2-0.258
				c-21.146-0.14-41.587-0.275-60.972-0.402c-19.383-0.128-37.71-0.329-54.627-0.515c-16.918-0.208-32.424-0.4-46.169-0.57
				c-13.745-0.211-25.728-0.396-35.596-0.547C183.996,377.916,172.718,377.7,172.718,377.7z"/>
			<path fill="#FDD12E" d="M192.193,350.209c0,0,10.669-0.209,29.34-0.575c9.336-0.148,20.672-0.327,33.675-0.532
				c13.003-0.165,27.673-0.352,43.678-0.555c16.004-0.181,33.342-0.376,51.679-0.501c18.338-0.124,37.676-0.255,57.68-0.391
				c20.006-0.076,40.678-0.239,61.683-0.251c21.006-0.033,42.344-0.066,63.684-0.101c21.338,0.033,42.678,0.066,63.681,0.099
				c21.007,0,41.679,0.172,61.684,0.247c20.005,0.135,39.342,0.266,57.682,0.39c18.337,0.126,35.674,0.316,51.68,0.501
				c16.004,0.205,30.674,0.391,43.677,0.557c13.005,0.206,24.339,0.386,33.676,0.533c18.672,0.369,29.341,0.579,29.341,0.579
				s-10.669,0.21-29.341,0.578c-9.337,0.149-20.671,0.329-33.676,0.535c-13.003,0.165-27.673,0.353-43.677,0.556
				c-16.006,0.185-33.343,0.375-51.68,0.501c-18.34,0.124-37.677,0.255-57.682,0.39c-20.005,0.074-40.677,0.245-61.684,0.247
				c-21.003,0.033-42.343,0.066-63.681,0.099c-21.34-0.034-42.677-0.068-63.684-0.101c-21.005-0.012-41.677-0.175-61.683-0.251
				c-20.004-0.136-39.342-0.267-57.68-0.391c-18.337-0.125-35.675-0.32-51.679-0.501c-16.005-0.203-30.675-0.39-43.678-0.555
				c-13.003-0.205-24.339-0.384-33.675-0.531C202.862,350.418,192.193,350.209,192.193,350.209z"/>
			<path fill="#FDD12E" d="M211.668,322.717c0,0,10.06-0.202,27.666-0.559c8.803-0.144,19.494-0.317,31.755-0.517
				c12.262-0.16,26.095-0.342,41.187-0.54c15.092-0.175,31.44-0.365,48.732-0.486c17.292-0.121,35.527-0.248,54.39-0.38
				c18.865-0.074,38.357-0.232,58.164-0.244c19.809-0.032,39.929-0.065,60.051-0.098c20.121,0.032,40.244,0.064,60.048,0.096
				c19.81,0.001,39.302,0.168,58.165,0.239c18.863,0.132,37.099,0.259,54.392,0.379c17.291,0.122,33.64,0.308,48.732,0.487
				c15.09,0.199,28.924,0.38,41.185,0.541c12.264,0.2,22.95,0.375,31.756,0.518c17.606,0.358,27.666,0.563,27.666,0.563
				s-10.06,0.205-27.666,0.562c-8.806,0.145-19.492,0.319-31.756,0.52c-12.261,0.161-26.095,0.342-41.185,0.541
				c-15.093,0.18-31.441,0.365-48.732,0.487c-17.293,0.121-35.528,0.248-54.392,0.379c-18.863,0.072-38.355,0.238-58.165,0.24
				c-19.805,0.031-39.928,0.063-60.048,0.096c-20.122-0.033-40.242-0.066-60.051-0.098c-19.806-0.012-39.299-0.17-58.164-0.245
				c-18.863-0.131-37.098-0.258-54.39-0.379c-17.292-0.121-33.64-0.311-48.732-0.487c-15.092-0.197-28.925-0.378-41.187-0.539
				c-12.261-0.2-22.952-0.374-31.755-0.517C221.728,322.921,211.668,322.717,211.668,322.717z"/>
			<path fill="#FDD12E" d="M238.318,295.684c0,0,2.301-0.049,6.616-0.141c4.326-0.088,10.676-0.236,18.76-0.39
				c8.075-0.136,17.88-0.3,29.126-0.489c11.247-0.164,23.935-0.35,37.778-0.524c13.842-0.168,28.837-0.349,44.698-0.464
				c15.86-0.115,32.585-0.237,49.887-0.363c17.303-0.071,35.182-0.222,53.349-0.233c18.169-0.031,36.624-0.063,55.081-0.094
				c18.455,0.031,36.912,0.062,55.078,0.092c18.169,0,36.049,0.161,53.35,0.229c17.302,0.126,34.027,0.247,49.89,0.362
				c15.86,0.117,30.854,0.294,44.698,0.465c13.842,0.176,26.529,0.36,37.775,0.525c11.248,0.189,21.051,0.355,29.127,0.49
				c8.085,0.154,14.435,0.303,18.76,0.392c4.314,0.093,6.616,0.142,6.616,0.142s-2.302,0.049-6.617,0.142
				c-4.325,0.089-10.675,0.237-18.759,0.392c-8.076,0.136-17.879,0.301-29.127,0.491c-11.246,0.166-23.934,0.351-37.775,0.525
				c-13.844,0.172-28.838,0.349-44.698,0.466c-15.862,0.115-32.588,0.237-49.89,0.362c-17.301,0.069-35.181,0.228-53.35,0.229
				c-18.166,0.03-36.623,0.061-55.078,0.092c-18.457-0.031-36.912-0.063-55.081-0.094c-18.167-0.011-36.046-0.162-53.349-0.233
				c-17.302-0.126-34.027-0.248-49.887-0.363c-15.861-0.115-30.856-0.297-44.698-0.465c-13.843-0.173-26.531-0.359-37.778-0.523
				c-11.246-0.189-21.051-0.353-29.126-0.488c-8.084-0.153-14.434-0.301-18.76-0.39
				C240.619,295.732,238.318,295.684,238.318,295.684z"/>
			<path fill="#FDD12E" d="M264.968,268.65c0,0,2.095-0.047,6.026-0.136c3.935-0.082,9.71-0.238,17.061-0.366
				c7.346-0.128,16.266-0.283,26.497-0.461c10.231-0.167,21.774-0.357,34.368-0.508c12.592-0.16,26.234-0.333,40.664-0.443
				c14.429-0.11,29.644-0.226,45.385-0.346c15.741-0.068,32.007-0.211,48.534-0.222c16.528-0.03,33.318-0.06,50.109-0.09
				c16.788,0.029,33.58,0.059,50.107,0.087c16.528,0,32.794,0.153,48.534,0.218c15.74,0.12,30.957,0.236,45.387,0.345
				c14.43,0.111,28.071,0.281,40.664,0.444c12.593,0.152,24.136,0.34,34.367,0.51c10.232,0.179,19.15,0.335,26.498,0.463
				c7.351,0.129,13.125,0.285,17.06,0.367c3.93,0.091,6.026,0.138,6.026,0.138s-2.097,0.047-6.027,0.138
				c-3.934,0.083-9.708,0.239-17.059,0.368c-7.348,0.128-16.266,0.284-26.498,0.463c-10.231,0.169-21.774,0.357-34.367,0.51
				c-12.593,0.163-26.234,0.333-40.664,0.444c-14.43,0.109-29.646,0.226-45.387,0.345c-15.74,0.065-32.006,0.217-48.534,0.218
				c-16.527,0.029-33.319,0.058-50.107,0.088c-16.791-0.03-33.581-0.06-50.109-0.09c-16.527-0.01-32.793-0.154-48.534-0.222
				c-15.741-0.121-30.956-0.236-45.385-0.347c-14.43-0.109-28.072-0.283-40.664-0.443c-12.594-0.15-24.137-0.341-34.368-0.508
				c-10.231-0.178-19.151-0.333-26.497-0.46c-7.351-0.128-13.126-0.284-17.061-0.366C267.063,268.698,264.968,268.65,264.968,268.65
				z"/>
			<path fill="#FDD12E" d="M291.618,241.618c0,0,1.89-0.046,5.436-0.131c3.544-0.075,8.744-0.24,15.361-0.343
				c6.617-0.12,14.651-0.266,23.869-0.432c9.216-0.172,19.615-0.366,30.958-0.493c11.342-0.152,23.631-0.317,36.63-0.421
				c12.997-0.105,26.703-0.215,40.883-0.329c14.179-0.065,28.831-0.202,43.719-0.211c14.889-0.029,30.014-0.058,45.138-0.086
				c15.124,0.028,30.249,0.056,45.137,0.083c14.888,0,29.541,0.146,43.72,0.208c14.178,0.113,27.886,0.224,40.884,0.328
				c12.998,0.105,25.287,0.267,36.63,0.422c11.345,0.129,21.742,0.321,30.958,0.494c9.217,0.168,17.251,0.315,23.869,0.435
				c6.617,0.104,11.816,0.267,15.36,0.343c3.544,0.088,5.436,0.134,5.436,0.134s-1.892,0.045-5.436,0.133
				c-3.544,0.076-8.743,0.24-15.36,0.344c-6.618,0.12-14.652,0.267-23.869,0.435c-9.216,0.174-19.613,0.365-30.958,0.494
				c-11.343,0.156-23.632,0.317-36.63,0.423c-12.998,0.103-26.706,0.215-40.884,0.327c-14.179,0.063-28.832,0.208-43.72,0.208
				c-14.889,0.028-30.014,0.055-45.137,0.083c-15.125-0.029-30.25-0.058-45.138-0.086c-14.888-0.009-29.54-0.146-43.719-0.21
				c-14.18-0.115-27.886-0.225-40.883-0.33c-12.999-0.104-25.288-0.269-36.63-0.421c-11.344-0.127-21.742-0.321-30.958-0.493
				c-9.217-0.167-17.252-0.313-23.869-0.433c-6.617-0.103-11.816-0.268-15.361-0.342
				C293.508,241.663,291.618,241.618,291.618,241.618z"/>
			<path fill="#FDD12E" d="M344.406,216.417c0,0,1.631-0.037,4.678-0.106c1.593-0.032,3.572-0.082,5.907-0.136
				c2.149-0.047,4.599-0.096,7.326-0.137c5.718-0.096,12.652-0.212,20.576-0.346c7.354-0.123,15.589-0.266,24.525-0.362
				c9.028-0.114,18.769-0.237,29.037-0.312c0.889-0.006,1.781-0.013,2.677-0.02c9.526-0.069,19.484-0.141,29.73-0.215
				c11.268-0.048,22.884-0.145,34.657-0.156c11.118-0.016,22.394-0.032,33.66-0.048c11.283,0.022,22.56,0.043,33.66,0.065
				c9.928,0.003,19.717,0.083,29.244,0.132c1.117,0.006,2.232,0.011,3.342,0.016c10.563,0.079,20.785,0.159,30.499,0.237
				c9.667,0.078,18.829,0.195,27.321,0.307c8.412,0.094,16.16,0.229,23.083,0.35c7.925,0.125,14.857,0.247,20.577,0.347
				c2.725,0.042,5.173,0.093,7.32,0.139c2.338,0.053,4.319,0.103,5.912,0.136c3.046,0.07,4.679,0.107,4.679,0.107
				s-1.633,0.037-4.679,0.107c-1.593,0.033-3.572,0.083-5.908,0.137c-2.148,0.046-4.598,0.096-7.324,0.138
				c-5.719,0.099-12.652,0.221-20.577,0.347c-6.919,0.121-14.663,0.256-23.071,0.35c-8.49,0.112-17.649,0.229-27.314,0.308
				c-9.709,0.077-19.926,0.158-30.48,0.236c-1.18,0.005-2.361,0.011-3.548,0.017c-9.47,0.049-19.196,0.128-29.061,0.131
				c-11.103,0.022-22.381,0.043-33.667,0.066c-11.269-0.016-22.548-0.032-33.668-0.048c-11.771-0.011-23.386-0.108-34.652-0.155
				c-10.263-0.075-20.235-0.147-29.775-0.216c-0.883-0.007-1.762-0.013-2.638-0.019c-10.27-0.074-20.01-0.197-29.038-0.312
				c-8.936-0.097-17.169-0.239-24.522-0.362c-7.924-0.133-14.857-0.25-20.576-0.346c-2.726-0.041-5.175-0.09-7.324-0.137
				c-2.336-0.053-4.317-0.104-5.91-0.136C346.037,216.453,344.406,216.417,344.406,216.417z"/>
			<path fill="#FDD12E" d="M397.194,191.216c0,0,1.373-0.027,3.921-0.08c1.34-0.025,3.004-0.063,4.964-0.103
				c1.804-0.033,3.858-0.068,6.141-0.101c4.819-0.072,10.653-0.159,17.284-0.26c5.491-0.074,11.563-0.165,18.092-0.232
				c6.713-0.077,13.905-0.157,21.443-0.202c0.657-0.004,1.316-0.008,1.978-0.012c7.065-0.041,14.418-0.084,21.954-0.128
				c8.357-0.031,16.937-0.087,25.594-0.101c7.347-0.003,14.774-0.006,22.182-0.009c7.444,0.016,14.871,0.031,22.183,0.047
				c6.539,0.006,12.986,0.051,19.271,0.079c0.729,0.003,1.457,0.006,2.183,0.009c6.946,0.044,13.683,0.095,20.113,0.146
				c6.335,0.051,12.371,0.123,18.012,0.192c5.48,0.059,10.58,0.138,15.208,0.206c6.632,0.083,12.465,0.179,17.285,0.258
				c2.28,0.035,4.335,0.072,6.138,0.104c1.962,0.041,3.628,0.078,4.969,0.104c2.547,0.054,3.921,0.081,3.921,0.081
				s-1.375,0.028-3.922,0.082c-1.34,0.026-3.005,0.063-4.966,0.104c-1.804,0.031-3.857,0.068-6.14,0.103
				c-4.819,0.079-10.653,0.177-17.285,0.259c-4.621,0.068-9.712,0.146-15.183,0.205c-5.638,0.069-11.669,0.142-18,0.193
				c-6.419,0.051-13.145,0.103-20.078,0.146c-0.778,0.003-1.558,0.007-2.34,0.01c-6.249,0.028-12.657,0.072-19.156,0.078
				c-7.316,0.017-14.748,0.032-22.196,0.048c-7.414-0.002-14.846-0.006-22.199-0.009c-8.655-0.014-17.232-0.069-25.585-0.101
				c-7.546-0.044-14.909-0.087-21.983-0.128c-0.656-0.004-1.31-0.007-1.96-0.011c-7.54-0.045-14.733-0.126-21.446-0.203
				c-6.527-0.066-12.597-0.157-18.086-0.231c-6.631-0.1-12.464-0.188-17.283-0.261c-2.282-0.032-4.336-0.066-6.141-0.099
				c-1.961-0.041-3.627-0.078-4.967-0.104C398.567,191.244,397.194,191.216,397.194,191.216z"/>
			<path fill="#FDD12E" d="M449.982,166.016c0,0,2.613-0.045,7.186-0.125c4.575-0.058,11.108-0.139,18.948-0.237
				c7.841-0.054,16.987-0.172,26.788-0.197c9.801-0.028,20.254-0.058,30.708-0.086c10.454,0.028,20.908,0.057,30.708,0.084
				c9.802,0.021,18.947,0.145,26.787,0.197c7.842,0.058,14.375,0.186,18.948,0.238c4.573,0.081,7.188,0.126,7.188,0.126
				s-2.614,0.046-7.188,0.126c-4.573,0.052-11.106,0.18-18.948,0.238c-7.84,0.052-16.985,0.176-26.787,0.197
				c-9.8,0.027-20.254,0.056-30.708,0.084c-10.454-0.029-20.908-0.058-30.708-0.086c-9.8-0.025-18.947-0.143-26.788-0.197
				c-7.839-0.098-14.373-0.18-18.948-0.237C452.596,166.062,449.982,166.016,449.982,166.016z"/>
		</g>
		<g>
			<path fill="#FDD12E" d="M948.759,561.045c0,0-3.243,0.059-9.325,0.173c-6.08,0.099-14.999,0.313-26.353,0.448
				c-11.352,0.157-25.136,0.348-40.945,0.565c-15.813,0.225-33.651,0.479-53.11,0.646c-19.46,0.199-40.541,0.415-62.84,0.553
				c-22.298,0.136-45.813,0.281-70.138,0.432c-24.325,0.083-49.46,0.263-75.002,0.276c-25.54,0.037-51.488,0.074-77.434,0.111
				c-25.946-0.037-51.894-0.072-77.435-0.108c-25.542-0.002-50.678-0.19-75.002-0.272c-24.325-0.149-47.839-0.293-70.137-0.431
				s-43.38-0.349-62.84-0.552c-19.46-0.168-37.298-0.42-53.109-0.648c-15.811-0.22-29.596-0.411-40.947-0.569
				c-11.352-0.138-20.271-0.351-26.352-0.45c-6.081-0.114-9.325-0.174-9.325-0.174s3.244-0.062,9.325-0.174
				c6.081-0.1,15-0.314,26.352-0.451c11.352-0.157,25.136-0.35,40.947-0.569c15.811-0.229,33.649-0.479,53.109-0.647
				c19.46-0.204,40.542-0.415,62.84-0.553c22.298-0.137,45.812-0.281,70.137-0.43c24.324-0.083,49.46-0.272,75.002-0.273
				c25.541-0.035,51.488-0.072,77.435-0.107c25.946,0.037,51.894,0.074,77.434,0.11c25.542,0.013,50.677,0.193,75.002,0.277
				c24.325,0.149,47.84,0.294,70.138,0.432c22.299,0.138,43.38,0.353,62.84,0.552c19.459,0.166,37.298,0.422,53.11,0.646
				c15.81,0.22,29.594,0.41,40.945,0.567c11.354,0.135,20.272,0.35,26.353,0.447C945.516,560.983,948.759,561.045,948.759,561.045z"
				/>
			<path fill="#FDD12E" d="M937.166,601.824c0,0-3.149,0.057-9.055,0.168c-5.912,0.1-14.585,0.293-25.627,0.447
				c-11.035,0.157-24.434,0.348-39.802,0.564c-15.372,0.209-32.712,0.443-51.628,0.627c-18.916,0.196-39.408,0.408-61.084,0.544
				c-21.676,0.135-44.533,0.277-68.18,0.426c-23.646,0.083-48.078,0.259-72.907,0.272c-24.827,0.037-50.051,0.073-75.272,0.11
				c-25.222-0.037-50.445-0.071-75.272-0.106c-24.828-0.002-49.262-0.188-72.908-0.27c-23.646-0.146-46.504-0.289-68.179-0.424
				c-21.675-0.136-42.168-0.344-61.085-0.545c-18.916-0.184-36.257-0.418-51.626-0.628c-15.37-0.22-28.77-0.41-39.805-0.567
				c-11.04-0.157-19.714-0.35-25.625-0.451c-5.905-0.11-9.054-0.168-9.054-0.168s3.149-0.061,9.055-0.17
				c5.911-0.101,14.585-0.295,25.625-0.451c11.035-0.156,24.435-0.349,39.805-0.567c15.369-0.211,32.71-0.444,51.626-0.628
				c18.917-0.201,39.41-0.408,61.085-0.545c21.675-0.135,44.533-0.277,68.179-0.423c23.646-0.082,48.08-0.269,72.908-0.27
				c24.828-0.035,50.05-0.071,75.272-0.106c25.221,0.037,50.445,0.073,75.272,0.109c24.829,0.013,49.262,0.19,72.907,0.273
				c23.646,0.146,46.504,0.289,68.18,0.425s42.168,0.348,61.084,0.544c18.916,0.183,36.256,0.419,51.628,0.626
				c15.368,0.219,28.767,0.409,39.802,0.565c11.042,0.154,19.716,0.348,25.627,0.447
				C934.017,601.764,937.166,601.824,937.166,601.824z"/>
			<path fill="#FDD12E" d="M925.574,642.604c0,0-3.056,0.057-8.785,0.163c-5.742,0.102-14.17,0.273-24.9,0.448
				c-10.719,0.156-23.732,0.345-38.659,0.563c-14.93,0.191-31.771,0.407-50.144,0.606c-18.374,0.193-38.277,0.403-59.33,0.536
				c-21.054,0.133-43.255,0.273-66.221,0.42c-22.967,0.082-46.697,0.256-70.813,0.27c-24.114,0.035-48.612,0.071-73.109,0.107
				c-24.498-0.036-48.996-0.07-73.11-0.105c-24.115-0.001-47.848-0.186-70.813-0.264c-22.967-0.146-45.168-0.285-66.221-0.419
				c-21.052-0.134-40.956-0.339-59.33-0.537c-18.373-0.199-35.216-0.415-50.143-0.607c-14.929-0.219-27.943-0.409-38.661-0.566
				c-10.729-0.177-19.157-0.349-24.899-0.451c-5.729-0.106-8.784-0.163-8.784-0.163s3.055-0.059,8.785-0.165
				c5.742-0.103,14.169-0.276,24.899-0.451c10.718-0.156,23.732-0.348,38.661-0.565c14.927-0.193,31.771-0.409,50.143-0.608
				c18.374-0.198,38.278-0.402,59.33-0.537c21.053-0.132,43.254-0.273,66.221-0.417c22.966-0.08,46.699-0.265,70.813-0.266
				c24.114-0.034,48.612-0.07,73.11-0.105c24.497,0.036,48.995,0.073,73.109,0.108c24.116,0.013,47.847,0.188,70.813,0.27
				c22.966,0.146,45.167,0.285,66.221,0.419c21.053,0.134,40.956,0.342,59.33,0.537c18.373,0.198,35.214,0.414,50.144,0.605
				c14.927,0.218,27.94,0.407,38.659,0.563c10.73,0.174,19.159,0.347,24.9,0.448C922.519,642.545,925.574,642.604,925.574,642.604z"
				/>
			<path fill="#FDD12E" d="M913.981,683.382c0,0-11.889,0.222-32.688,0.606c-10.402,0.156-23.031,0.345-37.517,0.562
				c-14.488,0.176-30.83,0.372-48.66,0.587c-17.831,0.19-37.146,0.397-57.576,0.528s-41.975,0.27-64.261,0.413
				c-22.288,0.081-45.316,0.253-68.72,0.266c-23.401,0.035-47.175,0.07-70.948,0.106c-23.773-0.035-47.546-0.069-70.948-0.104
				c-23.401-0.001-46.432-0.183-68.719-0.261c-22.288-0.143-43.833-0.281-64.262-0.412c-20.43-0.132-39.745-0.335-57.575-0.529
				c-17.829-0.215-34.174-0.413-48.66-0.587c-14.487-0.219-27.117-0.409-37.518-0.565c-20.801-0.389-32.688-0.61-32.688-0.61
				s11.887-0.223,32.688-0.611c10.4-0.155,23.03-0.347,37.518-0.563c14.485-0.175,30.831-0.373,48.66-0.589
				c17.83-0.194,37.146-0.396,57.575-0.528c20.43-0.131,41.974-0.27,64.262-0.411c22.287-0.079,45.317-0.261,68.719-0.262
				c23.401-0.034,47.174-0.069,70.948-0.104c23.773,0.035,47.546,0.071,70.948,0.106c23.403,0.014,46.432,0.186,68.72,0.266
				c22.286,0.144,43.83,0.281,64.261,0.412c20.431,0.132,39.745,0.337,57.576,0.529c17.83,0.215,34.172,0.412,48.66,0.586
				c14.485,0.217,27.114,0.406,37.517,0.562C902.093,683.16,913.981,683.382,913.981,683.382z"/>
			<path fill="#FDD12E" d="M894.506,710.873c0,0-11.279,0.215-31.015,0.59c-9.869,0.152-21.852,0.336-35.596,0.547
				c-13.746,0.171-29.252,0.362-46.169,0.571c-16.918,0.186-35.244,0.387-54.628,0.515c-19.385,0.127-39.826,0.262-60.97,0.402
				c-21.147,0.078-42.998,0.245-65.202,0.258c-22.204,0.034-44.76,0.069-67.315,0.104c-22.557-0.033-45.112-0.067-67.315-0.101
				c-22.203-0.001-44.055-0.178-65.201-0.253c-21.146-0.141-41.588-0.275-60.972-0.402c-19.383-0.128-37.71-0.326-54.627-0.515
				c-16.917-0.21-32.425-0.402-46.169-0.571c-13.745-0.213-25.729-0.398-35.596-0.551c-19.737-0.378-31.014-0.594-31.014-0.594
				s11.277-0.217,31.014-0.595c9.868-0.151,21.851-0.338,35.596-0.549c13.744-0.17,29.252-0.362,46.169-0.573
				c16.917-0.189,35.244-0.385,54.627-0.514c19.384-0.127,39.825-0.263,60.972-0.4c21.146-0.077,42.998-0.254,65.201-0.255
				c22.203-0.032,44.759-0.067,67.315-0.101c22.555,0.034,45.111,0.069,67.315,0.104c22.204,0.013,44.055,0.181,65.202,0.258
				c21.144,0.141,41.585,0.274,60.97,0.402c19.384,0.128,37.71,0.328,54.628,0.515c16.917,0.209,32.423,0.4,46.169,0.57
				c13.744,0.212,25.727,0.396,35.596,0.546C883.227,710.657,894.506,710.873,894.506,710.873z"/>
			<path fill="#FDD12E" d="M875.031,738.365c0,0-10.67,0.209-29.341,0.573c-9.336,0.147-20.673,0.327-33.676,0.532
				c-13.003,0.166-27.673,0.353-43.677,0.555c-16.006,0.181-33.343,0.377-51.68,0.501c-18.34,0.124-37.678,0.255-57.68,0.392
				c-20.007,0.075-40.678,0.238-61.684,0.25c-21.007,0.033-42.345,0.068-63.683,0.102c-21.34-0.033-42.678-0.065-63.683-0.098
				c-21.006-0.002-41.678-0.173-61.683-0.247c-20.005-0.136-39.344-0.268-57.681-0.392c-18.337-0.123-35.675-0.316-51.679-0.499
				c-16.005-0.204-30.675-0.392-43.678-0.557c-13.003-0.206-24.339-0.387-33.675-0.534c-18.672-0.368-29.341-0.578-29.341-0.578
				s10.668-0.211,29.341-0.579c9.335-0.147,20.672-0.328,33.675-0.533c13.003-0.166,27.673-0.353,43.678-0.558
				c16.004-0.184,33.342-0.374,51.679-0.5c18.337-0.124,37.676-0.255,57.681-0.391c20.005-0.074,40.677-0.244,61.683-0.246
				c21.004-0.031,42.343-0.064,63.683-0.099c21.338,0.034,42.676,0.068,63.683,0.102c21.006,0.012,41.677,0.175,61.684,0.251
				c20.002,0.136,39.34,0.267,57.68,0.391c18.337,0.125,35.674,0.319,51.68,0.501c16.004,0.202,30.674,0.389,43.677,0.554
				c13.003,0.206,24.34,0.385,33.676,0.532C864.361,738.154,875.031,738.365,875.031,738.365z"/>
			<path fill="#FDD12E" d="M855.556,765.856c0,0-10.06,0.203-27.666,0.558c-8.804,0.144-19.494,0.317-31.756,0.518
				c-12.261,0.16-26.095,0.342-41.185,0.538c-15.093,0.176-31.441,0.366-48.732,0.487c-17.293,0.12-35.528,0.247-54.389,0.381
				c-18.866,0.072-38.358,0.231-58.166,0.242c-19.809,0.032-39.93,0.067-60.05,0.099c-20.122-0.031-40.243-0.063-60.05-0.095
				c-19.808-0.002-39.3-0.168-58.164-0.239c-18.864-0.134-37.099-0.261-54.391-0.381c-17.292-0.12-33.64-0.308-48.732-0.485
				c-15.092-0.199-28.925-0.381-41.187-0.541c-12.261-0.2-22.951-0.376-31.754-0.52c-17.607-0.357-27.667-0.562-27.667-0.562
				s10.06-0.205,27.667-0.563c8.803-0.144,19.493-0.319,31.754-0.519c12.262-0.161,26.095-0.342,41.187-0.541
				c15.092-0.179,31.44-0.364,48.732-0.486c17.292-0.12,35.527-0.247,54.391-0.38c18.864-0.071,38.356-0.237,58.164-0.239
				c19.807-0.03,39.928-0.063,60.05-0.096c20.121,0.033,40.242,0.066,60.05,0.099c19.808,0.011,39.3,0.17,58.166,0.244
				c18.86,0.132,37.096,0.259,54.389,0.379c17.291,0.122,33.64,0.312,48.732,0.487c15.09,0.196,28.924,0.378,41.185,0.538
				c12.262,0.201,22.952,0.374,31.756,0.518C845.496,765.652,855.556,765.856,855.556,765.856z"/>
			<path fill="#FDD12E" d="M828.905,792.89c0,0-2.301,0.048-6.617,0.14c-4.325,0.089-10.675,0.237-18.759,0.39
				c-8.075,0.136-17.88,0.301-29.127,0.489c-11.246,0.164-23.935,0.35-37.775,0.523c-13.844,0.168-28.838,0.35-44.698,0.465
				c-15.862,0.115-32.587,0.236-49.888,0.364c-17.303,0.069-35.183,0.222-53.351,0.231c-18.168,0.031-36.624,0.064-55.079,0.094
				c-18.457-0.029-36.913-0.061-55.08-0.09c-18.167-0.002-36.047-0.16-53.349-0.229c-17.302-0.126-34.028-0.248-49.888-0.363
				c-15.861-0.115-30.856-0.294-44.698-0.464c-13.843-0.176-26.53-0.36-37.777-0.525c-11.246-0.189-21.051-0.355-29.125-0.491
				c-8.084-0.153-14.435-0.302-18.76-0.392c-4.315-0.094-6.617-0.142-6.617-0.142s2.302-0.049,6.617-0.142
				c4.326-0.09,10.676-0.238,18.76-0.393c8.074-0.136,17.879-0.302,29.125-0.491c11.247-0.165,23.935-0.35,37.777-0.525
				c13.842-0.171,28.837-0.348,44.698-0.464c15.86-0.115,32.586-0.236,49.888-0.363c17.302-0.068,35.182-0.228,53.349-0.229
				c18.167-0.029,36.623-0.061,55.08-0.092c18.455,0.031,36.911,0.063,55.079,0.094c18.168,0.012,36.048,0.162,53.351,0.233
				c17.301,0.126,34.025,0.248,49.888,0.362c15.86,0.116,30.854,0.299,44.698,0.467c13.841,0.173,26.529,0.358,37.775,0.522
				c11.247,0.189,21.052,0.353,29.127,0.489c8.085,0.152,14.435,0.301,18.76,0.389C826.605,792.84,828.905,792.89,828.905,792.89z"
				/>
			<path fill="#FDD12E" d="M802.256,819.923c0,0-2.096,0.048-6.027,0.136c-3.934,0.083-9.708,0.238-17.059,0.366
				c-7.348,0.128-16.267,0.283-26.498,0.46c-10.231,0.169-21.775,0.358-34.367,0.509c-12.593,0.16-26.234,0.334-40.664,0.444
				c-14.43,0.109-29.646,0.225-45.386,0.346c-15.741,0.067-32.007,0.212-48.535,0.222c-16.528,0.029-33.319,0.06-50.107,0.09
				c-16.791-0.029-33.581-0.059-50.109-0.087c-16.527-0.001-32.793-0.153-48.534-0.219c-15.74-0.12-30.956-0.235-45.385-0.346
				c-14.43-0.11-28.072-0.28-40.665-0.442c-12.593-0.152-24.136-0.341-34.367-0.511c-10.231-0.179-19.151-0.335-26.497-0.463
				c-7.351-0.129-13.126-0.284-17.061-0.368c-3.93-0.089-6.026-0.137-6.026-0.137s2.096-0.048,6.026-0.137
				c3.936-0.083,9.71-0.239,17.061-0.368c7.346-0.129,16.266-0.285,26.497-0.465c10.231-0.168,21.774-0.356,34.367-0.509
				c12.593-0.163,26.235-0.332,40.665-0.442c14.429-0.11,29.645-0.226,45.385-0.346c15.741-0.065,32.007-0.218,48.534-0.219
				c16.528-0.029,33.318-0.058,50.109-0.087c16.788,0.029,33.579,0.06,50.107,0.089c16.528,0.011,32.794,0.154,48.535,0.223
				c15.74,0.12,30.956,0.237,45.386,0.346c14.43,0.11,28.071,0.285,40.664,0.445c12.592,0.149,24.136,0.339,34.367,0.507
				c10.231,0.179,19.15,0.333,26.498,0.461c7.351,0.127,13.125,0.283,17.06,0.365C800.16,819.875,802.256,819.923,802.256,819.923z"
				/>
			<path fill="#FDD12E" d="M775.605,846.956c0,0-1.89,0.046-5.436,0.132c-3.544,0.076-8.743,0.239-15.36,0.343
				c-6.618,0.12-14.652,0.266-23.869,0.432c-9.216,0.172-19.615,0.366-30.958,0.493c-11.343,0.152-23.632,0.318-36.63,0.422
				c-12.998,0.104-26.704,0.215-40.884,0.33c-14.179,0.063-28.832,0.201-43.72,0.211c-14.889,0.027-30.014,0.056-45.137,0.085
				c-15.125-0.028-30.25-0.056-45.138-0.082c-14.888-0.002-29.54-0.146-43.719-0.209c-14.179-0.113-27.886-0.224-40.883-0.328
				c-12.999-0.105-25.288-0.267-36.631-0.422c-11.344-0.129-21.741-0.32-30.958-0.495c-9.217-0.168-17.252-0.314-23.869-0.435
				c-6.617-0.104-11.816-0.267-15.361-0.344c-3.544-0.087-5.436-0.133-5.436-0.133s1.891-0.047,5.436-0.133
				c3.544-0.076,8.744-0.24,15.361-0.343c6.617-0.121,14.651-0.269,23.869-0.438c9.216-0.173,19.614-0.365,30.958-0.493
				c11.343-0.155,23.632-0.316,36.631-0.421c12.997-0.105,26.704-0.215,40.883-0.329c14.179-0.063,28.831-0.208,43.719-0.208
				c14.889-0.028,30.014-0.055,45.138-0.082c15.124,0.027,30.249,0.055,45.137,0.084c14.888,0.011,29.541,0.146,43.72,0.211
				c14.18,0.115,27.886,0.227,40.884,0.33c12.998,0.104,25.287,0.271,36.63,0.423c11.343,0.127,21.742,0.32,30.958,0.492
				c9.217,0.167,17.251,0.313,23.869,0.433c6.617,0.103,11.816,0.267,15.36,0.342C773.716,846.909,775.605,846.956,775.605,846.956z
				"/>
			<path fill="#FDD12E" d="M722.817,872.156c0,0-1.632,0.037-4.679,0.107c-1.593,0.031-3.572,0.082-5.907,0.135
				c-2.148,0.047-4.599,0.096-7.325,0.137c-5.719,0.096-12.652,0.213-20.577,0.346c-6.919,0.12-14.663,0.257-23.07,0.35
				c-8.49,0.109-17.65,0.229-27.315,0.307c-9.709,0.078-19.924,0.158-30.48,0.238c-1.178,0.006-2.359,0.012-3.545,0.018
				c-9.471,0.049-19.198,0.125-29.063,0.134c-11.103,0.021-22.381,0.044-33.667,0.066c-11.269-0.016-22.547-0.03-33.668-0.045
				c-11.771-0.006-23.386-0.108-34.652-0.154c-10.262-0.073-20.234-0.146-29.773-0.214c-0.884-0.007-1.764-0.014-2.64-0.02
				c-10.27-0.075-20.011-0.195-29.039-0.312c-8.936-0.099-17.168-0.239-24.521-0.364c-7.924-0.124-14.858-0.246-20.576-0.346
				c-2.725-0.043-5.174-0.093-7.322-0.139c-2.337-0.054-4.319-0.104-5.912-0.137c-3.045-0.07-4.678-0.107-4.678-0.107
				s1.633-0.037,4.678-0.107c1.593-0.033,3.573-0.083,5.909-0.137c2.149-0.045,4.598-0.096,7.324-0.138
				c5.718-0.101,12.652-0.222,20.577-0.349c7.354-0.123,15.587-0.264,24.524-0.361c9.028-0.117,18.769-0.237,29.038-0.313
				c0.889-0.006,1.782-0.014,2.679-0.02c9.525-0.068,19.483-0.139,29.728-0.213c11.268-0.047,22.883-0.149,34.657-0.154
				c11.118-0.016,22.394-0.03,33.66-0.045c11.284,0.021,22.559,0.043,33.66,0.066c9.932,0.01,19.725,0.086,29.255,0.134
				c1.115,0.006,2.226,0.011,3.332,0.017c10.563,0.08,20.785,0.161,30.5,0.238c9.666,0.078,18.828,0.197,27.32,0.308
				c8.412,0.093,16.161,0.229,23.083,0.349c7.925,0.133,14.857,0.25,20.577,0.347c2.726,0.04,5.175,0.089,7.324,0.136
				c2.336,0.054,4.316,0.104,5.909,0.137C721.186,872.119,722.817,872.156,722.817,872.156z"/>
			<path fill="#FDD12E" d="M670.03,897.357c0,0-1.374,0.028-3.922,0.082c-1.34,0.024-3.005,0.062-4.964,0.102
				c-1.805,0.032-3.858,0.066-6.14,0.099c-4.82,0.073-10.654,0.161-17.286,0.261c-4.621,0.068-9.713,0.147-15.184,0.205
				c-5.637,0.067-11.668,0.142-18,0.191c-6.419,0.052-13.145,0.104-20.078,0.148c-0.776,0.003-1.556,0.007-2.338,0.01
				c-6.25,0.029-12.658,0.071-19.158,0.081c-7.316,0.016-14.748,0.031-22.197,0.048c-7.414-0.003-14.845-0.006-22.198-0.008
				c-8.655-0.011-17.232-0.069-25.585-0.1c-7.546-0.044-14.908-0.087-21.981-0.127c-0.656-0.004-1.311-0.008-1.963-0.012
				c-7.54-0.045-14.733-0.123-21.446-0.201c-6.527-0.068-12.596-0.158-18.084-0.232c-6.632-0.082-12.466-0.179-17.284-0.259
				c-2.281-0.035-4.335-0.072-6.139-0.104c-1.962-0.04-3.628-0.077-4.968-0.104c-2.546-0.053-3.92-0.081-3.92-0.081
				s1.374-0.028,3.921-0.082c1.34-0.025,3.005-0.063,4.965-0.104c1.804-0.031,3.858-0.068,6.14-0.103
				c4.819-0.079,10.653-0.177,17.285-0.259c5.49-0.074,11.561-0.164,18.091-0.231c6.713-0.079,13.904-0.158,21.443-0.203
				c0.657-0.003,1.317-0.008,1.979-0.011c7.064-0.041,14.417-0.083,21.952-0.126c8.356-0.031,16.936-0.091,25.594-0.101
				c7.347-0.003,14.773-0.005,22.181-0.008c7.444,0.017,14.87,0.032,22.183,0.049c6.541,0.01,12.99,0.052,19.278,0.08
				c0.728,0.003,1.453,0.006,2.175,0.009c6.947,0.046,13.685,0.097,20.115,0.148c6.336,0.051,12.371,0.124,18.014,0.192
				c5.479,0.058,10.579,0.137,15.207,0.204c6.631,0.1,12.464,0.188,17.284,0.262c2.282,0.032,4.336,0.066,6.141,0.099
				c1.961,0.041,3.627,0.077,4.967,0.104C668.656,897.329,670.03,897.357,670.03,897.357z"/>
			<path fill="#FDD12E" d="M617.242,922.559c0,0-2.614,0.045-7.186,0.125c-4.575,0.057-11.108,0.138-18.949,0.236
				c-7.841,0.054-16.986,0.173-26.786,0.197c-9.802,0.028-20.256,0.058-30.709,0.086c-10.454-0.028-20.908-0.058-30.708-0.084
				c-9.801-0.022-18.948-0.145-26.788-0.197c-7.84-0.057-14.375-0.187-18.947-0.238c-4.574-0.08-7.187-0.125-7.187-0.125
				s2.613-0.047,7.187-0.127c4.573-0.052,11.107-0.179,18.947-0.237c7.84-0.053,16.986-0.176,26.788-0.197
				c9.8-0.026,20.253-0.056,30.708-0.085c10.454,0.03,20.908,0.06,30.709,0.086c9.8,0.024,18.945,0.144,26.786,0.197
				c7.841,0.098,14.374,0.181,18.949,0.238C614.628,922.512,617.242,922.559,617.242,922.559z"/>
		</g>
	</g>
</g>
<path fill="#FDD12E" d="M907.738,650.362l-60.57-46.218c1.444-5.208,2.775-10.425,3.972-15.574l1.995-8.585l1.425-6.132
	l-5.272-3.441l-42.328-27.629c1.336-12.231,2.104-24.494,2.285-36.531l0.107-7.105l0.088-5.843l-5.302-2.458l-54.968-25.483
	l0.076-3.524h-1.145l-19.843-180.133l-0.565-5.136l-0.728-6.603l-6.524-1.251l-5.074-0.973l-98.627-18.908l-6.374-1.222
	l-8.203-1.572l-24.721,46.299l-4.467,8.305l-1.043,3.841l-0.085,0.312c-2.264,8.354-19.153,70.75-33.023,124.086
	c-14.46-55.61-38.346-135.954-38.346-135.954l-24.992-46.888l-8.203,1.572l-6.373,1.222l-98.627,18.908l-5.075,0.973l-6.524,1.25
	l-0.727,6.604l-0.566,5.136l-19.842,180.133h-1.035l0.033,3.493l-55.035,25.515l-5.302,2.458l0.088,5.843l0.107,7.105
	c0.182,12.03,0.949,24.293,2.285,36.531l-42.328,27.629l-5.272,3.441l1.425,6.132l1.995,8.585
	c1.197,5.149,2.527,10.366,3.972,15.574l-60.57,46.218l-5.817,4.439l3.158,6.601l4.797,10.023
	c13.235,27.665,29.781,53.81,49.176,77.708l2.102,2.588l2.7,3.327l4.284,0.001l3.334,0.001l19.524,0.004l143.796,0.108l6.366,0.005
	l8.184,0.006l0.672-6.996l51.817-141.75l0.372-1.018l0.12-1.077l1.413-12.704l0.007-0.056l0.006-0.057
	c0-0.007,0.021-0.215,0.059-0.612l47.657,193.063v5.356v9h9h7h0.075h9.083h0.058h9.083h0.075h7h9v-9v-5.356l47.656-193.063
	c0.038,0.397,0.059,0.605,0.059,0.611l0.601,6.1l0.748,4.882l52.387,145.672l0.673,7.004l8.184-0.006l6.365-0.005l143.807-0.108
	l19.515-0.004l3.333-0.001l4.285-0.001l2.701-3.327l2.1-2.588c19.396-23.898,35.941-50.043,49.178-77.709l4.795-10.022l3.158-6.601
	L907.738,650.362z"/>
<g>
	<path fill="#48928E" d="M526.125,789.828v-4.255l-64.231-260.206l-2.737,29.217h0.016l-1.054,10.979
		c-1.583,16.703-2.638,27.662-2.654,27.828l-1.377,12.374l-51.264,140.234h-0.705l-0.064,0.669l-147.894-0.111l-21.668-0.005
		l-1.351-1.663c-18.826-23.197-34.885-48.573-47.731-75.425l-3.919-8.189l65.203-49.753l-0.486-1.65
		c-2.052-6.966-3.905-13.999-5.509-20.901l-1.599-6.882l46.833-30.569l-0.191-1.548c-1.688-13.68-2.647-27.438-2.851-40.89
		l-0.083-5.482l58.797-27.258h1.221l0.069-0.598l0.016-0.007l0.172-1.621l21.089-191.449l106.456-20.409l26.083,44.949l0.894,3.295
		c1.116,4.113,27.079,99.891,41.782,158.2l2.424,9.613l2.424-9.613c14.224-56.401,38.936-147.693,41.706-157.917l0.513-1.875
		l0.068-0.229l0.059,0.012l0.069-0.231l0.055,0.011l0.077-0.255l0.058,0.01l0.637-2.114l25.321-43.636l0.539,0.108l0.074-0.248
		l106.04,20.329l21.335,193.675h1.232l58.797,27.258l-0.083,5.482c-0.203,13.462-1.162,27.22-2.851,40.89l-0.19,1.548l46.833,30.569
		l-1.6,6.881c-1.604,6.903-3.457,13.937-5.509,20.902l-0.485,1.65l65.202,49.753l-3.918,8.189
		c-12.847,26.852-28.906,52.228-47.732,75.425l-1.351,1.663l-21.662,0.005L677.57,746.67l-0.064-0.669h-0.695l-51.82-144.095
		l-0.23-2.405l-0.601-6.108c-0.017-0.168-1.071-11.126-2.652-27.819l-0.867-9.024l-0.184-1.964l-0.246-2.734l-2.484-26.47
		l-64.227,260.192v4.255H526.125z"/>
	<path fill="#122D28" d="M467.356,265.047l25.028,43.131l0.808,2.978l0.018,0.065c1.098,4.048,27.056,99.805,41.753,158.092
		l4.848,19.226l4.849-19.226c14.059-55.748,38.371-145.608,41.593-157.501l0.07,0.014l0.063-0.23l0.065,0.013l0.063-0.233
		l0.059,0.012l0.077-0.285l0.064,0.012l1.096-4.04l24.252-41.795l1.143,0.229l0.072-0.268l1.815,0.348l98.627,18.908l1.449,0.278
		l0.162,1.467l20.699,187.909v0.012l0.037,0.333l0.015,0.13l0.216,1.908l0.261,2.308h2.909l56.824,26.344l-0.058,3.859
		c-0.202,13.373-1.155,27.041-2.832,40.622l-0.383,3.096l2.611,1.705l44.063,28.761l-1.203,5.178
		c-1.594,6.856-3.435,13.842-5.472,20.762l-0.973,3.3l2.735,2.087l62.22,47.477l-3.042,6.356
		c-12.761,26.674-28.715,51.884-47.417,74.928l-0.601,0.74h-0.952l-19.522,0.004l-143.807,0.108l-1.818,0.001l-0.064-0.667h-1.209
		l-51.119-142.146l-0.202-2.107l-0.6-6.098c-0.007-0.063-1.052-10.916-2.652-27.819l-0.792-8.246h0.011l-0.515-5.469l-1.105-11.771
		l-2.757-29.396l-7.076,28.665l-60.616,245.564l-0.146,0.59v0.608v1.451h-2h-0.075h-9.083h-0.058H530.7h-0.075h-2v-1.451v-0.608
		l-0.146-0.59l-60.617-245.565l-7.082-28.689l-2.751,29.422c-0.363,3.884-0.731,7.807-1.104,11.77l-0.314,3.489l-0.116,1.205
		l-0.865,9.021c-1.547,16.333-2.593,27.185-2.651,27.789l-1.344,12.07l-50.56,138.311h-1.229l-0.064,0.667l-1.82-0.001
		l-143.804-0.108l-19.523-0.004h-0.954l-0.6-0.739c-18.703-23.045-34.656-48.255-47.418-74.929l-3.042-6.356l62.22-47.477
		l2.735-2.087l-0.972-3.3c-2.038-6.92-3.879-13.905-5.472-20.762l-1.203-5.178l44.063-28.761l2.611-1.705l-0.382-3.095
		c-1.677-13.591-2.63-27.259-2.832-40.623l-0.059-3.859l56.825-26.344h2.921l0.157-1.427l0.014-0.007l0.297-2.819l0.002-0.018
		l0.02-0.182l20.726-188.147l0.161-1.467l1.451-0.278l98.627-18.908L467.356,265.047 M609.659,259.456l-0.063,0.231l-0.063-0.013
		l-26.378,45.458l-0.063,0.23l-0.063-0.012l-0.063,0.23l-0.064-0.013l-0.063,0.231l-0.064-0.013l-0.063,0.231l-0.064-0.013
		l-1.043,3.841c-0.291,1.077-26.759,98.623-41.794,158.243c-15.033-59.62-41.501-157.166-41.793-158.243l-1.042-3.841l-0.063,0.013
		l-26.886-46.332l-0.063-0.231l-6.373,1.222l-98.627,18.908l-5.075,0.973l-0.565,5.136l-20.726,188.147h-0.012l0.001,0.093
		l-0.014,0.13l-60.29,27.95l0.107,7.105c0.208,13.771,1.187,27.525,2.869,41.159l-46.992,30.673l1.995,8.585
		c1.641,7.061,3.495,14.078,5.546,21.042l-65.451,49.942l4.796,10.023c12.931,27.027,29.096,52.571,48.046,75.921l2.101,2.588
		l3.334,0.001l19.523,0.004l143.801,0.108l6.366,0.005l0.064-0.671h0.182l51.967-142.159l1.414-12.704
		c0.011-0.109,1.068-11.085,2.655-27.835l0.864-9.015l0.453-4.703h-0.021c0.373-3.964,0.741-7.888,1.104-11.773l60.617,245.565
		v6.451h7h0.075h9.083h0.058h9.083h0.075h7v-6.451l60.616-245.564c0.364,3.885,0.732,7.81,1.105,11.772h-0.009l0.439,4.703
		l0.866,9.021c1.586,16.744,2.643,27.72,2.653,27.829l0.601,6.101l0.26,2.718l52.521,146.045h0.182l0.064,0.671l6.365-0.005
		l143.807-0.108l19.52-0.004l3.333-0.001l2.101-2.588c18.95-23.35,35.115-48.894,48.046-75.921l4.796-10.023l-65.451-49.942
		c2.051-6.964,3.905-13.981,5.546-21.042l1.995-8.585l-46.992-30.673c1.684-13.634,2.661-27.388,2.869-41.159l0.107-7.105
		l-60.29-27.95l-0.015-0.13l0.002-0.093h-0.012L720.3,285.694l-0.565-5.136l-5.074-0.973l-98.627-18.908L609.659,259.456
		L609.659,259.456z"/>
</g>
<g>
	<g>
		<g>
			<path fill="#56BA81" d="M526.856,789.504l-0.189-3.784l-94.323-382.108c-5.79,72.569-28.707,321.966-28.96,324.721l-0.543,5.634
				l-0.019-0.009l-1.188,12.389l-147.443-0.111l-21.426-0.004l-1.2-1.479c-18.802-23.167-34.84-48.511-47.67-75.325l-2.739-5.729
				l24.53,0.006l59.499,0.052c-11.259-23.893-19.993-49.029-25.964-74.722l-1.141-4.905h51.963
				c-5.337-24.45-8.237-49.641-8.618-74.877l-0.06-4.061h56.852l24.446-221.926l105.169-20.163l0.971,3.58
				c0.478,1.756,47.17,173.818,71.042,269.57c23.874-95.753,70.565-267.814,71.044-269.572l0.971-3.578l105.169,20.163
				l24.446,221.926h56.852l-0.06,4.059c-0.382,25.239-3.281,50.429-8.618,74.878h51.964l-1.142,4.906
				c-5.97,25.688-14.705,50.826-25.964,74.721l59.497-0.052l24.532-0.006l-2.738,5.728c-12.83,26.815-28.868,52.159-47.67,75.326
				l-1.201,1.479l-21.429,0.004l-147.44,0.111l-1.532-15.987l-0.214-1.987c-0.003-0.027-1.715-17.783-4.332-45.408l-1.83-19.085
				h0.028c-3.157-33.869-18.213-200.127-22.857-260.158l-94.288,381.968v3.815H526.856z"/>
			<path fill="#122D28" d="M613.666,265.993l101.08,19.379l24.489,222.318h56.555l-0.022,1.522
				c-0.381,25.216-3.292,50.383-8.652,74.801l-0.259,1.179h-39.085l0.158,1.436h90.535l-0.428,1.84
				c-5.973,25.7-14.73,50.843-26.031,74.731l-0.406,0.86l-55.154-0.134l0.262,2.38l117.3-0.103l20.563-0.005l-1.027,2.148
				c-12.745,26.639-28.678,51.814-47.355,74.829l-0.45,0.555l-20.238,0.004l-145.169,0.109l-1.315-13.724l-0.217-2.017
				c0,0-1.712-17.754-4.328-45.376l-1.568-16.35h0.022c-2.679-28.416-21.896-240.344-24.242-278.601l-98.148,397.607v1.619h-21.299
				l-0.075-1.5v-0.119l-98.148-397.607c-2.346,38.256-30.116,340.326-30.116,340.326l-0.206,2.134l-0.021-0.01l-1.305,13.616
				l-145.17-0.109l-20.237-0.004l-0.45-0.555c-18.678-23.015-34.61-48.19-47.355-74.829l-1.027-2.148l20.563,0.005l117.301,0.103
				l0.262-2.38l-55.154,0.134l-0.406-0.86c-11.301-23.888-20.059-49.031-26.031-74.731l-0.428-1.84h90.535l0.158-1.436h-39.085
				l-0.259-1.179c-5.36-24.419-8.271-49.585-8.652-74.801l-0.022-1.522h56.555l24.489-222.318l101.08-19.379l0.364,1.343
				c0.515,1.893,50.571,186.379,73.455,279.308c22.885-92.929,72.941-277.415,73.456-279.308L613.666,265.993 M610.054,260.209
				l-1.214,4.475l-0.363,1.343c-0.462,1.697-44.157,162.713-68.631,259.938c-24.473-97.224-68.168-258.242-68.63-259.941
				l-0.363-1.339l-1.214-4.475l-4.553,0.873l-101.08,19.379l-3.625,0.695l-0.404,3.668L335.978,502.69h-52.075h-5.074l0.075,5.074
				l0.022,1.522c0.368,24.363,3.067,48.681,8.026,72.341h-45.724h-6.296l1.426,6.133l0.428,1.84
				c5.714,24.586,13.942,48.668,24.479,71.651l-55.575-0.049l-20.566-0.005l-7.935-0.002l3.423,7.159l1.027,2.148
				c12.915,26.992,29.059,52.503,47.984,75.822l0.45,0.555l1.5,1.849l2.381,0.001l20.237,0.004l145.167,0.109l4.547,0.003
				l0.434-4.526l0.758-7.907l0.568-5.695l0.206-2.134c0.239-2.605,20.442-222.465,27.714-309.512l90.596,367.014l0.059,1.168
				l0.238,4.75h4.755h21.299h5v-5v-1.011l90.521-366.709c5.486,67.297,18.027,205.904,21.381,242.094h-0.015l0.503,5.478
				l1.568,16.35c2.587,27.305,4.312,45.201,4.329,45.378l0.002,0.027l0.003,0.027l0.215,1.991l1.312,13.692l0.435,4.525l4.547-0.003
				l145.169-0.109l20.235-0.004l2.381-0.001l1.5-1.849l0.45-0.555c18.926-23.319,35.07-48.83,47.984-75.821l1.027-2.149l3.423-7.159
				l-7.935,0.002l-20.563,0.005l-55.577,0.049c10.536-22.983,18.765-47.065,24.479-71.652l0.428-1.839l1.426-6.133h-6.296h-45.724
				c4.959-23.659,7.658-47.977,8.025-72.339l0.022-1.524l0.075-5.074h-5.074h-52.075l-23.999-217.866l-0.403-3.668l-3.625-0.695
				l-101.08-19.379L610.054,260.209L610.054,260.209z"/>
		</g>
	</g>
</g>
<g>
	<g>
		<g>
			<path fill="#56BA81" d="M526.856,789.504l-0.189-3.784l-94.323-382.108c-5.79,72.569-28.707,321.966-28.96,324.721l-0.543,5.634
				l-0.019-0.009l-1.188,12.389l-147.443-0.111l-21.426-0.004l-1.2-1.479c-18.802-23.167-34.84-48.511-47.67-75.325l-2.739-5.729
				l24.53,0.006l59.499,0.052c-11.259-23.893-19.993-49.029-25.964-74.722l-1.141-4.905h51.963
				c-5.337-24.45-8.237-49.641-8.618-74.877l-0.06-4.061h56.852l24.446-221.926l105.169-20.163l0.971,3.58
				c0.478,1.756,47.17,173.818,71.042,269.57c23.874-95.753,70.565-267.814,71.044-269.572l0.971-3.578l105.169,20.163
				l24.446,221.926h56.852l-0.06,4.059c-0.382,25.239-3.281,50.429-8.618,74.878h51.964l-1.142,4.906
				c-5.97,25.688-14.705,50.826-25.964,74.721l59.497-0.052l24.532-0.006l-2.738,5.728c-12.83,26.815-28.868,52.159-47.67,75.326
				l-1.201,1.479l-21.429,0.004l-147.44,0.111l-1.532-15.987l-0.214-1.987c-0.003-0.027-1.715-17.783-4.332-45.408l-1.83-19.085
				h0.028c-3.157-33.869-18.213-200.127-22.857-260.158l-94.288,381.968v3.815H526.856z"/>
			<path fill="#122D28" d="M613.666,265.993l101.08,19.379l24.489,222.318h56.555l-0.022,1.522
				c-0.381,25.216-3.292,50.383-8.652,74.801l-0.259,1.179h-39.085l0.158,1.436h90.535l-0.428,1.84
				c-5.973,25.7-14.73,50.843-26.031,74.731l-0.406,0.86l-55.154-0.134l0.262,2.38l117.3-0.103l20.563-0.005l-1.027,2.148
				c-12.745,26.639-28.678,51.814-47.355,74.829l-0.45,0.555l-20.238,0.004l-145.169,0.109l-1.315-13.724l-0.217-2.017
				c0,0-1.712-17.754-4.328-45.376l-1.568-16.35h0.022c-2.679-28.416-21.896-240.344-24.242-278.601l-98.148,397.607v1.619h-21.299
				l-0.075-1.5v-0.119l-98.148-397.607c-2.346,38.256-30.116,340.326-30.116,340.326l-0.206,2.134l-0.021-0.01l-1.305,13.616
				l-145.17-0.109l-20.237-0.004l-0.45-0.555c-18.678-23.015-34.61-48.19-47.355-74.829l-1.027-2.148l20.563,0.005l117.301,0.103
				l0.262-2.38l-55.154,0.134l-0.406-0.86c-11.301-23.888-20.059-49.031-26.031-74.731l-0.428-1.84h90.535l0.158-1.436h-39.085
				l-0.259-1.179c-5.36-24.419-8.271-49.585-8.652-74.801l-0.022-1.522h56.555l24.489-222.318l101.08-19.379l0.364,1.343
				c0.515,1.893,50.571,186.379,73.455,279.308c22.885-92.929,72.941-277.415,73.456-279.308L613.666,265.993 M610.054,260.209
				l-1.214,4.475l-0.363,1.343c-0.462,1.697-44.157,162.713-68.631,259.938c-24.473-97.224-68.168-258.242-68.63-259.941
				l-0.363-1.339l-1.214-4.475l-4.553,0.873l-101.08,19.379l-3.625,0.695l-0.404,3.668L335.978,502.69h-52.075h-5.074l0.075,5.074
				l0.022,1.522c0.368,24.363,3.067,48.681,8.026,72.341h-45.724h-6.296l1.426,6.133l0.428,1.84
				c5.714,24.586,13.942,48.668,24.479,71.651l-55.575-0.049l-20.566-0.005l-7.935-0.002l3.423,7.159l1.027,2.148
				c12.915,26.992,29.059,52.503,47.984,75.822l0.45,0.555l1.5,1.849l2.381,0.001l20.237,0.004l145.167,0.109l4.547,0.003
				l0.434-4.526l0.758-7.907l0.568-5.695l0.206-2.134c0.239-2.605,20.442-222.465,27.714-309.512l90.596,367.014l0.059,1.168
				l0.238,4.75h4.755h21.299h5v-5v-1.011l90.521-366.709c5.486,67.297,18.027,205.904,21.381,242.094h-0.015l0.503,5.478
				l1.568,16.35c2.587,27.305,4.312,45.201,4.329,45.378l0.002,0.027l0.003,0.027l0.215,1.991l1.312,13.692l0.435,4.525l4.547-0.003
				l145.169-0.109l20.235-0.004l2.381-0.001l1.5-1.849l0.45-0.555c18.926-23.319,35.07-48.83,47.984-75.821l1.027-2.149l3.423-7.159
				l-7.935,0.002l-20.563,0.005l-55.577,0.049c10.536-22.983,18.765-47.065,24.479-71.652l0.428-1.839l1.426-6.133h-6.296h-45.724
				c4.959-23.659,7.658-47.977,8.025-72.339l0.022-1.524l0.075-5.074h-5.074h-52.075l-23.999-217.866l-0.403-3.668l-3.625-0.695
				l-101.08-19.379L610.054,260.209L610.054,260.209z"/>
		</g>
	</g>
</g>
<g>
	<defs>
		<path id="SVGID_1_" d="M529.234,787.004l-0.075-1.5v-0.119l-98.148-397.607c-2.346,38.256-30.116,340.326-30.116,340.326
			l-0.206,2.134l-0.021-0.01l-1.305,13.616l-145.17-0.109l-20.237-0.004l-0.45-0.555c-18.678-23.015-34.61-48.19-47.355-74.829
			l-1.027-2.148l20.563,0.005l117.301,0.103l0.262-2.38l-55.154,0.134l-0.406-0.86c-11.301-23.888-20.059-49.031-26.031-74.731
			l-0.428-1.84h90.535l0.158-1.436h-39.085l-0.259-1.179c-5.36-24.419-8.271-49.585-8.652-74.801l-0.022-1.522h56.555
			l24.489-222.318l101.08-19.379l0.364,1.343c0.515,1.893,50.571,186.379,73.455,279.308
			c22.885-92.929,72.941-277.415,73.456-279.308l0.364-1.343l101.08,19.379l24.489,222.318h56.555l-0.022,1.522
			c-0.381,25.216-3.292,50.383-8.652,74.801l-0.259,1.179h-39.085l0.158,1.436h90.535l-0.428,1.84
			c-5.973,25.7-14.73,50.843-26.031,74.731l-0.406,0.86l-55.154-0.134l0.262,2.38l117.3-0.103l20.563-0.005l-1.027,2.148
			c-12.745,26.639-28.678,51.814-47.355,74.829l-0.45,0.555l-20.238,0.004l-145.169,0.109l-1.315-13.724l-0.217-2.017
			c0,0-1.712-17.754-4.328-45.376l-1.568-16.35h0.022c-2.679-28.416-21.896-240.344-24.242-278.601l-98.148,397.607v1.619H529.234z"
			/>
	</defs>
	<clipPath id="SVGID_2_">
		<use xlink:href="#SVGID_1_"  overflow="visible"/>
	</clipPath>
	<path clip-path="url(#SVGID_2_)" fill="#85D5AA" d="M101.393,561c0,159.941,195.48,28.588,436.612,28.588
		c241.136,0,436.615,131.354,436.615-28.588c0-159.942-195.479-337.394-436.615-337.394
		C296.873,223.606,101.393,401.058,101.393,561z"/>
</g>
</svg>
