<svg width="96" height="96" viewBox="0 0 96 96" fill="none" xmlns="http://www.w3.org/2000/svg">
<circle cx="48" cy="48" r="48" fill="white"/>
<path fill-rule="evenodd" clip-rule="evenodd" d="M58.3664 45.3222C55.7535 42.7093 52.5377 41.3694 48.7859 41.3694C45.838 41.3694 43.9621 42.8433 43.1581 43.4463V26.4961L35.1855 31.0519V54.9027C35.1855 58.6545 36.5255 61.8704 39.1383 64.4832C41.7512 67.1631 44.9671 68.436 48.7859 68.436C52.5377 68.436 55.7535 67.0961 58.3664 64.4832C60.9793 61.8034 62.3192 58.6545 62.3192 54.9027C62.3192 51.1509 61.0463 47.935 58.3664 45.3222ZM52.7387 58.8555C51.6667 59.9274 50.3268 60.5304 48.7859 60.5304C47.2449 60.5304 45.905 59.9944 44.833 58.8555C43.7611 57.7835 43.1581 56.4436 43.1581 54.9027C43.1581 53.3618 43.6941 52.0218 44.833 50.9499C45.905 49.8779 47.2449 49.342 48.7859 49.342C50.3268 49.342 51.5997 49.8779 52.7387 50.9499C53.8106 52.0218 54.4136 53.3618 54.4136 54.9027C54.4136 56.4436 53.8776 57.7166 52.7387 58.8555Z" fill="url(#paint0_linear)"/>
<path fill-rule="evenodd" clip-rule="evenodd" d="M48.3166 7H48.3836L69.7556 19.3274V32.8607L48.3166 20.5333V20.4663L13.2773 40.7663V27.233L48.3166 7Z" fill="url(#paint1_linear)"/>
<path fill-rule="evenodd" clip-rule="evenodd" d="M13.2773 43.2452L24.9347 36.4785V61.2003L60.041 81.5003L48.3166 88.2L13.2773 67.967V43.2452Z" fill="url(#paint2_linear)"/>
<path fill-rule="evenodd" clip-rule="evenodd" d="M71.6981 61.3343V20.8013L83.4226 27.5679V68.1009L61.9836 80.4953L50.3262 73.7287L71.6981 61.3343Z" fill="url(#paint3_linear)"/>
<defs>
<linearGradient id="paint0_linear" x1="48.7864" y1="6.48357" x2="48.7864" y2="88.2785" gradientUnits="userSpaceOnUse">
<stop stop-color="#FFE173"/>
<stop offset="0.2364" stop-color="#F8CF59"/>
<stop offset="0.4805" stop-color="#F4C246"/>
<stop offset="0.7321" stop-color="#F1BA3B"/>
<stop offset="1" stop-color="#F0B737"/>
</linearGradient>
<linearGradient id="paint1_linear" x1="41.5085" y1="6.48352" x2="41.5085" y2="88.2785" gradientUnits="userSpaceOnUse">
<stop stop-color="#FFE173"/>
<stop offset="0.2364" stop-color="#F8CF59"/>
<stop offset="0.4805" stop-color="#F4C246"/>
<stop offset="0.7321" stop-color="#F1BA3B"/>
<stop offset="1" stop-color="#F0B737"/>
</linearGradient>
<linearGradient id="paint2_linear" x1="36.6451" y1="6.48349" x2="36.6451" y2="88.2784" gradientUnits="userSpaceOnUse">
<stop stop-color="#FFE173"/>
<stop offset="0.2364" stop-color="#F8CF59"/>
<stop offset="0.4805" stop-color="#F4C246"/>
<stop offset="0.7321" stop-color="#F1BA3B"/>
<stop offset="1" stop-color="#F0B737"/>
</linearGradient>
<linearGradient id="paint3_linear" x1="66.8442" y1="6.48347" x2="66.8442" y2="88.2784" gradientUnits="userSpaceOnUse">
<stop stop-color="#FFE173"/>
<stop offset="0.2364" stop-color="#F8CF59"/>
<stop offset="0.4805" stop-color="#F4C246"/>
<stop offset="0.7321" stop-color="#F1BA3B"/>
<stop offset="1" stop-color="#F0B737"/>
</linearGradient>
</defs>
</svg>
