<svg width="96" height="96" viewBox="0 0 96 96" fill="none" xmlns="http://www.w3.org/2000/svg">
<path d="M47.9851 92.3081C72.4569 92.3081 92.2953 72.4731 92.2953 48.0054C92.2953 23.5377 72.4569 3.70266 47.9851 3.70266C23.5132 3.70266 3.6748 23.5377 3.6748 48.0054C3.6748 72.4731 23.5132 92.3081 47.9851 92.3081Z" fill="black"/>
<path d="M24.2748 47.8926L39.1962 32.9749L54.1256 47.9006L62.807 39.2206L39.1962 15.6116L15.5923 39.2126L24.2748 47.8926Z" fill="#F3BA2F"/>
<path d="M41.8409 48.1182L56.7634 63.0371L71.6917 48.1114L80.3788 56.7879L80.3742 56.7925L56.7634 80.4004L33.1584 56.8004L33.147 56.7879L41.8409 48.1182Z" fill="#F3BA2F"/>
<path d="M47.9853 95.9999C36.9112 95.9933 26.1797 92.1594 17.609 85.1478C9.03818 78.1362 3.15503 68.378 0.956117 57.5262C-1.2428 46.6743 0.377722 35.3961 5.54316 25.6021C10.7086 15.8081 19.1014 8.10039 29.2997 3.78474C41.0299 -1.17031 54.2483 -1.2634 66.0472 3.52593C77.846 8.31527 87.2587 17.5947 92.2146 29.3229C97.1705 41.0511 97.2636 54.2673 92.4735 66.0642C87.6833 77.861 78.4023 87.2721 66.6721 92.2272C60.7605 94.729 54.4047 96.0122 47.9853 95.9999ZM47.9853 8.02837C25.938 8.02837 8.00154 25.9618 8.00154 48.0054C8.00154 70.049 25.938 87.9835 47.9853 87.9835C70.0327 87.9835 87.9703 70.0501 87.9703 48.0054C87.9703 25.9606 70.0338 8.02837 47.9853 8.02837Z" fill="#F3BA2F"/>
</svg>
