<svg width="96" height="96" viewBox="0 0 96 96" fill="none" xmlns="http://www.w3.org/2000/svg">
<circle cx="48" cy="48" r="48" fill="#1F2DE3"/>
<path fill-rule="evenodd" clip-rule="evenodd" d="M74.978 64.9638L69.7958 73.6929L69.6578 73.9257L58.6753 73.8855L64.4497 64.9351L67.505 64.9437L74.978 64.9638Z" fill="#7195FD"/>
<path fill-rule="evenodd" clip-rule="evenodd" d="M74.6017 52.2164L64.6022 51.7336L59.4688 42.7515L69.7068 42.5015L74.6017 52.2164Z" fill="#7195FD"/>
<path fill-rule="evenodd" clip-rule="evenodd" d="M45.6176 16.1274L38.0324 20.709L28.1191 20.8441L36.1469 16.1504L45.6176 16.1274Z" fill="#7195FD"/>
<path fill-rule="evenodd" clip-rule="evenodd" d="M37.0293 22.0166L31.1687 31.3004L29.2746 31.2861L20.7754 31.22L25.9605 22.3126L26.0468 22.1661L37.0293 22.0166Z" fill="#7195FD"/>
<path fill-rule="evenodd" clip-rule="evenodd" d="M19.2923 43.3203L14.4434 51.8253L14.3716 42.2166L19.0652 34.1572L19.2923 43.3203Z" fill="white"/>
<path fill-rule="evenodd" clip-rule="evenodd" d="M24.9519 54.2168L20.3733 61.9744L19.7151 63.0954L16.197 57.045L14.5615 54.2312L19.9249 44.8237L24.9519 54.2168Z" fill="white"/>
<path fill-rule="evenodd" clip-rule="evenodd" d="M46.7986 60.5776L43.6025 66.3549L41.8204 69.5769L32.1486 69.1831H32.1457L31.0679 69.1372L36.5347 60.8478L46.7986 60.5776Z" fill="white"/>
<path fill-rule="evenodd" clip-rule="evenodd" d="M46.8595 79.8467L36.4087 79.8093L31.0425 70.4307L41.8066 70.8704L46.8595 79.8467Z" fill="white"/>
<path fill-rule="evenodd" clip-rule="evenodd" d="M67.6777 75.2103L59.7649 79.8896L50.208 79.8579L57.6753 75.1758H57.6782L67.6777 75.2103Z" fill="#7195FD"/>
<path fill-rule="evenodd" clip-rule="evenodd" d="M56.2122 55.8696L51.3231 63.8658L49.7452 64.8373L49.7423 64.8402L43.9507 68.3985L45.316 65.9324L48.3914 60.3736L56.2122 55.8696Z" fill="white"/>
<path fill-rule="evenodd" clip-rule="evenodd" d="M63.3373 64.2738L57.5313 73.2759L52.5474 64.3456L58.0745 55.3032L63.3373 64.2738Z" fill="white"/>
<path fill-rule="evenodd" clip-rule="evenodd" d="M81.5603 44.4043V53.875L76.6741 62.1068L76.335 53.096V53.0874L81.5603 44.4043Z" fill="white"/>
<path fill-rule="evenodd" clip-rule="evenodd" d="M81.4567 42.0704L75.7283 51.5785L70.8335 41.8692L72.2764 39.4175L76.1365 32.8613L81.3245 41.8434L81.4567 42.0704Z" fill="white"/>
<path fill-rule="evenodd" clip-rule="evenodd" d="M66.565 25.8969V25.894L61.5811 17.208L69.856 21.9821L74.4749 29.9869L66.565 25.8969Z" fill="white"/>
<path fill-rule="evenodd" clip-rule="evenodd" d="M64.9441 25.667L54.1628 25.0346L50.1849 18.0818L49.061 16.1216L57.4395 16.1015H57.4424L59.4543 16.0957L64.9441 25.667Z" fill="white"/>
<path fill-rule="evenodd" clip-rule="evenodd" d="M42.8125 31.6972L37.4836 40.639L32.2812 31.9587L38.1562 22.6548L42.8125 31.6972Z" fill="white"/>
<path fill-rule="evenodd" clip-rule="evenodd" d="M34.3134 78.7487L26.1506 74.1671L21.3994 65.9956L25.6964 68.2548L29.4329 70.2208L33.7415 77.7484L33.7443 77.7513L33.7472 77.7542L34.3134 78.7487Z" fill="white"/>
<path fill-rule="evenodd" clip-rule="evenodd" d="M30.956 43.1771L20.5742 42.858L20.3184 32.5107L29.7545 32.5826L30.8812 32.5912L30.9042 35.6925L30.956 43.1771Z" fill="#7195FD"/>
<path fill-rule="evenodd" clip-rule="evenodd" d="M35.2614 60.4282L29.9843 68.4301L29.6796 68.8929L23.4626 65.6191H23.4597L20.6113 64.1187L21.2609 63.0208L25.9258 55.1108L30.6827 57.8213L35.2614 60.4282Z" fill="white"/>
<path fill-rule="evenodd" clip-rule="evenodd" d="M45.5916 59.3157L36.348 59.5571H36.3451L36.3394 59.5542L30.7777 56.3868L28.0615 54.8376L30.884 54.7887L37.5063 54.6709L37.5149 54.6766L45.5916 59.3157Z" fill="#7195FD"/>
<path fill-rule="evenodd" clip-rule="evenodd" d="M36.5466 53.3947L30.9706 53.4925L26.0786 53.5816L21.04 44.1655L31.2321 44.4788L31.5311 44.9789L36.5466 53.3947Z" fill="#7195FD"/>
<path fill-rule="evenodd" clip-rule="evenodd" d="M36.3451 59.5571H36.3394V59.5542L36.3451 59.5571Z" fill="white"/>
<path fill-rule="evenodd" clip-rule="evenodd" d="M36.9889 51.6097L36.4457 50.7015L32.2521 43.6653L32.2205 39.2591L32.186 34.3125L36.8394 42.0816L36.9889 51.6097Z" fill="white"/>
<path fill-rule="evenodd" clip-rule="evenodd" d="M26.0467 22.166L25.9604 22.3126L25.9087 22.1689L26.0467 22.166Z" fill="white"/>
<path fill-rule="evenodd" clip-rule="evenodd" d="M75.2365 31.8378L70.9797 39.0694L69.8645 40.9664L62.63 36.8332L60.7388 35.7525L66.3206 27.2246L75.2365 31.8378Z" fill="white"/>
<path fill-rule="evenodd" clip-rule="evenodd" d="M52.8982 25.4283L48.2822 28.1646L43.8127 30.8147L39.3289 22.1086V22.1057L39.0645 21.5941L40.5016 20.7289L47.716 16.3716L48.8973 18.4353L52.8982 25.4283Z" fill="white"/>
<path fill-rule="evenodd" clip-rule="evenodd" d="M64.9469 26.9633L59.4714 35.3303L58.8793 35.336L57.0973 35.3504L49.0781 35.4194L50.1531 33.4908L51.7943 30.5418L54.1426 26.3281L64.9469 26.9633Z" fill="white"/>
<path fill-rule="evenodd" clip-rule="evenodd" d="M52.0475 27.4375L50.7224 29.8174L48.8657 33.1458L47.4975 35.6032L39.2686 40.1704L44.0226 32.1944L44.4278 31.9558L49.4664 28.9666L52.0475 27.4375Z" fill="white"/>
<path fill-rule="evenodd" clip-rule="evenodd" d="M67.7606 41.254L58.5372 41.4781L50.3369 36.704L59.6524 36.6235H59.6552L67.7606 41.254Z" fill="#7195FD"/>
<path fill-rule="evenodd" clip-rule="evenodd" d="M75.4408 63.6705L67.1687 63.6504L64.7485 63.6446L64.8376 54.7459L64.8549 53.0415L75.0556 53.533L75.4408 63.6705Z" fill="#7195FD"/>
<path fill-rule="evenodd" clip-rule="evenodd" d="M69.7957 73.6812L69.6577 73.914H69.8561L69.7957 73.6812Z" fill="white"/>
<path fill-rule="evenodd" clip-rule="evenodd" d="M63.5646 52.5296L63.4726 61.9485L58.7358 53.8748L58.96 44.4702L63.5646 52.5296Z" fill="white"/>
<path fill-rule="evenodd" clip-rule="evenodd" d="M56.6261 74.308L48.2017 79.588L43.0625 70.4622L51.5617 65.2368L56.6261 74.308Z" fill="white"/>
<path fill-rule="evenodd" clip-rule="evenodd" d="M36.3394 59.5542L36.3451 59.5571H36.3394V59.5542Z" fill="white"/>
<path fill-rule="evenodd" clip-rule="evenodd" d="M37.5063 54.6709H37.5178L37.515 54.6766L37.5063 54.6709Z" fill="white"/>
</svg>
