<svg width="96" height="96" viewBox="0 0 96 96" fill="none" xmlns="http://www.w3.org/2000/svg">
<path fill-rule="evenodd" clip-rule="evenodd" d="M0 43.023C2.80264e-05 18.834 21.9448 0 48 0C74.0553 0 96 18.834 96 43.0231V52.9769C96 77.166 74.0553 96 48 96C21.9448 96 0 77.166 0 52.9769V43.023ZM3.91837 43.023C3.91839 21.4261 23.6544 3.91837 48 3.91837C72.3456 3.91837 92.0817 21.4261 92.0817 43.0231V52.9769C92.0817 74.5739 72.3456 92.0816 48 92.0816C23.6544 92.0816 3.91837 74.5739 3.91837 52.9769V43.023Z" fill="#633001"/>
<path d="M92.0818 52.9768C92.0818 74.5737 72.3457 92.0815 48.0001 92.0815C23.6545 92.0815 3.91846 74.5737 3.91846 52.9768V43.0229H92.0818V52.9768Z" fill="#FEDC90"/>
<path d="M92.0818 43.0231C92.0818 64.62 72.3457 82.1277 48.0001 82.1277C23.6545 82.1277 3.91846 64.62 3.91846 43.0231C3.91846 21.4261 23.6545 3.91837 48.0001 3.91837C72.3457 3.91837 92.0818 21.4261 92.0818 43.0231Z" fill="#D1884F"/>
<path d="M77.8776 43.4667C77.8776 41.1533 77.6699 39.465 77.2205 37.7143H48V48.1562H65.1518C64.8061 50.7512 62.9388 54.6591 58.789 57.2851L58.7309 57.6347L67.9699 64.1055L68.61 64.1633C74.4885 59.2548 77.8776 52.0329 77.8776 43.4667Z" fill="#633001"/>
<path d="M48.1371 71.0204C56.4684 71.0204 63.4626 68.5238 68.5713 64.2176L58.8341 57.3521C56.2285 59.006 52.7312 60.1606 48.1371 60.1606C39.9771 60.1606 33.0515 55.2615 30.5827 48.4898L30.2208 48.5178L20.6959 55.227L20.5713 55.5422C25.6455 64.7167 36.0684 71.0204 48.1371 71.0204Z" fill="#8A4B17"/>
<path d="M30.3676 48.2616C29.72 46.5059 29.3452 44.6247 29.3452 42.681C29.3452 40.7371 29.72 38.856 30.3335 37.1004L30.3163 36.7265L20.7287 29.8776L20.4151 30.0148C18.336 33.8398 17.1431 38.135 17.1431 42.681C17.1431 47.227 18.336 51.522 20.4151 55.347L30.3676 48.2616Z" fill="#A8610F"/>
<path d="M48.2996 25.2997C54.1279 25.2997 58.0594 27.6273 60.3012 29.5724L69.0611 21.665C63.6812 17.0418 56.68 14.2041 48.2996 14.2041C36.1597 14.2041 25.6754 20.6447 20.5713 30.0186L30.6072 37.2245C33.125 30.3056 40.0915 25.2997 48.2996 25.2997Z" fill="#633001"/>
</svg>
