<svg xmlns="http://www.w3.org/2000/svg" width="96" height="96" fill="none" viewBox="0 0 96 96"><circle cx="48" cy="48" r="48" fill="#0F1837"/><g clip-path="url(#clip0)"><path fill="#C9A31E" d="M38.709 53.8529L33.3847 53.7919V40.0622C33.3847 39.7073 33.3148 39.3558 33.1789 39.0279C33.043 38.7 32.8439 38.4021 32.5928 38.1512C32.3418 37.9003 32.0437 37.7013 31.7157 37.5657C31.3878 37.43 31.0363 37.3603 30.6813 37.3605C30.3262 37.3605 29.9745 37.4305 29.6464 37.5664C29.3183 37.7024 29.0202 37.9017 28.7692 38.1529C28.5181 38.4041 28.319 38.7023 28.1833 39.0305C28.0475 39.3586 27.9777 39.7104 27.9779 40.0655V56.106C27.9779 56.1671 27.9779 56.2281 27.9779 56.2875C27.9779 56.3469 27.9779 56.3848 27.9779 56.4359C27.974 56.7909 28.0401 57.1433 28.1723 57.4727C28.3046 57.8022 28.5004 58.1025 28.7487 58.3562C28.997 58.61 29.2928 58.8124 29.6193 58.9519C29.9458 59.0913 30.2966 59.1651 30.6516 59.169L38.648 59.2597H38.6843C39.4013 59.2637 40.0904 58.9826 40.6002 58.4784C41.11 57.9742 41.3986 57.2882 41.4025 56.5712C41.4064 55.8542 41.1254 55.165 40.6212 54.6552C40.117 54.1455 39.4309 53.8569 38.714 53.8529H38.709Z"/><path fill="#fff" d="M71.2304 32.5953C71.0575 32.5948 70.8874 32.5511 70.7356 32.4683C70.6053 32.399 67.5473 30.7331 66.2096 29.9463C65.9872 29.8101 65.8051 29.6172 65.6819 29.3873C65.5587 29.1575 65.4989 28.899 65.5086 28.6384C65.5086 28.1765 65.7049 27.5778 66.2261 27.2842C68.2054 26.1692 70.7141 24.8101 70.7389 24.8101C70.8592 24.7451 70.9911 24.7044 71.1272 24.6905C71.2632 24.6765 71.4007 24.6894 71.5317 24.7285C71.6627 24.7677 71.7847 24.8322 71.8908 24.9185C71.9969 25.0048 72.085 25.1112 72.1499 25.2315C72.2149 25.3518 72.2556 25.4838 72.2696 25.6198C72.2835 25.7558 72.2706 25.8933 72.2315 26.0243C72.1923 26.1553 72.1278 26.2774 72.0415 26.3835C71.9552 26.4895 71.8488 26.5776 71.7285 26.6426C71.7071 26.6541 69.8597 27.6504 68.0916 28.6334C69.576 29.4713 71.7054 30.6341 71.7318 30.6473C71.9346 30.7579 72.0949 30.9328 72.1873 31.1445C72.2798 31.3562 72.2992 31.5926 72.2425 31.8166C72.1858 32.0405 72.0563 32.2392 71.8742 32.3814C71.6922 32.5236 71.468 32.6011 71.237 32.6019L71.2304 32.5953Z"/><path fill="#fff" d="M57.715 71.3202C55.5757 71.3238 53.4436 71.0702 51.3648 70.5648C45.775 69.1958 42.5256 66.4594 42.3904 66.3439C42.078 66.0778 41.8842 65.6984 41.8516 65.2893C41.8189 64.8802 41.9502 64.4749 42.2163 64.1626C42.4825 63.8503 42.8619 63.6564 43.271 63.6238C43.6801 63.5912 44.0854 63.7224 44.3977 63.9886C44.876 64.391 56.0194 73.5007 72.8484 63.8236C73.0247 63.7177 73.2203 63.6481 73.4239 63.6187C73.6274 63.5893 73.8348 63.6008 74.0338 63.6524C74.2329 63.7041 74.4196 63.795 74.5832 63.9197C74.7467 64.0444 74.8837 64.2004 74.9862 64.3787C75.0887 64.557 75.1547 64.7539 75.1802 64.958C75.2057 65.162 75.1903 65.3691 75.1348 65.5672C75.0794 65.7652 74.985 65.9502 74.8572 66.1113C74.7294 66.2724 74.5708 66.4065 74.3906 66.5056C68.0057 70.1805 62.3169 71.3202 57.715 71.3202Z"/><path fill="#C9A41E" d="M47.1441 59.2383C46.3939 59.2378 45.6744 58.9397 45.1438 58.4094C44.6131 57.879 44.3146 57.1598 44.3137 56.4095V40.1892C44.3137 39.4388 44.6117 38.7192 45.1421 38.1884C45.6726 37.6577 46.3921 37.3593 47.1425 37.3588C47.8927 37.3588 48.6122 37.6569 49.1427 38.1873C49.6732 38.7178 49.9712 39.4373 49.9712 40.1876V56.4079C49.9714 56.7794 49.8985 57.1472 49.7565 57.4905C49.6145 57.8338 49.4064 58.1458 49.1438 58.4086C48.8813 58.6714 48.5696 58.88 48.2265 59.0223C47.8834 59.1647 47.5156 59.2381 47.1441 59.2383Z"/><path fill="#C9A41E" d="M69.6567 59.3323C68.9061 59.3323 68.1862 59.0341 67.6554 58.5033C67.1246 57.9725 66.8264 57.2526 66.8264 56.5019V47.2768C66.7854 46.391 66.5696 45.5221 66.1913 44.7202C65.5464 43.4287 64.5419 42.853 62.9073 42.853H62.8991C61.4146 42.853 60.5239 43.4303 59.9302 44.7812C59.6039 45.5678 59.4158 46.4048 59.3743 47.2553V56.492C59.3834 56.8694 59.317 57.2447 59.1789 57.596C59.0408 57.9472 58.8338 58.2673 58.5701 58.5374C58.3065 58.8075 57.9915 59.0222 57.6437 59.1687C57.2958 59.3152 56.9222 59.3907 56.5447 59.3907C56.1673 59.3907 55.7937 59.3152 55.4458 59.1687C55.098 59.0222 54.783 58.8075 54.5193 58.5374C54.2557 58.2673 54.0487 57.9472 53.9106 57.596C53.7725 57.2447 53.7061 56.8694 53.7152 56.492V47.2553C53.7152 43.2126 56.1596 37.1939 62.8925 37.1939H62.904C65.553 37.1939 67.8374 38.078 69.5116 39.7488C72.3997 42.6353 72.4805 46.7951 72.4805 47.2603V56.497C72.4814 56.8686 72.409 57.2367 72.2676 57.5804C72.1261 57.924 71.9183 58.2364 71.6561 58.4997C71.3939 58.763 71.0823 58.9721 70.7393 59.1149C70.3962 59.2578 70.0284 59.3317 69.6567 59.3323Z"/><path fill="#fff" d="M82.1544 48.5336L86.8998 41.6572C87.1196 41.3498 87.2761 41.0017 87.36 40.6332C87.4439 40.2648 87.4536 39.8833 87.3886 39.511C87.3235 39.1387 87.185 38.7831 86.981 38.4649C86.7771 38.1467 86.5119 37.8723 86.2008 37.6577C85.8898 37.4431 85.5391 37.2926 85.1692 37.2149C84.7994 37.1373 84.4177 37.134 84.0466 37.2054C83.6755 37.2767 83.3223 37.4213 83.0076 37.6306C82.693 37.8398 82.4231 38.1097 82.2138 38.4244L76.3303 46.9502C76.3303 46.9502 76.3303 46.9634 76.3188 46.97C76.2344 47.0988 76.1599 47.2339 76.0961 47.3741C76.0796 47.4103 76.0582 47.4466 76.0433 47.4846C75.998 47.6025 75.96 47.7232 75.9295 47.8458C75.9147 47.9068 75.8932 47.9678 75.8817 48.0289C75.865 48.1293 75.854 48.2307 75.8487 48.3324C75.8487 48.4165 75.8306 48.4973 75.8306 48.5847C75.8306 48.6721 75.8438 48.7497 75.852 48.8288C75.8588 48.9323 75.8714 49.0353 75.8899 49.1373C75.9031 49.1983 75.9246 49.256 75.9411 49.3154C75.9722 49.4397 76.0125 49.5615 76.0615 49.6799C76.0763 49.7162 76.0961 49.7492 76.1143 49.7839C76.1795 49.9254 76.2568 50.0612 76.3452 50.1896C76.3452 50.1896 76.3452 50.2028 76.3567 50.2094L81.9548 58.0557C82.4052 58.6362 83.0625 59.0202 83.7894 59.1272C84.5163 59.2343 85.2565 59.0562 85.8551 58.6301C86.4537 58.2041 86.8644 57.5631 87.0013 56.8412C87.1382 56.1193 86.9907 55.3725 86.5897 54.7568L82.1544 48.5336Z"/><path fill="#fff" d="M46.9758 32.1318C48.9244 32.1318 50.5039 30.5522 50.5039 28.6037C50.5039 26.6552 48.9244 25.0756 46.9758 25.0756C45.0273 25.0756 43.4478 26.6552 43.4478 28.6037C43.4478 30.5522 45.0273 32.1318 46.9758 32.1318Z"/><path fill="#C9A31E" d="M20.6593 47.1959C20.6593 47.1959 23.6843 46.9254 23.5788 42.3961C23.465 37.5155 17.7283 37.311 17.7283 37.311H11.3929C10.6668 37.3192 9.97319 37.6134 9.46249 38.1296C8.9518 38.6459 8.66518 39.3426 8.66479 40.0688V56.7278C8.66523 57.4591 8.95593 58.1603 9.47302 58.6774C9.99012 59.1945 10.6913 59.4852 11.4226 59.4857C11.4226 59.4857 14.6208 59.4609 16.1713 59.4857C22.5512 59.5797 25.2628 57.1583 25.3585 53.0892C25.4789 47.6528 20.6593 47.1959 20.6593 47.1959ZM14.032 41.5879C14.032 41.5879 15.8034 41.5632 16.3412 41.5879C16.8789 41.6126 18.7411 41.7941 18.6635 43.9235C18.586 46.0529 16.1894 45.9506 16.1894 45.9506H14.032V41.5879ZM16.1878 55.1807H14.032V50.2539C14.032 50.2539 15.8034 50.2275 16.3412 50.2539C16.8789 50.2803 19.9286 50.023 20.0012 52.7148C20.0754 55.3407 16.1878 55.1889 16.1878 55.1889V55.1807Z"/></g><defs><clipPath id="clip0"><rect width="78.746" height="46.64" fill="#fff" transform="translate(8.65674 24.6799)"/></clipPath></defs></svg>