<svg width="96" height="97" viewBox="0 0 96 97" fill="none" xmlns="http://www.w3.org/2000/svg">
<g clip-path="url(#clip0)">
<path d="M48 96.8936C74.5097 96.8936 96 75.4032 96 48.8936C96 22.3839 74.5097 0.893555 48 0.893555C21.4903 0.893555 0 22.3839 0 48.8936C0 75.4032 21.4903 96.8936 48 96.8936Z" fill="#FFE804"/>
<path fill-rule="evenodd" clip-rule="evenodd" d="M48.7679 16.2534C50.8799 16.2534 52.7999 19.5174 52.7999 23.3574C52.7999 23.5494 52.7999 23.5494 52.7999 23.5494C53.9519 22.2054 55.2959 21.4374 56.4479 21.8214C57.5999 22.2054 57.9839 23.7414 57.7919 25.6614C57.7919 26.6214 57.5999 27.5814 57.2159 28.5414C57.0239 29.1174 56.6399 29.6934 56.4479 30.0774C71.8079 33.9174 82.7519 47.1654 82.5599 70.0134H73.1519C73.3439 50.6214 62.3999 41.0214 48.1919 40.8294C32.6399 40.4454 23.9999 51.1974 23.0399 70.0134H13.4399C14.5919 46.9734 24.1919 33.1494 41.0879 30.2694C40.8959 29.8854 40.3199 29.1174 40.1279 28.5414C38.7839 25.6614 38.9759 22.7814 40.5119 22.0134C41.6639 21.4374 43.5839 22.3974 44.7359 24.1254C44.7359 23.9334 44.7359 23.5494 44.7359 23.3574C44.9279 19.5174 46.6559 16.2534 48.7679 16.2534ZM40.1279 51.9654C41.2799 51.9654 42.2399 53.1174 42.2399 54.2694V60.0294C42.2399 61.3734 41.2799 62.3334 40.1279 62.3334C38.9759 62.3334 38.0159 61.1814 38.0159 60.0294V54.2694C38.2079 52.9254 38.9759 51.9654 40.1279 51.9654ZM56.6399 51.9654C57.7919 51.9654 58.7519 53.1174 58.7519 54.2694V60.0294C58.7519 61.3734 57.7919 62.3334 56.6399 62.3334C55.4879 62.3334 54.5279 61.1814 54.5279 60.0294V54.2694C54.7199 52.9254 55.4879 51.9654 56.6399 51.9654Z" fill="black"/>
</g>
<defs>
<clipPath id="clip0">
<rect width="96" height="96" fill="white" transform="translate(0 0.893555)"/>
</clipPath>
</defs>
</svg>
