<svg width="96" height="96" viewBox="0 0 96 96" fill="none" xmlns="http://www.w3.org/2000/svg">
<path d="M47.9988 0C74.5097 0 95.9984 21.4903 95.9984 48.0012C95.9984 74.5081 74.5097 96 47.9988 96C21.4878 96 0 74.5081 0 48.0012C0 21.4903 21.4878 0 47.9988 0Z" fill="#060001"/>
<path d="M9.46826 22.5083C9.46826 22.5083 11.3528 26.8555 12.9706 33.6662L15.1753 27.7626L9.46826 22.5083Z" fill="#59438F"/>
<path d="M15.1762 27.7627L12.9714 33.6662C14.2076 38.9206 15.1762 45.6657 14.9854 53.1272L18.8127 42.0348C18.5508 39.894 18.2929 37.6221 17.9016 35.2226L20.369 37.5583L21.6667 33.7948L15.1762 27.7627Z" fill="#80478F"/>
<path d="M23.2221 45.4692C23.2221 45.4692 25.7511 59.8691 19.719 73.4945C19.719 73.4945 20.4305 73.2325 21.7944 72.8453L28.9292 50.9225C27.1781 49.4906 25.2312 47.7411 23.2221 45.4692Z" fill="#D42C78"/>
<path d="M21.5994 33.6665L20.301 37.4939L30.2898 46.768L31.5874 42.8121L21.5994 33.6665Z" fill="#D42C78"/>
<path d="M10.833 73.2997C10.833 73.2997 22.1194 72.3926 18.7456 41.9702L14.9183 53.061C14.7226 59.5458 13.5584 66.4228 10.833 73.2997Z" fill="#D42C78"/>
<path d="M41.9677 42.1626L39.4387 45.4693C39.4387 45.4693 40.2828 46.4435 41.7097 47.8705L42.7462 43.0042C42.4875 42.7479 42.2256 42.4876 41.9677 42.1626Z" fill="#DEB343"/>
<path d="M44.6923 34.3146L46.6392 25.2329L31.7833 43.0042L31.5877 42.8117L30.29 46.7676L31.7833 48.1308L44.6923 34.3146Z" fill="#DEB343"/>
<path d="M26.6583 67.0713C26.6583 67.0713 28.3472 60.5194 27.8273 55.0734L37.749 61.2963C37.749 61.2963 38.2066 61.0392 38.9852 60.4515L40.4736 53.5131C39.6328 54.1623 38.7887 54.8778 37.8153 55.5262C37.8153 55.5262 33.988 54.8107 28.9293 50.9219L21.7944 72.8447C24.5198 71.9998 29.8356 70.5737 36.9082 69.6625L38.0724 64.4737C34.3122 64.9951 30.4856 65.84 26.6583 67.0713Z" fill="#DEB343"/>
<path d="M47.2211 31.59L55.6535 40.8649L56.7563 35.8062L46.7012 25.2329H46.639L44.6921 34.3146L47.2211 31.59Z" fill="#81BA5A"/>
<path d="M52.2127 57.083L53.1246 52.8643C52.2798 52.2192 51.3056 51.3751 50.2036 50.4688C51.6306 48.9739 53.1861 47.2203 54.7465 45.3406V45.2121L52.0841 41.9692C52.0841 41.9692 50.333 44.3025 47.0926 47.5453C45.795 46.2493 44.3009 44.7561 42.7454 43.0704L41.7089 47.9334C42.4203 48.6441 43.2652 49.4897 44.1715 50.3961C43.0687 51.4358 41.7711 52.4771 40.4735 53.579L38.9851 60.5182C40.5406 59.4155 43.5902 57.0822 47.4176 53.3211C48.906 54.5484 50.5286 55.8476 52.2127 57.083Z" fill="#81BA5A"/>
<path d="M38.0731 64.4088L36.9089 69.6016C40.67 69.0802 45.0164 68.6945 49.6846 68.6274L50.7922 63.5024C46.7676 63.5016 42.4875 63.7595 38.0731 64.4088Z" fill="#81BA5A"/>
<path d="M59.1559 56.496C59.1559 56.496 57.2762 56.1088 53.1246 52.8643L52.2126 57.083C54.7472 58.8964 57.4055 60.519 59.9345 61.4924C59.9345 61.4924 62.3357 57.7314 66.2908 53.7755L67.3935 48.0005C64.6681 50.1397 61.815 52.9314 59.1559 56.496Z" fill="#5EA4D4"/>
<path d="M62.2057 48.1307L68.4294 42.2918L69.5362 36.3915C66.1632 39.5033 63.3715 42.0347 62.9842 42.4228L56.7565 35.8062L55.6545 40.8648L62.2057 48.1307Z" fill="#5EA4D4"/>
<path d="M50.7915 63.5679L49.6838 68.6937C53.9025 68.6266 58.4413 68.7559 63.2421 69.2758L64.1484 64.475C60.321 63.9551 55.783 63.5679 50.7915 63.5679Z" fill="#5EA4D4"/>
<path d="M80.0399 40.9957L78.7463 45.7948C81.7919 44.8877 85.0363 44.7567 88.4109 45.7293L88.9316 42.8762C86.7212 41.5139 83.805 40.6715 80.0399 40.9957Z" fill="#80478F"/>
<path d="M76.7323 67.1381C76.7323 67.1381 75.4347 66.7476 73.23 66.1598L72.0649 70.575C75.6966 71.2897 79.3946 72.2598 83.1557 73.4273C83.1557 73.4273 77.4478 62.5322 78.7454 45.7295L74.9803 59.6119C75.3732 62.0794 75.9554 64.6051 76.7323 67.1381Z" fill="#80478F"/>
<path d="M94.8958 49.0373C94.8958 49.0373 93.1438 45.2132 88.9931 42.812L88.4724 45.666C90.5494 46.3152 92.6911 47.4171 94.8958 49.0373Z" fill="#59438F"/>
<path d="M76.6039 34.5089C76.6039 34.5089 75.4348 37.7541 74.7242 43.0715C72.6488 44.1743 70.052 45.7298 67.3274 48.0016L66.2246 53.7766C68.4293 51.5711 71.221 49.296 74.3329 47.6111C74.1413 51.1806 74.2706 55.2659 74.9813 59.6802L80.04 40.9961C79.7829 40.9961 79.5864 41.0608 79.3293 41.0608C80.1742 35.4176 81.859 29.1899 84.8407 22.5757C84.8407 22.5757 76.0832 30.4883 69.6647 36.3918L68.5627 42.2921L76.6039 34.5089Z" fill="#D42C78"/>
<path d="M64.1483 64.4751L63.2419 69.2759C66.0959 69.6009 69.0161 70.0544 71.9994 70.6406L73.1685 66.2271C71.026 65.645 67.9134 64.995 64.1483 64.4751Z" fill="#D42C78"/>
<path d="M73.2309 66.2271L71.9988 70.6405L73.2309 66.2271Z" fill="#D42C78"/>
<path d="M80.0399 40.9961L74.9812 59.6793L78.7463 45.7952C78.7463 45.7952 78.7463 45.7952 78.7463 45.7298L80.0399 40.9961Z" fill="#D42C78"/>
</svg>
