<svg xmlns="http://www.w3.org/2000/svg" width="96" height="96" fill="none" viewBox="0 0 96 96"><circle cx="48" cy="48" r="48" fill="#fff"/><g clip-path="url(#clip0)"><path fill="#1B75BC" d="M34.1542 70.6703L48.4001 56.4254L62.645 70.6703L71.1146 62.2006L56.8697 47.9558L71.1146 33.7109L62.645 25.2402L48.4001 39.4851L34.1542 25.2402L25.6846 33.7109L39.9295 47.9558L25.6846 62.2006L34.1542 70.6703Z"/><path fill="#3C3C3B" d="M43.4537 15.9463L35.1348 24.2653L42.1427 31.2732L48.4001 24.9406L54.6564 31.2732L61.6653 24.2653L53.3464 15.9463L48.4001 11L43.4537 15.9463Z"/><path fill="#3C3C3B" d="M43.4537 80.054L35.1348 71.735L42.1427 64.7271L48.4001 71.0588L54.6564 64.7271L61.6653 71.735L53.3464 80.054L48.4001 85.0003L43.4537 80.054Z"/></g><defs><clipPath id="clip0"><rect width="74" height="74" fill="#fff" transform="translate(11 11)"/></clipPath></defs></svg>