<svg xmlns="http://www.w3.org/2000/svg" width="96" height="96" fill="none" viewBox="0 0 96 96"><circle cx="48" cy="48" r="48" fill="#FFFDFA"/><path fill="#08060B" d="M47.9999 19.5955C36.2541 19.5955 26.6541 29.139 26.6541 40.9413C26.6541 43.3131 27.0493 45.6284 27.7835 47.8872C28.2917 49.4119 29.9858 50.259 31.567 49.7508C33.0917 49.2425 33.9388 47.5484 33.4305 45.9672C32.8093 44.2166 32.527 42.3531 32.5835 40.4896C32.8093 32.5272 39.247 25.9766 47.2093 25.5813C56.0752 25.1296 63.4164 32.1884 63.4164 40.9413C63.4164 49.1296 56.9788 55.8496 48.9035 56.3013C48.9035 56.3013 45.9105 56.4708 44.4423 56.6966C43.7082 56.8096 43.1435 56.9225 42.7482 56.979C42.5788 57.0355 42.4093 56.8661 42.4658 56.6966L42.9741 54.2119L45.7411 41.4496C46.0799 39.8684 45.0635 38.2872 43.4823 37.9484C41.9011 37.6096 40.3199 38.626 39.9811 40.2072C39.9811 40.2072 33.3176 71.2661 33.2611 71.6049C32.9223 73.1861 33.9388 74.7672 35.5199 75.1061C37.1011 75.4449 38.6823 74.4284 39.0211 72.8472C39.0776 72.5084 39.9811 68.3861 39.9811 68.3861C40.6588 65.2237 43.2564 62.9084 46.3058 62.5131C46.9835 62.4002 49.6376 62.2308 49.6376 62.2308C60.6493 61.3837 69.3458 52.179 69.3458 40.9413C69.3458 29.139 59.7458 19.5955 47.9999 19.5955Z"/><path fill="#E6007A" d="M49.5247 68.7247C47.6047 68.3294 45.6847 69.5153 45.2894 71.4917C44.8941 73.4117 46.08 75.3317 48.0564 75.727C49.9764 76.1223 51.8964 74.9364 52.2917 72.96C52.687 70.9835 51.5011 69.12 49.5247 68.7247Z"/></svg>