<?xml version="1.0" encoding="utf-8"?>
<!-- Generator: Adobe Illustrator 26.0.2, SVG Export Plug-In . SVG Version: 6.00 Build 0)  -->
<svg version="1.1" id="Layer_1" xmlns="http://www.w3.org/2000/svg" xmlns:xlink="http://www.w3.org/1999/xlink" x="0px" y="0px"
	 viewBox="0 0 331.6 331.6" style="enable-background:new 0 0 331.6 331.6;" xml:space="preserve">
<style type="text/css">
	.st0{fill:#FFFFFF;}
	.st1{fill:#FBB600;}
</style>
<circle cx="165.8" cy="165.8" r="165.8"/>
<g>
	<path class="st0" d="M94.1,124c14.8-8.9,45.1-26.5,45.1-26.5s30.3,17.5,45.2,26.3c0.2,16.3,0.3,50.7,0.3,50.7s-18.4,12.2-26.6,16.9
		c6.1,3.5,18.3,10.9,18.3,10.9l26.8-15.9l-0.2-75.2l-64-36.8l-63.8,37.1l0.2,75.2l26.9,15.8c0,0,12.2-7.4,18.3-11
		c-8.2-4.7-26.6-16.8-26.6-16.8S93.9,140.3,94.1,124z"/>
	<path class="st0" d="M256.1,144.9l-26.9-15.8c0,0-12.2,7.4-18.3,11c8.2,4.7,26.6,16.8,26.6,16.8s0.1,34.4-0.1,50.7
		c-14.8,8.9-45.1,26.5-45.1,26.5l0,0.1c-10.2-5.9-24.8-14.4-33.7-19.7c0,0,0,0,0,0c-4.2-2.5-8.2-4.8-11.4-6.7
		c-0.2-16.3-0.3-50.7-0.3-50.7s0.1,0,0.1-0.1c0.9-0.6,18.5-12.2,26.5-16.9c-6.1-3.5-18.3-10.9-18.3-10.9l-26.8,15.9l0.2,75.2
		L140,227l52.5,30.2l63.6-37l0.2-0.1L256.1,144.9z"/>
</g>
<g>
	<path class="st1" d="M246.3,257.3c0.1,0,0.2,0.1,0.3,0.1c0.8,0.4,1.5,0.9,2.3,1.3c0.1,0,0.1,0,0.1,0c0.1-0.1,0.3-0.2,0.4-0.2
		c0.6-0.3,1.1-0.6,1.7-1c0.6-0.4,1.3-0.7,1.9-1.1c0.4-0.2,0.8-0.5,1.2-0.7c0.1,0,0.1,0,0.2,0c0.3,0.2,0.6,0.3,0.9,0.5
		c0.6,0.4,1.3,0.8,1.9,1.1c0.8,0.5,1.6,0.9,2.3,1.4c0.1,0,0.1,0,0.2,0c0.5-0.3,0.9-0.5,1.4-0.8c0.4-0.2,0.7-0.4,1.1-0.6
		c0.1,0,0.1-0.1,0-0.1c-0.1-0.1-0.3-0.2-0.4-0.2c-0.4-0.2-0.7-0.4-1.1-0.6c-0.6-0.3-1.1-0.6-1.7-1c-0.6-0.4-1.3-0.7-1.9-1.1
		c-0.5-0.3-1-0.6-1.4-0.8c-0.4-0.2-0.8-0.5-1.2-0.7c0,0-0.1-0.1-0.1-0.1c-0.1,0-0.1,0-0.2,0c0,0,0,0-0.1,0.1c0,0-0.1,0-0.1,0.1
		c-0.5,0.3-1,0.6-1.5,0.9c-0.6,0.3-1.1,0.6-1.7,1c-0.7,0.4-1.3,0.8-2,1.2c-0.5,0.3-1.1,0.6-1.6,0.9c-0.3,0.2-0.6,0.4-0.9,0.5
		C246.2,257.2,246.2,257.2,246.3,257.3z"/>
	<path class="st1" d="M256.9,279.1c0,0,0-0.1,0-0.1c-0.1,0-0.1,0-0.1,0.1c-0.3,0.2-0.7,0.4-1,0.6c-0.5,0.3-1,0.5-1.4,0.8
		c-0.1,0-0.1,0-0.2,0c-0.3-0.2-0.6-0.3-0.9-0.5c-0.5-0.3-1.1-0.6-1.6-0.9c0,0-0.1,0-0.1-0.1c0,0.1,0,0.1,0,0.1c0,1,0,1.9,0,2.9
		c0,0.1,0,0.2,0.1,0.2c0.3,0.2,0.7,0.4,1,0.6c0.4,0.3,0.9,0.5,1.3,0.8c0,0,0.1,0.1,0.1,0.1c0.1,0,0.1,0,0.2,0c0,0,0.1-0.1,0.1-0.1
		c0.2-0.1,0.3-0.2,0.5-0.3c0.4-0.2,0.7-0.4,1.1-0.6c0.3-0.2,0.6-0.3,0.9-0.5c0.1,0,0.1-0.1,0.1-0.1c0,0,0-0.1,0-0.1
		C256.9,280.9,256.9,280,256.9,279.1z"/>
	<path class="st1" d="M262.2,266.6c0.1,0,0.1-0.1,0.1-0.2c0-1,0-1.9,0-2.9c0-0.1,0-0.1-0.1-0.2c-0.4-0.3-0.9-0.5-1.3-0.8
		c-0.4-0.2-0.7-0.4-1.1-0.6c-0.2-0.1-0.1-0.1-0.3,0c-0.6,0.3-1.2,0.7-1.8,1c-0.5,0.3-1,0.6-1.5,0.8c-0.6,0.4-1.3,0.7-1.9,1.1
		c-0.1,0-0.1,0-0.2,0c-0.3-0.2-0.5-0.3-0.8-0.5c-0.5-0.3-1-0.6-1.4-0.8c-0.5-0.3-0.9-0.5-1.4-0.8c-0.5-0.3-1.1-0.6-1.6-0.9
		c-0.1,0-0.1,0-0.1,0c-0.4,0.3-0.9,0.5-1.3,0.8c-0.4,0.2-0.8,0.5-1.2,0.7c-0.1,0-0.1,0.1-0.1,0.2c0,0.3,0,0.6,0,0.9c0,0.7,0,1.3,0,2
		c0,0.1,0,0.2,0.1,0.2c0.1,0.1,0.2,0.1,0.4,0.2c0.6,0.3,1.2,0.7,1.8,1c0.5,0.3,1,0.6,1.4,0.8c0.4,0.2,0.8,0.5,1.2,0.7
		c0.1,0.1,0.2,0.1,0.4,0.2c0.1,0,0.1,0.1,0.1,0.2c0,1,0,2,0,3c0,0,0,0,0,0c0,1,0,2,0,3c0,0.1,0,0.2,0.1,0.2c0.2,0.1,0.4,0.2,0.5,0.3
		c0.7,0.4,1.3,0.8,2,1.1c0.1,0,0.1,0,0.2,0c0.2-0.1,0.5-0.3,0.7-0.4c0.6-0.3,1.2-0.7,1.8-1c0.1,0,0.1-0.1,0.1-0.2c0-2,0-4,0-6
		c0-0.1,0-0.1,0.1-0.2c0.1-0.1,0.2-0.1,0.3-0.2c0.7-0.4,1.3-0.8,2-1.1c0.5-0.3,1.1-0.6,1.6-0.9C261.3,267.1,261.8,266.8,262.2,266.6
		z"/>
	<path class="st1" d="M267.7,271.2c0-1.5,0-3,0-4.5c0,0,0,0,0-0.1c0-0.1,0-0.1-0.1-0.1c0,0-0.1,0-0.1,0c-0.5,0.3-1.1,0.6-1.6,0.9
		c-0.3,0.2-0.6,0.3-0.8,0.5c-0.1,0-0.1,0.1-0.1,0.2c0,0.1,0,0.1,0,0.2c0,1.9,0,3.8,0,5.7c0,0.1,0,0.1,0,0.2c0,0.1,0,0.1-0.1,0.2
		c-0.2,0.1-0.3,0.2-0.5,0.3c-0.7,0.4-1.3,0.8-2,1.1c-0.6,0.3-1.2,0.7-1.8,1c-0.3,0.2-0.6,0.4-0.9,0.5c-0.1,0-0.1,0.1-0.1,0.2
		c0,0.2,0,0.3,0,0.5c0,0.8,0,1.6,0,2.4c0,0,0,0.1,0,0.1c0,0,0.1,0,0.1,0c0.2-0.1,0.3-0.2,0.5-0.3c0.5-0.3,1-0.6,1.5-0.9
		c0.6-0.4,1.3-0.7,1.9-1.1c0.5-0.3,0.9-0.5,1.4-0.8c0.4-0.2,0.8-0.5,1.2-0.7c0.4-0.3,0.9-0.5,1.3-0.8c0.1,0,0.1-0.1,0.1-0.2
		C267.7,274.2,267.7,272.7,267.7,271.2z"/>
	<path class="st1" d="M248.9,277.5c0-0.1,0-0.1-0.1-0.2c-0.2-0.1-0.4-0.2-0.6-0.3c-0.7-0.4-1.4-0.8-2.1-1.2
		c-0.5-0.3-0.9-0.5-1.4-0.8c-0.4-0.2-0.7-0.4-1.1-0.6c-0.1,0-0.1-0.1-0.1-0.2c0-2,0-4,0-6c0-0.1,0-0.2-0.1-0.2
		c-0.6-0.3-1.2-0.7-1.8-1c-0.2-0.1-0.4-0.3-0.7-0.4c0,0-0.1-0.1-0.2,0c0,3.1,0,6.2,0,9.3c0.3,0.2,0.6,0.4,0.9,0.5
		c0.5,0.3,1,0.6,1.5,0.9c0.6,0.3,1.1,0.6,1.7,1c0.7,0.4,1.4,0.8,2.1,1.2c0.6,0.3,1.2,0.7,1.8,1c0,0,0.1,0.1,0.1,0c0,0,0-0.1,0-0.1
		C248.9,279.4,248.9,278.5,248.9,277.5z"/>
	<path class="st1" d="M240.8,263.4c0.1,0.1,0.2,0.1,0.3,0.2c0.6,0.3,1.2,0.7,1.8,1c0.2,0.1,0.3,0.2,0.5,0.3c0.1,0.1,0.1,0,0.1-0.1
		c0-0.1,0-0.2,0-0.2c0-0.9,0-1.7,0-2.6c0-0.1,0-0.2,0.1-0.2c0.1,0,0.1-0.1,0.2-0.1c0.6-0.3,1.1-0.7,1.7-1c0.2-0.1,0.4-0.2,0.6-0.4
		c0.1,0,0.1-0.1,0-0.1c-0.1-0.1-0.2-0.1-0.3-0.2c-0.5-0.3-1-0.6-1.5-0.8c-0.2-0.1-0.5-0.3-0.7-0.4c-0.1,0-0.1,0-0.2,0
		c-0.1,0.1-0.2,0.1-0.3,0.2c-0.5,0.3-1,0.6-1.6,0.9c-0.2,0.1-0.5,0.3-0.8,0.4c0,0,0,0.1,0,0.1c0,0.9,0,1.9,0,2.8
		C240.7,263.2,240.7,263.3,240.8,263.4C240.7,263.4,240.8,263.4,240.8,263.4z"/>
	<path class="st1" d="M262.4,260.4c0.2,0.1,0.5,0.3,0.7,0.4c0.6,0.3,1.2,0.7,1.7,1c0.1,0.1,0.1,0.1,0.1,0.2c0,1,0,1.9,0,2.9
		c0,0.1,0,0.1,0.1,0.1c0.1-0.1,0.3-0.2,0.4-0.2c0.4-0.2,0.8-0.5,1.2-0.7c0.3-0.2,0.6-0.3,0.9-0.5c0.1,0,0.1-0.1,0.1-0.2
		c0-0.5,0-0.9,0-1.4c0-0.5,0-1,0-1.4c0-0.1,0-0.1-0.1-0.2c-0.3-0.1-0.5-0.3-0.8-0.5c-0.6-0.3-1.2-0.7-1.8-1c-0.1,0-0.1,0-0.2,0
		c-0.1,0-0.2,0.1-0.2,0.1c-0.4,0.2-0.8,0.4-1.2,0.7c-0.4,0.2-0.8,0.4-1.1,0.7C262.3,260.3,262.3,260.3,262.4,260.4z"/>
	<path class="st1" d="M246.3,272.8c0.4,0.2,0.8,0.5,1.2,0.7c0.4,0.2,0.8,0.5,1.2,0.7c0,0,0.1,0.1,0.1,0c0,0,0-0.1,0-0.1
		c0-1,0-1.9,0-2.9c0-0.1,0-0.1-0.1-0.2c-0.1-0.1-0.2-0.1-0.4-0.2c-0.6-0.4-1.2-0.7-1.9-1.1c-0.1-0.1-0.2-0.1-0.3-0.2
		c-0.1,0-0.1,0-0.1,0.1c0,0,0,0,0,0c0,0.5,0,1,0,1.4c0,0.5,0,0.9,0,1.4C246.1,272.7,246.2,272.8,246.3,272.8z"/>
	<path class="st1" d="M259.6,274.2C259.6,274.2,259.6,274.3,259.6,274.2c0.1,0,0.1,0,0.1,0c0.3-0.2,0.5-0.3,0.8-0.5
		c0.6-0.3,1.1-0.6,1.7-0.9c0.1-0.1,0.1-0.1,0.1-0.2c0-0.5,0-0.9,0-1.4c0-0.5,0-1,0-1.4c0-0.1,0-0.1-0.1-0.1
		c-0.2,0.1-0.3,0.2-0.5,0.3c-0.7,0.4-1.3,0.8-2,1.1c-0.1,0-0.1,0.1-0.1,0.2C259.6,272.2,259.6,273.2,259.6,274.2
		C259.6,274.2,259.6,274.2,259.6,274.2z"/>
	<path class="st1" d="M256.6,260.1c-0.8-0.4-1.5-0.9-2.3-1.3c0,0-0.1,0-0.1,0c0,0-0.1,0-0.1,0c-0.4,0.2-0.8,0.5-1.2,0.7
		c-0.4,0.3-0.9,0.5-1.3,0.8c-0.1,0.1-0.1,0.1,0,0.1c0,0,0,0,0,0c0.4,0.2,0.7,0.4,1.1,0.6c0.5,0.3,0.9,0.5,1.4,0.8c0.1,0,0.1,0,0.2,0
		c0.2-0.1,0.5-0.3,0.7-0.4c0.4-0.2,0.8-0.4,1.2-0.7c0.2-0.1,0.4-0.2,0.6-0.4c0.1,0,0.1-0.1,0-0.1
		C256.8,260.2,256.7,260.1,256.6,260.1z"/>
</g>
</svg>
