<?xml version="1.0" encoding="utf-8"?>
<!-- Generator: Adobe Illustrator 25.4.1, SVG Export Plug-In . SVG Version: 6.00 Build 0)  -->
<svg version="1.1" id="Layer_1" xmlns="http://www.w3.org/2000/svg" xmlns:xlink="http://www.w3.org/1999/xlink" x="0px" y="0px"
	 viewBox="0 0 1920 1080" style="enable-background:new 0 0 1920 1080;" xml:space="preserve">
<style type="text/css">
	.st0{fill:#003876;}
	.st1{fill:#FFFFFF;}
	.st2{fill:#77D2F7;}
	.st3{fill-rule:evenodd;clip-rule:evenodd;fill:#FFFFFF;}
	.st4{fill-rule:evenodd;clip-rule:evenodd;fill:#003876;}
	.st5{fill-rule:evenodd;clip-rule:evenodd;fill:#D1A42C;}
	.st6{fill-rule:evenodd;clip-rule:evenodd;fill:#77D2F7;}
</style>
<g>
	<path class="st0" d="M990.82,488.89l54.74,0v119.45c0,0,2.15,81.72-90.52,108.69c0,0-83.68-16.81-93.06-107.13V489.48h42.62
		L990.82,488.89L990.82,488.89z"/>
	<path class="st1" d="M989.29,492.63h52.48v114.51c0,0,2.06,78.34-86.78,104.2c0,0-80.22-16.12-89.21-102.7V493.19h40.86
		L989.29,492.63L989.29,492.63z"/>
	<path class="st0" d="M983.33,549.93h43.67v56.34c0,0,1.72,65.18-72.21,86.7c0,0-66.75-13.41-74.23-85.45l0-57.51h34L983.33,549.93
		L983.33,549.93z"/>
	<path class="st2" d="M981.86,553.48h41.5v53.54c0,0,1.63,61.95-68.62,82.4c0,0-63.44-12.75-70.55-81.21l0-54.66h32.31
		L981.86,553.48L981.86,553.48z"/>
	<path class="st0" d="M927.7,538.66c0.82-0.1,1.43-0.31,1.82-0.62c0.39-0.31,0.72-0.95,0.98-1.91l4.23-15.79
		c0.12-0.45,0.21-0.82,0.27-1.12c0.07-0.31,0.1-0.58,0.1-0.81c0-0.6-0.16-0.97-0.49-1.12c-0.33-0.16-1-0.29-2.04-0.38v-0.91h10.95
		l0,0.91c-1.2,0.13-2.01,0.32-2.43,0.58c-0.42,0.25-0.76,0.9-1.04,1.94l-4.48,16.8c-0.05,0.18-0.08,0.36-0.12,0.52
		c-0.02,0.16-0.03,0.35-0.03,0.57c0,0.39,0.17,0.67,0.51,0.84c0.34,0.16,0.81,0.24,1.41,0.24c2.37,0,4.41-0.41,6.13-1.24
		c1.73-0.82,3.25-2.37,4.56-4.62l0.83,0.15l-2.02,6.84H927.7V538.66L927.7,538.66z"/>
	<path class="st0" d="M972.1,538.93l17.23-21.29h-2.73c-2.23,0.06-4.16,0.62-5.79,1.7c-1.06,0.7-2.25,1.86-3.56,3.47l-0.95-0.14
		l2.56-6.27h16.44l-0.09,1.03l-17.19,21.29h2.49c1.97,0,3.64-0.24,5-0.72c2.49-0.88,4.52-2.57,6.11-5.05l0.93,0.15l-2.69,6.84
		h-17.84L972.1,538.93L972.1,538.93z"/>
	<path class="st0" d="M993.22,538.66c0.84-0.1,1.45-0.31,1.86-0.62c0.4-0.31,0.73-0.95,1-1.91l4.31-15.79
		c0.13-0.45,0.22-0.82,0.27-1.12c0.07-0.31,0.1-0.58,0.1-0.81c0-0.6-0.17-0.97-0.5-1.12c-0.33-0.16-1.03-0.29-2.08-0.38v-0.91h10.46
		v0.91c-0.86,0.12-1.48,0.32-1.87,0.62c-0.38,0.3-0.7,0.93-0.96,1.91l-4.33,15.79l-0.28,1.22c-0.02,0.11-0.05,0.24-0.07,0.36
		c-0.01,0.12-0.02,0.22-0.02,0.33c0,0.6,0.16,0.97,0.48,1.13c0.32,0.16,1.01,0.29,2.08,0.38v0.89h-10.47V538.66L993.22,538.66z"/>
	<path class="st3" d="M930.46,553.43l49.12-0.01v125.66v-0.14c0,0-11.58,7.33-24.97,10.36c0,0-13.98-3.32-24.15-9.68L930.46,553.43
		L930.46,553.43z"/>
	<path class="st0" d="M879.27,540.96l1.82-7.86l1.01,0.07c-0.01,1.12,0.03,1.94,0.12,2.45c0.16,0.86,0.5,1.62,1.02,2.28
		c0.48,0.61,1.04,1.07,1.68,1.39c0.65,0.31,1.37,0.46,2.16,0.46c1.41,0,2.52-0.45,3.35-1.34c0.84-0.9,1.3-1.95,1.38-3.13
		c0.1-1.47-1.2-3.33-3.91-5.58c-2.7-2.35-3.98-4.53-3.84-6.53c0.13-1.88,0.87-3.49,2.22-4.81c1.36-1.32,3.17-1.99,5.43-1.99
		c0.63,0,1.27,0.06,1.92,0.19c0.43,0.08,0.8,0.18,1.13,0.29l0.87,0.29c0.19,0.06,0.39,0.11,0.59,0.15c0.2,0.03,0.38,0.05,0.54,0.05
		c0.41,0,0.73-0.09,0.96-0.26c0.23-0.17,0.43-0.38,0.61-0.63l1.05,0l-1.91,7.02l-0.92-0.12l-0.04-1.15
		c-0.07-1.08-0.34-2.02-0.82-2.79c-0.74-1.22-1.89-1.83-3.47-1.83c-1.35,0-2.36,0.49-3.05,1.47c-0.46,0.65-0.71,1.35-0.76,2.11
		c-0.06,0.8,0.11,1.51,0.49,2.12c0.22,0.34,0.55,0.71,1,1.11l2.86,2.48c1.01,0.88,1.86,1.88,2.53,3.02c0.68,1.12,0.96,2.4,0.86,3.84
		c-0.13,1.85-0.98,3.52-2.54,5.02c-1.55,1.48-3.61,2.23-6.15,2.23c-0.64,0-1.28-0.06-1.92-0.19c-0.63-0.11-1.25-0.29-1.87-0.51
		l-0.87-0.33c-0.29-0.11-0.49-0.18-0.6-0.21c-0.11-0.03-0.24-0.05-0.39-0.05c-0.39,0-0.67,0.1-0.86,0.29
		c-0.17,0.18-0.38,0.51-0.62,0.98L879.27,540.96L879.27,540.96z"/>
	<path class="st0" d="M896.27,536.37c0.55-0.5,1.18-0.75,1.89-0.75c0.72,0,1.31,0.26,1.78,0.77c0.48,0.5,0.69,1.11,0.64,1.82
		c-0.05,0.72-0.35,1.34-0.9,1.85c-0.54,0.5-1.17,0.75-1.89,0.75c-0.71,0-1.3-0.25-1.78-0.75c-0.47-0.51-0.67-1.13-0.62-1.85
		C895.44,537.49,895.73,536.87,896.27,536.37L896.27,536.37z"/>
	<path class="st0" d="M901.29,540.96l1.82-7.86l1.01,0.07c-0.01,1.12,0.03,1.94,0.12,2.45c0.16,0.86,0.5,1.62,1.02,2.28
		c0.48,0.61,1.04,1.07,1.69,1.39c0.65,0.31,1.37,0.46,2.16,0.46c1.41,0,2.52-0.45,3.35-1.34c0.84-0.9,1.3-1.95,1.38-3.13
		c0.1-1.47-1.2-3.33-3.91-5.58c-2.7-2.35-3.98-4.53-3.84-6.53c0.13-1.88,0.87-3.49,2.22-4.81c1.36-1.32,3.17-1.99,5.43-1.99
		c0.63,0,1.27,0.06,1.92,0.19c0.43,0.08,0.8,0.18,1.13,0.29l0.87,0.29c0.19,0.06,0.39,0.11,0.59,0.15c0.2,0.03,0.38,0.05,0.54,0.05
		c0.41,0,0.73-0.09,0.96-0.26c0.23-0.17,0.43-0.38,0.61-0.63l1.04,0l-1.91,7.02l-0.92-0.12l-0.04-1.15
		c-0.07-1.08-0.34-2.02-0.82-2.79c-0.74-1.22-1.89-1.83-3.47-1.83c-1.35,0-2.36,0.49-3.05,1.47c-0.46,0.65-0.71,1.35-0.76,2.11
		c-0.06,0.8,0.11,1.51,0.49,2.12c0.22,0.34,0.55,0.71,1,1.11l2.86,2.48c1.01,0.88,1.86,1.88,2.53,3.02c0.68,1.12,0.96,2.4,0.86,3.84
		c-0.13,1.85-0.98,3.52-2.54,5.02c-1.55,1.48-3.6,2.23-6.15,2.23c-0.64,0-1.28-0.06-1.92-0.19c-0.63-0.11-1.25-0.29-1.87-0.51
		l-0.87-0.33c-0.29-0.11-0.49-0.18-0.6-0.21c-0.11-0.03-0.24-0.05-0.39-0.05c-0.39,0-0.67,0.1-0.86,0.29
		c-0.17,0.18-0.38,0.51-0.62,0.98L901.29,540.96L901.29,540.96z"/>
	<path class="st0" d="M919.42,536.37c0.55-0.5,1.18-0.75,1.89-0.75c0.72,0,1.31,0.26,1.78,0.77c0.48,0.5,0.69,1.11,0.64,1.82
		c-0.05,0.72-0.35,1.34-0.9,1.85c-0.54,0.5-1.17,0.75-1.89,0.75c-0.71,0-1.3-0.25-1.78-0.75c-0.47-0.51-0.67-1.13-0.62-1.85
		C918.59,537.49,918.88,536.88,919.42,536.37L919.42,536.37z"/>
	<path class="st4" d="M1012.43,521.23c3.07-3.6,6.51-5.39,10.31-5.39c2.53,0,4.61,0.76,6.24,2.29c1.63,1.52,2.44,3.59,2.44,6.19
		c0,3.79-1.44,7.39-4.31,10.81c-3.07,3.65-6.6,5.48-10.59,5.48c-2.51,0-4.55-0.76-6.13-2.29c-1.57-1.53-2.35-3.58-2.35-6.13
		C1008.03,528.33,1009.5,524.68,1012.43,521.23L1012.43,521.23z M1013.51,537.26c0.56,1.41,1.58,2.11,3.06,2.11
		c1.39,0,2.65-0.51,3.78-1.53c1.13-1.03,2.31-2.99,3.52-5.88c0.77-1.82,1.37-3.74,1.8-5.76c0.43-2.02,0.65-3.65,0.65-4.9
		c0-1.18-0.29-2.19-0.88-3.02c-0.58-0.85-1.49-1.27-2.73-1.27c-2.92,0-5.38,2.59-7.37,7.78c-1.51,3.94-2.27,7.22-2.27,9.85
		C1013.08,535.67,1013.22,536.54,1013.51,537.26L1013.51,537.26z"/>
	<path class="st4" d="M963.36,531l-0.11-8.56l-6.4,8.56L963.36,531L963.36,531z M947.68,538.87c0.68-0.19,1.19-0.41,1.53-0.64
		c0.5-0.33,1.1-0.95,1.79-1.86l15.95-20.69h0.91l0.55,20.12c0.04,1.35,0.2,2.18,0.48,2.49c0.28,0.3,0.96,0.49,2.03,0.57l-0.12,0.84
		h-10.67l0.12-0.84c1.02-0.08,1.75-0.24,2.2-0.48c0.46-0.25,0.74-0.77,0.85-1.55c0.04-0.26,0.06-0.89,0.08-1.89
		c0.01-0.21,0.01-1.06,0.01-2.56h-7.58l-2.56,3.57c-0.17,0.24-0.33,0.5-0.49,0.79c-0.14,0.29-0.23,0.56-0.27,0.83
		c-0.07,0.48,0.03,0.79,0.3,0.93c0.28,0.14,0.87,0.26,1.79,0.36l-0.12,0.84h-6.91L947.68,538.87L947.68,538.87z"/>
	<path class="st5" d="M902.81,490.13l-1.86-1.06c0,0-3.77-0.27-8.15-4.65c0,0,10.83-3.53,13.74-7.28c0,0-3.33-1.04-3.96-2.71
		c0,0,10.41-3.12,11.45-5.2c0,0-21.88-4.39-25.63-12.52c0,0-11.87-0.22-16.05-7.72c-4.17-7.5-0.42-0.42-0.42-0.42
		s-7.71,1.87-12.3-6.05c0,0-8.33-0.01-12.5-6.26c0,0-13.75-1.89-18.34-7.93c0,0-16.67-2.51-24.38-10.65c-7.71-8.13,0-0.42,0-0.42
		s-10.21-0.01-17.5-7.93c0,0-15.42-0.85-23.76-11.48c0,0-19.79-2.73-28.55-14.4c0,0-18.75-2.31-30.01-11.28
		c-11.26-8.97-9.51-8.13-9.51-8.13l177.34,0.14c0,0,36.04-2.17,58.02,24.9c21.98,27.07,46,12.75,57.78,3.05
		c11.78-9.7,22.4-27.73,61.92-27.7c39.52,0.03,174.27,0.14,174.27,0.14s-12.24,13.4-41.13,19.85c0,0-11.09,12.01-29.34,14.54
		c0,0-5.77,8.32-26.34,12.46c0,0-5.31,7.39-18.48,9c0,0-5.08,8.09-18.95,8.31c-13.87,0.22-0.46,0.23-0.46,0.23
		s-6.46,10.4-21.72,11.54c-15.25,1.14-0.46,0-0.46,0s-3.23,4.16-13.86,6.23c-10.63,2.07-0.69,0-0.69,0s-1.84,5.78-13.86,6.93
		s-0.92,0.23-0.92,0.23s-1.38,3.47-8.09,4.39c-6.7,0.92,0,0,0,0s-11.09,11.55-28.65,13.62c0,0-0.99,5.11-10.92,12.27
		c0,0,2.62,3.81,2.83,7.77l0-0.15c0,0,0.9-3.32-0.3,1.99c-1.19,5.31-11.65,9.95-11.65,9.95c6.5-11.02-0.67-12.09-0.67-12.09
		c1.6,6.38-11.81,11.42-11.81,11.42c6.37-8.63-0.54-11.96-0.54-11.96c2,8.64-12.74,11.02-12.74,11.02
		c7.83-9.56-2.27-12.39-2.27-12.39l-9.43-0.01c0.81,11.82-13.8,14.77-13.8,14.77c7.69-10.89-0.14-12.36-0.14-12.36
		c1.73,7.97-10.62,12.08-10.62,12.08c6.1-11.82-2.27-13.15-2.27-13.15c3.46,9.3-15.93,15.13-13.14,13.41
		c2.79-1.72,4.91-9.3,4.91-9.3C911.04,492.39,902.81,490.13,902.81,490.13L902.81,490.13z"/>
	<path class="st1" d="M791.47,368.31c0,0,2.92,5.22,10.65,8.35h-61.61c0,0-26.94,0.42-34.25-8.35L791.47,368.31L791.47,368.31z"/>
	<path class="st1" d="M822.76,384.6c0,0,2.92,4.89,10.65,8.02l-55.93,0c0,0-26.94,0.75-34.25-8.02H822.76L822.76,384.6z"/>
	<path class="st1" d="M849.49,398.8c0,0,2.92,4.05,10.65,7.18h-55.93c0,0-26.32,0.75-34.25-7.18H849.49L849.49,398.8z"/>
	<path class="st1" d="M867.71,409.87c0,0,2.92,2.21,10.65,5.35h-49.08c0,0-26.53,0.71-34.25-5.35H867.71L867.71,409.87z"/>
	<path class="st1" d="M887.34,420.1c0,0,1.09,1.38,8.81,4.51h-47.25c0,0-26.53,1.54-34.25-4.51H887.34L887.34,420.1z"/>
	<path class="st1" d="M903.05,428.66c0,0,0.08,1.38,7.81,4.51h-42.73c0,0-26.53,1.55-34.25-4.51H903.05L903.05,428.66z"/>
	<path class="st1" d="M922.09,437.23c0,0-3.26,0.38,4.47,3.51H886.5c0,0-23.6,0.46-33.58-3.51H922.09L922.09,437.23z"/>
	<path class="st1" d="M925.94,444.16c0,0,3.17-1.29-2.38,3.51l-23.86,0c0,0-23.6,0.46-33.58-3.51H925.94L925.94,444.16z"/>
	<path class="st1" d="M921.18,451.47c0,0,3.17-1.96-2.38,2.84h-6.15c0,0-23.6,1.13-33.58-2.84H921.18L921.18,451.47z"/>
	<path class="st1" d="M915.5,457.07c0,0,3.17-1.96-2.38,2.84l-6.15,0c0,0-6.39,1.13-16.38-2.84H915.5L915.5,457.07z"/>
	<path class="st1" d="M1127.32,368.31c0,0-2.92,5.22-10.65,8.35h61.61c0,0,26.94,0.42,34.25-8.35L1127.32,368.31L1127.32,368.31z"/>
	<path class="st1" d="M1096.03,384.6c0,0-2.92,4.89-10.65,8.02l55.93,0c0,0,26.94,0.75,34.25-8.02H1096.03L1096.03,384.6z"/>
	<path class="st1" d="M1069.3,398.8c0,0-2.92,4.05-10.65,7.18h55.93c0,0,26.32,0.75,34.25-7.18H1069.3L1069.3,398.8z"/>
	<path class="st1" d="M1051.08,409.87c0,0,2.21,0.74,2.21,4.85l36.22,0c0,0,26.53,1.21,34.25-4.85H1051.08L1051.08,409.87z"/>
	<path class="st1" d="M1009.92,446.59c0,0,0.29-2.04-2.04,2.62l8.72,0.16c0,0,23.6,1.13,33.58-2.84L1009.92,446.59L1009.92,446.59z"
		/>
	<path class="st1" d="M1004.39,458.22c0,0-4.28-1.95,1.27,2.85h6.15c0,0,6.39,1.13,16.38-2.84L1004.39,458.22L1004.39,458.22z"/>
	<path class="st3" d="M962.52,407.33h74.45c0,0,10.76-0.87,11.92,8.14c0,0,0.87,2.04-2.04,2.33c-2.91,0.29-30.25,0-30.25,0
		l-2.62,3.2h20.36c0,0,3.49-0.29,3.2,3.2l12.8-5.53h12.8c0,0,14.83-1.16,13.09,15.41c0,0-2.04-7.27-12.8-7.27
		c-10.76,0-29.66,0-29.66,0l-2.62,3.2l33.44,0.29c0,0,7.27,0.58,9.02,5.82h-45.95c0,0-2.33-2.91-8.43-0.58c-6.11,2.33-0.58,0-0.58,0
		s-14.54,9.31-21.52,8.14c-6.98-1.16-8.73-4.94-4.94-8.72c0,0-16.58,1.74-4.07-6.98c0,0-9.02-3.2,6.69-10.76h-16
		c0,0-10.47-0.87-14.83-6.98C959.61,404.13,962.52,407.33,962.52,407.33L962.52,407.33z"/>
	<path class="st1" d="M1020.01,439.83c0,0-0.78-0.81-5.72,2.84h14.25c0,0,28.5,2.17,33.58-2.84H1020.01L1020.01,439.83z"/>
	<path class="st1" d="M1076.35,419.55c0,0-0.7-0.59,2.38,4.68h13.65c0,0,7.41-0.61,12.89-4.68H1076.35L1076.35,419.55z"/>
	<path class="st1" d="M1005.85,451.67c0,0,0.29-2.04-2.04,2.62l1.16,0.16c0,0,27.34,2.04,33.58-2.68L1005.85,451.67L1005.85,451.67z
		"/>
	<path class="st1" d="M1080.3,428.56l-0.29,3.49c0,0,6.4-1.74,5.53-3.49H1080.3L1080.3,428.56z"/>
	<path class="st1" d="M810.12,374.47c0,0-9.31-1.26-11.34-6.16h81.14c0,0,25.88,0.92,45.37,20.99
		c19.49,20.07,23.85,17.74,32.86,18.61l4.07,6.4c0,0-5.24,1.16-12.8-2.33h-64.27c0,0-8.43,0-10.47-3.2h67.76
		c0,0-5.82-2.33-9.02-5.53h-61.66c0,0-12.8,0.58-14.83-4.36h69.51c0,0-2.91-6.11-11.05-9.89h-76.49c0,0-7.27-0.29-9.6-4.65h81.43
		c0,0-9.31-7.85-19.49-9.89H810.12L810.12,374.47z"/>
	<path class="st1" d="M901.15,422.74c0,0-5.24-1.16-7.27-3.2h61.07c0,0,6.69-3.78,11.05-2.33c0,0,4.07,2.62,5.82,2.04
		c0,0-7.27,7.85-24.14,6.98c0,0,0.29-2.62,2.91-3.78L901.15,422.74L901.15,422.74z"/>
	<path class="st1" d="M975.31,419.83h9.6c0,0-0.29,5.53-13.96,4.94L975.31,419.83L975.31,419.83z"/>
	<path class="st1" d="M981.71,426.52c0,0-4.36,2.33-8.43,2.04c0,0-1.45,2.62-6.98,5.82c0,0,9.89,3.49,17.16-6.11L981.71,426.52
		L981.71,426.52z"/>
	<path class="st1" d="M967.17,425.65c0,0-6.69,3.2-11.63,2.62c0,0-2.33,4.36-5.82,6.69c0,0,11.63,3.2,20.36-7.27L967.17,425.65
		L967.17,425.65z"/>
	<path class="st1" d="M980.55,434.67c0,0-3.49,1.75-6.69,2.33c-3.2,0.58-0.58,0.29-0.58,0.29s-0.58,2.91-4.07,4.36
		c0,0,8.43,5.23,15.7-2.91c0,0-4.07-1.74-4.07-3.2C980.84,434.09,980.55,434.67,980.55,434.67L980.55,434.67z"/>
	<path class="st3" d="M963.68,436.41c0,0-6.4,2.04-8.43,1.74c0,0-0.58,2.91-4.36,4.07c-3.78,1.16-0.58,0-0.58,0
		s12.21,4.65,18.61-4.36L963.68,436.41L963.68,436.41z"/>
	<path class="st1" d="M967.17,443.39c0,0-2.91,2.33-11.05,4.65c0,0,6.11,8.72,22.1-1.45c0,0-8.14-0.29-9.6-2.04
		C967.17,442.81,967.17,443.39,967.17,443.39L967.17,443.39z"/>
	<path class="st1" d="M968.62,453.57c0,0-2.62,3.78-6.11,4.65c-3.49,0.87-0.87,0.29-0.87,0.29s10.09,2.75,16.58-6.98
		C981.71,446.3,974.15,453.28,968.62,453.57L968.62,453.57z"/>
	<path class="st1" d="M963.1,453.86c0,0-7.56,0.29-8.43-3.2c0,0-5.53,2.91-9.02,2.33c-3.49-0.58-0.58,0-0.58,0s-0.87,2.91-4.07,4.65
		c0,0,10.47,5.24,19.19-1.45C968.91,449.5,963.1,453.86,963.1,453.86L963.1,453.86z"/>
	<path class="st1" d="M946.81,443.68c0,0,2.62,1.74,7.56,2.04c0,0-4.36,6.69-16.87,3.78c-12.51-2.91-0.58-0.29-0.58-0.29
		s3.2-2.04,4.07-3.49c0,0,3.49-0.87,4.65-1.45C946.81,443.68,946.81,443.68,946.81,443.68L946.81,443.68z"/>
	<path class="st1" d="M946.81,436.12c0,0,0.87,2.04,4.36,1.45c0,0-5.24,6.98-18.32,5.24c-13.09-1.75-0.58-0.29-0.58-0.29
		s6.4-3.2,7.85-5.53L946.81,436.12L946.81,436.12z"/>
	<path class="st3" d="M929.65,444.85c0,0,5.53,2.04,6.4,1.45c0,0-2.62,2.62-9.31,3.49c-6.69,0.87-0.58,0-0.58,0L929.65,444.85
		L929.65,444.85z"/>
	<path class="st1" d="M933.72,450.95c0,0,4.65,2.91,6.98,2.33c0,0-0.58,7.27-20.65,4.36c-20.07-2.91-0.58-0.29-0.58-0.29
		s10.18-4.07,12.21-5.53C933.72,450.37,933.72,450.95,933.72,450.95L933.72,450.95z"/>
	<path class="st1" d="M949.43,428.56c0,0,0.87,5.53-11.92,6.69c-12.8,1.16-0.58,0-0.58,0l2.33-4.07l-25.59,0
		c0,0-4.94-1.16-5.82-2.62H949.43L949.43,428.56z"/>
	<path class="st1" d="M925.58,436.7h7.27c0,0,0.47,1.79-2.91,2.91L925.58,436.7L925.58,436.7z"/>
	<path class="st1" d="M909.29,475.67c0,0,10.18-4.36,19.78-11.34c0,0,13.96-9.31,18.61-1.45c4.65,7.85-21.81,13.96-21.81,13.96
		L909.29,475.67L909.29,475.67z"/>
	<path class="st3" d="M909.29,478.87c0,0,13.09,2.62,18.03,0.58c0,0-12.51,9.89-27.34,6.4c-14.83-3.49,0-0.58,0-0.58
		s4.36-2.04,7.56-4.65C910.75,478,909.29,478.87,909.29,478.87L909.29,478.87z"/>
	<path class="st3" d="M906.39,489.92c0,0,9.89-4.65,4.94,2.91L906.39,489.92L906.39,489.92z"/>
	<path class="st1" d="M917.73,490.8c0,0,11.05-7.56,6.69,2.04c0,0-2.62-2.91-4.36-1.74c-1.74,1.16-0.58,0-0.58,0L917.73,490.8
		L917.73,490.8z"/>
	<path class="st1" d="M929.94,491.09c0,0,9.6-4.94,6.98,2.33c0,0-1.45-2.33-4.65-1.75L929.94,491.09L929.94,491.09z"/>
	<path class="st1" d="M961.93,475.38c0,0,19.49-10.76,22.39-14.25c0,0,9.31-9.6,15.12-3.2c5.82,6.4-13.38,15.41-16.87,16.58
		C979.09,475.67,961.93,475.38,961.93,475.38L961.93,475.38z"/>
	<path class="st1" d="M960.77,477.71c0,0,12.51,2.91,21.23,0c0,0-9.02,12.21-32.86,7.27c0,0,6.98-2.91,9.6-5.53
		C961.35,476.84,960.77,477.71,960.77,477.71L960.77,477.71z"/>
	<path class="st3" d="M957.28,489.63c0,0,9.89-4.65,4.94,2.91L957.28,489.63L957.28,489.63z"/>
	<path class="st1" d="M969.49,490.51c0,0,11.05-7.56,6.69,2.04c0,0-2.62-2.91-4.36-1.74c-1.74,1.16-0.58,0-0.58,0L969.49,490.51
		L969.49,490.51z"/>
	<path class="st1" d="M980.84,490.8c0,0,11.92-6.11,6.98,2.33c0,0-1.45-2.33-4.65-1.75L980.84,490.8L980.84,490.8z"/>
	<path class="st1" d="M976.39,405.26c0,0,13.46-7.56,26.26-20.36c12.8-12.8,30.54-17.84,44.79-16.34h70.96c0,0,1.74,3.25-8.72,6.16
		l-75.33,0c0,0-4.94-2.62-21.23,8.72l76.78,0.29c0,0-3.2,5.27-14.83,5.85l-68.05-0.03l-12.51,9.02c0,0,58.75-0.3,70.06-0.01
		c-6.25,4.76-14.8,4.7-14.8,4.7l-60.49,0c0,0-5.35,2.7-8.34,2.7C977.42,405.96,976.39,405.26,976.39,405.26L976.39,405.26z"/>
	<path class="st6" d="M1066.64,514.29c7.18,0,12.99-5.84,12.99-13.06c0-7.15-5.81-12.99-12.99-12.99c-7.22,0-13.06,5.84-13.06,12.99
		C1053.58,508.45,1059.43,514.29,1066.64,514.29L1066.64,514.29z M1066.64,512.57c-6.36,0-11-4.95-11-11.34
		c0-6.32,4.64-11.27,11-11.27c6.32,0,10.93,4.95,10.93,11.27C1077.57,507.63,1072.97,512.57,1066.64,512.57L1066.64,512.57z
		 M1068.74,501.82c2.58-0.07,4.57-1.13,4.57-3.99c0-2.41-1.31-3.85-5.16-3.85h-6.36v14.54h1.79v-6.7h3.27l4.16,6.7h2.13
		L1068.74,501.82L1068.74,501.82z M1063.59,500.41v-5.16h4.16c1.79,0,3.64,0.27,3.64,2.54c0,2.96-3.02,2.61-5.09,2.61
		L1063.59,500.41L1063.59,500.41z"/>
</g>
</svg>
