<svg width="96" height="96" viewBox="0 0 96 96" fill="none" xmlns="http://www.w3.org/2000/svg">
<path d="M48.0036 95.5418C74.2581 95.5418 95.5416 74.2583 95.5416 48.0038C95.5416 21.7493 74.2581 0.46582 48.0036 0.46582C21.7491 0.46582 0.465576 21.7493 0.465576 48.0038C0.465576 74.2583 21.7491 95.5418 48.0036 95.5418Z" fill="url(#paint0_linear_1749_1185)"/>
<path fill-rule="evenodd" clip-rule="evenodd" d="M74.108 30.8946C69.694 41.1138 62.4736 49.849 53.2977 56.0708C44.1219 62.2927 33.3728 65.7425 22.3164 66.0136C20.0282 62.5865 18.4322 58.739 17.6196 54.6902C16.8069 50.6416 16.7936 46.4713 17.5802 42.4175C18.3668 38.3637 19.9381 34.5057 22.2043 31.0639C24.4704 27.622 27.3871 24.6636 30.7878 22.3576C34.1885 20.0517 38.0066 18.4433 42.0241 17.6244C46.0415 16.8055 50.1797 16.792 54.2024 17.5847C58.2251 18.3774 62.0534 19.9609 65.4686 22.2446C68.8842 24.5283 71.8199 27.4676 74.108 30.8946ZM79.2867 48.2116C79.2864 54.779 77.2477 61.1818 73.4563 66.5236C69.6649 71.8653 64.3107 75.8779 58.1432 78C60.1049 62.0674 66.2848 46.9608 76.0348 34.2639C78.175 38.5969 79.2881 43.3715 79.2867 48.2116ZM76.1962 26.8182V30.6496C76.1959 30.6889 76.2061 30.7275 76.2251 30.7615C76.244 30.7955 76.2715 30.8238 76.3048 30.8434C76.3378 30.8631 76.3755 30.8735 76.414 30.8735C76.4522 30.8736 76.4899 30.8632 76.5231 30.8436L79.8911 28.9037C79.9238 28.8836 79.9513 28.8553 79.9703 28.8213C79.9893 28.7873 79.9997 28.7489 80 28.7097V24.8782C80 24.839 79.9901 24.8004 79.9711 24.7664C79.9519 24.7324 79.9244 24.7041 79.8914 24.6844C79.8581 24.6647 79.8204 24.6544 79.7822 24.6543C79.744 24.6543 79.7063 24.6646 79.673 24.6842L76.3098 26.6242C76.2757 26.6432 76.2471 26.6712 76.2273 26.7054C76.2072 26.7394 76.1965 26.7784 76.1962 26.8182Z" fill="white"/>
<defs>
<linearGradient id="paint0_linear_1749_1185" x1="-37.4983" y1="29.2384" x2="97.2528" y2="91.4617" gradientUnits="userSpaceOnUse">
<stop stop-color="#C040FC"/>
<stop offset="1" stop-color="#4B3CFF"/>
</linearGradient>
</defs>
</svg>
