<svg xmlns="http://www.w3.org/2000/svg" width="96" height="96" fill="none" viewBox="0 0 96 96"><path fill="#621BCE" d="M75.1603 87.5605V86.609C75.1603 75.8008 75.1603 64.9939 75.1603 54.1877C75.1603 51.9957 75.2306 49.7999 75.1155 47.6148C74.8178 42.019 73.3253 36.7986 69.8738 32.2766C66.314 27.6135 61.5043 24.8776 55.9098 23.4151C53.2589 22.7268 50.5615 22.3052 47.8088 22.3448C41.629 22.4326 36.088 24.3855 31.2475 28.1951C26.0368 32.2904 22.52 37.5626 21.3391 44.1131C19.6986 53.2192 21.9055 61.3478 28.4485 68.0309C31.9446 71.6082 36.3342 73.6783 41.2556 74.5851C45.8087 75.4247 50.3154 75.2544 54.7306 73.8125C57.3437 72.9606 59.6058 71.4859 61.7333 69.5296V70.2729C61.7333 77.9421 61.7247 85.6128 61.7487 93.282C61.7487 93.8756 61.5628 94.094 61.0157 94.2387C57.8258 95.0926 54.5626 95.6428 51.2689 95.8819C44.9142 96.3295 38.5335 95.5021 32.503 93.4491C26.4723 91.3961 20.9133 88.1582 16.1526 83.9266C8.91124 77.4867 4.04429 69.5829 1.55171 60.2154C0.70069 56.973 0.199771 53.6485 0.0575411 50.2993C-0.410677 40.2692 1.97518 30.974 7.33904 22.5065C14.0267 11.9484 23.4737 5.02259 35.52 1.66553C40.2215 0.353164 45.1045 -0.189566 49.9798 0.0584066C62.8731 0.705385 73.8777 5.65064 82.8134 14.9699C89.2104 21.641 93.2933 29.5751 95.0941 38.6655C96.05 43.5271 96.2502 48.5065 95.688 53.429C94.5759 63.4711 90.5858 72.2381 83.965 79.8279C81.5451 82.5783 78.8119 85.0362 75.8213 87.1527C75.6663 87.2682 75.4889 87.3592 75.1603 87.5605Z"/><path fill="#621BCE" d="M61.7884 48.7751C61.7884 55.2691 57.4952 60.751 51.4391 62.2962C44.0373 64.189 36.2497 59.543 34.635 52.0755C33.5316 46.9664 34.6178 42.3912 38.355 38.6213C40.703 36.2536 43.6123 35.0474 46.9515 34.8099C50.4392 34.5622 53.6219 35.3674 56.4193 37.477C59.4714 39.7862 61.1237 42.9247 61.5972 46.7001C61.6765 47.3897 61.7229 48.0834 61.7884 48.7751Z"/></svg>