<svg width="96" height="96" viewBox="0 0 96 96" fill="none" xmlns="http://www.w3.org/2000/svg">
<circle cx="48" cy="48" r="48" fill="#2B2B32"/>
<g clip-path="url(#clip0)">
<path d="M78.014 47.4031H81.1315C81.2642 47.4031 81.3305 47.2704 81.3305 47.1378C80.0039 42.2293 76.621 38.7801 75.6261 37.9178C75.4934 37.7851 75.5597 37.6525 75.6924 37.5861C76.0904 37.4535 77.019 37.1881 78.5446 36.6575C78.6773 36.5912 78.7436 36.4585 78.6773 36.3258C75.0291 31.0194 70.9829 28.8968 69.7889 28.4325C69.6563 28.3661 69.6563 28.1671 69.7889 28.1008L72.3758 26.5089C72.5085 26.4425 72.5085 26.3099 72.3758 26.1772C67.4674 21.7994 63.0895 21.0034 61.7629 20.8707C61.6302 20.8707 61.5639 20.6717 61.6302 20.5391C61.8956 20.2738 62.3599 19.7431 63.0895 18.8808C63.1558 18.7481 63.1558 18.6155 63.0232 18.5492C58.579 17.4215 52.2112 17.6869 51.0173 17.7532C50.8846 17.7532 50.8183 17.6869 50.8183 17.5542V14.304C50.8183 14.1713 50.6856 14.105 50.6193 14.105C43.6546 14.9673 39.4757 17.6869 38.3481 18.4828C38.2154 18.5492 38.0164 18.4828 38.0164 18.3502L37.8174 14.5693C37.8174 14.4366 37.6184 14.304 37.4858 14.4366C32.5773 17.3552 30.1894 20.3401 29.6587 21.0034C29.5924 21.0697 29.4597 21.1361 29.3934 21.0697L25.9442 18.5492C25.8115 18.4828 25.6125 18.5492 25.6125 18.6818L25.8115 32.4786C25.8115 32.4786 22.694 32.0807 21.898 32.346L15.0659 28.3661L22.3623 36.5912C22.296 36.7238 22.296 36.7902 22.2297 36.8565C22.2297 36.8565 22.2297 36.8565 22.2297 36.9228L18.3161 57.4191C18.3161 57.4854 18.3161 57.4854 18.3161 57.5517L21.898 65.2461C21.898 65.3125 21.9643 65.3788 22.0307 65.3788L39.4757 67.833C39.542 67.833 39.542 67.833 39.6084 67.833L59.176 56.0261H59.2423C60.171 55.9598 70.1206 54.2352 77.1517 54.6995C77.2843 54.6995 78.0803 54.7658 80.3356 54.7658C80.4682 54.7658 80.5346 54.5005 80.5346 54.3679C79.6059 50.8523 78.5446 48.6634 77.815 47.8674C77.7486 47.6021 77.8813 47.4031 78.014 47.4031Z" fill="#8A71EA"/>
<path d="M21.8977 36.0605C21.8977 36.0605 22.4284 36.5911 22.163 36.9891C21.8977 37.3871 23.4896 36.9891 23.4896 36.9891L23.158 35.7952" fill="#8A71EA"/>
<path d="M34.6334 45.3469C35.8937 44.2856 37.2203 44.0866 37.8173 44.0202C38.0163 44.0202 38.1489 43.8213 38.0163 43.6223C37.4193 42.4946 36.2916 42.561 35.6283 42.76C34.965 42.959 34.0364 43.5559 34.2354 45.1479C34.2354 45.4132 34.5007 45.4795 34.6334 45.3469Z" fill="white"/>
<path d="M80.5344 54.6995C80.7334 54.6995 80.9324 54.5668 80.9324 54.3015C80.9324 53.9698 80.6671 53.9698 80.5344 53.9698C75.8249 53.1075 68.2632 53.3065 63.4874 54.2351C58.5789 55.2301 53.8694 57.021 49.5579 59.6079C48.4966 60.2713 47.4353 60.9346 46.374 61.6642C45.3791 62.3938 44.3841 63.1898 43.3891 63.9195L40.6032 66.44C39.7409 67.3023 38.8786 68.231 38.0163 69.1596C34.8324 72.8078 32.1792 77.053 30.4546 81.4972C30.4546 81.6298 30.4546 81.7625 30.5873 81.8951C30.8526 82.0278 31.0516 81.7625 31.0516 81.7625C35.5621 73.4048 42.4605 66.3737 50.6192 61.5979C54.798 59.21 59.2422 57.3527 63.8854 56.2251C68.5949 55.0974 75.8913 54.5668 80.5344 54.6995Z" fill="white"/>
<path d="M42.6596 59.9396C42.6596 59.9396 41.7973 64.9144 38.6797 69.0932C35.5622 73.2721 32.2456 78.5122 32.2456 78.5122C32.2456 78.5122 28.0668 75.9917 27.5361 75.5273C27.0055 75.063 27.5361 69.9555 27.5361 69.9555" fill="white"/>
<path d="M72.0443 41.964C71.9779 41.8313 71.8453 41.765 71.7126 41.765C66.9368 42.163 59.8394 42.362 54.9309 36.4585C54.6656 36.1269 54.7982 35.5962 55.2625 35.4636C56.8545 34.9992 60.4364 34.3359 63.8856 36.7238C65.9418 38.1831 67.6664 39.1118 69.2584 39.7751C69.3247 39.7751 69.4574 39.8414 69.2584 39.6424C67.9318 38.8464 66.7378 37.9841 65.6765 37.1882C63.0233 35.0656 60.967 33.8716 57.2525 34.1369C53.8033 34.4023 46.6395 35.0656 42.0627 30.8204C41.731 30.5551 41.8637 30.0244 42.1953 29.8254C44.9149 28.6315 54.5329 25.5139 64.2836 33.2083C66.8041 35.3309 68.5287 37.0555 69.988 38.3821C69.988 38.3821 70.1207 38.5148 70.1207 38.3158C66.1408 31.8817 59.7067 27.0395 51.747 25.3149C49.6244 24.8506 47.4355 24.6516 45.3129 24.6516C45.1802 24.6516 45.0476 24.7179 44.9812 24.8506C42.1954 28.6978 37.4195 30.0244 35.0316 30.1571C34.5673 30.1571 34.302 29.6928 34.501 29.2948C34.7663 28.7641 35.0979 28.1008 35.5623 27.3048C35.7612 26.9732 35.4296 26.5752 35.0316 26.7079C32.5774 27.7028 30.2558 29.0295 28.1995 30.6214C28.0005 30.8204 28.0669 31.152 28.3322 31.2184C29.1282 31.4837 30.0568 31.749 31.1181 31.8817C36.6236 32.545 44.2516 30.8204 47.6345 36.8565C47.7671 37.1218 47.5018 37.4535 47.1702 37.3208C43.4556 35.4636 38.5471 35.4636 36.4909 35.9942C34.2356 36.5248 30.9854 36.3922 28.3322 32.8103C28.1332 32.4123 27.8015 32.0143 27.5362 31.6164C27.4036 31.4837 27.2046 31.4174 27.0056 31.55C26.6739 31.8154 26.4086 32.0807 26.0769 32.346C25.9443 32.4123 25.8116 32.4787 25.6789 32.4123L15.3977 27.7692C14.9997 27.6365 14.7343 28.1672 15.066 28.3661L28.7302 37.1218L28.7965 37.1882C29.1282 37.3872 30.4548 38.0505 33.108 38.3158C33.108 38.3158 33.108 38.3158 33.1743 38.3158H33.2407C36.5572 38.7801 41.532 37.1882 44.8486 38.0505C48.0988 38.9791 49.5581 42.0303 48.6958 46.0102C48.3641 47.6684 47.0375 48.9951 45.4456 50.0564L30.1894 60.006C28.3985 61.2 25.2146 62.7256 23.1584 63.3889C22.4951 63.5879 21.8318 63.2562 21.6328 62.5929L21.1684 61.001C21.0358 60.6693 20.9031 60.2713 20.8368 59.9397C20.8368 59.8733 20.8368 59.807 20.8368 59.7407V59.5417C20.8368 59.4753 20.8368 59.409 20.8368 59.409L20.6378 56.8884C20.6378 56.6231 20.7041 56.4241 20.8368 56.2251L22.5614 53.6382C23.092 52.7759 23.6227 51.98 24.1533 51.2503C25.1483 49.791 26.0106 48.5307 26.2759 47.2705C26.6076 45.8112 26.3423 44.4846 26.4086 43.2906L28.0669 44.0202C28.4648 44.1529 28.7965 43.6886 28.4648 43.4233L26.7402 41.6323L22.6277 37.0555C22.4951 36.8565 22.2297 36.9228 22.0971 37.0555C20.0408 40.0404 18.4489 43.5559 17.6529 47.4031C15.265 58.4804 19.7092 69.4913 28.1332 76.0581C28.3985 76.2571 28.8628 76.1907 29.0618 75.9254C31.3171 72.8079 33.4397 70.3536 35.1643 68.5627C36.2919 67.2361 37.4195 66.2411 38.4145 65.3788C38.8125 65.0471 39.2105 64.7155 39.5421 64.4502C42.527 61.9959 43.6546 59.4754 42.328 54.5005C42.2617 54.3015 42.3943 54.1025 42.527 53.9699C52.145 48.7297 51.4817 43.8876 49.8897 36.9228C49.8234 36.5912 50.0887 36.3259 50.4204 36.4585C53.7369 37.6525 60.171 42.8926 57.5841 54.5005C57.3851 55.4955 57.0535 56.4241 56.7218 57.2864C57.8494 56.9548 59.0434 56.6231 60.171 56.3578C60.171 55.0975 60.0384 54.0362 59.7067 52.9749C59.5741 52.4443 60.0384 51.98 60.5027 52.1126C61.8956 52.5106 64.2172 53.4392 65.8755 55.3628C67.5338 55.1638 68.5951 54.3679 70.3197 54.3015C65.8092 52.7096 60.768 50.0564 58.7781 43.2243C58.6454 42.8263 58.9771 42.362 59.4414 42.4283C61.962 42.561 69.1257 43.2906 71.1156 46.6735C72.1769 48.5307 73.1719 52.1126 74.1005 53.8372C74.1669 53.9699 74.8965 53.8372 74.8965 53.6382C74.6975 50.1227 73.4372 45.1479 72.0443 41.964Z" fill="white"/>
</g>
<defs>
<clipPath id="clip0">
<rect width="66.3973" height="67.7902" fill="white" transform="translate(15 14.1049)"/>
</clipPath>
</defs>
</svg>
