<svg width="96" height="96" viewBox="0 0 96 96" fill="none" xmlns="http://www.w3.org/2000/svg">
<path d="M47.9957 95.9914C74.503 95.9914 95.9914 74.503 95.9914 47.9957C95.9914 21.4884 74.503 0 47.9957 0C21.4884 0 0 21.4884 0 47.9957C0 74.503 21.4884 95.9914 47.9957 95.9914Z" fill="#020916"/>
<path d="M58.8685 52.8365L56.5127 49.4711L61.1293 43.5169L48.3236 24.1616L35.3798 43.7672L39.9187 49.73L37.3904 53.0867L19.7695 30.6508L26.9749 71.7L29.0718 69.0076C31.3154 66.1169 34.3529 62.1043 37.4335 58.0658L48.0647 71.6223L58.7391 57.9191C61.8715 62.3718 64.7795 66.5483 66.5053 68.9386L68.5677 71.8035L76.1787 30.6422L58.8685 52.8365ZM28.7871 64.4255L24.8435 41.9896L35.5178 55.5806C33.1621 58.6785 30.8063 61.8022 28.7871 64.4255ZM39.1421 43.6378L48.3236 29.6671L57.4102 43.3789L54.7006 46.8823L54.0361 45.9245C52.224 43.3357 50.6966 41.1439 49.7215 39.815L48.5048 38.0892L47.2622 39.815C46.2353 41.2561 44.2247 43.9657 41.7826 47.2275L39.1421 43.6378ZM52.8108 49.3762L48.1165 55.4166L43.7587 49.6955C45.6572 47.1671 47.3312 44.9062 48.548 43.2581L51.6027 47.6331L52.8108 49.3762ZM48.1079 66.6346L39.332 55.5461C40.1949 54.4243 41.0578 53.3111 41.8344 52.2238L48.0561 60.4043L54.5798 51.9908L56.9528 55.3303L48.1079 66.6346ZM66.9196 64.2875C65.1937 61.8195 62.9674 58.6785 60.6893 55.4253L71.0443 42.2226L66.9196 64.2875Z" fill="#C8A35F"/>
</svg>
