<svg width="97" height="96" viewBox="0 0 97 96" fill="none" xmlns="http://www.w3.org/2000/svg">
<path d="M48.3498 94.0799C73.799 94.0799 94.4298 73.4492 94.4298 47.9999C94.4298 22.5506 73.799 1.91992 48.3498 1.91992C22.9005 1.91992 2.26978 22.5506 2.26978 47.9999C2.26978 73.4492 22.9005 94.0799 48.3498 94.0799Z" fill="white"/>
<path fill-rule="evenodd" clip-rule="evenodd" d="M48.3499 3.84C23.961 3.84 4.18985 23.6111 4.18985 48C4.18985 72.3889 23.961 92.16 48.3499 92.16C72.7387 92.16 92.5098 72.3889 92.5098 48C92.5098 23.6111 72.7387 3.84 48.3499 3.84ZM0.349854 48C0.349854 21.4903 21.8402 0 48.3499 0C74.8595 0 96.3499 21.4903 96.3499 48C96.3499 74.5097 74.8595 96 48.3499 96C21.8402 96 0.349854 74.5097 0.349854 48Z" fill="#DC472A"/>
<path fill-rule="evenodd" clip-rule="evenodd" d="M66.83 27.5036L68.3623 28.131C69.0771 28.4247 69.5442 29.1161 69.5442 29.8827V59.1006L64.981 54.6074V34.0704L51.3744 47.5426L73.7898 69.7379C72.7966 70.8818 71.7271 71.9584 70.5892 72.9597L48.1469 50.7371L31.5486 67.1713C31.0004 67.7129 30.1785 67.8742 29.4624 67.5805L27.9315 66.9531C27.2167 66.6605 26.7498 65.968 26.7498 65.2027V29.8827C26.7498 29.1161 27.2167 28.4247 27.9315 28.131L29.4624 27.5036C30.1785 27.211 31.0004 27.3714 31.5486 27.914L48.1469 44.347L64.7453 27.914C65.2921 27.3714 66.1152 27.211 66.83 27.5036ZM31.3583 34.1897V61.0539L44.8598 47.6217L31.3583 34.1897Z" fill="#DC472A"/>
<path fill-rule="evenodd" clip-rule="evenodd" d="M42.0302 15.4874C37.6185 16.345 33.5871 18.0395 30.0651 20.3726C29.1811 20.9582 27.9898 20.7164 27.4041 19.8324C26.8185 18.9483 27.0604 17.757 27.9444 17.1714C31.8798 14.5643 36.3816 12.6735 41.2975 11.718C46.2135 10.7624 51.0958 10.8291 55.7212 11.7721C56.7602 11.9839 57.4308 12.9979 57.219 14.0369C57.0072 15.0759 55.9932 15.7465 54.9541 15.5347C50.8146 14.6908 46.442 14.6299 42.0302 15.4874ZM76.5164 27.0532C77.4004 26.4676 78.5918 26.7095 79.1774 27.5935C81.7844 31.5289 83.6752 36.0307 84.6308 40.9466C85.5863 45.8625 85.5196 50.7448 84.5767 55.3703C84.3648 56.4093 83.3508 57.0799 82.3118 56.8681C81.2728 56.6562 80.6022 55.6422 80.8141 54.6032C81.658 50.4637 81.7189 46.0911 80.8613 41.6793C80.0038 37.2676 78.3093 33.2362 75.9761 29.7142C75.3905 28.8302 75.6324 27.6388 76.5164 27.0532ZM14.3879 39.1298C15.4269 39.3416 16.0975 40.3556 15.8856 41.3946C15.0417 45.5341 14.9808 49.9067 15.8384 54.3185C16.6959 58.7303 18.3904 62.7617 20.7236 66.2836C21.3092 67.1676 21.0673 68.359 20.1833 68.9446C19.2993 69.5302 18.1079 69.2883 17.5223 68.4043C14.9152 64.4689 13.0245 59.9671 12.0689 55.0512C11.1133 50.1353 11.18 45.253 12.123 40.6275C12.3349 39.5885 13.3489 38.9179 14.3879 39.1298ZM39.4807 81.9609C39.6925 80.9219 40.7065 80.2513 41.7455 80.4631C45.8851 81.307 50.2577 81.368 54.6694 80.5104C59.0812 79.6528 63.1126 77.9583 66.6346 75.6252C67.5186 75.0396 68.7099 75.2815 69.2956 76.1655C69.8812 77.0495 69.6393 78.2408 68.7553 78.8265C64.8199 81.4335 60.3181 83.3243 55.4021 84.2798C50.4862 85.2354 45.6039 85.1687 40.9785 84.2257C39.9394 84.0139 39.2689 82.9999 39.4807 81.9609Z" fill="#DC472A"/>
</svg>
