<svg width="96" height="96" viewBox="0 0 96 96" fill="none" xmlns="http://www.w3.org/2000/svg">
<circle cx="48" cy="48" r="48" fill="white"/>
<path fill-rule="evenodd" clip-rule="evenodd" d="M46.8001 58.6C57.0006 58.6 65.486 51.2575 67.2591 41.5693L67.5257 41.7045C74.2221 45.1604 78.8001 52.1456 78.8001 60.2C78.8001 71.6876 69.4877 81 58.0001 81H40.649C36.0933 81 32.4001 77.3069 32.4001 72.7511V58.5991L46.8001 58.6Z" fill="#00B2F9"/>
<path fill-rule="evenodd" clip-rule="evenodd" d="M46.8 17C58.2875 17 67.5999 26.3125 67.5999 37.8C67.5999 39.2589 67.4498 40.6826 67.164 42.0567C67.1973 41.8949 67.229 41.7324 67.2589 41.5693C64.6033 40.247 61.625 39.4757 58.4739 39.4053L58 39.4H40.6488C36.173 39.4 32.5298 42.9647 32.4033 47.4099L32.4 47.6489V58.5991L29.4488 58.6C24.8931 58.6 21.2 54.9068 21.2 50.3511V25.2489C21.2 20.6932 24.8931 17 29.4488 17H46.8Z" fill="#00CDAA"/>
</svg>
