<svg width="96" height="96" viewBox="0 0 96 96" fill="none" xmlns="http://www.w3.org/2000/svg">
<circle cx="48" cy="48" r="48" fill="white"/>
<path d="M66.8506 69.323L58.735 55.2677H22.9656C21.0787 55.2528 19.247 54.6296 17.7425 53.4907C16.238 52.3518 15.1412 50.7579 14.6148 48.9458C14.5654 51.1612 15.1245 53.3478 16.2312 55.2677L18.532 59.2526L27.282 74.4068C28.255 76.0922 29.6545 77.4917 31.3399 78.4648C33.0252 79.4378 34.937 79.9501 36.8831 79.9501H58.9826C61.4134 79.9494 63.7877 79.2177 65.7973 77.8501C65.8382 77.7792 68.7668 72.6423 66.8506 69.323Z" fill="url(#paint0_linear)"/>
<path d="M80.2346 43.141L69.485 24.5223C68.5175 22.8488 67.1635 21.4311 65.5361 20.3879C65.2955 20.317 58.9625 18.4933 56.7424 22.3365L48.2317 37.0774L58.7343 55.2687L66.8499 69.324C68.7662 72.6433 65.8376 77.7802 65.7967 77.8518C67.3094 76.8256 68.5704 75.4705 69.485 73.8878L71.095 71.0992L80.2346 55.2691C81.2991 53.4254 81.8595 51.334 81.8595 49.205C81.8595 47.0761 81.2991 44.9847 80.2346 43.141Z" fill="url(#paint1_linear)"/>
<path d="M58.9827 18.4585H37.4836C35.3547 18.4585 33.2635 19.0189 31.4199 20.0833C29.5763 21.1477 28.0453 22.6786 26.9809 24.5222L16.2313 43.1409C15.2123 44.9089 14.6563 46.9057 14.615 48.9459C15.1546 53.4012 21.4181 55.2678 21.4181 55.2678H37.7307L48.2334 37.0765L56.7441 22.3356C58.9631 18.4924 65.2972 20.3161 65.5378 20.387C63.583 19.1286 61.3075 18.4592 58.9827 18.4585Z" fill="url(#paint2_linear)"/>
<defs>
<linearGradient id="paint0_linear" x1="66.3319" y1="64.4477" x2="24.5616" y2="64.4477" gradientUnits="userSpaceOnUse">
<stop stop-color="#A0D8F1"/>
<stop offset="1" stop-color="#D2F4FF"/>
</linearGradient>
<linearGradient id="paint1_linear" x1="73.4013" y1="60.5876" x2="54.4573" y2="29.6585" gradientUnits="userSpaceOnUse">
<stop offset="0.0013" stop-color="#808285"/>
<stop offset="1" stop-color="#414042"/>
</linearGradient>
<linearGradient id="paint2_linear" x1="21.762" y1="52.5107" x2="50.5189" y2="17.8959" gradientUnits="userSpaceOnUse">
<stop offset="0.0013" stop-color="#3AB2E6"/>
<stop offset="1" stop-color="#A4E9FF"/>
</linearGradient>
</defs>
</svg>
