<svg xmlns="http://www.w3.org/2000/svg" width="96" height="96" fill="none" viewBox="0 0 96 96"><path fill="#fff" d="M1.91992 48.023C1.91992 22.5484 22.5484 1.91992 48.023 1.91992C60.2398 1.91642 71.9581 6.7645 80.6015 15.3983C89.2359 24.0429 94.084 35.7626 94.0799 47.9807C94.0799 73.413 73.4591 94.0799 47.9807 94.0799C22.5446 94.0799 1.91992 73.4591 1.91992 48.023Z"/><path fill="#00B5D1" fill-rule="evenodd" d="M79.2432 16.7552C70.96 8.48213 59.7307 3.83665 48.0236 3.84H48.023C23.6089 3.84 3.84 23.6089 3.84 48.023C3.84 72.3986 23.6048 92.16 47.9808 92.16C72.3976 92.16 92.16 72.354 92.16 47.9808V47.9802C92.1639 36.2718 87.5184 25.0411 79.2447 16.7568C79.2442 16.7563 79.2437 16.7558 79.2432 16.7552ZM48.023 1.81992e-06C60.7488 -0.00349996 72.955 5.04656 81.9585 14.04L81.96 14.0416C90.954 23.0462 96.0041 35.2539 96 47.9808M48.0225 1.81992e-06C21.4878 0.000295018 0 21.4883 0 48.023C0 74.5198 21.4845 96 47.9808 96C74.5206 96 95.9996 74.4726 96 47.9814" clip-rule="evenodd"/><path fill="#C0BFBF" fill-rule="evenodd" d="M24.6564 10.4061C24.9983 9.80798 25.6344 9.43884 26.3234 9.43884H69.5887C70.2776 9.43884 70.9138 9.80798 71.2556 10.4061L92.1068 46.89C92.4442 47.4803 92.4442 48.205 92.1069 48.7953L71.2557 85.283C70.9138 85.8812 70.2776 86.2504 69.5887 86.2504H26.3195C25.6305 86.2504 24.9944 85.8812 24.6525 85.283L3.80133 48.7953C3.46175 48.2011 3.46417 47.471 3.8077 46.879C3.8246 46.8499 3.84219 46.8213 3.86046 46.7933L24.6564 10.4061ZM7.68168 47.8461L27.4337 82.4103H68.4745L88.2284 47.8427L68.4745 13.2788H27.4375L7.68168 47.8461Z" clip-rule="evenodd"/><path fill="#00B5D1" d="M45.101 40.6543C46.4949 38.1813 47.9772 36.3381 49.5516 35.1247C51.126 33.9151 52.7849 33.2815 54.4937 33.2815C55.7071 33.2815 56.7401 33.7346 57.6386 34.5871C58.5372 35.4396 58.9442 36.4303 58.9442 37.5516C58.9442 39.6213 58.0418 40.7004 56.2908 40.7004C55.4345 40.7004 54.7625 40.1129 54.1788 38.9455C53.4607 37.4633 52.5621 36.7452 51.3909 36.7452C50.3157 36.7452 49.1445 37.3749 47.9772 38.5884C46.867 39.7151 46.0633 41.1071 45.6425 42.6319C45.2354 44.1141 45.0549 47.1669 45.0549 51.798C45.0549 56.0642 45.2354 58.4911 45.5925 59.1209C45.9573 59.7506 46.8559 60.1577 48.2921 60.3343C48.6953 60.3804 48.8757 60.5148 48.8757 60.7836C48.8757 61.2329 48.3381 61.4594 47.3013 61.4594H36.8335C36.0693 61.4594 35.7122 61.2789 35.7122 60.8719C35.7122 60.5148 36.2037 60.3343 37.1945 60.2882C38.5845 60.1999 39.4409 59.7506 39.7557 58.9865C40.0706 58.2223 40.2473 55.3922 40.2473 50.4924C40.2473 43.3039 40.1129 38.9916 39.798 37.5516C39.4831 36.1154 38.4079 35.3513 36.4725 35.2629C35.6661 35.2169 35.3052 34.9941 35.3052 34.6332C35.3052 34.4527 35.3973 34.2722 35.5317 34.1839C35.7084 34.0917 36.6991 33.9573 38.5423 33.869L44.6095 33.5541C44.7861 34.7215 44.9666 37.0601 45.101 40.6543ZM55.3461 55.3961C56.2447 55.3961 57.0089 55.7109 57.6386 56.3369C57.95 56.6321 58.198 56.9876 58.3676 57.3817C58.5373 57.7758 58.625 58.2003 58.6255 58.6293C58.6335 59.0554 58.5541 59.4787 58.3923 59.8729C58.2305 60.2672 57.9897 60.6241 57.6847 60.9218C57.0729 61.5227 56.2497 61.8593 55.3922 61.8593C54.5347 61.8593 53.7115 61.5227 53.0997 60.9218C52.7941 60.6245 52.5525 60.2677 52.3901 59.8734C52.2276 59.4791 52.1476 59.0557 52.1551 58.6293C52.1551 57.7308 52.47 56.9666 53.0997 56.3369C53.3857 56.0293 53.7341 55.7863 54.1214 55.6241C54.5088 55.4619 54.9263 55.3841 55.3461 55.3961Z"/></svg>