<svg xmlns="http://www.w3.org/2000/svg" width="96" height="96" fill="none" viewBox="0 0 96 96"><circle cx="48" cy="48" r="48" fill="#020916"/><path fill="#fff" d="M71.8751 45.624H62.3711V69.417H71.8751V45.624Z"/><path fill="#00B3ED" d="M62.3711 42.687L70.8521 38.991C71.4791 38.727 71.8751 38.1 71.8751 37.407V33.249H71.8421L63.8231 36.747C62.9321 37.143 62.3711 38.001 62.3711 38.958V42.687Z"/><path fill="#fff" d="M22.837 45.4588C24.388 38.3308 31.417 33.8428 38.545 35.3938C44.617 36.7138 48.907 42.0928 48.907 48.2968C48.907 49.1218 48.808 49.9138 48.643 50.7058L53.032 60.3088C59.83 50.6398 57.52 37.2748 47.851 30.4768C38.182 23.6788 24.85 25.9888 18.019 35.6578C11.188 45.3268 13.531 58.6918 23.2 65.4898C27.82 68.7568 33.529 70.0438 39.106 69.0868L35.674 61.4638C28.381 61.4308 22.507 55.5238 22.507 48.2308C22.54 47.3068 22.639 46.3828 22.837 45.4588Z"/><path fill="#00B3ED" d="M53.1643 69.4171H43.2643L37.0273 55.5571H46.8943L53.1643 69.4171Z"/></svg>