<svg xmlns="http://www.w3.org/2000/svg" width="96" height="96" fill="none" viewBox="0 0 96 96"><path fill="url(#paint0_linear)" d="M47.9995 95.999C74.5089 95.999 95.999 74.5089 95.999 47.9995C95.999 21.4901 74.5089 0 47.9995 0C21.4901 0 0 21.4901 0 47.9995C0 74.5089 21.4901 95.999 47.9995 95.999Z"/><path fill="#fff" d="M62.8498 34.0013C63.2498 28.0513 60.2498 22.6513 54.9498 19.7513C52.7998 18.6013 51.5498 18.3013 48.4998 18.1513C46.1498 18.0513 44.0998 18.2513 42.9498 18.7013C36.1498 21.3013 31.9498 27.9013 32.6498 34.7013C33.1498 39.7013 35.7498 43.3013 42.1998 47.9013L44.1513 49.3013C44.1199 47.4766 44.1013 45.6532 44.1013 43.8281C44.1013 43.8281 43.3281 42.9252 41.9998 41.9013C38.1998 39.0013 36.6498 35.1513 37.5498 31.0013C39.3998 22.7513 49.2998 19.8013 55.2498 25.7013C57.9998 28.5013 59.2498 33.1513 58.0498 36.2013C57.6498 37.3013 57.2998 36.9513 56.7998 34.9013C56.6498 34.1513 56.2998 33.0013 55.9998 32.3013C55.5498 31.1513 55.3998 31.1013 53.8998 31.6013C52.9998 31.9013 52.0498 32.3013 51.8498 32.5013C51.5498 32.8013 54.6998 45.3013 55.2498 45.9013C55.3498 46.0013 58.2998 45.0513 61.8498 43.8513L68.2498 41.6013L68.1498 40.0513C68.0498 37.3013 67.2998 36.9013 64.3998 38.0513C62.0498 38.9513 61.8998 38.9513 62.2498 38.1513C62.4998 37.6513 62.7498 35.8013 62.8498 34.0013Z"/><path fill="#fff" d="M50.5 69.0513V49.3013V29.5013H48.25H46L46.1 49.1013L46.25 68.7513L48.4 68.9013L50.5 69.0513Z"/><path fill="#fff" d="M61.1999 58.0013C60.2499 56.3013 58.4499 54.2513 56.4499 52.6513C54.6999 51.2013 52.6499 50.0013 52.6499 50.0013L52.5 55.0781C52.5 55.0781 52.5267 55.0781 54.6499 57.2013C59.2999 61.7013 59.7499 67.4013 55.8499 71.8513C51.9999 76.2513 44.7499 76.7513 40.5999 72.8513C37.5999 70.1013 36.4499 64.9013 38.0999 61.8013L38.8499 60.3513L39.1499 63.5013C39.3499 65.2513 39.5999 66.7513 39.6999 66.9013C39.8499 67.0013 40.8499 66.9513 41.9499 66.7513C43.6499 66.4513 43.9999 66.2013 43.9999 65.3013C43.9999 63.9513 42.5499 53.5013 42.2999 52.7013C42.1499 52.3013 39.9999 52.5513 35.1499 53.5513C31.3499 54.3513 28.1999 55.0013 28.0999 55.0013C27.9999 55.0013 28.0499 55.4013 28.1499 55.8513C28.2999 56.3513 28.5499 57.4013 28.6999 58.1513C29.0499 59.6513 28.9999 59.6513 33.3499 58.6513L34.4499 58.4013L33.3999 61.1013C30.9499 67.6013 34.7499 75.9013 41.6499 79.0513C44.2999 80.2013 49.8999 80.3013 53.1499 79.2013C56.1499 78.2013 59.3999 75.2513 61.2499 71.9513C62.5999 69.5513 62.7499 68.8013 62.7499 65.0013C62.7499 61.1513 62.5999 60.5013 61.1999 58.0013Z"/><defs><linearGradient id="paint0_linear" x1="0" x2="96" y1="-.422" y2="95.578" gradientUnits="userSpaceOnUse"><stop stop-color="#0075FC"/><stop offset="1" stop-color="#085FB7"/></linearGradient></defs></svg>