<svg width="96" height="96" viewBox="0 0 96 96" fill="none" xmlns="http://www.w3.org/2000/svg">
<ellipse cx="48" cy="47.9804" rx="48" ry="47.9804" fill="white"/>
<path d="M80.9901 42.33C79.5401 33.47 71.1501 27.43 62.2901 28.88C62.1601 28.9 62.0301 28.92 61.9001 28.95C56.3501 29.94 51.0901 34.22 46.6701 41.34C38.1301 34.85 31.9201 34.24 28.1801 34.9C19.3401 36.46 13.4101 44.93 14.9701 53.77C16.3601 61.66 23.2501 67.23 31.0001 67.23C31.9401 67.23 32.8901 67.15 33.8401 66.98C39.4101 66 44.6701 61.72 49.1001 54.59C57.6301 61.07 63.8401 61.68 67.5601 61.03L67.7501 61C76.4801 59.45 82.4201 51.08 80.9901 42.33ZM71.1001 49.43C69.9101 51.13 68.1401 52.26 66.1001 52.62C63.0701 53.16 58.2801 51.05 53.2401 46.98C57.3901 39.79 61.0401 37.77 63.4001 37.35C65.4301 36.99 67.4901 37.45 69.1901 38.64C70.8901 39.83 72.0201 41.6 72.3801 43.64C72.7401 45.67 72.2901 47.73 71.1001 49.43ZM23.2501 52.42C22.8601 50.39 23.2901 48.32 24.4501 46.61C25.6101 44.9 27.3701 43.74 29.4101 43.35L29.9001 43.27C30.1401 43.24 30.3901 43.22 30.6601 43.22C33.6901 43.22 38.0301 45.3 42.5301 48.94C38.3901 56.13 34.7301 58.15 32.3701 58.57L32.3301 58.58C28.1201 59.38 24.0501 56.61 23.2501 52.42Z" fill="#218CFF"/>
</svg>
