<svg xmlns="http://www.w3.org/2000/svg" width="96" height="96" fill="none" viewBox="0 0 96 96"><path fill="#fff" d="M48 96C74.5097 96 96 74.5097 96 48C96 21.4903 74.5097 0 48 0C21.4903 0 0 21.4903 0 48C0 74.5097 21.4903 96 48 96Z"/><path fill="#7EB53E" d="M53.6 44.8L48 37.6V16L53.6 18.4V44.8Z"/><path fill="#7EB53E" d="M62.4 65.6001L62 23.6001H67.2V60.8001C67.2 63.2001 65.2 65.6001 62.4 65.6001Z"/><path fill="#7EB53E" d="M67.2 29.2002L48 20.8002V15.2002L67.2 23.6002V29.2002Z"/><path fill="#7EB53E" d="M34.0005 72.4004H28.8005V33.2004C28.8005 30.4004 31.2005 28.4004 33.6005 28.4004H34.0005V72.4004Z"/><path fill="#7EB53E" d="M48.0005 80.8003L28.8005 72.4003V66.8003L48.0005 75.2003V80.8003Z"/><path fill="#7EB53E" d="M48.0005 80.8003L42.8005 78.4003V58.8003L48.0005 66.4003V80.8003Z"/><path fill="#7EB53E" d="M33.2009 36.4004L34.0009 28.4004L52.4009 53.6004L62.4009 59.6004V65.6489L48.4009 57.2004L33.2009 36.4004Z"/></svg>