<svg xmlns="http://www.w3.org/2000/svg" width="96" height="96" fill="none" viewBox="0 0 96 96"><circle cx="48" cy="48" r="48" fill="#FFFDFA"/><path fill="#51BA1F" d="M53.7199 40.6342C54.5716 39.4731 54.9587 38.0024 54.5716 36.5317C54.0296 34.674 52.4036 33.5129 50.5454 33.1259C47.5257 32.4292 43.9641 33.8999 41.0219 34.5966C41.7961 37.6154 42.5704 40.6342 43.3447 43.7304C43.4221 43.8852 43.4995 44.8915 43.6544 44.9689C43.9641 45.2011 45.8223 44.4271 46.2095 44.3496C48.9968 43.653 51.939 43.1112 53.7199 40.6342Z"/><path fill="#51BA1F" d="M61.1617 51.5291C60.852 49.981 59.6906 48.8199 58.2969 48.1233C56.1289 47.117 53.6513 47.1944 51.3284 47.8136C50.0896 48.1233 48.8508 48.4329 47.6894 48.7425C47.3023 48.8199 45.2892 49.0521 45.1343 49.4392C45.0569 49.594 45.444 50.5228 45.444 50.6776C45.6763 51.5291 45.9086 52.3806 46.1409 53.3094C46.6828 55.2446 47.1474 57.2571 47.6894 59.1922C47.7668 59.4244 47.8442 60.4307 48.0765 60.6629C48.3088 60.8952 49.9348 60.2759 50.2445 60.1985C52.877 59.5019 55.8966 59.0374 58.2194 57.4893C60.0003 56.096 61.6262 53.9287 61.1617 51.5291Z"/><path fill="#51BA1F" d="M96 48.0527C96 38.1448 92.9029 28.3917 87.1733 20.2642C81.5986 12.3688 73.6236 6.25379 64.5647 2.92535C55.1187 -0.55789 44.5886 -0.944917 34.9103 1.84168C25.619 4.47346 17.1795 9.96925 10.9854 17.4776C4.71381 25.0633 0.9199 34.5068 0.145632 44.2599C-0.628636 54.2452 1.69417 64.3079 6.88176 72.8225C11.8371 81.1048 19.3475 87.7617 28.0967 91.7094C37.2331 95.8893 47.6857 97.0504 57.5189 95.0378C67.0424 93.1027 75.869 88.2261 82.6052 81.1823C89.3413 74.1384 93.9095 65.0819 95.3806 55.4062C95.8451 53.0067 96 50.5297 96 48.0527ZM70.2169 56.4899C69.0555 59.3539 66.7327 61.6761 64.1002 63.1468C63.2485 63.6112 62.2419 64.0756 61.3128 64.3853C60.9257 64.5401 60.4611 64.6175 60.074 64.7723C59.6868 64.8497 58.6803 64.9271 58.3706 65.2367C58.0609 65.5464 58.5254 66.63 58.6803 67.0945C58.99 68.3329 59.2997 69.5714 59.6094 70.8099C59.7643 71.3518 59.9191 71.971 60.074 72.5128C60.1514 72.7451 60.3837 73.3643 60.3837 73.5965C60.3062 73.9835 60.5385 73.6739 60.1514 73.9061C59.7643 74.1384 58.99 74.2158 58.6029 74.2932C57.5189 74.6028 56.4349 74.835 55.3509 75.1446C54.7315 72.7451 54.1121 70.4229 53.4927 68.0233C53.4153 67.7137 53.3378 66.9397 53.183 66.7848C53.0281 66.5526 52.9507 66.7074 52.5636 66.7848C51.4022 67.0945 50.2408 67.4041 49.0019 67.7137C49.6214 70.1133 50.2408 72.5128 50.8602 74.9124C50.9376 75.1446 51.2473 75.9187 51.1699 76.1509C51.0925 76.3057 50.8602 76.3057 50.5505 76.3831C49.2342 76.6927 47.7631 77.3894 46.4468 77.4668C46.0597 77.4668 46.2146 77.6216 46.0597 77.3894C45.8274 77.1572 45.75 76.3057 45.6726 75.9961C45.2854 74.5254 44.8983 72.9773 44.5112 71.5066C44.4338 71.1195 44.2015 69.2618 43.8918 69.0296C43.5821 68.8748 41.7238 69.5714 41.4141 69.6488C38.7042 70.3455 36.0717 71.0421 33.3617 71.7388C33.2843 69.9585 33.2069 68.2555 33.2069 66.4752C33.2069 66.0108 33.052 65.4689 33.3617 65.2367C33.594 65.0819 34.2134 65.0045 34.5231 64.9271C35.0651 64.7723 35.6071 64.6175 36.2265 64.4627C37.3105 64.2305 38.317 63.766 38.2396 62.4501C38.2396 62.1405 38.0848 61.9083 38.0848 61.5987C37.7751 60.2828 37.3879 58.8895 37.0782 57.5736C35.9942 53.2389 34.8328 48.9816 33.7489 44.6469C33.3617 43.1762 32.9746 41.6281 32.5875 40.1574C32.2003 38.7641 31.7358 37.3708 30.0324 37.216C29.1033 37.1386 28.0193 37.603 27.0902 37.8352C26.703 37.9126 25.1545 38.5319 24.8448 38.377C24.6899 38.2222 24.6125 37.5256 24.5351 37.2934C24.3802 36.6741 24.2254 36.1323 24.0705 35.513C23.8382 34.6616 23.606 33.8101 23.4511 33.0361C26.2385 32.3394 29.0258 31.5654 31.8906 30.8687C32.3552 30.7139 33.9037 30.5591 33.9811 30.1721C34.0586 29.8624 33.6714 28.8562 33.594 28.5466C33.3617 27.6951 33.1294 26.7662 32.8972 25.9148C32.51 24.5215 32.2003 23.1282 31.8132 21.7349C32.51 21.5801 33.2069 21.3478 33.8263 21.193C34.6006 20.9608 35.8394 20.419 36.6137 20.4964C37.0008 20.4964 36.9234 20.6512 37.0782 21.193C37.3105 22.1219 37.5428 23.0508 37.7751 23.9796C38.0848 25.0633 38.317 26.147 38.6267 27.1533C38.7042 27.4629 38.859 28.7788 39.0913 28.9336C39.3236 29.0884 40.6398 28.5466 40.9496 28.4691C41.7238 28.3143 42.4207 28.0821 43.1949 27.9273C42.4981 25.0633 41.7238 22.1993 41.027 19.4127C42.4981 19.0257 44.0466 18.6387 45.5177 18.2516C45.9823 18.0968 45.9823 18.0194 46.2146 18.329C46.5243 18.7161 46.6017 19.7997 46.7566 20.2642C47.2211 22.1219 47.6857 23.9022 48.1502 25.76C48.2277 26.0696 48.2277 26.534 48.4599 26.6114C48.6922 26.6888 49.6214 26.3018 49.7762 26.3018C50.7053 26.0696 51.7119 25.9922 52.641 25.9922C58.2932 25.9922 64.0227 29.785 63.713 35.9775C63.6356 38.377 62.3968 40.6218 60.7708 42.3247C65.4164 42.944 69.5975 45.8854 70.6814 50.6071C71.0686 52.5422 70.9911 54.5548 70.2169 56.4899Z"/></svg>