<svg width="96" height="96" viewBox="0 0 96 96" fill="none" xmlns="http://www.w3.org/2000/svg">
<path d="M96 48C96 74.555 74.49 96 48.0419 96C21.5937 96 0 74.555 0 48C0 21.445 21.51 0 47.9582 0C74.49 0 96 21.5288 96 48Z" fill="#0271E8"/>
<path d="M48.1256 40.8797C52.5616 40.8797 56.1605 44.4818 56.1605 48.9216C56.1605 53.3614 52.5616 56.9635 48.1256 56.9635C43.7734 56.9635 40.1745 53.4452 40.0908 49.0892V40.8797H48.1256ZM32.2233 2.68079V49.3405C32.2233 58.1363 39.3375 65.2567 48.1256 65.2567C56.9138 65.2567 64.028 58.1363 64.028 49.3405C64.028 40.6284 57.0812 33.5918 48.3767 33.4242H40.0908V27.8954H48.1256C60.0105 27.8954 69.552 37.529 69.552 49.4242C69.552 61.3195 59.9269 70.8693 48.0419 70.8693C36.3244 70.8693 26.783 61.4871 26.6156 49.7593V5.02634C28.4569 4.10487 30.2983 3.35094 32.2233 2.68079ZM18.3296 10.3038V49.3405C18.3296 65.7593 31.7211 79.0787 48.1256 79.0787C64.5302 79.0787 77.8379 65.6755 77.8379 49.2567C77.8379 33.0054 64.7813 19.7698 48.5441 19.5185H40.0908V13.9897H48.1256C67.6269 13.9897 83.4456 29.8221 83.4456 49.3405C83.4456 68.8588 67.6269 84.6913 48.1256 84.6913C28.8754 84.6913 13.1405 69.1939 12.8057 49.9269V15.4138C14.4796 13.5708 16.3209 11.8954 18.3296 10.3038Z" fill="white"/>
</svg>
