<svg width="96" height="96" viewBox="0 0 96 96" fill="none" xmlns="http://www.w3.org/2000/svg">
<circle cx="48" cy="48" r="48" fill="white"/>
<path fill-rule="evenodd" clip-rule="evenodd" d="M83.8027 47.9965C83.8027 36.4625 74.4192 27.0772 62.8835 27.0772C51.3478 27.0772 43.5927 36.2461 41.9642 48.0105C41.4197 51.9325 38.002 56.8529 33.1148 56.8529C31.7638 56.8526 30.432 56.5429 29.2189 55.9478C28.0058 55.3527 26.9463 54.4879 26.119 53.4196C25.2916 52.3512 24.7209 51.108 24.4486 49.7847C24.1763 48.4615 24.2112 47.0938 24.5498 45.7861C24.8884 44.4782 25.522 43.2655 26.4018 42.2403C27.2815 41.2152 28.3846 40.4052 29.6256 39.8721C30.8666 39.3391 32.2141 39.0973 33.5616 39.1652C34.9108 39.2333 36.2269 39.6091 37.4086 40.2641C38.5728 36.362 40.6272 32.7831 43.4094 29.8089C40.2746 28.0182 36.7261 27.0767 33.1148 27.0772C21.5791 27.0772 12.1955 36.4625 12.1955 47.9965C12.1955 59.5322 21.5791 68.9245 33.1148 68.9245C38.9638 68.9245 44.2595 66.5786 48.0593 62.7281C49.9985 64.689 52.306 66.2454 54.8509 67.3077C57.3958 68.3698 60.1257 68.9163 62.8835 68.9158C74.4192 68.9158 83.8027 59.5322 83.8027 47.9965ZM96 48.0017C96 74.51 74.5082 96 48 96C21.4918 96 0 74.51 0 48C0 21.49 21.4918 0 48 0C74.5082 0 96 21.49 96 48V48.0017ZM71.7347 47.9965C71.7347 50.3438 70.8026 52.5949 69.1427 54.2547C67.4828 55.9144 65.2311 56.8468 62.8835 56.8468C60.5376 56.8468 58.286 55.9144 56.626 54.2547C54.9661 52.5949 54.034 50.3438 54.034 47.9965C54.034 45.6492 54.9661 43.3981 56.626 41.7384C58.286 40.0786 60.5376 39.1462 62.8835 39.1462C65.2311 39.1462 67.4828 40.0786 69.1427 41.7384C70.8026 43.3981 71.7347 45.6492 71.7347 47.9965Z" fill="black"/>
</svg>
