<svg width="96" height="96" viewBox="0 0 96 96" fill="none" xmlns="http://www.w3.org/2000/svg">
<circle cx="48" cy="48" r="48" fill="white"/>
<path fill-rule="evenodd" clip-rule="evenodd" d="M84.0896 58.7362L69.7319 78.7497C67.4737 81.928 63.0923 83.4582 57.3964 82.9897C50.049 82.383 40.3084 78.5002 30.9724 71.8032C21.6365 65.1029 14.8285 57.1219 11.8626 50.3643C9.60443 45.1267 9.63787 40.5026 11.9297 37.321L26.2539 17.3075C28.5457 14.1292 32.9271 12.5991 38.5894 13.0676C45.9368 13.6742 55.7109 17.5603 65.0469 24.2573C74.3829 30.9542 81.1909 38.9353 84.1232 45.693C86.415 50.9305 86.3478 55.558 84.0896 58.7362ZM30.0963 20.0578C31.5792 18.0019 34.545 17.4694 38.2188 17.7728C44.9258 18.3255 53.7564 21.9789 62.2835 28.0927C70.8105 34.2032 77.1132 41.4059 79.8095 47.5737C81.2587 50.9542 81.7302 53.9335 80.2472 55.9894L82.1687 57.3613L80.2472 55.9894L65.8895 76.0027C64.4402 78.0553 61.4743 78.5912 57.8006 78.2845C51.0935 77.7351 42.2294 74.0783 33.7023 67.9678C25.1752 61.8539 18.8725 54.6515 16.2099 48.487C14.7269 45.1032 14.2891 42.1237 15.7721 40.0711L30.0963 20.0578Z" fill="white"/>
<path fill-rule="evenodd" clip-rule="evenodd" d="M28.2019 19.1283C32.8868 12.5897 48.761 15.9467 63.6582 26.6173C78.5553 37.2913 86.8465 51.2682 82.1617 57.8067L67.8376 77.8202C63.1527 84.3587 47.2442 81.0018 32.3471 70.3278C17.45 59.6538 9.15938 45.6801 13.8442 39.1416L28.2019 19.1283Z" fill="white"/>
<path fill-rule="evenodd" clip-rule="evenodd" d="M27.1753 17.9314C29.2594 15.0137 33.2884 13.7287 38.4986 14.1455C45.6886 14.736 55.2058 18.5914 64.3757 25.1215C73.5109 31.6863 80.2149 39.5016 83.0631 46.1012C85.1472 50.8945 85.2164 55.1319 83.1323 58.0496L68.822 78.0568C66.7379 80.9745 62.6741 82.2595 57.4987 81.8427C50.3087 81.2175 40.7567 77.3969 31.6216 70.8321C22.4517 64.3021 15.7825 56.4866 12.8996 49.887C10.8155 45.0937 10.7463 40.8563 12.8304 37.9386L27.1753 17.9314ZM81.1527 56.6256V56.591C82.82 54.2986 82.4725 50.8945 80.84 47.0737C78.0959 40.7868 71.6702 33.3882 62.9171 27.136C54.1988 20.8838 45.133 17.1673 38.2903 16.6115C34.1222 16.2642 30.8228 17.0285 29.1556 19.3557L29.0857 19.4944C27.5226 21.8216 27.8704 25.1214 29.5029 28.8727C32.2469 35.1944 38.6728 42.5928 47.3911 48.845C56.1095 55.0972 65.1746 58.814 72.0173 59.3698C76.116 59.6824 79.3463 58.953 81.0482 56.7647L81.1527 56.591V56.6256ZM58.8535 32.798C63.23 35.9241 66.4599 39.6406 67.8146 42.8014C68.6135 44.5729 68.8217 46.136 68.0228 47.2128C67.2587 48.2895 65.6959 48.6021 63.7855 48.4285C60.3468 48.1506 55.8313 46.2749 51.4548 43.1488C47.0783 40.0227 43.8477 36.3408 42.493 33.1799C41.7289 31.4085 41.5206 29.8454 42.2848 28.7686C43.0489 27.6918 44.6123 27.3793 46.5574 27.5183C49.9613 27.8309 54.5117 29.6719 58.8535 32.798Z" fill="#0E0F23"/>
<mask id="mask0" mask-type="alpha" maskUnits="userSpaceOnUse" x="11" y="14" width="74" height="68">
<path fill-rule="evenodd" clip-rule="evenodd" d="M27.1753 17.9314C29.2594 15.0137 33.2884 13.7287 38.4986 14.1455C45.6886 14.736 55.2058 18.5914 64.3757 25.1215C73.5109 31.6863 80.2149 39.5016 83.0631 46.1012C85.1472 50.8945 85.2164 55.1319 83.1323 58.0496L68.822 78.0568C66.7379 80.9745 62.6741 82.2595 57.4987 81.8427C50.3087 81.2175 40.7567 77.3969 31.6216 70.8321C22.4517 64.3021 15.7825 56.4866 12.8996 49.887C10.8155 45.0937 10.7463 40.8563 12.8304 37.9386L27.1753 17.9314ZM81.1527 56.6256V56.591C82.82 54.2986 82.4725 50.8945 80.84 47.0737C78.0959 40.7868 71.6702 33.3882 62.9171 27.136C54.1988 20.8838 45.133 17.1673 38.2903 16.6115C34.1222 16.2642 30.8228 17.0285 29.1556 19.3557L29.0857 19.4944C27.5226 21.8216 27.8704 25.1214 29.5029 28.8727C32.2469 35.1944 38.6728 42.5928 47.3911 48.845C56.1095 55.0972 65.1746 58.814 72.0173 59.3698C76.116 59.6824 79.3463 58.953 81.0482 56.7647L81.1527 56.591V56.6256ZM58.8535 32.798C63.23 35.9241 66.4599 39.6406 67.8146 42.8014C68.6135 44.5729 68.8217 46.136 68.0228 47.2128C67.2587 48.2895 65.6959 48.6021 63.7855 48.4285C60.3468 48.1506 55.8313 46.2749 51.4548 43.1488C47.0783 40.0227 43.8477 36.3408 42.493 33.1799C41.7289 31.4085 41.5206 29.8454 42.2848 28.7686C43.0489 27.6918 44.6123 27.3793 46.5574 27.5183C49.9613 27.8309 54.5117 29.6719 58.8535 32.798Z" fill="#0E0F23"/>
</mask>
<g mask="url(#mask0)">
<path fill-rule="evenodd" clip-rule="evenodd" d="M8.25439 57.2325C8.63647 57.2325 9.26183 58.1383 9.60917 58.3854C10.8249 59.2917 12.0404 60.1984 13.2909 60.9399C16.938 63.1643 20.7238 64.3995 24.4751 63.5756C30.3799 62.2575 35.729 51.9596 41.6686 53.3602C45.0031 54.1017 47.3653 58.7977 50.283 62.0108C53.0618 65.2239 56.1181 66.6243 59.2095 65.9652C68.4141 64.1527 71.8877 46.0276 81.2313 47.0163C88.977 47.8401 85.9551 57.1496 93.3883 60.4451C93.4578 60.5275 111.346 44.7918 111.485 42.0731C112.006 31.61 102.072 -91.6401 102.524 -91.6401L13.9164 -59.0974L8.25439 57.2325Z" fill="url(#paint0_linear)"/>
</g>
<path fill-rule="evenodd" clip-rule="evenodd" d="M25.6994 24.5058C25.9869 24.4937 26.2298 24.7171 26.2418 25.0046C26.2491 25.1803 26.2598 25.356 26.2737 25.5316C26.2964 25.8185 26.0823 26.0694 25.7954 26.0921C25.5086 26.1148 25.2576 25.9007 25.2349 25.6139C25.22 25.4255 25.2086 25.2369 25.2007 25.0481C25.1886 24.7606 25.4119 24.5178 25.6994 24.5058ZM25.9727 26.881C26.2572 26.838 26.5228 27.0337 26.5658 27.3182C27.1874 31.4241 29.3321 34.7178 32.3359 38.4358C32.5167 38.6597 32.4819 38.9877 32.258 39.1685C32.0342 39.3494 31.7062 39.3145 31.5253 39.0907C28.4705 35.3095 26.1971 31.8437 25.5355 27.4742C25.4925 27.1897 25.6882 26.9241 25.9727 26.881ZM41.2029 48.0897C41.3906 47.8716 41.7196 47.8469 41.9377 48.0346C42.0758 48.1535 42.2131 48.2712 42.3497 48.3879C42.5202 48.5332 42.6927 48.6778 42.867 48.8219C43.0888 49.0052 43.12 49.3336 42.9367 49.5554C42.7534 49.7772 42.4249 49.8084 42.2031 49.6251C42.0249 49.4778 41.8485 49.3298 41.6739 49.1811C41.5363 49.0635 41.3972 48.9443 41.258 48.8245C41.0399 48.6368 41.0152 48.3078 41.2029 48.0897ZM43.1933 49.7611C43.3702 49.5342 43.6976 49.4937 43.9246 49.6706C48.2183 53.0181 53.4464 55.9529 58.6401 58.0526C58.9069 58.1605 59.0357 58.4641 58.9279 58.7309C58.82 58.9977 58.5163 59.1265 58.2496 59.0187C52.9756 56.8865 47.6615 53.9053 43.2839 50.4924C43.0569 50.3155 43.0164 49.9881 43.1933 49.7611ZM76.2885 61.658C76.3341 61.9421 76.1408 62.2094 75.8567 62.2551C75.627 62.292 75.3932 62.3237 75.1555 62.3503C74.8696 62.3824 74.6118 62.1765 74.5797 61.8906C74.5477 61.6046 74.7535 61.3468 75.0395 61.3148C75.2614 61.2899 75.4788 61.2604 75.6914 61.2262C75.9755 61.1806 76.2428 61.3739 76.2885 61.658Z" fill="white"/>
<defs>
<linearGradient id="paint0_linear" x1="39.9321" y1="13.9793" x2="49.6258" y2="62.7807" gradientUnits="userSpaceOnUse">
<stop stop-color="#27B0E6"/>
<stop offset="0.52" stop-color="#C26BB3"/>
<stop offset="1" stop-color="#FA52A0"/>
</linearGradient>
</defs>
</svg>
