<svg width="96" height="96" viewBox="0 0 96 96" fill="none" xmlns="http://www.w3.org/2000/svg">
<mask id="mask0" mask-type="alpha" maskUnits="userSpaceOnUse" x="0" y="0" width="96" height="96">
<circle cx="48" cy="48" r="48" fill="#C4C4C4"/>
</mask>
<g mask="url(#mask0)">
<circle cx="48" cy="48" r="48" fill="white"/>
<circle cx="25" cy="48" r="6" transform="rotate(-90 25 48)" fill="url(#paint0_linear)"/>
<path d="M50 15C64.8 15 73.1667 23.3333 75.5 27.5C62 35.5 64 26.5 50 26C38.8 25.6 32 34.5 30 39H17.5C21.5 26.5 31.5 15 50 15Z" fill="url(#paint1_linear)"/>
<path d="M50 81C64.8 81 73.1667 72.6667 75.5 68.5C62 60.5 64 69.5 50 70C38.8 70.4 32 61.5 30 57L17.5 57C21.5 69.5 31.5 81 50 81Z" fill="url(#paint2_linear)"/>
<path d="M30 39H17.5C22.7 25.4 41.3333 24.6667 50 26C38.8 25.6 32 34.5 30 39Z" fill="url(#paint3_linear)"/>
<path d="M30 57L17.5 57C22.7 70.6 41.3333 71.3333 50 70C38.8 70.4 32 61.5 30 57Z" fill="url(#paint4_linear)"/>
<circle cx="22" cy="48" r="6" fill="url(#paint5_linear)"/>
</g>
<defs>
<linearGradient id="paint0_linear" x1="20.5" y1="48.5" x2="31.5" y2="48.5" gradientUnits="userSpaceOnUse">
<stop stop-color="#FD7C40"/>
<stop offset="1" stop-color="#F9C826"/>
</linearGradient>
<linearGradient id="paint1_linear" x1="47.5" y1="15" x2="49" y2="30.5" gradientUnits="userSpaceOnUse">
<stop stop-color="#13BEFD"/>
<stop offset="1" stop-color="#2B8FFE"/>
</linearGradient>
<linearGradient id="paint2_linear" x1="47.5" y1="81" x2="49" y2="65.5" gradientUnits="userSpaceOnUse">
<stop stop-color="#13BEFD"/>
<stop offset="1" stop-color="#2B8FFE"/>
</linearGradient>
<linearGradient id="paint3_linear" x1="41.5" y1="26" x2="21.5" y2="48" gradientUnits="userSpaceOnUse">
<stop stop-color="#6615CC"/>
<stop offset="1" stop-color="#2B8FFE"/>
</linearGradient>
<linearGradient id="paint4_linear" x1="41.5" y1="70" x2="21.5" y2="48" gradientUnits="userSpaceOnUse">
<stop stop-color="#6615CC"/>
<stop offset="1" stop-color="#2B8FFE"/>
</linearGradient>
<linearGradient id="paint5_linear" x1="17.5" y1="48.5" x2="28.5" y2="48.5" gradientUnits="userSpaceOnUse">
<stop stop-color="#2C69F5"/>
<stop offset="1" stop-color="#5C26D5"/>
</linearGradient>
</defs>
</svg>
