<svg width="96" height="96" viewBox="0 0 96 96" fill="none" xmlns="http://www.w3.org/2000/svg">
<circle cx="48" cy="48" r="48" fill="white"/>
<path d="M35.5034 25.4439V10.0002L77.0001 33.7674V80.2989L62.8672 72.2762V61.7178C62.8672 58.8138 61.3362 56.125 58.8395 54.6441L48.8344 48.7097V38.0463C48.8344 35.1448 47.3061 32.4581 44.8128 30.9762L35.5034 25.4439Z" fill="#555379"/>
<path d="M35.5033 25.4438V56.9328L62.6666 72.4768L48.5336 80.0984L22.072 65.0559V33.266L35.5033 25.4438Z" fill="#555379"/>
<path d="M33.4314 25.4439V10.0002L74.9279 33.7674V80.2989L60.7951 72.2762V61.7178C60.7951 58.8138 59.2643 56.125 56.7676 54.6441L46.7625 48.7097V38.0463C46.7625 35.1448 45.2341 32.4581 42.7407 30.9762L33.4314 25.4439Z" fill="url(#paint0_linear)"/>
<path d="M33.4313 25.4438V56.9328L60.5945 72.4768L46.4617 80.0984L20 65.0559V33.266L33.4313 25.4438Z" fill="url(#paint1_linear)"/>
<defs>
<linearGradient id="paint0_linear" x1="47.464" y1="10.0002" x2="47.464" y2="80.2989" gradientUnits="userSpaceOnUse">
<stop stop-color="#6B6A89"/>
<stop offset="1" stop-color="#8685A0"/>
</linearGradient>
<linearGradient id="paint1_linear" x1="47.4639" y1="10.0002" x2="47.4639" y2="80.2988" gradientUnits="userSpaceOnUse">
<stop stop-color="#6B6A89"/>
<stop offset="1" stop-color="#8685A0"/>
</linearGradient>
</defs>
</svg>
