<svg width="97" height="96" viewBox="0 0 97 96" fill="none" xmlns="http://www.w3.org/2000/svg">
<path d="M48.127 96C74.6366 96 96.127 74.5097 96.127 48C96.127 21.4903 74.6366 0 48.127 0C21.6173 0 0.126953 21.4903 0.126953 48C0.126953 74.5097 21.6173 96 48.127 96Z" fill="#00D4D5"/>
<path d="M49.6841 14.9998V31.3708L63.8981 23.1958L49.6841 14.9998Z" fill="white"/>
<path opacity="0.9" d="M63.8979 23.1957V39.5667L78.1089 31.3707L63.8979 23.1957Z" fill="white"/>
<path opacity="0.8" d="M49.6841 31.3707V47.7417L63.8981 39.5667L49.6841 31.3707ZM63.8981 39.5697V55.9377L78.1091 47.7417L63.8981 39.5697Z" fill="white"/>
<path opacity="0.8" d="M49.6841 47.7417V64.1127L63.8981 55.9377L49.6841 47.7417Z" fill="white"/>
<path d="M63.8979 55.9379V72.3089L78.1089 64.1129L63.8979 55.9379Z" fill="white"/>
<path opacity="0.4" d="M12.9458 30.8187V47.1897L27.1598 38.9937L12.9458 30.8187Z" fill="white"/>
<path opacity="0.2" d="M30.877 36.9059V53.2769L45.067 45.1019L30.877 36.9059Z" fill="white"/>
<path opacity="0.3" d="M20.3408 47.2585V63.6295L34.5518 55.4335L20.3408 47.2585Z" fill="white"/>
<path opacity="0.9" d="M29.707 59.6128V75.9838L43.897 67.7878L29.707 59.6128Z" fill="white"/>
<path opacity="0.7" d="M49.5669 66.6597V83.0337L63.7569 74.8347L49.5669 66.6597Z" fill="white"/>
<path opacity="0.9" d="M33.2441 28.8207V45.1947L47.4341 37.0197L33.2441 28.8207Z" fill="white"/>
<path opacity="0.8" d="M49.6837 14.9998V31.3708L35.4697 23.1958L49.6837 14.9998Z" fill="white"/>
<path opacity="0.6" d="M33.2439 21.9597V38.3277L19.0269 30.1317L33.2439 21.9597Z" fill="white"/>
<path opacity="0.6" d="M47.4581 30.0599V46.4339L33.2441 38.2349L47.4581 30.0599Z" fill="white"/>
<path opacity="0.95" d="M30.8112 36.9059V53.2769L16.5972 45.1019L30.8112 36.9059Z" fill="white"/>
<path opacity="0.6" d="M49.6841 47.7417V64.1127L35.4941 55.9377L49.6841 47.7417Z" fill="white"/>
<path opacity="0.55" d="M20.341 51.5546V67.9256L6.12695 59.7266L20.341 51.5546Z" fill="white"/>
<path d="M78.1089 31.3707V47.7417L63.8979 39.5667L78.1089 31.3707Z" fill="white"/>
<path opacity="0.95" d="M63.8981 39.5699V55.9379L49.6841 47.7419L63.8981 39.5699Z" fill="white"/>
<path opacity="0.9" d="M78.1089 47.7417V64.1127L63.8979 55.9377L78.1089 47.7417Z" fill="white"/>
<path opacity="0.7" d="M63.8981 55.9379V72.3089L49.6841 64.1129L63.8981 55.9379Z" fill="white"/>
<path opacity="0.4" d="M46.5367 62.7598V79.1308L32.3257 70.9558L46.5367 62.7598Z" fill="white"/>
<path d="M63.8981 23.1957V39.5667L49.6841 31.3707L63.8981 23.1957Z" fill="white"/>
</svg>
