<svg width="98" height="98" viewBox="0 0 98 98" fill="none" xmlns="http://www.w3.org/2000/svg">
<path d="M97 49C97 22.4903 75.5097 1 49 1C22.4903 1 1 22.4903 1 49C1 75.5097 22.4903 97 49 97C75.5097 97 97 75.5097 97 49Z" fill="black"/>
<path fill-rule="evenodd" clip-rule="evenodd" d="M48.9999 1.77979C22.9209 1.77979 1.77979 22.9209 1.77979 48.9999C1.77979 75.0788 22.9209 96.22 48.9999 96.22C75.0788 96.22 96.22 75.0788 96.22 48.9999C96.22 22.9209 75.0788 1.77979 48.9999 1.77979ZM0.219971 48.9999C0.219971 22.0595 22.0595 0.219971 48.9999 0.219971C75.9403 0.219971 97.7798 22.0595 97.7798 48.9999C97.7798 75.9403 75.9403 97.7798 48.9999 97.7798C22.0595 97.7798 0.219971 75.9403 0.219971 48.9999Z" fill="#FFB404"/>
<path d="M24.2822 49.9105C24.2822 49.9105 18.4743 54.0592 24.2822 57.6893C30.0903 61.3195 35.9504 66.6705 33.9797 75.4864C33.9797 75.4864 43.9885 73.4543 41.8104 65.3644C39.6322 57.2744 32.3722 57.1706 29.883 54.5778C27.3937 51.9849 29.7793 45.9692 29.7793 45.9692L24.2822 49.9105Z" fill="#FCC201"/>
<path d="M60.2395 33.5447C60.2395 33.5447 68.4034 44.7266 67.1206 51.0768C65.8378 57.4271 53.3691 54.39 54.3869 68.057C54.3869 68.057 50.9675 62.3969 50.9675 51.9056C50.9675 41.4144 64.6928 48.5919 60.2395 33.5447Z" fill="#FFB404"/>
<path d="M38.9342 33.5447C38.9342 33.5447 30.7704 44.7266 32.0533 51.0768C33.336 57.4271 45.8048 54.39 44.7868 68.057C44.7868 68.057 48.2063 62.3969 48.2063 51.9056C48.2063 41.4144 34.4809 48.5919 38.9342 33.5447Z" fill="#FFB404"/>
<path d="M49.4686 22.5007C44.0667 27.9023 37.8692 38.266 42.1219 40.7548C44.7116 42.2749 47.169 44.0096 49.4686 45.9406C51.7679 44.0096 54.2255 42.2747 56.815 40.7548C61.0677 38.2657 54.8701 27.9023 49.4686 22.5007Z" fill="#FCC201"/>
<path d="M74.921 49.9635C74.921 49.9635 80.7292 54.1122 74.921 57.7423C69.1127 61.3724 63.2528 66.7235 65.2236 75.5393C65.2236 75.5393 55.2148 73.5073 57.3929 65.4173C59.5711 57.3274 66.8311 57.2236 69.3203 54.6307C71.8096 52.0379 69.4242 46.0222 69.4242 46.0222L74.921 49.9635Z" fill="#FCC201"/>
</svg>
