<svg width="96" height="96" viewBox="0 0 96 96" fill="none" xmlns="http://www.w3.org/2000/svg">
<g clip-path="url(#clip0)">
<path d="M48.0001 96.0002C74.5098 96.0002 96.0002 74.5098 96.0002 48.0001C96.0002 21.4904 74.5098 0 48.0001 0C21.4904 0 0 21.4904 0 48.0001C0 74.5098 21.4904 96.0002 48.0001 96.0002Z" fill="#19D089"/>
<path fill-rule="evenodd" clip-rule="evenodd" d="M65.4926 32.842C67.092 33.6746 75.4702 36.9324 78.8625 41.8018C81.6415 45.7909 81.7713 53.9169 77.4657 57.3841C69.4738 64.4211 50.5264 57.5789 50.5264 57.3841C50.9255 57.3841 69.0845 56.0206 72.2774 47.0608C75.4702 38.1011 65.4926 32.842 65.4926 32.842Z" fill="url(#paint0_linear)"/>
<path fill-rule="evenodd" clip-rule="evenodd" d="M10.1055 42.1276C13.5146 48.058 22.9009 46.4439 38.2644 37.2853C61.3096 23.5472 68.8517 34.1894 70.7372 35.1568C70.7372 35.1568 55.4436 38.8332 42.4544 51.9907C29.4653 65.1483 15.2192 59.7305 13.1242 58.376C13.1242 58.763 12.118 53.3469 10.1055 42.1276Z" fill="url(#paint1_linear)"/>
<path fill-rule="evenodd" clip-rule="evenodd" d="M11.2005 40.1194C17.388 36.264 24.754 37.4193 33.2985 43.5853C46.8798 53.3862 62.5504 60.6314 65.6846 60.6314C65.6846 60.6314 52.3312 59.0345 40.4214 54.3156C28.5115 49.5967 16.374 53.5677 13.8667 56.8346C13.8667 57.184 12.7056 52.2661 10.3833 42.0811C10.2097 41.3199 10.5378 40.5323 11.2005 40.1194Z" fill="url(#paint2_linear)"/>
</g>
<defs>
<linearGradient id="paint0_linear" x1="72.5408" y1="37.5711" x2="66.7017" y2="58.6935" gradientUnits="userSpaceOnUse">
<stop stop-color="#F8FFFD"/>
<stop offset="1" stop-color="#82DFBB"/>
</linearGradient>
<linearGradient id="paint1_linear" x1="27.5919" y1="47.6338" x2="62.206" y2="33.0612" gradientUnits="userSpaceOnUse">
<stop stop-color="#AEFFEB"/>
<stop offset="1" stop-color="#69E0B2"/>
</linearGradient>
<linearGradient id="paint2_linear" x1="14.5609" y1="47.9998" x2="59.1864" y2="57.6342" gradientUnits="userSpaceOnUse">
<stop stop-color="#F7FFFB"/>
<stop offset="1" stop-color="#BCFFE5"/>
</linearGradient>
<clipPath id="clip0">
<rect width="96" height="96" fill="white"/>
</clipPath>
</defs>
</svg>
