<svg xmlns="http://www.w3.org/2000/svg" width="96" height="96" fill="none" viewBox="0 0 96 96"><path fill="url(#paint0_linear)" d="M48 96C74.5097 96 96 74.5097 96 48C96 21.4903 74.5097 0 48 0C21.4903 0 0 21.4903 0 48C0 74.5097 21.4903 96 48 96Z"/><path fill="url(#paint1_radial)" d="M48 96C74.5097 96 96 74.5097 96 48C96 21.4903 74.5097 0 48 0C21.4903 0 0 21.4903 0 48C0 74.5097 21.4903 96 48 96Z"/><path fill="#fff" d="M30.8369 30.8832L24.4973 24.5593C35.7749 12.9955 55.9928 10.843 69.9731 23.4879C84.337 36.4756 84.3772 58.5262 70.7919 71.6183C56.7708 85.1328 35.9144 83.0624 24.514 71.3161L30.8299 65.0048C30.8996 65.066 30.9987 65.1442 31.0948 65.2361C32.2244 66.2473 33.3666 67.2466 34.6453 68.0713C36.9337 69.5515 39.4541 70.6386 42.1019 71.2868C47.5827 72.6212 53.3587 71.9858 58.4179 69.4921C60.6319 68.4004 62.6652 66.976 64.4467 65.2681C68.4975 61.3902 71.0643 56.2194 71.7025 50.6505C72.0892 47.2292 71.7363 43.7649 70.6675 40.4917C69.5987 37.2185 67.8392 34.2127 65.5077 31.6773C62.2405 28.1246 58.2451 25.7742 53.5663 24.5997C48.1656 23.2772 42.4731 23.8579 37.4511 26.2437C35.2026 27.2889 33.1444 28.7015 31.3612 30.4234C31.2217 30.5627 31.067 30.7021 30.9177 30.8302C30.8927 30.8507 30.8656 30.8685 30.8369 30.8832Z"/><path fill="#fff" d="M59.525 53.579L53.9666 48.0229H69.7901C69.9703 56.1312 64.6724 65.8853 54.032 69.0354C48.8859 70.5536 43.362 70.1422 38.4983 67.878C33.6346 65.6137 29.766 61.653 27.6195 56.7397C25.473 51.8268 25.1965 46.2994 26.8418 41.1968C28.4871 36.0943 31.9409 31.7677 36.5544 29.0302C46.0457 23.4016 57.1712 25.9916 63.2653 32.3252L56.9312 38.6435C54.5842 36.3335 51.7143 35.0824 48.3812 34.9152C45.6858 34.7658 43.0129 35.4815 40.7533 36.9577C39.0556 38.0431 37.633 39.5071 36.5973 41.2345C35.5615 42.962 34.9407 44.9058 34.7838 46.9134C34.6268 48.9212 34.938 50.9376 35.6928 52.8046C36.4476 54.672 37.6255 56.3388 39.1339 57.6745C40.6423 59.0098 42.4402 59.9781 44.3862 60.502C46.3323 61.0263 48.3735 61.0926 50.3497 60.6958C52.3255 60.299 54.1824 59.4496 55.7746 58.2149C57.3668 56.9801 58.6505 55.3929 59.525 53.579Z"/><path fill="#fff" d="M45.7345 58.7682C43.1872 58.29 40.8907 56.9282 39.2503 54.9232C37.6099 52.9181 36.7313 50.3988 36.7692 47.8091C36.8529 41.8351 41.4089 37.824 45.7304 37.1357L45.7345 58.7682Z"/><defs><linearGradient id="paint0_linear" x1="129.234" x2="-63.131" y1="-54.811" y2="187.543" gradientUnits="userSpaceOnUse"><stop stop-color="#006EFF"/><stop offset="1" stop-color="#0038FF"/></linearGradient><radialGradient id="paint1_radial" cx="0" cy="0" r="1" gradientTransform="translate(48 48) rotate(90) scale(102.583)" gradientUnits="userSpaceOnUse"><stop stop-color="#006EFF"/><stop offset="1" stop-color="#006EFF" stop-opacity=".74"/></radialGradient></defs></svg>