<svg width="96" height="96" viewBox="0 0 96 96" fill="none" xmlns="http://www.w3.org/2000/svg">
<circle cx="48" cy="48" r="48" fill="#3030BC"/>
<path fill-rule="evenodd" clip-rule="evenodd" d="M70.9639 12.5827C71.2601 12.7656 71.4594 14.1109 71.4594 15.9284V18.968L69.6216 18.6056C68.6106 18.4063 66.1924 18.2432 64.2477 18.2432C61.3388 18.2432 60.4951 18.4037 59.491 19.147C57.7902 20.4058 57.0473 22.1204 56.8367 25.2703L56.656 27.973H68.9042L68.6486 33.8108L56.7904 34.0512L56.5586 69.5326C56.5467 71.3522 56.1239 73.1456 55.3219 74.779C53.769 77.9414 50.9414 80.7691 47.779 82.3219C45.5848 83.3996 42.4999 83.4999 40.9999 83.4999C39.4999 83.4999 36.8268 83.4242 34.176 82.1191C26.374 78.2787 23.113 68.7306 26.9997 61.1116C28.2439 58.6731 31.5602 55.2889 33.8292 54.1425C38.2183 51.9254 42.5837 51.7784 47.3513 53.6876L49.8378 54.6835V34.027H45.5135V27.973H49.6804L50.1686 24.3254C51.0495 17.7408 53.763 14.2017 59.3513 12.3492C60.6036 11.934 70.2274 12.1273 70.9639 12.5827ZM38.1664 59.653C35.7574 60.4586 33.1844 63.3433 32.5621 65.9362C31.2259 71.5068 34.8203 76.3955 40.5184 76.7583C45.9031 77.1012 49.8378 73.4281 49.8378 68.0582C49.8378 62.0871 43.8283 57.7589 38.1664 59.653Z" fill="white"/>
</svg>
