<svg width="96" height="96" viewBox="0 0 96 96" fill="none" xmlns="http://www.w3.org/2000/svg">
<path d="M48 96C74.51 96 96 74.5097 96 48C96 21.4903 74.51 0 48 0C21.49 0 0 21.4903 0 48C0 74.5097 21.49 96 48 96Z" fill="#57B1FA"/>
<path d="M34.2409 33.2148L12.2109 62.5877H16.6879L21.5229 56.1413H36.8929V52.5589H24.2109L38.7179 33.2148H34.2409Z" fill="#1E262D"/>
<path d="M83.7851 62.5877L61.7561 33.2148H57.2771L71.7851 52.5589H59.1031V56.1413H74.4711L79.3081 62.5877H83.7851Z" fill="#1E262D"/>
<path d="M49.789 17.1543H46.207V62.5895H49.789V17.1543Z" fill="#1E262D"/>
</svg>
