<svg width="104" height="104" viewBox="0 0 104 104" fill="none" xmlns="http://www.w3.org/2000/svg">
<path d="M52 100C78.5097 100 100 78.5097 100 52C100 25.4903 78.5097 4 52 4C25.4903 4 4 25.4903 4 52C4 78.5097 25.4903 100 52 100Z" fill="#1C1C1C"/>
<path d="M25.7396 29.3167C26.1702 28.7756 26.6264 28.2549 27.0826 27.7342C27.1031 27.7084 27.1494 27.7032 27.1698 27.6773C27.2109 27.6259 27.2776 27.5948 27.3185 27.5432L27.3596 27.4917C27.6777 27.1977 28.016 26.8778 28.4062 26.599C29.7866 25.5511 31.2192 24.7549 32.7298 24.2311C37.575 22.53 42.9685 23.5784 47.198 27.5713C53.1036 33.107 52.5748 42.0248 47.8604 47.9521C41.9032 56.7883 31.6654 69.1163 45.8404 80.1597C48.3891 82.1454 50.2798 83.7826 58.3081 86.1026C53.0575 87.0698 48.1889 86.7689 42.7698 85.3849C38.9367 83.2213 32.9103 78.5888 30.8599 72.332C27.7611 62.8441 36.3158 48.6602 40.4501 43.1974C46.1264 35.6372 36.9417 27.4529 30.1796 36.5898C26.645 41.3514 20.4611 54.8258 22.6101 64.8206C23.8666 70.4884 25.5414 74.6198 32.1818 80.2951C30.9504 79.5685 29.7546 78.7443 28.5946 77.8222C13.166 63.4504 14.956 41.2289 25.7396 29.3167Z" fill="url(#paint0_linear)"/>
<path d="M78.2604 74.6832C77.8298 75.2243 77.3736 75.745 76.9174 76.2657C76.8969 76.2916 76.8506 76.2968 76.8302 76.3226C76.7891 76.3741 76.7224 76.4051 76.6815 76.4567L76.6404 76.5082C76.3223 76.8022 75.984 77.1222 75.5938 77.4009C74.2134 78.4489 72.7808 79.245 71.2702 79.7688C66.425 81.4699 61.0315 80.4216 56.802 76.4287C50.8964 70.8929 51.4252 61.9751 56.1396 56.0478C62.0969 47.2116 72.3346 34.8836 58.1596 23.8402C55.6109 21.8545 53.7202 20.2174 45.6919 17.8973C50.9425 16.93 55.8111 17.2309 61.23 18.6151C65.0633 20.7786 71.0897 25.4111 73.1401 31.6679C76.2389 41.1559 67.6843 55.3397 63.5499 60.8025C57.8736 68.3628 67.0583 76.5471 73.8204 67.4101C77.355 62.6485 83.5389 49.1741 81.3899 39.1793C80.1334 33.5115 78.4587 29.3801 71.8183 23.7048C73.0496 24.4314 74.2454 25.2556 75.4054 26.1778C90.834 40.5495 89.0439 62.771 78.2604 74.6832Z" fill="url(#paint1_linear)"/>
<defs>
<linearGradient id="paint0_linear" x1="17.3335" y1="52" x2="86.6668" y2="52" gradientUnits="userSpaceOnUse">
<stop stop-color="#0082FA"/>
<stop offset="1" stop-color="#00F2FE"/>
</linearGradient>
<linearGradient id="paint1_linear" x1="17.3332" y1="51.9999" x2="86.6665" y2="51.9999" gradientUnits="userSpaceOnUse">
<stop stop-color="#0082FA"/>
<stop offset="1" stop-color="#00F2FE"/>
</linearGradient>
</defs>
</svg>
