<svg width="96" height="96" viewBox="0 0 96 96" fill="none" xmlns="http://www.w3.org/2000/svg">
<circle cx="48" cy="48" r="48" fill="white"/>
<path fill-rule="evenodd" clip-rule="evenodd" d="M33.4716 16.4184L31.3641 14.9209L29.2843 16.4638L30.0582 13.9957L27.9507 12.4958L30.5372 12.468L31.3111 10L32.1355 12.4529L34.722 12.4252L32.6472 13.968L33.4716 16.4184Z" fill="#D3A809"/>
<path fill-rule="evenodd" clip-rule="evenodd" d="M66.8669 16.4184L64.7569 14.9209L62.6771 16.4638L63.451 13.9957L61.3435 12.4958L63.93 12.468L64.704 10L65.5283 12.4529L68.1148 12.4252L66.0375 13.968L66.8669 16.4184Z" fill="#D3A809"/>
<path d="M78.4406 47.7613C74.5836 41.7614 71.5433 34.6321 78.3247 29.6432C78.3754 29.6114 78.4184 29.5688 78.4507 29.5184C78.4829 29.4679 78.5035 29.411 78.5109 29.3516C78.5184 29.2923 78.5126 29.232 78.4939 29.1751C78.4752 29.1183 78.4441 29.0663 78.4028 29.023L67.9207 17.7266C67.8585 17.6663 67.7786 17.6277 67.6928 17.6163C67.607 17.605 67.5199 17.6215 67.4442 17.6635C55.7217 24.0012 40.3312 24.218 28.639 17.6635C28.5637 17.6208 28.4766 17.6036 28.3907 17.6145C28.3048 17.6254 28.2248 17.6638 28.1625 17.724L17.6703 29.0331C17.629 29.0764 17.5979 29.1284 17.5792 29.1852C17.5605 29.2421 17.5547 29.3023 17.5622 29.3617C17.5696 29.4211 17.5902 29.478 17.6225 29.5285C17.6547 29.5789 17.6977 29.6215 17.7484 29.6532C24.9962 34.9826 20.9803 42.5101 17.0501 48.7142C13.2939 54.6562 13.13 61.8232 15.8829 68.1811C17.9955 73.0541 22.3139 76.1927 27.2701 77.7331C30.8348 78.8423 34.6187 78.6482 38.2287 79.5381C41.8816 80.438 45.0152 82.475 47.7681 84.9733C47.843 85.0442 47.9422 85.0837 48.0454 85.0837C48.1485 85.0837 48.2478 85.0442 48.3227 84.9733C53.1125 80.6145 58.167 79.2608 64.4569 78.5952C68.5711 78.1591 72.476 76.7297 75.7104 74.1356C83.6868 67.7374 83.4775 55.7855 78.4305 47.7714" fill="white"/>
<path d="M77.3136 48.5253C71.4599 39.6616 71.2599 33.223 76.7136 29.2097L67.4465 19.2241L66.3701 19.809C61.308 22.4426 55.1997 23.7644 48.0452 23.7745C40.8907 23.7845 34.7732 22.4627 29.6926 19.809C29.3346 19.6149 28.9741 19.4208 28.6312 19.2241L19.3566 29.2097C24.8053 33.223 24.6103 39.6616 18.7718 48.5253C15.1802 53.942 14.3399 59.6007 16.2508 65.5014C18.6457 72.8963 24.4002 76.8836 33.5144 77.4634C39.2017 77.8164 44.0453 79.8121 48.0452 83.4507C52.0401 79.8121 56.8753 77.8164 62.5508 77.4634C71.67 76.8802 77.4245 72.8929 79.8144 65.5014C81.7152 59.6024 80.8816 53.9437 77.3136 48.5253ZM66.2213 31.9071L69.1709 30.0491V32.8928L66.2213 34.8238V31.9071ZM19.7171 49.1379C25.6599 40.1397 26.0994 33.4558 21.0356 29.0861L28.8506 20.6434C28.9565 20.7014 29.0598 20.7619 29.1657 20.8073C34.3908 23.535 40.684 24.9039 48.0452 24.9139C53.0745 24.9139 57.6122 24.2711 61.6206 22.998L18.7642 50.7286C19.0491 50.2042 19.3793 49.6622 19.7222 49.1404L19.7171 49.1379ZM20.7104 71.045C19.8377 70.0928 19.0928 69.031 18.4945 67.8863L20.7104 66.4619V71.045ZM21.6532 61.4024V58.7932L25.0817 56.6655V58.0596C25.0212 58.6016 25.1876 58.7654 25.5859 58.5411L28.0413 56.8924V54.3916C27.9229 54.1395 27.5624 54.1243 26.98 54.3487L23.9246 56.2949C23.2061 56.7991 22.6641 57.0512 22.2935 56.9982C21.923 56.9453 21.7238 56.6529 21.6658 56.0705L21.6482 52.2235C21.5599 51.684 21.9003 51.1748 22.6566 50.6807L29.9674 46.143C30.2944 46.0265 30.6524 46.0318 30.9757 46.1581C31.1688 46.3055 31.3022 46.5177 31.3514 46.7556V48.8833L28.0565 50.9177V50.0958C27.9808 49.7681 27.7414 49.7202 27.3682 49.932L25.78 50.9404C25.5553 51.0695 25.3576 51.2406 25.1977 51.4446C25.1485 51.5131 25.1138 51.5908 25.0956 51.6732C25.0774 51.7555 25.0761 51.8407 25.0918 51.9235V53.0454C25.1523 53.3907 25.3313 53.5243 25.6464 53.4059L28.9363 51.4269C30.0127 50.9227 30.822 51.0866 31.3463 51.8479L31.3917 55.4252C31.4043 56.5193 31.1068 57.2503 30.464 57.5982L23.0423 62.3628C22.0994 62.8141 21.6356 62.4864 21.6482 61.3923L21.6532 61.4024ZM32.8614 76.266C30.7882 76.1016 28.7451 75.6685 26.7834 74.9778V62.5217L32.8614 58.6016V76.266ZM36.2168 53.9454L33.2673 55.8915V52.9874L36.2168 51.1294V53.9454ZM45.0049 79.755C43.1121 78.6219 41.0719 77.7557 38.942 77.1811V54.6613L45.0175 50.7412L45.0049 79.755ZM48.6124 37.0549L46.4267 38.4792L45.7839 38.1616L43.3285 39.7952V42.1472L45.3024 41.0078V40.1784L46.9965 39.0112V43.6371L45.1536 44.8623V43.3674L43.3738 44.517V47.29L45.1839 46.1228V48.2631L38.3571 52.579L38.3269 50.4815L39.7184 49.5362V42.1775L38.2815 43.0447V40.8137L48.6175 34.1054L48.6124 37.0549ZM49.4216 42.5657L52.3712 40.7078V43.5388L49.4216 45.4699V42.5657ZM57.1711 77.1811C55.0338 77.7553 52.9878 78.6268 51.093 79.7701V46.8035L57.1711 42.8808V77.1811ZM56.0921 41.2926C55.1946 41.7716 54.6703 41.4741 54.5064 40.3649V31.5163C54.5647 30.9278 54.8332 30.3801 55.2627 29.9735L63.1836 24.7349C63.7205 24.4829 64.081 24.5711 64.2474 24.987V27.7097L61.1618 29.7592V29.2802C61.1315 28.9046 60.892 28.892 60.4433 29.25L58.3761 30.7777C58.22 30.9456 58.1257 31.1617 58.1089 31.3903L58.182 35.9129C58.1708 36.1539 58.2112 36.3946 58.3005 36.6188C58.3912 36.765 58.5526 36.7826 58.782 36.6641L60.7282 35.3608V32.7592L64.2575 30.6189V34.7054C64.126 35.552 63.7013 36.3256 63.0575 36.891L56.0921 41.2926ZM69.3146 74.9803C67.348 75.6744 65.3 76.1116 63.2214 76.2811V38.9431L69.3171 35.0205L69.3146 74.9803ZM78.7455 65.1485C78.0565 67.3211 76.9136 69.3224 75.3926 71.0198V47.6102C75.6901 48.1144 76.0203 48.6186 76.3657 49.1379C79.7455 54.2588 80.5387 59.5982 78.7455 65.1561" fill="#231F20"/>
<path d="M33.1012 24.3442C31.2205 24.3489 29.4182 25.0981 28.0883 26.4279C26.7585 27.7578 26.0093 29.5601 26.0047 31.4408C25.9909 32.3748 26.1685 33.3018 26.5266 34.1646C26.8848 35.0274 27.4158 35.8077 28.087 36.4575C28.1777 36.5306 28.2685 36.6239 28.3567 36.697C29.6373 37.9062 31.3401 38.5667 33.1012 38.5373C34.5028 38.5367 35.8729 38.1207 37.0383 37.3419C38.2037 36.5631 39.1122 35.4565 39.649 34.1616C40.1858 32.8668 40.3269 31.442 40.0543 30.0671C39.7818 28.6921 39.108 27.4288 38.1179 26.4366C37.4702 25.7626 36.6903 25.2295 35.8271 24.8707C34.9638 24.512 34.0358 24.3353 33.1012 24.3518V24.3442ZM33.1188 25.0249C33.8252 25.0262 34.527 25.1385 35.1986 25.3577C35.2045 25.363 35.2089 25.3697 35.2116 25.3772C35.2142 25.3847 35.215 25.3927 35.2137 25.4005C36.9355 28.4685 37.0843 31.1055 35.7179 33.276C35.7028 33.2609 35.6725 33.2609 35.6423 33.2483C35.9877 30.2534 35.0448 27.5106 32.7835 25.0425C32.898 25.0278 33.0135 25.0219 33.1289 25.0249H33.1188ZM35.8667 34.0096C35.8431 34.1065 35.7913 34.1942 35.7179 34.2617C35.6757 34.3241 35.6247 34.3801 35.5667 34.4281C35.4122 34.558 35.2354 34.6588 35.0448 34.7256C34.8148 34.8115 34.5719 34.8576 34.3264 34.8617C34.2983 34.8476 34.2669 34.8415 34.2356 34.8441C34.169 34.8405 34.1043 34.8211 34.0468 34.7873C33.9893 34.7535 33.9408 34.7064 33.9054 34.6499C33.883 34.5913 33.8782 34.5273 33.8917 34.466C33.9051 34.4046 33.9361 34.3485 33.981 34.3046C33.9887 34.2971 33.994 34.2874 33.9961 34.2768H34.0112C34.1951 34.0636 34.4328 33.9034 34.6995 33.813C34.8759 33.7387 35.0632 33.6935 35.2541 33.6794C35.3383 33.6778 35.4225 33.682 35.5062 33.692C35.6012 33.7041 35.6929 33.735 35.7759 33.7827C35.8084 33.8145 35.8379 33.8491 35.8641 33.8861V33.9037C35.8731 33.9376 35.8731 33.9732 35.8641 34.0071L35.8667 34.0096ZM31.9264 25.1257C34.3238 27.5686 35.2944 30.2786 34.9087 33.2735C34.779 33.2985 34.6529 33.3391 34.5331 33.3945C34.2604 33.4851 34.0103 33.633 33.7995 33.8281C30.4382 33.2281 28.771 30.8584 28.7979 26.719C29.6669 25.8996 30.7526 25.3467 31.9264 25.1257ZM26.7156 31.4281C26.6945 29.9694 27.1942 28.5509 28.1248 27.4274C28.276 31.4408 30.0407 33.7819 33.4188 34.4508C31.2029 35.0054 29.0323 34.539 26.9072 33.029C26.7711 32.5064 26.705 31.9681 26.7105 31.4281H26.7156ZM28.5987 35.9659C28.0435 35.4234 27.5916 34.7844 27.2651 34.0802C29.3474 35.323 31.4449 35.6659 33.5852 35.1113C33.6306 35.1289 33.6583 35.1567 33.7213 35.1869C32.5944 36.1297 30.9054 36.4146 28.6592 36.0087C28.6361 35.9991 28.6155 35.9845 28.5987 35.9659ZM33.9154 37.8062C33.6633 37.8238 33.3886 37.8364 33.1213 37.8516C31.9189 37.858 30.7398 37.5204 29.7231 36.8785C31.9079 37.0297 33.5238 36.5062 34.5709 35.3079V35.2903C34.6555 35.2878 34.7398 35.2785 34.823 35.2625C34.9263 36.3264 34.6289 37.1785 33.9255 37.8062H33.9154ZM37.6515 35.9659C36.9132 36.7193 35.9967 37.2742 34.9868 37.5793C35.4356 36.8759 35.5843 36.039 35.4633 35.0205C35.512 35.0017 35.5578 34.9763 35.5994 34.9449C36.1908 35.4547 36.9113 35.7914 37.6818 35.918L37.6364 35.9634L37.6515 35.9659ZM38.2666 35.26C37.4778 35.2664 36.7126 34.9911 36.1087 34.4836C36.1393 34.4459 36.1647 34.4044 36.1843 34.36C37.6498 34.1668 38.7624 33.2836 39.5221 31.7105C39.4858 32.9968 39.0447 34.2389 38.2616 35.26H38.2666ZM39.3078 30.4374C38.6792 32.2945 37.6616 33.3735 36.2549 33.6743C37.7221 31.4735 37.6918 28.8366 36.1793 25.7988C36.7137 26.0964 37.2027 26.4691 37.6313 26.9055C38.5388 27.7751 39.1552 28.9039 39.396 30.1374C39.3658 30.2282 39.3355 30.334 39.3053 30.4374" fill="#231F20"/>
</svg>
