<svg width="96" height="96" viewBox="0 0 96 96" fill="none" xmlns="http://www.w3.org/2000/svg">
<g clip-path="url(#clip0_2523_5077)">
<path d="M42.2832 11.25H37.0332V16.5H42.2832V11.25Z" fill="#EFBB1A"/>
<path d="M47.5332 11.25H42.2832V16.5H47.5332V11.25Z" fill="#EFBB1A"/>
<path d="M52.7832 11.25H47.5332V16.5H52.7832V11.25Z" fill="#EFBB1A"/>
<path d="M58.0332 11.25H52.7832V16.5H58.0332V11.25Z" fill="#EFBB1A"/>
<path d="M63.2832 11.25H58.0332V16.5H63.2832V11.25Z" fill="#342C19"/>
<path d="M68.5332 11.25H63.2832V16.5H68.5332V11.25Z" fill="#342C19"/>
<path d="M73.7832 16.5H68.5332V21.75H73.7832V16.5Z" fill="#342C19"/>
<path d="M79.0332 21.75H73.7832V27H79.0332V21.75Z" fill="#342C19"/>
<path d="M84.2832 27H79.0332V32.25H84.2832V27Z" fill="#342C19"/>
<path d="M84.2832 32.25H79.0332V37.5H84.2832V32.25Z" fill="#342C19"/>
<path d="M31.7832 11.25H37.0332V16.5H31.7832V11.25Z" fill="#342C19"/>
<path d="M26.5332 11.25H31.7832V16.5H26.5332V11.25Z" fill="#342C19"/>
<path d="M21.2832 16.5H26.5332V21.75H21.2832V16.5Z" fill="#342C19"/>
<path d="M16.0332 21.75H21.2832V27H16.0332V21.75Z" fill="#342C19"/>
<path d="M10.7832 27H16.0332V32.25H10.7832V27Z" fill="#342C19"/>
<path d="M10.7832 32.25H16.0332V37.5H10.7832V32.25Z" fill="#342C19"/>
<path d="M89.5332 37.5H84.2832V42.75H89.5332V37.5Z" fill="#342C19"/>
<path d="M89.5332 42.75H84.2832V48H89.5332V42.75Z" fill="#342C19"/>
<path d="M89.5332 48H84.2832V53.25H89.5332V48Z" fill="#342C19"/>
<path d="M89.5332 53.25H84.2832V58.5H89.5332V53.25Z" fill="#342C19"/>
<path d="M5.5332 37.5H10.7832V42.75H5.5332V37.5Z" fill="#342C19"/>
<path d="M5.5332 42.75H10.7832V48H5.5332V42.75Z" fill="#342C19"/>
<path d="M5.5332 48H10.7832V53.25H5.5332V48Z" fill="#342C19"/>
<path d="M5.5332 53.25H10.7832V58.5H5.5332V53.25Z" fill="#342C19"/>
<path d="M42.2832 6H37.0332V11.25H42.2832V6Z" fill="#342C19"/>
<path d="M47.5332 6H42.2832V11.25H47.5332V6Z" fill="#342C19"/>
<path d="M52.7832 6H47.5332V11.25H52.7832V6Z" fill="#342C19"/>
<path d="M58.0332 6H52.7832V11.25H58.0332V6Z" fill="#342C19"/>
<path d="M31.7832 84.75H37.0332V79.5H31.7832V84.75Z" fill="#30261C"/>
<path d="M26.5332 84.75H31.7832V79.5H26.5332V84.75Z" fill="#30261C"/>
<path d="M21.2832 79.5H26.5332V74.25H21.2832V79.5Z" fill="#30261C"/>
<path d="M16.0332 74.25H21.2832V69H16.0332V74.25Z" fill="#30261C"/>
<path d="M10.7832 69H16.0332V63.75H10.7832V69Z" fill="#30261C"/>
<path d="M10.7832 63.75H16.0332V58.5H10.7832V63.75Z" fill="#30261C"/>
<path d="M63.2832 84.75H58.0332V79.5H63.2832V84.75Z" fill="#30261C"/>
<path d="M68.5332 84.75H63.2832V79.5H68.5332V84.75Z" fill="#30261C"/>
<path d="M73.7832 79.5H68.5332V74.25H73.7832V79.5Z" fill="#30261C"/>
<path d="M79.0332 74.25H73.7832V69H79.0332V74.25Z" fill="#30261C"/>
<path d="M84.2832 69H79.0332V63.75H84.2832V69Z" fill="#30261C"/>
<path d="M84.2832 63.75H79.0332V58.5H84.2832V63.75Z" fill="#30261C"/>
<path d="M52.7832 90H58.0332V84.75H52.7832V90Z" fill="#30261C"/>
<path d="M47.5332 90H52.7832V84.75H47.5332V90Z" fill="#30261C"/>
<path d="M42.2832 90H47.5332V84.75H42.2832V90Z" fill="#30261C"/>
<path d="M37.0332 90H42.2832V84.75H37.0332V90Z" fill="#30261C"/>
<path d="M16.0332 42.75V37.5H10.7832V42.75H16.0332Z" fill="#EFBB1A"/>
<path d="M16.0332 48V42.75H10.7832V48H16.0332Z" fill="#EFBB1A"/>
<path d="M79.0332 58.5001V37.5L16.0333 37.5V58.5001H79.0332Z" fill="#FDDC4F"/>
<path d="M73.7832 69V27L21.2832 27V69H73.7832Z" fill="#FDDC4F"/>
<path d="M68.5332 74.25V21.75L26.5332 21.75V74.25H68.5332Z" fill="#FDDC4F"/>
<path d="M58.0332 79.4999L58.0332 16.5H37.0333V79.4999H58.0332Z" fill="#FDDC4F"/>
<path d="M16.0332 53.25V48H10.7832V53.25H16.0332Z" fill="#EFBB1A"/>
<path d="M16.0332 58.5V53.25H10.7832V58.5H16.0332Z" fill="#EFBB1A"/>
<path d="M84.2832 42.75V37.5H79.0332V42.75H84.2832Z" fill="#EFBB1A"/>
<path d="M84.2832 48V42.75H79.0332V48H84.2832Z" fill="#EFBB1A"/>
<path d="M84.2832 53.25V48H79.0332V53.25H84.2832Z" fill="#EFBB1A"/>
<path d="M84.2832 58.5V53.25H79.0332V58.5H84.2832Z" fill="#EFBB1A"/>
<path d="M63.2832 16.5H58.0332V21.75H63.2832V16.5Z" fill="#EFBB1A"/>
<path d="M68.5332 16.5H63.2832V21.75H68.5332V16.5Z" fill="#EFBB1A"/>
<path d="M79.0332 32.25V27H73.7832V32.25H79.0332Z" fill="#EFBB1A"/>
<path d="M79.0332 37.5V32.25H73.7832V37.5H79.0332Z" fill="#EFBB1A"/>
<path d="M21.2832 32.25V27H16.0332V32.25H21.2832Z" fill="#EFBB1A"/>
<path d="M21.2832 37.5V32.25H16.0332V37.5H21.2832Z" fill="#EFBB1A"/>
<path d="M73.7832 21.75H68.5332V27H73.7832V21.75Z" fill="#EFBB1A"/>
<path d="M31.7832 16.5H37.0332V21.75H31.7832V16.5Z" fill="#EFBB1A"/>
<path d="M26.5332 16.5H31.7832V21.75H26.5332V16.5Z" fill="#EFBB1A"/>
<path d="M21.2832 21.75H26.5332V27H21.2832V21.75Z" fill="#EFBB1A"/>
<path d="M42.2832 84.75H37.0332V79.5H42.2832V84.75Z" fill="#EFBB1A"/>
<path d="M47.5332 84.75H42.2832V79.5H47.5332V84.75Z" fill="#EFBB1A"/>
<path d="M52.7832 84.75H47.5332V79.5H52.7832V84.75Z" fill="#EFBB1A"/>
<path d="M58.0332 84.75H52.7832V79.5H58.0332V84.75Z" fill="#EFBB1A"/>
<path d="M63.2832 79.5H58.0332V74.25H63.2832V79.5Z" fill="#EFBB1A"/>
<path d="M68.5332 79.5H63.2832V74.25H68.5332V79.5Z" fill="#EFBB1A"/>
<path d="M79.0332 63.75L79.0332 69L73.7832 69L73.7832 63.75L79.0332 63.75Z" fill="#EFBB1A"/>
<path d="M79.0332 58.5L79.0332 63.75L73.7832 63.75L73.7832 58.5L79.0332 58.5Z" fill="#EFBB1A"/>
<path d="M21.2832 63.75L21.2832 69L16.0332 69L16.0332 63.75L21.2832 63.75Z" fill="#EFBB1A"/>
<path d="M21.2832 58.5L21.2832 63.75L16.0332 63.75L16.0332 58.5L21.2832 58.5Z" fill="#EFBB1A"/>
<path d="M73.7832 74.25H68.5332V69H73.7832V74.25Z" fill="#EFBB1A"/>
<path d="M31.7832 79.5H37.0332V74.25H31.7832V79.5Z" fill="#EFBB1A"/>
<path d="M26.5332 79.5H31.7832V74.25H26.5332V79.5Z" fill="#EFBB1A"/>
<path d="M21.2832 74.25H26.5332V69H21.2832V74.25Z" fill="#EFBB1A"/>
<path d="M67.2208 41.4375H27.8457V62.4376H67.2208V41.4375Z" fill="#B4A389"/>
<path d="M64.5957 30.9375H30.4707V65.0625H64.5957V30.9375Z" fill="#B4A389"/>
<path d="M40.9707 41.4375H37.0332V45.375H40.9707V41.4375Z" fill="#30261C"/>
<path d="M40.9707 41.4375H37.0332V42.75H40.9707V41.4375Z" fill="#584B3A"/>
<path d="M34.4082 32.25H31.7832V33.5625H34.4082V32.25Z" fill="#584B3A"/>
<path d="M33.0957 33.5625H31.7832V34.875H33.0957V33.5625Z" fill="#584B3A"/>
<path d="M60.6582 32.25H63.2832V33.5625H60.6582V32.25Z" fill="#584B3A"/>
<path d="M61.9707 33.5625H63.2832V34.875H61.9707V33.5625Z" fill="#584B3A"/>
<path d="M42.2832 48H39.6582V51.9375H42.2832V48Z" fill="#30261C"/>
<path d="M42.2832 51.9375H39.6582V54.5625H42.2832V51.9375Z" fill="#30261C"/>
<path d="M42.2832 54.5625H39.6582V57.1875H42.2832V54.5625Z" fill="#30261C"/>
<path d="M44.9082 54.5625H42.2832V57.1875H44.9082V54.5625Z" fill="#30261C"/>
<path d="M47.5332 57.1875H44.9082V59.8125H47.5332V57.1875Z" fill="#30261C"/>
<path d="M47.5332 59.8125H44.9082V62.4375H47.5332V59.8125Z" fill="#30261C"/>
<path d="M50.1582 59.8125H47.5332V62.4375H50.1582V59.8125Z" fill="#30261C"/>
<path d="M48.8457 61.125H46.2207V63.75H48.8457V61.125Z" fill="#30261C"/>
<path d="M44.9082 57.1875H42.2832V59.8125H44.9082V57.1875Z" fill="#30261C"/>
<path d="M50.1582 57.1875H47.5332V59.8125H50.1582V57.1875Z" fill="#30261C"/>
<path d="M52.7832 57.1875H50.1582V59.8125H52.7832V57.1875Z" fill="#30261C"/>
<path d="M44.9082 51.9375H42.2832V54.5625H44.9082V51.9375Z" fill="#30261C"/>
<path d="M52.7832 51.9375H50.1582V54.5625H52.7832V51.9375Z" fill="#30261C"/>
<path d="M55.4082 51.9375H52.7832V54.5625H55.4082V51.9375Z" fill="#30261C"/>
<path d="M55.4082 54.5625H52.7832V57.1875H55.4082V54.5625Z" fill="#30261C"/>
<path d="M52.7832 54.5625H50.1582V57.1875H52.7832V54.5625Z" fill="#30261C"/>
<path d="M50.1582 54.5625H47.5332V57.1875H50.1582V54.5625Z" fill="#30261C"/>
<path d="M47.5332 54.5625H44.9082V57.1875H47.5332V54.5625Z" fill="#30261C"/>
<path d="M47.5332 51.9375H44.9082V54.5625H47.5332V51.9375Z" fill="#30261C"/>
<path d="M50.1582 51.9375H47.5332V54.5625H50.1582V51.9375Z" fill="#30261C"/>
<path d="M47.5332 50.625H44.9082V51.9375H47.5332V50.625Z" fill="#30261C"/>
<path d="M50.1582 50.625H47.5332V51.9375H50.1582V50.625Z" fill="#30261C"/>
<path d="M43.5957 45.375H42.2832V48H43.5957V45.375Z" fill="#30261C"/>
<path d="M52.7832 45.375H51.4707V48H52.7832V45.375Z" fill="#30261C"/>
<path d="M55.4082 48H52.7832V51.9375H55.4082V48Z" fill="#30261C"/>
<path d="M58.0332 41.4375H54.0957V45.375H58.0332V41.4375Z" fill="#30261C"/>
<path d="M69.8457 46.6875H67.2207V49.3125H69.8457V46.6875Z" fill="#30261C"/>
<path d="M69.8457 49.3125H67.2207V51.9375H69.8457V49.3125Z" fill="#30261C"/>
<path d="M69.8457 51.9375H67.2207V54.5625H69.8457V51.9375Z" fill="#30261C"/>
<path d="M69.8457 54.5625H67.2207V57.1875H69.8457V54.5625Z" fill="#30261C"/>
<path d="M69.8457 57.1875H67.2207V59.8125H69.8457V57.1875Z" fill="#30261C"/>
<path d="M69.8457 59.8125H67.2207V62.4375H69.8457V59.8125Z" fill="#30261C"/>
<path d="M64.5957 62.4375H61.9707V65.0625H64.5957V62.4375Z" fill="#30261C"/>
<path d="M67.2207 62.4375H64.5957V65.0625H67.2207V62.4375Z" fill="#30261C"/>
<path d="M61.9707 62.4375H59.3457V65.0625H61.9707V62.4375Z" fill="#30261C"/>
<path d="M59.3457 62.4375H56.7207V65.0625H59.3457V62.4375Z" fill="#30261C"/>
<path d="M38.3457 62.4375H35.7207V65.0625H38.3457V62.4375Z" fill="#30261C"/>
<path d="M35.7207 62.4375H33.0957V65.0625H35.7207V62.4375Z" fill="#30261C"/>
<path d="M33.0957 62.4375H30.4707V65.0625H33.0957V62.4375Z" fill="#30261C"/>
<path d="M30.4707 62.4375H27.8457V65.0625H30.4707V62.4375Z" fill="#30261C"/>
<path d="M56.7207 65.0625H54.0957V67.6875H56.7207V65.0625Z" fill="#30261C"/>
<path d="M54.0957 65.0625H51.4707V67.6875H54.0957V65.0625Z" fill="#30261C"/>
<path d="M51.4707 65.0625H48.8457V67.6875H51.4707V65.0625Z" fill="#30261C"/>
<path d="M48.8457 65.0625H46.2207V67.6875H48.8457V65.0625Z" fill="#30261C"/>
<path d="M46.2207 65.0625H43.5957V67.6875H46.2207V65.0625Z" fill="#30261C"/>
<path d="M43.5957 65.0625H40.9707V67.6875H43.5957V65.0625Z" fill="#30261C"/>
<path d="M40.9707 65.0625H38.3457V67.6875H40.9707V65.0625Z" fill="#30261C"/>
<path d="M69.8457 41.4375H67.2207V44.0625H69.8457V41.4375Z" fill="#30261C"/>
<path d="M69.8457 44.0625H67.2207V46.6875H69.8457V44.0625Z" fill="#30261C"/>
<path d="M27.8457 46.6875H25.2207V49.3125H27.8457V46.6875Z" fill="#30261C"/>
<path d="M27.8457 49.3125H25.2207V51.9375H27.8457V49.3125Z" fill="#30261C"/>
<path d="M27.8457 51.9375H25.2207V54.5625H27.8457V51.9375Z" fill="#30261C"/>
<path d="M27.8457 54.5625H25.2207V57.1875H27.8457V54.5625Z" fill="#30261C"/>
<path d="M27.8457 57.1875H25.2207V59.8125H27.8457V57.1875Z" fill="#30261C"/>
<path d="M27.8457 59.8125H25.2207V62.4375H27.8457V59.8125Z" fill="#30261C"/>
<path d="M27.8457 41.4375H25.2207V44.0625H27.8457V41.4375Z" fill="#30261C"/>
<path d="M30.4707 38.8125H27.8457V41.4375H30.4707V38.8125Z" fill="#30261C"/>
<path d="M30.4707 36.1875H27.8457V38.8125H30.4707V36.1875Z" fill="#30261C"/>
<path d="M30.4707 33.5625H27.8457V36.1875H30.4707V33.5625Z" fill="#30261C"/>
<path d="M30.4707 30.9375H27.8457V33.5625H30.4707V30.9375Z" fill="#30261C"/>
<path d="M30.4707 28.3125H27.8457V30.9375H30.4707V28.3125Z" fill="#30261C"/>
<path d="M33.0957 28.3125H30.4707V30.9375H33.0957V28.3125Z" fill="#30261C"/>
<path d="M35.7207 28.3125H33.0957V30.9375H35.7207V28.3125Z" fill="#30261C"/>
<path d="M64.5957 38.8125H67.2207V41.4375H64.5957V38.8125Z" fill="#30261C"/>
<path d="M64.5957 36.1875H67.2207V38.8125H64.5957V36.1875Z" fill="#30261C"/>
<path d="M64.5957 33.5625H67.2207V36.1875H64.5957V33.5625Z" fill="#30261C"/>
<path d="M64.5957 30.9375H67.2207V33.5625H64.5957V30.9375Z" fill="#30261C"/>
<path d="M64.5957 28.3125H67.2207V30.9375H64.5957V28.3125Z" fill="#30261C"/>
<path d="M61.9707 28.3125H64.5957V30.9375H61.9707V28.3125Z" fill="#30261C"/>
<path d="M59.3457 28.3125H61.9707V30.9375H59.3457V28.3125Z" fill="#30261C"/>
<path d="M40.9707 30.9375H38.3457V33.5625H40.9707V30.9375Z" fill="#30261C"/>
<path d="M38.3457 30.9375H35.7207V33.5625H38.3457V30.9375Z" fill="#30261C"/>
<path d="M43.5957 30.9375H40.9707V33.5625H43.5957V30.9375Z" fill="#30261C"/>
<path d="M46.2207 30.9375H43.5957V33.5625H46.2207V30.9375Z" fill="#30261C"/>
<path d="M48.8457 30.9375H46.2207V33.5625H48.8457V30.9375Z" fill="#30261C"/>
<path d="M51.4707 30.9375H48.8457V33.5625H51.4707V30.9375Z" fill="#30261C"/>
<path d="M54.0957 30.9375H51.4707V33.5625H54.0957V30.9375Z" fill="#30261C"/>
<path d="M56.7207 30.9375H54.0957V33.5625H56.7207V30.9375Z" fill="#30261C"/>
<path d="M59.3457 30.9375H56.7207V33.5625H59.3457V30.9375Z" fill="#30261C"/>
<path d="M27.8457 44.0625H25.2207V46.6875H27.8457V44.0625Z" fill="#30261C"/>
<path d="M58.0332 41.4375H54.0957V42.75H58.0332V41.4375Z" fill="#584B3A"/>
<path d="M41.5332 6H35.5332V12H41.5332V6Z" fill="#EFBB1A"/>
<path d="M47.5332 6H41.5332V12H47.5332V6Z" fill="#EFBB1A"/>
<path d="M53.5332 6H47.5332V12H53.5332V6Z" fill="#EFBB1A"/>
<path d="M59.5332 6H53.5332V12H59.5332V6Z" fill="#EFBB1A"/>
<path d="M65.5332 6H59.5332V12H65.5332V6Z" fill="#342C19"/>
<path d="M71.5332 6H65.5332V12H71.5332V6Z" fill="#342C19"/>
<path d="M77.5332 12H71.5332V18H77.5332V12Z" fill="#342C19"/>
<path d="M83.5332 18H77.5332V24H83.5332V18Z" fill="#342C19"/>
<path d="M89.5332 24H83.5332V30H89.5332V24Z" fill="#342C19"/>
<path d="M89.5332 30H83.5332V36H89.5332V30Z" fill="#342C19"/>
<path d="M29.5332 6H35.5332V12H29.5332V6Z" fill="#342C19"/>
<path d="M23.5332 6H29.5332V12H23.5332V6Z" fill="#342C19"/>
<path d="M17.5332 12H23.5332V18H17.5332V12Z" fill="#342C19"/>
<path d="M11.5332 18H17.5332V24H11.5332V18Z" fill="#342C19"/>
<path d="M5.5332 24H11.5332V30H5.5332V24Z" fill="#342C19"/>
<path d="M5.5332 30H11.5332V36H5.5332V30Z" fill="#342C19"/>
<path d="M95.5332 36H89.5332V42H95.5332V36Z" fill="#342C19"/>
<path d="M95.5332 42H89.5332V48H95.5332V42Z" fill="#342C19"/>
<path d="M95.5332 48H89.5332V54H95.5332V48Z" fill="#342C19"/>
<path d="M95.5332 54H89.5332V60H95.5332V54Z" fill="#342C19"/>
<path d="M-0.466797 36H5.5332V42H-0.466797V36Z" fill="#342C19"/>
<path d="M-0.466797 42H5.5332V48H-0.466797V42Z" fill="#342C19"/>
<path d="M-0.466797 48H5.5332V54H-0.466797V48Z" fill="#342C19"/>
<path d="M-0.466797 54H5.5332V60H-0.466797V54Z" fill="#342C19"/>
<path d="M41.5332 0H35.5332V6H41.5332V0Z" fill="#342C19"/>
<path d="M47.5332 0H41.5332V6H47.5332V0Z" fill="#342C19"/>
<path d="M53.5332 0H47.5332V6H53.5332V0Z" fill="#342C19"/>
<path d="M59.5332 0H53.5332V6H59.5332V0Z" fill="#342C19"/>
<path d="M29.5332 90H35.5332V84H29.5332V90Z" fill="#30261C"/>
<path d="M23.5332 90H29.5332V84H23.5332V90Z" fill="#30261C"/>
<path d="M17.5332 84H23.5332V78H17.5332V84Z" fill="#30261C"/>
<path d="M11.5332 78H17.5332V72H11.5332V78Z" fill="#30261C"/>
<path d="M5.5332 72H11.5332V66H5.5332L5.5332 72Z" fill="#30261C"/>
<path d="M5.5332 66H11.5332V60H5.5332L5.5332 66Z" fill="#30261C"/>
<path d="M65.5332 90H59.5332V84H65.5332V90Z" fill="#30261C"/>
<path d="M71.5332 90H65.5332V84H71.5332V90Z" fill="#30261C"/>
<path d="M77.5332 84H71.5332V78H77.5332V84Z" fill="#30261C"/>
<path d="M83.5332 78H77.5332V72H83.5332V78Z" fill="#30261C"/>
<path d="M89.5332 72H83.5332V66H89.5332V72Z" fill="#30261C"/>
<path d="M89.5332 66H83.5332V60H89.5332V66Z" fill="#30261C"/>
<path d="M53.5332 96H59.5332V90H53.5332V96Z" fill="#30261C"/>
<path d="M47.5332 96H53.5332V90H47.5332V96Z" fill="#30261C"/>
<path d="M41.5332 96H47.5332V90H41.5332V96Z" fill="#30261C"/>
<path d="M35.5332 96H41.5332V90H35.5332V96Z" fill="#30261C"/>
<path d="M11.5332 42V36H5.5332V42H11.5332Z" fill="#EFBB1A"/>
<path d="M11.5332 48V42H5.5332V48H11.5332Z" fill="#EFBB1A"/>
<path d="M83.5332 60V36L11.5332 36V60H83.5332Z" fill="#FDDC4F"/>
<path d="M77.5332 72V24L17.5332 24V72H77.5332Z" fill="#FDDC4F"/>
<path d="M71.5332 78V18L23.5332 18L23.5332 78H71.5332Z" fill="#FDDC4F"/>
<path d="M59.5332 84L59.5332 12L35.5332 12V84H59.5332Z" fill="#FDDC4F"/>
<path d="M11.5332 54V48H5.5332V54H11.5332Z" fill="#EFBB1A"/>
<path d="M11.5332 60V54H5.5332V60H11.5332Z" fill="#EFBB1A"/>
<path d="M89.5332 42V36H83.5332V42H89.5332Z" fill="#EFBB1A"/>
<path d="M89.5332 48V42H83.5332V48H89.5332Z" fill="#EFBB1A"/>
<path d="M89.5332 54V48H83.5332V54H89.5332Z" fill="#EFBB1A"/>
<path d="M89.5332 60V54H83.5332V60H89.5332Z" fill="#EFBB1A"/>
<path d="M65.5332 12H59.5332V18H65.5332V12Z" fill="#EFBB1A"/>
<path d="M71.5332 12H65.5332V18H71.5332V12Z" fill="#EFBB1A"/>
<path d="M83.5332 30V24H77.5332V30H83.5332Z" fill="#EFBB1A"/>
<path d="M83.5332 36V30H77.5332V36H83.5332Z" fill="#EFBB1A"/>
<path d="M17.5332 30V24H11.5332V30H17.5332Z" fill="#EFBB1A"/>
<path d="M17.5332 36V30H11.5332V36H17.5332Z" fill="#EFBB1A"/>
<path d="M77.5332 18H71.5332V24H77.5332V18Z" fill="#EFBB1A"/>
<path d="M29.5332 12H35.5332V18H29.5332V12Z" fill="#EFBB1A"/>
<path d="M23.5332 12H29.5332V18H23.5332V12Z" fill="#EFBB1A"/>
<path d="M17.5332 18H23.5332V24H17.5332V18Z" fill="#EFBB1A"/>
<path d="M41.5332 90H35.5332V84H41.5332V90Z" fill="#EFBB1A"/>
<path d="M47.5332 90H41.5332V84H47.5332V90Z" fill="#EFBB1A"/>
<path d="M53.5332 90H47.5332V84H53.5332V90Z" fill="#EFBB1A"/>
<path d="M59.5332 90H53.5332V84H59.5332V90Z" fill="#EFBB1A"/>
<path d="M65.5332 84H59.5332V78H65.5332V84Z" fill="#EFBB1A"/>
<path d="M71.5332 84H65.5332V78H71.5332V84Z" fill="#EFBB1A"/>
<path d="M83.5332 66L83.5332 72L77.5332 72L77.5332 66L83.5332 66Z" fill="#EFBB1A"/>
<path d="M83.5332 60L83.5332 66L77.5332 66L77.5332 60L83.5332 60Z" fill="#EFBB1A"/>
<path d="M17.5332 66L17.5332 72L11.5332 72L11.5332 66L17.5332 66Z" fill="#EFBB1A"/>
<path d="M17.5332 60L17.5332 66L11.5332 66L11.5332 60L17.5332 60Z" fill="#EFBB1A"/>
<path d="M77.5332 78H71.5332V72H77.5332V78Z" fill="#EFBB1A"/>
<path d="M29.5332 84H35.5332V78H29.5332V84Z" fill="#EFBB1A"/>
<path d="M23.5332 84H29.5332V78H23.5332V84Z" fill="#EFBB1A"/>
<path d="M17.5332 78H23.5332V72H17.5332V78Z" fill="#EFBB1A"/>
<path fill-rule="evenodd" clip-rule="evenodd" d="M23.9186 40.9272V27.3855V24H27.304H37.4604V27.3855H27.304V40.9272H23.9186ZM57.7731 27.3855H37.4605V30.7708H57.7731V27.3855ZM30.6895 64.6254V68.0109H23.9186V64.6254H30.6895ZM64.5438 68.0108H30.6895V71.3963H64.544V68.0109H71.3147V64.6254H74.7001V40.9273H71.3147V64.6254H64.5438V68.0108ZM20.5332 40.9273V64.6254H23.9186V40.9273H20.5332ZM67.9292 24H57.7729V27.3855H67.9292V40.9272H71.3147V27.3855V24H67.9292Z" fill="#2F291E"/>
<path fill-rule="evenodd" clip-rule="evenodd" d="M27.3039 27.3857H37.4603V40.9274H37.4604V30.7712H57.7732V27.3857H67.9295V40.9274H71.3147V64.6256H23.9185V40.9274H27.3039V27.3857ZM64.544 68.0112V64.6257H30.6895V68.0112H64.544Z" fill="#B9A08E"/>
<path d="M34.0749 30.7705H30.6895V37.5414H34.0749V30.7705Z" fill="#685D54"/>
<path d="M30.6895 64.6257V61.2402H23.9186V64.6257H30.6895Z" fill="#685D54"/>
<path d="M71.3149 64.6257V61.2402H64.5441V64.6257H71.3149Z" fill="#685D54"/>
<path d="M64.5444 68.0104V64.625H30.69V68.0104H64.5444Z" fill="#685D54"/>
<path d="M64.5436 30.7705H61.1582V37.5414H64.5436V30.7705Z" fill="#685D54"/>
<path d="M40.8459 40.9268H37.4604V44.3122H40.8459V40.9268Z" fill="#2F291E"/>
<path d="M44.2316 40.9268H40.8462V44.3122H44.2316V40.9268Z" fill="#2F291E"/>
<path d="M47.6169 44.3125H44.2314V47.6979H47.6169V44.3125Z" fill="#2F291E"/>
<path d="M57.7731 44.3125H47.6167V47.6979H57.7731V44.3125Z" fill="#2F291E"/>
<path d="M54.3879 40.9268H51.0024V44.3122H54.3879V40.9268Z" fill="#2F291E"/>
<path d="M40.8458 44.3125H30.6895V47.6979H40.8458V44.3125Z" fill="#2F291E"/>
<path d="M40.8459 47.6982H37.4604V51.0837H40.8459V47.6982Z" fill="#2F291E"/>
<path d="M37.4606 47.6982H34.0752V51.0837H37.4606V47.6982Z" fill="#2F291E"/>
<path d="M37.4606 40.9268H34.0752V44.3122H37.4606V40.9268Z" fill="#2F291E"/>
<path d="M34.0749 40.9268H30.6895V44.3122H34.0749V40.9268Z" fill="#2F291E"/>
<path d="M30.6896 40.9268H27.3042V44.3122H30.6896V40.9268Z" fill="#2F291E"/>
<path d="M30.6896 40.9268H27.3042V44.3122H30.6896V40.9268Z" fill="#2F291E"/>
<path d="M64.5436 40.9268H61.1582V44.3122H64.5436V40.9268Z" fill="#2F291E"/>
<path d="M67.9299 40.9268H64.5444V44.3122H67.9299V40.9268Z" fill="#2F291E"/>
<path d="M64.5436 44.3125H61.1582V47.6979H64.5436V44.3125Z" fill="#2F291E"/>
<path d="M61.1589 47.6982H57.7734V51.0837H61.1589V47.6982Z" fill="#2F291E"/>
<path d="M57.7731 47.6982H54.3877V51.0837H57.7731V47.6982Z" fill="#2F291E"/>
<path d="M61.1589 44.3125H57.7734V47.6979H61.1589V44.3125Z" fill="#2F291E"/>
<path d="M44.2316 44.3125H40.8462V47.6979H44.2316V44.3125Z" fill="#2F291E"/>
<path d="M44.2316 47.6982H40.8462V51.0837H44.2316V47.6982Z" fill="#2F291E"/>
<path d="M51.0023 54.4688H44.2314V57.8542H51.0023V54.4688Z" fill="#2F291E"/>
<path d="M57.7731 61.2402H37.4604V64.6257H57.7731V61.2402Z" fill="#2F291E"/>
<path d="M57.7731 64.625H37.4604V68.0104H57.7731V64.625Z" fill="#2F291E"/>
<path d="M54.388 71.3965H40.8462V78.1674H54.388V71.3965Z" fill="#2F291E"/>
<path d="M51.0023 74.7812H44.2314V81.5521H51.0023V74.7812Z" fill="#2F291E"/>
<path d="M61.1588 57.8545H34.0752V61.2399H61.1588V57.8545Z" fill="#2F291E"/>
<path d="M40.8461 51.084H34.0752V57.8549H40.8461V51.084Z" fill="#2F291E"/>
<path d="M61.1586 51.084H54.3877V57.8549H61.1586V51.084Z" fill="#2F291E"/>
<path d="M54.3879 47.6982H51.0024V51.0837H54.3879V47.6982Z" fill="#2F291E"/>
<path d="M61.1586 40.9268H54.3877V44.3122H61.1586V40.9268Z" fill="#2F291E"/>
<path d="M40.8462 54.4694V51.084H34.0753V54.4694H40.8462Z" fill="#685D54"/>
<path d="M61.1582 54.4694V51.084H54.3873V54.4694H61.1582Z" fill="#685D54"/>
</g>
<defs>
<clipPath id="clip0_2523_5077">
<rect width="96" height="96" fill="white" transform="translate(-0.466797)"/>
</clipPath>
</defs>
</svg>
