<svg width="96" height="96" viewBox="0 0 96 96" fill="none" xmlns="http://www.w3.org/2000/svg">
<circle cx="48" cy="48" r="48" fill="#313131"/>
<path opacity="0.22" d="M74.6624 28.9726C74.6554 28.9585 74.6483 28.9515 74.6483 28.9374C74.515 28.6844 74.3675 28.4313 74.2131 28.1853C74.185 28.1432 74.157 28.101 74.1359 28.0588C73.9815 27.8128 73.827 27.5739 73.6586 27.3349L73.6445 27.2646C73.6094 27.2365 73.5673 27.2084 73.5322 27.1803C66.0911 16.9536 47.3201 17.7479 31.4692 29.0007C30.0793 29.9917 28.7596 31.0249 27.503 32.1003C27.4398 32.1565 27.3696 32.2127 27.3065 32.269C27.1731 32.3885 27.0397 32.5009 26.9063 32.6204C26.8291 32.6907 26.7519 32.761 26.6747 32.8242C26.5483 32.9367 26.422 33.0491 26.2956 33.1686C26.2114 33.2459 26.1341 33.3162 26.0499 33.3935C25.9306 33.506 25.8042 33.6185 25.6849 33.7379C25.6006 33.8153 25.5234 33.8926 25.4462 33.9699C25.3269 34.0823 25.2075 34.1948 25.0882 34.3143C25.011 34.3916 24.9267 34.4689 24.8495 34.5462C24.7372 34.6587 24.6179 34.7782 24.5055 34.8906C24.4283 34.968 24.3511 35.0523 24.2669 35.1296C24.1545 35.2421 24.0422 35.3616 23.9299 35.474C23.8527 35.5513 23.7755 35.6286 23.7053 35.713C23.593 35.8325 23.4806 35.9449 23.3753 36.0644C23.3051 36.1417 23.2279 36.219 23.1577 36.2964C23.0454 36.4158 22.9401 36.5353 22.8278 36.6548C22.7576 36.7321 22.6944 36.8024 22.6242 36.8797C22.5119 37.0062 22.3996 37.1328 22.2943 37.2522C22.2381 37.3155 22.182 37.3858 22.1258 37.449C22.0065 37.5826 21.8871 37.7232 21.7748 37.8567C21.7608 37.8708 21.7538 37.8848 21.7397 37.8989C21.4238 38.2714 21.1149 38.6509 20.8201 39.0305L20.8131 39.0375C20.7008 39.1781 20.5955 39.3187 20.4902 39.4592C20.441 39.5225 20.3849 39.5928 20.3357 39.656C20.2375 39.7825 20.1462 39.9091 20.0479 40.0356C19.9918 40.1129 19.9286 40.1972 19.8724 40.2745C19.7812 40.394 19.6899 40.5205 19.6057 40.6471C19.5425 40.7314 19.4863 40.8158 19.4232 40.9001C19.3389 41.0196 19.2547 41.1461 19.1704 41.2656C19.1073 41.3499 19.0511 41.4413 18.9879 41.5256C18.9037 41.6451 18.8265 41.7646 18.7422 41.8841C18.6791 41.9755 18.6229 42.0668 18.5667 42.1512C18.4895 42.2707 18.4123 42.3902 18.3351 42.5096C18.2789 42.601 18.2158 42.6924 18.1596 42.7838C18.0824 42.9032 18.0122 43.0227 17.935 43.1422C17.8788 43.2336 17.8226 43.325 17.7665 43.4163C17.6963 43.5358 17.6191 43.6553 17.5489 43.7748C17.4927 43.8662 17.4436 43.9575 17.3874 44.0489C17.3172 44.1684 17.247 44.2879 17.1768 44.4074C17.1277 44.4987 17.0785 44.5901 17.0224 44.6815C16.9522 44.801 16.889 44.9275 16.8188 45.047C16.7697 45.1313 16.7275 45.2227 16.6784 45.307C16.6082 45.4335 16.545 45.5601 16.4818 45.6866C16.4467 45.7498 16.4116 45.8201 16.3836 45.8834C16.2432 46.1645 16.1028 46.4386 15.9694 46.7198C15.9343 46.7901 15.8992 46.8603 15.8641 46.9377C15.8079 47.0571 15.7518 47.1766 15.6956 47.2961C15.6535 47.3875 15.6114 47.4859 15.5693 47.5773C15.5201 47.6897 15.471 47.8092 15.4148 47.9217C15.3727 48.0201 15.3306 48.1185 15.2885 48.2169C15.2393 48.3293 15.1972 48.4418 15.1481 48.5542C15.106 48.6526 15.0638 48.7581 15.0217 48.8565C14.9796 48.9689 14.9305 49.0814 14.8883 49.1938C14.8462 49.2922 14.8111 49.3977 14.769 49.4961C14.7269 49.6085 14.6848 49.721 14.6497 49.8264C14.6146 49.9318 14.5724 50.0302 14.5373 50.1357C14.4952 50.2481 14.4601 50.3536 14.425 50.466C14.3899 50.5714 14.3548 50.6699 14.3197 50.7753C14.2846 50.8807 14.2495 50.9932 14.2144 51.0986C14.1793 51.204 14.1513 51.3095 14.1162 51.4149C14.0811 51.5203 14.053 51.6328 14.0179 51.7382C13.9898 51.8436 13.9547 51.9491 13.9266 52.0545C13.8985 52.1599 13.8705 52.2653 13.8424 52.3708C13.8143 52.4762 13.7862 52.5887 13.7581 52.6941C13.7301 52.7995 13.702 52.8979 13.6809 53.0033C13.6528 53.1158 13.6318 53.2283 13.6037 53.3407C13.5826 53.4391 13.5616 53.5375 13.5405 53.6359C13.5124 53.7765 13.4844 53.91 13.4563 54.0436C13.4282 54.1771 13.4072 54.3107 13.3791 54.4442C13.351 54.5848 13.3299 54.7324 13.3019 54.873C13.2878 54.9643 13.2738 55.0557 13.2597 55.1471C13.2387 55.2666 13.2246 55.379 13.2106 55.4985C13.1966 55.5899 13.1895 55.6883 13.1755 55.7796C13.1615 55.8921 13.1474 56.0046 13.1334 56.117C13.1193 56.2154 13.1123 56.3068 13.1053 56.4052C13.0913 56.5176 13.0842 56.6231 13.0772 56.7355C13.0702 56.8339 13.0632 56.9253 13.0562 57.0237C13.0491 57.1291 13.0421 57.2416 13.0351 57.347C13.0281 57.4454 13.0281 57.5368 13.0211 57.6352C13.014 57.7406 13.014 57.8531 13.007 57.9585C13.007 58.0499 13 58.1483 13 58.2397C13 58.3451 13 58.4575 13 58.563C13 58.6543 13 58.7527 13 58.8441C13 58.9495 13.007 59.055 13.007 59.1674C13.007 59.2588 13.014 59.3502 13.014 59.4415C13.0211 59.547 13.0281 59.6594 13.0351 59.7649C13.0421 59.8562 13.0421 59.9406 13.0491 60.032C13.0562 60.1444 13.0702 60.2569 13.0772 60.3693C13.0842 60.4537 13.0913 60.538 13.0983 60.6153C13.1123 60.7348 13.1264 60.8543 13.1404 60.9808C13.1474 61.0511 13.1544 61.1284 13.1685 61.1987C13.1895 61.3674 13.2176 61.5431 13.2457 61.7118C13.2527 61.7469 13.2597 61.7821 13.2668 61.8172C13.2948 61.9929 13.3299 62.1616 13.365 62.3373C13.3791 62.4076 13.3931 62.4709 13.4072 62.5412C13.4352 62.6606 13.4563 62.7801 13.4914 62.8996C13.5124 62.9769 13.5335 63.0542 13.5475 63.1316C13.5756 63.237 13.6037 63.3494 13.6318 63.4549C13.6528 63.5322 13.6809 63.6095 13.702 63.6939C13.7301 63.7993 13.7652 63.8977 13.7932 64.0031C13.8213 64.0804 13.8424 64.1648 13.8705 64.2421C13.9056 64.3405 13.9407 64.4459 13.9758 64.5443C14.0038 64.6216 14.0319 64.706 14.06 64.7833C14.0951 64.8817 14.1372 64.9801 14.1723 65.0785C14.2004 65.1558 14.2355 65.2331 14.2706 65.3104C14.3127 65.4088 14.3548 65.5072 14.397 65.5986C14.432 65.6759 14.4671 65.7532 14.5022 65.8305C14.5444 65.9289 14.5935 66.0203 14.6356 66.1187C14.6707 66.196 14.7058 66.2663 14.7479 66.3436C14.7971 66.442 14.8462 66.5334 14.8954 66.6318C14.9305 66.7021 14.9726 66.7724 15.0077 66.8427C15.0638 66.9411 15.12 67.0395 15.1762 67.1379C15.2113 67.2011 15.2534 67.2714 15.2885 67.3347C15.3516 67.4401 15.4218 67.5455 15.485 67.658C15.5201 67.7142 15.5552 67.7704 15.5903 67.8196C15.6956 67.9743 15.8009 68.1289 15.9062 68.2835C15.9062 68.2835 15.9062 68.2906 15.9132 68.2906L15.9273 68.3608C15.9624 68.389 16.0045 68.4171 16.0396 68.4452C20.7148 74.8764 29.8687 76.9498 39.9633 74.8061C40.0054 74.799 40.0405 74.792 40.0826 74.778C40.8337 74.6163 41.5848 74.4336 42.343 74.2227C42.3851 74.2086 42.4272 74.2016 42.4764 74.1876C42.8554 74.0821 43.2345 73.9697 43.6206 73.8572C43.6276 73.8572 43.6346 73.8502 43.6417 73.8502C44.0137 73.7377 44.3928 73.6112 44.7648 73.4917C44.807 73.4777 44.8421 73.4636 44.8842 73.4496C45.2562 73.323 45.6353 73.1895 46.0073 73.0559C46.0495 73.0419 46.0916 73.0208 46.1337 73.0068C46.4987 72.8732 46.8568 72.7326 47.2218 72.5921C47.2428 72.585 47.2639 72.571 47.292 72.5639C47.664 72.4163 48.0361 72.2617 48.4081 72.1001C48.4713 72.0719 48.5345 72.0438 48.5977 72.0227C49.3348 71.6994 50.0789 71.355 50.8159 70.9966C50.8861 70.9614 50.9563 70.9263 51.0265 70.8911C51.3916 70.7084 51.7496 70.5257 52.1146 70.3359C52.1567 70.3148 52.1989 70.2937 52.234 70.2726C52.5639 70.0969 52.8938 69.9142 53.2308 69.7314C53.294 69.6963 53.3642 69.6541 53.4273 69.619C53.7783 69.4222 54.1293 69.2113 54.4873 69.0075C54.5575 68.9653 54.6207 68.9231 54.6909 68.881C55.0138 68.6842 55.3297 68.4874 55.6526 68.2906C55.7018 68.2624 55.7509 68.2273 55.8 68.1992C56.151 67.9813 56.495 67.7494 56.839 67.5174C56.9162 67.4682 56.9934 67.412 57.0777 67.3558C57.4286 67.1168 57.7796 66.8778 58.1306 66.6318C58.8747 66.1047 59.6048 65.5564 60.3138 65.0012C61.0228 64.4459 61.7108 63.8766 62.3706 63.2932C62.8129 62.9066 63.2481 62.513 63.6763 62.1194C64.5257 61.3252 65.34 60.5169 66.1122 59.6946C66.4983 59.2799 66.8774 58.8652 67.2424 58.4505C69.6292 55.7234 71.5947 52.8628 73.104 49.974C73.3356 49.5312 73.5533 49.0884 73.7638 48.6386C73.9744 48.1958 74.171 47.746 74.3605 47.3031C74.5501 46.8603 74.7256 46.4105 74.887 45.9677C75.0485 45.5249 75.2029 45.0821 75.3433 44.6393C77.1615 38.9532 77.0491 33.4357 74.6624 28.9726ZM26.1341 71.0598C43.3538 70.9895 70.1065 56.2716 59.2328 37.6459L59.303 37.9551C58.4325 53.4813 38.6997 64.0804 30.3461 57.9866C19.4653 39.3538 46.239 24.6289 63.4587 24.5726C46.239 24.6429 19.4863 39.3608 30.3601 57.9866L30.2899 57.6774C31.1604 42.1512 50.8932 31.5521 59.2468 37.6459C70.1276 56.2787 43.3538 71.0036 26.1341 71.0598Z" fill="url(#paint0_linear)"/>
<path d="M63.4729 37.6457C76.9861 60.7908 32.3819 77.9125 20.1884 68.3606L20.1744 68.2904C12.8176 57.8951 19.7743 40.3025 35.7093 28.9934C51.6444 17.6844 70.5278 16.9394 77.8846 27.3347L77.8706 27.2644C65.6771 17.7125 21.0729 34.8342 34.5862 57.9794C42.9468 64.0802 62.6094 53.1718 63.4729 37.6457Z" fill="url(#paint1_linear)"/>
<path d="M34.6071 57.9863C21.0939 34.8411 65.698 17.7194 77.8915 27.2713L77.9055 27.3416C85.2623 37.7369 78.3057 55.3295 62.3706 66.6385C46.4355 77.9476 27.5521 78.6926 20.1953 68.2973L20.2094 68.3676C32.4028 77.9195 77.007 60.7978 63.4938 37.6526C55.1331 31.5517 35.4705 42.4531 34.6071 57.9863Z" fill="url(#paint2_linear)"/>
<path d="M77.9055 27.3348V27.3207L77.8915 27.3066C76.0312 52.8415 62.4267 66.7652 43.1011 75.0308C49.3979 73.8852 56.1089 71.0737 62.3776 66.6317C78.3057 55.3226 85.2623 37.7301 77.9055 27.3348Z" fill="url(#paint3_linear)"/>
<path opacity="0.2" d="M79.6885 30.6592C79.2322 29.4854 78.6426 28.3749 77.9055 27.3347L77.8914 27.2644C77.028 26.5896 76.0031 26.0484 74.8448 25.6267C78.5022 29.2675 74.915 43.9925 73.9463 45.5247L79.6885 30.6592Z" fill="white"/>
<path opacity="0.11" d="M63.4729 37.6457C76.9861 60.7908 32.3819 77.9125 20.1884 68.3606L20.1744 68.2904C12.8176 57.8951 19.7743 40.3025 35.7093 28.9934C51.6444 17.6844 70.5278 16.9394 77.8846 27.3347L77.8706 27.2644C65.6771 17.7125 21.0729 34.8342 34.5862 57.9794C42.9468 64.0802 62.6094 53.1718 63.4729 37.6457Z" fill="url(#paint4_linear)"/>
<path opacity="0.07" d="M32.1922 31.7136C18.7913 42.9734 13.386 58.7035 20.1742 68.2905L20.1812 68.3326H20.1883C18.5807 45.2507 32.0939 31.812 32.1922 31.7136Z" fill="url(#paint5_linear)"/>
<path opacity="0.2" d="M30.0303 73.7023L46.3304 73.1189C46.4988 73.14 42.7994 74.9744 42.6239 75.0236C41.1076 76.0217 31.4342 74.8831 30.0303 73.7023Z" fill="url(#paint6_linear)"/>
<defs>
<linearGradient id="paint0_linear" x1="12.999" y1="47.8155" x2="76.5917" y2="47.8155" gradientUnits="userSpaceOnUse">
<stop stop-color="#3170D2"/>
<stop offset="0.316" stop-color="#6A1BF6"/>
<stop offset="0.6632" stop-color="#B046E8"/>
<stop offset="1" stop-color="#DF7ECC"/>
</linearGradient>
<linearGradient id="paint1_linear" x1="17.2424" y1="45.5327" x2="77.8879" y2="45.5327" gradientUnits="userSpaceOnUse">
<stop stop-color="#5FB9E7"/>
<stop offset="1" stop-color="#3170D2"/>
</linearGradient>
<linearGradient id="paint2_linear" x1="20.1923" y1="50.0986" x2="80.8377" y2="50.0986" gradientUnits="userSpaceOnUse">
<stop stop-color="#3170D2"/>
<stop offset="0.6603" stop-color="#B44BE5"/>
<stop offset="0.6632" stop-color="#B046E8"/>
<stop offset="1" stop-color="#DF7ECC"/>
</linearGradient>
<linearGradient id="paint3_linear" x1="43.0958" y1="51.1732" x2="80.8377" y2="51.1732" gradientUnits="userSpaceOnUse">
<stop stop-color="#3170D2"/>
<stop offset="0.316" stop-color="#6A1BF6"/>
<stop offset="0.6632" stop-color="#B046E8"/>
<stop offset="1" stop-color="#DF7ECC"/>
</linearGradient>
<linearGradient id="paint4_linear" x1="17.2424" y1="45.5327" x2="77.8879" y2="45.5327" gradientUnits="userSpaceOnUse">
<stop stop-color="#3170D2"/>
<stop offset="0.316" stop-color="#6A1BF6"/>
<stop offset="0.6632" stop-color="#B046E8"/>
<stop offset="1" stop-color="#DF7ECC"/>
</linearGradient>
<linearGradient id="paint5_linear" x1="17.2424" y1="50.0262" x2="32.1928" y2="50.0262" gradientUnits="userSpaceOnUse">
<stop stop-color="#3170D2"/>
<stop offset="0.316" stop-color="#6A1BF6"/>
<stop offset="0.6632" stop-color="#B046E8"/>
<stop offset="1" stop-color="#DF7ECC"/>
</linearGradient>
<linearGradient id="paint6_linear" x1="49.2655" y1="69.8276" x2="37.2628" y2="74.0361" gradientUnits="userSpaceOnUse">
<stop stop-color="#5FB9E7"/>
<stop offset="1" stop-color="#3170D2"/>
</linearGradient>
</defs>
</svg>
