<svg width="96" height="96" viewBox="0 0 96 96" fill="none" xmlns="http://www.w3.org/2000/svg">
<path d="M48 96C74.5097 96 96 74.5097 96 48C96 21.4903 74.5097 0 48 0C21.4903 0 0 21.4903 0 48C0 74.5097 21.4903 96 48 96Z" fill="#E1AA4C"/>
<path d="M26.9998 24.2002C27.2998 24.4002 27.5998 24.4002 27.9998 24.4002C28.1998 24.4002 28.3998 24.4002 28.5998 24.3002L47.9998 18.5002L67.3998 24.4002C67.8998 24.6002 68.4998 24.5002 68.9998 24.2002C69.4998 23.9002 69.7998 23.5002 69.9998 23.0002C70.2998 21.9002 69.6998 20.8002 68.5998 20.4002L47.9998 14.2002L27.3998 20.4002C26.2998 20.7002 25.6998 21.9002 25.9998 23.0002C26.1998 23.5002 26.4998 24.0002 26.9998 24.2002Z" fill="white"/>
<path d="M78.1999 24.7C77.9999 23.8 77.2999 23 76.2999 23C75.4999 22.9 74.6999 23.4 74.2999 24.1L62.5999 46.8H33.3999L21.7999 24.1C21.3999 23.3 20.5999 22.9 19.7999 23C18.7999 23.1 18.0999 23.8 17.8999 24.7C17.6999 25.8 16.0999 35.7 19.0999 47.4C21.6999 57.9 28.6999 72.4 47.1999 81.4L48.0999 81.8L48.9999 81.4C67.3999 72.4 74.3999 58 77.0999 47.4C79.8999 35.7 78.2999 25.8 78.1999 24.7ZM42.9999 74.4C32.6999 67.7 25.8999 58.3 22.9999 46.4C21.5999 41 21.2999 36 21.3999 32.2L30.3999 49.7L42.9999 74.4ZM60.4999 50.9L47.9999 75.1L35.4999 50.9H60.4999ZM74.6999 32.3C74.6999 36.1 74.3999 41.1 72.9999 46.5C69.9999 58.4 63.2999 67.8 52.8999 74.5L65.6999 49.8L74.6999 32.3Z" fill="white"/>
</svg>
