<svg width="96" height="96" viewBox="0 0 96 96" fill="none" xmlns="http://www.w3.org/2000/svg">
<circle cx="48" cy="48" r="48" fill="url(#paint0_linear)"/>
<path d="M72.4433 27.7649C70.0368 25.3586 66.7743 24.0047 63.3711 24C59.9664 24.0018 56.7019 25.3557 54.2952 27.7639C51.8885 30.1721 50.5368 33.4375 50.5371 36.8422C50.534 38.9885 51.0751 41.1006 52.1099 42.9811C53.7123 41.6762 55.5359 40.6693 57.4939 40.0082C56.9624 39.0361 56.6875 37.9446 56.6952 36.8367C56.6825 35.9519 56.8458 35.0734 57.1757 34.2522C57.5055 33.4311 57.9953 32.6837 58.6165 32.0535C59.2378 31.4233 59.9781 30.9228 60.7944 30.5813C61.6108 30.2397 62.4869 30.0638 63.3718 30.0638C64.2567 30.0638 65.1328 30.2397 65.9491 30.5813C66.7655 30.9228 67.5058 31.4233 68.127 32.0535C68.7483 32.6837 69.238 33.4311 69.5679 34.2522C69.8977 35.0734 70.061 35.9519 70.0484 36.8367C70.0453 37.9412 69.7721 39.0281 69.2524 40.0027C71.2104 40.6638 73.034 41.6707 74.6364 42.9756C75.6712 41.0951 76.2123 38.9831 76.2092 36.8367C76.2041 33.4335 74.8499 30.1712 72.4433 27.7649Z" fill="black"/>
<path d="M22.9172 68.2665C25.3236 70.6729 28.5859 72.0268 31.989 72.0315C33.6754 72.0322 35.3455 71.7008 36.9039 71.0561C38.4622 70.4113 39.8783 69.466 41.0714 68.274C42.2644 67.082 43.2109 65.6667 43.857 64.1089C44.503 62.5511 44.8359 60.8813 44.8366 59.1948H38.6717C38.6717 60.0717 38.499 60.94 38.1634 61.7501C37.8279 62.5602 37.336 63.2963 36.716 63.9164C36.0959 64.5364 35.3598 65.0282 34.5497 65.3638C33.7396 65.6994 32.8713 65.8721 31.9944 65.8721C31.1176 65.8721 30.2493 65.6994 29.4392 65.3638C28.629 65.0282 27.8929 64.5364 27.2729 63.9164C26.6528 63.2963 26.161 62.5602 25.8254 61.7501C25.4899 60.94 25.3172 60.0717 25.3172 59.1948H19.1522C19.157 62.5979 20.5109 65.8602 22.9172 68.2665Z" fill="black"/>
<path fill-rule="evenodd" clip-rule="evenodd" d="M23.6569 51.4676C26.1225 53.118 29.022 54.0001 31.989 54.0026C33.9591 54.0042 35.9102 53.6177 37.731 52.8653C39.5517 52.1128 41.2064 51.009 42.6006 49.617C43.9947 48.225 45.101 46.5721 45.8563 44.7525C46.6116 42.9329 47.0011 40.9824 47.0026 39.0122C47.0047 36.0453 46.1271 33.1444 44.4806 30.6763C42.8341 28.2082 40.4927 26.2837 37.7525 25.1462C35.0123 24.0088 31.9963 23.7094 29.0859 24.286C26.1756 24.8626 23.5016 26.2893 21.402 28.3856C19.3025 30.4818 17.8717 33.1536 17.2906 36.0631C16.7095 38.9725 17.0041 41.989 18.1373 44.731C19.2705 47.4729 21.1914 49.8173 23.6569 51.4676ZM39.3498 43.9306C40.3226 42.4748 40.8418 40.7632 40.8418 39.0122C40.8381 36.6654 39.9043 34.4158 38.2448 32.7564C36.5854 31.0969 34.3358 30.1631 31.989 30.1594C30.238 30.1594 28.5264 30.6786 27.0706 31.6514C25.6148 32.6242 24.4801 34.0068 23.81 35.6244C23.14 37.2421 22.9647 39.0221 23.3062 40.7393C23.6478 42.4566 24.491 44.034 25.7291 45.2721C26.9672 46.5102 28.5446 47.3534 30.2619 47.695C31.9791 48.0365 33.7591 47.8612 35.3768 47.1912C36.9944 46.5211 38.377 45.3864 39.3498 43.9306Z" fill="black"/>
<path fill-rule="evenodd" clip-rule="evenodd" d="M55.0319 69.5077C57.5008 71.1554 60.4029 72.0337 63.3711 72.0315C67.3448 72.0239 71.1536 70.442 73.9634 67.6321C76.7733 64.8223 78.3552 61.0135 78.3628 57.0398C78.365 54.0716 77.4866 51.1695 75.839 48.7007C74.1913 46.2318 71.8483 44.3072 69.1065 43.1703C66.3646 42.0334 63.3472 41.7354 60.436 42.3139C57.5247 42.8925 54.8505 44.3216 52.7517 46.4204C50.6528 48.5192 49.2238 51.1934 48.6452 54.1047C48.0667 57.0159 48.3647 60.0334 49.5016 62.7752C50.6385 65.517 52.5631 67.86 55.0319 69.5077ZM70.7319 61.9582C71.7047 60.5023 72.2239 58.7907 72.2239 57.0398C72.2246 55.877 71.9961 54.7255 71.5515 53.6511C71.1069 52.5767 70.4548 51.6005 69.6326 50.7783C68.8104 49.9561 67.8342 49.3041 66.7598 48.8594C65.6854 48.4148 64.5339 48.1863 63.3711 48.187C61.6202 48.187 59.9086 48.7062 58.4527 49.679C56.9969 50.6517 55.8622 52.0344 55.1922 53.652C54.5221 55.2696 54.3468 57.0496 54.6884 58.7669C55.03 60.4842 55.8731 62.0616 57.1112 63.2997C58.3493 64.5378 59.9267 65.3809 61.644 65.7225C63.3613 66.0641 65.1413 65.8888 66.7589 65.2188C68.3766 64.5487 69.7592 63.414 70.7319 61.9582Z" fill="black"/>
<defs>
<linearGradient id="paint0_linear" x1="82.5" y1="14" x2="13" y2="80.5" gradientUnits="userSpaceOnUse">
<stop stop-color="#F1D961"/>
<stop offset="1" stop-color="#CDA146"/>
</linearGradient>
</defs>
</svg>
