<svg width="96" height="96" viewBox="0 0 96 96" fill="none" xmlns="http://www.w3.org/2000/svg">
<circle cx="48" cy="48" r="48" fill="#05001B"/>
<path d="M30.8091 27.4422C33.4651 27.4422 35.6182 25.2891 35.6182 22.6331C35.6182 19.9771 33.4651 17.824 30.8091 17.824C28.1531 17.824 26 19.9771 26 22.6331C26 25.2891 28.1531 27.4422 30.8091 27.4422Z" fill="white"/>
<path d="M67.1726 27.7795C66.9195 27.7795 66.6664 27.6951 66.4976 27.6108C66.3289 27.5264 62.1104 25.2484 60.2542 24.1516C59.6637 23.8141 59.3262 23.1391 59.3262 22.3798C59.3262 21.7048 59.5793 20.9455 60.3386 20.5236C63.0385 19.005 66.4976 17.1488 66.4976 17.1488C67.1726 16.8113 68.0163 17.0645 68.4382 17.7394C68.7756 18.4144 68.5225 19.2581 67.8476 19.6799C67.8476 19.6799 65.3165 21.0299 62.8697 22.3798C64.8946 23.561 67.8476 25.0796 67.8476 25.164C68.5225 25.5015 68.7756 26.4296 68.4382 27.1045C68.185 27.5264 67.6788 27.7795 67.1726 27.7795Z" fill="white"/>
<path d="M39.668 67.1805C37.7275 67.1805 35.8714 65.9993 35.2808 64.1432L27.6875 39.8446C27.0125 37.5666 28.3624 35.2886 30.8092 34.6136C33.2559 33.9387 35.7026 35.2886 36.462 37.4822L44.0553 61.7808C44.7302 64.0588 43.3803 66.3368 40.9336 67.0118C40.5117 67.1805 40.0899 67.1805 39.668 67.1805Z" fill="#C89613"/>
<path d="M39.668 67.2647C39.1618 67.2647 38.7399 67.1803 38.2337 67.096C35.8714 66.3366 34.5214 63.9743 35.2808 61.7807L43.7178 37.482C44.4771 35.2884 47.0926 34.0229 49.455 34.7822C51.8173 35.5415 53.1672 37.9039 52.4079 40.0975L43.9709 64.3961C43.3803 66.0835 41.5242 67.2647 39.668 67.2647Z" fill="#C89613"/>
<path d="M57.5544 67.1805C55.6983 67.1805 53.9265 66.0837 53.2515 64.312L44.1395 40.0133C43.2958 37.8197 44.5614 35.373 46.9238 34.6136C49.2861 33.8543 51.9016 35.0355 52.7453 37.2291L61.8573 61.5278C62.701 63.7214 61.4354 66.1681 59.0731 66.9274C58.5669 67.1805 58.0606 67.1805 57.5544 67.1805Z" fill="#C89613"/>
<path d="M57.5544 67.2649C57.2169 67.2649 56.7951 67.2648 56.4576 67.1805C54.0109 66.5899 52.4922 64.3119 53.0828 62.0339L59.4106 37.7353C60.0012 35.4573 62.4479 34.1074 64.8946 34.6136C67.3414 35.2042 68.86 37.4822 68.2694 39.7602L61.9417 64.0588C61.4354 65.915 59.5793 67.2649 57.5544 67.2649Z" fill="#C89613"/>
<path d="M47.0927 81.7766C36.2933 81.7766 29.7124 76.2925 29.2906 75.955C28.3625 75.1957 28.2781 73.8458 29.0375 72.9177C29.7968 71.9896 31.1467 71.9052 32.0748 72.6646C32.581 73.0864 45.2365 83.464 64.3042 72.4115C65.3166 71.8209 66.6666 72.1584 67.2572 73.1708C67.8477 74.1832 67.5103 75.5332 66.4978 76.1238C59.0732 80.3423 52.5767 81.7766 47.0927 81.7766Z" fill="white"/>
</svg>
