<svg width="96" height="96" viewBox="0 0 96 96" fill="none" xmlns="http://www.w3.org/2000/svg">
<path d="M48 96C74.51 96 96 74.5097 96 48C96 21.4903 74.51 0 48 0C21.49 0 0 21.4903 0 48C0 74.5097 21.49 96 48 96Z" fill="#353030"/>
<path fill-rule="evenodd" clip-rule="evenodd" d="M44.4817 85.6681H51.8598C45.2635 75.0428 38.6689 64.4148 32.0819 53.786C31.0887 52.1804 30.7986 50.6891 31.5435 48.7887C31.8973 47.8865 32.6497 47.029 33.3779 46.3864C33.1626 46.0951 32.9564 45.7971 32.7603 45.4923C31.703 43.8513 30.9292 42.03 30.4751 40.093C23.7369 43.3594 22.22 49.8896 26.1013 56.3899L44.4817 85.6681ZM41.6723 62.3392C45.9726 62.8318 49.9641 62.811 54.2679 62.345C59.467 61.783 64.1597 60.5207 67.0639 58.6123C70.0796 56.6319 72.1084 53.4812 72.1084 49.8033C72.1116 45.548 69.4915 42.2338 65.925 40.3346C65.6137 41.9154 65.0895 43.4056 64.3655 44.78C63.981 45.5109 63.5417 46.2053 63.0485 46.8596C63.8685 47.6963 64.5942 48.7632 64.5942 49.8041C64.5942 51.4945 62.6534 53.3582 61.2374 54.1653C59.6019 55.0927 57.1834 55.6837 55.314 55.8822C52.8839 56.1457 50.4133 56.2551 47.9701 56.3021C46.6729 56.3021 45.3089 56.2297 44.0117 56.1553C41.8387 56.031 39.4675 55.9062 37.3634 55.3279L41.6723 62.3392Z" fill="white"/>
<path fill-rule="evenodd" clip-rule="evenodd" d="M48.1877 8C54.8143 18.8145 52.4896 25.2876 51.5923 29.3354C50.1985 35.6231 58.1538 37.7137 58.7376 30.3849C58.8737 28.6757 58.7738 26.6872 58.6733 24.8151C66.851 37.9301 61.5082 49.7746 48.1877 49.7751C37.0057 49.7757 30.7167 39.5517 35.1416 29.3695C34.6611 34.7575 38.4504 36.4888 37.8278 34.0296C37.6695 33.4029 37.3219 32.3263 37.1031 30.1471C36.051 19.6842 48.922 17.0115 48.1877 8Z" fill="#EA7437"/>
</svg>
