<svg width="96" height="96" viewBox="0 0 96 96" fill="none" xmlns="http://www.w3.org/2000/svg">
<circle cx="48" cy="48" r="48" fill="#050A5A"/>
<path d="M34.9917 37.5675C39.2798 37.5675 42.7559 34.0913 42.7559 29.8033C42.7559 25.5152 39.2798 22.0391 34.9917 22.0391C30.7037 22.0391 27.2275 25.5152 27.2275 29.8033C27.2275 34.0913 30.7037 37.5675 34.9917 37.5675Z" fill="white"/>
<path d="M70.5505 37.5672H59.797C58.4771 37.5672 57.3901 36.4802 57.3901 35.1603V24.4069C57.3901 23.087 58.4771 22 59.797 22H70.5505C71.8704 22 72.9574 23.087 72.9574 24.4069V35.1603C72.9574 36.5191 71.8704 37.5672 70.5505 37.5672Z" fill="#00FFB9"/>
<path d="M42.7547 44.9043H42.2889H30.4873C28.6627 44.9043 27.1875 46.3795 27.1875 48.2041V60.4715V72.7001C27.1875 74.5247 28.6627 75.9999 30.4873 75.9999H39.4549C41.2795 75.9999 42.7547 74.5247 42.7547 72.7001V63.7713C42.7547 61.9467 44.2299 60.4715 46.0545 60.4715H54.5563C56.3809 60.4715 57.8561 58.9963 57.8561 57.1717V48.2041C57.8561 46.3795 56.3809 44.9043 54.5563 44.9043H42.7547Z" fill="#00DAFF"/>
</svg>
