<svg xmlns="http://www.w3.org/2000/svg" width="96" height="96" fill="none" viewBox="0 0 96 96"><circle cx="48" cy="48" r="48" fill="#fff"/><path fill="url(#paint0_linear)" d="M85.6233 50.1059L80.5953 45.4787L74.895 51.7203C73.5666 53.1748 71.6334 53.9166 69.677 53.7227L66.3714 53.3947C65.0671 53.2653 63.7784 53.7599 62.8928 54.7297L43.0447 76.4624L48.0726 81.0896L70.7449 56.2644C71.7668 55.1454 73.3126 54.6707 74.7833 55.0239L77.6067 55.7022C79.0773 56.0555 80.6231 55.5808 81.645 54.4618L85.6233 50.1059Z"/><path fill="url(#paint1_linear)" d="M74.8156 40.1598L69.7877 35.5326L58.9658 47.3822C57.6373 48.8368 55.7041 49.5787 53.7478 49.3846L50.4422 49.0566C49.1379 48.9273 47.8491 49.4219 46.9636 50.3916L32.2371 66.5164L37.265 71.1436L54.8157 51.9263C55.8376 50.8074 57.3834 50.3326 58.854 50.686L61.6774 51.3643C63.1481 51.7176 64.6939 51.2427 65.7158 50.1238L74.8156 40.1598Z"/><path fill="url(#paint2_linear)" d="M64.0082 30.2138L58.9803 25.5866L43.0366 43.0442C41.7082 44.4989 39.775 45.2407 37.8188 45.0466L34.513 44.7187C33.2089 44.5894 31.9201 45.0838 31.0344 46.0536L21.4297 56.5705L26.4576 61.1975L38.8867 47.5883C39.9084 46.4695 41.4544 45.9946 42.9249 46.3479L45.7484 47.0262C47.2189 47.3796 48.7649 46.9047 49.7866 45.7859L64.0082 30.2138Z"/><path fill="url(#paint3_linear)" d="M53.2009 20.2678L48.1729 15.6406L27.1077 38.7063C25.7792 40.1608 23.846 40.9028 21.8897 40.7087L18.584 40.3808C17.2798 40.2513 15.991 40.7459 15.1054 41.7157L10.6223 46.6245L15.6503 51.2515L22.9576 43.2504C23.9794 42.1316 25.5253 41.6567 26.9959 42.01L29.8193 42.6883C31.29 43.0415 32.8358 42.5668 33.8577 41.448L53.2009 20.2678Z"/><defs><linearGradient id="paint0_linear" x1="80.595" x2="47.938" y1="45.479" y2="80.965" gradientUnits="userSpaceOnUse"><stop offset=".21" stop-color="#02C86A"/><stop offset=".336" stop-color="#14EA85"/></linearGradient><linearGradient id="paint1_linear" x1="69.788" x2="37.13" y1="35.533" y2="71.019" gradientUnits="userSpaceOnUse"><stop offset=".322" stop-color="#02C86A"/><stop offset=".506" stop-color="#11ED85"/></linearGradient><linearGradient id="paint2_linear" x1="58.98" x2="26.322" y1="25.587" y2="61.073" gradientUnits="userSpaceOnUse"><stop offset=".501" stop-color="#1FD17D"/><stop offset=".641" stop-color="#2CE28C"/></linearGradient><linearGradient id="paint3_linear" x1="48.173" x2="15.515" y1="15.641" y2="51.127" gradientUnits="userSpaceOnUse"><stop offset=".65" stop-color="#1BC675"/><stop offset=".797" stop-color="#0FD879"/></linearGradient></defs></svg>