<svg width="96" height="96" viewBox="0 0 96 96" fill="none" xmlns="http://www.w3.org/2000/svg">
<path d="M48 96C74.5097 96 96 74.5096 96 48C96 21.4903 74.5097 0 48 0C21.4903 0 0 21.4903 0 48C0 74.5096 21.4903 96 48 96Z" fill="white"/>
<path d="M71.3332 44.2645L61.808 48.5602L36.594 61.4474L61.808 73.5874V53.603L71.3332 49.3073V78.817L61.808 83.1127L24.6406 65.3696V55.8442L50.415 43.3306L24.6406 31.0038V21.4785L34.3527 17.1827L71.3332 34.9259V44.2645Z" fill="#49C1BF"/>
<path d="M24.6406 21.2917L61.808 39.0349L71.3332 34.7392L34.3527 16.996L24.6406 21.2917Z" fill="#077A8F"/>
<path d="M61.8118 39.1004L71.337 34.8047V44.33L61.8118 48.6257V39.1004Z" fill="#298E97"/>
<path d="M24.6406 21.3962V30.9215L50.415 43.2484L24.6406 55.762V65.2873L61.808 83.0305V73.5052L36.594 61.3651L61.808 48.478V39.1394L24.6406 21.3962Z" fill="#49C1BF"/>
<path d="M61.8118 82.9054L71.337 78.6097V49.1L61.8118 53.3957V82.9054Z" fill="#298E97"/>
</svg>
