<svg width="96" height="96" viewBox="0 0 96 96" fill="none" xmlns="http://www.w3.org/2000/svg">
<ellipse cx="48" cy="47.9804" rx="48" ry="47.9804" fill="white"/>
<path fill-rule="evenodd" clip-rule="evenodd" d="M51.4268 54.137C54.2777 54.137 56.8564 54.9383 58.9267 56.311V70.7281H39.5274C39.0796 69.5764 38.84 68.2927 38.84 66.8918C38.84 64.9068 39.3364 62.4266 40.304 60.7894C42.482 57.1049 46.4766 54.137 51.4268 54.137ZM31.48 40.8641V70.7281H14L31.48 40.8641ZM65.52 40.8641L83 70.7281H65.52V40.8641ZM48.8345 11L58.9267 28.1151V48.2296C56.6495 47.3621 53.5256 46.8533 50.0981 47.1017C45.2493 47.554 40.6274 49.717 38.8648 51.4221H38.84V28.1151L48.8345 11Z" fill="black"/>
</svg>
