<svg width="96" height="96" viewBox="0 0 96 96" fill="none" xmlns="http://www.w3.org/2000/svg">
<circle cx="48" cy="48" r="48" fill="white"/>
<g clip-path="url(#clip0)">
<path d="M60.0844 81.2301C59.406 80.2433 59.1593 79.0715 58.8509 77.9614C57.124 80.3667 55.9522 83.0187 54.5953 85.6707C54.1019 85.1157 53.8552 84.4372 53.6085 83.7588C51.4499 86.2875 49.9697 89.1245 48.3045 91.9616C46.7626 89.0629 45.0974 86.2875 43.0621 83.7588C42.7537 84.4372 42.507 85.1157 42.0136 85.6707C40.7801 82.957 39.485 80.3667 37.8197 77.9614C37.573 79.1332 37.2647 80.2433 36.5862 81.2918C35.9078 77.2829 33.5025 73.9525 31.6522 70.3753H31.5906C31.5906 72.2256 31.4055 74.1992 30.172 75.7411C28.9385 69.2035 22.586 64.8246 22.1543 58.102C21.2292 59.5206 20.1807 60.9391 18.3304 61.0624C22.8327 52.798 10.4977 52.5513 22.401 33.3704C20.1807 34.9123 17.7754 35.714 15 35.714C25.9781 27.6963 16.6035 15.5463 37.018 15.2996C36.3395 13.8194 35.106 12.956 33.7492 12.2776C35.9078 11.5991 40.5951 12.4626 42.8771 13.8194C43.3088 12.4626 43.2471 11.1674 42.7537 9.81055C44.6656 10.6123 45.7141 12.2159 46.8243 13.8811C47.3177 10.9207 47.7494 7.89863 48.1811 4.93823C48.3045 4.99991 48.3045 4.99991 48.3661 4.99991C48.7979 7.9603 49.2913 10.9207 49.7847 13.9428C50.7715 12.2159 51.9433 10.674 53.7935 9.81055C53.3618 11.1674 53.2385 12.4626 53.6702 13.8194C56.5689 12.3392 59.591 11.7842 62.7981 12.2776C61.4412 13.0176 60.2077 13.8811 59.5293 15.3613C79.8204 15.608 70.6308 27.5729 81.5473 35.7757C78.8952 35.8374 76.3666 34.9739 74.1463 33.4937C86.1112 52.5513 73.7762 52.9213 78.2785 61.1241C76.3049 60.9391 75.3798 59.5822 74.393 58.2254C74.0229 64.9479 67.5471 69.3269 66.4986 75.8027C65.2034 74.1992 65.0801 72.3489 65.0184 70.3753C62.9831 73.7675 60.8862 77.2829 60.0844 81.2301ZM56.8773 46.5688C61.3796 45.212 66.2519 39.5995 62.6747 35.0973C59.8994 32.0752 60.3928 26.1544 55.8905 24.9826C53.4235 24.3658 50.5248 24.6125 48.4278 26.2161C47.5644 26.2161 46.7009 25.1059 45.6524 25.0443C39.7933 23.2557 37.018 26.8328 35.5994 32.0135C30.7888 38.1194 32.2073 43.7934 39.67 46.5688C37.573 47.4323 37.5114 49.3442 38.1898 51.1944C39.3616 50.7627 40.3484 50.0843 41.3352 49.5292C40.5334 51.1328 37.5114 51.3795 38.7449 53.4764C39.5466 53.0447 40.2867 52.613 40.9651 52.1812C40.5951 53.0447 39.1766 53.3531 38.9916 54.2165C39.3616 54.7716 39.5466 56.3751 40.4718 55.8817C42.3837 54.0932 44.8507 53.5998 47.256 52.798C48.3045 52.3663 47.9961 50.8244 47.5644 50.0226C46.0225 49.0358 44.4806 47.864 43.6788 46.1371L43.7405 46.0754C46.5159 47.5556 49.8463 47.4939 52.6217 46.1371C52.005 48.7891 47.1943 49.4675 48.6745 52.5513C50.5864 53.5998 52.9301 53.6614 54.7187 55.0183C55.3354 55.3267 56.1989 56.6218 56.7539 55.635C58.1725 53.6614 56.4456 53.5998 55.3971 52.1812C56.1989 52.613 56.8773 53.0447 57.6174 53.4764C58.9742 51.4411 55.8905 51.0094 55.027 49.5909L55.0887 49.5292C56.1372 50.146 57.0623 50.8244 58.2341 51.2561C59.0359 49.2825 58.9742 47.4323 56.8773 46.5688ZM55.3354 62.1726C54.842 63.8995 53.6702 65.133 52.6217 66.4898C52.4367 69.0185 52.1283 71.7939 50.7098 73.9525C51.0182 71.9789 50.7715 67.1682 50.0314 66.1198C49.723 68.0317 49.3529 69.8819 48.3661 71.5472C47.3793 69.8203 47.0093 67.97 46.6392 66.1198C45.7141 68.6484 45.7141 71.3005 46.0225 73.9525C44.3573 71.6705 44.5423 68.5868 43.8639 66.0581C42.5687 65.133 41.9519 63.6528 41.3969 62.1726C39.7317 67.785 40.5334 73.089 43.1238 78.2081C43.3088 77.4063 43.4938 76.6662 43.7405 75.8644C45.9608 78.8248 47.1943 82.1553 48.3661 85.5474C49.723 82.1553 50.7715 78.8248 53.0534 75.8644C53.3001 76.7279 53.4235 77.3446 53.6702 78.2081C56.1989 73.0274 57.0006 67.785 55.3354 62.1726ZM41.0268 14.7445C41.0268 14.7445 41.0268 14.8062 41.0268 14.7445C43.3088 23.2557 41.3969 24.3042 51.4499 23.3174C52.3133 23.1323 53.6702 23.0707 53.9169 22.0839C54.1636 19.5552 54.9037 17.0882 55.7055 14.6212C55.7055 14.6212 55.6438 14.6212 55.6438 14.5595C54.3486 15.608 53.0534 16.5948 52.2517 18.1367H52.19C52.1283 16.5331 52.0666 14.9912 52.005 13.3877H51.9433C50.8948 14.9912 49.9697 16.6565 49.4146 18.445C49.0446 16.7181 48.6745 14.9296 48.3045 13.2027H48.2428C47.8727 14.9296 47.5027 16.6565 47.1326 18.445C46.5776 16.6565 45.7141 15.0529 44.6656 13.5727H44.604C44.5423 15.1146 44.4189 16.5948 44.3573 18.1367C43.5555 16.7181 42.2603 15.793 41.0268 14.7445ZM50.7715 59.0272C51.3882 59.3972 51.1415 61.0008 52.005 60.569C53.2385 60.0756 54.3486 59.3972 55.0887 58.2871C56.1989 55.0183 49.3529 53.4764 46.9476 53.9698C42.0753 54.8333 38.4982 58.2254 44.9123 60.6924C45.5291 60.569 45.2207 59.3355 45.8991 59.0888C45.4057 62.1726 51.2032 62.1109 50.7715 59.0272ZM33.6875 53.5998H33.6258C30.8505 48.8508 29.6786 43.2384 30.3571 37.7493C26.7182 41.6348 26.3482 47.1239 26.8416 52.1812C27.4583 50.146 27.8901 48.1107 29.0619 46.2604C29.6786 51.8112 31.8373 58.4721 37.9431 59.7673C35.6611 56.0668 34.6743 51.8112 33.9959 47.5556C33.0091 49.4675 33.3175 51.6262 33.6875 53.5998ZM62.6747 47.6173C61.9963 51.8729 61.1329 56.0668 58.7275 59.7673C64.7717 58.4721 66.992 51.7495 67.547 46.3221C68.7805 48.1107 69.2123 50.2076 69.7673 52.1812C70.2607 47.1239 69.8907 41.6348 66.3135 37.7493H66.2519C66.9303 43.2384 65.8201 48.8508 62.9214 53.5998C63.3532 51.5645 63.4765 49.5909 62.6747 47.6173ZM36.6479 71.8555H36.7096C37.4497 63.7145 32.1456 62.3576 28.0134 56.9919C26.3482 60.8157 28.5685 64.6396 30.0487 68.0934C30.6038 66.4898 30.4187 64.9479 29.9253 63.3444C32.454 65.7497 34.8593 68.7718 36.6479 71.8555ZM66.5602 68.0934C68.0404 64.6396 70.1991 60.8157 68.6572 56.9919H68.5955C64.6483 62.0492 58.9742 64.1462 59.8994 71.8555H59.961C61.6879 68.7101 64.0933 65.688 66.6836 63.2827C66.1902 64.8863 66.0052 66.4898 66.5602 68.0934ZM38.5598 19.3085C34.3659 17.2732 28.6918 18.6301 25.6081 22.0222C23.4495 24.1808 23.9429 27.3879 22.586 29.9166C23.8812 29.2998 24.8063 28.313 25.6081 27.2029C25.9781 29.4849 25.2997 31.5818 24.7446 33.7404C29.802 25.9077 24.9913 19.6169 38.5598 19.3085ZM74.0229 29.9166C72.6044 27.2029 73.1595 23.7491 70.6925 21.5905C67.4854 18.5067 62.1813 17.2732 58.1108 19.1851V19.2468C71.3709 19.4318 66.992 25.846 71.8643 33.6788C71.4942 31.5201 70.5691 29.3615 71.0008 27.1412C71.926 28.313 72.6661 29.2998 74.0229 29.9166ZM39.485 22.8856V22.824C26.1632 19.8019 29.802 36.5158 32.8241 33.3087C33.0091 33.062 33.0091 32.877 32.8241 32.692C31.0972 30.7184 32.0223 27.1412 34.9827 27.3262C36.6479 26.8945 36.0928 23.7491 39.485 22.8856ZM57.124 22.824V22.8856C58.2341 23.4407 59.4676 23.9958 60.0844 25.1059C60.5778 25.7227 60.5778 27.0795 61.4412 27.2646C65.4501 27.3262 64.9567 30.6567 63.7849 33.1854C66.6219 36.8859 70.6925 19.8019 57.124 22.824ZM74.578 53.3531C74.6397 53.3531 74.6397 53.3531 74.7013 53.3531C76.4899 48.6658 76.6749 43.4851 72.6661 39.8462C74.8247 44.1635 73.0978 48.9741 74.578 53.3531ZM21.9693 53.3531C23.6962 49.0975 21.5992 44.1018 24.0045 39.9079C24.0045 39.9079 23.9429 39.9079 23.9429 39.8462C20.0573 43.4851 20.0573 48.7274 21.9693 53.3531Z" fill="url(#paint0_linear)"/>
<path d="M45.4059 35.7758C44.7892 37.6877 44.1724 39.5996 44.4191 41.6966C43.6174 40.9565 43.6174 39.7847 43.4323 38.7979C41.6438 39.538 40.4719 37.626 39.1768 36.8243C41.4587 33.5555 42.3839 38.9829 45.3443 35.7141C45.3443 35.7758 45.4059 35.7758 45.4059 35.7758Z" fill="url(#paint1_linear)"/>
<path d="M53.1767 38.7979C53.0534 39.8463 52.93 40.8948 52.1899 41.6966C52.3749 39.5996 51.7582 37.7494 51.2031 35.7141C52.1282 35.9608 52.56 37.441 53.5468 36.8859C54.7803 36.0225 56.5688 35.0357 57.3706 36.8859C57.4323 36.8859 57.494 36.8243 57.494 36.8243C56.1988 37.626 54.9653 39.5996 53.1767 38.7979Z" fill="url(#paint2_linear)"/>
<path d="M41.0273 14.7448C42.2608 15.7932 43.556 16.6567 44.3578 18.1369C44.4195 16.595 44.5428 15.1148 44.6045 13.5729H44.6662C45.7146 15.1148 46.5781 16.6567 47.1332 18.4453C47.5032 16.7184 47.8733 14.9915 48.2433 13.2029H48.305C48.675 14.9298 49.0451 16.7184 49.4151 18.4453C49.9702 16.595 50.8953 14.9298 51.9438 13.3879H52.0055C52.0672 14.9915 52.1288 16.5333 52.1905 18.1369H52.2522C53.054 16.595 54.3491 15.6082 55.6443 14.5597C55.6443 14.5597 55.706 14.5597 55.706 14.6214C54.9042 17.0267 54.1641 19.5554 53.9174 22.0841C53.6707 23.0709 52.2522 23.1325 51.4504 23.3176C41.3974 24.3044 43.3093 23.2559 41.0273 14.7448C41.0273 14.8064 41.0273 14.7448 41.0273 14.7448Z" fill="url(#paint3_linear)"/>
<path d="M41.0273 14.7448C42.2608 15.7932 43.556 16.6567 44.3578 18.1369C44.4195 16.595 44.5428 15.1148 44.6045 13.5729H44.6662C45.7146 15.1148 46.5781 16.6567 47.1332 18.4453C47.5032 16.7184 47.8733 14.9915 48.2433 13.2029H48.305C48.675 14.9298 49.0451 16.7184 49.4151 18.4453C49.9702 16.595 50.8953 14.9298 51.9438 13.3879H52.0055C52.0672 14.9915 52.1288 16.5333 52.1905 18.1369H52.2522C53.054 16.595 54.3491 15.6082 55.6443 14.5597C55.6443 14.5597 55.706 14.5597 55.706 14.6214C54.9042 17.0267 54.1641 19.5554 53.9174 22.0841C53.6707 23.0709 52.2522 23.1325 51.4504 23.3176C41.3974 24.3044 43.3093 23.2559 41.0273 14.7448C41.0273 14.8064 41.0273 14.7448 41.0273 14.7448Z" fill="url(#paint4_linear)"/>
</g>
<defs>
<linearGradient id="paint0_linear" x1="73.8789" y1="67.0067" x2="21.421" y2="22.8006" gradientUnits="userSpaceOnUse">
<stop stop-color="#101112"/>
<stop offset="1" stop-color="#565A65"/>
</linearGradient>
<linearGradient id="paint1_linear" x1="46.0925" y1="39.7185" x2="40.6283" y2="35.1139" gradientUnits="userSpaceOnUse">
<stop stop-color="#101112"/>
<stop offset="1" stop-color="#565A65"/>
</linearGradient>
<linearGradient id="paint2_linear" x1="55.2343" y1="39.5023" x2="51.0139" y2="35.9458" gradientUnits="userSpaceOnUse">
<stop stop-color="#101112"/>
<stop offset="1" stop-color="#565A65"/>
</linearGradient>
<linearGradient id="paint3_linear" x1="53.913" y1="22.3485" x2="42.6387" y2="12.8477" gradientUnits="userSpaceOnUse">
<stop stop-color="#101112"/>
<stop offset="1" stop-color="#565A65"/>
</linearGradient>
<linearGradient id="paint4_linear" x1="41.4858" y1="13.7721" x2="54.5129" y2="21.7262" gradientUnits="userSpaceOnUse">
<stop offset="0.1759" stop-color="#B87600"/>
<stop offset="0.4832" stop-color="#F3DBAF"/>
<stop offset="0.639" stop-color="#DFB972"/>
<stop offset="0.8089" stop-color="#CC9836"/>
<stop offset="0.9341" stop-color="#C08310"/>
<stop offset="1" stop-color="#BB7B02"/>
</linearGradient>
<clipPath id="clip0">
<rect width="66.5473" height="86.9" fill="white" transform="translate(15 5)"/>
</clipPath>
</defs>
</svg>
