<svg width="96" height="96" viewBox="0 0 96 96" fill="none" xmlns="http://www.w3.org/2000/svg">
<circle cx="48" cy="48" r="46" fill="white"/>
<path fill-rule="evenodd" clip-rule="evenodd" d="M96 48C96 74.49 74.5294 96 48 96C21.4706 96 0 74.49 0 48C0 21.51 21.4706 0 48 0C74.5294 0 96 21.51 96 48ZM48 91.0273C71.753 91.0273 91.0086 71.7633 91.0086 48C91.0086 24.2367 71.753 4.97268 48 4.97268C24.247 4.97268 4.9914 24.2367 4.9914 48C4.9914 71.7633 24.247 91.0273 48 91.0273Z" fill="#0D1F30"/>
<path d="M57.1218 50.4403C57.1218 64.8535 51.127 68.5086 38.8647 74.5773C41.1934 76.1113 43.6296 77.4712 46.1539 78.6462C55.555 74.1636 64.6155 68.2327 64.6155 52.5092V19.2H57.1218V50.4403ZM49.9689 19.2H27.6924V25.8205H42.4752V46.9921C42.4752 56.6469 41.8621 57.5435 29.4636 63.1984C30.384 65.4952 31.6477 67.635 33.2104 69.543C47.2439 63.1984 49.9689 59.9572 49.9689 48.992V19.2Z" fill="black"/>
</svg>
