<svg width="96" height="96" viewBox="0 0 96 96" fill="none" xmlns="http://www.w3.org/2000/svg">
<path d="M48 96C74.5097 96 96 74.5097 96 48C96 21.4903 74.5097 0 48 0C21.4903 0 0 21.4903 0 48C0 74.5097 21.4903 96 48 96Z" fill="url(#paint0_linear)"/>
<path d="M60.6251 94.3225C56.6022 95.4163 52.3692 96 47.9999 96C43.8127 96 39.7508 95.4642 35.8788 94.4564C36.2241 92.5089 36.5461 90.7634 36.8326 89.2109L36.8486 89.1238C38.5355 79.9497 39.1058 76.8493 36.5534 76.0368C31.7816 74.4776 26.9168 72.4754 24.1933 66.6562C23.0761 63.8627 22.6803 60.837 23.0294 57.8571L24.3096 46.9866C24.4726 45.7299 24.7519 44.4966 25.1708 43.3091C24.7053 43.077 24.2399 42.7511 23.7743 42.3549C23.5881 42.1919 17.0938 36.5826 17.2801 27.318C17.3266 25.6183 18.1412 25.0368 18.8163 24.827C21.4 24.0826 26.4977 27.6205 29.9194 30.7868C30.0824 30.7634 30.2685 30.7634 30.4314 30.7634C30.4314 30.298 30.4782 29.8326 30.5711 29.3895C30.8738 27.9933 31.5953 26.6897 32.6429 25.712C33.6902 24.7343 35.0404 24.106 36.4603 23.8962C36.8094 23.8504 37.1818 23.827 37.5309 23.827C37.1585 23.1518 36.6232 22.616 35.9713 22.2209C35.9016 22.1741 35.855 22.1272 35.8317 22.058C35.8084 21.9877 35.8084 21.9174 35.8084 21.8482C35.8317 21.7779 35.855 21.7087 35.9016 21.6618C35.9218 21.6417 35.9465 21.6261 35.9737 21.6127C36.0088 21.5948 36.0483 21.5814 36.0877 21.5692C37.1119 21.3125 38.2061 21.3359 39.2301 21.6149C40.2544 21.8951 41.2086 22.4297 41.9768 23.1518C42.1631 22.7321 42.4191 22.3136 42.6751 21.9408C43.0476 21.4285 43.4667 20.9397 43.9553 20.5212C44.933 19.7064 46.0736 19.125 47.3074 18.7756C47.377 18.7522 47.4237 18.7522 47.4701 18.7522C47.4932 18.7522 47.5164 18.7578 47.5395 18.7656C47.563 18.7745 47.5864 18.7868 47.6097 18.7991C47.6563 18.8225 47.703 18.8448 47.7263 18.8917L47.7961 19.0312C47.8194 19.1015 47.8194 19.1707 47.7961 19.241C47.7844 19.2756 47.7671 19.3102 47.7469 19.3426C47.7265 19.375 47.7032 19.404 47.6797 19.4274C47.0977 20.0323 46.7021 20.8002 46.5391 21.6384C46.3762 22.5234 46.3296 23.3839 46.4228 24.2689C46.4362 24.4419 46.4494 24.6082 46.4671 24.7756C46.4804 24.8995 46.496 25.0245 46.5158 25.154C47.3074 24.664 48.2383 24.385 49.1696 24.385C50.1005 24.385 51.0314 24.6417 51.8463 25.1071C51.9013 24.9308 51.9458 24.7488 51.9825 24.5669C52.0234 24.3649 52.0545 24.1629 52.079 23.9665C52.1364 23.6361 52.1584 23.298 52.156 22.9553C52.1545 22.7422 52.1435 22.5279 52.1256 22.3136C52.079 21.7544 51.986 21.2198 51.823 20.6841C51.7909 20.6205 51.7921 20.5457 51.811 20.4743C51.8195 20.4419 51.8318 20.4107 51.8463 20.3817C51.8928 20.289 51.986 20.2187 52.079 20.1953C52.1489 20.1718 52.242 20.1718 52.3117 20.1953C52.3816 20.2187 52.4514 20.2422 52.498 20.3113C52.8936 20.7544 53.2195 21.2433 53.4755 21.7779C53.6386 22.1038 53.8015 22.4531 53.9179 22.8024C54.1203 22.577 54.3336 22.3683 54.5605 22.1785C54.8031 21.9754 55.0612 21.7946 55.3378 21.6384C55.687 21.4285 56.0593 21.2656 56.4317 21.1261C56.8276 20.9866 57.2233 20.9174 57.6422 20.8939C57.6821 20.8939 57.7143 20.8939 57.7435 20.8984C57.7653 20.9018 57.7852 20.9073 57.8052 20.9174C57.8516 20.9174 57.8982 20.9631 57.9448 20.9866C57.9913 21.01 58.0146 21.0569 58.0379 21.1026C58.0528 21.1328 58.0677 21.1629 58.0765 21.193C58.0814 21.2098 58.0845 21.2265 58.0845 21.2433C58.0845 21.3125 58.0845 21.3828 58.0612 21.4285C58.0513 21.4486 58.0373 21.4687 58.0208 21.4888C57.9985 21.5156 57.9716 21.5424 57.9448 21.5692C57.4793 21.9643 57.1069 22.4297 56.8043 22.9419C56.5016 23.4776 56.292 24.0357 56.1757 24.6417C56.1059 24.9899 56.0593 25.3393 56.0361 25.6886C57.3163 25.1305 58.7361 24.9899 60.1096 25.2232C61.576 25.5022 62.9028 26.2477 63.9037 27.3649L64.2063 27.7366C67.3951 24.664 71.6781 21.5692 74.0525 22.1272C74.7508 22.2901 75.5886 22.8259 75.7284 24.5245C76.3801 33.51 70.5609 39.3761 70.0489 39.8638C70.8402 41.2611 71.4221 42.7745 71.7944 44.3794L74.2619 55.087C74.9137 57.9743 74.8671 60.9765 74.0755 63.8392V63.8627L74.0525 63.9564C74.0525 63.9665 74.0525 63.9776 74.0501 63.9888C74.0475 64.0011 74.0418 64.0134 74.0292 64.0256C72.6791 67.9598 70.2814 70.4497 67.5814 72.173C67.1857 72.4285 66.7901 72.6618 66.3942 72.8705C65.1839 73.5457 63.927 74.0814 62.6931 74.5703C60.2026 75.4319 59.6906 77.7589 59.7138 79.5513C59.7254 79.9464 59.7429 80.3426 59.7604 80.7388C59.7778 81.1339 59.7954 81.529 59.807 81.9252C59.9717 86.0234 60.1417 90.1886 60.6251 94.3225Z" fill="#FFFEFB"/>
<defs>
<linearGradient id="paint0_linear" x1="0" y1="48" x2="96" y2="48" gradientUnits="userSpaceOnUse">
<stop stop-color="#FF874F"/>
<stop offset="1" stop-color="#FF6F5F"/>
</linearGradient>
</defs>
</svg>
