<svg width="96" height="96" viewBox="0 0 96 96" fill="none" xmlns="http://www.w3.org/2000/svg">
<circle cx="48" cy="48" r="48" fill="#F8F3EB"/>
<path d="M15.7715 30.734C19.7321 30.734 23.6977 30.734 27.7043 30.734C27.7043 31.008 27.7043 31.251 27.7043 31.494C27.7094 32.564 27.6482 33.6341 27.7349 34.699C27.8932 36.6582 28.424 38.5347 29.2355 40.3233C29.9704 41.9465 30.9402 43.4199 32.1702 44.6864C33.7013 46.263 35.4877 47.4727 37.6109 48.0982C37.7743 48.1447 37.8917 48.2119 37.8866 48.3928C37.8508 49.3751 37.9988 50.3624 37.7845 51.3394C37.4272 52.9523 36.483 54.0741 35.008 54.7564C34.3342 55.0666 33.6197 55.1648 32.8899 55.1648C30.4808 55.1648 28.0718 55.1648 25.6577 55.17C24.5246 55.1752 23.4579 54.958 22.529 54.2705C21.1305 53.2418 20.4874 51.8253 20.4874 50.0936C20.4874 45.3635 20.4874 40.6283 20.4874 35.8983C20.4874 35.7639 20.4926 35.6295 20.4874 35.4951C20.4568 34.8076 20.0434 34.4508 19.4411 34.2648C17.7773 33.753 16.6442 32.6261 15.8531 31.1011C15.8174 31.0287 15.7868 30.9511 15.7612 30.8684C15.751 30.8426 15.7663 30.8064 15.7715 30.734ZM22.7433 41.3469C22.7382 42.2464 23.366 42.9133 24.2337 42.9288C25.0656 42.9442 25.7802 42.2412 25.7955 41.3883C25.8108 40.5095 25.1115 39.7909 24.2439 39.7857C23.5089 39.7806 22.6617 40.4112 22.7433 41.3469Z" fill="white"/>
<path d="M35.9577 41.3728C35.9475 42.1378 35.2789 42.8202 34.5389 42.815C33.7732 42.815 33.0791 42.0965 33.0996 41.3314C33.12 40.5663 33.7886 39.8839 34.5286 39.8943C35.2993 39.9046 36.0394 40.6283 35.9577 41.3728Z" fill="white"/>
<path d="M22.7436 41.3468C22.6671 40.4112 23.5092 39.7805 24.2442 39.7857C25.1118 39.7909 25.8111 40.5146 25.7957 41.3882C25.7805 42.2412 25.0659 42.9442 24.234 42.9287C23.3664 42.9132 22.7334 42.2463 22.7436 41.3468Z" fill="black"/>
<path d="M81.0042 57.6151C80.9992 57.6151 81.0093 57.6151 81.035 57.6151C81.0401 57.6151 81.0501 57.6151 81.0551 57.61C81.101 57.5996 81.1519 57.5945 81.2034 57.5893C81.2801 57.5686 81.3618 57.5376 81.4328 57.5066C81.4736 57.46 81.5245 57.429 81.581 57.4084C81.576 57.4032 81.576 57.4032 81.571 57.398C82.2395 56.9276 82.2288 56.2556 82.2288 55.5732C82.2238 52.4147 82.2345 49.251 82.2188 46.0925C82.2138 45.0741 82.1069 44.066 81.7852 43.0839C80.6518 39.6048 77.4517 37.1493 73.7056 37.1132C69.6787 37.0718 65.6517 37.0614 61.6248 37.0511C54.7295 37.0304 47.829 37.0253 40.9286 37.0097C40.8469 37.0097 40.7601 37.0201 40.6836 37.0097C40.5764 36.9942 40.4692 36.9684 40.3824 36.9477C40.2702 36.6117 40.3978 36.436 40.6683 36.3274C40.7755 36.286 40.8826 36.2395 40.9848 36.1878C42.8732 35.2159 44.1798 33.6909 45.0321 31.7576C45.3383 31.0597 45.619 30.336 45.6446 29.5503C45.6752 28.6456 45.226 28.1804 44.338 28.1752C42.6384 28.1596 40.9388 28.1545 39.2392 28.139C39.081 28.139 38.9176 28.1235 38.7339 28.1131C38.7237 27.927 38.7084 27.7771 38.7084 27.6324C38.7084 26.8311 38.7186 26.0247 38.7033 25.2234C38.6931 24.8616 38.6676 24.4842 38.5706 24.1378C38.1572 22.5973 36.5597 21.4807 34.7478 21.8478C33.4872 22.1062 32.3643 23.2745 32.2673 24.5669C32.1958 25.5646 32.2112 26.5675 32.1907 27.5704C32.1856 27.7461 32.1703 27.9219 32.1601 28.1028H26.209C26.209 27.8908 26.209 27.7099 26.209 27.5342C26.209 26.6657 26.2345 25.7921 26.2039 24.9236C26.1223 22.7576 24.0654 21.2326 21.8758 21.9615C20.5437 22.4061 19.6863 23.7191 19.7016 25.1614C19.7118 25.9782 19.7067 26.8001 19.7016 27.622C19.7016 27.7823 19.6812 27.9425 19.6709 28.1338C19.4566 28.1338 19.2932 28.1338 19.1299 28.1338C17.4303 28.1441 15.7308 28.1545 14.0312 28.17C13.2299 28.1752 12.7093 28.6818 12.7705 29.4882C12.8062 29.9793 12.9491 30.4704 13.1023 30.9408C13.8627 33.2774 15.2816 35.0816 17.4712 36.1878C17.9203 36.4152 18.0377 36.6582 18.0326 37.1338C18.0173 41.564 18.0122 45.9942 18.0326 50.4296C18.0377 51.0396 18.0938 51.6755 18.2623 52.2596C19.1197 55.1493 21.003 56.9379 23.9429 57.5376C24.0195 57.5531 24.0807 57.5738 24.1317 57.6048C24.1572 57.61 24.1777 57.6203 24.2032 57.6306C24.2338 57.6358 24.2695 57.6513 24.3001 57.6617C24.3512 57.6668 24.3971 57.6772 24.438 57.6978C24.4482 57.6978 24.4584 57.703 24.4686 57.703C24.5298 57.703 24.5809 57.7133 24.6268 57.7289C24.8514 57.7341 25.0708 57.7444 25.2903 57.7547C25.3516 57.7547 25.4128 57.7547 25.4741 57.7599C25.8466 57.7444 26.2192 57.7496 26.5867 57.7496C26.6939 57.7392 26.7959 57.7341 26.9031 57.7341H31.5171C31.5171 57.7392 31.5171 57.7444 31.5171 57.7496C31.5885 57.7496 31.6548 57.7547 31.7263 57.7651C31.7365 57.7651 31.7467 57.7651 31.757 57.7651C32.354 57.7857 32.793 58.0494 33.0584 58.6077C33.2013 58.9075 33.3646 59.3159 33.3646 59.6829C33.3749 59.7243 33.385 59.7708 33.385 59.8173C33.385 60.0861 33.3901 60.3601 33.4106 60.6289C33.4156 60.6703 33.4106 60.7065 33.4055 60.7427C33.4463 61.7765 33.482 62.8156 33.5228 63.8495C33.579 65.4158 33.6504 66.9873 33.6964 68.5537C33.7321 69.7375 33.7321 70.9265 33.7678 72.1102C33.8036 73.2889 34.6508 74.209 35.7379 74.2194C38.2286 74.2349 40.7244 74.2349 43.2151 74.2194C44.0981 74.2142 44.8637 73.5732 45.0678 72.6944C45.3179 71.6037 45.5425 70.5129 45.7823 69.417C46.0274 68.3107 46.2825 67.2045 46.5275 66.0982C46.6245 66.0672 46.6551 66.0517 46.6909 66.0517C51.8254 66.0517 56.9599 66.0517 62.0944 66.0413C62.3904 66.0413 62.5027 66.1706 62.5537 66.4394C62.6966 67.1424 62.8497 67.8403 63.0029 68.5434C63.2938 69.8822 63.5949 71.216 63.8705 72.5549C64.0542 73.4646 64.8759 74.2142 65.7844 74.2194C68.2751 74.2297 70.7709 74.2297 73.2616 74.2194C74.262 74.2142 75.1452 73.3148 75.191 72.3015C75.252 71.035 75.3236 69.7685 75.3902 68.502C75.4769 66.9202 75.5636 65.3331 75.6503 63.7513C75.7012 62.8363 75.7371 61.9161 75.7879 61.0011C75.8797 59.3831 75.9821 57.7702 76.0688 56.1522C76.1656 54.3687 76.2422 52.5853 76.334 50.7966C76.4106 49.282 76.5331 47.7622 76.5539 46.2475C76.584 44.0609 75.8288 42.1326 74.4712 40.4474C74.4049 40.3647 74.3539 40.2665 74.2671 40.1321C74.3845 40.1218 74.4457 40.1063 74.507 40.1166C77.1866 40.4836 79.3555 42.996 79.3606 45.7409C79.3656 49.0494 79.3712 52.363 79.3555 55.6715C79.3505 56.3124 79.4372 56.8966 79.9066 57.3722C79.9122 57.3774 79.9122 57.3825 79.9122 57.3877C80.2792 57.5686 80.6216 57.6151 80.9892 57.6255C80.9992 57.6203 81.0042 57.6151 81.0042 57.6151ZM34.6916 25.0528C34.6967 24.6496 35.0438 24.3239 35.4164 24.2929C35.7532 24.2671 36.1616 24.5566 36.1718 24.9339C36.2024 25.9782 36.182 27.0224 36.182 28.0976H34.6815C34.6865 27.0482 34.6712 26.0505 34.6916 25.0528ZM34.5334 39.8943C35.3041 39.9046 36.0391 40.6284 35.9625 41.3728C35.9523 42.1379 35.2837 42.8202 34.5436 42.8151C33.7781 42.8151 33.0839 42.0965 33.1043 41.3314C33.1196 40.5663 33.7934 39.884 34.5334 39.8943ZM22.1973 25.2648C22.1973 25.0838 22.2229 24.8926 22.2943 24.7323C22.422 24.4428 22.8047 24.2516 23.065 24.2981C23.4223 24.3705 23.7081 24.6755 23.7132 25.0735C23.7285 26.0247 23.7132 26.9707 23.7132 27.9219C23.7132 27.9684 23.6877 28.0149 23.657 28.1183H22.2535C22.2331 28.0046 22.2025 27.9115 22.2025 27.8133C22.1922 26.9604 22.1922 26.1126 22.1973 25.2648ZM35.0132 54.7565C34.3395 55.0666 33.6249 55.1649 32.8951 55.1649C30.486 55.1649 28.077 55.1649 25.6629 55.17C24.5298 55.1752 23.4631 54.958 22.5342 54.2705C21.1357 53.2418 20.4926 51.8254 20.4926 50.0936C20.4926 45.3635 20.4926 40.6284 20.4926 35.8983C20.4926 35.7639 20.4978 35.6295 20.4926 35.4951C20.462 34.8075 20.0486 34.4509 19.4464 34.2648C17.7825 33.753 16.6494 32.6261 15.8583 31.1011C15.8226 31.0287 15.792 30.9511 15.7665 30.8684C15.7563 30.8426 15.7716 30.8064 15.7767 30.7341H27.7096C27.7096 31.008 27.7096 31.251 27.7096 31.494C27.7147 32.564 27.6534 33.6341 27.7402 34.699C27.8984 36.6582 28.4292 38.5347 29.2407 40.3233C29.9757 41.9465 30.9454 43.4199 32.1754 44.6863C33.7066 46.263 35.4929 47.4727 37.6161 48.0982C37.7795 48.1447 37.8969 48.2119 37.8918 48.3929C37.856 49.3751 38.0041 50.3624 37.7897 51.3395C37.4324 52.9523 36.4882 54.0741 35.0132 54.7565ZM73.721 47.0023C73.6189 48.5686 73.5526 50.1349 73.4709 51.7013C73.3688 53.7019 73.2616 55.7025 73.1596 57.703C73.0421 59.9879 72.9197 62.2728 72.7971 64.5526C72.7206 65.9328 72.6389 67.3182 72.5573 68.6985C72.5062 69.5618 72.4552 70.425 72.399 71.34H66.6266C65.9631 68.6571 65.4119 65.9328 64.7535 63.2033C64.5953 63.1878 64.4523 63.1672 64.3094 63.1672C57.7867 63.1672 51.269 63.1672 44.7463 63.1672C44.2716 63.1672 44.2512 63.2085 44.144 63.6944C43.8735 64.9144 43.5877 66.1292 43.307 67.3492C43.0416 68.502 42.7813 69.66 42.5261 70.8127C42.4087 71.3504 42.4138 71.3607 41.8932 71.3607C40.2906 71.3607 38.688 71.3607 37.0905 71.3607C36.5903 71.3607 36.5699 71.3452 36.5699 70.8179C36.5494 67.6904 36.5341 64.5681 36.5137 61.4405C36.5035 60.0551 36.4984 58.6646 36.4729 57.2791C36.4678 56.9741 36.5597 56.8036 36.8199 56.6433C38.4175 55.687 39.5199 54.3067 40.0814 52.5181C40.2549 51.9701 40.3314 51.3705 40.3314 50.7915C40.3518 47.3951 40.3416 44.004 40.3416 40.6077C40.3416 40.4733 40.3468 40.3388 40.3416 40.2045C40.3365 39.977 40.4386 39.8633 40.6632 39.8633C40.7805 39.8633 40.8928 39.8633 41.0103 39.8633C43.0671 39.8633 45.1188 39.8633 47.1757 39.8633V39.8581H66.7542V39.9512C67.729 39.9512 68.7038 39.946 69.6787 39.946C70.0104 39.946 70.2351 40.0545 70.4443 40.2975C70.8577 40.7731 71.2864 41.2384 71.7254 41.6881C73.1647 43.1769 73.8588 44.9241 73.721 47.0023Z" fill="black"/>
<path d="M81.0553 58.3959H81.0452H81.0351H80.9685C80.5758 58.3804 80.1008 58.3339 79.5856 58.0806L79.2847 57.9307L79.2382 57.7653C78.6771 57.1088 78.6004 56.3385 78.6004 55.6613C78.6155 52.7096 78.6105 49.763 78.6054 46.8112V45.7308C78.6054 43.9887 77.5794 42.3449 76.1148 41.4763C76.9467 42.96 77.3551 44.5625 77.335 46.253C77.3193 47.3075 77.2583 48.3621 77.1967 49.3908C77.166 49.8715 77.1408 50.3523 77.1151 50.833L77.0233 52.6941C76.9674 53.8572 76.9109 55.0255 76.8499 56.1886C76.799 57.1139 76.7425 58.0393 76.6916 58.9646C76.6507 59.6573 76.6099 60.3448 76.5691 61.0375C76.5383 61.539 76.5182 62.0353 76.4924 62.5367C76.4723 62.9554 76.4516 63.3689 76.4315 63.7877C76.3856 64.7027 76.3341 65.6228 76.2832 66.5378L76.1248 69.4534C76.0739 70.4149 76.023 71.3712 75.9772 72.3328C75.9106 73.7647 74.6756 74.9795 73.2823 74.9847C70.7865 74.995 68.2906 74.995 65.7999 74.9847C64.5495 74.9795 63.4062 73.9973 63.1408 72.705C62.9571 71.7951 62.753 70.8853 62.5539 69.9755L62.1813 68.2644C62.0741 67.7785 61.972 67.2925 61.87 66.8066C58.0676 66.8118 54.2754 66.8118 50.4832 66.8118H47.1708L47.0687 67.2719C46.8952 68.037 46.7217 68.802 46.5532 69.5723C46.4613 69.991 46.3695 70.4149 46.2776 70.8336C46.1348 71.5057 45.9867 72.1829 45.8336 72.8549C45.5478 74.08 44.4607 74.9692 43.2408 74.9795C41.9138 74.9847 40.6481 74.9899 39.418 74.9899C38.1625 74.9899 36.9477 74.9847 35.7534 74.9795C34.2682 74.9692 33.0688 73.713 33.0229 72.1208C33.0075 71.5315 32.9974 70.9473 32.9871 70.358C32.9769 69.7584 32.9667 69.1639 32.9514 68.5642C32.9208 67.4993 32.8748 66.4344 32.834 65.3644L32.6554 60.6602L32.6656 60.624C32.6452 60.35 32.6401 60.0915 32.6401 59.8486L32.6197 59.7762V59.6625C32.6197 59.5488 32.5788 59.3316 32.39 58.9232C32.2573 58.6441 32.0837 58.5355 31.752 58.52L31.6704 58.5148C31.6193 58.5097 31.5683 58.5045 31.5172 58.5045L30.818 58.489H26.9237C26.8319 58.489 26.7553 58.4942 26.6838 58.4993L26.6073 58.5045H26.4746C26.1582 58.5045 25.8417 58.5045 25.5253 58.5148H25.4947H25.464C25.4181 58.5148 25.3772 58.5097 25.3262 58.5097C25.0659 58.4993 24.8464 58.489 24.627 58.4838L24.1166 58.4011L23.7747 58.2564C20.6102 57.6205 18.5024 55.6665 17.553 52.4614C17.3795 51.8721 17.2927 51.2001 17.2876 50.4143C17.2672 46.1702 17.2672 41.6987 17.2876 37.1134C17.2876 37.0048 17.2774 36.9531 17.2774 36.9376C17.2723 36.9376 17.2366 36.9118 17.1498 36.8652C14.848 35.7021 13.2453 33.7842 12.393 31.1685C12.2297 30.6619 12.0664 30.1088 12.0255 29.5298C11.9847 28.9456 12.1531 28.408 12.5104 28.0151C12.8779 27.6119 13.424 27.3845 14.0467 27.3793C15.3073 27.369 16.568 27.3586 17.8337 27.3535L18.9617 27.3483V27.1984C18.9668 26.5212 18.9668 25.844 18.9617 25.1616C18.9412 23.3471 20.0233 21.7601 21.6616 21.2173C22.9274 20.7986 24.2493 20.9795 25.2956 21.7136C26.3266 22.4373 26.9441 23.5953 26.9952 24.8825C27.0207 25.4976 27.0105 26.118 27.0054 26.7124C27.0054 26.914 27.0003 27.1157 27.0003 27.3173H31.4458C31.4509 27.0743 31.4509 26.8365 31.456 26.5935C31.4611 25.9112 31.4713 25.203 31.5223 24.4947C31.6397 22.8819 32.9719 21.4086 34.6153 21.0726C36.7181 20.6435 38.7851 21.8945 39.3262 23.9209C39.4231 24.2828 39.469 24.6757 39.4844 25.1926C39.4946 25.7354 39.4946 26.2782 39.4946 26.821C39.4946 26.9968 39.4946 27.1777 39.4946 27.3535L41.3269 27.3638C42.3425 27.369 43.3531 27.3741 44.3688 27.3845C45.0271 27.3896 45.5427 27.5912 45.9101 27.979C46.2776 28.3666 46.4512 28.8991 46.4308 29.5659C46.4002 30.512 46.0632 31.3495 45.7519 32.0628C44.9761 33.8359 43.8533 35.2317 42.414 36.2346L47.2014 36.2449C52.0195 36.2501 56.8427 36.2604 61.6607 36.2707C66.147 36.2811 69.9187 36.2966 73.7467 36.3328C77.7585 36.3689 81.2953 38.9847 82.5456 42.8359C82.8573 43.7975 83.0156 44.8572 83.0206 46.0823C83.0307 48.0209 83.0307 49.9646 83.0257 51.9031C83.0257 53.1231 83.0257 54.3431 83.0257 55.5631C83.0257 56.0697 83.0257 56.6797 82.7398 57.238L81.0553 58.3959ZM34.1763 60.7739L34.3448 65.3075C34.3856 66.3776 34.4264 67.4476 34.4622 68.5177C34.4826 69.1225 34.4877 69.7274 34.4979 70.3322C34.5081 70.9112 34.5183 71.4953 34.5336 72.0743C34.554 72.8446 35.0746 73.4235 35.7432 73.4287C38.0961 73.4442 40.5357 73.4442 43.2153 73.4287C43.7359 73.4235 44.2054 73.0358 44.328 72.5034C44.4811 71.8417 44.624 71.1748 44.7669 70.5079C44.8588 70.0841 44.9506 69.6602 45.0425 69.2363C45.2109 68.466 45.3896 67.7009 45.5631 66.9307L45.8949 65.4729L46.3848 65.323C46.4512 65.3023 46.5584 65.261 46.7063 65.261H50.4781C54.3571 65.261 58.2309 65.261 62.1099 65.2558C62.1099 65.2558 62.1099 65.2558 62.115 65.2558C62.753 65.2558 63.1918 65.628 63.3245 66.2742C63.4369 66.8273 63.5543 67.3753 63.6767 67.9284L64.0493 69.6343C64.2534 70.5493 64.4525 71.4694 64.6414 72.3845C64.7587 72.9583 65.2845 73.4287 65.8102 73.4287C68.3008 73.4391 70.7915 73.4391 73.2823 73.4287C73.8641 73.4287 74.4204 72.8652 74.451 72.2501C74.4969 71.2834 74.548 70.3219 74.599 69.3604L74.7572 66.4448C74.8083 65.5298 74.8594 64.6148 74.9053 63.6998C74.9254 63.2862 74.9461 62.8727 74.9662 62.4591C74.992 61.9525 75.0127 61.4511 75.0429 60.9445C75.0837 60.2518 75.1246 59.5591 75.1654 58.8663C75.2219 57.9462 75.2779 57.0209 75.3237 56.1007C75.3853 54.9376 75.4412 53.7745 75.4971 52.6113L75.5889 50.7503C75.6146 50.2644 75.6404 49.7785 75.6706 49.2926C75.7321 48.2845 75.7931 47.2455 75.8088 46.2271C75.8339 44.3196 75.1912 42.5361 73.8998 40.9232C73.8334 40.8405 73.7773 40.7578 73.716 40.6493L72.9454 39.4396L74.3183 39.3414C74.3949 39.331 74.5072 39.3207 74.6348 39.3362C77.6718 39.7549 80.1467 42.624 80.1517 45.7256V46.8061C80.1574 49.7578 80.1574 52.7096 80.1467 55.6613C80.1467 56.1938 80.2133 56.4988 80.4024 56.7314C80.5243 56.7779 80.6418 56.8037 80.775 56.8192L81.0094 56.8348C81.0301 56.8296 81.0502 56.8296 81.0659 56.8245C81.081 56.8141 81.0961 56.8037 81.1118 56.7934L81.1577 56.7624C81.4586 56.5504 81.4894 56.292 81.4844 55.6148C81.4844 54.3586 81.4844 53.1386 81.4844 51.9135C81.4844 49.9749 81.4844 48.0364 81.4794 46.0979C81.4737 45.0381 81.3462 44.1283 81.081 43.327C80.0349 40.1064 77.0742 37.9198 73.7211 37.8888C69.8984 37.8526 66.1317 37.8371 61.6454 37.8268C56.8274 37.8164 52.0042 37.806 47.1861 37.8009L40.9441 37.7905H40.8879C40.791 37.7905 40.694 37.7957 40.597 37.7802C40.495 37.7647 40.3929 37.7441 40.301 37.7233L39.811 37.62L39.6681 37.2064C39.4334 36.5137 39.714 35.8882 40.3929 35.6142C40.4796 35.578 40.5664 35.5419 40.6481 35.5005C42.3068 34.6475 43.5164 33.319 44.3433 31.4424C44.6087 30.8376 44.8689 30.1915 44.8894 29.5298C44.8944 29.3075 44.8588 29.142 44.7924 29.0697C44.7261 28.9973 44.5576 28.956 44.3433 28.956C43.3327 28.9456 42.317 28.9405 41.3064 28.9353L39.2445 28.9198C39.1271 28.9198 39.0046 28.9095 38.877 28.9043L38.0196 28.8577L37.9736 27.9945C37.9634 27.8652 37.9583 27.7515 37.9583 27.6378C37.9583 27.369 37.9583 27.1001 37.9583 26.8313C37.9583 26.3041 37.9634 25.7768 37.9481 25.2495C37.943 25.0065 37.9277 24.6498 37.846 24.3448C37.5551 23.2592 36.3812 22.3132 34.9113 22.6131C33.9467 22.8095 33.1096 23.7142 33.0433 24.6291C32.9974 25.2857 32.9871 25.937 32.982 26.6297C32.9769 26.9502 32.9769 27.2759 32.9667 27.5964C32.9463 27.7205 32.9361 27.8549 32.9259 27.9893L32.8748 28.8785H25.4436V27.5344C25.4436 27.2604 25.4487 26.9864 25.4487 26.7124C25.4538 26.1335 25.4589 25.5338 25.4385 24.9548C25.4079 24.1587 25.0302 23.4453 24.3973 23.0008C23.7491 22.5459 22.9172 22.4373 22.1108 22.7009C21.1105 23.0318 20.452 24.0192 20.4622 25.1513C20.4725 25.8388 20.4673 26.5263 20.4622 27.2139V27.6223C20.4622 27.7515 20.452 27.8756 20.4418 28.0151L20.3806 28.9043L17.8133 28.9146C16.5527 28.925 15.292 28.9301 14.0314 28.9405C13.8425 28.9405 13.6894 28.9922 13.6077 29.0801C13.5363 29.1731 13.5261 29.323 13.5312 29.4316C13.5618 29.84 13.6894 30.2845 13.8272 30.6981C14.5468 32.9054 15.8892 34.5183 17.8133 35.4901C18.4972 35.8365 18.8035 36.3431 18.7984 37.134C18.7779 41.7142 18.7779 46.1806 18.7984 50.4195C18.8035 51.0605 18.8647 51.5878 18.9974 52.0324C19.7834 54.6843 21.4524 56.2351 24.0962 56.7727C24.2136 56.7986 24.331 56.8348 24.4331 56.8865C24.4432 56.8916 24.4483 56.8916 24.4586 56.8968C24.4739 56.902 24.4892 56.9072 24.5045 56.9123C24.5351 56.9175 24.5658 56.9278 24.5964 56.933C24.6423 56.9382 24.6882 56.9433 24.7342 56.9537C24.9332 56.9588 25.1323 56.9692 25.3313 56.9743C25.362 56.9743 25.4232 56.9743 25.4844 56.9743C25.8111 56.964 26.1378 56.964 26.4644 56.964H26.5614C26.6838 56.9537 26.8063 56.9485 26.9288 56.9485H32.293V57.0416C32.9514 57.1966 33.4516 57.6102 33.7578 58.2564C33.9109 58.582 34.1151 59.068 34.1355 59.5746C34.1508 59.6521 34.1559 59.7297 34.1559 59.8021C34.1559 60.045 34.1559 60.2983 34.1814 60.5413C34.1865 60.624 34.1814 60.7015 34.1763 60.7739ZM24.137 58.4063C24.1523 58.4115 24.1677 58.4166 24.1778 58.4218L24.137 58.4063ZM37.0856 72.1466C36.1669 72.1466 35.8045 71.7796 35.7993 70.8336L35.7432 60.929C35.7381 59.7194 35.7279 58.5097 35.7075 57.3052C35.6973 56.721 35.932 56.2868 36.4323 55.987C37.8665 55.1289 38.8515 53.883 39.3568 52.296C39.4946 51.8618 39.5711 51.3448 39.5711 50.802C39.5865 48.2587 39.5865 45.7153 39.5865 43.1719V40.6234V40.4735C39.5865 40.396 39.5865 40.3236 39.5865 40.246C39.5711 39.8273 39.7396 39.5688 39.8774 39.4189C40.0152 39.2742 40.2602 39.0881 40.6787 39.1036H42.2507C43.7053 39.1036 45.165 39.1036 46.6196 39.1036H47.181H67.525V39.1967C68.2447 39.1967 68.9592 39.1914 69.6789 39.1914C69.684 39.1914 69.684 39.1914 69.6891 39.1914C70.225 39.1914 70.6639 39.3931 71.0212 39.8118C71.404 40.2512 71.8226 40.7061 72.2717 41.1714C73.8896 42.8256 74.6296 44.8106 74.4817 47.0645C74.4102 48.1553 74.354 49.2461 74.303 50.3368L73.9202 57.755C73.8028 60.0398 73.6803 62.3247 73.5578 64.6096C73.4966 65.7521 73.4302 66.8894 73.3639 68.0318L73.1189 72.1363H66.0245L65.8816 71.5522C65.5193 70.0944 65.1875 68.6004 64.8659 67.1582C64.6312 66.0985 64.3913 65.0335 64.1412 63.9634C57.7154 63.9634 51.2948 63.9583 44.8689 63.9634C44.7056 64.7078 44.5321 65.4522 44.3586 66.1967L43.9962 67.763C43.7512 68.8434 43.5062 69.9238 43.2663 71.0042C43.0724 71.8933 42.7509 72.157 41.8883 72.157L37.0856 72.1466ZM37.2386 57.3052C37.2591 58.5355 37.2693 59.7297 37.2744 60.9187L37.3306 70.5958H41.7913C42.0261 69.5154 42.2711 68.4609 42.511 67.4011L42.8733 65.8296C43.052 65.0645 43.2255 64.2994 43.394 63.5344C43.5573 62.8003 43.8176 62.3971 44.7414 62.3971C51.2641 62.3971 57.7869 62.3971 64.3045 62.3971C64.427 62.3971 64.5495 62.4074 64.6771 62.4229L65.361 62.485L65.4937 63.0278C65.7948 64.2891 66.0756 65.5505 66.3562 66.8015C66.6319 68.0421 66.9177 69.319 67.2189 70.5752H71.6745L71.8327 67.9336C71.8991 66.7963 71.9654 65.659 72.0267 64.5166C72.1492 62.2317 72.2717 59.9519 72.389 57.667L72.7718 50.2541C72.828 49.153 72.879 48.0519 72.9505 46.956C73.073 45.1363 72.4911 43.601 71.1794 42.257C70.7099 41.7762 70.2658 41.2954 69.8677 40.8302C69.7912 40.7423 69.781 40.7423 69.6789 40.7423C68.7041 40.7475 67.7292 40.7475 66.7543 40.7475H65.9888V40.6544L47.1759 40.6596C45.5324 40.6596 43.889 40.6596 42.2456 40.6596H41.1074V43.1719C41.1074 45.7205 41.1125 48.269 41.0921 50.8175C41.087 51.5154 40.9849 52.1926 40.8011 52.7716C40.1938 54.7205 38.9893 56.2455 37.2386 57.3052ZM40.6684 40.6544C40.6634 40.6544 40.6634 40.6544 40.6684 40.6544V40.6544ZM25.6426 55.9456C24.2085 55.9456 23.0397 55.6044 22.0853 54.8962C20.5235 53.7487 19.7324 52.1306 19.7273 50.0886C19.7273 46.7751 19.7273 43.4614 19.7273 40.153V35.7797C19.7273 35.697 19.7273 35.609 19.7273 35.5264C19.7171 35.3144 19.6763 35.1438 19.222 35.0042C17.4765 34.4666 16.1137 33.2725 15.1797 31.458C15.1236 31.3495 15.0776 31.2305 15.0368 31.1116C14.9705 30.91 15.0011 30.7394 15.0113 30.667L15.1185 30.0209L15.7769 29.9537H28.4753V31.489C28.4753 31.825 28.4702 32.161 28.4702 32.497C28.46 33.2363 28.4498 33.9393 28.506 34.6372C28.6488 36.4206 29.1337 38.2248 29.9402 40.0031C30.6598 41.5901 31.5989 42.9858 32.7269 44.149C34.2886 45.7567 35.9576 46.8061 37.8358 47.3592C38.632 47.597 38.6677 48.238 38.6627 48.4293C38.6524 48.7446 38.6576 49.0548 38.6677 49.3701C38.6882 50.0576 38.7035 50.7711 38.5401 51.5154C38.1319 53.3454 37.0549 54.6739 35.3298 55.4649C34.6255 55.7905 33.8548 55.9405 32.8953 55.9405H30.2668C28.7356 55.9405 27.1994 55.9405 25.6682 55.9456C25.658 55.9456 25.6529 55.9456 25.6426 55.9456ZM16.9916 31.5097C17.6857 32.5229 18.5687 33.1846 19.666 33.5258C20.993 33.9342 21.2329 34.9163 21.2533 35.4695C21.2584 35.578 21.2584 35.6917 21.2584 35.8003V40.1633C21.2584 43.4769 21.2584 46.7854 21.2584 50.099C21.2584 51.6343 21.825 52.7974 22.9835 53.6504C23.6828 54.1673 24.5453 54.4 25.6631 54.4C27.1994 54.3948 28.7305 54.3948 30.2668 54.3948H32.8953C33.6251 54.3948 34.1968 54.2863 34.697 54.0588C35.978 53.4695 36.7487 52.5235 37.0447 51.1742C37.1672 50.6211 37.1519 50.0318 37.1366 49.4114C37.1315 49.1943 37.1264 48.9773 37.1264 48.7601C35.1206 48.1088 33.278 46.9301 31.6346 45.2345C30.3842 43.9473 29.343 42.4017 28.5519 40.6493C27.6689 38.7056 27.1432 36.7257 26.985 34.7612C26.9237 33.991 26.934 33.2207 26.9441 32.4764C26.9492 32.1559 26.9544 31.8302 26.9492 31.5097H16.9916ZM34.5438 43.5958H34.5387C33.9671 43.5958 33.3955 43.3425 32.9719 42.9031C32.5533 42.4689 32.3185 41.8899 32.3339 41.3161C32.3645 40.1219 33.3597 39.1243 34.5132 39.1243C34.5234 39.1243 34.5336 39.1243 34.5387 39.1243C35.1461 39.1346 35.7688 39.4293 36.1924 39.9152C36.5803 40.3546 36.764 40.8922 36.7181 41.4247C36.6926 42.6033 35.7024 43.5958 34.5438 43.5958ZM34.5132 40.6699C34.1968 40.6699 33.8752 41.0111 33.865 41.3523C33.8599 41.5074 33.9364 41.6832 34.0691 41.8175C34.2018 41.9571 34.3805 42.045 34.5438 42.045C34.8603 42.045 35.1869 41.7038 35.192 41.3678L35.1971 41.2954C35.2073 41.192 35.1512 41.0576 35.0491 40.9439C34.9062 40.7837 34.7021 40.6751 34.5183 40.6751C34.5183 40.6699 34.5183 40.6699 34.5132 40.6699ZM24.2289 28.8887H21.6106L21.483 28.1754C21.4626 28.0823 21.4371 27.9583 21.4371 27.8135C21.432 26.9606 21.4269 26.1076 21.4371 25.2547C21.4422 24.9341 21.4932 24.655 21.5953 24.4172C21.8607 23.8124 22.5854 23.4143 23.2081 23.5384C23.9431 23.6831 24.4637 24.3086 24.4739 25.0634C24.4841 25.8026 24.479 26.547 24.4739 27.2863L24.4688 27.9221C24.4688 28.0823 24.4279 28.2064 24.4024 28.2788L24.2289 28.8887ZM23.004 25.0634C23.004 25.0634 22.9989 25.0634 22.9989 25.0686C23.004 25.0634 23.009 25.0634 23.004 25.0634C23.009 25.0634 23.009 25.0634 23.004 25.0634ZM36.9529 28.8785H33.9212V27.2035C33.9212 26.4695 33.916 25.7561 33.9314 25.0427C33.9467 24.2569 34.5744 23.5849 35.3605 23.5229C35.7483 23.4919 36.1618 23.6418 36.4731 23.9209C36.7691 24.1898 36.9375 24.5413 36.9477 24.9186C36.9681 25.6786 36.9681 26.4488 36.9631 27.1932L36.9529 28.8785Z" fill="black"/>
<path d="M71.7307 41.7088C71.2918 41.259 70.863 40.7938 70.4497 40.3182C70.2353 40.0752 70.0158 39.9615 69.6841 39.9666C69.0052 39.9718 68.3315 39.9718 67.6527 39.9718V39.8994H48.8398C48.6765 39.8943 48.5081 39.8839 48.3448 39.8839C45.9 39.8788 43.4553 39.8788 41.0156 39.8788C40.8982 39.8788 40.7859 39.8788 40.6686 39.8788C40.4439 39.8788 40.3368 39.9925 40.347 40.2199C40.3521 40.3544 40.347 40.4888 40.347 40.6232C40.347 44.0195 40.3572 47.4107 40.3368 50.807C40.3317 51.3859 40.2551 51.9856 40.0867 52.5336C39.5202 54.317 38.4228 55.7024 36.8253 56.6588C36.5599 56.819 36.4731 56.9896 36.4782 57.2946C36.5037 58.68 36.5089 60.0706 36.5191 61.4561C36.5395 64.5835 36.5548 67.7059 36.5752 70.8334C36.5803 71.3607 36.5957 71.3762 37.0958 71.3762C38.6985 71.3762 40.3011 71.3762 41.8986 71.3762C42.4192 71.3762 42.414 71.3659 42.5315 70.8283C42.7866 69.6703 43.0469 68.5175 43.3123 67.3647C43.588 66.1447 43.8789 64.9299 44.1494 63.7099C44.2566 63.224 44.277 63.1826 44.7516 63.1826C51.2744 63.1826 57.7921 63.1826 64.3148 63.1826C64.4577 63.1826 64.6006 63.2033 64.7588 63.2188C65.4172 65.9534 65.9633 68.6726 66.6319 71.3555C68.5816 71.3555 70.4598 71.3555 72.4044 71.3555C72.4605 70.4405 72.5116 69.5772 72.5626 68.7139C72.6443 67.3337 72.726 65.9483 72.8025 64.568C72.925 62.2831 73.0475 59.9982 73.1649 57.7185C73.2721 55.7179 73.3742 53.7174 73.4762 51.7168C73.5579 50.1505 73.6242 48.5841 73.7263 47.0178C73.859 44.9241 73.1649 43.1769 71.7307 41.7088Z" fill="white"/>
<path d="M50.6006 48.4652C53.4588 48.4652 55.776 46.1184 55.776 43.2234C55.776 40.3284 53.4588 37.9816 50.6006 37.9816C47.7423 37.9816 45.4253 40.3284 45.4253 43.2234C45.4253 46.1184 47.7423 48.4652 50.6006 48.4652Z" fill="black"/>
<path d="M65.3507 58.8196C67.7551 58.8196 69.7043 56.8454 69.7043 54.4101C69.7043 51.9748 67.7551 50.0006 65.3507 50.0006C62.9463 50.0006 60.9971 51.9748 60.9971 54.4101C60.9971 56.8454 62.9463 58.8196 65.3507 58.8196Z" fill="black"/>
<path d="M50.7181 64.8369C53.1118 64.7594 55.4647 65.0902 57.8226 65.4314C57.8839 65.4314 57.9452 65.4314 58.0013 65.4314C58.0524 65.0851 58.083 64.7284 58.083 64.3665C58.083 60.4998 54.9849 57.3619 51.1672 57.3619C47.3495 57.3619 44.2515 60.4998 44.2515 64.3665C44.2515 65.0489 44.3484 65.7054 44.527 66.3309C46.145 64.6818 48.6153 64.9041 50.7181 64.8369Z" fill="black"/>
<path d="M53.9539 37.6249C53.7957 37.6249 53.6476 37.6042 53.4996 37.5629C52.9025 38.2298 52.5503 39.031 52.5503 39.8891C52.5503 42.2257 55.1329 44.1229 58.3228 44.1229C61.5076 44.1229 64.0953 42.2257 64.0953 39.8891C64.0953 39.0568 63.7686 38.2814 63.2021 37.6249H53.9539Z" fill="black"/>
<path d="M33.1045 41.3468C33.0279 40.4112 33.8701 39.7805 34.605 39.7857C35.4727 39.7909 36.1719 40.5146 36.1566 41.3882C36.1413 42.2412 35.4267 42.9442 34.5948 42.9287C33.7271 42.9132 33.0994 42.2463 33.1045 41.3468Z" fill="white"/>
<path d="M23.8411 27.4255C23.1316 27.4255 22.4528 27.4255 21.7485 27.4255C21.7179 27.2808 21.6719 27.1567 21.6719 27.0327C21.6668 25.9419 21.6617 26.2624 21.6719 25.1717C21.677 24.9442 21.7076 24.6961 21.8148 24.4893C22.0037 24.1171 22.5753 23.869 22.9581 23.931C23.494 24.0189 23.9125 24.4169 23.9227 24.9287C23.9431 26.1487 23.9279 25.9574 23.9227 27.1774C23.9227 27.2343 23.887 27.2963 23.8411 27.4255Z" fill="white"/>
<path d="M36.4783 27.4255C35.7689 27.4255 35.09 27.4255 34.3857 27.4255C34.3551 27.2808 34.3091 27.1567 34.3091 27.0327C34.304 25.9419 34.2989 26.2624 34.3091 25.1717C34.3142 24.9442 34.3448 24.6961 34.452 24.4893C34.6409 24.1171 35.2125 23.869 35.5953 23.931C36.1312 24.0189 36.5497 24.4169 36.5599 24.9287C36.5803 26.1487 36.5651 25.9574 36.5599 27.1774C36.5599 27.2343 36.5242 27.2963 36.4783 27.4255Z" fill="white"/>
</svg>
