<svg width="606" height="662" viewBox="0 0 606 662" fill="none" xmlns="http://www.w3.org/2000/svg">
<circle cx="303" cy="303.273" r="302.909" fill="url(#paint0_radial_703_3)"/>
<path d="M68.0908 624.727C68.0908 611.071 79.1616 600 92.8181 600H513.182C526.838 600 537.909 611.071 537.909 624.727V655.636C537.909 659.05 535.141 661.818 531.727 661.818H74.2726C70.8585 661.818 68.0908 659.05 68.0908 655.636V624.727Z" fill="url(#paint1_radial_703_3)"/>
<path d="M68.0908 624.727C68.0908 611.071 79.1616 600 92.8181 600H513.182C526.838 600 537.909 611.071 537.909 624.727V655.636C537.909 659.05 535.141 661.818 531.727 661.818H74.2726C70.8585 661.818 68.0908 659.05 68.0908 655.636V624.727Z" fill="url(#paint2_linear_703_3)" fill-opacity="0.5" style="mix-blend-mode:hard-light"/>
<rect x="259.728" y="389.818" width="86.5455" height="210.182" fill="url(#paint3_linear_703_3)"/>
<path fill-rule="evenodd" clip-rule="evenodd" d="M162.473 117.821L195.963 117.818C197.919 117.818 199.795 118.594 201.178 119.976C202.561 121.358 203.338 123.233 203.338 125.187V205.857L240.591 242.773C243.483 245.638 243.502 250.304 240.634 253.194C237.766 256.084 233.097 256.103 230.205 253.237L190.865 214.254L147.842 174.597V206.991C147.842 211.061 144.54 214.36 140.467 214.36H100.193C96.1202 214.36 92.8184 211.061 92.8184 206.991C92.8184 202.921 96.1202 199.622 100.193 199.622H133.092V157.774C133.092 154.847 134.825 152.198 137.508 151.024C140.191 149.85 143.315 150.373 145.467 152.357L188.588 192.104V132.557L162.474 132.559C158.401 132.56 155.099 129.261 155.099 125.191C155.098 121.121 158.4 117.822 162.473 117.821ZM404.823 119.976C406.206 118.594 408.082 117.818 410.038 117.818L443.527 117.821C447.6 117.822 450.902 121.121 450.902 125.191C450.901 129.261 447.599 132.56 443.526 132.559L417.412 132.557V192.104L460.533 152.357C462.686 150.373 465.81 149.85 468.492 151.024C471.175 152.198 472.908 154.847 472.908 157.774V199.622H505.807C509.88 199.622 513.182 202.921 513.182 206.991C513.182 211.061 509.88 214.36 505.807 214.36H465.534C461.461 214.36 458.159 211.061 458.159 206.991V174.597L415.136 214.254L375.796 253.237C372.904 256.103 368.234 256.084 365.366 253.194C362.498 250.304 362.518 245.638 365.41 242.773L402.662 205.857V125.187C402.662 123.233 403.44 121.358 404.823 119.976ZM240.634 353.352C243.502 356.242 243.483 360.907 240.591 363.773L203.338 400.689V481.358C203.338 483.313 202.561 485.187 201.178 486.569C199.795 487.951 197.919 488.728 195.963 488.727L162.473 488.725C158.4 488.724 155.098 485.425 155.099 481.355C155.099 477.285 158.401 473.986 162.474 473.986L188.588 473.989V414.442L145.467 454.188C143.315 456.173 140.191 456.696 137.508 455.522C134.825 454.348 133.092 451.699 133.092 448.772V406.924H100.193C96.1202 406.924 92.8184 403.625 92.8184 399.555C92.8184 395.485 96.1202 392.186 100.193 392.186H140.467C144.54 392.186 147.842 395.485 147.842 399.555V431.949L190.865 392.292L230.205 353.308C233.097 350.443 237.766 350.462 240.634 353.352ZM365.366 353.352C368.234 350.462 372.904 350.443 375.796 353.308L415.135 392.292L458.159 431.949V399.555C458.159 395.485 461.461 392.186 465.534 392.186H505.807C509.88 392.186 513.182 395.485 513.182 399.555C513.182 403.625 509.88 406.924 505.807 406.924H472.908V448.772C472.908 451.699 471.175 454.348 468.492 455.522C465.81 456.696 462.686 456.173 460.533 454.188L417.412 414.442V473.989L443.526 473.986C447.599 473.986 450.901 477.285 450.902 481.355C450.902 485.425 447.6 488.724 443.527 488.725L410.038 488.727C408.082 488.728 406.206 487.951 404.823 486.569C403.44 485.187 402.662 483.313 402.662 481.358V400.689L365.41 363.773C362.518 360.907 362.498 356.242 365.366 353.352Z" fill="white"/>
<circle cx="303" cy="303.273" r="98.9091" fill="#AF70FF"/>
<circle cx="303" cy="303.273" r="98.9091" fill="url(#paint4_angular_703_3)"/>
<circle cx="303" cy="303.273" r="302.909" fill="url(#paint5_radial_703_3)"/>
<defs>
<radialGradient id="paint0_radial_703_3" cx="0" cy="0" r="1" gradientUnits="userSpaceOnUse" gradientTransform="translate(173.182 173.455) rotate(45) scale(572.628)">
<stop stop-color="white"/>
<stop offset="0.433964" stop-color="#D662FF"/>
<stop offset="0.69897" stop-color="#5316A0"/>
<stop offset="0.948688" stop-color="#491C6E"/>
</radialGradient>
<radialGradient id="paint1_radial_703_3" cx="0" cy="0" r="1" gradientUnits="userSpaceOnUse" gradientTransform="translate(303 575.273) rotate(90) scale(136 234.909)">
<stop stop-color="#3F0369"/>
<stop offset="1" stop-color="#9434DC"/>
</radialGradient>
<linearGradient id="paint2_linear_703_3" x1="303" y1="600" x2="303" y2="661.818" gradientUnits="userSpaceOnUse">
<stop stop-opacity="0"/>
<stop offset="1"/>
</linearGradient>
<linearGradient id="paint3_linear_703_3" x1="303" y1="340.364" x2="303" y2="519.637" gradientUnits="userSpaceOnUse">
<stop stop-color="#250074"/>
<stop offset="1" stop-color="#9B70FF" stop-opacity="0"/>
</linearGradient>
<radialGradient id="paint4_angular_703_3" cx="0" cy="0" r="1" gradientUnits="userSpaceOnUse" gradientTransform="translate(303 303.273) rotate(90) scale(206.599)">
<stop offset="0.135323" stop-color="white" stop-opacity="0"/>
<stop offset="0.252677" stop-color="white"/>
<stop offset="0.359832" stop-color="white" stop-opacity="0"/>
<stop offset="0.502036" stop-color="white"/>
<stop offset="0.640129" stop-color="white" stop-opacity="0"/>
<stop offset="0.752213" stop-color="white" stop-opacity="0.6"/>
<stop offset="0.865309" stop-color="white" stop-opacity="0"/>
<stop offset="0.999983" stop-color="white" stop-opacity="0.6"/>
</radialGradient>
<radialGradient id="paint5_radial_703_3" cx="0" cy="0" r="1" gradientUnits="userSpaceOnUse" gradientTransform="translate(278.273 278.546) rotate(45) scale(463.348)">
<stop offset="0.40403" stop-color="#C31AFF" stop-opacity="0"/>
<stop offset="0.707846" stop-color="#4B0A81"/>
</radialGradient>
</defs>
</svg>
