<svg width="96" height="96" viewBox="0 0 96 96" fill="none" xmlns="http://www.w3.org/2000/svg">
<circle cx="48" cy="48" r="48" fill="#FFF9F0"/>
<path d="M48 0C21.504 0 0 21.504 0 48C0 74.496 21.504 96 48 96C74.496 96 96 74.496 96 48C96 21.504 74.496 0 48 0ZM51.84 50.256L68.688 67.104C70.08 68.496 69.888 70.704 68.352 71.904C63.168 75.984 56.688 78.384 49.584 78.384C31.632 78.384 17.328 62.832 19.392 44.496C20.976 30.432 32.4 19.152 46.512 17.76C54.864 16.944 62.592 19.488 68.496 24.192C69.984 25.344 70.032 27.6 68.688 28.896L51.84 45.744C50.592 46.992 50.592 49.008 51.84 50.256Z" fill="#69E2DC"/>
</svg>
