<svg xmlns="http://www.w3.org/2000/svg" width="200" height="200" fill="none" viewBox="0 0 200 200"><rect width="200" height="200" fill="#4A21EF" rx="100"/><path fill="#fff" d="M93.1003 44C89.6916 44 86.4225 45.3541 84.0122 47.7645L46.151 85.6265C44.717 87.0606 44 88.9401 44 90.8197C44 92.6992 44.717 94.5788 46.1511 96.0128L70.9627 120.825V76.8988C70.9627 73.6206 73.5993 70.9632 76.8774 70.9632C90.7267 70.9632 124.438 70.9632 129.036 70.9632L155.999 44.0004L93.1003 44Z"/><path fill="#fff" d="M70.9639 129.037H123.102C126.38 129.037 129.037 126.379 129.037 123.101V79.1753L153.849 103.987C155.283 105.421 156 107.301 156 109.18C156 111.06 155.283 112.939 153.849 114.373L115.988 152.236C113.577 154.646 110.308 156 106.9 156L44.0012 156L70.9639 129.037Z"/></svg>