<svg width="96" height="96" viewBox="0 0 96 96" fill="none" xmlns="http://www.w3.org/2000/svg">
<circle cx="48" cy="48" r="48" fill="white"/>
<path d="M49.2523 14L38.0476 23.6142L21.0669 56.3748L23.9368 63.9347L37.5824 80.4691L45.9957 82L60.0499 79.7902L70.2267 73.3933L71.5439 65.1748L69.3341 45.2472L49.2523 14Z" fill="url(#paint0_linear_1488_eternal)"/>
<path d="M66.5053 46.1405L53.1766 27.1753L47.9341 31.1748L49.5624 55.7154L52.3159 59.6698L66.5053 46.1405Z" fill="url(#paint1_linear_1488_eternal)"/>
<path d="M69.3336 45.2478L66.5045 46.1405L61.813 33.6172L69.3336 45.2478Z" fill="url(#paint2_linear_1488_eternal)"/>
<path d="M48.4471 55.2489L42.9429 57.575L31.4475 47.0304L39.1819 28.6147L46.483 31.4061L48.4471 55.2489Z" fill="url(#paint3_linear_1488_eternal)"/>
<path opacity="0.8" d="M48.4471 55.2489L42.9429 57.575L31.4475 47.0304L39.1819 28.6147L46.483 31.4061L48.4471 55.2489Z" fill="url(#paint4_linear_1488_eternal)"/>
<path d="M66.5053 46.1398L61.3486 32.9187L49.2527 14L52.6634 26.4448L66.5053 46.1398Z" fill="white"/>
<path d="M52.6632 26.4448H51.8491L47.2753 30.0692L39.4043 27.4523L38.0479 23.6142L49.2525 14L52.6632 26.4448Z" fill="url(#paint5_linear_1488_eternal)"/>
<path d="M37.3495 24.6616L38.5911 27.6478L29.8681 46.6828L21.2222 56.0265L37.3495 24.6616Z" fill="url(#paint6_linear_1488_eternal)"/>
<path d="M29.9063 48.2705L22.0759 56.0252L40.1805 76.533L41.4991 58.4284L29.9063 48.2705Z" fill="url(#paint7_linear_1488_eternal)"/>
<path d="M41.1484 76.5331L59.6034 72.5016L48.8261 56.0254L43.0108 58.5841L41.1484 76.5331Z" fill="url(#paint8_linear_1488_eternal)"/>
<path d="M60.2245 72.2301L67.7844 62.5767L66.5051 46.1396L52.3157 59.669L60.2245 72.2301Z" fill="url(#paint9_linear_1488_eternal)"/>
<path d="M70.2267 73.3936H60.5718L40.6849 77.5428L37.8921 80.4112L45.9957 82.0002L60.0499 79.7904L70.2267 73.3936Z" fill="url(#paint10_linear_1488_eternal)"/>
<path d="M70.2267 73.3937L68.2495 62.5772L66.5049 46.1402L69.334 45.2476L71.5439 65.1752L70.2267 73.3937Z" fill="url(#paint11_linear_1488_eternal)"/>
<path d="M67.7843 63.9346L61.2319 72.4249L69.4126 72.7739L67.7843 63.9346Z" fill="url(#paint12_linear_1488_eternal)"/>
<path d="M37.341 79.9306L39.8809 76.9808L21 56.3945L23.8684 63.6448L37.341 79.9306Z" fill="#B80088"/>
<path d="M49.2523 14L38.0476 23.6142L21.0669 56.3748L23.9368 63.9347L37.5824 80.4691L45.9957 82L60.0499 79.7902L70.2267 73.3933L71.5439 65.1748L69.3341 45.2472L49.2523 14Z" fill="url(#paint13_linear_1488_eternal)"/>
<path d="M49.2523 14L38.0476 23.6142L21.0669 56.3748L23.9368 63.9347L37.5824 80.4691L45.9957 82L60.0499 79.7902L70.2267 73.3933L71.5439 65.1748L69.3341 45.2472L49.2523 14Z" fill="url(#paint14_linear_1488_eternal)"/>
<path style="mix-blend-mode:multiply" d="M60.2245 72.2301L67.7844 62.5767L66.5051 46.1396L52.3157 59.669L60.2245 72.2301Z" fill="url(#paint15_linear_1488_eternal)"/>
<path style="mix-blend-mode:multiply" opacity="0.32" d="M37.3495 24.6616L38.5911 27.6478L29.8681 46.6828L21.2222 56.0265L37.3495 24.6616Z" fill="url(#paint16_linear_1488_eternal)"/>
<path d="M70.2267 73.3936H60.5718L40.6849 77.5428L37.8921 80.4112L45.9957 82.0002L60.0499 79.7904L70.2267 73.3936Z" fill="url(#paint17_linear_1488_eternal)"/>
<path d="M70.2267 73.3936H60.5718L40.6849 77.5428L37.8921 80.4112L45.9957 82.0002L60.0499 79.7904L70.2267 73.3936Z" fill="url(#paint18_linear_1488_eternal)"/>
<path style="mix-blend-mode:multiply" opacity="0.32" d="M49.2523 14L38.0476 23.6142L21.0669 56.3748L23.9368 63.9347L37.5824 80.4691L45.9957 82L60.0499 79.7902L70.2267 73.3933L71.5439 65.1748L69.3341 45.2472L49.2523 14Z" fill="url(#paint19_linear_1488_eternal)"/>
<path style="mix-blend-mode:color-dodge" opacity="0.32" d="M49.2523 14L38.0476 23.6142L21.0669 56.3748L23.9368 63.9347L37.5824 80.4691L45.9957 82L60.0499 79.7902L70.2267 73.3933L71.5439 65.1748L69.3341 45.2472L49.2523 14Z" fill="url(#paint20_radial_1488_eternal)"/>
<path style="mix-blend-mode:color-dodge" opacity="0.32" d="M49.2523 14L38.0476 23.6142L21.0669 56.3748L23.9368 63.9347L37.5824 80.4691L45.9957 82L60.0499 79.7902L70.2267 73.3933L71.5439 65.1748L69.3341 45.2472L49.2523 14Z" fill="url(#paint21_radial_1488_eternal)"/>
<path style="mix-blend-mode:color-dodge" opacity="0.32" d="M49.2523 14L38.0476 23.6142L21.0669 56.3748L23.9368 63.9347L37.5824 80.4691L45.9957 82L60.0499 79.7902L70.2267 73.3933L71.5439 65.1748L69.3341 45.2472L49.2523 14Z" fill="url(#paint22_radial_1488_eternal)"/>
<path style="mix-blend-mode:color-dodge" opacity="0.32" d="M49.2523 14L38.0476 23.6142L21.0669 56.3748L23.9368 63.9347L37.5824 80.4691L45.9957 82L60.0499 79.7902L70.2267 73.3933L71.5439 65.1748L69.3341 45.2472L49.2523 14Z" fill="url(#paint23_radial_1488_eternal)"/>
<path d="M49.2523 14L38.0476 23.6142L21.0669 56.3748L23.9368 63.9347L37.5824 80.4691L45.9957 82L60.0499 79.7902L70.2267 73.3933L71.5439 65.1748L69.3341 45.2472L49.2523 14Z" stroke="black" stroke-width="3" stroke-miterlimit="10"/>
<defs>
<linearGradient id="paint0_linear_1488_eternal" x1="44.5841" y1="75.231" x2="46.9102" y2="55.6915" gradientUnits="userSpaceOnUse">
<stop stop-color="#F372E3"/>
<stop offset="0.29" stop-color="#EB9CED"/>
<stop offset="0.6" stop-color="#E4C2F6"/>
<stop offset="0.85" stop-color="#E0D9FC"/>
<stop offset="1" stop-color="#DEE2FE"/>
</linearGradient>
<linearGradient id="paint1_linear_1488_eternal" x1="37.8576" y1="23.8518" x2="57.4552" y2="49.6137" gradientUnits="userSpaceOnUse">
<stop stop-color="#777AF7"/>
<stop offset="0.54" stop-color="#787CF7"/>
<stop offset="0.74" stop-color="#7A83F8"/>
<stop offset="0.87" stop-color="#7F8EF9"/>
<stop offset="0.99" stop-color="#869FFB"/>
<stop offset="1" stop-color="#87A2FB"/>
</linearGradient>
<linearGradient id="paint2_linear_1488_eternal" x1="64.2162" y1="40.078" x2="66.5423" y2="38.9731" gradientUnits="userSpaceOnUse">
<stop stop-color="#7CA4FB"/>
<stop offset="0.35" stop-color="#9BBFFC"/>
<stop offset="0.6" stop-color="#ACCEFC"/>
<stop offset="0.72" stop-color="#B3D3FC"/>
<stop offset="0.89" stop-color="#C8E1FE"/>
<stop offset="1" stop-color="#D9ECFF"/>
</linearGradient>
<linearGradient id="paint3_linear_1488_eternal" x1="40.0106" y1="54.7677" x2="39.6616" y2="34.4141" gradientUnits="userSpaceOnUse">
<stop offset="0.33" stop-color="#7C38EF"/>
<stop offset="1" stop-color="#7E69EA"/>
</linearGradient>
<linearGradient id="paint4_linear_1488_eternal" x1="46.0716" y1="32.5779" x2="38.628" y2="55.1413" gradientUnits="userSpaceOnUse">
<stop offset="0.01" stop-color="#7862EB"/>
<stop offset="0.04" stop-color="#745DEC"/>
<stop offset="0.18" stop-color="#614BEE"/>
<stop offset="0.34" stop-color="#5740F0"/>
<stop offset="0.51" stop-color="#533CF0"/>
<stop offset="1" stop-color="#7E69EA"/>
</linearGradient>
<linearGradient id="paint5_linear_1488_eternal" x1="49.8093" y1="27.9975" x2="44.1103" y2="20.4376" gradientUnits="userSpaceOnUse">
<stop stop-color="#ADB2FB"/>
<stop offset="0.52" stop-color="#AFB4FB"/>
<stop offset="0.71" stop-color="#B4BBFC"/>
<stop offset="0.84" stop-color="#BEC6FD"/>
<stop offset="0.95" stop-color="#CBD7FE"/>
<stop offset="1" stop-color="#D5E3FF"/>
</linearGradient>
<linearGradient id="paint6_linear_1488_eternal" x1="38.3875" y1="26.5211" x2="27.4547" y2="47.4562" gradientUnits="userSpaceOnUse">
<stop stop-color="#ADB2FB"/>
<stop offset="0.45" stop-color="#AFB2FB"/>
<stop offset="0.63" stop-color="#B6B2FC"/>
<stop offset="0.77" stop-color="#C2B2FC"/>
<stop offset="0.88" stop-color="#D4B1FD"/>
<stop offset="0.97" stop-color="#EAB1FF"/>
<stop offset="1" stop-color="#F2B1FF"/>
</linearGradient>
<linearGradient id="paint7_linear_1488_eternal" x1="22.0759" y1="62.4017" x2="41.4991" y2="62.4017" gradientUnits="userSpaceOnUse">
<stop stop-color="#C913A5"/>
<stop offset="0.07" stop-color="#CA0FAE"/>
<stop offset="0.32" stop-color="#CB04CA"/>
<stop offset="0.47" stop-color="#CC00D4"/>
<stop offset="0.58" stop-color="#C100CA"/>
<stop offset="0.79" stop-color="#A200B0"/>
<stop offset="1" stop-color="#7C0090"/>
</linearGradient>
<linearGradient id="paint8_linear_1488_eternal" x1="50.2887" y1="76.1508" x2="51.2191" y2="58.7048" gradientUnits="userSpaceOnUse">
<stop stop-color="#A700AA"/>
<stop offset="1" stop-color="#5300C8"/>
</linearGradient>
<linearGradient id="paint9_linear_1488_eternal" x1="56.9243" y1="69.8429" x2="64.1353" y2="49.7219" gradientUnits="userSpaceOnUse">
<stop stop-color="#BCABFE"/>
<stop offset="0.37" stop-color="#98A6FD"/>
<stop offset="0.6" stop-color="#87A4FC"/>
<stop offset="0.67" stop-color="#819DFB"/>
<stop offset="0.77" stop-color="#7288F9"/>
<stop offset="0.89" stop-color="#5966F5"/>
<stop offset="1" stop-color="#3E42F1"/>
</linearGradient>
<linearGradient id="paint10_linear_1488_eternal" x1="39.8577" y1="79.9736" x2="68.7017" y2="75.205" gradientUnits="userSpaceOnUse">
<stop stop-color="#8D009A"/>
<stop offset="0.01" stop-color="#8D009A"/>
<stop offset="0.6" stop-color="#7C0090"/>
<stop offset="0.71" stop-color="#7A0097"/>
<stop offset="0.86" stop-color="#7600AC"/>
<stop offset="1" stop-color="#7100C3"/>
</linearGradient>
<linearGradient id="paint11_linear_1488_eternal" x1="68.3861" y1="50.1702" x2="70.0144" y2="64.9411" gradientUnits="userSpaceOnUse">
<stop stop-color="#3E42F1"/>
<stop offset="0.01" stop-color="#3F44F1"/>
<stop offset="0.19" stop-color="#5864F5"/>
<stop offset="0.38" stop-color="#6C7EF7"/>
<stop offset="0.57" stop-color="#7A90F9"/>
<stop offset="0.77" stop-color="#829AFB"/>
<stop offset="1" stop-color="#859EFB"/>
</linearGradient>
<linearGradient id="paint12_linear_1488_eternal" x1="2917.85" y1="3711.64" x2="2411.39" y2="3332.81" gradientUnits="userSpaceOnUse">
<stop stop-color="#A700AA"/>
<stop offset="1" stop-color="#5300C8"/>
</linearGradient>
<linearGradient id="paint13_linear_1488_eternal" x1="29.6111" y1="48.8003" x2="66.2476" y2="47.172" gradientUnits="userSpaceOnUse">
<stop stop-color="#C711A5" stop-opacity="0.3"/>
<stop offset="0.22" stop-color="#C711A5" stop-opacity="0.29"/>
<stop offset="0.3" stop-color="#C812A6" stop-opacity="0.26"/>
<stop offset="0.36" stop-color="#CA14A8" stop-opacity="0.2"/>
<stop offset="0.41" stop-color="#CC17AB" stop-opacity="0.11"/>
<stop offset="0.45" stop-color="#CF1AAF" stop-opacity="0"/>
</linearGradient>
<linearGradient id="paint14_linear_1488_eternal" x1="49.6666" y1="79.5329" x2="44.5492" y2="46.6181" gradientUnits="userSpaceOnUse">
<stop stop-color="#C711A5" stop-opacity="0.1"/>
<stop offset="0.21" stop-color="#C812A6" stop-opacity="0.09"/>
<stop offset="0.29" stop-color="#CA15A9" stop-opacity="0.06"/>
<stop offset="0.34" stop-color="#CF1AAF" stop-opacity="0"/>
</linearGradient>
<linearGradient id="paint15_linear_1488_eternal" x1="56.9243" y1="69.8429" x2="64.1353" y2="49.7219" gradientUnits="userSpaceOnUse">
<stop stop-color="#606060" stop-opacity="0"/>
<stop offset="0.14" stop-color="#5C457D" stop-opacity="0.11"/>
<stop offset="0.33" stop-color="#58279E" stop-opacity="0.24"/>
<stop offset="0.54" stop-color="#5511B5" stop-opacity="0.33"/>
<stop offset="0.76" stop-color="#5404C3" stop-opacity="0.38"/>
<stop offset="1" stop-color="#5300C8" stop-opacity="0.4"/>
</linearGradient>
<linearGradient id="paint16_linear_1488_eternal" x1="31.7479" y1="41.6467" x2="29.7707" y2="40.6" gradientUnits="userSpaceOnUse">
<stop stop-color="#5100C8"/>
<stop offset="0.33" stop-color="#5202C8"/>
<stop offset="0.47" stop-color="#5409C9"/>
<stop offset="0.57" stop-color="#5815C9"/>
<stop offset="0.65" stop-color="#5F27CA"/>
<stop offset="0.73" stop-color="#673ECC"/>
<stop offset="0.79" stop-color="#705ACD"/>
<stop offset="0.85" stop-color="#7C7BCF"/>
<stop offset="0.9" stop-color="#8AA2D2"/>
<stop offset="0.95" stop-color="#99CDD4"/>
<stop offset="1" stop-color="#AAFFD7"/>
</linearGradient>
<linearGradient id="paint17_linear_1488_eternal" x1="55.2988" y1="78.6913" x2="49.2509" y2="69.9683" gradientUnits="userSpaceOnUse">
<stop stop-color="#510094" stop-opacity="0.5"/>
<stop offset="1" stop-color="#7100C3" stop-opacity="0"/>
</linearGradient>
<linearGradient id="paint18_linear_1488_eternal" x1="62.6668" y1="93.186" x2="54.0601" y2="76.9031" gradientUnits="userSpaceOnUse">
<stop stop-color="#9C20B6"/>
<stop offset="0.39" stop-color="#9B20B6" stop-opacity="0.99"/>
<stop offset="0.53" stop-color="#981EB4" stop-opacity="0.95"/>
<stop offset="0.62" stop-color="#941CB2" stop-opacity="0.89"/>
<stop offset="0.7" stop-color="#8D19AF" stop-opacity="0.79"/>
<stop offset="0.77" stop-color="#8416AB" stop-opacity="0.67"/>
<stop offset="0.83" stop-color="#7811A6" stop-opacity="0.52"/>
<stop offset="0.89" stop-color="#6B0BA0" stop-opacity="0.35"/>
<stop offset="0.94" stop-color="#5C0599" stop-opacity="0.15"/>
<stop offset="0.97" stop-color="#510094" stop-opacity="0"/>
</linearGradient>
<linearGradient id="paint19_linear_1488_eternal" x1="63.3356" y1="103.473" x2="45.1917" y2="50.7863" gradientUnits="userSpaceOnUse">
<stop stop-color="#510094"/>
<stop offset="0.16" stop-color="#520095" stop-opacity="0.97"/>
<stop offset="0.32" stop-color="#550099" stop-opacity="0.89"/>
<stop offset="0.49" stop-color="#5900A0" stop-opacity="0.75"/>
<stop offset="0.66" stop-color="#5F00A9" stop-opacity="0.55"/>
<stop offset="0.83" stop-color="#6800B5" stop-opacity="0.3"/>
<stop offset="1" stop-color="#7100C3" stop-opacity="0"/>
</linearGradient>
<radialGradient id="paint20_radial_1488_eternal" cx="0" cy="0" r="1" gradientUnits="userSpaceOnUse" gradientTransform="translate(53.246 25.5143) scale(52.9587)">
<stop stop-color="white"/>
<stop offset="0.05" stop-color="white" stop-opacity="0.81"/>
<stop offset="0.11" stop-color="white" stop-opacity="0.62"/>
<stop offset="0.17" stop-color="white" stop-opacity="0.45"/>
<stop offset="0.24" stop-color="white" stop-opacity="0.31"/>
<stop offset="0.3" stop-color="white" stop-opacity="0.2"/>
<stop offset="0.37" stop-color="white" stop-opacity="0.11"/>
<stop offset="0.45" stop-color="white" stop-opacity="0.05"/>
<stop offset="0.54" stop-color="white" stop-opacity="0.01"/>
<stop offset="0.66" stop-color="white" stop-opacity="0"/>
</radialGradient>
<radialGradient id="paint21_radial_1488_eternal" cx="0" cy="0" r="1" gradientUnits="userSpaceOnUse" gradientTransform="translate(10116.5 20013.5) scale(7985.96 10758.3)">
<stop stop-color="white"/>
<stop offset="0.05" stop-color="white" stop-opacity="0.81"/>
<stop offset="0.11" stop-color="white" stop-opacity="0.62"/>
<stop offset="0.17" stop-color="white" stop-opacity="0.45"/>
<stop offset="0.24" stop-color="white" stop-opacity="0.31"/>
<stop offset="0.3" stop-color="white" stop-opacity="0.2"/>
<stop offset="0.37" stop-color="white" stop-opacity="0.11"/>
<stop offset="0.45" stop-color="white" stop-opacity="0.05"/>
<stop offset="0.54" stop-color="white" stop-opacity="0.01"/>
<stop offset="0.66" stop-color="white" stop-opacity="0"/>
</radialGradient>
<radialGradient id="paint22_radial_1488_eternal" cx="0" cy="0" r="1" gradientUnits="userSpaceOnUse" gradientTransform="translate(59.5265 76.4565) scale(18.1147)">
<stop offset="0.02" stop-color="white"/>
<stop offset="0.08" stop-color="white" stop-opacity="0.81"/>
<stop offset="0.15" stop-color="white" stop-opacity="0.62"/>
<stop offset="0.22" stop-color="white" stop-opacity="0.45"/>
<stop offset="0.3" stop-color="white" stop-opacity="0.31"/>
<stop offset="0.38" stop-color="white" stop-opacity="0.2"/>
<stop offset="0.47" stop-color="white" stop-opacity="0.11"/>
<stop offset="0.56" stop-color="white" stop-opacity="0.05"/>
<stop offset="0.66" stop-color="white" stop-opacity="0.01"/>
<stop offset="0.81" stop-color="white" stop-opacity="0"/>
</radialGradient>
<radialGradient id="paint23_radial_1488_eternal" cx="0" cy="0" r="1" gradientUnits="userSpaceOnUse" gradientTransform="translate(9551.12 8698.28) scale(4010.4 5402.6)">
<stop offset="0.02" stop-color="white"/>
<stop offset="0.08" stop-color="white" stop-opacity="0.81"/>
<stop offset="0.15" stop-color="white" stop-opacity="0.62"/>
<stop offset="0.22" stop-color="white" stop-opacity="0.45"/>
<stop offset="0.3" stop-color="white" stop-opacity="0.31"/>
<stop offset="0.38" stop-color="white" stop-opacity="0.2"/>
<stop offset="0.47" stop-color="white" stop-opacity="0.11"/>
<stop offset="0.56" stop-color="white" stop-opacity="0.05"/>
<stop offset="0.66" stop-color="white" stop-opacity="0.01"/>
<stop offset="0.81" stop-color="white" stop-opacity="0"/>
</radialGradient>
</defs>
</svg>
