<svg xmlns="http://www.w3.org/2000/svg" width="96" height="96" fill="none" viewBox="0 0 96 96"><path fill="#F66" d="M14.0585 14.0585C-4.68618 32.8032 -4.68618 63.1941 14.0585 81.9388L81.9403 14.0585C63.1956 -4.68618 32.8032 -4.68618 14.0585 14.0585ZM39.5148 31.0294C34.8286 26.3432 34.8286 18.7447 39.5148 14.0585C44.201 9.37236 51.7994 9.37236 56.4841 14.0585C61.1703 18.7447 61.1703 26.3432 56.4841 31.0294C51.7979 35.7155 44.201 35.7155 39.5148 31.0294Z"/><path fill="#D95E59" d="M81.9374 81.9404C63.1972 63.1942 32.8048 63.1942 14.0586 81.9404L81.9374 14.0555C100.684 32.8018 100.684 63.1942 81.9374 81.9404Z"/><path fill="#FFF4C7" d="M81.9374 81.9403C63.1972 100.686 32.8048 100.686 14.0586 81.9403C32.8048 63.1941 63.1972 63.1941 81.9374 81.9403Z"/><path fill="#016273" d="M43.7568 18.3004C41.4137 20.6435 41.4137 24.4427 43.7568 26.7858C46.0999 29.1289 49.8992 29.1289 52.2422 26.7858C54.5853 24.4427 54.5853 20.6435 52.2422 18.3004C49.8992 15.9573 46.0999 15.9573 43.7568 18.3004Z"/><path fill="#fff" d="M44.9538 34.001C43.0769 33.4832 40.9076 32.1696 39.5101 30.7044C34.3769 25.3227 35.2865 16.7959 41.4288 12.7189C47.3976 8.757 55.3797 10.8923 58.5454 17.2976C61.8764 24.0375 58.4147 31.7919 51.1068 33.9601C49.5429 34.4241 46.5596 34.4439 44.9538 34.001ZM49.8528 28.3434C53.5298 27.2515 55.2141 22.6175 53.1484 19.2763C51.6038 16.7779 48.3008 15.7916 45.5055 16.9941C41.7551 18.6075 40.6936 23.5155 43.4381 26.5534C45.2122 28.5172 47.3031 29.1006 49.8528 28.3434Z"/></svg>