<svg width="96" height="96" viewBox="0 0 96 96" fill="none" xmlns="http://www.w3.org/2000/svg">
<circle cx="48" cy="48" r="48" fill="#A4DEFB"/>
<path d="M14.0171 76.8572L31.6519 65.1714L36.6327 61.8703L38.9983 60.2932C39.4476 60.0866 39.9341 59.9731 40.4284 59.9596L50.3575 59.738L63.0091 59.8266C67.2434 59.8266 71.3354 57.426 73.778 53.9126C75.0569 52.2772 75.9199 50.3559 76.2929 48.3135L81.3531 19L63.7089 30.6881L58.7281 33.9892L56.3718 35.564C55.9225 35.7706 55.4361 35.8841 54.9417 35.8976L45.0127 36.1192L32.3587 36.0305C28.1244 36.0305 24.0324 38.4311 21.5898 41.9446C20.3109 43.58 19.4479 45.5013 19.0749 47.5437L14.0171 76.8572ZM43.8555 47.4457C43.6666 49.7133 40.916 51.9016 37.8389 51.9016C34.7617 51.9016 32.4917 49.6736 31.8222 47.0024C30.798 42.9011 34.7197 43.2137 37.8389 43.6593C40.8857 44.0909 44.0772 44.7721 43.8555 47.4457ZM65.552 47.0001C64.8847 49.6736 62.6125 51.8993 59.5376 51.8993C56.4628 51.8993 53.7052 49.711 53.5209 47.4433C53.2877 44.7698 56.4908 44.0886 59.5376 43.6546C62.6544 43.2114 66.5761 42.8987 65.5496 46.9954L65.552 47.0001Z" fill="url(#paint0_linear)"/>
<defs>
<linearGradient id="paint0_linear" x1="62.5285" y1="22.0632" x2="84.6705" y2="-16.5168" gradientUnits="userSpaceOnUse">
<stop/>
<stop offset="0.47" stop-opacity="0"/>
</linearGradient>
</defs>
</svg>
