<svg width="96" height="96" viewBox="0 0 96 96" fill="none" xmlns="http://www.w3.org/2000/svg">
<circle cx="48" cy="48" r="48" fill="#FFF3E0"/>
<path d="M62.0964 46.9888C62.5317 46.875 62.9736 47.1495 63.0808 47.5915L63.7906 50.5245C63.8977 50.9598 63.6299 51.4084 63.1946 51.5156C62.7593 51.6294 62.3174 51.3549 62.2102 50.9129L61.5004 47.9799C61.3933 47.5446 61.6611 47.0959 62.0964 46.9888ZM40.0986 25.5401C39.8509 25.1517 39.9647 24.6495 40.3263 24.4017L42.8308 22.7477C43.2125 22.5 43.7147 22.6138 43.9625 22.9821C44.2102 23.3705 44.0964 23.8727 43.7348 24.1205L41.2303 25.7745C40.8553 26.029 40.3531 25.9151 40.0986 25.5401Z" fill="#FFFDFA"/>
<path fill-rule="evenodd" clip-rule="evenodd" d="M53.0351 35.7936C50.1368 35.1406 47.0265 35.6776 44.4775 37.4061C48.3146 36.1204 52.7275 37.011 55.7811 40.0981C60.0802 44.4441 60.0802 51.5222 55.7811 55.8682C55.2655 56.3905 54.703 56.8526 54.107 57.2476C55.6807 56.7052 57.1673 55.8213 58.4195 54.5557C61.4595 51.4826 62.3498 47.0433 61.0906 43.17C57.5832 41.7867 54.7115 39.1414 53.0351 35.7936Z" fill="#FFAE54"/>
<path fill-rule="evenodd" clip-rule="evenodd" d="M51.5137 27.3495C51.8625 24.0474 50.245 20.2452 46.9276 20.3869C37.6752 20.7821 28.846 25.9189 24.0803 34.7274C16.8415 48.1068 21.7098 64.8814 34.9419 72.1872C48.174 79.493 64.7879 74.5979 72.0267 61.2185C74.6011 56.4646 75.6454 51.2821 75.3283 46.2478C75.1947 44.1261 72.7961 43.1174 70.7465 43.6819C69.4535 44.038 68.0918 44.2283 66.6857 44.2283C58.2594 44.2283 51.4285 37.3974 51.4285 28.9711C51.4285 28.4233 51.4574 27.8823 51.5137 27.3495ZM53.3504 38.1894C48.0066 35.2363 41.2834 37.2318 38.3638 42.6225C35.4441 48.0131 37.4129 54.8033 42.7566 57.7564C48.1004 60.7095 54.8236 58.714 57.7432 53.3234C60.6562 47.9327 58.6941 41.1426 53.3504 38.1894Z" fill="url(#paint0_radial)"/>
<path fill-rule="evenodd" clip-rule="evenodd" d="M70.2174 60.2395L70.2178 60.2388C72.6026 55.8352 73.5688 51.0386 73.2752 46.3771C73.2621 46.1688 73.1681 45.9677 72.8182 45.7886C72.4264 45.5879 71.8463 45.5128 71.2927 45.6652C69.8235 46.0699 68.2781 46.2854 66.6857 46.2854C64.6457 46.2854 62.688 45.9326 60.8705 45.2847C61.4846 48.2522 61.0972 51.4438 59.553 54.3013L59.5521 54.3031C56.0939 60.688 48.1163 63.0687 41.7616 59.5569C35.4215 56.0531 33.1018 48.0184 36.5549 41.6428C39.3312 36.5168 45.0203 33.9717 50.4441 34.9844C49.7504 33.1113 49.3714 31.0855 49.3714 28.9711C49.3714 28.351 49.4041 27.7378 49.4679 27.1333C49.6037 25.8479 49.3407 24.5194 48.8131 23.6039C48.3163 22.7418 47.7193 22.4121 47.0154 22.4422C38.4625 22.8075 30.2997 27.5551 25.8896 35.7063C19.1828 48.1024 23.7025 63.6318 35.9362 70.3863C48.1607 77.1358 63.5187 72.6208 70.2174 60.2395ZM53.0118 35.7468C51.9983 33.7054 51.4285 31.4048 51.4285 28.9711C51.4285 28.4233 51.4574 27.8823 51.5137 27.3495C51.8625 24.0474 50.245 20.2452 46.9276 20.3869C37.6752 20.7821 28.846 25.9189 24.0803 34.7274C16.8415 48.1068 21.7098 64.8814 34.9419 72.1872C48.174 79.493 64.7879 74.5979 72.0267 61.2185C74.6011 56.4646 75.6454 51.2821 75.3283 46.2478C75.1947 44.1261 72.7961 43.1174 70.7465 43.6819C69.4535 44.038 68.0918 44.2283 66.6857 44.2283C64.3134 44.2283 62.0677 43.6869 60.0651 42.7209C57.5313 41.4986 55.387 39.5966 53.8688 37.2514C53.5558 36.768 53.2695 36.2658 53.0118 35.7468ZM51.5561 37.3966C46.5828 35.7129 40.9644 37.8208 38.3638 42.6225C35.4441 48.0131 37.4129 54.8033 42.7566 57.7564C48.1004 60.7095 54.8236 58.714 57.7432 53.3234C59.3151 50.4145 59.4675 47.098 58.4349 44.1969C57.5539 41.7218 55.8105 39.549 53.3504 38.1894C52.7665 37.8668 52.1662 37.6032 51.5561 37.3966Z" fill="#AC562A"/>
<path d="M51.624 26.5307C52.0778 23.6864 50.6454 20.3517 47.7652 20.3749C44.1958 20.4036 40.6296 21.1346 37.2861 22.5668C30.9714 25.5601 34.7951 39.9976 46.0384 37.011C49.4736 36.4017 53.1232 37.4329 55.775 40.1048C59.8799 44.2566 60.1236 50.8205 56.4004 55.1999C57.1303 55.3339 58.4134 55.0244 60.4223 53.7655C62.0094 52.7744 63.7973 53.7588 64.3799 55.4262C64.9154 56.9508 64.2197 58.286 63.5235 59.6222C63.1403 60.3578 62.7569 61.0936 62.5785 61.8615C62.0629 64.0914 62.6321 66.4017 65.0361 67.0378C66.0875 67.3124 67.3598 66.8503 68.6522 66.0267C73.4666 60.3931 75.6613 53.2715 75.2391 46.2838C75.1111 44.1654 72.7227 43.1487 70.6738 43.7021C69.4027 44.0453 68.0658 44.2285 66.6861 44.2285C58.2598 44.2285 51.429 37.3976 51.429 28.9713C51.429 28.1501 51.4963 27.3314 51.624 26.5307Z" fill="#AC562A"/>
<path fill-rule="evenodd" clip-rule="evenodd" d="M58.3458 44.1481C59.3712 46.9459 59.2504 50.0673 57.9664 52.7774C57.5607 53.6337 57.0389 54.4489 56.4004 55.1999C57.0111 55.312 58.009 55.1137 59.4952 54.3086C59.7854 54.1514 60.0942 53.9711 60.4223 53.7655C62.0094 52.7744 63.7973 53.7588 64.3799 55.4262C64.9154 56.9508 64.2197 58.286 63.5235 59.6222C63.1403 60.3578 62.7569 61.0936 62.5785 61.8615C62.0629 64.0914 62.6321 66.4017 65.0361 67.0378C66.0875 67.3124 67.3598 66.8503 68.6522 66.0267C73.4666 60.3931 75.6613 53.2715 75.2391 46.2838C75.1111 44.1654 72.7227 43.1487 70.6738 43.7021C69.4027 44.0453 68.0658 44.2285 66.6861 44.2285C64.2758 44.2285 61.9961 43.6695 59.9694 42.6742C58.5016 41.9534 57.1665 41.0037 56.0108 39.8716C56.0106 39.8715 56.0105 39.8714 56.0103 39.8712C54.812 38.6973 53.8064 37.3274 53.0454 35.8133C52.0112 33.7555 51.429 31.4314 51.429 28.9713C51.429 28.1501 51.4963 27.3314 51.624 26.5307C52.0778 23.6864 50.6454 20.3517 47.7652 20.3749C44.1958 20.4036 40.6296 21.1346 37.2861 22.5668C30.9714 25.5601 34.7951 39.9976 46.0384 37.011C47.8897 36.6826 49.8033 36.8307 51.5893 37.4553C53.1175 37.9897 54.5523 38.8728 55.775 40.1048C56.9481 41.2913 57.8059 42.6749 58.3458 44.1481ZM50.4593 35.0242C49.7562 33.1401 49.3718 31.1006 49.3718 28.9713C49.3718 28.0382 49.4483 27.1112 49.5926 26.2067C49.7535 25.1979 49.5647 24.1265 49.1481 23.3792C48.7557 22.6753 48.2896 22.4279 47.7818 22.432C44.4961 22.4584 41.2142 23.1285 38.1362 24.4407C37.288 24.8556 36.6768 25.6845 36.4239 26.9193C36.1638 28.189 36.3286 29.7508 36.9641 31.2101C37.5944 32.6576 38.6365 33.8898 40.0065 34.6193C41.3457 35.3324 43.1525 35.6491 45.5102 35.0228L45.5939 35.0006L45.6791 34.9855C47.2615 34.7048 48.8832 34.7178 50.4593 35.0242ZM60.8004 45.2595C61.2334 47.3043 61.1809 49.4313 60.6367 51.4549C61.667 51.1868 62.7168 51.3062 63.638 51.7303C64.9036 52.3129 65.861 53.4299 66.3213 54.7461C67.1571 57.1277 66.0718 59.194 65.4353 60.4059C65.4051 60.4635 65.3758 60.5191 65.3478 60.5728C64.9393 61.3568 64.6915 61.8577 64.5826 62.3257C64.3894 63.1617 64.4442 63.8423 64.6196 64.2762C64.7596 64.6223 64.9978 64.8986 65.5579 65.0479C65.7134 65.0871 66.2558 65.0628 67.2926 64.4482C71.6045 59.2751 73.5711 52.7861 73.1857 46.4079C73.1731 46.1995 73.0795 45.9982 72.7314 45.818C72.3415 45.6163 71.7634 45.5387 71.2101 45.6881C69.7657 46.0781 68.2485 46.2856 66.6861 46.2856C64.6197 46.2856 62.6378 45.9236 60.8004 45.2595Z" fill="#AC562A"/>
<path d="M29.4855 41.8285C29.4855 42.5859 28.8715 43.1999 28.1141 43.1999C27.3567 43.1999 26.7427 42.5859 26.7427 41.8285C26.7427 41.071 27.3567 40.457 28.1141 40.457C28.8715 40.457 29.4855 41.071 29.4855 41.8285Z" fill="#AC562A"/>
<path d="M49.3713 65.8285C49.3713 66.5859 48.7573 67.1999 47.9998 67.1999C47.2424 67.1999 46.6284 66.5859 46.6284 65.8285C46.6284 65.071 47.2424 64.457 47.9998 64.457C48.7573 64.457 49.3713 65.071 49.3713 65.8285Z" fill="#AC562A"/>
<path d="M41.8282 67.0284C41.8282 68.2592 40.8305 69.2569 39.5997 69.2569C38.3689 69.2569 37.3711 68.2592 37.3711 67.0284C37.3711 65.7976 38.3689 64.7998 39.5997 64.7998C40.8305 64.7998 41.8282 65.7976 41.8282 67.0284Z" fill="#AC562A"/>
<defs>
<radialGradient id="paint0_radial" cx="0" cy="0" r="1" gradientUnits="userSpaceOnUse" gradientTransform="translate(48.055 47.9687) rotate(90) scale(27.6066 27.3284)">
<stop offset="0.333505" stop-color="#F7B450"/>
<stop offset="0.64773" stop-color="#FFC977"/>
<stop offset="1" stop-color="#FF9900"/>
</radialGradient>
</defs>
</svg>
