<svg xmlns="http://www.w3.org/2000/svg" width="96" height="96" fill="none" viewBox="0 0 96 96"><path fill="#3671FF" d="M95.928 45.372C95.7533 42.12 95.2547 38.9533 94.4627 35.9053C93.9907 34.0827 93.4133 32.3027 92.7373 30.572C89.3427 21.8613 83.476 14.3853 76 9.00933C71.1 5.48267 65.508 2.85867 59.4667 1.37867C55.792 0.477333 51.952 0 48 0C44.048 0 40.208 0.477333 36.5333 1.37867C30.492 2.85867 24.9 5.484 20 9.00933C12.524 14.3867 6.65733 21.8613 3.26267 30.572C2.588 32.3027 2.00933 34.0827 1.53733 35.9053C0.745333 38.9533 0.246666 42.12 0.0719991 45.372C0.0239991 46.2427 0 47.1187 0 48C0 48.908 0.0253343 49.8093 0.076001 50.7053C0.250668 53.8627 0.730667 56.94 1.488 59.9053C1.95333 61.7267 2.52267 63.5067 3.19067 65.2387C6.57333 74.0307 12.4693 81.5747 20 86.9907C24.9 90.516 30.492 93.1413 36.5333 94.6213C40.208 95.5227 44.048 96 48 96C51.952 96 55.792 95.5227 59.4667 94.6213C65.508 93.1413 71.1 90.5173 76 86.9907C83.5307 81.5747 89.4267 74.0307 92.8107 65.2387C93.4787 63.5067 94.0467 61.7267 94.512 59.9053C95.2693 56.94 95.7493 53.8627 95.924 50.7053C95.9747 49.8093 96 48.908 96 48C96 47.1187 95.976 46.2427 95.928 45.372Z"/><path fill="#fff" d="M33.1977 45.6425L45.643 33.1972C46.6843 32.1558 46.6843 30.4678 45.643 29.4265C44.6016 28.3852 42.9136 28.3852 41.8723 29.4265L29.427 41.8718C28.3857 42.9132 28.3857 44.6012 29.427 45.6425C30.4683 46.6838 32.1563 46.6838 33.1977 45.6425Z"/><path fill="#fff" d="M62.6133 50.1677L50.168 62.6131C49.1266 63.6544 49.1266 65.3424 50.168 66.3837C51.2093 67.4251 52.8973 67.4251 53.9386 66.3837L66.384 53.9384C67.4253 52.8971 67.4253 51.2091 66.384 50.1677C65.344 49.1264 63.6546 49.1264 62.6133 50.1677Z"/><path fill="#fff" d="M64.0281 28.2009L28.2014 64.0276C27.1601 65.069 27.1601 66.757 28.2014 67.7983C29.2427 68.8396 30.9307 68.8396 31.9721 67.7983L67.7988 31.9716C68.8401 30.9303 68.8401 29.2423 67.7988 28.2009C66.7574 27.1596 65.0694 27.1596 64.0281 28.2009Z"/></svg>