<svg width="96" height="96" viewBox="0 0 96 96" fill="none" xmlns="http://www.w3.org/2000/svg">
<circle cx="48" cy="48" r="48" fill="#28B0DD"/>
<path fill-rule="evenodd" clip-rule="evenodd" d="M23.7285 35.6646L31.4637 48.5925L47.0422 48.5384C48.8966 51.7623 54.3987 61.3583 54.3987 61.3583L15.777 61.1419C15.3443 60.1682 15.3984 37.7741 15.6147 35.1777H23.0253C24.2154 35.34 23.3499 35.1777 23.7285 35.6646ZM52.2891 81.7509C51.5859 79.9118 49.6386 77.8022 48.7731 76.0172C48.2863 75.0435 50.5041 71.6357 51.3155 70.1212C56.7788 59.8978 56.346 62.386 54.0201 58.275C52.83 56.2736 51.8023 54.5968 50.5582 52.5413C48.4486 48.9712 47.4749 48.4303 48.3945 46.8075C49.3141 45.1847 54.1823 36.0973 54.8314 35.3941C55.4805 35.9891 74.575 67.5788 74.7914 68.4984C73.8718 68.877 72.8982 69.6343 71.9786 70.1212C70.9509 70.7162 70.0854 71.2571 69.1658 71.798C67.0021 73.1503 53.5332 81.5887 52.2891 81.7509ZM32.8701 47.6189C33.0324 46.6452 40.7134 33.1222 41.8494 30.8504L50.9909 14.2982C52.0187 14.2982 53.2628 15.1637 54.0742 15.6505C57.1033 17.3815 73.1145 25.6575 73.98 26.5771L70.464 33.3386L54.4528 33.7713L46.7717 47.6189H32.8701ZM22.4844 33.7172C22.1599 34.2041 22.9172 33.9336 21.673 34.2041L14.7493 34.5286V62.2237L23.5663 62.3319C23.6744 63.1974 23.6204 62.5483 23.2958 62.8187C22.9713 64.6579 20.1585 68.3361 19.888 70.2293C21.9435 71.1489 23.9449 72.393 25.8381 73.4208C27.6232 74.4485 29.8409 75.5844 31.7882 76.6663C33.5733 77.6399 42.6066 82.7246 43.6344 82.8869C44.8785 81.6968 46.339 77.9645 47.6372 76.504C48.8813 77.1531 50.9909 81.805 52.3432 82.8869C54.0201 82.4541 72.5736 70.4457 76.0896 68.7148C75.6028 67.2002 72.195 62.8187 71.7622 61.2501L80.2547 61.1419V33.2845L71.7081 33.2304C72.3032 31.3913 74.7914 27.3885 75.0078 25.8739L62.8371 19.4369C61.052 18.4633 51.6941 13.1082 50.5582 13.1623L46.9881 19.6533L42.4985 13C40.8757 13.6491 38.0629 15.4882 36.4402 16.4619C33.9519 17.9224 19.6175 26.1444 18.7521 27.0098C19.293 28.4162 22.3221 33.014 22.4844 33.7172Z" fill="#FDFFFE"/>
</svg>
