<svg width="96" height="96" viewBox="0 0 96 96" fill="none" xmlns="http://www.w3.org/2000/svg">
<g clip-path="url(#clip0)">
<path d="M48.1621 96C74.6718 96 96.1621 74.5097 96.1621 48C96.1621 21.4903 74.6718 0 48.1621 0C21.6524 0 0.162109 21.4903 0.162109 48C0.162109 74.5097 21.6524 96 48.1621 96Z" fill="url(#paint0_linear)"/>
<path fill-rule="evenodd" clip-rule="evenodd" d="M1.81034 60.5164H18.228C20.7394 60.5164 22.7647 58.491 22.7242 56.0202V40.5467C22.7242 38.0759 20.6989 36.0505 18.228 36.0505H1.66132C0.682536 39.8707 0.162109 43.8745 0.162109 47.9999C0.162109 52.3299 0.735443 56.526 1.81034 60.5164Z" fill="black"/>
<path fill-rule="evenodd" clip-rule="evenodd" d="M5.18508 46.2988L4.29395 45.5697C4.618 44.881 5.06357 44.3545 5.54964 43.8684C6.35977 43.0178 7.98002 42.4102 9.55977 42.4102H16.5269V44.881H12.3547V52.0507C12.3547 53.0633 13.1648 54.5621 14.9876 53.4279C15.1496 53.3469 15.4737 53.0228 15.4737 53.0228C15.4737 53.0228 15.7167 53.3064 15.7977 53.4279L16.0813 53.7924C16.0813 53.7924 15.0686 55.4127 12.4357 55.4127C10.4104 55.4127 8.87116 53.7924 8.87116 51.3216V44.881H8.34458C6.52179 44.8405 5.18508 46.2988 5.18508 46.2988Z" fill="url(#paint1_linear)"/>
<path d="M69.4684 60.5974C67.4836 64.2025 64.6077 66.9974 60.8001 69.0227C56.9925 71.0076 52.4963 72.0202 47.2304 72.0202H31.1899V23.9392H47.271C52.5368 23.9392 57.0735 24.9114 60.8406 26.8962C64.6482 28.881 67.5241 31.6354 69.5089 35.2405C71.4937 38.8455 72.4659 43.0582 72.4659 47.919C72.4659 52.7797 71.4532 56.9924 69.4684 60.5974ZM59.9089 60.5164C62.9874 57.5189 64.5267 53.3063 64.5267 47.919C64.5267 42.5316 62.9874 38.319 59.9089 35.3215C56.8304 32.324 52.3748 30.8253 46.6229 30.8253H38.9267V65.0126H46.6229C52.4153 65.0126 56.8304 63.5139 59.9089 60.5164Z" fill="black"/>
<path d="M48.9317 44.6379H26.5317V51.4025H48.9317V44.6379Z" fill="black"/>
</g>
<defs>
<linearGradient id="paint0_linear" x1="14.2204" y1="14.0626" x2="82.102" y2="81.9442" gradientUnits="userSpaceOnUse">
<stop stop-color="#6ECBF3"/>
<stop offset="0.5266" stop-color="#FFB8DD"/>
<stop offset="1" stop-color="#84EDB3"/>
</linearGradient>
<linearGradient id="paint1_linear" x1="6.68406" y1="41.8058" x2="20.0867" y2="55.2085" gradientUnits="userSpaceOnUse">
<stop stop-color="#6ECBF3"/>
<stop offset="0.5266" stop-color="#FFB8DD"/>
<stop offset="1" stop-color="#84EDB3"/>
</linearGradient>
<clipPath id="clip0">
<rect width="96" height="96" fill="white"/>
</clipPath>
</defs>
</svg>
