<svg width="96" height="96" viewBox="0 0 96 96" fill="none" xmlns="http://www.w3.org/2000/svg">
<circle cx="48" cy="48" r="48" fill="#2761E7"/>
<path d="M45.4687 38.818H43.6611V25.9064H19.8393C19.3873 25.9064 19 26.2937 19 26.7456V44.951C19 45.4029 19.3873 45.7902 19.8393 45.7902H28.9419V78.9084C28.9419 79.3603 29.3293 79.7477 29.7812 79.7477H44.694C45.146 79.7477 45.5333 79.3603 45.5333 78.9084V38.818H45.4687Z" fill="#9FC5FF"/>
<path d="M61.2855 21H55.5399H39.7877C39.3358 21 38.9485 21.3873 38.9485 21.8393V74.002C38.9485 74.4539 39.3358 74.8413 39.7877 74.8413H54.7006C55.1525 74.8413 55.5399 74.4539 55.5399 74.002V60.7677H61.2855C72.2604 60.7677 81.1694 51.8587 81.1694 40.8838C81.1694 29.909 72.2604 21 61.2855 21Z" fill="white"/>
</svg>
