<svg xmlns="http://www.w3.org/2000/svg" width="96" height="96" fill="none" viewBox="0 0 96 96"><path fill="#F66" d="M96 48C96 61.008 90.816 72.864 82.368 81.504L81.216 82.656C72.576 90.912 60.912 96 48 96C35.088 96 23.424 90.912 14.784 82.656L14.736 82.608C14.352 82.224 13.968 81.888 13.632 81.504C5.184 72.864 0 61.008 0 48C0 21.504 21.504 0 48 0C61.584 0 73.872 5.664 82.608 14.736C90.912 23.376 96 35.088 96 48Z"/><path fill="#D95E59" d="M96.0001 48.0001C96.0001 61.0081 90.8161 72.8641 82.3681 81.5041L81.2161 82.6561C72.5761 90.9121 60.9121 96.0001 48.0001 96.0001C35.0881 96.0001 23.4241 90.9121 14.7841 82.6561L14.7361 82.6081L82.6081 14.7361C90.9121 23.3761 96.0001 35.0881 96.0001 48.0001Z"/><path fill="#F5F7E2" d="M47.9999 78.7679C64.9396 78.7679 78.6719 64.9926 78.6719 47.9999C78.6719 31.0072 64.9396 17.2319 47.9999 17.2319C31.0602 17.2319 17.3279 31.0072 17.3279 47.9999C17.3279 64.9926 31.0602 78.7679 47.9999 78.7679Z"/><path fill="#F5F7E2" fill-rule="evenodd" d="M81.2159 82.656C72.5759 90.912 60.9119 96 47.9999 96C35.0879 96 23.4239 90.912 14.7839 82.656C23.1359 73.92 34.9439 68.448 47.9999 68.448C61.0559 68.448 72.8639 73.92 81.2159 82.656Z" clip-rule="evenodd"/><path fill="#F7931A" d="M48 74.208C62.4743 74.208 74.208 62.4743 74.208 48C74.208 33.5257 62.4743 21.792 48 21.792C33.5257 21.792 21.792 33.5257 21.792 48C21.792 62.4743 33.5257 74.208 48 74.208Z"/><path fill="#fff" d="M54.8162 44.688C54.0002 47.952 49.0082 46.272 47.3762 45.888L48.8162 40.128C50.4002 40.56 55.6322 41.28 54.8162 44.688ZM53.9042 53.952C52.9922 57.504 46.9922 55.584 45.0242 55.104L46.6082 48.768C48.5762 49.296 54.8642 50.256 53.9042 53.952ZM60.4802 44.736C61.0082 41.232 58.3202 39.36 54.7202 38.112L55.9202 33.408L53.0402 32.688L51.8882 37.296C51.1202 37.104 50.3522 36.912 49.5842 36.768L50.7362 32.112L47.8562 31.392L46.6562 36.096C46.0322 35.952 45.4082 35.808 44.8322 35.664L40.8482 34.656L40.0802 37.728C40.0802 37.728 42.2402 38.208 42.1922 38.256C43.3442 38.544 43.5842 39.312 43.5362 39.936L42.1922 45.312C42.2882 45.312 42.3842 45.36 42.4802 45.408C42.3842 45.408 42.2882 45.36 42.1922 45.312L40.3202 52.848C40.1762 53.184 39.7922 53.712 39.0242 53.52C39.0722 53.568 36.9122 52.992 36.9122 52.992L35.4722 56.304L39.2162 57.216C39.9362 57.408 40.6082 57.552 41.2802 57.744L40.0802 62.544L42.9602 63.264L44.1602 58.512C44.9282 58.704 45.6962 58.944 46.4642 59.088L45.2642 63.792L48.1442 64.512L49.3442 59.76C54.2402 60.672 57.9362 60.336 59.5202 55.872C60.7682 52.32 59.4722 50.256 56.8802 48.912C58.7042 48.528 60.0962 47.28 60.4802 44.736Z"/></svg>