<svg width="96" height="96" viewBox="0 0 96 96" fill="none" xmlns="http://www.w3.org/2000/svg">
<mask id="mask0" mask-type="alpha" maskUnits="userSpaceOnUse" x="0" y="0" width="96" height="96">
<path d="M48 96C74.5097 96 96 74.5097 96 48C96 21.4903 74.5097 0 48 0C21.4903 0 0 21.4903 0 48C0 74.5097 21.4903 96 48 96Z" fill="#1665E3"/>
</mask>
<g mask="url(#mask0)">
<path d="M48 96C74.5097 96 96 74.5097 96 48C96 21.4903 74.5097 0 48 0C21.4903 0 0 21.4903 0 48C0 74.5097 21.4903 96 48 96Z" fill="#0053DA"/>
<path d="M33.3077 68.9433H24L32.5325 33.3259H41.835L33.3077 68.9433Z" fill="white"/>
<path d="M46.8165 68.9433H37.5088L44.9413 37.7571H54.2437L46.8165 68.9433Z" fill="white"/>
<path d="M60.3202 68.9438H51.0176L60.383 30H69.6908L60.3202 68.9438Z" fill="white"/>
</g>
</svg>
