<svg width="96" height="96" viewBox="0 0 96 96" fill="none" xmlns="http://www.w3.org/2000/svg">
<path fill-rule="evenodd" clip-rule="evenodd" d="M0 43.023C2.80264e-05 18.834 21.9448 0 48 0C74.0553 0 96 18.834 96 43.0231V52.9769C96 77.166 74.0553 96 48 96C21.9448 96 0 77.166 0 52.9769V43.023ZM3.91837 43.023C3.91839 21.4261 23.6544 3.91837 48 3.91837C72.3456 3.91837 92.0817 21.4261 92.0817 43.0231V52.9769C92.0817 74.5739 72.3456 92.0816 48 92.0816C23.6544 92.0816 3.91837 74.5739 3.91837 52.9769V43.023Z" fill="#633001"/>
<path d="M92.0818 52.9768C92.0818 74.5737 72.3457 92.0815 48.0001 92.0815C23.6545 92.0815 3.91846 74.5737 3.91846 52.9768V43.0229H92.0818V52.9768Z" fill="#FEDC90"/>
<path d="M92.0818 43.0231C92.0818 64.62 72.3457 82.1277 48.0001 82.1277C23.6545 82.1277 3.91846 64.62 3.91846 43.0231C3.91846 21.4261 23.6545 3.91837 48.0001 3.91837C72.3457 3.91837 92.0818 21.4261 92.0818 43.0231Z" fill="#D1884F"/>
<path d="M47.6241 75L56.1917 32.3309C64.3582 32.3309 66.934 33.1238 67.3059 36.3606C67.3059 36.3606 72.7842 34.5518 75.5472 30.8781C64.7651 26.4538 53.9315 26.2542 53.9315 26.2542L47.6099 33.0725L47.6241 33.0717L41.3025 26.2532C41.3025 26.2532 30.4687 26.4529 19.688 30.8772C22.4486 34.5509 27.9291 36.3598 27.9291 36.3598C28.3031 33.1228 30.8759 32.3298 38.9875 32.3246L47.6241 75Z" fill="#633001"/>
<path d="M47.6207 24.2849C56.3366 24.2259 66.3128 25.4789 76.5255 29.4205C77.8905 27.2449 78.2414 26.2834 78.2414 26.2834C67.0774 22.3721 56.6225 21.0336 47.6195 21C38.617 21.0336 28.1625 22.3723 17 26.2834C17 26.2834 17.498 27.4678 18.7147 29.4205C28.9254 25.4789 38.9034 24.2259 47.6195 24.2849H47.6207Z" fill="#633001"/>
</svg>
