<svg width="97" height="97" viewBox="0 0 97 97" fill="none" xmlns="http://www.w3.org/2000/svg">
<path d="M48.015 96.03C74.5329 96.03 96.03 74.5329 96.03 48.015C96.03 21.497 74.5329 0 48.015 0C21.497 0 0 21.497 0 48.015C0 74.5329 21.497 96.03 48.015 96.03Z" fill="#FFFDFA"/>
<path fill-rule="evenodd" clip-rule="evenodd" d="M44.0155 16.0436C45.3575 15.3577 46.8431 15 48.3502 15C49.8573 15 51.343 15.3577 52.685 16.0436L74.5403 27.2395C76.0962 28.0297 77.4023 29.2362 78.3134 30.7246C79.2244 32.213 79.7045 33.925 79.7004 35.6701V40.7749H71.6401V35.6701C71.6401 35.4107 71.5692 35.1562 71.435 34.9341C71.3008 34.7121 71.1084 34.531 70.8787 34.4104L49.0061 23.2007C48.8035 23.0973 48.5793 23.0435 48.352 23.0435C48.1246 23.0435 47.9004 23.0973 47.6979 23.2007L25.8391 34.4104C25.6045 34.5303 25.4076 34.7127 25.2702 34.9374C25.1328 35.1622 25.0602 35.4205 25.0604 35.684V40.7887H17V35.6701C16.9967 33.9252 17.4772 32.2135 18.3881 30.7252C19.2991 29.237 20.6048 28.0304 22.1602 27.2395L44.0155 16.0436ZM48.352 41.1175C46.9901 41.1196 45.6594 41.5253 44.5282 42.2835C43.3969 43.0417 42.5157 44.1182 41.9962 45.377C41.4766 46.6359 41.3419 48.0205 41.6091 49.3559C41.8763 50.6913 42.5334 51.9174 43.4973 52.8794C44.4612 53.8414 45.6888 54.4961 47.0247 54.7606C48.3606 55.0251 49.7449 54.8876 51.0027 54.3655C52.2605 53.8434 53.3353 52.9601 54.0912 51.8273C54.8471 50.6945 55.2501 49.363 55.2495 48.0012C55.2458 46.1742 54.5175 44.4234 53.2243 43.1329C51.9312 41.8423 50.1789 41.1175 48.352 41.1175ZM48.352 33.071C51.963 33.0649 55.4538 34.368 58.1776 36.7389C60.9013 39.1097 62.6732 42.3876 63.165 45.965C63.6567 49.5424 62.8349 53.1768 60.8519 56.1947C58.8689 59.2125 55.8592 61.4092 52.3804 62.3776V71.7565L70.8787 62.2911C71.1142 62.172 71.3119 61.9898 71.45 61.765C71.5881 61.5401 71.6611 61.2814 71.6609 61.0175V55.9127H79.7177V61.0175C79.7214 62.762 79.2414 64.4735 78.3311 65.9617C77.4208 67.45 76.1158 68.6568 74.5611 69.4481L52.7023 80.644C51.3599 81.3289 49.8745 81.6859 48.3675 81.6859C46.8606 81.6859 45.3751 81.3289 44.0328 80.644L22.1602 69.4481C20.605 68.6569 19.2995 67.4503 18.3886 65.9621C17.4777 64.4738 16.9971 62.7623 17 61.0175V55.9127H25.0604V61.0175C25.0601 61.2814 25.1331 61.5401 25.2712 61.765C25.4093 61.9898 25.6071 62.172 25.8425 62.2911L44.3201 71.7565V62.3776C40.841 61.4091 37.831 59.2121 35.848 56.1939C33.865 53.1757 33.0435 49.5409 33.5357 45.9633C34.0279 42.3856 35.8005 39.1077 38.5248 36.7372C41.2492 34.3666 44.7406 33.064 48.352 33.071Z" fill="#0033AD"/>
</svg>
