<svg xmlns="http://www.w3.org/2000/svg" width="96" height="96" fill="none" viewBox="0 0 96 96"><circle cx="48" cy="48" r="48" fill="#1F1A23"/><path fill="#FFB0C2" d="M59.5636 53.6506C57.4909 57.5778 53.3455 60.2615 48.5891 60.2615C41.7382 60.2615 36.1745 54.6978 36.1745 47.8469C36.1745 40.996 41.7382 35.4324 48.5891 35.4324C53.3455 35.4324 57.4691 38.116 59.5636 42.0433H72.48C69.8836 31.2433 60.1964 23.1924 48.5891 23.1924C35.0182 23.1924 24 34.2106 24 47.7815C24 61.3524 35.0182 72.3706 48.5891 72.3706C60.1527 72.3706 69.8182 64.3851 72.4582 53.6287H59.5636V53.6506Z"/><path fill="#CC91F0" d="M68.029 32.7928C70.7999 30.5237 72.5671 27.0765 72.5671 23.2365C72.5671 16.4292 67.0471 10.9092 60.2399 10.9092C53.4326 10.9092 47.9126 16.4292 47.9126 23.2365C48.1308 23.2365 48.3708 23.2365 48.6108 23.2365C56.509 23.2146 63.5562 26.9674 68.029 32.7928Z"/><path fill="#CB65B7" d="M60.24 35.5634C63.1854 35.5634 65.9127 34.5161 68.0291 32.7924C63.5345 26.967 56.5091 23.2361 48.5891 23.2361C48.3491 23.2361 48.1309 23.2361 47.8909 23.2361C47.9127 30.0434 53.4327 35.5634 60.24 35.5634Z"/></svg>