<svg xmlns="http://www.w3.org/2000/svg" xmlns:v="https://vecta.io/nano" width="437" height="112" fill="none"><g clip-path="url(#B)"><path fill="url(#A)" d="M0 0h437v112H0z"/><g fill="#000"><path d="M180.227 36.11c1.868 0 3.383-1.515 3.383-3.383s-1.515-3.383-3.383-3.383-3.383 1.515-3.383 3.383 1.514 3.383 3.383 3.383zm70.984-.559c1.869 0 3.383-1.515 3.383-3.383s-1.514-3.383-3.383-3.383-3.383 1.515-3.383 3.383 1.515 3.383 3.383 3.383z"/></g><g fill-rule="evenodd"><path fill="#b32c43" d="M140.489 55.947s-7.722 8.193 8.99 16.681c0 0 30.254 14.579 70.73 13.257 47.34-1.547 69.386-16.307 74.199-20.879 5.95-5.653 3.779-15.396-13.094-12.189-19.566 3.719-31.131 6.647-60.546 7.641-24.236.819-51.507-.797-63.194-3.738-15.295-3.848-17.085-.773-17.085-.773h0z"/><path fill="#f06c75" d="M147.245 73.824s26.001-6.389 68.081-6.72 70.991 4.419 70.991 4.419-29.247 15.421-68.958 15.392c-49.33-.035-70.114-13.091-70.114-13.091z"/><g fill="#000"><path d="M139.102 54.838c.166-.284.77-1.063 2.592-1.537 2.081-.542 6.616-.817 16.246 1.606 11.606 2.92 38.692 4.505 62.763 3.692 29.3-.991 40.819-3.91 60.308-7.615 9.386-1.784 14.619.425 16.742 3.475 2.407 3.459 1.504 8.385-2.249 11.951-4.884 4.639-27.221 19.762-75.258 21.332-40.897 1.336-71.462-13.413-71.492-13.428-9.308-4.727-11.566-9.643-11.742-13.107-.168-3.294 1.506-5.654 2.09-6.37h0zm1.373 1.108s-7.722 8.193 8.991 16.681c0 0 30.253 14.579 70.729 13.257 47.34-1.547 69.387-16.307 74.2-20.879 5.95-5.652 3.779-15.396-13.094-12.189-19.567 3.719-31.131 6.647-60.546 7.641-24.236.819-51.507-.797-63.194-3.738-15.295-3.848-17.086-.773-17.086-.773h0z"/><path d="M265.822 55.698s15.279-3.398 22.852-.273c10.696 4.413 1.228 13.321 1.228 13.321s7.485-4.243 8.258-9.094c0 0 1.594-8.657-12.487-8.099-7.746.307-19.851 4.145-19.851 4.145h0z"/></g></g></g><defs><linearGradient id="A" x1="218.5" x2="218.5" y1="0" y2="112" gradientUnits="userSpaceOnUse"><stop stop-color="#ed7bc0"/><stop offset="1" stop-color="#cf509e"/></linearGradient><clipPath id="B"><path fill="#fff" d="M0 0h437v112H0z"/></clipPath></defs></svg>