<svg width="235" height="537" viewBox="0 0 235 537" fill="none" xmlns="http://www.w3.org/2000/svg">
<mask id="path-1-outside-1" maskUnits="userSpaceOnUse" x="39" y="396.795" width="196" height="140" fill="black">
<rect fill="white" x="39" y="396.795" width="196" height="140"/>
<path fill-rule="evenodd" clip-rule="evenodd" d="M47 459.795C47 429.419 87.2944 404.795 137 404.795C186.706 404.795 227 429.419 227 459.795V473.795C227 504.171 186.706 528.795 137 528.795C87.2944 528.795 47 504.171 47 473.795V459.795Z"/>
</mask>
<path d="M137 412.795C113.374 412.795 92.3687 418.663 77.532 427.73C62.558 436.881 55 448.449 55 459.795H39C39 440.766 51.5892 424.833 69.1888 414.078C86.9257 403.239 110.92 396.795 137 396.795V412.795ZM219 459.795C219 448.449 211.442 436.881 196.468 427.73C181.631 418.663 160.626 412.795 137 412.795V396.795C163.08 396.795 187.074 403.239 204.811 414.078C222.411 424.833 235 440.766 235 459.795H219ZM219 473.795V459.795H235V473.795H219ZM137 520.795C160.626 520.795 181.631 514.926 196.468 505.86C211.442 496.709 219 485.141 219 473.795H235C235 492.824 222.411 508.757 204.811 519.512C187.074 530.351 163.08 536.795 137 536.795V520.795ZM55 473.795C55 485.141 62.558 496.709 77.532 505.86C92.3687 514.926 113.374 520.795 137 520.795V536.795C110.92 536.795 86.9257 530.351 69.1888 519.512C51.5892 508.757 39 492.824 39 473.795H55ZM55 459.795V473.795H39V459.795H55Z" fill="#633001" mask="url(#path-1-outside-1)"/>
<path d="M47 473.795C47 504.171 87.2944 528.795 137 528.795C186.706 528.795 227 504.171 227 473.795V459.795H47V473.795Z" fill="#FEDC90"/>
<path d="M47 459.795C47 490.171 87.2944 514.795 137 514.795C186.706 514.795 227 490.171 227 459.795C227 429.419 186.706 404.795 137 404.795C87.2944 404.795 47 429.419 47 459.795Z" fill="#D1884F"/>
<mask id="path-5-outside-2" maskUnits="userSpaceOnUse" x="29" y="362" width="196" height="140" fill="black">
<rect fill="white" x="29" y="362" width="196" height="140"/>
<path fill-rule="evenodd" clip-rule="evenodd" d="M37 425C37 394.624 77.2944 370 127 370C176.706 370 217 394.624 217 425V439C217 469.376 176.706 494 127 494C77.2944 494 37 469.376 37 439V425Z"/>
</mask>
<path d="M127 378C103.374 378 82.3687 383.869 67.532 392.935C52.558 402.086 45 413.654 45 425H29C29 405.971 41.5892 390.038 59.1888 379.283C76.9257 368.444 100.92 362 127 362V378ZM209 425C209 413.654 201.442 402.086 186.468 392.935C171.631 383.869 150.626 378 127 378V362C153.08 362 177.074 368.444 194.811 379.283C212.411 390.038 225 405.971 225 425H209ZM209 439V425H225V439H209ZM127 486C150.626 486 171.631 480.131 186.468 471.065C201.442 461.914 209 450.346 209 439H225C225 458.029 212.411 473.962 194.811 484.717C177.074 495.556 153.08 502 127 502V486ZM45 439C45 450.346 52.558 461.914 67.532 471.065C82.3687 480.131 103.374 486 127 486V502C100.92 502 76.9257 495.556 59.1888 484.717C41.5892 473.962 29 458.029 29 439H45ZM45 425V439H29V425H45Z" fill="#633001" mask="url(#path-5-outside-2)"/>
<path d="M37 439C37 469.376 77.2944 494 127 494C176.706 494 217 469.376 217 439V425H37V439Z" fill="#FEDC90"/>
<path d="M37 425C37 455.376 77.2944 480 127 480C176.706 480 217 455.376 217 425C217 394.624 176.706 370 127 370C77.2944 370 37 394.624 37 425Z" fill="#D1884F"/>
<mask id="path-9-outside-3" maskUnits="userSpaceOnUse" x="9" y="344.205" width="196" height="140" fill="black">
<rect fill="white" x="9" y="344.205" width="196" height="140"/>
<path fill-rule="evenodd" clip-rule="evenodd" d="M17 407.205C17 376.829 57.2944 352.205 107 352.205C156.706 352.205 197 376.829 197 407.205V421.205C197 451.581 156.706 476.205 107 476.205C57.2944 476.205 17 451.581 17 421.205V407.205Z"/>
</mask>
<path d="M107 360.205C83.3739 360.205 62.3687 366.074 47.532 375.14C32.558 384.291 25 395.859 25 407.205H9C9 388.176 21.5892 372.243 39.1888 361.488C56.9257 350.649 80.9205 344.205 107 344.205V360.205ZM189 407.205C189 395.859 181.442 384.291 166.468 375.14C151.631 366.074 130.626 360.205 107 360.205V344.205C133.08 344.205 157.074 350.649 174.811 361.488C192.411 372.243 205 388.176 205 407.205H189ZM189 421.205V407.205H205V421.205H189ZM107 468.205C130.626 468.205 151.631 462.337 166.468 453.27C181.442 444.119 189 432.551 189 421.205H205C205 440.234 192.411 456.167 174.811 466.922C157.074 477.761 133.08 484.205 107 484.205V468.205ZM25 421.205C25 432.551 32.558 444.119 47.532 453.27C62.3687 462.337 83.3739 468.205 107 468.205V484.205C80.9205 484.205 56.9257 477.761 39.1888 466.922C21.5892 456.167 9 440.234 9 421.205H25ZM25 407.205V421.205H9V407.205H25Z" fill="#633001" mask="url(#path-9-outside-3)"/>
<path d="M17 421.205C17 451.581 57.2944 476.205 107 476.205C156.706 476.205 197 451.581 197 421.205V407.205H17V421.205Z" fill="#FEDC90"/>
<path d="M17 407.205C17 437.581 57.2944 462.205 107 462.205C156.706 462.205 197 437.581 197 407.205C197 376.829 156.706 352.205 107 352.205C57.2944 352.205 17 376.829 17 407.205Z" fill="#D1884F"/>
<mask id="path-13-outside-4" maskUnits="userSpaceOnUse" x="25" y="318" width="196" height="140" fill="black">
<rect fill="white" x="25" y="318" width="196" height="140"/>
<path fill-rule="evenodd" clip-rule="evenodd" d="M33 381C33 350.624 73.2944 326 123 326C172.706 326 213 350.624 213 381V395C213 425.376 172.706 450 123 450C73.2944 450 33 425.376 33 395V381Z"/>
</mask>
<path d="M123 334C99.3739 334 78.3687 339.869 63.532 348.935C48.558 358.086 41 369.654 41 381H25C25 361.971 37.5892 346.038 55.1888 335.283C72.9257 324.444 96.9205 318 123 318V334ZM205 381C205 369.654 197.442 358.086 182.468 348.935C167.631 339.869 146.626 334 123 334V318C149.08 318 173.074 324.444 190.811 335.283C208.411 346.038 221 361.971 221 381H205ZM205 395V381H221V395H205ZM123 442C146.626 442 167.631 436.131 182.468 427.065C197.442 417.914 205 406.346 205 395H221C221 414.029 208.411 429.962 190.811 440.717C173.074 451.556 149.08 458 123 458V442ZM41 395C41 406.346 48.558 417.914 63.532 427.065C78.3687 436.131 99.3739 442 123 442V458C96.9205 458 72.9257 451.556 55.1888 440.717C37.5892 429.962 25 414.029 25 395H41ZM41 381V395H25V381H41Z" fill="#633001" mask="url(#path-13-outside-4)"/>
<path d="M33 395C33 425.376 73.2944 450 123 450C172.706 450 213 425.376 213 395V381H33V395Z" fill="#FEDC90"/>
<path d="M33 381C33 411.376 73.2944 436 123 436C172.706 436 213 411.376 213 381C213 350.624 172.706 326 123 326C73.2944 326 33 350.624 33 381Z" fill="#D1884F"/>
<mask id="path-17-outside-5" maskUnits="userSpaceOnUse" x="14" y="290.795" width="196" height="140" fill="black">
<rect fill="white" x="14" y="290.795" width="196" height="140"/>
<path fill-rule="evenodd" clip-rule="evenodd" d="M202 353.795C202 323.419 161.706 298.795 112 298.795C62.2944 298.795 22 323.419 22 353.795V367.795C22 398.171 62.2944 422.795 112 422.795C161.706 422.795 202 398.171 202 367.795V353.795Z"/>
</mask>
<path d="M112 306.795C135.626 306.795 156.631 312.663 171.468 321.73C186.442 330.881 194 342.449 194 353.795H210C210 334.766 197.411 318.833 179.811 308.078C162.074 297.239 138.08 290.795 112 290.795V306.795ZM30 353.795C30 342.449 37.558 330.881 52.532 321.73C67.3687 312.663 88.3739 306.795 112 306.795V290.795C85.9205 290.795 61.9257 297.239 44.1888 308.078C26.5892 318.833 14 334.766 14 353.795H30ZM30 367.795V353.795H14V367.795H30ZM112 414.795C88.3739 414.795 67.3687 408.926 52.532 399.86C37.558 390.709 30 379.141 30 367.795H14C14 386.824 26.5892 402.757 44.1888 413.512C61.9257 424.351 85.9205 430.795 112 430.795V414.795ZM194 367.795C194 379.141 186.442 390.709 171.468 399.86C156.631 408.926 135.626 414.795 112 414.795V430.795C138.08 430.795 162.074 424.351 179.811 413.512C197.411 402.757 210 386.824 210 367.795H194ZM194 353.795V367.795H210V353.795H194Z" fill="#633001" mask="url(#path-17-outside-5)"/>
<path d="M202 367.795C202 398.171 161.706 422.795 112 422.795C62.2944 422.795 22 398.171 22 367.795V353.795H202V367.795Z" fill="#FEDC90"/>
<path d="M202 353.795C202 384.171 161.706 408.795 112 408.795C62.2944 408.795 22 384.171 22 353.795C22 323.419 62.2944 298.795 112 298.795C161.706 298.795 202 323.419 202 353.795Z" fill="#D1884F"/>
<mask id="path-21-outside-6" maskUnits="userSpaceOnUse" x="24" y="256" width="196" height="140" fill="black">
<rect fill="white" x="24" y="256" width="196" height="140"/>
<path fill-rule="evenodd" clip-rule="evenodd" d="M212 319C212 288.624 171.706 264 122 264C72.2944 264 32 288.624 32 319V333C32 363.376 72.2944 388 122 388C171.706 388 212 363.376 212 333V319Z"/>
</mask>
<path d="M122 272C145.626 272 166.631 277.869 181.468 286.935C196.442 296.086 204 307.654 204 319H220C220 299.971 207.411 284.038 189.811 273.283C172.074 262.444 148.08 256 122 256V272ZM40 319C40 307.654 47.558 296.086 62.532 286.935C77.3687 277.869 98.3739 272 122 272V256C95.9205 256 71.9257 262.444 54.1888 273.283C36.5892 284.038 24 299.971 24 319H40ZM40 333V319H24V333H40ZM122 380C98.3739 380 77.3687 374.131 62.532 365.065C47.558 355.914 40 344.346 40 333H24C24 352.029 36.5892 367.962 54.1888 378.717C71.9257 389.556 95.9205 396 122 396V380ZM204 333C204 344.346 196.442 355.914 181.468 365.065C166.631 374.131 145.626 380 122 380V396C148.08 396 172.074 389.556 189.811 378.717C207.411 367.962 220 352.029 220 333H204ZM204 319V333H220V319H204Z" fill="#633001" mask="url(#path-21-outside-6)"/>
<path d="M212 333C212 363.376 171.706 388 122 388C72.2944 388 32 363.376 32 333V319H212V333Z" fill="#FEDC90"/>
<path d="M212 319C212 349.376 171.706 374 122 374C72.2944 374 32 349.376 32 319C32 288.624 72.2944 264 122 264C171.706 264 212 288.624 212 319Z" fill="#D1884F"/>
<mask id="path-25-outside-7" maskUnits="userSpaceOnUse" x="30" y="238.205" width="196" height="140" fill="black">
<rect fill="white" x="30" y="238.205" width="196" height="140"/>
<path fill-rule="evenodd" clip-rule="evenodd" d="M218 301.205C218 270.829 177.706 246.205 128 246.205C78.2944 246.205 38 270.829 38 301.205V315.205C38 345.581 78.2944 370.205 128 370.205C177.706 370.205 218 345.581 218 315.205V301.205Z"/>
</mask>
<path d="M128 254.205C151.626 254.205 172.631 260.074 187.468 269.14C202.442 278.291 210 289.859 210 301.205H226C226 282.176 213.411 266.243 195.811 255.488C178.074 244.649 154.08 238.205 128 238.205V254.205ZM46 301.205C46 289.859 53.558 278.291 68.532 269.14C83.3687 260.074 104.374 254.205 128 254.205V238.205C101.92 238.205 77.9257 244.649 60.1888 255.488C42.5892 266.243 30 282.176 30 301.205H46ZM46 315.205V301.205H30V315.205H46ZM128 362.205C104.374 362.205 83.3687 356.337 68.532 347.27C53.558 338.119 46 326.551 46 315.205H30C30 334.234 42.5892 350.167 60.1888 360.922C77.9257 371.761 101.92 378.205 128 378.205V362.205ZM210 315.205C210 326.551 202.442 338.119 187.468 347.27C172.631 356.337 151.626 362.205 128 362.205V378.205C154.08 378.205 178.074 371.761 195.811 360.922C213.411 350.167 226 334.234 226 315.205H210ZM210 301.205V315.205H226V301.205H210Z" fill="#633001" mask="url(#path-25-outside-7)"/>
<path d="M218 315.205C218 345.581 177.706 370.205 128 370.205C78.2944 370.205 38 345.581 38 315.205V301.205H218V315.205Z" fill="#FEDC90"/>
<path d="M218 301.205C218 331.581 177.706 356.205 128 356.205C78.2944 356.205 38 331.581 38 301.205C38 270.829 78.2944 246.205 128 246.205C177.706 246.205 218 270.829 218 301.205Z" fill="#D1884F"/>
<mask id="path-29-outside-8" maskUnits="userSpaceOnUse" x="18" y="212" width="196" height="140" fill="black">
<rect fill="white" x="18" y="212" width="196" height="140"/>
<path fill-rule="evenodd" clip-rule="evenodd" d="M206 275C206 244.624 165.706 220 116 220C66.2944 220 26 244.624 26 275V289C26 319.376 66.2944 344 116 344C165.706 344 206 319.376 206 289V275Z"/>
</mask>
<path d="M116 228C139.626 228 160.631 233.869 175.468 242.935C190.442 252.086 198 263.654 198 275H214C214 255.971 201.411 240.038 183.811 229.283C166.074 218.444 142.08 212 116 212V228ZM34 275C34 263.654 41.558 252.086 56.532 242.935C71.3687 233.869 92.3739 228 116 228V212C89.9205 212 65.9257 218.444 48.1888 229.283C30.5892 240.038 18 255.971 18 275H34ZM34 289V275H18V289H34ZM116 336C92.3739 336 71.3687 330.131 56.532 321.065C41.558 311.914 34 300.346 34 289H18C18 308.029 30.5892 323.962 48.1888 334.717C65.9257 345.556 89.9205 352 116 352V336ZM198 289C198 300.346 190.442 311.914 175.468 321.065C160.631 330.131 139.626 336 116 336V352C142.08 352 166.074 345.556 183.811 334.717C201.411 323.962 214 308.029 214 289H198ZM198 275V289H214V275H198Z" fill="#633001" mask="url(#path-29-outside-8)"/>
<path d="M206 289C206 319.376 165.706 344 116 344C66.2944 344 26 319.376 26 289V275H206V289Z" fill="#FEDC90"/>
<path d="M206 275C206 305.376 165.706 330 116 330C66.2944 330 26 305.376 26 275C26 244.624 66.2944 220 116 220C165.706 220 206 244.624 206 275Z" fill="#D1884F"/>
<mask id="path-33-outside-9" maskUnits="userSpaceOnUse" x="30" y="184.795" width="196" height="140" fill="black">
<rect fill="white" x="30" y="184.795" width="196" height="140"/>
<path fill-rule="evenodd" clip-rule="evenodd" d="M38 247.795C38 217.419 78.2944 192.795 128 192.795C177.706 192.795 218 217.419 218 247.795V261.795C218 292.171 177.706 316.795 128 316.795C78.2944 316.795 38 292.171 38 261.795V247.795Z"/>
</mask>
<path d="M128 200.795C104.374 200.795 83.3687 206.663 68.532 215.73C53.558 224.881 46 236.449 46 247.795H30C30 228.766 42.5892 212.833 60.1888 202.078C77.9257 191.239 101.92 184.795 128 184.795V200.795ZM210 247.795C210 236.449 202.442 224.881 187.468 215.73C172.631 206.663 151.626 200.795 128 200.795V184.795C154.08 184.795 178.074 191.239 195.811 202.078C213.411 212.833 226 228.766 226 247.795H210ZM210 261.795V247.795H226V261.795H210ZM128 308.795C151.626 308.795 172.631 302.926 187.468 293.86C202.442 284.709 210 273.141 210 261.795H226C226 280.824 213.411 296.757 195.811 307.512C178.074 318.351 154.08 324.795 128 324.795V308.795ZM46 261.795C46 273.141 53.558 284.709 68.532 293.86C83.3687 302.926 104.374 308.795 128 308.795V324.795C101.92 324.795 77.9257 318.351 60.1888 307.512C42.5892 296.757 30 280.824 30 261.795H46ZM46 247.795V261.795H30V247.795H46Z" fill="#633001" mask="url(#path-33-outside-9)"/>
<path d="M38 261.795C38 292.171 78.2944 316.795 128 316.795C177.706 316.795 218 292.171 218 261.795V247.795H38V261.795Z" fill="#FEDC90"/>
<path d="M38 247.795C38 278.171 78.2944 302.795 128 302.795C177.706 302.795 218 278.171 218 247.795C218 217.419 177.706 192.795 128 192.795C78.2944 192.795 38 217.419 38 247.795Z" fill="#D1884F"/>
<mask id="path-37-outside-10" maskUnits="userSpaceOnUse" x="20" y="150" width="196" height="140" fill="black">
<rect fill="white" x="20" y="150" width="196" height="140"/>
<path fill-rule="evenodd" clip-rule="evenodd" d="M28 213C28 182.624 68.2944 158 118 158C167.706 158 208 182.624 208 213V227C208 257.376 167.706 282 118 282C68.2944 282 28 257.376 28 227V213Z"/>
</mask>
<path d="M118 166C94.3739 166 73.3687 171.869 58.532 180.935C43.558 190.086 36 201.654 36 213H20C20 193.971 32.5892 178.038 50.1888 167.283C67.9257 156.444 91.9205 150 118 150V166ZM200 213C200 201.654 192.442 190.086 177.468 180.935C162.631 171.869 141.626 166 118 166V150C144.08 150 168.074 156.444 185.811 167.283C203.411 178.038 216 193.971 216 213H200ZM200 227V213H216V227H200ZM118 274C141.626 274 162.631 268.131 177.468 259.065C192.442 249.914 200 238.346 200 227H216C216 246.029 203.411 261.962 185.811 272.717C168.074 283.556 144.08 290 118 290V274ZM36 227C36 238.346 43.558 249.914 58.532 259.065C73.3687 268.131 94.3739 274 118 274V290C91.9205 290 67.9257 283.556 50.1888 272.717C32.5892 261.962 20 246.029 20 227H36ZM36 213V227H20V213H36Z" fill="#633001" mask="url(#path-37-outside-10)"/>
<path d="M28 227C28 257.376 68.2944 282 118 282C167.706 282 208 257.376 208 227V213H28V227Z" fill="#FEDC90"/>
<path d="M28 213C28 243.376 68.2944 268 118 268C167.706 268 208 243.376 208 213C208 182.624 167.706 158 118 158C68.2944 158 28 182.624 28 213Z" fill="#D1884F"/>
<mask id="path-41-outside-11" maskUnits="userSpaceOnUse" x="0" y="132.205" width="196" height="140" fill="black">
<rect fill="white" y="132.205" width="196" height="140"/>
<path fill-rule="evenodd" clip-rule="evenodd" d="M8 195.205C8 164.829 48.2944 140.205 98 140.205C147.706 140.205 188 164.829 188 195.205V209.205C188 239.581 147.706 264.205 98 264.205C48.2944 264.205 8 239.581 8 209.205V195.205Z"/>
</mask>
<path d="M98 148.205C74.3739 148.205 53.3687 154.074 38.532 163.14C23.558 172.291 16 183.859 16 195.205H0C0 176.176 12.5892 160.243 30.1888 149.488C47.9257 138.649 71.9205 132.205 98 132.205V148.205ZM180 195.205C180 183.859 172.442 172.291 157.468 163.14C142.631 154.074 121.626 148.205 98 148.205V132.205C124.08 132.205 148.074 138.649 165.811 149.488C183.411 160.243 196 176.176 196 195.205H180ZM180 209.205V195.205H196V209.205H180ZM98 256.205C121.626 256.205 142.631 250.337 157.468 241.27C172.442 232.119 180 220.551 180 209.205H196C196 228.234 183.411 244.167 165.811 254.922C148.074 265.761 124.08 272.205 98 272.205V256.205ZM16 209.205C16 220.551 23.558 232.119 38.532 241.27C53.3687 250.337 74.3739 256.205 98 256.205V272.205C71.9205 272.205 47.9257 265.761 30.1888 254.922C12.5892 244.167 0 228.234 0 209.205H16ZM16 195.205V209.205H0V195.205H16Z" fill="#633001" mask="url(#path-41-outside-11)"/>
<path d="M8 209.205C8 239.581 48.2944 264.205 98 264.205C147.706 264.205 188 239.581 188 209.205V195.205H8V209.205Z" fill="#FEDC90"/>
<path d="M8 195.205C8 225.581 48.2944 250.205 98 250.205C147.706 250.205 188 225.581 188 195.205C188 164.829 147.706 140.205 98 140.205C48.2944 140.205 8 164.829 8 195.205Z" fill="#D1884F"/>
<mask id="path-45-outside-12" maskUnits="userSpaceOnUse" x="16" y="106" width="196" height="140" fill="black">
<rect fill="white" x="16" y="106" width="196" height="140"/>
<path fill-rule="evenodd" clip-rule="evenodd" d="M24 169C24 138.624 64.2944 114 114 114C163.706 114 204 138.624 204 169V183C204 213.376 163.706 238 114 238C64.2944 238 24 213.376 24 183V169Z"/>
</mask>
<path d="M114 122C90.3739 122 69.3687 127.869 54.532 136.935C39.558 146.086 32 157.654 32 169H16C16 149.971 28.5892 134.038 46.1888 123.283C63.9257 112.444 87.9205 106 114 106V122ZM196 169C196 157.654 188.442 146.086 173.468 136.935C158.631 127.869 137.626 122 114 122V106C140.08 106 164.074 112.444 181.811 123.283C199.411 134.038 212 149.971 212 169H196ZM196 183V169H212V183H196ZM114 230C137.626 230 158.631 224.131 173.468 215.065C188.442 205.914 196 194.346 196 183H212C212 202.029 199.411 217.962 181.811 228.717C164.074 239.556 140.08 246 114 246V230ZM32 183C32 194.346 39.558 205.914 54.532 215.065C69.3687 224.131 90.3739 230 114 230V246C87.9205 246 63.9257 239.556 46.1888 228.717C28.5892 217.962 16 202.029 16 183H32ZM32 169V183H16V169H32Z" fill="#633001" mask="url(#path-45-outside-12)"/>
<path d="M24 183C24 213.376 64.2944 238 114 238C163.706 238 204 213.376 204 183V169H24V183Z" fill="#FEDC90"/>
<path d="M24 169C24 199.376 64.2944 224 114 224C163.706 224 204 199.376 204 169C204 138.624 163.706 114 114 114C64.2944 114 24 138.624 24 169Z" fill="#D1884F"/>
<mask id="path-49-outside-13" maskUnits="userSpaceOnUse" x="5" y="78.7949" width="196" height="140" fill="black">
<rect fill="white" x="5" y="78.7949" width="196" height="140"/>
<path fill-rule="evenodd" clip-rule="evenodd" d="M193 141.795C193 111.419 152.706 86.7949 103 86.7949C53.2944 86.7949 13 111.419 13 141.795V155.795C13 186.171 53.2944 210.795 103 210.795C152.706 210.795 193 186.171 193 155.795V141.795Z"/>
</mask>
<path d="M103 94.7949C126.626 94.7949 147.631 100.663 162.468 109.73C177.442 118.881 185 130.449 185 141.795H201C201 122.766 188.411 106.833 170.811 96.0778C153.074 85.2386 129.08 78.7949 103 78.7949V94.7949ZM21 141.795C21 130.449 28.558 118.881 43.532 109.73C58.3687 100.663 79.3739 94.7949 103 94.7949V78.7949C76.9205 78.7949 52.9257 85.2386 35.1888 96.0778C17.5892 106.833 5 122.766 5 141.795H21ZM21 155.795V141.795H5V155.795H21ZM103 202.795C79.3739 202.795 58.3687 196.926 43.532 187.86C28.558 178.709 21 167.141 21 155.795H5C5 174.824 17.5892 190.757 35.1888 201.512C52.9257 212.351 76.9205 218.795 103 218.795V202.795ZM185 155.795C185 167.141 177.442 178.709 162.468 187.86C147.631 196.926 126.626 202.795 103 202.795V218.795C129.08 218.795 153.074 212.351 170.811 201.512C188.411 190.757 201 174.824 201 155.795H185ZM185 141.795V155.795H201V141.795H185Z" fill="#633001" mask="url(#path-49-outside-13)"/>
<path d="M193 155.795C193 186.171 152.706 210.795 103 210.795C53.2944 210.795 13 186.171 13 155.795V141.795H193V155.795Z" fill="#FEDC90"/>
<path d="M193 141.795C193 172.171 152.706 196.795 103 196.795C53.2944 196.795 13 172.171 13 141.795C13 111.419 53.2944 86.7949 103 86.7949C152.706 86.7949 193 111.419 193 141.795Z" fill="#D1884F"/>
<mask id="path-53-outside-14" maskUnits="userSpaceOnUse" x="15" y="44" width="196" height="140" fill="black">
<rect fill="white" x="15" y="44" width="196" height="140"/>
<path fill-rule="evenodd" clip-rule="evenodd" d="M203 107C203 76.6243 162.706 52 113 52C63.2944 52 23 76.6243 23 107V121C23 151.376 63.2944 176 113 176C162.706 176 203 151.376 203 121V107Z"/>
</mask>
<path d="M113 60C136.626 60 157.631 65.8685 172.468 74.9354C187.442 84.0862 195 95.6537 195 107H211C211 87.9706 198.411 72.0382 180.811 61.2829C163.074 50.4437 139.08 44 113 44V60ZM31 107C31 95.6537 38.558 84.0862 53.532 74.9354C68.3687 65.8685 89.3739 60 113 60V44C86.9205 44 62.9257 50.4437 45.1888 61.2829C27.5892 72.0382 15 87.9706 15 107H31ZM31 121V107H15V121H31ZM113 168C89.3739 168 68.3687 162.131 53.532 153.065C38.558 143.914 31 132.346 31 121H15C15 140.029 27.5892 155.962 45.1888 166.717C62.9257 177.556 86.9205 184 113 184V168ZM195 121C195 132.346 187.442 143.914 172.468 153.065C157.631 162.131 136.626 168 113 168V184C139.08 184 163.074 177.556 180.811 166.717C198.411 155.962 211 140.029 211 121H195ZM195 107V121H211V107H195Z" fill="#633001" mask="url(#path-53-outside-14)"/>
<path d="M203 121C203 151.376 162.706 176 113 176C63.2944 176 23 151.376 23 121V107H203V121Z" fill="#FEDC90"/>
<path d="M203 107C203 137.376 162.706 162 113 162C63.2944 162 23 137.376 23 107C23 76.6243 63.2944 52 113 52C162.706 52 203 76.6243 203 107Z" fill="#D1884F"/>
<mask id="path-57-outside-15" maskUnits="userSpaceOnUse" x="29" y="26.2051" width="196" height="140" fill="black">
<rect fill="white" x="29" y="26.2051" width="196" height="140"/>
<path fill-rule="evenodd" clip-rule="evenodd" d="M217 89.2051C217 58.8294 176.706 34.2051 127 34.2051C77.2944 34.2051 37 58.8294 37 89.2051V103.205C37 133.581 77.2944 158.205 127 158.205C176.706 158.205 217 133.581 217 103.205V89.2051Z"/>
</mask>
<path d="M127 42.2051C150.626 42.2051 171.631 48.0736 186.468 57.1405C201.442 66.2912 209 77.8588 209 89.2051H225C225 70.1757 212.411 54.2433 194.811 43.488C177.074 32.6487 153.08 26.2051 127 26.2051V42.2051ZM45 89.2051C45 77.8588 52.558 66.2912 67.532 57.1405C82.3687 48.0736 103.374 42.2051 127 42.2051V26.2051C100.92 26.2051 76.9257 32.6487 59.1888 43.488C41.5892 54.2433 29 70.1757 29 89.2051H45ZM45 103.205V89.2051H29V103.205H45ZM127 150.205C103.374 150.205 82.3687 144.337 67.532 135.27C52.558 126.119 45 114.551 45 103.205H29C29 122.234 41.5892 138.167 59.1888 148.922C76.9257 159.761 100.92 166.205 127 166.205V150.205ZM209 103.205C209 114.551 201.442 126.119 186.468 135.27C171.631 144.337 150.626 150.205 127 150.205V166.205C153.08 166.205 177.074 159.761 194.811 148.922C212.411 138.167 225 122.234 225 103.205H209ZM209 89.2051V103.205H225V89.2051H209Z" fill="#633001" mask="url(#path-57-outside-15)"/>
<path d="M217 103.205C217 133.581 176.706 158.205 127 158.205C77.2944 158.205 37 133.581 37 103.205V89.2051H217V103.205Z" fill="#FEDC90"/>
<path d="M217 89.2051C217 119.581 176.706 144.205 127 144.205C77.2944 144.205 37 119.581 37 89.2051C37 58.8294 77.2944 34.2051 127 34.2051C176.706 34.2051 217 58.8294 217 89.2051Z" fill="#D1884F"/>
<mask id="path-61-outside-16" maskUnits="userSpaceOnUse" x="9" y="0" width="196" height="140" fill="black">
<rect fill="white" x="9" width="196" height="140"/>
<path fill-rule="evenodd" clip-rule="evenodd" d="M197 63C197 32.6243 156.706 8 107 8C57.2944 8 17 32.6243 17 63V77C17 107.376 57.2944 132 107 132C156.706 132 197 107.376 197 77V63Z"/>
</mask>
<path d="M107 16C130.626 16 151.631 21.8685 166.468 30.9354C181.442 40.0862 189 51.6537 189 63H205C205 43.9706 192.411 28.0382 174.811 17.2829C157.074 6.44366 133.08 0 107 0V16ZM25 63C25 51.6537 32.558 40.0862 47.532 30.9354C62.3687 21.8685 83.3739 16 107 16V0C80.9205 0 56.9257 6.44366 39.1888 17.2829C21.5892 28.0382 9 43.9706 9 63H25ZM25 77V63H9V77H25ZM107 124C83.3739 124 62.3687 118.131 47.532 109.065C32.558 99.9138 25 88.3463 25 77H9C9 96.0294 21.5892 111.962 39.1888 122.717C56.9257 133.556 80.9205 140 107 140V124ZM189 77C189 88.3463 181.442 99.9138 166.468 109.065C151.631 118.131 130.626 124 107 124V140C133.08 140 157.074 133.556 174.811 122.717C192.411 111.962 205 96.0294 205 77H189ZM189 63V77H205V63H189Z" fill="#633001" mask="url(#path-61-outside-16)"/>
<path d="M197 77C197 107.376 156.706 132 107 132C57.2944 132 17 107.376 17 77V63H197V77Z" fill="#FEDC90"/>
<path d="M197 63C197 93.3757 156.706 118 107 118C57.2944 118 17 93.3757 17 63C17 32.6243 57.2944 8 107 8C156.706 8 197 32.6243 197 63Z" fill="#D1884F"/>
</svg>
