<svg width="800" height="112" viewBox="0 0 800 112" fill="none" xmlns="http://www.w3.org/2000/svg">
<g clip-path="url(#clip0)">
<rect y="-9" width="800" height="130" fill="#39200D"/>
<g filter="url(#filter0_d)">
<path d="M35 0H567L618.454 44.6733C625.342 50.6536 625.342 61.3463 618.454 67.3266L567 112H35V0Z" fill="url(#paint0_linear)"/>
<path d="M35 -0.5H34.5V0V112V112.5H35H567H567.187L567.328 112.378L618.782 67.7042C625.9 61.5246 625.9 50.4754 618.782 44.2958L567.328 -0.377555L567.187 -0.5H567H35Z" stroke="#241509" stroke-opacity="0.4"/>
</g>
<g filter="url(#filter1_d)">
<rect x="499" y="-9" width="39" height="130" fill="#4E321C"/>
<rect x="498.5" y="-9.5" width="40" height="131" stroke="#241509" stroke-width="0.999997"/>
</g>
<circle cx="321" cy="56" r="9" fill="#311F10"/>
<path fill-rule="evenodd" clip-rule="evenodd" d="M312.641 60.3961C312.545 59.8869 312.495 59.3616 312.495 58.8246C312.495 54.1436 316.29 50.3489 320.971 50.3489C325.652 50.3489 329.447 54.1436 329.447 58.8246C329.447 59.3618 329.397 59.8873 329.301 60.3967C327.722 63.3826 324.584 65.4172 320.971 65.4172C317.358 65.4172 314.22 63.3824 312.641 60.3961Z" fill="#130B04"/>
<circle cx="203" cy="56" r="9" fill="#311F10"/>
<path fill-rule="evenodd" clip-rule="evenodd" d="M194.641 60.3961C194.545 59.8869 194.495 59.3616 194.495 58.8246C194.495 54.1436 198.29 50.3489 202.971 50.3489C207.652 50.3489 211.447 54.1436 211.447 58.8246C211.447 59.3618 211.397 59.8873 211.301 60.3967C209.722 63.3826 206.584 65.4172 202.971 65.4172C199.358 65.4172 196.22 63.3824 194.641 60.3961Z" fill="#130B04"/>
<circle cx="85" cy="56" r="9" fill="#311F10"/>
<path fill-rule="evenodd" clip-rule="evenodd" d="M76.6405 60.3961C76.5451 59.8869 76.4951 59.3616 76.4951 58.8246C76.4951 54.1436 80.2898 50.3489 84.9709 50.3489C89.6519 50.3489 93.4466 54.1436 93.4466 58.8246C93.4466 59.3618 93.3966 59.8873 93.3011 60.3967C91.7217 63.3826 88.5839 65.4172 84.971 65.4172C81.3577 65.4172 78.2198 63.3824 76.6405 60.3961Z" fill="#130B04"/>
<ellipse cx="281.5" cy="56" rx="9.5" ry="9" fill="#311F10"/>
<path fill-rule="evenodd" clip-rule="evenodd" d="M273.088 60.397C272.992 59.8874 272.942 59.3619 272.942 58.8246C272.942 54.1436 276.737 50.3489 281.418 50.3489C286.099 50.3489 289.894 54.1436 289.894 58.8246C289.894 59.3615 289.844 59.8867 289.748 60.3959C288.169 63.3823 285.031 65.4172 281.418 65.4172C277.805 65.4172 274.667 63.3827 273.088 60.397Z" fill="#130B04"/>
<ellipse cx="163.5" cy="56" rx="9.5" ry="9" fill="#311F10"/>
<path fill-rule="evenodd" clip-rule="evenodd" d="M155.088 60.397C154.992 59.8874 154.942 59.3619 154.942 58.8246C154.942 54.1436 158.737 50.3489 163.418 50.3489C168.099 50.3489 171.894 54.1436 171.894 58.8246C171.894 59.3615 171.844 59.8867 171.748 60.3959C170.169 63.3823 167.031 65.4172 163.418 65.4172C159.805 65.4172 156.667 63.3827 155.088 60.397Z" fill="#130B04"/>
<ellipse cx="45.5" cy="56" rx="9.5" ry="9" fill="#311F10"/>
<path fill-rule="evenodd" clip-rule="evenodd" d="M37.0879 60.397C36.9924 59.8874 36.9424 59.3619 36.9424 58.8246C36.9424 54.1436 40.7371 50.3489 45.4181 50.3489C50.0991 50.3489 53.8939 54.1436 53.8939 58.8246C53.8939 59.3615 53.8439 59.8867 53.7485 60.3959C52.1693 63.3823 49.0312 65.4172 45.4179 65.4172C41.8051 65.4172 38.6674 63.3827 37.0879 60.397Z" fill="#130B04"/>
<ellipse cx="359.5" cy="56" rx="9.5" ry="9" fill="#311F10"/>
<path fill-rule="evenodd" clip-rule="evenodd" d="M351.252 60.397C351.156 59.8874 351.106 59.3619 351.106 58.8246C351.106 54.1436 354.901 50.3489 359.582 50.3489C364.263 50.3489 368.058 54.1436 368.058 58.8246C368.058 59.3615 368.008 59.8867 367.913 60.3959C366.333 63.3823 363.195 65.4172 359.582 65.4172C355.969 65.4172 352.831 63.3827 351.252 60.397Z" fill="#130B04"/>
<ellipse cx="241.5" cy="56" rx="9.5" ry="9" fill="#311F10"/>
<path fill-rule="evenodd" clip-rule="evenodd" d="M233.252 60.397C233.156 59.8874 233.106 59.3619 233.106 58.8246C233.106 54.1436 236.901 50.3489 241.582 50.3489C246.263 50.3489 250.058 54.1436 250.058 58.8246C250.058 59.3615 250.008 59.8867 249.913 60.3959C248.333 63.3823 245.195 65.4172 241.582 65.4172C237.969 65.4172 234.831 63.3827 233.252 60.397Z" fill="#130B04"/>
<ellipse cx="123.5" cy="56" rx="9.5" ry="9" fill="#311F10"/>
<path fill-rule="evenodd" clip-rule="evenodd" d="M115.252 60.397C115.156 59.8874 115.106 59.3619 115.106 58.8246C115.106 54.1436 118.901 50.3489 123.582 50.3489C128.263 50.3489 132.058 54.1436 132.058 58.8246C132.058 59.3615 132.008 59.8867 131.913 60.3959C130.333 63.3823 127.195 65.4172 123.582 65.4172C119.969 65.4172 116.831 63.3827 115.252 60.397Z" fill="#130B04"/>
<g filter="url(#filter2_d)">
<path fill-rule="evenodd" clip-rule="evenodd" d="M360.273 41.5315C365.196 41.5315 369.22 45.4596 369.22 50.3304C369.22 52.5825 368.373 54.6252 366.943 56.1964C368.373 57.7676 369.22 59.8102 369.22 62.0624C369.22 66.8808 365.302 70.7565 360.485 70.8613H360.326H348.68C347.992 70.8613 347.463 70.3375 347.41 69.7091V69.6043V60.0197H353.339V64.4716C353.339 64.7335 353.551 64.9953 353.815 64.9953H353.868H360.22C361.862 64.9953 363.185 63.686 363.185 62.0624C363.185 60.4911 361.914 59.1817 360.326 59.1294H360.22H354.239V53.2634H360.273C361.914 53.2634 363.238 51.954 363.238 50.3304C363.238 48.7592 361.967 47.4498 360.379 47.3975H360.273H353.921C353.656 47.3975 353.392 47.607 353.392 47.8688V47.9212V52.373H347.357V42.7885C347.357 42.1076 347.886 41.5839 348.522 41.5315H348.627H360.273ZM380.019 50.4352C384.518 50.4352 388.912 52.1635 388.912 60.5959C388.912 61.0672 388.859 61.8529 388.806 62.3766L388.753 62.5861H377.213V62.6385C377.213 64.7858 379.33 65.5191 380.919 65.5191C382.507 65.5191 383.195 65.4143 384.042 65.1001C384.518 64.943 384.995 64.6811 385.577 64.6287C386.689 64.524 387.694 64.8906 388.118 65.8333C388.806 67.4046 388.012 68.7139 386.477 69.6043C385.418 70.2328 383.142 70.8613 380.813 70.8613C376.154 70.8613 370.967 68.7663 370.861 62.2719V62.0624V59.2865C370.808 52.4778 375.89 50.4352 380.019 50.4352ZM393.835 43.417C395.582 43.417 397.117 44.3597 397.17 46.4547V46.6118V67.6141C397.17 69.4472 395.688 70.9137 393.835 70.9137C392.035 70.9137 390.553 69.4996 390.5 67.7712V67.6664V46.6118C390.5 44.4121 392.035 43.417 393.835 43.417ZM405.693 44.5692C407.281 44.5692 408.816 45.512 408.869 47.5546V47.7117V51.0113H410.775C412.839 51.0113 413.633 52.373 413.633 53.6824C413.633 54.9918 412.839 56.2488 410.933 56.3011H410.775H408.869V64.2097C408.869 65.1525 409.345 65.362 409.928 65.4143C410.404 65.4667 410.722 65.3096 411.357 65.3096C412.416 65.3096 413.316 65.9905 413.527 67.0379C413.792 68.3473 413.263 69.4472 412.31 70.0233C411.569 70.4947 410.351 70.8613 409.24 70.8613C405.005 70.8613 402.517 69.1853 402.464 64.524V64.3145V56.3011H401.405C399.393 56.3011 398.546 55.0442 398.546 53.6824C398.546 52.4254 399.287 51.0637 401.246 51.0113H401.405H402.464V47.7117C402.517 45.5643 404.052 44.5692 405.693 44.5692ZM434.331 43.417C435.602 43.417 437.031 43.6789 438.037 44.3074C439.149 44.9882 439.413 46.0357 439.149 47.2927C438.884 48.2354 438.037 49.1258 436.978 49.1258C436.449 49.1258 436.184 49.0734 435.655 48.9687C435.284 48.9163 435.02 48.8639 434.755 48.8639C434.12 48.8639 433.802 49.1782 433.802 50.0686V50.1733V51.0637H435.655C437.719 51.0637 438.513 52.4254 438.513 53.7348C438.513 55.0965 437.719 56.3011 435.814 56.3535H435.655H433.802V67.6141C433.802 69.3948 432.32 70.8613 430.52 70.8613C428.72 70.8613 427.238 69.3948 427.238 67.6141V67.4569V67.2998V56.3011H426.126C424.115 56.3011 423.268 55.0442 423.268 53.6824C423.268 52.373 424.009 51.0637 425.967 51.0113H426.126H427.238V50.3304C427.132 45.1977 429.673 43.417 434.331 43.417ZM444.177 50.6447C445.924 50.6447 447.46 51.5874 447.512 53.6824V53.8395V67.6141C447.512 69.4472 446.03 70.9137 444.177 70.9137C442.378 70.9137 440.895 69.4996 440.842 67.7712V67.6664V53.8395C440.895 51.6398 442.378 50.6447 444.177 50.6447ZM418.503 64.3668C420.674 64.3668 421.944 65.6238 421.944 67.5617C421.944 69.4996 420.674 70.7565 418.503 70.7565C416.333 70.7565 415.063 69.4996 415.063 67.5617C415.063 65.6238 416.333 64.3668 418.503 64.3668ZM352.862 53.2634C353.074 53.2634 353.286 53.4205 353.339 53.6824V53.7348V58.7104C353.339 58.9199 353.18 59.1294 352.915 59.1817H352.862H347.833C347.622 59.1817 347.41 59.0246 347.357 58.7628V58.7104V53.7348C347.357 53.5253 347.516 53.3158 347.78 53.2634H347.833H352.862ZM346.457 53.2634V59.1294H345.292C343.122 58.9722 342.487 56.1964 342.487 56.1964C342.487 56.1964 343.122 53.5253 345.134 53.2634H345.292H346.457ZM380.072 55.5679C378.695 55.5679 377.319 56.2488 377.213 58.239V58.3961H382.665C382.771 56.3011 381.501 55.5679 380.072 55.5679ZM351.857 54.5204H348.839C348.733 54.5204 348.627 54.6252 348.627 54.7299V54.7823V57.7153C348.627 57.82 348.733 57.9248 348.839 57.9248H348.892H351.857C351.962 57.9248 352.068 57.82 352.068 57.7153V57.6629V56.8249H350.798C350.427 56.8249 350.163 56.563 350.163 56.1964C350.163 55.8821 350.427 55.6203 350.745 55.5679H350.798H352.068V54.7299C352.068 54.6252 351.962 54.5204 351.857 54.5204ZM359.162 55.4632C358.738 55.4632 358.421 55.7774 358.421 56.1964C358.421 56.6154 358.738 56.9296 359.162 56.9296C359.585 56.9296 359.903 56.6154 359.903 56.1964C359.903 55.7774 359.585 55.4632 359.162 55.4632ZM356.409 55.4632C355.986 55.4632 355.668 55.7774 355.668 56.1964C355.668 56.6154 355.986 56.9296 356.409 56.9296C356.833 56.9296 357.15 56.6154 357.15 56.1964C357.15 55.7774 356.833 55.4632 356.409 55.4632ZM444.177 43.417C445.977 43.417 447.512 44.255 447.512 46.35C447.512 48.4449 445.977 49.2829 444.177 49.2829C442.378 49.2829 440.842 48.4449 440.842 46.35C440.842 44.255 442.378 43.417 444.177 43.417Z" fill="#FCB251"/>
</g>
</g>
<defs>
<filter id="filter0_d" x="32" y="-6" width="600.62" height="124" filterUnits="userSpaceOnUse" color-interpolation-filters="sRGB">
<feFlood flood-opacity="0" result="BackgroundImageFix"/>
<feColorMatrix in="SourceAlpha" type="matrix" values="0 0 0 0 0 0 0 0 0 0 0 0 0 0 0 0 0 0 127 0"/>
<feOffset dx="3"/>
<feGaussianBlur stdDeviation="2.5"/>
<feColorMatrix type="matrix" values="0 0 0 0 0 0 0 0 0 0 0 0 0 0 0 0 0 0 0.3 0"/>
<feBlend mode="normal" in2="BackgroundImageFix" result="effect1_dropShadow"/>
<feBlend mode="normal" in="SourceGraphic" in2="effect1_dropShadow" result="shape"/>
</filter>
<filter id="filter1_d" x="496" y="-15" width="51" height="142" filterUnits="userSpaceOnUse" color-interpolation-filters="sRGB">
<feFlood flood-opacity="0" result="BackgroundImageFix"/>
<feColorMatrix in="SourceAlpha" type="matrix" values="0 0 0 0 0 0 0 0 0 0 0 0 0 0 0 0 0 0 127 0"/>
<feOffset dx="2.99999"/>
<feGaussianBlur stdDeviation="2.49999"/>
<feColorMatrix type="matrix" values="0 0 0 0 0 0 0 0 0 0 0 0 0 0 0 0 0 0 0.3 0"/>
<feBlend mode="normal" in2="BackgroundImageFix" result="effect1_dropShadow"/>
<feBlend mode="normal" in="SourceGraphic" in2="effect1_dropShadow" result="shape"/>
</filter>
<filter id="filter2_d" x="339.344" y="41.5315" width="111.311" height="35.6679" filterUnits="userSpaceOnUse" color-interpolation-filters="sRGB">
<feFlood flood-opacity="0" result="BackgroundImageFix"/>
<feColorMatrix in="SourceAlpha" type="matrix" values="0 0 0 0 0 0 0 0 0 0 0 0 0 0 0 0 0 0 127 0"/>
<feOffset dy="3.14286"/>
<feGaussianBlur stdDeviation="1.57143"/>
<feColorMatrix type="matrix" values="0 0 0 0 0 0 0 0 0 0 0 0 0 0 0 0 0 0 0.25 0"/>
<feBlend mode="normal" in2="BackgroundImageFix" result="effect1_dropShadow"/>
<feBlend mode="normal" in="SourceGraphic" in2="effect1_dropShadow" result="shape"/>
</filter>
<linearGradient id="paint0_linear" x1="258.5" y1="56" x2="632" y2="56" gradientUnits="userSpaceOnUse">
<stop stop-color="#39200D"/>
<stop offset="0.369766" stop-color="#5C3E26"/>
<stop offset="1" stop-color="#7E5A3E"/>
</linearGradient>
<clipPath id="clip0">
<rect width="800" height="112" fill="white"/>
</clipPath>
</defs>
</svg>
