<svg xmlns="http://www.w3.org/2000/svg" width="437" height="112" fill="none" viewBox="0 0 437 112"><g clip-path="url(#clip0)"><rect width="437" height="112" fill="#4E321C"/><g filter="url(#filter0_d)"><path fill="url(#paint0_linear)" d="M-34 0H308L359.454 44.6733C366.342 50.6536 366.342 61.3463 359.454 67.3266L308 112H-34V0Z"/><path stroke="#241509" stroke-opacity=".4" d="M-34 -0.5H-34.5V0V112V112.5H-34H308H308.187L308.328 112.378L359.782 67.7042C366.9 61.5246 366.9 50.4754 359.782 44.2958L308.328 -0.377555L308.187 -0.5H308H-34Z"/></g><g filter="url(#filter1_d)"><rect width="39" height="130" x="240" y="-9" fill="#4E321C"/><rect width="40" height="131" x="239.5" y="-9.5" stroke="#241509" stroke-width="1"/></g><circle cx="62" cy="56" r="9" fill="#311F10"/><ellipse cx="22.5" cy="56" fill="#311F10" rx="9.5" ry="9"/><path fill="#130B04" fill-rule="evenodd" d="M53.6405 60.3962C53.5451 59.8869 53.4951 59.3616 53.4951 58.8246C53.4951 54.1436 57.2898 50.3489 61.9709 50.3489C66.6519 50.3489 70.4466 54.1436 70.4466 58.8246C70.4466 59.3618 70.3966 59.8873 70.3011 60.3967C68.7217 63.3826 65.5839 65.4172 61.9709 65.4172C58.3577 65.4172 55.2198 63.3824 53.6405 60.3962Z" clip-rule="evenodd"/><path fill="#130B04" fill-rule="evenodd" d="M14.0875 60.3969C13.9919 59.8874 13.9419 59.3619 13.9419 58.8246C13.9419 54.1436 17.7366 50.3489 22.4176 50.3489C27.0986 50.3489 30.8934 54.1436 30.8934 58.8246C30.8934 59.3615 30.8434 59.8867 30.748 60.3959C29.1688 63.3823 26.0308 65.4172 22.4175 65.4172C18.8046 65.4172 15.6669 63.3827 14.0875 60.3969Z" clip-rule="evenodd"/><ellipse cx="100.5" cy="56" fill="#311F10" rx="9.5" ry="9"/><path fill="#130B04" fill-rule="evenodd" d="M92.2524 60.3969C92.1568 59.8874 92.1068 59.3619 92.1068 58.8246C92.1068 54.1436 95.9015 50.3489 100.583 50.3489C105.264 50.3489 109.058 54.1436 109.058 58.8246C109.058 59.3615 109.008 59.8867 108.913 60.3959C107.334 63.3823 104.196 65.4172 100.582 65.4172C96.9695 65.4172 93.8318 63.3827 92.2524 60.3969Z" clip-rule="evenodd"/><g filter="url(#filter2_d)"><path fill="#FCB251" fill-rule="evenodd" d="M152.452 32C160.327 32 166.762 38.2834 166.762 46.0749C166.762 49.6774 165.407 52.9447 163.121 55.4581C165.407 57.9715 166.762 61.2389 166.762 64.8414C166.762 72.549 160.496 78.7487 152.79 78.9162H152.536H133.907C132.806 78.9162 131.96 78.0784 131.875 77.0731V76.9055V61.574H141.359V68.6952C141.359 69.1141 141.698 69.533 142.121 69.533H142.206H152.367C154.992 69.533 157.109 67.4385 157.109 64.8414C157.109 62.328 155.077 60.2335 152.536 60.1497H152.367H142.798V50.7665H152.452C155.077 50.7665 157.194 48.672 157.194 46.0749C157.194 43.5615 155.161 41.467 152.621 41.3832H152.452H142.29C141.867 41.3832 141.444 41.7184 141.444 42.1373V42.221V49.3422H131.79V34.0107C131.79 32.9216 132.637 32.0838 133.653 32H133.823H152.452ZM184.036 46.2424C191.234 46.2424 198.262 49.0071 198.262 62.4955C198.262 63.2496 198.177 64.5062 198.093 65.344L198.008 65.6791H179.548V65.7629C179.548 69.1979 182.935 70.3708 185.476 70.3708C188.016 70.3708 189.117 70.2032 190.472 69.7005C191.234 69.4492 191.996 69.0303 192.927 68.9465C194.706 68.779 196.315 69.3654 196.992 70.8734C198.093 73.3868 196.823 75.4813 194.367 76.9055C192.673 77.9109 189.032 78.9162 185.306 78.9162C177.855 78.9162 169.556 75.5651 169.387 65.1765V64.8414V60.4011C169.302 49.5098 177.431 46.2424 184.036 46.2424ZM206.137 35.016C208.931 35.016 211.387 36.5241 211.472 39.8752V40.1266V73.7219C211.472 76.6542 209.101 79 206.137 79C203.258 79 200.887 76.738 200.802 73.9733V73.8057V40.1266C200.802 36.6078 203.258 35.016 206.137 35.016ZM225.105 36.8592C227.645 36.8592 230.101 38.3672 230.185 41.6346V41.8859V47.164H233.234C236.536 47.164 237.806 49.3422 237.806 51.4367C237.806 53.5312 236.536 55.5419 233.488 55.6257H233.234H230.185V68.2763C230.185 69.7843 230.948 70.1194 231.879 70.2032C232.641 70.287 233.149 70.0357 234.165 70.0357C235.859 70.0357 237.298 71.1248 237.637 72.8004C238.06 74.8948 237.214 76.6542 235.69 77.5758C234.504 78.3298 232.556 78.9162 230.778 78.9162C224.004 78.9162 220.024 76.2353 219.94 68.779V68.4439V55.6257H218.246C215.028 55.6257 213.673 53.615 213.673 51.4367C213.673 49.426 214.859 47.2478 217.992 47.164H218.246H219.94V41.8859C220.024 38.451 222.48 36.8592 225.105 36.8592ZM270.915 35.016C272.948 35.016 275.234 35.4349 276.843 36.4403C278.621 37.5294 279.044 39.205 278.621 41.2157C278.198 42.7237 276.843 44.148 275.149 44.148C274.302 44.148 273.879 44.0642 273.032 43.8966C272.44 43.8128 272.016 43.7291 271.593 43.7291C270.577 43.7291 270.069 44.2317 270.069 45.656V45.8235V47.2478H273.032C276.335 47.2478 277.605 49.426 277.605 51.5205C277.605 53.6988 276.335 55.6257 273.286 55.7094H273.032H270.069V73.7219C270.069 76.5704 267.698 78.9162 264.819 78.9162C261.94 78.9162 259.569 76.5704 259.569 73.7219V73.4706V73.2193V55.6257H257.79C254.573 55.6257 253.218 53.615 253.218 51.4367C253.218 49.3422 254.403 47.2478 257.536 47.164H257.79H259.569V46.0749C259.399 37.8645 263.464 35.016 270.915 35.016ZM286.665 46.5775C289.46 46.5775 291.915 48.0856 292 51.4367V51.6881V73.7219C292 76.6542 289.629 79 286.665 79C283.786 79 281.415 76.738 281.331 73.9733V73.8057V51.6881C281.415 48.1693 283.786 46.5775 286.665 46.5775ZM245.597 68.5276C249.069 68.5276 251.101 70.5383 251.101 73.6381C251.101 76.738 249.069 78.7487 245.597 78.7487C242.125 78.7487 240.093 76.738 240.093 73.6381C240.093 70.5383 242.125 68.5276 245.597 68.5276ZM140.597 50.7665C140.935 50.7665 141.274 51.0178 141.359 51.4367V51.5205V59.4795C141.359 59.8146 141.105 60.1497 140.681 60.2335H140.597H132.552C132.214 60.2335 131.875 59.9822 131.79 59.5633V59.4795V51.5205C131.79 51.1854 132.044 50.8503 132.468 50.7665H132.552H140.597ZM130.351 50.7665V60.1497H128.488C125.016 59.8984 124 55.4581 124 55.4581C124 55.4581 125.016 51.1854 128.234 50.7665H128.488H130.351ZM184.121 54.4528C181.919 54.4528 179.718 55.5419 179.548 58.7255V58.9768H188.27C188.44 55.6257 186.407 54.4528 184.121 54.4528ZM138.988 52.7772H134.161C133.992 52.7772 133.823 52.9447 133.823 53.1123V53.1961V57.8877C133.823 58.0553 133.992 58.2228 134.161 58.2228H134.246H138.988C139.157 58.2228 139.327 58.0553 139.327 57.8877V57.8039V56.4635H137.294C136.702 56.4635 136.278 56.0446 136.278 55.4581C136.278 54.9554 136.702 54.5365 137.21 54.4528H137.294H139.327V53.1123C139.327 52.9447 139.157 52.7772 138.988 52.7772ZM150.673 54.2852C149.996 54.2852 149.488 54.7879 149.488 55.4581C149.488 56.1283 149.996 56.631 150.673 56.631C151.351 56.631 151.859 56.1283 151.859 55.4581C151.859 54.7879 151.351 54.2852 150.673 54.2852ZM146.27 54.2852C145.593 54.2852 145.085 54.7879 145.085 55.4581C145.085 56.1283 145.593 56.631 146.27 56.631C146.948 56.631 147.456 56.1283 147.456 55.4581C147.456 54.7879 146.948 54.2852 146.27 54.2852ZM286.665 35.016C289.544 35.016 292 36.3565 292 39.7077C292 43.0588 289.544 44.3993 286.665 44.3993C283.786 44.3993 281.331 43.0588 281.331 39.7077C281.331 36.3565 283.786 35.016 286.665 35.016Z" clip-rule="evenodd"/></g></g><defs><filter id="filter0_d" width="410.62" height="124" x="-37" y="-6" color-interpolation-filters="sRGB" filterUnits="userSpaceOnUse"><feFlood flood-opacity="0" result="BackgroundImageFix"/><feColorMatrix in="SourceAlpha" type="matrix" values="0 0 0 0 0 0 0 0 0 0 0 0 0 0 0 0 0 0 127 0"/><feOffset dx="3"/><feGaussianBlur stdDeviation="2.5"/><feColorMatrix type="matrix" values="0 0 0 0 0 0 0 0 0 0 0 0 0 0 0 0 0 0 0.3 0"/><feBlend in2="BackgroundImageFix" mode="normal" result="effect1_dropShadow"/><feBlend in="SourceGraphic" in2="effect1_dropShadow" mode="normal" result="shape"/></filter><filter id="filter1_d" width="51" height="142" x="237" y="-15" color-interpolation-filters="sRGB" filterUnits="userSpaceOnUse"><feFlood flood-opacity="0" result="BackgroundImageFix"/><feColorMatrix in="SourceAlpha" type="matrix" values="0 0 0 0 0 0 0 0 0 0 0 0 0 0 0 0 0 0 127 0"/><feOffset dx="3"/><feGaussianBlur stdDeviation="2.5"/><feColorMatrix type="matrix" values="0 0 0 0 0 0 0 0 0 0 0 0 0 0 0 0 0 0 0.3 0"/><feBlend in2="BackgroundImageFix" mode="normal" result="effect1_dropShadow"/><feBlend in="SourceGraphic" in2="effect1_dropShadow" mode="normal" result="shape"/></filter><filter id="filter2_d" width="176" height="55" x="120" y="32" color-interpolation-filters="sRGB" filterUnits="userSpaceOnUse"><feFlood flood-opacity="0" result="BackgroundImageFix"/><feColorMatrix in="SourceAlpha" type="matrix" values="0 0 0 0 0 0 0 0 0 0 0 0 0 0 0 0 0 0 127 0"/><feOffset dy="4"/><feGaussianBlur stdDeviation="2"/><feColorMatrix type="matrix" values="0 0 0 0 0 0 0 0 0 0 0 0 0 0 0 0 0 0 0.25 0"/><feBlend in2="BackgroundImageFix" mode="normal" result="effect1_dropShadow"/><feBlend in="SourceGraphic" in2="effect1_dropShadow" mode="normal" result="shape"/></filter><linearGradient id="paint0_linear" x1="-.5" x2="373" y1="56" y2="56" gradientUnits="userSpaceOnUse"><stop stop-color="#39200D"/><stop offset=".135" stop-color="#5C3E26"/><stop offset="1" stop-color="#7E5A3E"/></linearGradient><clipPath id="clip0"><rect width="437" height="112" fill="#fff"/></clipPath></defs></svg>