<svg width="96" height="96" viewBox="0 0 96 96" fill="none" xmlns="http://www.w3.org/2000/svg">
<circle cx="48" cy="48" r="48" fill="#FCB251"/>
<path fill-rule="evenodd" clip-rule="evenodd" d="M55.2574 16C65.8465 16 74.5 24.5396 74.5 35.1287C74.5 40.0248 72.6782 44.4653 69.604 47.8812C72.6782 51.297 74.5 55.7376 74.5 60.6337C74.5 71.1089 66.0743 79.5347 55.7129 79.7624H55.3713H30.3218C28.8416 79.7624 27.703 78.6238 27.5891 77.2574V77.0297V56.1931H40.3416V65.8713C40.3416 66.4406 40.797 67.0099 41.3663 67.0099H41.4802H55.1436C58.6733 67.0099 61.5198 64.1634 61.5198 60.6337C61.5198 57.2178 58.7871 54.3713 55.3713 54.2574H55.1436H42.2772V41.5049H55.2574C58.7871 41.5049 61.6337 38.6584 61.6337 35.1287C61.6337 31.7129 58.901 28.8663 55.4851 28.7525H55.2574H41.5941C41.0248 28.7525 40.4554 29.2079 40.4554 29.7772V29.8911V39.5693H27.4752V18.7327C27.4752 17.2525 28.6139 16.1139 29.9802 16H30.2079H55.2574ZM39.3168 41.5049C39.7723 41.5049 40.2277 41.8465 40.3416 42.4158V42.5297V53.3465C40.3416 53.802 40 54.2574 39.4307 54.3713H39.3168H28.5C28.0446 54.3713 27.5891 54.0297 27.4752 53.4604V53.3465V42.5297C27.4752 42.0743 27.8168 41.6188 28.3861 41.5049H28.5H39.3168ZM25.5396 41.5049V54.2574H23.0347C18.3663 53.9158 17 47.8812 17 47.8812C17 47.8812 18.3663 42.0743 22.6931 41.5049H23.0347H25.5396ZM37.1535 44.2376H30.6634C30.4356 44.2376 30.2079 44.4653 30.2079 44.6931V44.8069V51.1832C30.2079 51.4109 30.4356 51.6386 30.6634 51.6386H30.7772H37.1535C37.3812 51.6386 37.6089 51.4109 37.6089 51.1832V51.0693V49.2475H34.8762C34.0792 49.2475 33.5099 48.6782 33.5099 47.8812C33.5099 47.198 34.0792 46.6287 34.7624 46.5148H34.8762H37.6089V44.6931C37.6089 44.4653 37.3812 44.2376 37.1535 44.2376ZM52.8663 46.2871C51.9554 46.2871 51.2723 46.9703 51.2723 47.8812C51.2723 48.7921 51.9554 49.4752 52.8663 49.4752C53.7772 49.4752 54.4604 48.7921 54.4604 47.8812C54.4604 46.9703 53.7772 46.2871 52.8663 46.2871ZM46.9455 46.2871C46.0347 46.2871 45.3515 46.9703 45.3515 47.8812C45.3515 48.7921 46.0347 49.4752 46.9455 49.4752C47.8564 49.4752 48.5396 48.7921 48.5396 47.8812C48.5396 46.9703 47.8564 46.2871 46.9455 46.2871Z" fill="white"/>
</svg>
