<svg xmlns="http://www.w3.org/2000/svg" width="96" height="96" fill="none" viewBox="0 0 96 96"><circle cx="48" cy="48" r="48" fill="#fff"/><path fill="#4A9629" d="M54.7168 26.2406C54.7168 33.6781 47.7102 34.0771 47.7102 34.0771C47.7102 34.0771 40.7036 33.6781 40.7036 26.2566C40.7036 20.048 45.5875 14.031 47.1995 12.2274C47.4708 11.9242 47.9496 11.9242 48.205 12.2274C49.817 14.031 54.7168 20.032 54.7168 26.2406Z"/><path fill="#4A9629" d="M54.7168 26.3364H40.7036V63.9868H54.7168V26.3364Z"/><path fill="#8BC10F" d="M40.7355 24.134C45.9865 29.385 41.326 34.62 41.326 34.62C41.326 34.62 36.0911 39.2963 30.8401 34.0454C26.451 29.6563 25.653 21.9475 25.5094 19.5215C25.4934 19.1225 25.8126 18.7873 26.2276 18.8033C28.6216 18.9629 36.3464 19.7449 40.7355 24.134Z"/><path fill="#8BC10F" d="M40.7966 24.2038L30.8921 34.1167L49.9953 53.2037L59.8998 43.2908L40.7966 24.2038Z"/><path fill="#8BC10F" d="M64.5803 34.1408C59.3293 39.3917 54.0943 34.7313 54.0943 34.7313C54.0943 34.7313 49.418 29.4963 54.6689 24.2454C59.058 19.8563 66.7668 19.0583 69.1928 18.9146C69.5918 18.8987 69.927 19.2179 69.911 19.6329C69.7674 22.0429 68.9693 29.7517 64.5803 34.1408Z"/><path fill="#8BC10F" d="M64.5205 34.2082L54.6075 24.3037L32.7906 46.1392L42.7035 56.0437L64.5205 34.2082Z"/><path fill="#870C85" d="M64.8995 31.1245H30.5528C29.9463 31.1245 29.3718 31.4437 29.0526 31.9704L20.9607 45.3452C20.6415 45.8559 20.6255 46.4943 20.8968 47.037L39.5066 83.9372C39.8098 84.5278 40.4004 84.8948 41.0707 84.8948H54.3816C55.036 84.8948 55.6425 84.5278 55.9457 83.9372L74.5554 47.037C74.8268 46.4943 74.7949 45.8559 74.4916 45.3452L66.3838 31.9704C66.0805 31.4597 65.5059 31.1245 64.8995 31.1245Z"/></svg>