<svg xmlns="http://www.w3.org/2000/svg" xmlns:v="https://vecta.io/nano" xmlns:xlink="https://www.w3.org/1999/xlink" width="437" height="112" fill="none"><style>.B{fill:#fff}.C{fill-opacity:.2}</style><g clip-path="url(#B)"><path fill="url(#A)" d="M0 0h490v112H0z" transform="translate(-26)"/><g class="B C" clip-path="url(#C)"><path d="M131.204 155.015l-24.052 13.887a3.79 3.79 0 0 1-5.173-1.386l-34.085-59.038a3.79 3.79 0 0 1 1.386-5.173l24.052-13.887a3.79 3.79 0 0 1 5.173 1.386l34.086 59.037a3.79 3.79 0 0 1-1.387 5.173zM96.319 92.067a1.26 1.26 0 0 0-1.724-.462l-24.052 13.887a1.26 1.26 0 0 0-.462 1.724l34.085 59.037c.349.604 1.121.811 1.725.462l24.052-13.886c.604-.349.811-1.121.462-1.725L96.319 92.067zm-3.651 23.974a3.79 3.79 0 0 1-5.173-1.387 3.79 3.79 0 0 1 1.386-5.173 3.79 3.79 0 0 1 5.173 1.386 3.79 3.79 0 0 1-1.386 5.174zm-2.525-4.373a1.262 1.262 0 1 0 1.262 2.186 1.262 1.262 0 1 0-1.262-2.186zm-9.085-.586a3.79 3.79 0 0 1-5.174-1.387 3.79 3.79 0 0 1 1.386-5.173 3.79 3.79 0 0 1 5.174 1.386 3.79 3.79 0 0 1-1.386 5.174zm-2.525-4.373a1.262 1.262 0 1 0 1.262 2.186 1.26 1.26 0 0 0-1.262-2.186zm15.645-3.202a3.79 3.79 0 0 1-5.173-1.386 3.79 3.79 0 0 1 1.386-5.173 3.79 3.79 0 0 1 5.174 1.386 3.79 3.79 0 0 1-1.386 5.173zm-2.525-4.373a1.26 1.26 0 0 0-.462 1.724c.349.604 1.121.811 1.724.463s.811-1.121.462-1.725-1.121-.811-1.725-.462zm74.536 35.683l-24.052 13.886a3.79 3.79 0 0 1-5.173-1.386L102.879 88.28c-1.046-1.811-.426-4.128 1.386-5.173l24.052-13.886a3.79 3.79 0 0 1 5.174 1.386l34.085 59.037a3.79 3.79 0 0 1-1.387 5.174zm-34.885-62.949c-.349-.604-1.121-.811-1.725-.462l-24.052 13.886c-.603.349-.81 1.121-.462 1.724l34.085 59.038c.349.603 1.121.81 1.725.462l24.052-13.887a1.26 1.26 0 0 0 .462-1.724l-34.085-59.038zm14.394 32.506l-19.679 11.362c-.604.348-1.376.141-1.725-.462s-.142-1.376.462-1.725l19.679-11.362c.604-.348 1.376-.141 1.725.463s.141 1.375-.462 1.724zm-19.556 4.002a3.79 3.79 0 0 1-5.173-1.387 3.79 3.79 0 0 1 1.386-5.173 3.79 3.79 0 0 1 5.174 1.386 3.79 3.79 0 0 1-1.387 5.174zm-2.524-4.374c-.604.349-.811 1.121-.463 1.725s1.121.81 1.725.462a1.26 1.26 0 0 0 .462-1.724c-.349-.604-1.121-.811-1.724-.463zm15.644-3.201a3.79 3.79 0 0 1-5.174-1.386 3.79 3.79 0 0 1 1.387-5.174 3.79 3.79 0 0 1 5.173 1.386 3.79 3.79 0 0 1-1.386 5.173zm-2.525-4.373a1.262 1.262 0 1 0 1.262 2.187 1.262 1.262 0 1 0-1.262-2.187zm-15.644 3.201a3.79 3.79 0 0 1-5.174-1.386 3.79 3.79 0 0 1 1.387-5.174 3.79 3.79 0 0 1 5.173 1.386 3.79 3.79 0 0 1-1.386 5.173zm-2.525-4.373a1.26 1.26 0 0 0 1.262 2.186 1.262 1.262 0 0 0-1.262-2.186zm15.644-3.201a3.79 3.79 0 0 1-5.173-1.386 3.79 3.79 0 0 1 1.386-5.173 3.79 3.79 0 0 1 5.173 1.386 3.79 3.79 0 0 1-1.386 5.174zm-2.525-4.373c-.603.349-.81 1.121-.462 1.724s1.121.811 1.725.462.81-1.121.462-1.725-1.121-.811-1.725-.462zm-15.644 3.201a3.79 3.79 0 0 1-5.173-1.386 3.79 3.79 0 0 1 1.386-5.173 3.79 3.79 0 0 1 5.173 1.386c1.046 1.811.426 4.128-1.386 5.173zm-2.525-4.373c-.603.349-.81 1.121-.462 1.724s1.121.811 1.725.462.81-1.121.462-1.724-1.121-.811-1.725-.462zm15.644-3.201a3.79 3.79 0 0 1-5.173-1.386 3.79 3.79 0 0 1 1.386-5.173 3.79 3.79 0 0 1 5.174 1.386 3.79 3.79 0 0 1-1.387 5.174zm-2.524-4.373a1.262 1.262 0 0 0 1.262 2.186 1.262 1.262 0 0 0-1.262-2.186z"/></g><g class="B C" clip-path="url(#D)"><path d="M343.089-38.831l-26.827-7.188a3.79 3.79 0 0 0-4.638 2.678L293.98 22.506a3.79 3.79 0 0 0 2.678 4.638l26.827 7.188a3.79 3.79 0 0 0 4.638-2.678l17.644-65.847a3.79 3.79 0 0 0-2.678-4.638zm-17.404 69.832c-.181.673-.873 1.073-1.546.893l-26.827-7.188c-.674-.181-1.073-.873-.893-1.546l17.644-65.847a1.26 1.26 0 0 1 1.546-.893l26.827 7.188a1.26 1.26 0 0 1 .892 1.546l-17.643 65.848zM309.29 4.39a3.79 3.79 0 0 0 4.638-2.678c.542-2.02-.657-4.097-2.678-4.638a3.79 3.79 0 0 0-4.638 2.678 3.79 3.79 0 0 0 2.678 4.638zm1.307-4.878c.673.18 1.073.873.893 1.546s-.873 1.073-1.546.893a1.26 1.26 0 0 1-.893-1.546c.18-.673.873-1.073 1.546-.893zM325.883.994a3.79 3.79 0 0 0-4.638 2.678 3.79 3.79 0 0 0 2.678 4.638 3.79 3.79 0 0 0 4.638-2.678c.542-2.02-.657-4.097-2.678-4.638zm-1.307 4.878a1.263 1.263 0 0 1 .654-2.439 1.263 1.263 0 0 1-.654 2.439z"/><use xlink:href="#L"/><path d="M306.023 16.584a3.79 3.79 0 0 0-4.639 2.678 3.79 3.79 0 0 0 2.678 4.638 3.79 3.79 0 0 0 4.639-2.678 3.79 3.79 0 0 0-2.678-4.638zm-1.307 4.878c-.674-.181-1.073-.873-.893-1.546s.873-1.073 1.546-.893 1.073.873.893 1.546-.873 1.073-1.546.893zm15.939-.957a3.79 3.79 0 0 0-4.638 2.678 3.79 3.79 0 0 0 2.678 4.638 3.79 3.79 0 0 0 4.638-2.678c.542-2.02-.657-4.097-2.678-4.638zm-1.307 4.878a1.263 1.263 0 1 1 .654-2.439 1.263 1.263 0 1 1-.654 2.439zm62.762-53.759l-26.827-7.188a3.79 3.79 0 0 0-4.638 2.678l-17.644 65.847a3.79 3.79 0 0 0 2.678 4.638l26.827 7.188a3.79 3.79 0 0 0 4.638-2.678l17.644-65.847a3.79 3.79 0 0 0-2.678-4.638zm-17.405 69.832a1.26 1.26 0 0 1-1.546.893l-26.827-7.188a1.26 1.26 0 0 1-.892-1.546l17.644-65.847a1.26 1.26 0 0 1 1.546-.893l26.826 7.188c.674.181 1.073.873.893 1.546l-17.644 65.847zm5.491-35.123L348.246.452c-.673-.18-1.365.219-1.546.893a1.26 1.26 0 0 0 .893 1.546l21.949 5.881a1.263 1.263 0 1 0 .654-2.439zm-19.925 1.196a3.79 3.79 0 0 0-4.638 2.678c-.542 2.02.657 4.097 2.678 4.638a3.79 3.79 0 0 0 4.638-2.678 3.79 3.79 0 0 0-2.678-4.638zm-1.307 4.878c-.673-.18-1.073-.873-.893-1.546s.873-1.073 1.546-.893a1.26 1.26 0 0 1 .893 1.546c-.18.674-.873 1.073-1.546.893zm15.94-.957a3.79 3.79 0 0 0-4.639 2.678 3.79 3.79 0 0 0 2.678 4.638 3.79 3.79 0 0 0 4.639-2.678 3.79 3.79 0 0 0-2.678-4.638zm-1.307 4.878c-.674-.181-1.073-.873-.893-1.546s.873-1.073 1.546-.893 1.073.873.893 1.546-.873 1.073-1.546.893zm-15.94.956a3.79 3.79 0 0 0-4.638 2.678 3.79 3.79 0 0 0 2.678 4.638 3.79 3.79 0 0 0 4.638-2.678c.542-2.02-.657-4.097-2.678-4.638zm-1.307 4.877a1.263 1.263 0 1 1 .654-2.439 1.263 1.263 0 1 1-.654 2.439zm15.94-.956a3.79 3.79 0 0 0-4.639 2.678 3.79 3.79 0 0 0 2.678 4.638 3.79 3.79 0 0 0 4.639-2.678 3.79 3.79 0 0 0-2.678-4.638zm-1.307 4.877c-.674-.18-1.073-.873-.893-1.546s.873-1.073 1.546-.893 1.073.873.893 1.546-.873 1.073-1.546.893zm-15.94.957a3.79 3.79 0 0 0-4.638 2.678c-.542 2.02.657 4.097 2.678 4.638a3.79 3.79 0 0 0 4.638-2.678c.542-2.02-.657-4.097-2.678-4.638zm-1.307 4.877a1.263 1.263 0 1 1 .654-2.439 1.263 1.263 0 1 1-.654 2.439zm15.94-.956a3.79 3.79 0 0 0-4.638 2.678c-.542 2.02.657 4.097 2.678 4.638a3.79 3.79 0 0 0 4.638-2.678 3.79 3.79 0 0 0-2.678-4.638zm-1.307 4.878c-.673-.18-1.073-.873-.893-1.546s.873-1.073 1.547-.893a1.263 1.263 0 0 1-.654 2.439z"/></g><g class="B C" clip-path="url(#E)"><path d="M53.24 116.791l-.076-.341-3.762-9.372 13.069-48.776a3.79 3.79 0 0 0-2.678-4.638L8.579 39.941a3.79 3.79 0 0 0-4.638 2.678l-13.07 48.776-7.944 6.236a1.51 1.51 0 0 0-.133.144 1.58 1.58 0 0 0-.104.113 1.24 1.24 0 0 0-.204.409l-1.634 6.097c-.18.673.219 1.365.893 1.546l4.878 1.307-.327 1.219a3.79 3.79 0 0 0 2.678 4.639l51.215 13.722c2.02.542 4.097-.657 4.638-2.678l.327-1.219 4.878 1.307a1.26 1.26 0 0 0 1.546-.893l1.634-6.097c.038-.148.047-.303.028-.456zM6.379 43.272c.18-.673.873-1.073 1.546-.893L59.14 56.103a1.26 1.26 0 0 1 .893 1.546l-12.198 45.523-1.568-3.904 10.02-37.395a3.79 3.79 0 0 0-2.678-4.638l-41.46-11.11a3.79 3.79 0 0 0-4.638 2.678l-10.02 37.395-3.31 2.597L6.379 43.272zm12.824 20.426l-3.267 12.194-12.194-3.267 3.267-12.194 12.194 3.267zm-11.54-5.706l.98-3.658 12.194 3.267-.98 3.658-12.194-3.267zm7.62 20.339l-.98 3.658-12.194-3.267.98-3.658 12.194 3.267zm30.071 14.592L44.047 97.8.148 86.039l1.307-4.878 43.898 11.763zm-9.078-24.651l-3.267 12.194-14.633-3.921 3.267-12.194 14.633 3.921zm-13.979-6.36l.98-3.658 14.633 3.921-.98 3.658-14.633-3.921zm10.059 20.992l-.98 3.658-14.633-3.921.98-3.658 14.633 3.921zm1.459 4.312l.98-3.658 12.194 3.267-.98 3.658-12.194-3.267zm1.634-6.097l3.267-12.194 12.194 3.267-3.267 12.194-12.194-3.267zm3.921-14.633l.98-3.658 12.194 3.267-.98 3.658-12.194-3.267zM9.296 51.896l.653-2.439c.18-.674.873-1.073 1.546-.893l41.46 11.109c.673.181 1.073.873.893 1.546l-.654 2.439L9.296 51.896zM-1.115 88.314l45.118 12.089 5.878 14.645-63.409-16.99 12.413-9.743zm43.504 35.182c-.181.674-.873 1.073-1.546.893l-51.215-13.723c-.674-.181-1.073-.873-.893-1.546l.327-1.22 53.653 14.377-.327 1.219zm7.077-2.024l-65.847-17.644.98-3.658 65.847 17.643-.98 3.659zM8.509 98.735l.653-2.439c.361-1.347-.438-2.731-1.785-3.092L.06 91.243c-1.347-.361-2.731.438-3.092 1.785l-.653 2.439c-.673-.18-1.366.219-1.546.893a1.26 1.26 0 0 0 .893 1.546l12.194 3.267a1.26 1.26 0 1 0 .653-2.438zm-2.439-.653l-7.316-1.96.653-2.439 7.316 1.96-.653 2.439zm19.51 5.227l.653-2.439c.361-1.347-.438-2.731-1.785-3.092l-7.316-1.96c-1.347-.361-2.731.438-3.092 1.785l-.654 2.439a1.262 1.262 0 1 0-.653 2.438l12.194 3.268c.674.18 1.366-.22 1.546-.893s-.219-1.366-.892-1.546zm-2.439-.654l-7.316-1.96.653-2.439 7.316 1.961-.653 2.438zm19.511 5.228l.654-2.439c.361-1.347-.438-2.731-1.785-3.092l-7.316-1.96c-1.347-.361-2.732.438-3.092 1.785l-.654 2.439a1.262 1.262 0 1 0-.653 2.438L42 110.322a1.26 1.26 0 0 0 1.546-.893c.18-.674-.219-1.365-.892-1.546zm-2.439-.653l-7.316-1.961.653-2.439 7.316 1.961-.654 2.439zM26.018 77.287a5.05 5.05 0 0 0 6.185-3.571c.228-.869.217-1.784-.032-2.647l.424-.245a1.26 1.26 0 0 0 .443-1.713c-.345-.596-1.103-.807-1.705-.473l-.424.245a4.98 4.98 0 0 0-2.277-1.351 5.05 5.05 0 1 0-2.614 9.755zm1.96-7.316a2.48 2.48 0 0 1 .599.258l-.337.195a1.26 1.26 0 0 0-.013 2.201 1.26 1.26 0 0 0 1.275-.015l.337-.195a2.47 2.47 0 0 1-.075.648c-.361 1.347-1.745 2.146-3.092 1.785s-2.146-1.745-1.785-3.092 1.745-2.146 3.092-1.785zM10.166 73.04a5.05 5.05 0 0 0 6.184-3.571c.228-.869.217-1.784-.032-2.647l.424-.245a1.26 1.26 0 0 0 .443-1.713c-.345-.596-1.103-.807-1.705-.473l-.424.245a4.98 4.98 0 0 0-2.277-1.351 5.05 5.05 0 1 0-2.614 9.755zm1.96-7.316a2.48 2.48 0 0 1 .599.258l-.337.195a1.26 1.26 0 0 0-.013 2.201 1.26 1.26 0 0 0 1.275-.015l.337-.195a2.47 2.47 0 0 1-.076.648c-.361 1.347-1.745 2.146-3.092 1.785s-2.146-1.745-1.785-3.092 1.745-2.146 3.092-1.785zm36.32 9.348a1.26 1.26 0 0 0 .443-1.713c-.345-.596-1.103-.807-1.705-.473l-.424.245a4.98 4.98 0 0 0-2.277-1.351 5.05 5.05 0 1 0-2.614 9.755 5.05 5.05 0 0 0 6.184-3.571c.228-.869.218-1.784-.032-2.647l.424-.245zm-5.923 4.024c-1.347-.361-2.146-1.745-1.785-3.092s1.745-2.146 3.092-1.785a2.48 2.48 0 0 1 .599.258l-.337.195a1.26 1.26 0 0 0-.012 2.201 1.26 1.26 0 0 0 1.275-.015l.337-.195a2.47 2.47 0 0 1-.076.648c-.361 1.347-1.745 2.146-3.092 1.785z"/></g><g class="B C" clip-path="url(#F)"><path d="M104.832 2.197a1.26 1.26 0 0 0-.892-1.546 21.49 21.49 0 0 0-26.285 15.175c-.18.673.219 1.366.893 1.546a1.26 1.26 0 0 0 1.546-.893C82.811 6.386 93.186.396 103.286 3.09a1.26 1.26 0 0 0 1.546-.893zM93.484 39.672a1.26 1.26 0 1 0-.653 2.439c11.447 3.053 23.205-3.735 26.284-15.175a1.26 1.26 0 0 0-.893-1.546c-.673-.18-1.365.219-1.546.893a18.96 18.96 0 0 1-23.192 13.39zm42.732-16.933c.01-.012.016-.022.016-.035l-.004-.011a37.65 37.65 0 0 0-1.63-12.33c-.003-.017.009-.032-.001-.05-.017-.051-.039-.101-.065-.148a38.14 38.14 0 0 0-8.351-14.478 1.2 1.2 0 0 0-.096-.129c-.012-.011-.03-.008-.042-.024a37.63 37.63 0 0 0-9.873-7.581l-.008-.009a.3.3 0 0 1-.032-.008 37.6 37.6 0 0 0-16.389-4.391c-.011-.002-.021-.005-.032-.009l-.011.004a37.65 37.65 0 0 0-12.338 1.629c-.016.002-.03-.008-.048 0a1.14 1.14 0 0 0-.148.064 38.15 38.15 0 0 0-14.473 8.354 1.24 1.24 0 0 0-.13.096c-.012.012-.008.032-.026.043a37.68 37.68 0 0 0-7.576 9.863l-.009.008-.009.034a37.59 37.59 0 0 0-4.391 16.386l-.009.034.004.014a37.65 37.65 0 0 0 1.629 12.33c.003.016-.008.032.001.05a1.18 1.18 0 0 0 .126.345 38.14 38.14 0 0 0 8.288 14.288 1.26 1.26 0 0 0 .096.129c.017.015.037.024.054.038 2.844 3.051 6.176 5.607 9.858 7.566l.008.009c.017.005.034.009.049.021 5.046 2.685 10.637 4.183 16.35 4.381.017.005.034.009.053.006l.011-.004a37.67 37.67 0 0 0 12.32-1.623c.022-.003.044-.001.066-.006a1.21 1.21 0 0 0 .147-.064 38.14 38.14 0 0 0 14.32-8.218 1.18 1.18 0 0 0 .282-.236c.012-.012.008-.032.026-.043 3.054-2.845 5.614-6.178 7.575-9.863l.011-.01.009-.034c2.693-5.056 4.195-10.661 4.391-16.386zm-2.483-1.149l-8.872.536a26.34 26.34 0 0 0-1.106-8.314l8.709-1.775c.86 3.111 1.287 6.326 1.269 9.554zm-12.179 5.999c-3.441 12.786-16.583 20.374-29.377 16.961a23.99 23.99 0 0 1-16.96-29.376 23.99 23.99 0 0 1 29.376-16.961 23.99 23.99 0 0 1 16.961 29.376zm10.144-17.977l.005.001-8.792 1.796a26.72 26.72 0 0 0-3.623-6.276l5.951-6.716a35.63 35.63 0 0 1 6.459 11.194zM115.877-9.336a35.12 35.12 0 0 1 7.64 5.883l-5.893 6.655a26.34 26.34 0 0 0-6.647-5.122l4.9-7.416zm-2.252-1.169l-4.947 7.486c-1.114-.481-2.261-.884-3.431-1.207a26.48 26.48 0 0 0-3.575-.67l-.541-8.956c4.337.329 8.574 1.464 12.494 3.348zm-15.029-3.461l.536 8.873a26.33 26.33 0 0 0-8.316 1.106l-1.778-8.704c3.112-.862 6.329-1.291 9.558-1.275zm-11.98 2.035l1.796 8.792A26.72 26.72 0 0 0 82.136.484L75.42-5.468a35.65 35.65 0 0 1 11.195-6.464zM73.551-3.749l6.655 5.892a26.33 26.33 0 0 0-5.121 6.646l-7.416-4.9a35.09 35.09 0 0 1 5.882-7.638zm-9.309 15.982a35.34 35.34 0 0 1 2.257-6.091l7.486 4.947a26.43 26.43 0 0 0-1.207 3.431 26.42 26.42 0 0 0-.671 3.575l-8.956.541a35.35 35.35 0 0 1 1.091-6.403zm-1.205 8.94l8.873-.536a26.33 26.33 0 0 0 1.106 8.315l-8.703 1.777a35.06 35.06 0 0 1-1.275-9.556zm2.035 11.979l8.792-1.796a26.72 26.72 0 0 0 3.623 6.276l-5.952 6.716c-2.819-3.307-5.01-7.101-6.464-11.196zm15.823 18.941c-2.805-1.598-5.377-3.576-7.642-5.877l5.893-6.655a26.33 26.33 0 0 0 6.649 5.116l-4.9 7.416zm2.251 1.176l4.947-7.486a26.39 26.39 0 0 0 3.431 1.207 26.42 26.42 0 0 0 3.575.67l.541 8.956a34.96 34.96 0 0 1-12.494-3.348zm15.029 3.461l-.536-8.873a26.33 26.33 0 0 0 8.316-1.106l1.777 8.71a35.12 35.12 0 0 1-9.557 1.269zm11.98-2.035l-1.796-8.792c2.246-.917 4.358-2.136 6.275-3.623l6.716 5.952a35.62 35.62 0 0 1-11.195 6.464zm13.065-8.182l-6.655-5.892a26.34 26.34 0 0 0 5.115-6.647l7.416 4.9a35.1 35.1 0 0 1-5.876 7.639zm7.052-9.891l-7.486-4.947a26.52 26.52 0 0 0 1.207-3.431c.305-1.175.529-2.369.67-3.575l8.956-.541a34.94 34.94 0 0 1-3.347 12.494zM68.554 10.774a1.26 1.26 0 0 0-1.546.893l-.653 2.439a1.26 1.26 0 1 0 2.439.653l.654-2.439a1.26 1.26 0 0 0-.893-1.546zm2.961 24.663a1.26 1.26 0 0 0-1.713-.443c-.596.345-.807 1.103-.473 1.705l1.262 2.186a1.26 1.26 0 0 0 1.713.443c.596-.345.807-1.103.473-1.705l-1.262-2.186zm20.248 15.536l-2.439-.654a1.26 1.26 0 1 0-.653 2.439l2.439.654a1.26 1.26 0 0 0 1.546-.893c.18-.673-.219-1.366-.893-1.546zm20.028-1.625a1.26 1.26 0 0 0 1.913 1.089l2.186-1.262c.59-.355.787-1.117.443-1.713a1.26 1.26 0 0 0-1.705-.473l-2.187 1.262c-.399.221-.647.641-.65 1.097zm17.733-22.237c-.674-.18-1.366.219-1.547.893l-.653 2.439a1.26 1.26 0 0 0 .893 1.546c.674.18 1.365-.219 1.546-.893l.653-2.439a1.26 1.26 0 0 0-.892-1.546zm-4.268-19.786a1.26 1.26 0 0 0 1.713.443c.596-.344.807-1.103.473-1.705l-1.262-2.186c-.355-.59-1.117-.788-1.714-.443a1.26 1.26 0 0 0-.473 1.705l1.263 2.186zm-23.5 28.029a1.26 1.26 0 0 0-.892-1.546c-.854-.229-1.705-.682-1.035-3.181l.448-1.673a7.49 7.49 0 0 0 6.647.279c3.356-1.623 4.682-6.16 3.309-11.254-.978-4.095-5.033-8.592-7.364-10.908a1.26 1.26 0 0 0-1.212-.325c-3.176.84-8.936 2.703-11.806 5.738-3.761 3.751-4.881 8.343-2.785 11.428 1.377 1.89 3.557 3.029 5.895 3.08l-.448 1.673c-.67 2.5-1.634 2.466-2.487 2.238a1.26 1.26 0 1 0-.653 2.439l10.838 2.904a1.26 1.26 0 0 0 1.546-.893zm-2.642-9.595c-.406.132-.718.461-.829.873l-.897 3.347a7.62 7.62 0 0 0-.283 2.822l-3.322-.89a7.62 7.62 0 0 0 1.167-2.591l.897-3.347a1.26 1.26 0 0 0-1.415-1.573c-1.979.41-4.02-.327-5.28-1.906-1.392-2.05-.396-5.352 2.505-8.246 1.715-1.811 5.316-3.569 9.943-4.868 3.358 3.438 5.599 6.763 6.187 9.222 1.056 3.921.271 7.28-1.962 8.362a5.37 5.37 0 0 1-5.528-.988c-.333-.267-.779-.348-1.184-.215z"/></g><g class="B C" clip-path="url(#G)"><path d="M469.282 127.297l-.11.029a7.55 7.55 0 0 0-11.355-2.952l-2.743-1.584c8.249-15.542 2.724-34.826-12.504-43.642-.029-.021-.048-.051-.079-.07s-.068-.018-.1-.033c-15.646-8.994-35.619-3.642-44.672 11.97-.021.029-.051.048-.07.079s-.019.068-.033.1c-8.906 15.487-3.757 35.255 11.573 44.43l-9.212 16.759a3.6 3.6 0 0 0 .291 4.012c1.014 1.252 2.678 1.776 4.227 1.331l13.181-3.532c.674-.181 1.073-.873.893-1.546s-.873-1.073-1.546-.893l-13.182 3.532c-.569.187-1.194.009-1.579-.45a1.06 1.06 0 0 1-.07-1.236l9.213-16.765a32.58 32.58 0 0 0 15.616 3.456l2.196 8.196c.361 1.347 1.745 2.146 3.092 1.785l35.363-9.475a6.32 6.32 0 0 0 4.463-7.731l-1.307-4.878a1.26 1.26 0 0 0-1.546-.892zm-8.296-1.697c2.219-.595 4.56.392 5.684 2.397l-9.409 2.521c-.029-2.298 1.505-4.323 3.725-4.918zm-4.968.65c-.978 1.451-1.423 3.196-1.259 4.938l-8.682 2.326a32.72 32.72 0 0 0 7.735-8.538l2.206 1.274zm-16.334 2.93l-.01-.036a7.07 7.07 0 0 0-.305-.683c-.004-.017-.019-.032-.027-.048a7.7 7.7 0 0 0-.359-.624c-.022-.033-.047-.063-.069-.096a7.83 7.83 0 0 0-.377-.52c-.044-.056-.093-.106-.139-.163-.117-.136-.232-.271-.356-.397-.072-.073-.148-.142-.224-.213l-.325-.289a6.61 6.61 0 0 0-.297-.233 6.86 6.86 0 0 0-.293-.216 7.74 7.74 0 0 0-.35-.225c-.095-.058-.192-.115-.288-.168-.063-.034-.122-.075-.186-.107s-.128-.056-.192-.087c-.105-.051-.21-.097-.316-.143s-.243-.101-.366-.146-.257-.087-.387-.127c-.105-.032-.21-.065-.315-.092a7.05 7.05 0 0 0-.504-.109c-.072-.013-.139-.032-.218-.041a7.22 7.22 0 0 0-.641-.071l-.106-.01c-.251-.014-.502-.016-.753-.005l-.014.004c-.121.006-.243.019-.365.03l-3.004-11.21c.721-.362 1.366-.859 1.898-1.465l5.89 3.4a7.56 7.56 0 0 0 2.936 10.021c3.499 2.02 7.967.933 10.147-2.468l1.876 1.083a30.14 30.14 0 0 1-10.656 10.164l-1.06-3.956c-.069-.255-.151-.507-.245-.754zm7.883-7.808c-1.47 2.2-4.395 2.882-6.687 1.559s-3.164-4.197-1.994-6.571l8.681 5.012zm-7.014-6.966c1.594-1.13 3.701-1.228 5.394-.251s2.661 2.851 2.479 4.797l-7.873-4.546zm12.352 7.132l-2.128-1.228c.781-3.261-.675-6.647-3.579-8.323s-6.563-1.244-8.997 1.062l-6.143-3.547a6.23 6.23 0 0 0 .321-2.377l6.329-1.696c1.535 3.361 5.272 5.121 8.84 4.165s5.925-4.349 5.573-8.027l2.497-.669a30.32 30.32 0 0 1-2.713 20.64zm-2.286-19.3c.029 2.298-1.504 4.322-3.724 4.917s-4.561-.392-5.685-2.396l9.409-2.521zm-10.062.082c-.029-2.298 1.505-4.323 3.725-4.918s4.56.392 5.684 2.397l-9.409 2.521zm14.429-3.866l-2.518.675c-1.535-3.36-5.272-5.121-8.84-4.165s-5.924 4.35-5.573 8.026l-6.329 1.696c-.362-.721-.859-1.366-1.465-1.898l12.037-20.851c6.055 3.826 10.552 9.68 12.688 16.517zm-35.522-20.509c6.988-1.569 14.307-.601 20.648 2.73l-12.033 20.849c-.766-.259-1.575-.368-2.383-.319l-6.232-23.26zm10.272 28.581a3.79 3.79 0 0 1-2.678 4.639 3.79 3.79 0 0 1-4.638-2.678 3.79 3.79 0 0 1 2.678-4.639 3.79 3.79 0 0 1 4.638 2.678zm-12.711-27.928l6.232 23.26c-.721.362-1.366.859-1.898 1.466l-20.851-12.037c3.826-6.055 9.68-10.553 16.517-12.688zm-17.779 14.874l20.851 12.038a6.27 6.27 0 0 0-.321 2.377l-5 1.34c-1.082-4.041-5.236-6.439-9.276-5.356s-6.439 5.236-5.356 9.277l-3.628.972c-1.569-6.989-.601-14.307 2.73-20.648zm3.336 19.022a5.05 5.05 0 0 1 9.755-2.614l-9.755 2.614zm9.731.007c-.456 1.738-1.81 3.099-3.546 3.564s-3.589-.036-4.853-1.314l8.399-2.25zm-7.841 16.195c-3.357-3.412-5.852-7.575-7.281-12.143l4.033-1.081a7.56 7.56 0 0 0 13.779-3.692l5.426-1.454a6.27 6.27 0 0 0 1.466 1.898l-5.634 9.761a7.56 7.56 0 0 0-6.187-1.043 7.59 7.59 0 0 0-5.602 7.754zm5.517 4.152c-1.763-.778-2.926-2.494-2.995-4.419a5.03 5.03 0 0 1 2.669-4.623c1.702-.903 3.77-.754 5.325.384l-4.999 8.658zm2.686.396l3.997-6.923c.094.204.174.415.24.631a5.05 5.05 0 0 1-3.571 6.184 4.69 4.69 0 0 1-.666.108zm12.621.61l1.06 3.956a30.08 30.08 0 0 1-11.95-2.367 7.55 7.55 0 0 0 3.731-11.659l5.945-10.298a6.27 6.27 0 0 0 2.377.321l3.003 11.207c-.068.031-.137.057-.204.091-3.234 1.603-4.891 5.261-3.962 8.749zm44.4-.135a3.79 3.79 0 0 1-2.678 4.639l-35.362 9.475-3.85-14.367c-.518-1.891.026-3.914 1.423-5.29l.03-.028c.173-.157.357-.3.552-.428.11-.077.227-.153.346-.224a4.38 4.38 0 0 1 .417-.207 4.99 4.99 0 0 1 .732-.273c.319-.085.646-.138.975-.158.081-.006.162.005.243.003a4.99 4.99 0 0 1 .723.028c.102.013.202.043.302.062a4.89 4.89 0 0 1 .619.149c.122.039.239.095.358.144.17.068.336.143.499.228a5.02 5.02 0 0 1 .509.335c.108.076.22.145.323.228.181.158.351.329.508.511.063.071.135.131.195.209.18.23.34.476.477.734.023.043.056.08.079.125.158.31.284.636.374.973l1.307 4.877-6.097 1.634c-.673.18-1.073.873-.893 1.546s.873 1.073 1.547.893l35.362-9.476.98 3.658z"/></g><g class="B C" clip-path="url(#H)"><path d="M401.874 44.568a1.48 1.48 0 0 0-1.812 1.046 1.48 1.48 0 0 0 1.047 1.812 1.48 1.48 0 0 0 1.811-1.046 1.48 1.48 0 0 0-1.046-1.812zm2.406-27.207a1.48 1.48 0 0 0-1-.904l-5.716-1.532a1.48 1.48 0 0 0-1.812 1.046 1.48 1.48 0 0 0 1.046 1.812l3.734 1-4.025 6.095a1.48 1.48 0 0 0 .42 2.05 1.47 1.47 0 0 0 .432.195 1.48 1.48 0 0 0 1.618-.614l5.155-7.808a1.48 1.48 0 0 0 .148-1.34zm17.148 4.595a1.48 1.48 0 0 0-1-.904l-5.716-1.532a1.48 1.48 0 0 0-1.812 1.046 1.48 1.48 0 0 0 1.046 1.812l3.734 1-4.025 6.095a1.48 1.48 0 0 0 .42 2.05 1.47 1.47 0 0 0 .432.195 1.48 1.48 0 0 0 1.617-.614l5.156-7.808a1.48 1.48 0 0 0 .148-1.34zm17.148 4.595a1.48 1.48 0 0 0-1-.904l-5.716-1.532a1.48 1.48 0 0 0-1.812 1.046 1.48 1.48 0 0 0 1.046 1.812l3.733 1-4.024 6.095a1.48 1.48 0 0 0 .419 2.05c.137.09.283.155.433.195a1.48 1.48 0 0 0 1.617-.614l5.155-7.808a1.48 1.48 0 0 0 .149-1.34zm-19.554 22.611l-11.432-3.063a1.48 1.48 0 0 0-1.812 1.046 1.48 1.48 0 0 0 1.046 1.812l11.432 3.063a1.48 1.48 0 0 0 1.812-1.046 1.48 1.48 0 0 0-1.046-1.812zm41.245-32.751c-3.94-1.056-8.004 1.291-9.059 5.23-.604 2.255-.094 4.662 1.327 6.479l-4.328 16.15-7.43-1.991 6.854-25.579c4.011-14.971-4.905-30.414-19.876-34.426s-30.414 4.905-34.426 19.876l-11.18 41.726c-.634 2.364.774 4.802 3.138 5.436l45.727 12.253c2.364.633 4.803-.774 5.436-3.138l1.149-4.287 8.859 2.374a7.41 7.41 0 0 0 9.06-5.23l5.591-20.866c2.139-.863 3.784-2.692 4.389-4.947a7.41 7.41 0 0 0-5.231-9.059zm-66.109-5.921l14.29 3.829-4.825 18.005-14.29-3.829 4.825-18.005zm27.619 45.537l-25.721-6.892 2.297-8.574 25.722 6.892-2.298 8.574zm13.347-4.082l-1.532 5.716a1.48 1.48 0 0 1-1.812 1.046l-7.145-1.914 2.681-10.003a1.48 1.48 0 0 0-1.047-1.812L397.69 37.32a1.48 1.48 0 0 0-1.812 1.046l-2.68 10.003-7.145-1.915a1.48 1.48 0 0 1-1.046-1.812l3.561-13.29 48.585 13.018-2.029 7.574zM406.481 33.09l4.825-18.005 14.289 3.829-4.824 18.005-14.29-3.829zm31.438 8.424l-14.29-3.829 4.824-18.005 14.29 3.829-4.824 18.005zm5.59-20.863L394.924 7.632l1.263-4.716c3.589-13.395 17.407-21.373 30.802-17.783s21.373 17.407 17.784 30.802l-1.264 4.716zm2.286 32.623l-7.431-1.991 1.647-6.145 7.431 1.991-1.647 6.145zm6.865-2.755c-.499 1.863-2.12 3.131-3.941 3.275l4.759-17.759 2.858.766-3.676 13.718zm4.441-16.576l-2.858-.766.805-3.003a7.41 7.41 0 0 0 1.39.528c.482.129.974.208 1.468.238l-.805 3.003zm2.4-6.098a4.45 4.45 0 0 1-2.297-.001c-.753-.201-1.441-.599-1.99-1.148-1.117-1.12-1.557-2.763-1.148-4.288.633-2.364 3.071-3.772 5.435-3.138s3.772 3.072 3.139 5.436a4.46 4.46 0 0 1-3.139 3.14zm-33.278-39.854c-11.819-3.167-24.011 3.872-27.178 15.691a1.48 1.48 0 0 0 1.046 1.812l40.012 10.721a1.48 1.48 0 0 0 1.812-1.046c3.166-11.819-3.873-24.011-15.692-27.178zM415.147 6.465L402.34 3.034c3.299-9.382 13.355-14.801 23.117-12.185s15.762 12.337 13.928 22.111l-24.238-6.495zm9.545-12.758a1.48 1.48 0 0 0-1.812 1.046L421.348.469a1.48 1.48 0 0 0 1.046 1.812 1.48 1.48 0 0 0 1.812-1.046l1.532-5.716a1.48 1.48 0 0 0-1.046-1.812zM417.323.998l-2.959-5.124a1.48 1.48 0 0 0-2.021-.541 1.48 1.48 0 0 0-.541 2.021l2.958 5.124c.204.354.533.591.898.689s.769.056 1.123-.148a1.48 1.48 0 0 0 .542-2.021zm17.25.291a1.48 1.48 0 0 0-2.021-.541l-5.124 2.958a1.48 1.48 0 0 0-.542 2.021c.205.354.533.591.899.689s.769.056 1.122-.148l5.124-2.958a1.48 1.48 0 0 0 .542-2.021z"/></g><g class="B C" clip-path="url(#I)"><path d="M313.282 114.585l-3.666.982c-.675.181-1.368-.22-1.549-.895l-.982-3.666c-.181-.674-.875-1.075-1.55-.894s-1.075.874-.894 1.549l.982 3.666c.542 2.025 2.624 3.227 4.648 2.684l3.666-.982c.675-.181 1.076-.875.895-1.55s-.875-1.075-1.55-.894zm6.455-54.12l3.666-.982c.675-.181 1.369.22 1.55.895l.982 3.666c.181.675.874 1.075 1.549.895s1.076-.875.895-1.549l-.983-3.666c-.542-2.025-2.623-3.226-4.648-2.684l-3.666.982c-.675.181-1.075.874-.894 1.549s.874 1.075 1.549.895zm-7.332 1.965l2.444-.655c.675-.181 1.075-.875.895-1.549s-.875-1.075-1.55-.895l-2.444.655c-.675.181-1.075.875-.894 1.549s.874 1.075 1.549.894zm-16.298 12.599a3.91 3.91 0 0 0 2.692.215c.223-.06.441-.138.652-.234a3.93 3.93 0 0 0 .521-.323l.388 1.448c-.675.181-1.075.874-.894 1.549s.874 1.075 1.549.894l2.444-.655c.675-.181 1.075-.874.895-1.549s-.875-1.075-1.55-.895l-.388-1.448a4.01 4.01 0 0 0 .611.018 3.97 3.97 0 0 0 2.906-1.659c1.144-1.678.603-4.104-1.313-6.012a13.14 13.14 0 0 0-5.658-2.793c-.436-.117-.902.008-1.222.328-1.568 1.431-2.766 3.22-3.492 5.215-.716 2.648.035 5.018 1.859 5.9zm.592-5.279a9.35 9.35 0 0 1 2.318-3.517 9.36 9.36 0 0 1 3.787 1.913c1.02 1.017 1.455 2.202 1.033 2.821-.255.33-.638.535-1.054.565a1.66 1.66 0 0 1-1.362-.533c-.331-.29-.784-.395-1.208-.281a1.32 1.32 0 0 0-.906.848 1.66 1.66 0 0 1-.913 1.143c-.375.182-.81.195-1.195.037-.67-.325-.885-1.569-.5-2.995zm40.213 30.271a3.71 3.71 0 0 0-3.865.342l-.388-1.448c.675-.181 1.076-.874.895-1.549s-.875-1.075-1.55-.895l-2.444.655c-.675.181-1.075.874-.894 1.549s.874 1.075 1.549.895l.388 1.448a3.72 3.72 0 0 0-3.517 1.64c-1.143 1.678-.603 4.104 1.314 6.012a13.13 13.13 0 0 0 5.659 2.793c.214.057.439.057.653-.001a1.25 1.25 0 0 0 .567-.326c1.568-1.431 2.766-3.22 3.492-5.215.717-2.647-.035-5.017-1.859-5.9zm-.592 5.279c-.495 1.333-1.288 2.536-2.318 3.517-1.392-.34-2.687-.994-3.786-1.913-1.021-1.017-1.456-2.202-1.034-2.821a1.39 1.39 0 0 1 .784-.517 1.67 1.67 0 0 1 .265-.048c.512-.042 1.015.155 1.362.534.331.289.784.395 1.208.281a1.32 1.32 0 0 0 .906-.848 1.66 1.66 0 0 1 .913-1.143c.375-.182.81-.195 1.195-.037.675.325.891 1.569.505 2.995zm-10.753-8.414c-.181-.675-.875-1.075-1.55-.895a1.16 1.16 0 0 1-.986-.081c-.3-.173-.507-.472-.563-.814l-.36-1.344c2-.137 3.836-1.157 5.009-2.783 1.925-2.833.909-7.039-2.502-10.44-2.632-2.78-7.853-4.472-10.731-5.234-.434-.115-.897.009-1.215.325-2.111 2.105-5.785 6.184-6.658 9.872-1.263 4.687-.04 8.837 3.045 10.329a6.74 6.74 0 0 0 5.719-.104l.355 1.325a1.16 1.16 0 0 1-.071.996c-.173.304-.473.515-.818.573-.675.181-1.075.874-.895 1.549s.875 1.076 1.55.895l9.776-2.62c.675-.181 1.076-.874.895-1.549zm-6.052-5.346c-.3.319-.413.771-.3 1.194l.809 3.018a4.05 4.05 0 0 0 .531 1.167l-2.852.764a4.07 4.07 0 0 0-.123-1.277l-.809-3.018c-.112-.424-.435-.761-.855-.888a1.27 1.27 0 0 0-1.206.262c-1.245 1.114-3.018 1.416-4.562.776-1.956-.945-2.639-3.915-1.694-7.427.516-2.154 2.502-5.108 5.487-8.173 4.117 1.163 7.316 2.728 8.863 4.361 2.549 2.543 3.441 5.456 2.222 7.251a4.35 4.35 0 0 1-4.34 1.611c-.43-.085-.873.059-1.171.379zm37.537-38.454l-24.44 6.549-1.31-4.888a5.06 5.06 0 0 0-6.197-3.578l-34.217 9.168a5.06 5.06 0 0 0-3.578 6.198l14.407 53.769a5.06 5.06 0 0 0 6.198 3.578l24.44-6.548 1.31 4.888a5.06 5.06 0 0 0 6.198 3.578l34.216-9.168a5.06 5.06 0 0 0 3.578-6.198l-14.407-53.77a5.06 5.06 0 0 0-6.198-3.578zm-16.696 35.449a4.24 4.24 0 0 1 2.959-1.579c1.395-.124 2.769.401 3.725 1.425.331.291.784.397 1.209.283s.765-.433.905-.849a4.55 4.55 0 0 1 2.513-3.1 4.22 4.22 0 0 1 3.478-.069c1.956.945 2.639 3.915 1.694 7.427-.514 2.154-2.502 5.108-5.487 8.174-4.117-1.163-7.316-2.729-8.851-4.349l-.239-.249-1.906-7.113zm-33.096 32.903a2.53 2.53 0 0 1-3.099-1.79L289.754 65.88a2.53 2.53 0 0 1 1.789-3.099l34.216-9.168a2.53 2.53 0 0 1 3.099 1.789l14.407 53.768a2.53 2.53 0 0 1-1.789 3.099l-34.216 9.169zm67.953-10.35a2.53 2.53 0 0 1-1.789 3.099l-34.216 9.168a2.53 2.53 0 0 1-3.099-1.789l-1.31-4.888 2.444-.655.328 1.222c.542 2.025 2.623 3.226 4.648 2.684l3.666-.983c.675-.18 1.075-.874.895-1.549s-.875-1.075-1.55-.894l-3.666.982c-.675.181-1.369-.22-1.549-.895l-.328-1.222 2.444-.655a5.06 5.06 0 0 0 3.579-6.197l-2.364-8.82a33.44 33.44 0 0 0 8.059 3.192 1.27 1.27 0 0 0 1.222-.328c2.111-2.099 5.786-6.176 6.666-9.863 1.262-4.687.039-8.837-3.048-10.329-1.793-.811-3.851-.793-5.63.048-1.379.631-2.513 1.698-3.227 3.036a6.96 6.96 0 0 0-7.779.295l-6.342-23.668 24.44-6.549a2.53 2.53 0 0 1 3.099 1.789l14.407 53.769zm-20.517-52.132l-3.666.982c-.675.181-1.075.875-.894 1.549s.874 1.075 1.549.894l3.666-.982c.675-.181 1.369.22 1.549.895l.983 3.666c.181.675.874 1.075 1.549.895s1.075-.875.895-1.549l-.983-3.666c-.542-2.025-2.623-3.226-4.648-2.684zm-8.554 2.293l-2.444.655c-.675.181-1.076.875-.895 1.549a1.27 1.27 0 0 0 1.55.895l2.444-.655c.675-.181 1.075-.875.894-1.549s-.874-1.075-1.549-.895zm18.225 41.132c-.437-.117-.902.008-1.222.327-1.568 1.431-2.766 3.22-3.492 5.215-.717 2.648.035 5.017 1.858 5.9.844.389 1.798.465 2.692.215a4.2 4.2 0 0 0 .653-.234c.624-.284 1.166-.721 1.576-1.271a4.07 4.07 0 0 0 2 .312c1.165-.099 2.229-.705 2.906-1.659 1.143-1.678.603-4.104-1.314-6.012-1.631-1.377-3.572-2.336-5.657-2.793zm4.882 7.379a1.46 1.46 0 0 1-1.053.565 1.66 1.66 0 0 1-1.363-.533c-.33-.29-.784-.395-1.208-.281a1.32 1.32 0 0 0-.906.847 1.66 1.66 0 0 1-.913 1.143c-.375.183-.81.197-1.195.038-.675-.325-.89-1.569-.505-2.995.494-1.333 1.286-2.536 2.315-3.516 1.392.339 2.688.993 3.787 1.912 1.025 1.017 1.461 2.202 1.038 2.821l.003-.001z"/></g><g class="B C" clip-path="url(#J)"><path d="M36.829 6.121c.605-.349.812-1.123.463-1.728L23.024-20.321a1.3 1.3 0 0 0-1.728-.463 7.77 7.77 0 0 1-5.93.778 7.77 7.77 0 0 1-4.746-3.639 1.3 1.3 0 0 0-1.728-.463L-40.535 4.43c-.605.349-.812 1.123-.463 1.728a7.76 7.76 0 0 1 .778 5.93 7.77 7.77 0 0 1-3.638 4.746c-.291.168-.503.444-.59.768s-.041.669.127.96l14.269 24.714a1.3 1.3 0 0 0 1.728.463A7.82 7.82 0 0 1-17.649 46.6c.349.605 1.123.812 1.728.463l49.428-28.537c.605-.349.812-1.123.463-1.728a7.82 7.82 0 0 1 2.861-10.676zM31.21 16.928l-47.367 27.347c-2.86-3.788-7.929-5.146-12.3-3.296l-13.08-22.655a10.27 10.27 0 0 0 3.759-5.583c.605-2.227.441-4.593-.464-6.716L9.127-21.321a10.27 10.27 0 0 0 5.585 3.76 10.27 10.27 0 0 0 6.716-.466L34.506 4.629c-3.788 2.86-5.146 7.929-3.296 12.3zm-.624-12.167c.324-.407.367-.971.107-1.421L20.636-14.079c-.261-.453-.773-.699-1.289-.619-3.593.54-7.249-.44-10.091-2.704-.407-.325-.971-.368-1.422-.108L-34.293 6.816c-.451.26-.696.771-.618 1.286a13.08 13.08 0 0 1-2.704 10.091c-.324.407-.367.971-.107 1.421l10.057 17.419c.26.45.77.696 1.284.618a13.08 13.08 0 0 1 10.091 2.704c.407.325.971.368 1.422.107l42.131-24.324c.451-.26.697-.771.618-1.286a13.08 13.08 0 0 1 2.704-10.091zm-5.312 9.603L-5.205 31.961c-.222-.4-.642-.649-1.099-.652s-.88.242-1.107.639-.221.886.015 1.278l-8.012 4.626a15.63 15.63 0 0 0-10.485-2.809l-9.219-15.969a15.63 15.63 0 0 0 2.809-10.485l8.012-4.626c.222.4.642.649 1.099.652s.88-.242 1.107-.639.221-.886-.015-1.278L8.379-14.899a15.64 15.64 0 0 0 10.485 2.809l9.22 15.969a15.63 15.63 0 0 0-2.809 10.485zM23.105-1.295l-4.75-1.336-1.789-4.742c-.172-.453-.587-.767-1.069-.811s-.947.192-1.197.607l-2.476 4.108-4.795.089c-.485.009-.921.294-1.125.734s-.138.957.169 1.332l-.004.001 3.207 3.924-1.218 4.782c-.117.46.032.946.387 1.26s.856.403 1.298.231l4.439-1.733 4.09 2.85c.403.281.931.303 1.356.057s.669-.715.627-1.204l-.422-4.967L23.552.91c.37-.296.543-.775.449-1.239s-.44-.837-.896-.966zm-5.849 4.724l.257 2.95-2.427-1.698c-.346-.241-.79-.294-1.183-.14l-2.778 1.08.768-3.014a1.27 1.27 0 0 0-.246-1.114L9.685-.908l2.881-.043c.435-.008.835-.239 1.06-.612l1.494-2.481 1.097 2.9c.142.376.455.662.841.77l2.994.842-2.326 1.865c-.33.264-.506.674-.471 1.095zM4.968 9.176L.218 7.84-1.577 3.1c-.174-.448-.588-.76-1.067-.802s-.941.19-1.192.6l-2.476 4.108-4.804.087c-.484.011-.919.298-1.12.738s-.134.957.173 1.33l3.207 3.923-1.218 4.782c-.117.459.033.946.388 1.259a1.27 1.27 0 0 0 1.298.231l4.439-1.731 4.091 2.849c.402.281.931.304 1.356.058s.67-.714.628-1.203l-.423-4.967 3.714-2.98c.37-.296.543-.775.449-1.24a1.26 1.26 0 0 0-.898-.965zm-5.843 4.728l.257 2.95-2.426-1.698c-.346-.241-.79-.295-1.183-.142l-2.78 1.089.768-3.015a1.27 1.27 0 0 0-.246-1.114l-1.963-2.4 2.883-.051c.435-.008.835-.239 1.06-.612l1.494-2.481 1.097 2.9a1.26 1.26 0 0 0 .841.77l2.994.841-2.326 1.865c-.331.264-.507.675-.471 1.096z"/></g><g clip-path="url(#K)"><path fill="#c9a31e" d="M198.512 67.123l-8.417-.097V45.32a4.27 4.27 0 0 0-.326-1.635c-.214-.518-.529-.989-.926-1.386a4.27 4.27 0 0 0-3.022-1.25c-.562 0-1.118.111-1.637.326s-.99.53-1.386.927a4.28 4.28 0 0 0-.927 1.387c-.214.519-.325 1.075-.324 1.636v25.882a4.26 4.26 0 0 0 .307 1.639 4.28 4.28 0 0 0 .911 1.397c.393.401.86.721 1.377.942a4.27 4.27 0 0 0 1.632.343l12.699.143c1.134.006 2.223-.438 3.029-1.235s1.263-1.882 1.269-3.015-.438-2.223-1.235-3.029-1.882-1.262-3.016-1.268h-.008z"/><g class="B"><path d="M249.929 33.514c-.274-.001-.543-.07-.783-.201l-7.155-3.987a2.32 2.32 0 0 1-.835-.884c-.195-.364-.289-.772-.274-1.184 0-.73.311-1.677 1.135-2.141l7.135-3.912a1.64 1.64 0 0 1 .613-.189 1.65 1.65 0 0 1 1.208.361 1.64 1.64 0 0 1 .409.495 1.66 1.66 0 0 1 .19.614c.022.215.001.432-.061.639a1.66 1.66 0 0 1-.3.568c-.136.168-.305.307-.495.41l-5.75 3.147 5.755 3.184a1.65 1.65 0 0 1-.782 3.09l-.01-.011zm-21.368 61.224a42.19 42.19 0 0 1-10.039-1.194c-8.838-2.164-13.975-6.491-14.189-6.673a2.45 2.45 0 0 1-.275-3.448c.421-.494 1.02-.8 1.667-.852a2.45 2.45 0 0 1 1.782.577c.756.636 18.373 15.039 44.98-.261a2.45 2.45 0 0 1 .91-.324c.322-.046.649-.028.964.053a2.45 2.45 0 0 1 1.506 1.148 2.46 2.46 0 0 1 .307.916c.04.323.016.65-.072.963a2.45 2.45 0 0 1-.439.86 2.43 2.43 0 0 1-.738.623c-10.094 5.81-19.088 7.612-26.364 7.612z"/></g><g fill="#c9a41e"><path d="M211.848 75.637c-1.186-.001-2.323-.472-3.162-1.311a4.48 4.48 0 0 1-1.313-3.162V45.521c0-1.186.471-2.324 1.31-3.163a4.48 4.48 0 0 1 3.163-1.312 4.47 4.47 0 0 1 4.472 4.472v25.644a4.47 4.47 0 0 1-.34 1.712c-.224.543-.553 1.036-.968 1.451a4.47 4.47 0 0 1-1.451.97c-.542.225-1.124.341-1.711.341zm35.593.149a4.47 4.47 0 0 1-3.164-1.311c-.839-.84-1.311-1.977-1.311-3.164V56.726a10.61 10.61 0 0 0-1.004-4.042c-1.019-2.042-2.607-2.952-5.192-2.952h-.013c-2.347 0-3.755.913-4.694 3.048a11.7 11.7 0 0 0-.878 3.912v14.603a4.49 4.49 0 0 1-.309 1.745c-.219.555-.546 1.061-.963 1.488a4.49 4.49 0 0 1-1.464.998 4.48 4.48 0 0 1-1.738.351c-.597 0-1.187-.119-1.737-.351a4.48 4.48 0 0 1-1.465-.998c-.417-.427-.744-.933-.962-1.488a4.45 4.45 0 0 1-.309-1.745V56.692c0-6.392 3.864-15.907 14.509-15.907h.018c4.188 0 7.8 1.398 10.447 4.039 4.566 4.563 4.694 11.14 4.694 11.876v14.603c.001.588-.113 1.169-.337 1.713a4.47 4.47 0 0 1-2.416 2.426c-.543.226-1.124.343-1.712.344z"/></g><g class="B"><path d="M267.2 58.713l7.502-10.872a4.5 4.5 0 0 0 .728-1.619 4.51 4.51 0 0 0-1.833-4.704 4.5 4.5 0 0 0-3.406-.715c-.587.113-1.145.341-1.642.672a4.5 4.5 0 0 0-1.256 1.255l-9.301 13.479s0 .021-.018.031a4.62 4.62 0 0 0-.352.639l-.084.175a4.76 4.76 0 0 0-.18.571l-.076.289c-.026.159-.043.319-.052.48 0 .133-.028.261-.028.399s.021.261.034.386a4.04 4.04 0 0 0 .06.488c.02.096.054.188.08.282a4.17 4.17 0 0 0 .191.576c.023.057.055.11.083.164a4.37 4.37 0 0 0 .365.642s0 .021.019.031l8.85 12.405a4.5 4.5 0 0 0 7.979-1.92 4.5 4.5 0 0 0-.651-3.295l-7.012-9.839zm-55.618-25.931a5.58 5.58 0 0 0 5.578-5.578 5.58 5.58 0 0 0-5.578-5.578 5.58 5.58 0 0 0-5.578 5.578 5.58 5.58 0 0 0 5.578 5.578z"/></g><path fill="#c9a31e" d="M169.976 56.598s4.783-.428 4.616-7.588c-.18-7.716-9.25-8.04-9.25-8.04h-10.016c-1.148.013-2.244.478-3.052 1.294s-1.26 1.918-1.261 3.066v26.338a4.36 4.36 0 0 0 4.36 4.36h7.508c10.086.149 14.373-3.68 14.525-10.113.19-8.595-7.43-9.317-7.43-9.317zm-10.478-8.866h3.651c.85.039 3.794.326 3.672 3.693s-3.912 3.205-3.912 3.205h-3.411v-6.897zm3.409 21.49h-3.409v-7.789s2.801-.042 3.651 0 5.672-.365 5.787 3.891c.117 4.151-6.029 3.912-6.029 3.912v-.013z"/></g></g><defs><linearGradient id="A" x1="245" x2="245" y1="0" y2="112" gradientUnits="userSpaceOnUse"><stop stop-color="#0f1837"/><stop offset="1" stop-color="#112361"/></linearGradient><clipPath id="B"><path d="M0 0h490v112H0z" class="B" transform="translate(-26)"/></clipPath><clipPath id="C"><path d="M0 0h75.745v75.745H0z" class="B" transform="matrix(.866025 -.5 -.5 -.866025 103.872 170.795)"/></clipPath><clipPath id="D"><path d="M0 0h75.745v75.745H0z" class="B" transform="matrix(.965926 .258819 -.258819 .965926 312.604 -46.9999)"/></clipPath><clipPath id="E"><path d="M0 0h75.745v75.745H0z" class="B" transform="matrix(.965926 .258819 -.258819 .965926 -2.39575 37.0002)"/></clipPath><clipPath id="F"><path d="M0 0h75.741v75.741H0z" class="B" transform="matrix(.965926 .258819 -.258819 .965926 71.6033 -24.9998)"/></clipPath><clipPath id="G"><path d="M0 0h75.745v75.745H0z" class="B" transform="matrix(.965926 -.258819 .258819 .965926 381 85.6045)"/></clipPath><clipPath id="H"><path d="M0 0h75.745v75.745H0z" class="B" transform="matrix(.965926 .258819 -.258819 .965926 400.604 -24.9999)"/></clipPath><clipPath id="I"><path d="M0 0h75.907v75.907H0z" class="B" transform="matrix(.965926 -.258819 .258819 .965926 286 61.6465)"/></clipPath><clipPath id="J"><path d="M0 0h75.907v75.907H0z" class="B" transform="matrix(.965926 .258819 -.258819 .965926 -30.3538 -34.9999)"/></clipPath><clipPath id="K"><path d="M0 0h124.497v73.738H0z" class="B" transform="translate(151 21)"/></clipPath><path id="L" d="M315.953 8.789a3.79 3.79 0 0 0-4.639 2.678 3.79 3.79 0 0 0 2.678 4.638 3.79 3.79 0 0 0 4.639-2.678 3.79 3.79 0 0 0-2.678-4.638zm-1.307 4.878c-.674-.181-1.073-.873-.893-1.546s.873-1.073 1.546-.893 1.073.873.893 1.546-.873 1.073-1.546.893z"/></defs></svg>