<svg width="437" height="112" viewBox="0 0 437 112" fill="none" xmlns="http://www.w3.org/2000/svg">
<g clip-path="url(#clip0)">
<rect width="490" height="112" transform="translate(-26 0.00012207)" fill="url(#paint0_linear)"/>
<g clip-path="url(#clip1)">
<path d="M131.204 155.015L107.152 168.902C105.341 169.948 103.025 169.327 101.979 167.516L67.8936 108.478C66.8477 106.667 67.4683 104.351 69.2798 103.305L93.3319 89.4184C95.1433 88.3727 97.4595 88.9932 98.5054 90.8047L132.591 149.842C133.636 151.653 133.016 153.969 131.204 155.015ZM96.3189 92.067C95.9703 91.4632 95.1982 91.2564 94.5945 91.605L70.5422 105.492C69.9384 105.84 69.7316 106.612 70.0802 107.216L104.165 166.253C104.514 166.857 105.286 167.064 105.89 166.715L129.942 152.829C130.546 152.48 130.753 151.708 130.404 151.104L96.3188 92.0671L96.3189 92.067Z" fill="white" fill-opacity="0.2"/>
<path d="M92.6675 116.041C90.8562 117.086 88.5399 116.466 87.4941 114.654C86.4483 112.843 87.0688 110.527 88.8803 109.481C90.6918 108.435 93.008 109.056 94.0538 110.867C95.0995 112.679 94.4789 114.995 92.6675 116.041ZM90.1427 111.668C89.5389 112.016 89.3321 112.788 89.6807 113.392C90.0293 113.996 90.8013 114.203 91.4051 113.854C92.0089 113.505 92.2158 112.734 91.8672 112.13C91.5185 111.526 90.7466 111.319 90.1427 111.668Z" fill="white" fill-opacity="0.2"/>
<path d="M81.0582 111.082C79.2468 112.127 76.9305 111.507 75.8847 109.695C74.8389 107.884 75.4595 105.568 77.2709 104.522C79.0824 103.476 81.3986 104.097 82.4444 105.908C83.4902 107.72 82.8695 110.036 81.0582 111.082ZM78.5334 106.709C77.9295 107.057 77.7228 107.829 78.0713 108.433C78.4199 109.037 79.1919 109.244 79.7957 108.895C80.3995 108.546 80.6063 107.774 80.2578 107.171C79.9092 106.567 79.1371 106.36 78.5334 106.709Z" fill="white" fill-opacity="0.2"/>
<path d="M94.1775 103.507C92.3662 104.553 90.0499 103.932 89.0041 102.121C87.9583 100.31 88.579 97.9932 90.3903 96.9475C92.2017 95.9017 94.518 96.5223 95.5638 98.3337C96.6096 100.145 95.9889 102.461 94.1775 103.507ZM91.6527 99.1341C91.0489 99.4827 90.8421 100.255 91.1907 100.858C91.5393 101.462 92.3113 101.669 92.9151 101.321C93.5189 100.972 93.7257 100.2 93.3772 99.5961C93.0286 98.9924 92.2566 98.7854 91.6527 99.1341Z" fill="white" fill-opacity="0.2"/>
<path d="M166.189 134.817L142.137 148.703C140.326 149.749 138.01 149.128 136.964 147.317L102.879 88.2798C101.833 86.4685 102.453 84.1522 104.265 83.1063L128.317 69.2198C130.128 68.174 132.445 68.7946 133.491 70.6061L167.576 129.643C168.621 131.455 168.001 133.771 166.189 134.817ZM131.304 71.8685C130.955 71.2647 130.183 71.0578 129.579 71.4064L105.527 85.2929C104.924 85.6416 104.717 86.4135 105.065 87.0174L139.15 146.055C139.499 146.658 140.271 146.865 140.875 146.517L164.927 132.63C165.531 132.281 165.738 131.509 165.389 130.906L131.304 71.8685Z" fill="white" fill-opacity="0.2"/>
<path d="M145.698 104.374L126.019 115.736C125.415 116.084 124.643 115.877 124.294 115.274C123.945 114.67 124.152 113.898 124.756 113.549L144.435 102.187C145.039 101.839 145.811 102.046 146.16 102.65C146.508 103.253 146.301 104.025 145.698 104.374Z" fill="white" fill-opacity="0.2"/>
<path d="M126.142 108.376C124.331 109.421 122.015 108.801 120.969 106.989C119.923 105.178 120.544 102.862 122.355 101.816C124.166 100.77 126.483 101.391 127.529 103.202C128.574 105.014 127.954 107.33 126.142 108.376ZM123.618 104.002C123.014 104.351 122.807 105.123 123.155 105.727C123.504 106.331 124.276 106.537 124.88 106.189C125.484 105.84 125.691 105.068 125.342 104.465C124.993 103.861 124.221 103.654 123.618 104.002Z" fill="white" fill-opacity="0.2"/>
<path d="M139.262 100.801C137.45 101.847 135.134 101.226 134.088 99.415C133.042 97.6035 133.663 95.2873 135.475 94.2415C137.286 93.1957 139.602 93.8164 140.648 95.6277C141.694 97.4391 141.073 99.7554 139.262 100.801ZM136.737 96.428C136.133 96.7766 135.926 97.5486 136.275 98.1524C136.623 98.7562 137.395 98.9631 137.999 98.6145C138.603 98.2659 138.81 97.4939 138.461 96.8901C138.113 96.2862 137.341 96.0794 136.737 96.428Z" fill="white" fill-opacity="0.2"/>
<path d="M121.093 99.6293C119.281 100.675 116.965 100.054 115.919 98.2431C114.874 96.4318 115.494 94.1154 117.306 93.0696C119.117 92.0239 121.433 92.6445 122.479 94.4559C123.525 96.2672 122.904 98.5835 121.093 99.6293ZM118.568 95.2563C117.964 95.6049 117.757 96.3768 118.106 96.9807C118.455 97.5845 119.227 97.7913 119.83 97.4427C120.434 97.0942 120.641 96.3221 120.292 95.7183C119.944 95.1145 119.172 94.9076 118.568 95.2563Z" fill="white" fill-opacity="0.2"/>
<path d="M134.212 92.0549C132.401 93.1006 130.085 92.48 129.039 90.6686C127.993 88.8573 128.614 86.541 130.425 85.4952C132.236 84.4494 134.553 85.0701 135.598 86.8814C136.644 88.6927 136.024 91.009 134.212 92.0549ZM131.687 87.6818C131.084 88.0304 130.877 88.8024 131.225 89.4062C131.574 90.01 132.346 90.2169 132.95 89.8683C133.554 89.5196 133.76 88.7477 133.412 88.1438C133.063 87.54 132.291 87.3332 131.687 87.6818Z" fill="white" fill-opacity="0.2"/>
<path d="M116.043 90.8831C114.232 91.9289 111.916 91.3082 110.87 89.4969C109.824 87.6855 110.445 85.3692 112.256 84.3234C114.067 83.2777 116.384 83.8983 117.429 85.7097C118.475 87.5211 117.855 89.8373 116.043 90.8831ZM113.518 86.51C112.915 86.8587 112.708 87.6308 113.056 88.2345C113.405 88.8383 114.177 89.0451 114.781 88.6965C115.385 88.348 115.591 87.5758 115.243 86.9721C114.894 86.3683 114.122 86.1614 113.518 86.51Z" fill="white" fill-opacity="0.2"/>
<path d="M129.162 83.3087C127.351 84.3544 125.035 83.7338 123.989 81.9224C122.943 80.1111 123.564 77.7947 125.375 76.749C127.187 75.7032 129.503 76.3238 130.549 78.1352C131.594 79.9467 130.974 82.2628 129.162 83.3087ZM126.638 78.9356C126.034 79.2842 125.827 80.0563 126.176 80.66C126.524 81.2638 127.296 81.4707 127.9 81.122C128.504 80.7734 128.711 80.0013 128.362 79.3976C128.014 78.7939 127.241 78.587 126.638 78.9356Z" fill="white" fill-opacity="0.2"/>
</g>
<g clip-path="url(#clip2)">
<path d="M343.089 -38.8315L316.262 -46.0197C314.242 -46.561 312.165 -45.3621 311.624 -43.3417L293.98 22.5057C293.439 24.5262 294.638 26.6027 296.658 27.1441L323.485 34.3323C325.505 34.8736 327.582 33.6748 328.123 31.6543L345.767 -34.1931C346.308 -36.2135 345.11 -38.2901 343.089 -38.8315ZM325.685 31.0009C325.504 31.6743 324.812 32.0739 324.139 31.8935L297.312 24.7053C296.638 24.5248 296.239 23.8327 296.419 23.1592L314.063 -42.6882C314.243 -43.3617 314.935 -43.7613 315.609 -43.5808L342.436 -36.3926C343.109 -36.2122 343.509 -35.52 343.328 -34.8466L325.684 31.0008L325.685 31.0009Z" fill="white" fill-opacity="0.2"/>
<path d="M309.29 4.38986C311.31 4.93119 313.387 3.73217 313.928 1.71187C314.47 -0.308422 313.271 -2.38519 311.25 -2.92653C309.23 -3.46787 307.153 -2.26898 306.612 -0.248546C306.071 1.77189 307.27 3.84848 309.29 4.38986ZM310.597 -0.487685C311.27 -0.307227 311.67 0.384908 311.49 1.05839C311.309 1.73187 310.617 2.13147 309.944 1.95101C309.27 1.77055 308.87 1.07842 309.051 0.404939C309.231 -0.268539 309.924 -0.668143 310.597 -0.487685Z" fill="white" fill-opacity="0.2"/>
<path d="M325.883 0.994369C323.863 0.453034 321.786 1.65192 321.245 3.67235C320.704 5.69279 321.903 7.76942 323.923 8.31075C325.943 8.85209 328.02 7.65306 328.561 5.63277C329.103 3.61248 327.904 1.5357 325.883 0.994369ZM324.576 5.87205C323.903 5.6916 323.503 4.99946 323.684 4.32598C323.864 3.6525 324.556 3.2529 325.23 3.43335C325.903 3.61381 326.303 4.30595 326.122 4.97943C325.942 5.65291 325.25 6.05251 324.576 5.87205Z" fill="white" fill-opacity="0.2"/>
<path d="M315.953 8.78917C313.933 8.24783 311.856 9.44686 311.314 11.4672C310.773 13.4874 311.972 15.5642 313.992 16.1055C316.013 16.6469 318.09 15.4479 318.631 13.4276C319.172 11.4073 317.973 9.3305 315.953 8.78917ZM314.646 13.6667C313.972 13.4862 313.573 12.7941 313.753 12.1206C313.934 11.4472 314.626 11.0476 315.299 11.228C315.973 11.4085 316.372 12.1006 316.192 12.7741C316.012 13.4476 315.319 13.8472 314.646 13.6667Z" fill="white" fill-opacity="0.2"/>
<path d="M306.023 16.584C304.002 16.0426 301.926 17.2417 301.384 19.262C300.843 21.2822 302.042 23.359 304.062 23.9003C306.083 24.4417 308.159 23.2427 308.701 21.2224C309.242 19.2019 308.043 17.1253 306.023 16.584ZM304.716 21.4615C304.042 21.281 303.643 20.5888 303.823 19.9154C304.004 19.242 304.696 18.8424 305.369 19.0228C306.043 19.2033 306.442 19.8955 306.262 20.5689C306.081 21.2422 305.389 21.6419 304.716 21.4615Z" fill="white" fill-opacity="0.2"/>
<path d="M320.655 20.5047C318.635 19.9634 316.558 21.1624 316.017 23.1827C315.476 25.203 316.675 27.2798 318.695 27.8211C320.715 28.3625 322.792 27.1634 323.333 25.1431C323.875 23.1227 322.676 21.0461 320.655 20.5047ZM319.348 25.3823C318.675 25.2018 318.275 24.5095 318.456 23.8362C318.636 23.1627 319.328 22.7631 320.002 22.9436C320.675 23.124 321.075 23.8163 320.894 24.4897C320.714 25.163 320.022 25.5627 319.348 25.3823Z" fill="white" fill-opacity="0.2"/>
<path d="M382.11 -28.3758L355.283 -35.564C353.263 -36.1053 351.186 -34.9064 350.645 -32.886L333.001 32.9614C332.46 34.9817 333.659 37.0584 335.679 37.5998L362.506 44.788C364.526 45.3293 366.603 44.1304 367.144 42.11L384.788 -23.7374C385.329 -25.7578 384.13 -27.8344 382.11 -28.3758ZM364.705 41.4565C364.525 42.13 363.833 42.5296 363.159 42.3491L336.332 35.161C335.659 34.9805 335.259 34.2884 335.44 33.6149L353.084 -32.2325C353.264 -32.906 353.956 -33.3056 354.63 -33.1251L381.456 -25.937C382.13 -25.7565 382.529 -25.0644 382.349 -24.3909L364.705 41.4565Z" fill="white" fill-opacity="0.2"/>
<path d="M370.196 6.33322L348.246 0.451967C347.573 0.271509 346.881 0.671115 346.7 1.34459C346.52 2.01807 346.92 2.7102 347.593 2.89066L369.542 8.77192C370.216 8.95237 370.908 8.55277 371.088 7.87929C371.269 7.20581 370.869 6.51368 370.196 6.33322Z" fill="white" fill-opacity="0.2"/>
<path d="M350.271 7.52904C348.251 6.9877 346.174 8.18658 345.633 10.207C345.091 12.2275 346.29 14.3041 348.311 14.8454C350.331 15.3868 352.408 14.1877 352.949 12.1674C353.49 10.1471 352.291 8.07041 350.271 7.52904ZM348.964 12.4067C348.291 12.2263 347.891 11.5341 348.071 10.8606C348.252 10.1872 348.944 9.7876 349.617 9.96802C350.291 10.1484 350.691 10.8406 350.51 11.5141C350.33 12.1876 349.637 12.5872 348.964 12.4067Z" fill="white" fill-opacity="0.2"/>
<path d="M364.904 11.4498C362.884 10.9085 360.807 12.1074 360.265 14.1278C359.724 16.1482 360.923 18.2249 362.943 18.7662C364.964 19.3075 367.04 18.1085 367.582 16.0882C368.123 14.0679 366.924 11.9912 364.904 11.4498ZM363.597 16.3275C362.923 16.147 362.524 15.4549 362.704 14.7814C362.885 14.1079 363.577 13.7083 364.25 13.8888C364.924 14.0693 365.323 14.7614 365.143 15.4349C364.962 16.1084 364.27 16.508 363.597 16.3275Z" fill="white" fill-opacity="0.2"/>
<path d="M347.657 17.2843C345.637 16.743 343.56 17.942 343.019 19.9623C342.477 21.9826 343.677 24.0593 345.697 24.6007C347.717 25.142 349.794 23.943 350.335 21.9227C350.877 19.9024 349.678 17.8257 347.657 17.2843ZM346.35 22.1618C345.677 21.9814 345.277 21.2892 345.458 20.6158C345.638 19.9423 346.33 19.5427 347.004 19.7231C347.677 19.9035 348.077 20.5957 347.896 21.2692C347.716 21.9427 347.024 22.3423 346.35 22.1618Z" fill="white" fill-opacity="0.2"/>
<path d="M362.29 21.2051C360.269 20.6637 358.193 21.8628 357.651 23.883C357.11 25.9033 358.309 27.9801 360.329 28.5214C362.35 29.0628 364.426 27.8638 364.968 25.8435C365.509 23.8232 364.31 21.7464 362.29 21.2051ZM360.983 26.0826C360.309 25.9021 359.91 25.21 360.09 24.5365C360.271 23.8631 360.963 23.4634 361.636 23.6439C362.31 23.8244 362.709 24.5165 362.529 25.19C362.348 25.8635 361.656 26.2631 360.983 26.0826Z" fill="white" fill-opacity="0.2"/>
<path d="M345.043 27.0394C343.023 26.4981 340.946 27.6971 340.405 29.7174C339.863 31.7377 341.062 33.8145 343.083 34.3558C345.103 34.8971 347.18 33.6981 347.721 31.6778C348.263 29.6574 347.064 27.5808 345.043 27.0394ZM343.736 31.9169C343.063 31.7365 342.663 31.0442 342.844 30.3709C343.024 29.6974 343.716 29.2978 344.39 29.4783C345.063 29.6587 345.463 30.351 345.282 31.0243C345.102 31.6977 344.41 32.0974 343.736 31.9169Z" fill="white" fill-opacity="0.2"/>
<path d="M359.676 30.9603C357.656 30.419 355.579 31.618 355.038 33.6383C354.496 35.6586 355.695 37.7354 357.716 38.2767C359.736 38.818 361.813 37.619 362.354 35.5987C362.895 33.5783 361.696 31.5017 359.676 30.9603ZM358.369 35.8378C357.696 35.6574 357.296 34.9651 357.476 34.2918C357.657 33.6183 358.349 33.2187 359.023 33.3992C359.696 33.5796 360.096 34.2719 359.915 34.9452C359.735 35.6186 359.043 36.0183 358.369 35.8378Z" fill="white" fill-opacity="0.2"/>
</g>
<g clip-path="url(#clip3)">
<path d="M53.24 116.791C53.2153 116.677 53.19 116.564 53.164 116.45L49.402 107.078L62.4714 58.3022C63.0128 56.2819 61.8139 54.2052 59.7935 53.6638L8.57881 39.9409C6.55852 39.3996 4.48178 40.5984 3.94041 42.6189L-9.12903 91.3947L-17.0732 97.6304C-17.1207 97.6751 -17.165 97.7232 -17.2057 97.774C-17.2423 97.8098 -17.2769 97.8477 -17.3093 97.8874C-17.4021 98.0101 -17.4711 98.1488 -17.5131 98.2967L-19.1468 104.394C-19.3272 105.067 -18.9276 105.759 -18.2541 105.94L-13.3766 107.247L-13.7033 108.466C-14.2446 110.486 -13.0458 112.563 -11.0253 113.105L40.1893 126.827C42.2096 127.369 44.2864 126.17 44.8277 124.149L45.1544 122.93L50.032 124.237C50.7055 124.418 51.3976 124.018 51.5781 123.344L53.2118 117.247C53.2495 117.099 53.259 116.944 53.24 116.791ZM6.37925 43.2724C6.55971 42.5989 7.25185 42.1993 7.92532 42.3797L59.14 56.1027C59.8135 56.2831 60.2131 56.9753 60.0326 57.6487L47.8346 103.172L46.2668 99.268L56.2868 61.8728C56.8282 59.8525 55.6291 57.7757 53.6089 57.2344L12.1494 46.1254C10.1291 45.584 8.05239 46.7829 7.51102 48.8033L-2.50902 86.1986L-5.81894 88.796L6.37911 43.2723L6.37925 43.2724ZM19.2031 63.6987L15.9358 75.8927L3.74188 72.6253L7.00923 60.4314L19.2031 63.6987ZM7.66268 57.9927L8.64289 54.3345L20.8368 57.6019L19.8566 61.26L7.66268 57.9927ZM15.2823 78.3315L14.3021 81.9897L2.10819 78.7223L3.08839 75.0642L15.2823 78.3315ZM45.353 92.9237L44.046 97.8012L0.147768 86.0387L1.4547 81.1612L45.353 92.9237ZM36.2748 68.2731L33.0074 80.467L18.3746 76.5461L21.642 64.3522L36.2748 68.2731ZM22.2954 61.9135L23.2756 58.2553L37.9084 62.1762L36.9282 65.8344L22.2954 61.9135ZM32.3539 82.9058L31.3737 86.564L16.7409 82.6432L17.7212 78.985L32.3539 82.9058ZM33.8125 87.2175L34.7928 83.5593L46.9867 86.8267L46.0065 90.4848L33.8125 87.2175ZM35.4462 81.1206L38.7136 68.9267L50.9075 72.194L47.6401 84.388L35.4462 81.1206ZM39.367 66.4879L40.3472 62.8297L52.5412 66.097L51.561 69.7552L39.367 66.4879ZM9.29637 51.8957L9.94986 49.4568C10.1303 48.7833 10.8225 48.3837 11.4959 48.5642L52.9554 59.6732C53.6288 59.8537 54.0284 60.5458 53.848 61.2193L53.1945 63.6581L9.29637 51.8957ZM-1.11546 88.3142L44.0022 100.403L49.8803 115.048L-13.5283 98.0576L-1.11546 88.3142ZM42.3889 123.496C42.2084 124.17 41.5163 124.569 40.8428 124.389L-10.3719 110.666C-11.0454 110.485 -11.445 109.793 -11.2645 109.12L-10.9378 107.9L42.7157 122.277L42.389 123.496L42.3889 123.496ZM49.4661 121.472L-16.3813 103.828L-15.4011 100.17L50.4463 117.813L49.4661 121.472Z" fill="white" fill-opacity="0.2"/>
<path d="M8.50854 98.7346L9.16202 96.2958C9.52294 94.9488 8.72362 93.5644 7.37667 93.2034L0.0602891 91.243C-1.28667 90.8821 -2.67112 91.6814 -3.03204 93.0284L-3.68552 95.4672C-4.359 95.2868 -5.05117 95.6865 -5.23159 96.3598C-5.41205 97.0333 -5.01245 97.7255 -4.33897 97.9059L7.85509 101.173C8.52857 101.354 9.22075 100.954 9.40117 100.281C9.58158 99.6073 9.18202 98.9151 8.50854 98.7346ZM6.0697 98.0811L-1.24668 96.1207L-0.593197 93.6819L6.72318 95.6423L6.0697 98.0811Z" fill="white" fill-opacity="0.2"/>
<path d="M25.5801 103.309L26.2336 100.87C26.5945 99.5232 25.7952 98.1387 24.4482 97.7778L17.1318 95.8174C15.7849 95.4565 14.4004 96.2558 14.0395 97.6027L13.386 100.042C12.7125 99.8611 12.0204 100.261 11.8399 100.934C11.6595 101.608 12.0591 102.3 12.7326 102.48L24.9265 105.748C25.6 105.928 26.2921 105.528 26.4726 104.855C26.6531 104.182 26.2535 103.489 25.5801 103.309ZM23.1412 102.655L15.8249 100.695L16.4783 98.2562L23.7947 100.217L23.1412 102.655Z" fill="white" fill-opacity="0.2"/>
<path d="M42.6516 107.883L43.3051 105.444C43.666 104.097 42.8667 102.713 41.5197 102.352L34.2034 100.392C32.8564 100.031 31.4719 100.83 31.111 102.177L30.4575 104.616C29.7841 104.435 29.0919 104.835 28.9115 105.508C28.731 106.182 29.1306 106.874 29.8041 107.054L41.998 110.322C42.6715 110.502 43.3637 110.103 43.5441 109.429C43.7248 108.756 43.3251 108.064 42.6516 107.883ZM40.2129 107.23L32.8965 105.269L33.55 102.83L40.8664 104.791L40.2129 107.23Z" fill="white" fill-opacity="0.2"/>
<path d="M26.0178 77.2872C28.7116 78.009 31.4805 76.4104 32.2023 73.7166C32.4306 72.8475 32.4196 71.9328 32.1706 71.0694L32.5943 70.8248C33.1846 70.4702 33.3818 69.7078 33.0374 69.1115C32.693 68.515 31.9343 68.3047 31.332 68.6386L30.9084 68.8832C30.2852 68.2357 29.4985 67.7689 28.6317 67.5322C25.9379 66.8104 23.169 68.409 22.4472 71.1028C21.7254 73.7965 23.3241 76.5654 26.0178 77.2872ZM27.9782 69.9708C28.1883 70.0302 28.3896 70.1171 28.5769 70.2293L28.2399 70.4239C27.8409 70.6452 27.5923 71.0644 27.5896 71.5207C27.587 71.977 27.8307 72.3991 28.2271 72.6248C28.6235 72.8506 29.111 72.845 29.5021 72.6101L29.8391 72.4155C29.8427 72.6338 29.8173 72.8515 29.7636 73.0632C29.4027 74.4101 28.0182 75.2094 26.6713 74.8485C25.3243 74.4876 24.525 73.1032 24.8859 71.7562C25.2468 70.4092 26.6313 69.6099 27.9782 69.9708Z" fill="white" fill-opacity="0.2"/>
<path d="M10.1658 73.0397C12.8595 73.7615 15.6284 72.1628 16.3502 69.4691C16.5785 68.6 16.5675 67.6853 16.3186 66.8218L16.7422 66.5773C17.3325 66.2227 17.5298 65.4603 17.1854 64.8639C16.841 64.2675 16.0822 64.0571 15.48 64.391L15.0564 64.6356C14.4331 63.9882 13.6465 63.5213 12.7796 63.2846C10.0859 62.5628 7.31696 64.1614 6.59517 66.8552C5.87337 69.549 7.47186 72.3178 10.1658 73.0397ZM12.1262 65.7233C12.3362 65.7826 12.5376 65.8695 12.7249 65.9817L12.3879 66.1763C11.9889 66.3976 11.7402 66.8168 11.7376 67.2731C11.7349 67.7294 11.9787 68.1516 12.3751 68.3773C12.7714 68.6031 13.2589 68.5974 13.6501 68.3625L13.9871 68.1679C13.9906 68.3862 13.9652 68.6039 13.9115 68.8156C13.5506 70.1626 12.1662 70.9619 10.8192 70.601C9.47226 70.2401 8.67295 68.8556 9.03387 67.5086C9.39478 66.1617 10.7792 65.3624 12.1262 65.7233Z" fill="white" fill-opacity="0.2"/>
<path d="M48.4463 75.0724C49.0366 74.7178 49.2339 73.9554 48.8895 73.359C48.5451 72.7626 47.7864 72.5522 47.1841 72.8862L46.7605 73.1307C46.1372 72.4833 45.3506 72.0164 44.4837 71.7797C41.79 71.0579 39.0211 72.6565 38.2993 75.3503C37.5775 78.0441 39.1761 80.813 41.8699 81.5348C44.5636 82.2566 47.3326 80.6579 48.0543 77.9642C48.2826 77.0951 48.2718 76.1804 48.0227 75.3169L48.4463 75.0724ZM42.5233 79.0961C41.1764 78.7352 40.3771 77.3507 40.738 76.0038C41.0989 74.6568 42.4833 73.8575 43.8303 74.2184C44.0403 74.2777 44.2417 74.3646 44.429 74.4768L44.092 74.6714C43.693 74.8927 43.4443 75.3119 43.4417 75.7682C43.439 76.2245 43.6828 76.6467 44.0792 76.8724C44.4755 77.0982 44.963 77.0925 45.3542 76.8576L45.6912 76.663C45.6947 76.8813 45.6693 77.099 45.6156 77.3107C45.2547 78.6577 43.8703 79.457 42.5233 79.0961Z" fill="white" fill-opacity="0.2"/>
</g>
<g clip-path="url(#clip4)">
<path d="M104.832 2.19728C105.013 1.5238 104.613 0.831668 103.94 0.65121C92.4929 -2.40233 80.7345 4.3865 77.6554 15.8265C77.475 16.4999 77.8746 17.1921 78.5481 17.3725C79.2215 17.553 79.9137 17.1534 80.0941 16.4799C82.8111 6.38595 93.186 0.395952 103.286 3.09001C103.96 3.27033 104.652 2.87076 104.832 2.19728Z" fill="white" fill-opacity="0.2"/>
<path d="M93.4842 39.6718C92.8107 39.4913 92.1186 39.891 91.9381 40.5644C91.7577 41.2379 92.1573 41.93 92.8308 42.1105C104.278 45.164 116.036 38.3752 119.115 26.9352C119.296 26.2617 118.896 25.5695 118.222 25.3891C117.549 25.2087 116.857 25.6083 116.676 26.2818C113.959 36.376 103.584 42.3658 93.4842 39.6718Z" fill="white" fill-opacity="0.2"/>
<path d="M136.216 22.739C136.226 22.7272 136.232 22.7171 136.232 22.704L136.228 22.6927C136.372 18.5208 135.821 14.3541 134.598 10.3628C134.595 10.3463 134.607 10.3311 134.597 10.3129C134.58 10.2619 134.558 10.2124 134.532 10.1649C132.853 4.78076 130.001 -0.164051 126.181 -4.31358C126.152 -4.35865 126.12 -4.40171 126.085 -4.44256C126.073 -4.45375 126.055 -4.45071 126.043 -4.4668C123.196 -7.52414 119.859 -10.086 116.17 -12.0475L116.162 -12.0562C116.151 -12.0585 116.14 -12.0613 116.13 -12.0647C111.073 -14.758 105.467 -16.2601 99.7413 -16.4561C99.7305 -16.4583 99.72 -16.4612 99.7095 -16.4646L99.6982 -16.461C95.5237 -16.6063 91.3543 -16.0556 87.3605 -14.8319C87.3443 -14.8296 87.3301 -14.84 87.3121 -14.8318C87.2615 -14.8138 87.2122 -14.7926 87.1644 -14.7682C81.7822 -13.0874 76.8395 -10.2345 72.6917 -6.41464C72.6463 -6.38562 72.6028 -6.35362 72.5615 -6.3189C72.549 -6.30662 72.553 -6.28717 72.5356 -6.2762C69.4812 -3.43079 66.9208 -0.0976793 64.9591 3.58699L64.9504 3.59506C64.9471 3.60721 64.9442 3.61821 64.9412 3.62921C62.2481 8.68533 60.7463 14.2902 60.5505 20.0155C60.5476 20.0265 60.5446 20.0375 60.5414 20.0496L60.5454 20.0637C60.4012 24.2354 60.9516 28.4022 62.1742 32.3933C62.1775 32.4098 62.1657 32.425 62.1752 32.4432C62.199 32.564 62.2415 32.6803 62.3011 32.788C63.987 38.0988 66.816 42.9759 70.5894 47.0758C70.6187 47.1209 70.6508 47.1639 70.6855 47.2048C70.7025 47.2198 70.7222 47.229 70.7393 47.2428C73.5836 50.2935 76.9149 52.8502 80.5973 54.8089L80.6054 54.8176C80.6224 54.8222 80.6396 54.8268 80.6546 54.8386C85.7003 57.5237 91.292 59.022 97.0043 59.2195C97.0213 59.2241 97.0384 59.2287 97.0574 59.2259L97.0688 59.2224C101.237 59.3675 105.401 58.8189 109.389 57.599C109.411 57.5957 109.433 57.5976 109.455 57.593C109.505 57.575 109.555 57.5537 109.602 57.5293C114.918 55.8684 119.806 53.0632 123.922 49.3112C124.028 49.2477 124.123 49.1682 124.204 49.0755C124.216 49.0632 124.212 49.0438 124.23 49.0328C127.284 46.1875 129.844 42.8543 131.805 39.1695L131.816 39.1593C131.819 39.1471 131.822 39.1361 131.825 39.1251C134.518 34.0691 136.02 28.4642 136.216 22.739ZM133.733 21.5902L124.861 22.126C124.939 19.3132 124.565 16.5061 123.755 13.8116L132.464 12.0362C133.324 15.1473 133.751 18.3623 133.733 21.5902ZM121.554 27.589C118.113 40.375 104.971 47.9626 92.1775 44.5495C79.3819 41.121 71.7885 27.9686 75.217 15.1731C78.6456 2.37757 91.798 -5.21597 104.593 -1.78742C117.389 1.64113 124.983 14.7935 121.554 27.589ZM131.698 9.61173L131.703 9.61303L122.911 11.4093C121.994 9.16244 120.775 7.05106 119.288 5.13351L125.239 -1.58254C128.057 1.72398 130.245 5.51776 131.698 9.61173ZM115.877 -9.33585C118.682 -7.73543 121.253 -5.75572 123.517 -3.45283L117.624 3.20179C115.696 1.1502 113.452 -0.578985 110.977 -1.91983L115.877 -9.33585ZM113.625 -10.5052L108.678 -3.01919C107.564 -3.49983 106.417 -3.90309 105.247 -4.22612C104.072 -4.53142 102.877 -4.75549 101.672 -4.8966L101.131 -13.853C105.468 -13.524 109.705 -12.3887 113.625 -10.5052ZM98.5957 -13.9664L99.1315 -5.09375C96.3183 -5.17197 93.5107 -4.79869 90.8157 -3.98787L89.0376 -12.6916C92.1498 -13.5539 95.3662 -13.9829 98.5957 -13.9664ZM86.616 -11.9316L88.4123 -3.13949C86.1654 -2.22252 84.0541 -1.00366 82.1365 0.483838L75.4205 -5.46783C78.727 -8.28703 82.5213 -10.4776 86.616 -11.9316ZM73.5511 -3.74946L80.2061 2.14279C78.1547 4.07015 76.4256 6.3139 75.0848 8.78866L67.6688 3.88833C69.2688 1.08391 71.2484 -1.48635 73.5511 -3.74946ZM64.2423 12.2324C64.806 10.1373 65.5614 8.09835 66.4991 6.14168L73.9851 11.0882C73.5045 12.2029 73.1012 13.3495 72.7782 14.5196C72.4728 15.6946 72.2488 16.8891 72.1077 18.0948L63.1513 18.6355C63.3177 16.4724 63.6829 14.3289 64.2423 12.2324ZM63.0376 21.172L71.9102 20.6362C71.8323 23.449 72.2058 26.2562 73.0165 28.9507L64.313 30.7277C63.4503 27.6163 63.0211 24.4007 63.0376 21.172ZM65.0727 33.1505L73.8648 31.3542C74.7818 33.6011 76.0006 35.7124 77.4881 37.63L71.5365 44.3461C68.7173 41.0395 66.5267 37.2453 65.0727 33.1505ZM80.8954 52.0919C78.0901 50.4936 75.5186 48.5159 73.2536 46.2149L79.147 39.5603C81.0756 41.6099 83.3203 43.337 85.7957 44.6759L80.8954 52.0919ZM83.146 53.2675L88.0925 45.7814C89.2072 46.2621 90.3538 46.6653 91.5239 46.9883C92.6989 47.2937 93.8934 47.5177 95.0991 47.6588L95.6398 56.6152C91.3033 56.2861 87.0662 55.1508 83.146 53.2675ZM98.1751 56.7286L97.6393 47.856C100.453 47.9342 103.26 47.5609 105.955 46.7503L107.732 55.46C104.62 56.3201 101.404 56.7471 98.1751 56.7286ZM110.155 54.6938L108.359 45.9017C110.605 44.9848 112.717 43.7659 114.634 42.2784L121.35 48.2301C118.044 51.0493 114.25 53.2399 110.155 54.6938ZM123.22 46.5117L116.565 40.6194C118.614 38.6912 120.341 36.4469 121.68 33.972L129.096 38.8723C127.498 41.6769 125.52 44.2476 123.22 46.5117ZM130.272 36.6206L122.786 31.674C123.266 30.5593 123.67 29.4127 123.993 28.2426C124.298 27.0676 124.522 25.8732 124.663 24.6675L133.619 24.1267C133.291 28.4633 132.155 32.7003 130.272 36.6206Z" fill="white" fill-opacity="0.2"/>
<path d="M68.5536 10.7737C67.8801 10.5933 67.188 10.9929 67.0075 11.6664L66.354 14.1052C66.1736 14.7787 66.5732 15.4708 67.2466 15.6513C67.9201 15.8317 68.6123 15.4321 68.7927 14.7587L69.4462 12.3198C69.6268 11.6464 69.2271 10.9542 68.5536 10.7737Z" fill="white" fill-opacity="0.2"/>
<path d="M71.5146 35.4372C71.16 34.8469 70.3976 34.6496 69.8013 34.994C69.2048 35.3384 68.9945 36.0971 69.3284 36.6994L70.5906 38.8856C70.9452 39.4759 71.7076 39.6732 72.3039 39.3288C72.9004 38.9844 73.1107 38.2256 72.7768 37.6234L71.5146 35.4372Z" fill="white" fill-opacity="0.2"/>
<path d="M91.7629 50.9731L89.3241 50.3196C88.6506 50.1392 87.9585 50.5388 87.778 51.2123C87.5976 51.8857 87.9972 52.5779 88.6706 52.7583L91.1095 53.4118C91.783 53.5923 92.4751 53.1927 92.6555 52.5192C92.836 51.8457 92.4364 51.1536 91.7629 50.9731Z" fill="white" fill-opacity="0.2"/>
<path d="M111.791 49.3482C111.788 49.8045 112.032 50.2265 112.429 50.4523C112.825 50.6782 113.312 50.6725 113.704 50.4376L115.89 49.1754C116.48 48.8208 116.677 48.0584 116.333 47.462C115.989 46.8656 115.23 46.6552 114.628 46.9892L112.441 48.2514C112.042 48.4726 111.794 48.892 111.791 49.3482Z" fill="white" fill-opacity="0.2"/>
<path d="M129.524 27.1105C128.85 26.9301 128.158 27.3297 127.977 28.0032L127.324 30.442C127.144 31.1155 127.543 31.8076 128.217 31.9881C128.89 32.1685 129.582 31.7689 129.763 31.0954L130.416 28.6566C130.597 27.9831 130.197 27.291 129.524 27.1105Z" fill="white" fill-opacity="0.2"/>
<path d="M125.256 7.32469C125.61 7.91501 126.373 8.11225 126.969 7.76784C127.565 7.42347 127.776 6.66473 127.442 6.06248L126.18 3.87627C125.825 3.28595 125.063 3.08871 124.466 3.43312C123.87 3.77749 123.659 4.53623 123.993 5.13848L125.256 7.32469Z" fill="white" fill-opacity="0.2"/>
<path d="M101.756 35.3536C101.937 34.6801 101.537 33.9879 100.864 33.8075C100.01 33.5788 99.159 33.1259 99.8288 30.6262L100.277 28.9532C102.328 30.0789 104.786 30.1822 106.924 29.2325C110.28 27.6093 111.606 23.0728 110.233 17.979C109.255 13.8837 105.2 9.38712 102.869 7.07148C102.551 6.75583 102.09 6.63223 101.657 6.74671C98.4808 7.58683 92.7212 9.44947 89.8508 12.4849C86.0894 16.2357 84.9702 20.8276 87.0657 23.9129C88.4429 25.8027 90.623 26.9418 92.9607 26.9928L92.5124 28.6658C91.8426 31.1655 90.878 31.1319 90.0257 30.9035C89.3522 30.723 88.66 31.1228 88.4796 31.7961C88.2992 32.4695 88.6987 33.1617 89.3722 33.3422L100.21 36.2462C100.884 36.4267 101.576 36.0271 101.756 35.3536ZM99.1139 25.7583C98.7078 25.8904 98.3961 26.219 98.2853 26.6315L97.3884 29.9787C97.1183 30.8933 97.0224 31.8504 97.1054 32.8004L93.7838 31.9103C94.3319 31.1274 94.7279 30.2484 94.9512 29.3191L95.8481 25.9719C95.9584 25.5594 95.8528 25.1191 95.5674 24.8016C95.282 24.4841 94.8554 24.3324 94.4335 24.3984C92.4547 24.8085 90.4135 24.0715 89.1532 22.492C87.7616 20.4424 88.7576 17.1399 91.6582 14.246C93.3732 12.4354 96.9746 10.6766 101.601 9.37822C104.959 12.8161 107.2 16.1414 107.788 18.6004C108.844 22.5219 108.059 25.8808 105.826 26.962C103.944 27.6988 101.808 27.3168 100.298 25.9736C99.9649 25.7062 99.5195 25.6253 99.1139 25.7583Z" fill="white" fill-opacity="0.2"/>
</g>
<g clip-path="url(#clip5)">
<path d="M469.282 127.297L469.172 127.326C468.23 125.253 466.403 123.715 464.198 123.142C461.994 122.569 459.649 123.022 457.817 124.374L455.074 122.79C463.323 107.248 457.798 87.9644 442.57 79.1481C442.541 79.1271 442.522 79.0969 442.491 79.0778C442.46 79.0588 442.423 79.0594 442.391 79.0445C426.745 70.0507 406.772 75.4024 397.719 91.0142C397.698 91.0434 397.668 91.0619 397.649 91.0932C397.63 91.1245 397.63 91.161 397.616 91.1936C388.71 106.681 393.859 126.449 409.189 135.624L399.977 152.383C399.248 153.655 399.363 155.242 400.268 156.395C401.282 157.647 402.946 158.171 404.495 157.726L417.676 154.194C418.35 154.013 418.749 153.321 418.569 152.648C418.388 151.974 417.696 151.575 417.023 151.755L403.841 155.287C403.272 155.474 402.647 155.296 402.262 154.837C401.976 154.483 401.948 153.986 402.192 153.601L411.405 136.836C416.242 139.268 421.609 140.455 427.021 140.292L429.217 148.488C429.578 149.835 430.962 150.634 432.309 150.273L467.672 140.798C471.036 139.892 473.033 136.434 472.135 133.067L470.828 128.189C470.648 127.516 469.955 127.116 469.282 127.297ZM460.986 125.6C463.205 125.005 465.546 125.992 466.67 127.997L457.261 130.518C457.232 128.22 458.766 126.195 460.986 125.6ZM456.018 126.25C455.04 127.701 454.595 129.446 454.759 131.188L446.077 133.514C449.14 131.148 451.759 128.257 453.812 124.976L456.018 126.25ZM439.684 129.18L439.674 129.144C439.584 128.911 439.483 128.683 439.369 128.461C439.365 128.444 439.35 128.429 439.342 128.413C439.232 128.199 439.112 127.991 438.983 127.789C438.961 127.756 438.936 127.726 438.914 127.693C438.794 127.514 438.67 127.34 438.537 127.173C438.493 127.117 438.444 127.067 438.398 127.01C438.281 126.874 438.166 126.739 438.042 126.613C437.97 126.54 437.894 126.471 437.818 126.4C437.707 126.303 437.603 126.204 437.493 126.111C437.396 126.029 437.297 125.954 437.196 125.878C437.096 125.801 437.003 125.731 436.903 125.662C436.804 125.593 436.672 125.51 436.553 125.437C436.458 125.379 436.361 125.322 436.265 125.269C436.202 125.235 436.143 125.194 436.079 125.162C436.016 125.129 435.951 125.106 435.887 125.075C435.782 125.024 435.677 124.978 435.571 124.932C435.464 124.886 435.328 124.831 435.205 124.786C435.082 124.74 434.948 124.699 434.818 124.659C434.713 124.627 434.608 124.594 434.503 124.567C434.337 124.524 434.169 124.489 433.999 124.458C433.927 124.445 433.86 124.426 433.781 124.417C433.569 124.383 433.355 124.361 433.14 124.346L433.034 124.336C432.783 124.322 432.532 124.32 432.281 124.331L432.267 124.335C432.146 124.341 432.024 124.354 431.902 124.365L428.898 113.155C429.619 112.793 430.264 112.296 430.796 111.69L436.686 115.09C434.83 118.678 436.123 123.091 439.622 125.111C443.121 127.131 447.589 126.044 449.769 122.643L451.645 123.726C448.988 127.943 445.327 131.435 440.989 133.89L439.929 129.934C439.86 129.679 439.778 129.427 439.684 129.18ZM447.567 121.372C446.097 123.572 443.172 124.254 440.88 122.931C438.588 121.607 437.716 118.734 438.886 116.36L447.567 121.372ZM440.553 114.406C442.147 113.276 444.254 113.178 445.947 114.155C447.639 115.132 448.608 117.006 448.426 118.952L440.553 114.406ZM452.905 121.538L450.777 120.31C451.558 117.049 450.102 113.663 447.198 111.987C444.295 110.311 440.635 110.743 438.201 113.049L432.058 109.502C432.318 108.738 432.427 107.931 432.379 107.125L438.708 105.429C440.243 108.79 443.98 110.55 447.548 109.594C451.116 108.638 453.473 105.245 453.121 101.567L455.618 100.898C457.178 107.883 456.217 115.194 452.905 121.538ZM450.619 102.238C450.648 104.536 449.115 106.56 446.895 107.155C444.675 107.75 442.334 106.763 441.21 104.759L450.619 102.238ZM440.557 102.32C440.528 100.022 442.062 97.9971 444.282 97.4023C446.501 96.8074 448.842 97.7942 449.966 99.7988L440.557 102.32ZM454.986 98.4537L452.468 99.1283C450.933 95.768 447.196 94.0073 443.628 94.9635C440.06 95.9196 437.704 99.313 438.055 102.99L431.726 104.686C431.364 103.965 430.867 103.32 430.261 102.788L442.298 81.9369C448.353 85.7628 452.85 91.6171 454.986 98.4537ZM419.464 77.9448C426.452 76.3761 433.771 77.3437 440.112 80.6748L428.079 101.524C427.313 101.265 426.504 101.156 425.696 101.205L419.464 77.9448ZM429.736 106.526C430.277 108.547 429.078 110.623 427.058 111.165C425.038 111.706 422.961 110.507 422.42 108.487C421.878 106.466 423.077 104.39 425.098 103.848C427.118 103.307 429.195 104.506 429.736 106.526ZM417.025 78.5983L423.257 101.858C422.536 102.22 421.891 102.717 421.359 103.324L400.508 91.2865C404.334 85.2314 410.188 80.734 417.025 78.5983ZM399.246 93.4727L420.097 105.511C419.838 106.275 419.729 107.083 419.776 107.888L414.776 109.228C413.694 105.187 409.54 102.789 405.5 103.872C401.459 104.955 399.061 109.108 400.144 113.149L396.516 114.121C394.947 107.132 395.915 99.8135 399.246 93.4727ZM402.582 112.495C401.861 109.801 403.459 107.032 406.153 106.311C408.847 105.589 411.616 107.188 412.337 109.881L402.582 112.495ZM412.313 112.502C411.857 114.24 410.503 115.601 408.767 116.066C407.031 116.531 405.178 116.03 403.914 114.752L412.313 112.502ZM404.472 128.697C401.115 125.285 398.62 121.122 397.191 116.554L401.224 115.473C403.036 118.12 406.322 119.336 409.421 118.505C412.52 117.675 414.757 114.98 415.003 111.781L420.429 110.327C420.791 111.048 421.289 111.693 421.895 112.225L416.261 121.986C414.447 120.758 412.19 120.378 410.074 120.943C406.608 121.877 404.27 125.113 404.472 128.697ZM409.989 132.849C408.226 132.071 407.063 130.355 406.994 128.43C406.925 126.505 407.961 124.709 409.663 123.807C411.365 122.904 413.433 123.053 414.988 124.191L409.989 132.849ZM412.675 133.245L416.672 126.322C416.766 126.526 416.846 126.737 416.912 126.953C417.634 129.647 416.035 132.416 413.341 133.137C413.122 133.189 412.899 133.225 412.675 133.245ZM425.296 133.855L426.356 137.811C422.253 137.845 418.186 137.04 414.406 135.444C416.711 134.691 418.513 132.877 419.252 130.568C419.991 128.259 419.576 125.736 418.137 123.785L424.082 113.487C424.846 113.746 425.654 113.855 426.459 113.808L429.462 125.015C429.394 125.046 429.325 125.072 429.258 125.106C426.024 126.709 424.367 130.367 425.296 133.855ZM469.696 133.72C470.237 135.741 469.039 137.817 467.018 138.359L431.656 147.834L427.806 133.467C427.288 131.576 427.832 129.553 429.229 128.177L429.259 128.149C429.432 127.992 429.616 127.849 429.811 127.721C429.921 127.644 430.038 127.568 430.157 127.497C430.277 127.426 430.431 127.354 430.574 127.29C430.81 127.18 431.055 127.089 431.306 127.017C431.625 126.932 431.952 126.879 432.281 126.859C432.362 126.853 432.443 126.864 432.524 126.862C432.765 126.854 433.007 126.863 433.247 126.89C433.349 126.903 433.449 126.933 433.549 126.952C433.758 126.988 433.965 127.038 434.168 127.101C434.29 127.14 434.407 127.196 434.526 127.245C434.696 127.313 434.862 127.388 435.025 127.473C435.201 127.574 435.371 127.686 435.534 127.808C435.642 127.884 435.754 127.953 435.857 128.036C436.038 128.194 436.208 128.365 436.365 128.547C436.428 128.618 436.5 128.678 436.56 128.756C436.74 128.986 436.9 129.232 437.037 129.49C437.06 129.533 437.093 129.57 437.116 129.615C437.274 129.925 437.4 130.251 437.49 130.588L438.797 135.465L432.7 137.099C432.027 137.279 431.627 137.972 431.807 138.645C431.988 139.319 432.68 139.718 433.354 139.538L468.716 130.062L469.696 133.72L469.696 133.72Z" fill="white" fill-opacity="0.2"/>
</g>
<g clip-path="url(#clip6)">
<path d="M401.874 44.5677C401.085 44.3564 400.274 44.825 400.062 45.6138C399.851 46.4026 400.32 47.2143 401.109 47.4257C401.897 47.637 402.709 47.1684 402.92 46.3796C403.132 45.5908 402.663 44.7791 401.874 44.5677Z" fill="white" fill-opacity="0.2"/>
<path d="M404.28 17.3611C404.112 16.9165 403.739 16.5801 403.28 16.4571L397.564 14.9255C396.775 14.714 395.964 15.1825 395.752 15.9716C395.541 16.7607 396.009 17.572 396.798 17.7835L400.532 18.7838L396.507 24.8791C396.057 25.5608 396.245 26.4785 396.927 26.9287C397.063 27.0189 397.209 27.0835 397.359 27.1236C397.958 27.2839 398.617 27.0547 398.977 26.5092L404.132 18.7011C404.394 18.3044 404.449 17.8058 404.28 17.3611Z" fill="white" fill-opacity="0.2"/>
<path d="M421.428 21.9559C421.259 21.5112 420.887 21.1749 420.428 21.0518L414.712 19.5202C413.923 19.3088 413.111 19.7772 412.9 20.5663C412.689 21.3554 413.157 22.1667 413.946 22.3782L417.68 23.3785L413.655 29.4738C413.205 30.1555 413.393 31.0732 414.075 31.5235C414.211 31.6137 414.357 31.6782 414.507 31.7184C415.105 31.8787 415.764 31.6494 416.124 31.104L421.28 23.2959C421.542 22.8991 421.597 22.4005 421.428 21.9559Z" fill="white" fill-opacity="0.2"/>
<path d="M438.576 26.5506C438.407 26.106 438.035 25.7696 437.576 25.6465L431.86 24.1149C431.07 23.9035 430.259 24.372 430.048 25.161C429.836 25.9501 430.305 26.7614 431.094 26.9729L434.827 27.9733L430.803 34.0685C430.353 34.7503 430.54 35.6679 431.222 36.1182C431.359 36.2084 431.505 36.2729 431.655 36.3131C432.253 36.4734 432.912 36.2441 433.272 35.6987L438.427 27.8906C438.689 27.4938 438.745 26.9953 438.576 26.5506Z" fill="white" fill-opacity="0.2"/>
<path d="M419.022 49.1624L407.59 46.0992C406.801 45.8877 405.99 46.3562 405.778 47.1453C405.567 47.9344 406.035 48.7457 406.824 48.9572L418.256 52.0203C419.045 52.2318 419.857 51.7633 420.068 50.9742C420.279 50.1851 419.811 49.3738 419.022 49.1624Z" fill="white" fill-opacity="0.2"/>
<path d="M460.267 16.4109C456.327 15.3553 452.263 17.7016 451.208 21.6413C450.604 23.8963 451.114 26.3034 452.535 28.1202L448.207 44.2705L440.777 42.2795L445.984 22.8453L447.631 16.7007C451.642 1.72972 442.726 -13.7135 427.755 -17.7249C412.784 -21.7363 397.341 -12.8203 393.329 2.15074L391.683 8.29536L382.149 43.877C381.515 46.2408 382.923 48.6792 385.287 49.3126L393.861 51.6099L422.44 59.2678L431.014 61.5652C433.378 62.1986 435.817 60.7908 436.45 58.4269L437.599 54.14L446.458 56.5139C450.398 57.5696 454.462 55.2232 455.518 51.2835L461.109 30.4175C463.248 29.5547 464.893 27.7252 465.498 25.4703C466.553 21.5306 464.207 17.4665 460.267 16.4109ZM394.158 10.4901L408.448 14.3191L403.623 32.3242L389.333 28.4953L394.158 10.4901ZM421.777 56.027L396.056 49.1349L398.353 40.561L424.075 47.4531L421.777 56.027ZM435.124 51.9452L433.592 57.6612C433.381 58.4491 432.568 58.9184 431.78 58.7072L424.635 56.7928L427.316 46.7899C427.527 46.0008 427.059 45.1895 426.269 44.978L397.69 37.3201C396.901 37.1087 396.089 37.5772 395.878 38.3662L393.198 48.3691L386.053 46.4546C385.265 46.2435 384.796 45.4307 385.007 44.6428L388.568 31.3532L404.286 35.5651L421.434 40.1598L437.153 44.3716L435.124 51.9452ZM406.481 33.09L411.306 15.0849L425.595 18.9138L420.771 36.9189L406.481 33.09ZM437.919 41.5137L423.629 37.6847L428.453 19.6796L442.743 23.5085L437.919 41.5137ZM443.509 20.6506L394.924 7.63217L396.187 2.91653C399.776 -10.4784 413.594 -18.4561 426.989 -14.8669C440.384 -11.2778 448.362 2.53996 444.773 15.9349L443.509 20.6506ZM445.795 53.2731L438.364 51.282L440.011 45.1374L447.442 47.1285L445.795 53.2731ZM452.66 50.5177C452.161 52.3805 450.54 53.6489 448.719 53.7931L450.682 46.4653L453.478 36.0337L456.336 36.7995L452.66 50.5177ZM457.101 33.9416L454.243 33.1758L455.048 30.1725C455.491 30.3937 455.957 30.5717 456.438 30.7007C456.92 30.8297 457.412 30.9083 457.906 30.9383L457.101 33.9416ZM459.501 27.844C458.751 28.0449 457.957 28.0444 457.204 27.8427C456.451 27.641 455.763 27.2442 455.214 26.6952C454.097 25.5754 453.657 23.9324 454.066 22.4071C454.699 20.0433 457.137 18.6355 459.501 19.2689C461.865 19.9022 463.273 22.3407 462.64 24.7045C462.231 26.2303 461.027 27.4335 459.501 27.844Z" fill="white" fill-opacity="0.2"/>
<path d="M426.223 -12.0089C414.404 -15.1758 402.212 -8.13671 399.045 3.68239C398.834 4.47147 399.302 5.28279 400.091 5.49426L414.381 9.3232L440.103 16.2153C440.892 16.4268 441.703 15.9583 441.915 15.1692C445.081 3.35011 438.042 -8.84199 426.223 -12.0089ZM415.147 6.46524L402.34 3.03378C405.639 -6.34823 415.695 -11.7668 425.457 -9.15095C435.22 -6.53509 441.219 3.18567 439.385 12.9599L415.147 6.46524Z" fill="white" fill-opacity="0.2"/>
<path d="M424.692 -6.29301C423.902 -6.50448 423.091 -6.03601 422.88 -5.24692L421.348 0.468997C421.137 1.25808 421.605 2.0694 422.394 2.28087C423.184 2.49234 423.995 2.02387 424.206 1.23479L425.738 -4.48114C425.949 -5.27022 425.481 -6.08154 424.692 -6.29301Z" fill="white" fill-opacity="0.2"/>
<path d="M417.323 0.998343L414.364 -4.12564C413.956 -4.83289 413.051 -5.07548 412.343 -4.66713C411.636 -4.25863 411.393 -3.35384 411.802 -2.64612L414.76 2.47786C414.964 2.83158 415.293 3.06917 415.658 3.16715C416.024 3.26514 416.427 3.22355 416.781 3.01935C417.489 2.61085 417.731 1.70606 417.323 0.998343Z" fill="white" fill-opacity="0.2"/>
<path d="M434.573 1.28914C434.164 0.581742 433.259 0.339294 432.552 0.747648L427.428 3.70598C426.72 4.11448 426.478 5.01931 426.886 5.72699C427.091 6.08085 427.419 6.3183 427.785 6.41628C428.15 6.51426 428.554 6.47267 428.907 6.26848L434.031 3.31014C434.739 2.90165 434.981 1.99682 434.573 1.28914Z" fill="white" fill-opacity="0.2"/>
</g>
<g clip-path="url(#clip7)">
<path d="M313.282 114.585L309.616 115.567C308.941 115.748 308.248 115.347 308.067 114.672L307.085 111.006C306.904 110.332 306.21 109.931 305.535 110.112C304.86 110.293 304.46 110.986 304.641 111.661L305.623 115.327C306.165 117.352 308.247 118.554 310.271 118.011L313.937 117.029C314.612 116.848 315.013 116.154 314.832 115.479C314.651 114.804 313.957 114.404 313.282 114.585Z" fill="white" fill-opacity="0.2"/>
<path d="M319.737 60.4652L323.403 59.4829C324.078 59.3021 324.772 59.7026 324.953 60.3775L325.935 64.0435C326.116 64.7184 326.809 65.1189 327.484 64.9381C328.159 64.7572 328.56 64.0635 328.379 63.3887L327.396 59.7226C326.854 57.698 324.773 56.4964 322.748 57.0389L319.082 58.0212C318.407 58.2021 318.007 58.8957 318.188 59.5706C318.368 60.2455 319.062 60.6461 319.737 60.4652Z" fill="white" fill-opacity="0.2"/>
<path d="M312.405 62.4297L314.849 61.7749C315.524 61.594 315.924 60.9004 315.744 60.2255C315.563 59.5505 314.869 59.1501 314.194 59.3309L311.75 59.9858C311.075 60.1667 310.675 60.8603 310.856 61.5352C311.036 62.2101 311.73 62.6106 312.405 62.4297Z" fill="white" fill-opacity="0.2"/>
<path d="M296.107 75.0286C296.95 75.4178 297.904 75.4942 298.799 75.2438C299.022 75.1837 299.24 75.1056 299.451 75.01C299.633 74.9158 299.807 74.8078 299.972 74.687L300.36 76.1351C299.685 76.3159 299.285 77.0095 299.466 77.6845C299.646 78.3594 300.34 78.7598 301.015 78.579L303.459 77.9241C304.134 77.7433 304.534 77.0496 304.354 76.3747C304.173 75.6998 303.479 75.2994 302.804 75.4802L302.416 74.0321C302.619 74.0537 302.824 74.0598 303.027 74.0503C304.193 73.9519 305.256 73.345 305.933 72.3916C307.077 70.714 306.536 68.2877 304.62 66.3796C302.989 65.0027 301.047 64.044 298.962 63.5863C298.526 63.4694 298.06 63.5942 297.74 63.9138C296.172 65.3443 294.974 67.1337 294.248 69.1284C293.532 71.7763 294.283 74.146 296.107 75.0286ZM296.699 69.75C297.194 68.4168 297.987 67.214 299.017 66.2332C300.409 66.5725 301.704 67.2269 302.804 68.1458C303.824 69.1625 304.259 70.3477 303.837 70.9664C303.582 71.2959 303.199 71.5013 302.783 71.5316C302.271 71.5743 301.768 71.3773 301.421 70.9982C301.09 70.7087 300.637 70.6033 300.213 70.717C299.788 70.8307 299.449 71.1486 299.307 71.5646C299.196 72.0665 298.859 72.4886 298.394 72.7078C298.019 72.8896 297.584 72.9032 297.199 72.7451C296.529 72.4203 296.314 71.1762 296.699 69.75Z" fill="white" fill-opacity="0.2"/>
<path d="M336.912 100.021C335.662 99.3988 334.169 99.5307 333.047 100.363L332.659 98.9147C333.334 98.7338 333.735 98.0402 333.554 97.3653C333.373 96.6903 332.679 96.2899 332.004 96.4707L329.56 97.1256C328.885 97.3065 328.485 98.0001 328.666 98.675C328.846 99.3499 329.54 99.7504 330.215 99.5696L330.603 101.018C329.216 100.861 327.858 101.495 327.086 102.658C325.943 104.336 326.483 106.762 328.4 108.67C330.031 110.047 331.974 111.006 334.059 111.463C334.273 111.52 334.498 111.52 334.712 111.462C334.926 111.406 335.122 111.293 335.279 111.136C336.847 109.705 338.045 107.916 338.771 105.921C339.488 103.274 338.736 100.904 336.912 100.021ZM336.32 105.3C335.825 106.633 335.032 107.836 334.002 108.817C332.61 108.477 331.315 107.823 330.216 106.904C329.195 105.887 328.76 104.702 329.182 104.083C329.376 103.825 329.652 103.642 329.966 103.566C330.052 103.543 330.141 103.527 330.231 103.518C330.743 103.476 331.246 103.673 331.593 104.052C331.924 104.341 332.377 104.447 332.801 104.333C333.226 104.219 333.565 103.901 333.707 103.485C333.818 102.984 334.155 102.561 334.62 102.342C334.995 102.16 335.43 102.147 335.815 102.305C336.49 102.63 336.706 103.874 336.32 105.3Z" fill="white" fill-opacity="0.2"/>
<path d="M325.567 96.886C325.386 96.211 324.692 95.8106 324.017 95.9914C323.693 96.1133 323.331 96.0836 323.031 95.9103C322.731 95.737 322.524 95.4386 322.468 95.0968L322.108 93.7525C324.108 93.6157 325.944 92.5956 327.117 90.9695C329.042 88.1369 328.026 83.9309 324.615 80.5292C321.983 77.7493 316.762 76.0571 313.884 75.2949C313.45 75.1801 312.987 75.304 312.669 75.6203C310.558 77.7249 306.884 81.8043 306.011 85.492C304.748 90.1788 305.971 94.329 309.056 95.8207C310.883 96.6364 312.979 96.5985 314.775 95.7171L315.13 97.0418C315.258 97.3676 315.231 97.7334 315.059 98.0378C314.886 98.342 314.586 98.5525 314.241 98.6108C313.566 98.7917 313.166 99.4853 313.346 100.16C313.527 100.835 314.221 101.236 314.896 101.055L324.672 98.4352C325.347 98.2545 325.748 97.5609 325.567 96.886ZM319.515 91.5396C319.215 91.8588 319.102 92.3103 319.215 92.7332L320.024 95.7516C320.138 96.1664 320.317 96.5604 320.555 96.9189L317.703 97.6832C317.73 97.2537 317.688 96.8228 317.58 96.4065L316.771 93.3882C316.659 92.9637 316.336 92.6275 315.916 92.4998C315.496 92.3722 315.04 92.4712 314.71 92.7615C313.465 93.8754 311.692 94.177 310.148 93.5373C308.192 92.5919 307.509 89.6223 308.454 86.1104C308.97 83.9566 310.956 81.0027 313.941 77.937C318.058 79.0996 321.257 80.6654 322.804 82.2981C325.353 84.8411 326.245 87.7545 325.026 89.5495C324.009 90.8755 322.322 91.5017 320.686 91.1602C320.256 91.0754 319.813 91.219 319.515 91.5396Z" fill="white" fill-opacity="0.2"/>
<path d="M357.052 53.0861L332.612 59.6349L331.302 54.7467C330.579 52.0472 327.804 50.4451 325.105 51.1685L290.888 60.3367C288.188 61.0601 286.586 63.8349 287.31 66.5345L301.717 120.303C302.44 123.003 305.215 124.605 307.915 123.881L332.355 117.333L333.665 122.221C334.388 124.92 337.163 126.522 339.863 125.799L374.079 116.631C376.779 115.907 378.381 113.133 377.657 110.433L363.25 56.6644C362.527 53.9649 359.752 52.3628 357.052 53.0861ZM340.356 88.5355C341.083 87.6252 342.153 87.0543 343.315 86.9568C344.71 86.8326 346.084 87.3582 347.04 88.3817C347.371 88.6723 347.824 88.7785 348.249 88.6647C348.674 88.5508 349.014 88.232 349.154 87.8152C349.469 86.4498 350.397 85.3059 351.667 84.7149C352.763 84.1929 354.03 84.1679 355.145 84.6462C357.101 85.5916 357.784 88.5612 356.839 92.0731C356.325 94.2266 354.337 97.1809 351.352 100.247C347.235 99.0839 344.036 97.5181 342.501 95.8977C342.419 95.8139 342.342 95.7322 342.262 95.6489L340.356 88.5355L340.356 88.5355ZM307.26 121.438C305.91 121.799 304.523 120.998 304.161 119.648L289.754 65.8796C289.392 64.5298 290.193 63.1424 291.543 62.7807L325.759 53.6124C327.109 53.2508 328.496 54.0518 328.858 55.4016L343.265 109.17C343.627 110.52 342.826 111.908 341.476 112.269L307.26 121.438ZM375.213 111.088C375.575 112.438 374.774 113.825 373.424 114.187L339.208 123.355C337.858 123.717 336.47 122.916 336.109 121.566L334.799 116.678L337.243 116.023L337.571 117.245C338.113 119.27 340.194 120.471 342.219 119.929L345.885 118.946C346.56 118.766 346.96 118.072 346.78 117.397C346.599 116.722 345.905 116.322 345.23 116.503L341.564 117.485C340.889 117.666 340.195 117.265 340.015 116.59L339.687 115.368L342.131 114.713C344.831 113.99 346.433 111.215 345.71 108.516L343.346 99.6964C345.883 101.106 348.592 102.178 351.405 102.888C351.842 103.003 352.307 102.879 352.627 102.56C354.738 100.461 358.413 96.3837 359.293 92.6969C360.555 88.0101 359.332 83.8599 356.245 82.3675C354.452 81.5569 352.394 81.5744 350.615 82.4156C349.236 83.047 348.102 84.1137 347.388 85.4518C344.977 83.9546 341.899 84.0715 339.609 85.747L333.267 62.0789L357.707 55.5301C359.057 55.1684 360.444 55.9694 360.806 57.3193L375.213 111.088Z" fill="white" fill-opacity="0.2"/>
<path d="M354.696 58.9564L351.03 59.9387C350.355 60.1195 349.955 60.8132 350.136 61.4881C350.316 62.163 351.01 62.5635 351.685 62.3826L355.351 61.4003C356.026 61.2195 356.72 61.6199 356.9 62.2949L357.883 65.9609C358.064 66.6358 358.757 67.0363 359.432 66.8554C360.107 66.6746 360.507 65.9808 360.327 65.306L359.344 61.6401C358.802 59.6155 356.721 58.4139 354.696 58.9564Z" fill="white" fill-opacity="0.2"/>
<path d="M346.142 61.2485L343.698 61.9034C343.023 62.0843 342.622 62.7779 342.803 63.4528C342.984 64.1277 343.678 64.5282 344.353 64.3473L346.797 63.6925C347.472 63.5116 347.872 62.818 347.691 62.1431C347.51 61.4681 346.817 61.0677 346.142 61.2485Z" fill="white" fill-opacity="0.2"/>
<path d="M364.367 102.381C363.93 102.264 363.465 102.389 363.145 102.708C361.577 104.139 360.379 105.928 359.653 107.923C358.936 110.571 359.688 112.94 361.511 113.823C362.355 114.212 363.309 114.288 364.203 114.038C364.427 113.978 364.645 113.9 364.856 113.804C365.48 113.52 366.022 113.083 366.432 112.533C367.062 112.804 367.75 112.911 368.432 112.845C369.597 112.746 370.661 112.14 371.338 111.186C372.481 109.508 371.941 107.082 370.024 105.174C368.393 103.797 366.452 102.838 364.367 102.381ZM369.249 109.76C368.995 110.09 368.611 110.296 368.196 110.325C367.683 110.368 367.18 110.171 366.833 109.792C366.503 109.502 366.049 109.397 365.625 109.511C365.201 109.624 364.861 109.942 364.719 110.358C364.608 110.86 364.271 111.282 363.806 111.501C363.431 111.684 362.996 111.698 362.611 111.539C361.936 111.214 361.721 109.97 362.106 108.544C362.6 107.211 363.392 106.008 364.421 105.028C365.813 105.367 367.109 106.021 368.208 106.94C369.233 107.957 369.669 109.142 369.246 109.761L369.249 109.76Z" fill="white" fill-opacity="0.2"/>
</g>
<g clip-path="url(#clip8)">
<path d="M36.8292 6.12102C37.4341 5.77168 37.6413 4.99808 37.2922 4.39311L23.0236 -20.3206C22.6617 -20.9089 21.9033 -21.1121 21.2957 -20.7836C19.5022 -19.7434 17.3674 -19.4633 15.3662 -20.0056C13.3619 -20.5362 11.6529 -21.8463 10.6201 -23.6441C10.2581 -24.2324 9.49973 -24.4356 8.89215 -24.1071L-40.5353 4.42988C-41.1402 4.77922 -41.3475 5.55281 -40.9983 6.15779C-39.9578 7.95119 -39.6777 10.0862 -40.2204 12.0873C-40.7512 14.0914 -42.0611 15.8004 -43.8588 16.8334C-44.1494 17.0012 -44.3615 17.2774 -44.4483 17.6014C-44.5352 17.9255 -44.4896 18.2708 -44.3218 18.5613L-30.0533 43.275C-29.6913 43.8633 -28.9329 44.0665 -28.3253 43.738C-24.5874 41.5805 -19.8082 42.8611 -17.6499 46.5985C-17.3005 47.2034 -16.5269 47.4106 -15.9219 47.0615L33.5057 18.5246C34.1105 18.1752 34.3178 17.4016 33.9687 16.7967C31.8111 13.0585 33.0916 8.27937 36.8292 6.12102ZM31.2103 16.9284L-16.1564 44.2757C-19.0165 40.4882 -24.0854 39.13 -28.456 40.98L-41.5356 18.3254C-39.6905 16.9397 -38.3663 14.9728 -37.7762 12.742C-37.1716 10.5149 -37.3349 8.14888 -38.24 6.02585L9.1268 -21.3214C10.5129 -19.4762 12.4803 -18.1517 14.7113 -17.5617C16.9387 -16.9578 19.3045 -17.1222 21.427 -18.0281L34.506 4.62887C30.7185 7.48909 29.3604 12.5578 31.2103 16.9284Z" fill="white" fill-opacity="0.2"/>
<path d="M30.5859 4.76066C30.9103 4.35399 30.9529 3.79013 30.6929 3.33949L20.636 -14.0795C20.3753 -14.5323 19.8632 -14.7783 19.3467 -14.6986C15.7533 -14.1585 12.0973 -15.1382 9.25533 -17.4026C8.84852 -17.7277 8.28395 -17.7705 7.83291 -17.5101L-34.2933 6.81572C-34.7443 7.07612 -34.9897 7.5864 -34.9114 8.1013C-34.3719 11.6947 -35.3515 15.3506 -37.6154 18.1927C-37.9398 18.5993 -37.9824 19.1632 -37.7225 19.6138L-27.6656 37.0328C-27.4052 37.4832 -26.8958 37.7284 -26.3814 37.6507C-22.788 37.1112 -19.1321 38.0908 -16.29 40.3547C-15.8832 40.6798 -15.3186 40.7226 -14.8676 40.462L27.2636 16.1376C27.7147 15.8772 27.9601 15.3669 27.8819 14.852C27.3424 11.2586 28.322 7.60289 30.5859 4.76066ZM25.274 14.3641L-5.20526 31.9613C-5.42704 31.5615 -5.84714 31.3123 -6.30443 31.3096C-6.76157 31.307 -7.18465 31.5513 -7.41096 31.9485C-7.6373 32.3458 -7.63156 32.8342 -7.39616 33.2262L-15.4084 37.8521C-18.4556 35.6932 -22.1749 34.6966 -25.8933 35.0427L-35.1128 19.0739C-32.954 16.0268 -31.9574 12.3074 -32.3034 8.58906L-24.2912 3.96319C-24.0696 4.36301 -23.6493 4.61221 -23.192 4.61487C-22.7347 4.61753 -22.3118 4.37323 -22.0855 3.97602C-21.8592 3.57881 -21.8649 3.09027 -22.1003 2.69827L8.37895 -14.8989C11.4263 -12.7406 15.1456 -11.744 18.8638 -12.0895L28.0834 3.87923C25.9245 6.92642 24.9279 10.6457 25.274 14.3641Z" fill="white" fill-opacity="0.2"/>
<path d="M23.1045 -1.29521L18.3543 -2.63093L16.5655 -7.37334C16.3936 -7.82598 15.9783 -8.14077 15.4961 -8.1842C15.0138 -8.22763 14.5491 -7.9919 14.2992 -7.57722L11.8232 -3.46922L7.02798 -3.38025C6.54348 -3.37132 6.10656 -3.08626 5.90309 -2.64655C5.69959 -2.2067 5.7654 -1.68931 6.07225 -1.31424L6.06788 -1.3128L9.27446 2.61122L8.05617 7.39281C7.93886 7.85238 8.08848 8.33881 8.44354 8.65312C8.7986 8.96744 9.29978 9.05661 9.7416 8.88444L14.181 7.1519L18.2714 10.0017C18.674 10.2822 19.2027 10.3044 19.6275 10.059C20.0522 9.81346 20.2969 9.34428 20.2549 8.85538L19.8333 3.8884L23.5521 0.90971C23.9221 0.613309 24.0954 0.135118 24.001 -0.329452C23.9068 -0.793802 23.5607 -1.16666 23.1045 -1.29521ZM17.256 3.42849L17.5133 6.37883L15.0868 4.68082C14.7405 4.43977 14.2968 4.38717 13.9037 4.54063L11.1258 5.62078L11.894 2.60724C11.9934 2.21793 11.9019 1.80447 11.6476 1.49336L9.68474 -0.90819L12.5659 -0.950887C13.0009 -0.959105 13.4011 -1.19016 13.6258 -1.5628L15.1197 -4.0439L16.2168 -1.14358C16.3591 -0.76779 16.6714 -0.481813 17.0582 -0.373243L20.0521 0.468263L17.7265 2.33357C17.3965 2.59742 17.2202 3.00802 17.256 3.42849Z" fill="white" fill-opacity="0.2"/>
<path d="M4.96801 9.17589L0.217882 7.84017L-1.57682 3.10003C-1.75089 2.65156 -2.16437 2.34047 -2.6436 2.2977C-3.12284 2.25494 -3.58485 2.48754 -3.83576 2.89811L-6.31173 7.00611L-11.1156 7.09278C-11.5995 7.10416 -12.0344 7.3907 -12.2359 7.83076C-12.4375 8.27082 -12.3702 8.78737 -12.0627 9.16109L-8.8558 13.0838L-10.0741 17.8654C-10.1909 18.3248 -10.0411 18.811 -9.68588 19.1249C-9.33071 19.4388 -8.82984 19.528 -8.38831 19.3558L-3.94928 17.6245L0.141451 20.4731C0.543859 20.7539 1.07248 20.7768 1.49751 20.5315C1.92255 20.2862 2.16757 19.8174 2.12595 19.3283L1.7032 14.361L5.41716 11.381C5.78731 11.0845 5.9605 10.606 5.86587 10.1412C5.77123 9.67644 5.42466 9.30408 4.96801 9.17589ZM-0.874996 13.9037L-0.617689 16.854L-3.04411 15.156C-3.39014 14.9146 -3.83379 14.8615 -4.22688 15.0145L-7.00708 16.1033L-6.23859 13.0886C-6.13919 12.6993 -6.2307 12.2858 -6.485 11.9747L-8.44821 9.57444L-5.56477 9.52329C-5.12974 9.51507 -4.72954 9.28402 -4.50491 8.91138L-3.01096 6.43028L-1.91388 9.33059C-1.7716 9.70639 -1.45944 9.99233 -1.07244 10.1009L1.92146 10.9424L-0.40408 12.8078C-0.734588 13.0715 -0.911069 13.4827 -0.874996 13.9037Z" fill="white" fill-opacity="0.2"/>
</g>
<g clip-path="url(#clip9)">
<path d="M198.512 67.1226L190.095 67.0261V45.3195C190.095 44.7584 189.984 44.2027 189.769 43.6843C189.555 43.1659 189.24 42.6949 188.843 42.2983C188.446 41.9016 187.975 41.587 187.456 41.3725C186.938 41.158 186.382 41.0478 185.821 41.0481C185.259 41.0481 184.703 41.1587 184.184 41.3737C183.666 41.5886 183.194 41.9037 182.798 42.3009C182.401 42.698 182.086 43.1695 181.871 43.6883C181.657 44.2072 181.546 44.7633 181.547 45.3247V70.6848C181.547 70.7813 181.547 70.8777 181.547 70.9716C181.547 71.0655 181.547 71.1255 181.547 71.2063C181.54 71.7676 181.645 72.3246 181.854 72.8455C182.063 73.3665 182.373 73.8411 182.765 74.2423C183.158 74.6436 183.625 74.9636 184.142 75.1841C184.658 75.4045 185.212 75.5212 185.774 75.5273L198.416 75.6707H198.473C199.607 75.6769 200.696 75.2326 201.502 74.4355C202.308 73.6383 202.765 72.5537 202.771 71.4201C202.777 70.2866 202.333 69.197 201.536 68.3911C200.738 67.5851 199.654 67.1289 198.52 67.1226H198.512Z" fill="#C9A31E"/>
<path d="M249.929 33.5143C249.655 33.5135 249.386 33.4445 249.146 33.3135C248.94 33.204 244.106 30.5702 241.991 29.3263C241.639 29.111 241.351 28.806 241.156 28.4426C240.962 28.0791 240.867 27.6705 240.882 27.2584C240.882 26.5283 241.193 25.5817 242.017 25.1175C245.146 23.3547 249.112 21.2059 249.152 21.2059C249.342 21.1032 249.55 21.0389 249.765 21.0168C249.98 20.9947 250.198 21.0152 250.405 21.077C250.612 21.1389 250.805 21.241 250.973 21.3774C251.14 21.5138 251.28 21.682 251.382 21.8722C251.485 22.0624 251.549 22.271 251.572 22.4861C251.594 22.7012 251.573 22.9185 251.511 23.1256C251.449 23.3328 251.347 23.5257 251.211 23.6935C251.075 23.8612 250.906 24.0004 250.716 24.1031C250.682 24.1214 247.762 25.6964 244.966 27.2506C247.313 28.5753 250.68 30.4138 250.721 30.4346C251.042 30.6095 251.295 30.886 251.442 31.2206C251.588 31.5553 251.618 31.9291 251.529 32.2831C251.439 32.6372 251.234 32.9513 250.947 33.1761C250.659 33.4009 250.304 33.5236 249.939 33.5248L249.929 33.5143Z" fill="white"/>
<path d="M228.561 94.7383C225.179 94.744 221.808 94.343 218.522 93.544C209.684 91.3796 204.547 87.0534 204.333 86.8709C203.839 86.45 203.533 85.8503 203.481 85.2035C203.43 84.5567 203.637 83.916 204.058 83.4222C204.479 82.9284 205.078 82.622 205.725 82.5704C206.372 82.5188 207.013 82.7262 207.507 83.1471C208.263 83.7833 225.88 98.1857 252.487 82.8863C252.766 82.7189 253.075 82.6087 253.397 82.5622C253.719 82.5158 254.046 82.5339 254.361 82.6156C254.676 82.6973 254.971 82.8409 255.23 83.0381C255.488 83.2352 255.705 83.482 255.867 83.7638C256.029 84.0457 256.133 84.357 256.174 84.6796C256.214 85.0023 256.19 85.3297 256.102 85.6428C256.014 85.9559 255.865 86.2483 255.663 86.5031C255.461 86.7578 255.21 86.9697 254.925 87.1264C244.831 92.9364 235.837 94.7383 228.561 94.7383Z" fill="white"/>
<path d="M211.848 75.6371C210.662 75.6364 209.525 75.1651 208.686 74.3266C207.847 73.4881 207.375 72.351 207.373 71.1649V45.5206C207.373 44.3343 207.844 43.1965 208.683 42.3573C209.522 41.5182 210.659 41.0465 211.846 41.0458C213.032 41.0458 214.169 41.517 215.008 42.3557C215.847 43.1944 216.318 44.3319 216.318 45.518V71.1623C216.318 71.7496 216.203 72.3312 215.978 72.8739C215.754 73.4166 215.425 73.9098 215.01 74.3254C214.595 74.7409 214.102 75.0706 213.559 75.2957C213.017 75.5207 212.435 75.6367 211.848 75.6371Z" fill="#C9A41E"/>
<path d="M247.441 75.7855C246.254 75.7855 245.116 75.3141 244.277 74.4749C243.438 73.6357 242.966 72.4975 242.966 71.3107V56.7257C242.902 55.3254 242.56 53.9517 241.962 52.6838C240.943 50.642 239.355 49.7319 236.77 49.7319H236.757C234.41 49.7319 233.002 50.6446 232.063 52.7803C231.548 54.0238 231.25 55.3471 231.185 56.6918V71.295C231.199 71.8916 231.094 72.485 230.876 73.0404C230.657 73.5957 230.33 74.1018 229.913 74.5288C229.496 74.9558 228.998 75.2952 228.449 75.5269C227.899 75.7585 227.308 75.8779 226.711 75.8779C226.114 75.8779 225.524 75.7585 224.974 75.5269C224.424 75.2952 223.926 74.9558 223.509 74.5288C223.092 74.1018 222.765 73.5957 222.547 73.0404C222.328 72.485 222.223 71.8916 222.238 71.295V56.6918C222.238 50.3003 226.102 40.7848 236.747 40.7848H236.765C240.953 40.7848 244.565 42.1825 247.212 44.8241C251.778 49.3876 251.906 55.9643 251.906 56.6997V71.3029C251.907 71.8904 251.793 72.4724 251.569 73.0157C251.345 73.559 251.017 74.0529 250.602 74.4692C250.188 74.8855 249.695 75.216 249.153 75.4419C248.61 75.6677 248.029 75.7845 247.441 75.7855Z" fill="#C9A41E"/>
<path d="M267.2 58.713L274.702 47.8414C275.05 47.3554 275.297 46.8051 275.43 46.2226C275.562 45.64 275.578 45.0368 275.475 44.4483C275.372 43.8597 275.153 43.2975 274.831 42.7944C274.508 42.2914 274.089 41.8576 273.597 41.5183C273.105 41.179 272.551 40.941 271.966 40.8182C271.381 40.6954 270.778 40.6903 270.191 40.8031C269.604 40.9159 269.046 41.1445 268.549 41.4753C268.051 41.8062 267.624 42.2328 267.293 42.7303L257.992 56.2096C257.992 56.2096 257.992 56.2304 257.974 56.2409C257.84 56.4445 257.722 56.6581 257.622 56.8798C257.595 56.9371 257.562 56.9945 257.538 57.0545C257.466 57.2409 257.406 57.4317 257.358 57.6256C257.335 57.7221 257.301 57.8185 257.282 57.915C257.256 58.0739 257.239 58.2341 257.23 58.3948C257.23 58.5278 257.202 58.6556 257.202 58.7938C257.202 58.932 257.223 59.0546 257.236 59.1798C257.246 59.3433 257.266 59.5061 257.296 59.6674C257.316 59.7639 257.35 59.8552 257.376 59.949C257.426 60.1455 257.489 60.3382 257.567 60.5254C257.59 60.5827 257.622 60.6349 257.65 60.6896C257.753 60.9135 257.876 61.1281 258.015 61.3311C258.015 61.3311 258.015 61.352 258.034 61.3624L266.884 73.7673C267.596 74.6852 268.635 75.2922 269.785 75.4615C270.934 75.6308 272.104 75.3492 273.05 74.6756C273.997 74.002 274.646 72.9886 274.863 71.8473C275.079 70.706 274.846 69.5252 274.212 68.5519L267.2 58.713Z" fill="white"/>
<path d="M211.582 32.7815C214.663 32.7815 217.16 30.2842 217.16 27.2036C217.16 24.123 214.663 21.6257 211.582 21.6257C208.502 21.6257 206.004 24.123 206.004 27.2036C206.004 30.2842 208.502 32.7815 211.582 32.7815Z" fill="white"/>
<path d="M169.976 56.5978C169.976 56.5978 174.759 56.1701 174.592 49.0093C174.412 41.2931 165.342 40.9697 165.342 40.9697H155.326C154.178 40.9828 153.082 41.4478 152.274 42.264C151.467 43.0802 151.014 44.1817 151.013 45.3298V71.6677C151.014 72.8239 151.473 73.9325 152.291 74.75C153.108 75.5675 154.217 76.0271 155.373 76.0278C155.373 76.0278 160.429 75.9887 162.881 76.0278C172.967 76.1765 177.254 72.3483 177.406 65.9151C177.596 57.3201 169.976 56.5978 169.976 56.5978ZM159.498 47.7315C159.498 47.7315 162.299 47.6924 163.149 47.7315C163.999 47.7706 166.943 48.0575 166.821 51.4241C166.698 54.7906 162.909 54.6289 162.909 54.6289H159.498V47.7315ZM162.907 69.2217H159.498V61.4325C159.498 61.4325 162.299 61.3907 163.149 61.4325C163.999 61.4742 168.821 61.0674 168.936 65.3232C169.053 69.4746 162.907 69.2347 162.907 69.2347V69.2217Z" fill="#C9A31E"/>
</g>
</g>
<defs>
<linearGradient id="paint0_linear" x1="245" y1="0" x2="245" y2="112" gradientUnits="userSpaceOnUse">
<stop stop-color="#0F1837"/>
<stop offset="1" stop-color="#112361"/>
</linearGradient>
<clipPath id="clip0">
<rect width="490" height="112" fill="white" transform="translate(-26 0.00012207)"/>
</clipPath>
<clipPath id="clip1">
<rect width="75.7447" height="75.7447" fill="white" transform="matrix(0.866025 -0.5 -0.5 -0.866025 103.872 170.795)"/>
</clipPath>
<clipPath id="clip2">
<rect width="75.7447" height="75.7447" fill="white" transform="translate(312.604 -46.9999) rotate(15)"/>
</clipPath>
<clipPath id="clip3">
<rect width="75.7447" height="75.7447" fill="white" transform="translate(-2.39575 37.0002) rotate(15)"/>
</clipPath>
<clipPath id="clip4">
<rect width="75.741" height="75.741" fill="white" transform="translate(71.6033 -24.9998) rotate(15)"/>
</clipPath>
<clipPath id="clip5">
<rect width="75.7453" height="75.7453" fill="white" transform="translate(381 85.6045) rotate(-15)"/>
</clipPath>
<clipPath id="clip6">
<rect width="75.7447" height="75.7447" fill="white" transform="translate(400.604 -24.9999) rotate(15)"/>
</clipPath>
<clipPath id="clip7">
<rect width="75.9073" height="75.9073" fill="white" transform="translate(286 61.6465) rotate(-15)"/>
</clipPath>
<clipPath id="clip8">
<rect width="75.9071" height="75.9071" fill="white" transform="translate(-30.3538 -34.9999) rotate(15)"/>
</clipPath>
<clipPath id="clip9">
<rect width="124.497" height="73.7383" fill="white" transform="translate(151 21.0001)"/>
</clipPath>
</defs>
</svg>
