<svg xmlns="http://www.w3.org/2000/svg" width="800" height="112" fill="none" viewBox="0 0 800 112"><g clip-path="url(#clip0_723_darbg)"><rect width="800" height="112" fill="#2C1432"/><rect width="800" height="112" fill="url(#paint0_linear_723_darbg)" fill-opacity=".2"/><g filter="url(#filter0_f_723_darbg)"><circle cx="324" cy="22" r="2" fill="#fff" fill-opacity=".3"/></g><g filter="url(#filter1_f_723_darbg)"><circle cx="225" cy="58" r="2" fill="#fff" fill-opacity=".5"/></g><g filter="url(#filter2_f_723_darbg)"><circle cx="567" cy="65" r="2" fill="#fff" fill-opacity=".5"/></g><g filter="url(#filter3_f_723_darbg)"><circle cx="608" cy="84" r="2" fill="#fff" fill-opacity=".5"/></g><g filter="url(#filter4_f_723_darbg)"><circle cx="496" cy="20" r="2" fill="#fff" fill-opacity=".3"/></g><g filter="url(#filter5_f_723_darbg)"><circle cx="193" cy="104" r="1" fill="#fff" fill-opacity=".3"/></g><g filter="url(#filter6_f_723_darbg)"><circle cx="560" cy="101" r="1" fill="#fff" fill-opacity=".3"/></g><g filter="url(#filter7_f_723_darbg)"><circle cx="570" cy="24" r="1" fill="#fff" fill-opacity=".3"/></g><g filter="url(#filter8_f_723_darbg)"><circle cx="657" cy="83" r="1" fill="#fff" fill-opacity=".3"/></g><g filter="url(#filter9_f_723_darbg)"><circle cx="743" cy="60" r="1" fill="#fff" fill-opacity=".3"/></g><g filter="url(#filter10_f_723_darbg)"><circle cx="772" cy="97" r="1" fill="#fff" fill-opacity=".3"/></g><g filter="url(#filter11_f_723_darbg)"><circle cx="519" cy="111" r="1" fill="#fff" fill-opacity=".3"/></g><g filter="url(#filter12_f_723_darbg)"><circle cx="284" cy="42" r="1" fill="#fff" fill-opacity=".3"/></g><g filter="url(#filter13_f_723_darbg)"><circle cx="616" cy="62" r="1" fill="#fff" fill-opacity=".3"/></g><g filter="url(#filter14_f_723_darbg)"><circle cx="305" cy="6" r="1" fill="#fff" fill-opacity=".3"/></g><g filter="url(#filter15_f_723_darbg)"><circle cx="255" cy="89" r="1" fill="#fff" fill-opacity=".3"/></g><g filter="url(#filter16_f_723_darbg)"><circle cx="162" cy="93" r="1" fill="#fff" fill-opacity=".3"/></g><g filter="url(#filter17_f_723_darbg)"><circle cx="315" cy="103" r="1" fill="#fff" fill-opacity=".3"/></g><g filter="url(#filter18_f_723_darbg)"><circle cx="380" cy="101" r="1" fill="#fff" fill-opacity=".3"/></g><g filter="url(#filter19_f_723_darbg)"><circle cx="400" cy="95" r="1" fill="#fff" fill-opacity=".3"/></g><g filter="url(#filter20_f_723_darbg)"><circle cx="668" cy="11" r="1" fill="#fff" fill-opacity=".3"/></g><g filter="url(#filter21_f_723_darbg)"><circle cx="718" cy="91" r="3" fill="#fff" fill-opacity=".4"/></g><g filter="url(#filter22_f_723_darbg)"><circle cx="425" cy="2" r="2" fill="#fff" fill-opacity=".4"/></g><path fill="#fff" d="M299 55.2326C299.183 55.2244 299.345 55.2107 299.506 55.2107C305.055 55.2107 310.603 55.2135 316.151 55.208C317.407 55.208 318.639 55.3312 319.819 55.7855C322.337 56.76 323.7 58.6212 323.974 61.2762C324.069 62.2096 324.056 63.1567 324.056 64.0982C324.053 65.4641 324.091 66.8381 323.982 68.1985C323.725 71.3818 321.661 73.6071 318.521 74.1545C317.733 74.2913 316.923 74.3789 316.121 74.3817C310.589 74.4008 305.055 74.3926 299.523 74.3926C299.359 74.3926 299.197 74.3926 299 74.3926C299 67.985 299 61.6293 299 55.2326ZM304.017 69.9229C304.165 69.9311 304.269 69.942 304.373 69.942C308.219 69.942 312.064 69.9448 315.91 69.9366C316.332 69.9366 316.764 69.8982 317.177 69.8134C318.253 69.5917 318.828 68.9512 318.978 67.8563C319.014 67.6018 319.036 67.3417 319.036 67.0845C319.041 65.5489 319.047 64.0134 319.033 62.4778C319.03 62.1165 318.992 61.747 318.915 61.3939C318.751 60.6358 318.294 60.0883 317.547 59.8913C316.967 59.738 316.353 59.6422 315.754 59.6394C311.999 59.6175 308.246 59.6285 304.491 59.6285C304.343 59.6285 304.195 59.6422 304.02 59.6531C304.017 63.08 304.017 66.4768 304.017 69.9229Z"/><path fill="#fff" d="M438.512 55.2103C438.693 55.2103 438.857 55.2103 439.019 55.2103C440.614 55.2103 442.213 55.2404 443.809 55.2021C445.965 55.1501 447.643 56.0451 448.897 57.7367C450.356 59.702 451.754 61.7083 453.178 63.6982C454.39 65.3925 455.6 67.084 456.81 68.781C457.092 69.1752 457.415 69.5036 457.908 69.6159C457.992 69.635 458.083 69.6323 458.231 69.646C458.231 64.8423 458.231 60.0633 458.231 55.2459C459.933 55.2459 461.581 55.2459 463.256 55.2459C463.256 61.618 463.256 67.9654 463.256 74.3648C463.083 74.3758 462.925 74.3922 462.763 74.3922C461.167 74.3949 459.572 74.373 457.973 74.3976C455.814 74.4332 454.119 73.5464 452.838 71.8439C451.99 70.7135 451.182 69.5529 450.361 68.4033C448.577 65.907 446.792 63.408 445.01 60.909C444.695 60.4684 444.359 60.0633 443.789 59.9538C443.746 59.9456 443.699 59.9373 443.655 59.9373C443.625 59.9373 443.598 59.951 443.521 59.9702C443.521 64.741 443.521 69.5228 443.521 74.3511C441.83 74.3511 440.187 74.3511 438.512 74.3511C438.512 67.9845 438.512 61.6262 438.512 55.2103Z"/><path fill="#fff" d="M416.343 74.3704C414.652 74.3704 413.032 74.3704 411.356 74.3704C411.345 74.2035 411.324 74.042 411.324 73.8805C411.321 70.0649 411.318 66.2466 411.326 62.431C411.329 60.9338 411.595 59.4968 412.44 58.2158C413.396 56.7679 414.772 55.9467 416.417 55.5143C417.29 55.2844 418.183 55.2104 419.083 55.2104C424.421 55.2104 429.758 55.2104 435.096 55.2104C435.216 55.2104 435.336 55.2214 435.479 55.2296C435.501 55.3227 435.536 55.4075 435.536 55.4924C435.531 57.9558 435.577 60.4192 435.501 62.8826C435.432 65.034 434.565 66.8378 432.722 68.0558C432.134 68.4445 431.461 68.7073 430.776 69.0522C432.509 70.7766 434.272 72.5338 436.114 74.3677C433.809 74.3677 431.628 74.3677 429.411 74.3677C427.787 72.7199 426.145 71.053 424.489 69.3697C423.077 69.3697 421.664 69.3697 420.216 69.3697C420.216 67.8889 420.216 66.4409 420.216 64.9382C420.405 64.9382 420.567 64.9382 420.728 64.9382C422.841 64.9382 424.954 64.9437 427.07 64.9328C427.571 64.93 428.072 64.889 428.568 64.826C429.542 64.7001 430.341 63.9967 430.429 63.0305C430.527 61.9438 430.481 60.8462 430.494 59.7541C430.494 59.7295 430.467 59.7021 430.423 59.6309C430.3 59.6309 430.152 59.6309 430.002 59.6309C426.55 59.6309 423.099 59.6227 419.647 59.6391C419.105 59.6419 418.552 59.7048 418.024 59.828C417.08 60.0497 416.554 60.6984 416.409 61.6482C416.36 61.963 416.343 62.2832 416.343 62.6007C416.338 66.326 416.341 70.0512 416.341 73.7765C416.343 73.9544 416.343 74.135 416.343 74.3704Z"/><path fill="#fff" d="M402.562 70.6865C397.548 70.6865 392.566 70.6865 387.538 70.6865C387.021 71.9045 386.503 73.1307 385.978 74.3679C384.182 74.3679 382.409 74.3679 380.597 74.3679C380.632 74.2283 380.649 74.1134 380.695 74.0066C382.477 69.7312 384.259 65.4531 386.044 61.1804C386.361 60.4249 386.684 59.6695 387.021 58.9222C387.995 56.7599 389.651 55.4516 392 55.1067C394.146 54.7919 396.302 54.77 398.443 55.1833C400.531 55.5857 402.026 56.7873 402.932 58.6923C403.485 59.8583 403.975 61.0545 404.473 62.2451C406.085 66.099 407.689 69.9556 409.296 73.8095C409.364 73.9738 409.424 74.1407 409.506 74.357C407.678 74.357 405.91 74.357 404.092 74.357C403.589 73.1526 403.077 71.9209 402.562 70.6865ZM400.698 66.2058C399.88 64.2788 399.108 62.434 398.309 60.6001C398.079 60.0746 397.603 59.7653 397.05 59.7379C395.796 59.6804 394.537 59.6613 393.281 59.6914C392.375 59.7133 391.835 60.2689 391.507 61.0955C391.028 62.3081 390.505 63.5069 390.007 64.7113C389.807 65.1958 389.613 65.6802 389.399 66.2058C393.174 66.2058 396.888 66.2058 400.698 66.2058Z"/><path fill="#fff" d="M502 74.3705C500.177 74.3705 498.417 74.3705 496.591 74.3705C496.09 73.1689 495.578 71.9399 495.058 70.6945C490.047 70.6945 485.051 70.6945 480.026 70.6945C479.511 71.9098 479 73.1251 478.477 74.3622C476.684 74.3622 474.902 74.3622 473.052 74.3622C473.298 73.7601 473.523 73.2017 473.755 72.6461C475.485 68.4966 477.207 64.3416 478.953 60.1976C479.295 59.3874 479.678 58.5881 480.135 57.8382C481.003 56.4148 482.314 55.5609 483.935 55.2297C486.283 54.7479 488.648 54.7534 490.999 55.2023C492.981 55.58 494.445 56.7077 495.324 58.5115C495.994 59.8883 496.572 61.3143 497.166 62.7294C498.707 66.3999 500.234 70.0759 501.767 73.7492C501.841 73.9408 501.909 74.1351 502 74.3705ZM493.129 66.211C493.112 66.1098 493.115 66.0605 493.099 66.0222C492.379 64.2978 491.662 62.5734 490.939 60.849C490.663 60.1921 490.17 59.7679 489.458 59.7241C488.429 59.6584 487.394 59.6583 486.362 59.6337C485.144 59.6036 484.337 60.1155 483.902 61.3061C483.368 62.7595 482.722 64.1719 482.128 65.6034C482.051 65.7895 481.983 65.9811 481.895 66.211C485.678 66.211 489.384 66.211 493.129 66.211Z"/><path fill="#fff" d="M332.549 70.6892C332.029 71.9182 331.514 73.1335 330.992 74.3652C329.204 74.3652 327.433 74.3652 325.61 74.3652C325.654 74.2091 325.679 74.0805 325.728 73.9601C327.784 69.0387 329.834 64.1173 331.906 59.2014C332.439 57.9369 333.203 56.8311 334.391 56.0674C335.415 55.4105 336.559 55.0985 337.747 54.9944C339.43 54.8494 341.116 54.8329 342.8 55.0519C345.279 55.3776 347.061 56.6531 348.077 58.9441C348.791 60.5563 349.464 62.1849 350.143 63.8108C351.556 67.1884 352.96 70.5715 354.364 73.9519C354.41 74.0613 354.446 74.1736 354.484 74.2858C354.142 74.4172 350.392 74.4664 349.103 74.3597C348.602 73.1581 348.093 71.9291 347.576 70.6837C342.578 70.6892 337.596 70.6892 332.549 70.6892ZM334.407 66.203C338.207 66.203 341.918 66.203 345.66 66.203C345.624 66.0798 345.605 65.9923 345.572 65.9101C344.872 64.2295 344.165 62.5517 343.465 60.8711C343.183 60.1923 342.685 59.7571 341.956 59.7215C340.76 59.664 339.561 59.6476 338.365 59.6777C337.435 59.7023 336.849 60.2361 336.515 61.112C336.083 62.2451 335.584 63.3537 335.119 64.4759C334.886 65.0315 334.659 65.5926 334.407 66.203Z"/><path fill="#fff" d="M355.461 55.2354C357.145 55.2354 358.768 55.2354 360.457 55.2354C360.457 55.4516 360.457 55.6432 360.457 55.8375C360.457 59.5299 360.457 63.2251 360.459 66.9175C360.459 67.2514 360.462 67.5881 360.503 67.9193C360.618 68.8636 361.212 69.5698 362.145 69.7668C362.72 69.8873 363.32 69.9338 363.908 69.9338C368.939 69.9475 373.97 69.942 379.001 69.942C379.195 69.942 379.389 69.942 379.611 69.942C379.611 71.431 379.611 72.868 379.611 74.3625C379.469 74.3734 379.324 74.3926 379.179 74.3926C373.844 74.3953 368.509 74.4008 363.172 74.3899C361.716 74.3871 360.295 74.1654 358.973 73.503C357.002 72.5149 355.899 70.8945 355.552 68.7431C355.467 68.2203 355.442 67.6839 355.44 67.1556C355.431 63.34 355.434 59.5245 355.434 55.7089C355.437 55.5611 355.45 55.4133 355.461 55.2354Z"/><path fill="#fff" d="M471.232 74.3651C469.562 74.3651 467.931 74.3651 466.27 74.3651C466.27 67.9903 466.27 61.6429 466.27 55.2544C467.917 55.2544 469.56 55.2544 471.232 55.2544C471.232 61.6155 471.232 67.9629 471.232 74.3651Z"/><path fill="#D7C0DF" d="M357.393 47.1466H355.745V41.7762L352.846 46.8762C352.775 47.0062 352.675 47.1047 352.545 47.1718C352.419 47.2388 352.283 47.2724 352.136 47.2724C351.993 47.2724 351.859 47.2388 351.733 47.1718C351.612 47.1047 351.515 47.0062 351.444 46.8762L348.532 41.7762V47.1466H346.897V38.8268C346.897 38.6382 346.952 38.4705 347.061 38.3237C347.174 38.177 347.321 38.0785 347.501 38.0282C347.589 38.0072 347.677 38.0009 347.765 38.0093C347.853 38.0135 347.937 38.0324 348.017 38.0659C348.101 38.0953 348.176 38.1393 348.243 38.198C348.31 38.2525 348.367 38.3196 348.413 38.3992L352.136 44.8701L355.859 38.3992C355.955 38.2399 356.087 38.1267 356.255 38.0596C356.427 37.9925 356.605 37.9821 356.789 38.0282C356.965 38.0785 357.11 38.177 357.223 38.3237C357.336 38.4705 357.393 38.6382 357.393 38.8268V47.1466Z"/><path fill="#D7C0DF" d="M366.291 47.1466H364.656V38.1288H366.291V47.1466Z"/><path fill="#D7C0DF" d="M382.559 46.4486C382.559 46.566 382.536 46.675 382.49 46.7756C382.448 46.8762 382.389 46.9642 382.314 47.0397C382.242 47.111 382.156 47.1676 382.056 47.2095C381.955 47.2514 381.848 47.2724 381.735 47.2724C381.635 47.2724 381.532 47.2535 381.427 47.2158C381.326 47.178 381.236 47.1173 381.157 47.0334L375.182 40.7952V47.1466H373.547V38.8268C373.547 38.6591 373.594 38.5082 373.686 38.3741C373.782 38.2357 373.904 38.133 374.05 38.0659C374.206 38.003 374.365 37.9884 374.528 38.0219C374.692 38.0512 374.832 38.1267 374.95 38.2483L380.924 44.4803V38.1288H382.559V46.4486Z"/><path fill="#D7C0DF" d="M397.223 43.4615H392.06V41.8139H397.223V43.4615ZM397.959 47.1466H392.06C391.834 47.1466 391.587 47.1068 391.318 47.0271C391.05 46.9475 390.801 46.8175 390.57 46.6372C390.344 46.4528 390.153 46.2159 389.998 45.9266C389.847 45.6332 389.771 45.2747 389.771 44.8513V38.9526C389.771 38.8394 389.792 38.7325 389.834 38.6319C389.876 38.5313 389.933 38.4432 390.004 38.3678C390.08 38.2923 390.168 38.2336 390.268 38.1917C390.369 38.1498 390.478 38.1288 390.595 38.1288H397.959V39.7638H391.406V44.8513C391.406 45.0651 391.463 45.2286 391.576 45.3418C391.689 45.455 391.855 45.5116 392.073 45.5116H397.959V47.1466Z"/><path fill="#D7C0DF" d="M413.517 44.4928C413.517 44.8156 413.475 45.107 413.391 45.3669C413.311 45.6227 413.204 45.8491 413.07 46.0461C412.936 46.2431 412.779 46.4108 412.598 46.5492C412.418 46.6875 412.232 46.8007 412.039 46.8888C411.846 46.9768 411.649 47.0418 411.448 47.0837C411.251 47.1256 411.064 47.1466 410.888 47.1466H404.58V45.5116H410.888C411.202 45.5116 411.446 45.4193 411.617 45.2349C411.793 45.0504 411.882 44.8031 411.882 44.4928C411.882 44.3419 411.858 44.2036 411.812 44.0778C411.766 43.952 411.699 43.843 411.611 43.7508C411.527 43.6585 411.422 43.5873 411.297 43.537C411.175 43.4867 411.039 43.4615 410.888 43.4615H407.127C406.863 43.4615 406.578 43.4154 406.272 43.3232C405.966 43.2267 405.681 43.0737 405.417 42.8641C405.157 42.6545 404.939 42.3799 404.763 42.0403C404.591 41.7007 404.505 41.2857 404.505 40.7952C404.505 40.3046 404.591 39.8917 404.763 39.5563C404.939 39.2167 405.157 38.9421 405.417 38.7325C405.681 38.5187 405.966 38.3657 406.272 38.2734C406.578 38.177 406.863 38.1288 407.127 38.1288H412.693V39.7638H407.127C406.817 39.7638 406.574 39.8582 406.398 40.0468C406.226 40.2355 406.14 40.4849 406.14 40.7952C406.14 41.1096 406.226 41.359 406.398 41.5435C406.574 41.7238 406.817 41.8139 407.127 41.8139H410.9C411.077 41.8181 411.263 41.8432 411.46 41.8894C411.657 41.9313 411.852 41.9984 412.045 42.0906C412.242 42.1828 412.429 42.3002 412.605 42.4428C412.781 42.5811 412.936 42.7488 413.07 42.9458C413.208 43.1429 413.317 43.3693 413.397 43.625C413.477 43.8807 413.517 44.17 413.517 44.4928Z"/><path fill="#D7C0DF" d="M439.154 43.4992C439.154 44.0484 439.06 44.5536 438.871 45.0148C438.682 45.4759 438.42 45.8742 438.085 46.2096C437.75 46.545 437.351 46.807 436.89 46.9957C436.433 47.1801 435.934 47.2724 435.393 47.2724H433.18C432.639 47.2724 432.138 47.1801 431.677 46.9957C431.216 46.807 430.817 46.545 430.482 46.2096C430.147 45.8742 429.883 45.4759 429.69 45.0148C429.501 44.5536 429.407 44.0484 429.407 43.4992V41.7762C429.407 41.2312 429.501 40.7281 429.69 40.2669C429.883 39.8016 430.147 39.4033 430.482 39.0721C430.817 38.7367 431.216 38.4747 431.677 38.286C432.138 38.0974 432.639 38.003 433.18 38.003H435.393C435.934 38.003 436.433 38.0974 436.89 38.286C437.351 38.4747 437.75 38.7367 438.085 39.0721C438.42 39.4033 438.682 39.8016 438.871 40.2669C439.06 40.7281 439.154 41.2312 439.154 41.7762V43.4992ZM437.519 41.7762C437.519 41.4534 437.467 41.162 437.362 40.9021C437.261 40.6379 437.117 40.4136 436.928 40.2292C436.743 40.0405 436.519 39.8959 436.255 39.7953C435.995 39.6905 435.708 39.6381 435.393 39.6381H433.18C432.861 39.6381 432.57 39.6905 432.306 39.7953C432.046 39.8959 431.822 40.0405 431.633 40.2292C431.444 40.4136 431.298 40.6379 431.193 40.9021C431.092 41.162 431.042 41.4534 431.042 41.7762V43.4992C431.042 43.822 431.092 44.1155 431.193 44.3796C431.298 44.6396 431.444 44.8639 431.633 45.0525C431.822 45.237 432.046 45.3816 432.306 45.4864C432.57 45.587 432.861 45.6373 433.18 45.6373H435.381C435.7 45.6373 435.989 45.587 436.249 45.4864C436.513 45.3816 436.739 45.237 436.928 45.0525C437.117 44.8639 437.261 44.6396 437.362 44.3796C437.467 44.1155 437.519 43.822 437.519 43.4992V41.7762Z"/><path fill="#D7C0DF" d="M453.573 43.4615H448.404V41.8139H453.573V43.4615ZM454.303 39.7638H447.75V47.1466H446.115V38.9526C446.115 38.8394 446.136 38.7325 446.178 38.6319C446.22 38.5313 446.276 38.4432 446.348 38.3678C446.423 38.2923 446.511 38.2336 446.612 38.1917C446.712 38.1498 446.821 38.1288 446.939 38.1288H454.303V39.7638Z"/><path fill="#39253F" d="M-23.2988 139.375L-53.5411 113.293C-53.8325 113.042 -54 112.676 -54 112.292V-49.2622C-54 -49.9906 -53.4113 -50.5819 -52.683 -50.5851L1169.67 -55.9941C1170.4 -55.9974 1171 -55.4041 1171 -54.6712V70.6732V73.2542C1171 74.544 1169.34 75.0713 1168.6 74.0185L1145.35 41.1782C1145.11 40.8385 1144.72 40.6318 1144.31 40.6201L1125.12 40.081C1124.84 40.0729 1124.55 40.1586 1124.32 40.3251L1072.14 77.4127L1033.04 297.487H1029.65C1029.03 297.487 1028.5 297.058 1028.36 296.455L976.653 67.1202C976.575 66.7746 976.362 66.4747 976.061 66.2877L915.664 28.7341L860.927 -20.1184C860.423 -20.5678 859.662 -20.5661 859.16 -20.1145L800.734 32.498C800.566 32.649 800.44 32.8404 800.367 33.054L782.959 84.0823H778.829C778.248 84.0823 777.735 83.7032 777.565 83.1478L764.299 39.959C764.158 39.4989 763.778 39.1519 763.307 39.0528L680.893 21.7193C680.374 21.61 679.97 21.2007 679.868 20.6797L676.543 3.75109C676.457 3.31746 676.161 2.955 675.753 2.78498L631.069 -15.8399C630.691 -15.9978 630.26 -15.971 629.904 -15.7674L581.347 11.9823C581.175 12.0807 580.983 12.1391 580.786 12.1533L550.359 14.3372C549.746 14.3812 549.244 14.8413 549.147 15.448L536.858 92.3829C536.755 93.0249 536.201 93.4972 535.551 93.4972H530.689L503.252 -12.0638L486.793 -9.02607C486.571 -8.98502 486.342 -9.00168 486.128 -9.07446L459.253 -18.2074C458.999 -18.294 458.723 -18.3008 458.464 -18.2268L384.371 2.94225C384.11 3.01699 383.831 3.00925 383.574 2.9201L373.478 -0.58152C372.882 -0.78825 372.223 -0.545315 371.904 -0.001194L354.668 29.3705C354.331 29.9452 353.619 30.1794 353.006 29.9169L350.246 28.7341L330.323 -6.53106C330.178 -6.78851 329.951 -6.98982 329.677 -7.10284L305.078 -17.277L275.797 2.92204C275.668 3.01135 275.555 3.12305 275.465 3.25188L256.679 30.0655C256.536 30.2685 256.34 30.4275 256.112 30.5243L201.511 53.6777C201.395 53.7269 201.272 53.7593 201.147 53.7739L177.414 56.5353C177.046 56.5782 176.712 56.7737 176.495 57.0742L158.377 82.1303C158.185 82.3965 157.9 82.5816 157.579 82.6495L130.649 88.3405C130.108 88.4547 129.696 88.8927 129.614 89.4391L122.262 138.589C122.165 139.236 121.609 139.716 120.954 139.716H117.246L97.3443 98.2865C97.1879 97.9609 96.9051 97.7134 96.5616 97.6015L90.5298 95.6369L19.7928 126.718C19.3728 126.903 19.0784 127.291 19.0148 127.746L-2.87525 284.01C-2.98661 284.805 -3.77464 285.318 -4.54685 285.099L-7.13729 284.363L-22.8477 140.234C-22.884 139.901 -23.0452 139.594 -23.2988 139.375Z" opacity=".8"/><path fill="#03010D" d="M-23.1015 141.256L-53.7705 114.806C-53.9162 114.68 -54 114.497 -54 114.305V-48.2103C-54 -48.5745 -53.7056 -48.8702 -53.3415 -48.8718L1170.34 -54.2866C1170.7 -54.2882 1171 -53.9916 1171 -53.6252V70.1996C1171 70.854 1170.15 71.1111 1169.79 70.5666L1147.98 37.8715C1147.86 37.6875 1147.65 37.577 1147.43 37.577H1121.29C1121.15 37.577 1121.01 37.6215 1120.9 37.704L1073.55 72.2269C1073.41 72.3275 1073.32 72.4775 1073.29 72.6456L1033.63 295.886C1033.5 296.6 1032.48 296.619 1032.33 295.91L982.302 64.1343C982.26 63.9385 982.131 63.7724 981.952 63.6826L915.742 30.4839C915.69 30.4578 915.642 30.4249 915.598 30.3861L860.484 -18.8028C860.232 -19.0275 859.852 -19.0267 859.601 -18.8009L800.606 34.3236C800.522 34.3991 800.459 34.4948 800.422 34.6016L783.607 83.8927C783.401 84.4966 782.544 84.4876 782.351 83.8796L767.747 37.9446C767.675 37.7175 767.486 37.5467 767.253 37.4977L686.548 20.5389C686.313 20.4896 686.124 20.3172 686.053 20.0883L680.132 1.0817C680.072 0.887104 679.925 0.731319 679.734 0.659447L627.335 -19.0874C627.149 -19.1572 626.943 -19.1404 626.771 -19.0417L578.12 8.97178C578.034 9.02132 577.938 9.05085 577.839 9.0582L543.916 11.5757C543.608 11.5985 543.357 11.831 543.311 12.136L531.173 92.0231C531.065 92.7342 530.06 92.7863 529.879 92.0902L502.807 -12.0649C502.723 -12.3902 502.408 -12.6004 502.075 -12.5535L486.604 -10.3745C486.505 -10.3606 486.405 -10.3692 486.31 -10.3996L459.047 -19.1384C458.926 -19.1771 458.797 -19.1803 458.674 -19.1477L384.132 0.729805C384.025 0.758369 383.913 0.759552 383.805 0.733246L370.429 -2.53421C370.147 -2.60318 369.853 -2.47979 369.704 -2.2301L350.829 29.4649C350.569 29.9013 349.935 29.8941 349.685 29.4518L330.211 -5.01928C330.139 -5.14801 330.025 -5.24866 329.888 -5.30517L302.844 -16.4905C302.634 -16.5773 302.395 -16.5503 302.209 -16.4191L272.378 4.70329C272.318 4.74582 272.265 4.79808 272.222 4.85791L254.001 30.2929C253.93 30.3921 253.833 30.4696 253.721 30.5171L199.229 53.5189C199.174 53.5421 199.116 53.5577 199.057 53.5654L175.324 56.6575C175.153 56.6797 174.998 56.7675 174.891 56.9023L155.057 81.8996C154.963 82.0188 154.83 82.1017 154.682 82.1344L126.877 88.2648C126.615 88.3227 126.413 88.5332 126.368 88.7978L117.599 139.39C117.489 140.024 116.63 140.143 116.351 139.563L97.2218 99.7421C97.1436 99.5792 97.0022 99.4555 96.8305 99.3995L84.2054 95.2874C84.0478 95.2361 83.8766 95.2458 83.7259 95.3146L15.5292 126.44C15.3236 126.534 15.1802 126.726 15.1488 126.95L-6.40039 280.812C-6.50843 281.583 -7.62859 281.566 -7.71299 280.792L-22.8759 141.685C-22.8941 141.519 -22.9747 141.365 -23.1015 141.256Z" opacity=".8"/><path fill="#443049" d="M715.259 -24.9121H720.227C720.227 0.481106 711.568 51.2675 676.933 51.2675C642.298 51.2675 626.541 0.481106 622.993 -24.9121H626.541C632.929 -2.53591 651.95 42.1411 676.933 41.8394C701.916 41.5377 712.893 -2.78733 715.259 -24.9121Z"/><path fill="#03010D" d="M676.933 47.1191C644.001 47.1191 627.251 -0.901693 622.993 -24.9121H626.541C632.929 -2.53591 651.95 42.1411 676.933 41.8394C701.916 41.5377 712.893 -2.78733 715.259 -24.9121H720.227C719.517 -0.901693 709.865 47.1191 676.933 47.1191Z"/><path fill="#443049" d="M726.944 -15.7896H733.242C733.242 16.4018 722.265 80.7846 678.357 80.7846C634.45 80.7846 614.475 16.4018 609.977 -15.7896H614.475C622.573 12.5771 646.686 69.2149 678.357 68.8324C710.029 68.4499 723.945 12.2584 726.944 -15.7896Z"/><path fill="#03010D" d="M678.357 75.5256C636.609 75.5256 615.375 14.6488 609.977 -15.7896H614.475C622.573 12.5771 646.686 69.2149 678.357 68.8324C710.029 68.4499 723.945 12.2584 726.944 -15.7896H733.242C732.342 14.6488 720.106 75.5256 678.357 75.5256Z"/><path fill="#443049" d="M312.495 -22.9277H315.174C315.174 -3.73303 310.504 34.6564 291.823 34.6564C273.142 34.6564 264.643 -3.73303 262.729 -22.9277H264.643C268.088 -6.01359 278.348 27.7577 291.823 27.5296C305.298 27.3016 311.219 -6.20363 312.495 -22.9277Z"/><path fill="#03010D" d="M291.823 31.5206C274.06 31.5206 265.026 -4.77828 262.729 -22.9277H264.643C268.088 -6.01359 278.348 27.7577 291.823 27.5296C305.298 27.3016 311.219 -6.20363 312.495 -22.9277H315.174C314.792 -4.77828 309.585 31.5206 291.823 31.5206Z"/><path fill="#443049" d="M270.238 -38.1321H276.127C276.127 4.19569 265.863 88.8512 224.804 88.8512C183.745 88.8512 165.066 4.19569 160.86 -38.1321H165.066C172.639 -0.833355 195.187 73.6384 224.804 73.1355C254.42 72.6326 267.433 -1.25244 270.238 -38.1321Z"/><path fill="#03010D" d="M224.804 81.9363C185.764 81.9363 165.908 1.89072 160.86 -38.1321H165.066C172.639 -0.833347 195.187 73.6384 224.804 73.1355C254.42 72.6326 267.433 -1.25243 270.238 -38.1321H276.127C275.286 1.89072 263.843 81.9363 224.804 81.9363Z"/></g><defs><filter id="filter0_f_723_darbg" width="8" height="8" x="320" y="18" color-interpolation-filters="sRGB" filterUnits="userSpaceOnUse"><feFlood flood-opacity="0" result="BackgroundImageFix"/><feBlend in="SourceGraphic" in2="BackgroundImageFix" mode="normal" result="shape"/><feGaussianBlur result="effect1_foregroundBlur_723_darbg" stdDeviation="1"/></filter><filter id="filter1_f_723_darbg" width="8" height="8" x="221" y="54" color-interpolation-filters="sRGB" filterUnits="userSpaceOnUse"><feFlood flood-opacity="0" result="BackgroundImageFix"/><feBlend in="SourceGraphic" in2="BackgroundImageFix" mode="normal" result="shape"/><feGaussianBlur result="effect1_foregroundBlur_723_darbg" stdDeviation="1"/></filter><filter id="filter2_f_723_darbg" width="8" height="8" x="563" y="61" color-interpolation-filters="sRGB" filterUnits="userSpaceOnUse"><feFlood flood-opacity="0" result="BackgroundImageFix"/><feBlend in="SourceGraphic" in2="BackgroundImageFix" mode="normal" result="shape"/><feGaussianBlur result="effect1_foregroundBlur_723_darbg" stdDeviation="1"/></filter><filter id="filter3_f_723_darbg" width="8" height="8" x="604" y="80" color-interpolation-filters="sRGB" filterUnits="userSpaceOnUse"><feFlood flood-opacity="0" result="BackgroundImageFix"/><feBlend in="SourceGraphic" in2="BackgroundImageFix" mode="normal" result="shape"/><feGaussianBlur result="effect1_foregroundBlur_723_darbg" stdDeviation="1"/></filter><filter id="filter4_f_723_darbg" width="8" height="8" x="492" y="16" color-interpolation-filters="sRGB" filterUnits="userSpaceOnUse"><feFlood flood-opacity="0" result="BackgroundImageFix"/><feBlend in="SourceGraphic" in2="BackgroundImageFix" mode="normal" result="shape"/><feGaussianBlur result="effect1_foregroundBlur_723_darbg" stdDeviation="1"/></filter><filter id="filter5_f_723_darbg" width="6" height="6" x="190" y="101" color-interpolation-filters="sRGB" filterUnits="userSpaceOnUse"><feFlood flood-opacity="0" result="BackgroundImageFix"/><feBlend in="SourceGraphic" in2="BackgroundImageFix" mode="normal" result="shape"/><feGaussianBlur result="effect1_foregroundBlur_723_darbg" stdDeviation="1"/></filter><filter id="filter6_f_723_darbg" width="6" height="6" x="557" y="98" color-interpolation-filters="sRGB" filterUnits="userSpaceOnUse"><feFlood flood-opacity="0" result="BackgroundImageFix"/><feBlend in="SourceGraphic" in2="BackgroundImageFix" mode="normal" result="shape"/><feGaussianBlur result="effect1_foregroundBlur_723_darbg" stdDeviation="1"/></filter><filter id="filter7_f_723_darbg" width="6" height="6" x="567" y="21" color-interpolation-filters="sRGB" filterUnits="userSpaceOnUse"><feFlood flood-opacity="0" result="BackgroundImageFix"/><feBlend in="SourceGraphic" in2="BackgroundImageFix" mode="normal" result="shape"/><feGaussianBlur result="effect1_foregroundBlur_723_darbg" stdDeviation="1"/></filter><filter id="filter8_f_723_darbg" width="6" height="6" x="654" y="80" color-interpolation-filters="sRGB" filterUnits="userSpaceOnUse"><feFlood flood-opacity="0" result="BackgroundImageFix"/><feBlend in="SourceGraphic" in2="BackgroundImageFix" mode="normal" result="shape"/><feGaussianBlur result="effect1_foregroundBlur_723_darbg" stdDeviation="1"/></filter><filter id="filter9_f_723_darbg" width="6" height="6" x="740" y="57" color-interpolation-filters="sRGB" filterUnits="userSpaceOnUse"><feFlood flood-opacity="0" result="BackgroundImageFix"/><feBlend in="SourceGraphic" in2="BackgroundImageFix" mode="normal" result="shape"/><feGaussianBlur result="effect1_foregroundBlur_723_darbg" stdDeviation="1"/></filter><filter id="filter10_f_723_darbg" width="6" height="6" x="769" y="94" color-interpolation-filters="sRGB" filterUnits="userSpaceOnUse"><feFlood flood-opacity="0" result="BackgroundImageFix"/><feBlend in="SourceGraphic" in2="BackgroundImageFix" mode="normal" result="shape"/><feGaussianBlur result="effect1_foregroundBlur_723_darbg" stdDeviation="1"/></filter><filter id="filter11_f_723_darbg" width="6" height="6" x="516" y="108" color-interpolation-filters="sRGB" filterUnits="userSpaceOnUse"><feFlood flood-opacity="0" result="BackgroundImageFix"/><feBlend in="SourceGraphic" in2="BackgroundImageFix" mode="normal" result="shape"/><feGaussianBlur result="effect1_foregroundBlur_723_darbg" stdDeviation="1"/></filter><filter id="filter12_f_723_darbg" width="6" height="6" x="281" y="39" color-interpolation-filters="sRGB" filterUnits="userSpaceOnUse"><feFlood flood-opacity="0" result="BackgroundImageFix"/><feBlend in="SourceGraphic" in2="BackgroundImageFix" mode="normal" result="shape"/><feGaussianBlur result="effect1_foregroundBlur_723_darbg" stdDeviation="1"/></filter><filter id="filter13_f_723_darbg" width="6" height="6" x="613" y="59" color-interpolation-filters="sRGB" filterUnits="userSpaceOnUse"><feFlood flood-opacity="0" result="BackgroundImageFix"/><feBlend in="SourceGraphic" in2="BackgroundImageFix" mode="normal" result="shape"/><feGaussianBlur result="effect1_foregroundBlur_723_darbg" stdDeviation="1"/></filter><filter id="filter14_f_723_darbg" width="6" height="6" x="302" y="3" color-interpolation-filters="sRGB" filterUnits="userSpaceOnUse"><feFlood flood-opacity="0" result="BackgroundImageFix"/><feBlend in="SourceGraphic" in2="BackgroundImageFix" mode="normal" result="shape"/><feGaussianBlur result="effect1_foregroundBlur_723_darbg" stdDeviation="1"/></filter><filter id="filter15_f_723_darbg" width="6" height="6" x="252" y="86" color-interpolation-filters="sRGB" filterUnits="userSpaceOnUse"><feFlood flood-opacity="0" result="BackgroundImageFix"/><feBlend in="SourceGraphic" in2="BackgroundImageFix" mode="normal" result="shape"/><feGaussianBlur result="effect1_foregroundBlur_723_darbg" stdDeviation="1"/></filter><filter id="filter16_f_723_darbg" width="6" height="6" x="159" y="90" color-interpolation-filters="sRGB" filterUnits="userSpaceOnUse"><feFlood flood-opacity="0" result="BackgroundImageFix"/><feBlend in="SourceGraphic" in2="BackgroundImageFix" mode="normal" result="shape"/><feGaussianBlur result="effect1_foregroundBlur_723_darbg" stdDeviation="1"/></filter><filter id="filter17_f_723_darbg" width="6" height="6" x="312" y="100" color-interpolation-filters="sRGB" filterUnits="userSpaceOnUse"><feFlood flood-opacity="0" result="BackgroundImageFix"/><feBlend in="SourceGraphic" in2="BackgroundImageFix" mode="normal" result="shape"/><feGaussianBlur result="effect1_foregroundBlur_723_darbg" stdDeviation="1"/></filter><filter id="filter18_f_723_darbg" width="6" height="6" x="377" y="98" color-interpolation-filters="sRGB" filterUnits="userSpaceOnUse"><feFlood flood-opacity="0" result="BackgroundImageFix"/><feBlend in="SourceGraphic" in2="BackgroundImageFix" mode="normal" result="shape"/><feGaussianBlur result="effect1_foregroundBlur_723_darbg" stdDeviation="1"/></filter><filter id="filter19_f_723_darbg" width="6" height="6" x="397" y="92" color-interpolation-filters="sRGB" filterUnits="userSpaceOnUse"><feFlood flood-opacity="0" result="BackgroundImageFix"/><feBlend in="SourceGraphic" in2="BackgroundImageFix" mode="normal" result="shape"/><feGaussianBlur result="effect1_foregroundBlur_723_darbg" stdDeviation="1"/></filter><filter id="filter20_f_723_darbg" width="6" height="6" x="665" y="8" color-interpolation-filters="sRGB" filterUnits="userSpaceOnUse"><feFlood flood-opacity="0" result="BackgroundImageFix"/><feBlend in="SourceGraphic" in2="BackgroundImageFix" mode="normal" result="shape"/><feGaussianBlur result="effect1_foregroundBlur_723_darbg" stdDeviation="1"/></filter><filter id="filter21_f_723_darbg" width="10" height="10" x="713" y="86" color-interpolation-filters="sRGB" filterUnits="userSpaceOnUse"><feFlood flood-opacity="0" result="BackgroundImageFix"/><feBlend in="SourceGraphic" in2="BackgroundImageFix" mode="normal" result="shape"/><feGaussianBlur result="effect1_foregroundBlur_723_darbg" stdDeviation="1"/></filter><filter id="filter22_f_723_darbg" width="8" height="8" x="421" y="-2" color-interpolation-filters="sRGB" filterUnits="userSpaceOnUse"><feFlood flood-opacity="0" result="BackgroundImageFix"/><feBlend in="SourceGraphic" in2="BackgroundImageFix" mode="normal" result="shape"/><feGaussianBlur result="effect1_foregroundBlur_723_darbg" stdDeviation="1"/></filter><linearGradient id="paint0_linear_723_darbg" x1="400.499" x2="399.999" y1="16.5" y2="112" gradientUnits="userSpaceOnUse"><stop stop-color="#3CC47C"/><stop offset="1" stop-color="#3CC47C" stop-opacity="0"/></linearGradient><clipPath id="clip0_723_darbg"><rect width="800" height="112" fill="#fff"/></clipPath></defs></svg>