<svg width="490" height="112" viewBox="0 0 490 112" fill="none" xmlns="http://www.w3.org/2000/svg">
<g clip-path="url(#clip0)">
<rect width="490" height="112" fill="url(#paint0_linear)"/>
<path d="M207.138 36.11C209.006 36.11 210.521 34.5954 210.521 32.7271C210.521 30.8587 209.006 29.3441 207.138 29.3441C205.27 29.3441 203.755 30.8587 203.755 32.7271C203.755 34.5954 205.27 36.11 207.138 36.11Z" fill="black"/>
<path d="M278.123 35.5506C279.991 35.5506 281.506 34.036 281.506 32.1676C281.506 30.2993 279.991 28.7847 278.123 28.7847C276.254 28.7847 274.74 30.2993 274.74 32.1676C274.74 34.036 276.254 35.5506 278.123 35.5506Z" fill="black"/>
<path fill-rule="evenodd" clip-rule="evenodd" d="M167.4 55.9467C167.4 55.9467 159.678 64.1401 176.39 72.6281C176.39 72.6281 206.644 87.207 247.12 85.8848C294.46 84.3381 316.506 69.5774 321.319 65.0056C327.269 59.3531 325.098 49.6095 308.225 52.8168C288.659 56.5359 277.095 59.4634 247.68 60.4579C223.443 61.2769 196.172 59.6605 184.486 56.7201C169.191 52.872 167.4 55.9467 167.4 55.9467Z" fill="#B32C43"/>
<path fill-rule="evenodd" clip-rule="evenodd" d="M174.156 73.8242C174.156 73.8242 200.158 67.4354 242.238 67.104C284.317 66.7726 313.228 71.5229 313.228 71.5229C313.228 71.5229 283.981 86.9436 244.271 86.9153C194.94 86.8802 174.156 73.8242 174.156 73.8242Z" fill="#F06C75"/>
<path fill-rule="evenodd" clip-rule="evenodd" d="M166.014 54.8382C166.179 54.5543 166.783 53.7755 168.605 53.3017C170.687 52.76 175.222 52.4851 184.851 54.9079C196.458 57.8279 223.543 59.413 247.614 58.5994C276.914 57.6089 288.433 54.6895 307.923 50.9848C317.308 49.2007 322.541 51.4102 324.664 54.4602C327.071 57.9189 326.168 62.845 322.415 66.4109C317.532 71.0503 295.194 86.1733 247.157 87.7428C206.261 89.0788 175.696 74.3299 175.665 74.3149C166.357 69.5877 164.1 64.6716 163.923 61.2081C163.755 57.9141 165.43 55.5545 166.014 54.8382ZM167.387 55.9465C167.387 55.9465 159.665 64.1399 176.377 72.6279C176.377 72.6279 206.631 87.2068 247.107 85.8846C294.447 84.3379 316.493 69.5772 321.306 65.0054C327.256 59.3529 325.085 49.6093 308.212 52.8165C288.646 56.5357 277.081 59.4632 247.667 60.4577C223.43 61.2767 196.159 59.6603 184.472 56.7199C169.178 52.8718 167.387 55.9465 167.387 55.9465Z" fill="black"/>
<path fill-rule="evenodd" clip-rule="evenodd" d="M292.734 55.6979C292.734 55.6979 308.012 52.2999 315.585 55.4248C326.281 59.8377 316.813 68.7458 316.813 68.7458C316.813 68.7458 324.298 64.5029 325.071 59.6517C325.071 59.6517 326.665 50.9951 312.584 51.5527C304.839 51.8598 292.734 55.6979 292.734 55.6979Z" fill="black"/>
</g>
<defs>
<linearGradient id="paint0_linear" x1="245" y1="0" x2="245" y2="112" gradientUnits="userSpaceOnUse">
<stop stop-color="#ED7BC0"/>
<stop offset="1" stop-color="#CF509E"/>
</linearGradient>
<clipPath id="clip0">
<rect width="490" height="112" fill="white"/>
</clipPath>
</defs>
</svg>
