<svg xmlns="http://www.w3.org/2000/svg" xmlns:v="https://vecta.io/nano" width="96" height="96" fill="none"><path fill="#ee7cc1" d="M48.483 95.572C74.726 95.572 96 74.229 96 47.9S74.726.228 48.483.228.965 21.572.965 47.9 22.24 95.572 48.483 95.572z"/><g fill="#000"><path fill-rule="evenodd" d="M47.844.656C21.782.656.654 21.853.654 48s21.128 47.344 47.19 47.344S95.035 74.147 95.035 48 73.907.656 47.844.656zM0 48C0 21.49 21.421 0 47.844 0s47.844 21.49 47.844 48-21.421 48-47.844 48S0 74.51 0 48z"/><path d="M31.386 38.023a1.921 1.921 0 1 0 0-3.842 1.921 1.921 0 1 0 0 3.842zm33.19 0a1.921 1.921 0 1 0 0-3.842 1.921 1.921 0 1 0 0 3.842z"/></g><g fill-rule="evenodd"><path fill="#b32c43" d="M16.191 47.015s-3.233 3.137 3.764 6.386c0 0 12.666 5.581 29.612 5.075 19.82-.592 29.05-6.243 31.065-7.993 2.491-2.164 1.582-5.894-5.482-4.666-8.192 1.424-13.034 2.544-25.349 2.925-10.147.314-21.565-.305-26.457-1.431-6.404-1.473-7.153-.296-7.153-.296z"/><path fill="#f06c75" d="M19.023 53.851s10.886-2.446 28.503-2.573 29.722 1.692 29.722 1.692-12.245 5.903-28.871 5.893c-20.653-.014-29.355-5.012-29.355-5.012z"/><g fill="#000"><path d="M15.616 46.611c.069-.109.322-.407 1.085-.588.872-.207 2.77-.313 6.802.615 4.859 1.118 16.199 1.725 26.277 1.413 12.267-.379 17.089-1.497 25.249-2.915 3.929-.683 6.12.163 7.009 1.33 1.008 1.324.63 3.21-.942 4.575-2.045 1.776-11.397 7.565-31.508 8.166-17.122.511-29.919-5.135-29.931-5.14-3.897-1.81-4.842-3.692-4.916-5.017-.07-1.261.631-2.164.875-2.439zm.575.424s-3.233 3.137 3.764 6.386c0 0 12.666 5.581 29.612 5.075 19.82-.592 29.05-6.243 31.065-7.993 2.491-2.164 1.582-5.894-5.482-4.666-8.192 1.424-13.033 2.545-25.349 2.925-10.147.314-21.565-.305-26.457-1.431-6.403-1.473-7.153-.296-7.153-.296z"/><path d="M68.68 46.943s6.397-1.301 9.567-.105c4.478 1.689.514 5.099.514 5.099s3.134-1.624 3.457-3.481c0 0 .667-3.314-5.228-3.1-3.243.117-8.311 1.587-8.311 1.587z"/></g><path fill="#ffd6f1" d="M76.227 39.129c1.76-.36 3.301-.101 3.439.579s-1.178 1.525-2.938 1.885-3.301.101-3.439-.579 1.178-1.525 2.938-1.885zM26.097 7.455c-12.454 6.267-18.22 17.271-6.805 15.976 2.5-.284 4.569-5.037 11.018-8.483 4.718-2.521 12.901-4.293 12.464-7.912-.285-2.362-2.286-3.306-7.303-2.802-4.007.403-9.375 3.222-9.375 3.222z"/></g></svg>