<?xml version="1.0" encoding="UTF-8"?>
<svg width="1048px" height="150px" viewBox="0 0 1048 150" version="1.1" xmlns="http://www.w3.org/2000/svg" xmlns:xlink="http://www.w3.org/1999/xlink">
    <title>GFX-EpicBuy</title>
    <defs>
        <linearGradient x1="100%" y1="50.9491738%" x2="2.06246634%" y2="49.0724637%" id="linearGradient-1">
            <stop stop-color="#3B3B3B" offset="0%"></stop>
            <stop stop-color="#161616" offset="100%"></stop>
        </linearGradient>
        <linearGradient x1="0%" y1="50%" x2="97.5272%" y2="50%" id="linearGradient-2">
            <stop stop-color="#950E9D" offset="0.810811%"></stop>
            <stop stop-color="#047198" offset="100%"></stop>
        </linearGradient>
        <linearGradient x1="10.1463054%" y1="48.5909108%" x2="91.5223825%" y2="54.5592543%" id="linearGradient-3">
            <stop stop-color="#050000" offset="0%"></stop>
            <stop stop-color="#360505" offset="100%"></stop>
        </linearGradient>
        <linearGradient x1="0.108945909%" y1="49.9633387%" x2="99.0996744%" y2="49.9633387%" id="linearGradient-4">
            <stop stop-color="#520404" offset="0%"></stop>
            <stop stop-color="#710221" stop-opacity="0.504862325" offset="100%"></stop>
        </linearGradient>
        <linearGradient x1="33.5562562%" y1="22.1602381%" x2="92.3036351%" y2="117.63501%" id="linearGradient-5">
            <stop stop-color="#F9B68B" offset="0%"></stop>
            <stop stop-color="#CD3661" offset="99.19%"></stop>
        </linearGradient>
        <linearGradient x1="0.108945909%" y1="49.9633387%" x2="99.0996744%" y2="49.9633387%" id="linearGradient-6">
            <stop stop-color="#520404" offset="0%"></stop>
            <stop stop-color="#710221" stop-opacity="0.504862325" offset="100%"></stop>
        </linearGradient>
        <linearGradient x1="0.108945909%" y1="49.9633387%" x2="99.0996744%" y2="49.9633387%" id="linearGradient-7">
            <stop stop-color="#520404" offset="0%"></stop>
            <stop stop-color="#710221" stop-opacity="0.504862325" offset="100%"></stop>
        </linearGradient>
        <linearGradient x1="0.108945909%" y1="49.9633387%" x2="99.0996744%" y2="49.9633387%" id="linearGradient-8">
            <stop stop-color="#520404" offset="0%"></stop>
            <stop stop-color="#710221" stop-opacity="0.504862325" offset="100%"></stop>
        </linearGradient>
        <linearGradient x1="0.108945909%" y1="49.9633387%" x2="99.0996744%" y2="49.9633387%" id="linearGradient-9">
            <stop stop-color="#520404" offset="0%"></stop>
            <stop stop-color="#710221" stop-opacity="0.504862325" offset="100%"></stop>
        </linearGradient>
        <linearGradient x1="-0.451011221%" y1="48.8944899%" x2="97.1182512%" y2="48.8944899%" id="linearGradient-10">
            <stop stop-color="#FCFED9" offset="0%"></stop>
            <stop stop-color="#366E6E" offset="53.24%"></stop>
            <stop stop-color="#49146E" offset="99.19%"></stop>
        </linearGradient>
        <linearGradient x1="0.108945909%" y1="49.9633387%" x2="99.0996744%" y2="49.9633387%" id="linearGradient-11">
            <stop stop-color="#520404" offset="0%"></stop>
            <stop stop-color="#710221" stop-opacity="0.504862325" offset="100%"></stop>
        </linearGradient>
        <linearGradient x1="0.108945909%" y1="49.9633387%" x2="99.0996744%" y2="49.9633387%" id="linearGradient-12">
            <stop stop-color="#520404" offset="0%"></stop>
            <stop stop-color="#710221" stop-opacity="0.504862325" offset="100%"></stop>
        </linearGradient>
        <linearGradient x1="0.108945909%" y1="49.9633387%" x2="99.0996744%" y2="49.9633387%" id="linearGradient-13">
            <stop stop-color="#520404" offset="0%"></stop>
            <stop stop-color="#710221" stop-opacity="0.504862325" offset="100%"></stop>
        </linearGradient>
        <linearGradient x1="0.108945909%" y1="49.9633387%" x2="99.0996744%" y2="49.9633387%" id="linearGradient-14">
            <stop stop-color="#520404" offset="0%"></stop>
            <stop stop-color="#710221" stop-opacity="0.504862325" offset="100%"></stop>
        </linearGradient>
        <linearGradient x1="0.108945909%" y1="49.9633387%" x2="99.0996744%" y2="49.9633387%" id="linearGradient-15">
            <stop stop-color="#520404" offset="0%"></stop>
            <stop stop-color="#710221" stop-opacity="0.504862325" offset="100%"></stop>
        </linearGradient>
        <linearGradient x1="79.2013378%" y1="7.7897671%" x2="28.2538431%" y2="96.5426811%" id="linearGradient-16">
            <stop stop-color="#EB3333" offset="0%"></stop>
            <stop stop-color="#6A0101" offset="100%"></stop>
        </linearGradient>
        <ellipse id="path-17" cx="49.22913" cy="49.1737589" rx="47.8374938" ry="47.7836879"></ellipse>
        <filter x="-3.1%" y="-3.1%" width="106.3%" height="106.3%" filterUnits="objectBoundingBox" id="filter-18">
            <feOffset dx="0" dy="0" in="SourceAlpha" result="shadowOffsetOuter1"></feOffset>
            <feMorphology radius="4.17845484" operator="erode" in="SourceAlpha" result="shadowInner"></feMorphology>
            <feOffset dx="0" dy="0" in="shadowInner" result="shadowInner"></feOffset>
            <feComposite in="shadowOffsetOuter1" in2="shadowInner" operator="out" result="shadowOffsetOuter1"></feComposite>
            <feGaussianBlur stdDeviation="1" in="shadowOffsetOuter1" result="shadowBlurOuter1"></feGaussianBlur>
            <feColorMatrix values="0 0 0 0 0   0 0 0 0 0   0 0 0 0 0  0 0 0 0.5 0" type="matrix" in="shadowBlurOuter1"></feColorMatrix>
        </filter>
    </defs>
    <g id="GFX-EpicBuy" stroke="none" stroke-width="1" fill="none" fill-rule="evenodd">
        <rect fill="#1A1B1B" x="0" y="0" width="1048" height="150"></rect>
        <rect id="Rectangle" fill="url(#linearGradient-1)" x="0" y="0" width="1048" height="150"></rect>
        <g id="vectorstock_21055208" transform="translate(-56.000000, -333.000000)" fill-rule="nonzero">
            <g id="Group">
                <rect id="Rectangle" fill="url(#linearGradient-2)" x="0" y="0" width="1161" height="774"></rect>
                <rect id="Rectangle" fill="url(#linearGradient-3)" x="0" y="0" width="1161" height="774"></rect>
            </g>
            <g id="Group" opacity="0.38">
                <g transform="translate(1075.616165, 271.817165)" fill="#E57975" id="Path">
                    <path d="M12.0473351,73.1933351 C11.4668351,73.1933351 11.0798351,72.8063351 11.0798351,72.2258351 C9.14483508,48.4253351 5.27483508,24.4313351 0.0503350754,1.21133508 C-0.143164925,0.630835075 0.243835075,0.243835075 0.824335075,0.0503350754 C1.40483508,-0.143164925 1.79183508,0.243835075 1.98533508,0.824335075 C7.40333508,24.2378351 11.0798351,48.2318351 13.2083351,72.2258351 C13.0148351,72.6128351 12.6278351,72.9998351 12.0473351,73.1933351 C12.0473351,73.1933351 12.0473351,73.1933351 12.0473351,73.1933351 Z"></path>
                </g>
                <g transform="translate(124.807500, 300.118500)" fill="#E57975" id="Path">
                    <path d="M39.861,271.674 C39.474,271.674 39.087,271.4805 38.8935,271.0935 C13.158,212.85 0,150.93 0,86.8815 C0,57.8565 2.709,28.8315 8.127,0.774 C8.3205,0.1935 8.7075,-5.49960077e-14 9.288,-5.49960077e-14 C9.8685,0.1935 10.062,0.5805 10.062,1.161 C4.644,29.2185 1.935,58.05 1.935,86.8815 C1.935,150.7365 14.8995,212.463 40.635,270.3195 C40.8285,270.9 40.635,271.287 40.0545,271.674 C40.0545,271.674 39.861,271.674 39.861,271.674 Z"></path>
                </g>
                <g transform="translate(995.291438, 271.817165)" fill="#E57975" id="Path">
                    <path d="M1.0400625,299.975335 C0.8465625,299.975335 0.8465625,299.975335 0.6530625,299.975335 C0.0725625,299.781835 -0.1209375,299.201335 0.0725625,298.620835 C25.8080625,240.764335 38.7725625,179.037835 38.7725625,115.182835 C38.7725625,76.6763351 33.9350625,38.1698351 24.2600625,1.21133508 C24.0665625,0.630835075 24.4535625,0.243835075 25.0340625,0.0503350754 C25.6145625,-0.143164925 26.0015625,0.243835075 26.1950625,0.824335075 C35.8700625,37.9763351 40.7075625,76.4828351 40.7075625,115.182835 C40.7075625,179.231335 27.5495625,241.151335 1.8140625,299.394835 C1.8140625,299.781835 1.4270625,299.975335 1.0400625,299.975335 Z"></path>
                </g>
                <g transform="translate(735.227437, 16.955438)" fill="#E57975" id="Path">
                    <path d="M245.817562,371.012062 C245.237062,371.012062 244.850062,370.625062 244.850062,370.044562 C244.850062,209.246062 149.067562,64.7015625 0.6530625,2.0075625 C0.0725625,1.8140625 -0.1209375,1.2335625 0.0725625,0.6530625 C0.2660625,0.0725625 0.8465625,-0.1209375 1.4270625,0.0725625 C150.422062,63.1535625 246.785062,208.472062 246.785062,370.044562 C246.785062,370.625062 246.398063,371.012062 245.817562,371.012062 Z"></path>
                </g>
                <g transform="translate(233.167500, 171.423552)" fill="#E57975" id="Path">
                    <path d="M0.9675,223.703448 C0.387,223.703448 0,223.316448 0,222.735948 C0,220.413948 0,218.091948 0,215.576448 C0,136.821948 25.929,62.3244479 74.691,0.404447884 C75.078,0.0174478841 75.6585,-0.176052116 76.0455,0.210947884 C76.4325,0.597947884 76.626,1.17844788 76.239,1.56544788 C27.6705,63.0984479 1.935,137.015448 1.935,215.382948 C1.935,217.704948 1.935,220.026948 1.935,222.542448 C1.935,223.122948 1.548,223.703448 0.9675,223.703448 C0.9675,223.703448 0.9675,223.703448 0.9675,223.703448 Z"></path>
                </g>
                <g transform="translate(907.248938, 300.261665)" fill="#E57975" id="Path">
                    <path d="M1.0400625,199.548835 C0.8465625,199.548835 0.8465625,199.548835 0.6530625,199.548835 C0.0725625,199.355335 -0.1209375,198.774835 0.0725625,198.387835 C12.2630625,162.590335 18.4550625,125.051335 18.4550625,86.9318351 C18.4550625,57.9068351 14.7785625,29.0753351 7.6190625,1.21133508 C7.4255625,0.630835075 7.8125625,0.243835075 8.3930625,0.0503350754 C8.9735625,-0.143164925 9.3605625,0.243835075 9.5540625,0.824335075 C16.7135625,28.8818351 20.3900625,57.9068351 20.3900625,87.1253351 C20.3900625,125.438335 14.1980625,163.170835 1.8140625,199.161835 C1.8140625,199.161835 1.4270625,199.548835 1.0400625,199.548835 Z"></path>
                </g>
                <g transform="translate(679.112437, 416.168165)" fill="#E57975" id="Path">
                    <path d="M1.0400625,246.569335 C0.6530625,246.569335 0.2660625,246.375835 0.0725625,245.988835 C-0.1209375,245.408335 0.0725625,245.021335 0.6530625,244.827835 C104.949563,206.901835 179.834063,111.119335 191.057063,0.824335075 C191.057063,0.243835075 191.637563,-0.143164925 192.024563,0.0503350754 C192.605063,0.0503350754 192.992063,0.630835075 192.798563,1.01783508 C181.382063,111.893335 106.304063,208.256335 1.0400625,246.569335 C1.2335625,246.569335 1.0400625,246.569335 1.0400625,246.569335 Z"></path>
                </g>
                <g transform="translate(341.527500, 157.844532)" fill="#E57975" id="Path">
                    <path d="M2.9025,260.308968 C2.5155,260.308968 1.935,259.921968 1.935,259.534968 C0.5805,249.666468 0,239.410968 0,229.348968 C0,176.910468 16.8345,126.987468 48.5685,85.1914684 C79.1415,44.5564684 122.8725,14.3704684 171.2475,0.0514683536 C171.828,-0.142031646 172.215,0.244968354 172.4085,0.631968354 C172.602,1.21246835 172.215,1.59946835 171.828,1.79296835 C71.7885,31.3984684 1.935,124.858968 1.935,229.155468 C1.935,239.217468 2.5155,249.279468 3.87,259.147968 C3.87,259.728468 3.483,260.115468 2.9025,260.308968 C2.9025,260.308968 2.9025,260.308968 2.9025,260.308968 Z"></path>
                </g>
                <g transform="translate(627.520500, 152.865000)" fill="#E57975" id="Path">
                    <path d="M66.564,444.276 C66.177,444.276 65.9835,444.0825 65.79,443.6955 C65.5965,443.3085 65.79,442.728 66.177,442.341 C142.6095,400.7385 190.017,320.823 190.017,234.135 C190.017,122.0985 110.4885,24.381 0.774,1.935 C0.1935,1.7415 1.09992015e-13,1.3545 1.09992015e-13,0.774 C0.1935,0.1935 0.5805,5.49960077e-14 1.161,5.49960077e-14 C111.843,22.6395 191.952,121.131 191.952,234.135 C191.952,321.597 144.1575,402.093 67.1445,444.0825 C66.951,444.0825 66.7575,444.276 66.564,444.276 Z"></path>
                </g>
                <g transform="translate(427.230552, 202.207500)" fill="#E57975" id="Path">
                    <path d="M322.581948,257.5485 C322.388448,257.5485 322.388448,257.5485 322.194948,257.5485 C321.614448,257.355 321.420948,256.7745 321.614448,256.194 C331.289448,233.5545 336.126948,209.5605 336.126948,184.7925 C336.126948,83.979 254.082948,1.935 153.269448,1.935 C92.5104479,1.935 35.8149479,32.121 1.75894788,82.6245 C1.37194788,83.0115 0.791447884,83.205 0.404447884,82.818 C0.0174478841,82.431 -0.176052116,81.8505 0.210947884,81.4635 C34.6539479,30.3795 91.9299479,0 153.462948,0 C255.437448,0 338.255448,82.818 338.255448,184.7925 C338.255448,209.754 333.224448,234.135 323.549448,256.968 C323.162448,257.355 322.775448,257.5485 322.581948,257.5485 Z"></path>
                </g>
                <g transform="translate(608.894165, 339.906937)" fill="#E57975" id="Path">
                    <path d="M1.01783508,174.416062 C0.630835075,174.416062 0.243835075,174.029062 0.0503350754,173.642062 C-0.143164925,173.061562 0.243835075,172.674562 0.824335075,172.481062 C59.4548351,158.936062 100.283335,107.271562 100.283335,47.0930625 C100.283335,31.2260625 97.3808351,15.7460625 91.7693351,1.2335625 C91.5758351,0.6530625 91.7693351,0.2660625 92.3498351,0.0725625 C92.9303351,-0.1209375 93.3173351,0.0725625 93.5108351,0.6530625 C99.1223351,15.5525625 102.024835,31.2260625 102.024835,47.2865625 C102.024835,76.8920625 91.7693351,105.917062 73.1933351,129.137062 C54.8108351,151.970062 29.2688351,168.030562 1.01783508,174.609562 C1.21133508,174.416062 1.01783508,174.416062 1.01783508,174.416062 Z"></path>
                </g>
                <g transform="translate(449.887500, 272.178589)" fill="#E57975" id="Path">
                    <path d="M55.1475,221.052911 C54.954,221.052911 54.7605,221.052911 54.567,220.859411 C20.3175,196.284911 0,156.617411 0,114.627911 C0,67.026911 26.1225,23.102411 67.9185,0.0759109876 C68.3055,-0.117589012 68.886,0.0759109876 69.273,0.462910988 C69.4665,0.849910988 69.273,1.43041099 68.886,1.81741099 C27.6705,24.456911 1.935,67.800911 1.935,114.627911 C1.935,155.843411 22.059,194.930411 55.728,219.117911 C56.115,219.504911 56.3085,220.085411 55.9215,220.472411 C55.728,221.052911 55.341,221.052911 55.1475,221.052911 Z"></path>
                </g>
                <g transform="translate(519.917052, 310.567500)" fill="#A275E5" id="Path">
                    <path d="M0.984947884,31.1535 C0.791447884,31.1535 0.597947884,31.1535 0.404447884,30.96 C0.0174478841,30.573 -0.176052116,29.9925 0.210947884,29.6055 C14.7234479,10.836 36.7824479,0 60.5829479,0 C70.8384479,0 80.9004479,1.935 90.3819479,5.9985 C90.9624479,6.192 91.1559479,6.7725 90.9624479,7.353 C90.7689479,7.9335 90.1884479,8.127 89.6079479,7.9335 C80.5134479,4.0635 70.6449479,2.1285 60.5829479,2.1285 C37.3629479,2.1285 15.8844479,12.5775 1.75894788,30.96 C1.56544788,30.96 1.17844788,31.1535 0.984947884,31.1535 Z"></path>
                </g>
                <g transform="translate(504.067500, 374.565665)" fill="#E57975" id="Path">
                    <path d="M53.2125,85.1903351 C53.019,85.1903351 53.019,85.1903351 52.8255,85.1903351 C21.285,74.9348351 0,45.7163351 0,12.4343351 C0,8.56433508 0.387,4.50083508 0.9675,0.824335075 C0.9675,0.243835075 1.548,-0.143164925 2.1285,0.0503350754 C2.709,0.0503350754 3.096,0.630835075 2.9025,1.21133508 C2.322,4.88783508 2.1285,8.75783508 2.1285,12.6278351 C2.1285,44.9423351 22.833,73.5803351 53.5995,83.4488351 C54.18,83.6423351 54.3735,84.2228351 54.18,84.6098351 C53.9865,84.9968351 53.5995,85.1903351 53.2125,85.1903351 Z"></path>
                </g>
                <g transform="translate(637.455399, 342.864552)" fill="#E57975" id="Path">
                    <path d="M0.901101297,93.4779479 C0.707601297,93.4779479 0.514101297,93.4779479 0.320601297,93.2844479 C-0.0663987027,92.8974479 -0.0663987027,92.3169479 0.127101297,91.9299479 C11.3501013,78.5784479 17.3486013,61.5504479 17.3486013,44.1354479 C17.3486013,28.8489479 12.7046013,14.1429479 3.9971013,1.56544788 C3.6101013,1.17844788 3.8036013,0.597947884 4.1906013,0.210947884 C4.5776013,-0.176052116 5.1581013,0.0174478841 5.5451013,0.404447884 C14.4461013,13.1754479 19.2836013,28.4619479 19.2836013,44.1354479 C19.2836013,61.9374479 12.8981013,79.3524479 1.4816013,93.0909479 C1.4816013,93.2844479 1.2881013,93.4779479 0.901101297,93.4779479 Z"></path>
                </g>
            </g>
            <path d="M726.594147,423.655059 C725.441596,425.243559 724.289046,426.832059 724.096954,428.817684 C723.712771,430.80331 724.481138,432.987497 726.209963,433.781748 C726.209963,433.781748 726.209963,433.781748 726.402055,433.781748 C728.899248,434.77456 731.588532,432.193247 733.125266,429.810497 C738.119652,421.669433 732.164808,415.91112 726.594147,423.655059 Z" id="Path" fill="#FFFFFF"></path>
            <path d="M399.163186,518.557345 C406.270639,525.915541 415.683213,530.369186 425.095786,534.629194 C430.4744,537.146471 436.81348,539.663749 442,536.565561 C439.69488,522.623716 437.38976,508.681871 432.20324,495.514573 C427.01672,482.347275 418.756706,470.148161 406.654826,462.789965 C399.739466,458.529957 391.479453,456.012679 383.411532,457.368137 C376.304079,475.182716 385.908746,505.19641 399.163186,518.557345 Z" id="Path" fill="url(#linearGradient-4)"></path>
            <path d="M719.196777,469.475375 C705.419626,492.798209 683.880701,511.302275 658.848977,521.710813 C654.774045,523.445569 650.311024,524.987574 647.206315,528.071586 C644.101605,531.155597 642.743294,536.552616 645.459915,540.214879 C647.594403,542.913389 651.281246,543.684392 654.580001,543.877142 C670.297595,545.033647 685.821145,537.901871 697.851896,527.686084 C709.882647,517.470297 719.002732,504.36325 727.734729,491.448954 C733.944149,482.389671 740.347613,473.137638 746.557033,464.078355 C751.408143,456.94658 759.946095,432.08174 742.676146,437.864261 C732.003705,441.141023 724.435975,460.608843 719.196777,469.475375 Z" id="Path" fill="url(#linearGradient-5)"></path>
            <path d="M271.391017,406.994699 C277.607432,427.048416 290.623051,444.20977 303.444408,460.985475 C309.078034,468.312795 317.431342,476.411411 325.978913,473.326224 C330.835487,471.590806 333.943695,466.577377 334.720747,461.563948 C335.497799,456.550518 334.526484,451.344265 333.360906,446.330836 C329.475647,428.783834 324.619072,411.236831 318.59692,394.268302 C313.934609,380.963432 308.495245,356.667582 298.005045,346.833548 C272.556595,323.308996 266.922968,392.532884 271.391017,406.994699 Z" id="Path" fill="url(#linearGradient-6)"></path>
            <path d="M39.0045491,459.518615 C38.810235,477.569955 44.8339701,496.397695 58.4359524,508.431922 C66.2085137,515.419537 77.8673557,519.883847 87.0001152,514.837236 C95.5499327,510.178825 98.4646432,498.921001 96.3271888,489.41008 C94.3840485,479.89916 88.3603135,471.746942 82.9195205,463.788825 C77.4787276,455.830707 71.8436207,447.484389 70.4834224,437.779368 C69.5118523,431.374054 70.6777365,424.77464 69.1232242,418.369326 C65.2369435,402.841292 53.5781015,406.5292 48.3316226,417.787024 C42.5022017,430.791753 39.1988631,445.543385 39.0045491,459.518615 Z" id="Path" fill="url(#linearGradient-7)"></path>
            <path d="M146.78537,429.435233 C145.589288,425.648387 145.788635,421.293514 147.184064,417.696011 C147.782105,416.181272 148.778841,414.477192 150.373617,414.098507 C151.968393,413.719822 153.762517,414.477192 154.759252,415.613245 C155.755987,416.749299 156.354028,418.264038 156.95207,419.778776 C158.347499,423.565622 159.742928,427.54181 158.546846,431.328656 C157.350764,435.115502 152.765782,438.334321 148.978188,436.440898 C145.589288,434.736817 146.78537,429.435233 146.78537,429.435233 Z" id="Path" fill="url(#linearGradient-8)"></path>
            <path d="M974.010668,434 C975.349351,434 976.879275,433.805882 978.026718,433.029409 C979.174161,432.058817 979.747882,430.505871 980.130363,428.952925 C982.80773,419.829366 985.293856,410.705807 987.971223,401.582248 C989.118666,397.699882 989.883628,393.041044 987.015021,390.323388 C984.337654,387.993969 980.130363,388.96456 977.644237,391.488098 C972.671984,396.923409 973.054465,406.823441 968.847174,413.229344 C964.066162,420.217602 961.771276,433.029409 974.010668,434 Z" id="Path" fill="url(#linearGradient-9)"></path>
            <path d="M471.714339,366.653179 C471.09924,367.652679 470.689175,369.051978 471.304273,370.251377 C471.714339,371.050976 472.329437,371.650676 473.149568,372.050476 C473.559634,372.250376 473.9697,372.650175 474.379765,372.850075 C474.789831,373.049975 475.199897,373.049975 475.814995,372.850075 C476.430094,372.650175 476.840159,372.050476 477.045192,371.450776 C477.455258,370.651177 477.66029,369.851577 477.865323,368.852078 C478.070356,368.052478 478.070356,367.052979 477.66029,366.25338 C477.455258,365.85358 477.045192,365.25388 476.840159,365.053981 C476.635126,364.854081 476.020028,364.254381 475.609962,364.054481 C475.199897,363.854581 474.584798,364.254381 474.379765,364.454281 C473.9697,364.654181 473.559634,365.053981 473.149568,365.45378 C472.329437,365.65368 471.919371,366.05348 471.714339,366.653179 Z" id="Path" fill="url(#linearGradient-10)"></path>
            <path d="M874.705331,447.98536 C880.118201,435.626263 879.924884,421.142947 876.831815,408.011408 C873.54543,394.879868 867.552611,382.520771 861.559791,370.354786 C859.23999,365.527014 856.726872,360.506131 852.66722,356.837024 C848.800884,353.167918 842.808064,350.850587 837.781828,352.588585 C829.855841,355.292137 827.342723,365.913236 830.049158,374.023893 C832.562276,381.941439 838.555095,388.507209 842.808064,395.845422 C851.507319,411.101182 852.087269,430.798491 844.161282,446.440473 C840.294946,454.358019 834.882077,469.613778 849.187518,470 C860.206573,470 870.645679,456.86846 874.705331,447.98536 Z" id="Path" fill="url(#linearGradient-11)"></path>
            <path d="M1029.10748,510.473595 C1024.83439,523.604999 1015.89974,534.612206 1006.38239,544.460759 C989.484246,562.226776 970.449556,577.868596 949.861013,591 C943.257141,583.468753 944.034067,571.689112 948.307161,562.612994 C952.580255,553.536876 959.766822,546.198739 966.176462,538.474383 C981.714985,519.163495 991.815025,495.604211 995.116961,471.272492 C996.865045,458.720414 1005.41123,419.133093 1020.56129,446.361445 C1030.66133,464.513681 1035.51712,490.58338 1029.10748,510.473595 Z" id="Path" fill="url(#linearGradient-12)"></path>
            <g id="Group" transform="translate(357.974026, 439.018929)">
                <path d="M24.6100936,45.3640486 C25.1886592,45.7509495 25.9600799,46.3313009 26.7315007,46.3313009 C27.6957767,46.3313009 28.4671975,45.7509495 29.2386183,45.1705981 C32.902867,41.6884897 33.4814326,35.8849755 31.9385911,30.8552633 C30.3957495,26.0190015 27.1172111,21.9565417 24.031528,17.8940818 C23.4529624,17.1202799 22.6815416,16.346478 21.9101208,16.346478 C17.0887409,15.9595771 16.5101753,27.7600558 16.8958857,30.4683624 C17.4744513,36.2718765 20.174424,41.6884897 24.6100936,45.3640486 Z" id="Path" fill="#FFFFFF"></path>
                <ellipse id="Oval" fill="url(#linearGradient-13)" transform="translate(24.025974, 32.981071) rotate(-15.373213) translate(-24.025974, -32.981071) " cx="24.0259737" cy="32.9810712" rx="16.7817198" ry="29.590927"></ellipse>
            </g>
            <g id="Group" transform="translate(766.000000, 289.000000)" fill="url(#linearGradient-14)">
                <path d="M2.59652808,36.1998587 C-2.60214369,20.702153 0.286007294,5.01072595 8.75791685,0.942578197 C17.2298264,-3.12556955 28.3973435,6.3667752 33.4034719,21.8644809 C38.6021437,37.3621866 35.7139927,53.0536137 27.2420832,57.1217614 C18.7701736,60.9961879 7.60265646,51.6975644 2.59652808,36.1998587 Z" id="Path"></path>
            </g>
            <path d="M1092.8966,440.993694 C1097.78713,425.994495 1110.5025,415.280781 1121.26166,417.228729 C1132.02082,419.176677 1136.91135,433.007107 1132.21645,448.006306 C1127.32592,463.005505 1114.61055,473.719219 1103.85139,471.771271 C1092.8966,469.628528 1088.00608,455.992893 1092.8966,440.993694 Z" id="Path" fill="url(#linearGradient-15)"></path>
        </g>
        <g id="text-logo-reverse-copy" transform="translate(358.000000, 26.000000)">
            <g id="Group-3">
                <ellipse id="Oval-Copy-7" stroke="url(#linearGradient-16)" stroke-width="1.39281828" fill="#1A1B1B" cx="49.0551754" cy="49" rx="49.0551754" ry="49"></ellipse>
                <g id="Group-4" transform="translate(11.759326, 13.094121)">
                    <path d="M71.474991,28.1836879 C71.474991,21.9283688 66.3955189,16.8893617 60.167947,16.8893617 L37.5190681,16.8893617 L40.6850405,24.4304965 L60.167947,24.4304965 C62.2554013,24.4304965 63.9253647,26.1333333 63.9253647,28.1836879 C63.9253647,30.2687943 62.2206104,31.9368794 60.167947,31.9368794 L43.8858037,31.9368794 L47.051776,39.4780142 L60.167947,39.4780142 C62.2554013,39.4780142 63.9253647,41.1808511 63.9253647,43.2312057 C63.9253647,45.2815603 62.2206104,46.9843972 60.167947,46.9843972 L47.3648941,46.9843972 L35.5707775,19.148227 L35.1532866,18.2099291 L34.5966322,16.8546099 L14.0699985,16.8546099 C20.054034,8.40992908 29.89986,2.88439716 41.0677404,2.88439716 C49.4523484,2.88439716 57.1063474,6.01205674 62.9512194,11.1553191 C56.4105293,4.30921986 47.1909396,6.17236481e-14 36.9972046,6.17236481e-14 C21.2369248,6.17236481e-14 7.87721745,10.251773 3.07607262,24.3609929 L8.19033559,24.3609929 L8.19033559,24.3609929 L10.0690444,24.3609929 L10.1386262,24.3609929 C10.1386262,24.3609929 10.1386262,24.3609929 10.1386262,24.3609929 L10.1386262,24.3609929 L29.6215328,24.3609929 L39.1890316,46.9496454 L39.1542407,46.9496454 L42.320213,54.4907801 L60.1331561,54.4907801 L60.3071106,54.4907801 C66.4651007,54.3865248 71.4402001,49.3822695 71.4402001,43.1964539 C71.4402001,40.3120567 70.3616821,37.670922 68.552555,35.6553191 C70.396473,33.7092199 71.474991,31.0680851 71.474991,28.1836879 Z" id="Path-Copy" fill="#FA1A1A" fill-rule="nonzero"></path>
                    <path d="M39.8703766,68.9895674 C28.4937508,68.9895674 18.4391794,63.220773 12.4899347,54.498078 L38.2352041,54.498078 L35.0692318,46.9569433 L8.69772614,46.9569433 C7.86274443,44.5590709 7.27129905,42.0221915 6.99297182,39.4158085 L31.8684686,39.4158085 L28.7024963,31.8746738 L7.09734453,31.8746738 C7.09734453,31.8746738 7.09734453,31.8746738 7.09734453,31.8746738 L0.208745427,31.8746738 C0.0695818091,33.1952411 -1.09046737e-14,34.5158085 -1.09046737e-14,35.8711277 C-1.09046737e-14,42.6824752 1.91349975,49.0420496 5.21863569,54.4633262 C11.5157894,64.7498511 22.8576243,71.6307021 35.7998408,71.6307021 C45.3325487,71.6307021 53.9954839,67.9122624 60.3970103,61.8654539 C54.7260929,66.3484326 47.6287484,68.9895674 39.8703766,68.9895674 Z" id="Path-Copy-2" fill="#FFFFFF"></path>
                </g>
                <g id="Oval-Copy-4">
                    <use fill="black" fill-opacity="1" filter="url(#filter-18)" xlink:href="#path-17"></use>
                    <ellipse stroke="#202121" stroke-width="4.17845484" stroke-linejoin="square" cx="49.22913" cy="49.1737589" rx="45.7482664" ry="45.6944605"></ellipse>
                </g>
            </g>
            <g id="EpicBuy" transform="translate(122.967548, 21.333835)" fill-rule="nonzero">
                <path d="M26.9803465,44.5952128 C27.7457464,44.5952128 28.1284463,44.2303191 28.1284463,43.5005319 L28.1284463,43.5005319 L28.1284463,38.7569149 C28.1284463,38.3225177 28.0501668,38.0010638 27.8936077,37.7925532 C27.7370487,37.5840426 27.4152328,37.4797872 26.9281601,37.4797872 L26.9281601,37.4797872 L7.69748764,37.4797872 L7.69748764,27.9925532 L22.0487358,27.9925532 C22.4314357,27.9925532 22.709763,27.870922 22.8837175,27.6276596 C23.057672,27.3843972 23.1446493,27.106383 23.1446493,26.793617 L23.1446493,26.793617 L23.1446493,22.0760638 C23.1446493,21.6416667 23.0402765,21.3332447 22.8315311,21.1507979 C22.6227857,20.9683511 22.3444585,20.8945035 21.9965494,20.9292553 L21.9965494,20.9292553 L7.69748764,20.9292553 L7.69748764,13.0058511 L26.2497375,13.0058511 C26.6846238,13.0058511 27.0107885,12.8842199 27.2282317,12.6409574 C27.4456748,12.397695 27.5543964,12.1196809 27.5543964,11.8069149 L27.5543964,11.8069149 L27.5543964,7.21968085 C27.5543964,6.83741135 27.4587214,6.52030142 27.2673715,6.26835106 C27.0760215,6.01640071 26.7542056,5.89042553 26.3019239,5.89042553 L26.3019239,5.89042553 L1.14809985,5.89042553 C0.38269995,5.89042553 0,6.30744681 0,7.14148936 L0,7.14148936 L0,43.5005319 C0,43.8828014 0.11307044,44.1608156 0.33921132,44.3345745 C0.565352199,44.5083333 0.83498171,44.5952128 1.14809985,44.5952128 L1.14809985,44.5952128 L26.9803465,44.5952128 Z M37.4176179,54.6819149 C37.9394814,54.6819149 38.3308791,54.5342199 38.5918109,54.2388298 C38.8527427,53.9434397 38.9832086,53.587234 38.9832086,53.1702128 L38.9832086,53.1702128 L38.9832086,40.4771277 C39.5920494,41.1200355 40.24003,41.7238475 40.9271504,42.2885638 C41.6142707,42.8532801 42.3622752,43.3484929 43.1711637,43.7742021 C43.9800522,44.1999113 44.8585226,44.5343972 45.8065747,44.7776596 C46.7546269,45.020922 47.7940051,45.1425532 48.9247095,45.1425532 C50.4903003,45.1425532 51.9950069,44.9383865 53.4388294,44.5300532 C54.882652,44.1217199 56.2264506,43.5483156 57.4702255,42.8098404 C58.7140003,42.0713652 59.8403559,41.1808511 60.8492921,40.1382979 C61.8582283,39.0957447 62.7236521,37.9402482 63.4455633,36.6718085 C64.1674746,35.4033688 64.7241291,34.0393617 65.1155268,32.5797872 C65.5069244,31.1202128 65.7026233,29.5998227 65.7026233,28.018617 C65.7026233,26.4374113 65.5069244,24.9170213 65.1155268,23.4574468 C64.7241291,21.9978723 64.1674746,20.6338652 63.4455633,19.3654255 C62.7236521,18.0969858 61.8582283,16.9458333 60.8492921,15.9119681 C59.8403559,14.8781028 58.7140003,13.9919326 57.4702255,13.2534574 C56.2264506,12.5149823 54.8870008,11.941578 53.451876,11.5332447 C52.0167512,11.1249113 50.5076957,10.9207447 48.9247095,10.9207447 C47.672237,10.9207447 46.5415326,11.0640957 45.5325964,11.3507979 C44.5236601,11.6375 43.6017011,12.0241135 42.7667194,12.5106383 C41.9317377,12.9971631 41.1706867,13.5531915 40.4835663,14.1787234 C39.796446,14.8042553 39.1484654,15.464539 38.5396245,16.1595745 L38.5396245,16.1595745 L37.9916678,12.9797872 C37.9046905,12.5280142 37.7524803,12.1544326 37.5350372,11.8590426 C37.317594,11.5636525 36.9479407,11.4159574 36.4260771,11.4159574 L36.4260771,11.4159574 L33.7906661,11.4159574 C33.5645252,11.4159574 33.3340354,11.4289894 33.0991968,11.4550532 C32.8643582,11.481117 32.6338685,11.5462766 32.4077276,11.6505319 C32.1120049,11.7374113 31.8815152,11.8851064 31.7162584,12.093617 C31.5510016,12.3021277 31.4683732,12.5888298 31.4683732,12.9537234 L31.4683732,12.9537234 L31.4683732,53.1702128 C31.4683732,53.6393617 31.6466766,54.0085993 32.0032833,54.2779255 C32.3598901,54.5472518 32.7208457,54.6819149 33.0861502,54.6819149 L33.0861502,54.6819149 L37.4176179,54.6819149 Z M48.5854982,38.3398936 C47.193862,38.3398936 45.8848543,38.0618794 44.6584749,37.5058511 C43.4320955,36.9498227 42.3622752,36.2026596 41.4490139,35.2643617 C40.5357527,34.3260638 39.8138414,33.231383 39.2832801,31.9803191 C38.7527188,30.7292553 38.4874382,29.4086879 38.4874382,28.018617 L38.4874382,28.018617 L38.4874382,27.8361702 C38.5048336,26.4808511 38.7875097,25.1950355 39.3354665,23.9787234 C39.8834232,22.7624113 40.6140322,21.6981383 41.5272935,20.7859043 C42.4405547,19.8736702 43.5016773,19.148227 44.7106612,18.6095745 C45.9196452,18.070922 47.2112575,17.8015957 48.5854982,17.8015957 C49.959739,17.8015957 51.2383047,18.075266 52.4211955,18.6226064 C53.6040862,19.1699468 54.626069,19.908422 55.4871439,20.8380319 C56.3482188,21.7676418 57.0266414,22.8536348 57.5224118,24.0960106 C58.0181822,25.3383865 58.2660674,26.645922 58.2660674,28.018617 C58.2660674,29.4086879 58.0181822,30.7292553 57.5224118,31.9803191 C57.0266414,33.231383 56.3482188,34.3260638 55.4871439,35.2643617 C54.626069,36.2026596 53.6040862,36.9498227 52.4211955,37.5058511 C51.2383047,38.0618794 49.959739,38.3398936 48.5854982,38.3398936 Z M75.3049129,7.11542553 C75.8093811,7.11542553 76.2007787,6.9373227 76.479106,6.58111702 C76.7574332,6.22491135 76.8965968,5.84698582 76.8965968,5.44734043 L76.8965968,5.44734043 L76.8965968,1.56382979 C76.8965968,1.04255319 76.7487355,0.651595745 76.4530128,0.390957447 C76.1572901,0.130319149 75.7658924,0 75.2788198,0 L75.2788198,0 L70.8951658,0 C69.8688341,0 69.3556683,0.521276596 69.3556683,1.56382979 L69.3556683,1.56382979 L69.3556683,5.44734043 C69.3556683,6.55939716 69.8775318,7.11542553 70.921259,7.11542553 L70.921259,7.11542553 L75.3049129,7.11542553 Z M75.2527266,44.5952128 C76.3486401,44.5952128 76.8965968,44.0739362 76.8965968,43.031383 L76.8965968,43.031383 L76.8965968,13.0840426 C76.8965968,12.858156 76.8444105,12.6496454 76.7400378,12.4585106 C76.635665,12.2673759 76.5051991,12.097961 76.3486401,11.950266 C76.192081,11.8025709 76.0137776,11.6896277 75.8137299,11.6114362 C75.6136822,11.5332447 75.4179834,11.4941489 75.2266334,11.4941489 L75.2266334,11.4941489 L70.8951658,11.4941489 C70.3906977,11.4941489 70.0079977,11.6461879 69.7470659,11.950266 C69.4861341,12.254344 69.3556683,12.6322695 69.3556683,13.0840426 L69.3556683,13.0840426 L69.3556683,43.031383 C69.3556683,44.0739362 69.8775318,44.5952128 70.921259,44.5952128 L70.921259,44.5952128 L75.2527266,44.5952128 Z M98.6061213,45.1946809 C100.658785,45.1946809 102.541842,44.864539 104.255294,44.2042553 C105.968746,43.5439716 107.564779,42.6751773 109.043393,41.5978723 C109.356511,41.3719858 109.608745,41.1504433 109.800095,40.9332447 C109.991445,40.7160461 110.08712,40.4684397 110.08712,40.1904255 C110.08712,40.0861702 110.061027,39.968883 110.00884,39.8385638 C109.956654,39.7082447 109.887072,39.5822695 109.800095,39.4606383 L109.800095,39.4606383 L107.947479,36.8281915 L107.321243,35.9680851 C107.112497,35.672695 106.860263,35.5163121 106.564541,35.4989362 C106.425377,35.4989362 106.255771,35.520656 106.055724,35.5640957 C105.855676,35.6075355 105.607791,35.7248227 105.312068,35.9159574 C104.4249,36.6283688 103.442057,37.2408688 102.363539,37.7534574 C101.285021,38.2660461 100.006455,38.5223404 98.5278417,38.5223404 C97.1709965,38.5223404 95.8924307,38.2486702 94.6921445,37.7013298 C93.4918583,37.1539894 92.4437823,36.4111702 91.5479165,35.4728723 C90.6520507,34.5345745 89.943186,33.4312057 89.4213225,32.162766 C88.8994589,30.8943262 88.6385271,29.5390071 88.6385271,28.0968085 C88.6385271,26.6893617 88.8994589,25.3470745 89.4213225,24.0699468 C89.943186,22.7928191 90.6563996,21.6720745 91.5609631,20.7077128 C92.4655266,19.7433511 93.5136026,18.9788121 94.7051911,18.4140957 C95.8967796,17.8493794 97.1709965,17.5670213 98.5278417,17.5670213 C99.7803143,17.5670213 100.997996,17.8015957 102.180887,18.2707447 C103.363777,18.7398936 104.398807,19.3480496 105.285975,20.0952128 C105.651279,20.3906028 105.981793,20.5382979 106.277516,20.5382979 C106.695007,20.5382979 107.077707,20.2776596 107.425616,19.756383 L107.425616,19.756383 L109.565256,16.4984043 C109.652233,16.376773 109.700071,16.2464539 109.708769,16.1074468 C109.717466,15.9684397 109.721815,15.8468085 109.721815,15.7425532 C109.721815,15.3602837 109.604396,15.0779255 109.369557,14.8954787 C109.134719,14.7130319 108.895531,14.5001773 108.651995,14.2569149 L108.651995,14.2569149 L108.678088,14.2829787 C107.338638,13.2751773 105.807839,12.4758865 104.085689,11.8851064 C102.363539,11.2943262 100.537016,10.9989362 98.6061213,10.9989362 C97.057926,10.9989362 95.5575683,11.2031028 94.105048,11.6114362 C92.6525277,12.0197695 91.2956824,12.5931738 90.0345122,13.3316489 C88.7733419,14.0701241 87.6208932,14.9562943 86.577166,15.9901596 C85.5334389,17.0240248 84.6332242,18.1751773 83.876522,19.443617 C83.1198199,20.7120567 82.5370722,22.0760638 82.1282791,23.5356383 C81.719486,24.9952128 81.5150894,26.5156028 81.5150894,28.0968085 C81.5150894,29.6780142 81.719486,31.1984043 82.1282791,32.6579787 C82.5370722,34.1175532 83.1198199,35.4815603 83.876522,36.75 C84.6332242,38.0184397 85.5334389,39.1695922 86.577166,40.2034574 C87.6208932,41.2373227 88.7733419,42.1234929 90.0345122,42.8619681 C91.2956824,43.6004433 92.6525277,44.1738475 94.105048,44.5821809 C95.5575683,44.9905142 97.057926,45.1946809 98.6061213,45.1946809 Z" id="Epic" fill="#FA1A1A"></path>
                <path d="M132.918651,44.5952128 C134.466846,44.5952128 135.919366,44.2867908 137.276212,43.6699468 C138.633057,43.0531028 139.811599,42.2147163 140.811837,41.1547872 C141.812076,40.0948582 142.603569,38.8698582 143.186317,37.4797872 C143.769064,36.0897163 144.060438,34.6214539 144.060438,33.075 C144.060438,32.154078 143.947368,31.2548759 143.721227,30.3773936 C143.495086,29.4999113 143.177619,28.6702128 142.768826,27.8882979 C142.360033,27.106383 141.868611,26.3765957 141.294561,25.6989362 C140.720511,25.0212766 140.07688,24.4218085 139.363666,23.9005319 C140.250834,22.9796099 140.946652,21.9109929 141.45112,20.6946809 C141.955588,19.4783688 142.207822,18.1664894 142.207822,16.7590426 C142.207822,15.2299645 141.925146,13.8051418 141.359794,12.4845745 C140.794442,11.1640071 140.020344,10.0171986 139.037501,9.04414894 C138.054658,8.07109929 136.897861,7.30221631 135.567109,6.7375 C134.236356,6.17278369 132.814278,5.89042553 131.300874,5.89042553 L131.300874,5.89042553 L114.966544,5.89042553 C114.183749,5.89042553 113.792351,6.29875887 113.792351,7.11542553 L113.792351,7.11542553 L113.792351,43.4744681 C113.792351,43.8567376 113.901073,44.1390957 114.118516,44.3215426 C114.335959,44.5039894 114.618635,44.5952128 114.966544,44.5952128 L114.966544,44.5952128 L132.918651,44.5952128 Z M129.813563,21.6590426 L121.359373,21.6590426 L121.359373,12.2239362 L129.891842,12.2239362 C130.58766,12.2239362 131.226943,12.3412234 131.809691,12.5757979 C132.392438,12.8103723 132.892558,13.1361702 133.310049,13.5531915 C133.727539,13.9702128 134.053704,14.4654255 134.288543,15.0388298 C134.523381,15.612234 134.640801,16.229078 134.640801,16.8893617 C134.640801,17.5670213 134.519033,18.1968972 134.275496,18.7789894 C134.03196,19.3610816 133.697097,19.8649823 133.270909,20.2906915 C132.84472,20.7164007 132.335903,21.0508865 131.744458,21.2941489 C131.153012,21.5374113 130.509381,21.6590426 129.813563,21.6590426 L129.813563,21.6590426 Z M130.074494,38.2356383 L121.359373,38.2356383 L121.359373,27.6537234 L130.074494,27.6537234 C130.439799,27.6537234 130.800755,27.6754433 131.157361,27.718883 C131.513968,27.7623227 131.866226,27.8101064 132.214135,27.862234 C132.80558,27.9664894 133.353537,28.170656 133.858005,28.474734 C134.362473,28.7788121 134.79736,29.1567376 135.162664,29.6085106 C135.527969,30.0602837 135.814994,30.5685284 136.023739,31.1332447 C136.232485,31.697961 136.336857,32.2757092 136.336857,32.8664894 C136.336857,33.5093972 136.232485,34.1218972 136.023739,34.7039894 C135.814994,35.2860816 135.52362,35.8117021 135.149618,36.2808511 C134.775615,36.75 134.33638,37.1409574 133.831912,37.4537234 C133.327444,37.7664894 132.779487,37.9663121 132.188042,38.0531915 C131.840133,38.122695 131.492224,38.1704787 131.144315,38.1965426 C130.796406,38.2226064 130.439799,38.2356383 130.074494,38.2356383 L130.074494,38.2356383 Z M159.716345,44.7776596 C161.003609,44.7776596 162.156057,44.6560284 163.173691,44.412766 C164.191325,44.1695035 165.09154,43.8437057 165.874335,43.4353723 C166.657131,43.027039 167.335553,42.5578901 167.909603,42.0279255 C168.483653,41.497961 168.962028,40.9462766 169.344728,40.3728723 L169.344728,40.3728723 L169.631753,42.7446809 C169.71873,43.1617021 169.883987,43.5309397 170.127523,43.8523936 C170.37106,44.1738475 170.745062,44.3345745 171.24953,44.3345745 L171.24953,44.3345745 L173.884941,44.3345745 C174.058896,44.3345745 174.258943,44.3302305 174.485084,44.3215426 C174.711225,44.3128546 174.91997,44.2867908 175.11132,44.2433511 C175.30267,44.1999113 175.463578,44.1260638 175.594044,44.0218085 C175.72451,43.9175532 175.789743,43.7698582 175.789743,43.5787234 C176.06807,43.4049645 176.207234,43.1443262 176.207234,42.7968085 L176.207234,42.7968085 L176.207234,12.8234043 C176.207234,12.3195035 176.072419,11.9285461 175.80279,11.6505319 C175.53316,11.3725177 175.11132,11.2335106 174.53727,11.2335106 L174.53727,11.2335106 L170.231896,11.2335106 C169.883987,11.2335106 169.610009,11.3160461 169.409961,11.481117 C169.209913,11.6461879 169.053354,11.8633865 168.940284,12.1327128 C168.827213,12.402039 168.753283,12.6974291 168.718492,13.018883 C168.683701,13.3403369 168.666305,13.6574468 168.666305,13.9702128 L168.666305,13.9702128 L168.666305,30.8856383 C168.666305,32.0324468 168.431467,33.0359043 167.96179,33.8960106 C167.492112,34.756117 166.900667,35.4728723 166.187453,36.0462766 C165.47424,36.6196809 164.682747,37.0453901 163.812974,37.3234043 C162.943202,37.6014184 162.10822,37.7404255 161.308029,37.7404255 C160.159929,37.7404255 159.155342,37.5319149 158.294267,37.1148936 C157.433192,36.6978723 156.71563,36.141844 156.14158,35.4468085 C155.56753,34.751773 155.136992,33.9655142 154.849967,33.0880319 C154.562942,32.2105496 154.41943,31.3113475 154.41943,30.3904255 L154.41943,30.3904255 L154.41943,13.0058511 C154.41943,12.3455674 154.302011,11.8851064 154.067172,11.6244681 C153.832333,11.3638298 153.367005,11.2335106 152.671187,11.2335106 L152.671187,11.2335106 L148.705024,11.2335106 C148.148369,11.2335106 147.722181,11.3942376 147.426458,11.7156915 C147.130735,12.0371454 146.982874,12.5106383 146.982874,13.1361702 L146.982874,13.1361702 L146.982874,30.5207447 C146.982874,32.5189716 147.261201,34.3868794 147.817856,36.1244681 C148.37451,37.8620567 149.187748,39.3694149 150.257568,40.6465426 C151.327388,41.9236702 152.653792,42.9314716 154.236778,43.6699468 C155.819764,44.408422 157.646286,44.7776596 159.716345,44.7776596 Z M191.44565,55.281383 C191.845746,55.281383 192.167561,55.1901596 192.411098,55.0077128 C192.654634,54.825266 192.854682,54.5429078 193.011241,54.1606383 L193.011241,54.1606383 L208.8498,13.2925532 C208.884591,13.2578014 208.923731,13.1274823 208.967219,12.9015957 C209.010708,12.6757092 209.032452,12.5019504 209.032452,12.3803191 C209.032452,12.1370567 208.941126,11.9328901 208.758474,11.7678191 C208.575822,11.6027482 208.240959,11.5202128 207.753887,11.5202128 L207.753887,11.5202128 L202.848369,11.5202128 C202.448274,11.5202128 202.126458,11.6114362 201.882921,11.793883 C201.639385,11.9763298 201.439337,12.2586879 201.282778,12.6409574 L201.282778,12.6409574 L193.559198,33.6223404 C193.350452,33.1010638 193.072125,32.3843085 192.724216,31.4720745 C192.376307,30.5598404 191.989258,29.5346631 191.563069,28.3965426 C191.136881,27.258422 190.684599,26.0421099 190.206224,24.7476064 C189.727849,23.4531028 189.253823,22.1629433 188.784146,20.8771277 C188.314469,19.5913121 187.862187,18.3445922 187.427301,17.1369681 C186.992414,15.929344 186.601017,14.8390071 186.253108,13.8659574 L186.253108,13.8659574 L185.78343,12.6409574 C185.505103,11.9111702 184.991937,11.5462766 184.243933,11.5462766 L184.243933,11.5462766 L179.521068,11.5462766 C179.086181,11.5462766 178.764365,11.633156 178.55562,11.8069149 C178.346875,11.9806738 178.242502,12.2152482 178.242502,12.5106383 C178.242502,12.7539007 178.28599,12.9710993 178.372968,13.162234 L178.372968,13.162234 L178.372968,13.3968085 C178.390363,13.4141844 178.399061,13.4402482 178.399061,13.475 L178.399061,13.475 L190.036618,41.806383 L185.444219,53.5090426 C185.409428,53.5437943 185.370288,53.6741135 185.3268,53.9 C185.283311,54.1258865 185.261567,54.2996454 185.261567,54.4212766 C185.261567,54.664539 185.352893,54.8687057 185.535545,55.0337766 C185.718197,55.1988475 186.05306,55.281383 186.540133,55.281383 L186.540133,55.281383 L191.44565,55.281383 Z" id="Buy" fill="#FFFFFF"></path>
            </g>
        </g>
    </g>
</svg>