<svg xmlns="http://www.w3.org/2000/svg" xmlns:v="https://vecta.io/nano" xmlns:xlink="http://www.w3.org/1999/xlink" width="96" height="96" fill="none"><circle cx="48" cy="48" r="48" fill="#fff"/><mask id="A" width="78" height="48" x="9" y="20" mask-type="alpha" maskUnits="userSpaceOnUse"><use fill="#fff" xlink:href="#C"/></mask><g mask="url(#A)"><use fill="#ff8200" xlink:href="#C"/><path fill="#ff9600" fill-rule="evenodd" d="M34.13 20.669h14.944c16.207 0 29.002 22.689 29.002 41.211l4.302 2.473a1.81 1.81 0 0 1-.902 3.379H1.81a1.81 1.81 0 0 1-.764-3.451l5.161-2.401c0-18.522 11.716-41.211 27.923-41.211z"/><path fill="#000" d="M10.863 48.197h73.972v7.391H10.863v-7.391z"/><path fill="#000" fill-opacity=".119" d="M48.5 62.302c5.998 0 10.861-4.863 10.861-10.861S54.498 40.581 48.5 40.581s-10.861 4.863-10.861 10.861S42.501 62.302 48.5 62.302z"/></g><path fill="#fff" d="M47.896 62.302c5.998 0 10.861-4.863 10.861-10.861s-4.863-10.861-10.861-10.861-10.861 4.863-10.861 10.861 4.863 10.861 10.861 10.861z"/><g filter="url(#B)"><path fill="#fff" d="M47.5 61a9.5 9.5 0 1 0 0-19 9.5 9.5 0 1 0 0 19z"/></g><path fill="#000" fill-rule="evenodd" d="M47.895 43.965a7.48 7.48 0 0 0-7.476 7.476 7.48 7.48 0 0 0 7.476 7.476 7.48 7.48 0 0 0 7.476-7.476 7.48 7.48 0 0 0-7.476-7.476zm-10.904 7.476c0-6.022 4.882-10.904 10.904-10.904s10.904 4.882 10.904 10.904-4.882 10.904-10.904 10.904-10.904-4.882-10.904-10.904z"/><g fill="#ffaa30"><path d="M44.077 27.126c-1.747-3.527-2.299-4.58-1.95-5.983.543-2.181 3.001-4.177 5.819-4.142 2.459.03 4.706 1.605 5.665 3.989.149.481-.176 2.14-2.094 6.237l-3.612 7.724-3.828-7.824z"/><path d="M43.522 27.122c-1.738-3.509-2.286-4.555-1.939-5.951.54-2.169 2.984-4.155 5.786-4.12 2.445.03 4.68 1.596 5.634 3.968.148.479-.175 2.129-2.082 6.204l-3.592 7.683-3.807-7.783zm-11.834 5.073a29.08 29.08 0 0 0-4.106-4.024c-.196-.078-2.864-1.086-5.118.596-1.876 1.399-2.657 4.058-1.838 6.509a22.58 22.58 0 0 1 5.482.061c4.548.609 7.941 2.486 9.918 3.82-.871-1.949-2.229-4.438-4.338-6.961z"/><path d="M35.567 38.568a28.35 28.35 0 0 0-4.214-6.608c-1.2-1.404-2.533-2.684-3.982-3.824-.189-.074-2.773-1.036-4.95.552-1.811 1.322-2.56 3.839-1.762 6.164a22.34 22.34 0 0 1 5.304.071c4.402.588 7.688 2.375 9.604 3.644z"/></g><path fill="#ff8a00" d="M63.917 32.724a29.08 29.08 0 0 1 4.106-4.024c.196-.078 2.864-1.086 5.118.596 1.876 1.399 2.657 4.058 1.838 6.509-1.524-.168-3.389-.22-5.483.061-4.548.609-7.941 2.486-9.918 3.82.871-1.949 2.229-4.438 4.339-6.961z"/><path fill="#ffaa30" d="M60.039 38.568a28.35 28.35 0 0 1 4.214-6.608 28.08 28.08 0 0 1 3.982-3.824c.189-.074 2.773-1.036 4.95.552 1.811 1.322 2.56 3.839 1.762 6.164a22.34 22.34 0 0 0-5.304.071c-4.402.588-7.688 2.375-9.604 3.644z"/><defs><filter id="B" width="21.218" height="19" x="35.782" y="42" color-interpolation-filters="sRGB" filterUnits="userSpaceOnUse"><feFlood flood-opacity="0"/><feBlend in="SourceGraphic" result="B"/><feColorMatrix in="SourceAlpha" result="C" values="0 0 0 0 0 0 0 0 0 0 0 0 0 0 0 0 0 0 127 0"/><feOffset dx="-2.218"/><feGaussianBlur stdDeviation="1.109"/><feComposite in2="C" k2="-1" k3="1" operator="arithmetic"/><feColorMatrix values="0 0 0 0 0.909804 0 0 0 0 0.905882 0 0 0 0 0.913725 0 0 0 1 0"/><feBlend in2="B"/></filter><path id="C" d="M47.883 20.976h1.225c23.909 0 36.144 24.14 36.144 40.098a3.6 3.6 0 0 1-1.851 6.683H13.317a3.53 3.53 0 0 1-1.578-6.683c0-15.958 11.972-40.098 36.144-40.098z"/></defs></svg>