<svg width="801" height="112" viewBox="0 0 801 112" fill="none" xmlns="http://www.w3.org/2000/svg">
<g clip-path="url(#clip0)">
<rect width="801" height="112" fill="url(#paint0_linear)"/>
<path opacity="0.2" d="M176.808 56.7768C170.727 65.9725 156.177 71.6797 138.639 71.7484L64.8171 72.0375C47.2793 72.1062 29.4179 66.5261 17.9611 57.399L-30.2639 18.9806C-41.7206 9.8536 -45.0322 -1.4337 -38.9512 -10.6294L-13.3542 -49.337C-7.27316 -58.5327 7.27668 -64.2399 24.8145 -64.3086L98.6364 -64.5977C116.174 -64.6664 134.036 -59.0863 145.492 -49.9592L193.717 -11.5408C205.174 -2.41379 208.486 8.8735 202.405 18.0692L176.808 56.7768Z" fill="url(#paint1_linear)"/>
<path opacity="0.8" d="M-42.4193 38.5364C-36.3813 29.3124 -21.8582 23.5374 -4.32089 23.3868L44.7258 22.9657C62.2632 22.8152 80.1504 28.3119 91.6497 37.3853L123.81 62.7611C135.309 71.8346 138.673 83.1063 132.635 92.3303L115.749 118.127C109.71 127.351 95.1874 133.126 77.6501 133.277L28.6034 133.698C11.066 133.848 -6.82123 128.352 -18.3205 119.278L-50.4805 93.9025C-61.9798 84.829 -65.344 73.5573 -59.306 64.3333L-42.4193 38.5364Z" fill="url(#paint2_linear)"/>
<path opacity="0.8" d="M686.301 -35.4636C692.339 -44.6876 706.862 -50.4626 724.4 -50.6132L773.446 -51.0343C790.984 -51.1848 808.871 -45.6881 820.37 -36.6147L852.53 -11.2389C864.03 -2.16543 867.394 9.10628 861.356 18.3303L844.469 44.1272C838.431 53.3512 823.908 59.1262 806.371 59.2768L757.324 59.6979C739.787 59.8484 721.899 54.3517 710.4 45.2783L678.24 19.9025C666.741 10.829 663.377 -0.442663 669.415 -9.66669L686.301 -35.4636Z" fill="url(#paint3_linear)"/>
<path d="M84.3013 73.5364C90.3393 64.3124 104.862 58.5374 122.4 58.3868L171.446 57.9657C188.984 57.8152 206.871 63.3119 218.37 72.3853L250.53 97.7611C262.03 106.835 265.394 118.106 259.356 127.33L242.469 153.127C236.431 162.351 221.908 168.126 204.371 168.277L155.324 168.698C137.787 168.848 119.899 163.352 108.4 154.278L76.24 128.902C64.7408 119.829 61.3765 108.557 67.4146 99.3333L84.3013 73.5364Z" fill="url(#paint4_linear)"/>
<path opacity="0.2" d="M76.8735 65.7123C82.8379 56.6007 97.1839 50.8962 114.507 50.7474L163.554 50.3263C180.878 50.1776 198.547 55.6073 209.906 64.5701L242.066 89.9459C253.425 98.9087 256.748 110.043 250.784 119.154L233.897 144.951C227.932 154.063 213.587 159.767 196.263 159.916L147.216 160.337C129.893 160.486 112.224 155.056 100.865 146.094L68.7047 120.718C57.3456 111.755 54.0224 100.621 59.9868 91.5092L76.8735 65.7123Z" stroke="white"/>
<path opacity="0.2" d="M189.874 -47.2877C195.838 -56.3993 210.184 -62.1038 227.507 -62.2526L276.554 -62.6737C293.878 -62.8224 311.547 -57.3927 322.906 -48.4299L355.066 -23.0541C366.425 -14.0913 369.748 -2.95708 363.784 6.15445L346.897 31.9513C340.932 41.0629 326.587 46.7674 309.263 46.9162L260.216 47.3373C242.893 47.486 225.224 42.0563 213.865 33.0935L181.705 7.71775C170.346 -1.24505 167.022 -12.3793 172.987 -21.4908L189.874 -47.2877Z" stroke="white"/>
<path opacity="0.2" d="M534.874 51.7123C540.838 42.6007 555.184 36.8962 572.507 36.7474L621.554 36.3263C638.878 36.1776 656.547 41.6073 667.906 50.5701L700.066 75.9459C711.425 84.9087 714.748 96.0429 708.784 105.154L691.897 130.951C685.932 140.063 671.587 145.767 654.263 145.916L605.216 146.337C587.893 146.486 570.224 141.056 558.865 132.094L526.705 106.718C515.346 97.7549 512.022 86.6207 517.987 77.5092L534.874 51.7123Z" stroke="white"/>
<path opacity="0.2" d="M492.646 -70.337C498.727 -79.5327 513.277 -85.2398 530.815 -85.3085L604.636 -85.5977C622.174 -85.6664 640.036 -80.0862 651.493 -70.9592L699.717 -32.5408C711.174 -23.4138 714.486 -12.1265 708.405 -2.93075L682.808 35.7768C676.727 44.9726 662.177 50.6797 644.639 50.7484L570.817 51.0375C553.279 51.1062 535.418 45.5261 523.961 36.399L475.736 -2.01935C464.279 -11.1464 460.968 -22.4337 467.049 -31.6294L492.646 -70.337Z" fill="url(#paint5_linear)"/>
<path opacity="0.2" d="M196.629 -19.3095C202.667 -28.5335 217.19 -34.3085 234.728 -34.4591L271.313 -34.7732C288.85 -34.9238 306.737 -29.4271 318.237 -20.3536L342.226 -1.42523C353.725 7.64822 357.089 18.9199 351.051 28.1439L338.455 47.3864C332.417 56.6105 317.894 62.3854 300.357 62.536L263.771 62.8501C246.234 63.0007 228.347 57.504 216.848 48.4305L192.859 29.5022C181.359 20.4287 177.995 9.157 184.033 -0.0670273L196.629 -19.3095Z" fill="url(#paint6_linear)"/>
<path d="M352.714 55.8573L344.357 47.5001L338.785 53.0716L341.571 55.8573L324.857 72.5717L319.285 67.0002L322.071 64.2146L323.464 65.6073V57.2501H315.107L316.5 58.643L308.142 67.0002L324.857 83.7145L352.714 55.8573Z" fill="#3377FF"/>
<path d="M341.572 44.7143L324.857 28L297 55.8572L305.357 64.2144L310.929 58.6429L308.143 55.8572L324.857 39.1429L330.429 44.7143L327.643 47.5L326.25 46.1072V54.4643H334.607L333.214 53.0715L341.572 44.7143Z" fill="#2AD4B7"/>
<path fill-rule="evenodd" clip-rule="evenodd" d="M463.297 65.2995C461.92 65.2995 460.664 65.0292 459.53 64.4886C458.397 63.9481 457.429 63.2418 456.627 62.37C455.825 61.4806 455.197 60.4693 454.744 59.3358C454.308 58.2024 454.09 57.034 454.09 55.8308C454.09 54.6102 454.317 53.4331 454.77 52.2997C455.241 51.1663 455.887 50.1723 456.706 49.3179C457.543 48.446 458.528 47.7572 459.661 47.2516C460.795 46.7285 462.033 46.4669 463.376 46.4669C464.753 46.4669 466.009 46.7372 467.142 47.2777C468.276 47.8183 469.243 48.5332 470.045 49.4225C470.847 50.3118 471.467 51.3232 471.902 52.4566C472.339 53.5901 472.557 54.741 472.557 55.9093C472.557 57.1299 472.321 58.307 471.85 59.4404C471.397 60.5739 470.76 61.5765 469.941 62.4484C469.121 63.3028 468.145 63.9916 467.011 64.5147C465.878 65.0379 464.64 65.2995 463.297 65.2995ZM458.459 55.8832C458.459 56.5981 458.563 57.2956 458.772 57.9757C458.981 58.6383 459.286 59.2311 459.688 59.7543C460.106 60.2774 460.62 60.696 461.231 61.0098C461.841 61.3237 462.539 61.4806 463.323 61.4806C464.143 61.4806 464.858 61.315 465.468 60.9836C466.079 60.6523 466.584 60.2251 466.985 59.7019C467.386 59.1614 467.683 58.5598 467.874 57.8973C468.083 57.2172 468.188 56.5283 468.188 55.8308C468.188 55.1159 468.083 54.4272 467.874 53.7645C467.666 53.0845 467.351 52.4916 466.933 51.9858C466.514 51.4627 466 51.053 465.389 50.7565C464.796 50.4427 464.108 50.2857 463.323 50.2857C462.504 50.2857 461.789 50.4514 461.178 50.7826C460.585 51.0965 460.08 51.515 459.661 52.0382C459.261 52.5613 458.956 53.1629 458.745 53.843C458.554 54.5056 458.459 55.1857 458.459 55.8832ZM430.022 65.1424V46.5714H434.311V65.1424H430.022ZM437.514 61.9253L447.192 50.338H437.88V46.5714H452.135V49.7887L442.928 61.376H452.24V65.1424H437.514V61.9253ZM479.995 65.1424V54.523L488.547 65.1424H492V46.5714H487.71V57.4787L479.052 46.5714H475.705V65.1424H479.995ZM412.092 46.5714V65.1424H416.382V59.1527H419.181L422.738 65.1424H427.577L423.497 58.2372C423.967 57.9757 424.386 57.6617 424.752 57.2957C425.136 56.9119 425.458 56.4848 425.72 56.014C425.982 55.5431 426.182 55.0462 426.322 54.523C426.461 53.9825 426.531 53.4244 426.531 52.8491C426.531 52.0817 426.374 51.3232 426.06 50.5734C425.764 49.8237 425.345 49.1523 424.805 48.5594C424.264 47.9665 423.619 47.487 422.869 47.1208C422.136 46.7546 421.334 46.5714 420.463 46.5714H412.092ZM420.306 55.4124H416.382V50.338H420.175C420.663 50.338 421.116 50.5647 421.535 51.018C421.953 51.4714 422.163 52.0817 422.163 52.8491C422.163 53.5989 421.98 54.2179 421.613 54.7061C421.247 55.1769 420.811 55.4124 420.306 55.4124ZM387.267 46.5714V65.1424H382.977V57.531H375.575V65.1424H371.285V46.5714H375.575V53.7645H382.977V46.5714H387.267ZM395.891 64.4886C397.024 65.0292 398.28 65.2995 399.658 65.2995C401 65.2995 402.238 65.0379 403.372 64.5147C404.505 63.9916 405.482 63.3028 406.301 62.4484C407.121 61.5765 407.757 60.5739 408.211 59.4404C408.681 58.307 408.917 57.1299 408.917 55.9093C408.917 54.741 408.699 53.5901 408.263 52.4566C407.827 51.3232 407.208 50.3118 406.406 49.4225C405.604 48.5332 404.636 47.8183 403.502 47.2777C402.369 46.7372 401.114 46.4669 399.736 46.4669C398.393 46.4669 397.155 46.7285 396.022 47.2516C394.888 47.7572 393.903 48.446 393.066 49.3179C392.247 50.1723 391.601 51.1663 391.131 52.2997C390.677 53.4331 390.45 54.6102 390.45 55.8308C390.45 57.034 390.668 58.2024 391.104 59.3358C391.558 60.4693 392.186 61.4806 392.988 62.37C393.79 63.2418 394.758 63.9481 395.891 64.4886ZM395.132 57.9757C394.923 57.2956 394.819 56.5981 394.819 55.8832C394.819 55.1857 394.914 54.5056 395.106 53.843C395.316 53.1629 395.621 52.5613 396.022 52.0382C396.44 51.515 396.946 51.0965 397.539 50.7826C398.149 50.4514 398.864 50.2857 399.684 50.2857C400.468 50.2857 401.157 50.4427 401.75 50.7565C402.36 51.053 402.875 51.4627 403.293 51.9858C403.712 52.4916 404.026 53.0845 404.235 53.7645C404.444 54.4272 404.549 55.1159 404.549 55.8308C404.549 56.5283 404.444 57.2172 404.235 57.8973C404.043 58.5598 403.747 59.1614 403.346 59.7019C402.945 60.2251 402.439 60.6523 401.829 60.9836C401.218 61.315 400.503 61.4806 399.684 61.4806C398.899 61.4806 398.201 61.3237 397.591 61.0098C396.981 60.696 396.466 60.2774 396.048 59.7543C395.647 59.2311 395.342 58.6383 395.132 57.9757Z" fill="white"/>
<path opacity="0.2" d="M549.254 46.2723C555.336 37.0765 569.885 31.3694 587.423 31.3007L633.734 31.1193C651.271 31.0506 669.133 36.6308 680.59 45.7578L710.842 69.8587C722.299 78.9857 725.611 90.273 719.53 99.4687L703.472 123.751C697.391 132.947 682.841 138.654 665.303 138.722L618.993 138.904C601.455 138.973 583.594 133.392 572.137 124.265L541.884 100.165C530.427 91.0375 527.116 79.7502 533.197 70.5545L549.254 46.2723Z" fill="url(#paint7_linear)"/>
<path opacity="0.2" d="M648.939 38.2696C655.02 29.0738 669.57 23.3667 687.108 23.298L760.93 23.0088C778.468 22.9402 796.329 28.5203 807.786 37.6474L856.011 76.0658C867.467 85.1928 870.779 96.4801 864.698 105.676L839.101 144.383C833.02 153.579 818.47 159.286 800.932 159.355L727.11 159.644C709.573 159.713 691.711 154.133 680.254 145.006L632.029 106.587C620.573 97.4602 617.261 86.1729 623.342 76.9771L648.939 38.2696Z" fill="url(#paint8_linear)"/>
</g>
<defs>
<linearGradient id="paint0_linear" x1="400.5" y1="0" x2="400.5" y2="112" gradientUnits="userSpaceOnUse">
<stop stop-color="#10141F"/>
<stop offset="1" stop-color="#132030"/>
</linearGradient>
<linearGradient id="paint1_linear" x1="166.981" y1="71.6373" x2="98.0686" y2="-104.048" gradientUnits="userSpaceOnUse">
<stop stop-color="#3377FF"/>
<stop offset="1" stop-color="#3377FF" stop-opacity="0"/>
</linearGradient>
<linearGradient id="paint2_linear" x1="-32.6617" y1="23.6302" x2="23.8327" y2="165.703" gradientUnits="userSpaceOnUse">
<stop stop-color="#31A79B"/>
<stop offset="1" stop-color="#31C2CC" stop-opacity="0.36"/>
</linearGradient>
<linearGradient id="paint3_linear" x1="696.059" y1="-50.3698" x2="752.553" y2="91.7031" gradientUnits="userSpaceOnUse">
<stop stop-color="#314BA7"/>
<stop offset="1" stop-color="#31C2CC" stop-opacity="0.36"/>
</linearGradient>
<linearGradient id="paint4_linear" x1="94.0589" y1="58.6302" x2="150.553" y2="200.703" gradientUnits="userSpaceOnUse">
<stop stop-color="#317DA7" stop-opacity="0.16"/>
<stop offset="1" stop-color="#31C2CC" stop-opacity="0.36"/>
</linearGradient>
<linearGradient id="paint5_linear" x1="502.473" y1="-85.1975" x2="571.385" y2="90.4879" gradientUnits="userSpaceOnUse">
<stop stop-color="#2AD4B7"/>
<stop offset="1" stop-color="#2AD4B7" stop-opacity="0"/>
</linearGradient>
<linearGradient id="paint6_linear" x1="206.387" y1="-34.2158" x2="256.223" y2="91.1117" gradientUnits="userSpaceOnUse">
<stop stop-color="#2AD4B7"/>
<stop offset="1" stop-color="#2AD4B7" stop-opacity="0"/>
</linearGradient>
<linearGradient id="paint7_linear" x1="559.082" y1="31.4117" x2="613.466" y2="170.061" gradientUnits="userSpaceOnUse">
<stop stop-color="#3377FF"/>
<stop offset="1" stop-color="#3377FF" stop-opacity="0"/>
</linearGradient>
<linearGradient id="paint8_linear" x1="658.766" y1="23.409" x2="727.678" y2="199.094" gradientUnits="userSpaceOnUse">
<stop stop-color="#3377FF"/>
<stop offset="1" stop-color="#3377FF" stop-opacity="0"/>
</linearGradient>
<clipPath id="clip0">
<rect width="801" height="112" fill="white"/>
</clipPath>
</defs>
</svg>
