<svg width="801" height="112" viewBox="0 0 801 112" fill="none" xmlns="http://www.w3.org/2000/svg">
<g clip-path="url(#clip0)">
<rect width="801" height="112" fill="#222222"/>
<path d="M703.311 -17.924C725.623 -48.8474 775.62 -24.0775 799.528 -45.6927C820.593 -64.7374 833.91 -101.853 833.91 -101.853L815.648 -112.992L814.753 -111.395L827.836 -103.917C819.153 -87.2095 806.147 -62.907 800.657 -56.2472C774.14 -23.9217 716.355 -56.6366 697.042 -17.3398C676.249 24.9169 786.951 48.9857 758.798 92.7613C730.373 136.965 645.994 67.7967 613.441 110.56C604.252 122.633 608.418 149.857 614.142 172.095L622.787 177.041C616.829 151.726 613.441 124.425 621.969 111.572C648.174 71.925 727.258 145.105 768.572 95.877C797.036 61.8769 674.73 21.6064 703.311 -17.924Z" fill="#1A8180"/>
<path d="M673.679 206.173C664.996 184.519 656.702 155.854 667.255 143.469C692.409 113.948 755.606 161.852 755.606 161.852C755.606 161.852 787.418 110.131 760.979 126.138C733.722 142.69 672.433 99.5769 642.568 121.27C627.421 135.797 633.417 163.994 637.856 185.648L673.679 206.173Z" fill="#2DAAAA"/>
<path d="M897.653 -108.007C897.653 -108.007 853.38 -53.8715 811.482 -34.3205C776.204 -17.8073 742.055 -31.3995 728.855 -6.47391C714.642 20.3601 749.609 30.564 764.951 45.2468C788.431 67.7577 815.026 118.972 815.026 118.972L814.831 54.5549C814.831 54.5549 730.685 24.9947 747.896 0.536415C762.809 -20.6504 852.484 -16.8336 852.484 -16.8336L897.653 -108.007Z" fill="#2DAAAA"/>
<path d="M697.042 -17.3399C716.356 -56.5977 774.14 -23.8828 800.657 -56.2472C806.148 -62.9459 819.153 -87.2484 827.836 -103.917L804.473 -117.276C804.473 -117.237 804.434 -117.237 804.434 -117.198C804.434 -117.198 804.434 -117.159 804.395 -117.159L804.357 -117.12C804.357 -117.081 804.318 -117.081 804.318 -117.042C804.318 -117.042 804.318 -117.003 804.279 -117.003C804.279 -116.964 804.24 -116.925 804.24 -116.925C804.24 -116.925 804.24 -116.925 804.24 -116.887C804.24 -116.848 804.201 -116.809 804.201 -116.77C804.201 -116.77 804.201 -116.731 804.162 -116.731C804.123 -116.692 804.123 -116.653 804.084 -116.614C804.084 -116.614 804.084 -116.614 804.084 -116.575C804.045 -116.536 804.045 -116.458 804.006 -116.419C804.006 -116.419 804.006 -116.419 804.006 -116.38C803.967 -116.341 803.967 -116.302 803.928 -116.224C803.928 -116.224 803.928 -116.186 803.889 -116.186C803.85 -116.108 803.811 -116.069 803.772 -115.991C803.733 -115.913 803.695 -115.874 803.656 -115.796C803.656 -115.796 803.656 -115.796 803.656 -115.757C803.617 -115.718 803.578 -115.64 803.578 -115.601C803.578 -115.562 803.539 -115.562 803.539 -115.523C803.5 -115.446 803.461 -115.368 803.422 -115.29C803.383 -115.212 803.344 -115.134 803.305 -115.056C803.305 -115.056 803.305 -115.017 803.266 -115.017C802.955 -114.394 802.565 -113.693 802.098 -112.914V-112.875C801.981 -112.641 801.865 -112.447 801.709 -112.213C801.709 -112.213 801.709 -112.174 801.67 -112.174C801.631 -112.057 801.553 -111.979 801.475 -111.862L801.436 -111.824C801.397 -111.707 801.319 -111.629 801.241 -111.512C801.241 -111.473 801.203 -111.473 801.203 -111.434C801.164 -111.317 801.086 -111.239 801.047 -111.122C801.047 -111.084 801.008 -111.084 801.008 -111.045C800.969 -110.928 800.891 -110.85 800.852 -110.733C800.852 -110.694 800.813 -110.655 800.813 -110.655C800.774 -110.538 800.696 -110.46 800.618 -110.344C800.618 -110.305 800.579 -110.305 800.579 -110.266C800.502 -110.149 800.463 -110.032 800.385 -109.915C800.385 -109.876 800.346 -109.876 800.346 -109.837C800.268 -109.72 800.229 -109.604 800.151 -109.487C800.112 -109.448 800.112 -109.409 800.073 -109.37C799.995 -109.253 799.956 -109.136 799.879 -109.058C799.879 -109.019 799.84 -108.98 799.84 -108.942C799.762 -108.825 799.723 -108.708 799.645 -108.591C799.645 -108.552 799.606 -108.552 799.606 -108.513C799.528 -108.396 799.45 -108.24 799.372 -108.124L799.333 -108.085C799.256 -107.968 799.178 -107.812 799.1 -107.695L799.061 -107.656C798.983 -107.5 798.905 -107.384 798.827 -107.228C798.827 -107.228 798.827 -107.189 798.788 -107.189C798.087 -105.943 797.309 -104.58 796.491 -103.177C796.413 -103.022 796.296 -102.866 796.218 -102.671C796.218 -102.632 796.179 -102.593 796.179 -102.593C796.102 -102.437 796.024 -102.321 795.946 -102.165C795.907 -102.126 795.907 -102.087 795.868 -102.048C795.79 -101.892 795.712 -101.775 795.634 -101.62C795.595 -101.581 795.595 -101.542 795.556 -101.503C795.479 -101.347 795.401 -101.23 795.323 -101.074C795.284 -101.035 795.284 -100.996 795.245 -100.919C795.167 -100.802 795.089 -100.646 795.011 -100.529C794.972 -100.49 794.972 -100.451 794.933 -100.373C794.856 -100.256 794.778 -100.101 794.7 -99.9839C794.661 -99.9449 794.622 -99.867 794.622 -99.8281C794.544 -99.7112 794.466 -99.5555 794.388 -99.4386C794.349 -99.3997 794.349 -99.3607 794.31 -99.2828C794.233 -99.127 794.155 -99.0102 794.077 -98.8544C794.038 -98.8155 794.038 -98.7765 793.999 -98.6986C793.921 -98.5428 793.843 -98.426 793.765 -98.2702C793.726 -98.2313 793.687 -98.1534 793.687 -98.1144C793.61 -97.9586 793.532 -97.8418 793.454 -97.686C793.415 -97.6471 793.415 -97.6081 793.376 -97.5302C793.298 -97.3744 793.22 -97.2576 793.103 -97.1018C793.064 -97.0629 793.064 -97.0239 793.025 -96.985C792.948 -96.8292 792.831 -96.6734 792.753 -96.5176C792.714 -96.4787 792.714 -96.4398 792.675 -96.4008C792.597 -96.245 792.48 -96.0892 792.402 -95.9334C792.363 -95.8945 792.364 -95.8556 792.325 -95.8166C792.208 -95.6608 792.13 -95.4661 792.013 -95.3103C792.013 -95.2714 791.974 -95.2714 791.974 -95.2324C791.857 -95.0377 791.74 -94.843 791.624 -94.6482C791.04 -93.6746 790.417 -92.6619 789.833 -91.6883C789.833 -91.6493 789.794 -91.6494 789.794 -91.6104C789.677 -91.4546 789.599 -91.2599 789.482 -91.1041L789.404 -90.9873C789.326 -90.8315 789.21 -90.6757 789.132 -90.5199C789.093 -90.481 789.054 -90.4031 789.054 -90.3641C788.976 -90.2083 788.859 -90.0525 788.781 -89.9357C788.742 -89.8968 788.703 -89.8189 788.664 -89.7799C788.587 -89.6242 788.47 -89.5073 788.392 -89.3515C788.353 -89.2736 788.314 -89.2347 788.275 -89.1568C788.197 -89.0399 788.119 -88.8842 788.002 -88.7673C787.963 -88.6894 787.925 -88.6505 787.886 -88.5726C787.808 -88.4558 787.73 -88.3 787.613 -88.1831C787.574 -88.1052 787.535 -88.0663 787.496 -87.9884C787.418 -87.8716 787.34 -87.7158 787.263 -87.5989C787.224 -87.521 787.185 -87.4821 787.146 -87.4042C787.068 -87.2874 786.99 -87.1316 786.912 -87.0147C786.873 -86.9368 786.834 -86.8979 786.795 -86.82C786.717 -86.7032 786.64 -86.5474 786.562 -86.4305C786.523 -86.3527 786.484 -86.3137 786.445 -86.2358C786.367 -86.119 786.289 -85.9632 786.211 -85.8464C786.172 -85.7685 786.133 -85.7295 786.094 -85.6516C786.017 -85.5348 785.939 -85.379 785.822 -85.2622C785.783 -85.1843 785.744 -85.1453 785.705 -85.0674C785.627 -84.9506 785.549 -84.7948 785.471 -84.678C785.432 -84.6001 785.394 -84.5611 785.355 -84.4832C785.277 -84.3664 785.199 -84.2106 785.082 -84.0938C785.043 -84.0159 785.004 -83.9769 784.965 -83.899C784.887 -83.7433 784.77 -83.6264 784.693 -83.4706C784.654 -83.4317 784.615 -83.3538 784.576 -83.3148C784.498 -83.1591 784.381 -83.0422 784.303 -82.8864C784.264 -82.8475 784.225 -82.7696 784.186 -82.7306C784.07 -82.5749 783.992 -82.4191 783.875 -82.2633C783.836 -82.2244 783.836 -82.1854 783.797 -82.1465C783.68 -81.9517 783.563 -81.796 783.447 -81.6012L783.408 -81.5623C783.018 -80.9781 782.629 -80.3939 782.24 -79.8097L782.201 -79.7707C782.084 -79.615 781.967 -79.4202 781.85 -79.2644C781.811 -79.2255 781.772 -79.1476 781.733 -79.1087C781.655 -78.9529 781.539 -78.836 781.461 -78.6802C781.422 -78.6024 781.383 -78.5634 781.344 -78.4855C781.266 -78.3687 781.188 -78.2518 781.071 -78.0961C781.032 -78.0182 780.994 -77.9792 780.955 -77.9013C780.877 -77.7845 780.799 -77.6676 780.721 -77.5508C780.682 -77.4729 780.643 -77.434 780.565 -77.3561C780.487 -77.2392 780.409 -77.1224 780.332 -77.0056C780.293 -76.9277 780.254 -76.8498 780.176 -76.8108C780.098 -76.694 780.02 -76.5771 779.942 -76.4603C779.903 -76.3824 779.864 -76.3045 779.786 -76.2656C779.709 -76.1487 779.631 -76.0319 779.553 -75.9151C779.514 -75.8372 779.436 -75.7593 779.397 -75.7203C779.319 -75.6035 779.241 -75.4866 779.163 -75.4088C779.124 -75.3309 779.047 -75.253 779.008 -75.1751C778.93 -75.0582 778.852 -74.9804 778.774 -74.8635C778.735 -74.7856 778.657 -74.7077 778.618 -74.6298C778.54 -74.513 778.462 -74.4351 778.385 -74.3183C778.346 -74.2404 778.268 -74.1625 778.229 -74.0846C778.151 -73.9678 778.073 -73.8898 777.995 -73.773C777.956 -73.6951 777.878 -73.6172 777.84 -73.5393C777.762 -73.4225 777.684 -73.3446 777.606 -73.2278C777.567 -73.1499 777.489 -73.072 777.45 -73.033C777.372 -72.9162 777.294 -72.8383 777.216 -72.7215C777.178 -72.6436 777.1 -72.5657 777.061 -72.5267C776.983 -72.4099 776.905 -72.332 776.827 -72.2152C776.788 -72.1373 776.71 -72.0983 776.671 -72.0204C776.593 -71.9036 776.516 -71.8257 776.438 -71.7089C776.399 -71.631 776.321 -71.592 776.282 -71.5141C776.204 -71.3973 776.126 -71.3194 776.048 -71.2026C776.009 -71.1247 775.97 -71.0857 775.893 -71.0078C775.815 -70.891 775.737 -70.8131 775.659 -70.6963C775.62 -70.6573 775.581 -70.5794 775.542 -70.5405C775.464 -70.4236 775.386 -70.3068 775.27 -70.19C775.231 -70.151 775.192 -70.1121 775.153 -70.0342C775.036 -69.9173 774.958 -69.7615 774.841 -69.6447C774.841 -69.6058 774.802 -69.6058 774.802 -69.5668C774.685 -69.411 774.569 -69.2552 774.413 -69.0995C774.296 -68.9437 774.179 -68.7879 774.062 -68.6321C774.024 -68.5932 773.985 -68.5542 773.946 -68.5153C773.868 -68.3984 773.751 -68.2816 773.673 -68.2037C773.634 -68.1647 773.595 -68.0869 773.556 -68.0479C773.478 -67.97 773.4 -67.8532 773.323 -67.7753C773.284 -67.6974 773.245 -67.6584 773.167 -67.6195C773.089 -67.5416 773.011 -67.4637 772.972 -67.3469C772.933 -67.269 772.855 -67.23 772.816 -67.1521C772.739 -67.0742 772.661 -66.9964 772.622 -66.9185C772.583 -66.8406 772.505 -66.8016 772.466 -66.7237C772.388 -66.6458 772.349 -66.568 772.271 -66.4901C772.232 -66.4122 772.155 -66.3732 772.116 -66.2953C772.038 -66.2174 771.999 -66.1395 771.921 -66.0616C771.882 -65.9838 771.804 -65.9448 771.765 -65.8669C771.687 -65.789 771.648 -65.7111 771.57 -65.6332C771.531 -65.5554 771.454 -65.5164 771.415 -65.4385C771.337 -65.3606 771.298 -65.2827 771.22 -65.2438C771.181 -65.2048 771.103 -65.1269 771.064 -65.088C770.986 -65.0101 770.947 -64.9322 770.869 -64.8933C770.831 -64.8543 770.753 -64.7764 770.714 -64.7375C770.636 -64.6596 770.597 -64.6206 770.519 -64.5428C770.48 -64.5038 770.402 -64.4259 770.363 -64.387C770.285 -64.3091 770.247 -64.2701 770.169 -64.1922C770.13 -64.1533 770.052 -64.0754 770.013 -64.0364C769.935 -63.9585 769.896 -63.9196 769.818 -63.8417C769.779 -63.8028 769.701 -63.7249 769.662 -63.6859C769.585 -63.608 769.546 -63.5691 769.468 -63.4912C769.429 -63.4523 769.351 -63.3744 769.312 -63.3354C769.234 -63.2575 769.195 -63.2186 769.117 -63.1407C769.078 -63.1017 769 -63.0239 768.962 -62.9849C768.884 -62.907 768.845 -62.8681 768.767 -62.8291C768.728 -62.7902 768.65 -62.7512 768.611 -62.6733C768.533 -62.6344 768.494 -62.5565 768.416 -62.5175C768.377 -62.4786 768.339 -62.4397 768.261 -62.4007C768.183 -62.3618 768.144 -62.2839 768.066 -62.2449C768.027 -62.206 767.988 -62.167 767.949 -62.1281C767.871 -62.0891 767.832 -62.0112 767.754 -61.9723C767.715 -61.9333 767.677 -61.8944 767.638 -61.8555C767.56 -61.7776 767.482 -61.7386 767.443 -61.6607C767.404 -61.6218 767.365 -61.5828 767.326 -61.5828C767.209 -61.5049 767.131 -61.427 767.015 -61.3102C736.837 -36.6572 690.968 -54.4946 678.43 -31.6332C653.47 13.8561 757.669 40.2227 733.411 80.5321C726.83 91.8655 717.641 96.7727 706.582 97.7074C691.941 98.9537 674.925 95.4485 656.936 92.6055C636.649 89.4119 620.606 86.2183 596.659 98.3695C593.388 100.005 589.494 101.174 586.107 104.64C580.539 108.573 575.126 113.559 569.869 119.751L569.207 118.388L551.335 136.381L613.831 172.134C608.146 149.895 603.941 122.672 613.13 110.599C645.683 67.7967 730.101 136.965 758.487 92.8002C786.912 48.9856 676.249 24.9168 697.042 -17.3399Z" fill="#105650"/>
<path d="M789.871 -126C789.871 -126 773.595 -80.4329 749.414 -64.7375C719.198 -45.1086 675.86 -63.647 662.737 -37.7867C636.259 14.3234 737.85 30.7588 713.864 71.6524C685.633 119.79 599.657 52.1013 560.213 99.0705L546 114.221L566.754 113.325L566.832 112.935L570.064 119.712C626.914 52.6465 705.18 129.565 733.605 80.4931C757.163 39.7943 653.665 13.8171 678.624 -31.6721C691.162 -54.5336 737.032 -36.6962 767.209 -61.3492C780.526 -72.2541 804.59 -117.549 804.59 -117.549L789.871 -126Z" fill="#1A8180"/>
<path d="M98.2217 140.952C72.4398 176.685 14.6666 148.062 -12.9601 173.039C-37.3022 195.046 -52.6904 237.935 -52.6904 237.935L-31.5878 250.806L-30.5531 248.961L-45.6712 240.32C-35.6374 221.013 -20.6091 192.931 -14.2649 185.235C16.3765 147.882 83.1485 185.685 105.466 140.277C129.493 91.4476 1.57323 63.6352 34.1044 13.051C66.9505 -38.0283 164.454 41.8984 202.069 -7.51573C212.688 -21.4669 207.874 -52.9245 201.259 -78.6217L191.271 -84.3372C198.155 -55.0848 202.069 -23.5371 192.216 -8.68587C161.934 37.128 70.55 -47.4341 22.8107 9.45067C-10.0804 48.739 131.248 95.2729 98.2217 140.952Z" fill="#1A8180"/>
<path d="M132.462 -118C142.496 -92.9779 152.08 -59.8551 139.886 -45.5439C110.82 -11.4311 37.7933 -66.7858 37.7933 -66.7858C37.7933 -66.7858 1.03264 -7.02069 31.584 -25.5173C63.0803 -44.6439 133.902 5.17533 168.413 -19.8918C185.916 -36.6782 178.987 -69.261 173.857 -94.2831L132.462 -118Z" fill="#2DAAAA"/>
<path d="M-126.347 245.046C-126.347 245.046 -75.188 182.49 -26.7737 159.898C13.9915 140.817 53.4519 156.523 68.7051 127.721C85.1281 96.713 44.7229 84.922 26.995 67.9556C-0.136818 41.9434 -30.8683 -17.2366 -30.8683 -17.2366L-30.6433 57.1997C-30.6433 57.1997 66.5904 91.3576 46.7027 119.62C29.4697 144.102 -74.1532 139.692 -74.1532 139.692L-126.347 245.046Z" fill="#2DAAAA"/>
<path d="M105.465 140.277C83.148 185.64 16.3759 147.837 -14.2655 185.235C-20.6097 192.976 -35.638 221.058 -45.6718 240.32L-18.675 255.756C-18.675 255.711 -18.6301 255.711 -18.6301 255.666C-18.6301 255.666 -18.63 255.621 -18.585 255.621L-18.54 255.576C-18.54 255.531 -18.4951 255.531 -18.4951 255.486C-18.4951 255.486 -18.495 255.441 -18.45 255.441C-18.45 255.396 -18.4051 255.351 -18.4051 255.351C-18.4051 255.351 -18.4051 255.351 -18.4051 255.306C-18.4051 255.261 -18.36 255.216 -18.36 255.171C-18.36 255.171 -18.36 255.126 -18.315 255.126C-18.27 255.081 -18.2701 255.036 -18.2251 254.991C-18.2251 254.991 -18.2251 254.991 -18.2251 254.946C-18.1801 254.901 -18.1801 254.811 -18.1351 254.766C-18.1351 254.766 -18.1351 254.766 -18.1351 254.721C-18.0901 254.676 -18.0901 254.631 -18.0451 254.541C-18.0451 254.541 -18.0451 254.496 -18.0001 254.496C-17.9551 254.406 -17.9101 254.361 -17.8651 254.271C-17.8201 254.181 -17.7752 254.136 -17.7302 254.046C-17.7302 254.046 -17.7302 254.046 -17.7302 254.001C-17.6852 253.956 -17.6401 253.866 -17.6401 253.821C-17.6401 253.776 -17.5952 253.776 -17.5952 253.731C-17.5502 253.641 -17.5052 253.551 -17.4602 253.461C-17.4152 253.371 -17.3701 253.281 -17.3252 253.191C-17.3252 253.191 -17.3252 253.146 -17.2802 253.146C-16.9203 252.426 -16.4703 251.616 -15.9304 250.716V250.671C-15.7954 250.401 -15.6604 250.176 -15.4804 249.906C-15.4804 249.906 -15.4804 249.861 -15.4354 249.861C-15.3904 249.726 -15.3004 249.636 -15.2104 249.501L-15.1654 249.456C-15.1204 249.321 -15.0304 249.231 -14.9404 249.096C-14.9404 249.051 -14.8955 249.051 -14.8955 249.006C-14.8505 248.871 -14.7604 248.781 -14.7155 248.646C-14.7155 248.601 -14.6705 248.601 -14.6705 248.556C-14.6255 248.421 -14.5355 248.331 -14.4905 248.196C-14.4905 248.151 -14.4456 248.106 -14.4456 248.106C-14.4005 247.971 -14.3105 247.881 -14.2206 247.746C-14.2206 247.701 -14.1755 247.701 -14.1755 247.656C-14.0855 247.521 -14.0406 247.386 -13.9506 247.251C-13.9506 247.206 -13.9056 247.206 -13.9056 247.161C-13.8156 247.026 -13.7706 246.891 -13.6807 246.756C-13.6357 246.711 -13.6356 246.666 -13.5906 246.621C-13.5006 246.486 -13.4556 246.351 -13.3656 246.261C-13.3656 246.216 -13.3207 246.171 -13.3207 246.126C-13.2307 245.991 -13.1857 245.856 -13.0957 245.721C-13.0957 245.676 -13.0507 245.676 -13.0507 245.631C-12.9607 245.495 -12.8708 245.315 -12.7808 245.18L-12.7357 245.135C-12.6457 245 -12.5557 244.82 -12.4657 244.685L-12.4208 244.64C-12.3308 244.46 -12.2408 244.325 -12.1508 244.145C-12.1508 244.145 -12.1508 244.1 -12.1058 244.1C-11.2959 242.66 -10.396 241.085 -9.45108 239.465C-9.36108 239.285 -9.22614 239.105 -9.13614 238.88C-9.13614 238.835 -9.09109 238.79 -9.09109 238.79C-9.00113 238.61 -8.91119 238.475 -8.8212 238.295C-8.77621 238.25 -8.77625 238.205 -8.73123 238.16C-8.64124 237.98 -8.55121 237.845 -8.46121 237.665C-8.41623 237.62 -8.41626 237.575 -8.37125 237.53C-8.28128 237.35 -8.19122 237.215 -8.10126 237.035C-8.05624 236.99 -8.05627 236.945 -8.01129 236.855C-7.9213 236.72 -7.83127 236.54 -7.74127 236.405C-7.69626 236.36 -7.69629 236.315 -7.65131 236.225C-7.56131 236.09 -7.47137 235.91 -7.38141 235.775C-7.3364 235.73 -7.29132 235.64 -7.29132 235.595C-7.20132 235.46 -7.11142 235.28 -7.02142 235.145C-6.97641 235.1 -6.97644 235.055 -6.93146 234.965C-6.84146 234.785 -6.75143 234.65 -6.66144 234.47C-6.61646 234.425 -6.61646 234.38 -6.57147 234.29C-6.48148 234.11 -6.39145 233.975 -6.30145 233.795C-6.25647 233.75 -6.21149 233.659 -6.21149 233.614C-6.12149 233.434 -6.03146 233.299 -5.94147 233.119C-5.89648 233.074 -5.89651 233.029 -5.8515 232.939C-5.76151 232.759 -5.67154 232.624 -5.53656 232.444C-5.49158 232.399 -5.49161 232.354 -5.44659 232.309C-5.3566 232.129 -5.22165 231.949 -5.13165 231.769C-5.08667 231.724 -5.08658 231.679 -5.0416 231.634C-4.9516 231.454 -4.81662 231.274 -4.72665 231.094C-4.68164 231.049 -4.68167 231.004 -4.63669 230.959C-4.50168 230.779 -4.41168 230.554 -4.2767 230.374C-4.2767 230.329 -4.23178 230.329 -4.23178 230.284C-4.09677 230.059 -3.96173 229.834 -3.82675 229.609C-3.15182 228.484 -2.43198 227.314 -1.75705 226.189C-1.75705 226.144 -1.71201 226.144 -1.71201 226.099C-1.57703 225.919 -1.48703 225.694 -1.35205 225.514L-1.26208 225.379C-1.17209 225.199 -1.03711 225.019 -0.947144 224.839C-0.90213 224.794 -0.857178 224.704 -0.857178 224.659C-0.767181 224.479 -0.632111 224.299 -0.542114 224.164C-0.497131 224.119 -0.452209 224.029 -0.407227 223.984C-0.31723 223.804 -0.182159 223.669 -0.0921631 223.489C-0.0471802 223.399 -0.0022583 223.354 0.0427246 223.264C0.132721 223.129 0.222809 222.949 0.357788 222.814C0.402771 222.724 0.447693 222.679 0.492676 222.589C0.582672 222.454 0.672729 222.274 0.807739 222.139C0.852722 222.049 0.897644 222.004 0.942627 221.914C1.03262 221.778 1.12265 221.598 1.21265 221.463C1.25763 221.373 1.30264 221.328 1.34766 221.238C1.43762 221.103 1.52756 220.923 1.61755 220.788C1.66254 220.698 1.70755 220.653 1.75256 220.563C1.84253 220.428 1.93259 220.248 2.02255 220.113C2.06757 220.023 2.11258 219.978 2.15756 219.888C2.24756 219.753 2.33749 219.573 2.42746 219.438C2.47247 219.348 2.51749 219.303 2.56247 219.213C2.65247 219.078 2.74243 218.898 2.87741 218.763C2.92242 218.673 2.96744 218.628 3.01242 218.538C3.10242 218.403 3.19244 218.223 3.28244 218.088C3.32742 217.998 3.37234 217.953 3.41733 217.863C3.50732 217.728 3.59741 217.548 3.73239 217.413C3.77737 217.323 3.8223 217.278 3.86728 217.188C3.95728 217.008 4.09235 216.873 4.18234 216.693C4.22733 216.648 4.27225 216.558 4.31723 216.513C4.40723 216.333 4.5423 216.198 4.63229 216.018C4.67728 215.973 4.72217 215.883 4.76718 215.838C4.90216 215.658 4.99216 215.478 5.12717 215.298C5.17215 215.253 5.17212 215.208 5.21713 215.163C5.35211 214.938 5.48715 214.758 5.62213 214.533L5.66708 214.488C6.117 213.813 6.56696 213.138 7.01691 212.463L7.06195 212.418C7.19693 212.238 7.33188 212.013 7.46686 211.833C7.51184 211.788 7.55685 211.698 7.60187 211.653C7.69186 211.473 7.82681 211.338 7.91681 211.158C7.96179 211.068 8.00681 211.023 8.05182 210.933C8.14178 210.798 8.23178 210.663 8.36676 210.483C8.41174 210.393 8.45676 210.348 8.50177 210.258C8.59174 210.123 8.68179 209.988 8.77176 209.853C8.81677 209.762 8.86172 209.717 8.95169 209.627C9.04169 209.492 9.13171 209.357 9.22171 209.222C9.26672 209.132 9.31168 209.042 9.40164 208.997C9.49164 208.862 9.58167 208.727 9.67166 208.592C9.71664 208.502 9.7616 208.412 9.85159 208.367C9.94159 208.232 10.0316 208.097 10.1216 207.962C10.1666 207.872 10.2566 207.782 10.3015 207.737C10.3915 207.602 10.4816 207.467 10.5716 207.377C10.6165 207.287 10.7065 207.197 10.7515 207.107C10.8415 206.972 10.9315 206.882 11.0215 206.747C11.0665 206.657 11.1564 206.567 11.2014 206.477C11.2914 206.342 11.3815 206.252 11.4715 206.117C11.5164 206.027 11.6064 205.937 11.6514 205.847C11.7414 205.712 11.8314 205.622 11.9214 205.487C11.9664 205.397 12.0563 205.307 12.1013 205.217C12.1913 205.082 12.2813 204.992 12.3713 204.857C12.4164 204.767 12.5063 204.677 12.5513 204.632C12.6413 204.497 12.7313 204.407 12.8213 204.272C12.8663 204.182 12.9562 204.092 13.0012 204.047C13.0912 203.912 13.1812 203.822 13.2712 203.687C13.3162 203.597 13.4062 203.552 13.4512 203.462C13.5412 203.327 13.6312 203.237 13.7212 203.102C13.7662 203.012 13.8561 202.967 13.9011 202.877C13.9911 202.742 14.0811 202.652 14.1711 202.517C14.2161 202.427 14.2611 202.382 14.3511 202.292C14.4411 202.157 14.5311 202.067 14.6211 201.932C14.6661 201.887 14.7111 201.797 14.7561 201.752C14.8461 201.617 14.936 201.482 15.071 201.347C15.116 201.302 15.161 201.257 15.206 201.167C15.341 201.032 15.4309 200.852 15.5659 200.717C15.5659 200.672 15.6109 200.672 15.6109 200.627C15.7459 200.447 15.8809 200.267 16.0609 200.087C16.1959 199.907 16.3308 199.727 16.4658 199.547C16.5108 199.502 16.5558 199.457 16.6008 199.412C16.6908 199.277 16.8257 199.142 16.9157 199.052C16.9608 199.007 17.0058 198.917 17.0508 198.872C17.1407 198.782 17.2308 198.647 17.3208 198.557C17.3658 198.467 17.4107 198.422 17.5007 198.377C17.5907 198.287 17.6807 198.197 17.7257 198.062C17.7707 197.971 17.8607 197.926 17.9057 197.836C17.9957 197.746 18.0857 197.656 18.1307 197.566C18.1757 197.476 18.2656 197.431 18.3106 197.341C18.4006 197.251 18.4456 197.161 18.5356 197.071C18.5806 196.981 18.6705 196.936 18.7155 196.846C18.8055 196.756 18.8505 196.666 18.9405 196.576C18.9855 196.486 19.0756 196.441 19.1206 196.351C19.2105 196.261 19.2555 196.171 19.3455 196.081C19.3905 195.991 19.4805 195.946 19.5255 195.856C19.6154 195.766 19.6604 195.676 19.7504 195.631C19.7954 195.586 19.8855 195.496 19.9305 195.451C20.0205 195.361 20.0655 195.271 20.1555 195.226C20.2004 195.181 20.2904 195.091 20.3354 195.046C20.4254 194.956 20.4704 194.911 20.5604 194.821C20.6054 194.776 20.6953 194.686 20.7403 194.641C20.8303 194.551 20.8753 194.506 20.9653 194.416C21.0103 194.371 21.1003 194.281 21.1453 194.236C21.2353 194.146 21.2803 194.101 21.3703 194.011C21.4153 193.966 21.5052 193.876 21.5502 193.831C21.6402 193.741 21.6852 193.696 21.7752 193.606C21.8202 193.561 21.9102 193.471 21.9552 193.426C22.0452 193.336 22.0902 193.291 22.1802 193.201C22.2252 193.156 22.3152 193.066 22.3602 193.021C22.4501 192.931 22.4951 192.886 22.5851 192.841C22.6301 192.796 22.7201 192.751 22.7651 192.661C22.855 192.616 22.9 192.526 22.99 192.481C23.035 192.436 23.0801 192.391 23.1701 192.346C23.2601 192.301 23.3051 192.211 23.3951 192.166C23.44 192.121 23.4851 192.076 23.5301 192.031C23.62 191.986 23.665 191.896 23.755 191.851C23.8 191.806 23.8449 191.761 23.8899 191.716C23.9799 191.626 24.0699 191.581 24.1149 191.491C24.1599 191.446 24.2049 191.401 24.2499 191.401C24.3849 191.311 24.4749 191.221 24.6099 191.086C59.4808 162.599 112.485 183.21 126.973 156.793C155.814 104.229 35.4086 73.7611 63.4403 27.1821C71.0444 14.086 81.6631 8.41557 94.4417 7.33549C111.36 5.89537 131.022 9.94569 151.81 13.231C175.252 16.9213 193.79 20.6116 221.462 6.57039C225.241 4.68024 229.741 3.33012 233.655 -0.675217C240.09 -5.2206 246.344 -10.9811 252.418 -18.1367L253.183 -16.5616L273.836 -37.3533L201.619 -78.6668C208.188 -52.9696 213.048 -21.512 202.429 -7.56081C164.813 41.8983 67.2648 -38.0283 34.4637 13.006C1.61755 63.6352 129.493 91.4476 105.465 140.277Z" fill="#105650"/>
<path d="M-1.80194 265.837C-1.80194 265.837 17.0058 213.183 44.9475 195.046C79.8634 172.364 129.943 193.786 145.106 163.904C175.702 103.689 58.311 84.697 86.0277 37.4431C118.649 -18.1816 217.997 60.035 263.577 5.76044L280 -11.7461L256.018 -10.711L255.928 -10.261L252.193 -18.0916C186.501 59.4049 96.0616 -29.4775 63.2154 27.2272C35.9936 74.2562 155.59 104.274 126.748 156.838C112.26 183.255 59.2559 162.644 24.385 191.131C8.99677 203.732 -18.81 256.071 -18.81 256.071L-1.80194 265.837Z" fill="#1A8180"/>
<path d="M359.196 53.2988H349.549V45.3682H344.811V65.8299H349.549V57.6246H359.196V65.8299H363.899V45.3682H359.196V53.2988Z" fill="white"/>
<path d="M377.632 44.9562C371.384 44.9562 366.715 49.694 366.715 55.6334C366.715 61.5384 371.212 66.2419 377.564 66.2419C383.846 66.2419 388.481 61.5728 388.481 55.5647C388.481 49.6596 383.949 44.9562 377.632 44.9562ZM377.598 61.9504C374.13 61.9504 371.556 59.1009 371.556 55.5647C371.556 51.9942 374.165 49.2133 377.529 49.2133C380.962 49.2133 383.675 52.0285 383.675 55.599C383.675 59.2039 380.962 61.9504 377.598 61.9504Z" fill="white"/>
<path d="M389.339 49.591H396.652V65.8299H401.355V49.591H408.668V45.3682H389.339V49.591Z" fill="white"/>
<path d="M426.418 61.8474C423.087 61.8474 420.272 59.4098 420.272 55.5304C420.272 52.0629 422.916 49.3506 426.452 49.3506C428.889 49.3506 431.087 50.6896 432.803 52.3718H432.906V47.3594C431.361 46.0891 429.13 45.0248 426.143 45.0248C420.066 45.0248 415.431 49.6253 415.431 55.599C415.431 61.9847 420.032 66.1732 425.765 66.1732C428.786 66.1732 430.915 65.1776 432.632 63.976L433.25 58.9635L433.181 58.8949C431.327 60.6115 429.061 61.8474 426.418 61.8474Z" fill="white"/>
<path d="M451.137 51.7195C451.137 47.5654 448.218 45.3338 443.378 45.3338H436.237V65.7956H440.974V58.4142H442.21L448.253 65.8299H453.849L447.051 57.6246C449.557 56.526 451.137 54.4317 451.137 51.7195ZM443.069 54.9467H440.94V49.179H443.172C445.129 49.179 446.502 50.2433 446.502 52.0285C446.467 53.7794 445.094 54.9467 443.069 54.9467Z" fill="white"/>
<path d="M464.594 44.9562C458.346 44.9562 453.711 49.694 453.711 55.6334C453.711 61.5384 458.209 66.2419 464.56 66.2419C470.843 66.2419 475.478 61.5728 475.478 55.5647C475.443 49.6596 470.912 44.9562 464.594 44.9562ZM464.56 61.9504C461.093 61.9504 458.518 59.1009 458.518 55.5647C458.518 51.9942 461.127 49.2133 464.491 49.2133C467.925 49.2133 470.637 52.0285 470.637 55.599C470.637 59.2039 467.925 61.9504 464.56 61.9504Z" fill="white"/>
<path d="M485.64 53.5735C482.859 52.4405 482.035 51.8912 482.035 50.7239C482.035 49.6596 482.893 48.973 484.473 48.973C486.43 48.973 488.695 49.9 490.378 51.0329H490.446V46.5011C488.97 45.6428 487.082 45.0248 484.576 45.0248C480.147 45.0248 477.469 47.5311 477.469 51.1016C477.469 54.5691 479.838 56.0797 483.202 57.3499C485.915 58.4486 486.842 59.0322 486.842 60.2338C486.842 61.5041 485.812 62.2251 484.095 62.2251C481.932 62.2251 479.083 60.8518 476.988 59.1695L476.92 59.2039L477.606 64.2506C479.289 65.3836 481.486 66.1732 483.992 66.1732C488.421 66.1732 491.373 63.77 491.373 59.9248C491.408 56.629 489.382 55.0154 485.64 53.5735Z" fill="white"/>
<path d="M501.57 53.5735C498.789 52.4405 497.965 51.8912 497.965 50.7239C497.965 49.6596 498.823 48.973 500.403 48.973C502.36 48.973 504.625 49.9 506.308 51.0329H506.376V46.5011C504.9 45.6428 503.012 45.0248 500.506 45.0248C496.077 45.0248 493.399 47.5311 493.399 51.1016C493.399 54.5691 495.768 56.0797 499.132 57.3499C501.845 58.4486 502.771 59.0322 502.771 60.2338C502.771 61.5041 501.742 62.2251 500.025 62.2251C497.862 62.2251 495.013 60.8518 492.918 59.1695L492.85 59.2039L493.536 64.2506C495.219 65.3836 497.416 66.1732 499.922 66.1732C504.351 66.1732 507.303 63.77 507.303 59.9248C507.372 56.629 505.346 55.0154 501.57 53.5735Z" fill="white"/>
<g clip-path="url(#clip1)">
<path d="M314.599 76.1981C325.976 76.1981 335.198 66.9756 335.198 55.5991C335.198 44.2225 325.976 35 314.599 35C303.223 35 294 44.2225 294 55.5991C294 66.9756 303.223 76.1981 314.599 76.1981Z" fill="#20817F"/>
<path d="M312.823 68.6688C312.823 68.6688 318.719 65.4013 309.486 59.3637C304.157 55.8121 303.517 51.6922 305.365 47.5016C306.075 46.5779 306.999 45.5838 308.561 44.4471C303.164 49.5615 309.129 54.2494 312.255 56.3093C317.085 59.4346 323.337 65.1171 315.167 69.0239C315.167 69.0239 313.889 68.953 312.823 68.6688Z" fill="white"/>
<path d="M305.72 48.4248V49.2076C306.004 52.4037 309.272 55.1743 311.9 56.8787C316.162 59.648 318.577 62.489 318.435 64.6214C318.364 66.042 317.227 67.2495 315.026 68.3149C314.883 68.3149 314.599 68.244 314.315 68.244C314.812 67.6755 315.309 66.8231 315.309 65.829C315.381 63.6269 313.534 61.2119 309.769 58.7969C305.507 55.8833 304.157 52.5446 305.72 48.4248ZM308.563 44.4471C307 45.5125 306.077 46.5071 305.366 47.5016C303.448 51.6922 304.089 55.8121 309.486 59.3637C318.791 65.4726 312.823 68.6688 312.823 68.6688C313.817 68.953 315.167 69.0239 315.167 69.0239C323.336 65.1158 317.085 59.4346 312.255 56.3093C309.13 54.2494 303.163 49.5615 308.562 44.4471H308.563Z" fill="white"/>
<path d="M321.489 53.4683C318.152 50.2717 309.485 45.8677 315.238 42.103C313.457 42.2386 311.72 42.7213 310.124 43.5239C306.146 50.0587 316.02 54.0364 319.784 58.0141C323.194 61.3511 323.478 66.8218 318.364 68.8817C318.435 68.8817 318.506 68.8817 318.577 68.8109C323.975 67.1757 327.741 59.3637 321.489 53.4683Z" fill="white"/>
<path d="M313.107 43.0975C312.752 43.5947 312.61 44.1629 312.539 44.7314C312.468 47.2886 315.594 49.7036 318.292 51.8344C319.287 52.6171 320.211 53.3261 320.921 53.9655C323.407 56.3093 324.472 59.2929 323.764 62.2052C323.549 63.0559 323.265 63.8387 322.839 64.5489C323.194 62.1339 322.199 59.5059 320.211 57.5864C319.216 56.5206 317.796 55.4553 316.304 54.319C314.244 52.8272 312.113 51.1933 310.907 49.4885C309.63 47.642 309.486 45.9373 310.552 44.0916C311.404 43.6656 312.257 43.3088 313.109 43.0971L313.107 43.0975ZM315.169 42.1025C313.387 42.2382 311.649 42.721 310.053 43.5239C306.075 50.0587 315.949 54.0364 319.713 58.0141C323.123 61.3511 323.407 66.8218 318.292 68.8817C318.364 68.8817 318.435 68.8817 318.506 68.8109C323.903 67.1769 327.669 59.3637 321.418 53.4683C318.151 50.2717 309.485 45.8676 315.167 42.103L315.169 42.1025Z" fill="white"/>
</g>
</g>
<defs>
<clipPath id="clip0">
<rect width="801" height="112" fill="white"/>
</clipPath>
<clipPath id="clip1">
<rect width="41.1981" height="41.1981" fill="white" transform="translate(294 35)"/>
</clipPath>
</defs>
</svg>
