<svg width="800" height="112" viewBox="0 0 800 112" fill="none" xmlns="http://www.w3.org/2000/svg">
<g clip-path="url(#clip0_1582_1021)">
<rect width="800" height="112" fill="#141414"/>
<g style="mix-blend-mode:lighten" opacity="0.15">
<rect y="-134.252" width="104.835" height="619.05" fill="url(#paint0_linear_1582_1021)"/>
</g>
<g style="mix-blend-mode:lighten" opacity="0.99">
<rect x="0.809568" y="-402.219" width="103.216" height="739.405" stroke="url(#paint1_linear_1582_1021)" stroke-width="1.61914"/>
</g>
<g style="mix-blend-mode:lighten" opacity="0.15">
<rect x="172.267" y="-134.252" width="104.835" height="619.05" fill="url(#paint2_linear_1582_1021)"/>
</g>
<g style="mix-blend-mode:lighten" opacity="0.99">
<rect x="173.077" y="-402.219" width="103.216" height="739.405" stroke="url(#paint3_linear_1582_1021)" stroke-width="1.61914"/>
</g>
<g style="mix-blend-mode:lighten" opacity="0.15">
<rect x="345.566" y="-134.252" width="104.835" height="619.05" fill="url(#paint4_linear_1582_1021)"/>
</g>
<g style="mix-blend-mode:lighten" opacity="0.99">
<rect x="346.376" y="-456.19" width="103.216" height="739.405" stroke="url(#paint5_linear_1582_1021)" stroke-width="1.61914"/>
</g>
<g style="mix-blend-mode:lighten" opacity="0.15">
<rect x="518.865" y="-134.252" width="104.835" height="619.05" fill="url(#paint6_linear_1582_1021)"/>
</g>
<g style="mix-blend-mode:lighten" opacity="0.99">
<rect x="519.675" y="-456.19" width="103.216" height="739.405" stroke="url(#paint7_linear_1582_1021)" stroke-width="1.61914"/>
</g>
<g style="mix-blend-mode:lighten" opacity="0.15">
<rect x="692.164" y="-123.937" width="104.835" height="619.05" fill="url(#paint8_linear_1582_1021)"/>
</g>
<g style="mix-blend-mode:lighten" opacity="0.99">
<rect x="692.974" y="-445.875" width="103.216" height="739.405" stroke="url(#paint9_linear_1582_1021)" stroke-width="1.61914"/>
</g>
<path d="M362.855 65.6082C361.675 65.6082 360.57 65.5161 359.537 65.3318C358.524 65.1659 357.648 64.9171 356.911 64.5854V60.7981C357.722 61.1483 358.616 61.4339 359.593 61.6551C360.588 61.8762 361.528 61.9868 362.412 61.9868C363.518 61.9868 364.338 61.8854 364.873 61.6827C365.426 61.48 365.702 61.0377 365.702 60.3558C365.702 59.895 365.564 59.5265 365.288 59.25C365.03 58.9736 364.596 58.734 363.988 58.5313C363.398 58.3101 362.588 58.0521 361.556 57.7572C360.339 57.3886 359.372 56.9832 358.653 56.5409C357.934 56.0801 357.418 55.5272 357.105 54.8822C356.791 54.2372 356.635 53.4447 356.635 52.5048C356.635 50.8092 357.243 49.51 358.459 48.6069C359.676 47.7039 361.473 47.2523 363.85 47.2523C364.882 47.2523 365.886 47.3353 366.863 47.5011C367.84 47.6486 368.632 47.8236 369.241 48.0264V51.8413C368.448 51.528 367.647 51.2976 366.836 51.1502C366.043 51.0028 365.269 50.929 364.513 50.929C363.518 50.929 362.707 51.0212 362.081 51.2055C361.473 51.3898 361.168 51.8137 361.168 52.4771C361.168 52.8641 361.279 53.1775 361.5 53.417C361.721 53.6382 362.099 53.8409 362.634 54.0252C363.187 54.2095 363.933 54.4307 364.873 54.6887C366.329 55.0757 367.444 55.5457 368.218 56.0985C368.992 56.633 369.526 57.2596 369.821 57.9784C370.116 58.6787 370.264 59.4712 370.264 60.3558C370.264 61.9223 369.655 63.194 368.439 64.1707C367.223 65.1291 365.361 65.6082 362.855 65.6082ZM369.884 65.3318L376.684 47.5288H381.494L388.295 65.3318H383.651L382.047 61.2957H376.104L374.528 65.3318H369.884ZM376.712 58.006H381.439L379.062 51.8137L376.712 58.006ZM390.272 65.3318V47.5288H394.087L401.662 58.1719V47.5288H406.14V65.3318H402.298L394.723 54.7163V65.3318H390.272ZM412.797 65.3318V50.9567H407.572V47.5288H422.472V50.9567H417.247V65.3318H412.797ZM432.245 65.6082C429.352 65.6082 427.149 64.871 425.638 63.3967C424.127 61.9223 423.371 59.6278 423.371 56.5132C423.371 53.2143 424.127 50.8461 425.638 49.4086C427.149 47.9711 429.352 47.2523 432.245 47.2523C435.139 47.2523 437.341 47.9711 438.852 49.4086C440.363 50.8461 441.119 53.2143 441.119 56.5132C441.119 59.6278 440.363 61.9223 438.852 63.3967C437.341 64.871 435.139 65.6082 432.245 65.6082ZM432.245 61.8209C433.738 61.8209 434.825 61.3971 435.507 60.5493C436.208 59.6831 436.558 58.3377 436.558 56.5132C436.558 54.5228 436.208 53.1222 435.507 52.3113C434.825 51.4819 433.738 51.0673 432.245 51.0673C430.734 51.0673 429.628 51.4819 428.928 52.3113C428.246 53.1222 427.905 54.5228 427.905 56.5132C427.905 58.3377 428.246 59.6831 428.928 60.5493C429.628 61.3971 430.734 61.8209 432.245 61.8209ZM448.779 65.6082C447.6 65.6082 446.494 65.5161 445.462 65.3318C444.448 65.1659 443.573 64.9171 442.836 64.5854V60.7981C443.647 61.1483 444.541 61.4339 445.517 61.6551C446.512 61.8762 447.452 61.9868 448.337 61.9868C449.443 61.9868 450.263 61.8854 450.797 61.6827C451.35 61.48 451.627 61.0377 451.627 60.3558C451.627 59.895 451.488 59.5265 451.212 59.25C450.954 58.9736 450.521 58.734 449.913 58.5313C449.323 58.3101 448.512 58.0521 447.48 57.7572C446.264 57.3886 445.296 56.9832 444.577 56.5409C443.859 56.0801 443.343 55.5272 443.029 54.8822C442.716 54.2372 442.559 53.4447 442.559 52.5048C442.559 50.8092 443.167 49.51 444.384 48.6069C445.6 47.7039 447.397 47.2523 449.775 47.2523C450.807 47.2523 451.811 47.3353 452.788 47.5011C453.765 47.6486 454.557 47.8236 455.165 48.0264V51.8413C454.373 51.528 453.571 51.2976 452.76 51.1502C451.968 51.0028 451.194 50.929 450.438 50.929C449.443 50.929 448.632 51.0212 448.005 51.2055C447.397 51.3898 447.093 51.8137 447.093 52.4771C447.093 52.8641 447.204 53.1775 447.425 53.417C447.646 53.6382 448.024 53.8409 448.558 54.0252C449.111 54.2095 449.857 54.4307 450.797 54.6887C452.253 55.0757 453.368 55.5457 454.142 56.0985C454.916 56.633 455.451 57.2596 455.746 57.9784C456.041 58.6787 456.188 59.4712 456.188 60.3558C456.188 61.9223 455.58 63.194 454.363 64.1707C453.147 65.1291 451.286 65.6082 448.779 65.6082ZM463.833 65.3318V47.5288H476.77V50.9567H468.283V54.6887H475.747V58.1719H468.283V65.3318H463.833ZM487.227 65.6082C484.113 65.6082 481.735 64.8158 480.095 63.2308C478.473 61.6274 477.662 59.4067 477.662 56.5685C477.662 53.6013 478.455 51.3068 480.04 49.685C481.643 48.0632 484.03 47.2523 487.2 47.2523C488.287 47.2523 489.255 47.3353 490.102 47.5011C490.969 47.667 491.798 47.8881 492.59 48.1646V52.0625C490.987 51.399 489.301 51.0673 487.531 51.0673C485.688 51.0673 484.334 51.5096 483.468 52.3942C482.62 53.2788 482.196 54.6703 482.196 56.5685C482.196 58.3746 482.648 59.7015 483.551 60.5493C484.454 61.3971 485.799 61.8209 487.587 61.8209C488.453 61.8209 489.31 61.7472 490.158 61.5998C491.005 61.4339 491.826 61.1851 492.618 60.8534V64.7789C491.844 65.0369 491.024 65.2396 490.158 65.3871C489.291 65.5345 488.315 65.6082 487.227 65.6082Z" fill="white"/>
<path fill-rule="evenodd" clip-rule="evenodd" d="M292.269 25.3514L290.183 23.8696L288.125 25.3963L288.891 22.954L286.805 21.4697L289.365 21.4423L290.131 19L290.946 21.4273L293.506 21.3999L291.453 22.9266L292.269 25.3514Z" fill="#D3A809"/>
<path fill-rule="evenodd" clip-rule="evenodd" d="M325.315 25.3514L323.227 23.8696L321.169 25.3963L321.935 22.954L319.85 21.4697L322.409 21.4423L323.175 19L323.991 21.4273L326.55 21.3999L324.495 22.9266L325.315 25.3514Z" fill="#D3A809"/>
<path d="M336.768 56.3675C332.952 50.4302 329.943 43.3753 336.654 38.4384C336.704 38.4069 336.747 38.3648 336.778 38.3149C336.81 38.265 336.831 38.2086 336.838 38.1499C336.845 38.0911 336.84 38.0315 336.821 37.9752C336.803 37.919 336.772 37.8675 336.731 37.8247L326.358 26.6461C326.297 26.5865 326.218 26.5482 326.133 26.537C326.048 26.5258 325.962 26.5421 325.887 26.5837C314.287 32.8553 299.057 33.0698 287.486 26.5837C287.412 26.5414 287.326 26.5244 287.241 26.5352C287.156 26.546 287.076 26.584 287.015 26.6436L276.632 37.8346C276.591 37.8775 276.56 37.9289 276.542 37.9852C276.523 38.0414 276.518 38.1011 276.525 38.1598C276.532 38.2186 276.553 38.275 276.585 38.3249C276.617 38.3747 276.659 38.4169 276.709 38.4483C283.882 43.7221 279.908 51.1711 276.018 57.3105C272.301 63.1904 272.139 70.2828 274.863 76.5743C276.954 81.3965 281.227 84.5024 286.132 86.0266C289.659 87.1243 293.404 86.9322 296.976 87.8128C300.591 88.7034 303.692 90.7191 306.416 93.1913C306.49 93.2615 306.588 93.3006 306.69 93.3006C306.792 93.3006 306.891 93.2615 306.965 93.1913C311.705 88.878 316.706 87.5384 322.931 86.8798C327.002 86.4482 330.866 85.0338 334.067 82.4667C341.96 76.1353 341.753 64.3081 336.758 56.3775" fill="white"/>
<path d="M335.653 57.1234C329.861 48.3522 329.663 41.9808 335.06 38.0093L325.889 28.1279L324.824 28.7066C319.815 31.3127 313.77 32.6208 306.69 32.6308C299.61 32.6407 293.557 31.3327 288.529 28.7066C288.175 28.5146 287.818 28.3225 287.479 28.1279L278.301 38.0093C283.693 41.9808 283.5 48.3522 277.722 57.1234C274.168 62.4836 273.337 68.0833 275.228 73.9225C277.597 81.2402 283.292 85.1859 292.311 85.7597C297.939 86.1089 302.732 88.0839 306.69 91.6845C310.643 88.0839 315.428 86.1089 321.045 85.7597C330.069 85.1826 335.763 81.2369 338.128 73.9225C340.009 68.085 339.184 62.4853 335.653 57.1234ZM324.677 40.6786L327.596 38.84V41.654L324.677 43.5649V40.6786ZM278.658 57.7296C284.538 48.8253 284.973 42.2111 279.962 37.887L287.696 29.5324C287.801 29.5898 287.903 29.6496 288.008 29.6945C293.178 32.3938 299.406 33.7484 306.69 33.7583C311.667 33.7583 316.158 33.1222 320.124 31.8624L277.715 59.3037C277.997 58.7849 278.323 58.2485 278.663 57.7321L278.658 57.7296ZM279.641 79.4083C278.777 78.466 278.04 77.4152 277.448 76.2825L279.641 74.873V79.4083ZM280.574 69.8662V67.2842L283.966 65.1787V66.5582C283.906 67.0946 284.071 67.2567 284.465 67.0347L286.895 65.4032V62.9285C286.778 62.679 286.421 62.6641 285.845 62.8861L282.821 64.812C282.11 65.3109 281.574 65.5604 281.207 65.508C280.841 65.4556 280.643 65.1662 280.586 64.59L280.569 60.7831C280.481 60.2492 280.818 59.7453 281.566 59.2563L288.801 54.7659C289.125 54.6507 289.479 54.656 289.799 54.7809C289.99 54.9268 290.122 55.1367 290.171 55.3722V57.4776L286.91 59.4908V58.6776C286.835 58.3533 286.598 58.3059 286.229 58.5154L284.657 59.5133C284.435 59.641 284.239 59.8104 284.081 60.0122C284.032 60.08 283.998 60.157 283.98 60.2385C283.962 60.3199 283.961 60.4042 283.976 60.4862V61.5963C284.036 61.9381 284.213 62.0703 284.525 61.9531L287.781 59.9948C288.846 59.4958 289.647 59.658 290.166 60.4114L290.21 63.9513C290.223 65.034 289.929 65.7575 289.292 66.1017L281.948 70.8166C281.015 71.2632 280.556 70.9389 280.569 69.8562L280.574 69.8662ZM291.665 84.5747C289.613 84.412 287.591 83.9835 285.65 83.3V70.9738L291.665 67.0946V84.5747ZM294.985 62.4869L292.067 64.4128V61.539L294.985 59.7004V62.4869ZM303.682 88.0273C301.809 86.9061 299.79 86.0489 297.682 85.4803V63.1954L303.694 59.3162L303.682 88.0273ZM307.252 45.7727L305.089 47.1822L304.453 46.8678L302.023 48.4844V50.8119L303.976 49.6843V48.8636L305.652 47.7085V52.2862L303.829 53.4987V52.0193L302.068 53.1569V55.901L303.859 54.746V56.864L297.103 61.1348L297.073 59.0593L298.45 58.1238V50.8418L297.028 51.7V49.4922L307.257 42.8539L307.252 45.7727ZM308.052 51.226L310.971 49.3874V52.189L308.052 54.0999V51.226ZM315.721 85.4803C313.606 86.0485 311.581 86.9109 309.706 88.0423V55.4195L315.721 51.5378V85.4803ZM314.653 49.9662C313.765 50.4402 313.246 50.1458 313.084 49.0482V40.2919C313.142 39.7095 313.407 39.1675 313.832 38.7651L321.671 33.5812C322.202 33.3318 322.559 33.4191 322.723 33.8307V36.5249L319.67 38.5531V38.0791C319.64 37.7074 319.403 37.6949 318.959 38.0492L316.913 39.5609C316.759 39.7271 316.666 39.9409 316.649 40.1672L316.721 44.6426C316.71 44.8811 316.75 45.1193 316.839 45.3411C316.928 45.4858 317.088 45.5032 317.315 45.386L319.241 44.0963V41.5218L322.733 39.4038V43.4476C322.603 44.2855 322.183 45.051 321.546 45.6105L314.653 49.9662ZM327.738 83.3024C325.792 83.9893 323.765 84.422 321.708 84.5897V47.6412L327.74 43.7595L327.738 83.3024ZM337.07 73.5732C336.389 75.7231 335.258 77.7036 333.752 79.3833V56.2178C334.047 56.7168 334.374 57.2157 334.715 57.7296C338.06 62.7971 338.845 68.0808 337.07 73.5807" fill="#231F20"/>
<path d="M291.902 33.1949C290.041 33.1995 288.257 33.9408 286.941 35.2568C285.625 36.5728 284.884 38.3563 284.879 40.2173C284.866 41.1417 285.042 42.059 285.396 42.9128C285.75 43.7666 286.276 44.5388 286.94 45.1817C287.03 45.2541 287.12 45.3464 287.207 45.4187C288.474 46.6154 290.159 47.269 291.902 47.2398C293.289 47.2393 294.645 46.8276 295.798 46.057C296.951 45.2863 297.85 44.1912 298.381 42.9099C298.913 41.6286 299.052 40.2186 298.783 38.858C298.513 37.4974 297.846 36.2473 296.866 35.2654C296.225 34.5984 295.454 34.0709 294.599 33.7159C293.745 33.3609 292.827 33.186 291.902 33.2023V33.1949ZM291.919 33.8684C292.618 33.8697 293.313 33.9808 293.977 34.1977C293.983 34.203 293.988 34.2096 293.99 34.217C293.993 34.2244 293.994 34.2324 293.992 34.2401C295.696 37.2761 295.843 39.8856 294.491 42.0335C294.476 42.0185 294.446 42.0185 294.417 42.006C294.758 39.0424 293.825 36.3282 291.588 33.8859C291.701 33.8713 291.815 33.8655 291.929 33.8684H291.919ZM294.639 42.7594C294.615 42.8553 294.564 42.9421 294.491 43.0089C294.45 43.0706 294.399 43.126 294.342 43.1735C294.189 43.3021 294.014 43.4019 293.825 43.4679C293.598 43.553 293.357 43.5985 293.114 43.6026C293.087 43.5887 293.055 43.5826 293.024 43.5851C292.959 43.5817 292.895 43.5624 292.838 43.529C292.781 43.4955 292.733 43.4489 292.698 43.3931C292.676 43.335 292.671 43.2717 292.684 43.211C292.697 43.1503 292.728 43.0948 292.773 43.0513C292.78 43.0439 292.785 43.0343 292.787 43.0238H292.802C292.984 42.8128 293.22 42.6543 293.484 42.5648C293.658 42.4913 293.843 42.4466 294.032 42.4326C294.116 42.4311 294.199 42.4352 294.282 42.4451C294.376 42.4571 294.467 42.4876 294.549 42.5349C294.581 42.5663 294.61 42.6005 294.636 42.6372V42.6546C294.645 42.6882 294.645 42.7234 294.636 42.7569L294.639 42.7594ZM290.739 33.9682C293.112 36.3855 294.072 39.0673 293.691 42.031C293.562 42.0557 293.437 42.0959 293.319 42.1507C293.049 42.2404 292.802 42.3867 292.593 42.5798C289.267 41.9861 287.617 39.6411 287.643 35.5448C288.503 34.734 289.578 34.1869 290.739 33.9682ZM285.583 40.2049C285.562 38.7613 286.057 37.3577 286.977 36.2458C287.127 40.2173 288.873 42.5341 292.216 43.196C290.023 43.7448 287.875 43.2833 285.772 41.789C285.638 41.2719 285.572 40.7392 285.578 40.2049H285.583ZM287.446 44.6953C286.897 44.1584 286.45 43.5261 286.127 42.8293C288.187 44.0591 290.263 44.3984 292.381 43.8496C292.426 43.867 292.453 43.8945 292.516 43.9244C291.4 44.8574 289.729 45.1393 287.506 44.7377C287.483 44.7282 287.463 44.7137 287.446 44.6953ZM292.708 46.5164C292.458 46.5338 292.186 46.5463 291.922 46.5613C290.732 46.5677 289.565 46.2335 288.559 45.5983C290.721 45.748 292.32 45.23 293.356 44.0442V44.0267C293.44 44.0243 293.523 44.0151 293.606 43.9993C293.708 45.052 293.414 45.8952 292.718 46.5164H292.708ZM296.405 44.6953C295.674 45.4408 294.767 45.99 293.768 46.2919C294.212 45.5958 294.359 44.7676 294.239 43.7598C294.288 43.7412 294.333 43.716 294.374 43.6849C294.959 44.1894 295.672 44.5226 296.435 44.6479L296.39 44.6928L296.405 44.6953ZM297.013 43.9968C296.233 44.0031 295.476 43.7306 294.878 43.2284C294.908 43.1912 294.933 43.1501 294.953 43.1062C296.403 42.9149 297.504 42.0409 298.256 40.4843C298.22 41.7572 297.783 42.9863 297.008 43.9968H297.013ZM298.044 39.2245C297.422 41.0622 296.415 42.1299 295.023 42.4276C296.475 40.2498 296.445 37.6404 294.948 34.6343C295.477 34.9287 295.961 35.2975 296.385 35.7294C297.283 36.5899 297.893 37.707 298.131 38.9276C298.101 39.0174 298.071 39.1222 298.041 39.2245" fill="#231F20"/>
<path fill-rule="evenodd" clip-rule="evenodd" d="M110.147 37.6966L106.306 29.3053L97.1223 30.3615L103.921 24.114L100.084 15.7149L108.129 20.2467L114.927 13.9992L113.096 23.0533L121.141 27.5851L111.973 28.6504L110.147 37.6966Z" fill="#D7B021"/>
<path opacity="0.88" fill-rule="evenodd" clip-rule="evenodd" d="M684.263 96.6066L677.65 89.559L668.887 93.6721L673.55 85.2019L666.938 78.145L676.436 79.9587L681.1 71.4885L682.304 81.0869L691.802 82.9007L683.057 87.0175L684.263 96.6066Z" fill="#D69A42"/>
<g opacity="0.33" filter="url(#filter0_f_1582_1021)">
<path fill-rule="evenodd" clip-rule="evenodd" d="M712.708 65.6262L687.511 35.174L650.693 49.7277L671.888 16.3445L646.701 -14.1449L685.006 -4.32003L706.2 -37.7033L708.668 1.78078L746.973 11.6057L710.23 26.1794L712.708 65.6262Z" fill="#D3A809"/>
</g>
<g opacity="0.2" filter="url(#filter1_f_1582_1021)">
<path fill-rule="evenodd" clip-rule="evenodd" d="M50.7003 139.483L26.7933 104.018L-14.3722 115.756L11.9888 82.0932L-11.8645 46.6039L28.3049 61.2556L54.6659 27.5931L53.1152 70.3405L93.2846 84.9922L52.1582 96.7449L50.7003 139.483Z" fill="#D3A809"/>
</g>
</g>
<defs>
<filter id="filter0_f_1582_1021" x="630.701" y="-53.7033" width="132.272" height="135.329" filterUnits="userSpaceOnUse" color-interpolation-filters="sRGB">
<feFlood flood-opacity="0" result="BackgroundImageFix"/>
<feBlend mode="normal" in="SourceGraphic" in2="BackgroundImageFix" result="shape"/>
<feGaussianBlur stdDeviation="8" result="effect1_foregroundBlur_1582_1021"/>
</filter>
<filter id="filter1_f_1582_1021" x="-29.3721" y="12.5931" width="137.657" height="141.89" filterUnits="userSpaceOnUse" color-interpolation-filters="sRGB">
<feFlood flood-opacity="0" result="BackgroundImageFix"/>
<feBlend mode="normal" in="SourceGraphic" in2="BackgroundImageFix" result="shape"/>
<feGaussianBlur stdDeviation="7.5" result="effect1_foregroundBlur_1582_1021"/>
</filter>
<linearGradient id="paint0_linear_1582_1021" x1="52.4178" y1="-55.8" x2="52.4178" y2="175.498" gradientUnits="userSpaceOnUse">
<stop stop-color="white"/>
<stop offset="1" stop-color="white" stop-opacity="0"/>
</linearGradient>
<linearGradient id="paint1_linear_1582_1021" x1="52.4177" y1="-403.029" x2="52.4177" y2="116.983" gradientUnits="userSpaceOnUse">
<stop stop-color="white"/>
<stop offset="1" stop-color="white" stop-opacity="0"/>
</linearGradient>
<linearGradient id="paint2_linear_1582_1021" x1="224.685" y1="-55.8" x2="224.685" y2="175.498" gradientUnits="userSpaceOnUse">
<stop stop-color="white"/>
<stop offset="1" stop-color="white" stop-opacity="0"/>
</linearGradient>
<linearGradient id="paint3_linear_1582_1021" x1="224.685" y1="-403.029" x2="224.685" y2="116.983" gradientUnits="userSpaceOnUse">
<stop stop-color="white"/>
<stop offset="1" stop-color="white" stop-opacity="0"/>
</linearGradient>
<linearGradient id="paint4_linear_1582_1021" x1="397.984" y1="-55.8" x2="397.984" y2="175.498" gradientUnits="userSpaceOnUse">
<stop stop-color="white"/>
<stop offset="1" stop-color="white" stop-opacity="0"/>
</linearGradient>
<linearGradient id="paint5_linear_1582_1021" x1="397.984" y1="-457" x2="397.984" y2="63.0125" gradientUnits="userSpaceOnUse">
<stop stop-color="white"/>
<stop offset="1" stop-color="white" stop-opacity="0"/>
</linearGradient>
<linearGradient id="paint6_linear_1582_1021" x1="571.283" y1="-55.8" x2="571.283" y2="175.498" gradientUnits="userSpaceOnUse">
<stop stop-color="white"/>
<stop offset="1" stop-color="white" stop-opacity="0"/>
</linearGradient>
<linearGradient id="paint7_linear_1582_1021" x1="571.283" y1="-457" x2="571.283" y2="63.0125" gradientUnits="userSpaceOnUse">
<stop stop-color="white"/>
<stop offset="1" stop-color="white" stop-opacity="0"/>
</linearGradient>
<linearGradient id="paint8_linear_1582_1021" x1="744.582" y1="-45.4848" x2="744.582" y2="185.813" gradientUnits="userSpaceOnUse">
<stop stop-color="white"/>
<stop offset="1" stop-color="white" stop-opacity="0"/>
</linearGradient>
<linearGradient id="paint9_linear_1582_1021" x1="744.582" y1="-446.685" x2="744.582" y2="73.3279" gradientUnits="userSpaceOnUse">
<stop stop-color="white"/>
<stop offset="1" stop-color="white" stop-opacity="0"/>
</linearGradient>
<clipPath id="clip0_1582_1021">
<rect width="800" height="112" fill="white"/>
</clipPath>
</defs>
</svg>
