<svg xmlns="http://www.w3.org/2000/svg" xmlns:v="https://vecta.io/nano" xmlns:xlink="https://www.w3.org/1999/xlink" width="437" height="112" fill="none"><g clip-path="url(#J)"><path fill="#221816" d="M0 0h437v112H0z"/><path fill="url(#A)" fill-opacity=".3" d="M-50.386 71.291s-7.184 6.796-6.428 15.48 9.453 16.991 18.907 15.858c9.075-.755 17.772-11.327 12.479-25.297-5.294-14.725-37.057-33.226 11.722-89.86 0 0-23.445 44.175 7.94 67.206 18.529 13.215 42.351 61.166 13.235 81.177 0 0 63.148-13.592 9.453-95.146 0 0-55.207-78.156 32.141-122.709 0 0-31.007 54.747 8.697 88.728 0 0 51.805 43.042 55.964 67.206 0 0 18.907 65.319-88.861 120.066 0 0-103.609-54.747-98.693-113.647 0 .378 12.856-15.858 23.444-9.062z"/><path fill="url(#B)" fill-opacity=".3" d="M445.137 141.733s7.564 7.215 6.768 16.434-9.953 18.037-19.907 16.835c-9.555-.802-18.713-12.025-13.139-26.856 5.574-15.632 39.018-35.272-12.343-95.395 0 0 24.686 46.896-8.36 71.346-19.509 14.029-44.592 64.933-13.935 86.176 0 0-66.489-14.429-9.953-101.006 0 0 58.128-82.97-33.842-130.267 0 0 32.647 58.119-9.158 94.193 0 0-54.545 45.693-58.925 71.346 0 0-19.907 69.342 93.563 127.461 0 0 109.091-58.119 103.915-120.647 0 .401-13.536-16.835-24.684-9.62z"/><path fill="url(#C)" d="M458.133 85.081s5.132 4.925 4.592 11.217-6.753 12.312-13.505 11.491c-6.483-.547-12.695-8.208-8.914-18.331 3.782-10.67 26.47-24.076-8.373-65.116 0 0 16.747 32.011-5.671 48.7-13.235 9.576-30.251 44.323-9.454 58.824 0 0-45.106-9.85-6.752-68.947 0 0 39.434-56.635-22.958-88.919 0 0 22.147 39.672-6.213 64.296 0 0-37.003 31.19-39.974 48.7 0 0-13.505 47.332 63.473 87.004 0 0 74.006-39.672 70.495-82.353 0 .274-9.183-11.491-16.746-6.566z" opacity=".7"/><path fill="url(#D)" d="M105.386 127.291s7.185 6.796 6.428 15.48-9.453 16.991-18.906 15.858c-9.075-.755-17.773-11.327-12.479-25.297 5.294-14.725 37.057-33.225-11.723-89.86 0 0 23.445 44.175-7.94 67.206-18.529 13.215-42.351 61.166-13.235 81.177 0 0-63.148-13.592-9.453-95.146 0 0 55.207-78.156-32.141-122.709 0 0 31.007 54.747-8.697 88.728 0 0-51.805 43.042-55.964 67.206 0 0-18.907 65.319 88.862 120.066 0 0 103.609-54.747 98.693-113.647 0 .378-12.856-15.858-23.444-9.062z"/><path fill="url(#E)" d="M293.386 197.291s7.185 6.796 6.428 15.48-9.453 16.991-18.906 15.858c-9.076-.755-17.773-11.327-12.479-25.297 5.294-14.725 37.057-33.225-11.722-89.86 0 0 23.444 44.175-7.941 67.206-18.528 13.215-42.351 61.166-13.234 81.177 0 0-63.149-13.592-9.454-95.146 0 0 55.208-78.156-32.141-122.709 0 0 31.007 54.747-8.697 88.728 0 0-51.805 43.042-55.964 67.206 0 0-18.907 65.319 88.861 120.066 0 0 103.609-54.747 98.693-113.647 0 .378-12.856-15.858-23.444-9.062z"/><path fill="url(#F)" d="M179.609 204.274s-10.225 9.677-9.149 22.042 13.455 24.193 26.909 22.58c12.917-1.075 25.296-16.129 17.761-36.021-7.535-20.967-52.742-47.31 16.684-127.953 0 0-33.368 62.901 11.302 95.696 26.371 18.817 60.277 87.095 18.836 115.588 0 0 89.878-19.354 13.455-135.48 0 0-78.576-111.287 45.746-174.726 0 0-44.131 77.955 12.379 126.341 0 0 73.732 61.288 79.653 95.696 0 0 26.909 93.008-126.475 170.963 0 0-147.465-77.955-140.469-161.823 0 .537 18.299-22.581 33.368-12.903z"/><path fill="url(#G)" d="M34.107-151.6s-11.29-10.712-10.101-24.398 14.855-26.779 29.711-24.994c14.261 1.19 27.928 17.853 19.609 39.87-8.319 23.208-58.232 52.367 18.421 141.628 0 0-36.842-69.623 12.477-105.923 29.117-20.828 66.552-96.402 20.798-127.941 0 0 99.233 21.422 14.855 149.958 0 0-86.755 123.181 50.508 193.4 0 0-48.725-86.286 13.667-139.843 0 0 81.407-67.838 87.944-105.923 0 0 29.71-102.948-139.64-189.234 0 0-162.814 86.286-155.09 179.118 0-.596 20.203 24.993 36.841 14.282z"/><g fill="#fffdfa"><path d="M211.757 48.791c-.181.271-.271.451-.452.542s-.361.181-.632.181-.451-.09-.722-.181c-.271-.181-.542-.271-.903-.451s-.722-.361-1.083-.451c-.452-.181-.903-.181-1.444-.181-.903 0-1.625.181-2.077.632-.451.361-.722.903-.722 1.625a1.49 1.49 0 0 0 .451 1.083 3.25 3.25 0 0 0 1.084.722l1.534.542 1.806.542c.632.181 1.173.451 1.805.722s1.084.632 1.535 1.083.813.993 1.084 1.625a5.57 5.57 0 0 1 .451 2.257 7.36 7.36 0 0 1-.542 2.799c-.361.903-.812 1.625-1.535 2.257s-1.444 1.174-2.437 1.535-2.076.542-3.25.542c-.632 0-1.354-.09-2.077-.181s-1.354-.361-1.986-.542c-.632-.271-1.263-.542-1.805-.903s-1.083-.722-1.535-1.174l1.445-2.347a1.09 1.09 0 0 1 .451-.451c.181-.09.451-.181.632-.181a1.74 1.74 0 0 1 .903.271l.993.632c.361.271.812.451 1.264.632s1.083.271 1.715.271c.903 0 1.625-.181 2.076-.632.542-.361.723-.993.723-1.896 0-.542-.181-.903-.452-1.264-.271-.271-.632-.541-1.083-.812l-1.535-.542-1.715-.542c-.632-.181-1.174-.451-1.715-.722s-1.084-.632-1.535-1.083-.813-.993-1.084-1.715-.451-1.535-.451-2.528c0-.812.181-1.625.451-2.347.362-.722.813-1.444 1.445-2.076s1.444-1.083 2.347-1.444 1.986-.542 3.16-.542c.632 0 1.264.09 1.896.181s1.173.271 1.805.451 1.084.452 1.535.722.903.632 1.264.993l-1.083 2.347zm10.833 1.625c1.174 0 2.257.181 3.16.542.993.361 1.805.903 2.437 1.535.723.722 1.174 1.535 1.625 2.438.361.993.542 2.076.542 3.25 0 1.264-.181 2.347-.542 3.34s-.902 1.806-1.625 2.528-1.535 1.174-2.437 1.535a8.93 8.93 0 0 1-3.16.542c-1.174 0-2.257-.18-3.16-.542-.993-.361-1.805-.903-2.437-1.535a6.77 6.77 0 0 1-1.625-2.528c-.361-.993-.542-2.076-.542-3.34 0-1.174.181-2.257.542-3.25s.903-1.806 1.625-2.438c.722-.722 1.534-1.174 2.437-1.535s1.986-.542 3.16-.542zm0 12.368c1.083 0 1.806-.361 2.347-1.083s.723-1.896.723-3.34c0-1.535-.271-2.618-.723-3.34s-1.264-1.083-2.347-1.083-1.896.361-2.347 1.083-.722 1.896-.722 3.34c0 1.535.27 2.618.722 3.34s1.264 1.083 2.347 1.083zm15.618 3.432c-.722 0-1.354-.09-1.895-.361s-.994-.542-1.445-.903c-.361-.361-.632-.812-.903-1.444-.18-.542-.271-1.174-.271-1.806v-7.944h-1.263c-.271 0-.452-.09-.632-.271a.82.82 0 0 1-.271-.632v-1.806l2.437-.451.903-3.701c.09-.451.452-.722.993-.722h2.347v4.424h3.702v3.16h-3.702v7.583a1.53 1.53 0 0 0 .271.903c.181.271.452.361.722.361.181 0 .271 0 .452-.09.09 0 .18-.09.271-.09s.18-.09.27-.09.181-.09.271-.09c.181 0 .271 0 .362.09l.27.271 1.354 2.167c-.632.451-1.263.813-1.986.993a5.91 5.91 0 0 1-2.257.451zm13-15.8c.994 0 1.896.181 2.799.451.812.271 1.535.813 2.167 1.354.632.632 1.083 1.354 1.444 2.167s.542 1.896.542 2.979v.813c0 .181-.09.361-.181.542-.09.09-.18.181-.361.271-.09.09-.271.09-.541.09h-8.848c.181 1.264.542 2.167 1.174 2.799.632.542 1.444.903 2.437.903a5.44 5.44 0 0 0 1.355-.181c.362-.091.722-.271.992-.451s.542-.271.813-.451c.271-.09.542-.181.813-.181.361 0 .632.09.812.361l1.354 1.625c-.451.542-.993.993-1.535 1.354s-1.083.632-1.715.813c-.541.181-1.173.361-1.715.361-.542.09-1.083.09-1.625.09-1.083 0-2.076-.18-2.979-.542s-1.806-.903-2.438-1.535a6.77 6.77 0 0 1-1.625-2.528c-.451-.993-.632-2.257-.632-3.611 0-.993.181-1.986.542-2.889s.813-1.715 1.535-2.438c.632-.722 1.444-1.264 2.347-1.625s1.896-.542 3.069-.542zm.091 3.16c-.903 0-1.535.271-2.077.722-.451.542-.812 1.174-.993 2.167h5.688c0-.361-.091-.722-.181-1.083s-.271-.632-.451-.903-.452-.452-.813-.632c-.271-.181-.632-.271-1.173-.271zm9.389 12.368V50.687h2.708c.18 0 .451 0 .541.09s.271.09.362.181.18.181.27.361.091.271.181.542l.271 1.444c.541-.903 1.173-1.535 1.896-2.076s1.444-.722 2.257-.722c.722 0 1.263.18 1.715.542l-.632 3.34c0 .181-.09.361-.271.451-.09.09-.271.09-.451.09s-.361 0-.632-.09c-.271 0-.542-.09-.813-.09-1.173 0-2.167.632-2.798 1.896v9.389h-4.604v-.09zm17.423-19.499c0 .361-.09.722-.181.993-.18.361-.361.632-.632.813-.27.271-.541.451-.902.542-.361.181-.723.181-1.084.181s-.722-.09-1.083-.181c-.361-.181-.632-.361-.903-.542-.271-.271-.451-.542-.632-.812-.18-.361-.18-.632-.18-.993s.09-.722.18-1.083c.181-.361.361-.632.632-.812.271-.271.542-.451.903-.542.361-.181.632-.181 1.083-.181.361 0 .723.09 1.084.181a7.86 7.86 0 0 1 .902.542c.271.271.452.542.632.812.181.361.181.722.181 1.083zm-.452 4.243v15.257h-4.604V50.688h4.604zm14.175 15.257a2.79 2.79 0 0 1-.994-.18c-.18-.09-.361-.361-.541-.722l-.361-.813c-.361.361-.723.632-1.084.813-.361.271-.722.451-1.083.632s-.812.271-1.174.361c-.451.09-.902.09-1.444.09-.722 0-1.354-.09-1.896-.271s-1.083-.451-1.444-.812-.723-.812-.903-1.354-.361-1.174-.361-1.806c0-.542.18-1.083.451-1.715.271-.542.722-1.083 1.445-1.535s1.625-.903 2.708-1.174c1.173-.361 2.618-.451 4.333-.451v-.632c0-.903-.18-1.535-.541-1.986a2.18 2.18 0 0 0-1.535-.632c-.542 0-.993.09-1.354.181s-.632.271-.903.361c-.271.18-.542.271-.813.361s-.541.18-.902.18c-.271 0-.542-.09-.813-.271l-.541-.542-.813-1.445a8.91 8.91 0 0 1 3.069-1.806c1.083-.362 2.348-.632 3.612-.632.902 0 1.715.18 2.527.451.723.271 1.354.722 1.896 1.264s.903 1.174 1.174 1.896a6.89 6.89 0 0 1 .451 2.438v9.57h-2.166v.18zm-5.237-2.799c.632 0 1.084-.09 1.535-.271s.903-.542 1.354-.993v-2.076c-.903 0-1.625.09-2.257.181a4.54 4.54 0 0 0-1.444.451 1.67 1.67 0 0 0-.722.632c-.091.271-.181.451-.181.722 0 .542.181.903.451 1.083.362.18.723.271 1.264.271z"/></g><path fill="#ffcf65" d="M134.569 54.389s-1.715 1.625-1.535 3.701 2.257 4.062 4.514 3.792c2.167-.181 4.243-2.708 2.979-6.049-1.264-3.521-8.847-7.944 2.799-21.486 0 0-5.597 10.563 1.896 16.07 4.423 3.16 10.111 14.625 3.159 19.41 0 0 15.077-3.25 2.257-22.75 0 0-13.18-18.688 7.674-29.34 0 0-7.403 13.09 2.076 21.215 0 0 12.369 10.292 13.362 16.069 0 0 4.514 15.618-21.216 28.708 0 0-24.736-13.09-23.562-27.174 0 .09 3.069-3.792 5.597-2.167z" opacity=".2"/><path fill="url(#H)" d="M134.569 57.367s-1.715 1.625-1.535 3.701 2.257 4.063 4.514 3.792c2.167-.18 4.243-2.708 2.979-6.049-1.264-3.521-8.847-7.944 2.799-21.486 0 0-5.597 10.563 1.896 16.07 4.423 3.16 10.111 14.625 3.159 19.41 0 0 15.077-3.25 2.257-22.75 0 0-13.18-18.687 7.674-29.34 0 0-7.403 13.09 2.076 21.215 0 0 12.369 10.292 13.362 16.069 0 0 4.514 15.618-21.216 28.709 0 0-24.736-13.09-23.562-27.174 0 .09 3.069-3.792 5.597-2.167z"/><path fill="url(#I)" d="M181.333 36.695c-.18-2.437-1.715-4.062-3.972-4.153-2.167 0-4.424-.181-6.59-.632-4.605-.813-6.952-1.264-11.014-3.521-.181 1.354-.091 3.069 0 4.514 3.882 1.986 5.777 2.167 10.111 2.979 2.347.451 4.785.632 7.222.722h.361c0 .361.09.722.09 1.083.452 11.285-1.625 21.938-7.312 31.597-4.243 7.222-10.021 12.639-17.243 16.25-.271.09-.452.09-.722 0-8.035-3.972-14.084-10.111-18.417-18.326-2.799-5.326-4.604-11.014-5.507-16.972-.542-3.792-.813-7.493-.722-11.285 0-.722.09-1.535.09-2.257 1.083-.09 2.167-.09 3.25-.181 5.417-.451 7.944-.812 12.91-3.16.271-1.444.451-3.16 1.625-5.236-4.785 2.799-7.674 3.521-13.181 4.153-1.625.181-3.25.181-4.875.361-1.805.09-3.34 1.715-3.521 3.611l-.27 4.695c.09 5.507.722 10.923 2.076 16.16 2.076 7.945 5.597 15.077 10.833 21.306 4.063 4.695 8.757 8.396 14.264 11.014a3.82 3.82 0 0 0 3.431 0c6.048-2.889 11.194-7.042 15.437-12.458 6.952-8.847 10.473-19.139 11.466-30.424.361-3.25.361-6.59.18-9.84z"/></g><defs><linearGradient id="A" x1="21.18" x2="21.18" y1="194" y2="-82" xlink:href="#K"><stop stop-color="#ff5e5e"/><stop offset=".177" stop-color="#ffae64" stop-opacity=".552"/><stop offset="1" stop-color="#ffa16c" stop-opacity="0"/></linearGradient><linearGradient id="B" x1="369.784" x2="369.784" y1="272" y2="-21" xlink:href="#K"><stop stop-color="#ff5e5e"/><stop offset=".177" stop-color="#ffae64" stop-opacity=".552"/><stop offset="1" stop-color="#ffa16c" stop-opacity="0"/></linearGradient><linearGradient id="C" x1="407.014" x2="407.014" y1="174" y2="-26" xlink:href="#K"><stop stop-color="#ff5e5e"/><stop offset=".177" stop-color="#ffae64" stop-opacity=".552"/><stop offset="1" stop-color="#ffa16c" stop-opacity="0"/></linearGradient><linearGradient id="D" x1="33.82" x2="33.82" y1="250" y2="-26" xlink:href="#K"><stop stop-color="#ff5e5e"/><stop offset=".177" stop-color="#ffae64" stop-opacity=".552"/><stop offset="1" stop-color="#ffa16c" stop-opacity="0"/></linearGradient><linearGradient id="E" x1="221.82" x2="221.82" y1="320" y2="44" xlink:href="#K"><stop stop-color="#ff5e5e"/><stop offset=".177" stop-color="#ffae64" stop-opacity=".552"/><stop offset="1" stop-color="#ffa16c" stop-opacity="0"/></linearGradient><linearGradient id="F" x1="281.468" x2="281.468" y1="379" y2="-14" xlink:href="#K"><stop stop-color="#ff5e5e"/><stop offset=".177" stop-color="#ffae64" stop-opacity=".552"/><stop offset="1" stop-color="#ffa16c" stop-opacity="0"/></linearGradient><linearGradient id="G" x1="146.568" x2="146.568" y1="-345" y2="90" xlink:href="#K"><stop stop-color="#ff5e5e"/><stop offset=".177" stop-color="#ffae64" stop-opacity=".552"/><stop offset="1" stop-color="#ffa16c" stop-opacity="0"/></linearGradient><linearGradient id="H" x1="128.905" x2="174.086" y1="53.807" y2="53.807" xlink:href="#K"><stop offset=".188" stop-color="#ffcf65"/><stop offset=".531" stop-color="#ff915a"/><stop offset="1" stop-color="#ff554e"/></linearGradient><linearGradient id="I" x1="123.636" x2="181.446" y1="58.964" y2="58.964" xlink:href="#K"><stop offset=".085" stop-color="#ff554e"/><stop offset=".907" stop-color="#ffcf65"/></linearGradient><clipPath id="J"><path fill="#fff" d="M0 0h437v112H0z"/></clipPath><linearGradient id="K" gradientUnits="userSpaceOnUse"/></defs></svg>