<svg xmlns="http://www.w3.org/2000/svg" width="96" height="96" fill="none"  xmlns:v="https://vecta.io/nano"><circle cx="48" cy="48" r="48" fill="#fff"/><g clip-path="url(#C)"><path opacity=".2" d="M29.785 48.678s-1.72 1.63-1.539 3.712 2.263 4.074 4.527 3.803c2.173-.181 4.255-2.716 2.988-6.066-1.267-3.531-8.873-7.967 2.807-21.548 0 0-5.613 10.593 1.901 16.116 4.436 3.169 10.14 14.667 3.169 19.466 0 0 15.12-3.259 2.263-22.815 0 0-13.218-18.741 7.696-29.425 0 0-7.424 13.128 2.082 21.276 0 0 12.404 10.321 13.4 16.116 0 0 4.527 15.663-21.276 28.791 0 0-24.807-13.128-23.63-27.252 0 .09 2.988-3.803 5.613-2.173z" fill="#ffcf65"/><path d="M29.785 51.666s-1.72 1.63-1.539 3.712 2.263 4.074 4.527 3.803 4.255-2.716 2.988-6.066c-1.267-3.531-8.873-7.967 2.807-21.548 0 0-5.613 10.593 1.901 16.116 4.436 3.169 10.14 14.667 3.169 19.466 0 0 15.12-3.259 2.263-22.816 0 0-13.218-18.741 7.696-29.425 0 0-7.424 13.128 2.082 21.276 0 0 12.404 10.321 13.4 16.116 0 0 4.527 15.663-21.276 28.791 0 0-24.807-13.128-23.63-27.252 0 .09 2.988-3.803 5.613-2.173z" fill="url(#A)"/><path d="M76.684 30.933c-.181-2.445-1.72-4.074-3.984-4.165-2.173 0-4.436-.181-6.609-.634-4.617-.815-6.971-1.268-11.045-3.531-.181 1.358-.091 3.078 0 4.527 3.893 1.992 5.794 2.173 10.14 2.988 2.354.453 4.798.634 7.243.724h.362c0 .362.091.724.091 1.087.453 11.317-1.63 22.001-7.334 31.688-4.255 7.243-10.05 12.675-17.293 16.297a1 1 0 0 1-.724 0c-8.058-3.984-14.124-10.14-18.47-18.379-2.807-5.342-4.617-11.046-5.523-17.021-.543-3.803-.815-7.515-.724-11.317 0-.724.09-1.539.09-2.263 1.087-.091 2.173-.091 3.259-.181 5.432-.453 7.967-.815 12.947-3.169.272-1.449.453-3.169 1.63-5.251-4.798 2.807-7.696 3.531-13.218 4.165-1.63.181-3.259.181-4.889.362-1.811.09-3.35 1.72-3.531 3.622l-.272 4.708c.09 5.523.724 10.955 2.082 16.206 2.082 7.967 5.613 15.12 10.865 21.367 4.074 4.708 8.782 8.42 14.305 11.046 1.177.543 2.263.543 3.44 0 6.066-2.897 11.227-7.062 15.482-12.494 6.971-8.873 10.502-19.194 11.498-30.511.362-3.259.362-6.609.181-9.869z" fill="url(#B)"/></g><defs><linearGradient id="A" x1="24.132" y1="47.999" x2="69.442" y2="47.999" gradientUnits="userSpaceOnUse"><stop offset=".188" stop-color="#ffcf65"/><stop offset=".531" stop-color="#ff915a"/><stop offset="1" stop-color="#ff554e"/></linearGradient><linearGradient id="B" x1="18.83" y1="53.273" x2="76.803" y2="53.273" gradientUnits="userSpaceOnUse"><stop offset=".085" stop-color="#ff554e"/><stop offset=".907" stop-color="#ffcf65"/></linearGradient><clipPath id="C"><path fill="#fff" transform="translate(18.83 11.92)" d="M0 0h57.944v72.249H0z"/></clipPath></defs></svg>