<svg xmlns="http://www.w3.org/2000/svg" xmlns:v="https://vecta.io/nano" width="96" height="96" fill="none"><circle cx="48" cy="48" r="48" fill="#a4defb"/><path fill="url(#A)" d="M14.017 76.857l24.982-16.564c.449-.207.936-.32 1.43-.334l9.929-.222 12.652.089c4.234 0 8.326-2.401 10.769-5.914a12.83 12.83 0 0 0 2.515-5.599L81.353 19 63.709 30.688l-4.981 3.301-2.356 1.575a3.66 3.66 0 0 1-1.43.334l-9.929.222-12.654-.089c-4.234 0-8.326 2.401-10.769 5.914a12.83 12.83 0 0 0-2.515 5.599l-5.058 29.314zm29.838-29.412c-.189 2.268-2.94 4.456-6.017 4.456s-5.347-2.228-6.017-4.899c-1.024-4.101 2.898-3.789 6.017-3.343 3.047.432 6.238 1.113 6.017 3.786zM65.552 47c-.667 2.673-2.94 4.899-6.014 4.899s-5.832-2.188-6.017-4.456c-.233-2.674 2.97-3.355 6.017-3.789 3.117-.443 7.038-.756 6.012 3.341l.002.005z"/><defs><linearGradient id="A" x1="62.529" x2="84.671" y1="22.063" y2="-16.517" gradientUnits="userSpaceOnUse"><stop/><stop offset=".47" stop-opacity="0"/></linearGradient></defs></svg>