<svg xmlns="http://www.w3.org/2000/svg" xmlns:xlink="http://www.w3.org/1999/xlink" width="437" height="112" fill="none"  xmlns:v="https://vecta.io/nano"><g clip-path="url(#K)"><path fill="url(#A)" d="M0 0h437v112H0z"/><g style="mix-blend-mode:screen" opacity=".3"><circle cx="49.342" cy="39.024" r="41.961" transform="rotate(45 49.342 39.024)" fill="url(#B)"/></g><g style="mix-blend-mode:screen" opacity=".3"><circle cx="92.05" cy="3.732" r="28.095" transform="rotate(45 92.05 3.732)" fill="url(#C)"/></g><g style="mix-blend-mode:screen" opacity=".6"><circle cx="352.864" cy="116.863" r="57" transform="rotate(210 352.864 116.863)" fill="url(#D)"/></g><path d="M120 88.965l28.482-18.885c.512-.236 1.067-.365 1.631-.38l11.32-.253 14.425.101c4.827 0 9.493-2.737 12.278-6.743a14.63 14.63 0 0 0 2.867-6.384L196.772 23l-20.116 13.326-5.679 3.764-2.687 1.795a4.17 4.17 0 0 1-1.63.38l-11.321.253-14.427-.101c-4.828 0-9.493 2.737-12.278 6.743-1.458 1.865-2.442 4.055-2.867 6.384L120 88.965zm34.02-33.533c-.216 2.585-3.352 5.08-6.86 5.08s-6.096-2.54-6.86-5.586c-1.167-4.676 3.304-4.32 6.86-3.812 3.474.492 7.113 1.269 6.86 4.317zm24.737-.508c-.761 3.048-3.352 5.586-6.857 5.586s-6.65-2.495-6.86-5.08c-.266-3.048 3.386-3.825 6.86-4.32 3.553-.505 8.025-.862 6.854 3.809l.003.005z" fill="url(#E)"/><path d="M211.189 47.138l-3.594 20.375h-3.583l3.591-20.375h-5.458l.593-3.367h14.486l-.593 3.367h-5.442z" fill="url(#F)"/><path d="M236.125 47.138h-9.517l-1.011 5.706h9.243l-.593 3.367h-9.24l-1.399 7.934h9.519l-.593 3.367h-13.102l4.186-23.742h13.103l-.596 3.367z" fill="url(#G)"/><path d="M238.926 67.513l4.471-25.362 14.119 18.119 2.91-16.491h3.582l-4.442 25.186-14.126-18.077-2.926 16.624h-3.588z" fill="url(#H)"/><path d="M296.962 47.138l-3.594 20.375h-3.583l3.594-20.375h-5.458l.593-3.367H303l-.593 3.367h-5.445z" fill="url(#I)"/><path d="M270.406 43.771l-.596 3.365h9.52l-.9 5.096-.095.548h-9.219l-.633 3.57h9.235l-1.386 7.796h-9.52l-.596 3.367h13.103l4.189-23.742h-13.102z" fill="url(#J)"/></g><defs><linearGradient id="A" x1="218.5" y1="0" x2="218.5" y2="112" xlink:href="#L"><stop stop-color="#a4defb"/><stop offset="1" stop-color="#e3e8f7"/></linearGradient><linearGradient id="B" x1="49.342" y1="-2.937" x2="49.342" y2="80.985" xlink:href="#L"><stop stop-color="#fff"/><stop offset="1" stop-color="#fff" stop-opacity="0"/></linearGradient><linearGradient id="C" x1="92.05" y1="-24.363" x2="92.05" y2="31.827" xlink:href="#L"><stop stop-color="#fff"/><stop offset="1" stop-color="#fff" stop-opacity="0"/></linearGradient><linearGradient id="D" x1="352.864" y1="59.864" x2="352.864" y2="173.863" xlink:href="#L"><stop stop-color="#fff"/><stop offset="1" stop-color="#fff" stop-opacity="0"/></linearGradient><linearGradient id="E" x1="175.31" y1="26.492" x2="200.555" y2="-17.494" xlink:href="#L"><stop/><stop offset=".47" stop-opacity="0"/></linearGradient><linearGradient id="F" x1="7531.69" y1="5465.76" x2="8140.95" y2="4854.81" xlink:href="#L"><stop/><stop offset=".47" stop-opacity="0"/></linearGradient><linearGradient id="G" x1="9747.88" y1="6256.13" x2="10351.3" y2="5562.39" xlink:href="#L"><stop/><stop offset=".47" stop-opacity="0"/></linearGradient><linearGradient id="H" x1="15683.3" y1="8040.05" x2="16322.3" y2="7096.16" xlink:href="#L"><stop/><stop offset=".47" stop-opacity="0"/></linearGradient><linearGradient id="I" x1="11232.2" y1="8568.14" x2="11841.4" y2="7957.19" xlink:href="#L"><stop/><stop offset=".47" stop-opacity="0"/></linearGradient><linearGradient id="J" x1="12026.4" y1="8014.95" x2="12629.8" y2="7321.11" xlink:href="#L"><stop/><stop offset=".47" stop-opacity="0"/></linearGradient><clipPath id="K"><path fill="#fff" d="M0 0h437v112H0z"/></clipPath><linearGradient id="L" gradientUnits="userSpaceOnUse"/></defs></svg>