<svg xmlns="http://www.w3.org/2000/svg" width="96" height="96" fill="none" viewBox="0 0 96 96"><g clip-path="url(#clip0)"><path fill="#000" d="M48.0044 96.0087C74.5165 96.0087 96.0087 74.5165 96.0087 48.0044C96.0087 21.4923 74.5165 0 48.0044 0C21.4923 0 0 21.4923 0 48.0044C0 74.5165 21.4923 96.0087 48.0044 96.0087Z"/><path fill="#000" d="M48.0044 92.3984C72.5224 92.3984 92.3981 72.5226 92.3981 48.0046C92.3981 23.4866 72.5224 3.61084 48.0044 3.61084C23.4864 3.61084 3.6106 23.4866 3.6106 48.0046C3.6106 72.5226 23.4864 92.3984 48.0044 92.3984Z"/><path fill="url(#paint0_linear)" d="M26.2883 56.2574C25.746 58.497 25.6156 60.8165 25.9036 63.1027C25.884 63.8853 25.6962 64.6546 25.3529 65.3582C24.7759 66.0838 25.2042 66.9493 25.0119 67.7274C24.9332 68.0509 24.6972 68.4181 25.0119 68.6016C25.0847 70.154 25.2452 71.7009 25.4927 73.2351C25.5088 73.3741 25.5694 73.5041 25.6656 73.6057C25.7617 73.7072 25.8882 73.7749 26.0261 73.7986C26.164 73.8222 26.3058 73.8005 26.4303 73.7367C26.5548 73.673 26.6553 73.5706 26.7167 73.4449L27.4248 71.0845C27.8357 70.3064 28.64 70.3064 29.3569 70.1141C29.7415 71.5216 29.7415 71.5216 30.5196 70.8309C31.2277 69.5108 30.7032 68.0946 30.8343 66.7308L31.1753 65.0522C31.5752 64.582 31.8169 63.9978 31.8659 63.3824C32.7402 61.5116 32.3992 59.562 32.1719 57.63C32.2943 56.8432 32.4079 56.0476 32.5216 55.2608C32.5216 55.051 32.5216 54.8411 32.5216 54.6226C33.1161 54.3428 33.1336 53.7484 33.1773 53.2326C33.3334 53.0539 33.4481 52.8428 33.5131 52.6146C33.5781 52.3864 33.5918 52.1466 33.5532 51.9125C34.0777 51.1868 33.7193 50.3213 33.9291 49.5433L34.5498 48.1795C34.668 48.1146 34.7658 48.018 34.8322 47.9007C34.8986 47.7833 34.931 47.6498 34.9258 47.515C35.3582 47.0346 35.6725 46.4598 35.8437 45.8365C36.3136 45.3617 36.6719 44.7884 36.8928 44.158C37.3644 43.6941 37.6949 43.106 37.8457 42.4619C38.4731 41.7895 38.9184 40.968 39.1396 40.0753C40.8356 37.8372 41.8847 35.2407 43.2223 32.7929C43.9129 31.534 44.35 30.6423 42.5578 30.3013C42.4092 29.6281 43.537 29.3659 42.9163 28.7626C42.5054 28.3518 41.9371 28.4741 41.3514 28.5791C39.9448 28.9418 38.5728 29.4275 37.2512 30.0303C36.7596 30.146 36.2967 30.3607 35.8909 30.6614C35.485 30.962 35.1447 31.3422 34.8908 31.7788C33.7455 34.078 32.5303 36.3423 31.3326 38.624C31.143 39.0041 30.9766 39.3953 30.8343 39.7955C30.6944 40.2676 31.1665 40.967 30.3447 41.1506C29.6803 41.2992 29.4705 40.696 29.0421 40.3376C28.2903 38.388 27.0139 36.7095 26.1222 34.8561C25.3528 33.2213 24.4786 33.3524 23.211 33.8944C22.5561 34.2142 21.9327 34.5947 21.3488 35.0309C20.7893 35.4331 20.1686 36.1412 20.4746 36.7095C21.4975 38.5104 21.2964 41.002 23.482 42.1472L24.295 43.1176C24.7234 43.9919 25.1693 44.9273 25.5976 45.8278C25.7288 46.3873 25.8687 46.938 25.9998 47.4976C25.9998 48.3106 25.7812 49.246 26.3845 49.8318C26.6722 50.0735 26.9046 50.3742 27.066 50.7136C27.2274 51.053 27.314 51.4231 27.3199 51.7988C27.0733 52.203 26.9545 52.6723 26.9789 53.1451C26.5169 54.1144 26.2779 55.1749 26.2795 56.2487L26.2883 56.2574ZM77.8071 23.2462C76.2684 23.9106 73.2261 25.729 72.5617 27.2502C72.2838 27.8231 71.8621 28.3141 71.3377 28.6752C70.0542 29.5941 69.1276 30.9283 68.715 32.4519C68.5314 33.1251 68.1992 33.8507 67.561 34.0343C65.3405 34.6987 65.1744 36.8668 64.1602 38.4055C63.8193 39.3409 63.4608 40.2152 63.1199 41.0894C62.7233 41.5935 62.4777 42.1998 62.4118 42.8379C62.0273 43.3422 61.8075 43.9527 61.7823 44.5863L61.4763 44.936C61.3831 45.0093 61.3118 45.1067 61.2701 45.2177C61.2285 45.3287 61.2182 45.449 61.2403 45.5655C61.2663 45.6423 61.3015 45.7157 61.3452 45.784C61.0637 45.8783 60.7628 45.8994 60.471 45.8452C60.6154 45.692 60.7076 45.4969 60.7343 45.288C60.761 45.0791 60.7208 44.8672 60.6196 44.6825L60.4185 44.5339V43.581L60.5584 43.5198C60.7016 42.8567 60.6593 42.167 60.436 41.5265C60.4046 40.7069 60.1703 39.9078 59.7541 39.201C59.5792 38.4405 60.3136 37.4001 59.3082 36.9543C58.9807 36.7881 58.6111 36.7234 58.2467 36.7686C57.8822 36.8138 57.5395 36.9667 57.2625 37.2078C56.2328 37.9969 55.5395 39.1461 55.3217 40.425C54.9359 40.8979 54.704 41.4775 54.6573 42.086C54.3184 42.6155 54.0978 43.2119 54.0103 43.8345C53.4214 44.7817 52.9654 45.8054 52.6553 46.8768C52.0417 47.7961 51.5811 48.8088 51.2915 49.8755C50.7232 50.4612 50.8456 51.4491 49.9014 52.2447V44.9098C50.1025 44.6301 49.779 44.4902 49.7266 44.2804C50.6008 43.24 50.2511 41.5353 49.0185 40.355L49.0622 40.2589L49.001 40.2152C48.5201 39.0349 47.3137 38.9912 46.3783 38.4667C46.2025 38.3331 45.9968 38.2442 45.7791 38.2076C45.5613 38.171 45.338 38.1878 45.1281 38.2566C44.9183 38.3254 44.7284 38.4441 44.5745 38.6025C44.4207 38.7609 44.3077 38.9543 44.2451 39.1661C44.1628 39.2589 44.1173 39.3786 44.1173 39.5027C44.1173 39.6267 44.1628 39.7465 44.2451 39.8392V39.9441C44.2451 40.0053 44.2451 40.0491 44.2451 40.1102C44.1708 41.0496 44.1533 41.9926 44.1927 42.934C44.1574 43.4878 44.2165 44.0436 44.3675 44.5776C44.3675 45.4518 44.3675 46.3261 44.3238 47.2615V48.9488V49.5695C44.2784 49.5663 44.2329 49.5733 44.1905 49.5899C44.1482 49.6066 44.1101 49.6324 44.079 49.6657C44.079 52.4807 43.9129 55.3045 44.5598 58.0846C44.5668 58.1936 44.6134 58.2962 44.691 58.3731C44.5598 58.985 43.7293 59.0462 43.6681 59.7019L43.7468 59.7719L43.6681 59.6932C43.2048 60.5674 43.7905 61.3105 44.0091 62.0973L43.6506 66.8007C43.3818 67.6908 43.3338 68.633 43.5108 69.5458C43.4305 69.7051 43.4009 69.8851 43.4259 70.0617C43.4509 70.2383 43.5293 70.403 43.6506 70.5337C44.35 71.7751 44.3763 73.3488 45.5303 74.3804C45.7213 74.1863 45.8703 73.9549 45.9681 73.7007C46.0658 73.4465 46.1102 73.175 46.0985 72.9029L47.0776 72.2035C48.2687 71.2866 49.0884 69.9702 49.3856 68.4967C50.0063 67.6225 49.7091 66.4335 50.2162 65.4981L50.5047 64.7987C50.8706 64.4348 51.1097 63.9627 51.1866 63.4524C51.5344 63.0742 51.7572 62.598 51.8248 62.0886C52.2348 61.6208 52.4991 61.0435 52.5853 60.4275C52.7704 60.259 52.9205 60.0557 53.027 59.8292C53.1335 59.6027 53.1943 59.3574 53.2061 59.1074L53.1186 59.0462L53.1973 59.1162C53.582 58.6052 53.8261 58.0023 53.9054 57.3677C54.2535 56.8464 54.4612 56.2442 54.5087 55.6192C54.7447 55.0684 54.972 54.5264 55.1993 53.9757C56.0124 53.8445 56.0736 54.3253 56.0736 54.9723C56.0736 55.7504 56.126 56.5284 56.1522 57.3065L56.0998 58.8976C55.9512 59.7019 55.8113 60.5062 55.6627 61.3105C55.5495 61.4576 55.475 61.6306 55.446 61.8139C55.417 61.9972 55.4344 62.1848 55.4966 62.3596C55.2795 62.8144 55.227 63.3304 55.3479 63.8196C55.3141 64.8795 55.3903 65.9401 55.5752 66.9843C55.5872 67.3805 55.7459 67.7582 56.0205 68.0441C56.2951 68.3299 56.666 68.5037 57.0614 68.5317C57.4005 68.6461 57.7686 68.6408 58.1043 68.5167C58.4399 68.3926 58.7229 68.1572 58.9061 67.8498C59.7443 66.6072 60.398 65.2497 60.8469 63.8196C61.3154 63.2484 61.5469 62.5194 61.4938 61.7826C61.9309 60.3226 62.8489 59.0025 62.8052 57.4114L63.1461 56.7382C63.5079 56.3665 63.7565 55.8996 63.863 55.3919C64.1527 55.0111 64.3611 54.5748 64.4754 54.1101C64.5897 53.6455 64.6074 53.1623 64.5274 52.6905L64.6586 51.3792C65.6727 50.7322 65.9961 49.6307 66.5382 48.6428C66.6873 48.5251 66.7989 48.3665 66.8594 48.1864C66.9199 48.0064 66.9268 47.8126 66.8791 47.6287C67.1152 46.8419 67.3512 46.0638 67.596 45.277C67.7375 45.1556 67.8467 45.001 67.9138 44.8271C67.9809 44.6532 68.0039 44.4653 67.9807 44.2804C68.08 44.2235 68.1598 44.138 68.2097 44.0351C68.2596 43.9321 68.2773 43.8165 68.2604 43.7034C68.7724 42.9605 69.1292 42.122 69.3095 41.238C69.7962 40.2835 70.1352 39.2607 70.3149 38.2044C71.1192 36.2723 72.8939 34.961 73.602 32.959C74.3053 31.1259 75.478 29.5099 77.0028 28.2731C78.6464 26.8481 78.7513 25.5717 77.7721 23.2637L77.8071 23.2462ZM49.9102 65.638C49.9675 65.6055 50.0294 65.5819 50.0938 65.568L49.9102 65.638ZM48.0043 3.61084C39.2237 3.60911 30.6398 6.21129 23.3381 11.0883C16.0364 15.9653 10.345 22.898 6.98361 31.0098C3.62221 39.1215 2.74182 48.0479 4.45377 56.66C6.16573 65.2722 10.3931 73.1832 16.6014 79.3927C22.8096 85.6021 30.7198 89.8311 39.3316 91.5447C47.9434 93.2584 56.8699 92.3797 64.9823 89.0199C73.0947 85.6601 80.0286 79.9701 84.9071 72.6694C89.7855 65.3687 92.3894 56.7852 92.3894 48.0046C92.3905 42.1752 91.2433 36.4026 89.0133 31.0165C86.7832 25.6305 83.514 20.7365 79.3924 16.614C75.2707 12.4915 70.3774 9.22139 64.9918 6.99029C59.6062 4.75918 53.8338 3.61084 48.0043 3.61084ZM48.0043 89.155C39.8638 89.1532 31.9067 86.7376 25.139 82.2135C18.3714 77.6895 13.0973 71.2602 9.9837 63.7387C6.87006 56.2172 6.05673 47.9413 7.64656 39.9576C9.23639 31.9738 13.158 24.6408 18.9154 18.8858C24.6728 13.1308 32.0075 9.21237 39.9919 7.62593C47.9763 6.0395 56.2519 6.85634 63.7721 9.97317C71.2922 13.09 77.7193 18.3668 82.2405 25.1364C86.7617 31.9059 89.1739 39.8641 89.1722 48.0046C89.1745 53.4115 88.1112 58.7658 86.0431 63.7616C83.9751 68.7573 80.9428 73.2966 77.1195 77.1198C73.2963 80.943 68.757 83.9753 63.7613 86.0434C58.7656 88.1115 53.4112 89.1747 48.0043 89.1724V89.155Z"/></g><defs><linearGradient id="paint0_linear" x1="48.004" x2="48.004" y1="5.342" y2="94.121" gradientUnits="userSpaceOnUse"><stop offset=".3" stop-color="#EFE149"/><stop offset=".38" stop-color="#EFDC47"/><stop offset=".48" stop-color="#F0CD42"/><stop offset=".59" stop-color="#F2B43A"/><stop offset=".7" stop-color="#F5922F"/><stop offset=".82" stop-color="#F86621"/><stop offset=".94" stop-color="#FC310F"/><stop offset="1" stop-color="#FE1406"/></linearGradient><clipPath id="clip0"><rect width="96" height="96" fill="#fff"/></clipPath></defs></svg>