<svg xmlns="http://www.w3.org/2000/svg" width="96" height="96" fill="none" viewBox="0 0 96 96"><path fill="#FFFDFA" d="M47.4599 88.2C69.4298 88.2 87.2399 70.3899 87.2399 48.42C87.2399 26.4501 69.4298 8.64001 47.4599 8.64001C25.49 8.64001 7.67993 26.4501 7.67993 48.42C7.67993 70.3899 25.49 88.2 47.4599 88.2Z"/><path fill="#3CF" d="M48 0C38.5065 0 29.2262 2.81515 21.3326 8.08946C13.4391 13.3638 7.28681 20.8603 3.6538 29.6312C0.0207977 38.402 -0.929762 48.0532 0.922328 57.3643C2.77442 66.6754 7.34597 75.2282 14.0589 81.9411C20.7718 88.654 29.3246 93.2256 38.6357 95.0777C47.9468 96.9298 57.598 95.9792 66.3688 92.3462C75.1397 88.7132 82.6362 82.5609 87.9105 74.6674C93.1849 66.7738 96 57.4935 96 48C96 35.2696 90.9429 23.0606 81.9411 14.0589C72.9394 5.05713 60.7304 0 48 0ZM25.35 73.38C22.4441 70.1359 20.22 66.3407 18.81 62.22C17.2454 57.7792 16.4736 53.098 16.53 48.39C16.4819 43.5847 17.2529 38.8063 18.81 34.26C20.0423 30.653 21.8673 27.2767 24.21 24.27L24.51 24C24.78 23.67 25.08 23.34 25.35 22.98L26.46 21.81C26.79 21.48 27.09 21.18 27.42 20.91L27.69 20.64L28.41 20.04C28.5051 19.9247 28.6162 19.8237 28.74 19.74L29.43 19.2L30 18.78V18.57C31.8689 17.255 33.882 16.1579 36 15.3C40.4357 13.4089 45.2186 12.4687 50.04 12.54C53.634 12.5086 57.2097 13.0556 60.63 14.16C63.8911 15.1704 66.9409 16.7665 69.63 18.87C70.9275 19.8922 72.123 21.0376 73.2 22.29C74.3387 23.5963 75.3438 25.0134 76.2 26.52C77.9675 29.7482 79.0692 33.2983 79.44 36.96H71.19C69.5398 36.9568 67.9184 36.527 66.4834 35.7122C65.0484 34.8974 63.8484 33.7254 63 32.31C62.1125 30.8788 60.9862 29.6105 59.67 28.56C57.0204 26.4256 53.7413 25.2237 50.34 25.14H49.89C46.9176 25.011 43.9622 25.6517 41.31 27C39.0146 28.2517 37.0583 30.0432 35.61 32.22L35.13 33C35.0117 33.1692 34.9112 33.3502 34.83 33.54V33.75L34.47 34.47L34.11 35.28C33.4587 36.6837 32.956 38.1517 32.61 39.66C31.9355 42.49 31.6032 45.3908 31.62 48.3C31.6182 51.1094 31.9505 53.9091 32.61 56.64C33.2438 59.2251 34.3197 61.6813 35.79 63.9C37.2561 66.0535 39.2089 67.8315 41.49 69.09C44.1376 70.4593 47.0907 71.1304 50.07 71.04H50.64C44.7413 75.2712 37.6791 77.5764 30.42 77.64C28.5677 76.4251 26.8659 74.9952 25.35 73.38ZM76.8 67.38C75.3057 70.6747 73.1749 73.6416 70.53 76.11C67.8782 78.5412 64.7673 80.4179 61.38 81.63C58.0316 82.802 54.5171 83.43 50.97 83.49H49.65C46.3153 83.5002 42.9948 83.0561 39.78 82.17C46.4039 80.2569 52.3192 76.4386 56.79 71.19C57.36 70.53 57.9 69.84 58.44 69.15C58.98 68.46 59.4 68.07 59.88 67.56L60.6 66.87C65.7978 61.8179 72.4114 58.4692 79.56 57.27C79.1572 60.7699 78.2267 64.1887 76.8 67.41V67.38Z"/></svg>