<svg xmlns="http://www.w3.org/2000/svg" width="96" height="96" fill="none" viewBox="0 0 96 96"><mask id="mask0" width="96" height="96" x="0" y="0" mask-type="alpha" maskUnits="userSpaceOnUse"><path fill="#fff" fill-rule="evenodd" d="M0 0H96V96H0V0Z" clip-rule="evenodd"/></mask><g mask="url(#mask0)"><path fill="#0090FF" fill-rule="evenodd" d="M48 95.9998C21.6 95.9998 0 74.3998 0 47.7598C0.24 21.3598 21.6 -0.240216 48.24 -0.000216416C74.64 0.239784 96 21.5998 96 48.4798C95.76 74.6398 74.4 95.9998 48 95.9998Z" clip-rule="evenodd"/><path fill="#fff" fill-rule="evenodd" d="M52.56 42.2397L51.12 49.9197L64.8 51.8397L63.84 55.4397L50.4 53.5197C49.44 56.6397 48.96 59.9997 47.76 62.8797C46.56 66.2397 45.36 69.5997 43.92 72.7197C42 76.7997 38.64 79.6797 34.08 80.3997C31.44 80.8797 28.56 80.6397 26.4 78.9597C25.68 78.4797 24.96 77.5197 24.96 76.7997C24.96 75.8397 25.44 74.6397 26.16 74.1597C26.64 73.9197 27.84 74.1597 28.56 74.3997C29.28 75.1197 30 76.0797 30.48 77.0397C31.92 78.9597 33.84 79.1997 35.76 77.7597C37.92 75.8397 39.12 73.1997 39.84 70.5597C41.28 64.7997 42.72 59.2797 43.92 53.5197V52.5597L31.2 50.6397L31.68 47.0397L44.88 48.9597L46.56 41.5197L32.88 39.3597L33.36 35.5197L47.52 37.4397C48 35.9997 48.24 34.7997 48.72 33.5997C49.92 29.2797 51.12 24.9597 54 21.1197C56.88 17.2797 60.24 14.8797 65.28 15.1197C67.44 15.1197 69.6 15.8397 71.04 17.5197C71.28 17.7597 71.76 18.2397 71.76 18.7197C71.76 19.6797 71.76 20.8797 71.04 21.5997C70.08 22.3197 68.88 22.0797 67.92 21.1197C67.2 20.3997 66.72 19.6797 66 18.9597C64.56 17.0397 62.4 16.7997 60.72 18.4797C59.52 19.6797 58.32 21.3597 57.6 23.0397C55.92 28.0797 54.72 33.3597 53.04 38.6397L66.24 40.5597L65.28 44.1597L52.56 42.2397Z" clip-rule="evenodd"/></g></svg>