<svg xmlns="http://www.w3.org/2000/svg" width="96" height="96" fill="none" viewBox="0 0 96 96"><path fill="#015F2D" d="M48.3744 0.77417C22.0857 0.77417 0.774414 22.0854 0.774414 48.3742C0.774414 74.6629 22.0857 95.9742 48.3744 95.9742C74.6632 95.9742 95.9744 74.6629 95.9744 48.3742C95.9744 22.0854 74.6632 0.77417 48.3744 0.77417ZM48.3744 6.91611C71.2711 6.91611 89.8325 25.4775 89.8325 48.3742C89.8325 71.2708 71.2711 89.8322 48.3744 89.8322C25.4778 89.8322 6.91635 71.2708 6.91635 48.3742C6.91635 25.4775 25.4778 6.91611 48.3744 6.91611Z"/><path fill="#fff" d="M48.3741 6.91602C71.2707 6.91602 89.8321 25.4774 89.8321 48.3741C89.8321 71.2707 71.2707 89.8321 48.3741 89.8321C25.4774 89.8321 6.91602 71.2707 6.91602 48.3741C6.91602 25.4774 25.4774 6.91602 48.3741 6.91602Z"/><mask id="mask0" width="76" height="76" x="11" y="9" mask-type="alpha" maskUnits="userSpaceOnUse"><path fill="#fff" d="M48.5991 84.5815C69.3413 84.5815 86.1562 67.7666 86.1562 47.0244C86.1562 26.2822 69.3413 9.46729 48.5991 9.46729C27.8569 9.46729 11.042 26.2822 11.042 47.0244C11.042 67.7666 27.8569 84.5815 48.5991 84.5815Z"/></mask><g mask="url(#mask0)"><path fill="#015F2D" fill-rule="evenodd" d="M79.6708 38.3558C79.6316 38.4908 79.5781 38.6238 79.5107 38.7544C79.0156 41.1424 72.2879 53.6751 70.2252 55.8919L70.0349 56.0784L67.3798 58.3406L82.4353 65.9069L82.3332 66.0296C80.0843 77.2342 61.2403 86.156 48.4867 86.156C35.733 86.156 15.0179 77.1115 15.2098 65.9069L14.6899 65.2695L29.2193 58.3258L27.987 57.3201L26.4922 56.0786C24.7498 54.5724 18.5929 42.3634 17.6812 39.1418C17.5892 39.0136 17.5102 38.884 17.4419 38.7474C21.2869 41.3534 31.3622 43.8849 43.8067 44.3889L45.059 44.4325L46.3261 44.4621L48.2899 44.4794L50.2537 44.4621L51.2055 44.4412L52.4684 44.4008C64.6009 43.9432 74.5251 41.5552 78.6949 39.0298L79.1056 38.7682L79.4635 38.5142L79.6708 38.3558ZM31.3743 46.912L32.1656 49.7839C32.6915 51.4751 33.2923 53.0817 34.0075 54.7133L34.566 55.9435L35.8694 58.5144C36.0227 58.8189 36.227 59.0884 36.4846 59.3324L36.76 59.5681L37.8591 60.3852C39.7368 61.6525 41.8174 62.5559 44.2813 63.2256L45.2237 63.466L47.8205 63.9766L48.312 64.0244H48.694L49.1846 63.9768L51.8585 63.4497C54.3472 62.8524 56.4969 62.0257 58.4833 60.8087L59.221 60.3337L60.2695 59.5504C60.5385 59.3443 60.7696 59.0998 60.9588 58.8162L61.134 58.5196L62.4709 55.8803C63.2211 54.2798 63.8667 52.6914 64.4424 51.0006L64.8616 49.7115L65.599 47.0322C64.0022 50.0739 60.8364 52.2319 57.0128 52.6037L56.4874 52.6433L55.9264 52.5804C53.0861 52.1836 50.5865 50.6639 49.0029 48.4457L48.6985 47.9929L48.5337 47.7166L48.2139 48.2131C46.6615 50.4466 44.1986 52.0063 41.2911 52.508L40.7039 52.5941L40.169 52.6467L39.6608 52.6042C35.9766 52.2076 32.8781 49.9925 31.3743 46.912ZM48.4867 15.5393C50.8123 15.5393 53.884 17.3744 58.4233 21.0009L59.1153 21.5583L61.0959 23.197L66.3743 27.6787L70.1681 28.6843C70.8166 28.8614 71.4047 29.0258 71.943 29.181L72.9562 29.48L73.7776 29.7352L74.8629 30.0986L75.5091 30.3343L76.079 30.5574C78.6061 31.5819 79.8594 32.676 79.8594 34.1248L79.8393 34.4223L79.7796 34.7151L79.5708 34.8859L79.2118 35.1551C75.2925 37.9374 65.0385 40.6338 52.4117 41.1276L51.2212 41.1674L50.2662 41.1895L48.296 41.2079L46.3259 41.1895L45.0546 41.1582C31.9943 40.7566 21.334 37.987 17.3479 35.1331C17.1934 34.805 17.1139 34.4687 17.1139 34.1248C17.1139 32.5233 18.4583 31.2307 21.3836 30.0844C20.9174 29.5913 20.7018 29.14 20.1347 28.7693C21.0194 27.7556 22.6516 26.9209 23.7741 26.7627C26.0039 26.3923 27.3745 27.0546 28.8787 27.1765C27.7159 26.6777 25.4735 24.494 24.6835 23.5019C23.7428 21.3774 24.4157 19.5496 24.9892 18.5359L25.11 18.3313L25.3152 18.0188L25.5626 17.6873L25.7123 17.6697C26.3317 17.6286 28.6947 17.6091 29.4155 18.4148C31.4031 21.2363 31.123 24.2019 31.8557 25.5084C32.3011 23.9675 32.2659 22.654 33.2504 20.8712C34.2348 19.0885 37.6562 16.6469 40.0798 17.1329C40.1999 18.1215 40.657 18.5208 40.371 19.579C43.9321 16.8987 46.4924 15.5393 48.4867 15.5393Z" clip-rule="evenodd"/></g></svg>