<svg xmlns="http://www.w3.org/2000/svg" width="97" height="96" fill="none" viewBox="0 0 97 96"><path fill="#05BF68" d="M0.998047 48C0.998047 21.4925 22.4905 0 48.998 0C75.5094 0 96.998 21.4925 96.998 48C96.998 74.5114 75.5094 96 48.998 96C22.4905 96 0.998047 74.5114 0.998047 48Z"/><path fill="#FEFEFE" d="M46.5271 60.2847H41.5159V35.7164H46.5271V23.9967H39.8608C34.312 23.9967 29.8 28.5125 29.8 34.0575V61.9436C29.8 67.4886 34.312 72.0006 39.8608 72.0006H46.5271V60.2847Z"/><path fill="#FEFEFE" d="M58.1405 23.9977H51.386V35.7135H56.4817V38.8431C56.4817 39.7647 57.2343 40.5174 58.1559 40.5174H66.5271C67.4525 40.5174 68.1975 39.7647 68.1975 38.8431V34.0585C68.1975 28.502 63.697 23.9977 58.1405 23.9977Z"/><path fill="#FEFEFE" d="M56.4826 60.2846H51.387V72.0005H58.1415C63.6942 72.0005 68.1985 67.4961 68.1985 61.9435V57.1589C68.1985 56.2334 67.4497 55.4846 66.5242 55.4846H58.1569C57.2314 55.4846 56.4826 56.2334 56.4826 57.1589V60.2846Z"/></svg>