<svg xmlns="http://www.w3.org/2000/svg" width="96" height="96" fill="none" viewBox="0 0 96 96"><circle cx="48" cy="48" r="48" fill="#E9CA7D"/><path fill="#010101" fill-rule="evenodd" d="M47.9898 9.27859C47.9698 9.29859 47.6898 9.36859 47.3698 9.42859C45.9298 9.67859 44.9898 10.5487 44.3698 12.2087C44.0998 12.9287 43.3898 14.4187 42.1297 17.0087C40.5897 20.1287 40.5597 20.1987 40.4997 20.6987C40.4197 21.4787 40.7697 22.6087 41.4497 23.8287C42.5298 25.7387 44.4298 27.3188 46.3798 27.9088C50.0198 29.0188 54.1998 26.7588 55.8298 22.8087C56.3198 21.6187 56.4498 20.6087 56.2298 19.6786C56.1598 19.3786 55.6398 18.2487 54.7998 16.5487C53.3698 13.6686 53.2598 13.4287 52.9498 12.5686C52.5798 11.5686 52.2898 11.0986 51.7398 10.5486C51.3098 10.1186 51.1098 9.98866 50.6298 9.78865C49.9098 9.47865 48.1198 9.14859 47.9898 9.27859ZM57.5324 24.7986C57.3969 24.9884 57.235 25.2136 57.0665 25.4481C56.7376 25.9056 56.3838 26.398 56.1524 26.7286C55.9771 26.972 55.7947 27.2297 55.6399 27.4485L55.6397 27.4487L55.6397 27.4488L55.6396 27.4489L55.6395 27.4491L55.6392 27.4494L55.6391 27.4495C55.4762 27.6796 55.3438 27.8667 55.2824 27.9487C55.2587 27.9821 55.2332 28.0187 55.2065 28.0568L55.2059 28.0577L55.2058 28.0579C55.0972 28.2132 54.9705 28.3945 54.8824 28.4987L54.7124 28.7387L55.7124 29.2187C56.2724 29.4887 56.8824 29.7687 57.0724 29.8487C57.2624 29.9387 58.0124 30.2886 58.7524 30.6287C59.1529 30.8207 59.5655 31.0127 59.8894 31.1635L59.8894 31.1635L59.8895 31.1635L59.8897 31.1636L59.89 31.1638C60.1561 31.2876 60.3622 31.3836 60.4524 31.4287C60.5309 31.466 60.657 31.5244 60.8091 31.5949L60.8092 31.5949C61.0639 31.7129 61.3919 31.8647 61.6924 32.0087C62.1624 32.2287 62.5624 32.3987 62.5624 32.3787C62.5624 32.2887 58.3724 23.7786 58.3224 23.7786C58.2824 23.7886 57.9324 24.2486 57.5324 24.7986ZM36.5008 28.6187C37.3508 26.8387 38.1708 25.1187 38.3108 24.7987C38.5208 24.3487 38.5908 24.2488 38.6508 24.3088C38.7008 24.3588 39.1408 24.9087 39.6208 25.5187C39.8879 25.8512 40.2322 26.2876 40.5614 26.705L40.5615 26.7051L40.5616 26.7052L40.5616 26.7052L40.5616 26.7053L40.5617 26.7053C40.8364 27.0536 41.1007 27.3886 41.3008 27.6388C41.7408 28.1888 42.0908 28.6587 42.0908 28.6987C42.0908 28.7387 41.9408 28.8387 41.7408 28.9187C41.5508 29.0087 39.9808 29.7187 38.2408 30.4987C36.5008 31.2787 35.0608 31.9088 35.0208 31.8888C34.9808 31.8688 35.6508 30.3988 36.5008 28.6187ZM46.232 30.8088C44.502 30.9888 42.552 31.4887 40.472 32.2987C39.512 32.6687 37.182 33.8487 36.012 34.5487L35.1319 35.0787H47.822C54.9621 35.0787 60.4821 35.0488 60.4321 35.0088C60.1021 34.7188 58.9521 33.8087 58.5321 33.5287C56.1821 31.9487 53.442 31.0588 50.132 30.7888C49.022 30.7088 47.132 30.7188 46.232 30.8088ZM33.1317 37.6287L45.3817 37.5888C47.4392 37.5827 49.5023 37.5756 51.4201 37.5691L51.4272 37.569L51.4298 37.569L51.4308 37.569L51.4424 37.569L51.4466 37.569C55.7902 37.5541 59.384 37.5418 60.4718 37.5488H63.3118L63.8018 37.7588C64.4118 38.0188 65.1218 38.5988 65.5919 39.2188C66.1319 39.9288 66.7719 40.9688 66.7119 41.0388C66.6819 41.0788 62.9618 41.1088 58.4318 41.1188L50.2118 41.1488L50.1918 57.3589L50.1718 73.569L50.0118 73.909C49.7318 74.479 49.1618 74.609 47.7317 74.3989L47.1217 74.309V57.8788C47.1217 48.8388 47.1017 41.3988 47.0817 41.3288C47.0417 41.2288 46.2317 41.2088 38.6617 41.2088H30.2917L30.3317 41.0388C30.3517 40.9488 30.5217 40.5288 30.7017 40.0988C31.2217 38.8688 31.8017 38.1988 32.7017 37.8088L33.1317 37.6287ZM30.871 43.8588C29.391 43.9188 29.141 44.0588 28.481 45.1688C27.481 46.8788 26.831 48.8889 26.581 51.0089C26.481 51.9389 26.541 54.1489 26.691 55.2889C27.221 59.0289 28.841 62.9889 31.041 65.8689C32.521 67.8089 34.6311 69.7389 36.5511 70.8989C36.8211 71.0589 37.0811 71.2289 37.1411 71.2789C37.4111 71.4889 39.2011 72.3489 40.2011 72.7489C41.1811 73.1389 44.9711 74.4589 44.9911 74.4189C45.0011 74.3989 44.9911 67.6789 44.9711 59.4988L44.9707 59.3638C44.9311 44.7977 44.9306 44.628 44.7811 44.3787C44.7011 44.2387 44.5411 44.0588 44.4311 43.9688C44.2212 43.8189 44.2011 43.8188 38.1001 43.8088H38.1001H38.1H38.1H38.0999H38.0999H38.0998H38.0997L38.0911 43.8088C34.7111 43.8188 31.461 43.8288 30.871 43.8588ZM52.8409 44.1688C53.0209 44.0588 53.3209 44.0388 55.3709 43.9988C56.6509 43.9788 59.861 43.9588 62.511 43.9688C67.701 43.9888 67.7011 43.9888 68.1656 44.3941L68.171 44.3988C68.941 45.0688 70.111 47.7589 70.521 49.7589C71.121 52.7189 70.791 56.1889 69.581 59.7189C68.701 62.2789 67.491 64.509 65.961 66.439C65.281 67.289 63.551 69.019 62.691 69.689C61.011 71.009 59.101 72.109 57.1209 72.889C56.6609 73.079 52.7209 74.509 52.4309 74.599C52.3209 74.639 52.3109 73.189 52.3309 60.4789C52.3409 52.6888 52.3609 45.9788 52.3709 45.5488C52.3909 44.6988 52.4909 44.3888 52.8409 44.1688ZM72.5112 54.1288C72.4212 54.5488 72.1811 55.7589 71.9811 56.8089C71.7811 57.8689 71.5411 59.0889 71.4511 59.5289C71.3611 59.9689 71.3111 60.3489 71.3411 60.3689C71.3611 60.3889 71.6311 60.3389 71.9511 60.2489C72.2712 60.1589 72.7411 60.029 73.0112 59.959C73.1195 59.9268 73.281 59.8835 73.4652 59.834L73.4655 59.8339L73.4659 59.8338L73.4663 59.8337L73.4672 59.8335L73.4673 59.8334L73.4676 59.8334C73.742 59.7597 74.0665 59.6725 74.3412 59.5889C74.4918 59.5473 74.6403 59.5056 74.776 59.4676L74.7764 59.4675L74.7766 59.4674C75.064 59.3868 75.2933 59.3225 75.3612 59.3089C75.4512 59.2889 75.5212 59.2389 75.5212 59.209C75.5212 59.1789 74.8812 57.8489 74.0912 56.2589L72.6612 53.3589L72.5112 54.1288ZM23.1739 56.2698L23.1741 56.2693C23.3452 55.8971 23.6153 55.3091 23.7906 54.9488C24.0406 54.4188 24.1306 54.2888 24.1806 54.3988C24.2106 54.4588 24.3306 54.8788 24.4306 55.3388C24.5306 55.7988 24.6906 56.5287 24.7906 56.9788C24.8754 57.3934 25.049 58.1544 25.1776 58.7177L25.2006 58.8188C25.5506 60.3388 25.6906 61.0288 25.6706 61.0488C25.6506 61.0688 24.6806 60.8188 23.0906 60.3888C21.7906 60.0288 21.5006 59.9388 21.5006 59.8688C21.5006 59.8188 21.7606 59.2588 23.1606 56.2988L23.1739 56.2698ZM75.1411 62.0189C74.0811 62.1189 73.0511 62.4089 72.1011 62.8989C69.6411 64.1489 68.091 66.3989 67.771 69.1689C67.521 71.3189 68.381 73.8389 69.5311 74.3289C69.771 74.4289 70.3611 74.4489 74.3311 74.4289H74.3312H74.3312C78.5391 74.4122 79.2268 74.4095 79.7641 74.1238C79.869 74.0681 79.9682 74.0015 80.0867 73.9219L80.0868 73.9219L80.0911 73.9189C80.8111 73.4389 81.2611 72.469 81.1711 71.539C81.1111 70.909 80.9611 70.4089 80.5711 69.5789C79.5211 67.3689 78.4411 65.1189 77.8311 63.9289C77.1011 62.4789 76.9211 62.2489 76.3311 62.0489C76.0411 61.9389 76.0411 61.9389 75.1415 62.0189L75.1411 62.0189ZM20.1006 63.0189C20.2506 62.8489 20.4607 62.7189 20.6807 62.6489C20.8707 62.5889 21.1007 62.559 21.2007 62.559C22.2707 62.729 22.5907 62.7989 23.2107 62.9789C23.6007 63.0989 24.1707 63.3089 24.4807 63.4489C27.8107 64.9589 29.7207 68.769 28.8407 72.159C28.5207 73.369 28.1707 73.939 27.5107 74.289C27.2208 74.449 27.1807 74.449 22.6439 74.449H22.6407H18.0606L17.6506 74.2489C17.1306 73.9989 16.6206 73.4889 16.3506 72.9489C16.1706 72.5789 16.1406 72.4589 16.1506 71.8289C16.1606 71.2589 16.1906 71.0289 16.3406 70.6489C16.9806 69.0289 19.7306 63.4289 20.1006 63.0189ZM31.1095 72.219C31.0643 72.5216 31.0206 72.8115 30.9809 73.0747C30.8711 73.8031 30.7921 74.327 30.7995 74.349C30.7995 74.389 32.2495 74.409 34.0295 74.399H37.2595L37.0395 74.219C36.4595 73.749 31.5695 70.1389 31.4995 70.1289C31.4595 70.1289 31.2895 71.069 31.1095 72.219ZM62.0824 72.4576C62.6835 72.0117 63.3726 71.5005 64.1012 70.9589L64.2108 70.8793C64.7814 70.4651 65.2436 70.1295 65.2812 70.1389C65.3112 70.1389 65.3412 70.1889 65.3412 70.2589C65.3412 70.3289 65.5512 71.2689 65.8212 72.3489C66.0812 73.4189 66.2812 74.3089 66.2712 74.3189C66.2512 74.3389 64.7512 74.3389 62.9112 74.3289L59.5811 74.309L60.0911 73.9389C60.4147 73.6948 61.1406 73.1563 62.0824 72.4576Z" clip-rule="evenodd"/></svg>