<svg xmlns="http://www.w3.org/2000/svg" width="96" height="96" fill="none" viewBox="0 0 96 96"><circle cx="48" cy="48" r="48" fill="url(#paint0_linear)" transform="rotate(90 48 48)"/><ellipse fill="url(#paint1_linear)" rx="44" ry="44" transform="matrix(1 0 0 -1 48 48)"/><circle r="40" fill="#fff" transform="matrix(-4.37114e-08 -1 -1 4.37114e-08 48.1177 48.1177)"/><path fill="url(#paint2_linear)" d="M73.4558 22.5442C59.397 8.48528 36.603 8.48528 22.5442 22.5442C8.48528 36.603 8.48528 59.397 22.5442 73.4558C36.603 87.5147 59.397 87.5147 73.4558 73.4558C87.5147 59.397 87.5147 36.603 73.4558 22.5442Z"/><path fill="#D48FCD" fill-rule="evenodd" d="M49.0005 40.5L63.8208 47.2309L62.8424 49.3853L48.022 42.6544L49.0005 40.5Z" clip-rule="evenodd"/><path fill="#A1DD71" fill-rule="evenodd" d="M47.9789 42.6544L33.1586 49.3853L32.1802 47.2309L47.0005 40.5L47.9789 42.6544Z" clip-rule="evenodd"/><path fill="#5A9DED" fill-rule="evenodd" d="M48 76L65.1233 51.9561L48 62.0874V76ZM56.7192 59.6779L50.3662 63.4367V68.5985L56.7192 59.6779Z" clip-rule="evenodd"/><path fill="#FF9C92" fill-rule="evenodd" d="M48 20V58.5271L65.123 48.3957L48 20ZM50.3662 28.5061V54.3777L61.8646 47.5743L50.3662 28.5061Z" clip-rule="evenodd"/><path fill="#53D3E1" fill-rule="evenodd" d="M45.634 63.4367L39.2811 59.6779L45.634 68.5985V63.4367ZM48.0002 62.0874L30.877 51.9561L48.0002 76V62.0874Z" clip-rule="evenodd"/><path fill="#F8D136" fill-rule="evenodd" d="M30.877 48.3957L48 58.5271V20L30.877 48.3957ZM34.1354 47.5743L45.6338 54.3777V28.5061L34.1354 47.5743Z" clip-rule="evenodd"/><defs><linearGradient id="paint0_linear" x1="48" x2="48" y1="0" y2="96" gradientUnits="userSpaceOnUse"><stop stop-color="#F0B90B"/><stop offset="1" stop-color="#F8D33A"/></linearGradient><linearGradient id="paint1_linear" x1="44" x2="44" y1="0" y2="88" gradientUnits="userSpaceOnUse"><stop stop-color="#F0B90B"/><stop offset="1" stop-color="#F8D33A"/></linearGradient><linearGradient id="paint2_linear" x1="48" x2="48" y1="84" y2="12" gradientUnits="userSpaceOnUse"><stop stop-color="#E6EAFA"/><stop offset="1" stop-color="#E4F5EB"/></linearGradient></defs></svg>