<svg xmlns="http://www.w3.org/2000/svg" width="96" height="96" fill="none" viewBox="0 0 96 96"><path fill="url(#paint0_linear)" d="M48 96C74.5097 96 96 74.5097 96 48C96 21.4903 74.5097 0 48 0C21.4903 0 0 21.4903 0 48C0 74.5097 21.4903 96 48 96Z"/><path fill="#B5C7FF" d="M14.9023 65.2416L31.4527 55.2512V37.5264L14.9023 47.52V65.2416Z"/><path fill="#fff" d="M48.0001 65.2416L31.4529 55.2512V37.5264L48.0001 47.52V65.2416Z"/><path fill="#B5C7FF" d="M48 65.2416L64.5472 55.2512V37.5264L48 47.52V65.2416Z"/><path fill="#fff" d="M81.0943 65.2416L64.5471 55.2512V37.5264L81.0943 47.52V65.2416Z"/><path fill="#FAB508" d="M48 27.4463L35.1904 35.1839L48 42.9183L60.8096 35.1839L48 27.4463Z"/><defs><linearGradient id="paint0_linear" x1="0" x2="96" y1="48" y2="48" gradientUnits="userSpaceOnUse"><stop offset="0" stop-color="#1B6FF5"/><stop offset="1" stop-color="#1B46F5"/></linearGradient></defs></svg>