<svg xmlns="http://www.w3.org/2000/svg" width="96" height="96" fill="none" viewBox="0 0 96 96"><circle cx="48" cy="48" r="48" fill="#FFFEFB"/><g opacity=".9"><path fill="url(#paint0_linear)" fill-rule="evenodd" d="M75.2327 16.1803C73.9334 15.0469 71.9755 14.5992 69.3609 14.9586C66.7495 15.3176 63.6104 16.4697 60.1375 18.3589C53.1993 22.1336 45.1196 28.7467 37.5787 37.321C30.0379 45.8952 24.5203 54.7429 21.6778 62.0893C20.255 65.7664 19.5223 69.0164 19.5091 71.6406C19.496 74.2677 20.1991 76.14 21.4981 77.273C22.7976 78.4065 24.7554 78.8542 27.37 78.4947C29.9814 78.1358 33.1205 76.9839 36.5932 75.0943L36.8256 75.5213L36.5933 75.0943C43.5315 71.3197 51.6112 64.7065 59.1521 56.1325C66.6928 47.5581 72.2107 38.7104 75.0532 31.3641C76.476 27.6871 77.2086 24.437 77.2218 21.8127C77.235 19.1856 76.5318 17.3134 75.2327 16.1804L75.2327 16.1803ZM75.8718 15.4476C74.282 14.0608 71.9979 13.6146 69.2284 13.9954C66.4589 14.3761 63.204 15.5838 59.6728 17.5048L59.9052 17.9319L59.6728 17.5048C52.6108 21.3468 44.4448 28.0417 36.8486 36.6789C29.2525 45.3159 23.6646 54.26 20.771 61.7384C19.3242 65.4776 18.5508 68.8506 18.5368 71.6357C18.5228 74.4213 19.2685 76.6185 20.859 78.0058C22.449 79.3926 24.7329 79.8388 27.5024 79.458C30.272 79.0773 33.5269 77.8697 37.0579 75.9484C44.12 72.1064 52.286 65.4116 59.8823 56.7746L59.5172 56.4536L59.8823 56.7746C67.4782 48.1375 73.0664 39.1934 75.96 31.715C77.4068 27.9758 78.1801 24.6028 78.1941 21.8176C78.2081 19.032 77.4625 16.8348 75.8718 15.4476Z" clip-rule="evenodd" opacity=".9"/><path fill="url(#paint1_linear)" d="M45.0641 69.2135C45.7801 69.2135 46.3605 69.7937 46.3605 70.51V82.7448H47.3329V70.51C47.3329 69.7937 47.9134 69.2135 48.6293 69.2135H58.2444V68.2412H48.6293C47.9134 68.2412 47.3329 67.6607 47.3329 66.9447V55.9639H46.3605V66.9447C46.3605 67.6607 45.7801 68.2412 45.0641 68.2412H34.4766V69.2135H45.0641Z" opacity=".9"/><path fill="url(#paint2_linear)" d="M45.2073 27.7273C45.9232 27.7273 46.5037 28.3077 46.5037 29.0237V41.2587H47.476V29.0237C47.476 28.3077 48.0565 27.7273 48.7725 27.7273H58.3879V26.755H48.7725C48.0565 26.755 47.476 26.1746 47.476 25.4585V14.4778H46.5037V25.4585C46.5037 26.1746 45.9232 26.755 45.2073 26.755H34.6199V27.7273H45.2073Z" opacity=".9"/></g><defs><linearGradient id="paint0_linear" x1="33.407" x2="85.598" y1="86.878" y2="27.04" gradientUnits="userSpaceOnUse"><stop stop-color="#08AEEA"/><stop offset="1" stop-color="#2AF598"/></linearGradient><linearGradient id="paint1_linear" x1="34.922" x2="57.576" y1="82.745" y2="82.745" gradientUnits="userSpaceOnUse"><stop stop-color="#08AEEA"/><stop offset="1" stop-color="#2AF598"/></linearGradient><linearGradient id="paint2_linear" x1="35.066" x2="57.719" y1="41.259" y2="41.259" gradientUnits="userSpaceOnUse"><stop stop-color="#08AEEA"/><stop offset="1" stop-color="#2AF598"/></linearGradient></defs></svg>