<svg xmlns="http://www.w3.org/2000/svg" width="96" height="96" fill="none" viewBox="0 0 96 96"><path fill="#633001" fill-rule="evenodd" d="M0 43.023C2.80264e-05 18.834 21.9448 0 48 0C74.0553 0 96 18.834 96 43.0231V52.9769C96 77.166 74.0553 96 48 96C21.9448 96 0 77.166 0 52.9769V43.023ZM3.91837 43.023C3.91839 21.4261 23.6544 3.91837 48 3.91837C72.3456 3.91837 92.0817 21.4261 92.0817 43.0231V52.9769C92.0817 74.5739 72.3456 92.0816 48 92.0816C23.6544 92.0816 3.91837 74.5739 3.91837 52.9769V43.023Z" clip-rule="evenodd"/><path fill="#FEDC90" d="M92.0818 52.9768C92.0818 74.5737 72.3457 92.0815 48.0001 92.0815C23.6545 92.0815 3.91846 74.5737 3.91846 52.9768V43.0229H92.0818V52.9768Z"/><path fill="#D1884F" d="M92.0818 43.0231C92.0818 64.62 72.3457 82.1277 48.0001 82.1277C23.6545 82.1277 3.91846 64.62 3.91846 43.0231C3.91846 21.4261 23.6545 3.91837 48.0001 3.91837C72.3457 3.91837 92.0818 21.4261 92.0818 43.0231Z"/><path fill="#633001" d="M71.1523 60.5173C45.1995 71.5235 29.0929 62.315 18.7826 56.7219C18.1446 56.3694 17.0602 56.8043 18.001 57.7673C21.4359 61.4786 32.6928 70.4238 47.3863 70.4238C62.0899 70.4238 70.8371 63.2747 71.9314 62.0275C73.0182 60.7909 72.2505 60.1088 71.1521 60.5173H71.1523ZM78.4411 56.9304C77.7442 56.1217 74.2032 55.971 71.9748 56.2149C69.7429 56.4518 66.3928 57.6673 66.6841 58.3971C66.8336 58.6705 67.1386 58.5479 68.6718 58.425C70.2093 58.2883 74.5162 57.804 75.4136 58.8494C76.3153 59.902 74.04 64.9165 73.6244 65.7252C73.2229 66.5339 73.7778 66.7424 74.532 66.2038C75.2758 65.6654 76.6223 64.271 77.5259 62.2978C78.4234 60.3138 78.9706 57.5462 78.4409 56.9304H78.4411Z"/><path fill="#633001" fill-rule="evenodd" d="M53.7018 38.0595C53.7018 40.9473 53.7836 43.3556 52.1456 45.9202C50.8235 48.0055 48.7292 49.2878 46.3893 49.2878C43.1951 49.2878 41.3349 47.1192 41.3349 43.9187C41.3349 37.6006 47.6877 36.4539 53.7018 36.4539V38.0595ZM62.0905 56.1271C61.5405 56.5649 60.7449 56.5963 60.1249 56.3042C57.3638 54.2609 56.8723 53.3122 55.3514 51.3625C50.7885 55.512 47.5593 56.7526 41.6392 56.7526C34.6427 56.7526 29.1904 52.9055 29.1904 45.201C29.1904 39.1855 32.8527 35.0881 38.0588 33.0866C42.5751 31.314 48.8814 31.0013 53.7018 30.5114V29.5522C53.7018 27.7902 53.8537 25.7051 52.6956 24.1831C51.6775 22.8173 49.7354 22.2542 48.0271 22.2542C44.8566 22.2542 42.0252 23.7033 41.3349 26.7059C41.1943 27.3733 40.6446 28.0301 39.8959 28.0614L31.8228 27.29C31.1444 27.1542 30.3957 26.6643 30.5828 25.7363C32.4431 17.0207 41.2762 14.3933 49.1852 14.3933C53.2334 14.3933 58.5217 15.3525 61.7158 18.0841C65.7641 21.4515 65.3779 25.9449 65.3779 30.8345V42.3861C65.3779 45.8578 66.9925 47.3799 68.5134 49.2566C69.0515 49.9238 69.1686 50.7268 68.4899 51.2269C66.7935 52.4884 63.7749 54.8343 62.1136 56.148L62.0902 56.1271" clip-rule="evenodd"/><path fill="#8A4B17" d="M71.1523 60.5173C45.1995 71.5235 29.0929 62.315 18.7826 56.7219C18.1446 56.3694 17.0602 56.8043 18.001 57.7673C21.4359 61.4786 32.6928 70.4238 47.3863 70.4238C62.0899 70.4238 70.8371 63.2747 71.9314 62.0275C73.0182 60.7909 72.2505 60.1088 71.1521 60.5173H71.1523ZM78.4411 56.9304C77.7442 56.1217 74.2032 55.971 71.9748 56.2149C69.7429 56.4518 66.3928 57.6673 66.6841 58.3971C66.8336 58.6705 67.1386 58.5479 68.6718 58.425C70.2093 58.2883 74.5162 57.804 75.4136 58.8494C76.3153 59.902 74.04 64.9165 73.6244 65.7252C73.2229 66.5339 73.7778 66.7424 74.532 66.2038C75.2758 65.6654 76.6223 64.271 77.5259 62.2978C78.4234 60.3138 78.9706 57.5462 78.4409 56.9304H78.4411Z"/><path fill="#633001" fill-rule="evenodd" d="M53.7018 38.0595C53.7018 40.9473 53.7836 43.3556 52.1456 45.9202C50.8235 48.0055 48.7292 49.2878 46.3893 49.2878C43.1951 49.2878 41.3349 47.1192 41.3349 43.9187C41.3349 37.6006 47.6877 36.4539 53.7018 36.4539V38.0595ZM62.0905 56.1271C61.5405 56.5649 60.7449 56.5963 60.1249 56.3042C57.3638 54.2609 56.8723 53.3122 55.3514 51.3625C50.7885 55.512 47.5593 56.7526 41.6392 56.7526C34.6427 56.7526 29.1904 52.9055 29.1904 45.201C29.1904 39.1855 32.8527 35.0881 38.0588 33.0866C42.5751 31.314 48.8814 31.0013 53.7018 30.5114V29.5522C53.7018 27.7902 53.8537 25.7051 52.6956 24.1831C51.6775 22.8173 49.7354 22.2542 48.0271 22.2542C44.8566 22.2542 42.0252 23.7033 41.3349 26.7059C41.1943 27.3733 40.6446 28.0301 39.8959 28.0614L31.8228 27.29C31.1444 27.1542 30.3957 26.6643 30.5828 25.7363C32.4431 17.0207 41.2762 14.3933 49.1852 14.3933C53.2334 14.3933 58.5217 15.3525 61.7158 18.0841C65.7641 21.4515 65.3779 25.9449 65.3779 30.8345V42.3861C65.3779 45.8578 66.9925 47.3799 68.5134 49.2566C69.0515 49.9238 69.1686 50.7268 68.4899 51.2269C66.7935 52.4884 63.7749 54.8343 62.1136 56.148L62.0902 56.1271" clip-rule="evenodd"/></svg>