<svg xmlns="http://www.w3.org/2000/svg" width="96" height="96" fill="none" viewBox="0 0 96 96"><circle cx="48" cy="48" r="48" fill="#fff"/><rect width="10.611" height="10.611" x="24.664" y="21.197" fill="#F75171"/><rect width="10.611" height="10.611" x="24.664" y="31.809" fill="#FFD767"/><rect width="10.611" height="10.611" x="24.664" y="42.42" fill="#22D99D"/><rect width="10.611" height="10.611" x="24.664" y="53.031" fill="#22D99D"/><rect width="10.611" height="10.611" x="24.664" y="63.643" fill="#4F4F4F"/><rect width="10.611" height="10.611" x="35.275" y="63.643" fill="#4F4F4F"/><rect width="10.611" height="10.611" x="45.886" y="63.643" fill="#4F4F4F"/><rect width="10.611" height="10.611" x="60.147" y="53.031" fill="#4F4F4F"/><rect width="10.611" height="10.611" x="60.147" y="42.42" fill="#4F4F4F"/><rect width="10.611" height="10.611" x="45.886" y="21.197" fill="#4F4F4F" transform="rotate(90 45.8862 21.1973)"/><rect width="10.611" height="10.611" x="60.147" y="31.809" fill="#4F4F4F"/><rect width="10.611" height="10.611" x="56.498" y="21.197" fill="#4F4F4F" transform="rotate(90 56.4976 21.1973)"/><path fill="#787878" d="M60.1465 63.6426H70.7579L60.1465 74.254V63.6426Z"/><path fill="#787878" d="M60.1465 31.8086H70.7579L60.1465 21.1972V31.8086Z"/><rect width="3.649" height="10.611" x="56.498" y="63.643" fill="#4F4F4F"/><rect width="3.649" height="10.611" x="56.498" y="21.197" fill="#4F4F4F"/></svg>