<svg xmlns="http://www.w3.org/2000/svg" width="96" height="96" fill="none" viewBox="0 0 96 96"><g clip-path="url(#clip0_2706_4532)"><path fill="#010101" d="M48 0C21.4903 0 0 21.4903 0 48C0 74.5097 21.4903 96 48 96C74.5097 96 96 74.5097 96 48C96 21.4903 74.5097 0 48 0Z"/><g clip-path="url(#clip1_2706_4532)"><path fill="#fff" d="M77.25 45.6163V38.3301H69.77V27H61.3375V38.3392H34.9124V27H26.4801V38.3392H19V45.6255H26.4801V49.3837H19V56.67H26.4801V68H34.9124V56.6607H61.3375V68H69.77V56.6607H77.25V49.3745H69.77V45.6163H77.25ZM61.3375 49.3745H34.9124V45.6163H61.3375V49.3745Z"/></g></g><defs><clipPath id="clip0_2706_4532"><rect width="96" height="96" fill="#fff"/></clipPath><clipPath id="clip1_2706_4532"><rect width="58.25" height="41" fill="#fff" transform="translate(19 27)"/></clipPath></defs></svg>