<svg xmlns="http://www.w3.org/2000/svg" width="96" height="96" fill="none" viewBox="0 0 96 96"><path fill="url(#paint0_linear)" d="M48 96C74.5097 96 96 74.5097 96 48C96 21.4903 74.5097 0 48 0C21.4903 0 0 21.4903 0 48C0 74.5097 21.4903 96 48 96Z"/><path fill="#fff" fill-rule="evenodd" d="M15.0099 49.4198C15.0599 45.4298 16.0699 42.4698 18.2499 39.8898C18.7299 39.3098 19.3099 38.7799 19.8399 38.2399C20.7599 37.2699 21.6799 36.35 22.5899 35.37C23.7999 34.16 25.0099 32.9899 26.2199 31.7799C26.9899 30.9999 27.76 30.2198 28.54 29.4398C29.36 28.6198 30.23 27.7899 31.05 26.9599C31.87 26.1899 32.64 25.41 33.42 24.58C34.96 23.03 36.51 21.4698 38.05 19.9198C40.23 17.7798 42.8399 16.5098 45.8799 16.1298C48.5399 15.7898 51.0999 16.1299 53.5099 17.2399C54.5299 17.7299 55.44 18.4099 56.31 19.0399C56.89 19.4799 56.85 19.5798 56.41 20.1598C56.31 20.3098 56.1699 20.3999 56.0699 20.5499C54.1899 22.4399 52.2599 24.3899 50.3699 26.2799C49.4999 27.1599 48.6299 27.9899 47.7599 28.8099C46.7499 29.8299 45.7799 30.8 44.8199 31.83C44.0899 32.55 43.3199 33.2799 42.5899 34.0099C41.3899 35.2299 40.2799 36.4899 39.0699 37.7099C38.1499 38.6299 37.23 39.4998 36.31 40.4298C35.35 41.4498 34.3799 42.4699 33.3699 43.4899C32.4999 44.4099 31.5799 45.2898 30.7099 46.1598C29.8399 47.1398 28.97 48.1099 28.05 49.0299C27.62 49.4699 27.18 49.8599 26.8 50.2899C25.93 51.2199 25.0599 52.14 24.1899 53.07C23.3699 53.94 22.5 54.8198 21.68 55.6398C21.1 56.2198 20.5199 56.8598 19.9399 57.4398C19.8399 57.5398 19.7399 57.6299 19.6499 57.7299C19.0699 58.2199 18.73 58.22 18.29 57.59C17.62 56.71 16.9399 55.7899 16.4599 54.7699C15.5399 52.9199 14.9099 50.9298 15.0099 49.4198ZM80.8599 50.7299C80.4699 54.1299 78.9699 56.47 78.5799 57.1C78.1499 57.73 77.5699 58.4099 76.3599 59.7199C75.3999 60.7899 74.3799 61.81 73.3699 62.83C72.3499 63.81 71.3399 64.7799 70.3199 65.7999C69.4099 66.6699 68.54 67.5999 67.67 68.4699C66.7 69.4399 65.7299 70.4198 64.7699 71.3898C63.7499 72.4098 62.69 73.4799 61.68 74.4999C60.28 75.9099 58.92 77.3698 57.43 78.6798C55.4 80.4798 53.0299 81.5998 50.3199 81.8898C47.6199 82.1798 44.9599 81.9399 42.4999 80.7699C41.4799 80.2799 40.5699 79.5999 39.6499 78.9699C39.1199 78.5799 39.12 78.2899 39.55 77.7999C40.28 77.0299 41.0999 76.2499 41.8699 75.4699C42.2999 75.0299 42.7399 74.55 43.2199 74.11C44.1899 73.19 45.1499 72.2199 46.1199 71.2899C46.2199 71.1899 46.3099 71.1499 46.3599 71.0499C47.2799 70.1299 48.1499 69.1999 49.0699 68.2799C49.9399 67.3999 50.8099 66.5799 51.6299 65.7499C52.0099 65.3599 52.4 64.97 52.79 64.58C52.98 64.39 53.1299 64.1999 53.3199 63.9999C54.4799 62.8299 55.64 61.6699 56.8 60.4999C57.72 59.6299 58.6299 58.75 59.4999 57.83C60.7599 56.56 62.0599 55.3499 63.2699 54.0399C64.3299 52.9199 64.86 51.5099 65.06 49.9999C65.3 48.1999 64.77 46.5499 63.8 45.0499C63.27 44.2199 62.5899 44.12 61.8699 44.85C60.2299 46.46 58.5799 48.0598 56.9399 49.6598C55.1999 51.3598 53.46 53.0699 51.68 54.7699C50.42 56.0299 49.12 57.2499 47.81 58.4599C46.27 59.9698 44.72 61.52 43.17 63.08C42.4 63.86 41.58 64.58 40.81 65.36C39.7 66.43 38.5799 67.5 37.4699 68.62C36.8499 69.2 36.07 69.5399 35.3 69.7899C34.19 70.1299 33.0799 70.0798 31.9699 69.8798C30.8099 69.6898 29.8399 69.0999 28.9699 68.2799C27.6199 66.9199 26.2699 65.5598 24.8599 64.1998C24.2899 63.6098 24.3299 63.5599 24.8599 63.0299C27.7199 60.2099 30.5199 57.3899 33.3699 54.5199C35.4899 52.3799 37.67 50.25 39.79 48.11C40.95 46.94 42.1099 45.7698 43.2699 44.6598C44.2399 43.6798 45.2 42.81 46.17 41.84C47.09 40.91 47.9599 39.99 48.8699 39.07C49.7399 38.19 50.61 37.3198 51.53 36.4398C52.59 35.3698 53.6599 34.2999 54.7199 33.2799C55.7299 32.2599 56.8 31.2899 57.81 30.2699C57.91 30.1699 57.9999 30.0799 58.0999 29.9799C59.2599 28.5699 60.8099 27.9898 62.5899 27.9398C64.6199 27.8398 66.27 28.5699 67.67 30.0299C70.42 32.8499 73.2199 35.6598 76.0199 38.4398C77.9099 40.3298 78.2499 40.7198 78.8699 41.6898C80.5699 44.2698 80.8999 46.6499 80.9999 47.2799C80.8599 47.7199 81.0499 49.0299 80.8599 50.7299Z" clip-rule="evenodd"/><defs><linearGradient id="paint0_linear" x1="0" x2="96" y1="0" y2="96" gradientUnits="userSpaceOnUse"><stop offset=".245" stop-color="#F16154"/><stop offset=".693" stop-color="#ED8533"/></linearGradient></defs></svg>