<svg xmlns="http://www.w3.org/2000/svg" width="96" height="96" fill="none" viewBox="0 0 96 96"><circle cx="48" cy="48" r="48" fill="#000"/><path fill="#0F0" d="M71.3937 75.5577L52.0388 56.2022C51.7639 55.9274 51.5459 55.6012 51.3972 55.2421C51.2485 54.8831 51.1719 54.4983 51.1719 54.1096C51.1719 53.721 51.2485 53.3362 51.3972 52.9771C51.5459 52.6181 51.7639 52.2919 52.0388 52.0171L66.4283 37.6278C66.713 37.3433 66.8729 36.9573 66.8729 36.5548C66.873 36.1524 66.7132 35.7664 66.4286 35.4818C66.1441 35.1972 65.7581 35.0372 65.3557 35.0372C64.9532 35.0371 64.5672 35.197 64.2826 35.4815L35.4991 64.2634C34.8076 64.9587 33.9856 65.5106 33.0802 65.8874C32.1749 66.2642 31.204 66.4585 30.2234 66.4591C29.2428 66.4597 28.2717 66.2667 27.3659 65.891C26.4601 65.5153 25.6374 64.9644 24.945 64.27C24.2527 63.5755 23.7043 62.7511 23.3314 61.8442C22.9585 60.9372 22.7684 59.9656 22.772 58.985C22.7756 58.0043 22.9728 57.0341 23.3524 56.1299C23.7319 55.2257 24.2863 54.4054 24.9838 53.716L37.2932 41.479L20 24.1851L24.1851 20L43.5771 39.392C43.8523 39.6673 44.0706 39.9942 44.2193 40.354C44.3681 40.7137 44.4444 41.0993 44.4438 41.4887C44.4432 41.878 44.3658 42.2634 44.2161 42.6227C44.0663 42.9821 43.8471 43.3083 43.571 43.5828L29.1565 57.9129C29.0134 58.0543 28.8996 58.2226 28.8217 58.4082C28.7438 58.5937 28.7033 58.7928 28.7025 58.994C28.7018 59.1952 28.7408 59.3946 28.8173 59.5807C28.8938 59.7668 29.0063 59.936 29.1484 60.0785C29.2904 60.221 29.4592 60.3341 29.6451 60.4112C29.831 60.4883 30.0302 60.5279 30.2314 60.5278C30.4327 60.5277 30.6319 60.4878 30.8177 60.4105C31.0034 60.3332 31.1721 60.2199 31.314 60.0773L60.0976 31.2962C61.4921 29.9017 63.3835 29.1183 65.3557 29.1184C67.3278 29.1184 69.2192 29.9019 70.6137 31.2965C72.0082 32.691 72.7915 34.5824 72.7915 36.5546C72.7914 38.5267 72.008 40.4181 70.6134 41.8126L58.3161 54.1094L75.5791 71.3723L71.3937 75.5577Z"/></svg>