<svg xmlns="http://www.w3.org/2000/svg" width="96" height="96" fill="none" viewBox="0 0 96 96"><path fill="#071927" d="M96 48C96 21.4903 74.5097 0 48 0C21.4903 0 0 21.4903 0 48C0 74.5097 21.4903 96 48 96C74.5097 96 96 74.5097 96 48Z"/><path fill="url(#paint0_linear_1767_1357)" fill-rule="evenodd" d="M47.8189 65.0874C45.9262 65.0874 44.1675 64.712 42.7319 64.0013L27.2737 56.3495L22.6416 58.9849C20.4399 60.2372 20.4783 62.1568 22.7274 63.2701L44.1075 73.8535C45.1459 74.3674 46.4735 74.62 47.8189 74.62C49.3898 74.62 50.9835 74.2762 52.1699 73.6013L73.1003 61.6935C75.3021 60.4407 75.2634 58.5207 73.0143 57.4083L68.5697 55.207L53.6988 63.6679C52.0892 64.583 50.0011 65.0874 47.8189 65.0874Z" clip-rule="evenodd"/><path fill="url(#paint1_linear_1767_1357)" fill-rule="evenodd" d="M73.1522 44.7374L69.4407 42.873L60.7978 47.8621L59.3139 48.7185L57.8309 49.5749L53.7851 51.9104C52.1717 52.8427 50.0774 53.3552 47.8899 53.3552C45.9923 53.3552 44.2289 52.9731 42.7896 52.2509L38.1542 49.9221L36.6199 49.1522L35.0857 48.3818L26.5446 44.0909L22.6463 46.3416C20.4387 47.6161 20.4765 49.5682 22.7316 50.7011L27.189 52.9396L28.7232 53.71L30.2567 54.4809L44.1689 61.4683C45.2092 61.9904 46.5411 62.2473 47.8899 62.2473C49.4641 62.2473 51.0631 61.8977 52.2514 61.2114L65.627 53.4903L67.1109 52.634L68.5939 51.7781L73.2382 49.0968C75.4457 47.823 75.407 45.8702 73.1522 44.7374Z" clip-rule="evenodd"/><path fill="url(#paint2_linear_1767_1357)" fill-rule="evenodd" d="M73.1522 33.3155L51.7146 22.7364C50.6744 22.2223 49.3433 21.9702 47.9935 21.9702C46.4194 21.9702 44.8207 22.3143 43.632 22.9886L22.6463 34.8925C20.4387 36.1442 20.4765 38.0624 22.7316 39.1755L26.443 41.0074L27.9772 41.7646L29.5115 42.5217L38.0526 46.7372L39.5868 47.4937L41.1211 48.2513L44.1689 49.7563C45.2092 50.2692 46.5411 50.5214 47.8899 50.5214C49.4641 50.5214 51.0631 50.1775 52.2514 49.5031L54.7627 48.0789L56.2462 47.2373L57.7297 46.3959L66.372 41.4936L67.856 40.6522L69.339 39.8108L73.2382 37.5993C75.4457 36.3476 75.407 34.4286 73.1522 33.3155Z" clip-rule="evenodd"/><defs><linearGradient id="paint0_linear_1767_1357" x1="47.871" x2="47.871" y1="23.663" y2="74.62" gradientUnits="userSpaceOnUse"><stop stop-color="#B3F9BA"/><stop offset="1" stop-color="#F6FB8C"/></linearGradient><linearGradient id="paint1_linear_1767_1357" x1="47.942" x2="47.942" y1="23.702" y2="73.448" gradientUnits="userSpaceOnUse"><stop stop-color="#B1FFBF"/><stop offset="1" stop-color="#FFF16D"/></linearGradient><linearGradient id="paint2_linear_1767_1357" x1="47.942" x2="47.942" y1="21.97" y2="73.592" gradientUnits="userSpaceOnUse"><stop stop-color="#B3F9BA"/><stop offset="1" stop-color="#F6FB8C"/></linearGradient></defs></svg>