<svg xmlns="http://www.w3.org/2000/svg" width="96" height="96" fill="none" viewBox="0 0 96 96"><circle cx="48" cy="48" r="48" fill="#fff"/><path fill="#FF6400" d="M21.9935 66.5H10L30.0903 28.6556C30.9577 27.0215 32.6565 26 34.5065 26H46.5L26.4097 63.8444C25.5423 65.4785 23.8435 66.5 21.9935 66.5Z"/><path fill="#00D1E2" d="M44.9935 66.5H33L53.0903 28.6556C53.9577 27.0215 55.6565 26 57.5065 26H69.5L49.4097 63.8444C48.5423 65.4785 46.8435 66.5 44.9935 66.5Z"/><path fill="#000" d="M73.4682 66.5001H85.5L69 36L63.2869 46.6645C62.1719 48.7458 62.1813 51.2491 63.312 53.322L69.0787 63.8944C69.9549 65.5007 71.6384 66.5001 73.4682 66.5001Z"/></svg>