<svg xmlns="http://www.w3.org/2000/svg" width="96" height="96" fill="none" viewBox="0 0 96 96"><circle cx="48" cy="48" r="48" fill="#fff"/><path fill="#171717" d="M48.208 8L82.416 27.75V67.25L48.208 87L14 67.25V27.75L48.208 8Z"/><path fill="#2BD9D5" fill-rule="evenodd" d="M77.5509 30.5712L48.2081 13.6426L18.8652 30.5712V64.4282L48.2081 81.3569L77.5509 64.4282V30.5712ZM48.2081 23.6541L68.8742 35.5769V59.4226L65.6718 61.2702L62.156 54.2419L54.7224 58.5306L50.2527 50.795L56.1486 47.3936L52.622 40.3436L46.316 43.9815L41.8762 36.297L48.8998 32.2449L45.41 25.2684L48.2081 23.6541ZM34.9037 40.3196L51.6745 69.3457L48.2081 71.3454L27.5419 59.4226V35.5769L30.9973 33.5834L31.0298 42.5546L34.9037 40.3196Z" clip-rule="evenodd"/></svg>