<svg xmlns="http://www.w3.org/2000/svg" width="96" height="96" fill="none" viewBox="0 0 96 96"><circle cx="48" cy="48" r="48" fill="#fff"/><path fill="#70EABF" fill-rule="evenodd" d="M25.6812 53.8966C25.6812 47.3697 27.934 41.3687 31.7043 36.6285C32.948 34.9117 34.4589 33.4013 36.1756 32.1576C40.9154 28.3873 46.9164 26.1345 53.4433 26.1345C68.7759 26.1345 81.2054 38.5641 81.2054 53.8966C81.2054 60.4907 78.906 66.5479 75.0657 71.3102C80.3177 65.1037 83.4849 57.0759 83.4849 48.3087C83.4849 28.6315 67.533 12.6792 47.8554 12.6792C28.1782 12.6792 12.2263 28.6315 12.2263 48.3087C12.2263 67.9863 28.1782 83.9378 47.8554 83.9378C56.623 83.9378 64.6505 80.771 70.8573 75.519C66.0946 79.3593 60.0378 81.6583 53.4433 81.6583C38.1108 81.6583 25.6812 69.2292 25.6812 53.8966Z" clip-rule="evenodd"/><path fill="#03AF92" fill-rule="evenodd" d="M75.0659 71.3102C78.9062 66.5479 81.2052 60.4906 81.2052 53.8966C81.2052 38.564 68.776 26.134 53.4435 26.134C46.9161 26.134 40.9156 28.3872 36.1754 32.1575C39.4576 29.7793 43.493 28.3776 47.8556 28.3776C58.8631 28.3776 67.7862 37.3007 67.7862 48.3082C67.7862 59.3161 58.8631 68.2392 47.8556 68.2392C36.8481 68.2392 27.925 59.3161 27.925 48.3082C27.925 43.9461 29.3267 39.9107 31.704 36.6284C27.9342 41.3686 25.6814 47.3696 25.6814 53.8966C25.6814 69.2291 38.1106 81.6583 53.4435 81.6583C60.0376 81.6583 66.0948 79.3592 70.8575 75.5189C72.3742 74.2356 73.7821 72.8273 75.0659 71.3102Z" clip-rule="evenodd"/></svg>