<svg xmlns="http://www.w3.org/2000/svg" width="96" height="96" fill="none" viewBox="0 0 96 96"><g clip-path="url(#clip0_1759_1176)"><ellipse cx="48" cy="47.98" fill="#fff" rx="48" ry="47.98"/><path fill="#F0B90B" fill-rule="evenodd" d="M48.0011 0C74.5098 0 96 21.4902 96 47.9999C96 74.5096 74.5098 96 48.0011 96C21.4924 96 0 74.5096 0 47.9999C0 21.4902 21.4904 0 48.0011 0ZM48.0011 4.46593C72.0448 4.46593 91.536 23.957 91.536 48.0007C91.536 72.0444 72.0448 91.5356 48.0011 91.5356C23.9574 91.5356 4.46514 72.0436 4.46514 47.9999C4.46514 23.9562 23.9564 4.46435 47.9999 4.46435L48.0011 4.46593Z" clip-rule="evenodd"/><path fill="#F0B90B" fill-rule="evenodd" d="M19.5375 37.0905L14.907 28.9214H24.1449L19.5375 37.0905ZM51.0345 44.9609L36.6483 67.843L21.2471 41.69L28.2451 28.9214H81.2127L46.5448 85.9513L40.865 76.3464L65.146 37.3079H31.8282L37.6413 44.9609H51.0345Z" clip-rule="evenodd"/></g><defs><clipPath id="clip0_1759_1176"><rect width="96" height="96" fill="#fff"/></clipPath></defs></svg>