<svg xmlns="http://www.w3.org/2000/svg" width="96" height="96" fill="none" viewBox="0 0 96 96"><path fill="url(#paint0_linear)" d="M48 96C74.5097 96 96 74.5097 96 48C96 21.4903 74.5097 0 48 0C21.4903 0 0 21.4903 0 48C0 74.5097 21.4903 96 48 96Z"/><mask id="mask0" width="96" height="96" x="0" y="0" mask-type="alpha" maskUnits="userSpaceOnUse"><path fill="url(#paint1_linear)" d="M48 96C74.5097 96 96 74.5097 96 48C96 21.4903 74.5097 0 48 0C21.4903 0 0 21.4903 0 48C0 74.5097 21.4903 96 48 96Z"/></mask><g mask="url(#mask0)"><path fill="url(#paint2_linear)" d="M32.1514 95.7453C14.1622 89.4851 1.04403 72.8227 0 52.9607C13.3094 43.7504 29.4698 38.4029 46.688 38.4035C47.0138 38.4035 47.3421 38.4058 47.6685 38.4093C47.6915 38.4087 47.7146 38.4077 47.7376 38.4071C47.8406 38.4035 47.9434 38.4 48.0467 38.4C54.6112 38.4 59.9328 43.6397 59.9328 50.1027C59.9328 53.3338 58.6029 56.2592 56.455 58.3818C56.1008 58.713 55.8493 58.9376 55.5869 59.1491C44.7206 68.8221 36.4723 81.3827 32.1514 95.7453Z"/></g><defs><linearGradient id="paint0_linear" x1="48" x2="48" y1="0" y2="96" gradientUnits="userSpaceOnUse"><stop stop-color="#1D173A"/><stop offset="1" stop-color="#102176"/></linearGradient><linearGradient id="paint1_linear" x1="48" x2="48" y1="0" y2="96" gradientUnits="userSpaceOnUse"><stop stop-color="#1D173C"/><stop offset="1" stop-color="#152170"/></linearGradient><linearGradient id="paint2_linear" x1="29.966" x2="29.966" y1="38.4" y2="95.745" gradientUnits="userSpaceOnUse"><stop stop-color="#36DBFD"/><stop offset="1" stop-color="#0085FF"/></linearGradient></defs></svg>