<svg xmlns="http://www.w3.org/2000/svg" width="96" height="96" fill="none" viewBox="0 0 96 96"><circle cx="48" cy="48" r="48" fill="#38F997"/><path fill="#000" d="M50.8833 80.0004H40.6738H30.4642L15.988 65.5242V55.3146V45.1051L30.4642 30.6289H40.6738H50.8833L65.3595 45.1051V55.3146V65.5242L50.8833 80.0004ZM40.5976 73.9051H48.2928L59.2643 63.0099V55.3146V47.6194L48.369 36.648H40.6738H32.9785L22.0071 47.6194V55.3146V63.0099L32.9023 73.9051H40.5976Z"/><path fill="#FFFDFA" d="M65.4355 65.3715H55.226H45.0165L30.5403 50.8953V40.6857V30.4762L45.0165 16H55.226H65.4355L79.9118 30.4762V40.6857V50.8953L65.4355 65.3715ZM55.226 59.2762H62.9213L73.8165 48.381V40.6857V32.9905L62.9213 22.0191H55.226H47.5308L36.5593 32.9143V40.6095V48.3048L47.4546 59.2L55.226 59.2762Z"/></svg>