<svg xmlns="http://www.w3.org/2000/svg" width="96" height="96" fill="none" viewBox="0 0 96 96"><circle cx="48" cy="48" r="48" fill="#fff"/><path fill="#0A4593" fill-rule="evenodd" d="M44.7385 9.84646L14.2027 27.4764L26.7169 34.7014C27.3401 34.11 28.1823 33.7472 29.1093 33.7472C29.6879 33.7472 30.2335 33.8886 30.7134 34.1386L44.7385 9.84646ZM13.2986 29.0128L25.7803 36.2192C25.6846 36.5371 25.6331 36.8743 25.6331 37.2234C25.6331 38.4552 26.2737 39.5373 27.24 40.1548L13.2986 64.302V29.0128ZM30.0007 55.2551V40.5843C30.6384 40.4157 31.2042 40.0703 31.6427 39.6038L45.7836 47.7681V47.871L31.5166 56.1081C31.0979 55.7061 30.5788 55.408 30.0007 55.2551ZM28.218 55.2551V42.0263L14.3735 66.0056L25.7331 59.4472C25.6677 59.1808 25.6331 58.9024 25.6331 58.616C25.6331 57.0042 26.73 55.6487 28.218 55.2551ZM26.5898 61.011L14.1834 68.1739L44.3576 85.595L30.596 61.7592C30.1452 61.9727 29.6412 62.0922 29.1093 62.0922C28.1177 62.0922 27.2231 61.677 26.5898 61.011ZM31.9756 60.5834L45.7836 84.4995V49.9295L32.4441 57.6311C32.5361 57.9433 32.5855 58.2739 32.5855 58.616C32.5855 59.3462 32.3604 60.0239 31.9756 60.5834ZM45.7836 45.7096L32.4904 38.0348C32.5526 37.7745 32.5855 37.5028 32.5855 37.2234C32.5855 36.5456 32.3916 35.9131 32.0561 35.3785L45.7836 11.6017L45.7836 45.7096ZM47.6856 8.40693L47.6568 8.35715L47.6281 8.40693L47.6856 8.40693ZM62.7129 37.2234C62.7129 37.505 62.7464 37.7788 62.8096 38.041L49.5273 45.7096V11.5968L63.2503 35.3658C62.91 35.9032 62.7129 36.5403 62.7129 37.2234ZM49.5273 47.7681L63.6601 39.6084C64.098 40.0726 64.6622 40.4162 65.2978 40.5843V55.2551C64.7218 55.4074 64.2044 55.7039 63.7866 56.1036L49.5273 47.871V47.7681ZM62.8562 57.625L49.5273 49.9295L49.5273 84.5044L63.3311 60.5954C62.9413 60.0337 62.7129 59.3515 62.7129 58.616C62.7129 58.2716 62.763 57.939 62.8562 57.625ZM64.7144 61.7648L50.9637 85.5818L81.1213 68.1703L68.713 61.0064C68.0795 61.6751 67.183 62.0922 66.1891 62.0922C65.6619 62.0922 65.1621 61.9748 64.7144 61.7648ZM69.5669 59.4409L80.9417 66.0081L67.0805 41.9999V55.2551C68.5685 55.6487 69.6654 57.0042 69.6654 58.616C69.6654 58.9002 69.6313 59.1765 69.5669 59.4409ZM81.9999 64.2757L68.0696 40.1477C69.0296 39.529 69.6654 38.4505 69.6654 37.2234C69.6654 36.8765 69.6146 36.5414 69.52 36.2253L81.9999 29.02V64.2757ZM81.102 27.4799L68.5863 34.7059C67.9626 34.1119 67.1185 33.7472 66.1891 33.7472C65.6152 33.7472 65.0738 33.8863 64.5968 34.1326L50.5828 9.85964L81.102 27.4799ZM47.876 87.3645L47.9525 87.2319H47.3611L47.4453 87.3777L47.6492 87.4954L47.876 87.3645Z" clip-rule="evenodd"/></svg>