<svg xmlns="http://www.w3.org/2000/svg" width="97" height="96" fill="none" viewBox="0 0 97 96"><path fill="#000" d="M48 96C74.5097 96 96 74.5097 96 48C96 21.4903 74.5097 0 48 0C21.4903 0 0 21.4903 0 48C0 74.5097 21.4903 96 48 96Z"/><path fill="#fff" d="M48.147 96C21.6787 96 0.146973 74.4683 0.146973 48C0.146973 21.5317 21.6787 0 48.147 0C74.6152 0 96.147 21.5317 96.147 48C96.147 74.4683 74.6152 96 48.147 96ZM48.147 0.787746C22.0988 0.787746 0.934719 21.9519 0.934719 48C0.934719 74.0481 22.0988 95.2123 48.147 95.2123C74.1951 95.2123 95.3592 74.0481 95.3592 48C95.3592 21.9519 74.1951 0.787746 48.147 0.787746Z"/><path fill="#fff" d="M34.0725 63.9125H57.1797C62.9565 63.9125 67.683 59.186 67.683 53.4092C67.683 47.6324 62.9565 42.9059 57.1797 42.9059H57.0747H39.1141C35.8056 42.9059 32.9172 41.1729 31.3417 38.547C31.9193 37.6017 32.6546 36.814 33.5474 36.1313C35.1754 34.8709 37.1185 34.2407 39.1666 34.2407H62.2738C65.3198 34.2407 67.7355 31.7724 67.7355 28.779C67.7355 25.7855 65.2673 23.3173 62.2738 23.3173H39.1666C33.3898 23.3173 28.6633 28.0438 28.6633 33.8206C28.6633 39.5974 33.3898 44.3238 39.1666 44.3238H57.1272H57.2323C62.2738 44.3238 66.3701 48.4201 66.3701 53.4617C66.3701 54.6696 66.1075 55.8249 65.6874 56.9278C63.6918 54.1969 60.5933 52.6214 57.1797 52.6214H57.0747H39.1141C34.0725 52.6214 29.9762 48.5252 29.9762 43.4836H28.6633C28.6633 49.2604 33.3898 53.9869 39.1666 53.9869H57.1272H57.2323C60.4358 53.9869 63.3242 55.6149 65.0047 58.3457C63.3767 60.9715 60.4883 62.7046 57.2323 62.7046H34.125C31.0791 62.7046 28.6633 65.1729 28.6633 68.1663C28.6633 71.2122 31.1316 73.628 34.125 73.628H57.2323C63.0091 73.628 67.7355 68.9015 67.7355 63.1247H66.4226C66.4226 68.1663 62.3263 72.2626 57.2848 72.2626H34.1776C31.8668 72.2626 30.0288 70.4245 30.0288 68.1138C29.9237 65.7505 31.8143 63.9125 34.0725 63.9125ZM29.9237 33.768C29.9237 28.7265 34.02 24.6302 39.0616 24.6302H62.1688C64.4795 24.6302 66.3176 26.4683 66.3176 28.779C66.3176 31.0897 64.4795 32.9278 62.1688 32.9278H39.0616C36.6983 32.9278 34.4927 33.663 32.6546 35.1335C31.8668 35.7637 31.1841 36.4464 30.6064 37.2866C30.1863 36.1313 29.9237 34.9759 29.9237 33.768Z"/></svg>