<svg xmlns="http://www.w3.org/2000/svg" width="96" height="96" fill="none" viewBox="0 0 96 96"><g clip-path="url(#clip0)"><path fill="#000" d="M48.0044 96.0087C74.5165 96.0087 96.0087 74.5165 96.0087 48.0044C96.0087 21.4923 74.5165 0 48.0044 0C21.4923 0 0 21.4923 0 48.0044C0 74.5165 21.4923 96.0087 48.0044 96.0087Z"/><path fill="#000" d="M48.0044 92.3981C72.5224 92.3981 92.3981 72.5224 92.3981 48.0044C92.3981 23.4864 72.5224 3.6106 48.0044 3.6106C23.4864 3.6106 3.6106 23.4864 3.6106 48.0044C3.6106 72.5224 23.4864 92.3981 48.0044 92.3981Z"/><path fill="url(#paint0_linear)" d="M26.2883 56.2572C25.746 58.4967 25.6156 60.8162 25.9036 63.1024C25.884 63.8851 25.6962 64.6544 25.3529 65.358C24.7759 66.0836 25.2042 66.9491 25.0119 67.7272C24.9332 68.0506 24.6972 68.4178 25.0119 68.6014C25.0847 70.1537 25.2452 71.7007 25.4927 73.2349C25.5088 73.3738 25.5694 73.5038 25.6656 73.6054C25.7617 73.707 25.8882 73.7747 26.0261 73.7983C26.164 73.8219 26.3058 73.8003 26.4303 73.7365C26.5548 73.6727 26.6553 73.5704 26.7167 73.4447L27.4248 71.0842C27.8357 70.3062 28.64 70.3062 29.3569 70.1138C29.7415 71.5213 29.7415 71.5213 30.5196 70.8307C31.2277 69.5106 30.7032 68.0943 30.8343 66.7305L31.1753 65.052C31.5752 64.5818 31.8169 63.9975 31.8659 63.3822C32.7402 61.5113 32.3992 59.5618 32.1719 57.6297C32.2943 56.8429 32.4079 56.0474 32.5216 55.2605C32.5216 55.0507 32.5216 54.8409 32.5216 54.6223C33.1161 54.3426 33.1336 53.7481 33.1773 53.2323C33.3334 53.0536 33.4481 52.8426 33.5131 52.6144C33.5781 52.3861 33.5918 52.1464 33.5532 51.9122C34.0777 51.1866 33.7193 50.3211 33.9291 49.543L34.5498 48.1792C34.668 48.1143 34.7658 48.0178 34.8322 47.9004C34.8986 47.7831 34.931 47.6495 34.9258 47.5148C35.3582 47.0344 35.6725 46.4596 35.8437 45.8363C36.3136 45.3615 36.6719 44.7881 36.8928 44.1577C37.3644 43.6939 37.6949 43.1058 37.8457 42.4617C38.4731 41.7892 38.9184 40.9678 39.1396 40.075C40.8356 37.837 41.8847 35.2405 43.2223 32.7926C43.9129 31.5337 44.35 30.642 42.5578 30.3011C42.4092 29.6279 43.537 29.3656 42.9163 28.7624C42.5054 28.3515 41.9371 28.4739 41.3514 28.5788C39.9448 28.9416 38.5728 29.4272 37.2512 30.03C36.7596 30.1458 36.2967 30.3605 35.8909 30.6611C35.485 30.9617 35.1447 31.342 34.8908 31.7785C33.7455 34.0778 32.5303 36.342 31.3326 38.6238C31.143 39.0038 30.9766 39.3951 30.8343 39.7953C30.6944 40.2674 31.1665 40.9668 30.3447 41.1503C29.6803 41.299 29.4705 40.6957 29.0421 40.3373C28.2903 38.3878 27.0139 36.7092 26.1222 34.8558C25.3528 33.221 24.4786 33.3522 23.211 33.8942C22.5561 34.214 21.9327 34.5945 21.3488 35.0307C20.7893 35.4328 20.1686 36.141 20.4746 36.7092C21.4975 38.5102 21.2964 41.0017 23.482 42.147L24.295 43.1174C24.7234 43.9916 25.1693 44.9271 25.5976 45.8275C25.7288 46.387 25.8687 46.9378 25.9998 47.4973C25.9998 48.3104 25.7812 49.2458 26.3845 49.8315C26.6722 50.0732 26.9046 50.374 27.066 50.7133C27.2274 51.0527 27.314 51.4228 27.3199 51.7986C27.0733 52.2028 26.9545 52.672 26.9789 53.1449C26.5169 54.1142 26.2779 55.1746 26.2795 56.2484L26.2883 56.2572ZM77.8071 23.246C76.2684 23.9104 73.2261 25.7288 72.5617 27.25C72.2838 27.8228 71.8621 28.3138 71.3377 28.675C70.0542 29.5938 69.1276 30.928 68.715 32.4517C68.5314 33.1248 68.1992 33.8505 67.561 34.0341C65.3405 34.6985 65.1744 36.8666 64.1602 38.4052C63.8193 39.3407 63.4608 40.2149 63.1199 41.0891C62.7233 41.5933 62.4777 42.1996 62.4118 42.8376C62.0273 43.3419 61.8075 43.9524 61.7823 44.5861L61.4763 44.9358C61.3831 45.009 61.3118 45.1064 61.2701 45.2175C61.2285 45.3285 61.2182 45.4488 61.2403 45.5652C61.2663 45.6421 61.3015 45.7155 61.3452 45.7838C61.0637 45.8781 60.7628 45.8991 60.471 45.845C60.6154 45.6917 60.7076 45.4967 60.7343 45.2878C60.761 45.0789 60.7208 44.8669 60.6196 44.6823L60.4185 44.5336V43.5807L60.5584 43.5195C60.7016 42.8565 60.6593 42.1668 60.436 41.5263C60.4046 40.7066 60.1703 39.9076 59.7541 39.2008C59.5792 38.4402 60.3136 37.3999 59.3082 36.954C58.9807 36.7878 58.6111 36.7232 58.2467 36.7684C57.8822 36.8135 57.5395 36.9664 57.2625 37.2075C56.2328 37.9966 55.5395 39.1459 55.3217 40.4247C54.9359 40.8976 54.704 41.4773 54.6573 42.0858C54.3184 42.6153 54.0978 43.2117 54.0103 43.8343C53.4214 44.7815 52.9654 45.8052 52.6553 46.8766C52.0417 47.7959 51.5811 48.8086 51.2915 49.8752C50.7232 50.461 50.8456 51.4489 49.9014 52.2444V44.9096C50.1025 44.6298 49.779 44.4899 49.7266 44.2801C50.6008 43.2398 50.2511 41.535 49.0185 40.3548L49.0622 40.2586L49.001 40.2149C48.5201 39.0347 47.3137 38.991 46.3783 38.4664C46.2025 38.3328 45.9968 38.2439 45.7791 38.2073C45.5613 38.1707 45.338 38.1875 45.1281 38.2563C44.9183 38.3251 44.7284 38.4438 44.5745 38.6022C44.4207 38.7607 44.3077 38.9541 44.2451 39.1658C44.1628 39.2586 44.1173 39.3784 44.1173 39.5024C44.1173 39.6265 44.1628 39.7462 44.2451 39.839V39.9439C44.2451 40.0051 44.2451 40.0488 44.2451 40.11C44.1708 41.0494 44.1533 41.9923 44.1927 42.9338C44.1574 43.4876 44.2165 44.0434 44.3675 44.5774C44.3675 45.4516 44.3675 46.3258 44.3238 47.2613V48.9485V49.5693C44.2784 49.5661 44.2329 49.5731 44.1905 49.5897C44.1482 49.6063 44.1101 49.6322 44.079 49.6654C44.079 52.4805 43.9129 55.3043 44.5598 58.0843C44.5668 58.1933 44.6134 58.296 44.691 58.3728C44.5598 58.9848 43.7293 59.046 43.6681 59.7017L43.7468 59.7716L43.6681 59.6929C43.2048 60.5672 43.7905 61.3103 44.0091 62.0971L43.6506 66.8005C43.3818 67.6906 43.3338 68.6328 43.5108 69.5456C43.4305 69.7049 43.4009 69.8849 43.4259 70.0614C43.4509 70.238 43.5293 70.4027 43.6506 70.5335C44.35 71.7749 44.3763 73.3485 45.5303 74.3801C45.7213 74.186 45.8703 73.9547 45.9681 73.7005C46.0658 73.4463 46.1102 73.1747 46.0985 72.9026L47.0776 72.2033C48.2687 71.2864 49.0884 69.9699 49.3856 68.4965C50.0063 67.6223 49.7091 66.4333 50.2162 65.4979L50.5047 64.7985C50.8706 64.4345 51.1097 63.9625 51.1866 63.4521C51.5344 63.0739 51.7572 62.5977 51.8248 62.0883C52.2348 61.6206 52.4991 61.0433 52.5853 60.4273C52.7704 60.2588 52.9205 60.0555 53.027 59.829C53.1335 59.6025 53.1943 59.3572 53.2061 59.1072L53.1186 59.046L53.1973 59.1159C53.582 58.6049 53.8261 58.0021 53.9054 57.3675C54.2535 56.8462 54.4612 56.244 54.5087 55.619C54.7447 55.0682 54.972 54.5262 55.1993 53.9754C56.0124 53.8443 56.0736 54.3251 56.0736 54.972C56.0736 55.7501 56.126 56.5282 56.1522 57.3063L56.0998 58.8974C55.9512 59.7017 55.8113 60.506 55.6627 61.3103C55.5495 61.4573 55.475 61.6304 55.446 61.8136C55.417 61.9969 55.4344 62.1845 55.4966 62.3593C55.2795 62.8141 55.227 63.3301 55.3479 63.8193C55.3141 64.8793 55.3903 65.9398 55.5752 66.9841C55.5872 67.3803 55.7459 67.7579 56.0205 68.0438C56.2951 68.3297 56.666 68.5035 57.0614 68.5315C57.4005 68.6459 57.7686 68.6406 58.1043 68.5165C58.4399 68.3924 58.7229 68.157 58.9061 67.8496C59.7443 66.6069 60.398 65.2494 60.8469 63.8193C61.3154 63.2482 61.5469 62.5191 61.4938 61.7823C61.9309 60.3224 62.8489 59.0023 62.8052 57.4112L63.1461 56.738C63.5079 56.3662 63.7565 55.8993 63.863 55.3917C64.1527 55.0108 64.3611 54.5746 64.4754 54.1099C64.5897 53.6452 64.6074 53.1621 64.5274 52.6903L64.6586 51.3789C65.6727 50.732 65.9961 49.6304 66.5382 48.6426C66.6873 48.5248 66.7989 48.3663 66.8594 48.1862C66.9199 48.0061 66.9268 47.8123 66.8791 47.6284C67.1152 46.8416 67.3512 46.0636 67.596 45.2767C67.7375 45.1554 67.8467 45.0008 67.9138 44.8269C67.9809 44.6529 68.0039 44.4651 67.9807 44.2801C68.08 44.2233 68.1598 44.1378 68.2097 44.0349C68.2596 43.9319 68.2773 43.8163 68.2604 43.7031C68.7724 42.9603 69.1292 42.1218 69.3095 41.2378C69.7962 40.2833 70.1352 39.2604 70.3149 38.2042C71.1192 36.2721 72.8939 34.9607 73.602 32.9587C74.3053 31.1257 75.478 29.5097 77.0028 28.2728C78.6464 26.8478 78.7513 25.5714 77.7721 23.2635L77.8071 23.246ZM49.9102 65.6377C49.9675 65.6052 50.0294 65.5816 50.0938 65.5678L49.9102 65.6377ZM48.0043 3.6106C39.2237 3.60887 30.6398 6.21105 23.3381 11.088C16.0364 15.965 10.345 22.8978 6.98361 31.0095C3.62221 39.1213 2.74182 48.0477 4.45377 56.6598C6.16573 65.2719 10.3931 73.183 16.6014 79.3924C22.8096 85.6019 30.7198 89.8308 39.3316 91.5445C47.9434 93.2581 56.8699 92.3795 64.9823 89.0197C73.0947 85.6599 80.0286 79.9698 84.9071 72.6691C89.7855 65.3684 92.3894 56.785 92.3894 48.0044C92.3905 42.1749 91.2433 36.4023 89.0133 31.0163C86.7832 25.6302 83.514 20.7362 79.3924 16.6138C75.2707 12.4913 70.3774 9.22114 64.9918 6.99004C59.6062 4.75894 53.8338 3.6106 48.0043 3.6106ZM48.0043 89.1547C39.8638 89.153 31.9067 86.7374 25.139 82.2133C18.3714 77.6892 13.0973 71.2599 9.9837 63.7384C6.87006 56.2169 6.05673 47.9411 7.64656 39.9573C9.23639 31.9736 13.158 24.6406 18.9154 18.8856C24.6728 13.1306 32.0075 9.21213 39.9919 7.62569C47.9763 6.03925 56.2519 6.8561 63.7721 9.97293C71.2922 13.0898 77.7193 18.3666 82.2405 25.1361C86.7617 31.9057 89.1739 39.8639 89.1722 48.0044C89.1745 53.4113 88.1112 58.7656 86.0431 63.7613C83.9751 68.7571 80.9428 73.2963 77.1195 77.1196C73.2963 80.9428 68.757 83.9751 63.7613 86.0432C58.7656 88.1112 53.4112 89.1745 48.0043 89.1722V89.1547Z"/></g><defs><linearGradient id="paint0_linear" x1="48.004" x2="48.004" y1="5.342" y2="94.12" gradientUnits="userSpaceOnUse"><stop offset=".3" stop-color="#EFE149"/><stop offset=".38" stop-color="#EFDC47"/><stop offset=".48" stop-color="#F0CD42"/><stop offset=".59" stop-color="#F2B43A"/><stop offset=".7" stop-color="#F5922F"/><stop offset=".82" stop-color="#F86621"/><stop offset=".94" stop-color="#FC310F"/><stop offset="1" stop-color="#FE1406"/></linearGradient><clipPath id="clip0"><rect width="96" height="96" fill="#fff"/></clipPath></defs></svg>