<svg xmlns="http://www.w3.org/2000/svg" width="96" height="96" fill="none" viewBox="0 0 96 96"><circle cx="48" cy="48" r="48" fill="#fff"/><path fill="url(#paint0_linear)" d="M55.6856 18.7262L48.6994 25.7126L50.1137 27.1268C50.9089 27.922 52.1992 27.9215 52.9938 27.1268L59.9802 20.1405L58.5659 18.7262C58.1682 18.3285 57.647 18.1299 57.1257 18.1299C56.6043 18.1299 56.0833 18.3287 55.6856 18.7262ZM38.0136 18.7262L36.599 20.1405L43.5856 27.1268C44.3803 27.9215 45.6704 27.922 46.4658 27.1268L47.88 25.7126L40.8937 18.7262C40.4962 18.3287 39.975 18.1299 39.4535 18.1299C38.9323 18.1299 38.411 18.3285 38.0136 18.7262ZM62.2645 27.8666L49.0636 41.0675L51.7364 43.74C53.2385 45.2421 55.6765 45.2417 57.1782 43.74L70.3791 30.5391L67.7064 27.8666C66.9552 27.1154 65.9702 26.7401 64.9854 26.7401C64.0004 26.7401 63.0152 27.1157 62.2645 27.8666ZM28.8731 27.8666L26.2004 30.5391L39.4012 43.74C40.9027 45.2417 43.3409 45.2421 44.8431 43.74L47.5156 41.0675L34.315 27.8666C33.5643 27.1157 32.579 26.7403 31.5941 26.7401C30.6091 26.7401 29.6243 27.1154 28.8731 27.8666ZM46.8497 27.5621L45.4352 28.9766L48.2896 31.8311L51.1441 28.9766L49.7298 27.5621C49.3323 27.1646 48.8111 26.9658 48.2896 26.9658C47.7684 26.9658 47.2471 27.1646 46.8497 27.5621ZM71.5145 40.7192L49.5759 62.6576L54.0175 67.099C56.5145 69.5959 60.5661 69.5947 63.0618 67.099L85.0001 45.1607L80.5587 40.7192C79.3102 39.4707 77.6736 38.8469 76.0367 38.8469C74.3998 38.8469 72.7624 39.4712 71.5145 40.7192ZM16.0206 40.7192L11.5791 45.1607L33.5177 67.099C36.0132 69.5947 40.065 69.5959 42.5617 67.099L47.0034 62.6576L25.0648 40.7192C23.8168 39.4712 22.1794 38.8469 20.5426 38.8469C18.9057 38.8469 17.269 39.4707 16.0206 40.7192ZM45.5687 44.5622L42.8962 47.2347L48.2896 52.6283L53.683 47.2347L51.0108 44.5622C50.2598 43.8115 49.2746 43.4359 48.2896 43.4359C47.3046 43.4356 46.3199 43.8112 45.5687 44.5622ZM43.7676 68.466L39.3262 72.9077L48.2896 81.8709L57.2531 72.9077L52.8119 68.466C51.5639 67.218 49.9265 66.5939 48.2896 66.5939C46.6527 66.5937 45.0161 67.2176 43.7676 68.466Z"/><defs><linearGradient id="paint0_linear" x1="18.131" x2="79.032" y1="50" y2="50" gradientUnits="userSpaceOnUse"><stop stop-color="#7CB7FF"/><stop offset="1" stop-color="#BA6DF6"/></linearGradient></defs></svg>