<svg xmlns="http://www.w3.org/2000/svg" width="96" height="96" fill="none" viewBox="0 0 96 96"><path fill="#fff" d="M48 96C74.5097 96 96 74.5097 96 48C96 21.4903 74.5097 0 48 0C21.4903 0 0 21.4903 0 48C0 74.5097 21.4903 96 48 96Z"/><path fill="#077FA2" d="M55 44.9261C54.95 41.1056 51.847 38.0246 48 38V52C51.897 51.9754 55.025 48.8204 55 44.9261C55 44.9507 55 44.9507 55 44.9261Z"/><path fill="#17A84B" d="M41.0002 44.9261C41.0502 41.1056 44.1532 38.0246 48.0002 38V52C44.1032 51.9754 40.9752 48.8204 41.0002 44.9261C41.0002 44.9507 41.0002 44.9507 41.0002 44.9261Z"/><path fill="#077FA2" d="M63.86 18.9329C59.842 16.6767 55.895 18.6822 55.007 23.1264C54.353 26.3171 55.895 28.2315 58.464 29.9408C69.396 37.2793 70.26 50.6346 61.337 58.7936C59.796 59.956 58.184 61.0043 56.502 61.9387C55.311 62.5997 55.031 62.1211 54.961 60.9815C54.961 60.1839 54.891 59.3862 54.75 58.6113C54.377 55.7625 52.181 53.6202 49.285 53.5974L48 53.5518V83.9316V84H48.981C52.018 84 54.307 82.1995 54.82 79.3507C54.937 78.7354 55.007 78.0972 55.031 77.4591C55.007 76.4335 55.731 75.5219 56.782 75.3396C58.838 74.7698 60.823 74.0405 62.762 73.1517C71.708 68.7531 76.987 61.9843 78.832 52.8909C78.855 52.7313 78.879 52.5718 78.902 52.4351C79.626 49.6546 80 46.783 80 43.8886C79.533 33.9063 74.394 24.8357 63.86 18.9329Z"/><path fill="#17A84B" d="M32.14 18.9329C36.158 16.6767 40.105 18.6822 40.993 23.1264C41.647 26.3171 40.105 28.2315 37.536 29.9408C26.604 37.2793 25.74 50.6346 34.663 58.7936C36.204 59.956 37.816 61.0043 39.498 61.9387C40.689 62.5997 40.969 62.1211 41.039 60.9815C41.039 60.1839 41.109 59.3862 41.25 58.6113C41.623 55.7625 43.819 53.6202 46.715 53.5974L48 53.5518V83.9316V84H47.019C43.982 84 41.693 82.1995 41.18 79.3507C41.063 78.7354 40.993 78.0972 40.969 77.4591C40.993 76.4335 40.269 75.5219 39.218 75.3396C37.162 74.7698 35.177 74.0405 33.238 73.1517C24.292 68.7531 19.013 61.9843 17.168 52.8909C17.145 52.7313 17.121 52.5718 17.098 52.4351C16.374 49.6546 16 46.783 16 43.8886C16.467 33.9063 21.606 24.8357 32.14 18.9329Z"/></svg>