<svg xmlns="http://www.w3.org/2000/svg" width="96" height="96" fill="none" viewBox="0 0 96 96"><g clip-path="url(#clip0_2702_4562)"><path fill="#040A08" d="M48 0C21.4903 0 0 21.4903 0 48C0 74.5097 21.4903 96 48 96C74.5097 96 96 74.5097 96 48C96 21.4903 74.5097 0 48 0Z"/><path fill="url(#paint0_linear_2702_4562)" fill-rule="evenodd" d="M25.9497 23.5291C20.3004 24.9538 15.6084 29.3056 13.7565 34.8276C13.3054 36.1726 13.0059 37.7038 13 39.224V39.3118C13.0073 41.2574 13.5011 43.1789 14.7821 44.6596C16.0035 45.9289 17.9334 47.564 20.6004 48.7169C22.2724 49.4397 24.045 49.9098 25.897 50.1421C24.7521 49.6519 23.6587 48.9606 22.6568 48.0669C19.9939 45.6926 17.7253 41.4385 19.341 36.6192C20.7207 32.5044 24.3402 29.4662 28.5618 28.878C31.2529 28.502 34.2129 29.0137 36.4749 30.2442C36.6629 30.3466 36.8396 30.471 37.021 30.5855L33.0014 32.8633C32.7899 33.0202 32.9483 33.2843 33.2278 33.2433C33.2278 33.2433 39.3624 32.5121 44.8866 30.726C45.0311 30.6791 45.0918 30.61 45.1006 30.5405C45.109 30.5211 45.1254 30.5061 45.128 30.4845C45.1576 30.2588 45.0903 30.0247 44.9283 29.8477C41.1113 25.6609 35.7759 23.002 30.2009 23.002C28.7919 23.002 27.3686 23.1713 25.9497 23.5291Z" clip-rule="evenodd"/><path fill="url(#paint1_linear_2702_4562)" fill-rule="evenodd" d="M65.8168 23C63.6448 23.0095 61.4632 23.4481 59.3804 24.3351C55.9654 25.7902 53.1781 28.3072 50.8242 31.1297C48.0515 34.4543 45.7679 38.1397 43.2019 41.6176C41.5317 43.8814 39.8227 46.1808 37.6467 47.99C37.4155 48.1824 37.1803 48.3653 36.9425 48.5379C34.4716 50.3365 31.67 51.0944 28.5718 51.0944C25.6287 51.0944 22.8523 50.5377 20.2918 49.4312C17.0359 48.024 14.851 45.9679 13.6523 44.5958C14.5456 47.4655 16.2476 50.1375 18.6969 52.3224C23.7189 56.8011 30.5836 57.9874 36.6104 55.4214C40.1113 53.9308 42.9897 51.296 45.3729 48.3799C47.9583 45.2148 50.1841 41.7877 52.5317 38.448C55.1442 34.7312 58.0376 30.9669 62.4702 29.3966C66.679 27.906 71.6629 28.5801 75.699 30.3253C78.9545 31.7321 81.1394 33.7879 82.3384 35.1599C81.4452 32.2903 79.7432 29.6182 77.2935 27.4337C74.0467 24.5378 70.0285 23.0187 65.9657 23H65.8168Z" clip-rule="evenodd"/><path fill="url(#paint2_linear_2702_4562)" fill-rule="evenodd" d="M73.3337 31.6899C75.9963 34.0642 78.2653 38.318 76.6496 43.1372C75.2698 47.252 71.6503 50.2903 67.4287 50.8788C64.7376 51.2548 61.7777 50.7427 59.5156 49.5122C59.3276 49.4098 59.1509 49.2858 58.9695 49.1709L62.9892 46.8932C63.201 46.7366 63.0422 46.4725 62.7631 46.5131C62.7631 46.5131 56.6277 47.2443 51.1039 49.0305C50.9594 49.0769 50.8987 49.1464 50.8903 49.2163C50.8815 49.2353 50.8654 49.2503 50.8625 49.2719C50.8329 49.498 50.9002 49.7317 51.0619 49.9095C52.6293 51.6283 54.4202 53.3267 56.6588 54.5448C62.923 57.9524 71.0427 57.406 76.617 52.8939C79.8872 50.2471 82.2037 46.4297 82.8157 42.2476C83.195 39.6564 82.7641 37.2583 81.1173 35.1652C79.6948 33.3575 77.6142 32.0008 75.3902 31.0399C73.7174 30.3167 71.944 29.8459 70.091 29.6133C71.2366 30.1034 72.3314 30.7955 73.3337 31.6899Z" clip-rule="evenodd"/><mask id="mask0_2702_4562" style="mask-type:alpha" width="10" height="11" x="13" y="61" maskUnits="userSpaceOnUse"><path fill="#fff" d="M19.7945 61.4961V65.6445H16.0927V61.4961H13V71.9185H16.0927V68.0379H19.7945V71.9185H22.8869V61.4961H19.7945Z"/></mask><g mask="url(#mask0_2702_4562)"><path fill="url(#paint3_linear_2702_4562)" fill-rule="evenodd" d="M19.7945 61.4961V65.6445H16.0927V61.4961H13V71.9185H16.0927V68.0379H19.7945V71.9185H22.8869V61.4961H19.7945Z" clip-rule="evenodd"/></g><mask id="mask1_2702_4562" style="mask-type:alpha" width="12" height="12" x="24" y="61" maskUnits="userSpaceOnUse"><path fill="#fff" d="M30.3182 61.4062C27.0473 61.4062 24.6389 63.6361 24.6389 66.6992C24.6389 69.7766 27.0473 72.0515 30.3182 72.0515C33.589 72.0515 35.9978 69.7616 35.9978 66.6992C35.9978 63.6511 33.589 61.4062 30.3182 61.4062ZM27.8056 66.7135C27.8056 65.138 28.9801 63.9931 30.3628 63.9931C31.7305 63.9931 32.8308 65.138 32.8308 66.7135C32.8308 68.29 31.7305 69.4642 30.3628 69.4642C28.9947 69.4642 27.8056 68.29 27.8056 66.7135Z"/></mask><g mask="url(#mask1_2702_4562)"><path fill="url(#paint4_linear_2702_4562)" fill-rule="evenodd" d="M30.3182 61.4062C27.0473 61.4062 24.6389 63.6361 24.6389 66.6992C24.6389 69.7766 27.0473 72.0515 30.3182 72.0515C33.589 72.0515 35.9978 69.7616 35.9978 66.6992C35.9978 63.6511 33.589 61.4062 30.3182 61.4062ZM27.8056 66.7135C27.8056 65.138 28.9801 63.9931 30.3628 63.9931C31.7305 63.9931 32.8308 65.138 32.8308 66.7135C32.8308 68.29 31.7305 69.4642 30.3628 69.4642C28.9947 69.4642 27.8056 68.29 27.8056 66.7135Z" clip-rule="evenodd"/></g><mask id="mask2_2702_4562" style="mask-type:alpha" width="12" height="12" x="37" y="61" maskUnits="userSpaceOnUse"><path fill="#fff" d="M42.7455 61.4062C39.4743 61.4062 37.0659 63.6361 37.0659 66.6992C37.0659 69.7766 39.4743 72.0515 42.7455 72.0515C46.0164 72.0515 48.4248 69.7616 48.4248 66.6992C48.4248 63.6511 46.0164 61.4062 42.7455 61.4062ZM40.2329 66.7135C40.2329 65.138 41.4075 63.9931 42.7902 63.9931C44.1582 63.9931 45.2581 65.138 45.2581 66.7135C45.2581 68.29 44.1582 69.4642 42.7902 69.4642C41.4225 69.4642 40.2329 68.29 40.2329 66.7135Z"/></mask><g mask="url(#mask2_2702_4562)"><path fill="url(#paint5_linear_2702_4562)" fill-rule="evenodd" d="M42.7455 61.4062C39.4743 61.4062 37.0659 63.6361 37.0659 66.6992C37.0659 69.7766 39.4743 72.0515 42.7455 72.0515C46.0164 72.0515 48.4248 69.7616 48.4248 66.6992C48.4248 63.6511 46.0164 61.4062 42.7455 61.4062ZM40.2329 66.7135C40.2329 65.138 41.4075 63.9931 42.7902 63.9931C44.1582 63.9931 45.2581 65.138 45.2581 66.7135C45.2581 68.29 44.1582 69.4642 42.7902 69.4642C41.4225 69.4642 40.2329 68.29 40.2329 66.7135Z" clip-rule="evenodd"/></g><mask id="mask3_2702_4562" style="mask-type:alpha" width="11" height="11" x="50" y="61" maskUnits="userSpaceOnUse"><path fill="#fff" d="M56.7632 61.4961L53.2691 65.5103V61.4961H50.1768V71.9185H53.2691V69.4206L54.4437 68.1125L56.867 71.9185H60.5696L56.555 65.7334L60.3314 61.4961H56.7632Z"/></mask><g mask="url(#mask3_2702_4562)"><path fill="url(#paint6_linear_2702_4562)" fill-rule="evenodd" d="M56.7632 61.4961L53.2691 65.5103V61.4961H50.1768V71.9185H53.2691V69.4206L54.4437 68.1125L56.867 71.9185H60.5696L56.555 65.7334L60.3314 61.4961H56.7632Z" clip-rule="evenodd"/></g><mask id="mask4_2702_4562" style="mask-type:alpha" width="9" height="11" x="62" y="61" maskUnits="userSpaceOnUse"><path fill="#fff" d="M62.0835 61.4961V71.9185H70.7512V69.5394H65.1755V67.8897H70.0968V65.5103H65.1755V63.8752H70.6027V61.4961H62.0835Z"/></mask><g mask="url(#mask4_2702_4562)"><path fill="url(#paint7_linear_2702_4562)" fill-rule="evenodd" d="M62.0835 61.4961V71.9185H70.7512V69.5394H65.1755V67.8897H70.0968V65.5103H65.1755V63.8752H70.6027V61.4961H62.0835Z" clip-rule="evenodd"/></g><mask id="mask5_2702_4562" style="mask-type:alpha" width="11" height="11" x="72" y="61" maskUnits="userSpaceOnUse"><path fill="#fff" d="M72.8308 61.4961V71.9185H77.2909C80.7253 71.9185 83.0001 69.8372 83.0001 66.7002C83.0001 63.5632 80.7699 61.4961 77.3951 61.4961H72.8308ZM75.9232 63.9344H77.3355C78.8224 63.9344 79.8481 65.0497 79.8481 66.7298C79.8481 68.3949 78.8963 69.4952 77.484 69.4952H75.9232V63.9344Z"/></mask><g mask="url(#mask5_2702_4562)"><path fill="url(#paint8_linear_2702_4562)" fill-rule="evenodd" d="M72.8308 61.4961V71.9185H77.2909C80.7253 71.9185 83.0001 69.8372 83.0001 66.7002C83.0001 63.5632 80.7699 61.4961 77.3951 61.4961H72.8308ZM75.9232 63.9344H77.3355C78.8224 63.9344 79.8481 65.0497 79.8481 66.7298C79.8481 68.3949 78.8963 69.4952 77.484 69.4952H75.9232V63.9344Z" clip-rule="evenodd"/></g></g><defs><linearGradient id="paint0_linear_2702_4562" x1="43.143" x2="18.528" y1="29.796" y2="46.209" gradientUnits="userSpaceOnUse"><stop stop-color="#5BD27A"/><stop offset=".476" stop-color="#89E640"/><stop offset="1" stop-color="#CCFA96"/></linearGradient><linearGradient id="paint1_linear_2702_4562" x1="16.063" x2="71.308" y1="42.299" y2="21.28" gradientUnits="userSpaceOnUse"><stop stop-color="#B4F149"/><stop offset=".368" stop-color="#52CDAB"/><stop offset=".647" stop-color="#0CB0E1"/><stop offset="1" stop-color="#005E9E"/></linearGradient><linearGradient id="paint2_linear_2702_4562" x1="52.37" x2="86.849" y1="48.361" y2="27.779" gradientUnits="userSpaceOnUse"><stop stop-color="#1DD7C9"/><stop offset=".29" stop-color="#1DBCC9"/><stop offset="1" stop-color="#68D76B"/></linearGradient><linearGradient id="paint3_linear_2702_4562" x1="12.932" x2="74.194" y1="66.638" y2="67.403" gradientUnits="userSpaceOnUse"><stop stop-color="#BAFB02"/><stop offset="1" stop-color="#05AEE4"/></linearGradient><linearGradient id="paint4_linear_2702_4562" x1="12.376" x2="80.451" y1="66.532" y2="67.383" gradientUnits="userSpaceOnUse"><stop stop-color="#BAFB02"/><stop offset="1" stop-color="#05AEE4"/></linearGradient><linearGradient id="paint5_linear_2702_4562" x1="12.378" x2="80.454" y1="66.395" y2="67.246" gradientUnits="userSpaceOnUse"><stop stop-color="#BAFB02"/><stop offset="1" stop-color="#05AEE4"/></linearGradient><linearGradient id="paint6_linear_2702_4562" x1="12.624" x2="80.315" y1="66.171" y2="67.017" gradientUnits="userSpaceOnUse"><stop stop-color="#BAFB02"/><stop offset="1" stop-color="#05AEE4"/></linearGradient><linearGradient id="paint7_linear_2702_4562" x1="29.045" x2="76.132" y1="66.033" y2="66.621" gradientUnits="userSpaceOnUse"><stop stop-color="#BAFB02"/><stop offset="1" stop-color="#05AEE4"/></linearGradient><linearGradient id="paint8_linear_2702_4562" x1="15.528" x2="80.339" y1="65.923" y2="66.733" gradientUnits="userSpaceOnUse"><stop stop-color="#BAFB02"/><stop offset="1" stop-color="#05AEE4"/></linearGradient><clipPath id="clip0_2702_4562"><rect width="96" height="96" fill="#fff"/></clipPath></defs></svg>