<svg xmlns="http://www.w3.org/2000/svg" width="96" height="96" fill="none" viewBox="0 0 96 96"><circle cx="48" cy="48" r="48" fill="#fff"/><path fill="#2BE2B3" fill-rule="evenodd" d="M73.2712 21V32.5577H69.9265V21H66.6028V32.5577H63.2243V21.0308H59.9005V32.5577H56.5262V21.0308H53.2024V32.5577H42.5319V21.0308H39.208V35.8815H73.2712V39.1804H35.815V21H32.4912V42.5042H73.2712V45.9288H29.1096V21H25.7858V45.9288H22.3873V21H19.0635V74.1816H22.3873V62.6238H25.7573V74.1816H29.0811V62.6238H32.4596V74.1507H35.7835V62.6238H39.158V74.1507H42.4819V62.6238H53.1521V74.1507H56.476V59.2999H22.3873V56.0011H59.8691V74.1816H63.1929V52.6773H22.3873V49.2526H66.5744V74.1816H69.8982V49.2526H73.2712V74.1816H76.595V21H73.2712Z" clip-rule="evenodd"/></svg>