<svg xmlns="http://www.w3.org/2000/svg" width="96" height="96" fill="none" viewBox="0 0 96 96"><circle cx="48" cy="48" r="48" fill="#fff"/><path fill="#E98296" d="M13.8109 45.1836C13.8109 44.532 13.8156 43.8758 13.8156 43.2242C13.8672 43.0695 13.8062 42.9055 13.8531 42.7508C13.8578 42.643 13.8578 42.5351 13.8625 42.4273C13.9141 42.3195 13.8578 42.2023 13.9 42.0945C13.9047 42.0195 13.9047 41.9398 13.9094 41.8648C13.9562 41.7898 13.9094 41.7008 13.9469 41.6258C14.0453 40.4586 14.2844 39.3242 14.6641 38.218C15.0297 37.1492 15.5453 36.1648 16.2812 35.2977C16.5578 34.9742 16.8625 34.6789 17.1906 34.4023C17.6359 33.9477 18.1937 33.657 18.7703 33.4133C19.7734 32.9914 20.8234 32.8039 21.9156 32.7805C23.9359 32.7383 25.8484 33.2023 27.7187 33.9055C29.7203 34.6602 31.6047 35.6492 33.3906 36.8258C33.4375 36.8539 33.4797 36.8914 33.5359 36.9055C33.6016 36.8633 33.5641 36.807 33.55 36.7602C33.2031 35.1805 32.95 33.5867 32.7906 31.9742C32.7062 31.1211 32.6641 30.2633 32.6219 29.4055C32.5844 28.6836 32.6078 27.9711 32.6406 27.2539C32.7437 25.0555 33.1047 22.9039 34.1172 20.9164C35.35 18.4977 37.3141 17.0539 39.9766 16.5523C41.0734 16.3461 42.1797 16.3039 43.2859 16.3414C43.8672 16.3602 44.4531 16.3836 45.0344 16.468C45.4 16.4914 45.7562 16.5617 46.1172 16.6227C47.0406 16.7914 47.9406 17.0398 48.8078 17.4102C50.5422 18.1508 51.9062 19.318 52.8953 20.9258C53.6312 22.1164 54.0766 23.4195 54.3719 24.7789C54.4422 25.0977 54.5547 25.4117 54.5594 25.7398C54.5687 25.932 54.6016 26.1195 54.6391 26.3023C54.7562 27.2023 54.8266 28.107 54.8547 29.0164C54.8734 29.7008 54.9156 30.3852 54.8547 31.0648C54.85 31.107 54.8266 31.168 54.8875 31.182C54.9437 31.1961 54.9812 31.1352 55.0234 31.107C55.3141 30.9055 55.5859 30.6758 55.8812 30.4789C58.1219 28.9086 60.5781 27.8258 63.2453 27.2211C64.6797 26.8977 66.1375 26.7852 67.5953 26.8789C70.2437 27.0523 72.6109 27.9758 74.6359 29.7195C75.8594 30.7742 76.8391 32.0352 77.6359 33.4367C78.1703 34.3742 78.6578 35.3352 78.9344 36.3852C79.0516 36.8305 79.1406 37.2805 79.225 37.7351C79.2297 38.1242 79.2578 38.5133 79.2578 38.9023C79.2625 40.0086 79.0328 41.0726 78.6531 42.1039C78.0859 43.6414 77.1953 44.9773 76.1172 46.1961C75.0156 47.443 73.7406 48.493 72.3766 49.4351C72.1656 49.5805 72.1656 49.5805 72.3625 49.7351C72.5406 49.8758 72.7141 50.0164 72.8922 50.157C72.9625 50.2086 73.0234 50.2695 73.0422 50.3586C74.4203 51.5305 75.6437 52.8383 76.6516 54.3383C77.7719 56.007 78.5734 57.8117 78.9578 59.7898C79.0047 60.0383 79.0703 60.2867 79.1266 60.5351C79.1031 60.7648 79.1828 60.9805 79.2062 61.2055C79.2812 61.9226 79.2625 62.6351 79.2156 63.3523C79.1031 65.1617 78.6016 66.868 77.875 68.518C77.3219 69.7742 76.6797 70.9789 75.7656 72.0148C74.8562 73.0508 73.7781 73.8617 72.5078 74.4055C71.4859 74.8414 70.4219 75.0851 69.3156 75.1789C67.8391 75.3008 66.3859 75.1414 64.9469 74.8133C63.1844 74.4101 61.5156 73.7539 59.9172 72.9195C58.1172 71.982 56.4484 70.843 54.8922 69.5398C54.0672 68.8461 53.2844 68.1055 52.5484 67.318C51.2687 65.9539 50.1344 64.4726 49.2203 62.832C48.7141 61.9226 48.2547 60.9945 47.9453 59.9961C47.9219 59.9164 47.8844 59.8367 47.8937 59.7476C47.9734 59.6023 48.1281 59.6023 48.2594 59.5695C49.3328 59.2789 50.3172 58.7914 51.2125 58.1351C52.1641 57.4461 52.9422 56.5883 53.575 55.5992C53.6266 55.5148 53.6641 55.4117 53.7766 55.3836C54.0766 55.4211 54.3391 55.5711 54.6109 55.6789C56.3219 56.382 58.0047 57.1555 59.65 58.0039C61.3516 58.8805 63.0109 59.832 64.6141 60.8773C65.8797 61.7023 67.1125 62.5648 68.2844 63.5117C68.9453 64.0461 69.5922 64.5992 70.2203 65.1758C70.7734 65.682 71.3125 66.2023 71.8141 66.7601C71.9172 66.8726 72.0109 66.8305 72.0859 66.7367C72.1984 66.6008 72.2078 66.432 72.175 66.268C72.1234 65.982 72.0344 65.7055 71.9359 65.4336C71.8984 65.3351 71.8281 65.2648 71.7484 65.1992C70.2812 64.0461 68.7812 62.9351 67.2578 61.857C65.4766 60.6008 63.6484 59.4195 61.7641 58.318C59.8844 57.2164 57.9484 56.218 55.9516 55.3367C55.4453 55.1117 54.9297 54.9055 54.4187 54.6945C54.2969 54.643 54.1891 54.5867 54.2125 54.4273C54.4 53.8883 54.6062 53.3586 54.7469 52.8055C55.1172 51.3008 55.0937 49.7961 54.7516 48.2867C54.7375 48.1742 54.7141 48.0664 54.6625 47.968C54.5594 47.5836 54.5172 47.1851 54.4094 46.8055C54.2875 46.3695 54.1422 45.943 53.9641 45.5258C53.9359 45.4555 53.8937 45.3851 53.8937 45.3055C54.0766 44.9305 54.3672 44.6305 54.6203 44.3023C55.5391 43.1164 56.5516 42.0101 57.6484 40.9836C59.0875 39.643 60.6484 38.4664 62.3875 37.5336C64.0891 36.6195 65.8797 35.9773 67.7781 35.6445C69.0203 35.4242 70.2766 35.4148 71.5375 35.4383C71.6594 35.443 71.7859 35.457 71.8516 35.4852C70.9797 35.3117 70.0609 35.1336 69.1141 35.0773C67.7359 34.993 66.3906 35.1617 65.0594 35.5133C63.7937 35.8508 62.5984 36.3664 61.4594 37.018C60.1797 37.7539 59.0031 38.6211 57.9109 39.6101C56.4109 40.9742 55.0469 42.4601 53.8281 44.082C53.725 44.218 53.6547 44.382 53.4859 44.457C53.3641 44.4383 53.3359 44.3305 53.2844 44.2461C52.5391 43.0789 51.5922 42.1133 50.425 41.368C49.2156 40.5945 47.8984 40.1351 46.4641 39.9992C46.1547 39.9711 45.8406 39.9617 45.5312 39.957C45.4328 39.957 45.325 39.9758 45.2547 39.8773C45.1328 39.4601 45.1609 39.0242 45.1422 38.5977C45.1094 37.8242 45.0531 37.0555 45.025 36.282C45.0016 35.6211 44.95 34.9602 44.9078 34.2992C44.8609 33.582 44.8141 32.8648 44.7484 32.1523C44.5187 29.6586 44.1906 27.1836 43.3328 24.8117C43.0797 24.1086 42.6625 23.1383 41.9406 22.1164C42.2453 23.3352 42.5453 24.5398 42.8172 25.7492C43.4125 28.4352 43.9187 31.1352 44.2609 33.868C44.4156 35.1148 44.5469 36.3617 44.6125 37.618C44.6453 38.2789 44.7062 38.9398 44.6969 39.6055C44.6969 39.7086 44.7062 39.807 44.6687 39.9055C44.5937 40.032 44.4578 40.0273 44.3359 40.0414C42.6062 40.2852 41.0828 40.9836 39.7516 42.1086C38.8797 42.8445 38.1672 43.7164 37.6141 44.7195C37.5766 44.7851 37.5484 44.8648 37.4641 44.8883C37.3141 44.8742 37.2672 44.7476 37.1969 44.6492C36.5875 43.782 36.0156 42.8867 35.4906 41.9633C35.1203 41.3211 34.7922 40.6555 34.4594 39.9945C34.3656 39.8117 34.2953 39.6242 34.2297 39.432C34.1875 39.268 34.1312 39.1086 34.0984 38.9445C34.0937 38.9586 34.1031 38.968 34.1078 38.982C34.15 39.1461 34.1922 39.3148 34.2484 39.4789C34.6656 41.1992 35.5938 42.6758 36.475 44.1758C36.7187 44.593 37.0047 44.9867 37.2437 45.4039C37.1687 45.7555 36.9859 46.0695 36.8875 46.4164C36.7703 46.8383 36.6625 47.2601 36.5875 47.6867C36.5734 47.7758 36.5687 47.8742 36.475 47.9305C36.3484 47.9492 36.25 47.8742 36.1469 47.8226C34.7969 47.1711 33.4422 46.5289 32.0453 45.9805C30.4281 45.343 28.7781 44.818 27.0484 44.5836C24.6156 44.2555 22.2672 44.5039 20.05 45.6289C19.5953 45.8586 19.3422 46.2758 19.1172 46.707C19.075 46.7867 19.0609 46.8851 19.0562 46.9789C19.0516 47.1101 19.0234 47.2695 19.15 47.3492C19.2672 47.4242 19.3609 47.2883 19.4594 47.232C20.8797 46.393 22.3984 45.868 24.0484 45.732C25.5156 45.6148 26.9641 45.7414 28.3984 46.0601C30.3672 46.5008 32.2375 47.2273 34.0703 48.043C34.7687 48.3523 35.4672 48.6664 36.1516 49.0133C36.2406 49.0601 36.3391 49.093 36.4047 49.1773C36.475 49.4726 36.4797 49.7726 36.5125 50.0726C36.5734 50.6164 36.7328 51.132 36.8781 51.657C36.8641 52.1211 37.0328 52.543 37.1781 52.9695C37.6375 54.3055 38.3594 55.4914 39.2875 56.5555C40.1125 57.4976 41.0594 58.3039 42.1703 58.8992C42.2453 58.9414 42.3297 58.9695 42.3672 59.0586C42.3906 59.1617 42.325 59.2367 42.2781 59.3164C41.2469 60.9758 40.2437 62.6492 39.1937 64.2945C38.4156 65.5133 37.6 66.7039 36.7234 67.857C36.175 68.5789 35.5844 69.2633 34.9703 69.9289C34.2156 70.7492 33.3812 71.4664 32.4672 72.1086C32.3969 72.1601 32.3266 72.207 32.2094 72.2586C32.5094 72.2914 32.7672 72.2492 33.0203 72.1976C33.9203 72.0242 34.6703 71.5555 35.3547 70.9648C36.7094 69.7883 37.7031 68.3211 38.6547 66.8211C39.9719 64.7445 41.1203 62.5648 42.3625 60.4414C42.5359 60.1461 42.7094 59.8508 42.8969 59.5601C42.9437 59.4851 42.9812 59.3914 43.0891 59.368C43.2109 59.3633 43.3187 59.4101 43.4266 59.4523C44.2094 59.743 45.0297 59.8695 45.8547 59.8836C46.3984 59.893 46.9422 59.8414 47.4812 59.7336C47.5797 59.7148 47.6781 59.6867 47.7812 59.7008C47.8891 59.7383 47.8891 59.8461 47.9125 59.9305C48.2406 61.1164 48.6672 62.2601 49.2297 63.357C49.975 64.8008 50.8797 66.1367 51.9203 67.3789C52.0797 67.5711 52.2391 67.7633 52.4078 67.9461C52.5578 68.1055 52.5766 68.2601 52.4969 68.457C52.2672 69.0383 52.0187 69.6148 51.7328 70.168C51.1094 71.3773 50.3922 72.5305 49.5719 73.618C48.7656 74.6867 47.875 75.6805 46.9 76.5945C45.5734 77.832 44.1156 78.8867 42.4844 79.6883C41.1062 80.3633 39.6531 80.8133 38.1203 80.9633C36.4375 81.1273 34.8062 80.8976 33.2266 80.293C31.5625 79.6601 30.1094 78.6945 28.7875 77.5086C27.8125 76.632 26.9312 75.6805 26.2562 74.5461C25.8766 73.9086 25.5484 73.243 25.3562 72.5211C25.3469 72.4836 25.3281 72.4508 25.2953 72.4273C25.1969 71.9539 25.0984 71.4851 24.9906 71.0117C24.9109 70.6601 24.8734 70.3039 24.85 69.943C24.8078 69.8351 24.8641 69.718 24.8125 69.6101C24.8125 69.0851 24.8125 68.5601 24.8125 68.0351C24.8641 67.9273 24.8078 67.8102 24.85 67.7023C24.8547 67.6273 24.8547 67.5476 24.8594 67.4726C24.9062 67.3976 24.8594 67.3086 24.8969 67.2336C25.0562 65.7336 25.4453 64.2945 25.9984 62.8976C26.2703 62.2039 26.5609 61.5148 26.9125 60.8539C26.9688 60.6383 27.0859 60.4555 27.1797 60.2586C27.2359 60.1461 27.3203 60.0336 27.1187 59.9773C27.0859 59.968 27.0906 59.9258 27.1187 59.9023C27.3625 59.8742 27.4984 59.7242 27.6062 59.518C27.7422 59.2601 27.9156 59.0211 28.0422 58.7633C27.9766 58.707 27.9156 58.7117 27.8641 58.7211C27.325 58.8195 26.7906 58.7351 26.2562 58.7117C23.8375 58.618 21.5219 58.1258 19.4078 56.8836C17.7109 55.8851 16.4219 54.493 15.5078 52.7492C15.1234 52.018 14.7906 51.2586 14.5656 50.457C14.5469 50.3961 14.5234 50.3398 14.4859 50.2883C14.3969 50.0211 14.3313 49.7445 14.3125 49.4586C14.2375 49.0789 14.1625 48.7039 14.0922 48.3242C14.0781 48.2539 14.0359 48.1789 14.0688 48.1039C13.8906 47.6211 13.8766 47.1101 13.8203 46.6086C13.7734 46.1914 13.7734 45.7695 13.75 45.3476C13.7594 45.3148 13.7594 45.2445 13.8109 45.1836Z"/><path fill="#EEDBDF" d="M79.1825 37.782C79.0044 36.9945 78.8638 36.1976 78.5497 35.4429C77.9122 33.9242 77.0872 32.5179 76.0278 31.2523C74.9122 29.9164 73.5857 28.8523 72.0153 28.0976C70.8481 27.5398 69.6153 27.2023 68.331 27.0336C67.4356 26.9164 66.5403 26.907 65.645 26.9632C63.9481 27.0664 62.3075 27.4601 60.7138 28.0414C59.1341 28.6179 57.6435 29.382 56.2419 30.3148C56.1247 30.3945 56.0122 30.4695 55.895 30.5492C55.8153 30.4836 55.8106 30.3851 55.7825 30.2961C55.5716 29.6445 55.3653 28.9882 54.9997 28.4023C54.9763 28.3648 54.9575 28.3179 54.9106 28.2992C54.8263 28.182 54.8544 28.0507 54.8685 27.9195C54.9435 27.7554 54.9669 27.6054 54.7981 27.4836C54.7044 27.0804 54.6903 26.6632 54.6013 26.2601C54.5825 26.0773 54.5356 25.8992 54.4981 25.7164C54.3903 25.0554 54.2356 24.4039 54.0528 23.7617C53.645 22.3554 53.0403 21.0476 52.0935 19.9132C51.1419 18.7648 49.9606 17.9351 48.5825 17.3867C47.8138 17.082 47.0263 16.8476 46.206 16.7164C46.1825 16.7117 46.1638 16.6929 46.145 16.6836C45.7794 16.5992 45.4138 16.5007 45.0294 16.5336C44.0685 16.4445 43.1028 16.3742 42.1372 16.407C40.5575 16.4539 39.02 16.6836 37.595 17.4242C36.2356 18.132 35.195 19.1679 34.4263 20.4851C33.6106 21.8961 33.1747 23.4289 32.9263 25.0273C32.781 25.9742 32.7294 26.9304 32.6778 27.8867C32.6403 28.6461 32.6778 29.4007 32.7106 30.1507C32.7622 31.3226 32.8888 32.4898 33.0575 33.657C33.2216 34.7867 33.4278 35.9117 33.6669 37.0414C33.5685 37.0554 33.5169 36.9851 33.4606 36.9476C31.7731 35.8226 29.9919 34.8804 28.1122 34.1211C26.7669 33.5773 25.3747 33.1601 23.9356 32.9586C22.1872 32.7195 20.4528 32.757 18.7888 33.4601C18.2685 33.6804 17.7856 33.9617 17.3356 34.3086C17.2888 34.3461 17.2466 34.4023 17.1763 34.3976C17.3544 33.9711 17.706 33.6992 18.0481 33.4273C18.3153 33.2164 18.6013 33.0336 18.8731 32.8226C19.1216 32.6304 19.4169 32.607 19.7028 32.5507C20.3075 32.4289 20.9216 32.3351 21.5356 32.2882C21.6247 32.232 21.7325 32.3023 21.8169 32.2414C21.9575 32.2414 22.0981 32.2414 22.2388 32.2367C22.8013 32.2039 23.3638 32.2039 23.9263 32.2367C24.0669 32.2367 24.2075 32.2367 24.3481 32.2367C24.4185 32.2929 24.5122 32.232 24.5825 32.2789C25.5341 32.3632 26.4669 32.532 27.395 32.7711C28.0653 32.9445 28.7216 33.1554 29.3685 33.3992C29.5372 33.4601 29.5888 33.4789 29.5794 33.2304C29.57 32.8367 29.5935 32.4382 29.5981 32.0445C29.6591 31.9414 29.5841 31.8195 29.6403 31.7164C29.6403 31.5898 29.6403 31.4679 29.6403 31.3414C29.6966 31.2711 29.6356 31.1773 29.6825 31.107C29.7247 30.1461 29.9028 29.2039 30.1044 28.2664C30.3153 27.2867 30.5966 26.3304 30.9435 25.3882C30.9716 25.3086 31.0091 25.2289 31.0419 25.1539C31.3231 24.4929 31.5997 23.832 31.9278 23.1945C32.5747 21.9476 33.3388 20.7757 34.2575 19.707C35.3216 18.4695 36.5356 17.4101 37.9513 16.5945C39.306 15.8445 40.731 15.3289 42.2591 15.0898C43.0466 14.9679 43.8341 14.8836 44.6263 14.9117C45.7841 14.9586 46.9419 15.057 48.0528 15.3992C48.8075 15.6336 49.5013 16.0179 50.1903 16.3976C50.6685 16.6601 51.1372 16.9414 51.5872 17.2507C52.4403 17.8507 53.2513 18.4976 54.0106 19.2195C55.0185 20.1757 55.8997 21.2398 56.6919 22.3742C57.3575 23.3257 57.9341 24.3336 58.4544 25.3695C58.5247 25.5054 58.5716 25.5429 58.731 25.4773C59.781 25.0367 60.8778 24.7461 62.0028 24.5726C62.1716 24.5445 62.3403 24.5351 62.5138 24.5164C62.5841 24.4648 62.6778 24.5257 62.7481 24.4695C62.8419 24.4695 62.9356 24.4695 63.0294 24.4695C63.1513 24.4132 63.2872 24.4882 63.4044 24.4226C63.9669 24.4226 64.5294 24.4226 65.0872 24.4226C65.1903 24.4836 65.3122 24.4086 65.4153 24.4648C65.5091 24.4648 65.6028 24.4648 65.6966 24.4648C65.7669 24.5211 65.8606 24.4601 65.931 24.5117C66.906 24.6195 67.8622 24.8023 68.8044 25.0601C70.3138 25.4726 71.7575 26.0539 73.1357 26.7851C74.4857 27.5023 75.756 28.3367 76.9607 29.2789C78.0107 30.1039 78.9763 31.0226 79.8857 31.9929C80.8607 33.0336 81.7185 34.1679 82.4732 35.382C82.8435 35.9773 83.1857 36.5914 83.4997 37.2148C83.7528 37.7164 83.7528 37.7211 83.27 38.0304C82.4403 38.5648 81.606 39.0992 80.781 39.6429C80.645 39.732 80.5653 39.7226 80.4716 39.6054C80.106 39.1507 79.7403 38.7007 79.37 38.2507C79.3185 38.2273 79.2575 38.2132 79.2247 38.1617C79.206 38.0351 79.1591 37.9132 79.1825 37.782Z"/><path fill="#A87A92" d="M25.3096 72.4601C25.4221 72.4179 25.3986 72.5257 25.4127 72.5679C25.7408 73.5242 26.1861 74.4195 26.7768 75.2445C27.3533 76.0507 28.033 76.7679 28.7736 77.4335C29.5518 78.1367 30.3768 78.7695 31.2721 79.3085C32.5377 80.0726 33.8971 80.6023 35.3596 80.846C36.0018 80.9539 36.658 81.0195 37.3096 80.9914C38.8236 80.9351 40.2768 80.607 41.6783 80.0257C43.0705 79.4445 44.3408 78.6617 45.5221 77.7429C46.483 76.9929 47.3596 76.1539 48.1799 75.2539C49.0893 74.2554 49.9049 73.1867 50.6315 72.0476C51.358 70.9085 51.9721 69.7085 52.469 68.4523C52.5346 68.2929 52.5158 68.1804 52.3939 68.0351C51.3111 66.8117 50.3502 65.5039 49.5486 64.0789C48.7846 62.7195 48.1939 61.2898 47.8377 59.771C47.8658 59.7382 47.8986 59.7382 47.9314 59.7617C48.0393 60.2351 48.2361 60.6757 48.4283 61.121C49.0799 62.6304 49.933 64.0273 50.9314 65.3304C51.3674 65.8976 51.8268 66.446 52.3049 66.9804C52.7924 67.5195 53.2986 68.0398 53.8283 68.532C55.2111 69.8257 56.7111 70.9789 58.3283 71.9726C59.0549 72.4179 59.7955 72.8351 60.5596 73.2007C62.2002 73.9929 63.9064 74.6023 65.6971 74.9398C66.7846 75.146 67.8908 75.2445 68.9971 75.1789C70.9236 75.0617 72.719 74.5179 74.2799 73.346C75.3721 72.5257 76.2393 71.5039 76.9143 70.3179C77.5986 69.1226 78.1518 67.871 78.5549 66.5539C78.8127 65.7054 78.9955 64.8429 79.1033 63.957C79.1971 63.1789 79.1971 62.4007 79.183 61.6226C79.1783 61.3601 79.1315 61.0976 79.1033 60.8351C79.094 60.7414 79.0705 60.6476 79.1221 60.5632C79.258 61.1632 79.3518 61.7773 79.4268 62.3867C79.4643 62.4804 79.4174 62.5835 79.4596 62.6773C79.4643 62.832 79.469 62.982 79.4736 63.1367C79.4971 63.4648 79.4971 63.7882 79.4736 64.1164C79.469 64.271 79.4643 64.421 79.4596 64.5757C79.4127 64.6695 79.4643 64.7726 79.4268 64.8664C79.2252 66.7554 78.6908 68.5507 77.8705 70.2664C77.2471 71.5695 76.5111 72.7976 75.4658 73.8195C74.2565 74.996 72.8408 75.7789 71.2002 76.1679C70.708 76.2851 70.2158 76.3554 69.7143 76.4117C69.6205 76.4492 69.5174 76.3976 69.4236 76.4445C69.2549 76.4492 69.0861 76.4539 68.9174 76.4539C68.7018 76.4773 68.4815 76.4773 68.2658 76.4539C68.0971 76.4492 67.9283 76.4445 67.7596 76.4398C67.6658 76.3929 67.5627 76.4445 67.469 76.407C66.0299 76.3132 64.6518 75.9664 63.2924 75.5023C62.1299 75.1085 61.0096 74.607 59.9268 74.0304C58.6189 73.332 57.3768 72.521 56.2002 71.6164C55.5346 71.1054 54.8924 70.5617 54.2736 69.9898C53.908 69.6523 53.5564 69.3007 53.2002 68.9492C53.0549 68.8085 53.0174 68.8507 52.9611 69.0195C52.1643 71.4148 50.8846 73.5382 49.3143 75.4976C48.6393 76.3367 47.9127 77.1289 47.1205 77.8601C46.0002 78.896 44.7861 79.8101 43.4502 80.5554C41.9971 81.3617 40.4643 81.9242 38.8189 82.1492C37.0471 82.3929 35.3268 82.1773 33.6393 81.582C32.1768 81.0664 30.8877 80.2601 29.6971 79.2851C29.1814 78.8632 28.6846 78.4226 28.2205 77.9398C27.3955 77.0867 26.7064 76.1445 26.1814 75.0757C25.7783 74.246 25.4971 73.3695 25.3096 72.4601Z"/><path fill="#A87A92" d="M14.5567 50.293C14.7114 50.7148 14.8567 51.1414 15.0255 51.5586C15.5177 52.782 16.1786 53.9023 17.0645 54.8914C18.4614 56.457 20.2052 57.4414 22.1927 58.0367C23.0645 58.2992 23.9598 58.468 24.8598 58.5805C25.3286 58.6414 25.802 58.7023 26.2755 58.6836C26.6505 58.6695 27.0208 58.7539 27.3958 58.7258C27.6489 58.707 27.902 58.6648 28.1973 58.6977C27.9489 59.1055 27.7192 59.4992 27.4755 59.8836C27.3958 60.0102 27.2411 59.9258 27.1239 59.9539C26.8145 60.0805 26.4911 60.0242 26.1817 60.0055C25.4692 59.9586 24.7567 59.8789 24.0536 59.7523C23.6927 59.6867 23.3505 59.5789 22.9989 59.4711C21.9395 59.2086 20.927 58.8102 19.9708 58.2852C19.3942 57.9711 18.8645 57.5961 18.3583 57.1789C17.7489 56.7664 17.2802 56.2086 16.8395 55.6367C15.813 54.3148 15.1427 52.8242 14.7114 51.2164C14.6505 50.9961 14.5942 50.7805 14.5473 50.5555C14.5239 50.4711 14.4817 50.3773 14.5567 50.293Z"/><path fill="#A87A92" d="M79.1822 37.782C79.215 37.9039 79.2525 38.0304 79.2853 38.1523C79.3509 38.2085 79.2853 38.2929 79.3322 38.3492C79.3697 38.5976 79.4025 38.8414 79.44 39.0898C79.4775 39.1695 79.4306 39.2585 79.4728 39.3335C79.4775 39.4554 79.4822 39.5773 79.4869 39.6992C79.5103 39.9617 79.5103 40.2289 79.4869 40.4914C79.4822 40.6132 79.4775 40.7351 79.4728 40.857C79.4306 40.932 79.4728 41.021 79.44 41.1007C79.2666 42.3804 78.8775 43.5898 78.2681 44.7289C77.7384 45.7179 77.0822 46.6179 76.3369 47.4617C75.3572 48.5679 74.2369 49.5148 73.0463 50.382C72.7603 50.1523 72.4838 49.9179 72.1884 49.7023C72.0619 49.6085 72.0994 49.571 72.1931 49.5054C72.8353 49.0835 73.4541 48.6242 74.0494 48.132C74.7431 47.5507 75.3994 46.9367 76.0041 46.257C76.6322 45.5539 77.2041 44.8085 77.6916 43.9976C78.4088 42.7976 78.9103 41.5179 79.1119 40.121C79.215 39.3992 79.2431 38.682 79.1588 37.9601C79.1447 37.9039 79.1306 37.8382 79.1822 37.782Z"/><path fill="#EEDBDF" d="M14.556 50.293C14.6639 50.982 14.8701 51.643 15.0998 52.2945C15.5639 53.5977 16.206 54.807 17.092 55.8711C17.406 56.2508 17.7342 56.6117 18.1139 56.9305C18.2029 57.0055 18.306 57.0664 18.3529 57.1789C18.0389 57.1039 17.8139 56.8789 17.5607 56.7055C16.7123 56.1289 15.9201 55.4773 15.2029 54.7461C14.181 53.7055 13.3092 52.5383 12.6389 51.2258C12.5451 51.0477 12.4654 50.8648 12.367 50.6867C12.3014 50.5742 12.3201 50.4945 12.4139 50.4008C12.6904 50.1289 13.0607 50.0398 13.3982 49.8805C13.7029 49.7305 14.0123 49.5992 14.3357 49.4961C14.4764 49.7398 14.4435 50.0398 14.556 50.293Z"/><path fill="#EEDBDF" d="M22.998 59.4757C23.4387 59.5554 23.8793 59.6398 24.3199 59.7195C25.248 59.8835 26.1809 59.9585 27.123 59.9585C27.198 60.0241 27.3059 59.9585 27.4043 60.0335C27.2215 60.3054 27.1277 60.6195 26.9309 60.882C26.7762 60.7554 26.5793 60.7273 26.3965 60.671C25.2762 60.3288 24.1699 59.9491 23.073 59.5273C23.0449 59.5179 23.0215 59.4945 22.998 59.4757Z"/><path fill="#EEDBDF" d="M13.8103 45.1836C13.8759 46.1727 13.9368 47.157 14.0868 48.1367C13.8524 47.7758 13.8103 47.3586 13.7212 46.9508C13.6743 46.7398 13.6603 46.5242 13.6696 46.3039C13.6368 46.0367 13.6368 45.7742 13.6696 45.507C13.7165 45.4039 13.5571 45.207 13.8103 45.1836Z"/><path fill="#FDFDFD" d="M23.9316 32.2461C23.3691 32.2461 22.8066 32.2461 22.2441 32.2461C22.2957 32.1805 22.3707 32.2039 22.441 32.2039C22.8723 32.2039 23.3035 32.2039 23.7395 32.2039C23.8051 32.2039 23.8801 32.1851 23.9316 32.2461Z"/><path fill="#FDFDFD" d="M79.4824 64.121C79.4824 63.7929 79.4824 63.4695 79.4824 63.1414C79.5481 63.4648 79.5481 63.7929 79.4824 64.121Z"/><path fill="#FDFDFD" d="M79.4824 40.496C79.4824 40.2335 79.4824 39.9664 79.4824 39.7039C79.5481 39.971 79.5481 40.2335 79.4824 40.496Z"/><path fill="#FDFDFD" d="M13.666 45.5164C13.666 45.7835 13.666 46.046 13.666 46.3132C13.5957 46.046 13.5957 45.7789 13.666 45.5164Z"/><path fill="#FDFDFD" d="M68.2754 76.4585C68.491 76.4585 68.7113 76.4585 68.927 76.4585C68.7113 76.5194 68.4957 76.5194 68.2754 76.4585Z"/><path fill="#FDFDFD" d="M13.8485 42.7507C13.8438 42.9101 13.8766 43.0742 13.811 43.2242C13.8251 43.0695 13.7688 42.9054 13.8485 42.7507Z"/><path fill="#FDFDFD" d="M63.4004 24.4226C63.2832 24.5116 63.152 24.4507 63.0254 24.4694C63.1426 24.3757 63.2738 24.4413 63.4004 24.4226Z"/><path fill="#FDFDFD" d="M13.8949 42.0945C13.8949 42.207 13.9183 42.3242 13.8574 42.4273C13.8715 42.3148 13.8199 42.1976 13.8949 42.0945Z"/><path fill="#FDFDFD" d="M29.6502 31.7351C29.6362 31.8429 29.6924 31.9648 29.6081 32.0632C29.6221 31.9554 29.5659 31.8335 29.6502 31.7351Z"/><path fill="#FDFDFD" d="M65.416 24.4695C65.3082 24.4555 65.1863 24.5117 65.0879 24.4273C65.1957 24.4414 65.3129 24.3805 65.416 24.4695Z"/><path fill="#FDFDFD" d="M24.8633 67.7351C24.8633 67.8476 24.8914 67.9648 24.8258 68.0679C24.8352 67.9554 24.7883 67.8382 24.8633 67.7351Z"/><path fill="#FDFDFD" d="M24.8262 69.6429C24.8871 69.7508 24.8636 69.8633 24.8636 69.9758C24.7887 69.8726 24.8402 69.7554 24.8262 69.6429Z"/><path fill="#FDFDFD" d="M21.8262 32.2508C21.7418 32.3305 21.6387 32.2836 21.5449 32.2976C21.6293 32.2133 21.7324 32.2648 21.8262 32.2508Z"/><path fill="#FDFDFD" d="M79.4732 62.682C79.4216 62.5882 79.4357 62.4898 79.4404 62.3914C79.5107 62.4804 79.4638 62.5835 79.4732 62.682Z"/><path fill="#FDFDFD" d="M79.435 64.8711C79.4303 64.7726 79.4163 64.6695 79.4678 64.5804C79.4631 64.6742 79.51 64.7773 79.435 64.8711Z"/><path fill="#FDFDFD" d="M67.4785 76.4117C67.5769 76.407 67.6754 76.393 67.7691 76.4445C67.6707 76.4398 67.5676 76.482 67.4785 76.4117Z"/><path fill="#FDFDFD" d="M69.4326 76.4445C69.5264 76.393 69.6248 76.407 69.7232 76.4117C69.6342 76.482 69.5311 76.4398 69.4326 76.4445Z"/><path fill="#FDFDFD" d="M79.4362 41.1054C79.4315 41.0211 79.4221 40.9367 79.469 40.8617C79.469 40.9461 79.5065 41.0304 79.4362 41.1054Z"/><path fill="#FDFDFD" d="M79.4732 39.3382C79.4216 39.2632 79.4357 39.1789 79.4404 39.0945C79.506 39.1695 79.4685 39.2585 79.4732 39.3382Z"/><path fill="#FDFDFD" d="M79.3325 38.3539C79.281 38.2976 79.2903 38.2226 79.2856 38.157C79.3325 38.171 79.3653 38.2039 79.3794 38.2507C79.3372 38.2742 79.3372 38.3117 79.3325 38.3539Z"/><path fill="#FDFDFD" d="M24.5879 32.2929C24.5082 32.2835 24.4191 32.321 24.3535 32.2507C24.4332 32.2601 24.5223 32.2179 24.5879 32.2929Z"/><path fill="#FDFDFD" d="M29.6966 31.1257C29.6872 31.2054 29.7247 31.2945 29.6544 31.3601C29.6638 31.2804 29.6216 31.1914 29.6966 31.1257Z"/><path fill="#FDFDFD" d="M65.9316 24.5164C65.852 24.507 65.7629 24.5445 65.6973 24.4695C65.7723 24.4789 65.8613 24.4367 65.9316 24.5164Z"/><path fill="#FDFDFD" d="M62.7441 24.4695C62.6785 24.5445 62.5895 24.507 62.5098 24.5164C62.5754 24.4367 62.6645 24.4789 62.7441 24.4695Z"/><path fill="#FDFDFD" d="M24.9108 67.2664C24.9155 67.3507 24.9295 67.4304 24.8733 67.5054C24.8827 67.4257 24.8405 67.3367 24.9108 67.2664Z"/><path fill="#FDFDFD" d="M13.9417 41.6257C13.9464 41.7101 13.9604 41.7898 13.9042 41.8648C13.9136 41.7851 13.8761 41.696 13.9417 41.6257Z"/><path fill="#FDEBAB" d="M53.941 45.3242C54.3113 46.1539 54.5879 47.007 54.6957 47.9117C54.7004 47.9398 54.7191 47.968 54.7285 48.0008C54.766 48.1039 54.752 48.2211 54.7895 48.3242C55.0004 49.6461 54.8129 50.9352 54.4285 52.2008C54.0629 53.4102 53.4629 54.507 52.6426 55.468C51.077 57.3008 49.1082 58.4023 46.7035 58.707C44.4816 58.9883 42.5035 58.3742 40.727 57.0617C39.2223 55.9508 38.0691 54.5445 37.2488 52.8711C37.0754 52.5148 36.8926 52.1633 36.8598 51.7555C36.5691 50.9352 36.4145 50.0914 36.4004 49.2242C36.3816 49.2008 36.3535 49.1727 36.3535 49.1445C36.3676 48.7461 36.3301 48.3383 36.4941 47.9586C36.602 47.4758 36.6816 46.9883 36.827 46.5148C36.9395 46.1445 37.0848 45.7836 37.2348 45.4273C37.2395 45.2211 37.352 45.0664 37.4738 44.9117C37.7926 44.3867 38.1066 43.8617 38.4957 43.3789C39.4379 42.2117 40.591 41.3211 41.9598 40.707C42.8176 40.3227 43.7223 40.0977 44.6504 39.9805C44.8613 39.8914 45.077 39.8211 45.302 39.9336C46.3285 39.9195 47.3363 40.0414 48.316 40.3508C49.4785 40.7164 50.5145 41.2977 51.452 42.0758C52.277 42.7602 52.9379 43.5805 53.5051 44.4852C53.7301 44.7242 53.8801 45.0008 53.941 45.3242Z"/><path fill="#967849" d="M36.8598 51.7508C37.3145 53.082 38.027 54.268 38.9457 55.3273C40.052 56.607 41.3551 57.6195 42.9488 58.2148C45.152 59.0351 47.3363 58.857 49.4223 57.8586C52.3801 56.443 54.1145 54.057 54.6863 50.8273C54.8317 50.0023 54.8363 49.1679 54.766 48.3336C54.752 48.2867 54.7707 48.2726 54.8129 48.2867C54.9723 48.9758 55.0754 49.6789 55.0895 50.3867C55.1176 51.8258 54.827 53.1992 54.2504 54.5164C54.1707 54.868 54.016 55.182 53.777 55.4492C53.4863 55.8523 53.2238 56.2742 52.9051 56.6586C51.6957 58.1023 50.1957 59.0961 48.391 59.6258C48.2363 59.6726 48.077 59.7195 47.9223 59.7617C47.8895 59.7664 47.8613 59.7664 47.8285 59.7711C47.1676 59.9211 46.4926 59.9961 45.8223 59.982C44.9598 59.968 44.1113 59.818 43.2957 59.5086C43.216 59.4805 43.1317 59.457 43.052 59.4336C42.7801 59.4055 42.5598 59.2648 42.3488 59.1055C41.777 58.7914 41.2238 58.4445 40.7129 58.032C39.5832 57.1226 38.6598 56.0398 37.9379 54.7836C37.4317 53.907 37.0613 52.9789 36.8457 51.9898C36.8317 51.9101 36.7942 51.8305 36.8598 51.7508Z"/><path fill="#D16B7F" d="M36.4982 47.9492C36.4654 48.3711 36.4373 48.793 36.4044 49.2149C35.9826 49.018 35.556 48.8258 35.1341 48.6242C33.5123 47.8602 31.8623 47.1664 30.1513 46.6227C29.106 46.2945 28.0419 46.0414 26.9544 45.8914C26.0873 45.7695 25.2107 45.7414 24.3435 45.8024C23.0263 45.8914 21.7513 46.2008 20.5513 46.7774C20.1248 46.9836 19.7029 47.2039 19.3044 47.4617C19.1685 47.5508 19.1123 47.518 19.0654 47.382C18.9576 47.0633 19.0326 46.7727 19.1873 46.4867C19.5482 45.8164 20.1669 45.4977 20.8419 45.2352C21.7935 44.8602 22.7779 44.5977 23.7951 44.4899C24.6248 44.4008 25.4544 44.4102 26.2888 44.4758C28.1826 44.6211 29.9779 45.1602 31.7451 45.8258C32.9779 46.2899 34.1779 46.8336 35.3638 47.4055C35.7388 47.5883 36.1185 47.7711 36.4982 47.9492Z"/><path fill="#D16B7F" d="M53.7856 55.4445C53.945 55.1352 54.0997 54.8211 54.2591 54.5117C54.2638 54.5961 54.3153 54.6289 54.3856 54.657C56.0966 55.3133 57.7466 56.1102 59.3731 56.9539C60.7044 57.6477 62.0075 58.4023 63.2825 59.1945C64.2622 59.7992 65.2325 60.4227 66.1841 61.0742C67.5903 62.0352 68.9685 63.0336 70.3325 64.0555C70.8294 64.4305 71.3169 64.8148 71.8091 65.1945C71.9169 65.2789 71.9919 65.3773 72.0294 65.5086C72.1185 65.8226 72.245 66.1273 72.2591 66.4555C72.2638 66.5867 72.2216 66.7039 72.1513 66.807C72.0341 66.9805 71.8888 66.9711 71.7575 66.8211C71.3169 66.3148 70.8341 65.8508 70.3419 65.3961C69.906 64.993 69.4653 64.6039 69.0153 64.2195C68.3075 63.6148 67.5716 63.043 66.8169 62.4898C65.4481 61.4867 64.0278 60.5633 62.5653 59.7008C61.9231 59.3211 61.2716 58.9508 60.6106 58.5992C59.7622 58.1492 58.9091 57.7086 58.0466 57.2961C56.6497 56.6305 55.2341 56.0023 53.7856 55.4445Z"/><path fill="#D16B7F" d="M53.941 45.3241C53.7957 45.0429 53.6551 44.7663 53.5098 44.4851C54.227 43.5241 54.9723 42.5913 55.7879 41.7101C56.8566 40.5616 57.9676 39.4648 59.2145 38.5085C60.2645 37.7023 61.3707 36.9991 62.5566 36.4226C63.7426 35.8507 64.9801 35.4429 66.2738 35.2179C66.7895 35.1241 67.3191 35.0913 67.8488 35.0538C69.2363 34.9601 70.5863 35.1757 71.927 35.4944C71.9785 35.5085 72.0254 35.5319 72.0723 35.5694C71.7395 35.5226 71.4113 35.5366 71.0832 35.5366C70.3895 35.5366 69.6957 35.5085 69.002 35.5882C67.9754 35.7007 66.9629 35.8835 65.9691 36.1741C64.8723 36.4929 63.8176 36.9148 62.8051 37.4351C61.4598 38.1288 60.2082 38.9679 59.0316 39.9241C58.0988 40.6835 57.227 41.5085 56.4066 42.3804C55.5535 43.2851 54.7613 44.246 54.0254 45.2491C53.9973 45.2726 53.9691 45.296 53.941 45.3241Z"/><path fill="#D16B7F" d="M42.3533 59.1055C42.5877 59.2133 42.8221 59.3258 43.0564 59.4336C42.7658 59.9305 42.4752 60.4273 42.1893 60.9242C41.7018 61.7727 41.2096 62.6258 40.7268 63.4789C40.0049 64.7539 39.2783 66.0195 38.4861 67.257C37.9096 68.157 37.2955 69.0242 36.6018 69.8351C35.8471 70.7258 35.0033 71.518 33.9205 72.0148C33.4424 72.2351 32.9314 72.3336 32.4064 72.3711C32.3221 72.3758 32.233 72.3758 32.1533 72.3008C32.5705 72.0148 32.983 71.7242 33.3721 71.4008C34.0986 70.8008 34.7689 70.1398 35.3877 69.432C36.0158 68.7195 36.6064 67.9789 37.1689 67.2148C38.0408 66.0195 38.8611 64.7867 39.6393 63.5305C40.3986 62.307 41.1533 61.0789 41.908 59.8508C42.0674 59.6023 42.2502 59.3773 42.3533 59.1055Z"/><path fill="#D16B7F" d="M45.306 39.9288C45.0903 39.9429 44.87 39.9569 44.6544 39.9757C44.6825 39.3147 44.6403 38.6491 44.5935 37.9929C44.5372 37.1444 44.4669 36.2913 44.3778 35.4429C44.27 34.3694 44.1341 33.3007 43.9841 32.2366C43.8528 31.3085 43.6888 30.3851 43.5153 29.4616C43.2013 27.7601 42.845 26.0679 42.4419 24.3851C42.2497 23.5835 42.0435 22.7866 41.8794 21.9663C41.9591 22.0694 42.0435 22.1679 42.1185 22.2757C42.6997 23.1194 43.131 24.0429 43.4778 25.0085C43.9747 26.396 44.27 27.8351 44.4997 29.2835C44.631 30.1179 44.7247 30.9569 44.795 31.8007C44.8653 32.6304 44.9356 33.4554 44.9825 34.2851C45.0294 35.1288 45.0856 35.9772 45.1231 36.821C45.1653 37.6976 45.2216 38.5741 45.2638 39.4507C45.2731 39.6054 45.3153 39.7647 45.306 39.9288Z"/><path fill="#A87A92" d="M37.4782 44.907C37.4267 45.0898 37.3235 45.2491 37.2392 45.4226C36.9673 45.1601 36.8079 44.8179 36.6063 44.5038C35.936 43.4538 35.3501 42.357 34.797 41.2413C34.5251 40.6929 34.3704 40.1116 34.2438 39.5163C34.2251 39.4695 34.2485 39.4601 34.2907 39.4695C34.8392 40.6835 35.4673 41.8507 36.1657 42.9851C36.5548 43.6132 36.9626 44.2273 37.3938 44.8273C37.4173 44.8554 37.4501 44.8788 37.4782 44.907Z"/><path fill="#FEFEFE" d="M54.9575 28.3179C55.1216 28.4444 55.22 28.6179 55.295 28.8007C55.52 29.3351 55.7403 29.8741 55.8856 30.4413C55.895 30.4788 55.895 30.5163 55.8997 30.5585C55.6325 30.7507 55.37 30.9429 55.1028 31.1351C54.9763 30.8491 55.0091 30.5397 54.995 30.2397C54.9716 29.7007 54.9481 29.1663 54.9013 28.6319C54.8872 28.5241 54.8731 28.4116 54.9575 28.3179Z"/><path fill="#A97A93" d="M54.9581 28.3179C55.0331 29.2554 55.0799 30.1929 55.0987 31.1304C55.0331 31.2476 54.9065 31.2851 54.8034 31.3835C54.7518 31.2898 54.7659 31.196 54.7753 31.1116C54.8924 30.1554 54.7799 29.1991 54.7565 28.2429C54.7424 27.5913 54.6393 26.9445 54.5784 26.2976C54.5596 26.2507 54.5831 26.2413 54.6206 26.2507C54.6956 26.6726 54.7753 27.0991 54.8503 27.521C54.9253 27.6335 54.9393 27.7601 54.9018 27.8913C54.9253 28.0366 54.8831 28.182 54.9581 28.3179Z"/><path fill="#F8EBEE" d="M45.0293 16.543C45.1605 16.4633 45.2965 16.5008 45.4324 16.5242C45.6809 16.5617 45.934 16.6086 46.1824 16.6508C46.1871 16.6508 46.1918 16.6602 46.1918 16.6649C46.173 16.6742 46.159 16.6883 46.1402 16.6977C45.7746 16.6414 45.3996 16.5899 45.0293 16.543Z"/><path fill="#C57D94" d="M34.2901 39.4695C34.276 39.4835 34.2573 39.5023 34.2432 39.5163C34.1635 39.3335 34.112 39.1507 34.1401 38.9445C34.1916 39.1179 34.2385 39.296 34.2901 39.4695Z"/><path fill="#C28B9F" d="M54.6293 26.2507C54.6152 26.2648 54.6012 26.2788 54.5871 26.2976C54.5262 26.1101 54.498 25.9226 54.498 25.7257C54.5731 25.8945 54.6106 26.0726 54.6293 26.2507Z"/><path fill="#BC8D6D" d="M54.8169 48.282C54.8029 48.2961 54.7841 48.3148 54.7701 48.3289C54.6997 48.2258 54.7372 48.1086 54.7279 47.9961C54.7935 48.0805 54.7935 48.1883 54.8169 48.282Z"/><path fill="#FBFAFA" d="M54.9109 27.8913C54.8547 27.7741 54.8687 27.6476 54.8594 27.521C55.014 27.6335 55.0328 27.7554 54.9109 27.8913Z"/></svg>