<svg xmlns="http://www.w3.org/2000/svg" width="96" height="96" fill="none" viewBox="0 0 96 96"><circle cx="48" cy="48" r="48" fill="#fff"/><path fill="#F875AA" fill-rule="evenodd" d="M83.2054 40.9986C83.2054 31.6105 75.595 24 66.2067 24H29.7887C20.4006 24 12.79 31.6105 12.79 40.9986V55.4152C12.79 64.8035 20.4006 72.4138 29.7887 72.4138H66.2067C75.595 72.4138 83.2054 64.8035 83.2054 55.4152V40.9986Z" clip-rule="evenodd"/><path fill="#31326F" fill-rule="evenodd" d="M83.2054 40.9986C83.2054 31.6105 75.595 24 66.2067 24H29.7887C20.4006 24 12.79 31.6105 12.79 40.9986V55.4152C12.79 64.8035 20.4006 72.4138 29.7887 72.4138H66.2067C75.595 72.4138 83.2054 64.8035 83.2054 55.4152V40.9986ZM80.5517 40.9986V55.4152C80.5517 63.3377 74.129 69.7599 66.2067 69.7599H29.7887C21.8662 69.7599 15.4439 63.3377 15.4439 55.4152C15.4439 50.7412 15.4439 45.6726 15.4439 40.9986C15.4439 33.0762 21.8662 26.6538 29.7887 26.6538C40.8293 26.6538 55.1661 26.6538 66.2067 26.6538C74.129 26.6538 80.5517 33.0762 80.5517 40.9986Z" clip-rule="evenodd"/><path fill="#FBACCC" fill-rule="evenodd" d="M38.6992 26.5518H66.1552C73.9508 26.5518 80.2941 32.7702 80.4954 40.5175L80.4976 40.6875V55.5435C80.4663 57.5269 80.0325 59.4129 79.2746 61.123H39.9323C33.9344 61.123 29.0713 56.2601 29.0713 50.2616V37.3416C29.0713 31.7605 33.2804 27.1628 38.6992 26.5518Z" clip-rule="evenodd"/><path fill="#31326F" fill-rule="evenodd" d="M24.4433 58.8105C25.1262 58.8105 25.6805 59.3652 25.6805 60.0478V62.845C25.6805 63.5277 25.1262 64.0823 24.4433 64.0823C23.7604 64.0823 23.2061 63.5277 23.2061 62.845V60.0478C23.2061 59.3652 23.7604 58.8105 24.4433 58.8105ZM31.166 58.8105C31.8488 58.8105 32.4032 59.3652 32.4032 60.0478V62.845C32.4032 63.5277 31.8488 64.0823 31.166 64.0823C30.4831 64.0823 29.9287 63.5277 29.9287 62.845V60.0478C29.9287 59.3652 30.4831 58.8105 31.166 58.8105ZM39.1434 60.0478C39.1434 59.3652 38.589 58.8105 37.9062 58.8105C37.2233 58.8105 36.6689 59.3652 36.6689 60.0478V62.845C36.6689 63.5277 37.2233 64.0823 37.9062 64.0823C38.589 64.0823 39.1434 63.5277 39.1434 62.845V60.0478ZM44.6288 58.8105C45.3117 58.8105 45.8661 59.3652 45.8661 60.0478V62.845C45.8661 63.5277 45.3117 64.0823 44.6288 64.0823C43.946 64.0823 43.3916 63.5277 43.3916 62.845V60.0478C43.3916 59.3652 43.946 58.8105 44.6288 58.8105ZM52.6073 60.0478C52.6073 59.3652 52.0529 58.8105 51.3701 58.8105C50.6872 58.8105 50.1328 59.3652 50.1328 60.0478V62.845C50.1328 63.5277 50.6872 64.0823 51.3701 64.0823C52.0529 64.0823 52.6073 63.5277 52.6073 62.845V60.0478ZM58.0927 58.8105C58.7756 58.8105 59.33 59.3652 59.33 60.0478V62.845C59.33 63.5277 58.7756 64.0823 58.0927 64.0823C57.4099 64.0823 56.8555 63.5277 56.8555 62.845V60.0478C56.8555 59.3652 57.4099 58.8105 58.0927 58.8105ZM66.0519 60.0478C66.0519 59.3652 65.4975 58.8105 64.8146 58.8105C64.1318 58.8105 63.5774 59.3652 63.5774 60.0478V62.845C63.5774 63.5277 64.1318 64.0823 64.8146 64.0823C65.4975 64.0823 66.0519 63.5277 66.0519 62.845V60.0478ZM71.5556 58.8105C72.2385 58.8105 72.7928 59.3652 72.7928 60.0478V62.845C72.7928 63.5277 72.2385 64.0823 71.5556 64.0823C70.8728 64.0823 70.3184 63.5277 70.3184 62.845V60.0478C70.3184 59.3652 70.8728 58.8105 71.5556 58.8105Z" clip-rule="evenodd"/><path fill="#EBEBEB" fill-rule="evenodd" d="M38.002 33.784L40.9606 32.1164L42.6282 29.104L44.2958 32.1164L47.4158 33.784L44.2958 35.7206L42.6282 38.6792L40.9606 35.7206L38.002 33.784Z" clip-rule="evenodd"/><path fill="#EBEBEB" fill-rule="evenodd" d="M68.7759 35.2588L70.8369 34.0971L71.9986 31.9985L73.1603 34.0971L75.3338 35.2588L73.1603 36.6078L71.9986 38.6689L70.8369 36.6078L68.7759 35.2588Z" clip-rule="evenodd"/><path fill="#F875AA" fill-rule="evenodd" d="M87 48.2241C87 43.8271 83.436 40.2627 79.0386 40.2627C64.0765 40.2627 31.9235 40.2627 16.9614 40.2627C12.5641 40.2627 9 43.8271 9 48.2241C9 52.621 12.5641 56.1855 16.9614 56.1855C31.9235 56.1855 64.0765 56.1855 79.0386 56.1855C83.436 56.1855 87 52.621 87 48.2241Z" clip-rule="evenodd"/><path fill="#31326F" fill-rule="evenodd" d="M87 48.2241C87 43.8271 83.436 40.2627 79.0386 40.2627C64.0765 40.2627 31.9235 40.2627 16.9614 40.2627C12.5641 40.2627 9 43.8271 9 48.2241C9 52.621 12.5641 56.1855 16.9614 56.1855C31.9235 56.1855 64.0765 56.1855 79.0386 56.1855C83.436 56.1855 87 52.621 87 48.2241ZM84.3465 48.2241C84.3465 51.1554 81.9702 53.5317 79.0386 53.5317H16.9614C14.0298 53.5317 11.6535 51.1554 11.6535 48.2241C11.6535 45.2928 14.0298 42.9165 16.9614 42.9165C31.9235 42.9165 64.0765 42.9165 79.0386 42.9165C81.9702 42.9165 84.3465 45.2928 84.3465 48.2241Z" clip-rule="evenodd"/></svg>