<svg xmlns="http://www.w3.org/2000/svg" width="96" height="96" fill="none" viewBox="0 0 96 96"><path fill="#5269FF" fill-rule="evenodd" d="M48 96C74.5097 96 96 74.5097 96 48C96 21.4903 74.5097 0 48 0C21.4903 0 0 21.4903 0 48C0 74.5097 21.4903 96 48 96Z" clip-rule="evenodd"/><path fill="#FFFDFA" fill-rule="evenodd" d="M47.6843 79.6468L67.7404 68.0478L67.7903 47.6884L48.2329 36.2847L41.9285 39.6011L61.5565 50.9881L61.49 64.6608L47.676 72.6234L33.862 64.6359V31.3642L47.676 23.3767L54.2755 27.1377V38.0509L60.5342 41.6458V23.5263H60.53L47.6677 16.3491L27.6282 27.9232L27.6074 27.9107V68.0478L47.676 79.651H47.6843V79.6468ZM51.4598 46.6962L51.4578 46.695H51.462L51.4598 46.6962ZM51.4598 46.6962L46.9737 49.0888V44.1392L41.9285 41.1636V57.654L56.2911 49.4753L51.4598 46.6962Z" clip-rule="evenodd"/></svg>