<svg xmlns="http://www.w3.org/2000/svg" width="96" height="96" fill="none" viewBox="0 0 96 96"><circle cx="48" cy="48" r="48" fill="#fff"/><path fill="#3B218C" d="M28.2221 13.1688C38.4956 12.15 48.5747 15.7785 55.8634 23.1053C60.434 27.6998 63.4437 33.2776 64.8924 39.1671H73.1923C74.1907 39.1671 75 39.9807 75 40.9842C75 41.9878 74.1907 42.8014 73.1923 42.8014H65.5837C66.0089 45.9353 66.0065 49.1171 65.5766 52.2506H73.1923C74.1907 52.2506 75 53.0642 75 54.0678C75 55.0713 74.1907 55.8849 73.1923 55.8849H64.8796C63.426 61.7552 60.4205 67.3137 55.8634 71.8947C48.5747 79.2214 38.4956 82.85 28.2221 81.8312C28.0972 81.8172 28 81.7056 28 81.5799C28 81.54 28.0098 81.5015 28.0273 81.4671C28.0646 81.3933 28.1369 81.3383 28.2221 81.3288C35.9828 80.5612 43.2991 77.0862 48.8107 71.5318C53.1792 67.1405 56.2094 61.7566 57.6882 55.8849H34.1462C33.1478 55.8849 32.3385 55.0713 32.3385 54.0678C32.3385 53.0642 33.1478 52.2506 34.1462 52.2506H58.3955C58.6128 50.6853 58.7233 49.0942 58.7233 47.4861C58.7233 45.9053 58.6165 44.341 58.4065 42.8014H34.1462C33.1478 42.8014 32.3385 41.9878 32.3385 40.9842C32.3385 39.9807 33.1478 39.1671 34.1462 39.1671H57.7082C56.2369 33.2643 53.199 27.8514 48.8107 23.4401C43.2991 17.8858 35.9828 14.4108 28.2221 13.6433C28.0972 13.6573 28 13.5455 28 13.4201C28 13.2944 28.0972 13.1828 28.2221 13.1688Z"/></svg>