<svg xmlns="http://www.w3.org/2000/svg" width="97" height="96" fill="none" viewBox="0 0 97 96"><path fill="#17264E" d="M48.0361 94.952C73.9746 94.952 95.0019 73.9247 95.0019 47.9862C95.0019 22.0477 73.9746 1.02039 48.0361 1.02039C22.0976 1.02039 1.07031 22.0477 1.07031 47.9862C1.07031 73.9247 22.0976 94.952 48.0361 94.952Z"/><path fill="#D7A049" d="M72.8014 61.0307C72.8014 61.0031 72.7738 61.0031 72.7738 60.9755C72.6359 60.7549 72.6083 60.5343 72.6911 60.3688C72.6911 60.3412 72.6911 60.2861 72.7186 60.2585C72.498 59.6242 72.1946 59.0175 72.2222 58.3832C71.8086 57.9419 71.974 57.0594 72.7186 57.1146C72.7738 57.1146 72.8565 57.1422 72.9117 57.1422V27.9092H49.8562C49.8011 27.9919 49.7183 28.0747 49.6356 28.1298C49.5529 28.185 49.4701 28.2401 49.3874 28.2677C49.1944 28.378 48.9462 28.4332 48.7255 28.4607C48.5049 28.4607 48.2291 28.378 48.0085 28.2677C47.9533 28.2401 47.8982 28.2125 47.843 28.185C47.7327 28.1022 47.6224 28.0195 47.5397 27.9092H24.7324V62.6027C29.9171 64.5883 38.4664 67.1255 49.2771 67.0428C59.5914 66.96 67.7821 64.5607 72.8841 62.6027V61.2237C72.8565 61.141 72.8289 61.0859 72.8014 61.0307Z"/><path fill="#17264E" d="M24.7324 27.8816L51.4834 67.0152H54.517L27.573 27.8816H24.7324Z"/><path fill="#17264E" d="M47.4846 27.8816L73.16 61.6098V57.5007L50.4907 27.8816H47.4846Z"/><path fill="#17264E" d="M24.7324 27.9643L45.6368 25.2616L38.0252 40.9536L24.7324 27.9643Z"/><path fill="#17264E" d="M73.7944 26.1166L61.4394 43.5461L49.2773 26.1166H73.7944Z"/><path fill="#17264E" d="M45.6369 25.2616L36.7567 43.546L31.3789 33.3972L45.6369 25.2616Z"/><path fill="#D7A049" d="M37.4185 42.1947L45.6368 25.2616L72.8841 61.1685L37.4185 42.1947Z"/><path fill="#FCF8F0" d="M27.242 63.4576L36.2601 44.7595L26.2768 30.1982L24.7324 27.9644V62.5751L27.242 63.4576Z"/><path fill="#FCF8F0" d="M45.6368 25.2616L46.7951 55.8183L37.4185 42.1947L45.6368 25.2616Z"/><path fill="#D69751" d="M24.7324 64.7538V67.9804C30.0275 69.8558 38.3009 72.0896 48.5876 72.1172C59.095 72.1448 67.5339 69.8833 72.8841 67.9804C72.8841 66.9049 72.8841 65.8293 72.8841 64.7538C67.5615 66.6291 59.2053 68.8905 48.7531 68.8905C38.3561 68.8905 30.0275 66.6291 24.7324 64.7538Z"/><path fill="#D1AF65" d="M48.0363 96C21.5611 96 0.0500488 74.4614 0.0500488 48.0138C0.0500488 21.5386 21.5887 0 48.0363 0C74.5114 0 96.0225 21.5386 96.0225 47.9862C96.05 74.4614 74.5114 96 48.0363 96ZM48.0363 1.93048C22.6367 1.93048 1.98053 22.5866 1.98053 47.9862C1.98053 73.3858 22.6367 94.0419 48.0363 94.0419C73.4359 94.0419 94.092 73.3858 94.092 47.9862C94.092 22.5866 73.4359 1.93048 48.0363 1.93048Z"/><path fill="#17264E" d="M49.8011 24.7377L49.3599 28.2401L52.0901 30.1982V26.1166L49.8011 24.7377Z"/><path fill="#17264E" d="M54.5171 67.0152L35.1847 38.9406L34.9917 40.2367L53.5243 67.5392L54.5171 67.0152Z"/><path fill="#17264E" d="M72.498 27.9643V69.3869H73.7942L74.0976 27.8816L72.498 27.9643Z"/><path fill="#17264E" d="M73.7942 25.2616H72.498V29.7293H73.7942V25.2616Z"/><path fill="#17264E" d="M24.7324 26.1166V27.9643H26.3044L24.7324 26.1166Z"/></svg>