<svg xmlns="http://www.w3.org/2000/svg" width="96" height="96" fill="none" viewBox="0 0 96 96"><circle cx="48" cy="48" r="48" fill="#fff"/><path fill="#262262" d="M51.7071 45.4155C51.962 45.1606 52.0894 44.9057 52.0894 44.6508C52.0894 44.396 51.962 44.0136 51.7071 43.8862C51.3248 43.5038 50.5601 43.5038 50.1777 43.8862C49.9229 44.1411 49.7954 44.396 49.7954 44.6508C49.7954 44.9057 49.9229 45.2881 50.1777 45.4155C50.4326 45.6704 50.6875 45.7978 50.9424 45.7978C51.1973 45.7978 51.4522 45.6704 51.7071 45.4155Z"/><path fill="#262262" d="M37.5607 56.5032C37.1783 56.8855 37.1783 57.6502 37.5607 58.0325C37.8156 58.2874 38.0705 58.4148 38.3253 58.4148C38.9626 58.4148 39.4723 57.905 39.4723 57.2678C39.4723 57.0129 39.3449 56.6306 39.09 56.5032C38.7077 55.9934 37.943 55.9934 37.5607 56.5032Z"/><path fill="#262262" d="M54.1284 42.6118C54.3833 42.6118 54.7657 42.4843 54.8931 42.2294C55.148 41.9746 55.2754 41.7197 55.2754 41.4648C55.2754 41.2099 55.148 40.8276 54.8931 40.7001C54.5108 40.3178 53.7461 40.1903 53.3638 40.7001C53.1089 40.955 52.9814 41.2099 52.9814 41.4648C52.9814 41.7197 53.1089 42.102 53.3638 42.2294C53.4912 42.4843 53.7461 42.6118 54.1284 42.6118Z"/><path fill="#262262" d="M43.8052 50.131C43.5503 50.3859 43.4229 50.6408 43.4229 50.8957C43.4229 51.5329 43.9326 52.0427 44.5699 52.0427C45.2071 52.0427 45.7169 51.5329 45.7169 50.8957C45.7169 50.6408 45.5894 50.2585 45.3345 50.131C44.9522 49.7487 44.315 49.7487 43.8052 50.131Z"/><path fill="#262262" d="M28.0025 65.9341C27.7476 66.189 27.6201 66.4439 27.6201 66.6988C27.6201 67.336 28.1299 67.8457 28.7671 67.8457C29.022 67.8457 29.4043 67.7183 29.5318 67.4634C29.7867 67.336 29.7867 66.9536 29.9141 66.6988C29.9141 66.4439 29.7867 66.0615 29.5318 65.9341C29.1494 65.5518 28.5122 65.5518 28.0025 65.9341Z"/><path fill="#262262" d="M66.7453 29.9948C67.0002 29.9948 67.3825 29.8674 67.5099 29.6125C67.8923 29.2301 67.8923 28.4655 67.5099 28.0831C67.1276 27.7008 66.3629 27.7008 65.9806 28.0831C65.5983 28.4655 65.5983 29.2301 65.9806 29.6125C66.108 29.8674 66.3629 29.9948 66.7453 29.9948Z"/><path fill="#262262" d="M34.3745 59.5619C34.1196 59.8168 33.9922 60.0716 33.9922 60.3265C33.9922 60.5814 34.1196 60.9638 34.3745 61.0912C34.7569 61.4735 35.5215 61.4735 35.9038 61.0912C36.1587 60.8363 36.2862 60.5814 36.2862 60.3265C36.2862 59.6893 35.7764 59.1795 35.1392 59.1795C34.8843 59.307 34.6294 59.4344 34.3745 59.5619Z"/><path fill="#262262" d="M31.1885 62.748C30.9336 63.0029 30.8062 63.2578 30.8062 63.5127C30.8062 63.7675 30.9336 64.1499 31.1885 64.2773C31.4434 64.5322 31.6983 64.6597 31.9532 64.6597C32.208 64.6597 32.5904 64.5322 32.7178 64.2773C32.9727 64.0224 33.1002 63.7675 33.1002 63.5127C33.1002 63.2578 32.9727 62.8754 32.7178 62.748C32.3355 62.2382 31.6983 62.2382 31.1885 62.748Z"/><path fill="#262262" d="M40.6192 53.3171C40.3643 53.572 40.2368 53.8269 40.2368 54.0818C40.2368 54.3367 40.3643 54.5916 40.6192 54.8465C40.874 55.1013 41.1289 55.2288 41.3838 55.2288C41.6387 55.2288 42.021 55.1013 42.1485 54.8465C42.4034 54.5916 42.5308 54.3367 42.5308 54.0818C42.5308 53.8269 42.4034 53.4446 42.1485 53.3171C41.7662 52.8073 41.1289 52.8073 40.6192 53.3171Z"/><path fill="#262262" d="M58.0792 39.0433C58.4616 38.661 58.4616 37.8963 58.0792 37.514C57.6969 37.1317 56.9323 37.1317 56.5499 37.514C56.1676 37.8963 56.1676 38.661 56.5499 39.0433C56.8048 39.2982 57.0597 39.4257 57.3146 39.4257C57.5695 39.4257 57.8244 39.2982 58.0792 39.0433Z"/><path fill="#262262" d="M61.138 35.9846C61.3929 35.7297 61.5203 35.4749 61.5203 35.22C61.5203 34.9651 61.3929 34.5827 61.138 34.4553C60.7556 34.073 59.991 34.073 59.6087 34.4553C59.3538 34.7102 59.2263 34.9651 59.2263 35.22C59.2263 35.4749 59.3538 35.8572 59.4812 35.9846C59.7361 36.2395 59.991 36.367 60.2459 36.367C60.6282 36.2395 61.0105 36.1121 61.138 35.9846Z"/><path fill="#262262" d="M64.3243 32.926C64.5791 32.6711 64.7066 32.4162 64.7066 32.1613C64.5791 31.5241 64.0694 31.1418 63.4322 31.1418C62.9224 31.1418 62.54 31.6516 62.4126 32.1613C62.4126 32.4162 62.54 32.7986 62.7949 32.926C63.1773 33.3083 63.9419 33.3083 64.3243 32.926Z"/><path fill="#262262" d="M63.5596 64.6597C64.1968 64.6597 64.7066 64.1499 64.7066 63.5127C64.7066 63.2578 64.5791 62.8755 64.3243 62.7481C63.9419 62.3657 63.1773 62.3657 62.7949 62.7481C62.54 63.0029 62.4126 63.2578 62.4126 63.5127C62.4126 63.7676 62.54 64.15 62.7949 64.2774C62.9224 64.5323 63.3047 64.6597 63.5596 64.6597Z"/><path fill="#262262" d="M50.9424 52.0427C51.5796 52.0427 52.0894 51.5329 52.0894 50.8957C52.0894 50.6408 51.962 50.2585 51.7071 50.131C51.3248 49.7487 50.5601 49.7487 50.1777 50.131C49.9229 50.3859 49.7954 50.6408 49.7954 50.8957C49.7954 51.1506 49.9229 51.4055 50.1777 51.6604C50.3052 51.9152 50.6875 52.0427 50.9424 52.0427Z"/><path fill="#262262" d="M32.8453 31.2692C32.4629 30.8868 31.6983 30.8868 31.3159 31.2692C31.061 31.5241 31.061 31.7789 30.9336 32.0338C30.9336 32.2887 31.061 32.6711 31.3159 32.7985C31.5708 33.0534 31.8257 33.1808 32.0806 33.1808C32.3355 33.1808 32.7178 33.0534 32.8453 32.7985C33.1001 32.5436 33.1002 32.2887 33.1002 32.0338C33.1002 31.6515 32.9727 31.3966 32.8453 31.2692Z"/><path fill="#262262" d="M28.8947 29.9948C29.1496 29.9948 29.5319 29.8674 29.6593 29.6125C30.0417 29.2301 30.0417 28.4655 29.6593 28.0831C29.277 27.7008 28.5123 27.7008 28.13 28.0831C27.7477 28.4655 27.7477 29.2301 28.13 29.6125C28.2575 29.8674 28.5123 29.9948 28.8947 29.9948Z"/><path fill="#262262" d="M60.3733 61.4736C60.6282 61.4736 60.8831 61.3461 61.138 61.2187C61.3929 60.9638 61.5203 60.7089 61.5203 60.454C61.5203 60.1991 61.3929 59.8168 61.138 59.6894C60.7556 59.307 59.991 59.307 59.6087 59.6894C59.3538 59.9443 59.3538 60.1991 59.2263 60.454C59.2263 60.7089 59.3538 61.0912 59.6087 61.2187C59.8635 61.3461 60.1184 61.4736 60.3733 61.4736Z"/><path fill="#262262" d="M45.462 43.8862C45.0796 43.5038 44.315 43.5038 43.9326 43.8862C43.6777 44.1411 43.5503 44.396 43.5503 44.6508C43.5503 44.9057 43.6777 45.2881 43.9326 45.4155C44.1875 45.6704 44.4424 45.7978 44.6973 45.7978C44.9522 45.7978 45.3345 45.6704 45.462 45.4155C45.7168 45.1606 45.8443 44.9057 45.8443 44.6508C45.7169 44.2685 45.5894 44.0136 45.462 43.8862Z"/><path fill="#262262" d="M65.9807 65.934C65.7258 66.1889 65.5984 66.4438 65.5984 66.6987C65.5984 67.3359 66.1082 67.8457 66.7454 67.8457C67.0003 67.8457 67.3826 67.7183 67.51 67.4634C67.7649 67.2085 67.765 66.9536 67.765 66.6987C67.765 66.4438 67.6375 66.0615 67.51 65.934C67.1277 65.4243 66.3631 65.4243 65.9807 65.934Z"/><path fill="#262262" d="M35.9038 34.3279C35.5215 33.9455 34.7569 33.9455 34.3745 34.3279C34.1196 34.5827 33.9922 34.8376 33.9922 35.0925C33.9922 35.3474 34.1196 35.7297 34.2471 35.8572C34.502 36.1121 34.7569 36.2395 35.0117 36.2395C35.649 36.2395 36.1587 35.7297 36.1587 35.0925C36.2862 34.8376 36.1587 34.5827 35.9038 34.3279Z"/><path fill="#262262" d="M42.2764 40.7001C41.8941 40.3178 41.1294 40.1903 40.7471 40.7001C40.4922 40.955 40.3647 41.2099 40.3647 41.4648C40.3647 42.102 40.8745 42.6118 41.5117 42.6118C41.7666 42.6118 42.149 42.4843 42.2764 42.2294C42.5313 41.9746 42.6587 41.7197 42.6587 41.4648C42.5313 41.2099 42.4038 40.8276 42.2764 40.7001Z"/><path fill="#262262" d="M46.9917 46.9448C46.7368 47.1997 46.7368 47.4546 46.7368 47.7095C46.7368 47.9644 46.8643 48.3467 46.9917 48.4742C47.2466 48.7291 47.5015 48.7291 47.7564 48.7291C48.0113 48.7291 48.2662 48.6016 48.521 48.4742C48.7759 48.3467 48.9034 47.9644 49.0308 47.7095C49.0308 47.4546 48.9034 47.0723 48.6485 46.9448C48.3936 46.6899 48.1387 46.5625 47.8838 46.5625C47.5015 46.6899 47.2466 46.8174 46.9917 46.9448Z"/><path fill="#262262" d="M57.187 58.4148C57.8243 58.4148 58.334 57.905 58.334 57.2678C58.334 56.6306 57.8243 56.1208 57.187 56.1208C56.5498 56.1208 56.04 56.6306 56.04 57.2678C56.04 57.5227 56.1675 57.905 56.4224 58.0325C56.6773 58.2874 56.9322 58.4148 57.187 58.4148Z"/><path fill="#262262" d="M39.09 37.514C38.7077 37.1317 37.943 37.1317 37.5607 37.514C37.1783 37.8963 37.1783 38.661 37.5607 39.0433C37.8156 39.2982 38.0705 39.4257 38.3253 39.4257C38.5802 39.4257 38.9626 39.2982 39.09 39.0433C39.5998 38.661 39.5998 38.0238 39.09 37.514Z"/><path fill="#262262" d="M54.1284 55.2287C54.3833 55.2287 54.7657 55.1013 54.8931 54.8464C55.148 54.5915 55.148 54.3366 55.148 54.0818C55.148 53.8269 55.0205 53.4445 54.8931 53.3171C54.5108 52.9348 53.7461 52.9348 53.3638 53.3171C53.1089 53.572 52.9814 53.8269 52.9814 54.0818C52.9814 54.3366 53.1089 54.5915 53.3638 54.8464C53.4912 55.1013 53.7461 55.2287 54.1284 55.2287Z"/><path fill="#262262" d="M47.7563 68.3555C43.9329 68.3555 40.2371 67.2085 37.0509 65.0419L30.2964 71.7965C35.2667 75.7473 41.3841 77.9138 47.7563 77.7864C54.0011 77.7864 60.1184 75.6198 65.0887 71.7965L58.3342 65.0419C55.1481 67.2085 51.5796 68.3555 47.7563 68.3555Z"/><path fill="#262262" d="M47.7563 27.3184C51.5796 27.3184 55.148 28.338 58.3341 30.5045L65.0887 23.75C54.8931 15.5935 40.4919 15.5935 30.4238 23.75L37.1784 30.5045C40.237 28.4654 43.9329 27.3184 47.7563 27.3184Z"/><path fill="#262262" d="M71.8432 30.3771L65.0886 37.1317C67.2552 40.3178 68.4022 44.1411 68.2747 47.9645C68.2747 51.6603 67.1277 55.3562 65.0886 58.4149L71.8432 65.1695C75.794 60.1991 77.8331 54.2092 77.9605 47.837C77.9605 41.4648 75.794 35.3475 71.8432 30.3771Z"/><path fill="#262262" d="M27.2376 47.837C27.2376 44.0137 28.3846 40.3178 30.4238 37.2591L23.6692 30.5046C15.6402 40.7001 15.6402 54.9739 23.6692 65.1695L30.4238 58.4149C28.3846 55.2288 27.2376 51.5329 27.2376 47.837Z"/><path fill="#00AEEF" fill-rule="evenodd" d="M72.0983 28.4653C74.6471 28.4653 76.8137 26.2988 76.8137 23.7499C76.8137 21.201 74.6471 19.0345 72.0983 19.0345C69.5494 19.0345 67.3828 21.201 67.3828 23.7499C67.3828 26.2988 69.5494 28.4653 72.0983 28.4653Z" clip-rule="evenodd"/><path fill="#00AEEF" fill-rule="evenodd" d="M23.4147 18.9071C20.8658 18.9071 18.6992 20.9462 18.6992 23.6225C18.6992 26.1714 20.7383 28.338 23.4147 28.338C25.9636 28.338 28.1301 26.2989 28.1301 23.6225C28.1301 21.0736 25.9636 18.9071 23.4147 18.9071Z" clip-rule="evenodd"/><path fill="#00AEEF" fill-rule="evenodd" d="M72.0983 67.2085C69.5494 67.2085 67.3828 69.3751 67.3828 71.9239C67.3828 74.4728 69.5494 76.6394 72.0983 76.6394C74.6471 76.6394 76.8137 74.4728 76.8137 71.9239C76.8137 69.3751 74.7746 67.2085 72.0983 67.2085Z" clip-rule="evenodd"/><path fill="#00AEEF" d="M23.4142 76.5119C26.0185 76.5119 28.1296 74.4008 28.1296 71.7965C28.1296 69.1922 26.0185 67.0811 23.4142 67.0811C20.8099 67.0811 18.6987 69.1922 18.6987 71.7965C18.6987 74.4008 20.8099 76.5119 23.4142 76.5119Z"/></svg>