<svg xmlns="http://www.w3.org/2000/svg" width="96" height="96" fill="none" viewBox="0 0 96 96"><g clip-path="url(#clip0_1006_2460)"><path fill="#64AAF1" fill-opacity=".2" d="M48 96C74.5097 96 96 74.5097 96 48C96 21.4903 74.5097 0 48 0C21.4903 0 0 21.4903 0 48C0 74.5097 21.4903 96 48 96Z"/><path fill="#91C5FF" d="M48 91.2C71.8587 91.2 91.2 71.8587 91.2 48C91.2 24.1413 71.8587 4.80005 48 4.80005C24.1413 4.80005 4.8 24.1413 4.8 48C4.8 71.8587 24.1413 91.2 48 91.2Z"/><path fill="url(#paint0_linear_1006_2460)" d="M11.5725 40.8142C11.4076 43.6758 11.6249 46.5675 12.2432 49.4179L16.0689 53.2097L12.9177 51.9907C13.2924 53.2134 13.7458 54.4249 14.2778 55.6138L18.7481 59.0154L15.4132 57.9053C15.7617 58.5468 16.1326 59.1805 16.5298 59.8069C26.0062 74.659 45.7119 79.0095 60.5503 69.5245C63.8588 67.4091 66.6467 64.7839 68.8725 61.8171C47.8514 64.7313 26.1748 57.1628 11.5725 40.8142Z"/><path fill="url(#paint1_linear_1006_2460)" d="M84.3291 40.8142C84.494 43.6758 84.2767 46.5675 83.6584 49.4179L79.8326 53.2097L82.9839 51.9907C82.6091 53.2134 82.1558 54.4249 81.6236 55.6138L77.1535 59.0154L80.4883 57.9053C80.1398 58.5468 79.7689 59.1805 79.3716 59.8069C69.8955 74.659 50.1896 79.0095 35.3512 69.5245C32.0427 67.4091 29.2548 64.7839 27.029 61.8171C48.0576 64.7351 69.7306 57.1665 84.3327 40.818L84.3291 40.8142Z"/><path fill="url(#paint2_linear_1006_2460)" d="M47.9265 70.4469C36.614 70.4469 26.8005 64.041 21.9032 54.6572C24.8632 66.2838 35.3925 74.88 47.9265 74.88C60.4602 74.88 70.9933 66.2838 73.9498 54.6572C69.0486 64.041 59.2351 70.4469 47.9265 70.4469Z"/><path fill="url(#paint3_linear_1006_2460)" d="M47.9265 70.447C59.2387 70.447 69.0522 64.0411 73.9498 54.6573C74.4931 52.5271 74.7815 50.2991 74.7815 48.0001C74.7815 33.1556 62.7573 21.1201 47.9265 21.1201C33.0956 21.1201 21.0712 33.1556 21.0712 48.0001C21.0712 50.2991 21.3598 52.5271 21.9032 54.6573C26.8042 64.0411 36.6179 70.447 47.9265 70.447Z"/><path fill="#fff" stroke="#084E80" stroke-miterlimit="10" stroke-width=".57" d="M35.6922 57.1776C41.7039 57.1776 46.5775 52.2995 46.5775 46.2822C46.5775 40.2649 41.7039 35.387 35.6922 35.387C29.6805 35.387 24.807 40.2649 24.807 46.2822C24.807 52.2995 29.6805 57.1776 35.6922 57.1776Z"/><path fill="#1370A7" d="M38.3151 53.0634C41.5745 53.0634 44.2168 50.4186 44.2168 47.1563C44.2168 43.8939 41.5745 41.2493 38.3151 41.2493C35.0557 41.2493 32.4136 43.8939 32.4136 47.1563C32.4136 50.4186 35.0557 53.0634 38.3151 53.0634Z"/><path fill="#0B1A2B" d="M38.3151 50.9632C40.4156 50.9632 42.1185 49.2588 42.1185 47.1564C42.1185 45.054 40.4156 43.3496 38.3151 43.3496C36.2147 43.3496 34.512 45.054 34.512 47.1564C34.512 49.2588 36.2147 50.9632 38.3151 50.9632Z"/><path fill="#fff" d="M36.1644 45.3746C36.8308 45.3746 37.3709 44.8339 37.3709 44.1669C37.3709 43.4999 36.8308 42.9592 36.1644 42.9592C35.4981 42.9592 34.9578 43.4999 34.9578 44.1669C34.9578 44.8339 35.4981 45.3746 36.1644 45.3746Z"/><path fill="#fff" stroke="#084E80" stroke-miterlimit="10" stroke-width=".57" d="M59.842 57.1776C65.8539 57.1776 70.7272 52.2995 70.7272 46.2822C70.7272 40.2649 65.8539 35.387 59.842 35.387C53.8303 35.387 48.9569 40.2649 48.9569 46.2822C48.9569 52.2995 53.8303 57.1776 59.842 57.1776Z"/><path fill="#1370A7" d="M57.2191 53.0634C60.4785 53.0634 63.1208 50.4186 63.1208 47.1563C63.1208 43.8939 60.4785 41.2493 57.2191 41.2493C53.9597 41.2493 51.3176 43.8939 51.3176 47.1563C51.3176 50.4186 53.9597 53.0634 57.2191 53.0634Z"/><path fill="#0B1A2B" d="M57.2191 50.9632C59.3196 50.9632 61.0224 49.2588 61.0224 47.1564C61.0224 45.054 59.3196 43.3496 57.2191 43.3496C55.1186 43.3496 53.4159 45.054 53.4159 47.1564C53.4159 49.2588 55.1186 50.9632 57.2191 50.9632Z"/><path fill="#fff" d="M55.0646 45.3746C55.7309 45.3746 56.2712 44.8339 56.2712 44.1669C56.2712 43.4999 55.7309 42.9592 55.0646 42.9592C54.3982 42.9592 53.8579 43.4999 53.8579 44.1669C53.8579 44.8339 54.3982 45.3746 55.0646 45.3746Z"/><path fill="url(#paint4_linear_1006_2460)" d="M50.5419 55.4863L47.9451 51.6158C47.8589 51.4881 47.6753 51.4881 47.5891 51.6158L44.9925 55.4863L44.9324 55.5764L45.0111 55.6587L47.6116 58.423C47.6978 58.513 47.8403 58.513 47.9226 58.423L50.5231 55.6587L50.6018 55.5764L50.5419 55.4863Z"/></g><defs><linearGradient id="paint0_linear_1006_2460" x1="16.635" x2="62.952" y1="43.064" y2="76.928" gradientUnits="userSpaceOnUse"><stop stop-color="#69AEE6"/><stop offset=".17" stop-color="#1275C7"/><stop offset=".21" stop-color="#0F60A3"/><stop offset=".26" stop-color="#0C4C81"/><stop offset=".31" stop-color="#0A3D69"/><stop offset=".36" stop-color="#09355A"/><stop offset=".4" stop-color="#093255"/><stop offset=".48" stop-color="#0C3557"/><stop offset=".55" stop-color="#183E5F"/><stop offset=".63" stop-color="#2C4F6D"/><stop offset=".71" stop-color="#476680"/><stop offset=".78" stop-color="#6A8398"/><stop offset=".86" stop-color="#96A7B6"/><stop offset=".93" stop-color="#C8D1D9"/><stop offset="1" stop-color="#fff"/></linearGradient><linearGradient id="paint1_linear_1006_2460" x1="79.267" x2="32.946" y1="43.064" y2="76.928" gradientUnits="userSpaceOnUse"><stop stop-color="#69AEE6"/><stop offset=".17" stop-color="#1275C7"/><stop offset=".21" stop-color="#0F60A3"/><stop offset=".26" stop-color="#0C4C81"/><stop offset=".31" stop-color="#0A3D69"/><stop offset=".36" stop-color="#09355A"/><stop offset=".4" stop-color="#093255"/><stop offset=".48" stop-color="#0C3557"/><stop offset=".55" stop-color="#183E5F"/><stop offset=".63" stop-color="#2C4F6D"/><stop offset=".71" stop-color="#476680"/><stop offset=".78" stop-color="#6A8398"/><stop offset=".86" stop-color="#96A7B6"/><stop offset=".93" stop-color="#C8D1D9"/><stop offset="1" stop-color="#fff"/></linearGradient><linearGradient id="paint2_linear_1006_2460" x1="24.125" x2="71.578" y1="64.769" y2="64.769" gradientUnits="userSpaceOnUse"><stop stop-color="#083658"/><stop offset=".13" stop-color="#92C2EA"/><stop offset=".14" stop-color="#A9CEEE"/><stop offset=".17" stop-color="#C3DDF3"/><stop offset=".2" stop-color="#D9EAF7"/><stop offset=".23" stop-color="#EAF3FB"/><stop offset=".27" stop-color="#F6FAFD"/><stop offset=".33" stop-color="#FDFDFE"/><stop offset=".5" stop-color="#fff"/><stop offset=".66" stop-color="#FDFDFE"/><stop offset=".72" stop-color="#F6FAFD"/><stop offset=".77" stop-color="#EAF3FB"/><stop offset=".8" stop-color="#D9EAF7"/><stop offset=".83" stop-color="#C3DDF3"/><stop offset=".85" stop-color="#A8CEEE"/><stop offset=".88" stop-color="#87BCE7"/><stop offset=".9" stop-color="#62A7E0"/><stop offset=".92" stop-color="#3990D8"/><stop offset=".93" stop-color="#137BD1"/><stop offset="1" stop-color="#083658"/></linearGradient><linearGradient id="paint3_linear_1006_2460" x1="47.926" x2="47.926" y1="23.91" y2="77.671" gradientUnits="userSpaceOnUse"><stop offset=".01" stop-color="#050F1A"/><stop offset=".41" stop-color="#0B1A2B"/><stop offset=".52" stop-color="#0B1B2E"/><stop offset=".62" stop-color="#0B2138"/><stop offset=".7" stop-color="#0C2B48"/><stop offset=".78" stop-color="#0D3960"/><stop offset=".85" stop-color="#0F4B7F"/><stop offset=".93" stop-color="#1060A3"/><stop offset="1" stop-color="#137BD1"/></linearGradient><linearGradient id="paint4_linear_1006_2460" x1="47.765" x2="47.765" y1="51.518" y2="58.49" gradientUnits="userSpaceOnUse"><stop stop-color="#E1E1E1"/><stop offset="1" stop-color="#908A89"/></linearGradient><clipPath id="clip0_1006_2460"><rect width="96" height="96" fill="#fff"/></clipPath></defs></svg>