<svg width="96" height="96" viewBox="0 0 96 96" fill="none" xmlns="http://www.w3.org/2000/svg">
<path d="M48 96C74.5097 96 96 74.5097 96 48C96 21.4903 74.5097 0 48 0C21.4903 0 0 21.4903 0 48C0 74.5097 21.4903 96 48 96Z" fill="url(#paint0_radial_2011_1222)"/>
<path d="M54.8574 61.7139H41.1431V95.02H54.8574V61.7139Z" fill="url(#paint1_linear_2011_1222)"/>
<path fill-rule="evenodd" clip-rule="evenodd" d="M25.7316 18.6128L31.0385 18.6123C31.3484 18.6123 31.6457 18.7353 31.8649 18.9543C32.084 19.1733 32.2072 19.4704 32.2072 19.78V32.5633L38.1104 38.4131C38.5687 38.8671 38.5717 39.6065 38.1172 40.0645C37.6627 40.5224 36.9229 40.5254 36.4646 40.0713L30.2306 33.8939L23.4131 27.6097V32.743C23.4131 33.3879 22.8898 33.9107 22.2444 33.9107H15.8625C15.2171 33.9107 14.6938 33.3879 14.6938 32.743C14.6938 32.098 15.2171 31.5752 15.8625 31.5752H21.0757V24.9439C21.0757 24.48 21.3504 24.0603 21.7755 23.8742C22.2007 23.6882 22.6957 23.7711 23.0367 24.0855L29.8698 30.3839V20.9479L25.7317 20.9482C25.0863 20.9484 24.563 20.4256 24.563 19.7807C24.5629 19.1357 25.0861 18.6129 25.7316 18.6128ZM64.1352 18.9543C64.3543 18.7353 64.6516 18.6123 64.9616 18.6123L70.2683 18.6128C70.9138 18.6129 71.437 19.1357 71.437 19.7807C71.4368 20.4256 70.9136 20.9484 70.2682 20.9482L66.1301 20.9479V30.3839L72.9632 24.0855C73.3043 23.7711 73.7994 23.6882 74.2244 23.8742C74.6495 24.0603 74.9242 24.48 74.9242 24.9439V31.5752H80.1374C80.7829 31.5752 81.3061 32.098 81.3061 32.743C81.3061 33.3879 80.7829 33.9107 80.1374 33.9107H73.7556C73.1102 33.9107 72.587 33.3879 72.587 32.743V27.6097L65.7694 33.8939L59.5354 40.0713C59.0772 40.5254 58.3372 40.5224 57.8827 40.0645C57.4282 39.6065 57.4314 38.8671 57.8897 38.4131L63.7927 32.5633V19.78C63.7927 19.4704 63.916 19.1733 64.1352 18.9543ZM38.1172 55.9358C38.5717 56.3938 38.5687 57.133 38.1104 57.5872L32.2072 63.437V76.2201C32.2072 76.5299 32.084 76.8269 31.8649 77.0459C31.6457 77.2649 31.3484 77.388 31.0385 77.3878L25.7316 77.3875C25.0861 77.3873 24.5629 76.8646 24.563 76.2196C24.563 75.5747 25.0863 75.0519 25.7317 75.0519L29.8698 75.0524V65.6164L23.0367 71.9146C22.6957 72.2292 22.2007 72.3121 21.7755 72.126C21.3504 71.94 21.0757 71.5202 21.0757 71.0564V64.425H15.8625C15.2171 64.425 14.6938 63.9023 14.6938 63.2573C14.6938 62.6124 15.2171 62.0896 15.8625 62.0896H22.2444C22.8898 62.0896 23.4131 62.6124 23.4131 63.2573V68.3906L30.2306 62.1064L36.4646 55.9289C36.9229 55.4749 37.6627 55.4779 38.1172 55.9358ZM57.8827 55.9358C58.3372 55.4779 59.0772 55.4749 59.5354 55.9289L65.7692 62.1064L72.587 68.3906V63.2573C72.587 62.6124 73.1102 62.0896 73.7556 62.0896H80.1374C80.7829 62.0896 81.3061 62.6124 81.3061 63.2573C81.3061 63.9023 80.7829 64.425 80.1374 64.425H74.9242V71.0564C74.9242 71.5202 74.6495 71.94 74.2244 72.126C73.7994 72.3121 73.3043 72.2292 72.9632 71.9146L66.1301 65.6164V75.0524L70.2682 75.0519C70.9136 75.0519 71.4368 75.5747 71.437 76.2196C71.437 76.8646 70.9138 77.3873 70.2683 77.3875L64.9616 77.3878C64.6516 77.388 64.3543 77.2649 64.1352 77.0459C63.916 76.8269 63.7927 76.5299 63.7927 76.2201V63.437L57.8897 57.5872C57.4314 57.133 57.4282 56.3938 57.8827 55.9358Z" fill="white"/>
<path d="M48.0001 63.6731C56.6564 63.6731 63.6736 56.6559 63.6736 47.9996C63.6736 39.3434 56.6564 32.3262 48.0001 32.3262C39.3439 32.3262 32.3267 39.3434 32.3267 47.9996C32.3267 56.6559 39.3439 63.6731 48.0001 63.6731Z" fill="#AF70FF"/>
<path d="M48.0001 63.6731C56.6564 63.6731 63.6736 56.6559 63.6736 47.9996C63.6736 39.3434 56.6564 32.3262 48.0001 32.3262C39.3439 32.3262 32.3267 39.3434 32.3267 47.9996C32.3267 56.6559 39.3439 63.6731 48.0001 63.6731Z" fill="url(#paint2_radial_2011_1222)"/>
<path d="M48 96C74.5097 96 96 74.5097 96 48C96 21.4903 74.5097 0 48 0C21.4903 0 0 21.4903 0 48C0 74.5097 21.4903 96 48 96Z" fill="url(#paint3_radial_2011_1222)"/>
<defs>
<radialGradient id="paint0_radial_2011_1222" cx="0" cy="0" r="1" gradientUnits="userSpaceOnUse" gradientTransform="translate(27.4286 27.4286) rotate(45) scale(90.7406)">
<stop stop-color="white"/>
<stop offset="0.433964" stop-color="#D662FF"/>
<stop offset="0.69897" stop-color="#5316A0"/>
<stop offset="0.948688" stop-color="#491C6E"/>
</radialGradient>
<linearGradient id="paint1_linear_2011_1222" x1="48.0001" y1="53.8772" x2="48.0001" y2="82.2854" gradientUnits="userSpaceOnUse">
<stop stop-color="#250074"/>
<stop offset="1" stop-color="#9B70FF" stop-opacity="0"/>
</linearGradient>
<radialGradient id="paint2_radial_2011_1222" cx="0" cy="0" r="1" gradientUnits="userSpaceOnUse" gradientTransform="translate(48.0001 47.9996) rotate(90) scale(32.7384)">
<stop offset="0.135323" stop-color="white" stop-opacity="0"/>
<stop offset="0.252677" stop-color="white"/>
<stop offset="0.359832" stop-color="white" stop-opacity="0"/>
<stop offset="0.502036" stop-color="white"/>
<stop offset="0.640129" stop-color="white" stop-opacity="0"/>
<stop offset="0.752213" stop-color="white" stop-opacity="0.6"/>
<stop offset="0.865309" stop-color="white" stop-opacity="0"/>
<stop offset="0.999983" stop-color="white" stop-opacity="0.6"/>
</radialGradient>
<radialGradient id="paint3_radial_2011_1222" cx="0" cy="0" r="1" gradientUnits="userSpaceOnUse" gradientTransform="translate(44.0817 44.0817) rotate(45) scale(73.4237)">
<stop offset="0.40403" stop-color="#C31AFF" stop-opacity="0"/>
<stop offset="0.707846" stop-color="#4B0A81"/>
</radialGradient>
</defs>
</svg>
