<svg xmlns="http://www.w3.org/2000/svg" width="96" height="96" fill="none" viewBox="0 0 96 96"><circle cx="48" cy="48" r="48" fill="#fff"/><path fill="url(#paint0_linear_1488_eternal)" d="M49.2523 14L38.0476 23.6142L21.0669 56.3748L23.9368 63.9347L37.5824 80.4691L45.9957 82L60.0499 79.7902L70.2267 73.3933L71.5439 65.1748L69.3341 45.2472L49.2523 14Z"/><path fill="url(#paint1_linear_1488_eternal)" d="M66.5053 46.1405L53.1766 27.1753L47.9341 31.1748L49.5624 55.7154L52.3159 59.6698L66.5053 46.1405Z"/><path fill="url(#paint2_linear_1488_eternal)" d="M69.3336 45.2478L66.5045 46.1405L61.813 33.6172L69.3336 45.2478Z"/><path fill="url(#paint3_linear_1488_eternal)" d="M48.4471 55.2489L42.9429 57.575L31.4475 47.0304L39.1819 28.6147L46.483 31.4061L48.4471 55.2489Z"/><path fill="url(#paint4_linear_1488_eternal)" d="M48.4471 55.2489L42.9429 57.575L31.4475 47.0304L39.1819 28.6147L46.483 31.4061L48.4471 55.2489Z" opacity=".8"/><path fill="#fff" d="M66.5053 46.1398L61.3486 32.9187L49.2527 14L52.6634 26.4448L66.5053 46.1398Z"/><path fill="url(#paint5_linear_1488_eternal)" d="M52.6632 26.4448H51.8491L47.2753 30.0692L39.4043 27.4523L38.0479 23.6142L49.2525 14L52.6632 26.4448Z"/><path fill="url(#paint6_linear_1488_eternal)" d="M37.3495 24.6616L38.5911 27.6478L29.8681 46.6828L21.2222 56.0265L37.3495 24.6616Z"/><path fill="url(#paint7_linear_1488_eternal)" d="M29.9063 48.2705L22.0759 56.0252L40.1805 76.533L41.4991 58.4284L29.9063 48.2705Z"/><path fill="url(#paint8_linear_1488_eternal)" d="M41.1484 76.5331L59.6034 72.5016L48.8261 56.0254L43.0108 58.5841L41.1484 76.5331Z"/><path fill="url(#paint9_linear_1488_eternal)" d="M60.2245 72.2301L67.7844 62.5767L66.5051 46.1396L52.3157 59.669L60.2245 72.2301Z"/><path fill="url(#paint10_linear_1488_eternal)" d="M70.2267 73.3936H60.5718L40.6849 77.5428L37.8921 80.4112L45.9957 82.0002L60.0499 79.7904L70.2267 73.3936Z"/><path fill="url(#paint11_linear_1488_eternal)" d="M70.2267 73.3937L68.2495 62.5772L66.5049 46.1402L69.334 45.2476L71.5439 65.1752L70.2267 73.3937Z"/><path fill="url(#paint12_linear_1488_eternal)" d="M67.7843 63.9346L61.2319 72.4249L69.4126 72.7739L67.7843 63.9346Z"/><path fill="#B80088" d="M37.341 79.9306L39.8809 76.9808L21 56.3945L23.8684 63.6448L37.341 79.9306Z"/><path fill="url(#paint13_linear_1488_eternal)" d="M49.2523 14L38.0476 23.6142L21.0669 56.3748L23.9368 63.9347L37.5824 80.4691L45.9957 82L60.0499 79.7902L70.2267 73.3933L71.5439 65.1748L69.3341 45.2472L49.2523 14Z"/><path fill="url(#paint14_linear_1488_eternal)" d="M49.2523 14L38.0476 23.6142L21.0669 56.3748L23.9368 63.9347L37.5824 80.4691L45.9957 82L60.0499 79.7902L70.2267 73.3933L71.5439 65.1748L69.3341 45.2472L49.2523 14Z"/><path style="mix-blend-mode:multiply" fill="url(#paint15_linear_1488_eternal)" d="M60.2245 72.2301L67.7844 62.5767L66.5051 46.1396L52.3157 59.669L60.2245 72.2301Z"/><path style="mix-blend-mode:multiply" fill="url(#paint16_linear_1488_eternal)" d="M37.3495 24.6616L38.5911 27.6478L29.8681 46.6828L21.2222 56.0265L37.3495 24.6616Z" opacity=".32"/><path fill="url(#paint17_linear_1488_eternal)" d="M70.2267 73.3936H60.5718L40.6849 77.5428L37.8921 80.4112L45.9957 82.0002L60.0499 79.7904L70.2267 73.3936Z"/><path fill="url(#paint18_linear_1488_eternal)" d="M70.2267 73.3936H60.5718L40.6849 77.5428L37.8921 80.4112L45.9957 82.0002L60.0499 79.7904L70.2267 73.3936Z"/><path style="mix-blend-mode:multiply" fill="url(#paint19_linear_1488_eternal)" d="M49.2523 14L38.0476 23.6142L21.0669 56.3748L23.9368 63.9347L37.5824 80.4691L45.9957 82L60.0499 79.7902L70.2267 73.3933L71.5439 65.1748L69.3341 45.2472L49.2523 14Z" opacity=".32"/><path style="mix-blend-mode:color-dodge" fill="url(#paint20_radial_1488_eternal)" d="M49.2523 14L38.0476 23.6142L21.0669 56.3748L23.9368 63.9347L37.5824 80.4691L45.9957 82L60.0499 79.7902L70.2267 73.3933L71.5439 65.1748L69.3341 45.2472L49.2523 14Z" opacity=".32"/><path style="mix-blend-mode:color-dodge" fill="url(#paint21_radial_1488_eternal)" d="M49.2523 14L38.0476 23.6142L21.0669 56.3748L23.9368 63.9347L37.5824 80.4691L45.9957 82L60.0499 79.7902L70.2267 73.3933L71.5439 65.1748L69.3341 45.2472L49.2523 14Z" opacity=".32"/><path style="mix-blend-mode:color-dodge" fill="url(#paint22_radial_1488_eternal)" d="M49.2523 14L38.0476 23.6142L21.0669 56.3748L23.9368 63.9347L37.5824 80.4691L45.9957 82L60.0499 79.7902L70.2267 73.3933L71.5439 65.1748L69.3341 45.2472L49.2523 14Z" opacity=".32"/><path style="mix-blend-mode:color-dodge" fill="url(#paint23_radial_1488_eternal)" d="M49.2523 14L38.0476 23.6142L21.0669 56.3748L23.9368 63.9347L37.5824 80.4691L45.9957 82L60.0499 79.7902L70.2267 73.3933L71.5439 65.1748L69.3341 45.2472L49.2523 14Z" opacity=".32"/><path stroke="#000" stroke-miterlimit="10" stroke-width="3" d="M49.2523 14L38.0476 23.6142L21.0669 56.3748L23.9368 63.9347L37.5824 80.4691L45.9957 82L60.0499 79.7902L70.2267 73.3933L71.5439 65.1748L69.3341 45.2472L49.2523 14Z"/><defs><linearGradient id="paint0_linear_1488_eternal" x1="44.584" x2="46.91" y1="75.231" y2="55.691" gradientUnits="userSpaceOnUse"><stop stop-color="#F372E3"/><stop offset=".29" stop-color="#EB9CED"/><stop offset=".6" stop-color="#E4C2F6"/><stop offset=".85" stop-color="#E0D9FC"/><stop offset="1" stop-color="#DEE2FE"/></linearGradient><linearGradient id="paint1_linear_1488_eternal" x1="37.858" x2="57.455" y1="23.852" y2="49.614" gradientUnits="userSpaceOnUse"><stop stop-color="#777AF7"/><stop offset=".54" stop-color="#787CF7"/><stop offset=".74" stop-color="#7A83F8"/><stop offset=".87" stop-color="#7F8EF9"/><stop offset=".99" stop-color="#869FFB"/><stop offset="1" stop-color="#87A2FB"/></linearGradient><linearGradient id="paint2_linear_1488_eternal" x1="64.216" x2="66.542" y1="40.078" y2="38.973" gradientUnits="userSpaceOnUse"><stop stop-color="#7CA4FB"/><stop offset=".35" stop-color="#9BBFFC"/><stop offset=".6" stop-color="#ACCEFC"/><stop offset=".72" stop-color="#B3D3FC"/><stop offset=".89" stop-color="#C8E1FE"/><stop offset="1" stop-color="#D9ECFF"/></linearGradient><linearGradient id="paint3_linear_1488_eternal" x1="40.011" x2="39.662" y1="54.768" y2="34.414" gradientUnits="userSpaceOnUse"><stop offset=".33" stop-color="#7C38EF"/><stop offset="1" stop-color="#7E69EA"/></linearGradient><linearGradient id="paint4_linear_1488_eternal" x1="46.072" x2="38.628" y1="32.578" y2="55.141" gradientUnits="userSpaceOnUse"><stop offset=".01" stop-color="#7862EB"/><stop offset=".04" stop-color="#745DEC"/><stop offset=".18" stop-color="#614BEE"/><stop offset=".34" stop-color="#5740F0"/><stop offset=".51" stop-color="#533CF0"/><stop offset="1" stop-color="#7E69EA"/></linearGradient><linearGradient id="paint5_linear_1488_eternal" x1="49.809" x2="44.11" y1="27.997" y2="20.438" gradientUnits="userSpaceOnUse"><stop stop-color="#ADB2FB"/><stop offset=".52" stop-color="#AFB4FB"/><stop offset=".71" stop-color="#B4BBFC"/><stop offset=".84" stop-color="#BEC6FD"/><stop offset=".95" stop-color="#CBD7FE"/><stop offset="1" stop-color="#D5E3FF"/></linearGradient><linearGradient id="paint6_linear_1488_eternal" x1="38.388" x2="27.455" y1="26.521" y2="47.456" gradientUnits="userSpaceOnUse"><stop stop-color="#ADB2FB"/><stop offset=".45" stop-color="#AFB2FB"/><stop offset=".63" stop-color="#B6B2FC"/><stop offset=".77" stop-color="#C2B2FC"/><stop offset=".88" stop-color="#D4B1FD"/><stop offset=".97" stop-color="#EAB1FF"/><stop offset="1" stop-color="#F2B1FF"/></linearGradient><linearGradient id="paint7_linear_1488_eternal" x1="22.076" x2="41.499" y1="62.402" y2="62.402" gradientUnits="userSpaceOnUse"><stop stop-color="#C913A5"/><stop offset=".07" stop-color="#CA0FAE"/><stop offset=".32" stop-color="#CB04CA"/><stop offset=".47" stop-color="#CC00D4"/><stop offset=".58" stop-color="#C100CA"/><stop offset=".79" stop-color="#A200B0"/><stop offset="1" stop-color="#7C0090"/></linearGradient><linearGradient id="paint8_linear_1488_eternal" x1="50.289" x2="51.219" y1="76.151" y2="58.705" gradientUnits="userSpaceOnUse"><stop stop-color="#A700AA"/><stop offset="1" stop-color="#5300C8"/></linearGradient><linearGradient id="paint9_linear_1488_eternal" x1="56.924" x2="64.135" y1="69.843" y2="49.722" gradientUnits="userSpaceOnUse"><stop stop-color="#BCABFE"/><stop offset=".37" stop-color="#98A6FD"/><stop offset=".6" stop-color="#87A4FC"/><stop offset=".67" stop-color="#819DFB"/><stop offset=".77" stop-color="#7288F9"/><stop offset=".89" stop-color="#5966F5"/><stop offset="1" stop-color="#3E42F1"/></linearGradient><linearGradient id="paint10_linear_1488_eternal" x1="39.858" x2="68.702" y1="79.974" y2="75.205" gradientUnits="userSpaceOnUse"><stop stop-color="#8D009A"/><stop offset=".01" stop-color="#8D009A"/><stop offset=".6" stop-color="#7C0090"/><stop offset=".71" stop-color="#7A0097"/><stop offset=".86" stop-color="#7600AC"/><stop offset="1" stop-color="#7100C3"/></linearGradient><linearGradient id="paint11_linear_1488_eternal" x1="68.386" x2="70.014" y1="50.17" y2="64.941" gradientUnits="userSpaceOnUse"><stop stop-color="#3E42F1"/><stop offset=".01" stop-color="#3F44F1"/><stop offset=".19" stop-color="#5864F5"/><stop offset=".38" stop-color="#6C7EF7"/><stop offset=".57" stop-color="#7A90F9"/><stop offset=".77" stop-color="#829AFB"/><stop offset="1" stop-color="#859EFB"/></linearGradient><linearGradient id="paint12_linear_1488_eternal" x1="2917.85" x2="2411.39" y1="3711.64" y2="3332.81" gradientUnits="userSpaceOnUse"><stop stop-color="#A700AA"/><stop offset="1" stop-color="#5300C8"/></linearGradient><linearGradient id="paint13_linear_1488_eternal" x1="29.611" x2="66.248" y1="48.8" y2="47.172" gradientUnits="userSpaceOnUse"><stop stop-color="#C711A5" stop-opacity=".3"/><stop offset=".22" stop-color="#C711A5" stop-opacity=".29"/><stop offset=".3" stop-color="#C812A6" stop-opacity=".26"/><stop offset=".36" stop-color="#CA14A8" stop-opacity=".2"/><stop offset=".41" stop-color="#CC17AB" stop-opacity=".11"/><stop offset=".45" stop-color="#CF1AAF" stop-opacity="0"/></linearGradient><linearGradient id="paint14_linear_1488_eternal" x1="49.667" x2="44.549" y1="79.533" y2="46.618" gradientUnits="userSpaceOnUse"><stop stop-color="#C711A5" stop-opacity=".1"/><stop offset=".21" stop-color="#C812A6" stop-opacity=".09"/><stop offset=".29" stop-color="#CA15A9" stop-opacity=".06"/><stop offset=".34" stop-color="#CF1AAF" stop-opacity="0"/></linearGradient><linearGradient id="paint15_linear_1488_eternal" x1="56.924" x2="64.135" y1="69.843" y2="49.722" gradientUnits="userSpaceOnUse"><stop stop-color="#606060" stop-opacity="0"/><stop offset=".14" stop-color="#5C457D" stop-opacity=".11"/><stop offset=".33" stop-color="#58279E" stop-opacity=".24"/><stop offset=".54" stop-color="#5511B5" stop-opacity=".33"/><stop offset=".76" stop-color="#5404C3" stop-opacity=".38"/><stop offset="1" stop-color="#5300C8" stop-opacity=".4"/></linearGradient><linearGradient id="paint16_linear_1488_eternal" x1="31.748" x2="29.771" y1="41.647" y2="40.6" gradientUnits="userSpaceOnUse"><stop stop-color="#5100C8"/><stop offset=".33" stop-color="#5202C8"/><stop offset=".47" stop-color="#5409C9"/><stop offset=".57" stop-color="#5815C9"/><stop offset=".65" stop-color="#5F27CA"/><stop offset=".73" stop-color="#673ECC"/><stop offset=".79" stop-color="#705ACD"/><stop offset=".85" stop-color="#7C7BCF"/><stop offset=".9" stop-color="#8AA2D2"/><stop offset=".95" stop-color="#99CDD4"/><stop offset="1" stop-color="#AAFFD7"/></linearGradient><linearGradient id="paint17_linear_1488_eternal" x1="55.299" x2="49.251" y1="78.691" y2="69.968" gradientUnits="userSpaceOnUse"><stop stop-color="#510094" stop-opacity=".5"/><stop offset="1" stop-color="#7100C3" stop-opacity="0"/></linearGradient><linearGradient id="paint18_linear_1488_eternal" x1="62.667" x2="54.06" y1="93.186" y2="76.903" gradientUnits="userSpaceOnUse"><stop stop-color="#9C20B6"/><stop offset=".39" stop-color="#9B20B6" stop-opacity=".99"/><stop offset=".53" stop-color="#981EB4" stop-opacity=".95"/><stop offset=".62" stop-color="#941CB2" stop-opacity=".89"/><stop offset=".7" stop-color="#8D19AF" stop-opacity=".79"/><stop offset=".77" stop-color="#8416AB" stop-opacity=".67"/><stop offset=".83" stop-color="#7811A6" stop-opacity=".52"/><stop offset=".89" stop-color="#6B0BA0" stop-opacity=".35"/><stop offset=".94" stop-color="#5C0599" stop-opacity=".15"/><stop offset=".97" stop-color="#510094" stop-opacity="0"/></linearGradient><linearGradient id="paint19_linear_1488_eternal" x1="63.336" x2="45.192" y1="103.473" y2="50.786" gradientUnits="userSpaceOnUse"><stop stop-color="#510094"/><stop offset=".16" stop-color="#520095" stop-opacity=".97"/><stop offset=".32" stop-color="#509" stop-opacity=".89"/><stop offset=".49" stop-color="#5900A0" stop-opacity=".75"/><stop offset=".66" stop-color="#5F00A9" stop-opacity=".55"/><stop offset=".83" stop-color="#6800B5" stop-opacity=".3"/><stop offset="1" stop-color="#7100C3" stop-opacity="0"/></linearGradient><radialGradient id="paint20_radial_1488_eternal" cx="0" cy="0" r="1" gradientTransform="translate(53.246 25.5143) scale(52.9587)" gradientUnits="userSpaceOnUse"><stop stop-color="#fff"/><stop offset=".05" stop-color="#fff" stop-opacity=".81"/><stop offset=".11" stop-color="#fff" stop-opacity=".62"/><stop offset=".17" stop-color="#fff" stop-opacity=".45"/><stop offset=".24" stop-color="#fff" stop-opacity=".31"/><stop offset=".3" stop-color="#fff" stop-opacity=".2"/><stop offset=".37" stop-color="#fff" stop-opacity=".11"/><stop offset=".45" stop-color="#fff" stop-opacity=".05"/><stop offset=".54" stop-color="#fff" stop-opacity=".01"/><stop offset=".66" stop-color="#fff" stop-opacity="0"/></radialGradient><radialGradient id="paint21_radial_1488_eternal" cx="0" cy="0" r="1" gradientTransform="translate(10116.5 20013.5) scale(7985.96 10758.3)" gradientUnits="userSpaceOnUse"><stop stop-color="#fff"/><stop offset=".05" stop-color="#fff" stop-opacity=".81"/><stop offset=".11" stop-color="#fff" stop-opacity=".62"/><stop offset=".17" stop-color="#fff" stop-opacity=".45"/><stop offset=".24" stop-color="#fff" stop-opacity=".31"/><stop offset=".3" stop-color="#fff" stop-opacity=".2"/><stop offset=".37" stop-color="#fff" stop-opacity=".11"/><stop offset=".45" stop-color="#fff" stop-opacity=".05"/><stop offset=".54" stop-color="#fff" stop-opacity=".01"/><stop offset=".66" stop-color="#fff" stop-opacity="0"/></radialGradient><radialGradient id="paint22_radial_1488_eternal" cx="0" cy="0" r="1" gradientTransform="translate(59.5265 76.4565) scale(18.1147)" gradientUnits="userSpaceOnUse"><stop offset=".02" stop-color="#fff"/><stop offset=".08" stop-color="#fff" stop-opacity=".81"/><stop offset=".15" stop-color="#fff" stop-opacity=".62"/><stop offset=".22" stop-color="#fff" stop-opacity=".45"/><stop offset=".3" stop-color="#fff" stop-opacity=".31"/><stop offset=".38" stop-color="#fff" stop-opacity=".2"/><stop offset=".47" stop-color="#fff" stop-opacity=".11"/><stop offset=".56" stop-color="#fff" stop-opacity=".05"/><stop offset=".66" stop-color="#fff" stop-opacity=".01"/><stop offset=".81" stop-color="#fff" stop-opacity="0"/></radialGradient><radialGradient id="paint23_radial_1488_eternal" cx="0" cy="0" r="1" gradientTransform="translate(9551.12 8698.28) scale(4010.4 5402.6)" gradientUnits="userSpaceOnUse"><stop offset=".02" stop-color="#fff"/><stop offset=".08" stop-color="#fff" stop-opacity=".81"/><stop offset=".15" stop-color="#fff" stop-opacity=".62"/><stop offset=".22" stop-color="#fff" stop-opacity=".45"/><stop offset=".3" stop-color="#fff" stop-opacity=".31"/><stop offset=".38" stop-color="#fff" stop-opacity=".2"/><stop offset=".47" stop-color="#fff" stop-opacity=".11"/><stop offset=".56" stop-color="#fff" stop-opacity=".05"/><stop offset=".66" stop-color="#fff" stop-opacity=".01"/><stop offset=".81" stop-color="#fff" stop-opacity="0"/></radialGradient></defs></svg>