<svg xmlns="http://www.w3.org/2000/svg" width="96" height="96" fill="none" viewBox="0 0 96 96"><path fill="#fff" d="M48.0036 95.5418C74.2581 95.5418 95.5416 74.2583 95.5416 48.0038C95.5416 21.7493 74.2581 0.46582 48.0036 0.46582C21.7491 0.46582 0.465576 21.7493 0.465576 48.0038C0.465576 74.2583 21.7491 95.5418 48.0036 95.5418Z"/><path fill="#000" d="M69.8322 34.0849L54.5381 25.3623H41.0994L26.1676 34.0849C25.0167 34.7519 24.0609 35.709 23.3955 36.8608C22.7301 38.0126 22.3784 39.3188 22.3755 40.649V61.4871C22.3784 62.8172 22.7301 64.1234 23.3955 65.2752C24.0609 66.427 25.0167 67.3841 26.1676 68.0512L44.2115 78.4665C45.3652 79.13 46.6727 79.4792 48.0036 79.4792C49.3344 79.4792 50.642 79.13 51.7957 78.4665L69.8396 68.0881C70.9904 67.4211 71.9462 66.4639 72.6116 65.3121C73.277 64.1604 73.6287 62.8542 73.6317 61.524V40.6638C73.6291 39.3306 73.2768 38.0215 72.6101 36.8671C71.9434 35.7127 70.9855 34.7534 69.8322 34.0849Z"/><path fill="#F39" d="M67.3041 40.5971C67.8701 39.7183 68.1467 38.6843 68.095 37.6403C68.2451 35.868 67.7985 34.0963 66.8261 32.6069C65.8537 31.1176 64.4114 29.996 62.7284 29.4204C63.645 26.7223 64.2068 18.7242 57.1992 17.9628C56.2397 17.8476 55.267 17.9991 54.388 18.4008C53.5091 18.8024 52.7579 19.4387 52.217 20.2395C52.217 20.2395 55.8686 20.927 54.9446 22.9155C54.4494 23.9873 52.4683 25.7318 43.5536 23.0633C32.0959 19.6482 31.9111 32.0002 31.9111 32.0002C27.9195 33.6708 27.5203 39.6509 28.4886 40.8706L44.9654 50.3546C45.8479 50.8667 46.8501 51.1364 47.8705 51.1364C48.8908 51.1364 49.893 50.8667 50.7755 50.3546L67.3041 40.5971Z"/><path fill="#fff" d="M57.9089 23.8247C58.0272 18.3842 52.2244 20.21 52.217 20.21C52.2097 20.21 55.6322 20.0918 55.8243 22.3537C55.9648 24.0243 53.3702 26.9885 44.4554 24.3274C32.9978 20.9049 33.2122 31.5568 33.2122 31.5568C37.8839 30.0784 38.5196 30.034 45.2538 29.8862C50.5169 29.7605 57.7832 29.2726 57.9089 23.8247Z"/><path fill="#fff" d="M31.8667 52.9787L40.8259 58.1531C41.3973 58.4985 41.8805 58.9723 42.2372 59.5368C42.5938 60.1013 42.8142 60.7411 42.8808 61.4056C42.8808 62.5365 41.9568 62.9283 40.8259 62.2778L31.8667 57.1034C31.2951 56.76 30.8116 56.2878 30.4548 55.7244C30.098 55.1609 29.8778 54.5219 29.8118 53.8583C29.8118 52.72 30.7358 52.3282 31.8667 52.9787Z"/><path fill="#fff" d="M34.2913 60.9103V51.9586C34.2913 50.8276 35.2153 50.4359 36.3462 51.0864C36.9191 51.431 37.4037 51.9044 37.7617 52.4689C38.1197 53.0335 38.3412 53.6737 38.4086 54.3388V63.2906C38.4086 64.4215 37.4772 64.8133 36.3462 64.1554C35.7746 63.812 35.2911 63.3398 34.9343 62.7763C34.5775 62.2129 34.3573 61.574 34.2913 60.9103Z"/><path fill="#999" d="M58.7627 64.2771C59.9996 62.6328 60.2485 60.7328 59.3186 60.0334C58.3888 59.334 56.6324 60.1 55.3955 61.7444C54.1587 63.3887 53.9098 65.2887 54.8396 65.9881C55.7695 66.6875 57.5259 65.9215 58.7627 64.2771Z"/><path fill="#999" d="M64.3611 54.3865C65.598 52.7422 65.8469 50.8422 64.917 50.1428C63.9872 49.4434 62.2308 50.2094 60.9939 51.8537C59.7571 53.4981 59.5082 55.398 60.438 56.0974C61.3678 56.7969 63.1243 56.0308 64.3611 54.3865Z"/></svg>