<svg xmlns="http://www.w3.org/2000/svg" width="96" height="96" fill="none" viewBox="0 0 96 96"><path fill="url(#paint0_linear)" d="M48 96C21.4944 96 0 74.5056 0 48C0 21.4944 21.4944 0 48 0C74.5056 0 96 21.4944 96 48C96 74.5056 74.5056 96 48 96Z"/><path fill="#fff" d="M80.6016 45.4079C80.6016 39.6863 75.9552 35.0399 70.2336 35.0399C67.872 35.0399 65.568 35.8559 63.7344 37.3343C62.2464 38.5343 62.016 40.7039 63.216 42.1919C64.416 43.6799 66.5856 43.9103 68.0736 42.7103C68.5056 42.3647 69.2352 41.9519 70.2432 41.9519C72.1536 41.9519 73.6992 43.4975 73.6992 45.4079C73.6992 47.3183 72.1536 48.8639 70.2432 48.8639C68.3328 48.8639 66.7872 50.4095 66.7872 52.3199C66.7872 54.2303 68.3328 55.7759 70.2432 55.7759C72.1536 55.7759 73.6992 57.3215 73.6992 59.2319C73.6992 61.1423 72.1536 62.6879 70.2432 62.6879C70.1856 62.6879 70.128 62.6879 70.08 62.6879C70.0224 62.6879 69.9648 62.6879 69.9168 62.6879H37.0272C37.0176 62.6879 37.0176 62.6879 37.008 62.6879C36.9984 62.6879 36.9984 62.6879 36.9888 62.6879C28.8864 62.6879 22.3008 56.1023 22.3008 47.9999C22.3008 39.8975 28.8864 33.3119 36.9888 33.3119C45.0912 33.3119 51.6768 39.8975 51.6768 47.9999C51.6768 50.4479 51.0624 52.8671 49.9104 54.9983C48.9984 56.6783 49.6224 58.7711 51.2928 59.6831C51.8208 59.9711 52.3776 60.1055 52.944 60.1055C54.1728 60.1055 55.3536 59.4527 55.9872 58.3007C57.696 55.1615 58.5984 51.5999 58.5984 47.9999C58.5984 42.2303 56.352 36.8063 52.272 32.7263C48.192 28.6463 42.768 26.3999 36.9984 26.3999C31.2288 26.3999 25.8048 28.6463 21.7248 32.7263C17.6448 36.8063 15.3984 42.2303 15.3984 47.9999C15.3984 53.7695 17.6448 59.1935 21.7248 63.2735C25.8048 67.3535 31.2288 69.5999 36.9984 69.5999C37.008 69.5999 37.008 69.5999 37.0176 69.5999C37.0272 69.5999 37.0272 69.5999 37.0368 69.5999H69.9264C69.984 69.5999 70.0416 69.5999 70.0896 69.5999C70.1472 69.5999 70.2048 69.5999 70.2528 69.5999C75.9744 69.5999 80.6208 64.9535 80.6208 59.2319C80.6208 56.5823 79.6224 54.1535 77.9712 52.3199C79.6032 50.4863 80.6016 48.0575 80.6016 45.4079Z"/><defs><linearGradient id="paint0_linear" x1="72.001" x2="23.992" y1="89.577" y2="6.424" gradientUnits="userSpaceOnUse"><stop stop-color="#00AF92"/><stop offset="1" stop-color="#46B069"/></linearGradient></defs></svg>