<svg xmlns="http://www.w3.org/2000/svg" width="96" height="96" fill="none" viewBox="0 0 96 96"><path fill="url(#paint0_linear)" d="M48 0C74.5097 0 96 21.4903 96 48C96 74.5097 74.5097 96 48 96C21.4903 96 0 74.5097 0 48C0 21.4903 21.4903 0 48 0Z"/><path fill="#fff" d="M44.6776 48.0422C44.5221 48.0422 44.3665 48.0293 44.2109 48.0033C44.8851 46.5771 45.5334 45.1898 46.1557 43.8414C46.778 42.467 47.3227 41.2094 47.7894 40.0685C48.2561 38.9275 48.6322 37.9162 48.9174 37.0345C49.2027 36.1529 49.3453 35.4657 49.3453 34.973C49.3453 34.4803 49.2675 34.0784 49.1119 33.7672C48.9563 33.4301 48.7748 33.1837 48.5673 33.0282C48.3599 32.8466 48.1265 32.73 47.8672 32.6781C47.6078 32.6003 47.3875 32.5614 47.2059 32.5614C46.5317 32.5614 45.7668 32.9504 44.911 33.7283C44.0812 34.4803 43.1866 35.4916 42.2272 36.7622C41.2937 38.0329 40.3212 39.498 39.3099 41.1575C38.3246 42.7912 37.3392 44.4897 36.3538 46.253L24.8793 67.2571C24.5941 67.8017 24.3736 68.3852 24.2181 69.0075C24.0625 69.6298 23.9847 70.2392 23.9847 70.8357C23.9847 71.2505 24.0365 71.6913 24.1403 72.1581C24.2699 72.6249 24.4774 73.0527 24.7626 73.4417C25.0479 73.8307 25.4498 74.1548 25.9684 74.4141C26.487 74.6735 27.1612 74.8031 27.991 74.8031C29.0023 74.8031 29.9359 74.44 30.7916 73.7139C31.6473 72.9879 32.4512 72.0414 33.2032 70.8745C33.9552 69.6817 34.6423 68.3462 35.2647 66.8682C35.887 65.3642 36.4834 63.8472 37.0539 62.3173C37.6244 60.7874 38.156 59.3093 38.6487 57.883C39.1414 56.4309 39.6211 55.1733 40.0878 54.1101C40.9176 56.807 41.8642 59.3741 42.9273 61.8116C43.9905 64.2232 45.1703 66.3366 46.4669 68.1518C47.7634 69.9669 49.2027 71.4062 50.7844 72.4693C52.3662 73.5325 54.0907 74.064 55.9577 74.064C58.2396 74.064 60.6512 73.4936 63.1924 72.3526C65.7596 71.1857 68.3786 69.3446 71.0495 66.8293C71.9571 65.9735 72.5924 65.1567 72.9554 64.3788C73.3445 63.575 73.5389 62.8748 73.5389 62.2784C73.5389 61.656 73.3574 61.1633 72.9944 60.8004C72.6313 60.4373 72.1905 60.2557 71.6719 60.2557C70.842 60.2557 70.0252 60.7096 69.2214 61.6172C68.3657 62.7581 67.3543 63.7564 66.1874 64.6122C65.2021 65.3642 63.9704 66.0513 62.4923 66.6737C61.0142 67.296 59.3287 67.6072 57.4358 67.6072H56.8911C56.7097 67.6072 56.5152 67.5942 56.3077 67.5684C55.2705 67.4906 54.2851 66.9719 53.3516 66.0125C52.4181 65.053 51.5624 63.8991 50.7844 62.5506C50.0324 61.1763 49.3841 59.7372 48.8396 58.2331C48.3209 56.7032 47.945 55.3289 47.7116 54.1101C49.3712 53.8249 51.0826 53.3581 52.8459 52.7098C54.6352 52.0616 56.3726 51.2706 58.0581 50.3371C59.7436 49.4036 61.3254 48.3404 62.8035 47.1476C64.3074 45.9289 65.6169 44.6064 66.732 43.1802C67.847 41.728 68.7287 40.1851 69.3769 38.5514C70.0512 36.8919 70.3883 35.1545 70.3883 33.3393C70.3883 30.6425 69.8308 28.2828 68.7157 26.2602C67.6267 24.2375 66.1486 22.565 64.2816 21.2425C62.4145 19.8941 60.2622 18.8828 57.8247 18.2086C55.4131 17.5344 52.8848 17.1973 50.2399 17.1973C47.543 17.1973 44.9888 17.4825 42.5773 18.053C40.1656 18.5975 37.9356 19.3366 35.887 20.2701C33.8644 21.1777 32.0363 22.2409 30.4026 23.4596C28.769 24.6524 27.3816 25.8971 26.2407 27.1937C25.1256 28.4903 24.257 29.7868 23.6346 31.0833C23.0382 32.3799 22.74 33.5857 22.74 34.7008C22.74 35.8936 23.0641 36.8271 23.7124 37.5012C24.3607 38.1495 25.3331 38.4737 26.6296 38.4737C27.5891 38.4737 28.393 38.2533 29.0412 37.8124C29.6895 37.3716 30.273 36.8012 30.7916 36.101C31.3362 35.4009 31.8547 34.597 32.3474 33.6894C32.8401 32.7818 33.3847 31.8483 33.9811 30.8888C34.6035 29.9294 35.3295 28.9959 36.1593 28.0883C37.015 27.1807 38.0522 26.3769 39.271 25.6767C40.5157 24.9766 41.9808 24.4061 43.6663 23.9653C45.3778 23.5244 47.4134 23.304 49.7731 23.304C51.8735 23.304 53.6758 23.5504 55.1797 24.0431C56.7097 24.5357 57.9543 25.197 58.9138 26.0268C59.8992 26.8566 60.6123 27.829 61.0531 28.944C61.5199 30.0591 61.7533 31.2389 61.7533 32.4836C61.7533 34.221 61.3124 36.0103 60.4308 37.8513C59.575 39.6924 58.3952 41.365 56.8911 42.869C55.3872 44.373 53.6238 45.6177 51.6012 46.6031C49.6046 47.5625 47.4782 48.0422 45.2222 48.0422H44.6776Z"/><defs><linearGradient id="paint0_linear" x1="166.276" x2="166.276" y1="96" y2="0" gradientUnits="userSpaceOnUse"><stop stop-color="#9E00F6"/><stop offset="1" stop-color="#EB627B"/></linearGradient></defs></svg>