<svg xmlns="http://www.w3.org/2000/svg" width="96" height="96" fill="none" viewBox="0 0 96 96"><circle cx="48" cy="48" r="48" fill="#fff"/><path fill="#4A9629" d="M54.7163 26.2406C54.7163 33.6781 47.7097 34.0771 47.7097 34.0771C47.7097 34.0771 40.7031 33.6781 40.7031 26.2566C40.7031 20.048 45.587 14.031 47.199 12.2274C47.4703 11.9242 47.9491 11.9242 48.2045 12.2274C49.8165 14.031 54.7163 20.032 54.7163 26.2406Z"/><path fill="#4A9629" d="M54.7163 26.3365H40.7031V63.9869H54.7163V26.3365Z"/><path fill="#8BC10F" d="M40.735 24.1339C45.986 29.3849 41.3256 34.6198 41.3256 34.6198C41.3256 34.6198 36.0906 39.2962 30.8396 34.0453C26.4505 29.6562 25.6525 21.9473 25.5089 19.5214C25.4929 19.1224 25.8121 18.7872 26.2271 18.8032C28.6211 18.9628 36.3459 19.7448 40.735 24.1339Z"/><path fill="#8BC10F" d="M40.7961 24.2038L30.8916 34.1167L49.9948 53.2037L59.8993 43.2908L40.7961 24.2038Z"/><path fill="#8BC10F" d="M64.5798 34.141C59.3288 39.3919 54.0938 34.7315 54.0938 34.7315C54.0938 34.7315 49.4175 29.4965 54.6684 24.2456C59.0575 19.8565 66.7663 19.0585 69.1923 18.9148C69.5913 18.8989 69.9265 19.2181 69.9105 19.633C69.7669 22.043 68.9689 29.7519 64.5798 34.141Z"/><path fill="#8BC10F" d="M64.5198 34.2083L54.6069 24.3038L32.79 46.1393L42.7029 56.0438L64.5198 34.2083Z"/><path fill="#870C85" d="M64.8992 31.1245H30.5526C29.9461 31.1245 29.3715 31.4437 29.0523 31.9703L20.9604 45.3451C20.6412 45.8558 20.6253 46.4942 20.8966 47.0369L39.5063 83.9372C39.8096 84.5277 40.4001 84.8948 41.0704 84.8948H54.3814C55.0357 84.8948 55.6422 84.5277 55.9455 83.9372L74.5552 47.0369C74.8265 46.4942 74.7946 45.8558 74.4914 45.3451L66.3835 31.9703C66.0803 31.4596 65.5057 31.1245 64.8992 31.1245Z"/></svg>