<svg xmlns="http://www.w3.org/2000/svg" width="96" height="96" fill="none" viewBox="0 0 96 96"><path fill="#FFFDFA" d="M96 48C96 74.5234 74.5234 96 48 96C21.4766 96 0 74.5234 0 48C0 21.4766 21.4766 0 48 0C74.5234 0 96 21.4766 96 48Z"/><path fill="#1F90C0" d="M27.7207 28.9526L19.8708 21.0344V47.9971C19.8708 54.8913 22.533 61.7856 27.789 67.1098C38.301 77.6219 55.4343 77.6219 65.9463 67.1098L27.7207 28.9526Z"/><path fill="#1F90C0" d="M68.2671 67.1096L76.1853 75.0277V47.9968C76.1853 41.1025 73.5232 34.2083 68.2671 28.884C57.7551 18.372 40.6219 18.372 30.1099 28.884L68.2671 67.1096Z"/></svg>