<svg xmlns="http://www.w3.org/2000/svg" width="97" height="97" fill="none" viewBox="0 0 97 97"><path fill="#31D0AA" d="M96.6667 48.6666C96.6667 75.1763 75.1764 96.6666 48.6667 96.6666C22.157 96.6666 0.666687 75.1763 0.666687 48.6666C0.666687 22.157 22.157 0.666626 48.6667 0.666626C75.1764 0.666626 96.6667 22.157 96.6667 48.6666Z"/><path fill="#000" d="M73.1541 39.0031L70.3978 27.5318C69.8203 25.1693 67.7728 23.5418 65.3841 23.5418H59.5828H54.3066H49.7916H44.5416H40.0266H34.7241H28.9228C26.5603 23.5418 24.4866 25.1956 23.9353 27.5318L21.1791 39.0031C20.5491 41.6806 21.1266 44.4106 22.8066 46.5631C23.0166 46.8518 23.3053 47.0618 23.5416 47.3243V65.5418C23.5416 68.4293 25.9041 70.7918 28.7916 70.7918H65.5416C68.4291 70.7918 70.7916 68.4293 70.7916 65.5418V47.3243C71.0278 47.0881 71.3166 46.8518 71.5266 46.5893C73.2066 44.4368 73.8103 41.6806 73.1541 39.0031ZM34.0941 28.7918L32.5716 41.5493C32.3616 43.2556 30.9966 44.5418 29.3953 44.5418C28.1091 44.5418 27.2953 43.7806 26.9541 43.3081C26.2716 42.4418 26.0353 41.3131 26.2978 40.2368L28.9228 28.7918H34.0941ZM65.3053 28.7656L68.0616 40.2368C68.3241 41.3393 68.0878 42.4418 67.4053 43.3081C67.0378 43.7806 66.2503 44.5418 64.9378 44.5418C63.3366 44.5418 61.9453 43.2556 61.7616 41.5493L60.2391 28.7918L65.3053 28.7656ZM56.3803 40.6568C56.5116 41.6806 56.1966 42.7043 55.5141 43.4656C54.9103 44.1481 54.0703 44.5418 52.9941 44.5418C51.2353 44.5418 49.7916 42.9931 49.7916 41.1031V28.7918H54.9366L56.3803 40.6568ZM44.5416 41.1031C44.5416 42.9931 43.0978 44.5418 41.1553 44.5418C40.2628 44.5418 39.4491 44.1481 38.8191 43.4656C38.1628 42.7043 37.8478 41.6806 37.9528 40.6568L39.3966 28.7918H44.5416V41.1031ZM62.9166 65.5418H31.4166C29.9728 65.5418 28.7916 64.3606 28.7916 62.9168V49.7131C29.0016 49.7393 29.1853 49.7918 29.3953 49.7918C31.6791 49.7918 33.7528 48.8468 35.2753 47.2981C36.8503 48.8731 38.9503 49.7918 41.3391 49.7918C43.6228 49.7918 45.6703 48.8468 47.1928 47.3506C48.7416 48.8468 50.8416 49.7918 53.2041 49.7918C55.4091 49.7918 57.5091 48.8731 59.0841 47.2981C60.6066 48.8468 62.6803 49.7918 64.9641 49.7918C65.1741 49.7918 65.3578 49.7393 65.5678 49.7131V62.9168C65.5416 64.3606 64.3603 65.5418 62.9166 65.5418Z"/></svg>