<svg xmlns="http://www.w3.org/2000/svg" width="96" height="96" fill="none" viewBox="0 0 96 96"><circle cx="48" cy="48" r="48" fill="#31D0AA"/><path fill="#17252A" d="M48 28.5005V34.318C48 35.7805 49.755 36.4955 50.7625 35.4555L59.83 26.388C60.48 25.738 60.48 24.7305 59.83 24.0805L50.7625 15.013C49.755 14.0055 48 14.7205 48 16.183V22.0005C33.635 22.0005 22 33.6355 22 48.0005C22 51.3805 22.65 54.6305 23.8525 57.588C24.73 59.7655 27.525 60.3505 29.1825 58.693C30.06 57.8155 30.4175 56.483 29.93 55.313C28.9875 53.0705 28.5 50.568 28.5 48.0005C28.5 37.243 37.2425 28.5005 48 28.5005ZM66.8175 37.308C65.94 38.1855 65.5825 39.5505 66.07 40.688C66.98 42.963 67.5 45.433 67.5 48.0005C67.5 58.758 58.7575 67.5005 48 67.5005V61.683C48 60.2205 46.245 59.5055 45.2375 60.5455L36.17 69.613C35.52 70.263 35.52 71.2705 36.17 71.9205L45.2375 80.988C46.245 81.9955 48 81.2805 48 79.8505V74.0005C62.365 74.0005 74 62.3655 74 48.0005C74 44.6205 73.35 41.3705 72.1475 38.413C71.27 36.2355 68.475 35.6505 66.8175 37.308Z"/></svg>