<svg width="80" height="80" viewBox="0 0 80 80" fill="none" xmlns="http://www.w3.org/2000/svg">
<path d="M78.8094 49.6654C73.4887 71.1244 51.7332 84.1298 30.3325 78.8094C8.93171 73.489 -4.13343 51.7345 1.18721 30.3346C6.50784 8.87562 28.2042 -4.12981 49.6641 1.1906C71.124 6.57012 84.13 28.2656 78.8094 49.6654Z" fill="#F7941D"/>
<path d="M57.3312 34.0541C58.0998 28.7337 54.0798 25.8961 48.5227 23.9453L50.2962 16.7332L45.9215 15.61L44.1479 22.6448C42.9655 22.3492 41.7832 22.1127 40.6599 21.8172L42.4335 14.7233L38.0587 13.6001L36.2852 20.8122C35.3393 20.5757 34.3934 20.3984 33.5066 20.1619L27.4766 18.6249L26.2942 23.2951C26.2942 23.2951 29.5457 24.0636 29.4866 24.0636C31.2601 24.5365 31.6148 25.6597 31.5557 26.6055L29.4866 34.8226C29.6048 34.8817 29.7822 34.8817 29.9596 34.9408C29.8413 34.8817 29.6639 34.8817 29.4866 34.8226L26.5898 46.3502C26.3533 46.8822 25.8213 47.7098 24.5798 47.4142C24.6389 47.4734 21.3874 46.6457 21.3874 46.6457L19.2 51.6706L24.9345 53.0893C25.9986 53.3849 27.0627 53.6214 28.0677 53.917L26.2351 61.1882L30.6098 62.3114L32.3834 55.0993C33.5658 55.454 34.7481 55.7495 35.8714 55.986L34.0978 63.139L38.4726 64.2622L40.3052 56.991C47.8132 58.4097 53.4294 57.8186 55.7942 51.0794C57.6859 45.6408 55.676 42.5076 51.7742 40.4386C54.6118 39.8474 56.74 37.9557 57.3312 34.0541ZM47.2811 48.1236C45.9214 53.5623 36.7582 50.6065 33.7431 49.8971L36.167 40.2613C39.182 40.9706 48.7 42.4485 47.2811 48.1236ZM48.6409 33.995C47.3994 38.9607 39.7732 36.4187 37.2902 35.8276L39.4776 27.0785C41.9605 27.6696 49.9415 28.7928 48.6409 33.995Z" fill="#FFFDFA"/>
</svg>
