<svg width="12" height="13" viewBox="0 0 12 13" fill="none" xmlns="http://www.w3.org/2000/svg">
<mask id="mask0_2359_39264" style="mask-type:alpha" maskUnits="userSpaceOnUse" x="0" y="0" width="12" height="13">
<rect y="0.5" width="12" height="12" fill="#D9D9D9"/>
</mask>
<g mask="url(#mask0_2359_39264)">
<path d="M2.25781 7.69994C2.25781 6.94632 2.47448 6.1657 2.90781 5.35809C3.34115 4.55048 3.96433 3.78907 4.77738 3.07385C5.0839 2.8148 5.38771 2.73835 5.6888 2.8445C5.98989 2.95066 6.14044 3.18961 6.14044 3.56135V3.78744C6.14044 3.9974 6.21427 4.17634 6.36194 4.32425C6.5096 4.47217 6.69283 4.54613 6.91163 4.54613C7.03083 4.54613 7.13109 4.52895 7.21241 4.49459C7.29374 4.46023 7.3605 4.40821 7.41271 4.33853C7.51431 4.21654 7.64189 4.14447 7.79544 4.1223C7.94898 4.10015 8.081 4.13363 8.19151 4.22277C8.66145 4.61769 9.03917 5.12784 9.32468 5.7532C9.61018 6.37856 9.74877 7.0234 9.74044 7.68772C9.7321 8.35366 9.57585 8.96195 9.27169 9.51258C8.96752 10.0632 8.53808 10.5123 7.98338 10.8597C8.13228 10.6503 8.24441 10.4268 8.31978 10.189C8.39514 9.95132 8.43283 9.70813 8.43283 9.45949C8.43283 9.15493 8.38032 8.8626 8.2753 8.58248C8.17028 8.30237 8.01337 8.04956 7.80455 7.82404L5.99913 5.82112L4.19695 7.8233C3.99115 8.04577 3.83445 8.29836 3.72684 8.58107C3.61923 8.86378 3.56542 9.15657 3.56542 9.45944C3.56542 9.71507 3.60519 9.96407 3.68472 10.2064C3.76426 10.4488 3.88264 10.6749 4.03988 10.8847C3.48517 10.5456 3.04948 10.0944 2.73281 9.53124C2.41615 8.96805 2.25781 8.35762 2.25781 7.69994ZM5.99913 7.63038L6.89903 8.66155C7.00235 8.77374 7.07965 8.89792 7.13091 9.0341C7.18218 9.17029 7.20781 9.31144 7.20781 9.45755C7.20781 9.79343 7.09014 10.0788 6.8548 10.3138C6.61945 10.5488 6.33367 10.6662 5.99746 10.6662C5.66125 10.6662 5.37603 10.5488 5.14179 10.3138C4.90755 10.0788 4.79044 9.79343 4.79044 9.45755C4.79044 9.30501 4.81597 9.16179 4.86704 9.02788C4.9181 8.89396 4.9951 8.77251 5.09804 8.66353L5.99913 7.63038Z" fill="#201C29"/>
</g>
</svg>
