<svg xmlns="http://www.w3.org/2000/svg" width="42" height="42" fill="none" viewBox="0 0 42 42"><g clip-path="url(#clip0_618_4078)"><path fill="#FFAF00" fill-rule="evenodd" d="M38.922 8.56496C39.3734 9.58791 39.317 10.5737 38.8066 11.4578C38.2961 12.342 37.4706 12.8837 36.359 13.0042C35.2141 13.1283 33.7068 12.8053 31.9502 11.7911C30.1936 10.7769 29.1602 9.6331 28.6953 8.57953C28.2438 7.55658 28.3002 6.57081 28.8106 5.68667C29.3211 4.80253 30.1466 4.26079 31.2582 4.14031C32.4031 4.01622 33.9104 4.33922 35.667 5.3534C37.4236 6.36758 38.457 7.5114 38.922 8.56496ZM40.8919 7.69552C40.1898 6.10467 38.7662 4.65628 36.7437 3.48858C34.7211 2.32087 32.755 1.81217 31.0262 1.99954C29.2642 2.19052 27.8157 3.1034 26.9458 4.61002C26.076 6.11664 26.0096 7.8275 26.7253 9.44898C27.4274 11.0398 28.851 12.4882 30.8735 13.6559C32.8961 14.8236 34.8622 15.3323 36.591 15.145C38.3531 14.954 39.8015 14.0411 40.6714 12.5345C41.5412 11.0279 41.6076 9.31699 40.8919 7.69552Z" clip-rule="evenodd"/><path fill="#EB8C00" d="M34.3051 10.9079C34.5429 10.496 34.4018 9.96917 33.9898 9.73133L32.7141 8.99483C32.3022 8.75698 31.7754 8.89813 31.5375 9.3101L29.5456 12.7602C29.3078 13.1722 29.4489 13.699 29.8609 13.9368L31.1365 14.6733C31.5485 14.9111 32.0753 14.77 32.3131 14.358L34.3051 10.9079Z"/><path fill="#FFAF00" d="M37.4955 9.46944C37.7333 9.05747 37.5922 8.5307 37.1802 8.29285L32.3649 5.5127C31.9529 5.27486 31.4261 5.416 31.1883 5.82797L30.1218 7.67522C29.8839 8.08719 30.0251 8.61397 30.437 8.85181L35.2524 11.632C35.6643 11.8698 36.1911 11.7287 36.429 11.3167L37.4955 9.46944Z"/><path fill="#FFD800" d="M37.4955 9.46944C37.7333 9.05747 37.5922 8.5307 37.1802 8.29285L33.4779 6.15532C33.0659 5.91747 32.5392 6.05862 32.3013 6.47058L31.449 7.94682C31.2112 8.35879 31.3523 8.88557 31.7643 9.12341L35.4666 11.2609C35.8786 11.4988 36.4053 11.3576 36.6432 10.9457L37.4955 9.46944Z"/><path fill="#FFE971" d="M36.9688 8.66789C37.0877 8.4619 37.0171 8.19851 36.8111 8.07959L36.073 7.65344C35.867 7.53451 35.6036 7.60509 35.4847 7.81107L34.2017 10.0332C34.0828 10.2392 34.1534 10.5026 34.3594 10.6215L35.0975 11.0477C35.3035 11.1666 35.5669 11.096 35.6858 10.8901L36.9688 8.66789Z"/><path fill="#EB8C00" d="M12.6241 33.2333C16.6665 40.2348 25.3959 42.0692 32.4923 37.9721C39.5886 33.875 42.3647 25.3979 38.3224 18.3964C34.2801 11.3949 25.5507 9.56049 18.4543 13.6576C11.3579 17.7547 8.58181 26.2318 12.6241 33.2333Z"/><path fill="#FFD800" d="M11.3686 31.0587C15.411 38.0602 24.1404 39.8946 31.2368 35.7975C38.3332 31.7004 41.1092 23.2233 37.0669 16.2218C33.0246 9.22032 24.2952 7.38593 17.1988 11.483C10.1024 15.5801 7.32632 24.0572 11.3686 31.0587Z"/><path fill="#FFE971" fill-rule="evenodd" d="M10.2413 19.8095C10.7902 18.1744 11.6438 16.6255 12.7699 15.2386L38.8915 22.0851C39.0258 23.81 38.8242 25.5295 38.3183 27.1685L10.2413 19.8095ZM34.5301 33.3373C35.2918 32.587 35.963 31.7724 36.5369 30.9089L9.52617 23.8294C9.50014 24.8335 9.58615 25.8464 9.79058 26.8531L34.5301 33.3373Z" clip-rule="evenodd"/><path fill="#FFC700" d="M13.1477 30.0316C16.6642 36.1224 24.2099 37.746 30.3237 34.2162C36.4375 30.6863 38.8043 23.3398 35.2878 17.249C31.7713 11.1583 24.2256 9.53469 18.1118 13.0645C11.998 16.5943 9.63123 23.9409 13.1477 30.0316Z"/><path fill="#fff" d="M14.4744 29.1338C17.5384 34.4408 24.0611 35.7233 29.4107 32.6347C34.7603 29.5461 36.911 23.2561 33.847 17.9491C30.783 12.6421 24.2603 11.3596 18.9107 14.4482C13.5611 17.5368 11.4104 23.8268 14.4744 29.1338Z"/><path fill="#E7E8E8" d="M17.1925 16.9833C16.4252 17.69 17.5968 18.1871 18.4692 17.6152C20.094 16.5503 22.0398 15.9361 24.1335 15.9467C27.1506 15.962 29.8734 17.2715 31.7792 19.3495C32.4262 20.0549 33.6101 19.7269 33.1315 18.898C30.2421 13.8933 24.1706 12.6379 19.224 15.4938C18.4762 15.9256 17.7969 16.4266 17.1925 16.9833Z"/><path fill="#E7E8E8" d="M30.3095 30.6626C31.1101 29.9939 29.9571 29.4738 29.0558 29.9989C27.6152 30.8382 25.9377 31.3148 24.1452 31.306C21.2998 31.292 18.7322 30.0576 16.9352 28.0986C16.325 27.4334 15.2083 27.7427 15.6596 28.5244C18.384 33.2431 24.1098 34.426 28.7753 31.7324C29.3272 31.4137 29.8396 31.0551 30.3095 30.6626Z"/><path fill="#452A7A" d="M28.5225 18.0353C28.7009 17.7263 28.595 17.3312 28.2861 17.1528L28.0179 16.998C27.7089 16.8196 27.3138 16.9255 27.1355 17.2345L24.5781 21.6638C24.3998 21.9728 24.5056 22.3679 24.8146 22.5463L25.0828 22.7011C25.3917 22.8795 25.7868 22.7736 25.9652 22.4647L28.5225 18.0353Z"/><path fill="#452A7A" d="M18.5531 24.0829C18.2084 24.1753 18.0039 24.5295 18.0963 24.8741L18.181 25.1904C18.2734 25.535 18.6276 25.7396 18.9722 25.6472L22.9747 24.5748C23.3193 24.4824 23.5238 24.1282 23.4315 23.7836L23.3467 23.4673C23.2544 23.1226 22.9001 22.9181 22.5555 23.0105L18.5531 24.0829Z"/><path fill="#452A7A" d="M22.2958 22.4131C22.9635 21.2567 24.327 20.9438 25.4214 21.5756C26.5158 22.2075 26.9266 23.5448 26.2589 24.7012C25.5912 25.8577 24.2277 26.1705 23.1333 25.5387C22.039 24.9069 21.6282 23.5696 22.2958 22.4131Z"/><path fill="#EB8C00" d="M14.8861 12.7823C14.3712 12.485 13.6327 12.8001 13.2367 13.486L9.61545 19.7582C9.21943 20.4441 9.31585 21.2411 9.83081 21.5385L10.3325 21.8281C10.8475 22.1254 11.5859 21.8104 11.982 21.1245L15.6032 14.8523C15.9992 14.1664 15.9028 13.3693 15.3878 13.072L14.8861 12.7823Z"/><path fill="#FFC700" d="M1.63678 24.9082C-1.00297 23.3842 -0.169281 17.4511 3.25699 11.5166C6.68326 5.58212 11.4046 1.89356 14.0444 3.41762C16.6841 4.94168 15.8505 10.8748 12.4242 16.8093C8.99791 22.7437 4.27652 26.4323 1.63678 24.9082Z"/><path fill="#FFD800" d="M2.84352 25.0346C0.789663 23.8637 1.87053 18.5665 5.06951 13.0956C8.26849 7.62463 12.3742 4.05174 14.4281 5.22259C16.4819 6.39343 15.401 11.6907 12.2021 17.1616C9.00308 22.6326 4.89738 26.2054 2.84352 25.0346Z"/><path fill="#FFE971" fill-rule="evenodd" d="M2.03445 20.4696C2.25426 19.4379 2.61802 18.2908 3.11238 17.0796L15.4413 6.93405C15.542 7.65924 15.486 8.55293 15.2864 9.56446L2.03445 20.4696ZM13.6569 14.33C13.9955 13.5972 14.2903 12.8808 14.5388 12.1914L1.78983 22.6826C1.79984 23.1579 1.86228 23.5801 1.97978 23.9393L13.6569 14.33Z" clip-rule="evenodd"/></g><defs><clipPath id="clip0_618_4078"><rect width="42" height="42" fill="#fff" transform="matrix(-1 0 0 1 42 0)"/></clipPath></defs></svg>