<svg xmlns="http://www.w3.org/2000/svg" width="22" height="22" fill="none" viewBox="0 0 22 22"><path fill="#31D0AA" d="M21.9998 11.3333C21.9998 17.2244 17.2242 22 11.3332 22C5.44213 22 0.666504 17.2244 0.666504 11.3333C0.666504 5.44229 5.44213 0.666656 11.3332 0.666656C17.2242 0.666656 21.9998 5.44229 21.9998 11.3333Z"/><path fill="#08060B" d="M12.5853 9.0711C12.3249 8.81075 11.9028 8.81075 11.6425 9.0711C11.3821 9.33145 11.3821 9.75356 11.6425 10.0139L12.3092 10.6806C12.5695 10.9409 12.9916 10.9409 13.252 10.6806C13.5123 10.4202 13.5123 9.99811 13.252 9.73776L12.5853 9.0711Z"/><path fill="#08060B" fill-rule="evenodd" d="M11.9325 4.39055C12.4532 3.86986 13.2974 3.86986 13.8181 4.39055L14.8655 5.43792C15.1258 5.69827 15.1258 6.12038 14.8655 6.38073L14.8111 6.43508C14.4784 6.76785 14.4784 7.30739 14.8111 7.64016C15.1439 7.97294 15.6835 7.97294 16.0162 7.64016L16.0706 7.58582C16.3309 7.32547 16.753 7.32547 17.0134 7.58582L18.0608 8.6332C18.5815 9.15389 18.5815 9.99812 18.0608 10.5188L10.5183 18.0613C9.9976 18.582 9.15338 18.582 8.63268 18.0613L7.58531 17.0139C7.32496 16.7536 7.32496 16.3315 7.58531 16.0711L8.01625 15.6402C8.34902 15.3074 8.34902 14.7679 8.01625 14.4351C7.68347 14.1023 7.14394 14.1023 6.81116 14.4351L6.38022 14.866C6.11987 15.1264 5.69776 15.1264 5.43741 14.866L4.39004 13.8186C3.86934 13.2979 3.86934 12.4537 4.39004 11.933L11.9325 4.39055ZM12.8753 5.33336L13.5082 5.96626C13.0393 6.79913 13.1594 7.87401 13.8683 8.58297C14.5773 9.29193 15.6522 9.41198 16.4851 8.9431L17.118 9.576L15.1041 11.5899L14.752 11.2378C14.4916 10.9774 14.0695 10.9774 13.8092 11.2378C13.5488 11.4981 13.5488 11.9202 13.8092 12.1806L14.1613 12.5327L9.57549 17.1185L8.999 16.542C9.81232 15.6858 9.799 14.3322 8.95906 13.4923C8.11911 12.6523 6.76556 12.639 5.90933 13.4523L5.33284 12.8758L9.91863 8.29005L10.1425 8.51391C10.4028 8.77426 10.8249 8.77426 11.0853 8.51391C11.3456 8.25356 11.3456 7.83145 11.0853 7.5711L10.8614 7.34724L12.8753 5.33336Z" clip-rule="evenodd"/></svg>