<?xml version="1.0" encoding="UTF-8"?><svg id="Layer_2" xmlns="http://www.w3.org/2000/svg" viewBox="0 0 730 200"><defs><style>.cls-1{fill:#f5f7fe;}.cls-2{fill:#dee7fc;}.cls-3{fill:#0b152d;}.cls-4{fill:#375bd2;}</style></defs><g id="Layer_1-2"><g><g><rect class="cls-1" x=".5" y=".5" width="729" height="199" rx="15.5" ry="15.5"/><path class="cls-2" d="M714,1c8.27,0,15,6.73,15,15V184c0,8.27-6.73,15-15,15H16c-8.27,0-15-6.73-15-15V16C1,7.73,7.73,1,16,1H714m0-1H16C7.16,0,0,7.16,0,16V184c0,8.84,7.16,16,16,16H714c8.84,0,16-7.16,16-16V16c0-8.84-7.16-16-16-16h0Z"/></g><g><g><path d="M197.89,128.46c-.24-1.33-1.33-3.4-4.38-3.4-2.28,0-3.77,1.46-3.77,3.06,0,1.33,.85,2.38,2.62,2.72l3.37,.65c4.39,.85,6.73,3.71,6.73,7.11,0,3.71-3.09,7.45-8.7,7.45-6.39,0-9.21-4.11-9.59-7.55l4.35-1.16c.2,2.38,1.87,4.52,5.27,4.52,2.52,0,3.91-1.26,3.91-2.96,0-1.39-1.05-2.48-2.92-2.86l-3.37-.68c-3.84-.78-6.32-3.26-6.32-6.9,0-4.28,3.84-7.55,8.4-7.55,5.85,0,8.09,3.54,8.64,6.25l-4.22,1.29Z"/><path d="M208.8,145.52v-24.1h15.09v4.42h-10.4v5.51h9.42v4.18h-9.42v5.58h10.4v4.42h-15.09Z"/><path d="M229.48,133.49c0-7.68,5.81-12.58,12.27-12.58s10.1,4.08,11.05,7.99l-4.42,1.39c-.58-2.31-2.45-4.86-6.63-4.86-3.6,0-7.41,2.58-7.41,8.06,0,5.13,3.6,7.96,7.48,7.96,4.11,0,6.12-2.69,6.77-4.93l4.38,1.33c-.92,3.71-4.38,8.19-11.15,8.19s-12.34-4.86-12.34-12.54Z"/><path d="M258.82,136.99v-15.57h4.69v15.23c0,3.16,1.77,4.83,4.56,4.83s4.59-1.67,4.59-4.83v-15.23h4.69v15.57c0,5.92-4.11,9.08-9.28,9.08s-9.25-3.16-9.25-9.08Z"/><path d="M292.17,136.24h-2.45v9.28h-4.72v-24.1h9.42c4.69,0,7.68,3.23,7.68,7.41,0,3.37-1.97,5.92-5.13,6.83l5.17,9.86h-5.24l-4.73-9.28Zm1.36-4.05c2.38,0,3.77-1.36,3.77-3.33s-1.39-3.37-3.77-3.37h-3.81v6.7h3.81Z"/><path d="M308.63,145.52v-24.1h15.09v4.42h-10.4v5.51h9.42v4.18h-9.42v5.58h10.4v4.42h-15.09Z"/><path d="M330.79,145.52v-24.1h8.63c6.87,0,11.9,4.45,11.9,12.07s-5.06,12.04-11.93,12.04h-8.6Zm8.43-4.35c3.94,0,7.24-2.45,7.24-7.68s-3.26-7.72-7.21-7.72h-3.77v15.4h3.74Z"/><path d="M395.53,121.42h4.79l-6.66,24.1h-4.83l-5.51-17.17-5.51,17.17h-4.9l-6.7-24.1h4.96l4.42,16.59,5.34-16.59h4.86l5.37,16.66,4.35-16.66Z"/><path d="M405.87,145.52v-24.1h4.76v24.1h-4.76Z"/><path d="M428.64,125.87v19.65h-4.72v-19.65h-7.62v-4.45h19.96v4.45h-7.62Z"/><path d="M457.14,145.52v-10h-10.5v10h-4.69v-24.1h4.69v9.69h10.5v-9.69h4.73v24.1h-4.73Z"/><path d="M479.1,133.49c0-7.68,5.81-12.58,12.27-12.58s10.1,4.08,11.05,7.99l-4.42,1.39c-.58-2.31-2.45-4.86-6.63-4.86-3.6,0-7.41,2.58-7.41,8.06,0,5.13,3.6,7.96,7.48,7.96,4.11,0,6.12-2.69,6.77-4.93l4.38,1.33c-.92,3.71-4.38,8.19-11.15,8.19s-12.34-4.86-12.34-12.54Z"/><path d="M524.08,145.52v-10h-10.5v10h-4.69v-24.1h4.69v9.69h10.5v-9.69h4.73v24.1h-4.73Z"/><path d="M551.04,140.01h-9.79l-2.01,5.51h-4.96l9.25-24.1h5.44l9.18,24.1h-5.1l-2.01-5.51Zm-8.23-4.28h6.66l-3.33-9.11-3.33,9.11Z"/><path d="M563.62,145.52v-24.1h4.76v24.1h-4.76Z"/><path d="M591.91,145.52l-10.95-17.1v17.1h-4.69v-24.1h5.85l10.03,15.94v-15.94h4.69v24.1h-4.93Z"/><path d="M604.73,145.52v-24.1h4.69v19.62h10.74v4.49h-15.43Z"/><path d="M626.15,145.52v-24.1h4.76v24.1h-4.76Z"/><path d="M654.44,145.52l-10.95-17.1v17.1h-4.69v-24.1h5.85l10.03,15.94v-15.94h4.69v24.1h-4.93Z"/><path d="M674.94,135.53l-2.99,3.3v6.7h-4.69v-24.1h4.69v10.91l9.66-10.91h6.15l-9.55,10.5,9.62,13.6h-5.88l-7-10Z"/></g><g><path class="cls-3" d="M220.83,94.48v-27.83l-11.42,27.83h-6.44l-11.42-27.61v27.61h-7.39V54.78h10.19l11.93,28.67,11.65-28.67h10.53v39.7h-7.62Z"/><path class="cls-3" d="M242.28,78.63l6.78-1.01c1.57-.22,2.07-1.01,2.07-1.96,0-1.96-1.51-3.58-4.65-3.58s-5.04,2.07-5.26,4.48l-6.61-1.4c.45-4.31,4.42-9.07,11.82-9.07,8.74,0,11.98,4.93,11.98,10.47v13.55c0,1.46,.17,3.42,.34,4.37h-6.83c-.17-.73-.28-2.24-.28-3.3-1.4,2.18-4.03,4.09-8.12,4.09-5.88,0-9.46-3.98-9.46-8.29,0-4.93,3.64-7.67,8.23-8.34Zm8.85,4.7v-1.23l-6.22,.95c-1.9,.28-3.42,1.34-3.42,3.47,0,1.62,1.18,3.19,3.58,3.19,3.14,0,6.05-1.51,6.05-6.38Z"/><path class="cls-3" d="M281.59,74.32c-.84-.17-1.57-.22-2.24-.22-3.81,0-7.11,1.85-7.11,7.78v12.6h-7.45v-27.55h7.22v4.09c1.68-3.64,5.49-4.31,7.84-4.31,.62,0,1.18,.06,1.74,.11v7.5Z"/><path class="cls-3" d="M301.41,78.52l11.26,15.96h-9.13l-7.28-10.53-3.08,3.25v7.28h-7.45V53.93h7.45v23.24l9.52-10.25h9.74l-11.03,11.59Z"/><path class="cls-3" d="M339.38,86.58c-1.4,4.76-5.77,8.74-12.54,8.74-7.56,0-14.22-5.43-14.22-14.73,0-8.79,6.5-14.5,13.55-14.5,8.51,0,13.61,5.43,13.61,14.28,0,1.06-.11,2.18-.11,2.3h-19.71c.17,3.64,3.25,6.27,6.94,6.27,3.47,0,5.38-1.74,6.27-4.2l6.22,1.85Zm-6.94-9.02c-.11-2.74-1.9-5.43-6.16-5.43-3.86,0-5.99,2.91-6.16,5.43h12.32Z"/><path class="cls-3" d="M353.72,66.93h5.54v6.61h-5.54v11.54c0,2.41,1.12,3.19,3.25,3.19,.9,0,1.9-.11,2.3-.22v6.16c-.67,.28-2.02,.67-4.2,.67-5.38,0-8.74-3.19-8.74-8.51v-12.82h-4.98v-6.61h1.4c2.91,0,4.26-1.9,4.26-4.37v-3.86h6.72v8.23Z"/><path class="cls-3" d="M377.57,94.48V54.78h14.22c11.31,0,19.6,7.34,19.6,19.88s-8.34,19.82-19.66,19.82h-14.17Zm13.89-7.17c6.5,0,11.93-4.03,11.93-12.66s-5.38-12.71-11.87-12.71h-6.22v25.37h6.16Z"/><path class="cls-3" d="M422.99,78.63l6.78-1.01c1.57-.22,2.07-1.01,2.07-1.96,0-1.96-1.51-3.58-4.65-3.58s-5.04,2.07-5.26,4.48l-6.61-1.4c.45-4.31,4.42-9.07,11.82-9.07,8.74,0,11.98,4.93,11.98,10.47v13.55c0,1.46,.17,3.42,.34,4.37h-6.83c-.17-.73-.28-2.24-.28-3.3-1.4,2.18-4.03,4.09-8.12,4.09-5.88,0-9.46-3.98-9.46-8.29,0-4.93,3.64-7.67,8.23-8.34Zm8.85,4.7v-1.23l-6.22,.95c-1.9,.28-3.42,1.34-3.42,3.47,0,1.62,1.18,3.19,3.58,3.19,3.14,0,6.05-1.51,6.05-6.38Z"/><path class="cls-3" d="M454.52,66.93h5.54v6.61h-5.54v11.54c0,2.41,1.12,3.19,3.25,3.19,.9,0,1.9-.11,2.3-.22v6.16c-.67,.28-2.02,.67-4.2,.67-5.38,0-8.74-3.19-8.74-8.51v-12.82h-4.98v-6.61h1.4c2.91,0,4.26-1.9,4.26-4.37v-3.86h6.72v8.23Z"/><path class="cls-3" d="M471.99,78.63l6.78-1.01c1.57-.22,2.07-1.01,2.07-1.96,0-1.96-1.51-3.58-4.65-3.58s-5.04,2.07-5.26,4.48l-6.61-1.4c.45-4.31,4.42-9.07,11.82-9.07,8.74,0,11.98,4.93,11.98,10.47v13.55c0,1.46,.17,3.42,.34,4.37h-6.83c-.17-.73-.28-2.24-.28-3.3-1.4,2.18-4.03,4.09-8.12,4.09-5.88,0-9.46-3.98-9.46-8.29,0-4.93,3.64-7.67,8.23-8.34Zm8.85,4.7v-1.23l-6.22,.95c-1.9,.28-3.42,1.34-3.42,3.47,0,1.62,1.18,3.19,3.58,3.19,3.14,0,6.05-1.51,6.05-6.38Z"/></g></g><path class="cls-4" d="M90.84,42.3l-50,28.85v57.7l50,28.85,50-28.85v-57.7l-50-28.85Zm28.81,74.32l-28.81,16.62-28.81-16.62v-33.25l28.81-16.62,28.81,16.62v33.25Z"/></g></g></svg>