<svg xmlns="http://www.w3.org/2000/svg" width="48" height="58" fill="none" viewBox="0 0 48 58"><g filter="url(#filter0_i_622_7305)"><rect width="48" height="48" y="9.668" fill="#1FC7D4" rx="16"/></g><g clip-path="url(#clip0_622_7305)"><g clip-path="url(#clip1_622_7305)"><mask id="path-2-outside-1_622_7305" width="54.332" height="55.032" x="-4.458" y="4.333" fill="#000" maskUnits="userSpaceOnUse"><rect width="54.332" height="55.032" x="-4.458" y="4.333" fill="#fff"/><path d="M25.0467 10.9241C27.7332 10.1876 29.5178 11.8527 30.2775 14.6236C30.8813 16.8258 30.654 21.6312 30.5363 23.5104C30.5262 23.7149 30.5953 23.9151 30.7287 24.0705C30.8633 24.2255 31.0517 24.3237 31.2552 24.3444C33.6407 24.6035 40.8446 25.9696 42.7961 33.0875C44.8513 40.5837 39.9462 48.0069 28.0434 51.2799L28.0138 51.288C16.1052 54.5373 8.10099 50.6592 6.04583 43.1631C3.99067 35.6669 9.60096 31.1943 11.5142 29.7567C11.6786 29.6351 11.7906 29.4546 11.8273 29.2525C11.8628 29.0509 11.8202 28.8433 11.7073 28.6726C10.6476 27.1162 8.00138 23.0986 7.39763 20.8964C6.63794 18.1255 7.3281 15.7819 10.0104 15.0465C13.8773 13.9864 16.3413 19.1986 18.0219 25.0588C18.075 25.2479 18.2007 25.406 18.3712 25.5026C18.5406 25.6001 18.7418 25.6247 18.9316 25.574L22.7406 24.5297C22.9296 24.4766 23.089 24.3531 23.1862 24.1825C23.2837 24.0131 23.3111 23.8123 23.2603 23.6226C21.7187 17.725 21.1786 11.9846 25.0455 10.9245M24.7974 10.0197C23.6327 10.339 22.7305 11.0196 22.1147 12.0425C21.5921 12.9108 21.2803 14.0397 21.1885 15.3963C21.0459 17.5041 21.4114 20.2139 22.3048 23.6758L18.8703 24.6174C17.874 21.1843 16.8064 18.667 15.6086 16.9261C14.8379 15.806 13.9941 14.9945 13.1016 14.5136C12.0502 13.9477 10.9264 13.8226 9.76233 14.1418C8.19953 14.5702 7.0866 15.509 6.54327 16.8576C6.06631 18.0416 6.04855 19.5237 6.49305 21.1451C7.09514 23.3412 9.44552 27.0106 10.8515 29.083C9.79839 29.8873 7.9276 31.5175 6.52674 33.8471C5.70451 35.2146 5.1524 36.6448 4.88501 38.0987C4.56507 39.8388 4.65116 41.6265 5.14064 43.4119C5.69329 45.4277 6.64616 47.2001 7.97185 48.6791C9.30782 50.1694 10.9948 51.3295 12.9858 52.1267C15.0052 52.9356 17.3104 53.358 19.8371 53.3825C22.4439 53.4078 25.2779 53.0082 28.261 52.1943L28.2917 52.1858C31.2731 51.3659 33.9156 50.2653 36.145 48.9141C38.306 47.6044 40.0734 46.0654 41.3979 44.3397C42.7033 42.6388 43.5627 40.78 43.9522 38.8159C44.3381 36.867 44.254 34.857 43.7012 32.8407C43.2117 31.0553 42.3747 29.4735 41.2126 28.1397C40.2417 27.0252 39.0372 26.076 37.634 25.3193C35.2375 24.027 32.798 23.5804 31.4816 23.427C31.6337 20.9281 31.7845 16.5723 31.1826 14.3768C30.7381 12.7554 29.968 11.4886 28.9548 10.7145C27.8002 9.83135 26.363 9.59181 24.799 10.0206L24.7974 10.0197Z"/></mask><path fill="#633001" d="M25.0467 10.9241C27.7332 10.1876 29.5178 11.8527 30.2775 14.6236C30.8813 16.8258 30.654 21.6312 30.5363 23.5104C30.5262 23.7149 30.5953 23.9151 30.7287 24.0705C30.8633 24.2255 31.0517 24.3237 31.2552 24.3444C33.6407 24.6035 40.8446 25.9696 42.7961 33.0875C44.8513 40.5837 39.9462 48.0069 28.0434 51.2799L28.0138 51.288C16.1052 54.5373 8.10099 50.6592 6.04583 43.1631C3.99067 35.6669 9.60096 31.1943 11.5142 29.7567C11.6786 29.6351 11.7906 29.4546 11.8273 29.2525C11.8628 29.0509 11.8202 28.8433 11.7073 28.6726C10.6476 27.1162 8.00138 23.0986 7.39763 20.8964C6.63794 18.1255 7.3281 15.7819 10.0104 15.0465C13.8773 13.9864 16.3413 19.1986 18.0219 25.0588C18.075 25.2479 18.2007 25.406 18.3712 25.5026C18.5406 25.6001 18.7418 25.6247 18.9316 25.574L22.7406 24.5297C22.9296 24.4766 23.089 24.3531 23.1862 24.1825C23.2837 24.0131 23.3111 23.8123 23.2603 23.6226C21.7187 17.725 21.1786 11.9846 25.0455 10.9245M24.7974 10.0197C23.6327 10.339 22.7305 11.0196 22.1147 12.0425C21.5921 12.9108 21.2803 14.0397 21.1885 15.3963C21.0459 17.5041 21.4114 20.2139 22.3048 23.6758L18.8703 24.6174C17.874 21.1843 16.8064 18.667 15.6086 16.9261C14.8379 15.806 13.9941 14.9945 13.1016 14.5136C12.0502 13.9477 10.9264 13.8226 9.76233 14.1418C8.19953 14.5702 7.0866 15.509 6.54327 16.8576C6.06631 18.0416 6.04855 19.5237 6.49305 21.1451C7.09514 23.3412 9.44552 27.0106 10.8515 29.083C9.79839 29.8873 7.9276 31.5175 6.52674 33.8471C5.70451 35.2146 5.1524 36.6448 4.88501 38.0987C4.56507 39.8388 4.65116 41.6265 5.14064 43.4119C5.69329 45.4277 6.64616 47.2001 7.97185 48.6791C9.30782 50.1694 10.9948 51.3295 12.9858 52.1267C15.0052 52.9356 17.3104 53.358 19.8371 53.3825C22.4439 53.4078 25.2779 53.0082 28.261 52.1943L28.2917 52.1858C31.2731 51.3659 33.9156 50.2653 36.145 48.9141C38.306 47.6044 40.0734 46.0654 41.3979 44.3397C42.7033 42.6388 43.5627 40.78 43.9522 38.8159C44.3381 36.867 44.254 34.857 43.7012 32.8407C43.2117 31.0553 42.3747 29.4735 41.2126 28.1397C40.2417 27.0252 39.0372 26.076 37.634 25.3193C35.2375 24.027 32.798 23.5804 31.4816 23.427C31.6337 20.9281 31.7845 16.5723 31.1826 14.3768C30.7381 12.7554 29.968 11.4886 28.9548 10.7145C27.8002 9.83135 26.363 9.59181 24.799 10.0206L24.7974 10.0197Z"/><path fill="#633001" d="M30.5363 23.5104L29.295 23.4327L29.2944 23.4409L29.294 23.4491L30.5363 23.5104ZM30.7287 24.0705L29.785 24.8806L29.7895 24.8858L30.7287 24.0705ZM31.2552 24.3444L31.3895 23.1079L31.3813 23.1071L31.2552 24.3444ZM28.0434 51.2799L28.3722 52.4794L28.3731 52.4791L28.0434 51.2799ZM28.0138 51.288L28.3412 52.4879L28.3427 52.4875L28.0138 51.288ZM11.5142 29.7567L10.7747 28.7566L10.767 28.7624L11.5142 29.7567ZM11.8273 29.2525L13.0511 29.4749L13.0523 29.4681L11.8273 29.2525ZM11.7073 28.6726L12.7445 27.9863L12.74 27.9795L12.7353 27.9727L11.7073 28.6726ZM18.0219 25.0588L19.2192 24.7223L19.2174 24.7159L18.0219 25.0588ZM18.3712 25.5026L18.9917 24.4247L18.9843 24.4205L18.3712 25.5026ZM18.9316 25.574L19.2528 26.7755L19.2604 26.7735L18.9316 25.574ZM22.7406 24.5297L23.0694 25.7292L23.0771 25.7271L22.7406 24.5297ZM23.1862 24.1825L22.1083 23.562L22.1055 23.5669L23.1862 24.1825ZM23.2603 23.6226L22.057 23.9372L22.0588 23.9438L23.2603 23.6226ZM24.7974 10.0197L25.4139 8.9395L24.966 8.68388L24.4686 8.82025L24.7974 10.0197ZM22.1147 12.0425L21.0491 11.401L21.0491 11.4011L22.1147 12.0425ZM21.1885 15.3963L22.4294 15.4802L22.4294 15.4802L21.1885 15.3963ZM22.3048 23.6758L22.6336 24.8752L23.8152 24.5513L23.5091 23.365L22.3048 23.6758ZM18.8703 24.6174L17.6759 24.964L18.0174 26.1408L19.1992 25.8168L18.8703 24.6174ZM15.6086 16.9261L16.6333 16.2211L16.6332 16.221L15.6086 16.9261ZM13.1016 14.5136L13.6916 13.4187L13.691 13.4184L13.1016 14.5136ZM6.54327 16.8576L7.69692 17.3224L7.69692 17.3224L6.54327 16.8576ZM10.8515 29.083L11.6064 30.0714L12.5409 29.3577L11.8808 28.3847L10.8515 29.083ZM6.52674 33.8471L5.46087 33.2062L5.46085 33.2062L6.52674 33.8471ZM4.88501 38.0987L3.66178 37.8738L3.66177 37.8738L4.88501 38.0987ZM7.97185 48.6791L7.04572 49.5092L7.04573 49.5092L7.97185 48.6791ZM12.9858 52.1267L13.4482 50.9721L13.4481 50.9721L12.9858 52.1267ZM19.8371 53.3825L19.8251 54.6262L19.8251 54.6262L19.8371 53.3825ZM28.261 52.1943L28.5884 53.3942L28.5898 53.3938L28.261 52.1943ZM28.2917 52.1858L28.6206 53.3853L28.6216 53.3851L28.2917 52.1858ZM36.145 48.9141L36.7896 49.9778L36.7896 49.9778L36.145 48.9141ZM41.3979 44.3397L42.3846 45.097L42.3846 45.097L41.3979 44.3397ZM43.9522 38.8159L45.1722 39.0578L45.1723 39.0575L43.9522 38.8159ZM41.2126 28.1397L40.2748 28.9567L40.2749 28.9567L41.2126 28.1397ZM37.634 25.3193L37.0436 26.414L37.0437 26.4141L37.634 25.3193ZM31.4816 23.427L30.2402 23.3514L30.1687 24.5262L31.3377 24.6624L31.4816 23.427ZM28.9548 10.7145L28.1992 11.7024L28.1997 11.7028L28.9548 10.7145ZM24.799 10.0206L24.1825 11.1008L24.6305 11.3564L25.1278 11.2201L24.799 10.0206ZM25.3755 12.1236C26.3848 11.8469 27.0928 12.0364 27.6292 12.4466C28.2158 12.8951 28.7407 13.7221 29.078 14.9524L31.477 14.2947C31.0546 12.7541 30.3074 11.3631 29.1401 10.4706C27.9226 9.53959 26.3951 9.26481 24.7178 9.72466L25.3755 12.1236ZM29.078 14.9524C29.331 15.8751 29.4298 17.4742 29.4337 19.191C29.4376 20.8642 29.353 22.5054 29.295 23.4327L31.7776 23.5882C31.8372 22.6362 31.9252 20.9351 31.9212 19.1853C31.9173 17.479 31.8278 15.5742 31.477 14.2947L29.078 14.9524ZM29.294 23.4491C29.2681 23.974 29.4459 24.4856 29.785 24.8806L31.6724 23.2604C31.7448 23.3447 31.7842 23.4557 31.7785 23.5718L29.294 23.4491ZM29.7895 24.8858C30.1302 25.2782 30.6086 25.5287 31.1291 25.5818L31.3813 23.1071C31.4948 23.1187 31.5965 23.1729 31.668 23.2552L29.7895 24.8858ZM31.1209 25.5809C32.2331 25.7017 34.4528 26.0816 36.598 27.2386C38.7167 28.3812 40.731 30.2589 41.5966 33.4164L43.9956 32.7587C42.9098 28.7982 40.3463 26.4339 37.7788 25.0492C35.2379 23.6789 32.6628 23.2462 31.3895 23.108L31.1209 25.5809ZM41.5966 33.4164C42.5203 36.7853 41.8899 40.1139 39.6673 43.0102C37.4221 45.9358 33.4896 48.4924 27.7136 50.0807L28.3731 52.4791C34.4999 50.7944 38.9714 48.0028 41.6406 44.5246C44.3325 41.0169 45.1271 36.8858 43.9956 32.7587L41.5966 33.4164ZM27.7145 50.0804L27.6849 50.0885L28.3427 52.4875L28.3722 52.4794L27.7145 50.0804ZM27.6864 50.0881C21.9073 51.665 17.2206 51.4715 13.7971 50.1005C10.4083 48.7433 8.16891 46.203 7.24531 42.8342L4.84635 43.4919C5.97791 47.6192 8.76816 50.766 12.8724 52.4097C16.942 54.0395 22.2117 54.1603 28.3412 52.4879L27.6864 50.0881ZM7.24531 42.8342C5.4238 36.1903 10.3382 32.1961 12.2613 30.751L10.767 28.7624C8.8637 30.1926 2.55754 35.1435 4.84635 43.4919L7.24531 42.8342ZM12.2537 30.7567C12.6743 30.4456 12.9582 29.9862 13.051 29.4749L10.6036 29.0302C10.6231 28.923 10.6829 28.8245 10.7747 28.7567L12.2537 30.7567ZM13.0523 29.4681C13.1425 28.9553 13.0345 28.4246 12.7445 27.9863L10.67 29.3589C10.6059 29.2621 10.5832 29.1464 10.6024 29.037L13.0523 29.4681ZM12.7353 27.9727C12.2125 27.2047 11.3028 25.8361 10.4528 24.3948C9.58063 22.9161 8.85007 21.4902 8.59711 20.5675L6.19815 21.2253C6.54894 22.5047 7.44337 24.1888 8.31018 25.6585C9.1991 27.1657 10.1424 28.5841 10.6792 29.3726L12.7353 27.9727ZM8.59711 20.5675C8.26002 19.338 8.29047 18.3586 8.56681 17.6731C8.81968 17.0459 9.33262 16.522 10.3392 16.246L9.68153 13.8471C8.00586 14.3065 6.83258 15.3221 6.25973 16.7431C5.71034 18.106 5.77555 19.6838 6.19815 21.2253L8.59711 20.5675ZM10.3392 16.246C10.9884 16.068 11.5393 16.1504 12.0677 16.4348C12.6323 16.7386 13.2199 17.303 13.8114 18.1625C15.0015 19.8923 15.9937 22.4984 16.8263 25.4017L19.2174 24.7159C18.3694 21.759 17.2893 18.8289 15.8606 16.7525C15.1426 15.709 14.2842 14.8028 13.2466 14.2444C12.173 13.6666 10.9658 13.495 9.68153 13.8471L10.3392 16.246ZM16.8245 25.3953C16.9681 25.9062 17.3075 26.3294 17.758 26.5847L18.9843 24.4205C19.0939 24.4826 19.1819 24.5895 19.2192 24.7223L16.8245 25.3953ZM17.7506 26.5805C18.2133 26.8468 18.7543 26.9088 19.2528 26.7755L18.6104 24.3724C18.7294 24.3406 18.8678 24.3534 18.9917 24.4247L17.7506 26.5805ZM19.2604 26.7735L23.0694 25.7292L22.4117 23.3302L18.6027 24.3745L19.2604 26.7735ZM23.0771 25.7271C23.577 25.5866 24.0057 25.2566 24.2669 24.7981L22.1055 23.5669C22.1723 23.4496 22.2823 23.3666 22.4041 23.3323L23.0771 25.7271ZM24.2641 24.803C24.524 24.3516 24.5985 23.8125 24.4619 23.3014L22.0588 23.9438C22.0236 23.8121 22.0435 23.6746 22.1083 23.562L24.2641 24.803ZM24.4637 23.308C23.6998 20.3861 23.2242 17.6383 23.3656 15.5433C23.4359 14.5022 23.6535 13.717 23.9841 13.1678C24.2934 12.6537 24.7252 12.3019 25.3743 12.124L24.7166 9.72499C23.4323 10.0771 22.4815 10.8404 21.8528 11.8851C21.2452 12.8947 20.9691 14.1119 20.8838 15.3757C20.714 17.8903 21.2792 20.9615 22.057 23.9372L24.4637 23.308ZM24.4686 8.82025C22.9995 9.22303 21.8317 10.1011 21.0491 11.401L23.1802 12.684C23.6293 11.9381 24.266 11.4551 25.1263 11.2192L24.4686 8.82025ZM21.0491 11.4011C20.3958 12.4864 20.0484 13.823 19.9476 15.3123L22.4294 15.4802C22.5122 14.2564 22.7883 13.3352 23.1803 12.6839L21.0491 11.4011ZM19.9476 15.3123C19.7919 17.6135 20.1936 20.4721 21.1005 23.9865L23.5091 23.365C22.6293 19.9556 22.2999 17.3947 22.4294 15.4802L19.9476 15.3123ZM21.9759 22.4763L18.5415 23.4179L19.1992 25.8168L22.6336 24.8752L21.9759 22.4763ZM20.0648 24.2707C19.0533 20.7854 17.9409 18.1217 16.6333 16.2211L14.584 17.631C15.672 19.2124 16.6947 21.5833 17.6759 24.964L20.0648 24.2707ZM16.6332 16.221C15.7868 14.991 14.8066 14.0195 13.6916 13.4187L12.5116 15.6085C13.1817 15.9696 13.8889 16.621 14.5841 17.6311L16.6332 16.221ZM13.691 13.4184C12.3549 12.6993 10.9019 12.5397 9.43348 12.9423L10.0912 15.3413C10.951 15.1055 11.7456 15.1962 12.5122 15.6088L13.691 13.4184ZM9.43348 12.9423C7.54547 13.4599 6.0962 14.639 5.38963 16.3929L7.69692 17.3224C8.077 16.3789 8.85359 15.6806 10.0912 15.3413L9.43348 12.9423ZM5.38963 16.3929C4.78302 17.8986 4.7998 19.6729 5.29357 21.4739L7.69253 20.8162C7.29729 19.3746 7.34961 18.1845 7.69692 17.3224L5.38963 16.3929ZM5.29357 21.4739C5.64042 22.739 6.45136 24.3249 7.294 25.7828C8.15346 27.2698 9.1108 28.7325 9.82233 29.7813L11.8808 28.3847C11.1863 27.3611 10.2654 25.9529 9.44764 24.5381C8.61307 23.0941 7.94777 21.7472 7.69253 20.8162L5.29357 21.4739ZM10.0967 28.0945C8.97751 28.9492 6.97343 30.6908 5.46087 33.2062L7.59261 34.4881C8.88177 32.3443 10.6193 30.8253 11.6064 30.0714L10.0967 28.0945ZM5.46085 33.2062C4.56767 34.6916 3.95825 36.2617 3.66178 37.8738L6.10824 38.3237C6.34654 37.0279 6.84134 35.7375 7.59263 34.488L5.46085 33.2062ZM3.66177 37.8738C3.30641 39.8066 3.40458 41.7836 3.94116 43.7407L6.34012 43.083C5.89774 41.4695 5.82373 39.8711 6.10825 38.3236L3.66177 37.8738ZM3.94116 43.7407C4.5421 45.9326 5.58456 47.8792 7.04572 49.5092L8.89798 47.8489C7.70776 46.5211 6.84449 44.9227 6.34012 43.083L3.94116 43.7407ZM7.04573 49.5092C8.51831 51.152 10.368 52.4182 12.5234 53.2813L13.4481 50.9721C11.6217 50.2407 10.0973 49.1869 8.89798 47.8489L7.04573 49.5092ZM12.5233 53.2813C14.7072 54.156 17.1685 54.6005 19.8251 54.6262L19.8492 52.1388C17.4522 52.1156 15.3031 51.7151 13.4482 50.9721L12.5233 53.2813ZM19.8251 54.6262C22.5654 54.6528 25.5146 54.2329 28.5884 53.3942L27.9336 50.9944C25.0413 51.7836 22.3225 52.1628 19.8492 52.1388L19.8251 54.6262ZM28.5898 53.3938L28.6206 53.3853L27.9629 50.9864L27.9321 50.9948L28.5898 53.3938ZM28.6216 53.3851C31.6936 52.5402 34.4457 51.3983 36.7896 49.9778L35.5004 47.8505C33.3855 49.1322 30.8527 50.1916 27.9619 50.9866L28.6216 53.3851ZM36.7896 49.9778C39.0616 48.6008 40.9521 46.9632 42.3846 45.097L40.4113 43.5824C39.1947 45.1675 37.5504 46.608 35.5004 47.8505L36.7896 49.9778ZM42.3846 45.097C43.7979 43.2554 44.7429 41.2224 45.1722 39.0578L42.7322 38.5739C42.3825 40.3376 41.6087 42.0222 40.4113 43.5825L42.3846 45.097ZM45.1723 39.0575C45.5976 36.9097 45.5018 34.7044 44.9007 32.5118L42.5017 33.1695C43.0062 35.0097 43.0787 36.8244 42.7322 38.5743L45.1723 39.0575ZM44.9007 32.5118C44.3642 30.5549 43.4411 28.8042 42.1504 27.3227L40.2749 28.9567C41.3082 30.1428 42.0592 31.5557 42.5017 33.1695L44.9007 32.5118ZM42.1504 27.3227C41.0738 26.087 39.7487 25.0466 38.2242 24.2246L37.0437 26.4141C38.3258 27.1054 39.4096 27.9635 40.2748 28.9567L42.1504 27.3227ZM38.2243 24.2246C35.6367 22.8291 33.0252 22.3547 31.6255 22.1916L31.3377 24.6624C32.5707 24.806 34.8383 25.2248 37.0436 26.414L38.2243 24.2246ZM32.7231 23.5026C32.8 22.2381 32.8775 20.4917 32.8585 18.7744C32.8399 17.0906 32.7289 15.3128 32.3821 14.0479L29.9831 14.7056C30.2382 15.6362 30.3528 17.1341 30.3712 18.8019C30.3893 20.436 30.3153 22.117 30.2402 23.3514L32.7231 23.5026ZM32.3821 14.0479C31.8886 12.248 30.9996 10.7116 29.7099 9.72626L28.1997 11.7028C28.9363 12.2657 29.5876 13.2629 29.9831 14.7056L32.3821 14.0479ZM29.7105 9.72668C28.2082 8.57754 26.3587 8.30334 24.4701 8.82112L25.1278 11.2201C26.3672 10.8803 27.3923 11.0852 28.1992 11.7024L29.7105 9.72668ZM25.4154 8.94038L25.4139 8.9395L24.181 11.0999L24.1825 11.1008L25.4154 8.94038Z" mask="url(#path-2-outside-1_622_7305)"/><path fill="#DD8C54" d="M28.1384 51.74C28.1386 51.74 28.1385 51.7403 28.1384 51.7403C22.3588 53.317 17.1805 53.2996 13.1615 51.6901C11.2383 50.9198 9.61059 49.8012 8.32242 48.3645C7.04545 46.9403 6.12772 45.2321 5.59426 43.2863C4.72245 40.1064 5.17151 37.0112 6.92944 34.087C8.33408 31.7499 10.2286 30.1352 11.2331 29.3805C11.3049 29.3278 11.3511 29.2528 11.3665 29.1669C11.3806 29.0859 11.363 29.0005 11.3165 28.9303C10.2104 27.3062 7.56386 23.2731 6.94589 21.019C6.04845 17.7457 7.14802 15.3437 9.88699 14.5928C11.8678 14.0497 13.6632 14.9239 15.2229 17.1901C16.413 18.9196 17.4759 21.4505 18.4734 24.928C18.4929 24.9991 18.5391 25.0565 18.602 25.0918C18.6667 25.1292 18.7397 25.1377 18.8116 25.1186L22.6176 24.0752C22.6858 24.0565 22.7439 24.0107 22.78 23.9483C22.8174 23.8836 22.8272 23.8108 22.8088 23.7413C21.8933 20.2388 21.5167 17.5191 21.6581 15.4259C21.8432 12.6806 22.9419 11.0136 24.9227 10.4705C27.6617 9.71962 29.8326 11.2256 30.7299 14.4983C31.3479 16.7524 31.1276 21.5715 31.0049 23.539C31.0011 23.6172 31.0295 23.6995 31.0848 23.7641C31.1398 23.8275 31.2184 23.8682 31.3031 23.8768C32.5543 24.0124 35.0075 24.4332 37.4116 25.7299C40.4131 27.3486 42.3773 29.7822 43.2491 32.9621C43.7824 34.9073 43.8643 36.8453 43.4924 38.7222C43.117 40.615 42.2878 42.4085 41.0263 44.052C38.3898 47.4875 33.9434 50.1429 28.1682 51.7315L28.1385 51.7396C28.1383 51.7397 28.1383 51.7399 28.1384 51.74Z"/><path fill="#633001" d="M16.5911 34.4402C15.4645 34.6187 14.4791 35.2812 13.8877 36.2576C13.7168 36.5399 13.8075 36.9086 14.0895 37.0789C14.2263 37.1614 14.3867 37.1861 14.5422 37.148C14.6991 37.1102 14.8283 37.0138 14.9114 36.8769C15.3197 36.2022 16.0001 35.7446 16.7781 35.6215C17.7165 35.4731 18.6715 35.8395 19.2703 36.5786C19.4199 36.7625 19.6645 36.8413 19.8931 36.7787C19.9733 36.7567 20.0466 36.7191 20.1113 36.6663C20.3675 36.4586 20.4067 36.0816 20.199 35.8253C19.3321 34.7559 17.9489 34.2255 16.5905 34.4404L16.5911 34.4402Z"/><path fill="#633001" fill-rule="evenodd" d="M16.5713 34.4434C15.453 34.6265 14.4755 35.2869 13.8876 36.2577C13.7167 36.54 13.8074 36.9086 14.0894 37.079C14.2261 37.1615 14.3866 37.1862 14.5421 37.1481C14.699 37.1103 14.8282 37.0139 14.9113 36.877C15.3196 36.2023 16 35.7447 16.778 35.6215C17.7164 35.4732 18.6714 35.8396 19.2702 36.5787C19.4198 36.7626 19.6644 36.8414 19.893 36.7788C19.9732 36.7568 20.0465 36.7192 20.1112 36.6664C20.3674 36.4587 20.4066 36.0816 20.1989 35.8254C19.3361 34.7612 17.9621 34.2307 16.61 34.4374C16.6036 34.4384 16.5973 34.4394 16.591 34.4403C16.591 34.4404 16.591 34.4404 16.591 34.4404C16.5908 34.4404 16.5906 34.4404 16.5904 34.4404L16.591 34.4403C16.5908 34.4403 16.5906 34.4403 16.5904 34.4404C16.5903 34.4404 16.5903 34.4404 16.5903 34.4404C16.584 34.4414 16.5777 34.4424 16.5713 34.4434ZM16.5366 34.097L16.5366 34.097C15.3089 34.2915 14.2346 35.0137 13.5903 36.0777C13.3199 36.524 13.463 37.1067 13.9097 37.3765L13.9099 37.3766C14.1248 37.5063 14.3793 37.5457 14.6242 37.4859C14.8729 37.4257 15.0786 37.2713 15.2084 37.0573L15.2087 37.057C15.564 36.4698 16.1556 36.072 16.8323 35.9649M16.5366 34.097C18.0174 33.863 19.5239 34.4409 20.4689 35.6065L20.469 35.6065C20.7973 36.0116 20.7356 36.6073 20.3305 36.9361C20.2281 37.0196 20.1113 37.0793 19.9849 37.114C19.623 37.2132 19.2367 37.0884 19.0005 36.798L19.0001 36.7975C18.4794 36.1549 17.6481 35.8359 16.8324 35.9649" clip-rule="evenodd"/><path fill="#633001" d="M32.4524 31.168C31.4457 30.6296 30.2602 30.5624 29.2002 30.9833C27.9221 31.4913 27.0035 32.6528 26.8025 34.015C26.7545 34.3413 26.9806 34.6457 27.3069 34.6936C27.3894 34.706 27.4722 34.7008 27.5518 34.679C27.781 34.6162 27.9508 34.4244 27.9855 34.1892C28.1243 33.248 28.7589 32.4458 29.6411 32.095C30.3725 31.8043 31.1918 31.8507 31.8871 32.2229C32.0278 32.2984 32.1892 32.3151 32.3429 32.2678C32.4955 32.2214 32.6215 32.1181 32.6971 31.9775C32.8526 31.6865 32.7428 31.3237 32.4518 31.1681L32.4524 31.168Z"/><path fill="#633001" fill-rule="evenodd" d="M32.4522 31.1684C32.4523 31.1684 32.4524 31.1685 32.4525 31.1686C32.5608 31.2266 32.6439 31.3134 32.6975 31.4144C32.7878 31.5845 32.7945 31.7951 32.697 31.9775C32.6215 32.1182 32.4955 32.2214 32.3429 32.2678C32.1892 32.3151 32.0277 32.2985 31.8871 32.2229C31.1918 31.8508 30.3725 31.8044 29.6411 32.095C28.7589 32.4458 28.1243 33.248 27.9855 34.1893C27.9508 34.4244 27.781 34.6162 27.5518 34.679C27.4722 34.7009 27.3893 34.7061 27.3068 34.6937C26.9805 34.6457 26.7544 34.3413 26.8024 34.015C27.0034 32.6528 27.9221 31.4913 29.2001 30.9833C30.1519 30.6054 31.2047 30.621 32.1384 31.0177C32.2445 31.0627 32.349 31.1127 32.4516 31.1676C32.4517 31.1676 32.4519 31.1677 32.452 31.1678C32.4521 31.1678 32.4523 31.1679 32.4524 31.168L32.4518 31.1682C32.4519 31.1682 32.452 31.1683 32.4522 31.1684ZM32.6353 30.8724C32.6291 30.8686 32.6228 30.8649 32.6163 30.8615C31.5195 30.2749 30.2271 30.2015 29.0718 30.6603L29.0718 30.6603C27.6783 31.2142 26.6776 32.4795 26.4586 33.9643L26.4585 33.9644C26.3827 34.4804 26.7396 34.9613 27.2558 35.0375C27.3866 35.0571 27.5181 35.0487 27.6437 35.0143C28.0059 34.9149 28.2745 34.6115 28.3294 34.24L28.3294 34.24C28.4501 33.4213 29.0027 32.7229 29.7694 32.418M32.6353 30.8724C33.081 31.1242 33.246 31.6879 33.0035 32.1414L33.0032 32.142C32.8844 32.3633 32.6849 32.527 32.4445 32.6002C32.2012 32.675 31.9441 32.648 31.7228 32.5293C31.1178 32.2055 30.4056 32.1653 29.7695 32.418" clip-rule="evenodd"/><path fill="#633001" d="M28.1775 37.6689C27.8125 37.5976 27.4586 37.8352 27.3874 38.2002C27.2984 38.6566 27.0781 38.8855 26.6035 39.0156C26.2857 39.1028 25.9521 39.0611 25.6665 38.8992C25.3794 38.7349 25.1734 38.4692 25.0863 38.1513C24.988 37.7928 24.6172 37.5816 24.2587 37.6799C23.9002 37.7782 23.689 38.149 23.7873 38.5075C23.8744 38.8253 23.8327 39.1589 23.6708 39.4445C23.5065 39.7316 23.2408 39.9376 22.923 40.0247C22.4484 40.1548 22.143 40.07 21.8328 39.723C21.5854 39.4454 21.1598 39.4215 20.8822 39.6689C20.6046 39.9164 20.5807 40.3419 20.8281 40.6195C21.4825 41.3526 22.3072 41.5893 23.2789 41.3229C23.9431 41.1408 24.4967 40.7115 24.8404 40.1108C24.8599 40.0766 24.8783 40.0417 24.8967 40.0069C24.9305 40.0283 24.9649 40.0487 24.9994 40.069C25.5992 40.4093 26.2954 40.4968 26.9588 40.3149C27.9304 40.0485 28.5191 39.4244 28.7082 38.46C28.7794 38.0951 28.5418 37.7412 28.1768 37.67L28.1775 37.6689Z"/><path fill="#633001" fill-rule="evenodd" d="M28.1068 37.6588C27.7678 37.6288 27.4539 37.8588 27.3872 38.2001C27.2982 38.6566 27.0779 38.8855 26.6034 39.0156C26.2855 39.1028 25.9519 39.0611 25.6664 38.8991C25.3793 38.7348 25.1733 38.4691 25.0861 38.1513C24.9878 37.7928 24.6171 37.5816 24.2586 37.6799C23.9 37.7782 23.6888 38.1489 23.7871 38.5075C23.8743 38.8253 23.8326 39.1589 23.6706 39.4444C23.5063 39.7316 23.2406 39.9375 22.9228 40.0247C22.4482 40.1548 22.1429 40.07 21.8327 39.723C21.5852 39.4454 21.1597 39.4215 20.8821 39.6689C20.6045 39.9163 20.5805 40.3419 20.828 40.6195C21.4824 41.3526 22.3071 41.5892 23.2787 41.3228C23.9429 41.1407 24.4966 40.7115 24.8403 40.1107C24.8488 40.0958 24.8571 40.0807 24.8653 40.0655C24.8758 40.0461 24.8861 40.0267 24.8963 40.0072L24.8965 40.0068C24.9152 40.0187 24.9341 40.0302 24.9531 40.0416C24.9684 40.0508 24.9838 40.0599 24.9992 40.069C25.599 40.4092 26.2953 40.4967 26.9586 40.3149C27.9303 40.0485 28.519 39.4243 28.708 38.46C28.7748 38.1178 28.5701 37.7854 28.2435 37.6865C28.223 37.6803 28.202 37.675 28.1806 37.6707C28.1795 37.6705 28.1783 37.6702 28.1771 37.67C28.177 37.67 28.1768 37.67 28.1767 37.6699L28.1773 37.6688C28.1772 37.6688 28.1771 37.6688 28.1769 37.6687C28.1758 37.6685 28.1746 37.6683 28.1735 37.6681C28.1512 37.6639 28.1289 37.6608 28.1068 37.6588ZM28.277 37.6276L28.2805 37.6215L28.19 37.6038C27.7892 37.5256 27.4005 37.7865 27.3222 38.1875L27.3222 38.1875C27.2793 38.4076 27.2061 38.5658 27.0921 38.6844C26.9778 38.8033 26.8165 38.8885 26.5858 38.9517C26.2849 39.0342 25.9694 38.9948 25.6992 38.8416C25.4273 38.686 25.2325 38.4346 25.15 38.1338C25.042 37.74 24.6348 37.508 24.241 37.616C23.8472 37.724 23.6153 38.1312 23.7232 38.525C23.8057 38.8259 23.7663 39.1414 23.6131 39.4116C23.4575 39.6835 23.2062 39.8783 22.9053 39.9608C22.6747 40.024 22.4927 40.0329 22.3338 39.9889C22.1753 39.9451 22.0317 39.8463 21.8821 39.6789C21.6102 39.374 21.1428 39.3478 20.838 39.6195C20.533 39.8913 20.5068 40.3587 20.7785 40.6636L20.7786 40.6636C21.1128 41.038 21.493 41.2882 21.9161 41.4096C22.3392 41.531 22.8008 41.5225 23.2962 41.3867C23.9774 41.2 24.5454 40.7595 24.8978 40.1436L24.8978 40.1435C24.906 40.1291 24.914 40.1146 24.9219 40.1001C24.9365 40.1089 24.9511 40.1175 24.9655 40.126L24.9655 40.126L24.9665 40.1266C25.5815 40.4755 26.2958 40.5653 26.9761 40.3787C27.4716 40.2429 27.873 40.0148 28.175 39.6946C28.477 39.3743 28.6764 38.9653 28.773 38.4728L28.773 38.4727C28.8454 38.1019 28.6275 37.7415 28.277 37.6276Z" clip-rule="evenodd"/><path fill="#FEDC90" d="M27.4673 48.935C18.5253 51.3865 7.42743 49.501 5.68607 43.2099C5.68874 43.2197 5.69142 43.2296 5.69412 43.2394C7.83074 51.0326 16.0513 55.0949 28.24 51.7532C40.4287 48.4115 45.4282 40.7248 43.2915 32.9316C43.2888 32.9218 43.2861 32.9119 43.2834 32.9021C44.9939 39.2017 36.4093 46.4834 27.4673 48.935Z"/><ellipse cx="26.007" cy="26.471" fill="#BF5C0C" opacity=".5" rx="11.12" ry="3.225" transform="rotate(-0.330456 26.0071 26.4706)"/><path fill="#FFD800" d="M26.2762 28.5306C28.9427 28.5107 31.6405 27.7222 33.6869 26.8918C35.3718 26.2082 36.0323 24.2797 35.3764 22.5875L29.6045 7.6964C28.3732 4.51954 23.8761 4.52458 22.6339 7.7042L16.8145 22.5999C16.1289 24.3547 16.8569 26.3458 18.6206 26.998C20.7872 27.7993 23.6034 28.5504 26.2762 28.5306Z"/><path fill="#FFD800" fill-rule="evenodd" d="M25.5161 5.30408C27.3502 6.88607 29.0705 9.29115 30.5721 12.7698C31.2958 14.4463 31.9065 15.6828 32.4207 16.5392L27.7148 6.2124C27.3042 5.31148 26.3167 5.00897 25.5161 5.30408Z" clip-rule="evenodd"/><path fill="#BF5C0C" fill-rule="evenodd" d="M35.2367 26.2007C33.1527 27.2207 29.6889 28.505 26.2764 28.5303C22.858 28.5557 19.2053 27.3201 16.9766 26.3313C16.1822 25.9789 15.8438 25.063 16.1508 24.248L17.5286 20.5902C19.5829 30.1108 31.4442 26.5111 36.113 24.6874C36.141 25.3109 35.825 25.9129 35.2367 26.2007Z" clip-rule="evenodd" opacity=".5"/><path stroke="#633001" stroke-width="1.6" d="M26.276 28.5306C29.6702 28.5053 33.1151 27.2347 35.2026 26.2174C35.9731 25.842 36.2758 24.9311 35.9563 24.1376L27.7452 3.74472C27.1597 2.29057 25.1001 2.29283 24.5095 3.74827L16.2008 24.2257C15.8671 25.0483 16.2016 25.9894 17.0119 26.3474C19.2438 27.3334 22.8758 28.5558 26.276 28.5306Z"/><circle cx="26.034" cy="5.202" r="3.384" fill="#FFD800" stroke="#633001" stroke-width="1.7"/><path fill="#1FC7D4" d="M25.8891 23.9197C24.9707 23.9197 24.1363 23.8357 23.3859 23.6677C22.6355 23.4997 22.0307 23.2589 21.5715 22.9453C21.4483 22.8669 21.3867 22.7661 21.3867 22.6429C21.3867 22.5645 21.4259 22.4469 21.5043 22.2901L22.2267 21.0469C22.3163 20.9125 22.4115 20.8453 22.5123 20.8453C22.5571 20.8453 22.6691 20.8845 22.8483 20.9629C23.1507 21.1197 23.5259 21.2541 23.9739 21.3661C24.4219 21.4669 24.8811 21.5173 25.3515 21.5173C26.6843 21.5173 27.3507 21.0693 27.3507 20.1733C27.3507 19.4229 26.8691 19.0477 25.9059 19.0477H24.5787C24.2539 19.0477 24.0243 18.9805 23.8899 18.8461C23.7555 18.7117 23.6883 18.4989 23.6883 18.2077V17.4517C23.6883 17.1717 23.7555 16.9645 23.8899 16.8301C24.0243 16.6957 24.2539 16.6285 24.5787 16.6285H25.7211C26.1691 16.6285 26.4995 16.5333 26.7123 16.3429C26.9251 16.1413 27.0315 15.8669 27.0315 15.5197C27.0315 14.7805 26.4547 14.4109 25.3011 14.4109C24.4723 14.4109 23.7107 14.5901 23.0163 14.9485C22.9827 14.9709 22.9267 14.9989 22.8483 15.0325C22.7699 15.0661 22.7083 15.0829 22.6635 15.0829C22.5627 15.0829 22.4731 15.0101 22.3947 14.8645L21.6891 13.6381C21.6107 13.4813 21.5715 13.3581 21.5715 13.2685C21.5715 13.1565 21.6275 13.0613 21.7395 12.9829C22.1987 12.6693 22.7755 12.4285 23.4699 12.2605C24.1643 12.0813 24.9483 11.9917 25.8219 11.9917C26.7627 11.9917 27.5747 12.1317 28.2579 12.4117C28.9523 12.6917 29.4843 13.0893 29.8539 13.6045C30.2235 14.1197 30.4083 14.7245 30.4083 15.4189C30.4083 15.9005 30.3075 16.3485 30.1059 16.7629C29.9155 17.1773 29.6299 17.5133 29.2491 17.7709C30.2347 18.2749 30.7275 19.1205 30.7275 20.3077C30.7275 21.4165 30.3075 22.2957 29.4675 22.9453C28.6387 23.5949 27.4459 23.9197 25.8891 23.9197Z"/><path fill="#633001" fill-rule="evenodd" d="M21.5041 22.2901L22.2265 21.0469C22.3161 20.9125 22.4113 20.8453 22.5121 20.8453C22.5569 20.8453 22.6689 20.8845 22.8481 20.9629C23.1505 21.1197 23.5257 21.2541 23.9737 21.3661C24.4217 21.4669 24.8809 21.5173 25.3513 21.5173C26.6841 21.5173 27.3505 21.0693 27.3505 20.1733C27.3505 19.4229 26.8689 19.0477 25.9057 19.0477H24.5785C24.2537 19.0477 24.0241 18.9805 23.8897 18.8461C23.7553 18.7117 23.6881 18.4989 23.6881 18.2077V17.4517C23.6881 17.1717 23.7553 16.9645 23.8897 16.8301C24.0241 16.6957 24.2537 16.6285 24.5785 16.6285H25.7209C26.1689 16.6285 26.4993 16.5333 26.7121 16.3429C26.9249 16.1413 27.0313 15.8669 27.0313 15.5197C27.0313 14.7805 26.4545 14.4109 25.3009 14.4109C24.4721 14.4109 23.7105 14.5901 23.0161 14.9485C22.9825 14.9709 22.9265 14.9989 22.8481 15.0325C22.7697 15.0661 22.7081 15.0829 22.6633 15.0829C22.5625 15.0829 22.4729 15.0101 22.3945 14.8645L21.6889 13.6381C21.6105 13.4813 21.5713 13.3581 21.5713 13.2685C21.5713 13.1565 21.6273 13.0613 21.7393 12.9829C22.1985 12.6693 22.7753 12.4285 23.4697 12.2605C24.1641 12.0813 24.9481 11.9917 25.8217 11.9917C26.7625 11.9917 27.5745 12.1317 28.2577 12.4117C28.9521 12.6917 29.4841 13.0893 29.8537 13.6045C30.2233 14.1197 30.4081 14.7245 30.4081 15.4189C30.4081 15.7579 30.3582 16.0801 30.2584 16.3857C30.2163 16.5144 30.1655 16.6402 30.1057 16.7629C29.9153 17.1773 29.6297 17.5133 29.2489 17.7709C29.8184 18.0622 30.2234 18.4674 30.4638 18.9868C30.6395 19.3662 30.7273 19.8065 30.7273 20.3077C30.7273 21.4165 30.3073 22.2957 29.4673 22.9453C28.6385 23.5949 27.4457 23.9197 25.8889 23.9197C24.9705 23.9197 24.1361 23.8357 23.3857 23.6677C22.6353 23.4997 22.0305 23.2589 21.5713 22.9453C21.4481 22.8669 21.3865 22.7661 21.3865 22.6429C21.3865 22.5645 21.4257 22.4469 21.5041 22.2901ZM20.6292 24.3605C20.133 24.0333 19.6865 23.4466 19.6865 22.6429C19.6865 22.1313 19.8985 21.7 19.9836 21.5299L20.0075 21.4822L20.783 20.1475L20.812 20.104C20.9927 19.833 21.4209 19.3159 22.1445 19.1792C22.0209 18.8274 21.9881 18.4825 21.9881 18.2077V17.4517C21.9881 17.2289 22.0107 16.9675 22.0823 16.6959C21.4271 16.4894 21.0629 15.9669 20.9135 15.6992L20.1906 14.4429L20.1684 14.3984C20.0641 14.1898 19.8713 13.7708 19.8713 13.2685C19.8713 12.4763 20.3115 11.9073 20.7644 11.5903L20.7725 11.5846L20.7806 11.5791C21.4469 11.124 22.2222 10.8145 23.0575 10.6113C23.9134 10.3917 24.8395 10.2917 25.8217 10.2917C26.9237 10.2917 27.9636 10.4548 28.8979 10.8369C29.8346 11.2154 30.6467 11.7935 31.235 12.6136C31.8317 13.4453 32.1081 14.4046 32.1081 15.4189C32.1081 16.1402 31.9564 16.8382 31.6425 17.49C31.6285 17.5201 31.6142 17.5499 31.5996 17.5795C31.6803 17.6904 31.756 17.8063 31.8265 17.9272C32.2536 18.66 32.4273 19.4774 32.4273 20.3077C32.4273 21.914 31.786 23.2993 30.5115 24.2869C29.2707 25.2572 27.649 25.6197 25.8889 25.6197C24.8689 25.6197 23.9075 25.5266 23.0143 25.3267C22.1358 25.13 21.3168 24.826 20.6292 24.3605Z" clip-rule="evenodd"/></g></g><defs><filter id="filter0_i_622_7305" width="48" height="48" x="0" y="9.668" color-interpolation-filters="sRGB" filterUnits="userSpaceOnUse"><feFlood flood-opacity="0" result="BackgroundImageFix"/><feBlend in="SourceGraphic" in2="BackgroundImageFix" mode="normal" result="shape"/><feColorMatrix in="SourceAlpha" result="hardAlpha" type="matrix" values="0 0 0 0 0 0 0 0 0 0 0 0 0 0 0 0 0 0 127 0"/><feOffset dy="-2"/><feComposite in2="hardAlpha" k2="-1" k3="1" operator="arithmetic"/><feColorMatrix type="matrix" values="0 0 0 0 0 0 0 0 0 0 0 0 0 0 0 0 0 0 0.1 0"/><feBlend in2="shape" mode="normal" result="effect1_innerShadow_622_7305"/></filter><clipPath id="clip0_622_7305"><rect width="44" height="54" fill="#fff" transform="translate(2 0.667725)"/></clipPath><clipPath id="clip1_622_7305"><rect width="49.557" height="58.808" fill="#fff" transform="translate(-2 -1.33228)"/></clipPath></defs></svg>