<svg width="17" height="17" viewBox="0 0 17 17" fill="none" xmlns="http://www.w3.org/2000/svg">
<path opacity="0.4" d="M8.40385 0C3.7614 0 0 3.76411 0 8.40385C0 13.0436 3.7614 16.8077 8.40385 16.8077C13.0463 16.8077 16.8077 13.0463 16.8077 8.40385C16.8077 3.7614 13.0463 0 8.40385 0ZM8.40385 3.72751C8.68533 3.72751 8.9605 3.81098 9.19455 3.96737C9.4286 4.12376 9.61102 4.34604 9.71874 4.6061C9.82646 4.86616 9.85465 5.15232 9.79973 5.4284C9.74481 5.70448 9.60927 5.95808 9.41022 6.15712C9.21118 6.35616 8.95758 6.49171 8.6815 6.54663C8.40542 6.60154 8.11926 6.57336 7.8592 6.46564C7.59914 6.35792 7.37686 6.1755 7.22047 5.94145C7.06408 5.7074 6.98061 5.43223 6.98061 5.15074C6.98061 4.77328 7.13056 4.41127 7.39747 4.14437C7.66438 3.87746 8.02638 3.72751 8.40385 3.72751ZM10.3015 12.3347C10.3015 12.4425 10.2586 12.546 10.1824 12.6222C10.1061 12.6985 10.0027 12.7413 9.89485 12.7413H6.91284C6.80499 12.7413 6.70156 12.6985 6.6253 12.6222C6.54905 12.546 6.5062 12.4425 6.5062 12.3347V11.5214C6.5062 11.4136 6.54905 11.3101 6.6253 11.2339C6.70156 11.1576 6.80499 11.1148 6.91284 11.1148H7.31948V8.94603H6.91284C6.80499 8.94603 6.70156 8.90319 6.6253 8.82693C6.54905 8.75067 6.5062 8.64724 6.5062 8.53939V7.72612C6.5062 7.61827 6.54905 7.51484 6.6253 7.43858C6.70156 7.36232 6.80499 7.31948 6.91284 7.31948H9.08158C9.18942 7.31948 9.29285 7.36232 9.36911 7.43858C9.44537 7.51484 9.48821 7.61827 9.48821 7.72612V11.1148H9.89485C10.0027 11.1148 10.1061 11.1576 10.1824 11.2339C10.2586 11.3101 10.3015 11.4136 10.3015 11.5214V12.3347Z" fill="#EFF2F4"/>
<path d="M8.40399 6.574C8.68548 6.574 8.96065 6.49053 9.1947 6.33415C9.42874 6.17776 9.61116 5.95548 9.71889 5.69542C9.82661 5.43536 9.85479 5.14919 9.79988 4.87311C9.74496 4.59703 9.60941 4.34344 9.41037 4.14439C9.21132 3.94535 8.95773 3.8098 8.68165 3.75489C8.40557 3.69997 8.1194 3.72816 7.85934 3.83588C7.59928 3.9436 7.377 4.12602 7.22062 4.36007C7.06423 4.59412 6.98076 4.86928 6.98076 5.15077C6.98076 5.52824 7.13071 5.89024 7.39761 6.15715C7.66452 6.42406 8.02653 6.574 8.40399 6.574ZM9.89499 11.1148H9.48836V7.72614C9.48836 7.6183 9.44552 7.51487 9.36926 7.43861C9.293 7.36235 9.18957 7.31951 9.08172 7.31951H6.91299C6.80514 7.31951 6.70171 7.36235 6.62545 7.43861C6.54919 7.51487 6.50635 7.6183 6.50635 7.72614V8.53942C6.50635 8.64727 6.54919 8.7507 6.62545 8.82696C6.70171 8.90321 6.80514 8.94606 6.91299 8.94606H7.31962V11.1148H6.91299C6.80514 11.1148 6.70171 11.1576 6.62545 11.2339C6.54919 11.3102 6.50635 11.4136 6.50635 11.5214V12.3347C6.50635 12.4426 6.54919 12.546 6.62545 12.6222C6.70171 12.6985 6.80514 12.7413 6.91299 12.7413H9.89499C10.0028 12.7413 10.1063 12.6985 10.1825 12.6222C10.2588 12.546 10.3016 12.4426 10.3016 12.3347V11.5214C10.3016 11.4136 10.2588 11.3102 10.1825 11.2339C10.1063 11.1576 10.0028 11.1148 9.89499 11.1148Z" fill="black"/>
</svg>
