<svg width="26" height="26" viewBox="0 0 26 26" fill="none" xmlns="http://www.w3.org/2000/svg">
<circle cx="12.8571" cy="12.8571" r="11.8571" stroke="white" stroke-width="2"/>
<path d="M19.6881 8.58516C19.1706 8.81486 18.6146 8.96955 18.031 9.03928C18.6269 8.68243 19.0845 8.11698 19.2996 7.44312C18.7423 7.77361 18.1247 8.01385 17.4673 8.14335C16.9417 7.58258 16.191 7.23218 15.3613 7.23218C13.4986 7.23218 12.1297 8.97014 12.5505 10.7743C10.1533 10.6542 8.02744 9.5057 6.60414 7.76013C5.84825 9.05686 6.21213 10.7532 7.49656 11.6122C7.02427 11.597 6.57894 11.4675 6.19045 11.2513C6.15881 12.5879 7.11686 13.8383 8.50441 14.1166C8.09834 14.2268 7.6536 14.2526 7.20123 14.1658C7.56805 15.312 8.63332 16.1458 9.89665 16.1692C8.68371 17.1203 7.15553 17.5451 5.625 17.3646C6.90181 18.1832 8.41886 18.6607 10.0478 18.6607C15.4047 18.6607 18.4312 14.1365 18.2483 10.0788C18.812 9.67153 19.3013 9.1635 19.6881 8.58516Z" fill="white"/>
</svg>
