<?xml version="1.0" encoding="utf-8"?>
<!-- Generator: Adobe Illustrator 25.3.1, SVG Export Plug-In . SVG Version: 6.00 Build 0)  -->
<svg version="1.1" id="Layer_1" xmlns="http://www.w3.org/2000/svg" xmlns:xlink="http://www.w3.org/1999/xlink" x="0px" y="0px"
	 viewBox="0 0 275.9 280.2" style="enable-background:new 0 0 275.9 280.2;" xml:space="preserve">
<style type="text/css">
	.st0{fill:#17181B;stroke:#B5BD00;stroke-width:3;stroke-miterlimit:10;}
	.st1{fill:#B5BD00;}
</style>
<circle class="st0" cx="138" cy="140.1" r="126.9"/>
<path class="st1" d="M219.5,162c-3.6,2.4-8.2,2.8-12,0.8c-4.4-2.5-6.8-8.4-6.8-16.4v-24.6c0-11.8-4.7-20.2-12.5-22.5
	c-13.2-3.9-23.1,12.3-26.8,18.4l-23.4,37.8v-46.2c-0.3-10.6-3.7-17-10.3-18.9c-4.3-1.3-10.8-0.8-17.1,8.9l-52.2,83.9
	c-7-13.3-10.6-28.1-10.5-43.1c0-50.6,40.4-91.7,90.2-91.7s90.3,41.1,90.3,91.7v0.3c0,0,0,0.2,0,0.3
	C228.7,150.4,225.5,158.2,219.5,162L219.5,162z M248.4,140.1v-0.5C248,78.1,198.5,28.1,137.9,28.1S27.5,78.3,27.5,140.1
	s49.5,112,110.4,112c27.9,0,54.8-10.7,75-29.9c4.1-3.9,4.3-10.3,0.5-14.4c-3.7-4.1-9.9-4.4-14-0.7l0,0
	c-35.8,33.9-92.2,32.4-126.2-3.3c-0.8-0.9-1.6-1.8-2.4-2.7l47-75.6v34.9c0,16.7,6.5,22.2,11.9,23.8s13.8,0.5,22.5-13.7l26-42.1
	c0.8-1.3,1.6-2.5,2.3-3.5v21.4c0,15.7,6.3,28.2,17.3,34.4c10.2,5.5,22.6,5,32.4-1.3C242.4,171.6,249,157.3,248.4,140.1L248.4,140.1z
	"/>
</svg>
