<?xml version="1.0" encoding="utf-8"?>
<!-- Generator: Adobe Illustrator 25.3.1, SVG Export Plug-In . SVG Version: 6.00 Build 0)  -->
<svg version="1.1" id="Layer_1" xmlns="http://www.w3.org/2000/svg" xmlns:xlink="http://www.w3.org/1999/xlink" x="0px" y="0px"
	 viewBox="0 0 285 285" style="enable-background:new 0 0 285 285;" xml:space="preserve">
<style type="text/css">
	.st0{fill:#B5BD00;}
	.st1{fill:#101820;}
	.st2{fill:#F1F2F1;}
</style>
<g id="Coin_Gecko_AI">
	<path class="st0" d="M280,142.4c0.3,76.2-61.2,138.3-137.4,138.6C66.4,281.3,4.3,219.8,4,143.6C3.7,67.4,65.2,5.3,141.4,5l0,0
		C217.6,4.7,279.7,66.2,280,142.4C280,142.4,280,142.4,280,142.4z"/>
	<path class="st1" d="M269.6,142.4c0.3,70.5-56.5,127.9-127,128.3c-70.5,0.3-127.9-56.5-128.3-127C14,73.2,70.9,15.8,141.4,15.4
		c0,0,0,0,0,0l0,0C211.9,15.1,269.3,72,269.6,142.4z"/>
	<path class="st2" d="M144.4,23.7c8.1-1.4,16.4-1.4,24.5,0c8.2,1.3,16.1,4,23.4,7.9c7.3,4,13.6,9.4,19.8,14.5s12.5,10.3,18.4,16
		c6.1,5.6,11.3,12,15.7,19c4.5,6.9,8.2,14.4,11,22.2c5.3,15.7,7.2,32.5,4.5,48.6H261c-2.7-15.9-6.3-31.2-12-45.6
		c-2.7-7.3-5.8-14.4-9.4-21.2c-3.8-6.9-7.9-13.6-12.4-20c-4.6-6.5-10.2-12.2-16.6-16.8c-6.5-4.6-13.9-7.6-21.1-10.5
		S175,32,167.5,29.8s-15.2-3.8-23.1-5.4L144.4,23.7z"/>
	<path class="st0" d="M206.7,97.4c-9.3-2.7-18.9-6.5-28.6-10.3c-0.6-2.4-2.7-5.5-7.1-9.2c-6.4-5.5-18.3-5.4-28.6-2.9
		c-11.4-2.7-22.6-3.6-33.4-1c-88.3,24.3-38.2,83.6-70.6,143.2c4.6,9.8,54.3,66.8,126.2,51.5c0,0-24.6-59.1,30.9-87.4
		C240.6,158.2,273.1,115.5,206.7,97.4z"/>
	<path class="st2" d="M217.6,136.2c0,3-2.4,5.4-5.3,5.4c-3,0-5.4-2.4-5.4-5.3c0-3,2.4-5.4,5.3-5.4
		C215.2,130.9,217.6,133.2,217.6,136.2z"/>
	<path class="st0" d="M142.5,74.9c6.4,0.5,29.7,8,35.7,12.1C173.2,72.5,156.3,70.6,142.5,74.9L142.5,74.9z"/>
	<path class="st2" d="M148.6,111.6c0,13.6-11,24.7-24.7,24.7s-24.7-11-24.7-24.7c0-13.6,11-24.7,24.7-24.7l0,0
		C137.5,86.9,148.6,97.9,148.6,111.6L148.6,111.6z"/>
	<path class="st1" d="M141.3,111.8c0,9.6-7.8,17.4-17.4,17.4s-17.4-7.8-17.4-17.4s7.8-17.4,17.4-17.4l0,0l0,0
		C133.5,94.4,141.3,102.2,141.3,111.8z"/>
	<path class="st0" d="M237.6,147.1c-20,14.1-42.7,24.8-75,24.8c-15.1,0-18.2-16-28.1-8.2c-5.2,4.1-23.3,13.1-37.7,12.4
		S59,167,52.5,136.2c-2.6,30.8-3.9,53.4-15.5,79.4c23,36.8,77.8,65.2,127.6,53c-5.3-37.3,27.4-73.9,45.7-92.6
		C217.3,168.9,230.6,157.3,237.6,147.1L237.6,147.1z"/>
	<path class="st1" d="M236.9,148c-6.2,5.7-13.6,9.9-21.1,13.6c-7.6,3.6-15.5,6.5-23.7,8.6c-8.2,2.1-16.7,3.7-25.3,2.9
		s-17.4-3.7-23.1-10.2l0.3-0.3c7,4.5,15.1,6.1,23.1,6.4c8.1,0.3,16.3-0.4,24.3-2c8.1-1.7,16-4.1,23.6-7.3c7.6-3.1,15.2-6.8,21.7-12
		L236.9,148z"/>
</g>
</svg>
