<?xml version="1.0" encoding="utf-8"?>
<!-- Generator: Adobe Illustrator 25.3.1, SVG Export Plug-In . SVG Version: 6.00 Build 0)  -->
<svg version="1.1" id="Layer_1" xmlns="http://www.w3.org/2000/svg" xmlns:xlink="http://www.w3.org/1999/xlink" x="0px" y="0px"
	 viewBox="0 0 297 297" style="enable-background:new 0 0 297 297;" xml:space="preserve">
<style type="text/css">
	.st0{fill:#101820;stroke:#B5BD00;stroke-width:3;stroke-miterlimit:10;}
	.st1{fill:#B5BD00;}
</style>
<g>
	<path class="st0" d="M149,20L149,20c70.7,0,128,57.3,128,128v0c0,70.7-57.3,128-128,128h0c-70.7,0-128-57.3-128-128v0
		C21,77.3,78.3,20,149,20z"/>
	<path class="st1" d="M82.1,105.6c0.2-2.1-0.6-4.2-2.2-5.6L63.9,80.7v-2.9h49.9l38.5,84.5l33.9-84.5h47.5v2.9l-13.7,13.2
		c-1.2,0.9-1.8,2.4-1.5,3.9v96.7c-0.2,1.5,0.3,3,1.5,3.9l13.4,13.2v2.9h-67.4v-2.9l13.9-13.5c1.4-1.4,1.4-1.8,1.4-3.9v-78.2
		L142.5,214h-5.2l-45-98.1v65.7c-0.4,2.8,0.5,5.5,2.5,7.5l18.1,21.9v2.9H61.7v-2.9l18.1-21.9c1.9-2,2.8-4.8,2.3-7.5V105.6z"/>
</g>
</svg>
