<?xml version="1.0" encoding="utf-8"?>
<!-- Generator: Adobe Illustrator 25.3.1, SVG Export Plug-In . SVG Version: 6.00 Build 0)  -->
<svg version="1.1" xmlns="http://www.w3.org/2000/svg" xmlns:xlink="http://www.w3.org/1999/xlink" x="0px" y="0px"
	 viewBox="0 0 412 558" style="enable-background:new 0 0 412 558;" xml:space="preserve">
<style type="text/css">
	.st0{fill:#B5BD00;}
	.st1{fill:#101820;stroke:#B5BD00;stroke-width:3;stroke-miterlimit:10;}
</style>
<g id="Layer_2">
	<path class="st0" d="M272.2,221.9H137.5c-1.8,0-3.3-1.5-3.3-3.3l0,0c0-1.8,1.5-3.3,3.3-3.3h134.7c1.8,0,3.3,1.5,3.3,3.3l0,0
		C275.5,220.4,274,221.9,272.2,221.9z"/>
	<path class="st0" d="M301.3,268.8H102.6c-1.7,0-3.1-1.4-3.1-3.1l0,0c0-1.7,1.4-3.1,3.1-3.1h198.7c1.7,0,3.1,1.4,3.1,3.1l0,0
		C304.4,267.4,303,268.8,301.3,268.8z"/>
	<path class="st0" d="M323.7,317.4H82.5c-1.7,0-3.1-1.4-3.1-3.1l0,0c0-1.7,1.4-3.1,3.1-3.1h241.2c1.7,0,3.1,1.4,3.1,3.1l0,0
		C326.7,316,325.3,317.4,323.7,317.4z"/>
	<path class="st0" d="M332.5,364.8H75.5c-1.7,0-3.1-1.4-3.1-3.1l0,0c0-1.7,1.4-3.1,3.1-3.1h256.9c1.7,0,3.1,1.4,3.1,3.1l0,0
		C335.5,363.4,334.1,364.8,332.5,364.8z"/>
	<path class="st0" d="M334.5,412.3H77.5c-1.7,0-3.1-1.4-3.1-3.1v0c0-1.7,1.4-3.1,3.1-3.1h256.9c1.7,0,3.1,1.4,3.1,3.1v0
		C337.5,410.9,336.1,412.3,334.5,412.3z"/>
	<path class="st0" d="M300.1,459.7H106c-1.5,0-2.7-1.2-2.7-2.7v-0.8c0-1.5,1.2-2.7,2.7-2.7h194.1c1.5,0,2.7,1.2,2.7,2.7v0.8
		C302.8,458.5,301.6,459.7,300.1,459.7z"/>
	<path class="st0" d="M255.4,173.1H148.1c-1.4,0-2.6-1.2-2.6-2.6v0c0-1.4,1.2-2.6,2.6-2.6h107.3c1.4,0,2.6,1.2,2.6,2.6v0
		C258,171.9,256.8,173.1,255.4,173.1z"/>
	<path class="st0" d="M226.3,120.6h-40.6c-0.9,0-1.6,0.7-1.6,1.6v1.9c0,0.9,0.7,1.6,1.6,1.6h40.6c0.9,0,1.6-0.7,1.6-1.6v-1.9
		C227.9,121.3,227.2,120.6,226.3,120.6z"/>
	<path class="st0" d="M110.7,456.5L110.7,456.5c-2.7,0-4.9-2.2-4.9-4.9V255.3c0-2.7,2.2-4.9,4.9-4.9h0c2.7,0,4.9,2.2,4.9,4.9v196.4
		C115.6,454.3,113.4,456.5,110.7,456.5z"/>
</g>
<g id="Layer_1">
	<g transform="translate(0.000000,558.000000) scale(0.100000,-0.100000)">
		<path class="st1" d="M1505,3983C811,2823,856,2899,782,2760c-74-140-133-290-166-420c-161-638,123-1302,699-1634
			c351-202,798-245,1188-115c133,44,229,92,356,176c318,212,543,549,620,928c66,328,14,676-148,980c-36,68-1251,2247-1257,2253
			C2073,4930,1816,4505,1505,3983z M2136,4401c23-42,83-150,134-241s110-196,130-235c21-38,65-117,98-175c32-58,95-170,139-250
			c116-210,340-608,410-730c196-339,269-576,257-835c-6-149-47-343-89-425c-7-14-23-50-36-80c-45-103-138-232-243-335
			c-118-117-199-178-322-240c-178-91-365-135-574-135c-338,0-623,114-869,346c-121,114-200,220-266,359c-88,183-122,314-130,504
			c-7,153,26,381,70,475c8,17,25,61,39,98c29,79,102,217,201,383c39,66,111,188,160,270c48,83,102,173,120,200c17,28,97,160,177,295
			s203,341,274,459s140,233,153,255c12,23,39,68,59,100l36,59l15-23C2088,4488,2113,4443,2136,4401z"/>
	</g>
</g>
</svg>
