<?xml version="1.0" encoding="utf-8"?>
<!-- Generator: Adobe Illustrator 25.3.1, SVG Export Plug-In . SVG Version: 6.00 Build 0)  -->
<svg version="1.1" id="Layer_1" xmlns="http://www.w3.org/2000/svg" xmlns:xlink="http://www.w3.org/1999/xlink" x="0px" y="0px"
	 viewBox="0 0 2578.9 2578.9" style="enable-background:new 0 0 2578.9 2578.9;" xml:space="preserve">
<style type="text/css">
	.st0{fill:#101820;stroke:#B5BD00;stroke-width:10;stroke-miterlimit:10;}
	.st1{fill:#B5BD00;}
</style>
<circle class="st0" cx="1292.4" cy="1286.5" r="1250"/>
<path class="st1" d="M2126.1,1286.5c0.3,17.1-1.9,34.2-6.4,50.8c-4.5,16.5-11.3,32.4-20.2,47c-8.9,14.6-19.8,27.9-32.5,39.5
	c-12.6,11.6-26.8,21.3-42.2,29c0.3,4.6,0.6,9.2,0.8,13.8c0.4,9.2,0.4,18.3,0,27.5c-0.2,4.6-0.4,9.2-0.8,13.8
	c0,280-326.3,507.5-728.8,507.5s-728.8-227.5-728.8-507.5c-0.3-4.6-0.6-9.2-0.8-13.8c-0.4-9.2-0.4-18.3,0-27.5
	c0.2-4.6,0.4-9.2,0.8-13.8c-48.7-22.4-85-65-99.5-116.5c-14.5-51.6-5.6-106.9,24.4-151.3c29.9-44.4,77.8-73.4,131-79.4
	c53.2-6,106.4,11.7,145.4,48.4c35.8-24.2,73.3-45.9,112.2-64.7c38.9-18.8,79.1-34.8,120.3-47.8c41.2-13,83.3-23,126-29.9
	c42.7-6.9,85.8-10.7,129-11.3l92.5-433.8c1-5,3.1-9.8,6-14c2.9-4.2,6.6-7.8,10.9-10.6c4.3-2.8,9.1-4.7,14.2-5.6
	c5-0.9,10.2-0.8,15.2,0.3l306.3,61.2c30.9-53.1,95.8-75.8,153.1-53.7s90,82.6,77.2,142.7c-12.8,60.1-67.3,101.9-128.7,98.8
	c-61.3-3.2-111.3-50.4-117.9-111.5l-267.5-56.2l-81.2,390c42.7,0.9,85.3,4.9,127.4,11.9c84.4,14.1,166.2,40.2,243.1,77.7
	c38.4,18.7,75.4,40.1,110.7,64.1c25.4-24.4,57.3-40.9,91.9-47.5c34.6-6.7,70.3-3.2,103,10c32.6,13.2,60.8,35.6,81,64.4
	C2113.4,1217.3,2124.8,1251.4,2126.1,1286.5z M885.6,1459.4c6.3,15.2,15.5,28.9,27.1,40.5c11.6,11.6,25.4,20.8,40.5,27.1
	c15.2,6.3,31.4,9.5,47.8,9.5c50.6,0,96.1-30.5,115.5-77.2c19.3-46.7,8.6-100.5-27.1-136.2s-89.5-46.5-136.2-27.1
	c-46.7,19.4-77.2,64.9-77.2,115.5C876.1,1428,879.3,1444.2,885.6,1459.4z M1601.6,1759.5c6.4-6.2,10.1-14.8,10.2-23.7
	c0.1-9-3.3-17.6-9.6-24c-6.2-6.4-14.8-10.1-23.7-10.2c-9-0.1-17.6,3.3-24.8,8.8c-18.8,13.5-38.7,25.3-59.5,35.5
	c-20.8,10.1-42.4,18.5-64.6,25c-22.2,6.5-44.9,11.1-67.9,13.7c-23,2.7-46.2,3.3-69.2,2.1c-23.1,1-46.2,0.1-69.1-2.8
	c-22.9-2.8-45.5-7.7-67.6-14.4c-22.1-6.7-43.6-15.2-64.2-25.6c-20.7-10.3-40.4-22.4-59-36c-6.5-5.3-14.7-8-23.1-7.6
	c-8.4,0.4-16.3,3.9-22.2,9.8c-5.9,5.9-9.4,13.8-9.8,22.2c-0.4,8.4,2.3,16.6,7.6,23.1c22,16.6,45.3,31.2,69.8,43.8
	c24.5,12.6,50,23,76.2,31.2c26.2,8.2,53.2,14.1,80.4,17.7c27.3,3.6,54.8,4.8,82.3,3.7c27.5,1.1,55-0.1,82.3-3.7
	c54.6-7.2,107.6-23.7,156.7-48.8c24.5-12.6,47.8-27.2,69.8-43.8L1601.6,1759.5z M1578.6,1546.5c16.9,0.2,33.8-3.1,49.4-9.6
	c15.7-6.5,29.8-16.2,41.6-28.3c11.8-12.2,21-26.6,27.1-42.4c6.1-15.8,8.8-32.7,8.2-49.7c0-50.6-30.5-96.1-77.2-115.5
	c-46.7-19.3-100.5-8.6-136.2,27.1c-35.8,35.8-46.5,89.5-27.1,136.2c19.4,46.7,64.9,77.2,115.5,77.2L1578.6,1546.5z"/>
</svg>
