<?xml version="1.0" encoding="utf-8"?>
<!-- Generator: Adobe Illustrator 25.3.1, SVG Export Plug-In . SVG Version: 6.00 Build 0)  -->
<svg version="1.1" id="Layer_1" xmlns="http://www.w3.org/2000/svg" xmlns:xlink="http://www.w3.org/1999/xlink" x="0px" y="0px"
	 viewBox="0 0 250 250" style="enable-background:new 0 0 250 250;" xml:space="preserve">
<style type="text/css">
	.st0{fill:#B5BD00;}
	.st1{fill:#101820;stroke:#B5BD00;stroke-width:3;stroke-miterlimit:10;}
</style>
<circle class="st0" cx="125" cy="130.1" r="86.2"/>
<path class="st1" d="M125,10C61.6,10,10,61.6,10,125s51.6,115,115,115s115-51.6,115-115S188.4,10,125,10z M181.2,102.6
	c0,1.2,0.1,2.4,0.1,3.6c0,36.6-27.9,78.8-78.8,78.8c-15.6,0-30.2-4.6-42.5-12.4c2.2,0.3,4.4,0.4,6.6,0.4c13,0,24.9-4.4,34.4-11.8
	c-12.1-0.2-22.3-8.2-25.9-19.2c1.7,0.3,3.4,0.5,5.2,0.5c2.5,0,5-0.3,7.3-1c-12.7-2.6-22.2-13.7-22.2-27.2c0-0.1,0-0.2,0-0.3
	c3.7,2.1,8,3.3,12.5,3.5c-7.4-5-12.3-13.4-12.3-23.1c0-5.1,1.4-9.8,3.7-13.9c13.7,16.8,34.1,27.8,57.1,28.9c-0.5-2-0.7-4.1-0.7-6.3
	c0-15.3,12.4-27.7,27.7-27.7c8,0,15.2,3.4,20.2,8.7c6.3-1.2,12.2-3.5,17.6-6.7c-2.1,6.5-6.5,11.9-12.2,15.3
	c5.6-0.7,10.9-2.2,15.9-4.4C191.3,93.8,186.6,98.7,181.2,102.6z"/>
</svg>
