<svg width="14" height="18" viewBox="0 0 14 18" fill="none" xmlns="http://www.w3.org/2000/svg">
<circle cx="7" cy="9" r="6.5" stroke="#F5635A"/>
<path d="M7.00908 10.3476C6.73708 10.3476 6.58908 10.1956 6.56508 9.89161L6.21708 5.47561C6.20108 5.22761 6.26508 5.01961 6.40908 4.85161C6.56108 4.68361 6.75708 4.59961 6.99708 4.59961C7.23708 4.59961 7.43308 4.68361 7.58508 4.85161C7.73708 5.01961 7.80108 5.22761 7.77708 5.47561L7.44108 9.89161C7.41708 10.1956 7.27308 10.3476 7.00908 10.3476ZM6.92508 12.9996C6.69308 12.9996 6.51308 12.9396 6.38508 12.8196C6.26508 12.6916 6.20508 12.5116 6.20508 12.2796V12.0756C6.20508 11.8436 6.26508 11.6676 6.38508 11.5476C6.51308 11.4196 6.69308 11.3556 6.92508 11.3556H7.08108C7.31308 11.3556 7.48908 11.4196 7.60908 11.5476C7.73708 11.6676 7.80108 11.8436 7.80108 12.0756V12.2796C7.80108 12.5116 7.73708 12.6916 7.60908 12.8196C7.48908 12.9396 7.31308 12.9996 7.08108 12.9996H6.92508Z" fill="#F5635A"/>
</svg>
