<svg xmlns="http://www.w3.org/2000/svg" width="192" height="192" fill="none" viewBox="0 0 192 192"><mask id="mask0_520_268" style="mask-type:alpha" width="154" height="154" x="19" y="19" maskUnits="userSpaceOnUse"><path fill="#EFF3F5" d="M19 79.8C19 58.518 19 47.877 23.1418 39.7484C26.7849 32.5982 32.5982 26.7849 39.7484 23.1418C47.877 19 58.518 19 79.8 19H112.2C133.482 19 144.123 19 152.252 23.1418C159.402 26.7849 165.215 32.5982 168.858 39.7484C173 47.877 173 58.518 173 79.8V112.2C173 133.482 173 144.123 168.858 152.252C165.215 159.402 159.402 165.215 152.252 168.858C144.123 173 133.482 173 112.2 173H79.8C58.518 173 47.877 173 39.7484 168.858C32.5982 165.215 26.7849 159.402 23.1418 152.252C19 144.123 19 133.482 19 112.2V79.8Z"/></mask><g mask="url(#mask0_520_268)"><g clip-path="url(#clip0_520_268)"><rect width="166" height="166" fill="#1FC7D4" transform="translate(10 15)"/><path fill="#633001" d="M102.38 70.6546C111.098 68.2644 116.89 73.6678 119.355 82.66C121.315 89.8064 120.577 105.401 120.195 111.499C120.162 112.163 120.387 112.813 120.82 113.317C121.256 113.82 121.868 114.139 122.528 114.206C130.27 115.047 153.647 119.48 159.98 142.579C166.65 166.905 150.732 190.995 112.105 201.616L112.009 201.643C73.3633 212.187 47.3883 199.602 40.719 175.276C34.0496 150.949 52.256 136.435 58.4648 131.77C58.9985 131.375 59.3619 130.789 59.481 130.134C59.5962 129.479 59.4579 128.806 59.0913 128.252C55.6526 123.201 47.0651 110.163 45.1058 103.016C42.6405 94.0242 44.8802 86.419 53.5847 84.0326C66.1335 80.5921 74.1296 97.5068 79.5834 116.524C79.7558 117.138 80.1638 117.651 80.7169 117.964C81.2667 118.281 81.9199 118.361 82.5356 118.196L94.8965 114.807C95.51 114.635 96.0273 114.234 96.3427 113.68C96.6592 113.131 96.7479 112.479 96.5833 111.863C91.5802 92.7246 89.8276 74.0961 102.376 70.6557M101.571 67.7196C97.7917 68.7559 94.8637 70.9644 92.8654 74.2839C91.1693 77.1018 90.1576 80.7653 89.8598 85.1675C89.3971 92.0078 90.5831 100.801 93.4822 112.036L82.3369 115.092C79.1036 103.951 75.6391 95.7818 71.7521 90.132C69.2508 86.4972 66.5127 83.8638 63.6162 82.303C60.2043 80.4667 56.5575 80.0608 52.7797 81.0965C47.7081 82.4869 44.0965 85.5332 42.3333 89.91C40.7854 93.752 40.7278 98.5619 42.1703 103.823C44.1242 110.95 51.7516 122.858 56.3144 129.583C52.8967 132.193 46.8257 137.484 42.2796 145.044C39.6113 149.481 37.8196 154.123 36.9519 158.841C35.9136 164.488 36.193 170.289 37.7815 176.083C39.5749 182.625 42.6671 188.377 46.9693 193.176C51.3047 198.013 56.7794 201.777 63.2404 204.365C69.7937 206.989 77.2744 208.36 85.4743 208.44C93.9338 208.522 103.131 207.225 112.811 204.584L112.911 204.556C122.586 201.895 131.161 198.324 138.396 193.939C145.409 189.689 151.145 184.694 155.443 179.094C159.679 173.575 162.468 167.542 163.732 161.168C164.985 154.844 164.712 148.321 162.918 141.778C161.329 135.984 158.613 130.851 154.842 126.522C151.691 122.906 147.782 119.825 143.228 117.37C135.451 113.176 127.535 111.726 123.263 111.229C123.756 103.119 124.246 88.9839 122.292 81.859C120.85 76.5975 118.351 72.4866 115.063 69.9744C111.316 67.1083 106.652 66.331 101.576 67.7225L101.571 67.7196Z"/><path fill="#633001" fill-rule="evenodd" d="M116.165 111.274L116.167 111.247C116.355 108.238 116.629 102.912 116.617 97.482C116.604 91.9107 116.284 86.7215 115.463 83.7272C114.368 79.7346 112.665 77.0508 110.761 75.5951C109.02 74.2641 106.723 73.6493 103.447 74.5472L102.644 71.615L102.64 71.6161L103.444 74.5482C101.337 75.1258 99.9358 76.2674 98.9318 77.9357C97.8591 79.7181 97.153 82.2661 96.9249 85.6446C96.4659 92.4412 98.0086 101.355 100.486 110.834C100.924 112.487 100.682 114.228 99.8442 115.688C98.9961 117.171 97.6072 118.238 95.9884 118.693L95.9761 118.696L83.5904 122.092L83.578 122.095C81.9647 122.527 80.2144 122.328 78.7156 121.469C77.2633 120.643 76.1681 119.277 75.7013 117.629C72.9999 108.211 69.7808 99.7563 65.9196 94.1446C64.0003 91.3552 62.0932 89.5237 60.2612 88.5377C58.5464 87.6148 56.7586 87.3475 54.6519 87.9251C51.3852 88.8207 49.7206 90.5207 48.9 92.5564C48.0032 94.781 47.9044 97.9593 48.9983 101.949C49.8193 104.944 52.19 109.571 55.0203 114.37C57.7789 119.047 60.731 123.488 62.4277 125.98L62.4427 126.002L62.4574 126.025C63.3985 127.447 63.749 129.169 63.4561 130.833L63.4542 130.844L63.4522 130.855C63.1519 132.508 62.2368 133.994 60.8804 135.003C54.6332 139.698 38.7032 152.658 44.6115 174.209C47.6088 185.141 54.8761 193.385 65.8734 197.789C76.9821 202.238 92.1897 202.866 110.942 197.75C110.943 197.75 110.945 197.749 110.947 197.749L111.749 200.69L111.841 200.665M112.009 201.643C112.009 201.643 112.009 201.643 112.009 201.643L112.105 201.616C121.761 198.961 129.997 195.465 136.817 191.333C143.637 187.201 149.039 182.435 153.027 177.24C153.027 177.24 153.027 177.24 153.027 177.24C157.014 172.045 159.586 166.422 160.745 160.577C160.744 160.577 160.745 160.577 160.745 160.577C161.903 154.732 161.648 148.664 159.981 142.583C159.981 142.581 159.981 142.58 159.98 142.579C158.398 136.805 155.75 132.198 152.547 128.521C152.547 128.521 152.547 128.521 152.547 128.521C149.344 124.844 145.587 122.097 141.785 120.047C141.785 120.047 141.785 120.047 141.785 120.047C134.423 116.076 126.896 114.713 122.911 114.249C122.779 114.234 122.652 114.219 122.528 114.206C121.868 114.139 121.256 113.82 120.82 113.317C120.387 112.813 120.162 112.163 120.195 111.499C120.204 111.353 120.214 111.201 120.223 111.044C120.611 104.658 121.267 89.6404 119.356 82.664C119.356 82.6626 119.356 82.6613 119.355 82.66C118.123 78.1657 116.06 74.5679 113.216 72.3916C113.216 72.3912 113.215 72.3909 113.215 72.3905C110.369 70.2132 106.74 69.4592 102.38 70.6546L102.376 70.6557C101.555 70.881 100.794 71.1713 100.092 71.5227C98.1137 72.5128 96.5974 73.9873 95.4739 75.854C95.4739 75.8541 95.4739 75.8539 95.4739 75.854C93.9516 78.3834 93.1504 81.633 92.8979 85.3731C92.4032 92.6992 94.0135 101.908 96.4305 111.275C96.4811 111.471 96.532 111.667 96.5833 111.863C96.7479 112.479 96.6592 113.131 96.3427 113.68C96.0273 114.234 95.51 114.635 94.8965 114.807L82.5356 118.196C81.9199 118.361 81.2667 118.281 80.7169 117.964C80.1638 117.651 79.7558 117.138 79.5834 116.524C79.5275 116.329 79.4712 116.134 79.4148 115.94C76.7182 106.648 73.407 97.9063 69.245 91.8572C69.245 91.8571 69.2451 91.8573 69.245 91.8572C67.1202 88.769 64.7734 86.3825 62.1736 84.9834C62.1731 84.9831 62.1727 84.9829 62.1722 84.9826C59.5732 83.5843 56.7211 83.1727 53.5847 84.0326C49.2324 85.2258 46.4964 87.7237 45.1566 91.0473C43.8167 94.371 43.8732 98.5203 45.1058 103.016C45.106 103.017 45.1062 103.018 45.1064 103.018C47.0195 109.993 55.2436 122.578 58.8344 127.874C58.9229 128.004 59.0086 128.13 59.0913 128.252C59.4579 128.806 59.5962 129.479 59.481 130.134C59.3619 130.789 58.9985 131.375 58.4648 131.77C58.3661 131.844 58.2643 131.921 58.1597 132C54.9313 134.442 48.9567 139.254 44.589 146.433C44.589 146.433 44.589 146.433 44.589 146.433C42.3479 150.116 40.5298 154.422 39.723 159.351C39.723 159.351 39.723 159.351 39.723 159.351C38.9481 164.085 39.1063 169.394 40.719 175.276C40.7191 175.277 40.7193 175.277 40.7195 175.278C42.3871 181.359 45.2612 186.707 49.2382 191.142C53.215 195.578 58.2944 199.102 64.373 201.536C64.3729 201.536 64.3731 201.536 64.373 201.536C70.4519 203.97 77.5303 205.315 85.5039 205.392C93.4768 205.47 102.345 204.279 112.005 201.644C112.006 201.644 112.008 201.643 112.009 201.643ZM112.811 204.584C103.131 207.225 93.9338 208.522 85.4743 208.44C77.2744 208.36 69.7937 206.989 63.2404 204.365C56.7794 201.777 51.3047 198.013 46.9693 193.176C42.6671 188.377 39.5749 182.625 37.7815 176.083C37.7813 176.083 37.7811 176.082 37.7809 176.081C36.1929 170.288 35.9137 164.488 36.9519 158.841C37.8196 154.123 39.6113 149.481 42.2796 145.044C46.4961 138.032 52.0244 132.973 55.5308 130.193C55.5432 130.183 55.5555 130.174 55.5679 130.164C55.8285 129.958 56.0778 129.764 56.3144 129.583C56.3126 129.581 56.3108 129.578 56.309 129.575C56.3043 129.569 56.2997 129.562 56.295 129.555C56.1286 129.31 55.9581 129.057 55.7841 128.799C55.7747 128.785 55.7654 128.771 55.756 128.757C51.1539 121.919 44.0465 110.667 42.1703 103.823C42.1701 103.823 42.1699 103.822 42.1697 103.821C40.7278 98.5607 40.7856 93.7516 42.3333 89.91C44.0965 85.5332 47.7081 82.4869 52.7797 81.0965C56.5575 80.0608 60.2043 80.4667 63.6162 82.303C66.5127 83.8638 69.2508 86.4972 71.7521 90.132C75.5278 95.62 78.9048 103.485 82.0585 114.142C82.0696 114.179 82.0807 114.217 82.0918 114.254C82.1736 114.532 82.2553 114.811 82.3369 115.092L93.4822 112.036C93.482 112.035 93.4818 112.034 93.4815 112.033C93.4087 111.751 93.3369 111.47 93.2662 111.191C93.2566 111.153 93.247 111.115 93.2374 111.077C90.5165 100.299 89.4103 91.8119 89.8598 85.1675C90.1576 80.7653 91.1693 77.1018 92.8654 74.2839C94.8637 70.9644 97.7917 68.7559 101.571 67.7196L101.576 67.7225C106.652 66.331 111.316 67.1083 115.063 69.9744C118.35 72.4859 120.849 76.5955 122.291 81.8551C122.292 81.8564 122.292 81.8577 122.292 81.859C124.168 88.7005 123.791 102.006 123.322 110.233C123.321 110.25 123.32 110.267 123.319 110.283C123.301 110.594 123.283 110.898 123.265 111.194C123.264 111.203 123.264 111.211 123.263 111.219C123.263 111.222 123.263 111.225 123.263 111.229C123.558 111.263 123.871 111.302 124.201 111.346C124.216 111.348 124.232 111.35 124.248 111.353C128.682 111.951 136.015 113.48 143.228 117.37C147.782 119.825 151.691 122.906 154.842 126.522C158.612 130.85 161.328 135.982 162.916 141.774C162.917 141.775 162.917 141.776 162.918 141.778C164.712 148.321 164.985 154.844 163.732 161.168C162.468 167.542 159.679 173.575 155.443 179.094C151.145 184.694 145.409 189.689 138.396 193.939C131.162 198.324 122.588 201.895 112.913 204.556C112.913 204.556 112.912 204.556 112.911 204.556L112.811 204.584ZM43.9638 195.87C39.2221 190.58 35.8391 184.264 33.8889 177.15C32.1476 170.799 31.8291 164.383 32.9823 158.111C33.9444 152.88 35.9221 147.784 38.8206 142.964C42.587 136.701 47.2926 131.916 50.9192 128.775C48.9864 125.838 46.7942 122.377 44.7695 118.874C42.035 114.143 39.4033 108.996 38.2777 104.891C36.6754 99.0459 36.6209 93.2882 38.5895 88.4017C40.8824 82.71 45.5856 78.8837 51.7125 77.2039C56.4779 75.8975 61.193 76.4152 65.529 78.7488L65.5309 78.7498C69.1491 80.6996 72.3303 83.8524 75.077 87.8439C78.8309 93.3002 82.0894 100.695 85.0637 110.159L88.6216 109.183C86.3544 99.524 85.3859 91.5016 85.8328 84.8951C86.1598 80.0621 87.2874 75.7246 89.4073 72.2025C91.9468 67.9841 95.7366 65.1342 100.504 63.8271L102.118 63.3846L102.2 63.4311C107.735 62.3378 113.089 63.3832 117.515 66.7686C121.699 69.9664 124.584 74.9516 126.185 80.7918C127.31 84.8966 127.671 90.666 127.731 96.13C127.776 100.174 127.656 104.269 127.491 107.778C132.214 108.628 138.701 110.343 145.144 113.817C150.091 116.485 154.391 119.861 157.885 123.871C162.074 128.679 165.069 134.36 166.81 140.711C168.761 147.826 169.072 154.983 167.692 161.953L167.691 161.954C166.298 168.978 163.232 175.575 158.645 181.552C153.997 187.608 147.861 192.922 140.488 197.391C132.882 202.001 123.951 205.706 113.981 208.448L113.874 208.478C103.899 211.199 94.3279 212.562 85.4352 212.476C76.8144 212.392 68.8271 210.95 61.74 208.111C54.7452 205.311 48.7426 201.201 43.9638 195.87ZM122.102 118.22C120.419 118.044 118.873 117.232 117.772 115.963L117.764 115.954L117.757 115.946C116.656 114.664 116.08 113.004 116.164 111.3L116.165 111.274M122.102 118.22C125.714 118.613 132.911 119.847 139.867 123.598C146.742 127.306 153.279 133.399 156.088 143.646C159.085 154.579 157.04 165.381 149.827 174.78C142.541 184.274 129.78 192.57 111.038 197.724C111.037 197.724 111.036 197.724 111.035 197.725L111.843 200.664M111.035 197.725L110.947 197.749L111.035 197.725Z" clip-rule="evenodd"/><path fill="#DD8C54" d="M112.412 203.11C112.412 203.11 112.412 203.111 112.412 203.111C93.6562 208.227 76.8515 208.171 63.8093 202.948C57.568 200.448 52.2859 196.818 48.1055 192.156C43.9615 187.534 40.9833 181.99 39.2521 175.676C36.4229 165.357 37.8802 155.312 43.585 145.822C48.1433 138.238 54.2913 132.998 57.5512 130.549C57.7841 130.378 57.9342 130.135 57.984 129.856C58.0298 129.593 57.9728 129.316 57.8219 129.088C54.2324 123.817 45.6438 110.729 43.6384 103.415C40.726 92.7918 44.2943 84.997 53.1828 82.5601C59.6109 80.7978 65.4373 83.6346 70.4989 90.989C74.361 96.6015 77.8102 104.815 81.0472 116.1C81.1106 116.331 81.2605 116.517 81.4645 116.631C81.6745 116.753 81.9115 116.78 82.1449 116.718L94.496 113.332C94.7172 113.272 94.9059 113.123 95.0229 112.92C95.1442 112.71 95.1763 112.474 95.1166 112.249C92.1455 100.882 90.9233 92.0565 91.3822 85.2636C91.9828 76.3547 95.5484 70.9451 101.976 69.1827C110.865 66.7458 117.91 71.6329 120.822 82.2537C122.827 89.5684 122.113 105.207 121.714 111.592C121.702 111.846 121.794 112.113 121.974 112.323C122.152 112.529 122.407 112.661 122.682 112.688C126.742 113.128 134.703 114.494 142.505 118.702C152.246 123.955 158.62 131.853 161.449 142.172C163.18 148.485 163.446 154.774 162.239 160.865C161.02 167.007 158.329 172.827 154.236 178.161C145.68 189.31 131.25 197.927 112.509 203.082L112.412 203.109C112.412 203.109 112.412 203.109 112.412 203.11Z"/><path fill="#633001" d="M73.8692 142.453C70.2134 143.032 67.0154 145.182 65.0963 148.351C64.5416 149.267 64.8359 150.463 65.7513 151.016C66.1949 151.284 66.7156 151.364 67.2203 151.24C67.7295 151.118 68.1488 150.805 68.4183 150.361C69.7433 148.171 71.9515 146.686 74.4762 146.286C77.5214 145.805 80.6206 146.994 82.5637 149.392C83.0493 149.989 83.8432 150.245 84.5849 150.042C84.8452 149.971 85.0831 149.848 85.2929 149.677C86.1244 149.003 86.2518 147.78 85.5777 146.948C82.7642 143.478 78.2756 141.756 73.8673 142.454L73.8692 142.453Z"/><path fill="#633001" fill-rule="evenodd" d="M73.8055 142.463C70.1763 143.057 67.0043 145.201 65.0963 148.351C64.5416 149.267 64.8359 150.463 65.7513 151.016C66.1949 151.284 66.7156 151.364 67.2204 151.24C67.7296 151.118 68.1488 150.805 68.4184 150.361C69.7433 148.171 71.9515 146.686 74.4762 146.286C77.5214 145.805 80.6206 146.994 82.5637 149.392C83.0493 149.989 83.8432 150.245 84.5849 150.042C84.8452 149.971 85.0831 149.848 85.2929 149.677C86.1244 149.003 86.2518 147.78 85.5778 146.948C82.7777 143.494 78.3187 141.773 73.9309 142.444C73.9103 142.447 73.8898 142.45 73.8693 142.453C73.8693 142.453 73.8693 142.453 73.8693 142.453C73.8686 142.453 73.8679 142.453 73.8673 142.454L73.8692 142.453C73.8686 142.453 73.8679 142.453 73.8672 142.453C73.8672 142.453 73.8672 142.453 73.8672 142.453C73.8466 142.457 73.8261 142.46 73.8055 142.463ZM73.6927 141.339L73.6927 141.339C69.7087 141.97 66.2225 144.314 64.1315 147.767M73.6927 141.339C78.4983 140.58 83.3872 142.455 86.454 146.238L86.454 146.238C87.5196 147.552 87.3193 149.486 86.0046 150.552C85.6723 150.823 85.2933 151.017 84.8831 151.13C83.7088 151.452 82.4552 151.047 81.6886 150.104L81.6872 150.103C79.9977 148.017 77.2998 146.982 74.6526 147.401M67.4867 152.337C66.6919 152.531 65.8662 152.403 65.1687 151.982L65.1681 151.982C63.7183 151.106 63.2541 149.215 64.1315 147.767M67.4867 152.337C68.294 152.141 68.9613 151.64 69.3827 150.946L69.3834 150.945C70.5365 149.039 72.4563 147.748 74.6524 147.401" clip-rule="evenodd"/><path fill="#633001" d="M125.342 131.834C122.075 130.087 118.228 129.869 114.788 131.235C110.64 132.883 107.659 136.652 107.007 141.073C106.851 142.132 107.585 143.12 108.643 143.275C108.911 143.316 109.18 143.299 109.438 143.228C110.182 143.024 110.733 142.402 110.846 141.639C111.296 138.584 113.356 135.981 116.218 134.842C118.592 133.899 121.251 134.05 123.507 135.257C123.964 135.503 124.488 135.557 124.986 135.403C125.482 135.253 125.89 134.917 126.136 134.461C126.641 133.517 126.284 132.339 125.34 131.834L125.342 131.834Z"/><path fill="#633001" fill-rule="evenodd" d="M125.341 131.835C125.341 131.835 125.342 131.836 125.342 131.836C125.693 132.024 125.963 132.306 126.137 132.634C126.43 133.186 126.452 133.869 126.136 134.461C125.89 134.917 125.482 135.253 124.986 135.403C124.488 135.557 123.964 135.503 123.507 135.257C121.251 134.05 118.592 133.899 116.218 134.842C113.356 135.981 111.296 138.584 110.846 141.639C110.733 142.402 110.182 143.024 109.438 143.228C109.18 143.299 108.911 143.316 108.644 143.275C107.585 143.12 106.851 142.132 107.007 141.073C107.659 136.652 110.64 132.883 114.788 131.235C117.876 130.008 121.293 130.059 124.323 131.346C124.667 131.492 125.006 131.655 125.339 131.833C125.34 131.833 125.34 131.833 125.34 131.833C125.341 131.833 125.341 131.834 125.342 131.834L125.34 131.834C125.34 131.835 125.341 131.835 125.341 131.835ZM125.935 130.875C125.915 130.862 125.895 130.851 125.874 130.839C122.314 128.936 118.12 128.698 114.371 130.186L114.371 130.187C109.849 131.984 106.602 136.09 105.891 140.908L105.891 140.909C105.644 142.583 106.802 144.143 108.476 144.391C108.901 144.455 109.329 144.428 109.737 144.316C110.912 143.994 111.784 143.009 111.962 141.803L111.962 141.803C112.353 139.146 114.147 136.88 116.635 135.891M125.935 130.875C127.382 131.692 127.917 133.521 127.13 134.993L127.129 134.995C126.744 135.713 126.096 136.244 125.316 136.482C124.527 136.724 123.693 136.637 122.975 136.252M116.635 135.89C118.7 135.07 121.011 135.201 122.975 136.252L116.635 135.89Z" clip-rule="evenodd"/><path fill="#633001" d="M111.468 152.93C110.284 152.699 109.135 153.47 108.904 154.654C108.615 156.135 107.9 156.878 106.36 157.301C105.329 157.583 104.246 157.448 103.32 156.923C102.388 156.389 101.719 155.527 101.437 154.496C101.118 153.332 99.9145 152.647 98.751 152.966C97.5875 153.285 96.9021 154.488 97.2211 155.651C97.5039 156.683 97.3686 157.765 96.8431 158.692C96.3099 159.624 95.4477 160.292 94.4163 160.575C92.8762 160.997 91.8852 160.722 90.8785 159.596C90.0756 158.695 88.6946 158.618 87.7937 159.421C86.8928 160.224 86.8152 161.605 87.6181 162.505C89.7419 164.884 92.4181 165.652 95.5713 164.788C97.7268 164.197 99.5235 162.804 100.639 160.854C100.702 160.743 100.762 160.63 100.821 160.517C100.931 160.587 101.043 160.653 101.155 160.719C103.101 161.823 105.361 162.107 107.513 161.517C110.667 160.652 112.577 158.627 113.19 155.498C113.422 154.313 112.651 153.165 111.466 152.934L111.468 152.93Z"/><path fill="#633001" fill-rule="evenodd" d="M111.239 152.898C110.139 152.8 109.121 153.546 108.904 154.654C108.615 156.135 107.9 156.878 106.36 157.301C105.329 157.583 104.246 157.448 103.32 156.923C102.388 156.389 101.719 155.527 101.437 154.496C101.118 153.332 99.9145 152.647 98.751 152.966C97.5875 153.285 96.9021 154.488 97.2211 155.651C97.5039 156.683 97.3686 157.765 96.8431 158.692C96.3099 159.624 95.4477 160.292 94.4163 160.575C92.8762 160.997 91.8852 160.722 90.8785 159.596C90.0756 158.695 88.6946 158.618 87.7937 159.421C86.8928 160.224 86.8152 161.605 87.6181 162.505C89.7419 164.884 92.4181 165.652 95.5713 164.788C97.7268 164.197 99.5235 162.804 100.639 160.854C100.666 160.806 100.693 160.757 100.72 160.708C100.754 160.645 100.787 160.582 100.821 160.518L100.821 160.517C100.882 160.556 100.943 160.593 101.005 160.63C101.055 160.66 101.105 160.689 101.155 160.719C103.101 161.823 105.361 162.107 107.513 161.517C110.667 160.652 112.577 158.627 113.19 155.498C113.407 154.387 112.743 153.308 111.683 152.987C111.616 152.967 111.548 152.95 111.479 152.936C111.475 152.935 111.471 152.935 111.467 152.934C111.467 152.934 111.467 152.934 111.466 152.934L111.468 152.93C111.468 152.93 111.467 152.93 111.467 152.93C111.463 152.929 111.459 152.928 111.456 152.928C111.383 152.914 111.311 152.904 111.239 152.898ZM111.792 152.796L111.803 152.776L111.509 152.719C110.209 152.465 108.947 153.312 108.693 154.613L108.693 154.613C108.554 155.328 108.316 155.841 107.947 156.226C107.575 156.611 107.052 156.888 106.304 157.093C105.327 157.361 104.303 157.233 103.426 156.736C102.544 156.231 101.912 155.415 101.644 154.439C101.294 153.161 99.9722 152.408 98.6942 152.759C97.4162 153.109 96.6635 154.43 97.0138 155.708C97.2816 156.685 97.1536 157.709 96.6563 158.586C96.1513 159.468 95.3358 160.1 94.3595 160.368C93.6111 160.573 93.0204 160.602 92.5048 160.459C91.9906 160.317 91.5247 159.996 91.0389 159.453C90.1568 158.463 88.6399 158.378 87.6507 159.26C86.661 160.142 86.5759 161.659 87.4577 162.648L87.4578 162.649C88.5425 163.864 89.7761 164.675 91.1494 165.07C92.5222 165.464 94.0203 165.436 95.6281 164.995C97.8387 164.389 99.6819 162.96 100.825 160.961L100.826 160.961C100.852 160.914 100.878 160.867 100.904 160.82C100.951 160.848 100.999 160.876 101.045 160.904L101.045 160.904L101.049 160.906C103.044 162.038 105.362 162.329 107.57 161.724C109.178 161.283 110.481 160.543 111.461 159.504C112.441 158.465 113.088 157.137 113.401 155.539L113.401 155.539C113.636 154.335 112.929 153.166 111.792 152.796Z" clip-rule="evenodd"/><path fill="#FEDC90" d="M110.237 194.007C81.2184 201.963 45.2036 195.844 39.5526 175.428C39.5613 175.46 39.57 175.492 39.5787 175.524C46.5124 200.815 73.1899 213.997 112.744 203.153C152.299 192.309 168.523 167.364 161.589 142.073C161.581 142.041 161.572 142.009 161.563 141.978C167.114 162.421 139.255 186.051 110.237 194.007Z"/><path stroke="#7645D9" stroke-linecap="round" stroke-width="5.859" d="M153.029 49.1765C153.029 49.1765 153.029 52.0101 154.71 53.4748"/><path stroke="#ED4B9E" stroke-linecap="round" stroke-width="5.859" d="M26.0468 75.1526C26.0468 75.1526 28.7838 74.4192 29.7635 72.4163"/><path fill="#fff" d="M148.662 87.9784C148.055 89.0419 146.431 88.6068 146.438 87.3823L146.472 80.793C146.474 80.3633 146.244 79.9658 145.871 79.7529L140.148 76.4876C139.084 75.8808 139.519 74.2568 140.744 74.2631L147.333 74.2969C147.763 74.2992 148.16 74.0696 148.373 73.6964L151.638 67.973C152.245 66.9095 153.869 67.3446 153.863 68.569L153.829 75.1583C153.827 75.588 154.056 75.9855 154.43 76.1985L160.153 79.4638C161.217 80.0706 160.781 81.6946 159.557 81.6883L152.968 81.6544C152.538 81.6522 152.141 81.8817 151.928 82.2549L148.662 87.9784Z"/><path fill="#ED4B9E" d="M71.0813 57.0487C71.0883 58.4154 69.2756 58.9011 68.5983 57.714L64.9536 51.3256C64.7159 50.909 64.2722 50.6528 63.7926 50.6553L56.4377 50.693C55.071 50.7001 54.5853 48.8874 55.7724 48.2101L62.1608 44.5654C62.5774 44.3277 62.8336 43.884 62.8311 43.4044L62.7933 36.0494C62.7863 34.6827 64.599 34.197 65.2763 35.3841L68.921 41.7726C69.1587 42.1892 69.6024 42.4454 70.082 42.4429L77.437 42.4051C78.8037 42.3981 79.2894 44.2108 78.1023 44.888L71.7138 48.5328C71.2972 48.7705 71.041 49.2142 71.0435 49.6938L71.0813 57.0487Z"/><path stroke="#FFD800" stroke-linecap="round" stroke-width="5.859" d="M15.3706 49.1765C15.3706 49.1765 19.96 56.5977 26.6 55.0353C33.24 53.473 37.8294 60.8941 37.8294 60.8941"/><path stroke="#FFD800" stroke-linecap="round" stroke-width="5.859" d="M159.4 24.8275C159.4 24.8275 150.673 17.1268 149.33 31.8282C147.988 46.5295 137.918 35.3285 137.918 35.3285"/><ellipse cx="105.504" cy="116.534" fill="#BF5C0C" opacity=".5" rx="36.087" ry="10.467" transform="rotate(-0.330456 105.504 116.534)"/><path fill="#FFD800" d="M106.374 123.219C117.448 123.136 128.689 118.968 135.452 115.659C137.902 114.46 138.897 111.582 137.944 109.033L111.192 37.4349C109.362 32.5391 102.435 32.5471 100.589 37.4471L73.5144 109.322C72.5182 111.966 73.6164 114.939 76.1944 116.082C83.4268 119.291 95.2807 123.301 106.374 123.219Z"/><path fill="#FFD800" fill-rule="evenodd" d="M98.2051 43.7749C106.285 48.4225 113.913 57.2402 120.315 72.0716C125.076 83.1018 128.33 88.2642 130.524 89.1731L111.192 37.4347C109.362 32.539 102.435 32.5469 100.589 37.4469L98.2051 43.7749Z" clip-rule="evenodd"/><path fill="#BF5C0C" fill-rule="evenodd" d="M135.452 115.658C128.689 118.968 117.448 123.136 106.374 123.218C95.2807 123.301 83.4268 119.291 76.1944 116.082C73.6164 114.939 72.5182 111.966 73.5143 109.322L82.0777 86.5884C93.3886 121.437 119.563 116.015 137.298 107.303L137.944 109.033C138.897 111.582 137.901 114.46 135.452 115.658Z" clip-rule="evenodd" opacity=".5"/><path stroke="#633001" stroke-width="4.719" d="M106.363 120.859C116.935 120.78 127.807 116.776 134.419 113.54C135.669 112.928 136.304 111.39 135.734 109.863L108.982 38.2675C107.915 35.4111 103.873 35.4157 102.796 38.2746L75.7221 110.147C75.1274 111.726 75.8169 113.331 77.1567 113.925C84.2623 117.078 95.7576 120.938 106.363 120.859Z"/><path fill="#1FC7D4" d="M106.676 106.792C104.374 106.792 102.283 106.581 100.402 106.16C98.5214 105.739 97.0055 105.135 95.8545 104.349C95.5458 104.153 95.3914 103.9 95.3914 103.591C95.3914 103.395 95.4896 103.1 95.6861 102.707L97.4968 99.5911C97.7213 99.2543 97.9599 99.0858 98.2126 99.0858C98.3249 99.0858 98.6056 99.1841 99.0548 99.3806C99.8127 99.7736 100.753 100.11 101.876 100.391C102.999 100.644 104.15 100.77 105.329 100.77C108.669 100.77 110.34 99.6473 110.34 97.4015C110.34 95.5207 109.133 94.5803 106.718 94.5803H103.392C102.578 94.5803 102.002 94.4119 101.665 94.075C101.329 93.7381 101.16 93.2048 101.16 92.4749V90.58C101.16 89.8782 101.329 89.3589 101.665 89.022C102.002 88.6852 102.578 88.5167 103.392 88.5167H106.255C107.378 88.5167 108.206 88.2781 108.74 87.8009C109.273 87.2956 109.54 86.6078 109.54 85.7376C109.54 83.8848 108.094 82.9585 105.203 82.9585C103.125 82.9585 101.216 83.4076 99.4758 84.3059C99.3916 84.3621 99.2513 84.4322 99.0548 84.5165C98.8583 84.6007 98.7039 84.6428 98.5916 84.6428C98.3389 84.6428 98.1143 84.4603 97.9178 84.0954L96.1493 81.0215C95.9528 80.6285 95.8545 80.3197 95.8545 80.0951C95.8545 79.8144 95.9949 79.5758 96.2756 79.3793C97.4266 78.5933 98.8723 77.9897 100.613 77.5686C102.353 77.1195 104.318 76.8949 106.508 76.8949C108.866 76.8949 110.901 77.2458 112.614 77.9476C114.354 78.6494 115.687 79.646 116.614 80.9373C117.54 82.2286 118.003 83.7445 118.003 85.4849C118.003 86.692 117.751 87.8149 117.245 88.8536C116.768 89.8923 116.052 90.7344 115.098 91.3801C117.568 92.6433 118.803 94.7628 118.803 97.7384C118.803 100.518 117.751 102.721 115.645 104.349C113.568 105.978 110.578 106.792 106.676 106.792Z"/><path fill="#633001" fill-rule="evenodd" d="M95.6861 102.707L97.4967 99.5911C97.7213 99.2543 97.9599 99.0858 98.2125 99.0858C98.3248 99.0858 98.6056 99.1841 99.0547 99.3806C99.8127 99.7736 100.753 100.11 101.876 100.391C102.999 100.644 104.15 100.77 105.329 100.77C108.669 100.77 110.34 99.6473 110.34 97.4015C110.34 95.5207 109.133 94.5803 106.718 94.5803H103.392C102.578 94.5803 102.002 94.4119 101.665 94.075C101.329 93.7381 101.16 93.2048 101.16 92.4749V90.58C101.16 89.8782 101.329 89.3589 101.665 89.022C102.002 88.6852 102.578 88.5167 103.392 88.5167H106.255C107.378 88.5167 108.206 88.2781 108.74 87.8009C109.273 87.2956 109.54 86.6078 109.54 85.7376C109.54 83.8848 108.094 82.9585 105.202 82.9585C103.125 82.9585 101.216 83.4076 99.4758 84.3059C99.3916 84.3621 99.2512 84.4322 99.0547 84.5165C98.8582 84.6007 98.7038 84.6428 98.5915 84.6428C98.3389 84.6428 98.1143 84.4603 97.9178 84.0954L96.1493 81.0215C95.9528 80.6285 95.8545 80.3197 95.8545 80.0951C95.8545 79.8144 95.9949 79.5758 96.2756 79.3793C97.4265 78.5933 98.8722 77.9897 100.613 77.5686C102.353 77.1195 104.318 76.8949 106.508 76.8949C108.866 76.8949 110.901 77.2458 112.614 77.9476C114.354 78.6494 115.687 79.646 116.614 80.9373C117.54 82.2286 118.003 83.7445 118.003 85.4849C118.003 86.5461 117.808 87.5422 117.418 88.4732C117.364 88.6012 117.306 88.728 117.245 88.8536C116.768 89.8923 116.052 90.7344 115.098 91.3801C116.323 92.0066 117.244 92.8437 117.862 93.8915C118.49 94.9563 118.803 96.2386 118.803 97.7384C118.803 100.518 117.751 102.721 115.645 104.349C113.568 105.978 110.578 106.792 106.676 106.792C104.374 106.792 102.283 106.581 100.402 106.16C98.5213 105.739 97.0055 105.135 95.8545 104.349C95.5457 104.153 95.3913 103.9 95.3913 103.591C95.3913 103.395 95.4896 103.1 95.6861 102.707ZM93.8234 107.403C92.7102 106.67 91.7242 105.369 91.7242 103.591C91.7242 102.46 92.1953 101.489 92.4061 101.067L92.4576 100.964L94.3828 97.651L94.4455 97.557C94.9241 96.8392 96.1091 95.444 98.157 95.4191C97.6235 94.3948 97.493 93.3146 97.493 92.4749V90.58C97.493 89.8942 97.5844 89.073 97.8956 88.2554C96.0855 87.965 95.1064 86.5853 94.7218 85.8939L92.9173 82.7573L92.8693 82.6615C92.617 82.1567 92.1874 81.2098 92.1874 80.0951C92.1874 78.3471 93.1565 77.0864 94.1726 76.3751L94.19 76.363L94.2075 76.351C95.8054 75.2598 97.6794 74.5081 99.7234 74.0109C101.812 73.4747 104.084 73.2278 106.508 73.2278C109.214 73.2278 111.74 73.6285 113.994 74.5505C116.257 75.4647 118.195 76.8506 119.593 78.7997C121.01 80.7737 121.67 83.0543 121.67 85.4849C121.67 87.2088 121.308 88.8709 120.56 90.4218C120.475 90.605 120.385 90.7846 120.29 90.9605C120.564 91.3087 120.817 91.6786 121.045 92.0707C122.053 93.7992 122.47 95.7398 122.47 97.7384C122.47 101.59 120.94 104.886 117.898 107.243C114.932 109.563 111.017 110.459 106.676 110.459C104.155 110.459 101.79 110.228 99.601 109.738C97.4447 109.256 95.4671 108.516 93.8234 107.403Z" clip-rule="evenodd"/><circle cx="106.991" cy="38.951" r="9.723" fill="#FFD800" stroke="#633001" stroke-width="3.794"/><path stroke="#7645D9" stroke-linecap="round" stroke-width="5.859" d="M46.999 22.3832C46.999 22.3832 38.817 20.9057 43.0978 30.2732C47.3786 39.6407 37.1304 36.5373 37.1304 36.5373"/></g></g><path stroke="#FFD800" stroke-linecap="round" stroke-width="5.859" d="M159.4 21.8275C159.4 21.8275 150.673 14.1268 149.33 28.8282C147.987 43.5296 137.918 32.3285 137.918 32.3285"/><path stroke="#ED4B9E" stroke-linecap="round" stroke-width="5.859" d="M176.094 98.3588C176.094 98.3588 169.747 92.9882 168.77 103.241C167.794 113.494 160.47 105.682 160.47 105.682"/><path stroke="#ED4B9E" stroke-linecap="round" stroke-width="5.859" d="M29.0466 75.1527C29.0466 75.1527 31.7837 74.4193 32.7634 72.4163"/><path stroke="#7645D9" stroke-linecap="round" stroke-width="6" d="M6.2787 104.805C6.2787 104.805 3.10519 110.302 10.3881 113.311C17.6709 116.321 24.6564 112.033 24.6564 112.033"/><defs><clipPath id="clip0_520_268"><rect width="166" height="166" fill="#fff" transform="translate(10 15)"/></clipPath></defs></svg>