<svg width="154" height="154" viewBox="0 0 154 154" fill="none" xmlns="http://www.w3.org/2000/svg">
<mask id="mask0_440_3327" style="mask-type:alpha" maskUnits="userSpaceOnUse" x="0" y="0" width="154" height="154">
<path d="M0 60.8C0 39.518 0 28.877 4.14175 20.7484C7.78494 13.5982 13.5982 7.78494 20.7484 4.14175C28.877 0 39.518 0 60.8 0H93.2C114.482 0 125.123 0 133.252 4.14175C140.402 7.78494 146.215 13.5982 149.858 20.7484C154 28.877 154 39.518 154 60.8V93.2C154 114.482 154 125.123 149.858 133.252C146.215 140.402 140.402 146.215 133.252 149.858C125.123 154 114.482 154 93.2 154H60.8C39.518 154 28.877 154 20.7484 149.858C13.5982 146.215 7.78494 140.402 4.14175 133.252C0 125.123 0 114.482 0 93.2V60.8Z" fill="#EFF3F5"/>
</mask>
<g mask="url(#mask0_440_3327)">
<g clip-path="url(#clip0_440_3327)">
<rect width="166" height="166" transform="translate(-9 -4)" fill="#1FC7D4"/>
<mask id="path-2-outside-1_440_3327" maskUnits="userSpaceOnUse" x="-10.5353" y="32.3091" width="172.392" height="176.592" fill="black">
<rect fill="white" x="-10.5353" y="32.3091" width="172.392" height="176.592"/>
<path d="M83.3803 51.6546C92.0985 49.2644 97.8899 54.6678 100.355 63.66C102.315 70.8064 101.577 86.401 101.195 92.4994C101.162 93.1629 101.387 93.8127 101.82 94.317C102.256 94.8201 102.868 95.1387 103.528 95.206C111.27 96.0467 134.647 100.48 140.98 123.579C147.65 147.905 131.732 171.995 93.105 182.616L93.0091 182.643C54.3633 193.187 28.3883 180.602 21.719 156.276C15.0496 131.949 33.256 117.435 39.4648 112.77C39.9985 112.375 40.3619 111.789 40.481 111.134C40.5962 110.479 40.4579 109.806 40.0913 109.252C36.6526 104.201 28.0651 91.1629 26.1058 84.0165C23.6405 75.0242 25.8802 67.419 34.5847 65.0326C47.1335 61.5922 55.1296 78.5068 60.5834 97.5242C60.7558 98.1377 61.1638 98.6509 61.7169 98.9644C62.2667 99.2809 62.9199 99.3606 63.5356 99.196L75.8965 95.8071C76.51 95.6347 77.0273 95.2341 77.3427 94.6804C77.6592 94.1306 77.7479 93.4792 77.5833 92.8635C72.5802 73.7246 70.8276 55.0961 83.3764 51.6557M82.5714 48.7196C78.7917 49.7559 75.8637 51.9644 73.8654 55.2839C72.1693 58.1018 71.1576 61.7653 70.8598 66.1675C70.3971 73.0078 71.5831 81.8015 74.4822 93.036L63.3369 96.0916C60.1036 84.9508 56.6391 76.7818 52.7521 71.132C50.2508 67.4972 47.5127 64.8638 44.6162 63.303C41.2043 61.4667 37.5575 61.0608 33.7797 62.0965C28.7081 63.4869 25.0965 66.5332 23.3333 70.91C21.7854 74.752 21.7278 79.5619 23.1703 84.8234C25.1242 91.9502 32.7516 103.858 37.3144 110.583C33.8967 113.193 27.8257 118.484 23.2796 126.044C20.6113 130.482 18.8196 135.123 17.9519 139.841C16.9136 145.488 17.193 151.289 18.7815 157.083C20.5749 163.625 23.6672 169.377 27.9693 174.176C32.3047 179.013 37.7794 182.777 44.2404 185.365C50.7937 187.989 58.2744 189.36 66.4743 189.44C74.9338 189.522 84.1307 188.225 93.8112 185.584L93.911 185.556C103.586 182.895 112.161 179.324 119.396 174.939C126.409 170.689 132.145 165.694 136.443 160.094C140.679 154.575 143.468 148.542 144.732 142.168C145.985 135.844 145.712 129.321 143.918 122.778C142.329 116.984 139.613 111.851 135.842 107.522C132.691 103.906 128.782 100.825 124.228 98.3697C116.451 94.1757 108.535 92.7264 104.263 92.2287C104.756 84.1193 105.246 69.9839 103.292 62.859C101.85 57.5975 99.3507 53.4866 96.0629 50.9744C92.3161 48.1083 87.6519 47.331 82.5764 48.7225L82.5714 48.7196Z"/>
</mask>
<path d="M83.3803 51.6546C92.0985 49.2644 97.8899 54.6678 100.355 63.66C102.315 70.8064 101.577 86.401 101.195 92.4994C101.162 93.1629 101.387 93.8127 101.82 94.317C102.256 94.8201 102.868 95.1387 103.528 95.206C111.27 96.0467 134.647 100.48 140.98 123.579C147.65 147.905 131.732 171.995 93.105 182.616L93.0091 182.643C54.3633 193.187 28.3883 180.602 21.719 156.276C15.0496 131.949 33.256 117.435 39.4648 112.77C39.9985 112.375 40.3619 111.789 40.481 111.134C40.5962 110.479 40.4579 109.806 40.0913 109.252C36.6526 104.201 28.0651 91.1629 26.1058 84.0165C23.6405 75.0242 25.8802 67.419 34.5847 65.0326C47.1335 61.5922 55.1296 78.5068 60.5834 97.5242C60.7558 98.1377 61.1638 98.6509 61.7169 98.9644C62.2667 99.2809 62.9199 99.3606 63.5356 99.196L75.8965 95.8071C76.51 95.6347 77.0273 95.2341 77.3427 94.6804C77.6592 94.1306 77.7479 93.4792 77.5833 92.8635C72.5802 73.7246 70.8276 55.0961 83.3764 51.6557M82.5714 48.7196C78.7917 49.7559 75.8637 51.9644 73.8654 55.2839C72.1693 58.1018 71.1576 61.7653 70.8598 66.1675C70.3971 73.0078 71.5831 81.8015 74.4822 93.036L63.3369 96.0916C60.1036 84.9508 56.6391 76.7818 52.7521 71.132C50.2508 67.4972 47.5127 64.8638 44.6162 63.303C41.2043 61.4667 37.5575 61.0608 33.7797 62.0965C28.7081 63.4869 25.0965 66.5332 23.3333 70.91C21.7854 74.752 21.7278 79.5619 23.1703 84.8234C25.1242 91.9502 32.7516 103.858 37.3144 110.583C33.8967 113.193 27.8257 118.484 23.2796 126.044C20.6113 130.482 18.8196 135.123 17.9519 139.841C16.9136 145.488 17.193 151.289 18.7815 157.083C20.5749 163.625 23.6672 169.377 27.9693 174.176C32.3047 179.013 37.7794 182.777 44.2404 185.365C50.7937 187.989 58.2744 189.36 66.4743 189.44C74.9338 189.522 84.1307 188.225 93.8112 185.584L93.911 185.556C103.586 182.895 112.161 179.324 119.396 174.939C126.409 170.689 132.145 165.694 136.443 160.094C140.679 154.575 143.468 148.542 144.732 142.168C145.985 135.844 145.712 129.321 143.918 122.778C142.329 116.984 139.613 111.851 135.842 107.522C132.691 103.906 128.782 100.825 124.228 98.3697C116.451 94.1757 108.535 92.7264 104.263 92.2287C104.756 84.1193 105.246 69.9839 103.292 62.859C101.85 57.5975 99.3507 53.4866 96.0629 50.9744C92.3161 48.1083 87.6519 47.331 82.5764 48.7225L82.5714 48.7196Z" fill="#633001"/>
<path d="M101.195 92.4994L97.1667 92.2471L97.165 92.2737L97.1637 92.3004L101.195 92.4994ZM101.82 94.317L98.757 96.946L98.7643 96.9544L98.7716 96.9628L101.82 94.317ZM103.528 95.206L103.964 91.1934L103.951 91.192L103.937 91.1906L103.528 95.206ZM93.105 182.616L94.1722 186.509L94.1751 186.508L93.105 182.616ZM93.0091 182.643L94.0715 186.537L94.0763 186.535L93.0091 182.643ZM39.4648 112.77L37.065 109.524L37.0526 109.534L37.0402 109.543L39.4648 112.77ZM40.481 111.134L44.4522 111.855L44.4542 111.844L44.4561 111.833L40.481 111.134ZM40.0913 109.252L43.4574 107.025L43.4427 107.002L43.4277 106.98L40.0913 109.252ZM60.5834 97.5242L64.469 96.4322L64.4661 96.4219L64.4632 96.4116L60.5834 97.5242ZM61.7169 98.9644L63.7306 95.4664L63.7187 95.4596L63.7068 95.4528L61.7169 98.9644ZM63.5356 99.196L64.578 103.095L64.5904 103.092L64.6028 103.089L63.5356 99.196ZM75.8965 95.8071L76.9637 99.6997L76.9761 99.6963L76.9884 99.6928L75.8965 95.8071ZM77.3427 94.6804L73.8447 92.6667L73.8402 92.6746L73.8357 92.6826L77.3427 94.6804ZM77.5833 92.8635L73.6783 93.8843L73.6811 93.8951L73.684 93.9058L77.5833 92.8635ZM82.5714 48.7196L84.5719 45.2141L83.1183 44.3846L81.5042 44.8271L82.5714 48.7196ZM73.8654 55.2839L70.4074 53.2023L70.4073 53.2025L73.8654 55.2839ZM70.8598 66.1675L74.8868 66.44L74.8868 66.4399L70.8598 66.1675ZM74.4822 93.036L75.5494 96.9285L79.3838 95.8773L78.3904 92.0275L74.4822 93.036ZM63.3369 96.0916L59.4607 97.2166L60.569 101.036L64.4041 99.9842L63.3369 96.0916ZM52.7521 71.132L56.0773 68.8442L56.077 68.8439L52.7521 71.132ZM44.6162 63.303L46.5309 59.7498L46.529 59.7488L44.6162 63.303ZM23.3333 70.91L27.077 72.4182L27.0771 72.4182L23.3333 70.91ZM37.3144 110.583L39.7641 113.791L42.7968 111.475L40.6544 108.317L37.3144 110.583ZM23.2796 126.044L19.8207 123.964L19.8206 123.964L23.2796 126.044ZM17.9519 139.841L13.9823 139.111L13.9823 139.111L17.9519 139.841ZM27.9693 174.176L24.9638 176.87L24.9638 176.87L27.9693 174.176ZM44.2404 185.365L45.7411 181.618L45.7407 181.618L44.2404 185.365ZM66.4743 189.44L66.4352 193.476L66.4352 193.476L66.4743 189.44ZM93.8112 185.584L94.8737 189.478L94.8784 189.476L93.8112 185.584ZM93.911 185.556L94.9782 189.449L94.9814 189.448L93.911 185.556ZM119.396 174.939L121.488 178.391L121.488 178.391L119.396 174.939ZM136.443 160.094L139.645 162.552L139.645 162.552L136.443 160.094ZM144.732 142.168L148.691 142.954L148.691 142.953L144.732 142.168ZM135.842 107.522L132.798 110.174L132.799 110.174L135.842 107.522ZM124.228 98.3697L122.312 101.922L122.313 101.922L124.228 98.3697ZM104.263 92.2287L100.234 91.9834L100.002 95.7957L103.796 96.2377L104.263 92.2287ZM96.0629 50.9744L93.6106 54.1802L93.6124 54.1816L96.0629 50.9744ZM82.5764 48.7225L80.5759 52.228L82.0295 53.0575L83.6436 52.615L82.5764 48.7225ZM84.4475 55.5472C87.7226 54.6493 90.0203 55.2642 91.7609 56.5951C93.6646 58.0508 95.3681 60.7346 96.4627 64.7272L104.248 62.5929C102.877 57.5933 100.452 53.0792 96.6643 50.1827C92.7133 47.1615 87.7562 46.2698 82.3131 47.7621L84.4475 55.5472ZM96.4627 64.7272C97.2836 67.7215 97.6041 72.9107 97.6169 78.482C97.6294 83.9121 97.3552 89.2381 97.1667 92.2471L105.223 92.7518C105.417 89.6624 105.702 84.1419 105.689 78.4635C105.677 72.9263 105.386 66.745 104.248 62.5929L96.4627 64.7272ZM97.1637 92.3004C97.0796 94.0039 97.6565 95.6639 98.757 96.946L104.882 91.6879C105.117 91.9615 105.245 92.322 105.226 92.6985L97.1637 92.3004ZM98.7716 96.9628C99.8771 98.2363 101.43 99.0492 103.119 99.2213L103.937 91.1906C104.306 91.2281 104.636 91.404 104.868 91.6711L98.7716 96.9628ZM103.092 99.2185C106.702 99.6105 113.905 100.843 120.867 104.598C127.742 108.306 134.279 114.399 137.088 124.646L144.873 122.512C141.349 109.659 133.03 101.987 124.698 97.493C116.453 93.0461 108.096 91.6421 103.964 91.1934L103.092 99.2185ZM137.088 124.646C140.085 135.579 138.04 146.381 130.827 155.78C123.541 165.274 110.779 173.571 92.0349 178.725L94.1751 186.508C114.058 181.041 128.569 171.982 137.231 160.694C145.966 149.311 148.545 135.905 144.873 122.512L137.088 124.646ZM92.0378 178.724L91.9419 178.75L94.0763 186.535L94.1722 186.509L92.0378 178.724ZM91.9466 178.749C73.1923 183.866 57.983 183.238 46.8734 178.789C35.8761 174.385 28.6088 166.141 25.6115 155.209L17.8264 157.343C21.4986 170.737 30.5534 180.949 43.8724 186.283C57.079 191.572 74.1802 191.964 94.0715 186.537L91.9466 178.749ZM25.6115 155.209C19.7004 133.648 35.6486 120.686 41.8894 115.996L37.0402 109.543C30.8635 114.184 10.3988 130.251 17.8264 157.343L25.6115 155.209ZM41.8646 116.015C43.2297 115.005 44.1507 113.514 44.4522 111.855L36.5099 110.412C36.5731 110.064 36.7673 109.745 37.065 109.524L41.8646 116.015ZM44.4561 111.833C44.749 110.169 44.3985 108.447 43.4574 107.025L36.7252 111.479C36.5173 111.165 36.4434 110.789 36.5059 110.434L44.4561 111.833ZM43.4277 106.98C41.731 104.488 38.7789 100.047 36.0203 95.3695C33.19 90.5707 30.8193 85.9435 29.9983 82.9493L22.2133 85.0836C23.3516 89.2358 26.2542 94.7009 29.0672 99.4703C31.9519 104.361 35.0129 108.964 36.755 111.523L43.4277 106.98ZM29.9983 82.9493C28.9044 78.9593 29.0032 75.781 29.9 73.5564C30.7206 71.5207 32.3852 69.8207 35.6519 68.9251L33.5175 61.14C28.0796 62.6309 24.2721 65.9267 22.4131 70.5383C20.6302 74.961 20.8419 80.0814 22.2133 85.0836L29.9983 82.9493ZM35.6519 68.9251C37.7586 68.3475 39.5464 68.6148 41.2612 69.5377C43.0932 70.5237 45.0003 72.3552 46.9196 75.1446C50.7819 80.7579 54.0017 89.2153 56.7036 98.6368L64.4632 96.4116C61.7113 86.8156 58.2061 77.307 53.5697 70.5688C51.2397 67.1824 48.454 64.2417 45.0869 62.4295C41.6026 60.5543 37.6851 59.9974 33.5175 61.14L35.6519 68.9251ZM56.6977 98.6162C57.1637 100.274 58.2653 101.648 59.727 102.476L63.7068 95.4528C64.0623 95.6543 64.348 96.0013 64.469 96.4322L56.6977 98.6162ZM59.7033 102.462C61.2047 103.327 62.9602 103.528 64.578 103.095L62.4932 95.2968C62.8796 95.1935 63.3286 95.235 63.7306 95.4664L59.7033 102.462ZM64.6028 103.089L76.9637 99.6997L74.8293 91.9146L62.4684 95.3035L64.6028 103.089ZM76.9884 99.6928C78.6108 99.2369 80.0022 98.1661 80.8498 96.6782L73.8357 92.6826C74.0524 92.302 74.4093 92.0326 74.8045 91.9215L76.9884 99.6928ZM80.8407 96.694C81.684 95.2291 81.9259 93.4799 81.4825 91.8211L73.684 93.9058C73.5698 93.4784 73.6344 93.0321 73.8447 92.6667L80.8407 96.694ZM81.4882 91.8427C79.0095 82.3605 77.4658 73.4433 77.9249 66.6446C78.153 63.2661 78.8591 60.7181 79.9318 58.9357C80.9358 57.2674 82.337 56.1258 84.4436 55.5482L82.3092 47.7632C78.1414 48.9058 75.0558 51.3829 73.0154 54.7732C71.0438 58.0493 70.1478 61.9996 69.8709 66.1007C69.3198 74.2611 71.154 84.2276 73.6783 93.8843L81.4882 91.8427ZM81.5042 44.8271C76.7366 46.1342 72.9469 48.9839 70.4074 53.2023L77.3233 57.3656C78.7805 54.945 80.8468 53.3776 83.6386 52.6122L81.5042 44.8271ZM70.4073 53.2025C68.2874 56.7246 67.1598 61.0621 66.8329 65.8951L74.8868 66.4399C75.1554 62.4686 76.0513 59.479 77.3235 57.3654L70.4073 53.2025ZM66.8329 65.8951C66.3276 73.3627 67.631 82.6394 70.5741 94.0445L78.3904 92.0275C75.5353 80.9635 74.4665 72.6529 74.8868 66.44L66.8329 65.8951ZM73.415 89.1435L62.2697 92.1991L64.4041 99.9842L75.5494 96.9285L73.415 89.1435ZM67.2131 94.9667C63.9306 83.6561 60.3206 75.0119 56.0773 68.8442L49.4269 73.4197C52.9577 78.5517 56.2766 86.2455 59.4607 97.2166L67.2131 94.9667ZM56.077 68.8439C53.3303 64.8524 50.1491 61.6996 46.5309 59.7498L42.7015 66.8561C44.8763 68.028 47.1713 70.142 49.4271 73.42L56.077 68.8439ZM46.529 59.7488C42.193 57.4152 37.4779 56.8975 32.7125 58.204L34.8469 65.989C37.637 65.2241 40.2157 65.5183 42.7034 66.8571L46.529 59.7488ZM32.7125 58.204C26.5856 59.8837 21.8824 63.71 19.5895 69.4017L27.0771 72.4182C28.3105 69.3564 30.8307 67.0901 34.8469 65.989L32.7125 58.204ZM19.5895 69.4017C17.6209 74.2882 17.6754 80.0459 19.2777 85.8906L27.0628 83.7562C25.7802 79.0779 25.95 75.2159 27.077 72.4182L19.5895 69.4017ZM19.2777 85.8906C20.4033 89.9962 23.035 95.1426 25.7695 99.8738C28.5586 104.699 31.6654 109.446 33.9744 112.849L40.6544 108.317C38.4006 104.995 35.4123 100.426 32.7585 95.8343C30.0501 91.1485 27.8911 86.7774 27.0628 83.7562L19.2777 85.8906ZM34.8646 107.376C31.2328 110.149 24.7292 115.801 19.8207 123.964L26.7386 128.124C30.9221 121.167 36.5606 116.238 39.7641 113.791L34.8646 107.376ZM19.8206 123.964C16.9221 128.784 14.9444 133.88 13.9823 139.111L21.9215 140.571C22.6948 136.366 24.3005 132.179 26.7386 128.124L19.8206 123.964ZM13.9823 139.111C12.8291 145.383 13.1476 151.799 14.8889 158.151L22.674 156.016C21.2384 150.78 20.9982 145.593 21.9215 140.571L13.9823 139.111ZM14.8889 158.151C16.8391 165.264 20.2221 171.58 24.9638 176.87L30.9747 171.482C27.1122 167.173 24.3108 161.986 22.674 156.016L14.8889 158.151ZM24.9638 176.87C29.7426 182.202 35.7452 186.311 42.74 189.111L45.7407 181.618C39.8137 179.244 34.8669 175.824 30.9747 171.482L24.9638 176.87ZM42.7396 189.111C49.8268 191.95 57.8142 193.392 66.4352 193.476L66.5135 185.404C58.7346 185.329 51.7607 184.029 45.7411 181.618L42.7396 189.111ZM66.4352 193.476C75.3279 193.562 84.8986 192.199 94.8737 189.478L92.7488 181.69C83.3628 184.251 74.5397 185.482 66.5135 185.404L66.4352 193.476ZM94.8784 189.476L94.9782 189.449L92.8439 181.664L92.744 181.691L94.8784 189.476ZM94.9814 189.448C104.951 186.706 113.882 183.001 121.488 178.391L117.304 171.487C110.441 175.647 102.222 179.085 92.8407 181.665L94.9814 189.448ZM121.488 178.391C128.861 173.922 134.996 168.608 139.645 162.552L133.241 157.637C129.293 162.781 123.957 167.455 117.304 171.487L121.488 178.391ZM139.645 162.552C144.232 156.575 147.298 149.978 148.691 142.954L140.773 141.383C139.638 147.107 137.127 152.574 133.241 157.637L139.645 162.552ZM148.691 142.953C150.072 135.983 149.761 128.826 147.81 121.711L140.025 123.845C141.662 129.817 141.897 135.706 140.773 141.384L148.691 142.953ZM147.81 121.711C146.069 115.36 143.074 109.679 138.885 104.871L132.799 110.174C136.152 114.023 138.589 118.608 140.025 123.845L147.81 121.711ZM138.885 104.871C135.391 100.861 131.091 97.4845 126.144 94.817L122.313 101.922C126.473 104.166 129.991 106.951 132.798 110.174L138.885 104.871ZM126.144 94.8172C117.747 90.2885 109.272 88.7488 104.73 88.2196L103.796 96.2377C107.797 96.7039 115.156 98.0628 122.312 101.922L126.144 94.8172ZM108.292 92.4739C108.541 88.3706 108.793 82.7032 108.731 77.13C108.671 71.666 108.31 65.8967 107.185 61.7918L99.3999 63.9262C100.228 66.9462 100.599 71.807 100.659 77.2193C100.718 82.5224 100.478 87.9774 100.234 91.9834L108.292 92.4739ZM107.185 61.7918C105.584 55.9508 102.699 50.965 98.5134 47.7673L93.6124 54.1816C96.0029 56.0081 98.1163 59.2443 99.3999 63.9262L107.185 61.7918ZM98.5151 47.7686C93.6401 44.0395 87.6381 43.1496 81.5092 44.8299L83.6436 52.615C87.6657 51.5123 90.9921 52.1772 93.6106 54.1802L98.5151 47.7686ZM84.5769 45.2169L84.5719 45.2141L80.5709 52.2251L80.5759 52.228L84.5769 45.2169Z" fill="#633001" mask="url(#path-2-outside-1_440_3327)"/>
<path d="M93.412 184.11C93.4125 184.11 93.4124 184.111 93.4119 184.111C74.6562 189.227 57.8515 189.171 44.8093 183.948C38.568 181.448 33.2859 177.818 29.1055 173.156C24.9615 168.534 21.9833 162.99 20.2521 156.676C17.4229 146.357 18.8802 136.312 24.585 126.822C29.1433 119.238 35.2913 113.998 38.5512 111.549C38.7841 111.378 38.9342 111.135 38.984 110.856C39.0298 110.593 38.9728 110.316 38.8219 110.088C35.2324 104.817 26.6438 91.7293 24.6384 84.4145C21.726 73.7918 25.2943 65.997 34.1828 63.5601C40.6109 61.7978 46.4373 64.6346 51.4989 71.989C55.361 77.6015 58.8102 85.8147 62.0472 97.0997C62.1106 97.3307 62.2605 97.5168 62.4645 97.6314C62.6745 97.7527 62.9115 97.7803 63.1449 97.7184L75.496 94.3322C75.7172 94.2716 75.9059 94.123 76.0229 93.9205C76.1442 93.7105 76.1763 93.4744 76.1166 93.2487C73.1455 81.8824 71.9233 73.0565 72.3822 66.2636C72.9828 57.3547 76.5484 51.9451 82.9765 50.1827C91.865 47.7458 98.9102 52.6329 101.822 63.2537C103.827 70.5684 103.113 86.2073 102.714 92.5921C102.702 92.846 102.794 93.1132 102.974 93.3229C103.152 93.5286 103.407 93.6607 103.682 93.6885C107.742 94.1284 115.703 95.494 123.505 99.7022C133.246 104.955 139.62 112.853 142.449 123.172C144.18 129.485 144.446 135.774 143.239 141.865C142.02 148.007 139.329 153.827 135.236 159.161C126.68 170.31 112.25 178.927 93.5087 184.082L93.4122 184.109C93.4117 184.109 93.4116 184.109 93.412 184.11Z" fill="#DD8C54"/>
<path d="M46.46 132.499C47.0306 132.843 47.7038 132.947 48.3535 132.788C49.0118 132.629 49.555 132.223 49.9005 131.653L49.9009 131.653C51.1399 129.605 53.2039 128.217 55.5643 127.844C58.4105 127.394 61.3091 128.506 63.1255 130.748L63.1261 130.748C63.7522 131.518 64.776 131.848 65.734 131.586C66.0692 131.494 66.3777 131.336 66.6487 131.115C67.7218 130.244 67.8857 128.666 67.0159 127.593L67.0158 127.593C64.0759 123.967 59.3876 122.168 54.781 122.896L54.7809 122.896C50.961 123.501 47.6189 125.748 45.6139 129.059C44.8978 130.241 45.2771 131.785 46.4597 132.499L46.46 132.499Z" fill="#633001" stroke="#633001" stroke-width="1.12801"/>
<path d="M106.647 112.36C106.634 112.352 106.621 112.344 106.608 112.337C103.195 110.511 99.174 110.283 95.5795 111.711L95.5793 111.711C91.2444 113.433 88.1303 117.371 87.4487 121.991L87.4487 121.991C87.2477 123.357 88.1933 124.631 89.5598 124.833C89.9062 124.885 90.2544 124.863 90.5876 124.772C91.5472 124.509 92.2585 123.705 92.4039 122.721L92.4039 122.721C92.8248 119.865 94.7512 117.43 97.4268 116.366C99.6458 115.485 102.131 115.625 104.241 116.754C104.828 117.07 105.507 117.141 106.151 116.942C106.789 116.748 107.317 116.315 107.633 115.728L107.633 115.727C108.277 114.522 107.835 113.023 106.647 112.36Z" fill="#633001" stroke="#633001" stroke-width="1.12801" stroke-linejoin="round"/>
<path d="M92.6312 133.861L92.6357 133.853L92.4888 133.824C91.2463 133.582 90.0414 134.391 89.7988 135.634L89.7988 135.634C89.6569 136.361 89.4127 136.896 89.0241 137.3C88.6349 137.705 88.0912 137.989 87.332 138.197C86.328 138.472 85.2747 138.341 84.3728 137.829C83.4658 137.31 82.8156 136.471 82.5404 135.467C82.2057 134.247 80.9434 133.528 79.7227 133.862C78.502 134.197 77.7829 135.459 78.1176 136.68C78.3928 137.684 78.2612 138.737 77.7497 139.639C77.2306 140.546 76.3918 141.196 75.388 141.472C74.6287 141.68 74.017 141.712 73.4762 141.563C72.936 141.413 72.4533 141.078 71.9588 140.525C71.9587 140.525 71.9587 140.525 71.9587 140.525L71.8786 140.596C71.0756 139.695 69.6946 139.618 68.7938 140.421C67.8929 141.224 67.8152 142.605 68.6182 143.505L92.6312 133.861ZM92.6312 133.861C93.7915 134.165 94.529 135.324 94.2959 136.518L94.2959 136.518C93.9858 138.1 93.3468 139.408 92.3825 140.43C91.4183 141.453 90.134 142.184 88.5418 142.621C86.3615 143.218 84.0728 142.931 82.1017 141.813L82.1 141.812C82.0213 141.765 81.9417 141.718 81.8625 141.669L92.6312 133.861Z" fill="#633001" stroke="#633001" stroke-width="0.214933"/>
<path d="M91.2369 175.007C62.2184 182.963 26.2036 176.844 20.5526 156.428C20.5613 156.46 20.57 156.492 20.5787 156.524C27.5124 181.815 54.1899 194.997 93.7443 184.153C133.299 173.309 149.523 148.364 142.589 123.073C142.581 123.041 142.572 123.009 142.563 122.978C148.114 143.421 120.255 167.051 91.2369 175.007Z" fill="#FEDC90"/>
<path d="M134.029 30.1765C134.029 30.1765 134.029 33.0101 135.71 34.4748" stroke="#7645D9" stroke-width="5.85882" stroke-linecap="round"/>
<path d="M7.04675 56.1526C7.04675 56.1526 9.78384 55.4192 10.7635 53.4163" stroke="#ED4B9E" stroke-width="5.85882" stroke-linecap="round"/>
<path d="M129.662 68.9784C129.055 70.0419 127.431 69.6068 127.438 68.3823L127.472 61.793C127.474 61.3633 127.244 60.9658 126.871 60.7529L121.148 57.4876C120.084 56.8808 120.519 55.2568 121.744 55.2631L128.333 55.2969C128.763 55.2992 129.16 55.0696 129.373 54.6964L132.638 48.973C133.245 47.9095 134.869 48.3446 134.863 49.569L134.829 56.1583C134.827 56.588 135.056 56.9855 135.43 57.1985L141.153 60.4638C142.217 61.0706 141.781 62.6946 140.557 62.6883L133.968 62.6544C133.538 62.6522 133.141 62.8817 132.928 63.2549L129.662 68.9784Z" fill="white"/>
<path d="M52.0813 38.0487C52.0883 39.4154 50.2756 39.9011 49.5983 38.714L45.9536 32.3256C45.7159 31.909 45.2722 31.6528 44.7926 31.6553L37.4377 31.693C36.071 31.7001 35.5853 29.8874 36.7724 29.2101L43.1608 25.5654C43.5774 25.3277 43.8336 24.884 43.8311 24.4044L43.7933 17.0494C43.7863 15.6827 45.599 15.197 46.2763 16.3841L49.921 22.7726C50.1587 23.1892 50.6024 23.4454 51.082 23.4429L58.437 23.4051C59.8037 23.3981 60.2894 25.2108 59.1023 25.888L52.7138 29.5328C52.2972 29.7705 52.041 30.2142 52.0435 30.6938L52.0813 38.0487Z" fill="#ED4B9E"/>
<path d="M-3.62939 30.1765C-3.62939 30.1765 0.960017 37.5977 7.60002 36.0353C14.24 34.473 18.8294 41.8941 18.8294 41.8941" stroke="#FFD800" stroke-width="5.85882" stroke-linecap="round"/>
<path d="M140.4 5.82752C140.4 5.82752 131.673 -1.8732 130.33 12.8282C128.988 27.5295 118.918 16.3285 118.918 16.3285" stroke="#FFD800" stroke-width="5.85882" stroke-linecap="round"/>
<ellipse opacity="0.5" cx="86.5043" cy="97.5337" rx="36.0867" ry="10.4669" transform="rotate(-0.330456 86.5043 97.5337)" fill="#BF5C0C"/>
<path d="M87.3738 104.219C98.4483 104.136 109.689 99.9685 116.452 96.6586C118.902 95.4598 119.897 92.5824 118.944 90.0328L92.1917 18.4349C90.3624 13.5391 83.4346 13.5471 81.5888 18.4471L54.5144 90.3217C53.5182 92.9663 54.6164 95.9387 57.1944 97.0824C64.4268 100.291 76.2807 104.301 87.3738 104.219Z" fill="#FFD800"/>
<path fill-rule="evenodd" clip-rule="evenodd" d="M79.2051 24.7749C87.2854 29.4224 94.9128 38.2402 101.315 53.0716C106.076 64.1017 109.33 69.2642 111.524 70.1731L92.1917 18.4347C90.3624 13.539 83.4346 13.5469 81.5888 18.4469L79.2051 24.7749Z" fill="#FFD800"/>
<path opacity="0.5" fill-rule="evenodd" clip-rule="evenodd" d="M116.452 96.6584C109.689 99.9683 98.4483 104.136 87.3738 104.218C76.2807 104.301 64.4268 100.291 57.1944 97.0822C54.6164 95.9385 53.5182 92.9661 54.5144 90.3215L63.0777 67.5884C74.3887 102.437 100.563 97.0155 118.298 88.3035L118.944 90.0326C119.897 92.5822 118.902 95.4595 116.452 96.6584Z" fill="#BF5C0C"/>
<path d="M87.363 101.859C97.9353 101.78 108.807 97.7758 115.419 94.5399C116.669 93.9281 117.304 92.3898 116.734 90.8634L89.9819 19.2675C88.9147 16.4111 84.8727 16.4157 83.7958 19.2746L56.7221 91.1473C56.1274 92.7259 56.8169 94.3309 58.1567 94.9253C65.2623 98.0776 76.7576 101.938 87.363 101.859Z" stroke="#633001" stroke-width="4.71865"/>
<path d="M87.6763 87.7916C85.3744 87.7916 83.283 87.5811 81.4022 87.16C79.5214 86.7389 78.0055 86.1354 76.8545 85.3494C76.5457 85.1528 76.3913 84.9002 76.3913 84.5914C76.3913 84.3949 76.4896 84.1001 76.6861 83.7071L78.4967 80.5911C78.7213 80.2543 78.9599 80.0858 79.2126 80.0858C79.3249 80.0858 79.6056 80.1841 80.0547 80.3806C80.8127 80.7736 81.7531 81.1105 82.876 81.3912C83.9989 81.6438 85.1498 81.7702 86.3288 81.7702C89.6694 81.7702 91.3397 80.6473 91.3397 78.4015C91.3397 76.5207 90.1326 75.5803 87.7184 75.5803H84.3919C83.5778 75.5803 83.0023 75.4119 82.6654 75.075C82.3286 74.7381 82.1601 74.2048 82.1601 73.4749V71.58C82.1601 70.8782 82.3286 70.3589 82.6654 70.022C83.0023 69.6852 83.5778 69.5167 84.3919 69.5167H87.2552C88.3781 69.5167 89.2062 69.2781 89.7396 68.8009C90.273 68.2956 90.5396 67.6078 90.5396 66.7376C90.5396 64.8848 89.0939 63.9585 86.2025 63.9585C84.1252 63.9585 82.2163 64.4076 80.4758 65.3059C80.3916 65.3621 80.2512 65.4322 80.0547 65.5165C79.8582 65.6007 79.7038 65.6428 79.5915 65.6428C79.3389 65.6428 79.1143 65.4603 78.9178 65.0954L77.1493 62.0215C76.9528 61.6285 76.8545 61.3197 76.8545 61.0951C76.8545 60.8144 76.9949 60.5758 77.2756 60.3793C78.4266 59.5933 79.8723 58.9897 81.6127 58.5686C83.3532 58.1195 85.3182 57.8949 87.5079 57.8949C89.8659 57.8949 91.9011 58.2458 93.6135 58.9476C95.354 59.6494 96.6874 60.646 97.6138 61.9373C98.5402 63.2286 99.0034 64.7445 99.0034 66.4849C99.0034 67.692 98.7507 68.8149 98.2454 69.8536C97.7682 70.8923 97.0524 71.7344 96.0979 72.3801C98.5682 73.6433 99.8034 75.7628 99.8034 78.7384C99.8034 81.5175 98.7507 83.7212 96.6453 85.3494C94.568 86.9775 91.5783 87.7916 87.6763 87.7916Z" fill="#1FC7D4"/>
<path d="M76.8545 85.3494L78.9226 82.3211L78.8735 82.2875L78.8233 82.2556L76.8545 85.3494ZM76.6861 83.7071L73.5155 81.8647L73.4576 81.9642L73.4062 82.0672L76.6861 83.7071ZM78.4967 80.5911L75.4456 78.557L75.3829 78.651L75.3261 78.7487L78.4967 80.5911ZM80.0547 80.3806L81.7428 77.1251L81.6354 77.0695L81.5246 77.021L80.0547 80.3806ZM82.876 81.3912L81.9866 84.9488L82.0287 84.9593L82.071 84.9688L82.876 81.3912ZM82.6654 75.075L80.0724 77.668L80.0724 77.668L82.6654 75.075ZM82.6654 70.022L85.2584 72.615H85.2584L82.6654 70.022ZM89.7396 68.8009L92.1848 71.5337L92.2237 71.4989L92.2616 71.463L89.7396 68.8009ZM80.4758 65.3059L78.7939 62.0473L78.612 62.1412L78.4417 62.2548L80.4758 65.3059ZM80.0547 65.5165L81.4992 68.887L81.4993 68.887L80.0547 65.5165ZM78.9178 65.0954L82.1466 63.3568L82.1221 63.3114L82.0964 63.2666L78.9178 65.0954ZM77.1493 62.0215L73.8694 63.6615L73.9173 63.7573L73.9707 63.8502L77.1493 62.0215ZM77.2756 60.3793L75.2075 57.351L75.19 57.363L75.1727 57.3751L77.2756 60.3793ZM81.6127 58.5686L82.475 62.1329L82.5021 62.1263L82.5291 62.1194L81.6127 58.5686ZM93.6135 58.9476L92.2229 62.3408L92.2325 62.3447L92.2422 62.3486L93.6135 58.9476ZM98.2454 69.8536L94.9479 68.2494L94.9301 68.2858L94.9132 68.3226L98.2454 69.8536ZM96.0979 72.3801L94.0432 69.3427L88.9033 72.8197L94.4283 75.645L96.0979 72.3801ZM96.6453 85.3494L94.402 82.4485L94.3925 82.4558L94.3832 82.4632L96.6453 85.3494ZM87.6763 84.1246C85.5936 84.1246 83.7763 83.9337 82.2033 83.5815L80.601 90.7385C82.7898 91.2285 85.1552 91.4587 87.6763 91.4587V84.1246ZM82.2033 83.5815C80.6142 83.2257 79.5735 82.7656 78.9226 82.3211L74.7864 88.3776C76.4375 89.5052 78.4285 90.2521 80.601 90.7385L82.2033 83.5815ZM78.8233 82.2556C79.0316 82.3882 79.3611 82.6502 79.6362 83.1003C79.9263 83.5751 80.0584 84.1014 80.0584 84.5914H72.7243C72.7243 86.4023 73.7473 87.7186 74.8858 88.4431L78.8233 82.2556ZM80.0584 84.5914C80.0584 84.839 80.0285 85.0305 80.0056 85.1448C79.982 85.2628 79.9565 85.3447 79.9439 85.3826C79.9209 85.4517 79.9163 85.4464 79.966 85.3471L73.4062 82.0672C73.1953 82.4889 72.7243 83.4604 72.7243 84.5914H80.0584ZM79.8567 85.5495L81.6674 82.4335L75.3261 78.7487L73.5155 81.8647L79.8567 85.5495ZM81.5479 82.6253C81.5142 82.6758 80.7893 83.7529 79.2126 83.7529V76.4188C77.1306 76.4188 75.9284 77.8327 75.4456 78.557L81.5479 82.6253ZM79.2126 83.7529C78.9753 83.7529 78.7898 83.7284 78.6864 83.712C78.575 83.6943 78.4895 83.6745 78.439 83.6618C78.386 83.6486 78.3478 83.6372 78.3279 83.6311C78.3171 83.6278 78.3091 83.6252 78.3041 83.6235C78.299 83.6218 78.2963 83.6208 78.2959 83.6207C78.2956 83.6206 78.3022 83.6229 78.3166 83.6284C78.3308 83.6338 78.3506 83.6415 78.3763 83.6519C78.4284 83.673 78.4973 83.7019 78.5849 83.7402L81.5246 77.021C81.2618 76.906 80.9841 76.7912 80.7187 76.6983C80.6283 76.6667 79.9753 76.4188 79.2126 76.4188V83.7529ZM78.3667 83.6361C79.4497 84.1976 80.6775 84.6215 81.9866 84.9488L83.7654 77.8336C82.8287 77.5994 82.1757 77.3496 81.7428 77.1251L78.3667 83.6361ZM82.071 84.9688C83.4645 85.2824 84.8856 85.4372 86.3288 85.4372V78.1031C85.414 78.1031 84.5332 78.0053 83.6809 77.8136L82.071 84.9688ZM86.3288 85.4372C88.2947 85.4372 90.4126 85.1278 92.1329 83.9713C94.1117 82.641 95.0068 80.5796 95.0068 78.4015H87.6726C87.6726 78.5067 87.6546 78.4209 87.7411 78.2463C87.8355 78.056 87.9682 77.9337 88.0411 77.8847C88.0896 77.8521 88.0184 77.9143 87.7192 77.9813C87.421 78.0481 86.9701 78.1031 86.3288 78.1031V85.4372ZM95.0068 78.4015C95.0068 76.6175 94.3878 74.717 92.6881 73.3928C91.1624 72.2042 89.3007 71.9132 87.7184 71.9132V79.2474C88.0959 79.2474 88.3017 79.2854 88.381 79.306C88.4546 79.3251 88.3509 79.311 88.1807 79.1784C87.9918 79.0313 87.8343 78.8256 87.7419 78.6097C87.659 78.4159 87.6726 78.3182 87.6726 78.4015H95.0068ZM87.7184 71.9132H84.3919V79.2474H87.7184V71.9132ZM84.3919 71.9132C84.2179 71.9132 84.2377 71.893 84.3798 71.9345C84.5326 71.9793 84.8934 72.1169 85.2584 72.482L80.0724 77.668C81.4477 79.0432 83.2499 79.2474 84.3919 79.2474V71.9132ZM85.2584 72.482C85.5733 72.7969 85.721 73.1208 85.7833 73.318C85.8403 73.4984 85.8272 73.5727 85.8272 73.4749H78.4931C78.4931 74.6703 78.7574 76.353 80.0724 77.668L85.2584 72.482ZM85.8272 73.4749V71.58H78.4931V73.4749H85.8272ZM85.8272 71.58C85.8272 71.3928 85.8767 71.9968 85.2584 72.615L80.0724 67.429C78.7805 68.721 78.4931 70.3637 78.4931 71.58H85.8272ZM85.2584 72.615C84.8934 72.9801 84.5326 73.1177 84.3798 73.1625C84.2377 73.2041 84.2179 73.1838 84.3919 73.1838V65.8497C83.2499 65.8497 81.4476 66.0538 80.0724 67.429L85.2584 72.615ZM84.3919 73.1838H87.2552V65.8497H84.3919V73.1838ZM87.2552 73.1838C88.7902 73.1838 90.6865 72.8743 92.1848 71.5337L87.2944 66.068C87.5142 65.8713 87.6939 65.8167 87.7032 65.8141C87.7066 65.8131 87.6742 65.8226 87.5969 65.832C87.5198 65.8415 87.4076 65.8497 87.2552 65.8497V73.1838ZM92.2616 71.463C93.6603 70.1379 94.2067 68.4134 94.2067 66.7376H86.8726C86.8726 66.7992 86.8634 66.7278 86.9206 66.5803C86.9828 66.4199 87.0883 66.2612 87.2176 66.1388L92.2616 71.463ZM94.2067 66.7376C94.2067 64.6796 93.3045 62.7644 91.4338 61.5657C89.8418 60.5455 87.9221 60.2914 86.2025 60.2914V67.6255C86.7409 67.6255 87.1062 67.6697 87.334 67.7183C87.5648 67.7676 87.5769 67.8049 87.4769 67.7408C87.3522 67.6609 87.1583 67.4888 87.0154 67.2141C86.8786 66.9511 86.8726 66.7562 86.8726 66.7376H94.2067ZM86.2025 60.2914C83.5765 60.2914 81.0859 60.8644 78.7939 62.0473L82.1577 68.5646C83.3467 67.9509 84.6739 67.6255 86.2025 67.6255V60.2914ZM78.4417 62.2548C78.5149 62.2059 78.5723 62.1725 78.6043 62.1545C78.6379 62.1357 78.6602 62.1244 78.6674 62.1208C78.6797 62.1146 78.6643 62.1227 78.6102 62.1459L81.4993 68.887C81.7272 68.7893 82.1293 68.6108 82.51 68.3571L78.4417 62.2548ZM78.6102 62.1459C78.6196 62.1419 78.6965 62.1089 78.8267 62.0734C78.9424 62.0418 79.2161 61.9757 79.5915 61.9757V69.3099C80.4692 69.3099 81.1843 69.022 81.4992 68.887L78.6102 62.1459ZM79.5915 61.9757C80.428 61.9757 81.1048 62.3013 81.5461 62.6599C81.9345 62.9755 82.1068 63.283 82.1466 63.3568L75.6891 66.8339C76.0913 67.5809 77.2717 69.3099 79.5915 69.3099V61.9757ZM82.0964 63.2666L80.3278 60.1928L73.9707 63.8502L75.7393 66.9241L82.0964 63.2666ZM80.4292 60.3815C80.3883 60.2997 80.3979 60.3055 80.4227 60.3833C80.4361 60.4255 80.459 60.5045 80.4793 60.615C80.4994 60.7241 80.5216 60.8883 80.5216 61.0951H73.1875C73.1875 62.2098 73.617 63.1567 73.8694 63.6615L80.4292 60.3815ZM80.5216 61.0951C80.5216 61.5989 80.3867 62.1124 80.1206 62.5649C79.8687 62.993 79.569 63.2501 79.3785 63.3835L75.1727 57.3751C74.1566 58.0864 73.1875 59.3471 73.1875 61.0951H80.5216ZM79.3437 63.4076C80.0407 62.9315 81.0486 62.478 82.475 62.1329L80.7504 55.0044C78.6959 55.5015 76.8124 56.255 75.2075 57.351L79.3437 63.4076ZM82.5291 62.1194C83.9136 61.7621 85.5628 61.562 87.5079 61.562V54.2278C85.0737 54.2278 82.7928 54.4769 80.6964 55.0179L82.5291 62.1194ZM87.5079 61.562C89.5144 61.562 91.0547 61.862 92.2229 62.3408L95.0042 55.5545C92.7476 54.6296 90.2174 54.2278 87.5079 54.2278V61.562ZM92.2422 62.3486C93.4559 62.838 94.1817 63.4441 94.6342 64.0748L100.593 59.7997C99.1931 57.8478 97.252 56.4608 94.9849 55.5466L92.2422 62.3486ZM94.6342 64.0748C95.0708 64.6835 95.3363 65.4346 95.3363 66.4849H102.67C102.67 64.0543 102.01 61.7737 100.593 59.7997L94.6342 64.0748ZM95.3363 66.4849C95.3363 67.162 95.199 67.7332 94.9479 68.2494L101.543 71.4578C102.302 69.8967 102.67 68.2221 102.67 66.4849H95.3363ZM94.9132 68.3226C94.7184 68.7465 94.4468 69.0697 94.0432 69.3427L98.1526 75.4174C99.6579 74.3992 100.818 73.038 101.578 71.3846L94.9132 68.3226ZM94.4283 75.645C95.1227 76.0001 95.4895 76.3873 95.7087 76.7635C95.9366 77.1544 96.1363 77.7614 96.1363 78.7384H103.47C103.47 76.7398 103.053 74.7992 102.045 73.0707C101.029 71.3275 99.5434 70.0233 97.7675 69.1151L94.4283 75.645ZM96.1363 78.7384C96.1363 80.4407 95.5642 81.5498 94.402 82.4485L98.8886 88.2502C101.937 85.8926 103.47 82.5943 103.47 78.7384H96.1363ZM94.3832 82.4632C93.1959 83.3937 91.1352 84.1246 87.6763 84.1246V91.4587C92.0214 91.4587 95.94 90.5613 98.9075 88.2355L94.3832 82.4632Z" fill="#633001"/>
<circle cx="87.9914" cy="19.9514" r="9.72286" fill="#FFD800" stroke="#633001" stroke-width="3.79429"/>
<path d="M27.999 3.38319C27.999 3.38319 19.817 1.90565 24.0978 11.2732C28.3786 20.6407 18.1304 17.5373 18.1304 17.5373" stroke="#7645D9" stroke-width="5.85882" stroke-linecap="round"/>
</g>
</g>
<defs>
<clipPath id="clip0_440_3327">
<rect width="166" height="166" fill="white" transform="translate(-9 -4)"/>
</clipPath>
</defs>
</svg>
