<svg xmlns="http://www.w3.org/2000/svg" width="192" height="192" fill="none" viewBox="0 0 192 192"><g clip-path="url(#clip0)"><path fill="#C0C4C6" d="M130.831 20.0181C134.084 11.0094 126.522 1.79553 115.876 1.79553C107.201 1.79553 100.169 8.04469 100.169 15.7534L100.169 42.2674C100.169 47.6842 105.11 52.0755 111.206 52.0755C116.002 52.0755 120.25 49.3226 121.715 45.2641L130.831 20.0181Z"/><path fill="#D6D6D6" d="M120 5.23334C122.47 8.33773 117.011 9.07715 112.443 12.712C107.875 16.3469 105.928 21.5009 103.458 18.3965C100.987 15.2921 102.996 10.2164 107.564 6.58155C112.132 2.94665 117.53 2.12894 120 5.23334Z"/><path fill="#fff" d="M114.184 6.58282C115.354 8.05333 112.391 8.70354 109.762 10.7953C107.133 12.8872 105.834 15.6284 104.664 14.1579C103.494 12.6874 104.823 9.98324 107.452 7.89143C110.08 5.79962 113.014 5.11232 114.184 6.58282Z"/><path fill="#C0C4C6" d="M63.2941 20.1941C60.227 11.1854 67.357 1.97153 77.3952 1.97153C85.5741 1.97153 92.2044 8.22069 92.2044 15.9294L92.2044 42.4434C92.2044 47.8602 87.5454 52.2515 81.7981 52.2515C77.2758 52.2515 73.2711 49.4986 71.8894 45.4401L63.2941 20.1941Z"/><path fill="#D6D6D6" d="M77.9486 4.15304C81.1382 6.51231 76.0561 8.63955 72.5845 13.3329C69.1129 18.0262 68.5665 23.5084 65.3769 21.1491C62.1874 18.7898 62.8143 13.3672 66.2859 8.67385C69.7574 3.98051 74.7591 1.79377 77.9486 4.15304Z"/><path fill="#fff" d="M72.6799 6.96182C74.1908 8.07937 71.497 9.47431 69.4992 12.1752C67.5013 14.8761 66.956 17.8603 65.4452 16.7427C63.9343 15.6252 64.5178 12.6692 66.5156 9.96832C68.5134 7.2674 71.1691 5.84428 72.6799 6.96182Z"/><path fill="#B2B2B2" d="M75.9306 49.8882C73.6208 48.2534 78.2916 46.8008 82.2213 42.8712C86.1509 38.9415 86.2541 32.4244 88.8039 34.9742C91.3538 37.5241 89.9019 42.4412 85.9722 46.3709C82.0426 50.3006 78.2405 51.523 75.9306 49.8882Z"/><path fill="#C0C4C6" d="M159.453 120.116C159.453 155.205 131.146 183.651 96.2267 183.651C61.3076 183.651 33 155.205 33 120.116C33 85.0262 61.3076 33.6506 96.2267 33.6506C131.146 33.6506 159.453 85.0262 159.453 120.116Z"/><path fill="#D6D6D6" d="M45.8066 73.3555C57.3515 51.507 75.64 33.6506 96.2265 33.6506C107.198 33.6506 117.516 38.7219 126.509 46.7662C130.82 60.8194 125.62 78.9505 112.004 92.5664C94.0092 110.561 68.1275 113.856 54.1958 99.9238C47.4105 93.1385 44.7113 83.5185 45.8066 73.3555Z"/><path fill="#E4E4E4" d="M90.3693 77.3245C99.1284 68.5654 100.732 55.9675 93.9506 49.1863C87.1693 42.4051 74.5715 44.0085 65.8124 52.7675C57.0533 61.5266 55.4499 74.1245 62.2312 80.9057C69.0124 87.6869 81.6103 86.0835 90.3693 77.3245Z"/><path fill="#B2B2B2" d="M151.354 102.744C150.491 100.176 146.903 100.908 146.518 103.589C141.571 138.011 111.959 164.464 76.1685 164.464C73.4876 164.464 70.8414 164.316 68.2376 164.027C65.5384 163.727 63.9405 167.021 66.2241 168.491C75.1268 174.221 85.7245 177.546 97.0988 177.546C128.646 177.546 154.221 151.971 154.221 120.424C154.221 114.165 153.215 108.278 151.354 102.744Z"/><path fill="#969696" d="M82.9686 169.978C114.704 169.978 141.581 149.18 150.713 120.47C151.321 118.559 154.044 118.7 154.044 120.705C154.044 152.253 128.47 177.827 96.9222 177.827C91.4854 177.827 86.226 177.067 81.2444 175.649C77.6493 174.625 79.2306 169.978 82.9686 169.978Z"/><path fill="#fff" d="M80.7899 70.1032C75.3407 75.5524 70.6496 79.6963 66.5627 75.6094C62.4759 71.5225 63.5802 63.792 69.0294 58.3428C74.4786 52.8937 82.2091 51.7893 86.296 55.8762C90.3828 59.9631 86.239 64.654 80.7899 70.1032Z"/><path fill="#7D7D7D" d="M56.1666 135.84C55.0466 135.84 53.7266 135.76 52.2066 135.6C50.7266 135.48 49.2466 135.28 47.7666 135C46.3266 134.68 45.0666 134.28 43.9866 133.8V124.74C44.9466 125.18 46.0466 125.56 47.2866 125.88C48.5666 126.2 49.8466 126.44 51.1266 126.6C52.4066 126.76 53.4866 126.84 54.3666 126.84C56.5666 126.84 58.1666 126.5 59.1666 125.82C60.2066 125.14 60.7266 124.06 60.7266 122.58C60.7266 121.18 60.3666 120.18 59.6466 119.58C58.9266 118.94 57.5666 118.62 55.5666 118.62H43.8066V113.46L44.8266 96.6H69.8466L69.0666 105.24H54.4866L54.1266 110.76H58.5066C63.1866 110.76 66.6466 111.8 68.8866 113.88C71.1266 115.96 72.2466 119 72.2466 123C72.2466 126.84 70.9066 129.94 68.2266 132.3C65.5866 134.66 61.5666 135.84 56.1666 135.84Z"/><path fill="#7D7D7D" d="M93.7515 135.84C89.3115 135.84 85.7315 135.08 83.0115 133.56C80.3315 132 78.3715 129.74 77.1315 126.78C75.8915 123.82 75.2715 120.2 75.2715 115.92C75.2715 111.64 75.8915 108.02 77.1315 105.06C78.3715 102.1 80.3315 99.86 83.0115 98.34C85.7315 96.78 89.3115 96 93.7515 96C100.391 96 105.131 97.72 107.971 101.16C110.811 104.56 112.231 109.48 112.231 115.92C112.231 122.32 110.811 127.24 107.971 130.68C105.131 134.12 100.391 135.84 93.7515 135.84ZM93.7515 126.24C96.3515 126.24 98.1515 125.38 99.1515 123.66C100.191 121.9 100.711 119.32 100.711 115.92C100.711 112.48 100.191 109.9 99.1515 108.18C98.1515 106.46 96.3515 105.6 93.7515 105.6C91.1515 105.6 89.3315 106.46 88.2915 108.18C87.2915 109.9 86.7915 112.48 86.7915 115.92C86.7915 119.32 87.2915 121.9 88.2915 123.66C89.3315 125.38 91.1515 126.24 93.7515 126.24Z"/><path fill="#7D7D7D" d="M133.712 135.84C129.272 135.84 125.692 135.08 122.972 133.56C120.292 132 118.332 129.74 117.092 126.78C115.852 123.82 115.232 120.2 115.232 115.92C115.232 111.64 115.852 108.02 117.092 105.06C118.332 102.1 120.292 99.86 122.972 98.34C125.692 96.78 129.272 96 133.712 96C140.352 96 145.092 97.72 147.932 101.16C150.772 104.56 152.192 109.48 152.192 115.92C152.192 122.32 150.772 127.24 147.932 130.68C145.092 134.12 140.352 135.84 133.712 135.84ZM133.712 126.24C136.312 126.24 138.112 125.38 139.112 123.66C140.152 121.9 140.672 119.32 140.672 115.92C140.672 112.48 140.152 109.9 139.112 108.18C138.112 106.46 136.312 105.6 133.712 105.6C131.112 105.6 129.292 106.46 128.252 108.18C127.252 109.9 126.752 112.48 126.752 115.92C126.752 119.32 127.252 121.9 128.252 123.66C129.292 125.38 131.112 126.24 133.712 126.24Z"/><path fill="#B2B2B2" fill-rule="evenodd" d="M46.9866 125.801C47.0857 125.828 47.1857 125.854 47.2866 125.88C48.5666 126.2 49.8466 126.44 51.1266 126.6C52.4066 126.76 53.4866 126.84 54.3666 126.84C56.5666 126.84 58.1666 126.5 59.1666 125.82C60.2066 125.14 60.7266 124.06 60.7266 122.58C60.7266 121.18 60.3666 120.18 59.6466 119.58C58.9266 118.94 57.5666 118.62 55.5666 118.62H43.8066V113.46L44.8266 96.6H69.8466L69.0666 105.24H54.4866L54.1266 110.76H58.5066C63.1866 110.76 66.6466 111.8 68.8866 113.88C71.1266 115.96 72.2466 119 72.2466 123C72.2466 126.84 70.9066 129.94 68.2266 132.3C65.5866 134.66 61.5666 135.84 56.1666 135.84C55.0466 135.84 53.7266 135.76 52.2066 135.6C50.7266 135.48 49.2466 135.28 47.7666 135C46.3266 134.68 45.0666 134.28 43.9866 133.8V124.74C44.8685 125.144 45.8685 125.498 46.9866 125.801ZM51.9284 138.587C50.3531 138.458 48.7798 138.245 47.209 137.948L47.1623 137.939L47.1158 137.929C45.5266 137.575 44.0691 137.12 42.7682 136.541L40.9866 135.75V121.62H40.8066V113.369L42.0027 93.6H73.1297L71.808 108.24H63.7597C66.5726 108.807 69.0144 109.905 70.928 111.682C71.4541 112.17 71.9278 112.693 72.3515 113.248C72.5659 109.774 73.2162 106.642 74.3645 103.901C75.8487 100.358 78.2454 97.5959 81.5254 95.7339C84.849 93.8298 88.9969 93 93.7515 93C100.836 93 106.635 94.8346 110.279 99.2432C111.785 101.048 112.92 103.152 113.72 105.518C113.904 104.965 114.106 104.426 114.325 103.901C115.81 100.358 118.207 97.5957 121.487 95.7337C124.81 93.8297 128.958 93 133.712 93C140.797 93 146.596 94.8346 150.24 99.2432C153.693 103.381 155.192 109.092 155.192 115.92C155.192 122.721 153.688 128.421 150.246 132.59C146.602 137.004 140.8 138.84 133.712 138.84C128.965 138.84 124.826 138.033 121.509 136.179L121.486 136.166L121.463 136.153C118.198 134.252 115.808 131.479 114.325 127.939C114.104 127.41 113.9 126.866 113.715 126.307C112.915 128.668 111.784 130.774 110.285 132.59C106.641 137.004 100.84 138.84 93.7515 138.84C89.0041 138.84 84.8654 138.033 81.548 136.179L81.525 136.166L81.5023 136.153C78.3074 134.293 75.95 131.597 74.461 128.166C73.6628 130.602 72.2531 132.749 70.2179 134.544C66.8019 137.593 61.9257 138.84 56.1666 138.84C54.9212 138.84 53.5036 138.752 51.9284 138.587ZM147.932 101.16C145.092 97.72 140.352 96 133.712 96C129.272 96 125.692 96.78 122.972 98.34C120.292 99.86 118.332 102.1 117.092 105.06C115.852 108.02 115.232 111.64 115.232 115.92C115.232 120.2 115.852 123.82 117.092 126.78C118.332 129.74 120.292 132 122.972 133.56C125.692 135.08 129.272 135.84 133.712 135.84C140.352 135.84 145.092 134.12 147.932 130.68C150.772 127.24 152.192 122.32 152.192 115.92C152.192 109.48 150.772 104.56 147.932 101.16ZM107.971 101.16C105.131 97.72 100.391 96 93.7515 96C89.3115 96 85.7315 96.78 83.0115 98.34C80.3315 99.86 78.3715 102.1 77.1315 105.06C75.8915 108.02 75.2715 111.64 75.2715 115.92C75.2715 120.2 75.8915 123.82 77.1315 126.78C78.3715 129.74 80.3315 132 83.0115 133.56C85.7315 135.08 89.3115 135.84 93.7515 135.84C100.391 135.84 105.131 134.12 107.971 130.68C110.811 127.24 112.231 122.32 112.231 115.92C112.231 109.48 110.811 104.56 107.971 101.16ZM44.3796 121.62H55.5666C56.4256 121.62 57.0183 121.691 57.3995 121.78C57.5153 121.807 57.5972 121.833 57.6518 121.853C57.6844 121.97 57.7266 122.198 57.7266 122.58C57.7266 122.973 57.6577 123.148 57.6336 123.199C57.6214 123.224 57.6118 123.236 57.6041 123.245C57.5959 123.254 57.5742 123.277 57.5249 123.309L57.5022 123.324L57.4797 123.339C57.2408 123.502 56.3919 123.84 54.3666 123.84C53.6537 123.84 52.7065 123.774 51.4987 123.623C50.3448 123.479 49.1872 123.262 48.0253 122.972C46.927 122.688 46.0032 122.364 45.2366 122.013L44.3796 121.62ZM96.5633 122.143L96.5687 122.134C97.2101 121.048 97.7115 119.1 97.7115 115.92C97.7115 112.685 97.2049 110.759 96.5843 109.732L96.5709 109.71L96.558 109.688C96.2603 109.176 95.6584 108.6 93.7515 108.6C91.8734 108.6 91.2116 109.162 90.8713 109.712C90.2735 110.756 89.7915 112.697 89.7915 115.92C89.7915 119.076 90.2649 121.035 90.8785 122.14C91.2208 122.686 91.8865 123.24 93.7515 123.24C95.6584 123.24 96.2603 122.664 96.558 122.152L96.5633 122.143ZM88.2915 108.18C89.3315 106.46 91.1515 105.6 93.7515 105.6C96.3515 105.6 98.1515 106.46 99.1515 108.18C100.191 109.9 100.711 112.48 100.711 115.92C100.711 119.32 100.191 121.9 99.1515 123.66C98.1515 125.38 96.3515 126.24 93.7515 126.24C91.1515 126.24 89.3315 125.38 88.2915 123.66C87.2915 121.9 86.7915 119.32 86.7915 115.92C86.7915 112.48 87.2915 109.9 88.2915 108.18ZM136.524 122.143L136.53 122.134C137.171 121.048 137.672 119.1 137.672 115.92C137.672 112.685 137.166 110.759 136.545 109.732L136.532 109.71L136.519 109.688C136.221 109.176 135.619 108.6 133.712 108.6C131.834 108.6 131.173 109.161 130.832 109.711C130.234 110.756 129.752 112.697 129.752 115.92C129.752 119.076 130.226 121.035 130.839 122.14C131.182 122.686 131.847 123.24 133.712 123.24C135.619 123.24 136.221 122.664 136.519 122.152L136.524 122.143ZM128.252 108.18C129.292 106.46 131.112 105.6 133.712 105.6C136.312 105.6 138.112 106.46 139.112 108.18C140.152 109.9 140.672 112.48 140.672 115.92C140.672 119.32 140.152 121.9 139.112 123.66C138.112 125.38 136.312 126.24 133.712 126.24C131.112 126.24 129.292 125.38 128.252 123.66C127.252 121.9 126.752 119.32 126.752 115.92C126.752 112.48 127.252 109.9 128.252 108.18Z" clip-rule="evenodd"/></g><defs><clipPath id="clip0"><rect width="192" height="192" fill="#fff"/></clipPath></defs></svg>