<svg xmlns="http://www.w3.org/2000/svg" width="192" height="192" fill="none" viewBox="0 0 192 192"><path fill="#B85E0B" d="M61.5222 153.828C63.8437 151.474 67.168 150.505 70.3404 151.255L81.0415 153.786C90.8159 156.098 100.97 156.11 110.749 153.819L121.745 151.244C124.921 150.501 128.245 151.48 130.562 153.841L141.157 164.642C146.61 170.2 143.802 179.785 136.279 181.3L119.716 184.633C104.033 187.789 87.9071 187.789 72.2245 184.633L55.7209 181.312C48.1858 179.795 45.3857 170.185 50.8614 164.635L61.5222 153.828Z"/><path fill="#EB8C00" d="M63.1515 152.661C65.3358 150.518 68.3166 149.596 71.2176 150.165L84.5834 152.787C92.3503 154.311 100.306 154.325 108.078 152.828L121.81 150.182C124.81 149.604 127.884 150.621 130.074 152.914L139.068 162.338C142.807 166.255 140.819 173.108 135.682 174.011L117.131 177.272C103.404 179.686 89.3984 179.57 75.7072 176.93L57.2218 173.366C52.0482 172.368 50.1895 165.375 54.0829 161.556L63.1515 152.661Z"/><ellipse fill="#B85E0B" rx="33.665" ry="7.938" transform="matrix(0.956375 0.292143 -0.228803 0.973473 98.4359 152.563)"/><ellipse fill="#B85E0B" rx="33.665" ry="7.938" transform="matrix(-0.956375 0.292143 0.228803 0.973473 92.2956 152.563)"/><path fill="#FFDB44" d="M33.6657 38.2203C35.0382 37.4185 36.5815 38.9618 35.7797 40.3343L31.4646 47.7204C31.1832 48.2021 31.1832 48.7979 31.4646 49.2796L35.7797 56.6657C36.5815 58.0382 35.0382 59.5815 33.6657 58.7797L26.2796 54.4646C25.7979 54.1832 25.2021 54.1832 24.7204 54.4646L17.3343 58.7797C15.9618 59.5815 14.4185 58.0382 15.2203 56.6657L19.5354 49.2796C19.8168 48.7979 19.8168 48.2021 19.5354 47.7204L15.2203 40.3343C14.4185 38.9618 15.9618 37.4185 17.3343 38.2203L24.7204 42.5354C25.2021 42.8168 25.7979 42.8168 26.2796 42.5354L33.6657 38.2203Z"/><path fill="#FFDB44" d="M172.444 143.147C173.359 142.612 174.388 143.641 173.853 144.556L170.976 149.48C170.789 149.801 170.789 150.199 170.976 150.52L173.853 155.444C174.388 156.359 173.359 157.388 172.444 156.853L167.52 153.976C167.199 153.789 166.801 153.789 166.48 153.976L161.556 156.853C160.641 157.388 159.612 156.359 160.147 155.444L163.024 150.52C163.211 150.199 163.211 149.801 163.024 149.48L160.147 144.556C159.612 143.641 160.641 142.612 161.556 143.147L166.48 146.024C166.801 146.211 167.199 146.211 167.52 146.024L172.444 143.147Z"/><path fill="#FFC700" d="M156.306 113.253C149.237 149.257 114.759 168.002 81.2115 161.665C47.6637 155.327 29.9768 126.039 35.1879 93.343C40.399 60.6469 72.8009 37.5605 106.349 43.8976C139.896 50.2348 163.151 78.3921 156.306 113.253Z"/><mask id="mask0_1637_1531" width="124" height="121" x="34" y="43" maskUnits="userSpaceOnUse" style="mask-type:alpha"><path fill="#FFAF00" d="M156.195 113.815C149.126 149.819 114.648 168.563 81.1006 162.226C47.5529 155.889 29.866 126.601 35.077 93.9045C40.2881 61.2084 72.6901 38.122 106.238 44.4592C139.786 50.7964 163.04 78.9536 156.195 113.815Z"/></mask><g mask="url(#mask0_1637_1531)"><path fill="#ED8103" d="M97.4107 80.4043C99.0676 79.6312 101.055 80.0067 102.376 81.3422L120.061 99.2238C121.443 100.62 121.776 102.743 120.882 104.443L109.707 125.692C108.837 127.346 107.002 128.226 105.149 127.876L80.3995 123.2C78.5467 122.85 77.0908 121.35 76.7836 119.473L72.8379 95.368C72.5221 93.4387 73.4929 91.563 75.2258 90.7546L97.4107 80.4043Z"/><path fill="#F3A700" d="M106.288 53.0429C104.399 53.9241 102.133 53.4961 100.627 51.9737L90.8466 42.0841C89.2719 40.492 88.8916 38.0729 89.9111 36.1342L96.0441 24.472C97.0358 22.5863 99.1278 21.5841 101.24 21.9831L114.992 24.5808C117.104 24.9797 118.764 26.6905 119.114 28.8298L121.279 42.0595C121.639 44.2588 120.533 46.397 118.557 47.3185L106.288 53.0429Z"/><path fill="#F3A700" d="M38.64 90.8905C36.7512 91.7717 34.4854 91.3437 32.9797 89.8213L22.3991 79.1232C20.8245 77.5311 20.4441 75.112 21.4637 73.1733L28.1056 60.5435C29.0973 58.6577 31.1893 57.6556 33.3014 58.0545L48.1675 60.8626C50.2797 61.2616 51.9393 62.9724 52.2894 65.1117L54.6347 79.4391C54.9947 81.6384 53.888 83.7766 51.9127 84.6981L38.64 90.8905Z"/><path fill="#ED8103" d="M50.7827 165.561C48.8939 166.442 46.6281 166.014 45.1224 164.491L34.3673 153.617C32.7927 152.025 32.4124 149.606 33.4319 147.667L40.1849 134.826C41.1766 132.94 43.2686 131.938 45.3807 132.337L60.49 135.191C62.6021 135.59 64.2617 137.301 64.6119 139.44L66.9964 154.007C67.3564 156.206 66.2497 158.345 64.2744 159.266L50.7827 165.561Z"/><path fill="#F18200" d="M126.007 178.761C124.118 179.643 121.852 179.215 120.347 177.692L109.544 166.769C107.969 165.177 107.589 162.758 108.608 160.819L115.392 147.92C116.383 146.034 118.475 145.032 120.587 145.431L135.764 148.298C137.876 148.697 139.535 150.408 139.885 152.547L142.281 167.18C142.641 169.379 141.534 171.517 139.559 172.439L126.007 178.761Z"/><path fill="#ED8103" d="M161.191 113.587C159.303 114.469 157.037 114.041 155.531 112.518L145.31 102.183C143.735 100.591 143.355 98.1719 144.374 96.2332L150.787 84.038C151.779 82.1522 153.871 81.1501 155.983 81.549L170.349 84.2626C172.461 84.6616 174.121 86.3724 174.471 88.5116L176.736 102.346C177.096 104.545 175.989 106.684 174.014 107.605L161.191 113.587Z"/></g><g style="mix-blend-mode:screen" opacity=".5"><path fill="#FFDB44" d="M100.746 48.8013C105.418 49.2885 103.642 56.0712 99.0382 56.889C82.4174 59.8415 66.583 70.0955 57.0209 85.864C50.6449 96.3786 48.0194 107.759 48.7748 118.463C49.1025 123.107 43.4162 126.752 41.4952 122.508C40.5263 120.367 39.7037 118.133 39.0415 115.813C31.2 88.3442 48.8066 59.2356 78.3669 50.7971C85.9056 48.645 93.4937 48.0451 100.746 48.8013Z"/></g><g style="mix-blend-mode:darken"><path fill="#FFAF00" d="M128.492 145.491C124.976 148.151 121.826 143.35 124.489 139.789C126.05 137.701 127.54 135.521 128.951 133.254C137.741 119.126 141.96 103.952 141.842 90.1883C141.802 85.5319 148.381 81.9693 149.58 86.4818C155.483 108.702 146.399 131.943 128.492 145.491Z"/></g><path fill="#fff" d="M59.5568 63.4714C63.2282 60.3718 65.8109 66.1295 62.6023 69.7336C59.3995 73.3311 56.4899 77.3178 53.9577 81.6622C50.8652 86.9678 48.5455 92.4469 46.9684 97.9453C45.6408 102.574 39.7002 103.329 40.2981 98.5282C41.1639 91.5753 43.4445 84.6411 47.2499 78.1122C50.5585 72.4359 54.7489 67.5305 59.5568 63.4714Z"/><line x1="99.541" x2="102.43" y1="79.727" y2="57.064" stroke="url(#paint0_linear_1637_1531)" stroke-width="2"/><line x1="122.287" x2="147.7" y1="100.702" y2="98.648" stroke="url(#paint1_linear_1637_1531)" stroke-width="2"/><line x1="108.344" x2="120.565" y1="129.278" y2="146.588" stroke="url(#paint2_linear_1637_1531)" stroke-width="2"/><line x1="73.238" x2="54.717" y1="92.523" y2="82.229" stroke="url(#paint3_linear_1637_1531)" stroke-width="2"/><line x1="78.135" x2="65.013" y1="122.449" y2="139.087" stroke="url(#paint4_linear_1637_1531)" stroke-width="2"/><path fill="#EB8C00" d="M62 164.511C85.4661 159.83 109.534 159.83 133 164.511V172H62V164.511Z"/><ellipse cx="106" cy="31" fill="#FFDB44" rx="32" ry="14"/><path fill="#FFDB44" d="M58.84 48H54.84V52H58.84V48ZM58.84 23.6455H62.84V19.0028L58.2484 19.6894L58.84 23.6455ZM53.2955 24.4745H49.2955V29.1171L53.887 28.4306L53.2955 24.4745ZM53.2955 16.3391L52.7185 12.3809L49.2955 12.8799V16.3391H53.2955ZM68.5818 14.1109H72.5818V9.48558L68.0049 10.1527L68.5818 14.1109ZM68.5818 48V52H72.5818V48H68.5818ZM62.84 48V23.6455H54.84V48H62.84ZM58.2484 19.6894L52.7039 20.5185L53.887 28.4306L59.4316 27.6015L58.2484 19.6894ZM57.2955 24.4745V16.3391H49.2955V24.4745H57.2955ZM53.8724 20.2973L69.1588 18.0691L68.0049 10.1527L52.7185 12.3809L53.8724 20.2973ZM64.5818 14.1109V48H72.5818V14.1109H64.5818ZM68.5818 44H58.84V52H68.5818V44ZM78.9058 46.5491L76.8935 50.0061L76.9238 50.0237L76.9545 50.0409L78.9058 46.5491ZM73.8276 40.6936L70.1382 42.2392L73.8276 40.6936ZM73.8276 21.9355L70.1382 20.3899L73.8276 21.9355ZM78.9058 16.1318L80.8791 19.6112L80.8875 19.6064L80.8958 19.6016L78.9058 16.1318ZM100.462 18.5673L97.3775 21.1139L97.3849 21.1227L97.3922 21.1316L100.462 18.5673ZM100.462 44.0618L103.547 46.6084L100.462 44.0618ZM92.8449 37.9991L89.4012 35.9642L89.394 35.9764L89.3868 35.9886L92.8449 37.9991ZM92.8449 24.63L89.3868 26.6405L89.4041 26.6702L89.4219 26.6997L92.8449 24.63ZM83.4658 24.63L80.0429 22.5603L80.025 22.5898L80.0078 22.6195L83.4658 24.63ZM83.4658 37.9991L79.988 39.9751L80.0148 40.0223L80.0429 40.0688L83.4658 37.9991ZM88.1812 44.5182C84.7566 44.5182 82.4097 43.9249 80.8571 43.0573L76.9545 50.0409C80.1001 51.7987 83.9368 52.5182 88.1812 52.5182V44.5182ZM80.9181 43.0921C79.3833 42.1987 78.2642 40.9319 77.517 39.1481L70.1382 42.2392C71.5328 45.5681 73.7992 48.2049 76.8935 50.0061L80.9181 43.0921ZM77.517 39.1481C76.7072 37.215 76.2212 34.6477 76.2212 31.3145H68.2212C68.2212 35.3742 68.8062 39.0595 70.1382 42.2392L77.517 39.1481ZM76.2212 31.3145C76.2212 27.9814 76.7072 25.4141 77.517 23.481L70.1382 20.3899C68.8062 23.5696 68.2212 27.2549 68.2212 31.3145H76.2212ZM77.517 23.481C78.261 21.7049 79.3687 20.4679 80.8791 19.6112L76.9324 12.6525C73.8138 14.4212 71.536 17.0533 70.1382 20.3899L77.517 23.481ZM80.8958 19.6016C82.4387 18.7168 84.7703 18.1109 88.1812 18.1109V10.1109C83.9231 10.1109 80.071 10.8523 76.9157 12.662L80.8958 19.6016ZM88.1812 18.1109C93.3184 18.1109 95.9965 19.4411 97.3775 21.1139L103.547 16.0207C100.022 11.7516 94.5131 10.1109 88.1812 10.1109V18.1109ZM97.3922 21.1316C99.0232 23.0841 100.141 26.2754 100.141 31.3145H108.141C108.141 25.2301 106.807 19.9232 103.532 16.003L97.3922 21.1316ZM100.141 31.3145C100.141 36.3077 99.0281 39.516 97.3775 41.5152L103.547 46.6084C106.802 42.6658 108.141 37.3759 108.141 31.3145H100.141ZM97.3775 41.5152C95.9965 43.188 93.3184 44.5182 88.1812 44.5182V52.5182C94.5131 52.5182 100.022 50.8775 103.547 46.6084L97.3775 41.5152ZM88.1812 44.2273C91.3508 44.2273 94.5029 43.1056 96.3029 40.0096L89.3868 35.9886C89.363 36.0296 89.352 36.037 89.3571 36.0323C89.3622 36.0276 89.3526 36.0391 89.3068 36.061C89.2055 36.1094 88.8811 36.2273 88.1812 36.2273V44.2273ZM96.2886 40.034C97.7182 37.6146 98.1921 34.5446 98.1921 31.3145H90.1921C90.1921 33.9573 89.7679 35.3436 89.4012 35.9642L96.2886 40.034ZM98.1921 31.3145C98.1921 28.0709 97.7251 24.9705 96.2678 22.5603L89.4219 26.6997C89.761 27.2604 90.1921 28.6163 90.1921 31.3145H98.1921ZM96.3029 22.6195C94.5029 19.5235 91.3508 18.4018 88.1812 18.4018V26.4018C88.8811 26.4018 89.2055 26.5197 89.3068 26.5681C89.3526 26.59 89.3622 26.6015 89.3571 26.5968C89.352 26.5921 89.363 26.5995 89.3868 26.6405L96.3029 22.6195ZM88.1812 18.4018C85.0046 18.4018 81.879 19.5236 80.0429 22.5603L86.8887 26.6997C86.9303 26.6309 86.9511 26.6114 87.0272 26.5754C87.1467 26.519 87.4836 26.4018 88.1812 26.4018V18.4018ZM80.0078 22.6195C78.6163 25.0128 78.1703 28.0871 78.1703 31.3145H86.1703C86.1703 28.6002 86.588 27.2181 86.9238 26.6405L80.0078 22.6195ZM78.1703 31.3145C78.1703 34.5281 78.6229 37.5727 79.988 39.9751L86.9436 36.0231C86.5814 35.3855 86.1703 33.9737 86.1703 31.3145H78.1703ZM80.0429 40.0688C81.879 43.1055 85.0046 44.2273 88.1812 44.2273V36.2273C87.4836 36.2273 87.1467 36.1101 87.0272 36.0537C86.9511 36.0177 86.9303 35.9982 86.8887 35.9294L80.0429 40.0688ZM113.417 46.5491L111.405 50.0061L111.436 50.0237L111.466 50.0409L113.417 46.5491ZM108.339 40.6936L104.65 42.2392L108.339 40.6936ZM108.339 21.9355L104.65 20.3899L108.339 21.9355ZM113.417 16.1318L115.391 19.6112L115.399 19.6064L115.408 19.6016L113.417 16.1318ZM134.974 18.5673L131.889 21.1139L131.897 21.1227L131.904 21.1316L134.974 18.5673ZM134.974 44.0618L138.058 46.6084L134.974 44.0618ZM127.357 37.9991L123.913 35.9642L123.906 35.9764L123.899 35.9886L127.357 37.9991ZM127.357 24.63L123.899 26.6405L123.916 26.6702L123.934 26.6997L127.357 24.63ZM117.978 24.63L114.555 22.5603L114.537 22.5898L114.519 22.6195L117.978 24.63ZM117.978 37.9991L114.5 39.9751L114.526 40.0223L114.555 40.0688L117.978 37.9991ZM122.693 44.5182C119.268 44.5182 116.921 43.9249 115.369 43.0573L111.466 50.0409C114.612 51.7987 118.449 52.5182 122.693 52.5182V44.5182ZM115.43 43.0921C113.895 42.1987 112.776 40.9319 112.029 39.1481L104.65 42.2392C106.044 45.5681 108.311 48.2049 111.405 50.0061L115.43 43.0921ZM112.029 39.1481C111.219 37.215 110.733 34.6477 110.733 31.3145H102.733C102.733 35.3742 103.318 39.0595 104.65 42.2392L112.029 39.1481ZM110.733 31.3145C110.733 27.9814 111.219 25.4141 112.029 23.481L104.65 20.3899C103.318 23.5696 102.733 27.2549 102.733 31.3145H110.733ZM112.029 23.481C112.773 21.7049 113.88 20.4679 115.391 19.6112L111.444 12.6525C108.326 14.4212 106.048 17.0533 104.65 20.3899L112.029 23.481ZM115.408 19.6016C116.95 18.7168 119.282 18.1109 122.693 18.1109V10.1109C118.435 10.1109 114.583 10.8523 111.427 12.662L115.408 19.6016ZM122.693 18.1109C127.83 18.1109 130.508 19.4411 131.889 21.1139L138.058 16.0207C134.534 11.7516 129.025 10.1109 122.693 10.1109V18.1109ZM131.904 21.1316C133.535 23.0841 134.653 26.2754 134.653 31.3145H142.653C142.653 25.2301 141.318 19.9232 138.044 16.003L131.904 21.1316ZM134.653 31.3145C134.653 36.3077 133.54 39.516 131.889 41.5152L138.058 46.6084C141.313 42.6658 142.653 37.3759 142.653 31.3145H134.653ZM131.889 41.5152C130.508 43.188 127.83 44.5182 122.693 44.5182V52.5182C129.025 52.5182 134.534 50.8775 138.058 46.6084L131.889 41.5152ZM122.693 44.2273C125.863 44.2273 129.015 43.1056 130.815 40.0096L123.899 35.9886C123.875 36.0296 123.864 36.037 123.869 36.0323C123.874 36.0276 123.864 36.0391 123.819 36.061C123.717 36.1094 123.393 36.2273 122.693 36.2273V44.2273ZM130.8 40.034C132.23 37.6146 132.704 34.5446 132.704 31.3145H124.704C124.704 33.9573 124.28 35.3436 123.913 35.9642L130.8 40.034ZM132.704 31.3145C132.704 28.0709 132.237 24.9705 130.78 22.5603L123.934 26.6997C124.273 27.2604 124.704 28.6163 124.704 31.3145H132.704ZM130.815 22.6195C129.015 19.5235 125.863 18.4018 122.693 18.4018V26.4018C123.393 26.4018 123.717 26.5197 123.819 26.5681C123.864 26.59 123.874 26.6015 123.869 26.5968C123.864 26.5921 123.875 26.5995 123.899 26.6405L130.815 22.6195ZM122.693 18.4018C119.516 18.4018 116.391 19.5236 114.555 22.5603L121.4 26.6997C121.442 26.6309 121.463 26.6114 121.539 26.5754C121.658 26.519 121.995 26.4018 122.693 26.4018V18.4018ZM114.519 22.6195C113.128 25.0128 112.682 28.0871 112.682 31.3145H120.682C120.682 28.6002 121.1 27.2181 121.436 26.6405L114.519 22.6195ZM112.682 31.3145C112.682 34.5281 113.135 37.5727 114.5 39.9751L121.455 36.0231C121.093 35.3855 120.682 33.9737 120.682 31.3145H112.682ZM114.555 40.0688C116.391 43.1055 119.516 44.2273 122.693 44.2273V36.2273C121.995 36.2273 121.658 36.1101 121.539 36.0537C121.463 36.0177 121.442 35.9982 121.4 35.9294L114.555 40.0688Z"/><path fill="#ED8103" d="M58.84 48V23.6455L53.2955 24.4745V16.3391L68.5818 14.1109V48H58.84ZM88.1812 48.5182C84.3467 48.5182 81.2549 47.8618 78.9058 46.5491C76.5912 45.2018 74.8985 43.25 73.8276 40.6936C72.7567 38.1373 72.2212 35.0109 72.2212 31.3145C72.2212 27.6182 72.7567 24.4918 73.8276 21.9355C74.8985 19.3791 76.5912 17.4445 78.9058 16.1318C81.2549 14.7845 84.3467 14.1109 88.1812 14.1109C93.9158 14.1109 98.0094 15.5964 100.462 18.5673C102.915 21.5036 104.141 25.7527 104.141 31.3145C104.141 36.8418 102.915 41.0909 100.462 44.0618C98.0094 47.0327 93.9158 48.5182 88.1812 48.5182ZM88.1812 40.2273C90.4267 40.2273 91.9812 39.4845 92.8449 37.9991C93.7431 36.4791 94.1921 34.2509 94.1921 31.3145C94.1921 28.3436 93.7431 26.1155 92.8449 24.63C91.9812 23.1445 90.4267 22.4018 88.1812 22.4018C85.9358 22.4018 84.364 23.1445 83.4658 24.63C82.6021 26.1155 82.1703 28.3436 82.1703 31.3145C82.1703 34.2509 82.6021 36.4791 83.4658 37.9991C84.364 39.4845 85.9358 40.2273 88.1812 40.2273ZM122.693 48.5182C118.858 48.5182 115.767 47.8618 113.418 46.5491C111.103 45.2018 109.41 43.25 108.339 40.6936C107.268 38.1373 106.733 35.0109 106.733 31.3145C106.733 27.6182 107.268 24.4918 108.339 21.9355C109.41 19.3791 111.103 17.4445 113.418 16.1318C115.767 14.7845 118.858 14.1109 122.693 14.1109C128.428 14.1109 132.521 15.5964 134.974 18.5673C137.427 21.5036 138.653 25.7527 138.653 31.3145C138.653 36.8418 137.427 41.0909 134.974 44.0618C132.521 47.0327 128.428 48.5182 122.693 48.5182ZM122.693 40.2273C124.938 40.2273 126.493 39.4845 127.357 37.9991C128.255 36.4791 128.704 34.2509 128.704 31.3145C128.704 28.3436 128.255 26.1155 127.357 24.63C126.493 23.1445 124.938 22.4018 122.693 22.4018C120.448 22.4018 118.876 23.1445 117.978 24.63C117.114 26.1155 116.682 28.3436 116.682 31.3145C116.682 34.2509 117.114 36.4791 117.978 37.9991C118.876 39.4845 120.448 40.2273 122.693 40.2273Z"/><defs><linearGradient id="paint0_linear_1637_1531" x1="100.533" x2="103.435" y1="79.854" y2="55.094" gradientUnits="userSpaceOnUse"><stop stop-color="#EF8103"/><stop offset="1" stop-color="#ED8103" stop-opacity="0"/></linearGradient><linearGradient id="paint1_linear_1637_1531" x1="122.368" x2="150.069" y1="101.699" y2="99.143" gradientUnits="userSpaceOnUse"><stop stop-color="#EF8103"/><stop offset="1" stop-color="#ED8103" stop-opacity="0"/></linearGradient><linearGradient id="paint2_linear_1637_1531" x1="107.527" x2="121.039" y1="129.855" y2="148.616" gradientUnits="userSpaceOnUse"><stop stop-color="#EF8103"/><stop offset="1" stop-color="#ED8103" stop-opacity="0"/></linearGradient><linearGradient id="paint3_linear_1637_1531" x1="73.724" x2="53.41" y1="91.649" y2="80.607" gradientUnits="userSpaceOnUse"><stop stop-color="#EF8103"/><stop offset="1" stop-color="#ED8103" stop-opacity="0"/></linearGradient><linearGradient id="paint4_linear_1637_1531" x1="77.35" x2="63.203" y1="121.83" y2="140.118" gradientUnits="userSpaceOnUse"><stop stop-color="#EF8103"/><stop offset="1" stop-color="#ED8103" stop-opacity="0"/></linearGradient></defs></svg>