<svg xmlns="http://www.w3.org/2000/svg" width="192" height="192" fill="none" viewBox="0 0 192 192"><path fill="#FFC700" d="M130.831 29.0181C134.084 20.0094 126.522 10.7955 115.876 10.7955C107.201 10.7955 100.169 17.0447 100.169 24.7534L100.169 51.2674C100.169 56.6842 105.11 61.0755 111.206 61.0755C116.002 61.0755 120.25 58.3226 121.715 54.2641L130.831 29.0181Z"/><path fill="#FFDB44" d="M120 14.2333C122.47 17.3377 117.011 18.0771 112.442 21.712C107.874 25.3469 105.928 30.5008 103.457 27.3964C100.987 24.292 102.996 19.2164 107.564 15.5815C112.132 11.9466 117.529 11.1289 120 14.2333Z"/><path fill="#fff" d="M114.184 15.5828C115.354 17.0533 112.391 17.7035 109.762 19.7953C107.133 21.8871 105.834 24.6284 104.664 23.1579C103.494 21.6874 104.823 18.9832 107.452 16.8914C110.08 14.7996 113.014 14.1123 114.184 15.5828Z"/><path fill="#FFC700" d="M63.2941 29.1942C60.227 20.1855 67.357 10.9716 77.3952 10.9716C85.5741 10.9716 92.2044 17.2207 92.2044 24.9294L92.2044 51.4434C92.2044 56.8603 87.5454 61.2515 81.7981 61.2515C77.2758 61.2515 73.2711 58.4987 71.8894 54.4402L63.2941 29.1942Z"/><path fill="#FFDB44" d="M77.9486 13.153C81.1382 15.5123 76.0561 17.6395 72.5845 22.3329C69.1129 27.0262 68.5665 32.5084 65.3769 30.1491C62.1874 27.7898 62.8143 22.3672 66.2859 17.6738C69.7574 12.9805 74.7591 10.7938 77.9486 13.153Z"/><path fill="#fff" d="M72.68 15.9618C74.1909 17.0794 71.4971 18.4743 69.4993 21.1752C67.5015 23.8761 66.9561 26.8603 65.4453 25.7427C63.9344 24.6252 64.5179 21.6692 66.5157 18.9683C68.5135 16.2674 71.1692 14.8443 72.68 15.9618Z"/><path fill="#FFAF00" d="M75.9308 58.8882C73.6209 57.2534 78.2917 55.8008 82.2214 51.8712C86.151 47.9415 86.2542 41.4244 88.8041 43.9742C91.3539 46.5241 89.902 51.4412 85.9724 55.3709C82.0427 59.3006 78.2406 60.523 75.9308 58.8882Z"/><path fill="#F7B954" d="M148.168 163.809C148.26 173.698 124.878 181.932 95.9437 182.199C67.0093 182.467 43.4792 174.667 43.3877 164.778C43.2963 154.889 66.6781 146.656 95.6125 146.388C124.547 146.121 148.077 153.92 148.168 163.809Z"/><path fill="#F7B954" d="M40.594 149.55L150.68 148.532L150.725 148.733C152.433 156.493 150.266 164.599 144.914 170.472L45.4202 169.402C41.1631 164.389 39.3022 157.769 40.3234 151.272L40.594 149.55Z"/><path fill="#AE5714" d="M150.681 148.666C150.777 158.995 126.211 167.596 95.8112 167.877C65.4118 168.158 40.6907 160.013 40.5952 149.684C40.4996 139.355 65.0658 130.753 95.4652 130.472C125.865 130.191 150.586 138.337 150.681 148.666Z"/><path fill="#874410" d="M146.552 147.145C146.618 154.185 129.873 160.048 109.152 160.239C88.4314 160.431 71.5811 154.879 71.516 147.839C71.4509 140.798 88.1956 134.935 108.916 134.744C129.637 134.552 146.487 140.104 146.552 147.145Z"/><path fill="#FFC700" d="M148.273 104.133C148.273 132.511 124.743 155.516 95.7181 155.516C66.6928 155.516 43.1631 132.511 43.1631 104.133C43.1631 75.7547 66.6928 49.5715 95.7181 49.5715C124.743 49.5715 148.273 75.7547 148.273 104.133Z"/><path fill="#FFDB44" d="M54.1381 75.9815C63.5362 63.0506 78.424 52.4824 95.1824 52.4824C104.113 52.4824 112.513 55.4838 119.834 60.2447C123.343 68.5621 119.11 79.2928 108.026 87.3513C93.3774 98.0015 72.3084 99.9511 60.9673 91.7057C55.4437 87.6899 53.2464 81.9963 54.1381 75.9815Z"/><path fill="#FFE971" d="M90.4273 78.207C97.713 73.1861 99.0467 65.9647 93.4062 62.0775C87.7656 58.1904 77.2869 59.1095 70.0012 64.1304C62.7155 69.1513 61.3818 76.3727 67.0224 80.2599C72.6629 84.147 83.1417 83.2279 90.4273 78.207Z"/><path fill="#EB8C00" d="M63.1632 143.5C93.2766 143.5 136.336 129.651 145.002 103.246C145.579 101.488 148.163 101.618 148.163 103.462C148.163 132.478 123.896 156 93.9599 156C88.8009 156 83.8103 155.301 79.0832 153.996C75.6719 153.055 59.6162 143.5 63.1632 143.5Z"/><path fill="#FFAF00" d="M141.895 89.0693C141.175 86.9607 138.182 87.5616 137.86 89.7635C133.733 118.033 109.031 139.759 79.1745 139.759C76.9381 139.759 74.7306 139.637 72.5585 139.399C70.3069 139.153 68.9739 141.859 70.8788 143.066C78.3055 147.772 87.1462 150.502 96.6347 150.502C122.952 150.502 144.286 129.498 144.286 103.589C144.286 98.4487 143.447 93.6144 141.895 89.0693Z"/><path fill="#FFAF00" d="M84.8472 144.287C111.321 144.287 133.742 127.206 141.36 103.627C141.867 102.058 144.139 102.173 144.139 103.82C144.139 129.729 122.805 150.733 96.4874 150.733C91.952 150.733 87.5646 150.109 83.4088 148.944C80.4098 148.103 81.7289 144.287 84.8472 144.287Z"/><path fill="#fff" d="M82.5146 74.0675C77.9689 77.1911 74.0556 79.5665 70.6463 77.2238C67.237 74.8811 68.1582 70.4498 72.704 67.3262C77.2497 64.2026 83.6985 63.5695 87.1078 65.9122C90.5171 68.2549 87.0604 70.9439 82.5146 74.0675Z"/><mask id="mask0_1610_4039" width="106" height="107" x="43" y="50" maskUnits="userSpaceOnUse" style="mask-type:alpha"><circle cx="95.891" cy="103.482" r="52.529" fill="#868BAD" transform="rotate(10.4274 95.8913 103.482)"/></mask><g mask="url(#mask0_1610_4039)"><path fill="#ED8103" d="M97.3849 81.5915C98.9662 80.8348 100.855 81.1824 102.063 82.4525L116.981 98.133C118.19 99.4031 118.443 101.307 117.608 102.848L107.305 121.882C106.471 123.424 104.738 124.252 103.014 123.935L81.7284 120.018C80.0043 119.701 78.6806 118.309 78.4496 116.572L75.5974 95.1172C75.3664 93.3795 76.2806 91.6906 77.8619 90.9339L97.3849 81.5915Z"/><path fill="#ED8103" d="M107.881 66.6043C104.403 68.2691 100.247 67.5044 97.5891 64.7103L90.242 56.9877C87.5837 54.1935 87.0269 50.0054 88.8629 46.6138L93.9371 37.2399C95.7731 33.8483 99.5841 32.0246 103.377 32.7226L113.86 34.6518C117.653 35.3498 120.565 38.4108 121.074 42.2338L122.478 52.8C122.986 56.623 120.975 60.3385 117.496 62.0032L107.881 66.6043Z"/><path fill="#ED8103" d="M49.4123 94.0951C45.9334 95.7598 41.7783 94.9951 39.12 92.201L31.7729 84.4784C29.1146 81.6842 28.5578 77.4962 30.3938 74.1045L35.468 64.7306C37.304 61.339 41.115 59.5153 44.908 60.2133L55.3911 62.1425C59.1841 62.8405 62.0962 65.9015 62.6044 69.7245L64.0091 80.2907C64.5174 84.1137 62.5061 87.8292 59.0273 89.494L49.4123 94.0951Z"/><path fill="#ED8103" d="M58.0133 158.884C54.5344 160.549 50.3793 159.784 47.721 156.99L40.3739 149.267C37.7156 146.473 37.1588 142.285 38.9948 138.894L44.069 129.52C45.905 126.128 49.716 124.304 53.509 125.002L63.9921 126.932C67.7851 127.63 70.6972 130.691 71.2054 134.514L72.6101 145.08C73.1184 148.903 71.1071 152.618 67.6283 154.283L58.0133 158.884Z"/><path fill="#ED8103" d="M122.023 169.73C118.544 171.395 114.389 170.631 111.73 167.836L104.383 160.114C101.725 157.32 101.168 153.132 103.004 149.74L108.078 140.366C109.914 136.974 113.725 135.151 117.518 135.849L128.001 137.778C131.794 138.476 134.707 141.537 135.215 145.36L136.619 155.926C137.128 159.749 135.116 163.465 131.638 165.129L122.023 169.73Z"/><path fill="#ED8103" d="M154.022 114.978C150.544 116.643 146.388 115.878 143.73 113.084L136.383 105.362C133.725 102.568 133.168 98.3795 135.004 94.9878L140.078 85.6139C141.914 82.2223 145.725 80.3986 149.518 81.0966L160.001 83.0258C163.794 83.7238 166.706 86.7848 167.215 90.6078L168.619 101.174C169.128 104.997 167.116 108.713 163.637 110.377L154.022 114.978Z"/></g></svg>