<svg xmlns="http://www.w3.org/2000/svg" width="192" height="192" fill="none" viewBox="0 0 192 192"><path fill="#FFC700" d="M130.831 29.018C134.084 20.0093 126.522 10.7954 115.876 10.7954C107.201 10.7954 100.169 17.0446 100.169 24.7533L100.169 51.2672C100.169 56.6841 105.11 61.0753 111.206 61.0753C116.002 61.0753 120.25 58.3225 121.715 54.264L130.831 29.018Z"/><path fill="#FFDB44" d="M120 14.2333C122.47 17.3377 117.011 18.0771 112.442 21.712C107.874 25.3469 105.928 30.5008 103.457 27.3964C100.987 24.292 102.996 19.2164 107.564 15.5815C112.132 11.9466 117.529 11.1289 120 14.2333Z"/><path fill="#fff" d="M114.184 15.5828C115.354 17.0533 112.391 17.7035 109.762 19.7953C107.133 21.8871 105.834 24.6284 104.664 23.1579C103.494 21.6874 104.823 18.9832 107.452 16.8914C110.08 14.7996 113.014 14.1123 114.184 15.5828Z"/><path fill="#FFC700" d="M63.2941 29.1943C60.227 20.1856 67.357 10.9717 77.3952 10.9717C85.5741 10.9717 92.2044 17.2208 92.2044 24.9296L92.2044 51.4435C92.2044 56.8604 87.5454 61.2516 81.7981 61.2516C77.2758 61.2516 73.2711 58.4988 71.8894 54.4403L63.2941 29.1943Z"/><path fill="#FFDB44" d="M77.9486 13.153C81.1382 15.5123 76.0561 17.6395 72.5845 22.3329C69.1129 27.0262 68.5665 32.5084 65.3769 30.1491C62.1874 27.7898 62.8143 22.3672 66.2859 17.6738C69.7574 12.9805 74.7591 10.7938 77.9486 13.153Z"/><path fill="#fff" d="M72.68 15.9617C74.1909 17.0792 71.4971 18.4742 69.4993 21.1751C67.5015 23.876 66.9561 26.8601 65.4453 25.7426C63.9344 24.625 64.5179 21.6691 66.5157 18.9682C68.5135 16.2673 71.1692 14.8442 72.68 15.9617Z"/><path fill="#FFAF00" d="M75.9308 58.8881C73.6209 57.2533 78.2917 55.8007 82.2214 51.871C86.151 47.9414 86.2542 41.4242 88.8041 43.9741C91.3539 46.524 89.902 51.4411 85.9724 55.3708C82.0427 59.3004 78.2406 60.5228 75.9308 58.8881Z"/><path fill="#F7B954" d="M148.168 163.809C148.26 173.698 124.878 181.932 95.9437 182.2C67.0093 182.467 43.4792 174.668 43.3877 164.779C43.2963 154.89 66.6781 146.656 95.6125 146.388C124.547 146.121 148.077 153.921 148.168 163.809Z"/><path fill="#F7B954" d="M40.594 149.55L150.68 148.532L150.725 148.734C152.433 156.493 150.266 164.6 144.914 170.472L45.4202 169.402C41.1631 164.389 39.3022 157.769 40.3234 151.272L40.594 149.55Z"/><path fill="#AE5714" d="M150.681 148.666C150.777 158.995 126.211 167.596 95.8112 167.877C65.4118 168.159 40.6907 160.013 40.5952 149.684C40.4996 139.355 65.0658 130.754 95.4652 130.473C125.865 130.191 150.586 138.337 150.681 148.666Z"/><path fill="#874410" d="M146.552 147.145C146.618 154.185 129.873 160.048 109.152 160.24C88.4314 160.431 71.5811 154.879 71.516 147.839C71.4509 140.798 88.1956 134.935 108.916 134.744C129.637 134.552 146.487 140.104 146.552 147.145Z"/><path fill="#FFC700" d="M148.273 104.133C148.273 132.511 124.743 155.516 95.7181 155.516C66.6928 155.516 43.1631 132.511 43.1631 104.133C43.1631 75.755 66.6928 49.5718 95.7181 49.5718C124.743 49.5718 148.273 75.755 148.273 104.133Z"/><path fill="#FFDB44" d="M54.1381 75.9817C63.5362 63.0508 78.424 52.4827 95.1824 52.4827C104.113 52.4827 112.513 55.4841 119.834 60.245C123.343 68.5623 119.11 79.2931 108.026 87.3515C93.3774 98.0018 72.3084 99.9513 60.9673 91.706C55.4437 87.6901 53.2464 81.9966 54.1381 75.9817Z"/><path fill="#FFE971" d="M90.4273 78.2073C97.713 73.1864 99.0467 65.9649 93.4062 62.0778C87.7656 58.1906 77.2869 59.1097 70.0012 64.1306C62.7155 69.1515 61.3818 76.373 67.0224 80.2601C72.6629 84.1473 83.1417 83.2282 90.4273 78.2073Z"/><path fill="#EB8C00" d="M63.1632 143.5C93.2766 143.5 136.336 129.652 145.002 103.246C145.579 101.489 148.163 101.618 148.163 103.462C148.163 132.478 123.896 156 93.9599 156C88.8009 156 83.8103 155.302 79.0832 153.997C75.6719 153.055 59.6162 143.5 63.1632 143.5Z"/><path fill="#FFAF00" d="M141.895 89.0695C141.175 86.9609 138.182 87.5618 137.86 89.7637C133.733 118.033 109.031 139.759 79.1745 139.759C76.9381 139.759 74.7306 139.637 72.5585 139.4C70.3069 139.153 68.9739 141.859 70.8788 143.066C78.3055 147.772 87.1462 150.502 96.6347 150.502C122.952 150.502 144.286 129.499 144.286 103.589C144.286 98.449 143.447 93.6146 141.895 89.0695Z"/><path fill="#FFAF00" d="M84.8472 144.287C111.321 144.287 133.742 127.206 141.36 103.627C141.867 102.058 144.139 102.174 144.139 103.82C144.139 129.729 122.805 150.733 96.4874 150.733C91.952 150.733 87.5646 150.109 83.4088 148.944C80.4098 148.103 81.7289 144.287 84.8472 144.287Z"/><path fill="#fff" d="M82.5146 74.0678C77.9689 77.1914 74.0556 79.5667 70.6463 77.224C67.237 74.8813 68.1582 70.45 72.704 67.3264C77.2497 64.2028 83.6985 63.5698 87.1078 65.9125C90.5171 68.2552 87.0604 70.9442 82.5146 74.0678Z"/><mask id="mask0_1610_4035" width="107" height="107" x="42" y="49" maskUnits="userSpaceOnUse" style="mask-type:alpha"><circle cx="95.552" cy="102.948" r="52.96" fill="#868BAD" transform="rotate(10.4274 95.5522 102.948)"/></mask><g mask="url(#mask0_1610_4035)"><path fill="#ED8103" d="M97.0798 80.8676C98.6611 80.1109 100.55 80.4585 101.758 81.7286L116.832 97.5729C118.04 98.8429 118.293 100.747 117.459 102.288L107.048 121.521C106.214 123.062 104.481 123.891 102.757 123.574L81.2492 119.616C79.5251 119.298 78.2014 117.907 77.9704 116.169L75.0884 94.4909C74.8574 92.7532 75.7716 91.0643 77.3529 90.3076L97.0798 80.8676Z"/><path fill="#ED8103" d="M107.593 65.7908C104.114 67.4555 99.9588 66.6909 97.3005 63.8967L89.8199 56.0338C87.1616 53.2396 86.6048 49.0515 88.4408 45.6599L93.6073 36.1156C95.4432 32.724 99.2542 30.9003 103.047 31.5983L113.721 33.5626C117.514 34.2606 120.426 37.3216 120.934 41.1446L122.364 51.9028C122.873 55.7259 120.861 59.4414 117.383 61.1061L107.593 65.7908Z"/><path fill="#ED8103" d="M48.6435 93.5071C45.1646 95.1719 41.0095 94.4072 38.3512 91.613L30.8706 83.7501C28.2123 80.9559 27.6555 76.7678 29.4914 73.3762L34.6579 63.8319C36.4939 60.4403 40.3049 58.6166 44.0979 59.3146L54.7716 61.2789C58.5645 61.9769 61.4767 65.0379 61.9849 68.8609L63.4151 79.6191C63.9234 83.4422 61.9121 87.1577 58.4332 88.8224L48.6435 93.5071Z"/><path fill="#ED8103" d="M57.3153 158.828C53.8365 160.493 49.6813 159.728 47.023 156.934L39.5424 149.071C36.8841 146.277 36.3273 142.089 38.1633 138.698L43.3297 129.153C45.1657 125.762 48.9767 123.938 52.7697 124.636L63.4434 126.6C67.2363 127.298 70.1485 130.359 70.6567 134.182L72.0869 144.94C72.5952 148.763 70.5839 152.479 67.1051 154.144L57.3153 158.828Z"/><path fill="#ED8103" d="M121.85 169.764C118.371 171.428 114.216 170.664 111.558 167.87L104.077 160.007C101.419 157.213 100.862 153.024 102.698 149.633L107.864 140.089C109.7 136.697 113.511 134.873 117.304 135.571L127.978 137.535C131.771 138.233 134.683 141.294 135.191 145.117L136.622 155.876C137.13 159.699 135.119 163.414 131.64 165.079L121.85 169.764Z"/><path fill="#ED8103" d="M154.113 114.562C150.634 116.227 146.479 115.462 143.82 112.668L136.34 104.805C133.682 102.011 133.125 97.8228 134.961 94.4312L140.127 84.8869C141.963 81.4953 145.774 79.6715 149.567 80.3696L160.241 82.3338C164.034 83.0318 166.946 86.0928 167.454 89.9158L168.884 100.674C169.393 104.497 167.381 108.213 163.902 109.877L154.113 114.562Z"/></g><g style="mix-blend-mode:color"><path fill="#FCA24F" fill-rule="evenodd" d="M131.248 29.2226C134.501 20.2139 126.939 11 116.293 11C107.618 11 100.586 17.2492 100.586 24.9579L100.586 50.3907C97.9042 50.1529 95.2435 50.122 92.6213 50.2861L92.6213 25.1339C92.6213 17.4252 85.991 11.176 77.812 11.176C67.7738 11.176 60.6439 20.3899 63.711 29.3986L72.3062 54.6446C72.4156 54.9659 72.5414 55.279 72.6826 55.5832C58.1375 62.7177 47.0413 76.4105 43.8839 93.5674C38.5902 122.333 57.6181 149.944 86.384 155.238C115.15 160.531 142.761 141.504 148.054 112.738C152.321 89.5527 140.788 67.1181 121.091 56.514C121.519 55.8795 121.87 55.195 122.132 54.4686L131.248 29.2226Z" clip-rule="evenodd"/><path fill="#FCA24F" d="M116.293 11V10.5V11ZM131.248 29.2226L130.778 29.0528L131.248 29.2226ZM100.586 24.9579H100.086H100.586ZM100.586 50.3907L100.542 50.8888L101.086 50.937V50.3907H100.586ZM92.6213 50.2861H92.1213V50.8183L92.6525 50.7851L92.6213 50.2861ZM92.6213 25.1339H93.1213H92.6213ZM77.812 11.176V11.676V11.176ZM63.711 29.3986L63.2377 29.5598L63.711 29.3986ZM72.3062 54.6446L72.7795 54.4835H72.7795L72.3062 54.6446ZM72.6826 55.5832L72.9028 56.0321L73.3422 55.8166L73.1362 55.3727L72.6826 55.5832ZM43.8839 93.5674L44.3757 93.6579L43.8839 93.5674ZM86.384 155.238L86.2935 155.729L86.384 155.238ZM148.054 112.738L147.563 112.647L148.054 112.738ZM121.091 56.514L120.676 56.2345L120.367 56.6924L120.854 56.9542L121.091 56.514ZM122.132 54.4686L122.602 54.6384L122.132 54.4686ZM116.293 11.5C126.682 11.5 133.885 20.4497 130.778 29.0528L131.719 29.3924C135.118 19.9781 127.196 10.5 116.293 10.5V11.5ZM101.086 24.9579C101.086 17.5792 107.837 11.5 116.293 11.5V10.5C107.399 10.5 100.086 16.9192 100.086 24.9579H101.086ZM101.086 50.3907L101.086 24.9579H100.086L100.086 50.3907H101.086ZM92.6525 50.7851C95.2498 50.6226 97.8853 50.6532 100.542 50.8888L100.63 49.8927C97.9232 49.6526 95.2373 49.6214 92.5901 49.7871L92.6525 50.7851ZM93.1213 50.2861L93.1213 25.1339H92.1213L92.1213 50.2861H93.1213ZM93.1213 25.1339C93.1213 17.1216 86.2388 10.676 77.812 10.676V11.676C85.7431 11.676 92.1213 17.7288 92.1213 25.1339H93.1213ZM77.812 10.676C67.4744 10.676 60.0466 20.1869 63.2377 29.5598L64.1843 29.2375C61.2412 20.593 68.0732 11.676 77.812 11.676V10.676ZM63.2377 29.5598L71.8329 54.8058L72.7795 54.4835L64.1843 29.2375L63.2377 29.5598ZM71.8329 54.8058C71.948 55.144 72.0805 55.4736 72.2291 55.7938L73.1362 55.3727C73.0024 55.0845 72.8832 54.7878 72.7795 54.4835L71.8329 54.8058ZM44.3757 93.6579C47.5032 76.6633 58.4937 63.0999 72.9028 56.0321L72.4625 55.1343C57.7813 62.3355 46.5794 76.1577 43.3922 93.4769L44.3757 93.6579ZM86.4744 154.746C57.9802 149.502 39.1319 122.152 44.3757 93.6579L43.3922 93.4769C38.0485 122.514 57.256 150.386 86.2935 155.729L86.4744 154.746ZM147.563 112.647C142.319 141.141 114.969 159.99 86.4744 154.746L86.2935 155.729C115.331 161.073 143.202 141.866 148.546 112.828L147.563 112.647ZM120.854 56.9542C140.365 67.4585 151.789 89.6819 147.563 112.647L148.546 112.828C152.853 89.4236 141.21 66.7777 121.328 56.0737L120.854 56.9542ZM121.662 54.2988C121.414 54.9852 121.082 55.6331 120.676 56.2345L121.505 56.7935C121.955 56.126 122.326 55.4047 122.602 54.6384L121.662 54.2988ZM130.778 29.0528L121.662 54.2988L122.602 54.6384L131.719 29.3924L130.778 29.0528Z"/></g></svg>