<svg xmlns="http://www.w3.org/2000/svg" width="192" height="192" fill="none" viewBox="0 0 192 192"><g clip-path="url(#clip0_2519_3917)"><mask id="mask0_2519_3917" width="154" height="154" x="19" y="19" maskUnits="userSpaceOnUse" style="mask-type:alpha"><path fill="#EFF3F5" d="M19 79.8C19 58.518 19 47.877 23.1418 39.7484C26.7849 32.5982 32.5982 26.7849 39.7484 23.1418C47.877 19 58.518 19 79.8 19H112.2C133.482 19 144.123 19 152.252 23.1418C159.402 26.7849 165.215 32.5982 168.858 39.7484C173 47.877 173 58.518 173 79.8V112.2C173 133.482 173 144.123 168.858 152.252C165.215 159.402 159.402 165.215 152.252 168.858C144.123 173 133.482 173 112.2 173H79.8C58.518 173 47.877 173 39.7484 168.858C32.5982 165.215 26.7849 159.402 23.1418 152.252C19 144.123 19 133.482 19 112.2V79.8Z"/></mask><g mask="url(#mask0_2519_3917)"><path fill="#EFF3F5" d="M19 79.8C19 58.518 19 47.877 23.1418 39.7484C26.7849 32.5982 32.5982 26.7849 39.7484 23.1418C47.877 19 58.518 19 79.8 19H112.2C133.482 19 144.123 19 152.252 23.1418C159.402 26.7849 165.215 32.5982 168.858 39.7484C173 47.877 173 58.518 173 79.8V112.2C173 133.482 173 144.123 168.858 152.252C165.215 159.402 159.402 165.215 152.252 168.858C144.123 173 133.482 173 112.2 173H79.8C58.518 173 47.877 173 39.7484 168.858C32.5982 165.215 26.7849 159.402 23.1418 152.252C19 144.123 19 133.482 19 112.2V79.8Z"/><path fill="#E39992" d="M132.83 106.154C136.629 101.456 137.71 90.1923 132.267 87.2979C127.909 84.9801 120.112 90.3477 118.044 94.8544L107.391 118.075C105.836 121.463 107.491 125.74 110.892 127.127C113.158 128.052 115.634 127.424 117.158 125.54L132.83 106.154Z"/><path fill="#E39992" d="M73.725 97.009C70.5021 91.8611 60.0899 87.2579 55.3456 91.2072C50.8271 94.9687 53.9287 104.997 58.8224 108.494L63.8154 112.062C64.9607 112.881 65.9235 113.889 66.6509 115.032L71.4418 122.56C73.7946 126.256 79.2964 127.086 82.7423 124.264C85.0161 122.401 85.7283 119.43 84.5221 116.839L79.828 106.757L73.725 97.009Z"/><path fill="#FF9600" d="M67.3449 83.9303L78.1706 120.266L114.35 114.601L116.456 77.6951L103.785 98.7452L101.438 96.1176L104.764 90.5076L91.4952 75.1937L82.3573 93.4805L86.9328 98.1963L85.1618 101.343L67.3449 83.9303Z"/><ellipse cx="81.74" cy="111.742" fill="#86F7F4" rx="2.336" ry="3.894" transform="rotate(-7.17777 81.7403 111.742)"/><ellipse cx="109.555" cy="108.239" fill="#86F7F4" rx="2.336" ry="3.894" transform="rotate(-7.17777 109.555 108.239)"/><path fill="#86F7F4" d="M94.9299 96.5476L100.955 105.343L97.2987 115.357L91.2736 106.562L94.9299 96.5476Z"/><path fill="#FF9600" d="M67.9561 77.6844L71.9132 83.2955L69.7359 89.5309L65.7788 83.9198L67.9561 77.6844Z"/><path fill="#FF9600" d="M91.076 70.5372L95.0332 76.1483L92.8559 82.3837L88.8988 76.7726L91.076 70.5372Z"/><path fill="#FF9600" d="M113.293 72.4485L117.25 78.0597L115.073 84.2951L111.116 78.684L113.293 72.4485Z"/><path fill="#E39992" d="M142.406 158.41C142.406 183.819 132.861 204.417 95.9841 204.417C59.1074 204.417 49.5623 183.819 49.5623 158.41C49.5623 133.001 59.1074 112.402 95.9841 112.402C132.861 112.402 142.406 133.001 142.406 158.41Z"/><ellipse fill="#DE685A" rx="6.5" ry="3" transform="matrix(-1 0 0 1 132.5 138)"/><ellipse fill="#DE685A" rx="6.5" ry="3" transform="matrix(-1 0 0 1 72.4998 138)"/><path fill="#fff" d="M84.79 136.994C81.4134 137.14 80.1767 134.504 80.0165 131.193C79.8563 127.883 80.8334 125.151 84.21 125.006C87.5866 124.86 88.8233 127.496 88.9835 130.807C89.1437 134.117 88.1666 136.849 84.79 136.994Z"/><path fill="#fff" d="M114.79 135.994C111.413 136.14 110.177 133.504 110.017 130.193C109.856 126.883 110.833 124.151 114.21 124.006C117.587 123.86 118.823 126.496 118.983 129.807C119.144 133.117 118.167 135.849 114.79 135.994Z"/><path fill="#ED8103" d="M-4.76172 160.337C-4.76172 156.367 -1.54312 153.148 2.42722 153.148H189.272C193.242 153.148 196.461 156.367 196.461 160.337V200.401C196.461 204.371 193.242 207.59 189.272 207.59H2.42721C-1.54313 207.59 -4.76172 204.371 -4.76172 200.401V160.337Z"/><path fill="#EFF3F5" d="M89.8594 156.307C89.8594 162.763 84.7421 164.879 78.4297 164.879C72.1172 164.879 67 162.763 67 156.307C67 149.851 72.1172 147.734 78.4297 147.734C84.7421 147.734 89.8594 149.851 89.8594 156.307Z"/><path fill="#EFF3F5" d="M138.41 155.705C138.41 162.161 133.36 164.277 127.131 164.277C120.901 164.277 115.852 162.161 115.852 155.705C115.852 149.249 120.901 147.133 127.131 147.133C133.36 147.133 138.41 149.249 138.41 155.705Z"/><path fill="#FFB237" d="M-1.2583 59.8066L25.6217 56.602L39.2589 170.991L12.379 174.196L-1.2583 59.8066Z"/><path fill="#ED8103" d="M-1.2583 59.8061L25.6217 56.6016L32.6093 115.213C17.7639 116.983 4.29456 106.383 2.52472 91.5381L-1.2583 59.8061Z"/><path fill="#FFB237" d="M193.365 59.8066L166.485 56.602L152.848 170.991L179.727 174.196L193.365 59.8066Z"/><path fill="#ED8103" d="M193.365 59.8061L166.485 56.6016L159.497 115.213C174.343 116.983 187.812 106.383 189.582 91.5381L193.365 59.8061Z"/><path fill="#0098A1" d="M167.998 1.37368C166.139 -6.46525 159.138 -12 151.081 -12C140.836 -12 132.812 -3.18617 133.771 7.01392L138.337 55.5607C139.208 64.8322 146.992 71.918 156.304 71.918H161.902C173.553 71.918 182.151 61.0424 179.462 49.7061L167.998 1.37368Z"/><path fill="#53DEE9" d="M23.7013 1.37368C25.5606 -6.46525 32.5617 -12 40.6181 -12C50.8632 -12 58.8871 -3.18617 57.9279 7.01392L53.3628 55.5607C52.4909 64.8322 44.7076 71.918 35.3952 71.918H29.797C18.1461 71.918 9.54842 61.0424 12.2373 49.7061L23.7013 1.37368Z"/><path fill="#53DEE9" d="M133.522 4.35728C132.65 -4.91427 124.867 -12 115.554 -12H113.897C103.93 -12 95.8499 -3.92014 95.8499 6.04687V53.8711C95.8499 63.8381 103.93 71.918 113.897 71.918H120.051C130.686 71.918 139.015 62.7692 138.019 52.1815L133.522 4.35728Z"/><path fill="#0098A1" d="M58.1784 4.35728C59.0502 -4.91426 66.8335 -12 76.146 -12H77.8035C87.7705 -12 95.8503 -3.92014 95.8503 6.04687V53.8711C95.8503 63.8381 87.7705 71.918 77.8035 71.918H71.6488C61.0144 71.918 52.6856 62.7692 53.6812 52.1815L58.1784 4.35728Z"/></g></g><defs><clipPath id="clip0_2519_3917"><rect width="192" height="192" fill="#fff"/></clipPath></defs></svg>