<svg width="192" height="192" viewBox="0 0 192 192" fill="none" xmlns="http://www.w3.org/2000/svg">
<mask id="mask0_2402_2159" style="mask-type:alpha" maskUnits="userSpaceOnUse" x="19" y="19" width="154" height="154">
<path d="M19 79.8C19 58.518 19 47.877 23.1418 39.7484C26.7849 32.5982 32.5982 26.7849 39.7484 23.1418C47.877 19 58.518 19 79.8 19H112.2C133.482 19 144.123 19 152.252 23.1418C159.402 26.7849 165.215 32.5982 168.858 39.7484C173 47.877 173 58.518 173 79.8V112.2C173 133.482 173 144.123 168.858 152.252C165.215 159.402 159.402 165.215 152.252 168.858C144.123 173 133.482 173 112.2 173H79.8C58.518 173 47.877 173 39.7484 168.858C32.5982 165.215 26.7849 159.402 23.1418 152.252C19 144.123 19 133.482 19 112.2V79.8Z" fill="#EFF3F5"/>
</mask>
<g mask="url(#mask0_2402_2159)">
<path d="M19 79.8C19 58.518 19 47.877 23.1418 39.7484C26.7849 32.5982 32.5982 26.7849 39.7484 23.1418C47.877 19 58.518 19 79.8 19H112.2C133.482 19 144.123 19 152.252 23.1418C159.402 26.7849 165.215 32.5982 168.858 39.7484C173 47.877 173 58.518 173 79.8V112.2C173 133.482 173 144.123 168.858 152.252C165.215 159.402 159.402 165.215 152.252 168.858C144.123 173 133.482 173 112.2 173H79.8C58.518 173 47.877 173 39.7484 168.858C32.5982 165.215 26.7849 159.402 23.1418 152.252C19 144.123 19 133.482 19 112.2V79.8Z" fill="#EFF3F5"/>
<path d="M60.1523 107.893C60.1523 104 61.0956 96.1508 68 95C74 93.9999 84.2779 96.5 87.5 105C90.7221 113.5 89.5 117.096 89.5 117.096C91.5 116 97 115.5 97 115.5C102 116 102.463 116.988 103.963 118C103.963 118 103 117 105.5 109C108 101 117 97 125 100.5C128.413 101.993 131.712 110.964 129.356 116.232C127 121.5 123.5 122.5 123.5 122.5C132.5 130 140.852 142.307 141.5 156.5C142.502 178.445 131.096 195.065 98.2482 196.565C65.4004 198.065 53.0021 177.445 52 155.5C55 140.5 58.5 132.5 69 122.5C69 122.5 66.2715 120.362 64.5 118C62.625 115.5 60.1523 111.787 60.1523 107.893Z" fill="#9B9DA1"/>
<path opacity="0.8" d="M116.47 121.5C114.886 121.04 111.97 120 110.102 118.564C110.14 117.565 115.382 111.259 119.285 113.908C122.407 116.028 120.853 120.18 120.47 121.5L116.47 121.5Z" fill="#2C2C2C"/>
<path opacity="0.8" d="M76 120C77.6 119.6 82.1667 118.333 84 118C84 117 77.793 110.5 73.793 113C70.593 115 72 119.5 73.793 120.5L76 120Z" fill="#2C2C2C"/>
<rect x="-4.76172" y="153.148" width="201.223" height="54.4414" rx="7.18894" fill="#FFB237"/>
<path d="M74 155.5C74 161.148 69.5228 163 64 163C58.4772 163 54 161.148 54 155.5C54 149.852 58.4772 148 64 148C69.5228 148 74 149.852 74 155.5Z" fill="#2C2C2C"/>
<path d="M140 154.5C140 160.148 135.523 162 130 162C124.477 162 120 160.148 120 154.5C120 148.852 124.477 147 130 147C135.523 147 140 148.852 140 154.5Z" fill="#2C2C2C"/>
<rect x="-1.25854" y="59.8064" width="27.0703" height="115.199" transform="rotate(-6.79861 -1.25854 59.8064)" fill="#FFB237"/>
<path d="M-1.25854 59.8064L25.6214 56.6018L32.609 115.214C17.7636 116.984 4.29432 106.384 2.52448 91.5383L-1.25854 59.8064Z" fill="#ED8103"/>
<rect width="27.0703" height="115.199" transform="matrix(-0.992968 -0.11838 -0.11838 0.992968 193.365 59.8064)" fill="#FFB237"/>
<path d="M193.365 59.8064L166.485 56.6018L159.497 115.214C174.343 116.984 187.812 106.384 189.582 91.5383L193.365 59.8064Z" fill="#ED8103"/>
<path d="M164.826 4H131.983L138.337 71.5607C139.208 80.8322 146.992 87.918 156.304 87.918H161.902C173.553 87.918 182.151 77.0424 179.462 65.7061L164.826 4Z" fill="#0098A1"/>
<path d="M26.8733 4H59.7158L53.3627 71.5607C52.4908 80.8322 44.7075 87.918 35.3951 87.918H29.7969C18.146 87.918 9.54832 77.0424 12.2372 65.7061L26.8733 4Z" fill="#53DEE9"/>
<path d="M131.983 4H95.8492V69.8711C95.8492 79.8381 103.929 87.918 113.896 87.918H120.051C130.685 87.918 139.014 78.7692 138.018 68.1815L131.983 4Z" fill="#53DEE9"/>
<path d="M59.7162 4H95.85V69.8711C95.85 79.8381 87.7702 87.918 77.8032 87.918H71.6485C61.0141 87.918 52.6853 78.7692 53.6809 68.1815L59.7162 4Z" fill="#0098A1"/>
</g>
<path d="M99.8716 146.867C102.589 146.867 105.285 147.013 104.967 147.797C105.285 148.5 103.285 152 100.785 152C98.2848 152 97.4267 150.497 96.475 149.193C96.475 148.418 97.1543 146.867 99.8716 146.867Z" fill="#2C2C2C"/>
<path d="M102.784 148.5C103.784 148.5 104.967 147.842 104.967 145.936" stroke="#2C2C2C" stroke-width="2" stroke-linecap="round"/>
<path d="M98.7844 149C98.6084 149.339 96.1355 148.966 94.8305 147.39C94.417 146.751 93.714 145.378 94.2102 145.006" stroke="#2C2C2C" stroke-width="2" stroke-linecap="round"/>
<rect x="83.0002" y="133" width="7.07139" height="7.07139" transform="rotate(45 83.0002 133)" fill="#2C2C2C"/>
<rect x="112" y="133" width="7.07139" height="7.07139" transform="rotate(45 112 133)" fill="#2C2C2C"/>
<rect x="140" y="93" width="7.07139" height="7.07139" transform="rotate(45 140 93)" fill="#F9D563"/>
<rect x="52.0002" y="123" width="7.07139" height="7.07139" transform="rotate(45 52.0002 123)" fill="#F9D563"/>
</svg>
