<svg xmlns="http://www.w3.org/2000/svg" width="192" height="192" fill="none" viewBox="0 0 192 192"><mask id="mask0_3928_4639" style="mask-type:alpha" width="154" height="154" x="19" y="19" maskUnits="userSpaceOnUse"><path fill="#C4C4C4" d="M19 79.8C19 58.518 19 47.877 23.1418 39.7484C26.7849 32.5982 32.5982 26.7849 39.7484 23.1418C47.877 19 58.518 19 79.8 19H112.2C133.482 19 144.123 19 152.252 23.1418C159.402 26.7849 165.215 32.5982 168.858 39.7484C173 47.877 173 58.518 173 79.8V112.2C173 133.482 173 144.123 168.858 152.252C165.215 159.402 159.402 165.215 152.252 168.858C144.123 173 133.482 173 112.2 173H79.8C58.518 173 47.877 173 39.7484 168.858C32.5982 165.215 26.7849 159.402 23.1418 152.252C19 144.123 19 133.482 19 112.2V79.8Z"/></mask><g mask="url(#mask0_3928_4639)"><path fill="#EFF3F5" d="M19 79.8C19 58.518 19 47.877 23.1418 39.7484C26.7849 32.5982 32.5982 26.7849 39.7484 23.1418C47.877 19 58.518 19 79.8 19H112.2C133.482 19 144.123 19 152.252 23.1418C159.402 26.7849 165.215 32.5982 168.858 39.7484C173 47.877 173 58.518 173 79.8V112.2C173 133.482 173 144.123 168.858 152.252C165.215 159.402 159.402 165.215 152.252 168.858C144.123 173 133.482 173 112.2 173H79.8C58.518 173 47.877 173 39.7484 168.858C32.5982 165.215 26.7849 159.402 23.1418 152.252C19 144.123 19 133.482 19 112.2V79.8Z"/><path fill="#643FAF" d="M144 149.696C144 177.003 123.181 199.139 97.5 199.139C71.8188 199.139 51 177.003 51 149.696C51 122.39 64.538 100.253 97.5 100.253C130.462 100.253 144 122.39 144 149.696Z"/><path fill="#643FAF" fill-rule="evenodd" d="M125.655 90.9012C128.639 83.2031 122.386 74.2622 113.173 73.0536C105.796 72.0858 99.4876 76.5798 98.8632 83.2484L97.7527 95.1083L93.3647 86.092C90.0335 79.2474 79.8811 76.43 72.6395 80.3406C65.7424 84.0651 64.87 92.1065 70.8041 97.2587L76.6429 102.328C77.5103 103.081 78.2764 103.904 78.9291 104.781C57.783 110.143 52.2548 125.172 52.8703 142.778C53.623 164.304 63.275 181.53 98.2074 180.666C133.14 179.802 141.572 162.128 140.819 140.602C140.283 125.271 135.233 112.121 119.751 106.134L125.655 90.9012Z" clip-rule="evenodd"/><path fill="#FFB237" d="M-4.76172 160.337C-4.76172 156.367 -1.54312 153.148 2.42722 153.148H189.272C193.242 153.148 196.461 156.367 196.461 160.337V200.401C196.461 204.371 193.242 207.59 189.272 207.59H2.42721C-1.54313 207.59 -4.76172 204.371 -4.76172 200.401V160.337Z"/><path fill="#8C7DCB" d="M70.8594 149.572C70.8594 156.028 65.7421 158.145 59.4297 158.145C53.1172 158.145 48 156.028 48 149.572C48 143.116 53.1172 141 59.4297 141C65.7421 141 70.8594 143.116 70.8594 149.572Z"/><path fill="#8C7DCB" d="M133.559 148.572C133.559 155.028 128.509 157.145 122.279 157.145C116.05 157.145 111 155.028 111 148.572C111 142.116 116.05 140 122.279 140C128.509 140 133.559 142.116 133.559 148.572Z"/><path fill="#FFB237" d="M-1.25879 59.8066L25.6212 56.6021L39.2584 170.991L12.3785 174.196L-1.25879 59.8066Z"/><path fill="#ED8103" d="M-1.25879 59.8066L25.6212 56.6021L32.6088 115.214C17.7634 116.984 4.29407 106.384 2.52423 91.5386L-1.25879 59.8066Z"/><path fill="#FFB237" d="M193.365 59.8066L166.485 56.6021L152.848 170.991L179.728 174.196L193.365 59.8066Z"/><path fill="#ED8103" d="M193.365 59.8066L166.485 56.6021L159.498 115.214C174.343 116.984 187.812 106.384 189.582 91.5386L193.365 59.8066Z"/><path fill="#0098A1" d="M167.998 1.37368C166.139 -6.46525 159.138 -12 151.081 -12C140.836 -12 132.812 -3.18617 133.771 7.01392L138.337 55.5607C139.208 64.8322 146.992 71.918 156.304 71.918H161.902C173.553 71.918 182.151 61.0424 179.462 49.7061L167.998 1.37368Z"/><path fill="#53DEE9" d="M23.7013 1.37368C25.5606 -6.46525 32.5617 -12 40.6181 -12C50.8632 -12 58.8871 -3.18617 57.9279 7.01392L53.3628 55.5607C52.4909 64.8322 44.7076 71.918 35.3952 71.918H29.797C18.1461 71.918 9.54842 61.0424 12.2373 49.7061L23.7013 1.37368Z"/><path fill="#53DEE9" d="M133.521 4.35728C132.649 -4.91426 124.866 -12 115.554 -12H113.896C103.929 -12 95.8494 -3.92014 95.8494 6.04687V53.8711C95.8494 63.8381 103.929 71.918 113.896 71.918H120.051C130.685 71.918 139.014 62.7692 138.019 52.1815L133.521 4.35728Z"/><path fill="#0098A1" d="M58.1779 4.35728C59.0497 -4.91426 66.833 -12 76.1455 -12H77.803C87.77 -12 95.8498 -3.92014 95.8498 6.04687V53.8711C95.8498 63.8381 87.77 71.918 77.803 71.918H71.6483C61.0139 71.918 52.6851 62.7692 53.6807 52.1815L58.1779 4.35728Z"/><path fill="#A39EA9" d="M96.323 146.266C92.6394 145.786 92.0446 142.018 91.9674 139.762C95.3932 140.802 97.9563 139.356 100.367 139.077C100.377 141.849 100.007 146.747 96.323 146.266Z"/><path fill="#FAFAFA" d="M95.7882 133.849C99.4718 134.33 100.542 138.26 100.619 140.516C97.804 139.346 91.7943 140.101 89.902 141.501C89.8919 138.73 92.1046 133.369 95.7882 133.849Z"/><path fill="#fff" d="M79.8004 135.292C73.1982 135.544 70.78 130.976 70.4668 125.238C70.1536 119.501 72.064 114.767 78.6662 114.515C85.2684 114.263 87.6866 118.831 87.9998 124.569C88.313 130.306 86.4026 135.04 79.8004 135.292Z"/><circle cx="78.432" cy="128.903" r="5.599" fill="#050506" stroke="#CF7800" stroke-width="1.6"/><path fill="#948F99" d="M79.455 113.867C86.1425 114.596 88.08 120.591 88.2169 124.034C83.1068 122.253 72.1939 123.412 68.756 125.551C68.7418 121.322 72.7674 113.138 79.455 113.867Z"/><path fill="#fff" d="M112.466 134.032C105.864 134.284 103.446 129.716 103.133 123.978C102.82 118.241 104.73 113.507 111.332 113.255C117.934 113.003 120.353 117.571 120.666 123.309C120.979 129.046 119.069 133.78 112.466 134.032Z"/><circle cx="109.5" cy="127.643" r="5.599" fill="#050506" stroke="#CF7800" stroke-width="1.6"/><path fill="#948F99" d="M112.169 112.607C118.825 113.336 120.753 119.331 120.89 122.774C115.803 120.993 104.942 122.152 101.52 124.291C101.506 120.062 105.513 111.878 112.169 112.607Z"/></g></svg>