<svg width="192" height="192" viewBox="0 0 192 192" fill="none" xmlns="http://www.w3.org/2000/svg">
<mask id="mask0_1014_5502" style="mask-type:alpha" maskUnits="userSpaceOnUse" x="19" y="19" width="154" height="154">
<path d="M19 79.8C19 58.518 19 47.877 23.1418 39.7484C26.7849 32.5982 32.5982 26.7849 39.7484 23.1418C47.877 19 58.518 19 79.8 19H112.2C133.482 19 144.123 19 152.252 23.1418C159.402 26.7849 165.215 32.5982 168.858 39.7484C173 47.877 173 58.518 173 79.8V112.2C173 133.482 173 144.123 168.858 152.252C165.215 159.402 159.402 165.215 152.252 168.858C144.123 173 133.482 173 112.2 173H79.8C58.518 173 47.877 173 39.7484 168.858C32.5982 165.215 26.7849 159.402 23.1418 152.252C19 144.123 19 133.482 19 112.2V79.8Z" fill="#C4C4C4"/>
</mask>
<g mask="url(#mask0_1014_5502)">
<path d="M19 79.8C19 58.518 19 47.877 23.1418 39.7484C26.7849 32.5982 32.5982 26.7849 39.7484 23.1418C47.877 19 58.518 19 79.8 19H112.2C133.482 19 144.123 19 152.252 23.1418C159.402 26.7849 165.215 32.5982 168.858 39.7484C173 47.877 173 58.518 173 79.8V112.2C173 133.482 173 144.123 168.858 152.252C165.215 159.402 159.402 165.215 152.252 168.858C144.123 173 133.482 173 112.2 173H79.8C58.518 173 47.877 173 39.7484 168.858C32.5982 165.215 26.7849 159.402 23.1418 152.252C19 144.123 19 133.482 19 112.2V79.8Z" fill="white"/>
<circle opacity="0.5" cx="156" cy="120" r="7" fill="#C4C4C4"/>
<circle opacity="0.5" cx="141" cy="134" r="7" fill="#C4C4C4"/>
<g opacity="0.5">
<rect x="35" y="122.814" width="31" height="10.093" rx="5.04651" fill="#C4C4C4"/>
<rect x="55.907" y="112" width="31" height="10.093" rx="5.04651" transform="rotate(90 55.907 112)" fill="#C4C4C4"/>
</g>
<mask id="mask1_1014_5502" style="mask-type:alpha" maskUnits="userSpaceOnUse" x="48" y="112" width="104" height="52">
<path d="M97 112.5C107.4 112.5 115.333 113.5 118 114H124.5L150.5 132.5L152 162L48.5 163.5V151V122.5L76 113.5C78.6667 113.166 86.6 112.5 97 112.5Z" fill="#C4C4C4"/>
</mask>
<g mask="url(#mask1_1014_5502)">
<path fill-rule="evenodd" clip-rule="evenodd" d="M123.451 97.3223C126.235 88.889 120.008 79.2643 111.02 78.1097C103.823 77.1851 97.7527 82.1883 97.2492 89.4594L96.3538 102.391L91.9409 92.6516C88.5909 85.258 78.6634 82.3683 71.6749 86.7526C65.0189 90.9282 64.2954 99.6983 70.1529 105.204L75.9163 110.621C76.7725 111.426 77.5312 112.308 78.1803 113.251C57.6785 119.46 52.5319 135.919 53.4067 155.075C54.4763 178.498 64.1421 197.084 98.1353 195.531C132.128 193.979 140.06 174.59 138.991 151.167C138.229 134.486 133.107 120.257 117.941 114.01L123.451 97.3223Z" fill="black"/>
</g>
<mask id="mask2_1014_5502" style="mask-type:alpha" maskUnits="userSpaceOnUse" x="56" y="77" width="35" height="51">
<path d="M88.3898 99.8699C92.2642 112.564 88.9722 124.913 81.037 127.452C73.1019 129.992 62.3743 118.194 58.5 105.5C54.6257 92.8061 55.5648 80.5394 63.5 77.9999C71.4352 75.4604 84.5155 87.176 88.3898 99.8699Z" fill="#C4C4C4"/>
</mask>
<g mask="url(#mask2_1014_5502)">
<path d="M59.3219 106.422C54.6979 98.0502 58.7228 86.5514 67.3563 83.4684C74.2698 80.9996 81.3836 85.0529 83.494 92.6633L89.6873 112.338C89.84 112.297 89.9932 112.256 90.1471 112.216C91.5426 111.853 92.9032 111.534 94.2299 111.26L92.0318 95.8377C90.9174 88.0191 95.8122 81.456 103.136 80.9491C112.281 80.3161 120.575 89.2404 119.691 98.7635L118.477 111.84C131.927 116.465 138.95 129.042 142.859 144.441C148.903 168.251 145.214 189.791 112.034 198.44C78.8535 207.089 65.3657 190.026 59.3219 166.215C55.0632 149.438 55.6369 133.788 67.9558 122.98L59.3219 106.422Z" fill="black"/>
</g>
<mask id="mask3_1014_5502" style="mask-type:alpha" maskUnits="userSpaceOnUse" x="100" y="74" width="31" height="53">
<path d="M100.552 102.158C100.366 115.428 106.967 126.372 115.295 126.601C123.624 126.83 130.641 112.511 130.827 99.2402C131.012 85.9696 126.694 74.4499 118.366 74.2209C110.037 73.9919 100.737 88.8869 100.552 102.158Z" fill="#C4C4C4"/>
</mask>
<g mask="url(#mask3_1014_5502)">
<path d="M130.294 100.355C132.404 91.0266 125.335 81.1037 116.185 80.5472C108.857 80.1016 103.154 85.9757 103.247 93.8728L102.778 114.493C102.62 114.497 102.461 114.501 102.302 114.505C100.861 114.544 99.4654 114.618 98.1149 114.724L95.9307 99.2994C94.8235 91.4798 88.2944 86.5396 81.1195 88.0925C72.1594 90.0317 66.6796 100.913 70.1807 109.813L74.9883 122.034C63.3584 130.221 60.1165 144.257 60.6511 160.135C61.4778 184.687 71.0199 204.347 105.296 203.413C139.572 202.478 147.774 182.334 146.947 157.783C146.365 140.483 141.455 125.611 126.614 118.663L130.294 100.355Z" fill="black"/>
</g>
<path d="M-4.76172 160.337C-4.76172 156.367 -1.54312 153.148 2.42722 153.148H189.272C193.242 153.148 196.461 156.367 196.461 160.337V200.401C196.461 204.371 193.242 207.59 189.272 207.59H2.42721C-1.54313 207.59 -4.76172 204.371 -4.76172 200.401V160.337Z" fill="#FFB237"/>
<path d="M89.8594 156.307C89.8594 162.763 84.7421 164.879 78.4297 164.879C72.1172 164.879 67 162.763 67 156.307C67 149.851 72.1172 147.734 78.4297 147.734C84.7421 147.734 89.8594 149.851 89.8594 156.307Z" fill="#999999"/>
<path d="M132.559 155.705C132.559 162.161 127.509 164.277 121.279 164.277C115.05 164.277 110 162.161 110 155.705C110 149.249 115.05 147.133 121.279 147.133C127.509 147.133 132.559 149.249 132.559 155.705Z" fill="#999999"/>
<path d="M-1.25879 59.8066L25.6212 56.6021L39.2584 170.991L12.3785 174.196L-1.25879 59.8066Z" fill="#FFB237"/>
<path d="M-1.25879 59.8066L25.6212 56.6021L32.6088 115.214C17.7634 116.984 4.29407 106.384 2.52423 91.5386L-1.25879 59.8066Z" fill="#ED8103"/>
<path d="M193.365 59.8066L166.485 56.6021L152.848 170.991L179.728 174.196L193.365 59.8066Z" fill="#FFB237"/>
<path d="M193.365 59.8066L166.485 56.6021L159.498 115.214C174.343 116.984 187.812 106.384 189.582 91.5386L193.365 59.8066Z" fill="#ED8103"/>
<path d="M167.998 1.37368C166.139 -6.46525 159.138 -12 151.081 -12C140.836 -12 132.812 -3.18617 133.771 7.01392L138.337 55.5607C139.208 64.8322 146.992 71.918 156.304 71.918H161.902C173.553 71.918 182.151 61.0424 179.462 49.7061L167.998 1.37368Z" fill="#0098A1"/>
<path d="M23.7013 1.37368C25.5606 -6.46525 32.5617 -12 40.6181 -12C50.8632 -12 58.8871 -3.18617 57.9279 7.01392L53.3628 55.5607C52.4909 64.8322 44.7076 71.918 35.3952 71.918H29.797C18.1461 71.918 9.54842 61.0424 12.2373 49.7061L23.7013 1.37368Z" fill="#53DEE9"/>
<path d="M133.521 4.35728C132.649 -4.91426 124.866 -12 115.554 -12H113.896C103.929 -12 95.8494 -3.92014 95.8494 6.04687V53.8711C95.8494 63.8381 103.929 71.918 113.896 71.918H120.051C130.685 71.918 139.014 62.7692 138.019 52.1815L133.521 4.35728Z" fill="#53DEE9"/>
<path d="M58.1779 4.35728C59.0497 -4.91426 66.833 -12 76.1455 -12H77.803C87.77 -12 95.8498 -3.92014 95.8498 6.04687V53.8711C95.8498 63.8381 87.77 71.918 77.803 71.918H71.6483C61.0139 71.918 52.6851 62.7692 53.6807 52.1815L58.1779 4.35728Z" fill="#0098A1"/>
<path d="M117.277 103.936C116.157 102.386 114.585 101.22 112.775 100.599C113.843 97.4656 114.461 88.1703 106.341 87.2787C105.226 87.146 104.096 87.3229 103.075 87.79C102.053 88.2571 101.18 88.9965 100.551 89.927C100.551 89.927 104.805 90.7214 103.729 93.0342C103.155 94.2789 100.842 96.3004 90.4893 93.2108C79.8978 90.0329 77.5854 98.5073 77.0911 102.082C77.02 102.583 76.9758 103.087 76.9587 103.592C72.3073 105.552 71.8483 112.499 72.9781 113.894L86.1078 120.846C91.9752 123.952 99.0064 123.925 104.849 120.772L118.089 113.629C118.741 112.594 119.05 111.38 118.971 110.16C119.142 107.952 118.543 105.753 117.277 103.936Z" fill="#FF3399"/>
<path d="M106.382 92.1036L106.382 92.1035C106.321 91.1935 106.006 90.5062 105.557 89.9952C105.112 89.4882 104.548 89.1705 104.008 88.9704C103.863 88.9165 103.718 88.8708 103.577 88.8321C104.071 88.7727 104.631 88.7638 105.182 88.8743C105.95 89.0282 106.701 89.4117 107.258 90.2202C107.821 91.0357 108.21 92.317 108.177 94.3086C108.11 98.2246 105.834 100.67 102.785 102.175C99.7224 103.687 95.9103 104.229 92.8874 104.319L92.8871 104.319C92.7947 104.322 92.7032 104.325 92.6127 104.328C88.9034 104.441 86.8031 104.505 84.9862 104.816C83.2238 105.117 81.7334 105.648 79.3109 106.656C79.3167 106.589 79.3234 106.517 79.3311 106.438C79.3757 105.985 79.4541 105.342 79.5891 104.585C79.8595 103.069 80.3547 101.112 81.2515 99.3201C82.1489 97.5267 83.4346 95.9245 85.2735 95.0725C87.1044 94.2243 89.5372 94.0953 92.7846 95.352L92.785 95.3521C97.9857 97.3567 101.417 97.2718 103.549 96.3006C105.69 95.3256 106.474 93.4751 106.382 92.1036Z" fill="white" stroke="#FF3399" stroke-width="0.621214"/>
<path d="M81.2578 135.995C78.2564 136.128 77.1571 133.712 77.0147 130.677C76.8723 127.642 77.7408 125.139 80.7422 125.005C83.7436 124.872 84.8429 127.288 84.9853 130.323C85.1277 133.358 84.2592 135.861 81.2578 135.995Z" fill="white"/>
<path d="M111.258 135.995C108.256 136.128 107.157 133.712 107.015 130.677C106.872 127.642 107.741 125.139 110.742 125.005C113.744 124.872 114.843 127.288 114.985 130.323C115.128 133.358 114.259 135.861 111.258 135.995Z" fill="white"/>
</g>
</svg>
