<svg xmlns="http://www.w3.org/2000/svg" width="192" height="192" fill="none" viewBox="0 0 192 192"><mask id="mask0_2415_5819" width="154" height="154" x="19" y="19" maskUnits="userSpaceOnUse" style="mask-type:alpha"><path fill="#EFF3F5" d="M19 79.8C19 58.518 19 47.877 23.1418 39.7484C26.7849 32.5982 32.5982 26.7849 39.7484 23.1418C47.877 19 58.518 19 79.8 19H112.2C133.482 19 144.123 19 152.252 23.1418C159.402 26.7849 165.215 32.5982 168.858 39.7484C173 47.877 173 58.518 173 79.8V112.2C173 133.482 173 144.123 168.858 152.252C165.215 159.402 159.402 165.215 152.252 168.858C144.123 173 133.482 173 112.2 173H79.8C58.518 173 47.877 173 39.7484 168.858C32.5982 165.215 26.7849 159.402 23.1418 152.252C19 144.123 19 133.482 19 112.2V79.8Z"/></mask><g mask="url(#mask0_2415_5819)"><path fill="#EFF3F5" d="M19 79.8C19 58.518 19 47.877 23.1418 39.7484C26.7849 32.5982 32.5982 26.7849 39.7484 23.1418C47.877 19 58.518 19 79.8 19H112.2C133.482 19 144.123 19 152.252 23.1418C159.402 26.7849 165.215 32.5982 168.858 39.7484C173 47.877 173 58.518 173 79.8V112.2C173 133.482 173 144.123 168.858 152.252C165.215 159.402 159.402 165.215 152.252 168.858C144.123 173 133.482 173 112.2 173H79.8C58.518 173 47.877 173 39.7484 168.858C32.5982 165.215 26.7849 159.402 23.1418 152.252C19 144.123 19 133.482 19 112.2V79.8Z"/><path fill="#A19580" d="M60.1523 107.893C60.1523 104 61.0956 96.1508 68.0001 95C74.0001 93.9999 84.278 96.5 87.5001 105C90.7221 113.5 89.5001 117.096 89.5001 117.096C91.5001 116 97.0001 115.5 97.0001 115.5C102 116 102.463 116.988 103.963 118C103.963 118 103 117 105.5 109C108 101 117 97 125 100.5C128.413 101.993 131.712 110.964 129.356 116.232C127 121.5 123.5 122.5 123.5 122.5C132.5 130 140.852 142.307 141.5 156.5C142.502 178.445 131.096 195.065 98.2483 196.565C65.4004 198.065 53.0021 177.445 52.0001 155.5C55.0001 140.5 58.5001 132.5 69.0001 122.5C69.0001 122.5 66.2716 120.362 64.5001 118C62.6251 115.5 60.1523 111.787 60.1523 107.893Z"/><path fill="#544E47" d="M116.47 121.5C114.886 121.04 111.97 120 110.102 118.564C110.14 117.565 115.382 111.259 119.285 113.908C122.407 116.028 120.853 120.18 120.47 121.5L116.47 121.5Z" opacity=".3"/><path fill="#544E47" d="M76 120C77.6 119.6 82.1667 118.333 84 118C84 117 77.793 110.5 73.793 113C70.593 115 72 119.5 73.793 120.5L76 120Z" opacity=".3"/><rect width="201.223" height="54.441" x="-4.762" y="153.148" fill="#FFB237" rx="7.189"/><path fill="#544E47" d="M74 155.5C74 161.148 69.5228 163 64 163C58.4772 163 54 161.148 54 155.5C54 149.852 58.4772 148 64 148C69.5228 148 74 149.852 74 155.5Z"/><path fill="#544E47" d="M140 154.5C140 160.148 135.523 162 130 162C124.477 162 120 160.148 120 154.5C120 148.852 124.477 147 130 147C135.523 147 140 148.852 140 154.5Z"/><rect width="27.07" height="115.199" x="-1.259" y="59.806" fill="#FFB237" transform="rotate(-6.79861 -1.25854 59.8064)"/><path fill="#ED8103" d="M-1.25854 59.8064L25.6214 56.6018L32.609 115.214C17.7636 116.984 4.29432 106.384 2.52448 91.5383L-1.25854 59.8064Z"/><rect width="27.07" height="115.199" fill="#FFB237" transform="matrix(-0.992968 -0.11838 -0.11838 0.992968 193.365 59.8064)"/><path fill="#ED8103" d="M193.365 59.8064L166.485 56.6018L159.497 115.214C174.343 116.984 187.812 106.384 189.582 91.5383L193.365 59.8064Z"/><path fill="#0098A1" d="M164.826 4H131.983L138.337 71.5607C139.208 80.8322 146.992 87.918 156.304 87.918H161.902C173.553 87.918 182.151 77.0424 179.462 65.7061L164.826 4Z"/><path fill="#53DEE9" d="M26.8733 4H59.7158L53.3627 71.5607C52.4908 80.8322 44.7075 87.918 35.3951 87.918H29.7969C18.146 87.918 9.54832 77.0424 12.2372 65.7061L26.8733 4Z"/><path fill="#53DEE9" d="M131.983 4H95.8492V69.8711C95.8492 79.8381 103.929 87.918 113.896 87.918H120.051C130.685 87.918 139.014 78.7692 138.018 68.1815L131.983 4Z"/><path fill="#0098A1" d="M59.7162 4H95.85V69.8711C95.85 79.8381 87.7701 87.918 77.8031 87.918H71.6484C61.014 87.918 52.6852 78.7692 53.6808 68.1815L59.7162 4Z"/></g><path fill="#544E47" d="M82.9416 142.659C79.6464 142.763 78.4394 140.889 78.2831 138.536C78.1268 136.182 79.0803 134.241 82.3755 134.137C85.6707 134.034 86.8777 135.908 87.034 138.261C87.1903 140.614 86.2368 142.556 82.9416 142.659Z"/><path fill="#544E47" d="M111.942 142.659C108.646 142.763 107.439 140.889 107.283 138.536C107.127 136.182 108.08 134.241 111.376 134.137C114.671 134.034 115.878 135.908 116.034 138.261C116.19 140.614 115.237 142.556 111.942 142.659Z"/><path fill="#A19580" stroke="#A19580" d="M144.077 143.458C143.338 145.638 140.077 147.394 138.538 148L133 136.191L134.846 136.191C136.692 138.008 141.308 135.283 141.308 136.191C141.308 136.918 140.692 139.522 140.385 140.733C141.862 140.006 144.077 137.402 145 136.191C145 136.797 144.815 138.553 144.077 140.733C143.154 143.458 140.385 144.366 141.308 144.366C142.046 144.366 143.462 143.761 144.077 143.458Z"/><path fill="#A19580" stroke="#A19580" d="M50.8462 143.458C51.5231 145.638 54.5128 147.394 55.9231 148L61 136.191L59.3077 136.191C57.6154 138.008 53.3846 135.283 53.3846 136.191C53.3846 136.918 53.9487 139.522 54.2308 140.733C52.8769 140.006 50.8462 137.402 50 136.191C50 136.797 50.1692 138.553 50.8462 140.733C51.6923 143.458 54.2308 144.366 53.3846 144.366C52.7077 144.366 51.4103 143.761 50.8462 143.458Z"/><path fill="#544E47" d="M98.4129 146.867C95.6956 146.867 92.9998 147.014 93.3179 147.797C92.9999 148.5 94.9998 152 97.4998 152C99.9998 152 100.858 150.497 101.81 149.193C101.81 148.418 101.13 146.867 98.4129 146.867Z"/><path stroke="#544E47" stroke-linecap="round" stroke-width="2" d="M95.5 148.5C94.5 148.5 93.3179 147.842 93.3179 145.936"/><path stroke="#544E47" stroke-linecap="round" stroke-width="2" d="M99.5 149C99.6761 149.339 102.149 148.966 103.454 147.391C103.867 146.751 104.57 145.378 104.074 145.006"/><path fill="#544E47" d="M98.9204 123.533C98.9204 121.165 102.307 118.928 104 118.106C97.0156 111.691 92 116.938 92 118.585C92 119.821 94.4758 122.053 95.1108 123.04C95.1108 122.711 95.4286 121.846 95.4286 121.057C95.4286 120.268 95.7248 119.738 96.5714 119.409C96 119.647 97.4389 124.026 98.9204 126L98.9204 123.533Z"/><path fill="url(#paint0_linear_2415_5819)" d="M141.285 102.766C141.475 101.751 142.929 101.751 143.119 102.766L143.888 106.88C143.958 107.255 144.249 107.549 144.623 107.623L148.749 108.447C149.75 108.647 149.75 110.077 148.749 110.277L144.623 111.101C144.249 111.175 143.958 111.47 143.888 111.844L143.119 115.958C142.929 116.974 141.475 116.974 141.285 115.958L140.516 111.844C140.446 111.47 140.155 111.175 139.782 111.101L135.655 110.277C134.655 110.077 134.655 108.647 135.655 108.447L139.782 107.623C140.155 107.549 140.446 107.255 140.516 106.88L141.285 102.766Z"/><defs><linearGradient id="paint0_linear_2415_5819" x1="132.679" x2="158.261" y1="113.105" y2="111.955" gradientUnits="userSpaceOnUse"><stop stop-color="#F8B54F"/><stop offset=".539" stop-color="#F8E26B"/><stop offset="1" stop-color="#F8B54F"/></linearGradient></defs></svg>