<svg xmlns="http://www.w3.org/2000/svg" xmlns:xlink="http://www.w3.org/1999/xlink" width="192" height="192" fill="none" xmlns:v="https://vecta.io/nano"><mask id="A" mask-type="alpha" maskUnits="userSpaceOnUse" x="19" y="19" width="154" height="154"><use xlink:href="#C" fill="#eff3f5"/></mask><g mask="url(#A)"><use xlink:href="#C" fill="#eff3f5"/><path d="M127.99 97.94c3.017-9.139-3.731-19.569-13.471-20.821-7.799-1.002-14.378 4.42-14.924 12.3l-2.811 40.601c-.41 5.923 4.462 11.366 10.311 11.52 3.898.103 7.235-2.226 8.445-5.892l12.45-37.708zm-44.039-5.061c-3.63-8.012-14.389-11.144-21.962-6.393-7.213 4.525-7.997 14.029-1.649 19.995l6.477 6.087c1.486 1.397 2.672 3.03 3.496 4.811l5.421 11.731c2.662 5.762 10.399 8.017 15.891 4.632 3.624-2.234 5.221-6.36 3.99-10.312l-4.788-15.379-6.875-15.173z" fill="#452a7a"/><path d="M94.628 94.517c-11.416 0-20.67 9.254-20.67 20.67h41.341c0-11.416-9.254-20.67-20.67-20.67z" fill="#ff9600"/><path d="M94.628 135.856c-11.416 0-20.67-9.254-20.67-20.67h41.341c0 11.416-9.254 20.67-20.67 20.67z" fill="#ff9600"/><path d="M113.132 105.962l-3.583-.879c-3.809-.831-9.082-1.665-14.921-1.665s-11.112.834-14.921 1.665c-1.405.307-2.614.613-3.582.879-.538 1.077-.984 2.208-1.33 3.381.008-.002.016-.005.024-.008a44.48 44.48 0 0 1 1.165-.357c1.018-.298 2.499-.697 4.333-1.097 3.672-.801 8.734-1.599 14.311-1.599s10.639.798 14.311 1.599a64.47 64.47 0 0 1 4.333 1.097l1.165.357c.008.003.016.006.024.008-.345-1.173-.792-2.304-1.329-3.381z" fill="url(#B)"/><path d="M100.735 103.911a6.58 6.58 0 0 1-6.577 6.577 6.58 6.58 0 0 1-6.577-6.577 6.58 6.58 0 0 1 6.577-6.577 6.58 6.58 0 0 1 6.577 6.577z" fill="url(#B)"/><path d="M97.917 103.912a3.76 3.76 0 0 1-3.758 3.758 3.76 3.76 0 0 1-3.758-3.758 3.76 3.76 0 0 1 3.758-3.758 3.76 3.76 0 0 1 3.758 3.758z" fill="#fff"/><path d="M142.406 158.41c0 25.409-9.545 46.007-46.422 46.007s-46.422-20.598-46.422-46.007 9.545-46.008 46.422-46.008 46.422 20.599 46.422 46.008z" fill="#452a7a"/><path d="M88.308 137.032c-3.742.171-5.112-2.925-5.29-6.812s.905-7.095 4.647-7.266 5.113 2.925 5.29 6.812-.905 7.095-4.647 7.266zm25.672-1.173c-3.742.171-5.112-2.924-5.29-6.812s.905-7.094 4.647-7.265 5.113 2.924 5.29 6.812-.905 7.094-4.647 7.265z" fill="#fff"/><path d="M-4.762 160.337a7.19 7.19 0 0 1 7.189-7.189h186.845a7.19 7.19 0 0 1 7.189 7.189v40.064a7.19 7.19 0 0 1-7.189 7.189H2.427a7.19 7.19 0 0 1-7.189-7.189v-40.064z" fill="#ed8103"/><path d="M89.859 156.307c0 6.456-5.117 8.572-11.43 8.572S67 162.763 67 156.307s5.117-8.573 11.43-8.573 11.43 2.117 11.43 8.573zm48.551-.602c0 6.456-5.05 8.572-11.279 8.572s-11.279-2.116-11.279-8.572 5.049-8.572 11.279-8.572 11.279 2.116 11.279 8.572z" fill="#7645d9"/><path d="M-1.258 59.807l26.88-3.205 13.637 114.389-26.88 3.205L-1.258 59.807z" fill="#ffb237"/><path d="M-1.258 59.806l26.88-3.205 6.988 58.611c-14.845 1.77-28.315-8.83-30.085-23.675l-3.783-31.732z" fill="#ed8103"/><path d="M193.365 59.807l-26.88-3.205-13.637 114.389 26.88 3.205 13.637-114.389z" fill="#ffb237"/><path d="M193.365 59.806l-26.88-3.205-6.988 58.611c14.845 1.77 28.315-8.83 30.085-23.675l3.783-31.732z" fill="#ed8103"/><path d="M167.998 1.374A17.39 17.39 0 0 0 151.081-12c-10.245 0-18.269 8.814-17.31 19.014l4.565 48.547a18.05 18.05 0 0 0 17.968 16.357h5.598c11.651 0 20.249-10.876 17.56-22.212L167.998 1.374z" fill="#0098a1"/><path d="M23.701 1.374A17.39 17.39 0 0 1 40.618-12c10.245 0 18.269 8.814 17.31 19.014l-4.565 48.547a18.05 18.05 0 0 1-17.968 16.357h-5.598c-11.651 0-20.249-10.876-17.56-22.212L23.701 1.374zm109.821 2.983A18.05 18.05 0 0 0 115.554-12h-1.658A18.05 18.05 0 0 0 95.85 6.047v47.824a18.05 18.05 0 0 0 18.046 18.047h6.155c10.635 0 18.963-9.149 17.968-19.737l-4.497-47.824z" fill="#53dee9"/><path d="M58.178 4.357A18.05 18.05 0 0 1 76.146-12h1.657A18.05 18.05 0 0 1 95.85 6.047v47.824a18.05 18.05 0 0 1-18.047 18.047h-6.155c-10.634 0-18.963-9.149-17.968-19.737l4.497-47.824z" fill="#0098a1"/></g><defs><linearGradient id="B" x1="94.414" y1="97.46" x2="94.414" y2="110.389" gradientUnits="userSpaceOnUse"><stop stop-color="#9f4a08"/><stop offset=".37" stop-color="#7d3900"/><stop offset="1" stop-color="#8d4104"/></linearGradient><path id="C" d="M19 79.8c0-21.282 0-31.923 4.142-40.052a38 38 0 0 1 16.607-16.607C47.877 19 58.518 19 79.8 19h32.4c21.282 0 31.923 0 40.052 4.142a38 38 0 0 1 16.606 16.607C173 47.877 173 58.518 173 79.8v32.4c0 21.282 0 31.923-4.142 40.052-3.643 7.15-9.456 12.963-16.606 16.606C144.123 173 133.482 173 112.2 173H79.8c-21.282 0-31.923 0-40.052-4.142a38 38 0 0 1-16.607-16.606C19 144.123 19 133.482 19 112.2V79.8z"/></defs></svg>