<svg xmlns="http://www.w3.org/2000/svg" width="192" height="192" fill="none" viewBox="0 0 192 192"><mask id="mask0_2715_4791" style="mask-type:alpha" width="154" height="154" x="19" y="19" maskUnits="userSpaceOnUse"><path fill="#EFF3F5" d="M19 79.8C19 58.518 19 47.877 23.1418 39.7484C26.7849 32.5982 32.5982 26.7849 39.7484 23.1418C47.877 19 58.518 19 79.8 19H112.2C133.482 19 144.123 19 152.252 23.1418C159.402 26.7849 165.215 32.5982 168.858 39.7484C173 47.877 173 58.518 173 79.8V112.2C173 133.482 173 144.123 168.858 152.252C165.215 159.402 159.402 165.215 152.252 168.858C144.123 173 133.482 173 112.2 173H79.8C58.518 173 47.877 173 39.7484 168.858C32.5982 165.215 26.7849 159.402 23.1418 152.252C19 144.123 19 133.482 19 112.2V79.8Z"/></mask><g mask="url(#mask0_2715_4791)"><path fill="#EFF3F5" d="M19 79.8C19 58.518 19 47.877 23.1418 39.7484C26.7849 32.5982 32.5982 26.7849 39.7484 23.1418C47.877 19 58.518 19 79.8 19H112.2C133.482 19 144.123 19 152.252 23.1418C159.402 26.7849 165.215 32.5982 168.858 39.7484C173 47.877 173 58.518 173 79.8V112.2C173 133.482 173 144.123 168.858 152.252C165.215 159.402 159.402 165.215 152.252 168.858C144.123 173 133.482 173 112.2 173H79.8C58.518 173 47.877 173 39.7484 168.858C32.5982 165.215 26.7849 159.402 23.1418 152.252C19 144.123 19 133.482 19 112.2V79.8Z"/><path fill="#234462" d="M41.2929 74.5625L107.799 148.761L100.805 155.146L34.2996 80.9479L41.2929 74.5625Z"/><path fill="#234462" d="M50.0042 94.6353L85.729 134.492L78.6237 140.98L42.8989 101.123L50.0042 94.6353Z"/><path fill="#A2A2BB" fill-rule="evenodd" d="M55.0748 97.4625L104.089 152.145L96.7029 158.889L54.3798 111.671L50.8086 114.931L44.1178 107.467L48.9875 103.02L48.9876 103.02L55.0748 97.4625Z" clip-rule="evenodd"/><rect width="65.096" height="8.279" fill="#183D5B" transform="matrix(-0.667453 -0.744652 -0.738477 0.674278 96.6609 158.927)"/><path fill="#234462" fill-rule="evenodd" d="M148.836 87.1366L86.9417 136.185L95.3208 146.759L157.215 97.7101L155.989 96.1628L159.857 93.0972L153.998 85.7043L150.13 88.77L148.836 87.1366Z" clip-rule="evenodd"/><path fill="#A1A1BB" d="M137.118 102.09L87.9924 141.02L93.5104 147.983L146.12 106.292L137.118 102.09Z"/><path fill="#A2A2BB" fill-rule="evenodd" d="M144.047 102.992L89.8899 145.91L94.9787 152.331L141.743 115.272L144.203 118.377L151.596 112.519L149.136 109.414L149.136 109.414L144.047 102.992Z" clip-rule="evenodd"/><rect width="57.255" height="6.033" x="94.442" y="151.654" fill="#183D5B" transform="rotate(-38.3954 94.4417 151.654)"/><ellipse cx="135.318" cy="111.745" fill="#234462" rx="3.419" ry="3.599"/><path fill="#234462" fill-rule="evenodd" d="M148.836 87.1366L86.9417 136.185L95.3208 146.759L157.215 97.7101L155.989 96.1628L159.857 93.0972L153.998 85.7043L150.13 88.77L148.836 87.1366Z" clip-rule="evenodd"/><path fill="#A1A1BB" d="M137.118 102.09L87.9924 141.02L93.5104 147.983L146.12 106.292L137.118 102.09Z"/><path fill="#A2A2BB" fill-rule="evenodd" d="M144.047 102.992L89.8899 145.91L94.9787 152.331L141.743 115.272L144.203 118.377L151.596 112.519L149.136 109.414L149.136 109.414L144.047 102.992Z" clip-rule="evenodd"/><rect width="57.255" height="6.033" x="94.442" y="151.654" fill="#183D5B" transform="rotate(-38.3954 94.4417 151.654)"/><ellipse cx="135.318" cy="111.745" fill="#234462" rx="3.419" ry="3.599"/><path fill="url(#paint0_linear_2715_4791)" fill-rule="evenodd" d="M71.8161 94.0065C69.497 85.4914 74.6838 75.7736 82.1701 74.6078C88.1649 73.6743 93.2213 78.7259 93.6407 86.0674L94.5673 102.289L103.068 91.2067C107.776 85.068 116.623 84.6786 121.128 90.4118C125.418 95.8722 123.652 104.249 117.411 108.036L111.038 111.903C110.053 112.501 109.143 113.222 108.331 114.045C132.355 118.506 139 136.715 139 158.5C139 183.629 130.159 204 96.0002 204C61.8418 204 53.0002 183.629 53.0002 158.5C53.0002 138.646 58.5194 121.762 77.6834 115.549L71.8161 94.0065Z" clip-rule="evenodd"/><path fill="#FFB237" d="M-4.76172 160.337C-4.76172 156.367 -1.54312 153.148 2.42722 153.148H189.272C193.242 153.148 196.461 156.367 196.461 160.337V200.401C196.461 204.371 193.242 207.59 189.272 207.59H2.42721C-1.54313 207.59 -4.76172 204.371 -4.76172 200.401V160.337Z"/><rect width="201.223" height="54.441" x="-4.762" y="153.148" fill="#FAD03E" rx="7.189"/><path fill="#FFB237" d="M-1.25903 59.8065L25.6209 56.602L39.2582 170.991L12.3782 174.196L-1.25903 59.8065Z"/><path fill="#ED8103" d="M-1.25903 59.8065L25.6209 56.602L32.6085 115.214C17.7631 116.984 4.29383 106.384 2.52399 91.5385L-1.25903 59.8065Z"/><path fill="#FFB237" d="M193.366 59.8067L166.486 56.6021L152.848 170.991L179.728 174.196L193.366 59.8067Z"/><path fill="#ED8103" d="M193.366 59.8067L166.486 56.6021L159.498 115.214C174.344 116.984 187.813 106.384 189.583 91.5386L193.366 59.8067Z"/><path fill="#0098A1" d="M164.826 -12H131.983L138.336 55.5607C139.208 64.8322 146.992 71.918 156.304 71.918H161.902C173.553 71.918 182.151 61.0424 179.462 49.7061L164.826 -12Z"/><path fill="#53DEE9" d="M26.8734 -12H59.7159L53.3628 55.5607C52.4909 64.8322 44.7076 71.918 35.3952 71.918H29.797C18.1461 71.918 9.54842 61.0424 12.2373 49.7061L26.8734 -12Z"/><path fill="#53DEE9" d="M131.983 -12H95.8491V53.8711C95.8491 63.8381 103.929 71.918 113.896 71.918H120.051C130.685 71.918 139.014 62.7692 138.018 52.1815L131.983 -12Z"/><path fill="#0098A1" d="M59.716 -12H95.8498V53.8711C95.8498 63.8381 87.77 71.918 77.803 71.918H71.6483C61.0139 71.918 52.6851 62.7692 53.6807 52.1815L59.716 -12Z"/><path fill="#fff" d="M81.5254 142.494C77.8408 142.662 76.4912 139.614 76.3164 135.786C76.1416 131.958 77.2078 128.8 80.8924 128.632C84.577 128.464 85.9266 131.512 86.1014 135.339C86.2762 139.167 85.21 142.326 81.5254 142.494Z"/><path fill="#fff" d="M111.108 141.085C107.423 141.254 106.073 138.206 105.899 134.378C105.724 130.55 106.79 127.392 110.475 127.223C114.159 127.055 115.509 130.103 115.684 133.931C115.858 137.759 114.792 140.917 111.108 141.085Z"/><path fill="#fff" d="M75 155.5C75 161.148 70.299 163 64.5 163C58.701 163 54 161.148 54 155.5C54 149.852 58.701 148 64.5 148C70.299 148 75 149.852 75 155.5Z"/><path fill="#fff" d="M126 155.5C126 161.148 121.299 163 115.5 163C109.701 163 105 161.148 105 155.5C105 149.852 109.701 148 115.5 148C121.299 148 126 149.852 126 155.5Z"/><circle cx="55.962" cy="106.167" r="2.879" fill="#183D5B"/></g><defs><linearGradient id="paint0_linear_2715_4791" x1="96" x2="96" y1="72" y2="204" gradientUnits="userSpaceOnUse"><stop stop-color="#D62C35"/><stop offset="1" stop-color="#FF3C48"/></linearGradient></defs></svg>