<svg xmlns="http://www.w3.org/2000/svg" width="192" height="192" fill="none" viewBox="0 0 192 192"><mask id="mask0_1861_16914" width="154" height="154" x="19" y="19" maskUnits="userSpaceOnUse" style="mask-type:alpha"><path fill="#EFF3F5" d="M19 79.8C19 58.518 19 47.877 23.1418 39.7484C26.7849 32.5982 32.5982 26.7849 39.7484 23.1418C47.877 19 58.518 19 79.8 19H112.2C133.482 19 144.123 19 152.252 23.1418C159.402 26.7849 165.215 32.5982 168.858 39.7484C173 47.877 173 58.518 173 79.8V112.2C173 133.482 173 144.123 168.858 152.252C165.215 159.402 159.402 165.215 152.252 168.858C144.123 173 133.482 173 112.2 173H79.8C58.518 173 47.877 173 39.7484 168.858C32.5982 165.215 26.7849 159.402 23.1418 152.252C19 144.123 19 133.482 19 112.2V79.8Z"/></mask><g mask="url(#mask0_1861_16914)"><path fill="#EFF3F5" d="M19 79.8C19 58.518 19 47.877 23.1418 39.7484C26.7849 32.5982 32.5982 26.7849 39.7484 23.1418C47.877 19 58.518 19 79.8 19H112.2C133.482 19 144.123 19 152.252 23.1418C159.402 26.7849 165.215 32.5982 168.858 39.7484C173 47.877 173 58.518 173 79.8V112.2C173 133.482 173 144.123 168.858 152.252C165.215 159.402 159.402 165.215 152.252 168.858C144.123 173 133.482 173 112.2 173H79.8C58.518 173 47.877 173 39.7484 168.858C32.5982 165.215 26.7849 159.402 23.1418 152.252C19 144.123 19 133.482 19 112.2V79.8Z"/><path fill="#0B6368" stroke="#55964D" stroke-width="1.254" d="M127.666 134.683L126.597 142.251C130.059 143.583 136.695 137.524 139.58 134.328L132.743 131.698C130.485 130.829 128.005 132.287 127.666 134.683Z"/><path fill="#0B6368" stroke="#55964D" stroke-width="1.254" d="M139.611 128.082L140.107 135.708C143.768 136.306 149.029 129.021 151.202 125.304L143.972 124.123C141.584 123.734 139.454 125.667 139.611 128.082Z"/><path fill="#8FBD6B" stroke="#8FBD6B" stroke-width="1.254" d="M144.466 132.276C136.364 139.345 126.179 142.105 117.076 142.359C111.553 147.891 119.191 156.193 123.701 159.652C149.576 153.925 153.783 133.457 152.652 123.939C151.232 121.591 149.649 127.754 144.466 132.276Z"/><path fill="#0B6368" stroke="#55964D" stroke-width="1.07" d="M106.564 105.653L97.1439 109.663C97.8914 113.876 107.829 116.82 112.705 117.766L110.98 108.046C110.62 106.014 108.462 104.845 106.564 105.653Z"/><path fill="#0B6368" stroke="#55964D" stroke-width=".997" d="M119.578 117.585L110.156 116.1C108.666 119.797 115.063 127.031 118.448 130.186L121.885 121.656C122.604 119.872 121.477 117.884 119.578 117.585Z"/><path fill="#0B6368" stroke="#55964D" stroke-width=".874" d="M122.554 131.967L114.654 129.219C112.792 132.178 117.187 139.417 119.617 142.666L123.912 135.839C124.81 134.412 124.146 132.521 122.554 131.967Z"/><path fill="#8FBD6B" fill-rule="evenodd" d="M99.1218 96.0978C100.051 89.24 93.9515 82.7315 86.9463 83.1055C81.3367 83.405 77.4216 88.0927 78.0647 93.7395L79.2086 103.782L74.4742 96.9315C70.8801 91.7308 62.9145 90.9059 58.2131 95.2475C53.7354 99.3826 54.4227 106.21 59.6592 109.611L64.8115 112.958C65.5769 113.455 66.2791 114.025 66.9064 114.657C52.175 122.292 50.5805 135.636 53.9509 150.205C58.0716 168.017 68.0539 180.916 93.7135 174.962C119.373 169.008 122.674 153.027 118.553 135.214C115.619 122.528 109.711 112.334 97.2832 109.668L99.1218 96.0978Z" clip-rule="evenodd"/><rect width="201.223" height="54.441" x="-4.762" y="153.148" fill="#FFB237" rx="7.189"/><path fill="#0B6368" d="M70.4595 154.501C70.4595 160.957 65.3422 163.073 59.0298 163.073C52.7173 163.073 47.6001 160.957 47.6001 154.501C47.6001 148.045 52.7173 145.929 59.0298 145.929C65.3422 145.929 70.4595 148.045 70.4595 154.501Z"/><path fill="#0B6368" d="M120.413 152.473C120.413 158.929 115.363 161.045 109.133 161.045C102.904 161.045 97.854 158.929 97.854 152.473C97.854 146.017 102.904 143.9 109.133 143.9C115.363 143.9 120.413 146.017 120.413 152.473Z"/><rect width="27.07" height="115.199" x="-1.259" y="59.806" fill="#FFB237" transform="rotate(-6.79861 -1.25928 59.8062)"/><path fill="#ED8103" d="M-1.25928 59.8062L25.6207 56.6016L32.6083 115.213C17.7629 116.983 4.29358 106.383 2.52374 91.5381L-1.25928 59.8062Z"/><rect width="27.07" height="115.199" fill="#FFB237" transform="matrix(-0.992968 -0.11838 -0.11838 0.992968 193.365 59.8062)"/><path fill="#ED8103" d="M193.365 59.8062L166.485 56.6016L159.498 115.213C174.343 116.983 187.812 106.383 189.582 91.5381L193.365 59.8062Z"/><path fill="#0098A1" d="M164.826 3.99951H131.983L138.337 71.5602C139.208 80.8317 146.992 87.9175 156.304 87.9175H161.902C173.553 87.9175 182.151 77.0419 179.462 65.7056L164.826 3.99951Z"/><path fill="#53DEE9" d="M26.8733 4H59.7158L53.3627 71.5607C52.4908 80.8322 44.7075 87.918 35.3951 87.918H29.7969C18.146 87.918 9.54832 77.0424 12.2372 65.7061L26.8733 4Z"/><path fill="#53DEE9" d="M131.983 3.99951H95.8494V69.8706C95.8494 79.8376 103.929 87.9175 113.896 87.9175H120.051C130.685 87.9175 139.014 78.7687 138.019 68.181L131.983 3.99951Z"/><path fill="#0098A1" d="M59.716 3.99951H95.8498V69.8706C95.8498 79.8376 87.7699 87.9175 77.8029 87.9175H71.6482C61.0138 87.9175 52.685 78.7687 53.6806 68.181L59.716 3.99951Z"/><path fill="#EFF3F5" d="M72.78 137.625C69.5802 138.427 67.8563 135.994 67.0238 132.67C66.1914 129.346 66.5655 126.388 69.7653 125.587C72.9652 124.786 74.689 127.218 75.5215 130.542C76.354 133.866 75.9799 136.824 72.78 137.625Z"/><path fill="#EFF3F5" d="M97.2825 132.665C94.0826 133.466 92.3588 131.034 91.5263 127.71C90.6938 124.385 91.0679 121.428 94.2678 120.627C97.4676 119.825 99.1915 122.257 100.024 125.582C100.856 128.906 100.482 131.864 97.2825 132.665Z"/></g></svg>