<svg xmlns="http://www.w3.org/2000/svg" width="192" height="192" fill="none" viewBox="0 0 192 192"><path fill="#7645D9" d="M72.1103 176.779C70.3401 176.098 70.3151 174.997 72.0542 174.304C75.9763 172.742 75.9329 170.251 71.9238 168.709C67.9147 167.167 61.4405 167.15 57.3793 168.659C55.5786 169.328 52.7163 169.318 50.9461 168.637L42.1298 165.245C38.447 163.829 38.9548 161.478 43.1953 160.315L45.3257 159.73C71.2095 152.629 93.7522 143.879 111.982 133.858C114.916 132.246 120.925 132.043 124.543 133.435L133.516 136.887C135.284 137.567 135.312 138.667 133.579 139.36C129.671 140.922 129.72 143.409 133.724 144.949C137.728 146.49 144.191 146.508 148.253 145.005C150.055 144.338 152.912 144.349 154.68 145.029L164.381 148.761C167.235 149.859 167.629 151.588 165.314 152.86C146.026 163.462 122.175 172.719 94.7887 180.233L92.6596 180.818C89.2728 181.747 84.6365 181.598 81.695 180.467L72.1103 176.779Z"/><path fill="#A881FC" fill-rule="evenodd" d="M70.7561 175.87C70.4343 175.311 70.8267 174.703 71.9382 174.262C75.8685 172.7 75.825 170.211 71.8075 168.67C67.79 167.128 61.3023 167.112 57.2326 168.62C55.4281 169.288 52.5598 169.279 50.7859 168.598L41.9512 165.208C38.2606 163.792 38.7695 161.443 43.0188 160.281L45.1537 159.696C71.0918 152.599 93.6816 143.854 111.95 133.84C114.89 132.228 120.911 132.026 124.537 133.417L133.529 136.867C135.3 137.547 135.328 138.645 133.592 139.338C129.676 140.9 129.725 143.385 133.737 144.924C137.749 146.464 144.226 146.482 148.297 144.98C150.102 144.314 152.965 144.324 154.737 145.004L157.68 146.133C148.115 161.91 113.479 173.995 70.7561 175.87Z" clip-rule="evenodd"/><path fill="#D8C7FD" fill-rule="evenodd" d="M104.608 141.661L106.572 142.414C107.439 142.747 107.439 143.287 106.572 143.619C105.704 143.952 104.297 143.952 103.43 143.619L101.466 142.866C100.598 142.533 100.598 141.993 101.466 141.661C102.334 141.328 103.74 141.328 104.608 141.661Z" clip-rule="evenodd"/><path fill="#D8C7FD" fill-rule="evenodd" d="M112.856 144.825L114.819 145.579C115.687 145.911 115.687 146.451 114.819 146.784C113.952 147.117 112.545 147.117 111.677 146.784L109.714 146.031C108.846 145.698 108.846 145.158 109.714 144.825C110.581 144.492 111.988 144.492 112.856 144.825Z" clip-rule="evenodd"/><path fill="#D8C7FD" fill-rule="evenodd" d="M123.067 149.948C122.199 150.281 120.793 150.281 119.925 149.948L117.569 149.044C116.701 148.711 116.701 148.172 117.569 147.839C118.436 147.506 119.843 147.506 120.71 147.839L123.067 148.743C123.935 149.076 123.935 149.616 123.067 149.948Z" clip-rule="evenodd"/><path fill="#D8C7FD" fill-rule="evenodd" d="M131.315 153.113C130.447 153.446 129.04 153.446 128.173 153.113L125.816 152.209C124.949 151.876 124.949 151.336 125.816 151.003C126.684 150.67 128.091 150.67 128.958 151.003L131.315 151.907C132.182 152.24 132.182 152.78 131.315 153.113Z" clip-rule="evenodd"/><path fill="#D8C7FD" fill-rule="evenodd" d="M137.206 154.168L139.169 154.921C140.037 155.254 140.037 155.794 139.169 156.127C138.302 156.46 136.895 156.46 136.027 156.127L134.064 155.373C133.196 155.04 133.196 154.501 134.064 154.168C134.931 153.835 136.338 153.835 137.206 154.168Z" clip-rule="evenodd"/><path fill="#D8C7FD" fill-rule="evenodd" d="M145.453 157.332L147.417 158.086C148.285 158.419 148.285 158.958 147.417 159.291C146.549 159.624 145.143 159.624 144.275 159.291L142.311 158.538C141.444 158.205 141.444 157.665 142.311 157.332C143.179 156.999 144.586 156.999 145.453 157.332Z" clip-rule="evenodd"/><path fill="#D8C7FD" fill-rule="evenodd" d="M90.3943 154.487C88.08 153.599 88.0799 152.159 90.3943 151.271C93.0169 150.265 97.3768 150.42 99.4734 151.594L104.753 154.55C109.36 153.982 114.25 154.058 117.491 155.301C120.403 156.419 120.845 158.066 119.858 159.635C118.859 161.222 116.334 162.894 112.621 164.319C108.909 165.744 104.551 166.712 100.414 167.096C96.3232 167.474 92.0307 167.305 89.118 166.187C85.8964 164.951 85.6844 163.089 87.1334 161.331L79.3967 159.297C76.3372 158.493 75.9336 156.82 78.5562 155.813C80.8706 154.925 84.6229 154.925 86.9372 155.813L92.2981 157.87C92.8289 157.632 93.3922 157.397 93.9871 157.169C94.5616 156.949 95.1505 156.74 95.7506 156.542L90.3943 154.487Z" clip-rule="evenodd"/><path fill="#9A6AFF" d="M98.9004 161.249C100.372 161.813 100.745 162.586 99.7332 162.974C98.7213 163.363 96.7077 163.22 95.2357 162.655C93.7638 162.09 93.3909 161.317 94.4029 160.929C95.4148 160.541 97.4284 160.684 98.9004 161.249Z"/><path fill="#9A6AFF" d="M108.562 157.542C110.034 158.107 110.407 158.879 109.395 159.267C108.383 159.656 106.369 159.513 104.897 158.948C103.425 158.383 103.052 157.61 104.064 157.222C105.076 156.834 107.09 156.977 108.562 157.542Z"/><path fill="#E8574E" d="M111.419 160.243C112.558 158.49 110.14 154.544 108.788 152.791L101.007 154.654C100.167 156.225 98.3992 159.717 98.0485 161.12C97.6101 162.873 95.5278 164.517 101.007 165.723C106.487 166.928 109.994 162.435 111.419 160.243Z"/><path fill="#E8574E" d="M81.515 157.723C81.9533 155.531 86.1178 153.996 89.844 150.818C90.3919 150.38 91.97 149.569 93.8988 149.832C96.3099 150.161 96.8578 151.476 97.8442 155.092C98.8305 158.709 94.3372 159.367 88.5288 161.01C82.7204 162.654 81.0766 159.914 81.515 157.723Z"/><path fill="#1FC7D4" d="M93.2238 147.851C93.2238 149.614 96.5437 150.917 94.0083 152.901C92.0618 153.777 88.7478 154.377 87.6519 154.106C86.7919 153.894 84.7936 152.405 84.0329 147.116C83.0821 140.505 88.6812 139.183 92.0618 140.579C95.4423 141.974 93.2238 146.088 93.2238 147.851Z"/><path fill="#1FC7D4" d="M106.594 148.547C106.594 150.468 110.609 152.789 108.073 154.95C106.214 156.534 102.794 156.133 100.934 155.645C100.074 155.413 98.164 153.509 97.4033 147.747C96.4526 140.544 102.052 139.103 105.432 140.624C108.813 142.144 106.594 146.626 106.594 148.547Z"/><path fill="#E8574E" d="M84.0355 144.133C83.378 141.722 86.41 136.206 88.4192 133.503C98.2459 132.955 118.447 129.338 118.447 135.804C118.447 139.872 109.899 144.024 108.146 146.983C106.392 149.942 100.913 149.722 97.077 148.298C94.0084 147.158 95.1774 144.389 95.4331 142.818C94.243 144.669 93.8153 146.011 92.1453 146.325C89.663 146.792 84.548 146.012 84.0355 144.133Z"/><path fill="#FFC700" d="M88.3096 134.27C82.5232 128.747 89.0402 115.237 93.0221 109.173C96.9309 108.333 105.625 106.653 109.132 106.653C113.516 106.653 122.283 129.557 119.982 134.27C117.68 138.982 95.5427 141.174 88.3096 134.27Z"/><path fill="#FFC700" d="M123.669 128.643C117.44 130.546 105.397 123.297 100.154 119.434C99.946 116.965 99.6646 111.523 100.206 109.503C100.882 106.978 124.36 107.857 128.556 110.402C132.753 112.947 131.454 126.264 123.669 128.643Z"/><path fill="#1FC7D4" d="M136.322 115.086C133.692 115.086 130.514 110.921 127.555 113.551C125.385 115.48 125.934 119.028 126.604 120.958C126.921 121.85 129.527 123.831 137.418 124.62C147.281 125.607 149.254 119.798 147.172 116.291C145.09 112.784 138.952 115.086 136.322 115.086Z"/><path fill="#0098A1" d="M71.0119 105.293C73.5525 105.973 77.7002 102.773 79.8776 106.08C81.474 108.504 80.0252 111.79 78.8795 113.48C78.3423 114.259 75.3116 115.499 67.4856 114.219C57.7031 112.619 57.301 106.498 60.2199 103.649C63.1389 100.801 68.4713 104.612 71.0119 105.293Z"/><path fill="#FFC700" d="M78.9928 121.417C84.3631 124.814 97.4976 120.988 103.394 118.65C104.211 116.354 105.844 111.25 105.844 109.19C105.844 106.617 83.5746 101.469 78.9928 102.82C74.411 104.171 72.2799 117.17 78.9928 121.417Z"/><path fill="#1FC7D4" d="M55.5418 36.5494C48.0532 27.2466 53.0976 14.9812 64.531 11.9176C73.8466 9.42147 81.9796 11.9208 85.5282 22.8104C89.0769 33.7 93.373 52.0875 93.373 52.0875C94.9757 58.0688 90.9683 64.3396 84.4223 66.0936C79.2714 67.4738 73.8957 65.6563 71.1211 61.5965C71.1211 61.5965 63.0304 45.8523 55.5418 36.5494Z"/><path fill="#1FC7D4" d="M93.6282 24.6554C92.2304 12.4658 102.337 3.77225 113.011 6.63233C121.708 8.96267 126.987 15.2648 124.444 26.9533C121.901 38.6417 116.249 57.5392 116.249 57.5392C114.574 63.7879 108.263 67.5261 102.151 65.8886C97.3427 64.6001 93.9354 60.2835 93.7206 55.208C93.7206 55.208 95.0261 36.8449 93.6282 24.6554Z"/><path fill="#1FC7D4" d="M141.993 73.3368C145.64 93.3987 130.444 106.784 106.56 111.125C82.6762 115.467 60.6131 108.961 56.9661 88.8988C53.3192 68.837 70.3802 47.8271 94.2639 43.4854C118.148 39.1437 138.346 53.275 141.993 73.3368Z"/><path fill="#017178" fill-rule="evenodd" d="M106.266 86.5786C107.33 86.3347 108.39 86.9991 108.634 88.0626C109.749 92.924 106.307 97.5401 101.428 98.6591C100.365 98.903 99.3049 98.2386 99.061 97.1751C98.8171 96.1116 99.4815 95.0518 100.545 94.8079C103.651 94.0957 105.332 91.3431 104.782 88.9459C104.539 87.8824 105.203 86.8226 106.266 86.5786Z" clip-rule="evenodd"/><path fill="#017178" fill-rule="evenodd" d="M106.267 86.5786C107.33 86.3347 108.39 86.999 108.634 88.0625C109.184 90.4597 111.897 92.2044 115.002 91.4921C116.066 91.2482 117.126 91.9126 117.369 92.9761C117.613 94.0396 116.949 95.0994 115.885 95.3433C111.007 96.4623 105.897 93.8071 104.783 88.9458C104.539 87.8823 105.203 86.8225 106.267 86.5786Z" clip-rule="evenodd"/><path fill="#017178" d="M93.9386 84.5495C96.0348 89.7872 94.4939 92.7087 91.6123 93.8619C88.7307 95.0152 85.5997 93.9635 83.5035 88.7258C81.4072 83.4881 82.9482 80.5666 85.8297 79.4134C88.7113 78.2601 91.8423 79.3118 93.9386 84.5495Z"/><path fill="#017178" d="M124.288 79.2886C125.513 84.7955 123.522 87.4307 120.492 88.1047C117.462 88.7788 114.542 87.2366 113.316 81.7296C112.091 76.2227 114.082 73.5875 117.112 72.9135C120.142 72.2394 123.063 73.7816 124.288 79.2886Z"/><path fill="#0098A1" d="M122.647 51.5287C124.747 57.2122 113.819 58.9187 101.35 58.9335C88.88 58.9483 77.5796 54.7955 77.5759 51.6393C77.5721 48.4832 87.8624 46.3092 100.332 46.2944C112.802 46.2796 121.481 48.3711 122.647 51.5287Z"/><path fill="#CB7E39" d="M121.243 51.5736C121.247 55.1179 111.959 57.967 99.7981 57.9814C87.6368 57.9958 77.5944 54.6888 77.5902 51.1445C77.586 47.6001 87.6215 45.1606 99.7828 45.1461C111.944 45.1317 121.238 48.0292 121.243 51.5736Z"/><path fill="#CB7E39" d="M121.213 45.6361L77.7258 46.1691L76.9832 48.6661L77.5896 51.1446L121.242 51.5737L121.8 49.0578L121.213 45.6361Z"/><path fill="#E3C05D" d="M121.213 45.6361C121.217 49.1805 111.167 52.1945 99.2414 52.2086C87.316 52.2228 77.7304 49.7134 77.7262 46.1691C77.722 42.6247 87.3007 39.3875 99.2262 39.3734C111.152 39.3592 121.209 42.0917 121.213 45.6361Z"/></svg>