<svg xmlns="http://www.w3.org/2000/svg" width="191" height="191" fill="none" viewBox="0 0 191 191"><path fill="#FFAF00" d="M70.5925 175.705C68.8195 175.023 68.7945 173.92 70.5364 173.226C74.4647 171.661 74.4213 169.166 70.4057 167.621C66.3902 166.076 59.9057 166.06 55.838 167.571C54.0343 168.241 51.1675 168.232 49.3945 167.549L40.5641 164.152C36.8754 162.733 37.384 160.379 41.6312 159.214L43.7651 158.628C69.6903 151.515 92.269 142.752 110.528 132.715C113.467 131.1 119.485 130.897 123.109 132.291L132.097 135.749C133.867 136.43 133.895 137.531 132.159 138.225C128.246 139.79 128.294 142.281 132.305 143.824C136.315 145.367 142.789 145.385 146.857 143.88C148.662 143.212 151.524 143.222 153.294 143.904L163.011 147.642C165.87 148.742 166.264 150.472 163.945 151.747C144.626 162.366 120.737 171.638 93.3072 179.164L91.1747 179.749C87.7825 180.68 83.1388 180.531 80.1926 179.398L70.5925 175.705Z"/><path fill="#FFD800" fill-rule="evenodd" d="M69.2359 174.794C68.9135 174.234 69.3065 173.625 70.4199 173.183C74.3564 171.619 74.3129 169.126 70.289 167.582C66.2651 166.038 59.7669 166.021 55.6907 167.532C53.8833 168.201 51.0104 168.192 49.2337 167.51L40.3848 164.115C36.6884 162.697 37.1981 160.344 41.4542 159.179L43.5925 158.594C69.5721 151.485 92.1981 142.727 110.496 132.696C113.441 131.082 119.471 130.879 123.103 132.273L132.109 135.728C133.883 136.409 133.911 137.509 132.172 138.203C128.25 139.767 128.299 142.256 132.318 143.798C136.336 145.34 142.823 145.359 146.901 143.854C148.709 143.187 151.577 143.198 153.351 143.878L156.299 145.009C146.719 160.812 112.027 172.916 69.2359 174.794Z" clip-rule="evenodd"/><path fill="#FFD800" fill-rule="evenodd" d="M139.632 144.969L147.581 159.912C142.57 162.187 137.331 164.385 131.875 166.501L112.908 131.819C116.05 131.072 120.294 131.195 123.103 132.273L132.109 135.728C133.884 136.409 133.911 137.509 132.172 138.203C128.25 139.767 128.299 142.256 132.318 143.798C134.339 144.574 136.984 144.964 139.632 144.969ZM99.4744 138.335C102.205 137.03 104.858 135.699 107.43 134.344L125.397 168.938C122.875 169.858 120.311 170.761 117.706 171.646L99.4744 138.335ZM50.4592 156.654C53.2419 155.843 55.9831 155.012 58.6817 154.162L65.0886 166.498C62.0633 166.253 58.8084 166.528 56.2985 167.323L50.4592 156.654Z" clip-rule="evenodd"/><path fill="#FEED8D" fill-rule="evenodd" d="M145.313 155.647L139.632 144.969C137.595 144.965 135.561 144.733 133.81 144.274C133.285 144.136 132.784 143.978 132.318 143.798C128.299 142.256 128.25 139.767 132.172 138.203C133.911 137.509 133.884 136.409 132.109 135.728L123.103 132.273H123.103C121.476 131.648 119.367 131.344 117.27 131.344C115.747 131.344 114.23 131.505 112.908 131.819L130.133 163.316C135.977 161.018 141.086 158.443 145.313 155.647ZM123.685 165.641L107.43 134.344C104.858 135.699 102.205 137.03 99.4744 138.335L115.721 168.019C118.479 167.277 121.137 166.483 123.685 165.641ZM65.0886 166.498L58.6817 154.162C55.9831 155.012 53.2419 155.843 50.4592 156.654L56.2984 167.323C56.6122 167.224 56.9376 167.133 57.2727 167.049C59.6185 166.467 62.4414 166.283 65.0886 166.498Z" clip-rule="evenodd"/><path fill="#FEED8D" fill-rule="evenodd" d="M103.142 140.53L105.109 141.284C105.978 141.618 105.978 142.158 105.109 142.492C104.24 142.825 102.831 142.825 101.962 142.492L99.9949 141.737C99.1259 141.404 99.1259 140.863 99.9949 140.53C100.864 140.196 102.273 140.196 103.142 140.53Z" clip-rule="evenodd"/><path fill="#FEED8D" fill-rule="evenodd" d="M111.403 143.699L113.37 144.454C114.239 144.787 114.239 145.328 113.37 145.661C112.501 145.995 111.092 145.995 110.223 145.661L108.256 144.907C107.387 144.573 107.387 144.033 108.256 143.699C109.125 143.366 110.534 143.366 111.403 143.699Z" clip-rule="evenodd"/><path fill="#FEED8D" fill-rule="evenodd" d="M121.63 148.831C120.761 149.164 119.352 149.164 118.483 148.831L116.123 147.925C115.254 147.592 115.254 147.051 116.123 146.718C116.992 146.384 118.401 146.384 119.27 146.718L121.63 147.623C122.499 147.957 122.499 148.497 121.63 148.831Z" clip-rule="evenodd"/><path fill="#FEED8D" fill-rule="evenodd" d="M129.891 152C129.022 152.334 127.613 152.334 126.744 152L124.384 151.095C123.515 150.761 123.515 150.221 124.384 149.887C125.253 149.554 126.662 149.554 127.531 149.887L129.891 150.793C130.76 151.126 130.76 151.667 129.891 152Z" clip-rule="evenodd"/><path fill="#FEED8D" fill-rule="evenodd" d="M135.792 153.057L137.759 153.812C138.628 154.145 138.628 154.686 137.759 155.019C136.89 155.352 135.481 155.352 134.612 155.019L132.645 154.264C131.776 153.931 131.776 153.39 132.645 153.057C133.514 152.724 134.923 152.724 135.792 153.057Z" clip-rule="evenodd"/><path fill="#FEED8D" fill-rule="evenodd" d="M144.052 156.226L146.019 156.981C146.888 157.315 146.888 157.855 146.019 158.189C145.15 158.522 143.741 158.522 142.872 158.189L140.905 157.434C140.036 157.101 140.036 156.56 140.905 156.226C141.774 155.893 143.183 155.893 144.052 156.226Z" clip-rule="evenodd"/><path fill="#FEED8D" fill-rule="evenodd" d="M88.9057 153.377C86.5876 152.487 86.5876 151.045 88.9057 150.156C91.5325 149.148 95.8993 149.303 97.9993 150.479L103.287 153.439C107.902 152.871 112.8 152.947 116.045 154.192C118.963 155.311 119.405 156.961 118.416 158.533C117.416 160.123 114.887 161.797 111.168 163.224C107.45 164.651 103.085 165.622 98.9414 166.005C94.8441 166.385 90.5447 166.215 87.6273 165.095C84.4006 163.857 84.1882 161.992 85.6395 160.232L77.8904 158.194C74.8261 157.389 74.4218 155.713 77.0486 154.705C79.3667 153.816 83.125 153.816 85.443 154.705L90.8125 156.765C91.3441 156.526 91.9083 156.292 92.5042 156.063C93.0796 155.842 93.6695 155.633 94.2705 155.435L88.9057 153.377Z" clip-rule="evenodd"/><path fill="#FFD800" d="M97.4253 160.149C98.8996 160.715 99.2731 161.489 98.2595 161.877C97.2459 162.266 95.2291 162.123 93.7548 161.557C92.2805 160.992 91.907 160.218 92.9206 159.829C93.9342 159.44 95.951 159.583 97.4253 160.149Z"/><path fill="#FFD800" d="M107.102 156.436C108.576 157.002 108.95 157.776 107.936 158.165C106.923 158.553 104.906 158.41 103.432 157.844C101.957 157.279 101.584 156.505 102.597 156.116C103.611 155.727 105.628 155.87 107.102 156.436Z"/><path fill="#E8574E" d="M111.477 159.142C112.619 157.386 110.197 153.434 108.843 151.678L101.05 153.544C100.208 155.117 98.4371 158.615 98.0858 160.02C97.6467 161.776 95.5611 163.423 101.05 164.63C106.538 165.838 110.05 161.337 111.477 159.142Z"/><path fill="#E8574E" d="M81.5261 156.617C81.9651 154.422 86.1363 152.885 89.8684 149.702C90.4172 149.263 91.9978 148.451 93.9298 148.714C96.3446 149.043 96.8935 150.361 97.8814 153.983C98.8693 157.605 94.3688 158.264 88.5511 159.91C82.7335 161.557 81.087 158.813 81.5261 156.617Z"/><path fill="#9A6AFF" d="M93.2539 146.73C93.2539 148.496 96.5791 149.801 94.0396 151.788C92.0899 152.666 88.7707 153.266 87.673 152.995C86.8117 152.782 84.8101 151.292 84.0483 145.994C83.096 139.372 88.704 138.048 92.0899 139.446C95.4759 140.844 93.2539 144.964 93.2539 146.73Z"/><path fill="#9A6AFF" d="M106.645 147.427C106.645 149.351 110.666 151.676 108.127 153.84C106.265 155.427 102.839 155.026 100.976 154.536C100.115 154.304 98.2017 152.397 97.4399 146.626C96.4875 139.411 102.096 137.968 105.482 139.491C108.868 141.014 106.645 145.503 106.645 147.427Z"/><path fill="#E8574E" d="M84.0507 143.006C83.3921 140.591 86.429 135.066 88.4414 132.359C98.2839 131.81 118.518 128.188 118.518 134.664C118.518 138.739 109.956 142.896 108.2 145.86C106.443 148.824 100.955 148.604 97.113 147.177C94.0395 146.036 95.2104 143.262 95.4665 141.689C94.2745 143.543 93.8462 144.887 92.1735 145.201C89.6871 145.669 84.564 144.888 84.0507 143.006Z"/><path fill="#1FC7D4" d="M88.3316 133.127C82.5359 127.595 89.0634 114.064 93.0516 107.99C96.9666 107.149 105.675 105.466 109.187 105.466C113.578 105.466 122.36 128.407 120.054 133.127C117.749 137.847 95.5762 140.042 88.3316 133.127Z"/><path fill="#1FC7D4" d="M123.747 127.491C117.509 129.397 105.447 122.136 100.195 118.267C99.9867 115.794 99.7048 110.343 100.247 108.32C100.924 105.792 124.439 106.672 128.643 109.221C132.846 111.77 131.545 125.109 123.747 127.491Z"/><path fill="#9A6AFF" d="M136.421 113.912C133.787 113.912 130.603 109.741 127.64 112.376C125.467 114.307 126.017 117.861 126.687 119.793C127.004 120.687 129.615 122.672 137.519 123.462C147.398 124.45 149.374 118.632 147.288 115.12C145.202 111.607 139.055 113.912 136.421 113.912Z"/><path fill="#7645D9" d="M71.0062 104.103C73.5508 104.785 77.7052 101.58 79.8861 104.892C81.4851 107.32 80.0339 110.611 78.8864 112.304C78.3484 113.085 75.3127 114.326 67.4742 113.044C57.6761 111.441 57.2733 105.31 60.197 102.457C63.1206 99.6041 68.4615 103.422 71.0062 104.103Z"/><path fill="#1FC7D4" d="M78.9999 120.253C84.3788 123.656 97.5343 119.823 103.44 117.482C104.258 115.183 105.894 110.07 105.894 108.007C105.894 105.429 83.589 100.273 78.9999 101.627C74.4107 102.98 72.2762 115.999 78.9999 120.253Z"/><path stroke="#FFD800" stroke-width="2.195" d="M90.6198 108.931C92.7419 112.7 97.9522 119.952 101.816 118.81C105.68 117.669 109.28 109.7 110.597 105.858"/><ellipse cx="101.604" cy="122.513" fill="#FFAF00" rx="7.903" ry="6.586" transform="rotate(-15 101.604 122.513)"/><ellipse cx="101.15" cy="120.816" fill="#FFD800" rx="7.903" ry="6.586" transform="rotate(-15 101.15 120.816)"/><path fill="#9A6AFF" d="M55.5114 35.2501C48.0108 25.9324 53.0633 13.6473 64.5149 10.5789C73.8455 8.07875 81.9915 10.5821 85.5458 21.4891C89.1002 32.3962 93.4032 50.813 93.4032 50.813C95.0084 56.804 90.9946 63.0848 84.4381 64.8416C79.279 66.224 73.8947 64.4036 71.1156 60.3373C71.1156 60.3373 63.012 44.5679 55.5114 35.2501Z"/><path fill="#9A6AFF" d="M93.6588 23.3371C92.2587 11.128 102.382 2.42053 113.073 5.28519C121.784 7.61926 127.071 13.9315 124.524 25.6387C121.977 37.3458 116.315 56.2735 116.315 56.2735C114.638 62.5323 108.317 66.2765 102.196 64.6363C97.3793 63.3458 93.9665 59.0223 93.7513 53.9386C93.7513 53.9386 95.0589 35.5462 93.6588 23.3371Z"/><path fill="#9A6AFF" d="M140.235 72.0494C143.887 92.1434 130.533 105.597 106.611 109.946C82.6892 114.294 60.5908 107.777 56.938 87.6834C53.2852 67.5894 70.3735 46.5459 94.2955 42.1972C118.217 37.8486 136.582 51.9555 140.235 72.0494Z"/><path fill="#452A7A" fill-rule="evenodd" d="M106.79 88.9017C107.878 88.7985 108.844 89.5967 108.947 90.6846C109.419 95.6579 105.399 99.7923 100.407 100.266C99.3196 100.369 98.3539 99.5711 98.2506 98.4831C98.1474 97.3952 98.9456 96.4295 100.034 96.3263C103.211 96.0247 105.24 93.511 105.007 91.0586C104.904 89.9707 105.702 89.005 106.79 88.9017Z" clip-rule="evenodd"/><path fill="#452A7A" fill-rule="evenodd" d="M106.79 88.9016C107.878 88.7984 108.844 89.5966 108.947 90.6845C109.18 93.1369 111.646 95.2239 114.823 94.9223C115.911 94.8191 116.877 95.6173 116.98 96.7052C117.083 97.7932 116.285 98.7588 115.197 98.8621C110.206 99.3359 105.479 96.0317 105.007 91.0585C104.904 89.9706 105.702 89.0049 106.79 88.9016Z" clip-rule="evenodd"/><path fill="#452A7A" d="M93.9693 83.3271C96.0689 88.5732 94.5255 91.4993 91.6393 92.6544C88.7531 93.8095 85.6171 92.7562 83.5175 87.5101C81.4179 82.264 82.9613 79.3378 85.8475 78.1827C88.7337 77.0276 91.8697 78.081 93.9693 83.3271Z"/><path fill="#452A7A" d="M124.368 78.0577C125.595 83.5735 123.6 86.2128 120.566 86.888C117.531 87.5632 114.606 86.0185 113.378 80.5027C112.151 74.9869 114.146 72.3476 117.18 71.6724C120.215 70.9972 123.14 72.5419 124.368 78.0577Z"/><path fill="#7645D9" d="M122.724 50.2534C124.827 55.9461 113.882 57.6553 101.392 57.6701C88.9026 57.685 77.5842 53.5255 77.5804 50.3643C77.5767 47.2031 87.8834 45.0256 100.373 45.0108C112.863 44.996 121.556 47.0908 122.724 50.2534Z"/><path fill="#CB7E39" d="M121.317 50.2984C121.321 53.8484 112.019 56.702 99.8382 56.7165C87.6574 56.7309 77.599 53.4186 77.5947 49.8686C77.5905 46.3186 87.6421 43.8751 99.8229 43.8607C112.004 43.8462 121.313 46.7483 121.317 50.2984Z"/><path fill="#CB7E39" d="M121.287 44.3515L77.7307 44.8853L76.9868 47.3862L77.5942 49.8688L121.316 50.2985L121.876 47.7786L121.287 44.3515Z"/><path fill="#E3C05D" d="M121.288 44.3514C121.292 47.9014 111.225 50.9203 99.2805 50.9345C87.336 50.9486 77.735 48.4353 77.7308 44.8852C77.7266 41.3352 87.3207 38.0928 99.2652 38.0786C111.21 38.0645 121.283 40.8014 121.288 44.3514Z"/><path fill="#FFC700" d="M87.0429 70.3402C78.9641 69.9011 69.1143 72.5721 65.1992 73.9625C64.3211 75.7188 64.8333 78.4996 65.1992 79.6704C70.1388 82.9635 67.175 89.4397 71.3462 95.0379C75.5174 100.636 82.1034 101.404 93.1899 99.209C102.059 97.4528 104.203 85.4515 104.167 79.6704H108.448C111.85 98.6602 121.51 97.4528 125.681 96.7942C129.852 96.1356 136.929 94.6613 138.853 89.4397C141.927 81.0974 141.707 78.0239 143.244 74.7309C145.264 72.4477 144.085 68.8766 143.244 67.3765C138.414 67.0472 127.503 66.5861 122.498 67.3765C116.241 68.3644 110.423 72.6453 105.813 73.1941C101.203 73.743 97.1416 70.889 87.0429 70.3402Z"/><path fill="#FFC700" d="M57.2759 73.9451C59.257 72.9425 67.7893 73.8084 67.7893 73.8084L67.7704 81.8073C67.7704 81.8073 63.7317 81.4976 62.3136 80.5326C61.2437 79.8045 60.1884 78.2656 59.0329 78.3008C56.5786 78.3755 55.9951 80.7474 54.2138 80.8949C52.4324 81.0424 52.0733 79.2847 52.522 78.0198C53.1134 76.3522 55.2948 74.9477 57.2759 73.9451Z"/><path fill="#452A7A" d="M136.878 74.5114C136.878 68.5839 130.356 69.6323 122.937 70.5597C115.912 71.4379 113.387 74.6211 112.18 77.2555C110.972 79.8899 111.85 87.1346 116.351 91.6351C120.476 95.7604 126.12 94.2695 130.95 92.2937C137.53 89.6021 136.878 80.3693 136.878 74.5114Z"/><path fill="#452A7A" d="M100.654 78.0239C99.1614 74.2479 88.9458 73.56 84.5185 74.0723C81.8841 74.5113 77.0103 74.9943 75.5175 76.4872C73.6515 78.3532 72.3342 79.9997 73.4319 87.2444C74.5326 94.5093 78.7009 97.343 84.5185 97.4527C90.3362 97.5625 92.7512 97.6747 97.032 94.2695C101.313 90.8643 102.52 82.7439 100.654 78.0239Z"/></svg>