<svg xmlns="http://www.w3.org/2000/svg" width="192" height="192" fill="none" viewBox="0 0 192 192"><g clip-path="url(#clip0_2067_307220)"><path fill="#EB8C00" fill-rule="evenodd" d="M67.8483 61.4477C72.7741 49.1673 85.9609 17.0907 89.3446 17.0026C91.731 16.9404 119.257 17.9981 143.32 18.9227C161.456 19.6196 177.625 20.2409 179.583 20.2502C179.793 20.2512 179.944 20.3894 180.041 20.6519C181.16 21.6666 183.942 24.4032 183.942 26.5278C183.942 28.701 167.71 69.5402 161.777 84.3942C162.571 94.4292 156.117 127.954 151.346 148.928C149.311 158.108 147.578 164.895 147.032 166.33C144.978 171.225 90.0246 191.455 81.6977 192.042C73.3708 192.629 29.5699 175.336 22.8255 169.354C21.9777 168.615 20.7155 163.677 19.3214 156.52V156.39C14.8001 133.615 8.63972 88.5432 9.0165 83.1051C9.42741 77.2359 47.0411 65.0779 67.8483 61.4477Z" clip-rule="evenodd"/><g style="mix-blend-mode:hard-light" opacity=".9"><path fill="url(#paint0_linear_2067_307220)" d="M66 66.154C66 66.154 85.1811 17.1116 89.3661 17.0026C93.551 16.8936 175.049 20.2285 179.604 20.2503C184.16 20.2721 160.946 84.7029 160.946 84.7029C160.946 84.7029 124.72 68.944 66 66.154Z"/><path fill="#6B7478" d="M179.604 20.2505C179.604 20.2505 183.964 23.8687 183.964 26.5279C183.964 29.1871 159.661 89.7381 159.661 89.7381L158.68 83.3953L179.604 20.2505Z"/><g style="mix-blend-mode:multiply" opacity=".2"><path fill="#8F9AA0" d="M70.3593 60.0299C69.8798 66.5689 99.0873 41.6336 125.243 32.3918C151.399 23.15 172.629 26.1797 173.392 23.1718C174.155 20.1639 97.3655 18.0278 92.2651 18.6381C87.1646 19.2484 71.3184 47.1481 70.3593 60.0299Z"/></g><g style="mix-blend-mode:multiply" opacity=".3"><path fill="#8F9AA0" d="M89.3652 17.0032C89.3652 17.0032 126.31 20.1201 142.287 21.3625C154.737 21.9568 167.214 21.5706 179.603 20.2073L89.3652 17.0032Z"/></g><path fill="#C0C4C6" d="M151.367 148.928C149.333 158.108 147.6 164.895 147.053 166.331C145 171.225 90.0461 191.455 81.7192 192.042C73.3923 192.629 29.5914 175.336 22.847 169.354C21.9992 168.615 20.737 163.677 19.3429 156.52V156.39C14.8215 133.615 8.66119 88.5433 9.03797 83.1052C9.54663 75.8398 67.0624 58.938 79.1382 60.5042C95.5659 62.6795 156.548 76.3619 161.107 81.7565C164.291 85.5415 156.755 125.24 151.367 148.928Z"/><path fill="#D6D6D6" d="M9.0005 83.0178C9.15121 86.7592 73.4114 112.797 86.3539 113.015C99.2964 113.232 154.891 87.3465 158.866 83.0178C162.841 78.689 100.69 63.4403 81.2296 60.5038C61.7688 57.5672 8.81211 78.7542 9.0005 83.0178Z"/><g style="mix-blend-mode:multiply" opacity=".5"><path fill="#8F9AA0" d="M91.0068 114.058C87.239 116.081 83.622 186.277 84.0364 188.974C84.4509 191.672 145.678 171.572 147.053 166.265C148.428 160.957 164.743 95.1554 161.804 89.0864C158.865 83.0175 91.0068 114.058 91.0068 114.058Z"/></g><path fill="url(#paint1_linear_2067_307220)" d="M148.296 81.8434C148.861 86.7812 102.781 105.097 86.2967 107.098C79.8537 107.859 21.0193 86.5419 18.7774 81.8434C16.5355 77.1448 63.1247 63.1797 79.0626 63.1797C95.0005 63.1797 147.693 76.8403 148.296 81.8434Z"/><g style="mix-blend-mode:multiply" opacity=".2"><path fill="#B3C1C8" d="M79.0057 63.1797V105.749C72.5628 106.533 21.019 86.5419 18.7206 81.8216C16.4222 77.1013 63.1244 63.1797 79.0057 63.1797Z"/></g><g style="mix-blend-mode:multiply" opacity=".5"><path fill="#50575C" d="M151.368 148.929C149.334 158.109 147.6 164.896 147.054 166.331C145.001 171.226 90.0469 191.456 81.72 192.043C73.3931 192.63 29.5922 175.337 22.8478 169.355C22 168.615 20.7378 163.677 19.3438 156.521C19.7959 157.717 23.997 165.723 42.4405 176.165C62.1086 187.28 82.4925 188.845 84.0373 189.041C85.5821 189.237 137.182 172.574 143.738 165.57C147.337 161.676 149.861 154.541 151.368 148.929Z"/></g><path fill="#fff" d="M130.737 126.431C130.538 127.19 129.462 127.19 129.263 126.431L128.192 122.351C128.122 122.085 127.915 121.878 127.648 121.808L123.569 120.737C122.81 120.538 122.81 119.462 123.569 119.263L127.648 118.192C127.915 118.122 128.122 117.915 128.192 117.648L129.263 113.569C129.462 112.81 130.538 112.81 130.737 113.569L131.808 117.648C131.878 117.915 132.085 118.122 132.352 118.192L136.431 119.263C137.19 119.462 137.19 120.538 136.431 120.737L132.352 121.808C132.085 121.878 131.878 122.085 131.808 122.351L130.737 126.431Z"/><mask id="mask0_2067_307220" width="77" height="42" x="12" y="110" maskUnits="userSpaceOnUse" style="mask-type:alpha"><path fill="#C4C4C4" d="M16 136.5L12 110C23.3333 110.667 46.2 112 47 112C47.8 112 75 120.667 88.5 125L86 151.5L42.5 147.5L16 136.5Z"/></mask><g mask="url(#mask0_2067_307220)"><path fill="#E4E4E4" d="M-0.110643 125.835C-0.110643 125.835 0.0562318 113.604 2.31088 108.912C4.56553 104.221 91.8526 133.455 91.8526 133.455L85.4993 154.87C85.4993 154.87 23.3932 139.435 -0.110643 125.835Z"/><path fill="#6B7478" d="M42.8225 138.575L44.16 134.089C44.16 134.089 41.2913 129.677 42.7265 127.279C43.045 126.794 43.4667 126.386 43.9615 126.084C44.4563 125.782 45.0118 125.593 45.5883 125.531C46.1647 125.469 46.7477 125.535 47.2955 125.724C47.8434 125.914 48.3424 126.223 48.7569 126.628C49.6846 128.079 46.9321 134.104 46.9321 134.104L48.7224 139.446L42.8225 138.575Z"/><path fill="#E8ECEE" d="M2.24702 108.892L9.31421 108.634C9.31421 108.634 66.1721 122.731 91.8328 133.449C91.7887 133.434 41.3061 121.917 2.24702 108.892Z"/><g style="mix-blend-mode:multiply" opacity=".2"><path fill="#8F9AA0" d="M102.258 138.42C102.543 136.059 68.0724 129.505 64.5105 129.427C60.9485 129.35 54.0596 141.981 55.9935 143.743C57.9274 145.505 96.9169 156.344 97.8391 155.944C98.7612 155.544 102.258 138.42 102.258 138.42Z"/></g><path fill="#fff" d="M5.81597 111.057C0.827242 110.766 10.8755 120.342 15.4011 121.926C19.9268 123.51 30.3164 118.457 30.3164 118.457L5.81597 111.057Z"/></g><mask id="mask1_2067_307220" width="115" height="116" x="55" y="84" maskUnits="userSpaceOnUse" style="mask-type:alpha"><path fill="#C4C4C4" d="M124.058 165.557C144.984 146.098 152.631 117.288 162.721 91.4155L169.078 84L152.578 179.141L74.5776 199.089L55 184.978C63.2812 184.978 78.4328 189.53 86.0776 186.557C99.9123 181.176 113.036 175.807 124.058 165.557Z"/></mask><g mask="url(#mask1_2067_307220)"><g style="mix-blend-mode:multiply" opacity=".5"><path fill="#8F9AA0" d="M91.583 114.147C87.8151 116.17 84.1981 186.366 84.6126 189.063C85.027 191.76 146.254 171.661 147.629 166.353C149.005 161.046 165.319 95.2443 162.38 89.1753C159.441 83.1063 91.583 114.147 91.583 114.147Z"/></g></g></g><g style="mix-blend-mode:color-burn" opacity=".5"><path fill="url(#paint2_linear_2067_307220)" d="M66 66.154C66 66.154 85.1811 17.1116 89.3661 17.0026C93.551 16.8936 175.049 20.2285 179.604 20.2503C184.16 20.2721 160.946 84.7029 160.946 84.7029C160.946 84.7029 124.72 68.944 66 66.154Z"/><path fill="#6B7478" d="M179.604 20.2505C179.604 20.2505 183.964 23.8687 183.964 26.5279C183.964 29.1871 159.661 89.7381 159.661 89.7381L158.68 83.3953L179.604 20.2505Z"/><g style="mix-blend-mode:multiply" opacity=".2"><path fill="#8F9AA0" d="M70.3593 60.0299C69.8798 66.5689 99.0873 41.6336 125.243 32.3918C151.399 23.15 172.629 26.1797 173.392 23.1718C174.155 20.1639 97.3655 18.0278 92.2651 18.6381C87.1646 19.2484 71.3184 47.1481 70.3593 60.0299Z"/></g><g style="mix-blend-mode:multiply" opacity=".3"><path fill="#8F9AA0" d="M89.3652 17.0032C89.3652 17.0032 126.31 20.1201 142.287 21.3625C154.737 21.9568 167.214 21.5706 179.603 20.2073L89.3652 17.0032Z"/></g><path fill="#C0C4C6" d="M151.367 148.928C149.333 158.108 147.6 164.895 147.053 166.331C145 171.225 90.0461 191.455 81.7192 192.042C73.3923 192.629 29.5914 175.336 22.847 169.354C21.9992 168.615 20.737 163.677 19.3429 156.52V156.39C14.8215 133.615 8.66119 88.5433 9.03797 83.1052C9.54663 75.8398 67.0624 58.938 79.1382 60.5042C95.5659 62.6795 156.548 76.3619 161.107 81.7565C164.291 85.5415 156.755 125.24 151.367 148.928Z"/><path fill="#D6D6D6" d="M9.0005 83.0178C9.15121 86.7592 73.4114 112.797 86.3539 113.015C99.2964 113.232 154.891 87.3465 158.866 83.0178C162.841 78.689 100.69 63.4403 81.2296 60.5038C61.7688 57.5672 8.81211 78.7542 9.0005 83.0178Z"/><g style="mix-blend-mode:multiply" opacity=".5"><path fill="#8F9AA0" d="M91.0068 114.058C87.239 116.081 83.622 186.277 84.0364 188.974C84.4509 191.672 145.678 171.572 147.053 166.265C148.428 160.957 164.743 95.1554 161.804 89.0864C158.865 83.0175 91.0068 114.058 91.0068 114.058Z"/></g><path fill="url(#paint3_linear_2067_307220)" d="M148.296 81.8434C148.861 86.7812 102.781 105.097 86.2967 107.098C79.8537 107.859 21.0193 86.5419 18.7774 81.8434C16.5355 77.1448 63.1247 63.1797 79.0626 63.1797C95.0005 63.1797 147.693 76.8403 148.296 81.8434Z"/><g style="mix-blend-mode:multiply" opacity=".2"><path fill="#B3C1C8" d="M79.0057 63.1797V105.749C72.5628 106.533 21.019 86.5419 18.7206 81.8216C16.4222 77.1013 63.1244 63.1797 79.0057 63.1797Z"/></g><g style="mix-blend-mode:multiply" opacity=".5"><path fill="#50575C" d="M151.368 148.929C149.334 158.109 147.6 164.896 147.054 166.331C145.001 171.226 90.0469 191.456 81.72 192.043C73.3931 192.63 29.5922 175.337 22.8478 169.355C22 168.615 20.7378 163.677 19.3438 156.521C19.7959 157.717 23.997 165.723 42.4405 176.165C62.1086 187.28 82.4925 188.845 84.0373 189.041C85.5821 189.237 137.182 172.574 143.738 165.57C147.337 161.676 149.861 154.541 151.368 148.929Z"/></g><path fill="#fff" d="M130.737 126.431C130.538 127.19 129.462 127.19 129.263 126.431L128.192 122.351C128.122 122.085 127.915 121.878 127.648 121.808L123.569 120.737C122.81 120.538 122.81 119.462 123.569 119.263L127.648 118.192C127.915 118.122 128.122 117.915 128.192 117.648L129.263 113.569C129.462 112.81 130.538 112.81 130.737 113.569L131.808 117.648C131.878 117.915 132.085 118.122 132.352 118.192L136.431 119.263C137.19 119.462 137.19 120.538 136.431 120.737L132.352 121.808C132.085 121.878 131.878 122.085 131.808 122.351L130.737 126.431Z"/><mask id="mask2_2067_307220" width="77" height="42" x="12" y="110" maskUnits="userSpaceOnUse" style="mask-type:alpha"><path fill="#C4C4C4" d="M16 136.5L12 110C23.3333 110.667 46.2 112 47 112C47.8 112 75 120.667 88.5 125L86 151.5L42.5 147.5L16 136.5Z"/></mask><g mask="url(#mask2_2067_307220)"><path fill="#E4E4E4" d="M-0.110643 125.835C-0.110643 125.835 0.0562318 113.604 2.31088 108.912C4.56553 104.221 91.8526 133.455 91.8526 133.455L85.4993 154.87C85.4993 154.87 23.3932 139.435 -0.110643 125.835Z"/><path fill="#6B7478" d="M42.8225 138.575L44.16 134.089C44.16 134.089 41.2913 129.677 42.7265 127.279C43.045 126.794 43.4667 126.386 43.9615 126.084C44.4563 125.782 45.0118 125.593 45.5883 125.531C46.1647 125.469 46.7477 125.535 47.2955 125.724C47.8434 125.914 48.3424 126.223 48.7569 126.628C49.6846 128.079 46.9321 134.104 46.9321 134.104L48.7224 139.446L42.8225 138.575Z"/><path fill="#E8ECEE" d="M2.24702 108.892L9.31421 108.634C9.31421 108.634 66.1721 122.731 91.8328 133.449C91.7887 133.434 41.3061 121.917 2.24702 108.892Z"/><g style="mix-blend-mode:multiply" opacity=".2"><path fill="#8F9AA0" d="M102.258 138.42C102.543 136.059 68.0724 129.505 64.5105 129.427C60.9485 129.35 54.0596 141.981 55.9935 143.743C57.9274 145.505 96.9169 156.344 97.8391 155.944C98.7612 155.544 102.258 138.42 102.258 138.42Z"/></g><path fill="#fff" d="M5.81597 111.057C0.827242 110.766 10.8755 120.342 15.4011 121.926C19.9268 123.51 30.3164 118.457 30.3164 118.457L5.81597 111.057Z"/></g><mask id="mask3_2067_307220" width="115" height="116" x="55" y="84" maskUnits="userSpaceOnUse" style="mask-type:alpha"><path fill="#C4C4C4" d="M124.058 165.557C144.984 146.098 152.631 117.288 162.721 91.4155L169.078 84L152.578 179.141L74.5776 199.089L55 184.978C63.2812 184.978 78.4328 189.53 86.0776 186.557C99.9123 181.176 113.036 175.807 124.058 165.557Z"/></mask><g mask="url(#mask3_2067_307220)"><g style="mix-blend-mode:multiply" opacity=".5"><path fill="#8F9AA0" d="M91.583 114.147C87.8151 116.17 84.1981 186.366 84.6126 189.063C85.027 191.76 146.254 171.661 147.629 166.353C149.005 161.046 165.319 95.2443 162.38 89.1753C159.441 83.1063 91.583 114.147 91.583 114.147Z"/></g></g></g><g style="mix-blend-mode:color"><path fill="url(#paint4_linear_2067_307220)" fill-rule="evenodd" d="M67.8483 61.4477C72.7741 49.1673 85.9609 17.0907 89.3446 17.0026C91.731 16.9404 119.257 17.9981 143.32 18.9227C161.456 19.6196 177.625 20.2409 179.583 20.2502C179.793 20.2512 179.944 20.3894 180.041 20.6519C181.16 21.6666 183.942 24.4032 183.942 26.5278C183.942 28.701 167.71 69.5402 161.777 84.3942C162.571 94.4292 156.117 127.954 151.346 148.928C149.311 158.108 147.578 164.895 147.032 166.33C144.978 171.225 90.0246 191.455 81.6977 192.042C73.3708 192.629 29.5699 175.336 22.8255 169.354C21.9777 168.615 20.7155 163.677 19.3214 156.52V156.39C14.8001 133.615 8.63972 88.5432 9.0165 83.1051C9.42741 77.2359 47.0411 65.0779 67.8483 61.4477Z" clip-rule="evenodd"/></g><path fill="#8D4B00" d="M40.192 77.0146L39.9812 51.3137L34.7218 50.6345L34.6645 43.6393L47.9132 45.4961L48.1912 79.3841L40.192 77.0146Z"/><path fill="#8D4B00" d="M67.1103 85.9186C63.533 84.859 60.6458 83.3318 58.4486 81.337C56.2515 79.3422 54.6454 76.9022 53.6305 74.0171C52.6484 71.1072 52.1422 67.8041 52.1119 64.1079C52.0815 60.4116 52.536 57.4104 53.4753 55.1041C54.4478 52.8076 56.0215 51.3095 58.1966 50.6098C60.3714 49.8756 63.2474 50.0383 66.8246 51.098C70.435 52.1674 73.3224 53.7119 75.4867 55.7314C77.6839 57.7262 79.2899 60.1662 80.3049 63.0513C81.3198 65.9365 81.8424 69.2272 81.8728 72.9234C81.9031 76.6197 81.4322 79.6333 80.46 81.9643C79.4876 84.2608 77.9138 85.7589 75.7388 86.4586C73.5968 87.168 70.7207 86.9881 67.1103 85.9186ZM67.0516 78.7679C69.569 79.5136 71.3008 79.1651 72.2472 77.7224C73.2265 76.255 73.7023 73.8459 73.6748 70.4951C73.6474 67.1443 73.1297 64.4581 72.1218 62.4366C71.1468 60.3903 69.4006 58.9943 66.8833 58.2486C64.366 57.503 62.6177 57.8638 61.6384 59.3313C60.692 60.7739 60.2326 63.1707 60.2601 66.5215C60.2876 69.8723 60.7888 72.5708 61.7638 74.6171C62.7717 76.6387 64.5343 78.0223 67.0516 78.7679Z"/><path fill="#8D4B00" d="M99.9582 95.6486C96.3809 94.589 93.4937 93.0618 91.2966 91.067C89.0994 89.0722 87.4933 86.6322 86.4784 83.7471C85.4963 80.8372 84.9901 77.5341 84.9598 73.8379C84.9295 70.1416 85.3839 67.1404 86.3233 64.8341C87.2957 62.5376 88.8694 61.0395 91.0445 60.3398C93.2193 59.6056 96.0953 59.7683 99.6726 60.828C103.283 61.8974 106.17 63.4419 108.335 65.4614C110.532 67.4562 112.138 69.8962 113.153 72.7813C114.168 75.6665 114.69 78.9572 114.721 82.6534C114.751 86.3497 114.28 89.3633 113.308 91.6943C112.335 93.9908 110.762 95.4889 108.587 96.1886C106.445 96.898 103.569 96.7181 99.9582 95.6486ZM99.8995 88.4979C102.417 89.2436 104.149 88.8951 105.095 87.4524C106.074 85.985 106.55 83.5759 106.523 80.2251C106.495 76.8743 105.978 74.1881 104.97 72.1666C103.995 70.1203 102.249 68.7243 99.7312 67.9786C97.2139 67.233 95.4656 67.5938 94.4864 69.0613C93.54 70.5039 93.0805 72.9007 93.108 76.2515C93.1355 79.6023 93.6367 82.3008 94.6117 84.3471C95.6196 86.3687 97.3822 87.7523 99.8995 88.4979Z"/><path fill="#FDE5B1" fill-rule="evenodd" d="M36.3898 79.8784L36.1847 54.8701L30.9254 54.1909L30.8012 39.058L51.7107 41.9885L51.7723 49.5038C52.9396 48.1534 54.4166 47.1711 56.1993 46.5942C59.1595 45.6011 62.7894 45.9124 66.7922 47.0981C70.8106 48.2884 74.4659 50.1285 77.4393 52.8925C80.0059 55.2304 81.9613 58.0276 83.2916 61.1679C84.5787 58.799 86.5012 57.1481 89.0472 56.3242C92.0074 55.3311 95.6373 55.6424 99.6401 56.8281C103.658 58.0184 107.314 59.8584 110.287 62.6224C113.243 65.315 115.388 68.617 116.702 72.3506C117.951 75.9024 118.523 79.7406 118.556 83.7895C118.59 87.8409 118.077 91.3668 116.888 94.2197L116.885 94.2272L116.881 94.2347C115.62 97.2128 113.513 99.2591 110.577 100.207C107.639 101.176 104.004 100.837 99.9913 99.6485C95.9942 98.4645 92.3596 96.6433 89.374 93.9326C86.793 91.5894 84.8277 88.7828 83.4923 85.6305C82.204 88.0017 80.2789 89.6536 77.7292 90.4767C74.7915 91.4458 71.1564 91.1072 67.1434 89.9185C63.1463 88.7345 59.5117 86.9133 56.5261 84.2026C54.717 82.5602 53.2105 80.6902 52.0113 78.633L52.0596 84.52L36.3898 79.8784ZM75.7391 86.4586C77.9142 85.7589 79.4879 84.2608 80.4603 81.9643C80.9266 80.8463 81.2776 79.5713 81.5132 78.1392C81.7689 76.5855 81.8889 74.8469 81.8731 72.9235C81.8573 70.9995 81.7081 69.1854 81.4256 67.4812C81.1653 65.9113 80.7918 64.4347 80.3052 63.0513C79.2902 60.1662 77.6842 57.7262 75.487 55.7314C73.3227 53.7119 70.4354 52.1674 66.825 51.098C63.2477 50.0383 60.3717 49.8756 58.1969 50.6098C56.0218 51.3095 54.4481 52.8076 53.4757 55.1041C52.5364 57.4104 52.0819 60.4116 52.1122 64.1079C52.1425 67.8041 52.6487 71.1072 53.6308 74.0171C54.6458 76.9022 56.2518 79.3422 58.449 81.337C60.6461 83.3318 63.5333 84.859 67.1106 85.9186C70.721 86.9881 73.5972 87.1681 75.7391 86.4586ZM72.1222 62.4366C73.13 64.4581 73.6477 67.1443 73.6752 70.4951C73.7027 73.8459 73.2268 76.255 72.2475 77.7224C71.3012 79.1651 69.5693 79.5136 67.0519 78.768C64.5346 78.0223 62.772 76.6387 61.7642 74.6171C60.7891 72.5708 60.2879 69.8723 60.2604 66.5215C60.2329 63.1707 60.6924 60.774 61.6388 59.3313C62.618 57.8638 64.3663 57.503 66.8836 58.2486C69.401 58.9943 71.1471 60.3903 72.1222 62.4366ZM64.9691 62.3266C64.5135 63.0261 64.0706 64.5973 64.0957 67.6575C64.1204 70.6742 64.5784 72.5449 65.061 73.5832C65.176 73.8053 65.5108 74.3213 67.0191 74.7681C67.8753 75.0217 68.3396 75.0105 68.5603 74.9661C68.7348 74.931 68.8253 74.8674 68.9134 74.7329L68.9193 74.724L68.9252 74.7152C69.4095 73.9894 69.8649 72.4045 69.8399 69.3591C69.8148 66.3049 69.3285 64.4796 68.8503 63.5203L68.8269 63.4734L68.8044 63.4262C68.8018 63.4208 68.7991 63.415 68.7962 63.4087C68.7133 63.2308 68.4702 62.7088 66.9164 62.2485C65.3528 61.7854 65.0782 62.1631 64.9691 62.3266ZM85.3957 79.299C85.6477 80.8718 86.0087 82.3544 86.4787 83.7471C87.4937 86.6322 89.0997 89.0722 91.2969 91.067C93.494 93.0618 96.3813 94.589 99.9585 95.6486C103.569 96.7181 106.445 96.8981 108.587 96.1886C110.762 95.4889 112.336 93.9908 113.308 91.6943C114.28 89.3633 114.751 86.3497 114.721 82.6535C114.691 78.9572 114.168 75.6665 113.153 72.7813C112.138 69.8962 110.532 67.4562 108.335 65.4614C106.171 63.4419 103.283 61.8974 99.6729 60.828C96.0956 59.7683 93.2196 59.6056 91.0448 60.3398C88.8698 61.0395 87.296 62.5376 86.3236 64.8341C85.8742 65.9375 85.5358 67.1999 85.3083 68.6215C85.0604 70.1712 84.9443 71.91 84.9601 73.8379C84.9759 75.7651 85.1211 77.5855 85.3957 79.299ZM104.97 72.1666C105.978 74.1881 106.496 76.8743 106.523 80.2251C106.551 83.5759 106.075 85.985 105.095 87.4524C104.149 88.8951 102.417 89.2436 99.8999 88.498C97.3825 87.7523 95.6199 86.3687 94.6121 84.3471C93.6371 82.3008 93.1358 79.6023 93.1083 76.2515C93.0808 72.9007 93.5403 70.5039 94.4867 69.0613C95.4659 67.5938 97.2142 67.233 99.7315 67.9786C102.249 68.7243 103.995 70.1203 104.97 72.1666ZM97.8171 72.0565C97.3614 72.7559 96.9185 74.3271 96.9436 77.3875C96.9683 80.404 97.4262 82.2747 97.9089 83.313C98.0238 83.535 98.3583 84.0512 99.8671 84.4981C100.723 84.7517 101.188 84.7405 101.408 84.6961C101.583 84.661 101.673 84.5973 101.761 84.4629L101.767 84.454L101.773 84.4452C102.257 83.7194 102.713 82.1345 102.688 79.0891C102.663 76.0349 102.176 74.2096 101.698 73.2503L101.675 73.2034L101.652 73.1562C101.65 73.1508 101.647 73.145 101.644 73.1387C101.561 72.9608 101.318 72.4388 99.7644 71.9785C98.2011 71.5155 97.9262 71.8929 97.8171 72.0565ZM39.9815 51.3137L40.1923 77.0146L48.1915 79.3841L47.9135 45.4961L34.6648 43.6393L34.7222 50.6345L39.9815 51.3137Z" clip-rule="evenodd"/></g><defs><linearGradient id="paint0_linear_2067_307220" x1="123.107" x2="123.107" y1="84.703" y2="17.003" gradientUnits="userSpaceOnUse"><stop stop-color="#C0C4C6"/><stop offset="1" stop-color="#969DA1"/></linearGradient><linearGradient id="paint1_linear_2067_307220" x1="83.49" x2="84" y1="107.098" y2="21" gradientUnits="userSpaceOnUse"><stop stop-color="#fff"/><stop offset="1" stop-opacity="0"/></linearGradient><linearGradient id="paint2_linear_2067_307220" x1="123.107" x2="123.107" y1="84.703" y2="17.003" gradientUnits="userSpaceOnUse"><stop stop-color="#C0C4C6"/><stop offset="1" stop-color="#969DA1"/></linearGradient><linearGradient id="paint3_linear_2067_307220" x1="83.49" x2="84" y1="107.098" y2="21" gradientUnits="userSpaceOnUse"><stop stop-color="#fff"/><stop offset="1" stop-opacity="0"/></linearGradient><linearGradient id="paint4_linear_2067_307220" x1="-8" x2="160.491" y1="81.5" y2="173.752" gradientUnits="userSpaceOnUse"><stop stop-color="#FFDB44"/><stop offset="1" stop-color="#FD9B13" stop-opacity=".08"/></linearGradient><clipPath id="clip0_2067_307220"><rect width="192" height="192" fill="#fff"/></clipPath></defs></svg>