<svg width="192" height="192" viewBox="0 0 192 192" fill="none" xmlns="http://www.w3.org/2000/svg">
<g clip-path="url(#clip0_1996_303449)">
<path d="M76 66.154C76 66.154 95.1811 17.1116 99.3661 17.0026C103.551 16.8936 185.049 20.2285 189.604 20.2503C194.16 20.2721 170.946 84.7029 170.946 84.7029C170.946 84.7029 134.72 68.944 76 66.154Z" fill="url(#paint0_linear_1996_303449)"/>
<path d="M189.604 20.2505C189.604 20.2505 193.964 23.8687 193.964 26.5279C193.964 29.1871 169.661 89.7381 169.661 89.7381L168.68 83.3953L189.604 20.2505Z" fill="#6B7478"/>
<g style="mix-blend-mode:multiply" opacity="0.2">
<path d="M80.3593 60.0299C79.8798 66.5689 109.087 41.6336 135.243 32.3918C161.399 23.15 182.629 26.1797 183.392 23.1718C184.155 20.1639 107.365 18.0278 102.265 18.6381C97.1646 19.2484 81.3184 47.1481 80.3593 60.0299Z" fill="#8F9AA0"/>
</g>
<g style="mix-blend-mode:multiply" opacity="0.3">
<path d="M99.3652 17.0032C99.3652 17.0032 136.31 20.1201 152.287 21.3625C164.737 21.9568 177.214 21.5706 189.603 20.2073L99.3652 17.0032Z" fill="#8F9AA0"/>
</g>
<path d="M161.367 148.928C159.333 158.108 157.6 164.895 157.053 166.331C155 171.225 100.046 191.455 91.7192 192.042C83.3923 192.629 39.5914 175.336 32.847 169.354C31.9992 168.615 30.737 163.677 29.3429 156.52V156.39C24.8215 133.615 18.6612 88.5433 19.038 83.1052C19.5466 75.8398 77.0624 58.938 89.1382 60.5042C105.566 62.6795 166.548 76.3619 171.107 81.7565C174.291 85.5415 166.755 125.24 161.367 148.928Z" fill="#C0C4C6"/>
<path d="M19.0005 83.0178C19.1512 86.7592 83.4114 112.797 96.3539 113.015C109.296 113.232 164.891 87.3465 168.866 83.0178C172.841 78.689 110.69 63.4403 91.2296 60.5038C71.7688 57.5672 18.8121 78.7542 19.0005 83.0178Z" fill="#D6D6D6"/>
<g style="mix-blend-mode:multiply" opacity="0.5">
<path d="M101.007 114.058C97.239 116.081 93.622 186.277 94.0364 188.974C94.4509 191.672 155.678 171.572 157.053 166.265C158.428 160.957 174.743 95.1554 171.804 89.0864C168.865 83.0175 101.007 114.058 101.007 114.058Z" fill="#8F9AA0"/>
</g>
<path d="M158.296 81.8434C158.861 86.7812 112.781 105.097 96.2967 107.098C89.8537 107.859 31.0193 86.5419 28.7774 81.8434C26.5355 77.1448 73.1247 63.1797 89.0626 63.1797C105 63.1797 157.693 76.8403 158.296 81.8434Z" fill="url(#paint1_linear_1996_303449)"/>
<g style="mix-blend-mode:multiply" opacity="0.2">
<path d="M89.0057 63.1797V105.749C82.5628 106.533 31.019 86.5419 28.7206 81.8216C26.4222 77.1013 73.1244 63.1797 89.0057 63.1797Z" fill="#B3C1C8"/>
</g>
<g style="mix-blend-mode:multiply" opacity="0.5">
<path d="M161.368 148.929C159.334 158.109 157.6 164.896 157.054 166.331C155.001 171.226 100.047 191.456 91.72 192.043C83.3931 192.63 39.5922 175.337 32.8478 169.355C32 168.615 30.7378 163.677 29.3438 156.521C29.7959 157.717 33.997 165.723 52.4405 176.165C72.1086 187.28 92.4925 188.845 94.0373 189.041C95.5821 189.237 147.182 172.574 153.738 165.57C157.337 161.676 159.861 154.541 161.368 148.929Z" fill="#50575C"/>
</g>
<mask id="mask0_1996_303449" style="mask-type:alpha" maskUnits="userSpaceOnUse" x="22" y="110" width="77" height="42">
<path d="M26 136.5L22 110C33.3333 110.667 56.2 112 57 112C57.8 112 85 120.667 98.5 125L96 151.5L52.5 147.5L26 136.5Z" fill="#C4C4C4"/>
</mask>
<g mask="url(#mask0_1996_303449)">
<path d="M9.88936 125.835C9.88936 125.835 10.0562 113.603 12.3109 108.912C14.5655 104.22 101.853 133.455 101.853 133.455L95.4993 154.869C95.4993 154.869 33.3932 139.434 9.88936 125.835Z" fill="#E4E4E4"/>
<path d="M52.8225 138.575L54.16 134.088C54.16 134.088 51.2913 129.677 52.7265 127.278C53.045 126.794 53.4667 126.386 53.9615 126.084C54.4563 125.782 55.0118 125.593 55.5883 125.53C56.1647 125.468 56.7477 125.534 57.2955 125.724C57.8434 125.914 58.3424 126.223 58.7569 126.628C59.6846 128.079 56.9321 134.104 56.9321 134.104L58.7224 139.446L52.8225 138.575Z" fill="#6B7478"/>
<path d="M12.247 108.891L19.3142 108.634C19.3142 108.634 76.1721 122.731 101.833 133.449C101.789 133.434 51.3061 121.917 12.247 108.891Z" fill="#E8ECEE"/>
<g style="mix-blend-mode:multiply" opacity="0.2">
<path d="M112.258 138.42C112.543 136.059 78.0724 129.505 74.5105 129.427C70.9485 129.35 64.0596 141.981 65.9935 143.743C67.9274 145.505 106.917 156.344 107.839 155.944C108.761 155.544 112.258 138.42 112.258 138.42Z" fill="#8F9AA0"/>
</g>
<path d="M15.816 111.057C10.8272 110.766 20.8755 120.342 25.4011 121.926C29.9268 123.51 40.3164 118.457 40.3164 118.457L15.816 111.057Z" fill="white"/>
</g>
<path d="M54.1356 77.9646C53.249 77.6844 52.2003 77.2897 50.9896 76.7804C49.8124 76.3134 48.6315 75.7818 47.4469 75.1857C46.2921 74.5674 45.276 73.9295 44.3987 73.2721L43.9768 65.9628C44.7573 66.5579 45.6458 67.1397 46.6423 67.708C47.6704 68.2863 48.6949 68.8001 49.7156 69.2494C50.7363 69.6987 51.595 70.0334 52.2916 70.2535C54.0332 70.8038 55.2839 70.9297 56.0439 70.6313C56.8355 70.3428 57.1969 69.6016 57.128 68.4076C57.0628 67.2781 56.7312 66.3813 56.1333 65.7172C55.5336 65.0207 54.442 64.4224 52.8588 63.9221L43.5494 60.9804L43.3091 56.8175L43.3315 43.4706L63.1378 49.7292L62.9226 56.5045L51.3808 52.8574L51.3529 57.2207L54.8202 58.3163C58.525 59.487 61.3124 61.1915 63.1825 63.4299C65.0525 65.6683 66.0807 68.401 66.267 71.6281C66.4458 74.726 65.5293 76.8918 63.5177 78.1254C61.5377 79.369 58.4104 79.3154 54.1356 77.9646Z" fill="#6B7478"/>
<path d="M83.8885 87.3662C80.3737 86.2555 77.5043 84.7469 75.2803 82.8402C73.0862 80.9113 71.4293 78.5977 70.3099 75.8995C69.1905 73.2013 68.5311 70.1258 68.3318 66.6728C68.1325 63.2199 68.4548 60.4545 69.2985 58.3767C70.1423 56.2988 71.5896 54.982 73.6403 54.4261C75.7209 53.8479 78.5186 54.1141 82.0334 55.2248C87.2897 56.8857 91.1221 59.459 93.5305 62.9447C95.937 66.3981 97.2902 70.7225 97.59 75.9181C97.8881 81.0814 96.9931 84.6954 94.905 86.7603C92.817 88.8252 89.1448 89.0271 83.8885 87.3662ZM83.4415 79.6212C85.4997 80.2716 86.8845 80.0281 87.5961 78.8906C88.3374 77.7308 88.6289 75.7794 88.4706 73.0365C88.3104 70.2612 87.7786 68.0497 86.8753 66.4019C86.0036 64.7641 84.5386 63.62 82.4804 62.9697C80.4222 62.3193 79.0215 62.5579 78.2783 63.6853C77.5668 64.8228 77.2911 66.7792 77.4513 69.5545C77.6096 72.2975 78.1255 74.504 78.9991 76.174C79.9025 77.8218 81.3833 78.9709 83.4415 79.6212Z" fill="#6B7478"/>
<path d="M115.522 97.3621C112.008 96.2514 109.138 94.7428 106.914 92.8361C104.72 90.9072 103.063 88.5936 101.944 85.8955C100.824 83.1973 100.165 80.1217 99.9656 76.6688C99.7663 73.2158 100.089 70.4504 100.932 68.3726C101.776 66.2947 103.223 64.9779 105.274 64.422C107.355 63.8438 110.152 64.11 113.667 65.2207C118.924 66.8816 122.756 69.4549 125.164 72.9406C127.571 76.394 128.924 80.7185 129.224 85.914C129.522 91.0773 128.627 94.6914 126.539 96.7562C124.451 98.8211 120.779 99.023 115.522 97.3621ZM115.075 89.6172C117.134 90.2675 118.518 90.024 119.23 88.8865C119.971 87.7267 120.263 85.7754 120.104 83.0324C119.944 80.2571 119.412 78.0456 118.509 76.3978C117.637 74.76 116.172 73.616 114.114 72.9656C112.056 72.3152 110.655 72.5538 109.912 73.6813C109.201 74.8188 108.925 76.7751 109.085 79.5504C109.243 82.2934 109.759 84.4999 110.633 86.1699C111.536 87.8177 113.017 88.9668 115.075 89.6172Z" fill="#6B7478"/>
<path fill-rule="evenodd" clip-rule="evenodd" d="M46.4195 68.0082C46.4992 68.0547 46.5796 68.101 46.6607 68.1473C47.6889 68.7256 48.7133 69.2394 49.7341 69.6887C50.7548 70.1379 51.6135 70.4726 52.3101 70.6928C54.0516 71.2431 55.3024 71.369 56.0624 71.0705C56.854 70.7821 57.2153 70.0409 57.1464 68.8469C57.0812 67.7174 56.7497 66.8206 56.1518 66.1564C55.552 65.46 54.4605 64.8616 52.8773 64.3613L43.5678 61.4197L43.3276 57.2568L43.3499 43.9099L63.1562 50.1685L62.9411 56.9438L51.3993 53.2967L51.3713 57.66L54.8386 58.7556C58.5434 59.9263 61.3308 61.6308 63.2009 63.8692C65.071 66.1076 66.0992 68.8403 66.2854 72.0673C66.4642 75.1653 65.5478 77.3311 63.5362 78.5647C61.5562 79.8082 58.4288 79.7546 54.1541 78.4039C53.2675 78.1237 52.2188 77.729 51.0081 77.2197C49.8309 76.7527 48.65 76.2211 47.4654 75.625C46.3105 75.0066 45.2945 74.3687 44.4172 73.7113L43.9953 66.4021C44.7122 66.9488 45.5203 67.4841 46.4195 68.0082ZM50.9269 79.5601C49.6739 79.062 48.4185 78.4963 47.1611 77.8636L47.1238 77.8448L47.0865 77.8249C45.812 77.1424 44.637 76.4101 43.5803 75.6183L42.1331 74.5338L41.4752 63.1346L41.3327 63.0895L40.9485 56.4332L40.9747 40.7832L65.6155 48.5694L65.2509 60.0498L58.8797 58.0366C61.1329 59.1977 63.117 60.694 64.7145 62.6062C65.1537 63.132 65.5531 63.6724 65.9143 64.2258C65.9223 61.4773 66.2912 59.1128 67.0726 57.1886C68.0826 54.7015 69.8513 53.0729 72.361 52.3911C74.9034 51.6863 78.1483 52.0544 81.9121 53.2437C87.5203 55.0158 92.1965 57.9465 95.2866 62.4149C96.5628 64.2476 97.5588 66.2289 98.3026 68.3377C98.4224 67.9374 98.5568 67.5529 98.7064 67.1845C99.7164 64.6974 101.485 63.0686 103.995 62.387C106.537 61.6822 109.782 62.0504 113.546 63.2397C119.154 65.0118 123.83 67.9425 126.92 72.4108C129.846 76.6123 131.299 81.5948 131.617 87.1037C131.934 92.5901 131.008 96.8127 128.478 99.315C125.799 101.964 121.291 101.995 115.68 100.222C111.922 99.0341 108.608 97.3475 105.896 95.0221L105.877 95.006L105.859 94.9896C103.186 92.6397 101.164 89.8041 99.8257 86.5777C99.6255 86.0951 99.4393 85.6053 99.2668 85.1085C98.7435 86.8132 97.9458 88.2293 96.8438 89.3191C94.1648 91.9684 89.6576 91.9987 84.0466 90.2257C80.2885 89.0382 76.9746 87.3516 74.2622 85.0262L74.2434 85.0101L74.2248 84.9937C71.6091 82.6942 69.6174 79.9294 68.2789 76.7886C67.7604 78.5545 66.7445 79.9342 65.2169 80.873C62.6548 82.4781 58.8528 82.2647 54.2938 80.8242C53.3079 80.5126 52.1816 80.0872 50.9269 79.5601ZM125.183 73.3799C122.774 69.8942 118.942 67.3209 113.686 65.6599C110.171 64.5493 107.373 64.2831 105.293 64.8612C103.242 65.4171 101.795 66.734 100.951 68.8118C100.107 70.8897 99.7848 73.6551 99.9841 77.108C100.183 80.561 100.843 83.6365 101.962 86.3347C103.082 89.0329 104.738 91.3465 106.933 93.2754C109.157 95.1821 112.026 96.6907 115.541 97.8013C120.797 99.4623 124.469 99.2603 126.557 97.1955C128.645 95.1306 129.54 91.5165 129.242 86.3533C128.942 81.1577 127.589 76.8333 125.183 73.3799ZM93.5489 63.3839C91.1405 59.8983 87.3082 57.325 82.0518 55.664C78.537 54.5534 75.7394 54.2872 73.6588 54.8653C71.608 55.4212 70.1608 56.7381 69.317 58.8159C68.4732 60.8938 68.151 63.6592 68.3503 67.1121C68.5496 70.565 69.2089 73.6406 70.3284 76.3388C71.4478 79.037 73.1046 81.3506 75.2988 83.2795C77.5228 85.1861 80.3922 86.6948 83.9069 87.8054C89.1633 89.4664 92.8355 89.2644 94.9235 87.1996C97.0115 85.1347 97.9065 81.5206 97.6085 76.3574C97.3086 71.1618 95.9554 66.8373 93.5489 63.3839ZM44.1611 63.9833L53.017 66.7816C53.6969 66.9965 54.1694 67.2017 54.4754 67.3694C54.5683 67.4203 54.6343 67.4615 54.6784 67.4909C54.7097 67.5934 54.7538 67.7884 54.7716 68.0964C54.7898 68.4134 54.7435 68.5378 54.7267 68.5722C54.7183 68.5896 54.7112 68.5972 54.7055 68.6023C54.6994 68.6078 54.6833 68.6205 54.6458 68.6342L54.6285 68.6405L54.6114 68.6472C54.4299 68.7185 53.7736 68.7791 52.1704 68.2725C51.606 68.0941 50.8531 67.8041 49.89 67.3802C48.9698 66.9751 48.0433 66.5108 47.11 65.9862C46.2274 65.4824 45.481 64.9898 44.8578 64.5146L44.1611 63.9833ZM85.495 77.4585L85.4989 77.4525C85.9561 76.7372 86.2623 75.2906 86.1142 72.7253C85.9635 70.115 85.4728 68.4346 84.9338 67.4513L84.9222 67.4301L84.9108 67.4089C84.6513 66.9213 84.1481 66.3062 82.6385 65.8292C81.1518 65.3595 80.6541 65.6469 80.4103 66.0056C79.9857 66.699 79.6945 68.144 79.8446 70.7442C79.9915 73.2899 80.4575 74.9888 80.9947 76.034C81.2911 76.5604 81.8439 77.1737 83.3202 77.6402C84.8298 78.1172 85.2794 77.8032 85.4912 77.4646L85.495 77.4585ZM78.2967 64.1246C79.0399 62.9971 80.4406 62.7586 82.4988 63.4089C84.557 64.0593 86.022 65.2034 86.8937 66.8412C87.7971 68.4889 88.3289 70.7005 88.489 73.4757C88.6474 76.2187 88.3559 78.1701 87.6145 79.3298C86.903 80.4673 85.5181 80.7109 83.4599 80.0605C81.4017 79.4101 79.9209 78.2611 79.0175 76.6133C78.144 74.9432 77.628 72.7367 77.4697 69.9937C77.3095 67.2185 77.5852 65.2621 78.2967 64.1246ZM117.129 87.4544L117.133 87.4484C117.59 86.7332 117.896 85.2865 117.748 82.7212C117.597 80.1109 117.107 78.4305 116.568 77.4472L116.556 77.4261L116.545 77.4048C116.285 76.9172 115.782 76.3022 114.272 75.8251C112.786 75.3554 112.288 75.6428 112.044 76.0014C111.62 76.6949 111.328 78.1398 111.478 80.7401C111.625 83.2858 112.091 84.9847 112.628 86.0299C112.925 86.5563 113.478 87.1696 114.954 87.6361C116.464 88.1131 116.913 87.7992 117.125 87.4605L117.129 87.4544ZM109.931 74.1205C110.674 72.993 112.074 72.7545 114.133 73.4049C116.191 74.0552 117.656 75.1993 118.528 76.8371C119.431 78.4849 119.963 80.6964 120.123 83.4716C120.281 86.2146 119.99 88.166 119.248 89.3257C118.537 90.4632 117.152 90.7068 115.094 90.0564C113.036 89.4061 111.555 88.257 110.651 86.6092C109.778 84.9392 109.262 82.7326 109.104 79.9897C108.943 77.2144 109.219 75.258 109.931 74.1205Z" fill="#E8ECEE"/>
<mask id="mask1_1996_303449" style="mask-type:alpha" maskUnits="userSpaceOnUse" x="65" y="84" width="115" height="116">
<path d="M134.058 165.557C154.984 146.098 162.631 117.288 172.721 91.4155L179.078 84L162.578 179.141L84.5776 199.089L65 184.978C73.2812 184.978 88.4328 189.53 96.0776 186.557C109.912 181.176 123.036 175.807 134.058 165.557Z" fill="#C4C4C4"/>
</mask>
<g mask="url(#mask1_1996_303449)">
<g style="mix-blend-mode:multiply" opacity="0.5">
<path d="M101.583 114.147C97.8151 116.17 94.1981 186.366 94.6126 189.063C95.027 191.76 156.254 171.661 157.629 166.353C159.005 161.046 175.319 95.2443 172.38 89.1753C169.441 83.1063 101.583 114.147 101.583 114.147Z" fill="#8F9AA0"/>
</g>
</g>
<path d="M144.184 130.472C144 131.176 143 131.176 142.816 130.472L141.821 126.684C141.756 126.436 141.564 126.244 141.316 126.179L137.528 125.184C136.824 125 136.824 124 137.528 123.816L141.316 122.821C141.564 122.756 141.756 122.564 141.821 122.316L142.816 118.528C143 117.824 144 117.824 144.184 118.528L145.179 122.316C145.244 122.564 145.436 122.756 145.684 122.821L149.472 123.816C150.176 124 150.176 125 149.472 125.184L145.684 126.179C145.436 126.244 145.244 126.436 145.179 126.684L144.184 130.472Z" fill="white"/>
</g>
<defs>
<linearGradient id="paint0_linear_1996_303449" x1="133.107" y1="84.7029" x2="133.107" y2="17.0026" gradientUnits="userSpaceOnUse">
<stop stop-color="#C0C4C6"/>
<stop offset="1" stop-color="#969DA1"/>
</linearGradient>
<linearGradient id="paint1_linear_1996_303449" x1="93.4898" y1="107.098" x2="94" y2="21" gradientUnits="userSpaceOnUse">
<stop stop-color="white"/>
<stop offset="1" stop-opacity="0"/>
</linearGradient>
<clipPath id="clip0_1996_303449">
<rect width="192" height="192" fill="white"/>
</clipPath>
</defs>
</svg>
