<svg width="192" height="192" viewBox="0 0 192 192" fill="none" xmlns="http://www.w3.org/2000/svg">
<g clip-path="url(#clip0_2067_307148)">
<path fill-rule="evenodd" clip-rule="evenodd" d="M67.8483 61.4477C72.7741 49.1673 85.9609 17.0907 89.3446 17.0026C91.731 16.9404 119.257 17.9981 143.32 18.9227C161.456 19.6196 177.625 20.2409 179.583 20.2502C179.793 20.2512 179.944 20.3894 180.041 20.6519C181.16 21.6666 183.942 24.4032 183.942 26.5278C183.942 28.701 167.71 69.5402 161.777 84.3942C162.571 94.4292 156.117 127.954 151.346 148.928C149.311 158.108 147.578 164.895 147.032 166.33C144.978 171.225 90.0246 191.455 81.6977 192.042C73.3708 192.629 29.5699 175.336 22.8255 169.354C21.9777 168.615 20.7155 163.677 19.3214 156.52V156.39C14.8001 133.615 8.63972 88.5432 9.0165 83.1051C9.42741 77.2359 47.0411 65.0779 67.8483 61.4477Z" fill="#EB8C00"/>
<g style="mix-blend-mode:hard-light" opacity="0.9">
<path d="M66 66.154C66 66.154 85.1811 17.1116 89.3661 17.0026C93.551 16.8936 175.049 20.2285 179.604 20.2503C184.16 20.2721 160.946 84.7029 160.946 84.7029C160.946 84.7029 124.72 68.944 66 66.154Z" fill="url(#paint0_linear_2067_307148)"/>
<path d="M179.604 20.2505C179.604 20.2505 183.964 23.8687 183.964 26.5279C183.964 29.1871 159.661 89.7381 159.661 89.7381L158.68 83.3953L179.604 20.2505Z" fill="#6B7478"/>
<g style="mix-blend-mode:multiply" opacity="0.2">
<path d="M70.3593 60.0299C69.8798 66.5689 99.0873 41.6336 125.243 32.3918C151.399 23.15 172.629 26.1797 173.392 23.1718C174.155 20.1639 97.3655 18.0278 92.2651 18.6381C87.1646 19.2484 71.3184 47.1481 70.3593 60.0299Z" fill="#8F9AA0"/>
</g>
<g style="mix-blend-mode:multiply" opacity="0.3">
<path d="M89.3652 17.0032C89.3652 17.0032 126.31 20.1201 142.287 21.3625C154.737 21.9568 167.214 21.5706 179.603 20.2073L89.3652 17.0032Z" fill="#8F9AA0"/>
</g>
<path d="M151.367 148.928C149.333 158.108 147.6 164.895 147.053 166.331C145 171.225 90.0461 191.455 81.7192 192.042C73.3923 192.629 29.5914 175.336 22.847 169.354C21.9992 168.615 20.737 163.677 19.3429 156.52V156.39C14.8215 133.615 8.66119 88.5433 9.03797 83.1052C9.54663 75.8398 67.0624 58.938 79.1382 60.5042C95.5659 62.6795 156.548 76.3619 161.107 81.7565C164.291 85.5415 156.755 125.24 151.367 148.928Z" fill="#C0C4C6"/>
<path d="M9.0005 83.0178C9.15121 86.7592 73.4114 112.797 86.3539 113.015C99.2964 113.232 154.891 87.3465 158.866 83.0178C162.841 78.689 100.69 63.4403 81.2296 60.5038C61.7688 57.5672 8.81211 78.7542 9.0005 83.0178Z" fill="#D6D6D6"/>
<g style="mix-blend-mode:multiply" opacity="0.5">
<path d="M91.0068 114.058C87.239 116.081 83.622 186.277 84.0364 188.974C84.4509 191.672 145.678 171.572 147.053 166.265C148.428 160.957 164.743 95.1554 161.804 89.0864C158.865 83.0175 91.0068 114.058 91.0068 114.058Z" fill="#8F9AA0"/>
</g>
<path d="M148.296 81.8434C148.861 86.7812 102.781 105.097 86.2967 107.098C79.8537 107.859 21.0193 86.5419 18.7774 81.8434C16.5355 77.1448 63.1247 63.1797 79.0626 63.1797C95.0005 63.1797 147.693 76.8403 148.296 81.8434Z" fill="url(#paint1_linear_2067_307148)"/>
<g style="mix-blend-mode:multiply" opacity="0.2">
<path d="M79.0057 63.1797V105.749C72.5628 106.533 21.019 86.5419 18.7206 81.8216C16.4222 77.1013 63.1244 63.1797 79.0057 63.1797Z" fill="#B3C1C8"/>
</g>
<g style="mix-blend-mode:multiply" opacity="0.5">
<path d="M151.368 148.929C149.334 158.109 147.6 164.896 147.054 166.331C145.001 171.226 90.0469 191.456 81.72 192.043C73.3931 192.63 29.5922 175.337 22.8478 169.355C22 168.615 20.7378 163.677 19.3438 156.521C19.7959 157.717 23.997 165.723 42.4405 176.165C62.1086 187.28 82.4925 188.845 84.0373 189.041C85.5821 189.237 137.182 172.574 143.738 165.57C147.337 161.676 149.861 154.541 151.368 148.929Z" fill="#50575C"/>
</g>
<path d="M130.737 126.431C130.538 127.19 129.462 127.19 129.263 126.431L128.192 122.351C128.122 122.085 127.915 121.878 127.648 121.808L123.569 120.737C122.81 120.538 122.81 119.462 123.569 119.263L127.648 118.192C127.915 118.122 128.122 117.915 128.192 117.648L129.263 113.569C129.462 112.81 130.538 112.81 130.737 113.569L131.808 117.648C131.878 117.915 132.085 118.122 132.352 118.192L136.431 119.263C137.19 119.462 137.19 120.538 136.431 120.737L132.352 121.808C132.085 121.878 131.878 122.085 131.808 122.351L130.737 126.431Z" fill="white"/>
<mask id="mask0_2067_307148" style="mask-type:alpha" maskUnits="userSpaceOnUse" x="12" y="110" width="77" height="42">
<path d="M16 136.5L12 110C23.3333 110.667 46.2 112 47 112C47.8 112 75 120.667 88.5 125L86 151.5L42.5 147.5L16 136.5Z" fill="#C4C4C4"/>
</mask>
<g mask="url(#mask0_2067_307148)">
<path d="M-0.110643 125.835C-0.110643 125.835 0.0562318 113.604 2.31088 108.912C4.56553 104.221 91.8526 133.455 91.8526 133.455L85.4993 154.87C85.4993 154.87 23.3932 139.435 -0.110643 125.835Z" fill="#E4E4E4"/>
<path d="M42.8225 138.575L44.16 134.089C44.16 134.089 41.2913 129.677 42.7265 127.279C43.045 126.794 43.4667 126.386 43.9615 126.084C44.4563 125.782 45.0118 125.593 45.5883 125.531C46.1647 125.469 46.7477 125.535 47.2955 125.724C47.8434 125.914 48.3424 126.223 48.7569 126.628C49.6846 128.079 46.9321 134.104 46.9321 134.104L48.7224 139.446L42.8225 138.575Z" fill="#6B7478"/>
<path d="M2.24702 108.892L9.31421 108.634C9.31421 108.634 66.1721 122.731 91.8328 133.449C91.7887 133.434 41.3061 121.917 2.24702 108.892Z" fill="#E8ECEE"/>
<g style="mix-blend-mode:multiply" opacity="0.2">
<path d="M102.258 138.42C102.543 136.059 68.0724 129.505 64.5105 129.427C60.9485 129.35 54.0596 141.981 55.9935 143.743C57.9274 145.505 96.9169 156.344 97.8391 155.944C98.7612 155.544 102.258 138.42 102.258 138.42Z" fill="#8F9AA0"/>
</g>
<path d="M5.81597 111.057C0.827242 110.766 10.8755 120.342 15.4011 121.926C19.9268 123.51 30.3164 118.457 30.3164 118.457L5.81597 111.057Z" fill="white"/>
</g>
<mask id="mask1_2067_307148" style="mask-type:alpha" maskUnits="userSpaceOnUse" x="55" y="84" width="115" height="116">
<path d="M124.058 165.557C144.984 146.098 152.631 117.288 162.721 91.4155L169.078 84L152.578 179.141L74.5776 199.089L55 184.978C63.2812 184.978 78.4328 189.53 86.0776 186.557C99.9123 181.176 113.036 175.807 124.058 165.557Z" fill="#C4C4C4"/>
</mask>
<g mask="url(#mask1_2067_307148)">
<g style="mix-blend-mode:multiply" opacity="0.5">
<path d="M91.583 114.147C87.8151 116.17 84.1981 186.366 84.6126 189.063C85.027 191.76 146.254 171.661 147.629 166.353C149.005 161.046 165.319 95.2443 162.38 89.1753C159.441 83.1063 91.583 114.147 91.583 114.147Z" fill="#8F9AA0"/>
</g>
</g>
</g>
<g style="mix-blend-mode:color-burn" opacity="0.5">
<path d="M66 66.154C66 66.154 85.1811 17.1116 89.3661 17.0026C93.551 16.8936 175.049 20.2285 179.604 20.2503C184.16 20.2721 160.946 84.7029 160.946 84.7029C160.946 84.7029 124.72 68.944 66 66.154Z" fill="url(#paint2_linear_2067_307148)"/>
<path d="M179.604 20.2505C179.604 20.2505 183.964 23.8687 183.964 26.5279C183.964 29.1871 159.661 89.7381 159.661 89.7381L158.68 83.3953L179.604 20.2505Z" fill="#6B7478"/>
<g style="mix-blend-mode:multiply" opacity="0.2">
<path d="M70.3593 60.0299C69.8798 66.5689 99.0873 41.6336 125.243 32.3918C151.399 23.15 172.629 26.1797 173.392 23.1718C174.155 20.1639 97.3655 18.0278 92.2651 18.6381C87.1646 19.2484 71.3184 47.1481 70.3593 60.0299Z" fill="#8F9AA0"/>
</g>
<g style="mix-blend-mode:multiply" opacity="0.3">
<path d="M89.3652 17.0032C89.3652 17.0032 126.31 20.1201 142.287 21.3625C154.737 21.9568 167.214 21.5706 179.603 20.2073L89.3652 17.0032Z" fill="#8F9AA0"/>
</g>
<path d="M151.367 148.928C149.333 158.108 147.6 164.895 147.053 166.331C145 171.225 90.0461 191.455 81.7192 192.042C73.3923 192.629 29.5914 175.336 22.847 169.354C21.9992 168.615 20.737 163.677 19.3429 156.52V156.39C14.8215 133.615 8.66119 88.5433 9.03797 83.1052C9.54663 75.8398 67.0624 58.938 79.1382 60.5042C95.5659 62.6795 156.548 76.3619 161.107 81.7565C164.291 85.5415 156.755 125.24 151.367 148.928Z" fill="#C0C4C6"/>
<path d="M9.0005 83.0178C9.15121 86.7592 73.4114 112.797 86.3539 113.015C99.2964 113.232 154.891 87.3465 158.866 83.0178C162.841 78.689 100.69 63.4403 81.2296 60.5038C61.7688 57.5672 8.81211 78.7542 9.0005 83.0178Z" fill="#D6D6D6"/>
<g style="mix-blend-mode:multiply" opacity="0.5">
<path d="M91.0068 114.058C87.239 116.081 83.622 186.277 84.0364 188.974C84.4509 191.672 145.678 171.572 147.053 166.265C148.428 160.957 164.743 95.1554 161.804 89.0864C158.865 83.0175 91.0068 114.058 91.0068 114.058Z" fill="#8F9AA0"/>
</g>
<path d="M148.296 81.8434C148.861 86.7812 102.781 105.097 86.2967 107.098C79.8537 107.859 21.0193 86.5419 18.7774 81.8434C16.5355 77.1448 63.1247 63.1797 79.0626 63.1797C95.0005 63.1797 147.693 76.8403 148.296 81.8434Z" fill="url(#paint3_linear_2067_307148)"/>
<g style="mix-blend-mode:multiply" opacity="0.2">
<path d="M79.0057 63.1797V105.749C72.5628 106.533 21.019 86.5419 18.7206 81.8216C16.4222 77.1013 63.1244 63.1797 79.0057 63.1797Z" fill="#B3C1C8"/>
</g>
<g style="mix-blend-mode:multiply" opacity="0.5">
<path d="M151.368 148.929C149.334 158.109 147.6 164.896 147.054 166.331C145.001 171.226 90.0469 191.456 81.72 192.043C73.3931 192.63 29.5922 175.337 22.8478 169.355C22 168.615 20.7378 163.677 19.3438 156.521C19.7959 157.717 23.997 165.723 42.4405 176.165C62.1086 187.28 82.4925 188.845 84.0373 189.041C85.5821 189.237 137.182 172.574 143.738 165.57C147.337 161.676 149.861 154.541 151.368 148.929Z" fill="#50575C"/>
</g>
<path d="M130.737 126.431C130.538 127.19 129.462 127.19 129.263 126.431L128.192 122.351C128.122 122.085 127.915 121.878 127.648 121.808L123.569 120.737C122.81 120.538 122.81 119.462 123.569 119.263L127.648 118.192C127.915 118.122 128.122 117.915 128.192 117.648L129.263 113.569C129.462 112.81 130.538 112.81 130.737 113.569L131.808 117.648C131.878 117.915 132.085 118.122 132.352 118.192L136.431 119.263C137.19 119.462 137.19 120.538 136.431 120.737L132.352 121.808C132.085 121.878 131.878 122.085 131.808 122.351L130.737 126.431Z" fill="white"/>
<mask id="mask2_2067_307148" style="mask-type:alpha" maskUnits="userSpaceOnUse" x="12" y="110" width="77" height="42">
<path d="M16 136.5L12 110C23.3333 110.667 46.2 112 47 112C47.8 112 75 120.667 88.5 125L86 151.5L42.5 147.5L16 136.5Z" fill="#C4C4C4"/>
</mask>
<g mask="url(#mask2_2067_307148)">
<path d="M-0.110643 125.835C-0.110643 125.835 0.0562318 113.604 2.31088 108.912C4.56553 104.221 91.8526 133.455 91.8526 133.455L85.4993 154.87C85.4993 154.87 23.3932 139.435 -0.110643 125.835Z" fill="#E4E4E4"/>
<path d="M42.8225 138.575L44.16 134.089C44.16 134.089 41.2913 129.677 42.7265 127.279C43.045 126.794 43.4667 126.386 43.9615 126.084C44.4563 125.782 45.0118 125.593 45.5883 125.531C46.1647 125.469 46.7477 125.535 47.2955 125.724C47.8434 125.914 48.3424 126.223 48.7569 126.628C49.6846 128.079 46.9321 134.104 46.9321 134.104L48.7224 139.446L42.8225 138.575Z" fill="#6B7478"/>
<path d="M2.24702 108.892L9.31421 108.634C9.31421 108.634 66.1721 122.731 91.8328 133.449C91.7887 133.434 41.3061 121.917 2.24702 108.892Z" fill="#E8ECEE"/>
<g style="mix-blend-mode:multiply" opacity="0.2">
<path d="M102.258 138.42C102.543 136.059 68.0724 129.505 64.5105 129.427C60.9485 129.35 54.0596 141.981 55.9935 143.743C57.9274 145.505 96.9169 156.344 97.8391 155.944C98.7612 155.544 102.258 138.42 102.258 138.42Z" fill="#8F9AA0"/>
</g>
<path d="M5.81597 111.057C0.827242 110.766 10.8755 120.342 15.4011 121.926C19.9268 123.51 30.3164 118.457 30.3164 118.457L5.81597 111.057Z" fill="white"/>
</g>
<mask id="mask3_2067_307148" style="mask-type:alpha" maskUnits="userSpaceOnUse" x="55" y="84" width="115" height="116">
<path d="M124.058 165.557C144.984 146.098 152.631 117.288 162.721 91.4155L169.078 84L152.578 179.141L74.5776 199.089L55 184.978C63.2812 184.978 78.4328 189.53 86.0776 186.557C99.9123 181.176 113.036 175.807 124.058 165.557Z" fill="#C4C4C4"/>
</mask>
<g mask="url(#mask3_2067_307148)">
<g style="mix-blend-mode:multiply" opacity="0.5">
<path d="M91.583 114.147C87.8151 116.17 84.1981 186.366 84.6126 189.063C85.027 191.76 146.254 171.661 147.629 166.353C149.005 161.046 165.319 95.2443 162.38 89.1753C159.441 83.1063 91.583 114.147 91.583 114.147Z" fill="#8F9AA0"/>
</g>
</g>
</g>
<g style="mix-blend-mode:color">
<path fill-rule="evenodd" clip-rule="evenodd" d="M67.8483 61.4477C72.7741 49.1673 85.9609 17.0907 89.3446 17.0026C91.731 16.9404 119.257 17.9981 143.32 18.9227C161.456 19.6196 177.625 20.2409 179.583 20.2502C179.793 20.2512 179.944 20.3894 180.041 20.6519C181.16 21.6666 183.942 24.4032 183.942 26.5278C183.942 28.701 167.71 69.5402 161.777 84.3942C162.571 94.4292 156.117 127.954 151.346 148.928C149.311 158.108 147.578 164.895 147.032 166.33C144.978 171.225 90.0246 191.455 81.6977 192.042C73.3708 192.629 29.5699 175.336 22.8255 169.354C21.9777 168.615 20.7155 163.677 19.3214 156.52V156.39C14.8001 133.615 8.63972 88.5432 9.0165 83.1051C9.42741 77.2359 47.0411 65.0779 67.8483 61.4477Z" fill="url(#paint4_linear_2067_307148)"/>
</g>
<path d="M56.192 84.0146L55.9812 58.3137L50.7218 57.6345L50.6645 50.6393L63.9132 52.4961L64.1912 86.3841L56.192 84.0146Z" fill="#8D4B00"/>
<path d="M83.1103 92.9186C79.533 91.859 76.6458 90.3318 74.4486 88.337C72.2515 86.3422 70.6454 83.9022 69.6305 81.0171C68.6484 78.1072 68.1422 74.8041 68.1119 71.1079C68.0815 67.4116 68.536 64.4104 69.4753 62.1041C70.4478 59.8076 72.0215 58.3095 74.1966 57.6098C76.3714 56.8756 79.2474 57.0383 82.8246 58.098C86.435 59.1674 89.3224 60.7119 91.4867 62.7314C93.6839 64.7262 95.2899 67.1662 96.3049 70.0513C97.3198 72.9365 97.8424 76.2272 97.8728 79.9234C97.9031 83.6197 97.4322 86.6333 96.46 88.9643C95.4876 91.2608 93.9138 92.7589 91.7388 93.4586C89.5968 94.168 86.7207 93.9881 83.1103 92.9186ZM83.0516 85.7679C85.569 86.5136 87.3008 86.1651 88.2472 84.7224C89.2265 83.255 89.7023 80.8459 89.6748 77.4951C89.6474 74.1443 89.1297 71.4581 88.1218 69.4366C87.1468 67.3903 85.4006 65.9943 82.8833 65.2486C80.366 64.503 78.6177 64.8638 77.6384 66.3313C76.692 67.7739 76.2326 70.1707 76.2601 73.5215C76.2876 76.8723 76.7888 79.5708 77.7638 81.6171C78.7717 83.6387 80.5343 85.0223 83.0516 85.7679Z" fill="#8D4B00"/>
<path fill-rule="evenodd" clip-rule="evenodd" d="M52.3898 86.8784L52.1847 61.8701L46.9254 61.1909L46.8012 46.058L67.7107 48.9885L67.7723 56.5038C68.9396 55.1534 70.4166 54.1711 72.1993 53.5942C75.1595 52.6011 78.7894 52.9124 82.7922 54.0981C86.8106 55.2884 90.4659 57.1285 93.4393 59.8925C96.3953 62.5851 98.5406 65.887 99.854 69.6206C101.103 73.1724 101.675 77.0106 101.708 81.0595C101.742 85.1109 101.23 88.6368 100.04 91.4897L100.037 91.4972L100.033 91.5047C98.7725 94.4827 96.6649 96.529 93.7292 97.4767C90.7915 98.4458 87.1564 98.1072 83.1434 96.9185C79.1463 95.7345 75.5117 93.9133 72.5261 91.2026C70.717 89.5602 69.2105 87.6902 68.0113 85.633L68.0596 91.52L52.3898 86.8784ZM91.7391 93.4586C93.9142 92.7589 95.4879 91.2608 96.4603 88.9643C97.4325 86.6333 97.9034 83.6197 97.8731 79.9235C97.8428 76.2272 97.3201 72.9365 96.3052 70.0513C95.2902 67.1662 93.6842 64.7262 91.487 62.7314C89.3227 60.7119 86.4354 59.1674 82.825 58.098C79.2477 57.0383 76.3717 56.8756 74.1969 57.6098C72.0218 58.3095 70.4481 59.8076 69.4757 62.1041C68.5364 64.4104 68.0819 67.4116 68.1122 71.1079C68.1425 74.8041 68.6487 78.1072 69.6308 81.0171C70.6458 83.9022 72.2518 86.3422 74.449 88.337C76.6461 90.3318 79.5333 91.859 83.1106 92.9186C86.721 93.9881 89.5972 94.1681 91.7391 93.4586ZM88.1222 69.4366C89.13 71.4581 89.6477 74.1443 89.6752 77.4951C89.7027 80.8459 89.2268 83.255 88.2475 84.7224C87.3012 86.1651 85.5693 86.5136 83.0519 85.768C80.5346 85.0223 78.772 83.6387 77.7642 81.6171C76.7891 79.5708 76.2879 76.8723 76.2604 73.5215C76.2329 70.1707 76.6924 67.774 77.6388 66.3313C78.618 64.8638 80.3663 64.503 82.8836 65.2486C85.401 65.9943 87.1471 67.3903 88.1222 69.4366ZM80.9691 69.3266C80.5135 70.0261 80.0706 71.5973 80.0957 74.6575C80.1204 77.6742 80.5784 79.5449 81.061 80.5832C81.176 80.8053 81.5108 81.3213 83.0191 81.7681C83.8753 82.0217 84.3396 82.0105 84.5603 81.9661C84.7348 81.931 84.8253 81.8674 84.9134 81.7329L84.9193 81.724L84.9252 81.7152C85.4095 80.9894 85.8649 79.4045 85.8399 76.3591C85.8148 73.3049 85.3285 71.4796 84.8503 70.5203L84.8269 70.4734L84.8044 70.4262C84.8018 70.4208 84.7991 70.415 84.7962 70.4087C84.7133 70.2308 84.4702 69.7088 82.9164 69.2485C81.3528 68.7854 81.0782 69.1631 80.9691 69.3266ZM55.9815 58.3137L56.1923 84.0146L64.1915 86.3841L63.9135 52.4961L50.6648 50.6393L50.7222 57.6345L55.9815 58.3137Z" fill="#FDE5B1"/>
</g>
<defs>
<linearGradient id="paint0_linear_2067_307148" x1="123.107" y1="84.7029" x2="123.107" y2="17.0026" gradientUnits="userSpaceOnUse">
<stop stop-color="#C0C4C6"/>
<stop offset="1" stop-color="#969DA1"/>
</linearGradient>
<linearGradient id="paint1_linear_2067_307148" x1="83.4898" y1="107.098" x2="84" y2="21" gradientUnits="userSpaceOnUse">
<stop stop-color="white"/>
<stop offset="1" stop-opacity="0"/>
</linearGradient>
<linearGradient id="paint2_linear_2067_307148" x1="123.107" y1="84.7029" x2="123.107" y2="17.0026" gradientUnits="userSpaceOnUse">
<stop stop-color="#C0C4C6"/>
<stop offset="1" stop-color="#969DA1"/>
</linearGradient>
<linearGradient id="paint3_linear_2067_307148" x1="83.4898" y1="107.098" x2="84" y2="21" gradientUnits="userSpaceOnUse">
<stop stop-color="white"/>
<stop offset="1" stop-opacity="0"/>
</linearGradient>
<linearGradient id="paint4_linear_2067_307148" x1="-8.00002" y1="81.5" x2="160.491" y2="173.752" gradientUnits="userSpaceOnUse">
<stop stop-color="#FFDB44"/>
<stop offset="1" stop-color="#FD9B13" stop-opacity="0.08"/>
</linearGradient>
<clipPath id="clip0_2067_307148">
<rect width="192" height="192" fill="white"/>
</clipPath>
</defs>
</svg>
