<svg xmlns="http://www.w3.org/2000/svg" width="192" height="192" fill="none" viewBox="0 0 192 192"><g clip-path="url(#clip0_1996_303651)"><path fill="#E86A0F" fill-rule="evenodd" d="M19.0005 82.7922C19.0023 82.8377 19.0136 82.8865 19.0342 82.9385C18.7045 88.6347 24.8374 133.469 29.3429 156.164V156.295C30.737 163.451 31.9992 168.389 32.847 169.129C32.9047 169.18 32.9652 169.232 33.0283 169.285C40.3365 175.405 83.4641 192.4 91.72 191.817C98.5842 191.333 137.133 177.501 151.614 169.915C154.432 168.495 156.339 167.268 156.903 166.37C156.968 166.277 157.019 166.189 157.054 166.106C157.6 164.67 159.334 157.883 161.368 148.704L161.363 148.725L161.367 148.703C161.908 146.327 162.47 143.791 163.04 141.146C167.91 120.003 173.649 92.6695 171.804 88.8608L171.799 88.8498L171.79 88.8337L171.782 88.8182C171.993 84.9927 171.816 82.373 171.107 81.5309C168.346 78.2639 144.892 71.9573 123.172 67.0078C110.391 63.9073 98.1283 61.3192 91.2296 60.2782C81.0999 58.7496 61.895 63.7571 45.8335 69.5117C32.4748 73.8687 20.9461 78.8203 19.2493 82.1716C19.0777 82.406 18.9926 82.6139 19.0005 82.7922Z" clip-rule="evenodd"/><g style="mix-blend-mode:hard-light" opacity=".9"><g style="mix-blend-mode:multiply" opacity=".3"><path fill="#8F9AA0" d="M99.3652 17.0029C99.3652 17.0029 136.31 20.1198 152.287 21.3623C164.737 21.9566 177.214 21.5703 189.603 20.207L99.3652 17.0029Z"/></g><path fill="#C0C4C6" d="M161.367 148.928C159.333 158.108 157.6 164.895 157.053 166.331C155 171.225 100.046 191.455 91.7192 192.042C83.3923 192.629 39.5914 175.336 32.847 169.354C31.9992 168.615 30.737 163.677 29.3429 156.52V156.39C24.8215 133.615 18.6612 88.5433 19.038 83.1052C19.5466 75.8398 77.0624 58.938 89.1382 60.5042C105.566 62.6795 166.548 76.3619 171.107 81.7565C174.291 85.5415 166.755 125.24 161.367 148.928Z"/><path fill="#D6D6D6" d="M19.0005 83.0178C19.1512 86.7592 83.4114 112.797 96.3539 113.015C109.296 113.232 164.891 87.3465 168.866 83.0178C172.841 78.689 110.69 63.4403 91.2296 60.5038C71.7688 57.5672 18.8121 78.7542 19.0005 83.0178Z"/><g style="mix-blend-mode:multiply" opacity=".5"><path fill="#8F9AA0" d="M101.007 114.058C97.239 116.081 93.622 186.277 94.0364 188.974C94.4509 191.672 155.678 171.572 157.053 166.265C158.428 160.957 174.743 95.1554 171.804 89.0864C168.865 83.0175 101.007 114.058 101.007 114.058Z"/></g><mask id="mask0_1996_303651" width="115" height="116" x="64" y="83" maskUnits="userSpaceOnUse" style="mask-type:alpha"><path fill="#C4C4C4" d="M133.48 165.468C154.406 146.009 162.052 117.199 172.143 91.3266L178.5 83.9111L162 179.052L83.9995 199L64.4219 184.89C72.7031 184.89 87.8547 189.441 95.4995 186.468C109.334 181.088 122.458 175.718 133.48 165.468Z"/></mask><g mask="url(#mask0_1996_303651)"><g style="mix-blend-mode:multiply" opacity=".5"><path fill="#8F9AA0" d="M101.007 114.058C97.239 116.081 93.622 186.277 94.0364 188.974C94.4509 191.672 155.678 171.572 157.053 166.265C158.428 160.957 174.743 95.1554 171.804 89.0864C168.865 83.0175 101.007 114.058 101.007 114.058Z"/></g></g><path fill="url(#paint0_linear_1996_303651)" d="M158.296 81.8434C158.861 86.7812 112.781 105.097 96.2967 107.098C89.8537 107.859 31.0193 86.5419 28.7774 81.8434C26.5355 77.1448 73.1247 63.1797 89.0626 63.1797C105 63.1797 157.693 76.8403 158.296 81.8434Z"/><g style="mix-blend-mode:multiply" opacity=".2"><path fill="#B3C1C8" d="M89.0067 63.1797V105.749C82.5637 106.533 31.0199 86.5419 28.7216 81.8216C26.4232 77.1013 73.1254 63.1797 89.0067 63.1797Z"/></g><g style="mix-blend-mode:multiply" opacity=".5"><path fill="#6B7478" d="M161.368 148.929C159.334 158.109 157.6 164.896 157.054 166.331C155.001 171.226 100.047 191.456 91.72 192.043C83.3931 192.63 39.5922 175.337 32.8478 169.355C32 168.615 30.7378 163.677 29.3438 156.521C29.7959 157.717 33.997 165.723 52.4405 176.165C72.1086 187.28 92.4925 188.845 94.0373 189.041C95.5821 189.237 147.182 172.574 153.738 165.57C157.337 161.676 159.861 154.541 161.368 148.929Z"/></g><path fill="#fff" d="M128.606 148.147C128.307 149.284 126.693 149.284 126.394 148.147L124.788 142.027C124.683 141.628 124.372 141.317 123.973 141.212L117.853 139.606C116.716 139.307 116.716 137.693 117.853 137.394L123.973 135.788C124.372 135.683 124.683 135.372 124.788 134.973L126.394 128.853C126.693 127.716 128.307 127.716 128.606 128.853L130.212 134.973C130.317 135.372 130.628 135.683 131.027 135.788L137.147 137.394C138.284 137.693 138.284 139.307 137.147 139.606L131.027 141.212C130.628 141.317 130.317 141.628 130.212 142.027L128.606 148.147Z"/><path fill="#6B7478" d="M53.6854 165.974L53.3489 124.955L44.5572 123.234L44.4448 109.532L68.6842 114.373L69.1524 171.451L53.6854 165.974Z"/><path fill="#fff" fill-rule="evenodd" d="M51.3162 167.663L50.983 127.051L42.1914 125.33L42.0368 106.492L71.051 112.287L71.5641 174.833L51.3162 167.663ZM53.3493 124.955L53.6858 165.974L69.1529 171.451L68.6846 114.373L44.4453 109.532L44.5577 123.234L53.3493 124.955Z" clip-rule="evenodd"/></g><g style="mix-blend-mode:color-burn" opacity=".5"><g style="mix-blend-mode:multiply" opacity=".3"><path fill="#8F9AA0" d="M99.3652 17.0029C99.3652 17.0029 136.31 20.1198 152.287 21.3623C164.737 21.9566 177.214 21.5703 189.603 20.207L99.3652 17.0029Z"/></g><path fill="#C0C4C6" d="M161.367 148.928C159.333 158.108 157.6 164.895 157.053 166.331C155 171.225 100.046 191.455 91.7192 192.042C83.3923 192.629 39.5914 175.336 32.847 169.354C31.9992 168.615 30.737 163.677 29.3429 156.52V156.39C24.8215 133.615 18.6612 88.5433 19.038 83.1052C19.5466 75.8398 77.0624 58.938 89.1382 60.5042C105.566 62.6795 166.548 76.3619 171.107 81.7565C174.291 85.5415 166.755 125.24 161.367 148.928Z"/><path fill="#D6D6D6" d="M19.0005 83.0178C19.1512 86.7592 83.4114 112.797 96.3539 113.015C109.296 113.232 164.891 87.3465 168.866 83.0178C172.841 78.689 110.69 63.4403 91.2296 60.5038C71.7688 57.5672 18.8121 78.7542 19.0005 83.0178Z"/><g style="mix-blend-mode:multiply" opacity=".5"><path fill="#8F9AA0" d="M101.007 114.058C97.239 116.081 93.622 186.277 94.0364 188.974C94.4509 191.672 155.678 171.572 157.053 166.265C158.428 160.957 174.743 95.1554 171.804 89.0864C168.865 83.0175 101.007 114.058 101.007 114.058Z"/></g><mask id="mask1_1996_303651" width="115" height="116" x="64" y="83" maskUnits="userSpaceOnUse" style="mask-type:alpha"><path fill="#C4C4C4" d="M133.48 165.468C154.406 146.009 162.052 117.199 172.143 91.3266L178.5 83.9111L162 179.052L83.9995 199L64.4219 184.89C72.7031 184.89 87.8547 189.441 95.4995 186.468C109.334 181.088 122.458 175.718 133.48 165.468Z"/></mask><g mask="url(#mask1_1996_303651)"><g style="mix-blend-mode:multiply" opacity=".5"><path fill="#8F9AA0" d="M101.007 114.058C97.239 116.081 93.622 186.277 94.0364 188.974C94.4509 191.672 155.678 171.572 157.053 166.265C158.428 160.957 174.743 95.1554 171.804 89.0864C168.865 83.0175 101.007 114.058 101.007 114.058Z"/></g></g><path fill="url(#paint1_linear_1996_303651)" d="M158.296 81.8434C158.861 86.7812 112.781 105.097 96.2967 107.098C89.8537 107.859 31.0193 86.5419 28.7774 81.8434C26.5355 77.1448 73.1247 63.1797 89.0626 63.1797C105 63.1797 157.693 76.8403 158.296 81.8434Z"/><g style="mix-blend-mode:multiply" opacity=".2"><path fill="#B3C1C8" d="M89.0067 63.1797V105.749C82.5637 106.533 31.0199 86.5419 28.7216 81.8216C26.4232 77.1013 73.1254 63.1797 89.0067 63.1797Z"/></g><g style="mix-blend-mode:multiply" opacity=".5"><path fill="#6B7478" d="M161.368 148.929C159.334 158.109 157.6 164.896 157.054 166.331C155.001 171.226 100.047 191.456 91.72 192.043C83.3931 192.63 39.5922 175.337 32.8478 169.355C32 168.615 30.7378 163.677 29.3438 156.521C29.7959 157.717 33.997 165.723 52.4405 176.165C72.1086 187.28 92.4925 188.845 94.0373 189.041C95.5821 189.237 147.182 172.574 153.738 165.57C157.337 161.676 159.861 154.541 161.368 148.929Z"/></g><path fill="#fff" d="M128.606 148.147C128.307 149.284 126.693 149.284 126.394 148.147L124.788 142.027C124.683 141.628 124.372 141.317 123.973 141.212L117.853 139.606C116.716 139.307 116.716 137.693 117.853 137.394L123.973 135.788C124.372 135.683 124.683 135.372 124.788 134.973L126.394 128.853C126.693 127.716 128.307 127.716 128.606 128.853L130.212 134.973C130.317 135.372 130.628 135.683 131.027 135.788L137.147 137.394C138.284 137.693 138.284 139.307 137.147 139.606L131.027 141.212C130.628 141.317 130.317 141.628 130.212 142.027L128.606 148.147Z"/><path fill="#6B7478" d="M53.6854 165.974L53.3489 124.955L44.5572 123.234L44.4448 109.532L68.6842 114.373L69.1524 171.451L53.6854 165.974Z"/><path fill="#fff" fill-rule="evenodd" d="M51.3162 167.663L50.983 127.051L42.1914 125.33L42.0368 106.492L71.051 112.287L71.5641 174.833L51.3162 167.663ZM53.3493 124.955L53.6858 165.974L69.1529 171.451L68.6846 114.373L44.4453 109.532L44.5577 123.234L53.3493 124.955Z" clip-rule="evenodd"/></g><g style="mix-blend-mode:color"><path fill="url(#paint2_linear_1996_303651)" fill-rule="evenodd" d="M19.0005 82.7922C19.0023 82.8377 19.0136 82.8865 19.0342 82.9385C18.7045 88.6347 24.8374 133.469 29.3429 156.164V156.295C30.737 163.451 31.9992 168.389 32.847 169.129C32.9047 169.18 32.9652 169.232 33.0283 169.285C40.3365 175.405 83.4641 192.4 91.72 191.817C98.5842 191.333 137.133 177.501 151.614 169.915C154.432 168.495 156.339 167.268 156.903 166.37C156.968 166.277 157.019 166.189 157.054 166.106C157.6 164.67 159.334 157.883 161.368 148.704L161.363 148.725L161.367 148.703C161.908 146.327 162.47 143.791 163.04 141.146C167.91 120.002 173.649 92.6694 171.804 88.8608L171.796 88.8449L171.791 88.834L171.782 88.8182C171.993 84.9927 171.816 82.373 171.107 81.5309C168.346 78.2639 144.892 71.9573 123.172 67.0078C110.391 63.9073 98.1283 61.3192 91.2296 60.2782C81.0999 58.7496 61.895 63.7571 45.8335 69.5117C32.4748 73.8687 20.9461 78.8203 19.2493 82.1716C19.0777 82.406 18.9926 82.6139 19.0005 82.7922Z" clip-rule="evenodd"/></g><path fill="#FFC700" d="M98.7992 41.0933C94.7157 33.6439 92.4499 25.3279 92.4499 25.3279C92.4499 25.3279 90.4504 33.4274 86.6683 40.8743C85.5864 46.771 81.368 51.6171 75.5985 53.5331C68.2392 55.977 60.9327 52.7979 58.207 45.3001C55.2617 42.5038 52.8977 39.4639 51.7077 37.1183L51.7652 41.9195C51.945 56.9172 55.6954 71.5646 62.5813 84.1618L123.72 83.429C130.302 70.6705 133.7 55.9374 133.521 40.9396L133.463 36.1384C132.352 38.4639 130.131 41.4828 127.335 44.2997C124.843 51.9821 117.561 55.4038 110.089 53.1197C104.396 51.3793 100.122 46.7942 98.7992 41.0933Z"/><path fill="#FFD800" fill-rule="evenodd" d="M93.8973 30.1029C94.9573 33.172 96.6432 37.519 98.8799 41.6033C99.8416 45.7511 102.378 49.3029 105.888 51.5808L102.797 83.6421L93.285 83.6796L68.8831 84.1684C63.6536 70.3936 61.717 61.7446 59.4579 47.541C62.5964 53.6894 69.231 56.1514 75.9097 53.9314C81.6219 52.0326 85.7983 47.23 86.8693 41.3862C88.9134 37.3575 90.4315 33.1361 91.3888 30.1329L93.8973 30.1029Z" clip-rule="evenodd"/><path fill="#FFE971" fill-rule="evenodd" d="M88.7801 83.77L85.4538 45.6586C83.6811 49.2416 80.6183 52.0985 76.7832 53.6145C77.956 62.9378 79.5888 71.4579 82.9639 83.8865L88.7801 83.77ZM79.1858 83.9622C76.4827 72.5634 74.7917 64.2144 73.5742 54.5201C70.6702 55.0193 67.8524 54.6402 65.412 53.4669C66.7972 63.2909 69.1486 75.6946 72.8893 84.0883L79.1858 83.9622Z" clip-rule="evenodd"/><path fill="#FFE971" fill-rule="evenodd" d="M87.5992 38.7975C87.3607 39.3033 87.1139 39.8088 86.8589 40.3113C85.7879 46.1551 81.6115 50.9578 75.8993 52.8565C68.613 55.2786 61.379 52.1278 58.6803 44.6971C58.5381 44.562 58.3973 44.4263 58.2579 44.2901C58.2978 45.0991 58.4113 45.9082 58.6018 46.7099C60.3251 53.9635 67.6973 57.8575 76.0801 55.071C83.8368 52.4926 88.3359 45.5647 87.5992 38.7975Z" clip-rule="evenodd"/><path fill="#FFD800" fill-rule="evenodd" d="M98.1252 38.6727C98.3755 39.172 98.634 39.6709 98.9006 40.1665C100.111 45.983 104.402 50.6842 110.158 52.4455C117.5 54.6922 124.656 51.3689 127.176 43.8757C127.316 43.7368 127.453 43.5974 127.59 43.4576C127.569 44.2676 127.475 45.0797 127.304 45.8861C125.755 53.1789 118.478 57.2485 110.031 54.6637C102.216 52.2722 97.5519 45.4551 98.1252 38.6727Z" clip-rule="evenodd"/><path fill="#FFC700" d="M105.389 35.3813C104.973 41.2738 99.1508 44.9234 92.3212 44.4406C85.4916 43.9579 80.2407 39.5256 80.6572 33.6331C81.0737 27.7407 86.8959 24.0911 93.7255 24.5738C100.555 25.0565 105.806 29.4889 105.389 35.3813Z"/><path fill="#FFD800" d="M100.262 28.829C100.912 32.1854 96.4461 30.5741 91.5071 31.5303C86.5682 32.4864 83.0265 35.648 82.3767 32.2916C81.7269 28.9351 85.285 25.8582 90.2239 24.902C95.1628 23.9459 99.6122 25.4725 100.262 28.829Z"/><path fill="#FFAF00" d="M88.1237 41.6352C87.2776 39.6857 90.9981 40.5632 95.2716 39.5576C99.5451 38.5521 102.366 34.3947 102.985 37.0267C103.605 39.6588 100.562 42.2622 96.2887 43.2677C92.0152 44.2733 88.9699 43.5847 88.1237 41.6352Z"/><path fill="#FEED8D" d="M95.2803 27.5411C95.5881 29.131 93.0652 28.4466 90.2229 28.9969C87.3807 29.5471 85.2954 31.1236 84.9876 29.5337C84.6798 27.9438 86.7728 26.4074 89.6151 25.8572C92.4573 25.3069 94.9725 25.9512 95.2803 27.5411Z"/><path fill="#FFC700" d="M139.935 38.5508C139.987 42.8834 136.207 45.9004 131.501 45.9568C126.795 46.0132 122.944 43.0877 122.892 38.755C122.84 34.4224 126.62 31.4054 131.326 31.349C136.032 31.2926 139.883 34.2182 139.935 38.5508Z"/><path fill="#FFD800" d="M136.145 34.1754C136.785 36.4561 133.609 35.5985 130.253 36.541C126.897 37.4834 124.632 39.869 123.992 37.5884C123.351 35.3077 125.633 32.9796 128.989 32.0372C132.344 31.0947 135.504 31.8947 136.145 34.1754Z"/><path fill="#FFAF00" d="M128.475 44.1457C127.78 42.8479 130.399 43.2413 133.292 42.3027C136.186 41.3641 137.896 38.3321 138.474 40.1143C139.053 41.8964 137.1 43.868 134.207 44.8066C131.313 45.7451 129.171 45.4436 128.475 44.1457Z"/><path fill="#FEED8D" d="M132.632 33.5705C132.936 34.6508 131.154 34.3223 129.223 34.8647C127.292 35.4071 125.942 36.6149 125.638 35.5346C125.335 34.4542 126.693 33.2737 128.624 32.7313C130.555 32.189 132.329 32.4902 132.632 33.5705Z"/><path fill="#FFC700" d="M62.834 39.4751C62.8859 43.8077 59.1065 46.8247 54.4004 46.8811C49.6942 46.9375 45.8436 44.012 45.7916 39.6794C45.7397 35.3467 49.5192 32.3298 54.2253 32.2734C58.9314 32.217 62.7821 35.1425 62.834 39.4751Z"/><path fill="#FFD800" d="M59.0441 35.0997C59.6846 37.3804 56.5087 36.5228 53.1528 37.4653C49.7969 38.4077 47.5318 40.7933 46.8913 38.5127C46.2508 36.232 48.532 33.904 51.888 32.9615C55.2439 32.019 58.4036 32.8191 59.0441 35.0997Z"/><path fill="#FFAF00" d="M51.3746 45.0701C50.679 43.7722 53.2982 44.1656 56.1918 43.227C59.0854 42.2885 60.7958 39.2564 61.3739 41.0386C61.9519 42.8208 59.9998 44.7923 57.1062 45.7309C54.2126 46.6694 52.0703 46.3679 51.3746 45.0701Z"/><path fill="#FEED8D" d="M55.5306 34.4948C55.834 35.5751 54.0526 35.2467 52.1214 35.789C50.1901 36.3314 48.8402 37.5392 48.5368 36.4589C48.2335 35.3786 49.591 34.198 51.5223 33.6556C53.4535 33.1133 55.2272 33.4145 55.5306 34.4948Z"/><path fill="#B6ADAD" d="M126.843 86.4526C126.906 91.7077 125.946 93.9407 93.2891 94.332C60.6327 94.7234 59.6194 92.5141 59.5565 87.259C59.4935 82.0039 60.4759 81.64 93.1323 81.2486C125.789 80.8572 126.78 81.1975 126.843 86.4526Z"/><path fill="#D8D8D8" d="M127.112 85.0872C127.164 89.4655 126.191 91.3281 93.2453 91.7229C60.2998 92.1178 59.2823 90.2791 59.2298 85.9007C59.1773 81.5223 60.1692 81.2171 93.1147 80.8222C126.06 80.4273 127.059 80.7088 127.112 85.0872Z"/><path fill="#EFF3F5" d="M101.797 85.7864C101.784 89.9743 99.0603 90.5099 80.2076 90.3811C66.2814 90.2859 62.6176 89.9713 62.6264 87.0276C62.6352 84.0839 64.0129 82.9415 80.2294 83.0523C99.0822 83.1811 101.806 82.8427 101.797 85.7864Z"/><path fill="#7D7D7D" d="M67.7941 88.6182C67.0802 87.8366 67.5905 86.7253 68.5087 85.6704C69.427 84.6155 70.4054 84.0166 71.1194 84.7982C71.8333 85.5797 71.323 86.6911 70.4048 87.7459C69.4865 88.8008 68.5081 89.3997 67.7941 88.6182Z"/><path fill="#373333" d="M67.6433 88.4537C67.0422 87.7957 67.5895 86.7249 68.5078 85.67C69.426 84.6152 70.3674 83.9757 70.9685 84.6337C71.5696 85.2916 71.0222 86.3625 70.104 87.4173C69.1857 88.4722 68.2443 89.1116 67.6433 88.4537Z"/><path fill="#7D7D7D" d="M119.893 87.46C119.179 86.6784 119.689 85.5671 120.607 84.5122C121.526 83.4573 122.504 82.8584 123.218 83.64C123.932 84.4215 123.422 85.5329 122.503 86.5877C121.585 87.6426 120.607 88.2415 119.893 87.46Z"/><path fill="#373333" d="M119.753 87.3094C119.143 86.6413 119.687 85.5672 120.605 84.5123C121.524 83.4575 122.468 82.8213 123.078 83.4894C123.689 84.1575 123.144 85.2316 122.226 86.2865C121.308 87.3413 120.363 87.9774 119.753 87.3094Z"/><path fill="#7D7D7D" d="M78.4565 88.6595C77.6097 87.7326 78.215 86.4146 79.304 85.1636C80.393 83.9125 81.5534 83.2022 82.4001 84.1291C83.2468 85.056 82.6416 86.374 81.5526 87.6251C80.4636 88.8761 79.3032 89.5864 78.4565 88.6595Z"/><path fill="#373333" d="M78.2299 88.4113C77.5537 87.6712 78.2149 86.4144 79.3039 85.1634C80.3929 83.9123 81.4973 83.1408 82.1735 83.881C82.8496 84.6211 82.1885 85.8779 81.0995 87.129C80.0105 88.38 78.906 89.1515 78.2299 88.4113Z"/><path fill="#7D7D7D" d="M106.614 88.3221C105.767 87.3952 106.372 86.0772 107.461 84.8261C108.55 83.5751 109.711 82.8648 110.557 83.7917C111.404 84.7186 110.799 86.0366 109.71 87.2876C108.621 88.5387 107.46 89.249 106.614 88.3221Z"/><path fill="#373333" d="M106.42 88.1105C105.719 87.3431 106.372 86.0773 107.461 84.8263C108.55 83.5753 109.663 82.8127 110.364 83.5801C111.065 84.3475 110.412 85.6133 109.323 86.8643C108.234 88.1153 107.121 88.8779 106.42 88.1105Z"/><path fill="#7D7D7D" d="M92.0366 89.1326C91.0527 88.0555 91.756 86.524 93.0215 85.0702C94.2869 83.6165 95.6353 82.7911 96.6193 83.8682C97.6032 84.9453 96.8999 86.4768 95.6345 87.9306C94.369 89.3843 93.0206 90.2097 92.0366 89.1326Z"/><path fill="#373333" d="M91.8436 88.9208C91.0055 88.0034 91.7566 86.5241 93.022 85.0704C94.2875 83.6166 95.5881 82.7389 96.4262 83.6563C97.2643 84.5738 96.5132 86.053 95.2477 87.5067C93.9823 88.9605 92.6817 89.8382 91.8436 88.9208Z"/><path fill="#FFE971" d="M91.2632 54.8064C92.2392 53.8318 93.8402 53.8126 94.8392 54.7635L102.307 61.8717C103.306 62.8226 103.324 64.3836 102.348 65.3582L95.0535 72.6433C94.0775 73.618 92.4765 73.6371 91.4775 72.6862L84.0101 65.578C83.0111 64.6271 82.9924 63.0661 83.9683 62.0915L91.2632 54.8064Z"/><path fill="#FA7048" d="M92.9179 52.7601L93.0294 62.0656L83.7238 62.1772C83.7164 61.5551 83.9462 60.9302 84.4152 60.4499L91.2077 53.4926C91.6766 53.0123 92.2959 52.7675 92.9179 52.7601Z"/><path fill="#CC240E" d="M93.1406 71.3714L93.029 62.0658L83.7234 62.1773C83.7309 62.7994 83.9757 63.4186 84.456 63.8875L91.4133 70.6801C91.8936 71.149 92.5185 71.3788 93.1406 71.3714Z"/><path fill="#CC240E" d="M92.919 52.76L93.0305 62.0656L102.336 61.954C102.329 61.332 102.084 60.7128 101.604 60.2438L94.6463 53.4513C94.166 52.9824 93.5411 52.7525 92.919 52.76Z"/><path fill="#9F0400" d="M93.1417 71.3713L93.0301 62.0657L102.336 61.9542C102.343 62.5762 102.113 63.2011 101.644 63.6814L94.8519 70.6388C94.3829 71.1191 93.7637 71.3638 93.1417 71.3713Z"/><path fill="#FFE971" d="M117.563 62.6993C118.101 62.0897 118.986 62.0791 119.539 62.6756L123.671 67.1346C124.224 67.7312 124.236 68.709 123.697 69.3186L119.673 73.8754C119.134 74.485 118.25 74.4956 117.697 73.899L113.564 69.44C113.011 68.8435 113 67.8657 113.538 67.2561L117.563 62.6993Z"/><path fill="#FA7048" d="M118.557 61.7062L118.622 67.1164L113.211 67.1812C113.207 66.8196 113.341 66.4563 113.613 66.177L117.562 62.132C117.835 61.8528 118.195 61.7105 118.557 61.7062Z"/><path fill="#CC240E" d="M118.686 72.5265L118.621 67.1162L113.211 67.1811C113.215 67.5427 113.357 67.9027 113.636 68.1754L117.681 72.1245C117.961 72.3972 118.324 72.5308 118.686 72.5265Z"/><path fill="#CC240E" d="M118.559 61.7064L118.623 67.1167L124.034 67.0518C124.029 66.6902 123.887 66.3302 123.608 66.0575L119.563 62.1084C119.283 61.8357 118.92 61.7021 118.559 61.7064Z"/><path fill="#9F0400" d="M118.687 72.5268L118.623 67.1165L124.033 67.0517C124.037 67.4133 123.904 67.7767 123.631 68.0559L119.682 72.1009C119.409 72.3801 119.049 72.5224 118.687 72.5268Z"/><path fill="#FFE971" d="M65.9591 63.3175C66.4975 62.7078 67.3821 62.6972 67.935 63.2938L72.0676 67.7528C72.6205 68.3493 72.6322 69.3271 72.0938 69.9367L68.0692 74.4935C67.5308 75.1031 66.6462 75.1137 66.0933 74.5172L61.9607 70.0582C61.4078 69.4616 61.3961 68.4839 61.9345 67.8743L65.9591 63.3175Z"/><path fill="#FA7048" d="M67.0069 62.3248L67.0718 67.735L61.6615 67.7999C61.6572 67.4382 61.7908 67.0749 62.0635 66.7957L66.0126 62.7507C66.2852 62.4714 66.6453 62.3291 67.0069 62.3248Z"/><path fill="#CC240E" d="M67.1368 73.1441L67.072 67.7339L61.6617 67.7987C61.6661 68.1604 61.8084 68.5204 62.0876 68.793L66.1326 72.7422C66.4118 73.0148 66.7751 73.1485 67.1368 73.1441Z"/><path fill="#CC240E" d="M67.0068 62.3236L67.0716 67.7339L72.4818 67.669C72.4775 67.3074 72.3352 66.9474 72.0559 66.6747L68.011 62.7256C67.7317 62.4529 67.3684 62.3193 67.0068 62.3236Z"/><path fill="#9F0400" d="M67.1366 73.1444L67.0718 67.7342L72.482 67.6694C72.4864 68.031 72.3527 68.3943 72.0801 68.6736L68.1309 72.7185C67.8583 72.9978 67.4983 73.1401 67.1366 73.1444Z"/><path fill="#fff" d="M19.8466 54.8294C19.5677 55.8922 18.0589 55.8922 17.7799 54.8294L16.2788 49.1098C16.181 48.7369 15.8897 48.4456 15.5167 48.3477L9.79712 46.8466C8.73429 46.5677 8.73429 45.0589 9.79712 44.7799L15.5167 43.2788C15.8897 43.181 16.181 42.8897 16.2788 42.5167L17.7799 36.7971C18.0589 35.7343 19.5677 35.7343 19.8466 36.7971L21.3477 42.5167C21.4456 42.8897 21.7369 43.181 22.1098 43.2788L27.8294 44.7799C28.8922 45.0589 28.8922 46.5677 27.8294 46.8466L22.1098 48.3477C21.7369 48.4456 21.4456 48.7369 21.3477 49.1098L19.8466 54.8294Z"/><path fill="#fff" d="M166.184 56.472C166 57.176 165 57.176 164.816 56.472L163.821 52.6835C163.756 52.4365 163.564 52.2436 163.316 52.1787L159.528 51.1844C158.824 50.9997 158.824 50.0003 159.528 49.8156L163.316 48.8213C163.564 48.7564 163.756 48.5635 163.821 48.3165L164.816 44.528C165 43.824 166 43.824 166.184 44.528L167.179 48.3165C167.244 48.5635 167.436 48.7564 167.684 48.8213L171.472 49.8156C172.176 50.0003 172.176 50.9997 171.472 51.1844L167.684 52.1787C167.436 52.2436 167.244 52.4365 167.179 52.6835L166.184 56.472Z"/></g><defs><linearGradient id="paint0_linear_1996_303651" x1="93.49" x2="94" y1="107.098" y2="21" gradientUnits="userSpaceOnUse"><stop stop-color="#fff"/><stop offset="1" stop-opacity="0"/></linearGradient><linearGradient id="paint1_linear_1996_303651" x1="93.49" x2="94" y1="107.098" y2="21" gradientUnits="userSpaceOnUse"><stop stop-color="#fff"/><stop offset="1" stop-opacity="0"/></linearGradient><linearGradient id="paint2_linear_1996_303651" x1="44.827" x2="135.255" y1="103.679" y2="155.046" gradientUnits="userSpaceOnUse"><stop stop-color="#FF7A00"/><stop offset="1" stop-color="#3C1D00" stop-opacity="0"/></linearGradient><clipPath id="clip0_1996_303651"><rect width="192" height="192" fill="#fff"/></clipPath></defs></svg>