<svg xmlns="http://www.w3.org/2000/svg" width="192" height="192" fill="none" viewBox="0 0 192 192"><g clip-path="url(#clip0_2320_340810)"><mask id="mask0_2320_340810" width="165" height="107" x="11" y="-14" maskUnits="userSpaceOnUse" style="mask-type:alpha"><path fill="#636363" d="M175.993 69.471C176.711 74.0678 118.241 91.1185 97.3244 92.9815C89.1492 93.6902 14.4963 73.8451 11.6517 69.471C8.80705 65.097 11.6519 -10.2763 97.3243 -14C175.993 -5.62159 175.229 64.8135 175.993 69.471Z"/></mask><g mask="url(#mask0_2320_340810)"><ellipse cx="95.5" cy="82" fill="url(#paint0_radial_2320_340810)" opacity=".5" rx="76.5" ry="61"/></g><path fill="#EFEFEF" d="M95.4593 187.589L16.0796 144.382V58.4762L94.9193 14.7607L175.379 58.4762V144.382L95.4593 187.589Z"/><path fill="url(#paint1_linear_2320_340810)" d="M95.856 146.924L53.8789 124.049V78.5697L95.5704 55.4263L138.119 78.5697V124.049L95.856 146.924Z"/><mask id="mask1_2320_340810" width="81" height="65" x="94" y="14" maskUnits="userSpaceOnUse" style="mask-type:alpha"><path fill="url(#paint2_linear_2320_340810)" d="M174.137 57.5674L136.337 78.4081L94.7573 55.0254L95.2972 14.8682L174.137 57.5674Z"/></mask><g mask="url(#mask1_2320_340810)"><path fill="url(#paint3_linear_2320_340810)" fill-rule="evenodd" d="M174.678 57.5676L95.298 14.3605L15.3783 57.5676V143.474L95.838 187.189L174.678 143.474V57.5676ZM136.878 77.9004L94.9009 55.026L52.6383 77.9004V123.38L95.1864 146.523L136.878 123.38V77.9004Z" clip-rule="evenodd"/></g><mask id="mask2_2320_340810" width="68" height="55" x="28" y="22" maskUnits="userSpaceOnUse" style="mask-type:alpha"><path fill="url(#paint4_linear_2320_340810)" d="M34.5603 67.6022L48.1043 75.0697C51.8463 77.1328 56.5127 77.0836 60.3229 74.9409L89.4509 58.5607C93.3265 56.3812 95.7028 52.3816 95.6457 48.1339L95.4561 34.0384C95.3389 25.3184 85.5752 20.0796 77.5457 24.4283L35.0632 47.4366C26.7946 51.9148 26.5141 63.166 34.5603 67.6022Z"/></mask><g mask="url(#mask2_2320_340810)"><path fill="url(#paint5_linear_2320_340810)" fill-rule="evenodd" d="M15.8184 64.626C15.8184 60.2749 18.1971 56.2719 22.0188 54.1917L89.5377 17.4405C93.0683 15.5188 97.3311 15.5127 100.867 17.4244L168.888 54.1984C172.726 56.2735 175.118 60.2856 175.118 64.6489V136.407C175.118 140.761 172.736 144.767 168.909 146.846L100.388 184.075C96.8191 186.014 92.5072 185.995 88.9553 184.026L21.9374 146.865C18.1612 144.772 15.8184 140.794 15.8184 136.476V64.626ZM53.6182 84.955C53.6182 80.6059 55.9947 76.6044 59.8136 74.5234L89.93 58.1122C93.4631 56.1869 97.7306 56.1808 101.269 58.0961L131.633 74.5301C135.468 76.606 137.858 80.6166 137.858 84.9779V116.317C137.858 120.67 135.478 124.674 131.654 126.753L101.044 143.403C97.4731 145.346 93.1564 145.327 89.6019 143.354L59.7322 126.773C55.9588 124.678 53.6182 120.702 53.6182 116.386V84.955Z" clip-rule="evenodd"/></g><path fill="#E1E1E1" d="M95.8233 157.09L44.1592 129.132V73.5462L95.4718 45.2598L147.839 73.5462V129.132L95.8233 157.09Z"/><path fill="url(#paint6_linear_2320_340810)" d="M90.2405 149.002L54.7427 129.951C50.8866 127.882 48.4805 123.86 48.4805 119.484V83.1023C48.4805 78.759 50.8507 74.7619 54.6617 72.6785L89.8758 53.4269C93.3954 51.5027 97.6484 51.4846 101.184 53.3787L137.25 72.6988C141.111 74.7669 143.52 78.7913 143.52 83.1709V119.461C143.52 123.849 141.101 127.88 137.228 129.944L101.446 149.018C97.9431 150.885 93.7385 150.879 90.2405 149.002Z"/><path fill="url(#paint7_linear_2320_340810)" d="M16.0796 144.382V58.9844L44.1595 73.2173V128.624L16.0796 144.382Z"/><path fill="url(#paint8_linear_2320_340810)" d="M175.921 58.476L175.921 143.874L147.841 129.641L147.841 74.2339L175.921 58.476Z"/><path fill="url(#paint9_linear_2320_340810)" d="M175.645 144.399L97.0791 187.098L96.1334 157.09L147.107 129.387L175.645 144.399Z"/><path fill="url(#paint10_linear_2320_340810)" d="M95.7267 187.098L17.1611 144.399L44.2953 128.624L95.2694 156.327L95.7267 187.098Z"/><path fill="#fff" d="M43.534 146.482C43.2117 147.638 41.4682 147.638 41.1459 146.482L39.4112 140.261C39.2981 139.855 38.9615 139.538 38.5305 139.432L31.9211 137.799C30.693 137.495 30.693 135.854 31.9211 135.551L38.5305 133.918C38.9615 133.811 39.2981 133.494 39.4112 133.089L41.1459 126.867C41.4682 125.711 43.2117 125.711 43.534 126.867L45.2687 133.089C45.3818 133.494 45.7184 133.811 46.1494 133.918L52.7588 135.551C53.987 135.854 53.987 137.495 52.7588 137.799L46.1494 139.432C45.7184 139.538 45.3818 139.855 45.2687 140.261L43.534 146.482Z"/><g style="mix-blend-mode:overlay"><path fill="url(#paint11_radial_2320_340810)" fill-rule="evenodd" d="M45.2388 129.132L96.9028 157.09L148.918 129.132V73.5462L96.5514 45.2598L45.2388 73.5462V129.132ZM55.8203 129.952L91.3181 149.002C94.8162 150.88 99.0207 150.886 102.524 149.018L138.306 129.945C142.179 127.881 144.598 123.85 144.598 119.461V83.1714C144.598 78.7918 142.188 74.7674 138.328 72.6993L102.262 53.3792C98.7261 51.485 94.4731 51.5031 90.9534 53.4273L55.7393 72.6789C51.9283 74.7624 49.5581 78.7595 49.5581 83.1028V119.484C49.5581 123.86 51.9642 127.882 55.8203 129.952Z" clip-rule="evenodd"/></g><g style="mix-blend-mode:overlay"><path fill="url(#paint12_radial_2320_340810)" fill-rule="evenodd" d="M44.1611 128.116L95.8252 156.073L147.841 128.116V72.5296L95.4738 44.2432L44.1611 72.5296V128.116ZM54.7427 128.935L90.2405 147.985C93.7385 149.863 97.9431 149.868 101.446 148.001L137.228 128.928C141.101 126.864 143.52 122.833 143.52 118.444V82.1543C143.52 77.7747 141.111 73.7503 137.25 71.6822L101.184 52.3621C97.6484 50.4679 93.3954 50.4861 89.8758 52.4103L54.6617 71.6619C50.8507 73.7453 48.4805 77.7424 48.4805 82.0857V118.467C48.4805 122.843 50.8866 126.865 54.7427 128.935Z" clip-rule="evenodd"/></g><g style="mix-blend-mode:soft-light"><path fill="url(#paint13_radial_2320_340810)" d="M95.4593 187.589L16.0796 144.382L95.4593 176.406L175.919 144.382L95.4593 187.589Z"/></g><g style="mix-blend-mode:overlay"><path fill="url(#paint14_radial_2320_340810)" d="M95.4593 187.589L16.0796 144.382L95.4593 183.522L175.919 144.382L95.4593 187.589Z"/></g><g style="mix-blend-mode:soft-light"><path fill="#fff" d="M158.199 68.911C149.844 73.6067 147.291 86.9547 147.058 93.0418C146.826 89.3461 145.944 80.6503 144.273 75.4328C143.139 71.893 137.027 67.7527 131.329 64.6415C128.38 63.3628 125.791 62.0465 124.08 61.0848C126.02 61.9236 128.628 63.167 131.329 64.6415C136.379 66.8313 142.486 68.911 147.058 68.911C154.3 68.911 170.037 61.9544 177 58.4761C174.215 59.9978 166.555 64.2153 158.199 68.911Z"/></g><g style="mix-blend-mode:soft-light" opacity=".5"><path fill="#fff" d="M34.2361 133.984C42.5053 129.155 44.8156 115.768 44.9371 109.678C45.2363 113.369 46.2762 122.05 48.0419 127.239C49.2398 130.761 55.4267 134.802 61.1807 137.821C64.1523 139.052 66.7641 140.326 68.4926 141.26C66.5373 140.453 63.9076 139.252 61.1807 137.821C56.0915 135.713 49.9468 133.732 45.3755 133.805C38.1349 133.922 22.5269 141.131 15.628 144.721C18.3852 143.154 25.9669 138.814 34.2361 133.984Z"/></g><g style="mix-blend-mode:overlay"><path fill="#fff" d="M37.4085 68.633C44.0483 71.9175 54.3996 68.1315 58.7453 65.8278C56.2568 67.4574 50.5366 71.4995 47.5636 74.6317C45.5466 76.7567 45.1118 82.2052 45.2293 86.9834C45.5216 89.323 45.6427 91.4544 45.6589 92.9004C45.4647 91.362 45.285 89.248 45.2293 86.9834C44.7287 82.9768 43.7259 78.3598 41.8877 75.5296C38.9762 71.0468 27.7895 64.1022 22.5601 61.1903C24.7429 62.3026 30.7687 65.3484 37.4085 68.633Z"/></g><g style="mix-blend-mode:soft-light" opacity=".6"><path fill="#fff" d="M148.921 132.182C142.441 131.674 138.652 133.896 134.248 136.1C136.778 134.528 142.6 130.617 145.653 127.554C147.724 125.475 148.298 120.038 148.304 115.259C148.071 112.913 148.005 110.78 148.026 109.334C148.181 110.876 148.306 112.994 148.304 115.259C148.701 119.276 149.585 123.914 151.35 126.785C154.145 131.333 165.15 138.53 170.304 141.56C168.15 140.399 152.292 132.447 148.921 132.182Z"/></g><g style="mix-blend-mode:overlay"><path fill="#fff" d="M153.993 70.7139C149.048 73.4761 147.537 81.3278 147.399 84.9084C147.262 82.7345 146.74 77.6193 145.751 74.5502C145.08 72.468 141.462 70.0325 138.09 68.2024C136.344 67.4502 134.813 66.6759 133.8 66.1102C134.948 66.6036 136.491 67.335 138.09 68.2024C141.079 69.4905 144.693 70.7139 147.399 70.7139C151.685 70.7139 160.999 66.6217 165.12 64.5757C163.471 65.4708 158.938 67.9517 153.993 70.7139Z"/></g><g style="mix-blend-mode:soft-light" opacity=".6"><path fill="#fff" d="M78.7192 147.032C82.554 149.094 91.4288 153.218 96.2496 153.218C101.07 153.218 111.771 148.344 116.519 145.907C111.406 148.719 100.632 155.242 98.4409 158.842C96.6436 161.794 96.1976 166.966 96.1961 170.385C96.2336 171.13 96.2496 171.794 96.2496 172.339C96.2168 171.8 96.1957 171.135 96.1961 170.385C96.0142 166.772 95.3271 161.263 93.5105 158.279C91.3192 154.68 82.7366 149.281 78.7192 147.032Z"/></g><g style="mix-blend-mode:color-burn" opacity=".5"><path fill="#A7A7A7" d="M94.6229 186.479L16.1094 144.592V61.3113L94.0888 18.9316L173.671 61.3113V144.592L94.6229 186.479Z"/></g><g style="mix-blend-mode:soft-light" opacity=".8"><path fill="#14E2F2" d="M94.6229 185.37L16.1094 143.483V60.2019L94.0888 17.8223L173.671 60.2019V143.483L94.6229 185.37Z"/></g><path fill="#1FC7D4" d="M161.184 41.472C161 42.176 160 42.176 159.816 41.472L158.821 37.6835C158.756 37.4365 158.564 37.2436 158.316 37.1787L154.528 36.1844C153.824 35.9997 153.824 35.0003 154.528 34.8156L158.316 33.8213C158.564 33.7564 158.756 33.5635 158.821 33.3165L159.816 29.528C160 28.824 161 28.824 161.184 29.528L162.179 33.3165C162.244 33.5635 162.436 33.7564 162.684 33.8213L166.472 34.8156C167.176 35.0003 167.176 35.9997 166.472 36.1844L162.684 37.1787C162.436 37.2436 162.244 37.4365 162.179 37.6835L161.184 41.472Z"/></g><ellipse cx="104" cy="101" fill="#E2E2E2" rx="7" ry="11"/><path fill="#fff" d="M74.84 118H70.84V122H74.84V118ZM74.84 93.6455H78.84V89.0028L74.2484 89.6894L74.84 93.6455ZM69.2955 94.4745H65.2955V99.1171L69.887 98.4306L69.2955 94.4745ZM69.2955 86.3391L68.7185 82.3809L65.2955 82.8799V86.3391H69.2955ZM84.5818 84.1109H88.5818V79.4856L84.0049 80.1527L84.5818 84.1109ZM84.5818 118V122H88.5818V118H84.5818ZM78.84 118V93.6455H70.84V118H78.84ZM74.2484 89.6894L68.7039 90.5185L69.887 98.4306L75.4316 97.6015L74.2484 89.6894ZM73.2955 94.4745V86.3391H65.2955V94.4745H73.2955ZM69.8724 90.2973L85.1588 88.0691L84.0049 80.1527L68.7185 82.3809L69.8724 90.2973ZM80.5818 84.1109V118H88.5818V84.1109H80.5818ZM84.5818 114H74.84V122H84.5818V114ZM94.9058 116.549L92.8935 120.006L92.9238 120.024L92.9545 120.041L94.9058 116.549ZM89.8276 110.694L86.1382 112.239L89.8276 110.694ZM89.8276 91.9355L86.1382 90.3899L89.8276 91.9355ZM94.9058 86.1318L96.8791 89.6112L96.8875 89.6064L96.8958 89.6016L94.9058 86.1318ZM116.462 88.5673L113.378 91.1139L113.385 91.1227L113.392 91.1316L116.462 88.5673ZM116.462 114.062L119.547 116.608L116.462 114.062ZM108.845 107.999L105.401 105.964L105.394 105.976L105.387 105.989L108.845 107.999ZM108.845 94.63L105.387 96.6405L105.404 96.6702L105.422 96.6997L108.845 94.63ZM99.4658 94.63L96.0429 92.5603L96.025 92.5898L96.0078 92.6195L99.4658 94.63ZM99.4658 107.999L95.988 109.975L96.0148 110.022L96.0429 110.069L99.4658 107.999ZM104.181 114.518C100.757 114.518 98.4097 113.925 96.8571 113.057L92.9545 120.041C96.1001 121.799 99.9368 122.518 104.181 122.518V114.518ZM96.9181 113.092C95.3833 112.199 94.2642 110.932 93.517 109.148L86.1382 112.239C87.5328 115.568 89.7992 118.205 92.8935 120.006L96.9181 113.092ZM93.517 109.148C92.7072 107.215 92.2212 104.648 92.2212 101.315H84.2212C84.2212 105.374 84.8062 109.06 86.1382 112.239L93.517 109.148ZM92.2212 101.315C92.2212 97.9814 92.7072 95.4141 93.517 93.481L86.1382 90.3899C84.8062 93.5696 84.2212 97.2549 84.2212 101.315H92.2212ZM93.517 93.481C94.261 91.7049 95.3687 90.4679 96.8791 89.6112L92.9324 82.6525C89.8138 84.4212 87.536 87.0533 86.1382 90.3899L93.517 93.481ZM96.8958 89.6016C98.4387 88.7168 100.77 88.1109 104.181 88.1109V80.1109C99.9231 80.1109 96.071 80.8523 92.9157 82.662L96.8958 89.6016ZM104.181 88.1109C109.318 88.1109 111.997 89.4411 113.378 91.1139L119.547 86.0207C116.022 81.7516 110.513 80.1109 104.181 80.1109V88.1109ZM113.392 91.1316C115.023 93.0841 116.141 96.2754 116.141 101.315H124.141C124.141 95.2301 122.807 89.9232 119.532 86.003L113.392 91.1316ZM116.141 101.315C116.141 106.308 115.028 109.516 113.378 111.515L119.547 116.608C122.802 112.666 124.141 107.376 124.141 101.315H116.141ZM113.378 111.515C111.997 113.188 109.318 114.518 104.181 114.518V122.518C110.513 122.518 116.022 120.877 119.547 116.608L113.378 111.515ZM104.181 114.227C107.351 114.227 110.503 113.106 112.303 110.01L105.387 105.989C105.363 106.03 105.352 106.037 105.357 106.032C105.362 106.028 105.353 106.039 105.307 106.061C105.206 106.109 104.881 106.227 104.181 106.227V114.227ZM112.289 110.034C113.718 107.615 114.192 104.545 114.192 101.315H106.192C106.192 103.957 105.768 105.344 105.401 105.964L112.289 110.034ZM114.192 101.315C114.192 98.0709 113.725 94.9705 112.268 92.5603L105.422 96.6997C105.761 97.2604 106.192 98.6163 106.192 101.315H114.192ZM112.303 92.6195C110.503 89.5235 107.351 88.4018 104.181 88.4018V96.4018C104.881 96.4018 105.206 96.5197 105.307 96.5681C105.353 96.59 105.362 96.6015 105.357 96.5968C105.352 96.5921 105.363 96.5995 105.387 96.6405L112.303 92.6195ZM104.181 88.4018C101.005 88.4018 97.879 89.5236 96.0429 92.5603L102.889 96.6997C102.93 96.6309 102.951 96.6114 103.027 96.5754C103.147 96.519 103.484 96.4018 104.181 96.4018V88.4018ZM96.0078 92.6195C94.6163 95.0128 94.1703 98.0871 94.1703 101.315H102.17C102.17 98.6002 102.588 97.2181 102.924 96.6405L96.0078 92.6195ZM94.1703 101.315C94.1703 104.528 94.6229 107.573 95.988 109.975L102.944 106.023C102.581 105.386 102.17 103.974 102.17 101.315H94.1703ZM96.0429 110.069C97.879 113.105 101.005 114.227 104.181 114.227V106.227C103.484 106.227 103.147 106.11 103.027 106.054C102.951 106.018 102.93 105.998 102.889 105.929L96.0429 110.069Z"/><path fill="#0098A1" d="M74.84 118V93.6455L69.2955 94.4745V86.3391L84.5818 84.1109V118H74.84ZM104.181 118.518C100.347 118.518 97.2549 117.862 94.9058 116.549C92.5912 115.202 90.8985 113.25 89.8276 110.694C88.7567 108.137 88.2212 105.011 88.2212 101.315C88.2212 97.6182 88.7567 94.4918 89.8276 91.9355C90.8985 89.3791 92.5912 87.4445 94.9058 86.1318C97.2549 84.7845 100.347 84.1109 104.181 84.1109C109.916 84.1109 114.009 85.5964 116.462 88.5673C118.915 91.5036 120.141 95.7527 120.141 101.315C120.141 106.842 118.915 111.091 116.462 114.062C114.009 117.033 109.916 118.518 104.181 118.518ZM104.181 110.227C106.427 110.227 107.981 109.485 108.845 107.999C109.743 106.479 110.192 104.251 110.192 101.315C110.192 98.3436 109.743 96.1155 108.845 94.63C107.981 93.1445 106.427 92.4018 104.181 92.4018C101.936 92.4018 100.364 93.1445 99.4658 94.63C98.6021 96.1155 98.1703 98.3436 98.1703 101.315C98.1703 104.251 98.6021 106.479 99.4658 107.999C100.364 109.485 101.936 110.227 104.181 110.227Z"/><defs><radialGradient id="paint0_radial_2320_340810" cx="0" cy="0" r="1" gradientTransform="translate(95.4875 81.9724) rotate(-90) scale(60.9724 76.4654)" gradientUnits="userSpaceOnUse"><stop stop-color="#E0E0E0"/><stop offset="1" stop-color="#fff" stop-opacity="0"/></radialGradient><linearGradient id="paint1_linear_2320_340810" x1="128.468" x2="92.975" y1="55.744" y2="154.155" gradientUnits="userSpaceOnUse"><stop stop-color="#B6B6B6"/><stop offset="1" stop-color="#8E8E8E" stop-opacity="0"/></linearGradient><linearGradient id="paint2_linear_2320_340810" x1="153.082" x2="97.948" y1="55.424" y2="30.807" gradientUnits="userSpaceOnUse"><stop stop-color="#fff" stop-opacity="0"/><stop offset=".513" stop-color="#fff"/><stop offset="1" stop-color="#fff"/></linearGradient><linearGradient id="paint3_linear_2320_340810" x1="55.815" x2="135.487" y1="42.699" y2="154.056" gradientUnits="userSpaceOnUse"><stop stop-color="#fff" stop-opacity="0"/><stop offset=".513" stop-color="#fff"/><stop offset="1" stop-color="#fff"/></linearGradient><linearGradient id="paint4_linear_2320_340810" x1="61.716" x2="50.043" y1="-2.757" y2="80.778" gradientUnits="userSpaceOnUse"><stop stop-color="#FD9B13"/><stop offset="1" stop-color="#FD9B13" stop-opacity="0"/></linearGradient><linearGradient id="paint5_linear_2320_340810" x1="156.868" x2="92.142" y1="184.927" y2="1.751" gradientUnits="userSpaceOnUse"><stop stop-color="#B6B6B6"/><stop offset="1" stop-color="#8E8E8E" stop-opacity="0"/></linearGradient><linearGradient id="paint6_linear_2320_340810" x1="132.632" x2="93.659" y1="50.696" y2="160.422" gradientUnits="userSpaceOnUse"><stop stop-color="#B6B6B6"/><stop offset="1" stop-color="#8E8E8E" stop-opacity="0"/></linearGradient><linearGradient id="paint7_linear_2320_340810" x1="1.425" x2="189.352" y1="86.905" y2="-49.988" gradientUnits="userSpaceOnUse"><stop stop-color="#AFAFAF"/><stop offset="1" stop-color="#CECECE" stop-opacity="0"/></linearGradient><linearGradient id="paint8_linear_2320_340810" x1="170.521" x2="147.9" y1="76.267" y2="180.057" gradientUnits="userSpaceOnUse"><stop stop-color="#8B8B8B"/><stop offset="1" stop-color="#B7B7B7" stop-opacity="0"/></linearGradient><linearGradient id="paint9_linear_2320_340810" x1="130.094" x2="-78.916" y1="185.084" y2="78.886" gradientUnits="userSpaceOnUse"><stop stop-color="#BEBEBE"/><stop offset="1" stop-color="#CECECE" stop-opacity="0"/></linearGradient><linearGradient id="paint10_linear_2320_340810" x1="35.521" x2="19.241" y1="170.306" y2="-52.489" gradientUnits="userSpaceOnUse"><stop stop-color="#929292"/><stop offset="1" stop-color="#CECECE" stop-opacity="0"/></linearGradient><radialGradient id="paint11_radial_2320_340810" cx="0" cy="0" r="1" gradientTransform="translate(120.838 51.3596) rotate(131.437) scale(96.2826 84.8126)" gradientUnits="userSpaceOnUse"><stop stop-color="#fff"/><stop offset="1" stop-color="#fff" stop-opacity="0"/></radialGradient><radialGradient id="paint12_radial_2320_340810" cx="0" cy="0" r="1" gradientTransform="translate(119.761 50.343) rotate(131.437) scale(96.2826 84.8126)" gradientUnits="userSpaceOnUse"><stop stop-color="#fff"/><stop offset="1" stop-color="#fff" stop-opacity="0"/></radialGradient><radialGradient id="paint13_radial_2320_340810" cx="0" cy="0" r="1" gradientTransform="translate(132.629 146.739) rotate(164.151) scale(102.117 47.632)" gradientUnits="userSpaceOnUse"><stop stop-color="#fff"/><stop offset="1" stop-color="#fff" stop-opacity="0"/></radialGradient><radialGradient id="paint14_radial_2320_340810" cx="0" cy="0" r="1" gradientTransform="translate(132.629 146.739) rotate(164.151) scale(102.117 47.632)" gradientUnits="userSpaceOnUse"><stop stop-color="#fff"/><stop offset="1" stop-color="#fff" stop-opacity="0"/></radialGradient><clipPath id="clip0_2320_340810"><rect width="192" height="192" fill="#fff"/></clipPath></defs></svg>