<svg xmlns="http://www.w3.org/2000/svg" width="192" height="192" fill="none" viewBox="0 0 192 192"><g clip-path="url(#clip0_2320_340586)"><mask id="mask0_2320_340586" width="165" height="107" x="11" y="-14" maskUnits="userSpaceOnUse" style="mask-type:alpha"><path fill="#636363" d="M175.993 69.471C176.711 74.0678 118.241 91.1185 97.3244 92.9815C89.1492 93.6902 14.4963 73.8451 11.6517 69.471C8.80705 65.097 11.6519 -10.2763 97.3243 -14C175.993 -5.62159 175.229 64.8135 175.993 69.471Z"/></mask><g mask="url(#mask0_2320_340586)"><ellipse cx="96.5" cy="71" fill="url(#paint0_radial_2320_340586)" opacity=".5" rx="76.5" ry="61"/></g><path fill="#FFE97B" d="M95.4661 182.397L17.0664 140.699V57.7929L94.9328 15.604L174.399 57.7929V140.699L95.4661 182.397Z"/><path fill="url(#paint1_linear_2320_340586)" d="M95.8573 143.151L54.3984 121.076V77.1844L95.5752 54.8491L137.598 77.1844V121.076L95.8573 143.151Z"/><mask id="mask1_2320_340586" width="80" height="63" x="94" y="15" maskUnits="userSpaceOnUse" style="mask-type:alpha"><path fill="url(#paint2_linear_2320_340586)" d="M173.172 56.9153L135.839 77.0283L94.7728 54.4622L95.3061 15.7073L173.172 56.9153Z"/></mask><g mask="url(#mask1_2320_340586)"><path fill="url(#paint3_linear_2320_340586)" fill-rule="evenodd" d="M173.707 56.9149L95.3073 15.2166L16.3743 56.9149V139.821L95.8407 182.01L173.707 139.821V56.9149ZM136.375 76.538L94.9162 54.4624L53.1753 76.538V120.429L95.1982 142.765L136.375 120.429V76.538Z" clip-rule="evenodd"/></g><mask id="mask2_2320_340586" width="67" height="53" x="29" y="23" maskUnits="userSpaceOnUse" style="mask-type:alpha"><path fill="url(#paint4_linear_2320_340586)" d="M35.5246 66.7105L48.703 73.8102C52.398 75.8009 57.0163 75.7423 60.8118 73.6567L89.372 57.9629C93.2925 55.8086 95.7067 51.8384 95.6489 47.6404L95.4646 34.2433C95.3479 25.7642 85.7324 20.7227 77.7422 24.9512L36.188 46.9423C27.8837 51.3371 27.5127 62.3941 35.5246 66.7105Z"/></mask><g mask="url(#mask2_2320_340586)"><path fill="url(#paint5_linear_2320_340586)" fill-rule="evenodd" d="M16.8105 63.9644C16.8105 59.6263 19.2041 55.6423 23.0341 53.6052L89.7191 18.1376C93.1535 16.3109 97.27 16.3051 100.71 18.1221L167.891 53.6122C171.737 55.644 174.143 59.6369 174.143 63.9868V132.766C174.143 137.107 171.746 141.094 167.912 143.13L100.235 179.059C96.7636 180.902 92.5997 180.885 89.1438 179.012L22.9543 143.15C19.1687 141.099 16.8105 137.139 16.8105 132.834V63.9644ZM54.1426 83.5833C54.1426 79.2472 56.534 75.2646 60.3613 73.2267L90.1055 57.3888C93.5424 55.5587 97.6634 55.5529 101.106 57.3734L131.094 73.2337C134.938 75.2664 137.342 79.2578 137.342 83.6057V113.378C137.342 117.717 134.947 121.702 131.116 123.739L100.883 139.808C97.4084 141.654 93.2399 141.637 89.7814 139.761L60.2815 123.759C56.4986 121.707 54.1426 117.749 54.1426 113.446V83.5833Z" clip-rule="evenodd"/></g><path fill="#FECB54" d="M95.8251 152.963L44.7988 125.982V72.3368L95.478 45.0381L147.198 72.3368V125.982L95.8251 152.963Z"/><path fill="url(#paint6_linear_2320_340586)" d="M90.4117 145.209L55.3525 126.824C51.4889 124.798 49.0684 120.795 49.0684 116.433V81.7949C49.0684 77.4645 51.4535 73.4862 55.2731 71.4457L90.0514 52.867C93.4753 51.0379 97.5822 51.0206 101.021 52.8208L136.643 71.4668C140.511 73.4915 142.935 77.4963 142.935 81.8621V116.41C142.935 120.785 140.501 124.796 136.622 126.817L101.281 145.224C97.8739 146.999 93.8139 146.993 90.4117 145.209Z"/><path fill="url(#paint7_linear_2320_340586)" d="M17.0664 140.699V58.2832L44.7996 72.0191V125.491L17.0664 140.699Z"/><path fill="url(#paint8_linear_2320_340586)" d="M174.934 57.7926L174.934 140.208L147.2 126.472L147.2 73.0002L174.934 57.7926Z"/><path fill="url(#paint9_linear_2320_340586)" d="M174.662 140.715L97.0664 181.923L96.1324 152.963L146.477 126.227L174.662 140.715Z"/><path fill="url(#paint10_linear_2320_340586)" d="M95.7304 181.923L18.1348 140.715L44.934 125.491L95.2787 152.227L95.7304 181.923Z"/><path fill="#fff" d="M46.8424 135.391C46.615 136.203 45.385 136.203 45.1576 135.391L43.9339 131.019C43.8541 130.734 43.6166 130.512 43.3126 130.437L38.6498 129.29C37.7834 129.077 37.7834 127.923 38.6498 127.71L43.3126 126.563C43.6166 126.488 43.8541 126.266 43.9339 125.981L45.1576 121.609C45.385 120.797 46.615 120.797 46.8424 121.609L48.0661 125.981C48.1459 126.266 48.3834 126.488 48.6874 126.563L53.3502 127.71C54.2166 127.923 54.2166 129.077 53.3502 129.29L48.6874 130.437C48.3834 130.512 48.1459 130.734 48.0661 131.019L46.8424 135.391Z"/><g style="mix-blend-mode:overlay"><path fill="url(#paint11_radial_2320_340586)" fill-rule="evenodd" d="M45.8652 125.981L96.8915 152.963L148.265 125.981V72.3363L96.5444 45.0376L45.8652 72.3363V125.981ZM56.415 126.824L91.4742 145.209C94.8764 146.993 98.9364 146.999 102.344 145.224L137.684 126.817C141.564 124.796 143.997 120.785 143.997 116.41V81.8621C143.997 77.4963 141.573 73.4915 137.705 71.4668L102.084 52.8208C98.6447 51.0206 94.5378 51.0379 91.1139 52.867L56.3356 71.4457C52.516 73.4862 50.1309 77.4645 50.1309 81.7949V116.433C50.1309 120.795 52.5514 124.798 56.415 126.824Z" clip-rule="evenodd"/></g><g style="mix-blend-mode:overlay"><path fill="url(#paint12_radial_2320_340586)" fill-rule="evenodd" d="M95.829 151.982L44.8027 125V71.3553L95.4819 44.0566L147.202 71.3553V125L95.829 151.982ZM90.4117 144.228L55.3525 125.843C51.4889 123.816 49.0684 119.814 49.0684 115.451V111.038C49.4768 114.637 51.6889 117.82 54.9894 119.44L90.1428 136.693C93.109 138.148 96.5814 138.153 99.5515 136.705L134.985 119.432C138.665 117.638 141 113.902 141 109.808V78.4419C141 76.0458 140.2 73.7722 138.799 71.9387C141.39 74.1401 142.935 77.3954 142.935 80.8807V115.429C142.935 119.803 140.501 123.815 136.622 125.835L101.281 144.243C97.8739 146.017 93.8139 146.012 90.4117 144.228ZM111.147 57.1395L135.004 68.8271C136.522 69.5708 137.81 70.6452 138.799 71.9387C138.144 71.3826 137.423 70.8937 136.643 70.4854L111.147 57.1395ZM97.6209 50.6801C95.0669 50.2292 92.3987 50.6316 90.0514 51.8855L55.2731 70.4643C51.4535 72.5047 49.0684 76.4831 49.0684 80.8134V111.038C49.0231 110.639 49 110.235 49 109.828V78.382C49 74.3265 51.2914 70.6191 54.9187 68.8055L89.7926 51.3697C92.2397 50.1462 95.0397 49.9156 97.6209 50.6801ZM97.6209 50.6801C98.7924 50.8869 99.9399 51.2733 101.021 51.8394L111.147 57.1395L99.2908 51.3313C98.7489 51.0658 98.1902 50.8487 97.6209 50.6801Z" clip-rule="evenodd"/></g><g style="mix-blend-mode:soft-light"><path fill="url(#paint13_radial_2320_340586)" d="M95.4661 182.397L17.0664 140.699L95.4661 171.605L174.932 140.699L95.4661 182.397Z"/></g><g style="mix-blend-mode:overlay"><path fill="url(#paint14_radial_2320_340586)" d="M95.4661 182.397L17.0664 140.699L95.4661 178.472L174.932 140.699L95.4661 182.397Z"/></g><g style="mix-blend-mode:soft-light"><path fill="#fff" d="M157.431 67.863C149.178 72.3947 146.656 85.2766 146.427 91.1511C146.198 87.5845 145.327 79.1924 143.676 74.1571C142.556 70.7409 136.519 66.7452 130.891 63.7426C127.979 62.5085 125.423 61.2382 123.732 60.3101C125.649 61.1196 128.224 62.3196 130.891 63.7426C135.879 65.856 141.912 67.863 146.427 67.863C153.579 67.863 169.122 61.1493 175.999 57.7925C173.248 59.2611 165.683 63.3313 157.431 67.863Z"/></g><g style="mix-blend-mode:soft-light" opacity=".5"><path fill="#fff" d="M34.9985 130.664C43.1656 126.003 45.4474 113.084 45.5674 107.206C45.8629 110.769 46.8899 119.146 48.6338 124.155C49.817 127.553 55.9275 131.453 61.6104 134.367C64.5454 135.555 67.1249 136.784 68.8321 137.686C66.9009 136.907 64.3037 135.747 61.6104 134.367C56.584 132.332 50.5152 130.42 46.0003 130.491C38.8491 130.604 23.4338 137.561 16.6201 141.025C19.3432 139.514 26.8313 135.325 34.9985 130.664Z"/></g><g style="mix-blend-mode:overlay"><path fill="#fff" d="M38.1319 67.5947C44.6897 70.7645 54.9132 67.1107 59.2053 64.8875C56.7475 66.4601 51.098 70.3611 48.1617 73.3839C46.1695 75.4347 45.7401 80.6929 45.8561 85.3043C46.1448 87.5621 46.2644 89.6191 46.2804 91.0146C46.0887 89.53 45.9111 87.4898 45.8561 85.3043C45.3617 81.4376 44.3713 76.9818 42.5558 74.2505C39.6803 69.9242 28.6316 63.2221 23.4668 60.4119C25.6227 61.4854 31.5741 64.4248 38.1319 67.5947Z"/></g><g style="mix-blend-mode:soft-light" opacity=".6"><path fill="#fff" d="M148.268 128.925C141.868 128.434 138.126 130.579 133.777 132.706C136.275 131.189 142.026 127.415 145.041 124.458C147.086 122.452 147.654 117.205 147.659 112.592C147.43 110.329 147.364 108.27 147.385 106.874C147.538 108.363 147.661 110.406 147.659 112.592C148.052 116.469 148.925 120.945 150.668 123.716C153.429 128.105 164.298 135.051 169.387 137.975C167.26 136.854 151.598 129.18 148.268 128.925Z"/></g><g style="mix-blend-mode:overlay"><path fill="#fff" d="M153.276 69.6035C148.392 72.2693 146.899 79.8468 146.764 83.3024C146.628 81.2044 146.112 76.2678 145.135 73.3059C144.473 71.2964 140.9 68.946 137.569 67.1797C135.845 66.4538 134.332 65.7066 133.332 65.1606C134.466 65.6368 135.99 66.3427 137.569 67.1797C140.521 68.4229 144.091 69.6035 146.764 69.6035C150.997 69.6035 160.195 65.6543 164.265 63.6797C162.637 64.5436 158.16 66.9378 153.276 69.6035Z"/></g><g style="mix-blend-mode:soft-light" opacity=".6"><path fill="#fff" d="M78.9316 143.256C82.7191 145.246 91.4843 149.226 96.2456 149.226C101.007 149.226 111.576 144.522 116.265 142.17C111.215 144.884 100.574 151.18 98.4098 154.654C96.6347 157.503 96.1942 162.494 96.1927 165.794C96.2298 166.513 96.2456 167.154 96.2456 167.68C96.2132 167.159 96.1924 166.517 96.1927 165.794C96.0131 162.307 95.3345 156.991 93.5403 154.111C91.376 150.637 82.8994 145.427 78.9316 143.256Z"/></g><ellipse cx="107" cy="99" fill="#FFDB44" rx="32" ry="14"/><path fill="#FFDB44" d="M59.84 116H55.84V120H59.84V116ZM59.84 91.6455H63.84V87.0028L59.2484 87.6894L59.84 91.6455ZM54.2955 92.4745H50.2955V97.1171L54.887 96.4306L54.2955 92.4745ZM54.2955 84.3391L53.7185 80.3809L50.2955 80.8799V84.3391H54.2955ZM69.5818 82.1109H73.5818V77.4856L69.0049 78.1527L69.5818 82.1109ZM69.5818 116V120H73.5818V116H69.5818ZM63.84 116V91.6455H55.84V116H63.84ZM59.2484 87.6894L53.7039 88.5185L54.887 96.4306L60.4316 95.6015L59.2484 87.6894ZM58.2955 92.4745V84.3391H50.2955V92.4745H58.2955ZM54.8724 88.2973L70.1588 86.0691L69.0049 78.1527L53.7185 80.3809L54.8724 88.2973ZM65.5818 82.1109V116H73.5818V82.1109H65.5818ZM69.5818 112H59.84V120H69.5818V112ZM79.9058 114.549L77.8935 118.006L77.9238 118.024L77.9545 118.041L79.9058 114.549ZM74.8276 108.694L71.1382 110.239L74.8276 108.694ZM74.8276 89.9355L71.1382 88.3899L74.8276 89.9355ZM79.9058 84.1318L81.8791 87.6112L81.8875 87.6064L81.8958 87.6016L79.9058 84.1318ZM101.462 86.5673L98.3775 89.1139L98.3849 89.1227L98.3922 89.1316L101.462 86.5673ZM101.462 112.062L104.547 114.608L101.462 112.062ZM93.8449 105.999L90.4012 103.964L90.394 103.976L90.3868 103.989L93.8449 105.999ZM93.8449 92.63L90.3868 94.6405L90.4041 94.6702L90.4219 94.6997L93.8449 92.63ZM84.4658 92.63L81.0429 90.5603L81.025 90.5898L81.0078 90.6195L84.4658 92.63ZM84.4658 105.999L80.988 107.975L81.0148 108.022L81.0429 108.069L84.4658 105.999ZM89.1812 112.518C85.7566 112.518 83.4097 111.925 81.8571 111.057L77.9545 118.041C81.1001 119.799 84.9368 120.518 89.1812 120.518V112.518ZM81.9181 111.092C80.3833 110.199 79.2642 108.932 78.517 107.148L71.1382 110.239C72.5328 113.568 74.7992 116.205 77.8935 118.006L81.9181 111.092ZM78.517 107.148C77.7072 105.215 77.2212 102.648 77.2212 99.3145H69.2212C69.2212 103.374 69.8062 107.06 71.1382 110.239L78.517 107.148ZM77.2212 99.3145C77.2212 95.9814 77.7072 93.4141 78.517 91.481L71.1382 88.3899C69.8062 91.5696 69.2212 95.2549 69.2212 99.3145H77.2212ZM78.517 91.481C79.261 89.7049 80.3687 88.4679 81.8791 87.6112L77.9324 80.6525C74.8138 82.4212 72.536 85.0533 71.1382 88.3899L78.517 91.481ZM81.8958 87.6016C83.4387 86.7168 85.7703 86.1109 89.1812 86.1109V78.1109C84.9231 78.1109 81.071 78.8523 77.9157 80.662L81.8958 87.6016ZM89.1812 86.1109C94.3184 86.1109 96.9965 87.4411 98.3775 89.1139L104.547 84.0207C101.022 79.7516 95.5131 78.1109 89.1812 78.1109V86.1109ZM98.3922 89.1316C100.023 91.0841 101.141 94.2754 101.141 99.3145H109.141C109.141 93.2301 107.807 87.9232 104.532 84.003L98.3922 89.1316ZM101.141 99.3145C101.141 104.308 100.028 107.516 98.3775 109.515L104.547 114.608C107.802 110.666 109.141 105.376 109.141 99.3145H101.141ZM98.3775 109.515C96.9965 111.188 94.3184 112.518 89.1812 112.518V120.518C95.5131 120.518 101.022 118.877 104.547 114.608L98.3775 109.515ZM89.1812 112.227C92.3508 112.227 95.5029 111.106 97.3029 108.01L90.3868 103.989C90.363 104.03 90.352 104.037 90.3571 104.032C90.3622 104.028 90.3526 104.039 90.3068 104.061C90.2055 104.109 89.8811 104.227 89.1812 104.227V112.227ZM97.2886 108.034C98.7182 105.615 99.1921 102.545 99.1921 99.3145H91.1921C91.1921 101.957 90.7679 103.344 90.4012 103.964L97.2886 108.034ZM99.1921 99.3145C99.1921 96.0709 98.7251 92.9705 97.2678 90.5603L90.4219 94.6997C90.761 95.2604 91.1921 96.6163 91.1921 99.3145H99.1921ZM97.3029 90.6195C95.5029 87.5235 92.3508 86.4018 89.1812 86.4018V94.4018C89.8811 94.4018 90.2055 94.5197 90.3068 94.5681C90.3526 94.59 90.3622 94.6015 90.3571 94.5968C90.352 94.5921 90.363 94.5995 90.3868 94.6405L97.3029 90.6195ZM89.1812 86.4018C86.0046 86.4018 82.879 87.5236 81.0429 90.5603L87.8887 94.6997C87.9303 94.6309 87.9511 94.6114 88.0272 94.5754C88.1467 94.519 88.4836 94.4018 89.1812 94.4018V86.4018ZM81.0078 90.6195C79.6163 93.0128 79.1703 96.0871 79.1703 99.3145H87.1703C87.1703 96.6002 87.588 95.2181 87.9238 94.6405L81.0078 90.6195ZM79.1703 99.3145C79.1703 102.528 79.6229 105.573 80.988 107.975L87.9436 104.023C87.5814 103.386 87.1703 101.974 87.1703 99.3145H79.1703ZM81.0429 108.069C82.879 111.105 86.0046 112.227 89.1812 112.227V104.227C88.4836 104.227 88.1467 104.11 88.0272 104.054C87.9511 104.018 87.9303 103.998 87.8887 103.929L81.0429 108.069ZM114.417 114.549L112.405 118.006L112.436 118.024L112.466 118.041L114.417 114.549ZM109.339 108.694L105.65 110.239L109.339 108.694ZM109.339 89.9355L105.65 88.3899L109.339 89.9355ZM114.417 84.1318L116.391 87.6112L116.399 87.6064L116.408 87.6016L114.417 84.1318ZM135.974 86.5673L132.889 89.1139L132.897 89.1227L132.904 89.1316L135.974 86.5673ZM135.974 112.062L139.058 114.608L135.974 112.062ZM128.357 105.999L124.913 103.964L124.906 103.976L124.899 103.989L128.357 105.999ZM128.357 92.63L124.899 94.6405L124.916 94.6702L124.934 94.6997L128.357 92.63ZM118.978 92.63L115.555 90.5603L115.537 90.5898L115.519 90.6195L118.978 92.63ZM118.978 105.999L115.5 107.975L115.526 108.022L115.555 108.069L118.978 105.999ZM123.693 112.518C120.268 112.518 117.921 111.925 116.369 111.057L112.466 118.041C115.612 119.799 119.449 120.518 123.693 120.518V112.518ZM116.43 111.092C114.895 110.199 113.776 108.932 113.029 107.148L105.65 110.239C107.044 113.568 109.311 116.205 112.405 118.006L116.43 111.092ZM113.029 107.148C112.219 105.215 111.733 102.648 111.733 99.3145H103.733C103.733 103.374 104.318 107.06 105.65 110.239L113.029 107.148ZM111.733 99.3145C111.733 95.9814 112.219 93.4141 113.029 91.481L105.65 88.3899C104.318 91.5696 103.733 95.2549 103.733 99.3145H111.733ZM113.029 91.481C113.773 89.7049 114.88 88.4679 116.391 87.6112L112.444 80.6525C109.326 82.4212 107.048 85.0533 105.65 88.3899L113.029 91.481ZM116.408 87.6016C117.95 86.7168 120.282 86.1109 123.693 86.1109V78.1109C119.435 78.1109 115.583 78.8523 112.427 80.662L116.408 87.6016ZM123.693 86.1109C128.83 86.1109 131.508 87.4411 132.889 89.1139L139.058 84.0207C135.534 79.7516 130.025 78.1109 123.693 78.1109V86.1109ZM132.904 89.1316C134.535 91.0841 135.653 94.2754 135.653 99.3145H143.653C143.653 93.2301 142.318 87.9232 139.044 84.003L132.904 89.1316ZM135.653 99.3145C135.653 104.308 134.54 107.516 132.889 109.515L139.058 114.608C142.313 110.666 143.653 105.376 143.653 99.3145H135.653ZM132.889 109.515C131.508 111.188 128.83 112.518 123.693 112.518V120.518C130.025 120.518 135.534 118.877 139.058 114.608L132.889 109.515ZM123.693 112.227C126.863 112.227 130.015 111.106 131.815 108.01L124.899 103.989C124.875 104.03 124.864 104.037 124.869 104.032C124.874 104.028 124.864 104.039 124.819 104.061C124.717 104.109 124.393 104.227 123.693 104.227V112.227ZM131.8 108.034C133.23 105.615 133.704 102.545 133.704 99.3145H125.704C125.704 101.957 125.28 103.344 124.913 103.964L131.8 108.034ZM133.704 99.3145C133.704 96.0709 133.237 92.9705 131.78 90.5603L124.934 94.6997C125.273 95.2604 125.704 96.6163 125.704 99.3145H133.704ZM131.815 90.6195C130.015 87.5235 126.863 86.4018 123.693 86.4018V94.4018C124.393 94.4018 124.717 94.5197 124.819 94.5681C124.864 94.59 124.874 94.6015 124.869 94.5968C124.864 94.5921 124.875 94.5995 124.899 94.6405L131.815 90.6195ZM123.693 86.4018C120.516 86.4018 117.391 87.5236 115.555 90.5603L122.4 94.6997C122.442 94.6309 122.463 94.6114 122.539 94.5754C122.658 94.519 122.995 94.4018 123.693 94.4018V86.4018ZM115.519 90.6195C114.128 93.0128 113.682 96.0871 113.682 99.3145H121.682C121.682 96.6002 122.1 95.2181 122.436 94.6405L115.519 90.6195ZM113.682 99.3145C113.682 102.528 114.135 105.573 115.5 107.975L122.455 104.023C122.093 103.386 121.682 101.974 121.682 99.3145H113.682ZM115.555 108.069C117.391 111.105 120.516 112.227 123.693 112.227V104.227C122.995 104.227 122.658 104.11 122.539 104.054C122.463 104.018 122.442 103.998 122.4 103.929L115.555 108.069Z"/><path fill="#D87400" d="M59.84 116V91.6455L54.2955 92.4745V84.3391L69.5818 82.1109V116H59.84ZM89.1812 116.518C85.3467 116.518 82.2549 115.862 79.9058 114.549C77.5912 113.202 75.8985 111.25 74.8276 108.694C73.7567 106.137 73.2212 103.011 73.2212 99.3145C73.2212 95.6182 73.7567 92.4918 74.8276 89.9355C75.8985 87.3791 77.5912 85.4445 79.9058 84.1318C82.2549 82.7845 85.3467 82.1109 89.1812 82.1109C94.9158 82.1109 99.0094 83.5964 101.462 86.5673C103.915 89.5036 105.141 93.7527 105.141 99.3145C105.141 104.842 103.915 109.091 101.462 112.062C99.0094 115.033 94.9158 116.518 89.1812 116.518ZM89.1812 108.227C91.4267 108.227 92.9812 107.485 93.8449 105.999C94.7431 104.479 95.1921 102.251 95.1921 99.3145C95.1921 96.3436 94.7431 94.1155 93.8449 92.63C92.9812 91.1445 91.4267 90.4018 89.1812 90.4018C86.9358 90.4018 85.364 91.1445 84.4658 92.63C83.6021 94.1155 83.1703 96.3436 83.1703 99.3145C83.1703 102.251 83.6021 104.479 84.4658 105.999C85.364 107.485 86.9358 108.227 89.1812 108.227ZM123.693 116.518C119.858 116.518 116.767 115.862 114.418 114.549C112.103 113.202 110.41 111.25 109.339 108.694C108.268 106.137 107.733 103.011 107.733 99.3145C107.733 95.6182 108.268 92.4918 109.339 89.9355C110.41 87.3791 112.103 85.4445 114.418 84.1318C116.767 82.7845 119.858 82.1109 123.693 82.1109C129.428 82.1109 133.521 83.5964 135.974 86.5673C138.427 89.5036 139.653 93.7527 139.653 99.3145C139.653 104.842 138.427 109.091 135.974 112.062C133.521 115.033 129.428 116.518 123.693 116.518ZM123.693 108.227C125.938 108.227 127.493 107.485 128.357 105.999C129.255 104.479 129.704 102.251 129.704 99.3145C129.704 96.3436 129.255 94.1155 128.357 92.63C127.493 91.1445 125.938 90.4018 123.693 90.4018C121.448 90.4018 119.876 91.1445 118.978 92.63C118.114 94.1155 117.682 96.3436 117.682 99.3145C117.682 102.251 118.114 104.479 118.978 105.999C119.876 107.485 121.448 108.227 123.693 108.227Z"/><path fill="#FFDB44" d="M149.184 35.472C149 36.176 148 36.176 147.816 35.472L146.821 31.6835C146.756 31.4365 146.564 31.2436 146.316 31.1787L142.528 30.1844C141.824 29.9997 141.824 29.0003 142.528 28.8156L146.316 27.8213C146.564 27.7564 146.756 27.5635 146.821 27.3165L147.816 23.528C148 22.824 149 22.824 149.184 23.528L150.179 27.3165C150.244 27.5635 150.436 27.7564 150.684 27.8213L154.472 28.8156C155.176 29.0003 155.176 29.9997 154.472 30.1844L150.684 31.1787C150.436 31.2436 150.244 31.4365 150.179 31.6835L149.184 35.472Z"/></g><defs><radialGradient id="paint0_radial_2320_340586" cx="0" cy="0" r="1" gradientTransform="translate(96.4875 70.9724) rotate(-90) scale(60.9724 76.4654)" gradientUnits="userSpaceOnUse"><stop stop-color="#FF0"/><stop offset="1" stop-color="#FC0" stop-opacity="0"/></radialGradient><linearGradient id="paint1_linear_2320_340586" x1="128.066" x2="94.421" y1="55.156" y2="150.627" gradientUnits="userSpaceOnUse"><stop stop-color="#FD9B13"/><stop offset="1" stop-color="#FD9B13" stop-opacity="0"/></linearGradient><linearGradient id="paint2_linear_2320_340586" x1="152.378" x2="98.349" y1="54.847" y2="30.159" gradientUnits="userSpaceOnUse"><stop stop-color="#fff" stop-opacity="0"/><stop offset=".513" stop-color="#fff"/><stop offset="1" stop-color="#fff"/></linearGradient><linearGradient id="paint3_linear_2320_340586" x1="56.312" x2="132.611" y1="42.566" y2="151.703" gradientUnits="userSpaceOnUse"><stop stop-color="#fff" stop-opacity="0"/><stop offset=".513" stop-color="#fff"/><stop offset="1" stop-color="#fff"/></linearGradient><linearGradient id="paint4_linear_2320_340586" x1="62.141" x2="51.123" y1="-1.302" y2="79.386" gradientUnits="userSpaceOnUse"><stop stop-color="#FD9B13"/><stop offset="1" stop-color="#FD9B13" stop-opacity="0"/></linearGradient><linearGradient id="paint5_linear_2320_340586" x1="156.119" x2="94.73" y1="179.861" y2="2.135" gradientUnits="userSpaceOnUse"><stop stop-color="#FD9B13"/><stop offset="1" stop-color="#FD9B13" stop-opacity="0"/></linearGradient><linearGradient id="paint6_linear_2320_340586" x1="132.181" x2="95.241" y1="50.284" y2="156.717" gradientUnits="userSpaceOnUse"><stop stop-color="#FD9B13"/><stop offset="1" stop-color="#FD9B13" stop-opacity="0"/></linearGradient><linearGradient id="paint7_linear_2320_340586" x1="2.593" x2="185.203" y1="85.229" y2="-50.903" gradientUnits="userSpaceOnUse"><stop stop-color="#EA8408"/><stop offset="1" stop-color="#EA8408" stop-opacity="0"/></linearGradient><linearGradient id="paint8_linear_2320_340586" x1="169.6" x2="148.225" y1="74.963" y2="175.334" gradientUnits="userSpaceOnUse"><stop stop-color="#EA8408"/><stop offset="1" stop-color="#EA8408" stop-opacity="0"/></linearGradient><linearGradient id="paint9_linear_2320_340586" x1="129.674" x2="-74.771" y1="179.979" y2="73.672" gradientUnits="userSpaceOnUse"><stop stop-color="#EA8408"/><stop offset="1" stop-color="#EA8408" stop-opacity="0"/></linearGradient><linearGradient id="paint10_linear_2320_340586" x1="36.268" x2="20.912" y1="165.718" y2="-49.349" gradientUnits="userSpaceOnUse"><stop stop-color="#EA8408"/><stop offset="1" stop-color="#EA8408" stop-opacity="0"/></linearGradient><radialGradient id="paint11_radial_2320_340586" cx="0" cy="0" r="1" gradientTransform="translate(120.532 50.9244) rotate(132.095) scale(93.8786 82.9106)" gradientUnits="userSpaceOnUse"><stop stop-color="#fff"/><stop offset="1" stop-color="#fff" stop-opacity="0"/></radialGradient><radialGradient id="paint12_radial_2320_340586" cx="0" cy="0" r="1" gradientTransform="translate(119.469 49.9434) rotate(132.095) scale(93.8786 82.9106)" gradientUnits="userSpaceOnUse"><stop stop-color="#fff"/><stop offset="1" stop-color="#fff" stop-opacity="0"/></radialGradient><radialGradient id="paint13_radial_2320_340586" cx="0" cy="0" r="1" gradientTransform="translate(132.177 142.973) rotate(164.496) scale(100.686 46.0463)" gradientUnits="userSpaceOnUse"><stop stop-color="#fff"/><stop offset="1" stop-color="#fff" stop-opacity="0"/></radialGradient><radialGradient id="paint14_radial_2320_340586" cx="0" cy="0" r="1" gradientTransform="translate(132.177 142.973) rotate(164.496) scale(100.686 46.0463)" gradientUnits="userSpaceOnUse"><stop stop-color="#fff"/><stop offset="1" stop-color="#fff" stop-opacity="0"/></radialGradient><clipPath id="clip0_2320_340586"><rect width="192" height="192" fill="#fff"/></clipPath></defs></svg>