<svg width="192" height="192" viewBox="0 0 192 192" fill="none" xmlns="http://www.w3.org/2000/svg">
<g clip-path="url(#clip0_2320_340857)">
<path d="M83.006 175.797L33.275 147.729C25.1067 143.118 20.0547 134.466 20.0547 125.086V70.3733C20.0547 61.0678 25.0279 52.4717 33.095 47.8334L82.3987 19.4855C90.3523 14.9125 100.127 14.8698 108.12 19.3731L158.707 47.873C166.885 52.4806 171.945 61.1386 171.945 70.5254V125.036C171.945 134.442 166.864 143.115 158.659 147.715L108.5 175.834C100.578 180.275 90.9143 180.261 83.006 175.797Z" fill="#E86A0F"/>
<g style="mix-blend-mode:hard-light" opacity="0.9">
<path d="M82.722 175.748L33.2187 147.727C25.0661 143.112 20.0264 134.469 20.0264 125.1V70.3557C20.0264 61.0617 24.9873 52.4746 33.0386 47.832L82.1163 19.5326C90.0841 14.9382 99.8864 14.8953 107.894 19.4197L158.25 47.8713C166.412 52.4833 171.46 61.1325 171.46 70.5079V125.05C171.46 134.445 166.391 143.109 158.202 147.714L108.272 175.785C100.336 180.247 90.6447 180.233 82.722 175.748Z" fill="#EFEFEF"/>
<path d="M83.088 135.532L69.1404 127.629C60.9939 123.012 55.959 114.372 55.959 105.008V90.211C55.959 80.9215 60.9151 72.3378 68.9602 67.6936L82.7242 59.748C90.6976 55.1451 100.511 55.1021 108.524 59.6349L122.84 67.7328C130.996 72.3465 136.039 80.9924 136.039 90.3632V104.958C136.039 114.348 130.975 123.009 122.792 127.615L108.659 135.57C100.718 140.039 91.0163 140.025 83.088 135.532Z" fill="url(#paint0_linear_2320_340857)"/>
<mask id="mask0_2320_340857" style="mask-type:alpha" maskUnits="userSpaceOnUse" x="94" y="12" width="77" height="64">
<path d="M170.278 54.4383L134.345 75.0409L94.8186 51.9254L95.3319 12.227L170.278 54.4383Z" fill="url(#paint1_linear_2320_340857)"/>
</mask>
<g mask="url(#mask0_2320_340857)">
<path fill-rule="evenodd" clip-rule="evenodd" d="M170.792 54.4381L95.332 11.7246L19.3587 54.4381V139.363L95.8454 182.579L170.792 139.363V54.4381ZM134.859 74.5389L94.9551 51.9258L54.7794 74.5389V119.499L95.2266 142.378L134.859 119.499V74.5389Z" fill="url(#paint2_linear_2320_340857)"/>
</g>
<mask id="mask1_2320_340857" style="mask-type:alpha" maskUnits="userSpaceOnUse" x="31" y="20" width="65" height="54">
<path d="M37.2615 64.1674L50.4637 71.7371C54.0203 73.7763 58.4385 73.747 62.0061 71.6606L90.0328 55.2704C93.5683 53.2028 95.7205 49.4351 95.6684 45.4044L95.4835 31.1081C95.3736 22.6029 86.0516 17.4017 78.5202 21.6435L37.4761 44.7604C29.8398 49.0612 29.7206 59.8438 37.2615 64.1674Z" fill="url(#paint3_linear_2320_340857)"/>
</mask>
<g mask="url(#mask1_2320_340857)">
<path fill-rule="evenodd" clip-rule="evenodd" d="M19.7793 61.0209C19.7793 56.9518 21.9683 53.1973 25.5095 51.1928L89.695 14.8612C93.1362 12.9133 97.3457 12.9072 100.793 14.8451L165.454 51.1987C169.011 53.1986 171.213 56.962 171.213 61.0429V132.77C171.213 136.843 169.02 140.6 165.475 142.603L100.338 179.406C96.8601 181.371 92.6024 181.352 89.1415 179.357L25.4313 142.62C21.9341 140.603 19.7793 136.873 19.7793 132.837V61.0209ZM55.7119 81.118C55.7119 77.0508 57.8989 73.2978 61.4374 71.2926L90.0671 55.0686C93.5109 53.1171 97.7249 53.111 101.174 55.0525L130.038 71.2984C133.592 73.2991 135.792 77.0611 135.792 81.14V112.91C135.792 116.981 133.602 120.736 130.059 122.74L100.962 139.199C97.4812 141.168 93.2189 141.149 89.7556 139.15L61.3591 122.757C57.8646 120.74 55.7119 117.011 55.7119 112.976V81.118Z" fill="url(#paint4_linear_2320_340857)"/>
</g>
<path d="M95.8326 152.823L46.7197 125.184V70.2333L95.4985 42.27L145.28 70.2333V125.184L95.8326 152.823Z" fill="#E1E1E1"/>
<path d="M90.3623 144.736L56.6168 125.903C53.0423 123.908 50.8271 120.135 50.8271 116.041V79.2864C50.8271 75.2249 53.0081 71.4762 56.5389 69.4688L90.0158 50.4362C93.4463 48.4858 97.6461 48.4676 101.093 50.388L135.376 69.4865C138.955 71.4802 141.174 75.2556 141.174 79.3523V116.019C141.174 120.125 138.946 123.907 135.356 125.897L101.341 144.752C97.925 146.646 93.7729 146.64 90.3623 144.736Z" fill="url(#paint5_linear_2320_340857)"/>
<path d="M20.0264 129.811V65.7831C20.0264 61.2664 24.8285 58.3692 28.8241 60.4753L43.5175 68.2203C45.4869 69.2584 46.7197 71.3017 46.7197 73.5281V121.237C46.7197 123.37 45.5866 125.343 43.7439 126.419L29.0506 134.993C25.0506 137.328 20.0264 134.443 20.0264 129.811Z" fill="url(#paint6_linear_2320_340857)"/>
<path d="M171.975 65.7834L171.975 129.812C171.975 134.328 167.172 137.226 163.177 135.119L148.484 127.374C146.514 126.336 145.281 124.293 145.281 122.067L145.281 74.3582C145.281 72.2246 146.414 70.2515 148.257 69.1761L162.95 60.6013C166.95 58.267 171.975 61.1521 171.975 65.7834Z" fill="url(#paint7_linear_2320_340857)"/>
<path d="M162.467 145.502L105.816 177.52C101.853 179.759 96.8597 176.988 96.7229 172.474L96.2345 156.359C96.1685 154.179 97.3183 152.149 99.2315 151.068L141.633 127.103C143.465 126.068 145.722 126.058 147.582 127.076L162.32 135.138C166.449 137.397 166.531 143.205 162.467 145.502Z" fill="url(#paint8_linear_2320_340857)"/>
<path d="M86.495 177.262L29.8444 145.244C25.8816 143.004 25.8361 137.386 29.7614 135.012L43.7741 126.541C45.6693 125.395 48.0399 125.355 49.9532 126.436L92.3549 150.401C94.1863 151.436 95.3242 153.344 95.354 155.43L95.5902 171.955C95.6563 176.585 90.5595 179.559 86.495 177.262Z" fill="url(#paint9_linear_2320_340857)"/>
<g style="mix-blend-mode:overlay">
<path fill-rule="evenodd" clip-rule="evenodd" d="M47.7451 125.184L96.858 152.823L146.305 125.184V70.2333L96.5239 42.27L47.7451 70.2333V125.184ZM57.6403 125.903L91.3857 144.737C94.7964 146.64 98.9485 146.646 102.365 144.752L136.379 125.897C139.97 123.907 142.197 120.125 142.197 116.02V79.3528C142.197 75.2561 139.979 71.4807 136.4 69.487L102.117 50.3885C98.6695 48.4681 94.4698 48.4863 91.0392 50.4367L57.5623 69.4693C54.0315 71.4767 51.8506 75.2254 51.8506 79.2869V116.042C51.8506 120.135 54.0657 123.908 57.6403 125.903Z" fill="url(#paint10_radial_2320_340857)"/>
</g>
<g style="mix-blend-mode:overlay">
<path fill-rule="evenodd" clip-rule="evenodd" d="M46.7227 124.179L95.8356 151.817L145.283 124.179V69.2279L95.5015 41.2646L46.7227 69.2279V124.179ZM56.6178 124.897L90.3633 143.731C93.7739 145.634 97.926 145.64 101.342 143.747L135.357 124.891C138.947 122.901 141.175 119.119 141.175 115.014V78.3469C141.175 74.2503 138.956 70.4748 135.377 68.4812L101.094 49.3827C97.647 47.4622 93.4473 47.4805 90.0168 49.4308L56.5399 68.4634C53.0091 70.4708 50.8281 74.2195 50.8281 78.281V115.036C50.8281 119.13 53.0433 122.903 56.6178 124.897Z" fill="url(#paint11_radial_2320_340857)"/>
</g>
<g style="mix-blend-mode:soft-light">
<path d="M155.128 65.6507C147.185 70.2927 144.758 83.4883 144.537 89.5057C144.316 85.8523 143.478 77.2558 141.889 72.098C140.811 68.5986 135.001 64.5056 129.584 61.4299C126.781 60.1658 124.32 58.8646 122.693 57.9139C124.538 58.7431 127.017 59.9723 129.584 61.4299C134.385 63.5948 140.191 65.6507 144.537 65.6507C151.421 65.6507 166.381 58.7735 173 55.335C170.352 56.8393 163.071 61.0086 155.128 65.6507Z" fill="white"/>
</g>
<g style="mix-blend-mode:soft-light" opacity="0.5">
<path d="M37.2865 129.981C45.1474 125.206 47.3436 111.972 47.4591 105.952C47.7435 109.601 48.732 118.182 50.4105 123.313C51.5493 126.794 57.4307 130.789 62.9005 133.773C65.7254 134.99 68.2082 136.25 69.8514 137.173C67.9926 136.375 65.4928 135.188 62.9005 133.773C58.0626 131.689 52.2214 129.731 47.8758 129.803C40.9927 129.919 26.1555 137.045 19.5972 140.594C22.2183 139.046 29.4256 134.755 37.2865 129.981Z" fill="white"/>
</g>
<g style="mix-blend-mode:overlay">
<path d="M40.3026 65.3763C46.6145 68.6233 56.4547 64.8805 60.5858 62.6032C58.2202 64.2141 52.7824 68.2101 49.9563 71.3064C48.0388 73.4072 47.6255 78.7934 47.7372 83.5171C48.015 85.8299 48.1301 87.937 48.1455 89.3665C47.961 87.8456 47.7901 85.7558 47.7372 83.5171C47.2613 79.5563 46.308 74.992 44.5606 72.1941C41.7929 67.7625 31.1585 60.8973 26.1873 58.0187C28.2624 59.1183 33.9906 62.1293 40.3026 65.3763Z" fill="white"/>
</g>
<g style="mix-blend-mode:soft-light" opacity="0.6">
<path d="M146.308 128.199C140.148 127.697 136.547 129.894 132.361 132.073C134.765 130.518 140.3 126.652 143.202 123.624C145.171 121.569 145.717 116.194 145.722 111.469C145.501 109.15 145.438 107.041 145.458 105.612C145.605 107.137 145.724 109.23 145.722 111.469C146.1 115.44 146.94 120.026 148.618 122.864C151.275 127.36 161.737 134.475 166.636 137.47C164.588 136.322 149.513 128.461 146.308 128.199Z" fill="white"/>
</g>
<g style="mix-blend-mode:overlay">
<path d="M151.13 67.4333C146.428 70.1639 144.992 77.926 144.861 81.4657C144.731 79.3166 144.235 74.2599 143.294 71.2258C142.657 69.1674 139.218 66.7597 136.012 64.9505C134.353 64.2069 132.896 63.4415 131.934 62.8823C133.025 63.37 134.492 64.0931 136.012 64.9505C138.853 66.2239 142.289 67.4333 144.861 67.4333C148.936 67.4333 157.789 63.3879 161.707 61.3652C160.14 62.2502 155.831 64.7027 151.13 67.4333Z" fill="white"/>
</g>
<g style="mix-blend-mode:soft-light" opacity="0.6">
<path d="M79.5723 142.879C83.2177 144.918 91.6542 148.995 96.237 148.995C100.82 148.995 110.992 144.176 115.506 141.767C110.645 144.547 100.403 150.996 98.3201 154.554C96.6116 157.473 96.1876 162.585 96.1861 165.966C96.2218 166.702 96.237 167.359 96.237 167.898C96.2058 167.365 96.1858 166.707 96.1861 165.966C96.0132 162.394 95.36 156.948 93.6331 153.998C91.55 150.44 83.3913 145.103 79.5723 142.879Z" fill="white"/>
</g>
</g>
<g style="mix-blend-mode:color-burn" opacity="0.5">
<path d="M90.086 179.916L25.6078 143.419C22.1586 141.467 20.0264 137.81 20.0264 133.846V61.69C20.0264 57.7579 22.1252 54.1249 25.5316 52.1607L89.5336 15.2556C92.9046 13.3118 97.0517 13.2937 100.44 15.2079L165.871 52.1774C169.324 54.1286 171.46 57.7879 171.46 61.7544V133.825C171.46 137.8 169.315 141.465 165.85 143.413L100.895 179.932C97.5381 181.82 93.4379 181.814 90.086 179.916Z" fill="#EFEFEF"/>
<path d="M95.8632 142.772L55.959 120.159V75.1989L95.5918 52.3198L136.039 75.1989V120.159L95.8632 142.772Z" fill="url(#paint12_linear_2320_340857)"/>
<mask id="mask2_2320_340857" style="mask-type:alpha" maskUnits="userSpaceOnUse" x="94" y="12" width="77" height="64">
<path d="M170.278 54.4383L134.345 75.0409L94.8186 51.9254L95.3319 12.227L170.278 54.4383Z" fill="url(#paint13_linear_2320_340857)"/>
</mask>
<g mask="url(#mask2_2320_340857)">
<path fill-rule="evenodd" clip-rule="evenodd" d="M170.792 54.4381L95.332 11.7246L19.3587 54.4381V139.363L95.8454 182.579L170.792 139.363V54.4381ZM134.859 74.5389L94.9551 51.9258L54.7794 74.5389V119.499L95.2266 142.378L134.859 119.499V74.5389Z" fill="url(#paint14_linear_2320_340857)"/>
</g>
<mask id="mask3_2320_340857" style="mask-type:alpha" maskUnits="userSpaceOnUse" x="31" y="20" width="65" height="54">
<path d="M37.2615 64.1674L50.4637 71.7371C54.0203 73.7763 58.4385 73.747 62.0061 71.6606L90.0328 55.2704C93.5683 53.2028 95.7205 49.4351 95.6684 45.4044L95.4835 31.1081C95.3736 22.6029 86.0516 17.4017 78.5202 21.6435L37.4761 44.7604C29.8398 49.0612 29.7206 59.8438 37.2615 64.1674Z" fill="url(#paint15_linear_2320_340857)"/>
</mask>
<g mask="url(#mask3_2320_340857)">
<path fill-rule="evenodd" clip-rule="evenodd" d="M19.7793 61.0209C19.7793 56.9518 21.9683 53.1973 25.5095 51.1928L89.695 14.8612C93.1362 12.9133 97.3457 12.9072 100.793 14.8451L165.454 51.1987C169.011 53.1986 171.213 56.962 171.213 61.0429V132.77C171.213 136.843 169.02 140.6 165.475 142.603L100.338 179.406C96.8601 181.371 92.6024 181.352 89.1415 179.357L25.4313 142.62C21.9341 140.603 19.7793 136.873 19.7793 132.837V61.0209ZM55.7119 81.118C55.7119 77.0508 57.8989 73.2978 61.4374 71.2926L90.0671 55.0686C93.5109 53.1171 97.7249 53.111 101.174 55.0525L130.038 71.2984C133.592 73.2991 135.792 77.0611 135.792 81.14V112.91C135.792 116.981 133.602 120.736 130.059 122.74L100.962 139.199C97.4812 141.168 93.2189 141.149 89.7556 139.15L61.3591 122.757C57.8646 120.74 55.7119 117.011 55.7119 112.976V81.118Z" fill="url(#paint16_linear_2320_340857)"/>
</g>
<path d="M95.8326 152.823L46.7197 125.184V70.2333L95.4985 42.27L145.28 70.2333V125.184L95.8326 152.823Z" fill="#E1E1E1"/>
<path d="M90.3623 144.736L56.6168 125.903C53.0423 123.908 50.8271 120.135 50.8271 116.041V79.2864C50.8271 75.2249 53.0081 71.4762 56.5389 69.4688L90.0158 50.4362C93.4463 48.4858 97.6461 48.4676 101.093 50.388L135.376 69.4865C138.955 71.4802 141.174 75.2556 141.174 79.3523V116.019C141.174 120.125 138.946 123.907 135.356 125.897L101.341 144.752C97.925 146.646 93.7729 146.64 90.3623 144.736Z" fill="url(#paint17_linear_2320_340857)"/>
<path d="M20.0264 128.07V67.4406C20.0264 62.1711 25.6289 58.791 30.2904 61.2482L42.9838 67.939C45.2815 69.1501 46.7197 71.534 46.7197 74.1314V120.662C46.7197 123.151 45.3978 125.453 43.2479 126.708L30.5546 134.116C25.888 136.839 20.0264 133.473 20.0264 128.07Z" fill="url(#paint18_linear_2320_340857)"/>
<path d="M171.975 62.3006L171.975 133.127C171.975 136.138 168.773 138.069 166.109 136.665L147.416 126.812C146.103 126.12 145.281 124.757 145.281 123.273L145.281 73.2097C145.281 71.7873 146.037 70.4719 147.265 69.755L165.958 58.8458C168.625 57.2896 171.975 59.2131 171.975 62.3006Z" fill="url(#paint19_linear_2320_340857)"/>
<path d="M165.549 143.76L102.886 179.175C100.244 180.669 96.9153 178.821 96.8241 175.812L96.1988 155.18C96.1548 153.727 96.9213 152.374 98.1968 151.653L142.617 126.547C143.838 125.857 145.343 125.85 146.583 126.529L165.45 136.851C168.203 138.357 168.258 142.229 165.549 143.76Z" fill="url(#paint20_linear_2320_340857)"/>
<path d="M89.5769 179.004L26.9145 143.588C24.2726 142.095 24.2423 138.349 26.8592 136.767L44.7991 125.921C46.0626 125.157 47.6429 125.13 48.9184 125.851L93.3386 150.957C94.5595 151.647 95.3181 152.919 95.338 154.31L95.6403 175.466C95.6844 178.553 92.2865 180.535 89.5769 179.004Z" fill="url(#paint21_linear_2320_340857)"/>
<path d="M48.9151 142.248C48.6087 143.391 46.9513 143.391 46.6449 142.248L44.9959 136.098C44.8884 135.697 44.5684 135.383 44.1587 135.278L37.8756 133.664C36.7081 133.364 36.7081 131.742 37.8756 131.442L44.1587 129.827C44.5684 129.722 44.8884 129.409 44.9959 129.008L46.6449 122.857C46.9513 121.714 48.6087 121.714 48.9151 122.857L50.5641 129.008C50.6716 129.409 50.9916 129.722 51.4013 129.827L57.6843 131.442C58.8519 131.742 58.8519 133.364 57.6843 133.664L51.4013 135.278C50.9916 135.383 50.6716 135.697 50.5641 136.098L48.9151 142.248Z" fill="white"/>
<path d="M48.9151 142.248C48.6087 143.391 46.9513 143.391 46.6449 142.248L44.9959 136.098C44.8884 135.697 44.5684 135.383 44.1587 135.278L37.8756 133.664C36.7081 133.364 36.7081 131.742 37.8756 131.442L44.1587 129.827C44.5684 129.722 44.8884 129.409 44.9959 129.008L46.6449 122.857C46.9513 121.714 48.6087 121.714 48.9151 122.857L50.5641 129.008C50.6716 129.409 50.9916 129.722 51.4013 129.827L57.6843 131.442C58.8519 131.742 58.8519 133.364 57.6843 133.664L51.4013 135.278C50.9916 135.383 50.6716 135.697 50.5641 136.098L48.9151 142.248Z" fill="white"/>
<g style="mix-blend-mode:overlay">
<path fill-rule="evenodd" clip-rule="evenodd" d="M47.7451 125.184L96.858 152.823L146.305 125.184V70.2333L96.5239 42.27L47.7451 70.2333V125.184ZM57.6403 125.903L91.3857 144.737C94.7964 146.64 98.9485 146.646 102.365 144.752L136.379 125.897C139.97 123.907 142.197 120.125 142.197 116.02V79.3528C142.197 75.2561 139.979 71.4807 136.4 69.487L102.117 50.3885C98.6695 48.4681 94.4698 48.4863 91.0392 50.4367L57.5623 69.4693C54.0315 71.4767 51.8506 75.2254 51.8506 79.2869V116.042C51.8506 120.135 54.0657 123.908 57.6403 125.903Z" fill="url(#paint22_radial_2320_340857)"/>
</g>
<g style="mix-blend-mode:overlay">
<path fill-rule="evenodd" clip-rule="evenodd" d="M46.7227 124.179L95.8356 151.817L145.283 124.179V69.2279L95.5015 41.2646L46.7227 69.2279V124.179ZM56.6178 124.897L90.3633 143.731C93.7739 145.634 97.926 145.64 101.342 143.747L135.357 124.891C138.947 122.901 141.175 119.119 141.175 115.014V78.3469C141.175 74.2503 138.956 70.4748 135.377 68.4812L101.094 49.3827C97.647 47.4622 93.4473 47.4805 90.0168 49.4308L56.5399 68.4634C53.0091 70.4708 50.8281 74.2195 50.8281 78.281V115.036C50.8281 119.13 53.0433 122.903 56.6178 124.897Z" fill="url(#paint23_radial_2320_340857)"/>
</g>
<g style="mix-blend-mode:soft-light">
<path d="M155.128 65.6507C147.185 70.2927 144.758 83.4883 144.537 89.5057C144.316 85.8523 143.478 77.2558 141.889 72.098C140.811 68.5986 135.001 64.5056 129.584 61.4299C126.781 60.1658 124.32 58.8646 122.693 57.9139C124.538 58.7431 127.017 59.9723 129.584 61.4299C134.385 63.5948 140.191 65.6507 144.537 65.6507C151.421 65.6507 166.381 58.7735 173 55.335C170.352 56.8393 163.071 61.0086 155.128 65.6507Z" fill="white"/>
</g>
<g style="mix-blend-mode:soft-light" opacity="0.5">
<path d="M37.2866 129.981C45.1475 125.206 47.3437 111.972 47.4592 105.952C47.7436 109.601 48.7321 118.182 50.4106 123.313C51.5494 126.794 57.4308 130.789 62.9006 133.773C65.7256 134.99 68.2084 136.25 69.8516 137.173C67.9928 136.375 65.4929 135.188 62.9006 133.773C58.0628 131.689 52.2215 129.731 47.8759 129.803C40.9929 129.919 33.0602 132.451 26.502 136C29.123 134.452 29.4257 134.755 37.2866 129.981Z" fill="white"/>
</g>
<g style="mix-blend-mode:overlay">
<path d="M40.3026 65.3763C46.6145 68.6233 56.4547 64.8805 60.5858 62.6032C58.2202 64.2141 52.7824 68.2101 49.9563 71.3064C48.0388 73.4072 47.6255 78.7934 47.7372 83.5171C48.015 85.8299 48.1301 87.937 48.1455 89.3665C47.961 87.8456 47.7901 85.7558 47.7372 83.5171C47.2613 79.5563 46.308 74.992 44.5606 72.1941C41.7929 67.7625 31.1585 60.8973 26.1873 58.0187C28.2624 59.1183 33.9906 62.1293 40.3026 65.3763Z" fill="white"/>
</g>
<g style="mix-blend-mode:soft-light" opacity="0.6">
<path d="M146.308 128.199C140.148 127.697 136.547 129.894 132.361 132.073C134.765 130.518 140.3 126.652 143.202 123.624C145.171 121.569 145.717 116.194 145.722 111.469C145.501 109.15 145.438 107.041 145.458 105.612C145.605 107.137 145.724 109.23 145.722 111.469C146.1 115.44 146.94 120.026 148.618 122.864C151.275 127.36 161.737 134.475 166.636 137.47C164.588 136.322 149.513 128.461 146.308 128.199Z" fill="white"/>
</g>
<g style="mix-blend-mode:overlay">
<path d="M151.13 67.4333C146.428 70.1639 144.992 77.926 144.861 81.4657C144.731 79.3166 144.235 74.2599 143.294 71.2258C142.657 69.1674 139.218 66.7597 136.012 64.9505C134.353 64.2069 132.896 63.4415 131.934 62.8823C133.025 63.37 134.492 64.0931 136.012 64.9505C138.853 66.2239 142.289 67.4333 144.861 67.4333C148.936 67.4333 157.789 63.3879 161.707 61.3652C160.14 62.2502 155.831 64.7027 151.13 67.4333Z" fill="white"/>
</g>
<g style="mix-blend-mode:soft-light" opacity="0.6">
<path d="M79.5732 142.879C83.2187 144.918 91.6552 148.995 96.238 148.995C100.821 148.995 110.993 144.176 115.507 141.767C110.646 144.547 100.404 150.996 98.3211 154.554C96.6125 157.473 96.1885 162.585 96.1871 165.966C96.2227 166.702 96.238 167.359 96.238 167.898C96.2068 167.365 96.1868 166.707 96.1871 165.966C96.0142 162.394 95.361 156.948 93.6341 153.998C91.551 150.44 83.3922 145.103 79.5732 142.879Z" fill="white"/>
</g>
</g>
<g style="mix-blend-mode:color">
<path d="M83.006 175.797L33.275 147.729C25.1067 143.118 20.0547 134.466 20.0547 125.086V70.3733C20.0547 61.0678 25.0279 52.4717 33.095 47.8334L82.3987 19.4855C90.3523 14.9125 100.127 14.8698 108.12 19.3731L158.707 47.873C166.885 52.4806 171.945 61.1386 171.945 70.5254V125.036C171.945 134.442 166.864 143.115 158.659 147.715L108.5 175.834C100.578 180.275 90.9143 180.261 83.006 175.797Z" fill="url(#paint24_linear_2320_340857)"/>
</g>
<path d="M176.184 41.472C176 42.176 175 42.176 174.816 41.472L173.821 37.6835C173.756 37.4365 173.564 37.2436 173.316 37.1787L169.528 36.1844C168.824 35.9997 168.824 35.0003 169.528 34.8156L173.316 33.8213C173.564 33.7564 173.756 33.5635 173.821 33.3165L174.816 29.528C175 28.824 176 28.824 176.184 29.528L177.179 33.3165C177.244 33.5635 177.436 33.7564 177.684 33.8213L181.472 34.8156C182.176 35.0003 182.176 35.9997 181.472 36.1844L177.684 37.1787C177.436 37.2436 177.244 37.4365 177.179 37.6835L176.184 41.472Z" fill="#E86A0F"/>
<mask id="path-46-outside-1_2320_340857" maskUnits="userSpaceOnUse" x="68.001" y="69" width="57" height="59" fill="black">
<rect fill="white" x="68.001" y="69" width="57" height="59"/>
<path fill-rule="evenodd" clip-rule="evenodd" d="M81.3915 74.4602C82.6061 72.8642 84.4366 72 86.6698 72C88.3992 72 89.861 72.6327 91.0092 73.7269C92.112 74.7779 92.8576 76.1857 93.3784 77.6807C94.2938 80.3089 94.6556 83.631 94.7571 86.9761L94.7668 87.2965H97.6348L97.6445 86.9761C97.746 83.631 98.1078 80.3089 99.0232 77.6807C99.544 76.1857 100.29 74.7779 101.392 73.7269C102.541 72.6327 104.002 72 105.732 72C107.965 72 109.795 72.8642 111.01 74.4602C112.166 75.9795 112.608 77.9541 112.608 79.9575C112.608 81.637 112.084 83.9572 111.538 85.9687C111.131 87.4638 110.677 88.9125 110.312 90.0203L110.22 90.3011L110.489 90.4241C112.085 91.1548 114.373 92.4231 116.443 94.3986C119.08 96.9157 121.401 100.627 121.401 105.776C121.401 111.13 119.071 115.858 114.668 119.195C110.31 122.499 104.045 124.358 96.2202 124.363H96.1813C88.3562 124.358 82.0913 122.499 77.7337 119.195C73.3308 115.858 71.001 111.13 71.001 105.776C71.001 100.627 73.3213 96.9157 75.9584 94.3986C78.0282 92.4231 80.3161 91.1548 81.913 90.4241L82.1817 90.3011L82.0893 90.0203C81.7247 88.9125 81.2702 87.4638 80.864 85.9687C80.3174 83.9572 79.7933 81.637 79.7933 79.9575C79.7933 77.9541 80.2353 75.9795 81.3915 74.4602ZM87.3181 107.092C88.8305 107.092 90.0567 105.74 90.0567 103.146C90.0567 100.551 88.8305 99.2002 87.3181 99.2002C85.8056 99.2002 84.5795 100.551 84.5795 103.146C84.5795 105.74 85.8056 107.092 87.3181 107.092ZM107.858 103.146C107.858 105.74 106.631 107.092 105.119 107.092C103.606 107.092 102.38 105.74 102.38 103.146C102.38 100.551 103.606 99.2002 105.119 99.2002C106.631 99.2002 107.858 100.551 107.858 103.146Z"/>
</mask>
<path d="M81.3915 74.4602L83.7788 76.277V76.277L81.3915 74.4602ZM91.0092 73.7269L88.9395 75.8987L88.9395 75.8987L91.0092 73.7269ZM93.3784 77.6807L90.5453 78.6675V78.6675L93.3784 77.6807ZM94.7571 86.9761L97.7557 86.8852V86.8852L94.7571 86.9761ZM94.7668 87.2965L91.7682 87.3875L91.8564 90.2965H94.7668V87.2965ZM97.6348 87.2965V90.2965H100.545L100.633 87.3874L97.6348 87.2965ZM97.6445 86.9761L94.6459 86.8852V86.8852L97.6445 86.9761ZM99.0232 77.6807L96.1902 76.6939L96.1902 76.6939L99.0232 77.6807ZM101.392 73.7269L99.3227 71.5552L99.3227 71.5552L101.392 73.7269ZM111.01 74.4602L108.623 76.277L108.623 76.277L111.01 74.4602ZM111.538 85.9687L108.643 85.1821V85.1821L111.538 85.9687ZM110.312 90.0203L107.463 89.0824L107.463 89.0824L110.312 90.0203ZM110.22 90.3011L107.37 89.3631L106.531 91.9123L108.972 93.029L110.22 90.3011ZM110.489 90.4241L111.737 87.6961L110.489 90.4241ZM116.443 94.3986L114.372 96.5688L114.372 96.5688L116.443 94.3986ZM114.668 119.195L116.48 121.586L114.668 119.195ZM96.2202 124.363V127.363H96.2225L96.2202 124.363ZM96.1813 124.363L96.1791 127.363H96.1813V124.363ZM77.7337 119.195L75.9214 121.586H75.9214L77.7337 119.195ZM75.9584 94.3986L73.8871 92.2285H73.8871L75.9584 94.3986ZM81.913 90.4241L80.6646 87.6961L80.6646 87.6961L81.913 90.4241ZM82.1817 90.3011L83.4301 93.029L85.8704 91.9123L85.0313 89.3631L82.1817 90.3011ZM82.0893 90.0203L84.9389 89.0824L84.9389 89.0823L82.0893 90.0203ZM80.864 85.9687L83.759 85.1821V85.1821L80.864 85.9687ZM86.6698 69C83.6034 69 80.8461 70.223 79.0042 72.6434L83.7788 76.277C84.3661 75.5053 85.2697 75 86.6698 75V69ZM93.0789 71.5552C91.3905 69.9461 89.194 69 86.6698 69V75C87.6045 75 88.3315 75.3192 88.9395 75.8987L93.0789 71.5552ZM96.2114 76.6939C95.6021 74.9447 94.6506 73.0531 93.0789 71.5552L88.9395 75.8987C89.5733 76.5027 90.1131 77.4267 90.5453 78.6675L96.2114 76.6939ZM97.7557 86.8852C97.6514 83.4468 97.2791 79.7591 96.2114 76.6939L90.5453 78.6675C91.3085 80.8587 91.6598 83.8151 91.7585 87.0671L97.7557 86.8852ZM97.7654 87.2055L97.7557 86.8852L91.7585 87.0671L91.7682 87.3875L97.7654 87.2055ZM97.6348 84.2965H94.7668V90.2965H97.6348V84.2965ZM94.6459 86.8852L94.6362 87.2056L100.633 87.3874L100.643 87.0671L94.6459 86.8852ZM96.1902 76.6939C95.1225 79.7591 94.7502 83.4468 94.6459 86.8852L100.643 87.0671C100.742 83.8151 101.093 80.8587 101.856 78.6675L96.1902 76.6939ZM99.3227 71.5552C97.751 73.0531 96.7995 74.9447 96.1902 76.6939L101.856 78.6675C102.288 77.4267 102.828 76.5027 103.462 75.8987L99.3227 71.5552ZM105.732 69C103.208 69 101.011 69.9461 99.3227 71.5552L103.462 75.8987C104.07 75.3192 104.797 75 105.732 75V69ZM113.397 72.6434C111.555 70.223 108.798 69 105.732 69V75C107.132 75 108.036 75.5053 108.623 76.277L113.397 72.6434ZM115.608 79.9575C115.608 77.567 115.088 74.8649 113.397 72.6434L108.623 76.277C109.245 77.0941 109.608 78.3412 109.608 79.9575H115.608ZM114.433 86.7554C114.977 84.7537 115.608 82.0822 115.608 79.9575H109.608C109.608 81.1917 109.192 83.1607 108.643 85.1821L114.433 86.7554ZM113.162 90.9583C113.537 89.8201 114.008 88.3179 114.433 86.7554L108.643 85.1821C108.255 86.6096 107.817 88.0049 107.463 89.0824L113.162 90.9583ZM113.069 91.239L113.162 90.9583L107.463 89.0824L107.37 89.3631L113.069 91.239ZM111.737 87.6961L111.468 87.5731L108.972 93.029L109.24 93.152L111.737 87.6961ZM118.515 92.2285C116.125 89.9481 113.521 88.5123 111.737 87.6961L109.24 93.152C110.65 93.7973 112.621 94.8981 114.372 96.5688L118.515 92.2285ZM124.401 105.776C124.401 99.6213 121.595 95.1691 118.515 92.2285L114.372 96.5688C116.565 98.6622 118.401 101.633 118.401 105.776H124.401ZM116.48 121.586C121.624 117.687 124.401 112.078 124.401 105.776H118.401C118.401 110.182 116.518 114.028 112.856 116.804L116.48 121.586ZM96.2225 127.363C104.486 127.357 111.453 125.397 116.48 121.586L112.856 116.804C109.168 119.6 103.605 121.358 96.218 121.363L96.2225 127.363ZM96.1813 127.363H96.2202V121.363H96.1813V127.363ZM75.9214 121.586C80.9487 125.397 87.9155 127.357 96.1791 127.363L96.1836 121.363C88.7968 121.358 83.234 119.6 79.546 116.804L75.9214 121.586ZM68.001 105.776C68.001 112.078 70.7778 117.687 75.9214 121.586L79.546 116.804C75.8838 114.028 74.001 110.182 74.001 105.776H68.001ZM73.8871 92.2285C70.8062 95.1691 68.001 99.6213 68.001 105.776H74.001C74.001 101.633 75.8365 98.6622 78.0298 96.5688L73.8871 92.2285ZM80.6646 87.6961C78.881 88.5123 76.2763 89.9481 73.8871 92.2285L78.0298 96.5688C79.7801 94.8981 81.7513 93.7973 83.1613 93.152L80.6646 87.6961ZM80.9334 87.5731L80.6646 87.6961L83.1613 93.152L83.4301 93.029L80.9334 87.5731ZM79.2397 90.9583L79.3321 91.2391L85.0313 89.3631L84.9389 89.0824L79.2397 90.9583ZM77.969 86.7554C78.3935 88.3179 78.8651 89.8201 79.2397 90.9583L84.9389 89.0823C84.5843 88.0049 84.1469 86.6096 83.759 85.1821L77.969 86.7554ZM76.7933 79.9575C76.7933 82.0822 77.425 84.7537 77.969 86.7554L83.759 85.1821C83.2097 83.1607 82.7933 81.1917 82.7933 79.9575H76.7933ZM79.0042 72.6434C77.3136 74.8649 76.7933 77.567 76.7933 79.9575H82.7933C82.7933 78.3412 83.157 77.0941 83.7788 76.277L79.0042 72.6434ZM87.0567 103.146C87.0567 104.004 86.8509 104.297 86.8528 104.294C86.8592 104.285 86.9104 104.224 87.0203 104.168C87.1313 104.111 87.2407 104.092 87.3181 104.092V110.092C89.0541 110.092 90.6153 109.28 91.6563 107.889C92.6494 106.563 93.0567 104.882 93.0567 103.146H87.0567ZM87.3181 102.2C87.2407 102.2 87.1313 102.181 87.0203 102.124C86.9104 102.068 86.8592 102.006 86.8528 101.998C86.8509 101.995 87.0567 102.287 87.0567 103.146H93.0567C93.0567 101.41 92.6494 99.7292 91.6563 98.4025C90.6153 97.0116 89.0541 96.2002 87.3181 96.2002V102.2ZM87.5795 103.146C87.5795 102.287 87.7852 101.995 87.7833 101.998C87.7769 102.006 87.7257 102.068 87.6159 102.124C87.5049 102.181 87.3954 102.2 87.3181 102.2V96.2002C85.582 96.2002 84.0208 97.0116 82.9798 98.4024C81.9867 99.7292 81.5795 101.41 81.5795 103.146H87.5795ZM87.3181 104.092C87.3954 104.092 87.5049 104.111 87.6159 104.168C87.7257 104.224 87.7769 104.285 87.7833 104.294C87.7852 104.297 87.5795 104.004 87.5795 103.146H81.5795C81.5795 104.882 81.9867 106.563 82.9798 107.889C84.0208 109.28 85.582 110.092 87.3181 110.092V104.092ZM105.119 110.092C106.855 110.092 108.416 109.28 109.457 107.889C110.45 106.563 110.858 104.882 110.858 103.146H104.858C104.858 104.004 104.652 104.297 104.654 104.294C104.66 104.285 104.711 104.224 104.821 104.168C104.932 104.111 105.042 104.092 105.119 104.092V110.092ZM99.3803 103.146C99.3803 104.882 99.7876 106.563 100.781 107.889C101.822 109.28 103.383 110.092 105.119 110.092V104.092C105.196 104.092 105.306 104.111 105.417 104.168C105.527 104.224 105.578 104.285 105.584 104.294C105.586 104.297 105.38 104.004 105.38 103.146H99.3803ZM105.119 96.2002C103.383 96.2002 101.822 97.0116 100.781 98.4024C99.7876 99.7292 99.3803 101.41 99.3803 103.146H105.38C105.38 102.287 105.586 101.995 105.584 101.998C105.578 102.006 105.527 102.068 105.417 102.124C105.306 102.181 105.196 102.2 105.119 102.2V96.2002ZM110.858 103.146C110.858 101.41 110.45 99.7292 109.457 98.4024C108.416 97.0116 106.855 96.2002 105.119 96.2002V102.2C105.042 102.2 104.932 102.181 104.821 102.124C104.711 102.068 104.66 102.006 104.654 101.998C104.652 101.995 104.858 102.287 104.858 103.146H110.858Z" fill="url(#paint25_linear_2320_340857)" mask="url(#path-46-outside-1_2320_340857)"/>
<mask id="path-48-inside-2_2320_340857" fill="white">
<path fill-rule="evenodd" clip-rule="evenodd" d="M81.3915 74.4602C82.6061 72.8642 84.4366 72 86.6698 72C88.3992 72 89.861 72.6327 91.0092 73.7269C92.112 74.7779 92.8576 76.1857 93.3784 77.6807C94.2938 80.3089 94.6556 83.631 94.7571 86.9761L94.7668 87.2965H97.6348L97.6445 86.9761C97.746 83.631 98.1078 80.3089 99.0232 77.6807C99.544 76.1857 100.29 74.7779 101.392 73.7269C102.541 72.6327 104.002 72 105.732 72C107.965 72 109.795 72.8642 111.01 74.4602C112.166 75.9795 112.608 77.9541 112.608 79.9575C112.608 81.637 112.084 83.9572 111.538 85.9687C111.131 87.4638 110.677 88.9125 110.312 90.0203L110.22 90.3011L110.489 90.4241C112.085 91.1548 114.373 92.4231 116.443 94.3986C119.08 96.9157 121.401 100.627 121.401 105.776C121.401 111.13 119.071 115.858 114.668 119.195C110.31 122.499 104.045 124.358 96.2202 124.363H96.1813C88.3562 124.358 82.0913 122.499 77.7337 119.195C73.3308 115.858 71.001 111.13 71.001 105.776C71.001 100.627 73.3213 96.9157 75.9584 94.3986C78.0282 92.4231 80.3161 91.1548 81.913 90.4241L82.1817 90.3011L82.0893 90.0203C81.7247 88.9125 81.2702 87.4638 80.864 85.9687C80.3174 83.9572 79.7933 81.637 79.7933 79.9575C79.7933 77.9541 80.2353 75.9795 81.3915 74.4602ZM87.3181 107.092C88.8305 107.092 90.0567 105.74 90.0567 103.146C90.0567 100.551 88.8305 99.2002 87.3181 99.2002C85.8056 99.2002 84.5795 100.551 84.5795 103.146C84.5795 105.74 85.8056 107.092 87.3181 107.092ZM107.858 103.146C107.858 105.74 106.631 107.092 105.119 107.092C103.606 107.092 102.38 105.74 102.38 103.146C102.38 100.551 103.606 99.2002 105.119 99.2002C106.631 99.2002 107.858 100.551 107.858 103.146Z"/>
</mask>
<path fill-rule="evenodd" clip-rule="evenodd" d="M81.3915 74.4602C82.6061 72.8642 84.4366 72 86.6698 72C88.3992 72 89.861 72.6327 91.0092 73.7269C92.112 74.7779 92.8576 76.1857 93.3784 77.6807C94.2938 80.3089 94.6556 83.631 94.7571 86.9761L94.7668 87.2965H97.6348L97.6445 86.9761C97.746 83.631 98.1078 80.3089 99.0232 77.6807C99.544 76.1857 100.29 74.7779 101.392 73.7269C102.541 72.6327 104.002 72 105.732 72C107.965 72 109.795 72.8642 111.01 74.4602C112.166 75.9795 112.608 77.9541 112.608 79.9575C112.608 81.637 112.084 83.9572 111.538 85.9687C111.131 87.4638 110.677 88.9125 110.312 90.0203L110.22 90.3011L110.489 90.4241C112.085 91.1548 114.373 92.4231 116.443 94.3986C119.08 96.9157 121.401 100.627 121.401 105.776C121.401 111.13 119.071 115.858 114.668 119.195C110.31 122.499 104.045 124.358 96.2202 124.363H96.1813C88.3562 124.358 82.0913 122.499 77.7337 119.195C73.3308 115.858 71.001 111.13 71.001 105.776C71.001 100.627 73.3213 96.9157 75.9584 94.3986C78.0282 92.4231 80.3161 91.1548 81.913 90.4241L82.1817 90.3011L82.0893 90.0203C81.7247 88.9125 81.2702 87.4638 80.864 85.9687C80.3174 83.9572 79.7933 81.637 79.7933 79.9575C79.7933 77.9541 80.2353 75.9795 81.3915 74.4602ZM87.3181 107.092C88.8305 107.092 90.0567 105.74 90.0567 103.146C90.0567 100.551 88.8305 99.2002 87.3181 99.2002C85.8056 99.2002 84.5795 100.551 84.5795 103.146C84.5795 105.74 85.8056 107.092 87.3181 107.092ZM107.858 103.146C107.858 105.74 106.631 107.092 105.119 107.092C103.606 107.092 102.38 105.74 102.38 103.146C102.38 100.551 103.606 99.2002 105.119 99.2002C106.631 99.2002 107.858 100.551 107.858 103.146Z" fill="url(#paint26_linear_2320_340857)"/>
<path d="M81.3915 74.4602L82.1873 75.0658V75.0658L81.3915 74.4602ZM91.0092 73.7269L90.3193 74.4509L90.3193 74.4509L91.0092 73.7269ZM93.3784 77.6807L92.434 78.0097V78.0097L93.3784 77.6807ZM94.7571 86.9761L95.7566 86.9458V86.9458L94.7571 86.9761ZM94.7668 87.2965L93.7673 87.3268L93.7967 88.2965H94.7668V87.2965ZM97.6348 87.2965V88.2965H98.6049L98.6343 87.3268L97.6348 87.2965ZM97.6445 86.9761L96.645 86.9458V86.9458L97.6445 86.9761ZM99.0232 77.6807L98.0789 77.3518V77.3518L99.0232 77.6807ZM101.392 73.7269L100.702 73.003V73.003L101.392 73.7269ZM111.01 74.4602L110.214 75.0658V75.0658L111.01 74.4602ZM111.538 85.9687L110.573 85.7065L111.538 85.9687ZM110.312 90.0203L109.362 89.7077L109.362 89.7077L110.312 90.0203ZM110.22 90.3011L109.27 89.9884L108.99 90.8382L109.804 91.2104L110.22 90.3011ZM110.489 90.4241L110.905 89.5148L110.489 90.4241ZM116.443 94.3986L115.753 95.122L116.443 94.3986ZM114.668 119.195L115.272 119.992L114.668 119.195ZM96.2202 124.363V125.363H96.221L96.2202 124.363ZM96.1813 124.363L96.1806 125.363H96.1813V124.363ZM77.7337 119.195L77.1296 119.992H77.1296L77.7337 119.195ZM75.9584 94.3986L75.268 93.6753L75.9584 94.3986ZM81.913 90.4241L81.4969 89.5148H81.4969L81.913 90.4241ZM82.1817 90.3011L82.5979 91.2104L83.4113 90.8382L83.1316 89.9884L82.1817 90.3011ZM82.0893 90.0203L83.0392 89.7077L83.0392 89.7077L82.0893 90.0203ZM80.864 85.9687L81.829 85.7065V85.7065L80.864 85.9687ZM86.6698 71C84.1588 71 82.0194 71.9838 80.5957 73.8546L82.1873 75.0658C83.1928 73.7446 84.7143 73 86.6698 73V71ZM91.6991 73.003C90.3708 71.7372 88.6642 71 86.6698 71V73C88.1343 73 89.3511 73.5282 90.3193 74.4509L91.6991 73.003ZM94.3227 77.3518C93.7725 75.772 92.9582 74.203 91.6991 73.003L90.3193 74.4509C91.2658 75.3528 91.9428 76.5993 92.434 78.0097L94.3227 77.3518ZM95.7566 86.9458C95.6542 83.5696 95.2889 80.1256 94.3227 77.3518L92.434 78.0097C93.2987 80.4922 93.657 83.6923 93.7575 87.0064L95.7566 86.9458ZM95.7663 87.2662L95.7566 86.9458L93.7575 87.0064L93.7673 87.3268L95.7663 87.2662ZM97.6348 86.2965H94.7668V88.2965H97.6348V86.2965ZM96.645 86.9458L96.6353 87.2662L98.6343 87.3268L98.6441 87.0064L96.645 86.9458ZM98.0789 77.3518C97.1127 80.1256 96.7474 83.5696 96.645 86.9458L98.6441 87.0064C98.7446 83.6923 99.1029 80.4922 99.9676 78.0097L98.0789 77.3518ZM100.702 73.003C99.4434 74.203 98.6291 75.772 98.0789 77.3518L99.9676 78.0097C100.459 76.5993 101.136 75.3528 102.082 74.4509L100.702 73.003ZM105.732 71C103.737 71 102.031 71.7372 100.702 73.003L102.082 74.4509C103.05 73.5282 104.267 73 105.732 73V71ZM111.806 73.8546C110.382 71.9838 108.243 71 105.732 71V73C107.687 73 109.209 73.7446 110.214 75.0658L111.806 73.8546ZM113.608 79.9575C113.608 77.8251 113.14 75.608 111.806 73.8546L110.214 75.0658C111.192 76.351 111.608 78.0831 111.608 79.9575H113.608ZM112.503 86.2309C113.048 84.2227 113.608 81.7854 113.608 79.9575H111.608C111.608 81.4886 111.12 83.6917 110.573 85.7065L112.503 86.2309ZM111.262 90.333C111.63 89.2151 112.09 87.7485 112.503 86.2309L110.573 85.7065C110.172 87.179 109.724 88.61 109.362 89.7077L111.262 90.333ZM111.17 90.6137L111.262 90.333L109.362 89.7077L109.27 89.9884L111.17 90.6137ZM110.905 89.5148L110.636 89.3918L109.804 91.2104L110.072 91.3334L110.905 89.5148ZM117.134 93.6753C114.957 91.5981 112.564 90.274 110.905 89.5148L110.072 91.3334C111.607 92.0356 113.789 93.2481 115.753 95.122L117.134 93.6753ZM122.401 105.776C122.401 100.292 119.919 96.3335 117.134 93.6753L115.753 95.122C118.242 97.4979 120.401 100.962 120.401 105.776H122.401ZM115.272 119.992C119.922 116.467 122.401 111.446 122.401 105.776H120.401C120.401 110.814 118.22 115.248 114.064 118.398L115.272 119.992ZM96.221 125.363C104.192 125.357 110.691 123.465 115.272 119.992L114.064 118.398C109.929 121.532 103.899 123.358 96.2195 123.363L96.221 125.363ZM96.1813 125.363H96.2202V123.363H96.1813V125.363ZM77.1296 119.992C81.7104 123.465 88.2093 125.357 96.1806 125.363L96.1821 123.363C88.5031 123.358 82.4722 121.532 78.3378 118.398L77.1296 119.992ZM70.001 105.776C70.001 111.446 72.4798 116.467 77.1296 119.992L78.3378 118.398C74.1818 115.248 72.001 110.814 72.001 105.776H70.001ZM75.268 93.6753C72.483 96.3335 70.001 100.292 70.001 105.776H72.001C72.001 100.962 74.1597 97.4979 76.6489 95.122L75.268 93.6753ZM81.4969 89.5148C79.8378 90.274 77.4442 91.5981 75.268 93.6753L76.6489 95.122C78.6122 93.2481 80.7945 92.0356 82.3291 91.3334L81.4969 89.5148ZM81.7656 89.3918L81.4969 89.5148L82.3291 91.3334L82.5979 91.2104L81.7656 89.3918ZM81.1395 90.333L81.2319 90.6138L83.1316 89.9884L83.0392 89.7077L81.1395 90.333ZM79.899 86.2309C80.3113 87.7485 80.7715 89.2151 81.1395 90.333L83.0392 89.7077C82.6779 88.61 82.2291 87.1791 81.829 85.7065L79.899 86.2309ZM78.7933 79.9575C78.7933 81.7854 79.3533 84.2227 79.899 86.2309L81.829 85.7065C81.2815 83.6917 80.7933 81.4886 80.7933 79.9575H78.7933ZM80.5957 73.8546C79.2614 75.608 78.7933 77.8251 78.7933 79.9575H80.7933C80.7933 78.0831 81.2092 76.351 82.1873 75.0658L80.5957 73.8546ZM89.0567 103.146C89.0567 104.297 88.7837 105.052 88.454 105.492C88.1402 105.912 87.7477 106.092 87.3181 106.092V108.092C88.4009 108.092 89.3777 107.596 90.0551 106.691C90.7165 105.807 91.0567 104.589 91.0567 103.146H89.0567ZM87.3181 100.2C87.7477 100.2 88.1402 100.38 88.454 100.799C88.7837 101.24 89.0567 101.995 89.0567 103.146H91.0567C91.0567 101.702 90.7165 100.485 90.0551 99.6009C89.3777 98.6959 88.4009 98.2002 87.3181 98.2002V100.2ZM85.5795 103.146C85.5795 101.995 85.8524 101.24 86.1822 100.799C86.4959 100.38 86.8884 100.2 87.3181 100.2V98.2002C86.2352 98.2002 85.2584 98.6959 84.581 99.6009C83.9196 100.485 83.5795 101.702 83.5795 103.146H85.5795ZM87.3181 106.092C86.8884 106.092 86.4959 105.912 86.1822 105.492C85.8524 105.052 85.5795 104.297 85.5795 103.146H83.5795C83.5795 104.589 83.9196 105.807 84.581 106.691C85.2584 107.596 86.2352 108.092 87.3181 108.092V106.092ZM105.119 108.092C106.202 108.092 107.179 107.596 107.856 106.691C108.517 105.807 108.858 104.589 108.858 103.146H106.858C106.858 104.297 106.585 105.052 106.255 105.492C105.941 105.912 105.549 106.092 105.119 106.092V108.092ZM101.38 103.146C101.38 104.589 101.72 105.807 102.382 106.691C103.059 107.596 104.036 108.092 105.119 108.092V106.092C104.689 106.092 104.297 105.912 103.983 105.492C103.653 105.052 103.38 104.297 103.38 103.146H101.38ZM105.119 98.2002C104.036 98.2002 103.059 98.6959 102.382 99.6009C101.72 100.485 101.38 101.702 101.38 103.146H103.38C103.38 101.995 103.653 101.24 103.983 100.799C104.297 100.38 104.689 100.2 105.119 100.2V98.2002ZM108.858 103.146C108.858 101.702 108.517 100.485 107.856 99.6009C107.179 98.6959 106.202 98.2002 105.119 98.2002V100.2C105.549 100.2 105.941 100.38 106.255 100.799C106.585 101.24 106.858 101.995 106.858 103.146H108.858Z" fill="#FCB77A" mask="url(#path-48-inside-2_2320_340857)"/>
<path d="M85.118 100.002C85.6737 99.2591 86.4548 98.8691 87.319 98.8691C88.1831 98.8691 88.9643 99.2591 89.52 100.002C90.0703 100.737 90.388 101.8 90.388 103.145C90.388 104.491 90.0703 105.554 89.52 106.289C88.9643 107.031 88.1831 107.421 87.319 107.421C86.4548 107.421 85.6737 107.031 85.118 106.289C84.5676 105.554 84.25 104.491 84.25 103.145C84.25 101.8 84.5676 100.737 85.118 100.002Z" fill="#E47C02"/>
<path d="M102.919 100.002C103.475 99.2591 104.256 98.8691 105.12 98.8691C105.984 98.8691 106.765 99.2591 107.321 100.002C107.871 100.737 108.189 101.8 108.189 103.145C108.189 104.491 107.871 105.554 107.321 106.289C106.765 107.031 105.984 107.421 105.12 107.421C104.256 107.421 103.475 107.031 102.919 106.289C102.368 105.554 102.051 104.491 102.051 103.145C102.051 101.8 102.368 100.737 102.919 100.002Z" fill="#E47C02"/>
<path d="M85.118 100.002C85.6737 99.2591 86.4548 98.8691 87.319 98.8691C88.1831 98.8691 88.9643 99.2591 89.52 100.002C90.0703 100.737 90.388 101.8 90.388 103.145C90.388 104.491 90.0703 105.554 89.52 106.289C88.9643 107.031 88.1831 107.421 87.319 107.421C86.4548 107.421 85.6737 107.031 85.118 106.289C84.5676 105.554 84.25 104.491 84.25 103.145C84.25 101.8 84.5676 100.737 85.118 100.002Z" stroke="url(#paint27_linear_2320_340857)" stroke-width="5"/>
<path d="M102.919 100.002C103.475 99.2591 104.256 98.8691 105.12 98.8691C105.984 98.8691 106.765 99.2591 107.321 100.002C107.871 100.737 108.189 101.8 108.189 103.145C108.189 104.491 107.871 105.554 107.321 106.289C106.765 107.031 105.984 107.421 105.12 107.421C104.256 107.421 103.475 107.031 102.919 106.289C102.368 105.554 102.051 104.491 102.051 103.145C102.051 101.8 102.368 100.737 102.919 100.002Z" stroke="url(#paint28_linear_2320_340857)" stroke-width="5"/>
<path d="M85.118 100.002C85.6737 99.2591 86.4548 98.8691 87.319 98.8691C88.1831 98.8691 88.9643 99.2591 89.52 100.002C90.0703 100.737 90.388 101.8 90.388 103.145C90.388 104.491 90.0703 105.554 89.52 106.289C88.9643 107.031 88.1831 107.421 87.319 107.421C86.4548 107.421 85.6737 107.031 85.118 106.289C84.5676 105.554 84.25 104.491 84.25 103.145C84.25 101.8 84.5676 100.737 85.118 100.002Z" fill="#FCB77A"/>
<path d="M102.919 100.002C103.475 99.2591 104.256 98.8691 105.12 98.8691C105.984 98.8691 106.765 99.2591 107.321 100.002C107.871 100.737 108.189 101.8 108.189 103.145C108.189 104.491 107.871 105.554 107.321 106.289C106.765 107.031 105.984 107.421 105.12 107.421C104.256 107.421 103.475 107.031 102.919 106.289C102.368 105.554 102.051 104.491 102.051 103.145C102.051 101.8 102.368 100.737 102.919 100.002Z" fill="#FCB77A"/>
</g>
<path d="M48.9151 138.248C48.6087 139.391 46.9513 139.391 46.6449 138.248L44.9959 132.098C44.8884 131.697 44.5684 131.383 44.1587 131.278L37.8756 129.664C36.7081 129.364 36.7081 127.742 37.8756 127.442L44.1587 125.827C44.5684 125.722 44.8884 125.409 44.9959 125.008L46.6449 118.857C46.9513 117.714 48.6087 117.714 48.9151 118.857L50.5641 125.008C50.6716 125.409 50.9916 125.722 51.4013 125.827L57.6843 127.442C58.8519 127.742 58.8519 129.364 57.6843 129.664L51.4013 131.278C50.9916 131.383 50.6716 131.697 50.5641 132.098L48.9151 138.248Z" fill="white"/>
<g style="mix-blend-mode:soft-light" filter="url(#filter0_d_2320_340857)">
<ellipse rx="16.1282" ry="10.6342" transform="matrix(0.719525 0.694466 -0.808568 0.588402 129.203 61.4577)" fill="white"/>
</g>
<g style="mix-blend-mode:soft-light" filter="url(#filter1_d_2320_340857)">
<ellipse rx="10.9052" ry="7.36841" transform="matrix(0.683473 0.729976 -0.840955 0.541104 131.644 58.3314)" fill="white"/>
</g>
<defs>
<filter id="filter0_d_2320_340857" x="107.76" y="41.6255" width="42.8877" height="39.6641" filterUnits="userSpaceOnUse" color-interpolation-filters="sRGB">
<feFlood flood-opacity="0" result="BackgroundImageFix"/>
<feColorMatrix in="SourceAlpha" type="matrix" values="0 0 0 0 0 0 0 0 0 0 0 0 0 0 0 0 0 0 127 0" result="hardAlpha"/>
<feMorphology radius="3" operator="dilate" in="SourceAlpha" result="effect1_dropShadow_2320_340857"/>
<feOffset/>
<feGaussianBlur stdDeviation="2"/>
<feComposite in2="hardAlpha" operator="out"/>
<feColorMatrix type="matrix" values="0 0 0 0 1 0 0 0 0 1 0 0 0 0 1 0 0 0 0.41 0"/>
<feBlend mode="normal" in2="BackgroundImageFix" result="effect1_dropShadow_2320_340857"/>
<feBlend mode="normal" in="SourceGraphic" in2="effect1_dropShadow_2320_340857" result="shape"/>
</filter>
<filter id="filter1_d_2320_340857" x="114.95" y="42.4263" width="33.3867" height="31.8101" filterUnits="userSpaceOnUse" color-interpolation-filters="sRGB">
<feFlood flood-opacity="0" result="BackgroundImageFix"/>
<feColorMatrix in="SourceAlpha" type="matrix" values="0 0 0 0 0 0 0 0 0 0 0 0 0 0 0 0 0 0 127 0" result="hardAlpha"/>
<feMorphology radius="3" operator="dilate" in="SourceAlpha" result="effect1_dropShadow_2320_340857"/>
<feOffset/>
<feGaussianBlur stdDeviation="2"/>
<feComposite in2="hardAlpha" operator="out"/>
<feColorMatrix type="matrix" values="0 0 0 0 1 0 0 0 0 1 0 0 0 0 1 0 0 0 0.41 0"/>
<feBlend mode="normal" in2="BackgroundImageFix" result="effect1_dropShadow_2320_340857"/>
<feBlend mode="normal" in="SourceGraphic" in2="effect1_dropShadow_2320_340857" result="shape"/>
</filter>
<linearGradient id="paint0_linear_2320_340857" x1="126.865" y1="52.6341" x2="90.7159" y2="149.018" gradientUnits="userSpaceOnUse">
<stop stop-color="#B6B6B6"/>
<stop offset="1" stop-color="#8E8E8E" stop-opacity="0"/>
</linearGradient>
<linearGradient id="paint1_linear_2320_340857" x1="150.263" y1="52.3197" x2="97.1868" y2="29.531" gradientUnits="userSpaceOnUse">
<stop stop-color="white" stop-opacity="0"/>
<stop offset="0.512588" stop-color="white"/>
<stop offset="1" stop-color="white"/>
</linearGradient>
<linearGradient id="paint2_linear_2320_340857" x1="57.799" y1="39.7398" x2="137.507" y2="146.87" gradientUnits="userSpaceOnUse">
<stop stop-color="white" stop-opacity="0"/>
<stop offset="0.512588" stop-color="white"/>
<stop offset="1" stop-color="white"/>
</linearGradient>
<linearGradient id="paint3_linear_2320_340857" x1="63.4107" y1="-5.19646" x2="51.4282" y2="77.256" gradientUnits="userSpaceOnUse">
<stop stop-color="#FD9B13"/>
<stop offset="1" stop-color="#FD9B13" stop-opacity="0"/>
</linearGradient>
<linearGradient id="paint4_linear_2320_340857" x1="153.864" y1="180.285" x2="87.9981" y2="0.91686" gradientUnits="userSpaceOnUse">
<stop stop-color="#B6B6B6"/>
<stop offset="1" stop-color="#8E8E8E" stop-opacity="0"/>
</linearGradient>
<linearGradient id="paint5_linear_2320_340857" x1="130.823" y1="47.6441" x2="91.1193" y2="155.136" gradientUnits="userSpaceOnUse">
<stop stop-color="#B6B6B6"/>
<stop offset="1" stop-color="#8E8E8E" stop-opacity="0"/>
</linearGradient>
<linearGradient id="paint6_linear_2320_340857" x1="6.09526" y1="83.44" x2="189.532" y2="-45.0524" gradientUnits="userSpaceOnUse">
<stop stop-color="#AFAFAF"/>
<stop offset="1" stop-color="#CECECE" stop-opacity="0"/>
</linearGradient>
<linearGradient id="paint7_linear_2320_340857" x1="166.841" y1="72.9228" x2="143.672" y2="175.15" gradientUnits="userSpaceOnUse">
<stop stop-color="#8B8B8B"/>
<stop offset="1" stop-color="#B7B7B7" stop-opacity="0"/>
</linearGradient>
<linearGradient id="paint8_linear_2320_340857" x1="128.411" y1="180.497" x2="-73.3973" y2="81.8954" gradientUnits="userSpaceOnUse">
<stop stop-color="#BEBEBE"/>
<stop offset="1" stop-color="#CECECE" stop-opacity="0"/>
</linearGradient>
<linearGradient id="paint9_linear_2320_340857" x1="38.508" y1="165.888" x2="21.7786" y2="-54.2673" gradientUnits="userSpaceOnUse">
<stop stop-color="#929292"/>
<stop offset="1" stop-color="#CECECE" stop-opacity="0"/>
</linearGradient>
<radialGradient id="paint10_radial_2320_340857" cx="0" cy="0" r="1" gradientUnits="userSpaceOnUse" gradientTransform="translate(119.612 48.3001) rotate(130.327) scale(93.5997 81.9882)">
<stop stop-color="white"/>
<stop offset="1" stop-color="white" stop-opacity="0"/>
</radialGradient>
<radialGradient id="paint11_radial_2320_340857" cx="0" cy="0" r="1" gradientUnits="userSpaceOnUse" gradientTransform="translate(118.589 47.2948) rotate(130.327) scale(93.5997 81.9882)">
<stop stop-color="white"/>
<stop offset="1" stop-color="white" stop-opacity="0"/>
</radialGradient>
<linearGradient id="paint12_linear_2320_340857" x1="126.865" y1="52.6341" x2="90.7159" y2="149.018" gradientUnits="userSpaceOnUse">
<stop stop-color="#B6B6B6"/>
<stop offset="1" stop-color="#8E8E8E" stop-opacity="0"/>
</linearGradient>
<linearGradient id="paint13_linear_2320_340857" x1="150.263" y1="52.3197" x2="97.1868" y2="29.531" gradientUnits="userSpaceOnUse">
<stop stop-color="white" stop-opacity="0"/>
<stop offset="0.512588" stop-color="white"/>
<stop offset="1" stop-color="white"/>
</linearGradient>
<linearGradient id="paint14_linear_2320_340857" x1="57.799" y1="39.7398" x2="137.507" y2="146.87" gradientUnits="userSpaceOnUse">
<stop stop-color="white" stop-opacity="0"/>
<stop offset="0.512588" stop-color="white"/>
<stop offset="1" stop-color="white"/>
</linearGradient>
<linearGradient id="paint15_linear_2320_340857" x1="63.4107" y1="-5.19646" x2="51.4282" y2="77.256" gradientUnits="userSpaceOnUse">
<stop stop-color="#FD9B13"/>
<stop offset="1" stop-color="#FD9B13" stop-opacity="0"/>
</linearGradient>
<linearGradient id="paint16_linear_2320_340857" x1="153.864" y1="180.285" x2="87.9981" y2="0.91686" gradientUnits="userSpaceOnUse">
<stop stop-color="#B6B6B6"/>
<stop offset="1" stop-color="#8E8E8E" stop-opacity="0"/>
</linearGradient>
<linearGradient id="paint17_linear_2320_340857" x1="130.823" y1="47.6441" x2="91.1193" y2="155.136" gradientUnits="userSpaceOnUse">
<stop stop-color="#B6B6B6"/>
<stop offset="1" stop-color="#8E8E8E" stop-opacity="0"/>
</linearGradient>
<linearGradient id="paint18_linear_2320_340857" x1="6.09526" y1="83.44" x2="189.532" y2="-45.0524" gradientUnits="userSpaceOnUse">
<stop stop-color="#AFAFAF"/>
<stop offset="1" stop-color="#CECECE" stop-opacity="0"/>
</linearGradient>
<linearGradient id="paint19_linear_2320_340857" x1="166.841" y1="72.9228" x2="143.672" y2="175.15" gradientUnits="userSpaceOnUse">
<stop stop-color="#8B8B8B"/>
<stop offset="1" stop-color="#B7B7B7" stop-opacity="0"/>
</linearGradient>
<linearGradient id="paint20_linear_2320_340857" x1="128.411" y1="180.497" x2="-73.3973" y2="81.8954" gradientUnits="userSpaceOnUse">
<stop stop-color="#BEBEBE"/>
<stop offset="1" stop-color="#CECECE" stop-opacity="0"/>
</linearGradient>
<linearGradient id="paint21_linear_2320_340857" x1="38.508" y1="165.888" x2="21.7786" y2="-54.2673" gradientUnits="userSpaceOnUse">
<stop stop-color="#929292"/>
<stop offset="1" stop-color="#CECECE" stop-opacity="0"/>
</linearGradient>
<radialGradient id="paint22_radial_2320_340857" cx="0" cy="0" r="1" gradientUnits="userSpaceOnUse" gradientTransform="translate(119.612 48.3001) rotate(130.327) scale(93.5997 81.9882)">
<stop stop-color="white"/>
<stop offset="1" stop-color="white" stop-opacity="0"/>
</radialGradient>
<radialGradient id="paint23_radial_2320_340857" cx="0" cy="0" r="1" gradientUnits="userSpaceOnUse" gradientTransform="translate(118.589 47.2948) rotate(130.327) scale(93.5997 81.9882)">
<stop stop-color="white"/>
<stop offset="1" stop-color="white" stop-opacity="0"/>
</radialGradient>
<linearGradient id="paint24_linear_2320_340857" x1="45.6676" y1="68.7245" x2="145.438" y2="112.087" gradientUnits="userSpaceOnUse">
<stop stop-color="#FF7A00"/>
<stop offset="1" stop-color="#3C1D00" stop-opacity="0"/>
</linearGradient>
<linearGradient id="paint25_linear_2320_340857" x1="110.501" y1="66" x2="99.001" y2="103" gradientUnits="userSpaceOnUse">
<stop stop-color="white"/>
<stop offset="1" stop-color="#FFDEC2"/>
</linearGradient>
<linearGradient id="paint26_linear_2320_340857" x1="91.501" y1="76" x2="96.001" y2="128" gradientUnits="userSpaceOnUse">
<stop stop-color="#ED8103"/>
<stop offset="1" stop-color="#D67300"/>
</linearGradient>
<linearGradient id="paint27_linear_2320_340857" x1="96.2194" y1="98.8691" x2="96.2194" y2="107.421" gradientUnits="userSpaceOnUse">
<stop stop-color="#E37B02"/>
<stop offset="1" stop-color="#DE7802"/>
</linearGradient>
<linearGradient id="paint28_linear_2320_340857" x1="96.2194" y1="98.8691" x2="96.2194" y2="107.421" gradientUnits="userSpaceOnUse">
<stop stop-color="#E37B02"/>
<stop offset="1" stop-color="#DE7802"/>
</linearGradient>
<clipPath id="clip0_2320_340857">
<rect width="192" height="192" fill="white"/>
</clipPath>
</defs>
</svg>
