<svg width="192" height="192" viewBox="0 0 192 192" fill="none" xmlns="http://www.w3.org/2000/svg">
<g clip-path="url(#clip0_2320_340543)">
<mask id="mask0_2320_340543" style="mask-type:alpha" maskUnits="userSpaceOnUse" x="11" y="-14" width="165" height="107">
<path d="M175.993 69.471C176.711 74.0678 118.241 91.1185 97.3244 92.9815C89.1492 93.6902 14.4963 73.8451 11.6517 69.471C8.80705 65.097 11.6519 -10.2763 97.3243 -14C175.993 -5.62159 175.229 64.8135 175.993 69.471Z" fill="#636363"/>
</mask>
<g mask="url(#mask0_2320_340543)">
<ellipse opacity="0.5" cx="96.5" cy="71" rx="76.5" ry="61" fill="url(#paint0_radial_2320_340543)"/>
</g>
<path d="M95.4661 182.397L17.0664 140.699V57.7929L94.9328 15.604L174.399 57.7929V140.699L95.4661 182.397Z" fill="#FFE97B"/>
<path d="M95.8573 143.151L54.3984 121.076V77.1844L95.5752 54.8491L137.598 77.1844V121.076L95.8573 143.151Z" fill="url(#paint1_linear_2320_340543)"/>
<mask id="mask1_2320_340543" style="mask-type:alpha" maskUnits="userSpaceOnUse" x="94" y="15" width="80" height="63">
<path d="M173.172 56.9153L135.839 77.0283L94.7728 54.4622L95.3061 15.7073L173.172 56.9153Z" fill="url(#paint2_linear_2320_340543)"/>
</mask>
<g mask="url(#mask1_2320_340543)">
<path fill-rule="evenodd" clip-rule="evenodd" d="M173.707 56.9149L95.3073 15.2166L16.3743 56.9149V139.821L95.8407 182.01L173.707 139.821V56.9149ZM136.375 76.538L94.9162 54.4624L53.1753 76.538V120.429L95.1982 142.765L136.375 120.429V76.538Z" fill="url(#paint3_linear_2320_340543)"/>
</g>
<mask id="mask2_2320_340543" style="mask-type:alpha" maskUnits="userSpaceOnUse" x="29" y="23" width="67" height="53">
<path d="M35.5246 66.7105L48.703 73.8102C52.398 75.8009 57.0163 75.7423 60.8118 73.6567L89.372 57.9629C93.2925 55.8086 95.7067 51.8384 95.6489 47.6404L95.4646 34.2433C95.3479 25.7642 85.7324 20.7227 77.7422 24.9512L36.188 46.9423C27.8837 51.3371 27.5127 62.3941 35.5246 66.7105Z" fill="url(#paint4_linear_2320_340543)"/>
</mask>
<g mask="url(#mask2_2320_340543)">
<path fill-rule="evenodd" clip-rule="evenodd" d="M16.8105 63.9644C16.8105 59.6263 19.2041 55.6423 23.0341 53.6052L89.7191 18.1376C93.1535 16.3109 97.27 16.3051 100.71 18.1221L167.891 53.6122C171.737 55.644 174.143 59.6369 174.143 63.9868V132.766C174.143 137.107 171.746 141.094 167.912 143.13L100.235 179.059C96.7636 180.902 92.5997 180.885 89.1438 179.012L22.9543 143.15C19.1687 141.099 16.8105 137.139 16.8105 132.834V63.9644ZM54.1426 83.5833C54.1426 79.2472 56.534 75.2646 60.3613 73.2267L90.1055 57.3888C93.5424 55.5587 97.6634 55.5529 101.106 57.3734L131.094 73.2337C134.938 75.2664 137.342 79.2578 137.342 83.6057V113.378C137.342 117.717 134.947 121.702 131.116 123.739L100.883 139.808C97.4084 141.654 93.2399 141.637 89.7814 139.761L60.2815 123.759C56.4986 121.707 54.1426 117.749 54.1426 113.446V83.5833Z" fill="url(#paint5_linear_2320_340543)"/>
</g>
<path d="M95.8251 152.963L44.7988 125.982V72.3368L95.478 45.0381L147.198 72.3368V125.982L95.8251 152.963Z" fill="#FECB54"/>
<path d="M90.4117 145.209L55.3525 126.824C51.4889 124.798 49.0684 120.795 49.0684 116.433V81.7949C49.0684 77.4645 51.4535 73.4862 55.2731 71.4457L90.0514 52.867C93.4753 51.0379 97.5822 51.0206 101.021 52.8208L136.643 71.4668C140.511 73.4915 142.935 77.4963 142.935 81.8621V116.41C142.935 120.785 140.501 124.796 136.622 126.817L101.281 145.224C97.8739 146.999 93.8139 146.993 90.4117 145.209Z" fill="url(#paint6_linear_2320_340543)"/>
<path d="M17.0664 140.699V58.2832L44.7996 72.0191V125.491L17.0664 140.699Z" fill="url(#paint7_linear_2320_340543)"/>
<path d="M174.934 57.7926L174.934 140.208L147.2 126.472L147.2 73.0002L174.934 57.7926Z" fill="url(#paint8_linear_2320_340543)"/>
<path d="M174.662 140.715L97.0664 181.923L96.1324 152.963L146.477 126.227L174.662 140.715Z" fill="url(#paint9_linear_2320_340543)"/>
<path d="M95.7304 181.923L18.1348 140.715L44.934 125.491L95.2787 152.227L95.7304 181.923Z" fill="url(#paint10_linear_2320_340543)"/>
<path d="M46.8424 135.391C46.615 136.203 45.385 136.203 45.1576 135.391L43.9339 131.019C43.8541 130.734 43.6166 130.512 43.3126 130.437L38.6498 129.29C37.7834 129.077 37.7834 127.923 38.6498 127.71L43.3126 126.563C43.6166 126.488 43.8541 126.266 43.9339 125.981L45.1576 121.609C45.385 120.797 46.615 120.797 46.8424 121.609L48.0661 125.981C48.1459 126.266 48.3834 126.488 48.6874 126.563L53.3502 127.71C54.2166 127.923 54.2166 129.077 53.3502 129.29L48.6874 130.437C48.3834 130.512 48.1459 130.734 48.0661 131.019L46.8424 135.391Z" fill="white"/>
<g style="mix-blend-mode:overlay">
<path fill-rule="evenodd" clip-rule="evenodd" d="M45.8652 125.981L96.8915 152.963L148.265 125.981V72.3363L96.5444 45.0376L45.8652 72.3363V125.981ZM56.415 126.824L91.4742 145.209C94.8764 146.993 98.9364 146.999 102.344 145.224L137.684 126.817C141.564 124.796 143.997 120.785 143.997 116.41V81.8621C143.997 77.4963 141.573 73.4915 137.705 71.4668L102.084 52.8208C98.6447 51.0206 94.5378 51.0379 91.1139 52.867L56.3356 71.4457C52.516 73.4862 50.1309 77.4645 50.1309 81.7949V116.433C50.1309 120.795 52.5514 124.798 56.415 126.824Z" fill="url(#paint11_radial_2320_340543)"/>
</g>
<g style="mix-blend-mode:overlay">
<path fill-rule="evenodd" clip-rule="evenodd" d="M95.829 151.982L44.8027 125V71.3553L95.4819 44.0566L147.202 71.3553V125L95.829 151.982ZM90.4117 144.228L55.3525 125.843C51.4889 123.816 49.0684 119.814 49.0684 115.451V80.8134C49.0684 76.4831 51.4535 72.5047 55.2731 70.4643L90.0514 51.8855C93.4753 50.0564 97.5822 50.0392 101.021 51.8394L111.749 57.4546L101.291 52.3313C98.292 50.8621 94.7794 50.8763 91.7926 52.3697L56.9187 69.8055C53.2914 71.6191 51 75.3265 51 79.382V110.828C51 114.912 53.3233 118.64 56.9894 120.44L92.1428 137.693C95.109 139.148 98.5814 139.153 101.552 137.705L136.985 120.432C140.307 118.813 142.533 115.611 142.935 111.991V115.429C142.935 119.803 140.501 123.815 136.622 125.835L101.281 144.243C97.8739 146.017 93.8139 146.012 90.4117 144.228ZM142.935 111.991V80.8807C142.935 76.5149 140.511 72.5101 136.643 70.4854L111.749 57.4546L137.004 69.8271C140.674 71.625 143 75.3552 143 79.4419V110.808C143 111.206 142.978 111.601 142.935 111.991Z" fill="url(#paint12_radial_2320_340543)"/>
</g>
<g style="mix-blend-mode:soft-light">
<path d="M95.4661 182.397L17.0664 140.699L95.4661 171.605L174.932 140.699L95.4661 182.397Z" fill="url(#paint13_radial_2320_340543)"/>
</g>
<g style="mix-blend-mode:overlay">
<path d="M95.4661 182.397L17.0664 140.699L95.4661 178.472L174.932 140.699L95.4661 182.397Z" fill="url(#paint14_radial_2320_340543)"/>
</g>
<g style="mix-blend-mode:soft-light">
<path d="M157.431 67.863C149.178 72.3947 146.656 85.2766 146.427 91.1511C146.198 87.5845 145.327 79.1924 143.676 74.1571C142.556 70.7409 136.519 66.7452 130.891 63.7426C127.979 62.5085 125.423 61.2382 123.732 60.3101C125.649 61.1196 128.224 62.3196 130.891 63.7426C135.879 65.856 141.912 67.863 146.427 67.863C153.579 67.863 169.122 61.1493 175.999 57.7925C173.248 59.2611 165.683 63.3313 157.431 67.863Z" fill="white"/>
</g>
<g style="mix-blend-mode:soft-light" opacity="0.5">
<path d="M34.9985 130.664C43.1656 126.003 45.4474 113.084 45.5674 107.206C45.8629 110.769 46.8899 119.146 48.6338 124.155C49.817 127.553 55.9275 131.453 61.6104 134.367C64.5454 135.555 67.1249 136.784 68.8321 137.686C66.9009 136.907 64.3037 135.747 61.6104 134.367C56.584 132.332 50.5152 130.42 46.0003 130.491C38.8491 130.604 23.4338 137.561 16.6201 141.025C19.3432 139.514 26.8313 135.325 34.9985 130.664Z" fill="white"/>
</g>
<g style="mix-blend-mode:overlay">
<path d="M38.1319 67.5947C44.6897 70.7645 54.9132 67.1107 59.2053 64.8875C56.7475 66.4601 51.098 70.3611 48.1617 73.3839C46.1695 75.4347 45.7401 80.6929 45.8561 85.3043C46.1448 87.5621 46.2644 89.6191 46.2804 91.0146C46.0887 89.53 45.9111 87.4898 45.8561 85.3043C45.3617 81.4376 44.3713 76.9818 42.5558 74.2505C39.6803 69.9242 28.6316 63.2221 23.4668 60.4119C25.6227 61.4854 31.5741 64.4248 38.1319 67.5947Z" fill="white"/>
</g>
<g style="mix-blend-mode:soft-light" opacity="0.6">
<path d="M148.268 128.925C141.868 128.434 138.126 130.579 133.777 132.706C136.275 131.189 142.026 127.415 145.041 124.458C147.086 122.452 147.654 117.205 147.659 112.592C147.43 110.329 147.364 108.27 147.385 106.874C147.538 108.363 147.661 110.406 147.659 112.592C148.052 116.469 148.925 120.945 150.668 123.716C153.429 128.105 164.298 135.051 169.387 137.975C167.26 136.854 151.598 129.18 148.268 128.925Z" fill="white"/>
</g>
<g style="mix-blend-mode:overlay">
<path d="M153.276 69.6035C148.392 72.2693 146.899 79.8468 146.764 83.3024C146.628 81.2044 146.112 76.2678 145.135 73.3059C144.473 71.2964 140.9 68.946 137.569 67.1797C135.845 66.4538 134.332 65.7066 133.332 65.1606C134.466 65.6368 135.99 66.3427 137.569 67.1797C140.521 68.4229 144.091 69.6035 146.764 69.6035C150.997 69.6035 160.195 65.6543 164.265 63.6797C162.637 64.5436 158.16 66.9378 153.276 69.6035Z" fill="white"/>
</g>
<g style="mix-blend-mode:soft-light" opacity="0.6">
<path d="M78.9316 143.256C82.7191 145.246 91.4843 149.226 96.2456 149.226C101.007 149.226 111.576 144.522 116.265 142.17C111.215 144.884 100.574 151.18 98.4098 154.654C96.6347 157.503 96.1942 162.494 96.1927 165.794C96.2298 166.513 96.2456 167.154 96.2456 167.68C96.2132 167.159 96.1924 166.517 96.1927 165.794C96.0131 162.307 95.3345 156.991 93.5403 154.111C91.376 150.637 82.8994 145.427 78.9316 143.256Z" fill="white"/>
</g>
<ellipse cx="108.065" cy="99.9549" rx="26.5325" ry="8.69167" fill="#FFDB44"/>
<mask id="path-27-outside-1_2320_340543" maskUnits="userSpaceOnUse" x="53" y="79.1992" width="90" height="38" fill="black">
<rect fill="white" x="53" y="79.1992" width="90" height="38"/>
<path fill-rule="evenodd" clip-rule="evenodd" d="M59.6464 105.86C59.7209 105.881 59.7961 105.9 59.872 105.92C60.8344 106.161 61.7967 106.341 62.7591 106.461C63.7215 106.582 64.5335 106.642 65.1951 106.642C66.8492 106.642 68.0521 106.386 68.804 105.875C69.5859 105.364 69.9768 104.552 69.9768 103.439C69.9768 102.386 69.7062 101.635 69.1649 101.183C68.6235 100.702 67.601 100.462 66.0973 100.462H57.2555V96.5821L58.0224 83.9059H76.8337L76.2473 90.4019H65.2853L65.0146 94.5521H68.3077C71.8264 94.5521 74.4278 95.334 76.1119 96.8978C77.7961 98.4617 78.6382 100.747 78.6382 103.755C78.6382 106.642 77.6307 108.973 75.6157 110.747C73.6308 112.521 70.6084 113.408 66.5484 113.408C65.7063 113.408 64.7139 113.348 63.5711 113.228C62.4584 113.138 61.3456 112.987 60.2329 112.777C59.1502 112.536 58.2029 112.236 57.3909 111.875V105.063C58.0539 105.367 58.8058 105.633 59.6464 105.86ZM63.3619 115.474C62.1775 115.377 60.9946 115.217 59.8136 114.993L59.7785 114.987L59.7436 114.979C58.5487 114.713 57.4529 114.371 56.4748 113.936L55.1353 113.341V102.717H55V96.5139L55.8992 81.6503H79.3021L78.3084 92.6574H72.2573C74.3722 93.0837 76.208 93.909 77.6467 95.245C78.0423 95.6123 78.3985 96.0055 78.717 96.4224C78.8782 93.811 79.3671 91.4559 80.2305 89.395C81.3464 86.7312 83.1484 84.6547 85.6144 83.2547C88.1132 81.8231 91.2318 81.1992 94.8066 81.1992C100.133 81.1992 104.493 82.5785 107.233 85.8932C108.365 87.2501 109.218 88.8321 109.82 90.6108C109.958 90.1949 110.11 89.7896 110.275 89.395C111.391 86.7311 113.193 84.6545 115.659 83.2546C118.158 81.823 121.277 81.1992 124.851 81.1992C130.178 81.1992 134.538 82.5785 137.278 85.8932C139.873 89.0039 141.001 93.2977 141.001 98.4316C141.001 103.545 139.869 107.831 137.282 110.965C134.542 114.283 130.18 115.664 124.851 115.664C121.282 115.664 118.17 115.057 115.676 113.663L115.659 113.654L115.642 113.644C113.187 112.215 111.39 110.129 110.275 107.468C110.108 107.07 109.956 106.661 109.816 106.241C109.215 108.016 108.364 109.6 107.237 110.965C104.498 114.283 100.136 115.664 94.8066 115.664C91.2372 115.664 88.1256 115.057 85.6314 113.663L85.6141 113.654L85.597 113.644C83.1949 112.245 81.4225 110.218 80.303 107.638C79.7029 109.47 78.643 111.085 77.1128 112.434C74.5446 114.726 70.8784 115.664 66.5484 115.664C65.6121 115.664 64.5462 115.598 63.3619 115.474ZM135.543 87.3343C133.407 84.748 129.843 83.4548 124.851 83.4548C121.513 83.4548 118.821 84.0412 116.776 85.2141C114.761 86.3569 113.288 88.0411 112.355 90.2665C111.423 92.492 110.957 95.2137 110.957 98.4316C110.957 101.65 111.423 104.371 112.355 106.597C113.288 108.822 114.761 110.521 116.776 111.694C118.821 112.837 121.513 113.408 124.851 113.408C129.843 113.408 133.407 112.115 135.543 109.529C137.678 106.943 138.745 103.243 138.745 98.4316C138.745 93.5897 137.678 89.8906 135.543 87.3343ZM105.498 87.3343C103.363 84.748 99.7989 83.4548 94.8066 83.4548C91.4684 83.4548 88.7767 84.0412 86.7317 85.2141C84.7168 86.3569 83.2431 88.0411 82.3108 90.2665C81.3785 92.492 80.9124 95.2137 80.9124 98.4316C80.9124 101.65 81.3785 104.371 82.3108 106.597C83.2431 108.822 84.7168 110.521 86.7317 111.694C88.7767 112.837 91.4684 113.408 94.8066 113.408C99.7989 113.408 103.363 112.115 105.498 109.529C107.633 106.943 108.701 103.243 108.701 98.4316C108.701 93.5897 107.633 89.8906 105.498 87.3343ZM57.6863 102.717H66.0973C66.7431 102.717 67.1887 102.77 67.4754 102.838C67.5624 102.858 67.624 102.877 67.665 102.892C67.6895 102.98 67.7213 103.152 67.7213 103.439C67.7213 103.734 67.6695 103.866 67.6514 103.904C67.6422 103.923 67.635 103.932 67.6292 103.939C67.623 103.946 67.6067 103.963 67.5696 103.987L67.5525 103.998L67.5356 104.01C67.356 104.132 66.7178 104.386 65.1951 104.386C64.6591 104.386 63.9469 104.337 63.0389 104.223C62.1713 104.115 61.3009 103.952 60.4273 103.734C59.6016 103.52 58.907 103.277 58.3307 103.012L57.6863 102.717ZM96.9206 103.11L96.9247 103.103C97.4069 102.287 97.7839 100.822 97.7839 98.4316C97.7839 95.999 97.403 94.5511 96.9364 93.7794L96.9264 93.7628L96.9166 93.746C96.6928 93.361 96.2403 92.9281 94.8066 92.9281C93.3946 92.9281 92.897 93.3503 92.6411 93.7638C92.1916 94.5494 91.8293 96.0084 91.8293 98.4316C91.8293 100.804 92.1852 102.277 92.6465 103.108C92.9039 103.519 93.4044 103.935 94.8066 103.935C96.2403 103.935 96.6928 103.502 96.9166 103.117L96.9206 103.11ZM90.7015 92.6123C91.4834 91.3191 92.8518 90.6725 94.8066 90.6725C96.7614 90.6725 98.1147 91.3191 98.8666 92.6123C99.6485 93.9055 100.039 95.8453 100.039 98.4316C100.039 100.988 99.6485 102.928 98.8666 104.251C98.1147 105.544 96.7614 106.191 94.8066 106.191C92.8518 106.191 91.4834 105.544 90.7015 104.251C89.9496 102.928 89.5737 100.988 89.5737 98.4316C89.5737 95.8453 89.9496 93.9055 90.7015 92.6123ZM126.965 103.11L126.969 103.103C127.452 102.287 127.829 100.822 127.829 98.4316C127.829 95.999 127.448 94.5511 126.981 93.7794L126.971 93.7628L126.961 93.746C126.737 93.361 126.285 92.9281 124.851 92.9281C123.439 92.9281 122.942 93.3502 122.686 93.7638C122.236 94.5494 121.874 96.0083 121.874 98.4316C121.874 100.804 122.23 102.277 122.691 103.108C122.949 103.519 123.449 103.935 124.851 103.935C126.285 103.935 126.737 103.502 126.961 103.117L126.965 103.11ZM120.746 92.6123C121.528 91.3191 122.896 90.6725 124.851 90.6725C126.806 90.6725 128.159 91.3191 128.911 92.6123C129.693 93.9055 130.084 95.8453 130.084 98.4316C130.084 100.988 129.693 102.928 128.911 104.251C128.159 105.544 126.806 106.191 124.851 106.191C122.896 106.191 121.528 105.544 120.746 104.251C119.994 102.928 119.618 100.988 119.618 98.4316C119.618 95.8453 119.994 93.9055 120.746 92.6123Z"/>
</mask>
<path fill-rule="evenodd" clip-rule="evenodd" d="M59.6464 105.86C59.7209 105.881 59.7961 105.9 59.872 105.92C60.8344 106.161 61.7967 106.341 62.7591 106.461C63.7215 106.582 64.5335 106.642 65.1951 106.642C66.8492 106.642 68.0521 106.386 68.804 105.875C69.5859 105.364 69.9768 104.552 69.9768 103.439C69.9768 102.386 69.7062 101.635 69.1649 101.183C68.6235 100.702 67.601 100.462 66.0973 100.462H57.2555V96.5821L58.0224 83.9059H76.8337L76.2473 90.4019H65.2853L65.0146 94.5521H68.3077C71.8264 94.5521 74.4278 95.334 76.1119 96.8978C77.7961 98.4617 78.6382 100.747 78.6382 103.755C78.6382 106.642 77.6307 108.973 75.6157 110.747C73.6308 112.521 70.6084 113.408 66.5484 113.408C65.7063 113.408 64.7139 113.348 63.5711 113.228C62.4584 113.138 61.3456 112.987 60.2329 112.777C59.1502 112.536 58.2029 112.236 57.3909 111.875V105.063C58.0539 105.367 58.8058 105.633 59.6464 105.86ZM63.3619 115.474C62.1775 115.377 60.9946 115.217 59.8136 114.993L59.7785 114.987L59.7436 114.979C58.5487 114.713 57.4529 114.371 56.4748 113.936L55.1353 113.341V102.717H55V96.5139L55.8992 81.6503H79.3021L78.3084 92.6574H72.2573C74.3722 93.0837 76.208 93.909 77.6467 95.245C78.0423 95.6123 78.3985 96.0055 78.717 96.4224C78.8782 93.811 79.3671 91.4559 80.2305 89.395C81.3464 86.7312 83.1484 84.6547 85.6144 83.2547C88.1132 81.8231 91.2318 81.1992 94.8066 81.1992C100.133 81.1992 104.493 82.5785 107.233 85.8932C108.365 87.2501 109.218 88.8321 109.82 90.6108C109.958 90.1949 110.11 89.7896 110.275 89.395C111.391 86.7311 113.193 84.6545 115.659 83.2546C118.158 81.823 121.277 81.1992 124.851 81.1992C130.178 81.1992 134.538 82.5785 137.278 85.8932C139.873 89.0039 141.001 93.2977 141.001 98.4316C141.001 103.545 139.869 107.831 137.282 110.965C134.542 114.283 130.18 115.664 124.851 115.664C121.282 115.664 118.17 115.057 115.676 113.663L115.659 113.654L115.642 113.644C113.187 112.215 111.39 110.129 110.275 107.468C110.108 107.07 109.956 106.661 109.816 106.241C109.215 108.016 108.364 109.6 107.237 110.965C104.498 114.283 100.136 115.664 94.8066 115.664C91.2372 115.664 88.1256 115.057 85.6314 113.663L85.6141 113.654L85.597 113.644C83.1949 112.245 81.4225 110.218 80.303 107.638C79.7029 109.47 78.643 111.085 77.1128 112.434C74.5446 114.726 70.8784 115.664 66.5484 115.664C65.6121 115.664 64.5462 115.598 63.3619 115.474ZM135.543 87.3343C133.407 84.748 129.843 83.4548 124.851 83.4548C121.513 83.4548 118.821 84.0412 116.776 85.2141C114.761 86.3569 113.288 88.0411 112.355 90.2665C111.423 92.492 110.957 95.2137 110.957 98.4316C110.957 101.65 111.423 104.371 112.355 106.597C113.288 108.822 114.761 110.521 116.776 111.694C118.821 112.837 121.513 113.408 124.851 113.408C129.843 113.408 133.407 112.115 135.543 109.529C137.678 106.943 138.745 103.243 138.745 98.4316C138.745 93.5897 137.678 89.8906 135.543 87.3343ZM105.498 87.3343C103.363 84.748 99.7989 83.4548 94.8066 83.4548C91.4684 83.4548 88.7767 84.0412 86.7317 85.2141C84.7168 86.3569 83.2431 88.0411 82.3108 90.2665C81.3785 92.492 80.9124 95.2137 80.9124 98.4316C80.9124 101.65 81.3785 104.371 82.3108 106.597C83.2431 108.822 84.7168 110.521 86.7317 111.694C88.7767 112.837 91.4684 113.408 94.8066 113.408C99.7989 113.408 103.363 112.115 105.498 109.529C107.633 106.943 108.701 103.243 108.701 98.4316C108.701 93.5897 107.633 89.8906 105.498 87.3343ZM57.6863 102.717H66.0973C66.7431 102.717 67.1887 102.77 67.4754 102.838C67.5624 102.858 67.624 102.877 67.665 102.892C67.6895 102.98 67.7213 103.152 67.7213 103.439C67.7213 103.734 67.6695 103.866 67.6514 103.904C67.6422 103.923 67.635 103.932 67.6292 103.939C67.623 103.946 67.6067 103.963 67.5696 103.987L67.5525 103.998L67.5356 104.01C67.356 104.132 66.7178 104.386 65.1951 104.386C64.6591 104.386 63.9469 104.337 63.0389 104.223C62.1713 104.115 61.3009 103.952 60.4273 103.734C59.6016 103.52 58.907 103.277 58.3307 103.012L57.6863 102.717ZM96.9206 103.11L96.9247 103.103C97.4069 102.287 97.7839 100.822 97.7839 98.4316C97.7839 95.999 97.403 94.5511 96.9364 93.7794L96.9264 93.7628L96.9166 93.746C96.6928 93.361 96.2403 92.9281 94.8066 92.9281C93.3946 92.9281 92.897 93.3503 92.6411 93.7638C92.1916 94.5494 91.8293 96.0084 91.8293 98.4316C91.8293 100.804 92.1852 102.277 92.6465 103.108C92.9039 103.519 93.4044 103.935 94.8066 103.935C96.2403 103.935 96.6928 103.502 96.9166 103.117L96.9206 103.11ZM90.7015 92.6123C91.4834 91.3191 92.8518 90.6725 94.8066 90.6725C96.7614 90.6725 98.1147 91.3191 98.8666 92.6123C99.6485 93.9055 100.039 95.8453 100.039 98.4316C100.039 100.988 99.6485 102.928 98.8666 104.251C98.1147 105.544 96.7614 106.191 94.8066 106.191C92.8518 106.191 91.4834 105.544 90.7015 104.251C89.9496 102.928 89.5737 100.988 89.5737 98.4316C89.5737 95.8453 89.9496 93.9055 90.7015 92.6123ZM126.965 103.11L126.969 103.103C127.452 102.287 127.829 100.822 127.829 98.4316C127.829 95.999 127.448 94.5511 126.981 93.7794L126.971 93.7628L126.961 93.746C126.737 93.361 126.285 92.9281 124.851 92.9281C123.439 92.9281 122.942 93.3502 122.686 93.7638C122.236 94.5494 121.874 96.0083 121.874 98.4316C121.874 100.804 122.23 102.277 122.691 103.108C122.949 103.519 123.449 103.935 124.851 103.935C126.285 103.935 126.737 103.502 126.961 103.117L126.965 103.11ZM120.746 92.6123C121.528 91.3191 122.896 90.6725 124.851 90.6725C126.806 90.6725 128.159 91.3191 128.911 92.6123C129.693 93.9055 130.084 95.8453 130.084 98.4316C130.084 100.988 129.693 102.928 128.911 104.251C128.159 105.544 126.806 106.191 124.851 106.191C122.896 106.191 121.528 105.544 120.746 104.251C119.994 102.928 119.618 100.988 119.618 98.4316C119.618 95.8453 119.994 93.9055 120.746 92.6123Z" fill="#FFDB44"/>
<path fill-rule="evenodd" clip-rule="evenodd" d="M59.6464 105.86C59.7209 105.881 59.7961 105.9 59.872 105.92C60.8344 106.161 61.7967 106.341 62.7591 106.461C63.7215 106.582 64.5335 106.642 65.1951 106.642C66.8492 106.642 68.0521 106.386 68.804 105.875C69.5859 105.364 69.9768 104.552 69.9768 103.439C69.9768 102.386 69.7062 101.635 69.1649 101.183C68.6235 100.702 67.601 100.462 66.0973 100.462H57.2555V96.5821L58.0224 83.9059H76.8337L76.2473 90.4019H65.2853L65.0146 94.5521H68.3077C71.8264 94.5521 74.4278 95.334 76.1119 96.8978C77.7961 98.4617 78.6382 100.747 78.6382 103.755C78.6382 106.642 77.6307 108.973 75.6157 110.747C73.6308 112.521 70.6084 113.408 66.5484 113.408C65.7063 113.408 64.7139 113.348 63.5711 113.228C62.4584 113.138 61.3456 112.987 60.2329 112.777C59.1502 112.536 58.2029 112.236 57.3909 111.875V105.063C58.0539 105.367 58.8058 105.633 59.6464 105.86ZM63.3619 115.474C62.1775 115.377 60.9946 115.217 59.8136 114.993L59.7785 114.987L59.7436 114.979C58.5487 114.713 57.4529 114.371 56.4748 113.936L55.1353 113.341V102.717H55V96.5139L55.8992 81.6503H79.3021L78.3084 92.6574H72.2573C74.3722 93.0837 76.208 93.909 77.6467 95.245C78.0423 95.6123 78.3985 96.0055 78.717 96.4224C78.8782 93.811 79.3671 91.4559 80.2305 89.395C81.3464 86.7312 83.1484 84.6547 85.6144 83.2547C88.1132 81.8231 91.2318 81.1992 94.8066 81.1992C100.133 81.1992 104.493 82.5785 107.233 85.8932C108.365 87.2501 109.218 88.8321 109.82 90.6108C109.958 90.1949 110.11 89.7896 110.275 89.395C111.391 86.7311 113.193 84.6545 115.659 83.2546C118.158 81.823 121.277 81.1992 124.851 81.1992C130.178 81.1992 134.538 82.5785 137.278 85.8932C139.873 89.0039 141.001 93.2977 141.001 98.4316C141.001 103.545 139.869 107.831 137.282 110.965C134.542 114.283 130.18 115.664 124.851 115.664C121.282 115.664 118.17 115.057 115.676 113.663L115.659 113.654L115.642 113.644C113.187 112.215 111.39 110.129 110.275 107.468C110.108 107.07 109.956 106.661 109.816 106.241C109.215 108.016 108.364 109.6 107.237 110.965C104.498 114.283 100.136 115.664 94.8066 115.664C91.2372 115.664 88.1256 115.057 85.6314 113.663L85.6141 113.654L85.597 113.644C83.1949 112.245 81.4225 110.218 80.303 107.638C79.7029 109.47 78.643 111.085 77.1128 112.434C74.5446 114.726 70.8784 115.664 66.5484 115.664C65.6121 115.664 64.5462 115.598 63.3619 115.474ZM135.543 87.3343C133.407 84.748 129.843 83.4548 124.851 83.4548C121.513 83.4548 118.821 84.0412 116.776 85.2141C114.761 86.3569 113.288 88.0411 112.355 90.2665C111.423 92.492 110.957 95.2137 110.957 98.4316C110.957 101.65 111.423 104.371 112.355 106.597C113.288 108.822 114.761 110.521 116.776 111.694C118.821 112.837 121.513 113.408 124.851 113.408C129.843 113.408 133.407 112.115 135.543 109.529C137.678 106.943 138.745 103.243 138.745 98.4316C138.745 93.5897 137.678 89.8906 135.543 87.3343ZM105.498 87.3343C103.363 84.748 99.7989 83.4548 94.8066 83.4548C91.4684 83.4548 88.7767 84.0412 86.7317 85.2141C84.7168 86.3569 83.2431 88.0411 82.3108 90.2665C81.3785 92.492 80.9124 95.2137 80.9124 98.4316C80.9124 101.65 81.3785 104.371 82.3108 106.597C83.2431 108.822 84.7168 110.521 86.7317 111.694C88.7767 112.837 91.4684 113.408 94.8066 113.408C99.7989 113.408 103.363 112.115 105.498 109.529C107.633 106.943 108.701 103.243 108.701 98.4316C108.701 93.5897 107.633 89.8906 105.498 87.3343ZM57.6863 102.717H66.0973C66.7431 102.717 67.1887 102.77 67.4754 102.838C67.5624 102.858 67.624 102.877 67.665 102.892C67.6895 102.98 67.7213 103.152 67.7213 103.439C67.7213 103.734 67.6695 103.866 67.6514 103.904C67.6422 103.923 67.635 103.932 67.6292 103.939C67.623 103.946 67.6067 103.963 67.5696 103.987L67.5525 103.998L67.5356 104.01C67.356 104.132 66.7178 104.386 65.1951 104.386C64.6591 104.386 63.9469 104.337 63.0389 104.223C62.1713 104.115 61.3009 103.952 60.4273 103.734C59.6016 103.52 58.907 103.277 58.3307 103.012L57.6863 102.717ZM96.9206 103.11L96.9247 103.103C97.4069 102.287 97.7839 100.822 97.7839 98.4316C97.7839 95.999 97.403 94.5511 96.9364 93.7794L96.9264 93.7628L96.9166 93.746C96.6928 93.361 96.2403 92.9281 94.8066 92.9281C93.3946 92.9281 92.897 93.3503 92.6411 93.7638C92.1916 94.5494 91.8293 96.0084 91.8293 98.4316C91.8293 100.804 92.1852 102.277 92.6465 103.108C92.9039 103.519 93.4044 103.935 94.8066 103.935C96.2403 103.935 96.6928 103.502 96.9166 103.117L96.9206 103.11ZM90.7015 92.6123C91.4834 91.3191 92.8518 90.6725 94.8066 90.6725C96.7614 90.6725 98.1147 91.3191 98.8666 92.6123C99.6485 93.9055 100.039 95.8453 100.039 98.4316C100.039 100.988 99.6485 102.928 98.8666 104.251C98.1147 105.544 96.7614 106.191 94.8066 106.191C92.8518 106.191 91.4834 105.544 90.7015 104.251C89.9496 102.928 89.5737 100.988 89.5737 98.4316C89.5737 95.8453 89.9496 93.9055 90.7015 92.6123ZM126.965 103.11L126.969 103.103C127.452 102.287 127.829 100.822 127.829 98.4316C127.829 95.999 127.448 94.5511 126.981 93.7794L126.971 93.7628L126.961 93.746C126.737 93.361 126.285 92.9281 124.851 92.9281C123.439 92.9281 122.942 93.3502 122.686 93.7638C122.236 94.5494 121.874 96.0083 121.874 98.4316C121.874 100.804 122.23 102.277 122.691 103.108C122.949 103.519 123.449 103.935 124.851 103.935C126.285 103.935 126.737 103.502 126.961 103.117L126.965 103.11ZM120.746 92.6123C121.528 91.3191 122.896 90.6725 124.851 90.6725C126.806 90.6725 128.159 91.3191 128.911 92.6123C129.693 93.9055 130.084 95.8453 130.084 98.4316C130.084 100.988 129.693 102.928 128.911 104.251C128.159 105.544 126.806 106.191 124.851 106.191C122.896 106.191 121.528 105.544 120.746 104.251C119.994 102.928 119.618 100.988 119.618 98.4316C119.618 95.8453 119.994 93.9055 120.746 92.6123Z" stroke="#FFDB44" stroke-width="2.74474" stroke-linejoin="round" mask="url(#path-27-outside-1_2320_340543)"/>
<path d="M66.5477 113.408C65.7057 113.408 64.7132 113.348 63.5704 113.227C62.4577 113.137 61.3449 112.987 60.2322 112.776C59.1495 112.536 58.2022 112.235 57.3902 111.874V105.062C58.112 105.393 58.939 105.679 59.8713 105.919C60.8337 106.16 61.7961 106.34 62.7584 106.461C63.7208 106.581 64.5328 106.641 65.1944 106.641C66.8485 106.641 68.0514 106.386 68.8033 105.874C69.5852 105.363 69.9762 104.551 69.9762 103.438C69.9762 102.386 69.7055 101.634 69.1642 101.183C68.6229 100.702 67.6003 100.461 66.0966 100.461H57.2549V96.5814L58.0218 83.9052H76.8331L76.2466 90.4012H65.2846L65.014 94.5514H68.3071C71.8257 94.5514 74.4271 95.3333 76.1113 96.8972C77.7954 98.461 78.6375 100.747 78.6375 103.754C78.6375 106.641 77.63 108.972 75.6151 110.746C73.6302 112.521 70.6077 113.408 66.5477 113.408Z" fill="#D87400"/>
<path d="M94.8059 113.408C91.4677 113.408 88.7761 112.836 86.731 111.694C84.7161 110.521 83.2425 108.822 82.3102 106.596C81.3779 104.371 80.9117 101.649 80.9117 98.431C80.9117 95.213 81.3779 92.4913 82.3102 90.2659C83.2425 88.0404 84.7161 86.3562 86.731 85.2134C88.7761 84.0405 91.4677 83.4541 94.8059 83.4541C99.7982 83.4541 103.362 84.7473 105.497 87.3336C107.632 89.8899 108.7 93.589 108.7 98.431C108.7 103.243 107.632 106.942 105.497 109.528C103.362 112.115 99.7982 113.408 94.8059 113.408ZM94.8059 106.19C96.7607 106.19 98.114 105.543 98.8659 104.25C99.6478 102.927 100.039 100.987 100.039 98.431C100.039 95.8446 99.6478 93.9048 98.8659 92.6116C98.114 91.3185 96.7607 90.6719 94.8059 90.6719C92.8511 90.6719 91.4827 91.3185 90.7008 92.6116C89.949 93.9048 89.573 95.8446 89.573 98.431C89.573 100.987 89.949 102.927 90.7008 104.25C91.4827 105.543 92.8511 106.19 94.8059 106.19Z" fill="#D87400"/>
<path d="M124.851 113.408C121.512 113.408 118.821 112.836 116.776 111.694C114.761 110.521 113.287 108.822 112.355 106.596C111.422 104.371 110.956 101.649 110.956 98.431C110.956 95.213 111.422 92.4913 112.355 90.2659C113.287 88.0404 114.761 86.3562 116.776 85.2134C118.821 84.0405 121.512 83.4541 124.851 83.4541C129.843 83.4541 133.407 84.7473 135.542 87.3336C137.677 89.8899 138.745 93.589 138.745 98.431C138.745 103.243 137.677 106.942 135.542 109.528C133.407 112.115 129.843 113.408 124.851 113.408ZM124.851 106.19C126.805 106.19 128.159 105.543 128.911 104.25C129.692 102.927 130.083 100.987 130.083 98.431C130.083 95.8446 129.692 93.9048 128.911 92.6116C128.159 91.3185 126.805 90.6719 124.851 90.6719C122.896 90.6719 121.527 91.3185 120.745 92.6116C119.994 93.9048 119.618 95.8446 119.618 98.431C119.618 100.987 119.994 102.927 120.745 104.25C121.527 105.543 122.896 106.19 124.851 106.19Z" fill="#D87400"/>
<path d="M149.184 35.472C149 36.176 148 36.176 147.816 35.472L146.821 31.6835C146.756 31.4365 146.564 31.2436 146.316 31.1787L142.528 30.1844C141.824 29.9997 141.824 29.0003 142.528 28.8156L146.316 27.8213C146.564 27.7564 146.756 27.5635 146.821 27.3165L147.816 23.528C148 22.824 149 22.824 149.184 23.528L150.179 27.3165C150.244 27.5635 150.436 27.7564 150.684 27.8213L154.472 28.8156C155.176 29.0003 155.176 29.9997 154.472 30.1844L150.684 31.1787C150.436 31.2436 150.244 31.4365 150.179 31.6835L149.184 35.472Z" fill="#FFDB44"/>
</g>
<defs>
<radialGradient id="paint0_radial_2320_340543" cx="0" cy="0" r="1" gradientUnits="userSpaceOnUse" gradientTransform="translate(96.4875 70.9724) rotate(-90) scale(60.9724 76.4654)">
<stop stop-color="#FFFF00"/>
<stop offset="1" stop-color="#FFCC00" stop-opacity="0"/>
</radialGradient>
<linearGradient id="paint1_linear_2320_340543" x1="128.066" y1="55.1559" x2="94.4215" y2="150.627" gradientUnits="userSpaceOnUse">
<stop stop-color="#FD9B13"/>
<stop offset="1" stop-color="#FD9B13" stop-opacity="0"/>
</linearGradient>
<linearGradient id="paint2_linear_2320_340543" x1="152.378" y1="54.8471" x2="98.3487" y2="30.159" gradientUnits="userSpaceOnUse">
<stop stop-color="white" stop-opacity="0"/>
<stop offset="0.512588" stop-color="white"/>
<stop offset="1" stop-color="white"/>
</linearGradient>
<linearGradient id="paint3_linear_2320_340543" x1="56.3121" y1="42.5659" x2="132.611" y2="151.703" gradientUnits="userSpaceOnUse">
<stop stop-color="white" stop-opacity="0"/>
<stop offset="0.512588" stop-color="white"/>
<stop offset="1" stop-color="white"/>
</linearGradient>
<linearGradient id="paint4_linear_2320_340543" x1="62.1409" y1="-1.30204" x2="51.1227" y2="79.3861" gradientUnits="userSpaceOnUse">
<stop stop-color="#FD9B13"/>
<stop offset="1" stop-color="#FD9B13" stop-opacity="0"/>
</linearGradient>
<linearGradient id="paint5_linear_2320_340543" x1="156.119" y1="179.861" x2="94.7304" y2="2.13505" gradientUnits="userSpaceOnUse">
<stop stop-color="#FD9B13"/>
<stop offset="1" stop-color="#FD9B13" stop-opacity="0"/>
</linearGradient>
<linearGradient id="paint6_linear_2320_340543" x1="132.181" y1="50.2843" x2="95.2414" y2="156.717" gradientUnits="userSpaceOnUse">
<stop stop-color="#FD9B13"/>
<stop offset="1" stop-color="#FD9B13" stop-opacity="0"/>
</linearGradient>
<linearGradient id="paint7_linear_2320_340543" x1="2.59257" y1="85.2293" x2="185.203" y2="-50.9033" gradientUnits="userSpaceOnUse">
<stop stop-color="#EA8408"/>
<stop offset="1" stop-color="#EA8408" stop-opacity="0"/>
</linearGradient>
<linearGradient id="paint8_linear_2320_340543" x1="169.6" y1="74.9625" x2="148.225" y2="175.334" gradientUnits="userSpaceOnUse">
<stop stop-color="#EA8408"/>
<stop offset="1" stop-color="#EA8408" stop-opacity="0"/>
</linearGradient>
<linearGradient id="paint9_linear_2320_340543" x1="129.674" y1="179.979" x2="-74.7709" y2="73.6721" gradientUnits="userSpaceOnUse">
<stop stop-color="#EA8408"/>
<stop offset="1" stop-color="#EA8408" stop-opacity="0"/>
</linearGradient>
<linearGradient id="paint10_linear_2320_340543" x1="36.268" y1="165.718" x2="20.9119" y2="-49.3491" gradientUnits="userSpaceOnUse">
<stop stop-color="#EA8408"/>
<stop offset="1" stop-color="#EA8408" stop-opacity="0"/>
</linearGradient>
<radialGradient id="paint11_radial_2320_340543" cx="0" cy="0" r="1" gradientUnits="userSpaceOnUse" gradientTransform="translate(120.532 50.9244) rotate(132.095) scale(93.8786 82.9106)">
<stop stop-color="white"/>
<stop offset="1" stop-color="white" stop-opacity="0"/>
</radialGradient>
<radialGradient id="paint12_radial_2320_340543" cx="0" cy="0" r="1" gradientUnits="userSpaceOnUse" gradientTransform="translate(119.469 49.9434) rotate(132.095) scale(93.8786 82.9106)">
<stop stop-color="white"/>
<stop offset="1" stop-color="white" stop-opacity="0"/>
</radialGradient>
<radialGradient id="paint13_radial_2320_340543" cx="0" cy="0" r="1" gradientUnits="userSpaceOnUse" gradientTransform="translate(132.177 142.973) rotate(164.496) scale(100.686 46.0463)">
<stop stop-color="white"/>
<stop offset="1" stop-color="white" stop-opacity="0"/>
</radialGradient>
<radialGradient id="paint14_radial_2320_340543" cx="0" cy="0" r="1" gradientUnits="userSpaceOnUse" gradientTransform="translate(132.177 142.973) rotate(164.496) scale(100.686 46.0463)">
<stop stop-color="white"/>
<stop offset="1" stop-color="white" stop-opacity="0"/>
</radialGradient>
<clipPath id="clip0_2320_340543">
<rect width="192" height="192" fill="white"/>
</clipPath>
</defs>
</svg>
