<svg xmlns="http://www.w3.org/2000/svg" width="192" height="192" fill="none" viewBox="0 0 192 192"><g clip-path="url(#clip0_2320_339904)"><mask id="mask0_2320_339904" width="165" height="107" x="11" y="-14" maskUnits="userSpaceOnUse" style="mask-type:alpha"><path fill="#636363" d="M175.993 69.471C176.711 74.0678 118.241 91.1185 97.3244 92.9815C89.1492 93.6902 14.4963 73.8451 11.6517 69.471C8.80705 65.097 11.6519 -10.2763 97.3243 -14C175.993 -5.62159 175.229 64.8135 175.993 69.471Z"/></mask><g mask="url(#mask0_2320_339904)"><ellipse cx="96.5" cy="71" fill="url(#paint0_radial_2320_339904)" opacity=".5" rx="76.5" ry="61"/></g><path fill="#FFE97B" d="M95.5126 188.001L23.9727 149.951V74.2987L95.0259 35.8013L167.539 74.2987V149.951L95.5126 188.001Z"/><path fill="url(#paint1_linear_2320_339904)" d="M95.8704 152.189L58.0391 132.045V91.9938L95.613 71.6128L133.959 91.9938V132.045L95.8704 152.189Z"/><mask id="mask1_2320_339904" width="73" height="57" x="94" y="35" maskUnits="userSpaceOnUse" style="mask-type:alpha"><path fill="url(#paint2_linear_2320_339904)" d="M166.418 73.498L132.351 91.8511L94.8779 71.2595L95.3645 35.8955L166.418 73.498Z"/></mask><g mask="url(#mask1_2320_339904)"><path fill="url(#paint3_linear_2320_339904)" fill-rule="evenodd" d="M166.904 73.498L95.3643 35.4482L23.3377 73.498V149.15L95.851 187.647L166.904 149.15V73.498ZM132.838 91.4038L95.0066 71.2598L56.9179 91.4038V131.455L95.2639 151.836L132.838 131.455V91.4038Z" clip-rule="evenodd"/></g><mask id="mask2_2320_339904" width="61" height="49" x="35" y="42" maskUnits="userSpaceOnUse" style="mask-type:alpha"><path fill="url(#paint4_linear_2320_339904)" d="M40.8154 82.4361L52.8407 88.9147C56.2124 90.7311 60.4267 90.6777 63.8901 88.7746L89.9514 74.4539C93.5288 72.4881 95.7317 68.8653 95.679 65.0347L95.5108 52.8098C95.4043 45.0725 86.6302 40.4721 79.3391 44.3307L41.4208 64.3976C33.8431 68.4079 33.5045 78.4974 40.8154 82.4361Z"/></mask><g mask="url(#mask2_2320_339904)"><path fill="url(#paint5_linear_2320_339904)" fill-rule="evenodd" d="M23.7383 79.9321C23.7383 75.9736 25.9224 72.3381 29.4173 70.4793L90.2676 38.115C93.4015 36.4481 97.1578 36.4429 100.296 38.1009L161.599 70.4857C165.109 72.3397 167.305 75.9833 167.305 79.9525V142.714C167.305 146.675 165.118 150.313 161.619 152.171L99.8635 184.956C96.6957 186.638 92.8961 186.622 89.7426 184.914L29.3445 152.189C25.8901 150.318 23.7383 146.704 23.7383 142.776V79.9321ZM57.8047 97.834C57.8047 93.8773 59.9868 90.2432 63.4793 88.3836L90.6209 73.9315C93.7572 72.2615 97.5176 72.2563 100.659 73.9174L128.023 88.39C131.531 90.2448 133.725 93.887 133.725 97.8545V125.022C133.725 128.981 131.539 132.618 128.043 134.476L100.455 149.139C97.2848 150.824 93.4811 150.808 90.3252 149.096L63.4064 134.495C59.9545 132.622 57.8047 129.01 57.8047 125.083V97.834Z" clip-rule="evenodd"/></g><path fill="#FECB54" d="M95.8409 161.142L49.2793 136.521V87.5698L95.5241 62.6597L142.719 87.5698V136.521L95.8409 161.142Z"/><path fill="url(#paint6_linear_2320_339904)" d="M90.8997 154.066L58.9081 137.29C55.3825 135.441 53.1738 131.789 53.1738 127.808V96.2008C53.1738 92.2494 55.3503 88.6191 58.8356 86.7572L90.571 69.804C93.6953 68.135 97.4429 68.1192 100.581 69.7619L133.086 86.7765C136.615 88.624 138.827 92.2784 138.827 96.2622V127.788C138.827 131.779 136.607 135.44 133.066 137.283L100.818 154.08C97.709 155.7 94.0042 155.694 90.8997 154.066Z"/><g style="mix-blend-mode:color-dodge" opacity=".6"><path fill="url(#paint7_linear_2320_339904)" d="M90.8997 154.066L58.9081 137.29C55.3825 135.441 53.1738 131.789 53.1738 127.808V96.2008C53.1738 92.2494 55.3503 88.6191 58.8356 86.7572L90.571 69.804C93.6953 68.135 97.4429 68.1192 100.581 69.7619L133.086 86.7765C136.615 88.624 138.827 92.2784 138.827 96.2622V127.788C138.827 131.779 136.607 135.44 133.066 137.283L100.818 154.08C97.709 155.7 94.0042 155.694 90.8997 154.066Z"/></g><path fill="url(#paint8_linear_2320_339904)" d="M23.9727 149.95V74.7461L49.2793 87.2801V136.073L23.9727 149.95Z"/><path fill="url(#paint9_linear_2320_339904)" d="M168.027 74.2986L168.027 149.503L142.721 136.969L142.721 88.1756L168.027 74.2986Z"/><path fill="url(#paint10_linear_2320_339904)" d="M167.779 149.965L96.9727 187.567L96.1204 161.141L142.06 136.745L167.779 149.965Z"/><path fill="url(#paint11_linear_2320_339904)" d="M95.7535 187.567L24.9473 149.965L49.4016 136.073L95.3414 160.47L95.7535 187.567Z"/><path fill="#fff" d="M156.296 114.037C156.006 115.056 154.434 115.056 154.144 114.037L152.581 108.558C152.479 108.201 152.175 107.922 151.787 107.828L145.83 106.39C144.723 106.123 144.723 104.678 145.83 104.411L151.787 102.973C152.175 102.879 152.479 102.6 152.581 102.243L154.144 96.7636C154.434 95.7455 156.006 95.7455 156.296 96.7636L157.859 102.243C157.961 102.6 158.265 102.879 158.653 102.973L164.61 104.411C165.717 104.678 165.717 106.123 164.61 106.39L158.653 107.828C158.265 107.922 157.961 108.201 157.859 108.558L156.296 114.037Z"/><g style="mix-blend-mode:overlay"><path fill="url(#paint12_radial_2320_339904)" fill-rule="evenodd" d="M50.252 136.521L96.8135 161.142L143.692 136.521V87.5698L96.4968 62.6597L50.252 87.5698V136.521ZM59.8788 137.29L91.8704 154.066C94.9749 155.694 98.6798 155.7 101.789 154.08L134.037 137.283C137.577 135.439 139.798 131.779 139.798 127.788V96.2621C139.798 92.2783 137.586 88.6239 134.056 86.7764L101.552 69.7619C98.4136 68.1192 94.666 68.1349 91.5417 69.804L59.8064 86.7572C56.321 88.6191 54.1445 92.2493 54.1445 96.2008V127.808C54.1445 131.789 56.3532 135.441 59.8788 137.29Z" clip-rule="evenodd"/></g><g style="mix-blend-mode:overlay"><path fill="url(#paint13_radial_2320_339904)" fill-rule="evenodd" d="M49.2812 135.626L95.8428 160.246L142.721 135.626V86.6743L95.5261 61.7642L49.2812 86.6743V135.626ZM58.9081 136.394L90.8997 153.17C94.0042 154.798 97.709 154.804 100.818 153.184L133.066 136.387C136.607 134.544 138.827 130.883 138.827 126.892V95.3662C138.827 91.3824 136.615 87.728 133.086 85.8805L100.581 68.866C97.4429 67.2232 93.6953 67.239 90.571 68.908L58.8356 85.8612C55.3503 87.7231 53.1738 91.3534 53.1738 95.3048V126.912C53.1738 130.893 55.3825 134.545 58.9081 136.394Z" clip-rule="evenodd"/></g><g style="mix-blend-mode:soft-light"><path fill="url(#paint14_radial_2320_339904)" d="M95.5126 188L23.9727 149.95L95.5126 178.152L168.026 149.95L95.5126 188Z"/></g><g style="mix-blend-mode:overlay"><path fill="url(#paint15_radial_2320_339904)" d="M95.5126 188L23.9727 149.95L95.5126 184.419L168.026 149.95L95.5126 188Z"/></g><g style="mix-blend-mode:soft-light"><path fill="#fff" d="M152.056 83.4877C144.526 87.623 142.225 99.3777 142.016 104.738C141.806 101.484 141.012 93.8258 139.505 89.2311C138.484 86.1138 132.975 82.4677 127.839 79.7278C125.182 78.6018 122.849 77.4426 121.307 76.5957C123.055 77.3344 125.405 78.4293 127.839 79.7278C132.391 81.6563 137.895 83.4877 142.016 83.4877C148.542 83.4877 162.725 77.3615 169 74.2983C166.49 75.6385 159.587 79.3525 152.056 83.4877Z"/></g><g style="mix-blend-mode:soft-light" opacity=".5"><path fill="#fff" d="M40.336 140.794C47.7885 136.541 49.8706 124.752 49.9801 119.389C50.2498 122.64 51.1869 130.284 52.7782 134.854C53.8579 137.955 59.4337 141.514 64.6194 144.173C67.2976 145.257 69.6514 146.379 71.2092 147.202C69.447 146.49 67.077 145.433 64.6194 144.173C60.0328 142.316 54.4951 140.571 50.3752 140.636C43.8497 140.739 29.7832 147.087 23.5656 150.249C26.0505 148.869 32.8834 145.047 40.336 140.794Z"/></g><g style="mix-blend-mode:overlay"><path fill="#fff" d="M43.1952 83.2432C49.1793 86.1357 58.5082 82.8015 62.4247 80.7728C60.182 82.2079 55.0268 85.7675 52.3474 88.5258C50.5295 90.3972 50.1377 95.1953 50.2436 99.4033C50.507 101.464 50.6161 103.341 50.6307 104.614C50.4558 103.259 50.2938 101.397 50.2436 99.4033C49.7924 95.8749 48.8887 91.809 47.2321 89.3166C44.6081 85.3689 34.5262 79.2532 29.8132 76.6889C31.7805 77.6684 37.2112 80.3507 43.1952 83.2432Z"/></g><g style="mix-blend-mode:soft-light" opacity=".6"><path fill="#fff" d="M143.694 139.207C137.854 138.759 134.44 140.716 130.471 142.657C132.751 141.273 137.998 137.829 140.749 135.131C142.616 133.3 143.134 128.512 143.138 124.303C142.929 122.238 142.87 120.359 142.888 119.086C143.028 120.444 143.141 122.309 143.138 124.303C143.497 127.841 144.293 131.926 145.884 134.454C148.403 138.459 158.322 144.797 162.966 147.466C161.025 146.443 146.733 139.44 143.694 139.207Z"/></g><g style="mix-blend-mode:overlay"><path fill="#fff" d="M148.265 85.0759C143.808 87.5084 142.447 94.423 142.323 97.5762C142.199 95.6617 141.728 91.1571 140.837 88.4544C140.232 86.6207 136.972 84.4759 133.933 82.8642C132.36 82.2018 130.979 81.52 130.066 81.0218C131.101 81.4563 132.492 82.1004 133.933 82.8642C136.626 83.9986 139.884 85.0759 142.323 85.0759C146.185 85.0759 154.579 81.4723 158.293 79.6704C156.807 80.4587 152.722 82.6434 148.265 85.0759Z"/></g><g style="mix-blend-mode:soft-light" opacity=".6"><path fill="#fff" d="M80.4258 152.284C83.8818 154.1 91.8801 157.732 96.2248 157.732C100.57 157.732 110.214 153.44 114.492 151.293C109.884 153.77 100.175 159.515 98.1997 162.685C96.5799 165.284 96.1779 169.839 96.1766 172.85C96.2104 173.506 96.2248 174.091 96.2248 174.571C96.1952 174.096 96.1763 173.51 96.1766 172.85C96.0127 169.669 95.3934 164.817 93.7562 162.189C91.7813 159.02 84.0464 154.265 80.4258 152.284Z"/></g><path fill="#FFC700" d="M98.173 16.5984C94.4418 9.79177 92.3716 2.19346 92.3716 2.19346C92.3716 2.19346 90.5447 9.59395 87.0889 16.3983C86.1004 21.7861 82.246 26.214 76.9744 27.9646C70.2501 30.1977 63.5741 27.2929 61.0837 20.4422C58.3925 17.8871 56.2326 15.1096 55.1452 12.9664L55.1978 17.3533C55.3621 31.0568 58.7889 44.4402 65.0805 55.9503L120.943 55.2807C126.957 43.6232 130.062 30.1615 129.898 16.4579L129.846 12.0711C128.831 14.1959 126.801 16.9542 124.247 19.528C121.969 26.5475 115.316 29.6739 108.489 27.587C103.287 25.9968 99.382 21.8073 98.173 16.5984Z"/><path fill="#FFD800" fill-rule="evenodd" d="M93.6903 6.55665C94.6588 9.36094 96.1992 13.333 98.243 17.0649C99.1217 20.8548 101.439 24.1001 104.647 26.1814L101.822 55.4759L93.1309 55.5102L70.8348 55.9568C66.0567 43.3708 64.2872 35.4682 62.223 22.4905C65.0907 28.1081 71.1528 30.3576 77.2549 28.3292C82.4742 26.5942 86.2902 22.206 87.2688 16.8665C89.1366 13.1854 90.5237 9.3282 91.3984 6.58412L93.6903 6.55665Z" clip-rule="evenodd"/><path fill="#FFE971" fill-rule="evenodd" d="M89.0194 55.5923L85.9802 20.7698C84.3604 24.0436 81.5619 26.6539 78.0578 28.0391C79.1294 36.5578 80.6213 44.3427 83.7052 55.6988L89.0194 55.5923ZM80.2531 55.7679C77.7832 45.3528 76.2381 37.7243 75.1256 28.8665C72.4723 29.3226 69.8976 28.9762 67.6678 27.9042C68.9336 36.8805 71.082 48.2139 74.5 55.8832L80.2531 55.7679Z" clip-rule="evenodd"/><path fill="#FFE971" fill-rule="evenodd" d="M87.9402 14.4993C87.722 14.9619 87.4963 15.4242 87.2632 15.8838C86.2845 21.2233 82.4685 25.6115 77.2492 27.3465C70.5917 29.5595 63.982 26.6806 61.5162 19.8911C61.3865 19.7679 61.2581 19.6442 61.131 19.52C61.1675 20.259 61.2712 20.998 61.4452 21.7303C63.0198 28.358 69.7558 31.916 77.4152 29.3699C84.5031 27.0139 88.614 20.683 87.9402 14.4993Z" clip-rule="evenodd"/><path fill="#FFD800" fill-rule="evenodd" d="M97.5556 14.3864C97.7844 14.8428 98.0207 15.2987 98.2644 15.7518C99.3707 21.0663 103.291 25.3618 108.55 26.9711C115.259 29.024 121.798 25.9875 124.1 19.1409C124.227 19.0141 124.353 18.8868 124.478 18.7591C124.459 19.4992 124.373 20.2412 124.217 20.9779C122.801 27.6414 116.152 31.3599 108.434 28.9981C101.293 26.8129 97.0315 20.5837 97.5556 14.3864Z" clip-rule="evenodd"/><path fill="#FFC700" d="M104.193 11.3791C103.812 16.7631 98.4925 20.0978 92.2522 19.6567C86.012 19.2156 81.2142 15.1658 81.5948 9.78179C81.9753 4.39782 87.295 1.06314 93.5353 1.50423C99.7755 1.94532 104.573 5.99514 104.193 11.3791Z"/><path fill="#FFD800" d="M99.5089 5.39244C100.103 8.45925 96.0222 6.98696 91.5095 7.86061C86.9968 8.73426 83.7606 11.623 83.1669 8.55622C82.5732 5.48941 85.8243 2.678 90.337 1.80434C94.8497 0.930692 98.9151 2.32563 99.5089 5.39244Z"/><path fill="#FFAF00" d="M88.4178 17.0931C87.6447 15.3118 91.0441 16.1136 94.9488 15.1948C98.8536 14.276 101.431 10.4774 101.997 12.8823C102.563 15.2873 99.7829 17.666 95.8782 18.5847C91.9735 19.5035 89.1909 18.8744 88.4178 17.0931Z"/><path fill="#FEED8D" d="M94.9567 4.21566C95.2379 5.66835 92.9327 5.04305 90.3357 5.54582C87.7388 6.04859 85.8335 7.48904 85.5522 6.03634C85.271 4.58364 87.1834 3.17983 89.7804 2.67706C92.3773 2.17429 94.6755 2.76296 94.9567 4.21566Z"/><path fill="#FFC700" d="M135.757 14.275C135.805 18.2338 132.351 20.9904 128.051 21.0419C123.751 21.0935 120.233 18.4204 120.185 14.4617C120.138 10.5029 123.591 7.74631 127.891 7.69477C132.191 7.64323 135.71 10.3163 135.757 14.275Z"/><path fill="#FFD800" d="M132.296 10.2768C132.881 12.3607 129.979 11.5771 126.913 12.4382C123.847 13.2994 121.777 15.4791 121.192 13.3953C120.606 11.3114 122.691 9.18424 125.757 8.3231C128.823 7.46197 131.711 8.19296 132.296 10.2768Z"/><path fill="#FFAF00" d="M125.287 19.3872C124.651 18.2013 127.045 18.5608 129.689 17.7032C132.333 16.8456 133.895 14.0752 134.423 15.7036C134.952 17.332 133.168 19.1334 130.524 19.991C127.88 20.8486 125.923 20.5731 125.287 19.3872Z"/><path fill="#FEED8D" d="M129.086 9.7244C129.363 10.7115 127.736 10.4114 125.971 10.907C124.206 11.4025 122.973 12.5061 122.696 11.519C122.419 10.5319 123.659 9.45324 125.424 8.95768C127.188 8.46211 128.809 8.73731 129.086 9.7244Z"/><path fill="#FFC700" d="M65.3079 15.1198C65.3554 19.0785 61.9021 21.8351 57.6021 21.8867C53.3021 21.9382 49.7837 19.2651 49.7362 15.3064C49.6888 11.3477 53.1421 8.59103 57.4421 8.5395C61.7421 8.48796 65.2605 11.161 65.3079 15.1198Z"/><path fill="#FFD800" d="M61.8466 11.1215C62.4318 13.2054 59.5299 12.4218 56.4636 13.283C53.3973 14.1441 51.3276 16.3238 50.7424 14.24C50.1572 12.1561 52.2416 10.029 55.3079 9.16783C58.3742 8.3067 61.2613 9.03769 61.8466 11.1215Z"/><path fill="#FFAF00" d="M54.8379 20.2319C54.2022 19.046 56.5955 19.4055 59.2394 18.5479C61.8833 17.6904 63.4461 14.92 63.9743 16.5483C64.5024 18.1767 62.7188 19.9782 60.0749 20.8357C57.431 21.6933 55.4735 21.4178 54.8379 20.2319Z"/><path fill="#FEED8D" d="M58.6368 10.5691C58.914 11.5562 57.2864 11.2561 55.5218 11.7517C53.7572 12.2473 52.5238 13.3508 52.2466 12.3637C51.9694 11.3766 53.2098 10.298 54.9744 9.80241C56.739 9.30684 58.3596 9.58204 58.6368 10.5691Z"/><path fill="#B6ADAD" d="M123.795 58.0432C123.853 62.8448 122.975 64.8851 93.1371 65.2427C63.2987 65.6003 62.3729 63.5817 62.3153 58.7801C62.2578 53.9784 63.1554 53.6459 92.9938 53.2883C122.832 52.9307 123.738 53.2416 123.795 58.0432Z"/><path fill="#D8D8D8" d="M124.042 56.7957C124.09 60.7963 123.201 62.4981 93.0981 62.8589C62.9956 63.2197 62.0659 61.5397 62.018 57.5391C61.97 53.5385 62.8763 53.2596 92.9788 52.8988C123.081 52.538 123.994 52.7952 124.042 56.7957Z"/><path fill="#EFF3F5" d="M100.912 57.4349C100.901 61.2614 98.4115 61.7508 81.1856 61.6331C68.4612 61.5461 65.1136 61.2587 65.1216 58.569C65.1296 55.8793 66.3884 54.8355 81.2056 54.9367C98.4314 55.0545 100.92 54.7452 100.912 57.4349Z"/><path fill="#7D7D7D" d="M69.8416 60.0221C69.1892 59.308 69.6555 58.2926 70.4945 57.3287C71.3335 56.3649 72.2275 55.8177 72.8799 56.5318C73.5322 57.2459 73.0659 58.2613 72.2269 59.2252C71.3879 60.189 70.4939 60.7362 69.8416 60.0221Z"/><path fill="#373333" d="M69.7032 59.8718C69.154 59.2706 69.6541 58.2922 70.4931 57.3283C71.3321 56.3645 72.1923 55.7802 72.7415 56.3814C73.2907 56.9826 72.7906 57.961 71.9516 58.9249C71.1126 59.8887 70.2524 60.473 69.7032 59.8718Z"/><path fill="#7D7D7D" d="M117.445 58.964C116.793 58.2499 117.259 57.2345 118.098 56.2706C118.937 55.3068 119.831 54.7596 120.483 55.4737C121.136 56.1878 120.669 57.2032 119.83 58.167C118.991 59.1309 118.097 59.6781 117.445 58.964Z"/><path fill="#373333" d="M117.317 58.8263C116.759 58.2159 117.257 57.2345 118.096 56.2706C118.935 55.3068 119.798 54.7256 120.355 55.336C120.913 55.9464 120.416 56.9278 119.577 57.8917C118.738 58.8555 117.875 59.4367 117.317 58.8263Z"/><path fill="#7D7D7D" d="M79.5842 60.0598C78.8106 59.2129 79.3636 58.0086 80.3586 56.8656C81.3536 55.7225 82.4139 55.0735 83.1875 55.9204C83.9612 56.7673 83.4082 57.9716 82.4132 59.1146C81.4182 60.2577 80.3579 60.9067 79.5842 60.0598Z"/><path fill="#373333" d="M79.3771 59.8332C78.7593 59.157 79.3634 58.0086 80.3585 56.8655C81.3535 55.7225 82.3627 55.0175 82.9805 55.6938C83.5983 56.3701 82.9942 57.5184 81.9991 58.6615C81.0041 59.8046 79.9949 60.5095 79.3771 59.8332Z"/><path fill="#7D7D7D" d="M105.313 59.7512C104.539 58.9043 105.092 57.7 106.087 56.557C107.082 55.4139 108.142 54.7649 108.916 55.6118C109.69 56.4587 109.137 57.663 108.142 58.806C107.147 59.9491 106.086 60.5981 105.313 59.7512Z"/><path fill="#373333" d="M105.136 59.5585C104.495 58.8573 105.092 57.7008 106.087 56.5577C107.082 55.4146 108.099 54.7178 108.739 55.419C109.38 56.1202 108.783 57.2767 107.788 58.4198C106.793 59.5629 105.777 60.2597 105.136 59.5585Z"/><path fill="#7D7D7D" d="M91.9921 60.4922C91.0931 59.508 91.7357 58.1086 92.8919 56.7803C94.0482 55.452 95.2803 54.6979 96.1793 55.682C97.0783 56.6662 96.4357 58.0656 95.2795 59.3939C94.1232 60.7221 92.8911 61.4763 91.9921 60.4922Z"/><path fill="#373333" d="M91.8175 60.2987C91.0517 59.4604 91.738 58.1088 92.8943 56.7805C94.0505 55.4522 95.2389 54.6502 96.0047 55.4885C96.7704 56.3268 96.0842 57.6784 94.9279 59.0067C93.7716 60.3349 92.5833 61.1369 91.8175 60.2987Z"/><path fill="#FFE971" d="M91.2848 29.1284C92.1765 28.2379 93.6393 28.2204 94.5521 29.0893L101.375 35.5841C102.288 36.453 102.305 37.8792 101.413 38.7697L94.7479 45.4262C93.8562 46.3167 92.3934 46.3342 91.4806 45.4653L84.6575 38.9706C83.7448 38.1017 83.7277 36.6754 84.6194 35.7849L91.2848 29.1284Z"/><path fill="#FA7048" d="M92.796 27.2594L92.898 35.762L84.3954 35.8639C84.3886 35.2955 84.5986 34.7246 85.027 34.2857L91.2334 27.9287C91.6619 27.4899 92.2277 27.2662 92.796 27.2594Z"/><path fill="#CC240E" d="M92.9992 44.2643L92.8973 35.7617L84.3947 35.8636C84.4015 36.432 84.6251 36.9978 85.064 37.4262L91.421 43.6326C91.8598 44.0611 92.4308 44.2711 92.9992 44.2643Z"/><path fill="#CC240E" d="M92.7987 27.2591L92.9006 35.7617L101.403 35.6598C101.396 35.0914 101.173 34.5256 100.734 34.0972L94.3769 27.8908C93.938 27.4623 93.3671 27.2523 92.7987 27.2591Z"/><path fill="#9F0400" d="M93.0018 44.2645L92.8999 35.7619L101.402 35.66C101.409 36.2284 101.199 36.7994 100.771 37.2382L94.5644 43.5952C94.136 44.0341 93.5702 44.2577 93.0018 44.2645Z"/><path fill="#FFE971" d="M115.316 36.3402C115.808 35.7832 116.617 35.7735 117.122 36.3186L120.898 40.3928C121.403 40.9379 121.414 41.8313 120.922 42.3883L117.245 46.5518C116.753 47.1088 115.944 47.1185 115.439 46.5735L111.663 42.4992C111.158 41.9542 111.147 41.0608 111.639 40.5038L115.316 36.3402Z"/><path fill="#FA7048" d="M116.225 35.4325L116.284 40.3758L111.34 40.4351C111.337 40.1046 111.459 39.7726 111.708 39.5175L115.316 35.8216C115.565 35.5664 115.894 35.4364 116.225 35.4325Z"/><path fill="#CC240E" d="M116.344 45.3192L116.285 40.3758L111.341 40.4351C111.345 40.7655 111.475 41.0944 111.73 41.3435L115.426 44.9519C115.681 45.201 116.013 45.3231 116.344 45.3192Z"/><path fill="#CC240E" d="M116.227 35.4328L116.286 40.3761L121.229 40.3169C121.225 39.9864 121.095 39.6575 120.84 39.4084L117.144 35.8C116.889 35.5509 116.557 35.4288 116.227 35.4328Z"/><path fill="#9F0400" d="M116.346 45.319L116.286 40.3756L121.23 40.3164C121.234 40.6469 121.112 40.9788 120.863 41.234L117.254 44.9299C117.005 45.185 116.676 45.3151 116.346 45.319Z"/><path fill="#FFE971" d="M68.168 36.9047C68.6599 36.3476 69.4683 36.338 69.9734 36.883L73.7494 40.9573C74.2546 41.5023 74.2653 42.3957 73.7733 42.9527L70.0961 47.1163C69.6041 47.6733 68.7958 47.683 68.2906 47.1379L64.5147 43.0637C64.0095 42.5186 63.9988 41.6252 64.4907 41.0682L68.168 36.9047Z"/><path fill="#FA7048" d="M69.125 35.9969L69.1843 40.9403L64.2409 40.9995C64.2369 40.6691 64.359 40.3371 64.6081 40.082L68.2165 36.386C68.4656 36.1309 68.7946 36.0009 69.125 35.9969Z"/><path fill="#CC240E" d="M69.2441 45.8831L69.1849 40.9398L64.2415 40.999C64.2455 41.3295 64.3755 41.6584 64.6307 41.9075L68.3266 45.5159C68.5817 45.765 68.9137 45.8871 69.2441 45.8831Z"/><path fill="#CC240E" d="M69.125 35.9963L69.1842 40.9396L74.1276 40.8804C74.1236 40.5499 73.9936 40.221 73.7385 39.9719L70.0426 36.3635C69.7874 36.1144 69.4554 35.9923 69.125 35.9963Z"/><path fill="#9F0400" d="M69.2441 45.883L69.1849 40.9396L74.1283 40.8804C74.1322 41.2108 74.0101 41.5428 73.761 41.7979L70.1526 45.4938C69.9035 45.749 69.5746 45.879 69.2441 45.883Z"/><path fill="#FFDB44" d="M29.8466 39.8294C29.5677 40.8922 28.0589 40.8922 27.7799 39.8294L26.2788 34.1098C26.181 33.7369 25.8897 33.4456 25.5167 33.3477L19.7971 31.8466C18.7343 31.5677 18.7343 30.0589 19.7971 29.7799L25.5167 28.2788C25.8897 28.181 26.181 27.8897 26.2788 27.5167L27.7799 21.7971C28.0589 20.7343 29.5677 20.7343 29.8466 21.7971L31.3477 27.5167C31.4456 27.8897 31.7369 28.181 32.1098 28.2788L37.8294 29.7799C38.8922 30.0589 38.8922 31.5677 37.8294 31.8466L32.1098 33.3477C31.7369 33.4456 31.4456 33.7369 31.3477 34.1098L29.8466 39.8294Z"/><path fill="#FFDB44" d="M176.184 41.472C176 42.176 175 42.176 174.816 41.472L173.821 37.6835C173.756 37.4365 173.564 37.2436 173.316 37.1787L169.528 36.1844C168.824 35.9997 168.824 35.0003 169.528 34.8156L173.316 33.8213C173.564 33.7564 173.756 33.5635 173.821 33.3165L174.816 29.528C175 28.824 176 28.824 176.184 29.528L177.179 33.3165C177.244 33.5635 177.436 33.7564 177.684 33.8213L181.472 34.8156C182.176 35.0003 182.176 35.9997 181.472 36.1844L177.684 37.1787C177.436 37.2436 177.244 37.4365 177.179 37.6835L176.184 41.472Z"/><path fill="#D87400" stroke="#FFE971" stroke-width="2.804" d="M86.9899 144L86.9899 145.402L88.3916 145.402L105.064 145.402L106.466 145.402L106.466 144L106.466 86L106.466 84.3791L104.862 84.6129L78.7002 88.4264L77.5006 88.6012L77.5006 89.8135L77.5006 103.737L77.5006 105.364L79.1096 105.123L86.9899 103.945L86.9899 144Z"/></g><defs><radialGradient id="paint0_radial_2320_339904" cx="0" cy="0" r="1" gradientTransform="translate(96.4875 70.9724) rotate(-90) scale(60.9724 76.4654)" gradientUnits="userSpaceOnUse"><stop stop-color="#FF0"/><stop offset="1" stop-color="#FC0" stop-opacity="0"/></radialGradient><linearGradient id="paint1_linear_2320_339904" x1="125.261" x2="94.56" y1="71.893" y2="159.011" gradientUnits="userSpaceOnUse"><stop stop-color="#FD9B13"/><stop offset="1" stop-color="#FD9B13" stop-opacity="0"/></linearGradient><linearGradient id="paint2_linear_2320_339904" x1="147.442" x2="98.141" y1="71.611" y2="49.083" gradientUnits="userSpaceOnUse"><stop stop-color="#fff" stop-opacity="0"/><stop offset=".513" stop-color="#fff"/><stop offset="1" stop-color="#fff"/></linearGradient><linearGradient id="paint3_linear_2320_339904" x1="59.781" x2="129.404" y1="60.404" y2="159.993" gradientUnits="userSpaceOnUse"><stop stop-color="#fff" stop-opacity="0"/><stop offset=".513" stop-color="#fff"/><stop offset="1" stop-color="#fff"/></linearGradient><linearGradient id="paint4_linear_2320_339904" x1="65.103" x2="55.049" y1="20.375" y2="94.003" gradientUnits="userSpaceOnUse"><stop stop-color="#FD9B13"/><stop offset="1" stop-color="#FD9B13" stop-opacity="0"/></linearGradient><linearGradient id="paint5_linear_2320_339904" x1="150.857" x2="94.84" y1="185.688" y2="23.513" gradientUnits="userSpaceOnUse"><stop stop-color="#FD9B13"/><stop offset="1" stop-color="#FD9B13" stop-opacity="0"/></linearGradient><linearGradient id="paint6_linear_2320_339904" x1="129.014" x2="95.307" y1="67.447" y2="164.568" gradientUnits="userSpaceOnUse"><stop stop-color="#FD9B13"/><stop offset="1" stop-color="#FD9B13" stop-opacity="0"/></linearGradient><linearGradient id="paint7_linear_2320_339904" x1="53" x2="139" y1="131.5" y2="92" gradientUnits="userSpaceOnUse"><stop offset=".086" stop-color="#fff"/><stop offset="1" stop-color="#FFE600"/></linearGradient><linearGradient id="paint8_linear_2320_339904" x1="10.765" x2="177.398" y1="99.334" y2="-24.887" gradientUnits="userSpaceOnUse"><stop stop-color="#EA8408"/><stop offset="1" stop-color="#EA8408" stop-opacity="0"/></linearGradient><linearGradient id="paint9_linear_2320_339904" x1="163.161" x2="143.656" y1="89.966" y2="181.555" gradientUnits="userSpaceOnUse"><stop stop-color="#EA8408"/><stop offset="1" stop-color="#EA8408" stop-opacity="0"/></linearGradient><linearGradient id="paint10_linear_2320_339904" x1="126.727" x2="-59.829" y1="185.794" y2="88.788" gradientUnits="userSpaceOnUse"><stop stop-color="#EA8408"/><stop offset="1" stop-color="#EA8408" stop-opacity="0"/></linearGradient><linearGradient id="paint11_linear_2320_339904" x1="41.494" x2="27.481" y1="172.78" y2="-23.469" gradientUnits="userSpaceOnUse"><stop stop-color="#EA8408"/><stop offset="1" stop-color="#EA8408" stop-opacity="0"/></linearGradient><radialGradient id="paint12_radial_2320_339904" cx="0" cy="0" r="1" gradientTransform="translate(118.385 68.0314) rotate(132.095) scale(85.6645 75.6562)" gradientUnits="userSpaceOnUse"><stop stop-color="#fff"/><stop offset="1" stop-color="#fff" stop-opacity="0"/></radialGradient><radialGradient id="paint13_radial_2320_339904" cx="0" cy="0" r="1" gradientTransform="translate(117.415 67.1359) rotate(132.095) scale(85.6645 75.6562)" gradientUnits="userSpaceOnUse"><stop stop-color="#fff"/><stop offset="1" stop-color="#fff" stop-opacity="0"/></radialGradient><radialGradient id="paint14_radial_2320_339904" cx="0" cy="0" r="1" gradientTransform="translate(129.011 152.026) rotate(164.496) scale(91.876 42.0174)" gradientUnits="userSpaceOnUse"><stop stop-color="#fff"/><stop offset="1" stop-color="#fff" stop-opacity="0"/></radialGradient><radialGradient id="paint15_radial_2320_339904" cx="0" cy="0" r="1" gradientTransform="translate(129.011 152.026) rotate(164.496) scale(91.876 42.0174)" gradientUnits="userSpaceOnUse"><stop stop-color="#fff"/><stop offset="1" stop-color="#fff" stop-opacity="0"/></radialGradient><clipPath id="clip0_2320_339904"><rect width="192" height="192" fill="#fff"/></clipPath></defs></svg>