<svg width="192" height="192" viewBox="0 0 192 192" fill="none" xmlns="http://www.w3.org/2000/svg">
  <g clip-path="url(#clip0_2320_340716)">
    <mask id="mask0_2320_340716" style="mask-type:alpha" maskUnits="userSpaceOnUse" x="11" y="-14" width="165"
      height="107">
      <path
        d="M175.993 69.471C176.711 74.0678 118.241 91.1185 97.3244 92.9815C89.1492 93.6902 14.4963 73.8451 11.6517 69.471C8.80705 65.097 11.6519 -10.2763 97.3243 -14C175.993 -5.62159 175.229 64.8135 175.993 69.471Z"
        fill="#636363" />
    </mask>
    <g mask="url(#mask0_2320_340716)">
      <ellipse opacity="0.5" cx="95.5" cy="82" rx="76.5" ry="61" fill="url(#paint0_radial_2320_340716)" />
    </g>
    <path d="M95.4593 187.589L16.0796 144.382V58.4762L94.9193 14.7607L175.379 58.4762V144.382L95.4593 187.589Z"
      fill="#EFEFEF" />
    <path d="M95.856 146.924L53.8789 124.049V78.5697L95.5704 55.4263L138.119 78.5697V124.049L95.856 146.924Z"
      fill="url(#paint1_linear_2320_340716)" />
    <mask id="mask1_2320_340716" style="mask-type:alpha" maskUnits="userSpaceOnUse" x="94" y="14" width="81"
      height="65">
      <path d="M174.137 57.5674L136.338 78.4081L94.7578 55.0254L95.2977 14.8682L174.137 57.5674Z"
        fill="url(#paint2_linear_2320_340716)" />
    </mask>
    <g mask="url(#mask1_2320_340716)">
      <path fill-rule="evenodd" clip-rule="evenodd"
        d="M174.678 57.5676L95.298 14.3605L15.3783 57.5676V143.474L95.838 187.189L174.678 143.474V57.5676ZM136.878 77.9004L94.9009 55.026L52.6383 77.9004V123.38L95.1864 146.523L136.878 123.38V77.9004Z"
        fill="url(#paint3_linear_2320_340716)" />
    </g>
    <mask id="mask2_2320_340716" style="mask-type:alpha" maskUnits="userSpaceOnUse" x="28" y="22" width="68"
      height="55">
      <path
        d="M34.5603 67.6022L48.1043 75.0697C51.8463 77.1328 56.5127 77.0836 60.3229 74.9409L89.4509 58.5607C93.3265 56.3812 95.7028 52.3816 95.6457 48.1339L95.4561 34.0384C95.3389 25.3184 85.5752 20.0796 77.5457 24.4283L35.0632 47.4366C26.7946 51.9148 26.5141 63.166 34.5603 67.6022Z"
        fill="url(#paint4_linear_2320_340716)" />
    </mask>
    <g mask="url(#mask2_2320_340716)">
      <path fill-rule="evenodd" clip-rule="evenodd"
        d="M15.8184 64.626C15.8184 60.2749 18.1971 56.2719 22.0188 54.1917L89.5377 17.4405C93.0683 15.5188 97.3311 15.5127 100.867 17.4244L168.888 54.1984C172.726 56.2735 175.118 60.2856 175.118 64.6489V136.407C175.118 140.761 172.736 144.767 168.909 146.846L100.388 184.075C96.8191 186.014 92.5072 185.995 88.9553 184.026L21.9374 146.865C18.1612 144.772 15.8184 140.794 15.8184 136.476V64.626ZM53.6182 84.955C53.6182 80.6059 55.9947 76.6044 59.8136 74.5234L89.93 58.1122C93.4631 56.1869 97.7306 56.1808 101.269 58.0961L131.633 74.5301C135.468 76.606 137.858 80.6166 137.858 84.9779V116.317C137.858 120.67 135.478 124.674 131.654 126.753L101.044 143.403C97.4731 145.346 93.1564 145.327 89.6019 143.354L59.7322 126.773C55.9588 124.678 53.6182 120.702 53.6182 116.386V84.955Z"
        fill="url(#paint5_linear_2320_340716)" />
    </g>
    <path d="M95.8233 157.09L44.1592 129.132V73.5462L95.4718 45.2598L147.839 73.5462V129.132L95.8233 157.09Z"
      fill="#E1E1E1" />
    <path
      d="M90.2405 149.002L54.7427 129.951C50.8866 127.882 48.4805 123.86 48.4805 119.484V83.1023C48.4805 78.759 50.8507 74.7619 54.6617 72.6785L89.8758 53.4269C93.3954 51.5027 97.6484 51.4846 101.184 53.3787L137.25 72.6988C141.111 74.7669 143.52 78.7913 143.52 83.1709V119.461C143.52 123.849 141.101 127.88 137.228 129.944L101.446 149.018C97.9431 150.885 93.7385 150.879 90.2405 149.002Z"
      fill="url(#paint6_linear_2320_340716)" />
    <path d="M16.0796 144.382V58.9844L44.1595 73.2173V128.624L16.0796 144.382Z"
      fill="url(#paint7_linear_2320_340716)" />
    <path d="M175.92 58.476L175.92 143.874L147.841 129.641L147.841 74.2339L175.92 58.476Z"
      fill="url(#paint8_linear_2320_340716)" />
    <path d="M175.645 144.399L97.0791 187.098L96.1334 157.09L147.107 129.387L175.645 144.399Z"
      fill="url(#paint9_linear_2320_340716)" />
    <path d="M95.7267 187.098L17.1611 144.399L44.2953 128.624L95.2694 156.327L95.7267 187.098Z"
      fill="url(#paint10_linear_2320_340716)" />
    <path
      d="M43.534 146.482C43.2117 147.638 41.4682 147.638 41.1459 146.482L39.4112 140.261C39.2981 139.855 38.9615 139.538 38.5305 139.432L31.9211 137.799C30.693 137.495 30.693 135.854 31.9211 135.551L38.5305 133.918C38.9615 133.811 39.2981 133.494 39.4112 133.089L41.1459 126.867C41.4682 125.711 43.2117 125.711 43.534 126.867L45.2687 133.089C45.3818 133.494 45.7184 133.811 46.1494 133.918L52.7588 135.551C53.987 135.854 53.987 137.495 52.7588 137.799L46.1494 139.432C45.7184 139.538 45.3818 139.855 45.2687 140.261L43.534 146.482Z"
      fill="white" />
    <g style="mix-blend-mode:overlay">
      <path fill-rule="evenodd" clip-rule="evenodd"
        d="M45.2388 129.132L96.9028 157.09L148.918 129.132V73.5462L96.5514 45.2598L45.2388 73.5462V129.132ZM55.8203 129.952L91.3181 149.002C94.8162 150.88 99.0207 150.886 102.524 149.018L138.306 129.945C142.179 127.881 144.598 123.85 144.598 119.461V83.1714C144.598 78.7918 142.188 74.7674 138.328 72.6993L102.262 53.3792C98.7261 51.485 94.4731 51.5031 90.9534 53.4273L55.7393 72.6789C51.9283 74.7624 49.5581 78.7595 49.5581 83.1028V119.484C49.5581 123.86 51.9642 127.882 55.8203 129.952Z"
        fill="url(#paint11_radial_2320_340716)" />
    </g>
    <g style="mix-blend-mode:overlay">
      <path fill-rule="evenodd" clip-rule="evenodd"
        d="M44.1611 128.116L95.8252 156.073L147.841 128.116V72.5296L95.4738 44.2432L44.1611 72.5296V128.116ZM54.7427 128.935L90.2405 147.985C93.7385 149.863 97.9431 149.868 101.446 148.001L137.228 128.928C141.101 126.864 143.52 122.833 143.52 118.444V82.1543C143.52 77.7747 141.111 73.7503 137.25 71.6822L101.184 52.3621C97.6484 50.4679 93.3954 50.4861 89.8758 52.4103L54.6617 71.6619C50.8507 73.7453 48.4805 77.7424 48.4805 82.0857V118.467C48.4805 122.843 50.8866 126.865 54.7427 128.935Z"
        fill="url(#paint12_radial_2320_340716)" />
    </g>
    <g style="mix-blend-mode:soft-light">
      <path d="M95.4593 187.589L16.0796 144.382L95.4593 176.406L175.919 144.382L95.4593 187.589Z"
        fill="url(#paint13_radial_2320_340716)" />
    </g>
    <g style="mix-blend-mode:overlay">
      <path d="M95.4593 187.589L16.0796 144.382L95.4593 183.522L175.919 144.382L95.4593 187.589Z"
        fill="url(#paint14_radial_2320_340716)" />
    </g>
    <g style="mix-blend-mode:soft-light">
      <path
        d="M158.199 68.911C149.844 73.6067 147.291 86.9547 147.058 93.0418C146.826 89.3461 145.944 80.6503 144.273 75.4328C143.139 71.893 137.027 67.7527 131.329 64.6415C128.38 63.3628 125.791 62.0465 124.08 61.0848C126.02 61.9236 128.628 63.167 131.329 64.6415C136.379 66.8313 142.486 68.911 147.058 68.911C154.3 68.911 170.037 61.9544 177 58.4761C174.215 59.9978 166.555 64.2153 158.199 68.911Z"
        fill="white" />
    </g>
    <g style="mix-blend-mode:soft-light" opacity="0.5">
      <path
        d="M34.2361 133.984C42.5053 129.155 44.8156 115.768 44.9371 109.678C45.2363 113.369 46.2762 122.05 48.0419 127.239C49.2398 130.761 55.4267 134.802 61.1807 137.821C64.1523 139.052 66.7641 140.326 68.4926 141.26C66.5373 140.453 63.9076 139.252 61.1807 137.821C56.0915 135.713 49.9468 133.732 45.3755 133.805C38.1349 133.922 22.5269 141.131 15.628 144.721C18.3852 143.154 25.9669 138.814 34.2361 133.984Z"
        fill="white" />
    </g>
    <g style="mix-blend-mode:overlay">
      <path
        d="M37.4085 68.633C44.0483 71.9175 54.3996 68.1315 58.7453 65.8278C56.2568 67.4574 50.5366 71.4995 47.5636 74.6317C45.5466 76.7567 45.1118 82.2052 45.2293 86.9834C45.5216 89.323 45.6427 91.4544 45.6589 92.9004C45.4647 91.362 45.285 89.248 45.2293 86.9834C44.7287 82.9768 43.7259 78.3598 41.8877 75.5296C38.9762 71.0468 27.7895 64.1022 22.5601 61.1903C24.7429 62.3026 30.7687 65.3484 37.4085 68.633Z"
        fill="white" />
    </g>
    <g style="mix-blend-mode:soft-light" opacity="0.6">
      <path
        d="M148.921 132.182C142.441 131.674 138.652 133.896 134.249 136.1C136.778 134.528 142.6 130.617 145.653 127.554C147.724 125.475 148.299 120.038 148.304 115.259C148.072 112.913 148.006 110.78 148.027 109.334C148.181 110.876 148.307 112.994 148.304 115.259C148.702 119.276 149.585 123.914 151.35 126.785C154.146 131.333 165.151 138.53 170.304 141.56C168.15 140.399 152.292 132.447 148.921 132.182Z"
        fill="white" />
    </g>
    <g style="mix-blend-mode:overlay">
      <path
        d="M153.993 70.7139C149.048 73.4761 147.537 81.3278 147.399 84.9084C147.262 82.7345 146.74 77.6193 145.751 74.5502C145.08 72.468 141.462 70.0325 138.09 68.2024C136.344 67.4502 134.813 66.6759 133.8 66.1102C134.948 66.6036 136.491 67.335 138.09 68.2024C141.079 69.4905 144.693 70.7139 147.399 70.7139C151.685 70.7139 160.999 66.6217 165.12 64.5757C163.471 65.4708 158.938 67.9517 153.993 70.7139Z"
        fill="white" />
    </g>
    <g style="mix-blend-mode:soft-light" opacity="0.6">
      <path
        d="M78.7192 147.032C82.554 149.094 91.4288 153.218 96.2496 153.218C101.07 153.218 111.771 148.344 116.519 145.907C111.406 148.719 100.632 155.242 98.4409 158.842C96.6436 161.794 96.1976 166.966 96.1961 170.385C96.2336 171.13 96.2496 171.794 96.2496 172.339C96.2168 171.8 96.1957 171.135 96.1961 170.385C96.0142 166.772 95.3271 161.263 93.5105 158.279C91.3192 154.68 82.7366 149.281 78.7192 147.032Z"
        fill="white" />
    </g>
    <g style="mix-blend-mode:color-burn" opacity="0.5">
      <path d="M94.6229 186.479L16.1094 144.592V61.3113L94.0888 18.9316L173.671 61.3113V144.592L94.6229 186.479Z"
        fill="#A7A7A7" />
    </g>
    <g style="mix-blend-mode:soft-light" opacity="0.8">
      <path d="M94.6229 185.37L16.1094 143.483V60.2019L94.0888 17.8223L173.671 60.2019V143.483L94.6229 185.37Z"
        fill="#14E2F2" />
    </g>
    <path
      d="M161.184 41.472C161 42.176 160 42.176 159.816 41.472L158.821 37.6835C158.756 37.4365 158.564 37.2436 158.316 37.1787L154.528 36.1844C153.824 35.9997 153.824 35.0003 154.528 34.8156L158.316 33.8213C158.564 33.7564 158.756 33.5635 158.821 33.3165L159.816 29.528C160 28.824 161 28.824 161.184 29.528L162.179 33.3165C162.244 33.5635 162.436 33.7564 162.684 33.8213L166.472 34.8156C167.176 35.0003 167.176 35.9997 166.472 36.1844L162.684 37.1787C162.436 37.2436 162.244 37.4365 162.179 37.6835L161.184 41.472Z"
      fill="#1FC7D4" />
  </g>
  <ellipse cx="107" cy="101" rx="32" ry="14" fill="#E2E2E2" />
  <path
    d="M59.84 118H55.84V122H59.84V118ZM59.84 93.6455H63.84V89.0028L59.2484 89.6894L59.84 93.6455ZM54.2955 94.4745H50.2955V99.1171L54.887 98.4306L54.2955 94.4745ZM54.2955 86.3391L53.7185 82.3809L50.2955 82.8799V86.3391H54.2955ZM69.5818 84.1109H73.5818V79.4856L69.0049 80.1527L69.5818 84.1109ZM69.5818 118V122H73.5818V118H69.5818ZM63.84 118V93.6455H55.84V118H63.84ZM59.2484 89.6894L53.7039 90.5185L54.887 98.4306L60.4316 97.6015L59.2484 89.6894ZM58.2955 94.4745V86.3391H50.2955V94.4745H58.2955ZM54.8724 90.2973L70.1588 88.0691L69.0049 80.1527L53.7185 82.3809L54.8724 90.2973ZM65.5818 84.1109V118H73.5818V84.1109H65.5818ZM69.5818 114H59.84V122H69.5818V114ZM79.9058 116.549L77.8935 120.006L77.9238 120.024L77.9545 120.041L79.9058 116.549ZM74.8276 110.694L71.1382 112.239L74.8276 110.694ZM74.8276 91.9355L71.1382 90.3899L74.8276 91.9355ZM79.9058 86.1318L81.8791 89.6112L81.8875 89.6064L81.8958 89.6016L79.9058 86.1318ZM101.462 88.5673L98.3775 91.1139L98.3849 91.1227L98.3922 91.1316L101.462 88.5673ZM101.462 114.062L104.547 116.608L101.462 114.062ZM93.8449 107.999L90.4012 105.964L90.394 105.976L90.3868 105.989L93.8449 107.999ZM93.8449 94.63L90.3868 96.6405L90.4041 96.6702L90.4219 96.6997L93.8449 94.63ZM84.4658 94.63L81.0429 92.5603L81.025 92.5898L81.0078 92.6195L84.4658 94.63ZM84.4658 107.999L80.988 109.975L81.0148 110.022L81.0429 110.069L84.4658 107.999ZM89.1812 114.518C85.7566 114.518 83.4097 113.925 81.8571 113.057L77.9545 120.041C81.1001 121.799 84.9368 122.518 89.1812 122.518V114.518ZM81.9181 113.092C80.3833 112.199 79.2642 110.932 78.517 109.148L71.1382 112.239C72.5328 115.568 74.7992 118.205 77.8935 120.006L81.9181 113.092ZM78.517 109.148C77.7072 107.215 77.2212 104.648 77.2212 101.315H69.2212C69.2212 105.374 69.8062 109.06 71.1382 112.239L78.517 109.148ZM77.2212 101.315C77.2212 97.9814 77.7072 95.4141 78.517 93.481L71.1382 90.3899C69.8062 93.5696 69.2212 97.2549 69.2212 101.315H77.2212ZM78.517 93.481C79.261 91.7049 80.3687 90.4679 81.8791 89.6112L77.9324 82.6525C74.8138 84.4212 72.536 87.0533 71.1382 90.3899L78.517 93.481ZM81.8958 89.6016C83.4387 88.7168 85.7703 88.1109 89.1812 88.1109V80.1109C84.9231 80.1109 81.071 80.8523 77.9157 82.662L81.8958 89.6016ZM89.1812 88.1109C94.3184 88.1109 96.9965 89.4411 98.3775 91.1139L104.547 86.0207C101.022 81.7516 95.5131 80.1109 89.1812 80.1109V88.1109ZM98.3922 91.1316C100.023 93.0841 101.141 96.2754 101.141 101.315H109.141C109.141 95.2301 107.807 89.9232 104.532 86.003L98.3922 91.1316ZM101.141 101.315C101.141 106.308 100.028 109.516 98.3775 111.515L104.547 116.608C107.802 112.666 109.141 107.376 109.141 101.315H101.141ZM98.3775 111.515C96.9965 113.188 94.3184 114.518 89.1812 114.518V122.518C95.5131 122.518 101.022 120.877 104.547 116.608L98.3775 111.515ZM89.1812 114.227C92.3508 114.227 95.5029 113.106 97.3029 110.01L90.3868 105.989C90.363 106.03 90.352 106.037 90.3571 106.032C90.3622 106.028 90.3526 106.039 90.3068 106.061C90.2055 106.109 89.8811 106.227 89.1812 106.227V114.227ZM97.2886 110.034C98.7182 107.615 99.1921 104.545 99.1921 101.315H91.1921C91.1921 103.957 90.7679 105.344 90.4012 105.964L97.2886 110.034ZM99.1921 101.315C99.1921 98.0709 98.7251 94.9705 97.2678 92.5603L90.4219 96.6997C90.761 97.2604 91.1921 98.6163 91.1921 101.315H99.1921ZM97.3029 92.6195C95.5029 89.5235 92.3508 88.4018 89.1812 88.4018V96.4018C89.8811 96.4018 90.2055 96.5197 90.3068 96.5681C90.3526 96.59 90.3622 96.6015 90.3571 96.5968C90.352 96.5921 90.363 96.5995 90.3868 96.6405L97.3029 92.6195ZM89.1812 88.4018C86.0046 88.4018 82.879 89.5236 81.0429 92.5603L87.8887 96.6997C87.9303 96.6309 87.9511 96.6114 88.0272 96.5754C88.1467 96.519 88.4836 96.4018 89.1812 96.4018V88.4018ZM81.0078 92.6195C79.6163 95.0128 79.1703 98.0871 79.1703 101.315H87.1703C87.1703 98.6002 87.588 97.2181 87.9238 96.6405L81.0078 92.6195ZM79.1703 101.315C79.1703 104.528 79.6229 107.573 80.988 109.975L87.9436 106.023C87.5814 105.386 87.1703 103.974 87.1703 101.315H79.1703ZM81.0429 110.069C82.879 113.105 86.0046 114.227 89.1812 114.227V106.227C88.4836 106.227 88.1467 106.11 88.0272 106.054C87.9511 106.018 87.9303 105.998 87.8887 105.929L81.0429 110.069ZM114.417 116.549L112.405 120.006L112.436 120.024L112.466 120.041L114.417 116.549ZM109.339 110.694L105.65 112.239L109.339 110.694ZM109.339 91.9355L105.65 90.3899L109.339 91.9355ZM114.417 86.1318L116.391 89.6112L116.399 89.6064L116.408 89.6016L114.417 86.1318ZM135.974 88.5673L132.889 91.1139L132.897 91.1227L132.904 91.1316L135.974 88.5673ZM135.974 114.062L139.058 116.608L135.974 114.062ZM128.357 107.999L124.913 105.964L124.906 105.976L124.899 105.989L128.357 107.999ZM128.357 94.63L124.899 96.6405L124.916 96.6702L124.934 96.6997L128.357 94.63ZM118.978 94.63L115.555 92.5603L115.537 92.5898L115.519 92.6195L118.978 94.63ZM118.978 107.999L115.5 109.975L115.526 110.022L115.555 110.069L118.978 107.999ZM123.693 114.518C120.268 114.518 117.921 113.925 116.369 113.057L112.466 120.041C115.612 121.799 119.449 122.518 123.693 122.518V114.518ZM116.43 113.092C114.895 112.199 113.776 110.932 113.029 109.148L105.65 112.239C107.044 115.568 109.311 118.205 112.405 120.006L116.43 113.092ZM113.029 109.148C112.219 107.215 111.733 104.648 111.733 101.315H103.733C103.733 105.374 104.318 109.06 105.65 112.239L113.029 109.148ZM111.733 101.315C111.733 97.9814 112.219 95.4141 113.029 93.481L105.65 90.3899C104.318 93.5696 103.733 97.2549 103.733 101.315H111.733ZM113.029 93.481C113.773 91.7049 114.88 90.4679 116.391 89.6112L112.444 82.6525C109.326 84.4212 107.048 87.0533 105.65 90.3899L113.029 93.481ZM116.408 89.6016C117.95 88.7168 120.282 88.1109 123.693 88.1109V80.1109C119.435 80.1109 115.583 80.8523 112.427 82.662L116.408 89.6016ZM123.693 88.1109C128.83 88.1109 131.508 89.4411 132.889 91.1139L139.058 86.0207C135.534 81.7516 130.025 80.1109 123.693 80.1109V88.1109ZM132.904 91.1316C134.535 93.0841 135.653 96.2754 135.653 101.315H143.653C143.653 95.2301 142.318 89.9232 139.044 86.003L132.904 91.1316ZM135.653 101.315C135.653 106.308 134.54 109.516 132.889 111.515L139.058 116.608C142.313 112.666 143.653 107.376 143.653 101.315H135.653ZM132.889 111.515C131.508 113.188 128.83 114.518 123.693 114.518V122.518C130.025 122.518 135.534 120.877 139.058 116.608L132.889 111.515ZM123.693 114.227C126.863 114.227 130.015 113.106 131.815 110.01L124.899 105.989C124.875 106.03 124.864 106.037 124.869 106.032C124.874 106.028 124.864 106.039 124.819 106.061C124.717 106.109 124.393 106.227 123.693 106.227V114.227ZM131.8 110.034C133.23 107.615 133.704 104.545 133.704 101.315H125.704C125.704 103.957 125.28 105.344 124.913 105.964L131.8 110.034ZM133.704 101.315C133.704 98.0709 133.237 94.9705 131.78 92.5603L124.934 96.6997C125.273 97.2604 125.704 98.6163 125.704 101.315H133.704ZM131.815 92.6195C130.015 89.5235 126.863 88.4018 123.693 88.4018V96.4018C124.393 96.4018 124.717 96.5197 124.819 96.5681C124.864 96.59 124.874 96.6015 124.869 96.5968C124.864 96.5921 124.875 96.5995 124.899 96.6405L131.815 92.6195ZM123.693 88.4018C120.516 88.4018 117.391 89.5236 115.555 92.5603L122.4 96.6997C122.442 96.6309 122.463 96.6114 122.539 96.5754C122.658 96.519 122.995 96.4018 123.693 96.4018V88.4018ZM115.519 92.6195C114.128 95.0128 113.682 98.0871 113.682 101.315H121.682C121.682 98.6002 122.1 97.2181 122.436 96.6405L115.519 92.6195ZM113.682 101.315C113.682 104.528 114.135 107.573 115.5 109.975L122.455 106.023C122.093 105.386 121.682 103.974 121.682 101.315H113.682ZM115.555 110.069C117.391 113.105 120.516 114.227 123.693 114.227V106.227C122.995 106.227 122.658 106.11 122.539 106.054C122.463 106.018 122.442 105.998 122.4 105.929L115.555 110.069Z"
    fill="white" />
  <path
    d="M59.84 118V93.6455L54.2955 94.4745V86.3391L69.5818 84.1109V118H59.84ZM89.1812 118.518C85.3467 118.518 82.2549 117.862 79.9058 116.549C77.5912 115.202 75.8985 113.25 74.8276 110.694C73.7567 108.137 73.2212 105.011 73.2212 101.315C73.2212 97.6182 73.7567 94.4918 74.8276 91.9355C75.8985 89.3791 77.5912 87.4445 79.9058 86.1318C82.2549 84.7845 85.3467 84.1109 89.1812 84.1109C94.9158 84.1109 99.0094 85.5964 101.462 88.5673C103.915 91.5036 105.141 95.7527 105.141 101.315C105.141 106.842 103.915 111.091 101.462 114.062C99.0094 117.033 94.9158 118.518 89.1812 118.518ZM89.1812 110.227C91.4267 110.227 92.9812 109.485 93.8449 107.999C94.7431 106.479 95.1921 104.251 95.1921 101.315C95.1921 98.3436 94.7431 96.1155 93.8449 94.63C92.9812 93.1445 91.4267 92.4018 89.1812 92.4018C86.9358 92.4018 85.364 93.1445 84.4658 94.63C83.6021 96.1155 83.1703 98.3436 83.1703 101.315C83.1703 104.251 83.6021 106.479 84.4658 107.999C85.364 109.485 86.9358 110.227 89.1812 110.227ZM123.693 118.518C119.858 118.518 116.767 117.862 114.418 116.549C112.103 115.202 110.41 113.25 109.339 110.694C108.268 108.137 107.733 105.011 107.733 101.315C107.733 97.6182 108.268 94.4918 109.339 91.9355C110.41 89.3791 112.103 87.4445 114.418 86.1318C116.767 84.7845 119.858 84.1109 123.693 84.1109C129.428 84.1109 133.521 85.5964 135.974 88.5673C138.427 91.5036 139.653 95.7527 139.653 101.315C139.653 106.842 138.427 111.091 135.974 114.062C133.521 117.033 129.428 118.518 123.693 118.518ZM123.693 110.227C125.938 110.227 127.493 109.485 128.357 107.999C129.255 106.479 129.704 104.251 129.704 101.315C129.704 98.3436 129.255 96.1155 128.357 94.63C127.493 93.1445 125.938 92.4018 123.693 92.4018C121.448 92.4018 119.876 93.1445 118.978 94.63C118.114 96.1155 117.682 98.3436 117.682 101.315C117.682 104.251 118.114 106.479 118.978 107.999C119.876 109.485 121.448 110.227 123.693 110.227Z"
    fill="#0098A1" />
  <defs>
    <radialGradient id="paint0_radial_2320_340716" cx="0" cy="0" r="1" gradientUnits="userSpaceOnUse"
      gradientTransform="translate(95.4875 81.9724) rotate(-90) scale(60.9724 76.4654)">
      <stop stop-color="#E0E0E0" />
      <stop offset="1" stop-color="white" stop-opacity="0" />
    </radialGradient>
    <linearGradient id="paint1_linear_2320_340716" x1="128.468" y1="55.7442" x2="92.9755" y2="154.155"
      gradientUnits="userSpaceOnUse">
      <stop stop-color="#B6B6B6" />
      <stop offset="1" stop-color="#8E8E8E" stop-opacity="0" />
    </linearGradient>
    <linearGradient id="paint2_linear_2320_340716" x1="153.083" y1="55.4243" x2="97.948" y2="30.8068"
      gradientUnits="userSpaceOnUse">
      <stop stop-color="white" stop-opacity="0" />
      <stop offset="0.512588" stop-color="white" />
      <stop offset="1" stop-color="white" />
    </linearGradient>
    <linearGradient id="paint3_linear_2320_340716" x1="55.8153" y1="42.6994" x2="135.487" y2="154.056"
      gradientUnits="userSpaceOnUse">
      <stop stop-color="white" stop-opacity="0" />
      <stop offset="0.512588" stop-color="white" />
      <stop offset="1" stop-color="white" />
    </linearGradient>
    <linearGradient id="paint4_linear_2320_340716" x1="61.7164" y1="-2.75703" x2="50.0426" y2="80.7784"
      gradientUnits="userSpaceOnUse">
      <stop stop-color="#FD9B13" />
      <stop offset="1" stop-color="#FD9B13" stop-opacity="0" />
    </linearGradient>
    <linearGradient id="paint5_linear_2320_340716" x1="156.868" y1="184.927" x2="92.1424" y2="1.75116"
      gradientUnits="userSpaceOnUse">
      <stop stop-color="#B6B6B6" />
      <stop offset="1" stop-color="#8E8E8E" stop-opacity="0" />
    </linearGradient>
    <linearGradient id="paint6_linear_2320_340716" x1="132.632" y1="50.696" x2="93.6588" y2="160.422"
      gradientUnits="userSpaceOnUse">
      <stop stop-color="#B6B6B6" />
      <stop offset="1" stop-color="#8E8E8E" stop-opacity="0" />
    </linearGradient>
    <linearGradient id="paint7_linear_2320_340716" x1="1.42483" y1="86.9054" x2="189.352" y2="-49.9883"
      gradientUnits="userSpaceOnUse">
      <stop stop-color="#AFAFAF" />
      <stop offset="1" stop-color="#CECECE" stop-opacity="0" />
    </linearGradient>
    <linearGradient id="paint8_linear_2320_340716" x1="170.52" y1="76.2671" x2="147.9" y2="180.057"
      gradientUnits="userSpaceOnUse">
      <stop stop-color="#8B8B8B" />
      <stop offset="1" stop-color="#B7B7B7" stop-opacity="0" />
    </linearGradient>
    <linearGradient id="paint9_linear_2320_340716" x1="130.094" y1="185.084" x2="-78.9165" y2="78.8865"
      gradientUnits="userSpaceOnUse">
      <stop stop-color="#BEBEBE" />
      <stop offset="1" stop-color="#CECECE" stop-opacity="0" />
    </linearGradient>
    <linearGradient id="paint10_linear_2320_340716" x1="35.5211" y1="170.306" x2="19.241" y2="-52.4893"
      gradientUnits="userSpaceOnUse">
      <stop stop-color="#929292" />
      <stop offset="1" stop-color="#CECECE" stop-opacity="0" />
    </linearGradient>
    <radialGradient id="paint11_radial_2320_340716" cx="0" cy="0" r="1" gradientUnits="userSpaceOnUse"
      gradientTransform="translate(120.838 51.3596) rotate(131.437) scale(96.2826 84.8126)">
      <stop stop-color="white" />
      <stop offset="1" stop-color="white" stop-opacity="0" />
    </radialGradient>
    <radialGradient id="paint12_radial_2320_340716" cx="0" cy="0" r="1" gradientUnits="userSpaceOnUse"
      gradientTransform="translate(119.761 50.343) rotate(131.437) scale(96.2826 84.8126)">
      <stop stop-color="white" />
      <stop offset="1" stop-color="white" stop-opacity="0" />
    </radialGradient>
    <radialGradient id="paint13_radial_2320_340716" cx="0" cy="0" r="1" gradientUnits="userSpaceOnUse"
      gradientTransform="translate(132.629 146.739) rotate(164.151) scale(102.117 47.632)">
      <stop stop-color="white" />
      <stop offset="1" stop-color="white" stop-opacity="0" />
    </radialGradient>
    <radialGradient id="paint14_radial_2320_340716" cx="0" cy="0" r="1" gradientUnits="userSpaceOnUse"
      gradientTransform="translate(132.629 146.739) rotate(164.151) scale(102.117 47.632)">
      <stop stop-color="white" />
      <stop offset="1" stop-color="white" stop-opacity="0" />
    </radialGradient>
    <clipPath id="clip0_2320_340716">
      <rect width="192" height="192" fill="white" />
    </clipPath>
  </defs>
</svg>