<svg xmlns="http://www.w3.org/2000/svg" width="192" height="192" fill="none" viewBox="0 0 192 192"><g clip-path="url(#clip0_2320_340672)"><mask id="mask0_2320_340672" width="165" height="107" x="11" y="-14" maskUnits="userSpaceOnUse" style="mask-type:alpha"><path fill="#636363" d="M175.993 69.471C176.711 74.0678 118.241 91.1185 97.3244 92.9815C89.1492 93.6902 14.4963 73.8451 11.6517 69.471C8.80705 65.097 11.6519 -10.2763 97.3243 -14C175.993 -5.62159 175.229 64.8135 175.993 69.471Z"/></mask><g mask="url(#mask0_2320_340672)"><ellipse cx="96.5" cy="71" fill="url(#paint0_radial_2320_340672)" opacity=".5" rx="76.5" ry="61"/></g><path fill="#FFE97B" d="M85.4357 176.92L28.0019 145.558C21.2602 141.876 17.0664 134.808 17.0664 127.127V66.8171C17.0664 59.1947 21.1968 52.1707 27.8579 48.4653L84.8273 16.7751C91.1189 13.2754 98.7648 13.2425 105.086 16.6881L163.45 48.5C170.199 52.179 174.399 59.2518 174.399 66.9388V127.086C174.399 134.789 170.182 141.874 163.411 145.546L105.512 176.949C99.2485 180.346 91.6896 180.335 85.4357 176.92Z"/><path fill="url(#paint1_linear_2320_340672)" d="M95.8573 142.105L54.3984 119.44V74.3775L95.5752 51.4463L137.598 74.3775V119.44L95.8573 142.105Z"/><mask id="mask1_2320_340672" width="61" height="49" x="94" y="23" maskUnits="userSpaceOnUse" style="mask-type:alpha"><path fill="url(#paint2_linear_2320_340672)" d="M104.318 56.4335L126.351 68.8635C132.215 72.1718 139.403 72.2454 145.17 69.056C157.554 62.2059 157.142 44.857 144.43 37.9504L122.194 25.8686C109.973 19.2287 95.092 27.2391 94.9135 40.5531C94.8268 47.024 98.4329 53.1134 104.318 56.4335Z"/></mask><g mask="url(#mask1_2320_340672)"><path fill="url(#paint3_linear_2320_340672)" fill-rule="evenodd" d="M141.421 35.9388L124.921 26.9288C106.457 16.8464 84.1402 16.8146 65.6477 26.8444L48.8152 35.9738C28.8247 46.8161 16.3743 67.7325 16.3743 90.4739V101.869C16.3743 124.564 28.7745 145.446 48.7017 156.307L65.8639 165.662C84.5272 175.835 107.101 175.738 125.676 165.405L141.846 156.41C161.513 145.47 173.707 124.733 173.707 102.229V90.3545C173.707 67.6763 161.325 46.8076 141.421 35.9388ZM136.375 89.1331C136.375 79.6273 131.187 70.8792 122.847 66.3195L107.346 57.8455C99.597 53.6095 90.2281 53.5962 82.4674 57.8101L66.7687 66.3342C58.3916 70.8828 53.1753 79.6508 53.1753 89.1832V103.346C53.1753 112.859 58.3706 121.613 66.7211 126.169L82.6164 134.843C90.4486 139.117 99.9254 139.076 107.721 134.735L123.025 126.212C131.266 121.623 136.375 112.93 136.375 103.497V89.1331Z" clip-rule="evenodd"/></g><mask id="mask2_2320_340672" width="67" height="54" x="29" y="19" maskUnits="userSpaceOnUse" style="mask-type:alpha"><path fill="url(#paint4_linear_2320_340672)" d="M35.2916 63.4946L48.6961 70.9089C52.3919 72.9532 56.9993 72.906 60.758 70.7855L89.5552 54.5393C93.3701 52.387 95.7078 48.4396 95.6516 44.2449L95.464 30.249C95.3483 21.6183 85.7015 16.4256 77.7796 20.7298L35.7654 43.5576C27.6181 47.9843 27.3538 59.1041 35.2916 63.4946Z"/></mask><g mask="url(#mask2_2320_340672)"><path fill="url(#paint5_linear_2320_340672)" fill-rule="evenodd" d="M16.8105 60.5285C16.8105 56.2368 19.1538 52.2874 22.9205 50.2306L89.6059 13.8164C93.1002 11.9083 97.3236 11.9023 100.823 13.8004L168.004 50.2372C171.787 52.2891 174.143 56.2474 174.143 60.5511V131.717C174.143 136.012 171.797 139.964 168.025 142.02L100.35 178.907C96.8179 180.833 92.546 180.814 89.0307 178.859L22.8401 142.039C19.1183 139.969 16.8105 136.044 16.8105 131.785V60.5285ZM54.1426 80.6712C54.1426 76.3814 56.4836 72.4336 60.2477 70.3758L89.9922 54.1152C93.489 52.2036 97.7171 52.1976 101.219 54.0992L131.208 70.3825C134.988 72.4352 137.342 76.392 137.342 80.6938V111.812C137.342 116.105 134.998 120.055 131.229 122.112L100.997 138.609C97.4628 140.537 93.1861 140.519 89.6683 138.56L60.1672 122.131C56.4481 120.06 54.1426 116.137 54.1426 111.88V80.6712Z" clip-rule="evenodd"/></g><path fill="#FECB54" d="M94.8741 151.661L45.8446 125.044C45.2001 124.694 44.7988 124.02 44.7988 123.287V70.5795C44.7988 69.8518 45.1941 69.1815 45.8309 68.8293L94.5198 41.9029C95.1168 41.5728 95.8408 41.5697 96.4406 41.8947L146.151 68.8326C146.797 69.1823 147.198 69.8572 147.198 70.5911V123.283C147.198 124.018 146.795 124.694 146.148 125.043L96.7775 151.664C96.1833 151.984 95.4674 151.983 94.8741 151.661Z"/><path fill="url(#paint6_linear_2320_340672)" d="M90.299 144.157L55.2394 125.281C51.4386 123.234 49.0684 119.266 49.0684 114.95V78.8357C49.0684 74.5517 51.4032 70.6082 55.1593 68.5481L89.9388 49.473C93.4223 47.5625 97.6359 47.5445 101.136 49.4253L136.756 68.5681C140.561 70.6131 142.935 74.5836 142.935 78.9035V114.927C142.935 119.256 140.551 123.233 136.734 125.274L101.394 144.172C97.9268 146.026 93.7612 146.021 90.299 144.157Z"/><path fill="url(#paint7_linear_2320_340672)" d="M19.0664 129.323V64.7539C19.0664 60.2758 23.7944 57.3758 27.786 59.4056L43.5192 67.406C45.5319 68.4295 46.7996 70.4963 46.7996 72.7542V120.465C46.7996 122.632 45.6313 124.63 43.7431 125.693L28.0099 134.551C24.0102 136.803 19.0664 133.913 19.0664 129.323Z"/><path fill="url(#paint8_linear_2320_340672)" d="M172.934 64.7315L172.934 129.3C172.934 133.778 168.206 136.678 164.214 134.649L148.481 126.648C146.468 125.625 145.2 123.558 145.2 121.3L145.2 73.5891C145.2 71.4223 146.369 69.4237 148.257 68.3607L163.99 59.5032C167.99 57.2514 172.934 60.1416 172.934 64.7315Z"/><path fill="url(#paint9_linear_2320_340672)" d="M165.25 142.681L106.008 174.982C101.994 177.17 96.8939 174.367 96.7534 169.894L96.241 153.583C96.174 151.449 97.3208 149.476 99.236 148.432L143.529 124.283C145.361 123.284 147.626 123.282 149.512 124.277L164.974 132.437C169.213 134.674 169.368 140.436 165.25 142.681Z"/><path fill="url(#paint10_linear_2320_340672)" d="M87.8873 174.554L25.5859 140.585C22.2408 138.762 22.2586 134.118 25.6181 132.158L42.3364 122.408C43.9394 121.473 45.9243 121.433 47.5203 122.303L92.8216 147.002C94.3483 147.835 95.2941 149.378 95.3193 151.078L95.601 170.097C95.6576 173.918 91.3188 176.425 87.8873 174.554Z"/><path fill="#fff" d="M46.8424 134.137C46.615 134.971 45.385 134.971 45.1576 134.137L43.9339 129.649C43.8541 129.356 43.6166 129.127 43.3126 129.051L38.6498 127.873C37.7834 127.654 37.7834 126.47 38.6498 126.251L43.3126 125.073C43.6166 124.996 43.8541 124.768 43.9339 124.475L45.1576 119.987C45.385 119.153 46.615 119.153 46.8424 119.987L48.0661 124.475C48.1459 124.768 48.3834 124.996 48.6874 125.073L53.3502 126.251C54.2166 126.47 54.2166 127.654 53.3502 127.873L48.6874 129.051C48.3834 129.127 48.1459 129.356 48.0661 129.649L46.8424 134.137Z"/><g style="mix-blend-mode:overlay"><path fill="url(#paint11_radial_2320_340672)" fill-rule="evenodd" d="M45.8652 117.338C45.8652 121.738 48.2731 125.785 52.1399 127.884L91.1855 149.081C94.7457 151.014 99.0406 151.02 102.606 149.097L141.96 127.877C145.844 125.783 148.265 121.727 148.265 117.315V76.5472C148.265 72.1441 145.853 68.0946 141.982 65.9967L102.32 44.5042C98.7216 42.5541 94.3773 42.5727 90.7955 44.5536L52.0578 65.9766C48.2369 68.0897 45.8652 72.1115 45.8652 76.4778V117.338ZM56.3019 125.282L91.3615 144.158C94.8237 146.022 98.9893 146.028 102.457 144.173L137.797 125.275C141.614 123.234 143.997 119.257 143.997 114.928V78.9047C143.997 74.5848 141.623 70.6144 137.818 68.5694L102.198 49.4265C98.6984 47.5458 94.4848 47.5637 91.0013 49.4743L56.2218 68.5494C52.4657 70.6095 50.1309 74.553 50.1309 78.837V114.951C50.1309 119.268 52.5011 123.236 56.3019 125.282Z" clip-rule="evenodd"/></g><g style="mix-blend-mode:overlay"><path fill="url(#paint12_radial_2320_340672)" fill-rule="evenodd" d="M104.877 146.291C99.2317 149.335 92.4314 149.325 86.7946 146.265L54.7377 128.862C48.6152 125.538 44.8027 119.131 44.8027 112.164V79.5967C44.8027 72.6833 48.5578 66.3156 54.6076 62.9699L86.3795 45.3991C92.0507 42.2628 98.9292 42.2333 104.627 45.3209L137.255 63.0017C143.384 66.3232 147.202 72.735 147.202 79.7066V112.128C147.202 119.113 143.369 125.536 137.22 128.851L104.877 146.291ZM90.299 143.149L55.2394 124.273C51.4386 122.227 49.0684 118.258 49.0684 113.942V109.357C49.4724 112.917 51.6416 116.073 54.8888 117.709L90.0425 135.422C93.0637 136.945 96.6268 136.95 99.6522 135.435L135.085 117.702C138.71 115.887 141 112.181 141 108.127V75.4121C141 73.072 140.237 70.8474 138.894 69.0358C141.429 71.2368 142.935 74.4554 142.935 77.8957V113.919C142.935 118.248 140.551 122.225 136.734 124.266L101.394 143.164C97.9268 145.019 93.7612 145.013 90.299 143.149ZM111.133 53.7904L135.104 65.8472C136.628 66.6138 137.915 67.7151 138.894 69.0358C138.246 68.473 137.531 67.9768 136.756 67.5603L111.133 53.7904ZM97.7399 47.2196C95.1089 46.7274 92.3491 47.1433 89.9388 48.4652L55.1593 67.5403C51.4032 69.6004 49.0684 73.5439 49.0684 77.8279V109.357C49.0231 108.958 49 108.555 49 108.147V75.3516C49 71.337 51.2458 67.6598 54.8173 65.8265L89.6922 47.9249C92.2001 46.6376 95.0906 46.4016 97.7399 47.2196ZM97.7399 47.2196C98.9114 47.4388 100.057 47.838 101.136 48.4175L111.133 53.7904L99.3924 47.8851C98.8565 47.6155 98.3037 47.3937 97.7399 47.2196Z" clip-rule="evenodd"/></g><g style="mix-blend-mode:soft-light"><path fill="url(#paint13_radial_2320_340672)" d="M95.4661 182.397L17.0664 139.586L95.4661 171.316L174.932 139.586L95.4661 182.397Z"/></g><g style="mix-blend-mode:overlay"><path fill="url(#paint14_radial_2320_340672)" d="M95.4661 182.397L17.0664 139.586L95.4661 178.368L174.932 139.586L95.4661 182.397Z"/></g><g style="mix-blend-mode:soft-light"><path fill="#fff" d="M157.431 64.807C149.178 69.4596 146.656 82.6852 146.427 88.7165C146.198 85.0546 145.327 76.4386 143.676 71.269C142.556 67.7616 136.519 63.6593 130.891 60.5766C127.979 59.3097 125.423 58.0055 123.732 57.0526C125.649 57.8837 128.224 59.1157 130.891 60.5766C135.879 62.7464 141.912 64.807 146.427 64.807C153.579 64.807 169.122 57.9142 175.999 54.4678C173.248 55.9756 165.683 60.1543 157.431 64.807Z"/></g><g style="mix-blend-mode:soft-light" opacity=".5"><path fill="#fff" d="M34.9985 129.284C43.1656 124.499 45.4474 111.235 45.5674 105.2C45.8629 108.858 46.8899 117.459 48.6338 122.601C49.817 126.09 55.9275 130.094 61.6104 133.085C64.5454 134.305 67.1249 135.568 68.8321 136.493C66.9009 135.693 64.3037 134.503 61.6104 133.085C56.584 130.996 50.5152 129.034 46.0003 129.106C38.8491 129.222 23.4338 136.365 16.6201 139.922C19.3432 138.37 26.8313 134.069 34.9985 129.284Z"/></g><g style="mix-blend-mode:overlay"><path fill="#fff" d="M38.1319 64.5317C44.6897 67.7861 54.9132 64.0347 59.2053 61.7522C56.7475 63.3668 51.098 67.3719 48.1617 70.4753C46.1695 72.5809 45.7401 77.9794 45.8561 82.7138C46.1448 85.0319 46.2644 87.1437 46.2804 88.5765C46.0887 87.0522 45.9111 84.9576 45.8561 82.7138C45.3617 78.744 44.3713 74.1693 42.5558 71.365C39.6803 66.9233 28.6316 60.0425 23.4668 57.1572C25.6227 58.2594 31.5741 61.2772 38.1319 64.5317Z"/></g><g style="mix-blend-mode:soft-light" opacity=".6"><path fill="#fff" d="M148.268 127.498C141.868 126.995 138.126 129.197 133.777 131.38C136.275 129.822 142.026 125.948 145.041 122.912C147.086 120.853 147.654 115.466 147.659 110.73C147.43 108.406 147.364 106.292 147.385 104.859C147.538 106.387 147.661 108.485 147.659 110.73C148.052 114.71 148.925 119.306 150.668 122.151C153.429 126.657 164.298 133.788 169.387 136.79C167.26 135.639 151.598 127.76 148.268 127.498Z"/></g><g style="mix-blend-mode:overlay"><path fill="#fff" d="M153.276 66.5941C148.392 69.331 146.899 77.1107 146.764 80.6585C146.628 78.5045 146.112 73.4362 145.135 70.3953C144.473 68.3321 140.9 65.919 137.569 64.1057C135.845 63.3604 134.332 62.5932 133.332 62.0327C134.466 62.5216 135.99 63.2463 137.569 64.1057C140.521 65.382 144.091 66.5941 146.764 66.5941C150.997 66.5941 160.195 62.5395 164.265 60.5122C162.637 61.3992 158.16 63.8572 153.276 66.5941Z"/></g><g style="mix-blend-mode:soft-light" opacity=".6"><path fill="#fff" d="M78.9316 142.212C82.7191 144.255 91.4843 148.341 96.2456 148.341C101.007 148.341 111.576 143.512 116.265 141.097C111.215 143.883 100.574 150.347 98.4098 153.914C96.6347 156.839 96.1942 161.963 96.1927 165.351C96.2298 166.089 96.2456 166.747 96.2456 167.287C96.2132 166.753 96.1924 166.094 96.1927 165.351C96.0131 161.772 95.3345 156.313 93.5403 153.356C91.376 149.79 82.8994 144.441 78.9316 142.212Z"/></g><path fill="#FFDB44" d="M149.184 35.472C149 36.176 148 36.176 147.816 35.472L146.821 31.6835C146.756 31.4365 146.564 31.2436 146.316 31.1787L142.528 30.1844C141.824 29.9997 141.824 29.0003 142.528 28.8156L146.316 27.8213C146.564 27.7564 146.756 27.5635 146.821 27.3165L147.816 23.528C148 22.824 149 22.824 149.184 23.528L150.179 27.3165C150.244 27.5635 150.436 27.7564 150.684 27.8213L154.472 28.8156C155.176 29.0003 155.176 29.9997 154.472 30.1844L150.684 31.1787C150.436 31.2436 150.244 31.4365 150.179 31.6835L149.184 35.472Z"/><mask id="path-28-outside-1_2320_340672" width="57" height="59" x="68.001" y="67" fill="#000" maskUnits="userSpaceOnUse"><rect width="57" height="59" x="68.001" y="67" fill="#fff"/><path fill-rule="evenodd" d="M81.3915 72.4602C82.6061 70.8642 84.4366 70 86.6698 70C88.3992 70 89.861 70.6327 91.0092 71.7269C92.112 72.7779 92.8576 74.1857 93.3784 75.6807C94.2938 78.3089 94.6556 81.631 94.7571 84.9761L94.7668 85.2965H97.6348L97.6445 84.9761C97.746 81.631 98.1078 78.3089 99.0232 75.6807C99.544 74.1857 100.29 72.7779 101.392 71.7269C102.541 70.6327 104.002 70 105.732 70C107.965 70 109.795 70.8642 111.01 72.4602C112.166 73.9795 112.608 75.9541 112.608 77.9575C112.608 79.637 112.084 81.9572 111.538 83.9687C111.131 85.4638 110.677 86.9125 110.312 88.0203L110.22 88.3011L110.489 88.4241C112.085 89.1548 114.373 90.4231 116.443 92.3986C119.08 94.9157 121.401 98.6269 121.401 103.776C121.401 109.13 119.071 113.858 114.668 117.195C110.31 120.499 104.045 122.358 96.2202 122.363H96.1813C88.3562 122.358 82.0913 120.499 77.7337 117.195C73.3308 113.858 71.001 109.13 71.001 103.776C71.001 98.6269 73.3213 94.9157 75.9584 92.3986C78.0282 90.4231 80.3161 89.1548 81.913 88.4241L82.1817 88.3011L82.0893 88.0203C81.7247 86.9125 81.2702 85.4638 80.864 83.9687C80.3174 81.9572 79.7933 79.637 79.7933 77.9575C79.7933 75.9541 80.2353 73.9795 81.3915 72.4602ZM87.3181 105.092C88.8305 105.092 90.0567 103.74 90.0567 101.146C90.0567 98.5514 88.8305 97.2002 87.3181 97.2002C85.8056 97.2002 84.5795 98.5514 84.5795 101.146C84.5795 103.74 85.8056 105.092 87.3181 105.092ZM107.858 101.146C107.858 103.74 106.631 105.092 105.119 105.092C103.606 105.092 102.38 103.74 102.38 101.146C102.38 98.5514 103.606 97.2002 105.119 97.2002C106.631 97.2002 107.858 98.5514 107.858 101.146Z" clip-rule="evenodd"/></mask><path fill="url(#paint15_linear_2320_340672)" d="M81.3915 72.4602L83.7788 74.277V74.277L81.3915 72.4602ZM91.0092 71.7269L88.9395 73.8987L88.9395 73.8987L91.0092 71.7269ZM93.3784 75.6807L90.5453 76.6675V76.6675L93.3784 75.6807ZM94.7571 84.9761L97.7557 84.8852V84.8852L94.7571 84.9761ZM94.7668 85.2965L91.7682 85.3875L91.8564 88.2965H94.7668V85.2965ZM97.6348 85.2965V88.2965H100.545L100.633 85.3874L97.6348 85.2965ZM97.6445 84.9761L94.6459 84.8852V84.8852L97.6445 84.9761ZM99.0232 75.6807L96.1902 74.6939L96.1902 74.6939L99.0232 75.6807ZM101.392 71.7269L99.3227 69.5552L99.3227 69.5552L101.392 71.7269ZM111.01 72.4602L108.623 74.277L108.623 74.277L111.01 72.4602ZM111.538 83.9687L108.643 83.1821V83.1821L111.538 83.9687ZM110.312 88.0203L107.463 87.0824L107.463 87.0824L110.312 88.0203ZM110.22 88.3011L107.37 87.3631L106.531 89.9123L108.972 91.029L110.22 88.3011ZM110.489 88.4241L111.737 85.6961L110.489 88.4241ZM116.443 92.3986L114.372 94.5688L114.372 94.5688L116.443 92.3986ZM114.668 117.195L116.48 119.586L114.668 117.195ZM96.2202 122.363V125.363H96.2225L96.2202 122.363ZM96.1813 122.363L96.1791 125.363H96.1813V122.363ZM77.7337 117.195L75.9214 119.586H75.9214L77.7337 117.195ZM75.9584 92.3986L73.8871 90.2285H73.8871L75.9584 92.3986ZM81.913 88.4241L80.6646 85.6961L80.6646 85.6961L81.913 88.4241ZM82.1817 88.3011L83.4301 91.029L85.8704 89.9123L85.0313 87.3631L82.1817 88.3011ZM82.0893 88.0203L84.9389 87.0824L84.9389 87.0823L82.0893 88.0203ZM80.864 83.9687L83.759 83.1821V83.1821L80.864 83.9687ZM86.6698 67C83.6034 67 80.8461 68.223 79.0042 70.6434L83.7788 74.277C84.3661 73.5053 85.2697 73 86.6698 73V67ZM93.0789 69.5552C91.3905 67.9461 89.194 67 86.6698 67V73C87.6045 73 88.3315 73.3192 88.9395 73.8987L93.0789 69.5552ZM96.2114 74.6939C95.6021 72.9447 94.6506 71.0531 93.0789 69.5552L88.9395 73.8987C89.5733 74.5027 90.1131 75.4267 90.5453 76.6675L96.2114 74.6939ZM97.7557 84.8852C97.6514 81.4468 97.2791 77.7591 96.2114 74.6939L90.5453 76.6675C91.3085 78.8587 91.6598 81.8151 91.7585 85.0671L97.7557 84.8852ZM97.7654 85.2055L97.7557 84.8852L91.7585 85.0671L91.7682 85.3875L97.7654 85.2055ZM97.6348 82.2965H94.7668V88.2965H97.6348V82.2965ZM94.6459 84.8852L94.6362 85.2056L100.633 85.3874L100.643 85.0671L94.6459 84.8852ZM96.1902 74.6939C95.1225 77.7591 94.7502 81.4468 94.6459 84.8852L100.643 85.0671C100.742 81.8151 101.093 78.8587 101.856 76.6675L96.1902 74.6939ZM99.3227 69.5552C97.751 71.0531 96.7995 72.9447 96.1902 74.6939L101.856 76.6675C102.288 75.4267 102.828 74.5027 103.462 73.8987L99.3227 69.5552ZM105.732 67C103.208 67 101.011 67.9461 99.3227 69.5552L103.462 73.8987C104.07 73.3192 104.797 73 105.732 73V67ZM113.397 70.6434C111.555 68.223 108.798 67 105.732 67V73C107.132 73 108.036 73.5053 108.623 74.277L113.397 70.6434ZM115.608 77.9575C115.608 75.567 115.088 72.8649 113.397 70.6434L108.623 74.277C109.245 75.0941 109.608 76.3412 109.608 77.9575H115.608ZM114.433 84.7554C114.977 82.7537 115.608 80.0822 115.608 77.9575H109.608C109.608 79.1917 109.192 81.1607 108.643 83.1821L114.433 84.7554ZM113.162 88.9583C113.537 87.8201 114.008 86.3179 114.433 84.7554L108.643 83.1821C108.255 84.6096 107.817 86.0049 107.463 87.0824L113.162 88.9583ZM113.069 89.239L113.162 88.9583L107.463 87.0824L107.37 87.3631L113.069 89.239ZM111.737 85.6961L111.468 85.5731L108.972 91.029L109.24 91.152L111.737 85.6961ZM118.515 90.2285C116.125 87.9481 113.521 86.5123 111.737 85.6961L109.24 91.152C110.65 91.7973 112.621 92.8981 114.372 94.5688L118.515 90.2285ZM124.401 103.776C124.401 97.6213 121.595 93.1691 118.515 90.2285L114.372 94.5688C116.565 96.6622 118.401 99.6325 118.401 103.776H124.401ZM116.48 119.586C121.624 115.687 124.401 110.078 124.401 103.776H118.401C118.401 108.182 116.518 112.028 112.856 114.804L116.48 119.586ZM96.2225 125.363C104.486 125.357 111.453 123.397 116.48 119.586L112.856 114.804C109.168 117.6 103.605 119.358 96.218 119.363L96.2225 125.363ZM96.1813 125.363H96.2202V119.363H96.1813V125.363ZM75.9214 119.586C80.9487 123.397 87.9155 125.357 96.1791 125.363L96.1836 119.363C88.7968 119.358 83.234 117.6 79.546 114.804L75.9214 119.586ZM68.001 103.776C68.001 110.078 70.7778 115.687 75.9214 119.586L79.546 114.804C75.8838 112.028 74.001 108.182 74.001 103.776H68.001ZM73.8871 90.2285C70.8062 93.1691 68.001 97.6213 68.001 103.776H74.001C74.001 99.6326 75.8365 96.6622 78.0298 94.5688L73.8871 90.2285ZM80.6646 85.6961C78.881 86.5123 76.2763 87.9481 73.8871 90.2285L78.0298 94.5688C79.7801 92.8981 81.7513 91.7973 83.1613 91.152L80.6646 85.6961ZM80.9334 85.5731L80.6646 85.6961L83.1613 91.152L83.4301 91.029L80.9334 85.5731ZM79.2397 88.9583L79.3321 89.2391L85.0313 87.3631L84.9389 87.0824L79.2397 88.9583ZM77.969 84.7554C78.3935 86.3179 78.8651 87.8201 79.2397 88.9583L84.9389 87.0823C84.5843 86.0049 84.1469 84.6096 83.759 83.1821L77.969 84.7554ZM76.7933 77.9575C76.7933 80.0822 77.425 82.7537 77.969 84.7554L83.759 83.1821C83.2097 81.1607 82.7933 79.1917 82.7933 77.9575H76.7933ZM79.0042 70.6434C77.3136 72.8649 76.7933 75.567 76.7933 77.9575H82.7933C82.7933 76.3412 83.157 75.0941 83.7788 74.277L79.0042 70.6434ZM87.0567 101.146C87.0567 102.004 86.8509 102.297 86.8528 102.294C86.8592 102.285 86.9104 102.224 87.0203 102.168C87.1313 102.111 87.2407 102.092 87.3181 102.092V108.092C89.0541 108.092 90.6153 107.28 91.6563 105.889C92.6494 104.563 93.0567 102.882 93.0567 101.146H87.0567ZM87.3181 100.2C87.2407 100.2 87.1313 100.181 87.0203 100.124C86.9104 100.068 86.8592 100.006 86.8528 99.9978C86.8509 99.9952 87.0567 100.287 87.0567 101.146H93.0567C93.0567 99.41 92.6494 97.7292 91.6563 96.4025C90.6153 95.0116 89.0541 94.2002 87.3181 94.2002V100.2ZM87.5795 101.146C87.5795 100.287 87.7852 99.9952 87.7833 99.9978C87.7769 100.006 87.7257 100.068 87.6159 100.124C87.5049 100.181 87.3954 100.2 87.3181 100.2V94.2002C85.582 94.2002 84.0208 95.0116 82.9798 96.4024C81.9867 97.7292 81.5795 99.41 81.5795 101.146H87.5795ZM87.3181 102.092C87.3954 102.092 87.5049 102.111 87.6159 102.168C87.7257 102.224 87.7769 102.285 87.7833 102.294C87.7852 102.297 87.5795 102.004 87.5795 101.146H81.5795C81.5795 102.882 81.9867 104.563 82.9798 105.889C84.0208 107.28 85.582 108.092 87.3181 108.092V102.092ZM105.119 108.092C106.855 108.092 108.416 107.28 109.457 105.889C110.45 104.563 110.858 102.882 110.858 101.146H104.858C104.858 102.004 104.652 102.297 104.654 102.294C104.66 102.285 104.711 102.224 104.821 102.168C104.932 102.111 105.042 102.092 105.119 102.092V108.092ZM99.3803 101.146C99.3803 102.882 99.7876 104.563 100.781 105.889C101.822 107.28 103.383 108.092 105.119 108.092V102.092C105.196 102.092 105.306 102.111 105.417 102.168C105.527 102.224 105.578 102.285 105.584 102.294C105.586 102.297 105.38 102.004 105.38 101.146H99.3803ZM105.119 94.2002C103.383 94.2002 101.822 95.0116 100.781 96.4024C99.7876 97.7292 99.3803 99.41 99.3803 101.146H105.38C105.38 100.287 105.586 99.9952 105.584 99.9978C105.578 100.006 105.527 100.068 105.417 100.124C105.306 100.181 105.196 100.2 105.119 100.2V94.2002ZM110.858 101.146C110.858 99.41 110.45 97.7292 109.457 96.4024C108.416 95.0116 106.855 94.2002 105.119 94.2002V100.2C105.042 100.2 104.932 100.181 104.821 100.124C104.711 100.068 104.66 100.006 104.654 99.9978C104.652 99.9952 104.858 100.287 104.858 101.146H110.858Z" mask="url(#path-28-outside-1_2320_340672)"/><mask id="path-30-inside-2_2320_340672" fill="#fff"><path fill-rule="evenodd" d="M81.3915 72.4602C82.6061 70.8642 84.4366 70 86.6698 70C88.3992 70 89.861 70.6327 91.0092 71.7269C92.112 72.7779 92.8576 74.1857 93.3784 75.6807C94.2938 78.3089 94.6556 81.631 94.7571 84.9761L94.7668 85.2965H97.6348L97.6445 84.9761C97.746 81.631 98.1078 78.3089 99.0232 75.6807C99.544 74.1857 100.29 72.7779 101.392 71.7269C102.541 70.6327 104.002 70 105.732 70C107.965 70 109.795 70.8642 111.01 72.4602C112.166 73.9795 112.608 75.9541 112.608 77.9575C112.608 79.637 112.084 81.9572 111.538 83.9687C111.131 85.4638 110.677 86.9125 110.312 88.0203L110.22 88.3011L110.489 88.4241C112.085 89.1548 114.373 90.4231 116.443 92.3986C119.08 94.9157 121.401 98.6269 121.401 103.776C121.401 109.13 119.071 113.858 114.668 117.195C110.31 120.499 104.045 122.358 96.2202 122.363H96.1813C88.3562 122.358 82.0913 120.499 77.7337 117.195C73.3308 113.858 71.001 109.13 71.001 103.776C71.001 98.6269 73.3213 94.9157 75.9584 92.3986C78.0282 90.4231 80.3161 89.1548 81.913 88.4241L82.1817 88.3011L82.0893 88.0203C81.7247 86.9125 81.2702 85.4638 80.864 83.9687C80.3174 81.9572 79.7933 79.637 79.7933 77.9575C79.7933 75.9541 80.2353 73.9795 81.3915 72.4602ZM87.3181 105.092C88.8305 105.092 90.0567 103.74 90.0567 101.146C90.0567 98.5514 88.8305 97.2002 87.3181 97.2002C85.8056 97.2002 84.5795 98.5514 84.5795 101.146C84.5795 103.74 85.8056 105.092 87.3181 105.092ZM107.858 101.146C107.858 103.74 106.631 105.092 105.119 105.092C103.606 105.092 102.38 103.74 102.38 101.146C102.38 98.5514 103.606 97.2002 105.119 97.2002C106.631 97.2002 107.858 98.5514 107.858 101.146Z" clip-rule="evenodd"/></mask><path fill="url(#paint16_linear_2320_340672)" fill-rule="evenodd" d="M81.3915 72.4602C82.6061 70.8642 84.4366 70 86.6698 70C88.3992 70 89.861 70.6327 91.0092 71.7269C92.112 72.7779 92.8576 74.1857 93.3784 75.6807C94.2938 78.3089 94.6556 81.631 94.7571 84.9761L94.7668 85.2965H97.6348L97.6445 84.9761C97.746 81.631 98.1078 78.3089 99.0232 75.6807C99.544 74.1857 100.29 72.7779 101.392 71.7269C102.541 70.6327 104.002 70 105.732 70C107.965 70 109.795 70.8642 111.01 72.4602C112.166 73.9795 112.608 75.9541 112.608 77.9575C112.608 79.637 112.084 81.9572 111.538 83.9687C111.131 85.4638 110.677 86.9125 110.312 88.0203L110.22 88.3011L110.489 88.4241C112.085 89.1548 114.373 90.4231 116.443 92.3986C119.08 94.9157 121.401 98.6269 121.401 103.776C121.401 109.13 119.071 113.858 114.668 117.195C110.31 120.499 104.045 122.358 96.2202 122.363H96.1813C88.3562 122.358 82.0913 120.499 77.7337 117.195C73.3308 113.858 71.001 109.13 71.001 103.776C71.001 98.6269 73.3213 94.9157 75.9584 92.3986C78.0282 90.4231 80.3161 89.1548 81.913 88.4241L82.1817 88.3011L82.0893 88.0203C81.7247 86.9125 81.2702 85.4638 80.864 83.9687C80.3174 81.9572 79.7933 79.637 79.7933 77.9575C79.7933 75.9541 80.2353 73.9795 81.3915 72.4602ZM87.3181 105.092C88.8305 105.092 90.0567 103.74 90.0567 101.146C90.0567 98.5514 88.8305 97.2002 87.3181 97.2002C85.8056 97.2002 84.5795 98.5514 84.5795 101.146C84.5795 103.74 85.8056 105.092 87.3181 105.092ZM107.858 101.146C107.858 103.74 106.631 105.092 105.119 105.092C103.606 105.092 102.38 103.74 102.38 101.146C102.38 98.5514 103.606 97.2002 105.119 97.2002C106.631 97.2002 107.858 98.5514 107.858 101.146Z" clip-rule="evenodd"/><path fill="#FFDB44" d="M81.3915 72.4602L82.1873 73.0658V73.0658L81.3915 72.4602ZM91.0092 71.7269L90.3193 72.4509L90.3193 72.4509L91.0092 71.7269ZM93.3784 75.6807L92.434 76.0097V76.0097L93.3784 75.6807ZM94.7571 84.9761L95.7566 84.9458V84.9458L94.7571 84.9761ZM94.7668 85.2965L93.7673 85.3268L93.7967 86.2965H94.7668V85.2965ZM97.6348 85.2965V86.2965H98.6049L98.6343 85.3268L97.6348 85.2965ZM97.6445 84.9761L96.645 84.9458V84.9458L97.6445 84.9761ZM99.0232 75.6807L98.0789 75.3518V75.3518L99.0232 75.6807ZM101.392 71.7269L100.702 71.003V71.003L101.392 71.7269ZM111.01 72.4602L110.214 73.0658V73.0658L111.01 72.4602ZM111.538 83.9687L110.573 83.7065L111.538 83.9687ZM110.312 88.0203L109.362 87.7077L109.362 87.7077L110.312 88.0203ZM110.22 88.3011L109.27 87.9884L108.99 88.8382L109.804 89.2104L110.22 88.3011ZM110.489 88.4241L110.905 87.5148L110.489 88.4241ZM116.443 92.3986L115.753 93.122L116.443 92.3986ZM114.668 117.195L115.272 117.992L114.668 117.195ZM96.2202 122.363V123.363H96.221L96.2202 122.363ZM96.1813 122.363L96.1806 123.363H96.1813V122.363ZM77.7337 117.195L77.1296 117.992H77.1296L77.7337 117.195ZM75.9584 92.3986L75.268 91.6753L75.9584 92.3986ZM81.913 88.4241L81.4969 87.5148H81.4969L81.913 88.4241ZM82.1817 88.3011L82.5979 89.2104L83.4113 88.8382L83.1316 87.9884L82.1817 88.3011ZM82.0893 88.0203L83.0392 87.7077L83.0392 87.7077L82.0893 88.0203ZM80.864 83.9687L81.829 83.7065V83.7065L80.864 83.9687ZM86.6698 69C84.1588 69 82.0194 69.9838 80.5957 71.8546L82.1873 73.0658C83.1928 71.7446 84.7143 71 86.6698 71V69ZM91.6991 71.003C90.3708 69.7372 88.6642 69 86.6698 69V71C88.1343 71 89.3511 71.5282 90.3193 72.4509L91.6991 71.003ZM94.3227 75.3518C93.7725 73.772 92.9582 72.203 91.6991 71.003L90.3193 72.4509C91.2658 73.3528 91.9428 74.5993 92.434 76.0097L94.3227 75.3518ZM95.7566 84.9458C95.6542 81.5696 95.2889 78.1256 94.3227 75.3518L92.434 76.0097C93.2987 78.4922 93.657 81.6923 93.7575 85.0064L95.7566 84.9458ZM95.7663 85.2662L95.7566 84.9458L93.7575 85.0064L93.7673 85.3268L95.7663 85.2662ZM97.6348 84.2965H94.7668V86.2965H97.6348V84.2965ZM96.645 84.9458L96.6353 85.2662L98.6343 85.3268L98.6441 85.0064L96.645 84.9458ZM98.0789 75.3518C97.1127 78.1256 96.7474 81.5696 96.645 84.9458L98.6441 85.0064C98.7446 81.6923 99.1029 78.4922 99.9676 76.0097L98.0789 75.3518ZM100.702 71.003C99.4434 72.203 98.6291 73.772 98.0789 75.3518L99.9676 76.0097C100.459 74.5993 101.136 73.3528 102.082 72.4509L100.702 71.003ZM105.732 69C103.737 69 102.031 69.7372 100.702 71.003L102.082 72.4509C103.05 71.5282 104.267 71 105.732 71V69ZM111.806 71.8546C110.382 69.9838 108.243 69 105.732 69V71C107.687 71 109.209 71.7446 110.214 73.0658L111.806 71.8546ZM113.608 77.9575C113.608 75.8251 113.14 73.608 111.806 71.8546L110.214 73.0658C111.192 74.351 111.608 76.0831 111.608 77.9575H113.608ZM112.503 84.2309C113.048 82.2227 113.608 79.7854 113.608 77.9575H111.608C111.608 79.4886 111.12 81.6917 110.573 83.7065L112.503 84.2309ZM111.262 88.333C111.63 87.2151 112.09 85.7485 112.503 84.2309L110.573 83.7065C110.172 85.179 109.724 86.61 109.362 87.7077L111.262 88.333ZM111.17 88.6137L111.262 88.333L109.362 87.7077L109.27 87.9884L111.17 88.6137ZM110.905 87.5148L110.636 87.3918L109.804 89.2104L110.072 89.3334L110.905 87.5148ZM117.134 91.6753C114.957 89.5981 112.564 88.274 110.905 87.5148L110.072 89.3334C111.607 90.0356 113.789 91.2481 115.753 93.122L117.134 91.6753ZM122.401 103.776C122.401 98.2917 119.919 94.3335 117.134 91.6753L115.753 93.122C118.242 95.4979 120.401 98.9621 120.401 103.776H122.401ZM115.272 117.992C119.922 114.467 122.401 109.446 122.401 103.776H120.401C120.401 108.814 118.22 113.248 114.064 116.398L115.272 117.992ZM96.221 123.363C104.192 123.357 110.691 121.465 115.272 117.992L114.064 116.398C109.929 119.532 103.899 121.358 96.2195 121.363L96.221 123.363ZM96.1813 123.363H96.2202V121.363H96.1813V123.363ZM77.1296 117.992C81.7104 121.465 88.2093 123.357 96.1806 123.363L96.1821 121.363C88.5031 121.358 82.4722 119.532 78.3378 116.398L77.1296 117.992ZM70.001 103.776C70.001 109.446 72.4798 114.467 77.1296 117.992L78.3378 116.398C74.1818 113.248 72.001 108.814 72.001 103.776H70.001ZM75.268 91.6753C72.483 94.3335 70.001 98.2917 70.001 103.776H72.001C72.001 98.9621 74.1597 95.4979 76.6489 93.122L75.268 91.6753ZM81.4969 87.5148C79.8378 88.274 77.4442 89.5981 75.268 91.6753L76.6489 93.122C78.6122 91.2481 80.7945 90.0356 82.3291 89.3334L81.4969 87.5148ZM81.7656 87.3918L81.4969 87.5148L82.3291 89.3334L82.5979 89.2104L81.7656 87.3918ZM81.1395 88.333L81.2319 88.6138L83.1316 87.9884L83.0392 87.7077L81.1395 88.333ZM79.899 84.2309C80.3113 85.7485 80.7715 87.2151 81.1395 88.333L83.0392 87.7077C82.6779 86.61 82.2291 85.1791 81.829 83.7065L79.899 84.2309ZM78.7933 77.9575C78.7933 79.7854 79.3533 82.2227 79.899 84.2309L81.829 83.7065C81.2815 81.6917 80.7933 79.4886 80.7933 77.9575H78.7933ZM80.5957 71.8546C79.2614 73.608 78.7933 75.8251 78.7933 77.9575H80.7933C80.7933 76.0831 81.2092 74.351 82.1873 73.0658L80.5957 71.8546ZM89.0567 101.146C89.0567 102.297 88.7837 103.052 88.454 103.492C88.1402 103.912 87.7477 104.092 87.3181 104.092V106.092C88.4009 106.092 89.3777 105.596 90.0551 104.691C90.7165 103.807 91.0567 102.589 91.0567 101.146H89.0567ZM87.3181 98.2002C87.7477 98.2002 88.1402 98.3801 88.454 98.7993C88.7837 99.2399 89.0567 99.9949 89.0567 101.146H91.0567C91.0567 99.7025 90.7165 98.4846 90.0551 97.6009C89.3777 96.6959 88.4009 96.2002 87.3181 96.2002V98.2002ZM85.5795 101.146C85.5795 99.9949 85.8524 99.2399 86.1822 98.7993C86.4959 98.3801 86.8884 98.2002 87.3181 98.2002V96.2002C86.2352 96.2002 85.2584 96.6959 84.581 97.6009C83.9196 98.4846 83.5795 99.7025 83.5795 101.146H85.5795ZM87.3181 104.092C86.8884 104.092 86.4959 103.912 86.1822 103.492C85.8524 103.052 85.5795 102.297 85.5795 101.146H83.5795C83.5795 102.589 83.9196 103.807 84.581 104.691C85.2584 105.596 86.2352 106.092 87.3181 106.092V104.092ZM105.119 106.092C106.202 106.092 107.179 105.596 107.856 104.691C108.517 103.807 108.858 102.589 108.858 101.146H106.858C106.858 102.297 106.585 103.052 106.255 103.492C105.941 103.912 105.549 104.092 105.119 104.092V106.092ZM101.38 101.146C101.38 102.589 101.72 103.807 102.382 104.691C103.059 105.596 104.036 106.092 105.119 106.092V104.092C104.689 104.092 104.297 103.912 103.983 103.492C103.653 103.052 103.38 102.297 103.38 101.146H101.38ZM105.119 96.2002C104.036 96.2002 103.059 96.6959 102.382 97.6009C101.72 98.4846 101.38 99.7025 101.38 101.146H103.38C103.38 99.9949 103.653 99.2399 103.983 98.7993C104.297 98.3801 104.689 98.2002 105.119 98.2002V96.2002ZM108.858 101.146C108.858 99.7025 108.517 98.4846 107.856 97.6009C107.179 96.6959 106.202 96.2002 105.119 96.2002V98.2002C105.549 98.2002 105.941 98.3801 106.255 98.7993C106.585 99.2399 106.858 99.9949 106.858 101.146H108.858Z" mask="url(#path-30-inside-2_2320_340672)"/><path fill="#E47C02" d="M85.118 98.0015C85.6737 97.2591 86.4548 96.8691 87.319 96.8691C88.1831 96.8691 88.9643 97.2591 89.52 98.0015C90.0703 98.7368 90.388 99.7997 90.388 101.145C90.388 102.491 90.0703 103.554 89.52 104.289C88.9643 105.031 88.1831 105.421 87.319 105.421C86.4548 105.421 85.6737 105.031 85.118 104.289C84.5676 103.554 84.25 102.491 84.25 101.145C84.25 99.7997 84.5676 98.7368 85.118 98.0015Z"/><path fill="#E47C02" d="M102.919 98.0015C103.475 97.2591 104.256 96.8691 105.12 96.8691C105.984 96.8691 106.765 97.2591 107.321 98.0015C107.871 98.7368 108.189 99.7997 108.189 101.145C108.189 102.491 107.871 103.554 107.321 104.289C106.765 105.031 105.984 105.421 105.12 105.421C104.256 105.421 103.475 105.031 102.919 104.289C102.368 103.554 102.051 102.491 102.051 101.145C102.051 99.7997 102.368 98.7368 102.919 98.0015Z"/><path stroke="url(#paint17_linear_2320_340672)" stroke-width="5" d="M85.118 98.0015C85.6737 97.2591 86.4548 96.8691 87.319 96.8691C88.1831 96.8691 88.9643 97.2591 89.52 98.0015C90.0703 98.7368 90.388 99.7997 90.388 101.145C90.388 102.491 90.0703 103.554 89.52 104.289C88.9643 105.031 88.1831 105.421 87.319 105.421C86.4548 105.421 85.6737 105.031 85.118 104.289C84.5676 103.554 84.25 102.491 84.25 101.145C84.25 99.7997 84.5676 98.7368 85.118 98.0015Z"/><path stroke="url(#paint18_linear_2320_340672)" stroke-width="5" d="M102.919 98.0015C103.475 97.2591 104.256 96.8691 105.12 96.8691C105.984 96.8691 106.765 97.2591 107.321 98.0015C107.871 98.7368 108.189 99.7997 108.189 101.145C108.189 102.491 107.871 103.554 107.321 104.289C106.765 105.031 105.984 105.421 105.12 105.421C104.256 105.421 103.475 105.031 102.919 104.289C102.368 103.554 102.051 102.491 102.051 101.145C102.051 99.7997 102.368 98.7368 102.919 98.0015Z"/><path fill="#FFDB44" d="M85.118 98.0015C85.6737 97.2591 86.4548 96.8691 87.319 96.8691C88.1831 96.8691 88.9643 97.2591 89.52 98.0015C90.0703 98.7368 90.388 99.7997 90.388 101.145C90.388 102.491 90.0703 103.554 89.52 104.289C88.9643 105.031 88.1831 105.421 87.319 105.421C86.4548 105.421 85.6737 105.031 85.118 104.289C84.5676 103.554 84.25 102.491 84.25 101.145C84.25 99.7997 84.5676 98.7368 85.118 98.0015Z"/><path fill="#FFDB44" d="M102.919 98.0015C103.475 97.2591 104.256 96.8691 105.12 96.8691C105.984 96.8691 106.765 97.2591 107.321 98.0015C107.871 98.7368 108.189 99.7997 108.189 101.145C108.189 102.491 107.871 103.554 107.321 104.289C106.765 105.031 105.984 105.421 105.12 105.421C104.256 105.421 103.475 105.031 102.919 104.289C102.368 103.554 102.051 102.491 102.051 101.145C102.051 99.7997 102.368 98.7368 102.919 98.0015Z"/><g style="mix-blend-mode:lighten" filter="url(#filter0_d_2320_340672)"><ellipse cx="128.379" cy="60.091" fill="#fff" rx="14.748" ry="7.88" transform="rotate(30.7725 128.379 60.0908)"/></g></g><defs><filter id="filter0_d_2320_340672" width="40.602" height="34.276" x="108.078" y="42.953" color-interpolation-filters="sRGB" filterUnits="userSpaceOnUse"><feFlood flood-opacity="0" result="BackgroundImageFix"/><feColorMatrix in="SourceAlpha" result="hardAlpha" type="matrix" values="0 0 0 0 0 0 0 0 0 0 0 0 0 0 0 0 0 0 127 0"/><feMorphology in="SourceAlpha" operator="dilate" radius="3" result="effect1_dropShadow_2320_340672"/><feOffset/><feGaussianBlur stdDeviation="2"/><feComposite in2="hardAlpha" operator="out"/><feColorMatrix type="matrix" values="0 0 0 0 1 0 0 0 0 1 0 0 0 0 1 0 0 0 0.41 0"/><feBlend in2="BackgroundImageFix" mode="normal" result="effect1_dropShadow_2320_340672"/><feBlend in="SourceGraphic" in2="effect1_dropShadow_2320_340672" mode="normal" result="shape"/></filter><radialGradient id="paint0_radial_2320_340672" cx="0" cy="0" r="1" gradientTransform="translate(96.4875 70.9724) rotate(-90) scale(60.9724 76.4654)" gradientUnits="userSpaceOnUse"><stop stop-color="#FF0"/><stop offset="1" stop-color="#FC0" stop-opacity="0"/></radialGradient><linearGradient id="paint1_linear_2320_340672" x1="128.066" x2="92.813" y1="51.761" y2="149.198" gradientUnits="userSpaceOnUse"><stop stop-color="#FD9B13"/><stop offset="1" stop-color="#FD9B13" stop-opacity="0"/></linearGradient><linearGradient id="paint2_linear_2320_340672" x1="152.378" x2="97.866" y1="51.444" y2="27.182" gradientUnits="userSpaceOnUse"><stop stop-color="#fff" stop-opacity="0"/><stop offset=".513" stop-color="#fff"/><stop offset="1" stop-color="#fff"/></linearGradient><linearGradient id="paint3_linear_2320_340672" x1="56.312" x2="124.591" y1="44.576" y2="150.437" gradientUnits="userSpaceOnUse"><stop stop-color="#fff" stop-opacity="0"/><stop offset=".513" stop-color="#fff"/><stop offset="1" stop-color="#fff"/></linearGradient><linearGradient id="paint4_linear_2320_340672" x1="62.141" x2="50.538" y1="-6.204" y2="76.555" gradientUnits="userSpaceOnUse"><stop stop-color="#FD9B13"/><stop offset="1" stop-color="#FD9B13" stop-opacity="0"/></linearGradient><linearGradient id="paint5_linear_2320_340672" x1="156.119" x2="91.833" y1="179.755" y2="-1.604" gradientUnits="userSpaceOnUse"><stop stop-color="#FD9B13"/><stop offset="1" stop-color="#FD9B13" stop-opacity="0"/></linearGradient><linearGradient id="paint6_linear_2320_340672" x1="132.181" x2="93.469" y1="46.76" y2="155.401" gradientUnits="userSpaceOnUse"><stop stop-color="#FD9B13"/><stop offset="1" stop-color="#FD9B13" stop-opacity="0"/></linearGradient><linearGradient id="paint7_linear_2320_340672" x1="-57" x2="66.569" y1="116.282" y2="23.475" gradientUnits="userSpaceOnUse"><stop stop-color="#EA8408"/><stop offset="1" stop-color="#EA8408" stop-opacity="0"/></linearGradient><linearGradient id="paint8_linear_2320_340672" x1="167.6" x2="145.122" y1="72.096" y2="174.904" gradientUnits="userSpaceOnUse"><stop stop-color="#EA8408"/><stop offset="1" stop-color="#EA8408" stop-opacity="0"/></linearGradient><linearGradient id="paint9_linear_2320_340672" x1="129.673" x2="-77.028" y1="177.862" y2="73.174" gradientUnits="userSpaceOnUse"><stop stop-color="#EA8408"/><stop offset="1" stop-color="#EA8408" stop-opacity="0"/></linearGradient><linearGradient id="paint10_linear_2320_340672" x1="36.268" x2="44.608" y1="162.193" y2="68.17" gradientUnits="userSpaceOnUse"><stop stop-color="#EA8408"/><stop offset="1" stop-color="#EA8408" stop-opacity="0"/></linearGradient><radialGradient id="paint11_radial_2320_340672" cx="0" cy="0" r="1" gradientTransform="translate(120.532 48.9172) rotate(132.213) scale(93.6658 82.7566)" gradientUnits="userSpaceOnUse"><stop stop-color="#fff"/><stop offset="1" stop-color="#fff" stop-opacity="0"/></radialGradient><radialGradient id="paint12_radial_2320_340672" cx="0" cy="0" r="1" gradientTransform="translate(119.469 48.7827) rotate(132.733) scale(92.7426 82.0725)" gradientUnits="userSpaceOnUse"><stop stop-color="#fff"/><stop offset="1" stop-color="#fff" stop-opacity="0"/></radialGradient><radialGradient id="paint13_radial_2320_340672" cx="0" cy="0" r="1" gradientTransform="translate(132.177 141.921) rotate(164.103) scale(100.88 47.1839)" gradientUnits="userSpaceOnUse"><stop stop-color="#fff"/><stop offset="1" stop-color="#fff" stop-opacity="0"/></radialGradient><radialGradient id="paint14_radial_2320_340672" cx="0" cy="0" r="1" gradientTransform="translate(132.177 141.921) rotate(164.103) scale(100.88 47.1839)" gradientUnits="userSpaceOnUse"><stop stop-color="#fff"/><stop offset="1" stop-color="#fff" stop-opacity="0"/></radialGradient><linearGradient id="paint15_linear_2320_340672" x1="110.501" x2="99.001" y1="64" y2="101" gradientUnits="userSpaceOnUse"><stop stop-color="#fff"/><stop offset="1" stop-color="#FFDB44"/></linearGradient><linearGradient id="paint16_linear_2320_340672" x1="91.501" x2="96.001" y1="74" y2="126" gradientUnits="userSpaceOnUse"><stop stop-color="#ED8103"/><stop offset="1" stop-color="#D67300"/></linearGradient><linearGradient id="paint17_linear_2320_340672" x1="96.219" x2="96.219" y1="96.869" y2="105.421" gradientUnits="userSpaceOnUse"><stop stop-color="#E37B02"/><stop offset="1" stop-color="#DE7802"/></linearGradient><linearGradient id="paint18_linear_2320_340672" x1="96.219" x2="96.219" y1="96.869" y2="105.421" gradientUnits="userSpaceOnUse"><stop stop-color="#E37B02"/><stop offset="1" stop-color="#DE7802"/></linearGradient><clipPath id="clip0_2320_340672"><rect width="192" height="192" fill="#fff" rx="87"/></clipPath></defs></svg>