<svg width="96" height="96" viewBox="0 0 96 96" fill="none" xmlns="http://www.w3.org/2000/svg">
<mask id="mask0" mask-type="alpha" maskUnits="userSpaceOnUse" x="0" y="0" width="96" height="96">
<path fill-rule="evenodd" clip-rule="evenodd" d="M96 0H0V96H69.7487C64.4865 92.6215 61 86.7179 61 80C61 69.5066 69.5066 61 80 61C86.7179 61 92.6215 64.4865 96 69.7487V0Z" fill="#C4C4C4"/>
</mask>
<g mask="url(#mask0)">
<circle cx="48" cy="48" r="48" fill="white"/>
<path d="M13.8112 45.1836C13.8112 44.532 13.8159 43.8757 13.8159 43.2242C13.8674 43.0695 13.8065 42.9054 13.8534 42.7507C13.8581 42.6429 13.8581 42.5351 13.8627 42.4273C13.9143 42.3195 13.8581 42.2023 13.9002 42.0945C13.9049 42.0195 13.9049 41.9398 13.9096 41.8648C13.9565 41.7898 13.9096 41.7007 13.9471 41.6257C14.0456 40.4586 14.2846 39.3242 14.6643 38.2179C15.0299 37.1492 15.5456 36.1648 16.2815 35.2976C16.5581 34.9742 16.8627 34.6789 17.1909 34.4023C17.6362 33.9476 18.194 33.657 18.7706 33.4132C19.7737 32.9914 20.8237 32.8039 21.9159 32.7804C23.9362 32.7382 25.8487 33.2023 27.719 33.9054C29.7206 34.6601 31.6049 35.6492 33.3909 36.8257C33.4377 36.8539 33.4799 36.8914 33.5362 36.9054C33.6018 36.8632 33.5643 36.807 33.5502 36.7601C33.2034 35.1804 32.9502 33.5867 32.7909 31.9742C32.7065 31.1211 32.6643 30.2632 32.6221 29.4054C32.5846 28.6836 32.6081 27.9711 32.6409 27.2539C32.744 25.0554 33.1049 22.9039 34.1174 20.9164C35.3502 18.4976 37.3143 17.0539 39.9768 16.5523C41.0737 16.3461 42.1799 16.3039 43.2862 16.3414C43.8674 16.3601 44.4534 16.3836 45.0346 16.4679C45.4002 16.4914 45.7565 16.5617 46.1174 16.6226C47.0409 16.7914 47.9409 17.0398 48.8081 17.4101C50.5424 18.1507 51.9065 19.3179 52.8956 20.9257C53.6315 22.1164 54.0768 23.4195 54.3721 24.7789C54.4424 25.0976 54.5549 25.4117 54.5596 25.7398C54.569 25.932 54.6018 26.1195 54.6393 26.3023C54.7565 27.2023 54.8268 28.107 54.8549 29.0164C54.8737 29.7007 54.9159 30.3851 54.8549 31.0648C54.8502 31.107 54.8268 31.1679 54.8877 31.182C54.944 31.1961 54.9815 31.1351 55.0237 31.107C55.3143 30.9054 55.5862 30.6757 55.8815 30.4789C58.1221 28.9086 60.5784 27.8257 63.2456 27.2211C64.6799 26.8976 66.1377 26.7851 67.5956 26.8789C70.244 27.0523 72.6112 27.9757 74.6362 29.7195C75.8596 30.7742 76.8393 32.0351 77.6362 33.4367C78.1706 34.3742 78.6581 35.3351 78.9346 36.3851C79.0518 36.8304 79.1409 37.2804 79.2252 37.7351C79.2299 38.1242 79.258 38.5132 79.258 38.9023C79.2627 40.0086 79.0331 41.0726 78.6534 42.1039C78.0862 43.6414 77.1956 44.9773 76.1174 46.1961C75.0159 47.4429 73.7409 48.4929 72.3768 49.4351C72.1659 49.5804 72.1659 49.5804 72.3627 49.7351C72.5409 49.8757 72.7143 50.0164 72.8924 50.157C72.9627 50.2086 73.0237 50.2695 73.0424 50.3586C74.4206 51.5304 75.644 52.8382 76.6518 54.3382C77.7721 56.007 78.5737 57.8117 78.9581 59.7898C79.0049 60.0382 79.0705 60.2867 79.1268 60.5351C79.1034 60.7648 79.1831 60.9804 79.2065 61.2054C79.2815 61.9226 79.2627 62.6351 79.2159 63.3523C79.1034 65.1617 78.6018 66.8679 77.8752 68.5179C77.3221 69.7742 76.6799 70.9789 75.7659 72.0148C74.8565 73.0507 73.7784 73.8617 72.5081 74.4054C71.4862 74.8414 70.4221 75.0851 69.3159 75.1789C67.8393 75.3007 66.3862 75.1414 64.9471 74.8132C63.1846 74.4101 61.5159 73.7539 59.9174 72.9195C58.1174 71.982 56.4487 70.8429 54.8924 69.5398C54.0674 68.8461 53.2846 68.1054 52.5487 67.3179C51.269 65.9539 50.1346 64.4726 49.2206 62.832C48.7143 61.9226 48.2549 60.9945 47.9456 59.9961C47.9221 59.9164 47.8846 59.8367 47.894 59.7476C47.9737 59.6023 48.1284 59.6023 48.2596 59.5695C49.333 59.2789 50.3174 58.7914 51.2127 58.1351C52.1643 57.4461 52.9424 56.5882 53.5752 55.5992C53.6268 55.5148 53.6643 55.4117 53.7768 55.3836C54.0768 55.4211 54.3393 55.5711 54.6112 55.6789C56.3221 56.382 58.0049 57.1554 59.6502 58.0039C61.3518 58.8804 63.0112 59.832 64.6143 60.8773C65.8799 61.7023 67.1127 62.5648 68.2846 63.5117C68.9456 64.0461 69.5924 64.5992 70.2206 65.1757C70.7737 65.682 71.3127 66.2023 71.8143 66.7601C71.9174 66.8726 72.0112 66.8304 72.0862 66.7367C72.1987 66.6007 72.2081 66.432 72.1752 66.2679C72.1237 65.982 72.0346 65.7054 71.9362 65.4336C71.8987 65.3351 71.8284 65.2648 71.7487 65.1992C70.2815 64.0461 68.7815 62.9351 67.2581 61.857C65.4768 60.6007 63.6487 59.4195 61.7643 58.3179C59.8846 57.2164 57.9487 56.2179 55.9518 55.3367C55.4456 55.1117 54.9299 54.9054 54.419 54.6945C54.2971 54.6429 54.1893 54.5867 54.2127 54.4273C54.4002 53.8882 54.6065 53.3586 54.7471 52.8054C55.1174 51.3007 55.094 49.7961 54.7518 48.2867C54.7377 48.1742 54.7143 48.0664 54.6627 47.9679C54.5596 47.5836 54.5174 47.1851 54.4096 46.8054C54.2877 46.3695 54.1424 45.9429 53.9643 45.5257C53.9362 45.4554 53.894 45.3851 53.894 45.3054C54.0768 44.9304 54.3674 44.6304 54.6206 44.3023C55.5393 43.1164 56.5518 42.0101 57.6487 40.9836C59.0877 39.6429 60.6487 38.4664 62.3877 37.5336C64.0893 36.6195 65.8799 35.9773 67.7784 35.6445C69.0205 35.4242 70.2768 35.4148 71.5377 35.4382C71.6596 35.4429 71.7862 35.457 71.8518 35.4851C70.9799 35.3117 70.0612 35.1336 69.1143 35.0773C67.7362 34.9929 66.3909 35.1617 65.0596 35.5132C63.794 35.8507 62.5987 36.3664 61.4596 37.0179C60.1799 37.7539 59.0034 38.6211 57.9112 39.6101C56.4112 40.9742 55.0471 42.4601 53.8284 44.082C53.7252 44.2179 53.6549 44.382 53.4862 44.457C53.3643 44.4382 53.3362 44.3304 53.2846 44.2461C52.5393 43.0789 51.5924 42.1132 50.4252 41.3679C49.2159 40.5945 47.8987 40.1351 46.4643 39.9992C46.1549 39.9711 45.8409 39.9617 45.5315 39.957C45.4331 39.957 45.3252 39.9757 45.2549 39.8773C45.1331 39.4601 45.1612 39.0242 45.1424 38.5976C45.1096 37.8242 45.0534 37.0554 45.0252 36.282C45.0018 35.6211 44.9502 34.9601 44.9081 34.2992C44.8612 33.582 44.8143 32.8648 44.7487 32.1523C44.519 29.6586 44.1909 27.1836 43.3331 24.8117C43.0799 24.1086 42.6627 23.1382 41.9409 22.1164C42.2456 23.3351 42.5456 24.5398 42.8174 25.7492C43.4127 28.4351 43.919 31.1351 44.2612 33.8679C44.4159 35.1148 44.5471 36.3617 44.6127 37.6179C44.6456 38.2789 44.7065 38.9398 44.6971 39.6054C44.6971 39.7086 44.7065 39.807 44.669 39.9054C44.594 40.032 44.4581 40.0273 44.3362 40.0414C42.6065 40.2851 41.0831 40.9836 39.7518 42.1086C38.8799 42.8445 38.1674 43.7164 37.6143 44.7195C37.5768 44.7851 37.5487 44.8648 37.4643 44.8882C37.3143 44.8742 37.2674 44.7476 37.1971 44.6492C36.5877 43.782 36.0159 42.8867 35.4909 41.9632C35.1206 41.3211 34.7924 40.6554 34.4596 39.9945C34.3659 39.8117 34.2956 39.6242 34.2299 39.432C34.1877 39.2679 34.1315 39.1086 34.0987 38.9445C34.094 38.9586 34.1034 38.9679 34.1081 38.982C34.1502 39.1461 34.1924 39.3148 34.2487 39.4789C34.6659 41.1992 35.594 42.6757 36.4752 44.1757C36.719 44.5929 37.0049 44.9867 37.244 45.4039C37.169 45.7554 36.9862 46.0695 36.8877 46.4164C36.7706 46.8382 36.6627 47.2601 36.5877 47.6867C36.5737 47.7757 36.569 47.8742 36.4752 47.9304C36.3487 47.9492 36.2502 47.8742 36.1471 47.8226C34.7971 47.1711 33.4424 46.5289 32.0456 45.9804C30.4284 45.3429 28.7784 44.8179 27.0487 44.5836C24.6159 44.2554 22.2674 44.5039 20.0502 45.6289C19.5956 45.8586 19.3424 46.2757 19.1174 46.707C19.0752 46.7867 19.0612 46.8851 19.0565 46.9789C19.0518 47.1101 19.0237 47.2695 19.1502 47.3492C19.2674 47.4242 19.3612 47.2882 19.4596 47.232C20.8799 46.3929 22.3987 45.8679 24.0487 45.732C25.5159 45.6148 26.9643 45.7414 28.3987 46.0601C30.3674 46.5007 32.2377 47.2273 34.0706 48.0429C34.769 48.3523 35.4674 48.6664 36.1518 49.0132C36.2409 49.0601 36.3393 49.0929 36.4049 49.1773C36.4752 49.4726 36.4799 49.7726 36.5127 50.0726C36.5737 50.6164 36.7331 51.132 36.8784 51.657C36.8643 52.1211 37.0331 52.5429 37.1784 52.9695C37.6377 54.3054 38.3596 55.4914 39.2877 56.5554C40.1127 57.4976 41.0596 58.3039 42.1706 58.8992C42.2456 58.9414 42.3299 58.9695 42.3674 59.0586C42.3909 59.1617 42.3252 59.2367 42.2784 59.3164C41.2471 60.9757 40.244 62.6492 39.194 64.2945C38.4159 65.5132 37.6002 66.7039 36.7237 67.857C36.1752 68.5789 35.5846 69.2632 34.9706 69.9289C34.2159 70.7492 33.3815 71.4664 32.4674 72.1086C32.3971 72.1601 32.3268 72.207 32.2096 72.2586C32.5096 72.2914 32.7674 72.2492 33.0206 72.1976C33.9206 72.0242 34.6706 71.5554 35.3549 70.9648C36.7096 69.7882 37.7034 68.3211 38.6549 66.8211C39.9721 64.7445 41.1206 62.5648 42.3627 60.4414C42.5362 60.1461 42.7096 59.8507 42.8971 59.5601C42.944 59.4851 42.9815 59.3914 43.0893 59.3679C43.2112 59.3632 43.319 59.4101 43.4268 59.4523C44.2096 59.7429 45.0299 59.8695 45.8549 59.8836C46.3987 59.8929 46.9424 59.8414 47.4815 59.7336C47.5799 59.7148 47.6784 59.6867 47.7815 59.7007C47.8893 59.7382 47.8893 59.8461 47.9127 59.9304C48.2409 61.1164 48.6674 62.2601 49.2299 63.357C49.9752 64.8007 50.8799 66.1367 51.9206 67.3789C52.0799 67.5711 52.2393 67.7632 52.4081 67.9461C52.5581 68.1054 52.5768 68.2601 52.4971 68.457C52.2674 69.0382 52.019 69.6148 51.7331 70.1679C51.1096 71.3773 50.3924 72.5304 49.5721 73.6179C48.7659 74.6867 47.8752 75.6804 46.9002 76.5945C45.5737 77.832 44.1159 78.8867 42.4846 79.6882C41.1065 80.3632 39.6534 80.8132 38.1206 80.9632C36.4377 81.1273 34.8065 80.8976 33.2268 80.2929C31.5627 79.6601 30.1096 78.6945 28.7877 77.5086C27.8127 76.632 26.9315 75.6804 26.2565 74.5461C25.8768 73.9086 25.5487 73.2429 25.3565 72.5211C25.3471 72.4836 25.3284 72.4507 25.2956 72.4273C25.1971 71.9539 25.0987 71.4851 24.9909 71.0117C24.9112 70.6601 24.8737 70.3039 24.8502 69.9429C24.8081 69.8351 24.8643 69.7179 24.8127 69.6101C24.8127 69.0851 24.8127 68.5601 24.8127 68.0351C24.8643 67.9273 24.8081 67.8101 24.8502 67.7023C24.8549 67.6273 24.8549 67.5476 24.8596 67.4726C24.9065 67.3976 24.8596 67.3086 24.8971 67.2336C25.0565 65.7336 25.4456 64.2945 25.9987 62.8976C26.2706 62.2039 26.5612 61.5148 26.9127 60.8539C26.969 60.6382 27.0862 60.4554 27.1799 60.2586C27.2362 60.1461 27.3206 60.0336 27.119 59.9773C27.0862 59.9679 27.0909 59.9257 27.119 59.9023C27.3627 59.8742 27.4987 59.7242 27.6065 59.5179C27.7424 59.2601 27.9159 59.021 28.0424 58.7632C27.9768 58.707 27.9159 58.7117 27.8643 58.7211C27.3252 58.8195 26.7909 58.7351 26.2565 58.7117C23.8377 58.6179 21.5221 58.1257 19.4081 56.8836C17.7112 55.8851 16.4221 54.4929 15.5081 52.7492C15.1237 52.0179 14.7909 51.2586 14.5659 50.457C14.5471 50.3961 14.5237 50.3398 14.4862 50.2882C14.3971 50.0211 14.3315 49.7445 14.3127 49.4586C14.2377 49.0789 14.1627 48.7039 14.0924 48.3242C14.0784 48.2539 14.0362 48.1789 14.069 48.1039C13.8909 47.6211 13.8768 47.1101 13.8206 46.6086C13.7737 46.1914 13.7737 45.7695 13.7502 45.3476C13.7596 45.3148 13.7596 45.2445 13.8112 45.1836Z" fill="#E98296"/>
<path d="M79.1824 37.782C79.0043 36.9945 78.8637 36.1976 78.5496 35.4429C77.9121 33.9242 77.0871 32.5179 76.0277 31.2523C74.9121 29.9164 73.5855 28.8523 72.0152 28.0976C70.848 27.5398 69.6152 27.2023 68.3308 27.0336C67.4355 26.9164 66.5402 26.907 65.6449 26.9632C63.948 27.0664 62.3074 27.4601 60.7137 28.0414C59.134 28.6179 57.6433 29.382 56.2418 30.3148C56.1246 30.3945 56.0121 30.4695 55.8949 30.5492C55.8152 30.4836 55.8105 30.3851 55.7824 30.2961C55.5715 29.6445 55.3652 28.9882 54.9996 28.4023C54.9762 28.3648 54.9574 28.3179 54.9105 28.2992C54.8261 28.182 54.8543 28.0507 54.8683 27.9195C54.9433 27.7554 54.9668 27.6054 54.798 27.4836C54.7043 27.0804 54.6902 26.6632 54.6012 26.2601C54.5824 26.0773 54.5355 25.8992 54.498 25.7164C54.3902 25.0554 54.2355 24.4039 54.0527 23.7617C53.6449 22.3554 53.0402 21.0476 52.0933 19.9132C51.1418 18.7648 49.9605 17.9351 48.5824 17.3867C47.8137 17.082 47.0261 16.8476 46.2058 16.7164C46.1824 16.7117 46.1637 16.6929 46.1449 16.6836C45.7793 16.5992 45.4137 16.5007 45.0293 16.5336C44.0683 16.4445 43.1027 16.3742 42.1371 16.407C40.5574 16.4539 39.0199 16.6836 37.5949 17.4242C36.2355 18.132 35.1949 19.1679 34.4261 20.4851C33.6105 21.8961 33.1746 23.4289 32.9261 25.0273C32.7808 25.9742 32.7293 26.9304 32.6777 27.8867C32.6402 28.6461 32.6777 29.4007 32.7105 30.1507C32.7621 31.3226 32.8886 32.4898 33.0574 33.657C33.2215 34.7867 33.4277 35.9117 33.6668 37.0414C33.5683 37.0554 33.5168 36.9851 33.4605 36.9476C31.773 35.8226 29.9918 34.8804 28.1121 34.1211C26.7668 33.5773 25.3746 33.1601 23.9355 32.9586C22.1871 32.7195 20.4527 32.757 18.7886 33.4601C18.2683 33.6804 17.7855 33.9617 17.3355 34.3086C17.2886 34.3461 17.2465 34.4023 17.1761 34.3976C17.3543 33.9711 17.7058 33.6992 18.048 33.4273C18.3152 33.2164 18.6011 33.0336 18.873 32.8226C19.1215 32.6304 19.4168 32.607 19.7027 32.5507C20.3074 32.4289 20.9215 32.3351 21.5355 32.2882C21.6246 32.232 21.7324 32.3023 21.8168 32.2414C21.9574 32.2414 22.098 32.2414 22.2386 32.2367C22.8011 32.2039 23.3636 32.2039 23.9261 32.2367C24.0668 32.2367 24.2074 32.2367 24.348 32.2367C24.4183 32.2929 24.5121 32.232 24.5824 32.2789C25.534 32.3632 26.4668 32.532 27.3949 32.7711C28.0652 32.9445 28.7215 33.1554 29.3683 33.3992C29.5371 33.4601 29.5886 33.4789 29.5793 33.2304C29.5699 32.8367 29.5933 32.4382 29.598 32.0445C29.659 31.9414 29.584 31.8195 29.6402 31.7164C29.6402 31.5898 29.6402 31.4679 29.6402 31.3414C29.6965 31.2711 29.6355 31.1773 29.6824 31.107C29.7246 30.1461 29.9027 29.2039 30.1043 28.2664C30.3152 27.2867 30.5965 26.3304 30.9433 25.3882C30.9715 25.3086 31.009 25.2289 31.0418 25.1539C31.323 24.4929 31.5996 23.832 31.9277 23.1945C32.5746 21.9476 33.3386 20.7757 34.2574 19.707C35.3215 18.4695 36.5355 17.4101 37.9511 16.5945C39.3058 15.8445 40.7308 15.3289 42.259 15.0898C43.0465 14.9679 43.834 14.8836 44.6261 14.9117C45.784 14.9586 46.9418 15.057 48.0527 15.3992C48.8074 15.6336 49.5011 16.0179 50.1902 16.3976C50.6683 16.6601 51.1371 16.9414 51.5871 17.2507C52.4402 17.8507 53.2511 18.4976 54.0105 19.2195C55.0183 20.1757 55.8996 21.2398 56.6918 22.3742C57.3574 23.3257 57.934 24.3336 58.4543 25.3695C58.5246 25.5054 58.5715 25.5429 58.7308 25.4773C59.7808 25.0367 60.8777 24.7461 62.0027 24.5726C62.1715 24.5445 62.3402 24.5351 62.5136 24.5164C62.584 24.4648 62.6777 24.5257 62.748 24.4695C62.8418 24.4695 62.9355 24.4695 63.0293 24.4695C63.1511 24.4132 63.2871 24.4882 63.4043 24.4226C63.9668 24.4226 64.5293 24.4226 65.0871 24.4226C65.1902 24.4836 65.3121 24.4086 65.4152 24.4648C65.509 24.4648 65.6027 24.4648 65.6965 24.4648C65.7668 24.5211 65.8605 24.4601 65.9308 24.5117C66.9058 24.6195 67.8621 24.8023 68.8043 25.0601C70.3137 25.4726 71.7574 26.0539 73.1355 26.7851C74.4855 27.5023 75.7558 28.3367 76.9605 29.2789C78.0105 30.1039 78.9762 31.0226 79.8855 31.9929C80.8605 33.0336 81.7183 34.1679 82.473 35.382C82.8433 35.9773 83.1855 36.5914 83.4996 37.2148C83.7527 37.7164 83.7527 37.7211 83.2699 38.0304C82.4402 38.5648 81.6058 39.0992 80.7808 39.6429C80.6449 39.732 80.5652 39.7226 80.4715 39.6054C80.1058 39.1507 79.7402 38.7007 79.3699 38.2507C79.3183 38.2273 79.2574 38.2132 79.2246 38.1617C79.2058 38.0351 79.159 37.9132 79.1824 37.782Z" fill="#EEDBDF"/>
<path d="M25.3096 72.4601C25.4221 72.418 25.3986 72.5258 25.4127 72.568C25.7408 73.5242 26.1861 74.4195 26.7768 75.2445C27.3533 76.0508 28.033 76.768 28.7736 77.4336C29.5518 78.1367 30.3768 78.7695 31.2721 79.3086C32.5377 80.0726 33.8971 80.6023 35.3596 80.8461C36.0018 80.9539 36.658 81.0195 37.3096 80.9914C38.8236 80.9351 40.2768 80.607 41.6783 80.0258C43.0705 79.4445 44.3408 78.6617 45.5221 77.743C46.483 76.993 47.3596 76.1539 48.1799 75.2539C49.0893 74.2555 49.9049 73.1867 50.6315 72.0476C51.358 70.9086 51.9721 69.7086 52.469 68.4523C52.5346 68.293 52.5158 68.1805 52.3939 68.0351C51.3111 66.8117 50.3502 65.5039 49.5486 64.0789C48.7846 62.7195 48.1939 61.2898 47.8377 59.7711C47.8658 59.7383 47.8986 59.7383 47.9314 59.7617C48.0393 60.2351 48.2361 60.6758 48.4283 61.1211C49.0799 62.6305 49.933 64.0273 50.9314 65.3304C51.3674 65.8976 51.8268 66.4461 52.3049 66.9805C52.7924 67.5195 53.2986 68.0398 53.8283 68.532C55.2111 69.8258 56.7111 70.9789 58.3283 71.9726C59.0549 72.418 59.7955 72.8351 60.5596 73.2008C62.2002 73.993 63.9064 74.6023 65.6971 74.9398C66.7846 75.1461 67.8908 75.2445 68.9971 75.1789C70.9236 75.0617 72.719 74.518 74.2799 73.3461C75.3721 72.5258 76.2393 71.5039 76.9143 70.318C77.5986 69.1226 78.1518 67.8711 78.5549 66.5539C78.8127 65.7055 78.9955 64.843 79.1033 63.957C79.1971 63.1789 79.1971 62.4008 79.183 61.6226C79.1783 61.3601 79.1315 61.0976 79.1033 60.8351C79.094 60.7414 79.0705 60.6476 79.1221 60.5633C79.258 61.1633 79.3518 61.7773 79.4268 62.3867C79.4643 62.4805 79.4174 62.5836 79.4596 62.6773C79.4643 62.832 79.469 62.982 79.4736 63.1367C79.4971 63.4648 79.4971 63.7883 79.4736 64.1164C79.469 64.2711 79.4643 64.4211 79.4596 64.5758C79.4127 64.6695 79.4643 64.7726 79.4268 64.8664C79.2252 66.7555 78.6908 68.5508 77.8705 70.2664C77.2471 71.5695 76.5111 72.7976 75.4658 73.8195C74.2565 74.9961 72.8408 75.7789 71.2002 76.168C70.708 76.2851 70.2158 76.3555 69.7143 76.4117C69.6205 76.4492 69.5174 76.3976 69.4236 76.4445C69.2549 76.4492 69.0861 76.4539 68.9174 76.4539C68.7018 76.4773 68.4815 76.4773 68.2658 76.4539C68.0971 76.4492 67.9283 76.4445 67.7596 76.4398C67.6658 76.393 67.5627 76.4445 67.469 76.407C66.0299 76.3133 64.6518 75.9664 63.2924 75.5023C62.1299 75.1086 61.0096 74.607 59.9268 74.0305C58.6189 73.332 57.3768 72.5211 56.2002 71.6164C55.5346 71.1055 54.8924 70.5617 54.2736 69.9898C53.908 69.6523 53.5564 69.3008 53.2002 68.9492C53.0549 68.8086 53.0174 68.8508 52.9611 69.0195C52.1643 71.4148 50.8846 73.5383 49.3143 75.4976C48.6393 76.3367 47.9127 77.1289 47.1205 77.8601C46.0002 78.8961 44.7861 79.8101 43.4502 80.5555C41.9971 81.3617 40.4643 81.9242 38.8189 82.1492C37.0471 82.393 35.3268 82.1773 33.6393 81.582C32.1768 81.0664 30.8877 80.2601 29.6971 79.2851C29.1814 78.8633 28.6846 78.4226 28.2205 77.9398C27.3955 77.0867 26.7064 76.1445 26.1814 75.0758C25.7783 74.2461 25.4971 73.3695 25.3096 72.4601Z" fill="#A87A92"/>
<path d="M14.5566 50.2929C14.7113 50.7148 14.8566 51.1414 15.0253 51.5586C15.5175 52.782 16.1785 53.9023 17.0644 54.8914C18.4613 56.457 20.205 57.4414 22.1925 58.0367C23.0644 58.2992 23.9597 58.4679 24.8597 58.5804C25.3285 58.6414 25.8019 58.7023 26.2753 58.6836C26.6503 58.6695 27.0207 58.7539 27.3957 58.7258C27.6488 58.707 27.9019 58.6648 28.1972 58.6976C27.9488 59.1054 27.7191 59.4992 27.4753 59.8836C27.3957 60.0101 27.241 59.9258 27.1238 59.9539C26.8144 60.0804 26.491 60.0242 26.1816 60.0054C25.4691 59.9586 24.7566 59.8789 24.0535 59.7523C23.6925 59.6867 23.3503 59.5789 22.9988 59.4711C21.9394 59.2086 20.9269 58.8101 19.9707 58.2851C19.3941 57.9711 18.8644 57.5961 18.3582 57.1789C17.7488 56.7664 17.28 56.2086 16.8394 55.6367C15.8128 54.3148 15.1425 52.8242 14.7113 51.2164C14.6503 50.9961 14.5941 50.7804 14.5472 50.5554C14.5238 50.4711 14.4816 50.3773 14.5566 50.2929Z" fill="#A87A92"/>
<path d="M79.1821 37.782C79.2149 37.9039 79.2524 38.0304 79.2852 38.1523C79.3508 38.2085 79.2852 38.2929 79.3321 38.3492C79.3696 38.5976 79.4024 38.8414 79.4399 39.0898C79.4774 39.1695 79.4305 39.2585 79.4727 39.3335C79.4774 39.4554 79.4821 39.5773 79.4868 39.6992C79.5102 39.9617 79.5102 40.2289 79.4868 40.4914C79.4821 40.6132 79.4774 40.7351 79.4727 40.857C79.4305 40.932 79.4727 41.021 79.4399 41.1007C79.2664 42.3804 78.8774 43.5898 78.268 44.7289C77.7383 45.7179 77.0821 46.6179 76.3368 47.4617C75.3571 48.5679 74.2368 49.5148 73.0461 50.382C72.7602 50.1523 72.4836 49.9179 72.1883 49.7023C72.0618 49.6085 72.0993 49.571 72.193 49.5054C72.8352 49.0835 73.4539 48.6242 74.0493 48.132C74.743 47.5507 75.3993 46.9367 76.0039 46.257C76.6321 45.5539 77.2039 44.8085 77.6914 43.9976C78.4086 42.7976 78.9102 41.5179 79.1118 40.121C79.2149 39.3992 79.243 38.682 79.1586 37.9601C79.1446 37.9039 79.1305 37.8382 79.1821 37.782Z" fill="#A87A92"/>
<path d="M14.556 50.2929C14.6639 50.982 14.8701 51.6429 15.0998 52.2945C15.5639 53.5976 16.206 54.807 17.092 55.8711C17.406 56.2508 17.7342 56.6117 18.1139 56.9304C18.2029 57.0054 18.306 57.0664 18.3529 57.1789C18.0389 57.1039 17.8139 56.8789 17.5607 56.7054C16.7123 56.1289 15.9201 55.4773 15.2029 54.7461C14.181 53.7054 13.3092 52.5383 12.6389 51.2258C12.5451 51.0476 12.4654 50.8648 12.367 50.6867C12.3014 50.5742 12.3201 50.4945 12.4139 50.4008C12.6904 50.1289 13.0607 50.0398 13.3982 49.8804C13.7029 49.7304 14.0123 49.5992 14.3357 49.4961C14.4764 49.7398 14.4435 50.0398 14.556 50.2929Z" fill="#EEDBDF"/>
<path d="M22.9982 59.4757C23.4388 59.5554 23.8794 59.6398 24.32 59.7195C25.2482 59.8836 26.181 59.9586 27.1232 59.9586C27.1982 60.0242 27.306 59.9586 27.4044 60.0336C27.2216 60.3054 27.1279 60.6195 26.931 60.882C26.7763 60.7554 26.5794 60.7273 26.3966 60.6711C25.2763 60.3289 24.17 59.9492 23.0732 59.5273C23.045 59.5179 23.0216 59.4945 22.9982 59.4757Z" fill="#EEDBDF"/>
<path d="M13.8103 45.1836C13.8759 46.1726 13.9368 47.157 14.0868 48.1367C13.8524 47.7758 13.8103 47.3586 13.7212 46.9507C13.6743 46.7398 13.6603 46.5242 13.6696 46.3039C13.6368 46.0367 13.6368 45.7742 13.6696 45.507C13.7165 45.4039 13.5571 45.207 13.8103 45.1836Z" fill="#EEDBDF"/>
<path d="M23.9316 32.246C23.3691 32.246 22.8066 32.246 22.2441 32.246C22.2957 32.1804 22.3707 32.2039 22.441 32.2039C22.8723 32.2039 23.3035 32.2039 23.7395 32.2039C23.8051 32.2039 23.8801 32.1851 23.9316 32.246Z" fill="#FDFDFD"/>
<path d="M79.4825 64.121C79.4825 63.7929 79.4825 63.4695 79.4825 63.1414C79.5482 63.4648 79.5482 63.7929 79.4825 64.121Z" fill="#FDFDFD"/>
<path d="M79.4825 40.496C79.4825 40.2335 79.4825 39.9664 79.4825 39.7039C79.5482 39.971 79.5482 40.2335 79.4825 40.496Z" fill="#FDFDFD"/>
<path d="M13.6659 45.5164C13.6659 45.7835 13.6659 46.046 13.6659 46.3132C13.5956 46.046 13.5956 45.7789 13.6659 45.5164Z" fill="#FDFDFD"/>
<path d="M68.2754 76.4586C68.491 76.4586 68.7113 76.4586 68.927 76.4586C68.7113 76.5195 68.4957 76.5195 68.2754 76.4586Z" fill="#FDFDFD"/>
<path d="M13.8484 42.7507C13.8437 42.9101 13.8765 43.0742 13.8109 43.2242C13.8249 43.0695 13.7687 42.9054 13.8484 42.7507Z" fill="#FDFDFD"/>
<path d="M63.4004 24.4226C63.2832 24.5117 63.152 24.4507 63.0254 24.4695C63.1426 24.3757 63.2738 24.4414 63.4004 24.4226Z" fill="#FDFDFD"/>
<path d="M13.8949 42.0945C13.8949 42.207 13.9183 42.3242 13.8574 42.4273C13.8715 42.3148 13.8199 42.1976 13.8949 42.0945Z" fill="#FDFDFD"/>
<path d="M29.65 31.7351C29.6359 31.8429 29.6922 31.9648 29.6078 32.0632C29.6219 31.9554 29.5656 31.8335 29.65 31.7351Z" fill="#FDFDFD"/>
<path d="M65.416 24.4695C65.3082 24.4554 65.1863 24.5117 65.0879 24.4273C65.1957 24.4414 65.3129 24.3804 65.416 24.4695Z" fill="#FDFDFD"/>
<path d="M24.8634 67.7351C24.8634 67.8476 24.8915 67.9648 24.8259 68.0679C24.8353 67.9554 24.7884 67.8382 24.8634 67.7351Z" fill="#FDFDFD"/>
<path d="M24.8262 69.6429C24.8871 69.7508 24.8636 69.8633 24.8636 69.9758C24.7887 69.8726 24.8402 69.7554 24.8262 69.6429Z" fill="#FDFDFD"/>
<path d="M21.8263 32.2507C21.7419 32.3304 21.6388 32.2836 21.545 32.2976C21.6294 32.2132 21.7325 32.2648 21.8263 32.2507Z" fill="#FDFDFD"/>
<path d="M79.4732 62.682C79.4216 62.5882 79.4357 62.4898 79.4404 62.3914C79.5107 62.4804 79.4638 62.5835 79.4732 62.682Z" fill="#FDFDFD"/>
<path d="M79.4351 64.8711C79.4304 64.7726 79.4164 64.6695 79.4679 64.5804C79.4633 64.6742 79.5101 64.7773 79.4351 64.8711Z" fill="#FDFDFD"/>
<path d="M67.4785 76.4117C67.5769 76.407 67.6754 76.3929 67.7691 76.4445C67.6707 76.4398 67.5676 76.482 67.4785 76.4117Z" fill="#FDFDFD"/>
<path d="M69.4325 76.4445C69.5262 76.3929 69.6247 76.407 69.7231 76.4117C69.6341 76.482 69.5309 76.4398 69.4325 76.4445Z" fill="#FDFDFD"/>
<path d="M79.4362 41.1054C79.4315 41.0211 79.4221 40.9367 79.469 40.8617C79.469 40.9461 79.5065 41.0304 79.4362 41.1054Z" fill="#FDFDFD"/>
<path d="M79.4732 39.3382C79.4216 39.2632 79.4357 39.1789 79.4404 39.0945C79.506 39.1695 79.4685 39.2585 79.4732 39.3382Z" fill="#FDFDFD"/>
<path d="M79.3324 38.3539C79.2808 38.2976 79.2902 38.2226 79.2855 38.157C79.3324 38.171 79.3652 38.2039 79.3793 38.2507C79.3371 38.2742 79.3371 38.3117 79.3324 38.3539Z" fill="#FDFDFD"/>
<path d="M24.5879 32.2929C24.5082 32.2836 24.4191 32.3211 24.3535 32.2507C24.4332 32.2601 24.5223 32.2179 24.5879 32.2929Z" fill="#FDFDFD"/>
<path d="M29.6966 31.1257C29.6872 31.2054 29.7247 31.2945 29.6544 31.3601C29.6638 31.2804 29.6216 31.1914 29.6966 31.1257Z" fill="#FDFDFD"/>
<path d="M65.9316 24.5164C65.852 24.507 65.7629 24.5445 65.6973 24.4695C65.7723 24.4789 65.8613 24.4367 65.9316 24.5164Z" fill="#FDFDFD"/>
<path d="M62.7441 24.4695C62.6785 24.5445 62.5895 24.507 62.5098 24.5164C62.5754 24.4367 62.6645 24.4789 62.7441 24.4695Z" fill="#FDFDFD"/>
<path d="M24.9109 67.2664C24.9156 67.3507 24.9296 67.4304 24.8734 67.5054C24.8828 67.4257 24.8406 67.3367 24.9109 67.2664Z" fill="#FDFDFD"/>
<path d="M13.9416 41.6257C13.9463 41.7101 13.9603 41.7898 13.9041 41.8648C13.9135 41.7851 13.876 41.696 13.9416 41.6257Z" fill="#FDFDFD"/>
<path d="M53.941 45.3242C54.3113 46.1539 54.5879 47.007 54.6957 47.9117C54.7004 47.9398 54.7191 47.9679 54.7285 48.0008C54.766 48.1039 54.752 48.2211 54.7895 48.3242C55.0004 49.6461 54.8129 50.9351 54.4285 52.2008C54.0629 53.4101 53.4629 54.507 52.6426 55.4679C51.077 57.3008 49.1082 58.4023 46.7035 58.707C44.4816 58.9883 42.5035 58.3742 40.727 57.0617C39.2223 55.9508 38.0691 54.5445 37.2488 52.8711C37.0754 52.5148 36.8926 52.1632 36.8598 51.7554C36.5691 50.9351 36.4145 50.0914 36.4004 49.2242C36.3816 49.2007 36.3535 49.1726 36.3535 49.1445C36.3676 48.7461 36.3301 48.3382 36.4941 47.9586C36.602 47.4757 36.6816 46.9882 36.827 46.5148C36.9395 46.1445 37.0848 45.7836 37.2348 45.4273C37.2395 45.2211 37.352 45.0664 37.4738 44.9117C37.7926 44.3867 38.1066 43.8617 38.4957 43.3789C39.4379 42.2117 40.591 41.3211 41.9598 40.707C42.8176 40.3226 43.7223 40.0976 44.6504 39.9804C44.8613 39.8914 45.077 39.8211 45.302 39.9336C46.3285 39.9195 47.3363 40.0414 48.316 40.3507C49.4785 40.7164 50.5145 41.2976 51.452 42.0757C52.277 42.7601 52.9379 43.5804 53.5051 44.4851C53.7301 44.7242 53.8801 45.0008 53.941 45.3242Z" fill="#FDEBAB"/>
<path d="M36.8595 51.7507C37.3142 53.082 38.0267 54.2679 38.9455 55.3273C40.0517 56.607 41.3548 57.6195 42.9486 58.2148C45.1517 59.0351 47.3361 58.857 49.422 57.8586C52.3798 56.4429 54.1142 54.057 54.6861 50.8273C54.8314 50.0023 54.8361 49.1679 54.7658 48.3335C54.7517 48.2867 54.7705 48.2726 54.8127 48.2867C54.972 48.9757 55.0752 49.6789 55.0892 50.3867C55.1173 51.8257 54.8267 53.1992 54.2502 54.5164C54.1705 54.8679 54.0158 55.182 53.7767 55.4492C53.4861 55.8523 53.2236 56.2742 52.9048 56.6586C51.6955 58.1023 50.1955 59.0961 48.3908 59.6257C48.2361 59.6726 48.0767 59.7195 47.922 59.7617C47.8892 59.7664 47.8611 59.7664 47.8283 59.7711C47.1673 59.9211 46.4923 59.9961 45.822 59.982C44.9595 59.9679 44.1111 59.8179 43.2955 59.5086C43.2158 59.4804 43.1314 59.457 43.0517 59.4336C42.7798 59.4054 42.5595 59.2648 42.3486 59.1054C41.7767 58.7914 41.2236 58.4445 40.7127 58.032C39.583 57.1226 38.6595 56.0398 37.9377 54.7835C37.4314 53.907 37.0611 52.9789 36.8455 51.9898C36.8314 51.9101 36.7939 51.8304 36.8595 51.7507Z" fill="#967849"/>
<path d="M36.4982 47.9492C36.4654 48.371 36.4373 48.7929 36.4044 49.2148C35.9826 49.0179 35.556 48.8257 35.1341 48.6242C33.5123 47.8601 31.8623 47.1664 30.1513 46.6226C29.106 46.2945 28.0419 46.0414 26.9544 45.8914C26.0873 45.7695 25.2107 45.7414 24.3435 45.8023C23.0263 45.8914 21.7513 46.2007 20.5513 46.7773C20.1248 46.9835 19.7029 47.2039 19.3044 47.4617C19.1685 47.5507 19.1123 47.5179 19.0654 47.382C18.9576 47.0632 19.0326 46.7726 19.1873 46.4867C19.5482 45.8164 20.1669 45.4976 20.8419 45.2351C21.7935 44.8601 22.7779 44.5976 23.7951 44.4898C24.6248 44.4007 25.4544 44.4101 26.2888 44.4757C28.1826 44.621 29.9779 45.1601 31.7451 45.8257C32.9779 46.2898 34.1779 46.8335 35.3638 47.4054C35.7388 47.5882 36.1185 47.771 36.4982 47.9492Z" fill="#D16B7F"/>
<path d="M53.7855 55.4445C53.9449 55.1351 54.0996 54.821 54.259 54.5117C54.2636 54.596 54.3152 54.6288 54.3855 54.657C56.0965 55.3132 57.7465 56.1101 59.373 56.9538C60.7043 57.6476 62.0074 58.4023 63.2824 59.1945C64.2621 59.7992 65.2324 60.4226 66.184 61.0742C67.5902 62.0351 68.9683 63.0335 70.3324 64.0554C70.8293 64.4304 71.3168 64.8148 71.809 65.1945C71.9168 65.2788 71.9918 65.3773 72.0293 65.5085C72.1183 65.8226 72.2449 66.1273 72.259 66.4554C72.2636 66.5866 72.2215 66.7038 72.1511 66.807C72.034 66.9804 71.8886 66.971 71.7574 66.821C71.3168 66.3148 70.834 65.8507 70.3418 65.396C69.9058 64.9929 69.4652 64.6038 69.0152 64.2195C68.3074 63.6148 67.5715 63.0429 66.8168 62.4898C65.448 61.4867 64.0277 60.5632 62.5652 59.7007C61.923 59.321 61.2715 58.9507 60.6105 58.5992C59.7621 58.1492 58.909 57.7085 58.0465 57.296C56.6496 56.6304 55.234 56.0023 53.7855 55.4445Z" fill="#D16B7F"/>
<path d="M53.941 45.3242C53.7957 45.0429 53.6551 44.7664 53.5098 44.4851C54.227 43.5242 54.9723 42.5914 55.7879 41.7101C56.8566 40.5617 57.9676 39.4648 59.2145 38.5086C60.2645 37.7023 61.3707 36.9992 62.5566 36.4226C63.7426 35.8507 64.9801 35.4429 66.2738 35.2179C66.7895 35.1242 67.3191 35.0914 67.8488 35.0539C69.2363 34.9601 70.5863 35.1757 71.927 35.4945C71.9785 35.5086 72.0254 35.532 72.0723 35.5695C71.7395 35.5226 71.4113 35.5367 71.0832 35.5367C70.3895 35.5367 69.6957 35.5086 69.002 35.5882C67.9754 35.7007 66.9629 35.8836 65.9691 36.1742C64.8723 36.4929 63.8176 36.9148 62.8051 37.4351C61.4598 38.1289 60.2082 38.9679 59.0316 39.9242C58.0988 40.6836 57.227 41.5086 56.4066 42.3804C55.5535 43.2851 54.7613 44.2461 54.0254 45.2492C53.9973 45.2726 53.9691 45.2961 53.941 45.3242Z" fill="#D16B7F"/>
<path d="M42.3533 59.1054C42.5877 59.2132 42.8221 59.3257 43.0564 59.4335C42.7658 59.9304 42.4752 60.4273 42.1893 60.9242C41.7018 61.7726 41.2096 62.6257 40.7268 63.4788C40.0049 64.7538 39.2783 66.0195 38.4861 67.257C37.9096 68.157 37.2955 69.0242 36.6018 69.8351C35.8471 70.7257 35.0033 71.5179 33.9205 72.0148C33.4424 72.2351 32.9314 72.3335 32.4064 72.371C32.3221 72.3757 32.233 72.3757 32.1533 72.3007C32.5705 72.0148 32.983 71.7241 33.3721 71.4007C34.0986 70.8007 34.7689 70.1398 35.3877 69.432C36.0158 68.7195 36.6064 67.9788 37.1689 67.2148C38.0408 66.0195 38.8611 64.7867 39.6393 63.5304C40.3986 62.307 41.1533 61.0788 41.908 59.8507C42.0674 59.6023 42.2502 59.3773 42.3533 59.1054Z" fill="#D16B7F"/>
<path d="M45.3058 39.9289C45.0902 39.9429 44.8699 39.957 44.6543 39.9757C44.6824 39.3148 44.6402 38.6492 44.5933 37.9929C44.5371 37.1445 44.4668 36.2914 44.3777 35.4429C44.2699 34.3695 44.134 33.3007 43.984 32.2367C43.8527 31.3086 43.6886 30.3851 43.5152 29.4617C43.2011 27.7601 42.8449 26.0679 42.4418 24.3851C42.2496 23.5836 42.0433 22.7867 41.8793 21.9664C41.959 22.0695 42.0433 22.1679 42.1183 22.2757C42.6996 23.1195 43.1308 24.0429 43.4777 25.0086C43.9746 26.3961 44.2699 27.8351 44.4996 29.2836C44.6308 30.1179 44.7246 30.957 44.7949 31.8007C44.8652 32.6304 44.9355 33.4554 44.9824 34.2851C45.0293 35.1289 45.0855 35.9773 45.123 36.8211C45.1652 37.6976 45.2215 38.5742 45.2636 39.4507C45.273 39.6054 45.3152 39.7648 45.3058 39.9289Z" fill="#D16B7F"/>
<path d="M37.4783 44.907C37.4268 45.0898 37.3237 45.2492 37.2393 45.4226C36.9674 45.1601 36.808 44.8179 36.6065 44.5039C35.9361 43.4539 35.3502 42.357 34.7971 41.2414C34.5252 40.6929 34.3705 40.1117 34.244 39.5164C34.2252 39.4695 34.2486 39.4601 34.2908 39.4695C34.8393 40.6835 35.4674 41.8507 36.1658 42.9851C36.5549 43.6132 36.9627 44.2273 37.394 44.8273C37.4174 44.8554 37.4502 44.8789 37.4783 44.907Z" fill="#A87A92"/>
<path d="M54.9578 28.3179C55.1218 28.4445 55.2203 28.6179 55.2953 28.8007C55.5203 29.3351 55.7406 29.8742 55.8859 30.4414C55.8953 30.4789 55.8953 30.5164 55.8999 30.5586C55.6328 30.7507 55.3703 30.9429 55.1031 31.1351C54.9765 30.8492 55.0093 30.5398 54.9953 30.2398C54.9718 29.7007 54.9484 29.1664 54.9015 28.632C54.8874 28.5242 54.8734 28.4117 54.9578 28.3179Z" fill="#FEFEFE"/>
<path d="M54.9579 28.3179C55.0329 29.2554 55.0798 30.1929 55.0986 31.1304C55.0329 31.2476 54.9064 31.2851 54.8033 31.3836C54.7517 31.2898 54.7658 31.1961 54.7751 31.1117C54.8923 30.1554 54.7798 29.1992 54.7564 28.2429C54.7423 27.5914 54.6392 26.9445 54.5783 26.2976C54.5595 26.2507 54.5829 26.2414 54.6204 26.2507C54.6954 26.6726 54.7751 27.0992 54.8501 27.5211C54.9251 27.6336 54.9392 27.7601 54.9017 27.8914C54.9251 28.0367 54.8829 28.182 54.9579 28.3179Z" fill="#A97A93"/>
<path d="M45.0294 16.5429C45.1607 16.4632 45.2966 16.5007 45.4325 16.5242C45.681 16.5617 45.9341 16.6085 46.1825 16.6507C46.1872 16.6507 46.1919 16.6601 46.1919 16.6648C46.1732 16.6742 46.1591 16.6882 46.1404 16.6976C45.7747 16.6414 45.3997 16.5898 45.0294 16.5429Z" fill="#F8EBEE"/>
<path d="M34.29 39.4695C34.2759 39.4836 34.2571 39.5023 34.2431 39.5164C34.1634 39.3336 34.1118 39.1507 34.14 38.9445C34.1915 39.1179 34.2384 39.2961 34.29 39.4695Z" fill="#C57D94"/>
<path d="M54.6294 26.2507C54.6154 26.2648 54.6013 26.2789 54.5872 26.2976C54.5263 26.1101 54.4982 25.9226 54.4982 25.7257C54.5732 25.8945 54.6107 26.0726 54.6294 26.2507Z" fill="#C28B9F"/>
<path d="M54.8168 48.282C54.8027 48.2961 54.784 48.3148 54.7699 48.3289C54.6996 48.2257 54.7371 48.1086 54.7277 47.9961C54.7934 48.0804 54.7934 48.1882 54.8168 48.282Z" fill="#BC8D6D"/>
<path d="M54.9112 27.8914C54.8549 27.7742 54.869 27.6476 54.8596 27.5211C55.0143 27.6336 55.033 27.7554 54.9112 27.8914Z" fill="#FBFAFA"/>
</g>
<circle cx="80" cy="80" r="16" fill="url(#paint0_linear)"/>
<path fill-rule="evenodd" clip-rule="evenodd" d="M69.6072 81.7579C69.6045 81.8177 69.6031 81.8777 69.6031 81.9378C69.6031 82.1652 69.6229 82.3898 69.6615 82.611H69.6031V82.9592C69.6031 83.1292 69.6141 83.2976 69.6359 83.4641C70.0595 86.7145 74.5379 89.2719 80 89.2719C85.4621 89.2719 89.9405 86.7145 90.3641 83.4641C90.3859 83.2976 90.3969 83.1292 90.3969 82.9592V82.611H90.3385C90.3771 82.3898 90.3969 82.1652 90.3969 81.9378C90.3969 81.8777 90.3955 81.8177 90.3928 81.7579C90.2359 78.3547 85.643 75.6252 80 75.6252C74.357 75.6252 69.7641 78.3547 69.6072 81.7579ZM68.7533 81.7579C68.8307 79.6815 70.2417 77.9373 72.2055 76.7449C74.2413 75.5088 76.9992 74.7721 80 74.7721C83.0008 74.7721 85.7587 75.5088 87.7945 76.7449C89.7583 77.9373 91.1693 79.6815 91.2467 81.7579H91.25V82.9592C91.25 85.1148 89.8148 86.9255 87.7945 88.1522C85.7587 89.3882 83.0008 90.125 80 90.125C76.9992 90.125 74.2413 89.3882 72.2055 88.1522C70.1852 86.9255 68.75 85.1148 68.75 82.9592V81.7579H68.7533Z" fill="#606063"/>
<path d="M90.3969 82.9594C90.3969 86.4458 85.742 89.2721 79.9999 89.2721C74.2579 89.2721 69.603 86.4458 69.603 82.9594V81.9601H90.3969V82.9594Z" fill="#BEBEBE"/>
<path d="M90.3969 81.9379C90.3969 85.4242 85.742 88.2505 79.9999 88.2505C74.2579 88.2505 69.603 85.4242 69.603 81.9379C69.603 78.4515 74.2579 75.6252 79.9999 75.6252C85.742 75.6252 90.3969 78.4515 90.3969 81.9379Z" fill="#FAF9FA"/>
<path fill-rule="evenodd" clip-rule="evenodd" d="M71.2027 80.1545C71.2027 80.1585 71.2027 80.1624 71.2027 80.1664C71.2027 80.4534 71.2443 80.7346 71.324 81.0076H71.2026V81.3773C71.2026 81.5405 71.216 81.7017 71.2423 81.8607C71.6386 84.261 74.9547 86.1345 78.9869 86.1345C83.019 86.1345 86.3351 84.261 86.7315 81.8607C86.7578 81.7017 86.7712 81.5405 86.7712 81.3773V81.0076H86.65C86.7275 80.742 86.769 80.4688 86.7712 80.1898C86.7713 80.182 86.7713 80.1742 86.7713 80.1664C86.7713 80.1624 86.7713 80.1585 86.7713 80.1545C86.7608 77.5326 83.2797 75.4092 78.987 75.4092C74.6943 75.4092 71.2132 77.5326 71.2027 80.1545ZM70.3496 80.1545H70.3495V81.3773C70.3495 83.1006 71.489 84.5226 73.0377 85.4691C74.601 86.4244 76.7065 86.9876 78.9869 86.9876C81.2673 86.9876 83.3727 86.4244 84.9361 85.4691C86.4847 84.5226 87.6243 83.1006 87.6243 81.3773V80.193C87.6243 80.1841 87.6244 80.1752 87.6244 80.1664C87.6244 78.4431 86.4848 77.021 84.9362 76.0746C83.3728 75.1192 81.2674 74.5561 78.987 74.5561C76.7066 74.5561 74.6011 75.1192 73.0378 76.0746C71.4927 77.0189 70.3548 78.4365 70.3496 80.1545Z" fill="#633001"/>
<path d="M86.7713 81.3773C86.7713 84.0046 83.2861 86.1345 78.987 86.1345C74.6878 86.1345 71.2026 84.0046 71.2026 81.3773V80.2612H86.7713V81.3773Z" fill="#FEDC90"/>
<path d="M86.7713 80.1664C86.7713 82.7937 83.2861 84.9235 78.987 84.9235C74.6878 84.9235 71.2026 82.7937 71.2026 80.1664C71.2026 77.539 74.6878 75.4092 78.987 75.4092C83.2861 75.4092 86.7713 77.539 86.7713 80.1664Z" fill="#D1884F"/>
<path fill-rule="evenodd" clip-rule="evenodd" d="M73.5488 77.5952C73.5487 77.5992 73.5487 77.6031 73.5487 77.6071C73.5487 77.8941 73.5903 78.1753 73.6701 78.4483H73.5486V78.818C73.5486 78.9812 73.5621 79.1425 73.5883 79.3014C73.9847 81.7017 77.3008 83.5752 81.3329 83.5752C85.3651 83.5752 88.6812 81.7017 89.0776 79.3014C89.1038 79.1425 89.1173 78.9812 89.1173 78.818V78.4483H88.996C89.0736 78.1827 89.1151 77.9095 89.1173 77.6305C89.1173 77.6227 89.1174 77.6149 89.1174 77.6071C89.1174 77.6031 89.1173 77.5992 89.1173 77.5952C89.1069 74.9733 85.6257 72.8499 81.333 72.8499C77.0404 72.8499 73.5592 74.9733 73.5488 77.5952ZM72.6957 77.5952H72.6956V78.818C72.6956 80.5413 73.8351 81.9633 75.3838 82.9098C76.9471 83.8651 79.0526 84.4283 81.3329 84.4283C83.6133 84.4283 85.7188 83.8651 87.2821 82.9098C88.8308 81.9633 89.9703 80.5413 89.9703 78.818V77.6337C89.9704 77.6248 89.9704 77.616 89.9704 77.6071C89.9704 75.8838 88.8309 74.4617 87.2822 73.5153C85.7189 72.5599 83.6134 71.9968 81.333 71.9968C79.0527 71.9968 76.9472 72.5599 75.3839 73.5153C73.8387 74.4596 72.7009 75.8772 72.6957 77.5952Z" fill="#633001"/>
<path d="M89.1172 78.818C89.1172 81.4453 85.6321 83.5752 81.3329 83.5752C77.0337 83.5752 73.5486 81.4453 73.5486 78.818V77.7019H89.1172V78.818Z" fill="#FEDC90"/>
<path d="M89.1172 77.6071C89.1172 80.2344 85.6321 82.3642 81.3329 82.3642C77.0337 82.3642 73.5486 80.2344 73.5486 77.6071C73.5486 74.9797 77.0337 72.8499 81.3329 72.8499C85.6321 72.8499 89.1172 74.9797 89.1172 77.6071Z" fill="#D1884F"/>
<path fill-rule="evenodd" clip-rule="evenodd" d="M71.2027 75.0359C71.2027 75.0399 71.2027 75.0438 71.2027 75.0478C71.2027 75.3348 71.2443 75.616 71.324 75.889H71.2026V76.2587C71.2026 76.4219 71.216 76.5832 71.2423 76.7421C71.6386 79.1424 74.9547 81.0159 78.9869 81.0159C83.019 81.0159 86.3351 79.1424 86.7315 76.7421C86.7578 76.5832 86.7712 76.4219 86.7712 76.2587V75.889H86.65C86.7275 75.6234 86.769 75.3502 86.7712 75.0712C86.7713 75.0634 86.7713 75.0556 86.7713 75.0478C86.7713 75.0438 86.7713 75.0399 86.7713 75.0359C86.7608 72.4141 83.2797 70.2906 78.987 70.2906C74.6943 70.2906 71.2132 72.4141 71.2027 75.0359ZM70.3496 75.0359H70.3495V76.2587C70.3495 77.982 71.489 79.404 73.0377 80.3505C74.601 81.3059 76.7065 81.869 78.9869 81.869C81.2673 81.869 83.3727 81.3059 84.9361 80.3505C86.4847 79.404 87.6243 77.982 87.6243 76.2587V75.0744C87.6243 75.0655 87.6244 75.0567 87.6244 75.0478C87.6244 73.3245 86.4848 71.9024 84.9362 70.956C83.3728 70.0006 81.2674 69.4375 78.987 69.4375C76.7066 69.4375 74.6011 70.0006 73.0378 70.956C71.4927 71.9003 70.3548 73.3179 70.3496 75.0359Z" fill="#633001"/>
<path d="M86.7713 76.2587C86.7713 78.886 83.2861 81.0159 78.987 81.0159C74.6878 81.0159 71.2026 78.886 71.2026 76.2587V75.1426H86.7713V76.2587Z" fill="#FEDC90"/>
<path d="M86.7713 75.0478C86.7713 77.6751 83.2861 79.8049 78.987 79.8049C74.6878 79.8049 71.2026 77.6751 71.2026 75.0478C71.2026 72.4204 74.6878 70.2906 78.987 70.2906C83.2861 70.2906 86.7713 72.4204 86.7713 75.0478Z" fill="#D1884F"/>
<path fill-rule="evenodd" clip-rule="evenodd" d="M73.0439 75.3438C73.0439 76.2209 73.6813 77.0066 74.6868 77.5351L73.9902 78.7418L73.9903 78.7419H73.9902V81.7959C73.9902 82.1997 74.3175 82.5271 74.7214 82.5271C75.1252 82.5271 75.4526 82.1997 75.4526 81.7959V79.3671L76.2021 78.0688C76.6814 78.1705 77.1958 78.2257 77.7313 78.2257C80.32 78.2257 82.4186 76.9354 82.4186 75.3438C82.4186 73.7522 80.32 72.4619 77.7313 72.4619C75.1425 72.4619 73.0439 73.7522 73.0439 75.3438Z" fill="url(#paint1_linear)"/>
<path fill-rule="evenodd" clip-rule="evenodd" d="M74.6868 77.5351C74.5755 77.4766 74.4686 77.4149 74.3666 77.3502C73.5479 76.8314 73.0439 76.1238 73.0439 75.3438C73.0439 73.7522 75.1425 72.4619 77.7313 72.4619C80.32 72.4619 82.4186 73.7522 82.4186 75.3438C82.4186 76.9354 80.32 78.2257 77.7313 78.2257C77.1958 78.2257 76.6814 78.1705 76.2021 78.0688L75.4526 79.3671V81.7959C75.4526 82.1997 75.1252 82.5271 74.7214 82.5271C74.3175 82.5271 73.9902 82.1997 73.9902 81.7959V78.7419L74.6868 77.5351ZM73.2437 78.7548V81.7959C73.2437 82.612 73.9053 83.2736 74.7214 83.2736C75.5375 83.2736 76.199 82.612 76.199 81.7959V79.5671L76.5878 78.8937C76.957 78.9452 77.3397 78.9721 77.7313 78.9721C79.1409 78.9721 80.4528 78.6224 81.4367 78.0175C82.4083 77.4201 83.165 76.4958 83.165 75.3438C83.165 74.1917 82.4083 73.2675 81.4367 72.6701C80.4528 72.0652 79.1409 71.7154 77.7313 71.7154C76.3216 71.7154 75.0097 72.0652 74.0259 72.6701C73.0542 73.2675 72.2975 74.1917 72.2975 75.3438C72.2975 76.3549 72.8766 77.1875 73.6812 77.784L73.3489 78.3597C73.3172 78.4127 73.2919 78.47 73.2741 78.5305C73.2522 78.6043 73.2424 78.6799 73.2437 78.7548Z" fill="#633001"/>
<path d="M74.5083 74.1295C74.5083 74.9541 75.5586 75.6225 76.8542 75.6225C78.1499 75.6225 79.2002 74.9541 79.2002 74.1295C79.2002 73.305 78.1499 72.6366 76.8542 72.6366C75.5586 72.6366 74.5083 73.305 74.5083 74.1295Z" fill="#9E7200"/>
<path d="M74.5083 73.4897H79.2002V74.1295H74.5083V73.4897Z" fill="#9E7200"/>
<path d="M74.5083 73.4897C74.5083 74.3142 75.5586 74.9826 76.8542 74.9826C78.1499 74.9826 79.2002 74.3142 79.2002 73.4897C79.2002 72.6652 78.1499 71.9968 76.8542 71.9968C75.5586 71.9968 74.5083 72.6652 74.5083 73.4897Z" fill="#F0B90B"/>
<path d="M75.964 73.3098L76.6252 72.889C76.765 72.8001 76.9435 72.8001 77.0832 72.889L77.7445 73.3098C77.8762 73.3936 77.8762 73.5858 77.7445 73.6696L77.0832 74.0904C76.9435 74.1794 76.765 74.1794 76.6252 74.0904L75.964 73.6696C75.8323 73.5858 75.8323 73.3936 75.964 73.3098Z" fill="#9E7200"/>
<path fill-rule="evenodd" clip-rule="evenodd" d="M74.7947 71.8043C75.3562 71.4469 76.0864 71.2503 76.8543 71.2503C77.6221 71.2503 78.3523 71.4469 78.9139 71.8043C79.4666 72.156 79.9467 72.7337 79.9467 73.4897V74.1295C79.9467 74.8855 79.4666 75.4632 78.9139 75.815C78.3523 76.1723 77.6221 76.3689 76.8543 76.3689C76.0864 76.3689 75.3562 76.1723 74.7947 75.815C74.242 75.4632 73.7618 74.8855 73.7618 74.1295V73.4897C73.7618 72.7337 74.242 72.156 74.7947 71.8043ZM76.8543 71.9968C75.5586 71.9968 74.5083 72.6652 74.5083 73.4897V74.1295C74.5083 74.9541 75.5586 75.6225 76.8543 75.6225C78.1499 75.6225 79.2002 74.9541 79.2002 74.1295V73.4897C79.2002 72.6652 78.1499 71.9968 76.8543 71.9968Z" fill="#633001"/>
<defs>
<linearGradient id="paint0_linear" x1="80" y1="64" x2="80" y2="96" gradientUnits="userSpaceOnUse">
<stop stop-color="#54DADE"/>
<stop offset="0.762157" stop-color="#24C7D6"/>
</linearGradient>
<linearGradient id="paint1_linear" x1="77.782" y1="72.5584" x2="77.782" y2="82.4515" gradientUnits="userSpaceOnUse">
<stop stop-color="#9F4A08"/>
<stop offset="0.370494" stop-color="#7D3900"/>
<stop offset="1" stop-color="#8D4104"/>
</linearGradient>
</defs>
</svg>
