<svg width="96" height="96" viewBox="0 0 96 96" fill="none" xmlns="http://www.w3.org/2000/svg">
<mask id="mask0" mask-type="alpha" maskUnits="userSpaceOnUse" x="0" y="0" width="96" height="96">
<path fill-rule="evenodd" clip-rule="evenodd" d="M96 0H0V96H69.7487C64.4865 92.6215 61 86.7179 61 80C61 69.5066 69.5066 61 80 61C86.7179 61 92.6215 64.4865 96 69.7487V0Z" fill="#C4C4C4"/>
</mask>
<g mask="url(#mask0)">
<path d="M48 96C74.5097 96 96 74.5097 96 48C96 21.4903 74.5097 0 48 0C21.4903 0 0 21.4903 0 48C0 74.5097 21.4903 96 48 96Z" fill="#31C77F"/>
<path fill-rule="evenodd" clip-rule="evenodd" d="M70.7027 90.3023C63.9434 93.9375 56.2125 96 48 96C41.3062 96 34.9324 94.6298 29.1437 92.1546C29.5532 90.869 30.2195 89.3874 30.8975 87.8798C32.1045 85.196 33.3486 82.4295 33.2476 80.5385C33.2164 79.9584 33.2393 79.3679 33.3204 78.794C33.6697 76.3654 33.5678 73.9389 33.3744 71.5082C33.2954 70.5123 33.3765 69.5329 33.5449 68.5432C33.9067 66.4119 34.1063 64.2703 33.8589 62.0954C33.626 60.0369 33.8797 57.9847 34.2893 55.9636C34.6345 54.2565 34.6095 52.5619 34.3226 50.8548C34.2602 50.4868 34.1978 50.0917 34.2623 49.732C34.4931 48.4574 34.6199 47.1745 34.6573 45.7357C35.882 46.8086 37.1982 46.8709 38.5872 46.5757C39.7349 46.3324 40.419 45.588 40.8702 44.5567C40.8894 44.5127 40.9073 44.4669 40.9252 44.4208C41.0396 44.1276 41.157 43.8265 41.6333 43.9433C41.9057 44.0099 42.2134 43.9683 42.2529 43.594C42.2883 43.2405 42.0304 43.1449 41.7393 43.0804C40.9336 42.8971 40.1287 42.711 39.3239 42.525C38.3946 42.3102 37.4654 42.0954 36.5349 41.8848C36.4835 41.8732 36.4322 41.8614 36.3807 41.8497C35.8641 41.7317 35.3452 41.6132 34.8195 41.5584C34.3122 41.5043 34.2145 41.2694 34.2685 40.8119C34.5139 38.6932 34.9131 36.6035 35.7718 34.6427C36.6119 32.7215 37.666 30.9208 39.1922 29.4404L39.2024 29.4305C39.3972 29.2421 39.606 29.04 39.4854 28.7335C39.3669 28.4299 39.1132 28.3322 38.8138 28.4444C38.5102 28.5588 38.373 28.3883 38.2378 28.1741C38.1293 28.0012 38.0193 27.8289 37.9092 27.6565C37.7242 27.3666 37.539 27.0765 37.3604 26.7831C36.5243 25.4068 35.5182 24.1567 34.5127 22.9072C34.4229 22.7957 34.3332 22.6842 34.2436 22.5726C34.0107 22.2815 33.7217 22.0216 33.4202 21.8032C32.4928 21.1296 31.6549 21.508 31.5405 22.6661C31.4657 23.4188 31.5114 24.1778 31.7942 24.8951C32.0467 25.5341 32.2838 26.1797 32.5209 26.8253C33.2037 28.6841 33.8866 30.5432 34.936 32.2453C35.1904 32.6584 34.9988 32.9185 34.8017 33.1862C34.725 33.2903 34.6474 33.3957 34.595 33.5116C34.264 33.2769 34.0898 32.9656 33.9206 32.6634C33.907 32.639 33.8933 32.6147 33.8797 32.5905C31.9564 29.1722 30.3137 25.6457 29.6359 21.7367C29.4592 20.7137 29.4404 19.6865 29.4966 18.6615C29.5569 17.547 30.0621 17.2372 31.1475 17.5262C31.9418 17.7362 32.5427 18.2352 33.1249 18.7737C34.6599 20.1936 36.0293 21.7651 37.3986 23.3365C37.7859 23.7809 38.1732 24.2254 38.5643 24.6664C39.0425 25.2049 39.5145 25.7476 39.9844 26.2945C40.2735 26.6292 40.5396 26.9453 40.5853 27.4443C40.6352 27.9995 41.0178 28.1617 41.548 27.9724C41.677 27.9267 41.8038 27.8685 41.9161 27.7895C42.7831 27.1823 43.777 26.9869 44.7979 26.8018C47.6466 26.2903 50.4619 26.4837 53.2668 27.0825C53.6968 27.1749 54.0588 27.3955 54.4279 27.6204C54.4408 27.6282 54.4537 27.6361 54.4666 27.6439C55.3253 28.1617 55.6372 28.0348 55.8784 27.0908C55.9512 26.8101 56.105 26.5918 56.2859 26.3901C57.0041 25.5926 57.7056 24.7799 58.407 23.9672C59.9677 22.1588 61.5285 20.3504 63.2744 18.7093C63.8274 18.1895 64.3993 17.6988 65.1353 17.4617C66.3621 17.0667 66.884 17.4368 66.963 18.7176C67.1127 21.1296 66.5201 23.4188 65.757 25.6624C64.9939 27.9038 63.9356 30.0205 62.8045 32.0977C62.6382 32.4019 62.4434 32.69 62.2329 33.0012C62.1326 33.1494 62.0288 33.3029 61.9228 33.4659C60.9045 31.9653 60.906 31.9626 61.6648 30.5394L61.6754 30.5195C61.7802 30.323 61.8856 30.1266 61.9909 29.9303C62.8404 28.3467 63.6902 26.7627 64.2766 25.0552C64.5552 24.2422 64.7839 23.4188 64.7569 22.5476C64.7402 22.0091 64.6301 21.5205 64.0894 21.2585C63.5759 21.009 63.1475 21.2335 62.7733 21.5579C62.3054 21.9592 61.8355 22.3646 61.4217 22.82C61.1468 23.1213 60.8659 23.4181 60.5849 23.715C59.4059 24.9605 58.2261 26.2069 57.4857 27.7936C57.4251 27.9233 57.3108 28.0276 57.197 28.1315C56.9786 28.3308 56.7617 28.5287 56.9284 28.9019C57.0353 29.143 57.2279 29.3163 57.4203 29.4894C57.5349 29.5924 57.6493 29.6954 57.7456 29.8126C59.2115 31.5987 60.4091 33.547 61.1348 35.7552C61.5943 37.1587 61.9145 38.5954 62.0871 40.0634C62.13 40.4335 62.1529 40.6196 62.0738 40.7372C61.992 40.8587 61.8013 40.9069 61.4113 41.0095C60.1526 41.338 58.8958 41.6702 57.639 42.0025C57.0106 42.1686 56.3822 42.3347 55.7536 42.5003C55.7113 42.5116 55.6684 42.5218 55.6252 42.5321C55.5009 42.5619 55.3756 42.5918 55.2629 42.6459C54.8679 42.8372 54.82 43.1844 55.2026 43.4194C55.2098 43.4238 55.2169 43.4281 55.2239 43.4324C55.455 43.5744 55.604 43.6659 55.6746 43.9808C55.9782 45.3136 56.8328 46.1598 58.1885 46.3594C59.5442 46.5591 60.8021 46.349 61.6006 45.0412C61.6463 44.9663 61.6712 44.9268 61.8106 44.9996C61.769 46.5383 61.8854 48.0956 62.189 49.6385C62.2472 49.9337 62.2202 50.2622 62.1599 50.5596C61.7586 52.5058 61.848 54.4416 62.2347 56.3774C62.6589 58.5086 62.7649 60.6544 62.5175 62.821C62.3366 64.3992 62.4842 65.9836 62.7733 67.5306C63.0997 69.2689 63.1829 71.003 62.9978 72.7475C62.8086 74.5336 62.8689 76.3072 63.0685 78.0829C63.1288 78.619 64.2634 79.9601 65.4317 81.3413C66.7195 82.8636 68.0484 84.4345 68.0255 85.0297C68.3814 85.6428 68.7777 86.4733 69.1955 87.349C69.6788 88.362 70.1909 89.4353 70.7027 90.3023Z" fill="white"/>
<path d="M47.9999 92.9395C72.8192 92.9395 92.9392 72.8195 92.9392 48.0002C92.9392 23.1809 72.8192 3.0609 47.9999 3.0609C23.1806 3.0609 3.06055 23.1809 3.06055 48.0002C3.06055 72.8195 23.1806 92.9395 47.9999 92.9395Z" fill="white"/>
<path d="M68.1752 18.3436C68.0837 16.7633 67.0087 15.9171 65.4555 16.2206C64.7465 16.36 64.0811 16.6178 63.4844 17.0544C62.0081 18.1377 60.7688 19.4664 59.5691 20.8325C58.1656 22.4294 56.7662 24.0304 55.4168 25.6709C55.003 26.1741 54.6204 26.1887 54.1131 25.9558C53.3001 25.5795 52.4455 25.2842 51.5597 25.2197C48.4408 24.9973 45.3198 24.885 42.3319 26.0577C41.7165 26.2989 41.3567 26.1824 40.9471 25.6897C39.6102 24.0824 38.242 22.5001 36.8614 20.9302C35.6387 19.5392 34.3849 18.1752 32.8588 17.0981C32.1373 16.5887 31.3326 16.3225 30.4614 16.2851C29.3677 16.2373 28.6274 16.7904 28.3592 17.857C28.276 18.1835 28.2636 18.5349 28.2656 18.8759C28.2698 20.7722 28.6191 22.6248 28.9892 24.4733C29.5236 27.1514 30.7504 29.58 31.8212 32.0605C32.2433 33.0399 32.7881 33.9589 33.5345 34.7283C33.8152 35.0173 33.8734 35.2772 33.7632 35.6452C33.5865 36.2357 33.4555 36.8387 33.2954 37.4334C32.707 39.6125 32.4949 41.8373 32.8463 44.0559C33.0334 45.2348 32.9939 46.3597 32.8608 47.5199C32.7153 48.78 32.6695 50.0442 32.971 51.3021C33.3287 52.7971 33.2476 54.2984 32.8754 55.783C32.4803 57.357 32.2766 58.9476 32.366 60.5715C32.4595 62.289 32.262 63.9961 32.21 65.7073C32.1788 66.6971 32.21 67.693 31.9813 68.6744C31.6923 69.9241 31.7172 71.1821 31.9023 72.4546C32.262 74.9268 32.0291 73.725 32.1393 75.2242C32.6072 75.2179 33.1478 76.6485 33.6135 76.636C33.6031 75.4799 33.4659 72.6646 33.3744 71.5085C33.2954 70.5125 33.3765 69.5332 33.5449 68.5435C33.9067 66.4122 34.1063 64.2706 33.8589 62.0956C33.626 60.0372 33.8797 57.9849 34.2893 55.9639C34.6345 54.2568 34.6095 52.5622 34.3226 50.8551C34.2602 50.4871 34.1978 50.092 34.2623 49.7323C34.4931 48.4577 34.6199 47.1748 34.6573 45.7359C35.882 46.8088 37.1982 46.8712 38.5872 46.5759C39.7349 46.3327 40.419 45.5883 40.8702 44.557C41.0116 44.2326 41.0823 43.8084 41.6333 43.9436C41.9057 44.0101 42.2134 43.9685 42.2529 43.5943C42.2883 43.2408 42.0304 43.1451 41.7393 43.0807C40.0031 42.6856 38.2711 42.2781 36.5349 41.8851C35.9673 41.7562 35.3976 41.619 34.8195 41.5587C34.3122 41.5046 34.2144 41.2696 34.2685 40.8122C34.5139 38.6934 34.9131 36.6038 35.7718 34.643C36.6118 32.7218 37.666 30.9211 39.1922 29.4407C39.3898 29.2494 39.6081 29.0456 39.4854 28.7337C39.3669 28.4301 39.1132 28.3324 38.8138 28.4447C38.5102 28.5591 38.373 28.3885 38.2378 28.1744C37.9467 27.7107 37.6452 27.2512 37.3604 26.7834C36.4497 25.2842 35.3373 23.9347 34.2436 22.5728C34.0107 22.2817 33.7217 22.0218 33.4202 21.8035C32.4928 21.1298 31.6549 21.5082 31.5405 22.6664C31.4656 23.4191 31.5114 24.178 31.7942 24.8954C32.7735 27.3739 33.522 29.9522 34.936 32.2456C35.2894 32.8195 34.7821 33.0981 34.595 33.5119C34.2373 33.2582 34.0627 32.9151 33.8797 32.5908C31.9564 29.1724 30.3137 25.646 29.6359 21.737C29.4591 20.714 29.4404 19.6868 29.4966 18.6617C29.5569 17.5472 30.0621 17.2374 31.1475 17.5264C31.9418 17.7364 32.5427 18.2355 33.1249 18.774C35.094 20.5954 36.7907 22.6664 38.5643 24.6667C39.0425 25.2052 39.5145 25.7479 39.9844 26.2947C40.2734 26.6295 40.5396 26.9455 40.5853 27.4446C40.6352 27.9997 41.0178 28.1619 41.548 27.9727C41.677 27.927 41.8038 27.8687 41.9161 27.7897C42.7831 27.1826 43.777 26.9871 44.7979 26.8021C47.6465 26.2906 50.4619 26.4839 53.2668 27.0828C53.7118 27.1784 54.084 27.4113 54.4666 27.6442C55.3253 28.1619 55.6372 28.0351 55.8784 27.0911C55.9491 26.8104 56.105 26.5921 56.2859 26.3904C58.6022 23.8183 60.7439 21.0882 63.2744 18.7095C63.8274 18.1897 64.3992 17.699 65.1353 17.462C66.3621 17.0669 66.884 17.437 66.963 18.7179C67.1127 21.1298 66.5201 23.4191 65.757 25.6626C64.9939 27.9041 63.9376 30.0208 62.8044 32.098C62.5591 32.5471 62.2514 32.9609 61.9228 33.4661C60.8998 31.9587 60.9061 31.9628 61.6754 30.5198C62.6256 28.7379 63.6174 26.9746 64.2766 25.0555C64.5552 24.2425 64.7839 23.4191 64.7569 22.5479C64.7402 22.0093 64.63 21.5207 64.0894 21.2587C63.5759 21.0092 63.1475 21.2338 62.7733 21.5581C62.3054 21.9594 61.8355 22.3649 61.4217 22.8203C59.9933 24.386 58.4026 25.829 57.4857 27.7939C57.3089 28.1723 56.6747 28.3345 56.9284 28.9021C57.0989 29.2868 57.4877 29.4989 57.7456 29.8129C59.2115 31.5989 60.4091 33.5472 61.1348 35.7554C61.5943 37.1589 61.9145 38.5957 62.0871 40.0637C62.1744 40.8164 62.1786 40.808 61.4113 41.0097C59.5234 41.5025 57.6395 42.0036 55.7516 42.5006C55.5873 42.5442 55.4126 42.5733 55.2608 42.6461C54.8658 42.8374 54.818 43.1847 55.2005 43.4196C55.4438 43.5693 55.5998 43.6566 55.6725 43.981C55.9761 45.3138 56.8307 46.1601 58.1864 46.3597C59.5421 46.5593 60.7979 46.3493 61.5985 45.0414C61.6442 44.9666 61.6692 44.9271 61.8085 44.9999C61.7669 46.5385 61.8833 48.0959 62.1869 49.6387C62.2451 49.934 62.2181 50.2625 62.1578 50.5598C61.7565 52.506 61.8459 54.4418 62.2326 56.3776C62.6568 58.5089 62.7629 60.6547 62.5154 62.8213C62.3345 64.3995 62.4822 65.9839 62.7712 67.5309C63.0976 69.2691 63.1808 71.0032 62.9957 72.7477C62.9334 73.332 62.9001 73.9163 62.8876 74.5006C63.3658 74.5193 63.8441 74.538 64.3223 74.5567C64.341 74.2573 64.366 73.9579 64.3992 73.6585C64.5822 71.995 64.813 70.342 64.5011 68.6453C64.0416 66.144 64.0998 63.5906 64.0728 61.0602C64.0541 59.2346 64.0083 57.436 63.5613 55.6561C63.2141 54.2797 63.1018 52.8782 63.4199 51.4789C63.7671 49.9485 63.7256 48.4223 63.5156 46.8816C63.4178 46.1726 63.2723 45.4511 63.4511 44.7358C63.7963 43.351 63.7651 41.9475 63.6944 40.544C63.6091 38.891 63.1517 37.3024 62.7296 35.7159C62.6007 35.2314 62.6194 34.9071 62.9916 34.5349C63.474 34.0504 63.8628 33.4703 64.1643 32.8527C65.9026 29.3055 67.4745 25.6959 67.9382 21.7182C68.065 20.6038 68.2417 19.4809 68.1752 18.3436Z" fill="#231F20"/>
<path d="M54.0007 88.0492C53.6868 88.0034 53.2626 88.3423 52.9757 88.0616C52.7594 87.8516 52.7428 87.4399 52.6284 87.1197C52.5827 86.9929 52.5286 86.8577 52.4434 86.7538C52.1543 86.4003 52.354 86.2132 52.6534 86.0281C54.4603 84.9053 56.0738 83.5184 57.7809 82.2605C59.8851 80.7072 61.7232 78.8712 63.4801 76.9479C64.0395 76.3366 64.4615 75.6234 64.4096 74.7356C64.3888 74.3759 64.5593 74.2261 64.9003 74.2719C65.2392 74.3156 65.5781 74.3655 65.9087 74.4445C66.9546 74.6981 67.3808 75.5631 66.9255 76.5383C66.7383 76.9396 66.4826 77.3076 66.2726 77.7006C66.1187 77.9896 66.0584 78.289 66.3537 78.5365C66.6261 78.7673 66.9192 78.7319 67.2145 78.5781C67.2457 78.5614 67.2769 78.549 67.3081 78.5344C67.5534 78.4138 67.7115 78.0146 67.961 78.0936C68.3373 78.2121 68.6866 78.4658 69.0027 78.7174C69.7595 79.3224 70.0298 80.0356 69.745 80.7779C69.4227 81.6159 68.9361 82.3561 68.2729 82.9778C66.9712 84.1963 65.4055 84.9822 63.7588 85.5582C61.0204 86.5188 58.2653 87.4524 55.3814 87.9202C54.9406 87.993 54.4998 88.0304 54.0007 88.0492Z" fill="#31C77F"/>
<path d="M35.6971 31.6489C34.6782 30.6447 34.1023 29.4823 33.6615 28.2722C33.125 26.8001 32.5948 25.3217 32.2559 23.7872C32.1831 23.4566 32.154 23.1135 32.1394 22.7746C32.129 22.548 32.0916 22.2735 32.3786 22.1592C32.6426 22.0531 32.8505 22.2257 33.021 22.3775C33.8902 23.1551 34.6387 24.0367 35.2542 25.0306C35.9903 26.2179 36.7201 27.4114 37.4873 28.5779C37.7867 29.0332 37.7888 29.3784 37.3355 29.6903C36.6369 30.1685 36.2772 30.9295 35.6971 31.6489Z" fill="#FEFEFE"/>
<path d="M60.4217 31.1187C59.9497 30.2745 59.2095 29.6652 58.5108 29.0207C58.1594 28.6963 58.1782 28.4572 58.4131 28.0704C59.4132 26.4237 60.6567 24.9661 61.9188 23.5251C62.2993 23.0906 62.6236 22.5936 63.1123 22.2589C63.6279 21.9075 63.9377 22.0447 64.0188 22.6685C64.0417 22.8348 64.0417 23.0157 64.0022 23.18C63.6841 24.4754 63.4283 25.804 62.7526 26.9643C62.0976 28.0891 61.5008 29.2411 60.9186 30.4013C60.798 30.6404 60.7211 30.917 60.4217 31.1187Z" fill="#FEFEFE"/>
<path d="M49.5201 89.1174C49.4057 89.107 49.2352 89.0966 49.0668 89.0717C48.3349 88.9677 47.9003 88.6121 47.813 88.057C47.7236 87.4873 48.1831 86.7512 48.7798 86.5079C49.8943 86.0526 50.936 86.3832 51.4247 87.3479C51.7262 87.9426 51.6534 88.2732 51.1273 88.6828C50.7468 88.9781 50.1937 89.134 49.5201 89.1174Z" fill="#31C77F"/>
<path d="M36.7572 44.1573C36.2769 44.176 35.9547 43.9057 35.9359 43.467C35.9151 43.0137 36.1563 42.7184 36.5535 42.7101C37.038 42.6976 37.3332 42.9555 37.3582 43.4088C37.3831 43.8932 37.1856 44.1407 36.7572 44.1573Z" fill="#E7EBEB"/>
<path d="M58.7414 43.4714C58.6458 43.7958 58.5855 44.1555 58.18 44.2366C57.8037 44.3114 57.444 43.9725 57.4564 43.5733C57.4689 43.1616 57.7226 42.9391 58.101 42.9349C58.4212 42.9287 58.6603 43.1241 58.7414 43.4714Z" fill="#EFF2F2"/>
<path d="M48.9189 44.9624C49.4387 44.3428 50.1124 44.0746 50.9025 44.0829C52.146 44.0974 53.0588 44.9125 53.1586 46.1518C53.2085 46.7631 53.248 47.3972 53.0192 47.9815C52.8155 48.4993 52.8841 48.7945 53.3644 49.175C54.3791 49.9776 54.9051 51.0734 54.8199 52.4124C54.7866 52.9468 54.6556 53.4708 54.2751 53.818C53.7699 54.2775 53.5141 54.8743 53.25 55.4482C52.6699 56.7103 51.6012 57.2821 50.3578 57.4775C48.9668 57.6938 47.6381 57.3278 46.4384 56.5668C45.8063 56.1655 45.3696 55.5979 45.1762 54.8764C45.0806 54.525 44.9267 54.2963 44.6128 54.0863C43.4193 53.2837 43.1074 51.928 43.8185 50.67C44.0514 50.2562 44.3133 49.8092 44.6772 49.5306C45.2137 49.123 45.2553 48.6885 45.0785 48.1188C44.8352 47.3286 44.9974 46.5593 45.2677 45.8066C45.8104 44.2929 47.0497 43.85 48.4407 44.6692C48.5925 44.7566 48.736 44.8481 48.9189 44.9624Z" fill="#030202"/>
<path d="M52.0858 53.8056C51.2956 53.7453 50.5471 53.2691 49.9919 52.4561C49.1956 51.2917 49.2101 51.3021 48.4699 52.4956C47.9023 53.4126 47.0581 53.8784 45.9665 53.7952C44.5359 53.6891 43.856 52.3085 44.6295 51.0942C44.9268 50.6285 45.3406 50.2667 45.7814 49.934C46.4738 49.4079 46.5029 49.3081 46.2264 48.4598C46.0455 47.9025 45.8729 47.3515 45.9228 46.7527C46.0309 45.4511 47.0373 44.898 48.1746 45.5238C48.3535 45.6216 48.5032 45.7692 48.6778 45.8794C49.0895 46.1352 49.4534 46.1456 49.7008 45.6528C50.0044 45.0435 50.5513 45.0352 51.1147 45.0914C51.7302 45.1537 52.0899 45.5342 52.3103 46.0832C52.433 46.3888 52.4101 46.6966 52.2978 46.9877C52.1398 47.4014 51.9527 47.8069 51.7676 48.2103C51.383 49.0545 51.4245 49.252 52.2771 49.62C53.009 49.934 53.5558 50.3997 53.8698 51.1316C54.4312 52.4333 53.6348 53.7786 52.0858 53.8056Z" fill="white"/>
<path d="M46.2015 54.7283C47.6923 54.5724 47.7713 54.5287 49.3329 53.0191C50.1542 54.0983 51.2021 54.7657 52.6244 54.6639C52.2189 55.9031 51.304 56.5373 49.9026 56.5726C48.3577 56.608 46.5674 56.1984 46.2015 54.7283Z" fill="#FDFDFD"/>
<path d="M47.4344 46.7859C47.501 46.8171 47.6652 46.842 47.7338 46.9356C47.9958 47.2953 48.2329 47.6779 48.2682 48.1353C48.2848 48.3516 48.1767 48.5387 47.9605 48.6219C47.7796 48.6905 47.6216 48.6073 47.4989 48.4805C47.16 48.1208 46.9229 47.7132 46.977 47.1934C46.9999 46.9647 47.1246 46.8192 47.4344 46.7859Z" fill="#0E0D0D"/>
<path d="M49.9067 47.6758C49.9732 47.5012 50.0626 47.208 50.1957 46.9356C50.3059 46.7131 50.4909 46.5385 50.7716 46.6757C50.9754 46.7734 51.0711 46.9647 51.0191 47.183C50.9463 47.4783 50.8507 47.7694 50.7425 48.0543C50.6365 48.3287 50.4556 48.5408 50.125 48.4077C49.8526 48.2975 49.8547 48.0439 49.9067 47.6758Z" fill="#191717"/>
<path d="M88.2505 71.3148C85.9945 72.238 83.8446 73.3733 81.6925 74.5044C79.266 75.779 76.8894 77.1409 74.5502 78.5673C73.6395 79.1225 72.5957 79.3845 71.5914 79.7276C71.2608 79.8398 71.0092 79.7837 70.8761 79.3907C70.5143 78.322 69.7429 77.6088 68.7574 77.1264C68.3789 76.9413 68.3207 76.6814 68.3457 76.303C68.3831 75.7229 68.3602 75.1469 68.1606 74.5793C67.9132 73.8744 67.4599 73.4107 66.7571 73.1986C66.1 73.0011 65.4243 72.8181 64.7381 72.9034C64.2724 72.9616 64.1185 72.789 64.0852 72.3815C64.0582 72.0405 64.0125 71.6995 64 71.3585C63.9667 70.4686 64.054 69.5578 63.896 68.6908C63.7089 67.6511 64.052 66.9837 64.8088 66.2996C67.4037 63.9521 70.3626 62.1951 73.4794 60.6544C80.1538 57.3546 87.0945 54.7118 94.087 52.1855C94.611 51.9963 95.1329 51.8009 95.6569 51.6075C95.7047 50.9504 95.738 50.2913 95.7609 49.628C93.3011 50.5616 90.833 51.4682 88.3649 52.3768C82.3059 54.6037 76.4548 57.2527 70.768 60.2885C68.6721 61.4071 66.7613 62.796 64.9648 64.3451C64.6633 64.605 64.3742 64.8753 64.0977 65.1248C64.0728 65.1124 64.052 65.0978 64.0332 65.0833C63.948 65.3369 63.7733 65.5511 63.5093 65.6654C63.4157 66.0855 63.0913 66.4431 62.5341 66.4431C62.4925 66.4431 62.453 66.441 62.4135 66.4369C62.3698 68.8966 62.4551 71.3543 62.7171 73.8016C62.8127 74.6916 62.5985 75.2925 61.9664 75.9599C58.885 79.2098 55.398 81.9753 51.8487 84.6721C51.7406 84.7552 51.5971 84.8135 51.5243 84.9216C51.1833 85.4206 50.8236 85.379 50.3142 85.1212C49.4056 84.6596 48.4803 84.9029 47.6694 85.3936C47.2161 85.668 46.8855 85.6431 46.4572 85.4248C44.382 84.3664 42.3173 83.2956 40.4127 81.9378C37.8448 80.1081 35.2582 78.3053 32.9897 76.0888C32.7236 75.8289 32.5406 75.5753 32.4283 75.2945C32.3784 75.2717 32.3264 75.2488 32.2765 75.228C32.264 75.2239 32.2516 75.2197 32.2391 75.2135C31.7775 75.0284 32.5364 74.3734 32.0332 74.2944C31.9272 74.3318 31.8399 74.361 31.7338 74.3984C31.6153 74.519 30.6692 74.6645 30.0226 75.228C29.9727 75.2717 29.9124 75.3091 29.8583 75.3507C27.9496 76.8623 27.4588 79.0539 28.5983 81.2163C28.8083 81.6155 28.7501 81.8713 28.5733 82.2393C27.7063 84.0275 27.7811 85.747 29.0537 87.3419C29.3947 87.7702 29.7086 88.2255 30.1515 88.5624L31.187 89.286C31.7858 89.6145 32.6737 89.9555 33.1249 90.0782C35.0503 90.6042 37.011 90.9265 38.9988 91.0118C39.9178 91.0492 40.8452 90.9182 41.7663 90.8288C43.5399 90.6583 45.3156 90.5107 47.0768 90.2611C47.7442 90.1655 48.3576 90.3381 48.998 90.3651C49.5553 90.388 50.1333 90.4462 50.6053 90.1634C51.4994 89.6291 52.4933 89.6103 53.4643 89.5272C55.5935 89.34 57.6603 88.868 59.6855 88.2255C61.7398 87.5747 63.8045 86.9593 65.7674 86.0402C67.7385 85.117 69.4685 83.9547 70.4748 81.9441C70.5705 81.7507 70.6932 81.6239 70.8449 81.5324C72.3607 80.6258 74.833 80.158 76.1928 79.6028C78.295 78.4488 80.3763 77.2657 82.4951 76.1512C84.5369 75.0783 86.5871 74.0179 88.7059 73.1092C89.2091 72.2921 89.6852 71.4604 90.1406 70.612C89.5064 70.8262 88.8743 71.0591 88.2505 71.3148Z" fill="#231F20"/>
<path d="M73.4794 60.6523C70.3626 62.1931 67.4038 63.95 64.8089 66.2975C64.052 66.9816 63.7089 67.6491 63.8961 68.6887C64.052 69.5557 63.9668 70.4665 64 71.3564C64.0125 71.6974 64.0583 72.0384 64.0853 72.3794C64.1165 72.7869 64.2724 72.9595 64.7382 72.9013C65.4243 72.816 66.1001 72.9969 66.7572 73.1965C67.462 73.4086 67.9132 73.8723 68.1607 74.5772C68.3603 75.1448 68.3831 75.7208 68.3457 76.3009C68.3208 76.6814 68.379 76.9392 68.7574 77.1243C69.7451 77.6067 70.5144 78.3199 70.8762 79.3886C71.0093 79.7816 71.2609 79.8398 71.5915 79.7255C72.5957 79.3824 73.6375 79.1204 74.5503 78.5652C76.8915 77.1388 79.2681 75.7748 81.6926 74.5023C83.8446 73.3733 85.9925 72.2359 88.2506 71.3127C88.8764 71.057 89.5065 70.8241 90.1427 70.6037C93.2117 64.867 95.1496 58.4337 95.6569 51.6033C95.135 51.7967 94.6111 51.9921 94.0871 52.1814C87.0945 54.7098 80.1539 57.3546 73.4794 60.6523Z" fill="#31C77F"/>
<path d="M29.8709 82.8008C30.2119 82.9422 30.4302 83.0357 30.6506 83.1231C31.0332 83.2769 31.4116 83.2811 31.6611 82.9131C31.9314 82.5159 31.6923 82.2019 31.3971 81.9316C31.0685 81.6322 30.7296 81.3432 30.4032 81.0417C29.06 79.8004 29.6359 77.5277 30.9001 76.748C31.2078 76.5588 31.4345 76.4694 31.6798 76.7979C31.7401 76.879 31.8254 76.9414 31.894 77.0183C34.5201 79.973 37.795 82.1084 41.0823 84.2126C42.5773 85.1691 44.116 86.0777 45.7752 86.741C46.1973 86.9094 46.3824 87.1111 46.2888 87.5748C46.214 87.9449 46.2347 88.3296 46.3616 88.6913C46.4988 89.0802 46.2909 89.1821 45.9728 89.2153C45.428 89.2715 44.8832 89.3588 44.3384 89.3692C42.255 89.4087 40.1799 89.8516 38.0965 89.6541C35.9819 89.4544 33.9109 88.9845 31.9793 88.0426C31.2931 87.7079 30.688 87.2754 30.2285 86.6537C29.3531 85.4664 29.3407 84.2043 29.8709 82.8008Z" fill="#31C77F"/>
<path d="M53.7929 88.0488C53.4789 88.003 53.0548 88.342 52.7678 88.0613C52.5516 87.8513 52.535 87.4396 52.4206 87.1194C52.3749 86.9925 52.3208 86.8574 52.2355 86.7534C51.9465 86.3999 52.1461 86.2128 52.4455 86.0277C54.2524 84.9049 55.866 83.5181 57.573 82.2601C59.6773 80.7069 61.5153 78.8709 63.2723 76.9476C63.8316 76.3362 64.2537 75.623 64.2017 74.7352C64.181 74.3755 64.3515 74.2258 64.6925 74.2715C65.0314 74.3152 65.3703 74.3651 65.7009 74.4441C66.7468 74.6978 67.173 75.5628 66.7177 76.5379C66.5305 76.9392 66.2748 77.3073 66.0648 77.7002C65.9109 77.9893 65.8506 78.2887 66.1459 78.5361C66.4183 78.7669 66.7114 78.7316 67.0067 78.5777C67.0379 78.5611 67.0691 78.5486 67.1003 78.534C67.3456 78.4134 67.5036 78.0142 67.7531 78.0932C68.1295 78.2117 68.4788 78.4654 68.7949 78.717C69.5517 79.3221 69.822 80.0353 69.5372 80.7776C69.2149 81.6155 68.7283 82.3557 68.065 82.9774C66.7634 84.1959 65.1977 84.9819 63.5509 85.5578C60.8125 86.5184 58.0575 87.452 55.1736 87.9199C54.7327 87.9926 54.2919 88.0301 53.7929 88.0488Z" fill="#31C77F"/>
<path d="M29.5133 87.0631L27.829 91.6625C28.2698 91.8642 28.7148 92.0617 29.1619 92.2509C29.6734 91.0096 30.7151 88.4895 30.871 88.1755C31.0789 87.7555 29.5133 87.0631 29.5133 87.0631Z" fill="#231F20"/>
<path d="M67.7366 83.7726L66.9402 84.6292C66.9402 84.6292 68.585 88.4883 69.8928 90.7443C70.3336 90.5156 70.7723 90.2786 71.2048 90.0353C70.423 88.3989 68.5746 84.5315 68.1982 83.7102C67.8094 82.8639 67.7366 83.7726 67.7366 83.7726Z" fill="#231F20"/>
<path d="M49.312 89.1177C49.1977 89.1073 49.0272 89.0969 48.8588 89.0719C48.1269 88.9679 47.6923 88.6124 47.605 88.0572C47.5156 87.4875 47.9751 86.7514 48.5718 86.5082C49.6863 86.0528 50.728 86.3834 51.2167 87.3482C51.5182 87.9429 51.4454 88.2735 50.9193 88.6831C50.5388 88.9783 49.9857 89.1343 49.312 89.1177Z" fill="#31C77F"/>
</g>
<circle cx="80" cy="80" r="16" fill="url(#paint0_linear)"/>
<path fill-rule="evenodd" clip-rule="evenodd" d="M69.6072 81.7579C69.6045 81.8177 69.6031 81.8777 69.6031 81.9378C69.6031 82.1653 69.6229 82.3899 69.6615 82.611H69.6031V82.9592C69.6031 83.1292 69.6141 83.2976 69.6359 83.4641C70.0595 86.7145 74.5379 89.2719 80 89.2719C85.4621 89.2719 89.9405 86.7145 90.3641 83.4641C90.3859 83.2976 90.3969 83.1292 90.3969 82.9592V82.611H90.3385C90.3771 82.3899 90.3969 82.1653 90.3969 81.9378C90.3969 81.8777 90.3955 81.8177 90.3928 81.7579C90.2359 78.3547 85.643 75.6252 80 75.6252C74.357 75.6252 69.7641 78.3547 69.6072 81.7579ZM68.7533 81.7579C68.8307 79.6815 70.2417 77.9373 72.2055 76.7449C74.2413 75.5088 76.9992 74.7721 80 74.7721C83.0008 74.7721 85.7587 75.5088 87.7945 76.7449C89.7583 77.9373 91.1693 79.6815 91.2467 81.7579H91.25V82.9592C91.25 85.1148 89.8148 86.9255 87.7945 88.1522C85.7587 89.3882 83.0008 90.125 80 90.125C76.9992 90.125 74.2413 89.3882 72.2055 88.1522C70.1852 86.9255 68.75 85.1148 68.75 82.9592V81.7579H68.7533Z" fill="#606063"/>
<path d="M90.3969 82.9594C90.3969 86.4458 85.7421 89.2721 80 89.2721C74.2579 89.2721 69.6031 86.4458 69.6031 82.9594V81.9601H90.3969V82.9594Z" fill="#BEBEBE"/>
<path d="M90.3969 81.9378C90.3969 85.4242 85.7421 88.2505 80 88.2505C74.2579 88.2505 69.6031 85.4242 69.6031 81.9378C69.6031 78.4514 74.2579 75.6252 80 75.6252C85.7421 75.6252 90.3969 78.4514 90.3969 81.9378Z" fill="#FAF9FA"/>
<path fill-rule="evenodd" clip-rule="evenodd" d="M71.2027 80.1545C71.2027 80.1585 71.2027 80.1624 71.2027 80.1664C71.2027 80.4534 71.2443 80.7346 71.3241 81.0076H71.2026V81.3773C71.2026 81.5405 71.2161 81.7017 71.2423 81.8607C71.6387 84.261 74.9548 86.1345 78.9869 86.1345C83.0191 86.1345 86.3352 84.261 86.7316 81.8607C86.7578 81.7017 86.7713 81.5405 86.7713 81.3773V81.0076H86.65C86.7276 80.742 86.7691 80.4688 86.7713 80.1898C86.7713 80.182 86.7713 80.1742 86.7713 80.1664C86.7713 80.1624 86.7713 80.1585 86.7713 80.1545C86.7609 77.5326 83.2797 75.4092 78.987 75.4092C74.6943 75.4092 71.2132 77.5326 71.2027 80.1545ZM70.3497 80.1545H70.3495V81.3773C70.3495 83.1006 71.4891 84.5226 73.0378 85.4691C74.6011 86.4244 76.7066 86.9876 78.9869 86.9876C81.2673 86.9876 83.3728 86.4244 84.9361 85.4691C86.4848 84.5226 87.6243 83.1006 87.6243 81.3773V80.193C87.6244 80.1841 87.6244 80.1752 87.6244 80.1664C87.6244 78.4431 86.4849 77.021 84.9362 76.0746C83.3729 75.1192 81.2674 74.5561 78.987 74.5561C76.7066 74.5561 74.6012 75.1192 73.0379 76.0746C71.4927 77.0189 70.3549 78.4365 70.3497 80.1545Z" fill="#633001"/>
<path d="M86.7713 81.3773C86.7713 84.0047 83.2861 86.1345 78.987 86.1345C74.6878 86.1345 71.2026 84.0047 71.2026 81.3773V80.2612H86.7713V81.3773Z" fill="#FEDC90"/>
<path d="M86.7713 80.1664C86.7713 82.7937 83.2861 84.9235 78.987 84.9235C74.6878 84.9235 71.2026 82.7937 71.2026 80.1664C71.2026 77.539 74.6878 75.4092 78.987 75.4092C83.2861 75.4092 86.7713 77.539 86.7713 80.1664Z" fill="#D1884F"/>
<path fill-rule="evenodd" clip-rule="evenodd" d="M73.5487 77.5952C73.5487 77.5992 73.5487 77.6031 73.5487 77.6071C73.5487 77.8941 73.5903 78.1753 73.67 78.4483H73.5486V78.818C73.5486 78.9812 73.562 79.1425 73.5883 79.3014C73.9846 81.7017 77.3008 83.5752 81.3329 83.5752C85.365 83.5752 88.6811 81.7017 89.0775 79.3014C89.1038 79.1425 89.1172 78.9812 89.1172 78.818V78.4483H88.996C89.0735 78.1827 89.115 77.9095 89.1172 77.6305C89.1173 77.6227 89.1173 77.6149 89.1173 77.6071C89.1173 77.6031 89.1173 77.5992 89.1173 77.5952C89.1068 74.9733 85.6257 72.8499 81.333 72.8499C77.0403 72.8499 73.5592 74.9733 73.5487 77.5952ZM72.6956 77.5952H72.6955V78.818C72.6955 80.5413 73.835 81.9633 75.3837 82.9098C76.947 83.8651 79.0525 84.4283 81.3329 84.4283C83.6133 84.4283 85.7188 83.8651 87.2821 82.9098C88.8307 81.9633 89.9703 80.5413 89.9703 78.818V77.6337C89.9703 77.6248 89.9704 77.616 89.9704 77.6071C89.9704 75.8838 88.8308 74.4617 87.2822 73.5153C85.7188 72.5599 83.6134 71.9968 81.333 71.9968C79.0526 71.9968 76.9471 72.5599 75.3838 73.5153C73.8387 74.4596 72.7008 75.8772 72.6956 77.5952Z" fill="#633001"/>
<path d="M89.1172 78.818C89.1172 81.4454 85.6321 83.5752 81.3329 83.5752C77.0337 83.5752 73.5486 81.4454 73.5486 78.818V77.7019H89.1172V78.818Z" fill="#FEDC90"/>
<path d="M89.1172 77.6071C89.1172 80.2344 85.6321 82.3643 81.3329 82.3643C77.0337 82.3643 73.5486 80.2344 73.5486 77.6071C73.5486 74.9798 77.0337 72.8499 81.3329 72.8499C85.6321 72.8499 89.1172 74.9798 89.1172 77.6071Z" fill="#D1884F"/>
<path fill-rule="evenodd" clip-rule="evenodd" d="M71.2027 75.0359C71.2027 75.0399 71.2027 75.0438 71.2027 75.0478C71.2027 75.3348 71.2443 75.616 71.3241 75.889H71.2026V76.2587C71.2026 76.4219 71.2161 76.5832 71.2423 76.7421C71.6387 79.1424 74.9548 81.0159 78.9869 81.0159C83.0191 81.0159 86.3352 79.1424 86.7316 76.7421C86.7578 76.5832 86.7713 76.4219 86.7713 76.2587V75.889H86.65C86.7276 75.6234 86.7691 75.3502 86.7713 75.0712C86.7713 75.0634 86.7713 75.0556 86.7713 75.0478C86.7713 75.0438 86.7713 75.0399 86.7713 75.0359C86.7609 72.4141 83.2797 70.2906 78.987 70.2906C74.6943 70.2906 71.2132 72.4141 71.2027 75.0359ZM70.3497 75.0359H70.3495V76.2587C70.3495 77.982 71.4891 79.404 73.0378 80.3505C74.6011 81.3059 76.7066 81.869 78.9869 81.869C81.2673 81.869 83.3728 81.3059 84.9361 80.3505C86.4848 79.404 87.6243 77.982 87.6243 76.2587V75.0744C87.6244 75.0655 87.6244 75.0567 87.6244 75.0478C87.6244 73.3245 86.4849 71.9024 84.9362 70.956C83.3729 70.0006 81.2674 69.4375 78.987 69.4375C76.7066 69.4375 74.6012 70.0006 73.0379 70.956C71.4927 71.9003 70.3549 73.3179 70.3497 75.0359Z" fill="#633001"/>
<path d="M86.7713 76.2587C86.7713 78.8861 83.2861 81.0159 78.987 81.0159C74.6878 81.0159 71.2026 78.8861 71.2026 76.2587V75.1426H86.7713V76.2587Z" fill="#FEDC90"/>
<path d="M86.7713 75.0478C86.7713 77.6751 83.2861 79.805 78.987 79.805C74.6878 79.805 71.2026 77.6751 71.2026 75.0478C71.2026 72.4205 74.6878 70.2906 78.987 70.2906C83.2861 70.2906 86.7713 72.4205 86.7713 75.0478Z" fill="#D1884F"/>
<path fill-rule="evenodd" clip-rule="evenodd" d="M73.0439 75.3438C73.0439 76.2209 73.6813 77.0065 74.6868 77.5351L73.9902 78.7418L73.9903 78.7419H73.9902V81.7959C73.9902 82.1997 74.3175 82.5271 74.7214 82.5271C75.1252 82.5271 75.4526 82.1997 75.4526 81.7959V79.3671L76.2021 78.0688C76.6814 78.1705 77.1958 78.2257 77.7313 78.2257C80.32 78.2257 82.4186 76.9354 82.4186 75.3438C82.4186 73.7521 80.32 72.4619 77.7313 72.4619C75.1425 72.4619 73.0439 73.7521 73.0439 75.3438Z" fill="url(#paint1_linear)"/>
<path fill-rule="evenodd" clip-rule="evenodd" d="M74.6868 77.5351C74.5755 77.4766 74.4686 77.4149 74.3666 77.3502C73.5479 76.8314 73.0439 76.1238 73.0439 75.3438C73.0439 73.7521 75.1425 72.4619 77.7313 72.4619C80.32 72.4619 82.4186 73.7521 82.4186 75.3438C82.4186 76.9354 80.32 78.2257 77.7313 78.2257C77.1958 78.2257 76.6814 78.1705 76.2021 78.0688L75.4526 79.3671V81.7959C75.4526 82.1997 75.1252 82.5271 74.7214 82.5271C74.3175 82.5271 73.9902 82.1997 73.9902 81.7959V78.7419L74.6868 77.5351ZM73.2437 78.7548V81.7959C73.2437 82.612 73.9053 83.2735 74.7214 83.2735C75.5375 83.2735 76.199 82.612 76.199 81.7959V79.5671L76.5878 78.8937C76.957 78.9452 77.3397 78.9721 77.7313 78.9721C79.1409 78.9721 80.4528 78.6223 81.4367 78.0175C82.4083 77.4201 83.165 76.4958 83.165 75.3438C83.165 74.1917 82.4083 73.2675 81.4367 72.6701C80.4528 72.0652 79.1409 71.7154 77.7313 71.7154C76.3216 71.7154 75.0097 72.0652 74.0259 72.6701C73.0542 73.2675 72.2975 74.1917 72.2975 75.3438C72.2975 76.3549 72.8766 77.1875 73.6812 77.784L73.3489 78.3597C73.3172 78.4127 73.2919 78.47 73.2741 78.5305C73.2522 78.6043 73.2424 78.6799 73.2437 78.7548Z" fill="#633001"/>
<path d="M74.5083 74.1295C74.5083 74.9541 75.5586 75.6225 76.8543 75.6225C78.1499 75.6225 79.2003 74.9541 79.2003 74.1295C79.2003 73.305 78.1499 72.6366 76.8543 72.6366C75.5586 72.6366 74.5083 73.305 74.5083 74.1295Z" fill="#9E7200"/>
<path d="M74.5083 73.4897H79.2002V74.1295H74.5083V73.4897Z" fill="#9E7200"/>
<path d="M74.5083 73.4897C74.5083 74.3142 75.5586 74.9826 76.8543 74.9826C78.1499 74.9826 79.2003 74.3142 79.2003 73.4897C79.2003 72.6652 78.1499 71.9968 76.8543 71.9968C75.5586 71.9968 74.5083 72.6652 74.5083 73.4897Z" fill="#F0B90B"/>
<path d="M75.964 73.3098L76.6252 72.889C76.765 72.8001 76.9435 72.8001 77.0832 72.889L77.7445 73.3098C77.8762 73.3936 77.8762 73.5858 77.7445 73.6696L77.0832 74.0904C76.9435 74.1794 76.765 74.1794 76.6252 74.0904L75.964 73.6696C75.8323 73.5858 75.8323 73.3936 75.964 73.3098Z" fill="#9E7200"/>
<path fill-rule="evenodd" clip-rule="evenodd" d="M74.7947 71.8043C75.3562 71.4469 76.0864 71.2503 76.8543 71.2503C77.6221 71.2503 78.3523 71.4469 78.9139 71.8043C79.4666 72.156 79.9467 72.7337 79.9467 73.4897V74.1295C79.9467 74.8855 79.4666 75.4632 78.9139 75.815C78.3523 76.1723 77.6221 76.3689 76.8543 76.3689C76.0864 76.3689 75.3562 76.1723 74.7947 75.815C74.242 75.4632 73.7618 74.8855 73.7618 74.1295V73.4897C73.7618 72.7337 74.242 72.156 74.7947 71.8043ZM76.8543 71.9968C75.5586 71.9968 74.5083 72.6652 74.5083 73.4897V74.1295C74.5083 74.9541 75.5586 75.6225 76.8543 75.6225C78.1499 75.6225 79.2002 74.9541 79.2002 74.1295V73.4897C79.2002 72.6652 78.1499 71.9968 76.8543 71.9968Z" fill="#633001"/>
<defs>
<linearGradient id="paint0_linear" x1="80" y1="64" x2="80" y2="96" gradientUnits="userSpaceOnUse">
<stop stop-color="#54DADE"/>
<stop offset="0.762157" stop-color="#24C7D6"/>
</linearGradient>
<linearGradient id="paint1_linear" x1="77.782" y1="72.5583" x2="77.782" y2="82.4515" gradientUnits="userSpaceOnUse">
<stop stop-color="#9F4A08"/>
<stop offset="0.370494" stop-color="#7D3900"/>
<stop offset="1" stop-color="#8D4104"/>
</linearGradient>
</defs>
</svg>
