<svg xmlns="http://www.w3.org/2000/svg" width="96" height="96" fill="none" viewBox="0 0 96 96"><mask id="mask0" width="96" height="96" x="0" y="0" mask-type="alpha" maskUnits="userSpaceOnUse"><path fill="#C4C4C4" fill-rule="evenodd" d="M96 0H0V96H69.7487C64.4865 92.6215 61 86.7179 61 80C61 69.5066 69.5066 61 80 61C86.7179 61 92.6215 64.4865 96 69.7487V0Z" clip-rule="evenodd"/></mask><g mask="url(#mask0)"><path fill="url(#paint0_linear)" d="M48 96C74.5097 96 96 74.5097 96 48C96 21.4903 74.5097 0 48 0C21.4903 0 0 21.4903 0 48C0 74.5097 21.4903 96 48 96Z"/><path fill="#FFFEFB" d="M60.6252 94.3226C56.6023 95.4163 52.3693 96 48 96C43.8128 96 39.7509 95.4643 35.8789 94.4565C36.2242 92.5089 36.5462 90.7634 36.8328 89.211L36.8487 89.1239C38.5356 79.9498 39.1059 76.8494 36.5535 76.0369C31.7817 74.4777 26.9169 72.4755 24.1934 66.6563C23.0762 63.8627 22.6804 60.8371 23.0295 57.8572L24.3098 46.9866C24.4727 45.7299 24.752 44.4967 25.1709 43.3092C24.7054 43.077 24.24 42.7511 23.7745 42.3549C23.5882 42.192 17.0939 36.5826 17.2802 27.3181C17.3268 25.6183 18.1414 25.0369 18.8164 24.827C21.4002 24.0826 26.4978 27.6206 29.9195 30.7869C30.0825 30.7634 30.2686 30.7634 30.4315 30.7634C30.4315 30.298 30.4783 29.8326 30.5712 29.3895C30.8739 27.9933 31.5955 26.6898 32.643 25.7121C33.6903 24.7344 35.0405 24.1061 36.4604 23.8962C36.8095 23.8505 37.182 23.827 37.531 23.827C37.1587 23.1518 36.6234 22.6161 35.9714 22.221C35.9017 22.1741 35.8551 22.1273 35.8318 22.0581C35.8085 21.9877 35.8085 21.9174 35.8085 21.8482C35.8318 21.7779 35.8551 21.7087 35.9017 21.6619C35.9219 21.6418 35.9466 21.6261 35.9738 21.6127C36.009 21.5949 36.0485 21.5815 36.0878 21.5692C37.1121 21.3125 38.2062 21.336 39.2302 21.615C40.2545 21.8951 41.2087 22.4297 41.9769 23.1518C42.1633 22.7322 42.4193 22.3136 42.6753 21.9409C43.0478 21.4286 43.4668 20.9398 43.9554 20.5212C44.9331 19.7065 46.0737 19.125 47.3075 18.7757C47.3771 18.7523 47.4239 18.7523 47.4702 18.7523C47.4933 18.7523 47.5165 18.7578 47.5397 18.7657C47.5631 18.7746 47.5865 18.7869 47.6098 18.7991C47.6564 18.8226 47.7032 18.8449 47.7265 18.8918L47.7962 19.0313C47.8195 19.1016 47.8195 19.1708 47.7962 19.2411C47.7845 19.2757 47.7672 19.3103 47.747 19.3427C47.7266 19.375 47.7033 19.404 47.6799 19.4275C47.0978 20.0324 46.7022 20.8002 46.5392 21.6384C46.3763 22.5235 46.3297 23.384 46.4229 24.269C46.4363 24.442 46.4495 24.6083 46.4673 24.7757C46.4805 24.8996 46.4961 25.0246 46.5159 25.154C47.3075 24.6641 48.2385 24.3851 49.1697 24.3851C50.1006 24.3851 51.0316 24.6418 51.8464 25.1072C51.9014 24.9308 51.9459 24.7489 51.9826 24.567C52.0235 24.365 52.0546 24.163 52.0791 23.9665C52.1365 23.6362 52.1585 23.298 52.1562 22.9554C52.1546 22.7422 52.1436 22.5279 52.1257 22.3136C52.0791 21.7545 51.9861 21.2199 51.8231 20.6842C51.7911 20.6206 51.7922 20.5458 51.8111 20.4744C51.8197 20.442 51.8319 20.4107 51.8464 20.3817C51.8929 20.2891 51.9861 20.2188 52.0791 20.1953C52.149 20.1719 52.2421 20.1719 52.3118 20.1953C52.3817 20.2188 52.4515 20.2422 52.4981 20.3114C52.8937 20.7545 53.2196 21.2433 53.4756 21.7779C53.6387 22.1038 53.8017 22.4532 53.918 22.8025C54.1204 22.577 54.3337 22.3683 54.5606 22.1786C54.8032 21.9755 55.0613 21.7947 55.3379 21.6384C55.6871 21.4286 56.0595 21.2657 56.4318 21.1261C56.8277 20.9866 57.2234 20.9174 57.6423 20.894C57.6822 20.894 57.7145 20.894 57.7436 20.8985C57.7654 20.9018 57.7853 20.9074 57.8053 20.9174C57.8517 20.9174 57.8983 20.9632 57.9449 20.9866C57.9914 21.0101 58.0147 21.0569 58.038 21.1027C58.0529 21.1328 58.0678 21.163 58.0766 21.1931C58.0815 21.2098 58.0846 21.2266 58.0846 21.2433C58.0846 21.3125 58.0846 21.3828 58.0613 21.4286C58.0514 21.4487 58.0374 21.4688 58.021 21.4889C57.9986 21.5157 57.9717 21.5424 57.9449 21.5692C57.4794 21.9643 57.107 22.4297 56.8045 22.942C56.5017 23.4777 56.2922 24.0357 56.1758 24.6418C56.1061 24.99 56.0595 25.3393 56.0362 25.6886C57.3164 25.1306 58.7362 24.99 60.1097 25.2232C61.5761 25.5023 62.9029 26.2478 63.9038 27.365L64.2064 27.7366C67.3953 24.6641 71.6782 21.5692 74.0526 22.1273C74.7509 22.2902 75.5888 22.8259 75.7286 24.5246C76.3802 33.5101 70.561 39.3761 70.049 39.8639C70.8403 41.2612 71.4222 42.7746 71.7945 44.3795L74.262 55.0871C74.9138 57.9744 74.8672 60.9766 74.0757 63.8393V63.8627L74.0526 63.9565C74.0526 63.9665 74.0526 63.9777 74.0503 63.9889C74.0476 64.0011 74.0419 64.0134 74.0293 64.0257C72.6792 67.9598 70.2816 70.4498 67.5815 72.173C67.1859 72.4286 66.7902 72.6619 66.3943 72.8706C65.1841 73.5458 63.9271 74.0815 62.6933 74.5703C60.2027 75.4319 59.6908 77.759 59.7139 79.5514C59.7255 79.9464 59.7431 80.3427 59.7605 80.7389C59.7779 81.1339 59.7955 81.529 59.8071 81.9252C59.9719 86.0235 60.1418 90.1886 60.6252 94.3226Z"/></g><circle cx="80" cy="80" r="16" fill="url(#paint1_linear)"/><path fill="#606063" fill-rule="evenodd" d="M69.6072 81.758C69.6045 81.8177 69.6031 81.8777 69.6031 81.9379C69.6031 82.1653 69.6229 82.3899 69.6615 82.6111H69.6031V82.9593C69.6031 83.1292 69.6141 83.2976 69.6359 83.4642C70.0595 86.7145 74.5379 89.2719 80 89.2719C85.4621 89.2719 89.9405 86.7145 90.3641 83.4642C90.3859 83.2976 90.3969 83.1292 90.3969 82.9593V82.6111H90.3385C90.3771 82.3899 90.3969 82.1653 90.3969 81.9379C90.3969 81.8777 90.3955 81.8177 90.3928 81.758C90.2359 78.3548 85.643 75.6252 80 75.6252C74.357 75.6252 69.7641 78.3548 69.6072 81.758ZM68.7533 81.758C68.8307 79.6815 70.2417 77.9373 72.2055 76.7449C74.2413 75.5089 76.9992 74.7721 80 74.7721C83.0008 74.7721 85.7587 75.5089 87.7945 76.7449C89.7583 77.9373 91.1693 79.6815 91.2467 81.758H91.25V82.9593C91.25 85.1148 89.8148 86.9255 87.7945 88.1522C85.7587 89.3883 83.0008 90.125 80 90.125C76.9992 90.125 74.2413 89.3883 72.2055 88.1522C70.1852 86.9255 68.75 85.1148 68.75 82.9593V81.758H68.7533Z" clip-rule="evenodd"/><path fill="#BEBEBE" d="M90.3969 82.9594C90.3969 86.4458 85.742 89.2721 79.9999 89.2721C74.2579 89.2721 69.603 86.4458 69.603 82.9594V81.9601H90.3969V82.9594Z"/><path fill="#FAF9FA" d="M90.3969 81.9378C90.3969 85.4242 85.742 88.2505 79.9999 88.2505C74.2579 88.2505 69.603 85.4242 69.603 81.9378C69.603 78.4514 74.2579 75.6251 79.9999 75.6251C85.742 75.6251 90.3969 78.4514 90.3969 81.9378Z"/><path fill="#633001" fill-rule="evenodd" d="M71.2027 80.1544C71.2027 80.1584 71.2027 80.1624 71.2027 80.1663C71.2027 80.4534 71.2443 80.7345 71.324 81.0075H71.2026V81.3772C71.2026 81.5404 71.216 81.7017 71.2423 81.8606C71.6386 84.2609 74.9547 86.1344 78.9869 86.1344C83.019 86.1344 86.3351 84.2609 86.7315 81.8606C86.7578 81.7017 86.7712 81.5404 86.7712 81.3772V81.0075H86.65C86.7275 80.7419 86.769 80.4687 86.7712 80.1898C86.7713 80.182 86.7713 80.1741 86.7713 80.1663C86.7713 80.1624 86.7713 80.1584 86.7713 80.1544C86.7608 77.5326 83.2797 75.4091 78.987 75.4091C74.6943 75.4091 71.2132 77.5326 71.2027 80.1544ZM70.3496 80.1544H70.3495V81.3772C70.3495 83.1005 71.489 84.5226 73.0377 85.469C74.601 86.4244 76.7065 86.9875 78.9869 86.9875C81.2673 86.9875 83.3727 86.4244 84.9361 85.469C86.4847 84.5226 87.6243 83.1005 87.6243 81.3772V80.1929C87.6243 80.1841 87.6244 80.1752 87.6244 80.1663C87.6244 78.443 86.4848 77.021 84.9362 76.0745C83.3728 75.1192 81.2674 74.556 78.987 74.556C76.7066 74.556 74.6011 75.1192 73.0378 76.0745C71.4927 77.0188 70.3548 78.4365 70.3496 80.1544Z" clip-rule="evenodd"/><path fill="#FEDC90" d="M86.7713 81.3774C86.7713 84.0047 83.2861 86.1346 78.987 86.1346C74.6878 86.1346 71.2026 84.0047 71.2026 81.3774V80.2612H86.7713V81.3774Z"/><path fill="#D1884F" d="M86.7713 80.1664C86.7713 82.7937 83.2861 84.9235 78.987 84.9235C74.6878 84.9235 71.2026 82.7937 71.2026 80.1664C71.2026 77.539 74.6878 75.4092 78.987 75.4092C83.2861 75.4092 86.7713 77.539 86.7713 80.1664Z"/><path fill="#633001" fill-rule="evenodd" d="M73.5488 77.5952C73.5487 77.5992 73.5487 77.6031 73.5487 77.6071C73.5487 77.8942 73.5903 78.1753 73.6701 78.4483H73.5486V78.818C73.5486 78.9812 73.5621 79.1425 73.5883 79.3014C73.9847 81.7017 77.3008 83.5752 81.3329 83.5752C85.3651 83.5752 88.6812 81.7017 89.0776 79.3014C89.1038 79.1425 89.1173 78.9812 89.1173 78.818V78.4483H88.996C89.0736 78.1827 89.1151 77.9095 89.1173 77.6306C89.1173 77.6228 89.1174 77.6149 89.1174 77.6071C89.1174 77.6031 89.1173 77.5992 89.1173 77.5952C89.1069 74.9734 85.6257 72.8499 81.333 72.8499C77.0404 72.8499 73.5592 74.9734 73.5488 77.5952ZM72.6957 77.5952H72.6956V78.818C72.6956 80.5413 73.8351 81.9634 75.3838 82.9098C76.9471 83.8652 79.0526 84.4283 81.3329 84.4283C83.6133 84.4283 85.7188 83.8652 87.2821 82.9098C88.8308 81.9634 89.9703 80.5413 89.9703 78.818V77.6337C89.9704 77.6249 89.9704 77.616 89.9704 77.6071C89.9704 75.8838 88.8309 74.4618 87.2822 73.5153C85.7189 72.56 83.6134 71.9968 81.333 71.9968C79.0527 71.9968 76.9472 72.56 75.3839 73.5153C73.8387 74.4596 72.7009 75.8773 72.6957 77.5952Z" clip-rule="evenodd"/><path fill="#FEDC90" d="M89.1172 78.8181C89.1172 81.4454 85.6321 83.5752 81.3329 83.5752C77.0337 83.5752 73.5486 81.4454 73.5486 78.8181V77.7019H89.1172V78.8181Z"/><path fill="#D1884F" d="M89.1172 77.607C89.1172 80.2344 85.6321 82.3642 81.3329 82.3642C77.0337 82.3642 73.5486 80.2344 73.5486 77.607C73.5486 74.9797 77.0337 72.8499 81.3329 72.8499C85.6321 72.8499 89.1172 74.9797 89.1172 77.607Z"/><path fill="#633001" fill-rule="evenodd" d="M71.2027 75.0359C71.2027 75.0399 71.2027 75.0438 71.2027 75.0478C71.2027 75.3348 71.2443 75.616 71.324 75.889H71.2026V76.2587C71.2026 76.4219 71.216 76.5832 71.2423 76.7421C71.6386 79.1424 74.9547 81.0159 78.9869 81.0159C83.019 81.0159 86.3351 79.1424 86.7315 76.7421C86.7578 76.5832 86.7712 76.4219 86.7712 76.2587V75.889H86.65C86.7275 75.6234 86.769 75.3502 86.7712 75.0712C86.7713 75.0634 86.7713 75.0556 86.7713 75.0478C86.7713 75.0438 86.7713 75.0399 86.7713 75.0359C86.7608 72.4141 83.2797 70.2906 78.987 70.2906C74.6943 70.2906 71.2132 72.4141 71.2027 75.0359ZM70.3496 75.0359H70.3495V76.2587C70.3495 77.982 71.489 79.404 73.0377 80.3505C74.601 81.3059 76.7065 81.869 78.9869 81.869C81.2673 81.869 83.3727 81.3059 84.9361 80.3505C86.4847 79.404 87.6243 77.982 87.6243 76.2587V75.0744C87.6243 75.0655 87.6244 75.0567 87.6244 75.0478C87.6244 73.3245 86.4848 71.9024 84.9362 70.956C83.3728 70.0006 81.2674 69.4375 78.987 69.4375C76.7066 69.4375 74.6011 70.0006 73.0378 70.956C71.4927 71.9003 70.3548 73.3179 70.3496 75.0359Z" clip-rule="evenodd"/><path fill="#FEDC90" d="M86.7713 76.2587C86.7713 78.886 83.2861 81.0159 78.987 81.0159C74.6878 81.0159 71.2026 78.886 71.2026 76.2587V75.1426H86.7713V76.2587Z"/><path fill="#D1884F" d="M86.7713 75.0478C86.7713 77.6751 83.2861 79.805 78.987 79.805C74.6878 79.805 71.2026 77.6751 71.2026 75.0478C71.2026 72.4205 74.6878 70.2906 78.987 70.2906C83.2861 70.2906 86.7713 72.4205 86.7713 75.0478Z"/><path fill="url(#paint2_linear)" fill-rule="evenodd" d="M73.0439 75.3438C73.0439 76.221 73.6813 77.0066 74.6868 77.5352L73.9902 78.7419L73.9903 78.7419H73.9902V81.7959C73.9902 82.1997 74.3175 82.5271 74.7214 82.5271C75.1252 82.5271 75.4526 82.1997 75.4526 81.7959V79.3671L76.2021 78.0689C76.6814 78.1705 77.1958 78.2257 77.7313 78.2257C80.32 78.2257 82.4186 76.9354 82.4186 75.3438C82.4186 73.7522 80.32 72.4619 77.7313 72.4619C75.1425 72.4619 73.0439 73.7522 73.0439 75.3438Z" clip-rule="evenodd"/><path fill="#633001" fill-rule="evenodd" d="M74.6868 77.5352C74.5755 77.4766 74.4686 77.4149 74.3666 77.3503C73.5479 76.8314 73.0439 76.1238 73.0439 75.3438C73.0439 73.7522 75.1425 72.4619 77.7313 72.4619C80.32 72.4619 82.4186 73.7522 82.4186 75.3438C82.4186 76.9354 80.32 78.2257 77.7313 78.2257C77.1958 78.2257 76.6814 78.1705 76.2021 78.0689L75.4526 79.3671V81.7959C75.4526 82.1997 75.1252 82.5271 74.7214 82.5271C74.3175 82.5271 73.9902 82.1997 73.9902 81.7959V78.7419L74.6868 77.5352ZM73.2437 78.7548V81.7959C73.2437 82.612 73.9053 83.2736 74.7214 83.2736C75.5375 83.2736 76.199 82.612 76.199 81.7959V79.5671L76.5878 78.8938C76.957 78.9452 77.3397 78.9722 77.7313 78.9722C79.1409 78.9722 80.4528 78.6224 81.4367 78.0175C82.4083 77.4201 83.165 76.4959 83.165 75.3438C83.165 74.1918 82.4083 73.2675 81.4367 72.6701C80.4528 72.0652 79.1409 71.7155 77.7313 71.7155C76.3216 71.7155 75.0097 72.0652 74.0259 72.6701C73.0542 73.2675 72.2975 74.1918 72.2975 75.3438C72.2975 76.3549 72.8766 77.1875 73.6812 77.7841L73.3489 78.3597C73.3172 78.4127 73.2919 78.47 73.2741 78.5305C73.2522 78.6043 73.2424 78.6799 73.2437 78.7548Z" clip-rule="evenodd"/><path fill="#9E7200" d="M74.5083 74.1295C74.5083 74.954 75.5586 75.6224 76.8542 75.6224C78.1499 75.6224 79.2002 74.954 79.2002 74.1295C79.2002 73.305 78.1499 72.6366 76.8542 72.6366C75.5586 72.6366 74.5083 73.305 74.5083 74.1295Z"/><path fill="#9E7200" d="M74.5083 73.4897H79.2002V74.1296H74.5083V73.4897Z"/><path fill="#F0B90B" d="M74.5083 73.4897C74.5083 74.3143 75.5586 74.9827 76.8542 74.9827C78.1499 74.9827 79.2002 74.3143 79.2002 73.4897C79.2002 72.6652 78.1499 71.9968 76.8542 71.9968C75.5586 71.9968 74.5083 72.6652 74.5083 73.4897Z"/><path fill="#9E7200" d="M75.964 73.3098L76.6252 72.889C76.765 72.8 76.9435 72.8 77.0832 72.889L77.7445 73.3098C77.8762 73.3936 77.8762 73.5858 77.7445 73.6696L77.0832 74.0904C76.9435 74.1793 76.765 74.1793 76.6252 74.0904L75.964 73.6696C75.8323 73.5858 75.8323 73.3936 75.964 73.3098Z"/><path fill="#633001" fill-rule="evenodd" d="M74.7947 71.8043C75.3562 71.447 76.0864 71.2504 76.8543 71.2504C77.6221 71.2504 78.3523 71.447 78.9139 71.8043C79.4666 72.1561 79.9467 72.7338 79.9467 73.4897V74.1296C79.9467 74.8856 79.4666 75.4633 78.9139 75.815C78.3523 76.1723 77.6221 76.369 76.8543 76.369C76.0864 76.369 75.3562 76.1723 74.7947 75.815C74.242 75.4633 73.7618 74.8856 73.7618 74.1296V73.4897C73.7618 72.7338 74.242 72.1561 74.7947 71.8043ZM76.8543 71.9968C75.5586 71.9968 74.5083 72.6652 74.5083 73.4897V74.1296C74.5083 74.9541 75.5586 75.6225 76.8543 75.6225C78.1499 75.6225 79.2002 74.9541 79.2002 74.1296V73.4897C79.2002 72.6652 78.1499 71.9968 76.8543 71.9968Z" clip-rule="evenodd"/><defs><linearGradient id="paint0_linear" x1="0" x2="96" y1="48" y2="48" gradientUnits="userSpaceOnUse"><stop stop-color="#FF874F"/><stop offset="1" stop-color="#FF6F5F"/></linearGradient><linearGradient id="paint1_linear" x1="80" x2="80" y1="64" y2="96" gradientUnits="userSpaceOnUse"><stop stop-color="#54DADE"/><stop offset=".762" stop-color="#24C7D6"/></linearGradient><linearGradient id="paint2_linear" x1="77.782" x2="77.782" y1="72.558" y2="82.451" gradientUnits="userSpaceOnUse"><stop stop-color="#9F4A08"/><stop offset=".37" stop-color="#7D3900"/><stop offset="1" stop-color="#8D4104"/></linearGradient></defs></svg>