<svg xmlns="http://www.w3.org/2000/svg" width="96" height="96" fill="none" viewBox="0 0 96 96"><mask id="mask0" width="96" height="96" x="0" y="0" mask-type="alpha" maskUnits="userSpaceOnUse"><path fill="#C4C4C4" fill-rule="evenodd" d="M96 0H0V96H69.7487C64.4865 92.6215 61 86.7179 61 80C61 69.5066 69.5066 61 80 61C86.7179 61 92.6215 64.4865 96 69.7487V0Z" clip-rule="evenodd"/></mask><g mask="url(#mask0)"><circle cx="48" cy="48" r="48" fill="#F6B817"/><path fill="#17191D" d="M76.5726 25.6858L76.3674 24.5936L75.28 24.367C75.2067 24.3535 68.0174 22.8453 61.6199 19.2767C52.504 14.174 49.4327 10.9537 49.4056 10.9244L48.1875 9.59996L46.9693 10.9176C46.9378 10.9514 43.8597 14.1785 34.7506 19.2756C28.3565 22.842 21.1615 24.3535 21.087 24.367L19.9997 24.5936L19.7967 25.6858C18.5267 32.5018 18.5086 39.3685 19.7448 46.109L20.2975 48.7929L20.4509 49.4139C22.1913 56.4846 25.2648 63.0899 29.596 69.0493C34.2927 75.517 40.2628 80.933 47.3359 85.1554L48.183 85.6615L49.0334 85.1554C56.1066 80.933 62.0744 75.517 66.7733 69.0493C71.1034 63.0899 74.1769 56.4869 75.9173 49.4139L76.6234 46.109C77.8596 39.3685 77.8438 32.5041 76.5726 25.6858Z"/><path fill="#F6B817" d="M74.7649 26.1688C74.7649 26.1688 67.3678 24.6305 60.7279 20.8861C51.181 15.4939 48.1865 12.1846 48.1865 12.1846C48.1865 12.1846 45.1887 15.4939 35.644 20.8861C29.0019 24.6305 21.6058 26.1688 21.6058 26.1688C20.2413 33.557 20.4015 40.9542 21.9453 48L74.4232 48C75.9681 40.9542 76.1272 33.557 74.7649 26.1688Z"/><path fill="#971A2E" d="M48.1874 83.8154C62.1671 75.5041 71.3701 62.4972 74.5846 48L21.7846 48C25.0037 62.4972 34.2021 75.5041 48.1874 83.8154Z"/><path fill="#110F0D" d="M41.9932 70.9617V70.1446C41.9932 69.9951 41.9932 69.9221 41.8938 69.9221C41.7697 69.9221 41.2743 70.1612 41.1312 70.2177C41.0981 70.2309 41.0638 70.2443 41.0378 70.2443C41.0177 70.2443 40.9846 70.2111 40.9846 70.1723C40.9846 70.1358 41.0177 70.1058 41.0496 70.0881C41.078 70.0726 42.3443 69.2898 42.5749 69.1281C42.634 69.0916 42.6931 69.0462 42.7451 69.0462C42.8054 69.0462 42.8244 69.1171 42.8244 69.178C42.8244 69.2278 42.7842 69.8435 42.7842 70.7979V71.9505C42.7842 72.5496 42.7842 73.0789 42.8113 73.3557C42.8303 73.555 42.8646 73.6458 43.0738 73.6912C43.1743 73.7078 43.4569 73.7277 43.5101 73.7277C43.5361 73.7277 43.5692 73.7454 43.5692 73.7908C43.5692 73.834 43.5361 73.8462 43.464 73.8462C42.9627 73.8462 42.5418 73.8273 42.3621 73.8273C42.2131 73.8273 41.6586 73.8462 41.2341 73.8462C41.1632 73.8462 41.1241 73.834 41.1241 73.7908C41.1241 73.7454 41.149 73.7277 41.1773 73.7277C41.2495 73.7277 41.5853 73.7078 41.7047 73.6823C41.9151 73.6391 41.9482 73.555 41.9683 73.3557C41.9932 73.0789 42.0074 72.5496 42.0003 71.9505L41.9932 70.9617Z"/><path stroke="#100F0D" stroke-miterlimit="10" stroke-width=".403" d="M41.9932 70.9618V70.1446C41.9932 69.9951 41.9932 69.922 41.8938 69.922C41.7697 69.922 41.2743 70.1612 41.1312 70.2177C41.0981 70.231 41.0638 70.2443 41.0378 70.2443C41.0177 70.2443 40.9846 70.211 40.9846 70.1723C40.9846 70.1357 41.0177 70.1058 41.0496 70.0881C41.078 70.0726 42.3443 69.2898 42.5749 69.1281C42.634 69.0916 42.6931 69.0462 42.7451 69.0462C42.8054 69.0462 42.8244 69.1171 42.8244 69.178C42.8244 69.2278 42.7842 69.8434 42.7842 70.7979V71.9506C42.7842 72.5496 42.7842 73.0789 42.8113 73.3557C42.8303 73.555 42.8646 73.6458 43.0738 73.6912C43.1743 73.7078 43.4569 73.7277 43.5101 73.7277C43.5361 73.7277 43.5692 73.7454 43.5692 73.7908C43.5692 73.834 43.5361 73.8462 43.464 73.8462C42.9627 73.8462 42.5418 73.8274 42.3621 73.8274C42.2131 73.8274 41.6586 73.8462 41.2341 73.8462C41.1632 73.8462 41.1241 73.834 41.1241 73.7908C41.1241 73.7454 41.149 73.7277 41.1773 73.7277C41.2495 73.7277 41.5853 73.7078 41.7047 73.6823C41.9151 73.6391 41.9482 73.555 41.9683 73.3557C41.9932 73.0789 42.0074 72.5496 42.0003 71.9506L41.9932 70.9618Z"/><path fill="#110F0D" d="M47.6308 70.698C47.6308 72.3983 46.0273 73.4686 45.2174 73.8214C45.1857 73.8375 45.1528 73.8462 45.1012 73.8462C45.073 73.8462 45.0401 73.8149 45.0401 73.7847C45.0401 73.7405 45.0859 73.7049 45.1188 73.6822C45.7984 73.2981 46.8196 72.3012 46.8196 70.8684C46.8196 69.7938 46.329 69.3202 45.8243 69.3202C45.3547 69.3202 45.0401 69.7097 45.0401 70.2243C45.0401 71.1533 45.6881 71.3723 45.9111 71.3723C46.14 71.3723 46.2715 71.3367 46.356 71.299C46.4264 71.2644 46.4616 71.2353 46.4863 71.2353C46.5121 71.2353 46.5379 71.259 46.5379 71.2882C46.5379 71.3065 46.518 71.3453 46.5051 71.3551C46.3161 71.5428 45.9768 71.6334 45.6423 71.6334C44.6997 71.6334 44.3077 70.972 44.3077 70.4617C44.3077 69.6418 44.9744 69.0462 45.9827 69.0462C47.0485 69.0462 47.6308 69.7766 47.6308 70.698Z"/><path stroke="#100F0D" stroke-miterlimit="10" stroke-width=".403" d="M47.6308 70.698C47.6308 72.3983 46.0273 73.4686 45.2174 73.8214C45.1857 73.8376 45.1528 73.8462 45.1012 73.8462C45.073 73.8462 45.0401 73.8149 45.0401 73.7847C45.0401 73.7405 45.0859 73.7049 45.1188 73.6822C45.7984 73.2981 46.8196 72.3012 46.8196 70.8684C46.8196 69.7939 46.329 69.3202 45.8242 69.3202C45.3547 69.3202 45.0401 69.7097 45.0401 70.2243C45.0401 71.1533 45.6881 71.3723 45.9111 71.3723C46.14 71.3723 46.2715 71.3367 46.356 71.2989C46.4264 71.2644 46.4616 71.2353 46.4863 71.2353C46.5121 71.2353 46.5379 71.259 46.5379 71.2881C46.5379 71.3065 46.518 71.3453 46.5051 71.355C46.3161 71.5428 45.9768 71.6334 45.6423 71.6334C44.6997 71.6334 44.3077 70.972 44.3077 70.4617C44.3077 69.6417 44.9744 69.0462 45.9827 69.0462C47.0485 69.0462 47.6308 69.7766 47.6308 70.698Z"/><path fill="#110F0D" d="M48.088 73.8462C48.0434 73.8462 48 73.8095 48 73.7595C48 73.7095 48.0617 73.6527 48.1257 73.596C49.017 72.8279 50.2855 71.8486 50.2855 70.5291C50.2855 69.5409 49.7301 69.3408 49.4113 69.3408C49.1393 69.3408 48.9279 69.3908 48.7359 69.5664C48.5862 69.7121 48.4685 70.0033 48.4685 70.1656C48.4685 70.229 48.4502 70.2879 48.3874 70.2879C48.3542 70.2879 48.336 70.2423 48.3291 70.1656C48.3234 70.11 48.2914 69.5909 48.2914 69.4108C48.2914 69.3541 48.2983 69.3286 48.3691 69.2841C48.6159 69.1585 48.9599 69.0462 49.521 69.0462C50.642 69.0462 51.1185 69.6476 51.1185 70.3791C51.1185 71.5929 49.7507 72.6523 48.9279 73.297C48.8959 73.3182 48.9085 73.3382 48.9405 73.3382H49.3747C49.4833 73.3382 50.2341 73.3337 50.4706 73.3037C50.9094 73.2514 51.1185 73.0402 51.1951 72.7456C51.2145 72.6712 51.2328 72.6456 51.2728 72.6456C51.3151 72.6456 51.3231 72.7023 51.3231 72.7646C51.3231 72.8646 51.2019 73.4471 51.1391 73.6572C51.0877 73.8261 50.9848 73.8462 50.5849 73.8462H48.088Z"/><path stroke="#100F0D" stroke-miterlimit="10" stroke-width=".403" d="M48.088 73.8462C48.0434 73.8462 48 73.8095 48 73.7595C48 73.7095 48.0617 73.6528 48.1257 73.5961C49.017 72.8279 50.2855 71.8486 50.2855 70.5291C50.2855 69.5409 49.7301 69.3408 49.4113 69.3408C49.1393 69.3408 48.9279 69.3908 48.7359 69.5664C48.5862 69.7121 48.4685 70.0033 48.4685 70.1656C48.4685 70.229 48.4502 70.2879 48.3874 70.2879C48.3542 70.2879 48.336 70.2423 48.3291 70.1656C48.3234 70.11 48.2914 69.5909 48.2914 69.4108C48.2914 69.3541 48.2983 69.3285 48.3691 69.2841C48.6159 69.1585 48.9599 69.0462 49.521 69.0462C50.642 69.0462 51.1185 69.6476 51.1185 70.379C51.1185 71.5929 49.7507 72.6523 48.9279 73.297C48.8959 73.3182 48.9085 73.3382 48.9405 73.3382H49.3747C49.4833 73.3382 50.2341 73.3337 50.4706 73.3037C50.9094 73.2515 51.1185 73.0403 51.1951 72.7457C51.2145 72.6712 51.2328 72.6456 51.2728 72.6456C51.3151 72.6456 51.3231 72.7023 51.3231 72.7646C51.3231 72.8646 51.2019 73.4471 51.1391 73.6572C51.0877 73.8262 50.9848 73.8462 50.5849 73.8462H48.088Z"/><path fill="#110F0D" d="M55.2273 69.1066C55.3515 69.1066 55.3846 69.1264 55.3846 69.156C55.3846 69.1944 55.3586 69.2438 55.3385 69.269C54.7919 69.9967 53.7627 72.4511 53.6633 73.2403C53.6527 73.3468 53.6633 73.3874 53.6633 73.4719C53.6633 73.5937 53.131 73.8462 52.8328 73.8462C52.7583 73.8462 52.7406 73.8275 52.7406 73.7737C52.7406 73.7089 52.7536 73.6167 52.7867 73.5191C52.9713 72.9252 53.8159 71.1043 54.7245 69.6773H53.0174C52.8328 69.6773 52.5572 69.6894 52.3987 69.7882C52.278 69.8629 52.194 70.0604 52.1798 70.157C52.1739 70.2064 52.1538 70.2404 52.1148 70.2404C52.0686 70.2404 52.0615 70.2064 52.0615 70.1438C52.0615 69.9188 52.1609 69.1944 52.1609 69.1318C52.1609 69.0725 52.1869 69.0462 52.226 69.0462C52.265 69.0462 52.4176 69.1066 53.1168 69.1066H55.2273Z"/><path stroke="#100F0D" stroke-miterlimit="10" stroke-width=".403" d="M55.2273 69.1066C55.3515 69.1066 55.3846 69.1263 55.3846 69.156C55.3846 69.1944 55.3586 69.2438 55.3385 69.269C54.7919 69.9968 53.7627 72.4511 53.6633 73.2403C53.6527 73.3468 53.6633 73.3874 53.6633 73.4719C53.6633 73.5937 53.131 73.8462 52.8328 73.8462C52.7583 73.8462 52.7406 73.8275 52.7406 73.7737C52.7406 73.709 52.7536 73.6168 52.7867 73.5191C52.9713 72.9253 53.8159 71.1043 54.7245 69.6773H53.0174C52.8328 69.6773 52.5572 69.6894 52.3987 69.7882C52.278 69.8628 52.194 70.0604 52.1798 70.157C52.1739 70.2064 52.1538 70.2404 52.1148 70.2404C52.0686 70.2404 52.0615 70.2064 52.0615 70.1438C52.0615 69.9188 52.1609 69.1944 52.1609 69.1318C52.1609 69.0725 52.1869 69.0462 52.226 69.0462C52.265 69.0462 52.4176 69.1066 53.1168 69.1066H55.2273Z"/><path fill="#C6C1C0" d="M41.9932 70.5918V69.7767C41.9932 69.6272 41.9932 69.5519 41.8938 69.5519C41.7697 69.5519 41.2767 69.7933 41.1312 69.8498C41.0981 69.863 41.0638 69.8764 41.0378 69.8764C41.0201 69.8764 40.9846 69.8454 40.9846 69.8066C40.9846 69.7701 41.0201 69.738 41.0496 69.7202C41.078 69.7047 42.3443 68.9217 42.5749 68.76C42.6316 68.7212 42.6931 68.6769 42.7451 68.6769C42.8054 68.6769 42.8244 68.7467 42.8244 68.8098C42.8244 68.8575 42.7842 69.4755 42.7842 70.4302V71.5842C42.7842 72.1822 42.7842 72.7138 42.8113 72.9841C42.8303 73.1879 42.8646 73.2787 43.0738 73.3241C43.1743 73.3407 43.4569 73.3584 43.5101 73.3584C43.5361 73.3584 43.5692 73.3783 43.5692 73.426C43.5692 73.4669 43.5361 73.4769 43.464 73.4769C42.9627 73.4769 42.5418 73.4603 42.3621 73.4603C42.2131 73.4603 41.6586 73.4769 41.2365 73.4769C41.1632 73.4769 41.1241 73.4669 41.1241 73.426C41.1241 73.3783 41.149 73.3584 41.1773 73.3584C41.2495 73.3584 41.5853 73.3407 41.7047 73.3175C41.9151 73.2721 41.9482 73.1879 41.9683 72.9841C41.9932 72.7138 42.0074 72.1822 42.0003 71.5842L41.9932 70.5918Z"/><path fill="#C6C1C0" fill-rule="evenodd" d="M41.1959 73.46C41.2323 73.4752 41.2754 73.4769 41.3095 73.4769C41.5068 73.4769 41.7346 73.4729 41.9299 73.4689C41.9804 73.4679 42.0285 73.4668 42.0733 73.4659C42.2032 73.4631 42.3055 73.4609 42.3561 73.4609C42.4174 73.4609 42.5098 73.4631 42.6269 73.4659C42.6665 73.4669 42.709 73.4679 42.7541 73.4689C42.9314 73.4729 43.1466 73.4769 43.3807 73.4769C43.4136 73.4769 43.4569 73.4754 43.4933 73.4588C43.5146 73.4492 43.5358 73.4334 43.5507 73.409C43.5652 73.3853 43.5692 73.3606 43.5692 73.3398C43.5692 73.2464 43.4989 73.1867 43.4236 73.1867C43.3785 73.1867 43.1253 73.1702 43.036 73.1554C42.9519 73.1362 42.922 73.1119 42.9057 73.0874C42.8849 73.0561 42.8731 73.0061 42.8642 72.9065L42.8641 72.9059C42.8394 72.6508 42.8393 72.1443 42.8393 71.5656V70.4539C42.8393 69.9952 42.8486 69.6174 42.8579 69.3487C42.8636 69.1842 42.8695 69.0575 42.8731 68.9794C42.8753 68.9319 42.8766 68.9023 42.8766 68.893C42.8766 68.8566 42.8717 68.8104 42.8527 68.7698C42.8325 68.7265 42.7882 68.6769 42.7123 68.6769C42.6631 68.6769 42.6193 68.6977 42.5889 68.715C42.5607 68.7311 42.5325 68.7512 42.5094 68.7676C42.5063 68.7697 42.5034 68.7718 42.5005 68.7739L42.4996 68.7745C42.3949 68.8506 42.0497 69.0764 41.7241 69.287C41.562 69.3919 41.4057 69.4924 41.2884 69.5676C41.2297 69.6052 41.1808 69.6364 41.1458 69.6587C41.1282 69.6699 41.1143 69.6787 41.1043 69.685C41.0977 69.6892 41.0937 69.6917 41.0917 69.6929C41.0902 69.6938 41.0898 69.6941 41.0901 69.694L41.0885 69.6949L41.0869 69.6958C41.0669 69.7082 41.0436 69.7264 41.0242 69.75C41.0052 69.7732 40.9846 69.8086 40.9846 69.8532C40.9846 69.8969 41.0035 69.9328 41.0239 69.9568C41.0343 69.969 41.0468 69.9803 41.061 69.9891C41.073 69.9967 41.0957 70.0084 41.1248 70.0084C41.1515 70.0084 41.1765 70.0017 41.1944 69.9959C41.2131 69.9899 41.2318 69.9822 41.2469 69.9759C41.2863 69.96 41.3535 69.929 41.4299 69.8937C41.4878 69.867 41.5511 69.8378 41.6114 69.8109C41.6838 69.7787 41.754 69.7489 41.8125 69.7273C41.8418 69.7164 41.8669 69.7082 41.8871 69.7027C41.8971 69.7 41.9052 69.6981 41.9115 69.697C41.9137 69.6966 41.9155 69.6964 41.9169 69.6962C41.9186 69.7044 41.9201 69.7166 41.9211 69.7343C41.9224 69.7586 41.9224 69.7877 41.9224 69.8244V70.6102L41.929 71.5662L41.929 71.5666C41.9356 72.1417 41.9223 72.6502 41.8997 72.9063C41.8901 73.0062 41.8784 73.0538 41.8583 73.0831C41.8425 73.1062 41.8128 73.1296 41.7254 73.1493C41.6764 73.159 41.5772 73.1685 41.4766 73.1756C41.3766 73.1827 41.2845 73.1867 41.2545 73.1867C41.2174 73.1867 41.1784 73.201 41.1503 73.2337C41.1235 73.2648 41.1143 73.3035 41.1143 73.3398C41.1143 73.3631 41.1199 73.3892 41.1365 73.4132C41.153 73.4371 41.1754 73.4515 41.1959 73.46ZM41.8565 73.2943C41.8801 73.2938 41.9033 73.2934 41.9261 73.2929C41.9751 73.2919 42.0223 73.2909 42.0667 73.2899C42.1977 73.2871 42.3034 73.2849 42.3561 73.2849C42.4199 73.2849 42.5156 73.2872 42.6338 73.29C42.673 73.2909 42.7146 73.2919 42.7584 73.2929C42.8019 73.2939 42.8477 73.2949 42.8955 73.2958C42.8358 73.2706 42.7879 73.2349 42.7533 73.1828C42.7052 73.1105 42.6922 73.0187 42.6835 72.9221C42.6579 72.6575 42.6579 72.1433 42.6579 71.573V70.4539C42.6579 69.9929 42.6672 69.6131 42.6766 69.3428C42.6813 69.2076 42.686 69.0998 42.6895 69.023C42.6904 69.0019 42.6913 68.9837 42.692 68.9677C42.6927 68.9541 42.6932 68.9421 42.6937 68.9316C42.6942 68.9204 42.6946 68.9115 42.6949 68.9047L42.6952 68.8965L42.6952 68.894L42.6952 68.8932L42.6952 68.893C42.6952 68.8818 42.6944 68.871 42.6928 68.8616C42.6928 68.8613 42.6927 68.8609 42.6926 68.8605C42.6891 68.8622 42.6852 68.8643 42.6807 68.8669C42.661 68.878 42.6407 68.8925 42.6165 68.9096C42.6137 68.9117 42.6108 68.9137 42.6079 68.9158C42.4976 68.9958 42.1475 69.2247 41.8247 69.4335C41.6547 69.5435 41.4896 69.6496 41.3692 69.7268C41.4207 69.7029 41.4775 69.6768 41.5358 69.6509C41.6093 69.6182 41.6838 69.5864 41.748 69.5627C41.78 69.5509 41.8108 69.5406 41.8383 69.5331C41.8641 69.5261 41.8936 69.5198 41.9207 69.5198C41.9555 69.5198 41.9936 69.5266 42.027 69.5499C42.061 69.5736 42.0786 69.6062 42.0882 69.636C42.0973 69.6647 42.1007 69.696 42.1022 69.7252C42.1038 69.7546 42.1038 69.788 42.1038 69.8227V70.6096L42.1104 71.5646C42.1104 71.5647 42.1104 71.5647 42.1104 71.5648C42.117 72.1416 42.1038 72.6571 42.0804 72.9217L42.0803 72.9222C42.0711 73.0185 42.0581 73.1095 42.0093 73.1807C41.9723 73.2346 41.9207 73.2698 41.8565 73.2943ZM42.6867 68.8409C42.6866 68.8408 42.6867 68.8409 42.6867 68.8409V68.8409Z" clip-rule="evenodd"/><path fill="#C6C1C0" d="M47.6308 70.4558C47.6308 72.2869 46.0273 73.4395 45.2174 73.8195C45.1833 73.8369 45.1528 73.8462 45.0988 73.8462C45.073 73.8462 45.0401 73.8101 45.0401 73.7776C45.0401 73.7323 45.0859 73.694 45.1188 73.6673C45.7984 73.2536 46.8196 72.1824 46.8196 70.6394C46.8196 69.4822 46.329 68.9698 45.8266 68.9698C45.3547 68.9698 45.0401 69.3892 45.0401 69.9458C45.0401 70.9462 45.6881 71.1843 45.9111 71.1843C46.14 71.1843 46.2715 71.1437 46.356 71.1053C46.4264 71.0635 46.4616 71.0321 46.4863 71.0321C46.5121 71.0321 46.5379 71.06 46.5379 71.0913C46.5379 71.1088 46.518 71.1483 46.5051 71.1634C46.3161 71.3656 45.9768 71.4608 45.6423 71.4608C44.6997 71.4608 44.3077 70.7509 44.3077 70.2014C44.3077 69.3183 44.9744 68.677 45.9827 68.677C47.0485 68.677 47.6308 69.4624 47.6308 70.4558Z"/><path fill="#C6C1C0" fill-rule="evenodd" d="M45.0407 73.793C45.0591 73.8144 45.096 73.8462 45.1468 73.8462C45.2118 73.8462 45.2548 73.8339 45.2993 73.8109C45.6912 73.6231 46.2712 73.2468 46.7547 72.6921C47.2394 72.136 47.6308 71.3959 47.6308 70.4846C47.6308 69.9885 47.4883 69.5368 47.2076 69.2075C46.9255 68.8765 46.5101 68.677 45.982 68.677C45.4858 68.677 45.0667 68.8383 44.7708 69.1175C44.4746 69.3971 44.3077 69.7895 44.3077 70.2393C44.3077 70.5242 44.4068 70.85 44.6266 71.1058C44.8485 71.3641 45.1893 71.5461 45.6603 71.5461C45.9882 71.5461 46.3393 71.4517 46.5427 71.2297L46.5441 71.2282L46.5454 71.2266C46.5589 71.2105 46.5707 71.1891 46.5785 71.1722C46.5828 71.163 46.5872 71.1524 46.5906 71.1416C46.5935 71.1325 46.5981 71.1161 46.5981 71.0974C46.5981 71.0575 46.5823 71.022 46.5601 70.9965C46.5385 70.9718 46.503 70.9479 46.4578 70.9479C46.4331 70.9479 46.4127 70.9557 46.3998 70.9617C46.3864 70.968 46.3737 70.9758 46.3632 70.9826C46.3548 70.988 46.347 70.9932 46.339 70.9985C46.3252 71.0078 46.3109 71.0174 46.292 71.029C46.2246 71.0595 46.1139 71.0946 45.9143 71.0946C45.8338 71.0946 45.6508 71.0473 45.4879 70.8857C45.3283 70.7274 45.1828 70.4538 45.1828 69.9928C45.1828 69.4846 45.4589 69.1441 45.8345 69.1441C46.0372 69.1441 46.245 69.2487 46.4057 69.4898C46.5676 69.7328 46.6813 70.1154 46.6813 70.6616C46.6813 72.1079 45.7419 73.1148 45.1177 73.5025L45.1124 73.5058L45.1075 73.5098C45.0925 73.5223 45.0673 73.5432 45.0463 73.5688C45.0258 73.5939 44.9998 73.6346 44.9998 73.6877C44.9998 73.732 45.0203 73.7692 45.0407 73.793ZM45.2952 73.607C45.9523 73.1635 46.8643 72.1292 46.8643 70.6616C46.8643 70.0921 46.7462 69.6696 46.5576 69.3866C46.3678 69.1018 46.1064 68.9593 45.8345 68.9593C45.3183 68.9593 44.9998 69.4277 44.9998 69.9928C44.9998 70.4964 45.1604 70.8199 45.3597 71.0176C45.5556 71.212 45.7841 71.2795 45.9143 71.2795C46.0312 71.2795 46.1243 71.2686 46.1997 71.2522C46.0479 71.3239 45.8571 71.3613 45.6603 71.3613C45.2406 71.3613 44.9509 71.2011 44.7649 70.9846C44.5768 70.7657 44.4907 70.4842 44.4907 70.2393C44.4907 69.8375 44.6388 69.4951 44.8958 69.2526C45.1531 69.0097 45.5254 68.8618 45.982 68.8618C46.4609 68.8618 46.8242 69.0409 47.0689 69.3281C47.3151 69.617 47.4477 70.0228 47.4477 70.4846C47.4477 71.339 47.0815 72.0374 46.6173 72.57C46.1829 73.0684 45.6658 73.4176 45.2952 73.607ZM45.1818 73.6946C45.1818 73.6946 45.1818 73.6947 45.1818 73.6946V73.6946Z" clip-rule="evenodd"/><path fill="#C6C1C0" d="M48.088 73.4769C48.0434 73.4769 48 73.4424 48 73.388C48 73.3402 48.0617 73.2812 48.1257 73.2268C49.017 72.4564 50.2855 71.4815 50.2855 70.1598C50.2855 69.1716 49.7301 68.9715 49.4113 68.9715C49.1393 68.9715 48.9279 69.0215 48.7359 69.195C48.5862 69.3406 48.4685 69.634 48.4685 69.7963C48.4685 69.8619 48.4502 69.9164 48.3874 69.9164C48.3542 69.9164 48.336 69.8708 48.3291 69.7963C48.3223 69.7407 48.2914 69.2216 48.2914 69.0393C48.2914 68.9826 48.2983 68.9571 48.3691 68.9148C48.6159 68.7892 48.9599 68.6769 49.521 68.6769C50.642 68.6769 51.1185 69.2783 51.1185 70.012C51.1185 71.2214 49.7507 72.2808 48.9279 72.9278C48.8959 72.9489 48.9085 72.9711 48.9405 72.9711H49.3747C49.4833 72.9711 50.2341 72.9623 50.4706 72.9322C50.9094 72.8822 51.1185 72.6688 51.1951 72.3764C51.2145 72.2997 51.2351 72.2764 51.2728 72.2764C51.3174 72.2764 51.3231 72.333 51.3231 72.3931C51.3231 72.4953 51.2019 73.0778 51.1391 73.2879C51.0877 73.4569 50.9848 73.4769 50.5849 73.4769H48.088Z"/><path fill="#C6C1C0" fill-rule="evenodd" d="M48 73.3029C48 73.4071 48.0934 73.4769 48.1916 73.4769H50.817C51.0226 73.4769 51.1722 73.473 51.2766 73.4426C51.333 73.4261 51.3812 73.4009 51.4195 73.3619C51.4568 73.324 51.4791 73.279 51.4948 73.2316L51.4949 73.2313C51.5292 73.1262 51.5783 72.9323 51.6184 72.7541C51.6386 72.6645 51.6568 72.5778 51.67 72.5069C51.6827 72.4392 51.6923 72.378 51.6923 72.3447C51.6923 72.3162 51.6913 72.2756 51.6789 72.2403C51.6724 72.2218 51.6604 72.1976 51.6364 72.1775C51.61 72.1552 51.5761 72.1439 51.5403 72.1439C51.5198 72.1439 51.4961 72.1468 51.4721 72.1567C51.4477 72.1667 51.4286 72.1817 51.4139 72.1986C51.3875 72.229 51.3731 72.2687 51.3625 72.3071C51.3262 72.4336 51.2604 72.538 51.1565 72.6164C51.0521 72.6952 50.9016 72.7536 50.6853 72.7762L50.684 72.7763L50.684 72.7764C50.4431 72.8044 49.661 72.8131 49.5446 72.8131H49.297C49.7055 72.5178 50.2077 72.1443 50.6256 71.7166C51.0987 71.2324 51.4772 70.6657 51.4772 70.0512C51.4772 69.6792 51.345 69.3327 51.0489 69.0795C50.753 68.8264 50.3057 68.6769 49.6984 68.6769C49.0931 68.6769 48.7156 68.7883 48.4413 68.9161L48.4383 68.9175L48.4354 68.9191C48.3942 68.9416 48.3554 68.9679 48.3315 69.0067C48.3072 69.0462 48.3064 69.0863 48.3064 69.1143C48.3064 69.2911 48.3384 69.788 48.3466 69.8525C48.3505 69.8913 48.3583 69.9313 48.375 69.9644C48.3913 69.9967 48.4307 70.0474 48.5064 70.0474C48.5381 70.0474 48.5698 70.041 48.5985 70.0258C48.627 70.0106 48.6471 69.9895 48.6606 69.9678C48.6859 69.9271 48.6909 69.8801 48.6909 69.8435C48.6909 69.7817 48.7167 69.6843 48.7647 69.5819C48.8122 69.4809 48.8758 69.387 48.9417 69.3278C49.1185 69.1821 49.3124 69.1373 49.583 69.1373C49.731 69.1373 49.9332 69.18 50.0983 69.3269C50.2624 69.4729 50.4031 69.7337 50.4031 70.1936C50.4031 70.8012 50.0851 71.3348 49.6417 71.8136C49.2652 72.2203 48.8057 72.5799 48.3868 72.9077C48.3116 72.9666 48.2377 73.0245 48.1657 73.0814C48.1317 73.108 48.0936 73.1391 48.0636 73.1714C48.0369 73.2001 48 73.2468 48 73.3029ZM48.2028 73.3003H50.817C51.0319 73.3003 51.1467 73.2946 51.215 73.2747C51.2449 73.2659 51.2602 73.2559 51.2705 73.2454C51.2818 73.2339 51.2933 73.2156 51.3046 73.1817C51.3364 73.0843 51.3841 72.8967 51.4241 72.7193C51.4359 72.6666 51.4471 72.6152 51.4568 72.5678C51.4124 72.6357 51.3557 72.6975 51.2846 72.7512C51.1437 72.8575 50.9538 72.926 50.709 72.9516C50.4518 72.9814 49.6564 72.9898 49.5446 72.9898H49.088C49.0584 72.9898 48.989 72.9804 48.9633 72.919C48.9359 72.8536 48.9875 72.8072 49.0147 72.7894C49.0245 72.7823 49.0344 72.7752 49.0444 72.768C49.4739 72.4587 50.0263 72.0609 50.4761 71.6006C50.9384 71.1275 51.279 70.6016 51.279 70.0512C51.279 69.7165 51.1607 69.42 50.9116 69.207C50.6623 68.9938 50.2698 68.8536 49.6984 68.8536C49.1262 68.8536 48.7809 68.9577 48.5363 69.0712C48.5159 69.0826 48.5082 69.089 48.5059 69.0913C48.5054 69.0937 48.5046 69.1002 48.5046 69.1143C48.5046 69.2258 48.5181 69.4717 48.5294 69.6456C48.5437 69.6017 48.5615 69.557 48.5819 69.5137C48.6353 69.3999 48.7118 69.2829 48.8028 69.2018L48.8041 69.2006L48.8055 69.1995C49.032 69.012 49.2824 68.9607 49.583 68.9607C49.7702 68.9607 50.0276 69.0144 50.2384 69.2018C50.45 69.3902 50.6013 69.7017 50.6013 70.1936C50.6013 70.8591 50.2525 71.4316 49.7947 71.926C49.407 72.3447 48.9337 72.715 48.5152 73.0425C48.4405 73.1009 48.3675 73.158 48.2971 73.2137L48.2971 73.2137L48.2966 73.2142C48.2634 73.24 48.2355 73.2634 48.2163 73.2841C48.2102 73.2906 48.2059 73.296 48.2028 73.3003ZM48.5563 69.8928C48.5563 69.8928 48.5563 69.8927 48.5561 69.8925L48.5563 69.8928ZM51.4896 72.2927C51.4896 72.2927 51.4896 72.2929 51.4897 72.2931C51.4896 72.2929 51.4896 72.2927 51.4896 72.2927Z" clip-rule="evenodd"/><path fill="#C6C1C0" d="M55.2273 68.7395C55.3515 68.7395 55.3846 68.7614 55.3846 68.7888C55.3846 68.8272 55.3586 68.8766 55.3385 68.8997C54.7919 69.6304 53.7627 72.0803 53.6633 72.8735C53.6527 72.9777 53.6633 73.0205 53.6633 73.1028C53.6633 73.2224 53.131 73.4769 52.8328 73.4769C52.7583 73.4769 52.7406 73.4583 52.7406 73.4023C52.7406 73.3398 52.7536 73.2498 52.7867 73.15C52.9713 72.5565 53.8159 70.7341 54.7245 69.3078H53.0174C52.8328 69.3078 52.5572 69.3199 52.3987 69.4186C52.278 69.4932 52.194 69.6929 52.1798 69.7916C52.1739 69.841 52.1538 69.8706 52.1148 69.8706C52.0686 69.8706 52.0615 69.841 52.0615 69.7785C52.0615 69.547 52.1585 68.8273 52.1585 68.7647C52.1585 68.7033 52.1869 68.6769 52.226 68.6769C52.265 68.6769 52.4176 68.7395 53.1168 68.7395H55.2273Z"/><path fill="#C6C1C0" fill-rule="evenodd" d="M52.7501 73.8047C52.7913 73.843 52.846 73.8462 52.8822 73.8462C53.0441 73.8462 53.2554 73.7727 53.4211 73.6888C53.5052 73.6461 53.5831 73.598 53.6414 73.5502C53.6704 73.5265 53.6973 73.5006 53.7178 73.4733C53.7367 73.448 53.7588 73.41 53.7588 73.364C53.7588 73.326 53.7574 73.299 53.7562 73.2747C53.7541 73.2338 53.7523 73.2006 53.7583 73.1359C53.804 72.7376 54.0658 71.9076 54.3852 71.0739C54.7039 70.2421 55.0717 69.4282 55.3229 69.058C55.3381 69.0381 55.3522 69.0125 55.3628 68.9867C55.3737 68.9601 55.3846 68.9243 55.3846 68.887C55.3846 68.8609 55.3769 68.8331 55.358 68.8087C55.3403 68.786 55.3175 68.7722 55.2966 68.7636C55.2571 68.7474 55.2052 68.7419 55.1438 68.7419H53.1504C52.8231 68.7419 52.626 68.7258 52.5077 68.7102C52.4488 68.7024 52.409 68.6947 52.3818 68.689C52.3764 68.6879 52.3706 68.6867 52.365 68.6854C52.358 68.6839 52.3514 68.6825 52.3467 68.6816C52.3386 68.6799 52.3239 68.677 52.309 68.677C52.2662 68.677 52.2217 68.6941 52.1906 68.7348C52.1621 68.7722 52.1531 68.8185 52.1531 68.862C52.1531 68.862 52.1531 68.8628 52.153 68.865C52.1529 68.8675 52.1527 68.8707 52.1524 68.8748C52.1518 68.8831 52.1508 68.8939 52.1496 68.9072C52.1472 68.9337 52.1436 68.9687 52.1393 69.0101C52.1362 69.0403 52.1327 69.074 52.1289 69.11C52.1224 69.1721 52.1151 69.2414 52.1078 69.3126C52.0851 69.5355 52.0615 69.7879 52.0615 69.914C52.0615 69.9434 52.0619 69.9881 52.0787 70.0254C52.089 70.0481 52.106 70.0704 52.1323 70.0856C52.1573 70.1 52.1831 70.1036 52.204 70.1036C52.2523 70.1036 52.2938 70.0813 52.321 70.0432C52.3443 70.0105 52.3533 69.9719 52.3569 69.9393C52.3622 69.9001 52.3817 69.833 52.4139 69.7661C52.447 69.6972 52.4865 69.6438 52.5233 69.6187L52.5236 69.6186C52.5815 69.5789 52.6678 69.5528 52.7686 69.5376C52.8676 69.5226 52.971 69.5195 53.0565 69.5195H54.5083C53.6792 70.9803 52.9223 72.7792 52.7503 73.3861C52.7169 73.4972 52.7029 73.5996 52.7029 73.6748C52.7029 73.7065 52.7058 73.7634 52.7501 73.8047ZM52.8876 73.6583C52.8895 73.6042 52.9006 73.5272 52.9268 73.4406L52.9272 73.439C53.0988 72.8329 53.8927 70.9491 54.7483 69.4734L54.8304 69.3317H53.0565C52.9677 69.3317 52.8538 69.3348 52.7416 69.3517C52.6313 69.3684 52.5127 69.3997 52.4209 69.4625C52.3515 69.5097 52.2983 69.5864 52.2604 69.6593C52.2688 69.5578 52.2799 69.4432 52.2912 69.332C52.2984 69.261 52.3056 69.1925 52.3121 69.1307C52.3159 69.0945 52.3195 69.0606 52.3227 69.0298C52.3299 68.9599 52.336 68.9001 52.3373 68.8715C52.3395 68.872 52.3419 68.8725 52.3446 68.873C52.3754 68.8795 52.4198 68.888 52.4841 68.8965C52.6122 68.9134 52.8174 68.9297 53.1504 68.9297H55.1438C55.1598 68.9297 55.1734 68.9302 55.1847 68.931C55.1816 68.9368 55.1788 68.9409 55.1772 68.9429L55.175 68.9456L55.1731 68.9485C54.9081 69.3377 54.5327 70.1724 54.2135 71.0055C53.8946 71.8377 53.6236 72.6899 53.5751 73.1152L53.5748 73.1172C53.5676 73.1947 53.5702 73.25 53.5725 73.2995C53.5733 73.3185 53.5742 73.3366 53.5744 73.3548C53.5736 73.356 53.5726 73.3575 53.5712 73.3593C53.563 73.3702 53.5484 73.3853 53.5259 73.4038C53.4812 73.4405 53.4157 73.4817 53.339 73.5206C53.1851 73.5985 53.0073 73.6566 52.8876 73.6583Z" clip-rule="evenodd"/><path fill="#110F0D" d="M30.9943 58.7827C30.9943 58.9169 31.0178 58.967 31.0995 59.0008C31.3433 59.0907 31.6956 59.1269 31.9898 59.1269C32.4562 59.1269 32.6072 59.0744 32.8186 58.9168C33.1686 58.6508 33.5098 58.0871 33.5098 57.087C33.5098 55.3529 32.4114 54.8534 31.718 54.8534C31.4272 54.8534 31.2158 54.865 31.0995 54.9012C31.0178 54.9257 30.9943 54.9736 30.9943 55.0716V58.7827ZM29.6141 57.8187C29.6141 55.9632 29.6141 55.6213 29.5895 55.2315C29.566 54.8172 29.4732 54.6211 29.0862 54.5336C28.9911 54.5091 28.7932 54.4974 28.6299 54.4974C28.5013 54.4974 28.4308 54.4729 28.4308 54.3877C28.4308 54.3037 28.5124 54.2769 28.688 54.2769C29.3077 54.2769 30.0459 54.3177 30.2919 54.3177C30.689 54.3177 31.5782 54.2769 31.9417 54.2769C32.6788 54.2769 33.4617 54.3516 34.0936 54.8032C34.4213 55.0354 34.8877 55.6598 34.8877 56.4755C34.8877 57.3787 34.5254 58.2085 33.3465 59.2086C34.3855 60.5763 35.1942 61.6639 35.8832 62.4201C36.5397 63.1296 37.0207 63.2159 37.194 63.2498C37.3227 63.2755 37.4289 63.2883 37.5206 63.2883C37.6168 63.2883 37.6616 63.3257 37.6616 63.384C37.6616 63.4821 37.5821 63.5077 37.4412 63.5077H36.3306C35.674 63.5077 35.3821 63.4482 35.0756 63.2755C34.5734 62.9942 34.1294 62.4201 33.4751 61.4819C33.0053 60.8085 32.4674 59.9788 32.3152 59.7967C32.2571 59.722 32.1855 59.7104 32.105 59.7104L31.0872 59.687C31.029 59.687 30.9943 59.7104 30.9943 59.7827V59.9543C30.9943 61.0897 30.9943 62.056 31.0514 62.5659C31.0872 62.9219 31.1576 63.1903 31.5077 63.2382C31.6844 63.2638 31.9417 63.2883 32.0815 63.2883C32.1754 63.2883 32.2224 63.3257 32.2224 63.384C32.2224 63.4716 32.1385 63.5077 31.9898 63.5077C31.3075 63.5077 30.4429 63.4715 30.2684 63.4715C30.0459 63.4715 29.3077 63.5077 28.8413 63.5077C28.688 63.5077 28.6064 63.4716 28.6064 63.384C28.6064 63.3257 28.6534 63.2883 28.7932 63.2883C28.9699 63.2883 29.1097 63.2638 29.216 63.2382C29.4486 63.1903 29.509 62.9219 29.5549 62.5659C29.6141 62.056 29.6141 61.0898 29.6141 59.9683V57.8187Z"/><path fill="#110F0D" d="M45.2468 59.1169C45.2468 56.4757 43.7305 54.8398 41.8064 54.8398C40.4507 54.8398 38.9131 55.5919 38.9131 58.5258C38.9131 60.9746 40.2643 62.9189 42.5186 62.9189C43.3441 62.9189 45.2468 62.5204 45.2468 59.1169ZM37.2923 58.8907C37.2923 56.8788 38.621 54.2769 42.1445 54.2769C45.0705 54.2769 46.8923 55.9859 46.8923 58.6789C46.8923 61.3776 45.0132 63.5077 42.0277 63.5077C38.6547 63.5077 37.2923 60.9746 37.2923 58.8907Z"/><path fill="#110F0D" d="M48.7183 54.5867C48.7521 54.3832 48.8231 54.2769 48.9178 54.2769C49.0125 54.2769 49.0824 54.3318 49.2369 54.645L52.4558 61.2943L55.6646 54.5604C55.7593 54.3707 55.8157 54.2769 55.924 54.2769C56.0288 54.2769 56.0998 54.3923 56.1348 54.645L57.2081 61.9643C57.3164 62.7166 57.4325 63.063 57.7865 63.1727C58.1282 63.2802 58.3649 63.2928 58.5183 63.2928C58.6243 63.2928 58.7077 63.3042 58.7077 63.3739C58.7077 63.4711 58.5645 63.5077 58.401 63.5077C58.1045 63.5077 56.4775 63.4826 56.0063 63.4471C55.7357 63.4243 55.6646 63.3865 55.6646 63.3157C55.6646 63.2551 55.7097 63.2196 55.7932 63.1842C55.8653 63.159 55.8992 63.0047 55.8518 62.6674L55.1449 57.4689H55.0975L52.5269 62.8023C52.2563 63.3625 52.1965 63.4711 52.0905 63.4711C51.9834 63.4711 51.8662 63.231 51.6779 62.8732C51.3938 62.3244 50.4647 60.4952 50.3204 60.1579C50.2144 59.9075 49.5064 58.4968 49.0948 57.5993H49.0475L48.4341 62.2616C48.4116 62.4776 48.3992 62.6343 48.3992 62.8241C48.3992 63.0516 48.5537 63.159 48.7521 63.2082C48.9663 63.2551 49.1298 63.2688 49.2482 63.2688C49.3429 63.2688 49.4263 63.2928 49.4263 63.3511C49.4263 63.4586 49.3181 63.4826 49.1422 63.4826C48.6472 63.4826 48.1151 63.4471 47.9042 63.4471C47.6787 63.4471 47.1139 63.4826 46.735 63.4826C46.6178 63.4826 46.5231 63.4586 46.5231 63.3511C46.5231 63.2928 46.593 63.2688 46.7125 63.2688C46.8072 63.2688 46.8895 63.2687 47.0665 63.231C47.3957 63.159 47.4904 62.6925 47.5502 62.2878L48.7183 54.5867Z"/><path fill="#110F0D" d="M63.8449 59.8496C63.9018 59.8496 63.914 59.8163 63.9018 59.7785L62.8513 56.8288C62.8413 56.7795 62.829 56.7211 62.7945 56.7211C62.7577 56.7211 62.7365 56.7795 62.7253 56.8288L61.6526 59.767C61.6392 59.8163 61.6526 59.8496 61.6961 59.8496H63.8449ZM61.4664 60.4514C61.405 60.4514 61.3838 60.4721 61.3593 60.5454L60.7293 62.1894C60.6144 62.4874 60.5553 62.7763 60.5553 62.9219C60.5553 63.1363 60.659 63.2933 61.0203 63.2933H61.1954C61.3348 63.2933 61.3693 63.3174 61.3693 63.3873C61.3693 63.4836 61.3024 63.5077 61.1742 63.5077C60.8006 63.5077 60.3 63.4721 59.9364 63.4721C59.8082 63.4721 59.167 63.5077 58.5604 63.5077C58.4076 63.5077 58.3385 63.4836 58.3385 63.3873C58.3385 63.3174 58.3853 63.2933 58.479 63.2933C58.5838 63.2933 58.7477 63.2796 58.8414 63.2681C59.3755 63.197 59.5963 62.7878 59.8327 62.1894L62.7577 54.7538C62.8982 54.4065 62.9684 54.2769 63.0855 54.2769C63.1903 54.2769 63.2628 54.3836 63.3777 54.6576C63.6576 55.3179 65.5243 60.1155 66.2703 61.9383C66.713 63.0159 67.0531 63.1833 67.2973 63.244C67.4735 63.2796 67.6463 63.2933 67.7879 63.2933C67.8794 63.2933 67.9385 63.3048 67.9385 63.3873C67.9385 63.4836 67.8337 63.5077 67.4032 63.5077C66.9828 63.5077 66.1309 63.5077 65.1986 63.4836C64.9868 63.4722 64.8474 63.4722 64.8474 63.3873C64.8474 63.3174 64.8931 63.2933 65.0113 63.2796C65.0916 63.2555 65.1741 63.1478 65.1172 63.0045L64.1828 60.5351C64.1571 60.472 64.1237 60.4514 64.0657 60.4514H61.4664Z"/><path fill="#F6B817" d="M30.9943 58.6024C30.9943 58.7334 31.0178 58.7771 31.0995 58.8141C31.3433 58.8936 31.6956 58.9306 31.9898 58.9306C32.4562 58.9306 32.6072 58.8847 32.8186 58.7334C33.1686 58.4735 33.5098 57.9324 33.5098 56.9723C33.5098 55.3098 32.4114 54.8281 31.718 54.8281C31.4272 54.8281 31.2158 54.8415 31.0995 54.874C31.0178 54.8976 30.9943 54.9457 30.9943 55.0398V58.6024ZM29.6141 57.677C29.6141 55.8957 29.6141 55.5675 29.5895 55.1933C29.566 54.7933 29.4732 54.6074 29.0862 54.5234C28.9911 54.5021 28.7932 54.4864 28.6299 54.4864C28.5013 54.4864 28.4308 54.4651 28.4308 54.3811C28.4308 54.3027 28.5124 54.2769 28.688 54.2769C29.3077 54.2769 30.0459 54.3116 30.2919 54.3116C30.689 54.3116 31.5782 54.2769 31.9417 54.2769C32.6788 54.2769 33.4617 54.3509 34.0936 54.7799C34.4213 55.0029 34.8877 55.6022 34.8877 56.3876C34.8877 57.2547 34.5254 58.0512 33.3465 59.0113C34.3855 60.3242 35.1942 61.3684 35.8832 62.0943C36.5397 62.7732 37.0207 62.8561 37.194 62.8931C37.3227 62.9155 37.4289 62.9256 37.5206 62.9256C37.6168 62.9256 37.6616 62.9614 37.6616 63.0197C37.6616 63.1138 37.5821 63.1384 37.4412 63.1384H36.3306C35.674 63.1384 35.3821 63.079 35.0756 62.9154C34.5734 62.6432 34.1294 62.0943 33.4751 61.1936C33.0053 60.5494 32.4674 59.7507 32.3152 59.5759C32.2571 59.5042 32.1855 59.493 32.105 59.493L31.0872 59.4684C31.029 59.4684 30.9943 59.493 30.9943 59.5624V59.7271C30.9943 60.8171 30.9943 61.7425 31.0514 62.2343C31.0872 62.5738 31.1576 62.8337 31.5077 62.8774C31.6844 62.902 31.9417 62.9256 32.0815 62.9256C32.1754 62.9256 32.2224 62.9614 32.2224 63.0197C32.2224 63.1037 32.1385 63.1384 31.9898 63.1384C31.3075 63.1384 30.4429 63.1037 30.2684 63.1037C30.0459 63.1037 29.3077 63.1384 28.8413 63.1384C28.688 63.1384 28.6064 63.1037 28.6064 63.0197C28.6064 62.9614 28.6534 62.9256 28.7932 62.9256C28.9699 62.9256 29.1097 62.902 29.216 62.8774C29.4486 62.8337 29.509 62.5738 29.5549 62.2343C29.6141 61.7425 29.6141 60.8171 29.6141 59.7383V57.677Z"/><path fill="#F6B817" d="M45.2468 58.7464C45.2468 56.1081 43.7305 54.4704 41.8064 54.4704C40.4507 54.4704 38.9131 55.2268 38.9131 58.1578C38.9131 60.6059 40.2643 62.5475 42.5186 62.5475C43.3441 62.5475 45.2468 62.1468 45.2468 58.7464ZM37.2923 58.5225C37.2923 56.5088 38.621 53.9077 42.1445 53.9077C45.0705 53.9077 46.8923 55.6163 46.8923 58.3109C46.8923 61.0066 45.0132 63.1384 42.0277 63.1384C38.6547 63.1384 37.2923 60.6059 37.2923 58.5225Z"/><path fill="#F6B817" d="M48.7183 54.2163C48.7521 54.0128 48.8231 53.9077 48.9178 53.9077C49.0125 53.9077 49.0824 53.9682 49.2369 54.2769L52.4558 60.9253L55.6646 54.1957C55.7593 54.0036 55.8157 53.9077 55.924 53.9077C56.0288 53.9077 56.1021 54.0265 56.1348 54.2769L57.2104 61.5952C57.3164 62.3474 57.4325 62.6961 57.7865 62.8058C58.1282 62.9121 58.3649 62.9235 58.5183 62.9235C58.6243 62.9235 58.7077 62.935 58.7077 63.0059C58.7077 63.1042 58.5645 63.1384 58.401 63.1384C58.1045 63.1384 56.4775 63.1156 56.0063 63.0802C55.7357 63.055 55.6646 63.0196 55.6646 62.9487C55.6646 62.8881 55.7097 62.8504 55.7932 62.8161C55.8653 62.7921 55.8992 62.6355 55.8518 62.3005L55.1449 57.0981H55.0975L52.5269 62.4343C52.2563 62.9956 52.1965 63.1042 52.0905 63.1042C51.9834 63.1042 51.8662 62.8652 51.6779 62.504C51.3938 61.9564 50.4647 60.1263 50.3204 59.7913C50.2144 59.5387 49.5064 58.1281 49.0948 57.233H49.0475L48.4341 61.8948C48.4116 62.1108 48.3992 62.2674 48.3992 62.4572C48.3992 62.6824 48.5537 62.7921 48.7521 62.8413C48.9663 62.8881 49.1298 62.8995 49.2482 62.8995C49.3429 62.8995 49.4263 62.9236 49.4263 62.9842C49.4263 63.0916 49.3181 63.1156 49.1422 63.1156C48.6472 63.1156 48.1151 63.0802 47.9042 63.0802C47.6787 63.0802 47.1139 63.1156 46.735 63.1156C46.6178 63.1156 46.5231 63.0916 46.5231 62.9842C46.5231 62.9236 46.593 62.8995 46.7125 62.8995C46.8072 62.8995 46.8895 62.8996 47.0665 62.8653C47.3957 62.7921 47.4904 62.3257 47.5502 61.9188L48.7183 54.2163Z"/><path fill="#F6B817" d="M63.8449 59.4812C63.9018 59.4812 63.914 59.4457 63.9018 59.4102L62.8513 56.4589C62.8413 56.4119 62.829 56.3523 62.7945 56.3523C62.7577 56.3523 62.7365 56.4119 62.7253 56.4589L61.6526 59.3987C61.6392 59.4457 61.6526 59.4812 61.6961 59.4812H63.8449ZM61.4664 60.0806C61.405 60.0806 61.3838 60.1058 61.3593 60.1746L60.7293 61.8204C60.6144 62.1207 60.5553 62.4072 60.5553 62.5505C60.5553 62.7648 60.659 62.9218 61.0203 62.9218H61.1954C61.3348 62.9218 61.3693 62.9459 61.3693 63.0181C61.3693 63.1144 61.3024 63.1384 61.1742 63.1384C60.8006 63.1384 60.3 63.1029 59.9364 63.1029C59.8082 63.1029 59.167 63.1384 58.5604 63.1384C58.4076 63.1384 58.3385 63.1144 58.3385 63.0181C58.3385 62.9459 58.3853 62.9218 58.479 62.9218C58.5838 62.9218 58.7477 62.9104 58.8414 62.8966C59.3755 62.8278 59.5963 62.4186 59.8327 61.8204L62.7577 54.3868C62.8982 54.0395 62.9684 53.9077 63.0855 53.9077C63.1903 53.9077 63.2628 54.0131 63.3777 54.2882C63.6576 54.9507 65.5243 59.7448 66.2703 61.5671C66.713 62.6467 67.0531 62.8141 67.2973 62.8725C67.4735 62.9104 67.6463 62.9218 67.7879 62.9218C67.8794 62.9218 67.9385 62.9356 67.9385 63.0181C67.9385 63.1144 67.8337 63.1384 67.4032 63.1384C66.9828 63.1384 66.1309 63.1384 65.1986 63.1144C64.9868 63.1029 64.8474 63.1029 64.8474 63.0181C64.8474 62.9459 64.8931 62.9218 65.0113 62.9103C65.0916 62.8885 65.1741 62.7786 65.1172 62.633L64.1828 60.1642C64.1571 60.1058 64.1237 60.0806 64.0657 60.0806H61.4664Z"/><path stroke="#17191D" stroke-linecap="round" stroke-miterlimit="10" stroke-width="1.022" d="M21.4154 48L74.9539 48"/><path fill="#17191D" d="M27.4133 33.6087C27.1825 33.7527 27.0958 33.3481 27.0958 33.3481C27.0328 33.186 27.026 33.0182 27.1183 32.9513C27.2928 33.0601 27.5011 33.0579 27.563 33.1599C27.6283 33.2721 27.5338 33.5339 27.4133 33.6087ZM69.952 43.3869C69.8068 43.201 69.6424 43.0015 69.4724 42.7952C68.7159 41.8703 67.0306 39.5921 67.0306 39.5921C67.0306 32.1919 65.7145 30.8126 64.3613 29.6508C63.1668 28.6273 61.2619 28.1036 59.2186 27.7863C58.6635 27.6979 58.0533 27.6605 57.3508 27.6605C56.6708 27.6605 55.9819 27.6956 55.3188 27.733C54.7705 27.7647 45.1842 28.1694 42.1096 27.6469C40.7688 27.419 38.9101 27.682 37.8045 27.8157C37.2979 27.8747 34.5307 28.3202 34.2053 27.7931C34.1423 27.6934 34.1468 27.4746 34.1738 27.2264C34.2109 26.8388 34.3686 26.3672 34.068 25.9444C33.6537 25.363 33.2011 24.7385 32.9523 24.7385C32.8735 24.7385 32.189 25.303 32.0224 25.473C31.7432 25.7563 31.6553 26.221 31.6677 26.7617C31.6745 27.0937 31.6531 27.0291 31.6283 27.0541C31.5867 27.096 29.8248 27.0961 29.3778 27.1289C29.3767 27.0382 29.3621 26.578 29.0626 26.1394C28.869 25.8583 28.708 24.9198 28.708 24.9198C28.708 24.9198 28.0696 26.0329 27.8546 26.3321C27.6148 26.6597 27.3671 27.0008 27.2219 27.393C27.1667 27.5426 27.1555 27.7228 27.1431 27.8974C27.1375 28.0232 27.1183 28.2872 27.0677 28.3292C26.7288 28.5774 26.5408 28.9197 26.507 29.3493C26.5003 29.474 26.5352 29.6417 26.5712 29.8367C26.596 29.9602 26.6365 30.1551 26.6365 30.2481C26.6027 30.273 26.5701 30.2946 26.5352 30.3173C26.2334 30.5099 25.8214 30.7819 25.8473 31.2602C25.8867 31.9834 26.0522 32.2645 26.2796 32.6566C26.3438 32.7677 26.4091 32.8776 26.4811 33.0137C26.5824 33.2075 26.6252 33.4852 26.6691 33.7527C26.7288 34.129 26.3798 34.5404 26.6185 34.7773C26.9314 35.0856 27.7398 35.1026 28.0899 35.1026C28.1845 35.1026 28.5526 35.0924 28.6404 35.0924C28.7766 35.0924 28.8825 35.1003 28.9725 35.1184C29.6469 35.251 30.3246 35.3043 30.9765 35.3599C31.876 35.4301 32.7249 35.4993 33.5794 35.752C35.1555 36.219 36.7102 36.8719 38.3292 37.7412C38.417 37.7888 38.5003 37.8308 38.578 37.8727C39.178 38.1844 39.3064 38.1425 39.5878 38.9721C39.8693 39.8052 39.3503 46.2998 39.2366 46.9708C39.0553 48.0555 38.7119 48.7106 38.1524 48.9169C37.4037 49.1889 37.0964 49.7783 36.8003 50.3507C36.7057 50.5354 36.7192 50.7587 36.6044 50.9446C36.6044 50.9446 36.3601 51.2143 36.4423 51.2835C36.5233 51.3538 37.2833 51.1702 37.2833 51.1702C37.5422 51.186 37.263 51.3231 37.5219 51.3231C38.1625 51.3231 38.936 51.3186 39.7229 50.863C40.0528 50.863 39.8321 51.2858 40.1372 51.2302C41.0773 51.0579 41.1651 50.3292 41.2788 49.6321C41.4713 48.4613 41.4431 48.2572 41.5726 48.1484C41.7021 48.0396 42.1198 48.2175 42.2312 48.0906C42.3168 47.9954 42.2233 47.1408 42.2717 46.3689C42.3404 45.2684 42.6399 43.9774 42.9664 42.9154L42.9832 42.8598C43.0542 42.6252 43.1611 42.3395 43.2748 42.0403C43.5822 41.2288 43.9559 40.2439 43.912 39.4527C44.2475 39.5105 44.3027 39.5309 44.4941 39.7984C44.5222 39.8403 44.574 39.9243 44.6303 40.0127C45.0007 40.6236 45.191 40.7947 45.4341 40.7947C45.4589 40.7947 45.4859 40.7924 45.5073 40.7856C45.907 40.6813 46.122 40.3402 46.3483 39.8913C46.5735 39.4527 46.8042 38.9971 47.1803 38.9132C47.1949 38.9109 47.2107 38.9064 47.2321 38.9064C47.5372 38.9064 48.073 39.1807 48.3781 39.6567C49.0525 40.7086 49.6278 39.973 49.6818 39.8868C49.7595 39.7655 50.2999 38.8667 50.4339 38.6582C50.596 38.4077 50.6973 38.3839 50.7344 38.3839H50.7435C51.0733 38.4349 52.5042 40.1657 53.0153 40.0489C53.5096 39.9934 54.059 38.096 54.3618 38.096C54.3764 38.096 54.3922 38.0982 54.4091 38.1028C54.48 38.1628 54.6511 38.4213 54.766 38.5936C55.1465 39.1762 55.2298 39.5638 55.5304 39.5638C55.6272 39.5638 55.7938 39.4799 55.894 39.2271C55.9222 39.158 56.037 38.8735 56.0539 38.8418C56.0719 38.8645 56.3252 39.727 56.9455 38.962C56.9399 38.9529 56.9354 38.9393 56.9309 38.9279C56.9287 38.9347 56.9264 38.9392 56.9242 38.9438C56.9264 38.9392 56.9287 38.9347 56.9309 38.9279C56.9287 38.9234 56.9264 38.9211 56.9242 38.9155C56.9264 38.9211 56.9287 38.9234 56.9309 38.9279C57.0142 38.733 58.1614 39.8709 58.7097 40.3186C59.2073 40.7788 59.6272 41.1846 59.6621 41.2152C60.8431 42.2738 62.31 43.5932 62.596 45.0224C62.7592 45.8487 62.721 46.8007 62.4902 47.7064C62.4395 47.8956 62.3911 48.0067 62.3449 48.0362C62.2988 48.0713 62.1693 48.0759 62.0083 48.0781C61.934 48.0804 61.8541 48.0838 61.7618 48.0929C61.3565 48.1155 61.0829 48.5497 60.8363 48.9328C60.726 49.1096 60.5819 49.2558 60.5065 49.3861C60.4311 49.5164 60.5515 49.7341 60.6247 49.7783C60.699 49.8247 61.4274 49.997 61.6447 49.997C61.7088 49.997 61.7708 49.9925 61.8192 49.9766C61.9745 50.0344 62.1625 50.0673 62.3764 50.0673C63.0148 50.0673 63.8051 49.7998 64.0314 49.3578C64.413 48.6041 64.6731 47.7857 64.9253 46.9912C64.9523 46.9028 64.9816 46.811 65.0108 46.7226C65.0649 46.548 65.1437 46.353 65.2202 46.149C65.4961 45.4213 65.9655 44.6438 65.7573 43.9275C65.6481 43.5501 65.2687 43.1828 65.0266 42.8598C64.8138 42.5719 64.0089 41.5145 63.7646 41.1461C64.5166 41.8794 66.6039 42.9641 67.1341 44.2347C67.321 44.6801 67.1274 46.5457 67.0947 47.0456C67.079 47.2813 67.0666 47.5239 67.0598 47.7653C67.0373 48.5292 66.8155 48.6664 66.0533 48.7446C65.3936 48.8126 65.0897 49.7953 64.9275 50.3246C64.9185 50.3552 64.9107 50.3824 64.9016 50.4085L64.824 50.6544L65.0806 50.6986C65.1786 50.7145 65.2878 50.736 65.406 50.7587C65.8822 50.8471 66.6849 51.1464 67.2445 51.1464C67.9121 51.1464 68.3793 50.9865 68.6776 50.6589C69.0604 50.2407 69.2067 49.4859 69.3385 48.8217C69.3869 48.5734 69.6616 47.6837 69.7618 47.363C70.3888 45.3307 71.0103 44.5532 69.952 43.3869Z"/><path fill="#C6C1C0" d="M66.8215 49.1077C66.7537 49.2596 66.5148 49.2905 66.4314 49.3251C66.2582 49.4116 66.0975 49.5351 66.1048 49.6772C66.1048 49.7328 66.0767 50.4086 66.1048 50.4667C66.1393 50.5433 66.3719 50.6397 66.423 50.5458C66.4595 50.4852 66.4209 50.0083 66.4658 49.6821C66.4741 49.6364 66.5002 49.4424 66.5806 49.3992C66.6087 49.3906 66.8841 49.2423 66.8215 49.1077Z"/><path fill="#C6C1C0" d="M45.5324 38.4424C45.6868 38.4192 45.9041 38.361 45.9778 38.4401C46.0531 38.5238 46.159 38.8147 46.1537 38.9927C46.1468 39.1695 45.7636 40.1035 45.7382 40.1466C45.7136 40.1896 45.6752 40.3233 45.6061 40.1849C45.537 40.0418 45.4164 38.6088 45.4164 38.6088C45.4164 38.6088 45.3965 38.4657 45.5324 38.4424Z"/><path fill="#C6C1C0" d="M69.9139 43.8694C69.6036 43.4263 68.8243 42.6422 68.5139 42.2653C68.0986 41.7661 66.2 39.5752 66.2 39.5752C66.2 39.5752 65.6535 36.2625 65.4207 35.5109C65.2735 35.0286 64.8605 31.5386 62.113 29.6428C62.2613 29.3982 64.0413 30.7713 64.6848 31.8404C65.8531 33.78 66.3506 38.8437 66.3506 38.8437C66.3506 38.8437 67.0923 31.109 62.9288 29.4723C59.9428 28.245 58.4516 28.4424 58.4516 28.4424C58.4516 28.4424 56.383 29.663 57.6312 31.9829C57.8708 32.4349 60.5909 36.5362 60.7655 36.8582C62.3127 39.7109 67.2326 43.0325 68.1283 43.9356C68.175 43.9861 69.0228 44.5291 69.0798 45.1337C69.0913 45.2459 67.9297 44.4786 67.9457 44.621C68.1032 46.0513 67.932 48.7975 67.9092 49.1105C67.8829 49.474 67.8624 49.5267 67.6376 49.6074C67.414 49.6848 67.1812 49.4762 67.0455 49.8509C66.8926 50.267 66.9485 50.5744 67.3387 50.5744C67.7289 50.5744 68.3211 50.7775 68.6976 49.3685C69.0741 47.9449 69.8945 45.4142 70.1421 44.4831C70.2014 44.2621 70.0223 44.0209 69.9139 43.8694Z"/><path fill="#C6C1C0" d="M28.5763 26.2154C28.5763 26.2154 28.8047 27.1271 28.7999 27.382C28.7967 27.6413 28.7378 27.6607 28.7378 27.6607L28.0615 28.0615C28.0615 28.0615 28.2087 27.8293 28.2859 27.5387C28.3647 27.2448 28.5811 26.4919 28.5763 26.2154Z"/><path fill="#C6C1C0" d="M40.1012 50.1921C40.0624 50.219 40.0128 50.2234 39.9977 50.201L39.8812 50.0351C39.8682 50.0127 39.8855 49.9679 39.9265 49.9343L40.0192 49.8715C40.0581 49.8424 40.1098 49.8379 40.1228 49.8603L40.2393 50.0262C40.2587 50.0486 40.235 50.0912 40.1961 50.1271L40.1012 50.1921Z"/><path fill="#C6C1C0" d="M62.3122 48.7466C62.3122 48.7466 62.206 48.7089 62.1479 48.7958C62.0678 48.9205 62.0308 49.3918 62.0308 49.3918C62.0308 49.3918 62.1299 49.5348 62.3122 49.4501C62.4934 49.3723 62.8639 49.0555 62.7468 48.9525C62.6276 48.8496 62.3122 48.7466 62.3122 48.7466Z"/><path fill="#C6C1C0" d="M61.9535 48.3693C61.9535 48.3693 61.7143 48.3672 61.6064 48.4533C61.4898 48.5479 61.2798 48.8021 61.2929 48.9071C61.3089 49.009 61.5175 49.1792 61.6225 49.0752C61.7289 48.9702 62.2175 48.3588 61.9535 48.3693Z"/><path fill="#C6C1C0" d="M26.6379 31.1031C26.3828 31.5371 27.1162 31.9162 27.3009 31.6827C27.4404 31.0915 26.8863 30.8781 26.6379 31.1031Z"/><path fill="#C6C1C0" d="M31.5955 31.8197C31.2816 31.4409 31.051 30.8086 31.2569 30.6904C31.4627 30.5756 31.6607 30.7351 31.7867 30.8085C31.9735 30.9141 32.068 30.8441 32.0545 30.5893C32.0455 30.3919 32.0241 30.206 32.0027 30.027C31.9397 29.4864 31.6607 28.892 31.4425 28.6544C31.0825 28.2596 30.0476 27.7982 29.4007 28.2446C29.214 28.3743 29.0733 28.5855 28.953 28.8357C28.9091 28.9263 29.0362 29.0515 28.9957 29.1547C28.7584 29.7435 28.3973 30.4252 27.9754 30.8648C27.9574 30.8877 29.4097 31.0105 31.4627 32.5484C31.645 32.6804 31.2985 33.4287 31.1793 33.3931C31.1163 33.3839 31.3874 32.763 31.1838 32.6471C30.2433 32.1088 29.6853 32.0365 28.9777 31.7795C28.8079 31.7186 28.314 32.0366 28.188 31.9161C28.0114 31.6808 27.4725 31.4134 27.4174 31.387C27.4377 31.3985 27.5052 31.4501 27.5288 31.6808C27.5963 32.2741 26.513 31.6808 27.432 32.631C27.6908 32.8939 27.9383 33.097 28.1295 33.0121C28.4243 33.0075 28.2904 33.05 28.3208 33.12L28.4771 33.4987C28.5052 33.5698 28.5401 33.5652 28.5536 33.4895L28.6256 33.0901C28.638 33.0144 28.7122 32.9536 28.7887 32.9559C28.7887 32.9559 30.178 32.988 30.4593 33.0167C30.7416 33.0476 30.7585 33.1509 30.7585 33.1509C30.772 33.2278 30.8811 33.3908 30.646 33.5836C30.475 33.7225 30.0644 33.431 29.7359 33.703C29.4063 33.9738 28.7471 34.0966 28.7471 34.0966C28.6695 34.1104 28.5862 34.0679 28.5559 33.9945L28.3883 33.6112C28.359 33.5389 28.3298 33.5411 28.323 33.6215L28.2814 34.1219C28.2746 34.1976 28.2521 34.2608 28.233 34.2653C28.2116 34.2653 28.17 34.2091 28.1374 34.1391L28.125 34.115C28.0924 34.0427 28.0238 34.037 27.9754 34.092L27.891 34.1931C27.8415 34.2539 27.7684 34.2447 27.7302 34.1781L27.6964 34.1264C27.6582 34.0564 27.5952 34.0564 27.5547 34.1264L27.5029 34.2091C27.4635 34.2768 27.4095 34.2699 27.387 34.1976L27.3679 34.1437C27.3454 34.0702 27.2993 34.068 27.2701 34.1357C27.2476 34.1873 27.2149 34.1976 27.1913 34.1666C27.1441 34.216 27.1103 34.2493 27.0946 34.2653C27.0529 34.3055 26.9584 34.3927 26.9539 34.4742C26.9506 34.5546 27.0496 34.5993 27.5288 34.7003C28.0091 34.799 30.2377 33.8705 30.9408 34.0232C31.7541 34.1953 32.068 33.5148 32.1231 32.631C32.1231 32.6081 32.1163 32.5599 32.1062 32.4899C31.9633 32.2546 31.7575 32.0148 31.5955 31.8197Z"/><path fill="#17191D" d="M29.5385 29.1395C29.5385 29.1395 29.8219 28.5665 30.1706 28.4525C30.4289 28.3676 30.6964 28.5387 31.0953 28.8491C31.4965 29.1581 31.7057 29.6422 32.0977 29.5149C32.2337 29.4711 31.796 30.0414 31.4119 29.8783C31.3193 29.8385 30.7432 28.727 30.1831 28.7429C30.1831 28.7429 29.8219 28.8238 29.5385 29.1395Z"/><path fill="#17191D" d="M30.7098 29.7053C30.6294 29.7053 30.5631 29.6 30.5631 29.4697C30.5631 29.345 30.6294 29.2369 30.7098 29.2369C30.7913 29.2369 30.8968 29.3449 30.8968 29.478C30.8968 29.6028 30.7913 29.7053 30.7098 29.7053ZM30.6142 28.4703C30.1675 28.3081 29.9077 28.6976 29.9077 28.6976C30.024 28.3164 30.5566 28.5576 30.7881 28.6796C30.9163 28.7503 31.0946 29.1232 31.2217 29.4323C31.0783 29.2507 30.8815 29.0552 30.712 29.0344C30.374 28.9956 30.3425 29.5668 30.3425 29.5668L30.1718 29.8384C30.1718 29.8384 30.1936 29.9077 30.4533 29.9077C30.7131 29.9077 31.6206 29.8953 31.7413 29.7539C31.8608 29.6167 31.1033 28.6519 30.6142 28.4703Z"/><path fill="#C6C1C0" d="M37.6374 49.5637C37.6374 49.5637 37.3016 50.3562 37.2941 50.4384C37.2867 50.5192 37.3016 50.5728 37.3408 50.5728C37.38 50.5728 37.4997 50.6138 37.5855 50.5429C37.6702 50.4708 37.9891 49.6882 38.0304 49.5787C38.041 49.5488 37.7794 49.3746 37.6374 49.5637Z"/><path fill="#C6C1C0" d="M65.3234 44.4358C65.4866 43.7879 64.9501 43.7178 64.7624 44.5564C64.7012 44.8459 63.9566 47.8888 63.8781 48.6848C63.871 48.725 63.8975 48.7641 63.9311 48.717C63.9413 48.9927 65.252 44.7253 65.3234 44.4358Z"/><path fill="#C6C1C0" d="M38.8943 28.2305C37.459 28.4993 35.4485 28.6183 34.3552 28.4718C33.4907 28.355 33.4525 27.8327 33.6084 27.3698C32.8078 28.1467 32.3806 27.8426 32.3626 27.7467C32.3323 27.6233 32.6587 27.7467 32.8706 27.5395C33.0848 27.3357 33.2103 26.6007 33.0421 26.2458C32.8728 25.8932 33.0567 25.9572 33.0567 25.9572C33.0567 25.9572 33.503 26.0012 33.6981 26.5258C33.8237 26.0012 33.0848 25.3489 32.8448 25.4987C32.606 25.6475 32.1227 26.0376 32.1899 26.6073C32.2763 27.3114 32.2236 27.6596 31.9915 27.6519C30.4239 27.5825 28.6679 27.3764 27.6923 28.3748C27.6923 28.3748 28.8753 27.6089 29.7836 27.6927C30.6896 27.7742 32.5499 27.955 32.662 30.0983C32.662 30.0983 32.6418 30.5809 32.6833 31.1407C32.7035 31.4371 32.4164 31.2476 32.4198 31.3787C32.431 31.9727 32.8605 31.8823 32.8257 32.3947C32.6766 34.5017 31.6876 34.4587 31.6876 34.4587C31.6876 34.4587 32.8818 34.6229 33.4739 32.6537C33.4716 33.7832 33.3505 34.0675 32.8863 34.5082C33.799 34.5644 34.5156 33.7171 34.5369 33.5892C34.6725 33.803 34.9316 34.4962 35.6133 34.7794C35.2769 34.2328 35.3588 33.5705 35.4283 32.9842C35.6335 34.3 35.9744 34.7904 36.664 35.0769C36.3859 34.8014 35.8219 34.2053 35.9912 33.1375C36.1224 34.0499 37.2079 34.862 37.2079 34.862C37.2079 34.862 36.8625 34.3132 36.7705 33.3468C37.2359 34.3298 37.736 34.4113 37.736 34.4113C37.736 34.4113 36.9645 33.6135 36.8322 32.5777C36.8165 32.5589 37.3738 33.2818 37.8279 33.2818C37.4792 32.8708 36.9264 32.2857 36.8658 31.5474C37.2135 31.9881 37.4646 32.2768 37.8661 32.322C37.5274 31.9385 37.2493 31.328 37.1439 30.5897C37.5308 31.0669 37.4646 31.2244 38.1924 31.4206C37.9109 31.1506 37.7169 30.4068 37.8571 30.0486C37.9827 30.2988 38.466 30.5544 39.0423 30.6283C38.8562 30.5115 38.5568 29.8062 38.6005 29.5263C38.8618 29.653 39.4258 29.8404 39.8721 29.7798C39.6602 29.6575 39.511 29.0371 39.5761 28.8916C39.6949 28.9665 40.546 28.9533 40.7266 28.8916C40.4496 28.723 40.2107 28.4696 40.2747 28.4927C40.4799 28.5643 40.8163 28.3913 41.2536 28.323C41.7189 28.2503 41.8008 28.2459 42.0923 28.2503C41.8086 28.1159 40.0179 27.9572 38.8943 28.2305Z"/><path fill="#C6C1C0" d="M53.4824 37.2979C53.4824 37.2979 52.5121 37.2373 52.4375 37.5149C52.3665 37.7925 52.8801 39.2619 52.957 39.4382C53.0789 39.7158 53.4067 39.0724 53.4067 39.0724C53.5096 38.8962 53.9072 38.0337 53.9072 37.9159C53.9096 37.7694 53.9202 37.2957 53.4824 37.2979Z"/><path fill="#C6C1C0" d="M49.7121 37.2974C49.7121 37.2974 48.817 37.237 48.747 37.5333C48.6769 37.8321 49.061 39.2168 49.1212 39.4088C49.2109 39.6981 49.4024 39.2606 49.4024 39.2606C49.4987 39.0733 50.2132 38.0893 50.2154 37.9637C50.2154 37.8095 50.1202 37.295 49.7121 37.2974Z"/><path fill="#C6C1C0" d="M56.1113 28.0725C55.8281 28.0883 53.4446 28.359 51.856 28.3635C50.5884 28.3681 49.2495 28.306 48.5349 28.3319C48.4792 28.324 48.3889 28.3319 48.3064 28.3432C47.2428 28.297 43.837 28.2417 43.837 28.2417C43.5828 28.1898 40.1291 29.0946 39.6286 32.9823C39.3198 35.3774 39.4703 36.1435 40.0054 37.2807C40.3242 37.9576 40.9641 39.2065 40.9418 40.1824C40.9329 40.5908 40.2161 38.4732 40.2272 38.7135C40.3309 41.174 39.9084 46.7156 39.6665 47.8923C39.3777 49.2947 39.099 48.585 38.7746 49.1706C38.7244 49.2631 38.0154 50.5673 38.031 50.583C38.0466 50.5943 38.3866 50.5413 38.7479 50.5063C39.167 50.4928 39.5115 49.3386 39.798 49.3386C39.8448 49.3386 39.4825 50.2683 39.5383 50.2525C39.8359 50.178 40.3209 50.0517 40.2885 50.292C40.3967 50.3258 40.4814 50.2705 40.5472 50.1893C40.6341 50.0833 41.0277 48.2917 41.2696 47.3598C41.3242 47.2075 41.7189 47.2955 41.8259 47.3373C42.041 46.8984 41.6977 45.434 42.3175 43.3999C42.9318 41.4008 43.5784 39.6668 43.2885 39.1512C43.2573 39.0925 42.2105 40.5005 42.1849 40.4452C42.1191 40.2839 45.5985 34.37 44.924 31.307C44.9106 31.1975 44.8627 31.0734 44.8627 30.9854C44.8604 30.9617 45.2651 31.1332 45.7679 31.2674C46.4201 31.4705 46.9931 31.5777 47.1893 32.3403C47.4245 33.8126 48.099 35.8987 49.4702 36.025C48.8471 35.4474 48.05 32.513 48.1492 31.307C48.5338 33.2745 49.7177 36.1243 50.6954 35.9957C50.4948 35.6787 49.6798 33.8848 49.6798 32.7567C50.0321 33.693 50.8738 35.7452 51.5081 35.7599C53.1692 35.7937 53.5906 35.0288 54.8181 34.749C57.5661 34.1206 58.2874 35.1879 58.7077 35.4078C58.3721 35.0795 57.225 33.0522 56.4624 31.4705C55.856 30.2182 56.8805 28.9671 58.6207 28.1898C58.9641 28.0352 56.6542 28.0567 56.1113 28.0725Z"/><path fill="#17191D" d="M57.5494 39.0688C57.5494 39.0688 57.457 38.9404 57.3794 38.919C57.3535 38.9119 57.3377 38.9084 57.322 38.9084C57.2871 38.9084 57.269 38.919 57.269 38.919L57.2308 38.9476L57.2432 38.8869C57.2477 38.8459 57.2826 38.7692 57.3523 38.7692C57.3794 38.7692 57.4064 38.7799 57.4357 38.7977C57.5449 38.8602 57.5786 39.0332 57.5797 39.0367L57.6 39.1384L57.5494 39.0688Z"/><path fill="#17191D" d="M58.455 49.4769C57.4338 49.4769 57.3018 47.8988 57.2784 47.6165C57.0319 47.5998 56.7655 47.4387 56.5821 47.302C56.5739 47.2953 56.5552 47.2842 56.5353 47.2742C56.5388 47.3909 56.5447 47.512 56.547 47.6254C56.5575 47.8076 56.5949 48.2789 56.6101 48.4044L56.6136 48.4178C56.6346 48.5956 56.6872 49.0124 56.2573 49.2402C56.1299 49.3035 55.9885 49.3402 55.8366 49.3402C55.7058 49.3402 55.5901 49.3147 55.5118 49.2991C55.4943 49.2969 55.4779 49.2924 55.4639 49.2902L55.3891 49.2835C55.2793 49.2691 55.1286 49.2513 55.0141 49.2447H54.9837C54.7687 49.2447 54.1624 49.2813 54.0654 49.2902C54.042 49.2924 54.0222 49.2947 54 49.2947C53.6576 49.2947 53.3784 49.0346 53.3749 49.0302C53.2019 48.869 53.1868 48.6134 53.3398 48.4089L53.3784 48.3544L53.4356 48.3133C53.4695 48.2922 53.577 48.2222 53.7301 48.2011C53.8562 48.1244 54.0537 48.0144 54.354 47.8555C54.0911 47.3676 52.9297 45.676 53.9427 45.1426C54.3154 44.9492 54.8926 44.7536 55.4347 44.6325C55.4394 44.5992 55.4487 44.5669 55.4581 44.5369C55.4686 44.498 55.4803 44.3669 55.4651 44.2613C55.3074 44.3436 55.1473 44.3869 55.0141 44.3869C54.9697 44.3869 54.9288 44.3825 54.8867 44.3736C54.5421 44.3047 54.0981 43.8201 54.0455 43.7556C53.9672 43.6556 53.6751 43.1477 53.4041 42.6654C52.6668 42.6331 52.5991 42.6131 52.5477 42.5987C52.4729 42.5742 52.3888 42.5487 51.9086 42.1686C51.7508 42.0386 51.6714 41.8663 51.6971 41.6952C51.7169 41.554 51.8104 41.4307 51.9459 41.3651C51.9565 41.3606 51.9646 41.3562 51.9775 41.3506C52.0394 41.2717 52.1422 41.1917 52.3152 41.1573L52.3631 41.1462H52.4215C52.5383 41.1462 52.64 41.185 52.7229 41.2351C52.7299 41.1806 52.7451 41.1261 52.7732 41.0761C52.8631 40.9116 53.0442 40.8116 53.2592 40.8116C53.3784 40.8116 53.5069 40.8416 53.6518 40.9027L53.6728 40.9139L53.6962 40.9272C53.7441 40.955 53.7511 40.955 53.7511 40.955C53.8411 40.9728 54.0549 41.035 54.125 41.0617C54.2488 41.1117 54.3364 41.1762 54.569 41.5562L54.9358 41.9075C55.1029 41.5363 55.305 41.3696 55.3786 41.3084C55.4838 41.2218 55.6123 41.1851 55.7478 41.1462C55.7735 41.1373 55.8121 41.1262 55.8401 41.1184C55.8927 41.0728 55.9581 41.0306 56.0259 40.9939C56.0294 40.975 56.0364 40.955 56.0434 40.9394C55.9885 40.8661 55.9231 40.7705 55.8693 40.6905C55.7186 40.4516 55.7385 40.237 55.7502 40.1037L55.7525 40.0603C55.7735 39.6914 56.2619 39.3768 56.2666 39.3746C56.3215 39.3402 56.3823 39.3124 56.4348 39.2924C56.5318 39.1835 56.7036 39.0012 56.8239 38.899C56.9221 38.8101 57.0552 38.7501 57.1803 38.7067C57.2854 38.5 57.5074 38.4 57.8462 38.4C57.9549 38.4 58.3077 38.4244 58.4246 38.4411C58.6746 38.48 58.8452 38.63 58.9317 38.8123C59.149 38.8823 59.288 39.0691 59.3149 39.3202L59.3908 39.3991C59.4457 39.4513 59.5661 39.588 59.607 39.7936C59.7402 40.037 59.718 40.3282 59.7016 40.4582C59.6958 40.8528 59.5871 41.085 59.4726 41.2173C59.4586 41.2651 59.4457 41.3029 59.4294 41.3351C59.8278 41.5696 59.9505 42.0941 59.9867 42.3008C60.0218 42.422 60.1771 42.9366 60.2566 43.2711C60.3688 43.749 60.1947 44.2002 60.1771 44.2502L60.1538 44.3024L60.1199 44.348C60.0883 44.3891 59.9166 44.6014 59.8453 44.6847C59.711 44.8359 59.5661 44.9037 59.4411 44.9293C59.4843 45.0904 59.5275 45.2638 59.5567 45.4249C59.8757 45.8039 60.0486 46.3273 60.0486 46.514C60.0486 46.6352 60.0089 46.7663 59.9692 46.8608H59.9715C60.0054 46.9541 60.0101 47.072 60.0054 47.3254C60.1421 47.4687 60.2589 47.671 60.3816 47.8988C60.3956 47.9266 60.405 47.9466 60.412 47.9555C61.0172 49.2124 59.496 49.3102 59.4025 49.2791C59.2062 49.4547 58.5613 49.4769 58.455 49.4769Z"/><path fill="#C6C1C0" d="M58.436 38.8084C58.3488 38.7927 58.0307 38.7692 57.9413 38.7692C57.5044 38.7692 57.7319 38.9876 57.7319 38.9876C57.7319 38.9876 57.3832 39.0335 57.2395 39.1645C57.0935 39.2967 56.8286 39.6025 56.8286 39.6025C56.8286 39.6025 56.712 39.6439 56.6407 39.6898C56.5694 39.7335 56.3679 39.887 56.3384 40.055C56.3158 40.167 56.3011 40.3047 56.3916 40.4537C56.4799 40.6027 56.6316 40.8009 56.6316 40.8009C56.6316 40.8009 56.669 40.8715 56.6316 40.9544C56.5954 41.0395 56.5343 41.2523 56.5343 41.2523C56.5343 41.2523 56.3237 41.3542 56.2615 41.4248C56.1992 41.4965 55.9049 41.539 55.8302 41.5995C55.7589 41.6611 55.5687 41.8269 55.4385 42.2693C55.2857 42.4004 55.2065 42.5683 55.2065 42.5683L54.4243 41.7899C54.4243 41.7899 54.3224 41.4774 54.1775 41.4248C54.1266 41.4069 53.7824 41.2937 53.7009 41.259C53.41 41.1515 53.3591 41.2344 53.418 41.3151C53.4768 41.3946 53.6534 41.4774 53.7009 41.5009C53.7428 41.5256 53.7621 41.8314 53.0308 41.716C52.9969 41.707 52.7988 41.5905 52.6765 41.539C52.3607 41.4382 52.4162 41.7373 52.4807 41.7922C52.5486 41.8448 52.8656 42.1685 52.9403 42.192C53.0093 42.2144 53.9013 42.2514 53.9013 42.2514C53.9013 42.2514 54.5148 43.3961 54.6009 43.5069C54.688 43.6212 55.0299 43.9426 55.1657 43.9706C55.3049 44.002 55.717 43.853 55.9185 43.4834L55.9988 44.9775C55.9988 44.9775 54.5986 45.2878 54.3405 45.4984C53.813 45.9117 54.7469 47.4865 55.0604 47.9043C55.1589 48.042 55.0899 48.0722 55.0899 48.0722C55.0899 48.0722 54.1073 48.6065 54.096 48.6501C54.0032 48.6244 53.9262 48.6804 53.9262 48.6804C53.9262 48.6804 53.8787 48.7465 53.9104 48.779C53.9432 48.8104 54.1073 48.9324 54.2352 48.9212C54.3575 48.9066 55.0514 48.8686 55.2155 48.8753C55.3785 48.882 55.5823 48.9089 55.6875 48.9212C55.7917 48.9324 56.0136 49.0175 56.1947 48.9212C56.3713 48.8226 56.343 48.6546 56.3237 48.4889C56.3033 48.322 56.2569 47.6746 56.2569 47.6746C56.2569 47.6746 56.2399 46.9242 56.2241 46.8323C56.4154 46.857 56.7267 46.9287 56.7844 46.8939C56.8829 46.8391 56.9836 47.0048 56.9836 47.0048C56.9836 47.0048 57.3029 47.2546 57.45 47.2288C57.5926 47.202 57.6209 47.1907 57.6923 46.979C57.7466 46.9029 57.7919 46.9219 57.7919 47.119C57.7919 47.3207 57.6923 49.143 58.5684 49.1071C59.1084 49.0859 59.4944 48.8294 59.4944 48.8294C59.4944 48.8294 59.646 49.0355 59.8555 48.9627C60.4101 48.7644 60.1067 48.2694 60.0592 48.1932C60.0162 48.1171 59.7626 47.5693 59.6042 47.5581C59.6109 47.3263 59.5725 46.9791 59.5317 46.885C59.56 46.8346 59.6528 46.6307 59.6528 46.5344C59.6528 46.4381 59.4944 45.9251 59.1989 45.616C59.1321 45.1344 58.8887 44.4086 58.8887 44.4086C58.8887 44.4086 59.2114 44.5229 59.3087 44.5352C59.4095 44.5486 59.4876 44.5026 59.5532 44.4265C59.62 44.3492 59.8034 44.105 59.8034 44.105C59.8034 44.105 59.9483 43.7321 59.8622 43.358C59.7773 42.9884 59.5996 42.3769 59.5996 42.3769C59.5996 42.3769 59.5159 41.7832 59.2182 41.6477C58.9227 41.5144 58.8627 41.5256 58.8627 41.5256C58.8627 41.5256 58.7676 41.4001 58.8378 41.3721C58.9103 41.3486 59.0223 41.2646 59.0529 41.2254C59.0868 41.1885 59.1378 40.9802 59.1378 40.9802C59.1378 40.9802 59.3144 40.8972 59.3144 40.4011C59.3144 40.4011 59.3698 40.0572 59.2374 39.8937C59.2374 39.747 59.1321 39.6507 59.1321 39.6507L58.942 39.4491C58.942 39.4491 58.968 39.1937 58.8514 39.1645C58.7325 39.1365 58.6465 39.1063 58.6465 39.1063C58.6465 39.1063 58.6409 38.8386 58.436 38.8084Z"/><path fill="#17191D" d="M56.7027 39.5079C56.7919 39.5001 56.8578 39.771 56.861 39.8314C56.8652 39.884 56.845 39.884 56.7994 39.8665C56.7558 39.8548 56.7165 39.6794 56.624 39.695C56.5326 39.7028 56.5305 39.8236 56.4976 39.8119C56.4625 39.8041 56.6113 39.5157 56.7027 39.5079Z"/><path fill="#17191D" d="M57.6103 42.4118C57.6525 42.3603 57.7683 42.4825 57.8029 42.4513C57.8354 42.419 57.5584 42.068 57.646 41.9949C57.7499 41.9182 57.87 42.1914 57.9241 42.1446C57.9826 42.0931 57.9609 42.068 57.9447 42.0236C57.9382 42.0021 57.8181 41.7637 57.817 41.7613C57.8094 41.7493 57.6818 41.5301 57.7651 41.4834C57.8516 41.4498 57.9425 41.6115 57.9609 41.6391C57.9674 41.6463 58.1308 41.9673 58.199 41.9326C58.265 41.8883 58.0767 41.4079 58.0767 41.4079C58.0648 41.3636 57.9847 41.239 58.0248 41.2043C58.0648 41.1695 58.1059 41.1791 58.2185 41.3444C58.2282 41.3588 58.529 41.9626 58.5669 41.941C58.5669 41.941 58.5734 41.82 58.5269 41.7266C58.5864 41.7781 58.7022 41.8176 58.6957 41.9063C58.6935 41.9374 58.6848 42.1962 58.6405 42.2597C58.5095 42.437 57.8917 42.6669 57.6991 42.6322C57.6818 42.6106 57.5595 42.4777 57.6103 42.4118ZM58.8353 45.0461L58.7476 44.6089L58.7065 44.452L57.988 42.9641L57.9609 42.9078C57.936 42.8826 57.9155 42.8515 57.8581 42.7904C57.8419 42.7748 57.8527 42.7508 57.8744 42.7532C58.1254 42.788 58.5626 42.655 58.6665 42.6107C58.6957 42.6502 59.3914 43.5559 59.4434 43.5188C59.4975 43.4792 58.7422 42.3747 58.7357 42.3723C58.7357 42.3651 58.8071 41.9159 58.7909 41.862C58.7563 41.7542 58.5539 41.5888 58.4717 41.5888L58.4587 41.5924C58.4446 41.56 58.4295 41.5349 58.4262 41.5277L58.4143 41.5061C58.3602 41.3983 58.3169 41.3264 58.2877 41.2749C58.4273 41.3264 58.5669 41.3755 58.5777 41.3803L58.6535 41.3852L58.7357 41.2606L58.1481 41.0425C58.0962 41.0246 58.0388 40.8999 58.0356 40.7969C58.0324 40.725 58.4425 40.2782 58.3635 40.2518C58.2055 40.1907 57.83 40.64 57.8213 40.7718C57.8127 40.858 57.856 41.0497 57.9241 41.1252C57.9003 41.1623 57.883 41.2019 57.883 41.2486C57.1537 41.3025 56.8929 41.5924 56.8615 41.7421C56.8615 41.7421 57.4437 41.4881 57.6504 41.4498C57.5151 41.5924 57.7305 41.8643 57.7305 41.8643C57.7034 41.8547 57.6352 41.8033 57.5616 41.862C57.4253 41.9818 57.566 42.2297 57.593 42.286C57.5368 42.2872 57.4978 42.2992 57.4783 42.3231C57.4069 42.4142 57.5433 42.6058 57.6417 42.7256C57.6883 42.782 57.4751 42.7676 56.8615 42.2597C56.8799 42.7532 57.6168 43.0479 57.8516 43.0503C57.8581 43.0623 58.8028 44.9815 58.8353 45.0461Z"/><path fill="#17191D" d="M55.683 45.0462L55.5642 45.1097L55.3846 45.2078C55.415 45.2724 56.1231 46.7858 56.8413 47.2616L56.8615 47.2036C55.9005 46.0581 55.683 45.0462 55.683 45.0462Z"/><path fill="#17191D" d="M58.1386 45.7954C57.8225 45.8528 57.6 47.1703 57.6 47.1703C57.676 47.0461 57.6797 47.2616 57.6797 47.2616C57.6797 47.2616 57.9337 46.1409 58.1534 46.0261C58.3768 45.9102 58.7077 45.9605 58.7077 45.9605C58.7077 45.9605 58.4574 45.7333 58.1386 45.7954Z"/><path fill="#17191D" d="M55.3736 43.5688C55.4337 43.5434 55.2288 42.4615 55.2288 42.4615L55.1533 42.5153L55.0239 42.4615C54.9561 42.5548 55.3135 43.5941 55.3736 43.5688Z"/><path fill="#17191D" d="M55.4212 42.7189L55.4943 43.5692L55.6281 43.4872L55.5924 42.8614C55.5924 42.8614 55.6593 42.8946 55.6834 42.8731C55.7066 42.8507 55.5764 42.7228 55.5692 42.5666C55.5639 42.4524 55.6825 42.303 55.662 42.2903C55.6406 42.2766 55.6004 42.3205 55.6004 42.3205C55.6076 42.2171 55.6147 42.1028 55.6219 42.0306C55.6308 41.9291 55.7538 41.7231 55.7538 41.7231C55.4774 41.8305 55.4265 42.1751 55.4265 42.1751L55.4087 42.4446C55.4087 42.4485 55.3846 42.5305 55.3846 42.5871C55.3846 42.6466 55.4194 42.7189 55.4194 42.7189H55.4212Z"/><path fill="#17191D" d="M59.3463 47.6307C59.3463 47.6307 59.337 48.8103 59.0769 49.1077H59.2203C59.2723 49.062 59.3775 48.6833 59.4133 48.5396C59.4526 48.3814 59.4457 47.7354 59.4457 47.7354L59.3463 47.6307Z"/><path fill="#17191D" d="M55.017 45.7846C54.9648 46.0142 56.1633 46.8923 56.1633 46.8923L56.4923 46.7719C56.4923 46.7719 55.3565 46.1161 55.017 45.7846Z"/><path fill="#17191D" d="M57.9264 39.1663C57.9437 39.1829 57.9371 39.2728 57.9211 39.3379C57.9211 39.3415 57.8852 39.467 58.0754 39.5523C58.2004 39.6055 58.2723 39.6978 58.3215 39.7629C58.3321 39.7772 58.3441 39.7926 58.3481 39.802C58.3827 39.8364 58.3933 39.8671 58.3667 39.9476C58.3561 39.982 58.3388 40.0033 58.3215 40.0222C58.3042 40.0376 58.2842 40.0612 58.2962 40.0908L58.2989 40.1004C58.3095 40.1371 58.3441 40.2258 58.4345 40.2601C58.4518 40.272 58.4997 40.3288 58.4478 40.4661L58.4319 40.5052C58.3747 40.6532 58.4239 41.0072 58.5197 40.9835C58.6194 40.961 58.6008 40.6532 58.6261 40.6165C58.6833 40.549 58.7232 40.3619 58.7019 40.2601C58.6966 40.2234 58.6806 40.1974 58.6553 40.1856C58.5662 40.1347 58.5383 40.0932 58.5383 40.0814C58.5383 40.0778 58.5516 40.0613 58.5622 40.0494C58.5822 40.0293 58.6035 40.0009 58.6207 39.9666C58.6527 39.8991 58.6314 39.802 58.6008 39.7393C58.5715 39.6836 58.3973 39.4871 58.2962 39.4551C58.2084 39.4326 58.1565 39.3877 58.1565 39.3439C58.1552 39.3237 58.1592 39.293 58.1619 39.2634C58.1738 39.1935 58.1792 39.1296 58.1472 39.0905C57.8533 38.7271 57.4196 38.7709 57.4196 38.7709L57.2308 38.9532C57.2308 38.9532 57.566 38.8029 57.9264 39.1663Z"/><path fill="#17191D" d="M55.7905 41.4336C55.8578 41.4592 56.2138 41.4877 56.8521 41.723C56.9489 41.63 56.2762 41.4136 55.9628 41.3538C55.7758 41.3538 55.7626 41.3776 55.7561 41.387C55.7512 41.3984 55.7512 41.4146 55.7905 41.4336Z"/><path fill="#17191D" d="M54.4845 48.2959C54.1037 47.7604 53.2754 47.7387 52.9992 48.0104C52.9837 47.9945 52.9714 47.9842 52.9581 47.9727C52.8423 47.8791 52.5071 47.6736 52.3446 47.58C52.0918 47.306 51.985 47.2386 51.9304 47.2101C51.7222 47.0811 51.3225 46.936 50.9829 46.8527C50.9172 46.1105 50.8616 45.937 50.8226 45.8606C50.8259 45.8366 50.9039 45.18 50.8905 44.7679C51.1065 44.8078 51.3915 44.8546 51.6209 44.8546C51.75 44.8546 51.8525 44.8398 51.9371 44.8079C52.1586 44.7485 52.5249 44.6183 52.6753 44.3694L52.7098 44.3157L52.7254 44.253C52.7387 44.1993 52.8378 43.7129 52.555 43.2539C52.3613 42.9422 51.8191 42.3577 51.5162 42.0608C51.5307 41.8896 51.5385 41.7171 51.5385 41.7148C51.5507 41.5744 51.514 41.4295 51.3548 41.2605C51.3069 41.2091 50.9428 40.7855 50.8393 40.7204C50.7413 40.661 50.5799 40.6154 50.4496 40.6154C50.4017 40.6154 50.3594 40.6223 50.3149 40.636C49.9597 40.7159 49.9942 41.2742 50.0076 41.321C49.9631 41.2936 49.9152 41.2696 49.864 41.2468C49.7415 41.1086 49.5634 41.0287 49.3863 40.991C49.295 40.9236 49.1603 40.854 48.9877 40.854C48.9755 40.854 48.9621 40.854 48.9488 40.8563C48.7194 40.87 48.7138 40.8951 48.6025 40.9864C48.431 41.0241 48.2763 41.1269 48.1583 41.2764C48.0603 41.3335 47.9389 41.4363 47.8443 41.6064C47.7396 41.6932 47.6272 41.8359 47.5359 42.0859L47.5014 42.1773C47.4201 42.3954 47.3288 42.6408 47.3945 42.8954C47.3978 42.8988 47.3989 42.9103 47.4012 42.9171C47.203 42.9731 46.9235 43.0907 46.7688 43.4012C46.7008 43.5417 46.6274 43.7266 46.5684 43.8899C46.4826 43.8956 45.4861 44.0212 45.5073 44.503C45.514 44.6548 45.5852 44.8056 45.72 44.9015C45.6264 45.0647 45.6198 45.236 45.7033 45.381C45.7745 45.5088 45.8736 45.6002 45.9849 45.6447C46.0228 45.7669 46.0785 45.8937 46.1631 46.0033C46.2611 46.1323 46.3679 46.227 46.4581 46.2932C46.2722 46.356 46.074 46.4474 45.8847 46.5878C45.6086 46.7796 45.1978 47.2009 45.5541 47.854C45.6108 47.9545 45.7856 48.1532 46.6597 49.0334C46.6296 49.07 45.9415 50.367 47.066 50.4206C47.3221 50.8625 48.1983 50.2265 48.2284 50.2094C48.2941 50.2242 49.4709 50.2288 49.1581 49.2994C49.2394 49.2857 49.6457 49.1704 49.6669 49.1681C49.7983 49.2275 50.0878 49.3486 50.2592 49.3657C50.336 49.3726 50.463 49.3771 50.5565 49.3771C50.6756 49.3771 50.9673 49.3725 51.1076 49.344C51.1444 49.3371 51.1855 49.3257 51.2312 49.3177C51.3548 49.5198 51.5452 49.7721 51.7935 49.9148C52.0896 50.0884 52.7666 50.399 52.9926 50.5017C53.0371 50.5485 53.5136 50.9539 53.8265 50.9539C54.8241 50.9539 54.5157 50.0222 54.5324 49.9708C54.6148 49.7299 54.7628 48.6818 54.4845 48.2959Z"/><path fill="#C6C1C0" d="M50.9847 43.3608C50.9445 43.3091 50.5561 43.2057 50.3977 43.1885C50.343 43.1322 50.1644 43.076 50.1644 43.076C50.1644 43.076 50.4077 42.8876 50.4021 42.7579C50.2325 41.8668 49.9401 41.7979 49.9401 41.7979C49.9401 41.7979 49.8486 41.5958 49.6008 41.5648C49.5584 41.3742 49.1968 41.3421 49.1968 41.3421C49.1968 41.3421 49.1064 41.2192 48.9613 41.2261C48.8564 41.2341 48.8229 41.2778 48.7694 41.3444C48.7694 41.3444 48.5529 41.3088 48.4078 41.5648C48.4078 41.5648 48.2359 41.6027 48.131 41.8599C48.131 41.8599 48.0038 41.8921 47.8888 42.201C47.8107 42.4123 47.7181 42.6201 47.7571 42.7774C47.7996 42.9347 47.9245 43.0978 47.9245 43.0978C47.9245 43.0978 47.8074 43.1966 47.6779 43.2379C47.5473 43.2781 47.2315 43.3022 47.102 43.5674C46.9715 43.8315 46.8096 44.3391 46.8096 44.3391C46.8096 44.3391 46.7315 44.292 46.6367 44.2828C46.553 44.2736 46.1713 44.2897 46.0865 44.354C46.0396 44.3862 45.8733 44.408 45.8778 44.4734C45.8878 44.664 46.1813 44.5963 46.1813 44.5963L46.1144 45.0005C46.1144 45.0005 45.9916 45.1234 46.024 45.1819C46.0574 45.2405 46.1144 45.2623 46.1534 45.2497C46.2036 45.2405 46.2829 45.144 46.2829 45.144C46.2829 45.144 46.2829 45.5379 46.4536 45.7606C46.6233 45.9822 46.8197 46.0615 46.8197 46.0615C46.8197 46.0615 46.948 46.1143 47.0596 46.0615C47.1735 46.0167 47.3844 45.8433 47.4022 45.7767C47.4179 45.7113 47.4737 45.4874 47.4737 45.4874C47.4737 45.4874 47.5641 45.1325 47.6054 45.1233C47.6444 45.1164 47.6857 45.1727 47.6857 45.1727V45.8927C47.6857 45.8927 47.4089 46.4289 47.4089 46.5679C47.2627 46.5862 46.6322 46.5162 46.0876 46.9204C45.6412 47.2339 45.7974 47.5232 45.8778 47.6714C45.957 47.8218 47.3208 49.1722 47.361 49.2216C47.3431 49.2687 47.3844 49.3284 47.3208 49.3284H47.1735C47.1735 49.3284 46.9659 49.2457 46.9302 49.3284C46.8431 49.5328 47.063 49.5144 47.0719 49.5488C47.0775 49.5867 46.8945 49.5213 46.8677 49.6292C46.8308 49.7612 46.871 49.8852 46.9581 49.9943C47.0128 50.069 47.1545 50.0334 47.1947 50.0483C47.2382 50.0667 47.2516 50.1356 47.3598 50.1585C47.5987 50.255 48.1265 49.8129 48.1957 49.8244C48.4524 49.9564 48.7515 49.7142 48.7694 49.566C48.7895 49.4156 48.7671 49.3421 48.7147 49.2273C48.6622 49.1159 48.4971 48.9345 48.4971 48.9345C48.4971 48.9345 48.7013 48.869 48.7448 48.8484C48.7448 48.8484 48.7738 48.8266 48.843 48.8599C48.91 48.8955 49.2124 48.9517 49.3017 48.9471C49.3921 48.9448 49.7292 48.7772 49.7816 48.8059C49.8341 48.8358 50.1689 48.9793 50.2927 48.9896C50.4155 49.0034 50.8921 49.0011 51.0249 48.9747C51.1565 48.9494 51.4233 48.8667 51.4233 48.8667C51.4233 48.8667 51.6454 49.3984 51.9824 49.5959C52.3194 49.7911 53.2234 50.1988 53.2234 50.1988C53.2234 50.1988 53.5861 50.5846 53.8261 50.5846C54.0638 50.5846 54.1252 50.3756 54.1241 50.3262C54.1229 50.2745 54.1151 50.0081 54.1631 49.8715C54.2122 49.7279 54.2546 49.3065 54.2669 49.109C54.2803 48.9115 54.3461 48.3615 53.8328 48.2811C53.7513 48.2673 53.575 48.2363 53.5437 48.2363C53.4689 48.2432 53.5058 48.4246 53.4812 48.3557C53.4522 48.2719 53.3663 48.2524 53.3317 48.265C53.2368 48.3087 53.1966 48.3913 53.1978 48.4361C53.2045 48.5165 53.239 48.7347 53.239 48.7347C53.239 48.7347 52.8217 48.3914 52.7067 48.2949C52.5918 48.1984 52.0951 47.9045 52.0951 47.9045C52.0951 47.9045 51.8262 47.6128 51.7447 47.5772C51.6978 47.521 50.9925 47.1891 50.6108 47.196C50.6041 46.8974 50.5896 46.2004 50.4233 45.8617C50.4256 45.7675 50.5282 44.7892 50.4668 44.532C50.4412 44.4195 50.6086 44.3322 50.6934 44.3322C50.7782 44.3322 51.5918 44.5228 51.8117 44.4263C51.8117 44.4263 52.2436 44.3138 52.3395 44.1519C52.3395 44.1519 52.4266 43.7867 52.219 43.4549C52.0125 43.1207 51.2894 42.3583 51.1007 42.201C51.1253 42.0081 51.142 41.6613 51.142 41.6613C51.142 41.6613 51.142 41.5867 51.0941 41.5396C51.0427 41.4856 50.7135 41.0975 50.6677 41.0573C50.6309 41.0217 50.4802 40.9701 50.4189 40.9884C50.3575 41.008 50.3776 41.1423 50.4122 41.1768C50.4501 41.2169 50.5494 41.3019 50.5494 41.3019L50.6019 41.4523C50.6019 41.4523 50.5349 41.4879 50.5215 41.5212C50.5104 41.5511 50.5104 41.7233 50.5349 41.7635C50.5584 41.798 50.6387 41.8152 50.6387 41.8152C50.6387 41.8152 50.5651 41.984 50.4936 41.9886C50.43 41.8967 50.3262 41.6199 50.2369 41.7107C50.1945 41.7554 50.1722 41.8313 50.1968 41.907C50.2169 41.9794 50.3363 42.333 50.3977 42.3985C50.4601 42.4616 50.5059 42.4972 50.5059 42.4972C50.5059 42.4972 50.9612 43.2264 50.9847 43.3608Z"/><path fill="#17191D" d="M46.5231 46.9165C47.2471 46.8547 48.5677 48.6885 48.611 48.7281C48.6568 48.7676 48.7385 48.6824 48.7385 48.6824C48.6828 48.6033 47.5293 46.655 46.5231 46.9165Z"/><path fill="#17191D" d="M46.5957 44.6642C46.7196 44.639 46.922 44.3245 46.8887 44.3087C46.8577 44.2913 46.7541 44.4983 46.5671 44.4983C46.5076 44.4983 46.4349 44.4793 46.3575 44.4604L46.3385 44.4541C46.3158 44.5094 46.1539 44.5441 46.1539 44.5441L46.1741 44.6769L46.3337 44.6247C46.3599 44.6389 46.4718 44.6895 46.5957 44.6642Z"/><path fill="#17191D" d="M47.672 43.5693C47.5712 43.5847 47.6868 45.4154 47.6868 45.4154L47.7918 45.2325C47.7778 45.129 47.7647 44.5937 47.7664 44.5177C47.8016 44.5485 48.2659 44.4174 48.3692 44.1828C48.3692 44.1828 48.0444 44.2621 47.9624 44.2379C47.8164 44.206 47.7778 44.1222 47.7705 44.0616C47.7713 44.0429 47.7155 43.5649 47.672 43.5693Z"/><path fill="#17191D" d="M47.3938 46.5231L47.2615 46.6037C48.2135 47.0325 48.7911 48.6147 48.7959 48.6308L48.8006 48.648L49.1077 48.7385C49.1077 48.7385 48.3813 46.9006 47.3938 46.5231Z"/><path fill="#17191D" d="M49.4769 48.7211C49.5249 48.7783 49.7772 48.6764 49.7772 48.6764V48.6577C49.7772 48.6504 49.7497 47.8645 50.5846 47.2616C50.5846 47.2616 49.673 47.4009 49.4769 48.7211Z"/><path fill="#17191D" d="M53.4475 48.5061L53.1693 48.3692C53.1693 48.3692 53.3011 48.8166 53.2937 49.0126C53.2883 49.0455 53.2754 49.0533 53.2553 49.0665C53.2461 49.0743 53.2407 49.0796 53.2315 49.0836C53.129 49.1638 53.2004 49.4769 53.2004 49.4769C53.2004 49.4769 53.3194 49.298 53.4475 49.1967C53.4585 49.1875 53.4677 49.1796 53.4805 49.1717C53.5409 49.1309 53.5537 49.0994 53.5208 48.9218C53.5153 48.8612 53.4475 48.5061 53.4475 48.5061Z"/><path fill="#17191D" d="M50.7827 43.5693C50.7487 43.5739 50.6842 44.0285 50.6866 44.089C50.6866 44.0982 50.669 44.3951 50.3267 44.3437C49.9868 44.2901 49.8461 44.2273 49.8461 44.2273C49.9669 44.4614 50.533 44.5756 50.6725 44.7674C50.703 44.8074 50.7253 45.0199 50.7299 45.0461H50.8425V44.6669L50.9538 44.6338C50.9046 43.8412 50.8167 43.5625 50.7827 43.5693Z"/><path fill="#17191D" d="M50.1625 41.9521C50.304 41.8315 50.0312 41.6945 50.0261 41.678C50.0261 41.678 50.216 41.8799 50.0618 41.8233C49.9305 41.6543 49.4129 41.5317 49.3951 41.5152C49.3683 41.4895 49.4601 41.4184 49.7456 41.5915C49.7635 41.5616 49.5901 41.4246 49.3428 41.439C49.3377 41.4112 49.3148 41.3803 49.2918 41.3689C49.288 41.3669 49.2842 41.3669 49.2842 41.3669C49.274 41.3669 49.2587 41.3669 49.2638 41.371C49.2854 41.3906 49.3224 41.439 49.2816 41.4431C49.2332 41.4472 49.2038 41.3783 49.1936 41.3669C49.1682 41.3288 49.0496 41.3823 49.1184 41.4246C49.1363 41.439 49.1682 41.4472 49.1975 41.4648C49.2332 41.4812 49.2179 41.4915 49.1873 41.4812C49.1465 41.4709 49.1044 41.4648 49.0496 41.4648C48.9935 41.4648 48.9425 41.4751 48.8941 41.4915C48.8724 41.4957 48.852 41.4874 48.8775 41.4709C48.8992 41.4555 48.931 41.4493 48.9514 41.439C49.0509 41.3823 48.8852 41.2896 48.8571 41.4225C48.838 41.4472 48.8189 41.4648 48.8036 41.4689C48.7284 41.473 48.8087 41.3782 48.8048 41.3782C48.8048 41.3782 48.7959 41.3865 48.7921 41.3885C48.7679 41.4009 48.7373 41.4246 48.7309 41.4514C48.7118 41.4493 48.4237 41.4647 48.3829 41.5915C48.5958 41.4647 48.708 41.473 48.6939 41.5214C48.6901 41.542 48.4352 41.6605 48.3319 41.7388C48.2516 41.7872 48.1305 41.9057 48.1075 41.9098C48.0667 41.916 48.0604 41.849 48.1152 41.7604C47.9813 41.8675 48.0068 41.952 48.0425 41.9963C47.975 42.1272 47.989 42.292 48.0769 42.4228C48.1534 42.531 48.6213 42.8514 48.6608 42.8298C48.7003 42.8071 48.1764 42.4352 48.1369 42.2755C48.054 41.8933 48.6914 41.5575 48.8979 41.5379C48.9081 41.5379 48.9349 41.5863 49.0521 41.5801C49.1975 41.576 49.214 41.5379 49.214 41.5379C49.3785 41.5214 50.1561 41.7594 50.0758 42.224C50.0465 42.3703 49.9751 42.5454 50.007 42.564C50.0388 42.5794 50.0694 42.5011 50.1485 42.3744C50.2339 42.2415 50.2364 42.0767 50.1625 41.9521Z"/><path fill="#17191D" d="M51.6923 44.3001C51.6265 44.1959 51.0771 43.2474 51.0745 43.2449C51.0695 43.2304 51.056 43.2 51.0366 43.2C51.0256 43.2 50.9564 43.2049 50.9539 43.2279C51.0695 43.5054 51.332 43.9452 51.5168 44.1608C51.6003 44.2674 51.6687 44.3304 51.6923 44.3001Z"/><path fill="#17191D" d="M47.2615 49.0107C47.3079 49.0435 47.388 49.1077 47.388 49.1077C47.388 49.1077 47.5005 48.9572 47.6959 48.8977C47.8885 48.8389 48.2244 48.7572 48.3692 48.7541C47.8168 48.6778 47.284 48.8992 47.2615 49.0107Z"/><path fill="#17191D" d="M47.1031 45.3406C47.2032 45.3428 47.233 45.2644 47.2343 45.1795L47.2546 45.1643C47.2573 45.1621 47.352 45.0936 47.4129 44.939C47.4588 45.1447 47.5873 45.555 47.4927 45.6617L47.3466 45.7847L47.4994 45.715C47.5589 45.6976 47.655 45.6105 47.6252 45.4657C47.609 45.3874 47.4588 44.7344 47.4588 44.7344L47.4521 44.7072C47.444 44.6223 47.4129 44.5418 47.3534 44.4797C47.2546 44.3709 47.0964 44.3143 46.9922 44.3077C46.9922 44.3077 47.4115 44.533 47.3574 44.7714C47.3074 44.9988 47.2546 45.0174 47.2546 45.0195L47.1965 44.9662L47.1911 45.1C47.1816 45.1664 47.1545 45.1937 47.1004 45.1915C46.9395 45.1893 46.8205 45.3656 46.6487 45.3254C46.4878 45.2873 46.4026 45.1796 46.3011 45.1175C46.2092 45.0598 46.3498 44.9455 46.3498 44.9455C46.3498 44.9455 46.3444 44.9009 46.3025 44.877C46.2592 44.8541 46.1875 44.9989 46.1875 44.9989C46.1875 44.9989 46.0901 45.198 46.2267 45.2688C46.4675 45.3961 46.389 45.3939 46.6487 45.457C46.9097 45.5213 46.8895 45.3362 47.1031 45.3406Z"/><path fill="#17191D" d="M56.596 39.1384C56.4463 39.1384 56.2556 39.0471 56.2087 38.7911C56.1928 38.741 56.0614 38.4428 55.9483 38.1845C55.3064 36.7208 55.3578 37.2562 55.4183 37.0235C55.5257 36.6039 56.1151 36.5538 56.5526 36.5538C56.6542 36.5538 56.7308 36.5582 56.7593 36.5605C56.9706 36.5627 57.1557 36.6384 57.3007 36.7754C57.5395 37.0058 57.6 37.3452 57.6 37.5033C57.6 37.5211 57.2779 38.4661 57.1157 38.751L57.1088 38.7622C56.8724 39.134 56.6668 39.1384 56.5982 39.1384H56.596Z"/><path fill="#C6C1C0" d="M56.7288 36.5599C56.7288 36.5599 55.83 36.4922 55.7587 36.8114C55.6919 37.1331 56.3287 38.3524 56.5249 38.692C56.663 38.9333 56.8066 38.5324 56.8066 38.5324C56.903 38.3333 57.2286 37.4127 57.2308 37.2761C57.2308 37.1063 57.1343 36.5574 56.7288 36.5599Z"/><path fill="#17191D" d="M30.6462 27.7069C30.6462 27.7069 33.1406 27.8613 33.5784 30.6461C33.7192 30.1334 33.1537 28.4474 32.4376 28.0361C32.3568 27.9897 32.0479 27.8397 32.276 27.3421C31.4376 27.2223 30.6462 27.7069 30.6462 27.7069Z"/><path fill="#17191D" d="M42.8307 28.5988C42.8307 28.5988 44.2812 27.9696 44.625 30.6461C44.7819 29.6672 44.5856 28.5033 43.9986 28.1511C43.4105 27.7989 42.8307 28.5988 42.8307 28.5988Z"/><path fill="#17191D" d="M35.4462 31.3846C35.4462 31.3846 35.5707 31.9333 35.7034 32.0416C35.8378 32.1464 36.1846 31.4709 36.1846 31.4709C36.1846 31.4709 35.9427 32.285 35.7285 32.4923C35.5564 32.3223 35.4892 32.1149 35.4462 31.3846Z"/><path fill="#17191D" d="M35.8171 32.123C35.8171 32.123 36.1028 32.6693 36.2916 32.7769C36.483 32.881 36.9231 32.2353 36.9231 32.2353C36.9231 32.2353 36.5314 33.0716 36.3286 33.2307C36.1462 33.0798 35.7877 32.8833 35.8171 32.123Z"/><path fill="#17191D" d="M34.7077 32.9178C34.7077 32.9178 34.9736 33.4318 35.1333 33.4993C35.4051 33.614 35.4245 32.8615 35.4245 32.8615C35.4245 32.8615 35.5395 33.6959 35.2395 33.9692C34.9882 33.8177 34.8567 33.7154 34.7077 32.9178Z"/><path fill="#17191D" d="M35.4462 32.6217C35.4462 32.6217 35.5984 33.0404 35.7424 33.1406C35.8853 33.2399 36.1846 32.4923 36.1846 32.4923C36.1846 32.4923 36.0869 33.2314 35.8596 33.6C35.7125 33.445 35.4657 33.2124 35.4462 32.6217Z"/><path fill="#17191D" d="M35.8154 32.9889C35.8185 33.0122 36.2317 33.4497 36.4865 33.5339C36.7475 33.6137 36.9153 32.8615 36.9153 32.8615C36.9153 32.8615 36.9898 33.72 36.6776 33.9692C36.4974 33.8784 35.9024 33.6613 35.8154 32.9889Z"/><path fill="#17191D" d="M36.1846 31.0154C36.1846 31.0154 36.4064 31.6426 36.5543 31.7397C36.7022 31.8337 36.9231 31.16 36.9231 31.16C36.9231 31.16 36.8101 31.8939 36.5458 32.123C36.3656 31.9288 36.3104 31.7989 36.1846 31.0154Z"/><path fill="#17191D" d="M35.4462 30.277C35.4462 30.277 35.6992 30.7677 35.9275 30.8541C36.1558 30.9416 36.5539 30.277 36.5539 30.277C36.5539 30.277 36.3178 31.1254 35.9522 31.3846C35.7053 31.2418 35.5912 31.0058 35.4462 30.277Z"/><path fill="#17191D" d="M36.5538 30.2769C36.5538 30.2769 36.7256 30.6244 36.8861 30.6988C37.044 30.7732 37.2923 30.4683 37.2923 30.4683C37.2923 30.4683 37.1932 30.9501 36.8986 31.0154C36.777 30.9365 36.6441 30.7804 36.5538 30.2769Z"/><path fill="#17191D" d="M37.3123 29.5384C37.3123 29.5384 37.4256 30.0618 37.5881 30.172C37.7416 30.2836 38.0308 29.8052 38.0308 29.8052C38.0308 29.8052 37.9935 30.388 37.5717 30.6461C37.4167 30.4649 37.2303 30.2431 37.3123 29.5384Z"/><path fill="#17191D" d="M38.0403 29.1693C38.0403 29.1693 38.1555 29.5318 38.3161 29.6096C38.4768 29.6863 38.7692 29.353 38.7692 29.353C38.7692 29.353 38.7147 29.8479 38.3146 29.9035C38.3646 29.9499 37.9646 29.6096 38.0403 29.1693Z"/><path fill="#17191D" d="M34.7077 32.1231C34.7077 32.1231 34.9696 32.5565 35.0918 32.5688C35.2128 32.5801 35.4462 32.1231 35.4462 32.1231C35.4462 32.1231 35.3361 32.7373 35.0918 32.8616C34.9828 32.7373 34.7671 32.5401 34.7077 32.1231Z"/><path fill="#17191D" d="M36.1888 29.5384C36.1888 29.5384 36.3381 30.0282 36.5022 30.1233C36.6664 30.2227 36.9231 29.7481 36.9231 29.7481C36.9231 29.7481 36.8395 30.4489 36.553 30.6461C36.3709 30.4944 36.1515 30.242 36.1888 29.5384Z"/><path fill="#C6C1C0" d="M48 35.8154C47.5614 35.6686 47.0228 34.7821 46.8591 34.4034C46.6955 34.0214 46.4001 32.9019 46.5785 32.4924C46.6728 32.8975 46.925 33.7631 47.1159 34.1528C47.4023 34.7368 47.7636 35.4986 48 35.8154Z"/><path fill="#17191D" d="M57.1616 47.5974C57.1027 47.4477 56.7974 47.2969 56.6622 47.2732C56.5395 47.2504 56.5129 47.2463 56.5013 47.4022C56.4914 47.5292 56.4856 47.6635 56.5063 47.7967C56.5395 48.029 56.5536 47.9609 56.7211 47.9722C56.8472 47.9846 56.9608 48.0084 57.0844 47.997C57.2022 47.9887 57.2271 47.9847 57.2271 47.8473C57.2254 47.7482 57.2569 47.6253 57.1616 47.5892"/></g><circle cx="80" cy="80" r="16" fill="url(#paint0_linear)"/><path fill="#606063" fill-rule="evenodd" d="M69.6072 81.758C69.6045 81.8177 69.6031 81.8777 69.6031 81.9379C69.6031 82.1653 69.6229 82.3899 69.6615 82.6111H69.6031V82.9593C69.6031 83.1292 69.6141 83.2976 69.6359 83.4642C70.0595 86.7145 74.5379 89.2719 80 89.2719C85.4621 89.2719 89.9405 86.7145 90.3641 83.4642C90.3859 83.2976 90.3969 83.1292 90.3969 82.9593V82.6111H90.3385C90.3771 82.3899 90.3969 82.1653 90.3969 81.9379C90.3969 81.8777 90.3955 81.8177 90.3928 81.758C90.2359 78.3548 85.643 75.6252 80 75.6252C74.357 75.6252 69.7641 78.3548 69.6072 81.758ZM68.7533 81.758C68.8307 79.6815 70.2417 77.9373 72.2055 76.7449C74.2413 75.5089 76.9992 74.7721 80 74.7721C83.0008 74.7721 85.7587 75.5089 87.7945 76.7449C89.7583 77.9373 91.1693 79.6815 91.2467 81.758H91.25V82.9593C91.25 85.1148 89.8148 86.9255 87.7945 88.1522C85.7587 89.3883 83.0008 90.125 80 90.125C76.9992 90.125 74.2413 89.3883 72.2055 88.1522C70.1852 86.9255 68.75 85.1148 68.75 82.9593V81.758H68.7533Z" clip-rule="evenodd"/><path fill="#BEBEBE" d="M90.3969 82.9594C90.3969 86.4458 85.7421 89.2721 80 89.2721C74.2579 89.2721 69.6031 86.4458 69.6031 82.9594V81.9601H90.3969V82.9594Z"/><path fill="#FAF9FA" d="M90.3969 81.9378C90.3969 85.4242 85.7421 88.2505 80 88.2505C74.2579 88.2505 69.6031 85.4242 69.6031 81.9378C69.6031 78.4514 74.2579 75.6251 80 75.6251C85.7421 75.6251 90.3969 78.4514 90.3969 81.9378Z"/><path fill="#633001" fill-rule="evenodd" d="M71.2027 80.1544C71.2027 80.1584 71.2027 80.1624 71.2027 80.1663C71.2027 80.4534 71.2443 80.7345 71.324 81.0075H71.2026V81.3772C71.2026 81.5404 71.216 81.7017 71.2423 81.8606C71.6387 84.2609 74.9548 86.1344 78.9869 86.1344C83.019 86.1344 86.3352 84.2609 86.7315 81.8606C86.7578 81.7017 86.7712 81.5404 86.7712 81.3772V81.0075H86.65C86.7275 80.7419 86.769 80.4687 86.7712 80.1898C86.7713 80.182 86.7713 80.1741 86.7713 80.1663C86.7713 80.1624 86.7713 80.1584 86.7713 80.1544C86.7608 77.5326 83.2797 75.4091 78.987 75.4091C74.6943 75.4091 71.2132 77.5326 71.2027 80.1544ZM70.3496 80.1544H70.3495V81.3772C70.3495 83.1005 71.4891 84.5226 73.0377 85.469C74.601 86.4244 76.7065 86.9875 78.9869 86.9875C81.2673 86.9875 83.3728 86.4244 84.9361 85.469C86.4848 84.5226 87.6243 83.1005 87.6243 81.3772V80.1929C87.6244 80.1841 87.6244 80.1752 87.6244 80.1663C87.6244 78.443 86.4849 77.021 84.9362 76.0745C83.3729 75.1192 81.2674 74.556 78.987 74.556C76.7066 74.556 74.6011 75.1192 73.0378 76.0745C71.4927 77.0188 70.3548 78.4365 70.3496 80.1544Z" clip-rule="evenodd"/><path fill="#FEDC90" d="M86.7712 81.3774C86.7712 84.0047 83.2861 86.1346 78.9869 86.1346C74.6878 86.1346 71.2026 84.0047 71.2026 81.3774V80.2612H86.7712V81.3774Z"/><path fill="#D1884F" d="M86.7712 80.1664C86.7712 82.7937 83.2861 84.9235 78.9869 84.9235C74.6878 84.9235 71.2026 82.7937 71.2026 80.1664C71.2026 77.539 74.6878 75.4092 78.9869 75.4092C83.2861 75.4092 86.7712 77.539 86.7712 80.1664Z"/><path fill="#633001" fill-rule="evenodd" d="M73.5487 77.5952C73.5487 77.5992 73.5487 77.6031 73.5487 77.6071C73.5487 77.8942 73.5903 78.1753 73.67 78.4483H73.5486V78.818C73.5486 78.9812 73.562 79.1425 73.5883 79.3014C73.9846 81.7017 77.3008 83.5752 81.3329 83.5752C85.365 83.5752 88.6811 81.7017 89.0775 79.3014C89.1038 79.1425 89.1172 78.9812 89.1172 78.818V78.4483H88.996C89.0735 78.1827 89.115 77.9095 89.1172 77.6306C89.1173 77.6228 89.1173 77.6149 89.1173 77.6071C89.1173 77.6031 89.1173 77.5992 89.1173 77.5952C89.1068 74.9734 85.6257 72.8499 81.333 72.8499C77.0403 72.8499 73.5592 74.9734 73.5487 77.5952ZM72.6956 77.5952H72.6955V78.818C72.6955 80.5413 73.835 81.9634 75.3837 82.9098C76.947 83.8652 79.0525 84.4283 81.3329 84.4283C83.6133 84.4283 85.7188 83.8652 87.2821 82.9098C88.8307 81.9634 89.9703 80.5413 89.9703 78.818V77.6337C89.9703 77.6249 89.9704 77.616 89.9704 77.6071C89.9704 75.8838 88.8308 74.4618 87.2822 73.5153C85.7188 72.56 83.6134 71.9968 81.333 71.9968C79.0526 71.9968 76.9471 72.56 75.3838 73.5153C73.8387 74.4596 72.7008 75.8773 72.6956 77.5952Z" clip-rule="evenodd"/><path fill="#FEDC90" d="M89.1172 78.8181C89.1172 81.4454 85.6321 83.5752 81.3329 83.5752C77.0337 83.5752 73.5486 81.4454 73.5486 78.8181V77.7019H89.1172V78.8181Z"/><path fill="#D1884F" d="M89.1172 77.607C89.1172 80.2344 85.6321 82.3642 81.3329 82.3642C77.0337 82.3642 73.5486 80.2344 73.5486 77.607C73.5486 74.9797 77.0337 72.8499 81.3329 72.8499C85.6321 72.8499 89.1172 74.9797 89.1172 77.607Z"/><path fill="#633001" fill-rule="evenodd" d="M71.2027 75.0359C71.2027 75.0399 71.2027 75.0438 71.2027 75.0478C71.2027 75.3348 71.2443 75.616 71.324 75.889H71.2026V76.2587C71.2026 76.4219 71.216 76.5832 71.2423 76.7421C71.6387 79.1424 74.9548 81.0159 78.9869 81.0159C83.019 81.0159 86.3352 79.1424 86.7315 76.7421C86.7578 76.5832 86.7712 76.4219 86.7712 76.2587V75.889H86.65C86.7275 75.6234 86.769 75.3502 86.7712 75.0712C86.7713 75.0634 86.7713 75.0556 86.7713 75.0478C86.7713 75.0438 86.7713 75.0399 86.7713 75.0359C86.7608 72.4141 83.2797 70.2906 78.987 70.2906C74.6943 70.2906 71.2132 72.4141 71.2027 75.0359ZM70.3496 75.0359H70.3495V76.2587C70.3495 77.982 71.4891 79.404 73.0377 80.3505C74.601 81.3059 76.7065 81.869 78.9869 81.869C81.2673 81.869 83.3728 81.3059 84.9361 80.3505C86.4848 79.404 87.6243 77.982 87.6243 76.2587V75.0744C87.6244 75.0655 87.6244 75.0567 87.6244 75.0478C87.6244 73.3245 86.4849 71.9024 84.9362 70.956C83.3729 70.0006 81.2674 69.4375 78.987 69.4375C76.7066 69.4375 74.6011 70.0006 73.0378 70.956C71.4927 71.9003 70.3548 73.3179 70.3496 75.0359Z" clip-rule="evenodd"/><path fill="#FEDC90" d="M86.7712 76.2587C86.7712 78.886 83.2861 81.0159 78.9869 81.0159C74.6878 81.0159 71.2026 78.886 71.2026 76.2587V75.1426H86.7712V76.2587Z"/><path fill="#D1884F" d="M86.7712 75.0478C86.7712 77.6751 83.2861 79.805 78.9869 79.805C74.6878 79.805 71.2026 77.6751 71.2026 75.0478C71.2026 72.4205 74.6878 70.2906 78.9869 70.2906C83.2861 70.2906 86.7712 72.4205 86.7712 75.0478Z"/><path fill="url(#paint1_linear)" fill-rule="evenodd" d="M73.044 75.3438C73.044 76.221 73.6813 77.0066 74.6869 77.5352L73.9902 78.7419L73.9903 78.7419H73.9902V81.7959C73.9902 82.1997 74.3176 82.5271 74.7214 82.5271C75.1252 82.5271 75.4526 82.1997 75.4526 81.7959V79.3671L76.2021 78.0689C76.6814 78.1705 77.1959 78.2257 77.7313 78.2257C80.32 78.2257 82.4186 76.9354 82.4186 75.3438C82.4186 73.7522 80.32 72.4619 77.7313 72.4619C75.1425 72.4619 73.044 73.7522 73.044 75.3438Z" clip-rule="evenodd"/><path fill="#633001" fill-rule="evenodd" d="M74.6868 77.5352C74.5755 77.4766 74.4686 77.4149 74.3666 77.3503C73.5479 76.8314 73.0439 76.1238 73.0439 75.3438C73.0439 73.7522 75.1425 72.4619 77.7313 72.4619C80.32 72.4619 82.4186 73.7522 82.4186 75.3438C82.4186 76.9354 80.32 78.2257 77.7313 78.2257C77.1958 78.2257 76.6814 78.1705 76.2021 78.0689L75.4526 79.3671V81.7959C75.4526 82.1997 75.1252 82.5271 74.7214 82.5271C74.3175 82.5271 73.9902 82.1997 73.9902 81.7959V78.7419L74.6868 77.5352ZM73.2437 78.7548V81.7959C73.2437 82.612 73.9053 83.2736 74.7214 83.2736C75.5375 83.2736 76.199 82.612 76.199 81.7959V79.5671L76.5878 78.8938C76.957 78.9452 77.3397 78.9722 77.7313 78.9722C79.1409 78.9722 80.4528 78.6224 81.4367 78.0175C82.4083 77.4201 83.165 76.4959 83.165 75.3438C83.165 74.1918 82.4083 73.2675 81.4367 72.6701C80.4528 72.0652 79.1409 71.7155 77.7313 71.7155C76.3216 71.7155 75.0097 72.0652 74.0259 72.6701C73.0542 73.2675 72.2975 74.1918 72.2975 75.3438C72.2975 76.3549 72.8766 77.1875 73.6812 77.7841L73.3489 78.3597C73.3172 78.4127 73.2919 78.47 73.2741 78.5305C73.2522 78.6043 73.2424 78.6799 73.2437 78.7548Z" clip-rule="evenodd"/><path fill="#9E7200" d="M74.5083 74.1295C74.5083 74.954 75.5586 75.6224 76.8543 75.6224C78.1499 75.6224 79.2002 74.954 79.2002 74.1295C79.2002 73.305 78.1499 72.6366 76.8543 72.6366C75.5586 72.6366 74.5083 73.305 74.5083 74.1295Z"/><path fill="#9E7200" d="M74.5083 73.4897H79.2002V74.1296H74.5083V73.4897Z"/><path fill="#F0B90B" d="M74.5083 73.4897C74.5083 74.3143 75.5586 74.9827 76.8543 74.9827C78.1499 74.9827 79.2002 74.3143 79.2002 73.4897C79.2002 72.6652 78.1499 71.9968 76.8543 71.9968C75.5586 71.9968 74.5083 72.6652 74.5083 73.4897Z"/><path fill="#9E7200" d="M75.964 73.3098L76.6253 72.889C76.765 72.8 76.9436 72.8 77.0833 72.889L77.7445 73.3098C77.8762 73.3936 77.8762 73.5858 77.7445 73.6696L77.0833 74.0904C76.9436 74.1793 76.765 74.1793 76.6253 74.0904L75.964 73.6696C75.8323 73.5858 75.8323 73.3936 75.964 73.3098Z"/><path fill="#633001" fill-rule="evenodd" d="M74.7947 71.8043C75.3562 71.447 76.0864 71.2504 76.8543 71.2504C77.6221 71.2504 78.3523 71.447 78.9139 71.8043C79.4666 72.1561 79.9467 72.7338 79.9467 73.4897V74.1296C79.9467 74.8856 79.4666 75.4633 78.9139 75.815C78.3523 76.1723 77.6221 76.369 76.8543 76.369C76.0864 76.369 75.3562 76.1723 74.7947 75.815C74.242 75.4633 73.7618 74.8856 73.7618 74.1296V73.4897C73.7618 72.7338 74.242 72.1561 74.7947 71.8043ZM76.8543 71.9968C75.5586 71.9968 74.5083 72.6652 74.5083 73.4897V74.1296C74.5083 74.9541 75.5586 75.6225 76.8543 75.6225C78.1499 75.6225 79.2002 74.9541 79.2002 74.1296V73.4897C79.2002 72.6652 78.1499 71.9968 76.8543 71.9968Z" clip-rule="evenodd"/><defs><linearGradient id="paint0_linear" x1="80" x2="80" y1="64" y2="96" gradientUnits="userSpaceOnUse"><stop stop-color="#54DADE"/><stop offset=".762" stop-color="#24C7D6"/></linearGradient><linearGradient id="paint1_linear" x1="77.782" x2="77.782" y1="72.558" y2="82.451" gradientUnits="userSpaceOnUse"><stop stop-color="#9F4A08"/><stop offset=".37" stop-color="#7D3900"/><stop offset="1" stop-color="#8D4104"/></linearGradient></defs></svg>