<svg xmlns="http://www.w3.org/2000/svg" width="96" height="96" fill="none" viewBox="0 0 96 96"><mask id="mask0" width="96" height="96" x="0" y="0" mask-type="alpha" maskUnits="userSpaceOnUse"><path fill="#C4C4C4" fill-rule="evenodd" d="M96 0H0V96H69.7487C64.4865 92.6215 61 86.7179 61 80C61 69.5066 69.5066 61 80 61C86.7179 61 92.6215 64.4865 96 69.7487V0Z" clip-rule="evenodd"/></mask><g mask="url(#mask0)"><circle cx="48.369" cy="48" r="48" fill="#fff"/><circle cx="48.369" cy="48" r="48" fill="#fff"/><path fill="#262F61" fill-rule="evenodd" d="M48.1846 92.0211C72.5988 92.0211 92.3904 72.2295 92.3904 47.8154C92.3904 23.4012 72.5988 3.60966 48.1846 3.60966C23.7705 3.60966 3.97889 23.4012 3.97889 47.8154C3.97889 72.2295 23.7705 92.0211 48.1846 92.0211ZM48.1846 94.1539C73.7766 94.1539 94.5231 73.4074 94.5231 47.8154C94.5231 22.2234 73.7766 1.47693 48.1846 1.47693C22.5926 1.47693 1.84616 22.2234 1.84616 47.8154C1.84616 73.4074 22.5926 94.1539 48.1846 94.1539Z" clip-rule="evenodd"/><path fill="#fff" d="M72.7385 23.1319C72.7385 20.5757 71.0208 19.7836 68.5517 19.1536C64.9553 18.1995 57.5301 16.6154 48.3692 16.6154C39.2084 16.6154 31.7831 18.1995 28.1868 19.1536C25.7177 19.8016 24 20.5757 24 23.1499L24 59.0086V59.0266V59.0446C24.0358 62.0329 25.4314 64.8591 27.7574 66.6232L46.9021 81.2224L48.3692 82.3384L49.8364 81.2224L68.9811 66.6232C71.325 64.8411 72.7385 61.9969 72.7385 59.0266V23.1319Z"/><path fill="#262F61" d="M48.3692 16.6154C39.1905 16.6154 31.7831 18.1999 28.1868 19.1542C25.7177 19.8025 24 20.5767 24 23.1336L24 59.0022V59.0202V59.0382C24.0358 62.0273 25.4314 64.8543 27.7574 66.6189L46.9021 81.222L48.3692 82.3384L49.8364 81.222L68.9811 66.6189C71.325 64.8363 72.7385 61.9913 72.7385 59.0202V23.1336C72.7385 20.5767 71.0208 19.7845 68.5517 19.1542C64.9553 18.1999 57.548 16.6154 48.3692 16.6154ZM47.8504 18.47L48.4229 20.2706H50.3016L48.7808 21.387L49.3533 23.1877L47.8325 22.0713L46.3116 23.1877L46.8842 21.387L45.3633 20.2706H47.242L47.8504 18.47ZM27.5427 21.0989L28.1152 22.8996H29.9939L28.4731 24.016L29.0456 25.8166L27.5248 24.7002L26.0039 25.8166L26.5765 24.016L25.0556 22.8996H26.9343L27.5427 21.0989ZM67.7107 21.0989L68.2833 22.8996H70.162L68.6411 24.016L69.2137 25.8166L67.6929 24.7002L66.172 25.8166L66.7446 24.016L65.2237 22.8996H67.1024L67.7107 21.0989ZM58.8541 24.106C59.033 24.124 59.2119 24.16 59.373 24.178C59.8918 24.25 60.3928 24.3221 60.8759 24.4121C61.359 24.4841 61.8421 24.5742 62.2894 24.6642L49.4964 34.4416V27.7433C51.5183 28.9497 52.8781 28.8236 53.7548 28.2654C54.2558 27.9413 54.5957 27.4732 54.8104 27.041C57.0112 27.6892 59.4266 26.3208 58.8541 24.106ZM35.3974 24.4841C35.4153 24.6642 35.451 24.8442 35.5047 25.0243V25.0423V25.0603C36.0594 26.7709 38.3317 27.6532 40.443 27.041C40.8366 27.8333 41.767 28.5355 43.0731 28.7156C43.9498 28.8416 45.0055 28.7156 46.1685 28.2474V36.9985L38.1528 43.1207C38.1707 42.9226 38.1885 42.7245 38.1885 42.4904V42.4184V42.2924V42.2384C39.0653 41.6982 39.8346 40.6358 40.2283 39.2853C40.4072 38.6911 40.4788 38.0969 40.4609 37.5387C40.2998 37.6107 40.1209 37.6647 39.9599 37.6828C39.5305 37.7728 39.1726 37.7368 39.1726 37.7368C39.8704 37.6828 40.3893 37.4127 40.7114 37.1606C40.8008 37.0705 40.9082 36.9805 41.0334 36.8545C41.7312 36.1342 42.1785 35.3239 42.4469 34.3516L43.7709 29.706C43.091 29.6339 42.4111 29.976 42.0533 30.5522L41.4092 31.5606L40.7829 32.551C40.6398 32.785 40.3893 33.0011 40.103 33.1632C39.6736 32.821 39.3158 32.551 39.0474 32.3349C39.0116 32.2989 38.9758 32.2629 38.9221 32.2448L38.5106 30.4982L39.1189 29.4179C39.2979 29.1117 39.3515 28.7516 39.2979 28.3915C39.2621 28.1754 39.1726 27.9773 39.0653 27.7793C38.9579 27.6352 38.7611 27.5992 38.618 27.6892L37.0971 28.6616C37.0613 28.6256 37.0077 28.5896 36.9719 28.5535C36.8824 28.4995 36.7751 28.4815 36.6677 28.4995C36.5067 28.5175 36.3456 28.6256 36.1488 28.7696L35.7552 29.0577L35.1827 29.4899L34.7353 29.4719L34.4312 29.4539C34.127 29.4539 34.0197 29.9941 34.288 30.3902C34.5206 30.7143 34.6996 31.1465 34.8248 31.6686V31.6866C34.8248 31.7227 34.8427 31.7587 34.8427 31.7947C34.8427 31.8307 34.8606 31.8487 34.8606 31.8847C34.9501 32.3709 35.0037 32.9111 35.0037 33.5413C35.0037 34.9098 34.2701 37.8448 33.3219 39.7535C33.2682 39.8435 33.2324 39.9155 33.1787 40.0056L32.463 41.194C32.3557 41.374 32.3736 41.6261 32.5167 41.8242C32.6062 41.9683 32.7672 42.0583 32.964 42.0583C32.964 42.0583 33.5366 42.7785 33.7155 44.165C33.805 44.7952 33.805 45.5695 33.626 46.4698L32.2841 47.4962L30.8527 48.5946L30.8527 25.3484C31.5326 25.1864 32.3199 25.0063 33.1787 24.8442C33.9123 24.7542 34.628 24.6282 35.3974 24.4841ZM69.7684 28.3015L69.16 28.7696L67.8539 29.778L69.7684 28.3015ZM65.0627 31.9207V67.0331L58.3889 72.1288L58.3889 37.0705L65.0627 31.9207ZM54.7747 32.821L55.3472 34.6217L57.2259 34.6217L55.7051 35.7381L56.2776 37.5387L54.7568 36.4223L53.2359 37.5387L53.8085 35.7381L52.2876 34.6217H54.1663L54.7747 32.821ZM27.5427 36.4043L28.1152 38.2049H29.9939L28.4731 39.3213L29.0456 41.122L27.5248 40.0056L26.0039 41.122L26.5765 39.3213L25.0556 38.2049H26.9343L27.5427 36.4043ZM51.7151 42.2203L51.7151 77.2246L48.3871 79.7635L45.0413 77.2066L45.0413 47.3521L38.3675 52.502V72.1108L42.7153 75.424L28.9025 64.8903L31.6937 67.015V57.6338L38.3675 52.4839L45.0413 47.3341L51.7151 42.2203ZM41.6596 42.3644L42.2501 44.165H44.1288L42.6079 45.2814L43.1805 47.0821L41.6596 45.9657L40.1388 47.0821L40.7292 45.2814L39.2084 44.165H41.0871L41.6596 42.3644ZM27.5427 52.574L28.1152 54.3746H29.9939L28.4731 55.491L29.0456 57.2916L27.5248 56.1752L26.0039 57.2916L26.5765 55.491L25.0556 54.3746H26.9343L27.5427 52.574ZM31.1927 58.0119L29.1709 59.5784L26.8449 61.3611L29.1709 59.5784L31.1927 58.0119ZM26.5228 61.6132C26.8449 62.5315 27.328 63.3598 27.9721 64.08C27.328 63.3598 26.8449 62.5135 26.5228 61.6132ZM69.2316 63.5218C69.2137 63.5578 69.1779 63.5938 69.16 63.6119C69.1421 63.6479 69.1063 63.6839 69.0884 63.7019C69.1063 63.6659 69.1421 63.6299 69.16 63.5938C69.1958 63.5758 69.2137 63.5578 69.2316 63.5218ZM68.5696 64.2961C68.3549 64.5122 68.1223 64.7102 67.8897 64.8903L65.349 66.817L67.8897 64.8723C68.1223 64.7102 68.3549 64.4942 68.5696 64.2961Z"/><path fill="#CE3524" d="M70.8923 55.2852V27.6923L69.3536 28.8592L65.2081 32.0008V67.0081L68.0502 64.8718C68.539 64.4948 68.9735 64.0819 69.3536 63.5971C70.3311 62.3584 70.8923 60.8145 70.8923 59.2167V55.2852ZM58.4559 37.1352L51.7037 42.2696L51.7037 77.1692L58.4559 72.0886L58.4559 37.1352ZM38.1811 52.5205L38.1811 72.0707L44.9334 77.1512L44.9334 47.3861L38.1811 52.5205ZM31.4289 57.6549L28.8946 59.5758L26.2154 61.6044C26.668 62.897 27.4826 64.046 28.5868 64.8718L31.4108 66.9902L31.4108 57.6549H31.4289Z"/></g><circle cx="80" cy="80" r="16" fill="url(#paint0_linear)"/><path fill="#606063" fill-rule="evenodd" d="M69.6072 81.758C69.6045 81.8177 69.6031 81.8777 69.6031 81.9379C69.6031 82.1653 69.6229 82.3899 69.6615 82.6111H69.6031V82.9593C69.6031 83.1292 69.6141 83.2976 69.6359 83.4642C70.0595 86.7145 74.5379 89.2719 80 89.2719C85.4621 89.2719 89.9405 86.7145 90.3641 83.4642C90.3859 83.2976 90.3969 83.1292 90.3969 82.9593V82.6111H90.3385C90.3771 82.3899 90.3969 82.1653 90.3969 81.9379C90.3969 81.8777 90.3955 81.8177 90.3928 81.758C90.2359 78.3548 85.643 75.6252 80 75.6252C74.357 75.6252 69.7641 78.3548 69.6072 81.758ZM68.7533 81.758C68.8307 79.6815 70.2417 77.9373 72.2055 76.7449C74.2413 75.5089 76.9992 74.7721 80 74.7721C83.0008 74.7721 85.7587 75.5089 87.7945 76.7449C89.7583 77.9373 91.1693 79.6815 91.2467 81.758H91.25V82.9593C91.25 85.1148 89.8148 86.9255 87.7945 88.1522C85.7587 89.3883 83.0008 90.125 80 90.125C76.9992 90.125 74.2413 89.3883 72.2055 88.1522C70.1852 86.9255 68.75 85.1148 68.75 82.9593V81.758H68.7533Z" clip-rule="evenodd"/><path fill="#BEBEBE" d="M90.3969 82.9594C90.3969 86.4458 85.7421 89.2721 80 89.2721C74.2579 89.2721 69.6031 86.4458 69.6031 82.9594V81.9601H90.3969V82.9594Z"/><path fill="#FAF9FA" d="M90.3969 81.9378C90.3969 85.4242 85.7421 88.2505 80 88.2505C74.2579 88.2505 69.6031 85.4242 69.6031 81.9378C69.6031 78.4514 74.2579 75.6251 80 75.6251C85.7421 75.6251 90.3969 78.4514 90.3969 81.9378Z"/><path fill="#633001" fill-rule="evenodd" d="M71.2027 80.1544C71.2027 80.1584 71.2027 80.1624 71.2027 80.1663C71.2027 80.4534 71.2443 80.7345 71.324 81.0075H71.2026V81.3772C71.2026 81.5404 71.216 81.7017 71.2423 81.8606C71.6387 84.2609 74.9548 86.1344 78.9869 86.1344C83.019 86.1344 86.3352 84.2609 86.7315 81.8606C86.7578 81.7017 86.7712 81.5404 86.7712 81.3772V81.0075H86.65C86.7275 80.7419 86.769 80.4687 86.7712 80.1898C86.7713 80.182 86.7713 80.1741 86.7713 80.1663C86.7713 80.1624 86.7713 80.1584 86.7713 80.1544C86.7608 77.5326 83.2797 75.4091 78.987 75.4091C74.6943 75.4091 71.2132 77.5326 71.2027 80.1544ZM70.3496 80.1544H70.3495V81.3772C70.3495 83.1005 71.4891 84.5226 73.0377 85.469C74.601 86.4244 76.7065 86.9875 78.9869 86.9875C81.2673 86.9875 83.3728 86.4244 84.9361 85.469C86.4848 84.5226 87.6243 83.1005 87.6243 81.3772V80.1929C87.6244 80.1841 87.6244 80.1752 87.6244 80.1663C87.6244 78.443 86.4849 77.021 84.9362 76.0745C83.3729 75.1192 81.2674 74.556 78.987 74.556C76.7066 74.556 74.6011 75.1192 73.0378 76.0745C71.4927 77.0188 70.3548 78.4365 70.3496 80.1544Z" clip-rule="evenodd"/><path fill="#FEDC90" d="M86.7712 81.3774C86.7712 84.0047 83.2861 86.1346 78.9869 86.1346C74.6878 86.1346 71.2026 84.0047 71.2026 81.3774V80.2612H86.7712V81.3774Z"/><path fill="#D1884F" d="M86.7712 80.1664C86.7712 82.7937 83.2861 84.9235 78.9869 84.9235C74.6878 84.9235 71.2026 82.7937 71.2026 80.1664C71.2026 77.539 74.6878 75.4092 78.9869 75.4092C83.2861 75.4092 86.7712 77.539 86.7712 80.1664Z"/><path fill="#633001" fill-rule="evenodd" d="M73.5487 77.5952C73.5487 77.5992 73.5487 77.6031 73.5487 77.6071C73.5487 77.8942 73.5903 78.1753 73.67 78.4483H73.5486V78.818C73.5486 78.9812 73.562 79.1425 73.5883 79.3014C73.9846 81.7017 77.3008 83.5752 81.3329 83.5752C85.365 83.5752 88.6811 81.7017 89.0775 79.3014C89.1038 79.1425 89.1172 78.9812 89.1172 78.818V78.4483H88.996C89.0735 78.1827 89.115 77.9095 89.1172 77.6306C89.1173 77.6228 89.1173 77.6149 89.1173 77.6071C89.1173 77.6031 89.1173 77.5992 89.1173 77.5952C89.1068 74.9734 85.6257 72.8499 81.333 72.8499C77.0403 72.8499 73.5592 74.9734 73.5487 77.5952ZM72.6956 77.5952H72.6955V78.818C72.6955 80.5413 73.835 81.9634 75.3837 82.9098C76.947 83.8652 79.0525 84.4283 81.3329 84.4283C83.6133 84.4283 85.7188 83.8652 87.2821 82.9098C88.8307 81.9634 89.9703 80.5413 89.9703 78.818V77.6337C89.9703 77.6249 89.9704 77.616 89.9704 77.6071C89.9704 75.8838 88.8308 74.4618 87.2822 73.5153C85.7188 72.56 83.6134 71.9968 81.333 71.9968C79.0526 71.9968 76.9471 72.56 75.3838 73.5153C73.8387 74.4596 72.7008 75.8773 72.6956 77.5952Z" clip-rule="evenodd"/><path fill="#FEDC90" d="M89.1172 78.8181C89.1172 81.4454 85.6321 83.5752 81.3329 83.5752C77.0337 83.5752 73.5486 81.4454 73.5486 78.8181V77.7019H89.1172V78.8181Z"/><path fill="#D1884F" d="M89.1172 77.607C89.1172 80.2344 85.6321 82.3642 81.3329 82.3642C77.0337 82.3642 73.5486 80.2344 73.5486 77.607C73.5486 74.9797 77.0337 72.8499 81.3329 72.8499C85.6321 72.8499 89.1172 74.9797 89.1172 77.607Z"/><path fill="#633001" fill-rule="evenodd" d="M71.2027 75.0359C71.2027 75.0399 71.2027 75.0438 71.2027 75.0478C71.2027 75.3348 71.2443 75.616 71.324 75.889H71.2026V76.2587C71.2026 76.4219 71.216 76.5832 71.2423 76.7421C71.6387 79.1424 74.9548 81.0159 78.9869 81.0159C83.019 81.0159 86.3352 79.1424 86.7315 76.7421C86.7578 76.5832 86.7712 76.4219 86.7712 76.2587V75.889H86.65C86.7275 75.6234 86.769 75.3502 86.7712 75.0712C86.7713 75.0634 86.7713 75.0556 86.7713 75.0478C86.7713 75.0438 86.7713 75.0399 86.7713 75.0359C86.7608 72.4141 83.2797 70.2906 78.987 70.2906C74.6943 70.2906 71.2132 72.4141 71.2027 75.0359ZM70.3496 75.0359H70.3495V76.2587C70.3495 77.982 71.4891 79.404 73.0377 80.3505C74.601 81.3059 76.7065 81.869 78.9869 81.869C81.2673 81.869 83.3728 81.3059 84.9361 80.3505C86.4848 79.404 87.6243 77.982 87.6243 76.2587V75.0744C87.6244 75.0655 87.6244 75.0567 87.6244 75.0478C87.6244 73.3245 86.4849 71.9024 84.9362 70.956C83.3729 70.0006 81.2674 69.4375 78.987 69.4375C76.7066 69.4375 74.6011 70.0006 73.0378 70.956C71.4927 71.9003 70.3548 73.3179 70.3496 75.0359Z" clip-rule="evenodd"/><path fill="#FEDC90" d="M86.7712 76.2587C86.7712 78.886 83.2861 81.0159 78.9869 81.0159C74.6878 81.0159 71.2026 78.886 71.2026 76.2587V75.1426H86.7712V76.2587Z"/><path fill="#D1884F" d="M86.7712 75.0478C86.7712 77.6751 83.2861 79.805 78.9869 79.805C74.6878 79.805 71.2026 77.6751 71.2026 75.0478C71.2026 72.4205 74.6878 70.2906 78.9869 70.2906C83.2861 70.2906 86.7712 72.4205 86.7712 75.0478Z"/><path fill="url(#paint1_linear)" fill-rule="evenodd" d="M73.044 75.3438C73.044 76.221 73.6813 77.0066 74.6869 77.5352L73.9902 78.7419L73.9903 78.7419H73.9902V81.7959C73.9902 82.1997 74.3176 82.5271 74.7214 82.5271C75.1252 82.5271 75.4526 82.1997 75.4526 81.7959V79.3671L76.2021 78.0689C76.6814 78.1705 77.1959 78.2257 77.7313 78.2257C80.32 78.2257 82.4186 76.9354 82.4186 75.3438C82.4186 73.7522 80.32 72.4619 77.7313 72.4619C75.1425 72.4619 73.044 73.7522 73.044 75.3438Z" clip-rule="evenodd"/><path fill="#633001" fill-rule="evenodd" d="M74.6868 77.5352C74.5755 77.4766 74.4686 77.4149 74.3666 77.3503C73.5479 76.8314 73.0439 76.1238 73.0439 75.3438C73.0439 73.7522 75.1425 72.4619 77.7313 72.4619C80.32 72.4619 82.4186 73.7522 82.4186 75.3438C82.4186 76.9354 80.32 78.2257 77.7313 78.2257C77.1958 78.2257 76.6814 78.1705 76.2021 78.0689L75.4526 79.3671V81.7959C75.4526 82.1997 75.1252 82.5271 74.7214 82.5271C74.3175 82.5271 73.9902 82.1997 73.9902 81.7959V78.7419L74.6868 77.5352ZM73.2437 78.7548V81.7959C73.2437 82.612 73.9053 83.2736 74.7214 83.2736C75.5375 83.2736 76.199 82.612 76.199 81.7959V79.5671L76.5878 78.8938C76.957 78.9452 77.3397 78.9722 77.7313 78.9722C79.1409 78.9722 80.4528 78.6224 81.4367 78.0175C82.4083 77.4201 83.165 76.4959 83.165 75.3438C83.165 74.1918 82.4083 73.2675 81.4367 72.6701C80.4528 72.0652 79.1409 71.7155 77.7313 71.7155C76.3216 71.7155 75.0097 72.0652 74.0259 72.6701C73.0542 73.2675 72.2975 74.1918 72.2975 75.3438C72.2975 76.3549 72.8766 77.1875 73.6812 77.7841L73.3489 78.3597C73.3172 78.4127 73.2919 78.47 73.2741 78.5305C73.2522 78.6043 73.2424 78.6799 73.2437 78.7548Z" clip-rule="evenodd"/><path fill="#9E7200" d="M74.5083 74.1295C74.5083 74.954 75.5586 75.6224 76.8543 75.6224C78.1499 75.6224 79.2002 74.954 79.2002 74.1295C79.2002 73.305 78.1499 72.6366 76.8543 72.6366C75.5586 72.6366 74.5083 73.305 74.5083 74.1295Z"/><path fill="#9E7200" d="M74.5083 73.4897H79.2002V74.1296H74.5083V73.4897Z"/><path fill="#F0B90B" d="M74.5083 73.4897C74.5083 74.3143 75.5586 74.9827 76.8543 74.9827C78.1499 74.9827 79.2002 74.3143 79.2002 73.4897C79.2002 72.6652 78.1499 71.9968 76.8543 71.9968C75.5586 71.9968 74.5083 72.6652 74.5083 73.4897Z"/><path fill="#9E7200" d="M75.964 73.3098L76.6253 72.889C76.765 72.8 76.9436 72.8 77.0833 72.889L77.7445 73.3098C77.8762 73.3936 77.8762 73.5858 77.7445 73.6696L77.0833 74.0904C76.9436 74.1793 76.765 74.1793 76.6253 74.0904L75.964 73.6696C75.8323 73.5858 75.8323 73.3936 75.964 73.3098Z"/><path fill="#633001" fill-rule="evenodd" d="M74.7947 71.8043C75.3562 71.447 76.0864 71.2504 76.8543 71.2504C77.6221 71.2504 78.3523 71.447 78.9139 71.8043C79.4666 72.1561 79.9467 72.7338 79.9467 73.4897V74.1296C79.9467 74.8856 79.4666 75.4633 78.9139 75.815C78.3523 76.1723 77.6221 76.369 76.8543 76.369C76.0864 76.369 75.3562 76.1723 74.7947 75.815C74.242 75.4633 73.7618 74.8856 73.7618 74.1296V73.4897C73.7618 72.7338 74.242 72.1561 74.7947 71.8043ZM76.8543 71.9968C75.5586 71.9968 74.5083 72.6652 74.5083 73.4897V74.1296C74.5083 74.9541 75.5586 75.6225 76.8543 75.6225C78.1499 75.6225 79.2002 74.9541 79.2002 74.1296V73.4897C79.2002 72.6652 78.1499 71.9968 76.8543 71.9968Z" clip-rule="evenodd"/><defs><linearGradient id="paint0_linear" x1="80" x2="80" y1="64" y2="96" gradientUnits="userSpaceOnUse"><stop stop-color="#54DADE"/><stop offset=".762" stop-color="#24C7D6"/></linearGradient><linearGradient id="paint1_linear" x1="77.782" x2="77.782" y1="72.558" y2="82.451" gradientUnits="userSpaceOnUse"><stop stop-color="#9F4A08"/><stop offset=".37" stop-color="#7D3900"/><stop offset="1" stop-color="#8D4104"/></linearGradient></defs></svg>