<svg width="96" height="96" viewBox="0 0 96 96" fill="none" xmlns="http://www.w3.org/2000/svg">
<mask id="mask0" mask-type="alpha" maskUnits="userSpaceOnUse" x="0" y="0" width="96" height="96">
<path fill-rule="evenodd" clip-rule="evenodd" d="M96 0H0V96H69.7487C64.4865 92.6215 61 86.7179 61 80C61 69.5066 69.5066 61 80 61C86.7179 61 92.6215 64.4865 96 69.7487V0Z" fill="#C4C4C4"/>
</mask>
<g mask="url(#mask0)">
<circle cx="48" cy="48" r="48" fill="#F8F3EB"/>
<path d="M15.7716 30.734C19.7322 30.734 23.6979 30.734 27.7044 30.734C27.7044 31.008 27.7044 31.251 27.7044 31.494C27.7096 32.5641 27.6483 33.6341 27.7351 34.699C27.8933 36.6582 28.4241 38.5348 29.2356 40.3234C29.9706 41.9466 30.9403 43.4199 32.1703 44.6864C33.7015 46.263 35.4878 47.4727 37.611 48.0982C37.7744 48.1448 37.8918 48.2119 37.8867 48.3928C37.8509 49.3751 37.999 50.3624 37.7846 51.3394C37.4273 52.9523 36.4831 54.0741 35.0081 54.7564C34.3344 55.0666 33.6198 55.1648 32.89 55.1648C30.4809 55.1648 28.0719 55.1648 25.6578 55.17C24.5247 55.1752 23.458 54.958 22.5291 54.2706C21.1306 53.2418 20.4875 51.8254 20.4875 50.0936C20.4875 45.3636 20.4875 40.6283 20.4875 35.8983C20.4875 35.7639 20.4927 35.6295 20.4875 35.4951C20.4569 34.8076 20.0435 34.4509 19.4413 34.2648C17.7774 33.753 16.6443 32.6261 15.8532 31.1011C15.8175 31.0287 15.7869 30.9512 15.7614 30.8685C15.7512 30.8426 15.7665 30.8064 15.7716 30.734ZM22.7435 41.3469C22.7384 42.2464 23.3661 42.9133 24.2338 42.9288C25.0657 42.9442 25.7803 42.2412 25.7956 41.3883C25.8109 40.5095 25.1116 39.7909 24.244 39.7857C23.5091 39.7806 22.6618 40.4113 22.7435 41.3469Z" fill="white"/>
<path d="M35.9575 41.3727C35.9472 42.1378 35.2786 42.8202 34.5386 42.815C33.773 42.815 33.0789 42.0965 33.0993 41.3314C33.1197 40.5663 33.7883 39.8839 34.5284 39.8943C35.2991 39.9046 36.0392 40.6283 35.9575 41.3727Z" fill="white"/>
<path d="M22.7435 41.3469C22.667 40.4112 23.5091 39.7805 24.2441 39.7857C25.1117 39.7909 25.811 40.5146 25.7956 41.3882C25.7804 42.2412 25.0658 42.9443 24.2339 42.9287C23.3662 42.9132 22.7333 42.2463 22.7435 41.3469Z" fill="black"/>
<path d="M81.0044 57.6151C80.9994 57.6151 81.0095 57.6151 81.0352 57.6151C81.0402 57.6151 81.0503 57.6151 81.0553 57.61C81.1012 57.5996 81.1521 57.5945 81.2036 57.5892C81.2803 57.5686 81.3619 57.5376 81.4329 57.5065C81.4738 57.46 81.5247 57.429 81.5812 57.4083C81.5762 57.4032 81.5762 57.4032 81.5712 57.398C82.2397 56.9276 82.229 56.2556 82.229 55.5732C82.224 52.4147 82.2347 49.251 82.219 46.0925C82.2139 45.0741 82.1071 44.066 81.7854 43.0838C80.6519 39.6048 77.4519 37.1493 73.7058 37.1131C69.6789 37.0718 65.6519 37.0614 61.6249 37.0511C54.7297 37.0304 47.8292 37.0252 40.9288 37.0097C40.8471 37.0097 40.7603 37.0201 40.6838 37.0097C40.5766 36.9942 40.4694 36.9683 40.3826 36.9477C40.2703 36.6117 40.398 36.4359 40.6684 36.3274C40.7756 36.286 40.8828 36.2395 40.9849 36.1878C42.8733 35.2159 44.1799 33.6909 45.0323 31.7576C45.3385 31.0597 45.6192 30.3359 45.6447 29.5503C45.6754 28.6456 45.2262 28.1803 44.3381 28.1751C42.6385 28.1596 40.9389 28.1545 39.2394 28.139C39.0812 28.139 38.9178 28.1235 38.7341 28.1131C38.7239 27.927 38.7086 27.7771 38.7086 27.6324C38.7086 26.8311 38.7188 26.0247 38.7034 25.2234C38.6933 24.8615 38.6678 24.4842 38.5707 24.1378C38.1574 22.5973 36.5599 21.4807 34.748 21.8477C33.4873 22.1062 32.3645 23.2745 32.2675 24.5669C32.196 25.5646 32.2113 26.5674 32.1909 27.5703C32.1858 27.7461 32.1705 27.9218 32.1603 28.1028H26.2092C26.2092 27.8908 26.2092 27.7099 26.2092 27.5342C26.2092 26.6657 26.2347 25.792 26.2041 24.9236C26.1224 22.7576 24.0656 21.2326 21.876 21.9615C20.5439 22.4061 19.6864 23.7191 19.7018 25.1614C19.712 25.9781 19.7069 26.8001 19.7018 27.622C19.7018 27.7823 19.6814 27.9425 19.6711 28.1338C19.4568 28.1338 19.2934 28.1338 19.1301 28.1338C17.4305 28.1441 15.7309 28.1545 14.0313 28.17C13.23 28.1751 12.7094 28.6817 12.7707 29.4882C12.8064 29.9793 12.9493 30.4704 13.1024 30.9408C13.8629 33.2774 15.2818 35.0815 17.4714 36.1878C17.9205 36.4152 18.0379 36.6582 18.0328 37.1338C18.0175 41.564 18.0124 45.9942 18.0328 50.4296C18.0379 51.0396 18.094 51.6754 18.2625 52.2596C19.1199 55.1493 21.0032 56.9379 23.943 57.5376C24.0196 57.5531 24.0809 57.5737 24.1319 57.6048C24.1574 57.61 24.1779 57.6203 24.2034 57.6306C24.234 57.6358 24.2697 57.6513 24.3003 57.6616C24.3514 57.6668 24.3973 57.6772 24.4382 57.6978C24.4483 57.6978 24.4586 57.703 24.4688 57.703C24.53 57.703 24.581 57.7133 24.627 57.7288C24.8515 57.734 25.071 57.7443 25.2905 57.7547C25.3517 57.7547 25.413 57.7547 25.4743 57.7598C25.8468 57.7443 26.2194 57.7496 26.5869 57.7496C26.6941 57.7392 26.7961 57.734 26.9033 57.734H31.5172C31.5172 57.7392 31.5172 57.7443 31.5172 57.7496C31.5887 57.7496 31.655 57.7547 31.7265 57.7651C31.7367 57.7651 31.7469 57.7651 31.7571 57.7651C32.3542 57.7857 32.7932 58.0494 33.0586 58.6077C33.2015 58.9075 33.3648 59.3159 33.3648 59.6829C33.3751 59.7243 33.3852 59.7708 33.3852 59.8173C33.3852 60.0861 33.3903 60.3601 33.4107 60.6289C33.4158 60.6703 33.4107 60.7064 33.4057 60.7427C33.4465 61.7765 33.4822 62.8156 33.523 63.8495C33.5792 65.4158 33.6506 66.9873 33.6966 68.5537C33.7323 69.7375 33.7323 70.9264 33.768 72.1102C33.8038 73.2889 34.651 74.209 35.7381 74.2194C38.2288 74.2349 40.7246 74.2349 43.2153 74.2194C44.0983 74.2142 44.8639 73.5732 45.068 72.6944C45.3181 71.6036 45.5427 70.5129 45.7825 69.4169C46.0276 68.3107 46.2827 67.2044 46.5277 66.0982C46.6247 66.0672 46.6553 66.0517 46.6911 66.0517C51.8256 66.0517 56.9601 66.0517 62.0946 66.0413C62.3906 66.0413 62.5028 66.1705 62.5539 66.4394C62.6968 67.1424 62.8499 67.8403 63.003 68.5433C63.2939 69.8822 63.595 71.216 63.8707 72.5549C64.0544 73.4646 64.8761 74.2142 65.7846 74.2194C68.2753 74.2297 70.7711 74.2297 73.2618 74.2194C74.2622 74.2142 75.1454 73.3147 75.1912 72.3015C75.2522 71.035 75.3238 69.7685 75.3904 68.502C75.4771 66.9201 75.5638 65.3331 75.6505 63.7513C75.7014 62.8363 75.7372 61.9161 75.7881 61.0011C75.8799 59.3831 75.9823 57.7702 76.069 56.1522C76.1657 54.3687 76.2424 52.5853 76.3341 50.7966C76.4108 49.282 76.5333 47.7622 76.554 46.2475C76.5842 44.0609 75.829 42.1326 74.4714 40.4474C74.4051 40.3647 74.3541 40.2665 74.2673 40.1321C74.3847 40.1218 74.4459 40.1062 74.5072 40.1165C77.1868 40.4836 79.3557 42.9959 79.3607 45.7409C79.3658 49.0493 79.3714 52.363 79.3557 55.6714C79.3507 56.3124 79.4374 56.8966 79.9068 57.3722C79.9124 57.3773 79.9124 57.3825 79.9124 57.3877C80.2794 57.5686 80.6218 57.6151 80.9893 57.6255C80.9994 57.6203 81.0044 57.6151 81.0044 57.6151ZM34.6918 25.0528C34.6969 24.6496 35.044 24.3239 35.4166 24.2929C35.7534 24.267 36.1618 24.5565 36.172 24.9339C36.2026 25.9781 36.1822 27.0224 36.1822 28.0976H34.6816C34.6867 27.0482 34.6714 26.0505 34.6918 25.0528ZM34.5336 39.8943C35.3043 39.9046 36.0392 40.6283 35.9627 41.3727C35.9525 42.1378 35.2839 42.8202 34.5438 42.815C33.7782 42.815 33.0841 42.0965 33.1045 41.3314C33.1198 40.5663 33.7936 39.884 34.5336 39.8943ZM22.1975 25.2648C22.1975 25.0838 22.2231 24.8925 22.2945 24.7323C22.4221 24.4428 22.8049 24.2515 23.0652 24.2981C23.4225 24.3704 23.7083 24.6754 23.7134 25.0735C23.7287 26.0247 23.7134 26.9707 23.7134 27.9218C23.7134 27.9684 23.6879 28.0149 23.6572 28.1183H22.2537C22.2333 28.0045 22.2027 27.9115 22.2027 27.8133C22.1924 26.9603 22.1924 26.1125 22.1975 25.2648ZM35.0134 54.7564C34.3396 55.0666 33.6251 55.1648 32.8953 55.1648C30.4862 55.1648 28.0772 55.1648 25.6631 55.17C24.53 55.1751 23.4633 54.958 22.5344 54.2705C21.1359 53.2418 20.4928 51.8254 20.4928 50.0936C20.4928 45.3635 20.4928 40.6283 20.4928 35.8983C20.4928 35.7639 20.498 35.6295 20.4928 35.4951C20.4622 34.8075 20.0488 34.4509 19.4465 34.2648C17.7827 33.753 16.6496 32.6261 15.8585 31.1011C15.8228 31.0287 15.7922 30.9511 15.7667 30.8684C15.7565 30.8426 15.7718 30.8064 15.7769 30.734H27.7098C27.7098 31.008 27.7098 31.2509 27.7098 31.4939C27.7148 32.564 27.6536 33.6341 27.7404 34.699C27.8986 36.6582 28.4294 38.5347 29.2409 40.3233C29.9758 41.9465 30.9456 43.4198 32.1756 44.6863C33.7068 46.263 35.4931 47.4727 37.6163 48.0982C37.7797 48.1447 37.8971 48.2119 37.892 48.3929C37.8562 49.375 38.0043 50.3624 37.7899 51.3394C37.4326 52.9523 36.4884 54.074 35.0134 54.7564ZM73.7211 47.0022C73.6191 48.5686 73.5528 50.1349 73.4711 51.7013C73.369 53.7019 73.2618 55.7024 73.1597 57.703C73.0423 59.9879 72.9199 62.2728 72.7973 64.5526C72.7208 65.9328 72.6391 67.3182 72.5575 68.6984C72.5064 69.5617 72.4554 70.425 72.3992 71.34H66.6268C65.9633 68.6571 65.4121 65.9328 64.7537 63.2033C64.5955 63.1878 64.4525 63.1671 64.3096 63.1671C57.7869 63.1671 51.2692 63.1671 44.7465 63.1671C44.2718 63.1671 44.2514 63.2085 44.1442 63.6944C43.8737 64.9143 43.5879 66.1292 43.3072 67.3492C43.0418 68.502 42.7815 69.6599 42.5263 70.8127C42.4089 71.3503 42.414 71.3607 41.8934 71.3607C40.2908 71.3607 38.6882 71.3607 37.0907 71.3607C36.5905 71.3607 36.5701 71.3452 36.5701 70.8179C36.5496 67.6904 36.5343 64.5681 36.5139 61.4405C36.5037 60.0551 36.4986 58.6645 36.4731 57.2791C36.468 56.9741 36.5599 56.8035 36.8201 56.6432C38.4177 55.6869 39.5201 54.3067 40.0815 52.5181C40.2551 51.9701 40.3316 51.3705 40.3316 50.7915C40.352 47.3951 40.3418 44.004 40.3418 40.6076C40.3418 40.4733 40.3469 40.3388 40.3418 40.2044C40.3367 39.977 40.4388 39.8632 40.6634 39.8632C40.7807 39.8632 40.893 39.8632 41.0104 39.8632C43.0673 39.8632 45.119 39.8632 47.1759 39.8632V39.8581H66.7544V39.9512C67.7292 39.9512 68.704 39.9459 69.6789 39.9459C70.0106 39.9459 70.2352 40.0545 70.4445 40.2975C70.8579 40.7731 71.2866 41.2384 71.7255 41.6881C73.1648 43.1769 73.8589 44.9241 73.7211 47.0022Z" fill="black"/>
<path d="M81.0553 58.3959H81.0452H81.0351H80.9685C80.5758 58.3804 80.1008 58.3339 79.5856 58.0806L79.2847 57.9307L79.2382 57.7653C78.6771 57.1088 78.6004 56.3385 78.6004 55.6613C78.6155 52.7096 78.6105 49.763 78.6054 46.8112V45.7308C78.6054 43.9887 77.5794 42.3449 76.1148 41.4763C76.9467 42.96 77.3551 44.5625 77.335 46.253C77.3193 47.3075 77.2583 48.3621 77.1967 49.3908C77.166 49.8715 77.1408 50.3523 77.1151 50.833L77.0233 52.6941C76.9674 53.8572 76.9109 55.0255 76.8499 56.1886C76.799 57.1139 76.7425 58.0393 76.6916 58.9646C76.6507 59.6573 76.6099 60.3448 76.5691 61.0375C76.5383 61.539 76.5182 62.0353 76.4924 62.5367C76.4723 62.9554 76.4516 63.3689 76.4315 63.7877C76.3856 64.7027 76.3341 65.6228 76.2832 66.5378L76.1248 69.4534C76.0739 70.4149 76.023 71.3712 75.9772 72.3328C75.9106 73.7647 74.6756 74.9795 73.2823 74.9847C70.7865 74.995 68.2906 74.995 65.7999 74.9847C64.5495 74.9795 63.4062 73.9973 63.1408 72.705C62.9571 71.7951 62.753 70.8853 62.5539 69.9755L62.1813 68.2644C62.0741 67.7785 61.972 67.2925 61.87 66.8066C58.0676 66.8118 54.2754 66.8118 50.4832 66.8118H47.1708L47.0687 67.2719C46.8952 68.037 46.7217 68.802 46.5532 69.5723C46.4613 69.991 46.3695 70.4149 46.2776 70.8336C46.1348 71.5057 45.9867 72.1829 45.8336 72.8549C45.5478 74.08 44.4607 74.9692 43.2408 74.9795C41.9138 74.9847 40.6481 74.9899 39.418 74.9899C38.1625 74.9899 36.9477 74.9847 35.7534 74.9795C34.2682 74.9692 33.0688 73.713 33.0229 72.1208C33.0075 71.5315 32.9974 70.9473 32.9871 70.358C32.9769 69.7584 32.9667 69.1639 32.9514 68.5642C32.9208 67.4993 32.8748 66.4344 32.834 65.3644L32.6554 60.6602L32.6656 60.624C32.6452 60.35 32.6401 60.0915 32.6401 59.8486L32.6197 59.7762V59.6625C32.6197 59.5488 32.5788 59.3316 32.39 58.9232C32.2573 58.6441 32.0837 58.5355 31.752 58.52L31.6704 58.5148C31.6193 58.5097 31.5683 58.5045 31.5172 58.5045L30.818 58.489H26.9237C26.8319 58.489 26.7553 58.4942 26.6838 58.4993L26.6073 58.5045H26.4746C26.1582 58.5045 25.8417 58.5045 25.5253 58.5148H25.4947H25.464C25.4181 58.5148 25.3772 58.5097 25.3262 58.5097C25.0659 58.4993 24.8464 58.489 24.627 58.4838L24.1166 58.4011L23.7747 58.2564C20.6102 57.6205 18.5024 55.6665 17.553 52.4614C17.3795 51.8721 17.2927 51.2001 17.2876 50.4143C17.2672 46.1702 17.2672 41.6987 17.2876 37.1134C17.2876 37.0048 17.2774 36.9531 17.2774 36.9376C17.2723 36.9376 17.2366 36.9118 17.1498 36.8652C14.848 35.7021 13.2453 33.7842 12.393 31.1685C12.2297 30.6619 12.0664 30.1088 12.0255 29.5298C11.9847 28.9456 12.1531 28.408 12.5104 28.0151C12.8779 27.6119 13.424 27.3845 14.0467 27.3793C15.3073 27.369 16.568 27.3586 17.8337 27.3535L18.9617 27.3483V27.1984C18.9668 26.5212 18.9668 25.844 18.9617 25.1616C18.9412 23.3471 20.0233 21.7601 21.6616 21.2173C22.9274 20.7986 24.2493 20.9795 25.2956 21.7136C26.3266 22.4373 26.9441 23.5953 26.9952 24.8825C27.0207 25.4976 27.0105 26.118 27.0054 26.7124C27.0054 26.914 27.0003 27.1157 27.0003 27.3173H31.4458C31.4509 27.0743 31.4509 26.8365 31.456 26.5935C31.4611 25.9112 31.4713 25.203 31.5223 24.4947C31.6397 22.8819 32.9719 21.4086 34.6153 21.0726C36.7181 20.6435 38.7851 21.8945 39.3262 23.9209C39.4231 24.2828 39.469 24.6757 39.4844 25.1926C39.4946 25.7354 39.4946 26.2782 39.4946 26.821C39.4946 26.9968 39.4946 27.1777 39.4946 27.3535L41.3269 27.3638C42.3425 27.369 43.3531 27.3741 44.3688 27.3845C45.0271 27.3896 45.5427 27.5912 45.9101 27.979C46.2776 28.3666 46.4512 28.8991 46.4308 29.5659C46.4002 30.512 46.0632 31.3495 45.7519 32.0628C44.9761 33.8359 43.8533 35.2317 42.414 36.2346L47.2014 36.2449C52.0195 36.2501 56.8427 36.2604 61.6607 36.2707C66.147 36.2811 69.9187 36.2966 73.7467 36.3328C77.7585 36.3689 81.2953 38.9847 82.5456 42.8359C82.8573 43.7975 83.0156 44.8572 83.0206 46.0823C83.0307 48.0209 83.0307 49.9646 83.0257 51.9031C83.0257 53.1231 83.0257 54.3431 83.0257 55.5631C83.0257 56.0697 83.0257 56.6797 82.7398 57.238L81.0553 58.3959ZM34.1763 60.7739L34.3448 65.3075C34.3856 66.3776 34.4264 67.4476 34.4622 68.5177C34.4826 69.1225 34.4877 69.7274 34.4979 70.3322C34.5081 70.9112 34.5183 71.4953 34.5336 72.0743C34.554 72.8446 35.0746 73.4235 35.7432 73.4287C38.0961 73.4442 40.5357 73.4442 43.2153 73.4287C43.7359 73.4235 44.2054 73.0358 44.328 72.5034C44.4811 71.8417 44.624 71.1748 44.7669 70.5079C44.8588 70.0841 44.9506 69.6602 45.0425 69.2363C45.2109 68.466 45.3896 67.7009 45.5631 66.9307L45.8949 65.4729L46.3848 65.323C46.4512 65.3023 46.5584 65.261 46.7063 65.261H50.4781C54.3571 65.261 58.2309 65.261 62.1099 65.2558C62.1099 65.2558 62.1099 65.2558 62.115 65.2558C62.753 65.2558 63.1918 65.628 63.3245 66.2742C63.4369 66.8273 63.5543 67.3753 63.6767 67.9284L64.0493 69.6343C64.2534 70.5493 64.4525 71.4694 64.6414 72.3845C64.7587 72.9583 65.2845 73.4287 65.8102 73.4287C68.3008 73.4391 70.7915 73.4391 73.2823 73.4287C73.8641 73.4287 74.4204 72.8652 74.451 72.2501C74.4969 71.2834 74.548 70.3219 74.599 69.3604L74.7572 66.4448C74.8083 65.5298 74.8594 64.6148 74.9053 63.6998C74.9254 63.2862 74.9461 62.8727 74.9662 62.4591C74.992 61.9525 75.0127 61.4511 75.0429 60.9445C75.0837 60.2518 75.1246 59.5591 75.1654 58.8663C75.2219 57.9462 75.2779 57.0209 75.3237 56.1007C75.3853 54.9376 75.4412 53.7745 75.4971 52.6113L75.5889 50.7503C75.6146 50.2644 75.6404 49.7785 75.6706 49.2926C75.7321 48.2845 75.7931 47.2455 75.8088 46.2271C75.8339 44.3196 75.1912 42.5361 73.8998 40.9232C73.8334 40.8405 73.7773 40.7578 73.716 40.6493L72.9454 39.4396L74.3183 39.3414C74.3949 39.331 74.5072 39.3207 74.6348 39.3362C77.6718 39.7549 80.1467 42.624 80.1517 45.7256V46.8061C80.1574 49.7578 80.1574 52.7096 80.1467 55.6613C80.1467 56.1938 80.2133 56.4988 80.4024 56.7314C80.5243 56.7779 80.6418 56.8037 80.775 56.8192L81.0094 56.8348C81.0301 56.8296 81.0502 56.8296 81.0659 56.8245C81.081 56.8141 81.0961 56.8037 81.1118 56.7934L81.1577 56.7624C81.4586 56.5504 81.4894 56.292 81.4844 55.6148C81.4844 54.3586 81.4844 53.1386 81.4844 51.9135C81.4844 49.9749 81.4844 48.0364 81.4794 46.0979C81.4737 45.0381 81.3462 44.1283 81.081 43.327C80.0349 40.1064 77.0742 37.9198 73.7211 37.8888C69.8984 37.8526 66.1317 37.8371 61.6454 37.8268C56.8274 37.8164 52.0042 37.806 47.1861 37.8009L40.9441 37.7905H40.8879C40.791 37.7905 40.694 37.7957 40.597 37.7802C40.495 37.7647 40.3929 37.7441 40.301 37.7233L39.811 37.62L39.6681 37.2064C39.4334 36.5137 39.714 35.8882 40.3929 35.6142C40.4796 35.578 40.5664 35.5419 40.6481 35.5005C42.3068 34.6475 43.5164 33.319 44.3433 31.4424C44.6087 30.8376 44.8689 30.1915 44.8894 29.5298C44.8944 29.3075 44.8588 29.142 44.7924 29.0697C44.7261 28.9973 44.5576 28.956 44.3433 28.956C43.3327 28.9456 42.317 28.9405 41.3064 28.9353L39.2445 28.9198C39.1271 28.9198 39.0046 28.9095 38.877 28.9043L38.0196 28.8577L37.9736 27.9945C37.9634 27.8652 37.9583 27.7515 37.9583 27.6378C37.9583 27.369 37.9583 27.1001 37.9583 26.8313C37.9583 26.3041 37.9634 25.7768 37.9481 25.2495C37.943 25.0065 37.9277 24.6498 37.846 24.3448C37.5551 23.2592 36.3812 22.3132 34.9113 22.6131C33.9467 22.8095 33.1096 23.7142 33.0433 24.6291C32.9974 25.2857 32.9871 25.937 32.982 26.6297C32.9769 26.9502 32.9769 27.2759 32.9667 27.5964C32.9463 27.7205 32.9361 27.8549 32.9259 27.9893L32.8748 28.8785H25.4436V27.5344C25.4436 27.2604 25.4487 26.9864 25.4487 26.7124C25.4538 26.1335 25.4589 25.5338 25.4385 24.9548C25.4079 24.1587 25.0302 23.4453 24.3973 23.0008C23.7491 22.5459 22.9172 22.4373 22.1108 22.7009C21.1105 23.0318 20.452 24.0192 20.4622 25.1513C20.4725 25.8388 20.4673 26.5263 20.4622 27.2139V27.6223C20.4622 27.7515 20.452 27.8756 20.4418 28.0151L20.3806 28.9043L17.8133 28.9146C16.5527 28.925 15.292 28.9301 14.0314 28.9405C13.8425 28.9405 13.6894 28.9922 13.6077 29.0801C13.5363 29.1731 13.5261 29.323 13.5312 29.4316C13.5618 29.84 13.6894 30.2845 13.8272 30.6981C14.5468 32.9054 15.8892 34.5183 17.8133 35.4901C18.4972 35.8365 18.8035 36.3431 18.7984 37.134C18.7779 41.7142 18.7779 46.1806 18.7984 50.4195C18.8035 51.0605 18.8647 51.5878 18.9974 52.0324C19.7834 54.6843 21.4524 56.2351 24.0962 56.7727C24.2136 56.7986 24.331 56.8348 24.4331 56.8865C24.4432 56.8916 24.4483 56.8916 24.4586 56.8968C24.4739 56.902 24.4892 56.9072 24.5045 56.9123C24.5351 56.9175 24.5658 56.9278 24.5964 56.933C24.6423 56.9382 24.6882 56.9433 24.7342 56.9537C24.9332 56.9588 25.1323 56.9692 25.3313 56.9743C25.362 56.9743 25.4232 56.9743 25.4844 56.9743C25.8111 56.964 26.1378 56.964 26.4644 56.964H26.5614C26.6838 56.9537 26.8063 56.9485 26.9288 56.9485H32.293V57.0416C32.9514 57.1966 33.4516 57.6102 33.7578 58.2564C33.9109 58.582 34.1151 59.068 34.1355 59.5746C34.1508 59.6521 34.1559 59.7297 34.1559 59.8021C34.1559 60.045 34.1559 60.2983 34.1814 60.5413C34.1865 60.624 34.1814 60.7015 34.1763 60.7739ZM24.137 58.4063C24.1523 58.4115 24.1677 58.4166 24.1778 58.4218L24.137 58.4063ZM37.0856 72.1466C36.1669 72.1466 35.8045 71.7796 35.7993 70.8336L35.7432 60.929C35.7381 59.7194 35.7279 58.5097 35.7075 57.3052C35.6973 56.721 35.932 56.2868 36.4323 55.987C37.8665 55.1289 38.8515 53.883 39.3568 52.296C39.4946 51.8618 39.5711 51.3448 39.5711 50.802C39.5865 48.2587 39.5865 45.7153 39.5865 43.1719V40.6234V40.4735C39.5865 40.396 39.5865 40.3236 39.5865 40.246C39.5711 39.8273 39.7396 39.5688 39.8774 39.4189C40.0152 39.2742 40.2602 39.0881 40.6787 39.1036H42.2507C43.7053 39.1036 45.165 39.1036 46.6196 39.1036H47.181H67.525V39.1967C68.2447 39.1967 68.9592 39.1914 69.6789 39.1914C69.684 39.1914 69.684 39.1914 69.6891 39.1914C70.225 39.1914 70.6639 39.3931 71.0212 39.8118C71.404 40.2512 71.8226 40.7061 72.2717 41.1714C73.8896 42.8256 74.6296 44.8106 74.4817 47.0645C74.4102 48.1553 74.354 49.2461 74.303 50.3368L73.9202 57.755C73.8028 60.0398 73.6803 62.3247 73.5578 64.6096C73.4966 65.7521 73.4302 66.8894 73.3639 68.0318L73.1189 72.1363H66.0245L65.8816 71.5522C65.5193 70.0944 65.1875 68.6004 64.8659 67.1582C64.6312 66.0985 64.3913 65.0335 64.1412 63.9634C57.7154 63.9634 51.2948 63.9583 44.8689 63.9634C44.7056 64.7078 44.5321 65.4522 44.3586 66.1967L43.9962 67.763C43.7512 68.8434 43.5062 69.9238 43.2663 71.0042C43.0724 71.8933 42.7509 72.157 41.8883 72.157L37.0856 72.1466ZM37.2386 57.3052C37.2591 58.5355 37.2693 59.7297 37.2744 60.9187L37.3306 70.5958H41.7913C42.0261 69.5154 42.2711 68.4609 42.511 67.4011L42.8733 65.8296C43.052 65.0645 43.2255 64.2994 43.394 63.5344C43.5573 62.8003 43.8176 62.3971 44.7414 62.3971C51.2641 62.3971 57.7869 62.3971 64.3045 62.3971C64.427 62.3971 64.5495 62.4074 64.6771 62.4229L65.361 62.485L65.4937 63.0278C65.7948 64.2891 66.0756 65.5505 66.3562 66.8015C66.6319 68.0421 66.9177 69.319 67.2189 70.5752H71.6745L71.8327 67.9336C71.8991 66.7963 71.9654 65.659 72.0267 64.5166C72.1492 62.2317 72.2717 59.9519 72.389 57.667L72.7718 50.2541C72.828 49.153 72.879 48.0519 72.9505 46.956C73.073 45.1363 72.4911 43.601 71.1794 42.257C70.7099 41.7762 70.2658 41.2954 69.8677 40.8302C69.7912 40.7423 69.781 40.7423 69.6789 40.7423C68.7041 40.7475 67.7292 40.7475 66.7543 40.7475H65.9888V40.6544L47.1759 40.6596C45.5324 40.6596 43.889 40.6596 42.2456 40.6596H41.1074V43.1719C41.1074 45.7205 41.1125 48.269 41.0921 50.8175C41.087 51.5154 40.9849 52.1926 40.8011 52.7716C40.1938 54.7205 38.9893 56.2455 37.2386 57.3052ZM40.6684 40.6544C40.6634 40.6544 40.6634 40.6544 40.6684 40.6544V40.6544ZM25.6426 55.9456C24.2085 55.9456 23.0397 55.6044 22.0853 54.8962C20.5235 53.7487 19.7324 52.1306 19.7273 50.0886C19.7273 46.7751 19.7273 43.4614 19.7273 40.153V35.7797C19.7273 35.697 19.7273 35.609 19.7273 35.5264C19.7171 35.3144 19.6763 35.1438 19.222 35.0042C17.4765 34.4666 16.1137 33.2725 15.1797 31.458C15.1236 31.3495 15.0776 31.2305 15.0368 31.1116C14.9705 30.91 15.0011 30.7394 15.0113 30.667L15.1185 30.0209L15.7769 29.9537H28.4753V31.489C28.4753 31.825 28.4702 32.161 28.4702 32.497C28.46 33.2363 28.4498 33.9393 28.506 34.6372C28.6488 36.4206 29.1337 38.2248 29.9402 40.0031C30.6598 41.5901 31.5989 42.9858 32.7269 44.149C34.2886 45.7567 35.9576 46.8061 37.8358 47.3592C38.632 47.597 38.6677 48.238 38.6627 48.4293C38.6524 48.7446 38.6576 49.0548 38.6677 49.3701C38.6882 50.0576 38.7035 50.7711 38.5401 51.5154C38.1319 53.3454 37.0549 54.6739 35.3298 55.4649C34.6255 55.7905 33.8548 55.9405 32.8953 55.9405H30.2668C28.7356 55.9405 27.1994 55.9405 25.6682 55.9456C25.658 55.9456 25.6529 55.9456 25.6426 55.9456ZM16.9916 31.5097C17.6857 32.5229 18.5687 33.1846 19.666 33.5258C20.993 33.9342 21.2329 34.9163 21.2533 35.4695C21.2584 35.578 21.2584 35.6917 21.2584 35.8003V40.1633C21.2584 43.4769 21.2584 46.7854 21.2584 50.099C21.2584 51.6343 21.825 52.7974 22.9835 53.6504C23.6828 54.1673 24.5453 54.4 25.6631 54.4C27.1994 54.3948 28.7305 54.3948 30.2668 54.3948H32.8953C33.6251 54.3948 34.1968 54.2863 34.697 54.0588C35.978 53.4695 36.7487 52.5235 37.0447 51.1742C37.1672 50.6211 37.1519 50.0318 37.1366 49.4114C37.1315 49.1943 37.1264 48.9773 37.1264 48.7601C35.1206 48.1088 33.278 46.9301 31.6346 45.2345C30.3842 43.9473 29.343 42.4017 28.5519 40.6493C27.6689 38.7056 27.1432 36.7257 26.985 34.7612C26.9237 33.991 26.934 33.2207 26.9441 32.4764C26.9492 32.1559 26.9544 31.8302 26.9492 31.5097H16.9916ZM34.5438 43.5958H34.5387C33.9671 43.5958 33.3955 43.3425 32.9719 42.9031C32.5533 42.4689 32.3185 41.8899 32.3339 41.3161C32.3645 40.1219 33.3597 39.1243 34.5132 39.1243C34.5234 39.1243 34.5336 39.1243 34.5387 39.1243C35.1461 39.1346 35.7688 39.4293 36.1924 39.9152C36.5803 40.3546 36.764 40.8922 36.7181 41.4247C36.6926 42.6033 35.7024 43.5958 34.5438 43.5958ZM34.5132 40.6699C34.1968 40.6699 33.8752 41.0111 33.865 41.3523C33.8599 41.5074 33.9364 41.6832 34.0691 41.8175C34.2018 41.9571 34.3805 42.045 34.5438 42.045C34.8603 42.045 35.1869 41.7038 35.192 41.3678L35.1971 41.2954C35.2073 41.192 35.1512 41.0576 35.0491 40.9439C34.9062 40.7837 34.7021 40.6751 34.5183 40.6751C34.5183 40.6699 34.5183 40.6699 34.5132 40.6699ZM24.2289 28.8887H21.6106L21.483 28.1754C21.4626 28.0823 21.4371 27.9583 21.4371 27.8135C21.432 26.9606 21.4269 26.1076 21.4371 25.2547C21.4422 24.9341 21.4932 24.655 21.5953 24.4172C21.8607 23.8124 22.5854 23.4143 23.2081 23.5384C23.9431 23.6831 24.4637 24.3086 24.4739 25.0634C24.4841 25.8026 24.479 26.547 24.4739 27.2863L24.4688 27.9221C24.4688 28.0823 24.4279 28.2064 24.4024 28.2788L24.2289 28.8887ZM23.004 25.0634C23.004 25.0634 22.9989 25.0634 22.9989 25.0686C23.004 25.0634 23.009 25.0634 23.004 25.0634C23.009 25.0634 23.009 25.0634 23.004 25.0634ZM36.9529 28.8785H33.9212V27.2035C33.9212 26.4695 33.916 25.7561 33.9314 25.0427C33.9467 24.2569 34.5744 23.5849 35.3605 23.5229C35.7483 23.4919 36.1618 23.6418 36.4731 23.9209C36.7691 24.1898 36.9375 24.5413 36.9477 24.9186C36.9681 25.6786 36.9681 26.4488 36.9631 27.1932L36.9529 28.8785Z" fill="black"/>
<path d="M71.7305 41.7088C71.2916 41.259 70.8628 40.7938 70.4494 40.3182C70.235 40.0752 70.0156 39.9615 69.6838 39.9667C69.005 39.9719 68.3313 39.9719 67.6525 39.9719V39.8995H48.8396C48.6763 39.8943 48.5078 39.884 48.3445 39.884C45.8998 39.8788 43.455 39.8788 41.0153 39.8788C40.898 39.8788 40.7857 39.8788 40.6683 39.8788C40.4437 39.8788 40.3366 39.9925 40.3467 40.22C40.3518 40.3544 40.3467 40.4888 40.3467 40.6232C40.3467 44.0196 40.357 47.4107 40.3366 50.807C40.3314 51.386 40.2549 51.9856 40.0864 52.5336C39.5199 54.317 38.4226 55.7025 36.8251 56.6588C36.5597 56.8191 36.4729 56.9897 36.478 57.2946C36.5035 58.6801 36.5087 60.0707 36.5188 61.4561C36.5393 64.5836 36.5546 67.7059 36.575 70.8334C36.5801 71.3607 36.5954 71.3762 37.0956 71.3762C38.6982 71.3762 40.3008 71.3762 41.8983 71.3762C42.4189 71.3762 42.4138 71.3659 42.5312 70.8283C42.7864 69.6703 43.0467 68.5175 43.3121 67.3648C43.5877 66.1447 43.8786 64.9299 44.1491 63.71C44.2563 63.224 44.2767 63.1826 44.7514 63.1826C51.2741 63.1826 57.7918 63.1826 64.3145 63.1826C64.4575 63.1826 64.6003 63.2034 64.7585 63.2188C65.417 65.9535 65.9631 68.6726 66.6317 71.3555C68.5814 71.3555 70.4596 71.3555 72.4042 71.3555C72.4603 70.4406 72.5114 69.5773 72.5624 68.7139C72.6441 67.3337 72.7258 65.9483 72.8023 64.5681C72.9247 62.2832 73.0473 59.9983 73.1646 57.7185C73.2718 55.718 73.3739 53.7174 73.476 51.7168C73.5576 50.1505 73.624 48.5841 73.7261 47.0178C73.8588 44.9242 73.1646 43.1769 71.7305 41.7088Z" fill="white"/>
<path d="M50.6004 48.4653C53.4587 48.4653 55.7758 46.1184 55.7758 43.2234C55.7758 40.3285 53.4587 37.9816 50.6004 37.9816C47.7422 37.9816 45.4251 40.3285 45.4251 43.2234C45.4251 46.1184 47.7422 48.4653 50.6004 48.4653Z" fill="black"/>
<path d="M65.3507 58.8196C67.7551 58.8196 69.7043 56.8454 69.7043 54.4101C69.7043 51.9748 67.7551 50.0006 65.3507 50.0006C62.9463 50.0006 60.9971 51.9748 60.9971 54.4101C60.9971 56.8454 62.9463 58.8196 65.3507 58.8196Z" fill="black"/>
<path d="M50.7178 64.8369C53.1115 64.7593 55.4644 65.0902 57.8224 65.4314C57.8837 65.4314 57.9449 65.4314 58.001 65.4314C58.0521 65.085 58.0827 64.7283 58.0827 64.3664C58.0827 60.4997 54.9847 57.3619 51.1669 57.3619C47.3493 57.3619 44.2512 60.4997 44.2512 64.3664C44.2512 65.0489 44.3482 65.7053 44.5268 66.3309C46.1447 64.6818 48.615 64.9041 50.7178 64.8369Z" fill="black"/>
<path d="M53.9539 37.6249C53.7957 37.6249 53.6476 37.6042 53.4996 37.5628C52.9025 38.2297 52.5503 39.0309 52.5503 39.8891C52.5503 42.2257 55.1329 44.1229 58.3228 44.1229C61.5076 44.1229 64.0953 42.2257 64.0953 39.8891C64.0953 39.0568 63.7686 38.2814 63.2021 37.6249H53.9539Z" fill="black"/>
<path d="M33.1045 41.3469C33.0279 40.4112 33.8701 39.7805 34.605 39.7857C35.4727 39.7909 36.1719 40.5146 36.1566 41.3882C36.1413 42.2412 35.4267 42.9443 34.5948 42.9287C33.7271 42.9132 33.0994 42.2463 33.1045 41.3469Z" fill="white"/>
<path d="M23.8408 27.4255C23.1314 27.4255 22.4526 27.4255 21.7482 27.4255C21.7176 27.2808 21.6717 27.1568 21.6717 27.0327C21.6665 25.9419 21.6615 26.2624 21.6717 25.1717C21.6768 24.9442 21.7074 24.6961 21.8146 24.4893C22.0034 24.1171 22.575 23.869 22.9579 23.931C23.4938 24.0189 23.9123 24.417 23.9225 24.9287C23.9429 26.1487 23.9276 25.9574 23.9225 27.1774C23.9225 27.2343 23.8868 27.2963 23.8408 27.4255Z" fill="white"/>
<path d="M36.4781 27.4255C35.7687 27.4255 35.0898 27.4255 34.3855 27.4255C34.3549 27.2808 34.309 27.1568 34.309 27.0327C34.3038 25.9419 34.2987 26.2624 34.309 25.1717C34.3141 24.9442 34.3446 24.6961 34.4518 24.4893C34.6407 24.1171 35.2123 23.869 35.5951 23.931C36.131 24.0189 36.5495 24.417 36.5597 24.9287C36.5801 26.1487 36.5649 25.9574 36.5597 27.1774C36.5597 27.2343 36.524 27.2963 36.4781 27.4255Z" fill="white"/>
</g>
<circle cx="80" cy="80" r="16" fill="url(#paint0_linear)"/>
<path fill-rule="evenodd" clip-rule="evenodd" d="M69.6072 81.7579C69.6045 81.8177 69.6031 81.8777 69.6031 81.9378C69.6031 82.1653 69.6229 82.3899 69.6615 82.611H69.6031V82.9592C69.6031 83.1292 69.6141 83.2976 69.6359 83.4641C70.0595 86.7145 74.5379 89.2719 80 89.2719C85.4621 89.2719 89.9405 86.7145 90.3641 83.4641C90.3859 83.2976 90.3969 83.1292 90.3969 82.9592V82.611H90.3385C90.3771 82.3899 90.3969 82.1653 90.3969 81.9378C90.3969 81.8777 90.3955 81.8177 90.3928 81.7579C90.2359 78.3547 85.643 75.6252 80 75.6252C74.357 75.6252 69.7641 78.3547 69.6072 81.7579ZM68.7533 81.7579C68.8307 79.6815 70.2417 77.9373 72.2055 76.7449C74.2413 75.5088 76.9992 74.7721 80 74.7721C83.0008 74.7721 85.7587 75.5088 87.7945 76.7449C89.7583 77.9373 91.1693 79.6815 91.2467 81.7579H91.25V82.9592C91.25 85.1148 89.8148 86.9255 87.7945 88.1522C85.7587 89.3882 83.0008 90.125 80 90.125C76.9992 90.125 74.2413 89.3882 72.2055 88.1522C70.1852 86.9255 68.75 85.1148 68.75 82.9592V81.7579H68.7533Z" fill="#606063"/>
<path d="M90.3969 82.9594C90.3969 86.4458 85.7421 89.2721 80 89.2721C74.2579 89.2721 69.6031 86.4458 69.6031 82.9594V81.9601H90.3969V82.9594Z" fill="#BEBEBE"/>
<path d="M90.3969 81.9378C90.3969 85.4242 85.7421 88.2505 80 88.2505C74.2579 88.2505 69.6031 85.4242 69.6031 81.9378C69.6031 78.4514 74.2579 75.6252 80 75.6252C85.7421 75.6252 90.3969 78.4514 90.3969 81.9378Z" fill="#FAF9FA"/>
<path fill-rule="evenodd" clip-rule="evenodd" d="M71.2027 80.1545C71.2027 80.1585 71.2027 80.1624 71.2027 80.1664C71.2027 80.4534 71.2443 80.7346 71.3241 81.0076H71.2026V81.3773C71.2026 81.5405 71.2161 81.7017 71.2423 81.8607C71.6387 84.261 74.9548 86.1345 78.9869 86.1345C83.0191 86.1345 86.3352 84.261 86.7316 81.8607C86.7578 81.7017 86.7713 81.5405 86.7713 81.3773V81.0076H86.65C86.7276 80.742 86.7691 80.4688 86.7713 80.1898C86.7713 80.182 86.7713 80.1742 86.7713 80.1664C86.7713 80.1624 86.7713 80.1585 86.7713 80.1545C86.7609 77.5326 83.2797 75.4092 78.987 75.4092C74.6943 75.4092 71.2132 77.5326 71.2027 80.1545ZM70.3497 80.1545H70.3495V81.3773C70.3495 83.1006 71.4891 84.5226 73.0378 85.4691C74.6011 86.4244 76.7066 86.9876 78.9869 86.9876C81.2673 86.9876 83.3728 86.4244 84.9361 85.4691C86.4848 84.5226 87.6243 83.1006 87.6243 81.3773V80.193C87.6244 80.1841 87.6244 80.1752 87.6244 80.1664C87.6244 78.4431 86.4849 77.021 84.9362 76.0746C83.3729 75.1192 81.2674 74.5561 78.987 74.5561C76.7066 74.5561 74.6012 75.1192 73.0379 76.0746C71.4927 77.0189 70.3549 78.4365 70.3497 80.1545Z" fill="#633001"/>
<path d="M86.7713 81.3773C86.7713 84.0047 83.2861 86.1345 78.987 86.1345C74.6878 86.1345 71.2026 84.0047 71.2026 81.3773V80.2612H86.7713V81.3773Z" fill="#FEDC90"/>
<path d="M86.7713 80.1664C86.7713 82.7937 83.2861 84.9235 78.987 84.9235C74.6878 84.9235 71.2026 82.7937 71.2026 80.1664C71.2026 77.539 74.6878 75.4092 78.987 75.4092C83.2861 75.4092 86.7713 77.539 86.7713 80.1664Z" fill="#D1884F"/>
<path fill-rule="evenodd" clip-rule="evenodd" d="M73.5487 77.5952C73.5487 77.5992 73.5487 77.6031 73.5487 77.6071C73.5487 77.8941 73.5903 78.1753 73.67 78.4483H73.5486V78.818C73.5486 78.9812 73.562 79.1425 73.5883 79.3014C73.9846 81.7017 77.3008 83.5752 81.3329 83.5752C85.365 83.5752 88.6811 81.7017 89.0775 79.3014C89.1038 79.1425 89.1172 78.9812 89.1172 78.818V78.4483H88.996C89.0735 78.1827 89.115 77.9095 89.1172 77.6305C89.1173 77.6227 89.1173 77.6149 89.1173 77.6071C89.1173 77.6031 89.1173 77.5992 89.1173 77.5952C89.1068 74.9733 85.6257 72.8499 81.333 72.8499C77.0403 72.8499 73.5592 74.9733 73.5487 77.5952ZM72.6956 77.5952H72.6955V78.818C72.6955 80.5413 73.835 81.9633 75.3837 82.9098C76.947 83.8651 79.0525 84.4283 81.3329 84.4283C83.6133 84.4283 85.7188 83.8651 87.2821 82.9098C88.8307 81.9633 89.9703 80.5413 89.9703 78.818V77.6337C89.9703 77.6248 89.9704 77.616 89.9704 77.6071C89.9704 75.8838 88.8308 74.4617 87.2822 73.5153C85.7188 72.5599 83.6134 71.9968 81.333 71.9968C79.0526 71.9968 76.9471 72.5599 75.3838 73.5153C73.8387 74.4596 72.7008 75.8772 72.6956 77.5952Z" fill="#633001"/>
<path d="M89.1172 78.818C89.1172 81.4454 85.6321 83.5752 81.3329 83.5752C77.0337 83.5752 73.5486 81.4454 73.5486 78.818V77.7019H89.1172V78.818Z" fill="#FEDC90"/>
<path d="M89.1172 77.6071C89.1172 80.2344 85.6321 82.3643 81.3329 82.3643C77.0337 82.3643 73.5486 80.2344 73.5486 77.6071C73.5486 74.9798 77.0337 72.8499 81.3329 72.8499C85.6321 72.8499 89.1172 74.9798 89.1172 77.6071Z" fill="#D1884F"/>
<path fill-rule="evenodd" clip-rule="evenodd" d="M71.2027 75.0359C71.2027 75.0399 71.2027 75.0438 71.2027 75.0478C71.2027 75.3348 71.2443 75.616 71.3241 75.889H71.2026V76.2587C71.2026 76.4219 71.2161 76.5832 71.2423 76.7421C71.6387 79.1424 74.9548 81.0159 78.9869 81.0159C83.0191 81.0159 86.3352 79.1424 86.7316 76.7421C86.7578 76.5832 86.7713 76.4219 86.7713 76.2587V75.889H86.65C86.7276 75.6234 86.7691 75.3502 86.7713 75.0712C86.7713 75.0634 86.7713 75.0556 86.7713 75.0478C86.7713 75.0438 86.7713 75.0399 86.7713 75.0359C86.7609 72.4141 83.2797 70.2906 78.987 70.2906C74.6943 70.2906 71.2132 72.4141 71.2027 75.0359ZM70.3497 75.0359H70.3495V76.2587C70.3495 77.982 71.4891 79.404 73.0378 80.3505C74.6011 81.3059 76.7066 81.869 78.9869 81.869C81.2673 81.869 83.3728 81.3059 84.9361 80.3505C86.4848 79.404 87.6243 77.982 87.6243 76.2587V75.0744C87.6244 75.0655 87.6244 75.0567 87.6244 75.0478C87.6244 73.3245 86.4849 71.9024 84.9362 70.956C83.3729 70.0006 81.2674 69.4375 78.987 69.4375C76.7066 69.4375 74.6012 70.0006 73.0379 70.956C71.4927 71.9003 70.3549 73.3179 70.3497 75.0359Z" fill="#633001"/>
<path d="M86.7713 76.2587C86.7713 78.8861 83.2861 81.0159 78.987 81.0159C74.6878 81.0159 71.2026 78.8861 71.2026 76.2587V75.1426H86.7713V76.2587Z" fill="#FEDC90"/>
<path d="M86.7713 75.0478C86.7713 77.6751 83.2861 79.805 78.987 79.805C74.6878 79.805 71.2026 77.6751 71.2026 75.0478C71.2026 72.4205 74.6878 70.2906 78.987 70.2906C83.2861 70.2906 86.7713 72.4205 86.7713 75.0478Z" fill="#D1884F"/>
<path fill-rule="evenodd" clip-rule="evenodd" d="M73.0439 75.3438C73.0439 76.2209 73.6813 77.0065 74.6868 77.5351L73.9902 78.7418L73.9903 78.7419H73.9902V81.7959C73.9902 82.1997 74.3175 82.5271 74.7214 82.5271C75.1252 82.5271 75.4526 82.1997 75.4526 81.7959V79.3671L76.2021 78.0688C76.6814 78.1705 77.1958 78.2257 77.7313 78.2257C80.32 78.2257 82.4186 76.9354 82.4186 75.3438C82.4186 73.7521 80.32 72.4619 77.7313 72.4619C75.1425 72.4619 73.0439 73.7521 73.0439 75.3438Z" fill="url(#paint1_linear)"/>
<path fill-rule="evenodd" clip-rule="evenodd" d="M74.6868 77.5351C74.5755 77.4766 74.4686 77.4149 74.3666 77.3502C73.5479 76.8314 73.0439 76.1238 73.0439 75.3438C73.0439 73.7521 75.1425 72.4619 77.7313 72.4619C80.32 72.4619 82.4186 73.7521 82.4186 75.3438C82.4186 76.9354 80.32 78.2257 77.7313 78.2257C77.1958 78.2257 76.6814 78.1705 76.2021 78.0688L75.4526 79.3671V81.7959C75.4526 82.1997 75.1252 82.5271 74.7214 82.5271C74.3175 82.5271 73.9902 82.1997 73.9902 81.7959V78.7419L74.6868 77.5351ZM73.2437 78.7548V81.7959C73.2437 82.612 73.9053 83.2735 74.7214 83.2735C75.5375 83.2735 76.199 82.612 76.199 81.7959V79.5671L76.5878 78.8937C76.957 78.9452 77.3397 78.9721 77.7313 78.9721C79.1409 78.9721 80.4528 78.6223 81.4367 78.0175C82.4083 77.4201 83.165 76.4958 83.165 75.3438C83.165 74.1917 82.4083 73.2675 81.4367 72.6701C80.4528 72.0652 79.1409 71.7154 77.7313 71.7154C76.3216 71.7154 75.0097 72.0652 74.0259 72.6701C73.0542 73.2675 72.2975 74.1917 72.2975 75.3438C72.2975 76.3549 72.8766 77.1875 73.6812 77.784L73.3489 78.3597C73.3172 78.4127 73.2919 78.47 73.2741 78.5305C73.2522 78.6043 73.2424 78.6799 73.2437 78.7548Z" fill="#633001"/>
<path d="M74.5083 74.1295C74.5083 74.9541 75.5586 75.6225 76.8543 75.6225C78.1499 75.6225 79.2003 74.9541 79.2003 74.1295C79.2003 73.305 78.1499 72.6366 76.8543 72.6366C75.5586 72.6366 74.5083 73.305 74.5083 74.1295Z" fill="#9E7200"/>
<path d="M74.5083 73.4897H79.2002V74.1295H74.5083V73.4897Z" fill="#9E7200"/>
<path d="M74.5083 73.4897C74.5083 74.3142 75.5586 74.9826 76.8543 74.9826C78.1499 74.9826 79.2003 74.3142 79.2003 73.4897C79.2003 72.6652 78.1499 71.9968 76.8543 71.9968C75.5586 71.9968 74.5083 72.6652 74.5083 73.4897Z" fill="#F0B90B"/>
<path d="M75.964 73.3098L76.6252 72.889C76.765 72.8001 76.9435 72.8001 77.0832 72.889L77.7445 73.3098C77.8762 73.3936 77.8762 73.5858 77.7445 73.6696L77.0832 74.0904C76.9435 74.1794 76.765 74.1794 76.6252 74.0904L75.964 73.6696C75.8323 73.5858 75.8323 73.3936 75.964 73.3098Z" fill="#9E7200"/>
<path fill-rule="evenodd" clip-rule="evenodd" d="M74.7947 71.8043C75.3562 71.4469 76.0864 71.2503 76.8543 71.2503C77.6221 71.2503 78.3523 71.4469 78.9139 71.8043C79.4666 72.156 79.9467 72.7337 79.9467 73.4897V74.1295C79.9467 74.8855 79.4666 75.4632 78.9139 75.815C78.3523 76.1723 77.6221 76.3689 76.8543 76.3689C76.0864 76.3689 75.3562 76.1723 74.7947 75.815C74.242 75.4632 73.7618 74.8855 73.7618 74.1295V73.4897C73.7618 72.7337 74.242 72.156 74.7947 71.8043ZM76.8543 71.9968C75.5586 71.9968 74.5083 72.6652 74.5083 73.4897V74.1295C74.5083 74.9541 75.5586 75.6225 76.8543 75.6225C78.1499 75.6225 79.2002 74.9541 79.2002 74.1295V73.4897C79.2002 72.6652 78.1499 71.9968 76.8543 71.9968Z" fill="#633001"/>
<defs>
<linearGradient id="paint0_linear" x1="80" y1="64" x2="80" y2="96" gradientUnits="userSpaceOnUse">
<stop stop-color="#54DADE"/>
<stop offset="0.762157" stop-color="#24C7D6"/>
</linearGradient>
<linearGradient id="paint1_linear" x1="77.782" y1="72.5583" x2="77.782" y2="82.4515" gradientUnits="userSpaceOnUse">
<stop stop-color="#9F4A08"/>
<stop offset="0.370494" stop-color="#7D3900"/>
<stop offset="1" stop-color="#8D4104"/>
</linearGradient>
</defs>
</svg>
