<svg xmlns="http://www.w3.org/2000/svg" width="96" height="96" fill="none" viewBox="0 0 96 96"><mask id="mask0" width="96" height="96" x="0" y="0" mask-type="alpha" maskUnits="userSpaceOnUse"><path fill="#C4C4C4" fill-rule="evenodd" d="M96 0H0V96H69.7487C64.4865 92.6215 61 86.7179 61 80C61 69.5066 69.5066 61 80 61C86.7179 61 92.6215 64.4865 96 69.7487V0Z" clip-rule="evenodd"/></mask><g mask="url(#mask0)"><circle cx="48" cy="48" r="48" fill="#0F1837"/><g clip-path="url(#clip0)"><path fill="#C9A31E" d="M38.7091 53.8529L33.3848 53.7919V40.0622C33.3848 39.7073 33.3149 39.3558 33.179 39.0279C33.0431 38.7 32.844 38.4021 32.5929 38.1512C32.3419 37.9003 32.0439 37.7013 31.7159 37.5657C31.3879 37.43 31.0364 37.3603 30.6815 37.3605C30.3263 37.3605 29.9746 37.4305 29.6465 37.5664C29.3184 37.7024 29.0203 37.9017 28.7693 38.1529C28.5182 38.4041 28.3191 38.7023 28.1834 39.0305C28.0476 39.3586 27.9779 39.7104 27.9781 40.0655V56.106C27.9781 56.1671 27.9781 56.2281 27.9781 56.2875C27.9781 56.3469 27.9781 56.3848 27.9781 56.4359C27.9741 56.7909 28.0402 57.1433 28.1724 57.4727C28.3047 57.8022 28.5006 58.1025 28.7488 58.3562C28.9971 58.61 29.293 58.8124 29.6195 58.9519C29.946 59.0913 30.2967 59.1651 30.6518 59.169L38.6481 59.2597H38.6844C39.4014 59.2637 40.0906 58.9826 40.6003 58.4784C41.1101 57.9742 41.3987 57.2882 41.4026 56.5712C41.4066 55.8542 41.1255 55.165 40.6213 54.6552C40.1171 54.1455 39.4311 53.8569 38.7141 53.8529H38.7091Z"/><path fill="#fff" d="M71.2305 32.5952C71.0576 32.5947 70.8875 32.5511 70.7357 32.4682C70.6054 32.399 67.5474 30.7331 66.2097 29.9463C65.9873 29.8101 65.8052 29.6171 65.682 29.3873C65.5588 29.1574 65.499 28.8989 65.5087 28.6383C65.5087 28.1765 65.705 27.5777 66.2262 27.2841C68.2055 26.1691 70.7142 24.81 70.739 24.81C70.8593 24.745 70.9913 24.7044 71.1273 24.6904C71.2633 24.6764 71.4008 24.6894 71.5318 24.7285C71.6628 24.7676 71.7849 24.8322 71.891 24.9185C71.997 25.0048 72.0851 25.1111 72.1501 25.2314C72.215 25.3518 72.2557 25.4837 72.2697 25.6197C72.2837 25.7558 72.2707 25.8932 72.2316 26.0243C72.1925 26.1553 72.1279 26.2773 72.0416 26.3834C71.9553 26.4895 71.849 26.5775 71.7286 26.6425C71.7072 26.6541 69.8599 27.6503 68.0917 28.6334C69.5762 29.4713 71.7055 30.6341 71.7319 30.6473C71.9347 30.7579 72.095 30.9328 72.1875 31.1445C72.2799 31.3561 72.2993 31.5926 72.2427 31.8165C72.186 32.0404 72.0564 32.2391 71.8743 32.3813C71.6923 32.5235 71.4681 32.6011 71.2371 32.6018L71.2305 32.5952Z"/><path fill="#fff" d="M57.7153 71.3202C55.5759 71.3238 53.4439 71.0702 51.3651 70.5648C45.7752 69.1958 42.5259 66.4594 42.3906 66.3439C42.0783 66.0778 41.8845 65.6984 41.8518 65.2893C41.8192 64.8802 41.9504 64.4749 42.2166 64.1626C42.4828 63.8503 42.8621 63.6564 43.2712 63.6238C43.6803 63.5912 44.0856 63.7224 44.3979 63.9886C44.8763 64.391 56.0197 73.5007 72.8486 63.8236C73.0249 63.7177 73.2206 63.6481 73.4241 63.6187C73.6276 63.5893 73.835 63.6008 74.0341 63.6524C74.2331 63.7041 74.4199 63.795 74.5834 63.9197C74.7469 64.0444 74.884 64.2004 74.9865 64.3787C75.089 64.557 75.1549 64.7539 75.1805 64.958C75.206 65.162 75.1906 65.3691 75.1351 65.5672C75.0796 65.7652 74.9852 65.9502 74.8575 66.1113C74.7297 66.2724 74.571 66.4065 74.3908 66.5056C68.006 70.1805 62.3171 71.3202 57.7153 71.3202Z"/><path fill="#C9A41E" d="M47.1442 59.2382C46.394 59.2378 45.6746 58.9397 45.1439 58.4093C44.6132 57.879 44.3147 57.1597 44.3138 56.4095V40.1892C44.3138 39.4388 44.6118 38.7191 45.1423 38.1883C45.6727 37.6576 46.3922 37.3592 47.1426 37.3588C47.8928 37.3588 48.6123 37.6568 49.1428 38.1873C49.6733 38.7178 49.9713 39.4373 49.9713 40.1875V56.4078C49.9715 56.7793 49.8986 57.1472 49.7566 57.4905C49.6147 57.8337 49.4065 58.1457 49.144 58.4085C48.8814 58.6714 48.5697 58.8799 48.2266 59.0223C47.8835 59.1646 47.5157 59.238 47.1442 59.2382Z"/><path fill="#C9A41E" d="M69.657 59.3323C68.9063 59.3323 68.1864 59.0341 67.6556 58.5033C67.1248 57.9725 66.8266 57.2525 66.8266 56.5019V47.2767C66.7856 46.391 66.5698 45.5221 66.1916 44.7201C65.5466 43.4286 64.5422 42.853 62.9076 42.853H62.8993C61.4149 42.853 60.5242 43.4303 59.9304 44.7811C59.6041 45.5677 59.4161 46.4047 59.3746 47.2553V56.492C59.3837 56.8693 59.3172 57.2446 59.1791 57.5959C59.041 57.9472 58.834 58.2673 58.5704 58.5374C58.3067 58.8075 57.9917 59.0221 57.6439 59.1686C57.2961 59.3152 56.9224 59.3907 56.545 59.3907C56.1675 59.3907 55.7939 59.3152 55.4461 59.1686C55.0983 59.0221 54.7832 58.8075 54.5196 58.5374C54.2559 58.2673 54.049 57.9472 53.9109 57.5959C53.7728 57.2446 53.7063 56.8693 53.7154 56.492V47.2553C53.7154 43.2126 56.1598 37.1938 62.8927 37.1938H62.9043C65.5532 37.1938 67.8377 38.0779 69.5118 39.7488C72.4 42.6353 72.4808 46.7951 72.4808 47.2602V56.4969C72.4816 56.8685 72.4093 57.2367 72.2678 57.5803C72.1264 57.9239 71.9186 58.2363 71.6563 58.4997C71.3941 58.763 71.0826 58.972 70.7395 59.1149C70.3964 59.2577 70.0286 59.3316 69.657 59.3323Z"/><path fill="#fff" d="M82.1545 48.5336L86.8999 41.6572C87.1197 41.3498 87.2762 41.0017 87.3601 40.6332C87.444 40.2648 87.4537 39.8833 87.3887 39.511C87.3236 39.1387 87.1851 38.7831 86.9812 38.4649C86.7772 38.1467 86.512 37.8723 86.2009 37.6577C85.8899 37.4431 85.5392 37.2926 85.1693 37.2149C84.7995 37.1373 84.4179 37.134 84.0467 37.2054C83.6756 37.2767 83.3224 37.4213 83.0078 37.6306C82.6931 37.8398 82.4232 38.1097 82.2139 38.4244L76.3305 46.9502C76.3305 46.9502 76.3305 46.9634 76.3189 46.97C76.2345 47.0988 76.16 47.2339 76.0962 47.3741C76.0798 47.4103 76.0583 47.4466 76.0435 47.4846C75.9981 47.6025 75.9601 47.7232 75.9297 47.8458C75.9148 47.9068 75.8934 47.9678 75.8818 48.0289C75.8651 48.1293 75.8541 48.2307 75.8488 48.3324C75.8488 48.4165 75.8307 48.4973 75.8307 48.5847C75.8307 48.6721 75.8439 48.7497 75.8521 48.8288C75.8589 48.9323 75.8715 49.0353 75.8901 49.1373C75.9033 49.1983 75.9247 49.256 75.9412 49.3154C75.9724 49.4397 76.0126 49.5615 76.0616 49.6799C76.0764 49.7162 76.0962 49.7492 76.1144 49.7839C76.1797 49.9254 76.2569 50.0612 76.3453 50.1896C76.3453 50.1896 76.3453 50.2028 76.3569 50.2094L81.9549 58.0557C82.4053 58.6362 83.0626 59.0202 83.7896 59.1272C84.5165 59.2343 85.2566 59.0562 85.8552 58.6301C86.4538 58.2041 86.8645 57.5631 87.0014 56.8412C87.1383 56.1193 86.9908 55.3725 86.5898 54.7568L82.1545 48.5336Z"/><path fill="#fff" d="M46.976 32.1317C48.9245 32.1317 50.5041 30.5522 50.5041 28.6037C50.5041 26.6551 48.9245 25.0756 46.976 25.0756C45.0275 25.0756 43.4479 26.6551 43.4479 28.6037C43.4479 30.5522 45.0275 32.1317 46.976 32.1317Z"/><path fill="#C9A31E" d="M20.6596 47.1958C20.6596 47.1958 23.6846 46.9253 23.579 42.396C23.4652 37.5154 17.7286 37.3109 17.7286 37.3109H11.3932C10.667 37.3192 9.97343 37.6133 9.46274 38.1296C8.95204 38.6458 8.66543 39.3426 8.66504 40.0687V56.7278C8.66548 57.4591 8.95617 58.1603 9.47327 58.6774C9.99036 59.1945 10.6916 59.4852 11.4229 59.4856C11.4229 59.4856 14.6211 59.4609 16.1715 59.4856C22.5514 59.5796 25.2631 57.1583 25.3587 53.0892C25.4791 47.6527 20.6596 47.1958 20.6596 47.1958ZM14.0322 41.5878C14.0322 41.5878 15.8037 41.5631 16.3414 41.5878C16.8791 41.6126 18.7413 41.794 18.6638 43.9234C18.5863 46.0528 16.1897 45.9505 16.1897 45.9505H14.0322V41.5878ZM16.188 55.1806H14.0322V50.2538C14.0322 50.2538 15.8037 50.2275 16.3414 50.2538C16.8791 50.2802 19.9289 50.0229 20.0014 52.7148C20.0757 55.3406 16.188 55.1889 16.188 55.1889V55.1806Z"/></g></g><circle cx="80" cy="80" r="16" fill="url(#paint0_linear)"/><path fill="#606063" fill-rule="evenodd" d="M69.6072 81.758C69.6045 81.8177 69.6031 81.8777 69.6031 81.9379C69.6031 82.1653 69.6229 82.3899 69.6615 82.6111H69.6031V82.9593C69.6031 83.1292 69.6141 83.2976 69.6359 83.4642C70.0595 86.7145 74.5379 89.2719 80 89.2719C85.4621 89.2719 89.9405 86.7145 90.3641 83.4642C90.3859 83.2976 90.3969 83.1292 90.3969 82.9593V82.6111H90.3385C90.3771 82.3899 90.3969 82.1653 90.3969 81.9379C90.3969 81.8777 90.3955 81.8177 90.3928 81.758C90.2359 78.3548 85.643 75.6252 80 75.6252C74.357 75.6252 69.7641 78.3548 69.6072 81.758ZM68.7533 81.758C68.8307 79.6815 70.2417 77.9373 72.2055 76.7449C74.2413 75.5089 76.9992 74.7721 80 74.7721C83.0008 74.7721 85.7587 75.5089 87.7945 76.7449C89.7583 77.9373 91.1693 79.6815 91.2467 81.758H91.25V82.9593C91.25 85.1148 89.8148 86.9255 87.7945 88.1522C85.7587 89.3883 83.0008 90.125 80 90.125C76.9992 90.125 74.2413 89.3883 72.2055 88.1522C70.1852 86.9255 68.75 85.1148 68.75 82.9593V81.758H68.7533Z" clip-rule="evenodd"/><path fill="#BEBEBE" d="M90.3969 82.9594C90.3969 86.4458 85.742 89.2721 79.9999 89.2721C74.2579 89.2721 69.603 86.4458 69.603 82.9594V81.9601H90.3969V82.9594Z"/><path fill="#FAF9FA" d="M90.3969 81.9378C90.3969 85.4242 85.742 88.2505 79.9999 88.2505C74.2579 88.2505 69.603 85.4242 69.603 81.9378C69.603 78.4514 74.2579 75.6251 79.9999 75.6251C85.742 75.6251 90.3969 78.4514 90.3969 81.9378Z"/><path fill="#633001" fill-rule="evenodd" d="M71.2027 80.1544C71.2027 80.1584 71.2027 80.1624 71.2027 80.1663C71.2027 80.4534 71.2443 80.7345 71.324 81.0075H71.2026V81.3772C71.2026 81.5404 71.216 81.7017 71.2423 81.8606C71.6386 84.2609 74.9547 86.1344 78.9869 86.1344C83.019 86.1344 86.3351 84.2609 86.7315 81.8606C86.7578 81.7017 86.7712 81.5404 86.7712 81.3772V81.0075H86.65C86.7275 80.7419 86.769 80.4687 86.7712 80.1898C86.7713 80.182 86.7713 80.1741 86.7713 80.1663C86.7713 80.1624 86.7713 80.1584 86.7713 80.1544C86.7608 77.5326 83.2797 75.4091 78.987 75.4091C74.6943 75.4091 71.2132 77.5326 71.2027 80.1544ZM70.3496 80.1544H70.3495V81.3772C70.3495 83.1005 71.489 84.5226 73.0377 85.469C74.601 86.4244 76.7065 86.9875 78.9869 86.9875C81.2673 86.9875 83.3727 86.4244 84.9361 85.469C86.4847 84.5226 87.6243 83.1005 87.6243 81.3772V80.1929C87.6243 80.1841 87.6244 80.1752 87.6244 80.1663C87.6244 78.443 86.4848 77.021 84.9362 76.0745C83.3728 75.1192 81.2674 74.556 78.987 74.556C76.7066 74.556 74.6011 75.1192 73.0378 76.0745C71.4927 77.0188 70.3548 78.4365 70.3496 80.1544Z" clip-rule="evenodd"/><path fill="#FEDC90" d="M86.7713 81.3774C86.7713 84.0047 83.2861 86.1346 78.987 86.1346C74.6878 86.1346 71.2026 84.0047 71.2026 81.3774V80.2612H86.7713V81.3774Z"/><path fill="#D1884F" d="M86.7713 80.1664C86.7713 82.7937 83.2861 84.9235 78.987 84.9235C74.6878 84.9235 71.2026 82.7937 71.2026 80.1664C71.2026 77.539 74.6878 75.4092 78.987 75.4092C83.2861 75.4092 86.7713 77.539 86.7713 80.1664Z"/><path fill="#633001" fill-rule="evenodd" d="M73.5488 77.5952C73.5487 77.5992 73.5487 77.6031 73.5487 77.6071C73.5487 77.8942 73.5903 78.1753 73.6701 78.4483H73.5486V78.818C73.5486 78.9812 73.5621 79.1425 73.5883 79.3014C73.9847 81.7017 77.3008 83.5752 81.3329 83.5752C85.3651 83.5752 88.6812 81.7017 89.0776 79.3014C89.1038 79.1425 89.1173 78.9812 89.1173 78.818V78.4483H88.996C89.0736 78.1827 89.1151 77.9095 89.1173 77.6306C89.1173 77.6228 89.1174 77.6149 89.1174 77.6071C89.1174 77.6031 89.1173 77.5992 89.1173 77.5952C89.1069 74.9734 85.6257 72.8499 81.333 72.8499C77.0404 72.8499 73.5592 74.9734 73.5488 77.5952ZM72.6957 77.5952H72.6956V78.818C72.6956 80.5413 73.8351 81.9634 75.3838 82.9098C76.9471 83.8652 79.0526 84.4283 81.3329 84.4283C83.6133 84.4283 85.7188 83.8652 87.2821 82.9098C88.8308 81.9634 89.9703 80.5413 89.9703 78.818V77.6337C89.9704 77.6249 89.9704 77.616 89.9704 77.6071C89.9704 75.8838 88.8309 74.4618 87.2822 73.5153C85.7189 72.56 83.6134 71.9968 81.333 71.9968C79.0527 71.9968 76.9472 72.56 75.3839 73.5153C73.8387 74.4596 72.7009 75.8773 72.6957 77.5952Z" clip-rule="evenodd"/><path fill="#FEDC90" d="M89.1172 78.8181C89.1172 81.4454 85.6321 83.5752 81.3329 83.5752C77.0337 83.5752 73.5486 81.4454 73.5486 78.8181V77.7019H89.1172V78.8181Z"/><path fill="#D1884F" d="M89.1172 77.607C89.1172 80.2344 85.6321 82.3642 81.3329 82.3642C77.0337 82.3642 73.5486 80.2344 73.5486 77.607C73.5486 74.9797 77.0337 72.8499 81.3329 72.8499C85.6321 72.8499 89.1172 74.9797 89.1172 77.607Z"/><path fill="#633001" fill-rule="evenodd" d="M71.2027 75.0359C71.2027 75.0399 71.2027 75.0438 71.2027 75.0478C71.2027 75.3348 71.2443 75.616 71.324 75.889H71.2026V76.2587C71.2026 76.4219 71.216 76.5832 71.2423 76.7421C71.6386 79.1424 74.9547 81.0159 78.9869 81.0159C83.019 81.0159 86.3351 79.1424 86.7315 76.7421C86.7578 76.5832 86.7712 76.4219 86.7712 76.2587V75.889H86.65C86.7275 75.6234 86.769 75.3502 86.7712 75.0712C86.7713 75.0634 86.7713 75.0556 86.7713 75.0478C86.7713 75.0438 86.7713 75.0399 86.7713 75.0359C86.7608 72.4141 83.2797 70.2906 78.987 70.2906C74.6943 70.2906 71.2132 72.4141 71.2027 75.0359ZM70.3496 75.0359H70.3495V76.2587C70.3495 77.982 71.489 79.404 73.0377 80.3505C74.601 81.3059 76.7065 81.869 78.9869 81.869C81.2673 81.869 83.3727 81.3059 84.9361 80.3505C86.4847 79.404 87.6243 77.982 87.6243 76.2587V75.0744C87.6243 75.0655 87.6244 75.0567 87.6244 75.0478C87.6244 73.3245 86.4848 71.9024 84.9362 70.956C83.3728 70.0006 81.2674 69.4375 78.987 69.4375C76.7066 69.4375 74.6011 70.0006 73.0378 70.956C71.4927 71.9003 70.3548 73.3179 70.3496 75.0359Z" clip-rule="evenodd"/><path fill="#FEDC90" d="M86.7713 76.2587C86.7713 78.886 83.2861 81.0159 78.987 81.0159C74.6878 81.0159 71.2026 78.886 71.2026 76.2587V75.1426H86.7713V76.2587Z"/><path fill="#D1884F" d="M86.7713 75.0478C86.7713 77.6751 83.2861 79.805 78.987 79.805C74.6878 79.805 71.2026 77.6751 71.2026 75.0478C71.2026 72.4205 74.6878 70.2906 78.987 70.2906C83.2861 70.2906 86.7713 72.4205 86.7713 75.0478Z"/><path fill="url(#paint1_linear)" fill-rule="evenodd" d="M73.0439 75.3438C73.0439 76.221 73.6813 77.0066 74.6868 77.5352L73.9902 78.7419L73.9903 78.7419H73.9902V81.7959C73.9902 82.1997 74.3175 82.5271 74.7214 82.5271C75.1252 82.5271 75.4526 82.1997 75.4526 81.7959V79.3671L76.2021 78.0689C76.6814 78.1705 77.1958 78.2257 77.7313 78.2257C80.32 78.2257 82.4186 76.9354 82.4186 75.3438C82.4186 73.7522 80.32 72.4619 77.7313 72.4619C75.1425 72.4619 73.0439 73.7522 73.0439 75.3438Z" clip-rule="evenodd"/><path fill="#633001" fill-rule="evenodd" d="M74.6868 77.5352C74.5755 77.4766 74.4686 77.4149 74.3666 77.3503C73.5479 76.8314 73.0439 76.1238 73.0439 75.3438C73.0439 73.7522 75.1425 72.4619 77.7313 72.4619C80.32 72.4619 82.4186 73.7522 82.4186 75.3438C82.4186 76.9354 80.32 78.2257 77.7313 78.2257C77.1958 78.2257 76.6814 78.1705 76.2021 78.0689L75.4526 79.3671V81.7959C75.4526 82.1997 75.1252 82.5271 74.7214 82.5271C74.3175 82.5271 73.9902 82.1997 73.9902 81.7959V78.7419L74.6868 77.5352ZM73.2437 78.7548V81.7959C73.2437 82.612 73.9053 83.2736 74.7214 83.2736C75.5375 83.2736 76.199 82.612 76.199 81.7959V79.5671L76.5878 78.8938C76.957 78.9452 77.3397 78.9722 77.7313 78.9722C79.1409 78.9722 80.4528 78.6224 81.4367 78.0175C82.4083 77.4201 83.165 76.4959 83.165 75.3438C83.165 74.1918 82.4083 73.2675 81.4367 72.6701C80.4528 72.0652 79.1409 71.7155 77.7313 71.7155C76.3216 71.7155 75.0097 72.0652 74.0259 72.6701C73.0542 73.2675 72.2975 74.1918 72.2975 75.3438C72.2975 76.3549 72.8766 77.1875 73.6812 77.7841L73.3489 78.3597C73.3172 78.4127 73.2919 78.47 73.2741 78.5305C73.2522 78.6043 73.2424 78.6799 73.2437 78.7548Z" clip-rule="evenodd"/><path fill="#9E7200" d="M74.5083 74.1295C74.5083 74.954 75.5586 75.6224 76.8542 75.6224C78.1499 75.6224 79.2002 74.954 79.2002 74.1295C79.2002 73.305 78.1499 72.6366 76.8542 72.6366C75.5586 72.6366 74.5083 73.305 74.5083 74.1295Z"/><path fill="#9E7200" d="M74.5083 73.4897H79.2002V74.1296H74.5083V73.4897Z"/><path fill="#F0B90B" d="M74.5083 73.4897C74.5083 74.3143 75.5586 74.9827 76.8542 74.9827C78.1499 74.9827 79.2002 74.3143 79.2002 73.4897C79.2002 72.6652 78.1499 71.9968 76.8542 71.9968C75.5586 71.9968 74.5083 72.6652 74.5083 73.4897Z"/><path fill="#9E7200" d="M75.964 73.3098L76.6252 72.889C76.765 72.8 76.9435 72.8 77.0832 72.889L77.7445 73.3098C77.8762 73.3936 77.8762 73.5858 77.7445 73.6696L77.0832 74.0904C76.9435 74.1793 76.765 74.1793 76.6252 74.0904L75.964 73.6696C75.8323 73.5858 75.8323 73.3936 75.964 73.3098Z"/><path fill="#633001" fill-rule="evenodd" d="M74.7947 71.8043C75.3562 71.447 76.0864 71.2504 76.8543 71.2504C77.6221 71.2504 78.3523 71.447 78.9139 71.8043C79.4666 72.1561 79.9467 72.7338 79.9467 73.4897V74.1296C79.9467 74.8856 79.4666 75.4633 78.9139 75.815C78.3523 76.1723 77.6221 76.369 76.8543 76.369C76.0864 76.369 75.3562 76.1723 74.7947 75.815C74.242 75.4633 73.7618 74.8856 73.7618 74.1296V73.4897C73.7618 72.7338 74.242 72.1561 74.7947 71.8043ZM76.8543 71.9968C75.5586 71.9968 74.5083 72.6652 74.5083 73.4897V74.1296C74.5083 74.9541 75.5586 75.6225 76.8543 75.6225C78.1499 75.6225 79.2002 74.9541 79.2002 74.1296V73.4897C79.2002 72.6652 78.1499 71.9968 76.8543 71.9968Z" clip-rule="evenodd"/><defs><linearGradient id="paint0_linear" x1="80" x2="80" y1="64" y2="96" gradientUnits="userSpaceOnUse"><stop stop-color="#54DADE"/><stop offset=".762" stop-color="#24C7D6"/></linearGradient><linearGradient id="paint1_linear" x1="77.782" x2="77.782" y1="72.558" y2="82.451" gradientUnits="userSpaceOnUse"><stop stop-color="#9F4A08"/><stop offset=".37" stop-color="#7D3900"/><stop offset="1" stop-color="#8D4104"/></linearGradient><clipPath id="clip0"><rect width="78.746" height="46.64" fill="#fff" transform="translate(8.65686 24.6798)"/></clipPath></defs></svg>