<svg xmlns="http://www.w3.org/2000/svg" width="96" height="96" fill="none" viewBox="0 0 96 96"><mask id="mask0" width="96" height="96" x="0" y="0" mask-type="alpha" maskUnits="userSpaceOnUse"><path fill="#C4C4C4" fill-rule="evenodd" d="M96 0H0V96H69.7487C64.4865 92.6215 61 86.7179 61 80C61 69.5066 69.5066 61 80 61C86.7179 61 92.6215 64.4865 96 69.7487V0Z" clip-rule="evenodd"/></mask><g mask="url(#mask0)"><path fill="#000" d="M48 96C74.5097 96 96 74.5097 96 48C96 21.4903 74.5097 0 48 0C21.4903 0 0 21.4903 0 48C0 74.5097 21.4903 96 48 96Z"/><path fill="#FED700" d="M41.4317 38.9561C41.3214 39.0664 41.2479 39.1521 41.1743 39.2379C38.699 41.7133 36.2359 44.1764 33.7605 46.6518C32.8292 47.5831 32.8292 48.4041 33.7728 49.3477C36.2359 51.8108 38.6867 54.2739 41.1621 56.737C41.4194 56.9944 41.3949 57.1414 41.1621 57.3743C39.8386 58.6732 38.5274 59.9844 37.2285 61.3079C36.9956 61.5407 36.8608 61.5652 36.6158 61.3079C34.1404 58.808 31.6405 56.3204 29.1529 53.8328C28.6137 53.2936 27.9887 53.0117 27.2412 53.3671C26.9961 53.4774 26.7633 53.6735 26.5795 53.8573C24.0919 56.3326 21.6165 58.808 19.1412 61.2956C18.9083 61.5285 18.7613 61.553 18.5284 61.3079C17.2172 59.9722 15.8938 58.661 14.5581 57.3375C14.313 57.1047 14.3252 56.9576 14.5703 56.7248C17.0579 54.2494 19.5333 51.7618 22.0209 49.2864C22.5601 48.7472 22.8542 48.1345 22.5233 47.387C22.4008 47.1174 22.1925 46.8723 21.9841 46.6518C19.5333 44.1887 17.0702 41.7133 14.5948 39.2624C14.3252 38.9928 14.3497 38.8458 14.6071 38.5884C15.9183 37.3017 17.2172 35.9905 18.5162 34.6793C18.7613 34.4342 18.9083 34.422 19.1534 34.6793C21.6288 37.167 24.1164 39.6423 26.5918 42.1299C27.1309 42.6691 27.7559 42.9632 28.5034 42.6201C28.773 42.4976 29.0181 42.2892 29.2264 42.0687C31.6895 39.6178 34.1649 37.1547 36.6158 34.6793C36.8608 34.422 37.0079 34.422 37.2652 34.6793C38.5642 36.0028 39.8876 37.314 41.1989 38.6252C41.2479 38.7232 41.3337 38.8335 41.4317 38.9561Z"/><path fill="#FED700" d="M81.6257 38.9561C81.5154 39.0664 81.4419 39.1521 81.3684 39.2379C78.893 41.7133 76.4299 44.1764 73.9545 46.6518C73.0232 47.5831 73.0232 48.4041 73.9668 49.3477C76.4299 51.8108 78.8808 54.2739 81.3561 56.737C81.6135 56.9944 81.589 57.1414 81.3561 57.3743C80.0327 58.6732 78.7215 59.9844 77.4225 61.3079C77.1897 61.5407 77.0549 61.5652 76.8098 61.3079C74.3344 58.808 71.8346 56.3204 69.3469 53.8328C68.8077 53.2936 68.1828 53.0117 67.4353 53.3671C67.1902 53.4774 66.9573 53.6735 66.7735 53.8573C64.2859 56.3326 61.8106 58.808 59.3352 61.2956C59.1024 61.5285 58.9553 61.553 58.7225 61.3079C57.4113 59.9722 56.0878 58.661 54.7521 57.3375C54.507 57.1047 54.5193 56.9576 54.7643 56.7248C57.252 54.2494 59.7273 51.7618 62.2149 49.2864C62.7541 48.7472 63.0482 48.1345 62.7174 47.387C62.5948 47.1174 62.3865 46.8723 62.1782 46.6518C59.7273 44.1887 57.2642 41.7133 54.7888 39.2624C54.5193 38.9928 54.5438 38.8458 54.8011 38.5884C56.1123 37.3017 57.4113 35.9905 58.7102 34.6793C58.9553 34.4342 59.1024 34.422 59.3474 34.6793C61.8228 37.167 64.3104 39.6423 66.7858 42.1299C67.325 42.6691 67.9499 42.9632 68.6975 42.6201C68.967 42.4976 69.2121 42.2892 69.4205 42.0687C71.8836 39.6178 74.3589 37.1547 76.8098 34.6793C77.0549 34.422 77.2019 34.422 77.4593 34.6793C78.7582 36.0028 80.0817 37.314 81.3929 38.6252C81.4419 38.7232 81.5154 38.8335 81.6257 38.9561Z"/></g><circle cx="80" cy="80" r="16" fill="url(#paint0_linear)"/><path fill="#606063" fill-rule="evenodd" d="M69.6072 81.7579C69.6045 81.8177 69.6031 81.8777 69.6031 81.9378C69.6031 82.1652 69.6229 82.3898 69.6615 82.611H69.6031V82.9592C69.6031 83.1292 69.6141 83.2976 69.6359 83.4641C70.0595 86.7145 74.5379 89.2719 80 89.2719C85.4621 89.2719 89.9405 86.7145 90.3641 83.4641C90.3859 83.2976 90.3969 83.1292 90.3969 82.9592V82.611H90.3385C90.3771 82.3898 90.3969 82.1652 90.3969 81.9378C90.3969 81.8777 90.3955 81.8177 90.3928 81.7579C90.2359 78.3547 85.643 75.6252 80 75.6252C74.357 75.6252 69.7641 78.3547 69.6072 81.7579ZM68.7533 81.7579C68.8307 79.6815 70.2417 77.9373 72.2055 76.7449C74.2413 75.5088 76.9992 74.7721 80 74.7721C83.0008 74.7721 85.7587 75.5088 87.7945 76.7449C89.7583 77.9373 91.1693 79.6815 91.2467 81.7579H91.25V82.9592C91.25 85.1148 89.8148 86.9255 87.7945 88.1522C85.7587 89.3882 83.0008 90.125 80 90.125C76.9992 90.125 74.2413 89.3882 72.2055 88.1522C70.1852 86.9255 68.75 85.1148 68.75 82.9592V81.7579H68.7533Z" clip-rule="evenodd"/><path fill="#BEBEBE" d="M90.3969 82.9594C90.3969 86.4458 85.7421 89.2721 80 89.2721C74.2579 89.2721 69.6031 86.4458 69.6031 82.9594V81.9601H90.3969V82.9594Z"/><path fill="#FAF9FA" d="M90.3969 81.9379C90.3969 85.4242 85.7421 88.2505 80 88.2505C74.2579 88.2505 69.6031 85.4242 69.6031 81.9379C69.6031 78.4515 74.2579 75.6252 80 75.6252C85.7421 75.6252 90.3969 78.4515 90.3969 81.9379Z"/><path fill="#633001" fill-rule="evenodd" d="M71.2027 80.1545C71.2027 80.1585 71.2027 80.1624 71.2027 80.1664C71.2027 80.4534 71.2443 80.7346 71.3241 81.0076H71.2026V81.3773C71.2026 81.5405 71.2161 81.7017 71.2423 81.8607C71.6387 84.261 74.9548 86.1345 78.9869 86.1345C83.0191 86.1345 86.3352 84.261 86.7316 81.8607C86.7578 81.7017 86.7713 81.5405 86.7713 81.3773V81.0076H86.65C86.7276 80.742 86.7691 80.4688 86.7713 80.1898C86.7713 80.182 86.7713 80.1742 86.7713 80.1664C86.7713 80.1624 86.7713 80.1585 86.7713 80.1545C86.7609 77.5326 83.2797 75.4092 78.987 75.4092C74.6943 75.4092 71.2132 77.5326 71.2027 80.1545ZM70.3497 80.1545H70.3495V81.3773C70.3495 83.1006 71.4891 84.5226 73.0378 85.4691C74.6011 86.4244 76.7066 86.9876 78.9869 86.9876C81.2673 86.9876 83.3728 86.4244 84.9361 85.4691C86.4848 84.5226 87.6243 83.1006 87.6243 81.3773V80.193C87.6244 80.1841 87.6244 80.1752 87.6244 80.1664C87.6244 78.4431 86.4849 77.021 84.9362 76.0746C83.3729 75.1192 81.2674 74.5561 78.987 74.5561C76.7066 74.5561 74.6012 75.1192 73.0379 76.0746C71.4927 77.0189 70.3549 78.4365 70.3497 80.1545Z" clip-rule="evenodd"/><path fill="#FEDC90" d="M86.7713 81.3773C86.7713 84.0046 83.2861 86.1345 78.987 86.1345C74.6878 86.1345 71.2026 84.0046 71.2026 81.3773V80.2612H86.7713V81.3773Z"/><path fill="#D1884F" d="M86.7713 80.1664C86.7713 82.7937 83.2861 84.9235 78.987 84.9235C74.6878 84.9235 71.2026 82.7937 71.2026 80.1664C71.2026 77.539 74.6878 75.4092 78.987 75.4092C83.2861 75.4092 86.7713 77.539 86.7713 80.1664Z"/><path fill="#633001" fill-rule="evenodd" d="M73.5487 77.5952C73.5487 77.5992 73.5487 77.6031 73.5487 77.6071C73.5487 77.8941 73.5903 78.1753 73.67 78.4483H73.5486V78.818C73.5486 78.9812 73.562 79.1425 73.5883 79.3014C73.9846 81.7017 77.3008 83.5752 81.3329 83.5752C85.365 83.5752 88.6811 81.7017 89.0775 79.3014C89.1038 79.1425 89.1172 78.9812 89.1172 78.818V78.4483H88.996C89.0735 78.1827 89.115 77.9095 89.1172 77.6305C89.1173 77.6227 89.1173 77.6149 89.1173 77.6071C89.1173 77.6031 89.1173 77.5992 89.1173 77.5952C89.1068 74.9733 85.6257 72.8499 81.333 72.8499C77.0403 72.8499 73.5592 74.9733 73.5487 77.5952ZM72.6956 77.5952H72.6955V78.818C72.6955 80.5413 73.835 81.9633 75.3837 82.9098C76.947 83.8651 79.0525 84.4283 81.3329 84.4283C83.6133 84.4283 85.7188 83.8651 87.2821 82.9098C88.8307 81.9633 89.9703 80.5413 89.9703 78.818V77.6337C89.9703 77.6248 89.9704 77.616 89.9704 77.6071C89.9704 75.8838 88.8308 74.4617 87.2822 73.5153C85.7188 72.5599 83.6134 71.9968 81.333 71.9968C79.0526 71.9968 76.9471 72.5599 75.3838 73.5153C73.8387 74.4596 72.7008 75.8772 72.6956 77.5952Z" clip-rule="evenodd"/><path fill="#FEDC90" d="M89.1172 78.818C89.1172 81.4453 85.6321 83.5752 81.3329 83.5752C77.0337 83.5752 73.5486 81.4453 73.5486 78.818V77.7019H89.1172V78.818Z"/><path fill="#D1884F" d="M89.1172 77.6071C89.1172 80.2344 85.6321 82.3642 81.3329 82.3642C77.0337 82.3642 73.5486 80.2344 73.5486 77.6071C73.5486 74.9797 77.0337 72.8499 81.3329 72.8499C85.6321 72.8499 89.1172 74.9797 89.1172 77.6071Z"/><path fill="#633001" fill-rule="evenodd" d="M71.2027 75.0359C71.2027 75.0399 71.2027 75.0438 71.2027 75.0478C71.2027 75.3348 71.2443 75.616 71.3241 75.889H71.2026V76.2587C71.2026 76.4219 71.2161 76.5832 71.2423 76.7421C71.6387 79.1424 74.9548 81.0159 78.9869 81.0159C83.0191 81.0159 86.3352 79.1424 86.7316 76.7421C86.7578 76.5832 86.7713 76.4219 86.7713 76.2587V75.889H86.65C86.7276 75.6234 86.7691 75.3502 86.7713 75.0712C86.7713 75.0634 86.7713 75.0556 86.7713 75.0478C86.7713 75.0438 86.7713 75.0399 86.7713 75.0359C86.7609 72.4141 83.2797 70.2906 78.987 70.2906C74.6943 70.2906 71.2132 72.4141 71.2027 75.0359ZM70.3497 75.0359H70.3495V76.2587C70.3495 77.982 71.4891 79.404 73.0378 80.3505C74.6011 81.3059 76.7066 81.869 78.9869 81.869C81.2673 81.869 83.3728 81.3059 84.9361 80.3505C86.4848 79.404 87.6243 77.982 87.6243 76.2587V75.0744C87.6244 75.0655 87.6244 75.0567 87.6244 75.0478C87.6244 73.3245 86.4849 71.9024 84.9362 70.956C83.3729 70.0006 81.2674 69.4375 78.987 69.4375C76.7066 69.4375 74.6012 70.0006 73.0379 70.956C71.4927 71.9003 70.3549 73.3179 70.3497 75.0359Z" clip-rule="evenodd"/><path fill="#FEDC90" d="M86.7713 76.2587C86.7713 78.886 83.2861 81.0159 78.987 81.0159C74.6878 81.0159 71.2026 78.886 71.2026 76.2587V75.1426H86.7713V76.2587Z"/><path fill="#D1884F" d="M86.7713 75.0478C86.7713 77.6751 83.2861 79.8049 78.987 79.8049C74.6878 79.8049 71.2026 77.6751 71.2026 75.0478C71.2026 72.4204 74.6878 70.2906 78.987 70.2906C83.2861 70.2906 86.7713 72.4204 86.7713 75.0478Z"/><path fill="url(#paint1_linear)" fill-rule="evenodd" d="M73.0439 75.3438C73.0439 76.2209 73.6813 77.0066 74.6868 77.5351L73.9902 78.7418L73.9903 78.7419H73.9902V81.7959C73.9902 82.1997 74.3175 82.5271 74.7214 82.5271C75.1252 82.5271 75.4526 82.1997 75.4526 81.7959V79.3671L76.2021 78.0688C76.6814 78.1705 77.1958 78.2257 77.7313 78.2257C80.32 78.2257 82.4186 76.9354 82.4186 75.3438C82.4186 73.7522 80.32 72.4619 77.7313 72.4619C75.1425 72.4619 73.0439 73.7522 73.0439 75.3438Z" clip-rule="evenodd"/><path fill="#633001" fill-rule="evenodd" d="M74.6868 77.5351C74.5755 77.4766 74.4686 77.4149 74.3666 77.3502C73.5479 76.8314 73.0439 76.1238 73.0439 75.3438C73.0439 73.7522 75.1425 72.4619 77.7313 72.4619C80.32 72.4619 82.4186 73.7522 82.4186 75.3438C82.4186 76.9354 80.32 78.2257 77.7313 78.2257C77.1958 78.2257 76.6814 78.1705 76.2021 78.0688L75.4526 79.3671V81.7959C75.4526 82.1997 75.1252 82.5271 74.7214 82.5271C74.3175 82.5271 73.9902 82.1997 73.9902 81.7959V78.7419L74.6868 77.5351ZM73.2437 78.7548V81.7959C73.2437 82.612 73.9053 83.2736 74.7214 83.2736C75.5375 83.2736 76.199 82.612 76.199 81.7959V79.5671L76.5878 78.8937C76.957 78.9452 77.3397 78.9721 77.7313 78.9721C79.1409 78.9721 80.4528 78.6224 81.4367 78.0175C82.4083 77.4201 83.165 76.4958 83.165 75.3438C83.165 74.1917 82.4083 73.2675 81.4367 72.6701C80.4528 72.0652 79.1409 71.7154 77.7313 71.7154C76.3216 71.7154 75.0097 72.0652 74.0259 72.6701C73.0542 73.2675 72.2975 74.1917 72.2975 75.3438C72.2975 76.3549 72.8766 77.1875 73.6812 77.784L73.3489 78.3597C73.3172 78.4127 73.2919 78.47 73.2741 78.5305C73.2522 78.6043 73.2424 78.6799 73.2437 78.7548Z" clip-rule="evenodd"/><path fill="#9E7200" d="M74.5083 74.1295C74.5083 74.9541 75.5586 75.6225 76.8543 75.6225C78.1499 75.6225 79.2003 74.9541 79.2003 74.1295C79.2003 73.305 78.1499 72.6366 76.8543 72.6366C75.5586 72.6366 74.5083 73.305 74.5083 74.1295Z"/><path fill="#9E7200" d="M74.5083 73.4897H79.2002V74.1295H74.5083V73.4897Z"/><path fill="#F0B90B" d="M74.5083 73.4897C74.5083 74.3142 75.5586 74.9826 76.8543 74.9826C78.1499 74.9826 79.2003 74.3142 79.2003 73.4897C79.2003 72.6652 78.1499 71.9968 76.8543 71.9968C75.5586 71.9968 74.5083 72.6652 74.5083 73.4897Z"/><path fill="#9E7200" d="M75.964 73.3098L76.6252 72.889C76.765 72.8001 76.9435 72.8001 77.0832 72.889L77.7445 73.3098C77.8762 73.3936 77.8762 73.5858 77.7445 73.6696L77.0832 74.0904C76.9435 74.1794 76.765 74.1794 76.6252 74.0904L75.964 73.6696C75.8323 73.5858 75.8323 73.3936 75.964 73.3098Z"/><path fill="#633001" fill-rule="evenodd" d="M74.7947 71.8043C75.3562 71.4469 76.0864 71.2503 76.8543 71.2503C77.6221 71.2503 78.3523 71.4469 78.9139 71.8043C79.4666 72.156 79.9467 72.7337 79.9467 73.4897V74.1295C79.9467 74.8855 79.4666 75.4632 78.9139 75.815C78.3523 76.1723 77.6221 76.3689 76.8543 76.3689C76.0864 76.3689 75.3562 76.1723 74.7947 75.815C74.242 75.4632 73.7618 74.8855 73.7618 74.1295V73.4897C73.7618 72.7337 74.242 72.156 74.7947 71.8043ZM76.8543 71.9968C75.5586 71.9968 74.5083 72.6652 74.5083 73.4897V74.1295C74.5083 74.9541 75.5586 75.6225 76.8543 75.6225C78.1499 75.6225 79.2002 74.9541 79.2002 74.1295V73.4897C79.2002 72.6652 78.1499 71.9968 76.8543 71.9968Z" clip-rule="evenodd"/><defs><linearGradient id="paint0_linear" x1="80" x2="80" y1="64" y2="96" gradientUnits="userSpaceOnUse"><stop stop-color="#54DADE"/><stop offset=".762" stop-color="#24C7D6"/></linearGradient><linearGradient id="paint1_linear" x1="77.782" x2="77.782" y1="72.558" y2="82.451" gradientUnits="userSpaceOnUse"><stop stop-color="#9F4A08"/><stop offset=".37" stop-color="#7D3900"/><stop offset="1" stop-color="#8D4104"/></linearGradient></defs></svg>