<svg xmlns="http://www.w3.org/2000/svg" width="96" height="96" fill="none" viewBox="0 0 96 96"><mask id="mask0" width="96" height="96" x="0" y="0" mask-type="alpha" maskUnits="userSpaceOnUse"><path fill="#C4C4C4" fill-rule="evenodd" d="M96 0H0V96H69.7487C64.4865 92.6215 61 86.7179 61 80C61 69.5066 69.5066 61 80 61C86.7179 61 92.6215 64.4865 96 69.7487V0Z" clip-rule="evenodd"/></mask><g mask="url(#mask0)"><circle cx="48" cy="48" r="48" fill="#fff"/><path fill="#2E2FFF" stroke="#2E2FFF" stroke-width=".238" d="M10.8193 63.0917L10.8193 63.0918C12.843 68.0767 15.8043 72.5358 19.6343 76.3657C23.4641 80.1956 27.9346 83.1684 32.9083 85.1807C37.7104 87.1358 42.7868 88.119 48 88.119C53.202 88.119 58.2898 87.1243 63.0917 85.1807L63.0918 85.1807C68.0767 83.157 72.5358 80.1957 76.3657 76.3657C80.1956 72.5359 83.1684 68.0654 85.1807 63.0917C87.1358 58.2896 88.119 53.2132 88.119 48C88.119 42.798 87.1243 37.7102 85.1807 32.9083L85.1807 32.9082C83.157 27.9233 80.1957 23.4642 76.3657 19.6343C72.5359 15.8044 68.0654 12.8316 63.0917 10.8193C58.2896 8.86417 53.2132 7.88095 48 7.88095C42.798 7.88095 37.7102 8.87565 32.9083 10.8193L32.9082 10.8193C27.9233 12.843 23.4642 15.8043 19.6343 19.6343C15.8044 23.4641 12.8316 27.9346 10.8193 32.9083C8.86417 37.7104 7.88095 42.7868 7.88095 48C7.88095 53.202 8.87565 58.2898 10.8193 63.0917ZM20.4523 20.4524L20.4524 20.4524C27.8054 13.0994 37.5899 9.04239 48 9.04239C58.3988 9.04239 68.1832 13.088 75.5361 20.4523L75.5362 20.4524C82.8892 27.8054 86.9462 37.5899 86.9462 48C86.9462 58.4102 82.9006 68.1832 75.5362 75.5476C68.1832 82.9006 58.3987 86.9576 47.9886 86.9576C37.5784 86.9576 27.8054 82.912 20.441 75.5476C13.088 68.1946 9.03099 58.4101 9.03099 48C9.03099 37.5899 13.088 27.8054 20.4523 20.4524Z"/><path fill="url(#paint0_linear)" d="M48 68.0002C59.0457 68.0002 68 59.0459 68 48.0002C68 36.9545 59.0457 28.0002 48 28.0002C36.9543 28.0002 28 36.9545 28 48.0002C28 59.0459 36.9543 68.0002 48 68.0002Z"/><path fill="#2E2FFF" stroke="#2E2FFF" stroke-width=".238" d="M18.484 31.1131L18.3795 31.0549L18.3218 31.1597C13.9223 39.1475 12.8622 48.3738 15.3583 57.1525C17.8545 65.9312 23.5994 73.2092 31.5327 77.6446C36.6504 80.5098 42.293 81.9655 47.9928 81.9655C51.1274 81.9655 54.2849 81.53 57.3852 80.6361C66.1166 78.1261 73.3436 72.3493 77.7546 64.3498L77.8118 64.2461L77.7082 64.1884L76.8677 63.7201L76.7633 63.662L76.7056 63.7665C72.4499 71.471 65.4673 77.0354 57.0468 79.4593C48.6265 81.8832 39.7768 80.8591 32.1146 76.5802C24.4525 72.3014 18.9182 65.2804 16.5074 56.8133C14.0966 48.3463 15.1152 39.4475 19.3709 31.7429L19.4282 31.6391L19.3246 31.5814L18.484 31.1131Z"/><path fill="#2E2FFF" stroke="#2E2FFF" stroke-width=".238" d="M77.6382 64.3858L77.6962 64.2815C82.0839 56.3878 83.1264 47.258 80.6519 38.5638L80.6519 38.5636C78.166 29.8807 72.4491 22.6844 64.5445 18.3028C56.6514 13.9213 47.5091 12.8688 38.8141 15.3512C30.1193 17.8337 22.913 23.5426 18.5253 31.4363L18.4677 31.5401L18.5713 31.5981L18.8567 31.7577L18.9608 31.8159L19.0188 31.7117C23.3414 23.9531 30.4277 18.3418 38.9707 15.8994C47.5251 13.4684 56.5111 14.5021 64.2806 18.8074C72.05 23.1241 77.669 30.2006 80.1147 38.7316C82.5491 47.2742 81.5253 56.2476 77.2028 64.0061L77.1449 64.11L77.2487 64.168L77.5341 64.3276L77.6382 64.3858Z"/><path fill="#2E2FFF" stroke="#2E2FFF" stroke-width=".238" d="M32.3292 72.156L32.431 72.2217L32.4949 72.1189L32.9295 71.4201L32.9913 71.3207L32.8931 71.2572C26.629 67.2078 22.3241 60.9574 20.7523 53.6683C19.1919 46.3676 20.5472 38.908 24.5905 32.6342C28.6337 26.3604 34.8745 22.049 42.1524 20.4748C49.4416 18.9121 56.8896 20.2694 63.1537 24.3188L63.2535 24.3833L63.3182 24.2836L63.7642 23.5963L63.8292 23.4963L63.729 23.4315C57.2287 19.2332 49.4875 17.8183 41.9305 19.4516C34.3738 21.0849 27.8959 25.5597 23.7041 32.07C19.5123 38.5801 18.0995 46.3332 19.7303 53.9016C21.3611 61.4698 25.8289 67.9576 32.3292 72.156Z"/><path fill="#2E2FFF" stroke="#2E2FFF" stroke-width=".238" d="M32.5156 71.6333L32.4504 71.7334L32.5507 71.7983C37.2207 74.816 42.5549 76.3708 47.9923 76.3708C50.007 76.3708 52.0443 76.1536 54.0699 75.7193C61.5328 74.1189 67.9316 69.7063 72.0751 63.3049C76.2188 56.9035 77.6038 49.2669 76.0014 41.814L76.0013 41.8139C74.3874 34.3609 69.9689 27.982 63.5591 23.844L63.4595 23.7797L63.3948 23.8791L63.2466 24.1068L63.1813 24.207L63.2819 24.2718C69.5816 28.33 73.9173 34.5981 75.495 41.9211C77.0728 49.2439 75.6995 56.7363 71.6358 63.0277C67.5723 69.319 61.2958 73.6489 53.963 75.2246C46.6302 76.8003 39.1278 75.4288 32.828 71.3705L32.7284 71.3064L32.6638 71.4057L32.5156 71.6333Z"/></g><circle cx="80" cy="80" r="16" fill="url(#paint1_linear)"/><path fill="#606063" fill-rule="evenodd" d="M69.6072 81.7579C69.6045 81.8177 69.6031 81.8777 69.6031 81.9378C69.6031 82.1652 69.6229 82.3898 69.6615 82.611H69.6031V82.9592C69.6031 83.1292 69.6141 83.2976 69.6359 83.4641C70.0595 86.7145 74.5379 89.2719 80 89.2719C85.4621 89.2719 89.9405 86.7145 90.3641 83.4641C90.3859 83.2976 90.3969 83.1292 90.3969 82.9592V82.611H90.3385C90.3771 82.3898 90.3969 82.1652 90.3969 81.9378C90.3969 81.8777 90.3955 81.8177 90.3928 81.7579C90.2359 78.3547 85.643 75.6252 80 75.6252C74.357 75.6252 69.7641 78.3547 69.6072 81.7579ZM68.7533 81.7579C68.8307 79.6815 70.2417 77.9373 72.2055 76.7449C74.2413 75.5088 76.9992 74.7721 80 74.7721C83.0008 74.7721 85.7587 75.5088 87.7945 76.7449C89.7583 77.9373 91.1693 79.6815 91.2467 81.7579H91.25V82.9592C91.25 85.1148 89.8148 86.9255 87.7945 88.1522C85.7587 89.3882 83.0008 90.125 80 90.125C76.9992 90.125 74.2413 89.3882 72.2055 88.1522C70.1852 86.9255 68.75 85.1148 68.75 82.9592V81.7579H68.7533Z" clip-rule="evenodd"/><path fill="#BEBEBE" d="M90.3969 82.9594C90.3969 86.4458 85.742 89.2721 79.9999 89.2721C74.2579 89.2721 69.603 86.4458 69.603 82.9594V81.9601H90.3969V82.9594Z"/><path fill="#FAF9FA" d="M90.3969 81.9379C90.3969 85.4242 85.742 88.2505 79.9999 88.2505C74.2579 88.2505 69.603 85.4242 69.603 81.9379C69.603 78.4515 74.2579 75.6252 79.9999 75.6252C85.742 75.6252 90.3969 78.4515 90.3969 81.9379Z"/><path fill="#633001" fill-rule="evenodd" d="M71.2027 80.1545C71.2027 80.1585 71.2027 80.1624 71.2027 80.1664C71.2027 80.4534 71.2443 80.7346 71.324 81.0076H71.2026V81.3773C71.2026 81.5405 71.216 81.7017 71.2423 81.8607C71.6386 84.261 74.9547 86.1345 78.9869 86.1345C83.019 86.1345 86.3351 84.261 86.7315 81.8607C86.7578 81.7017 86.7712 81.5405 86.7712 81.3773V81.0076H86.65C86.7275 80.742 86.769 80.4688 86.7712 80.1898C86.7713 80.182 86.7713 80.1742 86.7713 80.1664C86.7713 80.1624 86.7713 80.1585 86.7713 80.1545C86.7608 77.5326 83.2797 75.4092 78.987 75.4092C74.6943 75.4092 71.2132 77.5326 71.2027 80.1545ZM70.3496 80.1545H70.3495V81.3773C70.3495 83.1006 71.489 84.5226 73.0377 85.4691C74.601 86.4244 76.7065 86.9876 78.9869 86.9876C81.2673 86.9876 83.3727 86.4244 84.9361 85.4691C86.4847 84.5226 87.6243 83.1006 87.6243 81.3773V80.193C87.6243 80.1841 87.6244 80.1752 87.6244 80.1664C87.6244 78.4431 86.4848 77.021 84.9362 76.0746C83.3728 75.1192 81.2674 74.5561 78.987 74.5561C76.7066 74.5561 74.6011 75.1192 73.0378 76.0746C71.4927 77.0189 70.3548 78.4365 70.3496 80.1545Z" clip-rule="evenodd"/><path fill="#FEDC90" d="M86.7713 81.3773C86.7713 84.0046 83.2861 86.1345 78.987 86.1345C74.6878 86.1345 71.2026 84.0046 71.2026 81.3773V80.2612H86.7713V81.3773Z"/><path fill="#D1884F" d="M86.7713 80.1664C86.7713 82.7937 83.2861 84.9235 78.987 84.9235C74.6878 84.9235 71.2026 82.7937 71.2026 80.1664C71.2026 77.539 74.6878 75.4092 78.987 75.4092C83.2861 75.4092 86.7713 77.539 86.7713 80.1664Z"/><path fill="#633001" fill-rule="evenodd" d="M73.5488 77.5952C73.5487 77.5992 73.5487 77.6031 73.5487 77.6071C73.5487 77.8941 73.5903 78.1753 73.6701 78.4483H73.5486V78.818C73.5486 78.9812 73.5621 79.1425 73.5883 79.3014C73.9847 81.7017 77.3008 83.5752 81.3329 83.5752C85.3651 83.5752 88.6812 81.7017 89.0776 79.3014C89.1038 79.1425 89.1173 78.9812 89.1173 78.818V78.4483H88.996C89.0736 78.1827 89.1151 77.9095 89.1173 77.6305C89.1173 77.6227 89.1174 77.6149 89.1174 77.6071C89.1174 77.6031 89.1173 77.5992 89.1173 77.5952C89.1069 74.9733 85.6257 72.8499 81.333 72.8499C77.0404 72.8499 73.5592 74.9733 73.5488 77.5952ZM72.6957 77.5952H72.6956V78.818C72.6956 80.5413 73.8351 81.9633 75.3838 82.9098C76.9471 83.8651 79.0526 84.4283 81.3329 84.4283C83.6133 84.4283 85.7188 83.8651 87.2821 82.9098C88.8308 81.9633 89.9703 80.5413 89.9703 78.818V77.6337C89.9704 77.6248 89.9704 77.616 89.9704 77.6071C89.9704 75.8838 88.8309 74.4617 87.2822 73.5153C85.7189 72.5599 83.6134 71.9968 81.333 71.9968C79.0527 71.9968 76.9472 72.5599 75.3839 73.5153C73.8387 74.4596 72.7009 75.8772 72.6957 77.5952Z" clip-rule="evenodd"/><path fill="#FEDC90" d="M89.1172 78.818C89.1172 81.4453 85.6321 83.5752 81.3329 83.5752C77.0337 83.5752 73.5486 81.4453 73.5486 78.818V77.7019H89.1172V78.818Z"/><path fill="#D1884F" d="M89.1172 77.6071C89.1172 80.2344 85.6321 82.3642 81.3329 82.3642C77.0337 82.3642 73.5486 80.2344 73.5486 77.6071C73.5486 74.9797 77.0337 72.8499 81.3329 72.8499C85.6321 72.8499 89.1172 74.9797 89.1172 77.6071Z"/><path fill="#633001" fill-rule="evenodd" d="M71.2027 75.0359C71.2027 75.0399 71.2027 75.0438 71.2027 75.0478C71.2027 75.3348 71.2443 75.616 71.324 75.889H71.2026V76.2587C71.2026 76.4219 71.216 76.5832 71.2423 76.7421C71.6386 79.1424 74.9547 81.0159 78.9869 81.0159C83.019 81.0159 86.3351 79.1424 86.7315 76.7421C86.7578 76.5832 86.7712 76.4219 86.7712 76.2587V75.889H86.65C86.7275 75.6234 86.769 75.3502 86.7712 75.0712C86.7713 75.0634 86.7713 75.0556 86.7713 75.0478C86.7713 75.0438 86.7713 75.0399 86.7713 75.0359C86.7608 72.4141 83.2797 70.2906 78.987 70.2906C74.6943 70.2906 71.2132 72.4141 71.2027 75.0359ZM70.3496 75.0359H70.3495V76.2587C70.3495 77.982 71.489 79.404 73.0377 80.3505C74.601 81.3059 76.7065 81.869 78.9869 81.869C81.2673 81.869 83.3727 81.3059 84.9361 80.3505C86.4847 79.404 87.6243 77.982 87.6243 76.2587V75.0744C87.6243 75.0655 87.6244 75.0567 87.6244 75.0478C87.6244 73.3245 86.4848 71.9024 84.9362 70.956C83.3728 70.0006 81.2674 69.4375 78.987 69.4375C76.7066 69.4375 74.6011 70.0006 73.0378 70.956C71.4927 71.9003 70.3548 73.3179 70.3496 75.0359Z" clip-rule="evenodd"/><path fill="#FEDC90" d="M86.7713 76.2587C86.7713 78.886 83.2861 81.0159 78.987 81.0159C74.6878 81.0159 71.2026 78.886 71.2026 76.2587V75.1426H86.7713V76.2587Z"/><path fill="#D1884F" d="M86.7713 75.0478C86.7713 77.6751 83.2861 79.8049 78.987 79.8049C74.6878 79.8049 71.2026 77.6751 71.2026 75.0478C71.2026 72.4204 74.6878 70.2906 78.987 70.2906C83.2861 70.2906 86.7713 72.4204 86.7713 75.0478Z"/><path fill="url(#paint2_linear)" fill-rule="evenodd" d="M73.0439 75.3438C73.0439 76.2209 73.6813 77.0066 74.6868 77.5351L73.9902 78.7418L73.9903 78.7419H73.9902V81.7959C73.9902 82.1997 74.3175 82.5271 74.7214 82.5271C75.1252 82.5271 75.4526 82.1997 75.4526 81.7959V79.3671L76.2021 78.0688C76.6814 78.1705 77.1958 78.2257 77.7313 78.2257C80.32 78.2257 82.4186 76.9354 82.4186 75.3438C82.4186 73.7522 80.32 72.4619 77.7313 72.4619C75.1425 72.4619 73.0439 73.7522 73.0439 75.3438Z" clip-rule="evenodd"/><path fill="#633001" fill-rule="evenodd" d="M74.6868 77.5351C74.5755 77.4766 74.4686 77.4149 74.3666 77.3502C73.5479 76.8314 73.0439 76.1238 73.0439 75.3438C73.0439 73.7522 75.1425 72.4619 77.7313 72.4619C80.32 72.4619 82.4186 73.7522 82.4186 75.3438C82.4186 76.9354 80.32 78.2257 77.7313 78.2257C77.1958 78.2257 76.6814 78.1705 76.2021 78.0688L75.4526 79.3671V81.7959C75.4526 82.1997 75.1252 82.5271 74.7214 82.5271C74.3175 82.5271 73.9902 82.1997 73.9902 81.7959V78.7419L74.6868 77.5351ZM73.2437 78.7548V81.7959C73.2437 82.612 73.9053 83.2736 74.7214 83.2736C75.5375 83.2736 76.199 82.612 76.199 81.7959V79.5671L76.5878 78.8937C76.957 78.9452 77.3397 78.9721 77.7313 78.9721C79.1409 78.9721 80.4528 78.6224 81.4367 78.0175C82.4083 77.4201 83.165 76.4958 83.165 75.3438C83.165 74.1917 82.4083 73.2675 81.4367 72.6701C80.4528 72.0652 79.1409 71.7154 77.7313 71.7154C76.3216 71.7154 75.0097 72.0652 74.0259 72.6701C73.0542 73.2675 72.2975 74.1917 72.2975 75.3438C72.2975 76.3549 72.8766 77.1875 73.6812 77.784L73.3489 78.3597C73.3172 78.4127 73.2919 78.47 73.2741 78.5305C73.2522 78.6043 73.2424 78.6799 73.2437 78.7548Z" clip-rule="evenodd"/><path fill="#9E7200" d="M74.5083 74.1295C74.5083 74.9541 75.5586 75.6225 76.8542 75.6225C78.1499 75.6225 79.2002 74.9541 79.2002 74.1295C79.2002 73.305 78.1499 72.6366 76.8542 72.6366C75.5586 72.6366 74.5083 73.305 74.5083 74.1295Z"/><path fill="#9E7200" d="M74.5083 73.4897H79.2002V74.1295H74.5083V73.4897Z"/><path fill="#F0B90B" d="M74.5083 73.4897C74.5083 74.3142 75.5586 74.9826 76.8542 74.9826C78.1499 74.9826 79.2002 74.3142 79.2002 73.4897C79.2002 72.6652 78.1499 71.9968 76.8542 71.9968C75.5586 71.9968 74.5083 72.6652 74.5083 73.4897Z"/><path fill="#9E7200" d="M75.964 73.3098L76.6252 72.889C76.765 72.8001 76.9435 72.8001 77.0832 72.889L77.7445 73.3098C77.8762 73.3936 77.8762 73.5858 77.7445 73.6696L77.0832 74.0904C76.9435 74.1794 76.765 74.1794 76.6252 74.0904L75.964 73.6696C75.8323 73.5858 75.8323 73.3936 75.964 73.3098Z"/><path fill="#633001" fill-rule="evenodd" d="M74.7947 71.8043C75.3562 71.4469 76.0864 71.2503 76.8543 71.2503C77.6221 71.2503 78.3523 71.4469 78.9139 71.8043C79.4666 72.156 79.9467 72.7337 79.9467 73.4897V74.1295C79.9467 74.8855 79.4666 75.4632 78.9139 75.815C78.3523 76.1723 77.6221 76.3689 76.8543 76.3689C76.0864 76.3689 75.3562 76.1723 74.7947 75.815C74.242 75.4632 73.7618 74.8855 73.7618 74.1295V73.4897C73.7618 72.7337 74.242 72.156 74.7947 71.8043ZM76.8543 71.9968C75.5586 71.9968 74.5083 72.6652 74.5083 73.4897V74.1295C74.5083 74.9541 75.5586 75.6225 76.8543 75.6225C78.1499 75.6225 79.2002 74.9541 79.2002 74.1295V73.4897C79.2002 72.6652 78.1499 71.9968 76.8543 71.9968Z" clip-rule="evenodd"/><defs><linearGradient id="paint0_linear" x1="35.718" x2="58.811" y1="34.48" y2="59.897" gradientUnits="userSpaceOnUse"><stop stop-color="#2E2FFF"/><stop offset=".964" stop-color="#1F1F61"/></linearGradient><linearGradient id="paint1_linear" x1="80" x2="80" y1="64" y2="96" gradientUnits="userSpaceOnUse"><stop stop-color="#54DADE"/><stop offset=".762" stop-color="#24C7D6"/></linearGradient><linearGradient id="paint2_linear" x1="77.782" x2="77.782" y1="72.558" y2="82.451" gradientUnits="userSpaceOnUse"><stop stop-color="#9F4A08"/><stop offset=".37" stop-color="#7D3900"/><stop offset="1" stop-color="#8D4104"/></linearGradient></defs></svg>