<svg xmlns="http://www.w3.org/2000/svg" width="96" height="96" fill="none" viewBox="0 0 96 96"><mask id="mask0" width="96" height="96" x="0" y="0" mask-type="alpha" maskUnits="userSpaceOnUse"><path fill="#C4C4C4" fill-rule="evenodd" d="M96 0H0V96H69.7487C64.4865 92.6215 61 86.7179 61 80C61 69.5066 69.5066 61 80 61C86.7179 61 92.6215 64.4865 96 69.7487V0Z" clip-rule="evenodd"/></mask><g mask="url(#mask0)"><circle cx="48" cy="48" r="48" fill="url(#paint0_linear)"/><path fill="#606063" fill-rule="evenodd" d="M16.8217 53.2738C16.8134 53.4531 16.8092 53.633 16.8092 53.8135C16.8092 54.4957 16.8687 55.1695 16.9845 55.8331H16.8092V56.8776C16.8092 57.3875 16.8424 57.8927 16.9076 58.3924C18.1785 68.1433 31.6136 75.8157 48 75.8157C64.3864 75.8157 77.8215 68.1433 79.0924 58.3924C79.1576 57.8927 79.1908 57.3875 79.1908 56.8776V55.8331H79.0155C79.1313 55.1695 79.1908 54.4957 79.1908 53.8135C79.1908 53.633 79.1866 53.4531 79.1783 53.2738C78.7078 43.0642 64.9289 34.8755 48 34.8755C31.0711 34.8755 17.2922 43.0642 16.8217 53.2738ZM14.26 53.2738C14.492 47.0445 18.725 41.8118 24.6166 38.2346C30.7239 34.5265 38.9975 32.3162 48 32.3162C57.0025 32.3162 65.2761 34.5265 71.3834 38.2346C77.275 41.8118 81.508 47.0445 81.74 53.2738H81.75V56.8776C81.75 63.3444 77.4444 68.7765 71.3834 72.4565C65.2761 76.1646 57.0025 78.375 48 78.375C38.9975 78.375 30.7239 76.1646 24.6166 72.4565C18.5556 68.7765 14.25 63.3444 14.25 56.8776V53.2738H14.26Z" clip-rule="evenodd"/><path fill="#BEBEBE" d="M79.1907 56.8782C79.1907 67.3374 65.2261 75.8162 48 75.8162C30.7738 75.8162 16.8092 67.3374 16.8092 56.8782V53.8802H79.1907V56.8782Z"/><path fill="#FAF9FA" d="M79.1907 53.8135C79.1907 64.2727 65.2261 72.7515 48 72.7515C30.7738 72.7515 16.8092 64.2727 16.8092 53.8135C16.8092 43.3543 30.7738 34.8755 48 34.8755C65.2261 34.8755 79.1907 43.3543 79.1907 53.8135Z"/><path fill="#633001" fill-rule="evenodd" d="M21.6082 48.4635C21.6081 48.4753 21.6081 48.4872 21.6081 48.499C21.6081 49.3602 21.7329 50.2036 21.9721 51.0228H21.6078V52.1318C21.6078 52.6214 21.6482 53.1052 21.7269 53.5821C22.916 60.7829 32.8644 66.4034 44.9608 66.4034C57.0572 66.4034 67.0055 60.7829 68.1946 53.5821C68.2734 53.1052 68.3137 52.6214 68.3137 52.1318V51.0228H67.95C68.1827 50.2259 68.3071 49.4062 68.3137 48.5695C68.3139 48.546 68.314 48.5225 68.314 48.499C68.314 48.4872 68.314 48.4753 68.3139 48.4635C68.2825 40.5979 57.8391 34.2275 44.961 34.2275C32.083 34.2275 21.6396 40.5979 21.6082 48.4635ZM19.0489 48.4635H19.0486V52.1318C19.0486 57.3018 22.4672 61.5678 27.1132 64.4071C31.8032 67.2733 38.1196 68.9627 44.9608 68.9627C51.8019 68.9627 58.1184 67.2733 62.8083 64.4071C67.4543 61.5678 70.873 57.3018 70.873 52.1318V48.5789C70.8731 48.5523 70.8732 48.5257 70.8732 48.499C70.8732 43.3291 67.4546 39.063 62.8086 36.2237C58.1186 33.3576 51.8022 31.6682 44.961 31.6682C38.1199 31.6682 31.8035 33.3576 27.1135 36.2237C22.4781 39.0565 19.0646 43.3095 19.0489 48.4635Z" clip-rule="evenodd"/><path fill="#FEDC90" d="M68.3137 52.132C68.3137 60.014 57.8582 66.4036 44.9607 66.4036C32.0633 66.4036 21.6078 60.014 21.6078 52.132V48.7836H68.3137V52.132Z"/><path fill="#D1884F" d="M68.3137 48.4991C68.3137 56.381 57.8582 62.7706 44.9607 62.7706C32.0633 62.7706 21.6078 56.381 21.6078 48.4991C21.6078 40.6171 32.0633 34.2275 44.9607 34.2275C57.8582 34.2275 68.3137 40.6171 68.3137 48.4991Z"/><path fill="#633001" fill-rule="evenodd" d="M28.6461 40.7856C28.6461 40.7975 28.6461 40.8093 28.6461 40.8212C28.6461 41.6824 28.7709 42.5257 29.0101 43.3449H28.6458V44.454C28.6458 44.9435 28.6861 45.4273 28.7649 45.9042C29.954 53.105 39.9023 58.7255 51.9987 58.7255C64.0951 58.7255 74.0435 53.105 75.2326 45.9042C75.3113 45.4273 75.3517 44.9435 75.3517 44.454V43.3449H74.988C75.2206 42.5481 75.3451 41.7283 75.3517 40.8916C75.3519 40.8681 75.352 40.8447 75.352 40.8212C75.352 40.8093 75.3519 40.7975 75.3519 40.7856C75.3205 32.92 64.8771 26.5497 51.999 26.5497C39.1209 26.5497 28.6775 32.92 28.6461 40.7856ZM26.0869 40.7856H26.0865V44.454C26.0865 49.6239 29.5052 53.89 34.1512 56.7293C38.8411 59.5954 45.1576 61.2848 51.9987 61.2848C58.8399 61.2848 65.1563 59.5954 69.8463 56.7293C74.4923 53.89 77.9109 49.6239 77.9109 44.454V40.9011C77.9111 40.8745 77.9112 40.8478 77.9112 40.8212C77.9112 35.6512 74.4926 31.3852 69.8465 28.5459C65.1566 25.6797 58.8402 23.9904 51.999 23.9904C45.1578 23.9904 38.8414 25.6797 34.1515 28.5459C29.5161 31.3787 26.1025 35.6317 26.0869 40.7856Z" clip-rule="evenodd"/><path fill="#FEDC90" d="M75.3516 44.4542C75.3516 52.3361 64.8962 58.7257 51.9987 58.7257C39.1012 58.7257 28.6458 52.3361 28.6458 44.4542V41.1057H75.3516V44.4542Z"/><path fill="#D1884F" d="M75.3516 40.8212C75.3516 48.7032 64.8962 55.0928 51.9987 55.0928C39.1012 55.0928 28.6458 48.7032 28.6458 40.8212C28.6458 32.9393 39.1012 26.5497 51.9987 26.5497C64.8962 26.5497 75.3516 32.9393 75.3516 40.8212Z"/><path fill="#633001" fill-rule="evenodd" d="M21.6082 33.1078C21.6081 33.1196 21.6081 33.1315 21.6081 33.1433C21.6081 34.0045 21.7329 34.8479 21.9721 35.667H21.6078V36.7761C21.6078 37.2657 21.6482 37.7495 21.7269 38.2263C22.916 45.4271 32.8644 51.0477 44.9608 51.0477C57.0572 51.0477 67.0055 45.4271 68.1946 38.2263C68.2734 37.7495 68.3137 37.2657 68.3137 36.7761V35.667H67.95C68.1827 34.8702 68.3071 34.0505 68.3137 33.2137C68.3139 33.1903 68.314 33.1668 68.314 33.1433C68.314 33.1315 68.314 33.1196 68.3139 33.1078C68.2825 25.2422 57.8391 18.8718 44.961 18.8718C32.083 18.8718 21.6396 25.2422 21.6082 33.1078ZM19.0489 33.1078H19.0486V36.7761C19.0486 41.9461 22.4672 46.2121 27.1132 49.0514C31.8032 51.9176 38.1196 53.6069 44.9608 53.6069C51.8019 53.6069 58.1184 51.9176 62.8083 49.0514C67.4543 46.2121 70.873 41.9461 70.873 36.7761V33.2232C70.8731 33.1966 70.8732 33.17 70.8732 33.1433C70.8732 27.9734 67.4546 23.7073 62.8086 20.868C58.1186 18.0019 51.8022 16.3125 44.961 16.3125C38.1199 16.3125 31.8035 18.0019 27.1135 20.868C22.4781 23.7008 19.0646 27.9538 19.0489 33.1078Z" clip-rule="evenodd"/><path fill="#FEDC90" d="M68.3137 36.7762C68.3137 44.6581 57.8582 51.0477 44.9607 51.0477C32.0633 51.0477 21.6078 44.6581 21.6078 36.7762V33.4277H68.3137V36.7762Z"/><path fill="#D1884F" d="M68.3137 33.1434C68.3137 41.0253 57.8582 47.4149 44.9607 47.4149C32.0633 47.4149 21.6078 41.0253 21.6078 33.1434C21.6078 25.2614 32.0633 18.8718 44.9607 18.8718C57.8582 18.8718 68.3137 25.2614 68.3137 33.1434Z"/><path fill="url(#paint1_linear)" fill-rule="evenodd" d="M27.1319 34.0313C27.1319 36.6628 29.044 39.0196 32.0606 40.6053L29.9706 44.2255L29.971 44.2257H29.9706V53.3876C29.9706 54.5991 30.9527 55.5812 32.1642 55.5812C33.3757 55.5812 34.3578 54.5991 34.3578 53.3876V46.1012L36.6064 42.2065C38.0442 42.5114 39.5876 42.677 41.1939 42.677C48.9601 42.677 55.2559 38.8062 55.2559 34.0313C55.2559 29.2564 48.9601 25.3856 41.1939 25.3856C33.4277 25.3856 27.1319 29.2564 27.1319 34.0313Z" clip-rule="evenodd"/><path fill="#633001" fill-rule="evenodd" d="M32.0605 40.6053C31.7264 40.4297 31.4058 40.2446 31.0998 40.0507C28.6438 38.4941 27.1318 36.3713 27.1318 34.0313C27.1318 29.2564 33.4276 25.3856 41.1938 25.3856C48.96 25.3856 55.2558 29.2564 55.2558 34.0313C55.2558 38.8062 48.96 42.677 41.1938 42.677C39.5875 42.677 38.0441 42.5114 36.6064 42.2065L34.3578 46.1012V53.3876C34.3578 54.5991 33.3756 55.5812 32.1641 55.5812C30.9526 55.5812 29.9705 54.5991 29.9705 53.3876V44.2257L32.0605 40.6053ZM27.7312 44.2642V53.3876C27.7312 55.8359 29.7159 57.8206 32.1641 57.8206C34.6124 57.8206 36.5971 55.8359 36.5971 53.3876V46.7013L37.7634 44.6812C38.8711 44.8356 40.0191 44.9164 41.1938 44.9164C45.4227 44.9164 49.3585 43.867 52.31 42.0524C55.2249 40.2602 57.4951 37.4874 57.4951 34.0313C57.4951 30.5752 55.2249 27.8024 52.31 26.0102C49.3585 24.1956 45.4227 23.1462 41.1938 23.1462C36.9649 23.1462 33.0291 24.1956 30.0777 26.0102C27.1627 27.8024 24.8925 30.5752 24.8925 34.0313C24.8925 37.0646 26.6298 39.5624 29.0437 41.3521L28.0466 43.079C27.9516 43.2381 27.8757 43.41 27.8222 43.5915C27.7567 43.8128 27.7271 44.0397 27.7312 44.2642Z" clip-rule="evenodd"/><path fill="#9E7200" d="M31.5249 30.3887C31.5249 32.8622 34.6759 34.8674 38.5628 34.8674C42.4497 34.8674 45.6007 32.8622 45.6007 30.3887C45.6007 27.9151 42.4497 25.9099 38.5628 25.9099C34.6759 25.9099 31.5249 27.9151 31.5249 30.3887Z"/><path fill="#9E7200" d="M31.5249 28.4691H45.6007V30.3886H31.5249V28.4691Z"/><path fill="#F0B90B" d="M31.5249 28.4691C31.5249 30.9427 34.6759 32.9479 38.5628 32.9479C42.4497 32.9479 45.6007 30.9427 45.6007 28.4691C45.6007 25.9956 42.4497 23.9904 38.5628 23.9904C34.6759 23.9904 31.5249 25.9956 31.5249 28.4691Z"/><path fill="#9E7200" d="M35.8921 27.9294L37.8759 26.667C38.295 26.4002 38.8307 26.4002 39.2499 26.667L41.2336 27.9294C41.6287 28.1808 41.6287 28.7575 41.2336 29.009L39.2499 30.2714C38.8307 30.5381 38.295 30.5381 37.8759 30.2714L35.8921 29.009C35.4971 28.7575 35.4971 28.1808 35.8921 27.9294Z"/><path fill="#633001" fill-rule="evenodd" d="M32.384 23.4129C34.0686 22.3408 36.2592 21.751 38.5628 21.751C40.8663 21.751 43.0569 22.3408 44.7416 23.4129C46.3997 24.468 47.84 26.2011 47.84 28.4691V30.3886C47.84 32.6566 46.3997 34.3897 44.7416 35.4448C43.0569 36.5169 40.8663 37.1067 38.5628 37.1067C36.2592 37.1067 34.0686 36.5169 32.384 35.4448C30.7259 34.3897 29.2855 32.6566 29.2855 30.3886V28.4691C29.2855 26.2011 30.7259 24.468 32.384 23.4129ZM38.5628 23.9904C34.6758 23.9904 31.5249 25.9956 31.5249 28.4691V30.3886C31.5249 32.8621 34.6758 34.8674 38.5628 34.8674C42.4497 34.8674 45.6007 32.8621 45.6007 30.3886V28.4691C45.6007 25.9956 42.4497 23.9904 38.5628 23.9904Z" clip-rule="evenodd"/></g><path fill="#3375BB" d="M80 96C88.8366 96 96 88.8366 96 80C96 71.1634 88.8366 64 80 64C71.1634 64 64 71.1634 64 80C64 88.8366 71.1634 96 80 96Z"/><path fill="#FFFDFA" d="M79.9999 71.6297L80.4375 71.0601C80.3116 70.9632 80.1571 70.9108 79.9983 70.9108C79.8394 70.9108 79.685 70.9632 79.559 71.0601L79.9999 71.6297ZM87.5236 73.8404H88.2412C88.2425 73.7452 88.2249 73.6507 88.1894 73.5624C88.154 73.474 88.1014 73.3935 88.0346 73.3256C87.9679 73.2577 87.8884 73.2037 87.8007 73.1666C87.713 73.1296 87.6188 73.1103 87.5236 73.1099V73.8404ZM79.9999 89.2097L79.6008 89.8082C79.7184 89.887 79.8567 89.929 79.9983 89.929C80.1397 89.929 80.2781 89.887 80.3957 89.8082L79.9999 89.2097ZM72.4826 73.8404V73.1196C72.3874 73.12 72.2932 73.1393 72.2054 73.1763C72.1177 73.2133 72.0382 73.2673 71.9715 73.3353C71.9048 73.4032 71.8522 73.4836 71.8167 73.572C71.7813 73.6604 71.7637 73.7549 71.765 73.8501L72.4826 73.8404ZM79.5622 72.196C82.8188 74.7189 86.5485 74.558 87.5268 74.558V73.1196C86.5131 73.1196 83.2662 73.2483 80.4472 71.0601L79.5622 72.196ZM86.8092 73.8275C86.7545 77.1614 86.6129 79.5138 86.3426 81.2548C86.0723 82.9957 85.699 84.0126 85.2066 84.7399C84.7143 85.4671 84.0835 85.9402 83.1599 86.4905C82.2364 87.0407 81.0554 87.6522 79.6008 88.6143L80.4118 89.8082C81.7891 88.8911 82.9347 88.3054 83.9098 87.723C84.8923 87.1879 85.7449 86.443 86.4069 85.5412C87.0505 84.5758 87.4914 83.2885 87.7746 81.4736C88.0578 79.6586 88.2026 77.2161 88.2573 73.8501L86.8092 73.8275ZM80.4118 88.6143C78.9669 87.6489 77.7891 87.0504 76.8719 86.4937C75.9548 85.9369 75.3241 85.4929 74.8285 84.7399C74.3329 83.9868 73.9307 82.986 73.6539 81.2548C73.3772 79.5235 73.2549 77.1614 73.2002 73.8275L71.765 73.8501C71.8197 77.2161 71.9677 79.665 72.2476 81.4736C72.5276 83.2821 72.9556 84.5693 73.6121 85.5412C74.271 86.4435 75.1216 87.1886 76.1029 87.723C77.0683 88.3054 78.2235 88.8911 79.6008 89.8082L80.4118 88.6143ZM72.4826 74.558C73.448 74.558 77.1809 74.7189 80.4375 72.196L79.559 71.0601C76.7336 73.2483 73.4866 73.1196 72.4794 73.1196L72.4826 74.558Z"/><defs><linearGradient id="paint0_linear" x1="48" x2="48" y1="0" y2="96" gradientUnits="userSpaceOnUse"><stop stop-color="#54DADE"/><stop offset=".762" stop-color="#24C7D6"/></linearGradient><linearGradient id="paint1_linear" x1="41.346" x2="41.346" y1="25.675" y2="55.354" gradientUnits="userSpaceOnUse"><stop stop-color="#9F4A08"/><stop offset=".37" stop-color="#7D3900"/><stop offset="1" stop-color="#8D4104"/></linearGradient></defs></svg>