<svg width="64" height="64" viewBox="0 0 64 64" fill="none" xmlns="http://www.w3.org/2000/svg">
<mask id="mask0" mask-type="alpha" maskUnits="userSpaceOnUse" x="0" y="0" width="64" height="64">
<path fill-rule="evenodd" clip-rule="evenodd" d="M64 0H0V64H46.4991C42.991 61.7476 40.6667 57.8119 40.6667 53.3333C40.6667 46.3377 46.3377 40.6667 53.3333 40.6667C57.8119 40.6667 61.7476 42.991 64 46.4991V0Z" fill="#C4C4C4"/>
</mask>
<g mask="url(#mask0)">
<circle cx="32" cy="32" r="32" fill="url(#paint0_linear)"/>
<path fill-rule="evenodd" clip-rule="evenodd" d="M11.2144 35.5159C11.2089 35.6355 11.2062 35.7554 11.2062 35.8757C11.2062 36.3306 11.2458 36.7798 11.323 37.2221H11.2062V37.9185C11.2062 38.2584 11.2283 38.5952 11.2717 38.9283C12.119 45.429 21.0757 50.5439 32 50.5439C42.9243 50.5439 51.881 45.429 52.7283 38.9283C52.7717 38.5952 52.7938 38.2584 52.7938 37.9185V37.2221H52.677C52.7542 36.7798 52.7938 36.3306 52.7938 35.8757C52.7938 35.7554 52.7911 35.6355 52.7856 35.5159C52.4719 28.7095 43.2859 23.2504 32 23.2504C20.7141 23.2504 11.5281 28.7095 11.2144 35.5159ZM9.50669 35.5159C9.66134 31.3631 12.4833 27.8746 16.4111 25.4898C20.4826 23.0177 25.9983 21.5442 32 21.5442C38.0017 21.5442 43.5174 23.0177 47.5889 25.4898C51.5167 27.8746 54.3387 31.3631 54.4933 35.5159H54.5V37.9185C54.5 42.2297 51.6296 45.8511 47.5889 48.3044C43.5174 50.7765 38.0017 52.25 32 52.25C25.9983 52.25 20.4826 50.7765 16.4111 48.3044C12.3704 45.8511 9.5 42.2297 9.5 37.9185V35.5159H9.50669Z" fill="#606063"/>
<path d="M52.7937 37.9188C52.7937 44.8916 43.484 50.5441 31.9999 50.5441C20.5158 50.5441 11.2061 44.8916 11.2061 37.9188V35.9202H52.7937V37.9188Z" fill="#BEBEBE"/>
<path d="M52.7937 35.8757C52.7937 42.8485 43.484 48.5011 31.9999 48.5011C20.5158 48.5011 11.2061 42.8485 11.2061 35.8757C11.2061 28.9029 20.5158 23.2504 31.9999 23.2504C43.484 23.2504 52.7937 28.9029 52.7937 35.8757Z" fill="#FAF9FA"/>
<path fill-rule="evenodd" clip-rule="evenodd" d="M14.4056 32.309C14.4056 32.3169 14.4056 32.3248 14.4056 32.3327C14.4056 32.9069 14.4888 33.4691 14.6482 34.0152H14.4054V34.7546C14.4054 35.081 14.4323 35.4035 14.4848 35.7214C15.2775 40.5219 21.9097 44.269 29.974 44.269C38.0383 44.269 44.6705 40.5219 45.4632 35.7214C45.5157 35.4035 45.5426 35.081 45.5426 34.7546V34.0152H45.3002C45.4553 33.484 45.5382 32.9375 45.5426 32.3797C45.5428 32.364 45.5428 32.3484 45.5428 32.3327C45.5428 32.3248 45.5428 32.3169 45.5428 32.309C45.5218 27.0653 38.5596 22.8184 29.9742 22.8184C21.3888 22.8184 14.4266 27.0653 14.4056 32.309ZM12.6994 32.309H12.6992V34.7546C12.6992 38.2012 14.9783 41.0453 18.0756 42.9381C21.2023 44.8489 25.4132 45.9752 29.974 45.9752C34.5348 45.9752 38.7457 44.8489 41.8724 42.9381C44.9697 41.0453 47.2488 38.2012 47.2488 34.7546V32.386C47.2489 32.3683 47.249 32.3505 47.249 32.3327C47.249 28.8861 44.9699 26.0421 41.8726 24.1492C38.7459 22.2384 34.535 21.1122 29.9742 21.1122C25.4134 21.1122 21.2025 22.2384 18.0758 24.1492C14.9856 26.0377 12.7099 28.8731 12.6994 32.309Z" fill="#633001"/>
<path d="M45.5425 34.7546C45.5425 40.0093 38.5722 44.269 29.9739 44.269C21.3756 44.269 14.4053 40.0093 14.4053 34.7546V32.5223H45.5425V34.7546Z" fill="#FEDC90"/>
<path d="M45.5425 32.3327C45.5425 37.5873 38.5722 41.8471 29.9739 41.8471C21.3756 41.8471 14.4053 37.5873 14.4053 32.3327C14.4053 27.0781 21.3756 22.8184 29.9739 22.8184C38.5722 22.8184 45.5425 27.0781 45.5425 32.3327Z" fill="#D1884F"/>
<path fill-rule="evenodd" clip-rule="evenodd" d="M19.0975 27.1904C19.0975 27.1983 19.0975 27.2062 19.0975 27.2141C19.0975 27.7882 19.1807 28.3504 19.3401 28.8966H19.0973V29.6359C19.0973 29.9623 19.1242 30.2848 19.1767 30.6028C19.9694 35.4033 26.6016 39.1503 34.6659 39.1503C42.7302 39.1503 49.3624 35.4033 50.1551 30.6028C50.2076 30.2848 50.2345 29.9623 50.2345 29.6359V28.8966H49.9921C50.1472 28.3653 50.2301 27.8189 50.2345 27.261C50.2347 27.2454 50.2347 27.2297 50.2347 27.2141C50.2347 27.2062 50.2347 27.1983 50.2347 27.1904C50.2137 21.9466 43.2515 17.6997 34.6661 17.6997C26.0807 17.6997 19.1184 21.9466 19.0975 27.1904ZM17.3913 27.1904H17.3911V29.6359C17.3911 33.0826 19.6702 35.9266 22.7675 37.8195C25.8942 39.7302 30.1051 40.8565 34.6659 40.8565C39.2267 40.8565 43.4376 39.7302 46.5643 37.8195C49.6616 35.9266 51.9407 33.0826 51.9407 29.6359V27.2673C51.9408 27.2496 51.9409 27.2318 51.9409 27.2141C51.9409 23.7675 49.6618 20.9234 46.5644 19.0306C43.4378 17.1198 39.2269 15.9935 34.6661 15.9935C30.1053 15.9935 25.8944 17.1198 22.7677 19.0306C19.6775 20.9191 17.4018 23.7544 17.3913 27.1904Z" fill="#633001"/>
<path d="M50.2344 29.6361C50.2344 34.8907 43.2641 39.1505 34.6658 39.1505C26.0675 39.1505 19.0972 34.8907 19.0972 29.6361V27.4038H50.2344V29.6361Z" fill="#FEDC90"/>
<path d="M50.2344 27.2142C50.2344 32.4688 43.2641 36.7285 34.6658 36.7285C26.0675 36.7285 19.0972 32.4688 19.0972 27.2142C19.0972 21.9596 26.0675 17.6998 34.6658 17.6998C43.2641 17.6998 50.2344 21.9596 50.2344 27.2142Z" fill="#D1884F"/>
<path fill-rule="evenodd" clip-rule="evenodd" d="M14.4056 22.0718C14.4056 22.0797 14.4056 22.0876 14.4056 22.0956C14.4056 22.6697 14.4888 23.2319 14.6482 23.778H14.4054V24.5174C14.4054 24.8438 14.4323 25.1663 14.4848 25.4842C15.2775 30.2848 21.9097 34.0318 29.974 34.0318C38.0383 34.0318 44.6705 30.2848 45.4632 25.4842C45.5157 25.1663 45.5426 24.8438 45.5426 24.5174V23.778H45.3002C45.4553 23.2468 45.5382 22.7003 45.5426 22.1425C45.5428 22.1269 45.5428 22.1112 45.5428 22.0956C45.5428 22.0876 45.5428 22.0797 45.5428 22.0718C45.5218 16.8281 38.5596 12.5812 29.9742 12.5812C21.3888 12.5812 14.4266 16.8281 14.4056 22.0718ZM12.6994 22.0718H12.6992V24.5174C12.6992 27.964 14.9783 30.8081 18.0756 32.7009C21.2023 34.6117 25.4132 35.738 29.974 35.738C34.5348 35.738 38.7457 34.6117 41.8724 32.7009C44.9697 30.8081 47.2488 27.964 47.2488 24.5174V22.1488C47.2489 22.1311 47.249 22.1133 47.249 22.0956C47.249 18.6489 44.9699 15.8049 41.8726 13.912C38.7459 12.0013 34.535 10.875 29.9742 10.875C25.4134 10.875 21.2025 12.0013 18.0758 13.912C14.9856 15.8005 12.7099 18.6359 12.6994 22.0718Z" fill="#633001"/>
<path d="M45.5425 24.5175C45.5425 29.7721 38.5722 34.0318 29.9739 34.0318C21.3756 34.0318 14.4053 29.7721 14.4053 24.5175V22.2852H45.5425V24.5175Z" fill="#FEDC90"/>
<path d="M45.5425 22.0955C45.5425 27.3502 38.5722 31.6099 29.9739 31.6099C21.3756 31.6099 14.4053 27.3502 14.4053 22.0955C14.4053 16.8409 21.3756 12.5812 29.9739 12.5812C38.5722 12.5812 45.5425 16.8409 45.5425 22.0955Z" fill="#D1884F"/>
<path fill-rule="evenodd" clip-rule="evenodd" d="M18.0881 22.6875C18.0881 24.4418 19.3629 26.013 21.3739 27.0702L19.9805 29.4836L19.9808 29.4838H19.9805V35.5917C19.9805 36.3994 20.6353 37.0541 21.443 37.0541C22.2506 37.0541 22.9054 36.3994 22.9054 35.5917V30.7341L24.4045 28.1376C25.363 28.3409 26.3919 28.4513 27.4628 28.4513C32.6402 28.4513 36.8374 25.8707 36.8374 22.6875C36.8374 19.5042 32.6402 16.9237 27.4628 16.9237C22.2853 16.9237 18.0881 19.5042 18.0881 22.6875Z" fill="url(#paint1_linear)"/>
<path fill-rule="evenodd" clip-rule="evenodd" d="M21.3737 27.0702C21.1509 26.9531 20.9372 26.8297 20.7332 26.7004C19.0959 25.6627 18.0879 24.2475 18.0879 22.6875C18.0879 19.5042 22.2851 16.9237 27.4625 16.9237C32.64 16.9237 36.8372 19.5042 36.8372 22.6875C36.8372 25.8707 32.64 28.4513 27.4625 28.4513C26.3917 28.4513 25.3628 28.3409 24.4042 28.1376L22.9052 30.7341V35.5917C22.9052 36.3994 22.2504 37.0541 21.4428 37.0541C20.6351 37.0541 19.9803 36.3994 19.9803 35.5917V29.4838L21.3737 27.0702ZM18.4874 29.5095V35.5917C18.4874 37.2239 19.8106 38.547 21.4428 38.547C23.0749 38.547 24.3981 37.2239 24.3981 35.5917V31.1341L25.1756 29.7874C25.9141 29.8903 26.6794 29.9442 27.4625 29.9442C30.2818 29.9442 32.9057 29.2446 34.8733 28.0349C36.8166 26.8401 38.3301 24.9916 38.3301 22.6875C38.3301 20.3834 36.8166 18.5349 34.8733 17.3401C32.9057 16.1304 30.2818 15.4308 27.4625 15.4308C24.6433 15.4308 22.0194 16.1304 20.0518 17.3401C18.1085 18.5349 16.595 20.3834 16.595 22.6875C16.595 24.7097 17.7532 26.3749 19.3624 27.568L18.6978 28.7193C18.6344 28.8254 18.5838 28.94 18.5482 29.061C18.5045 29.2085 18.4847 29.3597 18.4874 29.5095Z" fill="#633001"/>
<path d="M21.0165 20.259C21.0165 21.9081 23.1172 23.2449 25.7084 23.2449C28.2997 23.2449 30.4004 21.9081 30.4004 20.259C30.4004 18.61 28.2997 17.2732 25.7084 17.2732C23.1172 17.2732 21.0165 18.61 21.0165 20.259Z" fill="#9E7200"/>
<path d="M21.0166 18.9795H30.4005V20.2591H21.0166V18.9795Z" fill="#9E7200"/>
<path d="M21.0165 18.9794C21.0165 20.6284 23.1172 21.9652 25.7084 21.9652C28.2997 21.9652 30.4004 20.6284 30.4004 18.9794C30.4004 17.3303 28.2997 15.9935 25.7084 15.9935C23.1172 15.9935 21.0165 17.3303 21.0165 18.9794Z" fill="#F0B90B"/>
<path d="M23.928 18.6195L25.2505 17.7779C25.5299 17.6001 25.8871 17.6001 26.1665 17.7779L27.489 18.6195C27.7524 18.7871 27.7524 19.1716 27.489 19.3392L26.1665 20.1808C25.8871 20.3587 25.5299 20.3587 25.2505 20.1808L23.928 19.3392C23.6646 19.1716 23.6646 18.7871 23.928 18.6195Z" fill="#9E7200"/>
<path fill-rule="evenodd" clip-rule="evenodd" d="M21.5896 15.6085C22.7127 14.8938 24.173 14.5006 25.7088 14.5006C27.2445 14.5006 28.7049 14.8938 29.828 15.6085C30.9333 16.312 31.8936 17.4674 31.8936 18.9794V20.259C31.8936 21.771 30.9333 22.9264 29.828 23.6299C28.7049 24.3446 27.2445 24.7378 25.7088 24.7378C24.173 24.7378 22.7127 24.3446 21.5896 23.6299C20.4842 22.9264 19.5239 21.771 19.5239 20.259V18.9794C19.5239 17.4674 20.4842 16.312 21.5896 15.6085ZM25.7088 15.9935C23.1175 15.9935 21.0168 17.3303 21.0168 18.9794V20.259C21.0168 21.9081 23.1175 23.2449 25.7088 23.2449C28.3 23.2449 30.4007 21.9081 30.4007 20.259V18.9794C30.4007 17.3303 28.3 15.9935 25.7088 15.9935Z" fill="#633001"/>
</g>
<circle cx="53.3332" cy="53.3333" r="10.6667" fill="url(#paint2_linear)"/>
<path fill-rule="evenodd" clip-rule="evenodd" d="M46.4045 54.5053C46.4027 54.5451 46.4017 54.5851 46.4017 54.6252C46.4017 54.7768 46.4149 54.9265 46.4407 55.074H46.4017V55.3061C46.4017 55.4194 46.4091 55.5317 46.4236 55.6427C46.706 57.8096 49.6916 59.5146 53.333 59.5146C56.9744 59.5146 59.96 57.8096 60.2424 55.6427C60.2569 55.5317 60.2643 55.4194 60.2643 55.3061V55.074H60.2253C60.2511 54.9265 60.2643 54.7768 60.2643 54.6252C60.2643 54.5851 60.2634 54.5451 60.2615 54.5053C60.157 52.2365 57.095 50.4168 53.333 50.4168C49.571 50.4168 46.509 52.2365 46.4045 54.5053ZM45.8352 54.5053C45.8868 53.121 46.8275 51.9582 48.1367 51.1632C49.4939 50.3392 51.3324 49.848 53.333 49.848C55.3336 49.848 57.1721 50.3392 58.5293 51.1632C59.8386 51.9582 60.7792 53.121 60.8308 54.5053H60.833V55.3061C60.833 56.7432 59.8762 57.9503 58.5293 58.7681C57.1721 59.5921 55.3336 60.0833 53.333 60.0833C51.3324 60.0833 49.4939 59.5921 48.1367 58.7681C46.7898 57.9503 45.833 56.7432 45.833 55.3061V54.5053H45.8352Z" fill="#606063"/>
<path d="M60.2644 55.3062C60.2644 57.6305 57.1612 59.5147 53.3331 59.5147C49.5051 59.5147 46.4019 57.6305 46.4019 55.3062V54.64H60.2644V55.3062Z" fill="#BEBEBE"/>
<path d="M60.2644 54.6252C60.2644 56.9495 57.1612 58.8336 53.3331 58.8336C49.5051 58.8336 46.4019 56.9495 46.4019 54.6252C46.4019 52.3009 49.5051 50.4167 53.3331 50.4167C57.1612 50.4167 60.2644 52.3009 60.2644 54.6252Z" fill="#FAF9FA"/>
<path fill-rule="evenodd" clip-rule="evenodd" d="M47.4682 53.4363C47.4682 53.4389 47.4682 53.4415 47.4682 53.4442C47.4682 53.6355 47.4959 53.823 47.5491 54.005H47.4681V54.2515C47.4681 54.3602 47.4771 54.4678 47.4946 54.5737C47.7588 56.1739 49.9696 57.4229 52.6577 57.4229C55.3458 57.4229 57.5565 56.1739 57.8208 54.5737C57.8383 54.4678 57.8472 54.3602 57.8472 54.2515V54.005H57.7664C57.8181 53.8279 57.8457 53.6458 57.8472 53.4598C57.8473 53.4546 57.8473 53.4494 57.8473 53.4442C57.8473 53.4415 57.8473 53.4389 57.8473 53.4363C57.8403 51.6883 55.5195 50.2727 52.6577 50.2727C49.7959 50.2727 47.4752 51.6883 47.4682 53.4363ZM46.8995 53.4363H46.8994V54.2515C46.8994 55.4003 47.6591 56.3483 48.6916 56.9793C49.7338 57.6162 51.1374 57.9916 52.6577 57.9916C54.1779 57.9916 55.5816 57.6162 56.6238 56.9793C57.6562 56.3483 58.4159 55.4003 58.4159 54.2515V53.4619C58.416 53.456 58.416 53.4501 58.416 53.4442C58.416 52.2953 57.6563 51.3473 56.6239 50.7163C55.5816 50.0794 54.178 49.704 52.6577 49.704C51.1375 49.704 49.7338 50.0794 48.6916 50.7163C47.6615 51.3458 46.903 52.2909 46.8995 53.4363Z" fill="#633001"/>
<path d="M57.8473 54.2515C57.8473 56.0031 55.5239 57.423 52.6578 57.423C49.7917 57.423 47.4683 56.0031 47.4683 54.2515V53.5074H57.8473V54.2515Z" fill="#FEDC90"/>
<path d="M57.8473 53.4442C57.8473 55.1957 55.5239 56.6156 52.6578 56.6156C49.7917 56.6156 47.4683 55.1957 47.4683 53.4442C47.4683 51.6926 49.7917 50.2727 52.6578 50.2727C55.5239 50.2727 57.8473 51.6926 57.8473 53.4442Z" fill="#D1884F"/>
<path fill-rule="evenodd" clip-rule="evenodd" d="M49.0322 51.7301C49.0322 51.7327 49.0322 51.7354 49.0322 51.738C49.0322 51.9294 49.0599 52.1168 49.113 52.2988H49.0321V52.5453C49.0321 52.6541 49.0411 52.7616 49.0586 52.8675C49.3228 54.4677 51.5336 55.7167 54.2216 55.7167C56.9097 55.7167 59.1205 54.4677 59.3847 52.8675C59.4022 52.7616 59.4112 52.6541 59.4112 52.5453V52.2988H59.3304C59.3821 52.1217 59.4097 51.9396 59.4112 51.7536C59.4112 51.7484 59.4112 51.7432 59.4112 51.738C59.4112 51.7354 59.4112 51.7327 59.4112 51.7301C59.4043 49.9822 57.0835 48.5665 54.2217 48.5665C51.3599 48.5665 49.0392 49.9822 49.0322 51.7301ZM48.4635 51.7301H48.4634V52.5453C48.4634 53.6941 49.2231 54.6422 50.2555 55.2731C51.2977 55.91 52.7014 56.2855 54.2216 56.2855C55.7419 56.2855 57.1456 55.91 58.1878 55.2731C59.2202 54.6422 59.9799 53.6941 59.9799 52.5453V51.7557C59.9799 51.7498 59.98 51.7439 59.98 51.738C59.98 50.5891 59.2203 49.6411 58.1878 49.0101C57.1456 48.3732 55.742 47.9978 54.2217 47.9978C52.7014 47.9978 51.2978 48.3732 50.2556 49.0101C49.2255 49.6396 48.4669 50.5848 48.4635 51.7301Z" fill="#633001"/>
<path d="M59.4113 52.5454C59.4113 54.2969 57.0879 55.7168 54.2218 55.7168C51.3557 55.7168 49.0322 54.2969 49.0322 52.5454V51.8013H59.4113V52.5454Z" fill="#FEDC90"/>
<path d="M59.4113 51.738C59.4113 53.4895 57.0879 54.9094 54.2218 54.9094C51.3557 54.9094 49.0322 53.4895 49.0322 51.738C49.0322 49.9864 51.3557 48.5665 54.2218 48.5665C57.0879 48.5665 59.4113 49.9864 59.4113 51.738Z" fill="#D1884F"/>
<path fill-rule="evenodd" clip-rule="evenodd" d="M47.4682 50.0239C47.4682 50.0265 47.4682 50.0292 47.4682 50.0318C47.4682 50.2232 47.4959 50.4106 47.5491 50.5926H47.4681V50.8391C47.4681 50.9479 47.4771 51.0554 47.4946 51.1614C47.7588 52.7615 49.9696 54.0105 52.6577 54.0105C55.3458 54.0105 57.5565 52.7615 57.8208 51.1614C57.8383 51.0554 57.8472 50.9479 57.8472 50.8391V50.5926H57.7664C57.8181 50.4156 57.8457 50.2334 57.8472 50.0475C57.8473 50.0422 57.8473 50.037 57.8473 50.0318C57.8473 50.0292 57.8473 50.0265 57.8473 50.0239C57.8403 48.276 55.5195 46.8604 52.6577 46.8604C49.7959 46.8604 47.4752 48.276 47.4682 50.0239ZM46.8995 50.0239H46.8994V50.8391C46.8994 51.988 47.6591 52.936 48.6916 53.5669C49.7338 54.2039 51.1374 54.5793 52.6577 54.5793C54.1779 54.5793 55.5816 54.2039 56.6238 53.5669C57.6562 52.936 58.4159 51.988 58.4159 50.8391V50.0496C58.416 50.0436 58.416 50.0377 58.416 50.0318C58.416 48.8829 57.6563 47.9349 56.6239 47.304C55.5816 46.667 54.178 46.2916 52.6577 46.2916C51.1375 46.2916 49.7338 46.667 48.6916 47.304C47.6615 47.9335 46.903 48.8786 46.8995 50.0239Z" fill="#633001"/>
<path d="M57.8473 50.8391C57.8473 52.5906 55.5239 54.0105 52.6578 54.0105C49.7917 54.0105 47.4683 52.5906 47.4683 50.8391V50.095H57.8473V50.8391Z" fill="#FEDC90"/>
<path d="M57.8473 50.0318C57.8473 51.7833 55.5239 53.2033 52.6578 53.2033C49.7917 53.2033 47.4683 51.7833 47.4683 50.0318C47.4683 48.2803 49.7917 46.8604 52.6578 46.8604C55.5239 46.8604 57.8473 48.2803 57.8473 50.0318Z" fill="#D1884F"/>
<path fill-rule="evenodd" clip-rule="evenodd" d="M48.6955 50.2291C48.6955 50.8139 49.1205 51.3376 49.7908 51.69L49.3264 52.4945L49.3265 52.4946H49.3264V54.5305C49.3264 54.7997 49.5446 55.018 49.8138 55.018C50.0831 55.018 50.3013 54.7997 50.3013 54.5305V52.9113L50.801 52.0458C51.1205 52.1136 51.4635 52.1504 51.8204 52.1504C53.5463 52.1504 54.9453 51.2902 54.9453 50.2291C54.9453 49.168 53.5463 48.3079 51.8204 48.3079C50.0946 48.3079 48.6955 49.168 48.6955 50.2291Z" fill="url(#paint3_linear)"/>
<path fill-rule="evenodd" clip-rule="evenodd" d="M49.7907 51.69C49.7165 51.6509 49.6452 51.6098 49.5773 51.5667C49.0315 51.2208 48.6955 50.7491 48.6955 50.2291C48.6955 49.168 50.0945 48.3078 51.8204 48.3078C53.5462 48.3078 54.9452 49.168 54.9452 50.2291C54.9452 51.2902 53.5462 52.1503 51.8204 52.1503C51.4634 52.1503 51.1204 52.1135 50.8009 52.0458L50.3012 52.9113V54.5305C50.3012 54.7997 50.083 55.018 49.8138 55.018C49.5445 55.018 49.3263 54.7997 49.3263 54.5305V52.4945L49.7907 51.69ZM48.8287 52.5031V54.5305C48.8287 55.0745 49.2697 55.5156 49.8138 55.5156C50.3578 55.5156 50.7989 55.0745 50.7989 54.5305V53.0446L51.058 52.5957C51.3042 52.63 51.5593 52.648 51.8204 52.648C52.7601 52.648 53.6347 52.4148 54.2906 52.0115C54.9384 51.6133 55.4429 50.9971 55.4429 50.2291C55.4429 49.4611 54.9384 48.8449 54.2906 48.4466C53.6347 48.0434 52.7601 47.8102 51.8204 47.8102C50.8806 47.8102 50.006 48.0434 49.3501 48.4466C48.7023 48.8449 48.1978 49.4611 48.1978 50.2291C48.1978 50.9031 48.5839 51.4582 49.1203 51.8559L48.8988 52.2397C48.8776 52.275 48.8608 52.3132 48.8489 52.3536C48.8343 52.4028 48.8277 52.4532 48.8287 52.5031Z" fill="#633001"/>
<path d="M49.6718 49.4196C49.6718 49.9693 50.3721 50.4149 51.2358 50.4149C52.0996 50.4149 52.7998 49.9693 52.7998 49.4196C52.7998 48.8699 52.0996 48.4243 51.2358 48.4243C50.3721 48.4243 49.6718 48.8699 49.6718 49.4196Z" fill="#9E7200"/>
<path d="M49.6719 48.9932H52.7998V49.4197H49.6719V48.9932Z" fill="#9E7200"/>
<path d="M49.6718 48.9931C49.6718 49.5428 50.3721 49.9884 51.2358 49.9884C52.0996 49.9884 52.7998 49.5428 52.7998 48.9931C52.7998 48.4434 52.0996 47.9978 51.2358 47.9978C50.3721 47.9978 49.6718 48.4434 49.6718 48.9931Z" fill="#F0B90B"/>
<path d="M50.6425 48.8731L51.0833 48.5926C51.1765 48.5333 51.2955 48.5333 51.3887 48.5926L51.8295 48.8731C51.9173 48.929 51.9173 49.0571 51.8295 49.113L51.3887 49.3935C51.2955 49.4528 51.1765 49.4528 51.0833 49.3935L50.6425 49.113C50.5547 49.0571 50.5547 48.929 50.6425 48.8731Z" fill="#9E7200"/>
<path fill-rule="evenodd" clip-rule="evenodd" d="M49.8629 47.8694C50.2372 47.6312 50.724 47.5001 51.2359 47.5001C51.7478 47.5001 52.2346 47.6312 52.609 47.8694C52.9775 48.1039 53.2975 48.489 53.2975 48.993V49.4196C53.2975 49.9236 52.9775 50.3087 52.609 50.5432C52.2346 50.7814 51.7478 50.9125 51.2359 50.9125C50.724 50.9125 50.2372 50.7814 49.8629 50.5432C49.4944 50.3087 49.1743 49.9236 49.1743 49.4196V48.993C49.1743 48.489 49.4944 48.1039 49.8629 47.8694ZM51.2359 47.9978C50.3722 47.9978 49.6719 48.4434 49.6719 48.993V49.4196C49.6719 49.9693 50.3722 50.4149 51.2359 50.4149C52.0997 50.4149 52.7999 49.9693 52.7999 49.4196V48.993C52.7999 48.4434 52.0997 47.9978 51.2359 47.9978Z" fill="#633001"/>
<path d="M63.9998 53.3333C63.9998 59.2243 59.2242 64 53.3332 64C47.4421 64 42.6665 59.2243 42.6665 53.3333C42.6665 47.4423 47.4421 42.6666 53.3332 42.6666C59.2242 42.6666 63.9998 47.4423 63.9998 53.3333Z" fill="#31D0AA"/>
<path fill-rule="evenodd" clip-rule="evenodd" d="M53.3332 62.6666C58.4878 62.6666 62.6665 58.4879 62.6665 53.3333C62.6665 48.1786 58.4878 44 53.3332 44C48.1785 44 43.9998 48.1786 43.9998 53.3333C43.9998 58.4879 48.1785 62.6666 53.3332 62.6666ZM53.3332 64C59.2242 64 63.9998 59.2243 63.9998 53.3333C63.9998 47.4423 59.2242 42.6666 53.3332 42.6666C47.4421 42.6666 42.6665 47.4423 42.6665 53.3333C42.6665 59.2243 47.4421 64 53.3332 64Z" fill="#191326"/>
<path d="M53.3333 49.3334V50.5267C53.3333 50.8267 53.6933 50.9734 53.9 50.7601L55.76 48.9001C55.8933 48.7667 55.8933 48.5601 55.76 48.4267L53.9 46.5667C53.6933 46.3601 53.3333 46.5067 53.3333 46.8067V48.0001C50.3867 48.0001 48 50.3867 48 53.3334C48 54.0267 48.1333 54.6934 48.38 55.3001C48.56 55.7467 49.1333 55.8667 49.4733 55.5267C49.6533 55.3467 49.7267 55.0734 49.6267 54.8334C49.4333 54.3734 49.3333 53.8601 49.3333 53.3334C49.3333 51.1267 51.1267 49.3334 53.3333 49.3334ZM57.1933 51.1401C57.0133 51.3201 56.94 51.6001 57.04 51.8334C57.2267 52.3001 57.3333 52.8067 57.3333 53.3334C57.3333 55.5401 55.54 57.3334 53.3333 57.3334V56.1401C53.3333 55.8401 52.9733 55.6934 52.7667 55.9067L50.9067 57.7667C50.7733 57.9001 50.7733 58.1068 50.9067 58.2401L52.7667 60.1001C52.9733 60.3067 53.3333 60.1601 53.3333 59.8667V58.6667C56.28 58.6667 58.6667 56.2801 58.6667 53.3334C58.6667 52.6401 58.5333 51.9734 58.2867 51.3667C58.1067 50.9201 57.5333 50.8001 57.1933 51.1401Z" fill="#191326"/>
<defs>
<linearGradient id="paint0_linear" x1="32" y1="0" x2="32" y2="64" gradientUnits="userSpaceOnUse">
<stop stop-color="#54DADE"/>
<stop offset="0.762157" stop-color="#24C7D6"/>
</linearGradient>
<linearGradient id="paint1_linear" x1="27.5642" y1="17.1167" x2="27.5642" y2="36.9029" gradientUnits="userSpaceOnUse">
<stop stop-color="#9F4A08"/>
<stop offset="0.370494" stop-color="#7D3900"/>
<stop offset="1" stop-color="#8D4104"/>
</linearGradient>
<linearGradient id="paint2_linear" x1="53.3332" y1="42.6666" x2="53.3332" y2="64" gradientUnits="userSpaceOnUse">
<stop stop-color="#54DADE"/>
<stop offset="0.762157" stop-color="#24C7D6"/>
</linearGradient>
<linearGradient id="paint3_linear" x1="51.8542" y1="48.3722" x2="51.8542" y2="54.9676" gradientUnits="userSpaceOnUse">
<stop stop-color="#9F4A08"/>
<stop offset="0.370494" stop-color="#7D3900"/>
<stop offset="1" stop-color="#8D4104"/>
</linearGradient>
</defs>
</svg>
