<svg xmlns="http://www.w3.org/2000/svg" width="96" height="96" fill="none" viewBox="0 0 96 96"><mask id="mask0" width="96" height="96" x="0" y="0" mask-type="alpha" maskUnits="userSpaceOnUse"><path fill="#C4C4C4" fill-rule="evenodd" d="M96 0H0V96H69.7487C64.4865 92.6215 61 86.7179 61 80C61 69.5066 69.5066 61 80 61C86.7179 61 92.6215 64.4865 96 69.7487V0Z" clip-rule="evenodd"/></mask><g mask="url(#mask0)"><circle cx="48" cy="48" r="48" fill="#fff"/><path fill="#262262" d="M51.7068 45.4156C51.9617 45.1607 52.0892 44.9058 52.0892 44.6509C52.0892 44.396 51.9617 44.0137 51.7068 43.8862C51.3245 43.5039 50.5598 43.5039 50.1775 43.8862C49.9226 44.1411 49.7952 44.396 49.7952 44.6509C49.7952 44.9058 49.9226 45.2881 50.1775 45.4156C50.4324 45.6705 50.6873 45.7979 50.9422 45.7979C51.1971 45.7979 51.452 45.6705 51.7068 45.4156Z"/><path fill="#262262" d="M37.5607 56.5032C37.1783 56.8855 37.1783 57.6502 37.5607 58.0325C37.8156 58.2874 38.0705 58.4148 38.3253 58.4148C38.9626 58.4148 39.4723 57.9051 39.4723 57.2679C39.4723 57.013 39.3449 56.6306 39.09 56.5032C38.7077 55.9934 37.943 55.9934 37.5607 56.5032Z"/><path fill="#262262" d="M54.1284 42.6118C54.3833 42.6118 54.7657 42.4843 54.8931 42.2294C55.148 41.9746 55.2754 41.7197 55.2754 41.4648C55.2754 41.2099 55.148 40.8276 54.8931 40.7001C54.5108 40.3178 53.7461 40.1903 53.3638 40.7001C53.1089 40.955 52.9814 41.2099 52.9814 41.4648C52.9814 41.7197 53.1089 42.102 53.3638 42.2294C53.4912 42.4843 53.7461 42.6118 54.1284 42.6118Z"/><path fill="#262262" d="M43.8054 50.131C43.5505 50.3859 43.4231 50.6408 43.4231 50.8957C43.4231 51.5329 43.9329 52.0427 44.5701 52.0427C45.2073 52.0427 45.7171 51.5329 45.7171 50.8957C45.7171 50.6408 45.5896 50.2584 45.3348 50.131C44.9524 49.7487 44.3152 49.7487 43.8054 50.131Z"/><path fill="#262262" d="M28.0022 65.9341C27.7473 66.189 27.6199 66.4439 27.6199 66.6988C27.6199 67.336 28.1297 67.8457 28.7669 67.8457C29.0218 67.8457 29.4041 67.7183 29.5315 67.4634C29.7864 67.336 29.7864 66.9536 29.9139 66.6988C29.9139 66.4439 29.7864 66.0615 29.5315 65.9341C29.1492 65.5518 28.512 65.5518 28.0022 65.9341Z"/><path fill="#262262" d="M66.7454 29.9948C67.0003 29.9948 67.3826 29.8674 67.51 29.6125C67.8924 29.2301 67.8924 28.4655 67.51 28.0831C67.1277 27.7008 66.3631 27.7008 65.9807 28.0831C65.5984 28.4655 65.5984 29.2301 65.9807 29.6125C66.1082 29.8674 66.3631 29.9948 66.7454 29.9948Z"/><path fill="#262262" d="M34.3744 59.5619C34.1195 59.8168 33.9921 60.0717 33.9921 60.3266C33.9921 60.5814 34.1195 60.9638 34.3744 61.0912C34.7567 61.4736 35.5214 61.4736 35.9037 61.0912C36.1586 60.8363 36.2861 60.5814 36.2861 60.3266C36.2861 59.6893 35.7763 59.1796 35.1391 59.1796C34.8842 59.307 34.6293 59.4345 34.3744 59.5619Z"/><path fill="#262262" d="M31.1885 62.7481C30.9336 63.0029 30.8062 63.2578 30.8062 63.5127C30.8062 63.7676 30.9336 64.1499 31.1885 64.2774C31.4434 64.5323 31.6983 64.6597 31.9532 64.6597C32.208 64.6597 32.5904 64.5323 32.7178 64.2774C32.9727 64.0225 33.1002 63.7676 33.1002 63.5127C33.1002 63.2578 32.9727 62.8755 32.7178 62.7481C32.3355 62.2383 31.6983 62.2383 31.1885 62.7481Z"/><path fill="#262262" d="M40.6192 53.3171C40.3643 53.572 40.2368 53.8269 40.2368 54.0818C40.2368 54.3367 40.3643 54.5916 40.6192 54.8465C40.874 55.1014 41.1289 55.2288 41.3838 55.2288C41.6387 55.2288 42.021 55.1014 42.1485 54.8465C42.4034 54.5916 42.5308 54.3367 42.5308 54.0818C42.5308 53.8269 42.4034 53.4446 42.1485 53.3171C41.7662 52.8074 41.1289 52.8074 40.6192 53.3171Z"/><path fill="#262262" d="M58.0794 39.0434C58.4617 38.661 58.4617 37.8964 58.0794 37.514C57.697 37.1317 56.9324 37.1317 56.5501 37.514C56.1677 37.8964 56.1677 38.661 56.5501 39.0434C56.8049 39.2983 57.0598 39.4257 57.3147 39.4257C57.5696 39.4257 57.8245 39.2983 58.0794 39.0434Z"/><path fill="#262262" d="M61.138 35.9847C61.3929 35.7298 61.5203 35.4749 61.5203 35.22C61.5203 34.9651 61.3929 34.5828 61.138 34.4553C60.7556 34.073 59.991 34.073 59.6087 34.4553C59.3538 34.7102 59.2263 34.9651 59.2263 35.22C59.2263 35.4749 59.3538 35.8572 59.4812 35.9847C59.7361 36.2395 59.991 36.367 60.2459 36.367C60.6282 36.2395 61.0105 36.1121 61.138 35.9847Z"/><path fill="#262262" d="M64.3241 32.9259C64.579 32.6711 64.7065 32.4162 64.7065 32.1613C64.579 31.5241 64.0692 31.1417 63.432 31.1417C62.9223 31.1417 62.5399 31.6515 62.4125 32.1613C62.4125 32.4162 62.5399 32.7985 62.7948 32.9259C63.1771 33.3083 63.9418 33.3083 64.3241 32.9259Z"/><path fill="#262262" d="M63.5595 64.6597C64.1967 64.6597 64.7065 64.1499 64.7065 63.5127C64.7065 63.2578 64.579 62.8755 64.3241 62.7481C63.9418 62.3657 63.1771 62.3657 62.7948 62.7481C62.5399 63.0029 62.4125 63.2578 62.4125 63.5127C62.4125 63.7676 62.5399 64.15 62.7948 64.2774C62.9223 64.5323 63.3046 64.6597 63.5595 64.6597Z"/><path fill="#262262" d="M50.9422 52.0427C51.5794 52.0427 52.0892 51.5329 52.0892 50.8957C52.0892 50.6408 51.9617 50.2584 51.7068 50.131C51.3245 49.7487 50.5598 49.7487 50.1775 50.131C49.9226 50.3859 49.7952 50.6408 49.7952 50.8957C49.7952 51.1505 49.9226 51.4054 50.1775 51.6603C50.3049 51.9152 50.6873 52.0427 50.9422 52.0427Z"/><path fill="#262262" d="M32.845 31.2692C32.4627 30.8868 31.698 30.8868 31.3157 31.2692C31.0608 31.5241 31.0608 31.7789 30.9333 32.0338C30.9333 32.2887 31.0608 32.6711 31.3157 32.7985C31.5706 33.0534 31.8255 33.1808 32.0803 33.1808C32.3352 33.1808 32.7176 33.0534 32.845 32.7985C33.0999 32.5436 33.0999 32.2887 33.0999 32.0338C33.0999 31.6515 32.9725 31.3966 32.845 31.2692Z"/><path fill="#262262" d="M28.8947 29.9948C29.1496 29.9948 29.5319 29.8674 29.6593 29.6125C30.0417 29.2301 30.0417 28.4655 29.6593 28.0831C29.277 27.7008 28.5123 27.7008 28.13 28.0831C27.7477 28.4655 27.7477 29.2301 28.13 29.6125C28.2575 29.8674 28.5123 29.9948 28.8947 29.9948Z"/><path fill="#262262" d="M60.3733 61.4735C60.6282 61.4735 60.8831 61.3461 61.138 61.2187C61.3929 60.9638 61.5203 60.7089 61.5203 60.454C61.5203 60.1991 61.3929 59.8168 61.138 59.6893C60.7556 59.307 59.991 59.307 59.6087 59.6893C59.3538 59.9442 59.3538 60.1991 59.2263 60.454C59.2263 60.7089 59.3538 61.0912 59.6087 61.2187C59.8635 61.3461 60.1184 61.4735 60.3733 61.4735Z"/><path fill="#262262" d="M45.462 43.8862C45.0796 43.5039 44.315 43.5039 43.9326 43.8862C43.6777 44.1411 43.5503 44.396 43.5503 44.6509C43.5503 44.9058 43.6777 45.2881 43.9326 45.4156C44.1875 45.6705 44.4424 45.7979 44.6973 45.7979C44.9522 45.7979 45.3345 45.6705 45.462 45.4156C45.7168 45.1607 45.8443 44.9058 45.8443 44.6509C45.7169 44.2686 45.5894 44.0137 45.462 43.8862Z"/><path fill="#262262" d="M65.9807 65.9341C65.7258 66.189 65.5984 66.4439 65.5984 66.6988C65.5984 67.336 66.1082 67.8458 66.7454 67.8458C67.0003 67.8458 67.3826 67.7183 67.51 67.4634C67.7649 67.2085 67.765 66.9536 67.765 66.6988C67.765 66.4439 67.6375 66.0615 67.51 65.9341C67.1277 65.4243 66.3631 65.4243 65.9807 65.9341Z"/><path fill="#262262" d="M35.9037 34.3279C35.5214 33.9456 34.7567 33.9456 34.3744 34.3279C34.1195 34.5828 33.9921 34.8377 33.9921 35.0926C33.9921 35.3474 34.1195 35.7298 34.247 35.8572C34.5018 36.1121 34.7567 36.2396 35.0116 36.2396C35.6488 36.2396 36.1586 35.7298 36.1586 35.0926C36.2861 34.8377 36.1586 34.5828 35.9037 34.3279Z"/><path fill="#262262" d="M42.2762 40.7001C41.8938 40.3178 41.1292 40.1903 40.7468 40.7001C40.4919 40.955 40.3645 41.2099 40.3645 41.4648C40.3645 42.102 40.8743 42.6118 41.5115 42.6118C41.7664 42.6118 42.1487 42.4843 42.2762 42.2294C42.531 41.9746 42.6585 41.7197 42.6585 41.4648C42.5311 41.2099 42.4036 40.8276 42.2762 40.7001Z"/><path fill="#262262" d="M46.9915 46.9448C46.7366 47.1997 46.7366 47.4546 46.7366 47.7095C46.7366 47.9644 46.864 48.3467 46.9915 48.4742C47.2464 48.7291 47.5012 48.7291 47.7561 48.7291C48.011 48.7291 48.2659 48.6016 48.5208 48.4742C48.7757 48.3467 48.9031 47.9644 49.0306 47.7095C49.0306 47.4546 48.9031 47.0723 48.6483 46.9448C48.3934 46.6899 48.1385 46.5625 47.8836 46.5625C47.5012 46.6899 47.2464 46.8174 46.9915 46.9448Z"/><path fill="#262262" d="M57.187 58.4148C57.8243 58.4148 58.334 57.9051 58.334 57.2679C58.334 56.6306 57.8243 56.1208 57.187 56.1208C56.5498 56.1208 56.04 56.6306 56.04 57.2679C56.04 57.5227 56.1675 57.9051 56.4224 58.0325C56.6773 58.2874 56.9322 58.4148 57.187 58.4148Z"/><path fill="#262262" d="M39.09 37.514C38.7077 37.1317 37.943 37.1317 37.5607 37.514C37.1783 37.8964 37.1783 38.661 37.5607 39.0434C37.8156 39.2983 38.0705 39.4257 38.3253 39.4257C38.5802 39.4257 38.9626 39.2983 39.09 39.0434C39.5998 38.661 39.5998 38.0238 39.09 37.514Z"/><path fill="#262262" d="M54.1284 55.2287C54.3833 55.2287 54.7657 55.1012 54.8931 54.8464C55.148 54.5915 55.148 54.3366 55.148 54.0817C55.148 53.8268 55.0205 53.4445 54.8931 53.317C54.5108 52.9347 53.7461 52.9347 53.3638 53.317C53.1089 53.5719 52.9814 53.8268 52.9814 54.0817C52.9814 54.3366 53.1089 54.5915 53.3638 54.8464C53.4912 55.1012 53.7461 55.2287 54.1284 55.2287Z"/><path fill="#262262" d="M47.7563 68.3555C43.9329 68.3555 40.2371 67.2085 37.0509 65.042L30.2964 71.7965C35.2667 75.7473 41.3841 77.9139 47.7563 77.7864C54.0011 77.7864 60.1184 75.6199 65.0887 71.7965L58.3342 65.042C55.1481 67.2085 51.5796 68.3555 47.7563 68.3555Z"/><path fill="#262262" d="M47.7561 27.3185C51.5795 27.3185 55.1479 28.338 58.334 30.5046L65.0886 23.75C54.893 15.5936 40.4918 15.5936 30.4237 23.75L37.1783 30.5046C40.2369 28.4655 43.9328 27.3185 47.7561 27.3185Z"/><path fill="#262262" d="M71.8432 30.3771L65.0886 37.1316C67.2552 40.3177 68.4022 44.1411 68.2747 47.9644C68.2747 51.6603 67.1277 55.3562 65.0886 58.4148L71.8432 65.1694C75.794 60.1991 77.8331 54.2092 77.9605 47.837C77.9605 41.4647 75.794 35.3474 71.8432 30.3771Z"/><path fill="#262262" d="M27.2376 47.837C27.2376 44.0136 28.3846 40.3177 30.4238 37.2591L23.6692 30.5045C15.6402 40.7001 15.6402 54.9738 23.6692 65.1694L30.4238 58.4149C28.3846 55.2287 27.2376 51.5329 27.2376 47.837Z"/><path fill="#00AEEF" fill-rule="evenodd" d="M72.0983 28.4653C74.6471 28.4653 76.8137 26.2988 76.8137 23.7499C76.8137 21.201 74.6471 19.0344 72.0983 19.0344C69.5494 19.0344 67.3828 21.201 67.3828 23.7499C67.3828 26.2988 69.5494 28.4653 72.0983 28.4653Z" clip-rule="evenodd"/><path fill="#00AEEF" fill-rule="evenodd" d="M23.4146 18.9071C20.8657 18.9071 18.6991 20.9462 18.6991 23.6226C18.6991 26.1714 20.7382 28.338 23.4146 28.338C25.9634 28.338 28.13 26.2989 28.13 23.6226C28.13 21.0737 25.9634 18.9071 23.4146 18.9071Z" clip-rule="evenodd"/><path fill="#00AEEF" fill-rule="evenodd" d="M72.0983 67.2085C69.5494 67.2085 67.3828 69.3751 67.3828 71.9239C67.3828 74.4728 69.5494 76.6394 72.0983 76.6394C74.6471 76.6394 76.8137 74.4728 76.8137 71.9239C76.8137 69.3751 74.7746 67.2085 72.0983 67.2085Z" clip-rule="evenodd"/><path fill="#00AEEF" d="M23.4144 76.5119C26.0187 76.5119 28.1299 74.4008 28.1299 71.7965C28.1299 69.1922 26.0187 67.0811 23.4144 67.0811C20.8102 67.0811 18.699 69.1922 18.699 71.7965C18.699 74.4008 20.8102 76.5119 23.4144 76.5119Z"/></g><circle cx="80" cy="80" r="16" fill="url(#paint0_linear)"/><path fill="#606063" fill-rule="evenodd" d="M69.6072 81.758C69.6045 81.8177 69.6031 81.8777 69.6031 81.9379C69.6031 82.1653 69.6229 82.3899 69.6615 82.6111H69.6031V82.9593C69.6031 83.1292 69.6141 83.2976 69.6359 83.4642C70.0595 86.7145 74.5379 89.2719 80 89.2719C85.4621 89.2719 89.9405 86.7145 90.3641 83.4642C90.3859 83.2976 90.3969 83.1292 90.3969 82.9593V82.6111H90.3385C90.3771 82.3899 90.3969 82.1653 90.3969 81.9379C90.3969 81.8777 90.3955 81.8177 90.3928 81.758C90.2359 78.3548 85.643 75.6252 80 75.6252C74.357 75.6252 69.7641 78.3548 69.6072 81.758ZM68.7533 81.758C68.8307 79.6815 70.2417 77.9373 72.2055 76.7449C74.2413 75.5089 76.9992 74.7721 80 74.7721C83.0008 74.7721 85.7587 75.5089 87.7945 76.7449C89.7583 77.9373 91.1693 79.6815 91.2467 81.758H91.25V82.9593C91.25 85.1148 89.8148 86.9255 87.7945 88.1522C85.7587 89.3883 83.0008 90.125 80 90.125C76.9992 90.125 74.2413 89.3883 72.2055 88.1522C70.1852 86.9255 68.75 85.1148 68.75 82.9593V81.758H68.7533Z" clip-rule="evenodd"/><path fill="#BEBEBE" d="M90.3969 82.9594C90.3969 86.4458 85.742 89.2721 79.9999 89.2721C74.2579 89.2721 69.603 86.4458 69.603 82.9594V81.9601H90.3969V82.9594Z"/><path fill="#FAF9FA" d="M90.3969 81.9378C90.3969 85.4242 85.742 88.2505 79.9999 88.2505C74.2579 88.2505 69.603 85.4242 69.603 81.9378C69.603 78.4514 74.2579 75.6251 79.9999 75.6251C85.742 75.6251 90.3969 78.4514 90.3969 81.9378Z"/><path fill="#633001" fill-rule="evenodd" d="M71.2027 80.1544C71.2027 80.1584 71.2027 80.1624 71.2027 80.1663C71.2027 80.4534 71.2443 80.7345 71.324 81.0075H71.2026V81.3772C71.2026 81.5404 71.216 81.7017 71.2423 81.8606C71.6386 84.2609 74.9547 86.1344 78.9869 86.1344C83.019 86.1344 86.3351 84.2609 86.7315 81.8606C86.7578 81.7017 86.7712 81.5404 86.7712 81.3772V81.0075H86.65C86.7275 80.7419 86.769 80.4687 86.7712 80.1898C86.7713 80.182 86.7713 80.1741 86.7713 80.1663C86.7713 80.1624 86.7713 80.1584 86.7713 80.1544C86.7608 77.5326 83.2797 75.4091 78.987 75.4091C74.6943 75.4091 71.2132 77.5326 71.2027 80.1544ZM70.3496 80.1544H70.3495V81.3772C70.3495 83.1005 71.489 84.5226 73.0377 85.469C74.601 86.4244 76.7065 86.9875 78.9869 86.9875C81.2673 86.9875 83.3727 86.4244 84.9361 85.469C86.4847 84.5226 87.6243 83.1005 87.6243 81.3772V80.1929C87.6243 80.1841 87.6244 80.1752 87.6244 80.1663C87.6244 78.443 86.4848 77.021 84.9362 76.0745C83.3728 75.1192 81.2674 74.556 78.987 74.556C76.7066 74.556 74.6011 75.1192 73.0378 76.0745C71.4927 77.0188 70.3548 78.4365 70.3496 80.1544Z" clip-rule="evenodd"/><path fill="#FEDC90" d="M86.7713 81.3774C86.7713 84.0047 83.2861 86.1346 78.987 86.1346C74.6878 86.1346 71.2026 84.0047 71.2026 81.3774V80.2612H86.7713V81.3774Z"/><path fill="#D1884F" d="M86.7713 80.1664C86.7713 82.7937 83.2861 84.9235 78.987 84.9235C74.6878 84.9235 71.2026 82.7937 71.2026 80.1664C71.2026 77.539 74.6878 75.4092 78.987 75.4092C83.2861 75.4092 86.7713 77.539 86.7713 80.1664Z"/><path fill="#633001" fill-rule="evenodd" d="M73.5488 77.5952C73.5487 77.5992 73.5487 77.6031 73.5487 77.6071C73.5487 77.8942 73.5903 78.1753 73.6701 78.4483H73.5486V78.818C73.5486 78.9812 73.5621 79.1425 73.5883 79.3014C73.9847 81.7017 77.3008 83.5752 81.3329 83.5752C85.3651 83.5752 88.6812 81.7017 89.0776 79.3014C89.1038 79.1425 89.1173 78.9812 89.1173 78.818V78.4483H88.996C89.0736 78.1827 89.1151 77.9095 89.1173 77.6306C89.1173 77.6228 89.1174 77.6149 89.1174 77.6071C89.1174 77.6031 89.1173 77.5992 89.1173 77.5952C89.1069 74.9734 85.6257 72.8499 81.333 72.8499C77.0404 72.8499 73.5592 74.9734 73.5488 77.5952ZM72.6957 77.5952H72.6956V78.818C72.6956 80.5413 73.8351 81.9634 75.3838 82.9098C76.9471 83.8652 79.0526 84.4283 81.3329 84.4283C83.6133 84.4283 85.7188 83.8652 87.2821 82.9098C88.8308 81.9634 89.9703 80.5413 89.9703 78.818V77.6337C89.9704 77.6249 89.9704 77.616 89.9704 77.6071C89.9704 75.8838 88.8309 74.4618 87.2822 73.5153C85.7189 72.56 83.6134 71.9968 81.333 71.9968C79.0527 71.9968 76.9472 72.56 75.3839 73.5153C73.8387 74.4596 72.7009 75.8773 72.6957 77.5952Z" clip-rule="evenodd"/><path fill="#FEDC90" d="M89.1172 78.8181C89.1172 81.4454 85.6321 83.5752 81.3329 83.5752C77.0337 83.5752 73.5486 81.4454 73.5486 78.8181V77.7019H89.1172V78.8181Z"/><path fill="#D1884F" d="M89.1172 77.607C89.1172 80.2344 85.6321 82.3642 81.3329 82.3642C77.0337 82.3642 73.5486 80.2344 73.5486 77.607C73.5486 74.9797 77.0337 72.8499 81.3329 72.8499C85.6321 72.8499 89.1172 74.9797 89.1172 77.607Z"/><path fill="#633001" fill-rule="evenodd" d="M71.2027 75.0359C71.2027 75.0399 71.2027 75.0438 71.2027 75.0478C71.2027 75.3348 71.2443 75.616 71.324 75.889H71.2026V76.2587C71.2026 76.4219 71.216 76.5832 71.2423 76.7421C71.6386 79.1424 74.9547 81.0159 78.9869 81.0159C83.019 81.0159 86.3351 79.1424 86.7315 76.7421C86.7578 76.5832 86.7712 76.4219 86.7712 76.2587V75.889H86.65C86.7275 75.6234 86.769 75.3502 86.7712 75.0712C86.7713 75.0634 86.7713 75.0556 86.7713 75.0478C86.7713 75.0438 86.7713 75.0399 86.7713 75.0359C86.7608 72.4141 83.2797 70.2906 78.987 70.2906C74.6943 70.2906 71.2132 72.4141 71.2027 75.0359ZM70.3496 75.0359H70.3495V76.2587C70.3495 77.982 71.489 79.404 73.0377 80.3505C74.601 81.3059 76.7065 81.869 78.9869 81.869C81.2673 81.869 83.3727 81.3059 84.9361 80.3505C86.4847 79.404 87.6243 77.982 87.6243 76.2587V75.0744C87.6243 75.0655 87.6244 75.0567 87.6244 75.0478C87.6244 73.3245 86.4848 71.9024 84.9362 70.956C83.3728 70.0006 81.2674 69.4375 78.987 69.4375C76.7066 69.4375 74.6011 70.0006 73.0378 70.956C71.4927 71.9003 70.3548 73.3179 70.3496 75.0359Z" clip-rule="evenodd"/><path fill="#FEDC90" d="M86.7713 76.2587C86.7713 78.886 83.2861 81.0159 78.987 81.0159C74.6878 81.0159 71.2026 78.886 71.2026 76.2587V75.1426H86.7713V76.2587Z"/><path fill="#D1884F" d="M86.7713 75.0478C86.7713 77.6751 83.2861 79.805 78.987 79.805C74.6878 79.805 71.2026 77.6751 71.2026 75.0478C71.2026 72.4205 74.6878 70.2906 78.987 70.2906C83.2861 70.2906 86.7713 72.4205 86.7713 75.0478Z"/><path fill="url(#paint1_linear)" fill-rule="evenodd" d="M73.0439 75.3438C73.0439 76.221 73.6813 77.0066 74.6868 77.5352L73.9902 78.7419L73.9903 78.7419H73.9902V81.7959C73.9902 82.1997 74.3175 82.5271 74.7214 82.5271C75.1252 82.5271 75.4526 82.1997 75.4526 81.7959V79.3671L76.2021 78.0689C76.6814 78.1705 77.1958 78.2257 77.7313 78.2257C80.32 78.2257 82.4186 76.9354 82.4186 75.3438C82.4186 73.7522 80.32 72.4619 77.7313 72.4619C75.1425 72.4619 73.0439 73.7522 73.0439 75.3438Z" clip-rule="evenodd"/><path fill="#633001" fill-rule="evenodd" d="M74.6868 77.5352C74.5755 77.4766 74.4686 77.4149 74.3666 77.3503C73.5479 76.8314 73.0439 76.1238 73.0439 75.3438C73.0439 73.7522 75.1425 72.4619 77.7313 72.4619C80.32 72.4619 82.4186 73.7522 82.4186 75.3438C82.4186 76.9354 80.32 78.2257 77.7313 78.2257C77.1958 78.2257 76.6814 78.1705 76.2021 78.0689L75.4526 79.3671V81.7959C75.4526 82.1997 75.1252 82.5271 74.7214 82.5271C74.3175 82.5271 73.9902 82.1997 73.9902 81.7959V78.7419L74.6868 77.5352ZM73.2437 78.7548V81.7959C73.2437 82.612 73.9053 83.2736 74.7214 83.2736C75.5375 83.2736 76.199 82.612 76.199 81.7959V79.5671L76.5878 78.8938C76.957 78.9452 77.3397 78.9722 77.7313 78.9722C79.1409 78.9722 80.4528 78.6224 81.4367 78.0175C82.4083 77.4201 83.165 76.4959 83.165 75.3438C83.165 74.1918 82.4083 73.2675 81.4367 72.6701C80.4528 72.0652 79.1409 71.7155 77.7313 71.7155C76.3216 71.7155 75.0097 72.0652 74.0259 72.6701C73.0542 73.2675 72.2975 74.1918 72.2975 75.3438C72.2975 76.3549 72.8766 77.1875 73.6812 77.7841L73.3489 78.3597C73.3172 78.4127 73.2919 78.47 73.2741 78.5305C73.2522 78.6043 73.2424 78.6799 73.2437 78.7548Z" clip-rule="evenodd"/><path fill="#9E7200" d="M74.5083 74.1295C74.5083 74.954 75.5586 75.6224 76.8542 75.6224C78.1499 75.6224 79.2002 74.954 79.2002 74.1295C79.2002 73.305 78.1499 72.6366 76.8542 72.6366C75.5586 72.6366 74.5083 73.305 74.5083 74.1295Z"/><path fill="#9E7200" d="M74.5083 73.4897H79.2002V74.1296H74.5083V73.4897Z"/><path fill="#F0B90B" d="M74.5083 73.4897C74.5083 74.3143 75.5586 74.9827 76.8542 74.9827C78.1499 74.9827 79.2002 74.3143 79.2002 73.4897C79.2002 72.6652 78.1499 71.9968 76.8542 71.9968C75.5586 71.9968 74.5083 72.6652 74.5083 73.4897Z"/><path fill="#9E7200" d="M75.964 73.3098L76.6252 72.889C76.765 72.8 76.9435 72.8 77.0832 72.889L77.7445 73.3098C77.8762 73.3936 77.8762 73.5858 77.7445 73.6696L77.0832 74.0904C76.9435 74.1793 76.765 74.1793 76.6252 74.0904L75.964 73.6696C75.8323 73.5858 75.8323 73.3936 75.964 73.3098Z"/><path fill="#633001" fill-rule="evenodd" d="M74.7947 71.8043C75.3562 71.447 76.0864 71.2504 76.8543 71.2504C77.6221 71.2504 78.3523 71.447 78.9139 71.8043C79.4666 72.1561 79.9467 72.7338 79.9467 73.4897V74.1296C79.9467 74.8856 79.4666 75.4633 78.9139 75.815C78.3523 76.1723 77.6221 76.369 76.8543 76.369C76.0864 76.369 75.3562 76.1723 74.7947 75.815C74.242 75.4633 73.7618 74.8856 73.7618 74.1296V73.4897C73.7618 72.7338 74.242 72.1561 74.7947 71.8043ZM76.8543 71.9968C75.5586 71.9968 74.5083 72.6652 74.5083 73.4897V74.1296C74.5083 74.9541 75.5586 75.6225 76.8543 75.6225C78.1499 75.6225 79.2002 74.9541 79.2002 74.1296V73.4897C79.2002 72.6652 78.1499 71.9968 76.8543 71.9968Z" clip-rule="evenodd"/><defs><linearGradient id="paint0_linear" x1="80" x2="80" y1="64" y2="96" gradientUnits="userSpaceOnUse"><stop stop-color="#54DADE"/><stop offset=".762" stop-color="#24C7D6"/></linearGradient><linearGradient id="paint1_linear" x1="77.782" x2="77.782" y1="72.558" y2="82.451" gradientUnits="userSpaceOnUse"><stop stop-color="#9F4A08"/><stop offset=".37" stop-color="#7D3900"/><stop offset="1" stop-color="#8D4104"/></linearGradient></defs></svg>