<svg width="96" height="96" viewBox="0 0 96 96" fill="none" xmlns="http://www.w3.org/2000/svg">
<mask id="mask0" mask-type="alpha" maskUnits="userSpaceOnUse" x="0" y="0" width="96" height="96">
<path fill-rule="evenodd" clip-rule="evenodd" d="M96 0H0V96H69.7487C64.4865 92.6215 61 86.7179 61 80C61 69.5066 69.5066 61 80 61C86.7179 61 92.6215 64.4865 96 69.7487V0Z" fill="#C4C4C4"/>
</mask>
<g mask="url(#mask0)">
<circle cx="48" cy="48" r="48" fill="#313131"/>
<path opacity="0.22" d="M74.6624 28.9724C74.6554 28.9584 74.6483 28.9513 74.6483 28.9373C74.515 28.6843 74.3675 28.4312 74.2131 28.1852C74.185 28.1431 74.157 28.1009 74.1359 28.0587C73.9815 27.8127 73.827 27.5737 73.6586 27.3348L73.6445 27.2645C73.6094 27.2364 73.5673 27.2082 73.5322 27.1801C66.0911 16.9535 47.3201 17.7477 31.4692 29.0005C30.0793 29.9916 28.7596 31.0248 27.503 32.1002C27.4398 32.1564 27.3696 32.2126 27.3065 32.2688C27.1731 32.3883 27.0397 32.5008 26.9063 32.6203C26.8291 32.6906 26.7519 32.7608 26.6747 32.8241C26.5483 32.9366 26.422 33.049 26.2956 33.1685C26.2114 33.2458 26.1341 33.3161 26.0499 33.3934C25.9306 33.5059 25.8042 33.6183 25.6849 33.7378C25.6006 33.8151 25.5234 33.8925 25.4462 33.9698C25.3269 34.0822 25.2075 34.1947 25.0882 34.3142C25.011 34.3915 24.9267 34.4688 24.8495 34.5461C24.7372 34.6586 24.6179 34.7781 24.5055 34.8905C24.4283 34.9678 24.3511 35.0522 24.2669 35.1295C24.1545 35.2419 24.0422 35.3614 23.9299 35.4739C23.8527 35.5512 23.7755 35.6285 23.7053 35.7129C23.593 35.8323 23.4806 35.9448 23.3753 36.0643C23.3051 36.1416 23.2279 36.2189 23.1577 36.2962C23.0454 36.4157 22.9401 36.5352 22.8278 36.6547C22.7576 36.732 22.6944 36.8023 22.6242 36.8796C22.5119 37.0061 22.3996 37.1326 22.2943 37.2521C22.2381 37.3154 22.182 37.3857 22.1258 37.4489C22.0065 37.5825 21.8871 37.723 21.7748 37.8566C21.7608 37.8706 21.7538 37.8847 21.7397 37.8988C21.4238 38.2713 21.1149 38.6508 20.8201 39.0304L20.8131 39.0374C20.7008 39.178 20.5955 39.3185 20.4902 39.4591C20.441 39.5224 20.3849 39.5926 20.3357 39.6559C20.2375 39.7824 20.1462 39.9089 20.0479 40.0355C19.9918 40.1128 19.9286 40.1971 19.8724 40.2744C19.7812 40.3939 19.6899 40.5204 19.6057 40.6469C19.5425 40.7313 19.4863 40.8156 19.4232 40.9C19.3389 41.0195 19.2547 41.146 19.1704 41.2655C19.1073 41.3498 19.0511 41.4412 18.9879 41.5255C18.9037 41.645 18.8265 41.7645 18.7422 41.884C18.6791 41.9753 18.6229 42.0667 18.5667 42.1511C18.4895 42.2705 18.4123 42.39 18.3351 42.5095C18.2789 42.6009 18.2158 42.6923 18.1596 42.7836C18.0824 42.9031 18.0122 43.0226 17.935 43.1421C17.8788 43.2335 17.8226 43.3248 17.7665 43.4162C17.6963 43.5357 17.6191 43.6552 17.5489 43.7747C17.4927 43.866 17.4436 43.9574 17.3874 44.0488C17.3172 44.1683 17.247 44.2878 17.1768 44.4072C17.1277 44.4986 17.0785 44.59 17.0224 44.6814C16.9522 44.8008 16.889 44.9274 16.8188 45.0468C16.7697 45.1312 16.7275 45.2226 16.6784 45.3069C16.6082 45.4334 16.545 45.5599 16.4818 45.6864C16.4467 45.7497 16.4116 45.82 16.3836 45.8832C16.2432 46.1644 16.1028 46.4385 15.9694 46.7197C15.9343 46.7899 15.8992 46.8602 15.8641 46.9375C15.8079 47.057 15.7518 47.1765 15.6956 47.296C15.6535 47.3874 15.6114 47.4858 15.5693 47.5771C15.5201 47.6896 15.471 47.8091 15.4148 47.9215C15.3727 48.0199 15.3306 48.1183 15.2885 48.2167C15.2393 48.3292 15.1972 48.4417 15.1481 48.5541C15.106 48.6525 15.0638 48.7579 15.0217 48.8564C14.9796 48.9688 14.9305 49.0813 14.8883 49.1937C14.8462 49.2921 14.8111 49.3976 14.769 49.496C14.7269 49.6084 14.6848 49.7209 14.6497 49.8263C14.6146 49.9317 14.5724 50.0301 14.5373 50.1356C14.4952 50.248 14.4601 50.3534 14.425 50.4659C14.3899 50.5713 14.3548 50.6697 14.3197 50.7752C14.2846 50.8806 14.2495 50.993 14.2144 51.0985C14.1793 51.2039 14.1513 51.3093 14.1162 51.4148C14.0811 51.5202 14.053 51.6326 14.0179 51.7381C13.9898 51.8435 13.9547 51.9489 13.9266 52.0544C13.8985 52.1598 13.8705 52.2652 13.8424 52.3707C13.8143 52.4761 13.7862 52.5885 13.7581 52.694C13.7301 52.7994 13.702 52.8978 13.6809 53.0032C13.6528 53.1157 13.6318 53.2281 13.6037 53.3406C13.5826 53.439 13.5616 53.5374 13.5405 53.6358C13.5124 53.7764 13.4844 53.9099 13.4563 54.0435C13.4282 54.177 13.4072 54.3105 13.3791 54.4441C13.351 54.5847 13.3299 54.7323 13.3019 54.8728C13.2878 54.9642 13.2738 55.0556 13.2597 55.1469C13.2387 55.2664 13.2246 55.3789 13.2106 55.4984C13.1966 55.5898 13.1895 55.6882 13.1755 55.7795C13.1615 55.892 13.1474 56.0044 13.1334 56.1169C13.1193 56.2153 13.1123 56.3067 13.1053 56.4051C13.0913 56.5175 13.0842 56.623 13.0772 56.7354C13.0702 56.8338 13.0632 56.9252 13.0562 57.0236C13.0491 57.129 13.0421 57.2415 13.0351 57.3469C13.0281 57.4453 13.0281 57.5367 13.0211 57.6351C13.014 57.7405 13.014 57.853 13.007 57.9584C13.007 58.0498 13 58.1482 13 58.2395C13 58.345 13 58.4574 13 58.5628C13 58.6542 13 58.7526 13 58.844C13 58.9494 13.007 59.0548 13.007 59.1673C13.007 59.2587 13.014 59.3501 13.014 59.4414C13.0211 59.5469 13.0281 59.6593 13.0351 59.7647C13.0421 59.8561 13.0421 59.9405 13.0491 60.0318C13.0562 60.1443 13.0702 60.2567 13.0772 60.3692C13.0842 60.4535 13.0913 60.5379 13.0983 60.6152C13.1123 60.7347 13.1264 60.8542 13.1404 60.9807C13.1474 61.051 13.1544 61.1283 13.1685 61.1986C13.1895 61.3673 13.2176 61.543 13.2457 61.7117C13.2527 61.7468 13.2597 61.7819 13.2668 61.8171C13.2948 61.9928 13.3299 62.1615 13.365 62.3372C13.3791 62.4075 13.3931 62.4707 13.4072 62.541C13.4352 62.6605 13.4563 62.78 13.4914 62.8995C13.5124 62.9768 13.5335 63.0541 13.5475 63.1314C13.5756 63.2369 13.6037 63.3493 13.6318 63.4548C13.6528 63.5321 13.6809 63.6094 13.702 63.6937C13.7301 63.7992 13.7652 63.8976 13.7932 64.003C13.8213 64.0803 13.8424 64.1646 13.8705 64.242C13.9056 64.3404 13.9407 64.4458 13.9758 64.5442C14.0038 64.6215 14.0319 64.7058 14.06 64.7832C14.0951 64.8816 14.1372 64.98 14.1723 65.0784C14.2004 65.1557 14.2355 65.233 14.2706 65.3103C14.3127 65.4087 14.3548 65.5071 14.397 65.5985C14.432 65.6758 14.4671 65.7531 14.5022 65.8304C14.5444 65.9288 14.5935 66.0202 14.6356 66.1186C14.6707 66.1959 14.7058 66.2662 14.7479 66.3435C14.7971 66.4419 14.8462 66.5333 14.8954 66.6317C14.9305 66.702 14.9726 66.7723 15.0077 66.8425C15.0638 66.9409 15.12 67.0393 15.1762 67.1377C15.2113 67.201 15.2534 67.2713 15.2885 67.3345C15.3516 67.44 15.4218 67.5454 15.485 67.6579C15.5201 67.7141 15.5552 67.7703 15.5903 67.8195C15.6956 67.9741 15.8009 68.1288 15.9062 68.2834C15.9062 68.2834 15.9062 68.2904 15.9132 68.2904L15.9273 68.3607C15.9624 68.3888 16.0045 68.417 16.0396 68.4451C20.7148 74.8762 29.8687 76.9497 39.9633 74.806C40.0054 74.7989 40.0405 74.7919 40.0826 74.7778C40.8337 74.6162 41.5848 74.4334 42.343 74.2226C42.3851 74.2085 42.4272 74.2015 42.4764 74.1874C42.8554 74.082 43.2345 73.9695 43.6206 73.8571C43.6276 73.8571 43.6346 73.8501 43.6417 73.8501C44.0137 73.7376 44.3928 73.6111 44.7648 73.4916C44.807 73.4775 44.8421 73.4635 44.8842 73.4494C45.2562 73.3229 45.6353 73.1894 46.0073 73.0558C46.0495 73.0418 46.0916 73.0207 46.1337 73.0066C46.4987 72.8731 46.8568 72.7325 47.2218 72.5919C47.2428 72.5849 47.2639 72.5709 47.292 72.5638C47.664 72.4162 48.0361 72.2616 48.4081 72.0999C48.4713 72.0718 48.5345 72.0437 48.5977 72.0226C49.3348 71.6993 50.0789 71.3549 50.8159 70.9964C50.8861 70.9613 50.9563 70.9262 51.0265 70.891C51.3916 70.7083 51.7496 70.5255 52.1146 70.3358C52.1567 70.3147 52.1989 70.2936 52.234 70.2725C52.5639 70.0968 52.8938 69.914 53.2308 69.7313C53.294 69.6962 53.3642 69.654 53.4273 69.6188C53.7783 69.422 54.1293 69.2112 54.4873 69.0074C54.5575 68.9652 54.6207 68.923 54.6909 68.8808C55.0138 68.684 55.3297 68.4872 55.6526 68.2904C55.7018 68.2623 55.7509 68.2272 55.8 68.1991C56.151 67.9812 56.495 67.7492 56.839 67.5173C56.9162 67.4681 56.9934 67.4119 57.0777 67.3556C57.4286 67.1167 57.7796 66.8777 58.1306 66.6317C58.8747 66.1045 59.6048 65.5563 60.3138 65.001C61.0228 64.4458 61.7108 63.8765 62.3706 63.2931C62.8129 62.9065 63.2481 62.5129 63.6763 62.1193C64.5257 61.3251 65.34 60.5168 66.1122 59.6945C66.4983 59.2798 66.8774 58.8651 67.2424 58.4504C69.6292 55.7233 71.5947 52.8627 73.104 49.9739C73.3356 49.5311 73.5533 49.0883 73.7638 48.6385C73.9744 48.1957 74.171 47.7458 74.3605 47.303C74.5501 46.8602 74.7256 46.4104 74.887 45.9676C75.0485 45.5248 75.2029 45.082 75.3433 44.6392C77.1615 38.953 77.0491 33.4356 74.6624 28.9724ZM26.1341 71.0597C43.3538 70.9894 70.1065 56.2715 59.2328 37.6457L59.303 37.955C58.4325 53.4812 38.6997 64.0803 30.3461 57.9865C19.4653 39.3537 46.239 24.6288 63.4587 24.5725C46.239 24.6428 19.4863 39.3607 30.3601 57.9865L30.2899 57.6772C31.1604 42.1511 50.8932 31.5519 59.2468 37.6457C70.1276 56.2786 43.3538 71.0035 26.1341 71.0597Z" fill="url(#paint0_linear)"/>
<path d="M63.4727 37.6457C76.986 60.7908 32.3818 77.9125 20.1883 68.3606L20.1743 68.2904C12.8175 57.8951 19.7741 40.3025 35.7092 28.9934C51.6443 17.6844 70.5277 16.9394 77.8845 27.3347L77.8705 27.2644C65.677 17.7125 21.0728 34.8342 34.586 57.9794C42.9467 64.0802 62.6093 53.1718 63.4727 37.6457Z" fill="url(#paint1_linear)"/>
<path d="M34.6071 57.9864C21.0939 34.8412 65.698 17.7195 77.8915 27.2714L77.9055 27.3417C85.2623 37.737 78.3057 55.3296 62.3706 66.6386C46.4355 77.9476 27.5521 78.6927 20.1953 68.2974L20.2094 68.3676C32.4028 77.9195 77.007 60.7978 63.4938 37.6526C55.1331 31.5518 35.4705 42.4532 34.6071 57.9864Z" fill="url(#paint2_linear)"/>
<path d="M77.9057 27.3347V27.3206L77.8916 27.3066C76.0313 52.8415 62.4269 66.7651 43.1012 75.0308C49.398 73.8851 56.109 71.0737 62.3777 66.6316C78.3058 55.3226 85.2625 37.73 77.9057 27.3347Z" fill="url(#paint3_linear)"/>
<path opacity="0.2" d="M79.6886 30.6592C79.2324 29.4854 78.6427 28.3749 77.9056 27.3347L77.8916 27.2644C77.0281 26.5896 76.0032 26.0484 74.8449 25.6267C78.5023 29.2675 74.9152 43.9925 73.9464 45.5247L79.6886 30.6592Z" fill="white"/>
<path opacity="0.11" d="M63.4727 37.6457C76.986 60.7908 32.3818 77.9125 20.1883 68.3606L20.1743 68.2904C12.8175 57.8951 19.7741 40.3025 35.7092 28.9934C51.6443 17.6844 70.5277 16.9394 77.8845 27.3347L77.8705 27.2644C65.677 17.7125 21.0728 34.8342 34.586 57.9794C42.9467 64.0802 62.6093 53.1718 63.4727 37.6457Z" fill="url(#paint4_linear)"/>
<path opacity="0.07" d="M32.1922 31.7135C18.7913 42.9733 13.386 58.7033 20.1742 68.2904L20.1812 68.3325H20.1883C18.5807 45.2506 32.0939 31.8119 32.1922 31.7135Z" fill="url(#paint5_linear)"/>
<path opacity="0.2" d="M30.0302 73.7024L46.3302 73.119C46.4987 73.1401 42.7993 74.9746 42.6238 75.0238C41.1075 76.0218 31.4341 74.8832 30.0302 73.7024Z" fill="url(#paint6_linear)"/>
</g>
<circle cx="80" cy="80" r="16" fill="url(#paint7_linear)"/>
<path fill-rule="evenodd" clip-rule="evenodd" d="M69.6072 81.758C69.6045 81.8177 69.6031 81.8777 69.6031 81.9379C69.6031 82.1653 69.6229 82.3899 69.6615 82.6111H69.6031V82.9593C69.6031 83.1292 69.6141 83.2976 69.6359 83.4642C70.0595 86.7145 74.5379 89.2719 80 89.2719C85.4621 89.2719 89.9405 86.7145 90.3641 83.4642C90.3859 83.2976 90.3969 83.1292 90.3969 82.9593V82.6111H90.3385C90.3771 82.3899 90.3969 82.1653 90.3969 81.9379C90.3969 81.8777 90.3955 81.8177 90.3928 81.758C90.2359 78.3548 85.643 75.6252 80 75.6252C74.357 75.6252 69.7641 78.3548 69.6072 81.758ZM68.7533 81.758C68.8307 79.6815 70.2417 77.9373 72.2055 76.7449C74.2413 75.5089 76.9992 74.7721 80 74.7721C83.0008 74.7721 85.7587 75.5089 87.7945 76.7449C89.7583 77.9373 91.1693 79.6815 91.2467 81.758H91.25V82.9593C91.25 85.1148 89.8148 86.9255 87.7945 88.1522C85.7587 89.3883 83.0008 90.125 80 90.125C76.9992 90.125 74.2413 89.3883 72.2055 88.1522C70.1852 86.9255 68.75 85.1148 68.75 82.9593V81.758H68.7533Z" fill="#606063"/>
<path d="M90.3969 82.9594C90.3969 86.4458 85.742 89.2721 79.9999 89.2721C74.2579 89.2721 69.603 86.4458 69.603 82.9594V81.9601H90.3969V82.9594Z" fill="#BEBEBE"/>
<path d="M90.3969 81.9379C90.3969 85.4242 85.742 88.2505 79.9999 88.2505C74.2579 88.2505 69.603 85.4242 69.603 81.9379C69.603 78.4515 74.2579 75.6252 79.9999 75.6252C85.742 75.6252 90.3969 78.4515 90.3969 81.9379Z" fill="#FAF9FA"/>
<path fill-rule="evenodd" clip-rule="evenodd" d="M71.2027 80.1545C71.2027 80.1585 71.2027 80.1624 71.2027 80.1664C71.2027 80.4534 71.2443 80.7346 71.324 81.0076H71.2026V81.3773C71.2026 81.5405 71.216 81.7017 71.2423 81.8607C71.6386 84.261 74.9547 86.1345 78.9869 86.1345C83.019 86.1345 86.3351 84.261 86.7315 81.8607C86.7578 81.7017 86.7712 81.5405 86.7712 81.3773V81.0076H86.65C86.7275 80.742 86.769 80.4688 86.7712 80.1898C86.7713 80.182 86.7713 80.1742 86.7713 80.1664C86.7713 80.1624 86.7713 80.1585 86.7713 80.1545C86.7608 77.5326 83.2797 75.4092 78.987 75.4092C74.6943 75.4092 71.2132 77.5326 71.2027 80.1545ZM70.3496 80.1545H70.3495V81.3773C70.3495 83.1006 71.489 84.5226 73.0377 85.4691C74.601 86.4244 76.7065 86.9876 78.9869 86.9876C81.2673 86.9876 83.3727 86.4244 84.9361 85.4691C86.4847 84.5226 87.6243 83.1006 87.6243 81.3773V80.193C87.6243 80.1841 87.6244 80.1752 87.6244 80.1664C87.6244 78.4431 86.4848 77.021 84.9362 76.0746C83.3728 75.1192 81.2674 74.5561 78.987 74.5561C76.7066 74.5561 74.6011 75.1192 73.0378 76.0746C71.4927 77.0189 70.3548 78.4365 70.3496 80.1545Z" fill="#633001"/>
<path d="M86.7713 81.3773C86.7713 84.0046 83.2861 86.1345 78.987 86.1345C74.6878 86.1345 71.2026 84.0046 71.2026 81.3773V80.2612H86.7713V81.3773Z" fill="#FEDC90"/>
<path d="M86.7713 80.1664C86.7713 82.7937 83.2861 84.9235 78.987 84.9235C74.6878 84.9235 71.2026 82.7937 71.2026 80.1664C71.2026 77.539 74.6878 75.4092 78.987 75.4092C83.2861 75.4092 86.7713 77.539 86.7713 80.1664Z" fill="#D1884F"/>
<path fill-rule="evenodd" clip-rule="evenodd" d="M73.5488 77.5952C73.5487 77.5991 73.5487 77.6031 73.5487 77.607C73.5487 77.8941 73.5903 78.1752 73.6701 78.4483H73.5486V78.818C73.5486 78.9812 73.5621 79.1424 73.5883 79.3014C73.9847 81.7016 77.3008 83.5751 81.3329 83.5751C85.3651 83.5751 88.6812 81.7016 89.0776 79.3014C89.1038 79.1424 89.1173 78.9812 89.1173 78.818V78.4483H88.996C89.0736 78.1827 89.1151 77.9094 89.1173 77.6305C89.1173 77.6227 89.1174 77.6149 89.1174 77.607C89.1174 77.6031 89.1173 77.5991 89.1173 77.5952C89.1069 74.9733 85.6257 72.8499 81.333 72.8499C77.0404 72.8499 73.5592 74.9733 73.5488 77.5952ZM72.6957 77.5952H72.6956V78.818C72.6956 80.5413 73.8351 81.9633 75.3838 82.9097C76.9471 83.8651 79.0526 84.4282 81.3329 84.4282C83.6133 84.4282 85.7188 83.8651 87.2821 82.9097C88.8308 81.9633 89.9703 80.5413 89.9703 78.818V77.6337C89.9704 77.6248 89.9704 77.6159 89.9704 77.607C89.9704 75.8837 88.8309 74.4617 87.2822 73.5153C85.7189 72.5599 83.6134 71.9968 81.333 71.9968C79.0527 71.9968 76.9472 72.5599 75.3839 73.5153C73.8387 74.4595 72.7009 75.8772 72.6957 77.5952Z" fill="#633001"/>
<path d="M89.1172 78.8181C89.1172 81.4454 85.6321 83.5752 81.3329 83.5752C77.0337 83.5752 73.5486 81.4454 73.5486 78.8181V77.7019H89.1172V78.8181Z" fill="#FEDC90"/>
<path d="M89.1172 77.6071C89.1172 80.2344 85.6321 82.3643 81.3329 82.3643C77.0337 82.3643 73.5486 80.2344 73.5486 77.6071C73.5486 74.9798 77.0337 72.8499 81.3329 72.8499C85.6321 72.8499 89.1172 74.9798 89.1172 77.6071Z" fill="#D1884F"/>
<path fill-rule="evenodd" clip-rule="evenodd" d="M71.2027 75.0359C71.2027 75.0399 71.2027 75.0438 71.2027 75.0478C71.2027 75.3348 71.2443 75.616 71.324 75.889H71.2026V76.2587C71.2026 76.4219 71.216 76.5832 71.2423 76.7421C71.6386 79.1424 74.9547 81.0159 78.9869 81.0159C83.019 81.0159 86.3351 79.1424 86.7315 76.7421C86.7578 76.5832 86.7712 76.4219 86.7712 76.2587V75.889H86.65C86.7275 75.6234 86.769 75.3502 86.7712 75.0712C86.7713 75.0634 86.7713 75.0556 86.7713 75.0478C86.7713 75.0438 86.7713 75.0399 86.7713 75.0359C86.7608 72.4141 83.2797 70.2906 78.987 70.2906C74.6943 70.2906 71.2132 72.4141 71.2027 75.0359ZM70.3496 75.0359H70.3495V76.2587C70.3495 77.982 71.489 79.404 73.0377 80.3505C74.601 81.3059 76.7065 81.869 78.9869 81.869C81.2673 81.869 83.3727 81.3059 84.9361 80.3505C86.4847 79.404 87.6243 77.982 87.6243 76.2587V75.0744C87.6243 75.0655 87.6244 75.0567 87.6244 75.0478C87.6244 73.3245 86.4848 71.9024 84.9362 70.956C83.3728 70.0006 81.2674 69.4375 78.987 69.4375C76.7066 69.4375 74.6011 70.0006 73.0378 70.956C71.4927 71.9003 70.3548 73.3179 70.3496 75.0359Z" fill="#633001"/>
<path d="M86.7713 76.2587C86.7713 78.886 83.2861 81.0159 78.987 81.0159C74.6878 81.0159 71.2026 78.886 71.2026 76.2587V75.1426H86.7713V76.2587Z" fill="#FEDC90"/>
<path d="M86.7713 75.0478C86.7713 77.6751 83.2861 79.8049 78.987 79.8049C74.6878 79.8049 71.2026 77.6751 71.2026 75.0478C71.2026 72.4204 74.6878 70.2906 78.987 70.2906C83.2861 70.2906 86.7713 72.4204 86.7713 75.0478Z" fill="#D1884F"/>
<path fill-rule="evenodd" clip-rule="evenodd" d="M73.0439 75.3437C73.0439 76.2209 73.6813 77.0065 74.6868 77.5351L73.9902 78.7418L73.9903 78.7419H73.9902V81.7958C73.9902 82.1997 74.3175 82.5271 74.7214 82.5271C75.1252 82.5271 75.4526 82.1997 75.4526 81.7958V79.3671L76.2021 78.0688C76.6814 78.1704 77.1958 78.2256 77.7313 78.2256C80.32 78.2256 82.4186 76.9354 82.4186 75.3437C82.4186 73.7521 80.32 72.4619 77.7313 72.4619C75.1425 72.4619 73.0439 73.7521 73.0439 75.3437Z" fill="url(#paint8_linear)"/>
<path fill-rule="evenodd" clip-rule="evenodd" d="M74.6868 77.5351C74.5755 77.4765 74.4686 77.4148 74.3666 77.3502C73.5479 76.8313 73.0439 76.1237 73.0439 75.3437C73.0439 73.7521 75.1425 72.4619 77.7313 72.4619C80.32 72.4619 82.4186 73.7521 82.4186 75.3437C82.4186 76.9354 80.32 78.2256 77.7313 78.2256C77.1958 78.2256 76.6814 78.1704 76.2021 78.0688L75.4526 79.3671V81.7958C75.4526 82.1997 75.1252 82.5271 74.7214 82.5271C74.3175 82.5271 73.9902 82.1997 73.9902 81.7958V78.7419L74.6868 77.5351ZM73.2437 78.7547V81.7958C73.2437 82.6119 73.9053 83.2735 74.7214 83.2735C75.5375 83.2735 76.199 82.6119 76.199 81.7958V79.5671L76.5878 78.8937C76.957 78.9452 77.3397 78.9721 77.7313 78.9721C79.1409 78.9721 80.4528 78.6223 81.4367 78.0174C82.4083 77.4201 83.165 76.4958 83.165 75.3437C83.165 74.1917 82.4083 73.2674 81.4367 72.67C80.4528 72.0652 79.1409 71.7154 77.7313 71.7154C76.3216 71.7154 75.0097 72.0652 74.0259 72.67C73.0542 73.2674 72.2975 74.1917 72.2975 75.3437C72.2975 76.3548 72.8766 77.1874 73.6812 77.784L73.3489 78.3596C73.3172 78.4127 73.2919 78.47 73.2741 78.5305C73.2522 78.6043 73.2424 78.6799 73.2437 78.7547Z" fill="#633001"/>
<path d="M74.5083 74.1295C74.5083 74.954 75.5586 75.6224 76.8542 75.6224C78.1499 75.6224 79.2002 74.954 79.2002 74.1295C79.2002 73.305 78.1499 72.6366 76.8542 72.6366C75.5586 72.6366 74.5083 73.305 74.5083 74.1295Z" fill="#9E7200"/>
<path d="M74.5083 73.4897H79.2002V74.1296H74.5083V73.4897Z" fill="#9E7200"/>
<path d="M74.5083 73.4897C74.5083 74.3142 75.5586 74.9826 76.8542 74.9826C78.1499 74.9826 79.2002 74.3142 79.2002 73.4897C79.2002 72.6652 78.1499 71.9968 76.8542 71.9968C75.5586 71.9968 74.5083 72.6652 74.5083 73.4897Z" fill="#F0B90B"/>
<path d="M75.964 73.3098L76.6252 72.889C76.765 72.8 76.9435 72.8 77.0832 72.889L77.7445 73.3098C77.8762 73.3936 77.8762 73.5858 77.7445 73.6696L77.0832 74.0904C76.9435 74.1793 76.765 74.1793 76.6252 74.0904L75.964 73.6696C75.8323 73.5858 75.8323 73.3936 75.964 73.3098Z" fill="#9E7200"/>
<path fill-rule="evenodd" clip-rule="evenodd" d="M74.7947 71.8043C75.3562 71.4469 76.0864 71.2503 76.8543 71.2503C77.6221 71.2503 78.3523 71.4469 78.9139 71.8043C79.4666 72.156 79.9467 72.7337 79.9467 73.4897V74.1295C79.9467 74.8855 79.4666 75.4632 78.9139 75.8149C78.3523 76.1723 77.6221 76.3689 76.8543 76.3689C76.0864 76.3689 75.3562 76.1723 74.7947 75.8149C74.242 75.4632 73.7618 74.8855 73.7618 74.1295V73.4897C73.7618 72.7337 74.242 72.156 74.7947 71.8043ZM76.8543 71.9968C75.5586 71.9968 74.5083 72.6652 74.5083 73.4897V74.1295C74.5083 74.954 75.5586 75.6224 76.8543 75.6224C78.1499 75.6224 79.2002 74.954 79.2002 74.1295V73.4897C79.2002 72.6652 78.1499 71.9968 76.8543 71.9968Z" fill="#633001"/>
<defs>
<linearGradient id="paint0_linear" x1="12.999" y1="47.8154" x2="76.5917" y2="47.8154" gradientUnits="userSpaceOnUse">
<stop stop-color="#3170D2"/>
<stop offset="0.316" stop-color="#6A1BF6"/>
<stop offset="0.6632" stop-color="#B046E8"/>
<stop offset="1" stop-color="#DF7ECC"/>
</linearGradient>
<linearGradient id="paint1_linear" x1="17.2423" y1="45.5327" x2="77.8877" y2="45.5327" gradientUnits="userSpaceOnUse">
<stop stop-color="#5FB9E7"/>
<stop offset="1" stop-color="#3170D2"/>
</linearGradient>
<linearGradient id="paint2_linear" x1="20.1923" y1="50.0987" x2="80.8377" y2="50.0987" gradientUnits="userSpaceOnUse">
<stop stop-color="#3170D2"/>
<stop offset="0.6603" stop-color="#B44BE5"/>
<stop offset="0.6632" stop-color="#B046E8"/>
<stop offset="1" stop-color="#DF7ECC"/>
</linearGradient>
<linearGradient id="paint3_linear" x1="43.0959" y1="51.1732" x2="80.8378" y2="51.1732" gradientUnits="userSpaceOnUse">
<stop stop-color="#3170D2"/>
<stop offset="0.316" stop-color="#6A1BF6"/>
<stop offset="0.6632" stop-color="#B046E8"/>
<stop offset="1" stop-color="#DF7ECC"/>
</linearGradient>
<linearGradient id="paint4_linear" x1="17.2423" y1="45.5327" x2="77.8877" y2="45.5327" gradientUnits="userSpaceOnUse">
<stop stop-color="#3170D2"/>
<stop offset="0.316" stop-color="#6A1BF6"/>
<stop offset="0.6632" stop-color="#B046E8"/>
<stop offset="1" stop-color="#DF7ECC"/>
</linearGradient>
<linearGradient id="paint5_linear" x1="17.2424" y1="50.026" x2="32.1928" y2="50.026" gradientUnits="userSpaceOnUse">
<stop stop-color="#3170D2"/>
<stop offset="0.316" stop-color="#6A1BF6"/>
<stop offset="0.6632" stop-color="#B046E8"/>
<stop offset="1" stop-color="#DF7ECC"/>
</linearGradient>
<linearGradient id="paint6_linear" x1="49.2654" y1="69.8277" x2="37.2627" y2="74.0362" gradientUnits="userSpaceOnUse">
<stop stop-color="#5FB9E7"/>
<stop offset="1" stop-color="#3170D2"/>
</linearGradient>
<linearGradient id="paint7_linear" x1="80" y1="64" x2="80" y2="96" gradientUnits="userSpaceOnUse">
<stop stop-color="#54DADE"/>
<stop offset="0.762157" stop-color="#24C7D6"/>
</linearGradient>
<linearGradient id="paint8_linear" x1="77.782" y1="72.5583" x2="77.782" y2="82.4515" gradientUnits="userSpaceOnUse">
<stop stop-color="#9F4A08"/>
<stop offset="0.370494" stop-color="#7D3900"/>
<stop offset="1" stop-color="#8D4104"/>
</linearGradient>
</defs>
</svg>
