<svg xmlns="http://www.w3.org/2000/svg" width="96" height="96" fill="none" viewBox="0 0 96 96"><mask id="mask0" width="96" height="96" x="0" y="0" mask-type="alpha" maskUnits="userSpaceOnUse"><path fill="#C4C4C4" fill-rule="evenodd" d="M96 0H0V96H69.7487C64.4865 92.6215 61 86.7179 61 80C61 69.5066 69.5066 61 80 61C86.7179 61 92.6215 64.4865 96 69.7487V0Z" clip-rule="evenodd"/></mask><g mask="url(#mask0)"><circle cx="48" cy="48" r="48" fill="#fff"/><path fill="#231F20" d="M77.3698 44.5474V29.5874C77.3698 29.558 77.3591 29.5313 77.3582 29.5037C77.3548 29.253 77.3219 29.0036 77.2603 28.7606C77.2603 28.7534 77.2541 28.7463 77.2514 28.7383C77.1846 28.5078 77.0923 28.2854 76.9764 28.0753C76.9417 28.013 76.9043 27.9551 76.8669 27.8973C76.7664 27.7389 76.6517 27.5899 76.5243 27.4523C76.478 27.4006 76.4353 27.3481 76.3845 27.3001C76.2021 27.1213 75.9989 26.9651 75.7793 26.8346L49.5448 11.6859C49.0614 11.4069 48.513 11.26 47.9548 11.26C47.3966 11.26 46.8483 11.4069 46.3648 11.6859L20.1303 26.8328C19.6468 27.112 19.2454 27.5135 18.9663 27.997C18.6873 28.4806 18.5405 29.0291 18.5408 29.5874V67.2682C18.5409 67.8264 18.6879 68.3747 18.9671 68.8581C19.2462 69.3415 19.6477 69.7428 20.1312 70.0218L33.086 77.4978C33.1252 77.5192 33.1661 77.5263 33.2035 77.5468C33.3744 77.6363 33.5532 77.7098 33.7375 77.7666C33.8061 77.7871 33.871 77.8138 33.9396 77.8289C34.1711 77.8844 34.4081 77.9143 34.6462 77.9179C34.6551 77.9179 34.6649 77.9179 34.6756 77.9179H34.6818C34.9304 77.9159 35.1778 77.8839 35.4187 77.8227C35.4846 77.8067 35.5487 77.7826 35.6145 77.7622C35.7905 77.7079 35.9614 77.6385 36.1254 77.5548C36.1921 77.5201 36.2571 77.4872 36.3221 77.448C36.5097 77.335 36.685 77.2029 36.8454 77.0537C36.8685 77.0324 36.8944 77.0172 36.9166 76.995C37.0949 76.814 37.2508 76.6123 37.3812 76.3942C37.3954 76.3702 37.4177 76.3542 37.431 76.3284C37.4622 76.275 37.4782 76.2189 37.5049 76.1646C37.558 76.063 37.6052 75.9584 37.6464 75.8513C37.6829 75.7543 37.7105 75.6573 37.7354 75.5585C37.7631 75.4601 37.7856 75.3603 37.803 75.2595C37.8218 75.1464 37.8331 75.0323 37.8369 74.9177C37.8413 74.8563 37.8564 74.8003 37.8564 74.7397V38.903L60.9074 25.5913L67.8254 29.5874L46.3648 41.9797C45.8813 42.2586 45.4797 42.6599 45.2005 43.1433C44.9213 43.6267 44.7743 44.1751 44.7744 44.7334V59.6934C44.7744 59.7228 44.7851 59.7486 44.786 59.7771C44.7891 60.0278 44.8223 60.2773 44.8848 60.5202C44.8848 60.5291 44.891 60.5353 44.8928 60.5425C44.9592 60.7737 45.0515 60.9967 45.1678 61.2073C45.2025 61.2687 45.2399 61.3265 45.2782 61.3853C45.3783 61.5435 45.4924 61.6924 45.619 61.8303C45.6662 61.8819 45.708 61.9344 45.7605 61.9825C45.9423 62.1616 46.1452 62.318 46.3648 62.4479L72.6003 77.5948C73.084 77.8741 73.6328 78.0209 74.1914 78.0206C74.75 78.0204 75.2986 77.873 75.7821 77.5933C76.2656 77.3136 76.6669 76.9115 76.9456 76.4274C77.2243 75.9433 77.3706 75.3944 77.3698 74.8358V60.1989C77.368 59.5437 77.1946 58.9005 76.8666 58.3333C76.5387 57.7661 76.0677 57.2948 75.5008 56.9664L67.2683 52.2138L75.7767 47.301C76.2606 47.0223 76.6627 46.6211 76.9423 46.1377C77.222 45.6543 77.3694 45.1058 77.3698 44.5474V44.5474ZM31.4965 69.2422L24.8998 65.4339V46.3879L31.4965 42.5796V69.2422ZM24.8998 39.0392V31.4225L47.9553 18.1108L54.552 21.9191L24.8998 39.0392ZM71.0098 61.7164V69.3312L54.3188 59.6934L60.9155 55.886L71.0098 61.7164ZM71.0098 42.7113L51.1343 54.1861V46.5695L71.0098 35.0947V42.7113Z"/></g><circle cx="80" cy="80" r="16" fill="url(#paint0_linear)"/><path fill="#606063" fill-rule="evenodd" d="M69.6072 81.758C69.6045 81.8177 69.6031 81.8777 69.6031 81.9379C69.6031 82.1653 69.6229 82.3899 69.6615 82.6111H69.6031V82.9593C69.6031 83.1292 69.6141 83.2976 69.6359 83.4642C70.0595 86.7145 74.5379 89.2719 80 89.2719C85.4621 89.2719 89.9405 86.7145 90.3641 83.4642C90.3859 83.2976 90.3969 83.1292 90.3969 82.9593V82.6111H90.3385C90.3771 82.3899 90.3969 82.1653 90.3969 81.9379C90.3969 81.8777 90.3955 81.8177 90.3928 81.758C90.2359 78.3548 85.643 75.6252 80 75.6252C74.357 75.6252 69.7641 78.3548 69.6072 81.758ZM68.7533 81.758C68.8307 79.6815 70.2417 77.9373 72.2055 76.7449C74.2413 75.5089 76.9992 74.7721 80 74.7721C83.0008 74.7721 85.7587 75.5089 87.7945 76.7449C89.7583 77.9373 91.1693 79.6815 91.2467 81.758H91.25V82.9593C91.25 85.1148 89.8148 86.9255 87.7945 88.1522C85.7587 89.3883 83.0008 90.125 80 90.125C76.9992 90.125 74.2413 89.3883 72.2055 88.1522C70.1852 86.9255 68.75 85.1148 68.75 82.9593V81.758H68.7533Z" clip-rule="evenodd"/><path fill="#BEBEBE" d="M90.3969 82.9594C90.3969 86.4458 85.742 89.2721 79.9999 89.2721C74.2579 89.2721 69.603 86.4458 69.603 82.9594V81.9601H90.3969V82.9594Z"/><path fill="#FAF9FA" d="M90.3969 81.9378C90.3969 85.4242 85.742 88.2505 79.9999 88.2505C74.2579 88.2505 69.603 85.4242 69.603 81.9378C69.603 78.4514 74.2579 75.6251 79.9999 75.6251C85.742 75.6251 90.3969 78.4514 90.3969 81.9378Z"/><path fill="#633001" fill-rule="evenodd" d="M71.2027 80.1544C71.2027 80.1584 71.2027 80.1624 71.2027 80.1663C71.2027 80.4534 71.2443 80.7345 71.324 81.0075H71.2026V81.3772C71.2026 81.5404 71.216 81.7017 71.2423 81.8606C71.6386 84.2609 74.9547 86.1344 78.9869 86.1344C83.019 86.1344 86.3351 84.2609 86.7315 81.8606C86.7578 81.7017 86.7712 81.5404 86.7712 81.3772V81.0075H86.65C86.7275 80.7419 86.769 80.4687 86.7712 80.1898C86.7713 80.182 86.7713 80.1741 86.7713 80.1663C86.7713 80.1624 86.7713 80.1584 86.7713 80.1544C86.7608 77.5326 83.2797 75.4091 78.987 75.4091C74.6943 75.4091 71.2132 77.5326 71.2027 80.1544ZM70.3496 80.1544H70.3495V81.3772C70.3495 83.1005 71.489 84.5226 73.0377 85.469C74.601 86.4244 76.7065 86.9875 78.9869 86.9875C81.2673 86.9875 83.3727 86.4244 84.9361 85.469C86.4847 84.5226 87.6243 83.1005 87.6243 81.3772V80.1929C87.6243 80.1841 87.6244 80.1752 87.6244 80.1663C87.6244 78.443 86.4848 77.021 84.9362 76.0745C83.3728 75.1192 81.2674 74.556 78.987 74.556C76.7066 74.556 74.6011 75.1192 73.0378 76.0745C71.4927 77.0188 70.3548 78.4365 70.3496 80.1544Z" clip-rule="evenodd"/><path fill="#FEDC90" d="M86.7713 81.3774C86.7713 84.0047 83.2861 86.1346 78.987 86.1346C74.6878 86.1346 71.2026 84.0047 71.2026 81.3774V80.2612H86.7713V81.3774Z"/><path fill="#D1884F" d="M86.7713 80.1664C86.7713 82.7937 83.2861 84.9235 78.987 84.9235C74.6878 84.9235 71.2026 82.7937 71.2026 80.1664C71.2026 77.539 74.6878 75.4092 78.987 75.4092C83.2861 75.4092 86.7713 77.539 86.7713 80.1664Z"/><path fill="#633001" fill-rule="evenodd" d="M73.5488 77.5952C73.5487 77.5992 73.5487 77.6031 73.5487 77.6071C73.5487 77.8942 73.5903 78.1753 73.6701 78.4483H73.5486V78.818C73.5486 78.9812 73.5621 79.1425 73.5883 79.3014C73.9847 81.7017 77.3008 83.5752 81.3329 83.5752C85.3651 83.5752 88.6812 81.7017 89.0776 79.3014C89.1038 79.1425 89.1173 78.9812 89.1173 78.818V78.4483H88.996C89.0736 78.1827 89.1151 77.9095 89.1173 77.6306C89.1173 77.6228 89.1174 77.6149 89.1174 77.6071C89.1174 77.6031 89.1173 77.5992 89.1173 77.5952C89.1069 74.9734 85.6257 72.8499 81.333 72.8499C77.0404 72.8499 73.5592 74.9734 73.5488 77.5952ZM72.6957 77.5952H72.6956V78.818C72.6956 80.5413 73.8351 81.9634 75.3838 82.9098C76.9471 83.8652 79.0526 84.4283 81.3329 84.4283C83.6133 84.4283 85.7188 83.8652 87.2821 82.9098C88.8308 81.9634 89.9703 80.5413 89.9703 78.818V77.6337C89.9704 77.6249 89.9704 77.616 89.9704 77.6071C89.9704 75.8838 88.8309 74.4618 87.2822 73.5153C85.7189 72.56 83.6134 71.9968 81.333 71.9968C79.0527 71.9968 76.9472 72.56 75.3839 73.5153C73.8387 74.4596 72.7009 75.8773 72.6957 77.5952Z" clip-rule="evenodd"/><path fill="#FEDC90" d="M89.1172 78.8181C89.1172 81.4454 85.6321 83.5752 81.3329 83.5752C77.0337 83.5752 73.5486 81.4454 73.5486 78.8181V77.7019H89.1172V78.8181Z"/><path fill="#D1884F" d="M89.1172 77.607C89.1172 80.2344 85.6321 82.3642 81.3329 82.3642C77.0337 82.3642 73.5486 80.2344 73.5486 77.607C73.5486 74.9797 77.0337 72.8499 81.3329 72.8499C85.6321 72.8499 89.1172 74.9797 89.1172 77.607Z"/><path fill="#633001" fill-rule="evenodd" d="M71.2027 75.0359C71.2027 75.0399 71.2027 75.0438 71.2027 75.0478C71.2027 75.3348 71.2443 75.616 71.324 75.889H71.2026V76.2587C71.2026 76.4219 71.216 76.5832 71.2423 76.7421C71.6386 79.1424 74.9547 81.0159 78.9869 81.0159C83.019 81.0159 86.3351 79.1424 86.7315 76.7421C86.7578 76.5832 86.7712 76.4219 86.7712 76.2587V75.889H86.65C86.7275 75.6234 86.769 75.3502 86.7712 75.0712C86.7713 75.0634 86.7713 75.0556 86.7713 75.0478C86.7713 75.0438 86.7713 75.0399 86.7713 75.0359C86.7608 72.4141 83.2797 70.2906 78.987 70.2906C74.6943 70.2906 71.2132 72.4141 71.2027 75.0359ZM70.3496 75.0359H70.3495V76.2587C70.3495 77.982 71.489 79.404 73.0377 80.3505C74.601 81.3059 76.7065 81.869 78.9869 81.869C81.2673 81.869 83.3727 81.3059 84.9361 80.3505C86.4847 79.404 87.6243 77.982 87.6243 76.2587V75.0744C87.6243 75.0655 87.6244 75.0567 87.6244 75.0478C87.6244 73.3245 86.4848 71.9024 84.9362 70.956C83.3728 70.0006 81.2674 69.4375 78.987 69.4375C76.7066 69.4375 74.6011 70.0006 73.0378 70.956C71.4927 71.9003 70.3548 73.3179 70.3496 75.0359Z" clip-rule="evenodd"/><path fill="#FEDC90" d="M86.7713 76.2587C86.7713 78.886 83.2861 81.0159 78.987 81.0159C74.6878 81.0159 71.2026 78.886 71.2026 76.2587V75.1426H86.7713V76.2587Z"/><path fill="#D1884F" d="M86.7713 75.0478C86.7713 77.6751 83.2861 79.805 78.987 79.805C74.6878 79.805 71.2026 77.6751 71.2026 75.0478C71.2026 72.4205 74.6878 70.2906 78.987 70.2906C83.2861 70.2906 86.7713 72.4205 86.7713 75.0478Z"/><path fill="url(#paint1_linear)" fill-rule="evenodd" d="M73.0439 75.3438C73.0439 76.221 73.6813 77.0066 74.6868 77.5352L73.9902 78.7419L73.9903 78.7419H73.9902V81.7959C73.9902 82.1997 74.3175 82.5271 74.7214 82.5271C75.1252 82.5271 75.4526 82.1997 75.4526 81.7959V79.3671L76.2021 78.0689C76.6814 78.1705 77.1958 78.2257 77.7313 78.2257C80.32 78.2257 82.4186 76.9354 82.4186 75.3438C82.4186 73.7522 80.32 72.4619 77.7313 72.4619C75.1425 72.4619 73.0439 73.7522 73.0439 75.3438Z" clip-rule="evenodd"/><path fill="#633001" fill-rule="evenodd" d="M74.6868 77.5352C74.5755 77.4766 74.4686 77.4149 74.3666 77.3503C73.5479 76.8314 73.0439 76.1238 73.0439 75.3438C73.0439 73.7522 75.1425 72.4619 77.7313 72.4619C80.32 72.4619 82.4186 73.7522 82.4186 75.3438C82.4186 76.9354 80.32 78.2257 77.7313 78.2257C77.1958 78.2257 76.6814 78.1705 76.2021 78.0689L75.4526 79.3671V81.7959C75.4526 82.1997 75.1252 82.5271 74.7214 82.5271C74.3175 82.5271 73.9902 82.1997 73.9902 81.7959V78.7419L74.6868 77.5352ZM73.2437 78.7548V81.7959C73.2437 82.612 73.9053 83.2736 74.7214 83.2736C75.5375 83.2736 76.199 82.612 76.199 81.7959V79.5671L76.5878 78.8938C76.957 78.9452 77.3397 78.9722 77.7313 78.9722C79.1409 78.9722 80.4528 78.6224 81.4367 78.0175C82.4083 77.4201 83.165 76.4959 83.165 75.3438C83.165 74.1918 82.4083 73.2675 81.4367 72.6701C80.4528 72.0652 79.1409 71.7155 77.7313 71.7155C76.3216 71.7155 75.0097 72.0652 74.0259 72.6701C73.0542 73.2675 72.2975 74.1918 72.2975 75.3438C72.2975 76.3549 72.8766 77.1875 73.6812 77.7841L73.3489 78.3597C73.3172 78.4127 73.2919 78.47 73.2741 78.5305C73.2522 78.6043 73.2424 78.6799 73.2437 78.7548Z" clip-rule="evenodd"/><path fill="#9E7200" d="M74.5083 74.1295C74.5083 74.954 75.5586 75.6224 76.8542 75.6224C78.1499 75.6224 79.2002 74.954 79.2002 74.1295C79.2002 73.305 78.1499 72.6366 76.8542 72.6366C75.5586 72.6366 74.5083 73.305 74.5083 74.1295Z"/><path fill="#9E7200" d="M74.5083 73.4897H79.2002V74.1296H74.5083V73.4897Z"/><path fill="#F0B90B" d="M74.5083 73.4897C74.5083 74.3143 75.5586 74.9827 76.8542 74.9827C78.1499 74.9827 79.2002 74.3143 79.2002 73.4897C79.2002 72.6652 78.1499 71.9968 76.8542 71.9968C75.5586 71.9968 74.5083 72.6652 74.5083 73.4897Z"/><path fill="#9E7200" d="M75.964 73.3098L76.6252 72.889C76.765 72.8 76.9435 72.8 77.0832 72.889L77.7445 73.3098C77.8762 73.3936 77.8762 73.5858 77.7445 73.6696L77.0832 74.0904C76.9435 74.1793 76.765 74.1793 76.6252 74.0904L75.964 73.6696C75.8323 73.5858 75.8323 73.3936 75.964 73.3098Z"/><path fill="#633001" fill-rule="evenodd" d="M74.7947 71.8043C75.3562 71.447 76.0864 71.2504 76.8543 71.2504C77.6221 71.2504 78.3523 71.447 78.9139 71.8043C79.4666 72.1561 79.9467 72.7338 79.9467 73.4897V74.1296C79.9467 74.8856 79.4666 75.4633 78.9139 75.815C78.3523 76.1723 77.6221 76.369 76.8543 76.369C76.0864 76.369 75.3562 76.1723 74.7947 75.815C74.242 75.4633 73.7618 74.8856 73.7618 74.1296V73.4897C73.7618 72.7338 74.242 72.1561 74.7947 71.8043ZM76.8543 71.9968C75.5586 71.9968 74.5083 72.6652 74.5083 73.4897V74.1296C74.5083 74.9541 75.5586 75.6225 76.8543 75.6225C78.1499 75.6225 79.2002 74.9541 79.2002 74.1296V73.4897C79.2002 72.6652 78.1499 71.9968 76.8543 71.9968Z" clip-rule="evenodd"/><defs><linearGradient id="paint0_linear" x1="80" x2="80" y1="64" y2="96" gradientUnits="userSpaceOnUse"><stop stop-color="#54DADE"/><stop offset=".762" stop-color="#24C7D6"/></linearGradient><linearGradient id="paint1_linear" x1="77.782" x2="77.782" y1="72.558" y2="82.451" gradientUnits="userSpaceOnUse"><stop stop-color="#9F4A08"/><stop offset=".37" stop-color="#7D3900"/><stop offset="1" stop-color="#8D4104"/></linearGradient></defs></svg>