<svg width="96" height="96" viewBox="0 0 96 96" fill="none" xmlns="http://www.w3.org/2000/svg">
<mask id="mask0" mask-type="alpha" maskUnits="userSpaceOnUse" x="0" y="0" width="96" height="96">
<path fill-rule="evenodd" clip-rule="evenodd" d="M96 0H0V96H69.7487C64.4865 92.6215 61 86.7179 61 80C61 69.5066 69.5066 61 80 61C86.7179 61 92.6215 64.4865 96 69.7487V0Z" fill="#C4C4C4"/>
</mask>
<g mask="url(#mask0)">
<circle cx="48" cy="48" r="48" fill="white"/>
<path d="M69.7958 68.9116V79L53.3814 69.3536L52.1834 68.6516C50.6238 67.7331 49.3305 66.4096 48.4351 64.8157C47.5397 63.2217 47.0742 61.4143 47.0858 59.5773V56.0151C47.0709 54.8628 47.3615 53.7279 47.9268 52.7301C48.4921 51.7324 49.3111 50.909 50.2973 50.3469L57.1027 46.3168V37.7365C57.1224 37.2378 57.0078 36.7432 56.7713 36.3064C56.5183 35.8881 56.1682 35.5398 55.7518 35.2924L49.7621 31.8862C49.3542 31.6227 48.8813 31.4829 48.3984 31.4829C47.9156 31.4829 47.4427 31.6227 47.0348 31.8862L41.0706 35.3964C40.644 35.6274 40.2905 35.9774 40.0513 36.4055C39.8121 36.8336 39.6971 37.3223 39.7197 37.8145V72.9678L31.1302 67.8976C29.861 67.1783 28.8067 66.1215 28.0796 64.8394C27.3525 63.5574 26.9798 62.0983 27.0011 60.6173V32.4063C26.9797 31.2457 27.2671 30.101 27.8325 29.0938C28.398 28.0865 29.2206 27.2545 30.2126 26.6861L44.0272 18.6518L45.3016 17.8977C46.2785 17.31 47.3918 17 48.5259 17C49.66 17 50.7733 17.31 51.7501 17.8977L64.4942 25.36L66.7882 26.7121C67.7728 27.2826 68.5898 28.1115 69.1545 29.1128C69.7192 30.114 70.011 31.2512 69.9997 32.4063V50.0869C70.011 51.242 69.7192 52.3792 69.1545 53.3804C68.5898 54.3817 67.7728 55.2106 66.7882 55.7811L61.1043 58.9273L65.6667 61.5274C66.9359 62.2466 67.9902 63.3035 68.7173 64.5855C69.4444 65.8675 69.8171 67.3267 69.7958 68.8076" fill="url(#paint0_linear)"/>
<path d="M69.9991 68.8446C70.0212 67.369 69.636 65.9151 68.8846 64.6377C68.1333 63.3604 67.0438 62.3073 65.7322 61.5907L61.0176 59L54.5384 62.9637C51.9045 64.57 50.3505 67.6788 54.8544 70.4249L55.4602 70.7617L69.9991 79V68.8446Z" fill="url(#paint1_linear)"/>
</g>
<circle cx="80" cy="80" r="16" fill="url(#paint2_linear)"/>
<path fill-rule="evenodd" clip-rule="evenodd" d="M69.6072 81.758C69.6045 81.8177 69.6031 81.8777 69.6031 81.9379C69.6031 82.1653 69.6229 82.3899 69.6615 82.6111H69.6031V82.9593C69.6031 83.1292 69.6141 83.2976 69.6359 83.4642C70.0595 86.7145 74.5379 89.2719 80 89.2719C85.4621 89.2719 89.9405 86.7145 90.3641 83.4642C90.3859 83.2976 90.3969 83.1292 90.3969 82.9593V82.6111H90.3385C90.3771 82.3899 90.3969 82.1653 90.3969 81.9379C90.3969 81.8777 90.3955 81.8177 90.3928 81.758C90.2359 78.3548 85.643 75.6252 80 75.6252C74.357 75.6252 69.7641 78.3548 69.6072 81.758ZM68.7533 81.758C68.8307 79.6815 70.2417 77.9373 72.2055 76.7449C74.2413 75.5089 76.9992 74.7721 80 74.7721C83.0008 74.7721 85.7587 75.5089 87.7945 76.7449C89.7583 77.9373 91.1693 79.6815 91.2467 81.758H91.25V82.9593C91.25 85.1148 89.8148 86.9255 87.7945 88.1522C85.7587 89.3883 83.0008 90.125 80 90.125C76.9992 90.125 74.2413 89.3883 72.2055 88.1522C70.1852 86.9255 68.75 85.1148 68.75 82.9593V81.758H68.7533Z" fill="#606063"/>
<path d="M90.3969 82.9594C90.3969 86.4458 85.742 89.2721 79.9999 89.2721C74.2579 89.2721 69.603 86.4458 69.603 82.9594V81.9601H90.3969V82.9594Z" fill="#BEBEBE"/>
<path d="M90.3969 81.9378C90.3969 85.4242 85.742 88.2505 79.9999 88.2505C74.2579 88.2505 69.603 85.4242 69.603 81.9378C69.603 78.4514 74.2579 75.6251 79.9999 75.6251C85.742 75.6251 90.3969 78.4514 90.3969 81.9378Z" fill="#FAF9FA"/>
<path fill-rule="evenodd" clip-rule="evenodd" d="M71.2027 80.1544C71.2027 80.1584 71.2027 80.1624 71.2027 80.1663C71.2027 80.4534 71.2443 80.7345 71.324 81.0075H71.2026V81.3772C71.2026 81.5404 71.216 81.7017 71.2423 81.8606C71.6386 84.2609 74.9547 86.1344 78.9869 86.1344C83.019 86.1344 86.3351 84.2609 86.7315 81.8606C86.7578 81.7017 86.7712 81.5404 86.7712 81.3772V81.0075H86.65C86.7275 80.7419 86.769 80.4687 86.7712 80.1898C86.7713 80.182 86.7713 80.1741 86.7713 80.1663C86.7713 80.1624 86.7713 80.1584 86.7713 80.1544C86.7608 77.5326 83.2797 75.4091 78.987 75.4091C74.6943 75.4091 71.2132 77.5326 71.2027 80.1544ZM70.3496 80.1544H70.3495V81.3772C70.3495 83.1005 71.489 84.5226 73.0377 85.469C74.601 86.4244 76.7065 86.9875 78.9869 86.9875C81.2673 86.9875 83.3727 86.4244 84.9361 85.469C86.4847 84.5226 87.6243 83.1005 87.6243 81.3772V80.1929C87.6243 80.1841 87.6244 80.1752 87.6244 80.1663C87.6244 78.443 86.4848 77.021 84.9362 76.0745C83.3728 75.1192 81.2674 74.556 78.987 74.556C76.7066 74.556 74.6011 75.1192 73.0378 76.0745C71.4927 77.0188 70.3548 78.4365 70.3496 80.1544Z" fill="#633001"/>
<path d="M86.7713 81.3774C86.7713 84.0047 83.2861 86.1346 78.987 86.1346C74.6878 86.1346 71.2026 84.0047 71.2026 81.3774V80.2612H86.7713V81.3774Z" fill="#FEDC90"/>
<path d="M86.7713 80.1664C86.7713 82.7937 83.2861 84.9235 78.987 84.9235C74.6878 84.9235 71.2026 82.7937 71.2026 80.1664C71.2026 77.539 74.6878 75.4092 78.987 75.4092C83.2861 75.4092 86.7713 77.539 86.7713 80.1664Z" fill="#D1884F"/>
<path fill-rule="evenodd" clip-rule="evenodd" d="M73.5488 77.5952C73.5487 77.5992 73.5487 77.6031 73.5487 77.6071C73.5487 77.8942 73.5903 78.1753 73.6701 78.4483H73.5486V78.818C73.5486 78.9812 73.5621 79.1425 73.5883 79.3014C73.9847 81.7017 77.3008 83.5752 81.3329 83.5752C85.3651 83.5752 88.6812 81.7017 89.0776 79.3014C89.1038 79.1425 89.1173 78.9812 89.1173 78.818V78.4483H88.996C89.0736 78.1827 89.1151 77.9095 89.1173 77.6306C89.1173 77.6228 89.1174 77.6149 89.1174 77.6071C89.1174 77.6031 89.1173 77.5992 89.1173 77.5952C89.1069 74.9734 85.6257 72.8499 81.333 72.8499C77.0404 72.8499 73.5592 74.9734 73.5488 77.5952ZM72.6957 77.5952H72.6956V78.818C72.6956 80.5413 73.8351 81.9634 75.3838 82.9098C76.9471 83.8652 79.0526 84.4283 81.3329 84.4283C83.6133 84.4283 85.7188 83.8652 87.2821 82.9098C88.8308 81.9634 89.9703 80.5413 89.9703 78.818V77.6337C89.9704 77.6249 89.9704 77.616 89.9704 77.6071C89.9704 75.8838 88.8309 74.4618 87.2822 73.5153C85.7189 72.56 83.6134 71.9968 81.333 71.9968C79.0527 71.9968 76.9472 72.56 75.3839 73.5153C73.8387 74.4596 72.7009 75.8773 72.6957 77.5952Z" fill="#633001"/>
<path d="M89.1172 78.8181C89.1172 81.4454 85.6321 83.5752 81.3329 83.5752C77.0337 83.5752 73.5486 81.4454 73.5486 78.8181V77.7019H89.1172V78.8181Z" fill="#FEDC90"/>
<path d="M89.1172 77.607C89.1172 80.2344 85.6321 82.3642 81.3329 82.3642C77.0337 82.3642 73.5486 80.2344 73.5486 77.607C73.5486 74.9797 77.0337 72.8499 81.3329 72.8499C85.6321 72.8499 89.1172 74.9797 89.1172 77.607Z" fill="#D1884F"/>
<path fill-rule="evenodd" clip-rule="evenodd" d="M71.2027 75.0359C71.2027 75.0399 71.2027 75.0438 71.2027 75.0478C71.2027 75.3348 71.2443 75.616 71.324 75.889H71.2026V76.2587C71.2026 76.4219 71.216 76.5832 71.2423 76.7421C71.6386 79.1424 74.9547 81.0159 78.9869 81.0159C83.019 81.0159 86.3351 79.1424 86.7315 76.7421C86.7578 76.5832 86.7712 76.4219 86.7712 76.2587V75.889H86.65C86.7275 75.6234 86.769 75.3502 86.7712 75.0712C86.7713 75.0634 86.7713 75.0556 86.7713 75.0478C86.7713 75.0438 86.7713 75.0399 86.7713 75.0359C86.7608 72.4141 83.2797 70.2906 78.987 70.2906C74.6943 70.2906 71.2132 72.4141 71.2027 75.0359ZM70.3496 75.0359H70.3495V76.2587C70.3495 77.982 71.489 79.404 73.0377 80.3505C74.601 81.3059 76.7065 81.869 78.9869 81.869C81.2673 81.869 83.3727 81.3059 84.9361 80.3505C86.4847 79.404 87.6243 77.982 87.6243 76.2587V75.0744C87.6243 75.0655 87.6244 75.0567 87.6244 75.0478C87.6244 73.3245 86.4848 71.9024 84.9362 70.956C83.3728 70.0006 81.2674 69.4375 78.987 69.4375C76.7066 69.4375 74.6011 70.0006 73.0378 70.956C71.4927 71.9003 70.3548 73.3179 70.3496 75.0359Z" fill="#633001"/>
<path d="M86.7713 76.2587C86.7713 78.886 83.2861 81.0159 78.987 81.0159C74.6878 81.0159 71.2026 78.886 71.2026 76.2587V75.1426H86.7713V76.2587Z" fill="#FEDC90"/>
<path d="M86.7713 75.0478C86.7713 77.6751 83.2861 79.805 78.987 79.805C74.6878 79.805 71.2026 77.6751 71.2026 75.0478C71.2026 72.4205 74.6878 70.2906 78.987 70.2906C83.2861 70.2906 86.7713 72.4205 86.7713 75.0478Z" fill="#D1884F"/>
<path fill-rule="evenodd" clip-rule="evenodd" d="M73.0439 75.3438C73.0439 76.221 73.6813 77.0066 74.6868 77.5352L73.9902 78.7419L73.9903 78.7419H73.9902V81.7959C73.9902 82.1997 74.3175 82.5271 74.7214 82.5271C75.1252 82.5271 75.4526 82.1997 75.4526 81.7959V79.3671L76.2021 78.0689C76.6814 78.1705 77.1958 78.2257 77.7313 78.2257C80.32 78.2257 82.4186 76.9354 82.4186 75.3438C82.4186 73.7522 80.32 72.4619 77.7313 72.4619C75.1425 72.4619 73.0439 73.7522 73.0439 75.3438Z" fill="url(#paint3_linear)"/>
<path fill-rule="evenodd" clip-rule="evenodd" d="M74.6868 77.5352C74.5755 77.4766 74.4686 77.4149 74.3666 77.3503C73.5479 76.8314 73.0439 76.1238 73.0439 75.3438C73.0439 73.7522 75.1425 72.4619 77.7313 72.4619C80.32 72.4619 82.4186 73.7522 82.4186 75.3438C82.4186 76.9354 80.32 78.2257 77.7313 78.2257C77.1958 78.2257 76.6814 78.1705 76.2021 78.0689L75.4526 79.3671V81.7959C75.4526 82.1997 75.1252 82.5271 74.7214 82.5271C74.3175 82.5271 73.9902 82.1997 73.9902 81.7959V78.7419L74.6868 77.5352ZM73.2437 78.7548V81.7959C73.2437 82.612 73.9053 83.2736 74.7214 83.2736C75.5375 83.2736 76.199 82.612 76.199 81.7959V79.5671L76.5878 78.8938C76.957 78.9452 77.3397 78.9722 77.7313 78.9722C79.1409 78.9722 80.4528 78.6224 81.4367 78.0175C82.4083 77.4201 83.165 76.4959 83.165 75.3438C83.165 74.1918 82.4083 73.2675 81.4367 72.6701C80.4528 72.0652 79.1409 71.7155 77.7313 71.7155C76.3216 71.7155 75.0097 72.0652 74.0259 72.6701C73.0542 73.2675 72.2975 74.1918 72.2975 75.3438C72.2975 76.3549 72.8766 77.1875 73.6812 77.7841L73.3489 78.3597C73.3172 78.4127 73.2919 78.47 73.2741 78.5305C73.2522 78.6043 73.2424 78.6799 73.2437 78.7548Z" fill="#633001"/>
<path d="M74.5083 74.1295C74.5083 74.954 75.5586 75.6224 76.8542 75.6224C78.1499 75.6224 79.2002 74.954 79.2002 74.1295C79.2002 73.305 78.1499 72.6366 76.8542 72.6366C75.5586 72.6366 74.5083 73.305 74.5083 74.1295Z" fill="#9E7200"/>
<path d="M74.5083 73.4897H79.2002V74.1296H74.5083V73.4897Z" fill="#9E7200"/>
<path d="M74.5083 73.4897C74.5083 74.3143 75.5586 74.9827 76.8542 74.9827C78.1499 74.9827 79.2002 74.3143 79.2002 73.4897C79.2002 72.6652 78.1499 71.9968 76.8542 71.9968C75.5586 71.9968 74.5083 72.6652 74.5083 73.4897Z" fill="#F0B90B"/>
<path d="M75.964 73.3098L76.6252 72.889C76.765 72.8 76.9435 72.8 77.0832 72.889L77.7445 73.3098C77.8762 73.3936 77.8762 73.5858 77.7445 73.6696L77.0832 74.0904C76.9435 74.1793 76.765 74.1793 76.6252 74.0904L75.964 73.6696C75.8323 73.5858 75.8323 73.3936 75.964 73.3098Z" fill="#9E7200"/>
<path fill-rule="evenodd" clip-rule="evenodd" d="M74.7947 71.8043C75.3562 71.447 76.0864 71.2504 76.8543 71.2504C77.6221 71.2504 78.3523 71.447 78.9139 71.8043C79.4666 72.1561 79.9467 72.7338 79.9467 73.4897V74.1296C79.9467 74.8856 79.4666 75.4633 78.9139 75.815C78.3523 76.1723 77.6221 76.369 76.8543 76.369C76.0864 76.369 75.3562 76.1723 74.7947 75.815C74.242 75.4633 73.7618 74.8856 73.7618 74.1296V73.4897C73.7618 72.7338 74.242 72.1561 74.7947 71.8043ZM76.8543 71.9968C75.5586 71.9968 74.5083 72.6652 74.5083 73.4897V74.1296C74.5083 74.9541 75.5586 75.6225 76.8543 75.6225C78.1499 75.6225 79.2002 74.9541 79.2002 74.1296V73.4897C79.2002 72.6652 78.1499 71.9968 76.8543 71.9968Z" fill="#633001"/>
<defs>
<linearGradient id="paint0_linear" x1="34.1633" y1="31.2102" x2="73.3978" y2="72.6825" gradientUnits="userSpaceOnUse">
<stop stop-color="#00C1FF"/>
<stop offset="1" stop-color="#0073FF"/>
</linearGradient>
<linearGradient id="paint1_linear" x1="66.8385" y1="81.1762" x2="59.6448" y2="63.2174" gradientUnits="userSpaceOnUse">
<stop stop-color="#007DFF"/>
<stop offset="1" stop-color="#005CA8"/>
</linearGradient>
<linearGradient id="paint2_linear" x1="80" y1="64" x2="80" y2="96" gradientUnits="userSpaceOnUse">
<stop stop-color="#54DADE"/>
<stop offset="0.762157" stop-color="#24C7D6"/>
</linearGradient>
<linearGradient id="paint3_linear" x1="77.782" y1="72.5584" x2="77.782" y2="82.4515" gradientUnits="userSpaceOnUse">
<stop stop-color="#9F4A08"/>
<stop offset="0.370494" stop-color="#7D3900"/>
<stop offset="1" stop-color="#8D4104"/>
</linearGradient>
</defs>
</svg>
