<svg xmlns="http://www.w3.org/2000/svg" width="96" height="96" fill="none" viewBox="0 0 96 96"><mask id="mask0" width="96" height="96" x="0" y="0" mask-type="alpha" maskUnits="userSpaceOnUse"><path fill="#C4C4C4" fill-rule="evenodd" d="M96 0H0V96H69.7487C64.4865 92.6215 61 86.7179 61 80C61 69.5066 69.5066 61 80 61C86.7179 61 92.6215 64.4865 96 69.7487V0Z" clip-rule="evenodd"/></mask><g mask="url(#mask0)"><path fill="url(#paint0_linear)" d="M96 48C96 21.4903 74.5097 0 48 0C21.4903 0 0 21.4903 0 48C0 74.5097 21.4903 96 48 96C74.5097 96 96 74.5097 96 48Z"/><g filter="url(#filter0_dii)"><path fill="#fff" d="M69.5963 24L69.3391 24.7037L68.4923 26.9556L67.9302 28.4076C63.6621 39.2906 60.3416 44.4557 56.8124 44.4557C54.7784 44.4557 53.5747 43.8515 52.0162 42.4334L51.5663 42.0123C50.445 40.9464 49.9728 40.6844 48.8941 40.6844C48.3319 40.6844 47.3259 41.4263 46.0531 43.158C44.7331 44.9536 43.2854 47.6065 41.7298 51.1008L41.5848 51.4279L56.7266 51.4286L54.8413 55.4571H40.7016V72H36.5455V24H69.5963ZM63.7047 28.0299L40.7014 28.0286V44.0256C43.4576 39.102 46.0765 36.63 48.8941 36.63C51.0848 36.63 52.3755 37.2653 54.0041 38.7437L54.4687 39.1781C55.5155 40.1733 55.9189 40.4015 56.8124 40.4015C57.8002 40.4015 60.4164 36.1253 63.7047 28.0299Z"/></g></g><circle cx="80" cy="80" r="16" fill="url(#paint1_linear)"/><path fill="#606063" fill-rule="evenodd" d="M69.6072 81.758C69.6045 81.8177 69.6031 81.8777 69.6031 81.9379C69.6031 82.1653 69.6229 82.3899 69.6615 82.6111H69.6031V82.9593C69.6031 83.1292 69.6141 83.2976 69.6359 83.4642C70.0595 86.7145 74.5379 89.2719 80 89.2719C85.4621 89.2719 89.9405 86.7145 90.3641 83.4642C90.3859 83.2976 90.3969 83.1292 90.3969 82.9593V82.6111H90.3385C90.3771 82.3899 90.3969 82.1653 90.3969 81.9379C90.3969 81.8777 90.3955 81.8177 90.3928 81.758C90.2359 78.3548 85.643 75.6252 80 75.6252C74.357 75.6252 69.7641 78.3548 69.6072 81.758ZM68.7533 81.758C68.8307 79.6815 70.2417 77.9373 72.2055 76.7449C74.2413 75.5089 76.9992 74.7721 80 74.7721C83.0008 74.7721 85.7587 75.5089 87.7945 76.7449C89.7583 77.9373 91.1693 79.6815 91.2467 81.758H91.25V82.9593C91.25 85.1148 89.8148 86.9255 87.7945 88.1522C85.7587 89.3883 83.0008 90.125 80 90.125C76.9992 90.125 74.2413 89.3883 72.2055 88.1522C70.1852 86.9255 68.75 85.1148 68.75 82.9593V81.758H68.7533Z" clip-rule="evenodd"/><path fill="#BEBEBE" d="M90.397 82.9594C90.397 86.4458 85.7422 89.2721 80.0001 89.2721C74.2581 89.2721 69.6032 86.4458 69.6032 82.9594V81.9601H90.397V82.9594Z"/><path fill="#FAF9FA" d="M90.397 81.9379C90.397 85.4242 85.7422 88.2505 80.0001 88.2505C74.2581 88.2505 69.6032 85.4242 69.6032 81.9379C69.6032 78.4515 74.2581 75.6252 80.0001 75.6252C85.7422 75.6252 90.397 78.4515 90.397 81.9379Z"/><path fill="#633001" fill-rule="evenodd" d="M71.2029 80.1545C71.2029 80.1585 71.2028 80.1624 71.2028 80.1664C71.2028 80.4535 71.2444 80.7346 71.3242 81.0076H71.2028V81.3773C71.2028 81.5405 71.2162 81.7018 71.2424 81.8607C71.6388 84.261 74.9549 86.1345 78.9871 86.1345C83.0192 86.1345 86.3353 84.261 86.7317 81.8607C86.7579 81.7018 86.7714 81.5405 86.7714 81.3773V81.0076H86.6501C86.7277 80.742 86.7692 80.4688 86.7714 80.1899C86.7714 80.1821 86.7715 80.1742 86.7715 80.1664C86.7715 80.1624 86.7715 80.1585 86.7714 80.1545C86.761 77.5327 83.2798 75.4092 78.9872 75.4092C74.6945 75.4092 71.2133 77.5327 71.2029 80.1545ZM70.3498 80.1545H70.3497V81.3773C70.3497 83.1006 71.4892 84.5227 73.0379 85.4691C74.6012 86.4245 76.7067 86.9876 78.9871 86.9876C81.2675 86.9876 83.3729 86.4245 84.9362 85.4691C86.4849 84.5227 87.6245 83.1006 87.6245 81.3773V80.193C87.6245 80.1842 87.6246 80.1753 87.6246 80.1664C87.6246 78.4431 86.485 77.0211 84.9363 76.0746C83.373 75.1193 81.2675 74.5561 78.9872 74.5561C76.7068 74.5561 74.6013 75.1193 73.038 76.0746C71.4929 77.0189 70.355 78.4366 70.3498 80.1545Z" clip-rule="evenodd"/><path fill="#FEDC90" d="M86.7712 81.3773C86.7712 84.0046 83.286 86.1345 78.9869 86.1345C74.6877 86.1345 71.2025 84.0046 71.2025 81.3773V80.2612H86.7712V81.3773Z"/><path fill="#D1884F" d="M86.7712 80.1664C86.7712 82.7937 83.286 84.9236 78.9869 84.9236C74.6877 84.9236 71.2025 82.7937 71.2025 80.1664C71.2025 77.5391 74.6877 75.4092 78.9869 75.4092C83.286 75.4092 86.7712 77.5391 86.7712 80.1664Z"/><path fill="#633001" fill-rule="evenodd" d="M73.5487 77.5952C73.5487 77.5992 73.5487 77.6031 73.5487 77.6071C73.5487 77.8942 73.5903 78.1753 73.67 78.4483H73.5486V78.818C73.5486 78.9812 73.5621 79.1425 73.5883 79.3014C73.9847 81.7017 77.3008 83.5752 81.3329 83.5752C85.3651 83.5752 88.6812 81.7017 89.0775 79.3014C89.1038 79.1425 89.1172 78.9812 89.1172 78.818V78.4483H88.996C89.0735 78.1827 89.115 77.9095 89.1172 77.6306C89.1173 77.6228 89.1173 77.6149 89.1173 77.6071C89.1173 77.6031 89.1173 77.5992 89.1173 77.5952C89.1068 74.9734 85.6257 72.8499 81.333 72.8499C77.0403 72.8499 73.5592 74.9734 73.5487 77.5952ZM72.6956 77.5952H72.6955V78.818C72.6955 80.5413 73.8351 81.9634 75.3837 82.9098C76.9471 83.8652 79.0525 84.4283 81.3329 84.4283C83.6133 84.4283 85.7188 83.8652 87.2821 82.9098C88.8308 81.9634 89.9703 80.5413 89.9703 78.818V77.6337C89.9704 77.6249 89.9704 77.616 89.9704 77.6071C89.9704 75.8838 88.8309 74.4618 87.2822 73.5153C85.7189 72.56 83.6134 71.9968 81.333 71.9968C79.0526 71.9968 76.9471 72.56 75.3838 73.5153C73.8387 74.4596 72.7009 75.8773 72.6956 77.5952Z" clip-rule="evenodd"/><path fill="#FEDC90" d="M89.1174 78.818C89.1174 81.4453 85.6322 83.5752 81.333 83.5752C77.0339 83.5752 73.5487 81.4453 73.5487 78.818V77.7018H89.1174V78.818Z"/><path fill="#D1884F" d="M89.1174 77.6071C89.1174 80.2344 85.6322 82.3642 81.333 82.3642C77.0339 82.3642 73.5487 80.2344 73.5487 77.6071C73.5487 74.9797 77.0339 72.8499 81.333 72.8499C85.6322 72.8499 89.1174 74.9797 89.1174 77.6071Z"/><path fill="#633001" fill-rule="evenodd" d="M71.2029 75.0359C71.2029 75.0399 71.2028 75.0438 71.2028 75.0478C71.2028 75.3348 71.2444 75.616 71.3242 75.889H71.2028V76.2587C71.2028 76.4219 71.2162 76.5832 71.2424 76.7421C71.6388 79.1424 74.9549 81.0159 78.9871 81.0159C83.0192 81.0159 86.3353 79.1424 86.7317 76.7421C86.7579 76.5832 86.7714 76.4219 86.7714 76.2587V75.889H86.6501C86.7277 75.6234 86.7692 75.3502 86.7714 75.0712C86.7714 75.0634 86.7715 75.0556 86.7715 75.0478C86.7715 75.0438 86.7715 75.0399 86.7714 75.0359C86.761 72.4141 83.2798 70.2906 78.9872 70.2906C74.6945 70.2906 71.2133 72.4141 71.2029 75.0359ZM70.3498 75.0359H70.3497V76.2587C70.3497 77.982 71.4892 79.404 73.0379 80.3505C74.6012 81.3059 76.7067 81.869 78.9871 81.869C81.2675 81.869 83.3729 81.3059 84.9362 80.3505C86.4849 79.404 87.6245 77.982 87.6245 76.2587V75.0744C87.6245 75.0655 87.6246 75.0567 87.6246 75.0478C87.6246 73.3245 86.485 71.9024 84.9363 70.956C83.373 70.0006 81.2675 69.4375 78.9872 69.4375C76.7068 69.4375 74.6013 70.0006 73.038 70.956C71.4929 71.9003 70.355 73.3179 70.3498 75.0359Z" clip-rule="evenodd"/><path fill="#FEDC90" d="M86.7712 76.2588C86.7712 78.8861 83.286 81.016 78.9869 81.016C74.6877 81.016 71.2025 78.8861 71.2025 76.2588V75.1426H86.7712V76.2588Z"/><path fill="#D1884F" d="M86.7712 75.0477C86.7712 77.6751 83.286 79.8049 78.9869 79.8049C74.6877 79.8049 71.2025 77.6751 71.2025 75.0477C71.2025 72.4204 74.6877 70.2906 78.9869 70.2906C83.286 70.2906 86.7712 72.4204 86.7712 75.0477Z"/><path fill="url(#paint2_linear)" fill-rule="evenodd" d="M73.0439 75.3438C73.0439 76.2209 73.6813 77.0066 74.6868 77.5351L73.9902 78.7418L73.9903 78.7419H73.9902V81.7959C73.9902 82.1997 74.3175 82.5271 74.7214 82.5271C75.1252 82.5271 75.4526 82.1997 75.4526 81.7959V79.3671L76.2021 78.0688C76.6814 78.1705 77.1958 78.2257 77.7313 78.2257C80.32 78.2257 82.4186 76.9354 82.4186 75.3438C82.4186 73.7522 80.32 72.4619 77.7313 72.4619C75.1425 72.4619 73.0439 73.7522 73.0439 75.3438Z" clip-rule="evenodd"/><path fill="#633001" fill-rule="evenodd" d="M74.6868 77.5351C74.5755 77.4766 74.4686 77.4149 74.3666 77.3502C73.5479 76.8314 73.0439 76.1238 73.0439 75.3438C73.0439 73.7522 75.1425 72.4619 77.7313 72.4619C80.32 72.4619 82.4186 73.7522 82.4186 75.3438C82.4186 76.9354 80.32 78.2257 77.7313 78.2257C77.1958 78.2257 76.6814 78.1705 76.2021 78.0688L75.4526 79.3671V81.7959C75.4526 82.1997 75.1252 82.5271 74.7214 82.5271C74.3175 82.5271 73.9902 82.1997 73.9902 81.7959V78.7419L74.6868 77.5351ZM73.2437 78.7548V81.7959C73.2437 82.612 73.9053 83.2736 74.7214 83.2736C75.5375 83.2736 76.199 82.612 76.199 81.7959V79.5671L76.5878 78.8937C76.957 78.9452 77.3397 78.9721 77.7313 78.9721C79.1409 78.9721 80.4528 78.6224 81.4367 78.0175C82.4083 77.4201 83.165 76.4958 83.165 75.3438C83.165 74.1917 82.4083 73.2675 81.4367 72.6701C80.4528 72.0652 79.1409 71.7154 77.7313 71.7154C76.3216 71.7154 75.0097 72.0652 74.0259 72.6701C73.0542 73.2675 72.2975 74.1917 72.2975 75.3438C72.2975 76.3549 72.8766 77.1875 73.6812 77.784L73.3489 78.3597C73.3172 78.4127 73.2919 78.47 73.2741 78.5305C73.2522 78.6043 73.2424 78.6799 73.2437 78.7548Z" clip-rule="evenodd"/><path fill="#9E7200" d="M74.5083 74.1295C74.5083 74.954 75.5587 75.6224 76.8543 75.6224C78.15 75.6224 79.2003 74.954 79.2003 74.1295C79.2003 73.305 78.15 72.6366 76.8543 72.6366C75.5587 72.6366 74.5083 73.305 74.5083 74.1295Z"/><path fill="#9E7200" d="M74.5083 73.4897H79.2002V74.1296H74.5083V73.4897Z"/><path fill="#F0B90B" d="M74.5083 73.4897C74.5083 74.3143 75.5587 74.9827 76.8543 74.9827C78.15 74.9827 79.2003 74.3143 79.2003 73.4897C79.2003 72.6652 78.15 71.9968 76.8543 71.9968C75.5587 71.9968 74.5083 72.6652 74.5083 73.4897Z"/><path fill="#9E7200" d="M75.9641 73.3098L76.6253 72.889C76.7651 72.8 76.9436 72.8 77.0833 72.889L77.7446 73.3098C77.8763 73.3936 77.8763 73.5858 77.7446 73.6696L77.0833 74.0904C76.9436 74.1793 76.7651 74.1793 76.6253 74.0904L75.9641 73.6696C75.8324 73.5858 75.8324 73.3936 75.9641 73.3098Z"/><path fill="#633001" fill-rule="evenodd" d="M74.7946 71.8043C75.3561 71.447 76.0863 71.2504 76.8542 71.2504C77.622 71.2504 78.3522 71.447 78.9138 71.8043C79.4665 72.1561 79.9466 72.7338 79.9466 73.4897V74.1296C79.9466 74.8856 79.4665 75.4633 78.9138 75.815C78.3522 76.1723 77.622 76.369 76.8542 76.369C76.0863 76.369 75.3561 76.1723 74.7946 75.815C74.2419 75.4633 73.7617 74.8856 73.7617 74.1296V73.4897C73.7617 72.7338 74.2419 72.1561 74.7946 71.8043ZM76.8542 71.9968C75.5585 71.9968 74.5082 72.6652 74.5082 73.4897V74.1296C74.5082 74.9541 75.5585 75.6225 76.8542 75.6225C78.1498 75.6225 79.2001 74.9541 79.2001 74.1296V73.4897C79.2001 72.6652 78.1498 71.9968 76.8542 71.9968Z" clip-rule="evenodd"/><defs><filter id="filter0_dii" width="43.051" height="58" x="32.045" y="19.5" color-interpolation-filters="sRGB" filterUnits="userSpaceOnUse"><feFlood flood-opacity="0" result="BackgroundImageFix"/><feColorMatrix in="SourceAlpha" type="matrix" values="0 0 0 0 0 0 0 0 0 0 0 0 0 0 0 0 0 0 127 0"/><feOffset dx=".5" dy=".5"/><feGaussianBlur stdDeviation="2.5"/><feColorMatrix type="matrix" values="0 0 0 0 0.164706 0 0 0 0 0.121569 0 0 0 0 0.129412 0 0 0 0.5 0"/><feBlend in2="BackgroundImageFix" mode="normal" result="effect1_dropShadow"/><feBlend in="SourceGraphic" in2="effect1_dropShadow" mode="normal" result="shape"/><feColorMatrix in="SourceAlpha" result="hardAlpha" type="matrix" values="0 0 0 0 0 0 0 0 0 0 0 0 0 0 0 0 0 0 127 0"/><feOffset dy="-1"/><feGaussianBlur stdDeviation="1"/><feComposite in2="hardAlpha" k2="-1" k3="1" operator="arithmetic"/><feColorMatrix type="matrix" values="0 0 0 0 0.164706 0 0 0 0 0.121569 0 0 0 0 0.129412 0 0 0 1 0"/><feBlend in2="shape" mode="normal" result="effect2_innerShadow"/><feColorMatrix in="SourceAlpha" result="hardAlpha" type="matrix" values="0 0 0 0 0 0 0 0 0 0 0 0 0 0 0 0 0 0 127 0"/><feOffset dy="-1"/><feGaussianBlur stdDeviation="2.5"/><feComposite in2="hardAlpha" k2="-1" k3="1" operator="arithmetic"/><feColorMatrix type="matrix" values="0 0 0 0 1 0 0 0 0 1 0 0 0 0 1 0 0 0 0.75 0"/><feBlend in2="effect2_innerShadow" mode="normal" result="effect3_innerShadow"/></filter><linearGradient id="paint0_linear" x1="48" x2="48" y1="0" y2="96" gradientUnits="userSpaceOnUse"><stop stop-color="#4D3936"/><stop offset=".866" stop-color="#38211D"/><stop offset="1" stop-color="#271B19"/></linearGradient><linearGradient id="paint1_linear" x1="80" x2="80" y1="64" y2="96" gradientUnits="userSpaceOnUse"><stop stop-color="#54DADE"/><stop offset=".762" stop-color="#24C7D6"/></linearGradient><linearGradient id="paint2_linear" x1="77.782" x2="77.782" y1="72.558" y2="82.451" gradientUnits="userSpaceOnUse"><stop stop-color="#9F4A08"/><stop offset=".37" stop-color="#7D3900"/><stop offset="1" stop-color="#8D4104"/></linearGradient></defs></svg>