<svg width="96" height="96" viewBox="0 0 96 96" fill="none" xmlns="http://www.w3.org/2000/svg">
<mask id="mask0" mask-type="alpha" maskUnits="userSpaceOnUse" x="0" y="0" width="96" height="96">
<path fill-rule="evenodd" clip-rule="evenodd" d="M96 0H0V96H69.7487C64.4865 92.6215 61 86.7179 61 80C61 69.5066 69.5066 61 80 61C86.7179 61 92.6215 64.4865 96 69.7487V0Z" fill="#C4C4C4"/>
</mask>
<g mask="url(#mask0)">
<path d="M48 95.0204C73.9687 95.0204 95.0204 73.9687 95.0204 48C95.0204 22.0314 73.9687 0.979614 48 0.979614C22.0314 0.979614 0.979614 22.0314 0.979614 48C0.979614 73.9687 22.0314 95.0204 48 95.0204Z" fill="#3C1A67"/>
<path d="M93.7964 55.8588C93.3277 55.8279 91.7483 55.9206 90.9332 55.9515C89.1194 56.003 87.4789 55.4779 85.869 54.9322C84.2693 54.3968 83.5356 54.1806 82.2823 53.7173C81.5793 54.057 81.7729 54.0364 81.3551 54.0776C80.1731 54.1291 78.4206 54.0055 77.5443 53.8511C75.8325 53.4702 74.5588 53.1201 72.8673 52.4405C69.8309 51.7095 70.2589 51.5551 67.7828 51.6066C65.1947 51.6581 64.8687 51.7301 61.8934 50.6696C60.9967 50.3505 60.0593 50.1342 59.1422 49.8665C57.5832 49.4135 57.0228 49.4753 55.6269 49.5474C54.6793 49.5886 53.752 49.6194 52.8146 49.4856C51.5817 49.1458 50.145 48.5178 49.1464 47.7044C47.2818 45.8717 46.4462 44.42 44.9688 44.0493C44.2249 43.864 43.4607 43.8022 42.7067 43.7095C42.2584 43.6478 41.81 43.6272 41.3617 43.5963C41.2089 43.2462 40.9541 42.927 40.5873 42.6593C39.2525 41.7018 38.8653 41.4032 38.2336 40.4869C37.663 39.6426 38.1724 40.4766 35.89 37.2745C35.1767 36.8627 33.5362 35.7713 32.4256 35.2668C31.3251 34.7623 30.1228 33.9386 29.1956 33.5062C28.625 33.2488 28.1461 33.0635 27.5449 32.7752C24.3658 31.3028 24.0601 30.2424 21.8388 28.9656C21.9815 29.223 22.277 29.7378 22.277 29.7378C23.4182 31.6014 23.7748 31.6735 24.753 32.9914C25.6497 34.3402 25.8025 34.5564 27.6162 36.5538C28.2581 37.2642 29.0325 37.8408 29.7764 38.4277C30.082 38.6748 31.101 39.447 31.2946 39.5911C31.7837 40.1265 31.7429 40.2192 32.66 41.1561C32.5988 41.1355 32.5377 41.1252 32.4969 41.1046C31.1417 40.7443 30.6017 40.6104 29.8375 40.1059C29.6031 39.9 29.379 39.6838 29.1344 39.447C27.9117 38.3247 27.7996 38.4689 25.0689 37.3981C23.7137 36.7494 23.3672 36.4303 22.98 36.0905C20.9523 34.3505 20.9116 34.649 20.1779 33.7739C19.536 32.7958 19.1998 32.2604 17.4981 31.3646C15.7761 30.4586 15.4093 30.4277 14.4617 29.2436C12.4442 26.4534 13.0352 27.2565 11.6392 25.5062C11.0482 24.7237 10.9362 24.4663 10.7935 24.1574C10.6508 23.8794 10.5184 23.5808 10.2942 23.3131C9.97835 22.9528 9.57077 22.7057 9.12244 22.5306C5.77013 27.8228 3.42656 33.8768 2.38724 40.4457C2.39743 40.456 2.39743 40.456 2.40762 40.456C2.75406 40.6825 3.70168 41.012 4.10925 41.1458C6.04524 41.7739 7.21702 41.9489 8.26653 42.0828C8.04236 42.0622 7.86914 42.0519 7.76725 42.0519C4.6391 42.1239 5.05687 42.2166 3.06993 41.7121C2.8152 41.6503 2.51971 41.5989 2.22421 41.5577C2.11213 42.3505 2.02043 43.1433 1.95929 43.9463C3.40618 44.2449 3.63035 44.6362 6.2796 44.6568C8.13407 44.6671 8.17482 44.6156 10.3248 44.9142C11.0992 45.0377 11.8736 45.1613 12.6072 45.4084C12.7193 45.4599 12.8212 45.5319 12.9231 45.5937C14.1662 46.6336 14.2273 46.788 14.7572 47.2822C16.6015 49.0429 19.1488 48.9502 21.7267 49.8974C24.7428 51.0197 23.9684 50.7108 26.0063 51.8537C30.6628 54.4895 31.478 54.3144 33.2611 55.0145C36.7765 56.4045 39.7008 56.6825 42.5131 57.5577C43.3588 57.8151 44.2147 58.0107 45.0503 58.3196C45.6514 58.5873 46.2322 58.8756 46.8334 59.1227C48.8407 59.9258 50.5933 59.7713 52.1625 59.9258C52.998 60.1008 54.6691 60.595 55.2295 60.8112C55.8103 61.0995 58.164 62.4792 58.7754 62.8189C62.841 65.0429 63.0549 65.0635 64.9909 65.3826C66.1831 65.568 66.499 65.743 67.1103 65.9695C69.4437 66.8447 70.8702 66.8859 72.8062 68.2243C73.601 68.9451 73.5296 69.0686 74.1818 69.985C75.7306 72.1265 76.8208 73.0223 77.962 74.1548C78.5123 74.6902 79.1542 75.133 79.7961 75.5551C80.4686 75.9875 81.1921 76.3067 81.9359 76.6156C82.3639 76.7906 82.7918 76.8936 83.2402 77.0068C83.4541 77.0583 83.6579 77.151 83.8617 77.2231C84.0655 77.2848 84.2183 77.3466 84.3304 77.3878C85.1252 76.3994 85.8996 75.3698 86.623 74.2887C86.5211 74.1754 86.4294 74.0622 86.3275 73.9489C85.6856 73.1046 85.2373 72.559 84.2693 72.0442C84.0044 71.9 84.0859 71.9309 83.9432 71.9C85.3901 72.2604 87.1019 72.2707 87.0102 72.2604C87.3872 72.2707 87.6725 72.2913 87.8865 72.3016C90.1689 68.5435 91.8706 64.5589 93.0118 60.4714C92.38 60.039 91.891 59.761 90.9433 59.5036C90.4441 59.3698 89.8531 59.3183 89.4149 59.2565C88.0597 59.0506 87.051 58.9888 86.9797 58.9888C84.3406 58.8035 85.1354 58.649 82.0786 57.3826C81.885 57.3106 81.7016 57.2282 81.5283 57.1561C82.6797 57.0841 82.7307 56.9296 83.7394 56.5075C84.9316 56.178 84.3304 56.4354 88.345 57.1973C89.2927 57.4032 90.2199 57.6812 91.1777 57.8048C92.3291 57.9489 92.4412 57.8768 92.8182 57.918C92.9812 57.9592 93.1443 58.0004 93.3175 58.0107C93.4296 58.0107 93.5314 58.0004 93.6333 57.9901C93.7862 57.3003 93.9288 56.6001 94.0409 55.9C93.9085 55.9 93.7964 55.8588 93.7964 55.8588ZM38.2336 44.3582C37.3165 43.6066 36.4198 42.9065 35.727 42.4225C36.2772 42.7829 37.021 43.3492 38.2336 44.3582ZM45.4477 49.2797C45.2031 49.1767 44.9586 49.0841 44.7242 48.9811C44.4287 48.8575 44.1434 48.7237 43.8581 48.5795C43.6747 48.4869 43.4811 48.3839 43.3079 48.281C43.1245 48.178 42.9309 48.0647 42.7475 47.9412C42.5335 47.8073 42.3195 47.6632 42.0953 47.5088C41.9833 47.4367 41.8712 47.344 41.7489 47.2617C41.4127 47.0146 41.0662 46.7366 40.6994 46.4277C40.6688 46.3968 40.6281 46.3762 40.5975 46.335C42.1055 46.716 42.0444 46.7778 42.9105 47.0043C42.9411 47.0146 43.8275 47.2411 43.8989 47.3028C44.2351 47.6735 45.5394 49.29 45.5699 49.3312C45.519 49.3106 45.4884 49.3003 45.4477 49.2797ZM57.8482 52.1523C57.5119 52.0699 57.2368 51.9978 57.0126 51.936C57.6851 52.0905 58.2252 52.2346 58.6633 52.3685C58.429 52.2964 58.1538 52.2243 57.8482 52.1523ZM67.9255 65.2488C68.221 65.3414 68.5165 65.4341 68.8425 65.5474C68.5165 65.4444 68.2108 65.3517 67.9255 65.2488ZM72.8572 56.7958C71.237 56.8884 69.3112 56.3633 67.3243 55.8588C67.1409 55.8074 66.9575 55.7559 66.7741 55.7147C69.8411 55.3646 68.8323 55.0043 71.2778 55.4161C72.0216 55.6014 73.2851 56.0442 74.7422 56.3736C74.7931 56.3633 74.8441 56.353 74.8848 56.3427C74.304 56.4663 73.7029 56.631 72.8572 56.7958ZM77.3405 56.2295C77.4118 56.2398 77.4831 56.2398 77.5545 56.2501C77.585 56.2604 77.6258 56.2604 77.6564 56.2604C77.5545 56.2501 77.4424 56.2501 77.3405 56.2295Z" fill="#AC7BC8"/>
<path d="M79.1123 79.9776C78.6146 79.8448 77.863 79.7018 77.863 79.7018C75.5167 79.2115 75.9433 79.0481 72.1141 78.4965C70.7937 78.3024 69.7983 78.1492 69.0263 78.0266C68.4068 77.2401 67.8888 76.8622 67.0965 76.2493C66.8121 76.0348 66.4871 75.8714 66.1824 75.6875C65.5933 75.33 65.0346 74.9112 64.3947 74.6355C63.7244 74.3188 63.0134 74.1452 62.3227 73.8898C61.3375 73.4097 60.9109 73.0318 60.4741 72.5415C58.6661 70.0288 59.499 70.6212 57.8536 68.6192C56.2691 66.6989 54.0447 65.5038 51.8508 64.4722C49.7381 63.4711 48.3364 62.8072 44.2228 62.3884C42.293 62.1943 41.6835 62.6029 39.9264 62.9196C39.4795 62.94 39.4693 62.9196 39.256 62.8481C38.1184 62.2761 37.9153 61.8777 35.9245 61.1729C34.1775 60.5498 33.5782 60.4885 32.0851 60.3047C30.2975 60.0698 28.3169 59.7531 26.6613 59.9268C26.0518 59.988 25.351 60.1004 24.6908 60.0698C23.929 59.9165 22.2023 59.4467 21.0241 58.9973C19.9982 58.5274 19.531 58.221 18.688 57.986C18.2411 57.8635 17.7434 57.843 17.2761 57.8022C15.1432 57.6592 11.903 58.793 10.3389 59.222C9.42473 58.4967 9.29269 58.4457 7.96211 57.271C7.48473 56.8624 7.18002 56.5867 6.37761 56.0759C5.72756 55.6674 4.52903 55.1056 3.59458 54.9421C3.11719 54.8604 2.53824 54.84 1.95929 54.8706C2.63981 59.6714 4.07196 64.4313 6.33698 69.0584C6.38777 69.1503 6.43855 69.2423 6.47918 69.3342C6.48934 69.3444 6.50965 69.3444 6.50965 69.3444C7.36284 69.4772 7.7285 69.5691 8.22619 69.7938C8.35824 69.896 8.48012 69.9879 8.58169 70.0901C8.72389 70.2433 8.85593 70.4169 8.99813 70.6212C8.82546 70.6723 8.49028 70.7846 8.49028 70.7846C8.13478 70.897 7.76913 70.9787 7.41363 71.0502C7.57614 71.3464 7.74881 71.6324 7.92148 71.9184C8.52075 71.8367 9.05907 71.7652 9.65834 71.7754C9.77007 71.9491 9.90211 72.1023 10.1865 72.3576C10.7248 72.8479 11.6593 73.328 12.3093 73.6447C12.868 73.9205 12.8883 73.9613 14.1274 74.3699C15.6713 74.8908 16.2096 75.2381 17.2863 75.5037C18.2106 75.7284 18.9419 75.9735 21.8874 75.9327C29.3326 75.8305 29.1091 75.5956 31.1304 76.8111C34.8478 79.0481 34.147 78.4352 39.2966 79.8448C39.9568 80.0286 41.0538 80.3555 42.0695 80.57C43.2477 80.8151 44.2228 80.8969 45.1674 80.999C45.2893 81.0705 45.5229 81.2033 45.5229 81.2033C47.0465 81.9796 47.8997 82.1532 49.342 82.0817C49.535 82.1737 49.7178 82.2656 49.9209 82.3677C50.2561 82.572 50.9671 83.0725 50.9773 83.0725C52.7649 84.2676 53.5368 84.2063 55.1924 84.8907C56.7871 85.5546 57.559 86.5761 61.2968 87.1276C60.4436 87.0153 59.56 86.8825 58.4528 86.4739C58.5036 86.6884 58.6052 87.1276 58.6052 87.1276C58.7474 87.6486 59.2045 88.8743 59.5701 89.4872C60.3928 90.815 61.7031 91.7139 62.668 91.959C63.1556 92.0714 63.3993 92.051 63.6533 92.0305C63.6634 92.051 63.6837 92.0612 63.6837 92.0816H63.6939C64.6385 91.7445 65.5729 91.3666 66.4972 90.958C66.416 90.7742 66.2839 90.6209 66.1519 90.4677C66.1214 90.4167 66.0808 90.3452 66.03 90.2839C65.9589 90.1613 65.8675 90.0694 65.7761 89.9774C65.7761 89.9672 65.7761 89.9672 65.7659 89.957C65.7558 89.8957 65.7456 89.8344 65.7355 89.7731C65.6644 89.1399 65.5933 88.6394 65.2174 88.1082C65.6034 88.2819 66.0097 88.4759 66.4566 88.7313C66.4871 88.7415 67.7466 89.4872 68.5997 89.9468C73.2415 87.6179 77.5481 84.4617 81.3062 80.4883C80.9812 80.3759 80.4226 80.3146 79.1123 79.9776ZM7.35269 58.5172C7.3019 58.4457 7.25112 58.3537 7.21049 58.272C7.55583 58.6193 7.84023 58.8849 8.02305 59.0483C7.88085 58.936 7.6574 58.7623 7.35269 58.5172ZM11.5374 61.6938C11.5272 61.6836 11.5171 61.6734 11.5069 61.6632C11.5374 61.6734 11.578 61.6938 11.6491 61.7245C11.5476 61.7143 11.578 61.7245 11.5374 61.6938ZM15.9252 61.1014C16.4026 61.1525 17.0019 61.2444 17.6621 61.3363C17.0019 61.2648 16.5855 61.1933 15.9252 61.1014ZM24.64 63.0013C24.8736 63.1239 25.1174 63.2669 25.3916 63.4405C25.1174 63.2873 24.8635 63.1341 24.64 63.0013ZM53.222 72.5415C51.3531 71.0298 49.8194 70.2739 47.8489 69.5283C46.8027 69.1299 45.7768 68.8745 44.8119 68.7826C39.3271 68.2923 37.0215 69.1503 33.2024 68.2719C30.4397 67.3832 29.2919 66.0962 28.2965 65.3506C28.1543 65.2382 27.9715 65.1157 27.7684 64.9727C27.8192 65.0033 27.8598 65.0339 27.9106 65.0646C29.0888 65.0952 30.2772 65.2893 31.8007 65.4936C32.8266 65.657 33.822 65.9532 34.7971 66.321C35.9956 66.9338 37.2754 68.1595 39.6623 68.2004C40.2108 68.2106 41.5921 67.9655 41.8867 67.894C42.3539 67.7816 42.8008 67.6182 43.268 67.516C43.9892 67.4854 44.7307 67.5467 45.4518 67.6386C47.534 67.9757 48.3872 68.3025 49.4029 68.7315C55.0705 71.1626 54.3189 72.0614 56.198 74.4822C55.1518 73.9613 54.3494 73.4506 53.222 72.5415ZM63.379 87.4647C63.1352 87.4034 62.8915 87.3523 62.6579 87.3115C62.9016 87.3523 63.1251 87.3932 63.379 87.4647C63.4501 87.4749 63.5212 87.4953 63.5923 87.5158C63.6228 87.526 63.6431 87.5362 63.6736 87.5464C63.572 87.5158 63.4704 87.4953 63.379 87.4647ZM65.6237 77.3729C65.8066 77.4138 65.9691 77.4444 66.1316 77.4955C65.9589 77.4546 65.7964 77.4138 65.6237 77.3729Z" fill="#AC7BC8"/>
<path d="M53.8777 93.7997C52.982 93.9154 52.066 93.9926 51.1601 94.0408C50.8242 93.7804 50.5392 93.4524 49.8878 92.9702C49.8776 92.9605 49.8573 92.9412 49.8369 92.9316C49.8268 92.9316 49.8268 92.9219 49.8166 92.9219C49.6435 92.7965 49.2975 92.5651 49.0125 92.4204C48.2695 92.0442 47.6588 91.8031 47.0583 91.4269C46.7224 91.2147 46.417 90.9735 46.0506 90.7999C43.3534 89.7389 44.2084 89.9704 41.7758 89.1023C40.188 88.5333 40.534 88.7262 39.2719 88.7069C38.2032 88.6876 37.1447 88.4464 36.2083 87.9738C35.679 87.7037 35.2312 87.3372 34.7019 87.0768C33.3177 86.4016 29.908 85.5528 28.7273 85.3599C26.5797 85.1188 25.3379 85.0512 23.7807 83.6334C23.628 83.6044 22.2947 83.5369 21.6534 83.479C20.7577 83.3922 19.8621 83.2186 18.9664 83.0546C17.4804 82.7749 16.8086 82.447 16.2488 82.0997C16.2386 82.0997 16.2284 82.0901 16.2183 82.0804C15.3633 81.3184 14.5185 80.5082 13.7144 79.6691C14.0401 79.563 14.376 79.4762 14.7119 79.4183C14.6813 79.4279 15.0987 79.3315 15.689 79.4376C16.3302 79.563 16.9511 79.7655 17.5923 79.8909C18.0605 79.9199 18.5287 79.9006 18.9969 79.862C20.0351 79.7173 20.0758 79.698 21.3888 79.6305C23.7196 79.4955 23.343 79.4472 24.2998 79.3604C25.1446 79.2833 26.1013 79.5437 26.7018 79.9681C26.885 80.0935 27.0581 80.1996 27.2413 80.3057C27.4347 80.3539 27.6382 80.4021 27.8418 80.4407C28.768 80.5372 29.6942 80.5854 30.6306 80.7397C31.5772 80.9037 32.5034 81.1738 33.4398 81.4053C34.6103 81.6946 34.9564 81.8393 36.1472 82.3119C36.707 82.5338 37.2872 82.7363 37.8063 83.045C39.0785 83.807 38.6307 83.7395 40.0048 83.7105C41.5926 83.6912 42.4984 84.0288 44.0964 84.6268C45.043 84.9837 45.9997 85.3213 46.8547 85.8518C49.1855 87.2793 48.7071 87.6555 50.1117 88.7937C51.1194 89.4592 51.7199 89.7389 52.5036 90.6552C52.8599 91.0796 53.2059 91.4269 53.4298 92.266C53.5113 92.5843 53.6029 93.028 53.5723 93.356C53.6639 93.5103 53.7759 93.655 53.8777 93.7997Z" fill="#AC7BC8"/>
<path d="M90.8018 30.3824C90.7307 30.3312 90.6799 30.3005 90.6799 30.3005C89.6544 29.6755 88.8319 29.4604 87.2681 29.0916C86.1816 28.8354 85.1865 28.6305 83.7954 28.6613C82.3433 28.7023 81.7341 28.9072 80.8405 29.0608C80.2008 29.0813 78.8808 29.0096 78.241 28.9277C77.5607 28.7637 76.9718 28.5179 75.3166 27.8212C73.6209 27.0119 71.3362 25.5673 70.1685 24.6965C69.5389 24.2252 69.4881 24.1843 68.7266 23.8564C68.2087 23.6413 68.3915 23.6925 67.3761 23.3442C67.9041 23.4876 68.4626 23.5798 69.1226 23.6823C69.3764 23.754 70.5442 24.1433 71.8338 24.3175C72.6664 24.4404 72.2602 24.3072 73.8544 24.6145C73.9255 24.635 73.9966 24.6555 74.0778 24.6863C75.3166 25.4239 75.3166 26.0386 77.1952 26.141C78.2207 26.1923 79.4494 25.6698 80.9116 25.8439C81.1959 25.9259 81.4599 26.0283 81.7341 26.141C83.7446 27.1758 84.9834 27.1963 86.5878 26.5918C87.5829 26.2537 87.3697 26.2742 87.8367 26.1001C88.1312 26.0079 88.4358 25.9566 88.71 25.8337C88.5069 25.4239 88.2734 25.0141 88.0398 24.6145C87.8571 24.6965 87.6438 24.7272 87.4306 24.6965C87.3493 24.6863 87.1564 24.6453 87.0041 24.6453C86.009 24.8399 86.0699 25.0243 85.1053 25.0243C83.9375 25.0346 83.7243 24.9936 82.3636 24.7273C81.0436 24.5941 80.0282 25.0448 76.8804 24.0921C75.2963 23.6106 73.0421 22.4222 71.5799 21.664C70.6863 21.1928 70.5137 21.1825 68.3102 19.8302C67.1425 19.1131 67.5385 19.2053 64.9898 17.8324C63.355 16.9514 63.355 16.9514 61.6491 15.7015C59.8417 14.3594 59.801 14.2365 58.6942 12.5768C58.1053 11.8597 57.4047 11.2757 56.7142 10.6508C52.1651 6.5221 53.3836 7.62854 52.0128 6.12255C51.8503 5.94838 51.6878 5.78446 51.5457 5.58981C50.4389 4.09406 51.3629 4.93414 49.8398 3.3974C49.2407 2.79296 48.5604 2.10655 47.3419 1.51235C46.7326 1.24598 46.3569 1.08206 46.0929 0.979614H46.0827C45.4735 1.0001 44.8845 1.03084 44.2753 1.08206C44.7627 1.56357 45.3009 1.90165 45.5852 2.13728C46.5498 3.0081 46.5904 2.87492 47.4535 3.23349C47.5348 3.28471 47.616 3.33593 47.6871 3.3974C48.0425 3.72524 48.7939 4.49361 49.0376 4.80095C49.2001 5.52834 49.0274 5.69226 49.5352 6.82944C49.8499 7.53633 50.0429 7.78221 50.6217 8.4174C51.6168 9.48286 52.1854 9.67752 53.0587 10.0873C53.2617 10.9479 53.3125 12.4436 54.5006 14.0726C54.8458 14.5541 55.2723 14.9229 55.7191 15.302C56.8259 16.2855 57.5164 17.0129 59.3035 17.648C60.39 18.0373 61.4359 18.0681 62.0857 18.1398C62.6341 19.8712 63.2433 20.1785 65.1218 22.0533C65.6499 22.5861 66.1677 22.9139 66.7262 23.129C65.4468 22.6885 65.8022 22.75 63.4058 21.6435C61.5882 20.8035 61.0297 20.3015 60.1869 19.4102C59.009 18.15 58.1459 17.7812 55.9323 16.3162C54.3482 15.261 53.7187 14.9229 52.9165 14.3184C52.0534 13.5296 51.9112 13.0686 50.6521 11.706C49.5047 10.4664 49.4539 10.3639 49.0884 9.82094C47.9714 8.16127 47.6465 7.87442 46.8748 7.22899C44.7424 5.44638 44.2651 5.03659 43.798 4.55508C43.463 4.19651 43.1989 3.78671 42.8436 3.45888C42.4374 3.07982 42.0109 2.75198 41.6555 2.31145C41.4321 1.97337 41.2595 1.73773 40.9955 1.45088C36.2839 2.13728 31.7653 3.57157 27.5818 5.63079C27.5818 5.64104 27.5717 5.64103 27.5717 5.65128C27.4295 6.12254 27.3889 6.54258 27.4701 7.03434C27.592 7.64903 28.0387 8.06907 28.4348 8.5096C28.2317 11.2142 27.7544 11.0811 28.0591 13.1505C28.3738 15.3327 28.6582 15.6196 29.1862 16.3879C29.4096 16.7055 29.7548 16.9616 30.0594 17.2075C30.4554 17.5456 31.5013 18.0271 31.8669 18.191C32.3543 18.3959 32.862 18.5701 33.3494 18.775C33.5626 18.8979 34.4562 19.3999 34.6897 19.5331C34.8116 19.779 34.9233 20.0453 35.0248 20.3117C35.1873 20.8752 35.6239 23.17 35.6645 23.4159C35.7661 24.0408 35.9082 25.639 36.7307 27.1553C37.2689 28.1695 38.1015 28.9174 39.0763 29.5014C39.8785 29.9829 40.7619 30.3107 41.6149 30.7C42.0515 30.9459 43.727 32.0011 44.1128 32.2777C44.4885 33.0154 45.0572 34.7467 45.4633 35.6073C45.6867 36.0991 46.032 36.5294 46.3366 36.9699C46.6311 37.3797 47.0372 37.7075 47.4231 38.0353C47.6871 38.2505 47.941 38.4349 48.2354 38.5988C49.5047 39.2647 49.6164 39.1725 51.0075 39.5516C51.6066 39.7155 52.2057 39.9102 52.815 40.0638C53.4039 40.2175 54.003 40.3097 54.5716 40.5453C55.384 40.8629 56.1862 41.2727 56.2877 41.3137C57.8616 41.6313 58.0038 42.0411 60.7251 43.0348C61.903 43.25 62.2279 43.1578 63.0301 43.1066C63.6698 43.0553 64.4517 42.7582 65.1117 42.6251C65.3554 42.6455 65.8936 42.8709 66.1169 42.9631C66.3099 43.0861 66.4926 43.2192 66.6754 43.3627C68.2392 44.7765 68.3407 44.674 69.3663 45.5551C71.4073 45.801 72.4633 45.5653 73.7021 45.7497C74.7074 45.8932 76.3727 46.303 79.9165 46.7128C80.9116 46.8357 80.3734 46.8152 81.3279 46.6615C81.5107 46.6718 81.6833 46.6718 81.8661 46.6923C82.1504 46.7742 82.4347 46.8767 82.7089 46.9894C83.4704 47.0303 83.6837 47.0406 84.7905 46.9586C87.0346 46.7845 86.7909 46.9894 88.7202 46.5488C89.7864 46.303 90.7205 46.0776 91.7969 46.2312C92.2234 46.2825 92.6194 46.4054 93.0357 46.4771C93.0966 46.4874 93.1169 46.4874 93.1372 46.4874C93.3911 46.4976 93.6754 46.4976 93.9902 46.4669C94.0003 46.4669 94.0206 46.4566 94.041 46.4566C93.9394 40.9961 92.8428 35.5561 90.8018 30.3824ZM29.836 6.56307C29.8157 6.55283 29.7853 6.53234 29.765 6.51185C29.7446 6.49136 29.7345 6.47087 29.7142 6.45038C29.6939 6.44014 29.6837 6.41965 29.6634 6.39916C29.6634 6.38891 29.6634 6.38891 29.6634 6.38891C29.6837 6.4094 29.6939 6.42989 29.7142 6.45038C29.7548 6.49136 29.7853 6.52209 29.836 6.56307C29.8665 6.58356 29.897 6.60405 29.9376 6.63479C29.968 6.65528 29.9883 6.68602 30.0188 6.7065C29.9579 6.66553 29.897 6.62454 29.836 6.56307ZM30.8413 7.54658C30.8921 7.64903 30.9428 7.77197 30.9835 7.9154C30.9327 7.76173 30.8921 7.64903 30.8413 7.54658ZM32.6487 13.5911C32.5574 13.5398 32.4761 13.4886 32.3847 13.4169C32.5066 13.4989 32.6386 13.5808 32.7808 13.6423C32.7401 13.6218 32.6995 13.6115 32.6487 13.5911ZM42.082 25.1575C42.0312 25.137 41.9601 25.0961 41.8891 25.0551C42.0515 25.137 42.2445 25.2292 42.4577 25.3317C42.3358 25.2805 42.214 25.219 42.082 25.1575ZM46.1335 27.309C46.4381 27.4831 46.6717 27.6266 46.9255 27.8007C46.9661 27.8315 47.0068 27.8622 47.0474 27.9032C46.7529 27.6778 46.4483 27.4831 46.1335 27.309ZM49.0985 30.5259C49.2204 30.7922 49.3219 31.0791 49.4438 31.4069C49.3321 31.1098 49.2204 30.8127 49.0985 30.5259ZM51.0177 34.0911C51.2208 34.1628 51.4441 34.2345 51.6472 34.296C51.3629 34.2242 51.17 34.1628 51.0177 34.0911ZM55.6175 35.3307C55.8308 35.3717 56.0338 35.4332 56.2877 35.5356C56.0846 35.4639 55.8612 35.4024 55.6175 35.3307ZM64.5024 37.4002C64.5126 37.4002 64.5227 37.3899 64.5329 37.3899H64.5938C64.5634 37.3899 64.543 37.3899 64.5024 37.4002ZM70.5746 39.7975C70.5645 39.7872 70.5442 39.7667 70.5137 39.736C70.6356 39.8385 70.7574 39.9409 70.9097 40.0536C70.7879 39.9614 70.666 39.8692 70.5746 39.7975ZM75.4283 42.0001C75.3369 42.0001 74.8495 41.9796 74.8495 41.9796C73.7834 41.9489 73.4178 41.9079 73.3061 41.8772C73.8747 41.9284 75.6111 42.0206 76.9515 42.0206C76.5453 42.0206 76.0477 42.0206 75.4283 42.0001ZM81.0436 41.4162C81.3482 41.3957 81.6427 41.3854 81.8965 41.3957C81.6224 41.3957 81.3178 41.3957 81.0436 41.4162ZM86.6792 42.8709C86.6792 42.8607 86.6893 42.8607 86.7096 42.8607C86.6995 42.8709 86.6893 42.8709 86.6792 42.8709ZM87.7961 42.3792C87.8469 42.3484 87.8875 42.3382 87.9281 42.3177C87.9891 42.2972 88.05 42.2767 88.1008 42.2562C87.9992 42.2972 87.8875 42.3382 87.7961 42.3792Z" fill="#AC7BC8"/>
<path d="M83.2654 17.6326C83.0472 17.6014 82.8082 17.5702 82.5173 17.5077C80.2105 16.9874 79.7222 15.8634 78.413 15.1349C76.4179 14.0109 75.7529 13.8964 73.6436 12.9597C72.8435 12.5018 72.8228 12.2729 71.8149 11.3882C71.1291 10.7742 70.3913 10.233 69.7055 9.62938C69.425 9.40042 69.1444 9.19227 68.8327 8.99453C68.5106 8.78639 68.1989 8.55742 67.8456 8.3805C65.4558 7.17325 65.861 7.87054 64.2712 7.13162C63.3257 6.63206 63.3984 6.47595 62.671 5.93477C62.4425 5.76825 62.2866 5.71622 61.9021 5.42481C61.2163 4.76915 61.1228 4.66508 60.1773 3.99901C59.2421 3.33294 58.9927 3.34334 58.6602 3.2809C56.1872 2.79175 55.595 2.47954 54.8572 1.95917C65.6324 3.61394 75.7945 9.09861 83.2654 17.6326Z" fill="#AC7BC8"/>
<path opacity="0.49" d="M90.1069 27.4971C85.4639 18.3295 78.1899 11.2719 69.6778 6.85712C72.7834 10.1247 75.4763 13.8942 77.6121 18.1041C85.0512 33.0489 84.0916 50.8106 74.4549 65.0691C60.4228 85.4838 34.1332 90.9332 13.7144 80.3417C34.3808 102.006 69.8119 99.394 86.9497 74.4621C96.5864 60.2138 97.5356 42.4419 90.1069 27.4971Z" fill="#3C1A67"/>
<path fill-rule="evenodd" clip-rule="evenodd" d="M51.1986 2.90169C26.6932 1.09853 4.7531 19.5888 2.88667 44.7955C2.36174 52.6503 3.76937 60.5944 7.49533 68.1463C9.06495 71.2642 10.8769 73.891 12.204 75.6333C12.8668 76.5033 13.404 77.1467 13.7224 77.5137C13.7746 77.5738 13.8197 77.6251 13.8576 77.6678C13.8966 77.7026 13.9341 77.74 13.9698 77.7799C13.987 77.7992 14.0075 77.8221 14.0288 77.8465C33.7199 100.067 68.6985 97.8899 85.4614 73.3199C94.7198 59.5204 95.641 42.3414 88.4953 27.8798C81.0253 13.0355 66.5093 3.92226 51.2081 2.90236L51.1986 2.90169ZM12.0569 79.8133C12.0491 79.8059 12.0444 79.8011 12.0433 79.8001C12.0346 79.7916 12.0264 79.7834 12.019 79.7759C12.0128 79.7696 12.0072 79.7638 12.0023 79.7587C11.9282 79.6821 11.7947 79.5346 11.6221 79.3357C11.2665 78.926 10.6919 78.2368 9.99187 77.3178C8.59417 75.4829 6.67781 72.7072 5.00898 69.3912L5.00414 69.3815C1.04902 61.3675 -0.444616 52.9288 0.112503 44.605L0.113185 44.5953C2.0909 17.8483 25.3702 -1.78391 51.3978 0.128623C67.666 1.21466 83.0638 10.8967 90.9815 26.6347L90.9859 26.6435C98.5707 41.9892 97.5917 60.2344 87.7674 74.8736L87.7615 74.8823C70.0089 100.909 32.9692 103.259 12.0569 79.8133Z" fill="#112037"/>
</g>
<circle cx="80" cy="80" r="16" fill="url(#paint0_linear)"/>
<path fill-rule="evenodd" clip-rule="evenodd" d="M69.6072 81.758C69.6045 81.8177 69.6031 81.8777 69.6031 81.9379C69.6031 82.1653 69.6229 82.3899 69.6615 82.6111H69.6031V82.9593C69.6031 83.1292 69.6141 83.2976 69.6359 83.4642C70.0595 86.7145 74.5379 89.2719 80 89.2719C85.4621 89.2719 89.9405 86.7145 90.3641 83.4642C90.3859 83.2976 90.3969 83.1292 90.3969 82.9593V82.6111H90.3385C90.3771 82.3899 90.3969 82.1653 90.3969 81.9379C90.3969 81.8777 90.3955 81.8177 90.3928 81.758C90.2359 78.3548 85.643 75.6252 80 75.6252C74.357 75.6252 69.7641 78.3548 69.6072 81.758ZM68.7533 81.758C68.8307 79.6815 70.2417 77.9373 72.2055 76.7449C74.2413 75.5089 76.9992 74.7721 80 74.7721C83.0008 74.7721 85.7587 75.5089 87.7945 76.7449C89.7583 77.9373 91.1693 79.6815 91.2467 81.758H91.25V82.9593C91.25 85.1148 89.8148 86.9255 87.7945 88.1522C85.7587 89.3883 83.0008 90.125 80 90.125C76.9992 90.125 74.2413 89.3883 72.2055 88.1522C70.1852 86.9255 68.75 85.1148 68.75 82.9593V81.758H68.7533Z" fill="#606063"/>
<path d="M90.3969 82.9594C90.3969 86.4458 85.7421 89.2721 80 89.2721C74.2579 89.2721 69.6031 86.4458 69.6031 82.9594V81.9601H90.3969V82.9594Z" fill="#BEBEBE"/>
<path d="M90.3969 81.9379C90.3969 85.4242 85.7421 88.2505 80 88.2505C74.2579 88.2505 69.6031 85.4242 69.6031 81.9379C69.6031 78.4515 74.2579 75.6252 80 75.6252C85.7421 75.6252 90.3969 78.4515 90.3969 81.9379Z" fill="#FAF9FA"/>
<path fill-rule="evenodd" clip-rule="evenodd" d="M71.2027 80.1545C71.2027 80.1585 71.2027 80.1624 71.2027 80.1664C71.2027 80.4534 71.2443 80.7346 71.3241 81.0076H71.2026V81.3773C71.2026 81.5405 71.2161 81.7017 71.2423 81.8607C71.6387 84.261 74.9548 86.1345 78.9869 86.1345C83.0191 86.1345 86.3352 84.261 86.7316 81.8607C86.7578 81.7017 86.7713 81.5405 86.7713 81.3773V81.0076H86.65C86.7276 80.742 86.7691 80.4688 86.7713 80.1898C86.7713 80.182 86.7713 80.1742 86.7713 80.1664C86.7713 80.1624 86.7713 80.1585 86.7713 80.1545C86.7609 77.5326 83.2797 75.4092 78.987 75.4092C74.6943 75.4092 71.2132 77.5326 71.2027 80.1545ZM70.3497 80.1545H70.3495V81.3773C70.3495 83.1006 71.4891 84.5226 73.0378 85.4691C74.6011 86.4244 76.7066 86.9876 78.9869 86.9876C81.2673 86.9876 83.3728 86.4244 84.9361 85.4691C86.4848 84.5226 87.6243 83.1006 87.6243 81.3773V80.193C87.6244 80.1841 87.6244 80.1752 87.6244 80.1664C87.6244 78.4431 86.4849 77.021 84.9362 76.0746C83.3729 75.1192 81.2674 74.5561 78.987 74.5561C76.7066 74.5561 74.6012 75.1192 73.0379 76.0746C71.4927 77.0189 70.3549 78.4365 70.3497 80.1545Z" fill="#633001"/>
<path d="M86.7713 81.3773C86.7713 84.0046 83.2861 86.1345 78.987 86.1345C74.6878 86.1345 71.2026 84.0046 71.2026 81.3773V80.2612H86.7713V81.3773Z" fill="#FEDC90"/>
<path d="M86.7713 80.1664C86.7713 82.7937 83.2861 84.9235 78.987 84.9235C74.6878 84.9235 71.2026 82.7937 71.2026 80.1664C71.2026 77.539 74.6878 75.4092 78.987 75.4092C83.2861 75.4092 86.7713 77.539 86.7713 80.1664Z" fill="#D1884F"/>
<path fill-rule="evenodd" clip-rule="evenodd" d="M73.5487 77.5952C73.5487 77.5991 73.5487 77.6031 73.5487 77.607C73.5487 77.8941 73.5903 78.1752 73.67 78.4483H73.5486V78.818C73.5486 78.9812 73.562 79.1424 73.5883 79.3014C73.9846 81.7016 77.3008 83.5751 81.3329 83.5751C85.365 83.5751 88.6811 81.7016 89.0775 79.3014C89.1038 79.1424 89.1172 78.9812 89.1172 78.818V78.4483H88.996C89.0735 78.1827 89.115 77.9094 89.1172 77.6305C89.1173 77.6227 89.1173 77.6149 89.1173 77.607C89.1173 77.6031 89.1173 77.5991 89.1173 77.5952C89.1068 74.9733 85.6257 72.8499 81.333 72.8499C77.0403 72.8499 73.5592 74.9733 73.5487 77.5952ZM72.6956 77.5952H72.6955V78.818C72.6955 80.5413 73.835 81.9633 75.3837 82.9097C76.947 83.8651 79.0525 84.4282 81.3329 84.4282C83.6133 84.4282 85.7188 83.8651 87.2821 82.9097C88.8307 81.9633 89.9703 80.5413 89.9703 78.818V77.6337C89.9703 77.6248 89.9704 77.6159 89.9704 77.607C89.9704 75.8837 88.8308 74.4617 87.2822 73.5153C85.7188 72.5599 83.6134 71.9968 81.333 71.9968C79.0526 71.9968 76.9471 72.5599 75.3838 73.5153C73.8387 74.4595 72.7008 75.8772 72.6956 77.5952Z" fill="#633001"/>
<path d="M89.1172 78.8181C89.1172 81.4454 85.6321 83.5752 81.3329 83.5752C77.0337 83.5752 73.5486 81.4454 73.5486 78.8181V77.7019H89.1172V78.8181Z" fill="#FEDC90"/>
<path d="M89.1172 77.6071C89.1172 80.2344 85.6321 82.3643 81.3329 82.3643C77.0337 82.3643 73.5486 80.2344 73.5486 77.6071C73.5486 74.9798 77.0337 72.8499 81.3329 72.8499C85.6321 72.8499 89.1172 74.9798 89.1172 77.6071Z" fill="#D1884F"/>
<path fill-rule="evenodd" clip-rule="evenodd" d="M71.2027 75.0359C71.2027 75.0399 71.2027 75.0438 71.2027 75.0478C71.2027 75.3348 71.2443 75.616 71.3241 75.889H71.2026V76.2587C71.2026 76.4219 71.2161 76.5832 71.2423 76.7421C71.6387 79.1424 74.9548 81.0159 78.9869 81.0159C83.0191 81.0159 86.3352 79.1424 86.7316 76.7421C86.7578 76.5832 86.7713 76.4219 86.7713 76.2587V75.889H86.65C86.7276 75.6234 86.7691 75.3502 86.7713 75.0712C86.7713 75.0634 86.7713 75.0556 86.7713 75.0478C86.7713 75.0438 86.7713 75.0399 86.7713 75.0359C86.7609 72.4141 83.2797 70.2906 78.987 70.2906C74.6943 70.2906 71.2132 72.4141 71.2027 75.0359ZM70.3497 75.0359H70.3495V76.2587C70.3495 77.982 71.4891 79.404 73.0378 80.3505C74.6011 81.3059 76.7066 81.869 78.9869 81.869C81.2673 81.869 83.3728 81.3059 84.9361 80.3505C86.4848 79.404 87.6243 77.982 87.6243 76.2587V75.0744C87.6244 75.0655 87.6244 75.0567 87.6244 75.0478C87.6244 73.3245 86.4849 71.9024 84.9362 70.956C83.3729 70.0006 81.2674 69.4375 78.987 69.4375C76.7066 69.4375 74.6012 70.0006 73.0379 70.956C71.4927 71.9003 70.3549 73.3179 70.3497 75.0359Z" fill="#633001"/>
<path d="M86.7713 76.2587C86.7713 78.886 83.2861 81.0159 78.987 81.0159C74.6878 81.0159 71.2026 78.886 71.2026 76.2587V75.1426H86.7713V76.2587Z" fill="#FEDC90"/>
<path d="M86.7713 75.0478C86.7713 77.6751 83.2861 79.8049 78.987 79.8049C74.6878 79.8049 71.2026 77.6751 71.2026 75.0478C71.2026 72.4204 74.6878 70.2906 78.987 70.2906C83.2861 70.2906 86.7713 72.4204 86.7713 75.0478Z" fill="#D1884F"/>
<path fill-rule="evenodd" clip-rule="evenodd" d="M73.0439 75.3437C73.0439 76.2209 73.6813 77.0065 74.6868 77.5351L73.9902 78.7418L73.9903 78.7419H73.9902V81.7958C73.9902 82.1997 74.3175 82.5271 74.7214 82.5271C75.1252 82.5271 75.4526 82.1997 75.4526 81.7958V79.3671L76.2021 78.0688C76.6814 78.1704 77.1958 78.2256 77.7313 78.2256C80.32 78.2256 82.4186 76.9354 82.4186 75.3437C82.4186 73.7521 80.32 72.4619 77.7313 72.4619C75.1425 72.4619 73.0439 73.7521 73.0439 75.3437Z" fill="url(#paint1_linear)"/>
<path fill-rule="evenodd" clip-rule="evenodd" d="M74.6868 77.5351C74.5755 77.4765 74.4686 77.4148 74.3666 77.3502C73.5479 76.8313 73.0439 76.1237 73.0439 75.3437C73.0439 73.7521 75.1425 72.4619 77.7313 72.4619C80.32 72.4619 82.4186 73.7521 82.4186 75.3437C82.4186 76.9354 80.32 78.2256 77.7313 78.2256C77.1958 78.2256 76.6814 78.1704 76.2021 78.0688L75.4526 79.3671V81.7958C75.4526 82.1997 75.1252 82.5271 74.7214 82.5271C74.3175 82.5271 73.9902 82.1997 73.9902 81.7958V78.7419L74.6868 77.5351ZM73.2437 78.7547V81.7958C73.2437 82.6119 73.9053 83.2735 74.7214 83.2735C75.5375 83.2735 76.199 82.6119 76.199 81.7958V79.5671L76.5878 78.8937C76.957 78.9452 77.3397 78.9721 77.7313 78.9721C79.1409 78.9721 80.4528 78.6223 81.4367 78.0174C82.4083 77.4201 83.165 76.4958 83.165 75.3437C83.165 74.1917 82.4083 73.2674 81.4367 72.67C80.4528 72.0652 79.1409 71.7154 77.7313 71.7154C76.3216 71.7154 75.0097 72.0652 74.0259 72.67C73.0542 73.2674 72.2975 74.1917 72.2975 75.3437C72.2975 76.3548 72.8766 77.1874 73.6812 77.784L73.3489 78.3596C73.3172 78.4127 73.2919 78.47 73.2741 78.5305C73.2522 78.6043 73.2424 78.6799 73.2437 78.7547Z" fill="#633001"/>
<path d="M74.5083 74.1295C74.5083 74.954 75.5586 75.6224 76.8543 75.6224C78.1499 75.6224 79.2003 74.954 79.2003 74.1295C79.2003 73.305 78.1499 72.6366 76.8543 72.6366C75.5586 72.6366 74.5083 73.305 74.5083 74.1295Z" fill="#9E7200"/>
<path d="M74.5083 73.4897H79.2002V74.1296H74.5083V73.4897Z" fill="#9E7200"/>
<path d="M74.5083 73.4897C74.5083 74.3142 75.5586 74.9826 76.8543 74.9826C78.1499 74.9826 79.2003 74.3142 79.2003 73.4897C79.2003 72.6652 78.1499 71.9968 76.8543 71.9968C75.5586 71.9968 74.5083 72.6652 74.5083 73.4897Z" fill="#F0B90B"/>
<path d="M75.964 73.3098L76.6252 72.889C76.765 72.8 76.9435 72.8 77.0832 72.889L77.7445 73.3098C77.8762 73.3936 77.8762 73.5858 77.7445 73.6696L77.0832 74.0904C76.9435 74.1793 76.765 74.1793 76.6252 74.0904L75.964 73.6696C75.8323 73.5858 75.8323 73.3936 75.964 73.3098Z" fill="#9E7200"/>
<path fill-rule="evenodd" clip-rule="evenodd" d="M74.7947 71.8043C75.3562 71.4469 76.0864 71.2503 76.8543 71.2503C77.6221 71.2503 78.3523 71.4469 78.9139 71.8043C79.4666 72.156 79.9467 72.7337 79.9467 73.4897V74.1295C79.9467 74.8855 79.4666 75.4632 78.9139 75.8149C78.3523 76.1723 77.6221 76.3689 76.8543 76.3689C76.0864 76.3689 75.3562 76.1723 74.7947 75.8149C74.242 75.4632 73.7618 74.8855 73.7618 74.1295V73.4897C73.7618 72.7337 74.242 72.156 74.7947 71.8043ZM76.8543 71.9968C75.5586 71.9968 74.5083 72.6652 74.5083 73.4897V74.1295C74.5083 74.954 75.5586 75.6224 76.8543 75.6224C78.1499 75.6224 79.2002 74.954 79.2002 74.1295V73.4897C79.2002 72.6652 78.1499 71.9968 76.8543 71.9968Z" fill="#633001"/>
<defs>
<linearGradient id="paint0_linear" x1="80" y1="64" x2="80" y2="96" gradientUnits="userSpaceOnUse">
<stop stop-color="#54DADE"/>
<stop offset="0.762157" stop-color="#24C7D6"/>
</linearGradient>
<linearGradient id="paint1_linear" x1="77.782" y1="72.5583" x2="77.782" y2="82.4515" gradientUnits="userSpaceOnUse">
<stop stop-color="#9F4A08"/>
<stop offset="0.370494" stop-color="#7D3900"/>
<stop offset="1" stop-color="#8D4104"/>
</linearGradient>
</defs>
</svg>
