<svg width="96" height="96" viewBox="0 0 96 96" fill="none" xmlns="http://www.w3.org/2000/svg">
<mask id="mask0" mask-type="alpha" maskUnits="userSpaceOnUse" x="0" y="0" width="96" height="96">
<path fill-rule="evenodd" clip-rule="evenodd" d="M96 0H0V96H69.7487C64.4865 92.6215 61 86.7179 61 80C61 69.5066 69.5066 61 80 61C86.7179 61 92.6215 64.4865 96 69.7487V0Z" fill="#C4C4C4"/>
</mask>
<g mask="url(#mask0)">
<circle cx="48" cy="48" r="48" fill="white"/>
<g clip-path="url(#clip0)">
<path d="M60.0846 81.2302C59.4061 80.2434 59.1594 79.0716 58.8511 77.9614C57.1242 80.3667 55.9523 83.0188 54.5955 85.6708C54.1021 85.1157 53.8554 84.4373 53.6087 83.7589C51.4501 86.2875 49.9699 89.1246 48.3046 91.9616C46.7628 89.0629 45.0976 86.2875 43.0623 83.7589C42.7539 84.4373 42.5072 85.1157 42.0138 85.6708C40.7803 82.9571 39.4851 80.3667 37.8199 77.9614C37.5732 79.1332 37.2648 80.2434 36.5864 81.2919C35.908 77.283 33.5027 73.9526 31.6524 70.3754H31.5907C31.5907 72.2257 31.4057 74.1992 30.1722 75.7411C28.9387 69.2036 22.5862 64.8247 22.1545 58.1021C21.2294 59.5206 20.1809 60.9391 18.3306 61.0625C22.8329 52.798 10.4979 52.5513 22.4012 33.3704C20.1809 34.9123 17.7756 35.7141 15.0002 35.7141C25.9783 27.6963 16.6037 15.5464 37.0181 15.2997C36.3397 13.8195 35.1062 12.956 33.7494 12.2776C35.908 11.5992 40.5953 12.4626 42.8773 13.8195C43.309 12.4626 43.2473 11.1675 42.7539 9.81061C44.6658 10.6124 45.7143 12.2159 46.8245 13.8812C47.3179 10.9208 47.7496 7.89869 48.1813 4.93829C48.3046 4.99997 48.3046 4.99997 48.3663 4.99997C48.798 7.96037 49.2915 10.9208 49.7849 13.9428C50.7716 12.2159 51.9435 10.6741 53.7937 9.81061C53.362 11.1675 53.2386 12.4626 53.6704 13.8195C56.5691 12.3393 59.5912 11.7842 62.7983 12.2776C61.4414 13.0177 60.2079 13.8812 59.5295 15.3614C79.8205 15.6081 70.631 27.573 81.5474 35.7758C78.8954 35.8374 76.3667 34.974 74.1465 33.4938C86.1114 52.5513 73.7764 52.9214 78.2787 61.1242C76.3051 60.9391 75.38 59.5823 74.3932 58.2254C74.0231 64.948 67.5472 69.3269 66.4988 75.8028C65.2036 74.1992 65.0802 72.349 65.0186 70.3754C62.9833 73.7675 60.8863 77.283 60.0846 81.2302ZM56.8775 46.5689C61.3797 45.212 66.2521 39.5996 62.6749 35.0973C59.8995 32.0753 60.3929 26.1545 55.8907 24.9826C53.4237 24.3659 50.5249 24.6126 48.428 26.2161C47.5646 26.2161 46.7011 25.106 45.6526 25.0443C39.7935 23.2558 37.0181 26.8329 35.5996 32.0136C30.789 38.1194 32.2075 43.7935 39.6702 46.5689C37.5732 47.4323 37.5115 49.3442 38.19 51.1945C39.3618 50.7628 40.3486 50.0843 41.3354 49.5293C40.5336 51.1328 37.5115 51.3795 38.745 53.4765C39.5468 53.0447 40.2869 52.613 40.9653 52.1813C40.5953 53.0447 39.1768 53.3531 38.9917 54.2166C39.3618 54.7716 39.5468 56.3752 40.4719 55.8818C42.3839 54.0932 44.8509 53.5998 47.2562 52.798C48.3046 52.3663 47.9963 50.8244 47.5646 50.0227C46.0227 49.0359 44.4808 47.864 43.679 46.1371L43.7407 46.0755C46.5161 47.5557 49.8465 47.494 52.6219 46.1371C52.0051 48.7892 47.1945 49.4676 48.6747 52.5513C50.5866 53.5998 52.9303 53.6615 54.7188 55.0183C55.3356 55.3267 56.199 56.6219 56.7541 55.6351C58.1726 53.6615 56.4457 53.5998 55.3973 52.1813C56.199 52.613 56.8775 53.0447 57.6176 53.4765C58.9744 51.4412 55.8907 51.0095 55.0272 49.591L55.0889 49.5293C56.1374 50.146 57.0625 50.8244 58.2343 51.2562C59.0361 49.2826 58.9744 47.4323 56.8775 46.5689ZM55.3356 62.1726C54.8422 63.8995 53.6704 65.133 52.6219 66.4899C52.4369 69.0186 52.1285 71.7939 50.71 73.9526C51.0183 71.979 50.7716 67.1683 50.0315 66.1198C49.7232 68.0318 49.3531 69.882 48.3663 71.5472C47.3795 69.8203 47.0095 67.9701 46.6394 66.1198C45.7143 68.6485 45.7143 71.3005 46.0227 73.9526C44.3575 71.6706 44.5425 68.5868 43.8641 66.0582C42.5689 65.133 41.9521 63.6528 41.3971 62.1726C39.7318 67.7851 40.5336 73.0891 43.124 78.2081C43.309 77.4063 43.494 76.6663 43.7407 75.8645C45.961 78.8249 47.1945 82.1553 48.3663 85.5474C49.7232 82.1553 50.7716 78.8249 53.0536 75.8645C53.3003 76.7279 53.4237 77.3447 53.6704 78.2081C56.199 73.0274 57.0008 67.7851 55.3356 62.1726ZM41.027 14.7446C41.027 14.7446 41.027 14.8063 41.027 14.7446C43.309 23.2558 41.3971 24.3042 51.4501 23.3174C52.3135 23.1324 53.6704 23.0707 53.9171 22.0839C54.1638 19.5553 54.9039 17.0883 55.7056 14.6213C55.7056 14.6213 55.644 14.6213 55.644 14.5596C54.3488 15.6081 53.0536 16.5949 52.2518 18.1367H52.1902C52.1285 16.5332 52.0668 14.9913 52.0051 13.3878H51.9435C50.895 14.9913 49.9699 16.6565 49.4148 18.4451C49.0448 16.7182 48.6747 14.9296 48.3046 13.2027H48.243C47.8729 14.9296 47.5029 16.6565 47.1328 18.4451C46.5778 16.6565 45.7143 15.053 44.6658 13.5728H44.6042C44.5425 15.1147 44.4191 16.5949 44.3575 18.1367C43.5557 16.7182 42.2605 15.7931 41.027 14.7446ZM50.7716 59.0272C51.3884 59.3973 51.1417 61.0008 52.0051 60.5691C53.2386 60.0757 54.3488 59.3973 55.0889 58.2871C56.199 55.0183 49.3531 53.4765 46.9478 53.9699C42.0755 54.8333 38.4983 58.2254 44.9125 60.6924C45.5293 60.5691 45.2209 59.3356 45.8993 59.0889C45.4059 62.1726 51.2034 62.111 50.7716 59.0272ZM33.6877 53.5998H33.626C30.8506 48.8509 29.6788 43.2384 30.3572 37.7494C26.7184 41.6349 26.3484 47.124 26.8418 52.1813C27.4585 50.146 27.8902 48.1108 29.0621 46.2605C29.6788 51.8112 31.8374 58.4721 37.9433 59.7673C35.6613 56.0668 34.6745 51.8112 33.9961 47.5557C33.0093 49.4676 33.3176 51.6262 33.6877 53.5998ZM62.6749 47.6174C61.9965 51.8729 61.133 56.0668 58.7277 59.7673C64.7719 58.4721 66.9922 51.7496 67.5472 46.3222C68.7807 48.1108 69.2125 50.2077 69.7675 52.1813C70.2609 47.124 69.8909 41.6349 66.3137 37.7494H66.2521C66.9305 43.2384 65.8203 48.8509 62.9216 53.5998C63.3533 51.5645 63.4767 49.591 62.6749 47.6174ZM36.6481 71.8556H36.7098C37.4499 63.7145 32.1458 62.3577 28.0136 56.9919C26.3484 60.8158 28.5687 64.6396 30.0489 68.0934C30.6039 66.4899 30.4189 64.948 29.9255 63.3445C32.4542 65.7498 34.8595 68.7719 36.6481 71.8556ZM66.5604 68.0934C68.0406 64.6396 70.1993 60.8158 68.6574 56.9919H68.5957C64.6485 62.0493 58.9744 64.1462 59.8995 71.8556H59.9612C61.6881 68.7102 64.0934 65.6881 66.6838 63.2828C66.1904 64.8863 66.0054 66.4899 66.5604 68.0934ZM38.56 19.3086C34.3661 17.2733 28.692 18.6301 25.6083 22.0223C23.4497 24.1809 23.943 27.388 22.5862 29.9166C23.8814 29.2999 24.8065 28.3131 25.6083 27.2029C25.9783 29.4849 25.2999 31.5819 24.7448 33.7405C29.8022 25.9078 24.9915 19.6169 38.56 19.3086ZM74.0231 29.9166C72.6046 27.2029 73.1597 23.7492 70.6927 21.5905C67.4856 18.5068 62.1815 17.2733 58.111 19.1852V19.2469C71.3711 19.4319 66.9922 25.8461 71.8645 33.6788C71.4944 31.5202 70.5693 29.3616 71.001 27.1413C71.9262 28.3131 72.6663 29.2999 74.0231 29.9166ZM39.4851 22.8857V22.824C26.1633 19.802 29.8022 36.5159 32.8242 33.3088C33.0093 33.0621 33.0093 32.877 32.8242 32.692C31.0973 30.7184 32.0225 27.1413 34.9829 27.3263C36.6481 26.8946 36.093 23.7492 39.4851 22.8857ZM57.1242 22.824V22.8857C58.2343 23.4408 59.4678 23.9958 60.0846 25.106C60.578 25.7227 60.578 27.0796 61.4414 27.2646C65.4503 27.3263 64.9569 30.6567 63.7851 33.1854C66.6221 36.8859 70.6927 19.802 57.1242 22.824ZM74.5782 53.3531C74.6399 53.3531 74.6399 53.3531 74.7015 53.3531C76.4901 48.6658 76.6751 43.4851 72.6663 39.8463C74.8249 44.1636 73.098 48.9742 74.5782 53.3531ZM21.9695 53.3531C23.6964 49.0975 21.5994 44.1019 24.0047 39.908C24.0047 39.908 23.943 39.908 23.943 39.8463C20.0575 43.4851 20.0575 48.7275 21.9695 53.3531Z" fill="url(#paint0_linear)"/>
<path d="M45.4064 35.7758C44.7896 37.6877 44.1729 39.5996 44.4196 41.6966C43.6178 40.9565 43.6178 39.7847 43.4328 38.7979C41.6442 39.538 40.4724 37.626 39.1772 36.8243C41.4592 33.5555 42.3843 38.9829 45.3447 35.7141C45.3447 35.7758 45.4064 35.7758 45.4064 35.7758Z" fill="url(#paint1_linear)"/>
<path d="M53.177 38.7979C53.0536 39.8463 52.9303 40.8948 52.1902 41.6966C52.3752 39.5996 51.7584 37.7494 51.2034 35.7141C52.1285 35.9608 52.5602 37.441 53.547 36.8859C54.7805 36.0225 56.5691 35.0357 57.3709 36.8859C57.4325 36.8859 57.4942 36.8243 57.4942 36.8243C56.199 37.626 54.9655 39.5996 53.177 38.7979Z" fill="url(#paint2_linear)"/>
<path d="M41.0275 14.7447C42.261 15.7932 43.5561 16.6566 44.3579 18.1368C44.4196 16.5949 44.5429 15.1147 44.6046 13.5729H44.6663C45.7148 15.1147 46.5782 16.6566 47.1333 18.4452C47.5033 16.7183 47.8734 14.9914 48.2434 13.2028H48.3051C48.6752 14.9297 49.0452 16.7183 49.4153 18.4452C49.9703 16.5949 50.8955 14.9297 51.9439 13.3878H52.0056C52.0673 14.9914 52.129 16.5333 52.1906 18.1368H52.2523C53.0541 16.5949 54.3493 15.6081 55.6444 14.5597C55.6444 14.5597 55.7061 14.5597 55.7061 14.6213C54.9043 17.0267 54.1642 19.5553 53.9175 22.084C53.6708 23.0708 52.2523 23.1325 51.4505 23.3175C41.3975 24.3043 43.3094 23.2558 41.0275 14.7447C41.0275 14.8064 41.0275 14.7447 41.0275 14.7447Z" fill="url(#paint3_linear)"/>
<path d="M41.0275 14.7447C42.261 15.7932 43.5561 16.6566 44.3579 18.1368C44.4196 16.5949 44.5429 15.1147 44.6046 13.5729H44.6663C45.7148 15.1147 46.5782 16.6566 47.1333 18.4452C47.5033 16.7183 47.8734 14.9914 48.2434 13.2028H48.3051C48.6752 14.9297 49.0452 16.7183 49.4153 18.4452C49.9703 16.5949 50.8955 14.9297 51.9439 13.3878H52.0056C52.0673 14.9914 52.129 16.5333 52.1906 18.1368H52.2523C53.0541 16.5949 54.3493 15.6081 55.6444 14.5597C55.6444 14.5597 55.7061 14.5597 55.7061 14.6213C54.9043 17.0267 54.1642 19.5553 53.9175 22.084C53.6708 23.0708 52.2523 23.1325 51.4505 23.3175C41.3975 24.3043 43.3094 23.2558 41.0275 14.7447C41.0275 14.8064 41.0275 14.7447 41.0275 14.7447Z" fill="url(#paint4_linear)"/>
</g>
</g>
<circle cx="80" cy="80" r="16" fill="url(#paint5_linear)"/>
<path fill-rule="evenodd" clip-rule="evenodd" d="M69.6072 81.758C69.6045 81.8177 69.6031 81.8777 69.6031 81.9379C69.6031 82.1653 69.6229 82.3899 69.6615 82.6111H69.6031V82.9593C69.6031 83.1292 69.6141 83.2976 69.6359 83.4642C70.0595 86.7145 74.5379 89.2719 80 89.2719C85.4621 89.2719 89.9405 86.7145 90.3641 83.4642C90.3859 83.2976 90.3969 83.1292 90.3969 82.9593V82.6111H90.3385C90.3771 82.3899 90.3969 82.1653 90.3969 81.9379C90.3969 81.8777 90.3955 81.8177 90.3928 81.758C90.2359 78.3548 85.643 75.6252 80 75.6252C74.357 75.6252 69.7641 78.3548 69.6072 81.758ZM68.7533 81.758C68.8307 79.6815 70.2417 77.9373 72.2055 76.7449C74.2413 75.5089 76.9992 74.7721 80 74.7721C83.0008 74.7721 85.7587 75.5089 87.7945 76.7449C89.7583 77.9373 91.1693 79.6815 91.2467 81.758H91.25V82.9593C91.25 85.1148 89.8148 86.9255 87.7945 88.1522C85.7587 89.3883 83.0008 90.125 80 90.125C76.9992 90.125 74.2413 89.3883 72.2055 88.1522C70.1852 86.9255 68.75 85.1148 68.75 82.9593V81.758H68.7533Z" fill="#606063"/>
<path d="M90.3969 82.9594C90.3969 86.4458 85.7421 89.2721 80 89.2721C74.2579 89.2721 69.6031 86.4458 69.6031 82.9594V81.9601H90.3969V82.9594Z" fill="#BEBEBE"/>
<path d="M90.3969 81.9378C90.3969 85.4242 85.7421 88.2505 80 88.2505C74.2579 88.2505 69.6031 85.4242 69.6031 81.9378C69.6031 78.4514 74.2579 75.6251 80 75.6251C85.7421 75.6251 90.3969 78.4514 90.3969 81.9378Z" fill="#FAF9FA"/>
<path fill-rule="evenodd" clip-rule="evenodd" d="M71.2027 80.1544C71.2027 80.1584 71.2027 80.1624 71.2027 80.1663C71.2027 80.4534 71.2443 80.7345 71.324 81.0075H71.2026V81.3772C71.2026 81.5404 71.216 81.7017 71.2423 81.8606C71.6387 84.2609 74.9548 86.1344 78.9869 86.1344C83.019 86.1344 86.3352 84.2609 86.7315 81.8606C86.7578 81.7017 86.7712 81.5404 86.7712 81.3772V81.0075H86.65C86.7275 80.7419 86.769 80.4687 86.7712 80.1898C86.7713 80.182 86.7713 80.1741 86.7713 80.1663C86.7713 80.1624 86.7713 80.1584 86.7713 80.1544C86.7608 77.5326 83.2797 75.4091 78.987 75.4091C74.6943 75.4091 71.2132 77.5326 71.2027 80.1544ZM70.3496 80.1544H70.3495V81.3772C70.3495 83.1005 71.4891 84.5226 73.0377 85.469C74.601 86.4244 76.7065 86.9875 78.9869 86.9875C81.2673 86.9875 83.3728 86.4244 84.9361 85.469C86.4848 84.5226 87.6243 83.1005 87.6243 81.3772V80.1929C87.6244 80.1841 87.6244 80.1752 87.6244 80.1663C87.6244 78.443 86.4849 77.021 84.9362 76.0745C83.3729 75.1192 81.2674 74.556 78.987 74.556C76.7066 74.556 74.6011 75.1192 73.0378 76.0745C71.4927 77.0188 70.3548 78.4365 70.3496 80.1544Z" fill="#633001"/>
<path d="M86.7712 81.3774C86.7712 84.0047 83.2861 86.1346 78.9869 86.1346C74.6878 86.1346 71.2026 84.0047 71.2026 81.3774V80.2612H86.7712V81.3774Z" fill="#FEDC90"/>
<path d="M86.7712 80.1664C86.7712 82.7937 83.2861 84.9235 78.9869 84.9235C74.6878 84.9235 71.2026 82.7937 71.2026 80.1664C71.2026 77.539 74.6878 75.4092 78.9869 75.4092C83.2861 75.4092 86.7712 77.539 86.7712 80.1664Z" fill="#D1884F"/>
<path fill-rule="evenodd" clip-rule="evenodd" d="M73.5487 77.5952C73.5487 77.5992 73.5487 77.6031 73.5487 77.6071C73.5487 77.8942 73.5903 78.1753 73.67 78.4483H73.5486V78.818C73.5486 78.9812 73.562 79.1425 73.5883 79.3014C73.9846 81.7017 77.3008 83.5752 81.3329 83.5752C85.365 83.5752 88.6811 81.7017 89.0775 79.3014C89.1038 79.1425 89.1172 78.9812 89.1172 78.818V78.4483H88.996C89.0735 78.1827 89.115 77.9095 89.1172 77.6306C89.1173 77.6228 89.1173 77.6149 89.1173 77.6071C89.1173 77.6031 89.1173 77.5992 89.1173 77.5952C89.1068 74.9734 85.6257 72.8499 81.333 72.8499C77.0403 72.8499 73.5592 74.9734 73.5487 77.5952ZM72.6956 77.5952H72.6955V78.818C72.6955 80.5413 73.835 81.9634 75.3837 82.9098C76.947 83.8652 79.0525 84.4283 81.3329 84.4283C83.6133 84.4283 85.7188 83.8652 87.2821 82.9098C88.8307 81.9634 89.9703 80.5413 89.9703 78.818V77.6337C89.9703 77.6249 89.9704 77.616 89.9704 77.6071C89.9704 75.8838 88.8308 74.4618 87.2822 73.5153C85.7188 72.56 83.6134 71.9968 81.333 71.9968C79.0526 71.9968 76.9471 72.56 75.3838 73.5153C73.8387 74.4596 72.7008 75.8773 72.6956 77.5952Z" fill="#633001"/>
<path d="M89.1172 78.8181C89.1172 81.4454 85.6321 83.5752 81.3329 83.5752C77.0337 83.5752 73.5486 81.4454 73.5486 78.8181V77.7019H89.1172V78.8181Z" fill="#FEDC90"/>
<path d="M89.1172 77.607C89.1172 80.2344 85.6321 82.3642 81.3329 82.3642C77.0337 82.3642 73.5486 80.2344 73.5486 77.607C73.5486 74.9797 77.0337 72.8499 81.3329 72.8499C85.6321 72.8499 89.1172 74.9797 89.1172 77.607Z" fill="#D1884F"/>
<path fill-rule="evenodd" clip-rule="evenodd" d="M71.2027 75.0359C71.2027 75.0399 71.2027 75.0438 71.2027 75.0478C71.2027 75.3348 71.2443 75.616 71.324 75.889H71.2026V76.2587C71.2026 76.4219 71.216 76.5832 71.2423 76.7421C71.6387 79.1424 74.9548 81.0159 78.9869 81.0159C83.019 81.0159 86.3352 79.1424 86.7315 76.7421C86.7578 76.5832 86.7712 76.4219 86.7712 76.2587V75.889H86.65C86.7275 75.6234 86.769 75.3502 86.7712 75.0712C86.7713 75.0634 86.7713 75.0556 86.7713 75.0478C86.7713 75.0438 86.7713 75.0399 86.7713 75.0359C86.7608 72.4141 83.2797 70.2906 78.987 70.2906C74.6943 70.2906 71.2132 72.4141 71.2027 75.0359ZM70.3496 75.0359H70.3495V76.2587C70.3495 77.982 71.4891 79.404 73.0377 80.3505C74.601 81.3059 76.7065 81.869 78.9869 81.869C81.2673 81.869 83.3728 81.3059 84.9361 80.3505C86.4848 79.404 87.6243 77.982 87.6243 76.2587V75.0744C87.6244 75.0655 87.6244 75.0567 87.6244 75.0478C87.6244 73.3245 86.4849 71.9024 84.9362 70.956C83.3729 70.0006 81.2674 69.4375 78.987 69.4375C76.7066 69.4375 74.6011 70.0006 73.0378 70.956C71.4927 71.9003 70.3548 73.3179 70.3496 75.0359Z" fill="#633001"/>
<path d="M86.7712 76.2587C86.7712 78.886 83.2861 81.0159 78.9869 81.0159C74.6878 81.0159 71.2026 78.886 71.2026 76.2587V75.1426H86.7712V76.2587Z" fill="#FEDC90"/>
<path d="M86.7712 75.0478C86.7712 77.6751 83.2861 79.805 78.9869 79.805C74.6878 79.805 71.2026 77.6751 71.2026 75.0478C71.2026 72.4205 74.6878 70.2906 78.9869 70.2906C83.2861 70.2906 86.7712 72.4205 86.7712 75.0478Z" fill="#D1884F"/>
<path fill-rule="evenodd" clip-rule="evenodd" d="M73.044 75.3438C73.044 76.221 73.6813 77.0066 74.6869 77.5352L73.9902 78.7419L73.9903 78.7419H73.9902V81.7959C73.9902 82.1997 74.3176 82.5271 74.7214 82.5271C75.1252 82.5271 75.4526 82.1997 75.4526 81.7959V79.3671L76.2021 78.0689C76.6814 78.1705 77.1959 78.2257 77.7313 78.2257C80.32 78.2257 82.4186 76.9354 82.4186 75.3438C82.4186 73.7522 80.32 72.4619 77.7313 72.4619C75.1425 72.4619 73.044 73.7522 73.044 75.3438Z" fill="url(#paint6_linear)"/>
<path fill-rule="evenodd" clip-rule="evenodd" d="M74.6868 77.5352C74.5755 77.4766 74.4686 77.4149 74.3666 77.3503C73.5479 76.8314 73.0439 76.1238 73.0439 75.3438C73.0439 73.7522 75.1425 72.4619 77.7313 72.4619C80.32 72.4619 82.4186 73.7522 82.4186 75.3438C82.4186 76.9354 80.32 78.2257 77.7313 78.2257C77.1958 78.2257 76.6814 78.1705 76.2021 78.0689L75.4526 79.3671V81.7959C75.4526 82.1997 75.1252 82.5271 74.7214 82.5271C74.3175 82.5271 73.9902 82.1997 73.9902 81.7959V78.7419L74.6868 77.5352ZM73.2437 78.7548V81.7959C73.2437 82.612 73.9053 83.2736 74.7214 83.2736C75.5375 83.2736 76.199 82.612 76.199 81.7959V79.5671L76.5878 78.8938C76.957 78.9452 77.3397 78.9722 77.7313 78.9722C79.1409 78.9722 80.4528 78.6224 81.4367 78.0175C82.4083 77.4201 83.165 76.4959 83.165 75.3438C83.165 74.1918 82.4083 73.2675 81.4367 72.6701C80.4528 72.0652 79.1409 71.7155 77.7313 71.7155C76.3216 71.7155 75.0097 72.0652 74.0259 72.6701C73.0542 73.2675 72.2975 74.1918 72.2975 75.3438C72.2975 76.3549 72.8766 77.1875 73.6812 77.7841L73.3489 78.3597C73.3172 78.4127 73.2919 78.47 73.2741 78.5305C73.2522 78.6043 73.2424 78.6799 73.2437 78.7548Z" fill="#633001"/>
<path d="M74.5083 74.1295C74.5083 74.954 75.5586 75.6224 76.8543 75.6224C78.1499 75.6224 79.2002 74.954 79.2002 74.1295C79.2002 73.305 78.1499 72.6366 76.8543 72.6366C75.5586 72.6366 74.5083 73.305 74.5083 74.1295Z" fill="#9E7200"/>
<path d="M74.5083 73.4897H79.2002V74.1296H74.5083V73.4897Z" fill="#9E7200"/>
<path d="M74.5083 73.4897C74.5083 74.3143 75.5586 74.9827 76.8543 74.9827C78.1499 74.9827 79.2002 74.3143 79.2002 73.4897C79.2002 72.6652 78.1499 71.9968 76.8543 71.9968C75.5586 71.9968 74.5083 72.6652 74.5083 73.4897Z" fill="#F0B90B"/>
<path d="M75.964 73.3098L76.6253 72.889C76.765 72.8 76.9436 72.8 77.0833 72.889L77.7445 73.3098C77.8762 73.3936 77.8762 73.5858 77.7445 73.6696L77.0833 74.0904C76.9436 74.1793 76.765 74.1793 76.6253 74.0904L75.964 73.6696C75.8323 73.5858 75.8323 73.3936 75.964 73.3098Z" fill="#9E7200"/>
<path fill-rule="evenodd" clip-rule="evenodd" d="M74.7947 71.8043C75.3562 71.447 76.0864 71.2504 76.8543 71.2504C77.6221 71.2504 78.3523 71.447 78.9139 71.8043C79.4666 72.1561 79.9467 72.7338 79.9467 73.4897V74.1296C79.9467 74.8856 79.4666 75.4633 78.9139 75.815C78.3523 76.1723 77.6221 76.369 76.8543 76.369C76.0864 76.369 75.3562 76.1723 74.7947 75.815C74.242 75.4633 73.7618 74.8856 73.7618 74.1296V73.4897C73.7618 72.7338 74.242 72.1561 74.7947 71.8043ZM76.8543 71.9968C75.5586 71.9968 74.5083 72.6652 74.5083 73.4897V74.1296C74.5083 74.9541 75.5586 75.6225 76.8543 75.6225C78.1499 75.6225 79.2002 74.9541 79.2002 74.1296V73.4897C79.2002 72.6652 78.1499 71.9968 76.8543 71.9968Z" fill="#633001"/>
<defs>
<linearGradient id="paint0_linear" x1="73.8791" y1="67.0068" x2="21.4212" y2="22.8007" gradientUnits="userSpaceOnUse">
<stop stop-color="#101112"/>
<stop offset="1" stop-color="#565A65"/>
</linearGradient>
<linearGradient id="paint1_linear" x1="46.0929" y1="39.7185" x2="40.6288" y2="35.1139" gradientUnits="userSpaceOnUse">
<stop stop-color="#101112"/>
<stop offset="1" stop-color="#565A65"/>
</linearGradient>
<linearGradient id="paint2_linear" x1="55.2346" y1="39.5023" x2="51.0142" y2="35.9458" gradientUnits="userSpaceOnUse">
<stop stop-color="#101112"/>
<stop offset="1" stop-color="#565A65"/>
</linearGradient>
<linearGradient id="paint3_linear" x1="53.9132" y1="22.3485" x2="42.6388" y2="12.8476" gradientUnits="userSpaceOnUse">
<stop stop-color="#101112"/>
<stop offset="1" stop-color="#565A65"/>
</linearGradient>
<linearGradient id="paint4_linear" x1="41.486" y1="13.772" x2="54.5131" y2="21.7261" gradientUnits="userSpaceOnUse">
<stop offset="0.1759" stop-color="#B87600"/>
<stop offset="0.4832" stop-color="#F3DBAF"/>
<stop offset="0.639" stop-color="#DFB972"/>
<stop offset="0.8089" stop-color="#CC9836"/>
<stop offset="0.9341" stop-color="#C08310"/>
<stop offset="1" stop-color="#BB7B02"/>
</linearGradient>
<linearGradient id="paint5_linear" x1="80" y1="64" x2="80" y2="96" gradientUnits="userSpaceOnUse">
<stop stop-color="#54DADE"/>
<stop offset="0.762157" stop-color="#24C7D6"/>
</linearGradient>
<linearGradient id="paint6_linear" x1="77.782" y1="72.5584" x2="77.782" y2="82.4515" gradientUnits="userSpaceOnUse">
<stop stop-color="#9F4A08"/>
<stop offset="0.370494" stop-color="#7D3900"/>
<stop offset="1" stop-color="#8D4104"/>
</linearGradient>
<clipPath id="clip0">
<rect width="66.5473" height="86.9" fill="white" transform="translate(15 5)"/>
</clipPath>
</defs>
</svg>
