<svg xmlns="http://www.w3.org/2000/svg" width="96" height="96" fill="none" viewBox="0 0 96 96"><mask id="mask0" width="96" height="96" x="0" y="0" mask-type="alpha" maskUnits="userSpaceOnUse"><path fill="#C4C4C4" fill-rule="evenodd" d="M96 0H0V96H69.7487C64.4865 92.6215 61 86.7179 61 80C61 69.5066 69.5066 61 80 61C86.7179 61 92.6215 64.4865 96 69.7487V0Z" clip-rule="evenodd"/></mask><g mask="url(#mask0)"><path fill="#fff" d="M47.8411 91.0556C71.6063 91.0556 90.8718 71.794 90.8718 48.0336C90.8718 24.2732 71.6063 5.0116 47.8411 5.0116C24.076 5.0116 4.81049 24.2732 4.81049 48.0336C4.81049 71.794 24.076 91.0556 47.8411 91.0556Z"/><path fill="url(#paint0_radial)" d="M40.6626 0.35658C-21.1825 12.0999 -9.45128 102.376 55.3363 95.6465C117.181 83.8983 105.45 -6.37738 40.6626 0.35658ZM76.8226 51.4603C55.5634 74.2949 49.089 81.7245 42.8658 75.4929C10.629 41.8569 10.199 54.2959 41.6192 21.7371C42.4841 20.771 45.0014 17.7712 49.5576 18.5151C55.1333 20.3073 58.0613 26.2442 68.2851 35.5674C74.745 42.4269 79.6346 44.5186 76.8226 51.4603Z"/><path fill="url(#paint1_linear)" d="M33.5169 58.87L45.6927 58.8742C46.3411 58.8745 46.8669 58.3491 46.8672 57.7008L46.8679 55.7057C46.8681 55.0574 46.3426 54.5317 45.6942 54.5314L33.5184 54.5272C32.87 54.527 32.3442 55.0523 32.3439 55.7006L32.3432 57.6957C32.343 58.344 32.8685 58.8697 33.5169 58.87Z"/><path fill="url(#paint2_linear)" d="M33.5236 50.1506L45.6993 50.1549C46.3478 50.1551 46.8736 49.6297 46.8738 48.9814L46.8745 46.9864C46.8747 46.3381 46.3493 45.8123 45.7008 45.8121L33.5251 45.8078C32.8766 45.8076 32.3508 46.333 32.3506 46.9813L32.3499 48.9764C32.3497 49.6247 32.8751 50.1504 33.5236 50.1506Z"/><path fill="url(#paint3_linear)" d="M33.5253 41.4651L45.701 41.4693C46.3495 41.4695 46.8753 40.9442 46.8755 40.2959L46.8762 38.3008C46.8765 37.6525 46.351 37.1268 45.7025 37.1265L33.5268 37.1223C32.8784 37.1221 32.3525 37.6474 32.3523 38.2957L32.3516 40.2908C32.3514 40.9391 32.8768 41.4648 33.5253 41.4651Z"/><path fill="url(#paint4_linear)" d="M50.2924 58.8738L62.4682 58.878C63.1166 58.8782 63.6425 58.3529 63.6427 57.7046L63.6434 55.7095C63.6436 55.0612 63.1181 54.5355 62.4697 54.5352L50.2939 54.531C49.6455 54.5308 49.1197 55.0561 49.1194 55.7044L49.1187 57.6995C49.1185 58.3478 49.644 58.8735 50.2924 58.8738Z"/><path fill="url(#paint5_linear)" d="M50.3039 50.1496L62.4796 50.1539C63.1281 50.1541 63.6539 49.6287 63.6541 48.9804L63.6548 46.9854C63.655 46.3371 63.1296 45.8113 62.4811 45.8111L50.3054 45.8069C49.657 45.8066 49.1311 46.332 49.1309 46.9803L49.1302 48.9754C49.13 49.6237 49.6554 50.1494 50.3039 50.1496Z"/><path fill="url(#paint6_linear)" d="M50.3056 41.4641L62.4813 41.4683C63.1298 41.4686 63.6556 40.9432 63.6558 40.2949L63.6565 38.2998C63.6568 37.6515 63.1313 37.1258 62.4829 37.1256L50.3071 37.1213C49.6587 37.1211 49.1328 37.6465 49.1326 38.2948L49.1319 40.2898C49.1317 40.9381 49.6572 41.4639 50.3056 41.4641Z"/></g><circle cx="80" cy="80" r="16" fill="url(#paint7_linear)"/><path fill="#606063" fill-rule="evenodd" d="M69.6072 81.758C69.6045 81.8177 69.6031 81.8777 69.6031 81.9379C69.6031 82.1653 69.6229 82.3899 69.6615 82.6111H69.6031V82.9593C69.6031 83.1292 69.6141 83.2976 69.6359 83.4642C70.0595 86.7145 74.5379 89.2719 80 89.2719C85.4621 89.2719 89.9405 86.7145 90.3641 83.4642C90.3859 83.2976 90.3969 83.1292 90.3969 82.9593V82.6111H90.3385C90.3771 82.3899 90.3969 82.1653 90.3969 81.9379C90.3969 81.8777 90.3955 81.8177 90.3928 81.758C90.2359 78.3548 85.643 75.6252 80 75.6252C74.357 75.6252 69.7641 78.3548 69.6072 81.758ZM68.7533 81.758C68.8307 79.6815 70.2417 77.9373 72.2055 76.7449C74.2413 75.5089 76.9992 74.7721 80 74.7721C83.0008 74.7721 85.7587 75.5089 87.7945 76.7449C89.7583 77.9373 91.1693 79.6815 91.2467 81.758H91.25V82.9593C91.25 85.1148 89.8148 86.9255 87.7945 88.1522C85.7587 89.3883 83.0008 90.125 80 90.125C76.9992 90.125 74.2413 89.3883 72.2055 88.1522C70.1852 86.9255 68.75 85.1148 68.75 82.9593V81.758H68.7533Z" clip-rule="evenodd"/><path fill="#BEBEBE" d="M90.3969 82.9594C90.3969 86.4458 85.7421 89.2721 80 89.2721C74.2579 89.2721 69.6031 86.4458 69.6031 82.9594V81.9601H90.3969V82.9594Z"/><path fill="#FAF9FA" d="M90.3969 81.9378C90.3969 85.4242 85.7421 88.2505 80 88.2505C74.2579 88.2505 69.6031 85.4242 69.6031 81.9378C69.6031 78.4514 74.2579 75.6251 80 75.6251C85.7421 75.6251 90.3969 78.4514 90.3969 81.9378Z"/><path fill="#633001" fill-rule="evenodd" d="M71.2027 80.1544C71.2027 80.1584 71.2027 80.1624 71.2027 80.1663C71.2027 80.4534 71.2443 80.7345 71.324 81.0075H71.2026V81.3772C71.2026 81.5404 71.216 81.7017 71.2423 81.8606C71.6387 84.2609 74.9548 86.1344 78.9869 86.1344C83.019 86.1344 86.3352 84.2609 86.7315 81.8606C86.7578 81.7017 86.7712 81.5404 86.7712 81.3772V81.0075H86.65C86.7275 80.7419 86.769 80.4687 86.7712 80.1898C86.7713 80.182 86.7713 80.1741 86.7713 80.1663C86.7713 80.1624 86.7713 80.1584 86.7713 80.1544C86.7608 77.5326 83.2797 75.4091 78.987 75.4091C74.6943 75.4091 71.2132 77.5326 71.2027 80.1544ZM70.3496 80.1544H70.3495V81.3772C70.3495 83.1005 71.4891 84.5226 73.0377 85.469C74.601 86.4244 76.7065 86.9875 78.9869 86.9875C81.2673 86.9875 83.3728 86.4244 84.9361 85.469C86.4848 84.5226 87.6243 83.1005 87.6243 81.3772V80.1929C87.6244 80.1841 87.6244 80.1752 87.6244 80.1663C87.6244 78.443 86.4849 77.021 84.9362 76.0745C83.3729 75.1192 81.2674 74.556 78.987 74.556C76.7066 74.556 74.6011 75.1192 73.0378 76.0745C71.4927 77.0188 70.3548 78.4365 70.3496 80.1544Z" clip-rule="evenodd"/><path fill="#FEDC90" d="M86.7712 81.3774C86.7712 84.0047 83.2861 86.1346 78.9869 86.1346C74.6878 86.1346 71.2026 84.0047 71.2026 81.3774V80.2612H86.7712V81.3774Z"/><path fill="#D1884F" d="M86.7712 80.1664C86.7712 82.7937 83.2861 84.9235 78.9869 84.9235C74.6878 84.9235 71.2026 82.7937 71.2026 80.1664C71.2026 77.539 74.6878 75.4092 78.9869 75.4092C83.2861 75.4092 86.7712 77.539 86.7712 80.1664Z"/><path fill="#633001" fill-rule="evenodd" d="M73.5487 77.5952C73.5487 77.5992 73.5487 77.6031 73.5487 77.6071C73.5487 77.8942 73.5903 78.1753 73.67 78.4483H73.5486V78.818C73.5486 78.9812 73.562 79.1425 73.5883 79.3014C73.9846 81.7017 77.3008 83.5752 81.3329 83.5752C85.365 83.5752 88.6811 81.7017 89.0775 79.3014C89.1038 79.1425 89.1172 78.9812 89.1172 78.818V78.4483H88.996C89.0735 78.1827 89.115 77.9095 89.1172 77.6306C89.1173 77.6228 89.1173 77.6149 89.1173 77.6071C89.1173 77.6031 89.1173 77.5992 89.1173 77.5952C89.1068 74.9734 85.6257 72.8499 81.333 72.8499C77.0403 72.8499 73.5592 74.9734 73.5487 77.5952ZM72.6956 77.5952H72.6955V78.818C72.6955 80.5413 73.835 81.9634 75.3837 82.9098C76.947 83.8652 79.0525 84.4283 81.3329 84.4283C83.6133 84.4283 85.7188 83.8652 87.2821 82.9098C88.8307 81.9634 89.9703 80.5413 89.9703 78.818V77.6337C89.9703 77.6249 89.9704 77.616 89.9704 77.6071C89.9704 75.8838 88.8308 74.4618 87.2822 73.5153C85.7188 72.56 83.6134 71.9968 81.333 71.9968C79.0526 71.9968 76.9471 72.56 75.3838 73.5153C73.8387 74.4596 72.7008 75.8773 72.6956 77.5952Z" clip-rule="evenodd"/><path fill="#FEDC90" d="M89.1172 78.8181C89.1172 81.4454 85.6321 83.5752 81.3329 83.5752C77.0337 83.5752 73.5486 81.4454 73.5486 78.8181V77.7019H89.1172V78.8181Z"/><path fill="#D1884F" d="M89.1172 77.607C89.1172 80.2344 85.6321 82.3642 81.3329 82.3642C77.0337 82.3642 73.5486 80.2344 73.5486 77.607C73.5486 74.9797 77.0337 72.8499 81.3329 72.8499C85.6321 72.8499 89.1172 74.9797 89.1172 77.607Z"/><path fill="#633001" fill-rule="evenodd" d="M71.2027 75.0359C71.2027 75.0399 71.2027 75.0438 71.2027 75.0478C71.2027 75.3348 71.2443 75.616 71.324 75.889H71.2026V76.2587C71.2026 76.4219 71.216 76.5832 71.2423 76.7421C71.6387 79.1424 74.9548 81.0159 78.9869 81.0159C83.019 81.0159 86.3352 79.1424 86.7315 76.7421C86.7578 76.5832 86.7712 76.4219 86.7712 76.2587V75.889H86.65C86.7275 75.6234 86.769 75.3502 86.7712 75.0712C86.7713 75.0634 86.7713 75.0556 86.7713 75.0478C86.7713 75.0438 86.7713 75.0399 86.7713 75.0359C86.7608 72.4141 83.2797 70.2906 78.987 70.2906C74.6943 70.2906 71.2132 72.4141 71.2027 75.0359ZM70.3496 75.0359H70.3495V76.2587C70.3495 77.982 71.4891 79.404 73.0377 80.3505C74.601 81.3059 76.7065 81.869 78.9869 81.869C81.2673 81.869 83.3728 81.3059 84.9361 80.3505C86.4848 79.404 87.6243 77.982 87.6243 76.2587V75.0744C87.6244 75.0655 87.6244 75.0567 87.6244 75.0478C87.6244 73.3245 86.4849 71.9024 84.9362 70.956C83.3729 70.0006 81.2674 69.4375 78.987 69.4375C76.7066 69.4375 74.6011 70.0006 73.0378 70.956C71.4927 71.9003 70.3548 73.3179 70.3496 75.0359Z" clip-rule="evenodd"/><path fill="#FEDC90" d="M86.7712 76.2587C86.7712 78.886 83.2861 81.0159 78.9869 81.0159C74.6878 81.0159 71.2026 78.886 71.2026 76.2587V75.1426H86.7712V76.2587Z"/><path fill="#D1884F" d="M86.7712 75.0478C86.7712 77.6751 83.2861 79.805 78.9869 79.805C74.6878 79.805 71.2026 77.6751 71.2026 75.0478C71.2026 72.4205 74.6878 70.2906 78.9869 70.2906C83.2861 70.2906 86.7712 72.4205 86.7712 75.0478Z"/><path fill="url(#paint8_linear)" fill-rule="evenodd" d="M73.044 75.3438C73.044 76.221 73.6813 77.0066 74.6869 77.5352L73.9902 78.7419L73.9903 78.7419H73.9902V81.7959C73.9902 82.1997 74.3176 82.5271 74.7214 82.5271C75.1252 82.5271 75.4526 82.1997 75.4526 81.7959V79.3671L76.2021 78.0689C76.6814 78.1705 77.1959 78.2257 77.7313 78.2257C80.32 78.2257 82.4186 76.9354 82.4186 75.3438C82.4186 73.7522 80.32 72.4619 77.7313 72.4619C75.1425 72.4619 73.044 73.7522 73.044 75.3438Z" clip-rule="evenodd"/><path fill="#633001" fill-rule="evenodd" d="M74.6868 77.5352C74.5755 77.4766 74.4686 77.4149 74.3666 77.3503C73.5479 76.8314 73.0439 76.1238 73.0439 75.3438C73.0439 73.7522 75.1425 72.4619 77.7313 72.4619C80.32 72.4619 82.4186 73.7522 82.4186 75.3438C82.4186 76.9354 80.32 78.2257 77.7313 78.2257C77.1958 78.2257 76.6814 78.1705 76.2021 78.0689L75.4526 79.3671V81.7959C75.4526 82.1997 75.1252 82.5271 74.7214 82.5271C74.3175 82.5271 73.9902 82.1997 73.9902 81.7959V78.7419L74.6868 77.5352ZM73.2437 78.7548V81.7959C73.2437 82.612 73.9053 83.2736 74.7214 83.2736C75.5375 83.2736 76.199 82.612 76.199 81.7959V79.5671L76.5878 78.8938C76.957 78.9452 77.3397 78.9722 77.7313 78.9722C79.1409 78.9722 80.4528 78.6224 81.4367 78.0175C82.4083 77.4201 83.165 76.4959 83.165 75.3438C83.165 74.1918 82.4083 73.2675 81.4367 72.6701C80.4528 72.0652 79.1409 71.7155 77.7313 71.7155C76.3216 71.7155 75.0097 72.0652 74.0259 72.6701C73.0542 73.2675 72.2975 74.1918 72.2975 75.3438C72.2975 76.3549 72.8766 77.1875 73.6812 77.7841L73.3489 78.3597C73.3172 78.4127 73.2919 78.47 73.2741 78.5305C73.2522 78.6043 73.2424 78.6799 73.2437 78.7548Z" clip-rule="evenodd"/><path fill="#9E7200" d="M74.5083 74.1295C74.5083 74.954 75.5586 75.6224 76.8543 75.6224C78.1499 75.6224 79.2002 74.954 79.2002 74.1295C79.2002 73.305 78.1499 72.6366 76.8543 72.6366C75.5586 72.6366 74.5083 73.305 74.5083 74.1295Z"/><path fill="#9E7200" d="M74.5083 73.4897H79.2002V74.1296H74.5083V73.4897Z"/><path fill="#F0B90B" d="M74.5083 73.4897C74.5083 74.3143 75.5586 74.9827 76.8543 74.9827C78.1499 74.9827 79.2002 74.3143 79.2002 73.4897C79.2002 72.6652 78.1499 71.9968 76.8543 71.9968C75.5586 71.9968 74.5083 72.6652 74.5083 73.4897Z"/><path fill="#9E7200" d="M75.964 73.3098L76.6253 72.889C76.765 72.8 76.9436 72.8 77.0833 72.889L77.7445 73.3098C77.8762 73.3936 77.8762 73.5858 77.7445 73.6696L77.0833 74.0904C76.9436 74.1793 76.765 74.1793 76.6253 74.0904L75.964 73.6696C75.8323 73.5858 75.8323 73.3936 75.964 73.3098Z"/><path fill="#633001" fill-rule="evenodd" d="M74.7947 71.8043C75.3562 71.447 76.0864 71.2504 76.8543 71.2504C77.6221 71.2504 78.3523 71.447 78.9139 71.8043C79.4666 72.1561 79.9467 72.7338 79.9467 73.4897V74.1296C79.9467 74.8856 79.4666 75.4633 78.9139 75.815C78.3523 76.1723 77.6221 76.369 76.8543 76.369C76.0864 76.369 75.3562 76.1723 74.7947 75.815C74.242 75.4633 73.7618 74.8856 73.7618 74.1296V73.4897C73.7618 72.7338 74.242 72.1561 74.7947 71.8043ZM76.8543 71.9968C75.5586 71.9968 74.5083 72.6652 74.5083 73.4897V74.1296C74.5083 74.9541 75.5586 75.6225 76.8543 75.6225C78.1499 75.6225 79.2002 74.9541 79.2002 74.1296V73.4897C79.2002 72.6652 78.1499 71.9968 76.8543 71.9968Z" clip-rule="evenodd"/><defs><radialGradient id="paint0_radial" cx="0" cy="0" r="1" gradientTransform="translate(48.0018 47.9967) scale(48.0024 47.9927)" gradientUnits="userSpaceOnUse"><stop stop-color="#EBB162"/><stop offset="1" stop-color="#D7801E"/></radialGradient><linearGradient id="paint1_linear" x1="31.569" x2="45.968" y1="56.773" y2="56.778" gradientUnits="userSpaceOnUse"><stop stop-color="#E28E22"/><stop offset="1" stop-color="#E9A54C"/></linearGradient><linearGradient id="paint2_linear" x1="2581.44" x2="3014.35" y1="478.948" y2="479.099" gradientUnits="userSpaceOnUse"><stop stop-color="#E28E22"/><stop offset="1" stop-color="#E9A54C"/></linearGradient><linearGradient id="paint3_linear" x1="2581.55" x2="3014.39" y1="392.185" y2="392.336" gradientUnits="userSpaceOnUse"><stop stop-color="#E28E22"/><stop offset="1" stop-color="#E9A54C"/></linearGradient><linearGradient id="paint4_linear" x1="3089.51" x2="3522.42" y1="566.278" y2="566.429" gradientUnits="userSpaceOnUse"><stop stop-color="#E28E22"/><stop offset="1" stop-color="#E9A54C"/></linearGradient><linearGradient id="paint5_linear" x1="3089.62" x2="3522.45" y1="479.172" y2="479.323" gradientUnits="userSpaceOnUse"><stop stop-color="#E28E22"/><stop offset="1" stop-color="#E9A54C"/></linearGradient><linearGradient id="paint6_linear" x1="3089.72" x2="3522.56" y1="392.452" y2="392.603" gradientUnits="userSpaceOnUse"><stop stop-color="#E28E22"/><stop offset="1" stop-color="#E9A54C"/></linearGradient><linearGradient id="paint7_linear" x1="80" x2="80" y1="64" y2="96" gradientUnits="userSpaceOnUse"><stop stop-color="#54DADE"/><stop offset=".762" stop-color="#24C7D6"/></linearGradient><linearGradient id="paint8_linear" x1="77.782" x2="77.782" y1="72.558" y2="82.451" gradientUnits="userSpaceOnUse"><stop stop-color="#9F4A08"/><stop offset=".37" stop-color="#7D3900"/><stop offset="1" stop-color="#8D4104"/></linearGradient></defs></svg>