<svg width="96" height="96" viewBox="0 0 96 96" fill="none" xmlns="http://www.w3.org/2000/svg">
<mask id="mask0" mask-type="alpha" maskUnits="userSpaceOnUse" x="0" y="0" width="96" height="96">
<path fill-rule="evenodd" clip-rule="evenodd" d="M96 0H0V96H69.7487C64.4865 92.6215 61 86.7179 61 80C61 69.5066 69.5066 61 80 61C86.7179 61 92.6215 64.4865 96 69.7487V0Z" fill="#C4C4C4"/>
</mask>
<g mask="url(#mask0)">
<circle cx="48" cy="48" r="48" fill="white"/>
<path d="M55.6856 18.7262L48.6994 25.7126L50.1137 27.1268C50.9089 27.922 52.1992 27.9215 52.9938 27.1268L59.9802 20.1405L58.5659 18.7262C58.1682 18.3285 57.647 18.1299 57.1257 18.1299C56.6043 18.1299 56.0833 18.3287 55.6856 18.7262ZM38.0136 18.7262L36.599 20.1405L43.5856 27.1268C44.3803 27.9215 45.6704 27.922 46.4658 27.1268L47.88 25.7126L40.8937 18.7262C40.4962 18.3287 39.975 18.1299 39.4535 18.1299C38.9323 18.1299 38.411 18.3285 38.0136 18.7262ZM62.2645 27.8666L49.0636 41.0675L51.7364 43.74C53.2385 45.2421 55.6765 45.2417 57.1782 43.74L70.3791 30.5391L67.7064 27.8666C66.9552 27.1154 65.9702 26.7401 64.9854 26.7401C64.0004 26.7401 63.0152 27.1157 62.2645 27.8666ZM28.8731 27.8666L26.2004 30.5391L39.4012 43.74C40.9027 45.2417 43.3409 45.2421 44.8431 43.74L47.5156 41.0675L34.315 27.8666C33.5643 27.1157 32.579 26.7403 31.5941 26.7401C30.6091 26.7401 29.6243 27.1154 28.8731 27.8666ZM46.8497 27.5621L45.4352 28.9766L48.2896 31.8311L51.1441 28.9766L49.7298 27.5621C49.3323 27.1646 48.8111 26.9658 48.2896 26.9658C47.7684 26.9658 47.2471 27.1646 46.8497 27.5621ZM71.5145 40.7192L49.5759 62.6576L54.0175 67.099C56.5145 69.5959 60.5661 69.5947 63.0618 67.099L85.0001 45.1607L80.5587 40.7192C79.3102 39.4707 77.6736 38.8469 76.0367 38.8469C74.3998 38.8469 72.7624 39.4712 71.5145 40.7192ZM16.0206 40.7192L11.5791 45.1607L33.5177 67.099C36.0132 69.5947 40.065 69.5959 42.5617 67.099L47.0034 62.6576L25.0648 40.7192C23.8168 39.4712 22.1794 38.8469 20.5426 38.8469C18.9057 38.8469 17.269 39.4707 16.0206 40.7192ZM45.5687 44.5622L42.8962 47.2347L48.2896 52.6283L53.683 47.2347L51.0108 44.5622C50.2598 43.8115 49.2746 43.4359 48.2896 43.4359C47.3046 43.4356 46.3199 43.8112 45.5687 44.5622ZM43.7676 68.466L39.3262 72.9077L48.2896 81.8709L57.2531 72.9077L52.8119 68.466C51.5639 67.218 49.9265 66.5939 48.2896 66.5939C46.6527 66.5937 45.0161 67.2176 43.7676 68.466Z" fill="url(#paint0_linear)"/>
</g>
<circle cx="80" cy="80" r="16" fill="url(#paint1_linear)"/>
<path fill-rule="evenodd" clip-rule="evenodd" d="M69.6072 81.7579C69.6045 81.8177 69.6031 81.8777 69.6031 81.9378C69.6031 82.1652 69.6229 82.3898 69.6615 82.611H69.6031V82.9592C69.6031 83.1292 69.6141 83.2976 69.6359 83.4641C70.0595 86.7145 74.5379 89.2719 80 89.2719C85.4621 89.2719 89.9405 86.7145 90.3641 83.4641C90.3859 83.2976 90.3969 83.1292 90.3969 82.9592V82.611H90.3385C90.3771 82.3898 90.3969 82.1652 90.3969 81.9378C90.3969 81.8777 90.3955 81.8177 90.3928 81.7579C90.2359 78.3547 85.643 75.6252 80 75.6252C74.357 75.6252 69.7641 78.3547 69.6072 81.7579ZM68.7533 81.7579C68.8307 79.6815 70.2417 77.9373 72.2055 76.7449C74.2413 75.5088 76.9992 74.7721 80 74.7721C83.0008 74.7721 85.7587 75.5088 87.7945 76.7449C89.7583 77.9373 91.1693 79.6815 91.2467 81.7579H91.25V82.9592C91.25 85.1148 89.8148 86.9255 87.7945 88.1522C85.7587 89.3882 83.0008 90.125 80 90.125C76.9992 90.125 74.2413 89.3882 72.2055 88.1522C70.1852 86.9255 68.75 85.1148 68.75 82.9592V81.7579H68.7533Z" fill="#606063"/>
<path d="M90.3969 82.9594C90.3969 86.4458 85.742 89.2721 79.9999 89.2721C74.2579 89.2721 69.603 86.4458 69.603 82.9594V81.9601H90.3969V82.9594Z" fill="#BEBEBE"/>
<path d="M90.3969 81.9379C90.3969 85.4242 85.742 88.2505 79.9999 88.2505C74.2579 88.2505 69.603 85.4242 69.603 81.9379C69.603 78.4515 74.2579 75.6252 79.9999 75.6252C85.742 75.6252 90.3969 78.4515 90.3969 81.9379Z" fill="#FAF9FA"/>
<path fill-rule="evenodd" clip-rule="evenodd" d="M71.2027 80.1545C71.2027 80.1585 71.2027 80.1624 71.2027 80.1664C71.2027 80.4534 71.2443 80.7346 71.324 81.0076H71.2026V81.3773C71.2026 81.5405 71.216 81.7017 71.2423 81.8607C71.6386 84.261 74.9547 86.1345 78.9869 86.1345C83.019 86.1345 86.3351 84.261 86.7315 81.8607C86.7578 81.7017 86.7712 81.5405 86.7712 81.3773V81.0076H86.65C86.7275 80.742 86.769 80.4688 86.7712 80.1898C86.7713 80.182 86.7713 80.1742 86.7713 80.1664C86.7713 80.1624 86.7713 80.1585 86.7713 80.1545C86.7608 77.5326 83.2797 75.4092 78.987 75.4092C74.6943 75.4092 71.2132 77.5326 71.2027 80.1545ZM70.3496 80.1545H70.3495V81.3773C70.3495 83.1006 71.489 84.5226 73.0377 85.4691C74.601 86.4244 76.7065 86.9876 78.9869 86.9876C81.2673 86.9876 83.3727 86.4244 84.9361 85.4691C86.4847 84.5226 87.6243 83.1006 87.6243 81.3773V80.193C87.6243 80.1841 87.6244 80.1752 87.6244 80.1664C87.6244 78.4431 86.4848 77.021 84.9362 76.0746C83.3728 75.1192 81.2674 74.5561 78.987 74.5561C76.7066 74.5561 74.6011 75.1192 73.0378 76.0746C71.4927 77.0189 70.3548 78.4365 70.3496 80.1545Z" fill="#633001"/>
<path d="M86.7713 81.3773C86.7713 84.0046 83.2861 86.1345 78.987 86.1345C74.6878 86.1345 71.2026 84.0046 71.2026 81.3773V80.2612H86.7713V81.3773Z" fill="#FEDC90"/>
<path d="M86.7713 80.1664C86.7713 82.7937 83.2861 84.9235 78.987 84.9235C74.6878 84.9235 71.2026 82.7937 71.2026 80.1664C71.2026 77.539 74.6878 75.4092 78.987 75.4092C83.2861 75.4092 86.7713 77.539 86.7713 80.1664Z" fill="#D1884F"/>
<path fill-rule="evenodd" clip-rule="evenodd" d="M73.5488 77.5952C73.5487 77.5992 73.5487 77.6031 73.5487 77.6071C73.5487 77.8941 73.5903 78.1753 73.6701 78.4483H73.5486V78.818C73.5486 78.9812 73.5621 79.1425 73.5883 79.3014C73.9847 81.7017 77.3008 83.5752 81.3329 83.5752C85.3651 83.5752 88.6812 81.7017 89.0776 79.3014C89.1038 79.1425 89.1173 78.9812 89.1173 78.818V78.4483H88.996C89.0736 78.1827 89.1151 77.9095 89.1173 77.6305C89.1173 77.6227 89.1174 77.6149 89.1174 77.6071C89.1174 77.6031 89.1173 77.5992 89.1173 77.5952C89.1069 74.9733 85.6257 72.8499 81.333 72.8499C77.0404 72.8499 73.5592 74.9733 73.5488 77.5952ZM72.6957 77.5952H72.6956V78.818C72.6956 80.5413 73.8351 81.9633 75.3838 82.9098C76.9471 83.8651 79.0526 84.4283 81.3329 84.4283C83.6133 84.4283 85.7188 83.8651 87.2821 82.9098C88.8308 81.9633 89.9703 80.5413 89.9703 78.818V77.6337C89.9704 77.6248 89.9704 77.616 89.9704 77.6071C89.9704 75.8838 88.8309 74.4617 87.2822 73.5153C85.7189 72.5599 83.6134 71.9968 81.333 71.9968C79.0527 71.9968 76.9472 72.5599 75.3839 73.5153C73.8387 74.4596 72.7009 75.8772 72.6957 77.5952Z" fill="#633001"/>
<path d="M89.1172 78.818C89.1172 81.4453 85.6321 83.5752 81.3329 83.5752C77.0337 83.5752 73.5486 81.4453 73.5486 78.818V77.7019H89.1172V78.818Z" fill="#FEDC90"/>
<path d="M89.1172 77.6071C89.1172 80.2344 85.6321 82.3642 81.3329 82.3642C77.0337 82.3642 73.5486 80.2344 73.5486 77.6071C73.5486 74.9797 77.0337 72.8499 81.3329 72.8499C85.6321 72.8499 89.1172 74.9797 89.1172 77.6071Z" fill="#D1884F"/>
<path fill-rule="evenodd" clip-rule="evenodd" d="M71.2027 75.0359C71.2027 75.0399 71.2027 75.0438 71.2027 75.0478C71.2027 75.3348 71.2443 75.616 71.324 75.889H71.2026V76.2587C71.2026 76.4219 71.216 76.5832 71.2423 76.7421C71.6386 79.1424 74.9547 81.0159 78.9869 81.0159C83.019 81.0159 86.3351 79.1424 86.7315 76.7421C86.7578 76.5832 86.7712 76.4219 86.7712 76.2587V75.889H86.65C86.7275 75.6234 86.769 75.3502 86.7712 75.0712C86.7713 75.0634 86.7713 75.0556 86.7713 75.0478C86.7713 75.0438 86.7713 75.0399 86.7713 75.0359C86.7608 72.4141 83.2797 70.2906 78.987 70.2906C74.6943 70.2906 71.2132 72.4141 71.2027 75.0359ZM70.3496 75.0359H70.3495V76.2587C70.3495 77.982 71.489 79.404 73.0377 80.3505C74.601 81.3059 76.7065 81.869 78.9869 81.869C81.2673 81.869 83.3727 81.3059 84.9361 80.3505C86.4847 79.404 87.6243 77.982 87.6243 76.2587V75.0744C87.6243 75.0655 87.6244 75.0567 87.6244 75.0478C87.6244 73.3245 86.4848 71.9024 84.9362 70.956C83.3728 70.0006 81.2674 69.4375 78.987 69.4375C76.7066 69.4375 74.6011 70.0006 73.0378 70.956C71.4927 71.9003 70.3548 73.3179 70.3496 75.0359Z" fill="#633001"/>
<path d="M86.7713 76.2587C86.7713 78.886 83.2861 81.0159 78.987 81.0159C74.6878 81.0159 71.2026 78.886 71.2026 76.2587V75.1426H86.7713V76.2587Z" fill="#FEDC90"/>
<path d="M86.7713 75.0478C86.7713 77.6751 83.2861 79.8049 78.987 79.8049C74.6878 79.8049 71.2026 77.6751 71.2026 75.0478C71.2026 72.4204 74.6878 70.2906 78.987 70.2906C83.2861 70.2906 86.7713 72.4204 86.7713 75.0478Z" fill="#D1884F"/>
<path fill-rule="evenodd" clip-rule="evenodd" d="M73.0439 75.3438C73.0439 76.2209 73.6813 77.0066 74.6868 77.5351L73.9902 78.7418L73.9903 78.7419H73.9902V81.7959C73.9902 82.1997 74.3175 82.5271 74.7214 82.5271C75.1252 82.5271 75.4526 82.1997 75.4526 81.7959V79.3671L76.2021 78.0688C76.6814 78.1705 77.1958 78.2257 77.7313 78.2257C80.32 78.2257 82.4186 76.9354 82.4186 75.3438C82.4186 73.7522 80.32 72.4619 77.7313 72.4619C75.1425 72.4619 73.0439 73.7522 73.0439 75.3438Z" fill="url(#paint2_linear)"/>
<path fill-rule="evenodd" clip-rule="evenodd" d="M74.6868 77.5351C74.5755 77.4766 74.4686 77.4149 74.3666 77.3502C73.5479 76.8314 73.0439 76.1238 73.0439 75.3438C73.0439 73.7522 75.1425 72.4619 77.7313 72.4619C80.32 72.4619 82.4186 73.7522 82.4186 75.3438C82.4186 76.9354 80.32 78.2257 77.7313 78.2257C77.1958 78.2257 76.6814 78.1705 76.2021 78.0688L75.4526 79.3671V81.7959C75.4526 82.1997 75.1252 82.5271 74.7214 82.5271C74.3175 82.5271 73.9902 82.1997 73.9902 81.7959V78.7419L74.6868 77.5351ZM73.2437 78.7548V81.7959C73.2437 82.612 73.9053 83.2736 74.7214 83.2736C75.5375 83.2736 76.199 82.612 76.199 81.7959V79.5671L76.5878 78.8937C76.957 78.9452 77.3397 78.9721 77.7313 78.9721C79.1409 78.9721 80.4528 78.6224 81.4367 78.0175C82.4083 77.4201 83.165 76.4958 83.165 75.3438C83.165 74.1917 82.4083 73.2675 81.4367 72.6701C80.4528 72.0652 79.1409 71.7154 77.7313 71.7154C76.3216 71.7154 75.0097 72.0652 74.0259 72.6701C73.0542 73.2675 72.2975 74.1917 72.2975 75.3438C72.2975 76.3549 72.8766 77.1875 73.6812 77.784L73.3489 78.3597C73.3172 78.4127 73.2919 78.47 73.2741 78.5305C73.2522 78.6043 73.2424 78.6799 73.2437 78.7548Z" fill="#633001"/>
<path d="M74.5083 74.1295C74.5083 74.9541 75.5586 75.6225 76.8542 75.6225C78.1499 75.6225 79.2002 74.9541 79.2002 74.1295C79.2002 73.305 78.1499 72.6366 76.8542 72.6366C75.5586 72.6366 74.5083 73.305 74.5083 74.1295Z" fill="#9E7200"/>
<path d="M74.5083 73.4897H79.2002V74.1295H74.5083V73.4897Z" fill="#9E7200"/>
<path d="M74.5083 73.4897C74.5083 74.3142 75.5586 74.9826 76.8542 74.9826C78.1499 74.9826 79.2002 74.3142 79.2002 73.4897C79.2002 72.6652 78.1499 71.9968 76.8542 71.9968C75.5586 71.9968 74.5083 72.6652 74.5083 73.4897Z" fill="#F0B90B"/>
<path d="M75.964 73.3098L76.6252 72.889C76.765 72.8001 76.9435 72.8001 77.0832 72.889L77.7445 73.3098C77.8762 73.3936 77.8762 73.5858 77.7445 73.6696L77.0832 74.0904C76.9435 74.1794 76.765 74.1794 76.6252 74.0904L75.964 73.6696C75.8323 73.5858 75.8323 73.3936 75.964 73.3098Z" fill="#9E7200"/>
<path fill-rule="evenodd" clip-rule="evenodd" d="M74.7947 71.8043C75.3562 71.4469 76.0864 71.2503 76.8543 71.2503C77.6221 71.2503 78.3523 71.4469 78.9139 71.8043C79.4666 72.156 79.9467 72.7337 79.9467 73.4897V74.1295C79.9467 74.8855 79.4666 75.4632 78.9139 75.815C78.3523 76.1723 77.6221 76.3689 76.8543 76.3689C76.0864 76.3689 75.3562 76.1723 74.7947 75.815C74.242 75.4632 73.7618 74.8855 73.7618 74.1295V73.4897C73.7618 72.7337 74.242 72.156 74.7947 71.8043ZM76.8543 71.9968C75.5586 71.9968 74.5083 72.6652 74.5083 73.4897V74.1295C74.5083 74.9541 75.5586 75.6225 76.8543 75.6225C78.1499 75.6225 79.2002 74.9541 79.2002 74.1295V73.4897C79.2002 72.6652 78.1499 71.9968 76.8543 71.9968Z" fill="#633001"/>
<defs>
<linearGradient id="paint0_linear" x1="18.1305" y1="50.0004" x2="79.0317" y2="50.0004" gradientUnits="userSpaceOnUse">
<stop stop-color="#7CB7FF"/>
<stop offset="1" stop-color="#BA6DF6"/>
</linearGradient>
<linearGradient id="paint1_linear" x1="80" y1="64" x2="80" y2="96" gradientUnits="userSpaceOnUse">
<stop stop-color="#54DADE"/>
<stop offset="0.762157" stop-color="#24C7D6"/>
</linearGradient>
<linearGradient id="paint2_linear" x1="77.782" y1="72.5584" x2="77.782" y2="82.4515" gradientUnits="userSpaceOnUse">
<stop stop-color="#9F4A08"/>
<stop offset="0.370494" stop-color="#7D3900"/>
<stop offset="1" stop-color="#8D4104"/>
</linearGradient>
</defs>
</svg>
