<svg width="96" height="96" viewBox="0 0 96 96" fill="none" xmlns="http://www.w3.org/2000/svg">
<mask id="mask0" mask-type="alpha" maskUnits="userSpaceOnUse" x="0" y="0" width="96" height="96">
<path fill-rule="evenodd" clip-rule="evenodd" d="M96 0H0V96H69.7487C64.4865 92.6215 61 86.7179 61 80C61 69.5066 69.5066 61 80 61C86.7179 61 92.6215 64.4865 96 69.7487V0Z" fill="#C4C4C4"/>
</mask>
<g mask="url(#mask0)">
<path d="M48 96C74.5097 96 96 74.5097 96 48C96 21.4903 74.5097 0 48 0C21.4903 0 0 21.4903 0 48C0 74.5097 21.4903 96 48 96Z" fill="url(#paint0_linear)"/>
<path d="M14.9023 65.2416L31.4527 55.2512V37.5264L14.9023 47.52V65.2416Z" fill="#B5C7FF"/>
<path d="M48 65.2416L31.4528 55.2512V37.5264L48 47.52V65.2416Z" fill="white"/>
<path d="M48 65.2416L64.5472 55.2512V37.5264L48 47.52V65.2416Z" fill="#B5C7FF"/>
<path d="M81.0944 65.2416L64.5472 55.2512V37.5264L81.0944 47.52V65.2416Z" fill="white"/>
<path d="M48 27.4463L35.1904 35.1839L48 42.9183L60.8096 35.1839L48 27.4463Z" fill="#FAB508"/>
</g>
<circle cx="80" cy="80" r="16" fill="url(#paint1_linear)"/>
<path fill-rule="evenodd" clip-rule="evenodd" d="M69.6072 81.7578C69.6045 81.8176 69.6031 81.8776 69.6031 81.9377C69.6031 82.1652 69.6229 82.3898 69.6615 82.6109H69.6031V82.9591C69.6031 83.1291 69.6141 83.2975 69.6359 83.464C70.0595 86.7144 74.5379 89.2718 80 89.2718C85.4621 89.2718 89.9405 86.7144 90.3641 83.464C90.3859 83.2975 90.3969 83.1291 90.3969 82.9591V82.6109H90.3385C90.3771 82.3898 90.3969 82.1652 90.3969 81.9377C90.3969 81.8776 90.3955 81.8176 90.3928 81.7578C90.2359 78.3546 85.643 75.6251 80 75.6251C74.357 75.6251 69.7641 78.3546 69.6072 81.7578ZM68.7533 81.7578C68.8307 79.6814 70.2417 77.9372 72.2055 76.7448C74.2413 75.5087 76.9992 74.772 80 74.772C83.0008 74.772 85.7587 75.5087 87.7945 76.7448C89.7583 77.9372 91.1693 79.6814 91.2467 81.7578H91.25V82.9591C91.25 85.1147 89.8148 86.9254 87.7945 88.1521C85.7587 89.3881 83.0008 90.1249 80 90.1249C76.9992 90.1249 74.2413 89.3881 72.2055 88.1521C70.1852 86.9254 68.75 85.1147 68.75 82.9591V81.7578H68.7533Z" fill="#606063"/>
<path d="M90.3969 82.9595C90.3969 86.4459 85.742 89.2722 79.9999 89.2722C74.2579 89.2722 69.603 86.4459 69.603 82.9595V81.9602H90.3969V82.9595Z" fill="#BEBEBE"/>
<path d="M90.3969 81.9379C90.3969 85.4243 85.742 88.2506 79.9999 88.2506C74.2579 88.2506 69.603 85.4243 69.603 81.9379C69.603 78.4515 74.2579 75.6252 79.9999 75.6252C85.742 75.6252 90.3969 78.4515 90.3969 81.9379Z" fill="#FAF9FA"/>
<path fill-rule="evenodd" clip-rule="evenodd" d="M71.2027 80.1546C71.2027 80.1585 71.2027 80.1625 71.2027 80.1664C71.2027 80.4535 71.2443 80.7346 71.324 81.0077H71.2026V81.3774C71.2026 81.5405 71.216 81.7018 71.2423 81.8608C71.6386 84.261 74.9547 86.1345 78.9869 86.1345C83.019 86.1345 86.3351 84.261 86.7315 81.8608C86.7578 81.7018 86.7712 81.5405 86.7712 81.3774V81.0077H86.65C86.7275 80.7421 86.769 80.4688 86.7712 80.1899C86.7713 80.1821 86.7713 80.1743 86.7713 80.1664C86.7713 80.1625 86.7713 80.1585 86.7713 80.1546C86.7608 77.5327 83.2797 75.4093 78.987 75.4093C74.6943 75.4093 71.2132 77.5327 71.2027 80.1546ZM70.3496 80.1546H70.3495V81.3774C70.3495 83.1007 71.489 84.5227 73.0377 85.4691C74.601 86.4245 76.7065 86.9876 78.9869 86.9876C81.2673 86.9876 83.3727 86.4245 84.9361 85.4691C86.4847 84.5227 87.6243 83.1007 87.6243 81.3774V80.1931C87.6243 80.1842 87.6244 80.1753 87.6244 80.1664C87.6244 78.4431 86.4848 77.0211 84.9362 76.0747C83.3728 75.1193 81.2674 74.5562 78.987 74.5562C76.7066 74.5562 74.6011 75.1193 73.0378 76.0747C71.4927 77.0189 70.3548 78.4366 70.3496 80.1546Z" fill="#633001"/>
<path d="M86.7713 81.3774C86.7713 84.0047 83.2861 86.1346 78.987 86.1346C74.6878 86.1346 71.2026 84.0047 71.2026 81.3774V80.2612H86.7713V81.3774Z" fill="#FEDC90"/>
<path d="M86.7713 80.1664C86.7713 82.7937 83.2861 84.9235 78.987 84.9235C74.6878 84.9235 71.2026 82.7937 71.2026 80.1664C71.2026 77.539 74.6878 75.4092 78.987 75.4092C83.2861 75.4092 86.7713 77.539 86.7713 80.1664Z" fill="#D1884F"/>
<path fill-rule="evenodd" clip-rule="evenodd" d="M73.5488 77.5952C73.5487 77.5992 73.5487 77.6031 73.5487 77.6071C73.5487 77.8942 73.5903 78.1753 73.6701 78.4483H73.5486V78.818C73.5486 78.9812 73.5621 79.1425 73.5883 79.3014C73.9847 81.7017 77.3008 83.5752 81.3329 83.5752C85.3651 83.5752 88.6812 81.7017 89.0776 79.3014C89.1038 79.1425 89.1173 78.9812 89.1173 78.818V78.4483H88.996C89.0736 78.1827 89.1151 77.9095 89.1173 77.6306C89.1173 77.6228 89.1174 77.6149 89.1174 77.6071C89.1174 77.6031 89.1173 77.5992 89.1173 77.5952C89.1069 74.9734 85.6257 72.8499 81.333 72.8499C77.0404 72.8499 73.5592 74.9734 73.5488 77.5952ZM72.6957 77.5952H72.6956V78.818C72.6956 80.5413 73.8351 81.9634 75.3838 82.9098C76.9471 83.8652 79.0526 84.4283 81.3329 84.4283C83.6133 84.4283 85.7188 83.8652 87.2821 82.9098C88.8308 81.9634 89.9703 80.5413 89.9703 78.818V77.6337C89.9704 77.6249 89.9704 77.616 89.9704 77.6071C89.9704 75.8838 88.8309 74.4618 87.2822 73.5153C85.7189 72.56 83.6134 71.9968 81.333 71.9968C79.0527 71.9968 76.9472 72.56 75.3839 73.5153C73.8387 74.4596 72.7009 75.8773 72.6957 77.5952Z" fill="#633001"/>
<path d="M89.1172 78.8181C89.1172 81.4454 85.6321 83.5752 81.3329 83.5752C77.0337 83.5752 73.5486 81.4454 73.5486 78.8181V77.7019H89.1172V78.8181Z" fill="#FEDC90"/>
<path d="M89.1172 77.607C89.1172 80.2344 85.6321 82.3642 81.3329 82.3642C77.0337 82.3642 73.5486 80.2344 73.5486 77.607C73.5486 74.9797 77.0337 72.8499 81.3329 72.8499C85.6321 72.8499 89.1172 74.9797 89.1172 77.607Z" fill="#D1884F"/>
<path fill-rule="evenodd" clip-rule="evenodd" d="M71.2027 75.0359C71.2027 75.0399 71.2027 75.0438 71.2027 75.0478C71.2027 75.3348 71.2443 75.616 71.324 75.889H71.2026V76.2587C71.2026 76.4219 71.216 76.5832 71.2423 76.7421C71.6386 79.1424 74.9547 81.0159 78.9869 81.0159C83.019 81.0159 86.3351 79.1424 86.7315 76.7421C86.7578 76.5832 86.7712 76.4219 86.7712 76.2587V75.889H86.65C86.7275 75.6234 86.769 75.3502 86.7712 75.0712C86.7713 75.0634 86.7713 75.0556 86.7713 75.0478C86.7713 75.0438 86.7713 75.0399 86.7713 75.0359C86.7608 72.4141 83.2797 70.2906 78.987 70.2906C74.6943 70.2906 71.2132 72.4141 71.2027 75.0359ZM70.3496 75.0359H70.3495V76.2587C70.3495 77.982 71.489 79.404 73.0377 80.3505C74.601 81.3059 76.7065 81.869 78.9869 81.869C81.2673 81.869 83.3727 81.3059 84.9361 80.3505C86.4847 79.404 87.6243 77.982 87.6243 76.2587V75.0744C87.6243 75.0655 87.6244 75.0567 87.6244 75.0478C87.6244 73.3245 86.4848 71.9024 84.9362 70.956C83.3728 70.0006 81.2674 69.4375 78.987 69.4375C76.7066 69.4375 74.6011 70.0006 73.0378 70.956C71.4927 71.9003 70.3548 73.3179 70.3496 75.0359Z" fill="#633001"/>
<path d="M86.7713 76.2587C86.7713 78.886 83.2861 81.0159 78.987 81.0159C74.6878 81.0159 71.2026 78.886 71.2026 76.2587V75.1426H86.7713V76.2587Z" fill="#FEDC90"/>
<path d="M86.7713 75.0477C86.7713 77.675 83.2861 79.8049 78.987 79.8049C74.6878 79.8049 71.2026 77.675 71.2026 75.0477C71.2026 72.4204 74.6878 70.2905 78.987 70.2905C83.2861 70.2905 86.7713 72.4204 86.7713 75.0477Z" fill="#D1884F"/>
<path fill-rule="evenodd" clip-rule="evenodd" d="M73.0439 75.3438C73.0439 76.221 73.6813 77.0066 74.6868 77.5352L73.9902 78.7419L73.9903 78.7419H73.9902V81.7959C73.9902 82.1997 74.3175 82.5271 74.7214 82.5271C75.1252 82.5271 75.4526 82.1997 75.4526 81.7959V79.3671L76.2021 78.0689C76.6814 78.1705 77.1958 78.2257 77.7313 78.2257C80.32 78.2257 82.4186 76.9354 82.4186 75.3438C82.4186 73.7522 80.32 72.4619 77.7313 72.4619C75.1425 72.4619 73.0439 73.7522 73.0439 75.3438Z" fill="url(#paint2_linear)"/>
<path fill-rule="evenodd" clip-rule="evenodd" d="M74.6868 77.535C74.5755 77.4765 74.4686 77.4148 74.3666 77.3501C73.5479 76.8313 73.0439 76.1237 73.0439 75.3437C73.0439 73.7521 75.1425 72.4618 77.7313 72.4618C80.32 72.4618 82.4186 73.7521 82.4186 75.3437C82.4186 76.9353 80.32 78.2256 77.7313 78.2256C77.1958 78.2256 76.6814 78.1704 76.2021 78.0687L75.4526 79.367V81.7958C75.4526 82.1996 75.1252 82.527 74.7214 82.527C74.3175 82.527 73.9902 82.1996 73.9902 81.7958V78.7418L74.6868 77.535ZM73.2437 78.7547V81.7958C73.2437 82.6119 73.9053 83.2735 74.7214 83.2735C75.5375 83.2735 76.199 82.6119 76.199 81.7958V79.567L76.5878 78.8936C76.957 78.9451 77.3397 78.972 77.7313 78.972C79.1409 78.972 80.4528 78.6223 81.4367 78.0174C82.4083 77.42 83.165 76.4957 83.165 75.3437C83.165 74.1916 82.4083 73.2674 81.4367 72.67C80.4528 72.0651 79.1409 71.7153 77.7313 71.7153C76.3216 71.7153 75.0097 72.0651 74.0259 72.67C73.0542 73.2674 72.2975 74.1916 72.2975 75.3437C72.2975 76.3548 72.8766 77.1874 73.6812 77.7839L73.3489 78.3596C73.3172 78.4126 73.2919 78.4699 73.2741 78.5304C73.2522 78.6042 73.2424 78.6798 73.2437 78.7547Z" fill="#633001"/>
<path d="M74.5083 74.1296C74.5083 74.9542 75.5586 75.6226 76.8542 75.6226C78.1499 75.6226 79.2002 74.9542 79.2002 74.1296C79.2002 73.3051 78.1499 72.6367 76.8542 72.6367C75.5586 72.6367 74.5083 73.3051 74.5083 74.1296Z" fill="#9E7200"/>
<path d="M74.5083 73.4897H79.2002V74.1296H74.5083V73.4897Z" fill="#9E7200"/>
<path d="M74.5083 73.4897C74.5083 74.3143 75.5586 74.9827 76.8542 74.9827C78.1499 74.9827 79.2002 74.3143 79.2002 73.4897C79.2002 72.6652 78.1499 71.9968 76.8542 71.9968C75.5586 71.9968 74.5083 72.6652 74.5083 73.4897Z" fill="#F0B90B"/>
<path d="M75.964 73.3098L76.6252 72.889C76.765 72.8 76.9435 72.8 77.0832 72.889L77.7445 73.3098C77.8762 73.3936 77.8762 73.5858 77.7445 73.6696L77.0832 74.0904C76.9435 74.1793 76.765 74.1793 76.6252 74.0904L75.964 73.6696C75.8323 73.5858 75.8323 73.3936 75.964 73.3098Z" fill="#9E7200"/>
<path fill-rule="evenodd" clip-rule="evenodd" d="M74.7947 71.8042C75.3562 71.4469 76.0864 71.2502 76.8543 71.2502C77.6221 71.2502 78.3523 71.4469 78.9139 71.8042C79.4666 72.1559 79.9467 72.7336 79.9467 73.4896V74.1294C79.9467 74.8854 79.4666 75.4631 78.9139 75.8149C78.3523 76.1722 77.6221 76.3688 76.8543 76.3688C76.0864 76.3688 75.3562 76.1722 74.7947 75.8149C74.242 75.4631 73.7618 74.8854 73.7618 74.1294V73.4896C73.7618 72.7336 74.242 72.1559 74.7947 71.8042ZM76.8543 71.9967C75.5586 71.9967 74.5083 72.6651 74.5083 73.4896V74.1294C74.5083 74.954 75.5586 75.6224 76.8543 75.6224C78.1499 75.6224 79.2002 74.954 79.2002 74.1294V73.4896C79.2002 72.6651 78.1499 71.9967 76.8543 71.9967Z" fill="#633001"/>
<defs>
<linearGradient id="paint0_linear" x1="0" y1="48" x2="96" y2="48" gradientUnits="userSpaceOnUse">
<stop offset="5.4e-07" stop-color="#1B6FF5"/>
<stop offset="1" stop-color="#1B46F5"/>
</linearGradient>
<linearGradient id="paint1_linear" x1="80" y1="64" x2="80" y2="96" gradientUnits="userSpaceOnUse">
<stop stop-color="#54DADE"/>
<stop offset="0.762157" stop-color="#24C7D6"/>
</linearGradient>
<linearGradient id="paint2_linear" x1="77.782" y1="72.5584" x2="77.782" y2="82.4515" gradientUnits="userSpaceOnUse">
<stop stop-color="#9F4A08"/>
<stop offset="0.370494" stop-color="#7D3900"/>
<stop offset="1" stop-color="#8D4104"/>
</linearGradient>
</defs>
</svg>
