<svg xmlns="http://www.w3.org/2000/svg" width="96" height="96" fill="none" viewBox="0 0 96 96"><mask id="mask0" width="96" height="96" x="0" y="0" mask-type="alpha" maskUnits="userSpaceOnUse"><path fill="#C4C4C4" fill-rule="evenodd" d="M96 0H0V96H69.7487C64.4865 92.6215 61 86.7179 61 80C61 69.5066 69.5066 61 80 61C86.7179 61 92.6215 64.4865 96 69.7487V0Z" clip-rule="evenodd"/></mask><g mask="url(#mask0)"><path fill="#151A2F" d="M48 0C74.5111 0 96 21.4888 96 48C96 74.5111 74.5111 96 48 96C21.4888 96 0 74.5111 0 48C0 21.4888 21.4888 0 48 0Z"/><path fill="#734CE2" d="M47.8353 83.8148C49.154 83.8148 50.223 82.7458 50.223 81.4271C50.223 80.1084 49.154 79.0394 47.8353 79.0394C46.5167 79.0394 45.4477 80.1084 45.4477 81.4271C45.4477 82.7458 46.5167 83.8148 47.8353 83.8148Z"/><path fill="#734CE2" d="M19.1835 33.5917C20.5009 33.5917 21.5712 32.5213 21.5712 31.204C21.5712 31.1711 21.5712 31.1382 21.5712 31.1217L31.8793 24.7162C32.3239 25.2102 32.9496 25.5231 33.6741 25.5231C34.3328 25.5231 34.9256 25.2596 35.3537 24.8315L44.9702 30.9735C44.9702 31.0558 44.9537 31.1217 44.9537 31.204C44.9537 32.8013 46.2381 34.0857 47.8353 34.0857C49.4326 34.0857 50.717 32.8013 50.717 31.204C50.717 31.1546 50.717 31.1052 50.717 31.0558L60.6793 25.0291C61.1074 25.4407 61.6837 25.7042 62.3259 25.7042C63.6432 25.7042 64.7136 24.6339 64.7136 23.3165C64.7136 21.9992 63.6432 20.9289 62.3259 20.9289C61.0251 20.9289 59.9712 21.9663 59.9383 23.2507L59.9053 23.1848L49.9266 29.228C49.3997 28.6846 48.6587 28.3388 47.8353 28.3388C47.045 28.3388 46.3204 28.6682 45.7935 29.1786L36.0453 22.9543C35.9465 21.7357 34.9256 20.7642 33.6741 20.7642C32.4885 20.7642 31.517 21.6205 31.3194 22.7567L20.682 29.3598C20.2703 29.0304 19.7434 28.8328 19.1835 28.8328C17.8662 28.8328 16.7959 29.9032 16.7959 31.2205C16.7959 32.5378 17.8662 33.5917 19.1835 33.5917Z"/><path fill="#734CE2" d="M47.8353 16.7959C49.154 16.7959 50.223 15.7269 50.223 14.4082C50.223 13.0896 49.154 12.0206 47.8353 12.0206C46.5167 12.0206 45.4477 13.0896 45.4477 14.4082C45.4477 15.7269 46.5167 16.7959 47.8353 16.7959Z"/><path fill="#734CE2" d="M76.6518 45.4477C75.3345 45.4477 74.2642 46.518 74.2642 47.8353C74.2642 47.9341 74.2806 48.0494 74.2806 48.1482L64.4336 54.1091C63.9067 53.5492 63.1657 53.187 62.3259 53.187C61.3708 53.187 60.5311 53.648 60.0041 54.3561L51.5403 48.9386C51.6556 48.5928 51.705 48.2141 51.705 47.8353C51.705 47.506 51.6556 47.1931 51.5897 46.8967L60.3993 41.5616C60.9098 42.0226 61.5849 42.319 62.3259 42.319C63.9232 42.319 65.2076 41.0346 65.2076 39.4374C65.2076 39.3057 65.1911 39.1904 65.1746 39.0751L75.1204 33.0484C75.5321 33.3942 76.059 33.5918 76.6353 33.5918C77.9527 33.5918 79.023 32.5214 79.023 31.2041C79.023 29.8868 77.9527 28.8165 76.6353 28.8165C75.318 28.8165 74.2477 29.8868 74.2477 31.2041C74.2477 31.2206 74.2477 31.2371 74.2477 31.2535L64.2525 37.3132C63.742 36.8357 63.0669 36.5557 62.3094 36.5557C60.7122 36.5557 59.4278 37.8401 59.4278 39.4374C59.4278 39.5691 59.4443 39.6844 59.4607 39.8161L50.5853 45.1842C49.9101 44.5256 49.0045 44.1304 47.9835 44.1304C46.8638 44.1304 45.8594 44.6244 45.1842 45.4148L36.0618 39.5691C36.0618 39.5197 36.0618 39.4868 36.0618 39.4374C36.0618 37.8401 34.7774 36.5557 33.1801 36.5557C31.5829 36.5557 30.2985 37.8401 30.2985 39.4374C30.2985 39.6679 30.3314 39.8985 30.3808 40.1125L20.7973 46.0734C20.3691 45.6782 19.8093 45.4477 19.1835 45.4477C17.8662 45.4477 16.7959 46.518 16.7959 47.8353C16.7959 49.1527 17.8662 50.223 19.1835 50.223C20.4844 50.223 21.5218 49.2021 21.5712 47.9177L31.4841 41.7592C31.9616 42.105 32.5544 42.319 33.1801 42.319C34.0034 42.319 34.7444 41.9732 35.2714 41.4134L44.3444 47.2096C44.3115 47.4072 44.295 47.6213 44.295 47.8353C44.295 48.2141 44.3444 48.5763 44.4597 48.9221L35.8148 54.1585C35.2878 53.5657 34.5304 53.2034 33.6741 53.2034C32.0769 53.2034 30.7925 54.4878 30.7925 56.0851C30.7925 56.2168 30.8089 56.365 30.8254 56.4967L20.7973 62.7211C20.3691 62.3259 19.8093 62.0954 19.1835 62.0954C17.8662 62.0954 16.7959 63.1657 16.7959 64.483C16.7959 65.8003 17.8662 66.8707 19.1835 66.8707C20.4844 66.8707 21.5218 65.8497 21.5712 64.5654L31.764 58.2422C32.2745 58.7033 32.9496 58.9667 33.6741 58.9667C35.2714 58.9667 36.5558 57.6823 36.5558 56.0851C36.5558 56.0686 36.5558 56.0521 36.5558 56.0357L45.5136 50.6017C46.1722 51.1945 47.045 51.5568 48 51.5568C48.9386 51.5568 49.8113 51.1945 50.47 50.6182L59.4607 56.365C59.6089 57.8305 60.8275 58.9667 62.3259 58.9667C63.9232 58.9667 65.2076 57.6823 65.2076 56.0851C65.2076 56.0521 65.2076 56.0027 65.2076 55.9698L75.3345 49.8443C75.7132 50.0913 76.1743 50.2395 76.6518 50.2395C77.9691 50.2395 79.0395 49.1691 79.0395 47.8518C79.0395 46.5345 77.9691 45.4477 76.6518 45.4477Z"/><path fill="#734CE2" d="M76.6517 62.0789C75.3509 62.0789 74.297 63.1163 74.2641 64.4171L63.6267 70.8556C63.248 70.6086 62.8034 70.4768 62.3258 70.4768C61.7824 70.4768 61.2884 70.658 60.8932 70.9544L50.7169 64.4501C50.7169 64.4007 50.7169 64.3513 50.7169 64.3019C50.7169 62.7046 49.4325 61.4202 47.8353 61.4202C46.238 61.4202 44.9536 62.7046 44.9536 64.3019C44.9536 64.4995 44.9701 64.6971 45.0195 64.8782L35.189 70.8391C34.7773 70.5098 34.2504 70.3122 33.6905 70.3122C32.3732 70.3122 31.3029 71.3825 31.3029 72.6998C31.3029 74.0171 32.3732 75.0875 33.6905 75.0875C35.0078 75.0875 36.0782 74.0171 36.0782 72.6998C36.0782 72.6669 36.0782 72.6339 36.0782 72.6175L46.0734 66.5578C46.5673 66.9365 47.1766 67.1835 47.8517 67.1835C48.6751 67.1835 49.4161 66.8377 49.943 66.2943L59.9711 72.6998C59.9711 72.7492 59.9547 72.8151 59.9547 72.8645C59.9547 74.1818 61.025 75.2521 62.3423 75.2521C63.6596 75.2521 64.73 74.1818 64.73 72.8645C64.73 72.7492 64.7135 72.6339 64.697 72.5351L75.0709 66.2449C75.4991 66.6237 76.0425 66.8542 76.6517 66.8542C77.9691 66.8542 79.0394 65.7839 79.0394 64.4665C79.0394 63.1492 77.9691 62.0789 76.6517 62.0789Z"/></g><circle cx="80" cy="80" r="16" fill="url(#paint0_linear)"/><path fill="#606063" fill-rule="evenodd" d="M69.6072 81.758C69.6045 81.8177 69.6031 81.8777 69.6031 81.9379C69.6031 82.1653 69.6229 82.3899 69.6615 82.6111H69.6031V82.9593C69.6031 83.1292 69.6141 83.2976 69.6359 83.4642C70.0595 86.7145 74.5379 89.2719 80 89.2719C85.4621 89.2719 89.9405 86.7145 90.3641 83.4642C90.3859 83.2976 90.3969 83.1292 90.3969 82.9593V82.6111H90.3385C90.3771 82.3899 90.3969 82.1653 90.3969 81.9379C90.3969 81.8777 90.3955 81.8177 90.3928 81.758C90.2359 78.3548 85.643 75.6252 80 75.6252C74.357 75.6252 69.7641 78.3548 69.6072 81.758ZM68.7533 81.758C68.8307 79.6815 70.2417 77.9373 72.2055 76.7449C74.2413 75.5089 76.9992 74.7721 80 74.7721C83.0008 74.7721 85.7587 75.5089 87.7945 76.7449C89.7583 77.9373 91.1693 79.6815 91.2467 81.758H91.25V82.9593C91.25 85.1148 89.8148 86.9255 87.7945 88.1522C85.7587 89.3883 83.0008 90.125 80 90.125C76.9992 90.125 74.2413 89.3883 72.2055 88.1522C70.1852 86.9255 68.75 85.1148 68.75 82.9593V81.758H68.7533Z" clip-rule="evenodd"/><path fill="#BEBEBE" d="M90.3969 82.9594C90.3969 86.4458 85.7421 89.2721 80 89.2721C74.2579 89.2721 69.6031 86.4458 69.6031 82.9594V81.9601H90.3969V82.9594Z"/><path fill="#FAF9FA" d="M90.3969 81.9379C90.3969 85.4242 85.7421 88.2505 80 88.2505C74.2579 88.2505 69.6031 85.4242 69.6031 81.9379C69.6031 78.4515 74.2579 75.6252 80 75.6252C85.7421 75.6252 90.3969 78.4515 90.3969 81.9379Z"/><path fill="#633001" fill-rule="evenodd" d="M71.2027 80.1545C71.2027 80.1585 71.2027 80.1624 71.2027 80.1664C71.2027 80.4534 71.2443 80.7346 71.3241 81.0076H71.2026V81.3773C71.2026 81.5405 71.2161 81.7017 71.2423 81.8607C71.6387 84.261 74.9548 86.1345 78.9869 86.1345C83.0191 86.1345 86.3352 84.261 86.7316 81.8607C86.7578 81.7017 86.7713 81.5405 86.7713 81.3773V81.0076H86.65C86.7276 80.742 86.7691 80.4688 86.7713 80.1898C86.7713 80.182 86.7713 80.1742 86.7713 80.1664C86.7713 80.1624 86.7713 80.1585 86.7713 80.1545C86.7609 77.5326 83.2797 75.4092 78.987 75.4092C74.6943 75.4092 71.2132 77.5326 71.2027 80.1545ZM70.3497 80.1545H70.3495V81.3773C70.3495 83.1006 71.4891 84.5226 73.0378 85.4691C74.6011 86.4244 76.7066 86.9876 78.9869 86.9876C81.2673 86.9876 83.3728 86.4244 84.9361 85.4691C86.4848 84.5226 87.6243 83.1006 87.6243 81.3773V80.193C87.6244 80.1841 87.6244 80.1752 87.6244 80.1664C87.6244 78.4431 86.4849 77.021 84.9362 76.0746C83.3729 75.1192 81.2674 74.5561 78.987 74.5561C76.7066 74.5561 74.6012 75.1192 73.0379 76.0746C71.4927 77.0189 70.3549 78.4365 70.3497 80.1545Z" clip-rule="evenodd"/><path fill="#FEDC90" d="M86.7713 81.3773C86.7713 84.0046 83.2861 86.1345 78.987 86.1345C74.6878 86.1345 71.2026 84.0046 71.2026 81.3773V80.2612H86.7713V81.3773Z"/><path fill="#D1884F" d="M86.7713 80.1664C86.7713 82.7937 83.2861 84.9235 78.987 84.9235C74.6878 84.9235 71.2026 82.7937 71.2026 80.1664C71.2026 77.539 74.6878 75.4092 78.987 75.4092C83.2861 75.4092 86.7713 77.539 86.7713 80.1664Z"/><path fill="#633001" fill-rule="evenodd" d="M73.5487 77.5952C73.5487 77.5991 73.5487 77.6031 73.5487 77.607C73.5487 77.8941 73.5903 78.1752 73.67 78.4483H73.5486V78.818C73.5486 78.9812 73.562 79.1424 73.5883 79.3014C73.9846 81.7016 77.3008 83.5751 81.3329 83.5751C85.365 83.5751 88.6811 81.7016 89.0775 79.3014C89.1038 79.1424 89.1172 78.9812 89.1172 78.818V78.4483H88.996C89.0735 78.1827 89.115 77.9094 89.1172 77.6305C89.1173 77.6227 89.1173 77.6149 89.1173 77.607C89.1173 77.6031 89.1173 77.5991 89.1173 77.5952C89.1068 74.9733 85.6257 72.8499 81.333 72.8499C77.0403 72.8499 73.5592 74.9733 73.5487 77.5952ZM72.6956 77.5952H72.6955V78.818C72.6955 80.5413 73.835 81.9633 75.3837 82.9097C76.947 83.8651 79.0525 84.4282 81.3329 84.4282C83.6133 84.4282 85.7188 83.8651 87.2821 82.9097C88.8307 81.9633 89.9703 80.5413 89.9703 78.818V77.6337C89.9703 77.6248 89.9704 77.6159 89.9704 77.607C89.9704 75.8837 88.8308 74.4617 87.2822 73.5153C85.7188 72.5599 83.6134 71.9968 81.333 71.9968C79.0526 71.9968 76.9471 72.5599 75.3838 73.5153C73.8387 74.4595 72.7008 75.8772 72.6956 77.5952Z" clip-rule="evenodd"/><path fill="#FEDC90" d="M89.1172 78.8181C89.1172 81.4454 85.6321 83.5752 81.3329 83.5752C77.0337 83.5752 73.5486 81.4454 73.5486 78.8181V77.7019H89.1172V78.8181Z"/><path fill="#D1884F" d="M89.1172 77.6071C89.1172 80.2344 85.6321 82.3643 81.3329 82.3643C77.0337 82.3643 73.5486 80.2344 73.5486 77.6071C73.5486 74.9798 77.0337 72.8499 81.3329 72.8499C85.6321 72.8499 89.1172 74.9798 89.1172 77.6071Z"/><path fill="#633001" fill-rule="evenodd" d="M71.2027 75.0359C71.2027 75.0399 71.2027 75.0438 71.2027 75.0478C71.2027 75.3348 71.2443 75.616 71.3241 75.889H71.2026V76.2587C71.2026 76.4219 71.2161 76.5832 71.2423 76.7421C71.6387 79.1424 74.9548 81.0159 78.9869 81.0159C83.0191 81.0159 86.3352 79.1424 86.7316 76.7421C86.7578 76.5832 86.7713 76.4219 86.7713 76.2587V75.889H86.65C86.7276 75.6234 86.7691 75.3502 86.7713 75.0712C86.7713 75.0634 86.7713 75.0556 86.7713 75.0478C86.7713 75.0438 86.7713 75.0399 86.7713 75.0359C86.7609 72.4141 83.2797 70.2906 78.987 70.2906C74.6943 70.2906 71.2132 72.4141 71.2027 75.0359ZM70.3497 75.0359H70.3495V76.2587C70.3495 77.982 71.4891 79.404 73.0378 80.3505C74.6011 81.3059 76.7066 81.869 78.9869 81.869C81.2673 81.869 83.3728 81.3059 84.9361 80.3505C86.4848 79.404 87.6243 77.982 87.6243 76.2587V75.0744C87.6244 75.0655 87.6244 75.0567 87.6244 75.0478C87.6244 73.3245 86.4849 71.9024 84.9362 70.956C83.3729 70.0006 81.2674 69.4375 78.987 69.4375C76.7066 69.4375 74.6012 70.0006 73.0379 70.956C71.4927 71.9003 70.3549 73.3179 70.3497 75.0359Z" clip-rule="evenodd"/><path fill="#FEDC90" d="M86.7713 76.2587C86.7713 78.886 83.2861 81.0159 78.987 81.0159C74.6878 81.0159 71.2026 78.886 71.2026 76.2587V75.1426H86.7713V76.2587Z"/><path fill="#D1884F" d="M86.7713 75.0478C86.7713 77.6751 83.2861 79.8049 78.987 79.8049C74.6878 79.8049 71.2026 77.6751 71.2026 75.0478C71.2026 72.4204 74.6878 70.2906 78.987 70.2906C83.2861 70.2906 86.7713 72.4204 86.7713 75.0478Z"/><path fill="url(#paint1_linear)" fill-rule="evenodd" d="M73.0439 75.3437C73.0439 76.2209 73.6813 77.0065 74.6868 77.5351L73.9902 78.7418L73.9903 78.7419H73.9902V81.7958C73.9902 82.1997 74.3175 82.5271 74.7214 82.5271C75.1252 82.5271 75.4526 82.1997 75.4526 81.7958V79.3671L76.2021 78.0688C76.6814 78.1704 77.1958 78.2256 77.7313 78.2256C80.32 78.2256 82.4186 76.9354 82.4186 75.3437C82.4186 73.7521 80.32 72.4619 77.7313 72.4619C75.1425 72.4619 73.0439 73.7521 73.0439 75.3437Z" clip-rule="evenodd"/><path fill="#633001" fill-rule="evenodd" d="M74.6868 77.5351C74.5755 77.4765 74.4686 77.4148 74.3666 77.3502C73.5479 76.8313 73.0439 76.1237 73.0439 75.3437C73.0439 73.7521 75.1425 72.4619 77.7313 72.4619C80.32 72.4619 82.4186 73.7521 82.4186 75.3437C82.4186 76.9354 80.32 78.2256 77.7313 78.2256C77.1958 78.2256 76.6814 78.1704 76.2021 78.0688L75.4526 79.3671V81.7958C75.4526 82.1997 75.1252 82.5271 74.7214 82.5271C74.3175 82.5271 73.9902 82.1997 73.9902 81.7958V78.7419L74.6868 77.5351ZM73.2437 78.7547V81.7958C73.2437 82.6119 73.9053 83.2735 74.7214 83.2735C75.5375 83.2735 76.199 82.6119 76.199 81.7958V79.5671L76.5878 78.8937C76.957 78.9452 77.3397 78.9721 77.7313 78.9721C79.1409 78.9721 80.4528 78.6223 81.4367 78.0174C82.4083 77.4201 83.165 76.4958 83.165 75.3437C83.165 74.1917 82.4083 73.2674 81.4367 72.67C80.4528 72.0652 79.1409 71.7154 77.7313 71.7154C76.3216 71.7154 75.0097 72.0652 74.0259 72.67C73.0542 73.2674 72.2975 74.1917 72.2975 75.3437C72.2975 76.3548 72.8766 77.1874 73.6812 77.784L73.3489 78.3596C73.3172 78.4127 73.2919 78.47 73.2741 78.5305C73.2522 78.6043 73.2424 78.6799 73.2437 78.7547Z" clip-rule="evenodd"/><path fill="#9E7200" d="M74.5083 74.1295C74.5083 74.954 75.5586 75.6224 76.8543 75.6224C78.1499 75.6224 79.2003 74.954 79.2003 74.1295C79.2003 73.305 78.1499 72.6366 76.8543 72.6366C75.5586 72.6366 74.5083 73.305 74.5083 74.1295Z"/><path fill="#9E7200" d="M74.5083 73.4897H79.2002V74.1296H74.5083V73.4897Z"/><path fill="#F0B90B" d="M74.5083 73.4897C74.5083 74.3142 75.5586 74.9826 76.8543 74.9826C78.1499 74.9826 79.2003 74.3142 79.2003 73.4897C79.2003 72.6652 78.1499 71.9968 76.8543 71.9968C75.5586 71.9968 74.5083 72.6652 74.5083 73.4897Z"/><path fill="#9E7200" d="M75.964 73.3098L76.6252 72.889C76.765 72.8 76.9435 72.8 77.0832 72.889L77.7445 73.3098C77.8762 73.3936 77.8762 73.5858 77.7445 73.6696L77.0832 74.0904C76.9435 74.1793 76.765 74.1793 76.6252 74.0904L75.964 73.6696C75.8323 73.5858 75.8323 73.3936 75.964 73.3098Z"/><path fill="#633001" fill-rule="evenodd" d="M74.7947 71.8043C75.3562 71.4469 76.0864 71.2503 76.8543 71.2503C77.6221 71.2503 78.3523 71.4469 78.9139 71.8043C79.4666 72.156 79.9467 72.7337 79.9467 73.4897V74.1295C79.9467 74.8855 79.4666 75.4632 78.9139 75.8149C78.3523 76.1723 77.6221 76.3689 76.8543 76.3689C76.0864 76.3689 75.3562 76.1723 74.7947 75.8149C74.242 75.4632 73.7618 74.8855 73.7618 74.1295V73.4897C73.7618 72.7337 74.242 72.156 74.7947 71.8043ZM76.8543 71.9968C75.5586 71.9968 74.5083 72.6652 74.5083 73.4897V74.1295C74.5083 74.954 75.5586 75.6224 76.8543 75.6224C78.1499 75.6224 79.2002 74.954 79.2002 74.1295V73.4897C79.2002 72.6652 78.1499 71.9968 76.8543 71.9968Z" clip-rule="evenodd"/><defs><linearGradient id="paint0_linear" x1="80" x2="80" y1="64" y2="96" gradientUnits="userSpaceOnUse"><stop stop-color="#54DADE"/><stop offset=".762" stop-color="#24C7D6"/></linearGradient><linearGradient id="paint1_linear" x1="77.782" x2="77.782" y1="72.558" y2="82.451" gradientUnits="userSpaceOnUse"><stop stop-color="#9F4A08"/><stop offset=".37" stop-color="#7D3900"/><stop offset="1" stop-color="#8D4104"/></linearGradient></defs></svg>