<svg width="96" height="96" viewBox="0 0 96 96" fill="none" xmlns="http://www.w3.org/2000/svg">
<mask id="mask0" mask-type="alpha" maskUnits="userSpaceOnUse" x="0" y="0" width="96" height="96">
<path fill-rule="evenodd" clip-rule="evenodd" d="M96 0H0V96H69.7487C64.4865 92.6215 61 86.7179 61 80C61 69.5066 69.5066 61 80 61C86.7179 61 92.6215 64.4865 96 69.7487V0Z" fill="#C4C4C4"/>
</mask>
<g mask="url(#mask0)">
<circle cx="48" cy="48" r="48" fill="white"/>
<path d="M10.8193 63.0917L10.8193 63.0918C12.843 68.0767 15.8043 72.5358 19.6343 76.3657C23.4641 80.1956 27.9346 83.1684 32.9083 85.1807C37.7104 87.1358 42.7868 88.119 48 88.119C53.202 88.119 58.2898 87.1243 63.0917 85.1807L63.0918 85.1807C68.0767 83.157 72.5358 80.1957 76.3657 76.3657C80.1956 72.5359 83.1684 68.0654 85.1807 63.0917C87.1358 58.2896 88.119 53.2132 88.119 48C88.119 42.798 87.1243 37.7102 85.1807 32.9083L85.1807 32.9082C83.157 27.9233 80.1957 23.4642 76.3657 19.6343C72.5359 15.8044 68.0654 12.8316 63.0917 10.8193C58.2896 8.86417 53.2132 7.88095 48 7.88095C42.798 7.88095 37.7102 8.87565 32.9083 10.8193L32.9082 10.8193C27.9233 12.843 23.4642 15.8043 19.6343 19.6343C15.8044 23.4641 12.8316 27.9346 10.8193 32.9083C8.86417 37.7104 7.88095 42.7868 7.88095 48C7.88095 53.202 8.87565 58.2898 10.8193 63.0917ZM20.4523 20.4524L20.4524 20.4524C27.8054 13.0994 37.5899 9.04239 48 9.04239C58.3988 9.04239 68.1832 13.088 75.5361 20.4523L75.5362 20.4524C82.8892 27.8054 86.9462 37.5899 86.9462 48C86.9462 58.4102 82.9006 68.1832 75.5362 75.5476C68.1832 82.9006 58.3987 86.9576 47.9886 86.9576C37.5784 86.9576 27.8054 82.912 20.441 75.5476C13.088 68.1946 9.03099 58.4101 9.03099 48C9.03099 37.5899 13.088 27.8054 20.4523 20.4524Z" fill="#2E2FFF" stroke="#2E2FFF" stroke-width="0.238095"/>
<path d="M48 68.0002C59.0457 68.0002 68 59.0459 68 48.0002C68 36.9546 59.0457 28.0002 48 28.0002C36.9543 28.0002 28 36.9546 28 48.0002C28 59.0459 36.9543 68.0002 48 68.0002Z" fill="url(#paint0_linear)"/>
<path d="M18.484 31.113L18.3795 31.0548L18.3218 31.1596C13.9223 39.1475 12.8622 48.3737 15.3583 57.1525C17.8545 65.9311 23.5994 73.2092 31.5327 77.6446C36.6504 80.5097 42.293 81.9655 47.9928 81.9655C51.1274 81.9655 54.2849 81.5299 57.3852 80.636C66.1166 78.126 73.3436 72.3492 77.7546 64.3498L77.8118 64.246L77.7082 64.1883L76.8677 63.72L76.7633 63.6619L76.7056 63.7665C72.4499 71.4709 65.4673 77.0353 57.0468 79.4592C48.6265 81.8831 39.7768 80.859 32.1146 76.5802C24.4525 72.3013 18.9182 65.2803 16.5074 56.8132C14.0966 48.3462 15.1152 39.4474 19.3709 31.7429L19.4282 31.639L19.3246 31.5813L18.484 31.113Z" fill="#2E2FFF" stroke="#2E2FFF" stroke-width="0.238095"/>
<path d="M77.6382 64.3859L77.6962 64.2816C82.0839 56.3879 83.1264 47.2581 80.6519 38.5639L80.6519 38.5637C78.166 29.8807 72.4491 22.6844 64.5445 18.3029C56.6514 13.9214 47.5091 12.8688 38.8141 15.3513C30.1193 17.8338 22.913 23.5427 18.5253 31.4364L18.4677 31.5402L18.5713 31.5981L18.8567 31.7577L18.9608 31.8159L19.0188 31.7118C23.3414 23.9532 30.4277 18.3419 38.9707 15.8995C47.5251 13.4685 56.5111 14.5022 64.2806 18.8075C72.05 23.1241 77.669 30.2006 80.1147 38.7317C82.5491 47.2743 81.5253 56.2477 77.2028 64.0062L77.1449 64.11L77.2487 64.168L77.5341 64.3276L77.6382 64.3859Z" fill="#2E2FFF" stroke="#2E2FFF" stroke-width="0.238095"/>
<path d="M32.3292 72.156L32.431 72.2217L32.4949 72.1189L32.9295 71.4201L32.9913 71.3208L32.8931 71.2573C26.629 67.2079 22.3241 60.9575 20.7523 53.6684C19.1919 46.3677 20.5472 38.9081 24.5905 32.6343C28.6337 26.3605 34.8745 22.049 42.1524 20.4749C49.4416 18.9121 56.8896 20.2695 63.1537 24.3189L63.2535 24.3834L63.3182 24.2837L63.7642 23.5964L63.8292 23.4963L63.729 23.4316C57.2287 19.2333 49.4875 17.8184 41.9305 19.4517C34.3738 21.085 27.8959 25.5597 23.7041 32.07C19.5123 38.5802 18.0995 46.3332 19.7303 53.9016C21.3611 61.4699 25.8289 67.9577 32.3292 72.156Z" fill="#2E2FFF" stroke="#2E2FFF" stroke-width="0.238095"/>
<path d="M32.5156 71.6334L32.4504 71.7335L32.5507 71.7983C37.2207 74.816 42.5549 76.3708 47.9923 76.3708C50.007 76.3708 52.0443 76.1536 54.0699 75.7193C61.5328 74.119 67.9316 69.7063 72.0751 63.305C76.2188 56.9035 77.6038 49.267 76.0014 41.8141L76.0013 41.8139C74.3874 34.361 69.9689 27.982 63.5591 23.8441L63.4595 23.7797L63.3948 23.8792L63.2466 24.1068L63.1813 24.2071L63.2819 24.2718C69.5816 28.33 73.9173 34.5982 75.495 41.9211C77.0728 49.244 75.6995 56.7363 71.6358 63.0277C67.5723 69.319 61.2958 73.649 53.963 75.2247C46.6302 76.8004 39.1278 75.4289 32.828 71.3706L32.7284 71.3064L32.6638 71.4057L32.5156 71.6334Z" fill="#2E2FFF" stroke="#2E2FFF" stroke-width="0.238095"/>
</g>
<circle cx="80" cy="80" r="16" fill="url(#paint1_linear)"/>
<path fill-rule="evenodd" clip-rule="evenodd" d="M69.6072 81.7578C69.6045 81.8176 69.6031 81.8776 69.6031 81.9377C69.6031 82.1652 69.6229 82.3898 69.6615 82.6109H69.6031V82.9591C69.6031 83.1291 69.6141 83.2975 69.6359 83.464C70.0595 86.7144 74.5379 89.2718 80 89.2718C85.4621 89.2718 89.9405 86.7144 90.3641 83.464C90.3859 83.2975 90.3969 83.1291 90.3969 82.9591V82.6109H90.3385C90.3771 82.3898 90.3969 82.1652 90.3969 81.9377C90.3969 81.8776 90.3955 81.8176 90.3928 81.7578C90.2359 78.3546 85.643 75.6251 80 75.6251C74.357 75.6251 69.7641 78.3546 69.6072 81.7578ZM68.7533 81.7578C68.8307 79.6814 70.2417 77.9372 72.2055 76.7448C74.2413 75.5087 76.9992 74.772 80 74.772C83.0008 74.772 85.7587 75.5087 87.7945 76.7448C89.7583 77.9372 91.1693 79.6814 91.2467 81.7578H91.25V82.9591C91.25 85.1147 89.8148 86.9254 87.7945 88.1521C85.7587 89.3881 83.0008 90.1249 80 90.1249C76.9992 90.1249 74.2413 89.3881 72.2055 88.1521C70.1852 86.9254 68.75 85.1147 68.75 82.9591V81.7578H68.7533Z" fill="#606063"/>
<path d="M90.3969 82.9595C90.3969 86.4459 85.742 89.2722 79.9999 89.2722C74.2579 89.2722 69.603 86.4459 69.603 82.9595V81.9602H90.3969V82.9595Z" fill="#BEBEBE"/>
<path d="M90.3969 81.9379C90.3969 85.4243 85.742 88.2506 79.9999 88.2506C74.2579 88.2506 69.603 85.4243 69.603 81.9379C69.603 78.4515 74.2579 75.6252 79.9999 75.6252C85.742 75.6252 90.3969 78.4515 90.3969 81.9379Z" fill="#FAF9FA"/>
<path fill-rule="evenodd" clip-rule="evenodd" d="M71.2027 80.1546C71.2027 80.1585 71.2027 80.1625 71.2027 80.1664C71.2027 80.4535 71.2443 80.7346 71.324 81.0077H71.2026V81.3774C71.2026 81.5405 71.216 81.7018 71.2423 81.8608C71.6386 84.261 74.9547 86.1345 78.9869 86.1345C83.019 86.1345 86.3351 84.261 86.7315 81.8608C86.7578 81.7018 86.7712 81.5405 86.7712 81.3774V81.0077H86.65C86.7275 80.7421 86.769 80.4688 86.7712 80.1899C86.7713 80.1821 86.7713 80.1743 86.7713 80.1664C86.7713 80.1625 86.7713 80.1585 86.7713 80.1546C86.7608 77.5327 83.2797 75.4093 78.987 75.4093C74.6943 75.4093 71.2132 77.5327 71.2027 80.1546ZM70.3496 80.1546H70.3495V81.3774C70.3495 83.1007 71.489 84.5227 73.0377 85.4691C74.601 86.4245 76.7065 86.9876 78.9869 86.9876C81.2673 86.9876 83.3727 86.4245 84.9361 85.4691C86.4847 84.5227 87.6243 83.1007 87.6243 81.3774V80.1931C87.6243 80.1842 87.6244 80.1753 87.6244 80.1664C87.6244 78.4431 86.4848 77.0211 84.9362 76.0747C83.3728 75.1193 81.2674 74.5562 78.987 74.5562C76.7066 74.5562 74.6011 75.1193 73.0378 76.0747C71.4927 77.0189 70.3548 78.4366 70.3496 80.1546Z" fill="#633001"/>
<path d="M86.7713 81.3774C86.7713 84.0047 83.2861 86.1346 78.987 86.1346C74.6878 86.1346 71.2026 84.0047 71.2026 81.3774V80.2612H86.7713V81.3774Z" fill="#FEDC90"/>
<path d="M86.7713 80.1664C86.7713 82.7937 83.2861 84.9235 78.987 84.9235C74.6878 84.9235 71.2026 82.7937 71.2026 80.1664C71.2026 77.539 74.6878 75.4092 78.987 75.4092C83.2861 75.4092 86.7713 77.539 86.7713 80.1664Z" fill="#D1884F"/>
<path fill-rule="evenodd" clip-rule="evenodd" d="M73.5488 77.5952C73.5487 77.5992 73.5487 77.6031 73.5487 77.6071C73.5487 77.8942 73.5903 78.1753 73.6701 78.4483H73.5486V78.818C73.5486 78.9812 73.5621 79.1425 73.5883 79.3014C73.9847 81.7017 77.3008 83.5752 81.3329 83.5752C85.3651 83.5752 88.6812 81.7017 89.0776 79.3014C89.1038 79.1425 89.1173 78.9812 89.1173 78.818V78.4483H88.996C89.0736 78.1827 89.1151 77.9095 89.1173 77.6306C89.1173 77.6228 89.1174 77.6149 89.1174 77.6071C89.1174 77.6031 89.1173 77.5992 89.1173 77.5952C89.1069 74.9734 85.6257 72.8499 81.333 72.8499C77.0404 72.8499 73.5592 74.9734 73.5488 77.5952ZM72.6957 77.5952H72.6956V78.818C72.6956 80.5413 73.8351 81.9634 75.3838 82.9098C76.9471 83.8652 79.0526 84.4283 81.3329 84.4283C83.6133 84.4283 85.7188 83.8652 87.2821 82.9098C88.8308 81.9634 89.9703 80.5413 89.9703 78.818V77.6337C89.9704 77.6249 89.9704 77.616 89.9704 77.6071C89.9704 75.8838 88.8309 74.4618 87.2822 73.5153C85.7189 72.56 83.6134 71.9968 81.333 71.9968C79.0527 71.9968 76.9472 72.56 75.3839 73.5153C73.8387 74.4596 72.7009 75.8773 72.6957 77.5952Z" fill="#633001"/>
<path d="M89.1172 78.8181C89.1172 81.4454 85.6321 83.5752 81.3329 83.5752C77.0337 83.5752 73.5486 81.4454 73.5486 78.8181V77.7019H89.1172V78.8181Z" fill="#FEDC90"/>
<path d="M89.1172 77.607C89.1172 80.2344 85.6321 82.3642 81.3329 82.3642C77.0337 82.3642 73.5486 80.2344 73.5486 77.607C73.5486 74.9797 77.0337 72.8499 81.3329 72.8499C85.6321 72.8499 89.1172 74.9797 89.1172 77.607Z" fill="#D1884F"/>
<path fill-rule="evenodd" clip-rule="evenodd" d="M71.2027 75.0359C71.2027 75.0399 71.2027 75.0438 71.2027 75.0478C71.2027 75.3348 71.2443 75.616 71.324 75.889H71.2026V76.2587C71.2026 76.4219 71.216 76.5832 71.2423 76.7421C71.6386 79.1424 74.9547 81.0159 78.9869 81.0159C83.019 81.0159 86.3351 79.1424 86.7315 76.7421C86.7578 76.5832 86.7712 76.4219 86.7712 76.2587V75.889H86.65C86.7275 75.6234 86.769 75.3502 86.7712 75.0712C86.7713 75.0634 86.7713 75.0556 86.7713 75.0478C86.7713 75.0438 86.7713 75.0399 86.7713 75.0359C86.7608 72.4141 83.2797 70.2906 78.987 70.2906C74.6943 70.2906 71.2132 72.4141 71.2027 75.0359ZM70.3496 75.0359H70.3495V76.2587C70.3495 77.982 71.489 79.404 73.0377 80.3505C74.601 81.3059 76.7065 81.869 78.9869 81.869C81.2673 81.869 83.3727 81.3059 84.9361 80.3505C86.4847 79.404 87.6243 77.982 87.6243 76.2587V75.0744C87.6243 75.0655 87.6244 75.0567 87.6244 75.0478C87.6244 73.3245 86.4848 71.9024 84.9362 70.956C83.3728 70.0006 81.2674 69.4375 78.987 69.4375C76.7066 69.4375 74.6011 70.0006 73.0378 70.956C71.4927 71.9003 70.3548 73.3179 70.3496 75.0359Z" fill="#633001"/>
<path d="M86.7713 76.2587C86.7713 78.886 83.2861 81.0159 78.987 81.0159C74.6878 81.0159 71.2026 78.886 71.2026 76.2587V75.1426H86.7713V76.2587Z" fill="#FEDC90"/>
<path d="M86.7713 75.0477C86.7713 77.675 83.2861 79.8049 78.987 79.8049C74.6878 79.8049 71.2026 77.675 71.2026 75.0477C71.2026 72.4204 74.6878 70.2905 78.987 70.2905C83.2861 70.2905 86.7713 72.4204 86.7713 75.0477Z" fill="#D1884F"/>
<path fill-rule="evenodd" clip-rule="evenodd" d="M73.0439 75.3438C73.0439 76.221 73.6813 77.0066 74.6868 77.5352L73.9902 78.7419L73.9903 78.7419H73.9902V81.7959C73.9902 82.1997 74.3175 82.5271 74.7214 82.5271C75.1252 82.5271 75.4526 82.1997 75.4526 81.7959V79.3671L76.2021 78.0689C76.6814 78.1705 77.1958 78.2257 77.7313 78.2257C80.32 78.2257 82.4186 76.9354 82.4186 75.3438C82.4186 73.7522 80.32 72.4619 77.7313 72.4619C75.1425 72.4619 73.0439 73.7522 73.0439 75.3438Z" fill="url(#paint2_linear)"/>
<path fill-rule="evenodd" clip-rule="evenodd" d="M74.6868 77.535C74.5755 77.4765 74.4686 77.4148 74.3666 77.3501C73.5479 76.8313 73.0439 76.1237 73.0439 75.3437C73.0439 73.7521 75.1425 72.4618 77.7313 72.4618C80.32 72.4618 82.4186 73.7521 82.4186 75.3437C82.4186 76.9353 80.32 78.2256 77.7313 78.2256C77.1958 78.2256 76.6814 78.1704 76.2021 78.0687L75.4526 79.367V81.7958C75.4526 82.1996 75.1252 82.527 74.7214 82.527C74.3175 82.527 73.9902 82.1996 73.9902 81.7958V78.7418L74.6868 77.535ZM73.2437 78.7547V81.7958C73.2437 82.6119 73.9053 83.2735 74.7214 83.2735C75.5375 83.2735 76.199 82.6119 76.199 81.7958V79.567L76.5878 78.8936C76.957 78.9451 77.3397 78.972 77.7313 78.972C79.1409 78.972 80.4528 78.6223 81.4367 78.0174C82.4083 77.42 83.165 76.4957 83.165 75.3437C83.165 74.1916 82.4083 73.2674 81.4367 72.67C80.4528 72.0651 79.1409 71.7153 77.7313 71.7153C76.3216 71.7153 75.0097 72.0651 74.0259 72.67C73.0542 73.2674 72.2975 74.1916 72.2975 75.3437C72.2975 76.3548 72.8766 77.1874 73.6812 77.7839L73.3489 78.3596C73.3172 78.4126 73.2919 78.4699 73.2741 78.5304C73.2522 78.6042 73.2424 78.6798 73.2437 78.7547Z" fill="#633001"/>
<path d="M74.5083 74.1296C74.5083 74.9542 75.5586 75.6226 76.8542 75.6226C78.1499 75.6226 79.2002 74.9542 79.2002 74.1296C79.2002 73.3051 78.1499 72.6367 76.8542 72.6367C75.5586 72.6367 74.5083 73.3051 74.5083 74.1296Z" fill="#9E7200"/>
<path d="M74.5083 73.4897H79.2002V74.1296H74.5083V73.4897Z" fill="#9E7200"/>
<path d="M74.5083 73.4897C74.5083 74.3143 75.5586 74.9827 76.8542 74.9827C78.1499 74.9827 79.2002 74.3143 79.2002 73.4897C79.2002 72.6652 78.1499 71.9968 76.8542 71.9968C75.5586 71.9968 74.5083 72.6652 74.5083 73.4897Z" fill="#F0B90B"/>
<path d="M75.964 73.3098L76.6252 72.889C76.765 72.8 76.9435 72.8 77.0832 72.889L77.7445 73.3098C77.8762 73.3936 77.8762 73.5858 77.7445 73.6696L77.0832 74.0904C76.9435 74.1793 76.765 74.1793 76.6252 74.0904L75.964 73.6696C75.8323 73.5858 75.8323 73.3936 75.964 73.3098Z" fill="#9E7200"/>
<path fill-rule="evenodd" clip-rule="evenodd" d="M74.7947 71.8042C75.3562 71.4469 76.0864 71.2502 76.8543 71.2502C77.6221 71.2502 78.3523 71.4469 78.9139 71.8042C79.4666 72.1559 79.9467 72.7336 79.9467 73.4896V74.1294C79.9467 74.8854 79.4666 75.4631 78.9139 75.8149C78.3523 76.1722 77.6221 76.3688 76.8543 76.3688C76.0864 76.3688 75.3562 76.1722 74.7947 75.8149C74.242 75.4631 73.7618 74.8854 73.7618 74.1294V73.4896C73.7618 72.7336 74.242 72.1559 74.7947 71.8042ZM76.8543 71.9967C75.5586 71.9967 74.5083 72.6651 74.5083 73.4896V74.1294C74.5083 74.954 75.5586 75.6224 76.8543 75.6224C78.1499 75.6224 79.2002 74.954 79.2002 74.1294V73.4896C79.2002 72.6651 78.1499 71.9967 76.8543 71.9967Z" fill="#633001"/>
<defs>
<linearGradient id="paint0_linear" x1="35.7183" y1="34.48" x2="58.8107" y2="59.8971" gradientUnits="userSpaceOnUse">
<stop stop-color="#2E2FFF"/>
<stop offset="0.9635" stop-color="#1F1F61"/>
</linearGradient>
<linearGradient id="paint1_linear" x1="80" y1="64" x2="80" y2="96" gradientUnits="userSpaceOnUse">
<stop stop-color="#54DADE"/>
<stop offset="0.762157" stop-color="#24C7D6"/>
</linearGradient>
<linearGradient id="paint2_linear" x1="77.782" y1="72.5584" x2="77.782" y2="82.4515" gradientUnits="userSpaceOnUse">
<stop stop-color="#9F4A08"/>
<stop offset="0.370494" stop-color="#7D3900"/>
<stop offset="1" stop-color="#8D4104"/>
</linearGradient>
</defs>
</svg>
