<svg xmlns="http://www.w3.org/2000/svg" width="96" height="96" fill="none" viewBox="0 0 96 96"><mask id="mask0" width="96" height="96" x="0" y="0" mask-type="alpha" maskUnits="userSpaceOnUse"><path fill="#C4C4C4" fill-rule="evenodd" d="M96 0H0V96H69.7487C64.4865 92.6215 61 86.7179 61 80C61 69.5066 69.5066 61 80 61C86.7179 61 92.6215 64.4865 96 69.7487V0Z" clip-rule="evenodd"/></mask><g mask="url(#mask0)"><path fill="url(#paint0_linear)" d="M48 0C74.5097 0 96 21.4903 96 48C96 74.5097 74.5097 96 48 96C21.4903 96 0 74.5097 0 48C0 21.4903 21.4903 0 48 0Z"/><path fill="#fff" d="M44.6776 48.0422C44.5221 48.0422 44.3665 48.0293 44.2109 48.0033C44.8851 46.5771 45.5334 45.1898 46.1557 43.8414C46.778 42.467 47.3227 41.2094 47.7894 40.0685C48.2561 38.9275 48.6322 37.9162 48.9174 37.0345C49.2027 36.1529 49.3453 35.4657 49.3453 34.973C49.3453 34.4803 49.2675 34.0784 49.1119 33.7672C48.9563 33.4301 48.7748 33.1837 48.5673 33.0282C48.3599 32.8466 48.1265 32.73 47.8672 32.6781C47.6078 32.6003 47.3875 32.5614 47.2059 32.5614C46.5317 32.5614 45.7668 32.9504 44.911 33.7283C44.0812 34.4803 43.1866 35.4916 42.2272 36.7622C41.2937 38.0329 40.3212 39.498 39.3099 41.1575C38.3246 42.7912 37.3392 44.4897 36.3538 46.253L24.8793 67.2571C24.5941 67.8017 24.3736 68.3852 24.2181 69.0075C24.0625 69.6298 23.9847 70.2392 23.9847 70.8357C23.9847 71.2505 24.0365 71.6913 24.1403 72.1581C24.2699 72.6249 24.4774 73.0527 24.7626 73.4417C25.0479 73.8307 25.4498 74.1548 25.9684 74.4141C26.487 74.6735 27.1612 74.8031 27.991 74.8031C29.0023 74.8031 29.9359 74.44 30.7916 73.7139C31.6473 72.9879 32.4512 72.0414 33.2032 70.8745C33.9552 69.6817 34.6423 68.3462 35.2647 66.8682C35.887 65.3642 36.4834 63.8472 37.0539 62.3173C37.6244 60.7874 38.156 59.3093 38.6487 57.883C39.1414 56.4309 39.6211 55.1733 40.0878 54.1101C40.9176 56.807 41.8642 59.3741 42.9273 61.8116C43.9905 64.2232 45.1703 66.3366 46.4669 68.1518C47.7634 69.9669 49.2027 71.4062 50.7844 72.4693C52.3662 73.5325 54.0907 74.064 55.9577 74.064C58.2396 74.064 60.6512 73.4936 63.1924 72.3526C65.7596 71.1857 68.3786 69.3446 71.0495 66.8293C71.9571 65.9735 72.5924 65.1567 72.9554 64.3788C73.3445 63.575 73.5389 62.8748 73.5389 62.2784C73.5389 61.656 73.3574 61.1633 72.9944 60.8004C72.6313 60.4373 72.1905 60.2557 71.6719 60.2557C70.842 60.2557 70.0252 60.7096 69.2214 61.6172C68.3657 62.7581 67.3543 63.7564 66.1874 64.6122C65.2021 65.3642 63.9704 66.0513 62.4923 66.6737C61.0142 67.296 59.3287 67.6072 57.4358 67.6072H56.8911C56.7097 67.6072 56.5152 67.5942 56.3077 67.5684C55.2705 67.4906 54.2851 66.9719 53.3516 66.0125C52.4181 65.053 51.5624 63.8991 50.7844 62.5506C50.0324 61.1763 49.3841 59.7372 48.8396 58.2331C48.3209 56.7032 47.945 55.3289 47.7116 54.1101C49.3712 53.8249 51.0826 53.3581 52.8459 52.7098C54.6352 52.0616 56.3726 51.2706 58.0581 50.3371C59.7436 49.4036 61.3254 48.3404 62.8035 47.1476C64.3074 45.9289 65.6169 44.6064 66.732 43.1802C67.847 41.728 68.7287 40.1851 69.3769 38.5514C70.0512 36.8919 70.3883 35.1545 70.3883 33.3393C70.3883 30.6425 69.8308 28.2828 68.7157 26.2602C67.6267 24.2375 66.1486 22.565 64.2816 21.2425C62.4145 19.8941 60.2622 18.8828 57.8247 18.2086C55.4131 17.5344 52.8848 17.1973 50.2399 17.1973C47.543 17.1973 44.9888 17.4825 42.5773 18.053C40.1656 18.5975 37.9356 19.3366 35.887 20.2701C33.8644 21.1777 32.0363 22.2409 30.4026 23.4596C28.769 24.6524 27.3816 25.8971 26.2407 27.1937C25.1256 28.4903 24.257 29.7868 23.6346 31.0833C23.0382 32.3799 22.74 33.5857 22.74 34.7008C22.74 35.8936 23.0641 36.8271 23.7124 37.5012C24.3607 38.1495 25.3331 38.4737 26.6296 38.4737C27.5891 38.4737 28.393 38.2533 29.0412 37.8124C29.6895 37.3716 30.273 36.8012 30.7916 36.101C31.3362 35.4009 31.8547 34.597 32.3474 33.6894C32.8401 32.7818 33.3847 31.8483 33.9811 30.8888C34.6035 29.9294 35.3295 28.9959 36.1593 28.0883C37.015 27.1807 38.0522 26.3769 39.271 25.6767C40.5157 24.9766 41.9808 24.4061 43.6663 23.9653C45.3778 23.5244 47.4134 23.304 49.7731 23.304C51.8735 23.304 53.6758 23.5504 55.1797 24.0431C56.7097 24.5357 57.9543 25.197 58.9138 26.0268C59.8992 26.8566 60.6123 27.829 61.0531 28.944C61.5199 30.0591 61.7533 31.2389 61.7533 32.4836C61.7533 34.221 61.3124 36.0103 60.4308 37.8513C59.575 39.6924 58.3952 41.365 56.8911 42.869C55.3872 44.373 53.6238 45.6177 51.6012 46.6031C49.6046 47.5625 47.4782 48.0422 45.2222 48.0422H44.6776Z"/></g><circle cx="80" cy="80" r="16" fill="url(#paint1_linear)"/><path fill="#606063" fill-rule="evenodd" d="M69.6072 81.758C69.6045 81.8177 69.6031 81.8777 69.6031 81.9379C69.6031 82.1653 69.6229 82.3899 69.6615 82.6111H69.6031V82.9593C69.6031 83.1292 69.6141 83.2976 69.6359 83.4642C70.0595 86.7145 74.5379 89.2719 80 89.2719C85.4621 89.2719 89.9405 86.7145 90.3641 83.4642C90.3859 83.2976 90.3969 83.1292 90.3969 82.9593V82.6111H90.3385C90.3771 82.3899 90.3969 82.1653 90.3969 81.9379C90.3969 81.8777 90.3955 81.8177 90.3928 81.758C90.2359 78.3548 85.643 75.6252 80 75.6252C74.357 75.6252 69.7641 78.3548 69.6072 81.758ZM68.7533 81.758C68.8307 79.6815 70.2417 77.9373 72.2055 76.7449C74.2413 75.5089 76.9992 74.7721 80 74.7721C83.0008 74.7721 85.7587 75.5089 87.7945 76.7449C89.7583 77.9373 91.1693 79.6815 91.2467 81.758H91.25V82.9593C91.25 85.1148 89.8148 86.9255 87.7945 88.1522C85.7587 89.3883 83.0008 90.125 80 90.125C76.9992 90.125 74.2413 89.3883 72.2055 88.1522C70.1852 86.9255 68.75 85.1148 68.75 82.9593V81.758H68.7533Z" clip-rule="evenodd"/><path fill="#BEBEBE" d="M90.3969 82.9594C90.3969 86.4458 85.742 89.2721 79.9999 89.2721C74.2579 89.2721 69.603 86.4458 69.603 82.9594V81.9601H90.3969V82.9594Z"/><path fill="#FAF9FA" d="M90.3969 81.9378C90.3969 85.4242 85.742 88.2505 79.9999 88.2505C74.2579 88.2505 69.603 85.4242 69.603 81.9378C69.603 78.4514 74.2579 75.6251 79.9999 75.6251C85.742 75.6251 90.3969 78.4514 90.3969 81.9378Z"/><path fill="#633001" fill-rule="evenodd" d="M71.2027 80.1544C71.2027 80.1584 71.2027 80.1624 71.2027 80.1663C71.2027 80.4534 71.2443 80.7345 71.324 81.0075H71.2026V81.3772C71.2026 81.5404 71.216 81.7017 71.2423 81.8606C71.6386 84.2609 74.9547 86.1344 78.9869 86.1344C83.019 86.1344 86.3351 84.2609 86.7315 81.8606C86.7578 81.7017 86.7712 81.5404 86.7712 81.3772V81.0075H86.65C86.7275 80.7419 86.769 80.4687 86.7712 80.1898C86.7713 80.182 86.7713 80.1741 86.7713 80.1663C86.7713 80.1624 86.7713 80.1584 86.7713 80.1544C86.7608 77.5326 83.2797 75.4091 78.987 75.4091C74.6943 75.4091 71.2132 77.5326 71.2027 80.1544ZM70.3496 80.1544H70.3495V81.3772C70.3495 83.1005 71.489 84.5226 73.0377 85.469C74.601 86.4244 76.7065 86.9875 78.9869 86.9875C81.2673 86.9875 83.3727 86.4244 84.9361 85.469C86.4847 84.5226 87.6243 83.1005 87.6243 81.3772V80.1929C87.6243 80.1841 87.6244 80.1752 87.6244 80.1663C87.6244 78.443 86.4848 77.021 84.9362 76.0745C83.3728 75.1192 81.2674 74.556 78.987 74.556C76.7066 74.556 74.6011 75.1192 73.0378 76.0745C71.4927 77.0188 70.3548 78.4365 70.3496 80.1544Z" clip-rule="evenodd"/><path fill="#FEDC90" d="M86.7713 81.3774C86.7713 84.0047 83.2861 86.1346 78.987 86.1346C74.6878 86.1346 71.2026 84.0047 71.2026 81.3774V80.2612H86.7713V81.3774Z"/><path fill="#D1884F" d="M86.7713 80.1664C86.7713 82.7937 83.2861 84.9235 78.987 84.9235C74.6878 84.9235 71.2026 82.7937 71.2026 80.1664C71.2026 77.539 74.6878 75.4092 78.987 75.4092C83.2861 75.4092 86.7713 77.539 86.7713 80.1664Z"/><path fill="#633001" fill-rule="evenodd" d="M73.5488 77.5952C73.5487 77.5992 73.5487 77.6031 73.5487 77.6071C73.5487 77.8942 73.5903 78.1753 73.6701 78.4483H73.5486V78.818C73.5486 78.9812 73.5621 79.1425 73.5883 79.3014C73.9847 81.7017 77.3008 83.5752 81.3329 83.5752C85.3651 83.5752 88.6812 81.7017 89.0776 79.3014C89.1038 79.1425 89.1173 78.9812 89.1173 78.818V78.4483H88.996C89.0736 78.1827 89.1151 77.9095 89.1173 77.6306C89.1173 77.6228 89.1174 77.6149 89.1174 77.6071C89.1174 77.6031 89.1173 77.5992 89.1173 77.5952C89.1069 74.9734 85.6257 72.8499 81.333 72.8499C77.0404 72.8499 73.5592 74.9734 73.5488 77.5952ZM72.6957 77.5952H72.6956V78.818C72.6956 80.5413 73.8351 81.9634 75.3838 82.9098C76.9471 83.8652 79.0526 84.4283 81.3329 84.4283C83.6133 84.4283 85.7188 83.8652 87.2821 82.9098C88.8308 81.9634 89.9703 80.5413 89.9703 78.818V77.6337C89.9704 77.6249 89.9704 77.616 89.9704 77.6071C89.9704 75.8838 88.8309 74.4618 87.2822 73.5153C85.7189 72.56 83.6134 71.9968 81.333 71.9968C79.0527 71.9968 76.9472 72.56 75.3839 73.5153C73.8387 74.4596 72.7009 75.8773 72.6957 77.5952Z" clip-rule="evenodd"/><path fill="#FEDC90" d="M89.1172 78.8181C89.1172 81.4454 85.6321 83.5752 81.3329 83.5752C77.0337 83.5752 73.5486 81.4454 73.5486 78.8181V77.7019H89.1172V78.8181Z"/><path fill="#D1884F" d="M89.1172 77.607C89.1172 80.2344 85.6321 82.3642 81.3329 82.3642C77.0337 82.3642 73.5486 80.2344 73.5486 77.607C73.5486 74.9797 77.0337 72.8499 81.3329 72.8499C85.6321 72.8499 89.1172 74.9797 89.1172 77.607Z"/><path fill="#633001" fill-rule="evenodd" d="M71.2027 75.0359C71.2027 75.0399 71.2027 75.0438 71.2027 75.0478C71.2027 75.3348 71.2443 75.616 71.324 75.889H71.2026V76.2587C71.2026 76.4219 71.216 76.5832 71.2423 76.7421C71.6386 79.1424 74.9547 81.0159 78.9869 81.0159C83.019 81.0159 86.3351 79.1424 86.7315 76.7421C86.7578 76.5832 86.7712 76.4219 86.7712 76.2587V75.889H86.65C86.7275 75.6234 86.769 75.3502 86.7712 75.0712C86.7713 75.0634 86.7713 75.0556 86.7713 75.0478C86.7713 75.0438 86.7713 75.0399 86.7713 75.0359C86.7608 72.4141 83.2797 70.2906 78.987 70.2906C74.6943 70.2906 71.2132 72.4141 71.2027 75.0359ZM70.3496 75.0359H70.3495V76.2587C70.3495 77.982 71.489 79.404 73.0377 80.3505C74.601 81.3059 76.7065 81.869 78.9869 81.869C81.2673 81.869 83.3727 81.3059 84.9361 80.3505C86.4847 79.404 87.6243 77.982 87.6243 76.2587V75.0744C87.6243 75.0655 87.6244 75.0567 87.6244 75.0478C87.6244 73.3245 86.4848 71.9024 84.9362 70.956C83.3728 70.0006 81.2674 69.4375 78.987 69.4375C76.7066 69.4375 74.6011 70.0006 73.0378 70.956C71.4927 71.9003 70.3548 73.3179 70.3496 75.0359Z" clip-rule="evenodd"/><path fill="#FEDC90" d="M86.7713 76.2587C86.7713 78.886 83.2861 81.0159 78.987 81.0159C74.6878 81.0159 71.2026 78.886 71.2026 76.2587V75.1426H86.7713V76.2587Z"/><path fill="#D1884F" d="M86.7713 75.0478C86.7713 77.6751 83.2861 79.805 78.987 79.805C74.6878 79.805 71.2026 77.6751 71.2026 75.0478C71.2026 72.4205 74.6878 70.2906 78.987 70.2906C83.2861 70.2906 86.7713 72.4205 86.7713 75.0478Z"/><path fill="url(#paint2_linear)" fill-rule="evenodd" d="M73.0439 75.3438C73.0439 76.221 73.6813 77.0066 74.6868 77.5352L73.9902 78.7419L73.9903 78.7419H73.9902V81.7959C73.9902 82.1997 74.3175 82.5271 74.7214 82.5271C75.1252 82.5271 75.4526 82.1997 75.4526 81.7959V79.3671L76.2021 78.0689C76.6814 78.1705 77.1958 78.2257 77.7313 78.2257C80.32 78.2257 82.4186 76.9354 82.4186 75.3438C82.4186 73.7522 80.32 72.4619 77.7313 72.4619C75.1425 72.4619 73.0439 73.7522 73.0439 75.3438Z" clip-rule="evenodd"/><path fill="#633001" fill-rule="evenodd" d="M74.6868 77.5352C74.5755 77.4766 74.4686 77.4149 74.3666 77.3503C73.5479 76.8314 73.0439 76.1238 73.0439 75.3438C73.0439 73.7522 75.1425 72.4619 77.7313 72.4619C80.32 72.4619 82.4186 73.7522 82.4186 75.3438C82.4186 76.9354 80.32 78.2257 77.7313 78.2257C77.1958 78.2257 76.6814 78.1705 76.2021 78.0689L75.4526 79.3671V81.7959C75.4526 82.1997 75.1252 82.5271 74.7214 82.5271C74.3175 82.5271 73.9902 82.1997 73.9902 81.7959V78.7419L74.6868 77.5352ZM73.2437 78.7548V81.7959C73.2437 82.612 73.9053 83.2736 74.7214 83.2736C75.5375 83.2736 76.199 82.612 76.199 81.7959V79.5671L76.5878 78.8938C76.957 78.9452 77.3397 78.9722 77.7313 78.9722C79.1409 78.9722 80.4528 78.6224 81.4367 78.0175C82.4083 77.4201 83.165 76.4959 83.165 75.3438C83.165 74.1918 82.4083 73.2675 81.4367 72.6701C80.4528 72.0652 79.1409 71.7155 77.7313 71.7155C76.3216 71.7155 75.0097 72.0652 74.0259 72.6701C73.0542 73.2675 72.2975 74.1918 72.2975 75.3438C72.2975 76.3549 72.8766 77.1875 73.6812 77.7841L73.3489 78.3597C73.3172 78.4127 73.2919 78.47 73.2741 78.5305C73.2522 78.6043 73.2424 78.6799 73.2437 78.7548Z" clip-rule="evenodd"/><path fill="#9E7200" d="M74.5083 74.1295C74.5083 74.954 75.5586 75.6224 76.8542 75.6224C78.1499 75.6224 79.2002 74.954 79.2002 74.1295C79.2002 73.305 78.1499 72.6366 76.8542 72.6366C75.5586 72.6366 74.5083 73.305 74.5083 74.1295Z"/><path fill="#9E7200" d="M74.5083 73.4897H79.2002V74.1296H74.5083V73.4897Z"/><path fill="#F0B90B" d="M74.5083 73.4897C74.5083 74.3143 75.5586 74.9827 76.8542 74.9827C78.1499 74.9827 79.2002 74.3143 79.2002 73.4897C79.2002 72.6652 78.1499 71.9968 76.8542 71.9968C75.5586 71.9968 74.5083 72.6652 74.5083 73.4897Z"/><path fill="#9E7200" d="M75.964 73.3098L76.6252 72.889C76.765 72.8 76.9435 72.8 77.0832 72.889L77.7445 73.3098C77.8762 73.3936 77.8762 73.5858 77.7445 73.6696L77.0832 74.0904C76.9435 74.1793 76.765 74.1793 76.6252 74.0904L75.964 73.6696C75.8323 73.5858 75.8323 73.3936 75.964 73.3098Z"/><path fill="#633001" fill-rule="evenodd" d="M74.7947 71.8043C75.3562 71.447 76.0864 71.2504 76.8543 71.2504C77.6221 71.2504 78.3523 71.447 78.9139 71.8043C79.4666 72.1561 79.9467 72.7338 79.9467 73.4897V74.1296C79.9467 74.8856 79.4666 75.4633 78.9139 75.815C78.3523 76.1723 77.6221 76.369 76.8543 76.369C76.0864 76.369 75.3562 76.1723 74.7947 75.815C74.242 75.4633 73.7618 74.8856 73.7618 74.1296V73.4897C73.7618 72.7338 74.242 72.1561 74.7947 71.8043ZM76.8543 71.9968C75.5586 71.9968 74.5083 72.6652 74.5083 73.4897V74.1296C74.5083 74.9541 75.5586 75.6225 76.8543 75.6225C78.1499 75.6225 79.2002 74.9541 79.2002 74.1296V73.4897C79.2002 72.6652 78.1499 71.9968 76.8543 71.9968Z" clip-rule="evenodd"/><defs><linearGradient id="paint0_linear" x1="166.276" x2="166.276" y1="96" y2="0" gradientUnits="userSpaceOnUse"><stop stop-color="#9E00F6"/><stop offset="1" stop-color="#EB627B"/></linearGradient><linearGradient id="paint1_linear" x1="80" x2="80" y1="64" y2="96" gradientUnits="userSpaceOnUse"><stop stop-color="#54DADE"/><stop offset=".762" stop-color="#24C7D6"/></linearGradient><linearGradient id="paint2_linear" x1="77.782" x2="77.782" y1="72.558" y2="82.451" gradientUnits="userSpaceOnUse"><stop stop-color="#9F4A08"/><stop offset=".37" stop-color="#7D3900"/><stop offset="1" stop-color="#8D4104"/></linearGradient></defs></svg>