<svg xmlns="http://www.w3.org/2000/svg" width="96" height="96" fill="none" viewBox="0 0 96 96"><mask id="mask0" width="96" height="96" x="0" y="0" mask-type="alpha" maskUnits="userSpaceOnUse"><path fill="#C4C4C4" fill-rule="evenodd" d="M96 0H0V96H69.7487C64.4865 92.6215 61 86.7179 61 80C61 69.5066 69.5066 61 80 61C86.7179 61 92.6215 64.4865 96 69.7487V0Z" clip-rule="evenodd"/></mask><g mask="url(#mask0)"><path fill="url(#paint0_linear)" d="M48 96C74.5097 96 96 74.5097 96 48C96 21.4903 74.5097 0 48 0C21.4903 0 0 21.4903 0 48C0 74.5097 21.4903 96 48 96Z"/><path fill="#fff" fill-rule="evenodd" d="M15.0099 49.4198C15.0599 45.4298 16.0699 42.4698 18.2499 39.8898C18.7299 39.3098 19.3099 38.7799 19.8399 38.2399C20.7599 37.2699 21.6799 36.35 22.5899 35.37C23.7999 34.16 25.0099 32.9899 26.2199 31.7799C26.9899 30.9999 27.76 30.2198 28.54 29.4398C29.36 28.6198 30.23 27.7899 31.05 26.9599C31.87 26.1899 32.64 25.41 33.42 24.58C34.96 23.03 36.51 21.4698 38.05 19.9198C40.23 17.7798 42.8399 16.5098 45.8799 16.1298C48.5399 15.7898 51.0999 16.1299 53.5099 17.2399C54.5299 17.7299 55.44 18.4099 56.31 19.0399C56.89 19.4799 56.85 19.5798 56.41 20.1598C56.31 20.3098 56.1699 20.3999 56.0699 20.5499C54.1899 22.4399 52.2599 24.3899 50.3699 26.2799C49.4999 27.1599 48.6299 27.9899 47.7599 28.8099C46.7499 29.8299 45.7799 30.8 44.8199 31.83C44.0899 32.55 43.3199 33.2799 42.5899 34.0099C41.3899 35.2299 40.2799 36.4899 39.0699 37.7099C38.1499 38.6299 37.23 39.4998 36.31 40.4298C35.35 41.4498 34.3799 42.4699 33.3699 43.4899C32.4999 44.4099 31.5799 45.2898 30.7099 46.1598C29.8399 47.1398 28.97 48.1099 28.05 49.0299C27.62 49.4699 27.18 49.8599 26.8 50.2899C25.93 51.2199 25.0599 52.14 24.1899 53.07C23.3699 53.94 22.5 54.8198 21.68 55.6398C21.1 56.2198 20.5199 56.8598 19.9399 57.4398C19.8399 57.5398 19.7399 57.6299 19.6499 57.7299C19.0699 58.2199 18.73 58.22 18.29 57.59C17.62 56.71 16.9399 55.7899 16.4599 54.7699C15.5399 52.9199 14.9099 50.9298 15.0099 49.4198ZM80.8599 50.7299C80.4699 54.1299 78.9699 56.47 78.5799 57.1C78.1499 57.73 77.5699 58.4099 76.3599 59.7199C75.3999 60.7899 74.3799 61.81 73.3699 62.83C72.3499 63.81 71.3399 64.7799 70.3199 65.7999C69.4099 66.6699 68.54 67.5999 67.67 68.4699C66.7 69.4399 65.7299 70.4198 64.7699 71.3898C63.7499 72.4098 62.69 73.4799 61.68 74.4999C60.28 75.9099 58.92 77.3698 57.43 78.6798C55.4 80.4798 53.0299 81.5998 50.3199 81.8898C47.6199 82.1798 44.9599 81.9399 42.4999 80.7699C41.4799 80.2799 40.5699 79.5999 39.6499 78.9699C39.1199 78.5799 39.12 78.2899 39.55 77.7999C40.28 77.0299 41.0999 76.2499 41.8699 75.4699C42.2999 75.0299 42.7399 74.55 43.2199 74.11C44.1899 73.19 45.1499 72.2199 46.1199 71.2899C46.2199 71.1899 46.3099 71.1499 46.3599 71.0499C47.2799 70.1299 48.1499 69.1999 49.0699 68.2799C49.9399 67.3999 50.8099 66.5799 51.6299 65.7499C52.0099 65.3599 52.4 64.97 52.79 64.58C52.98 64.39 53.1299 64.1999 53.3199 63.9999C54.4799 62.8299 55.64 61.6699 56.8 60.4999C57.72 59.6299 58.6299 58.75 59.4999 57.83C60.7599 56.56 62.0599 55.3499 63.2699 54.0399C64.3299 52.9199 64.86 51.5099 65.06 49.9999C65.3 48.1999 64.77 46.5499 63.8 45.0499C63.27 44.2199 62.5899 44.12 61.8699 44.85C60.2299 46.46 58.5799 48.0598 56.9399 49.6598C55.1999 51.3598 53.46 53.0699 51.68 54.7699C50.42 56.0299 49.12 57.2499 47.81 58.4599C46.27 59.9698 44.72 61.52 43.17 63.08C42.4 63.86 41.58 64.58 40.81 65.36C39.7 66.43 38.5799 67.5 37.4699 68.62C36.8499 69.2 36.07 69.5399 35.3 69.7899C34.19 70.1299 33.0799 70.0798 31.9699 69.8798C30.8099 69.6898 29.8399 69.0999 28.9699 68.2799C27.6199 66.9199 26.2699 65.5598 24.8599 64.1998C24.2899 63.6098 24.3299 63.5599 24.8599 63.0299C27.7199 60.2099 30.5199 57.3899 33.3699 54.5199C35.4899 52.3799 37.67 50.25 39.79 48.11C40.95 46.94 42.1099 45.7698 43.2699 44.6598C44.2399 43.6798 45.2 42.81 46.17 41.84C47.09 40.91 47.9599 39.99 48.8699 39.07C49.7399 38.19 50.61 37.3198 51.53 36.4398C52.59 35.3698 53.6599 34.2999 54.7199 33.2799C55.7299 32.2599 56.8 31.2899 57.81 30.2699C57.91 30.1699 57.9999 30.0799 58.0999 29.9799C59.2599 28.5699 60.8099 27.9898 62.5899 27.9398C64.6199 27.8398 66.27 28.5699 67.67 30.0299C70.42 32.8499 73.2199 35.6598 76.0199 38.4398C77.9099 40.3298 78.2499 40.7198 78.8699 41.6898C80.5699 44.2698 80.8999 46.6499 80.9999 47.2799C80.8599 47.7199 81.0499 49.0299 80.8599 50.7299Z" clip-rule="evenodd"/></g><circle cx="80" cy="80" r="16" fill="url(#paint1_linear)"/><path fill="#606063" fill-rule="evenodd" d="M69.6072 81.758C69.6045 81.8177 69.6031 81.8777 69.6031 81.9379C69.6031 82.1653 69.6229 82.3899 69.6615 82.6111H69.6031V82.9593C69.6031 83.1292 69.6141 83.2976 69.6359 83.4642C70.0595 86.7145 74.5379 89.2719 80 89.2719C85.4621 89.2719 89.9405 86.7145 90.3641 83.4642C90.3859 83.2976 90.3969 83.1292 90.3969 82.9593V82.6111H90.3385C90.3771 82.3899 90.3969 82.1653 90.3969 81.9379C90.3969 81.8777 90.3955 81.8177 90.3928 81.758C90.2359 78.3548 85.643 75.6252 80 75.6252C74.357 75.6252 69.7641 78.3548 69.6072 81.758ZM68.7533 81.758C68.8307 79.6815 70.2417 77.9373 72.2055 76.7449C74.2413 75.5089 76.9992 74.7721 80 74.7721C83.0008 74.7721 85.7587 75.5089 87.7945 76.7449C89.7583 77.9373 91.1693 79.6815 91.2467 81.758H91.25V82.9593C91.25 85.1148 89.8148 86.9255 87.7945 88.1522C85.7587 89.3883 83.0008 90.125 80 90.125C76.9992 90.125 74.2413 89.3883 72.2055 88.1522C70.1852 86.9255 68.75 85.1148 68.75 82.9593V81.758H68.7533Z" clip-rule="evenodd"/><path fill="#BEBEBE" d="M90.3969 82.9594C90.3969 86.4458 85.7421 89.2721 80 89.2721C74.2579 89.2721 69.6031 86.4458 69.6031 82.9594V81.9601H90.3969V82.9594Z"/><path fill="#FAF9FA" d="M90.3969 81.9378C90.3969 85.4242 85.7421 88.2505 80 88.2505C74.2579 88.2505 69.6031 85.4242 69.6031 81.9378C69.6031 78.4514 74.2579 75.6251 80 75.6251C85.7421 75.6251 90.3969 78.4514 90.3969 81.9378Z"/><path fill="#633001" fill-rule="evenodd" d="M71.2027 80.1544C71.2027 80.1584 71.2027 80.1624 71.2027 80.1663C71.2027 80.4534 71.2443 80.7345 71.324 81.0075H71.2026V81.3772C71.2026 81.5404 71.216 81.7017 71.2423 81.8606C71.6387 84.2609 74.9548 86.1344 78.9869 86.1344C83.019 86.1344 86.3352 84.2609 86.7315 81.8606C86.7578 81.7017 86.7712 81.5404 86.7712 81.3772V81.0075H86.65C86.7275 80.7419 86.769 80.4687 86.7712 80.1898C86.7713 80.182 86.7713 80.1741 86.7713 80.1663C86.7713 80.1624 86.7713 80.1584 86.7713 80.1544C86.7608 77.5326 83.2797 75.4091 78.987 75.4091C74.6943 75.4091 71.2132 77.5326 71.2027 80.1544ZM70.3496 80.1544H70.3495V81.3772C70.3495 83.1005 71.4891 84.5226 73.0377 85.469C74.601 86.4244 76.7065 86.9875 78.9869 86.9875C81.2673 86.9875 83.3728 86.4244 84.9361 85.469C86.4848 84.5226 87.6243 83.1005 87.6243 81.3772V80.1929C87.6244 80.1841 87.6244 80.1752 87.6244 80.1663C87.6244 78.443 86.4849 77.021 84.9362 76.0745C83.3729 75.1192 81.2674 74.556 78.987 74.556C76.7066 74.556 74.6011 75.1192 73.0378 76.0745C71.4927 77.0188 70.3548 78.4365 70.3496 80.1544Z" clip-rule="evenodd"/><path fill="#FEDC90" d="M86.7712 81.3774C86.7712 84.0047 83.2861 86.1346 78.9869 86.1346C74.6878 86.1346 71.2026 84.0047 71.2026 81.3774V80.2612H86.7712V81.3774Z"/><path fill="#D1884F" d="M86.7712 80.1664C86.7712 82.7937 83.2861 84.9235 78.9869 84.9235C74.6878 84.9235 71.2026 82.7937 71.2026 80.1664C71.2026 77.539 74.6878 75.4092 78.9869 75.4092C83.2861 75.4092 86.7712 77.539 86.7712 80.1664Z"/><path fill="#633001" fill-rule="evenodd" d="M73.5487 77.5952C73.5487 77.5992 73.5487 77.6031 73.5487 77.6071C73.5487 77.8942 73.5903 78.1753 73.67 78.4483H73.5486V78.818C73.5486 78.9812 73.562 79.1425 73.5883 79.3014C73.9846 81.7017 77.3008 83.5752 81.3329 83.5752C85.365 83.5752 88.6811 81.7017 89.0775 79.3014C89.1038 79.1425 89.1172 78.9812 89.1172 78.818V78.4483H88.996C89.0735 78.1827 89.115 77.9095 89.1172 77.6306C89.1173 77.6228 89.1173 77.6149 89.1173 77.6071C89.1173 77.6031 89.1173 77.5992 89.1173 77.5952C89.1068 74.9734 85.6257 72.8499 81.333 72.8499C77.0403 72.8499 73.5592 74.9734 73.5487 77.5952ZM72.6956 77.5952H72.6955V78.818C72.6955 80.5413 73.835 81.9634 75.3837 82.9098C76.947 83.8652 79.0525 84.4283 81.3329 84.4283C83.6133 84.4283 85.7188 83.8652 87.2821 82.9098C88.8307 81.9634 89.9703 80.5413 89.9703 78.818V77.6337C89.9703 77.6249 89.9704 77.616 89.9704 77.6071C89.9704 75.8838 88.8308 74.4618 87.2822 73.5153C85.7188 72.56 83.6134 71.9968 81.333 71.9968C79.0526 71.9968 76.9471 72.56 75.3838 73.5153C73.8387 74.4596 72.7008 75.8773 72.6956 77.5952Z" clip-rule="evenodd"/><path fill="#FEDC90" d="M89.1172 78.8181C89.1172 81.4454 85.6321 83.5752 81.3329 83.5752C77.0337 83.5752 73.5486 81.4454 73.5486 78.8181V77.7019H89.1172V78.8181Z"/><path fill="#D1884F" d="M89.1172 77.607C89.1172 80.2344 85.6321 82.3642 81.3329 82.3642C77.0337 82.3642 73.5486 80.2344 73.5486 77.607C73.5486 74.9797 77.0337 72.8499 81.3329 72.8499C85.6321 72.8499 89.1172 74.9797 89.1172 77.607Z"/><path fill="#633001" fill-rule="evenodd" d="M71.2027 75.0359C71.2027 75.0399 71.2027 75.0438 71.2027 75.0478C71.2027 75.3348 71.2443 75.616 71.324 75.889H71.2026V76.2587C71.2026 76.4219 71.216 76.5832 71.2423 76.7421C71.6387 79.1424 74.9548 81.0159 78.9869 81.0159C83.019 81.0159 86.3352 79.1424 86.7315 76.7421C86.7578 76.5832 86.7712 76.4219 86.7712 76.2587V75.889H86.65C86.7275 75.6234 86.769 75.3502 86.7712 75.0712C86.7713 75.0634 86.7713 75.0556 86.7713 75.0478C86.7713 75.0438 86.7713 75.0399 86.7713 75.0359C86.7608 72.4141 83.2797 70.2906 78.987 70.2906C74.6943 70.2906 71.2132 72.4141 71.2027 75.0359ZM70.3496 75.0359H70.3495V76.2587C70.3495 77.982 71.4891 79.404 73.0377 80.3505C74.601 81.3059 76.7065 81.869 78.9869 81.869C81.2673 81.869 83.3728 81.3059 84.9361 80.3505C86.4848 79.404 87.6243 77.982 87.6243 76.2587V75.0744C87.6244 75.0655 87.6244 75.0567 87.6244 75.0478C87.6244 73.3245 86.4849 71.9024 84.9362 70.956C83.3729 70.0006 81.2674 69.4375 78.987 69.4375C76.7066 69.4375 74.6011 70.0006 73.0378 70.956C71.4927 71.9003 70.3548 73.3179 70.3496 75.0359Z" clip-rule="evenodd"/><path fill="#FEDC90" d="M86.7712 76.2587C86.7712 78.886 83.2861 81.0159 78.9869 81.0159C74.6878 81.0159 71.2026 78.886 71.2026 76.2587V75.1426H86.7712V76.2587Z"/><path fill="#D1884F" d="M86.7712 75.0478C86.7712 77.6751 83.2861 79.805 78.9869 79.805C74.6878 79.805 71.2026 77.6751 71.2026 75.0478C71.2026 72.4205 74.6878 70.2906 78.9869 70.2906C83.2861 70.2906 86.7712 72.4205 86.7712 75.0478Z"/><path fill="url(#paint2_linear)" fill-rule="evenodd" d="M73.044 75.3438C73.044 76.221 73.6813 77.0066 74.6869 77.5352L73.9902 78.7419L73.9903 78.7419H73.9902V81.7959C73.9902 82.1997 74.3176 82.5271 74.7214 82.5271C75.1252 82.5271 75.4526 82.1997 75.4526 81.7959V79.3671L76.2021 78.0689C76.6814 78.1705 77.1959 78.2257 77.7313 78.2257C80.32 78.2257 82.4186 76.9354 82.4186 75.3438C82.4186 73.7522 80.32 72.4619 77.7313 72.4619C75.1425 72.4619 73.044 73.7522 73.044 75.3438Z" clip-rule="evenodd"/><path fill="#633001" fill-rule="evenodd" d="M74.6868 77.5352C74.5755 77.4766 74.4686 77.4149 74.3666 77.3503C73.5479 76.8314 73.0439 76.1238 73.0439 75.3438C73.0439 73.7522 75.1425 72.4619 77.7313 72.4619C80.32 72.4619 82.4186 73.7522 82.4186 75.3438C82.4186 76.9354 80.32 78.2257 77.7313 78.2257C77.1958 78.2257 76.6814 78.1705 76.2021 78.0689L75.4526 79.3671V81.7959C75.4526 82.1997 75.1252 82.5271 74.7214 82.5271C74.3175 82.5271 73.9902 82.1997 73.9902 81.7959V78.7419L74.6868 77.5352ZM73.2437 78.7548V81.7959C73.2437 82.612 73.9053 83.2736 74.7214 83.2736C75.5375 83.2736 76.199 82.612 76.199 81.7959V79.5671L76.5878 78.8938C76.957 78.9452 77.3397 78.9722 77.7313 78.9722C79.1409 78.9722 80.4528 78.6224 81.4367 78.0175C82.4083 77.4201 83.165 76.4959 83.165 75.3438C83.165 74.1918 82.4083 73.2675 81.4367 72.6701C80.4528 72.0652 79.1409 71.7155 77.7313 71.7155C76.3216 71.7155 75.0097 72.0652 74.0259 72.6701C73.0542 73.2675 72.2975 74.1918 72.2975 75.3438C72.2975 76.3549 72.8766 77.1875 73.6812 77.7841L73.3489 78.3597C73.3172 78.4127 73.2919 78.47 73.2741 78.5305C73.2522 78.6043 73.2424 78.6799 73.2437 78.7548Z" clip-rule="evenodd"/><path fill="#9E7200" d="M74.5083 74.1295C74.5083 74.954 75.5586 75.6224 76.8543 75.6224C78.1499 75.6224 79.2002 74.954 79.2002 74.1295C79.2002 73.305 78.1499 72.6366 76.8543 72.6366C75.5586 72.6366 74.5083 73.305 74.5083 74.1295Z"/><path fill="#9E7200" d="M74.5083 73.4897H79.2002V74.1296H74.5083V73.4897Z"/><path fill="#F0B90B" d="M74.5083 73.4897C74.5083 74.3143 75.5586 74.9827 76.8543 74.9827C78.1499 74.9827 79.2002 74.3143 79.2002 73.4897C79.2002 72.6652 78.1499 71.9968 76.8543 71.9968C75.5586 71.9968 74.5083 72.6652 74.5083 73.4897Z"/><path fill="#9E7200" d="M75.964 73.3098L76.6253 72.889C76.765 72.8 76.9436 72.8 77.0833 72.889L77.7445 73.3098C77.8762 73.3936 77.8762 73.5858 77.7445 73.6696L77.0833 74.0904C76.9436 74.1793 76.765 74.1793 76.6253 74.0904L75.964 73.6696C75.8323 73.5858 75.8323 73.3936 75.964 73.3098Z"/><path fill="#633001" fill-rule="evenodd" d="M74.7947 71.8043C75.3562 71.447 76.0864 71.2504 76.8543 71.2504C77.6221 71.2504 78.3523 71.447 78.9139 71.8043C79.4666 72.1561 79.9467 72.7338 79.9467 73.4897V74.1296C79.9467 74.8856 79.4666 75.4633 78.9139 75.815C78.3523 76.1723 77.6221 76.369 76.8543 76.369C76.0864 76.369 75.3562 76.1723 74.7947 75.815C74.242 75.4633 73.7618 74.8856 73.7618 74.1296V73.4897C73.7618 72.7338 74.242 72.1561 74.7947 71.8043ZM76.8543 71.9968C75.5586 71.9968 74.5083 72.6652 74.5083 73.4897V74.1296C74.5083 74.9541 75.5586 75.6225 76.8543 75.6225C78.1499 75.6225 79.2002 74.9541 79.2002 74.1296V73.4897C79.2002 72.6652 78.1499 71.9968 76.8543 71.9968Z" clip-rule="evenodd"/><defs><linearGradient id="paint0_linear" x1="0" x2="96" y1="0" y2="96" gradientUnits="userSpaceOnUse"><stop offset=".245" stop-color="#F16154"/><stop offset=".693" stop-color="#ED8533"/></linearGradient><linearGradient id="paint1_linear" x1="80" x2="80" y1="64" y2="96" gradientUnits="userSpaceOnUse"><stop stop-color="#54DADE"/><stop offset=".762" stop-color="#24C7D6"/></linearGradient><linearGradient id="paint2_linear" x1="77.782" x2="77.782" y1="72.558" y2="82.451" gradientUnits="userSpaceOnUse"><stop stop-color="#9F4A08"/><stop offset=".37" stop-color="#7D3900"/><stop offset="1" stop-color="#8D4104"/></linearGradient></defs></svg>