<svg width="96" height="96" viewBox="0 0 96 96" fill="none" xmlns="http://www.w3.org/2000/svg">
<mask id="mask0" mask-type="alpha" maskUnits="userSpaceOnUse" x="0" y="0" width="96" height="96">
<path fill-rule="evenodd" clip-rule="evenodd" d="M96 0H0V96H69.7487C64.4865 92.6215 61 86.7179 61 80C61 69.5066 69.5066 61 80 61C86.7179 61 92.6215 64.4865 96 69.7487V0Z" fill="#C4C4C4"/>
</mask>
<g mask="url(#mask0)">
<circle cx="48" cy="48" r="48" fill="url(#paint0_linear)"/>
<path fill-rule="evenodd" clip-rule="evenodd" d="M16.8217 53.2739C16.8134 53.4531 16.8092 53.633 16.8092 53.8135C16.8092 54.4958 16.8687 55.1696 16.9845 55.8331H16.8092V56.8777C16.8092 57.3876 16.8424 57.8927 16.9076 58.3924C18.1785 68.1434 31.6136 75.8157 48 75.8157C64.3864 75.8157 77.8215 68.1434 79.0924 58.3924C79.1576 57.8927 79.1908 57.3876 79.1908 56.8777V55.8331H79.0155C79.1313 55.1696 79.1908 54.4958 79.1908 53.8135C79.1908 53.633 79.1866 53.4531 79.1783 53.2739C78.7078 43.0642 64.9289 34.8755 48 34.8755C31.0711 34.8755 17.2922 43.0642 16.8217 53.2739ZM14.26 53.2739C14.492 47.0446 18.725 41.8119 24.6166 38.2347C30.7239 34.5265 38.9975 32.3162 48 32.3162C57.0025 32.3162 65.2761 34.5265 71.3834 38.2347C77.275 41.8119 81.508 47.0446 81.74 53.2739H81.75V56.8777C81.75 63.3444 77.4444 68.7765 71.3834 72.4565C65.2761 76.1647 57.0025 78.375 48 78.375C38.9975 78.375 30.7239 76.1647 24.6166 72.4565C18.5556 68.7765 14.25 63.3444 14.25 56.8777V53.2739H14.26Z" fill="#606063"/>
<path d="M79.1908 56.8782C79.1908 67.3374 65.2262 75.8162 48 75.8162C30.7738 75.8162 16.8092 67.3374 16.8092 56.8782V53.8802H79.1908V56.8782Z" fill="#BEBEBE"/>
<path d="M79.1908 53.8135C79.1908 64.2727 65.2262 72.7515 48 72.7515C30.7738 72.7515 16.8092 64.2727 16.8092 53.8135C16.8092 43.3543 30.7738 34.8755 48 34.8755C65.2262 34.8755 79.1908 43.3543 79.1908 53.8135Z" fill="#FAF9FA"/>
<path fill-rule="evenodd" clip-rule="evenodd" d="M21.6082 48.4635C21.6081 48.4754 21.6081 48.4872 21.6081 48.4991C21.6081 49.3603 21.7329 50.2037 21.9721 51.0228H21.6078V52.1319C21.6078 52.6215 21.6482 53.1052 21.7269 53.5821C22.916 60.7829 32.8644 66.4034 44.9608 66.4034C57.0572 66.4034 67.0055 60.7829 68.1946 53.5821C68.2734 53.1052 68.3137 52.6215 68.3137 52.1319V51.0228H67.95C68.1827 50.226 68.3071 49.4063 68.3137 48.5695C68.3139 48.5461 68.314 48.5226 68.314 48.4991C68.314 48.4872 68.314 48.4754 68.3139 48.4635C68.2825 40.5979 57.8391 34.2276 44.961 34.2276C32.083 34.2276 21.6396 40.5979 21.6082 48.4635ZM19.0489 48.4635H19.0486V52.1319C19.0486 57.3018 22.4672 61.5679 27.1132 64.4072C31.8032 67.2733 38.1196 68.9627 44.9608 68.9627C51.8019 68.9627 58.1184 67.2733 62.8083 64.4072C67.4543 61.5679 70.873 57.3018 70.873 52.1319V48.579C70.8731 48.5524 70.8732 48.5257 70.8732 48.4991C70.8732 43.3292 67.4546 39.0631 62.8086 36.2238C58.1186 33.3577 51.8022 31.6683 44.961 31.6683C38.1199 31.6683 31.8035 33.3577 27.1135 36.2238C22.4781 39.0566 19.0646 43.3096 19.0489 48.4635Z" fill="#633001"/>
<path d="M68.3137 52.132C68.3137 60.014 57.8582 66.4036 44.9608 66.4036C32.0633 66.4036 21.6078 60.014 21.6078 52.132V48.7836H68.3137V52.132Z" fill="#FEDC90"/>
<path d="M68.3137 48.4991C68.3137 56.381 57.8582 62.7706 44.9608 62.7706C32.0633 62.7706 21.6078 56.381 21.6078 48.4991C21.6078 40.6171 32.0633 34.2275 44.9608 34.2275C57.8582 34.2275 68.3137 40.6171 68.3137 48.4991Z" fill="#D1884F"/>
<path fill-rule="evenodd" clip-rule="evenodd" d="M28.6461 40.7856C28.646 40.7975 28.646 40.8093 28.646 40.8212C28.646 41.6824 28.7708 42.5257 29.01 43.3449H28.6457V44.454C28.6457 44.9435 28.6861 45.4273 28.7648 45.9042C29.9539 53.105 39.9023 58.7255 51.9987 58.7255C64.0951 58.7255 74.0434 53.105 75.2325 45.9042C75.3113 45.4273 75.3516 44.9435 75.3516 44.454V43.3449H74.9879C75.2206 42.5481 75.345 41.7283 75.3516 40.8916C75.3518 40.8681 75.3519 40.8447 75.3519 40.8212C75.3519 40.8093 75.3519 40.7975 75.3518 40.7856C75.3204 32.92 64.877 26.5497 51.999 26.5497C39.1209 26.5497 28.6775 32.92 28.6461 40.7856ZM26.0868 40.7856H26.0865V44.454C26.0865 49.6239 29.5051 53.89 34.1511 56.7293C38.8411 59.5954 45.1575 61.2848 51.9987 61.2848C58.8398 61.2848 65.1563 59.5954 69.8462 56.7293C74.4922 53.89 77.9109 49.6239 77.9109 44.454V40.9011C77.911 40.8745 77.9111 40.8478 77.9111 40.8212C77.9111 35.6512 74.4925 31.3852 69.8465 28.5459C65.1565 25.6797 58.8401 23.9904 51.999 23.9904C45.1578 23.9904 38.8414 25.6797 34.1514 28.5459C29.516 31.3787 26.1025 35.6317 26.0868 40.7856Z" fill="#633001"/>
<path d="M75.3516 44.4541C75.3516 52.3361 64.8961 58.7256 51.9987 58.7256C39.1012 58.7256 28.6457 52.3361 28.6457 44.4541V41.1057H75.3516V44.4541Z" fill="#FEDC90"/>
<path d="M75.3516 40.8212C75.3516 48.7032 64.8961 55.0928 51.9987 55.0928C39.1012 55.0928 28.6457 48.7032 28.6457 40.8212C28.6457 32.9393 39.1012 26.5497 51.9987 26.5497C64.8961 26.5497 75.3516 32.9393 75.3516 40.8212Z" fill="#D1884F"/>
<path fill-rule="evenodd" clip-rule="evenodd" d="M21.6082 33.1078C21.6081 33.1196 21.6081 33.1315 21.6081 33.1433C21.6081 34.0045 21.7329 34.8479 21.9721 35.667H21.6078V36.7761C21.6078 37.2657 21.6482 37.7495 21.7269 38.2263C22.916 45.4271 32.8644 51.0477 44.9608 51.0477C57.0572 51.0477 67.0055 45.4271 68.1946 38.2263C68.2734 37.7495 68.3137 37.2657 68.3137 36.7761V35.667H67.95C68.1827 34.8702 68.3071 34.0505 68.3137 33.2137C68.3139 33.1903 68.314 33.1668 68.314 33.1433C68.314 33.1315 68.314 33.1196 68.3139 33.1078C68.2825 25.2422 57.8391 18.8718 44.961 18.8718C32.083 18.8718 21.6396 25.2422 21.6082 33.1078ZM19.0489 33.1078H19.0486V36.7761C19.0486 41.9461 22.4672 46.2121 27.1132 49.0514C31.8032 51.9176 38.1196 53.6069 44.9608 53.6069C51.8019 53.6069 58.1184 51.9176 62.8083 49.0514C67.4543 46.2121 70.873 41.9461 70.873 36.7761V33.2232C70.8731 33.1966 70.8732 33.17 70.8732 33.1433C70.8732 27.9734 67.4546 23.7073 62.8086 20.868C58.1186 18.0019 51.8022 16.3125 44.961 16.3125C38.1199 16.3125 31.8035 18.0019 27.1135 20.868C22.4781 23.7008 19.0646 27.9538 19.0489 33.1078Z" fill="#633001"/>
<path d="M68.3137 36.7763C68.3137 44.6582 57.8582 51.0478 44.9608 51.0478C32.0633 51.0478 21.6078 44.6582 21.6078 36.7763V33.4278H68.3137V36.7763Z" fill="#FEDC90"/>
<path d="M68.3137 33.1433C68.3137 41.0252 57.8582 47.4148 44.9608 47.4148C32.0633 47.4148 21.6078 41.0252 21.6078 33.1433C21.6078 25.2613 32.0633 18.8718 44.9608 18.8718C57.8582 18.8718 68.3137 25.2613 68.3137 33.1433Z" fill="#D1884F"/>
<path fill-rule="evenodd" clip-rule="evenodd" d="M27.1319 34.0313C27.1319 36.6628 29.044 39.0196 32.0606 40.6053L29.9705 44.2255L29.971 44.2257H29.9705V53.3876C29.9705 54.5991 30.9527 55.5812 32.1642 55.5812C33.3757 55.5812 34.3578 54.5991 34.3578 53.3876V46.1012L36.6064 42.2065C38.0442 42.5114 39.5876 42.677 41.1939 42.677C48.9601 42.677 55.2558 38.8062 55.2558 34.0313C55.2558 29.2564 48.9601 25.3856 41.1939 25.3856C33.4277 25.3856 27.1319 29.2564 27.1319 34.0313Z" fill="url(#paint1_linear)"/>
<path fill-rule="evenodd" clip-rule="evenodd" d="M32.0606 40.6053C31.7264 40.4297 31.4058 40.2446 31.0999 40.0507C28.6438 38.4941 27.1319 36.3713 27.1319 34.0313C27.1319 29.2564 33.4276 25.3856 41.1938 25.3856C48.9601 25.3856 55.2558 29.2564 55.2558 34.0313C55.2558 38.8062 48.9601 42.677 41.1938 42.677C39.5876 42.677 38.0442 42.5114 36.6064 42.2065L34.3578 46.1012V53.3876C34.3578 54.5991 33.3757 55.5812 32.1642 55.5812C30.9527 55.5812 29.9705 54.5991 29.9705 53.3876V44.2257L32.0606 40.6053ZM27.7312 44.2642V53.3876C27.7312 55.8359 29.7159 57.8206 32.1642 57.8206C34.6124 57.8206 36.5971 55.8359 36.5971 53.3876V46.7013L37.7634 44.6812C38.8711 44.8356 40.0191 44.9164 41.1938 44.9164C45.4228 44.9164 49.3586 43.867 52.31 42.0524C55.2249 40.2602 57.4951 37.4874 57.4951 34.0313C57.4951 30.5752 55.2249 27.8024 52.31 26.0102C49.3586 24.1956 45.4228 23.1462 41.1938 23.1462C36.9649 23.1462 33.0291 24.1956 30.0777 26.0102C27.1628 27.8024 24.8925 30.5752 24.8925 34.0313C24.8925 37.0646 26.6299 39.5624 29.0437 41.3521L28.0467 43.079C27.9516 43.2381 27.8758 43.41 27.8223 43.5915C27.7568 43.8128 27.7271 44.0397 27.7312 44.2642Z" fill="#633001"/>
<path d="M31.5249 30.3886C31.5249 32.8622 34.6759 34.8674 38.5628 34.8674C42.4497 34.8674 45.6007 32.8622 45.6007 30.3886C45.6007 27.9151 42.4497 25.9099 38.5628 25.9099C34.6759 25.9099 31.5249 27.9151 31.5249 30.3886Z" fill="#9E7200"/>
<path d="M31.5249 28.4691H45.6007V30.3886H31.5249V28.4691Z" fill="#9E7200"/>
<path d="M31.5249 28.4691C31.5249 30.9427 34.6759 32.9479 38.5628 32.9479C42.4497 32.9479 45.6007 30.9427 45.6007 28.4691C45.6007 25.9956 42.4497 23.9904 38.5628 23.9904C34.6759 23.9904 31.5249 25.9956 31.5249 28.4691Z" fill="#F0B90B"/>
<path d="M35.8921 27.9293L37.8758 26.6669C38.295 26.4002 38.8307 26.4002 39.2498 26.6669L41.2336 27.9293C41.6286 28.1807 41.6286 28.7575 41.2336 29.0089L39.2498 30.2713C38.8307 30.538 38.295 30.538 37.8758 30.2713L35.8921 29.0089C35.497 28.7575 35.497 28.1807 35.8921 27.9293Z" fill="#9E7200"/>
<path fill-rule="evenodd" clip-rule="evenodd" d="M32.384 23.4129C34.0687 22.3408 36.2592 21.751 38.5628 21.751C40.8664 21.751 43.057 22.3408 44.7416 23.4129C46.3997 24.468 47.8401 26.2011 47.8401 28.4691V30.3886C47.8401 32.6566 46.3997 34.3897 44.7416 35.4448C43.057 36.5169 40.8664 37.1067 38.5628 37.1067C36.2592 37.1067 34.0687 36.5169 32.384 35.4448C30.7259 34.3897 29.2856 32.6566 29.2856 30.3886V28.4691C29.2856 26.2011 30.7259 24.468 32.384 23.4129ZM38.5628 23.9904C34.6759 23.9904 31.5249 25.9956 31.5249 28.4691V30.3886C31.5249 32.8621 34.6759 34.8674 38.5628 34.8674C42.4497 34.8674 45.6007 32.8621 45.6007 30.3886V28.4691C45.6007 25.9956 42.4497 23.9904 38.5628 23.9904Z" fill="#633001"/>
</g>
<circle cx="80" cy="80" r="16" fill="url(#paint2_linear)"/>
<path fill-rule="evenodd" clip-rule="evenodd" d="M69.6072 81.758C69.6045 81.8177 69.6031 81.8777 69.6031 81.9379C69.6031 82.1653 69.6229 82.3899 69.6615 82.6111H69.6031V82.9593C69.6031 83.1292 69.6141 83.2976 69.6359 83.4642C70.0595 86.7145 74.5379 89.2719 80 89.2719C85.4621 89.2719 89.9405 86.7145 90.3641 83.4642C90.3859 83.2976 90.3969 83.1292 90.3969 82.9593V82.6111H90.3385C90.3771 82.3899 90.3969 82.1653 90.3969 81.9379C90.3969 81.8777 90.3955 81.8177 90.3928 81.758C90.2359 78.3548 85.643 75.6252 80 75.6252C74.357 75.6252 69.7641 78.3548 69.6072 81.758ZM68.7533 81.758C68.8307 79.6815 70.2417 77.9373 72.2055 76.7449C74.2413 75.5089 76.9992 74.7721 80 74.7721C83.0008 74.7721 85.7587 75.5089 87.7945 76.7449C89.7583 77.9373 91.1693 79.6815 91.2467 81.758H91.25V82.9593C91.25 85.1148 89.8148 86.9255 87.7945 88.1522C85.7587 89.3883 83.0008 90.125 80 90.125C76.9992 90.125 74.2413 89.3883 72.2055 88.1522C70.1852 86.9255 68.75 85.1148 68.75 82.9593V81.758H68.7533Z" fill="#606063"/>
<path d="M90.3969 82.9594C90.3969 86.4458 85.7421 89.2721 80 89.2721C74.2579 89.2721 69.6031 86.4458 69.6031 82.9594V81.9601H90.3969V82.9594Z" fill="#BEBEBE"/>
<path d="M90.3969 81.9379C90.3969 85.4242 85.7421 88.2505 80 88.2505C74.2579 88.2505 69.6031 85.4242 69.6031 81.9379C69.6031 78.4515 74.2579 75.6252 80 75.6252C85.7421 75.6252 90.3969 78.4515 90.3969 81.9379Z" fill="#FAF9FA"/>
<path fill-rule="evenodd" clip-rule="evenodd" d="M71.2027 80.1545C71.2027 80.1585 71.2027 80.1624 71.2027 80.1664C71.2027 80.4534 71.2443 80.7346 71.324 81.0076H71.2026V81.3773C71.2026 81.5405 71.216 81.7017 71.2423 81.8607C71.6387 84.261 74.9548 86.1345 78.9869 86.1345C83.019 86.1345 86.3352 84.261 86.7315 81.8607C86.7578 81.7017 86.7712 81.5405 86.7712 81.3773V81.0076H86.65C86.7275 80.742 86.769 80.4688 86.7712 80.1898C86.7713 80.182 86.7713 80.1742 86.7713 80.1664C86.7713 80.1624 86.7713 80.1585 86.7713 80.1545C86.7608 77.5326 83.2797 75.4092 78.987 75.4092C74.6943 75.4092 71.2132 77.5326 71.2027 80.1545ZM70.3496 80.1545H70.3495V81.3773C70.3495 83.1006 71.4891 84.5226 73.0377 85.4691C74.601 86.4244 76.7065 86.9876 78.9869 86.9876C81.2673 86.9876 83.3728 86.4244 84.9361 85.4691C86.4848 84.5226 87.6243 83.1006 87.6243 81.3773V80.193C87.6244 80.1841 87.6244 80.1752 87.6244 80.1664C87.6244 78.4431 86.4849 77.021 84.9362 76.0746C83.3729 75.1192 81.2674 74.5561 78.987 74.5561C76.7066 74.5561 74.6011 75.1192 73.0378 76.0746C71.4927 77.0189 70.3548 78.4365 70.3496 80.1545Z" fill="#633001"/>
<path d="M86.7712 81.3773C86.7712 84.0046 83.2861 86.1345 78.9869 86.1345C74.6878 86.1345 71.2026 84.0046 71.2026 81.3773V80.2612H86.7712V81.3773Z" fill="#FEDC90"/>
<path d="M86.7712 80.1664C86.7712 82.7937 83.2861 84.9235 78.9869 84.9235C74.6878 84.9235 71.2026 82.7937 71.2026 80.1664C71.2026 77.539 74.6878 75.4092 78.9869 75.4092C83.2861 75.4092 86.7712 77.539 86.7712 80.1664Z" fill="#D1884F"/>
<path fill-rule="evenodd" clip-rule="evenodd" d="M73.5487 77.5952C73.5487 77.5991 73.5487 77.6031 73.5487 77.607C73.5487 77.8941 73.5903 78.1752 73.67 78.4483H73.5486V78.818C73.5486 78.9812 73.562 79.1424 73.5883 79.3014C73.9846 81.7016 77.3008 83.5751 81.3329 83.5751C85.365 83.5751 88.6811 81.7016 89.0775 79.3014C89.1038 79.1424 89.1172 78.9812 89.1172 78.818V78.4483H88.996C89.0735 78.1827 89.115 77.9094 89.1172 77.6305C89.1173 77.6227 89.1173 77.6149 89.1173 77.607C89.1173 77.6031 89.1173 77.5991 89.1173 77.5952C89.1068 74.9733 85.6257 72.8499 81.333 72.8499C77.0403 72.8499 73.5592 74.9733 73.5487 77.5952ZM72.6956 77.5952H72.6955V78.818C72.6955 80.5413 73.835 81.9633 75.3837 82.9097C76.947 83.8651 79.0525 84.4282 81.3329 84.4282C83.6133 84.4282 85.7188 83.8651 87.2821 82.9097C88.8307 81.9633 89.9703 80.5413 89.9703 78.818V77.6337C89.9703 77.6248 89.9704 77.6159 89.9704 77.607C89.9704 75.8837 88.8308 74.4617 87.2822 73.5153C85.7188 72.5599 83.6134 71.9968 81.333 71.9968C79.0526 71.9968 76.9471 72.5599 75.3838 73.5153C73.8387 74.4595 72.7008 75.8772 72.6956 77.5952Z" fill="#633001"/>
<path d="M89.1172 78.8181C89.1172 81.4454 85.6321 83.5752 81.3329 83.5752C77.0337 83.5752 73.5486 81.4454 73.5486 78.8181V77.7019H89.1172V78.8181Z" fill="#FEDC90"/>
<path d="M89.1172 77.6071C89.1172 80.2344 85.6321 82.3643 81.3329 82.3643C77.0337 82.3643 73.5486 80.2344 73.5486 77.6071C73.5486 74.9798 77.0337 72.8499 81.3329 72.8499C85.6321 72.8499 89.1172 74.9798 89.1172 77.6071Z" fill="#D1884F"/>
<path fill-rule="evenodd" clip-rule="evenodd" d="M71.2027 75.0359C71.2027 75.0399 71.2027 75.0438 71.2027 75.0478C71.2027 75.3348 71.2443 75.616 71.324 75.889H71.2026V76.2587C71.2026 76.4219 71.216 76.5832 71.2423 76.7421C71.6387 79.1424 74.9548 81.0159 78.9869 81.0159C83.019 81.0159 86.3352 79.1424 86.7315 76.7421C86.7578 76.5832 86.7712 76.4219 86.7712 76.2587V75.889H86.65C86.7275 75.6234 86.769 75.3502 86.7712 75.0712C86.7713 75.0634 86.7713 75.0556 86.7713 75.0478C86.7713 75.0438 86.7713 75.0399 86.7713 75.0359C86.7608 72.4141 83.2797 70.2906 78.987 70.2906C74.6943 70.2906 71.2132 72.4141 71.2027 75.0359ZM70.3496 75.0359H70.3495V76.2587C70.3495 77.982 71.4891 79.404 73.0377 80.3505C74.601 81.3059 76.7065 81.869 78.9869 81.869C81.2673 81.869 83.3728 81.3059 84.9361 80.3505C86.4848 79.404 87.6243 77.982 87.6243 76.2587V75.0744C87.6244 75.0655 87.6244 75.0567 87.6244 75.0478C87.6244 73.3245 86.4849 71.9024 84.9362 70.956C83.3729 70.0006 81.2674 69.4375 78.987 69.4375C76.7066 69.4375 74.6011 70.0006 73.0378 70.956C71.4927 71.9003 70.3548 73.3179 70.3496 75.0359Z" fill="#633001"/>
<path d="M86.7712 76.2587C86.7712 78.886 83.2861 81.0159 78.9869 81.0159C74.6878 81.0159 71.2026 78.886 71.2026 76.2587V75.1426H86.7712V76.2587Z" fill="#FEDC90"/>
<path d="M86.7712 75.0478C86.7712 77.6751 83.2861 79.8049 78.9869 79.8049C74.6878 79.8049 71.2026 77.6751 71.2026 75.0478C71.2026 72.4204 74.6878 70.2906 78.9869 70.2906C83.2861 70.2906 86.7712 72.4204 86.7712 75.0478Z" fill="#D1884F"/>
<path fill-rule="evenodd" clip-rule="evenodd" d="M73.044 75.3437C73.044 76.2209 73.6813 77.0065 74.6869 77.5351L73.9902 78.7418L73.9903 78.7419H73.9902V81.7958C73.9902 82.1997 74.3176 82.5271 74.7214 82.5271C75.1252 82.5271 75.4526 82.1997 75.4526 81.7958V79.3671L76.2021 78.0688C76.6814 78.1704 77.1959 78.2256 77.7313 78.2256C80.32 78.2256 82.4186 76.9354 82.4186 75.3437C82.4186 73.7521 80.32 72.4619 77.7313 72.4619C75.1425 72.4619 73.044 73.7521 73.044 75.3437Z" fill="url(#paint3_linear)"/>
<path fill-rule="evenodd" clip-rule="evenodd" d="M74.6868 77.5351C74.5755 77.4765 74.4686 77.4148 74.3666 77.3502C73.5479 76.8313 73.0439 76.1237 73.0439 75.3437C73.0439 73.7521 75.1425 72.4619 77.7313 72.4619C80.32 72.4619 82.4186 73.7521 82.4186 75.3437C82.4186 76.9354 80.32 78.2256 77.7313 78.2256C77.1958 78.2256 76.6814 78.1704 76.2021 78.0688L75.4526 79.3671V81.7958C75.4526 82.1997 75.1252 82.5271 74.7214 82.5271C74.3175 82.5271 73.9902 82.1997 73.9902 81.7958V78.7419L74.6868 77.5351ZM73.2437 78.7547V81.7958C73.2437 82.6119 73.9053 83.2735 74.7214 83.2735C75.5375 83.2735 76.199 82.6119 76.199 81.7958V79.5671L76.5878 78.8937C76.957 78.9452 77.3397 78.9721 77.7313 78.9721C79.1409 78.9721 80.4528 78.6223 81.4367 78.0174C82.4083 77.4201 83.165 76.4958 83.165 75.3437C83.165 74.1917 82.4083 73.2674 81.4367 72.67C80.4528 72.0652 79.1409 71.7154 77.7313 71.7154C76.3216 71.7154 75.0097 72.0652 74.0259 72.67C73.0542 73.2674 72.2975 74.1917 72.2975 75.3437C72.2975 76.3548 72.8766 77.1874 73.6812 77.784L73.3489 78.3596C73.3172 78.4127 73.2919 78.47 73.2741 78.5305C73.2522 78.6043 73.2424 78.6799 73.2437 78.7547Z" fill="#633001"/>
<path d="M74.5083 74.1295C74.5083 74.954 75.5586 75.6224 76.8543 75.6224C78.1499 75.6224 79.2002 74.954 79.2002 74.1295C79.2002 73.305 78.1499 72.6366 76.8543 72.6366C75.5586 72.6366 74.5083 73.305 74.5083 74.1295Z" fill="#9E7200"/>
<path d="M74.5083 73.4897H79.2002V74.1296H74.5083V73.4897Z" fill="#9E7200"/>
<path d="M74.5083 73.4897C74.5083 74.3142 75.5586 74.9826 76.8543 74.9826C78.1499 74.9826 79.2002 74.3142 79.2002 73.4897C79.2002 72.6652 78.1499 71.9968 76.8543 71.9968C75.5586 71.9968 74.5083 72.6652 74.5083 73.4897Z" fill="#F0B90B"/>
<path d="M75.964 73.3098L76.6253 72.889C76.765 72.8 76.9436 72.8 77.0833 72.889L77.7445 73.3098C77.8762 73.3936 77.8762 73.5858 77.7445 73.6696L77.0833 74.0904C76.9436 74.1793 76.765 74.1793 76.6253 74.0904L75.964 73.6696C75.8323 73.5858 75.8323 73.3936 75.964 73.3098Z" fill="#9E7200"/>
<path fill-rule="evenodd" clip-rule="evenodd" d="M74.7947 71.8043C75.3562 71.4469 76.0864 71.2503 76.8543 71.2503C77.6221 71.2503 78.3523 71.4469 78.9139 71.8043C79.4666 72.156 79.9467 72.7337 79.9467 73.4897V74.1295C79.9467 74.8855 79.4666 75.4632 78.9139 75.8149C78.3523 76.1723 77.6221 76.3689 76.8543 76.3689C76.0864 76.3689 75.3562 76.1723 74.7947 75.8149C74.242 75.4632 73.7618 74.8855 73.7618 74.1295V73.4897C73.7618 72.7337 74.242 72.156 74.7947 71.8043ZM76.8543 71.9968C75.5586 71.9968 74.5083 72.6652 74.5083 73.4897V74.1295C74.5083 74.954 75.5586 75.6224 76.8543 75.6224C78.1499 75.6224 79.2002 74.954 79.2002 74.1295V73.4897C79.2002 72.6652 78.1499 71.9968 76.8543 71.9968Z" fill="#633001"/>
<defs>
<linearGradient id="paint0_linear" x1="48" y1="0" x2="48" y2="96" gradientUnits="userSpaceOnUse">
<stop stop-color="#54DADE"/>
<stop offset="0.762157" stop-color="#24C7D6"/>
</linearGradient>
<linearGradient id="paint1_linear" x1="41.346" y1="25.675" x2="41.346" y2="55.3544" gradientUnits="userSpaceOnUse">
<stop stop-color="#9F4A08"/>
<stop offset="0.370494" stop-color="#7D3900"/>
<stop offset="1" stop-color="#8D4104"/>
</linearGradient>
<linearGradient id="paint2_linear" x1="80" y1="64" x2="80" y2="96" gradientUnits="userSpaceOnUse">
<stop stop-color="#54DADE"/>
<stop offset="0.762157" stop-color="#24C7D6"/>
</linearGradient>
<linearGradient id="paint3_linear" x1="77.782" y1="72.5583" x2="77.782" y2="82.4515" gradientUnits="userSpaceOnUse">
<stop stop-color="#9F4A08"/>
<stop offset="0.370494" stop-color="#7D3900"/>
<stop offset="1" stop-color="#8D4104"/>
</linearGradient>
</defs>
</svg>
