<svg xmlns="http://www.w3.org/2000/svg" width="96" height="96" fill="none" viewBox="0 0 96 96"><mask id="mask0" width="96" height="96" x="0" y="0" mask-type="alpha" maskUnits="userSpaceOnUse"><path fill="#C4C4C4" fill-rule="evenodd" d="M96 0H0V96H69.7487C64.4865 92.6215 61 86.7179 61 80C61 69.5066 69.5066 61 80 61C86.7179 61 92.6215 64.4865 96 69.7487V0Z" clip-rule="evenodd"/></mask><g mask="url(#mask0)"><circle cx="48" cy="48" r="48" fill="#2B2B32"/><g clip-path="url(#clip0)"><path fill="#8A71EA" d="M78.0141 47.4031H81.1316C81.2643 47.4031 81.3306 47.2704 81.3306 47.1378C80.004 42.2293 76.6211 38.7801 75.6262 37.9178C75.4935 37.7851 75.5599 37.6524 75.6925 37.5861C76.0905 37.4534 77.0191 37.1881 78.5447 36.6575C78.6774 36.5911 78.7437 36.4585 78.6774 36.3258C75.0292 31.0193 70.983 28.8967 69.7891 28.4324C69.6564 28.3661 69.6564 28.1671 69.7891 28.1008L72.376 26.5088C72.5086 26.4425 72.5086 26.3098 72.376 26.1772C67.4675 21.7993 63.0896 21.0034 61.763 20.8707C61.6304 20.8707 61.564 20.6717 61.6304 20.5391C61.8957 20.2737 62.36 19.7431 63.0896 18.8808C63.156 18.7481 63.156 18.6155 63.0233 18.5491C58.5791 17.4215 52.2114 17.6868 51.0174 17.7532C50.8847 17.7532 50.8184 17.6868 50.8184 17.5542V14.3039C50.8184 14.1713 50.6858 14.1049 50.6194 14.1049C43.6547 14.9673 39.4758 17.6868 38.3482 18.4828C38.2155 18.5491 38.0165 18.4828 38.0165 18.3501L37.8176 14.5693C37.8176 14.4366 37.6186 14.3039 37.4859 14.4366C32.5774 17.3552 30.1895 20.3401 29.6588 21.0034C29.5925 21.0697 29.4599 21.136 29.3935 21.0697L25.9443 18.5491C25.8117 18.4828 25.6127 18.5491 25.6127 18.6818L25.8117 32.4786C25.8117 32.4786 22.6941 32.0806 21.8981 32.346L15.066 28.3661L22.3624 36.5911C22.2961 36.7238 22.2961 36.7901 22.2298 36.8565C22.2298 36.8565 22.2298 36.8565 22.2298 36.9228L18.3163 57.4191C18.3163 57.4854 18.3163 57.4854 18.3163 57.5517L21.8981 65.2461C21.8981 65.3124 21.9645 65.3788 22.0308 65.3788L39.4758 67.833C39.5422 67.833 39.5422 67.833 39.6085 67.833L59.1761 56.0261H59.2424C60.1711 55.9598 70.1207 54.2352 77.1518 54.6995C77.2845 54.6995 78.0804 54.7658 80.3357 54.7658C80.4683 54.7658 80.5347 54.5005 80.5347 54.3678C79.606 50.8523 78.5447 48.6634 77.8151 47.8674C77.7488 47.6021 77.8814 47.4031 78.0141 47.4031Z"/><path fill="#8A71EA" d="M21.8978 36.0605C21.8978 36.0605 22.4285 36.5911 22.1632 36.9891C21.8978 37.3871 23.4898 36.9891 23.4898 36.9891L23.1581 35.7952"/><path fill="#fff" d="M34.6335 45.3468C35.8938 44.2855 37.2204 44.0865 37.8174 44.0202C38.0164 44.0202 38.149 43.8212 38.0164 43.6222C37.4194 42.4946 36.2918 42.5609 35.6285 42.7599C34.9652 42.9589 34.0365 43.5559 34.2355 45.1478C34.2355 45.4131 34.5008 45.4794 34.6335 45.3468Z"/><path fill="#fff" d="M80.5345 54.6994C80.7335 54.6994 80.9325 54.5668 80.9325 54.3015C80.9325 53.9698 80.6672 53.9698 80.5345 53.9698C75.825 53.1075 68.2633 53.3065 63.4875 54.2351C58.579 55.2301 53.8695 57.021 49.558 59.6079C48.4967 60.2712 47.4354 60.9345 46.3741 61.6642C45.3791 62.3938 44.3841 63.1898 43.3892 63.9194L40.6033 66.44C39.741 67.3023 38.8787 68.2309 38.0164 69.1596C34.8325 72.8078 32.1793 77.053 30.4547 81.4971C30.4547 81.6298 30.4547 81.7625 30.5873 81.8951C30.8526 82.0278 31.0516 81.7625 31.0516 81.7625C35.5621 73.4048 42.4606 66.3737 50.6193 61.5979C54.7981 59.2099 59.2423 57.3527 63.8854 56.2251C68.5949 55.0974 75.8913 54.5668 80.5345 54.6994Z"/><path fill="#fff" d="M42.6595 59.9396C42.6595 59.9396 41.7972 64.9144 38.6797 69.0932C35.5621 73.2721 32.2456 78.5122 32.2456 78.5122C32.2456 78.5122 28.0667 75.9917 27.5361 75.5273C27.0054 75.063 27.5361 69.9555 27.5361 69.9555"/><path fill="#fff" d="M72.0443 41.9639C71.978 41.8313 71.8453 41.7649 71.7127 41.7649C66.9368 42.1629 59.8394 42.3619 54.931 36.4585C54.6656 36.1268 54.7983 35.5962 55.2626 35.4635C56.8545 34.9992 60.4364 34.3359 63.8856 36.7238C65.9419 38.1831 67.6665 39.1117 69.2584 39.775C69.3248 39.775 69.4574 39.8413 69.2584 39.6424C67.9318 38.8464 66.7379 37.9841 65.6766 37.1881C63.0233 35.0655 60.9671 33.8716 57.2525 34.1369C53.8033 34.4022 46.6396 35.0655 42.0627 30.8203C41.7311 30.555 41.8638 30.0244 42.1954 29.8254C44.915 28.6314 54.533 25.5139 64.2836 33.2083C66.8042 35.3308 68.5288 37.0554 69.9881 38.3821C69.9881 38.3821 70.1207 38.5147 70.1207 38.3157C66.1409 31.8816 59.7068 27.0395 51.7471 25.3149C49.6245 24.8506 47.4356 24.6516 45.313 24.6516C45.1803 24.6516 45.0476 24.7179 44.9813 24.8506C42.1954 28.6978 37.4196 30.0244 35.0317 30.157C34.5674 30.157 34.302 29.6927 34.501 29.2947C34.7663 28.7641 35.098 28.1008 35.5623 27.3048C35.7613 26.9731 35.4297 26.5752 35.0317 26.7078C32.5774 27.7028 30.2558 29.0294 28.1996 30.6213C28.0006 30.8203 28.0669 31.152 28.3322 31.2183C29.1282 31.4837 30.0568 31.749 31.1181 31.8816C36.6236 32.5449 44.2517 30.8203 47.6345 36.8565C47.7672 37.1218 47.5019 37.4534 47.1702 37.3208C43.4557 35.4635 38.5472 35.4635 36.491 35.9942C34.2357 36.5248 30.9855 36.3921 28.3322 32.8103C28.1333 32.4123 27.8016 32.0143 27.5363 31.6163C27.4036 31.4837 27.2046 31.4173 27.0056 31.55C26.674 31.8153 26.4086 32.0806 26.077 32.346C25.9443 32.4123 25.8117 32.4786 25.679 32.4123L15.3977 27.7691C14.9997 27.6365 14.7344 28.1671 15.0661 28.3661L28.7302 37.1218L28.7966 37.1881C29.1282 37.3871 30.4548 38.0504 33.1081 38.3157C33.1081 38.3157 33.1081 38.3157 33.1744 38.3157H33.2407C36.5573 38.7801 41.5321 37.1881 44.8486 38.0504C48.0989 38.979 49.5581 42.0303 48.6958 46.0101C48.3642 47.6684 47.0376 48.995 45.4456 50.0563L30.1895 60.006C28.3986 61.1999 25.2147 62.7255 23.1584 63.3888C22.4951 63.5878 21.8318 63.2562 21.6328 62.5929L21.1685 61.0009C21.0358 60.6693 20.9032 60.2713 20.8368 59.9396C20.8368 59.8733 20.8368 59.807 20.8368 59.7406V59.5416C20.8368 59.4753 20.8368 59.409 20.8368 59.409L20.6379 56.8884C20.6379 56.6231 20.7042 56.4241 20.8368 56.2251L22.5615 53.6382C23.0921 52.7759 23.6227 51.9799 24.1534 51.2503C25.1484 49.791 26.0107 48.5307 26.276 47.2704C26.6076 45.8111 26.3423 44.4845 26.4086 43.2906L28.0669 44.0202C28.4649 44.1529 28.7966 43.6885 28.4649 43.4232L26.7403 41.6323L22.6278 37.0554C22.4951 36.8565 22.2298 36.9228 22.0971 37.0554C20.0409 40.0403 18.4489 43.5559 17.653 47.4031C15.2651 58.4803 19.7092 69.4913 28.1333 76.058C28.3986 76.257 28.8629 76.1907 29.0619 75.9254C31.3171 72.8078 33.4397 70.3536 35.1643 68.5626C36.292 67.236 37.4196 66.2411 38.4145 65.3788C38.8125 65.0471 39.2105 64.7155 39.5422 64.4501C42.5271 61.9959 43.6547 59.4753 42.3281 54.5005C42.2617 54.3015 42.3944 54.1025 42.5271 53.9698C52.1451 48.7297 51.4817 43.8875 49.8898 36.9228C49.8235 36.5911 50.0888 36.3258 50.4204 36.4585C53.737 37.6524 60.1711 42.8926 57.5842 54.5005C57.3852 55.4954 57.0535 56.4241 56.7219 57.2864C57.8495 56.9547 59.0435 56.6231 60.1711 56.3578C60.1711 55.0975 60.0384 54.0362 59.7068 52.9749C59.5741 52.4442 60.0384 51.9799 60.5027 52.1126C61.8957 52.5106 64.2173 53.4392 65.8756 55.3628C67.5338 55.1638 68.5951 54.3678 70.3197 54.3015C65.8092 52.7095 60.7681 50.0563 58.7781 43.2242C58.6455 42.8262 58.9771 42.3619 59.4415 42.4283C61.962 42.5609 69.1258 43.2906 71.1157 46.6734C72.177 48.5307 73.172 52.1126 74.1006 53.8372C74.1669 53.9698 74.8966 53.8372 74.8966 53.6382C74.6976 50.1226 73.4373 45.1478 72.0443 41.9639Z"/></g></g><circle cx="80" cy="80" r="16" fill="url(#paint0_linear)"/><path fill="#606063" fill-rule="evenodd" d="M69.6072 81.7579C69.6045 81.8177 69.6031 81.8777 69.6031 81.9378C69.6031 82.1653 69.6229 82.3899 69.6615 82.611H69.6031V82.9592C69.6031 83.1292 69.6141 83.2976 69.6359 83.4641C70.0595 86.7145 74.5379 89.2719 80 89.2719C85.4621 89.2719 89.9405 86.7145 90.3641 83.4641C90.3859 83.2976 90.3969 83.1292 90.3969 82.9592V82.611H90.3385C90.3771 82.3899 90.3969 82.1653 90.3969 81.9378C90.3969 81.8777 90.3955 81.8177 90.3928 81.7579C90.2359 78.3547 85.643 75.6252 80 75.6252C74.357 75.6252 69.7641 78.3547 69.6072 81.7579ZM68.7533 81.7579C68.8307 79.6815 70.2417 77.9373 72.2055 76.7449C74.2413 75.5088 76.9992 74.7721 80 74.7721C83.0008 74.7721 85.7587 75.5088 87.7945 76.7449C89.7583 77.9373 91.1693 79.6815 91.2467 81.7579H91.25V82.9592C91.25 85.1148 89.8148 86.9255 87.7945 88.1522C85.7587 89.3882 83.0008 90.125 80 90.125C76.9992 90.125 74.2413 89.3882 72.2055 88.1522C70.1852 86.9255 68.75 85.1148 68.75 82.9592V81.7579H68.7533Z" clip-rule="evenodd"/><path fill="#BEBEBE" d="M90.3969 82.9594C90.3969 86.4458 85.7421 89.2721 80 89.2721C74.2579 89.2721 69.6031 86.4458 69.6031 82.9594V81.9601H90.3969V82.9594Z"/><path fill="#FAF9FA" d="M90.3969 81.9378C90.3969 85.4242 85.7421 88.2505 80 88.2505C74.2579 88.2505 69.6031 85.4242 69.6031 81.9378C69.6031 78.4514 74.2579 75.6252 80 75.6252C85.7421 75.6252 90.3969 78.4514 90.3969 81.9378Z"/><path fill="#633001" fill-rule="evenodd" d="M71.2027 80.1545C71.2027 80.1585 71.2027 80.1624 71.2027 80.1664C71.2027 80.4534 71.2443 80.7346 71.324 81.0076H71.2026V81.3773C71.2026 81.5405 71.216 81.7017 71.2423 81.8607C71.6387 84.261 74.9548 86.1345 78.9869 86.1345C83.019 86.1345 86.3352 84.261 86.7315 81.8607C86.7578 81.7017 86.7712 81.5405 86.7712 81.3773V81.0076H86.65C86.7275 80.742 86.769 80.4688 86.7712 80.1898C86.7713 80.182 86.7713 80.1742 86.7713 80.1664C86.7713 80.1624 86.7713 80.1585 86.7713 80.1545C86.7608 77.5326 83.2797 75.4092 78.987 75.4092C74.6943 75.4092 71.2132 77.5326 71.2027 80.1545ZM70.3496 80.1545H70.3495V81.3773C70.3495 83.1006 71.4891 84.5226 73.0377 85.4691C74.601 86.4244 76.7065 86.9876 78.9869 86.9876C81.2673 86.9876 83.3728 86.4244 84.9361 85.4691C86.4848 84.5226 87.6243 83.1006 87.6243 81.3773V80.193C87.6244 80.1841 87.6244 80.1752 87.6244 80.1664C87.6244 78.4431 86.4849 77.021 84.9362 76.0746C83.3729 75.1192 81.2674 74.5561 78.987 74.5561C76.7066 74.5561 74.6011 75.1192 73.0378 76.0746C71.4927 77.0189 70.3548 78.4365 70.3496 80.1545Z" clip-rule="evenodd"/><path fill="#FEDC90" d="M86.7712 81.3773C86.7712 84.0047 83.2861 86.1345 78.9869 86.1345C74.6878 86.1345 71.2026 84.0047 71.2026 81.3773V80.2612H86.7712V81.3773Z"/><path fill="#D1884F" d="M86.7712 80.1664C86.7712 82.7937 83.2861 84.9235 78.9869 84.9235C74.6878 84.9235 71.2026 82.7937 71.2026 80.1664C71.2026 77.539 74.6878 75.4092 78.9869 75.4092C83.2861 75.4092 86.7712 77.539 86.7712 80.1664Z"/><path fill="#633001" fill-rule="evenodd" d="M73.5487 77.5952C73.5487 77.5992 73.5487 77.6031 73.5487 77.6071C73.5487 77.8941 73.5903 78.1753 73.67 78.4483H73.5486V78.818C73.5486 78.9812 73.562 79.1425 73.5883 79.3014C73.9846 81.7017 77.3008 83.5752 81.3329 83.5752C85.365 83.5752 88.6811 81.7017 89.0775 79.3014C89.1038 79.1425 89.1172 78.9812 89.1172 78.818V78.4483H88.996C89.0735 78.1827 89.115 77.9095 89.1172 77.6305C89.1173 77.6227 89.1173 77.6149 89.1173 77.6071C89.1173 77.6031 89.1173 77.5992 89.1173 77.5952C89.1068 74.9733 85.6257 72.8499 81.333 72.8499C77.0403 72.8499 73.5592 74.9733 73.5487 77.5952ZM72.6956 77.5952H72.6955V78.818C72.6955 80.5413 73.835 81.9633 75.3837 82.9098C76.947 83.8651 79.0525 84.4283 81.3329 84.4283C83.6133 84.4283 85.7188 83.8651 87.2821 82.9098C88.8307 81.9633 89.9703 80.5413 89.9703 78.818V77.6337C89.9703 77.6248 89.9704 77.616 89.9704 77.6071C89.9704 75.8838 88.8308 74.4617 87.2822 73.5153C85.7188 72.5599 83.6134 71.9968 81.333 71.9968C79.0526 71.9968 76.9471 72.5599 75.3838 73.5153C73.8387 74.4596 72.7008 75.8772 72.6956 77.5952Z" clip-rule="evenodd"/><path fill="#FEDC90" d="M89.1172 78.818C89.1172 81.4454 85.6321 83.5752 81.3329 83.5752C77.0337 83.5752 73.5486 81.4454 73.5486 78.818V77.7019H89.1172V78.818Z"/><path fill="#D1884F" d="M89.1172 77.6071C89.1172 80.2344 85.6321 82.3643 81.3329 82.3643C77.0337 82.3643 73.5486 80.2344 73.5486 77.6071C73.5486 74.9798 77.0337 72.8499 81.3329 72.8499C85.6321 72.8499 89.1172 74.9798 89.1172 77.6071Z"/><path fill="#633001" fill-rule="evenodd" d="M71.2027 75.0359C71.2027 75.0399 71.2027 75.0438 71.2027 75.0478C71.2027 75.3348 71.2443 75.616 71.324 75.889H71.2026V76.2587C71.2026 76.4219 71.216 76.5832 71.2423 76.7421C71.6387 79.1424 74.9548 81.0159 78.9869 81.0159C83.019 81.0159 86.3352 79.1424 86.7315 76.7421C86.7578 76.5832 86.7712 76.4219 86.7712 76.2587V75.889H86.65C86.7275 75.6234 86.769 75.3502 86.7712 75.0712C86.7713 75.0634 86.7713 75.0556 86.7713 75.0478C86.7713 75.0438 86.7713 75.0399 86.7713 75.0359C86.7608 72.4141 83.2797 70.2906 78.987 70.2906C74.6943 70.2906 71.2132 72.4141 71.2027 75.0359ZM70.3496 75.0359H70.3495V76.2587C70.3495 77.982 71.4891 79.404 73.0377 80.3505C74.601 81.3059 76.7065 81.869 78.9869 81.869C81.2673 81.869 83.3728 81.3059 84.9361 80.3505C86.4848 79.404 87.6243 77.982 87.6243 76.2587V75.0744C87.6244 75.0655 87.6244 75.0567 87.6244 75.0478C87.6244 73.3245 86.4849 71.9024 84.9362 70.956C83.3729 70.0006 81.2674 69.4375 78.987 69.4375C76.7066 69.4375 74.6011 70.0006 73.0378 70.956C71.4927 71.9003 70.3548 73.3179 70.3496 75.0359Z" clip-rule="evenodd"/><path fill="#FEDC90" d="M86.7712 76.2587C86.7712 78.8861 83.2861 81.0159 78.9869 81.0159C74.6878 81.0159 71.2026 78.8861 71.2026 76.2587V75.1426H86.7712V76.2587Z"/><path fill="#D1884F" d="M86.7712 75.0478C86.7712 77.6751 83.2861 79.805 78.9869 79.805C74.6878 79.805 71.2026 77.6751 71.2026 75.0478C71.2026 72.4205 74.6878 70.2906 78.9869 70.2906C83.2861 70.2906 86.7712 72.4205 86.7712 75.0478Z"/><path fill="url(#paint1_linear)" fill-rule="evenodd" d="M73.044 75.3438C73.044 76.2209 73.6813 77.0065 74.6869 77.5351L73.9902 78.7418L73.9903 78.7419H73.9902V81.7959C73.9902 82.1997 74.3176 82.5271 74.7214 82.5271C75.1252 82.5271 75.4526 82.1997 75.4526 81.7959V79.3671L76.2021 78.0688C76.6814 78.1705 77.1959 78.2257 77.7313 78.2257C80.32 78.2257 82.4186 76.9354 82.4186 75.3438C82.4186 73.7521 80.32 72.4619 77.7313 72.4619C75.1425 72.4619 73.044 73.7521 73.044 75.3438Z" clip-rule="evenodd"/><path fill="#633001" fill-rule="evenodd" d="M74.6868 77.5351C74.5755 77.4766 74.4686 77.4149 74.3666 77.3502C73.5479 76.8314 73.0439 76.1238 73.0439 75.3438C73.0439 73.7521 75.1425 72.4619 77.7313 72.4619C80.32 72.4619 82.4186 73.7521 82.4186 75.3438C82.4186 76.9354 80.32 78.2257 77.7313 78.2257C77.1958 78.2257 76.6814 78.1705 76.2021 78.0688L75.4526 79.3671V81.7959C75.4526 82.1997 75.1252 82.5271 74.7214 82.5271C74.3175 82.5271 73.9902 82.1997 73.9902 81.7959V78.7419L74.6868 77.5351ZM73.2437 78.7548V81.7959C73.2437 82.612 73.9053 83.2735 74.7214 83.2735C75.5375 83.2735 76.199 82.612 76.199 81.7959V79.5671L76.5878 78.8937C76.957 78.9452 77.3397 78.9721 77.7313 78.9721C79.1409 78.9721 80.4528 78.6223 81.4367 78.0175C82.4083 77.4201 83.165 76.4958 83.165 75.3438C83.165 74.1917 82.4083 73.2675 81.4367 72.6701C80.4528 72.0652 79.1409 71.7154 77.7313 71.7154C76.3216 71.7154 75.0097 72.0652 74.0259 72.6701C73.0542 73.2675 72.2975 74.1917 72.2975 75.3438C72.2975 76.3549 72.8766 77.1875 73.6812 77.784L73.3489 78.3597C73.3172 78.4127 73.2919 78.47 73.2741 78.5305C73.2522 78.6043 73.2424 78.6799 73.2437 78.7548Z" clip-rule="evenodd"/><path fill="#9E7200" d="M74.5083 74.1295C74.5083 74.9541 75.5586 75.6225 76.8543 75.6225C78.1499 75.6225 79.2002 74.9541 79.2002 74.1295C79.2002 73.305 78.1499 72.6366 76.8543 72.6366C75.5586 72.6366 74.5083 73.305 74.5083 74.1295Z"/><path fill="#9E7200" d="M74.5083 73.4897H79.2002V74.1295H74.5083V73.4897Z"/><path fill="#F0B90B" d="M74.5083 73.4897C74.5083 74.3142 75.5586 74.9826 76.8543 74.9826C78.1499 74.9826 79.2002 74.3142 79.2002 73.4897C79.2002 72.6652 78.1499 71.9968 76.8543 71.9968C75.5586 71.9968 74.5083 72.6652 74.5083 73.4897Z"/><path fill="#9E7200" d="M75.964 73.3098L76.6253 72.889C76.765 72.8001 76.9436 72.8001 77.0833 72.889L77.7445 73.3098C77.8762 73.3936 77.8762 73.5858 77.7445 73.6696L77.0833 74.0904C76.9436 74.1794 76.765 74.1794 76.6253 74.0904L75.964 73.6696C75.8323 73.5858 75.8323 73.3936 75.964 73.3098Z"/><path fill="#633001" fill-rule="evenodd" d="M74.7947 71.8043C75.3562 71.4469 76.0864 71.2503 76.8543 71.2503C77.6221 71.2503 78.3523 71.4469 78.9139 71.8043C79.4666 72.156 79.9467 72.7337 79.9467 73.4897V74.1295C79.9467 74.8855 79.4666 75.4632 78.9139 75.815C78.3523 76.1723 77.6221 76.3689 76.8543 76.3689C76.0864 76.3689 75.3562 76.1723 74.7947 75.815C74.242 75.4632 73.7618 74.8855 73.7618 74.1295V73.4897C73.7618 72.7337 74.242 72.156 74.7947 71.8043ZM76.8543 71.9968C75.5586 71.9968 74.5083 72.6652 74.5083 73.4897V74.1295C74.5083 74.9541 75.5586 75.6225 76.8543 75.6225C78.1499 75.6225 79.2002 74.9541 79.2002 74.1295V73.4897C79.2002 72.6652 78.1499 71.9968 76.8543 71.9968Z" clip-rule="evenodd"/><defs><linearGradient id="paint0_linear" x1="80" x2="80" y1="64" y2="96" gradientUnits="userSpaceOnUse"><stop stop-color="#54DADE"/><stop offset=".762" stop-color="#24C7D6"/></linearGradient><linearGradient id="paint1_linear" x1="77.782" x2="77.782" y1="72.558" y2="82.451" gradientUnits="userSpaceOnUse"><stop stop-color="#9F4A08"/><stop offset=".37" stop-color="#7D3900"/><stop offset="1" stop-color="#8D4104"/></linearGradient><clipPath id="clip0"><rect width="66.397" height="67.79" fill="#fff" transform="translate(15 14.1049)"/></clipPath></defs></svg>