<svg xmlns="http://www.w3.org/2000/svg" width="96" height="96" fill="none" viewBox="0 0 96 96"><mask id="mask0" width="96" height="96" x="0" y="0" mask-type="alpha" maskUnits="userSpaceOnUse"><path fill="#C4C4C4" fill-rule="evenodd" d="M96 0H0V96H69.7487C64.4865 92.6215 61 86.7179 61 80C61 69.5066 69.5066 61 80 61C86.7179 61 92.6215 64.4865 96 69.7487V0Z" clip-rule="evenodd"/></mask><g mask="url(#mask0)"><path fill="#3375BB" d="M48 96C74.5097 96 96 74.5097 96 48C96 21.4903 74.5097 0 48 0C21.4903 0 0 21.4903 0 48C0 74.5097 21.4903 96 48 96Z"/><path fill="#FFFDFA" d="M47.9995 22.889L49.3124 21.1801C48.9346 20.8897 48.4712 20.7323 47.9947 20.7323C47.518 20.7323 47.0548 20.8897 46.6769 21.1801L47.9995 22.889ZM70.5707 29.5213H72.7235C72.7274 29.2356 72.6746 28.9521 72.5682 28.6871C72.4618 28.4219 72.304 28.1805 72.1038 27.9768C71.9037 27.7731 71.6652 27.611 71.402 27.4999C71.1388 27.3888 70.8563 27.331 70.5707 27.3298V29.5213ZM47.9995 75.629L46.8024 77.4247C47.1551 77.6608 47.5701 77.7869 47.9947 77.7869C48.4191 77.7869 48.8342 77.6608 49.1869 77.4247L47.9995 75.629ZM25.4475 29.5213V27.3587C25.162 27.36 24.8794 27.4178 24.6162 27.5289C24.3531 27.6399 24.1146 27.802 23.9144 28.0057C23.7142 28.2095 23.5564 28.4509 23.45 28.716C23.3437 28.981 23.2909 29.2646 23.2948 29.5502L25.4475 29.5213ZM46.6865 24.588C56.4564 32.1568 67.6455 31.6741 70.5803 31.6741V27.3587C67.5393 27.3587 57.7984 27.7449 49.3414 21.1801L46.6865 24.588ZM68.4275 29.4826C68.2633 39.4843 67.8386 46.5414 67.0276 51.7642C66.2167 56.987 65.0968 60.0377 63.6197 62.2196C62.1426 64.4014 60.2504 65.8205 57.4797 67.4714C54.7091 69.1222 51.166 70.9565 46.8024 73.843L49.2351 77.4247C53.3671 74.6733 56.804 72.9162 59.7292 71.1689C62.6767 69.5636 65.2345 67.3289 67.2207 64.6234C69.1515 61.7272 70.4741 57.8655 71.3237 52.4207C72.1732 46.9758 72.6077 39.6484 72.7718 29.5502L68.4275 29.4826ZM49.2351 73.843C44.9005 70.9468 41.3671 69.1512 38.6157 67.4811C35.8643 65.8108 33.9721 64.4786 32.4854 62.2196C30.9987 59.9605 29.7919 56.9581 28.9617 51.7642C28.1314 46.5704 27.7646 39.4843 27.6004 29.4826L23.2948 29.5502C23.4588 39.6484 23.9029 46.9951 24.7428 52.4207C25.5827 57.8462 26.8667 61.7078 28.8362 64.6234C30.8128 67.3305 33.3647 69.5658 36.3084 71.1689C39.2047 72.9162 42.6704 74.6733 46.8024 77.4247L49.2351 73.843ZM25.4475 31.6741C28.3438 31.6741 39.5425 32.1568 49.3124 24.588L46.6769 21.1801C38.2006 27.7449 28.4596 27.3587 25.4379 27.3587L25.4475 31.6741Z"/></g><circle cx="80" cy="80" r="16" fill="url(#paint0_linear)"/><path fill="url(#paint1_linear)" d="M70.2594 86.4373C70.2594 87.9893 72.9232 89.2474 76.2091 89.2474C79.495 89.2474 82.1588 87.9893 82.1588 86.4373C82.1588 84.8853 79.495 83.6271 76.2091 83.6271C72.9232 83.6271 70.2594 84.8853 70.2594 86.4373Z"/><path fill="#633001" fill-rule="evenodd" d="M71.6832 89.0989C72.88 89.6642 74.481 89.9934 76.209 89.9934C77.937 89.9934 79.538 89.6642 80.7348 89.0989C81.8741 88.5608 82.9049 87.6705 82.9049 86.4373C82.9049 85.2041 81.8741 84.3137 80.7348 83.7756C79.538 83.2103 77.937 82.8811 76.209 82.8811C74.481 82.8811 72.88 83.2103 71.6832 83.7756C70.5439 84.3137 69.5131 85.2041 69.5131 86.4373C69.5131 87.6705 70.5439 88.5608 71.6832 89.0989ZM76.209 89.2474C72.9231 89.2474 70.2593 87.9893 70.2593 86.4373C70.2593 84.8853 72.9231 83.6271 76.209 83.6271C79.4949 83.6271 82.1587 84.8853 82.1587 86.4373C82.1587 87.9893 79.4949 89.2474 76.209 89.2474Z" clip-rule="evenodd"/><path fill="url(#paint2_linear)" fill-rule="evenodd" d="M75.9281 71.4474C75.667 71.5174 75.5854 71.766 75.6303 71.9337C75.6753 72.1014 75.8703 72.2759 76.1314 72.206C76.3925 72.136 76.4741 71.8874 76.4292 71.7197C76.3842 71.552 76.1892 71.3775 75.9281 71.4474ZM77.4812 71.4593C77.6952 72.2578 77.2122 73.081 76.4025 73.2979C75.5928 73.5148 74.7629 73.0434 74.5489 72.2449C74.3349 71.4464 74.8178 70.6232 75.6275 70.4063C76.4373 70.1893 77.2672 70.6608 77.4812 71.4593Z" clip-rule="evenodd"/><path fill="url(#paint3_linear)" fill-rule="evenodd" d="M76.6096 77.0182C75.3355 76.6769 73.6914 75.2212 73.6914 75.2212L74.4879 72.2285C74.4879 72.2285 76.5754 71.8366 77.903 72.1923C77.9301 72.1996 77.9564 72.2101 77.9817 72.2238C79.4936 70.3092 82.052 69.3706 84.5583 70.042C87.6763 70.8774 89.5223 73.0186 89.6412 73.1596C90.5275 73.8175 90.7762 75.8946 90.1719 78.1495C89.6028 80.2731 88.4573 81.8819 87.4099 82.168L87.4087 82.1728C87.4087 82.1728 84.658 83.1075 81.298 82.2074C78.7917 81.536 77.0455 79.4441 76.6935 77.0303C76.6648 77.0295 76.6368 77.0255 76.6096 77.0182Z" clip-rule="evenodd"/><path fill="#633001" fill-rule="evenodd" d="M77.6673 72.9019C77.1352 72.7694 76.4087 72.77 75.7555 72.8208C75.5009 72.8406 75.27 72.8669 75.0835 72.8916L74.535 74.9526C74.6893 75.076 74.8853 75.2269 75.1059 75.3842C75.651 75.7728 76.2684 76.1427 76.7607 76.2858L77.3415 76.3022L77.4319 76.9227C77.7424 79.0522 79.2829 80.8952 81.4911 81.4868C83.0606 81.9072 84.4918 81.8998 85.5322 81.786C86.0514 81.7292 86.4697 81.6463 86.7543 81.5789C86.7663 81.576 86.778 81.5732 86.7895 81.5704L86.7912 81.5636L87.2133 81.4483C87.4878 81.3733 87.908 81.0694 88.3573 80.4224C88.7898 79.7996 89.1855 78.9477 89.4511 77.9564C89.7334 76.9029 89.8094 75.9139 89.7238 75.1374C89.6336 74.3196 89.3859 73.8993 89.1964 73.7586L89.1267 73.7069L89.0707 73.6405C88.9868 73.541 87.2632 71.5391 84.3652 70.7627C82.1569 70.1711 79.9012 70.9971 78.5673 72.6861L78.1787 73.1782L77.6673 72.9019ZM87.4087 82.1728C87.4087 82.1728 84.658 83.1075 81.298 82.2074C78.7917 81.536 77.0455 79.4441 76.6935 77.0303C76.6648 77.0295 76.6368 77.0255 76.6096 77.0182C75.3355 76.6769 73.6914 75.2212 73.6914 75.2212L74.4879 72.2285C74.4879 72.2285 76.5754 71.8366 77.903 72.1923C77.9301 72.1996 77.9564 72.2101 77.9817 72.2238C79.4936 70.3092 82.052 69.3706 84.5583 70.042C87.6763 70.8774 89.5223 73.0186 89.6412 73.1596C90.5275 73.8175 90.7762 75.8946 90.1719 78.1495C89.6028 80.2731 88.4573 81.8819 87.4099 82.168L87.4087 82.1728Z" clip-rule="evenodd"/><path fill="#633001" d="M84.3365 72.1378C86.5035 72.7183 88.1987 74.3189 88.1987 74.3189C88.1987 74.3189 88.6628 75.2364 88.043 77.5491C87.4232 79.8617 86.5712 80.4267 86.5712 80.4267C86.5712 80.4267 84.4118 80.8864 82.154 80.2815C79.8961 79.6767 78.5544 77.3633 79.1571 75.1144C79.7597 72.8656 82.0787 71.5329 84.3365 72.1378Z"/><path fill="#633001" fill-rule="evenodd" d="M86.5712 80.4267C86.5712 80.4267 87.4232 79.8617 88.043 77.5491C88.6628 75.2364 88.1987 74.3189 88.1987 74.3189C88.1987 74.3189 86.5035 72.7183 84.3365 72.1378C82.0787 71.5329 79.7597 72.8656 79.1571 75.1144C78.5544 77.3633 79.8961 79.6767 82.154 80.2815C84.4118 80.8864 86.5712 80.4267 86.5712 80.4267ZM86.094 79.7504C86.1446 79.7432 86.1899 79.7363 86.2294 79.73C86.2852 79.6695 86.3635 79.5751 86.4562 79.4378C86.6939 79.0856 87.0305 78.4444 87.3222 77.356C87.6137 76.2685 87.6406 75.5454 87.6091 75.1221C87.5962 74.9486 87.5734 74.8242 87.5544 74.7441C87.5181 74.7129 87.4748 74.6763 87.4249 74.6351C87.2467 74.4879 86.9855 74.284 86.6604 74.0628C86.0039 73.6161 85.1164 73.1191 84.1434 72.8584C82.281 72.3595 80.3732 73.4593 79.8778 75.3075C79.3825 77.1558 80.4847 79.062 82.3471 79.5609C83.378 79.8371 84.3998 79.8727 85.1736 79.8357C85.5582 79.8173 85.8754 79.7813 86.094 79.7504Z" clip-rule="evenodd"/><path fill="#606063" fill-rule="evenodd" d="M73.1462 71.4027L72.0954 75.3238L73.5397 75.7107C73.5442 75.7121 73.5488 75.7134 73.5534 75.7146C74.0533 75.8485 74.6937 75.0793 74.9839 73.9965C75.274 72.9138 75.1041 71.9275 74.6043 71.7935L74.6043 71.7933L73.1462 71.4027Z" clip-rule="evenodd"/><path fill="url(#paint4_linear)" fill-rule="evenodd" d="M74.6043 71.7935L74.6043 71.7933L73.1462 71.4027L72.0954 75.3238L73.5397 75.7107C73.5442 75.7121 73.5488 75.7134 73.5534 75.7146C74.0533 75.8485 74.6937 75.0793 74.9839 73.9965C75.274 72.9138 75.1041 71.9275 74.6043 71.7935ZM73.0093 74.7962L73.6428 74.9659C73.6739 74.9417 73.7188 74.9005 73.7738 74.8345C73.9491 74.6239 74.1395 74.2648 74.2631 73.8034C74.3867 73.3421 74.4015 72.9359 74.355 72.6659C74.3403 72.581 74.322 72.5229 74.3071 72.4863L73.6904 72.321L73.6905 72.3209L73.6739 72.3164L73.0093 74.7962Z" clip-rule="evenodd"/><path fill="#979797" d="M73.1461 71.4029C73.6459 71.5368 73.8159 72.5231 73.5257 73.6059C73.2355 74.6886 72.5951 75.4578 72.0952 75.3239C71.5954 75.19 71.4254 74.2037 71.7156 73.1209C72.0058 72.0382 72.6462 71.269 73.1461 71.4029Z"/><path fill="url(#paint5_linear)" fill-rule="evenodd" d="M72.9025 72.3116C72.7338 72.5253 72.5546 72.8729 72.4364 73.314C72.3182 73.7552 72.2995 74.1458 72.3387 74.4153C72.5075 74.2015 72.6867 73.8539 72.8049 73.4128C72.9231 72.9717 72.9418 72.581 72.9025 72.3116ZM73.5257 73.6059C73.8159 72.5231 73.6459 71.5368 73.1461 71.4029C72.6462 71.269 72.0058 72.0382 71.7156 73.1209C71.4254 74.2037 71.5954 75.19 72.0952 75.3239C72.5951 75.4578 73.2355 74.6886 73.5257 73.6059Z" clip-rule="evenodd"/><path fill="url(#paint6_linear)" d="M73.138 71.4312C73.6378 71.5651 73.8078 72.5514 73.5176 73.6342C73.2274 74.717 72.587 75.4862 72.0872 75.3523C71.5873 75.2184 71.4174 74.2321 71.7076 73.1493C71.9977 72.0665 72.6382 71.2973 73.138 71.4312Z"/><path fill="url(#paint7_linear)" fill-rule="evenodd" d="M72.8945 72.3399C72.7257 72.5536 72.5465 72.9013 72.4283 73.3424C72.3101 73.7835 72.2914 74.1741 72.3307 74.4436C72.4994 74.2299 72.6786 73.8822 72.7968 73.4411C72.9151 73 72.9337 72.6094 72.8945 72.3399ZM73.5176 73.6342C73.8078 72.5514 73.6378 71.5651 73.138 71.4312C72.6382 71.2973 71.9977 72.0665 71.7076 73.1493C71.4174 74.2321 71.5873 75.2184 72.0872 75.3523C72.587 75.4862 73.2274 74.717 73.5176 73.6342Z" clip-rule="evenodd"/><path fill="#F0B90B" d="M81.9378 76.2496C81.7906 75.9947 81.8779 75.6688 82.1329 75.5216L83.6394 74.6519C83.8944 74.5048 84.2203 74.5921 84.3675 74.847L85.2373 76.3533C85.3845 76.6082 85.2972 76.9341 85.0423 77.0812L83.5357 77.9509C83.2807 78.0981 82.9548 78.0107 82.8076 77.7559L81.9378 76.2496Z"/><path fill="url(#paint8_linear)" d="M72.3781 73.6997L72.2034 73.6997C71.9466 73.6997 71.7385 73.9078 71.7385 74.1646L71.7385 86.0629C71.7385 86.2395 71.8816 86.3826 72.0583 86.3826C72.2349 86.3826 72.3781 86.2395 72.3781 86.0629L72.3781 73.6997Z"/><path fill="#633001" fill-rule="evenodd" d="M73.1244 73.6997C73.1244 73.2877 72.7903 72.9537 72.3782 72.9537L72.2035 72.9537C71.5346 72.9537 70.9924 73.4958 70.9924 74.1645L70.9924 86.0629C70.9924 86.6515 71.4697 87.1287 72.0584 87.1287C72.6471 87.1287 73.1244 86.6515 73.1244 86.0629L73.1244 73.6997ZM71.7386 74.1645C71.7386 73.9078 71.9467 73.6997 72.2035 73.6997L72.3782 73.6997L72.3782 86.0629C72.3782 86.2395 72.235 86.3826 72.0584 86.3826C71.8818 86.3826 71.7386 86.2395 71.7386 86.0629L71.7386 74.1645Z" clip-rule="evenodd"/><defs><linearGradient id="paint0_linear" x1="80" x2="80" y1="64" y2="96" gradientUnits="userSpaceOnUse"><stop stop-color="#54DADE"/><stop offset=".762" stop-color="#24C7D6"/></linearGradient><linearGradient id="paint1_linear" x1="76.273" x2="76.273" y1="83.681" y2="89.205" gradientUnits="userSpaceOnUse"><stop stop-color="#9F4A08"/><stop offset=".37" stop-color="#7D3900"/><stop offset="1" stop-color="#8D4104"/></linearGradient><linearGradient id="paint2_linear" x1="75.627" x2="76.402" y1="70.406" y2="73.298" gradientUnits="userSpaceOnUse"><stop stop-color="#404042"/><stop offset="1" stop-color="#48484B"/></linearGradient><linearGradient id="paint3_linear" x1="74.079" x2="84.255" y1="73.754" y2="76.541" gradientUnits="userSpaceOnUse"><stop stop-color="#DB8B1C"/><stop offset="1" stop-color="#B3631B"/></linearGradient><linearGradient id="paint4_linear" x1="72.621" x2="74.984" y1="73.363" y2="73.997" gradientUnits="userSpaceOnUse"><stop stop-color="#404042"/><stop offset="1" stop-color="#48484B"/></linearGradient><linearGradient id="paint5_linear" x1="71.716" x2="73.526" y1="73.121" y2="73.606" gradientUnits="userSpaceOnUse"><stop stop-color="#404042"/><stop offset="1" stop-color="#48484B"/></linearGradient><linearGradient id="paint6_linear" x1="71.708" x2="73.518" y1="73.149" y2="73.634" gradientUnits="userSpaceOnUse"><stop stop-color="#404042"/><stop offset="1" stop-color="#48484B"/></linearGradient><linearGradient id="paint7_linear" x1="71.708" x2="73.518" y1="73.149" y2="73.634" gradientUnits="userSpaceOnUse"><stop stop-color="#404042"/><stop offset="1" stop-color="#48484B"/></linearGradient><linearGradient id="paint8_linear" x1="72.062" x2="72.062" y1="73.821" y2="86.287" gradientUnits="userSpaceOnUse"><stop stop-color="#9F4A08"/><stop offset=".37" stop-color="#7D3900"/><stop offset="1" stop-color="#8D4104"/></linearGradient></defs></svg>