<svg xmlns="http://www.w3.org/2000/svg" width="96" height="96" fill="none" viewBox="0 0 96 96"><mask id="mask0" width="96" height="96" x="0" y="0" mask-type="alpha" maskUnits="userSpaceOnUse"><path fill="#C4C4C4" fill-rule="evenodd" d="M96 0H0V96H69.7487C64.4865 92.6215 61 86.7179 61 80C61 69.5066 69.5066 61 80 61C86.7179 61 92.6215 64.4865 96 69.7487V0Z" clip-rule="evenodd"/></mask><g mask="url(#mask0)"><circle cx="48" cy="48" r="48" fill="#fff"/><g clip-path="url(#clip0)"><path fill="#FFCF65" d="M29.7853 48.6783C29.7853 48.6783 28.065 50.308 28.2461 52.3904C28.4272 54.4727 30.5096 56.4645 32.773 56.1929C34.9459 56.0118 37.0282 53.4768 35.7607 50.1269C34.4932 46.596 26.8881 42.1596 38.5674 28.579C38.5674 28.579 32.9541 39.1719 40.4687 44.6947C44.905 47.8635 50.6088 59.3617 43.6375 64.1602C43.6375 64.1602 58.7572 60.9009 45.9009 41.3448C45.9009 41.3448 32.6824 22.6036 53.5966 11.9202C53.5966 11.9202 46.1725 25.0481 55.6789 33.1964C55.6789 33.1964 68.0825 43.5177 69.0784 49.3121C69.0784 49.3121 73.6053 64.975 47.8022 78.103C47.8022 78.103 22.995 64.975 24.1719 50.8512C24.1719 50.9418 27.1597 47.0486 29.7853 48.6783Z" opacity=".2"/><path fill="url(#paint0_linear)" d="M29.7853 51.666C29.7853 51.666 28.065 53.2957 28.2461 55.378C28.4272 57.4604 30.5096 59.4522 32.773 59.1806C35.0364 58.909 37.0282 56.4645 35.7607 53.1146C34.4932 49.5836 26.8881 45.1473 38.5674 31.5667C38.5674 31.5667 32.9541 42.1596 40.4687 47.6824C44.905 50.8512 50.6088 62.3494 43.6375 67.1479C43.6375 67.1479 58.7572 63.8885 45.9009 44.3325C45.9009 44.3325 32.6824 25.5912 53.5966 14.9078C53.5966 14.9078 46.1725 28.0358 55.6789 36.1841C55.6789 36.1841 68.0825 46.5054 69.0784 52.2998C69.0784 52.2998 73.6053 67.9627 47.8022 81.0906C47.8022 81.0906 22.995 67.9627 24.1719 53.8389C24.1719 53.9294 27.1597 50.0363 29.7853 51.666Z"/><path fill="url(#paint1_linear)" d="M76.6836 30.933C76.5025 28.4884 74.9634 26.8588 72.7 26.7682C70.5271 26.7682 68.2636 26.5872 66.0907 26.1345C61.4733 25.3196 59.1194 24.867 55.0452 22.6035C54.8641 23.9616 54.9546 25.6818 55.0452 27.1304C58.9383 29.1222 60.8396 29.3033 65.1854 30.1181C67.5393 30.5708 69.9838 30.7519 72.4283 30.8424C72.5189 30.8424 72.6094 30.8424 72.7905 30.8424C72.7905 31.2046 72.881 31.5667 72.881 31.9289C73.3337 43.246 71.2514 53.9294 65.5475 63.6169C61.2923 70.8599 55.4979 76.2921 48.2549 79.9136C47.9833 80.0042 47.8022 80.0042 47.5306 79.9136C39.4728 75.93 33.4068 69.7735 29.061 61.5346C26.2543 56.1929 24.4436 50.489 23.5382 44.5135C22.995 40.711 22.7234 36.999 22.8139 33.1964C22.8139 32.4721 22.9044 31.6573 22.9044 30.933C23.9909 30.8424 25.0773 30.8424 26.1638 30.7519C31.596 30.2992 34.1311 29.937 39.1106 27.5831C39.3822 26.1345 39.5633 24.4143 40.7403 22.3319C35.9418 25.1386 33.0446 25.8629 27.5218 26.4966C25.8922 26.6777 24.2625 26.6777 22.6328 26.8588C20.8221 26.9493 19.2829 28.579 19.1019 30.4803C19.0113 32.0194 18.9208 33.6491 18.8303 35.1882C18.9208 40.711 19.5546 46.1432 20.9126 51.3944C22.995 59.3617 26.5259 66.5141 31.7771 72.7612C35.8513 77.4691 40.5592 81.1812 46.082 83.8067C47.259 84.35 48.3454 84.35 49.5224 83.8067C55.5884 80.9095 60.749 76.7448 65.0043 71.3126C71.9757 62.4399 75.5066 52.1187 76.5025 40.8015C76.8647 37.5422 76.8647 34.1923 76.6836 30.933Z"/></g></g><circle cx="80" cy="80" r="16" fill="url(#paint2_linear)"/><path fill="#606063" fill-rule="evenodd" d="M69.6072 81.758C69.6045 81.8177 69.6031 81.8777 69.6031 81.9379C69.6031 82.1653 69.6229 82.3899 69.6615 82.6111H69.6031V82.9593C69.6031 83.1292 69.6141 83.2976 69.6359 83.4642C70.0595 86.7145 74.5379 89.2719 80 89.2719C85.4621 89.2719 89.9405 86.7145 90.3641 83.4642C90.3859 83.2976 90.3969 83.1292 90.3969 82.9593V82.6111H90.3385C90.3771 82.3899 90.3969 82.1653 90.3969 81.9379C90.3969 81.8777 90.3955 81.8177 90.3928 81.758C90.2359 78.3548 85.643 75.6252 80 75.6252C74.357 75.6252 69.7641 78.3548 69.6072 81.758ZM68.7533 81.758C68.8307 79.6815 70.2417 77.9373 72.2055 76.7449C74.2413 75.5089 76.9992 74.7721 80 74.7721C83.0008 74.7721 85.7587 75.5089 87.7945 76.7449C89.7583 77.9373 91.1693 79.6815 91.2467 81.758H91.25V82.9593C91.25 85.1148 89.8148 86.9255 87.7945 88.1522C85.7587 89.3883 83.0008 90.125 80 90.125C76.9992 90.125 74.2413 89.3883 72.2055 88.1522C70.1852 86.9255 68.75 85.1148 68.75 82.9593V81.758H68.7533Z" clip-rule="evenodd"/><path fill="#BEBEBE" d="M90.3969 82.9594C90.3969 86.4458 85.7421 89.2721 80 89.2721C74.2579 89.2721 69.6031 86.4458 69.6031 82.9594V81.9601H90.3969V82.9594Z"/><path fill="#FAF9FA" d="M90.3969 81.9378C90.3969 85.4242 85.7421 88.2505 80 88.2505C74.2579 88.2505 69.6031 85.4242 69.6031 81.9378C69.6031 78.4514 74.2579 75.6251 80 75.6251C85.7421 75.6251 90.3969 78.4514 90.3969 81.9378Z"/><path fill="#633001" fill-rule="evenodd" d="M71.2027 80.1544C71.2027 80.1584 71.2027 80.1624 71.2027 80.1663C71.2027 80.4534 71.2443 80.7345 71.3241 81.0075H71.2026V81.3772C71.2026 81.5404 71.2161 81.7017 71.2423 81.8606C71.6387 84.2609 74.9548 86.1344 78.9869 86.1344C83.0191 86.1344 86.3352 84.2609 86.7316 81.8606C86.7578 81.7017 86.7713 81.5404 86.7713 81.3772V81.0075H86.65C86.7276 80.7419 86.7691 80.4687 86.7713 80.1898C86.7713 80.182 86.7713 80.1741 86.7713 80.1663C86.7713 80.1624 86.7713 80.1584 86.7713 80.1544C86.7609 77.5326 83.2797 75.4091 78.987 75.4091C74.6943 75.4091 71.2132 77.5326 71.2027 80.1544ZM70.3497 80.1544H70.3495V81.3772C70.3495 83.1005 71.4891 84.5226 73.0378 85.469C74.6011 86.4244 76.7066 86.9875 78.9869 86.9875C81.2673 86.9875 83.3728 86.4244 84.9361 85.469C86.4848 84.5226 87.6243 83.1005 87.6243 81.3772V80.1929C87.6244 80.1841 87.6244 80.1752 87.6244 80.1663C87.6244 78.443 86.4849 77.021 84.9362 76.0745C83.3729 75.1192 81.2674 74.556 78.987 74.556C76.7066 74.556 74.6012 75.1192 73.0379 76.0745C71.4927 77.0188 70.3549 78.4365 70.3497 80.1544Z" clip-rule="evenodd"/><path fill="#FEDC90" d="M86.7713 81.3774C86.7713 84.0047 83.2861 86.1346 78.987 86.1346C74.6878 86.1346 71.2026 84.0047 71.2026 81.3774V80.2612H86.7713V81.3774Z"/><path fill="#D1884F" d="M86.7713 80.1664C86.7713 82.7937 83.2861 84.9235 78.987 84.9235C74.6878 84.9235 71.2026 82.7937 71.2026 80.1664C71.2026 77.539 74.6878 75.4092 78.987 75.4092C83.2861 75.4092 86.7713 77.539 86.7713 80.1664Z"/><path fill="#633001" fill-rule="evenodd" d="M73.5487 77.5952C73.5487 77.5992 73.5487 77.6031 73.5487 77.6071C73.5487 77.8942 73.5903 78.1753 73.67 78.4483H73.5486V78.818C73.5486 78.9812 73.562 79.1425 73.5883 79.3014C73.9846 81.7017 77.3008 83.5752 81.3329 83.5752C85.365 83.5752 88.6811 81.7017 89.0775 79.3014C89.1038 79.1425 89.1172 78.9812 89.1172 78.818V78.4483H88.996C89.0735 78.1827 89.115 77.9095 89.1172 77.6306C89.1173 77.6228 89.1173 77.6149 89.1173 77.6071C89.1173 77.6031 89.1173 77.5992 89.1173 77.5952C89.1068 74.9734 85.6257 72.8499 81.333 72.8499C77.0403 72.8499 73.5592 74.9734 73.5487 77.5952ZM72.6956 77.5952H72.6955V78.818C72.6955 80.5413 73.835 81.9634 75.3837 82.9098C76.947 83.8652 79.0525 84.4283 81.3329 84.4283C83.6133 84.4283 85.7188 83.8652 87.2821 82.9098C88.8307 81.9634 89.9703 80.5413 89.9703 78.818V77.6337C89.9703 77.6249 89.9704 77.616 89.9704 77.6071C89.9704 75.8838 88.8308 74.4618 87.2822 73.5153C85.7188 72.56 83.6134 71.9968 81.333 71.9968C79.0526 71.9968 76.9471 72.56 75.3838 73.5153C73.8387 74.4596 72.7008 75.8773 72.6956 77.5952Z" clip-rule="evenodd"/><path fill="#FEDC90" d="M89.1172 78.8181C89.1172 81.4454 85.6321 83.5752 81.3329 83.5752C77.0337 83.5752 73.5486 81.4454 73.5486 78.8181V77.7019H89.1172V78.8181Z"/><path fill="#D1884F" d="M89.1172 77.607C89.1172 80.2344 85.6321 82.3642 81.3329 82.3642C77.0337 82.3642 73.5486 80.2344 73.5486 77.607C73.5486 74.9797 77.0337 72.8499 81.3329 72.8499C85.6321 72.8499 89.1172 74.9797 89.1172 77.607Z"/><path fill="#633001" fill-rule="evenodd" d="M71.2027 75.0359C71.2027 75.0399 71.2027 75.0438 71.2027 75.0478C71.2027 75.3348 71.2443 75.616 71.3241 75.889H71.2026V76.2587C71.2026 76.4219 71.2161 76.5832 71.2423 76.7421C71.6387 79.1424 74.9548 81.0159 78.9869 81.0159C83.0191 81.0159 86.3352 79.1424 86.7316 76.7421C86.7578 76.5832 86.7713 76.4219 86.7713 76.2587V75.889H86.65C86.7276 75.6234 86.7691 75.3502 86.7713 75.0712C86.7713 75.0634 86.7713 75.0556 86.7713 75.0478C86.7713 75.0438 86.7713 75.0399 86.7713 75.0359C86.7609 72.4141 83.2797 70.2906 78.987 70.2906C74.6943 70.2906 71.2132 72.4141 71.2027 75.0359ZM70.3497 75.0359H70.3495V76.2587C70.3495 77.982 71.4891 79.404 73.0378 80.3505C74.6011 81.3059 76.7066 81.869 78.9869 81.869C81.2673 81.869 83.3728 81.3059 84.9361 80.3505C86.4848 79.404 87.6243 77.982 87.6243 76.2587V75.0744C87.6244 75.0655 87.6244 75.0567 87.6244 75.0478C87.6244 73.3245 86.4849 71.9024 84.9362 70.956C83.3729 70.0006 81.2674 69.4375 78.987 69.4375C76.7066 69.4375 74.6012 70.0006 73.0379 70.956C71.4927 71.9003 70.3549 73.3179 70.3497 75.0359Z" clip-rule="evenodd"/><path fill="#FEDC90" d="M86.7713 76.2587C86.7713 78.886 83.2861 81.0159 78.987 81.0159C74.6878 81.0159 71.2026 78.886 71.2026 76.2587V75.1426H86.7713V76.2587Z"/><path fill="#D1884F" d="M86.7713 75.0478C86.7713 77.6751 83.2861 79.805 78.987 79.805C74.6878 79.805 71.2026 77.6751 71.2026 75.0478C71.2026 72.4205 74.6878 70.2906 78.987 70.2906C83.2861 70.2906 86.7713 72.4205 86.7713 75.0478Z"/><path fill="url(#paint3_linear)" fill-rule="evenodd" d="M73.0439 75.3438C73.0439 76.221 73.6813 77.0066 74.6868 77.5352L73.9902 78.7419L73.9903 78.7419H73.9902V81.7959C73.9902 82.1997 74.3175 82.5271 74.7214 82.5271C75.1252 82.5271 75.4526 82.1997 75.4526 81.7959V79.3671L76.2021 78.0689C76.6814 78.1705 77.1958 78.2257 77.7313 78.2257C80.32 78.2257 82.4186 76.9354 82.4186 75.3438C82.4186 73.7522 80.32 72.4619 77.7313 72.4619C75.1425 72.4619 73.0439 73.7522 73.0439 75.3438Z" clip-rule="evenodd"/><path fill="#633001" fill-rule="evenodd" d="M74.6868 77.5352C74.5755 77.4766 74.4686 77.4149 74.3666 77.3503C73.5479 76.8314 73.0439 76.1238 73.0439 75.3438C73.0439 73.7522 75.1425 72.4619 77.7313 72.4619C80.32 72.4619 82.4186 73.7522 82.4186 75.3438C82.4186 76.9354 80.32 78.2257 77.7313 78.2257C77.1958 78.2257 76.6814 78.1705 76.2021 78.0689L75.4526 79.3671V81.7959C75.4526 82.1997 75.1252 82.5271 74.7214 82.5271C74.3175 82.5271 73.9902 82.1997 73.9902 81.7959V78.7419L74.6868 77.5352ZM73.2437 78.7548V81.7959C73.2437 82.612 73.9053 83.2736 74.7214 83.2736C75.5375 83.2736 76.199 82.612 76.199 81.7959V79.5671L76.5878 78.8938C76.957 78.9452 77.3397 78.9722 77.7313 78.9722C79.1409 78.9722 80.4528 78.6224 81.4367 78.0175C82.4083 77.4201 83.165 76.4959 83.165 75.3438C83.165 74.1918 82.4083 73.2675 81.4367 72.6701C80.4528 72.0652 79.1409 71.7155 77.7313 71.7155C76.3216 71.7155 75.0097 72.0652 74.0259 72.6701C73.0542 73.2675 72.2975 74.1918 72.2975 75.3438C72.2975 76.3549 72.8766 77.1875 73.6812 77.7841L73.3489 78.3597C73.3172 78.4127 73.2919 78.47 73.2741 78.5305C73.2522 78.6043 73.2424 78.6799 73.2437 78.7548Z" clip-rule="evenodd"/><path fill="#9E7200" d="M74.5083 74.1295C74.5083 74.954 75.5586 75.6224 76.8543 75.6224C78.1499 75.6224 79.2003 74.954 79.2003 74.1295C79.2003 73.305 78.1499 72.6366 76.8543 72.6366C75.5586 72.6366 74.5083 73.305 74.5083 74.1295Z"/><path fill="#9E7200" d="M74.5083 73.4897H79.2002V74.1296H74.5083V73.4897Z"/><path fill="#F0B90B" d="M74.5083 73.4897C74.5083 74.3143 75.5586 74.9827 76.8543 74.9827C78.1499 74.9827 79.2003 74.3143 79.2003 73.4897C79.2003 72.6652 78.1499 71.9968 76.8543 71.9968C75.5586 71.9968 74.5083 72.6652 74.5083 73.4897Z"/><path fill="#9E7200" d="M75.964 73.3098L76.6252 72.889C76.765 72.8 76.9435 72.8 77.0832 72.889L77.7445 73.3098C77.8762 73.3936 77.8762 73.5858 77.7445 73.6696L77.0832 74.0904C76.9435 74.1793 76.765 74.1793 76.6252 74.0904L75.964 73.6696C75.8323 73.5858 75.8323 73.3936 75.964 73.3098Z"/><path fill="#633001" fill-rule="evenodd" d="M74.7947 71.8043C75.3562 71.447 76.0864 71.2504 76.8543 71.2504C77.6221 71.2504 78.3523 71.447 78.9139 71.8043C79.4666 72.1561 79.9467 72.7338 79.9467 73.4897V74.1296C79.9467 74.8856 79.4666 75.4633 78.9139 75.815C78.3523 76.1723 77.6221 76.369 76.8543 76.369C76.0864 76.369 75.3562 76.1723 74.7947 75.815C74.242 75.4633 73.7618 74.8856 73.7618 74.1296V73.4897C73.7618 72.7338 74.242 72.1561 74.7947 71.8043ZM76.8543 71.9968C75.5586 71.9968 74.5083 72.6652 74.5083 73.4897V74.1296C74.5083 74.9541 75.5586 75.6225 76.8543 75.6225C78.1499 75.6225 79.2002 74.9541 79.2002 74.1296V73.4897C79.2002 72.6652 78.1499 71.9968 76.8543 71.9968Z" clip-rule="evenodd"/><defs><linearGradient id="paint0_linear" x1="24.131" x2="69.442" y1="47.999" y2="47.999" gradientUnits="userSpaceOnUse"><stop offset=".188" stop-color="#FFCF65"/><stop offset=".531" stop-color="#FF915A"/><stop offset="1" stop-color="#FF554E"/></linearGradient><linearGradient id="paint1_linear" x1="18.83" x2="76.802" y1="53.273" y2="53.273" gradientUnits="userSpaceOnUse"><stop offset=".085" stop-color="#FF554E"/><stop offset=".907" stop-color="#FFCF65"/></linearGradient><linearGradient id="paint2_linear" x1="80" x2="80" y1="64" y2="96" gradientUnits="userSpaceOnUse"><stop stop-color="#54DADE"/><stop offset=".762" stop-color="#24C7D6"/></linearGradient><linearGradient id="paint3_linear" x1="77.782" x2="77.782" y1="72.558" y2="82.451" gradientUnits="userSpaceOnUse"><stop stop-color="#9F4A08"/><stop offset=".37" stop-color="#7D3900"/><stop offset="1" stop-color="#8D4104"/></linearGradient><clipPath id="clip0"><rect width="57.944" height="72.249" fill="#fff" transform="translate(18.8303 11.9202)"/></clipPath></defs></svg>