<svg width="64" height="64" viewBox="0 0 64 64" fill="none" xmlns="http://www.w3.org/2000/svg">
<path d="M62.5 32C62.5 15.1553 48.8447 1.5 32 1.5C15.1553 1.5 1.5 15.1553 1.5 32C1.5 48.8447 15.1553 62.5 32 62.5C48.8447 62.5 62.5 48.8447 62.5 32Z" fill="url(#paint0_linear_2180_146928)" stroke="white" stroke-width="3"/>
<path d="M24 18.6667V26.6667H24.0133L24 26.68L29.3333 32L24 37.3333L24.0133 37.3467H24V45.3333H40V37.3467H39.9867L40 37.3333L34.6667 32L40 26.68L39.9867 26.6667H40V18.6667H24ZM37.3333 38V42.6667H26.6667V38L32 32.6667L37.3333 38ZM32 31.3333L26.6667 26V21.3333H37.3333V26L32 31.3333Z" fill="white"/>
<defs>
<linearGradient id="paint0_linear_2180_146928" x1="49" y1="59" x2="13.5" y2="-2.30502e-07" gradientUnits="userSpaceOnUse">
<stop stop-color="#FF9B3F"/>
<stop offset="1" stop-color="#FFC76D"/>
</linearGradient>
</defs>
</svg>
