<svg width="64" height="64" viewBox="0 0 64 64" fill="none" xmlns="http://www.w3.org/2000/svg">
<path d="M62.5 32C62.5 15.1553 48.8447 1.5 32 1.5C15.1553 1.5 1.5 15.1553 1.5 32C1.5 48.8447 15.1553 62.5 32 62.5C48.8447 62.5 62.5 48.8447 62.5 32Z" fill="#31D0AA" stroke="white" stroke-width="3"/>
<path d="M28 37.6L23.3333 32.9333C22.8133 32.4133 21.9866 32.4133 21.4666 32.9333C20.9466 33.4533 20.9466 34.28 21.4666 34.8L27.0533 40.3867C27.5733 40.9067 28.4133 40.9067 28.9333 40.3867L43.0666 26.2667C43.5866 25.7467 43.5866 24.92 43.0666 24.4C42.5466 23.88 41.72 23.88 41.2 24.4L28 37.6Z" fill="white"/>
</svg>
