<svg xmlns="http://www.w3.org/2000/svg" width="96" height="96" fill="none" viewBox="0 0 96 96"><circle cx="48" cy="48" r="48" fill="#fff"/><path fill="#0050FF" d="M69.1789 47.594C74.3755 42.1332 77.1939 34.999 77.1939 27.4243C77.1939 25.3985 76.9297 23.3727 76.4893 21.3469L76.0489 19.2331L73.9351 18.7927C71.8212 18.2642 69.7954 18 67.7696 18C60.3711 18 53.5011 20.6423 48.0403 25.5747C47.9522 25.6627 47.5999 25.927 47.5999 26.0151C42.051 20.8185 35.0048 18 27.4302 18C25.4044 18 23.3786 18.2642 21.2647 18.7046L19.1509 19.145L18.7105 21.2589C18.2701 23.3727 18.0059 25.3985 18.0059 27.3362C18.0059 34.9109 20.8243 42.0452 26.0209 47.506C20.8243 53.0548 18.0059 60.101 18.0059 67.7638C18.0059 69.7896 18.2701 71.8154 18.7105 73.8411L19.1509 75.955L21.2647 76.3954C23.2905 76.8358 25.4044 77.1 27.3421 77.1C34.7406 77.1 41.6106 74.4577 47.0714 69.5253C47.1595 69.4373 47.5118 69.173 47.5118 69.0849C52.9726 74.2815 60.1069 77.1 67.6816 77.1C69.7074 77.1 71.7331 76.8358 73.7589 76.3954L75.8728 75.955L76.3132 73.8411C76.7535 71.8154 77.0178 69.7015 77.0178 67.7638C77.1059 60.101 74.2874 53.0548 69.1789 47.594ZM70.412 67.7638C70.412 68.5565 70.3239 69.3492 70.2358 70.23C69.4431 70.318 68.5623 70.4061 67.7696 70.4061C61.7804 70.4061 56.1434 68.1161 51.8276 63.8884C53.5011 61.2461 54.7342 58.4276 55.5269 55.4329L49.0091 53.7595C47.9522 57.811 45.8383 61.4222 42.7556 64.4168C38.5279 68.2923 33.1552 70.4061 27.3421 70.4061C26.5494 70.4061 25.7567 70.318 24.8759 70.23C24.7878 69.4373 24.6997 68.5565 24.6997 67.7638C24.6997 61.4222 27.254 55.521 31.9221 51.1171L35.4452 47.594L31.9221 44.0709C27.254 39.6671 24.6997 33.7659 24.6997 27.4243C24.6997 26.6316 24.7878 25.8389 24.8759 24.9581C25.6686 24.87 26.5494 24.782 27.3421 24.782C33.3313 24.782 38.9683 27.072 43.2841 31.2997C41.6106 33.942 40.3775 36.7605 39.5848 39.7551L46.1026 41.4286C47.1595 37.3771 49.2734 33.7659 52.3561 30.7712C56.5838 26.8958 61.9565 24.782 67.7696 24.782C68.5623 24.782 69.355 24.87 70.2358 24.9581C70.3239 25.7508 70.412 26.6316 70.412 27.4243C70.412 33.7659 67.8577 39.6671 63.1896 44.0709L59.6665 47.594L63.1896 51.1171C67.7696 55.521 70.412 61.4222 70.412 67.7638Z"/></svg>