<svg xmlns="http://www.w3.org/2000/svg" width="96" height="96" fill="none" viewBox="0 0 96 96"><path fill="url(#paint0_linear)" d="M96 48C96 21.4903 74.5097 0 48 0C21.4903 0 0 21.4903 0 48C0 74.5097 21.4903 96 48 96C74.5097 96 96 74.5097 96 48Z"/><g filter="url(#filter0_dii)"><path fill="#fff" d="M69.5963 24L69.339 24.7037L68.4923 26.9556L67.9301 28.4076C63.662 39.2906 60.3415 44.4557 56.8123 44.4557C54.7783 44.4557 53.5746 43.8515 52.0161 42.4334L51.5662 42.0123C50.4449 40.9464 49.9728 40.6844 48.8941 40.6844C48.3318 40.6844 47.3259 41.4263 46.053 43.158C44.733 44.9536 43.2854 47.6065 41.7297 51.1008L41.5848 51.4279L56.7266 51.4286L54.8413 55.4571H40.7016V72H36.5454V24H69.5963ZM63.7047 28.0299L40.7013 28.0286V44.0256C43.4575 39.102 46.0765 36.63 48.8941 36.63C51.0847 36.63 52.3755 37.2653 54.004 38.7437L54.4686 39.1781C55.5154 40.1733 55.9189 40.4015 56.8123 40.4015C57.8001 40.4015 60.4164 36.1253 63.7047 28.0299Z"/></g><defs><filter id="filter0_dii" width="43.051" height="58" x="32.045" y="19.5" color-interpolation-filters="sRGB" filterUnits="userSpaceOnUse"><feFlood flood-opacity="0" result="BackgroundImageFix"/><feColorMatrix in="SourceAlpha" type="matrix" values="0 0 0 0 0 0 0 0 0 0 0 0 0 0 0 0 0 0 127 0"/><feOffset dx=".5" dy=".5"/><feGaussianBlur stdDeviation="2.5"/><feColorMatrix type="matrix" values="0 0 0 0 0.164706 0 0 0 0 0.121569 0 0 0 0 0.129412 0 0 0 0.5 0"/><feBlend in2="BackgroundImageFix" mode="normal" result="effect1_dropShadow"/><feBlend in="SourceGraphic" in2="effect1_dropShadow" mode="normal" result="shape"/><feColorMatrix in="SourceAlpha" result="hardAlpha" type="matrix" values="0 0 0 0 0 0 0 0 0 0 0 0 0 0 0 0 0 0 127 0"/><feOffset dy="-1"/><feGaussianBlur stdDeviation="1"/><feComposite in2="hardAlpha" k2="-1" k3="1" operator="arithmetic"/><feColorMatrix type="matrix" values="0 0 0 0 0.164706 0 0 0 0 0.121569 0 0 0 0 0.129412 0 0 0 1 0"/><feBlend in2="shape" mode="normal" result="effect2_innerShadow"/><feColorMatrix in="SourceAlpha" result="hardAlpha" type="matrix" values="0 0 0 0 0 0 0 0 0 0 0 0 0 0 0 0 0 0 127 0"/><feOffset dy="-1"/><feGaussianBlur stdDeviation="2.5"/><feComposite in2="hardAlpha" k2="-1" k3="1" operator="arithmetic"/><feColorMatrix type="matrix" values="0 0 0 0 1 0 0 0 0 1 0 0 0 0 1 0 0 0 0.75 0"/><feBlend in2="effect2_innerShadow" mode="normal" result="effect3_innerShadow"/></filter><linearGradient id="paint0_linear" x1="48" x2="48" y1="0" y2="96" gradientUnits="userSpaceOnUse"><stop stop-color="#4D3936"/><stop offset=".866" stop-color="#38211D"/><stop offset="1" stop-color="#271B19"/></linearGradient></defs></svg>