<svg width="367" height="289" viewBox="0 0 367 289" fill="none" xmlns="http://www.w3.org/2000/svg">
<rect width="367" height="289" fill="#C4C4C4"/>
<path d="M102.016 137.32H97.168V134.008H110.608V137.32H105.76V151H102.016V137.32ZM110.733 134.008H114.813L117.525 144.904H117.573L121.125 134.008H124.605L128.133 145.192H128.181L131.037 134.008H134.829L129.861 151H126.525L122.781 139.24H122.733L118.989 151H115.773L110.733 134.008ZM136.461 134.008H140.205V151H136.461V134.008ZM146.899 137.32H142.051V134.008H155.491V137.32H150.643V151H146.899V137.32ZM160.68 137.32H155.832V134.008H169.272V137.32H164.424V151H160.68V137.32ZM171.317 134.008H182.861V137.464H175.061V140.632H182.429V144.088H175.061V147.544H183.293V151H171.317V134.008ZM186.291 134.008H192.867C193.731 134.008 194.547 134.096 195.315 134.272C196.099 134.432 196.779 134.712 197.355 135.112C197.947 135.496 198.411 136.024 198.747 136.696C199.099 137.352 199.275 138.176 199.275 139.168C199.275 140.368 198.963 141.392 198.339 142.24C197.715 143.072 196.803 143.6 195.603 143.824L199.923 151H195.435L191.883 144.208H190.035V151H186.291V134.008ZM190.035 141.04H192.243C192.579 141.04 192.931 141.032 193.299 141.016C193.683 140.984 194.027 140.912 194.331 140.8C194.635 140.672 194.883 140.48 195.075 140.224C195.283 139.968 195.387 139.608 195.387 139.144C195.387 138.712 195.299 138.368 195.123 138.112C194.947 137.856 194.723 137.664 194.451 137.536C194.179 137.392 193.867 137.296 193.515 137.248C193.163 137.2 192.819 137.176 192.483 137.176H190.035V141.04ZM209.099 134.008H220.499V137.464H212.843V140.92H219.923V144.376H212.843V151H209.099V134.008ZM223.325 134.008H234.869V137.464H227.069V140.632H234.437V144.088H227.069V147.544H235.301V151H223.325V134.008ZM238.442 134.008H249.986V137.464H242.186V140.632H249.554V144.088H242.186V147.544H250.418V151H238.442V134.008ZM253.416 134.008H259.032C260.392 134.008 261.68 134.16 262.896 134.464C264.128 134.768 265.2 135.264 266.112 135.952C267.024 136.624 267.744 137.504 268.272 138.592C268.816 139.68 269.088 141 269.088 142.552C269.088 143.928 268.824 145.144 268.296 146.2C267.784 147.24 267.088 148.12 266.208 148.84C265.328 149.544 264.312 150.08 263.16 150.448C262.008 150.816 260.8 151 259.536 151H253.416V134.008ZM257.16 147.544H259.104C259.968 147.544 260.768 147.456 261.504 147.28C262.256 147.104 262.904 146.816 263.448 146.416C263.992 146 264.416 145.464 264.72 144.808C265.04 144.136 265.2 143.32 265.2 142.36C265.2 141.528 265.04 140.808 264.72 140.2C264.416 139.576 264 139.064 263.472 138.664C262.944 138.264 262.32 137.968 261.6 137.776C260.896 137.568 260.152 137.464 259.368 137.464H257.16V147.544Z" fill="black"/>
</svg>
