<svg width="15" height="15" viewBox="0 0 15 15" fill="none" xmlns="http://www.w3.org/2000/svg">
<path opacity="0.4" d="M7.5 0C3.35685 0 0 3.35927 0 7.5C0 11.6407 3.35685 15 7.5 15C11.6431 15 15 11.6431 15 7.5C15 3.35685 11.6431 0 7.5 0ZM7.5 3.32661C7.75121 3.32661 7.99679 3.40111 8.20566 3.54067C8.41454 3.68024 8.57734 3.87861 8.67348 4.1107C8.76961 4.3428 8.79477 4.59818 8.74576 4.84457C8.69675 5.09096 8.57578 5.31728 8.39814 5.49491C8.2205 5.67255 7.99418 5.79352 7.7478 5.84253C7.50141 5.89154 7.24602 5.86639 7.01393 5.77025C6.78184 5.67411 6.58347 5.51131 6.4439 5.30244C6.30433 5.09356 6.22984 4.84799 6.22984 4.59677C6.22984 4.25991 6.36366 3.93684 6.60186 3.69863C6.84006 3.46043 7.16313 3.32661 7.5 3.32661ZM9.19355 11.0081C9.19355 11.1043 9.15531 11.1966 9.08726 11.2647C9.0192 11.3327 8.92689 11.371 8.83064 11.371H6.16935C6.07311 11.371 5.9808 11.3327 5.91274 11.2647C5.84469 11.1966 5.80645 11.1043 5.80645 11.0081V10.2823C5.80645 10.186 5.84469 10.0937 5.91274 10.0256C5.9808 9.95759 6.07311 9.91935 6.16935 9.91935H6.53226V7.98387H6.16935C6.07311 7.98387 5.9808 7.94564 5.91274 7.87758C5.84469 7.80952 5.80645 7.71722 5.80645 7.62097V6.89516C5.80645 6.79891 5.84469 6.70661 5.91274 6.63855C5.9808 6.57049 6.07311 6.53226 6.16935 6.53226H8.10484C8.20109 6.53226 8.29339 6.57049 8.36145 6.63855C8.42951 6.70661 8.46774 6.79891 8.46774 6.89516V9.91935H8.83064C8.92689 9.91935 9.0192 9.95759 9.08726 10.0256C9.15531 10.0937 9.19355 10.186 9.19355 10.2823V11.0081Z" fill="#EFF2F4"/>
<path d="M7.50019 5.86698C7.7514 5.86698 7.99698 5.79249 8.20585 5.65292C8.41473 5.51336 8.57753 5.31498 8.67367 5.08289C8.7698 4.8508 8.79495 4.59541 8.74594 4.34903C8.69694 4.10264 8.57596 3.87632 8.39833 3.69868C8.22069 3.52105 7.99437 3.40008 7.74798 3.35107C7.5016 3.30206 7.24621 3.32721 7.01412 3.42335C6.78203 3.51948 6.58366 3.68228 6.44409 3.89116C6.30452 4.10004 6.23003 4.34561 6.23003 4.59682C6.23003 4.93369 6.36385 5.25676 6.60205 5.49496C6.84025 5.73316 7.16332 5.86698 7.50019 5.86698ZM8.83083 9.9194H8.46793V6.89521C8.46793 6.79896 8.4297 6.70666 8.36164 6.6386C8.29358 6.57054 8.20128 6.53231 8.10503 6.53231H6.16954C6.0733 6.53231 5.98099 6.57054 5.91293 6.6386C5.84488 6.70666 5.80664 6.79896 5.80664 6.89521V7.62102C5.80664 7.71726 5.84488 7.80957 5.91293 7.87763C5.98099 7.94568 6.0733 7.98392 6.16954 7.98392H6.53245V9.9194H6.16954C6.0733 9.9194 5.98099 9.95764 5.91293 10.0257C5.84488 10.0938 5.80664 10.1861 5.80664 10.2823V11.0081C5.80664 11.1044 5.84488 11.1967 5.91293 11.2647C5.98099 11.3328 6.0733 11.371 6.16954 11.371H8.83083C8.92708 11.371 9.01939 11.3328 9.08745 11.2647C9.1555 11.1967 9.19374 11.1044 9.19374 11.0081V10.2823C9.19374 10.1861 9.1555 10.0938 9.08745 10.0257C9.01939 9.95764 8.92708 9.9194 8.83083 9.9194Z" fill="black"/>
</svg>
