<svg width="16" height="16" viewBox="0 0 16 16" fill="none" xmlns="http://www.w3.org/2000/svg">
<path d="M8 0C3.58166 0 0 3.58175 0 8C0 12.4182 3.58175 16 8 16C12.4182 16 16 12.4182 16 8C16 3.58175 12.4183 0 8 0ZM7.33306 3.99999C7.33306 3.63185 7.63126 3.33331 7.99973 3.33331C8.36823 3.33331 8.66634 3.63185 8.66634 3.99999V8.74057C8.66634 9.10871 8.36823 9.40725 7.99973 9.40725C7.63126 9.40725 7.33306 9.10871 7.33306 8.74057V3.99999ZM8 12C7.48233 12 7.06268 11.5804 7.06268 11.0628C7.06268 10.5451 7.48233 10.1254 8 10.1254C8.51768 10.1254 8.93732 10.5451 8.93732 11.0628C8.93732 11.5803 8.51768 12 8 12Z" fill="#FFCC47"/>
</svg>
