<svg width="35" height="50" viewBox="0 0 35 50" fill="none" xmlns="http://www.w3.org/2000/svg">
<path d="M9.58803 22.8649C7.72935 23.3629 8.02539 26.0334 8.76388 28.7895C9.50238 31.5456 10.5812 34.0062 12.4399 33.5082C14.2986 33.0102 15.2334 30.0099 14.4949 27.2538C13.7564 24.4978 11.4467 22.3669 9.58803 22.8649Z" fill="#0098A1"/>
<path d="M1 26.4516C1 22.8885 3.88849 20 7.45161 20H13V30H4.54839C2.58867 30 1 28.4113 1 26.4516Z" fill="#1FC7D4"/>
<path d="M6.11115 19.2246C6.79693 20.4124 5.77784 21.3343 4.52793 22.0559C3.27802 22.7776 1.97011 23.1992 1.28433 22.0114C0.598546 20.8236 1.1635 19.1151 2.41341 18.3935C3.66332 17.6718 5.42537 18.0368 6.11115 19.2246Z" fill="#53DEE9"/>
<path d="M1.64665 25.6601C0.285995 27.0207 1.87759 29.1854 3.89519 31.203C5.91279 33.2206 8.07743 34.8122 9.43808 33.4515C10.7987 32.0909 10.1082 29.0252 8.09058 27.0076C6.07298 24.99 3.0073 24.2994 1.64665 25.6601Z" fill="#1FC7D4"/>
<rect width="1" height="10" transform="matrix(-1 0 0 1 14 20)" fill="#1FC7D4"/>
<rect x="9" y="20" width="17" height="10" fill="#1FC7D4"/>
<path d="M16.507 25.706C15.1463 27.0666 16.7379 29.2313 18.7555 31.2489C20.7731 33.2665 22.9378 34.8581 24.2984 33.4974C25.6591 32.1368 24.9685 29.0711 22.9509 27.0535C20.9333 25.0359 17.8676 24.3453 16.507 25.706Z" fill="#1FC7D4"/>
<path d="M22.507 23.706C21.1463 25.0666 22.7379 27.2313 24.7555 29.2489C26.7731 31.2665 28.9378 32.8581 30.2984 31.4974C31.6591 30.1368 30.9685 27.0711 28.9509 25.0535C26.9333 23.0359 23.8676 22.3453 22.507 23.706Z" fill="#1FC7D4"/>
<g filter="url(#filter0_d)">
<path fill-rule="evenodd" clip-rule="evenodd" d="M20.7051 7.63421C20.7814 8.02672 20.8515 8.43767 20.9193 8.85742C20.5725 8.85976 20.227 8.87718 19.8839 8.90896C19.6029 8.29464 19.2694 7.67199 18.8844 7.05277C16.3961 3.05079 14.062 2.9011 11.9886 4.01265C9.91524 5.12421 9.81068 7.89597 12.283 10.5919C12.5705 10.9054 12.8625 11.2384 13.1574 11.5804C10.6603 13.5156 9 16.291 9 19.2695C9 24.8292 14.7852 26 21 26C27.2148 26 33 24.8292 33 19.2695C33 15.8281 30.7835 12.6577 27.6207 10.7413C27.8236 9.78483 27.9357 8.73524 27.9357 7.63421C27.9357 3.17171 26.0947 2 23.8237 2C21.5528 2 20.0512 4.27116 20.7051 7.63421Z" fill="url(#paint0_linear)"/>
</g>
<path d="M21.7284 18.4446C21.796 19.3149 21.4446 21.0556 19.498 21.0556" stroke="#452A7A" stroke-linecap="round"/>
<path d="M21.7457 18.4446C21.6781 19.3149 22.0296 21.0556 23.9761 21.0556" stroke="#452A7A" stroke-linecap="round"/>
<path d="M18 16.5C18 17.6046 17.5523 18 17 18C16.4477 18 16 17.6046 16 16.5C16 15.3954 16.4477 15 17 15C17.5523 15 18 15.3954 18 16.5Z" fill="#452A7A"/>
<path d="M27 16.5C27 17.6046 26.5523 18 26 18C25.4477 18 25 17.6046 25 16.5C25 15.3954 25.4477 15 26 15C26.5523 15 27 15.3954 27 16.5Z" fill="#452A7A"/>
<path d="M15.8002 48V46.308H11.9362V45.384L15.9562 40.272H17.0962V45.252H17.8882V46.308H17.0962V48H15.8002ZM13.2082 45.288H16.0042V41.76L13.2082 45.288ZM18.6918 48V47.352C18.8998 46.864 19.1878 46.424 19.5558 46.032C19.9318 45.64 20.3318 45.26 20.7558 44.892C21.0758 44.612 21.3398 44.376 21.5478 44.184C21.7638 43.984 21.9318 43.804 22.0518 43.644C22.1718 43.484 22.2558 43.32 22.3038 43.152C22.3518 42.976 22.3758 42.772 22.3758 42.54C22.3758 42.124 22.2558 41.808 22.0158 41.592C21.7758 41.376 21.3758 41.268 20.8158 41.268C20.5118 41.268 20.1998 41.3 19.8798 41.364C19.5678 41.428 19.2678 41.516 18.9798 41.628V40.476C19.2598 40.38 19.5918 40.304 19.9758 40.248C20.3598 40.184 20.7238 40.152 21.0678 40.152C21.9318 40.152 22.5838 40.364 23.0238 40.788C23.4638 41.212 23.6838 41.792 23.6838 42.528C23.6838 42.896 23.6198 43.224 23.4918 43.512C23.3638 43.792 23.1878 44.06 22.9638 44.316C22.7398 44.564 22.4798 44.82 22.1838 45.084C21.8158 45.404 21.4678 45.716 21.1398 46.02C20.8198 46.316 20.5598 46.64 20.3598 46.992H23.7678V48H18.6918ZM26.5013 43.68C25.9333 43.68 25.5053 43.524 25.2173 43.212C24.9373 42.892 24.7973 42.488 24.7973 42C24.7973 41.432 24.9373 40.984 25.2173 40.656C25.5053 40.32 25.9333 40.152 26.5013 40.152C27.0693 40.152 27.4933 40.32 27.7733 40.656C28.0533 40.984 28.1933 41.432 28.1933 42C28.1933 42.488 28.0533 42.892 27.7733 43.212C27.4933 43.524 27.0693 43.68 26.5013 43.68ZM25.9733 48L30.0653 40.272H31.2893L27.1973 48H25.9733ZM26.5013 42.888C26.8133 42.888 27.0373 42.808 27.1733 42.648C27.3093 42.488 27.3773 42.264 27.3773 41.976C27.3773 41.624 27.3053 41.368 27.1613 41.208C27.0253 41.04 26.8053 40.956 26.5013 40.956C26.1973 40.956 25.9733 41.04 25.8293 41.208C25.6933 41.368 25.6253 41.624 25.6253 41.976C25.6253 42.264 25.6933 42.488 25.8293 42.648C25.9653 42.808 26.1893 42.888 26.5013 42.888ZM30.7973 48.12C30.2293 48.12 29.8013 47.964 29.5133 47.652C29.2333 47.332 29.0933 46.928 29.0933 46.44C29.0933 45.872 29.2333 45.424 29.5133 45.096C29.8013 44.76 30.2293 44.592 30.7973 44.592C31.3653 44.592 31.7893 44.76 32.0693 45.096C32.3493 45.424 32.4893 45.872 32.4893 46.44C32.4893 46.928 32.3493 47.332 32.0693 47.652C31.7893 47.964 31.3653 48.12 30.7973 48.12ZM30.7973 47.328C31.1093 47.328 31.3333 47.248 31.4693 47.088C31.6053 46.928 31.6733 46.704 31.6733 46.416C31.6733 46.064 31.6013 45.808 31.4573 45.648C31.3213 45.48 31.1013 45.396 30.7973 45.396C30.4933 45.396 30.2693 45.48 30.1253 45.648C29.9893 45.808 29.9213 46.064 29.9213 46.416C29.9213 46.704 29.9893 46.928 30.1253 47.088C30.2613 47.248 30.4853 47.328 30.7973 47.328Z" fill="#8F80BA"/>
<defs>
<filter id="filter0_d" x="7" y="0.5" width="28" height="28" filterUnits="userSpaceOnUse" color-interpolation-filters="sRGB">
<feFlood flood-opacity="0" result="BackgroundImageFix"/>
<feColorMatrix in="SourceAlpha" type="matrix" values="0 0 0 0 0 0 0 0 0 0 0 0 0 0 0 0 0 0 127 0"/>
<feOffset dy="0.5"/>
<feGaussianBlur stdDeviation="1"/>
<feColorMatrix type="matrix" values="0 0 0 0 0 0 0 0 0 0 0 0 0 0 0 0 0 0 0.5 0"/>
<feBlend mode="normal" in2="BackgroundImageFix" result="effect1_dropShadow"/>
<feBlend mode="normal" in="SourceGraphic" in2="effect1_dropShadow" result="shape"/>
</filter>
<linearGradient id="paint0_linear" x1="21" y1="2" x2="21" y2="26" gradientUnits="userSpaceOnUse">
<stop stop-color="#53DEE9"/>
<stop offset="1" stop-color="#1FC7D4"/>
</linearGradient>
</defs>
</svg>
