<svg width="24" height="32" viewBox="0 0 24 32" fill="none" xmlns="http://www.w3.org/2000/svg">
<rect y="18" width="17" height="10" fill="#1FC7D4"/>
<path d="M7.50675 23.7056C6.14677 25.0656 7.73758 27.2292 9.75419 29.2458C11.7708 31.2624 13.9344 32.8532 15.2944 31.4933C16.6543 30.1333 15.9641 27.0691 13.9475 25.0525C11.9309 23.0359 8.86673 22.3457 7.50675 23.7056Z" fill="#1FC7D4"/>
<path d="M13.507 21.706C12.1463 23.0666 13.7379 25.2313 15.7555 27.2489C17.7731 29.2665 19.9378 30.8581 21.2984 29.4974C22.6591 28.1368 21.9685 25.0711 19.9509 23.0535C17.9333 21.0359 14.8676 20.3453 13.507 21.706Z" fill="#1FC7D4"/>
<path fill-rule="evenodd" clip-rule="evenodd" d="M12.146 5.75159C12.2105 6.10896 12.2703 6.48131 12.3281 6.86164C12.2189 6.85865 12.1095 6.85714 12 6.85714C11.3803 6.85714 10.7648 6.90539 10.159 6.99779C9.87904 6.41458 9.55472 5.82246 9.18725 5.23145C6.69897 1.22947 4.53826 0.986793 2.67882 1.98366C0.819381 2.98052 0.856278 5.67644 3.26696 8.40538C3.58076 8.76061 3.90097 9.13983 4.2247 9.52859C1.69013 11.4659 0 14.2644 0 17.2695C0 22.8292 5.78518 24 12 24C18.2148 24 24 22.8292 24 17.2695C24 13.8658 21.8318 10.7272 18.7243 8.80476C18.9022 7.86044 19 6.83019 19 5.75159C19 1.19612 17.2549 0 15.1022 0C12.9495 0 11.5261 2.31847 12.146 5.75159Z" fill="url(#paint0_linear)"/>
<path d="M9.50467 15.0634C8.94352 13.4456 6.79685 13.4456 6.08131 15.0635" stroke="#452A7A" stroke-linecap="round"/>
<path d="M18.8894 15.0634C18.3283 13.4456 16.1816 13.4456 15.4661 15.0635" stroke="#452A7A" stroke-linecap="round"/>
<path d="M12.7284 16.4446C12.796 17.3149 12.4446 19.0556 10.498 19.0556" stroke="#452A7A" stroke-linecap="round"/>
<path d="M12.7457 16.4446C12.6781 17.3149 13.0296 19.0556 14.9761 19.0556" stroke="#452A7A" stroke-linecap="round"/>
<path d="M11.4505 19.0787C11.4505 20.5097 13.955 20.5097 13.955 19.0787" stroke="#452A7A" stroke-linecap="round"/>
<defs>
<linearGradient id="paint0_linear" x1="12" y1="0" x2="12" y2="24" gradientUnits="userSpaceOnUse">
<stop stop-color="#53DEE9"/>
<stop offset="1" stop-color="#1FC7D4"/>
</linearGradient>
</defs>
</svg>
