<svg width="18" height="13" viewBox="0 0 18 13" fill="none" xmlns="http://www.w3.org/2000/svg">
<path d="M1.5 6H4.5C5.05 6 5.5 5.55 5.5 5V1C5.5 0.45 5.05 0 4.5 0L1.5 0C0.95 0 0.5 0.45 0.5 1L0.5 5C0.5 5.55 0.95 6 1.5 6ZM1.5 13H4.5C5.05 13 5.5 12.55 5.5 12L5.5 8C5.5 7.45 5.05 7 4.5 7H1.5C0.95 7 0.5 7.45 0.5 8L0.5 12C0.5 12.55 0.95 13 1.5 13ZM7.5 13H10.5C11.05 13 11.5 12.55 11.5 12V8C11.5 7.45 11.05 7 10.5 7L7.5 7C6.95 7 6.5 7.45 6.5 8L6.5 12C6.5 12.55 6.95 13 7.5 13ZM13.5 13H16.5C17.05 13 17.5 12.55 17.5 12V8C17.5 7.45 17.05 7 16.5 7H13.5C12.95 7 12.5 7.45 12.5 8V12C12.5 12.55 12.95 13 13.5 13ZM7.5 6L10.5 6C11.05 6 11.5 5.55 11.5 5V1C11.5 0.45 11.05 0 10.5 0L7.5 0C6.95 0 6.5 0.45 6.5 1V5C6.5 5.55 6.95 6 7.5 6ZM12.5 1V5C12.5 5.55 12.95 6 13.5 6H16.5C17.05 6 17.5 5.55 17.5 5V1C17.5 0.45 17.05 0 16.5 0L13.5 0C12.95 0 12.5 0.45 12.5 1Z" fill="#000000"/>
</svg>
