<svg xmlns="http://www.w3.org/2000/svg" width="192" height="192" fill="none" viewBox="0 0 192 192"><g clip-path="url(#clip0)"><path fill="#FFC700" d="M128.231 20.0183C131.484 11.0096 123.922 1.79572 113.275 1.79572C104.601 1.79572 97.5684 8.04487 97.5684 15.7536L97.5684 42.2675C97.5684 47.6844 102.51 52.0756 108.606 52.0756C113.402 52.0756 117.649 49.3228 119.115 45.2643L128.231 20.0183Z"/><path fill="#FFD800" d="M117.399 5.23352C119.869 8.33791 114.41 9.07733 109.842 12.7122C105.274 16.3471 103.327 21.501 100.857 18.3966C98.3867 15.2923 100.396 10.2166 104.964 6.58173C109.532 2.94684 114.929 2.12912 117.399 5.23352Z"/><path fill="#FEED8D" d="M111.583 6.58301C112.753 8.05351 109.79 8.70372 107.162 10.7955C104.533 12.8873 103.234 15.6286 102.064 14.1581C100.894 12.6876 102.222 9.98342 104.851 7.89161C107.48 5.7998 110.413 5.1125 111.583 6.58301Z"/><path fill="#FFAF00" d="M104.846 49.7124C102.537 48.0776 107.207 46.625 111.137 42.6953C115.067 38.7657 115.17 32.2485 117.72 34.7984C120.27 37.3483 118.818 42.2654 114.888 46.1951C110.958 50.1248 107.156 51.3471 104.846 49.7124Z"/><path fill="#FFC700" d="M64.1689 20.0183C61.1018 11.0096 68.2317 1.79572 78.2699 1.79572C86.4489 1.79572 93.0792 8.04487 93.0792 15.7536L93.0792 42.2675C93.0792 47.6844 88.4201 52.0757 82.6728 52.0757C78.1505 52.0757 74.1459 49.3228 72.7641 45.2643L64.1689 20.0183Z"/><path fill="#FFD800" d="M78.8234 3.97723C82.013 6.33649 76.9309 8.46373 73.4593 13.1571C69.9877 17.8504 69.4412 23.3326 66.2517 20.9733C63.0621 18.614 63.689 13.1914 67.1606 8.49803C70.6322 3.8047 75.6338 1.61796 78.8234 3.97723Z"/><path fill="#FEED8D" d="M73.5547 6.78601C75.0655 7.90356 72.3717 9.2985 70.3739 11.9994C68.3761 14.7003 67.8308 17.6844 66.3199 16.5669C64.8091 15.4494 65.3925 12.4934 67.3903 9.79251C69.3882 7.09159 72.0438 5.66846 73.5547 6.78601Z"/><path fill="#FFAF00" d="M76.8054 49.7124C74.4955 48.0776 79.1664 46.625 83.096 42.6953C87.0257 38.7657 87.1288 32.2485 89.6787 34.7984C92.2286 37.3483 90.7767 42.2654 86.847 46.1951C82.9173 50.1248 79.1152 51.3471 76.8054 49.7124Z"/><path fill="#FFC700" d="M159.328 119.861C159.328 155.284 130.751 184 95.5001 184C60.249 184 31.6724 155.284 31.6724 119.861C31.6724 84.438 60.249 32.5742 95.5001 32.5742C130.751 32.5742 159.328 84.438 159.328 119.861Z"/><path fill="#FFDB44" d="M44.6008 72.6565C56.2555 50.6003 74.7178 32.5742 95.5 32.5742C106.575 32.5742 116.992 37.6937 126.07 45.8144C130.422 60.0012 125.173 78.3046 111.428 92.05C93.2617 110.216 67.1339 113.541 53.0698 99.4773C46.22 92.6275 43.4951 82.916 44.6008 72.6565Z"/><path fill="#FFE971" d="M89.5869 76.6631C98.4292 67.8208 100.048 55.1032 93.2021 48.2575C86.3565 41.4118 73.6388 43.0304 64.7965 51.8728C55.9542 60.7151 54.3356 73.4327 61.1812 80.2784C68.0269 87.1241 80.7445 85.5055 89.5869 76.6631Z"/><path fill="#FFAF00" d="M151.152 102.324C150.281 99.7324 146.658 100.471 146.269 103.178C141.275 137.926 111.382 164.631 75.2512 164.631C72.5448 164.631 69.8734 164.482 67.2449 164.19C64.5201 163.887 62.9069 167.213 65.2123 168.696C74.1996 174.481 84.8981 177.837 96.3805 177.837C128.228 177.837 154.046 152.02 154.046 120.172C154.046 113.853 153.03 107.911 151.152 102.324Z"/><path fill="#EB8C00" d="M82.116 170.198C114.153 170.198 141.285 149.201 150.504 120.219C151.118 118.29 153.867 118.432 153.867 120.456C153.867 152.303 128.05 178.121 96.2023 178.121C90.7138 178.121 85.4044 177.354 80.3754 175.922C76.7462 174.888 78.3425 170.198 82.116 170.198Z"/><path fill="#fff" d="M79.9164 69.3732C74.4155 74.8742 69.6798 79.0575 65.5541 74.9317C61.4283 70.806 62.5432 63.002 68.0442 57.501C73.5451 52.0001 81.3491 50.8852 85.4749 55.0109C89.6006 59.1367 85.4174 63.8722 79.9164 69.3732Z"/><path fill="#ED8103" d="M56.1666 129.84C55.0466 129.84 53.7266 129.76 52.2066 129.6C50.7266 129.48 49.2466 129.28 47.7666 129C46.3266 128.68 45.0666 128.28 43.9866 127.8V118.74C44.9466 119.18 46.0466 119.56 47.2866 119.88C48.5666 120.2 49.8466 120.44 51.1266 120.6C52.4066 120.76 53.4866 120.84 54.3666 120.84C56.5666 120.84 58.1666 120.5 59.1666 119.82C60.2066 119.14 60.7266 118.06 60.7266 116.58C60.7266 115.18 60.3666 114.18 59.6466 113.58C58.9266 112.94 57.5666 112.62 55.5666 112.62H43.8066V107.46L44.8266 90.6H69.8466L69.0666 99.24H54.4866L54.1266 104.76H58.5066C63.1866 104.76 66.6466 105.8 68.8866 107.88C71.1266 109.96 72.2466 113 72.2466 117C72.2466 120.84 70.9066 123.94 68.2266 126.3C65.5866 128.66 61.5666 129.84 56.1666 129.84Z"/><path fill="#ED8103" d="M93.7515 129.84C89.3115 129.84 85.7315 129.08 83.0115 127.56C80.3315 126 78.3715 123.74 77.1315 120.78C75.8915 117.82 75.2715 114.2 75.2715 109.92C75.2715 105.64 75.8915 102.02 77.1315 99.06C78.3715 96.1 80.3315 93.86 83.0115 92.34C85.7315 90.78 89.3115 90 93.7515 90C100.391 90 105.131 91.72 107.971 95.16C110.811 98.56 112.231 103.48 112.231 109.92C112.231 116.32 110.811 121.24 107.971 124.68C105.131 128.12 100.391 129.84 93.7515 129.84ZM93.7515 120.24C96.3515 120.24 98.1515 119.38 99.1515 117.66C100.191 115.9 100.711 113.32 100.711 109.92C100.711 106.48 100.191 103.9 99.1515 102.18C98.1515 100.46 96.3515 99.6 93.7515 99.6C91.1515 99.6 89.3315 100.46 88.2915 102.18C87.2915 103.9 86.7915 106.48 86.7915 109.92C86.7915 113.32 87.2915 115.9 88.2915 117.66C89.3315 119.38 91.1515 120.24 93.7515 120.24Z"/><path fill="#ED8103" d="M133.712 129.84C129.272 129.84 125.692 129.08 122.972 127.56C120.292 126 118.332 123.74 117.092 120.78C115.852 117.82 115.232 114.2 115.232 109.92C115.232 105.64 115.852 102.02 117.092 99.06C118.332 96.1 120.292 93.86 122.972 92.34C125.692 90.78 129.272 90 133.712 90C140.352 90 145.092 91.72 147.932 95.16C150.772 98.56 152.192 103.48 152.192 109.92C152.192 116.32 150.772 121.24 147.932 124.68C145.092 128.12 140.352 129.84 133.712 129.84ZM133.712 120.24C136.312 120.24 138.112 119.38 139.112 117.66C140.152 115.9 140.672 113.32 140.672 109.92C140.672 106.48 140.152 103.9 139.112 102.18C138.112 100.46 136.312 99.6 133.712 99.6C131.112 99.6 129.292 100.46 128.252 102.18C127.252 103.9 126.752 106.48 126.752 109.92C126.752 113.32 127.252 115.9 128.252 117.66C129.292 119.38 131.112 120.24 133.712 120.24Z"/><path fill="#FFC700" fill-rule="evenodd" d="M46.9866 119.801C47.0857 119.828 47.1857 119.854 47.2866 119.88C48.5666 120.2 49.8466 120.44 51.1266 120.6C52.4066 120.76 53.4866 120.84 54.3666 120.84C56.5666 120.84 58.1666 120.5 59.1666 119.82C60.2066 119.14 60.7266 118.06 60.7266 116.58C60.7266 115.18 60.3666 114.18 59.6466 113.58C58.9266 112.94 57.5666 112.62 55.5666 112.62H43.8066V107.46L44.8266 90.6H69.8466L69.0666 99.24H54.4866L54.1266 104.76H58.5066C63.1866 104.76 66.6466 105.8 68.8866 107.88C71.1266 109.96 72.2466 113 72.2466 117C72.2466 120.84 70.9066 123.94 68.2266 126.3C65.5866 128.66 61.5666 129.84 56.1666 129.84C55.0466 129.84 53.7266 129.76 52.2066 129.6C50.7266 129.48 49.2466 129.28 47.7666 129C46.3266 128.68 45.0666 128.28 43.9866 127.8V118.74C44.8685 119.144 45.8685 119.498 46.9866 119.801ZM51.9284 132.587C50.3531 132.458 48.7798 132.245 47.209 131.948L47.1623 131.939L47.1158 131.929C45.5266 131.575 44.0691 131.12 42.7682 130.541L40.9866 129.75V115.62H40.8066V107.369L42.0027 87.6H73.1297L71.808 102.24H63.7597C66.5726 102.807 69.0144 103.905 70.928 105.682C71.4541 106.17 71.9278 106.693 72.3515 107.248C72.5659 103.774 73.2162 100.642 74.3645 97.9008C75.8487 94.3579 78.2454 91.5959 81.5254 89.7339C84.849 87.8298 88.9969 87 93.7515 87C100.836 87 106.635 88.8346 110.279 93.2432C111.785 95.048 112.92 97.1521 113.72 99.5179C113.904 98.9648 114.106 98.4256 114.325 97.9008C115.81 94.3577 118.207 91.5957 121.487 89.7337C124.81 87.8297 128.958 87 133.712 87C140.797 87 146.596 88.8346 150.24 93.2432C153.693 97.3806 155.192 103.092 155.192 109.92C155.192 116.721 153.688 122.421 150.246 126.59C146.602 131.004 140.8 132.84 133.712 132.84C128.965 132.84 124.826 132.033 121.509 130.179L121.486 130.166L121.463 130.153C118.198 128.252 115.808 125.479 114.325 121.939C114.104 121.41 113.9 120.866 113.715 120.307C112.915 122.668 111.784 124.774 110.285 126.59C106.641 131.004 100.84 132.84 93.7515 132.84C89.0041 132.84 84.8654 132.033 81.548 130.179L81.525 130.166L81.5023 130.153C78.3074 128.293 75.95 125.597 74.461 122.166C73.6628 124.602 72.2531 126.749 70.2179 128.544C66.8019 131.593 61.9257 132.84 56.1666 132.84C54.9212 132.84 53.5036 132.752 51.9284 132.587ZM147.932 95.16C145.092 91.72 140.352 90 133.712 90C129.272 90 125.692 90.78 122.972 92.34C120.292 93.86 118.332 96.1 117.092 99.06C115.852 102.02 115.232 105.64 115.232 109.92C115.232 114.2 115.852 117.82 117.092 120.78C118.332 123.74 120.292 126 122.972 127.56C125.692 129.08 129.272 129.84 133.712 129.84C140.352 129.84 145.092 128.12 147.932 124.68C150.772 121.24 152.192 116.32 152.192 109.92C152.192 103.48 150.772 98.56 147.932 95.16ZM107.971 95.16C105.131 91.72 100.391 90 93.7515 90C89.3115 90 85.7315 90.78 83.0115 92.34C80.3315 93.86 78.3715 96.1 77.1315 99.06C75.8915 102.02 75.2715 105.64 75.2715 109.92C75.2715 114.2 75.8915 117.82 77.1315 120.78C78.3715 123.74 80.3315 126 83.0115 127.56C85.7315 129.08 89.3115 129.84 93.7515 129.84C100.391 129.84 105.131 128.12 107.971 124.68C110.811 121.24 112.231 116.32 112.231 109.92C112.231 103.48 110.811 98.56 107.971 95.16ZM44.3796 115.62H55.5666C56.4256 115.62 57.0183 115.691 57.3995 115.78C57.5153 115.807 57.5972 115.833 57.6518 115.853C57.6844 115.97 57.7266 116.198 57.7266 116.58C57.7266 116.973 57.6577 117.148 57.6336 117.199C57.6214 117.224 57.6118 117.236 57.6041 117.245C57.5959 117.254 57.5742 117.277 57.5249 117.309L57.5022 117.324L57.4797 117.339C57.2408 117.502 56.3919 117.84 54.3666 117.84C53.6537 117.84 52.7065 117.774 51.4987 117.623C50.3448 117.479 49.1872 117.262 48.0253 116.972C46.927 116.688 46.0032 116.364 45.2366 116.013L44.3796 115.62ZM96.5633 116.143L96.5687 116.134C97.2101 115.048 97.7115 113.1 97.7115 109.92C97.7115 106.685 97.2049 104.759 96.5843 103.732L96.5709 103.71L96.558 103.688C96.2603 103.176 95.6584 102.6 93.7515 102.6C91.8734 102.6 91.2116 103.162 90.8713 103.712C90.2735 104.756 89.7915 106.697 89.7915 109.92C89.7915 113.076 90.2649 115.035 90.8785 116.14C91.2208 116.686 91.8865 117.24 93.7515 117.24C95.6584 117.24 96.2603 116.664 96.558 116.152L96.5633 116.143ZM88.2915 102.18C89.3315 100.46 91.1515 99.6 93.7515 99.6C96.3515 99.6 98.1515 100.46 99.1515 102.18C100.191 103.9 100.711 106.48 100.711 109.92C100.711 113.32 100.191 115.9 99.1515 117.66C98.1515 119.38 96.3515 120.24 93.7515 120.24C91.1515 120.24 89.3315 119.38 88.2915 117.66C87.2915 115.9 86.7915 113.32 86.7915 109.92C86.7915 106.48 87.2915 103.9 88.2915 102.18ZM136.524 116.143L136.53 116.134C137.171 115.048 137.672 113.1 137.672 109.92C137.672 106.685 137.166 104.759 136.545 103.732L136.532 103.71L136.519 103.688C136.221 103.176 135.619 102.6 133.712 102.6C131.834 102.6 131.173 103.161 130.832 103.711C130.234 104.756 129.752 106.697 129.752 109.92C129.752 113.076 130.226 115.035 130.839 116.14C131.182 116.686 131.847 117.24 133.712 117.24C135.619 117.24 136.221 116.664 136.519 116.152L136.524 116.143ZM128.252 102.18C129.292 100.46 131.112 99.6 133.712 99.6C136.312 99.6 138.112 100.46 139.112 102.18C140.152 103.9 140.672 106.48 140.672 109.92C140.672 113.32 140.152 115.9 139.112 117.66C138.112 119.38 136.312 120.24 133.712 120.24C131.112 120.24 129.292 119.38 128.252 117.66C127.252 115.9 126.752 113.32 126.752 109.92C126.752 106.48 127.252 103.9 128.252 102.18Z" clip-rule="evenodd"/></g><defs><clipPath id="clip0"><rect width="192" height="192" fill="#fff"/></clipPath></defs></svg>