<svg xmlns="http://www.w3.org/2000/svg" xmlns:v="https://vecta.io/nano" xmlns:xlink="http://www.w3.org/1999/xlink" width="192" height="192" fill="none"><use fill="#eff3f5" xlink:href="#C"/><mask id="A" width="154" height="154" x="19" y="19" mask-type="alpha" maskUnits="userSpaceOnUse"><use fill="#eff3f5" xlink:href="#C"/></mask><g mask="url(#A)"><path fill="#3bade7" d="M88.746 92.234c-3.662-8.083-14.516-11.243-22.157-6.449-7.277 4.565-8.068 14.154-1.664 20.173l6.541 6.147c1.494 1.405 2.688 3.048 3.516 4.84l5.472 11.843c2.686 5.812 10.491 8.087 16.032 4.672 3.656-2.253 5.267-6.416 4.026-10.403l-4.83-15.515-6.936-15.308z"/><path fill="#3bade7" d="M97.019 93.126c2.124-8.503 11.675-13.837 20.122-11.238 8.579 2.639 11.876 12.173 6.883 19.899l-4.586 7.097c-.596.922-1.093 1.891-1.485 2.892l-5.982 15.286c-1.976 5.051-7.814 7.963-13.024 6.498-4.034-1.136-6.635-4.636-6.466-8.701l.617-14.798c.041-.986.185-1.974.428-2.95l3.493-13.985z"/><path fill="#3bade7" d="M142.99 158.345c0 25.635-9.63 46.416-46.833 46.416s-46.833-20.781-46.833-46.416 9.63-46.415 46.834-46.415 46.833 20.781 46.833 46.415z"/><path fill="#0f1837" d="M125.311 129.961c0 7.136-6.263 7.384-30.459 7.384s-30.459-.248-30.459-7.384 6.263-12.922 30.459-12.922 30.459 5.785 30.459 12.922z"/><path fill="#fff" d="M102.075 130.835c-1.187-2.067.562-3.979 3.2-5.502s5.166-2.081 6.354-.014-.562 3.98-3.2 5.503-5.166 2.08-6.354.013zm-14.945 0c1.188-2.067-.562-3.979-3.2-5.502s-5.166-2.081-6.353-.014.562 3.98 3.2 5.503 5.166 2.08 6.353.013z"/><path fill="#ed8103" d="M-4.762 160.337a7.19 7.19 0 0 1 7.189-7.189h186.845a7.19 7.19 0 0 1 7.189 7.189v40.064a7.19 7.19 0 0 1-7.189 7.189H2.427a7.19 7.19 0 0 1-7.189-7.189v-40.064z"/><path fill="#a4defb" d="M82.859 157.174c0 6.456-5.117 8.572-11.43 8.572S60 163.63 60 157.174s5.117-8.572 11.43-8.572 11.43 2.116 11.43 8.572zm48.7-.602c0 6.456-5.05 8.573-11.28 8.573S109 163.028 109 156.572 114.05 148 120.279 148s11.28 2.116 11.28 8.572z"/><path fill="#ffb237" d="M-1.259 59.807l26.88-3.205 13.637 114.389-26.88 3.205L-1.259 59.807z"/><path fill="#ed8103" d="M-1.259 59.807l26.88-3.205 6.988 58.612c-14.845 1.77-28.315-8.83-30.085-23.675l-3.783-31.732z"/><path fill="#ffb237" d="M193.365 59.807l-26.88-3.205-13.637 114.389 26.88 3.205 13.637-114.389z"/><path fill="#ed8103" d="M193.365 59.807l-26.88-3.205-6.987 58.612c14.845 1.77 28.314-8.83 30.084-23.675l3.783-31.732z"/><path fill="#0098a1" d="M164.826-12h-32.843l6.353 67.561a18.05 18.05 0 0 0 17.968 16.357h5.598c11.651 0 20.249-10.876 17.56-22.212L164.826-12z"/><path fill="#53dee9" d="M26.873-12h32.843l-6.353 67.561a18.05 18.05 0 0 1-17.968 16.357h-5.598c-11.651 0-20.249-10.876-17.56-22.212L26.873-12zm105.11 0H95.849v65.871a18.05 18.05 0 0 0 18.047 18.047h6.155c10.634 0 18.963-9.149 17.967-19.737L131.983-12z"/><path fill="#0098a1" d="M59.716-12H95.85v65.871a18.05 18.05 0 0 1-18.047 18.047h-6.155c-10.634 0-18.963-9.149-17.968-19.737L59.716-12z"/></g><defs><path id="C" d="M19 79.8c0-21.282 0-31.923 4.142-40.052a38 38 0 0 1 16.607-16.607C47.877 19 58.518 19 79.8 19h32.4c21.282 0 31.923 0 40.052 4.142a38 38 0 0 1 16.606 16.607C173 47.877 173 58.518 173 79.8v32.4c0 21.282 0 31.923-4.142 40.052-3.643 7.15-9.456 12.963-16.606 16.606C144.123 173 133.482 173 112.2 173H79.8c-21.282 0-31.923 0-40.052-4.142a38 38 0 0 1-16.607-16.606C19 144.123 19 133.482 19 112.2V79.8z"/></defs></svg>