<svg xmlns="http://www.w3.org/2000/svg" width="192" height="192" fill="none" viewBox="0 0 192 192"><mask id="mask0" width="154" height="154" x="19" y="19" mask-type="alpha" maskUnits="userSpaceOnUse"><path fill="#EFF3F5" d="M19 79.8C19 58.518 19 47.877 23.1418 39.7484C26.7849 32.5982 32.5982 26.7849 39.7484 23.1418C47.877 19 58.518 19 79.8 19H112.2C133.482 19 144.123 19 152.252 23.1418C159.402 26.7849 165.215 32.5982 168.858 39.7484C173 47.877 173 58.518 173 79.8V112.2C173 133.482 173 144.123 168.858 152.252C165.215 159.402 159.402 165.215 152.252 168.858C144.123 173 133.482 173 112.2 173H79.8C58.518 173 47.877 173 39.7484 168.858C32.5982 165.215 26.7849 159.402 23.1418 152.252C19 144.123 19 133.482 19 112.2V79.8Z"/></mask><g mask="url(#mask0)"><path fill="#EFF3F5" d="M19 79.8C19 58.518 19 47.877 23.1418 39.7484C26.7849 32.5982 32.5982 26.7849 39.7484 23.1418C47.877 19 58.518 19 79.8 19H112.2C133.482 19 144.123 19 152.252 23.1418C159.402 26.7849 165.215 32.5982 168.858 39.7484C173 47.877 173 58.518 173 79.8V112.2C173 133.482 173 144.123 168.858 152.252C165.215 159.402 159.402 165.215 152.252 168.858C144.123 173 133.482 173 112.2 173H79.8C58.518 173 47.877 173 39.7484 168.858C32.5982 165.215 26.7849 159.402 23.1418 152.252C19 144.123 19 133.482 19 112.2V79.8Z"/><path fill="#2AD4B7" d="M67.4072 108.537C64.7088 100.364 70.7438 91.0364 79.4543 89.9174C86.4294 89.0213 92.3127 93.8701 92.8007 100.917L93.771 114.929C93.9222 114.921 94.0741 114.914 94.2264 114.907C95.6079 114.844 96.9478 114.814 98.2471 114.817L99.2097 100.917C99.6976 93.8701 105.581 89.0213 112.556 89.9174C121.266 91.0364 127.302 100.364 124.603 108.537L120.898 119.76C132.618 126.268 136.743 138.56 137.391 152.753C138.393 174.698 130.703 192.876 97.8552 194.376C65.0074 195.876 55.6927 178.474 54.6907 156.53C53.9846 141.067 57.5942 127.474 71.2803 120.269L67.4072 108.537Z"/><rect width="201.223" height="54.441" x="-4.762" y="153.148" fill="#FFB237" rx="7.189"/><path fill="#37F" d="M73.8594 156.307C73.8594 162.763 68.7421 164.879 62.4297 164.879C56.1172 164.879 51 162.763 51 156.307C51 149.851 56.1172 147.734 62.4297 147.734C68.7421 147.734 73.8594 149.851 73.8594 156.307Z"/><path fill="#37F" d="M142.559 155.705C142.559 162.161 137.509 164.277 131.279 164.277C125.05 164.277 120 162.161 120 155.705C120 149.249 125.05 147.133 131.279 147.133C137.509 147.133 142.559 149.249 142.559 155.705Z"/><rect width="27.07" height="115.199" x="-1.259" y="59.806" fill="#FFB237" transform="rotate(-6.79861 -1.25854 59.8064)"/><path fill="#ED8103" d="M-1.25854 59.8064L25.6214 56.6018L32.609 115.214C17.7636 116.984 4.29432 106.384 2.52448 91.5383L-1.25854 59.8064Z"/><rect width="27.07" height="115.199" fill="#FFB237" transform="matrix(-0.992968 -0.11838 -0.11838 0.992968 193.365 59.8064)"/><path fill="#ED8103" d="M193.365 59.8064L166.485 56.6018L159.497 115.214C174.343 116.984 187.812 106.384 189.582 91.5383L193.365 59.8064Z"/><path fill="#0098A1" d="M164.826 4H131.983L138.337 71.5607C139.208 80.8322 146.992 87.918 156.304 87.918H161.902C173.553 87.918 182.151 77.0424 179.462 65.7061L164.826 4Z"/><path fill="#53DEE9" d="M26.8733 4H59.7158L53.3627 71.5607C52.4908 80.8322 44.7075 87.918 35.3951 87.918H29.7969C18.146 87.918 9.54832 77.0424 12.2372 65.7061L26.8733 4Z"/><path fill="#53DEE9" d="M131.983 4H95.8492V69.8711C95.8492 79.8381 103.929 87.918 113.896 87.918H120.051C130.685 87.918 139.014 78.7692 138.018 68.1815L131.983 4Z"/><path fill="#0098A1" d="M59.7162 4H95.85V69.8711C95.85 79.8381 87.7702 87.918 77.8032 87.918H71.6485C61.0141 87.918 52.6853 78.7692 53.6809 68.1815L59.7162 4Z"/><path fill="#002D87" d="M84.5041 137.031C81.2089 137.181 80.0019 134.455 79.8456 131.032C79.6893 127.608 80.6428 124.784 83.938 124.633C87.2332 124.483 88.4402 127.209 88.5965 130.632C88.7528 134.056 87.7993 136.88 84.5041 137.031Z"/><path fill="#002D87" d="M107.942 137.031C104.646 137.181 103.439 134.455 103.283 131.032C103.127 127.608 104.08 124.784 107.376 124.633C110.671 124.483 111.878 127.209 112.034 130.632C112.19 134.056 111.237 136.88 107.942 137.031Z"/><path fill="#37F" fill-rule="evenodd" d="M70 129L61 129C59.8954 129 59 128.105 59 127C59 125.895 59.8954 125 61 125L70.5121 125C71.7476 121.504 75.0813 119 79 119H86C89.9187 119 93.2524 121.504 94.4879 125L97.5121 125C98.7476 121.504 102.081 119 106 119H113C116.919 119 120.252 121.504 121.488 125L131 125C132.105 125 133 125.895 133 127C133 128.105 132.105 129 131 129L122 129V134C122 138.971 117.971 143 113 143H106C101.029 143 97 138.971 97 134V129L95 129V134C95 138.971 90.9706 143 86 143H79C74.0294 143 70 138.971 70 134V129ZM86 123H79C76.2386 123 74 125.239 74 128V134C74 136.761 76.2386 139 79 139H86C88.7614 139 91 136.761 91 134V128C91 125.239 88.7614 123 86 123ZM106 123H113C115.761 123 118 125.239 118 128V134C118 136.761 115.761 139 113 139H106C103.239 139 101 136.761 101 134V128C101 125.239 103.239 123 106 123Z" clip-rule="evenodd"/></g></svg>