<svg xmlns="http://www.w3.org/2000/svg" xmlns:xlink="http://www.w3.org/1999/xlink" width="375pt" height="374.999991pt" viewBox="0 0 375 374.999991" version="1.2">
    <defs>
        <clipPath id="clip1">
            <path d="M 68 43.828125 L 375 43.828125 L 375 331.078125 L 68 331.078125 Z M 68 43.828125 "/>
        </clipPath>
    </defs>
    <g id="surface1">
        <path style=" stroke:none;fill-rule:nonzero;fill:rgb(23.919678%,26.669312%,20.779419%);fill-opacity:1;" d="M 231.226562 299.855469 C 169.222656 299.855469 118.789062 249.433594 118.789062 187.453125 C 118.789062 125.472656 169.222656 75.050781 231.226562 75.050781 C 293.230469 75.050781 343.664062 125.472656 343.664062 187.453125 C 343.664062 249.433594 293.230469 299.855469 231.226562 299.855469 Z M 231.226562 50.074219 C 155.316406 50.074219 93.800781 111.566406 93.800781 187.453125 C 93.800781 263.339844 155.316406 324.832031 231.226562 324.832031 C 307.136719 324.832031 368.652344 263.339844 368.652344 187.453125 C 368.652344 111.566406 307.136719 50.074219 231.226562 50.074219 "/>
        <path style=" stroke:none;fill-rule:nonzero;fill:rgb(23.919678%,26.669312%,20.779419%);fill-opacity:1;" d="M 243.71875 187.453125 C 243.71875 180.550781 238.132812 174.964844 231.226562 174.964844 C 224.320312 174.964844 218.734375 180.550781 218.734375 187.453125 C 218.734375 194.355469 224.320312 199.941406 231.226562 199.941406 C 238.132812 199.941406 243.71875 194.355469 243.71875 187.453125 "/>
        <path style=" stroke:none;fill-rule:nonzero;fill:rgb(10.198975%,49.798584%,38.42926%);fill-opacity:1;" d="M 68.816406 168.71875 L 6.347656 168.71875 C 2.90625 168.71875 0.101562 165.914062 0.101562 162.476562 C 0.101562 159.035156 2.90625 156.230469 6.347656 156.230469 L 68.816406 156.230469 C 72.253906 156.230469 75.0625 159.035156 75.0625 162.476562 C 75.0625 165.914062 72.253906 168.71875 68.816406 168.71875 "/>
        <path style=" stroke:none;fill-rule:nonzero;fill:rgb(10.198975%,49.798584%,38.42926%);fill-opacity:1;" d="M 68.816406 218.675781 L 6.347656 218.675781 C 2.90625 218.675781 0.101562 215.871094 0.101562 212.429688 C 0.101562 208.992188 2.90625 206.1875 6.347656 206.1875 L 68.816406 206.1875 C 72.253906 206.1875 75.0625 208.992188 75.0625 212.429688 C 75.0625 215.871094 72.253906 218.675781 68.816406 218.675781 "/>
        <path style=" stroke:none;fill-rule:nonzero;fill:rgb(10.198975%,49.798584%,38.42926%);fill-opacity:1;" d="M 68.816406 193.699219 L 37.582031 193.699219 C 34.140625 193.699219 31.335938 190.890625 31.335938 187.453125 C 31.335938 184.015625 34.140625 181.207031 37.582031 181.207031 L 68.816406 181.207031 C 72.253906 181.207031 75.0625 184.015625 75.0625 187.453125 C 75.0625 190.890625 72.253906 193.699219 68.816406 193.699219 "/>
        <path style=" stroke:none;fill-rule:nonzero;fill:rgb(10.198975%,49.798584%,38.42926%);fill-opacity:1;" d="M 25.089844 256.144531 L 12.59375 256.144531 C 9.15625 256.144531 6.347656 253.339844 6.347656 249.898438 C 6.347656 246.460938 9.15625 243.652344 12.59375 243.652344 L 25.089844 243.652344 C 28.527344 243.652344 31.335938 246.460938 31.335938 249.898438 C 31.335938 253.339844 28.527344 256.144531 25.089844 256.144531 "/>
        <path style=" stroke:none;fill-rule:nonzero;fill:rgb(10.198975%,49.798584%,38.42926%);fill-opacity:1;" d="M 43.828125 293.609375 L 37.582031 293.609375 C 34.140625 293.609375 31.335938 290.804688 31.335938 287.367188 C 31.335938 283.925781 34.140625 281.121094 37.582031 281.121094 L 43.828125 281.121094 C 47.269531 281.121094 50.074219 283.925781 50.074219 287.367188 C 50.074219 290.804688 47.269531 293.609375 43.828125 293.609375 "/>
        <path style=" stroke:none;fill-rule:nonzero;fill:rgb(10.198975%,49.798584%,38.42926%);fill-opacity:1;" d="M 75.0625 256.144531 L 43.828125 256.144531 C 40.386719 256.144531 37.582031 253.339844 37.582031 249.898438 C 37.582031 246.460938 40.386719 243.652344 43.828125 243.652344 L 75.0625 243.652344 C 78.5 243.652344 81.308594 246.460938 81.308594 249.898438 C 81.308594 253.339844 78.5 256.144531 75.0625 256.144531 "/>
        <g clip-path="url(#clip1)" clip-rule="nonzero">
            <path style=" stroke:none;fill-rule:nonzero;fill:rgb(10.198975%,49.798584%,38.42926%);fill-opacity:1;" d="M 231.226562 318.589844 C 158.902344 318.589844 100.046875 259.753906 100.046875 187.453125 C 100.046875 115.152344 158.902344 56.316406 231.226562 56.316406 C 303.550781 56.316406 362.40625 115.152344 362.40625 187.453125 C 362.40625 259.753906 303.550781 318.589844 231.226562 318.589844 Z M 231.226562 43.828125 L 87.554688 43.828125 C 84.113281 43.828125 81.308594 46.632812 81.308594 50.074219 C 81.308594 53.511719 84.113281 56.316406 87.554688 56.316406 L 172.738281 56.316406 C 122.59375 78.757812 87.554688 129.082031 87.554688 187.453125 C 87.554688 245.824219 122.59375 296.148438 172.738281 318.589844 L 75.0625 318.589844 C 71.621094 318.589844 68.816406 321.394531 68.816406 324.832031 C 68.816406 328.273438 71.621094 331.078125 75.0625 331.078125 L 231.226562 331.078125 C 310.457031 331.078125 374.898438 266.65625 374.898438 187.453125 C 374.898438 108.25 310.457031 43.828125 231.226562 43.828125 "/>
        </g>
        <path style=" stroke:none;fill-rule:nonzero;fill:rgb(10.198975%,49.798584%,38.42926%);fill-opacity:1;" d="M 289.59375 276.046875 L 283.492188 265.4375 C 281.761719 262.460938 277.953125 261.4375 274.953125 263.167969 C 271.976562 264.898438 270.949219 268.707031 272.660156 271.679688 L 278.757812 282.242188 C 266.191406 288.5625 252.234375 292.414062 237.472656 293.292969 L 237.472656 281.121094 C 237.472656 277.683594 234.667969 274.878906 231.226562 274.878906 C 227.785156 274.878906 224.980469 277.683594 224.980469 281.121094 L 224.980469 293.292969 C 210.21875 292.414062 196.261719 288.5625 183.695312 282.242188 L 189.792969 271.679688 C 191.5 268.707031 190.476562 264.898438 187.5 263.167969 C 184.5 261.4375 180.691406 262.460938 178.960938 265.4375 L 172.859375 276.046875 C 160.855469 268.097656 150.558594 257.800781 142.601562 245.800781 L 153.21875 239.703125 C 156.195312 237.96875 157.21875 234.140625 155.484375 231.164062 C 153.753906 228.1875 149.945312 227.140625 146.96875 228.871094 L 136.40625 234.96875 C 130.085938 222.40625 126.230469 208.457031 125.351562 193.699219 L 137.527344 193.699219 C 140.96875 193.699219 143.773438 190.890625 143.773438 187.453125 C 143.773438 184.015625 140.96875 181.207031 137.527344 181.207031 L 125.351562 181.207031 C 126.230469 166.449219 130.085938 152.5 136.40625 139.9375 L 146.96875 146.035156 C 147.945312 146.59375 149.019531 146.863281 150.070312 146.863281 C 152.242188 146.863281 154.339844 145.742188 155.484375 143.742188 C 157.21875 140.765625 156.195312 136.9375 153.21875 135.203125 L 142.601562 129.105469 C 150.558594 117.105469 160.855469 106.808594 172.859375 98.859375 L 178.960938 109.46875 C 180.132812 111.46875 182.230469 112.589844 184.375 112.589844 C 185.449219 112.589844 186.523438 112.324219 187.5 111.738281 C 190.476562 110.007812 191.5 106.199219 189.792969 103.226562 L 183.695312 92.664062 C 196.261719 86.34375 210.21875 82.492188 224.980469 81.613281 L 224.980469 93.785156 C 224.980469 97.222656 227.785156 100.027344 231.226562 100.027344 C 234.667969 100.027344 237.472656 97.222656 237.472656 93.785156 L 237.472656 81.613281 C 252.234375 82.492188 266.191406 86.34375 278.757812 92.664062 L 272.660156 103.226562 C 270.949219 106.199219 271.976562 110.007812 274.953125 111.738281 C 275.929688 112.324219 277.003906 112.589844 278.074219 112.589844 C 280.222656 112.589844 282.320312 111.46875 283.492188 109.46875 L 289.59375 98.859375 C 301.597656 106.808594 311.894531 117.105469 319.851562 129.105469 L 309.234375 135.203125 C 306.257812 136.9375 305.234375 140.765625 306.964844 143.742188 C 308.113281 145.742188 310.210938 146.863281 312.382812 146.863281 C 313.433594 146.863281 314.507812 146.59375 315.480469 146.035156 L 326.046875 139.9375 C 332.367188 152.5 336.222656 166.449219 337.101562 181.207031 L 324.925781 181.207031 C 321.484375 181.207031 318.679688 184.015625 318.679688 187.453125 C 318.679688 190.890625 321.484375 193.699219 324.925781 193.699219 L 337.101562 193.699219 C 336.222656 208.457031 332.367188 222.40625 326.046875 234.96875 L 315.480469 228.871094 C 312.503906 227.140625 308.675781 228.1875 306.964844 231.164062 C 305.234375 234.140625 306.257812 237.96875 309.234375 239.703125 L 319.851562 245.800781 C 311.894531 257.800781 301.597656 268.097656 289.59375 276.046875 Z M 231.226562 68.804688 C 165.785156 68.804688 112.539062 122.03125 112.539062 187.453125 C 112.539062 252.875 165.785156 306.101562 231.226562 306.101562 C 296.667969 306.101562 349.910156 252.875 349.910156 187.453125 C 349.910156 122.03125 296.667969 68.804688 231.226562 68.804688 "/>
        <path style=" stroke:none;fill-rule:nonzero;fill:rgb(10.198975%,49.798584%,38.42926%);fill-opacity:1;" d="M 224.980469 187.453125 C 224.980469 184.015625 227.785156 181.207031 231.226562 181.207031 C 234.667969 181.207031 237.472656 184.015625 237.472656 187.453125 C 237.472656 190.890625 234.667969 193.699219 231.226562 193.699219 C 227.785156 193.699219 224.980469 190.890625 224.980469 187.453125 Z M 245.425781 199.550781 C 248.210938 196.257812 249.964844 192.085938 249.964844 187.453125 C 249.964844 179.332031 244.71875 172.453125 237.472656 169.867188 L 237.472656 112.519531 C 237.472656 109.078125 234.667969 106.273438 231.226562 106.273438 C 227.785156 106.273438 224.980469 109.078125 224.980469 112.519531 L 224.980469 169.867188 C 217.734375 172.453125 212.488281 179.332031 212.488281 187.453125 C 212.488281 197.796875 220.878906 206.1875 231.226562 206.1875 C 232.398438 206.1875 233.519531 206.039062 234.640625 205.84375 L 250.796875 233.847656 C 251.96875 235.847656 254.066406 236.96875 256.210938 236.96875 C 257.285156 236.96875 258.359375 236.703125 259.335938 236.117188 C 262.3125 234.410156 263.335938 230.578125 261.628906 227.605469 L 245.425781 199.550781 "/>
        <path style=" stroke:none;fill-rule:nonzero;fill:rgb(10.198975%,49.798584%,38.42926%);fill-opacity:1;" d="M 56.320312 93.785156 L 106.292969 93.785156 C 109.734375 93.785156 112.539062 90.980469 112.539062 87.539062 C 112.539062 84.101562 109.734375 81.296875 106.292969 81.296875 L 56.320312 81.296875 C 52.878906 81.296875 50.074219 84.101562 50.074219 87.539062 C 50.074219 90.980469 52.878906 93.785156 56.320312 93.785156 "/>
        <path style=" stroke:none;fill-rule:nonzero;fill:rgb(10.198975%,49.798584%,38.42926%);fill-opacity:1;" d="M 87.554688 131.253906 C 90.996094 131.253906 93.800781 128.445312 93.800781 125.007812 C 93.800781 121.566406 90.996094 118.761719 87.554688 118.761719 L 56.320312 118.761719 C 52.878906 118.761719 50.074219 121.566406 50.074219 125.007812 C 50.074219 128.445312 52.878906 131.253906 56.320312 131.253906 L 87.554688 131.253906 "/>
        <path style=" stroke:none;fill-rule:nonzero;fill:rgb(10.198975%,49.798584%,38.42926%);fill-opacity:1;" d="M 106.292969 287.367188 C 106.292969 283.925781 103.488281 281.121094 100.046875 281.121094 L 62.566406 281.121094 C 59.128906 281.121094 56.320312 283.925781 56.320312 287.367188 C 56.320312 290.804688 59.128906 293.609375 62.566406 293.609375 L 100.046875 293.609375 C 103.488281 293.609375 106.292969 290.804688 106.292969 287.367188 "/>
        <path style=" stroke:none;fill-rule:nonzero;fill:rgb(10.198975%,49.798584%,38.42926%);fill-opacity:1;" d="M 37.582031 131.253906 L 25.089844 131.253906 C 21.648438 131.253906 18.839844 128.445312 18.839844 125.007812 C 18.839844 121.566406 21.648438 118.761719 25.089844 118.761719 L 37.582031 118.761719 C 41.023438 118.761719 43.828125 121.566406 43.828125 125.007812 C 43.828125 128.445312 41.023438 131.253906 37.582031 131.253906 "/>
    </g>
</svg>