<svg enable-background="new 0 0 24 24" viewBox="0 0 24 24" class="sc-gKsewC bjrFvf"><path d="M8.1,21.034A12.717,12.717,0,0,1,1.23,19.019a.5.5,0,0,1,.329-.917,8.273,8.273,0,0,0,4.992-1,4.807,4.807,0,0,1-3.173-3.13.5.5,0,0,1,.348-.636A4.821,4.821,0,0,1,1.843,9.523a.548.548,0,0,1,.247-.458.506.506,0,0,1,.5-.034l.091.049A4.816,4.816,0,0,1,2.529,4a.507.507,0,0,1,.393-.247.5.5,0,0,1,.427.183,11.781,11.781,0,0,0,7.9,4.27c-.013-.144-.02-.289-.02-.435a4.81,4.81,0,0,1,8.116-3.493,8.157,8.157,0,0,0,2.32-.93.5.5,0,0,1,.73.583,4.781,4.781,0,0,1-.662,1.32c.191-.067.378-.143.563-.225a.5.5,0,0,1,.585.135.5.5,0,0,1,.034.6,9.2,9.2,0,0,1-2.057,2.2c0,.1,0,.208,0,.313A12.636,12.636,0,0,1,8.1,21.034ZM3.527,19.105a11.72,11.72,0,0,0,4.577.929A11.645,11.645,0,0,0,19.863,8.275c0-.179,0-.357-.012-.533a.5.5,0,0,1,.207-.43,8.181,8.181,0,0,0,.959-.81,9.068,9.068,0,0,1-.932.16.5.5,0,0,1-.316-.925,3.857,3.857,0,0,0,.977-.837,9.013,9.013,0,0,1-1.465.418.5.5,0,0,1-.461-.148,3.812,3.812,0,0,0-6.491,3.473.5.5,0,0,1-.1.434.489.489,0,0,1-.409.179A12.772,12.772,0,0,1,3.09,5.167,3.812,3.812,0,0,0,4.573,9.591a.5.5,0,0,1,.2.569.523.523,0,0,1-.491.347,4.772,4.772,0,0,1-1.36-.242A3.813,3.813,0,0,0,5.9,13.257a.5.5,0,0,1,.033.972,6.63,6.63,0,0,1-1.279.17,3.809,3.809,0,0,0,3.236,1.914.5.5,0,0,1,.3.894A9.081,9.081,0,0,1,3.527,19.105Z"></path></svg>