<svg xmlns="http://www.w3.org/2000/svg" width="192" height="192" fill="none" viewBox="0 0 192 192"><mask id="mask0_2514_113802" style="mask-type:alpha" width="154" height="155" x="19" y="18" maskUnits="userSpaceOnUse"><path fill="#EFF3F5" d="M19 79.4249C19 58.2429 19 47.6519 23.1418 39.5615C26.7849 32.4449 32.5982 26.659 39.7484 23.0329C47.877 18.9106 58.518 18.9106 79.8 18.9106H112.2C133.482 18.9106 144.123 18.9106 152.252 23.0329C159.402 26.659 165.215 32.4449 168.858 39.5615C173 47.6519 173 58.2429 173 79.4249V111.673C173 132.855 173 143.446 168.858 151.536C165.215 158.653 159.402 164.438 152.252 168.065C144.123 172.187 133.482 172.187 112.2 172.187H79.8C58.518 172.187 47.877 172.187 39.7484 168.065C32.5982 164.438 26.7849 158.653 23.1418 151.536C19 143.446 19 132.855 19 111.673V79.4249Z"/></mask><g mask="url(#mask0_2514_113802)"><path fill="#EFF3F5" d="M19 79.4249C19 58.2429 19 47.6519 23.1418 39.5615C26.7849 32.4449 32.5982 26.659 39.7484 23.0329C47.877 18.9106 58.518 18.9106 79.8 18.9106H112.2C133.482 18.9106 144.123 18.9106 152.252 23.0329C159.402 26.659 165.215 32.4449 168.858 39.5615C173 47.6519 173 58.2429 173 79.4249V111.673C173 132.855 173 143.446 168.858 151.536C165.215 158.653 159.402 164.438 152.252 168.065C144.123 172.187 133.482 172.187 112.2 172.187H79.8C58.518 172.187 47.877 172.187 39.7484 168.065C32.5982 164.438 26.7849 158.653 23.1418 151.536C19 143.446 19 132.855 19 111.673V79.4249Z"/><path fill="#0245F5" d="M64.4357 99.2049C61.4568 90.2244 68.1193 79.9753 77.7353 78.7458C85.4356 77.7612 91.9305 83.089 92.4692 90.8319L95.2449 130.728C95.6499 136.548 90.8397 141.897 85.0651 142.048C81.2168 142.149 77.922 139.861 76.727 136.259L64.4357 99.2049Z"/><path fill="#0245F5" d="M127.578 99.2049C130.557 90.2244 123.894 79.9753 114.278 78.7458C106.578 77.7612 100.083 83.089 99.5445 90.8319L96.7688 130.728C96.3638 136.548 101.174 141.897 106.949 142.048C110.797 142.149 114.092 139.861 115.287 136.259L127.578 99.2049Z"/><path fill="#0245F5" d="M141.68 158.382C141.68 183.277 132.284 203.458 95.9837 203.458C59.6831 203.458 50.2871 183.277 50.2871 158.382C50.2871 133.488 59.6831 113.307 95.9837 113.307C132.284 113.307 141.68 133.488 141.68 158.382Z"/><path fill="#1DE9B6" d="M-5 159.155C-5 155.203 -1.7814 152 2.18894 152H189.034C193.004 152 196.223 155.203 196.223 159.155V199.03C196.223 202.982 193.004 206.186 189.034 206.186H2.18893C-1.78141 206.186 -5 202.982 -5 199.03V159.155Z"/><path fill="#fff" d="M81 153.5C81 159.148 76.9706 161 72 161C67.0294 161 63 159.148 63 153.5C63 147.852 67.0294 146 72 146C76.9706 146 81 147.852 81 153.5Z"/><path fill="#fff" d="M132 153.5C132 159.148 128.194 161 123.5 161C118.806 161 115 159.148 115 153.5C115 147.852 118.806 146 123.5 146C128.194 146 132 147.852 132 153.5Z"/><path fill="url(#paint0_linear_2514_113802)" d="M-1.25879 59.5254L25.6212 56.3359L39.2584 170.187L12.3785 173.377L-1.25879 59.5254Z"/><path fill="#0D767E" d="M-1.25879 59.5254L25.6212 56.3359L32.6088 114.672C17.7634 116.434 4.29407 105.884 2.52423 91.1082L-1.25879 59.5254Z"/><path fill="url(#paint1_linear_2514_113802)" d="M193.365 59.5254L166.485 56.3359L152.848 170.187L179.728 173.377L193.365 59.5254Z"/><path fill="#0D767E" d="M193.365 59.5254L166.485 56.3359L159.498 114.672C174.343 116.434 187.812 105.884 189.582 91.1082L193.365 59.5254Z"/><path fill="url(#paint2_linear_2514_113802)" d="M165.674 -8.38571C165.177 -10.4716 163.313 -11.9436 161.169 -11.9436H137.073C134.343 -11.9436 132.206 -9.59432 132.462 -6.87637L138.337 55.2995C139.209 64.5275 146.992 71.5799 156.304 71.5799H161.902C173.553 71.5799 182.151 60.7555 179.462 49.4725L165.674 -8.38571Z"/><path fill="#1DE9B6" d="M26.0258 -8.38571C26.5229 -10.4716 28.3868 -11.9436 30.5312 -11.9436H54.6264C57.3564 -11.9436 59.4942 -9.59432 59.2374 -6.87637L53.363 55.2995C52.4912 64.5275 44.7079 71.5799 35.3954 71.5799H29.7972C18.1464 71.5799 9.54867 60.7555 12.2375 49.4725L26.0258 -8.38571Z"/><path fill="#1DE9B6" d="M132.38 -7.74767C132.155 -10.1263 130.158 -11.9436 127.769 -11.9436H100.481C97.9232 -11.9436 95.8496 -9.86997 95.8496 -7.31202V53.6179C95.8496 63.538 103.929 71.5799 113.896 71.5799H120.051C130.686 71.5799 139.014 62.4742 138.019 51.9362L132.38 -7.74767Z"/><path fill="url(#paint3_linear_2514_113802)" d="M59.3199 -7.74767C59.5446 -10.1263 61.5417 -11.9436 63.9309 -11.9436H91.2185C93.7765 -11.9436 95.8501 -9.86997 95.8501 -7.31202V53.6179C95.8501 63.538 87.7702 71.5799 77.8032 71.5799H71.6485C61.0141 71.5799 52.6853 62.4742 53.6809 51.9362L59.3199 -7.74767Z"/><path stroke="#fff" stroke-linecap="round" stroke-linejoin="round" stroke-width="4.964" d="M87.7446 134.448C86.3041 132.604 82.3166 129.779 77.8902 133.236C73.4639 136.694 70.2975 133.97 69.2676 132.176"/><path stroke="#fff" stroke-linecap="round" stroke-linejoin="round" stroke-width="4.964" d="M104.268 134.448C105.708 132.604 109.696 129.779 114.122 133.236C118.548 136.694 121.715 133.97 122.745 132.176"/></g><defs><linearGradient id="paint0_linear_2514_113802" x1="12.181" x2="25.692" y1="57.931" y2="171.797" gradientUnits="userSpaceOnUse"><stop stop-color="#10BCBA"/><stop offset="1" stop-color="#1DE9B6"/></linearGradient><linearGradient id="paint1_linear_2514_113802" x1="179.925" x2="166.414" y1="57.931" y2="171.797" gradientUnits="userSpaceOnUse"><stop stop-color="#10BCBA"/><stop offset="1" stop-color="#1DE9B6"/></linearGradient><linearGradient id="paint2_linear_2514_113802" x1="155.971" x2="155.971" y1="-11.944" y2="71.58" gradientUnits="userSpaceOnUse"><stop stop-color="#1EB8CB"/><stop offset="1" stop-color="#00BFA5"/></linearGradient><linearGradient id="paint3_linear_2514_113802" x1="74.725" x2="74.725" y1="-11.944" y2="71.58" gradientUnits="userSpaceOnUse"><stop stop-color="#1EB8CB"/><stop offset="1" stop-color="#00BFA5"/></linearGradient></defs></svg>