<svg width="65" height="64" viewBox="0 0 65 64" fill="none" xmlns="http://www.w3.org/2000/svg">
<g clip-path="url(#clip0)">
<path fill-rule="evenodd" clip-rule="evenodd" d="M59.8096 13.0513C60.4976 14.6101 60.4116 16.1122 59.6338 17.4594C58.8559 18.8067 57.598 19.6322 55.9041 19.8158C54.1595 20.0049 51.8627 19.5127 49.186 17.9673C46.5092 16.4219 44.9346 14.6789 44.2261 13.0735C43.5381 11.5147 43.6241 10.0126 44.4019 8.66531C45.1797 7.31806 46.4376 6.49255 48.1316 6.30895C49.8762 6.11986 52.1729 6.61205 54.8497 8.15747C57.5264 9.70288 59.1011 11.4458 59.8096 13.0513ZM62.8115 11.7264C61.7416 9.30225 59.5722 7.09519 56.4903 5.31583C53.4084 3.53647 50.4123 2.7613 47.778 3.04682C45.093 3.33784 42.8857 4.72889 41.5603 7.0247C40.2348 9.3205 40.1337 11.9275 41.2242 14.3983C42.2941 16.8225 44.4634 19.0296 47.5454 20.8089C50.6273 22.5883 53.6233 23.3635 56.2577 23.0779C58.9427 22.7869 61.1499 21.3959 62.4754 19.1001C63.8009 16.8043 63.902 14.1972 62.8115 11.7264Z" fill="#FFAF00"/>
<path d="M52.7743 16.6215C53.1367 15.9938 52.9216 15.1911 52.2939 14.8286L50.35 13.7063C49.7223 13.3439 48.9196 13.559 48.5571 14.1867L45.5218 19.4441C45.1594 20.0718 45.3745 20.8745 46.0022 21.237L47.9461 22.3592C48.5738 22.7217 49.3765 22.5066 49.739 21.8788L52.7743 16.6215Z" fill="#EB8C00"/>
<path d="M57.6357 14.4296C57.9982 13.8019 57.7831 12.9992 57.1553 12.6367L49.8177 8.40031C49.1899 8.03787 48.3872 8.25296 48.0248 8.88072L46.3996 11.6956C46.0372 12.3233 46.2522 13.126 46.88 13.4885L54.2177 17.7249C54.8454 18.0873 55.6481 17.8722 56.0106 17.2445L57.6357 14.4296Z" fill="#FFAF00"/>
<path d="M57.6357 14.4296C57.9982 13.8019 57.7831 12.9992 57.1553 12.6367L51.5137 9.37953C50.886 9.01709 50.0832 9.23218 49.7208 9.85993L48.4221 12.1094C48.0596 12.7372 48.2747 13.5399 48.9025 13.9023L54.5441 17.1595C55.1718 17.522 55.9746 17.3069 56.337 16.6791L57.6357 14.4296Z" fill="#FFD800"/>
<path d="M56.8333 13.208C57.0145 12.8941 56.9069 12.4927 56.5931 12.3115L55.4683 11.6621C55.1544 11.4809 54.7531 11.5885 54.5718 11.9023L52.6168 15.2885C52.4356 15.6024 52.5432 16.0037 52.857 16.185L53.9818 16.8343C54.2957 17.0156 54.697 16.908 54.8783 16.5941L56.8333 13.208Z" fill="#FFE971"/>
<path d="M19.7368 50.6413C25.8965 61.3103 39.1985 64.1055 50.012 57.8623C60.8256 51.6191 65.0558 38.7016 58.8961 28.0327C52.7363 17.3637 39.4343 14.5684 28.6208 20.8116C17.8073 27.0548 13.577 39.9723 19.7368 50.6413Z" fill="#EB8C00"/>
<path d="M17.8236 47.3278C23.9833 57.9968 37.2853 60.7921 48.0988 54.5489C58.9124 48.3057 63.1426 35.3882 56.9828 24.7192C50.8231 14.0502 37.5211 11.255 26.7076 17.4982C15.8941 23.7414 11.6638 36.6588 17.8236 47.3278Z" fill="#FFD800"/>
<path fill-rule="evenodd" clip-rule="evenodd" d="M16.1058 30.186C16.9422 27.6944 18.243 25.3342 19.959 23.2208L59.7633 33.6536C59.968 36.282 59.6607 38.9021 58.8898 41.3997L16.1058 30.186ZM53.1174 50.7998C54.2781 49.6565 55.3007 48.4152 56.1753 47.0993L15.0161 36.3115C14.9764 37.8416 15.1075 39.385 15.419 40.919L53.1174 50.7998Z" fill="#FFE971"/>
<path d="M20.5346 45.7627C25.8931 55.0438 37.3913 57.5179 46.7075 52.1391C56.0238 46.7604 59.6303 35.5656 54.2718 26.2845C48.9134 17.0034 37.4152 14.5293 28.0989 19.908C18.7826 25.2868 15.1762 36.4816 20.5346 45.7627Z" fill="#FFC700"/>
<path d="M22.5562 44.3944C27.2251 52.4813 37.1645 54.4355 45.3162 49.7291C53.4679 45.0226 56.7452 35.4378 52.0763 27.351C47.4073 19.2641 37.468 17.3099 29.3163 22.0163C21.1645 26.7228 17.8873 36.3076 22.5562 44.3944Z" fill="white"/>
<path d="M26.6982 25.8794C25.529 26.9563 27.3141 27.7137 28.6436 26.8423C31.1195 25.2195 34.0844 24.2837 37.2749 24.2999C41.8724 24.3232 46.0214 26.3186 48.9255 29.4851C49.9113 30.56 51.7154 30.0601 50.9862 28.797C46.5832 21.1708 37.3314 19.2579 29.7938 23.6097C28.6543 24.2676 27.6192 25.031 26.6982 25.8794Z" fill="#E7E8E8"/>
<path d="M46.6859 46.724C47.9059 45.705 46.1489 44.9125 44.7755 45.7127C42.5803 46.9916 40.0241 47.7178 37.2927 47.7044C32.9569 47.683 29.0444 45.8022 26.306 42.8169C25.3762 41.8033 23.6746 42.2746 24.3623 43.4658C28.5137 50.6562 37.2387 52.4587 44.3481 48.3541C45.1891 47.8686 45.9698 47.3221 46.6859 46.724Z" fill="#E7E8E8"/>
<path d="M43.9629 27.4824C44.2347 27.0116 44.0734 26.4095 43.6026 26.1377L43.1939 25.9018C42.7231 25.6299 42.1211 25.7913 41.8493 26.2621L37.9524 33.0116C37.6806 33.4824 37.8419 34.0845 38.3127 34.3563L38.7214 34.5922C39.1922 34.864 39.7942 34.7027 40.066 34.2319L43.9629 27.4824Z" fill="#452A7A"/>
<path d="M28.7713 36.6979C28.2461 36.8386 27.9345 37.3783 28.0752 37.9035L28.2044 38.3855C28.3451 38.9106 28.8848 39.2222 29.41 39.0815L35.509 37.4473C36.0341 37.3066 36.3457 36.7668 36.205 36.2417L36.0759 35.7597C35.9351 35.2346 35.3954 34.9229 34.8703 35.0636L28.7713 36.6979Z" fill="#452A7A"/>
<path d="M34.4746 34.1531C35.492 32.3909 37.5698 31.9142 39.2374 32.8769C40.905 33.8397 41.531 35.8775 40.5136 37.6397C39.4961 39.4019 37.4184 39.8787 35.7508 38.9159C34.0832 37.9531 33.4572 35.9153 34.4746 34.1531Z" fill="#452A7A"/>
<path d="M23.1836 19.478C22.3989 19.025 21.2736 19.505 20.6702 20.5502L15.1521 30.1078C14.5486 31.153 14.6956 32.3676 15.4803 32.8207L16.2447 33.262C17.0294 33.7151 18.1548 33.235 18.7582 32.1898L24.2763 22.6322C24.8797 21.587 24.7328 20.3724 23.9481 19.9194L23.1836 19.478Z" fill="#EB8C00"/>
<path d="M2.994 37.9558C-1.02847 35.6334 0.241913 26.5925 5.46289 17.5495C10.6839 8.50649 17.8784 2.88583 21.9008 5.2082C25.9233 7.53058 24.6529 16.5715 19.432 25.6145C14.211 34.6575 7.01647 40.2782 2.994 37.9558Z" fill="#FFC700"/>
<path d="M4.83299 38.1484C1.7033 36.3643 3.35034 28.2923 8.22497 19.9556C13.0996 11.6189 19.3559 6.17455 22.4856 7.95869C25.6153 9.74284 23.9682 17.8148 19.0936 26.1515C14.219 34.4882 7.96268 39.9326 4.83299 38.1484Z" fill="#FFD800"/>
<path fill-rule="evenodd" clip-rule="evenodd" d="M3.60014 31.1921C3.93508 29.62 4.48939 27.8721 5.2427 26.0264L24.0296 10.5665C24.1831 11.6715 24.0978 13.0334 23.7936 14.5747L3.60014 31.1921ZM21.3106 21.8365C21.8264 20.7198 22.2757 19.6283 22.6543 18.5778L3.22739 34.5644C3.24264 35.2885 3.33778 35.9319 3.51683 36.4792L21.3106 21.8365Z" fill="#FFE971"/>
</g>
<defs>
<clipPath id="clip0">
<rect width="64" height="64" fill="white" transform="matrix(-1 0 0 1 64.5 0)"/>
</clipPath>
</defs>
</svg>
