<svg width="30" height="61" viewBox="0 0 30 61" fill="none" xmlns="http://www.w3.org/2000/svg">
<path d="M20 48.5C20 46.567 21.567 45 23.5 45H30V52H23.5C21.567 52 20 50.433 20 48.5Z" fill="#4E2F8C"/>
<rect x="20" y="5" width="10" height="38" fill="#7645D9"/>
<rect x="25" width="5" height="7" fill="#7645D9"/>
<path fill-rule="evenodd" clip-rule="evenodd" d="M25 43H20V48C20 45.2386 22.2386 43 25 43Z" fill="#7645D9"/>
<path d="M25 44C22.7909 44 21 45.7909 21 48" stroke="#3B2070" stroke-width="2"/>
<path d="M25 52L30 52.0001" stroke="#3B2070" stroke-width="2"/>
<path d="M25 52C22.7909 52 21 50.2091 21 48" stroke="#3B2070" stroke-width="2"/>
<rect x="25" y="43" width="5" height="2" fill="#3B2070"/>
<path d="M20 5C20 2.23858 22.2386 -1.20706e-07 25 0L25 5L20 5Z" fill="#7645D9"/>
</svg>
