<svg width="24" height="24" viewBox="0 0 24 24" fill="none" xmlns="http://www.w3.org/2000/svg"><path d="M24 12C24 18.6274 18.6274 24 12 24C5.37258 24 0 18.6274 0 12C0 5.37258 5.37258 0 12 0C18.6274 0 24 5.37258 24 12Z" fill="#0F3679"></path><path d="M16.245 18.25V16.535H10.1025V16.43C10.7675 16.0275 11.4325 15.1 11.4325 13.8225C11.4325 13.595 11.415 13.4025 11.38 13.21H14.495V11.6175H10.855C10.6625 11.0225 10.47 10.445 10.47 9.72751C10.47 8.29251 11.275 7.54001 12.64 7.54001C13.725 7.54001 14.4775 8.01251 15.09 8.90501L16.5425 7.87251C15.7025 6.56001 14.46 5.82501 12.64 5.82501C10.05 5.82501 8.45746 7.31251 8.45746 9.46501C8.45746 10.2875 8.68496 10.9525 8.89496 11.6175H7.70496V13.21H9.43746C9.47246 13.4375 9.50746 13.7 9.50746 13.945C9.50746 14.925 9.10496 15.8175 8.15996 16.2375V18.25H16.245Z" fill="white"></path></svg>