<svg xmlns="http://www.w3.org/2000/svg" width="43" height="42" fill="none">
  <g clip-path="url(#A)" transform="translate(0 -1)">
    <path d="M22.288 42.695V43H32.4v-.305c0-4.56 5.156-11.093 5.156-20.932 0-8.378-1.407-12.907-2.262-15C34.578 5.012 33.765 4 32.032 4s-3.428.664-3.888 4.53c-1.358 11.5-6.562 18.148-5.856 34.166zm-1.54 0V43H10.645v-.305c0-4.56-5.156-11.093-5.156-20.932 0-8.378 1.407-12.907 2.262-15C8.457 5.012 9.27 4 11.003 4s3.428.664 3.888 4.53c1.36 11.5 6.562 18.148 5.856 34.166z" fill="#fff" stroke="#1f1f1f"/>
    <path d="M34.125 8.477c.498 1.756 1.842 8.62 1.275 15.49C34.753 31.812 30.666 38 30.328 43H12.743c-.338-5-4.424-11.188-5.07-19.033-.562-6.87.782-13.74 1.275-15.49C9.38 6.94 9.9 6 10.944 6c.975 0 1.676.483 1.858 2.737.423 5.3 1.135 17.26 1.45 23.006.327 5.893 2.598 10.956 7.13 10.956h.32c4.526 0 6.787-5.062 7.113-10.956l1.45-23.006C30.45 6.483 31.152 6 32.127 6c1.044 0 1.564.94 1.998 2.477z" stroke-miterlimit="10" stroke="#1f1f1f"/>
    <path d="M25.513 5v.176c-2.492 0-3.947 1.508-3.947 3.984h-.246c0-2.492-1.492-3.984-3.958-3.984V5c2.465 0 3.958-1.508 3.958-4h.246c0 2.482 1.455 4 3.947 4z" fill="#1f1f1f"/>
    <path d="M0 42.5h43" stroke-miterlimit="10" stroke="#1f1f1f"/>
  </g>
  <defs>
    <clipPath id="A">
      <path transform="translate(0 1)" d="M0 0h43v42H0z" fill="#fff"/>
    </clipPath>
  </defs>
</svg>