<svg xmlns="http://www.w3.org/2000/svg" width="145.951" height="33.52" fill="none" viewBox="0 0 222.9 59.1"><path fill="#212121" d="M210.36 25.265c-4.738 0-8.566 3.796-8.566 8.47s3.84 8.47 8.566 8.47c4.738 0 8.566-3.796 8.566-8.47s-3.84-8.47-8.566-8.47zm0 14.63c-3.443 0-6.232-2.758-6.232-6.162s2.8-6.162 6.232-6.162 6.232 2.758 6.232 6.162c-.012 3.404-2.8 6.162-6.232 6.162zm-96.28-14.63c-2.416 0-4.248 1.892-4.773 3.438v-2.77H102.2v2.32h4.784V39.33l-4.796.012v2.308l13.036-.012V39.33h-5.917v-7.027c0-1.05.922-4.87 4.108-4.87.97 0 1.867.254 2.44.923a1.8 1.8 0 0 0-.362 1.073c0 1.004.83 1.823 1.844 1.823 1.097 0 1.797-.877 1.797-1.95.012-1.754-2.007-4.038-5.053-4.038zm60.686 0c-2.416 0-4.248 1.88-4.773 3.427v-2.758h-7.107v2.32h4.784v11.054l-4.796.012v2.308l13.036-.012v-2.308h-5.917V32.28c0-1.05.922-4.87 4.108-4.87.97 0 1.867.254 2.44.923a1.8 1.8 0 0 0-.362 1.073c0 1.004.83 1.823 1.844 1.823 1.097 0 1.797-.877 1.797-1.95.012-1.742-2.007-4.015-5.053-4.015zm-38.77 7.407c1.016 0 1.844-.82 1.844-1.823l-.01-.23c-.234-2.088-3.56-5.33-7.785-5.33-4.796 0-8.682 3.796-8.682 8.492s3.886 8.492 8.682 8.492c3.315 0 6.198-1.823 7.656-4.5l-1.88-1.258c-1.143 2.03-3.28 3.44-5.788 3.44-3.478 0-6.2-2.758-6.2-6.173s2.73-6.173 6.2-6.173c1.937 0 3.56.727 4.645 1.985a1.81 1.81 0 0 0-.514 1.258c-.012 1.015.817 1.823 1.832 1.823zm57.64-4.42h1.926l-4.166 10.673-4.54-10.673h1.972v-2.32H182v2.32h2.37l5.824 13.8-3.2 8.238h2.485l8.6-22.027h2.427v-2.32h-6.84zM77.294 31.936c0-4.12-2.778-6.67-6.185-6.67-2.672 0-4.902 1.915-5.882 3.865-.945-2.423-3.14-3.865-5.684-3.865s-4.715 1.88-5.392 3.427v-2.77l-4.843.012v2.32h2.5v13.362h2.334V32.27c0-1.073 1.307-4.88 5.053-4.88 1.774 0 4.2 1.592 4.2 4.835v9.392h2.334v-9.392c0-1.073 1.155-4.835 5.042-4.835 1.774 0 4.2 1.43 4.2 4.685v9.554h4.832v-2.285h-2.5zm13.666-6.683c-4.738 0-8.6 3.738-8.6 8.423a17.13 17.13 0 0 0 .047.877c.432 4.292 4.13 7.65 8.636 7.65 3.314 0 6.197-1.823 7.656-4.5l-1.88-1.258c-1.144 2.03-3.28 3.438-5.8 3.438-3.198 0-5.86-2.33-6.255-5.342l14.4.01a7.17 7.17 0 0 0 .047-.865c0-4.696-3.525-8.435-8.263-8.435zm-6.092 6.98c.653-2.723 3.14-4.754 6.104-4.754s5.112 2.03 5.777 4.754zm71.962-6.3h-2.335v9.3c0 2.1-2.24 4.973-5.076 4.973-1.774 0-4.178-1.662-4.178-4.685v-9.588h-4.832v2.32h2.5v7.396c0 4.12 2.778 6.554 6.186 6.554 2.416 0 4.27-1.477 5.403-3v2.446l4.843-.012V39.32h-2.5z"/><g clip-path="url(#A)" transform="translate(0 -1)"><path fill="#fff" stroke="#1f1f1f" d="M22.288 42.695V43H32.4v-.305c0-4.56 5.156-11.093 5.156-20.932 0-8.378-1.407-12.907-2.262-15C34.578 5.012 33.765 4 32.032 4s-3.428.664-3.888 4.53c-1.358 11.5-6.562 18.148-5.856 34.166zm-1.54 0V43H10.645v-.305c0-4.56-5.156-11.093-5.156-20.932 0-8.378 1.407-12.907 2.262-15C8.457 5.012 9.27 4 11.003 4s3.428.664 3.888 4.53c1.36 11.5 6.562 18.148 5.856 34.166z"/><path stroke="#1f1f1f" stroke-miterlimit="10" d="M34.125 8.477c.498 1.756 1.842 8.62 1.275 15.49C34.753 31.812 30.666 38 30.328 43H12.743c-.338-5-4.424-11.188-5.07-19.033-.562-6.87.782-13.74 1.275-15.49C9.38 6.94 9.9 6 10.944 6c.975 0 1.676.483 1.858 2.737.423 5.3 1.135 17.26 1.45 23.006.327 5.893 2.598 10.956 7.13 10.956h.32c4.526 0 6.787-5.062 7.113-10.956l1.45-23.006C30.45 6.483 31.152 6 32.127 6c1.044 0 1.564.94 1.998 2.477z"/><path fill="#1f1f1f" d="M25.513 5v.176c-2.492 0-3.947 1.508-3.947 3.984h-.246c0-2.492-1.492-3.984-3.958-3.984V5c2.465 0 3.958-1.508 3.958-4h.246c0 2.482 1.455 4 3.947 4z"/><path stroke="#1f1f1f" stroke-miterlimit="10" d="M0 42.5h43"/></g><defs><clipPath id="A"><path fill="#fff" d="M0 0h43v42H0z" transform="translate(0 1)"/></clipPath></defs></svg>