<svg xmlns="http://www.w3.org/2000/svg" xmlns:xlink="http://www.w3.org/1999/xlink" version="1.1" id="transak_symbol" x="0px" y="0px" viewBox="0 0 64 64" style="enable-background:new 0 0 64 64;" xml:space="preserve">
<style type="text/css">
	.st0{clip-path:url(#SVGID_00000101812203663220536460000016002016787146522276_);}
	.st1{fill:url(#SVGID_00000135654205200416047740000000918654374279461525_);}
	.st2{fill:#FFFFFF;}
</style>
<g>
	<defs>
		<rect id="SVGID_1_" y="0" width="64" height="64"/>
	</defs>
	<clipPath id="SVGID_00000141455462883667420760000004809771273345649024_">
		<use xlink:href="#SVGID_1_" style="overflow:visible;"/>
	</clipPath>
	<g style="clip-path:url(#SVGID_00000141455462883667420760000004809771273345649024_);">

			<linearGradient id="SVGID_00000112597383097920615070000008876140591591939752_" gradientUnits="userSpaceOnUse" x1="4.3114" y1="50.3798" x2="59.6889" y2="18.4073" gradientTransform="matrix(1 0 0 -1 0 66.3937)">
			<stop offset="0.13" style="stop-color:#348BED"/>
			<stop offset="0.31" style="stop-color:#2B80E8"/>
			<stop offset="0.64" style="stop-color:#1461DB"/>
			<stop offset="0.72" style="stop-color:#0E57D7"/>
		</linearGradient>
		<path style="fill:url(#SVGID_00000112597383097920615070000008876140591591939752_);" d="M32,64c17.7,0,32-14.3,32-32    C64,14.3,49.7,0,32,0C14.3,0,0,14.3,0,32C0,49.7,14.3,64,32,64z"/>
		<path class="st2" d="M52.2,30l-9-9l0,0c0,0,0,0,0,0c-0.1-0.1-0.1-0.1-0.2-0.2c0,0-0.1-0.1-0.1-0.1c0,0,0,0-0.1,0    c-0.5-0.3-1.1-0.5-1.7-0.4c-0.6,0.1-1.2,0.4-1.5,0.9l-14,14V22.8c0-0.6-0.3-1.3-0.7-1.7c-0.5-0.5-1.1-0.7-1.7-0.7    c-0.6,0-1.3,0.3-1.7,0.7c-0.5,0.5-0.7,1.1-0.7,1.7v12.5l-5.1-5.1c-0.5-0.4-1.1-0.7-1.7-0.7c-0.6,0-1.3,0.3-1.7,0.7    c-0.5,0.5-0.7,1.1-0.7,1.7c0,0.6,0.2,1.3,0.7,1.7l9.4,9.4c0.1,0.1,0.1,0.1,0.2,0.2c0.1,0.1,0.1,0.1,0.2,0.1    c0.3,0.2,0.7,0.4,1.1,0.4h0c0.1,0,0.2,0,0.2,0c0,0,0,0,0,0c0.1,0,0.1,0,0.2,0l0,0c0.1,0,0.1,0,0.2,0l0,0c0.1,0,0.1,0,0.2-0.1l0,0    c0.1,0,0.1,0,0.2-0.1c0.1,0,0.2-0.1,0.3-0.2l0.1,0c0.1-0.1,0.2-0.1,0.3-0.2c0,0,0,0,0,0c0.1,0,0.1-0.1,0.2-0.1l14.2-14.2v12.5    c0,0.7,0.3,1.3,0.7,1.8c0.5,0.5,1.1,0.7,1.8,0.7s1.3-0.3,1.8-0.7c0.5-0.5,0.7-1.1,0.7-1.8V28.7l4.8,4.8c0.2,0.2,0.5,0.4,0.8,0.6    c0.3,0.1,0.6,0.2,1,0.2c0.3,0,0.7-0.1,1-0.2c0.3-0.1,0.6-0.3,0.8-0.5s0.4-0.5,0.5-0.8c0.1-0.3,0.2-0.6,0.2-1c0-0.3-0.1-0.7-0.2-1    C52.6,30.5,52.4,30.3,52.2,30L52.2,30z"/>
	</g>
</g>
</svg>